<?xml version="1.0" encoding="UTF-8" standalone="no"?>
<!DOCTYPE svg PUBLIC "-//W3C//DTD SVG 1.1//EN"
 "http://www.w3.org/Graphics/SVG/1.1/DTD/svg11.dtd">
<!-- Generated by graphviz version 2.43.0 (0)
 -->
<!-- Title: init_actors_and_load_textures Pages: 1 -->
<svg width="736pt" height="197pt"
 viewBox="0.00 0.00 736.00 197.00" xmlns="http://www.w3.org/2000/svg" xmlns:xlink="http://www.w3.org/1999/xlink">
<g id="graph0" class="graph" transform="scale(1 1) rotate(0) translate(4 193)">
<title>init_actors_and_load_textures</title>
<!-- Node1 -->
<g id="Node000001" class="node">
<title>Node1</title>
<g id="a_Node000001"><a xlink:title="Loads actor textures, course specific actor textures. Calls to spawn_course_vehicles and place_course...">
<polygon fill="#999999" stroke="#666666" points="117,-98.5 0,-98.5 0,-68.5 117,-68.5 117,-98.5"/>
<text text-anchor="start" x="8" y="-86.5" font-family="Helvetica,sans-Serif" font-size="10.00">init_actors_and_load</text>
<text text-anchor="middle" x="58.5" y="-75.5" font-family="Helvetica,sans-Serif" font-size="10.00">_textures</text>
</a>
</g>
</g>
<!-- Node2 -->
<g id="Node000002" class="node">
<title>Node2</title>
<g id="a_Node000002"><a xlink:href="Game_8cpp.html#a88c0d93fc49776f7a5c145312f4f81a0" target="_top" xlink:title=" ">
<polygon fill="white" stroke="#666666" points="257,-167 171,-167 171,-148 257,-148 257,-167"/>
<text text-anchor="middle" x="214" y="-155" font-family="Helvetica,sans-Serif" font-size="10.00">CM_BeginPlay</text>
</a>
</g>
</g>
<!-- Node1&#45;&gt;Node2 -->
<g id="edge1_Node000001_Node000002" class="edge">
<title>Node1&#45;&gt;Node2</title>
<g id="a_edge1_Node000001_Node000002"><a xlink:title=" ">
<path fill="none" stroke="#63b8ff" d="M81.79,-98.55C100.27,-110.55 127.54,-127.16 153,-138.5 157.99,-140.72 163.32,-142.8 168.67,-144.71"/>
<polygon fill="#63b8ff" stroke="#63b8ff" points="167.64,-148.06 178.24,-147.95 169.89,-141.43 167.64,-148.06"/>
</a>
</g>
</g>
<!-- Node7 -->
<g id="Node000007" class="node">
<title>Node7</title>
<g id="a_Node000007"><a xlink:href="Game_8cpp.html#a13d5b10b9acb59b4b90db739aba83d1f" target="_top" xlink:title=" ">
<polygon fill="white" stroke="#666666" points="260.5,-130 167.5,-130 167.5,-111 260.5,-111 260.5,-130"/>
<text text-anchor="middle" x="214" y="-118" font-family="Helvetica,sans-Serif" font-size="10.00">CM_CleanWorld</text>
</a>
</g>
</g>
<!-- Node1&#45;&gt;Node7 -->
<g id="edge6_Node000001_Node000007" class="edge">
<title>Node1&#45;&gt;Node7</title>
<g id="a_edge6_Node000001_Node000007"><a xlink:title=" ">
<path fill="none" stroke="#63b8ff" d="M117.09,-97.38C132.3,-101.05 148.58,-104.97 163.33,-108.53"/>
<polygon fill="#63b8ff" stroke="#63b8ff" points="162.72,-111.98 173.26,-110.92 164.36,-105.18 162.72,-111.98"/>
</a>
</g>
</g>
<!-- Node8 -->
<g id="Node000008" class="node">
<title>Node8</title>
<g id="a_Node000008"><a xlink:href="actors_8c.html#a90bb1e98b1fc94450092f4fddff2a61b" target="_top" xlink:title=" ">
<polygon fill="white" stroke="#666666" points="267,-93 161,-93 161,-74 267,-74 267,-93"/>
<text text-anchor="middle" x="214" y="-81" font-family="Helvetica,sans-Serif" font-size="10.00">destroy_all_actors</text>
</a>
</g>
</g>
<!-- Node1&#45;&gt;Node8 -->
<g id="edge7_Node000001_Node000008" class="edge">
<title>Node1&#45;&gt;Node8</title>
<g id="a_edge7_Node000001_Node000008"><a xlink:title=" ">
<path fill="none" stroke="#63b8ff" d="M117.09,-83.5C128.04,-83.5 139.53,-83.5 150.62,-83.5"/>
<polygon fill="#63b8ff" stroke="#63b8ff" points="150.65,-87 160.65,-83.5 150.65,-80 150.65,-87"/>
</a>
</g>
</g>
<!-- Node10 -->
<g id="Node000010" class="node">
<title>Node10</title>
<g id="a_Node000010"><a xlink:href="actors_8c.html#a7dd08845f085e355fe4eb45bff89542a" target="_top" xlink:title=" ">
<polygon fill="white" stroke="#666666" points="275,-56 153,-56 153,-37 275,-37 275,-56"/>
<text text-anchor="middle" x="214" y="-44" font-family="Helvetica,sans-Serif" font-size="10.00">init_red_shell_texture</text>
</a>
</g>
</g>
<!-- Node1&#45;&gt;Node10 -->
<g id="edge9_Node000001_Node000010" class="edge">
<title>Node1&#45;&gt;Node10</title>
<g id="a_edge9_Node000001_Node000010"><a xlink:title=" ">
<path fill="none" stroke="#63b8ff" d="M117.09,-69.62C132.3,-65.95 148.58,-62.03 163.33,-58.47"/>
<polygon fill="#63b8ff" stroke="#63b8ff" points="164.36,-61.82 173.26,-56.08 162.72,-55.02 164.36,-61.82"/>
</a>
</g>
</g>
<!-- Node11 -->
<g id="Node000011" class="node">
<title>Node11</title>
<g id="a_Node000011"><a xlink:href="actors_8c.html#a047d32425b6ea73e667cb31548bdc8dd" target="_top" xlink:title=" ">
<polygon fill="white" stroke="#666666" points="274.5,-19 153.5,-19 153.5,0 274.5,0 274.5,-19"/>
<text text-anchor="middle" x="214" y="-7" font-family="Helvetica,sans-Serif" font-size="10.00">spawn_course_actors</text>
</a>
</g>
</g>
<!-- Node1&#45;&gt;Node11 -->
<g id="edge10_Node000001_Node000011" class="edge">
<title>Node1&#45;&gt;Node11</title>
<g id="a_edge10_Node000001_Node000011"><a xlink:title=" ">
<path fill="none" stroke="#63b8ff" d="M81.33,-68.29C99.76,-55.98 127.21,-38.88 153,-27.5 157.2,-25.65 161.64,-23.92 166.14,-22.32"/>
<polygon fill="#63b8ff" stroke="#63b8ff" points="167.61,-25.52 175.99,-19.03 165.4,-18.88 167.61,-25.52"/>
</a>
</g>
</g>
<!-- Node3 -->
<g id="Node000003" class="node">
<title>Node3</title>
<g id="a_Node000003"><a xlink:href="namespaceEditor.html#ac95c825fc97e637d93f36fe4e9121515" target="_top" xlink:title=" ">
<polygon fill="white" stroke="#666666" points="412,-167 311,-167 311,-148 412,-148 412,-167"/>
<text text-anchor="middle" x="361.5" y="-155" font-family="Helvetica,sans-Serif" font-size="10.00">Editor::LoadLevel</text>
</a>
</g>
</g>
<!-- Node2&#45;&gt;Node3 -->
<g id="edge2_Node000002_Node000003" class="edge">
<title>Node2&#45;&gt;Node3</title>
<g id="a_edge2_Node000002_Node000003"><a xlink:title=" ">
<path fill="none" stroke="#63b8ff" d="M257.08,-157.5C270.72,-157.5 286.12,-157.5 300.79,-157.5"/>
<polygon fill="#63b8ff" stroke="#63b8ff" points="300.8,-161 310.8,-157.5 300.8,-154 300.8,-161"/>
</a>
</g>
</g>
<!-- Node4 -->
<g id="Node000004" class="node">
<title>Node4</title>
<g id="a_Node000004"><a xlink:href="structSpawnParams.html#a8a5a24c4ced13fc9150d32d895470c9f" target="_top" xlink:title=" ">
<polygon fill="white" stroke="#666666" points="594,-189 454,-189 454,-170 594,-170 594,-189"/>
<text text-anchor="middle" x="524" y="-177" font-family="Helvetica,sans-Serif" font-size="10.00">SpawnParams::from_json</text>
</a>
</g>
</g>
<!-- Node3&#45;&gt;Node4 -->
<g id="edge3_Node000003_Node000004" class="edge">
<title>Node3&#45;&gt;Node4</title>
<g id="a_edge3_Node000003_Node000004"><a xlink:title=" ">
<path fill="none" stroke="#63b8ff" d="M412.4,-164.34C422.38,-165.71 433.08,-167.17 443.76,-168.64"/>
<polygon fill="#63b8ff" stroke="#63b8ff" points="443.59,-172.15 453.97,-170.04 444.54,-165.21 443.59,-172.15"/>
</a>
</g>
</g>
<!-- Node6 -->
<g id="Node000006" class="node">
<title>Node6</title>
<g id="a_Node000006"><a xlink:href="namespaceEditor.html#a5682c68f8c058161eac4f98905aa0c86" target="_top" xlink:title=" ">
<polygon fill="white" stroke="#666666" points="600,-151.5 448,-151.5 448,-121.5 600,-121.5 600,-151.5"/>
<text text-anchor="start" x="456" y="-139.5" font-family="Helvetica,sans-Serif" font-size="10.00">Editor::Load_AddStaticMesh</text>
<text text-anchor="middle" x="524" y="-128.5" font-family="Helvetica,sans-Serif" font-size="10.00">Actor</text>
</a>
</g>
</g>
<!-- Node3&#45;&gt;Node6 -->
<g id="edge5_Node000003_Node000006" class="edge">
<title>Node3&#45;&gt;Node6</title>
<g id="a_edge5_Node000003_Node000006"><a xlink:title=" ">
<path fill="none" stroke="#63b8ff" d="M412.4,-150.97C420.47,-149.91 429.02,-148.8 437.65,-147.67"/>
<polygon fill="#63b8ff" stroke="#63b8ff" points="438.33,-151.11 447.79,-146.34 437.42,-144.17 438.33,-151.11"/>
</a>
</g>
</g>
<!-- Node5 -->
<g id="Node000005" class="node">
<title>Node5</title>
<g id="a_Node000005"><a xlink:href="SpawnParams_8h.html#af4dfccdb6d4f1f9514fa9f7483e0d0aa" target="_top" xlink:title=" ">
<polygon fill="white" stroke="#666666" points="728,-189 636,-189 636,-170 728,-170 728,-189"/>
<text text-anchor="middle" x="682" y="-177" font-family="Helvetica,sans-Serif" font-size="10.00">get_optional_to</text>
</a>
</g>
</g>
<!-- Node4&#45;&gt;Node5 -->
<g id="edge4_Node000004_Node000005" class="edge">
<title>Node4&#45;&gt;Node5</title>
<g id="a_edge4_Node000004_Node000005"><a xlink:title=" ">
<path fill="none" stroke="#63b8ff" d="M594.33,-179.5C604.72,-179.5 615.32,-179.5 625.37,-179.5"/>
<polygon fill="#63b8ff" stroke="#63b8ff" points="625.62,-183 635.62,-179.5 625.62,-176 625.62,-183"/>
</a>
</g>
</g>
<!-- Node9 -->
<g id="Node000009" class="node">
<title>Node9</title>
<g id="a_Node000009"><a xlink:href="Game_8cpp.html#a693de7d8b89fe291aafea86bc64a0a2e" target="_top" xlink:title=" ">
<polygon fill="white" stroke="#666666" points="401.5,-93 321.5,-93 321.5,-74 401.5,-74 401.5,-93"/>
<text text-anchor="middle" x="361.5" y="-81" font-family="Helvetica,sans-Serif" font-size="10.00">CM_GetActor</text>
</a>
</g>
</g>
<!-- Node8&#45;&gt;Node9 -->
<g id="edge8_Node000008_Node000009" class="edge">
<title>Node8&#45;&gt;Node9</title>
<g id="a_edge8_Node000008_Node000009"><a xlink:title=" ">
<path fill="none" stroke="#63b8ff" d="M267.12,-83.5C281.42,-83.5 296.89,-83.5 311.04,-83.5"/>
<polygon fill="#63b8ff" stroke="#63b8ff" points="311.07,-87 321.07,-83.5 311.07,-80 311.07,-87"/>
</a>
</g>
</g>
</g>
</svg>
