<?xml version="1.0" encoding="UTF-8" standalone="no"?>
<!DOCTYPE svg PUBLIC "-//W3C//DTD SVG 1.1//EN"
 "http://www.w3.org/Graphics/SVG/1.1/DTD/svg11.dtd">
<!-- Generated by graphviz version 2.43.0 (0)
 -->
<!-- Title: init_triple_shell Pages: 1 -->
<svg width="1598pt" height="503pt"
 viewBox="0.00 0.00 1598.00 503.00" xmlns="http://www.w3.org/2000/svg" xmlns:xlink="http://www.w3.org/1999/xlink">
<g id="graph0" class="graph" transform="scale(1 1) rotate(0) translate(4 499)">
<title>init_triple_shell</title>
<!-- Node1 -->
<g id="Node000001" class="node">
<title>Node1</title>
<g id="a_Node000001"><a xlink:title=" ">
<polygon fill="#999999" stroke="#666666" points="92,-93 0,-93 0,-74 92,-74 92,-93"/>
<text text-anchor="middle" x="46" y="-81" font-family="Helvetica,sans-Serif" font-size="10.00">init_triple_shell</text>
</a>
</g>
</g>
<!-- Node2 -->
<g id="Node000002" class="node">
<title>Node2</title>
<g id="a_Node000002"><a xlink:href="collision_8c.html#a79293dbdae52d290fdaf8dde9d5244ca" target="_top" xlink:title=" ">
<polygon fill="white" stroke="#666666" points="266.5,-359 141.5,-359 141.5,-340 266.5,-340 266.5,-359"/>
<text text-anchor="middle" x="204" y="-347" font-family="Helvetica,sans-Serif" font-size="10.00">actor_terrain_collision</text>
</a>
</g>
</g>
<!-- Node1&#45;&gt;Node2 -->
<g id="edge1_Node000001_Node000002" class="edge">
<title>Node1&#45;&gt;Node2</title>
<g id="a_edge1_Node000001_Node000002"><a xlink:title=" ">
<path fill="none" stroke="#63b8ff" d="M52.74,-93.28C75.77,-132.56 161.74,-279.14 192.21,-331.1"/>
<polygon fill="#63b8ff" stroke="#63b8ff" points="189.3,-333.05 197.38,-339.91 195.34,-329.51 189.3,-333.05"/>
</a>
</g>
</g>
<!-- Node6 -->
<g id="Node000006" class="node">
<title>Node6</title>
<g id="a_Node000006"><a xlink:href="actors_8c.html#a91fb2e4e37e7c72fea918fe2c1bb4eaf" target="_top" xlink:title=" ">
<polygon fill="white" stroke="#666666" points="274,-130 134,-130 134,-111 274,-111 274,-130"/>
<text text-anchor="middle" x="204" y="-118" font-family="Helvetica,sans-Serif" font-size="10.00">add_actor_to_empty_slot</text>
</a>
</g>
</g>
<!-- Node1&#45;&gt;Node6 -->
<g id="edge5_Node000001_Node000006" class="edge">
<title>Node1&#45;&gt;Node6</title>
<g id="a_edge5_Node000001_Node000006"><a xlink:title=" ">
<path fill="none" stroke="#63b8ff" d="M87.17,-93.03C107.2,-97.78 131.62,-103.57 152.87,-108.61"/>
<polygon fill="#63b8ff" stroke="#63b8ff" points="152.15,-112.04 162.69,-110.94 153.77,-105.23 152.15,-112.04"/>
</a>
</g>
</g>
<!-- Node39 -->
<g id="Node000039" class="node">
<title>Node39</title>
<g id="a_Node000039"><a xlink:href="Game_8cpp.html#a04c2e1c30af14b6e8354d7a9be00e39c" target="_top" xlink:title=" ">
<polygon fill="white" stroke="#666666" points="259,-93 149,-93 149,-74 259,-74 259,-93"/>
<text text-anchor="middle" x="204" y="-81" font-family="Helvetica,sans-Serif" font-size="10.00">CM_FindActorIndex</text>
</a>
</g>
</g>
<!-- Node1&#45;&gt;Node39 -->
<g id="edge42_Node000001_Node000039" class="edge">
<title>Node1&#45;&gt;Node39</title>
<g id="a_edge42_Node000001_Node000039"><a xlink:title=" ">
<path fill="none" stroke="#63b8ff" d="M92.12,-83.5C106.66,-83.5 123.07,-83.5 138.72,-83.5"/>
<polygon fill="#63b8ff" stroke="#63b8ff" points="138.86,-87 148.86,-83.5 138.86,-80 138.86,-87"/>
</a>
</g>
</g>
<!-- Node40 -->
<g id="Node000040" class="node">
<title>Node40</title>
<g id="a_Node000040"><a xlink:href="actors__extended_8c.html#a78e98c146f1f4dd6e3608016486172a4" target="_top" xlink:title=" ">
<polygon fill="white" stroke="#666666" points="250,-56 158,-56 158,-37 250,-37 250,-56"/>
<text text-anchor="middle" x="204" y="-44" font-family="Helvetica,sans-Serif" font-size="10.00">func_802B4E30</text>
</a>
</g>
</g>
<!-- Node1&#45;&gt;Node40 -->
<g id="edge44_Node000001_Node000040" class="edge">
<title>Node1&#45;&gt;Node40</title>
<g id="a_edge44_Node000001_Node000040"><a xlink:title=" ">
<path fill="none" stroke="#63b8ff" d="M87.17,-73.97C107.2,-69.22 131.62,-63.43 152.87,-58.39"/>
<polygon fill="#63b8ff" stroke="#63b8ff" points="153.77,-61.77 162.69,-56.06 152.15,-54.96 153.77,-61.77"/>
</a>
</g>
</g>
<!-- Node41 -->
<g id="Node000041" class="node">
<title>Node41</title>
<g id="a_Node000041"><a xlink:href="math__util_8c.html#ad5bb0138c68b50f119d3cb7966f522b7" target="_top" xlink:title=" ">
<polygon fill="white" stroke="#666666" points="280,-19 128,-19 128,0 280,0 280,-19"/>
<text text-anchor="middle" x="204" y="-7" font-family="Helvetica,sans-Serif" font-size="10.00">mtxf_translate_vec3f_mat3</text>
</a>
</g>
</g>
<!-- Node1&#45;&gt;Node41 -->
<g id="edge45_Node000001_Node000041" class="edge">
<title>Node1&#45;&gt;Node41</title>
<g id="a_edge45_Node000001_Node000041"><a xlink:title=" ">
<path fill="none" stroke="#63b8ff" d="M57.99,-73.89C72.86,-61.39 100.68,-39.71 128,-27.5 132.62,-25.44 137.51,-23.59 142.49,-21.94"/>
<polygon fill="#63b8ff" stroke="#63b8ff" points="143.58,-25.27 152.13,-19.01 141.54,-18.57 143.58,-25.27"/>
</a>
</g>
</g>
<!-- Node3 -->
<g id="Node000003" class="node">
<title>Node3</title>
<g id="a_Node000003"><a xlink:href="collision_8c.html#a6ea8b20f38e63c1b1157923085c8e306" target="_top" xlink:title=" ">
<polygon fill="white" stroke="#666666" points="459,-426.5 316,-426.5 316,-396.5 459,-396.5 459,-426.5"/>
<text text-anchor="start" x="324" y="-414.5" font-family="Helvetica,sans-Serif" font-size="10.00">is_colliding_with_drivable</text>
<text text-anchor="middle" x="387.5" y="-403.5" font-family="Helvetica,sans-Serif" font-size="10.00">_surface</text>
</a>
</g>
</g>
<!-- Node2&#45;&gt;Node3 -->
<g id="edge2_Node000002_Node000003" class="edge">
<title>Node2&#45;&gt;Node3</title>
<g id="a_edge2_Node000002_Node000003"><a xlink:title=" ">
<path fill="none" stroke="#63b8ff" d="M232.82,-359.04C255.27,-366.73 287.66,-377.83 316,-387.5 321.28,-389.3 326.78,-391.18 332.27,-393.05"/>
<polygon fill="#63b8ff" stroke="#63b8ff" points="331.52,-396.49 342.12,-396.4 333.78,-389.87 331.52,-396.49"/>
</a>
</g>
</g>
<!-- Node4 -->
<g id="Node000004" class="node">
<title>Node4</title>
<g id="a_Node000004"><a xlink:href="collision_8c.html#a94970a4a6ca911f74e59114decd74557" target="_top" xlink:title=" ">
<polygon fill="white" stroke="#666666" points="452,-378 323,-378 323,-359 452,-359 452,-378"/>
<text text-anchor="middle" x="387.5" y="-366" font-family="Helvetica,sans-Serif" font-size="10.00">is_colliding_with_wall1</text>
</a>
</g>
</g>
<!-- Node2&#45;&gt;Node4 -->
<g id="edge3_Node000002_Node000004" class="edge">
<title>Node2&#45;&gt;Node4</title>
<g id="a_edge3_Node000002_Node000004"><a xlink:title=" ">
<path fill="none" stroke="#63b8ff" d="M266.7,-355.96C281.54,-357.51 297.53,-359.19 312.85,-360.79"/>
<polygon fill="#63b8ff" stroke="#63b8ff" points="312.49,-364.27 322.8,-361.83 313.22,-357.31 312.49,-364.27"/>
</a>
</g>
</g>
<!-- Node5 -->
<g id="Node000005" class="node">
<title>Node5</title>
<g id="a_Node000005"><a xlink:href="collision_8c.html#a23443870e0d3a6797de707a89ded7ef0" target="_top" xlink:title=" ">
<polygon fill="white" stroke="#666666" points="452,-341 323,-341 323,-322 452,-322 452,-341"/>
<text text-anchor="middle" x="387.5" y="-329" font-family="Helvetica,sans-Serif" font-size="10.00">is_colliding_with_wall2</text>
</a>
</g>
</g>
<!-- Node2&#45;&gt;Node5 -->
<g id="edge4_Node000002_Node000005" class="edge">
<title>Node2&#45;&gt;Node5</title>
<g id="a_edge4_Node000002_Node000005"><a xlink:title=" ">
<path fill="none" stroke="#63b8ff" d="M266.7,-343.38C281.54,-341.91 297.53,-340.32 312.85,-338.8"/>
<polygon fill="#63b8ff" stroke="#63b8ff" points="313.2,-342.29 322.8,-337.82 312.51,-335.32 313.2,-342.29"/>
</a>
</g>
</g>
<!-- Node7 -->
<g id="Node000007" class="node">
<title>Node7</title>
<g id="a_Node000007"><a xlink:href="actors_8c.html#a39c023177b5a7686cdd1fc65b8b953e1" target="_top" xlink:title=" ">
<polygon fill="white" stroke="#666666" points="418.5,-304 356.5,-304 356.5,-285 418.5,-285 418.5,-304"/>
<text text-anchor="middle" x="387.5" y="-292" font-family="Helvetica,sans-Serif" font-size="10.00">actor_init</text>
</a>
</g>
</g>
<!-- Node6&#45;&gt;Node7 -->
<g id="edge6_Node000006_Node000007" class="edge">
<title>Node6&#45;&gt;Node7</title>
<g id="a_edge6_Node000006_Node000007"><a xlink:title=" ">
<path fill="none" stroke="#63b8ff" d="M215.02,-130.1C244.45,-158.32 330.95,-241.25 368.63,-277.37"/>
<polygon fill="#63b8ff" stroke="#63b8ff" points="366.65,-280.32 376.29,-284.71 371.49,-275.27 366.65,-280.32"/>
</a>
</g>
</g>
<!-- Node30 -->
<g id="Node000030" class="node">
<title>Node30</title>
<g id="a_Node000030"><a xlink:href="Game_8cpp.html#acea5cfd9ab22f745bd6627869b95a62e" target="_top" xlink:title=" ">
<polygon fill="white" stroke="#666666" points="443.5,-149 331.5,-149 331.5,-130 443.5,-130 443.5,-149"/>
<text text-anchor="middle" x="387.5" y="-137" font-family="Helvetica,sans-Serif" font-size="10.00">CM_ActorBeginPlay</text>
</a>
</g>
</g>
<!-- Node6&#45;&gt;Node30 -->
<g id="edge29_Node000006_Node000030" class="edge">
<title>Node6&#45;&gt;Node30</title>
<g id="a_edge29_Node000006_Node000030"><a xlink:title=" ">
<path fill="none" stroke="#63b8ff" d="M274.14,-127.74C289.52,-129.35 305.78,-131.05 321.01,-132.64"/>
<polygon fill="#63b8ff" stroke="#63b8ff" points="321.06,-136.17 331.37,-133.73 321.79,-129.21 321.06,-136.17"/>
</a>
</g>
</g>
<!-- Node36 -->
<g id="Node000036" class="node">
<title>Node36</title>
<g id="a_Node000036"><a xlink:href="Game_8cpp.html#a42f23077aaa52cb3ea5c7803b7dd6816" target="_top" xlink:title=" ">
<polygon fill="white" stroke="#666666" points="440.5,-111 334.5,-111 334.5,-92 440.5,-92 440.5,-111"/>
<text text-anchor="middle" x="387.5" y="-99" font-family="Helvetica,sans-Serif" font-size="10.00">CM_AddBaseActor</text>
</a>
</g>
</g>
<!-- Node6&#45;&gt;Node36 -->
<g id="edge37_Node000006_Node000036" class="edge">
<title>Node6&#45;&gt;Node36</title>
<g id="a_edge37_Node000006_Node000036"><a xlink:title=" ">
<path fill="none" stroke="#63b8ff" d="M274.14,-113.26C290.57,-111.54 308.01,-109.72 324.12,-108.03"/>
<polygon fill="#63b8ff" stroke="#63b8ff" points="324.92,-111.47 334.5,-106.94 324.19,-104.5 324.92,-111.47"/>
</a>
</g>
</g>
<!-- Node38 -->
<g id="Node000038" class="node">
<title>Node38</title>
<g id="a_Node000038"><a xlink:href="Game_8cpp.html#a0841ffe9a66e95aca42438b9d8ffc3d3" target="_top" xlink:title=" ">
<polygon fill="white" stroke="#666666" points="438,-54 337,-54 337,-35 438,-35 438,-54"/>
<text text-anchor="middle" x="387.5" y="-42" font-family="Helvetica,sans-Serif" font-size="10.00">CM_GetActorSize</text>
</a>
</g>
</g>
<!-- Node6&#45;&gt;Node38 -->
<g id="edge40_Node000006_Node000038" class="edge">
<title>Node6&#45;&gt;Node38</title>
<g id="a_edge40_Node000006_Node000038"><a xlink:title=" ">
<path fill="none" stroke="#63b8ff" d="M250.37,-110.9C260.28,-108.28 270.61,-105.14 280,-101.5 282.08,-100.69 328.56,-75.71 359.43,-59.09"/>
<polygon fill="#63b8ff" stroke="#63b8ff" points="361.29,-62.06 368.44,-54.24 357.97,-55.9 361.29,-62.06"/>
</a>
</g>
</g>
<!-- Node8 -->
<g id="Node000008" class="node">
<title>Node8</title>
<g id="a_Node000008"><a xlink:href="collision_8c.html#a37aa55b3768d001533ad75e7f1b8388a" target="_top" xlink:title=" ">
<polygon fill="white" stroke="#666666" points="636,-439 495,-439 495,-420 636,-420 636,-439"/>
<text text-anchor="middle" x="565.5" y="-427" font-family="Helvetica,sans-Serif" font-size="10.00">check_bounding_collision</text>
</a>
</g>
</g>
<!-- Node7&#45;&gt;Node8 -->
<g id="edge7_Node000007_Node000008" class="edge">
<title>Node7&#45;&gt;Node8</title>
<g id="a_edge7_Node000007_Node000008"><a xlink:title=" ">
<path fill="none" stroke="#63b8ff" d="M418.65,-296.78C432.28,-299.17 447.81,-303.96 459,-313.5 488.68,-338.78 468.2,-365.18 495,-393.5 503.83,-402.83 515.61,-410.18 526.97,-415.74"/>
<polygon fill="#63b8ff" stroke="#63b8ff" points="525.78,-419.04 536.33,-419.99 528.67,-412.67 525.78,-419.04"/>
</a>
</g>
</g>
<!-- Node12 -->
<g id="Node000012" class="node">
<title>Node12</title>
<g id="a_Node000012"><a xlink:href="actors_8c.html#a1a9bccb586242555a9123ebd4ab70f2a" target="_top" xlink:title=" ">
<polygon fill="white" stroke="#666666" points="631.5,-309.5 499.5,-309.5 499.5,-279.5 631.5,-279.5 631.5,-309.5"/>
<text text-anchor="start" x="507.5" y="-297.5" font-family="Helvetica,sans-Serif" font-size="10.00">cleanup_red_and_green</text>
<text text-anchor="middle" x="565.5" y="-286.5" font-family="Helvetica,sans-Serif" font-size="10.00">_shells</text>
</a>
</g>
</g>
<!-- Node7&#45;&gt;Node12 -->
<g id="edge11_Node000007_Node000012" class="edge">
<title>Node7&#45;&gt;Node12</title>
<g id="a_edge11_Node000007_Node000012"><a xlink:title=" ">
<path fill="none" stroke="#63b8ff" d="M418.76,-294.5C438.19,-294.5 464.36,-294.5 489.15,-294.5"/>
<polygon fill="#63b8ff" stroke="#63b8ff" points="489.3,-298 499.3,-294.5 489.3,-291 489.3,-298"/>
</a>
</g>
</g>
<!-- Node26 -->
<g id="Node000026" class="node">
<title>Node26</title>
<g id="a_Node000026"><a xlink:href="collision_8c.html#ad72fef3ffe32191d73b1822f512ebf3f" target="_top" xlink:title=" ">
<polygon fill="white" stroke="#666666" points="613,-384 518,-384 518,-365 613,-365 613,-384"/>
<text text-anchor="middle" x="565.5" y="-372" font-family="Helvetica,sans-Serif" font-size="10.00">func_802AAAAC</text>
</a>
</g>
</g>
<!-- Node7&#45;&gt;Node26 -->
<g id="edge25_Node000007_Node000026" class="edge">
<title>Node7&#45;&gt;Node26</title>
<g id="a_edge25_Node000007_Node000026"><a xlink:title=" ">
<path fill="none" stroke="#63b8ff" d="M418.62,-298.44C431.78,-301.18 446.93,-305.79 459,-313.5 480,-326.92 473.93,-343.18 495,-356.5 499.13,-359.11 503.62,-361.34 508.27,-363.25"/>
<polygon fill="#63b8ff" stroke="#63b8ff" points="507.37,-366.65 517.97,-366.73 509.74,-360.06 507.37,-366.65"/>
</a>
</g>
</g>
<!-- Node28 -->
<g id="Node000028" class="node">
<title>Node28</title>
<g id="a_Node000028"><a xlink:href="math__util_8c.html#af7b470ed76fce07b8042a47c96e5690b" target="_top" xlink:title=" ">
<polygon fill="white" stroke="#666666" points="619,-347 512,-347 512,-328 619,-328 619,-347"/>
<text text-anchor="middle" x="565.5" y="-335" font-family="Helvetica,sans-Serif" font-size="10.00">vec3f_copy_return</text>
</a>
</g>
</g>
<!-- Node7&#45;&gt;Node28 -->
<g id="edge27_Node000007_Node000028" class="edge">
<title>Node7&#45;&gt;Node28</title>
<g id="a_edge27_Node000007_Node000028"><a xlink:title=" ">
<path fill="none" stroke="#63b8ff" d="M418.76,-301.89C445.36,-308.39 484.57,-317.97 515.63,-325.56"/>
<polygon fill="#63b8ff" stroke="#63b8ff" points="514.85,-328.97 525.4,-327.95 516.51,-322.17 514.85,-328.97"/>
</a>
</g>
</g>
<!-- Node29 -->
<g id="Node000029" class="node">
<title>Node29</title>
<g id="a_Node000029"><a xlink:href="math__util_8c.html#a0e270ee67600c8c9c2f140c647d008a1" target="_top" xlink:title=" ">
<polygon fill="white" stroke="#666666" points="602.5,-261 528.5,-261 528.5,-242 602.5,-242 602.5,-261"/>
<text text-anchor="middle" x="565.5" y="-249" font-family="Helvetica,sans-Serif" font-size="10.00">vec3s_copy</text>
</a>
</g>
</g>
<!-- Node7&#45;&gt;Node29 -->
<g id="edge28_Node000007_Node000029" class="edge">
<title>Node7&#45;&gt;Node29</title>
<g id="a_edge28_Node000007_Node000029"><a xlink:title=" ">
<path fill="none" stroke="#63b8ff" d="M418.76,-287.11C446.16,-280.41 486.94,-270.45 518.4,-262.76"/>
<polygon fill="#63b8ff" stroke="#63b8ff" points="519.37,-266.13 528.26,-260.35 517.71,-259.33 519.37,-266.13"/>
</a>
</g>
</g>
<!-- Node9 -->
<g id="Node000009" class="node">
<title>Node9</title>
<g id="a_Node000009"><a xlink:href="collision_8c.html#ac312bf382cb40752f6b790a99e7cdcb6" target="_top" xlink:title=" ">
<polygon fill="white" stroke="#666666" points="804.5,-458 696.5,-458 696.5,-439 804.5,-439 804.5,-458"/>
<text text-anchor="middle" x="750.5" y="-446" font-family="Helvetica,sans-Serif" font-size="10.00">check_collision_yx</text>
</a>
</g>
</g>
<!-- Node8&#45;&gt;Node9 -->
<g id="edge8_Node000008_Node000009" class="edge">
<title>Node8&#45;&gt;Node9</title>
<g id="a_edge8_Node000008_Node000009"><a xlink:title=" ">
<path fill="none" stroke="#63b8ff" d="M636.21,-436.74C652.61,-438.44 670.01,-440.25 686.12,-441.92"/>
<polygon fill="#63b8ff" stroke="#63b8ff" points="686.19,-445.45 696.5,-443 686.91,-438.48 686.19,-445.45"/>
</a>
</g>
</g>
<!-- Node10 -->
<g id="Node000010" class="node">
<title>Node10</title>
<g id="a_Node000010"><a xlink:href="collision_8c.html#a4b48832a90e984536a0635a016ec4f28" target="_top" xlink:title=" ">
<polygon fill="white" stroke="#666666" points="804,-421 697,-421 697,-402 804,-402 804,-421"/>
<text text-anchor="middle" x="750.5" y="-409" font-family="Helvetica,sans-Serif" font-size="10.00">check_collision_zx</text>
</a>
</g>
</g>
<!-- Node8&#45;&gt;Node10 -->
<g id="edge9_Node000008_Node000010" class="edge">
<title>Node8&#45;&gt;Node10</title>
<g id="a_edge9_Node000008_Node000010"><a xlink:title=" ">
<path fill="none" stroke="#63b8ff" d="M636.21,-422.64C652.85,-421.01 670.52,-419.27 686.83,-417.66"/>
<polygon fill="#63b8ff" stroke="#63b8ff" points="687.17,-421.15 696.78,-416.69 686.49,-414.18 687.17,-421.15"/>
</a>
</g>
</g>
<!-- Node11 -->
<g id="Node000011" class="node">
<title>Node11</title>
<g id="a_Node000011"><a xlink:href="collision_8c.html#a21fef964ab48191a1c0341954ef27a40" target="_top" xlink:title=" ">
<polygon fill="white" stroke="#666666" points="804,-495 697,-495 697,-476 804,-476 804,-495"/>
<text text-anchor="middle" x="750.5" y="-483" font-family="Helvetica,sans-Serif" font-size="10.00">check_collision_zy</text>
</a>
</g>
</g>
<!-- Node8&#45;&gt;Node11 -->
<g id="edge10_Node000008_Node000011" class="edge">
<title>Node8&#45;&gt;Node11</title>
<g id="a_edge10_Node000008_Node000011"><a xlink:title=" ">
<path fill="none" stroke="#63b8ff" d="M590.54,-439.07C611.75,-447.3 643.62,-459.12 672,-467.5 679.19,-469.62 686.8,-471.65 694.35,-473.53"/>
<polygon fill="#63b8ff" stroke="#63b8ff" points="693.64,-476.96 704.19,-475.92 695.29,-470.16 693.64,-476.96"/>
</a>
</g>
</g>
<!-- Node13 -->
<g id="Node000013" class="node">
<title>Node13</title>
<g id="a_Node000013"><a xlink:href="Game_8cpp.html#a693de7d8b89fe291aafea86bc64a0a2e" target="_top" xlink:title=" ">
<polygon fill="white" stroke="#666666" points="790.5,-224 710.5,-224 710.5,-205 790.5,-205 790.5,-224"/>
<text text-anchor="middle" x="750.5" y="-212" font-family="Helvetica,sans-Serif" font-size="10.00">CM_GetActor</text>
</a>
</g>
</g>
<!-- Node12&#45;&gt;Node13 -->
<g id="edge12_Node000012_Node000013" class="edge">
<title>Node12&#45;&gt;Node13</title>
<g id="a_edge12_Node000012_Node000013"><a xlink:title=" ">
<path fill="none" stroke="#63b8ff" d="M618.98,-279.38C624.91,-276.8 630.72,-273.85 636,-270.5 655.37,-258.2 652.09,-244.9 672,-233.5 680.75,-228.49 690.78,-224.8 700.67,-222.07"/>
<polygon fill="#63b8ff" stroke="#63b8ff" points="701.58,-225.45 710.45,-219.66 699.9,-218.66 701.58,-225.45"/>
</a>
</g>
</g>
<!-- Node15 -->
<g id="Node000015" class="node">
<title>Node15</title>
<g id="a_Node000015"><a xlink:href="code__80005FD0_8c.html#ad301b978cdd3c4cc190b10be050d51d8" target="_top" xlink:title=" ">
<polygon fill="white" stroke="#666666" points="823.5,-309.5 677.5,-309.5 677.5,-279.5 823.5,-279.5 823.5,-309.5"/>
<text text-anchor="start" x="685.5" y="-297.5" font-family="Helvetica,sans-Serif" font-size="10.00">delete_actor_in_unexpired</text>
<text text-anchor="middle" x="750.5" y="-286.5" font-family="Helvetica,sans-Serif" font-size="10.00">_actor_list</text>
</a>
</g>
</g>
<!-- Node12&#45;&gt;Node15 -->
<g id="edge14_Node000012_Node000015" class="edge">
<title>Node12&#45;&gt;Node15</title>
<g id="a_edge14_Node000012_Node000015"><a xlink:title=" ">
<path fill="none" stroke="#63b8ff" d="M631.53,-294.5C642.98,-294.5 655.02,-294.5 666.87,-294.5"/>
<polygon fill="#63b8ff" stroke="#63b8ff" points="667.21,-298 677.21,-294.5 667.21,-291 667.21,-298"/>
</a>
</g>
</g>
<!-- Node16 -->
<g id="Node000016" class="node">
<title>Node16</title>
<g id="a_Node000016"><a xlink:href="actors_8c.html#a694ec6ef7548b8618aeb35c038d3a9b9" target="_top" xlink:title=" ">
<polygon fill="white" stroke="#666666" points="792,-347 709,-347 709,-328 792,-328 792,-347"/>
<text text-anchor="middle" x="750.5" y="-335" font-family="Helvetica,sans-Serif" font-size="10.00">destroy_actor</text>
</a>
</g>
</g>
<!-- Node12&#45;&gt;Node16 -->
<g id="edge15_Node000012_Node000016" class="edge">
<title>Node12&#45;&gt;Node16</title>
<g id="a_edge15_Node000012_Node000016"><a xlink:title=" ">
<path fill="none" stroke="#63b8ff" d="M630.5,-309.54C653.02,-314.83 677.98,-320.69 699.2,-325.68"/>
<polygon fill="#63b8ff" stroke="#63b8ff" points="698.44,-329.1 708.98,-327.98 700.04,-322.28 698.44,-329.1"/>
</a>
</g>
</g>
<!-- Node14 -->
<g id="Node000014" class="node">
<title>Node14</title>
<g id="a_Node000014"><a xlink:href="Game_8cpp.html#ae2fa844b3cb1021ecbc357f8ed2ad8cc" target="_top" xlink:title=" ">
<polygon fill="white" stroke="#666666" points="978,-111 916,-111 916,-92 978,-92 978,-111"/>
<text text-anchor="middle" x="947" y="-99" font-family="Helvetica,sans-Serif" font-size="10.00">GetWorld</text>
</a>
</g>
</g>
<!-- Node13&#45;&gt;Node14 -->
<g id="edge13_Node000013_Node000014" class="edge">
<title>Node13&#45;&gt;Node14</title>
<g id="a_edge13_Node000013_Node000014"><a xlink:title=" ">
<path fill="none" stroke="#63b8ff" d="M790.52,-209.03C803.21,-206.32 817.09,-202.33 829,-196.5 869.64,-176.61 908.76,-140.25 929.87,-118.74"/>
<polygon fill="#63b8ff" stroke="#63b8ff" points="932.63,-120.92 937.04,-111.29 927.59,-116.07 932.63,-120.92"/>
</a>
</g>
</g>
<!-- Node17 -->
<g id="Node000017" class="node">
<title>Node17</title>
<g id="a_Node000017"><a xlink:href="actors_8c.html#a12dc3ccac4c7d8569eadac0af4fd6f9f" target="_top" xlink:title=" ">
<polygon fill="white" stroke="#666666" points="1026,-347 868,-347 868,-328 1026,-328 1026,-347"/>
<text text-anchor="middle" x="947" y="-335" font-family="Helvetica,sans-Serif" font-size="10.00">play_sound_before_despawn</text>
</a>
</g>
</g>
<!-- Node16&#45;&gt;Node17 -->
<g id="edge16_Node000016_Node000017" class="edge">
<title>Node16&#45;&gt;Node17</title>
<g id="a_edge16_Node000016_Node000017"><a xlink:title=" ">
<path fill="none" stroke="#63b8ff" d="M792.27,-337.5C811.39,-337.5 834.96,-337.5 857.85,-337.5"/>
<polygon fill="#63b8ff" stroke="#63b8ff" points="857.95,-341 867.95,-337.5 857.95,-334 857.95,-341"/>
</a>
</g>
</g>
<!-- Node18 -->
<g id="Node000018" class="node">
<title>Node18</title>
<g id="a_Node000018"><a xlink:href="external_8c.html#ae72057869772019e4464c87d4e16c682" target="_top" xlink:title=" ">
<polygon fill="white" stroke="#666666" points="1157,-347 1065,-347 1065,-328 1157,-328 1157,-347"/>
<text text-anchor="middle" x="1111" y="-335" font-family="Helvetica,sans-Serif" font-size="10.00">func_800C99E0</text>
</a>
</g>
</g>
<!-- Node17&#45;&gt;Node18 -->
<g id="edge17_Node000017_Node000018" class="edge">
<title>Node17&#45;&gt;Node18</title>
<g id="a_edge17_Node000017_Node000018"><a xlink:title=" ">
<path fill="none" stroke="#63b8ff" d="M1026.15,-337.5C1035.79,-337.5 1045.49,-337.5 1054.69,-337.5"/>
<polygon fill="#63b8ff" stroke="#63b8ff" points="1054.84,-341 1064.84,-337.5 1054.84,-334 1054.84,-341"/>
</a>
</g>
</g>
<!-- Node19 -->
<g id="Node000019" class="node">
<title>Node19</title>
<g id="a_Node000019"><a xlink:href="external_8c.html#aeb87c527482a244173df36a1f3d4f446" target="_top" xlink:title=" ">
<polygon fill="white" stroke="#666666" points="1285,-366 1193,-366 1193,-347 1285,-347 1285,-366"/>
<text text-anchor="middle" x="1239" y="-354" font-family="Helvetica,sans-Serif" font-size="10.00">func_800C21E8</text>
</a>
</g>
</g>
<!-- Node18&#45;&gt;Node19 -->
<g id="edge18_Node000018_Node000019" class="edge">
<title>Node18&#45;&gt;Node19</title>
<g id="a_edge18_Node000018_Node000019"><a xlink:title=" ">
<path fill="none" stroke="#63b8ff" d="M1157.13,-344.31C1165.46,-345.56 1174.23,-346.88 1182.81,-348.18"/>
<polygon fill="#63b8ff" stroke="#63b8ff" points="1182.35,-351.65 1192.76,-349.68 1183.39,-344.73 1182.35,-351.65"/>
</a>
</g>
</g>
<!-- Node20 -->
<g id="Node000020" class="node">
<title>Node20</title>
<g id="a_Node000020"><a xlink:href="external_8c.html#a028d40421b90c38f68ebfd5acc626f2e" target="_top" xlink:title=" ">
<polygon fill="white" stroke="#666666" points="1285,-329 1193,-329 1193,-310 1285,-310 1285,-329"/>
<text text-anchor="middle" x="1239" y="-317" font-family="Helvetica,sans-Serif" font-size="10.00">func_800C5578</text>
</a>
</g>
</g>
<!-- Node18&#45;&gt;Node20 -->
<g id="edge19_Node000018_Node000020" class="edge">
<title>Node18&#45;&gt;Node20</title>
<g id="a_edge19_Node000018_Node000020"><a xlink:title=" ">
<path fill="none" stroke="#63b8ff" d="M1157.13,-331.05C1165.46,-329.86 1174.23,-328.61 1182.81,-327.38"/>
<polygon fill="#63b8ff" stroke="#63b8ff" points="1183.35,-330.84 1192.76,-325.96 1182.36,-323.91 1183.35,-330.84"/>
</a>
</g>
</g>
<!-- Node21 -->
<g id="Node000021" class="node">
<title>Node21</title>
<g id="a_Node000021"><a xlink:href="external_8c.html#ac0fb767de7e14a03f1bcfa53f0abd23b" target="_top" xlink:title=" ">
<polygon fill="white" stroke="#666666" points="1461,-366 1321,-366 1321,-347 1461,-347 1461,-366"/>
<text text-anchor="middle" x="1391" y="-354" font-family="Helvetica,sans-Serif" font-size="10.00">delete_sound_from_bank</text>
</a>
</g>
</g>
<!-- Node20&#45;&gt;Node21 -->
<g id="edge20_Node000020_Node000021" class="edge">
<title>Node20&#45;&gt;Node21</title>
<g id="a_edge20_Node000020_Node000021"><a xlink:title=" ">
<path fill="none" stroke="#63b8ff" d="M1278.63,-329.03C1297.8,-333.76 1321.16,-339.52 1341.52,-344.54"/>
<polygon fill="#63b8ff" stroke="#63b8ff" points="1340.69,-347.94 1351.24,-346.94 1342.37,-341.15 1340.69,-347.94"/>
</a>
</g>
</g>
<!-- Node23 -->
<g id="Node000023" class="node">
<title>Node23</title>
<g id="a_Node000023"><a xlink:href="external_8c.html#ab83bd36e63f0f1baddcb2482b5ad31b0" target="_top" xlink:title=" ">
<polygon fill="white" stroke="#666666" points="1437.5,-329 1344.5,-329 1344.5,-310 1437.5,-310 1437.5,-329"/>
<text text-anchor="middle" x="1391" y="-317" font-family="Helvetica,sans-Serif" font-size="10.00">func_800C41CC</text>
</a>
</g>
</g>
<!-- Node20&#45;&gt;Node23 -->
<g id="edge22_Node000020_Node000023" class="edge">
<title>Node20&#45;&gt;Node23</title>
<g id="a_edge22_Node000020_Node000023"><a xlink:title=" ">
<path fill="none" stroke="#63b8ff" d="M1285,-319.5C1300.37,-319.5 1317.74,-319.5 1333.86,-319.5"/>
<polygon fill="#63b8ff" stroke="#63b8ff" points="1334.25,-323 1344.25,-319.5 1334.25,-316 1334.25,-323"/>
</a>
</g>
</g>
<!-- Node24 -->
<g id="Node000024" class="node">
<title>Node24</title>
<g id="a_Node000024"><a xlink:href="port__eu_8c.html#aa89dfaecca46c6d071f08c1898d1f7c9" target="_top" xlink:title=" ">
<polygon fill="white" stroke="#666666" points="1437.5,-292 1344.5,-292 1344.5,-273 1437.5,-273 1437.5,-292"/>
<text text-anchor="middle" x="1391" y="-280" font-family="Helvetica,sans-Serif" font-size="10.00">func_800CBBE8</text>
</a>
</g>
</g>
<!-- Node20&#45;&gt;Node24 -->
<g id="edge23_Node000020_Node000024" class="edge">
<title>Node20&#45;&gt;Node24</title>
<g id="a_edge23_Node000020_Node000024"><a xlink:title=" ">
<path fill="none" stroke="#63b8ff" d="M1278.63,-309.97C1297.8,-305.24 1321.16,-299.48 1341.52,-294.46"/>
<polygon fill="#63b8ff" stroke="#63b8ff" points="1342.37,-297.85 1351.24,-292.06 1340.69,-291.06 1342.37,-297.85"/>
</a>
</g>
</g>
<!-- Node22 -->
<g id="Node000022" class="node">
<title>Node22</title>
<g id="a_Node000022"><a xlink:href="external_8c.html#a358ac55e8ab5262dcae8037334be06d7" target="_top" xlink:title=" ">
<polygon fill="white" stroke="#666666" points="1589.5,-366 1497.5,-366 1497.5,-347 1589.5,-347 1589.5,-366"/>
<text text-anchor="middle" x="1543.5" y="-354" font-family="Helvetica,sans-Serif" font-size="10.00">func_800C40F0</text>
</a>
</g>
</g>
<!-- Node21&#45;&gt;Node22 -->
<g id="edge21_Node000021_Node000022" class="edge">
<title>Node21&#45;&gt;Node22</title>
<g id="a_edge21_Node000021_Node000022"><a xlink:title=" ">
<path fill="none" stroke="#63b8ff" d="M1461.08,-356.5C1469.87,-356.5 1478.78,-356.5 1487.31,-356.5"/>
<polygon fill="#63b8ff" stroke="#63b8ff" points="1487.5,-360 1497.5,-356.5 1487.5,-353 1487.5,-360"/>
</a>
</g>
</g>
<!-- Node25 -->
<g id="Node000025" class="node">
<title>Node25</title>
<g id="a_Node000025"><a xlink:href="port__eu_8c.html#af361a20d2e08f30c53a237ca481ff734" target="_top" xlink:title=" ">
<polygon fill="white" stroke="#666666" points="1590,-292 1497,-292 1497,-273 1590,-273 1590,-292"/>
<text text-anchor="middle" x="1543.5" y="-280" font-family="Helvetica,sans-Serif" font-size="10.00">func_800CBB48</text>
</a>
</g>
</g>
<!-- Node24&#45;&gt;Node25 -->
<g id="edge24_Node000024_Node000025" class="edge">
<title>Node24&#45;&gt;Node25</title>
<g id="a_edge24_Node000024_Node000025"><a xlink:title=" ">
<path fill="none" stroke="#63b8ff" d="M1437.56,-282.5C1452.96,-282.5 1470.34,-282.5 1486.46,-282.5"/>
<polygon fill="#63b8ff" stroke="#63b8ff" points="1486.83,-286 1496.83,-282.5 1486.83,-279 1486.83,-286"/>
</a>
</g>
</g>
<!-- Node27 -->
<g id="Node000027" class="node">
<title>Node27</title>
<g id="a_Node000027"><a xlink:href="math__util_8c.html#a79fd07a0971ec96a3ff0801963a2fa7f" target="_top" xlink:title=" ">
<polygon fill="white" stroke="#666666" points="782.5,-384 718.5,-384 718.5,-365 782.5,-365 782.5,-384"/>
<text text-anchor="middle" x="750.5" y="-372" font-family="Helvetica,sans-Serif" font-size="10.00">vec3f_set</text>
</a>
</g>
</g>
<!-- Node26&#45;&gt;Node27 -->
<g id="edge26_Node000026_Node000027" class="edge">
<title>Node26&#45;&gt;Node27</title>
<g id="a_edge26_Node000026_Node000027"><a xlink:title=" ">
<path fill="none" stroke="#63b8ff" d="M613.15,-374.5C642.45,-374.5 679.89,-374.5 708.13,-374.5"/>
<polygon fill="#63b8ff" stroke="#63b8ff" points="708.46,-378 718.46,-374.5 708.46,-371 708.46,-378"/>
</a>
</g>
</g>
<!-- Node30&#45;&gt;Node14 -->
<g id="edge36_Node000030_Node000014" class="edge">
<title>Node30&#45;&gt;Node14</title>
<g id="a_edge36_Node000030_Node000014"><a xlink:title=" ">
<path fill="none" stroke="#63b8ff" d="M443.52,-137.65C526.98,-134.57 690.51,-127.55 829,-115.5 854.51,-113.28 883.05,-109.88 905.55,-106.99"/>
<polygon fill="#63b8ff" stroke="#63b8ff" points="906.29,-110.43 915.75,-105.66 905.38,-103.49 906.29,-110.43"/>
</a>
</g>
</g>
<!-- Node31 -->
<g id="Node000031" class="node">
<title>Node31</title>
<g id="a_Node000031"><a xlink:href="classWorld.html#a0f40d5f6f8bd3c76ad1e1ca4ccc4b74f" target="_top" xlink:title=" ">
<polygon fill="white" stroke="#666666" points="628,-187 503,-187 503,-168 628,-168 628,-187"/>
<text text-anchor="middle" x="565.5" y="-175" font-family="Helvetica,sans-Serif" font-size="10.00">World::ActorBeginPlay</text>
</a>
</g>
</g>
<!-- Node30&#45;&gt;Node31 -->
<g id="edge30_Node000030_Node000031" class="edge">
<title>Node30&#45;&gt;Node31</title>
<g id="a_edge30_Node000030_Node000031"><a xlink:title=" ">
<path fill="none" stroke="#63b8ff" d="M432.91,-149.09C456.45,-154.17 485.56,-160.46 510.4,-165.82"/>
<polygon fill="#63b8ff" stroke="#63b8ff" points="509.89,-169.29 520.41,-167.98 511.37,-162.45 509.89,-169.29"/>
</a>
</g>
</g>
<!-- Node32 -->
<g id="Node000032" class="node">
<title>Node32</title>
<g id="a_Node000032"><a xlink:href="classAActor.html#aa18a335c99d43d74ac46328df5c4918b" target="_top" xlink:title=" ">
<polygon fill="white" stroke="#666666" points="802.5,-261 698.5,-261 698.5,-242 802.5,-242 802.5,-261"/>
<text text-anchor="middle" x="750.5" y="-249" font-family="Helvetica,sans-Serif" font-size="10.00">AActor::BeginPlay</text>
</a>
</g>
</g>
<!-- Node31&#45;&gt;Node32 -->
<g id="edge31_Node000031_Node000032" class="edge">
<title>Node31&#45;&gt;Node32</title>
<g id="a_edge31_Node000031_Node000032"><a xlink:title=" ">
<path fill="none" stroke="#63b8ff" d="M581.64,-187.16C601.61,-199.53 638.21,-220.85 672,-233.5 677.77,-235.66 683.89,-237.61 690.05,-239.37"/>
<polygon fill="#63b8ff" stroke="#63b8ff" points="689.17,-242.76 699.73,-241.96 690.98,-235.99 689.17,-242.76"/>
</a>
</g>
</g>
<!-- Node35 -->
<g id="Node000035" class="node">
<title>Node35</title>
<g id="a_Node000035"><a xlink:href="classWorld.html#a944244b32a2219826939859c6138f6ab" target="_top" xlink:title=" ">
<polygon fill="white" stroke="#666666" points="829,-187 672,-187 672,-168 829,-168 829,-187"/>
<text text-anchor="middle" x="750.5" y="-175" font-family="Helvetica,sans-Serif" font-size="10.00">World::ConvertActorToAActor</text>
</a>
</g>
</g>
<!-- Node31&#45;&gt;Node35 -->
<g id="edge35_Node000031_Node000035" class="edge">
<title>Node31&#45;&gt;Node35</title>
<g id="a_edge35_Node000031_Node000035"><a xlink:title=" ">
<path fill="none" stroke="#63b8ff" d="M628.2,-177.5C638.93,-177.5 650.26,-177.5 661.53,-177.5"/>
<polygon fill="#63b8ff" stroke="#63b8ff" points="661.84,-181 671.84,-177.5 661.84,-174 661.84,-181"/>
</a>
</g>
</g>
<!-- Node33 -->
<g id="Node000033" class="node">
<title>Node33</title>
<g id="a_Node000033"><a xlink:href="Editor_8cpp.html#ad9cda86dc3eb2b6511a8c9a951945014" target="_top" xlink:title=" ">
<polygon fill="white" stroke="#666666" points="996,-285 898,-285 898,-266 996,-266 996,-285"/>
<text text-anchor="middle" x="947" y="-273" font-family="Helvetica,sans-Serif" font-size="10.00">Editor_IsEnabled</text>
</a>
</g>
</g>
<!-- Node32&#45;&gt;Node33 -->
<g id="edge32_Node000032_Node000033" class="edge">
<title>Node32&#45;&gt;Node33</title>
<g id="a_edge32_Node000032_Node000033"><a xlink:title=" ">
<path fill="none" stroke="#63b8ff" d="M802.6,-257.81C828.75,-261.03 860.69,-264.97 887.79,-268.32"/>
<polygon fill="#63b8ff" stroke="#63b8ff" points="887.56,-271.82 897.91,-269.57 888.42,-264.87 887.56,-271.82"/>
</a>
</g>
</g>
<!-- Node34 -->
<g id="Node000034" class="node">
<title>Node34</title>
<g id="a_Node000034"><a xlink:href="namespaceEditor.html#a4a3d2d2707031137e00979b658f71cf2" target="_top" xlink:title=" ">
<polygon fill="white" stroke="#666666" points="1029,-230 865,-230 865,-211 1029,-211 1029,-230"/>
<text text-anchor="middle" x="947" y="-218" font-family="Helvetica,sans-Serif" font-size="10.00">Editor::GenerateCollisionMesh</text>
</a>
</g>
</g>
<!-- Node32&#45;&gt;Node34 -->
<g id="edge33_Node000032_Node000034" class="edge">
<title>Node32&#45;&gt;Node34</title>
<g id="a_edge33_Node000032_Node000034"><a xlink:title=" ">
<path fill="none" stroke="#63b8ff" d="M802.6,-243.36C825.16,-239.76 852.02,-235.48 876.37,-231.6"/>
<polygon fill="#63b8ff" stroke="#63b8ff" points="876.95,-235.05 886.27,-230.02 875.85,-228.14 876.95,-235.05"/>
</a>
</g>
</g>
<!-- Node34&#45;&gt;Node34 -->
<g id="edge34_Node000034_Node000034" class="edge">
<title>Node34&#45;&gt;Node34</title>
<g id="a_edge34_Node000034_Node000034"><a xlink:title=" ">
<path fill="none" stroke="#63b8ff" d="M921.72,-230.08C909.43,-238.73 917.85,-248 947,-248 966.13,-248 976.33,-244.01 977.61,-238.82"/>
<polygon fill="#63b8ff" stroke="#63b8ff" points="980.48,-236.79 972.28,-230.08 974.5,-240.44 980.48,-236.79"/>
</a>
</g>
</g>
<!-- Node36&#45;&gt;Node14 -->
<g id="edge39_Node000036_Node000014" class="edge">
<title>Node36&#45;&gt;Node14</title>
<g id="a_edge39_Node000036_Node000014"><a xlink:title=" ">
<path fill="none" stroke="#63b8ff" d="M440.7,-101.5C551.17,-101.5 806.6,-101.5 905.69,-101.5"/>
<polygon fill="#63b8ff" stroke="#63b8ff" points="905.88,-105 915.88,-101.5 905.88,-98 905.88,-105"/>
</a>
</g>
</g>
<!-- Node37 -->
<g id="Node000037" class="node">
<title>Node37</title>
<g id="a_Node000037"><a xlink:href="classWorld.html#a215117703aa8944483793767a0fb80ed" target="_top" xlink:title=" ">
<polygon fill="white" stroke="#666666" points="625,-73 506,-73 506,-54 625,-54 625,-73"/>
<text text-anchor="middle" x="565.5" y="-61" font-family="Helvetica,sans-Serif" font-size="10.00">World::AddBaseActor</text>
</a>
</g>
</g>
<!-- Node36&#45;&gt;Node37 -->
<g id="edge38_Node000036_Node000037" class="edge">
<title>Node36&#45;&gt;Node37</title>
<g id="a_edge38_Node000036_Node000037"><a xlink:title=" ">
<path fill="none" stroke="#63b8ff" d="M432.91,-91.91C456.45,-86.83 485.56,-80.54 510.4,-75.18"/>
<polygon fill="#63b8ff" stroke="#63b8ff" points="511.37,-78.55 520.41,-73.02 509.89,-71.71 511.37,-78.55"/>
</a>
</g>
</g>
<!-- Node38&#45;&gt;Node14 -->
<g id="edge41_Node000038_Node000014" class="edge">
<title>Node38&#45;&gt;Node14</title>
<g id="a_edge41_Node000038_Node000014"><a xlink:title=" ">
<path fill="none" stroke="#63b8ff" d="M438.4,-41.85C488.47,-39.81 567.75,-38.28 636,-44.5 733.93,-53.43 847.14,-77.91 905.91,-91.71"/>
<polygon fill="#63b8ff" stroke="#63b8ff" points="905.35,-95.18 915.89,-94.07 906.97,-88.36 905.35,-95.18"/>
</a>
</g>
</g>
<!-- Node39&#45;&gt;Node14 -->
<g id="edge43_Node000039_Node000014" class="edge">
<title>Node39&#45;&gt;Node14</title>
<g id="a_edge43_Node000039_Node000014"><a xlink:title=" ">
<path fill="none" stroke="#63b8ff" d="M258.97,-73.87C266.31,-71.42 273.54,-68.35 280,-64.5 300.27,-52.44 294.39,-34.96 316,-25.5 383.9,4.23 641.14,3.93 829,-44.5 863.42,-53.37 899.72,-72.87 922.59,-86.58"/>
<polygon fill="#63b8ff" stroke="#63b8ff" points="920.89,-89.64 931.24,-91.87 924.54,-83.67 920.89,-89.64"/>
</a>
</g>
</g>
</g>
</svg>
