<?xml version="1.0" encoding="UTF-8" standalone="no"?>
<!DOCTYPE svg PUBLIC "-//W3C//DTD SVG 1.1//EN"
 "http://www.w3.org/Graphics/SVG/1.1/DTD/svg11.dtd">
<!-- Generated by graphviz version 2.43.0 (0)
 -->
<!-- Title: spawn_foliage Pages: 1 -->
<!--zoomable 740 -->

<svg id="main" version="1.1" xmlns="http://www.w3.org/2000/svg" xmlns:xlink="http://www.w3.org/1999/xlink" xml:space="preserve" onload="init(evt)">

<style type="text/css"><![CDATA[
.node, .edge {opacity: 0.7;}
.node.selected, .edge.selected {opacity: 1;}
.edge:hover path { stroke: red; }
.edge:hover polygon { stroke: red; fill: red; }
]]></style>

<defs>
  <circle id="rim" cx="0" cy="0" r="7"/>
  <circle id="rim2" cx="0" cy="0" r="3.5"/>
  <g id="zoomPlus">
    <use xlink:href="#rim" fill="#404040"><set attributeName="fill" to="#808080" begin="zoomplus.mouseover" end="zoomplus.mouseout"/></use>
    <path d="M-4,0h8M0,-4v8" fill="none" stroke="white" stroke-width="1.5" pointer-events="none"/>
  </g>
  <g id="zoomMin">
    <use xlink:href="#rim" fill="#404040"><set attributeName="fill" to="#808080" begin="zoomminus.mouseover" end="zoomminus.mouseout"/></use>
    <path d="M-4,0h8" fill="none" stroke="white" stroke-width="1.5" pointer-events="none"/>
  </g>
  <g id="arrowUp" transform="translate(30 24)">
    <use xlink:href="#rim"/>
    <path pointer-events="none" fill="none" stroke="white" stroke-width="1.5" d="M0,-3.0v7 M-2.5,-0.5L0,-3.0L2.5,-0.5"/>
  </g>
  <g id="arrowRight" transform="rotate(90) translate(36 -43)">
    <use xlink:href="#rim"/>
    <path pointer-events="none" fill="none" stroke="white" stroke-width="1.5" d="M0,-3.0v7 M-2.5,-0.5L0,-3.0L2.5,-0.5"/>
  </g>
  <g id="arrowDown" transform="rotate(180) translate(-30 -48)">
    <use xlink:href="#rim"/>
    <path pointer-events="none" fill="none" stroke="white" stroke-width="1.5" d="M0,-3.0v7 M-2.5,-0.5L0,-3.0L2.5,-0.5"/>
  </g>
  <g id="arrowLeft" transform="rotate(270) translate(-36 17)">
    <use xlink:href="#rim"/>
    <path pointer-events="none" fill="none" stroke="white" stroke-width="1.5" d="M0,-3.0v7 M-2.5,-0.5L0,-3.0L2.5,-0.5"/>
  </g>
  <g id="resetDef">
    <use xlink:href="#rim2" fill="#404040"><set attributeName="fill" to="#808080" begin="reset.mouseover" end="reset.mouseout"/></use>
  </g>
</defs>
<script type="application/ecmascript">
var viewWidth = 1533;
var viewHeight = 740;
var sectionId = 'dynsection-86';
</script>
<script type="application/ecmascript" xlink:href="svg.min.js"/>
<svg id="graph" class="graph">
<g id="viewport">
<title>spawn_foliage</title>
<!-- Node1 -->
<g id="Node000001" class="node">
<title>Node1</title>
<g id="a_Node000001"><a xlink:title=" ">
<polygon fill="#999999" stroke="#666666" points="87,-278 0,-278 0,-259 87,-259 87,-278"/>
<text text-anchor="middle" x="43.5" y="-266" font-family="Helvetica,sans-Serif" font-size="10.00">spawn_foliage</text>
</a>
</g>
</g>
<!-- Node2 -->
<g id="Node000002" class="node">
<title>Node2</title>
<g id="a_Node000002"><a xlink:href="actors_8c.html#a91fb2e4e37e7c72fea918fe2c1bb4eaf" target="_top" xlink:title=" ">
<polygon fill="white" stroke="#666666" points="263,-515 123,-515 123,-496 263,-496 263,-515"/>
<text text-anchor="middle" x="193" y="-503" font-family="Helvetica,sans-Serif" font-size="10.00">add_actor_to_empty_slot</text>
</a>
</g>
</g>
<!-- Node1&#45;&gt;Node2 -->
<g id="edge1_Node000001_Node000002" class="edge">
<title>Node1&#45;&gt;Node2</title>
<g id="a_edge1_Node000001_Node000002"><a xlink:title=" ">
<path fill="none" stroke="#63b8ff" d="M47.93,-278.38C57.4,-304.93 85.7,-379.46 123,-433.5 137.52,-454.54 158.25,-475.26 173.19,-489.03"/>
<polygon fill="#63b8ff" stroke="#63b8ff" points="171.05,-491.82 180.82,-495.93 175.74,-486.63 171.05,-491.82"/>
</a>
</g>
</g>
<!-- Node4 -->
<g id="Node000004" class="node">
<title>Node4</title>
<g id="a_Node000004"><a xlink:href="collision_8c.html#a37aa55b3768d001533ad75e7f1b8388a" target="_top" xlink:title=" ">
<polygon fill="white" stroke="#666666" points="588,-665 447,-665 447,-646 588,-646 588,-665"/>
<text text-anchor="middle" x="517.5" y="-653" font-family="Helvetica,sans-Serif" font-size="10.00">check_bounding_collision</text>
</a>
</g>
</g>
<!-- Node1&#45;&gt;Node4 -->
<g id="edge28_Node000001_Node000004" class="edge">
<title>Node1&#45;&gt;Node4</title>
<g id="a_edge28_Node000001_Node000004"><a xlink:title=" ">
<path fill="none" stroke="#63b8ff" d="M45.07,-278.16C48.37,-330.89 66.98,-583.41 123,-631.5 222.9,-717.26 394.85,-687.69 474.16,-667.69"/>
<polygon fill="#63b8ff" stroke="#63b8ff" points="475.47,-670.96 484.27,-665.06 473.71,-664.19 475.47,-670.96"/>
</a>
</g>
</g>
<!-- Node9 -->
<g id="Node000009" class="node">
<title>Node9</title>
<g id="a_Node000009"><a xlink:href="Game_8cpp.html#a693de7d8b89fe291aafea86bc64a0a2e" target="_top" xlink:title=" ">
<polygon fill="white" stroke="#666666" points="737,-621 657,-621 657,-602 737,-602 737,-621"/>
<text text-anchor="middle" x="697" y="-609" font-family="Helvetica,sans-Serif" font-size="10.00">CM_GetActor</text>
</a>
</g>
</g>
<!-- Node1&#45;&gt;Node9 -->
<g id="edge29_Node000001_Node000009" class="edge">
<title>Node1&#45;&gt;Node9</title>
<g id="a_edge29_Node000001_Node000009"><a xlink:title=" ">
<path fill="none" stroke="#63b8ff" d="M44.66,-278.01C45.77,-314.71 54.56,-448.82 123,-524.5 179.91,-587.44 216.11,-580.37 299,-598.5 421.73,-625.35 570.84,-620.57 646.62,-615.58"/>
<polygon fill="#63b8ff" stroke="#63b8ff" points="647.08,-619.05 656.82,-614.88 646.6,-612.07 647.08,-619.05"/>
</a>
</g>
</g>
<!-- Node22 -->
<g id="Node000022" class="node">
<title>Node22</title>
<g id="a_Node000022"><a xlink:href="math__util_8c.html#a79fd07a0971ec96a3ff0801963a2fa7f" target="_top" xlink:title=" ">
<polygon fill="white" stroke="#666666" points="729,-464 665,-464 665,-445 729,-445 729,-464"/>
<text text-anchor="middle" x="697" y="-452" font-family="Helvetica,sans-Serif" font-size="10.00">vec3f_set</text>
</a>
</g>
</g>
<!-- Node1&#45;&gt;Node22 -->
<g id="edge43_Node000001_Node000022" class="edge">
<title>Node1&#45;&gt;Node22</title>
<g id="a_edge43_Node000001_Node000022"><a xlink:title=" ">
<path fill="none" stroke="#63b8ff" d="M46.98,-278.31C53.98,-303.65 76.43,-371.37 123,-400.5 210.91,-455.49 484.94,-428.03 588,-439.5 610.11,-441.96 634.68,-445.32 654.79,-448.24"/>
<polygon fill="#63b8ff" stroke="#63b8ff" points="654.46,-451.73 664.86,-449.72 655.48,-444.8 654.46,-451.73"/>
</a>
</g>
</g>
<!-- Node28 -->
<g id="Node000028" class="node">
<title>Node28</title>
<g id="a_Node000028"><a xlink:href="collision_8c.html#a6527a2135a10909cdf9a1fd731be5628" target="_top" xlink:title=" ">
<polygon fill="white" stroke="#666666" points="262,-391 124,-391 124,-372 262,-372 262,-391"/>
<text text-anchor="middle" x="193" y="-379" font-family="Helvetica,sans-Serif" font-size="10.00">calculate_surface_height</text>
</a>
</g>
</g>
<!-- Node1&#45;&gt;Node28 -->
<g id="edge27_Node000001_Node000028" class="edge">
<title>Node1&#45;&gt;Node28</title>
<g id="a_edge27_Node000001_Node000028"><a xlink:title=" ">
<path fill="none" stroke="#63b8ff" d="M50.61,-278.27C62.42,-296.41 90.16,-335.45 123,-357.5 129.3,-361.73 136.42,-365.29 143.64,-368.27"/>
<polygon fill="#63b8ff" stroke="#63b8ff" points="142.88,-371.72 153.47,-371.97 145.34,-365.17 142.88,-371.72"/>
</a>
</g>
</g>
<!-- Node29 -->
<g id="Node000029" class="node">
<title>Node29</title>
<g id="a_Node000029"><a xlink:href="actors_8c.html#a6fd7dc3bc34357287535b6f06ab7d85c" target="_top" xlink:title=" ">
<polygon fill="white" stroke="#666666" points="401,-353 309,-353 309,-334 401,-334 401,-353"/>
<text text-anchor="middle" x="355" y="-341" font-family="Helvetica,sans-Serif" font-size="10.00">func_802976D8</text>
</a>
</g>
</g>
<!-- Node1&#45;&gt;Node29 -->
<g id="edge30_Node000001_Node000029" class="edge">
<title>Node1&#45;&gt;Node29</title>
<g id="a_edge30_Node000001_Node000029"><a xlink:title=" ">
<path fill="none" stroke="#63b8ff" d="M54.64,-278.32C68.69,-291.25 95.48,-313.49 123,-323.5 180.27,-344.33 250.59,-347.51 298.5,-346.64"/>
<polygon fill="#63b8ff" stroke="#63b8ff" points="298.76,-350.14 308.67,-346.39 298.58,-343.14 298.76,-350.14"/>
</a>
</g>
</g>
<!-- Node30 -->
<g id="Node000030" class="node">
<title>Node30</title>
<g id="a_Node000030"><a xlink:href="actors_8c.html#a09d879c67b2c1430dd8ba2d5c9c136e1" target="_top" xlink:title=" ">
<polygon fill="white" stroke="#666666" points="239,-315 147,-315 147,-296 239,-296 239,-315"/>
<text text-anchor="middle" x="193" y="-303" font-family="Helvetica,sans-Serif" font-size="10.00">func_802976EC</text>
</a>
</g>
</g>
<!-- Node1&#45;&gt;Node30 -->
<g id="edge31_Node000001_Node000030" class="edge">
<title>Node1&#45;&gt;Node30</title>
<g id="a_edge31_Node000001_Node000030"><a xlink:title=" ">
<path fill="none" stroke="#63b8ff" d="M82.48,-278.03C101.25,-282.74 124.09,-288.47 144.05,-293.47"/>
<polygon fill="#63b8ff" stroke="#63b8ff" points="143.34,-296.9 153.89,-295.94 145.04,-290.11 143.34,-296.9"/>
</a>
</g>
</g>
<!-- Node33 -->
<g id="Node000033" class="node">
<title>Node33</title>
<g id="a_Node000033"><a xlink:href="Game_8cpp.html#a8ebd6a4d970e4333ab5a9dd66c3d9c48" target="_top" xlink:title=" ">
<polygon fill="white" stroke="#666666" points="241.5,-278 144.5,-278 144.5,-259 241.5,-259 241.5,-278"/>
<text text-anchor="middle" x="193" y="-266" font-family="Helvetica,sans-Serif" font-size="10.00">IsBowsersCastle</text>
</a>
</g>
</g>
<!-- Node1&#45;&gt;Node33 -->
<g id="edge35_Node000001_Node000033" class="edge">
<title>Node1&#45;&gt;Node33</title>
<g id="a_edge35_Node000001_Node000033"><a xlink:title=" ">
<path fill="none" stroke="#63b8ff" d="M87.16,-268.5C101.82,-268.5 118.48,-268.5 134.14,-268.5"/>
<polygon fill="#63b8ff" stroke="#63b8ff" points="134.25,-272 144.25,-268.5 134.25,-265 134.25,-272"/>
</a>
</g>
</g>
<!-- Node34 -->
<g id="Node000034" class="node">
<title>Node34</title>
<g id="a_Node000034"><a xlink:href="Game_8cpp.html#af4bf996258124d6741c70e4fa918ef03" target="_top" xlink:title=" ">
<polygon fill="white" stroke="#666666" points="245.5,-241 140.5,-241 140.5,-222 245.5,-222 245.5,-241"/>
<text text-anchor="middle" x="193" y="-229" font-family="Helvetica,sans-Serif" font-size="10.00">IsFrappeSnowland</text>
</a>
</g>
</g>
<!-- Node1&#45;&gt;Node34 -->
<g id="edge36_Node000001_Node000034" class="edge">
<title>Node1&#45;&gt;Node34</title>
<g id="a_edge36_Node000001_Node000034"><a xlink:title=" ">
<path fill="none" stroke="#63b8ff" d="M82.48,-258.97C101.25,-254.26 124.09,-248.53 144.05,-243.53"/>
<polygon fill="#63b8ff" stroke="#63b8ff" points="145.04,-246.89 153.89,-241.06 143.34,-240.1 145.04,-246.89"/>
</a>
</g>
</g>
<!-- Node35 -->
<g id="Node000035" class="node">
<title>Node35</title>
<g id="a_Node000035"><a xlink:href="Game_8cpp.html#ad474b8b257813cceeae25ab5205273c4" target="_top" xlink:title=" ">
<polygon fill="white" stroke="#666666" points="242,-204 144,-204 144,-185 242,-185 242,-204"/>
<text text-anchor="middle" x="193" y="-192" font-family="Helvetica,sans-Serif" font-size="10.00">IsKalimariDesert</text>
</a>
</g>
</g>
<!-- Node1&#45;&gt;Node35 -->
<g id="edge37_Node000001_Node000035" class="edge">
<title>Node1&#45;&gt;Node35</title>
<g id="a_edge37_Node000001_Node000035"><a xlink:title=" ">
<path fill="none" stroke="#63b8ff" d="M55.13,-258.96C69.52,-246.52 96.46,-224.91 123,-212.5 127.15,-210.56 131.54,-208.8 136.02,-207.22"/>
<polygon fill="#63b8ff" stroke="#63b8ff" points="137.46,-210.43 145.89,-204.02 135.3,-203.77 137.46,-210.43"/>
</a>
</g>
</g>
<!-- Node36 -->
<g id="Node000036" class="node">
<title>Node36</title>
<g id="a_Node000036"><a xlink:href="Game_8cpp.html#a2d7429dca77188f881bf1c340271ea90" target="_top" xlink:title=" ">
<polygon fill="white" stroke="#666666" points="239,-167 147,-167 147,-148 239,-148 239,-167"/>
<text text-anchor="middle" x="193" y="-155" font-family="Helvetica,sans-Serif" font-size="10.00">IsLuigiRaceway</text>
</a>
</g>
</g>
<!-- Node1&#45;&gt;Node36 -->
<g id="edge38_Node000001_Node000036" class="edge">
<title>Node1&#45;&gt;Node36</title>
<g id="a_edge38_Node000001_Node000036"><a xlink:title=" ">
<path fill="none" stroke="#63b8ff" d="M49.81,-258.92C60.84,-239.93 88.15,-197.47 123,-175.5 127.4,-172.72 132.22,-170.37 137.2,-168.39"/>
<polygon fill="#63b8ff" stroke="#63b8ff" points="138.62,-171.6 146.9,-164.99 136.31,-164.99 138.62,-171.6"/>
</a>
</g>
</g>
<!-- Node37 -->
<g id="Node000037" class="node">
<title>Node37</title>
<g id="a_Node000037"><a xlink:href="Game_8cpp.html#a591286b8b2219a8889cda4cc5d3b8c79" target="_top" xlink:title=" ">
<polygon fill="white" stroke="#666666" points="241.5,-130 144.5,-130 144.5,-111 241.5,-111 241.5,-130"/>
<text text-anchor="middle" x="193" y="-118" font-family="Helvetica,sans-Serif" font-size="10.00">IsMarioRaceway</text>
</a>
</g>
</g>
<!-- Node1&#45;&gt;Node37 -->
<g id="edge39_Node000001_Node000037" class="edge">
<title>Node1&#45;&gt;Node37</title>
<g id="a_edge39_Node000001_Node000037"><a xlink:title=" ">
<path fill="none" stroke="#63b8ff" d="M47.45,-258.93C55.41,-234.75 79.69,-170.84 123,-138.5 126.67,-135.76 130.72,-133.44 134.97,-131.46"/>
<polygon fill="#63b8ff" stroke="#63b8ff" points="136.49,-134.63 144.49,-127.69 133.91,-128.12 136.49,-134.63"/>
</a>
</g>
</g>
<!-- Node38 -->
<g id="Node000038" class="node">
<title>Node38</title>
<g id="a_Node000038"><a xlink:href="Game_8cpp.html#a8a295fe1e3fdfa50223813feaca6d7d6" target="_top" xlink:title=" ">
<polygon fill="white" stroke="#666666" points="238.5,-93 147.5,-93 147.5,-74 238.5,-74 238.5,-93"/>
<text text-anchor="middle" x="193" y="-81" font-family="Helvetica,sans-Serif" font-size="10.00">IsMooMooFarm</text>
</a>
</g>
</g>
<!-- Node1&#45;&gt;Node38 -->
<g id="edge40_Node000001_Node000038" class="edge">
<title>Node1&#45;&gt;Node38</title>
<g id="a_edge40_Node000001_Node000038"><a xlink:title=" ">
<path fill="none" stroke="#63b8ff" d="M46.1,-258.84C51.39,-230.14 71.01,-144.7 123,-101.5 127.34,-97.89 132.33,-95 137.6,-92.68"/>
<polygon fill="#63b8ff" stroke="#63b8ff" points="139.12,-95.84 147.29,-89.09 136.7,-89.28 139.12,-95.84"/>
</a>
</g>
</g>
<!-- Node39 -->
<g id="Node000039" class="node">
<title>Node39</title>
<g id="a_Node000039"><a xlink:href="Game_8cpp.html#afb0bb7b7bc2b816a7a9fbedcc6c41ab7" target="_top" xlink:title=" ">
<polygon fill="white" stroke="#666666" points="241.5,-56 144.5,-56 144.5,-37 241.5,-37 241.5,-56"/>
<text text-anchor="middle" x="193" y="-44" font-family="Helvetica,sans-Serif" font-size="10.00">IsRoyalRaceway</text>
</a>
</g>
</g>
<!-- Node1&#45;&gt;Node39 -->
<g id="edge41_Node000001_Node000039" class="edge">
<title>Node1&#45;&gt;Node39</title>
<g id="a_edge41_Node000001_Node000039"><a xlink:title=" ">
<path fill="none" stroke="#63b8ff" d="M45.21,-258.66C48.14,-225.8 62.17,-118.87 123,-64.5 126.62,-61.27 130.74,-58.6 135.14,-56.41"/>
<polygon fill="#63b8ff" stroke="#63b8ff" points="136.57,-59.6 144.46,-52.53 133.88,-53.14 136.57,-59.6"/>
</a>
</g>
</g>
<!-- Node40 -->
<g id="Node000040" class="node">
<title>Node40</title>
<g id="a_Node000040"><a xlink:href="Game_8cpp.html#ab05bb065469940f40a5023c58a8f9e7f" target="_top" xlink:title=" ">
<polygon fill="white" stroke="#666666" points="233,-19 153,-19 153,0 233,0 233,-19"/>
<text text-anchor="middle" x="193" y="-7" font-family="Helvetica,sans-Serif" font-size="10.00">IsYoshiValley</text>
</a>
</g>
</g>
<!-- Node1&#45;&gt;Node40 -->
<g id="edge42_Node000001_Node000040" class="edge">
<title>Node1&#45;&gt;Node40</title>
<g id="a_edge42_Node000001_Node000040"><a xlink:title=" ">
<path fill="none" stroke="#63b8ff" d="M44.55,-258.99C45.27,-222.97 52.85,-93.58 123,-27.5 128.58,-22.25 135.49,-18.48 142.76,-15.79"/>
<polygon fill="#63b8ff" stroke="#63b8ff" points="144.26,-19 152.82,-12.75 142.23,-12.3 144.26,-19"/>
</a>
</g>
</g>
<!-- Node3 -->
<g id="Node000003" class="node">
<title>Node3</title>
<g id="a_Node000003"><a xlink:href="actors_8c.html#a39c023177b5a7686cdd1fc65b8b953e1" target="_top" xlink:title=" ">
<polygon fill="white" stroke="#666666" points="386,-478 324,-478 324,-459 386,-459 386,-478"/>
<text text-anchor="middle" x="355" y="-466" font-family="Helvetica,sans-Serif" font-size="10.00">actor_init</text>
</a>
</g>
</g>
<!-- Node2&#45;&gt;Node3 -->
<g id="edge2_Node000002_Node000003" class="edge">
<title>Node2&#45;&gt;Node3</title>
<g id="a_edge2_Node000002_Node000003"><a xlink:title=" ">
<path fill="none" stroke="#63b8ff" d="M235.2,-495.97C259.43,-490.37 289.91,-483.32 313.94,-477.76"/>
<polygon fill="#63b8ff" stroke="#63b8ff" points="314.85,-481.15 323.8,-475.48 313.27,-474.33 314.85,-481.15"/>
</a>
</g>
</g>
<!-- Node25 -->
<g id="Node000025" class="node">
<title>Node25</title>
<g id="a_Node000025"><a xlink:href="Game_8cpp.html#acea5cfd9ab22f745bd6627869b95a62e" target="_top" xlink:title=" ">
<polygon fill="white" stroke="#666666" points="411,-589 299,-589 299,-570 411,-570 411,-589"/>
<text text-anchor="middle" x="355" y="-577" font-family="Helvetica,sans-Serif" font-size="10.00">CM_ActorBeginPlay</text>
</a>
</g>
</g>
<!-- Node2&#45;&gt;Node25 -->
<g id="edge24_Node000002_Node000025" class="edge">
<title>Node2&#45;&gt;Node25</title>
<g id="a_edge24_Node000002_Node000025"><a xlink:title=" ">
<path fill="none" stroke="#63b8ff" d="M209.94,-515.13C230.15,-527.07 266.31,-547.56 299,-561.5 303.17,-563.28 307.57,-564.99 312,-566.6"/>
<polygon fill="#63b8ff" stroke="#63b8ff" points="311.07,-569.98 321.66,-569.95 313.36,-563.36 311.07,-569.98"/>
</a>
</g>
</g>
<!-- Node26 -->
<g id="Node000026" class="node">
<title>Node26</title>
<g id="a_Node000026"><a xlink:href="Game_8cpp.html#a42f23077aaa52cb3ea5c7803b7dd6816" target="_top" xlink:title=" ">
<polygon fill="white" stroke="#666666" points="408,-552 302,-552 302,-533 408,-533 408,-552"/>
<text text-anchor="middle" x="355" y="-540" font-family="Helvetica,sans-Serif" font-size="10.00">CM_AddBaseActor</text>
</a>
</g>
</g>
<!-- Node2&#45;&gt;Node26 -->
<g id="edge25_Node000002_Node000026" class="edge">
<title>Node2&#45;&gt;Node26</title>
<g id="a_edge25_Node000002_Node000026"><a xlink:title=" ">
<path fill="none" stroke="#63b8ff" d="M235.2,-515.03C255.84,-519.8 281.02,-525.62 302.88,-530.68"/>
<polygon fill="#63b8ff" stroke="#63b8ff" points="302.13,-534.1 312.66,-532.94 303.7,-527.28 302.13,-534.1"/>
</a>
</g>
</g>
<!-- Node27 -->
<g id="Node000027" class="node">
<title>Node27</title>
<g id="a_Node000027"><a xlink:href="Game_8cpp.html#a0841ffe9a66e95aca42438b9d8ffc3d3" target="_top" xlink:title=" ">
<polygon fill="white" stroke="#666666" points="405.5,-515 304.5,-515 304.5,-496 405.5,-496 405.5,-515"/>
<text text-anchor="middle" x="355" y="-503" font-family="Helvetica,sans-Serif" font-size="10.00">CM_GetActorSize</text>
</a>
</g>
</g>
<!-- Node2&#45;&gt;Node27 -->
<g id="edge26_Node000002_Node000027" class="edge">
<title>Node2&#45;&gt;Node27</title>
<g id="a_edge26_Node000002_Node000027"><a xlink:title=" ">
<path fill="none" stroke="#63b8ff" d="M263.25,-505.5C273.53,-505.5 284.05,-505.5 294.12,-505.5"/>
<polygon fill="#63b8ff" stroke="#63b8ff" points="294.41,-509 304.41,-505.5 294.41,-502 294.41,-509"/>
</a>
</g>
</g>
<!-- Node3&#45;&gt;Node4 -->
<g id="edge3_Node000003_Node000004" class="edge">
<title>Node3&#45;&gt;Node4</title>
<g id="a_edge3_Node000003_Node000004"><a xlink:title=" ">
<path fill="none" stroke="#63b8ff" d="M386.21,-473.55C395.17,-476.36 404.35,-480.72 411,-487.5 447.32,-524.52 417.77,-555.66 447,-598.5 458.58,-615.47 476.63,-630.07 491.44,-640.24"/>
<polygon fill="#63b8ff" stroke="#63b8ff" points="489.88,-643.4 500.15,-645.98 493.73,-637.55 489.88,-643.4"/>
</a>
</g>
</g>
<!-- Node8 -->
<g id="Node000008" class="node">
<title>Node8</title>
<g id="a_Node000008"><a xlink:href="actors_8c.html#a1a9bccb586242555a9123ebd4ab70f2a" target="_top" xlink:title=" ">
<polygon fill="white" stroke="#666666" points="583.5,-589.5 451.5,-589.5 451.5,-559.5 583.5,-559.5 583.5,-589.5"/>
<text text-anchor="start" x="459.5" y="-577.5" font-family="Helvetica,sans-Serif" font-size="10.00">cleanup_red_and_green</text>
<text text-anchor="middle" x="517.5" y="-566.5" font-family="Helvetica,sans-Serif" font-size="10.00">_shells</text>
</a>
</g>
</g>
<!-- Node3&#45;&gt;Node8 -->
<g id="edge7_Node000003_Node000008" class="edge">
<title>Node3&#45;&gt;Node8</title>
<g id="a_edge7_Node000003_Node000008"><a xlink:title=" ">
<path fill="none" stroke="#63b8ff" d="M386.27,-474.69C394.93,-477.54 403.92,-481.63 411,-487.5 435.83,-508.08 422.17,-529.92 447,-550.5 448.55,-551.78 450.17,-553 451.85,-554.15"/>
<polygon fill="#63b8ff" stroke="#63b8ff" points="450.27,-557.29 460.65,-559.4 453.85,-551.27 450.27,-557.29"/>
</a>
</g>
</g>
<!-- Node21 -->
<g id="Node000021" class="node">
<title>Node21</title>
<g id="a_Node000021"><a xlink:href="collision_8c.html#ad72fef3ffe32191d73b1822f512ebf3f" target="_top" xlink:title=" ">
<polygon fill="white" stroke="#666666" points="565,-541 470,-541 470,-522 565,-522 565,-541"/>
<text text-anchor="middle" x="517.5" y="-529" font-family="Helvetica,sans-Serif" font-size="10.00">func_802AAAAC</text>
</a>
</g>
</g>
<!-- Node3&#45;&gt;Node21 -->
<g id="edge20_Node000003_Node000021" class="edge">
<title>Node3&#45;&gt;Node21</title>
<g id="a_edge20_Node000003_Node000021"><a xlink:title=" ">
<path fill="none" stroke="#63b8ff" d="M386.06,-477.11C394.35,-479.96 403.2,-483.45 411,-487.5 428.51,-496.6 429.14,-505.1 447,-513.5 451.11,-515.43 455.45,-517.18 459.89,-518.75"/>
<polygon fill="#63b8ff" stroke="#63b8ff" points="459.08,-522.17 469.67,-521.93 461.24,-515.51 459.08,-522.17"/>
</a>
</g>
</g>
<!-- Node23 -->
<g id="Node000023" class="node">
<title>Node23</title>
<g id="a_Node000023"><a xlink:href="math__util_8c.html#af7b470ed76fce07b8042a47c96e5690b" target="_top" xlink:title=" ">
<polygon fill="white" stroke="#666666" points="571,-504 464,-504 464,-485 571,-485 571,-504"/>
<text text-anchor="middle" x="517.5" y="-492" font-family="Helvetica,sans-Serif" font-size="10.00">vec3f_copy_return</text>
</a>
</g>
</g>
<!-- Node3&#45;&gt;Node23 -->
<g id="edge22_Node000003_Node000023" class="edge">
<title>Node3&#45;&gt;Node23</title>
<g id="a_edge22_Node000003_Node000023"><a xlink:title=" ">
<path fill="none" stroke="#63b8ff" d="M386.19,-473.39C405.17,-476.47 430.38,-480.55 453.56,-484.3"/>
<polygon fill="#63b8ff" stroke="#63b8ff" points="453.27,-487.8 463.7,-485.95 454.38,-480.89 453.27,-487.8"/>
</a>
</g>
</g>
<!-- Node24 -->
<g id="Node000024" class="node">
<title>Node24</title>
<g id="a_Node000024"><a xlink:href="math__util_8c.html#a0e270ee67600c8c9c2f140c647d008a1" target="_top" xlink:title=" ">
<polygon fill="white" stroke="#666666" points="554.5,-467 480.5,-467 480.5,-448 554.5,-448 554.5,-467"/>
<text text-anchor="middle" x="517.5" y="-455" font-family="Helvetica,sans-Serif" font-size="10.00">vec3s_copy</text>
</a>
</g>
</g>
<!-- Node3&#45;&gt;Node24 -->
<g id="edge23_Node000003_Node000024" class="edge">
<title>Node3&#45;&gt;Node24</title>
<g id="a_edge23_Node000003_Node000024"><a xlink:title=" ">
<path fill="none" stroke="#63b8ff" d="M386.19,-466.43C409.86,-464.81 443.21,-462.52 470.25,-460.67"/>
<polygon fill="#63b8ff" stroke="#63b8ff" points="470.53,-464.16 480.26,-459.98 470.05,-457.18 470.53,-464.16"/>
</a>
</g>
</g>
<!-- Node5 -->
<g id="Node000005" class="node">
<title>Node5</title>
<g id="a_Node000005"><a xlink:href="collision_8c.html#ac312bf382cb40752f6b790a99e7cdcb6" target="_top" xlink:title=" ">
<polygon fill="white" stroke="#666666" points="751,-732 643,-732 643,-713 751,-713 751,-732"/>
<text text-anchor="middle" x="697" y="-720" font-family="Helvetica,sans-Serif" font-size="10.00">check_collision_yx</text>
</a>
</g>
</g>
<!-- Node4&#45;&gt;Node5 -->
<g id="edge4_Node000004_Node000005" class="edge">
<title>Node4&#45;&gt;Node5</title>
<g id="a_edge4_Node000004_Node000005"><a xlink:title=" ">
<path fill="none" stroke="#63b8ff" d="M536.36,-665.07C557,-675.83 592.2,-693.26 624,-704.5 629.9,-706.59 636.15,-708.53 642.41,-710.31"/>
<polygon fill="#63b8ff" stroke="#63b8ff" points="641.63,-713.72 652.2,-712.96 643.47,-706.97 641.63,-713.72"/>
</a>
</g>
</g>
<!-- Node6 -->
<g id="Node000006" class="node">
<title>Node6</title>
<g id="a_Node000006"><a xlink:href="collision_8c.html#a4b48832a90e984536a0635a016ec4f28" target="_top" xlink:title=" ">
<polygon fill="white" stroke="#666666" points="750.5,-695 643.5,-695 643.5,-676 750.5,-676 750.5,-695"/>
<text text-anchor="middle" x="697" y="-683" font-family="Helvetica,sans-Serif" font-size="10.00">check_collision_zx</text>
</a>
</g>
</g>
<!-- Node4&#45;&gt;Node6 -->
<g id="edge5_Node000004_Node000006" class="edge">
<title>Node4&#45;&gt;Node6</title>
<g id="a_edge5_Node000004_Node000006"><a xlink:title=" ">
<path fill="none" stroke="#63b8ff" d="M575.15,-665.07C593.64,-668.2 614.28,-671.69 633.19,-674.88"/>
<polygon fill="#63b8ff" stroke="#63b8ff" points="632.76,-678.36 643.2,-676.58 633.93,-671.46 632.76,-678.36"/>
</a>
</g>
</g>
<!-- Node7 -->
<g id="Node000007" class="node">
<title>Node7</title>
<g id="a_Node000007"><a xlink:href="collision_8c.html#a21fef964ab48191a1c0341954ef27a40" target="_top" xlink:title=" ">
<polygon fill="white" stroke="#666666" points="750.5,-658 643.5,-658 643.5,-639 750.5,-639 750.5,-658"/>
<text text-anchor="middle" x="697" y="-646" font-family="Helvetica,sans-Serif" font-size="10.00">check_collision_zy</text>
</a>
</g>
</g>
<!-- Node4&#45;&gt;Node7 -->
<g id="edge6_Node000004_Node000007" class="edge">
<title>Node4&#45;&gt;Node7</title>
<g id="a_edge6_Node000004_Node000007"><a xlink:title=" ">
<path fill="none" stroke="#63b8ff" d="M588.14,-652.75C602.91,-652.17 618.43,-651.56 632.94,-650.99"/>
<polygon fill="#63b8ff" stroke="#63b8ff" points="633.45,-654.47 643.3,-650.58 633.17,-647.48 633.45,-654.47"/>
</a>
</g>
</g>
<!-- Node8&#45;&gt;Node9 -->
<g id="edge8_Node000008_Node000009" class="edge">
<title>Node8&#45;&gt;Node9</title>
<g id="a_edge8_Node000008_Node000009"><a xlink:title=" ">
<path fill="none" stroke="#63b8ff" d="M583.59,-588.07C604.57,-592.44 627.45,-597.21 647.06,-601.3"/>
<polygon fill="#63b8ff" stroke="#63b8ff" points="646.49,-604.75 656.99,-603.37 647.91,-597.9 646.49,-604.75"/>
</a>
</g>
</g>
<!-- Node10 -->
<g id="Node000010" class="node">
<title>Node10</title>
<g id="a_Node000010"><a xlink:href="code__80005FD0_8c.html#ad301b978cdd3c4cc190b10be050d51d8" target="_top" xlink:title=" ">
<polygon fill="white" stroke="#666666" points="770,-546.5 624,-546.5 624,-516.5 770,-516.5 770,-546.5"/>
<text text-anchor="start" x="632" y="-534.5" font-family="Helvetica,sans-Serif" font-size="10.00">delete_actor_in_unexpired</text>
<text text-anchor="middle" x="697" y="-523.5" font-family="Helvetica,sans-Serif" font-size="10.00">_actor_list</text>
</a>
</g>
</g>
<!-- Node8&#45;&gt;Node10 -->
<g id="edge9_Node000008_Node000010" class="edge">
<title>Node8&#45;&gt;Node10</title>
<g id="a_edge9_Node000008_Node000010"><a xlink:title=" ">
<path fill="none" stroke="#63b8ff" d="M580.58,-559.46C594.63,-556.06 609.67,-552.41 624.09,-548.92"/>
<polygon fill="#63b8ff" stroke="#63b8ff" points="625.06,-552.29 633.95,-546.53 623.41,-545.48 625.06,-552.29"/>
</a>
</g>
</g>
<!-- Node11 -->
<g id="Node000011" class="node">
<title>Node11</title>
<g id="a_Node000011"><a xlink:href="actors_8c.html#a694ec6ef7548b8618aeb35c038d3a9b9" target="_top" xlink:title=" ">
<polygon fill="white" stroke="#666666" points="738.5,-584 655.5,-584 655.5,-565 738.5,-565 738.5,-584"/>
<text text-anchor="middle" x="697" y="-572" font-family="Helvetica,sans-Serif" font-size="10.00">destroy_actor</text>
</a>
</g>
</g>
<!-- Node8&#45;&gt;Node11 -->
<g id="edge10_Node000008_Node000011" class="edge">
<title>Node8&#45;&gt;Node11</title>
<g id="a_edge10_Node000008_Node000011"><a xlink:title=" ">
<path fill="none" stroke="#63b8ff" d="M583.59,-574.5C603.97,-574.5 626.14,-574.5 645.37,-574.5"/>
<polygon fill="#63b8ff" stroke="#63b8ff" points="645.43,-578 655.43,-574.5 645.43,-571 645.43,-578"/>
</a>
</g>
</g>
<!-- Node12 -->
<g id="Node000012" class="node">
<title>Node12</title>
<g id="a_Node000012"><a xlink:href="actors_8c.html#a12dc3ccac4c7d8569eadac0af4fd6f9f" target="_top" xlink:title=" ">
<polygon fill="white" stroke="#666666" points="964,-584 806,-584 806,-565 964,-565 964,-584"/>
<text text-anchor="middle" x="885" y="-572" font-family="Helvetica,sans-Serif" font-size="10.00">play_sound_before_despawn</text>
</a>
</g>
</g>
<!-- Node11&#45;&gt;Node12 -->
<g id="edge11_Node000011_Node000012" class="edge">
<title>Node11&#45;&gt;Node12</title>
<g id="a_edge11_Node000011_Node000012"><a xlink:title=" ">
<path fill="none" stroke="#63b8ff" d="M738.82,-574.5C755.65,-574.5 775.86,-574.5 795.77,-574.5"/>
<polygon fill="#63b8ff" stroke="#63b8ff" points="795.82,-578 805.82,-574.5 795.82,-571 795.82,-578"/>
</a>
</g>
</g>
<!-- Node13 -->
<g id="Node000013" class="node">
<title>Node13</title>
<g id="a_Node000013"><a xlink:href="external_8c.html#ae72057869772019e4464c87d4e16c682" target="_top" xlink:title=" ">
<polygon fill="white" stroke="#666666" points="1092,-584 1000,-584 1000,-565 1092,-565 1092,-584"/>
<text text-anchor="middle" x="1046" y="-572" font-family="Helvetica,sans-Serif" font-size="10.00">func_800C99E0</text>
</a>
</g>
</g>
<!-- Node12&#45;&gt;Node13 -->
<g id="edge12_Node000012_Node000013" class="edge">
<title>Node12&#45;&gt;Node13</title>
<g id="a_edge12_Node000012_Node000013"><a xlink:title=" ">
<path fill="none" stroke="#63b8ff" d="M964.1,-574.5C972.72,-574.5 981.35,-574.5 989.61,-574.5"/>
<polygon fill="#63b8ff" stroke="#63b8ff" points="989.83,-578 999.83,-574.5 989.83,-571 989.83,-578"/>
</a>
</g>
</g>
<!-- Node14 -->
<g id="Node000014" class="node">
<title>Node14</title>
<g id="a_Node000014"><a xlink:href="external_8c.html#aeb87c527482a244173df36a1f3d4f446" target="_top" xlink:title=" ">
<polygon fill="white" stroke="#666666" points="1220,-603 1128,-603 1128,-584 1220,-584 1220,-603"/>
<text text-anchor="middle" x="1174" y="-591" font-family="Helvetica,sans-Serif" font-size="10.00">func_800C21E8</text>
</a>
</g>
</g>
<!-- Node13&#45;&gt;Node14 -->
<g id="edge13_Node000013_Node000014" class="edge">
<title>Node13&#45;&gt;Node14</title>
<g id="a_edge13_Node000013_Node000014"><a xlink:title=" ">
<path fill="none" stroke="#63b8ff" d="M1092.13,-581.31C1100.46,-582.56 1109.23,-583.88 1117.81,-585.18"/>
<polygon fill="#63b8ff" stroke="#63b8ff" points="1117.35,-588.65 1127.76,-586.68 1118.39,-581.73 1117.35,-588.65"/>
</a>
</g>
</g>
<!-- Node15 -->
<g id="Node000015" class="node">
<title>Node15</title>
<g id="a_Node000015"><a xlink:href="external_8c.html#a028d40421b90c38f68ebfd5acc626f2e" target="_top" xlink:title=" ">
<polygon fill="white" stroke="#666666" points="1220,-566 1128,-566 1128,-547 1220,-547 1220,-566"/>
<text text-anchor="middle" x="1174" y="-554" font-family="Helvetica,sans-Serif" font-size="10.00">func_800C5578</text>
</a>
</g>
</g>
<!-- Node13&#45;&gt;Node15 -->
<g id="edge14_Node000013_Node000015" class="edge">
<title>Node13&#45;&gt;Node15</title>
<g id="a_edge14_Node000013_Node000015"><a xlink:title=" ">
<path fill="none" stroke="#63b8ff" d="M1092.13,-568.05C1100.46,-566.86 1109.23,-565.61 1117.81,-564.38"/>
<polygon fill="#63b8ff" stroke="#63b8ff" points="1118.35,-567.84 1127.76,-562.96 1117.36,-560.91 1118.35,-567.84"/>
</a>
</g>
</g>
<!-- Node16 -->
<g id="Node000016" class="node">
<title>Node16</title>
<g id="a_Node000016"><a xlink:href="external_8c.html#ac0fb767de7e14a03f1bcfa53f0abd23b" target="_top" xlink:title=" ">
<polygon fill="white" stroke="#666666" points="1396,-603 1256,-603 1256,-584 1396,-584 1396,-603"/>
<text text-anchor="middle" x="1326" y="-591" font-family="Helvetica,sans-Serif" font-size="10.00">delete_sound_from_bank</text>
</a>
</g>
</g>
<!-- Node15&#45;&gt;Node16 -->
<g id="edge15_Node000015_Node000016" class="edge">
<title>Node15&#45;&gt;Node16</title>
<g id="a_edge15_Node000015_Node000016"><a xlink:title=" ">
<path fill="none" stroke="#63b8ff" d="M1213.63,-566.03C1232.8,-570.76 1256.16,-576.52 1276.52,-581.54"/>
<polygon fill="#63b8ff" stroke="#63b8ff" points="1275.69,-584.94 1286.24,-583.94 1277.37,-578.15 1275.69,-584.94"/>
</a>
</g>
</g>
<!-- Node18 -->
<g id="Node000018" class="node">
<title>Node18</title>
<g id="a_Node000018"><a xlink:href="external_8c.html#ab83bd36e63f0f1baddcb2482b5ad31b0" target="_top" xlink:title=" ">
<polygon fill="white" stroke="#666666" points="1372.5,-566 1279.5,-566 1279.5,-547 1372.5,-547 1372.5,-566"/>
<text text-anchor="middle" x="1326" y="-554" font-family="Helvetica,sans-Serif" font-size="10.00">func_800C41CC</text>
</a>
</g>
</g>
<!-- Node15&#45;&gt;Node18 -->
<g id="edge17_Node000015_Node000018" class="edge">
<title>Node15&#45;&gt;Node18</title>
<g id="a_edge17_Node000015_Node000018"><a xlink:title=" ">
<path fill="none" stroke="#63b8ff" d="M1220,-556.5C1235.37,-556.5 1252.74,-556.5 1268.86,-556.5"/>
<polygon fill="#63b8ff" stroke="#63b8ff" points="1269.25,-560 1279.25,-556.5 1269.25,-553 1269.25,-560"/>
</a>
</g>
</g>
<!-- Node19 -->
<g id="Node000019" class="node">
<title>Node19</title>
<g id="a_Node000019"><a xlink:href="port__eu_8c.html#aa89dfaecca46c6d071f08c1898d1f7c9" target="_top" xlink:title=" ">
<polygon fill="white" stroke="#666666" points="1372.5,-529 1279.5,-529 1279.5,-510 1372.5,-510 1372.5,-529"/>
<text text-anchor="middle" x="1326" y="-517" font-family="Helvetica,sans-Serif" font-size="10.00">func_800CBBE8</text>
</a>
</g>
</g>
<!-- Node15&#45;&gt;Node19 -->
<g id="edge18_Node000015_Node000019" class="edge">
<title>Node15&#45;&gt;Node19</title>
<g id="a_edge18_Node000015_Node000019"><a xlink:title=" ">
<path fill="none" stroke="#63b8ff" d="M1213.63,-546.97C1232.8,-542.24 1256.16,-536.48 1276.52,-531.46"/>
<polygon fill="#63b8ff" stroke="#63b8ff" points="1277.37,-534.85 1286.24,-529.06 1275.69,-528.06 1277.37,-534.85"/>
</a>
</g>
</g>
<!-- Node17 -->
<g id="Node000017" class="node">
<title>Node17</title>
<g id="a_Node000017"><a xlink:href="external_8c.html#a358ac55e8ab5262dcae8037334be06d7" target="_top" xlink:title=" ">
<polygon fill="white" stroke="#666666" points="1524.5,-603 1432.5,-603 1432.5,-584 1524.5,-584 1524.5,-603"/>
<text text-anchor="middle" x="1478.5" y="-591" font-family="Helvetica,sans-Serif" font-size="10.00">func_800C40F0</text>
</a>
</g>
</g>
<!-- Node16&#45;&gt;Node17 -->
<g id="edge16_Node000016_Node000017" class="edge">
<title>Node16&#45;&gt;Node17</title>
<g id="a_edge16_Node000016_Node000017"><a xlink:title=" ">
<path fill="none" stroke="#63b8ff" d="M1396.08,-593.5C1404.87,-593.5 1413.78,-593.5 1422.31,-593.5"/>
<polygon fill="#63b8ff" stroke="#63b8ff" points="1422.5,-597 1432.5,-593.5 1422.5,-590 1422.5,-597"/>
</a>
</g>
</g>
<!-- Node20 -->
<g id="Node000020" class="node">
<title>Node20</title>
<g id="a_Node000020"><a xlink:href="port__eu_8c.html#af361a20d2e08f30c53a237ca481ff734" target="_top" xlink:title=" ">
<polygon fill="white" stroke="#666666" points="1525,-529 1432,-529 1432,-510 1525,-510 1525,-529"/>
<text text-anchor="middle" x="1478.5" y="-517" font-family="Helvetica,sans-Serif" font-size="10.00">func_800CBB48</text>
</a>
</g>
</g>
<!-- Node19&#45;&gt;Node20 -->
<g id="edge19_Node000019_Node000020" class="edge">
<title>Node19&#45;&gt;Node20</title>
<g id="a_edge19_Node000019_Node000020"><a xlink:title=" ">
<path fill="none" stroke="#63b8ff" d="M1372.56,-519.5C1387.96,-519.5 1405.34,-519.5 1421.46,-519.5"/>
<polygon fill="#63b8ff" stroke="#63b8ff" points="1421.83,-523 1431.83,-519.5 1421.83,-516 1421.83,-523"/>
</a>
</g>
</g>
<!-- Node21&#45;&gt;Node22 -->
<g id="edge21_Node000021_Node000022" class="edge">
<title>Node21&#45;&gt;Node22</title>
<g id="a_edge21_Node000021_Node000022"><a xlink:title=" ">
<path fill="none" stroke="#63b8ff" d="M562.04,-521.99C570.76,-519.59 579.77,-516.76 588,-513.5 618.46,-501.45 651.17,-482.67 672.51,-469.55"/>
<polygon fill="#63b8ff" stroke="#63b8ff" points="674.56,-472.39 681.2,-464.13 670.86,-466.45 674.56,-472.39"/>
</a>
</g>
</g>
<!-- Node30&#45;&gt;Node29 -->
<g id="edge34_Node000030_Node000029" class="edge">
<title>Node30&#45;&gt;Node29</title>
<g id="a_edge34_Node000030_Node000029"><a xlink:title=" ">
<path fill="none" stroke="#63b8ff" d="M234.37,-315.09C255.49,-320.1 281.53,-326.29 303.92,-331.61"/>
<polygon fill="#63b8ff" stroke="#63b8ff" points="303.38,-335.07 313.92,-333.98 304.99,-328.26 303.38,-335.07"/>
</a>
</g>
</g>
<!-- Node31 -->
<g id="Node000031" class="node">
<title>Node31</title>
<g id="a_Node000031"><a xlink:href="math__util_8c.html#aaa39a297477f56051975259f4bddd829" target="_top" xlink:title=" ">
<polygon fill="white" stroke="#666666" points="380,-315 330,-315 330,-296 380,-296 380,-315"/>
<text text-anchor="middle" x="355" y="-303" font-family="Helvetica,sans-Serif" font-size="10.00">atan2s</text>
</a>
</g>
</g>
<!-- Node30&#45;&gt;Node31 -->
<g id="edge32_Node000030_Node000031" class="edge">
<title>Node30&#45;&gt;Node31</title>
<g id="a_edge32_Node000030_Node000031"><a xlink:title=" ">
<path fill="none" stroke="#63b8ff" d="M239.42,-305.5C264.9,-305.5 296.17,-305.5 319.6,-305.5"/>
<polygon fill="#63b8ff" stroke="#63b8ff" points="319.77,-309 329.77,-305.5 319.77,-302 319.77,-309"/>
</a>
</g>
</g>
<!-- Node32 -->
<g id="Node000032" class="node">
<title>Node32</title>
<g id="a_Node000032"><a xlink:href="math__util_8c.html#a0273b0ea0783a06996c28669a7438ed9" target="_top" xlink:title=" ">
<polygon fill="white" stroke="#666666" points="558.5,-315 476.5,-315 476.5,-296 558.5,-296 558.5,-315"/>
<text text-anchor="middle" x="517.5" y="-303" font-family="Helvetica,sans-Serif" font-size="10.00">atan2_lookup</text>
</a>
</g>
</g>
<!-- Node31&#45;&gt;Node32 -->
<g id="edge33_Node000031_Node000032" class="edge">
<title>Node31&#45;&gt;Node32</title>
<g id="a_edge33_Node000031_Node000032"><a xlink:title=" ">
<path fill="none" stroke="#63b8ff" d="M380.03,-305.5C402.69,-305.5 437.38,-305.5 466.11,-305.5"/>
<polygon fill="#63b8ff" stroke="#63b8ff" points="466.39,-309 476.39,-305.5 466.39,-302 466.39,-309"/>
</a>
</g>
</g>
</g>
</svg>

<g id="navigator" transform="translate(0 0)" fill="#404254">
  <rect fill="#f2f5e9" fill-opacity="0.5" stroke="#606060" stroke-width=".5" x="0" y="0" width="60" height="60"/>
  <use id="zoomplus" xlink:href="#zoomPlus" x="17" y="9" onmousedown="handleZoom(evt,'in')"/>
  <use id="zoomminus" xlink:href="#zoomMin" x="42" y="9" onmousedown="handleZoom(evt,'out')"/>
  <use id="reset" xlink:href="#resetDef" x="30" y="36" onmousedown="handleReset()"/>
   <use id="arrowup" xlink:href="#arrowUp" x="0" y="0" onmousedown="handlePan(0,-1)"/>
  <use id="arrowright" xlink:href="#arrowRight" x="0" y="0" onmousedown="handlePan(1,0)"/>
  <use id="arrowdown" xlink:href="#arrowDown" x="0" y="0" onmousedown="handlePan(0,1)"/>
  <use id="arrowleft" xlink:href="#arrowLeft" x="0" y="0" onmousedown="handlePan(-1,0)"/>
</g>
<svg viewBox="0 0 15 15" width="100%" height="30px" preserveAspectRatio="xMaxYMin meet">
 <g id="arrow_out" transform="scale(0.3 0.3)">
  <a xlink:href="actors_8c_aa6c218ad25d2200bdbf85cbbd197d1cd_cgraph_org.svg" target="_base">
   <rect id="button" ry="5" rx="5" y="6" x="6" height="38" width="38"
        fill="#f2f5e9" fill-opacity="0.5" stroke="#606060" stroke-width="1.0"/>
   <path id="arrow"
     d="M 11.500037,31.436501 C 11.940474,20.09759 22.043105,11.32322 32.158766,21.979434 L 37.068811,17.246167 C 37.068811,17.246167 37.088388,32 37.088388,32 L 22.160133,31.978069 C 22.160133,31.978069 26.997745,27.140456 26.997745,27.140456 C 18.528582,18.264221 13.291696,25.230495 11.500037,31.436501 z"
     style="fill:#404040;"/>
  </a>
 </g>
</svg>

<style type='text/css'>
<![CDATA[
[data-mouse-over-selected='false'] { opacity: 0.7; }
[data-mouse-over-selected='true']  { opacity: 1.0; }
]]>
</style>
<script type="application/ecmascript"><![CDATA[
document.addEventListener('DOMContentLoaded', (event) => {
  highlightEdges();
  highlightAdjacentNodes();
});
]]></script>
</svg>
