<?xml version="1.0" encoding="UTF-8" standalone="no"?>
<!DOCTYPE svg PUBLIC "-//W3C//DTD SVG 1.1//EN"
 "http://www.w3.org/Graphics/SVG/1.1/DTD/svg11.dtd">
<!-- Generated by graphviz version 2.43.0 (0)
 -->
<!-- Title: use_red_shell_item Pages: 1 -->
<svg width="1617pt" height="538pt"
 viewBox="0.00 0.00 1617.00 538.00" xmlns="http://www.w3.org/2000/svg" xmlns:xlink="http://www.w3.org/1999/xlink">
<g id="graph0" class="graph" transform="scale(1 1) rotate(0) translate(4 534)">
<title>use_red_shell_item</title>
<!-- Node1 -->
<g id="Node000001" class="node">
<title>Node1</title>
<g id="a_Node000001"><a xlink:title=" ">
<polygon fill="#999999" stroke="#666666" points="111,-332 0,-332 0,-313 111,-313 111,-332"/>
<text text-anchor="middle" x="55.5" y="-320" font-family="Helvetica,sans-Serif" font-size="10.00">use_red_shell_item</text>
</a>
</g>
</g>
<!-- Node2 -->
<g id="Node000002" class="node">
<title>Node2</title>
<g id="a_Node000002"><a xlink:href="collision_8c.html#a79293dbdae52d290fdaf8dde9d5244ca" target="_top" xlink:title=" ">
<polygon fill="white" stroke="#666666" points="285.5,-465 160.5,-465 160.5,-446 285.5,-446 285.5,-465"/>
<text text-anchor="middle" x="223" y="-453" font-family="Helvetica,sans-Serif" font-size="10.00">actor_terrain_collision</text>
</a>
</g>
</g>
<!-- Node1&#45;&gt;Node2 -->
<g id="edge1_Node000001_Node000002" class="edge">
<title>Node1&#45;&gt;Node2</title>
<g id="a_edge1_Node000001_Node000002"><a xlink:title=" ">
<path fill="none" stroke="#63b8ff" d="M68.4,-332.07C96.42,-354.58 166.78,-411.12 201.69,-439.18"/>
<polygon fill="#63b8ff" stroke="#63b8ff" points="199.77,-442.13 209.76,-445.66 204.16,-436.67 199.77,-442.13"/>
</a>
</g>
</g>
<!-- Node6 -->
<g id="Node000006" class="node">
<title>Node6</title>
<g id="a_Node000006"><a xlink:href="actors_8c.html#a91fb2e4e37e7c72fea918fe2c1bb4eaf" target="_top" xlink:title=" ">
<polygon fill="white" stroke="#666666" points="293,-351 153,-351 153,-332 293,-332 293,-351"/>
<text text-anchor="middle" x="223" y="-339" font-family="Helvetica,sans-Serif" font-size="10.00">add_actor_to_empty_slot</text>
</a>
</g>
</g>
<!-- Node1&#45;&gt;Node6 -->
<g id="edge5_Node000001_Node000006" class="edge">
<title>Node1&#45;&gt;Node6</title>
<g id="a_edge5_Node000001_Node000006"><a xlink:title=" ">
<path fill="none" stroke="#63b8ff" d="M111.15,-328.77C121.28,-329.94 132.05,-331.17 142.74,-332.4"/>
<polygon fill="#63b8ff" stroke="#63b8ff" points="142.61,-335.91 152.95,-333.57 143.41,-328.95 142.61,-335.91"/>
</a>
</g>
</g>
<!-- Node39 -->
<g id="Node000039" class="node">
<title>Node39</title>
<g id="a_Node000039"><a xlink:href="actors__extended_8c.html#a78e98c146f1f4dd6e3608016486172a4" target="_top" xlink:title=" ">
<polygon fill="white" stroke="#666666" points="269,-314 177,-314 177,-295 269,-295 269,-314"/>
<text text-anchor="middle" x="223" y="-302" font-family="Helvetica,sans-Serif" font-size="10.00">func_802B4E30</text>
</a>
</g>
</g>
<!-- Node1&#45;&gt;Node39 -->
<g id="edge42_Node000001_Node000039" class="edge">
<title>Node1&#45;&gt;Node39</title>
<g id="a_edge42_Node000001_Node000039"><a xlink:title=" ">
<path fill="none" stroke="#63b8ff" d="M111.15,-316.56C129.02,-314.61 148.88,-312.45 166.79,-310.51"/>
<polygon fill="#63b8ff" stroke="#63b8ff" points="167.23,-313.98 176.8,-309.42 166.48,-307.02 167.23,-313.98"/>
</a>
</g>
</g>
<!-- Node40 -->
<g id="Node000040" class="node">
<title>Node40</title>
<g id="a_Node000040"><a xlink:href="math__util_8c.html#ad5bb0138c68b50f119d3cb7966f522b7" target="_top" xlink:title=" ">
<polygon fill="white" stroke="#666666" points="299,-277 147,-277 147,-258 299,-258 299,-277"/>
<text text-anchor="middle" x="223" y="-265" font-family="Helvetica,sans-Serif" font-size="10.00">mtxf_translate_vec3f_mat3</text>
</a>
</g>
</g>
<!-- Node1&#45;&gt;Node40 -->
<g id="edge43_Node000001_Node000040" class="edge">
<title>Node1&#45;&gt;Node40</title>
<g id="a_edge43_Node000001_Node000040"><a xlink:title=" ">
<path fill="none" stroke="#63b8ff" d="M78.15,-312.96C96.31,-305.19 123.03,-294.27 147,-286.5 154.46,-284.08 162.41,-281.78 170.25,-279.67"/>
<polygon fill="#63b8ff" stroke="#63b8ff" points="171.28,-283.01 180.07,-277.1 169.51,-276.24 171.28,-283.01"/>
</a>
</g>
</g>
<!-- Node3 -->
<g id="Node000003" class="node">
<title>Node3</title>
<g id="a_Node000003"><a xlink:href="collision_8c.html#a6ea8b20f38e63c1b1157923085c8e306" target="_top" xlink:title=" ">
<polygon fill="white" stroke="#666666" points="478,-492.5 335,-492.5 335,-462.5 478,-462.5 478,-492.5"/>
<text text-anchor="start" x="343" y="-480.5" font-family="Helvetica,sans-Serif" font-size="10.00">is_colliding_with_drivable</text>
<text text-anchor="middle" x="406.5" y="-469.5" font-family="Helvetica,sans-Serif" font-size="10.00">_surface</text>
</a>
</g>
</g>
<!-- Node2&#45;&gt;Node3 -->
<g id="edge2_Node000002_Node000003" class="edge">
<title>Node2&#45;&gt;Node3</title>
<g id="a_edge2_Node000002_Node000003"><a xlink:title=" ">
<path fill="none" stroke="#63b8ff" d="M285.7,-462.98C298.31,-464.51 311.76,-466.14 324.92,-467.73"/>
<polygon fill="#63b8ff" stroke="#63b8ff" points="324.56,-471.21 334.91,-468.94 325.4,-464.27 324.56,-471.21"/>
</a>
</g>
</g>
<!-- Node4 -->
<g id="Node000004" class="node">
<title>Node4</title>
<g id="a_Node000004"><a xlink:href="collision_8c.html#a94970a4a6ca911f74e59114decd74557" target="_top" xlink:title=" ">
<polygon fill="white" stroke="#666666" points="471,-444 342,-444 342,-425 471,-425 471,-444"/>
<text text-anchor="middle" x="406.5" y="-432" font-family="Helvetica,sans-Serif" font-size="10.00">is_colliding_with_wall1</text>
</a>
</g>
</g>
<!-- Node2&#45;&gt;Node4 -->
<g id="edge3_Node000002_Node000004" class="edge">
<title>Node2&#45;&gt;Node4</title>
<g id="a_edge3_Node000002_Node000004"><a xlink:title=" ">
<path fill="none" stroke="#63b8ff" d="M285.7,-448.36C300.54,-446.64 316.53,-444.79 331.85,-443.02"/>
<polygon fill="#63b8ff" stroke="#63b8ff" points="332.27,-446.5 341.8,-441.87 331.47,-439.54 332.27,-446.5"/>
</a>
</g>
</g>
<!-- Node5 -->
<g id="Node000005" class="node">
<title>Node5</title>
<g id="a_Node000005"><a xlink:href="collision_8c.html#a23443870e0d3a6797de707a89ded7ef0" target="_top" xlink:title=" ">
<polygon fill="white" stroke="#666666" points="471,-530 342,-530 342,-511 471,-511 471,-530"/>
<text text-anchor="middle" x="406.5" y="-518" font-family="Helvetica,sans-Serif" font-size="10.00">is_colliding_with_wall2</text>
</a>
</g>
</g>
<!-- Node2&#45;&gt;Node5 -->
<g id="edge4_Node000002_Node000005" class="edge">
<title>Node2&#45;&gt;Node5</title>
<g id="a_edge4_Node000002_Node000005"><a xlink:title=" ">
<path fill="none" stroke="#63b8ff" d="M244.97,-465.15C267.06,-475.08 303.01,-490.61 335,-501.5 341.93,-503.86 349.32,-506.12 356.61,-508.21"/>
<polygon fill="#63b8ff" stroke="#63b8ff" points="355.87,-511.63 366.44,-510.94 357.74,-504.89 355.87,-511.63"/>
</a>
</g>
</g>
<!-- Node7 -->
<g id="Node000007" class="node">
<title>Node7</title>
<g id="a_Node000007"><a xlink:href="actors_8c.html#a39c023177b5a7686cdd1fc65b8b953e1" target="_top" xlink:title=" ">
<polygon fill="white" stroke="#666666" points="437.5,-115 375.5,-115 375.5,-96 437.5,-96 437.5,-115"/>
<text text-anchor="middle" x="406.5" y="-103" font-family="Helvetica,sans-Serif" font-size="10.00">actor_init</text>
</a>
</g>
</g>
<!-- Node6&#45;&gt;Node7 -->
<g id="edge6_Node000006_Node000007" class="edge">
<title>Node6&#45;&gt;Node7</title>
<g id="a_edge6_Node000006_Node000007"><a xlink:title=" ">
<path fill="none" stroke="#63b8ff" d="M285.15,-331.84C290.12,-329.59 294.82,-326.85 299,-323.5 332.68,-296.49 380.71,-172.95 398.51,-124.8"/>
<polygon fill="#63b8ff" stroke="#63b8ff" points="401.86,-125.83 402.01,-115.24 395.29,-123.42 401.86,-125.83"/>
</a>
</g>
</g>
<!-- Node30 -->
<g id="Node000030" class="node">
<title>Node30</title>
<g id="a_Node000030"><a xlink:href="Game_8cpp.html#acea5cfd9ab22f745bd6627869b95a62e" target="_top" xlink:title=" ">
<polygon fill="white" stroke="#666666" points="462.5,-407 350.5,-407 350.5,-388 462.5,-388 462.5,-407"/>
<text text-anchor="middle" x="406.5" y="-395" font-family="Helvetica,sans-Serif" font-size="10.00">CM_ActorBeginPlay</text>
</a>
</g>
</g>
<!-- Node6&#45;&gt;Node30 -->
<g id="edge29_Node000006_Node000030" class="edge">
<title>Node6&#45;&gt;Node30</title>
<g id="a_edge29_Node000006_Node000030"><a xlink:title=" ">
<path fill="none" stroke="#63b8ff" d="M255.2,-351.13C285.51,-360.48 331.69,-374.73 364.86,-384.96"/>
<polygon fill="#63b8ff" stroke="#63b8ff" points="364.12,-388.39 374.71,-388 366.18,-381.71 364.12,-388.39"/>
</a>
</g>
</g>
<!-- Node36 -->
<g id="Node000036" class="node">
<title>Node36</title>
<g id="a_Node000036"><a xlink:href="Game_8cpp.html#a42f23077aaa52cb3ea5c7803b7dd6816" target="_top" xlink:title=" ">
<polygon fill="white" stroke="#666666" points="459.5,-351 353.5,-351 353.5,-332 459.5,-332 459.5,-351"/>
<text text-anchor="middle" x="406.5" y="-339" font-family="Helvetica,sans-Serif" font-size="10.00">CM_AddBaseActor</text>
</a>
</g>
</g>
<!-- Node6&#45;&gt;Node36 -->
<g id="edge37_Node000006_Node000036" class="edge">
<title>Node6&#45;&gt;Node36</title>
<g id="a_edge37_Node000006_Node000036"><a xlink:title=" ">
<path fill="none" stroke="#63b8ff" d="M293.14,-341.5C309.57,-341.5 327.01,-341.5 343.12,-341.5"/>
<polygon fill="#63b8ff" stroke="#63b8ff" points="343.5,-345 353.5,-341.5 343.5,-338 343.5,-345"/>
</a>
</g>
</g>
<!-- Node38 -->
<g id="Node000038" class="node">
<title>Node38</title>
<g id="a_Node000038"><a xlink:href="Game_8cpp.html#a0841ffe9a66e95aca42438b9d8ffc3d3" target="_top" xlink:title=" ">
<polygon fill="white" stroke="#666666" points="457,-308 356,-308 356,-289 457,-289 457,-308"/>
<text text-anchor="middle" x="406.5" y="-296" font-family="Helvetica,sans-Serif" font-size="10.00">CM_GetActorSize</text>
</a>
</g>
</g>
<!-- Node6&#45;&gt;Node38 -->
<g id="edge40_Node000006_Node000038" class="edge">
<title>Node6&#45;&gt;Node38</title>
<g id="a_edge40_Node000006_Node000038"><a xlink:title=" ">
<path fill="none" stroke="#63b8ff" d="M264.28,-331.96C291.19,-325.58 326.77,-317.15 355.49,-310.35"/>
<polygon fill="#63b8ff" stroke="#63b8ff" points="356.41,-313.73 365.33,-308.02 354.79,-306.92 356.41,-313.73"/>
</a>
</g>
</g>
<!-- Node8 -->
<g id="Node000008" class="node">
<title>Node8</title>
<g id="a_Node000008"><a xlink:href="collision_8c.html#a37aa55b3768d001533ad75e7f1b8388a" target="_top" xlink:title=" ">
<polygon fill="white" stroke="#666666" points="655,-213 514,-213 514,-194 655,-194 655,-213"/>
<text text-anchor="middle" x="584.5" y="-201" font-family="Helvetica,sans-Serif" font-size="10.00">check_bounding_collision</text>
</a>
</g>
</g>
<!-- Node7&#45;&gt;Node8 -->
<g id="edge7_Node000007_Node000008" class="edge">
<title>Node7&#45;&gt;Node8</title>
<g id="a_edge7_Node000007_Node000008"><a xlink:title=" ">
<path fill="none" stroke="#63b8ff" d="M424.7,-115.08C455.58,-132.27 520.63,-168.49 557.17,-188.84"/>
<polygon fill="#63b8ff" stroke="#63b8ff" points="555.79,-192.08 566.23,-193.89 559.2,-185.96 555.79,-192.08"/>
</a>
</g>
</g>
<!-- Node12 -->
<g id="Node000012" class="node">
<title>Node12</title>
<g id="a_Node000012"><a xlink:href="actors_8c.html#a1a9bccb586242555a9123ebd4ab70f2a" target="_top" xlink:title=" ">
<polygon fill="white" stroke="#666666" points="650.5,-141.5 518.5,-141.5 518.5,-111.5 650.5,-111.5 650.5,-141.5"/>
<text text-anchor="start" x="526.5" y="-129.5" font-family="Helvetica,sans-Serif" font-size="10.00">cleanup_red_and_green</text>
<text text-anchor="middle" x="584.5" y="-118.5" font-family="Helvetica,sans-Serif" font-size="10.00">_shells</text>
</a>
</g>
</g>
<!-- Node7&#45;&gt;Node12 -->
<g id="edge11_Node000007_Node000012" class="edge">
<title>Node7&#45;&gt;Node12</title>
<g id="a_edge11_Node000007_Node000012"><a xlink:title=" ">
<path fill="none" stroke="#63b8ff" d="M437.76,-109.11C457.19,-111.43 483.36,-114.55 508.15,-117.51"/>
<polygon fill="#63b8ff" stroke="#63b8ff" points="507.96,-121.01 518.3,-118.72 508.79,-114.06 507.96,-121.01"/>
</a>
</g>
</g>
<!-- Node26 -->
<g id="Node000026" class="node">
<title>Node26</title>
<g id="a_Node000026"><a xlink:href="collision_8c.html#ad72fef3ffe32191d73b1822f512ebf3f" target="_top" xlink:title=" ">
<polygon fill="white" stroke="#666666" points="632,-93 537,-93 537,-74 632,-74 632,-93"/>
<text text-anchor="middle" x="584.5" y="-81" font-family="Helvetica,sans-Serif" font-size="10.00">func_802AAAAC</text>
</a>
</g>
</g>
<!-- Node7&#45;&gt;Node26 -->
<g id="edge25_Node000007_Node000026" class="edge">
<title>Node7&#45;&gt;Node26</title>
<g id="a_edge25_Node000007_Node000026"><a xlink:title=" ">
<path fill="none" stroke="#63b8ff" d="M437.76,-101.72C462.11,-98.67 497.03,-94.31 526.58,-90.62"/>
<polygon fill="#63b8ff" stroke="#63b8ff" points="527.29,-94.05 536.78,-89.34 526.42,-87.11 527.29,-94.05"/>
</a>
</g>
</g>
<!-- Node28 -->
<g id="Node000028" class="node">
<title>Node28</title>
<g id="a_Node000028"><a xlink:href="math__util_8c.html#af7b470ed76fce07b8042a47c96e5690b" target="_top" xlink:title=" ">
<polygon fill="white" stroke="#666666" points="638,-56 531,-56 531,-37 638,-37 638,-56"/>
<text text-anchor="middle" x="584.5" y="-44" font-family="Helvetica,sans-Serif" font-size="10.00">vec3f_copy_return</text>
</a>
</g>
</g>
<!-- Node7&#45;&gt;Node28 -->
<g id="edge27_Node000007_Node000028" class="edge">
<title>Node7&#45;&gt;Node28</title>
<g id="a_edge27_Node000007_Node000028"><a xlink:title=" ">
<path fill="none" stroke="#63b8ff" d="M430.08,-95.94C451.46,-87.1 484.57,-73.94 514,-64.5 520.38,-62.45 527.14,-60.47 533.85,-58.62"/>
<polygon fill="#63b8ff" stroke="#63b8ff" points="534.83,-61.98 543.58,-56.01 533.02,-55.22 534.83,-61.98"/>
</a>
</g>
</g>
<!-- Node29 -->
<g id="Node000029" class="node">
<title>Node29</title>
<g id="a_Node000029"><a xlink:href="math__util_8c.html#a0e270ee67600c8c9c2f140c647d008a1" target="_top" xlink:title=" ">
<polygon fill="white" stroke="#666666" points="621.5,-19 547.5,-19 547.5,0 621.5,0 621.5,-19"/>
<text text-anchor="middle" x="584.5" y="-7" font-family="Helvetica,sans-Serif" font-size="10.00">vec3s_copy</text>
</a>
</g>
</g>
<!-- Node7&#45;&gt;Node29 -->
<g id="edge28_Node000007_Node000029" class="edge">
<title>Node7&#45;&gt;Node29</title>
<g id="a_edge28_Node000007_Node000029"><a xlink:title=" ">
<path fill="none" stroke="#63b8ff" d="M417.81,-95.82C435.88,-79.37 475.07,-45.96 514,-27.5 521.37,-24.01 529.5,-21.12 537.54,-18.77"/>
<polygon fill="#63b8ff" stroke="#63b8ff" points="538.49,-22.14 547.23,-16.15 536.67,-15.38 538.49,-22.14"/>
</a>
</g>
</g>
<!-- Node9 -->
<g id="Node000009" class="node">
<title>Node9</title>
<g id="a_Node000009"><a xlink:href="collision_8c.html#ac312bf382cb40752f6b790a99e7cdcb6" target="_top" xlink:title=" ">
<polygon fill="white" stroke="#666666" points="823.5,-228 715.5,-228 715.5,-209 823.5,-209 823.5,-228"/>
<text text-anchor="middle" x="769.5" y="-216" font-family="Helvetica,sans-Serif" font-size="10.00">check_collision_yx</text>
</a>
</g>
</g>
<!-- Node8&#45;&gt;Node9 -->
<g id="edge8_Node000008_Node000009" class="edge">
<title>Node8&#45;&gt;Node9</title>
<g id="a_edge8_Node000008_Node000009"><a xlink:title=" ">
<path fill="none" stroke="#63b8ff" d="M655.21,-209.21C671.61,-210.56 689.01,-211.98 705.12,-213.3"/>
<polygon fill="#63b8ff" stroke="#63b8ff" points="705.25,-216.83 715.5,-214.16 705.82,-209.85 705.25,-216.83"/>
</a>
</g>
</g>
<!-- Node10 -->
<g id="Node000010" class="node">
<title>Node10</title>
<g id="a_Node000010"><a xlink:href="collision_8c.html#a4b48832a90e984536a0635a016ec4f28" target="_top" xlink:title=" ">
<polygon fill="white" stroke="#666666" points="823,-191 716,-191 716,-172 823,-172 823,-191"/>
<text text-anchor="middle" x="769.5" y="-179" font-family="Helvetica,sans-Serif" font-size="10.00">check_collision_zx</text>
</a>
</g>
</g>
<!-- Node8&#45;&gt;Node10 -->
<g id="edge9_Node000008_Node000010" class="edge">
<title>Node8&#45;&gt;Node10</title>
<g id="a_edge9_Node000008_Node000010"><a xlink:title=" ">
<path fill="none" stroke="#63b8ff" d="M655.21,-195.12C671.85,-193.12 689.52,-190.99 705.83,-189.03"/>
<polygon fill="#63b8ff" stroke="#63b8ff" points="706.27,-192.51 715.78,-187.84 705.44,-185.56 706.27,-192.51"/>
</a>
</g>
</g>
<!-- Node11 -->
<g id="Node000011" class="node">
<title>Node11</title>
<g id="a_Node000011"><a xlink:href="collision_8c.html#a21fef964ab48191a1c0341954ef27a40" target="_top" xlink:title=" ">
<polygon fill="white" stroke="#666666" points="823,-265 716,-265 716,-246 823,-246 823,-265"/>
<text text-anchor="middle" x="769.5" y="-253" font-family="Helvetica,sans-Serif" font-size="10.00">check_collision_zy</text>
</a>
</g>
</g>
<!-- Node8&#45;&gt;Node11 -->
<g id="edge10_Node000008_Node000011" class="edge">
<title>Node8&#45;&gt;Node11</title>
<g id="a_edge10_Node000008_Node000011"><a xlink:title=" ">
<path fill="none" stroke="#63b8ff" d="M613.08,-213.09C634.25,-220.28 664.29,-230.11 691,-237.5 698.58,-239.6 706.63,-241.65 714.55,-243.58"/>
<polygon fill="#63b8ff" stroke="#63b8ff" points="713.94,-247.04 724.48,-245.95 715.57,-240.23 713.94,-247.04"/>
</a>
</g>
</g>
<!-- Node13 -->
<g id="Node000013" class="node">
<title>Node13</title>
<g id="a_Node000013"><a xlink:href="Game_8cpp.html#a693de7d8b89fe291aafea86bc64a0a2e" target="_top" xlink:title=" ">
<polygon fill="white" stroke="#666666" points="809.5,-154 729.5,-154 729.5,-135 809.5,-135 809.5,-154"/>
<text text-anchor="middle" x="769.5" y="-142" font-family="Helvetica,sans-Serif" font-size="10.00">CM_GetActor</text>
</a>
</g>
</g>
<!-- Node12&#45;&gt;Node13 -->
<g id="edge12_Node000012_Node000013" class="edge">
<title>Node12&#45;&gt;Node13</title>
<g id="a_edge12_Node000012_Node000013"><a xlink:title=" ">
<path fill="none" stroke="#63b8ff" d="M650.53,-132.9C673.14,-135.12 698.09,-137.57 719.21,-139.65"/>
<polygon fill="#63b8ff" stroke="#63b8ff" points="718.95,-143.14 729.24,-140.64 719.63,-136.18 718.95,-143.14"/>
</a>
</g>
</g>
<!-- Node15 -->
<g id="Node000015" class="node">
<title>Node15</title>
<g id="a_Node000015"><a xlink:href="code__80005FD0_8c.html#ad301b978cdd3c4cc190b10be050d51d8" target="_top" xlink:title=" ">
<polygon fill="white" stroke="#666666" points="842.5,-79.5 696.5,-79.5 696.5,-49.5 842.5,-49.5 842.5,-79.5"/>
<text text-anchor="start" x="704.5" y="-67.5" font-family="Helvetica,sans-Serif" font-size="10.00">delete_actor_in_unexpired</text>
<text text-anchor="middle" x="769.5" y="-56.5" font-family="Helvetica,sans-Serif" font-size="10.00">_actor_list</text>
</a>
</g>
</g>
<!-- Node12&#45;&gt;Node15 -->
<g id="edge14_Node000012_Node000015" class="edge">
<title>Node12&#45;&gt;Node15</title>
<g id="a_edge14_Node000012_Node000015"><a xlink:title=" ">
<path fill="none" stroke="#63b8ff" d="M627.4,-111.44C636.5,-108.16 646.07,-104.72 655,-101.5 671,-95.73 674.87,-93.91 691,-88.5 696.87,-86.53 703.01,-84.53 709.16,-82.57"/>
<polygon fill="#63b8ff" stroke="#63b8ff" points="710.3,-85.88 718.78,-79.52 708.19,-79.2 710.3,-85.88"/>
</a>
</g>
</g>
<!-- Node16 -->
<g id="Node000016" class="node">
<title>Node16</title>
<g id="a_Node000016"><a xlink:href="actors_8c.html#a694ec6ef7548b8618aeb35c038d3a9b9" target="_top" xlink:title=" ">
<polygon fill="white" stroke="#666666" points="811,-117 728,-117 728,-98 811,-98 811,-117"/>
<text text-anchor="middle" x="769.5" y="-105" font-family="Helvetica,sans-Serif" font-size="10.00">destroy_actor</text>
</a>
</g>
</g>
<!-- Node12&#45;&gt;Node16 -->
<g id="edge15_Node000012_Node000016" class="edge">
<title>Node12&#45;&gt;Node16</title>
<g id="a_edge15_Node000012_Node000016"><a xlink:title=" ">
<path fill="none" stroke="#63b8ff" d="M650.53,-119.75C672.59,-117.46 696.9,-114.93 717.68,-112.78"/>
<polygon fill="#63b8ff" stroke="#63b8ff" points="718.31,-116.23 727.89,-111.72 717.58,-109.27 718.31,-116.23"/>
</a>
</g>
</g>
<!-- Node14 -->
<g id="Node000014" class="node">
<title>Node14</title>
<g id="a_Node000014"><a xlink:href="Game_8cpp.html#ae2fa844b3cb1021ecbc357f8ed2ad8cc" target="_top" xlink:title=" ">
<polygon fill="white" stroke="#666666" points="997,-341 935,-341 935,-322 997,-322 997,-341"/>
<text text-anchor="middle" x="966" y="-329" font-family="Helvetica,sans-Serif" font-size="10.00">GetWorld</text>
</a>
</g>
</g>
<!-- Node13&#45;&gt;Node14 -->
<g id="edge13_Node000013_Node000014" class="edge">
<title>Node13&#45;&gt;Node14</title>
<g id="a_edge13_Node000013_Node000014"><a xlink:title=" ">
<path fill="none" stroke="#63b8ff" d="M809.83,-148.5C822.83,-151.23 836.81,-155.82 848,-163.5 904.04,-201.96 941.64,-276.7 957.08,-312.06"/>
<polygon fill="#63b8ff" stroke="#63b8ff" points="954.03,-313.84 961.16,-321.69 960.48,-311.11 954.03,-313.84"/>
</a>
</g>
</g>
<!-- Node17 -->
<g id="Node000017" class="node">
<title>Node17</title>
<g id="a_Node000017"><a xlink:href="actors_8c.html#a12dc3ccac4c7d8569eadac0af4fd6f9f" target="_top" xlink:title=" ">
<polygon fill="white" stroke="#666666" points="1045,-117 887,-117 887,-98 1045,-98 1045,-117"/>
<text text-anchor="middle" x="966" y="-105" font-family="Helvetica,sans-Serif" font-size="10.00">play_sound_before_despawn</text>
</a>
</g>
</g>
<!-- Node16&#45;&gt;Node17 -->
<g id="edge16_Node000016_Node000017" class="edge">
<title>Node16&#45;&gt;Node17</title>
<g id="a_edge16_Node000016_Node000017"><a xlink:title=" ">
<path fill="none" stroke="#63b8ff" d="M811.27,-107.5C830.39,-107.5 853.96,-107.5 876.85,-107.5"/>
<polygon fill="#63b8ff" stroke="#63b8ff" points="876.95,-111 886.95,-107.5 876.95,-104 876.95,-111"/>
</a>
</g>
</g>
<!-- Node18 -->
<g id="Node000018" class="node">
<title>Node18</title>
<g id="a_Node000018"><a xlink:href="external_8c.html#ae72057869772019e4464c87d4e16c682" target="_top" xlink:title=" ">
<polygon fill="white" stroke="#666666" points="1176,-117 1084,-117 1084,-98 1176,-98 1176,-117"/>
<text text-anchor="middle" x="1130" y="-105" font-family="Helvetica,sans-Serif" font-size="10.00">func_800C99E0</text>
</a>
</g>
</g>
<!-- Node17&#45;&gt;Node18 -->
<g id="edge17_Node000017_Node000018" class="edge">
<title>Node17&#45;&gt;Node18</title>
<g id="a_edge17_Node000017_Node000018"><a xlink:title=" ">
<path fill="none" stroke="#63b8ff" d="M1045.15,-107.5C1054.79,-107.5 1064.49,-107.5 1073.69,-107.5"/>
<polygon fill="#63b8ff" stroke="#63b8ff" points="1073.84,-111 1083.84,-107.5 1073.84,-104 1073.84,-111"/>
</a>
</g>
</g>
<!-- Node19 -->
<g id="Node000019" class="node">
<title>Node19</title>
<g id="a_Node000019"><a xlink:href="external_8c.html#aeb87c527482a244173df36a1f3d4f446" target="_top" xlink:title=" ">
<polygon fill="white" stroke="#666666" points="1304,-136 1212,-136 1212,-117 1304,-117 1304,-136"/>
<text text-anchor="middle" x="1258" y="-124" font-family="Helvetica,sans-Serif" font-size="10.00">func_800C21E8</text>
</a>
</g>
</g>
<!-- Node18&#45;&gt;Node19 -->
<g id="edge18_Node000018_Node000019" class="edge">
<title>Node18&#45;&gt;Node19</title>
<g id="a_edge18_Node000018_Node000019"><a xlink:title=" ">
<path fill="none" stroke="#63b8ff" d="M1176.13,-114.31C1184.46,-115.56 1193.23,-116.88 1201.81,-118.18"/>
<polygon fill="#63b8ff" stroke="#63b8ff" points="1201.35,-121.65 1211.76,-119.68 1202.39,-114.73 1201.35,-121.65"/>
</a>
</g>
</g>
<!-- Node20 -->
<g id="Node000020" class="node">
<title>Node20</title>
<g id="a_Node000020"><a xlink:href="external_8c.html#a028d40421b90c38f68ebfd5acc626f2e" target="_top" xlink:title=" ">
<polygon fill="white" stroke="#666666" points="1304,-99 1212,-99 1212,-80 1304,-80 1304,-99"/>
<text text-anchor="middle" x="1258" y="-87" font-family="Helvetica,sans-Serif" font-size="10.00">func_800C5578</text>
</a>
</g>
</g>
<!-- Node18&#45;&gt;Node20 -->
<g id="edge19_Node000018_Node000020" class="edge">
<title>Node18&#45;&gt;Node20</title>
<g id="a_edge19_Node000018_Node000020"><a xlink:title=" ">
<path fill="none" stroke="#63b8ff" d="M1176.13,-101.05C1184.46,-99.86 1193.23,-98.61 1201.81,-97.38"/>
<polygon fill="#63b8ff" stroke="#63b8ff" points="1202.35,-100.84 1211.76,-95.96 1201.36,-93.91 1202.35,-100.84"/>
</a>
</g>
</g>
<!-- Node21 -->
<g id="Node000021" class="node">
<title>Node21</title>
<g id="a_Node000021"><a xlink:href="external_8c.html#ac0fb767de7e14a03f1bcfa53f0abd23b" target="_top" xlink:title=" ">
<polygon fill="white" stroke="#666666" points="1480,-136 1340,-136 1340,-117 1480,-117 1480,-136"/>
<text text-anchor="middle" x="1410" y="-124" font-family="Helvetica,sans-Serif" font-size="10.00">delete_sound_from_bank</text>
</a>
</g>
</g>
<!-- Node20&#45;&gt;Node21 -->
<g id="edge20_Node000020_Node000021" class="edge">
<title>Node20&#45;&gt;Node21</title>
<g id="a_edge20_Node000020_Node000021"><a xlink:title=" ">
<path fill="none" stroke="#63b8ff" d="M1297.63,-99.03C1316.8,-103.76 1340.16,-109.52 1360.52,-114.54"/>
<polygon fill="#63b8ff" stroke="#63b8ff" points="1359.69,-117.94 1370.24,-116.94 1361.37,-111.15 1359.69,-117.94"/>
</a>
</g>
</g>
<!-- Node23 -->
<g id="Node000023" class="node">
<title>Node23</title>
<g id="a_Node000023"><a xlink:href="external_8c.html#ab83bd36e63f0f1baddcb2482b5ad31b0" target="_top" xlink:title=" ">
<polygon fill="white" stroke="#666666" points="1456.5,-99 1363.5,-99 1363.5,-80 1456.5,-80 1456.5,-99"/>
<text text-anchor="middle" x="1410" y="-87" font-family="Helvetica,sans-Serif" font-size="10.00">func_800C41CC</text>
</a>
</g>
</g>
<!-- Node20&#45;&gt;Node23 -->
<g id="edge22_Node000020_Node000023" class="edge">
<title>Node20&#45;&gt;Node23</title>
<g id="a_edge22_Node000020_Node000023"><a xlink:title=" ">
<path fill="none" stroke="#63b8ff" d="M1304,-89.5C1319.37,-89.5 1336.74,-89.5 1352.86,-89.5"/>
<polygon fill="#63b8ff" stroke="#63b8ff" points="1353.25,-93 1363.25,-89.5 1353.25,-86 1353.25,-93"/>
</a>
</g>
</g>
<!-- Node24 -->
<g id="Node000024" class="node">
<title>Node24</title>
<g id="a_Node000024"><a xlink:href="port__eu_8c.html#aa89dfaecca46c6d071f08c1898d1f7c9" target="_top" xlink:title=" ">
<polygon fill="white" stroke="#666666" points="1456.5,-62 1363.5,-62 1363.5,-43 1456.5,-43 1456.5,-62"/>
<text text-anchor="middle" x="1410" y="-50" font-family="Helvetica,sans-Serif" font-size="10.00">func_800CBBE8</text>
</a>
</g>
</g>
<!-- Node20&#45;&gt;Node24 -->
<g id="edge23_Node000020_Node000024" class="edge">
<title>Node20&#45;&gt;Node24</title>
<g id="a_edge23_Node000020_Node000024"><a xlink:title=" ">
<path fill="none" stroke="#63b8ff" d="M1297.63,-79.97C1316.8,-75.24 1340.16,-69.48 1360.52,-64.46"/>
<polygon fill="#63b8ff" stroke="#63b8ff" points="1361.37,-67.85 1370.24,-62.06 1359.69,-61.06 1361.37,-67.85"/>
</a>
</g>
</g>
<!-- Node22 -->
<g id="Node000022" class="node">
<title>Node22</title>
<g id="a_Node000022"><a xlink:href="external_8c.html#a358ac55e8ab5262dcae8037334be06d7" target="_top" xlink:title=" ">
<polygon fill="white" stroke="#666666" points="1608.5,-136 1516.5,-136 1516.5,-117 1608.5,-117 1608.5,-136"/>
<text text-anchor="middle" x="1562.5" y="-124" font-family="Helvetica,sans-Serif" font-size="10.00">func_800C40F0</text>
</a>
</g>
</g>
<!-- Node21&#45;&gt;Node22 -->
<g id="edge21_Node000021_Node000022" class="edge">
<title>Node21&#45;&gt;Node22</title>
<g id="a_edge21_Node000021_Node000022"><a xlink:title=" ">
<path fill="none" stroke="#63b8ff" d="M1480.08,-126.5C1488.87,-126.5 1497.78,-126.5 1506.31,-126.5"/>
<polygon fill="#63b8ff" stroke="#63b8ff" points="1506.5,-130 1516.5,-126.5 1506.5,-123 1506.5,-130"/>
</a>
</g>
</g>
<!-- Node25 -->
<g id="Node000025" class="node">
<title>Node25</title>
<g id="a_Node000025"><a xlink:href="port__eu_8c.html#af361a20d2e08f30c53a237ca481ff734" target="_top" xlink:title=" ">
<polygon fill="white" stroke="#666666" points="1609,-62 1516,-62 1516,-43 1609,-43 1609,-62"/>
<text text-anchor="middle" x="1562.5" y="-50" font-family="Helvetica,sans-Serif" font-size="10.00">func_800CBB48</text>
</a>
</g>
</g>
<!-- Node24&#45;&gt;Node25 -->
<g id="edge24_Node000024_Node000025" class="edge">
<title>Node24&#45;&gt;Node25</title>
<g id="a_edge24_Node000024_Node000025"><a xlink:title=" ">
<path fill="none" stroke="#63b8ff" d="M1456.56,-52.5C1471.96,-52.5 1489.34,-52.5 1505.46,-52.5"/>
<polygon fill="#63b8ff" stroke="#63b8ff" points="1505.83,-56 1515.83,-52.5 1505.83,-49 1505.83,-56"/>
</a>
</g>
</g>
<!-- Node27 -->
<g id="Node000027" class="node">
<title>Node27</title>
<g id="a_Node000027"><a xlink:href="math__util_8c.html#a79fd07a0971ec96a3ff0801963a2fa7f" target="_top" xlink:title=" ">
<polygon fill="white" stroke="#666666" points="801.5,-31 737.5,-31 737.5,-12 801.5,-12 801.5,-31"/>
<text text-anchor="middle" x="769.5" y="-19" font-family="Helvetica,sans-Serif" font-size="10.00">vec3f_set</text>
</a>
</g>
</g>
<!-- Node26&#45;&gt;Node27 -->
<g id="edge26_Node000026_Node000027" class="edge">
<title>Node26&#45;&gt;Node27</title>
<g id="a_edge26_Node000026_Node000027"><a xlink:title=" ">
<path fill="none" stroke="#63b8ff" d="M628.9,-73.95C637.72,-71.37 646.8,-68.23 655,-64.5 672.5,-56.53 673.4,-48.24 691,-40.5 702.39,-35.49 715.34,-31.66 727.34,-28.79"/>
<polygon fill="#63b8ff" stroke="#63b8ff" points="728.14,-32.2 737.14,-26.61 726.62,-25.37 728.14,-32.2"/>
</a>
</g>
</g>
<!-- Node30&#45;&gt;Node14 -->
<g id="edge36_Node000030_Node000014" class="edge">
<title>Node30&#45;&gt;Node14</title>
<g id="a_edge36_Node000030_Node000014"><a xlink:title=" ">
<path fill="none" stroke="#63b8ff" d="M462.76,-395.37C546.53,-391.56 710.47,-381.76 848,-359.5 873.93,-355.3 902.61,-348.47 925.09,-342.61"/>
<polygon fill="#63b8ff" stroke="#63b8ff" points="926.18,-345.94 934.95,-340 924.38,-339.18 926.18,-345.94"/>
</a>
</g>
</g>
<!-- Node31 -->
<g id="Node000031" class="node">
<title>Node31</title>
<g id="a_Node000031"><a xlink:href="classWorld.html#a0f40d5f6f8bd3c76ad1e1ca4ccc4b74f" target="_top" xlink:title=" ">
<polygon fill="white" stroke="#666666" points="647,-455 522,-455 522,-436 647,-436 647,-455"/>
<text text-anchor="middle" x="584.5" y="-443" font-family="Helvetica,sans-Serif" font-size="10.00">World::ActorBeginPlay</text>
</a>
</g>
</g>
<!-- Node30&#45;&gt;Node31 -->
<g id="edge30_Node000030_Node000031" class="edge">
<title>Node30&#45;&gt;Node31</title>
<g id="a_edge30_Node000030_Node000031"><a xlink:title=" ">
<path fill="none" stroke="#63b8ff" d="M443.01,-407.03C454.21,-410.05 466.62,-413.4 478,-416.5 498.04,-421.96 520.21,-428.04 539.03,-433.22"/>
<polygon fill="#63b8ff" stroke="#63b8ff" points="538.25,-436.64 548.83,-435.92 540.11,-429.89 538.25,-436.64"/>
</a>
</g>
</g>
<!-- Node32 -->
<g id="Node000032" class="node">
<title>Node32</title>
<g id="a_Node000032"><a xlink:href="classAActor.html#aa18a335c99d43d74ac46328df5c4918b" target="_top" xlink:title=" ">
<polygon fill="white" stroke="#666666" points="821.5,-492 717.5,-492 717.5,-473 821.5,-473 821.5,-492"/>
<text text-anchor="middle" x="769.5" y="-480" font-family="Helvetica,sans-Serif" font-size="10.00">AActor::BeginPlay</text>
</a>
</g>
</g>
<!-- Node31&#45;&gt;Node32 -->
<g id="edge31_Node000031_Node000032" class="edge">
<title>Node31&#45;&gt;Node32</title>
<g id="a_edge31_Node000031_Node000032"><a xlink:title=" ">
<path fill="none" stroke="#63b8ff" d="M632.63,-455.03C656.65,-459.89 686.07,-465.83 711.38,-470.95"/>
<polygon fill="#63b8ff" stroke="#63b8ff" points="710.72,-474.39 721.21,-472.94 712.11,-467.53 710.72,-474.39"/>
</a>
</g>
</g>
<!-- Node35 -->
<g id="Node000035" class="node">
<title>Node35</title>
<g id="a_Node000035"><a xlink:href="classWorld.html#a944244b32a2219826939859c6138f6ab" target="_top" xlink:title=" ">
<polygon fill="white" stroke="#666666" points="848,-455 691,-455 691,-436 848,-436 848,-455"/>
<text text-anchor="middle" x="769.5" y="-443" font-family="Helvetica,sans-Serif" font-size="10.00">World::ConvertActorToAActor</text>
</a>
</g>
</g>
<!-- Node31&#45;&gt;Node35 -->
<g id="edge35_Node000031_Node000035" class="edge">
<title>Node31&#45;&gt;Node35</title>
<g id="a_edge35_Node000031_Node000035"><a xlink:title=" ">
<path fill="none" stroke="#63b8ff" d="M647.2,-445.5C657.93,-445.5 669.26,-445.5 680.53,-445.5"/>
<polygon fill="#63b8ff" stroke="#63b8ff" points="680.84,-449 690.84,-445.5 680.84,-442 680.84,-449"/>
</a>
</g>
</g>
<!-- Node33 -->
<g id="Node000033" class="node">
<title>Node33</title>
<g id="a_Node000033"><a xlink:href="Editor_8cpp.html#ad9cda86dc3eb2b6511a8c9a951945014" target="_top" xlink:title=" ">
<polygon fill="white" stroke="#666666" points="1015,-519 917,-519 917,-500 1015,-500 1015,-519"/>
<text text-anchor="middle" x="966" y="-507" font-family="Helvetica,sans-Serif" font-size="10.00">Editor_IsEnabled</text>
</a>
</g>
</g>
<!-- Node32&#45;&gt;Node33 -->
<g id="edge32_Node000032_Node000033" class="edge">
<title>Node32&#45;&gt;Node33</title>
<g id="a_edge32_Node000032_Node000033"><a xlink:title=" ">
<path fill="none" stroke="#63b8ff" d="M821.6,-489.59C847.75,-493.22 879.69,-497.66 906.79,-501.42"/>
<polygon fill="#63b8ff" stroke="#63b8ff" points="906.53,-504.92 916.91,-502.82 907.49,-497.98 906.53,-504.92"/>
</a>
</g>
</g>
<!-- Node34 -->
<g id="Node000034" class="node">
<title>Node34</title>
<g id="a_Node000034"><a xlink:href="namespaceEditor.html#a4a3d2d2707031137e00979b658f71cf2" target="_top" xlink:title=" ">
<polygon fill="white" stroke="#666666" points="1048,-464 884,-464 884,-445 1048,-445 1048,-464"/>
<text text-anchor="middle" x="966" y="-452" font-family="Helvetica,sans-Serif" font-size="10.00">Editor::GenerateCollisionMesh</text>
</a>
</g>
</g>
<!-- Node32&#45;&gt;Node34 -->
<g id="edge33_Node000032_Node000034" class="edge">
<title>Node32&#45;&gt;Node34</title>
<g id="a_edge33_Node000032_Node000034"><a xlink:title=" ">
<path fill="none" stroke="#63b8ff" d="M821.6,-475.14C842.19,-472.18 866.37,-468.7 888.95,-465.45"/>
<polygon fill="#63b8ff" stroke="#63b8ff" points="889.46,-468.91 898.85,-464.02 888.46,-461.98 889.46,-468.91"/>
</a>
</g>
</g>
<!-- Node34&#45;&gt;Node34 -->
<g id="edge34_Node000034_Node000034" class="edge">
<title>Node34&#45;&gt;Node34</title>
<g id="a_edge34_Node000034_Node000034"><a xlink:title=" ">
<path fill="none" stroke="#63b8ff" d="M940.72,-464.08C928.43,-472.73 936.85,-482 966,-482 985.13,-482 995.33,-478.01 996.61,-472.82"/>
<polygon fill="#63b8ff" stroke="#63b8ff" points="999.48,-470.79 991.28,-464.08 993.5,-474.44 999.48,-470.79"/>
</a>
</g>
</g>
<!-- Node36&#45;&gt;Node14 -->
<g id="edge39_Node000036_Node000014" class="edge">
<title>Node36&#45;&gt;Node14</title>
<g id="a_edge39_Node000036_Node000014"><a xlink:title=" ">
<path fill="none" stroke="#63b8ff" d="M459.72,-346.8C476.98,-348.31 496.3,-349.75 514,-350.5 665.74,-356.9 846.2,-342.72 924.94,-335.45"/>
<polygon fill="#63b8ff" stroke="#63b8ff" points="925.29,-338.94 934.92,-334.52 924.63,-331.97 925.29,-338.94"/>
</a>
</g>
</g>
<!-- Node37 -->
<g id="Node000037" class="node">
<title>Node37</title>
<g id="a_Node000037"><a xlink:href="classWorld.html#a215117703aa8944483793767a0fb80ed" target="_top" xlink:title=" ">
<polygon fill="white" stroke="#666666" points="644,-341 525,-341 525,-322 644,-322 644,-341"/>
<text text-anchor="middle" x="584.5" y="-329" font-family="Helvetica,sans-Serif" font-size="10.00">World::AddBaseActor</text>
</a>
</g>
</g>
<!-- Node36&#45;&gt;Node37 -->
<g id="edge38_Node000036_Node000037" class="edge">
<title>Node36&#45;&gt;Node37</title>
<g id="a_edge38_Node000036_Node000037"><a xlink:title=" ">
<path fill="none" stroke="#63b8ff" d="M459.83,-338.53C477.1,-337.55 496.58,-336.44 514.88,-335.4"/>
<polygon fill="#63b8ff" stroke="#63b8ff" points="515.11,-338.89 524.9,-334.83 514.72,-331.9 515.11,-338.89"/>
</a>
</g>
</g>
<!-- Node38&#45;&gt;Node14 -->
<g id="edge41_Node000038_Node000014" class="edge">
<title>Node38&#45;&gt;Node14</title>
<g id="a_edge41_Node000038_Node000014"><a xlink:title=" ">
<path fill="none" stroke="#63b8ff" d="M457.47,-301.46C566.67,-307.92 824.83,-323.2 924.63,-329.11"/>
<polygon fill="#63b8ff" stroke="#63b8ff" points="924.71,-332.62 934.9,-329.72 925.12,-325.63 924.71,-332.62"/>
</a>
</g>
</g>
</g>
</svg>
