<?xml version="1.0" encoding="UTF-8" standalone="no"?>
<!DOCTYPE svg PUBLIC "-//W3C//DTD SVG 1.1//EN"
 "http://www.w3.org/Graphics/SVG/1.1/DTD/svg11.dtd">
<!-- Generated by graphviz version 2.43.0 (0)
 -->
<!-- Title: src/animation.c Pages: 1 -->
<svg width="1199pt" height="313pt"
 viewBox="0.00 0.00 1199.05 313.00" xmlns="http://www.w3.org/2000/svg" xmlns:xlink="http://www.w3.org/1999/xlink">
<g id="graph0" class="graph" transform="scale(1 1) rotate(0) translate(4 309)">
<title>src/animation.c</title>
<!-- Node1 -->
<g id="Node000001" class="node">
<title>Node1</title>
<g id="a_Node000001"><a xlink:title=" ">
<polygon fill="#999999" stroke="#666666" points="668.05,-305 576.05,-305 576.05,-286 668.05,-286 668.05,-305"/>
<text text-anchor="middle" x="622.05" y="-293" font-family="Helvetica,sans-Serif" font-size="10.00">src/animation.c</text>
</a>
</g>
</g>
<!-- Node2 -->
<g id="Node000002" class="node">
<title>Node2</title>
<g id="a_Node000002"><a xlink:title=" ">
<polygon fill="#e0e0e0" stroke="#999999" points="799.05,-19 719.05,-19 719.05,0 799.05,0 799.05,-19"/>
<text text-anchor="middle" x="759.05" y="-7" font-family="Helvetica,sans-Serif" font-size="10.00">libultraship.h</text>
</a>
</g>
</g>
<!-- Node1&#45;&gt;Node2 -->
<g id="edge1_Node000001_Node000002" class="edge">
<title>Node1&#45;&gt;Node2</title>
<g id="a_edge1_Node000001_Node000002"><a xlink:title=" ">
<path fill="none" stroke="#63b8ff" d="M668.13,-290.62C803.59,-278.61 1191.05,-239.6 1191.05,-186.5 1191.05,-186.5 1191.05,-186.5 1191.05,-124 1191.05,-82.47 1164.97,-74.01 1128.05,-55 1073.61,-26.97 897.09,-16.04 809.42,-12.27"/>
<polygon fill="#63b8ff" stroke="#63b8ff" points="809.31,-8.76 799.18,-11.84 809.02,-15.75 809.31,-8.76"/>
</a>
</g>
</g>
<!-- Node3 -->
<g id="Node000003" class="node">
<title>Node3</title>
<g id="a_Node000003"><a xlink:href="macros_8h.html" target="_top" xlink:title=" ">
<polygon fill="white" stroke="#666666" points="735.05,-250 673.05,-250 673.05,-231 735.05,-231 735.05,-250"/>
<text text-anchor="middle" x="704.05" y="-238" font-family="Helvetica,sans-Serif" font-size="10.00">macros.h</text>
</a>
</g>
</g>
<!-- Node1&#45;&gt;Node3 -->
<g id="edge2_Node000001_Node000003" class="edge">
<title>Node1&#45;&gt;Node3</title>
<g id="a_edge2_Node000001_Node000003"><a xlink:title=" ">
<path fill="none" stroke="#63b8ff" d="M635.23,-285.98C647.82,-277.84 667.06,-265.41 681.99,-255.76"/>
<polygon fill="#63b8ff" stroke="#63b8ff" points="684.14,-258.54 690.64,-250.17 680.34,-252.66 684.14,-258.54"/>
</a>
</g>
</g>
<!-- Node5 -->
<g id="Node000005" class="node">
<title>Node5</title>
<g id="a_Node000005"><a xlink:href="mk64_8h.html" target="_top" xlink:title=" ">
<polygon fill="white" stroke="#666666" points="156.55,-195 103.55,-195 103.55,-176 156.55,-176 156.55,-195"/>
<text text-anchor="middle" x="130.05" y="-183" font-family="Helvetica,sans-Serif" font-size="10.00">mk64.h</text>
</a>
</g>
</g>
<!-- Node1&#45;&gt;Node5 -->
<g id="edge5_Node000001_Node000005" class="edge">
<title>Node1&#45;&gt;Node5</title>
<g id="a_edge5_Node000001_Node000005"><a xlink:title=" ">
<path fill="none" stroke="#63b8ff" d="M576,-292.7C483.04,-288.54 276.29,-276.54 211.05,-250 185.08,-239.43 160.51,-217.96 145.38,-202.92"/>
<polygon fill="#63b8ff" stroke="#63b8ff" points="147.49,-200.06 138,-195.34 142.47,-204.94 147.49,-200.06"/>
</a>
</g>
</g>
<!-- Node8 -->
<g id="Node000008" class="node">
<title>Node8</title>
<g id="a_Node000008"><a xlink:title=" ">
<polygon fill="#e0e0e0" stroke="#999999" points="169.05,-134.5 91.05,-134.5 91.05,-115.5 169.05,-115.5 169.05,-134.5"/>
<text text-anchor="middle" x="130.05" y="-122.5" font-family="Helvetica,sans-Serif" font-size="10.00">libultra/gbi.h</text>
</a>
</g>
</g>
<!-- Node1&#45;&gt;Node8 -->
<g id="edge29_Node000001_Node000008" class="edge">
<title>Node1&#45;&gt;Node8</title>
<g id="a_edge29_Node000001_Node000008"><a xlink:title=" ">
<path fill="none" stroke="#63b8ff" d="M575.93,-290.07C525.95,-284.37 444.31,-272.41 377.05,-250 325.2,-232.72 315.91,-219.52 267.05,-195 228.3,-175.55 183.43,-152.94 155.9,-139.04"/>
<polygon fill="#63b8ff" stroke="#63b8ff" points="157.42,-135.89 146.92,-134.51 154.27,-142.14 157.42,-135.89"/>
</a>
</g>
</g>
<!-- Node9 -->
<g id="Node000009" class="node">
<title>Node9</title>
<g id="a_Node000009"><a xlink:href="math__util_8h.html" target="_top" xlink:title=" ">
<polygon fill="white" stroke="#666666" points="511.05,-134.5 439.05,-134.5 439.05,-115.5 511.05,-115.5 511.05,-134.5"/>
<text text-anchor="middle" x="475.05" y="-122.5" font-family="Helvetica,sans-Serif" font-size="10.00">math_util.h</text>
</a>
</g>
</g>
<!-- Node1&#45;&gt;Node9 -->
<g id="edge10_Node000001_Node000009" class="edge">
<title>Node1&#45;&gt;Node9</title>
<g id="a_edge10_Node000001_Node000009"><a xlink:title=" ">
<path fill="none" stroke="#63b8ff" d="M610.7,-285.92C599.75,-277.39 582.96,-263.63 570.05,-250 536.48,-214.56 503.15,-167.65 486.32,-142.93"/>
<polygon fill="#63b8ff" stroke="#63b8ff" points="489.21,-140.94 480.71,-134.6 483.4,-144.85 489.21,-140.94"/>
</a>
</g>
</g>
<!-- Node11 -->
<g id="Node000011" class="node">
<title>Node11</title>
<g id="a_Node000011"><a xlink:href="animation_8h.html" target="_top" xlink:title=" ">
<polygon fill="white" stroke="#666666" points="604.55,-134.5 529.55,-134.5 529.55,-115.5 604.55,-115.5 604.55,-134.5"/>
<text text-anchor="middle" x="567.05" y="-122.5" font-family="Helvetica,sans-Serif" font-size="10.00">animation.h</text>
</a>
</g>
</g>
<!-- Node1&#45;&gt;Node11 -->
<g id="edge14_Node000001_Node000011" class="edge">
<title>Node1&#45;&gt;Node11</title>
<g id="a_edge14_Node000001_Node000011"><a xlink:title=" ">
<path fill="none" stroke="#63b8ff" d="M610.91,-285.94C601.25,-277.83 587.77,-264.72 581.05,-250 565.28,-215.47 564.54,-170.1 565.64,-144.92"/>
<polygon fill="#63b8ff" stroke="#63b8ff" points="569.16,-144.79 566.25,-134.6 562.17,-144.38 569.16,-144.79"/>
</a>
</g>
</g>
<!-- Node12 -->
<g id="Node000012" class="node">
<title>Node12</title>
<g id="a_Node000012"><a xlink:href="memory_8h.html" target="_top" xlink:title=" ">
<polygon fill="white" stroke="#666666" points="654.55,-250 589.55,-250 589.55,-231 654.55,-231 654.55,-250"/>
<text text-anchor="middle" x="622.05" y="-238" font-family="Helvetica,sans-Serif" font-size="10.00">memory.h</text>
</a>
</g>
</g>
<!-- Node1&#45;&gt;Node12 -->
<g id="edge16_Node000001_Node000012" class="edge">
<title>Node1&#45;&gt;Node12</title>
<g id="a_edge16_Node000001_Node000012"><a xlink:title=" ">
<path fill="none" stroke="#63b8ff" d="M622.05,-285.75C622.05,-278.8 622.05,-268.85 622.05,-260.13"/>
<polygon fill="#63b8ff" stroke="#63b8ff" points="625.55,-260.09 622.05,-250.09 618.55,-260.09 625.55,-260.09"/>
</a>
</g>
</g>
<!-- Node16 -->
<g id="Node000016" class="node">
<title>Node16</title>
<g id="a_Node000016"><a xlink:href="main_8h.html" target="_top" xlink:title=" ">
<polygon fill="white" stroke="#666666" points="436.05,-250 386.05,-250 386.05,-231 436.05,-231 436.05,-250"/>
<text text-anchor="middle" x="411.05" y="-238" font-family="Helvetica,sans-Serif" font-size="10.00">main.h</text>
</a>
</g>
</g>
<!-- Node1&#45;&gt;Node16 -->
<g id="edge26_Node000001_Node000016" class="edge">
<title>Node1&#45;&gt;Node16</title>
<g id="a_edge26_Node000001_Node000016"><a xlink:title=" ">
<path fill="none" stroke="#63b8ff" d="M588.15,-285.98C549.14,-276.19 485.41,-260.18 445.98,-250.27"/>
<polygon fill="#63b8ff" stroke="#63b8ff" points="446.81,-246.87 436.26,-247.83 445.11,-253.66 446.81,-246.87"/>
</a>
</g>
</g>
<!-- Node17 -->
<g id="Node000017" class="node">
<title>Node17</title>
<g id="a_Node000017"><a xlink:href="code__80057C60_8h.html" target="_top" xlink:title=" ">
<polygon fill="white" stroke="#666666" points="879.55,-250 776.55,-250 776.55,-231 879.55,-231 879.55,-250"/>
<text text-anchor="middle" x="828.05" y="-238" font-family="Helvetica,sans-Serif" font-size="10.00">code_80057C60.h</text>
</a>
</g>
</g>
<!-- Node1&#45;&gt;Node17 -->
<g id="edge30_Node000001_Node000017" class="edge">
<title>Node1&#45;&gt;Node17</title>
<g id="a_edge30_Node000001_Node000017"><a xlink:title=" ">
<path fill="none" stroke="#63b8ff" d="M655.15,-285.98C690.33,-276.93 746.12,-262.58 784.77,-252.64"/>
<polygon fill="#63b8ff" stroke="#63b8ff" points="785.88,-255.96 794.7,-250.08 784.14,-249.18 785.88,-255.96"/>
</a>
</g>
</g>
<!-- Node21 -->
<g id="Node000021" class="node">
<title>Node21</title>
<g id="a_Node000021"><a xlink:href="Matrix_8h.html" target="_top" xlink:title=" ">
<polygon fill="white" stroke="#666666" points="1162.55,-134.5 1069.55,-134.5 1069.55,-115.5 1162.55,-115.5 1162.55,-134.5"/>
<text text-anchor="middle" x="1116.05" y="-122.5" font-family="Helvetica,sans-Serif" font-size="10.00">engine/Matrix.h</text>
</a>
</g>
</g>
<!-- Node1&#45;&gt;Node21 -->
<g id="edge39_Node000001_Node000021" class="edge">
<title>Node1&#45;&gt;Node21</title>
<g id="a_edge39_Node000001_Node000021"><a xlink:title=" ">
<path fill="none" stroke="#63b8ff" d="M668.13,-293.17C727.06,-290.21 831.49,-280.67 915.05,-250 988.19,-223.16 1063.5,-167.84 1097.46,-141.12"/>
<polygon fill="#63b8ff" stroke="#63b8ff" points="1099.9,-143.64 1105.54,-134.68 1095.54,-138.17 1099.9,-143.64"/>
</a>
</g>
</g>
<!-- Node23 -->
<g id="Node000023" class="node">
<title>Node23</title>
<g id="a_Node000023"><a xlink:href="FrameInterpolation_8h.html" target="_top" xlink:title=" ">
<polygon fill="white" stroke="#666666" points="1051.05,-140 929.05,-140 929.05,-110 1051.05,-110 1051.05,-140"/>
<text text-anchor="start" x="937.05" y="-128" font-family="Helvetica,sans-Serif" font-size="10.00">port/interpolation</text>
<text text-anchor="middle" x="990.05" y="-117" font-family="Helvetica,sans-Serif" font-size="10.00">/FrameInterpolation.h</text>
</a>
</g>
</g>
<!-- Node1&#45;&gt;Node23 -->
<g id="edge44_Node000001_Node000023" class="edge">
<title>Node1&#45;&gt;Node23</title>
<g id="a_edge44_Node000001_Node000023"><a xlink:title=" ">
<path fill="none" stroke="#63b8ff" d="M668.18,-290.75C734.36,-284.72 852.33,-271.33 889.05,-250 930.47,-225.94 961.93,-178.01 978.05,-149.29"/>
<polygon fill="#63b8ff" stroke="#63b8ff" points="981.2,-150.81 982.91,-140.35 975.06,-147.46 981.2,-150.81"/>
</a>
</g>
</g>
<!-- Node3&#45;&gt;Node2 -->
<g id="edge4_Node000003_Node000002" class="edge">
<title>Node3&#45;&gt;Node2</title>
<g id="a_edge4_Node000003_Node000002"><a xlink:title=" ">
<path fill="none" stroke="#63b8ff" d="M697.69,-230.84C691.79,-222.25 683.45,-208.45 680.05,-195 669.48,-153.11 652.87,-128.05 697.05,-55 705.05,-41.77 718.64,-31.36 731.06,-23.94"/>
<polygon fill="#63b8ff" stroke="#63b8ff" points="732.77,-27 739.8,-19.07 729.36,-20.88 732.77,-27"/>
</a>
</g>
</g>
<!-- Node4 -->
<g id="Node000004" class="node">
<title>Node4</title>
<g id="a_Node000004"><a xlink:href="math_8h.html" target="_top" xlink:title=" ">
<polygon fill="white" stroke="#666666" points="739.55,-195 688.55,-195 688.55,-176 739.55,-176 739.55,-195"/>
<text text-anchor="middle" x="714.05" y="-183" font-family="Helvetica,sans-Serif" font-size="10.00">math.h</text>
</a>
</g>
</g>
<!-- Node3&#45;&gt;Node4 -->
<g id="edge3_Node000003_Node000004" class="edge">
<title>Node3&#45;&gt;Node4</title>
<g id="a_edge3_Node000003_Node000004"><a xlink:title=" ">
<path fill="none" stroke="#63b8ff" d="M705.7,-230.75C707.01,-223.8 708.89,-213.85 710.54,-205.13"/>
<polygon fill="#63b8ff" stroke="#63b8ff" points="714.02,-205.56 712.43,-195.09 707.14,-204.27 714.02,-205.56"/>
</a>
</g>
</g>
<!-- Node5&#45;&gt;Node2 -->
<g id="edge6_Node000005_Node000002" class="edge">
<title>Node5&#45;&gt;Node2</title>
<g id="a_edge6_Node000005_Node000002"><a xlink:title=" ">
<path fill="none" stroke="#63b8ff" d="M103.54,-183.07C75.05,-179.94 31.05,-170.19 10.05,-140 -12.91,-106.99 6.98,-76.35 41.05,-55 97.24,-19.79 554.33,-12.38 708.49,-10.87"/>
<polygon fill="#63b8ff" stroke="#63b8ff" points="708.66,-14.37 718.63,-10.77 708.6,-7.37 708.66,-14.37"/>
</a>
</g>
</g>
<!-- Node6 -->
<g id="Node000006" class="node">
<title>Node6</title>
<g id="a_Node000006"><a xlink:href="string_8h.html" target="_top" xlink:title=" ">
<polygon fill="white" stroke="#666666" points="72.55,-134.5 19.55,-134.5 19.55,-115.5 72.55,-115.5 72.55,-134.5"/>
<text text-anchor="middle" x="46.05" y="-122.5" font-family="Helvetica,sans-Serif" font-size="10.00">string.h</text>
</a>
</g>
</g>
<!-- Node5&#45;&gt;Node6 -->
<g id="edge7_Node000005_Node000006" class="edge">
<title>Node5&#45;&gt;Node6</title>
<g id="a_edge7_Node000005_Node000006"><a xlink:title=" ">
<path fill="none" stroke="#63b8ff" d="M117.66,-175.87C104.26,-166.54 82.68,-151.51 66.71,-140.38"/>
<polygon fill="#63b8ff" stroke="#63b8ff" points="68.7,-137.51 58.5,-134.67 64.7,-143.25 68.7,-137.51"/>
</a>
</g>
</g>
<!-- Node5&#45;&gt;Node8 -->
<g id="edge9_Node000005_Node000008" class="edge">
<title>Node5&#45;&gt;Node8</title>
<g id="a_edge9_Node000005_Node000008"><a xlink:title=" ">
<path fill="none" stroke="#63b8ff" d="M130.05,-175.87C130.05,-167.75 130.05,-155.31 130.05,-144.89"/>
<polygon fill="#63b8ff" stroke="#63b8ff" points="133.55,-144.67 130.05,-134.67 126.55,-144.67 133.55,-144.67"/>
</a>
</g>
</g>
<!-- Node7 -->
<g id="Node000007" class="node">
<title>Node7</title>
<g id="a_Node000007"><a xlink:title=" ">
<polygon fill="#e0e0e0" stroke="#999999" points="140.05,-74 50.05,-74 50.05,-55 140.05,-55 140.05,-74"/>
<text text-anchor="middle" x="95.05" y="-62" font-family="Helvetica,sans-Serif" font-size="10.00">libultra/types.h</text>
</a>
</g>
</g>
<!-- Node6&#45;&gt;Node7 -->
<g id="edge8_Node000006_Node000007" class="edge">
<title>Node6&#45;&gt;Node7</title>
<g id="a_edge8_Node000006_Node000007"><a xlink:title=" ">
<path fill="none" stroke="#63b8ff" d="M53.28,-115.37C60.59,-106.64 72.08,-92.93 81.15,-82.09"/>
<polygon fill="#63b8ff" stroke="#63b8ff" points="84.05,-84.08 87.79,-74.17 78.69,-79.59 84.05,-84.08"/>
</a>
</g>
</g>
<!-- Node9&#45;&gt;Node2 -->
<g id="edge11_Node000009_Node000002" class="edge">
<title>Node9&#45;&gt;Node2</title>
<g id="a_edge11_Node000009_Node000002"><a xlink:title=" ">
<path fill="none" stroke="#63b8ff" d="M496.4,-115.47C546.15,-95.59 669.99,-46.09 728.07,-22.88"/>
<polygon fill="#63b8ff" stroke="#63b8ff" points="729.47,-26.09 737.46,-19.13 726.87,-19.59 729.47,-26.09"/>
</a>
</g>
</g>
<!-- Node10 -->
<g id="Node000010" class="node">
<title>Node10</title>
<g id="a_Node000010"><a xlink:href="common__structs_8h.html" target="_top" xlink:title=" ">
<polygon fill="white" stroke="#666666" points="812.55,-74 705.55,-74 705.55,-55 812.55,-55 812.55,-74"/>
<text text-anchor="middle" x="759.05" y="-62" font-family="Helvetica,sans-Serif" font-size="10.00">common_structs.h</text>
</a>
</g>
</g>
<!-- Node9&#45;&gt;Node10 -->
<g id="edge12_Node000009_Node000010" class="edge">
<title>Node9&#45;&gt;Node10</title>
<g id="a_edge12_Node000009_Node000010"><a xlink:title=" ">
<path fill="none" stroke="#63b8ff" d="M501.19,-115.5C507.64,-113.55 514.57,-111.59 521.05,-110 579.56,-95.67 647.15,-83.44 695.31,-75.45"/>
<polygon fill="#63b8ff" stroke="#63b8ff" points="695.99,-78.89 705.28,-73.81 694.85,-71.98 695.99,-78.89"/>
</a>
</g>
</g>
<!-- Node10&#45;&gt;Node2 -->
<g id="edge13_Node000010_Node000002" class="edge">
<title>Node10&#45;&gt;Node2</title>
<g id="a_edge13_Node000010_Node000002"><a xlink:title=" ">
<path fill="none" stroke="#63b8ff" d="M759.05,-54.75C759.05,-47.8 759.05,-37.85 759.05,-29.13"/>
<polygon fill="#63b8ff" stroke="#63b8ff" points="762.55,-29.09 759.05,-19.09 755.55,-29.09 762.55,-29.09"/>
</a>
</g>
</g>
<!-- Node11&#45;&gt;Node10 -->
<g id="edge15_Node000011_Node000010" class="edge">
<title>Node11&#45;&gt;Node10</title>
<g id="a_edge15_Node000011_Node000010"><a xlink:title=" ">
<path fill="none" stroke="#63b8ff" d="M594.97,-115.49C628.24,-105.36 684,-88.37 721.15,-77.05"/>
<polygon fill="#63b8ff" stroke="#63b8ff" points="722.55,-80.28 731.1,-74.02 720.51,-73.58 722.55,-80.28"/>
</a>
</g>
</g>
<!-- Node12&#45;&gt;Node10 -->
<g id="edge17_Node000012_Node000010" class="edge">
<title>Node12&#45;&gt;Node10</title>
<g id="a_edge17_Node000012_Node000010"><a xlink:title=" ">
<path fill="none" stroke="#63b8ff" d="M628.38,-230.89C643.85,-209.93 684.94,-154.68 721.05,-110 728.72,-100.52 737.54,-90.15 744.76,-81.81"/>
<polygon fill="#63b8ff" stroke="#63b8ff" points="747.42,-84.09 751.34,-74.25 742.13,-79.49 747.42,-84.09"/>
</a>
</g>
</g>
<!-- Node13 -->
<g id="Node000013" class="node">
<title>Node13</title>
<g id="a_Node000013"><a xlink:href="course__offsets_8h.html" target="_top" xlink:title=" ">
<polygon fill="white" stroke="#666666" points="372.05,-195 276.05,-195 276.05,-176 372.05,-176 372.05,-195"/>
<text text-anchor="middle" x="324.05" y="-183" font-family="Helvetica,sans-Serif" font-size="10.00">course_offsets.h</text>
</a>
</g>
</g>
<!-- Node12&#45;&gt;Node13 -->
<g id="edge18_Node000012_Node000013" class="edge">
<title>Node12&#45;&gt;Node13</title>
<g id="a_edge18_Node000012_Node000013"><a xlink:title=" ">
<path fill="none" stroke="#63b8ff" d="M589.31,-233.68C539.47,-224.81 443.85,-207.81 382.06,-196.82"/>
<polygon fill="#63b8ff" stroke="#63b8ff" points="382.53,-193.34 372.07,-195.04 381.3,-200.24 382.53,-193.34"/>
</a>
</g>
</g>
<!-- Node13&#45;&gt;Node2 -->
<g id="edge19_Node000013_Node000002" class="edge">
<title>Node13&#45;&gt;Node2</title>
<g id="a_edge19_Node000013_Node000002"><a xlink:title=" ">
<path fill="none" stroke="#63b8ff" d="M331.45,-175.74C345.03,-160.21 375.57,-127.78 408.05,-110 507.08,-55.79 638.36,-28.83 708.98,-17.46"/>
<polygon fill="#63b8ff" stroke="#63b8ff" points="709.61,-20.9 718.94,-15.89 708.52,-13.99 709.61,-20.9"/>
</a>
</g>
</g>
<!-- Node13&#45;&gt;Node7 -->
<g id="edge20_Node000013_Node000007" class="edge">
<title>Node13&#45;&gt;Node7</title>
<g id="a_edge20_Node000013_Node000007"><a xlink:title=" ">
<path fill="none" stroke="#63b8ff" d="M297.79,-175.99C275.31,-168.17 242.48,-155.47 216.05,-140 197.48,-129.13 196.05,-121.8 178.05,-110 160.11,-98.24 138.75,-86.84 122.19,-78.52"/>
<polygon fill="#63b8ff" stroke="#63b8ff" points="123.57,-75.3 113.06,-74 120.47,-81.58 123.57,-75.3"/>
</a>
</g>
</g>
<!-- Node13&#45;&gt;Node8 -->
<g id="edge21_Node000013_Node000008" class="edge">
<title>Node13&#45;&gt;Node8</title>
<g id="a_edge21_Node000013_Node000008"><a xlink:title=" ">
<path fill="none" stroke="#63b8ff" d="M295.84,-175.99C262.08,-165.81 205.41,-148.72 167.87,-137.4"/>
<polygon fill="#63b8ff" stroke="#63b8ff" points="168.88,-134.05 158.3,-134.52 166.86,-140.75 168.88,-134.05"/>
</a>
</g>
</g>
<!-- Node13&#45;&gt;Node11 -->
<g id="edge25_Node000013_Node000011" class="edge">
<title>Node13&#45;&gt;Node11</title>
<g id="a_edge25_Node000013_Node000011"><a xlink:title=" ">
<path fill="none" stroke="#63b8ff" d="M365.16,-176C404.95,-167.57 466.89,-153.94 520.05,-140 523.18,-139.18 526.42,-138.29 529.66,-137.38"/>
<polygon fill="#63b8ff" stroke="#63b8ff" points="530.67,-140.73 539.3,-134.6 528.72,-134.01 530.67,-140.73"/>
</a>
</g>
</g>
<!-- Node14 -->
<g id="Node000014" class="node">
<title>Node14</title>
<g id="a_Node000014"><a xlink:href="other__textures_8h.html" target="_top" xlink:title=" ">
<polygon fill="white" stroke="#666666" points="345.05,-140 225.05,-140 225.05,-110 345.05,-110 345.05,-140"/>
<text text-anchor="start" x="233.05" y="-128" font-family="Helvetica,sans-Serif" font-size="10.00">assets/textures/other</text>
<text text-anchor="middle" x="285.05" y="-117" font-family="Helvetica,sans-Serif" font-size="10.00">_textures.h</text>
</a>
</g>
</g>
<!-- Node13&#45;&gt;Node14 -->
<g id="edge22_Node000013_Node000014" class="edge">
<title>Node13&#45;&gt;Node14</title>
<g id="a_edge22_Node000013_Node000014"><a xlink:title=" ">
<path fill="none" stroke="#63b8ff" d="M318.3,-175.87C313.5,-168.67 306.43,-158.07 300.05,-148.49"/>
<polygon fill="#63b8ff" stroke="#63b8ff" points="302.92,-146.49 294.46,-140.11 297.1,-150.38 302.92,-146.49"/>
</a>
</g>
</g>
<!-- Node14&#45;&gt;Node2 -->
<g id="edge23_Node000014_Node000002" class="edge">
<title>Node14&#45;&gt;Node2</title>
<g id="a_edge23_Node000014_Node000002"><a xlink:title=" ">
<path fill="none" stroke="#63b8ff" d="M255.26,-109.94C229.89,-96.14 200.18,-74.4 218.05,-55 250.89,-19.35 580.3,-12.26 708.44,-10.85"/>
<polygon fill="#63b8ff" stroke="#63b8ff" points="708.79,-14.35 718.76,-10.74 708.72,-7.35 708.79,-14.35"/>
</a>
</g>
</g>
<!-- Node15 -->
<g id="Node000015" class="node">
<title>Node15</title>
<g id="a_Node000015"><a xlink:href="align__asset__macro_8h.html" target="_top" xlink:title=" ">
<polygon fill="white" stroke="#666666" points="344.55,-74 227.55,-74 227.55,-55 344.55,-55 344.55,-74"/>
<text text-anchor="middle" x="286.05" y="-62" font-family="Helvetica,sans-Serif" font-size="10.00">align_asset_macro.h</text>
</a>
</g>
</g>
<!-- Node14&#45;&gt;Node15 -->
<g id="edge24_Node000014_Node000015" class="edge">
<title>Node14&#45;&gt;Node15</title>
<g id="a_edge24_Node000014_Node000015"><a xlink:title=" ">
<path fill="none" stroke="#63b8ff" d="M285.29,-109.84C285.43,-102.21 285.59,-92.7 285.73,-84.45"/>
<polygon fill="#63b8ff" stroke="#63b8ff" points="289.23,-84.32 285.9,-74.27 282.23,-84.2 289.23,-84.32"/>
</a>
</g>
</g>
<!-- Node16&#45;&gt;Node5 -->
<g id="edge27_Node000016_Node000005" class="edge">
<title>Node16&#45;&gt;Node5</title>
<g id="a_edge27_Node000016_Node000005"><a xlink:title=" ">
<path fill="none" stroke="#63b8ff" d="M385.62,-234.7C335.76,-225.3 225.01,-204.41 167.04,-193.48"/>
<polygon fill="#63b8ff" stroke="#63b8ff" points="167.34,-189.97 156.86,-191.56 166.04,-196.85 167.34,-189.97"/>
</a>
</g>
</g>
<!-- Node16&#45;&gt;Node10 -->
<g id="edge28_Node000016_Node000010" class="edge">
<title>Node16&#45;&gt;Node10</title>
<g id="a_edge28_Node000016_Node000010"><a xlink:title=" ">
<path fill="none" stroke="#63b8ff" d="M409.2,-230.72C404.83,-207.33 396.61,-143.07 430.05,-110 466.38,-74.07 610.19,-66.57 695.18,-65.35"/>
<polygon fill="#63b8ff" stroke="#63b8ff" points="695.29,-68.84 705.24,-65.23 695.2,-61.84 695.29,-68.84"/>
</a>
</g>
</g>
<!-- Node17&#45;&gt;Node10 -->
<g id="edge31_Node000017_Node000010" class="edge">
<title>Node17&#45;&gt;Node10</title>
<g id="a_edge31_Node000017_Node000010"><a xlink:title=" ">
<path fill="none" stroke="#63b8ff" d="M829.07,-230.78C830.28,-218.45 831.71,-195.28 828.05,-176 822.17,-145.03 819.11,-136.51 802.05,-110 795.18,-99.32 785.49,-89.01 777.04,-81.01"/>
<polygon fill="#63b8ff" stroke="#63b8ff" points="779.21,-78.26 769.46,-74.11 774.5,-83.43 779.21,-78.26"/>
</a>
</g>
</g>
<!-- Node18 -->
<g id="Node000018" class="node">
<title>Node18</title>
<g id="a_Node000018"><a xlink:href="objects_8h.html" target="_top" xlink:title=" ">
<polygon fill="white" stroke="#666666" points="818.55,-195 757.55,-195 757.55,-176 818.55,-176 818.55,-195"/>
<text text-anchor="middle" x="788.05" y="-183" font-family="Helvetica,sans-Serif" font-size="10.00">objects.h</text>
</a>
</g>
</g>
<!-- Node17&#45;&gt;Node18 -->
<g id="edge32_Node000017_Node000018" class="edge">
<title>Node17&#45;&gt;Node18</title>
<g id="a_edge32_Node000017_Node000018"><a xlink:title=" ">
<path fill="none" stroke="#63b8ff" d="M821.45,-230.75C815.8,-223.26 807.51,-212.28 800.6,-203.13"/>
<polygon fill="#63b8ff" stroke="#63b8ff" points="803.35,-200.96 794.53,-195.09 797.77,-205.18 803.35,-200.96"/>
</a>
</g>
</g>
<!-- Node20 -->
<g id="Node000020" class="node">
<title>Node20</title>
<g id="a_Node000020"><a xlink:href="camera_8h.html" target="_top" xlink:title=" ">
<polygon fill="white" stroke="#666666" points="911.05,-134.5 849.05,-134.5 849.05,-115.5 911.05,-115.5 911.05,-134.5"/>
<text text-anchor="middle" x="880.05" y="-122.5" font-family="Helvetica,sans-Serif" font-size="10.00">camera.h</text>
</a>
</g>
</g>
<!-- Node17&#45;&gt;Node20 -->
<g id="edge36_Node000017_Node000020" class="edge">
<title>Node17&#45;&gt;Node20</title>
<g id="a_edge36_Node000017_Node000020"><a xlink:title=" ">
<path fill="none" stroke="#63b8ff" d="M835.93,-230.94C843.39,-222.41 854.4,-208.66 861.05,-195 868.87,-178.96 873.89,-159.2 876.8,-144.95"/>
<polygon fill="#63b8ff" stroke="#63b8ff" points="880.29,-145.34 878.69,-134.87 873.41,-144.05 880.29,-145.34"/>
</a>
</g>
</g>
<!-- Node18&#45;&gt;Node10 -->
<g id="edge35_Node000018_Node000010" class="edge">
<title>Node18&#45;&gt;Node10</title>
<g id="a_edge35_Node000018_Node000010"><a xlink:title=" ">
<path fill="none" stroke="#63b8ff" d="M768.79,-175.9C754.93,-168.55 737.29,-156.54 729.05,-140 719.49,-120.8 732.25,-97.78 743.96,-82.46"/>
<polygon fill="#63b8ff" stroke="#63b8ff" points="746.92,-84.37 750.55,-74.42 741.51,-79.93 746.92,-84.37"/>
</a>
</g>
</g>
<!-- Node19 -->
<g id="Node000019" class="node">
<title>Node19</title>
<g id="a_Node000019"><a xlink:href="spline_8h.html" target="_top" xlink:title=" ">
<polygon fill="white" stroke="#666666" points="792.55,-134.5 737.55,-134.5 737.55,-115.5 792.55,-115.5 792.55,-134.5"/>
<text text-anchor="middle" x="765.05" y="-122.5" font-family="Helvetica,sans-Serif" font-size="10.00">spline.h</text>
</a>
</g>
</g>
<!-- Node18&#45;&gt;Node19 -->
<g id="edge33_Node000018_Node000019" class="edge">
<title>Node18&#45;&gt;Node19</title>
<g id="a_edge33_Node000018_Node000019"><a xlink:title=" ">
<path fill="none" stroke="#63b8ff" d="M784.66,-175.87C781.4,-167.57 776.37,-154.78 772.22,-144.22"/>
<polygon fill="#63b8ff" stroke="#63b8ff" points="775.38,-142.69 768.46,-134.67 768.86,-145.25 775.38,-142.69"/>
</a>
</g>
</g>
<!-- Node19&#45;&gt;Node10 -->
<g id="edge34_Node000019_Node000010" class="edge">
<title>Node19&#45;&gt;Node10</title>
<g id="a_edge34_Node000019_Node000010"><a xlink:title=" ">
<path fill="none" stroke="#63b8ff" d="M764.17,-115.37C763.33,-107.25 762.06,-94.81 760.99,-84.39"/>
<polygon fill="#63b8ff" stroke="#63b8ff" points="764.44,-83.76 759.94,-74.17 757.48,-84.47 764.44,-83.76"/>
</a>
</g>
</g>
<!-- Node20&#45;&gt;Node2 -->
<g id="edge37_Node000020_Node000002" class="edge">
<title>Node20&#45;&gt;Node2</title>
<g id="a_edge37_Node000020_Node000002"><a xlink:title=" ">
<path fill="none" stroke="#63b8ff" d="M873.9,-115.32C863.94,-101.61 843.25,-74.49 822.05,-55 809.68,-43.62 794.29,-32.7 781.82,-24.53"/>
<polygon fill="#63b8ff" stroke="#63b8ff" points="783.65,-21.54 773.34,-19.09 779.87,-27.44 783.65,-21.54"/>
</a>
</g>
</g>
<!-- Node20&#45;&gt;Node10 -->
<g id="edge38_Node000020_Node000010" class="edge">
<title>Node20&#45;&gt;Node10</title>
<g id="a_edge38_Node000020_Node000010"><a xlink:title=" ">
<path fill="none" stroke="#63b8ff" d="M862.46,-115.49C842.3,-105.75 809.03,-89.66 785.69,-78.38"/>
<polygon fill="#63b8ff" stroke="#63b8ff" points="787.19,-75.22 776.67,-74.02 784.15,-81.52 787.19,-75.22"/>
</a>
</g>
</g>
<!-- Node21&#45;&gt;Node2 -->
<g id="edge40_Node000021_Node000002" class="edge">
<title>Node21&#45;&gt;Node2</title>
<g id="a_edge40_Node000021_Node000002"><a xlink:title=" ">
<path fill="none" stroke="#63b8ff" d="M1089.22,-115.47C1026.03,-95.38 867.78,-45.07 795.77,-22.17"/>
<polygon fill="#63b8ff" stroke="#63b8ff" points="796.79,-18.82 786.2,-19.13 794.67,-25.5 796.79,-18.82"/>
</a>
</g>
</g>
<!-- Node21&#45;&gt;Node10 -->
<g id="edge41_Node000021_Node000010" class="edge">
<title>Node21&#45;&gt;Node10</title>
<g id="a_edge41_Node000021_Node000010"><a xlink:title=" ">
<path fill="none" stroke="#63b8ff" d="M1084.19,-115.46C1076.33,-113.51 1067.92,-111.56 1060.05,-110 978.74,-93.87 884.02,-80.79 822.87,-73.09"/>
<polygon fill="#63b8ff" stroke="#63b8ff" points="822.97,-69.57 812.61,-71.8 822.1,-76.52 822.97,-69.57"/>
</a>
</g>
</g>
<!-- Node22 -->
<g id="Node000022" class="node">
<title>Node22</title>
<g id="a_Node000022"><a xlink:href="CoreMath_8h.html" target="_top" xlink:title=" ">
<polygon fill="white" stroke="#666666" points="1118.55,-74 1045.55,-74 1045.55,-55 1118.55,-55 1118.55,-74"/>
<text text-anchor="middle" x="1082.05" y="-62" font-family="Helvetica,sans-Serif" font-size="10.00">CoreMath.h</text>
</a>
</g>
</g>
<!-- Node21&#45;&gt;Node22 -->
<g id="edge42_Node000021_Node000022" class="edge">
<title>Node21&#45;&gt;Node22</title>
<g id="a_edge42_Node000021_Node000022"><a xlink:title=" ">
<path fill="none" stroke="#63b8ff" d="M1111.04,-115.37C1106.11,-106.9 1098.47,-93.74 1092.26,-83.07"/>
<polygon fill="#63b8ff" stroke="#63b8ff" points="1095.14,-81.05 1087.09,-74.17 1089.09,-84.57 1095.14,-81.05"/>
</a>
</g>
</g>
<!-- Node22&#45;&gt;Node2 -->
<g id="edge43_Node000022_Node000002" class="edge">
<title>Node22&#45;&gt;Node2</title>
<g id="a_edge43_Node000022_Node000002"><a xlink:title=" ">
<path fill="none" stroke="#63b8ff" d="M1045.31,-57.47C987.4,-47.97 874.75,-29.49 809.37,-18.76"/>
<polygon fill="#63b8ff" stroke="#63b8ff" points="809.73,-15.27 799.29,-17.1 808.59,-22.18 809.73,-15.27"/>
</a>
</g>
</g>
<!-- Node23&#45;&gt;Node2 -->
<g id="edge45_Node000023_Node000002" class="edge">
<title>Node23&#45;&gt;Node2</title>
<g id="a_edge45_Node000023_Node000002"><a xlink:title=" ">
<path fill="none" stroke="#63b8ff" d="M961.26,-109.85C916.17,-87.7 829.54,-45.13 785.77,-23.63"/>
<polygon fill="#63b8ff" stroke="#63b8ff" points="787.12,-20.39 776.61,-19.12 784.04,-26.68 787.12,-20.39"/>
</a>
</g>
</g>
<!-- Node23&#45;&gt;Node10 -->
<g id="edge46_Node000023_Node000010" class="edge">
<title>Node23&#45;&gt;Node10</title>
<g id="a_edge46_Node000023_Node000010"><a xlink:title=" ">
<path fill="none" stroke="#63b8ff" d="M934.72,-109.99C894.34,-99.76 840.34,-86.09 802.92,-76.61"/>
<polygon fill="#63b8ff" stroke="#63b8ff" points="803.38,-73.12 792.83,-74.05 801.66,-79.9 803.38,-73.12"/>
</a>
</g>
</g>
</g>
</svg>
