<?xml version="1.0" encoding="UTF-8" standalone="no"?>
<!DOCTYPE svg PUBLIC "-//W3C//DTD SVG 1.1//EN"
 "http://www.w3.org/Graphics/SVG/1.1/DTD/svg11.dtd">
<!-- Generated by graphviz version 2.43.0 (0)
 -->
<!-- Title: src/engine/courses/BansheeBoardwalk.h Pages: 1 -->
<!--zoomable 390 -->

<svg id="main" version="1.1" xmlns="http://www.w3.org/2000/svg" xmlns:xlink="http://www.w3.org/1999/xlink" xml:space="preserve" onload="init(evt)">

<style type="text/css"><![CDATA[
.node, .edge {opacity: 0.7;}
.node.selected, .edge.selected {opacity: 1;}
.edge:hover path { stroke: red; }
.edge:hover polygon { stroke: red; fill: red; }
]]></style>

<defs>
  <circle id="rim" cx="0" cy="0" r="7"/>
  <circle id="rim2" cx="0" cy="0" r="3.5"/>
  <g id="zoomPlus">
    <use xlink:href="#rim" fill="#404040"><set attributeName="fill" to="#808080" begin="zoomplus.mouseover" end="zoomplus.mouseout"/></use>
    <path d="M-4,0h8M0,-4v8" fill="none" stroke="white" stroke-width="1.5" pointer-events="none"/>
  </g>
  <g id="zoomMin">
    <use xlink:href="#rim" fill="#404040"><set attributeName="fill" to="#808080" begin="zoomminus.mouseover" end="zoomminus.mouseout"/></use>
    <path d="M-4,0h8" fill="none" stroke="white" stroke-width="1.5" pointer-events="none"/>
  </g>
  <g id="arrowUp" transform="translate(30 24)">
    <use xlink:href="#rim"/>
    <path pointer-events="none" fill="none" stroke="white" stroke-width="1.5" d="M0,-3.0v7 M-2.5,-0.5L0,-3.0L2.5,-0.5"/>
  </g>
  <g id="arrowRight" transform="rotate(90) translate(36 -43)">
    <use xlink:href="#rim"/>
    <path pointer-events="none" fill="none" stroke="white" stroke-width="1.5" d="M0,-3.0v7 M-2.5,-0.5L0,-3.0L2.5,-0.5"/>
  </g>
  <g id="arrowDown" transform="rotate(180) translate(-30 -48)">
    <use xlink:href="#rim"/>
    <path pointer-events="none" fill="none" stroke="white" stroke-width="1.5" d="M0,-3.0v7 M-2.5,-0.5L0,-3.0L2.5,-0.5"/>
  </g>
  <g id="arrowLeft" transform="rotate(270) translate(-36 17)">
    <use xlink:href="#rim"/>
    <path pointer-events="none" fill="none" stroke="white" stroke-width="1.5" d="M0,-3.0v7 M-2.5,-0.5L0,-3.0L2.5,-0.5"/>
  </g>
  <g id="resetDef">
    <use xlink:href="#rim2" fill="#404040"><set attributeName="fill" to="#808080" begin="reset.mouseover" end="reset.mouseout"/></use>
  </g>
</defs>
<script type="application/ecmascript">
var viewWidth = 1465;
var viewHeight = 390;
var sectionId = 'dynsection-0';
</script>
<script type="application/ecmascript" xlink:href="svg.min.js"/>
<svg id="graph" class="graph">
<g id="viewport">
<title>src/engine/courses/BansheeBoardwalk.h</title>
<!-- Node1 -->
<g id="Node000001" class="node">
<title>Node1</title>
<g id="a_Node000001"><a xlink:title=" ">
<polygon fill="#999999" stroke="#666666" points="1066,-382 944,-382 944,-352 1066,-352 1066,-382"/>
<text text-anchor="start" x="952" y="-370" font-family="Helvetica,sans-Serif" font-size="10.00">src/engine/courses</text>
<text text-anchor="middle" x="1005" y="-359" font-family="Helvetica,sans-Serif" font-size="10.00">/BansheeBoardwalk.h</text>
</a>
</g>
</g>
<!-- Node2 -->
<g id="Node000002" class="node">
<title>Node2</title>
<g id="a_Node000002"><a xlink:title=" ">
<polygon fill="#e0e0e0" stroke="#999999" points="454,-19 374,-19 374,0 454,0 454,-19"/>
<text text-anchor="middle" x="414" y="-7" font-family="Helvetica,sans-Serif" font-size="10.00">libultraship.h</text>
</a>
</g>
</g>
<!-- Node1&#45;&gt;Node2 -->
<g id="edge1_Node000001_Node000002" class="edge">
<title>Node1&#45;&gt;Node2</title>
<g id="a_edge1_Node000001_Node000002"><a xlink:title=" ">
<path fill="none" stroke="#63b8ff" d="M1066.43,-363.37C1190.01,-356.38 1457,-332.09 1457,-252.5 1457,-252.5 1457,-252.5 1457,-129.5 1457,-110.45 1453.04,-93.49 1271,-55 1115.51,-22.12 623.97,-13.14 464.49,-11.06"/>
<polygon fill="#63b8ff" stroke="#63b8ff" points="464.08,-7.55 454.03,-10.92 463.99,-14.55 464.08,-7.55"/>
</a>
</g>
</g>
<!-- Node3 -->
<g id="Node000003" class="node">
<title>Node3</title>
<g id="a_Node000003"><a xlink:href="Course_8h.html" target="_top" xlink:title=" ">
<polygon fill="white" stroke="#666666" points="967.5,-316 908.5,-316 908.5,-297 967.5,-297 967.5,-316"/>
<text text-anchor="middle" x="938" y="-304" font-family="Helvetica,sans-Serif" font-size="10.00">Course.h</text>
</a>
</g>
</g>
<!-- Node1&#45;&gt;Node3 -->
<g id="edge2_Node000001_Node000003" class="edge">
<title>Node1&#45;&gt;Node3</title>
<g id="a_edge2_Node000001_Node000003"><a xlink:title=" ">
<path fill="none" stroke="#63b8ff" d="M988.78,-351.84C978.76,-343.09 965.89,-331.85 955.62,-322.88"/>
<polygon fill="#63b8ff" stroke="#63b8ff" points="957.87,-320.21 948.04,-316.27 953.27,-325.48 957.87,-320.21"/>
</a>
</g>
</g>
<!-- Node6 -->
<g id="Node000006" class="node">
<title>Node6</title>
<g id="a_Node000006"><a xlink:href="camera_8h.html" target="_top" xlink:title=" ">
<polygon fill="white" stroke="#666666" points="647,-206 585,-206 585,-187 647,-187 647,-206"/>
<text text-anchor="middle" x="616" y="-194" font-family="Helvetica,sans-Serif" font-size="10.00">camera.h</text>
</a>
</g>
</g>
<!-- Node1&#45;&gt;Node6 -->
<g id="edge61_Node000001_Node000006" class="edge">
<title>Node1&#45;&gt;Node6</title>
<g id="a_edge61_Node000001_Node000006"><a xlink:title=" ">
<path fill="none" stroke="#63b8ff" d="M943.82,-358.25C845.25,-344.38 658.25,-311.94 618,-261 608.18,-248.57 608.75,-230.1 611.14,-216.28"/>
<polygon fill="#63b8ff" stroke="#63b8ff" points="614.58,-216.92 613.29,-206.4 607.74,-215.43 614.58,-216.92"/>
</a>
</g>
</g>
<!-- Node8 -->
<g id="Node000008" class="node">
<title>Node8</title>
<g id="a_Node000008"><a xlink:href="course__offsets_8h.html" target="_top" xlink:title=" ">
<polygon fill="white" stroke="#666666" points="567,-206 471,-206 471,-187 567,-187 567,-206"/>
<text text-anchor="middle" x="519" y="-194" font-family="Helvetica,sans-Serif" font-size="10.00">course_offsets.h</text>
</a>
</g>
</g>
<!-- Node1&#45;&gt;Node8 -->
<g id="edge60_Node000001_Node000008" class="edge">
<title>Node1&#45;&gt;Node8</title>
<g id="a_edge60_Node000001_Node000008"><a xlink:title=" ">
<path fill="none" stroke="#63b8ff" d="M943.83,-363.31C876.37,-358.85 765.42,-347.06 675,-316 627.76,-299.77 616.12,-292.06 577,-261 559.54,-247.14 542.72,-227.85 531.73,-214.18"/>
<polygon fill="#63b8ff" stroke="#63b8ff" points="534.33,-211.82 525.4,-206.11 528.82,-216.14 534.33,-211.82"/>
</a>
</g>
</g>
<!-- Node14 -->
<g id="Node000014" class="node">
<title>Node14</title>
<g id="a_Node000014"><a xlink:href="src_2data_2some__data_8h.html" target="_top" xlink:title=" ">
<polygon fill="white" stroke="#666666" points="1370,-261 1266,-261 1266,-242 1370,-242 1370,-261"/>
<text text-anchor="middle" x="1318" y="-249" font-family="Helvetica,sans-Serif" font-size="10.00">data/some_data.h</text>
</a>
</g>
</g>
<!-- Node1&#45;&gt;Node14 -->
<g id="edge62_Node000001_Node000014" class="edge">
<title>Node1&#45;&gt;Node14</title>
<g id="a_edge62_Node000001_Node000014"><a xlink:title=" ">
<path fill="none" stroke="#63b8ff" d="M1043.69,-351.97C1105.7,-329.49 1226.25,-285.77 1284.67,-264.59"/>
<polygon fill="#63b8ff" stroke="#63b8ff" points="1285.95,-267.84 1294.16,-261.14 1283.57,-261.26 1285.95,-267.84"/>
</a>
</g>
</g>
<!-- Node16 -->
<g id="Node000016" class="node">
<title>Node16</title>
<g id="a_Node000016"><a xlink:href="objects_8h.html" target="_top" xlink:title=" ">
<polygon fill="white" stroke="#666666" points="1428.5,-206 1367.5,-206 1367.5,-187 1428.5,-187 1428.5,-206"/>
<text text-anchor="middle" x="1398" y="-194" font-family="Helvetica,sans-Serif" font-size="10.00">objects.h</text>
</a>
</g>
</g>
<!-- Node1&#45;&gt;Node16 -->
<g id="edge63_Node000001_Node000016" class="edge">
<title>Node1&#45;&gt;Node16</title>
<g id="a_edge63_Node000001_Node000016"><a xlink:title=" ">
<path fill="none" stroke="#63b8ff" d="M1066.26,-366.07C1148.53,-362.77 1294.17,-344.5 1379,-261 1390.91,-249.28 1395.42,-230.43 1397.09,-216.31"/>
<polygon fill="#63b8ff" stroke="#63b8ff" points="1400.59,-216.47 1397.92,-206.22 1393.62,-215.9 1400.59,-216.47"/>
</a>
</g>
</g>
<!-- Node21 -->
<g id="Node000021" class="node">
<title>Node21</title>
<g id="a_Node000021"><a xlink:href="path__spawn__metadata_8h.html" target="_top" xlink:title=" ">
<polygon fill="white" stroke="#666666" points="1209.5,-261 1072.5,-261 1072.5,-242 1209.5,-242 1209.5,-261"/>
<text text-anchor="middle" x="1141" y="-249" font-family="Helvetica,sans-Serif" font-size="10.00">path_spawn_metadata.h</text>
</a>
</g>
</g>
<!-- Node1&#45;&gt;Node21 -->
<g id="edge64_Node000001_Node000021" class="edge">
<title>Node1&#45;&gt;Node21</title>
<g id="a_edge64_Node000001_Node000021"><a xlink:title=" ">
<path fill="none" stroke="#63b8ff" d="M1021.95,-351.85C1047.65,-330.41 1096.28,-289.82 1122.74,-267.74"/>
<polygon fill="#63b8ff" stroke="#63b8ff" points="1125.06,-270.37 1130.49,-261.27 1120.57,-264.99 1125.06,-270.37"/>
</a>
</g>
</g>
<!-- Node25 -->
<g id="Node000025" class="node">
<title>Node25</title>
<g id="a_Node000025"><a xlink:href="banshee__boardwalk__vertices_8h.html" target="_top" xlink:title=" ">
<polygon fill="white" stroke="#666666" points="315.5,-151 154.5,-151 154.5,-110 315.5,-110 315.5,-151"/>
<text text-anchor="start" x="162.5" y="-139" font-family="Helvetica,sans-Serif" font-size="10.00">assets/models/tracks</text>
<text text-anchor="start" x="162.5" y="-128" font-family="Helvetica,sans-Serif" font-size="10.00">/banshee_boardwalk/banshee</text>
<text text-anchor="middle" x="235" y="-117" font-family="Helvetica,sans-Serif" font-size="10.00">_boardwalk_vertices.h</text>
</a>
</g>
</g>
<!-- Node1&#45;&gt;Node25 -->
<g id="edge48_Node000001_Node000025" class="edge">
<title>Node1&#45;&gt;Node25</title>
<g id="a_edge48_Node000001_Node000025"><a xlink:title=" ">
<path fill="none" stroke="#63b8ff" d="M943.81,-366.08C859.19,-364.58 702.56,-355.98 576,-316 456.71,-278.31 330.89,-198.1 270.9,-156.97"/>
<polygon fill="#63b8ff" stroke="#63b8ff" points="272.76,-154 262.54,-151.2 268.78,-159.76 272.76,-154"/>
</a>
</g>
</g>
<!-- Node26 -->
<g id="Node000026" class="node">
<title>Node26</title>
<g id="a_Node000026"><a xlink:href="banshee__boardwalk__displaylists_8h.html" target="_top" xlink:title=" ">
<polygon fill="white" stroke="#666666" points="494.5,-151 333.5,-151 333.5,-110 494.5,-110 494.5,-151"/>
<text text-anchor="start" x="341.5" y="-139" font-family="Helvetica,sans-Serif" font-size="10.00">assets/models/tracks</text>
<text text-anchor="start" x="341.5" y="-128" font-family="Helvetica,sans-Serif" font-size="10.00">/banshee_boardwalk/banshee</text>
<text text-anchor="middle" x="414" y="-117" font-family="Helvetica,sans-Serif" font-size="10.00">_boardwalk_displaylists.h</text>
</a>
</g>
</g>
<!-- Node1&#45;&gt;Node26 -->
<g id="edge52_Node000001_Node000026" class="edge">
<title>Node1&#45;&gt;Node26</title>
<g id="a_edge52_Node000001_Node000026"><a xlink:title=" ">
<path fill="none" stroke="#63b8ff" d="M943.83,-366.57C866.76,-365.37 731.4,-356.86 624,-316 542.66,-285.06 522.79,-268.28 462,-206 448.74,-192.41 437.11,-174.62 428.62,-159.83"/>
<polygon fill="#63b8ff" stroke="#63b8ff" points="431.67,-158.11 423.75,-151.07 425.55,-161.51 431.67,-158.11"/>
</a>
</g>
</g>
<!-- Node27 -->
<g id="Node000027" class="node">
<title>Node27</title>
<g id="a_Node000027"><a xlink:href="models_2tracks_2banshee__boardwalk_2banshee__boardwalk__data_8h.html" target="_top" xlink:title=" ">
<polygon fill="white" stroke="#666666" points="750.5,-151 589.5,-151 589.5,-110 750.5,-110 750.5,-151"/>
<text text-anchor="start" x="597.5" y="-139" font-family="Helvetica,sans-Serif" font-size="10.00">assets/models/tracks</text>
<text text-anchor="start" x="597.5" y="-128" font-family="Helvetica,sans-Serif" font-size="10.00">/banshee_boardwalk/banshee</text>
<text text-anchor="middle" x="670" y="-117" font-family="Helvetica,sans-Serif" font-size="10.00">_boardwalk_data.h</text>
</a>
</g>
</g>
<!-- Node1&#45;&gt;Node27 -->
<g id="edge56_Node000001_Node000027" class="edge">
<title>Node1&#45;&gt;Node27</title>
<g id="a_edge56_Node000001_Node000027"><a xlink:title=" ">
<path fill="none" stroke="#63b8ff" d="M1008.72,-351.59C1016.48,-317.8 1030.32,-232.87 987,-187 953.78,-151.83 824.85,-159.43 760.95,-150.85"/>
<polygon fill="#63b8ff" stroke="#63b8ff" points="761.33,-147.37 750.91,-149.25 760.24,-154.28 761.33,-147.37"/>
</a>
</g>
</g>
<!-- Node4 -->
<g id="Node000004" class="node">
<title>Node4</title>
<g id="a_Node000004"><a xlink:title=" ">
<polygon fill="#e0e0e0" stroke="#999999" points="860,-261 722,-261 722,-242 860,-242 860,-261"/>
<text text-anchor="middle" x="791" y="-249" font-family="Helvetica,sans-Serif" font-size="10.00">libultraship/libultraship.h</text>
</a>
</g>
</g>
<!-- Node3&#45;&gt;Node4 -->
<g id="edge3_Node000003_Node000004" class="edge">
<title>Node3&#45;&gt;Node4</title>
<g id="a_edge3_Node000003_Node000004"><a xlink:title=" ">
<path fill="none" stroke="#63b8ff" d="M914.38,-296.98C890.1,-288.23 852.05,-274.51 824.63,-264.62"/>
<polygon fill="#63b8ff" stroke="#63b8ff" points="825.64,-261.27 815.05,-261.17 823.27,-267.85 825.64,-261.27"/>
</a>
</g>
</g>
<!-- Node5 -->
<g id="Node000005" class="node">
<title>Node5</title>
<g id="a_Node000005"><a xlink:href="CoreMath_8h.html" target="_top" xlink:title=" ">
<polygon fill="white" stroke="#666666" points="115.5,-206 42.5,-206 42.5,-187 115.5,-187 115.5,-206"/>
<text text-anchor="middle" x="79" y="-194" font-family="Helvetica,sans-Serif" font-size="10.00">CoreMath.h</text>
</a>
</g>
</g>
<!-- Node3&#45;&gt;Node5 -->
<g id="edge4_Node000003_Node000005" class="edge">
<title>Node3&#45;&gt;Node5</title>
<g id="a_edge4_Node000003_Node000005"><a xlink:title=" ">
<path fill="none" stroke="#63b8ff" d="M908.04,-301.85C846.18,-294.3 699.81,-276.4 577,-261 410.83,-240.16 213.56,-214.83 125.48,-203.49"/>
<polygon fill="#63b8ff" stroke="#63b8ff" points="125.91,-200.02 115.54,-202.21 125.01,-206.96 125.91,-200.02"/>
</a>
</g>
</g>
<!-- Node3&#45;&gt;Node6 -->
<g id="edge6_Node000003_Node000006" class="edge">
<title>Node3&#45;&gt;Node6</title>
<g id="a_edge6_Node000003_Node000006"><a xlink:title=" ">
<path fill="none" stroke="#63b8ff" d="M908.41,-305.08C840.38,-303.51 675.57,-296.08 635,-261 622.22,-249.95 617.85,-230.7 616.45,-216.28"/>
<polygon fill="#63b8ff" stroke="#63b8ff" points="619.93,-215.79 615.85,-206.01 612.94,-216.19 619.93,-215.79"/>
</a>
</g>
</g>
<!-- Node7 -->
<g id="Node000007" class="node">
<title>Node7</title>
<g id="a_Node000007"><a xlink:href="common__structs_8h.html" target="_top" xlink:title=" ">
<polygon fill="white" stroke="#666666" points="1261.5,-74 1154.5,-74 1154.5,-55 1261.5,-55 1261.5,-74"/>
<text text-anchor="middle" x="1208" y="-62" font-family="Helvetica,sans-Serif" font-size="10.00">common_structs.h</text>
</a>
</g>
</g>
<!-- Node3&#45;&gt;Node7 -->
<g id="edge47_Node000003_Node000007" class="edge">
<title>Node3&#45;&gt;Node7</title>
<g id="a_edge47_Node000003_Node000007"><a xlink:title=" ">
<path fill="none" stroke="#63b8ff" d="M952.56,-296.9C1006.07,-265.26 1189.01,-156.83 1193,-151 1206.53,-131.22 1209.04,-103.03 1209,-84.5"/>
<polygon fill="#63b8ff" stroke="#63b8ff" points="1212.49,-84.28 1208.72,-74.38 1205.5,-84.47 1212.49,-84.28"/>
</a>
</g>
</g>
<!-- Node3&#45;&gt;Node8 -->
<g id="edge10_Node000003_Node000008" class="edge">
<title>Node3&#45;&gt;Node8</title>
<g id="a_edge10_Node000003_Node000008"><a xlink:title=" ">
<path fill="none" stroke="#63b8ff" d="M908.3,-305.57C850.53,-304.81 719.8,-298.65 618,-261 587.25,-249.63 556.13,-227.54 537.19,-212.65"/>
<polygon fill="#63b8ff" stroke="#63b8ff" points="539.15,-209.73 529.17,-206.19 534.76,-215.19 539.15,-209.73"/>
</a>
</g>
</g>
<!-- Node3&#45;&gt;Node14 -->
<g id="edge19_Node000003_Node000014" class="edge">
<title>Node3&#45;&gt;Node14</title>
<g id="a_edge19_Node000003_Node000014"><a xlink:title=" ">
<path fill="none" stroke="#63b8ff" d="M967.5,-301.39C1029.19,-292.78 1172.95,-272.73 1255.92,-261.16"/>
<polygon fill="#63b8ff" stroke="#63b8ff" points="1256.56,-264.6 1265.98,-259.76 1255.59,-257.67 1256.56,-264.6"/>
</a>
</g>
</g>
<!-- Node17 -->
<g id="Node000017" class="node">
<title>Node17</title>
<g id="a_Node000017"><a xlink:href="defines_8h.html" target="_top" xlink:title=" ">
<polygon fill="white" stroke="#666666" points="939.5,-261 878.5,-261 878.5,-242 939.5,-242 939.5,-261"/>
<text text-anchor="middle" x="909" y="-249" font-family="Helvetica,sans-Serif" font-size="10.00">defines.h</text>
</a>
</g>
</g>
<!-- Node3&#45;&gt;Node17 -->
<g id="edge27_Node000003_Node000017" class="edge">
<title>Node3&#45;&gt;Node17</title>
<g id="a_edge27_Node000003_Node000017"><a xlink:title=" ">
<path fill="none" stroke="#63b8ff" d="M933.21,-296.75C929.24,-289.49 923.47,-278.95 918.57,-269.98"/>
<polygon fill="#63b8ff" stroke="#63b8ff" points="921.57,-268.18 913.7,-261.09 915.43,-271.54 921.57,-268.18"/>
</a>
</g>
</g>
<!-- Node18 -->
<g id="Node000018" class="node">
<title>Node18</title>
<g id="a_Node000018"><a xlink:href="bomb__kart_8h.html" target="_top" xlink:title=" ">
<polygon fill="white" stroke="#666666" points="977.5,-206 900.5,-206 900.5,-187 977.5,-187 977.5,-206"/>
<text text-anchor="middle" x="939" y="-194" font-family="Helvetica,sans-Serif" font-size="10.00">bomb_kart.h</text>
</a>
</g>
</g>
<!-- Node3&#45;&gt;Node18 -->
<g id="edge28_Node000003_Node000018" class="edge">
<title>Node3&#45;&gt;Node18</title>
<g id="a_edge28_Node000003_Node000018"><a xlink:title=" ">
<path fill="none" stroke="#63b8ff" d="M940.83,-296.75C943.55,-287.86 947.46,-273.64 949,-261 950.86,-245.75 947.82,-228.54 944.62,-215.88"/>
<polygon fill="#63b8ff" stroke="#63b8ff" points="947.95,-214.79 941.89,-206.1 941.21,-216.67 947.95,-214.79"/>
</a>
</g>
</g>
<!-- Node3&#45;&gt;Node21 -->
<g id="edge35_Node000003_Node000021" class="edge">
<title>Node3&#45;&gt;Node21</title>
<g id="a_edge35_Node000003_Node000021"><a xlink:title=" ">
<path fill="none" stroke="#63b8ff" d="M967.52,-297.79C1002.01,-288.79 1059.36,-273.81 1098.61,-263.57"/>
<polygon fill="#63b8ff" stroke="#63b8ff" points="1099.63,-266.92 1108.42,-261.01 1097.86,-260.15 1099.63,-266.92"/>
</a>
</g>
</g>
<!-- Node22 -->
<g id="Node000022" class="node">
<title>Node22</title>
<g id="a_Node000022"><a xlink:href="waypoints_8h.html" target="_top" xlink:title=" ">
<polygon fill="white" stroke="#666666" points="1235,-206 1159,-206 1159,-187 1235,-187 1235,-206"/>
<text text-anchor="middle" x="1197" y="-194" font-family="Helvetica,sans-Serif" font-size="10.00">waypoints.h</text>
</a>
</g>
</g>
<!-- Node3&#45;&gt;Node22 -->
<g id="edge45_Node000003_Node000022" class="edge">
<title>Node3&#45;&gt;Node22</title>
<g id="a_edge45_Node000003_Node000022"><a xlink:title=" ">
<path fill="none" stroke="#63b8ff" d="M967.85,-305.44C1033.46,-304.59 1186.92,-298.56 1219,-261 1230.31,-247.75 1220.95,-228.36 1211.18,-214.5"/>
<polygon fill="#63b8ff" stroke="#63b8ff" points="1213.76,-212.12 1204.91,-206.3 1208.2,-216.37 1213.76,-212.12"/>
</a>
</g>
</g>
<!-- Node24 -->
<g id="Node000024" class="node">
<title>Node24</title>
<g id="a_Node000024"><a xlink:href="sounds_8h.html" target="_top" xlink:title=" ">
<polygon fill="white" stroke="#666666" points="704,-261 644,-261 644,-242 704,-242 704,-261"/>
<text text-anchor="middle" x="674" y="-249" font-family="Helvetica,sans-Serif" font-size="10.00">sounds.h</text>
</a>
</g>
</g>
<!-- Node3&#45;&gt;Node24 -->
<g id="edge46_Node000003_Node000024" class="edge">
<title>Node3&#45;&gt;Node24</title>
<g id="a_edge46_Node000003_Node000024"><a xlink:title=" ">
<path fill="none" stroke="#63b8ff" d="M908.48,-299.85C867.29,-291.93 789.99,-276.91 714.39,-261.26"/>
<polygon fill="#63b8ff" stroke="#63b8ff" points="714.72,-257.75 704.22,-259.15 713.3,-264.61 714.72,-257.75"/>
</a>
</g>
</g>
<!-- Node5&#45;&gt;Node2 -->
<g id="edge5_Node000005_Node000002" class="edge">
<title>Node5&#45;&gt;Node2</title>
<g id="a_edge5_Node000005_Node000002"><a xlink:title=" ">
<path fill="none" stroke="#63b8ff" d="M58.48,-187C43.98,-179.77 25.65,-167.86 17,-151 -2.55,-112.91 -5.73,-84.81 25,-55 48.89,-31.83 263.84,-18.07 363.58,-12.88"/>
<polygon fill="#63b8ff" stroke="#63b8ff" points="363.91,-16.37 373.72,-12.36 363.55,-9.38 363.91,-16.37"/>
</a>
</g>
</g>
<!-- Node6&#45;&gt;Node2 -->
<g id="edge7_Node000006_Node000002" class="edge">
<title>Node6&#45;&gt;Node2</title>
<g id="a_edge7_Node000006_Node000002"><a xlink:title=" ">
<path fill="none" stroke="#63b8ff" d="M584.63,-188.41C581.72,-187.88 578.81,-187.4 576,-187 520.63,-179.17 112.1,-191.93 74,-151 44.93,-119.77 45.86,-87.07 74,-55 92.79,-33.59 273.58,-19.32 363.59,-13.48"/>
<polygon fill="#63b8ff" stroke="#63b8ff" points="364.09,-16.95 373.84,-12.83 363.64,-9.97 364.09,-16.95"/>
</a>
</g>
</g>
<!-- Node6&#45;&gt;Node7 -->
<g id="edge8_Node000006_Node000007" class="edge">
<title>Node6&#45;&gt;Node7</title>
<g id="a_edge8_Node000006_Node000007"><a xlink:title=" ">
<path fill="none" stroke="#63b8ff" d="M647.08,-194.24C752.04,-189.78 1089.2,-173.81 1132,-151 1152.64,-140 1149.52,-127.54 1165,-110 1173.62,-100.23 1183.72,-89.73 1191.96,-81.39"/>
<polygon fill="#63b8ff" stroke="#63b8ff" points="1194.61,-83.69 1199.19,-74.14 1189.65,-78.75 1194.61,-83.69"/>
</a>
</g>
</g>
<!-- Node7&#45;&gt;Node2 -->
<g id="edge9_Node000007_Node000002" class="edge">
<title>Node7&#45;&gt;Node2</title>
<g id="a_edge9_Node000007_Node000002"><a xlink:title=" ">
<path fill="none" stroke="#63b8ff" d="M1154.36,-59.92C1008.56,-50.19 606.42,-23.34 464.44,-13.87"/>
<polygon fill="#63b8ff" stroke="#63b8ff" points="464.49,-10.36 454.28,-13.19 464.02,-17.35 464.49,-10.36"/>
</a>
</g>
</g>
<!-- Node8&#45;&gt;Node2 -->
<g id="edge11_Node000008_Node000002" class="edge">
<title>Node8&#45;&gt;Node2</title>
<g id="a_edge11_Node000008_Node000002"><a xlink:title=" ">
<path fill="none" stroke="#63b8ff" d="M470.96,-194.62C355.46,-192 69.59,-182.38 41,-151 12.26,-119.46 12.67,-86.91 41,-55 62.07,-31.27 266.76,-17.9 363.64,-12.85"/>
<polygon fill="#63b8ff" stroke="#63b8ff" points="363.98,-16.34 373.79,-12.33 363.62,-9.35 363.98,-16.34"/>
</a>
</g>
</g>
<!-- Node9 -->
<g id="Node000009" class="node">
<title>Node9</title>
<g id="a_Node000009"><a xlink:title=" ">
<polygon fill="#e0e0e0" stroke="#999999" points="90,-19 0,-19 0,0 90,0 90,-19"/>
<text text-anchor="middle" x="45" y="-7" font-family="Helvetica,sans-Serif" font-size="10.00">libultra/types.h</text>
</a>
</g>
</g>
<!-- Node8&#45;&gt;Node9 -->
<g id="edge12_Node000008_Node000009" class="edge">
<title>Node8&#45;&gt;Node9</title>
<g id="a_edge12_Node000008_Node000009"><a xlink:title=" ">
<path fill="none" stroke="#63b8ff" d="M470.77,-194.84C350.97,-192.72 47.28,-184.08 17,-151 -14.53,-116.55 15.26,-57.05 33.37,-27.78"/>
<polygon fill="#63b8ff" stroke="#63b8ff" points="36.5,-29.39 38.97,-19.09 30.61,-25.61 36.5,-29.39"/>
</a>
</g>
</g>
<!-- Node10 -->
<g id="Node000010" class="node">
<title>Node10</title>
<g id="a_Node000010"><a xlink:title=" ">
<polygon fill="#e0e0e0" stroke="#999999" points="541,-74 463,-74 463,-55 541,-55 541,-74"/>
<text text-anchor="middle" x="502" y="-62" font-family="Helvetica,sans-Serif" font-size="10.00">libultra/gbi.h</text>
</a>
</g>
</g>
<!-- Node8&#45;&gt;Node10 -->
<g id="edge13_Node000008_Node000010" class="edge">
<title>Node8&#45;&gt;Node10</title>
<g id="a_edge13_Node000008_Node000010"><a xlink:title=" ">
<path fill="none" stroke="#63b8ff" d="M517.88,-186.97C515.17,-166.23 508.18,-112.74 504.44,-84.16"/>
<polygon fill="#63b8ff" stroke="#63b8ff" points="507.91,-83.69 503.14,-74.23 500.97,-84.6 507.91,-83.69"/>
</a>
</g>
</g>
<!-- Node11 -->
<g id="Node000011" class="node">
<title>Node11</title>
<g id="a_Node000011"><a xlink:href="other__textures_8h.html" target="_top" xlink:title=" ">
<polygon fill="white" stroke="#666666" points="1029,-145.5 909,-145.5 909,-115.5 1029,-115.5 1029,-145.5"/>
<text text-anchor="start" x="917" y="-133.5" font-family="Helvetica,sans-Serif" font-size="10.00">assets/textures/other</text>
<text text-anchor="middle" x="969" y="-122.5" font-family="Helvetica,sans-Serif" font-size="10.00">_textures.h</text>
</a>
</g>
</g>
<!-- Node8&#45;&gt;Node11 -->
<g id="edge14_Node000008_Node000011" class="edge">
<title>Node8&#45;&gt;Node11</title>
<g id="a_edge14_Node000008_Node000011"><a xlink:title=" ">
<path fill="none" stroke="#63b8ff" d="M567.18,-188.19C570.17,-187.77 573.12,-187.37 576,-187 719.68,-168.31 757.81,-178.8 900,-151 904.38,-150.14 908.88,-149.15 913.4,-148.06"/>
<polygon fill="#63b8ff" stroke="#63b8ff" points="914.4,-151.42 923.23,-145.57 912.68,-144.63 914.4,-151.42"/>
</a>
</g>
</g>
<!-- Node13 -->
<g id="Node000013" class="node">
<title>Node13</title>
<g id="a_Node000013"><a xlink:href="animation_8h.html" target="_top" xlink:title=" ">
<polygon fill="white" stroke="#666666" points="1122.5,-140 1047.5,-140 1047.5,-121 1122.5,-121 1122.5,-140"/>
<text text-anchor="middle" x="1085" y="-128" font-family="Helvetica,sans-Serif" font-size="10.00">animation.h</text>
</a>
</g>
</g>
<!-- Node8&#45;&gt;Node13 -->
<g id="edge17_Node000008_Node000013" class="edge">
<title>Node8&#45;&gt;Node13</title>
<g id="a_edge17_Node000008_Node000013"><a xlink:title=" ">
<path fill="none" stroke="#63b8ff" d="M567.17,-188.07C570.16,-187.69 573.12,-187.33 576,-187 780.64,-163.8 837.73,-199.06 1038,-151 1044.93,-149.34 1052.15,-146.79 1058.8,-144.08"/>
<polygon fill="#63b8ff" stroke="#63b8ff" points="1060.25,-147.26 1068.03,-140.07 1057.46,-140.84 1060.25,-147.26"/>
</a>
</g>
</g>
<!-- Node11&#45;&gt;Node2 -->
<g id="edge15_Node000011_Node000002" class="edge">
<title>Node11&#45;&gt;Node2</title>
<g id="a_edge15_Node000011_Node000002"><a xlink:title=" ">
<path fill="none" stroke="#63b8ff" d="M932.18,-115.48C886.89,-98.74 807.33,-71.01 737,-55 641.84,-33.34 528.36,-20.67 464.39,-14.71"/>
<polygon fill="#63b8ff" stroke="#63b8ff" points="464.46,-11.2 454.18,-13.77 463.82,-18.17 464.46,-11.2"/>
</a>
</g>
</g>
<!-- Node12 -->
<g id="Node000012" class="node">
<title>Node12</title>
<g id="a_Node000012"><a xlink:href="align__asset__macro_8h.html" target="_top" xlink:title=" ">
<polygon fill="white" stroke="#666666" points="676.5,-74 559.5,-74 559.5,-55 676.5,-55 676.5,-74"/>
<text text-anchor="middle" x="618" y="-62" font-family="Helvetica,sans-Serif" font-size="10.00">align_asset_macro.h</text>
</a>
</g>
</g>
<!-- Node11&#45;&gt;Node12 -->
<g id="edge16_Node000011_Node000012" class="edge">
<title>Node11&#45;&gt;Node12</title>
<g id="a_edge16_Node000011_Node000012"><a xlink:title=" ">
<path fill="none" stroke="#63b8ff" d="M922.05,-115.43C914.71,-113.46 907.17,-111.57 900,-110 827.84,-94.17 744.11,-81.69 686.75,-74.02"/>
<polygon fill="#63b8ff" stroke="#63b8ff" points="687.08,-70.54 676.71,-72.69 686.16,-77.47 687.08,-70.54"/>
</a>
</g>
</g>
<!-- Node13&#45;&gt;Node7 -->
<g id="edge18_Node000013_Node000007" class="edge">
<title>Node13&#45;&gt;Node7</title>
<g id="a_edge18_Node000013_Node000007"><a xlink:title=" ">
<path fill="none" stroke="#63b8ff" d="M1101.59,-120.87C1122.31,-110.09 1158,-91.52 1182.28,-78.88"/>
<polygon fill="#63b8ff" stroke="#63b8ff" points="1184.03,-81.92 1191.28,-74.2 1180.8,-75.71 1184.03,-81.92"/>
</a>
</g>
</g>
<!-- Node14&#45;&gt;Node10 -->
<g id="edge20_Node000014_Node000010" class="edge">
<title>Node14&#45;&gt;Node10</title>
<g id="a_edge20_Node000014_Node000010"><a xlink:title=" ">
<path fill="none" stroke="#63b8ff" d="M1311.36,-241.95C1299.6,-227.54 1273.54,-198.85 1244,-187 1106.86,-131.96 713.53,-214.3 580,-151 548.97,-136.29 524.6,-103.1 511.83,-82.68"/>
<polygon fill="#63b8ff" stroke="#63b8ff" points="514.81,-80.83 506.66,-74.05 508.8,-84.43 514.81,-80.83"/>
</a>
</g>
</g>
<!-- Node14&#45;&gt;Node11 -->
<g id="edge23_Node000014_Node000011" class="edge">
<title>Node14&#45;&gt;Node11</title>
<g id="a_edge23_Node000014_Node000011"><a xlink:title=" ">
<path fill="none" stroke="#63b8ff" d="M1315.08,-241.82C1309.85,-227.77 1297.5,-200.25 1277,-187 1187.15,-128.93 1143.61,-173.4 1039,-151 1034.84,-150.11 1030.55,-149.11 1026.26,-148.06"/>
<polygon fill="#63b8ff" stroke="#63b8ff" points="1026.81,-144.59 1016.25,-145.5 1025.07,-151.37 1026.81,-144.59"/>
</a>
</g>
</g>
<!-- Node15 -->
<g id="Node000015" class="node">
<title>Node15</title>
<g id="a_Node000015"><a xlink:href="spline_8h.html" target="_top" xlink:title=" ">
<polygon fill="white" stroke="#666666" points="1386.5,-140 1331.5,-140 1331.5,-121 1386.5,-121 1386.5,-140"/>
<text text-anchor="middle" x="1359" y="-128" font-family="Helvetica,sans-Serif" font-size="10.00">spline.h</text>
</a>
</g>
</g>
<!-- Node14&#45;&gt;Node15 -->
<g id="edge21_Node000014_Node000015" class="edge">
<title>Node14&#45;&gt;Node15</title>
<g id="a_edge21_Node000014_Node000015"><a xlink:title=" ">
<path fill="none" stroke="#63b8ff" d="M1320.95,-241.94C1327.57,-222.74 1343.72,-175.86 1352.7,-149.77"/>
<polygon fill="#63b8ff" stroke="#63b8ff" points="1356.02,-150.9 1355.97,-140.3 1349.4,-148.62 1356.02,-150.9"/>
</a>
</g>
</g>
<!-- Node14&#45;&gt;Node16 -->
<g id="edge24_Node000014_Node000016" class="edge">
<title>Node14&#45;&gt;Node16</title>
<g id="a_edge24_Node000014_Node000016"><a xlink:title=" ">
<path fill="none" stroke="#63b8ff" d="M1330.85,-241.98C1343.14,-233.84 1361.91,-221.41 1376.48,-211.76"/>
<polygon fill="#63b8ff" stroke="#63b8ff" points="1378.51,-214.61 1384.91,-206.17 1374.64,-208.78 1378.51,-214.61"/>
</a>
</g>
</g>
<!-- Node15&#45;&gt;Node7 -->
<g id="edge22_Node000015_Node000007" class="edge">
<title>Node15&#45;&gt;Node7</title>
<g id="a_edge22_Node000015_Node000007"><a xlink:title=" ">
<path fill="none" stroke="#63b8ff" d="M1341.1,-120.96C1333.68,-117.48 1324.96,-113.47 1317,-110 1291,-98.67 1261.17,-86.55 1239.29,-77.82"/>
<polygon fill="#63b8ff" stroke="#63b8ff" points="1240.43,-74.51 1229.84,-74.07 1237.84,-81.01 1240.43,-74.51"/>
</a>
</g>
</g>
<!-- Node16&#45;&gt;Node7 -->
<g id="edge26_Node000016_Node000007" class="edge">
<title>Node16&#45;&gt;Node7</title>
<g id="a_edge26_Node000016_Node000007"><a xlink:title=" ">
<path fill="none" stroke="#63b8ff" d="M1400.9,-186.82C1405.93,-169.94 1414.13,-132.38 1396,-110 1380.38,-90.72 1320,-78.86 1271.83,-72.28"/>
<polygon fill="#63b8ff" stroke="#63b8ff" points="1272.13,-68.79 1261.76,-70.96 1271.22,-75.73 1272.13,-68.79"/>
</a>
</g>
</g>
<!-- Node16&#45;&gt;Node15 -->
<g id="edge25_Node000016_Node000015" class="edge">
<title>Node16&#45;&gt;Node15</title>
<g id="a_edge25_Node000016_Node000015"><a xlink:title=" ">
<path fill="none" stroke="#63b8ff" d="M1392.74,-186.87C1386.9,-177.28 1377.31,-161.55 1369.85,-149.3"/>
<polygon fill="#63b8ff" stroke="#63b8ff" points="1372.62,-147.12 1364.43,-140.41 1366.64,-150.77 1372.62,-147.12"/>
</a>
</g>
</g>
<!-- Node18&#45;&gt;Node7 -->
<g id="edge29_Node000018_Node000007" class="edge">
<title>Node18&#45;&gt;Node7</title>
<g id="a_edge29_Node000018_Node000007"><a xlink:title=" ">
<path fill="none" stroke="#63b8ff" d="M977.53,-188.82C1040.08,-177.85 1157.55,-156.66 1165,-151 1186.78,-134.46 1198.33,-103.84 1203.8,-84.08"/>
<polygon fill="#63b8ff" stroke="#63b8ff" points="1207.26,-84.69 1206.29,-74.14 1200.47,-82.99 1207.26,-84.69"/>
</a>
</g>
</g>
<!-- Node19 -->
<g id="Node000019" class="node">
<title>Node19</title>
<g id="a_Node000019"><a xlink:href="mk64_8h.html" target="_top" xlink:title=" ">
<polygon fill="white" stroke="#666666" points="136.5,-140 83.5,-140 83.5,-121 136.5,-121 136.5,-140"/>
<text text-anchor="middle" x="110" y="-128" font-family="Helvetica,sans-Serif" font-size="10.00">mk64.h</text>
</a>
</g>
</g>
<!-- Node18&#45;&gt;Node19 -->
<g id="edge30_Node000018_Node000019" class="edge">
<title>Node18&#45;&gt;Node19</title>
<g id="a_edge30_Node000018_Node000019"><a xlink:title=" ">
<path fill="none" stroke="#63b8ff" d="M900.38,-194.35C751.29,-189.79 217.89,-172.13 145,-151 140.37,-149.66 135.67,-147.61 131.29,-145.34"/>
<polygon fill="#63b8ff" stroke="#63b8ff" points="132.76,-142.15 122.35,-140.2 129.27,-148.21 132.76,-142.15"/>
</a>
</g>
</g>
<!-- Node19&#45;&gt;Node2 -->
<g id="edge31_Node000019_Node000002" class="edge">
<title>Node19&#45;&gt;Node2</title>
<g id="a_edge31_Node000019_Node000002"><a xlink:title=" ">
<path fill="none" stroke="#63b8ff" d="M124.38,-120.83C130.61,-117.25 138.05,-113.2 145,-110 225.74,-72.84 324.66,-39.13 377.16,-22.12"/>
<polygon fill="#63b8ff" stroke="#63b8ff" points="378.27,-25.44 386.72,-19.04 376.13,-18.78 378.27,-25.44"/>
</a>
</g>
</g>
<!-- Node19&#45;&gt;Node10 -->
<g id="edge34_Node000019_Node000010" class="edge">
<title>Node19&#45;&gt;Node10</title>
<g id="a_edge34_Node000019_Node000010"><a xlink:title=" ">
<path fill="none" stroke="#63b8ff" d="M122.75,-120.83C129.15,-116.89 137.2,-112.55 145,-110 250.87,-75.37 382.49,-67.39 452.61,-65.74"/>
<polygon fill="#63b8ff" stroke="#63b8ff" points="452.98,-69.23 462.91,-65.53 452.84,-62.23 452.98,-69.23"/>
</a>
</g>
</g>
<!-- Node20 -->
<g id="Node000020" class="node">
<title>Node20</title>
<g id="a_Node000020"><a xlink:href="string_8h.html" target="_top" xlink:title=" ">
<polygon fill="white" stroke="#666666" points="136.5,-74 83.5,-74 83.5,-55 136.5,-55 136.5,-74"/>
<text text-anchor="middle" x="110" y="-62" font-family="Helvetica,sans-Serif" font-size="10.00">string.h</text>
</a>
</g>
</g>
<!-- Node19&#45;&gt;Node20 -->
<g id="edge32_Node000019_Node000020" class="edge">
<title>Node19&#45;&gt;Node20</title>
<g id="a_edge32_Node000019_Node000020"><a xlink:title=" ">
<path fill="none" stroke="#63b8ff" d="M110,-120.87C110,-111.66 110,-96.79 110,-84.77"/>
<polygon fill="#63b8ff" stroke="#63b8ff" points="113.5,-84.41 110,-74.41 106.5,-84.41 113.5,-84.41"/>
</a>
</g>
</g>
<!-- Node20&#45;&gt;Node9 -->
<g id="edge33_Node000020_Node000009" class="edge">
<title>Node20&#45;&gt;Node9</title>
<g id="a_edge33_Node000020_Node000009"><a xlink:title=" ">
<path fill="none" stroke="#63b8ff" d="M99.56,-54.98C89.85,-47.07 75.18,-35.11 63.5,-25.58"/>
<polygon fill="#63b8ff" stroke="#63b8ff" points="65.6,-22.78 55.63,-19.17 61.17,-28.2 65.6,-22.78"/>
</a>
</g>
</g>
<!-- Node21&#45;&gt;Node7 -->
<g id="edge38_Node000021_Node000007" class="edge">
<title>Node21&#45;&gt;Node7</title>
<g id="a_edge38_Node000021_Node000007"><a xlink:title=" ">
<path fill="none" stroke="#63b8ff" d="M1139.68,-241.64C1138.2,-228.3 1137.46,-202.92 1150,-187 1176.92,-152.84 1216.55,-186.97 1241,-151 1255.76,-129.29 1237.78,-100.05 1223.14,-82"/>
<polygon fill="#63b8ff" stroke="#63b8ff" points="1225.55,-79.43 1216.38,-74.12 1220.24,-83.99 1225.55,-79.43"/>
</a>
</g>
</g>
<!-- Node21&#45;&gt;Node18 -->
<g id="edge44_Node000021_Node000018" class="edge">
<title>Node21&#45;&gt;Node18</title>
<g id="a_edge44_Node000021_Node000018"><a xlink:title=" ">
<path fill="none" stroke="#63b8ff" d="M1108.55,-241.98C1074.04,-232.93 1019.34,-218.58 981.44,-208.64"/>
<polygon fill="#63b8ff" stroke="#63b8ff" points="982.27,-205.23 971.71,-206.08 980.49,-212.01 982.27,-205.23"/>
</a>
</g>
</g>
<!-- Node21&#45;&gt;Node22 -->
<g id="edge36_Node000021_Node000022" class="edge">
<title>Node21&#45;&gt;Node22</title>
<g id="a_edge36_Node000021_Node000022"><a xlink:title=" ">
<path fill="none" stroke="#63b8ff" d="M1150,-241.98C1158.19,-234.23 1170.51,-222.58 1180.47,-213.14"/>
<polygon fill="#63b8ff" stroke="#63b8ff" points="1182.98,-215.59 1187.84,-206.17 1178.17,-210.5 1182.98,-215.59"/>
</a>
</g>
</g>
<!-- Node23 -->
<g id="Node000023" class="node">
<title>Node23</title>
<g id="a_Node000023"><a xlink:href="other_2common__data_8h.html" target="_top" xlink:title=" ">
<polygon fill="white" stroke="#666666" points="891,-145.5 769,-145.5 769,-115.5 891,-115.5 891,-145.5"/>
<text text-anchor="start" x="777" y="-133.5" font-family="Helvetica,sans-Serif" font-size="10.00">assets/other/common</text>
<text text-anchor="middle" x="830" y="-122.5" font-family="Helvetica,sans-Serif" font-size="10.00">_data.h</text>
</a>
</g>
</g>
<!-- Node21&#45;&gt;Node23 -->
<g id="edge39_Node000021_Node000023" class="edge">
<title>Node21&#45;&gt;Node23</title>
<g id="a_edge39_Node000021_Node000023"><a xlink:title=" ">
<path fill="none" stroke="#63b8ff" d="M1132.17,-241.62C1117.88,-227.78 1088.22,-201.18 1058,-187 992.79,-156.42 969.82,-168.67 900,-151 896.43,-150.1 892.76,-149.14 889.06,-148.17"/>
<polygon fill="#63b8ff" stroke="#63b8ff" points="889.82,-144.75 879.26,-145.54 888.01,-151.51 889.82,-144.75"/>
</a>
</g>
</g>
<!-- Node22&#45;&gt;Node7 -->
<g id="edge37_Node000022_Node000007" class="edge">
<title>Node22&#45;&gt;Node7</title>
<g id="a_edge37_Node000022_Node000007"><a xlink:title=" ">
<path fill="none" stroke="#63b8ff" d="M1229.21,-186.92C1247.25,-180.29 1268.23,-169.09 1279,-151 1288.32,-135.34 1287.82,-125.94 1279,-110 1271.16,-95.83 1256.71,-85.57 1242.89,-78.5"/>
<polygon fill="#63b8ff" stroke="#63b8ff" points="1244.05,-75.18 1233.51,-74.1 1241.08,-81.52 1244.05,-75.18"/>
</a>
</g>
</g>
<!-- Node23&#45;&gt;Node2 -->
<g id="edge41_Node000023_Node000002" class="edge">
<title>Node23&#45;&gt;Node2</title>
<g id="a_edge41_Node000023_Node000002"><a xlink:title=" ">
<path fill="none" stroke="#63b8ff" d="M811.33,-115.46C787.52,-98.3 744.43,-69.73 703,-55 622.68,-26.44 523.39,-16.2 464.57,-12.54"/>
<polygon fill="#63b8ff" stroke="#63b8ff" points="464.61,-9.03 454.43,-11.94 464.21,-16.02 464.61,-9.03"/>
</a>
</g>
</g>
<!-- Node23&#45;&gt;Node7 -->
<g id="edge42_Node000023_Node000007" class="edge">
<title>Node23&#45;&gt;Node7</title>
<g id="a_edge42_Node000023_Node000007"><a xlink:title=" ">
<path fill="none" stroke="#63b8ff" d="M877.24,-115.45C884.81,-113.46 892.59,-111.56 900,-110 983.76,-92.36 1081.81,-79.51 1144.38,-72.28"/>
<polygon fill="#63b8ff" stroke="#63b8ff" points="1144.96,-75.73 1154.49,-71.12 1144.16,-68.78 1144.96,-75.73"/>
</a>
</g>
</g>
<!-- Node23&#45;&gt;Node10 -->
<g id="edge40_Node000023_Node000010" class="edge">
<title>Node23&#45;&gt;Node10</title>
<g id="a_edge40_Node000023_Node000010"><a xlink:title=" ">
<path fill="none" stroke="#63b8ff" d="M781.96,-115.42C774.64,-113.48 767.14,-111.6 760,-110 670.67,-89.96 644.98,-90.21 550.96,-74.14"/>
<polygon fill="#63b8ff" stroke="#63b8ff" points="551.48,-70.68 541.03,-72.43 550.29,-77.58 551.48,-70.68"/>
</a>
</g>
</g>
<!-- Node23&#45;&gt;Node12 -->
<g id="edge43_Node000023_Node000012" class="edge">
<title>Node23&#45;&gt;Node12</title>
<g id="a_edge43_Node000023_Node000012"><a xlink:title=" ">
<path fill="none" stroke="#63b8ff" d="M783.48,-115.45C745.31,-103.93 691.95,-87.82 656.24,-77.04"/>
<polygon fill="#63b8ff" stroke="#63b8ff" points="656.8,-73.56 646.21,-74.02 654.78,-80.26 656.8,-73.56"/>
</a>
</g>
</g>
<!-- Node25&#45;&gt;Node2 -->
<g id="edge49_Node000025_Node000002" class="edge">
<title>Node25&#45;&gt;Node2</title>
<g id="a_edge49_Node000025_Node000002"><a xlink:title=" ">
<path fill="none" stroke="#63b8ff" d="M264.56,-109.85C300.53,-85.94 360.41,-46.13 392.36,-24.89"/>
<polygon fill="#63b8ff" stroke="#63b8ff" points="394.56,-27.63 400.95,-19.18 390.69,-21.8 394.56,-27.63"/>
</a>
</g>
</g>
<!-- Node25&#45;&gt;Node10 -->
<g id="edge50_Node000025_Node000010" class="edge">
<title>Node25&#45;&gt;Node10</title>
<g id="a_edge50_Node000025_Node000010"><a xlink:title=" ">
<path fill="none" stroke="#63b8ff" d="M315.83,-110.12C361.91,-99.08 417.95,-85.65 456.43,-76.42"/>
<polygon fill="#63b8ff" stroke="#63b8ff" points="457.4,-79.79 466.31,-74.06 455.77,-72.98 457.4,-79.79"/>
</a>
</g>
</g>
<!-- Node25&#45;&gt;Node12 -->
<g id="edge51_Node000025_Node000012" class="edge">
<title>Node25&#45;&gt;Node12</title>
<g id="a_edge51_Node000025_Node000012"><a xlink:title=" ">
<path fill="none" stroke="#63b8ff" d="M315.96,-111.53C318.67,-111 321.36,-110.49 324,-110 400.78,-95.79 489.46,-82.84 549.17,-74.62"/>
<polygon fill="#63b8ff" stroke="#63b8ff" points="549.81,-78.07 559.24,-73.24 548.86,-71.13 549.81,-78.07"/>
</a>
</g>
</g>
<!-- Node26&#45;&gt;Node2 -->
<g id="edge53_Node000026_Node000002" class="edge">
<title>Node26&#45;&gt;Node2</title>
<g id="a_edge53_Node000026_Node000002"><a xlink:title=" ">
<path fill="none" stroke="#63b8ff" d="M414,-109.85C414,-87.48 414,-51.19 414,-29.21"/>
<polygon fill="#63b8ff" stroke="#63b8ff" points="417.5,-29.18 414,-19.18 410.5,-29.18 417.5,-29.18"/>
</a>
</g>
</g>
<!-- Node26&#45;&gt;Node10 -->
<g id="edge54_Node000026_Node000010" class="edge">
<title>Node26&#45;&gt;Node10</title>
<g id="a_edge54_Node000026_Node000010"><a xlink:title=" ">
<path fill="none" stroke="#63b8ff" d="M440.88,-109.95C454.06,-100.37 469.66,-89.02 481.81,-80.19"/>
<polygon fill="#63b8ff" stroke="#63b8ff" points="483.93,-82.97 489.95,-74.26 479.81,-77.31 483.93,-82.97"/>
</a>
</g>
</g>
<!-- Node26&#45;&gt;Node12 -->
<g id="edge55_Node000026_Node000012" class="edge">
<title>Node26&#45;&gt;Node12</title>
<g id="a_edge55_Node000026_Node000012"><a xlink:title=" ">
<path fill="none" stroke="#63b8ff" d="M476.32,-109.95C510.59,-99.2 551.95,-86.22 581.11,-77.07"/>
<polygon fill="#63b8ff" stroke="#63b8ff" points="582.39,-80.34 590.88,-74.01 580.29,-73.66 582.39,-80.34"/>
</a>
</g>
</g>
<!-- Node27&#45;&gt;Node2 -->
<g id="edge57_Node000027_Node000002" class="edge">
<title>Node27&#45;&gt;Node2</title>
<g id="a_edge57_Node000027_Node000002"><a xlink:title=" ">
<path fill="none" stroke="#63b8ff" d="M682.39,-109.86C691.04,-93.41 698.93,-70.22 686,-55 658.09,-22.16 534.78,-13.5 464.15,-11.25"/>
<polygon fill="#63b8ff" stroke="#63b8ff" points="464.22,-7.76 454.12,-10.97 464.02,-14.75 464.22,-7.76"/>
</a>
</g>
</g>
<!-- Node27&#45;&gt;Node10 -->
<g id="edge58_Node000027_Node000010" class="edge">
<title>Node27&#45;&gt;Node10</title>
<g id="a_edge58_Node000027_Node000010"><a xlink:title=" ">
<path fill="none" stroke="#63b8ff" d="M618.68,-109.95C591.16,-99.46 558.08,-86.87 534.19,-77.76"/>
<polygon fill="#63b8ff" stroke="#63b8ff" points="535.14,-74.38 524.55,-74.09 532.65,-80.92 535.14,-74.38"/>
</a>
</g>
</g>
<!-- Node27&#45;&gt;Node12 -->
<g id="edge59_Node000027_Node000012" class="edge">
<title>Node27&#45;&gt;Node12</title>
<g id="a_edge59_Node000027_Node000012"><a xlink:title=" ">
<path fill="none" stroke="#63b8ff" d="M654.12,-109.95C646.93,-101.11 638.53,-90.77 631.64,-82.29"/>
<polygon fill="#63b8ff" stroke="#63b8ff" points="634.14,-79.81 625.12,-74.26 628.71,-84.23 634.14,-79.81"/>
</a>
</g>
</g>
</g>
</svg>

<g id="navigator" transform="translate(0 0)" fill="#404254">
  <rect fill="#f2f5e9" fill-opacity="0.5" stroke="#606060" stroke-width=".5" x="0" y="0" width="60" height="60"/>
  <use id="zoomplus" xlink:href="#zoomPlus" x="17" y="9" onmousedown="handleZoom(evt,'in')"/>
  <use id="zoomminus" xlink:href="#zoomMin" x="42" y="9" onmousedown="handleZoom(evt,'out')"/>
  <use id="reset" xlink:href="#resetDef" x="30" y="36" onmousedown="handleReset()"/>
   <use id="arrowup" xlink:href="#arrowUp" x="0" y="0" onmousedown="handlePan(0,-1)"/>
  <use id="arrowright" xlink:href="#arrowRight" x="0" y="0" onmousedown="handlePan(1,0)"/>
  <use id="arrowdown" xlink:href="#arrowDown" x="0" y="0" onmousedown="handlePan(0,1)"/>
  <use id="arrowleft" xlink:href="#arrowLeft" x="0" y="0" onmousedown="handlePan(-1,0)"/>
</g>
<svg viewBox="0 0 15 15" width="100%" height="30px" preserveAspectRatio="xMaxYMin meet">
 <g id="arrow_out" transform="scale(0.3 0.3)">
  <a xlink:href="BansheeBoardwalk_8h__incl_org.svg" target="_base">
   <rect id="button" ry="5" rx="5" y="6" x="6" height="38" width="38"
        fill="#f2f5e9" fill-opacity="0.5" stroke="#606060" stroke-width="1.0"/>
   <path id="arrow"
     d="M 11.500037,31.436501 C 11.940474,20.09759 22.043105,11.32322 32.158766,21.979434 L 37.068811,17.246167 C 37.068811,17.246167 37.088388,32 37.088388,32 L 22.160133,31.978069 C 22.160133,31.978069 26.997745,27.140456 26.997745,27.140456 C 18.528582,18.264221 13.291696,25.230495 11.500037,31.436501 z"
     style="fill:#404040;"/>
  </a>
 </g>
</svg>

<style type='text/css'>
<![CDATA[
[data-mouse-over-selected='false'] { opacity: 0.7; }
[data-mouse-over-selected='true']  { opacity: 1.0; }
]]>
</style>
<script type="application/ecmascript"><![CDATA[
document.addEventListener('DOMContentLoaded', (event) => {
  highlightEdges();
  highlightAdjacentNodes();
});
]]></script>
</svg>
