<?xml version="1.0" encoding="UTF-8" standalone="no"?>
<!DOCTYPE svg PUBLIC "-//W3C//DTD SVG 1.1//EN"
 "http://www.w3.org/Graphics/SVG/1.1/DTD/svg11.dtd">
<!-- Generated by graphviz version 2.43.0 (0)
 -->
<!-- Title: include/assets/models/tracks/block_fort/block_fort_vertices.h Pages: 1 -->
<svg width="343pt" height="170pt"
 viewBox="0.00 0.00 342.50 170.00" xmlns="http://www.w3.org/2000/svg" xmlns:xlink="http://www.w3.org/1999/xlink">
<g id="graph0" class="graph" transform="scale(1 1) rotate(0) translate(4 166)">
<title>include/assets/models/tracks/block_fort/block_fort_vertices.h</title>
<!-- Node1 -->
<g id="Node000001" class="node">
<title>Node1</title>
<g id="a_Node000001"><a xlink:title=" ">
<polygon fill="#999999" stroke="#666666" points="194,-162 63,-162 63,-121 194,-121 194,-162"/>
<text text-anchor="start" x="71" y="-150" font-family="Helvetica,sans-Serif" font-size="10.00">include/assets/models</text>
<text text-anchor="start" x="71" y="-139" font-family="Helvetica,sans-Serif" font-size="10.00">/tracks/block_fort/block</text>
<text text-anchor="middle" x="128.5" y="-128" font-family="Helvetica,sans-Serif" font-size="10.00">_fort_vertices.h</text>
</a>
</g>
</g>
<!-- Node2 -->
<g id="Node000002" class="node">
<title>Node2</title>
<g id="a_Node000002"><a xlink:href="all__course__model_8h.html" target="_top" xlink:title=" ">
<polygon fill="white" stroke="#666666" points="107,-85 0,-85 0,-55 107,-55 107,-85"/>
<text text-anchor="start" x="8" y="-73" font-family="Helvetica,sans-Serif" font-size="10.00">courses/all_course</text>
<text text-anchor="middle" x="53.5" y="-62" font-family="Helvetica,sans-Serif" font-size="10.00">_model.h</text>
</a>
</g>
</g>
<!-- Node1&#45;&gt;Node2 -->
<g id="edge1_Node000001_Node000002" class="edge">
<title>Node1&#45;&gt;Node2</title>
<g id="a_edge1_Node000001_Node000002"><a xlink:title=" ">
<path fill="none" stroke="#63b8ff" d="M99.72,-113.83C89.14,-104.02 77.57,-93.3 68.65,-85.04"/>
<polygon fill="#63b8ff" stroke="#63b8ff" points="97.49,-116.54 107.21,-120.77 102.25,-111.41 97.49,-116.54"/>
</a>
</g>
</g>
<!-- Node3 -->
<g id="Node000003" class="node">
<title>Node3</title>
<g id="a_Node000003"><a xlink:href="BlockFort_8h.html" target="_top" xlink:title=" ">
<polygon fill="white" stroke="#666666" points="283.5,-79.5 125.5,-79.5 125.5,-60.5 283.5,-60.5 283.5,-79.5"/>
<text text-anchor="middle" x="204.5" y="-67.5" font-family="Helvetica,sans-Serif" font-size="10.00">src/engine/tracks/BlockFort.h</text>
</a>
</g>
</g>
<!-- Node1&#45;&gt;Node3 -->
<g id="edge2_Node000001_Node000003" class="edge">
<title>Node1&#45;&gt;Node3</title>
<g id="a_edge2_Node000001_Node000003"><a xlink:title=" ">
<path fill="none" stroke="#63b8ff" d="M157.61,-113.88C170.79,-101.82 185.49,-88.38 194.86,-79.82"/>
<polygon fill="#63b8ff" stroke="#63b8ff" points="155.09,-111.44 150.08,-120.77 159.82,-116.6 155.09,-111.44"/>
</a>
</g>
</g>
<!-- Node4 -->
<g id="Node000004" class="node">
<title>Node4</title>
<g id="a_Node000004"><a xlink:href="BlockFort_8cpp.html" target="_top" xlink:title=" ">
<polygon fill="white" stroke="#666666" points="211,-19 42,-19 42,0 211,0 211,-19"/>
<text text-anchor="middle" x="126.5" y="-7" font-family="Helvetica,sans-Serif" font-size="10.00">src/engine/tracks/BlockFort.cpp</text>
</a>
</g>
</g>
<!-- Node3&#45;&gt;Node4 -->
<g id="edge3_Node000003_Node000004" class="edge">
<title>Node3&#45;&gt;Node4</title>
<g id="a_edge3_Node000003_Node000004"><a xlink:title=" ">
<path fill="none" stroke="#63b8ff" d="M184.96,-54.35C170.19,-43.27 150.4,-28.43 138.06,-19.17"/>
<polygon fill="#63b8ff" stroke="#63b8ff" points="182.89,-57.17 192.99,-60.37 187.09,-51.57 182.89,-57.17"/>
</a>
</g>
</g>
<!-- Node5 -->
<g id="Node000005" class="node">
<title>Node5</title>
<g id="a_Node000005"><a xlink:href="Game_8cpp.html" target="_top" xlink:title=" ">
<polygon fill="white" stroke="#666666" points="334.5,-19 228.5,-19 228.5,0 334.5,0 334.5,-19"/>
<text text-anchor="middle" x="281.5" y="-7" font-family="Helvetica,sans-Serif" font-size="10.00">src/port/Game.cpp</text>
</a>
</g>
</g>
<!-- Node3&#45;&gt;Node5 -->
<g id="edge4_Node000003_Node000005" class="edge">
<title>Node3&#45;&gt;Node5</title>
<g id="a_edge4_Node000003_Node000005"><a xlink:title=" ">
<path fill="none" stroke="#63b8ff" d="M224.19,-54.04C238.73,-42.99 258.02,-28.34 270.09,-19.17"/>
<polygon fill="#63b8ff" stroke="#63b8ff" points="221.71,-51.53 215.86,-60.37 225.94,-57.11 221.71,-51.53"/>
</a>
</g>
</g>
</g>
</svg>
