<?xml version="1.0" encoding="UTF-8" standalone="no"?>
<!DOCTYPE svg PUBLIC "-//W3C//DTD SVG 1.1//EN"
 "http://www.w3.org/Graphics/SVG/1.1/DTD/svg11.dtd">
<!-- Generated by graphviz version 2.43.0 (0)
 -->
<!-- Title: src/engine/objects/BombKart.h Pages: 1 -->
<svg width="4836pt" height="214pt"
 viewBox="0.00 0.00 4836.00 214.00" xmlns="http://www.w3.org/2000/svg" xmlns:xlink="http://www.w3.org/1999/xlink">
<g id="graph0" class="graph" transform="scale(1 1) rotate(0) translate(4 210)">
<title>src/engine/objects/BombKart.h</title>
<!-- Node1 -->
<g id="Node000001" class="node">
<title>Node1</title>
<g id="a_Node000001"><a xlink:title=" ">
<polygon fill="#999999" stroke="#666666" points="2502.5,-206 2397.5,-206 2397.5,-176 2502.5,-176 2502.5,-206"/>
<text text-anchor="start" x="2405.5" y="-194" font-family="Helvetica,sans-Serif" font-size="10.00">src/engine/objects</text>
<text text-anchor="middle" x="2450" y="-183" font-family="Helvetica,sans-Serif" font-size="10.00">/BombKart.h</text>
</a>
</g>
</g>
<!-- Node2 -->
<g id="Node000002" class="node">
<title>Node2</title>
<g id="a_Node000002"><a xlink:href="AllActors_8h.html" target="_top" xlink:title=" ">
<polygon fill="white" stroke="#666666" points="376,-134.5 254,-134.5 254,-115.5 376,-115.5 376,-134.5"/>
<text text-anchor="middle" x="315" y="-122.5" font-family="Helvetica,sans-Serif" font-size="10.00">src/engine/AllActors.h</text>
</a>
</g>
</g>
<!-- Node1&#45;&gt;Node2 -->
<g id="edge1_Node000001_Node000002" class="edge">
<title>Node1&#45;&gt;Node2</title>
<g id="a_edge1_Node000001_Node000002"><a xlink:title=" ">
<path fill="none" stroke="#63b8ff" d="M2386.99,-189.92C2085.49,-189.32 788.08,-184.18 386,-140 374.89,-138.78 362.92,-136.71 352.03,-134.54"/>
<polygon fill="#63b8ff" stroke="#63b8ff" points="2387.29,-193.42 2397.3,-189.94 2387.3,-186.42 2387.29,-193.42"/>
</a>
</g>
</g>
<!-- Node8 -->
<g id="Node000008" class="node">
<title>Node8</title>
<g id="a_Node000008"><a xlink:href="BombKart_8cpp.html" target="_top" xlink:title=" ">
<polygon fill="white" stroke="#666666" points="499.5,-140 394.5,-140 394.5,-110 499.5,-110 499.5,-140"/>
<text text-anchor="start" x="402.5" y="-128" font-family="Helvetica,sans-Serif" font-size="10.00">src/engine/objects</text>
<text text-anchor="middle" x="447" y="-117" font-family="Helvetica,sans-Serif" font-size="10.00">/BombKart.cpp</text>
</a>
</g>
</g>
<!-- Node1&#45;&gt;Node8 -->
<g id="edge8_Node000001_Node000008" class="edge">
<title>Node1&#45;&gt;Node8</title>
<g id="a_edge8_Node000001_Node000008"><a xlink:title=" ">
<path fill="none" stroke="#63b8ff" d="M2386.99,-190.04C2096.53,-189.97 884.86,-186.82 509,-140 505.93,-139.62 502.8,-139.15 499.64,-138.63"/>
<polygon fill="#63b8ff" stroke="#63b8ff" points="2387.33,-193.54 2397.33,-190.04 2387.33,-186.54 2387.33,-193.54"/>
</a>
</g>
</g>
<!-- Node9 -->
<g id="Node000009" class="node">
<title>Node9</title>
<g id="a_Node000009"><a xlink:href="BansheeBoardwalk_8cpp.html" target="_top" xlink:title=" ">
<polygon fill="white" stroke="#666666" points="662.5,-140 517.5,-140 517.5,-110 662.5,-110 662.5,-140"/>
<text text-anchor="start" x="525.5" y="-128" font-family="Helvetica,sans-Serif" font-size="10.00">src/engine/tracks/Banshee</text>
<text text-anchor="middle" x="590" y="-117" font-family="Helvetica,sans-Serif" font-size="10.00">Boardwalk.cpp</text>
</a>
</g>
</g>
<!-- Node1&#45;&gt;Node9 -->
<g id="edge9_Node000001_Node000009" class="edge">
<title>Node1&#45;&gt;Node9</title>
<g id="a_edge9_Node000001_Node000009"><a xlink:title=" ">
<path fill="none" stroke="#63b8ff" d="M2387.01,-189.42C2111.99,-186.71 1015.03,-173.94 672,-140 668.98,-139.7 665.91,-139.36 662.81,-138.98"/>
<polygon fill="#63b8ff" stroke="#63b8ff" points="2387.17,-192.92 2397.2,-189.52 2387.24,-185.92 2387.17,-192.92"/>
</a>
</g>
</g>
<!-- Node10 -->
<g id="Node000010" class="node">
<title>Node10</title>
<g id="a_Node000010"><a xlink:href="BigDonut_8cpp.html" target="_top" xlink:title=" ">
<polygon fill="white" stroke="#666666" points="849,-134.5 681,-134.5 681,-115.5 849,-115.5 849,-134.5"/>
<text text-anchor="middle" x="765" y="-122.5" font-family="Helvetica,sans-Serif" font-size="10.00">src/engine/tracks/BigDonut.cpp</text>
</a>
</g>
</g>
<!-- Node1&#45;&gt;Node10 -->
<g id="edge10_Node000001_Node000010" class="edge">
<title>Node1&#45;&gt;Node10</title>
<g id="a_edge10_Node000001_Node000010"><a xlink:title=" ">
<path fill="none" stroke="#63b8ff" d="M2387,-189.02C2130.34,-184.85 1162.74,-167.63 858,-140 843.85,-138.72 828.58,-136.69 814.58,-134.57"/>
<polygon fill="#63b8ff" stroke="#63b8ff" points="2387.21,-192.52 2397.26,-189.18 2387.32,-185.52 2387.21,-192.52"/>
</a>
</g>
</g>
<!-- Node11 -->
<g id="Node000011" class="node">
<title>Node11</title>
<g id="a_Node000011"><a xlink:href="BlockFort_8cpp.html" target="_top" xlink:title=" ">
<polygon fill="white" stroke="#666666" points="1035.5,-134.5 866.5,-134.5 866.5,-115.5 1035.5,-115.5 1035.5,-134.5"/>
<text text-anchor="middle" x="951" y="-122.5" font-family="Helvetica,sans-Serif" font-size="10.00">src/engine/tracks/BlockFort.cpp</text>
</a>
</g>
</g>
<!-- Node1&#45;&gt;Node11 -->
<g id="edge11_Node000001_Node000011" class="edge">
<title>Node1&#45;&gt;Node11</title>
<g id="a_edge11_Node000001_Node000011"><a xlink:title=" ">
<path fill="none" stroke="#63b8ff" d="M2387.02,-190.27C2189.03,-190.6 1561.66,-187.52 1045,-140 1030.71,-138.69 1015.27,-136.65 1001.12,-134.53"/>
<polygon fill="#63b8ff" stroke="#63b8ff" points="2387.24,-193.77 2397.24,-190.25 2387.23,-186.77 2387.24,-193.77"/>
</a>
</g>
</g>
<!-- Node12 -->
<g id="Node000012" class="node">
<title>Node12</title>
<g id="a_Node000012"><a xlink:href="BowsersCastle_8cpp.html" target="_top" xlink:title=" ">
<polygon fill="white" stroke="#666666" points="1198,-140 1054,-140 1054,-110 1198,-110 1198,-140"/>
<text text-anchor="start" x="1062" y="-128" font-family="Helvetica,sans-Serif" font-size="10.00">src/engine/tracks/Bowsers</text>
<text text-anchor="middle" x="1126" y="-117" font-family="Helvetica,sans-Serif" font-size="10.00">Castle.cpp</text>
</a>
</g>
</g>
<!-- Node1&#45;&gt;Node12 -->
<g id="edge12_Node000001_Node000012" class="edge">
<title>Node1&#45;&gt;Node12</title>
<g id="a_edge12_Node000001_Node000012"><a xlink:title=" ">
<path fill="none" stroke="#63b8ff" d="M2387.25,-190.32C2204.7,-190.65 1658.27,-187.3 1208,-140 1204.84,-139.67 1201.62,-139.29 1198.37,-138.88"/>
<polygon fill="#63b8ff" stroke="#63b8ff" points="2387.47,-193.82 2397.47,-190.3 2387.46,-186.82 2387.47,-193.82"/>
</a>
</g>
</g>
<!-- Node13 -->
<g id="Node000013" class="node">
<title>Node13</title>
<g id="a_Node000013"><a xlink:href="ChocoMountain_8cpp.html" target="_top" xlink:title=" ">
<polygon fill="white" stroke="#666666" points="1415.5,-134.5 1216.5,-134.5 1216.5,-115.5 1415.5,-115.5 1415.5,-134.5"/>
<text text-anchor="middle" x="1316" y="-122.5" font-family="Helvetica,sans-Serif" font-size="10.00">src/engine/tracks/ChocoMountain.cpp</text>
</a>
</g>
</g>
<!-- Node1&#45;&gt;Node13 -->
<g id="edge13_Node000001_Node000013" class="edge">
<title>Node1&#45;&gt;Node13</title>
<g id="a_edge13_Node000001_Node000013"><a xlink:title=" ">
<path fill="none" stroke="#63b8ff" d="M2387.2,-188.66C2226.71,-184.87 1788.59,-172.17 1425,-140 1408.94,-138.58 1391.61,-136.57 1375.59,-134.52"/>
<polygon fill="#63b8ff" stroke="#63b8ff" points="2387.28,-192.17 2397.36,-188.9 2387.45,-185.17 2387.28,-192.17"/>
</a>
</g>
</g>
<!-- Node14 -->
<g id="Node000014" class="node">
<title>Node14</title>
<g id="a_Node000014"><a xlink:href="DKJungle_8cpp.html" target="_top" xlink:title=" ">
<polygon fill="white" stroke="#666666" points="1600.5,-134.5 1433.5,-134.5 1433.5,-115.5 1600.5,-115.5 1600.5,-134.5"/>
<text text-anchor="middle" x="1517" y="-122.5" font-family="Helvetica,sans-Serif" font-size="10.00">src/engine/tracks/DKJungle.cpp</text>
</a>
</g>
</g>
<!-- Node1&#45;&gt;Node14 -->
<g id="edge14_Node000001_Node000014" class="edge">
<title>Node1&#45;&gt;Node14</title>
<g id="a_edge14_Node000001_Node000014"><a xlink:title=" ">
<path fill="none" stroke="#63b8ff" d="M2387.17,-188.19C2247.26,-183.74 1899.52,-170.35 1610,-140 1596.36,-138.57 1581.66,-136.57 1568.06,-134.53"/>
<polygon fill="#63b8ff" stroke="#63b8ff" points="2387.18,-191.69 2397.28,-188.51 2387.4,-184.7 2387.18,-191.69"/>
</a>
</g>
</g>
<!-- Node15 -->
<g id="Node000015" class="node">
<title>Node15</title>
<g id="a_Node000015"><a xlink:href="DoubleDeck_8cpp.html" target="_top" xlink:title=" ">
<polygon fill="white" stroke="#666666" points="1755.5,-140 1618.5,-140 1618.5,-110 1755.5,-110 1755.5,-140"/>
<text text-anchor="start" x="1626.5" y="-128" font-family="Helvetica,sans-Serif" font-size="10.00">src/engine/tracks/Double</text>
<text text-anchor="middle" x="1687" y="-117" font-family="Helvetica,sans-Serif" font-size="10.00">Deck.cpp</text>
</a>
</g>
</g>
<!-- Node1&#45;&gt;Node15 -->
<g id="edge15_Node000001_Node000015" class="edge">
<title>Node1&#45;&gt;Node15</title>
<g id="a_edge15_Node000001_Node000015"><a xlink:title=" ">
<path fill="none" stroke="#63b8ff" d="M2387.22,-187.62C2266.37,-182.55 1993.19,-168.73 1765,-140 1762,-139.62 1758.93,-139.21 1755.84,-138.76"/>
<polygon fill="#63b8ff" stroke="#63b8ff" points="2387.26,-191.12 2397.39,-188.04 2387.55,-184.13 2387.26,-191.12"/>
</a>
</g>
</g>
<!-- Node16 -->
<g id="Node000016" class="node">
<title>Node16</title>
<g id="a_Node000016"><a xlink:href="FrappeSnowland_8cpp.html" target="_top" xlink:title=" ">
<polygon fill="white" stroke="#666666" points="1910,-140 1774,-140 1774,-110 1910,-110 1910,-140"/>
<text text-anchor="start" x="1782" y="-128" font-family="Helvetica,sans-Serif" font-size="10.00">src/engine/tracks/Frappe</text>
<text text-anchor="middle" x="1842" y="-117" font-family="Helvetica,sans-Serif" font-size="10.00">Snowland.cpp</text>
</a>
</g>
</g>
<!-- Node1&#45;&gt;Node16 -->
<g id="edge16_Node000001_Node000016" class="edge">
<title>Node1&#45;&gt;Node16</title>
<g id="a_edge16_Node000001_Node000016"><a xlink:title=" ">
<path fill="none" stroke="#63b8ff" d="M2386.99,-185.77C2287.5,-178.7 2088.04,-162.97 1920,-140 1916.73,-139.55 1913.38,-139.07 1910.01,-138.55"/>
<polygon fill="#63b8ff" stroke="#63b8ff" points="2386.95,-189.27 2397.17,-186.49 2387.45,-182.29 2386.95,-189.27"/>
</a>
</g>
</g>
<!-- Node17 -->
<g id="Node000017" class="node">
<title>Node17</title>
<g id="a_Node000017"><a xlink:href="Harbour_8cpp.html" target="_top" xlink:title=" ">
<polygon fill="white" stroke="#666666" points="2089.5,-134.5 1928.5,-134.5 1928.5,-115.5 2089.5,-115.5 2089.5,-134.5"/>
<text text-anchor="middle" x="2009" y="-122.5" font-family="Helvetica,sans-Serif" font-size="10.00">src/engine/tracks/Harbour.cpp</text>
</a>
</g>
</g>
<!-- Node1&#45;&gt;Node17 -->
<g id="edge17_Node000001_Node000017" class="edge">
<title>Node1&#45;&gt;Node17</title>
<g id="a_edge17_Node000001_Node000017"><a xlink:title=" ">
<path fill="none" stroke="#63b8ff" d="M2387.33,-181.32C2317.09,-171.53 2199.82,-155.02 2099,-140 2087.43,-138.28 2075.02,-136.38 2063.24,-134.55"/>
<polygon fill="#63b8ff" stroke="#63b8ff" points="2386.96,-184.8 2397.34,-182.71 2387.92,-177.87 2386.96,-184.8"/>
</a>
</g>
</g>
<!-- Node18 -->
<g id="Node000018" class="node">
<title>Node18</title>
<g id="a_Node000018"><a xlink:href="KalimariDesert_8cpp.html" target="_top" xlink:title=" ">
<polygon fill="white" stroke="#666666" points="2252,-140 2108,-140 2108,-110 2252,-110 2252,-140"/>
<text text-anchor="start" x="2116" y="-128" font-family="Helvetica,sans-Serif" font-size="10.00">src/engine/tracks/Kalimari</text>
<text text-anchor="middle" x="2180" y="-117" font-family="Helvetica,sans-Serif" font-size="10.00">Desert.cpp</text>
</a>
</g>
</g>
<!-- Node1&#45;&gt;Node18 -->
<g id="edge18_Node000001_Node000018" class="edge">
<title>Node1&#45;&gt;Node18</title>
<g id="a_edge18_Node000001_Node000018"><a xlink:title=" ">
<path fill="none" stroke="#63b8ff" d="M2387.43,-175.17C2342.75,-164.58 2283.02,-150.42 2239.14,-140.02"/>
<polygon fill="#63b8ff" stroke="#63b8ff" points="2386.76,-178.61 2397.3,-177.51 2388.38,-171.8 2386.76,-178.61"/>
</a>
</g>
</g>
<!-- Node19 -->
<g id="Node000019" class="node">
<title>Node19</title>
<g id="a_Node000019"><a xlink:href="KoopaTroopaBeach_8cpp.html" target="_top" xlink:title=" ">
<polygon fill="white" stroke="#666666" points="2435.5,-140 2270.5,-140 2270.5,-110 2435.5,-110 2435.5,-140"/>
<text text-anchor="start" x="2278.5" y="-128" font-family="Helvetica,sans-Serif" font-size="10.00">src/engine/tracks/KoopaTroopa</text>
<text text-anchor="middle" x="2353" y="-117" font-family="Helvetica,sans-Serif" font-size="10.00">Beach.cpp</text>
</a>
</g>
</g>
<!-- Node1&#45;&gt;Node19 -->
<g id="edge19_Node000001_Node000019" class="edge">
<title>Node1&#45;&gt;Node19</title>
<g id="a_edge19_Node000001_Node000019"><a xlink:title=" ">
<path fill="none" stroke="#63b8ff" d="M2419.73,-170.03C2405.05,-160.34 2387.77,-148.94 2374.47,-140.16"/>
<polygon fill="#63b8ff" stroke="#63b8ff" points="2418.2,-173.21 2428.47,-175.8 2422.05,-167.37 2418.2,-173.21"/>
</a>
</g>
</g>
<!-- Node20 -->
<g id="Node000020" class="node">
<title>Node20</title>
<g id="a_Node000020"><a xlink:href="LuigiRaceway_8cpp.html" target="_top" xlink:title=" ">
<polygon fill="white" stroke="#666666" points="2642.5,-134.5 2453.5,-134.5 2453.5,-115.5 2642.5,-115.5 2642.5,-134.5"/>
<text text-anchor="middle" x="2548" y="-122.5" font-family="Helvetica,sans-Serif" font-size="10.00">src/engine/tracks/LuigiRaceway.cpp</text>
</a>
</g>
</g>
<!-- Node1&#45;&gt;Node20 -->
<g id="edge20_Node000001_Node000020" class="edge">
<title>Node1&#45;&gt;Node20</title>
<g id="a_edge20_Node000001_Node000020"><a xlink:title=" ">
<path fill="none" stroke="#63b8ff" d="M2480.32,-170.2C2498.56,-158.29 2520.85,-143.73 2534.74,-134.66"/>
<polygon fill="#63b8ff" stroke="#63b8ff" points="2478.21,-167.4 2471.75,-175.8 2482.04,-173.26 2478.21,-167.4"/>
</a>
</g>
</g>
<!-- Node21 -->
<g id="Node000021" class="node">
<title>Node21</title>
<g id="a_Node000021"><a xlink:href="MarioRaceway_8cpp.html" target="_top" xlink:title=" ">
<polygon fill="white" stroke="#666666" points="2855,-134.5 2661,-134.5 2661,-115.5 2855,-115.5 2855,-134.5"/>
<text text-anchor="middle" x="2758" y="-122.5" font-family="Helvetica,sans-Serif" font-size="10.00">src/engine/tracks/MarioRaceway.cpp</text>
</a>
</g>
</g>
<!-- Node1&#45;&gt;Node21 -->
<g id="edge21_Node000001_Node000021" class="edge">
<title>Node1&#45;&gt;Node21</title>
<g id="a_edge21_Node000001_Node000021"><a xlink:title=" ">
<path fill="none" stroke="#63b8ff" d="M2512.5,-177.01C2573.51,-164.34 2664.59,-145.41 2716.95,-134.53"/>
<polygon fill="#63b8ff" stroke="#63b8ff" points="2511.68,-173.61 2502.6,-179.07 2513.1,-180.46 2511.68,-173.61"/>
</a>
</g>
</g>
<!-- Node22 -->
<g id="Node000022" class="node">
<title>Node22</title>
<g id="a_Node000022"><a xlink:href="MooMooFarm_8cpp.html" target="_top" xlink:title=" ">
<polygon fill="white" stroke="#666666" points="3018.5,-140 2873.5,-140 2873.5,-110 3018.5,-110 3018.5,-140"/>
<text text-anchor="start" x="2881.5" y="-128" font-family="Helvetica,sans-Serif" font-size="10.00">src/engine/tracks/MooMoo</text>
<text text-anchor="middle" x="2946" y="-117" font-family="Helvetica,sans-Serif" font-size="10.00">Farm.cpp</text>
</a>
</g>
</g>
<!-- Node1&#45;&gt;Node22 -->
<g id="edge22_Node000001_Node000022" class="edge">
<title>Node1&#45;&gt;Node22</title>
<g id="a_edge22_Node000001_Node000022"><a xlink:title=" ">
<path fill="none" stroke="#63b8ff" d="M2512.78,-183.38C2594,-174.6 2739.82,-158.09 2864,-140 2867,-139.56 2870.06,-139.1 2873.15,-138.63"/>
<polygon fill="#63b8ff" stroke="#63b8ff" points="2512.29,-179.92 2502.72,-184.47 2513.04,-186.88 2512.29,-179.92"/>
</a>
</g>
</g>
<!-- Node23 -->
<g id="Node000023" class="node">
<title>Node23</title>
<g id="a_Node000023"><a xlink:href="PodiumCeremony_8cpp.html" target="_top" xlink:title=" ">
<polygon fill="white" stroke="#666666" points="3177,-140 3037,-140 3037,-110 3177,-110 3177,-140"/>
<text text-anchor="start" x="3045" y="-128" font-family="Helvetica,sans-Serif" font-size="10.00">src/engine/tracks/Podium</text>
<text text-anchor="middle" x="3107" y="-117" font-family="Helvetica,sans-Serif" font-size="10.00">Ceremony.cpp</text>
</a>
</g>
</g>
<!-- Node1&#45;&gt;Node23 -->
<g id="edge23_Node000001_Node000023" class="edge">
<title>Node1&#45;&gt;Node23</title>
<g id="a_edge23_Node000001_Node000023"><a xlink:title=" ">
<path fill="none" stroke="#63b8ff" d="M2513.01,-186.39C2619.45,-179.89 2841.48,-164.55 3028,-140 3030.9,-139.62 3033.86,-139.21 3036.84,-138.77"/>
<polygon fill="#63b8ff" stroke="#63b8ff" points="2512.54,-182.92 2502.77,-187.01 2512.96,-189.9 2512.54,-182.92"/>
</a>
</g>
</g>
<!-- Node24 -->
<g id="Node000024" class="node">
<title>Node24</title>
<g id="a_Node000024"><a xlink:href="RainbowRoad_8cpp.html" target="_top" xlink:title=" ">
<polygon fill="white" stroke="#666666" points="3340.5,-140 3195.5,-140 3195.5,-110 3340.5,-110 3340.5,-140"/>
<text text-anchor="start" x="3203.5" y="-128" font-family="Helvetica,sans-Serif" font-size="10.00">src/engine/tracks/Rainbow</text>
<text text-anchor="middle" x="3268" y="-117" font-family="Helvetica,sans-Serif" font-size="10.00">Road.cpp</text>
</a>
</g>
</g>
<!-- Node1&#45;&gt;Node24 -->
<g id="edge24_Node000001_Node000024" class="edge">
<title>Node1&#45;&gt;Node24</title>
<g id="a_edge24_Node000001_Node000024"><a xlink:title=" ">
<path fill="none" stroke="#63b8ff" d="M2513.18,-187.87C2640.72,-183.08 2937.99,-169.52 3186,-140 3189.01,-139.64 3192.08,-139.25 3195.18,-138.83"/>
<polygon fill="#63b8ff" stroke="#63b8ff" points="2512.69,-184.38 2502.83,-188.25 2512.95,-191.38 2512.69,-184.38"/>
</a>
</g>
</g>
<!-- Node25 -->
<g id="Node000025" class="node">
<title>Node25</title>
<g id="a_Node000025"><a xlink:href="RoyalRaceway_8cpp.html" target="_top" xlink:title=" ">
<polygon fill="white" stroke="#666666" points="3553,-134.5 3359,-134.5 3359,-115.5 3553,-115.5 3553,-134.5"/>
<text text-anchor="middle" x="3456" y="-122.5" font-family="Helvetica,sans-Serif" font-size="10.00">src/engine/tracks/RoyalRaceway.cpp</text>
</a>
</g>
</g>
<!-- Node1&#45;&gt;Node25 -->
<g id="edge25_Node000001_Node000025" class="edge">
<title>Node1&#45;&gt;Node25</title>
<g id="a_edge25_Node000001_Node000025"><a xlink:title=" ">
<path fill="none" stroke="#63b8ff" d="M2512.77,-188.15C2659.51,-183.47 3036.37,-169.38 3350,-140 3365.43,-138.55 3382.07,-136.56 3397.5,-134.53"/>
<polygon fill="#63b8ff" stroke="#63b8ff" points="2512.49,-184.66 2502.6,-188.47 2512.71,-191.65 2512.49,-184.66"/>
</a>
</g>
</g>
<!-- Node26 -->
<g id="Node000026" class="node">
<title>Node26</title>
<g id="a_Node000026"><a xlink:href="SherbetLand_8cpp.html" target="_top" xlink:title=" ">
<polygon fill="white" stroke="#666666" points="3711,-140 3571,-140 3571,-110 3711,-110 3711,-140"/>
<text text-anchor="start" x="3579" y="-128" font-family="Helvetica,sans-Serif" font-size="10.00">src/engine/tracks/Sherbet</text>
<text text-anchor="middle" x="3641" y="-117" font-family="Helvetica,sans-Serif" font-size="10.00">Land.cpp</text>
</a>
</g>
</g>
<!-- Node1&#45;&gt;Node26 -->
<g id="edge26_Node000001_Node000026" class="edge">
<title>Node1&#45;&gt;Node26</title>
<g id="a_edge26_Node000001_Node000026"><a xlink:title=" ">
<path fill="none" stroke="#63b8ff" d="M2512.82,-190.04C2682.55,-189.53 3164.32,-183.99 3562,-140 3564.91,-139.68 3567.87,-139.32 3570.86,-138.92"/>
<polygon fill="#63b8ff" stroke="#63b8ff" points="2512.57,-186.54 2502.58,-190.07 2512.59,-193.54 2512.57,-186.54"/>
</a>
</g>
</g>
<!-- Node27 -->
<g id="Node000027" class="node">
<title>Node27</title>
<g id="a_Node000027"><a xlink:href="Skyscraper_8cpp.html" target="_top" xlink:title=" ">
<polygon fill="white" stroke="#666666" points="3905,-134.5 3729,-134.5 3729,-115.5 3905,-115.5 3905,-134.5"/>
<text text-anchor="middle" x="3817" y="-122.5" font-family="Helvetica,sans-Serif" font-size="10.00">src/engine/tracks/Skyscraper.cpp</text>
</a>
</g>
</g>
<!-- Node1&#45;&gt;Node27 -->
<g id="edge27_Node000001_Node000027" class="edge">
<title>Node1&#45;&gt;Node27</title>
<g id="a_edge27_Node000001_Node000027"><a xlink:title=" ">
<path fill="none" stroke="#63b8ff" d="M2512.85,-189.84C2698.11,-188.85 3257.95,-182.32 3720,-140 3734.66,-138.66 3750.48,-136.62 3765.02,-134.52"/>
<polygon fill="#63b8ff" stroke="#63b8ff" points="2512.74,-186.34 2502.75,-189.89 2512.77,-193.34 2512.74,-186.34"/>
</a>
</g>
</g>
<!-- Node28 -->
<g id="Node000028" class="node">
<title>Node28</title>
<g id="a_Node000028"><a xlink:href="TestTrack_8cpp.html" target="_top" xlink:title=" ">
<polygon fill="white" stroke="#666666" points="4091,-134.5 3923,-134.5 3923,-115.5 4091,-115.5 4091,-134.5"/>
<text text-anchor="middle" x="4007" y="-122.5" font-family="Helvetica,sans-Serif" font-size="10.00">src/engine/tracks/TestTrack.cpp</text>
</a>
</g>
</g>
<!-- Node1&#45;&gt;Node28 -->
<g id="edge28_Node000001_Node000028" class="edge">
<title>Node1&#45;&gt;Node28</title>
<g id="a_edge28_Node000001_Node000028"><a xlink:title=" ">
<path fill="none" stroke="#63b8ff" d="M2512.84,-190.44C2715.99,-191.3 3373.23,-189.77 3914,-140 3928.15,-138.7 3943.42,-136.66 3957.42,-134.55"/>
<polygon fill="#63b8ff" stroke="#63b8ff" points="2512.67,-186.94 2502.66,-190.39 2512.64,-193.94 2512.67,-186.94"/>
</a>
</g>
</g>
<!-- Node29 -->
<g id="Node000029" class="node">
<title>Node29</title>
<g id="a_Node000029"><a xlink:href="ToadsTurnpike_8cpp.html" target="_top" xlink:title=" ">
<polygon fill="white" stroke="#666666" points="4300.5,-134.5 4109.5,-134.5 4109.5,-115.5 4300.5,-115.5 4300.5,-134.5"/>
<text text-anchor="middle" x="4205" y="-122.5" font-family="Helvetica,sans-Serif" font-size="10.00">src/engine/tracks/ToadsTurnpike.cpp</text>
</a>
</g>
</g>
<!-- Node1&#45;&gt;Node29 -->
<g id="edge29_Node000001_Node000029" class="edge">
<title>Node1&#45;&gt;Node29</title>
<g id="a_edge29_Node000001_Node000029"><a xlink:title=" ">
<path fill="none" stroke="#63b8ff" d="M2512.86,-190.41C2732.05,-191.33 3482.82,-190.36 4100,-140 4116.04,-138.69 4133.38,-136.64 4149.26,-134.51"/>
<polygon fill="#63b8ff" stroke="#63b8ff" points="2512.84,-186.91 2502.82,-190.36 2512.81,-193.91 2512.84,-186.91"/>
</a>
</g>
</g>
<!-- Node30 -->
<g id="Node000030" class="node">
<title>Node30</title>
<g id="a_Node000030"><a xlink:href="WarioStadium_8cpp.html" target="_top" xlink:title=" ">
<polygon fill="white" stroke="#666666" points="4509.5,-134.5 4318.5,-134.5 4318.5,-115.5 4509.5,-115.5 4509.5,-134.5"/>
<text text-anchor="middle" x="4414" y="-122.5" font-family="Helvetica,sans-Serif" font-size="10.00">src/engine/tracks/WarioStadium.cpp</text>
</a>
</g>
</g>
<!-- Node1&#45;&gt;Node30 -->
<g id="edge30_Node000001_Node000030" class="edge">
<title>Node1&#45;&gt;Node30</title>
<g id="a_edge30_Node000001_Node000030"><a xlink:title=" ">
<path fill="none" stroke="#63b8ff" d="M2512.62,-189.22C2794.69,-185.56 3949.2,-169.05 4310,-140 4325.98,-138.71 4343.26,-136.66 4359.07,-134.51"/>
<polygon fill="#63b8ff" stroke="#63b8ff" points="2512.52,-185.72 2502.56,-189.35 2512.61,-192.72 2512.52,-185.72"/>
</a>
</g>
</g>
<!-- Node31 -->
<g id="Node000031" class="node">
<title>Node31</title>
<g id="a_Node000031"><a xlink:href="YoshiValley_8cpp.html" target="_top" xlink:title=" ">
<polygon fill="white" stroke="#666666" points="4704,-134.5 4528,-134.5 4528,-115.5 4704,-115.5 4704,-134.5"/>
<text text-anchor="middle" x="4616" y="-122.5" font-family="Helvetica,sans-Serif" font-size="10.00">src/engine/tracks/YoshiValley.cpp</text>
</a>
</g>
</g>
<!-- Node1&#45;&gt;Node31 -->
<g id="edge31_Node000001_Node000031" class="edge">
<title>Node1&#45;&gt;Node31</title>
<g id="a_edge31_Node000001_Node000031"><a xlink:title=" ">
<path fill="none" stroke="#63b8ff" d="M2513.12,-189.49C2815.15,-186.89 4114.95,-173.92 4519,-140 4534.01,-138.74 4550.23,-136.68 4565.03,-134.52"/>
<polygon fill="#63b8ff" stroke="#63b8ff" points="2512.77,-185.99 2502.8,-189.58 2512.83,-192.99 2512.77,-185.99"/>
</a>
</g>
</g>
<!-- Node32 -->
<g id="Node000032" class="node">
<title>Node32</title>
<g id="a_Node000032"><a xlink:href="Game_8cpp.html" target="_top" xlink:title=" ">
<polygon fill="white" stroke="#666666" points="4828,-134.5 4722,-134.5 4722,-115.5 4828,-115.5 4828,-134.5"/>
<text text-anchor="middle" x="4775" y="-122.5" font-family="Helvetica,sans-Serif" font-size="10.00">src/port/Game.cpp</text>
</a>
</g>
</g>
<!-- Node1&#45;&gt;Node32 -->
<g id="edge32_Node000001_Node000032" class="edge">
<title>Node1&#45;&gt;Node32</title>
<g id="a_edge32_Node000001_Node000032"><a xlink:title=" ">
<path fill="none" stroke="#63b8ff" d="M2513.3,-190.31C2832.78,-191.62 4270.2,-194.33 4713,-140 4722.75,-138.8 4733.21,-136.75 4742.72,-134.57"/>
<polygon fill="#63b8ff" stroke="#63b8ff" points="2512.87,-186.81 2502.85,-190.27 2512.84,-193.81 2512.87,-186.81"/>
</a>
</g>
</g>
<!-- Node3 -->
<g id="Node000003" class="node">
<title>Node3</title>
<g id="a_Node000003"><a xlink:href="RaceManager_8cpp.html" target="_top" xlink:title=" ">
<polygon fill="white" stroke="#666666" points="156,-74 0,-74 0,-55 156,-55 156,-74"/>
<text text-anchor="middle" x="78" y="-62" font-family="Helvetica,sans-Serif" font-size="10.00">src/engine/RaceManager.cpp</text>
</a>
</g>
</g>
<!-- Node2&#45;&gt;Node3 -->
<g id="edge2_Node000002_Node000003" class="edge">
<title>Node2&#45;&gt;Node3</title>
<g id="a_edge2_Node000002_Node000003"><a xlink:title=" ">
<path fill="none" stroke="#63b8ff" d="M270.59,-113.04C224.78,-101.73 154.3,-84.33 112.5,-74.02"/>
<polygon fill="#63b8ff" stroke="#63b8ff" points="269.99,-116.5 280.54,-115.49 271.67,-109.7 269.99,-116.5"/>
</a>
</g>
</g>
<!-- Node4 -->
<g id="Node000004" class="node">
<title>Node4</title>
<g id="a_Node000004"><a xlink:href="RegisterContent_8cpp.html" target="_top" xlink:title=" ">
<polygon fill="white" stroke="#666666" points="343.5,-74 174.5,-74 174.5,-55 343.5,-55 343.5,-74"/>
<text text-anchor="middle" x="259" y="-62" font-family="Helvetica,sans-Serif" font-size="10.00">src/engine/RegisterContent.cpp</text>
</a>
</g>
</g>
<!-- Node2&#45;&gt;Node4 -->
<g id="edge3_Node000002_Node000004" class="edge">
<title>Node2&#45;&gt;Node4</title>
<g id="a_edge3_Node000002_Node000004"><a xlink:title=" ">
<path fill="none" stroke="#63b8ff" d="M299.77,-108.09C289.31,-97.17 275.83,-83.08 267.3,-74.17"/>
<polygon fill="#63b8ff" stroke="#63b8ff" points="297.29,-110.56 306.74,-115.37 302.35,-105.72 297.29,-110.56"/>
</a>
</g>
</g>
<!-- Node5 -->
<g id="Node000005" class="node">
<title>Node5</title>
<g id="a_Node000005"><a xlink:href="ContentBrowser_8cpp.html" target="_top" xlink:title=" ">
<polygon fill="white" stroke="#666666" points="454,-19 288,-19 288,0 454,0 454,-19"/>
<text text-anchor="middle" x="371" y="-7" font-family="Helvetica,sans-Serif" font-size="10.00">src/port/ui/ContentBrowser.cpp</text>
</a>
</g>
</g>
<!-- Node2&#45;&gt;Node5 -->
<g id="edge4_Node000002_Node000005" class="edge">
<title>Node2&#45;&gt;Node5</title>
<g id="a_edge4_Node000002_Node000005"><a xlink:title=" ">
<path fill="none" stroke="#63b8ff" d="M329.3,-107.73C336.92,-98.39 345.93,-86.13 352,-74 361.27,-55.48 366.9,-31.61 369.42,-19.07"/>
<polygon fill="#63b8ff" stroke="#63b8ff" points="326.6,-105.5 322.83,-115.41 331.95,-110.02 326.6,-105.5"/>
</a>
</g>
</g>
<!-- Node6 -->
<g id="Node000006" class="node">
<title>Node6</title>
<g id="a_Node000006"><a xlink:href="ContentBrowser_8h.html" target="_top" xlink:title=" ">
<polygon fill="white" stroke="#666666" points="554.5,-74 399.5,-74 399.5,-55 554.5,-55 554.5,-74"/>
<text text-anchor="middle" x="477" y="-62" font-family="Helvetica,sans-Serif" font-size="10.00">src/port/ui/ContentBrowser.h</text>
</a>
</g>
</g>
<!-- Node2&#45;&gt;Node6 -->
<g id="edge5_Node000002_Node000006" class="edge">
<title>Node2&#45;&gt;Node6</title>
<g id="a_edge5_Node000002_Node000006"><a xlink:title=" ">
<path fill="none" stroke="#63b8ff" d="M348.16,-112.02C379.49,-100.71 425.69,-84.03 453.42,-74.02"/>
<polygon fill="#63b8ff" stroke="#63b8ff" points="346.77,-108.81 338.56,-115.49 349.15,-115.39 346.77,-108.81"/>
</a>
</g>
</g>
<!-- Node6&#45;&gt;Node5 -->
<g id="edge6_Node000006_Node000005" class="edge">
<title>Node6&#45;&gt;Node5</title>
<g id="a_edge6_Node000006_Node000005"><a xlink:title=" ">
<path fill="none" stroke="#63b8ff" d="M451,-50.5C431.5,-40.75 405.35,-27.68 388.34,-19.17"/>
<polygon fill="#63b8ff" stroke="#63b8ff" points="449.46,-53.64 459.97,-54.98 452.59,-47.38 449.46,-53.64"/>
</a>
</g>
</g>
<!-- Node7 -->
<g id="Node000007" class="node">
<title>Node7</title>
<g id="a_Node000007"><a xlink:href="ImguiUI_8cpp.html" target="_top" xlink:title=" ">
<polygon fill="white" stroke="#666666" points="599.5,-19 472.5,-19 472.5,0 599.5,0 599.5,-19"/>
<text text-anchor="middle" x="536" y="-7" font-family="Helvetica,sans-Serif" font-size="10.00">src/port/ui/ImguiUI.cpp</text>
</a>
</g>
</g>
<!-- Node6&#45;&gt;Node7 -->
<g id="edge7_Node000006_Node000007" class="edge">
<title>Node6&#45;&gt;Node7</title>
<g id="a_edge7_Node000006_Node000007"><a xlink:title=" ">
<path fill="none" stroke="#63b8ff" d="M494.2,-48.04C504.67,-38.64 517.65,-26.98 526.35,-19.17"/>
<polygon fill="#63b8ff" stroke="#63b8ff" points="491.58,-45.7 486.48,-54.98 496.26,-50.91 491.58,-45.7"/>
</a>
</g>
</g>
</g>
</svg>
