<?xml version="1.0" encoding="UTF-8" standalone="no"?>
<!DOCTYPE svg PUBLIC "-//W3C//DTD SVG 1.1//EN"
 "http://www.w3.org/Graphics/SVG/1.1/DTD/svg11.dtd">
<!-- Generated by graphviz version 2.43.0 (0)
 -->
<!-- Title: src/actors/box_truck/render.inc.c Pages: 1 -->
<svg width="778pt" height="335pt"
 viewBox="0.00 0.00 778.06 335.00" xmlns="http://www.w3.org/2000/svg" xmlns:xlink="http://www.w3.org/1999/xlink">
<g id="graph0" class="graph" transform="scale(1 1) rotate(0) translate(4 331)">
<title>src/actors/box_truck/render.inc.c</title>
<!-- Node1 -->
<g id="Node000001" class="node">
<title>Node1</title>
<g id="a_Node000001"><a xlink:title=" ">
<polygon fill="#999999" stroke="#666666" points="551.5,-327 436.5,-327 436.5,-297 551.5,-297 551.5,-327"/>
<text text-anchor="start" x="444.5" y="-315" font-family="Helvetica,sans-Serif" font-size="10.00">src/actors/box_truck</text>
<text text-anchor="middle" x="494" y="-304" font-family="Helvetica,sans-Serif" font-size="10.00">/render.inc.c</text>
</a>
</g>
</g>
<!-- Node2 -->
<g id="Node000002" class="node">
<title>Node2</title>
<g id="a_Node000002"><a xlink:href="actors_8h.html" target="_top" xlink:title=" ">
<polygon fill="white" stroke="#666666" points="293,-261 237,-261 237,-242 293,-242 293,-261"/>
<text text-anchor="middle" x="265" y="-249" font-family="Helvetica,sans-Serif" font-size="10.00">actors.h</text>
</a>
</g>
</g>
<!-- Node1&#45;&gt;Node2 -->
<g id="edge1_Node000001_Node000002" class="edge">
<title>Node1&#45;&gt;Node2</title>
<g id="a_edge1_Node000001_Node000002"><a xlink:title=" ">
<path fill="none" stroke="#63b8ff" d="M439.15,-296.99C397.18,-286.27 340.38,-271.76 303.22,-262.26"/>
<polygon fill="#63b8ff" stroke="#63b8ff" points="303.85,-258.81 293.3,-259.73 302.12,-265.59 303.85,-258.81"/>
</a>
</g>
</g>
<!-- Node11 -->
<g id="Node000011" class="node">
<title>Node11</title>
<g id="a_Node000011"><a xlink:title=" ">
<polygon fill="#e0e0e0" stroke="#999999" points="582,-129 504,-129 504,-110 582,-110 582,-129"/>
<text text-anchor="middle" x="543" y="-117" font-family="Helvetica,sans-Serif" font-size="10.00">libultra/gbi.h</text>
</a>
</g>
</g>
<!-- Node1&#45;&gt;Node11 -->
<g id="edge18_Node000001_Node000011" class="edge">
<title>Node1&#45;&gt;Node11</title>
<g id="a_edge18_Node000001_Node000011"><a xlink:title=" ">
<path fill="none" stroke="#63b8ff" d="M490.4,-296.95C484.25,-270 474.2,-209.73 494,-165 499.32,-152.97 509.68,-142.8 519.51,-135.24"/>
<polygon fill="#63b8ff" stroke="#63b8ff" points="521.76,-137.93 527.87,-129.27 517.7,-132.23 521.76,-137.93"/>
</a>
</g>
</g>
<!-- Node12 -->
<g id="Node000012" class="node">
<title>Node12</title>
<g id="a_Node000012"><a xlink:href="main_8h.html" target="_top" xlink:title=" ">
<polygon fill="white" stroke="#666666" points="445,-261 395,-261 395,-242 445,-242 445,-261"/>
<text text-anchor="middle" x="420" y="-249" font-family="Helvetica,sans-Serif" font-size="10.00">main.h</text>
</a>
</g>
</g>
<!-- Node1&#45;&gt;Node12 -->
<g id="edge19_Node000001_Node000012" class="edge">
<title>Node1&#45;&gt;Node12</title>
<g id="a_edge19_Node000001_Node000012"><a xlink:title=" ">
<path fill="none" stroke="#63b8ff" d="M476.09,-296.84C464.91,-288 450.52,-276.63 439.12,-267.62"/>
<polygon fill="#63b8ff" stroke="#63b8ff" points="441.1,-264.72 431.09,-261.27 436.76,-270.21 441.1,-264.72"/>
</a>
</g>
</g>
<!-- Node16 -->
<g id="Node000016" class="node">
<title>Node16</title>
<g id="a_Node000016"><a xlink:href="defines_8h.html" target="_top" xlink:title=" ">
<polygon fill="white" stroke="#666666" points="640.5,-261 579.5,-261 579.5,-242 640.5,-242 640.5,-261"/>
<text text-anchor="middle" x="610" y="-249" font-family="Helvetica,sans-Serif" font-size="10.00">defines.h</text>
</a>
</g>
</g>
<!-- Node1&#45;&gt;Node16 -->
<g id="edge26_Node000001_Node000016" class="edge">
<title>Node1&#45;&gt;Node16</title>
<g id="a_edge26_Node000001_Node000016"><a xlink:title=" ">
<path fill="none" stroke="#63b8ff" d="M521.78,-296.99C540.62,-287.49 565.35,-275.02 583.84,-265.69"/>
<polygon fill="#63b8ff" stroke="#63b8ff" points="585.52,-268.77 592.87,-261.14 582.36,-262.52 585.52,-268.77"/>
</a>
</g>
</g>
<!-- Node17 -->
<g id="Node000017" class="node">
<title>Node17</title>
<g id="a_Node000017"><a xlink:href="toads__turnpike__offsets_8h.html" target="_top" xlink:title=" ">
<polygon fill="white" stroke="#666666" points="765,-206 643,-206 643,-165 765,-165 765,-206"/>
<text text-anchor="start" x="651" y="-194" font-family="Helvetica,sans-Serif" font-size="10.00">assets/models/tracks</text>
<text text-anchor="start" x="651" y="-183" font-family="Helvetica,sans-Serif" font-size="10.00">/toads_turnpike/toads</text>
<text text-anchor="middle" x="704" y="-172" font-family="Helvetica,sans-Serif" font-size="10.00">_turnpike_offsets.h</text>
</a>
</g>
</g>
<!-- Node1&#45;&gt;Node17 -->
<g id="edge27_Node000001_Node000017" class="edge">
<title>Node1&#45;&gt;Node17</title>
<g id="a_edge27_Node000001_Node000017"><a xlink:title=" ">
<path fill="none" stroke="#63b8ff" d="M507.04,-296.76C521.51,-281.61 546.11,-257.71 571,-242 591,-229.38 614.36,-218.51 635.87,-209.82"/>
<polygon fill="#63b8ff" stroke="#63b8ff" points="637.27,-213.04 645.28,-206.11 634.7,-206.53 637.27,-213.04"/>
</a>
</g>
</g>
<!-- Node19 -->
<g id="Node000019" class="node">
<title>Node19</title>
<g id="a_Node000019"><a xlink:href="models_2tracks_2toads__turnpike_2toads__turnpike__data_8h.html" target="_top" xlink:title=" ">
<polygon fill="white" stroke="#666666" points="625,-206 503,-206 503,-165 625,-165 625,-206"/>
<text text-anchor="start" x="511" y="-194" font-family="Helvetica,sans-Serif" font-size="10.00">assets/models/tracks</text>
<text text-anchor="start" x="511" y="-183" font-family="Helvetica,sans-Serif" font-size="10.00">/toads_turnpike/toads</text>
<text text-anchor="middle" x="564" y="-172" font-family="Helvetica,sans-Serif" font-size="10.00">_turnpike_data.h</text>
</a>
</g>
</g>
<!-- Node1&#45;&gt;Node19 -->
<g id="edge31_Node000001_Node000019" class="edge">
<title>Node1&#45;&gt;Node19</title>
<g id="a_edge31_Node000001_Node000019"><a xlink:title=" ">
<path fill="none" stroke="#63b8ff" d="M502.03,-296.72C513.16,-276.92 533.52,-240.7 547.86,-215.2"/>
<polygon fill="#63b8ff" stroke="#63b8ff" points="551,-216.77 552.85,-206.34 544.89,-213.34 551,-216.77"/>
</a>
</g>
</g>
<!-- Node3 -->
<g id="Node000003" class="node">
<title>Node3</title>
<g id="a_Node000003"><a xlink:href="actor__types_8h.html" target="_top" xlink:title=" ">
<polygon fill="white" stroke="#666666" points="221.5,-129 138.5,-129 138.5,-110 221.5,-110 221.5,-129"/>
<text text-anchor="middle" x="180" y="-117" font-family="Helvetica,sans-Serif" font-size="10.00">actor_types.h</text>
</a>
</g>
</g>
<!-- Node2&#45;&gt;Node3 -->
<g id="edge2_Node000002_Node000003" class="edge">
<title>Node2&#45;&gt;Node3</title>
<g id="a_edge2_Node000002_Node000003"><a xlink:title=" ">
<path fill="none" stroke="#63b8ff" d="M262.29,-241.94C256.97,-225.89 244.07,-190.59 226,-165 218.34,-154.16 207.82,-143.75 198.77,-135.73"/>
<polygon fill="#63b8ff" stroke="#63b8ff" points="200.87,-132.92 191,-129.08 196.32,-138.24 200.87,-132.92"/>
</a>
</g>
</g>
<!-- Node9 -->
<g id="Node000009" class="node">
<title>Node9</title>
<g id="a_Node000009"><a xlink:href="code__800029B0_8h.html" target="_top" xlink:title=" ">
<polygon fill="white" stroke="#666666" points="217.5,-195 114.5,-195 114.5,-176 217.5,-176 217.5,-195"/>
<text text-anchor="middle" x="166" y="-183" font-family="Helvetica,sans-Serif" font-size="10.00">code_800029B0.h</text>
</a>
</g>
</g>
<!-- Node2&#45;&gt;Node9 -->
<g id="edge10_Node000002_Node000009" class="edge">
<title>Node2&#45;&gt;Node9</title>
<g id="a_edge10_Node000002_Node000009"><a xlink:title=" ">
<path fill="none" stroke="#63b8ff" d="M251.65,-241.87C235.34,-231.32 207.51,-213.34 188.01,-200.73"/>
<polygon fill="#63b8ff" stroke="#63b8ff" points="189.75,-197.69 179.46,-195.2 185.95,-203.57 189.75,-197.69"/>
</a>
</g>
</g>
<!-- Node10 -->
<g id="Node000010" class="node">
<title>Node10</title>
<g id="a_Node000010"><a xlink:href="camera_8h.html" target="_top" xlink:title=" ">
<polygon fill="white" stroke="#666666" points="315,-129 253,-129 253,-110 315,-110 315,-129"/>
<text text-anchor="middle" x="284" y="-117" font-family="Helvetica,sans-Serif" font-size="10.00">camera.h</text>
</a>
</g>
</g>
<!-- Node2&#45;&gt;Node10 -->
<g id="edge17_Node000002_Node000010" class="edge">
<title>Node2&#45;&gt;Node10</title>
<g id="a_edge17_Node000002_Node000010"><a xlink:title=" ">
<path fill="none" stroke="#63b8ff" d="M266.25,-241.97C269.28,-221.23 277.1,-167.74 281.27,-139.16"/>
<polygon fill="#63b8ff" stroke="#63b8ff" points="284.74,-139.63 282.72,-129.23 277.81,-138.62 284.74,-139.63"/>
</a>
</g>
</g>
<!-- Node4 -->
<g id="Node000004" class="node">
<title>Node4</title>
<g id="a_Node000004"><a xlink:title=" ">
<polygon fill="#e0e0e0" stroke="#999999" points="365,-19 285,-19 285,0 365,0 365,-19"/>
<text text-anchor="middle" x="325" y="-7" font-family="Helvetica,sans-Serif" font-size="10.00">libultraship.h</text>
</a>
</g>
</g>
<!-- Node3&#45;&gt;Node4 -->
<g id="edge3_Node000003_Node000004" class="edge">
<title>Node3&#45;&gt;Node4</title>
<g id="a_edge3_Node000003_Node000004"><a xlink:title=" ">
<path fill="none" stroke="#63b8ff" d="M183.53,-109.95C189.44,-96.56 202.55,-70.57 221,-55 238.8,-39.98 262.43,-29.33 282.66,-22.22"/>
<polygon fill="#63b8ff" stroke="#63b8ff" points="283.9,-25.49 292.28,-19.01 281.69,-18.85 283.9,-25.49"/>
</a>
</g>
</g>
<!-- Node5 -->
<g id="Node000005" class="node">
<title>Node5</title>
<g id="a_Node000005"><a xlink:href="macros_8h.html" target="_top" xlink:title=" ">
<polygon fill="white" stroke="#666666" points="62,-74 0,-74 0,-55 62,-55 62,-74"/>
<text text-anchor="middle" x="31" y="-62" font-family="Helvetica,sans-Serif" font-size="10.00">macros.h</text>
</a>
</g>
</g>
<!-- Node3&#45;&gt;Node5 -->
<g id="edge4_Node000003_Node000005" class="edge">
<title>Node3&#45;&gt;Node5</title>
<g id="a_edge4_Node000003_Node000005"><a xlink:title=" ">
<path fill="none" stroke="#63b8ff" d="M156.06,-109.98C131.44,-101.23 92.88,-87.51 65.08,-77.62"/>
<polygon fill="#63b8ff" stroke="#63b8ff" points="65.97,-74.22 55.38,-74.17 63.62,-80.82 65.97,-74.22"/>
</a>
</g>
</g>
<!-- Node7 -->
<g id="Node000007" class="node">
<title>Node7</title>
<g id="a_Node000007"><a xlink:href="common__structs_8h.html" target="_top" xlink:title=" ">
<polygon fill="white" stroke="#666666" points="337.5,-74 230.5,-74 230.5,-55 337.5,-55 337.5,-74"/>
<text text-anchor="middle" x="284" y="-62" font-family="Helvetica,sans-Serif" font-size="10.00">common_structs.h</text>
</a>
</g>
</g>
<!-- Node3&#45;&gt;Node7 -->
<g id="edge7_Node000003_Node000007" class="edge">
<title>Node3&#45;&gt;Node7</title>
<g id="a_edge7_Node000003_Node000007"><a xlink:title=" ">
<path fill="none" stroke="#63b8ff" d="M196.71,-109.98C213.21,-101.57 238.7,-88.59 257.88,-78.81"/>
<polygon fill="#63b8ff" stroke="#63b8ff" points="259.67,-81.83 266.99,-74.17 256.49,-75.59 259.67,-81.83"/>
</a>
</g>
</g>
<!-- Node8 -->
<g id="Node000008" class="node">
<title>Node8</title>
<g id="a_Node000008"><a xlink:title=" ">
<polygon fill="#e0e0e0" stroke="#999999" points="174,-74 118,-74 118,-55 174,-55 174,-74"/>
<text text-anchor="middle" x="146" y="-62" font-family="Helvetica,sans-Serif" font-size="10.00">assert.h</text>
</a>
</g>
</g>
<!-- Node3&#45;&gt;Node8 -->
<g id="edge9_Node000003_Node000008" class="edge">
<title>Node3&#45;&gt;Node8</title>
<g id="a_edge9_Node000003_Node000008"><a xlink:title=" ">
<path fill="none" stroke="#63b8ff" d="M174.39,-109.75C169.68,-102.42 162.83,-91.73 157.03,-82.7"/>
<polygon fill="#63b8ff" stroke="#63b8ff" points="159.86,-80.62 151.51,-74.09 153.96,-84.4 159.86,-80.62"/>
</a>
</g>
</g>
<!-- Node5&#45;&gt;Node4 -->
<g id="edge6_Node000005_Node000004" class="edge">
<title>Node5&#45;&gt;Node4</title>
<g id="a_edge6_Node000005_Node000004"><a xlink:title=" ">
<path fill="none" stroke="#63b8ff" d="M62.46,-57.52C67,-56.66 71.62,-55.8 76,-55 144.89,-42.34 224.61,-28.18 274.91,-19.3"/>
<polygon fill="#63b8ff" stroke="#63b8ff" points="275.63,-22.73 284.87,-17.55 274.42,-15.84 275.63,-22.73"/>
</a>
</g>
</g>
<!-- Node6 -->
<g id="Node000006" class="node">
<title>Node6</title>
<g id="a_Node000006"><a xlink:href="math_8h.html" target="_top" xlink:title=" ">
<polygon fill="white" stroke="#666666" points="56.5,-19 5.5,-19 5.5,0 56.5,0 56.5,-19"/>
<text text-anchor="middle" x="31" y="-7" font-family="Helvetica,sans-Serif" font-size="10.00">math.h</text>
</a>
</g>
</g>
<!-- Node5&#45;&gt;Node6 -->
<g id="edge5_Node000005_Node000006" class="edge">
<title>Node5&#45;&gt;Node6</title>
<g id="a_edge5_Node000005_Node000006"><a xlink:title=" ">
<path fill="none" stroke="#63b8ff" d="M31,-54.75C31,-47.8 31,-37.85 31,-29.13"/>
<polygon fill="#63b8ff" stroke="#63b8ff" points="34.5,-29.09 31,-19.09 27.5,-29.09 34.5,-29.09"/>
</a>
</g>
</g>
<!-- Node7&#45;&gt;Node4 -->
<g id="edge8_Node000007_Node000004" class="edge">
<title>Node7&#45;&gt;Node4</title>
<g id="a_edge8_Node000007_Node000004"><a xlink:title=" ">
<path fill="none" stroke="#63b8ff" d="M290.77,-54.75C296.56,-47.26 305.06,-36.28 312.14,-27.13"/>
<polygon fill="#63b8ff" stroke="#63b8ff" points="315.01,-29.14 318.36,-19.09 309.47,-24.86 315.01,-29.14"/>
</a>
</g>
</g>
<!-- Node9&#45;&gt;Node3 -->
<g id="edge13_Node000009_Node000003" class="edge">
<title>Node9&#45;&gt;Node3</title>
<g id="a_edge13_Node000009_Node000003"><a xlink:title=" ">
<path fill="none" stroke="#63b8ff" d="M167.89,-175.87C169.92,-166.57 173.22,-151.48 175.87,-139.4"/>
<polygon fill="#63b8ff" stroke="#63b8ff" points="179.33,-139.92 178.05,-129.41 172.5,-138.43 179.33,-139.92"/>
</a>
</g>
</g>
<!-- Node9&#45;&gt;Node4 -->
<g id="edge12_Node000009_Node000004" class="edge">
<title>Node9&#45;&gt;Node4</title>
<g id="a_edge12_Node000009_Node000004"><a xlink:title=" ">
<path fill="none" stroke="#63b8ff" d="M156.33,-175.78C132.88,-153.59 77.19,-94.03 109,-55 129.49,-29.85 217.5,-18.5 274.66,-13.7"/>
<polygon fill="#63b8ff" stroke="#63b8ff" points="275.26,-17.16 284.95,-12.87 274.7,-10.18 275.26,-17.16"/>
</a>
</g>
</g>
<!-- Node9&#45;&gt;Node5 -->
<g id="edge11_Node000009_Node000005" class="edge">
<title>Node9&#45;&gt;Node5</title>
<g id="a_edge11_Node000009_Node000005"><a xlink:title=" ">
<path fill="none" stroke="#63b8ff" d="M147.64,-175.95C128.34,-166.37 97.82,-149.47 76,-129 61.57,-115.46 48.92,-96.63 40.74,-82.99"/>
<polygon fill="#63b8ff" stroke="#63b8ff" points="43.65,-81.03 35.61,-74.13 37.59,-84.54 43.65,-81.03"/>
</a>
</g>
</g>
<!-- Node9&#45;&gt;Node10 -->
<g id="edge14_Node000009_Node000010" class="edge">
<title>Node9&#45;&gt;Node10</title>
<g id="a_edge14_Node000009_Node000010"><a xlink:title=" ">
<path fill="none" stroke="#63b8ff" d="M181.91,-175.87C201.71,-165.13 235.73,-146.68 259.01,-134.05"/>
<polygon fill="#63b8ff" stroke="#63b8ff" points="260.84,-137.04 267.96,-129.2 257.5,-130.89 260.84,-137.04"/>
</a>
</g>
</g>
<!-- Node10&#45;&gt;Node4 -->
<g id="edge15_Node000010_Node000004" class="edge">
<title>Node10&#45;&gt;Node4</title>
<g id="a_edge15_Node000010_Node000004"><a xlink:title=" ">
<path fill="none" stroke="#63b8ff" d="M304.52,-110C319.02,-102.77 337.35,-90.86 346,-74 353.68,-59.04 345.95,-40.68 337.78,-27.56"/>
<polygon fill="#63b8ff" stroke="#63b8ff" points="340.51,-25.34 331.98,-19.05 334.72,-29.28 340.51,-25.34"/>
</a>
</g>
</g>
<!-- Node10&#45;&gt;Node7 -->
<g id="edge16_Node000010_Node000007" class="edge">
<title>Node10&#45;&gt;Node7</title>
<g id="a_edge16_Node000010_Node000007"><a xlink:title=" ">
<path fill="none" stroke="#63b8ff" d="M284,-109.75C284,-102.8 284,-92.85 284,-84.13"/>
<polygon fill="#63b8ff" stroke="#63b8ff" points="287.5,-84.09 284,-74.09 280.5,-84.09 287.5,-84.09"/>
</a>
</g>
</g>
<!-- Node12&#45;&gt;Node7 -->
<g id="edge25_Node000012_Node000007" class="edge">
<title>Node12&#45;&gt;Node7</title>
<g id="a_edge25_Node000012_Node000007"><a xlink:title=" ">
<path fill="none" stroke="#63b8ff" d="M412.5,-241.88C404.99,-233.09 393.23,-218.95 384,-206 354.79,-165.03 354.26,-150.19 324,-110 316.6,-100.17 307.48,-89.9 299.81,-81.71"/>
<polygon fill="#63b8ff" stroke="#63b8ff" points="302.19,-79.13 292.76,-74.31 297.12,-83.96 302.19,-79.13"/>
</a>
</g>
</g>
<!-- Node13 -->
<g id="Node000013" class="node">
<title>Node13</title>
<g id="a_Node000013"><a xlink:href="mk64_8h.html" target="_top" xlink:title=" ">
<polygon fill="white" stroke="#666666" points="446.5,-195 393.5,-195 393.5,-176 446.5,-176 446.5,-195"/>
<text text-anchor="middle" x="420" y="-183" font-family="Helvetica,sans-Serif" font-size="10.00">mk64.h</text>
</a>
</g>
</g>
<!-- Node12&#45;&gt;Node13 -->
<g id="edge20_Node000012_Node000013" class="edge">
<title>Node12&#45;&gt;Node13</title>
<g id="a_edge20_Node000012_Node000013"><a xlink:title=" ">
<path fill="none" stroke="#63b8ff" d="M420,-241.87C420,-232.66 420,-217.79 420,-205.77"/>
<polygon fill="#63b8ff" stroke="#63b8ff" points="423.5,-205.41 420,-195.41 416.5,-205.41 423.5,-205.41"/>
</a>
</g>
</g>
<!-- Node13&#45;&gt;Node4 -->
<g id="edge21_Node000013_Node000004" class="edge">
<title>Node13&#45;&gt;Node4</title>
<g id="a_edge21_Node000013_Node000004"><a xlink:title=" ">
<path fill="none" stroke="#63b8ff" d="M417.08,-175.92C409.63,-154.56 388.58,-97.65 362,-55 355.77,-45 347.48,-34.83 340.33,-26.73"/>
<polygon fill="#63b8ff" stroke="#63b8ff" points="342.74,-24.18 333.42,-19.15 337.57,-28.9 342.74,-24.18"/>
</a>
</g>
</g>
<!-- Node13&#45;&gt;Node11 -->
<g id="edge24_Node000013_Node000011" class="edge">
<title>Node13&#45;&gt;Node11</title>
<g id="a_edge24_Node000013_Node000011"><a xlink:title=" ">
<path fill="none" stroke="#63b8ff" d="M436.59,-175.87C457.31,-165.09 493,-146.52 517.28,-133.88"/>
<polygon fill="#63b8ff" stroke="#63b8ff" points="519.03,-136.92 526.28,-129.2 515.8,-130.71 519.03,-136.92"/>
</a>
</g>
</g>
<!-- Node14 -->
<g id="Node000014" class="node">
<title>Node14</title>
<g id="a_Node000014"><a xlink:href="string_8h.html" target="_top" xlink:title=" ">
<polygon fill="white" stroke="#666666" points="485.5,-129 432.5,-129 432.5,-110 485.5,-110 485.5,-129"/>
<text text-anchor="middle" x="459" y="-117" font-family="Helvetica,sans-Serif" font-size="10.00">string.h</text>
</a>
</g>
</g>
<!-- Node13&#45;&gt;Node14 -->
<g id="edge22_Node000013_Node000014" class="edge">
<title>Node13&#45;&gt;Node14</title>
<g id="a_edge22_Node000013_Node000014"><a xlink:title=" ">
<path fill="none" stroke="#63b8ff" d="M425.26,-175.87C431.1,-166.28 440.69,-150.55 448.15,-138.3"/>
<polygon fill="#63b8ff" stroke="#63b8ff" points="451.36,-139.77 453.57,-129.41 445.38,-136.12 451.36,-139.77"/>
</a>
</g>
</g>
<!-- Node15 -->
<g id="Node000015" class="node">
<title>Node15</title>
<g id="a_Node000015"><a xlink:title=" ">
<polygon fill="#e0e0e0" stroke="#999999" points="522,-74 432,-74 432,-55 522,-55 522,-74"/>
<text text-anchor="middle" x="477" y="-62" font-family="Helvetica,sans-Serif" font-size="10.00">libultra/types.h</text>
</a>
</g>
</g>
<!-- Node14&#45;&gt;Node15 -->
<g id="edge23_Node000014_Node000015" class="edge">
<title>Node14&#45;&gt;Node15</title>
<g id="a_edge23_Node000014_Node000015"><a xlink:title=" ">
<path fill="none" stroke="#63b8ff" d="M461.97,-109.75C464.36,-102.72 467.79,-92.62 470.77,-83.84"/>
<polygon fill="#63b8ff" stroke="#63b8ff" points="474.18,-84.68 474.08,-74.09 467.55,-82.43 474.18,-84.68"/>
</a>
</g>
</g>
<!-- Node17&#45;&gt;Node4 -->
<g id="edge28_Node000017_Node000004" class="edge">
<title>Node17&#45;&gt;Node4</title>
<g id="a_edge28_Node000017_Node000004"><a xlink:title=" ">
<path fill="none" stroke="#63b8ff" d="M737.66,-164.86C758.8,-150 779.54,-128.98 765,-110 717.87,-48.48 480.64,-22.61 375.41,-14.04"/>
<polygon fill="#63b8ff" stroke="#63b8ff" points="375.59,-10.55 365.34,-13.24 375.03,-17.52 375.59,-10.55"/>
</a>
</g>
</g>
<!-- Node17&#45;&gt;Node11 -->
<g id="edge29_Node000017_Node000011" class="edge">
<title>Node17&#45;&gt;Node11</title>
<g id="a_edge29_Node000017_Node000011"><a xlink:title=" ">
<path fill="none" stroke="#63b8ff" d="M654.82,-164.95C628.56,-154.51 597.03,-141.98 574.16,-132.88"/>
<polygon fill="#63b8ff" stroke="#63b8ff" points="575.2,-129.53 564.61,-129.09 572.61,-136.04 575.2,-129.53"/>
</a>
</g>
</g>
<!-- Node18 -->
<g id="Node000018" class="node">
<title>Node18</title>
<g id="a_Node000018"><a xlink:href="align__asset__macro_8h.html" target="_top" xlink:title=" ">
<polygon fill="white" stroke="#666666" points="755.5,-129 638.5,-129 638.5,-110 755.5,-110 755.5,-129"/>
<text text-anchor="middle" x="697" y="-117" font-family="Helvetica,sans-Serif" font-size="10.00">align_asset_macro.h</text>
</a>
</g>
</g>
<!-- Node17&#45;&gt;Node18 -->
<g id="edge30_Node000017_Node000018" class="edge">
<title>Node17&#45;&gt;Node18</title>
<g id="a_edge30_Node000017_Node000018"><a xlink:title=" ">
<path fill="none" stroke="#63b8ff" d="M701.86,-164.95C700.98,-156.85 699.95,-147.5 699.07,-139.47"/>
<polygon fill="#63b8ff" stroke="#63b8ff" points="702.52,-138.82 697.96,-129.26 695.57,-139.58 702.52,-138.82"/>
</a>
</g>
</g>
<!-- Node19&#45;&gt;Node4 -->
<g id="edge32_Node000019_Node000004" class="edge">
<title>Node19&#45;&gt;Node4</title>
<g id="a_edge32_Node000019_Node000004"><a xlink:title=" ">
<path fill="none" stroke="#63b8ff" d="M579.36,-164.93C589.3,-149.74 599.03,-128.26 591,-110 576.43,-76.89 563.13,-71.62 531,-55 481.66,-29.48 418.38,-18.58 375.06,-13.93"/>
<polygon fill="#63b8ff" stroke="#63b8ff" points="375.34,-10.44 365.04,-12.93 374.64,-17.41 375.34,-10.44"/>
</a>
</g>
</g>
<!-- Node19&#45;&gt;Node11 -->
<g id="edge33_Node000019_Node000011" class="edge">
<title>Node19&#45;&gt;Node11</title>
<g id="a_edge33_Node000019_Node000011"><a xlink:title=" ">
<path fill="none" stroke="#63b8ff" d="M557.59,-164.95C554.87,-156.67 551.72,-147.07 549.04,-138.92"/>
<polygon fill="#63b8ff" stroke="#63b8ff" points="552.32,-137.67 545.87,-129.26 545.67,-139.85 552.32,-137.67"/>
</a>
</g>
</g>
<!-- Node19&#45;&gt;Node18 -->
<g id="edge34_Node000019_Node000018" class="edge">
<title>Node19&#45;&gt;Node18</title>
<g id="a_edge34_Node000019_Node000018"><a xlink:title=" ">
<path fill="none" stroke="#63b8ff" d="M604.63,-164.95C625.83,-154.75 651.2,-142.54 669.98,-133.5"/>
<polygon fill="#63b8ff" stroke="#63b8ff" points="671.65,-136.58 679.15,-129.09 668.62,-130.27 671.65,-136.58"/>
</a>
</g>
</g>
</g>
</svg>
