<?xml version="1.0" encoding="UTF-8" standalone="no"?>
<!DOCTYPE svg PUBLIC "-//W3C//DTD SVG 1.1//EN"
 "http://www.w3.org/Graphics/SVG/1.1/DTD/svg11.dtd">
<!-- Generated by graphviz version 2.43.0 (0)
 -->
<!-- Title: include/assets/models/tracks/choco_mountain/choco_mountain_displaylists.h Pages: 1 -->
<svg width="976pt" height="280pt"
 viewBox="0.00 0.00 976.00 280.00" xmlns="http://www.w3.org/2000/svg" xmlns:xlink="http://www.w3.org/1999/xlink">
<g id="graph0" class="graph" transform="scale(1 1) rotate(0) translate(4 276)">
<title>include/assets/models/tracks/choco_mountain/choco_mountain_displaylists.h</title>
<!-- Node1 -->
<g id="Node000001" class="node">
<title>Node1</title>
<g id="a_Node000001"><a xlink:title=" ">
<polygon fill="#999999" stroke="#666666" points="492.5,-272 322.5,-272 322.5,-231 492.5,-231 492.5,-272"/>
<text text-anchor="start" x="330.5" y="-260" font-family="Helvetica,sans-Serif" font-size="10.00">include/assets/models</text>
<text text-anchor="start" x="330.5" y="-249" font-family="Helvetica,sans-Serif" font-size="10.00">/tracks/choco_mountain</text>
<text text-anchor="middle" x="407.5" y="-238" font-family="Helvetica,sans-Serif" font-size="10.00">/choco_mountain_displaylists.h</text>
</a>
</g>
</g>
<!-- Node2 -->
<g id="Node000002" class="node">
<title>Node2</title>
<g id="a_Node000002"><a xlink:href="all__course__packed_8h.html" target="_top" xlink:title=" ">
<polygon fill="white" stroke="#666666" points="378,-195 271,-195 271,-165 378,-165 378,-195"/>
<text text-anchor="start" x="279" y="-183" font-family="Helvetica,sans-Serif" font-size="10.00">courses/all_course</text>
<text text-anchor="middle" x="324.5" y="-172" font-family="Helvetica,sans-Serif" font-size="10.00">_packed.h</text>
</a>
</g>
</g>
<!-- Node1&#45;&gt;Node2 -->
<g id="edge1_Node000001_Node000002" class="edge">
<title>Node1&#45;&gt;Node2</title>
<g id="a_edge1_Node000001_Node000002"><a xlink:title=" ">
<path fill="none" stroke="#63b8ff" d="M376,-224.12C364.19,-214.23 351.23,-203.38 341.27,-195.04"/>
<polygon fill="#63b8ff" stroke="#63b8ff" points="374.02,-227.03 383.94,-230.77 378.52,-221.67 374.02,-227.03"/>
</a>
</g>
</g>
<!-- Node8 -->
<g id="Node000008" class="node">
<title>Node8</title>
<g id="a_Node000008"><a xlink:href="ChocoMountain_8h.html" target="_top" xlink:title=" ">
<polygon fill="white" stroke="#666666" points="659.5,-189.5 471.5,-189.5 471.5,-170.5 659.5,-170.5 659.5,-189.5"/>
<text text-anchor="middle" x="565.5" y="-177.5" font-family="Helvetica,sans-Serif" font-size="10.00">src/engine/tracks/ChocoMountain.h</text>
</a>
</g>
</g>
<!-- Node1&#45;&gt;Node8 -->
<g id="edge7_Node000001_Node000008" class="edge">
<title>Node1&#45;&gt;Node8</title>
<g id="a_edge7_Node000001_Node000008"><a xlink:title=" ">
<path fill="none" stroke="#63b8ff" d="M461.25,-226.86C490.6,-213.95 525.14,-198.75 546.17,-189.5"/>
<polygon fill="#63b8ff" stroke="#63b8ff" points="459.68,-223.73 451.93,-230.96 462.5,-230.13 459.68,-223.73"/>
</a>
</g>
</g>
<!-- Node3 -->
<g id="Node000003" class="node">
<title>Node3</title>
<g id="a_Node000003"><a xlink:href="code__800029B0_8c.html" target="_top" xlink:title=" ">
<polygon fill="white" stroke="#666666" points="119,-129 0,-129 0,-110 119,-110 119,-129"/>
<text text-anchor="middle" x="59.5" y="-117" font-family="Helvetica,sans-Serif" font-size="10.00">src/code_800029B0.c</text>
</a>
</g>
</g>
<!-- Node2&#45;&gt;Node3 -->
<g id="edge2_Node000002_Node000003" class="edge">
<title>Node2&#45;&gt;Node3</title>
<g id="a_edge2_Node000002_Node000003"><a xlink:title=" ">
<path fill="none" stroke="#63b8ff" d="M260.98,-164.98C210.22,-153.77 140.72,-138.43 98.03,-129.01"/>
<polygon fill="#63b8ff" stroke="#63b8ff" points="260.35,-168.42 270.87,-167.16 261.86,-161.59 260.35,-168.42"/>
</a>
</g>
</g>
<!-- Node4 -->
<g id="Node000004" class="node">
<title>Node4</title>
<g id="a_Node000004"><a xlink:href="all__variables_8h.html" target="_top" xlink:title=" ">
<polygon fill="white" stroke="#666666" points="275.5,-129 137.5,-129 137.5,-110 275.5,-110 275.5,-129"/>
<text text-anchor="middle" x="206.5" y="-117" font-family="Helvetica,sans-Serif" font-size="10.00">src/debug/all_variables.h</text>
</a>
</g>
</g>
<!-- Node2&#45;&gt;Node4 -->
<g id="edge3_Node000002_Node000004" class="edge">
<title>Node2&#45;&gt;Node4</title>
<g id="a_edge3_Node000002_Node000004"><a xlink:title=" ">
<path fill="none" stroke="#63b8ff" d="M287.17,-160.49C266,-150 240.51,-137.36 223.93,-129.14"/>
<polygon fill="#63b8ff" stroke="#63b8ff" points="285.72,-163.68 296.24,-164.99 288.83,-157.41 285.72,-163.68"/>
</a>
</g>
</g>
<!-- Node7 -->
<g id="Node000007" class="node">
<title>Node7</title>
<g id="a_Node000007"><a xlink:href="render__courses_8c.html" target="_top" xlink:title=" ">
<polygon fill="white" stroke="#666666" points="443,-129 294,-129 294,-110 443,-110 443,-129"/>
<text text-anchor="middle" x="368.5" y="-117" font-family="Helvetica,sans-Serif" font-size="10.00">src/racing/render_courses.c</text>
</a>
</g>
</g>
<!-- Node2&#45;&gt;Node7 -->
<g id="edge6_Node000002_Node000007" class="edge">
<title>Node2&#45;&gt;Node7</title>
<g id="a_edge6_Node000002_Node000007"><a xlink:title=" ">
<path fill="none" stroke="#63b8ff" d="M341.2,-156.8C348.41,-147.21 356.44,-136.54 361.91,-129.27"/>
<polygon fill="#63b8ff" stroke="#63b8ff" points="338.37,-154.74 335.15,-164.84 343.96,-158.95 338.37,-154.74"/>
</a>
</g>
</g>
<!-- Node5 -->
<g id="Node000005" class="node">
<title>Node5</title>
<g id="a_Node000005"><a xlink:href="debug_8inc_8c.html" target="_top" xlink:title=" ">
<polygon fill="white" stroke="#666666" points="267.5,-74 145.5,-74 145.5,-55 267.5,-55 267.5,-74"/>
<text text-anchor="middle" x="206.5" y="-62" font-family="Helvetica,sans-Serif" font-size="10.00">src/debug/debug.inc.c</text>
</a>
</g>
</g>
<!-- Node4&#45;&gt;Node5 -->
<g id="edge4_Node000004_Node000005" class="edge">
<title>Node4&#45;&gt;Node5</title>
<g id="a_edge4_Node000004_Node000005"><a xlink:title=" ">
<path fill="none" stroke="#63b8ff" d="M206.5,-99.66C206.5,-90.93 206.5,-80.99 206.5,-74.09"/>
<polygon fill="#63b8ff" stroke="#63b8ff" points="203,-99.75 206.5,-109.75 210,-99.75 203,-99.75"/>
</a>
</g>
</g>
<!-- Node6 -->
<g id="Node000006" class="node">
<title>Node6</title>
<g id="a_Node000006"><a xlink:href="debug_8c.html" target="_top" xlink:title=" ">
<polygon fill="white" stroke="#666666" points="259,-19 154,-19 154,0 259,0 259,-19"/>
<text text-anchor="middle" x="206.5" y="-7" font-family="Helvetica,sans-Serif" font-size="10.00">src/debug/debug.c</text>
</a>
</g>
</g>
<!-- Node5&#45;&gt;Node6 -->
<g id="edge5_Node000005_Node000006" class="edge">
<title>Node5&#45;&gt;Node6</title>
<g id="a_edge5_Node000005_Node000006"><a xlink:title=" ">
<path fill="none" stroke="#63b8ff" d="M206.5,-44.66C206.5,-35.93 206.5,-25.99 206.5,-19.09"/>
<polygon fill="#63b8ff" stroke="#63b8ff" points="203,-44.75 206.5,-54.75 210,-44.75 203,-44.75"/>
</a>
</g>
</g>
<!-- Node9 -->
<g id="Node000009" class="node">
<title>Node9</title>
<g id="a_Node000009"><a xlink:href="AllTracks_8h.html" target="_top" xlink:title=" ">
<polygon fill="white" stroke="#666666" points="583.5,-129 461.5,-129 461.5,-110 583.5,-110 583.5,-129"/>
<text text-anchor="middle" x="522.5" y="-117" font-family="Helvetica,sans-Serif" font-size="10.00">src/engine/AllTracks.h</text>
</a>
</g>
</g>
<!-- Node8&#45;&gt;Node9 -->
<g id="edge8_Node000008_Node000009" class="edge">
<title>Node8&#45;&gt;Node9</title>
<g id="a_edge8_Node000008_Node000009"><a xlink:title=" ">
<path fill="none" stroke="#63b8ff" d="M553.1,-162.13C545.18,-151.35 535.23,-137.82 528.87,-129.17"/>
<polygon fill="#63b8ff" stroke="#63b8ff" points="550.41,-164.38 559.16,-170.37 556.05,-160.24 550.41,-164.38"/>
</a>
</g>
</g>
<!-- Node12 -->
<g id="Node000012" class="node">
<title>Node12</title>
<g id="a_Node000012"><a xlink:href="ChocoMountain_8cpp.html" target="_top" xlink:title=" ">
<polygon fill="white" stroke="#666666" points="801,-129 602,-129 602,-110 801,-110 801,-129"/>
<text text-anchor="middle" x="701.5" y="-117" font-family="Helvetica,sans-Serif" font-size="10.00">src/engine/tracks/ChocoMountain.cpp</text>
</a>
</g>
</g>
<!-- Node8&#45;&gt;Node12 -->
<g id="edge11_Node000008_Node000012" class="edge">
<title>Node8&#45;&gt;Node12</title>
<g id="a_edge11_Node000008_Node000012"><a xlink:title=" ">
<path fill="none" stroke="#63b8ff" d="M594.72,-166.43C620.98,-155.14 658.83,-138.86 681.7,-129.02"/>
<polygon fill="#63b8ff" stroke="#63b8ff" points="593.08,-163.33 585.28,-170.49 595.84,-169.76 593.08,-163.33"/>
</a>
</g>
</g>
<!-- Node13 -->
<g id="Node000013" class="node">
<title>Node13</title>
<g id="a_Node000013"><a xlink:href="Track_8cpp.html" target="_top" xlink:title=" ">
<polygon fill="white" stroke="#666666" points="968,-129 819,-129 819,-110 968,-110 968,-129"/>
<text text-anchor="middle" x="893.5" y="-117" font-family="Helvetica,sans-Serif" font-size="10.00">src/engine/tracks/Track.cpp</text>
</a>
</g>
</g>
<!-- Node8&#45;&gt;Node13 -->
<g id="edge12_Node000008_Node000013" class="edge">
<title>Node8&#45;&gt;Node13</title>
<g id="a_edge12_Node000008_Node000013"><a xlink:title=" ">
<path fill="none" stroke="#63b8ff" d="M623.4,-168.67C686.66,-157.39 786.81,-139.53 845.75,-129.02"/>
<polygon fill="#63b8ff" stroke="#63b8ff" points="622.42,-165.29 613.19,-170.49 623.65,-172.18 622.42,-165.29"/>
</a>
</g>
</g>
<!-- Node10 -->
<g id="Node000010" class="node">
<title>Node10</title>
<g id="a_Node000010"><a xlink:href="RegisterContent_8cpp.html" target="_top" xlink:title=" ">
<polygon fill="white" stroke="#666666" points="531,-74 362,-74 362,-55 531,-55 531,-74"/>
<text text-anchor="middle" x="446.5" y="-62" font-family="Helvetica,sans-Serif" font-size="10.00">src/engine/RegisterContent.cpp</text>
</a>
</g>
</g>
<!-- Node9&#45;&gt;Node10 -->
<g id="edge9_Node000009_Node000010" class="edge">
<title>Node9&#45;&gt;Node10</title>
<g id="a_edge9_Node000009_Node000010"><a xlink:title=" ">
<path fill="none" stroke="#63b8ff" d="M501.92,-104.15C488.19,-94.57 470.57,-82.29 458.93,-74.17"/>
<polygon fill="#63b8ff" stroke="#63b8ff" points="500.08,-107.14 510.29,-109.98 504.09,-101.39 500.08,-107.14"/>
</a>
</g>
</g>
<!-- Node11 -->
<g id="Node000011" class="node">
<title>Node11</title>
<g id="a_Node000011"><a xlink:href="Game_8cpp.html" target="_top" xlink:title=" ">
<polygon fill="white" stroke="#666666" points="654.5,-74 548.5,-74 548.5,-55 654.5,-55 654.5,-74"/>
<text text-anchor="middle" x="601.5" y="-62" font-family="Helvetica,sans-Serif" font-size="10.00">src/port/Game.cpp</text>
</a>
</g>
</g>
<!-- Node9&#45;&gt;Node11 -->
<g id="edge10_Node000009_Node000011" class="edge">
<title>Node9&#45;&gt;Node11</title>
<g id="a_edge10_Node000009_Node000011"><a xlink:title=" ">
<path fill="none" stroke="#63b8ff" d="M543.89,-104.15C558.17,-94.57 576.47,-82.29 588.58,-74.17"/>
<polygon fill="#63b8ff" stroke="#63b8ff" points="541.55,-101.51 535.19,-109.98 545.45,-107.32 541.55,-101.51"/>
</a>
</g>
</g>
</g>
</svg>
