<?xml version="1.0" encoding="UTF-8" standalone="no"?>
<!DOCTYPE svg PUBLIC "-//W3C//DTD SVG 1.1//EN"
 "http://www.w3.org/Graphics/SVG/1.1/DTD/svg11.dtd">
<!-- Generated by graphviz version 2.43.0 (0)
 -->
<!-- Title: src/engine/courses/ChocoMountain.h Pages: 1 -->
<svg width="1398pt" height="390pt"
 viewBox="0.00 0.00 1398.00 390.00" xmlns="http://www.w3.org/2000/svg" xmlns:xlink="http://www.w3.org/1999/xlink">
<g id="graph0" class="graph" transform="scale(1 1) rotate(0) translate(4 386)">
<title>src/engine/courses/ChocoMountain.h</title>
<!-- Node1 -->
<g id="Node000001" class="node">
<title>Node1</title>
<g id="a_Node000001"><a xlink:title=" ">
<polygon fill="#999999" stroke="#666666" points="991.5,-382 884.5,-382 884.5,-352 991.5,-352 991.5,-382"/>
<text text-anchor="start" x="892.5" y="-370" font-family="Helvetica,sans-Serif" font-size="10.00">src/engine/courses</text>
<text text-anchor="middle" x="938" y="-359" font-family="Helvetica,sans-Serif" font-size="10.00">/ChocoMountain.h</text>
</a>
</g>
</g>
<!-- Node2 -->
<g id="Node000002" class="node">
<title>Node2</title>
<g id="a_Node000002"><a xlink:title=" ">
<polygon fill="#e0e0e0" stroke="#999999" points="413,-19 333,-19 333,0 413,0 413,-19"/>
<text text-anchor="middle" x="373" y="-7" font-family="Helvetica,sans-Serif" font-size="10.00">libultraship.h</text>
</a>
</g>
</g>
<!-- Node1&#45;&gt;Node2 -->
<g id="edge1_Node000001_Node000002" class="edge">
<title>Node1&#45;&gt;Node2</title>
<g id="a_edge1_Node000001_Node000002"><a xlink:title=" ">
<path fill="none" stroke="#63b8ff" d="M991.63,-363.79C1111.36,-357.41 1390,-333.81 1390,-252.5 1390,-252.5 1390,-252.5 1390,-129.5 1390,-33.81 1281.71,-74.38 1188,-55 1040.65,-24.53 576.9,-13.99 423.11,-11.28"/>
<polygon fill="#63b8ff" stroke="#63b8ff" points="423.06,-7.78 413.01,-11.11 422.94,-14.78 423.06,-7.78"/>
</a>
</g>
</g>
<!-- Node3 -->
<g id="Node000003" class="node">
<title>Node3</title>
<g id="a_Node000003"><a xlink:href="Course_8h.html" target="_top" xlink:title=" ">
<polygon fill="white" stroke="#666666" points="900.5,-316 841.5,-316 841.5,-297 900.5,-297 900.5,-316"/>
<text text-anchor="middle" x="871" y="-304" font-family="Helvetica,sans-Serif" font-size="10.00">Course.h</text>
</a>
</g>
</g>
<!-- Node1&#45;&gt;Node3 -->
<g id="edge2_Node000001_Node000003" class="edge">
<title>Node1&#45;&gt;Node3</title>
<g id="a_edge2_Node000001_Node000003"><a xlink:title=" ">
<path fill="none" stroke="#63b8ff" d="M921.78,-351.84C911.76,-343.09 898.89,-331.85 888.62,-322.88"/>
<polygon fill="#63b8ff" stroke="#63b8ff" points="890.87,-320.21 881.04,-316.27 886.27,-325.48 890.87,-320.21"/>
</a>
</g>
</g>
<!-- Node6 -->
<g id="Node000006" class="node">
<title>Node6</title>
<g id="a_Node000006"><a xlink:href="camera_8h.html" target="_top" xlink:title=" ">
<polygon fill="white" stroke="#666666" points="580,-206 518,-206 518,-187 580,-187 580,-206"/>
<text text-anchor="middle" x="549" y="-194" font-family="Helvetica,sans-Serif" font-size="10.00">camera.h</text>
</a>
</g>
</g>
<!-- Node1&#45;&gt;Node6 -->
<g id="edge61_Node000001_Node000006" class="edge">
<title>Node1&#45;&gt;Node6</title>
<g id="a_edge61_Node000001_Node000006"><a xlink:title=" ">
<path fill="none" stroke="#63b8ff" d="M884.17,-359.27C787.87,-346.03 592.27,-313.23 551,-261 541.18,-248.57 541.75,-230.1 544.14,-216.28"/>
<polygon fill="#63b8ff" stroke="#63b8ff" points="547.58,-216.92 546.29,-206.4 540.74,-215.43 547.58,-216.92"/>
</a>
</g>
</g>
<!-- Node8 -->
<g id="Node000008" class="node">
<title>Node8</title>
<g id="a_Node000008"><a xlink:href="course__offsets_8h.html" target="_top" xlink:title=" ">
<polygon fill="white" stroke="#666666" points="500,-206 404,-206 404,-187 500,-187 500,-206"/>
<text text-anchor="middle" x="452" y="-194" font-family="Helvetica,sans-Serif" font-size="10.00">course_offsets.h</text>
</a>
</g>
</g>
<!-- Node1&#45;&gt;Node8 -->
<g id="edge60_Node000001_Node000008" class="edge">
<title>Node1&#45;&gt;Node8</title>
<g id="a_edge60_Node000001_Node000008"><a xlink:title=" ">
<path fill="none" stroke="#63b8ff" d="M884.3,-363.79C817.81,-359.72 701.85,-348.24 608,-316 560.76,-299.77 549.12,-292.06 510,-261 492.54,-247.14 475.72,-227.85 464.73,-214.18"/>
<polygon fill="#63b8ff" stroke="#63b8ff" points="467.33,-211.82 458.4,-206.11 461.82,-216.14 467.33,-211.82"/>
</a>
</g>
</g>
<!-- Node14 -->
<g id="Node000014" class="node">
<title>Node14</title>
<g id="a_Node000014"><a xlink:href="src_2data_2some__data_8h.html" target="_top" xlink:title=" ">
<polygon fill="white" stroke="#666666" points="1303,-261 1199,-261 1199,-242 1303,-242 1303,-261"/>
<text text-anchor="middle" x="1251" y="-249" font-family="Helvetica,sans-Serif" font-size="10.00">data/some_data.h</text>
</a>
</g>
</g>
<!-- Node1&#45;&gt;Node14 -->
<g id="edge62_Node000001_Node000014" class="edge">
<title>Node1&#45;&gt;Node14</title>
<g id="a_edge62_Node000001_Node000014"><a xlink:title=" ">
<path fill="none" stroke="#63b8ff" d="M976.69,-351.97C1038.7,-329.49 1159.25,-285.77 1217.67,-264.59"/>
<polygon fill="#63b8ff" stroke="#63b8ff" points="1218.95,-267.84 1227.16,-261.14 1216.57,-261.26 1218.95,-267.84"/>
</a>
</g>
</g>
<!-- Node16 -->
<g id="Node000016" class="node">
<title>Node16</title>
<g id="a_Node000016"><a xlink:href="objects_8h.html" target="_top" xlink:title=" ">
<polygon fill="white" stroke="#666666" points="1361.5,-206 1300.5,-206 1300.5,-187 1361.5,-187 1361.5,-206"/>
<text text-anchor="middle" x="1331" y="-194" font-family="Helvetica,sans-Serif" font-size="10.00">objects.h</text>
</a>
</g>
</g>
<!-- Node1&#45;&gt;Node16 -->
<g id="edge63_Node000001_Node000016" class="edge">
<title>Node1&#45;&gt;Node16</title>
<g id="a_edge63_Node000001_Node000016"><a xlink:title=" ">
<path fill="none" stroke="#63b8ff" d="M991.76,-366.34C1072.4,-363.85 1224.52,-347.1 1312,-261 1323.91,-249.28 1328.42,-230.43 1330.09,-216.31"/>
<polygon fill="#63b8ff" stroke="#63b8ff" points="1333.59,-216.47 1330.92,-206.22 1326.62,-215.9 1333.59,-216.47"/>
</a>
</g>
</g>
<!-- Node21 -->
<g id="Node000021" class="node">
<title>Node21</title>
<g id="a_Node000021"><a xlink:href="path__spawn__metadata_8h.html" target="_top" xlink:title=" ">
<polygon fill="white" stroke="#666666" points="1142.5,-261 1005.5,-261 1005.5,-242 1142.5,-242 1142.5,-261"/>
<text text-anchor="middle" x="1074" y="-249" font-family="Helvetica,sans-Serif" font-size="10.00">path_spawn_metadata.h</text>
</a>
</g>
</g>
<!-- Node1&#45;&gt;Node21 -->
<g id="edge64_Node000001_Node000021" class="edge">
<title>Node1&#45;&gt;Node21</title>
<g id="a_edge64_Node000001_Node000021"><a xlink:title=" ">
<path fill="none" stroke="#63b8ff" d="M954.95,-351.85C980.65,-330.41 1029.28,-289.82 1055.74,-267.74"/>
<polygon fill="#63b8ff" stroke="#63b8ff" points="1058.06,-270.37 1063.49,-261.27 1053.57,-264.99 1058.06,-270.37"/>
</a>
</g>
</g>
<!-- Node25 -->
<g id="Node000025" class="node">
<title>Node25</title>
<g id="a_Node000025"><a xlink:href="choco__mountain__vertices_8h.html" target="_top" xlink:title=" ">
<polygon fill="white" stroke="#666666" points="285.5,-151 154.5,-151 154.5,-110 285.5,-110 285.5,-151"/>
<text text-anchor="start" x="162.5" y="-139" font-family="Helvetica,sans-Serif" font-size="10.00">assets/models/tracks</text>
<text text-anchor="start" x="162.5" y="-128" font-family="Helvetica,sans-Serif" font-size="10.00">/choco_mountain/choco</text>
<text text-anchor="middle" x="220" y="-117" font-family="Helvetica,sans-Serif" font-size="10.00">_mountain_vertices.h</text>
</a>
</g>
</g>
<!-- Node1&#45;&gt;Node25 -->
<g id="edge48_Node000001_Node000025" class="edge">
<title>Node1&#45;&gt;Node25</title>
<g id="a_edge48_Node000001_Node000025"><a xlink:title=" ">
<path fill="none" stroke="#63b8ff" d="M884.46,-362.85C784.75,-356.47 574.5,-340.55 506,-316 402.99,-279.09 299.35,-199.03 249.9,-157.57"/>
<polygon fill="#63b8ff" stroke="#63b8ff" points="252.04,-154.8 242.15,-151.01 247.52,-160.14 252.04,-154.8"/>
</a>
</g>
</g>
<!-- Node26 -->
<g id="Node000026" class="node">
<title>Node26</title>
<g id="a_Node000026"><a xlink:href="choco__mountain__displaylists_8h.html" target="_top" xlink:title=" ">
<polygon fill="white" stroke="#666666" points="442,-151 304,-151 304,-110 442,-110 442,-151"/>
<text text-anchor="start" x="312" y="-139" font-family="Helvetica,sans-Serif" font-size="10.00">assets/models/tracks</text>
<text text-anchor="start" x="312" y="-128" font-family="Helvetica,sans-Serif" font-size="10.00">/choco_mountain/choco</text>
<text text-anchor="middle" x="373" y="-117" font-family="Helvetica,sans-Serif" font-size="10.00">_mountain_displaylists.h</text>
</a>
</g>
</g>
<!-- Node1&#45;&gt;Node26 -->
<g id="edge52_Node000001_Node000026" class="edge">
<title>Node1&#45;&gt;Node26</title>
<g id="a_edge52_Node000001_Node000026"><a xlink:title=" ">
<path fill="none" stroke="#63b8ff" d="M884.35,-366.66C808.83,-365.9 667.99,-358.22 557,-316 475.66,-285.06 446.32,-276.29 395,-206 385.46,-192.94 380.03,-175.77 376.96,-161.21"/>
<polygon fill="#63b8ff" stroke="#63b8ff" points="380.36,-160.36 375.11,-151.16 373.48,-161.63 380.36,-160.36"/>
</a>
</g>
</g>
<!-- Node27 -->
<g id="Node000027" class="node">
<title>Node27</title>
<g id="a_Node000027"><a xlink:href="models_2tracks_2choco__mountain_2choco__mountain__data_8h.html" target="_top" xlink:title=" ">
<polygon fill="white" stroke="#666666" points="667.5,-151 536.5,-151 536.5,-110 667.5,-110 667.5,-151"/>
<text text-anchor="start" x="544.5" y="-139" font-family="Helvetica,sans-Serif" font-size="10.00">assets/models/tracks</text>
<text text-anchor="start" x="544.5" y="-128" font-family="Helvetica,sans-Serif" font-size="10.00">/choco_mountain/choco</text>
<text text-anchor="middle" x="602" y="-117" font-family="Helvetica,sans-Serif" font-size="10.00">_mountain_data.h</text>
</a>
</g>
</g>
<!-- Node1&#45;&gt;Node27 -->
<g id="edge56_Node000001_Node000027" class="edge">
<title>Node1&#45;&gt;Node27</title>
<g id="a_edge56_Node000001_Node000027"><a xlink:title=" ">
<path fill="none" stroke="#63b8ff" d="M941.75,-351.56C949.58,-317.71 963.55,-232.64 920,-187 884.23,-149.51 745.62,-160.56 677.98,-150.78"/>
<polygon fill="#63b8ff" stroke="#63b8ff" points="678.21,-147.27 667.76,-149.02 677.02,-154.17 678.21,-147.27"/>
</a>
</g>
</g>
<!-- Node4 -->
<g id="Node000004" class="node">
<title>Node4</title>
<g id="a_Node000004"><a xlink:title=" ">
<polygon fill="#e0e0e0" stroke="#999999" points="793,-261 655,-261 655,-242 793,-242 793,-261"/>
<text text-anchor="middle" x="724" y="-249" font-family="Helvetica,sans-Serif" font-size="10.00">libultraship/libultraship.h</text>
</a>
</g>
</g>
<!-- Node3&#45;&gt;Node4 -->
<g id="edge3_Node000003_Node000004" class="edge">
<title>Node3&#45;&gt;Node4</title>
<g id="a_edge3_Node000003_Node000004"><a xlink:title=" ">
<path fill="none" stroke="#63b8ff" d="M847.38,-296.98C823.1,-288.23 785.05,-274.51 757.63,-264.62"/>
<polygon fill="#63b8ff" stroke="#63b8ff" points="758.64,-261.27 748.05,-261.17 756.27,-267.85 758.64,-261.27"/>
</a>
</g>
</g>
<!-- Node5 -->
<g id="Node000005" class="node">
<title>Node5</title>
<g id="a_Node000005"><a xlink:href="CoreMath_8h.html" target="_top" xlink:title=" ">
<polygon fill="white" stroke="#666666" points="114.5,-206 41.5,-206 41.5,-187 114.5,-187 114.5,-206"/>
<text text-anchor="middle" x="78" y="-194" font-family="Helvetica,sans-Serif" font-size="10.00">CoreMath.h</text>
</a>
</g>
</g>
<!-- Node3&#45;&gt;Node5 -->
<g id="edge4_Node000003_Node000005" class="edge">
<title>Node3&#45;&gt;Node5</title>
<g id="a_edge4_Node000003_Node000005"><a xlink:title=" ">
<path fill="none" stroke="#63b8ff" d="M841.49,-302.1C779.85,-294.94 632.97,-277.61 510,-261 369.62,-242.03 204.01,-216.92 124.79,-204.74"/>
<polygon fill="#63b8ff" stroke="#63b8ff" points="125.07,-201.24 114.66,-203.18 124.01,-208.16 125.07,-201.24"/>
</a>
</g>
</g>
<!-- Node3&#45;&gt;Node6 -->
<g id="edge6_Node000003_Node000006" class="edge">
<title>Node3&#45;&gt;Node6</title>
<g id="a_edge6_Node000003_Node000006"><a xlink:title=" ">
<path fill="none" stroke="#63b8ff" d="M841.41,-305.08C773.38,-303.51 608.57,-296.08 568,-261 555.22,-249.95 550.85,-230.7 549.45,-216.28"/>
<polygon fill="#63b8ff" stroke="#63b8ff" points="552.93,-215.79 548.85,-206.01 545.94,-216.19 552.93,-215.79"/>
</a>
</g>
</g>
<!-- Node7 -->
<g id="Node000007" class="node">
<title>Node7</title>
<g id="a_Node000007"><a xlink:href="common__structs_8h.html" target="_top" xlink:title=" ">
<polygon fill="white" stroke="#666666" points="1178.5,-74 1071.5,-74 1071.5,-55 1178.5,-55 1178.5,-74"/>
<text text-anchor="middle" x="1125" y="-62" font-family="Helvetica,sans-Serif" font-size="10.00">common_structs.h</text>
</a>
</g>
</g>
<!-- Node3&#45;&gt;Node7 -->
<g id="edge47_Node000003_Node000007" class="edge">
<title>Node3&#45;&gt;Node7</title>
<g id="a_edge47_Node000003_Node000007"><a xlink:title=" ">
<path fill="none" stroke="#63b8ff" d="M885.6,-296.99C935.25,-267.94 1095.26,-173.24 1110,-151 1123.24,-131.03 1125.82,-102.88 1125.87,-84.42"/>
<polygon fill="#63b8ff" stroke="#63b8ff" points="1129.37,-84.26 1125.65,-74.34 1122.37,-84.41 1129.37,-84.26"/>
</a>
</g>
</g>
<!-- Node3&#45;&gt;Node8 -->
<g id="edge10_Node000003_Node000008" class="edge">
<title>Node3&#45;&gt;Node8</title>
<g id="a_edge10_Node000003_Node000008"><a xlink:title=" ">
<path fill="none" stroke="#63b8ff" d="M841.3,-305.57C783.53,-304.81 652.8,-298.65 551,-261 520.25,-249.63 489.13,-227.54 470.19,-212.65"/>
<polygon fill="#63b8ff" stroke="#63b8ff" points="472.15,-209.73 462.17,-206.19 467.76,-215.19 472.15,-209.73"/>
</a>
</g>
</g>
<!-- Node3&#45;&gt;Node14 -->
<g id="edge19_Node000003_Node000014" class="edge">
<title>Node3&#45;&gt;Node14</title>
<g id="a_edge19_Node000003_Node000014"><a xlink:title=" ">
<path fill="none" stroke="#63b8ff" d="M900.5,-301.39C962.19,-292.78 1105.95,-272.73 1188.92,-261.16"/>
<polygon fill="#63b8ff" stroke="#63b8ff" points="1189.56,-264.6 1198.98,-259.76 1188.59,-257.67 1189.56,-264.6"/>
</a>
</g>
</g>
<!-- Node17 -->
<g id="Node000017" class="node">
<title>Node17</title>
<g id="a_Node000017"><a xlink:href="defines_8h.html" target="_top" xlink:title=" ">
<polygon fill="white" stroke="#666666" points="872.5,-261 811.5,-261 811.5,-242 872.5,-242 872.5,-261"/>
<text text-anchor="middle" x="842" y="-249" font-family="Helvetica,sans-Serif" font-size="10.00">defines.h</text>
</a>
</g>
</g>
<!-- Node3&#45;&gt;Node17 -->
<g id="edge27_Node000003_Node000017" class="edge">
<title>Node3&#45;&gt;Node17</title>
<g id="a_edge27_Node000003_Node000017"><a xlink:title=" ">
<path fill="none" stroke="#63b8ff" d="M866.21,-296.75C862.24,-289.49 856.47,-278.95 851.57,-269.98"/>
<polygon fill="#63b8ff" stroke="#63b8ff" points="854.57,-268.18 846.7,-261.09 848.43,-271.54 854.57,-268.18"/>
</a>
</g>
</g>
<!-- Node18 -->
<g id="Node000018" class="node">
<title>Node18</title>
<g id="a_Node000018"><a xlink:href="bomb__kart_8h.html" target="_top" xlink:title=" ">
<polygon fill="white" stroke="#666666" points="910.5,-206 833.5,-206 833.5,-187 910.5,-187 910.5,-206"/>
<text text-anchor="middle" x="872" y="-194" font-family="Helvetica,sans-Serif" font-size="10.00">bomb_kart.h</text>
</a>
</g>
</g>
<!-- Node3&#45;&gt;Node18 -->
<g id="edge28_Node000003_Node000018" class="edge">
<title>Node3&#45;&gt;Node18</title>
<g id="a_edge28_Node000003_Node000018"><a xlink:title=" ">
<path fill="none" stroke="#63b8ff" d="M873.83,-296.75C876.55,-287.86 880.46,-273.64 882,-261 883.86,-245.75 880.82,-228.54 877.62,-215.88"/>
<polygon fill="#63b8ff" stroke="#63b8ff" points="880.95,-214.79 874.89,-206.1 874.21,-216.67 880.95,-214.79"/>
</a>
</g>
</g>
<!-- Node3&#45;&gt;Node21 -->
<g id="edge35_Node000003_Node000021" class="edge">
<title>Node3&#45;&gt;Node21</title>
<g id="a_edge35_Node000003_Node000021"><a xlink:title=" ">
<path fill="none" stroke="#63b8ff" d="M900.52,-297.79C935.01,-288.79 992.36,-273.81 1031.61,-263.57"/>
<polygon fill="#63b8ff" stroke="#63b8ff" points="1032.63,-266.92 1041.42,-261.01 1030.86,-260.15 1032.63,-266.92"/>
</a>
</g>
</g>
<!-- Node22 -->
<g id="Node000022" class="node">
<title>Node22</title>
<g id="a_Node000022"><a xlink:href="waypoints_8h.html" target="_top" xlink:title=" ">
<polygon fill="white" stroke="#666666" points="1168,-206 1092,-206 1092,-187 1168,-187 1168,-206"/>
<text text-anchor="middle" x="1130" y="-194" font-family="Helvetica,sans-Serif" font-size="10.00">waypoints.h</text>
</a>
</g>
</g>
<!-- Node3&#45;&gt;Node22 -->
<g id="edge45_Node000003_Node000022" class="edge">
<title>Node3&#45;&gt;Node22</title>
<g id="a_edge45_Node000003_Node000022"><a xlink:title=" ">
<path fill="none" stroke="#63b8ff" d="M900.85,-305.44C966.46,-304.59 1119.92,-298.56 1152,-261 1163.31,-247.75 1153.95,-228.36 1144.18,-214.5"/>
<polygon fill="#63b8ff" stroke="#63b8ff" points="1146.76,-212.12 1137.91,-206.3 1141.2,-216.37 1146.76,-212.12"/>
</a>
</g>
</g>
<!-- Node24 -->
<g id="Node000024" class="node">
<title>Node24</title>
<g id="a_Node000024"><a xlink:href="sounds_8h.html" target="_top" xlink:title=" ">
<polygon fill="white" stroke="#666666" points="637,-261 577,-261 577,-242 637,-242 637,-261"/>
<text text-anchor="middle" x="607" y="-249" font-family="Helvetica,sans-Serif" font-size="10.00">sounds.h</text>
</a>
</g>
</g>
<!-- Node3&#45;&gt;Node24 -->
<g id="edge46_Node000003_Node000024" class="edge">
<title>Node3&#45;&gt;Node24</title>
<g id="a_edge46_Node000003_Node000024"><a xlink:title=" ">
<path fill="none" stroke="#63b8ff" d="M841.48,-299.85C800.29,-291.93 722.99,-276.91 647.39,-261.26"/>
<polygon fill="#63b8ff" stroke="#63b8ff" points="647.72,-257.75 637.22,-259.15 646.3,-264.61 647.72,-257.75"/>
</a>
</g>
</g>
<!-- Node5&#45;&gt;Node2 -->
<g id="edge5_Node000005_Node000002" class="edge">
<title>Node5&#45;&gt;Node2</title>
<g id="a_edge5_Node000005_Node000002"><a xlink:title=" ">
<path fill="none" stroke="#63b8ff" d="M57.8,-186.91C43.53,-179.64 25.49,-167.71 17,-151 -2.4,-112.83 -5.53,-85.01 25,-55 66.12,-14.59 236.72,-9.61 322.82,-9.76"/>
<polygon fill="#63b8ff" stroke="#63b8ff" points="322.87,-13.26 332.89,-9.8 322.9,-6.26 322.87,-13.26"/>
</a>
</g>
</g>
<!-- Node6&#45;&gt;Node2 -->
<g id="edge7_Node000006_Node000002" class="edge">
<title>Node6&#45;&gt;Node2</title>
<g id="a_edge7_Node000006_Node000002"><a xlink:title=" ">
<path fill="none" stroke="#63b8ff" d="M517.63,-188.44C514.72,-187.9 511.81,-187.41 509,-187 461.02,-179.95 106.85,-186.68 74,-151 45.1,-119.61 46.14,-87.31 74,-55 105.46,-18.51 245.61,-11.47 322.35,-10.41"/>
<polygon fill="#63b8ff" stroke="#63b8ff" points="322.78,-13.9 332.74,-10.3 322.7,-6.91 322.78,-13.9"/>
</a>
</g>
</g>
<!-- Node6&#45;&gt;Node7 -->
<g id="edge8_Node000006_Node000007" class="edge">
<title>Node6&#45;&gt;Node7</title>
<g id="a_edge8_Node000006_Node000007"><a xlink:title=" ">
<path fill="none" stroke="#63b8ff" d="M580.19,-194.14C683.1,-189.46 1007.69,-173.08 1049,-151 1069.63,-139.97 1066.52,-127.54 1082,-110 1090.62,-100.23 1100.72,-89.73 1108.96,-81.39"/>
<polygon fill="#63b8ff" stroke="#63b8ff" points="1111.61,-83.69 1116.19,-74.14 1106.65,-78.75 1111.61,-83.69"/>
</a>
</g>
</g>
<!-- Node7&#45;&gt;Node2 -->
<g id="edge9_Node000007_Node000002" class="edge">
<title>Node7&#45;&gt;Node2</title>
<g id="a_edge9_Node000007_Node000002"><a xlink:title=" ">
<path fill="none" stroke="#63b8ff" d="M1071.22,-59.71C931.65,-49.87 559.31,-23.63 423.48,-14.06"/>
<polygon fill="#63b8ff" stroke="#63b8ff" points="423.58,-10.56 413.36,-13.34 423.09,-17.54 423.58,-10.56"/>
</a>
</g>
</g>
<!-- Node8&#45;&gt;Node2 -->
<g id="edge11_Node000008_Node000002" class="edge">
<title>Node8&#45;&gt;Node2</title>
<g id="a_edge11_Node000008_Node000002"><a xlink:title=" ">
<path fill="none" stroke="#63b8ff" d="M403.88,-193.83C300.56,-189.75 64.88,-177.61 41,-151 12.5,-119.25 12.91,-87.11 41,-55 76.98,-13.88 239.02,-9.15 322.67,-9.54"/>
<polygon fill="#63b8ff" stroke="#63b8ff" points="322.69,-13.04 332.72,-9.62 322.74,-6.04 322.69,-13.04"/>
</a>
</g>
</g>
<!-- Node9 -->
<g id="Node000009" class="node">
<title>Node9</title>
<g id="a_Node000009"><a xlink:title=" ">
<polygon fill="#e0e0e0" stroke="#999999" points="90,-19 0,-19 0,0 90,0 90,-19"/>
<text text-anchor="middle" x="45" y="-7" font-family="Helvetica,sans-Serif" font-size="10.00">libultra/types.h</text>
</a>
</g>
</g>
<!-- Node8&#45;&gt;Node9 -->
<g id="edge12_Node000008_Node000009" class="edge">
<title>Node8&#45;&gt;Node9</title>
<g id="a_edge12_Node000008_Node000009"><a xlink:title=" ">
<path fill="none" stroke="#63b8ff" d="M403.93,-194.14C296.15,-190.6 42.56,-179.31 17,-151 -14.3,-116.34 15.38,-56.93 33.42,-27.73"/>
<polygon fill="#63b8ff" stroke="#63b8ff" points="36.53,-29.37 38.99,-19.07 30.64,-25.59 36.53,-29.37"/>
</a>
</g>
</g>
<!-- Node10 -->
<g id="Node000010" class="node">
<title>Node10</title>
<g id="a_Node000010"><a xlink:title=" ">
<polygon fill="#e0e0e0" stroke="#999999" points="494,-74 416,-74 416,-55 494,-55 494,-74"/>
<text text-anchor="middle" x="455" y="-62" font-family="Helvetica,sans-Serif" font-size="10.00">libultra/gbi.h</text>
</a>
</g>
</g>
<!-- Node8&#45;&gt;Node10 -->
<g id="edge13_Node000008_Node000010" class="edge">
<title>Node8&#45;&gt;Node10</title>
<g id="a_edge13_Node000008_Node000010"><a xlink:title=" ">
<path fill="none" stroke="#63b8ff" d="M452.2,-186.97C452.67,-166.32 453.9,-113.22 454.56,-84.54"/>
<polygon fill="#63b8ff" stroke="#63b8ff" points="458.07,-84.31 454.8,-74.23 451.07,-84.15 458.07,-84.31"/>
</a>
</g>
</g>
<!-- Node11 -->
<g id="Node000011" class="node">
<title>Node11</title>
<g id="a_Node000011"><a xlink:href="other__textures_8h.html" target="_top" xlink:title=" ">
<polygon fill="white" stroke="#666666" points="946,-145.5 826,-145.5 826,-115.5 946,-115.5 946,-145.5"/>
<text text-anchor="start" x="834" y="-133.5" font-family="Helvetica,sans-Serif" font-size="10.00">assets/textures/other</text>
<text text-anchor="middle" x="886" y="-122.5" font-family="Helvetica,sans-Serif" font-size="10.00">_textures.h</text>
</a>
</g>
</g>
<!-- Node8&#45;&gt;Node11 -->
<g id="edge14_Node000008_Node000011" class="edge">
<title>Node8&#45;&gt;Node11</title>
<g id="a_edge14_Node000008_Node000011"><a xlink:title=" ">
<path fill="none" stroke="#63b8ff" d="M500.19,-188.2C503.17,-187.79 506.12,-187.38 509,-187 645.62,-168.83 681.82,-177.83 817,-151 821.38,-150.13 825.88,-149.12 830.39,-148.03"/>
<polygon fill="#63b8ff" stroke="#63b8ff" points="831.39,-151.39 840.22,-145.53 829.67,-144.61 831.39,-151.39"/>
</a>
</g>
</g>
<!-- Node13 -->
<g id="Node000013" class="node">
<title>Node13</title>
<g id="a_Node000013"><a xlink:href="animation_8h.html" target="_top" xlink:title=" ">
<polygon fill="white" stroke="#666666" points="1039.5,-140 964.5,-140 964.5,-121 1039.5,-121 1039.5,-140"/>
<text text-anchor="middle" x="1002" y="-128" font-family="Helvetica,sans-Serif" font-size="10.00">animation.h</text>
</a>
</g>
</g>
<!-- Node8&#45;&gt;Node13 -->
<g id="edge17_Node000008_Node000013" class="edge">
<title>Node8&#45;&gt;Node13</title>
<g id="a_edge17_Node000008_Node000013"><a xlink:title=" ">
<path fill="none" stroke="#63b8ff" d="M500.17,-188.08C503.16,-187.7 506.12,-187.33 509,-187 706.57,-164.32 761.69,-197.67 955,-151 961.92,-149.33 969.15,-146.78 975.8,-144.06"/>
<polygon fill="#63b8ff" stroke="#63b8ff" points="977.25,-147.25 985.02,-140.06 974.46,-140.83 977.25,-147.25"/>
</a>
</g>
</g>
<!-- Node11&#45;&gt;Node2 -->
<g id="edge15_Node000011_Node000002" class="edge">
<title>Node11&#45;&gt;Node2</title>
<g id="a_edge15_Node000011_Node000002"><a xlink:title=" ">
<path fill="none" stroke="#63b8ff" d="M854.47,-115.5C815.28,-98.65 745.97,-70.67 684,-55 593.78,-32.18 485.66,-20.01 423.59,-14.43"/>
<polygon fill="#63b8ff" stroke="#63b8ff" points="423.56,-10.92 413.29,-13.53 422.95,-17.89 423.56,-10.92"/>
</a>
</g>
</g>
<!-- Node12 -->
<g id="Node000012" class="node">
<title>Node12</title>
<g id="a_Node000012"><a xlink:href="align__asset__macro_8h.html" target="_top" xlink:title=" ">
<polygon fill="white" stroke="#666666" points="629.5,-74 512.5,-74 512.5,-55 629.5,-55 629.5,-74"/>
<text text-anchor="middle" x="571" y="-62" font-family="Helvetica,sans-Serif" font-size="10.00">align_asset_macro.h</text>
</a>
</g>
</g>
<!-- Node11&#45;&gt;Node12 -->
<g id="edge16_Node000011_Node000012" class="edge">
<title>Node11&#45;&gt;Node12</title>
<g id="a_edge16_Node000011_Node000012"><a xlink:title=" ">
<path fill="none" stroke="#63b8ff" d="M838.64,-115.47C831.42,-113.52 824.03,-111.63 817,-110 756.47,-96.01 686.72,-83.75 636.99,-75.66"/>
<polygon fill="#63b8ff" stroke="#63b8ff" points="637.43,-72.19 627,-74.05 636.32,-79.1 637.43,-72.19"/>
</a>
</g>
</g>
<!-- Node13&#45;&gt;Node7 -->
<g id="edge18_Node000013_Node000007" class="edge">
<title>Node13&#45;&gt;Node7</title>
<g id="a_edge18_Node000013_Node000007"><a xlink:title=" ">
<path fill="none" stroke="#63b8ff" d="M1018.59,-120.87C1039.31,-110.09 1075,-91.52 1099.28,-78.88"/>
<polygon fill="#63b8ff" stroke="#63b8ff" points="1101.03,-81.92 1108.28,-74.2 1097.8,-75.71 1101.03,-81.92"/>
</a>
</g>
</g>
<!-- Node14&#45;&gt;Node10 -->
<g id="edge20_Node000014_Node000010" class="edge">
<title>Node14&#45;&gt;Node10</title>
<g id="a_edge20_Node000014_Node000010"><a xlink:title=" ">
<path fill="none" stroke="#63b8ff" d="M1244.36,-241.95C1232.6,-227.55 1206.53,-198.87 1177,-187 1042.78,-133.04 656.43,-215.63 527,-151 497.46,-136.25 475.38,-103.33 463.89,-82.92"/>
<polygon fill="#63b8ff" stroke="#63b8ff" points="466.94,-81.19 459.12,-74.03 460.77,-84.5 466.94,-81.19"/>
</a>
</g>
</g>
<!-- Node14&#45;&gt;Node11 -->
<g id="edge23_Node000014_Node000011" class="edge">
<title>Node14&#45;&gt;Node11</title>
<g id="a_edge23_Node000014_Node000011"><a xlink:title=" ">
<path fill="none" stroke="#63b8ff" d="M1248.09,-241.8C1242.89,-227.71 1230.56,-200.15 1210,-187 1113.96,-125.56 1067.6,-174.35 956,-151 951.83,-150.13 947.55,-149.15 943.25,-148.1"/>
<polygon fill="#63b8ff" stroke="#63b8ff" points="943.79,-144.63 933.24,-145.56 942.07,-151.41 943.79,-144.63"/>
</a>
</g>
</g>
<!-- Node15 -->
<g id="Node000015" class="node">
<title>Node15</title>
<g id="a_Node000015"><a xlink:href="spline_8h.html" target="_top" xlink:title=" ">
<polygon fill="white" stroke="#666666" points="1303.5,-140 1248.5,-140 1248.5,-121 1303.5,-121 1303.5,-140"/>
<text text-anchor="middle" x="1276" y="-128" font-family="Helvetica,sans-Serif" font-size="10.00">spline.h</text>
</a>
</g>
</g>
<!-- Node14&#45;&gt;Node15 -->
<g id="edge21_Node000014_Node000015" class="edge">
<title>Node14&#45;&gt;Node15</title>
<g id="a_edge21_Node000014_Node000015"><a xlink:title=" ">
<path fill="none" stroke="#63b8ff" d="M1252.8,-241.94C1256.81,-222.82 1266.59,-176.27 1272.09,-150.12"/>
<polygon fill="#63b8ff" stroke="#63b8ff" points="1275.52,-150.81 1274.15,-140.3 1268.67,-149.37 1275.52,-150.81"/>
</a>
</g>
</g>
<!-- Node14&#45;&gt;Node16 -->
<g id="edge24_Node000014_Node000016" class="edge">
<title>Node14&#45;&gt;Node16</title>
<g id="a_edge24_Node000014_Node000016"><a xlink:title=" ">
<path fill="none" stroke="#63b8ff" d="M1263.85,-241.98C1276.14,-233.84 1294.91,-221.41 1309.48,-211.76"/>
<polygon fill="#63b8ff" stroke="#63b8ff" points="1311.51,-214.61 1317.91,-206.17 1307.64,-208.78 1311.51,-214.61"/>
</a>
</g>
</g>
<!-- Node15&#45;&gt;Node7 -->
<g id="edge22_Node000015_Node000007" class="edge">
<title>Node15&#45;&gt;Node7</title>
<g id="a_edge22_Node000015_Node000007"><a xlink:title=" ">
<path fill="none" stroke="#63b8ff" d="M1258.1,-120.96C1250.68,-117.48 1241.96,-113.47 1234,-110 1208,-98.67 1178.17,-86.55 1156.29,-77.82"/>
<polygon fill="#63b8ff" stroke="#63b8ff" points="1157.43,-74.51 1146.84,-74.07 1154.84,-81.01 1157.43,-74.51"/>
</a>
</g>
</g>
<!-- Node16&#45;&gt;Node7 -->
<g id="edge26_Node000016_Node000007" class="edge">
<title>Node16&#45;&gt;Node7</title>
<g id="a_edge26_Node000016_Node000007"><a xlink:title=" ">
<path fill="none" stroke="#63b8ff" d="M1331.94,-186.86C1333.29,-169.7 1333.65,-131.18 1313,-110 1295.78,-92.35 1236.32,-80.29 1188.82,-73.23"/>
<polygon fill="#63b8ff" stroke="#63b8ff" points="1189.29,-69.76 1178.89,-71.8 1188.29,-76.69 1189.29,-69.76"/>
</a>
</g>
</g>
<!-- Node16&#45;&gt;Node15 -->
<g id="edge25_Node000016_Node000015" class="edge">
<title>Node16&#45;&gt;Node15</title>
<g id="a_edge25_Node000016_Node000015"><a xlink:title=" ">
<path fill="none" stroke="#63b8ff" d="M1323.58,-186.87C1315.1,-177 1301.02,-160.61 1290.37,-148.22"/>
<polygon fill="#63b8ff" stroke="#63b8ff" points="1292.83,-145.71 1283.65,-140.41 1287.52,-150.27 1292.83,-145.71"/>
</a>
</g>
</g>
<!-- Node18&#45;&gt;Node7 -->
<g id="edge29_Node000018_Node000007" class="edge">
<title>Node18&#45;&gt;Node7</title>
<g id="a_edge29_Node000018_Node000007"><a xlink:title=" ">
<path fill="none" stroke="#63b8ff" d="M910.66,-189.17C967.54,-179.58 1068.53,-161.38 1082,-151 1103.66,-134.3 1115.24,-103.73 1120.75,-84.02"/>
<polygon fill="#63b8ff" stroke="#63b8ff" points="1124.2,-84.67 1123.27,-74.11 1117.42,-82.94 1124.2,-84.67"/>
</a>
</g>
</g>
<!-- Node19 -->
<g id="Node000019" class="node">
<title>Node19</title>
<g id="a_Node000019"><a xlink:href="mk64_8h.html" target="_top" xlink:title=" ">
<polygon fill="white" stroke="#666666" points="136.5,-140 83.5,-140 83.5,-121 136.5,-121 136.5,-140"/>
<text text-anchor="middle" x="110" y="-128" font-family="Helvetica,sans-Serif" font-size="10.00">mk64.h</text>
</a>
</g>
</g>
<!-- Node18&#45;&gt;Node19 -->
<g id="edge30_Node000018_Node000019" class="edge">
<title>Node18&#45;&gt;Node19</title>
<g id="a_edge30_Node000018_Node000019"><a xlink:title=" ">
<path fill="none" stroke="#63b8ff" d="M833.07,-194.13C691.83,-189.02 211.14,-170.36 145,-151 140.37,-149.64 135.68,-147.59 131.3,-145.32"/>
<polygon fill="#63b8ff" stroke="#63b8ff" points="132.77,-142.13 122.36,-140.18 129.28,-148.2 132.77,-142.13"/>
</a>
</g>
</g>
<!-- Node19&#45;&gt;Node2 -->
<g id="edge31_Node000019_Node000002" class="edge">
<title>Node19&#45;&gt;Node2</title>
<g id="a_edge31_Node000019_Node000002"><a xlink:title=" ">
<path fill="none" stroke="#63b8ff" d="M124.82,-120.83C130.99,-117.33 138.27,-113.33 145,-110 214.26,-75.69 298.11,-40.73 342.3,-22.79"/>
<polygon fill="#63b8ff" stroke="#63b8ff" points="343.67,-26.01 351.63,-19.02 341.04,-19.52 343.67,-26.01"/>
</a>
</g>
</g>
<!-- Node19&#45;&gt;Node10 -->
<g id="edge34_Node000019_Node000010" class="edge">
<title>Node19&#45;&gt;Node10</title>
<g id="a_edge34_Node000019_Node000010"><a xlink:title=" ">
<path fill="none" stroke="#63b8ff" d="M122.77,-120.9C129.18,-116.97 137.22,-112.62 145,-110 233.63,-80.09 343.15,-70.28 405.45,-67.07"/>
<polygon fill="#63b8ff" stroke="#63b8ff" points="405.95,-70.55 415.77,-66.57 405.61,-63.56 405.95,-70.55"/>
</a>
</g>
</g>
<!-- Node20 -->
<g id="Node000020" class="node">
<title>Node20</title>
<g id="a_Node000020"><a xlink:href="string_8h.html" target="_top" xlink:title=" ">
<polygon fill="white" stroke="#666666" points="136.5,-74 83.5,-74 83.5,-55 136.5,-55 136.5,-74"/>
<text text-anchor="middle" x="110" y="-62" font-family="Helvetica,sans-Serif" font-size="10.00">string.h</text>
</a>
</g>
</g>
<!-- Node19&#45;&gt;Node20 -->
<g id="edge32_Node000019_Node000020" class="edge">
<title>Node19&#45;&gt;Node20</title>
<g id="a_edge32_Node000019_Node000020"><a xlink:title=" ">
<path fill="none" stroke="#63b8ff" d="M110,-120.87C110,-111.66 110,-96.79 110,-84.77"/>
<polygon fill="#63b8ff" stroke="#63b8ff" points="113.5,-84.41 110,-74.41 106.5,-84.41 113.5,-84.41"/>
</a>
</g>
</g>
<!-- Node20&#45;&gt;Node9 -->
<g id="edge33_Node000020_Node000009" class="edge">
<title>Node20&#45;&gt;Node9</title>
<g id="a_edge33_Node000020_Node000009"><a xlink:title=" ">
<path fill="none" stroke="#63b8ff" d="M99.56,-54.98C89.85,-47.07 75.18,-35.11 63.5,-25.58"/>
<polygon fill="#63b8ff" stroke="#63b8ff" points="65.6,-22.78 55.63,-19.17 61.17,-28.2 65.6,-22.78"/>
</a>
</g>
</g>
<!-- Node21&#45;&gt;Node7 -->
<g id="edge38_Node000021_Node000007" class="edge">
<title>Node21&#45;&gt;Node7</title>
<g id="a_edge38_Node000021_Node000007"><a xlink:title=" ">
<path fill="none" stroke="#63b8ff" d="M1072.82,-241.75C1071.53,-228.55 1071.03,-203.35 1083,-187 1104.84,-157.17 1138.31,-182.29 1158,-151 1167.7,-135.58 1163.72,-127.3 1158,-110 1154.54,-99.54 1147.57,-89.53 1140.92,-81.66"/>
<polygon fill="#63b8ff" stroke="#63b8ff" points="1143.33,-79.1 1134.02,-74.04 1138.14,-83.8 1143.33,-79.1"/>
</a>
</g>
</g>
<!-- Node21&#45;&gt;Node18 -->
<g id="edge44_Node000021_Node000018" class="edge">
<title>Node21&#45;&gt;Node18</title>
<g id="a_edge44_Node000021_Node000018"><a xlink:title=" ">
<path fill="none" stroke="#63b8ff" d="M1041.55,-241.98C1007.04,-232.93 952.34,-218.58 914.44,-208.64"/>
<polygon fill="#63b8ff" stroke="#63b8ff" points="915.27,-205.23 904.71,-206.08 913.49,-212.01 915.27,-205.23"/>
</a>
</g>
</g>
<!-- Node21&#45;&gt;Node22 -->
<g id="edge36_Node000021_Node000022" class="edge">
<title>Node21&#45;&gt;Node22</title>
<g id="a_edge36_Node000021_Node000022"><a xlink:title=" ">
<path fill="none" stroke="#63b8ff" d="M1083,-241.98C1091.19,-234.23 1103.51,-222.58 1113.47,-213.14"/>
<polygon fill="#63b8ff" stroke="#63b8ff" points="1115.98,-215.59 1120.84,-206.17 1111.17,-210.5 1115.98,-215.59"/>
</a>
</g>
</g>
<!-- Node23 -->
<g id="Node000023" class="node">
<title>Node23</title>
<g id="a_Node000023"><a xlink:href="other_2common__data_8h.html" target="_top" xlink:title=" ">
<polygon fill="white" stroke="#666666" points="808,-145.5 686,-145.5 686,-115.5 808,-115.5 808,-145.5"/>
<text text-anchor="start" x="694" y="-133.5" font-family="Helvetica,sans-Serif" font-size="10.00">assets/other/common</text>
<text text-anchor="middle" x="747" y="-122.5" font-family="Helvetica,sans-Serif" font-size="10.00">_data.h</text>
</a>
</g>
</g>
<!-- Node21&#45;&gt;Node23 -->
<g id="edge39_Node000021_Node000023" class="edge">
<title>Node21&#45;&gt;Node23</title>
<g id="a_edge39_Node000021_Node000023"><a xlink:title=" ">
<path fill="none" stroke="#63b8ff" d="M1065.66,-242C1051.6,-228.19 1021.69,-201.02 991,-187 919.17,-154.18 893.75,-169.61 817,-151 813.35,-150.12 809.61,-149.17 805.84,-148.2"/>
<polygon fill="#63b8ff" stroke="#63b8ff" points="806.41,-144.73 795.84,-145.56 804.62,-151.5 806.41,-144.73"/>
</a>
</g>
</g>
<!-- Node22&#45;&gt;Node7 -->
<g id="edge37_Node000022_Node000007" class="edge">
<title>Node22&#45;&gt;Node7</title>
<g id="a_edge37_Node000022_Node000007"><a xlink:title=" ">
<path fill="none" stroke="#63b8ff" d="M1152.78,-186.89C1168.03,-179.79 1186.92,-168.08 1196,-151 1204.56,-134.91 1204.82,-125.94 1196,-110 1188.16,-95.83 1173.71,-85.57 1159.89,-78.5"/>
<polygon fill="#63b8ff" stroke="#63b8ff" points="1161.05,-75.18 1150.51,-74.1 1158.08,-81.52 1161.05,-75.18"/>
</a>
</g>
</g>
<!-- Node23&#45;&gt;Node2 -->
<g id="edge41_Node000023_Node000002" class="edge">
<title>Node23&#45;&gt;Node2</title>
<g id="a_edge41_Node000023_Node000002"><a xlink:title=" ">
<path fill="none" stroke="#63b8ff" d="M734.22,-115.34C717.73,-98.06 687.3,-69.37 655,-55 578.96,-21.17 481.34,-12.57 423.17,-10.66"/>
<polygon fill="#63b8ff" stroke="#63b8ff" points="423.23,-7.16 413.14,-10.39 423.04,-14.16 423.23,-7.16"/>
</a>
</g>
</g>
<!-- Node23&#45;&gt;Node7 -->
<g id="edge42_Node000023_Node000007" class="edge">
<title>Node23&#45;&gt;Node7</title>
<g id="a_edge42_Node000023_Node000007"><a xlink:title=" ">
<path fill="none" stroke="#63b8ff" d="M794.24,-115.45C801.81,-113.46 809.59,-111.56 817,-110 900.76,-92.36 998.81,-79.51 1061.38,-72.28"/>
<polygon fill="#63b8ff" stroke="#63b8ff" points="1061.96,-75.73 1071.49,-71.12 1061.16,-68.78 1061.96,-75.73"/>
</a>
</g>
</g>
<!-- Node23&#45;&gt;Node10 -->
<g id="edge40_Node000023_Node000010" class="edge">
<title>Node23&#45;&gt;Node10</title>
<g id="a_edge40_Node000023_Node000010"><a xlink:title=" ">
<path fill="none" stroke="#63b8ff" d="M698.16,-115.4C691.09,-113.5 683.87,-111.64 677,-110 617.95,-95.88 549.33,-82.6 504.19,-74.28"/>
<polygon fill="#63b8ff" stroke="#63b8ff" points="504.56,-70.79 494.09,-72.43 503.3,-77.68 504.56,-70.79"/>
</a>
</g>
</g>
<!-- Node23&#45;&gt;Node12 -->
<g id="edge43_Node000023_Node000012" class="edge">
<title>Node23&#45;&gt;Node12</title>
<g id="a_edge43_Node000023_Node000012"><a xlink:title=" ">
<path fill="none" stroke="#63b8ff" d="M708.38,-115.45C677.1,-104.08 633.53,-88.24 603.9,-77.46"/>
<polygon fill="#63b8ff" stroke="#63b8ff" points="605.02,-74.15 594.42,-74.02 602.62,-80.72 605.02,-74.15"/>
</a>
</g>
</g>
<!-- Node25&#45;&gt;Node2 -->
<g id="edge49_Node000025_Node000002" class="edge">
<title>Node25&#45;&gt;Node2</title>
<g id="a_edge49_Node000025_Node000002"><a xlink:title=" ">
<path fill="none" stroke="#63b8ff" d="M245.26,-109.85C275.75,-86.14 326.31,-46.81 353.79,-25.44"/>
<polygon fill="#63b8ff" stroke="#63b8ff" points="356.1,-28.08 361.85,-19.18 351.8,-22.55 356.1,-28.08"/>
</a>
</g>
</g>
<!-- Node25&#45;&gt;Node10 -->
<g id="edge50_Node000025_Node000010" class="edge">
<title>Node25&#45;&gt;Node10</title>
<g id="a_edge50_Node000025_Node000010"><a xlink:title=" ">
<path fill="none" stroke="#63b8ff" d="M285.77,-111.59C326.8,-100.41 378.35,-86.38 413.7,-76.75"/>
<polygon fill="#63b8ff" stroke="#63b8ff" points="414.95,-80.04 423.67,-74.03 413.11,-73.28 414.95,-80.04"/>
</a>
</g>
</g>
<!-- Node25&#45;&gt;Node12 -->
<g id="edge51_Node000025_Node000012" class="edge">
<title>Node25&#45;&gt;Node12</title>
<g id="a_edge51_Node000025_Node000012"><a xlink:title=" ">
<path fill="none" stroke="#63b8ff" d="M285.77,-112.03C288.88,-111.32 291.97,-110.64 295,-110 365.09,-95.27 446.08,-82.74 502.12,-74.76"/>
<polygon fill="#63b8ff" stroke="#63b8ff" points="502.87,-78.19 512.29,-73.33 501.89,-71.26 502.87,-78.19"/>
</a>
</g>
</g>
<!-- Node26&#45;&gt;Node2 -->
<g id="edge53_Node000026_Node000002" class="edge">
<title>Node26&#45;&gt;Node2</title>
<g id="a_edge53_Node000026_Node000002"><a xlink:title=" ">
<path fill="none" stroke="#63b8ff" d="M373,-109.85C373,-87.48 373,-51.19 373,-29.21"/>
<polygon fill="#63b8ff" stroke="#63b8ff" points="376.5,-29.18 373,-19.18 369.5,-29.18 376.5,-29.18"/>
</a>
</g>
</g>
<!-- Node26&#45;&gt;Node10 -->
<g id="edge54_Node000026_Node000010" class="edge">
<title>Node26&#45;&gt;Node10</title>
<g id="a_edge54_Node000026_Node000010"><a xlink:title=" ">
<path fill="none" stroke="#63b8ff" d="M398.05,-109.95C410.21,-100.46 424.59,-89.24 435.85,-80.44"/>
<polygon fill="#63b8ff" stroke="#63b8ff" points="438.05,-83.17 443.78,-74.26 433.74,-77.65 438.05,-83.17"/>
</a>
</g>
</g>
<!-- Node26&#45;&gt;Node12 -->
<g id="edge55_Node000026_Node000012" class="edge">
<title>Node26&#45;&gt;Node12</title>
<g id="a_edge55_Node000026_Node000012"><a xlink:title=" ">
<path fill="none" stroke="#63b8ff" d="M433.48,-109.95C466.6,-99.24 506.54,-86.34 534.82,-77.19"/>
<polygon fill="#63b8ff" stroke="#63b8ff" points="536.24,-80.41 544.68,-74.01 534.09,-73.75 536.24,-80.41"/>
</a>
</g>
</g>
<!-- Node27&#45;&gt;Node2 -->
<g id="edge57_Node000027_Node000002" class="edge">
<title>Node27&#45;&gt;Node2</title>
<g id="a_edge57_Node000027_Node000002"><a xlink:title=" ">
<path fill="none" stroke="#63b8ff" d="M623.27,-109.94C638.09,-93.97 652.9,-71.42 639,-55 611.91,-23.01 492.58,-14 423.3,-11.47"/>
<polygon fill="#63b8ff" stroke="#63b8ff" points="423.16,-7.97 413.05,-11.13 422.93,-14.96 423.16,-7.97"/>
</a>
</g>
</g>
<!-- Node27&#45;&gt;Node10 -->
<g id="edge58_Node000027_Node000010" class="edge">
<title>Node27&#45;&gt;Node10</title>
<g id="a_edge58_Node000027_Node000010"><a xlink:title=" ">
<path fill="none" stroke="#63b8ff" d="M557.1,-109.95C533.33,-99.6 504.85,-87.2 484.01,-78.13"/>
<polygon fill="#63b8ff" stroke="#63b8ff" points="485.3,-74.87 474.73,-74.09 482.51,-81.29 485.3,-74.87"/>
</a>
</g>
</g>
<!-- Node27&#45;&gt;Node12 -->
<g id="edge59_Node000027_Node000012" class="edge">
<title>Node27&#45;&gt;Node12</title>
<g id="a_edge59_Node000027_Node000012"><a xlink:title=" ">
<path fill="none" stroke="#63b8ff" d="M592.53,-109.95C588.43,-101.48 583.66,-91.64 579.65,-83.37"/>
<polygon fill="#63b8ff" stroke="#63b8ff" points="582.75,-81.73 575.24,-74.26 576.45,-84.79 582.75,-81.73"/>
</a>
</g>
</g>
</g>
</svg>
