<?xml version="1.0" encoding="UTF-8" standalone="no"?>
<!DOCTYPE svg PUBLIC "-//W3C//DTD SVG 1.1//EN"
 "http://www.w3.org/Graphics/SVG/1.1/DTD/svg11.dtd">
<!-- Generated by graphviz version 2.43.0 (0)
 -->
<!-- Title: src/engine/tracks/ChocoMountain.h Pages: 1 -->
<svg width="1692pt" height="379pt"
 viewBox="0.00 0.00 1691.99 379.00" xmlns="http://www.w3.org/2000/svg" xmlns:xlink="http://www.w3.org/1999/xlink">
<g id="graph0" class="graph" transform="scale(1 1) rotate(0) translate(4 375)">
<title>src/engine/tracks/ChocoMountain.h</title>
<!-- Node1 -->
<g id="Node000001" class="node">
<title>Node1</title>
<g id="a_Node000001"><a xlink:title=" ">
<polygon fill="#999999" stroke="#666666" points="1002,-371 814,-371 814,-352 1002,-352 1002,-371"/>
<text text-anchor="middle" x="908" y="-359" font-family="Helvetica,sans-Serif" font-size="10.00">src/engine/tracks/ChocoMountain.h</text>
</a>
</g>
</g>
<!-- Node2 -->
<g id="Node000002" class="node">
<title>Node2</title>
<g id="a_Node000002"><a xlink:title=" ">
<polygon fill="#e0e0e0" stroke="#999999" points="681,-19 601,-19 601,0 681,0 681,-19"/>
<text text-anchor="middle" x="641" y="-7" font-family="Helvetica,sans-Serif" font-size="10.00">libultraship.h</text>
</a>
</g>
</g>
<!-- Node1&#45;&gt;Node2 -->
<g id="edge1_Node000001_Node000002" class="edge">
<title>Node1&#45;&gt;Node2</title>
<g id="a_edge1_Node000001_Node000002"><a xlink:title=" ">
<path fill="none" stroke="#63b8ff" d="M813.9,-360.16C669.95,-358.51 402.45,-350.7 314,-316 277.49,-301.68 262.02,-296.33 245,-261 201.94,-171.62 240.99,-96.73 331,-55 376.11,-34.09 515,-20.34 590.64,-14.2"/>
<polygon fill="#63b8ff" stroke="#63b8ff" points="591.18,-17.67 600.87,-13.38 590.63,-10.69 591.18,-17.67"/>
</a>
</g>
</g>
<!-- Node3 -->
<g id="Node000003" class="node">
<title>Node3</title>
<g id="a_Node000003"><a xlink:href="Track_8h.html" target="_top" xlink:title=" ">
<polygon fill="white" stroke="#666666" points="644.5,-316 593.5,-316 593.5,-297 644.5,-297 644.5,-316"/>
<text text-anchor="middle" x="619" y="-304" font-family="Helvetica,sans-Serif" font-size="10.00">Track.h</text>
</a>
</g>
</g>
<!-- Node1&#45;&gt;Node3 -->
<g id="edge2_Node000001_Node000003" class="edge">
<title>Node1&#45;&gt;Node3</title>
<g id="a_edge2_Node000001_Node000003"><a xlink:title=" ">
<path fill="none" stroke="#63b8ff" d="M861.57,-351.98C803.95,-341.42 706.94,-323.63 654.77,-314.06"/>
<polygon fill="#63b8ff" stroke="#63b8ff" points="655.12,-310.57 644.65,-312.2 653.86,-317.45 655.12,-310.57"/>
</a>
</g>
</g>
<!-- Node7 -->
<g id="Node000007" class="node">
<title>Node7</title>
<g id="a_Node000007"><a xlink:href="camera_8h.html" target="_top" xlink:title=" ">
<polygon fill="white" stroke="#666666" points="340,-140 278,-140 278,-121 340,-121 340,-140"/>
<text text-anchor="middle" x="309" y="-128" font-family="Helvetica,sans-Serif" font-size="10.00">camera.h</text>
</a>
</g>
</g>
<!-- Node1&#45;&gt;Node7 -->
<g id="edge71_Node000001_Node000007" class="edge">
<title>Node1&#45;&gt;Node7</title>
<g id="a_edge71_Node000001_Node000007"><a xlink:title=" ">
<path fill="none" stroke="#63b8ff" d="M813.81,-360.55C651.27,-358.39 328.78,-343.53 259,-261 230.08,-226.79 269.52,-173.98 293.29,-147.62"/>
<polygon fill="#63b8ff" stroke="#63b8ff" points="296.09,-149.75 300.35,-140.05 290.97,-144.98 296.09,-149.75"/>
</a>
</g>
</g>
<!-- Node9 -->
<g id="Node000009" class="node">
<title>Node9</title>
<g id="a_Node000009"><a xlink:href="src_2data_2some__data_8h.html" target="_top" xlink:title=" ">
<polygon fill="white" stroke="#666666" points="1040,-261 936,-261 936,-242 1040,-242 1040,-261"/>
<text text-anchor="middle" x="988" y="-249" font-family="Helvetica,sans-Serif" font-size="10.00">data/some_data.h</text>
</a>
</g>
</g>
<!-- Node1&#45;&gt;Node9 -->
<g id="edge72_Node000001_Node000009" class="edge">
<title>Node1&#45;&gt;Node9</title>
<g id="a_edge72_Node000001_Node000009"><a xlink:title=" ">
<path fill="none" stroke="#63b8ff" d="M914.55,-351.66C927.86,-333.69 958.27,-292.64 975.49,-269.38"/>
<polygon fill="#63b8ff" stroke="#63b8ff" points="978.45,-271.28 981.59,-261.16 972.82,-267.11 978.45,-271.28"/>
</a>
</g>
</g>
<!-- Node14 -->
<g id="Node000014" class="node">
<title>Node14</title>
<g id="a_Node000014"><a xlink:href="objects_8h.html" target="_top" xlink:title=" ">
<polygon fill="white" stroke="#666666" points="925.5,-206 864.5,-206 864.5,-187 925.5,-187 925.5,-206"/>
<text text-anchor="middle" x="895" y="-194" font-family="Helvetica,sans-Serif" font-size="10.00">objects.h</text>
</a>
</g>
</g>
<!-- Node1&#45;&gt;Node14 -->
<g id="edge73_Node000001_Node000014" class="edge">
<title>Node1&#45;&gt;Node14</title>
<g id="a_edge73_Node000001_Node000014"><a xlink:title=" ">
<path fill="none" stroke="#63b8ff" d="M907.3,-351.74C905.27,-326.31 899.35,-252.08 896.53,-216.69"/>
<polygon fill="#63b8ff" stroke="#63b8ff" points="899.99,-216 895.7,-206.31 893.01,-216.55 899.99,-216"/>
</a>
</g>
</g>
<!-- Node19 -->
<g id="Node000019" class="node">
<title>Node19</title>
<g id="a_Node000019"><a xlink:href="path__spawn__metadata_8h.html" target="_top" xlink:title=" ">
<polygon fill="white" stroke="#666666" points="879.5,-261 742.5,-261 742.5,-242 879.5,-242 879.5,-261"/>
<text text-anchor="middle" x="811" y="-249" font-family="Helvetica,sans-Serif" font-size="10.00">path_spawn_metadata.h</text>
</a>
</g>
</g>
<!-- Node1&#45;&gt;Node19 -->
<g id="edge74_Node000001_Node000019" class="edge">
<title>Node1&#45;&gt;Node19</title>
<g id="a_edge74_Node000001_Node000019"><a xlink:title=" ">
<path fill="none" stroke="#63b8ff" d="M900.06,-351.66C883.78,-333.54 846.4,-291.91 825.61,-268.77"/>
<polygon fill="#63b8ff" stroke="#63b8ff" points="828.06,-266.26 818.78,-261.16 822.85,-270.94 828.06,-266.26"/>
</a>
</g>
</g>
<!-- Node23 -->
<g id="Node000023" class="node">
<title>Node23</title>
<g id="a_Node000023"><a xlink:href="code__800029B0_8h.html" target="_top" xlink:title=" ">
<polygon fill="white" stroke="#666666" points="147.5,-206 44.5,-206 44.5,-187 147.5,-187 147.5,-206"/>
<text text-anchor="middle" x="96" y="-194" font-family="Helvetica,sans-Serif" font-size="10.00">code_800029B0.h</text>
</a>
</g>
</g>
<!-- Node1&#45;&gt;Node23 -->
<g id="edge75_Node000001_Node000023" class="edge">
<title>Node1&#45;&gt;Node23</title>
<g id="a_edge75_Node000001_Node000023"><a xlink:title=" ">
<path fill="none" stroke="#63b8ff" d="M813.65,-360.04C624.37,-358.38 211.77,-350.77 158,-316 122.7,-293.17 106.32,-243.36 99.75,-216.15"/>
<polygon fill="#63b8ff" stroke="#63b8ff" points="103.16,-215.33 97.57,-206.32 96.32,-216.84 103.16,-215.33"/>
</a>
</g>
</g>
<!-- Node28 -->
<g id="Node000028" class="node">
<title>Node28</title>
<g id="a_Node000028"><a xlink:href="choco__mountain__vertices_8h.html" target="_top" xlink:title=" ">
<polygon fill="white" stroke="#666666" points="1348.5,-151 1217.5,-151 1217.5,-110 1348.5,-110 1348.5,-151"/>
<text text-anchor="start" x="1225.5" y="-139" font-family="Helvetica,sans-Serif" font-size="10.00">assets/models/tracks</text>
<text text-anchor="start" x="1225.5" y="-128" font-family="Helvetica,sans-Serif" font-size="10.00">/choco_mountain/choco</text>
<text text-anchor="middle" x="1283" y="-117" font-family="Helvetica,sans-Serif" font-size="10.00">_mountain_vertices.h</text>
</a>
</g>
</g>
<!-- Node1&#45;&gt;Node28 -->
<g id="edge52_Node000001_Node000028" class="edge">
<title>Node1&#45;&gt;Node28</title>
<g id="a_edge52_Node000001_Node000028"><a xlink:title=" ">
<path fill="none" stroke="#63b8ff" d="M933.14,-351.88C955.49,-343.82 988.74,-330.81 1016,-316 1105.39,-267.43 1201.5,-195.59 1250.39,-157.47"/>
<polygon fill="#63b8ff" stroke="#63b8ff" points="1252.68,-160.13 1258.39,-151.21 1248.36,-154.62 1252.68,-160.13"/>
</a>
</g>
</g>
<!-- Node29 -->
<g id="Node000029" class="node">
<title>Node29</title>
<g id="a_Node000029"><a xlink:href="choco__mountain__displaylists_8h.html" target="_top" xlink:title=" ">
<polygon fill="white" stroke="#666666" points="1505,-151 1367,-151 1367,-110 1505,-110 1505,-151"/>
<text text-anchor="start" x="1375" y="-139" font-family="Helvetica,sans-Serif" font-size="10.00">assets/models/tracks</text>
<text text-anchor="start" x="1375" y="-128" font-family="Helvetica,sans-Serif" font-size="10.00">/choco_mountain/choco</text>
<text text-anchor="middle" x="1436" y="-117" font-family="Helvetica,sans-Serif" font-size="10.00">_mountain_displaylists.h</text>
</a>
</g>
</g>
<!-- Node1&#45;&gt;Node29 -->
<g id="edge56_Node000001_Node000029" class="edge">
<title>Node1&#45;&gt;Node29</title>
<g id="a_edge56_Node000001_Node000029"><a xlink:title=" ">
<path fill="none" stroke="#63b8ff" d="M937.56,-351.98C965.36,-343.7 1007.98,-330.31 1044,-316 1171.87,-265.21 1317.15,-192.8 1389.67,-155.6"/>
<polygon fill="#63b8ff" stroke="#63b8ff" points="1391.28,-158.71 1398.57,-151.03 1388.08,-152.49 1391.28,-158.71"/>
</a>
</g>
</g>
<!-- Node30 -->
<g id="Node000030" class="node">
<title>Node30</title>
<g id="a_Node000030"><a xlink:href="models_2tracks_2choco__mountain_2choco__mountain__data_8h.html" target="_top" xlink:title=" ">
<polygon fill="white" stroke="#666666" points="1654.5,-151 1523.5,-151 1523.5,-110 1654.5,-110 1654.5,-151"/>
<text text-anchor="start" x="1531.5" y="-139" font-family="Helvetica,sans-Serif" font-size="10.00">assets/models/tracks</text>
<text text-anchor="start" x="1531.5" y="-128" font-family="Helvetica,sans-Serif" font-size="10.00">/choco_mountain/choco</text>
<text text-anchor="middle" x="1589" y="-117" font-family="Helvetica,sans-Serif" font-size="10.00">_mountain_data.h</text>
</a>
</g>
</g>
<!-- Node1&#45;&gt;Node30 -->
<g id="edge60_Node000001_Node000030" class="edge">
<title>Node1&#45;&gt;Node30</title>
<g id="a_edge60_Node000001_Node000030"><a xlink:title=" ">
<path fill="none" stroke="#63b8ff" d="M944.97,-351.93C979.79,-343.6 1033.29,-330.18 1079,-316 1244.63,-264.61 1435.91,-191.67 1530.2,-154.79"/>
<polygon fill="#63b8ff" stroke="#63b8ff" points="1531.54,-158.02 1539.57,-151.11 1528.98,-151.5 1531.54,-158.02"/>
</a>
</g>
</g>
<!-- Node31 -->
<g id="Node000031" class="node">
<title>Node31</title>
<g id="a_Node000031"><a xlink:href="course__offsets_8h.html" target="_top" xlink:title=" ">
<polygon fill="white" stroke="#666666" points="1116,-206 1020,-206 1020,-187 1116,-187 1116,-206"/>
<text text-anchor="middle" x="1068" y="-194" font-family="Helvetica,sans-Serif" font-size="10.00">course_offsets.h</text>
</a>
</g>
</g>
<!-- Node1&#45;&gt;Node31 -->
<g id="edge64_Node000001_Node000031" class="edge">
<title>Node1&#45;&gt;Node31</title>
<g id="a_edge64_Node000001_Node000031"><a xlink:title=" ">
<path fill="none" stroke="#63b8ff" d="M927.55,-351.94C958.05,-337.58 1016.81,-305.75 1049,-261 1058.55,-247.72 1063.36,-229.6 1065.74,-216.12"/>
<polygon fill="#63b8ff" stroke="#63b8ff" points="1069.22,-216.49 1067.22,-206.09 1062.3,-215.47 1069.22,-216.49"/>
</a>
</g>
</g>
<!-- Node4 -->
<g id="Node000004" class="node">
<title>Node4</title>
<g id="a_Node000004"><a xlink:title=" ">
<polygon fill="#e0e0e0" stroke="#999999" points="494,-261 356,-261 356,-242 494,-242 494,-261"/>
<text text-anchor="middle" x="425" y="-249" font-family="Helvetica,sans-Serif" font-size="10.00">libultraship/libultraship.h</text>
</a>
</g>
</g>
<!-- Node3&#45;&gt;Node4 -->
<g id="edge3_Node000003_Node000004" class="edge">
<title>Node3&#45;&gt;Node4</title>
<g id="a_edge3_Node000003_Node000004"><a xlink:title=" ">
<path fill="none" stroke="#63b8ff" d="M593.24,-298.46C560.79,-289.6 504.62,-274.25 466.18,-263.75"/>
<polygon fill="#63b8ff" stroke="#63b8ff" points="466.9,-260.32 456.33,-261.06 465.06,-267.07 466.9,-260.32"/>
</a>
</g>
</g>
<!-- Node5 -->
<g id="Node000005" class="node">
<title>Node5</title>
<g id="a_Node000005"><a xlink:href="CoreMath_8h.html" target="_top" xlink:title=" ">
<polygon fill="white" stroke="#666666" points="357.5,-206 284.5,-206 284.5,-187 357.5,-187 357.5,-206"/>
<text text-anchor="middle" x="321" y="-194" font-family="Helvetica,sans-Serif" font-size="10.00">CoreMath.h</text>
</a>
</g>
</g>
<!-- Node3&#45;&gt;Node5 -->
<g id="edge4_Node000003_Node000005" class="edge">
<title>Node3&#45;&gt;Node5</title>
<g id="a_edge4_Node000003_Node000005"><a xlink:title=" ">
<path fill="none" stroke="#63b8ff" d="M593.37,-304.17C516.11,-299.91 289.52,-285.42 268,-261 253.2,-244.2 276.09,-224.31 296.25,-211.32"/>
<polygon fill="#63b8ff" stroke="#63b8ff" points="298.18,-214.25 304.89,-206.04 294.53,-208.27 298.18,-214.25"/>
</a>
</g>
</g>
<!-- Node6 -->
<g id="Node000006" class="node">
<title>Node6</title>
<g id="a_Node000006"><a xlink:href="defines_8h.html" target="_top" xlink:title=" ">
<polygon fill="white" stroke="#666666" points="337.5,-261 276.5,-261 276.5,-242 337.5,-242 337.5,-261"/>
<text text-anchor="middle" x="307" y="-249" font-family="Helvetica,sans-Serif" font-size="10.00">defines.h</text>
</a>
</g>
</g>
<!-- Node3&#45;&gt;Node6 -->
<g id="edge6_Node000003_Node000006" class="edge">
<title>Node3&#45;&gt;Node6</title>
<g id="a_edge6_Node000003_Node000006"><a xlink:title=" ">
<path fill="none" stroke="#63b8ff" d="M593.43,-301.73C546.75,-294.76 444.39,-279.06 347.51,-261.01"/>
<polygon fill="#63b8ff" stroke="#63b8ff" points="348.02,-257.55 337.55,-259.15 346.73,-264.43 348.02,-257.55"/>
</a>
</g>
</g>
<!-- Node3&#45;&gt;Node7 -->
<g id="edge7_Node000003_Node000007" class="edge">
<title>Node3&#45;&gt;Node7</title>
<g id="a_edge7_Node000003_Node000007"><a xlink:title=" ">
<path fill="none" stroke="#63b8ff" d="M615.93,-296.91C610.73,-283.46 598.95,-257.39 581,-242 544.18,-210.43 411.77,-164.73 346.26,-143.36"/>
<polygon fill="#63b8ff" stroke="#63b8ff" points="346.93,-139.89 336.34,-140.14 344.77,-146.55 346.93,-139.89"/>
</a>
</g>
</g>
<!-- Node8 -->
<g id="Node000008" class="node">
<title>Node8</title>
<g id="a_Node000008"><a xlink:href="common__structs_8h.html" target="_top" xlink:title=" ">
<polygon fill="white" stroke="#666666" points="573.5,-74 466.5,-74 466.5,-55 573.5,-55 573.5,-74"/>
<text text-anchor="middle" x="520" y="-62" font-family="Helvetica,sans-Serif" font-size="10.00">common_structs.h</text>
</a>
</g>
</g>
<!-- Node3&#45;&gt;Node8 -->
<g id="edge40_Node000003_Node000008" class="edge">
<title>Node3&#45;&gt;Node8</title>
<g id="a_edge40_Node000003_Node000008"><a xlink:title=" ">
<path fill="none" stroke="#63b8ff" d="M618.82,-296.84C618.15,-283.75 615.22,-258.7 603,-242 591.66,-226.5 465.35,-167.78 456,-151 447.13,-135.08 447.56,-126.15 456,-110 463.11,-96.39 476.49,-86.1 489.19,-78.87"/>
<polygon fill="#63b8ff" stroke="#63b8ff" points="490.98,-81.88 498.21,-74.13 487.73,-75.68 490.98,-81.88"/>
</a>
</g>
</g>
<!-- Node3&#45;&gt;Node9 -->
<g id="edge11_Node000003_Node000009" class="edge">
<title>Node3&#45;&gt;Node9</title>
<g id="a_edge11_Node000003_Node000009"><a xlink:title=" ">
<path fill="none" stroke="#63b8ff" d="M644.65,-301.82C702.31,-293.53 843.52,-273.25 925.77,-261.44"/>
<polygon fill="#63b8ff" stroke="#63b8ff" points="926.34,-264.89 935.75,-260.01 925.35,-257.96 926.34,-264.89"/>
</a>
</g>
</g>
<!-- Node15 -->
<g id="Node000015" class="node">
<title>Node15</title>
<g id="a_Node000015"><a xlink:href="bomb__kart_8h.html" target="_top" xlink:title=" ">
<polygon fill="white" stroke="#666666" points="769.5,-206 692.5,-206 692.5,-187 769.5,-187 769.5,-206"/>
<text text-anchor="middle" x="731" y="-194" font-family="Helvetica,sans-Serif" font-size="10.00">bomb_kart.h</text>
</a>
</g>
</g>
<!-- Node3&#45;&gt;Node15 -->
<g id="edge21_Node000003_Node000015" class="edge">
<title>Node3&#45;&gt;Node15</title>
<g id="a_edge21_Node000003_Node000015"><a xlink:title=" ">
<path fill="none" stroke="#63b8ff" d="M628.4,-296.68C637.92,-287.73 653.04,-273.46 666,-261 682.76,-244.88 701.77,-226.27 714.88,-213.38"/>
<polygon fill="#63b8ff" stroke="#63b8ff" points="717.54,-215.68 722.21,-206.17 712.63,-210.69 717.54,-215.68"/>
</a>
</g>
</g>
<!-- Node3&#45;&gt;Node19 -->
<g id="edge28_Node000003_Node000019" class="edge">
<title>Node3&#45;&gt;Node19</title>
<g id="a_edge28_Node000003_Node000019"><a xlink:title=" ">
<path fill="none" stroke="#63b8ff" d="M644.89,-298.35C677.12,-289.46 732.53,-274.16 770.42,-263.7"/>
<polygon fill="#63b8ff" stroke="#63b8ff" points="771.42,-267.06 780.13,-261.02 769.56,-260.31 771.42,-267.06"/>
</a>
</g>
</g>
<!-- Node20 -->
<g id="Node000020" class="node">
<title>Node20</title>
<g id="a_Node000020"><a xlink:href="waypoints_8h.html" target="_top" xlink:title=" ">
<polygon fill="white" stroke="#666666" points="674,-206 598,-206 598,-187 674,-187 674,-206"/>
<text text-anchor="middle" x="636" y="-194" font-family="Helvetica,sans-Serif" font-size="10.00">waypoints.h</text>
</a>
</g>
</g>
<!-- Node3&#45;&gt;Node20 -->
<g id="edge38_Node000003_Node000020" class="edge">
<title>Node3&#45;&gt;Node20</title>
<g id="a_edge38_Node000003_Node000020"><a xlink:title=" ">
<path fill="none" stroke="#63b8ff" d="M628.02,-296.96C636.07,-288.66 647.29,-275.25 652,-261 657.01,-245.84 651.71,-228.2 645.9,-215.36"/>
<polygon fill="#63b8ff" stroke="#63b8ff" points="648.93,-213.61 641.32,-206.24 642.68,-216.75 648.93,-213.61"/>
</a>
</g>
</g>
<!-- Node22 -->
<g id="Node000022" class="node">
<title>Node22</title>
<g id="a_Node000022"><a xlink:href="sounds_8h.html" target="_top" xlink:title=" ">
<polygon fill="white" stroke="#666666" points="572,-261 512,-261 512,-242 572,-242 572,-261"/>
<text text-anchor="middle" x="542" y="-249" font-family="Helvetica,sans-Serif" font-size="10.00">sounds.h</text>
</a>
</g>
</g>
<!-- Node3&#45;&gt;Node22 -->
<g id="edge39_Node000003_Node000022" class="edge">
<title>Node3&#45;&gt;Node22</title>
<g id="a_edge39_Node000003_Node000022"><a xlink:title=" ">
<path fill="none" stroke="#63b8ff" d="M606.63,-296.98C594.91,-288.92 577.08,-276.65 563.11,-267.03"/>
<polygon fill="#63b8ff" stroke="#63b8ff" points="564.82,-263.96 554.6,-261.17 560.85,-269.72 564.82,-263.96"/>
</a>
</g>
</g>
<!-- Node3&#45;&gt;Node23 -->
<g id="edge41_Node000003_Node000023" class="edge">
<title>Node3&#45;&gt;Node23</title>
<g id="a_edge41_Node000003_Node000023"><a xlink:title=" ">
<path fill="none" stroke="#63b8ff" d="M593.28,-304.51C533.67,-301.74 381.73,-291.98 259,-261 209.36,-248.47 154.42,-224.91 122.69,-210.28"/>
<polygon fill="#63b8ff" stroke="#63b8ff" points="124.15,-207.1 113.61,-206.05 121.19,-213.45 124.15,-207.1"/>
</a>
</g>
</g>
<!-- Node5&#45;&gt;Node2 -->
<g id="edge5_Node000005_Node000002" class="edge">
<title>Node5&#45;&gt;Node2</title>
<g id="a_edge5_Node000005_Node000002"><a xlink:title=" ">
<path fill="none" stroke="#63b8ff" d="M326.49,-186.64C342.85,-161.11 394.1,-87.19 458,-55 500.04,-33.82 552.67,-22.39 590.68,-16.44"/>
<polygon fill="#63b8ff" stroke="#63b8ff" points="591.62,-19.84 601,-14.9 590.59,-12.92 591.62,-19.84"/>
</a>
</g>
</g>
<!-- Node7&#45;&gt;Node2 -->
<g id="edge8_Node000007_Node000002" class="edge">
<title>Node7&#45;&gt;Node2</title>
<g id="a_edge8_Node000007_Node000002"><a xlink:title=" ">
<path fill="none" stroke="#63b8ff" d="M311.51,-120.89C316.64,-104.98 329.9,-71.16 354,-55 391.82,-29.64 519.14,-17.91 590.84,-13.21"/>
<polygon fill="#63b8ff" stroke="#63b8ff" points="591.24,-16.69 601,-12.56 590.79,-9.7 591.24,-16.69"/>
</a>
</g>
</g>
<!-- Node7&#45;&gt;Node8 -->
<g id="edge9_Node000007_Node000008" class="edge">
<title>Node7&#45;&gt;Node8</title>
<g id="a_edge9_Node000007_Node000008"><a xlink:title=" ">
<path fill="none" stroke="#63b8ff" d="M337.46,-120.87C374.76,-109.55 440.33,-89.66 481.9,-77.06"/>
<polygon fill="#63b8ff" stroke="#63b8ff" points="483.1,-80.35 491.66,-74.1 481.07,-73.65 483.1,-80.35"/>
</a>
</g>
</g>
<!-- Node8&#45;&gt;Node2 -->
<g id="edge10_Node000008_Node000002" class="edge">
<title>Node8&#45;&gt;Node2</title>
<g id="a_edge10_Node000008_Node000002"><a xlink:title=" ">
<path fill="none" stroke="#63b8ff" d="M539.44,-54.98C558.99,-46.42 589.38,-33.11 611.82,-23.28"/>
<polygon fill="#63b8ff" stroke="#63b8ff" points="613.45,-26.39 621.21,-19.17 610.64,-19.98 613.45,-26.39"/>
</a>
</g>
</g>
<!-- Node10 -->
<g id="Node000010" class="node">
<title>Node10</title>
<g id="a_Node000010"><a xlink:title=" ">
<polygon fill="#e0e0e0" stroke="#999999" points="1198,-74 1120,-74 1120,-55 1198,-55 1198,-74"/>
<text text-anchor="middle" x="1159" y="-62" font-family="Helvetica,sans-Serif" font-size="10.00">libultra/gbi.h</text>
</a>
</g>
</g>
<!-- Node9&#45;&gt;Node10 -->
<g id="edge12_Node000009_Node000010" class="edge">
<title>Node9&#45;&gt;Node10</title>
<g id="a_edge12_Node000009_Node000010"><a xlink:title=" ">
<path fill="none" stroke="#63b8ff" d="M1040.01,-243.15C1067.72,-237.04 1100.95,-225.96 1125,-206 1160.96,-176.15 1162.6,-115.39 1160.81,-84.48"/>
<polygon fill="#63b8ff" stroke="#63b8ff" points="1164.28,-83.92 1160.03,-74.22 1157.3,-84.46 1164.28,-83.92"/>
</a>
</g>
</g>
<!-- Node11 -->
<g id="Node000011" class="node">
<title>Node11</title>
<g id="a_Node000011"><a xlink:href="spline_8h.html" target="_top" xlink:title=" ">
<polygon fill="white" stroke="#666666" points="641.5,-140 586.5,-140 586.5,-121 641.5,-121 641.5,-140"/>
<text text-anchor="middle" x="614" y="-128" font-family="Helvetica,sans-Serif" font-size="10.00">spline.h</text>
</a>
</g>
</g>
<!-- Node9&#45;&gt;Node11 -->
<g id="edge13_Node000009_Node000011" class="edge">
<title>Node9&#45;&gt;Node11</title>
<g id="a_edge13_Node000009_Node000011"><a xlink:title=" ">
<path fill="none" stroke="#63b8ff" d="M983.53,-241.73C975.79,-227.53 958.43,-199.82 935,-187 823.39,-125.93 772.34,-189.28 651,-151 646.15,-149.47 641.18,-147.32 636.52,-145"/>
<polygon fill="#63b8ff" stroke="#63b8ff" points="638,-141.82 627.54,-140.14 634.68,-147.97 638,-141.82"/>
</a>
</g>
</g>
<!-- Node12 -->
<g id="Node000012" class="node">
<title>Node12</title>
<g id="a_Node000012"><a xlink:href="other__textures_8h.html" target="_top" xlink:title=" ">
<polygon fill="white" stroke="#666666" points="1123,-145.5 1003,-145.5 1003,-115.5 1123,-115.5 1123,-145.5"/>
<text text-anchor="start" x="1011" y="-133.5" font-family="Helvetica,sans-Serif" font-size="10.00">assets/textures/other</text>
<text text-anchor="middle" x="1063" y="-122.5" font-family="Helvetica,sans-Serif" font-size="10.00">_textures.h</text>
</a>
</g>
</g>
<!-- Node9&#45;&gt;Node12 -->
<g id="edge15_Node000009_Node000012" class="edge">
<title>Node9&#45;&gt;Node12</title>
<g id="a_edge15_Node000009_Node000012"><a xlink:title=" ">
<path fill="none" stroke="#63b8ff" d="M989.96,-241.79C993.08,-229.08 999.97,-204.99 1011,-187 1018.7,-174.44 1029.57,-162.29 1039.37,-152.57"/>
<polygon fill="#63b8ff" stroke="#63b8ff" points="1041.8,-155.1 1046.6,-145.65 1036.96,-150.04 1041.8,-155.1"/>
</a>
</g>
</g>
<!-- Node9&#45;&gt;Node14 -->
<g id="edge18_Node000009_Node000014" class="edge">
<title>Node9&#45;&gt;Node14</title>
<g id="a_edge18_Node000009_Node000014"><a xlink:title=" ">
<path fill="none" stroke="#63b8ff" d="M973.06,-241.98C958.5,-233.69 936.13,-220.94 919.07,-211.22"/>
<polygon fill="#63b8ff" stroke="#63b8ff" points="920.64,-208.08 910.21,-206.17 917.17,-214.16 920.64,-208.08"/>
</a>
</g>
</g>
<!-- Node11&#45;&gt;Node8 -->
<g id="edge14_Node000011_Node000008" class="edge">
<title>Node11&#45;&gt;Node8</title>
<g id="a_edge14_Node000011_Node000008"><a xlink:title=" ">
<path fill="none" stroke="#63b8ff" d="M601.32,-120.87C585.91,-110.37 559.65,-92.5 541.15,-79.9"/>
<polygon fill="#63b8ff" stroke="#63b8ff" points="543.01,-76.93 532.78,-74.2 539.07,-82.72 543.01,-76.93"/>
</a>
</g>
</g>
<!-- Node12&#45;&gt;Node2 -->
<g id="edge16_Node000012_Node000002" class="edge">
<title>Node12&#45;&gt;Node2</title>
<g id="a_edge16_Node000012_Node000002"><a xlink:title=" ">
<path fill="none" stroke="#63b8ff" d="M1041.38,-115.27C1014.36,-98.2 966.18,-69.99 921,-55 843.38,-29.24 748.56,-18.17 691.57,-13.58"/>
<polygon fill="#63b8ff" stroke="#63b8ff" points="691.62,-10.07 681.38,-12.79 691.08,-17.05 691.62,-10.07"/>
</a>
</g>
</g>
<!-- Node13 -->
<g id="Node000013" class="node">
<title>Node13</title>
<g id="a_Node000013"><a xlink:href="align__asset__macro_8h.html" target="_top" xlink:title=" ">
<polygon fill="white" stroke="#666666" points="1333.5,-74 1216.5,-74 1216.5,-55 1333.5,-55 1333.5,-74"/>
<text text-anchor="middle" x="1275" y="-62" font-family="Helvetica,sans-Serif" font-size="10.00">align_asset_macro.h</text>
</a>
</g>
</g>
<!-- Node12&#45;&gt;Node13 -->
<g id="edge17_Node000012_Node000013" class="edge">
<title>Node12&#45;&gt;Node13</title>
<g id="a_edge17_Node000012_Node000013"><a xlink:title=" ">
<path fill="none" stroke="#63b8ff" d="M1109.52,-115.45C1147.69,-103.93 1201.05,-87.82 1236.76,-77.04"/>
<polygon fill="#63b8ff" stroke="#63b8ff" points="1238.22,-80.26 1246.79,-74.02 1236.2,-73.56 1238.22,-80.26"/>
</a>
</g>
</g>
<!-- Node14&#45;&gt;Node8 -->
<g id="edge20_Node000014_Node000008" class="edge">
<title>Node14&#45;&gt;Node8</title>
<g id="a_edge20_Node000014_Node000008"><a xlink:title=" ">
<path fill="none" stroke="#63b8ff" d="M864.27,-191.87C787.05,-182.65 590.12,-158.55 578,-151 552.58,-135.16 535.64,-103.61 526.94,-83.58"/>
<polygon fill="#63b8ff" stroke="#63b8ff" points="530.07,-81.98 523.04,-74.05 523.59,-84.63 530.07,-81.98"/>
</a>
</g>
</g>
<!-- Node14&#45;&gt;Node11 -->
<g id="edge19_Node000014_Node000011" class="edge">
<title>Node14&#45;&gt;Node11</title>
<g id="a_edge19_Node000014_Node000011"><a xlink:title=" ">
<path fill="none" stroke="#63b8ff" d="M864.19,-192.91C817.15,-188.29 725.07,-176.6 651,-151 646.27,-149.37 641.41,-147.2 636.83,-144.91"/>
<polygon fill="#63b8ff" stroke="#63b8ff" points="638.42,-141.79 627.95,-140.15 635.11,-147.96 638.42,-141.79"/>
</a>
</g>
</g>
<!-- Node15&#45;&gt;Node8 -->
<g id="edge22_Node000015_Node000008" class="edge">
<title>Node15&#45;&gt;Node8</title>
<g id="a_edge22_Node000015_Node000008"><a xlink:title=" ">
<path fill="none" stroke="#63b8ff" d="M692.44,-188.51C628.92,-176.92 508.97,-154.62 506,-151 490.3,-131.89 500.55,-102.05 509.88,-83.15"/>
<polygon fill="#63b8ff" stroke="#63b8ff" points="513.07,-84.62 514.67,-74.15 506.89,-81.33 513.07,-84.62"/>
</a>
</g>
</g>
<!-- Node16 -->
<g id="Node000016" class="node">
<title>Node16</title>
<g id="a_Node000016"><a xlink:href="mk64_8h.html" target="_top" xlink:title=" ">
<polygon fill="white" stroke="#666666" points="844.5,-140 791.5,-140 791.5,-121 844.5,-121 844.5,-140"/>
<text text-anchor="middle" x="818" y="-128" font-family="Helvetica,sans-Serif" font-size="10.00">mk64.h</text>
</a>
</g>
</g>
<!-- Node15&#45;&gt;Node16 -->
<g id="edge23_Node000015_Node000016" class="edge">
<title>Node15&#45;&gt;Node16</title>
<g id="a_edge23_Node000015_Node000016"><a xlink:title=" ">
<path fill="none" stroke="#63b8ff" d="M742.73,-186.87C756.87,-176.47 780.86,-158.82 797.95,-146.25"/>
<polygon fill="#63b8ff" stroke="#63b8ff" points="800.19,-148.94 806.17,-140.2 796.05,-143.31 800.19,-148.94"/>
</a>
</g>
</g>
<!-- Node16&#45;&gt;Node2 -->
<g id="edge24_Node000016_Node000002" class="edge">
<title>Node16&#45;&gt;Node2</title>
<g id="a_edge24_Node000016_Node000002"><a xlink:title=" ">
<path fill="none" stroke="#63b8ff" d="M815.54,-120.77C810.72,-105.27 798.6,-72.9 777,-55 752.64,-34.81 718.86,-23.7 691.06,-17.62"/>
<polygon fill="#63b8ff" stroke="#63b8ff" points="691.61,-14.17 681.11,-15.61 690.22,-21.03 691.61,-14.17"/>
</a>
</g>
</g>
<!-- Node16&#45;&gt;Node10 -->
<g id="edge27_Node000016_Node000010" class="edge">
<title>Node16&#45;&gt;Node10</title>
<g id="a_edge27_Node000016_Node000010"><a xlink:title=" ">
<path fill="none" stroke="#63b8ff" d="M831.17,-120.91C837.77,-116.99 846.04,-112.64 854,-110 941.13,-81.06 1048.47,-70.92 1109.79,-67.39"/>
<polygon fill="#63b8ff" stroke="#63b8ff" points="1110.17,-70.87 1119.96,-66.84 1109.79,-63.88 1110.17,-70.87"/>
</a>
</g>
</g>
<!-- Node17 -->
<g id="Node000017" class="node">
<title>Node17</title>
<g id="a_Node000017"><a xlink:href="string_8h.html" target="_top" xlink:title=" ">
<polygon fill="white" stroke="#666666" points="891.5,-74 838.5,-74 838.5,-55 891.5,-55 891.5,-74"/>
<text text-anchor="middle" x="865" y="-62" font-family="Helvetica,sans-Serif" font-size="10.00">string.h</text>
</a>
</g>
</g>
<!-- Node16&#45;&gt;Node17 -->
<g id="edge25_Node000016_Node000017" class="edge">
<title>Node16&#45;&gt;Node17</title>
<g id="a_edge25_Node000016_Node000017"><a xlink:title=" ">
<path fill="none" stroke="#63b8ff" d="M824.34,-120.87C831.52,-111.09 843.39,-94.92 852.46,-82.58"/>
<polygon fill="#63b8ff" stroke="#63b8ff" points="855.36,-84.54 858.46,-74.41 849.72,-80.39 855.36,-84.54"/>
</a>
</g>
</g>
<!-- Node18 -->
<g id="Node000018" class="node">
<title>Node18</title>
<g id="a_Node000018"><a xlink:title=" ">
<polygon fill="#e0e0e0" stroke="#999999" points="1319,-19 1229,-19 1229,0 1319,0 1319,-19"/>
<text text-anchor="middle" x="1274" y="-7" font-family="Helvetica,sans-Serif" font-size="10.00">libultra/types.h</text>
</a>
</g>
</g>
<!-- Node17&#45;&gt;Node18 -->
<g id="edge26_Node000017_Node000018" class="edge">
<title>Node17&#45;&gt;Node18</title>
<g id="a_edge26_Node000017_Node000018"><a xlink:title=" ">
<path fill="none" stroke="#63b8ff" d="M891.52,-60.06C957.42,-51.52 1129.68,-29.2 1218.81,-17.65"/>
<polygon fill="#63b8ff" stroke="#63b8ff" points="1219.52,-21.09 1228.99,-16.33 1218.62,-14.15 1219.52,-21.09"/>
</a>
</g>
</g>
<!-- Node19&#45;&gt;Node8 -->
<g id="edge31_Node000019_Node000008" class="edge">
<title>Node19&#45;&gt;Node8</title>
<g id="a_edge31_Node000019_Node000008"><a xlink:title=" ">
<path fill="none" stroke="#63b8ff" d="M809.31,-241.87C806.07,-227.87 797.61,-200.44 779,-187 690.49,-123.07 614.65,-226.72 536,-151 518.18,-133.84 516.61,-103.62 517.8,-84.09"/>
<polygon fill="#63b8ff" stroke="#63b8ff" points="521.3,-84.28 518.71,-74.01 514.32,-83.65 521.3,-84.28"/>
</a>
</g>
</g>
<!-- Node19&#45;&gt;Node15 -->
<g id="edge37_Node000019_Node000015" class="edge">
<title>Node19&#45;&gt;Node15</title>
<g id="a_edge37_Node000019_Node000015"><a xlink:title=" ">
<path fill="none" stroke="#63b8ff" d="M798.15,-241.98C785.86,-233.84 767.09,-221.41 752.52,-211.76"/>
<polygon fill="#63b8ff" stroke="#63b8ff" points="754.36,-208.78 744.09,-206.17 750.49,-214.61 754.36,-208.78"/>
</a>
</g>
</g>
<!-- Node19&#45;&gt;Node20 -->
<g id="edge29_Node000019_Node000020" class="edge">
<title>Node19&#45;&gt;Node20</title>
<g id="a_edge29_Node000019_Node000020"><a xlink:title=" ">
<path fill="none" stroke="#63b8ff" d="M782.88,-241.98C753.38,-233.05 706.81,-218.94 674.03,-209.02"/>
<polygon fill="#63b8ff" stroke="#63b8ff" points="674.92,-205.63 664.34,-206.08 672.89,-212.33 674.92,-205.63"/>
</a>
</g>
</g>
<!-- Node21 -->
<g id="Node000021" class="node">
<title>Node21</title>
<g id="a_Node000021"><a xlink:href="other_2common__data_8h.html" target="_top" xlink:title=" ">
<polygon fill="white" stroke="#666666" points="985,-145.5 863,-145.5 863,-115.5 985,-115.5 985,-145.5"/>
<text text-anchor="start" x="871" y="-133.5" font-family="Helvetica,sans-Serif" font-size="10.00">assets/other/common</text>
<text text-anchor="middle" x="924" y="-122.5" font-family="Helvetica,sans-Serif" font-size="10.00">_data.h</text>
</a>
</g>
</g>
<!-- Node19&#45;&gt;Node21 -->
<g id="edge32_Node000019_Node000021" class="edge">
<title>Node19&#45;&gt;Node21</title>
<g id="a_edge32_Node000019_Node000021"><a xlink:title=" ">
<path fill="none" stroke="#63b8ff" d="M816.15,-241.73C823.89,-228.95 839.4,-204.77 856,-187 868.03,-174.12 883.07,-161.55 895.95,-151.64"/>
<polygon fill="#63b8ff" stroke="#63b8ff" points="898.17,-154.35 904.04,-145.53 893.95,-148.76 898.17,-154.35"/>
</a>
</g>
</g>
<!-- Node20&#45;&gt;Node8 -->
<g id="edge30_Node000020_Node000008" class="edge">
<title>Node20&#45;&gt;Node8</title>
<g id="a_edge30_Node000020_Node000008"><a xlink:title=" ">
<path fill="none" stroke="#63b8ff" d="M597.8,-187.93C550.74,-178.22 476,-161.4 468,-151 456.89,-136.56 460.38,-126.55 468,-110 473.75,-97.52 484.91,-87.24 495.42,-79.71"/>
<polygon fill="#63b8ff" stroke="#63b8ff" points="497.57,-82.49 503.97,-74.05 493.7,-76.65 497.57,-82.49"/>
</a>
</g>
</g>
<!-- Node21&#45;&gt;Node2 -->
<g id="edge34_Node000021_Node000002" class="edge">
<title>Node21&#45;&gt;Node2</title>
<g id="a_edge34_Node000021_Node000002"><a xlink:title=" ">
<path fill="none" stroke="#63b8ff" d="M923.83,-115.36C922.81,-98.38 918.4,-70.27 901,-55 870.58,-28.29 758.18,-17.25 691.53,-12.97"/>
<polygon fill="#63b8ff" stroke="#63b8ff" points="691.44,-9.46 681.25,-12.34 691.02,-16.45 691.44,-9.46"/>
</a>
</g>
</g>
<!-- Node21&#45;&gt;Node8 -->
<g id="edge35_Node000021_Node000008" class="edge">
<title>Node21&#45;&gt;Node8</title>
<g id="a_edge35_Node000021_Node000008"><a xlink:title=" ">
<path fill="none" stroke="#63b8ff" d="M877.15,-115.48C869.46,-113.46 861.54,-111.54 854,-110 760.79,-90.9 651.19,-78.11 583.66,-71.32"/>
<polygon fill="#63b8ff" stroke="#63b8ff" points="583.9,-67.82 573.6,-70.32 583.21,-74.79 583.9,-67.82"/>
</a>
</g>
</g>
<!-- Node21&#45;&gt;Node10 -->
<g id="edge33_Node000021_Node000010" class="edge">
<title>Node21&#45;&gt;Node10</title>
<g id="a_edge33_Node000021_Node000010"><a xlink:title=" ">
<path fill="none" stroke="#63b8ff" d="M974.08,-115.5C980.77,-113.64 987.55,-111.77 994,-110 1035.88,-98.52 1083.8,-85.62 1117.17,-76.68"/>
<polygon fill="#63b8ff" stroke="#63b8ff" points="1118.29,-80 1127.04,-74.04 1116.47,-73.24 1118.29,-80"/>
</a>
</g>
</g>
<!-- Node21&#45;&gt;Node13 -->
<g id="edge36_Node000021_Node000013" class="edge">
<title>Node21&#45;&gt;Node13</title>
<g id="a_edge36_Node000021_Node000013"><a xlink:title=" ">
<path fill="none" stroke="#63b8ff" d="M971.64,-115.44C979.09,-113.47 986.73,-111.58 994,-110 1065.82,-94.36 1149.1,-81.87 1206.24,-74.15"/>
<polygon fill="#63b8ff" stroke="#63b8ff" points="1206.8,-77.6 1216.24,-72.81 1205.87,-70.67 1206.8,-77.6"/>
</a>
</g>
</g>
<!-- Node23&#45;&gt;Node2 -->
<g id="edge45_Node000023_Node000002" class="edge">
<title>Node23&#45;&gt;Node2</title>
<g id="a_edge45_Node000023_Node000002"><a xlink:title=" ">
<path fill="none" stroke="#63b8ff" d="M108.47,-186.69C120.08,-178.2 137.57,-164.66 151,-151 188.96,-112.39 178.67,-81.3 226,-55 287.49,-20.83 494.46,-12.89 590.84,-11.05"/>
<polygon fill="#63b8ff" stroke="#63b8ff" points="590.98,-14.55 600.92,-10.88 590.86,-7.55 590.98,-14.55"/>
</a>
</g>
</g>
<!-- Node23&#45;&gt;Node7 -->
<g id="edge51_Node000023_Node000007" class="edge">
<title>Node23&#45;&gt;Node7</title>
<g id="a_edge51_Node000023_Node000007"><a xlink:title=" ">
<path fill="none" stroke="#63b8ff" d="M124.73,-186.87C162.47,-175.53 228.86,-155.58 270.8,-142.98"/>
<polygon fill="#63b8ff" stroke="#63b8ff" points="271.82,-146.33 280.39,-140.1 269.81,-139.62 271.82,-146.33"/>
</a>
</g>
</g>
<!-- Node24 -->
<g id="Node000024" class="node">
<title>Node24</title>
<g id="a_Node000024"><a xlink:href="macros_8h.html" target="_top" xlink:title=" ">
<polygon fill="white" stroke="#666666" points="62,-74 0,-74 0,-55 62,-55 62,-74"/>
<text text-anchor="middle" x="31" y="-62" font-family="Helvetica,sans-Serif" font-size="10.00">macros.h</text>
</a>
</g>
</g>
<!-- Node23&#45;&gt;Node24 -->
<g id="edge42_Node000023_Node000024" class="edge">
<title>Node23&#45;&gt;Node24</title>
<g id="a_edge42_Node000023_Node000024"><a xlink:title=" ">
<path fill="none" stroke="#63b8ff" d="M83.48,-186.73C72.92,-178.66 58.25,-165.74 50,-151 38.25,-130 33.76,-102.29 32.05,-84.19"/>
<polygon fill="#63b8ff" stroke="#63b8ff" points="35.53,-83.79 31.29,-74.08 28.55,-84.32 35.53,-83.79"/>
</a>
</g>
</g>
<!-- Node26 -->
<g id="Node000026" class="node">
<title>Node26</title>
<g id="a_Node000026"><a xlink:href="actor__types_8h.html" target="_top" xlink:title=" ">
<polygon fill="white" stroke="#666666" points="142.5,-140 59.5,-140 59.5,-121 142.5,-121 142.5,-140"/>
<text text-anchor="middle" x="101" y="-128" font-family="Helvetica,sans-Serif" font-size="10.00">actor_types.h</text>
</a>
</g>
</g>
<!-- Node23&#45;&gt;Node26 -->
<g id="edge46_Node000023_Node000026" class="edge">
<title>Node23&#45;&gt;Node26</title>
<g id="a_edge46_Node000023_Node000026"><a xlink:title=" ">
<path fill="none" stroke="#63b8ff" d="M96.67,-186.87C97.4,-177.57 98.58,-162.48 99.52,-150.4"/>
<polygon fill="#63b8ff" stroke="#63b8ff" points="103.01,-150.65 100.3,-140.41 96.04,-150.1 103.01,-150.65"/>
</a>
</g>
</g>
<!-- Node24&#45;&gt;Node2 -->
<g id="edge44_Node000024_Node000002" class="edge">
<title>Node24&#45;&gt;Node2</title>
<g id="a_edge44_Node000024_Node000002"><a xlink:title=" ">
<path fill="none" stroke="#63b8ff" d="M62.4,-57.12C66.95,-56.33 71.59,-55.59 76,-55 265.1,-29.77 491.85,-17.23 590.76,-12.63"/>
<polygon fill="#63b8ff" stroke="#63b8ff" points="590.94,-16.13 600.77,-12.17 590.62,-9.13 590.94,-16.13"/>
</a>
</g>
</g>
<!-- Node25 -->
<g id="Node000025" class="node">
<title>Node25</title>
<g id="a_Node000025"><a xlink:href="math_8h.html" target="_top" xlink:title=" ">
<polygon fill="white" stroke="#666666" points="56.5,-19 5.5,-19 5.5,0 56.5,0 56.5,-19"/>
<text text-anchor="middle" x="31" y="-7" font-family="Helvetica,sans-Serif" font-size="10.00">math.h</text>
</a>
</g>
</g>
<!-- Node24&#45;&gt;Node25 -->
<g id="edge43_Node000024_Node000025" class="edge">
<title>Node24&#45;&gt;Node25</title>
<g id="a_edge43_Node000024_Node000025"><a xlink:title=" ">
<path fill="none" stroke="#63b8ff" d="M31,-54.75C31,-47.8 31,-37.85 31,-29.13"/>
<polygon fill="#63b8ff" stroke="#63b8ff" points="34.5,-29.09 31,-19.09 27.5,-29.09 34.5,-29.09"/>
</a>
</g>
</g>
<!-- Node26&#45;&gt;Node2 -->
<g id="edge47_Node000026_Node000002" class="edge">
<title>Node26&#45;&gt;Node2</title>
<g id="a_edge47_Node000026_Node000002"><a xlink:title=" ">
<path fill="none" stroke="#63b8ff" d="M98.85,-120.89C95.52,-105.29 91.23,-72.36 109,-55 143.02,-21.77 464.41,-13.22 590.54,-11.14"/>
<polygon fill="#63b8ff" stroke="#63b8ff" points="590.76,-14.63 600.71,-10.97 590.65,-7.63 590.76,-14.63"/>
</a>
</g>
</g>
<!-- Node26&#45;&gt;Node8 -->
<g id="edge49_Node000026_Node000008" class="edge">
<title>Node26&#45;&gt;Node8</title>
<g id="a_edge49_Node000026_Node000008"><a xlink:title=" ">
<path fill="none" stroke="#63b8ff" d="M142.71,-123.13C216.28,-111.89 369.52,-88.48 456.37,-75.22"/>
<polygon fill="#63b8ff" stroke="#63b8ff" points="457.01,-78.66 466.36,-73.69 455.95,-71.74 457.01,-78.66"/>
</a>
</g>
</g>
<!-- Node26&#45;&gt;Node24 -->
<g id="edge48_Node000026_Node000024" class="edge">
<title>Node26&#45;&gt;Node24</title>
<g id="a_edge48_Node000026_Node000024"><a xlink:title=" ">
<path fill="none" stroke="#63b8ff" d="M91.56,-120.87C80.45,-110.71 61.8,-93.66 48.12,-81.15"/>
<polygon fill="#63b8ff" stroke="#63b8ff" points="50.48,-78.57 40.74,-74.41 45.76,-83.74 50.48,-78.57"/>
</a>
</g>
</g>
<!-- Node27 -->
<g id="Node000027" class="node">
<title>Node27</title>
<g id="a_Node000027"><a xlink:title=" ">
<polygon fill="#e0e0e0" stroke="#999999" points="174,-74 118,-74 118,-55 174,-55 174,-74"/>
<text text-anchor="middle" x="146" y="-62" font-family="Helvetica,sans-Serif" font-size="10.00">assert.h</text>
</a>
</g>
</g>
<!-- Node26&#45;&gt;Node27 -->
<g id="edge50_Node000026_Node000027" class="edge">
<title>Node26&#45;&gt;Node27</title>
<g id="a_edge50_Node000026_Node000027"><a xlink:title=" ">
<path fill="none" stroke="#63b8ff" d="M107.07,-120.87C113.87,-111.19 125.09,-95.24 133.74,-82.94"/>
<polygon fill="#63b8ff" stroke="#63b8ff" points="136.85,-84.6 139.74,-74.41 131.12,-80.57 136.85,-84.6"/>
</a>
</g>
</g>
<!-- Node28&#45;&gt;Node2 -->
<g id="edge53_Node000028_Node000002" class="edge">
<title>Node28&#45;&gt;Node2</title>
<g id="a_edge53_Node000028_Node000002"><a xlink:title=" ">
<path fill="none" stroke="#63b8ff" d="M1315.9,-109.85C1337.74,-94.42 1359.59,-72.68 1343,-55 1320.74,-31.28 849.09,-16.21 691.65,-11.83"/>
<polygon fill="#63b8ff" stroke="#63b8ff" points="691.4,-8.32 681.31,-11.55 691.21,-15.32 691.4,-8.32"/>
</a>
</g>
</g>
<!-- Node28&#45;&gt;Node10 -->
<g id="edge54_Node000028_Node000010" class="edge">
<title>Node28&#45;&gt;Node10</title>
<g id="a_edge54_Node000028_Node000010"><a xlink:title=" ">
<path fill="none" stroke="#63b8ff" d="M1245.12,-109.95C1225.53,-99.84 1202.13,-87.76 1184.67,-78.75"/>
<polygon fill="#63b8ff" stroke="#63b8ff" points="1186.14,-75.57 1175.65,-74.09 1182.93,-81.79 1186.14,-75.57"/>
</a>
</g>
</g>
<!-- Node28&#45;&gt;Node13 -->
<g id="edge55_Node000028_Node000013" class="edge">
<title>Node28&#45;&gt;Node13</title>
<g id="a_edge55_Node000028_Node000013"><a xlink:title=" ">
<path fill="none" stroke="#63b8ff" d="M1280.56,-109.95C1279.53,-101.76 1278.35,-92.28 1277.34,-84.19"/>
<polygon fill="#63b8ff" stroke="#63b8ff" points="1280.81,-83.75 1276.1,-74.26 1273.86,-84.62 1280.81,-83.75"/>
</a>
</g>
</g>
<!-- Node29&#45;&gt;Node2 -->
<g id="edge57_Node000029_Node000002" class="edge">
<title>Node29&#45;&gt;Node2</title>
<g id="a_edge57_Node000029_Node000002"><a xlink:title=" ">
<path fill="none" stroke="#63b8ff" d="M1422.35,-109.98C1408.63,-92.14 1385.72,-66.79 1359,-55 1298.33,-28.24 844.2,-15.25 691.17,-11.61"/>
<polygon fill="#63b8ff" stroke="#63b8ff" points="691.19,-8.1 681.11,-11.37 691.02,-15.1 691.19,-8.1"/>
</a>
</g>
</g>
<!-- Node29&#45;&gt;Node10 -->
<g id="edge58_Node000029_Node000010" class="edge">
<title>Node29&#45;&gt;Node10</title>
<g id="a_edge58_Node000029_Node000010"><a xlink:title=" ">
<path fill="none" stroke="#63b8ff" d="M1366.7,-112.08C1363.76,-111.37 1360.85,-110.68 1358,-110 1307.03,-97.93 1248.5,-84.95 1208.18,-76.14"/>
<polygon fill="#63b8ff" stroke="#63b8ff" points="1208.85,-72.7 1198.34,-73.99 1207.36,-79.54 1208.85,-72.7"/>
</a>
</g>
</g>
<!-- Node29&#45;&gt;Node13 -->
<g id="edge59_Node000029_Node000013" class="edge">
<title>Node29&#45;&gt;Node13</title>
<g id="a_edge59_Node000029_Node000013"><a xlink:title=" ">
<path fill="none" stroke="#63b8ff" d="M1386.82,-109.95C1360.56,-99.51 1329.03,-86.98 1306.16,-77.88"/>
<polygon fill="#63b8ff" stroke="#63b8ff" points="1307.2,-74.53 1296.61,-74.09 1304.61,-81.04 1307.2,-74.53"/>
</a>
</g>
</g>
<!-- Node30&#45;&gt;Node2 -->
<g id="edge61_Node000030_Node000002" class="edge">
<title>Node30&#45;&gt;Node2</title>
<g id="a_edge61_Node000030_Node000002"><a xlink:title=" ">
<path fill="none" stroke="#63b8ff" d="M1547.12,-109.92C1507,-92.16 1444.26,-66.99 1387,-55 1253.67,-27.07 837.11,-15.02 691.7,-11.59"/>
<polygon fill="#63b8ff" stroke="#63b8ff" points="691.38,-8.08 681.3,-11.35 691.22,-15.08 691.38,-8.08"/>
</a>
</g>
</g>
<!-- Node30&#45;&gt;Node10 -->
<g id="edge62_Node000030_Node000010" class="edge">
<title>Node30&#45;&gt;Node10</title>
<g id="a_edge62_Node000030_Node000010"><a xlink:title=" ">
<path fill="none" stroke="#63b8ff" d="M1523.27,-111.86C1520.14,-111.2 1517.04,-110.57 1514,-110 1379.42,-84.71 1343.51,-93.71 1208,-74 1207.9,-73.99 1207.8,-73.97 1207.7,-73.96"/>
<polygon fill="#63b8ff" stroke="#63b8ff" points="1208.43,-70.53 1198.02,-72.47 1207.37,-77.45 1208.43,-70.53"/>
</a>
</g>
</g>
<!-- Node30&#45;&gt;Node13 -->
<g id="edge63_Node000030_Node000013" class="edge">
<title>Node30&#45;&gt;Node13</title>
<g id="a_edge63_Node000030_Node000013"><a xlink:title=" ">
<path fill="none" stroke="#63b8ff" d="M1523.21,-112.12C1520.1,-111.38 1517.02,-110.67 1514,-110 1454,-96.63 1384.92,-84.07 1336.5,-75.73"/>
<polygon fill="#63b8ff" stroke="#63b8ff" points="1336.94,-72.25 1326.5,-74.01 1335.76,-79.15 1336.94,-72.25"/>
</a>
</g>
</g>
<!-- Node31&#45;&gt;Node2 -->
<g id="edge65_Node000031_Node000002" class="edge">
<title>Node31&#45;&gt;Node2</title>
<g id="a_edge65_Node000031_Node000002"><a xlink:title=" ">
<path fill="none" stroke="#63b8ff" d="M1019.87,-191.75C949.69,-185.64 823.26,-172.09 783,-151 760.72,-139.33 761.71,-127.85 744,-110 714.01,-79.77 678.05,-45.46 657.52,-26.05"/>
<polygon fill="#63b8ff" stroke="#63b8ff" points="659.89,-23.48 650.22,-19.16 655.09,-28.57 659.89,-23.48"/>
</a>
</g>
</g>
<!-- Node31&#45;&gt;Node10 -->
<g id="edge67_Node000031_Node000010" class="edge">
<title>Node31&#45;&gt;Node10</title>
<g id="a_edge67_Node000031_Node000010"><a xlink:title=" ">
<path fill="none" stroke="#63b8ff" d="M1086.51,-186.88C1100.85,-179.32 1120.21,-167.02 1132,-151 1146.67,-131.07 1153.53,-102.91 1156.63,-84.44"/>
<polygon fill="#63b8ff" stroke="#63b8ff" points="1160.12,-84.75 1158.1,-74.35 1153.19,-83.73 1160.12,-84.75"/>
</a>
</g>
</g>
<!-- Node31&#45;&gt;Node12 -->
<g id="edge68_Node000031_Node000012" class="edge">
<title>Node31&#45;&gt;Node12</title>
<g id="a_edge68_Node000031_Node000012"><a xlink:title=" ">
<path fill="none" stroke="#63b8ff" d="M1067.33,-186.87C1066.71,-178.99 1065.77,-166.95 1064.92,-156.1"/>
<polygon fill="#63b8ff" stroke="#63b8ff" points="1068.39,-155.56 1064.12,-145.86 1061.41,-156.1 1068.39,-155.56"/>
</a>
</g>
</g>
<!-- Node31&#45;&gt;Node18 -->
<g id="edge66_Node000031_Node000018" class="edge">
<title>Node31&#45;&gt;Node18</title>
<g id="a_edge66_Node000031_Node000018"><a xlink:title=" ">
<path fill="none" stroke="#63b8ff" d="M1116.19,-195.57C1251.42,-195.27 1627.03,-190.83 1664,-151 1763.51,-43.79 1459.18,-18.25 1329.54,-12.28"/>
<polygon fill="#63b8ff" stroke="#63b8ff" points="1329.54,-8.78 1319.4,-11.84 1329.24,-15.77 1329.54,-8.78"/>
</a>
</g>
</g>
<!-- Node32 -->
<g id="Node000032" class="node">
<title>Node32</title>
<g id="a_Node000032"><a xlink:href="animation_8h.html" target="_top" xlink:title=" ">
<polygon fill="white" stroke="#666666" points="734.5,-140 659.5,-140 659.5,-121 734.5,-121 734.5,-140"/>
<text text-anchor="middle" x="697" y="-128" font-family="Helvetica,sans-Serif" font-size="10.00">animation.h</text>
</a>
</g>
</g>
<!-- Node31&#45;&gt;Node32 -->
<g id="edge69_Node000031_Node000032" class="edge">
<title>Node31&#45;&gt;Node32</title>
<g id="a_edge69_Node000031_Node000032"><a xlink:title=" ">
<path fill="none" stroke="#63b8ff" d="M1019.88,-190.1C943.79,-181.35 799.2,-163.75 749,-151 741.55,-149.11 733.69,-146.5 726.41,-143.81"/>
<polygon fill="#63b8ff" stroke="#63b8ff" points="727.51,-140.48 716.92,-140.15 724.99,-147.01 727.51,-140.48"/>
</a>
</g>
</g>
<!-- Node32&#45;&gt;Node8 -->
<g id="edge70_Node000032_Node000008" class="edge">
<title>Node32&#45;&gt;Node8</title>
<g id="a_edge70_Node000032_Node000008"><a xlink:title=" ">
<path fill="none" stroke="#63b8ff" d="M677.43,-120.83C669.31,-117.33 659.75,-113.34 651,-110 619.46,-97.98 583.06,-85.74 556.65,-77.15"/>
<polygon fill="#63b8ff" stroke="#63b8ff" points="557.64,-73.79 547.05,-74.05 555.49,-80.45 557.64,-73.79"/>
</a>
</g>
</g>
</g>
</svg>
