<?xml version="1.0" encoding="UTF-8" standalone="no"?>
<!DOCTYPE svg PUBLIC "-//W3C//DTD SVG 1.1//EN"
 "http://www.w3.org/Graphics/SVG/1.1/DTD/svg11.dtd">
<!-- Generated by graphviz version 2.43.0 (0)
 -->
<!-- Title: RainbowRoad::Load Pages: 1 -->
<svg width="1069pt" height="335pt"
 viewBox="0.00 0.00 1069.00 334.50" xmlns="http://www.w3.org/2000/svg" xmlns:xlink="http://www.w3.org/1999/xlink">
<g id="graph0" class="graph" transform="scale(1 1) rotate(0) translate(4 330.5)">
<title>RainbowRoad::Load</title>
<!-- Node1 -->
<g id="Node000001" class="node">
<title>Node1</title>
<g id="a_Node000001"><a xlink:title=" ">
<polygon fill="#999999" stroke="#666666" points="113,-187.5 0,-187.5 0,-168.5 113,-168.5 113,-187.5"/>
<text text-anchor="middle" x="56.5" y="-175.5" font-family="Helvetica,sans-Serif" font-size="10.00">RainbowRoad::Load</text>
</a>
</g>
</g>
<!-- Node2 -->
<g id="Node000002" class="node">
<title>Node2</title>
<g id="a_Node000002"><a xlink:href="collision_8c.html#a7fe1ddc7a4c312ab8f9519229963450b" target="_top" xlink:title=" ">
<polygon fill="white" stroke="#666666" points="500.5,-284.5 360.5,-284.5 360.5,-265.5 500.5,-265.5 500.5,-284.5"/>
<text text-anchor="middle" x="430.5" y="-272.5" font-family="Helvetica,sans-Serif" font-size="10.00">find_vtx_and_set_colours</text>
</a>
</g>
</g>
<!-- Node1&#45;&gt;Node2 -->
<g id="edge1_Node000001_Node000002" class="edge">
<title>Node1&#45;&gt;Node2</title>
<g id="a_edge1_Node000001_Node000002"><a xlink:title=" ">
<path fill="none" stroke="#63b8ff" d="M72.74,-187.63C90.41,-198.37 120.74,-215.46 149,-225 214.99,-247.27 293.24,-260.17 350.3,-267.27"/>
<polygon fill="#63b8ff" stroke="#63b8ff" points="350,-270.75 360.34,-268.48 350.84,-263.8 350,-270.75"/>
</a>
</g>
</g>
<!-- Node7 -->
<g id="Node000007" class="node">
<title>Node7</title>
<g id="a_Node000007"><a xlink:href="render__courses_8c.html#ab02cdf6684f984a12e7388fe973bc89a" target="_top" xlink:title=" ">
<polygon fill="white" stroke="#666666" points="277.5,-132.5 185.5,-132.5 185.5,-113.5 277.5,-113.5 277.5,-132.5"/>
<text text-anchor="middle" x="231.5" y="-120.5" font-family="Helvetica,sans-Serif" font-size="10.00">func_80295C6C</text>
</a>
</g>
</g>
<!-- Node1&#45;&gt;Node7 -->
<g id="edge8_Node000001_Node000007" class="edge">
<title>Node1&#45;&gt;Node7</title>
<g id="a_edge8_Node000001_Node000007"><a xlink:title=" ">
<path fill="none" stroke="#63b8ff" d="M79.36,-168.35C97.7,-160.52 124.72,-149.56 149,-142 157.47,-139.36 166.53,-136.9 175.42,-134.69"/>
<polygon fill="#63b8ff" stroke="#63b8ff" points="176.45,-138.04 185.35,-132.29 174.8,-131.24 176.45,-138.04"/>
</a>
</g>
</g>
<!-- Node11 -->
<g id="Node000011" class="node">
<title>Node11</title>
<g id="a_Node000011"><a xlink:href="Course_8cpp.html#a0406803b8f06bfcaf7e1bd3ad2ab2e12" target="_top" xlink:title=" ">
<polygon fill="white" stroke="#666666" points="314,-215.5 149,-215.5 149,-196.5 314,-196.5 314,-215.5"/>
<text text-anchor="middle" x="231.5" y="-203.5" font-family="Helvetica,sans-Serif" font-size="10.00">InvertTriangleWindingByName</text>
</a>
</g>
</g>
<!-- Node1&#45;&gt;Node11 -->
<g id="edge12_Node000001_Node000011" class="edge">
<title>Node1&#45;&gt;Node11</title>
<g id="a_edge12_Node000001_Node000011"><a xlink:title=" ">
<path fill="none" stroke="#63b8ff" d="M113.19,-187.01C128.65,-189.52 145.62,-192.26 161.73,-194.87"/>
<polygon fill="#63b8ff" stroke="#63b8ff" points="161.2,-198.33 171.63,-196.47 162.32,-191.42 161.2,-198.33"/>
</a>
</g>
</g>
<!-- Node14 -->
<g id="Node000014" class="node">
<title>Node14</title>
<g id="a_Node000014"><a xlink:href="render__courses_8c.html#a206a552c1a565c9737d6749aeee3e07b" target="_top" xlink:title=" ">
<polygon fill="white" stroke="#666666" points="302.5,-169.5 160.5,-169.5 160.5,-150.5 302.5,-150.5 302.5,-169.5"/>
<text text-anchor="middle" x="231.5" y="-157.5" font-family="Helvetica,sans-Serif" font-size="10.00">parse_course_displaylists</text>
</a>
</g>
</g>
<!-- Node1&#45;&gt;Node14 -->
<g id="edge17_Node000001_Node000014" class="edge">
<title>Node1&#45;&gt;Node14</title>
<g id="a_edge17_Node000001_Node000014"><a xlink:title=" ">
<path fill="none" stroke="#63b8ff" d="M113.19,-172.21C125.04,-170.97 137.77,-169.65 150.33,-168.34"/>
<polygon fill="#63b8ff" stroke="#63b8ff" points="150.75,-171.82 160.34,-167.3 150.03,-164.85 150.75,-171.82"/>
</a>
</g>
</g>
<!-- Node2&#45;&gt;Node2 -->
<g id="edge2_Node000002_Node000002" class="edge">
<title>Node2&#45;&gt;Node2</title>
<g id="a_edge2_Node000002_Node000002"><a xlink:title=" ">
<path fill="none" stroke="#63b8ff" d="M401.22,-284.58C386.97,-293.23 396.73,-302.5 430.5,-302.5 453.72,-302.5 465.59,-298.12 466.11,-292.57"/>
<polygon fill="#63b8ff" stroke="#63b8ff" points="468.73,-290.25 459.78,-284.58 463.25,-294.6 468.73,-290.25"/>
</a>
</g>
</g>
<!-- Node3 -->
<g id="Node000003" class="node">
<title>Node3</title>
<g id="a_Node000003"><a xlink:href="Engine_8cpp.html#a223c8bc63f228dc11177515e38eff2db" target="_top" xlink:title=" ">
<polygon fill="white" stroke="#666666" points="696,-252.5 547,-252.5 547,-233.5 696,-233.5 696,-252.5"/>
<text text-anchor="middle" x="621.5" y="-240.5" font-family="Helvetica,sans-Serif" font-size="10.00">GameEngine_OTRSigCheck</text>
</a>
</g>
</g>
<!-- Node2&#45;&gt;Node3 -->
<g id="edge3_Node000002_Node000003" class="edge">
<title>Node2&#45;&gt;Node3</title>
<g id="a_edge3_Node000002_Node000003"><a xlink:title=" ">
<path fill="none" stroke="#63b8ff" d="M487.69,-265.49C508.55,-261.95 532.4,-257.92 554.08,-254.25"/>
<polygon fill="#63b8ff" stroke="#63b8ff" points="554.92,-257.65 564.2,-252.53 553.75,-250.75 554.92,-257.65"/>
</a>
</g>
</g>
<!-- Node5 -->
<g id="Node000005" class="node">
<title>Node5</title>
<g id="a_Node000005"><a xlink:href="collision_8c.html#a2419eefe1cdba5b280babacc4a15fc6c" target="_top" xlink:title=" ">
<polygon fill="white" stroke="#666666" points="657,-289.5 586,-289.5 586,-270.5 657,-270.5 657,-289.5"/>
<text text-anchor="middle" x="621.5" y="-277.5" font-family="Helvetica,sans-Serif" font-size="10.00">is_cull_box</text>
</a>
</g>
</g>
<!-- Node2&#45;&gt;Node5 -->
<g id="edge5_Node000002_Node000005" class="edge">
<title>Node2&#45;&gt;Node5</title>
<g id="a_edge5_Node000002_Node000005"><a xlink:title=" ">
<path fill="none" stroke="#63b8ff" d="M500.54,-276.83C525.57,-277.49 553.18,-278.22 575.6,-278.81"/>
<polygon fill="#63b8ff" stroke="#63b8ff" points="575.73,-282.32 585.82,-279.08 575.92,-275.32 575.73,-282.32"/>
</a>
</g>
</g>
<!-- Node6 -->
<g id="Node000006" class="node">
<title>Node6</title>
<g id="a_Node000006"><a xlink:href="collision_8c.html#ae34213badc2dd781cab43c88b1e3fdce" target="_top" xlink:title=" ">
<polygon fill="white" stroke="#666666" points="676,-326.5 567,-326.5 567,-307.5 676,-307.5 676,-326.5"/>
<text text-anchor="middle" x="621.5" y="-314.5" font-family="Helvetica,sans-Serif" font-size="10.00">set_vertex_colours</text>
</a>
</g>
</g>
<!-- Node2&#45;&gt;Node6 -->
<g id="edge7_Node000002_Node000006" class="edge">
<title>Node2&#45;&gt;Node6</title>
<g id="a_edge7_Node000002_Node000006"><a xlink:title=" ">
<path fill="none" stroke="#63b8ff" d="M474.39,-284.53C501.96,-290.66 537.99,-298.66 567.37,-305.19"/>
<polygon fill="#63b8ff" stroke="#63b8ff" points="566.93,-308.68 577.46,-307.43 568.45,-301.85 566.93,-308.68"/>
</a>
</g>
</g>
<!-- Node4 -->
<g id="Node000004" class="node">
<title>Node4</title>
<g id="a_Node000004"><a xlink:href="string_8c.html#a008e171a518fe0e0352f31b245e03875" target="_top" xlink:title=" ">
<polygon fill="white" stroke="#666666" points="815.5,-270.5 771.5,-270.5 771.5,-251.5 815.5,-251.5 815.5,-270.5"/>
<text text-anchor="middle" x="793.5" y="-258.5" font-family="Helvetica,sans-Serif" font-size="10.00">strlen</text>
</a>
</g>
</g>
<!-- Node3&#45;&gt;Node4 -->
<g id="edge4_Node000003_Node000004" class="edge">
<title>Node3&#45;&gt;Node4</title>
<g id="a_edge4_Node000003_Node000004"><a xlink:title=" ">
<path fill="none" stroke="#63b8ff" d="M696.08,-250.79C718.88,-253.2 742.8,-255.74 761.11,-257.68"/>
<polygon fill="#63b8ff" stroke="#63b8ff" points="760.88,-261.17 771.2,-258.74 761.62,-254.21 760.88,-261.17"/>
</a>
</g>
</g>
<!-- Node5&#45;&gt;Node4 -->
<g id="edge6_Node000005_Node000004" class="edge">
<title>Node5&#45;&gt;Node4</title>
<g id="a_edge6_Node000005_Node000004"><a xlink:title=" ">
<path fill="none" stroke="#63b8ff" d="M657.31,-276.11C687.77,-272.71 731.61,-267.81 761.03,-264.52"/>
<polygon fill="#63b8ff" stroke="#63b8ff" points="761.61,-267.97 771.16,-263.38 760.84,-261.02 761.61,-267.97"/>
</a>
</g>
</g>
<!-- Node8 -->
<g id="Node000008" class="node">
<title>Node8</title>
<g id="a_Node000008"><a xlink:href="collision_8c.html#aa1116ededb9ebc0ee976259f02fe2a4e" target="_top" xlink:title=" ">
<polygon fill="white" stroke="#666666" points="495.5,-79.5 365.5,-79.5 365.5,-60.5 495.5,-60.5 495.5,-79.5"/>
<text text-anchor="middle" x="430.5" y="-67.5" font-family="Helvetica,sans-Serif" font-size="10.00">generate_collision_grid</text>
</a>
</g>
</g>
<!-- Node7&#45;&gt;Node8 -->
<g id="edge9_Node000007_Node000008" class="edge">
<title>Node7&#45;&gt;Node8</title>
<g id="a_edge9_Node000007_Node000008"><a xlink:title=" ">
<path fill="none" stroke="#63b8ff" d="M268.18,-113.4C300.67,-104.66 348.82,-91.71 384.06,-82.22"/>
<polygon fill="#63b8ff" stroke="#63b8ff" points="385.34,-85.5 394.09,-79.53 383.52,-78.74 385.34,-85.5"/>
</a>
</g>
</g>
<!-- Node9 -->
<g id="Node000009" class="node">
<title>Node9</title>
<g id="a_Node000009"><a xlink:href="collision_8c.html#a4e4ec74302aec60828a8d271390f7631" target="_top" xlink:title=" ">
<polygon fill="white" stroke="#666666" points="687,-30 556,-30 556,0 687,0 687,-30"/>
<text text-anchor="start" x="564" y="-18" font-family="Helvetica,sans-Serif" font-size="10.00">is_triangle_intersecting</text>
<text text-anchor="middle" x="621.5" y="-7" font-family="Helvetica,sans-Serif" font-size="10.00">_bounding_box</text>
</a>
</g>
</g>
<!-- Node8&#45;&gt;Node9 -->
<g id="edge10_Node000008_Node000009" class="edge">
<title>Node8&#45;&gt;Node9</title>
<g id="a_edge10_Node000008_Node000009"><a xlink:title=" ">
<path fill="none" stroke="#63b8ff" d="M464.42,-60.42C490.38,-52.87 527.32,-42.12 558.74,-32.97"/>
<polygon fill="#63b8ff" stroke="#63b8ff" points="560.11,-36.22 568.73,-30.07 558.15,-29.5 560.11,-36.22"/>
</a>
</g>
</g>
<!-- Node10 -->
<g id="Node000010" class="node">
<title>Node10</title>
<g id="a_Node000010"><a xlink:href="collision_8c.html#a7ef4f800cb44ad39ca233d0c76ce039a" target="_top" xlink:title=" ">
<polygon fill="white" stroke="#666666" points="849,-30 738,-30 738,0 849,0 849,-30"/>
<text text-anchor="start" x="746" y="-18" font-family="Helvetica,sans-Serif" font-size="10.00">is_line_intersecting</text>
<text text-anchor="middle" x="793.5" y="-7" font-family="Helvetica,sans-Serif" font-size="10.00">_rectangle</text>
</a>
</g>
</g>
<!-- Node9&#45;&gt;Node10 -->
<g id="edge11_Node000009_Node000010" class="edge">
<title>Node9&#45;&gt;Node10</title>
<g id="a_edge11_Node000009_Node000010"><a xlink:title=" ">
<path fill="none" stroke="#63b8ff" d="M687.25,-15C700.56,-15 714.58,-15 727.88,-15"/>
<polygon fill="#63b8ff" stroke="#63b8ff" points="727.89,-18.5 737.89,-15 727.89,-11.5 727.89,-18.5"/>
</a>
</g>
</g>
<!-- Node12 -->
<g id="Node000012" class="node">
<title>Node12</title>
<g id="a_Node000012"><a xlink:href="Course_8cpp.html#ad29b2b4706dd79c5d6239851b61530d4" target="_top" xlink:title=" ">
<polygon fill="white" stroke="#666666" points="511,-220.5 350,-220.5 350,-201.5 511,-201.5 511,-220.5"/>
<text text-anchor="middle" x="430.5" y="-208.5" font-family="Helvetica,sans-Serif" font-size="10.00">InvertTriangleWindingInternal</text>
</a>
</g>
</g>
<!-- Node11&#45;&gt;Node12 -->
<g id="edge13_Node000011_Node000012" class="edge">
<title>Node11&#45;&gt;Node12</title>
<g id="a_edge13_Node000011_Node000012"><a xlink:title=" ">
<path fill="none" stroke="#63b8ff" d="M314.05,-208.07C322.57,-208.29 331.27,-208.51 339.87,-208.73"/>
<polygon fill="#63b8ff" stroke="#63b8ff" points="339.83,-212.23 349.91,-208.98 340.01,-205.23 339.83,-212.23"/>
</a>
</g>
</g>
<!-- Node12&#45;&gt;Node3 -->
<g id="edge14_Node000012_Node000003" class="edge">
<title>Node12&#45;&gt;Node3</title>
<g id="a_edge14_Node000012_Node000003"><a xlink:title=" ">
<path fill="none" stroke="#63b8ff" d="M487.69,-220.51C508.55,-224.05 532.4,-228.08 554.08,-231.75"/>
<polygon fill="#63b8ff" stroke="#63b8ff" points="553.75,-235.25 564.2,-233.47 554.92,-228.35 553.75,-235.25"/>
</a>
</g>
</g>
<!-- Node12&#45;&gt;Node12 -->
<g id="edge15_Node000012_Node000012" class="edge">
<title>Node12&#45;&gt;Node12</title>
<g id="a_edge15_Node000012_Node000012"><a xlink:title=" ">
<path fill="none" stroke="#63b8ff" d="M401.22,-220.58C386.97,-229.23 396.73,-238.5 430.5,-238.5 453.72,-238.5 465.59,-234.12 466.11,-228.57"/>
<polygon fill="#63b8ff" stroke="#63b8ff" points="468.73,-226.25 459.78,-220.58 463.25,-230.6 468.73,-226.25"/>
</a>
</g>
</g>
<!-- Node13 -->
<g id="Node000013" class="node">
<title>Node13</title>
<g id="a_Node000013"><a xlink:href="Course_8cpp.html#a5bae290668f6b484d13626d67e16cc3f" target="_top" xlink:title=" ">
<polygon fill="white" stroke="#666666" points="681.5,-215.5 561.5,-215.5 561.5,-196.5 681.5,-196.5 681.5,-215.5"/>
<text text-anchor="middle" x="621.5" y="-203.5" font-family="Helvetica,sans-Serif" font-size="10.00">SwapTriangleVertices</text>
</a>
</g>
</g>
<!-- Node12&#45;&gt;Node13 -->
<g id="edge16_Node000012_Node000013" class="edge">
<title>Node12&#45;&gt;Node13</title>
<g id="a_edge16_Node000012_Node000013"><a xlink:title=" ">
<path fill="none" stroke="#63b8ff" d="M511.11,-208.89C524.4,-208.54 538.1,-208.18 551.11,-207.84"/>
<polygon fill="#63b8ff" stroke="#63b8ff" points="551.47,-211.33 561.38,-207.56 551.29,-204.33 551.47,-211.33"/>
</a>
</g>
</g>
<!-- Node15 -->
<g id="Node000015" class="node">
<title>Node15</title>
<g id="a_Node000015"><a xlink:href="collision_8c.html#a3081198f925be148fc9f05897a3bddd3" target="_top" xlink:title=" ">
<polygon fill="white" stroke="#666666" points="499.5,-165.5 361.5,-165.5 361.5,-146.5 499.5,-146.5 499.5,-165.5"/>
<text text-anchor="middle" x="430.5" y="-153.5" font-family="Helvetica,sans-Serif" font-size="10.00">generate_collision_mesh</text>
</a>
</g>
</g>
<!-- Node14&#45;&gt;Node15 -->
<g id="edge18_Node000014_Node000015" class="edge">
<title>Node14&#45;&gt;Node15</title>
<g id="a_edge18_Node000014_Node000015"><a xlink:title=" ">
<path fill="none" stroke="#63b8ff" d="M302.51,-158.58C318.2,-158.26 334.95,-157.92 350.97,-157.59"/>
<polygon fill="#63b8ff" stroke="#63b8ff" points="351.44,-161.09 361.37,-157.38 351.3,-154.09 351.44,-161.09"/>
</a>
</g>
</g>
<!-- Node15&#45;&gt;Node3 -->
<g id="edge19_Node000015_Node000003" class="edge">
<title>Node15&#45;&gt;Node3</title>
<g id="a_edge19_Node000015_Node000003"><a xlink:title=" ">
<path fill="none" stroke="#63b8ff" d="M456.84,-165.57C472.97,-172.19 493.95,-181.8 511,-193 528.89,-204.75 528.05,-215.05 547,-225 550.56,-226.87 554.32,-228.55 558.19,-230.06"/>
<polygon fill="#63b8ff" stroke="#63b8ff" points="557.35,-233.47 567.94,-233.47 559.66,-226.86 557.35,-233.47"/>
</a>
</g>
</g>
<!-- Node15&#45;&gt;Node5 -->
<g id="edge21_Node000015_Node000005" class="edge">
<title>Node15&#45;&gt;Node5</title>
<g id="a_edge21_Node000015_Node000005"><a xlink:title=" ">
<path fill="none" stroke="#63b8ff" d="M463.79,-165.55C479.5,-171.46 497.79,-180.38 511,-193 536.01,-216.9 519.78,-240.66 547,-262 555.22,-268.45 565.42,-272.62 575.58,-275.32"/>
<polygon fill="#63b8ff" stroke="#63b8ff" points="575.13,-278.81 585.66,-277.55 576.65,-271.97 575.13,-278.81"/>
</a>
</g>
</g>
<!-- Node15&#45;&gt;Node15 -->
<g id="edge20_Node000015_Node000015" class="edge">
<title>Node15&#45;&gt;Node15</title>
<g id="a_edge20_Node000015_Node000015"><a xlink:title=" ">
<path fill="none" stroke="#63b8ff" d="M401.22,-165.58C386.97,-174.23 396.73,-183.5 430.5,-183.5 453.72,-183.5 465.59,-179.12 466.11,-173.57"/>
<polygon fill="#63b8ff" stroke="#63b8ff" points="468.73,-171.25 459.78,-165.58 463.25,-175.6 468.73,-171.25"/>
</a>
</g>
</g>
<!-- Node16 -->
<g id="Node000016" class="node">
<title>Node16</title>
<g id="a_Node000016"><a xlink:href="collision_8c.html#a30eb531df39ba558cd733e1d1cd6aaa0" target="_top" xlink:title=" ">
<polygon fill="white" stroke="#666666" points="664.5,-67.5 578.5,-67.5 578.5,-48.5 664.5,-48.5 664.5,-67.5"/>
<text text-anchor="middle" x="621.5" y="-55.5" font-family="Helvetica,sans-Serif" font-size="10.00">set_vtx_buffer</text>
</a>
</g>
</g>
<!-- Node15&#45;&gt;Node16 -->
<g id="edge22_Node000015_Node000016" class="edge">
<title>Node15&#45;&gt;Node16</title>
<g id="a_edge22_Node000015_Node000016"><a xlink:title=" ">
<path fill="none" stroke="#63b8ff" d="M442.45,-146.32C462.04,-129.51 504.96,-94.92 547,-76 553.83,-72.93 561.26,-70.33 568.69,-68.15"/>
<polygon fill="#63b8ff" stroke="#63b8ff" points="569.67,-71.51 578.41,-65.51 567.84,-64.75 569.67,-71.51"/>
</a>
</g>
</g>
<!-- Node17 -->
<g id="Node000017" class="node">
<title>Node17</title>
<g id="a_Node000017"><a xlink:href="collision_8c.html#a593833ca3f04f0c7d8f5dcabe6430115" target="_top" xlink:title=" ">
<polygon fill="white" stroke="#666666" points="692,-178.5 551,-178.5 551,-159.5 692,-159.5 692,-178.5"/>
<text text-anchor="middle" x="621.5" y="-166.5" font-family="Helvetica,sans-Serif" font-size="10.00">set_vtx_from_quadrangle</text>
</a>
</g>
</g>
<!-- Node15&#45;&gt;Node17 -->
<g id="edge23_Node000015_Node000017" class="edge">
<title>Node15&#45;&gt;Node17</title>
<g id="a_edge23_Node000015_Node000017"><a xlink:title=" ">
<path fill="none" stroke="#63b8ff" d="M499.73,-160.69C512.96,-161.6 526.94,-162.56 540.5,-163.5"/>
<polygon fill="#63b8ff" stroke="#63b8ff" points="540.56,-167.01 550.78,-164.2 541.04,-160.03 540.56,-167.01"/>
</a>
</g>
</g>
<!-- Node21 -->
<g id="Node000021" class="node">
<title>Node21</title>
<g id="a_Node000021"><a xlink:href="collision_8c.html#ac558a6e1314f154bbf53aaf15396ea1e" target="_top" xlink:title=" ">
<polygon fill="white" stroke="#666666" points="673,-141.5 570,-141.5 570,-122.5 673,-122.5 673,-141.5"/>
<text text-anchor="middle" x="621.5" y="-129.5" font-family="Helvetica,sans-Serif" font-size="10.00">set_vtx_from_tri2</text>
</a>
</g>
</g>
<!-- Node15&#45;&gt;Node21 -->
<g id="edge27_Node000015_Node000021" class="edge">
<title>Node15&#45;&gt;Node21</title>
<g id="a_edge27_Node000015_Node000021"><a xlink:title=" ">
<path fill="none" stroke="#63b8ff" d="M499.73,-147.34C519.36,-144.84 540.63,-142.14 559.77,-139.71"/>
<polygon fill="#63b8ff" stroke="#63b8ff" points="560.39,-143.16 569.87,-138.43 559.51,-136.22 560.39,-143.16"/>
</a>
</g>
</g>
<!-- Node22 -->
<g id="Node000022" class="node">
<title>Node22</title>
<g id="a_Node000022"><a xlink:href="collision_8c.html#a335dc7fed8a2540ca0a5b0a466545845" target="_top" xlink:title=" ">
<polygon fill="white" stroke="#666666" points="683.5,-104.5 559.5,-104.5 559.5,-85.5 683.5,-85.5 683.5,-104.5"/>
<text text-anchor="middle" x="621.5" y="-92.5" font-family="Helvetica,sans-Serif" font-size="10.00">set_vtx_from_triangle</text>
</a>
</g>
</g>
<!-- Node15&#45;&gt;Node22 -->
<g id="edge29_Node000015_Node000022" class="edge">
<title>Node15&#45;&gt;Node22</title>
<g id="a_edge29_Node000015_Node000022"><a xlink:title=" ">
<path fill="none" stroke="#63b8ff" d="M455.61,-146.47C478.81,-137.47 515.01,-123.93 547,-114 554.7,-111.61 562.91,-109.28 570.95,-107.12"/>
<polygon fill="#63b8ff" stroke="#63b8ff" points="571.85,-110.5 580.63,-104.56 570.07,-103.73 571.85,-110.5"/>
</a>
</g>
</g>
<!-- Node18 -->
<g id="Node000018" class="node">
<title>Node18</title>
<g id="a_Node000018"><a xlink:href="collision_8c.html#a8c516edee107b39b30bb3a4d3c54534a" target="_top" xlink:title=" ">
<polygon fill="white" stroke="#666666" points="855,-141.5 732,-141.5 732,-122.5 855,-122.5 855,-141.5"/>
<text text-anchor="middle" x="793.5" y="-129.5" font-family="Helvetica,sans-Serif" font-size="10.00">add_collision_triangle</text>
</a>
</g>
</g>
<!-- Node17&#45;&gt;Node18 -->
<g id="edge24_Node000017_Node000018" class="edge">
<title>Node17&#45;&gt;Node18</title>
<g id="a_edge24_Node000017_Node000018"><a xlink:title=" ">
<path fill="none" stroke="#63b8ff" d="M666.28,-159.47C688.3,-154.68 715.2,-148.82 738.5,-143.75"/>
<polygon fill="#63b8ff" stroke="#63b8ff" points="739.55,-147.11 748.57,-141.56 738.06,-140.27 739.55,-147.11"/>
</a>
</g>
</g>
<!-- Node19 -->
<g id="Node000019" class="node">
<title>Node19</title>
<g id="a_Node000019"><a xlink:href="RaceManager_8cpp.html#a693bf81394ee91ac6be58f7481471619" target="_top" xlink:title=" ">
<polygon fill="white" stroke="#666666" points="1061,-160.5 891,-160.5 891,-141.5 1061,-141.5 1061,-160.5"/>
<text text-anchor="middle" x="976" y="-148.5" font-family="Helvetica,sans-Serif" font-size="10.00">add_triangle_to_collision_mesh</text>
</a>
</g>
</g>
<!-- Node18&#45;&gt;Node19 -->
<g id="edge25_Node000018_Node000019" class="edge">
<title>Node18&#45;&gt;Node19</title>
<g id="a_edge25_Node000018_Node000019"><a xlink:title=" ">
<path fill="none" stroke="#63b8ff" d="M855.11,-138.38C863.35,-139.25 871.97,-140.15 880.63,-141.07"/>
<polygon fill="#63b8ff" stroke="#63b8ff" points="880.5,-144.57 890.81,-142.14 881.23,-137.61 880.5,-144.57"/>
</a>
</g>
</g>
<!-- Node20 -->
<g id="Node000020" class="node">
<title>Node20</title>
<g id="a_Node000020"><a xlink:href="math_8h.html#a37bde043e94a6f074c78f10518fb5d99" target="_top" xlink:title=" ">
<polygon fill="white" stroke="#666666" points="995.5,-123.5 956.5,-123.5 956.5,-104.5 995.5,-104.5 995.5,-123.5"/>
<text text-anchor="middle" x="976" y="-111.5" font-family="Helvetica,sans-Serif" font-size="10.00">sqrtf</text>
</a>
</g>
</g>
<!-- Node18&#45;&gt;Node20 -->
<g id="edge26_Node000018_Node000020" class="edge">
<title>Node18&#45;&gt;Node20</title>
<g id="a_edge26_Node000018_Node000020"><a xlink:title=" ">
<path fill="none" stroke="#63b8ff" d="M855.11,-125.96C885.8,-122.9 921.63,-119.32 946.07,-116.88"/>
<polygon fill="#63b8ff" stroke="#63b8ff" points="946.52,-120.36 956.13,-115.88 945.83,-113.39 946.52,-120.36"/>
</a>
</g>
</g>
<!-- Node21&#45;&gt;Node18 -->
<g id="edge28_Node000021_Node000018" class="edge">
<title>Node21&#45;&gt;Node18</title>
<g id="a_edge28_Node000021_Node000018"><a xlink:title=" ">
<path fill="none" stroke="#63b8ff" d="M673.05,-132C688.36,-132 705.48,-132 721.86,-132"/>
<polygon fill="#63b8ff" stroke="#63b8ff" points="721.95,-135.5 731.95,-132 721.95,-128.5 721.95,-135.5"/>
</a>
</g>
</g>
<!-- Node22&#45;&gt;Node18 -->
<g id="edge30_Node000022_Node000018" class="edge">
<title>Node22&#45;&gt;Node18</title>
<g id="a_edge30_Node000022_Node000018"><a xlink:title=" ">
<path fill="none" stroke="#63b8ff" d="M666.28,-104.53C688.3,-109.32 715.2,-115.18 738.5,-120.25"/>
<polygon fill="#63b8ff" stroke="#63b8ff" points="738.06,-123.73 748.57,-122.44 739.55,-116.89 738.06,-123.73"/>
</a>
</g>
</g>
</g>
</svg>
