<?xml version="1.0" encoding="UTF-8" standalone="no"?>
<!DOCTYPE svg PUBLIC "-//W3C//DTD SVG 1.1//EN"
 "http://www.w3.org/Graphics/SVG/1.1/DTD/svg11.dtd">
<!-- Generated by graphviz version 2.43.0 (0)
 -->
<!-- Title: Skyscraper::Load Pages: 1 -->
<svg width="1060pt" height="335pt"
 viewBox="0.00 0.00 1060.00 334.50" xmlns="http://www.w3.org/2000/svg" xmlns:xlink="http://www.w3.org/1999/xlink">
<g id="graph0" class="graph" transform="scale(1 1) rotate(0) translate(4 330.5)">
<title>Skyscraper::Load</title>
<!-- Node1 -->
<g id="Node000001" class="node">
<title>Node1</title>
<g id="a_Node000001"><a xlink:title=" ">
<polygon fill="#999999" stroke="#666666" points="99,-185 0,-185 0,-166 99,-166 99,-185"/>
<text text-anchor="middle" x="49.5" y="-173" font-family="Helvetica,sans-Serif" font-size="10.00">Skyscraper::Load</text>
</a>
</g>
</g>
<!-- Node2 -->
<g id="Node000002" class="node">
<title>Node2</title>
<g id="a_Node000002"><a xlink:href="render__courses_8c.html#ab02cdf6684f984a12e7388fe973bc89a" target="_top" xlink:title=" ">
<polygon fill="white" stroke="#666666" points="266,-234 174,-234 174,-215 266,-215 266,-234"/>
<text text-anchor="middle" x="220" y="-222" font-family="Helvetica,sans-Serif" font-size="10.00">func_80295C6C</text>
</a>
</g>
</g>
<!-- Node1&#45;&gt;Node2 -->
<g id="edge1_Node000001_Node000002" class="edge">
<title>Node1&#45;&gt;Node2</title>
<g id="a_edge1_Node000001_Node000002"><a xlink:title=" ">
<path fill="none" stroke="#63b8ff" d="M83.39,-185.06C109.95,-192.79 147.52,-203.71 176.38,-212.11"/>
<polygon fill="#63b8ff" stroke="#63b8ff" points="175.61,-215.53 186.19,-214.96 177.57,-208.81 175.61,-215.53"/>
</a>
</g>
</g>
<!-- Node6 -->
<g id="Node000006" class="node">
<title>Node6</title>
<g id="a_Node000006"><a xlink:href="collision_8c.html#a0c0f33fa7f0e76fa9cd556c9f1401b36" target="_top" xlink:title=" ">
<polygon fill="white" stroke="#666666" points="305,-190.5 135,-190.5 135,-160.5 305,-160.5 305,-190.5"/>
<text text-anchor="start" x="143" y="-178.5" font-family="Helvetica,sans-Serif" font-size="10.00">generate_collision</text>
<text text-anchor="middle" x="220" y="-167.5" font-family="Helvetica,sans-Serif" font-size="10.00">_mesh_with_default_section_id</text>
</a>
</g>
</g>
<!-- Node1&#45;&gt;Node6 -->
<g id="edge5_Node000001_Node000006" class="edge">
<title>Node1&#45;&gt;Node6</title>
<g id="a_edge5_Node000001_Node000006"><a xlink:title=" ">
<path fill="none" stroke="#63b8ff" d="M99.24,-175.5C107.27,-175.5 115.83,-175.5 124.54,-175.5"/>
<polygon fill="#63b8ff" stroke="#63b8ff" points="124.81,-179 134.81,-175.5 124.81,-172 124.81,-179"/>
</a>
</g>
</g>
<!-- Node18 -->
<g id="Node000018" class="node">
<title>Node18</title>
<g id="a_Node000018"><a xlink:href="Track_8cpp.html#a0406803b8f06bfcaf7e1bd3ad2ab2e12" target="_top" xlink:title=" ">
<polygon fill="white" stroke="#666666" points="302.5,-127 137.5,-127 137.5,-108 302.5,-108 302.5,-127"/>
<text text-anchor="middle" x="220" y="-115" font-family="Helvetica,sans-Serif" font-size="10.00">InvertTriangleWindingByName</text>
</a>
</g>
</g>
<!-- Node1&#45;&gt;Node18 -->
<g id="edge21_Node000001_Node000018" class="edge">
<title>Node1&#45;&gt;Node18</title>
<g id="a_edge21_Node000001_Node000018"><a xlink:title=" ">
<path fill="none" stroke="#63b8ff" d="M78.32,-165.92C106.5,-156.23 150.25,-141.17 181.47,-130.42"/>
<polygon fill="#63b8ff" stroke="#63b8ff" points="182.82,-133.66 191.13,-127.09 180.54,-127.04 182.82,-133.66"/>
</a>
</g>
</g>
<!-- Node3 -->
<g id="Node000003" class="node">
<title>Node3</title>
<g id="a_Node000003"><a xlink:href="collision_8c.html#aa1116ededb9ebc0ee976259f02fe2a4e" target="_top" xlink:title=" ">
<polygon fill="white" stroke="#666666" points="486.5,-289 356.5,-289 356.5,-270 486.5,-270 486.5,-289"/>
<text text-anchor="middle" x="421.5" y="-277" font-family="Helvetica,sans-Serif" font-size="10.00">generate_collision_grid</text>
</a>
</g>
</g>
<!-- Node2&#45;&gt;Node3 -->
<g id="edge2_Node000002_Node000003" class="edge">
<title>Node2&#45;&gt;Node3</title>
<g id="a_edge2_Node000002_Node000003"><a xlink:title=" ">
<path fill="none" stroke="#63b8ff" d="M255.75,-234.08C289.12,-243.28 339.67,-257.22 375.98,-267.23"/>
<polygon fill="#63b8ff" stroke="#63b8ff" points="375.24,-270.65 385.81,-269.94 377.1,-263.91 375.24,-270.65"/>
</a>
</g>
</g>
<!-- Node4 -->
<g id="Node000004" class="node">
<title>Node4</title>
<g id="a_Node000004"><a xlink:href="collision_8c.html#a4e4ec74302aec60828a8d271390f7631" target="_top" xlink:title=" ">
<polygon fill="white" stroke="#666666" points="678,-326.5 547,-326.5 547,-296.5 678,-296.5 678,-326.5"/>
<text text-anchor="start" x="555" y="-314.5" font-family="Helvetica,sans-Serif" font-size="10.00">is_triangle_intersecting</text>
<text text-anchor="middle" x="612.5" y="-303.5" font-family="Helvetica,sans-Serif" font-size="10.00">_bounding_box</text>
</a>
</g>
</g>
<!-- Node3&#45;&gt;Node4 -->
<g id="edge3_Node000003_Node000004" class="edge">
<title>Node3&#45;&gt;Node4</title>
<g id="a_edge3_Node000003_Node000004"><a xlink:title=" ">
<path fill="none" stroke="#63b8ff" d="M478.69,-289.01C496.95,-292.11 517.5,-295.58 536.88,-298.87"/>
<polygon fill="#63b8ff" stroke="#63b8ff" points="536.45,-302.34 546.89,-300.56 537.61,-295.44 536.45,-302.34"/>
</a>
</g>
</g>
<!-- Node5 -->
<g id="Node000005" class="node">
<title>Node5</title>
<g id="a_Node000005"><a xlink:href="collision_8c.html#a7ef4f800cb44ad39ca233d0c76ce039a" target="_top" xlink:title=" ">
<polygon fill="white" stroke="#666666" points="840,-326.5 729,-326.5 729,-296.5 840,-296.5 840,-326.5"/>
<text text-anchor="start" x="737" y="-314.5" font-family="Helvetica,sans-Serif" font-size="10.00">is_line_intersecting</text>
<text text-anchor="middle" x="784.5" y="-303.5" font-family="Helvetica,sans-Serif" font-size="10.00">_rectangle</text>
</a>
</g>
</g>
<!-- Node4&#45;&gt;Node5 -->
<g id="edge4_Node000004_Node000005" class="edge">
<title>Node4&#45;&gt;Node5</title>
<g id="a_edge4_Node000004_Node000005"><a xlink:title=" ">
<path fill="none" stroke="#63b8ff" d="M678.25,-311.5C691.56,-311.5 705.58,-311.5 718.88,-311.5"/>
<polygon fill="#63b8ff" stroke="#63b8ff" points="718.89,-315 728.89,-311.5 718.89,-308 718.89,-315"/>
</a>
</g>
</g>
<!-- Node7 -->
<g id="Node000007" class="node">
<title>Node7</title>
<g id="a_Node000007"><a xlink:href="collision_8c.html#a3081198f925be148fc9f05897a3bddd3" target="_top" xlink:title=" ">
<polygon fill="white" stroke="#666666" points="490.5,-185 352.5,-185 352.5,-166 490.5,-166 490.5,-185"/>
<text text-anchor="middle" x="421.5" y="-173" font-family="Helvetica,sans-Serif" font-size="10.00">generate_collision_mesh</text>
</a>
</g>
</g>
<!-- Node6&#45;&gt;Node7 -->
<g id="edge6_Node000006_Node000007" class="edge">
<title>Node6&#45;&gt;Node7</title>
<g id="a_edge6_Node000006_Node000007"><a xlink:title=" ">
<path fill="none" stroke="#63b8ff" d="M305.03,-175.5C317.34,-175.5 329.98,-175.5 342.17,-175.5"/>
<polygon fill="#63b8ff" stroke="#63b8ff" points="342.29,-179 352.29,-175.5 342.29,-172 342.29,-179"/>
</a>
</g>
</g>
<!-- Node7&#45;&gt;Node7 -->
<g id="edge9_Node000007_Node000007" class="edge">
<title>Node7&#45;&gt;Node7</title>
<g id="a_edge9_Node000007_Node000007"><a xlink:title=" ">
<path fill="none" stroke="#63b8ff" d="M392.22,-185.08C377.97,-193.73 387.73,-203 421.5,-203 444.72,-203 456.59,-198.62 457.11,-193.07"/>
<polygon fill="#63b8ff" stroke="#63b8ff" points="459.73,-190.75 450.78,-185.08 454.25,-195.1 459.73,-190.75"/>
</a>
</g>
</g>
<!-- Node8 -->
<g id="Node000008" class="node">
<title>Node8</title>
<g id="a_Node000008"><a xlink:href="Engine_8cpp.html#a223c8bc63f228dc11177515e38eff2db" target="_top" xlink:title=" ">
<polygon fill="white" stroke="#666666" points="687,-93 538,-93 538,-74 687,-74 687,-93"/>
<text text-anchor="middle" x="612.5" y="-81" font-family="Helvetica,sans-Serif" font-size="10.00">GameEngine_OTRSigCheck</text>
</a>
</g>
</g>
<!-- Node7&#45;&gt;Node8 -->
<g id="edge7_Node000007_Node000008" class="edge">
<title>Node7&#45;&gt;Node8</title>
<g id="a_edge7_Node000007_Node000008"><a xlink:title=" ">
<path fill="none" stroke="#63b8ff" d="M434.55,-165.84C454.76,-150.11 497.29,-118.95 538,-101.5 542.71,-99.48 547.69,-97.66 552.75,-96.02"/>
<polygon fill="#63b8ff" stroke="#63b8ff" points="553.95,-99.32 562.53,-93.1 551.94,-92.61 553.95,-99.32"/>
</a>
</g>
</g>
<!-- Node10 -->
<g id="Node000010" class="node">
<title>Node10</title>
<g id="a_Node000010"><a xlink:href="collision_8c.html#a2419eefe1cdba5b280babacc4a15fc6c" target="_top" xlink:title=" ">
<polygon fill="white" stroke="#666666" points="648,-130 577,-130 577,-111 648,-111 648,-130"/>
<text text-anchor="middle" x="612.5" y="-118" font-family="Helvetica,sans-Serif" font-size="10.00">is_cull_box</text>
</a>
</g>
</g>
<!-- Node7&#45;&gt;Node10 -->
<g id="edge10_Node000007_Node000010" class="edge">
<title>Node7&#45;&gt;Node10</title>
<g id="a_edge10_Node000007_Node000010"><a xlink:title=" ">
<path fill="none" stroke="#63b8ff" d="M450.34,-165.98C473.63,-158.16 507.81,-147.02 538,-138.5 547.38,-135.85 557.5,-133.23 567.15,-130.83"/>
<polygon fill="#63b8ff" stroke="#63b8ff" points="568.09,-134.21 576.97,-128.43 566.42,-127.41 568.09,-134.21"/>
</a>
</g>
</g>
<!-- Node11 -->
<g id="Node000011" class="node">
<title>Node11</title>
<g id="a_Node000011"><a xlink:href="collision_8c.html#a30eb531df39ba558cd733e1d1cd6aaa0" target="_top" xlink:title=" ">
<polygon fill="white" stroke="#666666" points="655.5,-278 569.5,-278 569.5,-259 655.5,-259 655.5,-278"/>
<text text-anchor="middle" x="612.5" y="-266" font-family="Helvetica,sans-Serif" font-size="10.00">set_vtx_buffer</text>
</a>
</g>
</g>
<!-- Node7&#45;&gt;Node11 -->
<g id="edge12_Node000007_Node000011" class="edge">
<title>Node7&#45;&gt;Node11</title>
<g id="a_edge12_Node000007_Node000011"><a xlink:title=" ">
<path fill="none" stroke="#63b8ff" d="M434.21,-185.04C454.25,-200.92 496.96,-232.76 538,-250.5 544.88,-253.47 552.33,-256.01 559.78,-258.17"/>
<polygon fill="#63b8ff" stroke="#63b8ff" points="558.93,-261.57 569.5,-260.78 560.75,-254.81 558.93,-261.57"/>
</a>
</g>
</g>
<!-- Node12 -->
<g id="Node000012" class="node">
<title>Node12</title>
<g id="a_Node000012"><a xlink:href="collision_8c.html#a593833ca3f04f0c7d8f5dcabe6430115" target="_top" xlink:title=" ">
<polygon fill="white" stroke="#666666" points="683,-241 542,-241 542,-222 683,-222 683,-241"/>
<text text-anchor="middle" x="612.5" y="-229" font-family="Helvetica,sans-Serif" font-size="10.00">set_vtx_from_quadrangle</text>
</a>
</g>
</g>
<!-- Node7&#45;&gt;Node12 -->
<g id="edge13_Node000007_Node000012" class="edge">
<title>Node7&#45;&gt;Node12</title>
<g id="a_edge13_Node000007_Node000012"><a xlink:title=" ">
<path fill="none" stroke="#63b8ff" d="M449.39,-185C472.68,-193.08 507.36,-204.72 538,-213.5 545.2,-215.56 552.84,-217.6 560.36,-219.52"/>
<polygon fill="#63b8ff" stroke="#63b8ff" points="559.59,-222.93 570.15,-221.97 561.29,-216.14 559.59,-222.93"/>
</a>
</g>
</g>
<!-- Node16 -->
<g id="Node000016" class="node">
<title>Node16</title>
<g id="a_Node000016"><a xlink:href="collision_8c.html#ac558a6e1314f154bbf53aaf15396ea1e" target="_top" xlink:title=" ">
<polygon fill="white" stroke="#666666" points="664,-204 561,-204 561,-185 664,-185 664,-204"/>
<text text-anchor="middle" x="612.5" y="-192" font-family="Helvetica,sans-Serif" font-size="10.00">set_vtx_from_tri2</text>
</a>
</g>
</g>
<!-- Node7&#45;&gt;Node16 -->
<g id="edge17_Node000007_Node000016" class="edge">
<title>Node7&#45;&gt;Node16</title>
<g id="a_edge17_Node000007_Node000016"><a xlink:title=" ">
<path fill="none" stroke="#63b8ff" d="M490.73,-182.36C510.36,-184.33 531.63,-186.47 550.77,-188.4"/>
<polygon fill="#63b8ff" stroke="#63b8ff" points="550.57,-191.89 560.87,-189.41 551.27,-184.93 550.57,-191.89"/>
</a>
</g>
</g>
<!-- Node17 -->
<g id="Node000017" class="node">
<title>Node17</title>
<g id="a_Node000017"><a xlink:href="collision_8c.html#a335dc7fed8a2540ca0a5b0a466545845" target="_top" xlink:title=" ">
<polygon fill="white" stroke="#666666" points="674.5,-167 550.5,-167 550.5,-148 674.5,-148 674.5,-167"/>
<text text-anchor="middle" x="612.5" y="-155" font-family="Helvetica,sans-Serif" font-size="10.00">set_vtx_from_triangle</text>
</a>
</g>
</g>
<!-- Node7&#45;&gt;Node17 -->
<g id="edge19_Node000007_Node000017" class="edge">
<title>Node7&#45;&gt;Node17</title>
<g id="a_edge19_Node000007_Node000017"><a xlink:title=" ">
<path fill="none" stroke="#63b8ff" d="M490.73,-169C506.84,-167.47 524.06,-165.83 540.3,-164.28"/>
<polygon fill="#63b8ff" stroke="#63b8ff" points="540.64,-167.76 550.27,-163.33 539.98,-160.8 540.64,-167.76"/>
</a>
</g>
</g>
<!-- Node9 -->
<g id="Node000009" class="node">
<title>Node9</title>
<g id="a_Node000009"><a xlink:href="string_8c.html#a008e171a518fe0e0352f31b245e03875" target="_top" xlink:title=" ">
<polygon fill="white" stroke="#666666" points="806.5,-112 762.5,-112 762.5,-93 806.5,-93 806.5,-112"/>
<text text-anchor="middle" x="784.5" y="-100" font-family="Helvetica,sans-Serif" font-size="10.00">strlen</text>
</a>
</g>
</g>
<!-- Node8&#45;&gt;Node9 -->
<g id="edge8_Node000008_Node000009" class="edge">
<title>Node8&#45;&gt;Node9</title>
<g id="a_edge8_Node000008_Node000009"><a xlink:title=" ">
<path fill="none" stroke="#63b8ff" d="M687.08,-91.72C709.88,-94.27 733.8,-96.95 752.11,-98.99"/>
<polygon fill="#63b8ff" stroke="#63b8ff" points="751.87,-102.49 762.2,-100.12 752.65,-95.53 751.87,-102.49"/>
</a>
</g>
</g>
<!-- Node10&#45;&gt;Node9 -->
<g id="edge11_Node000010_Node000009" class="edge">
<title>Node10&#45;&gt;Node9</title>
<g id="a_edge11_Node000010_Node000009"><a xlink:title=" ">
<path fill="none" stroke="#63b8ff" d="M648.31,-116.81C678.77,-113.59 722.61,-108.95 752.03,-105.83"/>
<polygon fill="#63b8ff" stroke="#63b8ff" points="752.59,-109.29 762.16,-104.76 751.85,-102.33 752.59,-109.29"/>
</a>
</g>
</g>
<!-- Node13 -->
<g id="Node000013" class="node">
<title>Node13</title>
<g id="a_Node000013"><a xlink:href="collision_8c.html#a8c516edee107b39b30bb3a4d3c54534a" target="_top" xlink:title=" ">
<polygon fill="white" stroke="#666666" points="846,-204 723,-204 723,-185 846,-185 846,-204"/>
<text text-anchor="middle" x="784.5" y="-192" font-family="Helvetica,sans-Serif" font-size="10.00">add_collision_triangle</text>
</a>
</g>
</g>
<!-- Node12&#45;&gt;Node13 -->
<g id="edge14_Node000012_Node000013" class="edge">
<title>Node12&#45;&gt;Node13</title>
<g id="a_edge14_Node000012_Node000013"><a xlink:title=" ">
<path fill="none" stroke="#63b8ff" d="M657.28,-221.97C679.3,-217.18 706.2,-211.32 729.5,-206.25"/>
<polygon fill="#63b8ff" stroke="#63b8ff" points="730.55,-209.61 739.57,-204.06 729.06,-202.77 730.55,-209.61"/>
</a>
</g>
</g>
<!-- Node14 -->
<g id="Node000014" class="node">
<title>Node14</title>
<g id="a_Node000014"><a xlink:href="RaceManager_8cpp.html#a693bf81394ee91ac6be58f7481471619" target="_top" xlink:title=" ">
<polygon fill="white" stroke="#666666" points="1052,-223 882,-223 882,-204 1052,-204 1052,-223"/>
<text text-anchor="middle" x="967" y="-211" font-family="Helvetica,sans-Serif" font-size="10.00">add_triangle_to_collision_mesh</text>
</a>
</g>
</g>
<!-- Node13&#45;&gt;Node14 -->
<g id="edge15_Node000013_Node000014" class="edge">
<title>Node13&#45;&gt;Node14</title>
<g id="a_edge15_Node000013_Node000014"><a xlink:title=" ">
<path fill="none" stroke="#63b8ff" d="M846.11,-200.88C854.35,-201.75 862.97,-202.65 871.63,-203.57"/>
<polygon fill="#63b8ff" stroke="#63b8ff" points="871.5,-207.07 881.81,-204.64 872.23,-200.11 871.5,-207.07"/>
</a>
</g>
</g>
<!-- Node15 -->
<g id="Node000015" class="node">
<title>Node15</title>
<g id="a_Node000015"><a xlink:href="math_8h.html#a37bde043e94a6f074c78f10518fb5d99" target="_top" xlink:title=" ">
<polygon fill="white" stroke="#666666" points="986.5,-186 947.5,-186 947.5,-167 986.5,-167 986.5,-186"/>
<text text-anchor="middle" x="967" y="-174" font-family="Helvetica,sans-Serif" font-size="10.00">sqrtf</text>
</a>
</g>
</g>
<!-- Node13&#45;&gt;Node15 -->
<g id="edge16_Node000013_Node000015" class="edge">
<title>Node13&#45;&gt;Node15</title>
<g id="a_edge16_Node000013_Node000015"><a xlink:title=" ">
<path fill="none" stroke="#63b8ff" d="M846.11,-188.46C876.8,-185.4 912.63,-181.82 937.07,-179.38"/>
<polygon fill="#63b8ff" stroke="#63b8ff" points="937.52,-182.86 947.13,-178.38 936.83,-175.89 937.52,-182.86"/>
</a>
</g>
</g>
<!-- Node16&#45;&gt;Node13 -->
<g id="edge18_Node000016_Node000013" class="edge">
<title>Node16&#45;&gt;Node13</title>
<g id="a_edge18_Node000016_Node000013"><a xlink:title=" ">
<path fill="none" stroke="#63b8ff" d="M664.05,-194.5C679.36,-194.5 696.48,-194.5 712.86,-194.5"/>
<polygon fill="#63b8ff" stroke="#63b8ff" points="712.95,-198 722.95,-194.5 712.95,-191 712.95,-198"/>
</a>
</g>
</g>
<!-- Node17&#45;&gt;Node13 -->
<g id="edge20_Node000017_Node000013" class="edge">
<title>Node17&#45;&gt;Node13</title>
<g id="a_edge20_Node000017_Node000013"><a xlink:title=" ">
<path fill="none" stroke="#63b8ff" d="M657.28,-167.03C679.3,-171.82 706.2,-177.68 729.5,-182.75"/>
<polygon fill="#63b8ff" stroke="#63b8ff" points="729.06,-186.23 739.57,-184.94 730.55,-179.39 729.06,-186.23"/>
</a>
</g>
</g>
<!-- Node19 -->
<g id="Node000019" class="node">
<title>Node19</title>
<g id="a_Node000019"><a xlink:href="Track_8cpp.html#ad29b2b4706dd79c5d6239851b61530d4" target="_top" xlink:title=" ">
<polygon fill="white" stroke="#666666" points="502,-75 341,-75 341,-56 502,-56 502,-75"/>
<text text-anchor="middle" x="421.5" y="-63" font-family="Helvetica,sans-Serif" font-size="10.00">InvertTriangleWindingInternal</text>
</a>
</g>
</g>
<!-- Node18&#45;&gt;Node19 -->
<g id="edge22_Node000018_Node000019" class="edge">
<title>Node18&#45;&gt;Node19</title>
<g id="a_edge22_Node000018_Node000019"><a xlink:title=" ">
<path fill="none" stroke="#63b8ff" d="M257.59,-107.96C290.25,-99.45 338.26,-86.94 373.7,-77.7"/>
<polygon fill="#63b8ff" stroke="#63b8ff" points="375.01,-80.97 383.8,-75.07 373.24,-74.2 375.01,-80.97"/>
</a>
</g>
</g>
<!-- Node19&#45;&gt;Node8 -->
<g id="edge23_Node000019_Node000008" class="edge">
<title>Node19&#45;&gt;Node8</title>
<g id="a_edge23_Node000019_Node000008"><a xlink:title=" ">
<path fill="none" stroke="#63b8ff" d="M502.11,-73.08C510.5,-73.88 519.05,-74.7 527.49,-75.5"/>
<polygon fill="#63b8ff" stroke="#63b8ff" points="527.42,-79.01 537.71,-76.47 528.08,-72.04 527.42,-79.01"/>
</a>
</g>
</g>
<!-- Node19&#45;&gt;Node19 -->
<g id="edge24_Node000019_Node000019" class="edge">
<title>Node19&#45;&gt;Node19</title>
<g id="a_edge24_Node000019_Node000019"><a xlink:title=" ">
<path fill="none" stroke="#63b8ff" d="M392.22,-75.08C377.97,-83.73 387.73,-93 421.5,-93 444.72,-93 456.59,-88.62 457.11,-83.07"/>
<polygon fill="#63b8ff" stroke="#63b8ff" points="459.73,-80.75 450.78,-75.08 454.25,-85.1 459.73,-80.75"/>
</a>
</g>
</g>
<!-- Node20 -->
<g id="Node000020" class="node">
<title>Node20</title>
<g id="a_Node000020"><a xlink:href="Track_8cpp.html#ab01e041d195d4b8a1029c8b9532b0600" target="_top" xlink:title=" ">
<polygon fill="white" stroke="#666666" points="653.5,-19 571.5,-19 571.5,0 653.5,0 653.5,-19"/>
<text text-anchor="middle" x="612.5" y="-7" font-family="Helvetica,sans-Serif" font-size="10.00">StripOtrPrefix</text>
</a>
</g>
</g>
<!-- Node19&#45;&gt;Node20 -->
<g id="edge25_Node000019_Node000020" class="edge">
<title>Node19&#45;&gt;Node20</title>
<g id="a_edge25_Node000019_Node000020"><a xlink:title=" ">
<path fill="none" stroke="#63b8ff" d="M449.39,-56C472.68,-47.92 507.36,-36.28 538,-27.5 545.55,-25.34 553.58,-23.2 561.45,-21.2"/>
<polygon fill="#63b8ff" stroke="#63b8ff" points="562.44,-24.56 571.3,-18.75 560.75,-17.77 562.44,-24.56"/>
</a>
</g>
</g>
<!-- Node21 -->
<g id="Node000021" class="node">
<title>Node21</title>
<g id="a_Node000021"><a xlink:href="Track_8cpp.html#a5bae290668f6b484d13626d67e16cc3f" target="_top" xlink:title=" ">
<polygon fill="white" stroke="#666666" points="672.5,-56 552.5,-56 552.5,-37 672.5,-37 672.5,-56"/>
<text text-anchor="middle" x="612.5" y="-44" font-family="Helvetica,sans-Serif" font-size="10.00">SwapTriangleVertices</text>
</a>
</g>
</g>
<!-- Node19&#45;&gt;Node21 -->
<g id="edge26_Node000019_Node000021" class="edge">
<title>Node19&#45;&gt;Node21</title>
<g id="a_edge26_Node000019_Node000021"><a xlink:title=" ">
<path fill="none" stroke="#63b8ff" d="M502.11,-57.5C515.4,-56.16 529.1,-54.78 542.11,-53.48"/>
<polygon fill="#63b8ff" stroke="#63b8ff" points="542.78,-56.93 552.38,-52.44 542.08,-49.96 542.78,-56.93"/>
</a>
</g>
</g>
</g>
</svg>
