<?xml version="1.0" encoding="UTF-8" standalone="no"?>
<!DOCTYPE svg PUBLIC "-//W3C//DTD SVG 1.1//EN"
 "http://www.w3.org/Graphics/SVG/1.1/DTD/svg11.dtd">
<!-- Generated by graphviz version 2.43.0 (0)
 -->
<!-- Title: OHedgehog::func_800555BC Pages: 1 -->
<!--zoomable 478 -->

<svg id="main" version="1.1" xmlns="http://www.w3.org/2000/svg" xmlns:xlink="http://www.w3.org/1999/xlink" xml:space="preserve" onload="init(evt)">

<style type="text/css"><![CDATA[
.node, .edge {opacity: 0.7;}
.node.selected, .edge.selected {opacity: 1;}
.edge:hover path { stroke: red; }
.edge:hover polygon { stroke: red; fill: red; }
]]></style>

<defs>
  <circle id="rim" cx="0" cy="0" r="7"/>
  <circle id="rim2" cx="0" cy="0" r="3.5"/>
  <g id="zoomPlus">
    <use xlink:href="#rim" fill="#404040"><set attributeName="fill" to="#808080" begin="zoomplus.mouseover" end="zoomplus.mouseout"/></use>
    <path d="M-4,0h8M0,-4v8" fill="none" stroke="white" stroke-width="1.5" pointer-events="none"/>
  </g>
  <g id="zoomMin">
    <use xlink:href="#rim" fill="#404040"><set attributeName="fill" to="#808080" begin="zoomminus.mouseover" end="zoomminus.mouseout"/></use>
    <path d="M-4,0h8" fill="none" stroke="white" stroke-width="1.5" pointer-events="none"/>
  </g>
  <g id="arrowUp" transform="translate(30 24)">
    <use xlink:href="#rim"/>
    <path pointer-events="none" fill="none" stroke="white" stroke-width="1.5" d="M0,-3.0v7 M-2.5,-0.5L0,-3.0L2.5,-0.5"/>
  </g>
  <g id="arrowRight" transform="rotate(90) translate(36 -43)">
    <use xlink:href="#rim"/>
    <path pointer-events="none" fill="none" stroke="white" stroke-width="1.5" d="M0,-3.0v7 M-2.5,-0.5L0,-3.0L2.5,-0.5"/>
  </g>
  <g id="arrowDown" transform="rotate(180) translate(-30 -48)">
    <use xlink:href="#rim"/>
    <path pointer-events="none" fill="none" stroke="white" stroke-width="1.5" d="M0,-3.0v7 M-2.5,-0.5L0,-3.0L2.5,-0.5"/>
  </g>
  <g id="arrowLeft" transform="rotate(270) translate(-36 17)">
    <use xlink:href="#rim"/>
    <path pointer-events="none" fill="none" stroke="white" stroke-width="1.5" d="M0,-3.0v7 M-2.5,-0.5L0,-3.0L2.5,-0.5"/>
  </g>
  <g id="resetDef">
    <use xlink:href="#rim2" fill="#404040"><set attributeName="fill" to="#808080" begin="reset.mouseover" end="reset.mouseout"/></use>
  </g>
</defs>
<script type="application/ecmascript">
var viewWidth = 1268;
var viewHeight = 478;
var sectionId = 'dynsection-8';
</script>
<script type="application/ecmascript" xlink:href="svg.min.js"/>
<svg id="graph" class="graph">
<g id="viewport">
<title>OHedgehog::func_800555BC</title>
<!-- Node1 -->
<g id="Node000001" class="node">
<title>Node1</title>
<g id="a_Node000001"><a xlink:title=" ">
<polygon fill="#999999" stroke="#666666" points="155,-204 0,-204 0,-185 155,-185 155,-204"/>
<text text-anchor="middle" x="77.5" y="-192" font-family="Helvetica,sans-Serif" font-size="10.00">OHedgehog::func_800555BC</text>
</a>
</g>
</g>
<!-- Node2 -->
<g id="Node000002" class="node">
<title>Node2</title>
<g id="a_Node000002"><a xlink:href="render__objects_8c.html#a8c64fbe4bff7ffa49273321d6f1b03be" target="_top" xlink:title=" ">
<polygon fill="white" stroke="#666666" points="304,-370 191,-370 191,-351 304,-351 304,-370"/>
<text text-anchor="middle" x="247.5" y="-358" font-family="Helvetica,sans-Serif" font-size="10.00">draw_2d_texture_at</text>
</a>
</g>
</g>
<!-- Node1&#45;&gt;Node2 -->
<g id="edge1_Node000001_Node000002" class="edge">
<title>Node1&#45;&gt;Node2</title>
<g id="a_edge1_Node000001_Node000002"><a xlink:title=" ">
<path fill="none" stroke="#63b8ff" d="M88.51,-204.39C116.23,-231.78 194.31,-308.93 229.24,-343.44"/>
<polygon fill="#63b8ff" stroke="#63b8ff" points="227.18,-346.33 236.76,-350.87 232.1,-341.35 227.18,-346.33"/>
</a>
</g>
</g>
<!-- Node20 -->
<g id="Node000020" class="node">
<title>Node20</title>
<g id="a_Node000020"><a xlink:href="math__util__2_8c.html#a99d173c040cb4a9d0184df2605d71e32" target="_top" xlink:title=" ">
<polygon fill="white" stroke="#666666" points="293.5,-139 201.5,-139 201.5,-120 293.5,-120 293.5,-139"/>
<text text-anchor="middle" x="247.5" y="-127" font-family="Helvetica,sans-Serif" font-size="10.00">func_800418AC</text>
</a>
</g>
</g>
<!-- Node1&#45;&gt;Node20 -->
<g id="edge22_Node000001_Node000020" class="edge">
<title>Node1&#45;&gt;Node20</title>
<g id="a_edge22_Node000001_Node000020"><a xlink:title=" ">
<path fill="none" stroke="#63b8ff" d="M103.29,-184.91C132.16,-173.74 180.01,-155.23 212.37,-142.7"/>
<polygon fill="#63b8ff" stroke="#63b8ff" points="213.82,-145.9 221.88,-139.02 211.29,-139.37 213.82,-145.9"/>
</a>
</g>
</g>
<!-- Node23 -->
<g id="Node000023" class="node">
<title>Node23</title>
<g id="a_Node000023"><a xlink:href="classOHedgehog.html#a13625be451620e958a7901450c80e330" target="_top" xlink:title=" ">
<polygon fill="white" stroke="#666666" points="501,-204 346,-204 346,-185 501,-185 501,-204"/>
<text text-anchor="middle" x="423.5" y="-192" font-family="Helvetica,sans-Serif" font-size="10.00">OHedgehog::func_8004A870</text>
</a>
</g>
</g>
<!-- Node1&#45;&gt;Node23 -->
<g id="edge25_Node000001_Node000023" class="edge">
<title>Node1&#45;&gt;Node23</title>
<g id="a_edge25_Node000001_Node000023"><a xlink:title=" ">
<path fill="none" stroke="#63b8ff" d="M155.27,-194.5C208.77,-194.5 280.22,-194.5 335.78,-194.5"/>
<polygon fill="#63b8ff" stroke="#63b8ff" points="335.96,-198 345.96,-194.5 335.96,-191 335.96,-198"/>
</a>
</g>
</g>
<!-- Node3 -->
<g id="Node000003" class="node">
<title>Node3</title>
<g id="a_Node000003"><a xlink:href="render__objects_8c.html#a8a48ecaa397efcff0fd4aab89b040c59" target="_top" xlink:title=" ">
<polygon fill="white" stroke="#666666" points="489.5,-437.5 357.5,-437.5 357.5,-407.5 489.5,-407.5 489.5,-437.5"/>
<text text-anchor="start" x="365.5" y="-425.5" font-family="Helvetica,sans-Serif" font-size="10.00">draw_rectangle_texture</text>
<text text-anchor="middle" x="423.5" y="-414.5" font-family="Helvetica,sans-Serif" font-size="10.00">_overlap</text>
</a>
</g>
</g>
<!-- Node2&#45;&gt;Node3 -->
<g id="edge2_Node000002_Node000003" class="edge">
<title>Node2&#45;&gt;Node3</title>
<g id="a_edge2_Node000002_Node000003"><a xlink:title=" ">
<path fill="none" stroke="#63b8ff" d="M274.91,-370.09C293.17,-376.7 318.05,-385.68 340,-393.5 349.55,-396.9 359.72,-400.5 369.55,-403.96"/>
<polygon fill="#63b8ff" stroke="#63b8ff" points="368.64,-407.35 379.23,-407.36 370.96,-400.74 368.64,-407.35"/>
</a>
</g>
</g>
<!-- Node4 -->
<g id="Node000004" class="node">
<title>Node4</title>
<g id="a_Node000004"><a xlink:href="GBIMiddleware_8cpp.html#a4ecc44e3c6f1ca5a6b4a20c41d3bd2d2" target="_top" xlink:title=" ">
<polygon fill="white" stroke="#666666" points="675.5,-395 586.5,-395 586.5,-376 675.5,-376 675.5,-395"/>
<text text-anchor="middle" x="631" y="-383" font-family="Helvetica,sans-Serif" font-size="10.00">gSPDisplayList</text>
</a>
</g>
</g>
<!-- Node2&#45;&gt;Node4 -->
<g id="edge9_Node000002_Node000004" class="edge">
<title>Node2&#45;&gt;Node4</title>
<g id="a_edge9_Node000002_Node000004"><a xlink:title=" ">
<path fill="none" stroke="#63b8ff" d="M304.38,-364.16C377.37,-368.94 504.29,-377.26 576.22,-381.98"/>
<polygon fill="#63b8ff" stroke="#63b8ff" points="576.22,-385.48 586.42,-382.64 576.67,-378.5 576.22,-385.48"/>
</a>
</g>
</g>
<!-- Node9 -->
<g id="Node000009" class="node">
<title>Node9</title>
<g id="a_Node000009"><a xlink:href="math__util__2_8c.html#a2eff0e02deb703653ee3230fbc02eb14" target="_top" xlink:title="set the matrix to a transformation matrix">
<polygon fill="white" stroke="#666666" points="507,-351 340,-351 340,-332 507,-332 507,-351"/>
<text text-anchor="middle" x="423.5" y="-339" font-family="Helvetica,sans-Serif" font-size="10.00">rsp_set_matrix_transformation</text>
</a>
</g>
</g>
<!-- Node2&#45;&gt;Node9 -->
<g id="edge10_Node000002_Node000009" class="edge">
<title>Node2&#45;&gt;Node9</title>
<g id="a_edge10_Node000002_Node000009"><a xlink:title=" ">
<path fill="none" stroke="#63b8ff" d="M304.03,-354.44C312.34,-353.53 321.1,-352.57 329.93,-351.61"/>
<polygon fill="#63b8ff" stroke="#63b8ff" points="330.35,-355.08 339.91,-350.52 329.59,-348.12 330.35,-355.08"/>
</a>
</g>
</g>
<!-- Node3&#45;&gt;Node4 -->
<g id="edge3_Node000003_Node000004" class="edge">
<title>Node3&#45;&gt;Node4</title>
<g id="a_edge3_Node000003_Node000004"><a xlink:title=" ">
<path fill="none" stroke="#63b8ff" d="M489.52,-410.79C517.57,-405.74 549.97,-399.91 576.59,-395.12"/>
<polygon fill="#63b8ff" stroke="#63b8ff" points="577.26,-398.55 586.48,-393.34 576.02,-391.66 577.26,-398.55"/>
</a>
</g>
</g>
<!-- Node7 -->
<g id="Node000007" class="node">
<title>Node7</title>
<g id="a_Node000007"><a xlink:href="GBIMiddleware_8cpp.html#aeef79449a27a710d73576e4a4f7f7f99" target="_top" xlink:title=" ">
<polygon fill="white" stroke="#666666" points="664,-469 598,-469 598,-450 664,-450 664,-469"/>
<text text-anchor="middle" x="631" y="-457" font-family="Helvetica,sans-Serif" font-size="10.00">gSPVertex</text>
</a>
</g>
</g>
<!-- Node3&#45;&gt;Node7 -->
<g id="edge6_Node000003_Node000007" class="edge">
<title>Node3&#45;&gt;Node7</title>
<g id="a_edge6_Node000003_Node000007"><a xlink:title=" ">
<path fill="none" stroke="#63b8ff" d="M489.52,-434.21C521.67,-440 559.55,-446.82 587.86,-451.91"/>
<polygon fill="#63b8ff" stroke="#63b8ff" points="587.37,-455.38 597.83,-453.71 588.61,-448.49 587.37,-455.38"/>
</a>
</g>
</g>
<!-- Node8 -->
<g id="Node000008" class="node">
<title>Node8</title>
<g id="a_Node000008"><a xlink:href="render__objects_8c.html#a8a3e9d3da5a6ac97b84b553fdc5d7d59" target="_top" xlink:title=" ">
<polygon fill="white" stroke="#666666" points="680,-432 582,-432 582,-413 680,-413 680,-432"/>
<text text-anchor="middle" x="631" y="-420" font-family="Helvetica,sans-Serif" font-size="10.00">rsp_load_texture</text>
</a>
</g>
</g>
<!-- Node3&#45;&gt;Node8 -->
<g id="edge8_Node000003_Node000008" class="edge">
<title>Node3&#45;&gt;Node8</title>
<g id="a_edge8_Node000003_Node000008"><a xlink:title=" ">
<path fill="none" stroke="#63b8ff" d="M489.52,-422.5C515.77,-422.5 545.84,-422.5 571.4,-422.5"/>
<polygon fill="#63b8ff" stroke="#63b8ff" points="571.69,-426 581.69,-422.5 571.69,-419 571.69,-426"/>
</a>
</g>
</g>
<!-- Node5 -->
<g id="Node000005" class="node">
<title>Node5</title>
<g id="a_Node000005"><a xlink:href="Engine_8cpp.html#a223c8bc63f228dc11177515e38eff2db" target="_top" xlink:title=" ">
<polygon fill="white" stroke="#666666" points="904,-470 755,-470 755,-451 904,-451 904,-470"/>
<text text-anchor="middle" x="829.5" y="-458" font-family="Helvetica,sans-Serif" font-size="10.00">GameEngine_OTRSigCheck</text>
</a>
</g>
</g>
<!-- Node4&#45;&gt;Node5 -->
<g id="edge4_Node000004_Node000005" class="edge">
<title>Node4&#45;&gt;Node5</title>
<g id="a_edge4_Node000004_Node000005"><a xlink:title=" ">
<path fill="none" stroke="#63b8ff" d="M675.88,-389.86C690.29,-392.62 705.94,-397.13 719,-404.5 739.26,-415.93 734.88,-430.81 755,-442.5 758.05,-444.27 761.26,-445.87 764.57,-447.31"/>
<polygon fill="#63b8ff" stroke="#63b8ff" points="763.53,-450.65 774.12,-450.96 766.03,-444.12 763.53,-450.65"/>
</a>
</g>
</g>
<!-- Node6 -->
<g id="Node000006" class="node">
<title>Node6</title>
<g id="a_Node000006"><a xlink:href="string_8c.html#a008e171a518fe0e0352f31b245e03875" target="_top" xlink:title=" ">
<polygon fill="white" stroke="#666666" points="1050,-470 1006,-470 1006,-451 1050,-451 1050,-470"/>
<text text-anchor="middle" x="1028" y="-458" font-family="Helvetica,sans-Serif" font-size="10.00">strlen</text>
</a>
</g>
</g>
<!-- Node5&#45;&gt;Node6 -->
<g id="edge5_Node000005_Node000006" class="edge">
<title>Node5&#45;&gt;Node6</title>
<g id="a_edge5_Node000005_Node000006"><a xlink:title=" ">
<path fill="none" stroke="#63b8ff" d="M904.23,-460.5C935.91,-460.5 971.23,-460.5 995.82,-460.5"/>
<polygon fill="#63b8ff" stroke="#63b8ff" points="995.99,-464 1005.99,-460.5 995.99,-457 995.99,-464"/>
</a>
</g>
</g>
<!-- Node7&#45;&gt;Node5 -->
<g id="edge7_Node000007_Node000005" class="edge">
<title>Node7&#45;&gt;Node5</title>
<g id="a_edge7_Node000007_Node000005"><a xlink:title=" ">
<path fill="none" stroke="#63b8ff" d="M664.01,-459.66C685.99,-459.77 716.26,-459.93 744.85,-460.07"/>
<polygon fill="#63b8ff" stroke="#63b8ff" points="744.85,-463.57 754.87,-460.13 744.89,-456.57 744.85,-463.57"/>
</a>
</g>
</g>
<!-- Node10 -->
<g id="Node000010" class="node">
<title>Node10</title>
<g id="a_Node000010"><a xlink:href="Matrix_8cpp.html#a329d78c031733cf22ff7518f5d38fd74" target="_top" xlink:title=" ">
<polygon fill="white" stroke="#666666" points="674,-357 588,-357 588,-338 674,-338 674,-357"/>
<text text-anchor="middle" x="631" y="-345" font-family="Helvetica,sans-Serif" font-size="10.00">AddHudMatrix</text>
</a>
</g>
</g>
<!-- Node9&#45;&gt;Node10 -->
<g id="edge11_Node000009_Node000010" class="edge">
<title>Node9&#45;&gt;Node10</title>
<g id="a_edge11_Node000009_Node000010"><a xlink:title=" ">
<path fill="none" stroke="#63b8ff" d="M507.2,-343.91C530.97,-344.61 556.23,-345.35 577.62,-345.97"/>
<polygon fill="#63b8ff" stroke="#63b8ff" points="577.68,-349.47 587.78,-346.27 577.89,-342.48 577.68,-349.47"/>
</a>
</g>
</g>
<!-- Node16 -->
<g id="Node000016" class="node">
<title>Node16</title>
<g id="a_Node000016"><a xlink:href="math__util__2_8c.html#ae71383a9d7f97bcb240b23f68068ab30" target="_top" xlink:title=" ">
<polygon fill="white" stroke="#666666" points="719,-320 543,-320 543,-301 719,-301 719,-320"/>
<text text-anchor="middle" x="631" y="-308" font-family="Helvetica,sans-Serif" font-size="10.00">mtxf_set_matrix_transformation</text>
</a>
</g>
</g>
<!-- Node9&#45;&gt;Node16 -->
<g id="edge17_Node000009_Node000016" class="edge">
<title>Node9&#45;&gt;Node16</title>
<g id="a_edge17_Node000009_Node000016"><a xlink:title=" ">
<path fill="none" stroke="#63b8ff" d="M487.55,-331.99C509.44,-328.69 534.18,-324.96 556.81,-321.54"/>
<polygon fill="#63b8ff" stroke="#63b8ff" points="557.35,-325 566.71,-320.05 556.3,-318.08 557.35,-325"/>
</a>
</g>
</g>
<!-- Node11 -->
<g id="Node000011" class="node">
<title>Node11</title>
<g id="a_Node000011"><a xlink:href="Matrix_8cpp.html#a67401ed1d8de1f4d3a3e5a7b72842b6a" target="_top" xlink:title=" ">
<polygon fill="white" stroke="#666666" points="863,-357 796,-357 796,-338 863,-338 863,-357"/>
<text text-anchor="middle" x="829.5" y="-345" font-family="Helvetica,sans-Serif" font-size="10.00">AddMatrix</text>
</a>
</g>
</g>
<!-- Node10&#45;&gt;Node11 -->
<g id="edge12_Node000010_Node000011" class="edge">
<title>Node10&#45;&gt;Node11</title>
<g id="a_edge12_Node000010_Node000011"><a xlink:title=" ">
<path fill="none" stroke="#63b8ff" d="M674.15,-347.5C707.02,-347.5 752.48,-347.5 785.55,-347.5"/>
<polygon fill="#63b8ff" stroke="#63b8ff" points="785.82,-351 795.82,-347.5 785.82,-344 785.82,-351"/>
</a>
</g>
</g>
<!-- Node15 -->
<g id="Node000015" class="node">
<title>Node15</title>
<g id="a_Node000015"><a xlink:href="Game_8cpp.html#ae2fa844b3cb1021ecbc357f8ed2ad8cc" target="_top" xlink:title=" ">
<polygon fill="white" stroke="#666666" points="860.5,-433 798.5,-433 798.5,-414 860.5,-414 860.5,-433"/>
<text text-anchor="middle" x="829.5" y="-421" font-family="Helvetica,sans-Serif" font-size="10.00">GetWorld</text>
</a>
</g>
</g>
<!-- Node10&#45;&gt;Node15 -->
<g id="edge16_Node000010_Node000015" class="edge">
<title>Node10&#45;&gt;Node15</title>
<g id="a_edge16_Node000010_Node000015"><a xlink:title=" ">
<path fill="none" stroke="#63b8ff" d="M674.2,-352.81C688.94,-355.79 705.23,-360.39 719,-367.5 738.02,-377.32 736.43,-388.84 755,-399.5 765.35,-405.44 777.39,-410.16 788.68,-413.77"/>
<polygon fill="#63b8ff" stroke="#63b8ff" points="787.77,-417.15 798.35,-416.67 789.78,-410.45 787.77,-417.15"/>
</a>
</g>
</g>
<!-- Node12 -->
<g id="Node000012" class="node">
<title>Node12</title>
<g id="a_Node000012"><a xlink:href="FrameInterpolation_8cpp.html#a8cf1f2d6fabc6925aa71a9515341b4aa" target="_top" xlink:title=" ">
<polygon fill="white" stroke="#666666" points="1098,-306.5 958,-306.5 958,-276.5 1098,-276.5 1098,-306.5"/>
<text text-anchor="start" x="966" y="-294.5" font-family="Helvetica,sans-Serif" font-size="10.00">FrameInterpolation</text>
<text text-anchor="middle" x="1028" y="-283.5" font-family="Helvetica,sans-Serif" font-size="10.00">_RecordMatrixMtxFToMtx</text>
</a>
</g>
</g>
<!-- Node11&#45;&gt;Node12 -->
<g id="edge13_Node000011_Node000012" class="edge">
<title>Node11&#45;&gt;Node12</title>
<g id="a_edge13_Node000011_Node000012"><a xlink:title=" ">
<path fill="none" stroke="#63b8ff" d="M863.17,-339.94C875.95,-336.87 890.71,-333.18 904,-329.5 925.94,-323.43 949.9,-316.17 970.79,-309.64"/>
<polygon fill="#63b8ff" stroke="#63b8ff" points="971.98,-312.93 980.47,-306.59 969.88,-306.25 971.98,-312.93"/>
</a>
</g>
</g>
<!-- Node14 -->
<g id="Node000014" class="node">
<title>Node14</title>
<g id="a_Node000014"><a xlink:href="guMtxF2L_8c.html#a40ab2d64c609839ff1e0ef0de2d0dcc4" target="_top" xlink:title=" ">
<polygon fill="white" stroke="#666666" points="1060.5,-352 995.5,-352 995.5,-333 1060.5,-333 1060.5,-352"/>
<text text-anchor="middle" x="1028" y="-340" font-family="Helvetica,sans-Serif" font-size="10.00">guMtxF2L</text>
</a>
</g>
</g>
<!-- Node11&#45;&gt;Node14 -->
<g id="edge15_Node000011_Node000014" class="edge">
<title>Node11&#45;&gt;Node14</title>
<g id="a_edge15_Node000011_Node000014"><a xlink:title=" ">
<path fill="none" stroke="#63b8ff" d="M863.39,-346.66C896.8,-345.81 948.67,-344.49 985.03,-343.57"/>
<polygon fill="#63b8ff" stroke="#63b8ff" points="985.4,-347.06 995.31,-343.31 985.22,-340.06 985.4,-347.06"/>
</a>
</g>
</g>
<!-- Node13 -->
<g id="Node000013" class="node">
<title>Node13</title>
<g id="a_Node000013"><a xlink:href="FrameInterpolation_8cpp.html#a02c7ac5342a4d376edee38f312b480bf" target="_top" xlink:title=" ">
<polygon fill="white" stroke="#666666" points="1260,-245 1152,-245 1152,-226 1260,-226 1260,-245"/>
<text text-anchor="middle" x="1206" y="-233" font-family="Helvetica,sans-Serif" font-size="10.00">check_if_recording</text>
</a>
</g>
</g>
<!-- Node12&#45;&gt;Node13 -->
<g id="edge14_Node000012_Node000013" class="edge">
<title>Node12&#45;&gt;Node13</title>
<g id="a_edge14_Node000012_Node000013"><a xlink:title=" ">
<path fill="none" stroke="#63b8ff" d="M1076.16,-276.49C1104.06,-267.62 1139,-256.5 1165.45,-248.08"/>
<polygon fill="#63b8ff" stroke="#63b8ff" points="1166.67,-251.37 1175.14,-245 1164.55,-244.7 1166.67,-251.37"/>
</a>
</g>
</g>
<!-- Node17 -->
<g id="Node000017" class="node">
<title>Node17</title>
<g id="a_Node000017"><a xlink:href="math__util_8c.html#ae69cbf5c8d4b3b0dba2d7b4d4673689f" target="_top" xlink:title=" ">
<polygon fill="white" stroke="#666666" points="848.5,-320 810.5,-320 810.5,-301 848.5,-301 848.5,-320"/>
<text text-anchor="middle" x="829.5" y="-308" font-family="Helvetica,sans-Serif" font-size="10.00">coss</text>
</a>
</g>
</g>
<!-- Node16&#45;&gt;Node17 -->
<g id="edge18_Node000016_Node000017" class="edge">
<title>Node16&#45;&gt;Node17</title>
<g id="a_edge18_Node000016_Node000017"><a xlink:title=" ">
<path fill="none" stroke="#63b8ff" d="M719.05,-310.5C748.24,-310.5 778.78,-310.5 800.16,-310.5"/>
<polygon fill="#63b8ff" stroke="#63b8ff" points="800.44,-314 810.44,-310.5 800.44,-307 800.44,-314"/>
</a>
</g>
</g>
<!-- Node18 -->
<g id="Node000018" class="node">
<title>Node18</title>
<g id="a_Node000018"><a xlink:href="FrameInterpolation_8cpp.html#af749df1a96bee5c78287b1845455ae2d" target="_top" xlink:title=" ">
<polygon fill="white" stroke="#666666" points="1116,-400.5 940,-400.5 940,-370.5 1116,-370.5 1116,-400.5"/>
<text text-anchor="start" x="948" y="-388.5" font-family="Helvetica,sans-Serif" font-size="10.00">FrameInterpolation</text>
<text text-anchor="middle" x="1028" y="-377.5" font-family="Helvetica,sans-Serif" font-size="10.00">_RecordSetMatrixTransformation</text>
</a>
</g>
</g>
<!-- Node16&#45;&gt;Node18 -->
<g id="edge19_Node000016_Node000018" class="edge">
<title>Node16&#45;&gt;Node18</title>
<g id="a_edge19_Node000016_Node000018"><a xlink:title=" ">
<path fill="none" stroke="#63b8ff" d="M696.3,-320.03C704.21,-322.49 711.97,-325.6 719,-329.5 739.06,-340.64 734.19,-356.84 755,-366.5 809.06,-391.58 875.72,-396.59 929.52,-395.2"/>
<polygon fill="#63b8ff" stroke="#63b8ff" points="929.88,-398.69 939.76,-394.86 929.65,-391.7 929.88,-398.69"/>
</a>
</g>
</g>
<!-- Node19 -->
<g id="Node000019" class="node">
<title>Node19</title>
<g id="a_Node000019"><a xlink:href="math__util_8c.html#a19ed3bd78fd2d3e2bd0a29f6caf48545" target="_top" xlink:title=" ">
<polygon fill="white" stroke="#666666" points="847.5,-283 811.5,-283 811.5,-264 847.5,-264 847.5,-283"/>
<text text-anchor="middle" x="829.5" y="-271" font-family="Helvetica,sans-Serif" font-size="10.00">sins</text>
</a>
</g>
</g>
<!-- Node16&#45;&gt;Node19 -->
<g id="edge21_Node000016_Node000019" class="edge">
<title>Node16&#45;&gt;Node19</title>
<g id="a_edge21_Node000016_Node000019"><a xlink:title=" ">
<path fill="none" stroke="#63b8ff" d="M682.6,-300.97C720.44,-293.85 770.73,-284.38 801.29,-278.62"/>
<polygon fill="#63b8ff" stroke="#63b8ff" points="802.05,-282.04 811.23,-276.75 800.75,-275.16 802.05,-282.04"/>
</a>
</g>
</g>
<!-- Node18&#45;&gt;Node13 -->
<g id="edge20_Node000018_Node000013" class="edge">
<title>Node18&#45;&gt;Node13</title>
<g id="a_edge20_Node000018_Node000013"><a xlink:title=" ">
<path fill="none" stroke="#63b8ff" d="M1100.22,-370.38C1105.79,-367.86 1111.13,-364.92 1116,-361.5 1155.64,-333.65 1183.7,-282.25 1196.75,-254.48"/>
<polygon fill="#63b8ff" stroke="#63b8ff" points="1200.06,-255.65 1201.01,-245.1 1193.69,-252.76 1200.06,-255.65"/>
</a>
</g>
</g>
<!-- Node21 -->
<g id="Node000021" class="node">
<title>Node21</title>
<g id="a_Node000021"><a xlink:href="math__util_8c.html#aaa39a297477f56051975259f4bddd829" target="_top" xlink:title=" ">
<polygon fill="white" stroke="#666666" points="448.5,-86 398.5,-86 398.5,-67 448.5,-67 448.5,-86"/>
<text text-anchor="middle" x="423.5" y="-74" font-family="Helvetica,sans-Serif" font-size="10.00">atan2s</text>
</a>
</g>
</g>
<!-- Node20&#45;&gt;Node21 -->
<g id="edge23_Node000020_Node000021" class="edge">
<title>Node20&#45;&gt;Node21</title>
<g id="a_edge23_Node000020_Node000021"><a xlink:title=" ">
<path fill="none" stroke="#63b8ff" d="M280.01,-119.9C310.76,-110.53 357.39,-96.33 388.85,-86.75"/>
<polygon fill="#63b8ff" stroke="#63b8ff" points="389.95,-90.07 398.5,-83.81 387.91,-83.38 389.95,-90.07"/>
</a>
</g>
</g>
<!-- Node22 -->
<g id="Node000022" class="node">
<title>Node22</title>
<g id="a_Node000022"><a xlink:href="math__util_8c.html#a0273b0ea0783a06996c28669a7438ed9" target="_top" xlink:title=" ">
<polygon fill="white" stroke="#666666" points="672,-19 590,-19 590,0 672,0 672,-19"/>
<text text-anchor="middle" x="631" y="-7" font-family="Helvetica,sans-Serif" font-size="10.00">atan2_lookup</text>
</a>
</g>
</g>
<!-- Node21&#45;&gt;Node22 -->
<g id="edge24_Node000021_Node000022" class="edge">
<title>Node21&#45;&gt;Node22</title>
<g id="a_edge24_Node000021_Node000022"><a xlink:title=" ">
<path fill="none" stroke="#63b8ff" d="M448.82,-67.04C472.64,-57.92 510.05,-44 543,-33.5 555.97,-29.37 570.15,-25.27 583.23,-21.67"/>
<polygon fill="#63b8ff" stroke="#63b8ff" points="584.25,-25.02 592.98,-19.02 582.41,-18.27 584.25,-25.02"/>
</a>
</g>
</g>
<!-- Node23&#45;&gt;Node4 -->
<g id="edge31_Node000023_Node000004" class="edge">
<title>Node23&#45;&gt;Node4</title>
<g id="a_edge31_Node000023_Node000004"><a xlink:title=" ">
<path fill="none" stroke="#63b8ff" d="M430.47,-204.02C452.2,-238.5 526.59,-355.48 543,-366.5 552.83,-373.1 564.56,-377.45 576.18,-380.31"/>
<polygon fill="#63b8ff" stroke="#63b8ff" points="575.8,-383.8 586.31,-382.45 577.25,-376.96 575.8,-383.8"/>
</a>
</g>
</g>
<!-- Node23&#45;&gt;Node10 -->
<g id="edge26_Node000023_Node000010" class="edge">
<title>Node23&#45;&gt;Node10</title>
<g id="a_edge26_Node000023_Node000010"><a xlink:title=" ">
<path fill="none" stroke="#63b8ff" d="M429.94,-204.24C444.58,-229.46 487.48,-297.18 543,-329.5 553.52,-335.62 565.82,-339.68 577.8,-342.37"/>
<polygon fill="#63b8ff" stroke="#63b8ff" points="577.26,-345.83 587.75,-344.31 578.61,-338.96 577.26,-345.83"/>
</a>
</g>
</g>
<!-- Node24 -->
<g id="Node000024" class="node">
<title>Node24</title>
<g id="a_Node000024"><a xlink:href="FrameInterpolation_8cpp.html#a3a036bc9d533e28a4e9697cd20dccf3e" target="_top" xlink:title=" ">
<polygon fill="white" stroke="#666666" points="1083,-127.5 973,-127.5 973,-97.5 1083,-97.5 1083,-127.5"/>
<text text-anchor="start" x="981" y="-115.5" font-family="Helvetica,sans-Serif" font-size="10.00">FrameInterpolation</text>
<text text-anchor="middle" x="1028" y="-104.5" font-family="Helvetica,sans-Serif" font-size="10.00">_RecordCloseChild</text>
</a>
</g>
</g>
<!-- Node23&#45;&gt;Node24 -->
<g id="edge27_Node000023_Node000024" class="edge">
<title>Node23&#45;&gt;Node24</title>
<g id="a_edge27_Node000023_Node000024"><a xlink:title=" ">
<path fill="none" stroke="#63b8ff" d="M446.42,-184.97C469.94,-175.04 508.56,-159.54 543,-149.5 635.38,-122.56 659.27,-115.33 755,-105.5 820.88,-98.74 837.8,-103.62 904,-105.5 923.12,-106.04 943.89,-107.06 962.83,-108.16"/>
<polygon fill="#63b8ff" stroke="#63b8ff" points="962.65,-111.65 972.84,-108.75 963.06,-104.66 962.65,-111.65"/>
</a>
</g>
</g>
<!-- Node25 -->
<g id="Node000025" class="node">
<title>Node25</title>
<g id="a_Node000025"><a xlink:href="FrameInterpolation_8cpp.html#a0eda726b74eac815af4e874014e2727c" target="_top" xlink:title=" ">
<polygon fill="white" stroke="#666666" points="1083,-68.5 973,-68.5 973,-38.5 1083,-38.5 1083,-68.5"/>
<text text-anchor="start" x="981" y="-56.5" font-family="Helvetica,sans-Serif" font-size="10.00">FrameInterpolation</text>
<text text-anchor="middle" x="1028" y="-45.5" font-family="Helvetica,sans-Serif" font-size="10.00">_RecordOpenChild</text>
</a>
</g>
</g>
<!-- Node23&#45;&gt;Node25 -->
<g id="edge29_Node000023_Node000025" class="edge">
<title>Node23&#45;&gt;Node25</title>
<g id="a_edge29_Node000023_Node000025"><a xlink:title=" ">
<path fill="none" stroke="#63b8ff" d="M433.53,-184.88C452,-165.91 496.33,-123.9 543,-105.5 685.04,-49.49 867.65,-46.64 962.83,-49.81"/>
<polygon fill="#63b8ff" stroke="#63b8ff" points="962.76,-53.31 972.88,-50.18 963.02,-46.31 962.76,-53.31"/>
</a>
</g>
</g>
<!-- Node26 -->
<g id="Node000026" class="node">
<title>Node26</title>
<g id="a_Node000026"><a xlink:href="update__objects_8c.html#ae85ab923e54f707801592c71f2a847cd" target="_top" xlink:title=" ">
<polygon fill="white" stroke="#666666" points="683,-188.5 579,-188.5 579,-158.5 683,-158.5 683,-188.5"/>
<text text-anchor="start" x="587" y="-176.5" font-family="Helvetica,sans-Serif" font-size="10.00">is_obj_flag_status</text>
<text text-anchor="middle" x="631" y="-165.5" font-family="Helvetica,sans-Serif" font-size="10.00">_active</text>
</a>
</g>
</g>
<!-- Node23&#45;&gt;Node26 -->
<g id="edge32_Node000023_Node000026" class="edge">
<title>Node23&#45;&gt;Node26</title>
<g id="a_edge32_Node000023_Node000026"><a xlink:title=" ">
<path fill="none" stroke="#63b8ff" d="M501.02,-186.68C523.38,-184.4 547.52,-181.93 568.79,-179.75"/>
<polygon fill="#63b8ff" stroke="#63b8ff" points="569.4,-183.21 578.99,-178.71 568.68,-176.25 569.4,-183.21"/>
</a>
</g>
</g>
<!-- Node27 -->
<g id="Node000027" class="node">
<title>Node27</title>
<g id="a_Node000027"><a xlink:href="math__util__2_8c.html#aae502d60ed48e002c9bf17890477aebc" target="_top" xlink:title=" ">
<polygon fill="white" stroke="#666666" points="692,-226 570,-226 570,-207 692,-207 692,-226"/>
<text text-anchor="middle" x="631" y="-214" font-family="Helvetica,sans-Serif" font-size="10.00">set_transform_matrix</text>
</a>
</g>
</g>
<!-- Node23&#45;&gt;Node27 -->
<g id="edge33_Node000023_Node000027" class="edge">
<title>Node23&#45;&gt;Node27</title>
<g id="a_edge33_Node000023_Node000027"><a xlink:title=" ">
<path fill="none" stroke="#63b8ff" d="M501.02,-202.69C520.27,-204.75 540.84,-206.95 559.76,-208.98"/>
<polygon fill="#63b8ff" stroke="#63b8ff" points="559.47,-212.47 569.79,-210.05 560.22,-205.51 559.47,-212.47"/>
</a>
</g>
</g>
<!-- Node24&#45;&gt;Node13 -->
<g id="edge28_Node000024_Node000013" class="edge">
<title>Node24&#45;&gt;Node13</title>
<g id="a_edge28_Node000024_Node000013"><a xlink:title=" ">
<path fill="none" stroke="#63b8ff" d="M1083.3,-126.76C1094.57,-130.93 1106.04,-136.12 1116,-142.5 1147.8,-162.87 1176.4,-196.87 1192.17,-217.63"/>
<polygon fill="#63b8ff" stroke="#63b8ff" points="1189.52,-219.95 1198.29,-225.89 1195.15,-215.78 1189.52,-219.95"/>
</a>
</g>
</g>
<!-- Node25&#45;&gt;Node13 -->
<g id="edge30_Node000025_Node000013" class="edge">
<title>Node25&#45;&gt;Node13</title>
<g id="a_edge30_Node000025_Node000013"><a xlink:title=" ">
<path fill="none" stroke="#63b8ff" d="M1082.2,-68.61C1094.16,-73.65 1106.2,-80.17 1116,-88.5 1158.09,-124.28 1185.86,-185.2 1198,-216.18"/>
<polygon fill="#63b8ff" stroke="#63b8ff" points="1194.82,-217.69 1201.64,-225.8 1201.37,-215.21 1194.82,-217.69"/>
</a>
</g>
</g>
<!-- Node27&#45;&gt;Node17 -->
<g id="edge34_Node000027_Node000017" class="edge">
<title>Node27&#45;&gt;Node17</title>
<g id="a_edge34_Node000027_Node000017"><a xlink:title=" ">
<path fill="none" stroke="#63b8ff" d="M644.55,-226.13C666.03,-242.17 711.71,-274.36 755,-292.5 769.48,-298.57 786.47,-302.89 800.46,-305.78"/>
<polygon fill="#63b8ff" stroke="#63b8ff" points="800,-309.26 810.48,-307.71 801.32,-302.38 800,-309.26"/>
</a>
</g>
</g>
<!-- Node27&#45;&gt;Node19 -->
<g id="edge37_Node000027_Node000019" class="edge">
<title>Node27&#45;&gt;Node19</title>
<g id="a_edge37_Node000027_Node000019"><a xlink:title=" ">
<path fill="none" stroke="#63b8ff" d="M664.89,-226.04C703.27,-237.17 766.01,-255.37 801.61,-265.7"/>
<polygon fill="#63b8ff" stroke="#63b8ff" points="800.73,-269.09 811.31,-268.51 802.68,-262.37 800.73,-269.09"/>
</a>
</g>
</g>
<!-- Node28 -->
<g id="Node000028" class="node">
<title>Node28</title>
<g id="a_Node000028"><a xlink:href="FrameInterpolation_8cpp.html#adc4e082ac2a755e94aa8b4e8bbba9850" target="_top" xlink:title=" ">
<polygon fill="white" stroke="#666666" points="1104,-250.5 952,-250.5 952,-220.5 1104,-220.5 1104,-250.5"/>
<text text-anchor="start" x="960" y="-238.5" font-family="Helvetica,sans-Serif" font-size="10.00">FrameInterpolation</text>
<text text-anchor="middle" x="1028" y="-227.5" font-family="Helvetica,sans-Serif" font-size="10.00">_RecordSetTransformMatrix</text>
</a>
</g>
</g>
<!-- Node27&#45;&gt;Node28 -->
<g id="edge35_Node000027_Node000028" class="edge">
<title>Node27&#45;&gt;Node28</title>
<g id="a_edge35_Node000027_Node000028"><a xlink:title=" ">
<path fill="none" stroke="#63b8ff" d="M692.42,-219.41C758.89,-222.6 866.22,-227.77 941.34,-231.38"/>
<polygon fill="#63b8ff" stroke="#63b8ff" points="941.56,-234.89 951.72,-231.88 941.9,-227.9 941.56,-234.89"/>
</a>
</g>
</g>
<!-- Node29 -->
<g id="Node000029" class="node">
<title>Node29</title>
<g id="a_Node000029"><a xlink:href="math__util__2_8c.html#ab05a6d20123383498f07f82db7b6fb8d" target="_top" xlink:title=" ">
<polygon fill="white" stroke="#666666" points="887.5,-207 771.5,-207 771.5,-188 887.5,-188 887.5,-207"/>
<text text-anchor="middle" x="829.5" y="-195" font-family="Helvetica,sans-Serif" font-size="10.00">vec3f_cross_product</text>
</a>
</g>
</g>
<!-- Node27&#45;&gt;Node29 -->
<g id="edge38_Node000027_Node000029" class="edge">
<title>Node27&#45;&gt;Node29</title>
<g id="a_edge38_Node000027_Node000029"><a xlink:title=" ">
<path fill="none" stroke="#63b8ff" d="M692.02,-210.7C713.85,-208.59 738.66,-206.19 761.08,-204.02"/>
<polygon fill="#63b8ff" stroke="#63b8ff" points="761.58,-207.49 771.2,-203.04 760.91,-200.52 761.58,-207.49"/>
</a>
</g>
</g>
<!-- Node30 -->
<g id="Node000030" class="node">
<title>Node30</title>
<g id="a_Node000030"><a xlink:href="math__util__2_8c.html#ad692d06c2c62cfc4e1b91e03cc0acf00" target="_top" xlink:title=" ">
<polygon fill="white" stroke="#666666" points="878.5,-170 780.5,-170 780.5,-151 878.5,-151 878.5,-170"/>
<text text-anchor="middle" x="829.5" y="-158" font-family="Helvetica,sans-Serif" font-size="10.00">vec3f_normalize</text>
</a>
</g>
</g>
<!-- Node27&#45;&gt;Node30 -->
<g id="edge39_Node000027_Node000030" class="edge">
<title>Node27&#45;&gt;Node30</title>
<g id="a_edge39_Node000027_Node000030"><a xlink:title=" ">
<path fill="none" stroke="#63b8ff" d="M685.96,-206.91C697.03,-204.33 708.5,-201.21 719,-197.5 735.87,-191.55 738.25,-185.77 755,-179.5 761.47,-177.08 768.37,-174.85 775.25,-172.84"/>
<polygon fill="#63b8ff" stroke="#63b8ff" points="776.58,-176.11 785.28,-170.05 774.7,-169.36 776.58,-176.11"/>
</a>
</g>
</g>
<!-- Node32 -->
<g id="Node000032" class="node">
<title>Node32</title>
<g id="a_Node000032"><a xlink:href="math__util__2_8c.html#a03ebc759ba50db479384b0ad89225f1e" target="_top" xlink:title=" ">
<polygon fill="white" stroke="#666666" points="872.5,-133 786.5,-133 786.5,-114 872.5,-114 872.5,-133"/>
<text text-anchor="middle" x="829.5" y="-121" font-family="Helvetica,sans-Serif" font-size="10.00">vec3f_set_xyz</text>
</a>
</g>
</g>
<!-- Node27&#45;&gt;Node32 -->
<g id="edge41_Node000027_Node000032" class="edge">
<title>Node27&#45;&gt;Node32</title>
<g id="a_edge41_Node000027_Node000032"><a xlink:title=" ">
<path fill="none" stroke="#63b8ff" d="M692.11,-209.81C701.64,-206.98 710.98,-203.02 719,-197.5 743.06,-180.93 731.26,-159.52 755,-142.5 761.48,-137.86 768.99,-134.35 776.7,-131.69"/>
<polygon fill="#63b8ff" stroke="#63b8ff" points="777.92,-134.98 786.5,-128.77 775.91,-128.27 777.92,-134.98"/>
</a>
</g>
</g>
<!-- Node28&#45;&gt;Node13 -->
<g id="edge36_Node000028_Node000013" class="edge">
<title>Node28&#45;&gt;Node13</title>
<g id="a_edge36_Node000028_Node000013"><a xlink:title=" ">
<path fill="none" stroke="#63b8ff" d="M1104.15,-235.5C1116.71,-235.5 1129.62,-235.5 1141.83,-235.5"/>
<polygon fill="#63b8ff" stroke="#63b8ff" points="1141.91,-239 1151.91,-235.5 1141.91,-232 1141.91,-239"/>
</a>
</g>
</g>
<!-- Node31 -->
<g id="Node000031" class="node">
<title>Node31</title>
<g id="a_Node000031"><a xlink:href="math_8h.html#a37bde043e94a6f074c78f10518fb5d99" target="_top" xlink:title=" ">
<polygon fill="white" stroke="#666666" points="1047.5,-170 1008.5,-170 1008.5,-151 1047.5,-151 1047.5,-170"/>
<text text-anchor="middle" x="1028" y="-158" font-family="Helvetica,sans-Serif" font-size="10.00">sqrtf</text>
</a>
</g>
</g>
<!-- Node30&#45;&gt;Node31 -->
<g id="edge40_Node000030_Node000031" class="edge">
<title>Node30&#45;&gt;Node31</title>
<g id="a_edge40_Node000030_Node000031"><a xlink:title=" ">
<path fill="none" stroke="#63b8ff" d="M878.57,-160.5C915.97,-160.5 966.64,-160.5 998.05,-160.5"/>
<polygon fill="#63b8ff" stroke="#63b8ff" points="998.3,-164 1008.3,-160.5 998.3,-157 998.3,-164"/>
</a>
</g>
</g>
</g>
</svg>

<g id="navigator" transform="translate(0 0)" fill="#404254">
  <rect fill="#f2f5e9" fill-opacity="0.5" stroke="#606060" stroke-width=".5" x="0" y="0" width="60" height="60"/>
  <use id="zoomplus" xlink:href="#zoomPlus" x="17" y="9" onmousedown="handleZoom(evt,'in')"/>
  <use id="zoomminus" xlink:href="#zoomMin" x="42" y="9" onmousedown="handleZoom(evt,'out')"/>
  <use id="reset" xlink:href="#resetDef" x="30" y="36" onmousedown="handleReset()"/>
   <use id="arrowup" xlink:href="#arrowUp" x="0" y="0" onmousedown="handlePan(0,-1)"/>
  <use id="arrowright" xlink:href="#arrowRight" x="0" y="0" onmousedown="handlePan(1,0)"/>
  <use id="arrowdown" xlink:href="#arrowDown" x="0" y="0" onmousedown="handlePan(0,1)"/>
  <use id="arrowleft" xlink:href="#arrowLeft" x="0" y="0" onmousedown="handlePan(-1,0)"/>
</g>
<svg viewBox="0 0 15 15" width="100%" height="30px" preserveAspectRatio="xMaxYMin meet">
 <g id="arrow_out" transform="scale(0.3 0.3)">
  <a xlink:href="classOHedgehog_a65bd4c41d64eacf258c6ea830a1311f3_cgraph_org.svg" target="_base">
   <rect id="button" ry="5" rx="5" y="6" x="6" height="38" width="38"
        fill="#f2f5e9" fill-opacity="0.5" stroke="#606060" stroke-width="1.0"/>
   <path id="arrow"
     d="M 11.500037,31.436501 C 11.940474,20.09759 22.043105,11.32322 32.158766,21.979434 L 37.068811,17.246167 C 37.068811,17.246167 37.088388,32 37.088388,32 L 22.160133,31.978069 C 22.160133,31.978069 26.997745,27.140456 26.997745,27.140456 C 18.528582,18.264221 13.291696,25.230495 11.500037,31.436501 z"
     style="fill:#404040;"/>
  </a>
 </g>
</svg>

<style type='text/css'>
<![CDATA[
[data-mouse-over-selected='false'] { opacity: 0.7; }
[data-mouse-over-selected='true']  { opacity: 1.0; }
]]>
</style>
<script type="application/ecmascript"><![CDATA[
document.addEventListener('DOMContentLoaded', (event) => {
  highlightEdges();
  highlightAdjacentNodes();
});
]]></script>
</svg>
