<?xml version="1.0" encoding="UTF-8" standalone="no"?>
<!DOCTYPE svg PUBLIC "-//W3C//DTD SVG 1.1//EN"
 "http://www.w3.org/Graphics/SVG/1.1/DTD/svg11.dtd">
<!-- Generated by graphviz version 2.43.0 (0)
 -->
<!-- Title: WarioStadium::Load Pages: 1 -->
<!--zoomable 335 -->

<svg id="main" version="1.1" xmlns="http://www.w3.org/2000/svg" xmlns:xlink="http://www.w3.org/1999/xlink" xml:space="preserve" onload="init(evt)">

<style type="text/css"><![CDATA[
.node, .edge {opacity: 0.7;}
.node.selected, .edge.selected {opacity: 1;}
.edge:hover path { stroke: red; }
.edge:hover polygon { stroke: red; fill: red; }
]]></style>

<defs>
  <circle id="rim" cx="0" cy="0" r="7"/>
  <circle id="rim2" cx="0" cy="0" r="3.5"/>
  <g id="zoomPlus">
    <use xlink:href="#rim" fill="#404040"><set attributeName="fill" to="#808080" begin="zoomplus.mouseover" end="zoomplus.mouseout"/></use>
    <path d="M-4,0h8M0,-4v8" fill="none" stroke="white" stroke-width="1.5" pointer-events="none"/>
  </g>
  <g id="zoomMin">
    <use xlink:href="#rim" fill="#404040"><set attributeName="fill" to="#808080" begin="zoomminus.mouseover" end="zoomminus.mouseout"/></use>
    <path d="M-4,0h8" fill="none" stroke="white" stroke-width="1.5" pointer-events="none"/>
  </g>
  <g id="arrowUp" transform="translate(30 24)">
    <use xlink:href="#rim"/>
    <path pointer-events="none" fill="none" stroke="white" stroke-width="1.5" d="M0,-3.0v7 M-2.5,-0.5L0,-3.0L2.5,-0.5"/>
  </g>
  <g id="arrowRight" transform="rotate(90) translate(36 -43)">
    <use xlink:href="#rim"/>
    <path pointer-events="none" fill="none" stroke="white" stroke-width="1.5" d="M0,-3.0v7 M-2.5,-0.5L0,-3.0L2.5,-0.5"/>
  </g>
  <g id="arrowDown" transform="rotate(180) translate(-30 -48)">
    <use xlink:href="#rim"/>
    <path pointer-events="none" fill="none" stroke="white" stroke-width="1.5" d="M0,-3.0v7 M-2.5,-0.5L0,-3.0L2.5,-0.5"/>
  </g>
  <g id="arrowLeft" transform="rotate(270) translate(-36 17)">
    <use xlink:href="#rim"/>
    <path pointer-events="none" fill="none" stroke="white" stroke-width="1.5" d="M0,-3.0v7 M-2.5,-0.5L0,-3.0L2.5,-0.5"/>
  </g>
  <g id="resetDef">
    <use xlink:href="#rim2" fill="#404040"><set attributeName="fill" to="#808080" begin="reset.mouseover" end="reset.mouseout"/></use>
  </g>
</defs>
<script type="application/ecmascript">
var viewWidth = 1070;
var viewHeight = 335;
var sectionId = 'dynsection-11';
</script>
<script type="application/ecmascript" xlink:href="svg.min.js"/>
<svg id="graph" class="graph">
<g id="viewport">
<title>WarioStadium::Load</title>
<!-- Node1 -->
<g id="Node000001" class="node">
<title>Node1</title>
<g id="a_Node000001"><a xlink:title=" ">
<polygon fill="#999999" stroke="#666666" points="114,-187.5 0,-187.5 0,-168.5 114,-168.5 114,-187.5"/>
<text text-anchor="middle" x="57" y="-175.5" font-family="Helvetica,sans-Serif" font-size="10.00">WarioStadium::Load</text>
</a>
</g>
</g>
<!-- Node2 -->
<g id="Node000002" class="node">
<title>Node2</title>
<g id="a_Node000002"><a xlink:href="collision_8c.html#a7fe1ddc7a4c312ab8f9519229963450b" target="_top" xlink:title=" ">
<polygon fill="white" stroke="#666666" points="501.5,-284.5 361.5,-284.5 361.5,-265.5 501.5,-265.5 501.5,-284.5"/>
<text text-anchor="middle" x="431.5" y="-272.5" font-family="Helvetica,sans-Serif" font-size="10.00">find_vtx_and_set_colours</text>
</a>
</g>
</g>
<!-- Node1&#45;&gt;Node2 -->
<g id="edge1_Node000001_Node000002" class="edge">
<title>Node1&#45;&gt;Node2</title>
<g id="a_edge1_Node000001_Node000002"><a xlink:title=" ">
<path fill="none" stroke="#63b8ff" d="M73.33,-187.63C91.11,-198.36 121.61,-215.45 150,-225 216.01,-247.2 294.26,-260.1 351.32,-267.22"/>
<polygon fill="#63b8ff" stroke="#63b8ff" points="351.01,-270.71 361.36,-268.44 351.85,-263.76 351.01,-270.71"/>
</a>
</g>
</g>
<!-- Node7 -->
<g id="Node000007" class="node">
<title>Node7</title>
<g id="a_Node000007"><a xlink:href="render__courses_8c.html#ab02cdf6684f984a12e7388fe973bc89a" target="_top" xlink:title=" ">
<polygon fill="white" stroke="#666666" points="278.5,-132.5 186.5,-132.5 186.5,-113.5 278.5,-113.5 278.5,-132.5"/>
<text text-anchor="middle" x="232.5" y="-120.5" font-family="Helvetica,sans-Serif" font-size="10.00">func_80295C6C</text>
</a>
</g>
</g>
<!-- Node1&#45;&gt;Node7 -->
<g id="edge8_Node000001_Node000007" class="edge">
<title>Node1&#45;&gt;Node7</title>
<g id="a_edge8_Node000001_Node000007"><a xlink:title=" ">
<path fill="none" stroke="#63b8ff" d="M79.99,-168.36C98.43,-160.53 125.59,-149.58 150,-142 158.47,-139.37 167.53,-136.92 176.42,-134.7"/>
<polygon fill="#63b8ff" stroke="#63b8ff" points="177.45,-138.05 186.35,-132.31 175.81,-131.25 177.45,-138.05"/>
</a>
</g>
</g>
<!-- Node11 -->
<g id="Node000011" class="node">
<title>Node11</title>
<g id="a_Node000011"><a xlink:href="Track_8cpp.html#a0406803b8f06bfcaf7e1bd3ad2ab2e12" target="_top" xlink:title=" ">
<polygon fill="white" stroke="#666666" points="315,-215.5 150,-215.5 150,-196.5 315,-196.5 315,-215.5"/>
<text text-anchor="middle" x="232.5" y="-203.5" font-family="Helvetica,sans-Serif" font-size="10.00">InvertTriangleWindingByName</text>
</a>
</g>
</g>
<!-- Node1&#45;&gt;Node11 -->
<g id="edge12_Node000001_Node000011" class="edge">
<title>Node1&#45;&gt;Node11</title>
<g id="a_edge12_Node000001_Node000011"><a xlink:title=" ">
<path fill="none" stroke="#63b8ff" d="M114.33,-187.09C129.59,-189.55 146.29,-192.25 162.17,-194.81"/>
<polygon fill="#63b8ff" stroke="#63b8ff" points="162.04,-198.34 172.47,-196.47 163.15,-191.42 162.04,-198.34"/>
</a>
</g>
</g>
<!-- Node14 -->
<g id="Node000014" class="node">
<title>Node14</title>
<g id="a_Node000014"><a xlink:href="render__courses_8c.html#ac97a07076b3e301db5da93c0fe8f0500" target="_top" xlink:title=" ">
<polygon fill="white" stroke="#666666" points="299.5,-169.5 165.5,-169.5 165.5,-150.5 299.5,-150.5 299.5,-169.5"/>
<text text-anchor="middle" x="232.5" y="-157.5" font-family="Helvetica,sans-Serif" font-size="10.00">parse_track_displaylists</text>
</a>
</g>
</g>
<!-- Node1&#45;&gt;Node14 -->
<g id="edge17_Node000001_Node000014" class="edge">
<title>Node1&#45;&gt;Node14</title>
<g id="a_edge17_Node000001_Node000014"><a xlink:title=" ">
<path fill="none" stroke="#63b8ff" d="M114.33,-172.16C127.47,-170.79 141.67,-169.32 155.5,-167.88"/>
<polygon fill="#63b8ff" stroke="#63b8ff" points="155.91,-171.36 165.49,-166.85 155.18,-164.4 155.91,-171.36"/>
</a>
</g>
</g>
<!-- Node2&#45;&gt;Node2 -->
<g id="edge2_Node000002_Node000002" class="edge">
<title>Node2&#45;&gt;Node2</title>
<g id="a_edge2_Node000002_Node000002"><a xlink:title=" ">
<path fill="none" stroke="#63b8ff" d="M402.22,-284.58C387.97,-293.23 397.73,-302.5 431.5,-302.5 454.72,-302.5 466.59,-298.12 467.11,-292.57"/>
<polygon fill="#63b8ff" stroke="#63b8ff" points="469.73,-290.25 460.78,-284.58 464.25,-294.6 469.73,-290.25"/>
</a>
</g>
</g>
<!-- Node3 -->
<g id="Node000003" class="node">
<title>Node3</title>
<g id="a_Node000003"><a xlink:href="Engine_8cpp.html#a223c8bc63f228dc11177515e38eff2db" target="_top" xlink:title=" ">
<polygon fill="white" stroke="#666666" points="697,-252.5 548,-252.5 548,-233.5 697,-233.5 697,-252.5"/>
<text text-anchor="middle" x="622.5" y="-240.5" font-family="Helvetica,sans-Serif" font-size="10.00">GameEngine_OTRSigCheck</text>
</a>
</g>
</g>
<!-- Node2&#45;&gt;Node3 -->
<g id="edge3_Node000002_Node000003" class="edge">
<title>Node2&#45;&gt;Node3</title>
<g id="a_edge3_Node000002_Node000003"><a xlink:title=" ">
<path fill="none" stroke="#63b8ff" d="M488.69,-265.49C509.55,-261.95 533.4,-257.92 555.08,-254.25"/>
<polygon fill="#63b8ff" stroke="#63b8ff" points="555.92,-257.65 565.2,-252.53 554.75,-250.75 555.92,-257.65"/>
</a>
</g>
</g>
<!-- Node5 -->
<g id="Node000005" class="node">
<title>Node5</title>
<g id="a_Node000005"><a xlink:href="collision_8c.html#a2419eefe1cdba5b280babacc4a15fc6c" target="_top" xlink:title=" ">
<polygon fill="white" stroke="#666666" points="658,-289.5 587,-289.5 587,-270.5 658,-270.5 658,-289.5"/>
<text text-anchor="middle" x="622.5" y="-277.5" font-family="Helvetica,sans-Serif" font-size="10.00">is_cull_box</text>
</a>
</g>
</g>
<!-- Node2&#45;&gt;Node5 -->
<g id="edge5_Node000002_Node000005" class="edge">
<title>Node2&#45;&gt;Node5</title>
<g id="a_edge5_Node000002_Node000005"><a xlink:title=" ">
<path fill="none" stroke="#63b8ff" d="M501.54,-276.83C526.57,-277.49 554.18,-278.22 576.6,-278.81"/>
<polygon fill="#63b8ff" stroke="#63b8ff" points="576.73,-282.32 586.82,-279.08 576.92,-275.32 576.73,-282.32"/>
</a>
</g>
</g>
<!-- Node6 -->
<g id="Node000006" class="node">
<title>Node6</title>
<g id="a_Node000006"><a xlink:href="collision_8c.html#ae34213badc2dd781cab43c88b1e3fdce" target="_top" xlink:title=" ">
<polygon fill="white" stroke="#666666" points="677,-326.5 568,-326.5 568,-307.5 677,-307.5 677,-326.5"/>
<text text-anchor="middle" x="622.5" y="-314.5" font-family="Helvetica,sans-Serif" font-size="10.00">set_vertex_colours</text>
</a>
</g>
</g>
<!-- Node2&#45;&gt;Node6 -->
<g id="edge7_Node000002_Node000006" class="edge">
<title>Node2&#45;&gt;Node6</title>
<g id="a_edge7_Node000002_Node000006"><a xlink:title=" ">
<path fill="none" stroke="#63b8ff" d="M475.39,-284.53C502.96,-290.66 538.99,-298.66 568.37,-305.19"/>
<polygon fill="#63b8ff" stroke="#63b8ff" points="567.93,-308.68 578.46,-307.43 569.45,-301.85 567.93,-308.68"/>
</a>
</g>
</g>
<!-- Node4 -->
<g id="Node000004" class="node">
<title>Node4</title>
<g id="a_Node000004"><a xlink:href="string_8c.html#a008e171a518fe0e0352f31b245e03875" target="_top" xlink:title=" ">
<polygon fill="white" stroke="#666666" points="816.5,-270.5 772.5,-270.5 772.5,-251.5 816.5,-251.5 816.5,-270.5"/>
<text text-anchor="middle" x="794.5" y="-258.5" font-family="Helvetica,sans-Serif" font-size="10.00">strlen</text>
</a>
</g>
</g>
<!-- Node3&#45;&gt;Node4 -->
<g id="edge4_Node000003_Node000004" class="edge">
<title>Node3&#45;&gt;Node4</title>
<g id="a_edge4_Node000003_Node000004"><a xlink:title=" ">
<path fill="none" stroke="#63b8ff" d="M697.08,-250.79C719.88,-253.2 743.8,-255.74 762.11,-257.68"/>
<polygon fill="#63b8ff" stroke="#63b8ff" points="761.88,-261.17 772.2,-258.74 762.62,-254.21 761.88,-261.17"/>
</a>
</g>
</g>
<!-- Node5&#45;&gt;Node4 -->
<g id="edge6_Node000005_Node000004" class="edge">
<title>Node5&#45;&gt;Node4</title>
<g id="a_edge6_Node000005_Node000004"><a xlink:title=" ">
<path fill="none" stroke="#63b8ff" d="M658.31,-276.11C688.77,-272.71 732.61,-267.81 762.03,-264.52"/>
<polygon fill="#63b8ff" stroke="#63b8ff" points="762.61,-267.97 772.16,-263.38 761.84,-261.02 762.61,-267.97"/>
</a>
</g>
</g>
<!-- Node8 -->
<g id="Node000008" class="node">
<title>Node8</title>
<g id="a_Node000008"><a xlink:href="collision_8c.html#aa1116ededb9ebc0ee976259f02fe2a4e" target="_top" xlink:title=" ">
<polygon fill="white" stroke="#666666" points="496.5,-79.5 366.5,-79.5 366.5,-60.5 496.5,-60.5 496.5,-79.5"/>
<text text-anchor="middle" x="431.5" y="-67.5" font-family="Helvetica,sans-Serif" font-size="10.00">generate_collision_grid</text>
</a>
</g>
</g>
<!-- Node7&#45;&gt;Node8 -->
<g id="edge9_Node000007_Node000008" class="edge">
<title>Node7&#45;&gt;Node8</title>
<g id="a_edge9_Node000007_Node000008"><a xlink:title=" ">
<path fill="none" stroke="#63b8ff" d="M269.18,-113.4C301.67,-104.66 349.82,-91.71 385.06,-82.22"/>
<polygon fill="#63b8ff" stroke="#63b8ff" points="386.34,-85.5 395.09,-79.53 384.52,-78.74 386.34,-85.5"/>
</a>
</g>
</g>
<!-- Node9 -->
<g id="Node000009" class="node">
<title>Node9</title>
<g id="a_Node000009"><a xlink:href="collision_8c.html#a4e4ec74302aec60828a8d271390f7631" target="_top" xlink:title=" ">
<polygon fill="white" stroke="#666666" points="688,-30 557,-30 557,0 688,0 688,-30"/>
<text text-anchor="start" x="565" y="-18" font-family="Helvetica,sans-Serif" font-size="10.00">is_triangle_intersecting</text>
<text text-anchor="middle" x="622.5" y="-7" font-family="Helvetica,sans-Serif" font-size="10.00">_bounding_box</text>
</a>
</g>
</g>
<!-- Node8&#45;&gt;Node9 -->
<g id="edge10_Node000008_Node000009" class="edge">
<title>Node8&#45;&gt;Node9</title>
<g id="a_edge10_Node000008_Node000009"><a xlink:title=" ">
<path fill="none" stroke="#63b8ff" d="M465.42,-60.42C491.38,-52.87 528.32,-42.12 559.74,-32.97"/>
<polygon fill="#63b8ff" stroke="#63b8ff" points="561.11,-36.22 569.73,-30.07 559.15,-29.5 561.11,-36.22"/>
</a>
</g>
</g>
<!-- Node10 -->
<g id="Node000010" class="node">
<title>Node10</title>
<g id="a_Node000010"><a xlink:href="collision_8c.html#a7ef4f800cb44ad39ca233d0c76ce039a" target="_top" xlink:title=" ">
<polygon fill="white" stroke="#666666" points="850,-30 739,-30 739,0 850,0 850,-30"/>
<text text-anchor="start" x="747" y="-18" font-family="Helvetica,sans-Serif" font-size="10.00">is_line_intersecting</text>
<text text-anchor="middle" x="794.5" y="-7" font-family="Helvetica,sans-Serif" font-size="10.00">_rectangle</text>
</a>
</g>
</g>
<!-- Node9&#45;&gt;Node10 -->
<g id="edge11_Node000009_Node000010" class="edge">
<title>Node9&#45;&gt;Node10</title>
<g id="a_edge11_Node000009_Node000010"><a xlink:title=" ">
<path fill="none" stroke="#63b8ff" d="M688.25,-15C701.56,-15 715.58,-15 728.88,-15"/>
<polygon fill="#63b8ff" stroke="#63b8ff" points="728.89,-18.5 738.89,-15 728.89,-11.5 728.89,-18.5"/>
</a>
</g>
</g>
<!-- Node12 -->
<g id="Node000012" class="node">
<title>Node12</title>
<g id="a_Node000012"><a xlink:href="Track_8cpp.html#ad29b2b4706dd79c5d6239851b61530d4" target="_top" xlink:title=" ">
<polygon fill="white" stroke="#666666" points="512,-220.5 351,-220.5 351,-201.5 512,-201.5 512,-220.5"/>
<text text-anchor="middle" x="431.5" y="-208.5" font-family="Helvetica,sans-Serif" font-size="10.00">InvertTriangleWindingInternal</text>
</a>
</g>
</g>
<!-- Node11&#45;&gt;Node12 -->
<g id="edge13_Node000011_Node000012" class="edge">
<title>Node11&#45;&gt;Node12</title>
<g id="a_edge13_Node000011_Node000012"><a xlink:title=" ">
<path fill="none" stroke="#63b8ff" d="M315.05,-208.07C323.57,-208.29 332.27,-208.51 340.87,-208.73"/>
<polygon fill="#63b8ff" stroke="#63b8ff" points="340.83,-212.23 350.91,-208.98 341.01,-205.23 340.83,-212.23"/>
</a>
</g>
</g>
<!-- Node12&#45;&gt;Node3 -->
<g id="edge14_Node000012_Node000003" class="edge">
<title>Node12&#45;&gt;Node3</title>
<g id="a_edge14_Node000012_Node000003"><a xlink:title=" ">
<path fill="none" stroke="#63b8ff" d="M488.69,-220.51C509.55,-224.05 533.4,-228.08 555.08,-231.75"/>
<polygon fill="#63b8ff" stroke="#63b8ff" points="554.75,-235.25 565.2,-233.47 555.92,-228.35 554.75,-235.25"/>
</a>
</g>
</g>
<!-- Node12&#45;&gt;Node12 -->
<g id="edge15_Node000012_Node000012" class="edge">
<title>Node12&#45;&gt;Node12</title>
<g id="a_edge15_Node000012_Node000012"><a xlink:title=" ">
<path fill="none" stroke="#63b8ff" d="M402.22,-220.58C387.97,-229.23 397.73,-238.5 431.5,-238.5 454.72,-238.5 466.59,-234.12 467.11,-228.57"/>
<polygon fill="#63b8ff" stroke="#63b8ff" points="469.73,-226.25 460.78,-220.58 464.25,-230.6 469.73,-226.25"/>
</a>
</g>
</g>
<!-- Node13 -->
<g id="Node000013" class="node">
<title>Node13</title>
<g id="a_Node000013"><a xlink:href="Track_8cpp.html#a5bae290668f6b484d13626d67e16cc3f" target="_top" xlink:title=" ">
<polygon fill="white" stroke="#666666" points="682.5,-215.5 562.5,-215.5 562.5,-196.5 682.5,-196.5 682.5,-215.5"/>
<text text-anchor="middle" x="622.5" y="-203.5" font-family="Helvetica,sans-Serif" font-size="10.00">SwapTriangleVertices</text>
</a>
</g>
</g>
<!-- Node12&#45;&gt;Node13 -->
<g id="edge16_Node000012_Node000013" class="edge">
<title>Node12&#45;&gt;Node13</title>
<g id="a_edge16_Node000012_Node000013"><a xlink:title=" ">
<path fill="none" stroke="#63b8ff" d="M512.11,-208.89C525.4,-208.54 539.1,-208.18 552.11,-207.84"/>
<polygon fill="#63b8ff" stroke="#63b8ff" points="552.47,-211.33 562.38,-207.56 552.29,-204.33 552.47,-211.33"/>
</a>
</g>
</g>
<!-- Node15 -->
<g id="Node000015" class="node">
<title>Node15</title>
<g id="a_Node000015"><a xlink:href="collision_8c.html#a3081198f925be148fc9f05897a3bddd3" target="_top" xlink:title=" ">
<polygon fill="white" stroke="#666666" points="500.5,-165.5 362.5,-165.5 362.5,-146.5 500.5,-146.5 500.5,-165.5"/>
<text text-anchor="middle" x="431.5" y="-153.5" font-family="Helvetica,sans-Serif" font-size="10.00">generate_collision_mesh</text>
</a>
</g>
</g>
<!-- Node14&#45;&gt;Node15 -->
<g id="edge18_Node000014_Node000015" class="edge">
<title>Node14&#45;&gt;Node15</title>
<g id="a_edge18_Node000014_Node000015"><a xlink:title=" ">
<path fill="none" stroke="#63b8ff" d="M299.65,-158.66C316.47,-158.32 334.7,-157.95 352.07,-157.59"/>
<polygon fill="#63b8ff" stroke="#63b8ff" points="352.25,-161.09 362.17,-157.39 352.1,-154.09 352.25,-161.09"/>
</a>
</g>
</g>
<!-- Node15&#45;&gt;Node3 -->
<g id="edge19_Node000015_Node000003" class="edge">
<title>Node15&#45;&gt;Node3</title>
<g id="a_edge19_Node000015_Node000003"><a xlink:title=" ">
<path fill="none" stroke="#63b8ff" d="M457.84,-165.57C473.97,-172.19 494.95,-181.8 512,-193 529.89,-204.75 529.05,-215.05 548,-225 551.56,-226.87 555.32,-228.55 559.19,-230.06"/>
<polygon fill="#63b8ff" stroke="#63b8ff" points="558.35,-233.47 568.94,-233.47 560.66,-226.86 558.35,-233.47"/>
</a>
</g>
</g>
<!-- Node15&#45;&gt;Node5 -->
<g id="edge21_Node000015_Node000005" class="edge">
<title>Node15&#45;&gt;Node5</title>
<g id="a_edge21_Node000015_Node000005"><a xlink:title=" ">
<path fill="none" stroke="#63b8ff" d="M464.79,-165.55C480.5,-171.46 498.79,-180.38 512,-193 537.01,-216.9 520.78,-240.66 548,-262 556.22,-268.45 566.42,-272.62 576.58,-275.32"/>
<polygon fill="#63b8ff" stroke="#63b8ff" points="576.13,-278.81 586.66,-277.55 577.65,-271.97 576.13,-278.81"/>
</a>
</g>
</g>
<!-- Node15&#45;&gt;Node15 -->
<g id="edge20_Node000015_Node000015" class="edge">
<title>Node15&#45;&gt;Node15</title>
<g id="a_edge20_Node000015_Node000015"><a xlink:title=" ">
<path fill="none" stroke="#63b8ff" d="M402.22,-165.58C387.97,-174.23 397.73,-183.5 431.5,-183.5 454.72,-183.5 466.59,-179.12 467.11,-173.57"/>
<polygon fill="#63b8ff" stroke="#63b8ff" points="469.73,-171.25 460.78,-165.58 464.25,-175.6 469.73,-171.25"/>
</a>
</g>
</g>
<!-- Node16 -->
<g id="Node000016" class="node">
<title>Node16</title>
<g id="a_Node000016"><a xlink:href="collision_8c.html#a30eb531df39ba558cd733e1d1cd6aaa0" target="_top" xlink:title=" ">
<polygon fill="white" stroke="#666666" points="665.5,-67.5 579.5,-67.5 579.5,-48.5 665.5,-48.5 665.5,-67.5"/>
<text text-anchor="middle" x="622.5" y="-55.5" font-family="Helvetica,sans-Serif" font-size="10.00">set_vtx_buffer</text>
</a>
</g>
</g>
<!-- Node15&#45;&gt;Node16 -->
<g id="edge22_Node000015_Node000016" class="edge">
<title>Node15&#45;&gt;Node16</title>
<g id="a_edge22_Node000015_Node000016"><a xlink:title=" ">
<path fill="none" stroke="#63b8ff" d="M443.45,-146.32C463.04,-129.51 505.96,-94.92 548,-76 554.83,-72.93 562.26,-70.33 569.69,-68.15"/>
<polygon fill="#63b8ff" stroke="#63b8ff" points="570.67,-71.51 579.41,-65.51 568.84,-64.75 570.67,-71.51"/>
</a>
</g>
</g>
<!-- Node17 -->
<g id="Node000017" class="node">
<title>Node17</title>
<g id="a_Node000017"><a xlink:href="collision_8c.html#a593833ca3f04f0c7d8f5dcabe6430115" target="_top" xlink:title=" ">
<polygon fill="white" stroke="#666666" points="693,-178.5 552,-178.5 552,-159.5 693,-159.5 693,-178.5"/>
<text text-anchor="middle" x="622.5" y="-166.5" font-family="Helvetica,sans-Serif" font-size="10.00">set_vtx_from_quadrangle</text>
</a>
</g>
</g>
<!-- Node15&#45;&gt;Node17 -->
<g id="edge23_Node000015_Node000017" class="edge">
<title>Node15&#45;&gt;Node17</title>
<g id="a_edge23_Node000015_Node000017"><a xlink:title=" ">
<path fill="none" stroke="#63b8ff" d="M500.73,-160.69C513.96,-161.6 527.94,-162.56 541.5,-163.5"/>
<polygon fill="#63b8ff" stroke="#63b8ff" points="541.56,-167.01 551.78,-164.2 542.04,-160.03 541.56,-167.01"/>
</a>
</g>
</g>
<!-- Node21 -->
<g id="Node000021" class="node">
<title>Node21</title>
<g id="a_Node000021"><a xlink:href="collision_8c.html#ac558a6e1314f154bbf53aaf15396ea1e" target="_top" xlink:title=" ">
<polygon fill="white" stroke="#666666" points="674,-141.5 571,-141.5 571,-122.5 674,-122.5 674,-141.5"/>
<text text-anchor="middle" x="622.5" y="-129.5" font-family="Helvetica,sans-Serif" font-size="10.00">set_vtx_from_tri2</text>
</a>
</g>
</g>
<!-- Node15&#45;&gt;Node21 -->
<g id="edge27_Node000015_Node000021" class="edge">
<title>Node15&#45;&gt;Node21</title>
<g id="a_edge27_Node000015_Node000021"><a xlink:title=" ">
<path fill="none" stroke="#63b8ff" d="M500.73,-147.34C520.36,-144.84 541.63,-142.14 560.77,-139.71"/>
<polygon fill="#63b8ff" stroke="#63b8ff" points="561.39,-143.16 570.87,-138.43 560.51,-136.22 561.39,-143.16"/>
</a>
</g>
</g>
<!-- Node22 -->
<g id="Node000022" class="node">
<title>Node22</title>
<g id="a_Node000022"><a xlink:href="collision_8c.html#a335dc7fed8a2540ca0a5b0a466545845" target="_top" xlink:title=" ">
<polygon fill="white" stroke="#666666" points="684.5,-104.5 560.5,-104.5 560.5,-85.5 684.5,-85.5 684.5,-104.5"/>
<text text-anchor="middle" x="622.5" y="-92.5" font-family="Helvetica,sans-Serif" font-size="10.00">set_vtx_from_triangle</text>
</a>
</g>
</g>
<!-- Node15&#45;&gt;Node22 -->
<g id="edge29_Node000015_Node000022" class="edge">
<title>Node15&#45;&gt;Node22</title>
<g id="a_edge29_Node000015_Node000022"><a xlink:title=" ">
<path fill="none" stroke="#63b8ff" d="M456.61,-146.47C479.81,-137.47 516.01,-123.93 548,-114 555.7,-111.61 563.91,-109.28 571.95,-107.12"/>
<polygon fill="#63b8ff" stroke="#63b8ff" points="572.85,-110.5 581.63,-104.56 571.07,-103.73 572.85,-110.5"/>
</a>
</g>
</g>
<!-- Node18 -->
<g id="Node000018" class="node">
<title>Node18</title>
<g id="a_Node000018"><a xlink:href="collision_8c.html#a8c516edee107b39b30bb3a4d3c54534a" target="_top" xlink:title=" ">
<polygon fill="white" stroke="#666666" points="856,-141.5 733,-141.5 733,-122.5 856,-122.5 856,-141.5"/>
<text text-anchor="middle" x="794.5" y="-129.5" font-family="Helvetica,sans-Serif" font-size="10.00">add_collision_triangle</text>
</a>
</g>
</g>
<!-- Node17&#45;&gt;Node18 -->
<g id="edge24_Node000017_Node000018" class="edge">
<title>Node17&#45;&gt;Node18</title>
<g id="a_edge24_Node000017_Node000018"><a xlink:title=" ">
<path fill="none" stroke="#63b8ff" d="M667.28,-159.47C689.3,-154.68 716.2,-148.82 739.5,-143.75"/>
<polygon fill="#63b8ff" stroke="#63b8ff" points="740.55,-147.11 749.57,-141.56 739.06,-140.27 740.55,-147.11"/>
</a>
</g>
</g>
<!-- Node19 -->
<g id="Node000019" class="node">
<title>Node19</title>
<g id="a_Node000019"><a xlink:href="RaceManager_8cpp.html#a693bf81394ee91ac6be58f7481471619" target="_top" xlink:title=" ">
<polygon fill="white" stroke="#666666" points="1062,-160.5 892,-160.5 892,-141.5 1062,-141.5 1062,-160.5"/>
<text text-anchor="middle" x="977" y="-148.5" font-family="Helvetica,sans-Serif" font-size="10.00">add_triangle_to_collision_mesh</text>
</a>
</g>
</g>
<!-- Node18&#45;&gt;Node19 -->
<g id="edge25_Node000018_Node000019" class="edge">
<title>Node18&#45;&gt;Node19</title>
<g id="a_edge25_Node000018_Node000019"><a xlink:title=" ">
<path fill="none" stroke="#63b8ff" d="M856.11,-138.38C864.35,-139.25 872.97,-140.15 881.63,-141.07"/>
<polygon fill="#63b8ff" stroke="#63b8ff" points="881.5,-144.57 891.81,-142.14 882.23,-137.61 881.5,-144.57"/>
</a>
</g>
</g>
<!-- Node20 -->
<g id="Node000020" class="node">
<title>Node20</title>
<g id="a_Node000020"><a xlink:href="math_8h.html#a37bde043e94a6f074c78f10518fb5d99" target="_top" xlink:title=" ">
<polygon fill="white" stroke="#666666" points="996.5,-123.5 957.5,-123.5 957.5,-104.5 996.5,-104.5 996.5,-123.5"/>
<text text-anchor="middle" x="977" y="-111.5" font-family="Helvetica,sans-Serif" font-size="10.00">sqrtf</text>
</a>
</g>
</g>
<!-- Node18&#45;&gt;Node20 -->
<g id="edge26_Node000018_Node000020" class="edge">
<title>Node18&#45;&gt;Node20</title>
<g id="a_edge26_Node000018_Node000020"><a xlink:title=" ">
<path fill="none" stroke="#63b8ff" d="M856.11,-125.96C886.8,-122.9 922.63,-119.32 947.07,-116.88"/>
<polygon fill="#63b8ff" stroke="#63b8ff" points="947.52,-120.36 957.13,-115.88 946.83,-113.39 947.52,-120.36"/>
</a>
</g>
</g>
<!-- Node21&#45;&gt;Node18 -->
<g id="edge28_Node000021_Node000018" class="edge">
<title>Node21&#45;&gt;Node18</title>
<g id="a_edge28_Node000021_Node000018"><a xlink:title=" ">
<path fill="none" stroke="#63b8ff" d="M674.05,-132C689.36,-132 706.48,-132 722.86,-132"/>
<polygon fill="#63b8ff" stroke="#63b8ff" points="722.95,-135.5 732.95,-132 722.95,-128.5 722.95,-135.5"/>
</a>
</g>
</g>
<!-- Node22&#45;&gt;Node18 -->
<g id="edge30_Node000022_Node000018" class="edge">
<title>Node22&#45;&gt;Node18</title>
<g id="a_edge30_Node000022_Node000018"><a xlink:title=" ">
<path fill="none" stroke="#63b8ff" d="M667.28,-104.53C689.3,-109.32 716.2,-115.18 739.5,-120.25"/>
<polygon fill="#63b8ff" stroke="#63b8ff" points="739.06,-123.73 749.57,-122.44 740.55,-116.89 739.06,-123.73"/>
</a>
</g>
</g>
</g>
</svg>

<g id="navigator" transform="translate(0 0)" fill="#404254">
  <rect fill="#f2f5e9" fill-opacity="0.5" stroke="#606060" stroke-width=".5" x="0" y="0" width="60" height="60"/>
  <use id="zoomplus" xlink:href="#zoomPlus" x="17" y="9" onmousedown="handleZoom(evt,'in')"/>
  <use id="zoomminus" xlink:href="#zoomMin" x="42" y="9" onmousedown="handleZoom(evt,'out')"/>
  <use id="reset" xlink:href="#resetDef" x="30" y="36" onmousedown="handleReset()"/>
   <use id="arrowup" xlink:href="#arrowUp" x="0" y="0" onmousedown="handlePan(0,-1)"/>
  <use id="arrowright" xlink:href="#arrowRight" x="0" y="0" onmousedown="handlePan(1,0)"/>
  <use id="arrowdown" xlink:href="#arrowDown" x="0" y="0" onmousedown="handlePan(0,1)"/>
  <use id="arrowleft" xlink:href="#arrowLeft" x="0" y="0" onmousedown="handlePan(-1,0)"/>
</g>
<svg viewBox="0 0 15 15" width="100%" height="30px" preserveAspectRatio="xMaxYMin meet">
 <g id="arrow_out" transform="scale(0.3 0.3)">
  <a xlink:href="classWarioStadium_a5da559e4bfb670bc4e68b49fca0f3507_cgraph_org.svg" target="_base">
   <rect id="button" ry="5" rx="5" y="6" x="6" height="38" width="38"
        fill="#f2f5e9" fill-opacity="0.5" stroke="#606060" stroke-width="1.0"/>
   <path id="arrow"
     d="M 11.500037,31.436501 C 11.940474,20.09759 22.043105,11.32322 32.158766,21.979434 L 37.068811,17.246167 C 37.068811,17.246167 37.088388,32 37.088388,32 L 22.160133,31.978069 C 22.160133,31.978069 26.997745,27.140456 26.997745,27.140456 C 18.528582,18.264221 13.291696,25.230495 11.500037,31.436501 z"
     style="fill:#404040;"/>
  </a>
 </g>
</svg>

<style type='text/css'>
<![CDATA[
[data-mouse-over-selected='false'] { opacity: 0.7; }
[data-mouse-over-selected='true']  { opacity: 1.0; }
]]>
</style>
<script type="application/ecmascript"><![CDATA[
document.addEventListener('DOMContentLoaded', (event) => {
  highlightEdges();
  highlightAdjacentNodes();
});
]]></script>
</svg>
