<?xml version="1.0" encoding="UTF-8" standalone="no"?>
<!DOCTYPE svg PUBLIC "-//W3C//DTD SVG 1.1//EN"
 "http://www.w3.org/Graphics/SVG/1.1/DTD/svg11.dtd">
<!-- Generated by graphviz version 2.43.0 (0)
 -->
<!-- Title: Editor::ObjectPicker::FindObject Pages: 1 -->
<svg width="581pt" height="155pt"
 viewBox="0.00 0.00 581.00 154.50" xmlns="http://www.w3.org/2000/svg" xmlns:xlink="http://www.w3.org/1999/xlink">
<g id="graph0" class="graph" transform="scale(1 1) rotate(0) translate(4 150.5)">
<title>Editor::ObjectPicker::FindObject</title>
<!-- Node1 -->
<g id="Node000001" class="node">
<title>Node1</title>
<g id="a_Node000001"><a xlink:title=" ">
<polygon fill="#999999" stroke="#666666" points="112,-78 0,-78 0,-48 112,-48 112,-78"/>
<text text-anchor="start" x="8" y="-66" font-family="Helvetica,sans-Serif" font-size="10.00">Editor::ObjectPicker</text>
<text text-anchor="middle" x="56" y="-55" font-family="Helvetica,sans-Serif" font-size="10.00">::FindObject</text>
</a>
</g>
</g>
<!-- Node2 -->
<g id="Node000002" class="node">
<title>Node2</title>
<g id="a_Node000002"><a xlink:href="classEditor_1_1ObjectPicker.html#aa88d6119c50ddf3ef725fe4e53e76132" target="_top" xlink:title=" ">
<polygon fill="white" stroke="#666666" points="269.5,-126 157.5,-126 157.5,-96 269.5,-96 269.5,-126"/>
<text text-anchor="start" x="165.5" y="-114" font-family="Helvetica,sans-Serif" font-size="10.00">Editor::ObjectPicker</text>
<text text-anchor="middle" x="213.5" y="-103" font-family="Helvetica,sans-Serif" font-size="10.00">::CheckAActorRay</text>
</a>
</g>
</g>
<!-- Node1&#45;&gt;Node2 -->
<g id="edge1_Node000001_Node000002" class="edge">
<title>Node1&#45;&gt;Node2</title>
<g id="a_edge1_Node000001_Node000002"><a xlink:title=" ">
<path fill="none" stroke="#63b8ff" d="M105.77,-78.06C121.12,-82.79 138.22,-88.07 154.15,-92.99"/>
<polygon fill="#63b8ff" stroke="#63b8ff" points="153.31,-96.39 163.9,-96 155.38,-89.7 153.31,-96.39"/>
</a>
</g>
</g>
<!-- Node7 -->
<g id="Node000007" class="node">
<title>Node7</title>
<g id="a_Node000007"><a xlink:href="classEditor_1_1ObjectPicker.html#a0b5121afe54cd87c573f8e1ce212c8c9" target="_top" xlink:title=" ">
<polygon fill="white" stroke="#666666" points="279,-78 148,-78 148,-48 279,-48 279,-78"/>
<text text-anchor="start" x="156" y="-66" font-family="Helvetica,sans-Serif" font-size="10.00">Editor::ObjectPicker</text>
<text text-anchor="middle" x="213.5" y="-55" font-family="Helvetica,sans-Serif" font-size="10.00">::CheckEditorObjectRay</text>
</a>
</g>
</g>
<!-- Node1&#45;&gt;Node7 -->
<g id="edge6_Node000001_Node000007" class="edge">
<title>Node1&#45;&gt;Node7</title>
<g id="a_edge6_Node000001_Node000007"><a xlink:title=" ">
<path fill="none" stroke="#63b8ff" d="M112.26,-63C120.54,-63 129.2,-63 137.8,-63"/>
<polygon fill="#63b8ff" stroke="#63b8ff" points="137.86,-66.5 147.86,-63 137.86,-59.5 137.86,-66.5"/>
</a>
</g>
</g>
<!-- Node8 -->
<g id="Node000008" class="node">
<title>Node8</title>
<g id="a_Node000008"><a xlink:href="classEditor_1_1ObjectPicker.html#a0048d7184c5efa77b34e9110d6a6ac56" target="_top" xlink:title=" ">
<polygon fill="white" stroke="#666666" points="269.5,-30 157.5,-30 157.5,0 269.5,0 269.5,-30"/>
<text text-anchor="start" x="165.5" y="-18" font-family="Helvetica,sans-Serif" font-size="10.00">Editor::ObjectPicker</text>
<text text-anchor="middle" x="213.5" y="-7" font-family="Helvetica,sans-Serif" font-size="10.00">::CheckOObjectRay</text>
</a>
</g>
</g>
<!-- Node1&#45;&gt;Node8 -->
<g id="edge9_Node000001_Node000008" class="edge">
<title>Node1&#45;&gt;Node8</title>
<g id="a_edge9_Node000001_Node000008"><a xlink:title=" ">
<path fill="none" stroke="#63b8ff" d="M105.77,-47.94C121.12,-43.21 138.22,-37.93 154.15,-33.01"/>
<polygon fill="#63b8ff" stroke="#63b8ff" points="155.38,-36.3 163.9,-30 153.31,-29.61 155.38,-36.3"/>
</a>
</g>
</g>
<!-- Node3 -->
<g id="Node000003" class="node">
<title>Node3</title>
<g id="a_Node000003"><a xlink:href="Game_8cpp.html#ae2fa844b3cb1021ecbc357f8ed2ad8cc" target="_top" xlink:title=" ">
<polygon fill="white" stroke="#666666" points="438,-146.5 376,-146.5 376,-127.5 438,-127.5 438,-146.5"/>
<text text-anchor="middle" x="407" y="-134.5" font-family="Helvetica,sans-Serif" font-size="10.00">GetWorld</text>
</a>
</g>
</g>
<!-- Node2&#45;&gt;Node3 -->
<g id="edge2_Node000002_Node000003" class="edge">
<title>Node2&#45;&gt;Node3</title>
<g id="a_edge2_Node000002_Node000003"><a xlink:title=" ">
<path fill="none" stroke="#63b8ff" d="M269.63,-118.49C300.3,-122.65 337.79,-127.74 365.69,-131.53"/>
<polygon fill="#63b8ff" stroke="#63b8ff" points="365.51,-135.03 375.89,-132.91 366.45,-128.1 365.51,-135.03"/>
</a>
</g>
</g>
<!-- Node4 -->
<g id="Node000004" class="node">
<title>Node4</title>
<g id="a_Node000004"><a xlink:href="EditorMath_8cpp.html#ab0a9de936aec5e7e47fe73d35962d9c5" target="_top" xlink:title=" ">
<polygon fill="white" stroke="#666666" points="499,-72.5 315,-72.5 315,-53.5 499,-53.5 499,-72.5"/>
<text text-anchor="middle" x="407" y="-60.5" font-family="Helvetica,sans-Serif" font-size="10.00">IntersectRayTriangleAndTransform</text>
</a>
</g>
</g>
<!-- Node2&#45;&gt;Node4 -->
<g id="edge3_Node000002_Node000004" class="edge">
<title>Node2&#45;&gt;Node4</title>
<g id="a_edge3_Node000002_Node000004"><a xlink:title=" ">
<path fill="none" stroke="#63b8ff" d="M263.88,-95.95C280.1,-91.22 298.26,-86.16 315,-82 325.21,-79.47 336.12,-76.99 346.71,-74.71"/>
<polygon fill="#63b8ff" stroke="#63b8ff" points="347.67,-78.08 356.73,-72.58 346.22,-71.23 347.67,-78.08"/>
</a>
</g>
</g>
<!-- Node5 -->
<g id="Node000005" class="node">
<title>Node5</title>
<g id="a_Node000005"><a xlink:href="EditorMath_8cpp.html#a82e86dde49d8ab0f5459934034270713" target="_top" xlink:title=" ">
<polygon fill="white" stroke="#666666" points="473,-109.5 341,-109.5 341,-90.5 473,-90.5 473,-109.5"/>
<text text-anchor="middle" x="407" y="-97.5" font-family="Helvetica,sans-Serif" font-size="10.00">QueryCollisionRayActor</text>
</a>
</g>
</g>
<!-- Node2&#45;&gt;Node5 -->
<g id="edge4_Node000002_Node000005" class="edge">
<title>Node2&#45;&gt;Node5</title>
<g id="a_edge4_Node000002_Node000005"><a xlink:title=" ">
<path fill="none" stroke="#63b8ff" d="M269.63,-107.83C288.63,-106.74 310.25,-105.5 330.59,-104.33"/>
<polygon fill="#63b8ff" stroke="#63b8ff" points="330.98,-107.82 340.76,-103.75 330.58,-100.83 330.98,-107.82"/>
</a>
</g>
</g>
<!-- Node6 -->
<g id="Node000006" class="node">
<title>Node6</title>
<g id="a_Node000006"><a xlink:href="math__util_8h.html#a8fb5c0b9b43a108724b355136d29d2f9" target="_top" xlink:title=" ">
<polygon fill="white" stroke="#666666" points="573,-109.5 535,-109.5 535,-90.5 573,-90.5 573,-109.5"/>
<text text-anchor="middle" x="554" y="-97.5" font-family="Helvetica,sans-Serif" font-size="10.00">fabs</text>
</a>
</g>
</g>
<!-- Node5&#45;&gt;Node6 -->
<g id="edge5_Node000005_Node000006" class="edge">
<title>Node5&#45;&gt;Node6</title>
<g id="a_edge5_Node000005_Node000006"><a xlink:title=" ">
<path fill="none" stroke="#63b8ff" d="M473.29,-100C491.26,-100 509.83,-100 524.51,-100"/>
<polygon fill="#63b8ff" stroke="#63b8ff" points="524.92,-103.5 534.92,-100 524.92,-96.5 524.92,-103.5"/>
</a>
</g>
</g>
<!-- Node7&#45;&gt;Node4 -->
<g id="edge7_Node000007_Node000004" class="edge">
<title>Node7&#45;&gt;Node4</title>
<g id="a_edge7_Node000007_Node000004"><a xlink:title=" ">
<path fill="none" stroke="#63b8ff" d="M279.07,-63C287.34,-63 295.96,-63 304.64,-63"/>
<polygon fill="#63b8ff" stroke="#63b8ff" points="304.85,-66.5 314.85,-63 304.85,-59.5 304.85,-66.5"/>
</a>
</g>
</g>
<!-- Node7&#45;&gt;Node5 -->
<g id="edge8_Node000007_Node000005" class="edge">
<title>Node7&#45;&gt;Node5</title>
<g id="a_edge8_Node000007_Node000005"><a xlink:title=" ">
<path fill="none" stroke="#63b8ff" d="M279.07,-75.47C300.91,-79.69 325.18,-84.38 346.6,-88.52"/>
<polygon fill="#63b8ff" stroke="#63b8ff" points="346.06,-91.98 356.54,-90.44 347.39,-85.11 346.06,-91.98"/>
</a>
</g>
</g>
</g>
</svg>
