<?xml version="1.0" encoding="UTF-8" standalone="no"?>
<!DOCTYPE svg PUBLIC "-//W3C//DTD SVG 1.1//EN"
 "http://www.w3.org/Graphics/SVG/1.1/DTD/svg11.dtd">
<!-- Generated by graphviz version 2.43.0 (0)
 -->
<!-- Title: MarioRaceway::Load Pages: 1 -->
<svg width="1073pt" height="298pt"
 viewBox="0.00 0.00 1073.00 297.50" xmlns="http://www.w3.org/2000/svg" xmlns:xlink="http://www.w3.org/1999/xlink">
<g id="graph0" class="graph" transform="scale(1 1) rotate(0) translate(4 293.5)">
<title>MarioRaceway::Load</title>
<!-- Node1 -->
<g id="Node000001" class="node">
<title>Node1</title>
<g id="a_Node000001"><a xlink:title=" ">
<polygon fill="#999999" stroke="#666666" points="117,-144 0,-144 0,-125 117,-125 117,-144"/>
<text text-anchor="middle" x="58.5" y="-132" font-family="Helvetica,sans-Serif" font-size="10.00">MarioRaceway::Load</text>
</a>
</g>
</g>
<!-- Node2 -->
<g id="Node000002" class="node">
<title>Node2</title>
<g id="a_Node000002"><a xlink:href="render__courses_8c.html#ab02cdf6684f984a12e7388fe973bc89a" target="_top" xlink:title=" ">
<polygon fill="white" stroke="#666666" points="281.5,-210 189.5,-210 189.5,-191 281.5,-191 281.5,-210"/>
<text text-anchor="middle" x="235.5" y="-198" font-family="Helvetica,sans-Serif" font-size="10.00">func_80295C6C</text>
</a>
</g>
</g>
<!-- Node1&#45;&gt;Node2 -->
<g id="edge1_Node000001_Node000002" class="edge">
<title>Node1&#45;&gt;Node2</title>
<g id="a_edge1_Node000001_Node000002"><a xlink:title=" ">
<path fill="none" stroke="#63b8ff" d="M76.24,-144.12C94.59,-154.33 125.12,-170.36 153,-180.5 161.36,-183.54 170.36,-186.27 179.23,-188.66"/>
<polygon fill="#63b8ff" stroke="#63b8ff" points="178.58,-192.11 189.14,-191.21 180.33,-185.33 178.58,-192.11"/>
</a>
</g>
</g>
<!-- Node6 -->
<g id="Node000006" class="node">
<title>Node6</title>
<g id="a_Node000006"><a xlink:href="collision_8c.html#a9ab05719b77156569d97b4397d922d62" target="_top" xlink:title=" ">
<polygon fill="white" stroke="#666666" points="295.5,-171.5 175.5,-171.5 175.5,-141.5 295.5,-141.5 295.5,-171.5"/>
<text text-anchor="start" x="183.5" y="-159.5" font-family="Helvetica,sans-Serif" font-size="10.00">generate_collision</text>
<text text-anchor="middle" x="235.5" y="-148.5" font-family="Helvetica,sans-Serif" font-size="10.00">_mesh_with_defaults</text>
</a>
</g>
</g>
<!-- Node1&#45;&gt;Node6 -->
<g id="edge5_Node000001_Node000006" class="edge">
<title>Node1&#45;&gt;Node6</title>
<g id="a_edge5_Node000001_Node000006"><a xlink:title=" ">
<path fill="none" stroke="#63b8ff" d="M117.29,-141.76C132.56,-143.68 149.2,-145.78 165.02,-147.77"/>
<polygon fill="#63b8ff" stroke="#63b8ff" points="164.92,-151.28 175.28,-149.05 165.79,-144.33 164.92,-151.28"/>
</a>
</g>
</g>
<!-- Node18 -->
<g id="Node000018" class="node">
<title>Node18</title>
<g id="a_Node000018"><a xlink:href="Course_8cpp.html#a0406803b8f06bfcaf7e1bd3ad2ab2e12" target="_top" xlink:title=" ">
<polygon fill="white" stroke="#666666" points="318,-83 153,-83 153,-64 318,-64 318,-83"/>
<text text-anchor="middle" x="235.5" y="-71" font-family="Helvetica,sans-Serif" font-size="10.00">InvertTriangleWindingByName</text>
</a>
</g>
</g>
<!-- Node1&#45;&gt;Node18 -->
<g id="edge21_Node000001_Node000018" class="edge">
<title>Node1&#45;&gt;Node18</title>
<g id="a_edge21_Node000001_Node000018"><a xlink:title=" ">
<path fill="none" stroke="#63b8ff" d="M79.58,-124.85C98.28,-116.12 127.09,-103.32 153,-94.5 162.44,-91.29 172.64,-88.29 182.52,-85.63"/>
<polygon fill="#63b8ff" stroke="#63b8ff" points="183.47,-89 192.26,-83.08 181.7,-82.23 183.47,-89"/>
</a>
</g>
</g>
<!-- Node21 -->
<g id="Node000021" class="node">
<title>Node21</title>
<g id="a_Node000021"><a xlink:href="render__courses_8c.html#a206a552c1a565c9737d6749aeee3e07b" target="_top" xlink:title=" ">
<polygon fill="white" stroke="#666666" points="306.5,-123 164.5,-123 164.5,-104 306.5,-104 306.5,-123"/>
<text text-anchor="middle" x="235.5" y="-111" font-family="Helvetica,sans-Serif" font-size="10.00">parse_course_displaylists</text>
</a>
</g>
</g>
<!-- Node1&#45;&gt;Node21 -->
<g id="edge26_Node000001_Node000021" class="edge">
<title>Node1&#45;&gt;Node21</title>
<g id="a_edge26_Node000001_Node000021"><a xlink:title=" ">
<path fill="none" stroke="#63b8ff" d="M117.29,-127.57C129.15,-126.14 141.84,-124.62 154.33,-123.12"/>
<polygon fill="#63b8ff" stroke="#63b8ff" points="154.77,-126.59 164.28,-121.93 153.93,-119.64 154.77,-126.59"/>
</a>
</g>
</g>
<!-- Node3 -->
<g id="Node000003" class="node">
<title>Node3</title>
<g id="a_Node000003"><a xlink:href="collision_8c.html#aa1116ededb9ebc0ee976259f02fe2a4e" target="_top" xlink:title=" ">
<polygon fill="white" stroke="#666666" points="499.5,-219 369.5,-219 369.5,-200 499.5,-200 499.5,-219"/>
<text text-anchor="middle" x="434.5" y="-207" font-family="Helvetica,sans-Serif" font-size="10.00">generate_collision_grid</text>
</a>
</g>
</g>
<!-- Node2&#45;&gt;Node3 -->
<g id="edge2_Node000002_Node000003" class="edge">
<title>Node2&#45;&gt;Node3</title>
<g id="a_edge2_Node000002_Node000003"><a xlink:title=" ">
<path fill="none" stroke="#63b8ff" d="M281.7,-202.56C304.66,-203.61 333.16,-204.92 359.24,-206.11"/>
<polygon fill="#63b8ff" stroke="#63b8ff" points="359.33,-209.61 369.48,-206.58 359.65,-202.62 359.33,-209.61"/>
</a>
</g>
</g>
<!-- Node4 -->
<g id="Node000004" class="node">
<title>Node4</title>
<g id="a_Node000004"><a xlink:href="collision_8c.html#a4e4ec74302aec60828a8d271390f7631" target="_top" xlink:title=" ">
<polygon fill="white" stroke="#666666" points="691,-289.5 560,-289.5 560,-259.5 691,-259.5 691,-289.5"/>
<text text-anchor="start" x="568" y="-277.5" font-family="Helvetica,sans-Serif" font-size="10.00">is_triangle_intersecting</text>
<text text-anchor="middle" x="625.5" y="-266.5" font-family="Helvetica,sans-Serif" font-size="10.00">_bounding_box</text>
</a>
</g>
</g>
<!-- Node3&#45;&gt;Node4 -->
<g id="edge3_Node000003_Node000004" class="edge">
<title>Node3&#45;&gt;Node4</title>
<g id="a_edge3_Node000003_Node000004"><a xlink:title=" ">
<path fill="none" stroke="#63b8ff" d="M462.04,-219.14C485.41,-227.57 520.39,-240.07 551,-250.5 556.54,-252.39 562.31,-254.32 568.1,-256.24"/>
<polygon fill="#63b8ff" stroke="#63b8ff" points="567.19,-259.63 577.78,-259.44 569.38,-252.98 567.19,-259.63"/>
</a>
</g>
</g>
<!-- Node5 -->
<g id="Node000005" class="node">
<title>Node5</title>
<g id="a_Node000005"><a xlink:href="collision_8c.html#a7ef4f800cb44ad39ca233d0c76ce039a" target="_top" xlink:title=" ">
<polygon fill="white" stroke="#666666" points="853,-289.5 742,-289.5 742,-259.5 853,-259.5 853,-289.5"/>
<text text-anchor="start" x="750" y="-277.5" font-family="Helvetica,sans-Serif" font-size="10.00">is_line_intersecting</text>
<text text-anchor="middle" x="797.5" y="-266.5" font-family="Helvetica,sans-Serif" font-size="10.00">_rectangle</text>
</a>
</g>
</g>
<!-- Node4&#45;&gt;Node5 -->
<g id="edge4_Node000004_Node000005" class="edge">
<title>Node4&#45;&gt;Node5</title>
<g id="a_edge4_Node000004_Node000005"><a xlink:title=" ">
<path fill="none" stroke="#63b8ff" d="M691.25,-274.5C704.56,-274.5 718.58,-274.5 731.88,-274.5"/>
<polygon fill="#63b8ff" stroke="#63b8ff" points="731.89,-278 741.89,-274.5 731.89,-271 731.89,-278"/>
</a>
</g>
</g>
<!-- Node7 -->
<g id="Node000007" class="node">
<title>Node7</title>
<g id="a_Node000007"><a xlink:href="collision_8c.html#a3081198f925be148fc9f05897a3bddd3" target="_top" xlink:title=" ">
<polygon fill="white" stroke="#666666" points="503.5,-148 365.5,-148 365.5,-129 503.5,-129 503.5,-148"/>
<text text-anchor="middle" x="434.5" y="-136" font-family="Helvetica,sans-Serif" font-size="10.00">generate_collision_mesh</text>
</a>
</g>
</g>
<!-- Node6&#45;&gt;Node7 -->
<g id="edge6_Node000006_Node000007" class="edge">
<title>Node6&#45;&gt;Node7</title>
<g id="a_edge6_Node000006_Node000007"><a xlink:title=" ">
<path fill="none" stroke="#63b8ff" d="M295.61,-151.1C314.42,-149.38 335.52,-147.45 355.45,-145.63"/>
<polygon fill="#63b8ff" stroke="#63b8ff" points="355.8,-149.11 365.44,-144.72 355.16,-142.14 355.8,-149.11"/>
</a>
</g>
</g>
<!-- Node7&#45;&gt;Node7 -->
<g id="edge9_Node000007_Node000007" class="edge">
<title>Node7&#45;&gt;Node7</title>
<g id="a_edge9_Node000007_Node000007"><a xlink:title=" ">
<path fill="none" stroke="#63b8ff" d="M405.22,-148.08C390.97,-156.73 400.73,-166 434.5,-166 457.72,-166 469.59,-161.62 470.11,-156.07"/>
<polygon fill="#63b8ff" stroke="#63b8ff" points="472.73,-153.75 463.78,-148.08 467.25,-158.1 472.73,-153.75"/>
</a>
</g>
</g>
<!-- Node8 -->
<g id="Node000008" class="node">
<title>Node8</title>
<g id="a_Node000008"><a xlink:href="Engine_8cpp.html#a223c8bc63f228dc11177515e38eff2db" target="_top" xlink:title=" ">
<polygon fill="white" stroke="#666666" points="700,-56 551,-56 551,-37 700,-37 700,-56"/>
<text text-anchor="middle" x="625.5" y="-44" font-family="Helvetica,sans-Serif" font-size="10.00">GameEngine_OTRSigCheck</text>
</a>
</g>
</g>
<!-- Node7&#45;&gt;Node8 -->
<g id="edge7_Node000007_Node000008" class="edge">
<title>Node7&#45;&gt;Node8</title>
<g id="a_edge7_Node000007_Node000008"><a xlink:title=" ">
<path fill="none" stroke="#63b8ff" d="M447.55,-128.84C467.76,-113.11 510.29,-81.95 551,-64.5 555.71,-62.48 560.69,-60.66 565.75,-59.02"/>
<polygon fill="#63b8ff" stroke="#63b8ff" points="566.95,-62.32 575.53,-56.1 564.94,-55.61 566.95,-62.32"/>
</a>
</g>
</g>
<!-- Node10 -->
<g id="Node000010" class="node">
<title>Node10</title>
<g id="a_Node000010"><a xlink:href="collision_8c.html#a2419eefe1cdba5b280babacc4a15fc6c" target="_top" xlink:title=" ">
<polygon fill="white" stroke="#666666" points="661,-130 590,-130 590,-111 661,-111 661,-130"/>
<text text-anchor="middle" x="625.5" y="-118" font-family="Helvetica,sans-Serif" font-size="10.00">is_cull_box</text>
</a>
</g>
</g>
<!-- Node7&#45;&gt;Node10 -->
<g id="edge10_Node000007_Node000010" class="edge">
<title>Node7&#45;&gt;Node10</title>
<g id="a_edge10_Node000007_Node000010"><a xlink:title=" ">
<path fill="none" stroke="#63b8ff" d="M503.73,-132C529.04,-129.59 557.08,-126.92 579.76,-124.76"/>
<polygon fill="#63b8ff" stroke="#63b8ff" points="580.16,-128.24 589.78,-123.81 579.49,-121.27 580.16,-128.24"/>
</a>
</g>
</g>
<!-- Node11 -->
<g id="Node000011" class="node">
<title>Node11</title>
<g id="a_Node000011"><a xlink:href="collision_8c.html#a30eb531df39ba558cd733e1d1cd6aaa0" target="_top" xlink:title=" ">
<polygon fill="white" stroke="#666666" points="668.5,-93 582.5,-93 582.5,-74 668.5,-74 668.5,-93"/>
<text text-anchor="middle" x="625.5" y="-81" font-family="Helvetica,sans-Serif" font-size="10.00">set_vtx_buffer</text>
</a>
</g>
</g>
<!-- Node7&#45;&gt;Node11 -->
<g id="edge12_Node000007_Node000011" class="edge">
<title>Node7&#45;&gt;Node11</title>
<g id="a_edge12_Node000007_Node000011"><a xlink:title=" ">
<path fill="none" stroke="#63b8ff" d="M463.34,-128.98C486.63,-121.16 520.81,-110.02 551,-101.5 558.21,-99.47 565.85,-97.44 573.38,-95.53"/>
<polygon fill="#63b8ff" stroke="#63b8ff" points="574.31,-98.91 583.16,-93.09 572.61,-92.12 574.31,-98.91"/>
</a>
</g>
</g>
<!-- Node12 -->
<g id="Node000012" class="node">
<title>Node12</title>
<g id="a_Node000012"><a xlink:href="collision_8c.html#a593833ca3f04f0c7d8f5dcabe6430115" target="_top" xlink:title=" ">
<polygon fill="white" stroke="#666666" points="696,-241 555,-241 555,-222 696,-222 696,-241"/>
<text text-anchor="middle" x="625.5" y="-229" font-family="Helvetica,sans-Serif" font-size="10.00">set_vtx_from_quadrangle</text>
</a>
</g>
</g>
<!-- Node7&#45;&gt;Node12 -->
<g id="edge13_Node000007_Node000012" class="edge">
<title>Node7&#45;&gt;Node12</title>
<g id="a_edge13_Node000007_Node000012"><a xlink:title=" ">
<path fill="none" stroke="#63b8ff" d="M449.79,-148.16C478.26,-167.36 540.25,-208.85 551,-213.5 555.7,-215.53 560.68,-217.36 565.74,-219.01"/>
<polygon fill="#63b8ff" stroke="#63b8ff" points="564.92,-222.42 575.51,-221.94 566.94,-215.71 564.92,-222.42"/>
</a>
</g>
</g>
<!-- Node16 -->
<g id="Node000016" class="node">
<title>Node16</title>
<g id="a_Node000016"><a xlink:href="collision_8c.html#ac558a6e1314f154bbf53aaf15396ea1e" target="_top" xlink:title=" ">
<polygon fill="white" stroke="#666666" points="677,-204 574,-204 574,-185 677,-185 677,-204"/>
<text text-anchor="middle" x="625.5" y="-192" font-family="Helvetica,sans-Serif" font-size="10.00">set_vtx_from_tri2</text>
</a>
</g>
</g>
<!-- Node7&#45;&gt;Node16 -->
<g id="edge17_Node000007_Node000016" class="edge">
<title>Node7&#45;&gt;Node16</title>
<g id="a_edge17_Node000007_Node000016"><a xlink:title=" ">
<path fill="none" stroke="#63b8ff" d="M462.39,-148C485.68,-156.08 520.36,-167.72 551,-176.5 558.2,-178.56 565.84,-180.6 573.36,-182.52"/>
<polygon fill="#63b8ff" stroke="#63b8ff" points="572.59,-185.93 583.15,-184.97 574.29,-179.14 572.59,-185.93"/>
</a>
</g>
</g>
<!-- Node17 -->
<g id="Node000017" class="node">
<title>Node17</title>
<g id="a_Node000017"><a xlink:href="collision_8c.html#a335dc7fed8a2540ca0a5b0a466545845" target="_top" xlink:title=" ">
<polygon fill="white" stroke="#666666" points="687.5,-167 563.5,-167 563.5,-148 687.5,-148 687.5,-167"/>
<text text-anchor="middle" x="625.5" y="-155" font-family="Helvetica,sans-Serif" font-size="10.00">set_vtx_from_triangle</text>
</a>
</g>
</g>
<!-- Node7&#45;&gt;Node17 -->
<g id="edge19_Node000007_Node000017" class="edge">
<title>Node7&#45;&gt;Node17</title>
<g id="a_edge19_Node000007_Node000017"><a xlink:title=" ">
<path fill="none" stroke="#63b8ff" d="M503.73,-145.36C519.84,-146.98 537.06,-148.71 553.3,-150.34"/>
<polygon fill="#63b8ff" stroke="#63b8ff" points="552.97,-153.83 563.27,-151.34 553.67,-146.86 552.97,-153.83"/>
</a>
</g>
</g>
<!-- Node9 -->
<g id="Node000009" class="node">
<title>Node9</title>
<g id="a_Node000009"><a xlink:href="string_8c.html#a008e171a518fe0e0352f31b245e03875" target="_top" xlink:title=" ">
<polygon fill="white" stroke="#666666" points="819.5,-93 775.5,-93 775.5,-74 819.5,-74 819.5,-93"/>
<text text-anchor="middle" x="797.5" y="-81" font-family="Helvetica,sans-Serif" font-size="10.00">strlen</text>
</a>
</g>
</g>
<!-- Node8&#45;&gt;Node9 -->
<g id="edge8_Node000008_Node000009" class="edge">
<title>Node8&#45;&gt;Node9</title>
<g id="a_edge8_Node000008_Node000009"><a xlink:title=" ">
<path fill="none" stroke="#63b8ff" d="M670.28,-56.03C699.98,-62.49 738.55,-70.89 765.19,-76.69"/>
<polygon fill="#63b8ff" stroke="#63b8ff" points="764.61,-80.14 775.12,-78.85 766.1,-73.3 764.61,-80.14"/>
</a>
</g>
</g>
<!-- Node10&#45;&gt;Node9 -->
<g id="edge11_Node000010_Node000009" class="edge">
<title>Node10&#45;&gt;Node9</title>
<g id="a_edge11_Node000010_Node000009"><a xlink:title=" ">
<path fill="none" stroke="#63b8ff" d="M661.31,-112.92C691.77,-106.3 735.61,-96.75 765.03,-90.35"/>
<polygon fill="#63b8ff" stroke="#63b8ff" points="766.14,-93.69 775.16,-88.14 764.65,-86.85 766.14,-93.69"/>
</a>
</g>
</g>
<!-- Node13 -->
<g id="Node000013" class="node">
<title>Node13</title>
<g id="a_Node000013"><a xlink:href="collision_8c.html#a8c516edee107b39b30bb3a4d3c54534a" target="_top" xlink:title=" ">
<polygon fill="white" stroke="#666666" points="859,-204 736,-204 736,-185 859,-185 859,-204"/>
<text text-anchor="middle" x="797.5" y="-192" font-family="Helvetica,sans-Serif" font-size="10.00">add_collision_triangle</text>
</a>
</g>
</g>
<!-- Node12&#45;&gt;Node13 -->
<g id="edge14_Node000012_Node000013" class="edge">
<title>Node12&#45;&gt;Node13</title>
<g id="a_edge14_Node000012_Node000013"><a xlink:title=" ">
<path fill="none" stroke="#63b8ff" d="M670.28,-221.97C692.3,-217.18 719.2,-211.32 742.5,-206.25"/>
<polygon fill="#63b8ff" stroke="#63b8ff" points="743.55,-209.61 752.57,-204.06 742.06,-202.77 743.55,-209.61"/>
</a>
</g>
</g>
<!-- Node14 -->
<g id="Node000014" class="node">
<title>Node14</title>
<g id="a_Node000014"><a xlink:href="RaceManager_8cpp.html#a693bf81394ee91ac6be58f7481471619" target="_top" xlink:title=" ">
<polygon fill="white" stroke="#666666" points="1065,-223 895,-223 895,-204 1065,-204 1065,-223"/>
<text text-anchor="middle" x="980" y="-211" font-family="Helvetica,sans-Serif" font-size="10.00">add_triangle_to_collision_mesh</text>
</a>
</g>
</g>
<!-- Node13&#45;&gt;Node14 -->
<g id="edge15_Node000013_Node000014" class="edge">
<title>Node13&#45;&gt;Node14</title>
<g id="a_edge15_Node000013_Node000014"><a xlink:title=" ">
<path fill="none" stroke="#63b8ff" d="M859.11,-200.88C867.35,-201.75 875.97,-202.65 884.63,-203.57"/>
<polygon fill="#63b8ff" stroke="#63b8ff" points="884.5,-207.07 894.81,-204.64 885.23,-200.11 884.5,-207.07"/>
</a>
</g>
</g>
<!-- Node15 -->
<g id="Node000015" class="node">
<title>Node15</title>
<g id="a_Node000015"><a xlink:href="math_8h.html#a37bde043e94a6f074c78f10518fb5d99" target="_top" xlink:title=" ">
<polygon fill="white" stroke="#666666" points="999.5,-186 960.5,-186 960.5,-167 999.5,-167 999.5,-186"/>
<text text-anchor="middle" x="980" y="-174" font-family="Helvetica,sans-Serif" font-size="10.00">sqrtf</text>
</a>
</g>
</g>
<!-- Node13&#45;&gt;Node15 -->
<g id="edge16_Node000013_Node000015" class="edge">
<title>Node13&#45;&gt;Node15</title>
<g id="a_edge16_Node000013_Node000015"><a xlink:title=" ">
<path fill="none" stroke="#63b8ff" d="M859.11,-188.46C889.8,-185.4 925.63,-181.82 950.07,-179.38"/>
<polygon fill="#63b8ff" stroke="#63b8ff" points="950.52,-182.86 960.13,-178.38 949.83,-175.89 950.52,-182.86"/>
</a>
</g>
</g>
<!-- Node16&#45;&gt;Node13 -->
<g id="edge18_Node000016_Node000013" class="edge">
<title>Node16&#45;&gt;Node13</title>
<g id="a_edge18_Node000016_Node000013"><a xlink:title=" ">
<path fill="none" stroke="#63b8ff" d="M677.05,-194.5C692.36,-194.5 709.48,-194.5 725.86,-194.5"/>
<polygon fill="#63b8ff" stroke="#63b8ff" points="725.95,-198 735.95,-194.5 725.95,-191 725.95,-198"/>
</a>
</g>
</g>
<!-- Node17&#45;&gt;Node13 -->
<g id="edge20_Node000017_Node000013" class="edge">
<title>Node17&#45;&gt;Node13</title>
<g id="a_edge20_Node000017_Node000013"><a xlink:title=" ">
<path fill="none" stroke="#63b8ff" d="M670.28,-167.03C692.3,-171.82 719.2,-177.68 742.5,-182.75"/>
<polygon fill="#63b8ff" stroke="#63b8ff" points="742.06,-186.23 752.57,-184.94 743.55,-179.39 742.06,-186.23"/>
</a>
</g>
</g>
<!-- Node19 -->
<g id="Node000019" class="node">
<title>Node19</title>
<g id="a_Node000019"><a xlink:href="Course_8cpp.html#ad29b2b4706dd79c5d6239851b61530d4" target="_top" xlink:title=" ">
<polygon fill="white" stroke="#666666" points="515,-56 354,-56 354,-37 515,-37 515,-56"/>
<text text-anchor="middle" x="434.5" y="-44" font-family="Helvetica,sans-Serif" font-size="10.00">InvertTriangleWindingInternal</text>
</a>
</g>
</g>
<!-- Node18&#45;&gt;Node19 -->
<g id="edge22_Node000018_Node000019" class="edge">
<title>Node18&#45;&gt;Node19</title>
<g id="a_edge22_Node000018_Node000019"><a xlink:title=" ">
<path fill="none" stroke="#63b8ff" d="M305.95,-63.98C321.4,-61.86 337.9,-59.6 353.72,-57.43"/>
<polygon fill="#63b8ff" stroke="#63b8ff" points="354.58,-60.85 364.01,-56.02 353.63,-53.91 354.58,-60.85"/>
</a>
</g>
</g>
<!-- Node19&#45;&gt;Node8 -->
<g id="edge23_Node000019_Node000008" class="edge">
<title>Node19&#45;&gt;Node8</title>
<g id="a_edge23_Node000019_Node000008"><a xlink:title=" ">
<path fill="none" stroke="#63b8ff" d="M515.11,-46.5C523.5,-46.5 532.05,-46.5 540.49,-46.5"/>
<polygon fill="#63b8ff" stroke="#63b8ff" points="540.71,-50 550.71,-46.5 540.71,-43 540.71,-50"/>
</a>
</g>
</g>
<!-- Node19&#45;&gt;Node19 -->
<g id="edge24_Node000019_Node000019" class="edge">
<title>Node19&#45;&gt;Node19</title>
<g id="a_edge24_Node000019_Node000019"><a xlink:title=" ">
<path fill="none" stroke="#63b8ff" d="M405.22,-56.08C390.97,-64.73 400.73,-74 434.5,-74 457.72,-74 469.59,-69.62 470.11,-64.07"/>
<polygon fill="#63b8ff" stroke="#63b8ff" points="472.73,-61.75 463.78,-56.08 467.25,-66.1 472.73,-61.75"/>
</a>
</g>
</g>
<!-- Node20 -->
<g id="Node000020" class="node">
<title>Node20</title>
<g id="a_Node000020"><a xlink:href="Course_8cpp.html#a5bae290668f6b484d13626d67e16cc3f" target="_top" xlink:title=" ">
<polygon fill="white" stroke="#666666" points="685.5,-19 565.5,-19 565.5,0 685.5,0 685.5,-19"/>
<text text-anchor="middle" x="625.5" y="-7" font-family="Helvetica,sans-Serif" font-size="10.00">SwapTriangleVertices</text>
</a>
</g>
</g>
<!-- Node19&#45;&gt;Node20 -->
<g id="edge25_Node000019_Node000020" class="edge">
<title>Node19&#45;&gt;Node20</title>
<g id="a_edge25_Node000019_Node000020"><a xlink:title=" ">
<path fill="none" stroke="#63b8ff" d="M484.17,-36.97C509.1,-32.09 539.63,-26.11 565.85,-20.98"/>
<polygon fill="#63b8ff" stroke="#63b8ff" points="566.52,-24.42 575.66,-19.06 565.18,-17.55 566.52,-24.42"/>
</a>
</g>
</g>
<!-- Node21&#45;&gt;Node7 -->
<g id="edge27_Node000021_Node000007" class="edge">
<title>Node21&#45;&gt;Node7</title>
<g id="a_edge27_Node000021_Node000007"><a xlink:title=" ">
<path fill="none" stroke="#63b8ff" d="M306.51,-122.38C322.35,-124.4 339.27,-126.54 355.43,-128.59"/>
<polygon fill="#63b8ff" stroke="#63b8ff" points="355.01,-132.07 365.37,-129.85 355.89,-125.12 355.01,-132.07"/>
</a>
</g>
</g>
</g>
</svg>
