<?xml version="1.0" encoding="UTF-8" standalone="no"?>
<!DOCTYPE svg PUBLIC "-//W3C//DTD SVG 1.1//EN"
 "http://www.w3.org/Graphics/SVG/1.1/DTD/svg11.dtd">
<!-- Generated by graphviz version 2.43.0 (0)
 -->
<!-- Title: Editor::TrackPropertiesWindow::DrawElement Pages: 1 -->
<!--zoomable 251 -->

<svg id="main" version="1.1" xmlns="http://www.w3.org/2000/svg" xmlns:xlink="http://www.w3.org/1999/xlink" xml:space="preserve" onload="init(evt)">

<style type="text/css"><![CDATA[
.node, .edge {opacity: 0.7;}
.node.selected, .edge.selected {opacity: 1;}
.edge:hover path { stroke: red; }
.edge:hover polygon { stroke: red; fill: red; }
]]></style>

<defs>
  <circle id="rim" cx="0" cy="0" r="7"/>
  <circle id="rim2" cx="0" cy="0" r="3.5"/>
  <g id="zoomPlus">
    <use xlink:href="#rim" fill="#404040"><set attributeName="fill" to="#808080" begin="zoomplus.mouseover" end="zoomplus.mouseout"/></use>
    <path d="M-4,0h8M0,-4v8" fill="none" stroke="white" stroke-width="1.5" pointer-events="none"/>
  </g>
  <g id="zoomMin">
    <use xlink:href="#rim" fill="#404040"><set attributeName="fill" to="#808080" begin="zoomminus.mouseover" end="zoomminus.mouseout"/></use>
    <path d="M-4,0h8" fill="none" stroke="white" stroke-width="1.5" pointer-events="none"/>
  </g>
  <g id="arrowUp" transform="translate(30 24)">
    <use xlink:href="#rim"/>
    <path pointer-events="none" fill="none" stroke="white" stroke-width="1.5" d="M0,-3.0v7 M-2.5,-0.5L0,-3.0L2.5,-0.5"/>
  </g>
  <g id="arrowRight" transform="rotate(90) translate(36 -43)">
    <use xlink:href="#rim"/>
    <path pointer-events="none" fill="none" stroke="white" stroke-width="1.5" d="M0,-3.0v7 M-2.5,-0.5L0,-3.0L2.5,-0.5"/>
  </g>
  <g id="arrowDown" transform="rotate(180) translate(-30 -48)">
    <use xlink:href="#rim"/>
    <path pointer-events="none" fill="none" stroke="white" stroke-width="1.5" d="M0,-3.0v7 M-2.5,-0.5L0,-3.0L2.5,-0.5"/>
  </g>
  <g id="arrowLeft" transform="rotate(270) translate(-36 17)">
    <use xlink:href="#rim"/>
    <path pointer-events="none" fill="none" stroke="white" stroke-width="1.5" d="M0,-3.0v7 M-2.5,-0.5L0,-3.0L2.5,-0.5"/>
  </g>
  <g id="resetDef">
    <use xlink:href="#rim2" fill="#404040"><set attributeName="fill" to="#808080" begin="reset.mouseover" end="reset.mouseout"/></use>
  </g>
</defs>
<script type="application/ecmascript">
var viewWidth = 733;
var viewHeight = 251;
var sectionId = 'dynsection-2';
</script>
<script type="application/ecmascript" xlink:href="svg.min.js"/>
<svg id="graph" class="graph">
<g id="viewport">
<title>Editor::TrackPropertiesWindow::DrawElement</title>
<!-- Node1 -->
<g id="Node000001" class="node">
<title>Node1</title>
<g id="a_Node000001"><a xlink:title=" ">
<polygon fill="#999999" stroke="#666666" points="165,-161.5 0,-161.5 0,-131.5 165,-131.5 165,-161.5"/>
<text text-anchor="start" x="8" y="-149.5" font-family="Helvetica,sans-Serif" font-size="10.00">Editor::TrackPropertiesWindow</text>
<text text-anchor="middle" x="82.5" y="-138.5" font-family="Helvetica,sans-Serif" font-size="10.00">::DrawElement</text>
</a>
</g>
</g>
<!-- Node2 -->
<g id="Node000002" class="node">
<title>Node2</title>
<g id="a_Node000002"><a xlink:href="classEditor_1_1TrackPropertiesWindow.html#a9c0a882cebba2e32a9fb41db0018d689" target="_top" xlink:title=" ">
<polygon fill="white" stroke="#666666" points="366,-204.5 201,-204.5 201,-174.5 366,-174.5 366,-204.5"/>
<text text-anchor="start" x="209" y="-192.5" font-family="Helvetica,sans-Serif" font-size="10.00">Editor::TrackPropertiesWindow</text>
<text text-anchor="middle" x="283.5" y="-181.5" font-family="Helvetica,sans-Serif" font-size="10.00">::DrawLight</text>
</a>
</g>
</g>
<!-- Node1&#45;&gt;Node2 -->
<g id="edge1_Node000001_Node000002" class="edge">
<title>Node1&#45;&gt;Node2</title>
<g id="a_edge1_Node000001_Node000002"><a xlink:title=" ">
<path fill="none" stroke="#63b8ff" d="M153.1,-161.54C169.16,-165.01 186.36,-168.73 202.81,-172.28"/>
<polygon fill="#63b8ff" stroke="#63b8ff" points="202.43,-175.78 212.94,-174.47 203.9,-168.94 202.43,-175.78"/>
</a>
</g>
</g>
<!-- Node3 -->
<g id="Node000003" class="node">
<title>Node3</title>
<g id="a_Node000003"><a xlink:href="classEditor_1_1TrackPropertiesWindow.html#a8b63bc062fc5bd60bd103e24a109d02d" target="_top" xlink:title=" ">
<polygon fill="white" stroke="#666666" points="567,-242.5 402,-242.5 402,-212.5 567,-212.5 567,-242.5"/>
<text text-anchor="start" x="410" y="-230.5" font-family="Helvetica,sans-Serif" font-size="10.00">Editor::TrackPropertiesWindow</text>
<text text-anchor="middle" x="484.5" y="-219.5" font-family="Helvetica,sans-Serif" font-size="10.00">::FloatToRGB8</text>
</a>
</g>
</g>
<!-- Node1&#45;&gt;Node3 -->
<g id="edge12_Node000001_Node000003" class="edge">
<title>Node1&#45;&gt;Node3</title>
<g id="a_edge12_Node000001_Node000003"><a xlink:title=" ">
<path fill="none" stroke="#63b8ff" d="M103.39,-161.77C125.74,-177.95 163.8,-202.65 201,-213.5 262.8,-231.53 335.38,-234.76 391.5,-233.63"/>
<polygon fill="#63b8ff" stroke="#63b8ff" points="391.87,-237.12 401.78,-233.37 391.7,-230.12 391.87,-237.12"/>
</a>
</g>
</g>
<!-- Node4 -->
<g id="Node000004" class="node">
<title>Node4</title>
<g id="a_Node000004"><a xlink:href="classEditor_1_1TrackPropertiesWindow.html#a7fd6e90871f5e991d3cca9ec8e757123" target="_top" xlink:title=" ">
<polygon fill="white" stroke="#666666" points="567,-186.5 402,-186.5 402,-156.5 567,-156.5 567,-186.5"/>
<text text-anchor="start" x="410" y="-174.5" font-family="Helvetica,sans-Serif" font-size="10.00">Editor::TrackPropertiesWindow</text>
<text text-anchor="middle" x="484.5" y="-163.5" font-family="Helvetica,sans-Serif" font-size="10.00">::RGB8ToFloat</text>
</a>
</g>
</g>
<!-- Node1&#45;&gt;Node4 -->
<g id="edge13_Node000001_Node000004" class="edge">
<title>Node1&#45;&gt;Node4</title>
<g id="a_edge13_Node000001_Node000004"><a xlink:title=" ">
<path fill="none" stroke="#63b8ff" d="M165.41,-151.62C231.07,-155.72 323.18,-161.48 391.39,-165.74"/>
<polygon fill="#63b8ff" stroke="#63b8ff" points="391.5,-169.26 401.7,-166.39 391.94,-162.27 391.5,-169.26"/>
</a>
</g>
</g>
<!-- Node5 -->
<g id="Node000005" class="node">
<title>Node5</title>
<g id="a_Node000005"><a xlink:href="classEditor_1_1TrackPropertiesWindow.html#a1e9ff69fe776ad12bc72f4c7bac8539a" target="_top" xlink:title=" ">
<polygon fill="white" stroke="#666666" points="366,-118.5 201,-118.5 201,-88.5 366,-88.5 366,-118.5"/>
<text text-anchor="start" x="209" y="-106.5" font-family="Helvetica,sans-Serif" font-size="10.00">Editor::TrackPropertiesWindow</text>
<text text-anchor="middle" x="283.5" y="-95.5" font-family="Helvetica,sans-Serif" font-size="10.00">::DrawMusic</text>
</a>
</g>
</g>
<!-- Node1&#45;&gt;Node5 -->
<g id="edge4_Node000001_Node000005" class="edge">
<title>Node1&#45;&gt;Node5</title>
<g id="a_edge4_Node000001_Node000005"><a xlink:title=" ">
<path fill="none" stroke="#63b8ff" d="M153.1,-131.46C169.16,-127.99 186.36,-124.27 202.81,-120.72"/>
<polygon fill="#63b8ff" stroke="#63b8ff" points="203.9,-124.06 212.94,-118.53 202.43,-117.22 203.9,-124.06"/>
</a>
</g>
</g>
<!-- Node12 -->
<g id="Node000012" class="node">
<title>Node12</title>
<g id="a_Node000012"><a xlink:href="classEditor_1_1TrackPropertiesWindow.html#a4b4fbf010ca458a4218eaf5f2b363aa2" target="_top" xlink:title=" ">
<polygon fill="white" stroke="#666666" points="366,-70.5 201,-70.5 201,-40.5 366,-40.5 366,-70.5"/>
<text text-anchor="start" x="209" y="-58.5" font-family="Helvetica,sans-Serif" font-size="10.00">Editor::TrackPropertiesWindow</text>
<text text-anchor="middle" x="283.5" y="-47.5" font-family="Helvetica,sans-Serif" font-size="10.00">::DrawTourCamera</text>
</a>
</g>
</g>
<!-- Node1&#45;&gt;Node12 -->
<g id="edge11_Node000001_Node000012" class="edge">
<title>Node1&#45;&gt;Node12</title>
<g id="a_edge11_Node000001_Node000012"><a xlink:title=" ">
<path fill="none" stroke="#63b8ff" d="M106.53,-131.23C129.64,-116.42 166.64,-94.12 201,-79.5 205.63,-77.53 210.48,-75.66 215.4,-73.89"/>
<polygon fill="#63b8ff" stroke="#63b8ff" points="216.58,-77.19 224.91,-70.64 214.32,-70.56 216.58,-77.19"/>
</a>
</g>
</g>
<!-- Node2&#45;&gt;Node3 -->
<g id="edge2_Node000002_Node000003" class="edge">
<title>Node2&#45;&gt;Node3</title>
<g id="a_edge2_Node000002_Node000003"><a xlink:title=" ">
<path fill="none" stroke="#63b8ff" d="M363.15,-204.52C373.52,-206.5 384.21,-208.54 394.74,-210.55"/>
<polygon fill="#63b8ff" stroke="#63b8ff" points="394.29,-214.03 404.77,-212.47 395.6,-207.15 394.29,-214.03"/>
</a>
</g>
</g>
<!-- Node2&#45;&gt;Node4 -->
<g id="edge3_Node000002_Node000004" class="edge">
<title>Node2&#45;&gt;Node4</title>
<g id="a_edge3_Node000002_Node000004"><a xlink:title=" ">
<path fill="none" stroke="#63b8ff" d="M366.02,-182.13C374.5,-181.36 383.17,-180.58 391.76,-179.8"/>
<polygon fill="#63b8ff" stroke="#63b8ff" points="392.15,-183.28 401.79,-178.89 391.51,-176.31 392.15,-183.28"/>
</a>
</g>
</g>
<!-- Node6 -->
<g id="Node000006" class="node">
<title>Node6</title>
<g id="a_Node000006"><a xlink:href="classEditor_1_1TrackPropertiesWindow.html#aa28b9e2a87228cc4f182ccc54790cc70" target="_top" xlink:title=" ">
<polygon fill="white" stroke="#666666" points="567,-122.5 402,-122.5 402,-92.5 567,-92.5 567,-122.5"/>
<text text-anchor="start" x="410" y="-110.5" font-family="Helvetica,sans-Serif" font-size="10.00">Editor::TrackPropertiesWindow</text>
<text text-anchor="middle" x="484.5" y="-99.5" font-family="Helvetica,sans-Serif" font-size="10.00">::MusicSeqToString</text>
</a>
</g>
</g>
<!-- Node5&#45;&gt;Node6 -->
<g id="edge5_Node000005_Node000006" class="edge">
<title>Node5&#45;&gt;Node6</title>
<g id="a_edge5_Node000005_Node000006"><a xlink:title=" ">
<path fill="none" stroke="#63b8ff" d="M366.02,-105.14C374.5,-105.31 383.17,-105.48 391.76,-105.66"/>
<polygon fill="#63b8ff" stroke="#63b8ff" points="391.72,-109.16 401.79,-105.86 391.86,-102.16 391.72,-109.16"/>
</a>
</g>
</g>
<!-- Node7 -->
<g id="Node000007" class="node">
<title>Node7</title>
<g id="a_Node000007"><a xlink:href="external_8c.html#a6584dbe6b07d52e25d5ca892468153a5" target="_top" xlink:title=" ">
<polygon fill="white" stroke="#666666" points="529,-74 440,-74 440,-55 529,-55 529,-74"/>
<text text-anchor="middle" x="484.5" y="-62" font-family="Helvetica,sans-Serif" font-size="10.00">play_sequence</text>
</a>
</g>
</g>
<!-- Node5&#45;&gt;Node7 -->
<g id="edge6_Node000005_Node000007" class="edge">
<title>Node5&#45;&gt;Node7</title>
<g id="a_edge6_Node000005_Node000007"><a xlink:title=" ">
<path fill="none" stroke="#63b8ff" d="M361.15,-88.48C384.11,-83.98 408.79,-79.14 429.92,-75"/>
<polygon fill="#63b8ff" stroke="#63b8ff" points="430.85,-78.39 439.99,-73.03 429.5,-71.52 430.85,-78.39"/>
</a>
</g>
</g>
<!-- Node8 -->
<g id="Node000008" class="node">
<title>Node8</title>
<g id="a_Node000008"><a xlink:href="external_8c.html#ac48b7cbfcaa7737f892877ead85e4ba7" target="_top" xlink:title=" ">
<polygon fill="white" stroke="#666666" points="710,-130 618,-130 618,-111 710,-111 710,-130"/>
<text text-anchor="middle" x="664" y="-118" font-family="Helvetica,sans-Serif" font-size="10.00">func_800C3448</text>
</a>
</g>
</g>
<!-- Node7&#45;&gt;Node8 -->
<g id="edge7_Node000007_Node000008" class="edge">
<title>Node7&#45;&gt;Node8</title>
<g id="a_edge7_Node000007_Node000008"><a xlink:title=" ">
<path fill="none" stroke="#63b8ff" d="M529.25,-72.53C541.65,-75.39 555.02,-79.03 567,-83.5 583.95,-89.83 586.26,-95.65 603,-102.5 607.54,-104.36 612.35,-106.12 617.18,-107.77"/>
<polygon fill="#63b8ff" stroke="#63b8ff" points="616.48,-111.22 627.07,-110.96 618.63,-104.56 616.48,-111.22"/>
</a>
</g>
</g>
<!-- Node9 -->
<g id="Node000009" class="node">
<title>Node9</title>
<g id="a_Node000009"><a xlink:href="HMAS_8cpp.html#a943f713ceca4307e6e1bb48253c6ad6c" target="_top" xlink:title=" ">
<polygon fill="white" stroke="#666666" points="725,-93 603,-93 603,-74 725,-74 725,-93"/>
<text text-anchor="middle" x="664" y="-81" font-family="Helvetica,sans-Serif" font-size="10.00">HMAS_IsIDRegistered</text>
</a>
</g>
</g>
<!-- Node7&#45;&gt;Node9 -->
<g id="edge8_Node000007_Node000009" class="edge">
<title>Node7&#45;&gt;Node9</title>
<g id="a_edge8_Node000007_Node000009"><a xlink:title=" ">
<path fill="none" stroke="#63b8ff" d="M529.38,-69.2C548.52,-71.25 571.44,-73.7 592.85,-75.99"/>
<polygon fill="#63b8ff" stroke="#63b8ff" points="592.58,-79.48 602.89,-77.07 593.32,-72.52 592.58,-79.48"/>
</a>
</g>
</g>
<!-- Node10 -->
<g id="Node000010" class="node">
<title>Node10</title>
<g id="a_Node000010"><a xlink:href="HMAS_8cpp.html#a704c0426d4f7027c277b28346062dff3" target="_top" xlink:title=" ">
<polygon fill="white" stroke="#666666" points="700,-56 628,-56 628,-37 700,-37 700,-56"/>
<text text-anchor="middle" x="664" y="-44" font-family="Helvetica,sans-Serif" font-size="10.00">HMAS_Play</text>
</a>
</g>
</g>
<!-- Node7&#45;&gt;Node10 -->
<g id="edge9_Node000007_Node000010" class="edge">
<title>Node7&#45;&gt;Node10</title>
<g id="a_edge9_Node000007_Node000010"><a xlink:title=" ">
<path fill="none" stroke="#63b8ff" d="M529.38,-60.05C556.32,-57.32 590.76,-53.83 617.92,-51.07"/>
<polygon fill="#63b8ff" stroke="#63b8ff" points="618.35,-54.55 627.94,-50.05 617.64,-47.58 618.35,-54.55"/>
</a>
</g>
</g>
<!-- Node11 -->
<g id="Node000011" class="node">
<title>Node11</title>
<g id="a_Node000011"><a xlink:href="HMAS_8cpp.html#aa651a0e94efa3ddb0a63e1b4233c0aab" target="_top" xlink:title=" ">
<polygon fill="white" stroke="#666666" points="700.5,-19 627.5,-19 627.5,0 700.5,0 700.5,-19"/>
<text text-anchor="middle" x="664" y="-7" font-family="Helvetica,sans-Serif" font-size="10.00">HMAS_Stop</text>
</a>
</g>
</g>
<!-- Node7&#45;&gt;Node11 -->
<g id="edge10_Node000007_Node000011" class="edge">
<title>Node7&#45;&gt;Node11</title>
<g id="a_edge10_Node000007_Node000011"><a xlink:title=" ">
<path fill="none" stroke="#63b8ff" d="M515.41,-54.96C539.13,-47.42 573.15,-36.68 603,-27.5 608.79,-25.72 614.91,-23.86 620.93,-22.04"/>
<polygon fill="#63b8ff" stroke="#63b8ff" points="622.34,-25.27 630.9,-19.04 620.32,-18.57 622.34,-25.27"/>
</a>
</g>
</g>
</g>
</svg>

<g id="navigator" transform="translate(0 0)" fill="#404254">
  <rect fill="#f2f5e9" fill-opacity="0.5" stroke="#606060" stroke-width=".5" x="0" y="0" width="60" height="60"/>
  <use id="zoomplus" xlink:href="#zoomPlus" x="17" y="9" onmousedown="handleZoom(evt,'in')"/>
  <use id="zoomminus" xlink:href="#zoomMin" x="42" y="9" onmousedown="handleZoom(evt,'out')"/>
  <use id="reset" xlink:href="#resetDef" x="30" y="36" onmousedown="handleReset()"/>
   <use id="arrowup" xlink:href="#arrowUp" x="0" y="0" onmousedown="handlePan(0,-1)"/>
  <use id="arrowright" xlink:href="#arrowRight" x="0" y="0" onmousedown="handlePan(1,0)"/>
  <use id="arrowdown" xlink:href="#arrowDown" x="0" y="0" onmousedown="handlePan(0,1)"/>
  <use id="arrowleft" xlink:href="#arrowLeft" x="0" y="0" onmousedown="handlePan(-1,0)"/>
</g>
<svg viewBox="0 0 15 15" width="100%" height="30px" preserveAspectRatio="xMaxYMin meet">
 <g id="arrow_out" transform="scale(0.3 0.3)">
  <a xlink:href="classEditor_1_1TrackPropertiesWindow_a4c8136ada1d99519401a32e413399f31_cgraph_org.svg" target="_base">
   <rect id="button" ry="5" rx="5" y="6" x="6" height="38" width="38"
        fill="#f2f5e9" fill-opacity="0.5" stroke="#606060" stroke-width="1.0"/>
   <path id="arrow"
     d="M 11.500037,31.436501 C 11.940474,20.09759 22.043105,11.32322 32.158766,21.979434 L 37.068811,17.246167 C 37.068811,17.246167 37.088388,32 37.088388,32 L 22.160133,31.978069 C 22.160133,31.978069 26.997745,27.140456 26.997745,27.140456 C 18.528582,18.264221 13.291696,25.230495 11.500037,31.436501 z"
     style="fill:#404040;"/>
  </a>
 </g>
</svg>

<style type='text/css'>
<![CDATA[
[data-mouse-over-selected='false'] { opacity: 0.7; }
[data-mouse-over-selected='true']  { opacity: 1.0; }
]]>
</style>
<script type="application/ecmascript"><![CDATA[
document.addEventListener('DOMContentLoaded', (event) => {
  highlightEdges();
  highlightAdjacentNodes();
});
]]></script>
</svg>
