<?xml version="1.0" encoding="UTF-8" standalone="no"?>
<!DOCTYPE svg PUBLIC "-//W3C//DTD SVG 1.1//EN"
 "http://www.w3.org/Graphics/SVG/1.1/DTD/svg11.dtd">
<!-- Generated by graphviz version 2.43.0 (0)
 -->
<!-- Title: TestTrack::BeginPlay Pages: 1 -->
<!--zoomable 667 -->

<svg id="main" version="1.1" xmlns="http://www.w3.org/2000/svg" xmlns:xlink="http://www.w3.org/1999/xlink" xml:space="preserve" onload="init(evt)">

<style type="text/css"><![CDATA[
.node, .edge {opacity: 0.7;}
.node.selected, .edge.selected {opacity: 1;}
.edge:hover path { stroke: red; }
.edge:hover polygon { stroke: red; fill: red; }
]]></style>

<defs>
  <circle id="rim" cx="0" cy="0" r="7"/>
  <circle id="rim2" cx="0" cy="0" r="3.5"/>
  <g id="zoomPlus">
    <use xlink:href="#rim" fill="#404040"><set attributeName="fill" to="#808080" begin="zoomplus.mouseover" end="zoomplus.mouseout"/></use>
    <path d="M-4,0h8M0,-4v8" fill="none" stroke="white" stroke-width="1.5" pointer-events="none"/>
  </g>
  <g id="zoomMin">
    <use xlink:href="#rim" fill="#404040"><set attributeName="fill" to="#808080" begin="zoomminus.mouseover" end="zoomminus.mouseout"/></use>
    <path d="M-4,0h8" fill="none" stroke="white" stroke-width="1.5" pointer-events="none"/>
  </g>
  <g id="arrowUp" transform="translate(30 24)">
    <use xlink:href="#rim"/>
    <path pointer-events="none" fill="none" stroke="white" stroke-width="1.5" d="M0,-3.0v7 M-2.5,-0.5L0,-3.0L2.5,-0.5"/>
  </g>
  <g id="arrowRight" transform="rotate(90) translate(36 -43)">
    <use xlink:href="#rim"/>
    <path pointer-events="none" fill="none" stroke="white" stroke-width="1.5" d="M0,-3.0v7 M-2.5,-0.5L0,-3.0L2.5,-0.5"/>
  </g>
  <g id="arrowDown" transform="rotate(180) translate(-30 -48)">
    <use xlink:href="#rim"/>
    <path pointer-events="none" fill="none" stroke="white" stroke-width="1.5" d="M0,-3.0v7 M-2.5,-0.5L0,-3.0L2.5,-0.5"/>
  </g>
  <g id="arrowLeft" transform="rotate(270) translate(-36 17)">
    <use xlink:href="#rim"/>
    <path pointer-events="none" fill="none" stroke="white" stroke-width="1.5" d="M0,-3.0v7 M-2.5,-0.5L0,-3.0L2.5,-0.5"/>
  </g>
  <g id="resetDef">
    <use xlink:href="#rim2" fill="#404040"><set attributeName="fill" to="#808080" begin="reset.mouseover" end="reset.mouseout"/></use>
  </g>
</defs>
<script type="application/ecmascript">
var viewWidth = 1751;
var viewHeight = 667;
var sectionId = 'dynsection-3';
</script>
<script type="application/ecmascript" xlink:href="svg.min.js"/>
<svg id="graph" class="graph">
<g id="viewport">
<title>TestTrack::BeginPlay</title>
<!-- Node1 -->
<g id="Node000001" class="node">
<title>Node1</title>
<g id="a_Node000001"><a xlink:title=" ">
<polygon fill="#999999" stroke="#666666" points="116,-263.5 0,-263.5 0,-244.5 116,-244.5 116,-263.5"/>
<text text-anchor="middle" x="58" y="-251.5" font-family="Helvetica,sans-Serif" font-size="10.00">TestTrack::BeginPlay</text>
</a>
</g>
</g>
<!-- Node2 -->
<g id="Node000002" class="node">
<title>Node2</title>
<g id="a_Node000002"><a xlink:href="actors_8c.html#a91fb2e4e37e7c72fea918fe2c1bb4eaf" target="_top" xlink:title=" ">
<polygon fill="white" stroke="#666666" points="455,-285.5 315,-285.5 315,-266.5 455,-266.5 455,-285.5"/>
<text text-anchor="middle" x="385" y="-273.5" font-family="Helvetica,sans-Serif" font-size="10.00">add_actor_to_empty_slot</text>
</a>
</g>
</g>
<!-- Node1&#45;&gt;Node2 -->
<g id="edge1_Node000001_Node000002" class="edge">
<title>Node1&#45;&gt;Node2</title>
<g id="a_edge1_Node000001_Node000002"><a xlink:title=" ">
<path fill="none" stroke="#63b8ff" d="M116.36,-257.88C168.62,-261.42 246.3,-266.68 304.53,-270.62"/>
<polygon fill="#63b8ff" stroke="#63b8ff" points="304.59,-274.13 314.8,-271.32 305.06,-267.15 304.59,-274.13"/>
</a>
</g>
</g>
<!-- Node22 -->
<g id="Node000022" class="node">
<title>Node22</title>
<g id="a_Node000022"><a xlink:href="math__util_8c.html#a79fd07a0971ec96a3ff0801963a2fa7f" target="_top" xlink:title=" ">
<polygon fill="white" stroke="#666666" points="947,-85.5 883,-85.5 883,-66.5 947,-66.5 947,-85.5"/>
<text text-anchor="middle" x="915" y="-73.5" font-family="Helvetica,sans-Serif" font-size="10.00">vec3f_set</text>
</a>
</g>
</g>
<!-- Node1&#45;&gt;Node22 -->
<g id="edge56_Node000001_Node000022" class="edge">
<title>Node1&#45;&gt;Node22</title>
<g id="a_edge56_Node000001_Node000022"><a xlink:title=" ">
<path fill="none" stroke="#63b8ff" d="M62.15,-244.32C71.48,-217.07 101.54,-138.82 152,-95 236.13,-21.94 272.58,0 384,0 384,0 384,0 561,0 670.87,0 699.72,-5.14 806,-33 833.59,-40.23 863.64,-52.59 885.02,-62.2"/>
<polygon fill="#63b8ff" stroke="#63b8ff" points="883.65,-65.42 894.19,-66.4 886.56,-59.06 883.65,-65.42"/>
</a>
</g>
</g>
<!-- Node28 -->
<g id="Node000028" class="node">
<title>Node28</title>
<g id="a_Node000028"><a xlink:href="classOBombKart.html#a9fa11c43dd1885221b160bd688eceff0" target="_top" xlink:title=" ">
<polygon fill="white" stroke="#666666" points="271,-417.5 160,-417.5 160,-398.5 271,-398.5 271,-417.5"/>
<text text-anchor="middle" x="215.5" y="-405.5" font-family="Helvetica,sans-Serif" font-size="10.00">OBombKart::Spawn</text>
</a>
</g>
</g>
<!-- Node1&#45;&gt;Node28 -->
<g id="edge27_Node000001_Node000028" class="edge">
<title>Node1&#45;&gt;Node28</title>
<g id="a_edge27_Node000001_Node000028"><a xlink:title=" ">
<path fill="none" stroke="#63b8ff" d="M68.73,-263.63C94.47,-289.13 164.64,-358.62 197.33,-390.99"/>
<polygon fill="#63b8ff" stroke="#63b8ff" points="195.21,-393.82 204.78,-398.37 200.13,-388.85 195.21,-393.82"/>
</a>
</g>
</g>
<!-- Node32 -->
<g id="Node000032" class="node">
<title>Node32</title>
<g id="a_Node000032"><a xlink:href="classOTrophy.html#a3348e837d399b9544160c790a99c94ac" target="_top" xlink:title=" ">
<polygon fill="white" stroke="#666666" points="262.5,-501.5 168.5,-501.5 168.5,-482.5 262.5,-482.5 262.5,-501.5"/>
<text text-anchor="middle" x="215.5" y="-489.5" font-family="Helvetica,sans-Serif" font-size="10.00">OTrophy::Spawn</text>
</a>
</g>
</g>
<!-- Node1&#45;&gt;Node32 -->
<g id="edge32_Node000001_Node000032" class="edge">
<title>Node1&#45;&gt;Node32</title>
<g id="a_edge32_Node000001_Node000032"><a xlink:title=" ">
<path fill="none" stroke="#63b8ff" d="M63.01,-263.53C74.61,-290.54 110.04,-369.39 152,-427 164.98,-444.81 182.58,-462.69 195.8,-475.18"/>
<polygon fill="#63b8ff" stroke="#63b8ff" points="193.67,-477.98 203.38,-482.21 198.43,-472.84 193.67,-477.98"/>
</a>
</g>
</g>
<!-- Node39 -->
<g id="Node000039" class="node">
<title>Node39</title>
<g id="a_Node000039"><a xlink:href="actors_8c.html#ac586c2534258d0f108e15fd88751b760" target="_top" xlink:title=" ">
<polygon fill="white" stroke="#666666" points="279,-244.5 152,-244.5 152,-225.5 279,-225.5 279,-244.5"/>
<text text-anchor="middle" x="215.5" y="-232.5" font-family="Helvetica,sans-Serif" font-size="10.00">spawn_all_item_boxes</text>
</a>
</g>
</g>
<!-- Node1&#45;&gt;Node39 -->
<g id="edge43_Node000001_Node000039" class="edge">
<title>Node1&#45;&gt;Node39</title>
<g id="a_edge43_Node000001_Node000039"><a xlink:title=" ">
<path fill="none" stroke="#63b8ff" d="M116.02,-247.03C124.43,-246.01 133.19,-244.94 141.86,-243.88"/>
<polygon fill="#63b8ff" stroke="#63b8ff" points="142.48,-247.33 151.98,-242.64 141.63,-240.38 142.48,-247.33"/>
</a>
</g>
</g>
<!-- Node44 -->
<g id="Node000044" class="node">
<title>Node44</title>
<g id="a_Node000044"><a xlink:href="falling__rock_2update_8inc_8c.html#ad18c14dd8d45f1315a6ed69f8ba9cdd3" target="_top" xlink:title=" ">
<polygon fill="white" stroke="#666666" points="273.5,-123.5 157.5,-123.5 157.5,-104.5 273.5,-104.5 273.5,-123.5"/>
<text text-anchor="middle" x="215.5" y="-111.5" font-family="Helvetica,sans-Serif" font-size="10.00">spawn_falling_rocks</text>
</a>
</g>
</g>
<!-- Node1&#45;&gt;Node44 -->
<g id="edge51_Node000001_Node000044" class="edge">
<title>Node1&#45;&gt;Node44</title>
<g id="a_edge51_Node000001_Node000044"><a xlink:title=" ">
<path fill="none" stroke="#63b8ff" d="M69.69,-244.38C95.88,-220.8 163.49,-159.93 196.21,-130.46"/>
<polygon fill="#63b8ff" stroke="#63b8ff" points="198.65,-132.98 203.74,-123.69 193.96,-127.78 198.65,-132.98"/>
</a>
</g>
</g>
<!-- Node3 -->
<g id="Node000003" class="node">
<title>Node3</title>
<g id="a_Node000003"><a xlink:href="actors_8c.html#a39c023177b5a7686cdd1fc65b8b953e1" target="_top" xlink:title=" ">
<polygon fill="white" stroke="#666666" points="591,-396.5 529,-396.5 529,-377.5 591,-377.5 591,-396.5"/>
<text text-anchor="middle" x="560" y="-384.5" font-family="Helvetica,sans-Serif" font-size="10.00">actor_init</text>
</a>
</g>
</g>
<!-- Node2&#45;&gt;Node3 -->
<g id="edge2_Node000002_Node000003" class="edge">
<title>Node2&#45;&gt;Node3</title>
<g id="a_edge2_Node000002_Node000003"><a xlink:title=" ">
<path fill="none" stroke="#63b8ff" d="M393.91,-285.51C410.13,-304.35 449.14,-346.58 491,-369 499.63,-373.62 509.52,-377.12 519.04,-379.73"/>
<polygon fill="#63b8ff" stroke="#63b8ff" points="518.2,-383.13 528.75,-382.15 519.9,-376.34 518.2,-383.13"/>
</a>
</g>
</g>
<!-- Node25 -->
<g id="Node000025" class="node">
<title>Node25</title>
<g id="a_Node000025"><a xlink:href="Game_8cpp.html#acea5cfd9ab22f745bd6627869b95a62e" target="_top" xlink:title=" ">
<polygon fill="white" stroke="#666666" points="616,-322.5 504,-322.5 504,-303.5 616,-303.5 616,-322.5"/>
<text text-anchor="middle" x="560" y="-310.5" font-family="Helvetica,sans-Serif" font-size="10.00">CM_ActorBeginPlay</text>
</a>
</g>
</g>
<!-- Node2&#45;&gt;Node25 -->
<g id="edge24_Node000002_Node000025" class="edge">
<title>Node2&#45;&gt;Node25</title>
<g id="a_edge24_Node000002_Node000025"><a xlink:title=" ">
<path fill="none" stroke="#63b8ff" d="M430.55,-285.53C453.07,-290.34 480.58,-296.23 504.36,-301.31"/>
<polygon fill="#63b8ff" stroke="#63b8ff" points="503.79,-304.77 514.3,-303.44 505.25,-297.93 503.79,-304.77"/>
</a>
</g>
</g>
<!-- Node26 -->
<g id="Node000026" class="node">
<title>Node26</title>
<g id="a_Node000026"><a xlink:href="Game_8cpp.html#a42f23077aaa52cb3ea5c7803b7dd6816" target="_top" xlink:title=" ">
<polygon fill="white" stroke="#666666" points="613,-285.5 507,-285.5 507,-266.5 613,-266.5 613,-285.5"/>
<text text-anchor="middle" x="560" y="-273.5" font-family="Helvetica,sans-Serif" font-size="10.00">CM_AddBaseActor</text>
</a>
</g>
</g>
<!-- Node2&#45;&gt;Node26 -->
<g id="edge25_Node000002_Node000026" class="edge">
<title>Node2&#45;&gt;Node26</title>
<g id="a_edge25_Node000002_Node000026"><a xlink:title=" ">
<path fill="none" stroke="#63b8ff" d="M455.37,-276C469.08,-276 483.38,-276 496.84,-276"/>
<polygon fill="#63b8ff" stroke="#63b8ff" points="496.93,-279.5 506.93,-276 496.93,-272.5 496.93,-279.5"/>
</a>
</g>
</g>
<!-- Node27 -->
<g id="Node000027" class="node">
<title>Node27</title>
<g id="a_Node000027"><a xlink:href="Game_8cpp.html#a0841ffe9a66e95aca42438b9d8ffc3d3" target="_top" xlink:title=" ">
<polygon fill="white" stroke="#666666" points="610.5,-359.5 509.5,-359.5 509.5,-340.5 610.5,-340.5 610.5,-359.5"/>
<text text-anchor="middle" x="560" y="-347.5" font-family="Helvetica,sans-Serif" font-size="10.00">CM_GetActorSize</text>
</a>
</g>
</g>
<!-- Node2&#45;&gt;Node27 -->
<g id="edge26_Node000002_Node000027" class="edge">
<title>Node2&#45;&gt;Node27</title>
<g id="a_edge26_Node000002_Node000027"><a xlink:title=" ">
<path fill="none" stroke="#63b8ff" d="M401.87,-285.66C422.01,-297.61 458.1,-317.95 491,-331 496.91,-333.34 503.21,-335.52 509.51,-337.49"/>
<polygon fill="#63b8ff" stroke="#63b8ff" points="508.76,-340.92 519.34,-340.43 510.76,-334.21 508.76,-340.92"/>
</a>
</g>
</g>
<!-- Node4 -->
<g id="Node000004" class="node">
<title>Node4</title>
<g id="a_Node000004"><a xlink:href="collision_8c.html#a37aa55b3768d001533ad75e7f1b8388a" target="_top" xlink:title=" ">
<polygon fill="white" stroke="#666666" points="806,-472.5 665,-472.5 665,-453.5 806,-453.5 806,-472.5"/>
<text text-anchor="middle" x="735.5" y="-460.5" font-family="Helvetica,sans-Serif" font-size="10.00">check_bounding_collision</text>
</a>
</g>
</g>
<!-- Node3&#45;&gt;Node4 -->
<g id="edge3_Node000003_Node000004" class="edge">
<title>Node3&#45;&gt;Node4</title>
<g id="a_edge3_Node000003_Node000004"><a xlink:title=" ">
<path fill="none" stroke="#63b8ff" d="M582.97,-396.63C613.48,-409.99 668.81,-434.23 703.5,-449.42"/>
<polygon fill="#63b8ff" stroke="#63b8ff" points="702.14,-452.65 712.7,-453.45 704.95,-446.23 702.14,-452.65"/>
</a>
</g>
</g>
<!-- Node8 -->
<g id="Node000008" class="node">
<title>Node8</title>
<g id="a_Node000008"><a xlink:href="actors_8c.html#a1a9bccb586242555a9123ebd4ab70f2a" target="_top" xlink:title=" ">
<polygon fill="white" stroke="#666666" points="801.5,-397 669.5,-397 669.5,-367 801.5,-367 801.5,-397"/>
<text text-anchor="start" x="677.5" y="-385" font-family="Helvetica,sans-Serif" font-size="10.00">cleanup_red_and_green</text>
<text text-anchor="middle" x="735.5" y="-374" font-family="Helvetica,sans-Serif" font-size="10.00">_shells</text>
</a>
</g>
</g>
<!-- Node3&#45;&gt;Node8 -->
<g id="edge7_Node000003_Node000008" class="edge">
<title>Node3&#45;&gt;Node8</title>
<g id="a_edge7_Node000003_Node000008"><a xlink:title=" ">
<path fill="none" stroke="#63b8ff" d="M591.22,-386.13C610.08,-385.59 635.25,-384.86 659.23,-384.17"/>
<polygon fill="#63b8ff" stroke="#63b8ff" points="659.52,-387.66 669.42,-383.88 659.32,-380.67 659.52,-387.66"/>
</a>
</g>
</g>
<!-- Node21 -->
<g id="Node000021" class="node">
<title>Node21</title>
<g id="a_Node000021"><a xlink:href="collision_8c.html#ad72fef3ffe32191d73b1822f512ebf3f" target="_top" xlink:title=" ">
<polygon fill="white" stroke="#666666" points="783,-123.5 688,-123.5 688,-104.5 783,-104.5 783,-123.5"/>
<text text-anchor="middle" x="735.5" y="-111.5" font-family="Helvetica,sans-Serif" font-size="10.00">func_802AAAAC</text>
</a>
</g>
</g>
<!-- Node3&#45;&gt;Node21 -->
<g id="edge20_Node000003_Node000021" class="edge">
<title>Node3&#45;&gt;Node21</title>
<g id="a_edge20_Node000003_Node000021"><a xlink:title=" ">
<path fill="none" stroke="#63b8ff" d="M591.23,-384.93C604.15,-382.66 618.61,-378.09 629,-369 630.2,-367.95 702.57,-191.79 726.74,-132.91"/>
<polygon fill="#63b8ff" stroke="#63b8ff" points="729.99,-134.22 730.55,-123.64 723.51,-131.56 729.99,-134.22"/>
</a>
</g>
</g>
<!-- Node23 -->
<g id="Node000023" class="node">
<title>Node23</title>
<g id="a_Node000023"><a xlink:href="math__util_8c.html#af7b470ed76fce07b8042a47c96e5690b" target="_top" xlink:title=" ">
<polygon fill="white" stroke="#666666" points="789,-348.5 682,-348.5 682,-329.5 789,-329.5 789,-348.5"/>
<text text-anchor="middle" x="735.5" y="-336.5" font-family="Helvetica,sans-Serif" font-size="10.00">vec3f_copy_return</text>
</a>
</g>
</g>
<!-- Node3&#45;&gt;Node23 -->
<g id="edge22_Node000003_Node000023" class="edge">
<title>Node3&#45;&gt;Node23</title>
<g id="a_edge22_Node000003_Node000023"><a xlink:title=" ">
<path fill="none" stroke="#63b8ff" d="M591.19,-379.27C603.01,-376.17 616.67,-372.51 629,-369 645.09,-364.41 648.93,-362.65 665,-358 672.69,-355.78 680.87,-353.48 688.83,-351.28"/>
<polygon fill="#63b8ff" stroke="#63b8ff" points="690.01,-354.58 698.73,-348.56 688.16,-347.83 690.01,-354.58"/>
</a>
</g>
</g>
<!-- Node24 -->
<g id="Node000024" class="node">
<title>Node24</title>
<g id="a_Node000024"><a xlink:href="math__util_8c.html#a0e270ee67600c8c9c2f140c647d008a1" target="_top" xlink:title=" ">
<polygon fill="white" stroke="#666666" points="772.5,-311.5 698.5,-311.5 698.5,-292.5 772.5,-292.5 772.5,-311.5"/>
<text text-anchor="middle" x="735.5" y="-299.5" font-family="Helvetica,sans-Serif" font-size="10.00">vec3s_copy</text>
</a>
</g>
</g>
<!-- Node3&#45;&gt;Node24 -->
<g id="edge23_Node000003_Node000024" class="edge">
<title>Node3&#45;&gt;Node24</title>
<g id="a_edge23_Node000003_Node000024"><a xlink:title=" ">
<path fill="none" stroke="#63b8ff" d="M591.29,-383.49C603.78,-380.95 617.9,-376.56 629,-369 651.33,-353.79 642.62,-335.15 665,-320 672.05,-315.23 680.28,-311.72 688.56,-309.14"/>
<polygon fill="#63b8ff" stroke="#63b8ff" points="689.5,-312.51 698.24,-306.52 687.68,-305.76 689.5,-312.51"/>
</a>
</g>
</g>
<!-- Node5 -->
<g id="Node000005" class="node">
<title>Node5</title>
<g id="a_Node000005"><a xlink:href="collision_8c.html#ac312bf382cb40752f6b790a99e7cdcb6" target="_top" xlink:title=" ">
<polygon fill="white" stroke="#666666" points="969,-539.5 861,-539.5 861,-520.5 969,-520.5 969,-539.5"/>
<text text-anchor="middle" x="915" y="-527.5" font-family="Helvetica,sans-Serif" font-size="10.00">check_collision_yx</text>
</a>
</g>
</g>
<!-- Node4&#45;&gt;Node5 -->
<g id="edge4_Node000004_Node000005" class="edge">
<title>Node4&#45;&gt;Node5</title>
<g id="a_edge4_Node000004_Node000005"><a xlink:title=" ">
<path fill="none" stroke="#63b8ff" d="M754.36,-472.57C775,-483.33 810.2,-500.76 842,-512 847.9,-514.09 854.15,-516.03 860.41,-517.81"/>
<polygon fill="#63b8ff" stroke="#63b8ff" points="859.63,-521.22 870.2,-520.46 861.47,-514.47 859.63,-521.22"/>
</a>
</g>
</g>
<!-- Node6 -->
<g id="Node000006" class="node">
<title>Node6</title>
<g id="a_Node000006"><a xlink:href="collision_8c.html#a4b48832a90e984536a0635a016ec4f28" target="_top" xlink:title=" ">
<polygon fill="white" stroke="#666666" points="968.5,-502.5 861.5,-502.5 861.5,-483.5 968.5,-483.5 968.5,-502.5"/>
<text text-anchor="middle" x="915" y="-490.5" font-family="Helvetica,sans-Serif" font-size="10.00">check_collision_zx</text>
</a>
</g>
</g>
<!-- Node4&#45;&gt;Node6 -->
<g id="edge5_Node000004_Node000006" class="edge">
<title>Node4&#45;&gt;Node6</title>
<g id="a_edge5_Node000004_Node000006"><a xlink:title=" ">
<path fill="none" stroke="#63b8ff" d="M793.15,-472.57C811.64,-475.7 832.28,-479.19 851.19,-482.38"/>
<polygon fill="#63b8ff" stroke="#63b8ff" points="850.76,-485.86 861.2,-484.08 851.93,-478.96 850.76,-485.86"/>
</a>
</g>
</g>
<!-- Node7 -->
<g id="Node000007" class="node">
<title>Node7</title>
<g id="a_Node000007"><a xlink:href="collision_8c.html#a21fef964ab48191a1c0341954ef27a40" target="_top" xlink:title=" ">
<polygon fill="white" stroke="#666666" points="968.5,-465.5 861.5,-465.5 861.5,-446.5 968.5,-446.5 968.5,-465.5"/>
<text text-anchor="middle" x="915" y="-453.5" font-family="Helvetica,sans-Serif" font-size="10.00">check_collision_zy</text>
</a>
</g>
</g>
<!-- Node4&#45;&gt;Node7 -->
<g id="edge6_Node000004_Node000007" class="edge">
<title>Node4&#45;&gt;Node7</title>
<g id="a_edge6_Node000004_Node000007"><a xlink:title=" ">
<path fill="none" stroke="#63b8ff" d="M806.14,-460.25C820.91,-459.67 836.43,-459.06 850.94,-458.49"/>
<polygon fill="#63b8ff" stroke="#63b8ff" points="851.45,-461.97 861.3,-458.08 851.17,-454.98 851.45,-461.97"/>
</a>
</g>
</g>
<!-- Node9 -->
<g id="Node000009" class="node">
<title>Node9</title>
<g id="a_Node000009"><a xlink:href="Game_8cpp.html#a693de7d8b89fe291aafea86bc64a0a2e" target="_top" xlink:title=" ">
<polygon fill="white" stroke="#666666" points="955,-428.5 875,-428.5 875,-409.5 955,-409.5 955,-428.5"/>
<text text-anchor="middle" x="915" y="-416.5" font-family="Helvetica,sans-Serif" font-size="10.00">CM_GetActor</text>
</a>
</g>
</g>
<!-- Node8&#45;&gt;Node9 -->
<g id="edge8_Node000008_Node000009" class="edge">
<title>Node8&#45;&gt;Node9</title>
<g id="a_edge8_Node000008_Node000009"><a xlink:title=" ">
<path fill="none" stroke="#63b8ff" d="M801.59,-395.57C822.57,-399.94 845.45,-404.71 865.06,-408.8"/>
<polygon fill="#63b8ff" stroke="#63b8ff" points="864.49,-412.25 874.99,-410.87 865.91,-405.4 864.49,-412.25"/>
</a>
</g>
</g>
<!-- Node10 -->
<g id="Node000010" class="node">
<title>Node10</title>
<g id="a_Node000010"><a xlink:href="code__80005FD0_8c.html#ad301b978cdd3c4cc190b10be050d51d8" target="_top" xlink:title=" ">
<polygon fill="white" stroke="#666666" points="988,-354 842,-354 842,-324 988,-324 988,-354"/>
<text text-anchor="start" x="850" y="-342" font-family="Helvetica,sans-Serif" font-size="10.00">delete_actor_in_unexpired</text>
<text text-anchor="middle" x="915" y="-331" font-family="Helvetica,sans-Serif" font-size="10.00">_actor_list</text>
</a>
</g>
</g>
<!-- Node8&#45;&gt;Node10 -->
<g id="edge9_Node000008_Node000010" class="edge">
<title>Node8&#45;&gt;Node10</title>
<g id="a_edge9_Node000008_Node000010"><a xlink:title=" ">
<path fill="none" stroke="#63b8ff" d="M798.58,-366.96C812.63,-363.56 827.67,-359.91 842.09,-356.42"/>
<polygon fill="#63b8ff" stroke="#63b8ff" points="843.06,-359.79 851.95,-354.03 841.41,-352.98 843.06,-359.79"/>
</a>
</g>
</g>
<!-- Node11 -->
<g id="Node000011" class="node">
<title>Node11</title>
<g id="a_Node000011"><a xlink:href="actors_8c.html#a694ec6ef7548b8618aeb35c038d3a9b9" target="_top" xlink:title=" ">
<polygon fill="white" stroke="#666666" points="956.5,-391.5 873.5,-391.5 873.5,-372.5 956.5,-372.5 956.5,-391.5"/>
<text text-anchor="middle" x="915" y="-379.5" font-family="Helvetica,sans-Serif" font-size="10.00">destroy_actor</text>
</a>
</g>
</g>
<!-- Node8&#45;&gt;Node11 -->
<g id="edge10_Node000008_Node000011" class="edge">
<title>Node8&#45;&gt;Node11</title>
<g id="a_edge10_Node000008_Node000011"><a xlink:title=" ">
<path fill="none" stroke="#63b8ff" d="M801.59,-382C821.97,-382 844.14,-382 863.37,-382"/>
<polygon fill="#63b8ff" stroke="#63b8ff" points="863.43,-385.5 873.43,-382 863.43,-378.5 863.43,-385.5"/>
</a>
</g>
</g>
<!-- Node12 -->
<g id="Node000012" class="node">
<title>Node12</title>
<g id="a_Node000012"><a xlink:href="actors_8c.html#a12dc3ccac4c7d8569eadac0af4fd6f9f" target="_top" xlink:title=" ">
<polygon fill="white" stroke="#666666" points="1182,-391.5 1024,-391.5 1024,-372.5 1182,-372.5 1182,-391.5"/>
<text text-anchor="middle" x="1103" y="-379.5" font-family="Helvetica,sans-Serif" font-size="10.00">play_sound_before_despawn</text>
</a>
</g>
</g>
<!-- Node11&#45;&gt;Node12 -->
<g id="edge11_Node000011_Node000012" class="edge">
<title>Node11&#45;&gt;Node12</title>
<g id="a_edge11_Node000011_Node000012"><a xlink:title=" ">
<path fill="none" stroke="#63b8ff" d="M956.82,-382C973.65,-382 993.86,-382 1013.77,-382"/>
<polygon fill="#63b8ff" stroke="#63b8ff" points="1013.82,-385.5 1023.82,-382 1013.82,-378.5 1013.82,-385.5"/>
</a>
</g>
</g>
<!-- Node13 -->
<g id="Node000013" class="node">
<title>Node13</title>
<g id="a_Node000013"><a xlink:href="external_8c.html#ae72057869772019e4464c87d4e16c682" target="_top" xlink:title=" ">
<polygon fill="white" stroke="#666666" points="1310,-391.5 1218,-391.5 1218,-372.5 1310,-372.5 1310,-391.5"/>
<text text-anchor="middle" x="1264" y="-379.5" font-family="Helvetica,sans-Serif" font-size="10.00">func_800C99E0</text>
</a>
</g>
</g>
<!-- Node12&#45;&gt;Node13 -->
<g id="edge12_Node000012_Node000013" class="edge">
<title>Node12&#45;&gt;Node13</title>
<g id="a_edge12_Node000012_Node000013"><a xlink:title=" ">
<path fill="none" stroke="#63b8ff" d="M1182.1,-382C1190.72,-382 1199.35,-382 1207.61,-382"/>
<polygon fill="#63b8ff" stroke="#63b8ff" points="1207.83,-385.5 1217.83,-382 1207.83,-378.5 1207.83,-385.5"/>
</a>
</g>
</g>
<!-- Node14 -->
<g id="Node000014" class="node">
<title>Node14</title>
<g id="a_Node000014"><a xlink:href="external_8c.html#aeb87c527482a244173df36a1f3d4f446" target="_top" xlink:title=" ">
<polygon fill="white" stroke="#666666" points="1438,-410.5 1346,-410.5 1346,-391.5 1438,-391.5 1438,-410.5"/>
<text text-anchor="middle" x="1392" y="-398.5" font-family="Helvetica,sans-Serif" font-size="10.00">func_800C21E8</text>
</a>
</g>
</g>
<!-- Node13&#45;&gt;Node14 -->
<g id="edge13_Node000013_Node000014" class="edge">
<title>Node13&#45;&gt;Node14</title>
<g id="a_edge13_Node000013_Node000014"><a xlink:title=" ">
<path fill="none" stroke="#63b8ff" d="M1310.13,-388.81C1318.46,-390.06 1327.23,-391.38 1335.81,-392.68"/>
<polygon fill="#63b8ff" stroke="#63b8ff" points="1335.35,-396.15 1345.76,-394.18 1336.39,-389.23 1335.35,-396.15"/>
</a>
</g>
</g>
<!-- Node15 -->
<g id="Node000015" class="node">
<title>Node15</title>
<g id="a_Node000015"><a xlink:href="external_8c.html#a028d40421b90c38f68ebfd5acc626f2e" target="_top" xlink:title=" ">
<polygon fill="white" stroke="#666666" points="1438,-373.5 1346,-373.5 1346,-354.5 1438,-354.5 1438,-373.5"/>
<text text-anchor="middle" x="1392" y="-361.5" font-family="Helvetica,sans-Serif" font-size="10.00">func_800C5578</text>
</a>
</g>
</g>
<!-- Node13&#45;&gt;Node15 -->
<g id="edge14_Node000013_Node000015" class="edge">
<title>Node13&#45;&gt;Node15</title>
<g id="a_edge14_Node000013_Node000015"><a xlink:title=" ">
<path fill="none" stroke="#63b8ff" d="M1310.13,-375.55C1318.46,-374.36 1327.23,-373.11 1335.81,-371.88"/>
<polygon fill="#63b8ff" stroke="#63b8ff" points="1336.35,-375.34 1345.76,-370.46 1335.36,-368.41 1336.35,-375.34"/>
</a>
</g>
</g>
<!-- Node16 -->
<g id="Node000016" class="node">
<title>Node16</title>
<g id="a_Node000016"><a xlink:href="external_8c.html#ac0fb767de7e14a03f1bcfa53f0abd23b" target="_top" xlink:title=" ">
<polygon fill="white" stroke="#666666" points="1614,-410.5 1474,-410.5 1474,-391.5 1614,-391.5 1614,-410.5"/>
<text text-anchor="middle" x="1544" y="-398.5" font-family="Helvetica,sans-Serif" font-size="10.00">delete_sound_from_bank</text>
</a>
</g>
</g>
<!-- Node15&#45;&gt;Node16 -->
<g id="edge15_Node000015_Node000016" class="edge">
<title>Node15&#45;&gt;Node16</title>
<g id="a_edge15_Node000015_Node000016"><a xlink:title=" ">
<path fill="none" stroke="#63b8ff" d="M1431.63,-373.53C1450.8,-378.26 1474.16,-384.02 1494.52,-389.04"/>
<polygon fill="#63b8ff" stroke="#63b8ff" points="1493.69,-392.44 1504.24,-391.44 1495.37,-385.65 1493.69,-392.44"/>
</a>
</g>
</g>
<!-- Node18 -->
<g id="Node000018" class="node">
<title>Node18</title>
<g id="a_Node000018"><a xlink:href="external_8c.html#ab83bd36e63f0f1baddcb2482b5ad31b0" target="_top" xlink:title=" ">
<polygon fill="white" stroke="#666666" points="1590.5,-373.5 1497.5,-373.5 1497.5,-354.5 1590.5,-354.5 1590.5,-373.5"/>
<text text-anchor="middle" x="1544" y="-361.5" font-family="Helvetica,sans-Serif" font-size="10.00">func_800C41CC</text>
</a>
</g>
</g>
<!-- Node15&#45;&gt;Node18 -->
<g id="edge17_Node000015_Node000018" class="edge">
<title>Node15&#45;&gt;Node18</title>
<g id="a_edge17_Node000015_Node000018"><a xlink:title=" ">
<path fill="none" stroke="#63b8ff" d="M1438,-364C1453.37,-364 1470.74,-364 1486.86,-364"/>
<polygon fill="#63b8ff" stroke="#63b8ff" points="1487.25,-367.5 1497.25,-364 1487.25,-360.5 1487.25,-367.5"/>
</a>
</g>
</g>
<!-- Node19 -->
<g id="Node000019" class="node">
<title>Node19</title>
<g id="a_Node000019"><a xlink:href="port__eu_8c.html#aa89dfaecca46c6d071f08c1898d1f7c9" target="_top" xlink:title=" ">
<polygon fill="white" stroke="#666666" points="1590.5,-336.5 1497.5,-336.5 1497.5,-317.5 1590.5,-317.5 1590.5,-336.5"/>
<text text-anchor="middle" x="1544" y="-324.5" font-family="Helvetica,sans-Serif" font-size="10.00">func_800CBBE8</text>
</a>
</g>
</g>
<!-- Node15&#45;&gt;Node19 -->
<g id="edge18_Node000015_Node000019" class="edge">
<title>Node15&#45;&gt;Node19</title>
<g id="a_edge18_Node000015_Node000019"><a xlink:title=" ">
<path fill="none" stroke="#63b8ff" d="M1431.63,-354.47C1450.8,-349.74 1474.16,-343.98 1494.52,-338.96"/>
<polygon fill="#63b8ff" stroke="#63b8ff" points="1495.37,-342.35 1504.24,-336.56 1493.69,-335.56 1495.37,-342.35"/>
</a>
</g>
</g>
<!-- Node17 -->
<g id="Node000017" class="node">
<title>Node17</title>
<g id="a_Node000017"><a xlink:href="external_8c.html#a358ac55e8ab5262dcae8037334be06d7" target="_top" xlink:title=" ">
<polygon fill="white" stroke="#666666" points="1742.5,-410.5 1650.5,-410.5 1650.5,-391.5 1742.5,-391.5 1742.5,-410.5"/>
<text text-anchor="middle" x="1696.5" y="-398.5" font-family="Helvetica,sans-Serif" font-size="10.00">func_800C40F0</text>
</a>
</g>
</g>
<!-- Node16&#45;&gt;Node17 -->
<g id="edge16_Node000016_Node000017" class="edge">
<title>Node16&#45;&gt;Node17</title>
<g id="a_edge16_Node000016_Node000017"><a xlink:title=" ">
<path fill="none" stroke="#63b8ff" d="M1614.08,-401C1622.87,-401 1631.78,-401 1640.31,-401"/>
<polygon fill="#63b8ff" stroke="#63b8ff" points="1640.5,-404.5 1650.5,-401 1640.5,-397.5 1640.5,-404.5"/>
</a>
</g>
</g>
<!-- Node20 -->
<g id="Node000020" class="node">
<title>Node20</title>
<g id="a_Node000020"><a xlink:href="port__eu_8c.html#af361a20d2e08f30c53a237ca481ff734" target="_top" xlink:title=" ">
<polygon fill="white" stroke="#666666" points="1743,-336.5 1650,-336.5 1650,-317.5 1743,-317.5 1743,-336.5"/>
<text text-anchor="middle" x="1696.5" y="-324.5" font-family="Helvetica,sans-Serif" font-size="10.00">func_800CBB48</text>
</a>
</g>
</g>
<!-- Node19&#45;&gt;Node20 -->
<g id="edge19_Node000019_Node000020" class="edge">
<title>Node19&#45;&gt;Node20</title>
<g id="a_edge19_Node000019_Node000020"><a xlink:title=" ">
<path fill="none" stroke="#63b8ff" d="M1590.56,-327C1605.96,-327 1623.34,-327 1639.46,-327"/>
<polygon fill="#63b8ff" stroke="#63b8ff" points="1639.83,-330.5 1649.83,-327 1639.83,-323.5 1639.83,-330.5"/>
</a>
</g>
</g>
<!-- Node21&#45;&gt;Node22 -->
<g id="edge21_Node000021_Node000022" class="edge">
<title>Node21&#45;&gt;Node22</title>
<g id="a_edge21_Node000021_Node000022"><a xlink:title=" ">
<path fill="none" stroke="#63b8ff" d="M781.29,-104.41C809.43,-98.39 845.46,-90.67 872.87,-84.8"/>
<polygon fill="#63b8ff" stroke="#63b8ff" points="873.88,-88.17 882.92,-82.65 872.41,-81.32 873.88,-88.17"/>
</a>
</g>
</g>
<!-- Node29 -->
<g id="Node000029" class="node">
<title>Node29</title>
<g id="a_Node000029"><a xlink:href="classOBombKart.html#a1566e8d56318b18ad900fbbac9966d9d" target="_top" xlink:title=" ">
<polygon fill="white" stroke="#666666" points="452.5,-491.5 317.5,-491.5 317.5,-472.5 452.5,-472.5 452.5,-491.5"/>
<text text-anchor="middle" x="385" y="-479.5" font-family="Helvetica,sans-Serif" font-size="10.00">OBombKart::OBombKart</text>
</a>
</g>
</g>
<!-- Node28&#45;&gt;Node29 -->
<g id="edge28_Node000028_Node000029" class="edge">
<title>Node28&#45;&gt;Node29</title>
<g id="a_edge28_Node000028_Node000029"><a xlink:title=" ">
<path fill="none" stroke="#63b8ff" d="M238.05,-417.52C267.25,-430.42 319.54,-453.52 352.96,-468.29"/>
<polygon fill="#63b8ff" stroke="#63b8ff" points="351.7,-471.56 362.26,-472.4 354.53,-465.15 351.7,-471.56"/>
</a>
</g>
</g>
<!-- Node29&#45;&gt;Node4 -->
<g id="edge29_Node000029_Node000004" class="edge">
<title>Node29&#45;&gt;Node4</title>
<g id="a_edge29_Node000029_Node000004"><a xlink:title=" ">
<path fill="none" stroke="#63b8ff" d="M452.78,-478.36C510.45,-475.22 593.87,-470.67 654.97,-467.34"/>
<polygon fill="#63b8ff" stroke="#63b8ff" points="655.17,-470.83 664.96,-466.79 654.78,-463.84 655.17,-470.83"/>
</a>
</g>
</g>
<!-- Node30 -->
<g id="Node000030" class="node">
<title>Node30</title>
<g id="a_Node000030"><a xlink:href="update__objects_8c.html#a92856990c4ca5fba1b8e0c61ca832c27" target="_top" xlink:title=" ">
<polygon fill="white" stroke="#666666" points="624,-510.5 496,-510.5 496,-491.5 624,-491.5 624,-510.5"/>
<text text-anchor="middle" x="560" y="-498.5" font-family="Helvetica,sans-Serif" font-size="10.00">find_unused_obj_index</text>
</a>
</g>
</g>
<!-- Node29&#45;&gt;Node30 -->
<g id="edge30_Node000029_Node000030" class="edge">
<title>Node29&#45;&gt;Node30</title>
<g id="a_edge30_Node000029_Node000030"><a xlink:title=" ">
<path fill="none" stroke="#63b8ff" d="M452.89,-489.35C463.73,-490.54 475.01,-491.78 486,-492.98"/>
<polygon fill="#63b8ff" stroke="#63b8ff" points="485.66,-496.47 495.98,-494.08 486.42,-489.51 485.66,-496.47"/>
</a>
</g>
</g>
<!-- Node31 -->
<g id="Node000031" class="node">
<title>Node31</title>
<g id="a_Node000031"><a xlink:href="classOObject.html#a629d0dcbb210e289cdf541a91321c86b" target="_top" xlink:title=" ">
<polygon fill="white" stroke="#666666" points="610.5,-547.5 509.5,-547.5 509.5,-528.5 610.5,-528.5 610.5,-547.5"/>
<text text-anchor="middle" x="560" y="-535.5" font-family="Helvetica,sans-Serif" font-size="10.00">OObject::OObject</text>
</a>
</g>
</g>
<!-- Node29&#45;&gt;Node31 -->
<g id="edge31_Node000029_Node000031" class="edge">
<title>Node29&#45;&gt;Node31</title>
<g id="a_edge31_Node000029_Node000031"><a xlink:title=" ">
<path fill="none" stroke="#63b8ff" d="M410.4,-491.53C431.55,-499.61 463.06,-511.27 491,-520 497.42,-522.01 504.23,-523.98 510.96,-525.85"/>
<polygon fill="#63b8ff" stroke="#63b8ff" points="510.14,-529.26 520.71,-528.5 511.97,-522.5 510.14,-529.26"/>
</a>
</g>
</g>
<!-- Node33 -->
<g id="Node000033" class="node">
<title>Node33</title>
<g id="a_Node000033"><a xlink:href="classOTrophy.html#a249debe1a4044424476f3dd3fbb93b4e" target="_top" xlink:title=" ">
<polygon fill="white" stroke="#666666" points="435.5,-565.5 334.5,-565.5 334.5,-546.5 435.5,-546.5 435.5,-565.5"/>
<text text-anchor="middle" x="385" y="-553.5" font-family="Helvetica,sans-Serif" font-size="10.00">OTrophy::OTrophy</text>
</a>
</g>
</g>
<!-- Node32&#45;&gt;Node33 -->
<g id="edge33_Node000032_Node000033" class="edge">
<title>Node32&#45;&gt;Node33</title>
<g id="a_edge33_Node000032_Node000033"><a xlink:title=" ">
<path fill="none" stroke="#63b8ff" d="M241.58,-501.58C270.28,-512.55 317.45,-530.57 349.58,-542.85"/>
<polygon fill="#63b8ff" stroke="#63b8ff" points="348.44,-546.16 359.03,-546.46 350.93,-539.62 348.44,-546.16"/>
</a>
</g>
</g>
<!-- Node33&#45;&gt;Node30 -->
<g id="edge34_Node000033_Node000030" class="edge">
<title>Node33&#45;&gt;Node30</title>
<g id="a_edge34_Node000033_Node000030"><a xlink:title=" ">
<path fill="none" stroke="#63b8ff" d="M412.62,-546.4C433.76,-538.89 464.13,-528.35 491,-520 498.24,-517.75 505.96,-515.48 513.49,-513.32"/>
<polygon fill="#63b8ff" stroke="#63b8ff" points="514.57,-516.66 523.24,-510.57 512.67,-509.92 514.57,-516.66"/>
</a>
</g>
</g>
<!-- Node33&#45;&gt;Node31 -->
<g id="edge42_Node000033_Node000031" class="edge">
<title>Node33&#45;&gt;Node31</title>
<g id="a_edge42_Node000033_Node000031"><a xlink:title=" ">
<path fill="none" stroke="#63b8ff" d="M435.57,-550.84C455.48,-548.77 478.6,-546.37 499.41,-544.2"/>
<polygon fill="#63b8ff" stroke="#63b8ff" points="499.83,-547.68 509.42,-543.16 499.11,-540.71 499.83,-547.68"/>
</a>
</g>
</g>
<!-- Node34 -->
<g id="Node000034" class="node">
<title>Node34</title>
<g id="a_Node000034"><a xlink:href="code__80086E70_8c.html#ad844d2fe27c3f0bb5979715fae72559a" target="_top" xlink:title=" ">
<polygon fill="white" stroke="#666666" points="605.5,-584.5 514.5,-584.5 514.5,-565.5 605.5,-565.5 605.5,-584.5"/>
<text text-anchor="middle" x="560" y="-572.5" font-family="Helvetica,sans-Serif" font-size="10.00">func_80086E70</text>
</a>
</g>
</g>
<!-- Node33&#45;&gt;Node34 -->
<g id="edge35_Node000033_Node000034" class="edge">
<title>Node33&#45;&gt;Node34</title>
<g id="a_edge35_Node000033_Node000034"><a xlink:title=" ">
<path fill="none" stroke="#63b8ff" d="M435.57,-561.44C457.04,-563.8 482.23,-566.57 504.25,-568.99"/>
<polygon fill="#63b8ff" stroke="#63b8ff" points="504.11,-572.49 514.44,-570.11 504.88,-565.53 504.11,-572.49"/>
</a>
</g>
</g>
<!-- Node36 -->
<g id="Node000036" class="node">
<title>Node36</title>
<g id="a_Node000036"><a xlink:href="update__objects_8c.html#abdebd086b5ff081f83af3d9205f39cd3" target="_top" xlink:title=" ">
<polygon fill="white" stroke="#666666" points="594,-658.5 526,-658.5 526,-639.5 594,-639.5 594,-658.5"/>
<text text-anchor="middle" x="560" y="-646.5" font-family="Helvetica,sans-Serif" font-size="10.00">init_object</text>
</a>
</g>
</g>
<!-- Node33&#45;&gt;Node36 -->
<g id="edge37_Node000033_Node000036" class="edge">
<title>Node33&#45;&gt;Node36</title>
<g id="a_edge37_Node000033_Node000036"><a xlink:title=" ">
<path fill="none" stroke="#63b8ff" d="M396.51,-565.52C414.54,-581.37 453.09,-613.18 491,-631 498.86,-634.7 507.61,-637.73 516.14,-640.18"/>
<polygon fill="#63b8ff" stroke="#63b8ff" points="515.42,-643.61 525.99,-642.8 517.22,-636.85 515.42,-643.61"/>
</a>
</g>
</g>
<!-- Node38 -->
<g id="Node000038" class="node">
<title>Node38</title>
<g id="a_Node000038"><a xlink:href="update__objects_8c.html#a8bfc5f5c7034d61b534e14f325b6e399" target="_top" xlink:title=" ">
<polygon fill="white" stroke="#666666" points="612,-621.5 508,-621.5 508,-602.5 612,-602.5 612,-621.5"/>
<text text-anchor="middle" x="560" y="-609.5" font-family="Helvetica,sans-Serif" font-size="10.00">object_next_state</text>
</a>
</g>
</g>
<!-- Node33&#45;&gt;Node38 -->
<g id="edge39_Node000033_Node000038" class="edge">
<title>Node33&#45;&gt;Node38</title>
<g id="a_edge39_Node000033_Node000038"><a xlink:title=" ">
<path fill="none" stroke="#63b8ff" d="M410.4,-565.53C431.55,-573.61 463.06,-585.27 491,-594 497.42,-596.01 504.23,-597.98 510.96,-599.85"/>
<polygon fill="#63b8ff" stroke="#63b8ff" points="510.14,-603.26 520.71,-602.5 511.97,-596.5 510.14,-603.26"/>
</a>
</g>
</g>
<!-- Node35 -->
<g id="Node000035" class="node">
<title>Node35</title>
<g id="a_Node000035"><a xlink:href="update__objects_8c.html#a3953241e15c6372ac8944ba842148a9a" target="_top" xlink:title=" ">
<polygon fill="white" stroke="#666666" points="785,-593.5 686,-593.5 686,-574.5 785,-574.5 785,-593.5"/>
<text text-anchor="middle" x="735.5" y="-581.5" font-family="Helvetica,sans-Serif" font-size="10.00">clear_object_flag</text>
</a>
</g>
</g>
<!-- Node34&#45;&gt;Node35 -->
<g id="edge36_Node000034_Node000035" class="edge">
<title>Node34&#45;&gt;Node35</title>
<g id="a_edge36_Node000034_Node000035"><a xlink:title=" ">
<path fill="none" stroke="#63b8ff" d="M605.68,-577.32C626.93,-578.42 652.61,-579.75 675.44,-580.94"/>
<polygon fill="#63b8ff" stroke="#63b8ff" points="675.53,-584.45 685.7,-581.47 675.9,-577.46 675.53,-584.45"/>
</a>
</g>
</g>
<!-- Node37 -->
<g id="Node000037" class="node">
<title>Node37</title>
<g id="a_Node000037"><a xlink:href="update__objects_8c.html#af20e3f3c403dd4fbea56e358997e515a" target="_top" xlink:title=" ">
<polygon fill="white" stroke="#666666" points="799.5,-648.5 671.5,-648.5 671.5,-629.5 799.5,-629.5 799.5,-648.5"/>
<text text-anchor="middle" x="735.5" y="-636.5" font-family="Helvetica,sans-Serif" font-size="10.00">set_object_timer_state</text>
</a>
</g>
</g>
<!-- Node36&#45;&gt;Node37 -->
<g id="edge38_Node000036_Node000037" class="edge">
<title>Node36&#45;&gt;Node37</title>
<g id="a_edge38_Node000036_Node000037"><a xlink:title=" ">
<path fill="none" stroke="#63b8ff" d="M594.04,-647.1C613.06,-646 637.74,-644.58 661.11,-643.23"/>
<polygon fill="#63b8ff" stroke="#63b8ff" points="661.59,-646.71 671.37,-642.64 661.18,-639.72 661.59,-646.71"/>
</a>
</g>
</g>
<!-- Node38&#45;&gt;Node35 -->
<g id="edge40_Node000038_Node000035" class="edge">
<title>Node38&#45;&gt;Node35</title>
<g id="a_edge40_Node000038_Node000035"><a xlink:title=" ">
<path fill="none" stroke="#63b8ff" d="M612.12,-603.75C632.13,-600.52 655.21,-596.8 675.89,-593.46"/>
<polygon fill="#63b8ff" stroke="#63b8ff" points="676.52,-596.9 685.83,-591.85 675.4,-589.99 676.52,-596.9"/>
</a>
</g>
</g>
<!-- Node38&#45;&gt;Node37 -->
<g id="edge41_Node000038_Node000037" class="edge">
<title>Node38&#45;&gt;Node37</title>
<g id="a_edge41_Node000038_Node000037"><a xlink:title=" ">
<path fill="none" stroke="#63b8ff" d="M612.12,-619.95C628.16,-622.45 646.17,-625.25 663.34,-627.93"/>
<polygon fill="#63b8ff" stroke="#63b8ff" points="662.91,-631.4 673.33,-629.48 663.99,-624.48 662.91,-631.4"/>
</a>
</g>
</g>
<!-- Node39&#45;&gt;Node2 -->
<g id="edge44_Node000039_Node000002" class="edge">
<title>Node39&#45;&gt;Node2</title>
<g id="a_edge44_Node000039_Node000002"><a xlink:title=" ">
<path fill="none" stroke="#63b8ff" d="M255.35,-244.51C279.15,-250.34 309.83,-257.84 335.25,-264.07"/>
<polygon fill="#63b8ff" stroke="#63b8ff" points="334.53,-267.49 345.07,-266.47 336.19,-260.69 334.53,-267.49"/>
</a>
</g>
</g>
<!-- Node39&#45;&gt;Node9 -->
<g id="edge45_Node000039_Node000009" class="edge">
<title>Node39&#45;&gt;Node9</title>
<g id="a_edge45_Node000039_Node000009"><a xlink:title=" ">
<path fill="none" stroke="#63b8ff" d="M227.44,-244.92C262.52,-275.98 376.54,-371.35 491,-406 621.06,-445.37 783.97,-434.64 864.39,-425.65"/>
<polygon fill="#63b8ff" stroke="#63b8ff" points="865.18,-429.08 874.71,-424.45 864.37,-422.13 865.18,-429.08"/>
</a>
</g>
</g>
<!-- Node39&#45;&gt;Node22 -->
<g id="edge50_Node000039_Node000022" class="edge">
<title>Node39&#45;&gt;Node22</title>
<g id="a_edge50_Node000039_Node000022"><a xlink:title=" ">
<path fill="none" stroke="#63b8ff" d="M229.03,-225.33C246.96,-212.07 281.5,-188.7 315,-178 523.8,-111.35 595.72,-193.81 806,-132 837.24,-122.82 870.03,-104.38 891.16,-91.17"/>
<polygon fill="#63b8ff" stroke="#63b8ff" points="893.19,-94.03 899.74,-85.7 889.43,-88.13 893.19,-94.03"/>
</a>
</g>
</g>
<!-- Node40 -->
<g id="Node000040" class="node">
<title>Node40</title>
<g id="a_Node000040"><a xlink:href="math__util_8c.html#a062850863585005ad1d0a75d9ff70693" target="_top" xlink:title=" ">
<polygon fill="white" stroke="#666666" points="423.5,-206.5 346.5,-206.5 346.5,-187.5 423.5,-187.5 423.5,-206.5"/>
<text text-anchor="middle" x="385" y="-194.5" font-family="Helvetica,sans-Serif" font-size="10.00">random_u16</text>
</a>
</g>
</g>
<!-- Node39&#45;&gt;Node40 -->
<g id="edge46_Node000039_Node000040" class="edge">
<title>Node39&#45;&gt;Node40</title>
<g id="a_edge46_Node000039_Node000040"><a xlink:title=" ">
<path fill="none" stroke="#63b8ff" d="M258.77,-225.41C282.45,-220.04 312.05,-213.32 336.52,-207.77"/>
<polygon fill="#63b8ff" stroke="#63b8ff" points="337.34,-211.17 346.32,-205.55 335.79,-204.35 337.34,-211.17"/>
</a>
</g>
</g>
<!-- Node41 -->
<g id="Node000041" class="node">
<title>Node41</title>
<g id="a_Node000041"><a xlink:href="collision_8c.html#ad95e9ed2051529d5edee26109fa07427" target="_top" xlink:title=" ">
<polygon fill="white" stroke="#666666" points="453.5,-243.5 316.5,-243.5 316.5,-224.5 453.5,-224.5 453.5,-243.5"/>
<text text-anchor="middle" x="385" y="-231.5" font-family="Helvetica,sans-Serif" font-size="10.00">spawn_actor_on_surface</text>
</a>
</g>
</g>
<!-- Node39&#45;&gt;Node41 -->
<g id="edge47_Node000039_Node000041" class="edge">
<title>Node39&#45;&gt;Node41</title>
<g id="a_edge47_Node000039_Node000041"><a xlink:title=" ">
<path fill="none" stroke="#63b8ff" d="M279.35,-234.62C288.12,-234.57 297.21,-234.52 306.21,-234.46"/>
<polygon fill="#63b8ff" stroke="#63b8ff" points="306.34,-237.96 316.31,-234.4 306.29,-230.96 306.34,-237.96"/>
</a>
</g>
</g>
<!-- Node42 -->
<g id="Node000042" class="node">
<title>Node42</title>
<g id="a_Node000042"><a xlink:href="collision_8c.html#a6527a2135a10909cdf9a1fd731be5628" target="_top" xlink:title=" ">
<polygon fill="white" stroke="#666666" points="629,-199.5 491,-199.5 491,-180.5 629,-180.5 629,-199.5"/>
<text text-anchor="middle" x="560" y="-187.5" font-family="Helvetica,sans-Serif" font-size="10.00">calculate_surface_height</text>
</a>
</g>
</g>
<!-- Node41&#45;&gt;Node42 -->
<g id="edge48_Node000041_Node000042" class="edge">
<title>Node41&#45;&gt;Node42</title>
<g id="a_edge48_Node000041_Node000042"><a xlink:title=" ">
<path fill="none" stroke="#63b8ff" d="M423.54,-224.45C449.38,-217.88 483.92,-209.1 511.65,-202.04"/>
<polygon fill="#63b8ff" stroke="#63b8ff" points="512.71,-205.39 521.53,-199.53 510.98,-198.6 512.71,-205.39"/>
</a>
</g>
</g>
<!-- Node43 -->
<g id="Node000043" class="node">
<title>Node43</title>
<g id="a_Node000043"><a xlink:href="collision_8c.html#a0fe340ccfe1d926a592ea9a0c84d7574" target="_top" xlink:title=" ">
<polygon fill="white" stroke="#666666" points="626,-248 494,-248 494,-218 626,-218 626,-248"/>
<text text-anchor="start" x="502" y="-236" font-family="Helvetica,sans-Serif" font-size="10.00">check_horizontally</text>
<text text-anchor="middle" x="560" y="-225" font-family="Helvetica,sans-Serif" font-size="10.00">_colliding_with_triangle</text>
</a>
</g>
</g>
<!-- Node41&#45;&gt;Node43 -->
<g id="edge49_Node000041_Node000043" class="edge">
<title>Node41&#45;&gt;Node43</title>
<g id="a_edge49_Node000041_Node000043"><a xlink:title=" ">
<path fill="none" stroke="#63b8ff" d="M453.88,-233.61C463.64,-233.55 473.74,-233.49 483.64,-233.44"/>
<polygon fill="#63b8ff" stroke="#63b8ff" points="483.89,-236.93 493.86,-233.38 483.84,-229.93 483.89,-236.93"/>
</a>
</g>
</g>
<!-- Node44&#45;&gt;Node2 -->
<g id="edge52_Node000044_Node000002" class="edge">
<title>Node44&#45;&gt;Node2</title>
<g id="a_edge52_Node000044_Node000002"><a xlink:title=" ">
<path fill="none" stroke="#63b8ff" d="M222.26,-123.57C239.35,-151.71 290.14,-233.38 315,-252 320.59,-256.19 326.97,-259.69 333.55,-262.6"/>
<polygon fill="#63b8ff" stroke="#63b8ff" points="332.65,-266.01 343.24,-266.45 335.24,-259.5 332.65,-266.01"/>
</a>
</g>
</g>
<!-- Node44&#45;&gt;Node21 -->
<g id="edge53_Node000044_Node000021" class="edge">
<title>Node44&#45;&gt;Node21</title>
<g id="a_edge53_Node000044_Node000021"><a xlink:title=" ">
<path fill="none" stroke="#63b8ff" d="M273.91,-114C373.77,-114 578.25,-114 677.68,-114"/>
<polygon fill="#63b8ff" stroke="#63b8ff" points="677.84,-117.5 687.84,-114 677.84,-110.5 677.84,-117.5"/>
</a>
</g>
</g>
<!-- Node44&#45;&gt;Node22 -->
<g id="edge54_Node000044_Node000022" class="edge">
<title>Node44&#45;&gt;Node22</title>
<g id="a_edge54_Node000044_Node000022"><a xlink:title=" ">
<path fill="none" stroke="#63b8ff" d="M228.31,-104.35C245.91,-90.66 280.65,-66.22 315,-57 518.32,-2.41 774.44,-45.98 872.88,-66.65"/>
<polygon fill="#63b8ff" stroke="#63b8ff" points="872.22,-70.09 882.73,-68.75 873.68,-63.24 872.22,-70.09"/>
</a>
</g>
</g>
<!-- Node45 -->
<g id="Node000045" class="node">
<title>Node45</title>
<g id="a_Node000045"><a xlink:href="math__util_8c.html#a9092c945c52b3a3481228b2724991e3c" target="_top" xlink:title=" ">
<polygon fill="white" stroke="#666666" points="417.5,-85.5 352.5,-85.5 352.5,-66.5 417.5,-66.5 417.5,-85.5"/>
<text text-anchor="middle" x="385" y="-73.5" font-family="Helvetica,sans-Serif" font-size="10.00">vec3s_set</text>
</a>
</g>
</g>
<!-- Node44&#45;&gt;Node45 -->
<g id="edge55_Node000044_Node000045" class="edge">
<title>Node44&#45;&gt;Node45</title>
<g id="a_edge55_Node000044_Node000045"><a xlink:title=" ">
<path fill="none" stroke="#63b8ff" d="M258.77,-104.41C284.32,-98.61 316.77,-91.25 342.23,-85.48"/>
<polygon fill="#63b8ff" stroke="#63b8ff" points="343.34,-88.81 352.32,-83.19 341.8,-81.99 343.34,-88.81"/>
</a>
</g>
</g>
</g>
</svg>

<g id="navigator" transform="translate(0 0)" fill="#404254">
  <rect fill="#f2f5e9" fill-opacity="0.5" stroke="#606060" stroke-width=".5" x="0" y="0" width="60" height="60"/>
  <use id="zoomplus" xlink:href="#zoomPlus" x="17" y="9" onmousedown="handleZoom(evt,'in')"/>
  <use id="zoomminus" xlink:href="#zoomMin" x="42" y="9" onmousedown="handleZoom(evt,'out')"/>
  <use id="reset" xlink:href="#resetDef" x="30" y="36" onmousedown="handleReset()"/>
   <use id="arrowup" xlink:href="#arrowUp" x="0" y="0" onmousedown="handlePan(0,-1)"/>
  <use id="arrowright" xlink:href="#arrowRight" x="0" y="0" onmousedown="handlePan(1,0)"/>
  <use id="arrowdown" xlink:href="#arrowDown" x="0" y="0" onmousedown="handlePan(0,1)"/>
  <use id="arrowleft" xlink:href="#arrowLeft" x="0" y="0" onmousedown="handlePan(-1,0)"/>
</g>
<svg viewBox="0 0 15 15" width="100%" height="30px" preserveAspectRatio="xMaxYMin meet">
 <g id="arrow_out" transform="scale(0.3 0.3)">
  <a xlink:href="classTestTrack_a2837e5e48c268d15ca1590ced6aa7a00_cgraph_org.svg" target="_base">
   <rect id="button" ry="5" rx="5" y="6" x="6" height="38" width="38"
        fill="#f2f5e9" fill-opacity="0.5" stroke="#606060" stroke-width="1.0"/>
   <path id="arrow"
     d="M 11.500037,31.436501 C 11.940474,20.09759 22.043105,11.32322 32.158766,21.979434 L 37.068811,17.246167 C 37.068811,17.246167 37.088388,32 37.088388,32 L 22.160133,31.978069 C 22.160133,31.978069 26.997745,27.140456 26.997745,27.140456 C 18.528582,18.264221 13.291696,25.230495 11.500037,31.436501 z"
     style="fill:#404040;"/>
  </a>
 </g>
</svg>

<style type='text/css'>
<![CDATA[
[data-mouse-over-selected='false'] { opacity: 0.7; }
[data-mouse-over-selected='true']  { opacity: 1.0; }
]]>
</style>
<script type="application/ecmascript"><![CDATA[
document.addEventListener('DOMContentLoaded', (event) => {
  highlightEdges();
  highlightAdjacentNodes();
});
]]></script>
</svg>
