<?xml version="1.0" encoding="UTF-8" standalone="no"?>
<!DOCTYPE svg PUBLIC "-//W3C//DTD SVG 1.1//EN"
 "http://www.w3.org/Graphics/SVG/1.1/DTD/svg11.dtd">
<!-- Generated by graphviz version 2.43.0 (0)
 -->
<!-- Title: WarioStadium::CreditsSpawnActors Pages: 1 -->
<svg width="1641pt" height="444pt"
 viewBox="0.00 0.00 1641.00 444.00" xmlns="http://www.w3.org/2000/svg" xmlns:xlink="http://www.w3.org/1999/xlink">
<g id="graph0" class="graph" transform="scale(1 1) rotate(0) translate(4 440)">
<title>WarioStadium::CreditsSpawnActors</title>
<!-- Node1 -->
<g id="Node000001" class="node">
<title>Node1</title>
<g id="a_Node000001"><a xlink:title=" ">
<polygon fill="#999999" stroke="#666666" points="158,-136.5 0,-136.5 0,-106.5 158,-106.5 158,-136.5"/>
<text text-anchor="start" x="8" y="-124.5" font-family="Helvetica,sans-Serif" font-size="10.00">WarioStadium::CreditsSpawn</text>
<text text-anchor="middle" x="79" y="-113.5" font-family="Helvetica,sans-Serif" font-size="10.00">Actors</text>
</a>
</g>
</g>
<!-- Node2 -->
<g id="Node000002" class="node">
<title>Node2</title>
<g id="a_Node000002"><a xlink:href="actors_8c.html#a91fb2e4e37e7c72fea918fe2c1bb4eaf" target="_top" xlink:title=" ">
<polygon fill="white" stroke="#666666" points="334,-206 194,-206 194,-187 334,-187 334,-206"/>
<text text-anchor="middle" x="264" y="-194" font-family="Helvetica,sans-Serif" font-size="10.00">add_actor_to_empty_slot</text>
</a>
</g>
</g>
<!-- Node1&#45;&gt;Node2 -->
<g id="edge1_Node000001_Node000002" class="edge">
<title>Node1&#45;&gt;Node2</title>
<g id="a_edge1_Node000001_Node000002"><a xlink:title=" ">
<path fill="none" stroke="#63b8ff" d="M117.03,-136.68C150.25,-150.29 198.54,-170.08 230.34,-183.12"/>
<polygon fill="#63b8ff" stroke="#63b8ff" points="229.07,-186.38 239.65,-186.93 231.73,-179.9 229.07,-186.38"/>
</a>
</g>
</g>
<!-- Node22 -->
<g id="Node000022" class="node">
<title>Node22</title>
<g id="a_Node000022"><a xlink:href="math__util_8c.html#a79fd07a0971ec96a3ff0801963a2fa7f" target="_top" xlink:title=" ">
<polygon fill="white" stroke="#666666" points="837,-177 773,-177 773,-158 837,-158 837,-177"/>
<text text-anchor="middle" x="805" y="-165" font-family="Helvetica,sans-Serif" font-size="10.00">vec3f_set</text>
</a>
</g>
</g>
<!-- Node1&#45;&gt;Node22 -->
<g id="edge34_Node000001_Node000022" class="edge">
<title>Node1&#45;&gt;Node22</title>
<g id="a_edge34_Node000001_Node000022"><a xlink:title=" ">
<path fill="none" stroke="#63b8ff" d="M158.17,-123.99C246.01,-127.04 392.84,-132.88 519,-141.5 605.85,-147.44 707.32,-157.43 762.71,-163.14"/>
<polygon fill="#63b8ff" stroke="#63b8ff" points="762.52,-166.64 772.83,-164.19 763.24,-159.68 762.52,-166.64"/>
</a>
</g>
</g>
<!-- Node28 -->
<g id="Node000028" class="node">
<title>Node28</title>
<g id="a_Node000028"><a xlink:href="collision_8c.html#a7fe1ddc7a4c312ab8f9519229963450b" target="_top" xlink:title=" ">
<polygon fill="white" stroke="#666666" points="334,-66 194,-66 194,-47 334,-47 334,-66"/>
<text text-anchor="middle" x="264" y="-54" font-family="Helvetica,sans-Serif" font-size="10.00">find_vtx_and_set_colours</text>
</a>
</g>
</g>
<!-- Node1&#45;&gt;Node28 -->
<g id="edge27_Node000001_Node000028" class="edge">
<title>Node1&#45;&gt;Node28</title>
<g id="a_edge27_Node000001_Node000028"><a xlink:title=" ">
<path fill="none" stroke="#63b8ff" d="M122.44,-106.42C153.94,-95.24 196.44,-80.14 226.44,-69.49"/>
<polygon fill="#63b8ff" stroke="#63b8ff" points="227.84,-72.7 236.1,-66.06 225.5,-66.11 227.84,-72.7"/>
</a>
</g>
</g>
<!-- Node3 -->
<g id="Node000003" class="node">
<title>Node3</title>
<g id="a_Node000003"><a xlink:href="actors_8c.html#a39c023177b5a7686cdd1fc65b8b953e1" target="_top" xlink:title=" ">
<polygon fill="white" stroke="#666666" points="475.5,-280 413.5,-280 413.5,-261 475.5,-261 475.5,-280"/>
<text text-anchor="middle" x="444.5" y="-268" font-family="Helvetica,sans-Serif" font-size="10.00">actor_init</text>
</a>
</g>
</g>
<!-- Node2&#45;&gt;Node3 -->
<g id="edge2_Node000002_Node000003" class="edge">
<title>Node2&#45;&gt;Node3</title>
<g id="a_edge2_Node000002_Node000003"><a xlink:title=" ">
<path fill="none" stroke="#63b8ff" d="M280.08,-206.11C299.98,-218.41 336.42,-239.67 370,-252.5 380.62,-256.56 392.45,-259.93 403.47,-262.61"/>
<polygon fill="#63b8ff" stroke="#63b8ff" points="402.77,-266.04 413.3,-264.89 404.35,-259.22 402.77,-266.04"/>
</a>
</g>
</g>
<!-- Node25 -->
<g id="Node000025" class="node">
<title>Node25</title>
<g id="a_Node000025"><a xlink:href="Game_8cpp.html#acea5cfd9ab22f745bd6627869b95a62e" target="_top" xlink:title=" ">
<polygon fill="white" stroke="#666666" points="500.5,-243 388.5,-243 388.5,-224 500.5,-224 500.5,-243"/>
<text text-anchor="middle" x="444.5" y="-231" font-family="Helvetica,sans-Serif" font-size="10.00">CM_ActorBeginPlay</text>
</a>
</g>
</g>
<!-- Node2&#45;&gt;Node25 -->
<g id="edge24_Node000002_Node000025" class="edge">
<title>Node2&#45;&gt;Node25</title>
<g id="a_edge24_Node000002_Node000025"><a xlink:title=" ">
<path fill="none" stroke="#63b8ff" d="M310.97,-206.03C334.3,-210.86 362.84,-216.78 387.45,-221.88"/>
<polygon fill="#63b8ff" stroke="#63b8ff" points="386.88,-225.34 397.38,-223.94 388.3,-218.48 386.88,-225.34"/>
</a>
</g>
</g>
<!-- Node26 -->
<g id="Node000026" class="node">
<title>Node26</title>
<g id="a_Node000026"><a xlink:href="Game_8cpp.html#a42f23077aaa52cb3ea5c7803b7dd6816" target="_top" xlink:title=" ">
<polygon fill="white" stroke="#666666" points="497.5,-206 391.5,-206 391.5,-187 497.5,-187 497.5,-206"/>
<text text-anchor="middle" x="444.5" y="-194" font-family="Helvetica,sans-Serif" font-size="10.00">CM_AddBaseActor</text>
</a>
</g>
</g>
<!-- Node2&#45;&gt;Node26 -->
<g id="edge25_Node000002_Node000026" class="edge">
<title>Node2&#45;&gt;Node26</title>
<g id="a_edge25_Node000002_Node000026"><a xlink:title=" ">
<path fill="none" stroke="#63b8ff" d="M334.01,-196.5C349.48,-196.5 365.8,-196.5 380.98,-196.5"/>
<polygon fill="#63b8ff" stroke="#63b8ff" points="381.28,-200 391.28,-196.5 381.28,-193 381.28,-200"/>
</a>
</g>
</g>
<!-- Node27 -->
<g id="Node000027" class="node">
<title>Node27</title>
<g id="a_Node000027"><a xlink:href="Game_8cpp.html#a0841ffe9a66e95aca42438b9d8ffc3d3" target="_top" xlink:title=" ">
<polygon fill="white" stroke="#666666" points="495,-169 394,-169 394,-150 495,-150 495,-169"/>
<text text-anchor="middle" x="444.5" y="-157" font-family="Helvetica,sans-Serif" font-size="10.00">CM_GetActorSize</text>
</a>
</g>
</g>
<!-- Node2&#45;&gt;Node27 -->
<g id="edge26_Node000002_Node000027" class="edge">
<title>Node2&#45;&gt;Node27</title>
<g id="a_edge26_Node000002_Node000027"><a xlink:title=" ">
<path fill="none" stroke="#63b8ff" d="M310.97,-186.97C334.3,-182.14 362.84,-176.22 387.45,-171.12"/>
<polygon fill="#63b8ff" stroke="#63b8ff" points="388.3,-174.52 397.38,-169.06 386.88,-167.66 388.3,-174.52"/>
</a>
</g>
</g>
<!-- Node4 -->
<g id="Node000004" class="node">
<title>Node4</title>
<g id="a_Node000004"><a xlink:href="collision_8c.html#a37aa55b3768d001533ad75e7f1b8388a" target="_top" xlink:title=" ">
<polygon fill="white" stroke="#666666" points="696,-384 555,-384 555,-365 696,-365 696,-384"/>
<text text-anchor="middle" x="625.5" y="-372" font-family="Helvetica,sans-Serif" font-size="10.00">check_bounding_collision</text>
</a>
</g>
</g>
<!-- Node3&#45;&gt;Node4 -->
<g id="edge3_Node000003_Node000004" class="edge">
<title>Node3&#45;&gt;Node4</title>
<g id="a_edge3_Node000003_Node000004"><a xlink:title=" ">
<path fill="none" stroke="#63b8ff" d="M462.02,-280.1C493.46,-298.36 562.06,-338.22 599.28,-359.85"/>
<polygon fill="#63b8ff" stroke="#63b8ff" points="597.62,-362.93 608.02,-364.93 601.13,-356.88 597.62,-362.93"/>
</a>
</g>
</g>
<!-- Node8 -->
<g id="Node000008" class="node">
<title>Node8</title>
<g id="a_Node000008"><a xlink:href="actors_8c.html#a1a9bccb586242555a9123ebd4ab70f2a" target="_top" xlink:title=" ">
<polygon fill="white" stroke="#666666" points="691.5,-309.5 559.5,-309.5 559.5,-279.5 691.5,-279.5 691.5,-309.5"/>
<text text-anchor="start" x="567.5" y="-297.5" font-family="Helvetica,sans-Serif" font-size="10.00">cleanup_red_and_green</text>
<text text-anchor="middle" x="625.5" y="-286.5" font-family="Helvetica,sans-Serif" font-size="10.00">_shells</text>
</a>
</g>
</g>
<!-- Node3&#45;&gt;Node8 -->
<g id="edge7_Node000003_Node000008" class="edge">
<title>Node3&#45;&gt;Node8</title>
<g id="a_edge7_Node000003_Node000008"><a xlink:title=" ">
<path fill="none" stroke="#63b8ff" d="M475.86,-274.57C496.03,-277.27 523.44,-280.95 549.24,-284.41"/>
<polygon fill="#63b8ff" stroke="#63b8ff" points="549.03,-287.91 559.4,-285.77 549.96,-280.97 549.03,-287.91"/>
</a>
</g>
</g>
<!-- Node21 -->
<g id="Node000021" class="node">
<title>Node21</title>
<g id="a_Node000021"><a xlink:href="collision_8c.html#ad72fef3ffe32191d73b1822f512ebf3f" target="_top" xlink:title=" ">
<polygon fill="white" stroke="#666666" points="673,-261 578,-261 578,-242 673,-242 673,-261"/>
<text text-anchor="middle" x="625.5" y="-249" font-family="Helvetica,sans-Serif" font-size="10.00">func_802AAAAC</text>
</a>
</g>
</g>
<!-- Node3&#45;&gt;Node21 -->
<g id="edge20_Node000003_Node000021" class="edge">
<title>Node3&#45;&gt;Node21</title>
<g id="a_edge20_Node000003_Node000021"><a xlink:title=" ">
<path fill="none" stroke="#63b8ff" d="M475.86,-267.28C500.96,-264.61 537.27,-260.76 567.73,-257.53"/>
<polygon fill="#63b8ff" stroke="#63b8ff" points="568.23,-260.99 577.81,-256.46 567.49,-254.03 568.23,-260.99"/>
</a>
</g>
</g>
<!-- Node23 -->
<g id="Node000023" class="node">
<title>Node23</title>
<g id="a_Node000023"><a xlink:href="math__util_8c.html#af7b470ed76fce07b8042a47c96e5690b" target="_top" xlink:title=" ">
<polygon fill="white" stroke="#666666" points="679,-224 572,-224 572,-205 679,-205 679,-224"/>
<text text-anchor="middle" x="625.5" y="-212" font-family="Helvetica,sans-Serif" font-size="10.00">vec3f_copy_return</text>
</a>
</g>
</g>
<!-- Node3&#45;&gt;Node23 -->
<g id="edge22_Node000003_Node000023" class="edge">
<title>Node3&#45;&gt;Node23</title>
<g id="a_edge22_Node000003_Node000023"><a xlink:title=" ">
<path fill="none" stroke="#63b8ff" d="M475.69,-264.86C489.17,-261.89 505.12,-257.77 519,-252.5 535.91,-246.08 538.17,-240.15 555,-233.5 560.96,-231.15 567.31,-228.98 573.66,-227.01"/>
<polygon fill="#63b8ff" stroke="#63b8ff" points="574.98,-230.27 583.59,-224.08 573,-223.55 574.98,-230.27"/>
</a>
</g>
</g>
<!-- Node24 -->
<g id="Node000024" class="node">
<title>Node24</title>
<g id="a_Node000024"><a xlink:href="math__util_8c.html#a0e270ee67600c8c9c2f140c647d008a1" target="_top" xlink:title=" ">
<polygon fill="white" stroke="#666666" points="662.5,-187 588.5,-187 588.5,-168 662.5,-168 662.5,-187"/>
<text text-anchor="middle" x="625.5" y="-175" font-family="Helvetica,sans-Serif" font-size="10.00">vec3s_copy</text>
</a>
</g>
</g>
<!-- Node3&#45;&gt;Node24 -->
<g id="edge23_Node000003_Node000024" class="edge">
<title>Node3&#45;&gt;Node24</title>
<g id="a_edge23_Node000003_Node000024"><a xlink:title=" ">
<path fill="none" stroke="#63b8ff" d="M475.55,-268.3C489.78,-266.03 506.38,-261.51 519,-252.5 543.08,-235.31 531.15,-214.01 555,-196.5 561.96,-191.39 570.21,-187.66 578.56,-184.93"/>
<polygon fill="#63b8ff" stroke="#63b8ff" points="579.67,-188.25 588.33,-182.16 577.76,-181.52 579.67,-188.25"/>
</a>
</g>
</g>
<!-- Node5 -->
<g id="Node000005" class="node">
<title>Node5</title>
<g id="a_Node000005"><a xlink:href="collision_8c.html#ac312bf382cb40752f6b790a99e7cdcb6" target="_top" xlink:title=" ">
<polygon fill="white" stroke="#666666" points="859,-436 751,-436 751,-417 859,-417 859,-436"/>
<text text-anchor="middle" x="805" y="-424" font-family="Helvetica,sans-Serif" font-size="10.00">check_collision_yx</text>
</a>
</g>
</g>
<!-- Node4&#45;&gt;Node5 -->
<g id="edge4_Node000004_Node000005" class="edge">
<title>Node4&#45;&gt;Node5</title>
<g id="a_edge4_Node000004_Node000005"><a xlink:title=" ">
<path fill="none" stroke="#63b8ff" d="M654.55,-384.11C675.72,-391.22 705.54,-400.94 732,-408.5 739.07,-410.52 746.56,-412.53 753.94,-414.44"/>
<polygon fill="#63b8ff" stroke="#63b8ff" points="753.33,-417.9 763.89,-416.98 755.06,-411.12 753.33,-417.9"/>
</a>
</g>
</g>
<!-- Node6 -->
<g id="Node000006" class="node">
<title>Node6</title>
<g id="a_Node000006"><a xlink:href="collision_8c.html#a4b48832a90e984536a0635a016ec4f28" target="_top" xlink:title=" ">
<polygon fill="white" stroke="#666666" points="858.5,-399 751.5,-399 751.5,-380 858.5,-380 858.5,-399"/>
<text text-anchor="middle" x="805" y="-387" font-family="Helvetica,sans-Serif" font-size="10.00">check_collision_zx</text>
</a>
</g>
</g>
<!-- Node4&#45;&gt;Node6 -->
<g id="edge5_Node000004_Node000006" class="edge">
<title>Node4&#45;&gt;Node6</title>
<g id="a_edge5_Node000004_Node000006"><a xlink:title=" ">
<path fill="none" stroke="#63b8ff" d="M696.14,-380.39C710.91,-381.63 726.43,-382.94 740.94,-384.17"/>
<polygon fill="#63b8ff" stroke="#63b8ff" points="741.04,-387.69 751.3,-385.05 741.63,-380.72 741.04,-387.69"/>
</a>
</g>
</g>
<!-- Node7 -->
<g id="Node000007" class="node">
<title>Node7</title>
<g id="a_Node000007"><a xlink:href="collision_8c.html#a21fef964ab48191a1c0341954ef27a40" target="_top" xlink:title=" ">
<polygon fill="white" stroke="#666666" points="858.5,-362 751.5,-362 751.5,-343 858.5,-343 858.5,-362"/>
<text text-anchor="middle" x="805" y="-350" font-family="Helvetica,sans-Serif" font-size="10.00">check_collision_zy</text>
</a>
</g>
</g>
<!-- Node4&#45;&gt;Node7 -->
<g id="edge6_Node000004_Node000007" class="edge">
<title>Node4&#45;&gt;Node7</title>
<g id="a_edge6_Node000004_Node000007"><a xlink:title=" ">
<path fill="none" stroke="#63b8ff" d="M696.14,-365.87C711.06,-364.02 726.73,-362.08 741.36,-360.26"/>
<polygon fill="#63b8ff" stroke="#63b8ff" points="741.81,-363.74 751.3,-359.03 740.95,-356.79 741.81,-363.74"/>
</a>
</g>
</g>
<!-- Node9 -->
<g id="Node000009" class="node">
<title>Node9</title>
<g id="a_Node000009"><a xlink:href="Game_8cpp.html#a693de7d8b89fe291aafea86bc64a0a2e" target="_top" xlink:title=" ">
<polygon fill="white" stroke="#666666" points="845,-325 765,-325 765,-306 845,-306 845,-325"/>
<text text-anchor="middle" x="805" y="-313" font-family="Helvetica,sans-Serif" font-size="10.00">CM_GetActor</text>
</a>
</g>
</g>
<!-- Node8&#45;&gt;Node9 -->
<g id="edge8_Node000008_Node000009" class="edge">
<title>Node8&#45;&gt;Node9</title>
<g id="a_edge8_Node000008_Node000009"><a xlink:title=" ">
<path fill="none" stroke="#63b8ff" d="M691.59,-302.2C712.47,-304.67 735.24,-307.36 754.79,-309.68"/>
<polygon fill="#63b8ff" stroke="#63b8ff" points="754.65,-313.19 764.99,-310.88 755.47,-306.23 754.65,-313.19"/>
</a>
</g>
</g>
<!-- Node10 -->
<g id="Node000010" class="node">
<title>Node10</title>
<g id="a_Node000010"><a xlink:href="code__80005FD0_8c.html#ad301b978cdd3c4cc190b10be050d51d8" target="_top" xlink:title=" ">
<polygon fill="white" stroke="#666666" points="878,-287.5 732,-287.5 732,-257.5 878,-257.5 878,-287.5"/>
<text text-anchor="start" x="740" y="-275.5" font-family="Helvetica,sans-Serif" font-size="10.00">delete_actor_in_unexpired</text>
<text text-anchor="middle" x="805" y="-264.5" font-family="Helvetica,sans-Serif" font-size="10.00">_actor_list</text>
</a>
</g>
</g>
<!-- Node8&#45;&gt;Node10 -->
<g id="edge9_Node000008_Node000010" class="edge">
<title>Node8&#45;&gt;Node10</title>
<g id="a_edge9_Node000008_Node000010"><a xlink:title=" ">
<path fill="none" stroke="#63b8ff" d="M691.59,-286.43C701.38,-285.22 711.59,-283.95 721.69,-282.7"/>
<polygon fill="#63b8ff" stroke="#63b8ff" points="722.24,-286.16 731.73,-281.46 721.38,-279.21 722.24,-286.16"/>
</a>
</g>
</g>
<!-- Node11 -->
<g id="Node000011" class="node">
<title>Node11</title>
<g id="a_Node000011"><a xlink:href="actors_8c.html#a694ec6ef7548b8618aeb35c038d3a9b9" target="_top" xlink:title=" ">
<polygon fill="white" stroke="#666666" points="846.5,-239 763.5,-239 763.5,-220 846.5,-220 846.5,-239"/>
<text text-anchor="middle" x="805" y="-227" font-family="Helvetica,sans-Serif" font-size="10.00">destroy_actor</text>
</a>
</g>
</g>
<!-- Node8&#45;&gt;Node11 -->
<g id="edge10_Node000008_Node000011" class="edge">
<title>Node8&#45;&gt;Node11</title>
<g id="a_edge10_Node000008_Node000011"><a xlink:title=" ">
<path fill="none" stroke="#63b8ff" d="M674.52,-279.44C681.82,-276.72 689.19,-273.71 696,-270.5 712.96,-262.5 714.75,-255.86 732,-248.5 738.79,-245.61 746.12,-243.06 753.43,-240.84"/>
<polygon fill="#63b8ff" stroke="#63b8ff" points="754.66,-244.13 763.32,-238.03 752.74,-237.4 754.66,-244.13"/>
</a>
</g>
</g>
<!-- Node12 -->
<g id="Node000012" class="node">
<title>Node12</title>
<g id="a_Node000012"><a xlink:href="actors_8c.html#a12dc3ccac4c7d8569eadac0af4fd6f9f" target="_top" xlink:title=" ">
<polygon fill="white" stroke="#666666" points="1072,-239 914,-239 914,-220 1072,-220 1072,-239"/>
<text text-anchor="middle" x="993" y="-227" font-family="Helvetica,sans-Serif" font-size="10.00">play_sound_before_despawn</text>
</a>
</g>
</g>
<!-- Node11&#45;&gt;Node12 -->
<g id="edge11_Node000011_Node000012" class="edge">
<title>Node11&#45;&gt;Node12</title>
<g id="a_edge11_Node000011_Node000012"><a xlink:title=" ">
<path fill="none" stroke="#63b8ff" d="M846.82,-229.5C863.65,-229.5 883.86,-229.5 903.77,-229.5"/>
<polygon fill="#63b8ff" stroke="#63b8ff" points="903.82,-233 913.82,-229.5 903.82,-226 903.82,-233"/>
</a>
</g>
</g>
<!-- Node13 -->
<g id="Node000013" class="node">
<title>Node13</title>
<g id="a_Node000013"><a xlink:href="external_8c.html#ae72057869772019e4464c87d4e16c682" target="_top" xlink:title=" ">
<polygon fill="white" stroke="#666666" points="1200,-239 1108,-239 1108,-220 1200,-220 1200,-239"/>
<text text-anchor="middle" x="1154" y="-227" font-family="Helvetica,sans-Serif" font-size="10.00">func_800C99E0</text>
</a>
</g>
</g>
<!-- Node12&#45;&gt;Node13 -->
<g id="edge12_Node000012_Node000013" class="edge">
<title>Node12&#45;&gt;Node13</title>
<g id="a_edge12_Node000012_Node000013"><a xlink:title=" ">
<path fill="none" stroke="#63b8ff" d="M1072.1,-229.5C1080.72,-229.5 1089.35,-229.5 1097.61,-229.5"/>
<polygon fill="#63b8ff" stroke="#63b8ff" points="1097.83,-233 1107.83,-229.5 1097.83,-226 1097.83,-233"/>
</a>
</g>
</g>
<!-- Node14 -->
<g id="Node000014" class="node">
<title>Node14</title>
<g id="a_Node000014"><a xlink:href="external_8c.html#aeb87c527482a244173df36a1f3d4f446" target="_top" xlink:title=" ">
<polygon fill="white" stroke="#666666" points="1328,-258 1236,-258 1236,-239 1328,-239 1328,-258"/>
<text text-anchor="middle" x="1282" y="-246" font-family="Helvetica,sans-Serif" font-size="10.00">func_800C21E8</text>
</a>
</g>
</g>
<!-- Node13&#45;&gt;Node14 -->
<g id="edge13_Node000013_Node000014" class="edge">
<title>Node13&#45;&gt;Node14</title>
<g id="a_edge13_Node000013_Node000014"><a xlink:title=" ">
<path fill="none" stroke="#63b8ff" d="M1200.13,-236.31C1208.46,-237.56 1217.23,-238.88 1225.81,-240.18"/>
<polygon fill="#63b8ff" stroke="#63b8ff" points="1225.35,-243.65 1235.76,-241.68 1226.39,-236.73 1225.35,-243.65"/>
</a>
</g>
</g>
<!-- Node15 -->
<g id="Node000015" class="node">
<title>Node15</title>
<g id="a_Node000015"><a xlink:href="external_8c.html#a028d40421b90c38f68ebfd5acc626f2e" target="_top" xlink:title=" ">
<polygon fill="white" stroke="#666666" points="1328,-221 1236,-221 1236,-202 1328,-202 1328,-221"/>
<text text-anchor="middle" x="1282" y="-209" font-family="Helvetica,sans-Serif" font-size="10.00">func_800C5578</text>
</a>
</g>
</g>
<!-- Node13&#45;&gt;Node15 -->
<g id="edge14_Node000013_Node000015" class="edge">
<title>Node13&#45;&gt;Node15</title>
<g id="a_edge14_Node000013_Node000015"><a xlink:title=" ">
<path fill="none" stroke="#63b8ff" d="M1200.13,-223.05C1208.46,-221.86 1217.23,-220.61 1225.81,-219.38"/>
<polygon fill="#63b8ff" stroke="#63b8ff" points="1226.35,-222.84 1235.76,-217.96 1225.36,-215.91 1226.35,-222.84"/>
</a>
</g>
</g>
<!-- Node16 -->
<g id="Node000016" class="node">
<title>Node16</title>
<g id="a_Node000016"><a xlink:href="external_8c.html#ac0fb767de7e14a03f1bcfa53f0abd23b" target="_top" xlink:title=" ">
<polygon fill="white" stroke="#666666" points="1504,-258 1364,-258 1364,-239 1504,-239 1504,-258"/>
<text text-anchor="middle" x="1434" y="-246" font-family="Helvetica,sans-Serif" font-size="10.00">delete_sound_from_bank</text>
</a>
</g>
</g>
<!-- Node15&#45;&gt;Node16 -->
<g id="edge15_Node000015_Node000016" class="edge">
<title>Node15&#45;&gt;Node16</title>
<g id="a_edge15_Node000015_Node000016"><a xlink:title=" ">
<path fill="none" stroke="#63b8ff" d="M1321.63,-221.03C1340.8,-225.76 1364.16,-231.52 1384.52,-236.54"/>
<polygon fill="#63b8ff" stroke="#63b8ff" points="1383.69,-239.94 1394.24,-238.94 1385.37,-233.15 1383.69,-239.94"/>
</a>
</g>
</g>
<!-- Node18 -->
<g id="Node000018" class="node">
<title>Node18</title>
<g id="a_Node000018"><a xlink:href="external_8c.html#ab83bd36e63f0f1baddcb2482b5ad31b0" target="_top" xlink:title=" ">
<polygon fill="white" stroke="#666666" points="1480.5,-221 1387.5,-221 1387.5,-202 1480.5,-202 1480.5,-221"/>
<text text-anchor="middle" x="1434" y="-209" font-family="Helvetica,sans-Serif" font-size="10.00">func_800C41CC</text>
</a>
</g>
</g>
<!-- Node15&#45;&gt;Node18 -->
<g id="edge17_Node000015_Node000018" class="edge">
<title>Node15&#45;&gt;Node18</title>
<g id="a_edge17_Node000015_Node000018"><a xlink:title=" ">
<path fill="none" stroke="#63b8ff" d="M1328,-211.5C1343.37,-211.5 1360.74,-211.5 1376.86,-211.5"/>
<polygon fill="#63b8ff" stroke="#63b8ff" points="1377.25,-215 1387.25,-211.5 1377.25,-208 1377.25,-215"/>
</a>
</g>
</g>
<!-- Node19 -->
<g id="Node000019" class="node">
<title>Node19</title>
<g id="a_Node000019"><a xlink:href="port__eu_8c.html#aa89dfaecca46c6d071f08c1898d1f7c9" target="_top" xlink:title=" ">
<polygon fill="white" stroke="#666666" points="1480.5,-184 1387.5,-184 1387.5,-165 1480.5,-165 1480.5,-184"/>
<text text-anchor="middle" x="1434" y="-172" font-family="Helvetica,sans-Serif" font-size="10.00">func_800CBBE8</text>
</a>
</g>
</g>
<!-- Node15&#45;&gt;Node19 -->
<g id="edge18_Node000015_Node000019" class="edge">
<title>Node15&#45;&gt;Node19</title>
<g id="a_edge18_Node000015_Node000019"><a xlink:title=" ">
<path fill="none" stroke="#63b8ff" d="M1321.63,-201.97C1340.8,-197.24 1364.16,-191.48 1384.52,-186.46"/>
<polygon fill="#63b8ff" stroke="#63b8ff" points="1385.37,-189.85 1394.24,-184.06 1383.69,-183.06 1385.37,-189.85"/>
</a>
</g>
</g>
<!-- Node17 -->
<g id="Node000017" class="node">
<title>Node17</title>
<g id="a_Node000017"><a xlink:href="external_8c.html#a358ac55e8ab5262dcae8037334be06d7" target="_top" xlink:title=" ">
<polygon fill="white" stroke="#666666" points="1632.5,-258 1540.5,-258 1540.5,-239 1632.5,-239 1632.5,-258"/>
<text text-anchor="middle" x="1586.5" y="-246" font-family="Helvetica,sans-Serif" font-size="10.00">func_800C40F0</text>
</a>
</g>
</g>
<!-- Node16&#45;&gt;Node17 -->
<g id="edge16_Node000016_Node000017" class="edge">
<title>Node16&#45;&gt;Node17</title>
<g id="a_edge16_Node000016_Node000017"><a xlink:title=" ">
<path fill="none" stroke="#63b8ff" d="M1504.08,-248.5C1512.87,-248.5 1521.78,-248.5 1530.31,-248.5"/>
<polygon fill="#63b8ff" stroke="#63b8ff" points="1530.5,-252 1540.5,-248.5 1530.5,-245 1530.5,-252"/>
</a>
</g>
</g>
<!-- Node20 -->
<g id="Node000020" class="node">
<title>Node20</title>
<g id="a_Node000020"><a xlink:href="port__eu_8c.html#af361a20d2e08f30c53a237ca481ff734" target="_top" xlink:title=" ">
<polygon fill="white" stroke="#666666" points="1633,-184 1540,-184 1540,-165 1633,-165 1633,-184"/>
<text text-anchor="middle" x="1586.5" y="-172" font-family="Helvetica,sans-Serif" font-size="10.00">func_800CBB48</text>
</a>
</g>
</g>
<!-- Node19&#45;&gt;Node20 -->
<g id="edge19_Node000019_Node000020" class="edge">
<title>Node19&#45;&gt;Node20</title>
<g id="a_edge19_Node000019_Node000020"><a xlink:title=" ">
<path fill="none" stroke="#63b8ff" d="M1480.56,-174.5C1495.96,-174.5 1513.34,-174.5 1529.46,-174.5"/>
<polygon fill="#63b8ff" stroke="#63b8ff" points="1529.83,-178 1539.83,-174.5 1529.83,-171 1529.83,-178"/>
</a>
</g>
</g>
<!-- Node21&#45;&gt;Node22 -->
<g id="edge21_Node000021_Node000022" class="edge">
<title>Node21&#45;&gt;Node22</title>
<g id="a_edge21_Node000021_Node000022"><a xlink:title=" ">
<path fill="none" stroke="#63b8ff" d="M671.27,-241.99C679.64,-239.63 688.2,-236.81 696,-233.5 696.14,-233.44 747.46,-202.07 779.3,-182.6"/>
<polygon fill="#63b8ff" stroke="#63b8ff" points="781.39,-185.43 788.09,-177.23 777.73,-179.46 781.39,-185.43"/>
</a>
</g>
</g>
<!-- Node28&#45;&gt;Node28 -->
<g id="edge28_Node000028_Node000028" class="edge">
<title>Node28&#45;&gt;Node28</title>
<g id="a_edge28_Node000028_Node000028"><a xlink:title=" ">
<path fill="none" stroke="#63b8ff" d="M236.26,-66.08C222.76,-74.73 232.01,-84 264,-84 285.49,-84 296.72,-79.82 297.68,-74.45"/>
<polygon fill="#63b8ff" stroke="#63b8ff" points="300.39,-72.21 291.74,-66.08 294.68,-76.26 300.39,-72.21"/>
</a>
</g>
</g>
<!-- Node29 -->
<g id="Node000029" class="node">
<title>Node29</title>
<g id="a_Node000029"><a xlink:href="Engine_8cpp.html#a223c8bc63f228dc11177515e38eff2db" target="_top" xlink:title=" ">
<polygon fill="white" stroke="#666666" points="519,-93 370,-93 370,-74 519,-74 519,-93"/>
<text text-anchor="middle" x="444.5" y="-81" font-family="Helvetica,sans-Serif" font-size="10.00">GameEngine_OTRSigCheck</text>
</a>
</g>
</g>
<!-- Node28&#45;&gt;Node29 -->
<g id="edge29_Node000028_Node000029" class="edge">
<title>Node28&#45;&gt;Node29</title>
<g id="a_edge29_Node000028_Node000029"><a xlink:title=" ">
<path fill="none" stroke="#63b8ff" d="M327.93,-66.02C341.66,-68.1 356.31,-70.31 370.39,-72.44"/>
<polygon fill="#63b8ff" stroke="#63b8ff" points="370.12,-75.94 380.53,-73.98 371.17,-69.02 370.12,-75.94"/>
</a>
</g>
</g>
<!-- Node31 -->
<g id="Node000031" class="node">
<title>Node31</title>
<g id="a_Node000031"><a xlink:href="collision_8c.html#a2419eefe1cdba5b280babacc4a15fc6c" target="_top" xlink:title=" ">
<polygon fill="white" stroke="#666666" points="480,-56 409,-56 409,-37 480,-37 480,-56"/>
<text text-anchor="middle" x="444.5" y="-44" font-family="Helvetica,sans-Serif" font-size="10.00">is_cull_box</text>
</a>
</g>
</g>
<!-- Node28&#45;&gt;Node31 -->
<g id="edge31_Node000028_Node000031" class="edge">
<title>Node28&#45;&gt;Node31</title>
<g id="a_edge31_Node000028_Node000031"><a xlink:title=" ">
<path fill="none" stroke="#63b8ff" d="M334.01,-52.63C355.63,-51.42 378.93,-50.12 398.45,-49.02"/>
<polygon fill="#63b8ff" stroke="#63b8ff" points="398.79,-52.51 408.58,-48.46 398.4,-45.52 398.79,-52.51"/>
</a>
</g>
</g>
<!-- Node32 -->
<g id="Node000032" class="node">
<title>Node32</title>
<g id="a_Node000032"><a xlink:href="collision_8c.html#ae34213badc2dd781cab43c88b1e3fdce" target="_top" xlink:title=" ">
<polygon fill="white" stroke="#666666" points="499,-19 390,-19 390,0 499,0 499,-19"/>
<text text-anchor="middle" x="444.5" y="-7" font-family="Helvetica,sans-Serif" font-size="10.00">set_vertex_colours</text>
</a>
</g>
</g>
<!-- Node28&#45;&gt;Node32 -->
<g id="edge33_Node000028_Node000032" class="edge">
<title>Node28&#45;&gt;Node32</title>
<g id="a_edge33_Node000028_Node000032"><a xlink:title=" ">
<path fill="none" stroke="#63b8ff" d="M300.46,-46.97C320.8,-41.52 346.83,-34.59 370,-28.5 378.61,-26.24 387.8,-23.85 396.66,-21.55"/>
<polygon fill="#63b8ff" stroke="#63b8ff" points="397.67,-24.91 406.47,-19.01 395.91,-18.13 397.67,-24.91"/>
</a>
</g>
</g>
<!-- Node30 -->
<g id="Node000030" class="node">
<title>Node30</title>
<g id="a_Node000030"><a xlink:href="string_8c.html#a008e171a518fe0e0352f31b245e03875" target="_top" xlink:title=" ">
<polygon fill="white" stroke="#666666" points="647.5,-75 603.5,-75 603.5,-56 647.5,-56 647.5,-75"/>
<text text-anchor="middle" x="625.5" y="-63" font-family="Helvetica,sans-Serif" font-size="10.00">strlen</text>
</a>
</g>
</g>
<!-- Node29&#45;&gt;Node30 -->
<g id="edge30_Node000029_Node000030" class="edge">
<title>Node29&#45;&gt;Node30</title>
<g id="a_edge30_Node000029_Node000030"><a xlink:title=" ">
<path fill="none" stroke="#63b8ff" d="M519.08,-76.1C545.03,-73.49 572.82,-70.7 593.35,-68.63"/>
<polygon fill="#63b8ff" stroke="#63b8ff" points="593.78,-72.11 603.38,-67.62 593.08,-65.14 593.78,-72.11"/>
</a>
</g>
</g>
<!-- Node31&#45;&gt;Node30 -->
<g id="edge32_Node000031_Node000030" class="edge">
<title>Node31&#45;&gt;Node30</title>
<g id="a_edge32_Node000031_Node000030"><a xlink:title=" ">
<path fill="none" stroke="#63b8ff" d="M480.01,-50.16C512.78,-53.64 561.6,-58.82 593.25,-62.18"/>
<polygon fill="#63b8ff" stroke="#63b8ff" points="592.96,-65.67 603.27,-63.25 593.7,-58.71 592.96,-65.67"/>
</a>
</g>
</g>
</g>
</svg>
