<?xml version="1.0" encoding="UTF-8" standalone="no"?>
<!DOCTYPE svg PUBLIC "-//W3C//DTD SVG 1.1//EN"
 "http://www.w3.org/Graphics/SVG/1.1/DTD/svg11.dtd">
<!-- Generated by graphviz version 2.43.0 (0)
 -->
<!-- Title: OLakitu Pages: 1 -->
<!--zoomable 613 -->

<svg id="main" version="1.1" xmlns="http://www.w3.org/2000/svg" xmlns:xlink="http://www.w3.org/1999/xlink" xml:space="preserve" onload="init(evt)">

<style type="text/css"><![CDATA[
.node, .edge {opacity: 0.7;}
.node.selected, .edge.selected {opacity: 1;}
.edge:hover path { stroke: red; }
.edge:hover polygon { stroke: red; fill: red; }
]]></style>

<defs>
  <circle id="rim" cx="0" cy="0" r="7"/>
  <circle id="rim2" cx="0" cy="0" r="3.5"/>
  <g id="zoomPlus">
    <use xlink:href="#rim" fill="#404040"><set attributeName="fill" to="#808080" begin="zoomplus.mouseover" end="zoomplus.mouseout"/></use>
    <path d="M-4,0h8M0,-4v8" fill="none" stroke="white" stroke-width="1.5" pointer-events="none"/>
  </g>
  <g id="zoomMin">
    <use xlink:href="#rim" fill="#404040"><set attributeName="fill" to="#808080" begin="zoomminus.mouseover" end="zoomminus.mouseout"/></use>
    <path d="M-4,0h8" fill="none" stroke="white" stroke-width="1.5" pointer-events="none"/>
  </g>
  <g id="arrowUp" transform="translate(30 24)">
    <use xlink:href="#rim"/>
    <path pointer-events="none" fill="none" stroke="white" stroke-width="1.5" d="M0,-3.0v7 M-2.5,-0.5L0,-3.0L2.5,-0.5"/>
  </g>
  <g id="arrowRight" transform="rotate(90) translate(36 -43)">
    <use xlink:href="#rim"/>
    <path pointer-events="none" fill="none" stroke="white" stroke-width="1.5" d="M0,-3.0v7 M-2.5,-0.5L0,-3.0L2.5,-0.5"/>
  </g>
  <g id="arrowDown" transform="rotate(180) translate(-30 -48)">
    <use xlink:href="#rim"/>
    <path pointer-events="none" fill="none" stroke="white" stroke-width="1.5" d="M0,-3.0v7 M-2.5,-0.5L0,-3.0L2.5,-0.5"/>
  </g>
  <g id="arrowLeft" transform="rotate(270) translate(-36 17)">
    <use xlink:href="#rim"/>
    <path pointer-events="none" fill="none" stroke="white" stroke-width="1.5" d="M0,-3.0v7 M-2.5,-0.5L0,-3.0L2.5,-0.5"/>
  </g>
  <g id="resetDef">
    <use xlink:href="#rim2" fill="#404040"><set attributeName="fill" to="#808080" begin="reset.mouseover" end="reset.mouseout"/></use>
  </g>
</defs>
<script type="application/ecmascript">
var viewWidth = 1124;
var viewHeight = 613;
var sectionId = 'dynsection-1';
</script>
<script type="application/ecmascript" xlink:href="svg.min.js"/>
<svg id="graph" class="graph">
<g id="viewport">
<title>OLakitu</title>
<!-- Node1 -->
<g id="Node000001" class="node">
<title>Node1</title>
<g id="a_Node000001"><a xlink:title=" ">
<polygon fill="#999999" stroke="#666666" points="739.05,-19 685.05,-19 685.05,0 739.05,0 739.05,-19"/>
<text text-anchor="middle" x="712.05" y="-7" font-family="Helvetica,sans-Serif" font-size="10.00">OLakitu</text>
</a>
</g>
</g>
<!-- Node2 -->
<g id="Node000002" class="node">
<title>Node2</title>
<g id="a_Node000002"><a xlink:href="classOObject.html" target="_top" xlink:title=" ">
<polygon fill="white" stroke="#666666" points="740.05,-85 684.05,-85 684.05,-66 740.05,-66 740.05,-85"/>
<text text-anchor="middle" x="712.05" y="-73" font-family="Helvetica,sans-Serif" font-size="10.00">OObject</text>
</a>
</g>
</g>
<!-- Node2&#45;&gt;Node1 -->
<g id="edge1_Node000001_Node000002" class="edge">
<title>Node2&#45;&gt;Node1</title>
<g id="a_edge1_Node000001_Node000002"><a xlink:title=" ">
<path fill="none" stroke="#63b8ff" d="M712.05,-55.58C712.05,-43.63 712.05,-28.72 712.05,-19.41"/>
<polygon fill="#63b8ff" stroke="#63b8ff" points="708.55,-55.87 712.05,-65.87 715.55,-55.87 708.55,-55.87"/>
</a>
</g>
</g>
<!-- Node3 -->
<g id="Node000003" class="node">
<title>Node3</title>
<g id="a_Node000003"><a xlink:title=" ">
<polygon fill="white" stroke="#666666" points="900.05,-169 850.05,-169 850.05,-150 900.05,-150 900.05,-169"/>
<text text-anchor="middle" x="875.05" y="-157" font-family="Helvetica,sans-Serif" font-size="10.00">uint8_t</text>
</a>
</g>
</g>
<!-- Node3&#45;&gt;Node2 -->
<g id="edge2_Node000002_Node000003" class="edge">
<title>Node3&#45;&gt;Node2</title>
<g id="a_edge2_Node000002_Node000003"><a xlink:title=" ">
<path fill="none" stroke="#9a32cd" stroke-dasharray="5,2" d="M850.87,-144.99C829.94,-133.45 798.77,-116.6 771.05,-103 758.14,-96.67 743.39,-90.04 731.87,-85"/>
<polygon fill="#9a32cd" stroke="#9a32cd" points="849.27,-148.11 859.71,-149.89 852.66,-141.99 849.27,-148.11"/>
</a>
</g>
<text text-anchor="middle" x="823.55" y="-111.5" font-family="Helvetica,sans-Serif" font-size="10.00" fill="grey"> uuid</text>
</g>
<!-- Node4 -->
<g id="Node000004" class="node">
<title>Node4</title>
<g id="a_Node000004"><a xlink:href="structObject.html" target="_top" xlink:title=" ">
<polygon fill="white" stroke="#666666" points="560.05,-169 512.05,-169 512.05,-150 560.05,-150 560.05,-169"/>
<text text-anchor="middle" x="536.05" y="-157" font-family="Helvetica,sans-Serif" font-size="10.00">Object</text>
</a>
</g>
</g>
<!-- Node4&#45;&gt;Node2 -->
<g id="edge3_Node000002_Node000004" class="edge">
<title>Node4&#45;&gt;Node2</title>
<g id="a_edge3_Node000002_Node000004"><a xlink:title=" ">
<path fill="none" stroke="#9a32cd" stroke-dasharray="5,2" d="M564.08,-145.44C600.47,-128.48 662.98,-99.36 693.79,-85"/>
<polygon fill="#9a32cd" stroke="#9a32cd" points="562.14,-142.48 554.55,-149.88 565.09,-148.83 562.14,-142.48"/>
</a>
</g>
<text text-anchor="middle" x="661.05" y="-111.5" font-family="Helvetica,sans-Serif" font-size="10.00" fill="grey"> o</text>
</g>
<!-- Node5 -->
<g id="Node000005" class="node">
<title>Node5</title>
<g id="a_Node000005"><a xlink:title=" ">
<polygon fill="white" stroke="#666666" points="425.05,-352 393.05,-352 393.05,-333 425.05,-333 425.05,-352"/>
<text text-anchor="middle" x="409.05" y="-340" font-family="Helvetica,sans-Serif" font-size="10.00">f32</text>
</a>
</g>
</g>
<!-- Node5&#45;&gt;Node4 -->
<g id="edge4_Node000004_Node000005" class="edge">
<title>Node5&#45;&gt;Node4</title>
<g id="a_edge4_Node000004_Node000005"><a xlink:title=" ">
<path fill="none" stroke="#9a32cd" stroke-dasharray="5,2" d="M403.83,-323.06C396.36,-292.31 386.71,-230.34 418.05,-194 443.26,-164.75 466.44,-188.29 503.05,-176 508.57,-174.15 514.38,-171.62 519.57,-169.15"/>
<polygon fill="#9a32cd" stroke="#9a32cd" points="400.48,-324.09 406.41,-332.88 407.25,-322.32 400.48,-324.09"/>
</a>
</g>
<text text-anchor="middle" x="452.55" y="-290.5" font-family="Helvetica,sans-Serif" font-size="10.00" fill="grey"> offset</text>
<text text-anchor="middle" x="452.55" y="-279.5" font-family="Helvetica,sans-Serif" font-size="10.00" fill="grey">origin_pos</text>
<text text-anchor="middle" x="452.55" y="-268.5" font-family="Helvetica,sans-Serif" font-size="10.00" fill="grey">pos</text>
<text text-anchor="middle" x="452.55" y="-257.5" font-family="Helvetica,sans-Serif" font-size="10.00" fill="grey">sizeScaling</text>
<text text-anchor="middle" x="452.55" y="-246.5" font-family="Helvetica,sans-Serif" font-size="10.00" fill="grey">surfaceHeight</text>
<text text-anchor="middle" x="452.55" y="-235.5" font-family="Helvetica,sans-Serif" font-size="10.00" fill="grey">unk_01C</text>
<text text-anchor="middle" x="452.55" y="-224.5" font-family="Helvetica,sans-Serif" font-size="10.00" fill="grey">unk_034</text>
<text text-anchor="middle" x="452.55" y="-213.5" font-family="Helvetica,sans-Serif" font-size="10.00" fill="grey">velocity</text>
</g>
<!-- Node6 -->
<g id="Node000006" class="node">
<title>Node6</title>
<g id="a_Node000006"><a xlink:title=" ">
<polygon fill="white" stroke="#666666" points="44.05,-352 10.05,-352 10.05,-333 44.05,-333 44.05,-352"/>
<text text-anchor="middle" x="27.05" y="-340" font-family="Helvetica,sans-Serif" font-size="10.00">s32</text>
</a>
</g>
</g>
<!-- Node6&#45;&gt;Node1 -->
<g id="edge29_Node000001_Node000006" class="edge">
<title>Node6&#45;&gt;Node1</title>
<g id="a_edge29_Node000001_Node000006"><a xlink:title=" ">
<path fill="none" stroke="#9a32cd" stroke-dasharray="5,2" d="M16.19,-323.74C14.89,-320.9 13.78,-317.94 13.05,-315 0.11,-262.8 -7.53,-243.68 13.05,-194 25.31,-164.38 37.78,-161.37 64.05,-143 98.59,-118.84 109.77,-115.43 150.05,-103 349.65,-41.42 602.52,-18.48 684.83,-12.35"/>
<polygon fill="#9a32cd" stroke="#9a32cd" points="13.14,-325.47 20.96,-332.62 19.31,-322.16 13.14,-325.47"/>
</a>
</g>
<text text-anchor="middle" x="174.55" y="-111.5" font-family="Helvetica,sans-Serif" font-size="10.00" fill="grey"> _playerId</text>
</g>
<!-- Node6&#45;&gt;Node2 -->
<g id="edge21_Node000002_Node000006" class="edge">
<title>Node6&#45;&gt;Node2</title>
<g id="a_edge21_Node000002_Node000006"><a xlink:title=" ">
<path fill="none" stroke="#9a32cd" stroke-dasharray="5,2" d="M22.54,-322.94C16.23,-292 8.86,-229.76 41.05,-194 128.78,-96.55 567.99,-79.76 683.94,-77.01"/>
<polygon fill="#9a32cd" stroke="#9a32cd" points="19.15,-323.81 24.74,-332.81 25.98,-322.29 19.15,-323.81"/>
</a>
</g>
<text text-anchor="middle" x="167.05" y="-157" font-family="Helvetica,sans-Serif" font-size="10.00" fill="grey"> _objectIndex</text>
</g>
<!-- Node6&#45;&gt;Node4 -->
<g id="edge5_Node000004_Node000006" class="edge">
<title>Node6&#45;&gt;Node4</title>
<g id="a_edge5_Node000004_Node000006"><a xlink:title=" ">
<path fill="none" stroke="#9a32cd" stroke-dasharray="5,2" d="M35.18,-323.45C36.25,-320.66 37.25,-317.78 38.05,-315 45.54,-288.8 37.62,-212.05 58.05,-194 95.13,-161.23 454.98,-187.75 503.05,-176 509.2,-174.5 515.58,-171.8 521.07,-169.08"/>
<polygon fill="#9a32cd" stroke="#9a32cd" points="31.88,-322.27 31.23,-332.85 38.33,-324.99 31.88,-322.27"/>
</a>
</g>
<text text-anchor="middle" x="79.55" y="-279.5" font-family="Helvetica,sans-Serif" font-size="10.00" fill="grey"> status</text>
<text text-anchor="middle" x="79.55" y="-268.5" font-family="Helvetica,sans-Serif" font-size="10.00" fill="grey">timer</text>
<text text-anchor="middle" x="79.55" y="-257.5" font-family="Helvetica,sans-Serif" font-size="10.00" fill="grey">unk_048</text>
<text text-anchor="middle" x="79.55" y="-246.5" font-family="Helvetica,sans-Serif" font-size="10.00" fill="grey">unk_04C</text>
<text text-anchor="middle" x="79.55" y="-235.5" font-family="Helvetica,sans-Serif" font-size="10.00" fill="grey">unk_058</text>
<text text-anchor="middle" x="79.55" y="-224.5" font-family="Helvetica,sans-Serif" font-size="10.00" fill="grey">unk_05C</text>
</g>
<!-- Node7 -->
<g id="Node000007" class="node">
<title>Node7</title>
<g id="a_Node000007"><a xlink:title=" ">
<polygon fill="white" stroke="#666666" points="950.55,-352 875.55,-352 875.55,-333 950.55,-333 950.55,-352"/>
<text text-anchor="middle" x="913.05" y="-340" font-family="Helvetica,sans-Serif" font-size="10.00">const char *</text>
</a>
</g>
</g>
<!-- Node7&#45;&gt;Node2 -->
<g id="edge19_Node000002_Node000007" class="edge">
<title>Node7&#45;&gt;Node2</title>
<g id="a_edge19_Node000002_Node000007"><a xlink:title=" ">
<path fill="none" stroke="#9a32cd" stroke-dasharray="5,2" d="M916.59,-322.59C921.29,-291.13 925.37,-228.15 891.05,-194 851.26,-154.41 808.82,-212.34 766.05,-176 740.12,-153.97 761.81,-131.37 743.05,-103 738.44,-96.03 731.49,-89.86 725.34,-85.22"/>
<polygon fill="#9a32cd" stroke="#9a32cd" points="913.11,-322.2 914.91,-332.64 920.01,-323.36 913.11,-322.2"/>
</a>
</g>
<text text-anchor="middle" x="803.55" y="-168" font-family="Helvetica,sans-Serif" font-size="10.00" fill="grey"> Model</text>
<text text-anchor="middle" x="803.55" y="-157" font-family="Helvetica,sans-Serif" font-size="10.00" fill="grey">Name</text>
<text text-anchor="middle" x="803.55" y="-146" font-family="Helvetica,sans-Serif" font-size="10.00" fill="grey">ResourceName</text>
</g>
<!-- Node7&#45;&gt;Node4 -->
<g id="edge6_Node000004_Node000007" class="edge">
<title>Node7&#45;&gt;Node4</title>
<g id="a_edge6_Node000004_Node000007"><a xlink:title=" ">
<path fill="none" stroke="#9a32cd" stroke-dasharray="5,2" d="M865.28,-331.96C847.43,-327.45 830.02,-321.61 824.05,-315 787.35,-274.38 841.58,-230.79 801.05,-194 768.5,-164.45 647.46,-182.9 604.05,-176 589.34,-173.66 573.07,-169.99 560.13,-166.81"/>
<polygon fill="#9a32cd" stroke="#9a32cd" points="864.64,-335.4 875.17,-334.32 866.26,-328.59 864.64,-335.4"/>
</a>
</g>
<text text-anchor="middle" x="857.55" y="-257.5" font-family="Helvetica,sans-Serif" font-size="10.00" fill="grey"> activeTLUT</text>
<text text-anchor="middle" x="857.55" y="-246.5" font-family="Helvetica,sans-Serif" font-size="10.00" fill="grey">activeTexture</text>
</g>
<!-- Node8 -->
<g id="Node000008" class="node">
<title>Node8</title>
<g id="a_Node000008"><a xlink:title=" ">
<polygon fill="white" stroke="#666666" points="140.55,-352 111.55,-352 111.55,-333 140.55,-333 140.55,-352"/>
<text text-anchor="middle" x="126.05" y="-340" font-family="Helvetica,sans-Serif" font-size="10.00">u8</text>
</a>
</g>
</g>
<!-- Node8&#45;&gt;Node4 -->
<g id="edge7_Node000004_Node000008" class="edge">
<title>Node8&#45;&gt;Node4</title>
<g id="a_edge7_Node000004_Node000008"><a xlink:title=" ">
<path fill="none" stroke="#9a32cd" stroke-dasharray="5,2" d="M118.64,-323.11C107.45,-291.96 90.85,-228.82 124.05,-194 153.14,-163.49 462.13,-186.16 503.05,-176 509.19,-174.48 515.57,-171.78 521.06,-169.05"/>
<polygon fill="#9a32cd" stroke="#9a32cd" points="115.46,-324.59 122.28,-332.69 122,-322.1 115.46,-324.59"/>
</a>
</g>
<text text-anchor="middle" x="159.55" y="-307" font-family="Helvetica,sans-Serif" font-size="10.00" fill="grey"> textureHeight</text>
<text text-anchor="middle" x="159.55" y="-296" font-family="Helvetica,sans-Serif" font-size="10.00" fill="grey">textureWidth</text>
<text text-anchor="middle" x="159.55" y="-285" font-family="Helvetica,sans-Serif" font-size="10.00" fill="grey">tlutList</text>
<text text-anchor="middle" x="159.55" y="-274" font-family="Helvetica,sans-Serif" font-size="10.00" fill="grey">unk_0D5</text>
<text text-anchor="middle" x="159.55" y="-263" font-family="Helvetica,sans-Serif" font-size="10.00" fill="grey">unk_0D6</text>
<text text-anchor="middle" x="159.55" y="-252" font-family="Helvetica,sans-Serif" font-size="10.00" fill="grey">unk_0D7</text>
<text text-anchor="middle" x="159.55" y="-241" font-family="Helvetica,sans-Serif" font-size="10.00" fill="grey">unk_0D8</text>
<text text-anchor="middle" x="159.55" y="-230" font-family="Helvetica,sans-Serif" font-size="10.00" fill="grey">unk_0DB</text>
<text text-anchor="middle" x="159.55" y="-219" font-family="Helvetica,sans-Serif" font-size="10.00" fill="grey">unk_0DC</text>
<text text-anchor="middle" x="159.55" y="-208" font-family="Helvetica,sans-Serif" font-size="10.00" fill="grey">unk_0DD</text>
<text text-anchor="middle" x="159.55" y="-197" font-family="Helvetica,sans-Serif" font-size="10.00" fill="grey">...</text>
</g>
<!-- Node9 -->
<g id="Node000009" class="node">
<title>Node9</title>
<g id="a_Node000009"><a xlink:title=" ">
<polygon fill="white" stroke="#666666" points="541.05,-352 461.05,-352 461.05,-333 541.05,-333 541.05,-352"/>
<text text-anchor="middle" x="501.05" y="-340" font-family="Helvetica,sans-Serif" font-size="10.00">const char **</text>
</a>
</g>
</g>
<!-- Node9&#45;&gt;Node4 -->
<g id="edge8_Node000004_Node000009" class="edge">
<title>Node9&#45;&gt;Node4</title>
<g id="a_edge8_Node000004_Node000009"><a xlink:title=" ">
<path fill="none" stroke="#9a32cd" stroke-dasharray="5,2" d="M496.77,-322.77C491.11,-293.83 483.83,-237.11 502.05,-194 506.37,-183.77 515.48,-175.07 523.19,-169.1"/>
<polygon fill="#9a32cd" stroke="#9a32cd" points="493.38,-323.66 498.88,-332.72 500.23,-322.22 493.38,-323.66"/>
</a>
</g>
<text text-anchor="middle" x="530.05" y="-252" font-family="Helvetica,sans-Serif" font-size="10.00" fill="grey"> textureList</text>
</g>
<!-- Node10 -->
<g id="Node000010" class="node">
<title>Node10</title>
<g id="a_Node000010"><a xlink:title=" ">
<polygon fill="white" stroke="#666666" points="597.05,-352 563.05,-352 563.05,-333 597.05,-333 597.05,-352"/>
<text text-anchor="middle" x="580.05" y="-340" font-family="Helvetica,sans-Serif" font-size="10.00">Gfx</text>
</a>
</g>
</g>
<!-- Node10&#45;&gt;Node4 -->
<g id="edge9_Node000004_Node000010" class="edge">
<title>Node10&#45;&gt;Node4</title>
<g id="a_edge9_Node000004_Node000010"><a xlink:title=" ">
<path fill="none" stroke="#9a32cd" stroke-dasharray="5,2" d="M579.81,-322.66C578.88,-293.96 574.84,-238.01 558.05,-194 554.52,-184.77 548.14,-175.47 543.15,-169.02"/>
<polygon fill="#9a32cd" stroke="#9a32cd" points="576.31,-322.94 580.04,-332.86 583.31,-322.78 576.31,-322.94"/>
</a>
</g>
<text text-anchor="middle" x="597.05" y="-252" font-family="Helvetica,sans-Serif" font-size="10.00" fill="grey"> model</text>
</g>
<!-- Node11 -->
<g id="Node000011" class="node">
<title>Node11</title>
<g id="a_Node000011"><a xlink:title=" ">
<polygon fill="white" stroke="#666666" points="653.55,-352 620.55,-352 620.55,-333 653.55,-333 653.55,-352"/>
<text text-anchor="middle" x="637.05" y="-340" font-family="Helvetica,sans-Serif" font-size="10.00">Vtx</text>
</a>
</g>
</g>
<!-- Node11&#45;&gt;Node4 -->
<g id="edge10_Node000004_Node000011" class="edge">
<title>Node11&#45;&gt;Node4</title>
<g id="a_edge10_Node000004_Node000011"><a xlink:title=" ">
<path fill="none" stroke="#9a32cd" stroke-dasharray="5,2" d="M636.47,-322.28C635.04,-287 630.29,-213.68 615.05,-194 601.82,-176.92 578.23,-168.44 560.27,-164.3"/>
<polygon fill="#9a32cd" stroke="#9a32cd" points="632.98,-322.79 636.84,-332.66 639.98,-322.54 632.98,-322.79"/>
</a>
</g>
<text text-anchor="middle" x="654.55" y="-252" font-family="Helvetica,sans-Serif" font-size="10.00" fill="grey"> vertex</text>
</g>
<!-- Node12 -->
<g id="Node000012" class="node">
<title>Node12</title>
<g id="a_Node000012"><a xlink:title=" ">
<polygon fill="white" stroke="#666666" points="709.55,-352 680.55,-352 680.55,-333 709.55,-333 709.55,-352"/>
<text text-anchor="middle" x="695.05" y="-340" font-family="Helvetica,sans-Serif" font-size="10.00">s8</text>
</a>
</g>
</g>
<!-- Node12&#45;&gt;Node4 -->
<g id="edge11_Node000004_Node000012" class="edge">
<title>Node12&#45;&gt;Node4</title>
<g id="a_edge11_Node000004_Node000012"><a xlink:title=" ">
<path fill="none" stroke="#9a32cd" stroke-dasharray="5,2" d="M694.77,-322.54C693.85,-287.05 689.9,-212.47 673.05,-194 671.12,-191.89 598.91,-174.99 560.12,-166.03"/>
<polygon fill="#9a32cd" stroke="#9a32cd" points="691.28,-323.02 694.98,-332.94 698.28,-322.88 691.28,-323.02"/>
</a>
</g>
<text text-anchor="middle" x="735.05" y="-307" font-family="Helvetica,sans-Serif" font-size="10.00" fill="grey"> isTimerActive</text>
<text text-anchor="middle" x="735.05" y="-296" font-family="Helvetica,sans-Serif" font-size="10.00" fill="grey">textureListIndex</text>
<text text-anchor="middle" x="735.05" y="-285" font-family="Helvetica,sans-Serif" font-size="10.00" fill="grey">unk_078</text>
<text text-anchor="middle" x="735.05" y="-274" font-family="Helvetica,sans-Serif" font-size="10.00" fill="grey">unk_0CA</text>
<text text-anchor="middle" x="735.05" y="-263" font-family="Helvetica,sans-Serif" font-size="10.00" fill="grey">unk_0CC</text>
<text text-anchor="middle" x="735.05" y="-252" font-family="Helvetica,sans-Serif" font-size="10.00" fill="grey">unk_0CD</text>
<text text-anchor="middle" x="735.05" y="-241" font-family="Helvetica,sans-Serif" font-size="10.00" fill="grey">unk_0CE</text>
<text text-anchor="middle" x="735.05" y="-230" font-family="Helvetica,sans-Serif" font-size="10.00" fill="grey">unk_0CF</text>
<text text-anchor="middle" x="735.05" y="-219" font-family="Helvetica,sans-Serif" font-size="10.00" fill="grey">unk_0D0</text>
<text text-anchor="middle" x="735.05" y="-208" font-family="Helvetica,sans-Serif" font-size="10.00" fill="grey">unk_0D1</text>
<text text-anchor="middle" x="735.05" y="-197" font-family="Helvetica,sans-Serif" font-size="10.00" fill="grey">...</text>
</g>
<!-- Node13 -->
<g id="Node000013" class="node">
<title>Node13</title>
<g id="a_Node000013"><a xlink:href="structSplineControlPoint.html" target="_top" xlink:title=" ">
<polygon fill="white" stroke="#666666" points="403.55,-528 296.55,-528 296.55,-509 403.55,-509 403.55,-528"/>
<text text-anchor="middle" x="350.05" y="-516" font-family="Helvetica,sans-Serif" font-size="10.00">SplineControlPoint</text>
</a>
</g>
</g>
<!-- Node13&#45;&gt;Node4 -->
<g id="edge12_Node000004_Node000013" class="edge">
<title>Node13&#45;&gt;Node4</title>
<g id="a_edge12_Node000004_Node000013"><a xlink:title=" ">
<path fill="none" stroke="#9a32cd" stroke-dasharray="5,2" d="M413.53,-510.04C513.39,-494.39 703.26,-447.77 776.05,-315 801.9,-267.84 812.04,-233.96 776.05,-194 750.33,-165.45 641.96,-182.28 604.05,-176 589.35,-173.57 573.08,-169.89 560.14,-166.73"/>
<polygon fill="#9a32cd" stroke="#9a32cd" points="412.94,-506.59 403.57,-511.55 413.98,-513.51 412.94,-506.59"/>
</a>
</g>
<text text-anchor="middle" x="794.55" y="-340" font-family="Helvetica,sans-Serif" font-size="10.00" fill="grey"> controlPoints</text>
</g>
<!-- Node15 -->
<g id="Node000015" class="node">
<title>Node15</title>
<g id="a_Node000015"><a xlink:href="structSplineData.html" target="_top" xlink:title=" ">
<polygon fill="white" stroke="#666666" points="229.05,-352 159.05,-352 159.05,-333 229.05,-333 229.05,-352"/>
<text text-anchor="middle" x="194.05" y="-340" font-family="Helvetica,sans-Serif" font-size="10.00">SplineData</text>
</a>
</g>
</g>
<!-- Node13&#45;&gt;Node15 -->
<g id="edge16_Node000015_Node000013" class="edge">
<title>Node13&#45;&gt;Node15</title>
<g id="a_edge16_Node000015_Node000013"><a xlink:title=" ">
<path fill="none" stroke="#9a32cd" stroke-dasharray="5,2" d="M285.94,-511.59C240.42,-506.72 186.16,-499.3 179.05,-491 144.05,-450.17 165.35,-422 179.05,-370 180.72,-363.66 184.29,-357.25 187.53,-352.31"/>
<polygon fill="#9a32cd" stroke="#9a32cd" points="285.79,-515.09 296.1,-512.65 286.51,-508.13 285.79,-515.09"/>
</a>
</g>
<text text-anchor="middle" x="212.55" y="-428" font-family="Helvetica,sans-Serif" font-size="10.00" fill="grey"> controlPoints</text>
</g>
<!-- Node14 -->
<g id="Node000014" class="node">
<title>Node14</title>
<g id="a_Node000014"><a xlink:title=" ">
<polygon fill="white" stroke="#666666" points="285.05,-605 251.05,-605 251.05,-586 285.05,-586 285.05,-605"/>
<text text-anchor="middle" x="268.05" y="-593" font-family="Helvetica,sans-Serif" font-size="10.00">s16</text>
</a>
</g>
</g>
<!-- Node14&#45;&gt;Node4 -->
<g id="edge17_Node000004_Node000014" class="edge">
<title>Node14&#45;&gt;Node4</title>
<g id="a_edge17_Node000004_Node000014"><a xlink:title=" ">
<path fill="none" stroke="#9a32cd" stroke-dasharray="5,2" d="M265.79,-575.55C257.66,-503.64 233.12,-248.97 286.05,-194 319.61,-159.14 456.3,-188.48 503.05,-176 509.04,-174.4 515.28,-171.75 520.7,-169.1"/>
<polygon fill="#9a32cd" stroke="#9a32cd" points="262.35,-576.26 266.98,-585.79 269.3,-575.46 262.35,-576.26"/>
</a>
</g>
<text text-anchor="middle" x="285.05" y="-483" font-family="Helvetica,sans-Serif" font-size="10.00" fill="grey"> primAlpha</text>
<text text-anchor="middle" x="285.05" y="-472" font-family="Helvetica,sans-Serif" font-size="10.00" fill="grey">state</text>
<text text-anchor="middle" x="285.05" y="-461" font-family="Helvetica,sans-Serif" font-size="10.00" fill="grey">type</text>
<text text-anchor="middle" x="285.05" y="-450" font-family="Helvetica,sans-Serif" font-size="10.00" fill="grey">unk_084</text>
<text text-anchor="middle" x="285.05" y="-439" font-family="Helvetica,sans-Serif" font-size="10.00" fill="grey">unk_09C</text>
<text text-anchor="middle" x="285.05" y="-428" font-family="Helvetica,sans-Serif" font-size="10.00" fill="grey">unk_09E</text>
<text text-anchor="middle" x="285.05" y="-417" font-family="Helvetica,sans-Serif" font-size="10.00" fill="grey">unk_0A2</text>
<text text-anchor="middle" x="285.05" y="-406" font-family="Helvetica,sans-Serif" font-size="10.00" fill="grey">unk_0A8</text>
<text text-anchor="middle" x="285.05" y="-395" font-family="Helvetica,sans-Serif" font-size="10.00" fill="grey">unk_0AA</text>
<text text-anchor="middle" x="285.05" y="-384" font-family="Helvetica,sans-Serif" font-size="10.00" fill="grey">unk_0AC</text>
<text text-anchor="middle" x="285.05" y="-373" font-family="Helvetica,sans-Serif" font-size="10.00" fill="grey">...</text>
</g>
<!-- Node14&#45;&gt;Node13 -->
<g id="edge13_Node000013_Node000014" class="edge">
<title>Node14&#45;&gt;Node13</title>
<g id="a_edge13_Node000013_Node000014"><a xlink:title=" ">
<path fill="none" stroke="#9a32cd" stroke-dasharray="5,2" d="M284.98,-579.01C301.88,-563.55 327.22,-540.38 340.75,-528"/>
<polygon fill="#9a32cd" stroke="#9a32cd" points="282.47,-576.56 277.45,-585.9 287.2,-581.73 282.47,-576.56"/>
</a>
</g>
<text text-anchor="middle" x="339.05" y="-560" font-family="Helvetica,sans-Serif" font-size="10.00" fill="grey"> pos</text>
<text text-anchor="middle" x="339.05" y="-549" font-family="Helvetica,sans-Serif" font-size="10.00" fill="grey">velocity</text>
</g>
<!-- Node14&#45;&gt;Node15 -->
<g id="edge15_Node000015_Node000014" class="edge">
<title>Node14&#45;&gt;Node15</title>
<g id="a_edge15_Node000015_Node000014"><a xlink:title=" ">
<path fill="none" stroke="#9a32cd" stroke-dasharray="5,2" d="M241.27,-585.32C216.54,-575.33 180.99,-556.82 163.05,-528 143.57,-496.73 131.86,-424.68 159.05,-370 162.78,-362.49 169.77,-356.54 176.52,-352.2"/>
<polygon fill="#9a32cd" stroke="#9a32cd" points="240.22,-588.66 250.81,-588.97 242.72,-582.13 240.22,-588.66"/>
</a>
</g>
<text text-anchor="middle" x="208.55" y="-516" font-family="Helvetica,sans-Serif" font-size="10.00" fill="grey"> numControlPoints</text>
</g>
<!-- Node15&#45;&gt;Node4 -->
<g id="edge14_Node000004_Node000015" class="edge">
<title>Node15&#45;&gt;Node4</title>
<g id="a_edge14_Node000004_Node000015"><a xlink:title=" ">
<path fill="none" stroke="#9a32cd" stroke-dasharray="5,2" d="M197.17,-322.79C203.74,-283.57 218.63,-196.15 221.05,-194 244.51,-173.14 472.64,-183.81 503.05,-176 509.06,-174.46 515.3,-171.82 520.72,-169.16"/>
<polygon fill="#9a32cd" stroke="#9a32cd" points="193.68,-322.43 195.48,-332.87 200.58,-323.58 193.68,-322.43"/>
</a>
</g>
<text text-anchor="middle" x="237.55" y="-252" font-family="Helvetica,sans-Serif" font-size="10.00" fill="grey"> spline</text>
</g>
<!-- Node16 -->
<g id="Node000016" class="node">
<title>Node16</title>
<g id="a_Node000016"><a xlink:title=" ">
<polygon fill="white" stroke="#666666" points="331.55,-352 296.55,-352 296.55,-333 331.55,-333 331.55,-352"/>
<text text-anchor="middle" x="314.05" y="-340" font-family="Helvetica,sans-Serif" font-size="10.00">u16</text>
</a>
</g>
</g>
<!-- Node16&#45;&gt;Node4 -->
<g id="edge18_Node000004_Node000016" class="edge">
<title>Node16&#45;&gt;Node4</title>
<g id="a_edge18_Node000004_Node000016"><a xlink:title=" ">
<path fill="none" stroke="#9a32cd" stroke-dasharray="5,2" d="M306.1,-323.27C294.01,-292.36 275.61,-229.57 308.05,-194 337.37,-161.85 461.06,-187.42 503.05,-176 509.03,-174.37 515.27,-171.72 520.69,-169.06"/>
<polygon fill="#9a32cd" stroke="#9a32cd" points="302.97,-324.87 310.02,-332.78 309.45,-322.2 302.97,-324.87"/>
</a>
</g>
<text text-anchor="middle" x="350.55" y="-290.5" font-family="Helvetica,sans-Serif" font-size="10.00" fill="grey"> animationTimer</text>
<text text-anchor="middle" x="350.55" y="-279.5" font-family="Helvetica,sans-Serif" font-size="10.00" fill="grey">boundingBoxSize</text>
<text text-anchor="middle" x="350.55" y="-268.5" font-family="Helvetica,sans-Serif" font-size="10.00" fill="grey">direction_angle</text>
<text text-anchor="middle" x="350.55" y="-257.5" font-family="Helvetica,sans-Serif" font-size="10.00" fill="grey">orientation</text>
<text text-anchor="middle" x="350.55" y="-246.5" font-family="Helvetica,sans-Serif" font-size="10.00" fill="grey">unk_09A</text>
<text text-anchor="middle" x="350.55" y="-235.5" font-family="Helvetica,sans-Serif" font-size="10.00" fill="grey">unk_0B8</text>
<text text-anchor="middle" x="350.55" y="-224.5" font-family="Helvetica,sans-Serif" font-size="10.00" fill="grey">unk_0C4</text>
<text text-anchor="middle" x="350.55" y="-213.5" font-family="Helvetica,sans-Serif" font-size="10.00" fill="grey">unk_0C6</text>
</g>
<!-- Node17 -->
<g id="Node000017" class="node">
<title>Node17</title>
<g id="a_Node000017"><a xlink:title=" ">
<polygon fill="white" stroke="#666666" points="494.05,-169 456.05,-169 456.05,-150 494.05,-150 494.05,-169"/>
<text text-anchor="middle" x="475.05" y="-157" font-family="Helvetica,sans-Serif" font-size="10.00">bool</text>
</a>
</g>
</g>
<!-- Node17&#45;&gt;Node2 -->
<g id="edge20_Node000002_Node000017" class="edge">
<title>Node17&#45;&gt;Node2</title>
<g id="a_edge20_Node000002_Node000017"><a xlink:title=" ">
<path fill="none" stroke="#9a32cd" stroke-dasharray="5,2" d="M483.9,-140.82C491.23,-128.11 502.91,-111.74 518.05,-103 545.65,-87.06 636.89,-80.26 683.74,-77.75"/>
<polygon fill="#9a32cd" stroke="#9a32cd" points="480.81,-139.17 479.14,-149.63 486.97,-142.49 480.81,-139.17"/>
</a>
</g>
<text text-anchor="middle" x="561.55" y="-111.5" font-family="Helvetica,sans-Serif" font-size="10.00" fill="grey"> bPendingDestroy</text>
</g>
<!-- Node18 -->
<g id="Node000018" class="node">
<title>Node18</title>
<g id="a_Node000018"><a xlink:href="structFVector.html" target="_top" xlink:title=" ">
<polygon fill="white" stroke="#666666" points="971.55,-169 918.55,-169 918.55,-150 971.55,-150 971.55,-169"/>
<text text-anchor="middle" x="945.05" y="-157" font-family="Helvetica,sans-Serif" font-size="10.00">FVector</text>
</a>
</g>
</g>
<!-- Node18&#45;&gt;Node2 -->
<g id="edge22_Node000002_Node000018" class="edge">
<title>Node18&#45;&gt;Node2</title>
<g id="a_edge22_Node000002_Node000018"><a xlink:title=" ">
<path fill="none" stroke="#9a32cd" stroke-dasharray="5,2" d="M923.06,-144.46C902.39,-131.85 870.2,-113.73 840.05,-103 801.62,-89.33 789.95,-93.45 750.05,-85 746.87,-84.33 743.55,-83.61 740.25,-82.88"/>
<polygon fill="#9a32cd" stroke="#9a32cd" points="921.36,-147.52 931.7,-149.82 925.05,-141.57 921.36,-147.52"/>
</a>
</g>
<text text-anchor="middle" x="916.55" y="-117" font-family="Helvetica,sans-Serif" font-size="10.00" fill="grey"> SpawnPos</text>
<text text-anchor="middle" x="916.55" y="-106" font-family="Helvetica,sans-Serif" font-size="10.00" fill="grey">SpawnScale</text>
</g>
<!-- Node19 -->
<g id="Node000019" class="node">
<title>Node19</title>
<g id="a_Node000019"><a xlink:title=" ">
<polygon fill="white" stroke="#666666" points="1015.05,-352 977.05,-352 977.05,-333 1015.05,-333 1015.05,-352"/>
<text text-anchor="middle" x="996.05" y="-340" font-family="Helvetica,sans-Serif" font-size="10.00">float</text>
</a>
</g>
</g>
<!-- Node19&#45;&gt;Node2 -->
<g id="edge26_Node000002_Node000019" class="edge">
<title>Node19&#45;&gt;Node2</title>
<g id="a_edge26_Node000002_Node000019"><a xlink:title=" ">
<path fill="none" stroke="#9a32cd" stroke-dasharray="5,2" d="M1000.13,-322.85C1009.53,-274.28 1026.42,-144.79 950.05,-103 910.9,-81.58 794.14,-91.89 750.05,-85 746.84,-84.5 743.5,-83.89 740.19,-83.22"/>
<polygon fill="#9a32cd" stroke="#9a32cd" points="996.65,-322.38 998.06,-332.88 1003.51,-323.79 996.65,-322.38"/>
</a>
</g>
<text text-anchor="middle" x="1017.05" y="-157" font-family="Helvetica,sans-Serif" font-size="10.00" fill="grey"> Speed</text>
</g>
<!-- Node19&#45;&gt;Node18 -->
<g id="edge23_Node000018_Node000019" class="edge">
<title>Node19&#45;&gt;Node18</title>
<g id="a_edge23_Node000018_Node000019"><a xlink:title=" ">
<path fill="none" stroke="#9a32cd" stroke-dasharray="5,2" d="M987.47,-323.72C986.24,-320.84 985.05,-317.86 984.05,-315 965.06,-260.68 951.18,-192.64 946.64,-169.03"/>
<polygon fill="#9a32cd" stroke="#9a32cd" points="984.3,-325.19 991.65,-332.83 990.67,-322.28 984.3,-325.19"/>
</a>
</g>
<text text-anchor="middle" x="989.05" y="-263" font-family="Helvetica,sans-Serif" font-size="10.00" fill="grey"> x</text>
<text text-anchor="middle" x="989.05" y="-252" font-family="Helvetica,sans-Serif" font-size="10.00" fill="grey">y</text>
<text text-anchor="middle" x="989.05" y="-241" font-family="Helvetica,sans-Serif" font-size="10.00" fill="grey">z</text>
</g>
<!-- Node20 -->
<g id="Node000020" class="node">
<title>Node20</title>
<g id="a_Node000020"><a xlink:href="structIRotator.html" target="_top" xlink:title=" ">
<polygon fill="white" stroke="#666666" points="1116.05,-169 1060.05,-169 1060.05,-150 1116.05,-150 1116.05,-169"/>
<text text-anchor="middle" x="1088.05" y="-157" font-family="Helvetica,sans-Serif" font-size="10.00">IRotator</text>
</a>
</g>
</g>
<!-- Node20&#45;&gt;Node2 -->
<g id="edge24_Node000002_Node000020" class="edge">
<title>Node20&#45;&gt;Node2</title>
<g id="a_edge24_Node000002_Node000020"><a xlink:title=" ">
<path fill="none" stroke="#9a32cd" stroke-dasharray="5,2" d="M1074.36,-142.34C1062.14,-129.17 1042.98,-111.42 1022.05,-103 965.85,-80.38 810.01,-93.64 750.05,-85 746.84,-84.54 743.49,-83.95 740.18,-83.3"/>
<polygon fill="#9a32cd" stroke="#9a32cd" points="1071.76,-144.68 1081.03,-149.82 1076.99,-140.02 1071.76,-144.68"/>
</a>
</g>
<text text-anchor="middle" x="1081.05" y="-111.5" font-family="Helvetica,sans-Serif" font-size="10.00" fill="grey"> SpawnRot</text>
</g>
<!-- Node21 -->
<g id="Node000021" class="node">
<title>Node21</title>
<g id="a_Node000021"><a xlink:title=" ">
<polygon fill="white" stroke="#666666" points="1116.05,-352 1060.05,-352 1060.05,-333 1116.05,-333 1116.05,-352"/>
<text text-anchor="middle" x="1088.05" y="-340" font-family="Helvetica,sans-Serif" font-size="10.00">uint16_t</text>
</a>
</g>
</g>
<!-- Node21&#45;&gt;Node20 -->
<g id="edge25_Node000020_Node000021" class="edge">
<title>Node21&#45;&gt;Node20</title>
<g id="a_edge25_Node000020_Node000021"><a xlink:title=" ">
<path fill="none" stroke="#9a32cd" stroke-dasharray="5,2" d="M1088.05,-322.38C1088.05,-283.54 1088.05,-196.79 1088.05,-169.14"/>
<polygon fill="#9a32cd" stroke="#9a32cd" points="1084.55,-322.77 1088.05,-332.77 1091.55,-322.77 1084.55,-322.77"/>
</a>
</g>
<text text-anchor="middle" x="1102.05" y="-263" font-family="Helvetica,sans-Serif" font-size="10.00" fill="grey"> pitch</text>
<text text-anchor="middle" x="1102.05" y="-252" font-family="Helvetica,sans-Serif" font-size="10.00" fill="grey">roll</text>
<text text-anchor="middle" x="1102.05" y="-241" font-family="Helvetica,sans-Serif" font-size="10.00" fill="grey">yaw</text>
</g>
<!-- Node22 -->
<g id="Node000022" class="node">
<title>Node22</title>
<g id="a_Node000022"><a xlink:title=" ">
<polygon fill="white" stroke="#666666" points="721.05,-169 613.05,-169 613.05,-150 721.05,-150 721.05,-169"/>
<text text-anchor="middle" x="667.05" y="-157" font-family="Helvetica,sans-Serif" font-size="10.00">vector&lt; Triangle &gt;</text>
</a>
</g>
</g>
<!-- Node22&#45;&gt;Node2 -->
<g id="edge27_Node000002_Node000022" class="edge">
<title>Node22&#45;&gt;Node2</title>
<g id="a_edge27_Node000002_Node000022"><a xlink:title=" ">
<path fill="none" stroke="#9a32cd" stroke-dasharray="5,2" d="M675.96,-140.78C681.56,-129.8 689.03,-115.48 696.05,-103 699.42,-97 703.42,-90.38 706.58,-85.25"/>
<polygon fill="#9a32cd" stroke="#9a32cd" points="672.8,-139.26 671.4,-149.76 679.05,-142.42 672.8,-139.26"/>
</a>
</g>
<text text-anchor="middle" x="719.55" y="-111.5" font-family="Helvetica,sans-Serif" font-size="10.00" fill="grey"> Triangles</text>
</g>
<!-- Node23 -->
<g id="Node000023" class="node">
<title>Node23</title>
<g id="a_Node000023"><a xlink:title=" ">
<polygon fill="white" stroke="#666666" points="827.55,-85 758.55,-85 758.55,-66 827.55,-66 827.55,-85"/>
<text text-anchor="middle" x="793.05" y="-73" font-family="Helvetica,sans-Serif" font-size="10.00">LakituType</text>
</a>
</g>
</g>
<!-- Node23&#45;&gt;Node1 -->
<g id="edge28_Node000001_Node000023" class="edge">
<title>Node23&#45;&gt;Node1</title>
<g id="a_edge28_Node000001_Node000023"><a xlink:title=" ">
<path fill="none" stroke="#9a32cd" stroke-dasharray="5,2" d="M774.05,-59.49C758.19,-46.96 736.14,-29.54 723.06,-19.2"/>
<polygon fill="#9a32cd" stroke="#9a32cd" points="772.11,-62.42 782.12,-65.87 776.45,-56.92 772.11,-62.42"/>
</a>
</g>
<text text-anchor="middle" x="772.55" y="-40" font-family="Helvetica,sans-Serif" font-size="10.00" fill="grey"> _type</text>
</g>
</g>
</svg>

<g id="navigator" transform="translate(0 0)" fill="#404254">
  <rect fill="#f2f5e9" fill-opacity="0.5" stroke="#606060" stroke-width=".5" x="0" y="0" width="60" height="60"/>
  <use id="zoomplus" xlink:href="#zoomPlus" x="17" y="9" onmousedown="handleZoom(evt,'in')"/>
  <use id="zoomminus" xlink:href="#zoomMin" x="42" y="9" onmousedown="handleZoom(evt,'out')"/>
  <use id="reset" xlink:href="#resetDef" x="30" y="36" onmousedown="handleReset()"/>
   <use id="arrowup" xlink:href="#arrowUp" x="0" y="0" onmousedown="handlePan(0,-1)"/>
  <use id="arrowright" xlink:href="#arrowRight" x="0" y="0" onmousedown="handlePan(1,0)"/>
  <use id="arrowdown" xlink:href="#arrowDown" x="0" y="0" onmousedown="handlePan(0,1)"/>
  <use id="arrowleft" xlink:href="#arrowLeft" x="0" y="0" onmousedown="handlePan(-1,0)"/>
</g>
<svg viewBox="0 0 15 15" width="100%" height="30px" preserveAspectRatio="xMaxYMin meet">
 <g id="arrow_out" transform="scale(0.3 0.3)">
  <a xlink:href="classOLakitu__coll__graph_org.svg" target="_base">
   <rect id="button" ry="5" rx="5" y="6" x="6" height="38" width="38"
        fill="#f2f5e9" fill-opacity="0.5" stroke="#606060" stroke-width="1.0"/>
   <path id="arrow"
     d="M 11.500037,31.436501 C 11.940474,20.09759 22.043105,11.32322 32.158766,21.979434 L 37.068811,17.246167 C 37.068811,17.246167 37.088388,32 37.088388,32 L 22.160133,31.978069 C 22.160133,31.978069 26.997745,27.140456 26.997745,27.140456 C 18.528582,18.264221 13.291696,25.230495 11.500037,31.436501 z"
     style="fill:#404040;"/>
  </a>
 </g>
</svg>

<style type='text/css'>
<![CDATA[
[data-mouse-over-selected='false'] { opacity: 0.7; }
[data-mouse-over-selected='true']  { opacity: 1.0; }
]]>
</style>
<script type="application/ecmascript"><![CDATA[
document.addEventListener('DOMContentLoaded', (event) => {
  highlightEdges();
  highlightAdjacentNodes();
});
]]></script>
</svg>
