<?xml version="1.0" encoding="UTF-8" standalone="no"?>
<!DOCTYPE svg PUBLIC "-//W3C//DTD SVG 1.1//EN"
 "http://www.w3.org/Graphics/SVG/1.1/DTD/svg11.dtd">
<!-- Generated by graphviz version 2.43.0 (0)
 -->
<!-- Title: BansheeBoardwalk::Draw Pages: 1 -->
<svg width="968pt" height="262pt"
 viewBox="0.00 0.00 968.00 262.00" xmlns="http://www.w3.org/2000/svg" xmlns:xlink="http://www.w3.org/1999/xlink">
<g id="graph0" class="graph" transform="scale(1 1) rotate(0) translate(4 258)">
<title>BansheeBoardwalk::Draw</title>
<!-- Node1 -->
<g id="Node000001" class="node">
<title>Node1</title>
<g id="a_Node000001"><a xlink:title=" ">
<polygon fill="#999999" stroke="#666666" points="142,-142 0,-142 0,-123 142,-123 142,-142"/>
<text text-anchor="middle" x="71" y="-130" font-family="Helvetica,sans-Serif" font-size="10.00">BansheeBoardwalk::Draw</text>
</a>
</g>
</g>
<!-- Node2 -->
<g id="Node000002" class="node">
<title>Node2</title>
<g id="a_Node000002"><a xlink:href="GBIMiddleware_8cpp.html#a4ecc44e3c6f1ca5a6b4a20c41d3bd2d2" target="_top" xlink:title=" ">
<polygon fill="white" stroke="#666666" points="441,-254 352,-254 352,-235 441,-235 441,-254"/>
<text text-anchor="middle" x="396.5" y="-242" font-family="Helvetica,sans-Serif" font-size="10.00">gSPDisplayList</text>
</a>
</g>
</g>
<!-- Node1&#45;&gt;Node2 -->
<g id="edge1_Node000001_Node000002" class="edge">
<title>Node1&#45;&gt;Node2</title>
<g id="a_edge1_Node000001_Node000002"><a xlink:title=" ">
<path fill="none" stroke="#63b8ff" d="M86.88,-142.03C106.9,-154.48 143.92,-176.26 178,-189.5 232.06,-210.5 296.82,-225.68 341.53,-234.7"/>
<polygon fill="#63b8ff" stroke="#63b8ff" points="341.12,-238.19 351.61,-236.7 342.48,-231.32 341.12,-238.19"/>
</a>
</g>
</g>
<!-- Node5 -->
<g id="Node000005" class="node">
<title>Node5</title>
<g id="a_Node000005"><a xlink:href="math__util_8c.html#ad1800f715e0296b6e75f04de02479ea5" target="_top" xlink:title=" ">
<polygon fill="white" stroke="#666666" points="284.5,-105 195.5,-105 195.5,-86 284.5,-86 284.5,-105"/>
<text text-anchor="middle" x="240" y="-93" font-family="Helvetica,sans-Serif" font-size="10.00">mtxf_translate</text>
</a>
</g>
</g>
<!-- Node1&#45;&gt;Node5 -->
<g id="edge4_Node000001_Node000005" class="edge">
<title>Node1&#45;&gt;Node5</title>
<g id="a_edge4_Node000001_Node000005"><a xlink:title=" ">
<path fill="none" stroke="#63b8ff" d="M115.01,-122.97C136.64,-118.18 163.06,-112.32 185.95,-107.25"/>
<polygon fill="#63b8ff" stroke="#63b8ff" points="186.84,-110.64 195.85,-105.06 185.33,-103.81 186.84,-110.64"/>
</a>
</g>
</g>
<!-- Node9 -->
<g id="Node000009" class="node">
<title>Node9</title>
<g id="a_Node000009"><a xlink:href="math__util_8c.html#a1e5d28a1962fbb390c7551f66c2f099a" target="_top" xlink:title=" ">
<polygon fill="white" stroke="#666666" points="296.5,-49 183.5,-49 183.5,-30 296.5,-30 296.5,-49"/>
<text text-anchor="middle" x="240" y="-37" font-family="Helvetica,sans-Serif" font-size="10.00">render_set_position</text>
</a>
</g>
</g>
<!-- Node1&#45;&gt;Node9 -->
<g id="edge8_Node000001_Node000009" class="edge">
<title>Node1&#45;&gt;Node9</title>
<g id="a_edge8_Node000001_Node000009"><a xlink:title=" ">
<path fill="none" stroke="#63b8ff" d="M89.24,-122.9C118.49,-106.61 178.02,-73.46 212.57,-54.22"/>
<polygon fill="#63b8ff" stroke="#63b8ff" points="214.57,-57.11 221.6,-49.19 211.16,-51 214.57,-57.11"/>
</a>
</g>
</g>
<!-- Node14 -->
<g id="Node000014" class="node">
<title>Node14</title>
<g id="a_Node000014"><a xlink:href="render__courses_8c.html#aa2d036c2083162fb6a9fe86ebd20386b" target="_top" xlink:title=" ">
<polygon fill="white" stroke="#666666" points="302,-180 178,-180 178,-161 302,-161 302,-180"/>
<text text-anchor="middle" x="240" y="-168" font-family="Helvetica,sans-Serif" font-size="10.00">render_track_sections</text>
</a>
</g>
</g>
<!-- Node1&#45;&gt;Node14 -->
<g id="edge14_Node000001_Node000014" class="edge">
<title>Node1&#45;&gt;Node14</title>
<g id="a_edge14_Node000001_Node000014"><a xlink:title=" ">
<path fill="none" stroke="#63b8ff" d="M114.14,-142.09C136.38,-147.15 163.85,-153.4 187.36,-158.75"/>
<polygon fill="#63b8ff" stroke="#63b8ff" points="186.63,-162.17 197.16,-160.98 188.19,-155.35 186.63,-162.17"/>
</a>
</g>
</g>
<!-- Node3 -->
<g id="Node000003" class="node">
<title>Node3</title>
<g id="a_Node000003"><a xlink:href="Engine_8cpp.html#a223c8bc63f228dc11177515e38eff2db" target="_top" xlink:title=" ">
<polygon fill="white" stroke="#666666" points="640,-254 491,-254 491,-235 640,-235 640,-254"/>
<text text-anchor="middle" x="565.5" y="-242" font-family="Helvetica,sans-Serif" font-size="10.00">GameEngine_OTRSigCheck</text>
</a>
</g>
</g>
<!-- Node2&#45;&gt;Node3 -->
<g id="edge2_Node000002_Node000003" class="edge">
<title>Node2&#45;&gt;Node3</title>
<g id="a_edge2_Node000002_Node000003"><a xlink:title=" ">
<path fill="none" stroke="#63b8ff" d="M441.38,-244.5C453.47,-244.5 467,-244.5 480.55,-244.5"/>
<polygon fill="#63b8ff" stroke="#63b8ff" points="480.89,-248 490.89,-244.5 480.89,-241 480.89,-248"/>
</a>
</g>
</g>
<!-- Node4 -->
<g id="Node000004" class="node">
<title>Node4</title>
<g id="a_Node000004"><a xlink:href="string_8c.html#a008e171a518fe0e0352f31b245e03875" target="_top" xlink:title=" ">
<polygon fill="white" stroke="#666666" points="768,-254 724,-254 724,-235 768,-235 768,-254"/>
<text text-anchor="middle" x="746" y="-242" font-family="Helvetica,sans-Serif" font-size="10.00">strlen</text>
</a>
</g>
</g>
<!-- Node3&#45;&gt;Node4 -->
<g id="edge3_Node000003_Node000004" class="edge">
<title>Node3&#45;&gt;Node4</title>
<g id="a_edge3_Node000003_Node000004"><a xlink:title=" ">
<path fill="none" stroke="#63b8ff" d="M640.13,-244.5C665.69,-244.5 693.02,-244.5 713.37,-244.5"/>
<polygon fill="#63b8ff" stroke="#63b8ff" points="713.61,-248 723.61,-244.5 713.61,-241 713.61,-248"/>
</a>
</g>
</g>
<!-- Node6 -->
<g id="Node000006" class="node">
<title>Node6</title>
<g id="a_Node000006"><a xlink:href="FrameInterpolation_8cpp.html#a995ba2652f40cdff19afb9bf7857e573" target="_top" xlink:title=" ">
<polygon fill="white" stroke="#666666" points="631,-110.5 500,-110.5 500,-80.5 631,-80.5 631,-110.5"/>
<text text-anchor="start" x="508" y="-98.5" font-family="Helvetica,sans-Serif" font-size="10.00">FrameInterpolation</text>
<text text-anchor="middle" x="565.5" y="-87.5" font-family="Helvetica,sans-Serif" font-size="10.00">_RecordMatrixTranslate</text>
</a>
</g>
</g>
<!-- Node5&#45;&gt;Node6 -->
<g id="edge5_Node000005_Node000006" class="edge">
<title>Node5&#45;&gt;Node6</title>
<g id="a_edge5_Node000005_Node000006"><a xlink:title=" ">
<path fill="none" stroke="#63b8ff" d="M284.63,-95.5C337.07,-95.5 425.94,-95.5 489.46,-95.5"/>
<polygon fill="#63b8ff" stroke="#63b8ff" points="489.83,-99 499.83,-95.5 489.83,-92 489.83,-99"/>
</a>
</g>
</g>
<!-- Node8 -->
<g id="Node000008" class="node">
<title>Node8</title>
<g id="a_Node000008"><a xlink:href="math__util_8c.html#ac22eee16b1def67d2441ce919df0c5ac" target="_top" xlink:title=" ">
<polygon fill="white" stroke="#666666" points="438,-67 355,-67 355,-48 438,-48 438,-67"/>
<text text-anchor="middle" x="396.5" y="-55" font-family="Helvetica,sans-Serif" font-size="10.00">mtxf_identity</text>
</a>
</g>
</g>
<!-- Node5&#45;&gt;Node8 -->
<g id="edge7_Node000005_Node000008" class="edge">
<title>Node5&#45;&gt;Node8</title>
<g id="a_edge7_Node000005_Node000008"><a xlink:title=" ">
<path fill="none" stroke="#63b8ff" d="M279.99,-85.91C300.28,-80.92 325.29,-74.77 346.85,-69.47"/>
<polygon fill="#63b8ff" stroke="#63b8ff" points="347.92,-72.81 356.79,-67.02 346.25,-66.01 347.92,-72.81"/>
</a>
</g>
</g>
<!-- Node7 -->
<g id="Node000007" class="node">
<title>Node7</title>
<g id="a_Node000007"><a xlink:href="FrameInterpolation_8cpp.html#a02c7ac5342a4d376edee38f312b480bf" target="_top" xlink:title=" ">
<polygon fill="white" stroke="#666666" points="960,-83 852,-83 852,-64 960,-64 960,-83"/>
<text text-anchor="middle" x="906" y="-71" font-family="Helvetica,sans-Serif" font-size="10.00">check_if_recording</text>
</a>
</g>
</g>
<!-- Node6&#45;&gt;Node7 -->
<g id="edge6_Node000006_Node000007" class="edge">
<title>Node6&#45;&gt;Node7</title>
<g id="a_edge6_Node000006_Node000007"><a xlink:title=" ">
<path fill="none" stroke="#63b8ff" d="M631.37,-91.28C691.89,-87.35 781.62,-81.52 841.65,-77.62"/>
<polygon fill="#63b8ff" stroke="#63b8ff" points="842.01,-81.1 851.76,-76.96 841.55,-74.12 842.01,-81.1"/>
</a>
</g>
</g>
<!-- Node10 -->
<g id="Node000010" class="node">
<title>Node10</title>
<g id="a_Node000010"><a xlink:href="Matrix_8cpp.html#a6416f9a60a7397e8b517b1483adb96e8" target="_top" xlink:title=" ">
<polygon fill="white" stroke="#666666" points="445.5,-30 347.5,-30 347.5,-11 445.5,-11 445.5,-30"/>
<text text-anchor="middle" x="396.5" y="-18" font-family="Helvetica,sans-Serif" font-size="10.00">AddObjectMatrix</text>
</a>
</g>
</g>
<!-- Node9&#45;&gt;Node10 -->
<g id="edge9_Node000009_Node000010" class="edge">
<title>Node9&#45;&gt;Node10</title>
<g id="a_edge9_Node000009_Node000010"><a xlink:title=" ">
<path fill="none" stroke="#63b8ff" d="M296.78,-32.64C310,-31.01 324.14,-29.28 337.46,-27.64"/>
<polygon fill="#63b8ff" stroke="#63b8ff" points="337.96,-31.1 347.46,-26.41 337.11,-24.15 337.96,-31.1"/>
</a>
</g>
</g>
<!-- Node11 -->
<g id="Node000011" class="node">
<title>Node11</title>
<g id="a_Node000011"><a xlink:href="Matrix_8cpp.html#a67401ed1d8de1f4d3a3e5a7b72842b6a" target="_top" xlink:title=" ">
<polygon fill="white" stroke="#666666" points="599,-30 532,-30 532,-11 599,-11 599,-30"/>
<text text-anchor="middle" x="565.5" y="-18" font-family="Helvetica,sans-Serif" font-size="10.00">AddMatrix</text>
</a>
</g>
</g>
<!-- Node10&#45;&gt;Node11 -->
<g id="edge10_Node000010_Node000011" class="edge">
<title>Node10&#45;&gt;Node11</title>
<g id="a_edge10_Node000010_Node000011"><a xlink:title=" ">
<path fill="none" stroke="#63b8ff" d="M445.8,-20.5C469.78,-20.5 498.49,-20.5 521.67,-20.5"/>
<polygon fill="#63b8ff" stroke="#63b8ff" points="521.9,-24 531.9,-20.5 521.9,-17 521.9,-24"/>
</a>
</g>
</g>
<!-- Node12 -->
<g id="Node000012" class="node">
<title>Node12</title>
<g id="a_Node000012"><a xlink:href="FrameInterpolation_8cpp.html#a8cf1f2d6fabc6925aa71a9515341b4aa" target="_top" xlink:title=" ">
<polygon fill="white" stroke="#666666" points="816,-67.5 676,-67.5 676,-37.5 816,-37.5 816,-67.5"/>
<text text-anchor="start" x="684" y="-55.5" font-family="Helvetica,sans-Serif" font-size="10.00">FrameInterpolation</text>
<text text-anchor="middle" x="746" y="-44.5" font-family="Helvetica,sans-Serif" font-size="10.00">_RecordMatrixMtxFToMtx</text>
</a>
</g>
</g>
<!-- Node11&#45;&gt;Node12 -->
<g id="edge11_Node000011_Node000012" class="edge">
<title>Node11&#45;&gt;Node12</title>
<g id="a_edge11_Node000011_Node000012"><a xlink:title=" ">
<path fill="none" stroke="#63b8ff" d="M599.24,-26.37C618,-29.73 642.41,-34.11 665.88,-38.32"/>
<polygon fill="#63b8ff" stroke="#63b8ff" points="665.4,-41.79 675.86,-40.11 666.64,-34.9 665.4,-41.79"/>
</a>
</g>
</g>
<!-- Node13 -->
<g id="Node000013" class="node">
<title>Node13</title>
<g id="a_Node000013"><a xlink:href="guMtxF2L_8c.html#a40ab2d64c609839ff1e0ef0de2d0dcc4" target="_top" xlink:title=" ">
<polygon fill="white" stroke="#666666" points="778.5,-19 713.5,-19 713.5,0 778.5,0 778.5,-19"/>
<text text-anchor="middle" x="746" y="-7" font-family="Helvetica,sans-Serif" font-size="10.00">guMtxF2L</text>
</a>
</g>
</g>
<!-- Node11&#45;&gt;Node13 -->
<g id="edge13_Node000011_Node000013" class="edge">
<title>Node11&#45;&gt;Node13</title>
<g id="a_edge13_Node000011_Node000013"><a xlink:title=" ">
<path fill="none" stroke="#63b8ff" d="M599.24,-18.48C628.45,-16.68 671.37,-14.04 703.08,-12.08"/>
<polygon fill="#63b8ff" stroke="#63b8ff" points="703.6,-15.56 713.37,-11.45 703.17,-8.57 703.6,-15.56"/>
</a>
</g>
</g>
<!-- Node12&#45;&gt;Node7 -->
<g id="edge12_Node000012_Node000007" class="edge">
<title>Node12&#45;&gt;Node7</title>
<g id="a_edge12_Node000012_Node000007"><a xlink:title=" ">
<path fill="none" stroke="#63b8ff" d="M816.3,-61.71C824.79,-62.84 833.43,-63.99 841.82,-65.1"/>
<polygon fill="#63b8ff" stroke="#63b8ff" points="841.53,-68.6 851.91,-66.44 842.46,-61.66 841.53,-68.6"/>
</a>
</g>
</g>
<!-- Node14&#45;&gt;Node2 -->
<g id="edge16_Node000014_Node000002" class="edge">
<title>Node14&#45;&gt;Node2</title>
<g id="a_edge16_Node000014_Node000002"><a xlink:title=" ">
<path fill="none" stroke="#63b8ff" d="M255.26,-180.08C273.73,-192.16 307.19,-212.98 338,-226.5 342.15,-228.32 346.55,-230.04 350.99,-231.65"/>
<polygon fill="#63b8ff" stroke="#63b8ff" points="350.09,-235.04 360.69,-234.96 352.35,-228.41 350.09,-235.04"/>
</a>
</g>
</g>
<!-- Node15 -->
<g id="Node000015" class="node">
<title>Node15</title>
<g id="a_Node000015"><a xlink:href="collision_8c.html#a053809031f467d0a6747788211e0ec69" target="_top" xlink:title=" ">
<polygon fill="white" stroke="#666666" points="455,-217 338,-217 338,-198 455,-198 455,-217"/>
<text text-anchor="middle" x="396.5" y="-205" font-family="Helvetica,sans-Serif" font-size="10.00">get_track_section_id</text>
</a>
</g>
</g>
<!-- Node14&#45;&gt;Node15 -->
<g id="edge15_Node000014_Node000015" class="edge">
<title>Node14&#45;&gt;Node15</title>
<g id="a_edge15_Node000014_Node000015"><a xlink:title=" ">
<path fill="none" stroke="#63b8ff" d="M280.79,-180.03C300.62,-184.78 324.81,-190.57 345.85,-195.61"/>
<polygon fill="#63b8ff" stroke="#63b8ff" points="345.04,-199.01 355.58,-197.94 346.67,-192.21 345.04,-199.01"/>
</a>
</g>
</g>
<!-- Node16 -->
<g id="Node000016" class="node">
<title>Node16</title>
<g id="a_Node000016"><a xlink:href="Game_8cpp.html#a8ebd6a4d970e4333ab5a9dd66c3d9c48" target="_top" xlink:title=" ">
<polygon fill="white" stroke="#666666" points="445,-180 348,-180 348,-161 445,-161 445,-180"/>
<text text-anchor="middle" x="396.5" y="-168" font-family="Helvetica,sans-Serif" font-size="10.00">IsBowsersCastle</text>
</a>
</g>
</g>
<!-- Node14&#45;&gt;Node16 -->
<g id="edge17_Node000014_Node000016" class="edge">
<title>Node14&#45;&gt;Node16</title>
<g id="a_edge17_Node000014_Node000016"><a xlink:title=" ">
<path fill="none" stroke="#63b8ff" d="M302.06,-170.5C313.81,-170.5 326.07,-170.5 337.71,-170.5"/>
<polygon fill="#63b8ff" stroke="#63b8ff" points="337.74,-174 347.74,-170.5 337.74,-167 337.74,-174"/>
</a>
</g>
</g>
<!-- Node17 -->
<g id="Node000017" class="node">
<title>Node17</title>
<g id="a_Node000017"><a xlink:href="Game_8cpp.html#a9f5c2ace915f66e850628695f297b1ff" target="_top" xlink:title=" ">
<polygon fill="white" stroke="#666666" points="447,-143 346,-143 346,-124 447,-124 447,-143"/>
<text text-anchor="middle" x="396.5" y="-131" font-family="Helvetica,sans-Serif" font-size="10.00">IsChocoMountain</text>
</a>
</g>
</g>
<!-- Node14&#45;&gt;Node17 -->
<g id="edge18_Node000014_Node000017" class="edge">
<title>Node14&#45;&gt;Node17</title>
<g id="a_edge18_Node000014_Node000017"><a xlink:title=" ">
<path fill="none" stroke="#63b8ff" d="M280.79,-160.97C300.62,-156.22 324.81,-150.43 345.85,-145.39"/>
<polygon fill="#63b8ff" stroke="#63b8ff" points="346.67,-148.79 355.58,-143.06 345.04,-141.99 346.67,-148.79"/>
</a>
</g>
</g>
</g>
</svg>
