<?xml version="1.0" encoding="UTF-8" standalone="no"?>
<!DOCTYPE svg PUBLIC "-//W3C//DTD SVG 1.1//EN"
 "http://www.w3.org/Graphics/SVG/1.1/DTD/svg11.dtd">
<!-- Generated by graphviz version 2.43.0 (0)
 -->
<!-- Title: SkyActor::SkyActor Pages: 1 -->
<svg width="265pt" height="101pt"
 viewBox="0.00 0.00 265.00 101.00" xmlns="http://www.w3.org/2000/svg" xmlns:xlink="http://www.w3.org/1999/xlink">
<g id="graph0" class="graph" transform="scale(1 1) rotate(0) translate(4 97)">
<title>SkyActor::SkyActor</title>
<!-- Node1 -->
<g id="Node000001" class="node">
<title>Node1</title>
<g id="a_Node000001"><a xlink:title=" ">
<polygon fill="#999999" stroke="#666666" points="257,-56 149,-56 149,-37 257,-37 257,-56"/>
<text text-anchor="middle" x="203" y="-44" font-family="Helvetica,sans-Serif" font-size="10.00">SkyActor::SkyActor</text>
</a>
</g>
</g>
<!-- Node2 -->
<g id="Node000002" class="node">
<title>Node2</title>
<g id="a_Node000002"><a xlink:href="classSkyCloud.html#a83f979f7bddfc8758a547ddd7cfa1581" target="_top" xlink:title=" ">
<polygon fill="white" stroke="#666666" points="113,-93 0,-93 0,-74 113,-74 113,-93"/>
<text text-anchor="middle" x="56.5" y="-81" font-family="Helvetica,sans-Serif" font-size="10.00">SkyCloud::SkyCloud</text>
</a>
</g>
</g>
<!-- Node1&#45;&gt;Node2 -->
<g id="edge1_Node000001_Node000002" class="edge">
<title>Node1&#45;&gt;Node2</title>
<g id="a_edge1_Node000001_Node000002"><a xlink:title=" ">
<path fill="none" stroke="#63b8ff" d="M154.89,-58.56C135.42,-63.55 113.16,-69.25 94.84,-73.94"/>
<polygon fill="#63b8ff" stroke="#63b8ff" points="155.97,-61.9 164.79,-56.03 154.23,-55.12 155.97,-61.9"/>
</a>
</g>
</g>
<!-- Node3 -->
<g id="Node000003" class="node">
<title>Node3</title>
<g id="a_Node000003"><a xlink:href="classSkySnow.html#a8077331b9942eb7e17c00a77cddb3054" target="_top" xlink:title=" ">
<polygon fill="white" stroke="#666666" points="111,-56 2,-56 2,-37 111,-37 111,-56"/>
<text text-anchor="middle" x="56.5" y="-44" font-family="Helvetica,sans-Serif" font-size="10.00">SkySnow::SkySnow</text>
</a>
</g>
</g>
<!-- Node1&#45;&gt;Node3 -->
<g id="edge2_Node000001_Node000003" class="edge">
<title>Node1&#45;&gt;Node3</title>
<g id="a_edge2_Node000001_Node000003"><a xlink:title=" ">
<path fill="none" stroke="#63b8ff" d="M138.44,-46.5C129.33,-46.5 120.05,-46.5 111.16,-46.5"/>
<polygon fill="#63b8ff" stroke="#63b8ff" points="138.6,-50 148.6,-46.5 138.6,-43 138.6,-50"/>
</a>
</g>
</g>
<!-- Node4 -->
<g id="Node000004" class="node">
<title>Node4</title>
<g id="a_Node000004"><a xlink:href="classSkyStar.html#abb481b9a31e23b1fbe663e4f955d52f2" target="_top" xlink:title=" ">
<polygon fill="white" stroke="#666666" points="104.5,-19 8.5,-19 8.5,0 104.5,0 104.5,-19"/>
<text text-anchor="middle" x="56.5" y="-7" font-family="Helvetica,sans-Serif" font-size="10.00">SkyStar::SkyStar</text>
</a>
</g>
</g>
<!-- Node1&#45;&gt;Node4 -->
<g id="edge3_Node000001_Node000004" class="edge">
<title>Node1&#45;&gt;Node4</title>
<g id="a_edge3_Node000001_Node000004"><a xlink:title=" ">
<path fill="none" stroke="#63b8ff" d="M154.89,-34.44C135.42,-29.45 113.16,-23.75 94.84,-19.06"/>
<polygon fill="#63b8ff" stroke="#63b8ff" points="154.23,-37.88 164.79,-36.97 155.97,-31.1 154.23,-37.88"/>
</a>
</g>
</g>
</g>
</svg>
