<?xml version="1.0" encoding="UTF-8" standalone="no"?>
<!DOCTYPE svg PUBLIC "-//W3C//DTD SVG 1.1//EN"
 "http://www.w3.org/Graphics/SVG/1.1/DTD/svg11.dtd">
<!-- Generated by graphviz version 2.43.0 (0)
 -->
<!-- Title: RainbowRoad::DrawTrackObjects Pages: 1 -->
<svg width="1208pt" height="382pt"
 viewBox="0.00 0.00 1208.00 381.55" xmlns="http://www.w3.org/2000/svg" xmlns:xlink="http://www.w3.org/1999/xlink">
<g id="graph0" class="graph" transform="scale(1 1) rotate(0) translate(4 377.55)">
<title>RainbowRoad::DrawTrackObjects</title>
<!-- Node1 -->
<g id="Node000001" class="node">
<title>Node1</title>
<g id="a_Node000001"><a xlink:title=" ">
<polygon fill="#999999" stroke="#666666" points="177,-213.05 0,-213.05 0,-194.05 177,-194.05 177,-213.05"/>
<text text-anchor="middle" x="88.5" y="-201.05" font-family="Helvetica,sans-Serif" font-size="10.00">RainbowRoad::DrawTrackObjects</text>
</a>
</g>
</g>
<!-- Node2 -->
<g id="Node000002" class="node">
<title>Node2</title>
<g id="a_Node000002"><a xlink:href="render__objects_8c.html#a01136bcb8f763bd80f4cb9296988d0ad" target="_top" xlink:title=" ">
<polygon fill="white" stroke="#666666" points="326,-213.05 213,-213.05 213,-194.05 326,-194.05 326,-213.05"/>
<text text-anchor="middle" x="269.5" y="-201.05" font-family="Helvetica,sans-Serif" font-size="10.00">render_object_neon</text>
</a>
</g>
</g>
<!-- Node1&#45;&gt;Node2 -->
<g id="edge1_Node000001_Node000002" class="edge">
<title>Node1&#45;&gt;Node2</title>
<g id="a_edge1_Node000001_Node000002"><a xlink:title=" ">
<path fill="none" stroke="#63b8ff" d="M177.16,-203.55C185.64,-203.55 194.13,-203.55 202.34,-203.55"/>
<polygon fill="#63b8ff" stroke="#63b8ff" points="202.57,-207.05 212.57,-203.55 202.57,-200.05 202.57,-207.05"/>
</a>
</g>
</g>
<!-- Node3 -->
<g id="Node000003" class="node">
<title>Node3</title>
<g id="a_Node000003"><a xlink:href="code__80086E70_8c.html#a39472d3dfdac7a16645e8ebd6f53f1b6" target="_top" xlink:title=" ">
<polygon fill="white" stroke="#666666" points="716,-330.55 590,-330.55 590,-300.55 716,-300.55 716,-330.55"/>
<text text-anchor="start" x="598" y="-318.55" font-family="Helvetica,sans-Serif" font-size="10.00">angle_between_object</text>
<text text-anchor="middle" x="653" y="-307.55" font-family="Helvetica,sans-Serif" font-size="10.00">_camera</text>
</a>
</g>
</g>
<!-- Node2&#45;&gt;Node3 -->
<g id="edge2_Node000002_Node000003" class="edge">
<title>Node2&#45;&gt;Node3</title>
<g id="a_edge2_Node000002_Node000003"><a xlink:title=" ">
<path fill="none" stroke="#63b8ff" d="M276.38,-213.13C289.12,-232.92 321.43,-277.97 362,-296.55 430.84,-328.08 518.63,-329.17 579.49,-324.68"/>
<polygon fill="#63b8ff" stroke="#63b8ff" points="580.09,-328.14 589.77,-323.85 579.52,-321.17 580.09,-328.14"/>
</a>
</g>
</g>
<!-- Node6 -->
<g id="Node000006" class="node">
<title>Node6</title>
<g id="a_Node000006"><a xlink:href="FrameInterpolation_8cpp.html#a3a036bc9d533e28a4e9697cd20dccf3e" target="_top" xlink:title=" ">
<polygon fill="white" stroke="#666666" points="1023,-137.55 913,-137.55 913,-107.55 1023,-107.55 1023,-137.55"/>
<text text-anchor="start" x="921" y="-125.55" font-family="Helvetica,sans-Serif" font-size="10.00">FrameInterpolation</text>
<text text-anchor="middle" x="968" y="-114.55" font-family="Helvetica,sans-Serif" font-size="10.00">_RecordCloseChild</text>
</a>
</g>
</g>
<!-- Node2&#45;&gt;Node6 -->
<g id="edge5_Node000002_Node000006" class="edge">
<title>Node2&#45;&gt;Node6</title>
<g id="a_edge5_Node000002_Node000006"><a xlink:title=" ">
<path fill="none" stroke="#63b8ff" d="M279.51,-193.91C294.74,-178.37 327.33,-148.34 362,-136.55 549.86,-72.71 789.8,-95.44 902.74,-111.76"/>
<polygon fill="#63b8ff" stroke="#63b8ff" points="902.54,-115.27 912.94,-113.27 903.56,-108.34 902.54,-115.27"/>
</a>
</g>
</g>
<!-- Node8 -->
<g id="Node000008" class="node">
<title>Node8</title>
<g id="a_Node000008"><a xlink:href="FrameInterpolation_8cpp.html#a0eda726b74eac815af4e874014e2727c" target="_top" xlink:title=" ">
<polygon fill="white" stroke="#666666" points="1023,-67.55 913,-67.55 913,-37.55 1023,-37.55 1023,-67.55"/>
<text text-anchor="start" x="921" y="-55.55" font-family="Helvetica,sans-Serif" font-size="10.00">FrameInterpolation</text>
<text text-anchor="middle" x="968" y="-44.55" font-family="Helvetica,sans-Serif" font-size="10.00">_RecordOpenChild</text>
</a>
</g>
</g>
<!-- Node2&#45;&gt;Node8 -->
<g id="edge7_Node000002_Node000008" class="edge">
<title>Node2&#45;&gt;Node8</title>
<g id="a_edge7_Node000002_Node000008"><a xlink:title=" ">
<path fill="none" stroke="#63b8ff" d="M273.18,-193.89C281.24,-166.86 308.16,-90.48 362,-60.55 537.52,37.03 788.29,-6.67 904.03,-35.06"/>
<polygon fill="#63b8ff" stroke="#63b8ff" points="903.26,-38.48 913.81,-37.5 904.95,-31.68 903.26,-38.48"/>
</a>
</g>
</g>
<!-- Node9 -->
<g id="Node000009" class="node">
<title>Node9</title>
<g id="a_Node000009"><a xlink:href="GBIMiddleware_8cpp.html#a4ecc44e3c6f1ca5a6b4a20c41d3bd2d2" target="_top" xlink:title=" ">
<polygon fill="white" stroke="#666666" points="490,-287.05 401,-287.05 401,-268.05 490,-268.05 490,-287.05"/>
<text text-anchor="middle" x="445.5" y="-275.05" font-family="Helvetica,sans-Serif" font-size="10.00">gSPDisplayList</text>
</a>
</g>
</g>
<!-- Node2&#45;&gt;Node9 -->
<g id="edge9_Node000002_Node000009" class="edge">
<title>Node2&#45;&gt;Node9</title>
<g id="a_edge9_Node000002_Node000009"><a xlink:title=" ">
<path fill="none" stroke="#63b8ff" d="M283.1,-213.17C300.1,-225.69 331.76,-247.4 362,-259.55 371.09,-263.2 381.05,-266.17 390.81,-268.57"/>
<polygon fill="#63b8ff" stroke="#63b8ff" points="390.34,-272.05 400.86,-270.87 391.89,-265.23 390.34,-272.05"/>
</a>
</g>
</g>
<!-- Node12 -->
<g id="Node000012" class="node">
<title>Node12</title>
<g id="a_Node000012"><a xlink:href="GBIMiddleware_8cpp.html#aeef79449a27a710d73576e4a4f7f7f99" target="_top" xlink:title=" ">
<polygon fill="white" stroke="#666666" points="478.5,-250.05 412.5,-250.05 412.5,-231.05 478.5,-231.05 478.5,-250.05"/>
<text text-anchor="middle" x="445.5" y="-238.05" font-family="Helvetica,sans-Serif" font-size="10.00">gSPVertex</text>
</a>
</g>
</g>
<!-- Node2&#45;&gt;Node12 -->
<g id="edge12_Node000002_Node000012" class="edge">
<title>Node2&#45;&gt;Node12</title>
<g id="a_edge12_Node000002_Node000012"><a xlink:title=" ">
<path fill="none" stroke="#63b8ff" d="M315.31,-213.08C342.16,-218.79 376.07,-226 402.42,-231.6"/>
<polygon fill="#63b8ff" stroke="#63b8ff" points="401.97,-235.09 412.47,-233.74 403.42,-228.24 401.97,-235.09"/>
</a>
</g>
</g>
<!-- Node13 -->
<g id="Node000013" class="node">
<title>Node13</title>
<g id="a_Node000013"><a xlink:href="update__objects_8c.html#a2301a51a93a60f0382cdc7002e14f95a" target="_top" xlink:title=" ">
<polygon fill="white" stroke="#666666" points="513.5,-175.55 377.5,-175.55 377.5,-145.55 513.5,-145.55 513.5,-175.55"/>
<text text-anchor="start" x="385.5" y="-163.55" font-family="Helvetica,sans-Serif" font-size="10.00">is_obj_index_flag_status</text>
<text text-anchor="middle" x="445.5" y="-152.55" font-family="Helvetica,sans-Serif" font-size="10.00">_inactive</text>
</a>
</g>
</g>
<!-- Node2&#45;&gt;Node13 -->
<g id="edge14_Node000002_Node000013" class="edge">
<title>Node2&#45;&gt;Node13</title>
<g id="a_edge14_Node000002_Node000013"><a xlink:title=" ">
<path fill="none" stroke="#63b8ff" d="M309.12,-194.01C328.22,-189.29 351.88,-183.44 374.05,-177.96"/>
<polygon fill="#63b8ff" stroke="#63b8ff" points="374.91,-181.36 383.78,-175.56 373.23,-174.56 374.91,-181.36"/>
</a>
</g>
</g>
<!-- Node14 -->
<g id="Node000014" class="node">
<title>Node14</title>
<g id="a_Node000014"><a xlink:href="code__80086E70_8c.html#abe4dd4c208100b3bca1036d0a14074f2" target="_top" xlink:title=" ">
<polygon fill="white" stroke="#666666" points="503,-373.55 388,-373.55 388,-343.55 503,-343.55 503,-373.55"/>
<text text-anchor="start" x="396" y="-361.55" font-family="Helvetica,sans-Serif" font-size="10.00">is_object_visible_on</text>
<text text-anchor="middle" x="445.5" y="-350.55" font-family="Helvetica,sans-Serif" font-size="10.00">_camera</text>
</a>
</g>
</g>
<!-- Node2&#45;&gt;Node14 -->
<g id="edge15_Node000002_Node000014" class="edge">
<title>Node2&#45;&gt;Node14</title>
<g id="a_edge15_Node000002_Node000014"><a xlink:title=" ">
<path fill="none" stroke="#63b8ff" d="M274.98,-213.3C286.24,-236.75 317.99,-296.76 362,-329.55 367.03,-333.3 372.59,-336.6 378.38,-339.49"/>
<polygon fill="#63b8ff" stroke="#63b8ff" points="377.06,-342.73 387.61,-343.7 379.96,-336.36 377.06,-342.73"/>
</a>
</g>
</g>
<!-- Node16 -->
<g id="Node000016" class="node">
<title>Node16</title>
<g id="a_Node000016"><a xlink:href="render__objects_8c.html#a8a3e9d3da5a6ac97b84b553fdc5d7d59" target="_top" xlink:title=" ">
<polygon fill="white" stroke="#666666" points="494.5,-89.05 396.5,-89.05 396.5,-70.05 494.5,-70.05 494.5,-89.05"/>
<text text-anchor="middle" x="445.5" y="-77.05" font-family="Helvetica,sans-Serif" font-size="10.00">rsp_load_texture</text>
</a>
</g>
</g>
<!-- Node2&#45;&gt;Node16 -->
<g id="edge18_Node000002_Node000016" class="edge">
<title>Node2&#45;&gt;Node16</title>
<g id="a_edge18_Node000002_Node000016"><a xlink:title=" ">
<path fill="none" stroke="#63b8ff" d="M276.57,-193.97C289.67,-174.06 322.64,-128.04 362,-103.55 369.55,-98.86 378.05,-95.05 386.65,-91.97"/>
<polygon fill="#63b8ff" stroke="#63b8ff" points="387.95,-95.23 396.37,-88.79 385.77,-88.57 387.95,-95.23"/>
</a>
</g>
</g>
<!-- Node17 -->
<g id="Node000017" class="node">
<title>Node17</title>
<g id="a_Node000017"><a xlink:href="math__util__2_8c.html#a2eff0e02deb703653ee3230fbc02eb14" target="_top" xlink:title="set the matrix to a transformation matrix">
<polygon fill="white" stroke="#666666" points="529,-213.05 362,-213.05 362,-194.05 529,-194.05 529,-213.05"/>
<text text-anchor="middle" x="445.5" y="-201.05" font-family="Helvetica,sans-Serif" font-size="10.00">rsp_set_matrix_transformation</text>
</a>
</g>
</g>
<!-- Node2&#45;&gt;Node17 -->
<g id="edge19_Node000002_Node000017" class="edge">
<title>Node2&#45;&gt;Node17</title>
<g id="a_edge19_Node000002_Node000017"><a xlink:title=" ">
<path fill="none" stroke="#63b8ff" d="M326.03,-203.55C334.25,-203.55 342.91,-203.55 351.64,-203.55"/>
<polygon fill="#63b8ff" stroke="#63b8ff" points="351.91,-207.05 361.91,-203.55 351.91,-200.05 351.91,-207.05"/>
</a>
</g>
</g>
<!-- Node4 -->
<g id="Node000004" class="node">
<title>Node4</title>
<g id="a_Node000004"><a xlink:href="math__util_8c.html#aaa39a297477f56051975259f4bddd829" target="_top" xlink:title=" ">
<polygon fill="white" stroke="#666666" points="835.5,-360.05 785.5,-360.05 785.5,-341.05 835.5,-341.05 835.5,-360.05"/>
<text text-anchor="middle" x="810.5" y="-348.05" font-family="Helvetica,sans-Serif" font-size="10.00">atan2s</text>
</a>
</g>
</g>
<!-- Node3&#45;&gt;Node4 -->
<g id="edge3_Node000003_Node000004" class="edge">
<title>Node3&#45;&gt;Node4</title>
<g id="a_edge3_Node000003_Node000004"><a xlink:title=" ">
<path fill="none" stroke="#63b8ff" d="M716.35,-329.59C736.36,-334.09 757.79,-338.91 775.05,-342.8"/>
<polygon fill="#63b8ff" stroke="#63b8ff" points="774.68,-346.3 785.2,-345.08 776.21,-339.47 774.68,-346.3"/>
</a>
</g>
</g>
<!-- Node5 -->
<g id="Node000005" class="node">
<title>Node5</title>
<g id="a_Node000005"><a xlink:href="math__util_8c.html#a0273b0ea0783a06996c28669a7438ed9" target="_top" xlink:title=" ">
<polygon fill="white" stroke="#666666" points="1009,-360.05 927,-360.05 927,-341.05 1009,-341.05 1009,-360.05"/>
<text text-anchor="middle" x="968" y="-348.05" font-family="Helvetica,sans-Serif" font-size="10.00">atan2_lookup</text>
</a>
</g>
</g>
<!-- Node4&#45;&gt;Node5 -->
<g id="edge4_Node000004_Node000005" class="edge">
<title>Node4&#45;&gt;Node5</title>
<g id="a_edge4_Node000004_Node000005"><a xlink:title=" ">
<path fill="none" stroke="#63b8ff" d="M835.8,-350.55C857.38,-350.55 889.62,-350.55 916.74,-350.55"/>
<polygon fill="#63b8ff" stroke="#63b8ff" points="916.85,-354.05 926.85,-350.55 916.85,-347.05 916.85,-354.05"/>
</a>
</g>
</g>
<!-- Node7 -->
<g id="Node000007" class="node">
<title>Node7</title>
<g id="a_Node000007"><a xlink:href="FrameInterpolation_8cpp.html#a02c7ac5342a4d376edee38f312b480bf" target="_top" xlink:title=" ">
<polygon fill="white" stroke="#666666" points="1200,-156.05 1092,-156.05 1092,-137.05 1200,-137.05 1200,-156.05"/>
<text text-anchor="middle" x="1146" y="-144.05" font-family="Helvetica,sans-Serif" font-size="10.00">check_if_recording</text>
</a>
</g>
</g>
<!-- Node6&#45;&gt;Node7 -->
<g id="edge6_Node000006_Node000007" class="edge">
<title>Node6&#45;&gt;Node7</title>
<g id="a_edge6_Node000006_Node000007"><a xlink:title=" ">
<path fill="none" stroke="#63b8ff" d="M1023.24,-129.95C1041.73,-132.47 1062.57,-135.31 1081.71,-137.92"/>
<polygon fill="#63b8ff" stroke="#63b8ff" points="1081.46,-141.42 1091.84,-139.3 1082.41,-134.48 1081.46,-141.42"/>
</a>
</g>
</g>
<!-- Node8&#45;&gt;Node7 -->
<g id="edge8_Node000008_Node000007" class="edge">
<title>Node8&#45;&gt;Node7</title>
<g id="a_edge8_Node000008_Node000007"><a xlink:title=" ">
<path fill="none" stroke="#63b8ff" d="M997.64,-67.62C1014.62,-76.57 1036.56,-88.17 1056,-98.55 1076.91,-109.72 1100.51,-122.45 1118.16,-132"/>
<polygon fill="#63b8ff" stroke="#63b8ff" points="1116.83,-135.26 1127.29,-136.95 1120.17,-129.11 1116.83,-135.26"/>
</a>
</g>
</g>
<!-- Node10 -->
<g id="Node000010" class="node">
<title>Node10</title>
<g id="a_Node000010"><a xlink:href="Engine_8cpp.html#a223c8bc63f228dc11177515e38eff2db" target="_top" xlink:title=" ">
<polygon fill="white" stroke="#666666" points="727.5,-282.05 578.5,-282.05 578.5,-263.05 727.5,-263.05 727.5,-282.05"/>
<text text-anchor="middle" x="653" y="-270.05" font-family="Helvetica,sans-Serif" font-size="10.00">GameEngine_OTRSigCheck</text>
</a>
</g>
</g>
<!-- Node9&#45;&gt;Node10 -->
<g id="edge10_Node000009_Node000010" class="edge">
<title>Node9&#45;&gt;Node10</title>
<g id="a_edge10_Node000009_Node000010"><a xlink:title=" ">
<path fill="none" stroke="#63b8ff" d="M490.08,-276.49C512.75,-275.94 541.25,-275.25 568,-274.6"/>
<polygon fill="#63b8ff" stroke="#63b8ff" points="568.23,-278.09 578.15,-274.35 568.06,-271.09 568.23,-278.09"/>
</a>
</g>
</g>
<!-- Node11 -->
<g id="Node000011" class="node">
<title>Node11</title>
<g id="a_Node000011"><a xlink:href="string_8c.html#a008e171a518fe0e0352f31b245e03875" target="_top" xlink:title=" ">
<polygon fill="white" stroke="#666666" points="832.5,-315.05 788.5,-315.05 788.5,-296.05 832.5,-296.05 832.5,-315.05"/>
<text text-anchor="middle" x="810.5" y="-303.05" font-family="Helvetica,sans-Serif" font-size="10.00">strlen</text>
</a>
</g>
</g>
<!-- Node10&#45;&gt;Node11 -->
<g id="edge11_Node000010_Node000011" class="edge">
<title>Node10&#45;&gt;Node11</title>
<g id="a_edge11_Node000010_Node000011"><a xlink:title=" ">
<path fill="none" stroke="#63b8ff" d="M698.98,-282.1C724.49,-287.51 755.77,-294.15 778.53,-298.98"/>
<polygon fill="#63b8ff" stroke="#63b8ff" points="777.83,-302.41 788.34,-301.06 779.28,-295.56 777.83,-302.41"/>
</a>
</g>
</g>
<!-- Node12&#45;&gt;Node10 -->
<g id="edge13_Node000012_Node000010" class="edge">
<title>Node12&#45;&gt;Node10</title>
<g id="a_edge13_Node000012_Node000010"><a xlink:title=" ">
<path fill="none" stroke="#63b8ff" d="M478.61,-245.55C505.84,-249.79 545.89,-256.03 580.64,-261.44"/>
<polygon fill="#63b8ff" stroke="#63b8ff" points="580.34,-264.94 590.76,-263.02 581.42,-258.02 580.34,-264.94"/>
</a>
</g>
</g>
<!-- Node15 -->
<g id="Node000015" class="node">
<title>Node15</title>
<g id="a_Node000015"><a xlink:href="math__util__2_8c.html#a13e56d0f66165ef2bfef5122f7de73b6" target="_top" xlink:title=" ">
<polygon fill="white" stroke="#666666" points="717.5,-368.05 588.5,-368.05 588.5,-349.05 717.5,-349.05 717.5,-368.05"/>
<text text-anchor="middle" x="653" y="-356.05" font-family="Helvetica,sans-Serif" font-size="10.00">get_angle_between_xy</text>
</a>
</g>
</g>
<!-- Node14&#45;&gt;Node15 -->
<g id="edge16_Node000014_Node000015" class="edge">
<title>Node14&#45;&gt;Node15</title>
<g id="a_edge16_Node000014_Node000015"><a xlink:title=" ">
<path fill="none" stroke="#63b8ff" d="M503.2,-358.55C526.38,-358.55 553.5,-358.55 578.2,-358.55"/>
<polygon fill="#63b8ff" stroke="#63b8ff" points="578.25,-362.05 588.25,-358.55 578.25,-355.05 578.25,-362.05"/>
</a>
</g>
</g>
<!-- Node15&#45;&gt;Node4 -->
<g id="edge17_Node000015_Node000004" class="edge">
<title>Node15&#45;&gt;Node4</title>
<g id="a_edge17_Node000015_Node000004"><a xlink:title=" ">
<path fill="none" stroke="#63b8ff" d="M717.7,-355.28C737.24,-354.27 758,-353.2 774.83,-352.34"/>
<polygon fill="#63b8ff" stroke="#63b8ff" points="775.46,-355.81 785.27,-351.8 775.1,-348.82 775.46,-355.81"/>
</a>
</g>
</g>
<!-- Node18 -->
<g id="Node000018" class="node">
<title>Node18</title>
<g id="a_Node000018"><a xlink:href="Matrix_8cpp.html#a329d78c031733cf22ff7518f5d38fd74" target="_top" xlink:title=" ">
<polygon fill="white" stroke="#666666" points="696,-243.05 610,-243.05 610,-224.05 696,-224.05 696,-243.05"/>
<text text-anchor="middle" x="653" y="-231.05" font-family="Helvetica,sans-Serif" font-size="10.00">AddHudMatrix</text>
</a>
</g>
</g>
<!-- Node17&#45;&gt;Node18 -->
<g id="edge20_Node000017_Node000018" class="edge">
<title>Node17&#45;&gt;Node18</title>
<g id="a_edge20_Node000017_Node000018"><a xlink:title=" ">
<path fill="none" stroke="#63b8ff" d="M511.8,-213.09C540.25,-217.24 573.14,-222.04 599.91,-225.95"/>
<polygon fill="#63b8ff" stroke="#63b8ff" points="599.45,-229.42 609.85,-227.4 600.46,-222.49 599.45,-229.42"/>
</a>
</g>
</g>
<!-- Node22 -->
<g id="Node000022" class="node">
<title>Node22</title>
<g id="a_Node000022"><a xlink:href="math__util__2_8c.html#ae71383a9d7f97bcb240b23f68068ab30" target="_top" xlink:title=" ">
<polygon fill="white" stroke="#666666" points="741,-203.05 565,-203.05 565,-184.05 741,-184.05 741,-203.05"/>
<text text-anchor="middle" x="653" y="-191.05" font-family="Helvetica,sans-Serif" font-size="10.00">mtxf_set_matrix_transformation</text>
</a>
</g>
</g>
<!-- Node17&#45;&gt;Node22 -->
<g id="edge25_Node000017_Node000022" class="edge">
<title>Node17&#45;&gt;Node22</title>
<g id="a_edge25_Node000017_Node000022"><a xlink:title=" ">
<path fill="none" stroke="#63b8ff" d="M529.2,-199.53C537.61,-199.12 546.22,-198.7 554.77,-198.28"/>
<polygon fill="#63b8ff" stroke="#63b8ff" points="554.95,-201.78 564.77,-197.8 554.61,-194.79 554.95,-201.78"/>
</a>
</g>
</g>
<!-- Node19 -->
<g id="Node000019" class="node">
<title>Node19</title>
<g id="a_Node000019"><a xlink:href="Matrix_8cpp.html#a67401ed1d8de1f4d3a3e5a7b72842b6a" target="_top" xlink:title=" ">
<polygon fill="white" stroke="#666666" points="844,-278.05 777,-278.05 777,-259.05 844,-259.05 844,-278.05"/>
<text text-anchor="middle" x="810.5" y="-266.05" font-family="Helvetica,sans-Serif" font-size="10.00">AddMatrix</text>
</a>
</g>
</g>
<!-- Node18&#45;&gt;Node19 -->
<g id="edge21_Node000018_Node000019" class="edge">
<title>Node18&#45;&gt;Node19</title>
<g id="a_edge21_Node000018_Node000019"><a xlink:title=" ">
<path fill="none" stroke="#63b8ff" d="M696.08,-243.02C718.08,-247.97 744.93,-254.02 766.99,-258.99"/>
<polygon fill="#63b8ff" stroke="#63b8ff" points="766.23,-262.4 776.76,-261.18 767.77,-255.57 766.23,-262.4"/>
</a>
</g>
</g>
<!-- Node20 -->
<g id="Node000020" class="node">
<title>Node20</title>
<g id="a_Node000020"><a xlink:href="FrameInterpolation_8cpp.html#a8cf1f2d6fabc6925aa71a9515341b4aa" target="_top" xlink:title=" ">
<polygon fill="white" stroke="#666666" points="1038,-283.55 898,-283.55 898,-253.55 1038,-253.55 1038,-283.55"/>
<text text-anchor="start" x="906" y="-271.55" font-family="Helvetica,sans-Serif" font-size="10.00">FrameInterpolation</text>
<text text-anchor="middle" x="968" y="-260.55" font-family="Helvetica,sans-Serif" font-size="10.00">_RecordMatrixMtxFToMtx</text>
</a>
</g>
</g>
<!-- Node19&#45;&gt;Node20 -->
<g id="edge22_Node000019_Node000020" class="edge">
<title>Node19&#45;&gt;Node20</title>
<g id="a_edge22_Node000019_Node000020"><a xlink:title=" ">
<path fill="none" stroke="#63b8ff" d="M844.1,-268.55C856.96,-268.55 872.33,-268.55 887.79,-268.55"/>
<polygon fill="#63b8ff" stroke="#63b8ff" points="887.93,-272.05 897.93,-268.55 887.93,-265.05 887.93,-272.05"/>
</a>
</g>
</g>
<!-- Node21 -->
<g id="Node000021" class="node">
<title>Node21</title>
<g id="a_Node000021"><a xlink:href="guMtxF2L_8c.html#a40ab2d64c609839ff1e0ef0de2d0dcc4" target="_top" xlink:title=" ">
<polygon fill="white" stroke="#666666" points="1000.5,-235.05 935.5,-235.05 935.5,-216.05 1000.5,-216.05 1000.5,-235.05"/>
<text text-anchor="middle" x="968" y="-223.05" font-family="Helvetica,sans-Serif" font-size="10.00">guMtxF2L</text>
</a>
</g>
</g>
<!-- Node19&#45;&gt;Node21 -->
<g id="edge24_Node000019_Node000021" class="edge">
<title>Node19&#45;&gt;Node21</title>
<g id="a_edge24_Node000019_Node000021"><a xlink:title=" ">
<path fill="none" stroke="#63b8ff" d="M836.32,-259.04C849.22,-254.3 865.33,-248.71 880,-244.55 894.6,-240.42 910.8,-236.66 925.22,-233.6"/>
<polygon fill="#63b8ff" stroke="#63b8ff" points="926.28,-236.95 935.36,-231.5 924.86,-230.1 926.28,-236.95"/>
</a>
</g>
</g>
<!-- Node20&#45;&gt;Node7 -->
<g id="edge23_Node000020_Node000007" class="edge">
<title>Node20&#45;&gt;Node7</title>
<g id="a_edge23_Node000020_Node000007"><a xlink:title=" ">
<path fill="none" stroke="#63b8ff" d="M1037.99,-253.5C1044.29,-250.96 1050.39,-248 1056,-244.55 1089.58,-223.91 1118.11,-186.94 1133.29,-164.79"/>
<polygon fill="#63b8ff" stroke="#63b8ff" points="1136.31,-166.55 1138.95,-156.29 1130.49,-162.67 1136.31,-166.55"/>
</a>
</g>
</g>
<!-- Node23 -->
<g id="Node000023" class="node">
<title>Node23</title>
<g id="a_Node000023"><a xlink:href="math__util_8c.html#ae69cbf5c8d4b3b0dba2d7b4d4673689f" target="_top" xlink:title=" ">
<polygon fill="white" stroke="#666666" points="829.5,-165.05 791.5,-165.05 791.5,-146.05 829.5,-146.05 829.5,-165.05"/>
<text text-anchor="middle" x="810.5" y="-153.05" font-family="Helvetica,sans-Serif" font-size="10.00">coss</text>
</a>
</g>
</g>
<!-- Node22&#45;&gt;Node23 -->
<g id="edge26_Node000022_Node000023" class="edge">
<title>Node22&#45;&gt;Node23</title>
<g id="a_edge26_Node000022_Node000023"><a xlink:title=" ">
<path fill="none" stroke="#63b8ff" d="M693.24,-183.96C720.79,-177.23 756.98,-168.39 781.61,-162.37"/>
<polygon fill="#63b8ff" stroke="#63b8ff" points="782.52,-165.75 791.41,-159.97 780.86,-158.95 782.52,-165.75"/>
</a>
</g>
</g>
<!-- Node24 -->
<g id="Node000024" class="node">
<title>Node24</title>
<g id="a_Node000024"><a xlink:href="FrameInterpolation_8cpp.html#af749df1a96bee5c78287b1845455ae2d" target="_top" xlink:title=" ">
<polygon fill="white" stroke="#666666" points="1056,-193.55 880,-193.55 880,-163.55 1056,-163.55 1056,-193.55"/>
<text text-anchor="start" x="888" y="-181.55" font-family="Helvetica,sans-Serif" font-size="10.00">FrameInterpolation</text>
<text text-anchor="middle" x="968" y="-170.55" font-family="Helvetica,sans-Serif" font-size="10.00">_RecordSetMatrixTransformation</text>
</a>
</g>
</g>
<!-- Node22&#45;&gt;Node24 -->
<g id="edge27_Node000022_Node000024" class="edge">
<title>Node22&#45;&gt;Node24</title>
<g id="a_edge27_Node000022_Node000024"><a xlink:title=" ">
<path fill="none" stroke="#63b8ff" d="M699.02,-203.06C737.58,-209.89 794.56,-216.88 844,-210.55 866.2,-207.71 890.12,-202.1 910.91,-196.36"/>
<polygon fill="#63b8ff" stroke="#63b8ff" points="911.86,-199.72 920.53,-193.63 909.96,-192.99 911.86,-199.72"/>
</a>
</g>
</g>
<!-- Node25 -->
<g id="Node000025" class="node">
<title>Node25</title>
<g id="a_Node000025"><a xlink:href="math__util_8c.html#a19ed3bd78fd2d3e2bd0a29f6caf48545" target="_top" xlink:title=" ">
<polygon fill="white" stroke="#666666" points="828.5,-202.05 792.5,-202.05 792.5,-183.05 828.5,-183.05 828.5,-202.05"/>
<text text-anchor="middle" x="810.5" y="-190.05" font-family="Helvetica,sans-Serif" font-size="10.00">sins</text>
</a>
</g>
</g>
<!-- Node22&#45;&gt;Node25 -->
<g id="edge29_Node000022_Node000025" class="edge">
<title>Node22&#45;&gt;Node25</title>
<g id="a_edge29_Node000022_Node000025"><a xlink:title=" ">
<path fill="none" stroke="#63b8ff" d="M741.3,-192.99C756.09,-192.9 770.42,-192.8 782.09,-192.73"/>
<polygon fill="#63b8ff" stroke="#63b8ff" points="782.42,-196.23 792.39,-192.66 782.37,-189.23 782.42,-196.23"/>
</a>
</g>
</g>
<!-- Node24&#45;&gt;Node7 -->
<g id="edge28_Node000024_Node000007" class="edge">
<title>Node24&#45;&gt;Node7</title>
<g id="a_edge28_Node000024_Node000007"><a xlink:title=" ">
<path fill="none" stroke="#63b8ff" d="M1051.59,-163.54C1062.04,-161.64 1072.59,-159.72 1082.65,-157.89"/>
<polygon fill="#63b8ff" stroke="#63b8ff" points="1083.31,-161.33 1092.53,-156.09 1082.06,-154.44 1083.31,-161.33"/>
</a>
</g>
</g>
</g>
</svg>
