<?xml version="1.0" encoding="UTF-8" standalone="no"?>
<!DOCTYPE svg PUBLIC "-//W3C//DTD SVG 1.1//EN"
 "http://www.w3.org/Graphics/SVG/1.1/DTD/svg11.dtd">
<!-- Generated by graphviz version 2.43.0 (0)
 -->
<!-- Title: OHedgehog::Draw Pages: 1 -->
<svg width="1260pt" height="512pt"
 viewBox="0.00 0.00 1260.00 512.00" xmlns="http://www.w3.org/2000/svg" xmlns:xlink="http://www.w3.org/1999/xlink">
<g id="graph0" class="graph" transform="scale(1 1) rotate(0) translate(4 508)">
<title>OHedgehog::Draw</title>
<!-- Node1 -->
<g id="Node000001" class="node">
<title>Node1</title>
<g id="a_Node000001"><a xlink:title=" ">
<polygon fill="#999999" stroke="#666666" points="105,-370 0,-370 0,-351 105,-351 105,-370"/>
<text text-anchor="middle" x="52.5" y="-358" font-family="Helvetica,sans-Serif" font-size="10.00">OHedgehog::Draw</text>
</a>
</g>
</g>
<!-- Node2 -->
<g id="Node000002" class="node">
<title>Node2</title>
<g id="a_Node000002"><a xlink:href="update__objects_8c.html#a3953241e15c6372ac8944ba842148a9a" target="_top" xlink:title=" ">
<polygon fill="white" stroke="#666666" points="465,-504 366,-504 366,-485 465,-485 465,-504"/>
<text text-anchor="middle" x="415.5" y="-492" font-family="Helvetica,sans-Serif" font-size="10.00">clear_object_flag</text>
</a>
</g>
</g>
<!-- Node1&#45;&gt;Node2 -->
<g id="edge1_Node000001_Node000002" class="edge">
<title>Node1&#45;&gt;Node2</title>
<g id="a_edge1_Node000001_Node000002"><a xlink:title=" ">
<path fill="none" stroke="#63b8ff" d="M64.32,-370.07C80.11,-383.58 110.9,-408.2 141,-422.5 211.18,-455.85 299.11,-475.48 356.02,-485.61"/>
<polygon fill="#63b8ff" stroke="#63b8ff" points="355.47,-489.07 365.93,-487.33 356.67,-482.17 355.47,-489.07"/>
</a>
</g>
</g>
<!-- Node3 -->
<g id="Node000003" class="node">
<title>Node3</title>
<g id="a_Node000003"><a xlink:href="classOHedgehog.html#a65bd4c41d64eacf258c6ea830a1311f3" target="_top" xlink:title=" ">
<polygon fill="white" stroke="#666666" points="296,-218 141,-218 141,-199 296,-199 296,-218"/>
<text text-anchor="middle" x="218.5" y="-206" font-family="Helvetica,sans-Serif" font-size="10.00">OHedgehog::func_800555BC</text>
</a>
</g>
</g>
<!-- Node1&#45;&gt;Node3 -->
<g id="edge2_Node000001_Node000003" class="edge">
<title>Node1&#45;&gt;Node3</title>
<g id="a_edge2_Node000001_Node000003"><a xlink:title=" ">
<path fill="none" stroke="#63b8ff" d="M63.76,-350.99C91.03,-325.72 165.55,-256.65 199.82,-224.88"/>
<polygon fill="#63b8ff" stroke="#63b8ff" points="202.29,-227.37 207.24,-218 197.53,-222.24 202.29,-227.37"/>
</a>
</g>
</g>
<!-- Node19 -->
<g id="Node000019" class="node">
<title>Node19</title>
<g id="a_Node000019"><a xlink:href="update__objects_8c.html#ae85ab923e54f707801592c71f2a847cd" target="_top" xlink:title=" ">
<polygon fill="white" stroke="#666666" points="675,-67.5 571,-67.5 571,-37.5 675,-37.5 675,-67.5"/>
<text text-anchor="start" x="579" y="-55.5" font-family="Helvetica,sans-Serif" font-size="10.00">is_obj_flag_status</text>
<text text-anchor="middle" x="623" y="-44.5" font-family="Helvetica,sans-Serif" font-size="10.00">_active</text>
</a>
</g>
</g>
<!-- Node1&#45;&gt;Node19 -->
<g id="edge50_Node000001_Node000019" class="edge">
<title>Node1&#45;&gt;Node19</title>
<g id="a_edge50_Node000001_Node000019"><a xlink:title=" ">
<path fill="none" stroke="#63b8ff" d="M56.8,-350.78C66.47,-323.28 96.86,-243.44 141,-189.5 209.7,-105.54 229.58,-73.28 332,-37.5 407.47,-11.13 500.72,-23.19 560.76,-36.18"/>
<polygon fill="#63b8ff" stroke="#63b8ff" points="560.31,-39.67 570.84,-38.44 561.84,-32.84 560.31,-39.67"/>
</a>
</g>
</g>
<!-- Node33 -->
<g id="Node000033" class="node">
<title>Node33</title>
<g id="a_Node000033"><a xlink:href="code__80086E70_8c.html#a364496b44c479b8d7937d98d2283c89e" target="_top" xlink:title=" ">
<polygon fill="white" stroke="#666666" points="264.5,-413 172.5,-413 172.5,-394 264.5,-394 264.5,-413"/>
<text text-anchor="middle" x="218.5" y="-401" font-family="Helvetica,sans-Serif" font-size="10.00">func_8008A364</text>
</a>
</g>
</g>
<!-- Node1&#45;&gt;Node33 -->
<g id="edge43_Node000001_Node000033" class="edge">
<title>Node1&#45;&gt;Node33</title>
<g id="a_edge43_Node000001_Node000033"><a xlink:title=" ">
<path fill="none" stroke="#63b8ff" d="M89.9,-370.04C113.89,-376.33 145.52,-384.63 171.29,-391.38"/>
<polygon fill="#63b8ff" stroke="#63b8ff" points="170.64,-394.83 181.2,-393.98 172.42,-388.06 170.64,-394.83"/>
</a>
</g>
</g>
<!-- Node37 -->
<g id="Node000037" class="node">
<title>Node37</title>
<g id="a_Node000037"><a xlink:href="update__objects_8c.html#afe64f2394ee0deab6370b77609500bda" target="_top" xlink:title=" ">
<polygon fill="white" stroke="#666666" points="460.5,-370 370.5,-370 370.5,-351 460.5,-351 460.5,-370"/>
<text text-anchor="middle" x="415.5" y="-358" font-family="Helvetica,sans-Serif" font-size="10.00">set_object_flag</text>
</a>
</g>
</g>
<!-- Node1&#45;&gt;Node37 -->
<g id="edge51_Node000001_Node000037" class="edge">
<title>Node1&#45;&gt;Node37</title>
<g id="a_edge51_Node000001_Node000037"><a xlink:title=" ">
<path fill="none" stroke="#63b8ff" d="M105.22,-360.5C172.91,-360.5 291.01,-360.5 360.03,-360.5"/>
<polygon fill="#63b8ff" stroke="#63b8ff" points="360.25,-364 370.25,-360.5 360.25,-357 360.25,-364"/>
</a>
</g>
</g>
<!-- Node4 -->
<g id="Node000004" class="node">
<title>Node4</title>
<g id="a_Node000004"><a xlink:href="FrameInterpolation_8cpp.html#a3a036bc9d533e28a4e9697cd20dccf3e" target="_top" xlink:title=" ">
<polygon fill="white" stroke="#666666" points="678,-256.5 568,-256.5 568,-226.5 678,-226.5 678,-256.5"/>
<text text-anchor="start" x="576" y="-244.5" font-family="Helvetica,sans-Serif" font-size="10.00">FrameInterpolation</text>
<text text-anchor="middle" x="623" y="-233.5" font-family="Helvetica,sans-Serif" font-size="10.00">_RecordCloseChild</text>
</a>
</g>
</g>
<!-- Node3&#45;&gt;Node4 -->
<g id="edge3_Node000003_Node000004" class="edge">
<title>Node3&#45;&gt;Node4</title>
<g id="a_edge3_Node000003_Node000004"><a xlink:title=" ">
<path fill="none" stroke="#63b8ff" d="M271.72,-218.05C290.65,-221.19 312.23,-224.41 332,-226.5 409.33,-234.66 498.75,-238.43 557.62,-240.14"/>
<polygon fill="#63b8ff" stroke="#63b8ff" points="557.79,-243.65 567.88,-240.43 557.98,-236.65 557.79,-243.65"/>
</a>
</g>
</g>
<!-- Node6 -->
<g id="Node000006" class="node">
<title>Node6</title>
<g id="a_Node000006"><a xlink:href="FrameInterpolation_8cpp.html#a0eda726b74eac815af4e874014e2727c" target="_top" xlink:title=" ">
<polygon fill="white" stroke="#666666" points="678,-169.5 568,-169.5 568,-139.5 678,-139.5 678,-169.5"/>
<text text-anchor="start" x="576" y="-157.5" font-family="Helvetica,sans-Serif" font-size="10.00">FrameInterpolation</text>
<text text-anchor="middle" x="623" y="-146.5" font-family="Helvetica,sans-Serif" font-size="10.00">_RecordOpenChild</text>
</a>
</g>
</g>
<!-- Node3&#45;&gt;Node6 -->
<g id="edge5_Node000003_Node000006" class="edge">
<title>Node3&#45;&gt;Node6</title>
<g id="a_edge5_Node000003_Node000006"><a xlink:title=" ">
<path fill="none" stroke="#63b8ff" d="M272.64,-199C291.37,-195.79 312.59,-192.31 332,-189.5 409.41,-178.3 498.81,-167.89 557.66,-161.38"/>
<polygon fill="#63b8ff" stroke="#63b8ff" points="558.36,-164.83 567.92,-160.26 557.59,-157.87 558.36,-164.83"/>
</a>
</g>
</g>
<!-- Node7 -->
<g id="Node000007" class="node">
<title>Node7</title>
<g id="a_Node000007"><a xlink:href="math__util__2_8c.html#a99d173c040cb4a9d0184df2605d71e32" target="_top" xlink:title=" ">
<polygon fill="white" stroke="#666666" points="669,-386 577,-386 577,-367 669,-367 669,-386"/>
<text text-anchor="middle" x="623" y="-374" font-family="Helvetica,sans-Serif" font-size="10.00">func_800418AC</text>
</a>
</g>
</g>
<!-- Node3&#45;&gt;Node7 -->
<g id="edge7_Node000003_Node000007" class="edge">
<title>Node3&#45;&gt;Node7</title>
<g id="a_edge7_Node000003_Node000007"><a xlink:title=" ">
<path fill="none" stroke="#63b8ff" d="M228.06,-218.17C245.59,-237.34 287.65,-280.22 332,-302.5 400.2,-336.76 425.62,-321.52 499,-342.5 515.22,-347.14 518.81,-349.76 535,-354.5 546.8,-357.95 559.59,-361.37 571.64,-364.44"/>
<polygon fill="#63b8ff" stroke="#63b8ff" points="571,-367.89 581.55,-366.93 572.71,-361.1 571,-367.89"/>
</a>
</g>
</g>
<!-- Node10 -->
<g id="Node000010" class="node">
<title>Node10</title>
<g id="a_Node000010"><a xlink:href="classOHedgehog.html#a3565929a391e07261cd8783fa9e2ff34" target="_top" xlink:title=" ">
<polygon fill="white" stroke="#666666" points="493,-218 338,-218 338,-199 493,-199 493,-218"/>
<text text-anchor="middle" x="415.5" y="-206" font-family="Helvetica,sans-Serif" font-size="10.00">OHedgehog::func_8004A870</text>
</a>
</g>
</g>
<!-- Node3&#45;&gt;Node10 -->
<g id="edge10_Node000003_Node000010" class="edge">
<title>Node3&#45;&gt;Node10</title>
<g id="a_edge10_Node000003_Node000010"><a xlink:title=" ">
<path fill="none" stroke="#63b8ff" d="M296.01,-208.5C306.44,-208.5 317.21,-208.5 327.8,-208.5"/>
<polygon fill="#63b8ff" stroke="#63b8ff" points="327.89,-212 337.89,-208.5 327.89,-205 327.89,-212"/>
</a>
</g>
</g>
<!-- Node16 -->
<g id="Node000016" class="node">
<title>Node16</title>
<g id="a_Node000016"><a xlink:href="GBIMiddleware_8cpp.html#a4ecc44e3c6f1ca5a6b4a20c41d3bd2d2" target="_top" xlink:title=" ">
<polygon fill="white" stroke="#666666" points="667.5,-105 578.5,-105 578.5,-86 667.5,-86 667.5,-105"/>
<text text-anchor="middle" x="623" y="-93" font-family="Helvetica,sans-Serif" font-size="10.00">gSPDisplayList</text>
</a>
</g>
</g>
<!-- Node3&#45;&gt;Node16 -->
<g id="edge32_Node000003_Node000016" class="edge">
<title>Node3&#45;&gt;Node16</title>
<g id="a_edge32_Node000003_Node000016"><a xlink:title=" ">
<path fill="none" stroke="#63b8ff" d="M226.97,-198.98C243.42,-178.87 285.03,-132.35 332,-113.5 409.67,-82.33 508.46,-84 568.38,-89.04"/>
<polygon fill="#63b8ff" stroke="#63b8ff" points="568.11,-92.53 578.38,-89.94 568.74,-85.56 568.11,-92.53"/>
</a>
</g>
</g>
<!-- Node28 -->
<g id="Node000028" class="node">
<title>Node28</title>
<g id="a_Node000028"><a xlink:href="GBIMiddleware_8cpp.html#aeef79449a27a710d73576e4a4f7f7f99" target="_top" xlink:title=" ">
<polygon fill="white" stroke="#666666" points="448.5,-66 382.5,-66 382.5,-47 448.5,-47 448.5,-66"/>
<text text-anchor="middle" x="415.5" y="-54" font-family="Helvetica,sans-Serif" font-size="10.00">gSPVertex</text>
</a>
</g>
</g>
<!-- Node3&#45;&gt;Node28 -->
<g id="edge33_Node000003_Node000028" class="edge">
<title>Node3&#45;&gt;Node28</title>
<g id="a_edge33_Node000003_Node000028"><a xlink:title=" ">
<path fill="none" stroke="#63b8ff" d="M225.24,-198.81C239.87,-174.94 281.07,-112.89 332,-80.5 344.04,-72.85 358.59,-67.56 372.11,-63.94"/>
<polygon fill="#63b8ff" stroke="#63b8ff" points="373.29,-67.26 382.18,-61.49 371.63,-60.46 373.29,-67.26"/>
</a>
</g>
</g>
<!-- Node29 -->
<g id="Node000029" class="node">
<title>Node29</title>
<g id="a_Node000029"><a xlink:href="render__objects_8c.html#a8a3e9d3da5a6ac97b84b553fdc5d7d59" target="_top" xlink:title=" ">
<polygon fill="white" stroke="#666666" points="464.5,-142 366.5,-142 366.5,-123 464.5,-123 464.5,-142"/>
<text text-anchor="middle" x="415.5" y="-130" font-family="Helvetica,sans-Serif" font-size="10.00">rsp_load_texture</text>
</a>
</g>
</g>
<!-- Node3&#45;&gt;Node29 -->
<g id="edge35_Node000003_Node000029" class="edge">
<title>Node3&#45;&gt;Node29</title>
<g id="a_edge35_Node000003_Node000029"><a xlink:title=" ">
<path fill="none" stroke="#63b8ff" d="M237.85,-198.98C259.82,-187.82 297.94,-169.24 332,-156.5 343.35,-152.25 355.81,-148.28 367.52,-144.84"/>
<polygon fill="#63b8ff" stroke="#63b8ff" points="368.5,-148.21 377.15,-142.09 366.57,-141.48 368.5,-148.21"/>
</a>
</g>
</g>
<!-- Node30 -->
<g id="Node000030" class="node">
<title>Node30</title>
<g id="a_Node000030"><a xlink:href="math__util__2_8c.html#a2eff0e02deb703653ee3230fbc02eb14" target="_top" xlink:title="set the matrix to a transformation matrix">
<polygon fill="white" stroke="#666666" points="499,-294 332,-294 332,-275 499,-275 499,-294"/>
<text text-anchor="middle" x="415.5" y="-282" font-family="Helvetica,sans-Serif" font-size="10.00">rsp_set_matrix_transformation</text>
</a>
</g>
</g>
<!-- Node3&#45;&gt;Node30 -->
<g id="edge36_Node000003_Node000030" class="edge">
<title>Node3&#45;&gt;Node30</title>
<g id="a_edge36_Node000003_Node000030"><a xlink:title=" ">
<path fill="none" stroke="#63b8ff" d="M237.85,-218.02C259.82,-229.18 297.94,-247.76 332,-260.5 343.35,-264.75 355.81,-268.72 367.52,-272.16"/>
<polygon fill="#63b8ff" stroke="#63b8ff" points="366.57,-275.52 377.15,-274.91 368.5,-268.79 366.57,-275.52"/>
</a>
</g>
</g>
<!-- Node5 -->
<g id="Node000005" class="node">
<title>Node5</title>
<g id="a_Node000005"><a xlink:href="FrameInterpolation_8cpp.html#a02c7ac5342a4d376edee38f312b480bf" target="_top" xlink:title=" ">
<polygon fill="white" stroke="#666666" points="1252,-317 1144,-317 1144,-298 1252,-298 1252,-317"/>
<text text-anchor="middle" x="1198" y="-305" font-family="Helvetica,sans-Serif" font-size="10.00">check_if_recording</text>
</a>
</g>
</g>
<!-- Node4&#45;&gt;Node5 -->
<g id="edge4_Node000004_Node000005" class="edge">
<title>Node4&#45;&gt;Node5</title>
<g id="a_edge4_Node000004_Node000005"><a xlink:title=" ">
<path fill="none" stroke="#63b8ff" d="M678.39,-253.46C689.43,-256.72 700.78,-260.71 711,-265.5 728.64,-273.76 728.52,-284.33 747,-290.5 878.78,-334.52 1044.46,-325.61 1133.46,-316.05"/>
<polygon fill="#63b8ff" stroke="#63b8ff" points="1134.11,-319.5 1143.67,-314.92 1133.34,-312.54 1134.11,-319.5"/>
</a>
</g>
</g>
<!-- Node6&#45;&gt;Node5 -->
<g id="edge6_Node000006_Node000005" class="edge">
<title>Node6&#45;&gt;Node5</title>
<g id="a_edge6_Node000006_Node000005"><a xlink:title=" ">
<path fill="none" stroke="#63b8ff" d="M666.18,-139.45C681.24,-132.87 697.74,-124.19 711,-113.5 731.48,-96.98 723.41,-78.15 747,-66.5 806.38,-37.19 830.71,-55.43 896,-66.5 994.39,-83.18 1032.22,-75.56 1108,-140.5 1155.27,-181.01 1181.33,-253.05 1191.67,-287.74"/>
<polygon fill="#63b8ff" stroke="#63b8ff" points="1188.38,-288.95 1194.49,-297.61 1195.11,-287.03 1188.38,-288.95"/>
</a>
</g>
</g>
<!-- Node8 -->
<g id="Node000008" class="node">
<title>Node8</title>
<g id="a_Node000008"><a xlink:href="math__util_8c.html#aaa39a297477f56051975259f4bddd829" target="_top" xlink:title=" ">
<polygon fill="white" stroke="#666666" points="846.5,-471 796.5,-471 796.5,-452 846.5,-452 846.5,-471"/>
<text text-anchor="middle" x="821.5" y="-459" font-family="Helvetica,sans-Serif" font-size="10.00">atan2s</text>
</a>
</g>
</g>
<!-- Node7&#45;&gt;Node8 -->
<g id="edge8_Node000007_Node000008" class="edge">
<title>Node7&#45;&gt;Node8</title>
<g id="a_edge8_Node000007_Node000008"><a xlink:title=" ">
<path fill="none" stroke="#63b8ff" d="M669.35,-382.1C683.39,-385.21 698.45,-390.02 711,-397.5 731.55,-409.74 726.95,-424.46 747,-437.5 758.81,-445.18 773.29,-450.6 786.26,-454.32"/>
<polygon fill="#63b8ff" stroke="#63b8ff" points="785.7,-457.79 796.27,-456.95 787.48,-451.02 785.7,-457.79"/>
</a>
</g>
</g>
<!-- Node9 -->
<g id="Node000009" class="node">
<title>Node9</title>
<g id="a_Node000009"><a xlink:href="math__util_8c.html#a0273b0ea0783a06996c28669a7438ed9" target="_top" xlink:title=" ">
<polygon fill="white" stroke="#666666" points="1061,-489 979,-489 979,-470 1061,-470 1061,-489"/>
<text text-anchor="middle" x="1020" y="-477" font-family="Helvetica,sans-Serif" font-size="10.00">atan2_lookup</text>
</a>
</g>
</g>
<!-- Node8&#45;&gt;Node9 -->
<g id="edge9_Node000008_Node000009" class="edge">
<title>Node8&#45;&gt;Node9</title>
<g id="a_edge9_Node000008_Node000009"><a xlink:title=" ">
<path fill="none" stroke="#63b8ff" d="M846.59,-463.71C876.79,-466.47 929.34,-471.29 968.5,-474.87"/>
<polygon fill="#63b8ff" stroke="#63b8ff" points="968.38,-478.38 978.66,-475.8 969.02,-471.41 968.38,-478.38"/>
</a>
</g>
</g>
<!-- Node10&#45;&gt;Node4 -->
<g id="edge17_Node000010_Node000004" class="edge">
<title>Node10&#45;&gt;Node4</title>
<g id="a_edge17_Node000010_Node000004"><a xlink:title=" ">
<path fill="none" stroke="#63b8ff" d="M475.66,-218C501.31,-222.12 531.4,-226.95 557.61,-231.16"/>
<polygon fill="#63b8ff" stroke="#63b8ff" points="557.39,-234.67 567.82,-232.8 558.5,-227.76 557.39,-234.67"/>
</a>
</g>
</g>
<!-- Node10&#45;&gt;Node6 -->
<g id="edge18_Node000010_Node000006" class="edge">
<title>Node10&#45;&gt;Node6</title>
<g id="a_edge18_Node000010_Node000006"><a xlink:title=" ">
<path fill="none" stroke="#63b8ff" d="M452.77,-198.97C481.82,-191.34 523.29,-180.44 557.91,-171.34"/>
<polygon fill="#63b8ff" stroke="#63b8ff" points="559.16,-174.63 567.94,-168.7 557.38,-167.86 559.16,-174.63"/>
</a>
</g>
</g>
<!-- Node11 -->
<g id="Node000011" class="node">
<title>Node11</title>
<g id="a_Node000011"><a xlink:href="Matrix_8cpp.html#a329d78c031733cf22ff7518f5d38fd74" target="_top" xlink:title=" ">
<polygon fill="white" stroke="#666666" points="666,-345 580,-345 580,-326 666,-326 666,-345"/>
<text text-anchor="middle" x="623" y="-333" font-family="Helvetica,sans-Serif" font-size="10.00">AddHudMatrix</text>
</a>
</g>
</g>
<!-- Node10&#45;&gt;Node11 -->
<g id="edge11_Node000010_Node000011" class="edge">
<title>Node10&#45;&gt;Node11</title>
<g id="a_edge11_Node000010_Node000011"><a xlink:title=" ">
<path fill="none" stroke="#63b8ff" d="M432.36,-218.15C449.47,-228.86 477.2,-247.07 499,-265.5 516.52,-280.31 515.82,-289.91 535,-302.5 547.73,-310.85 562.88,-317.53 576.94,-322.63"/>
<polygon fill="#63b8ff" stroke="#63b8ff" points="575.86,-325.96 586.46,-325.91 578.14,-319.34 575.86,-325.96"/>
</a>
</g>
</g>
<!-- Node10&#45;&gt;Node16 -->
<g id="edge19_Node000010_Node000016" class="edge">
<title>Node10&#45;&gt;Node16</title>
<g id="a_edge19_Node000010_Node000016"><a xlink:title=" ">
<path fill="none" stroke="#63b8ff" d="M429.13,-198.96C450.25,-183.3 494.41,-151.75 535,-130.5 550.89,-122.18 569.21,-114.54 584.93,-108.54"/>
<polygon fill="#63b8ff" stroke="#63b8ff" points="586.19,-111.8 594.33,-105.02 583.74,-105.25 586.19,-111.8"/>
</a>
</g>
</g>
<!-- Node10&#45;&gt;Node19 -->
<g id="edge22_Node000010_Node000019" class="edge">
<title>Node10&#45;&gt;Node19</title>
<g id="a_edge22_Node000010_Node000019"><a xlink:title=" ">
<path fill="none" stroke="#63b8ff" d="M435.28,-198.96C453.5,-188.94 480.95,-171.69 499,-150.5 522.71,-122.65 506.88,-99.88 535,-76.5 542.51,-70.26 551.52,-65.63 560.86,-62.2"/>
<polygon fill="#63b8ff" stroke="#63b8ff" points="562.21,-65.44 570.66,-59.05 560.07,-58.78 562.21,-65.44"/>
</a>
</g>
</g>
<!-- Node20 -->
<g id="Node000020" class="node">
<title>Node20</title>
<g id="a_Node000020"><a xlink:href="math__util__2_8c.html#aae502d60ed48e002c9bf17890477aebc" target="_top" xlink:title=" ">
<polygon fill="white" stroke="#666666" points="684,-207 562,-207 562,-188 684,-188 684,-207"/>
<text text-anchor="middle" x="623" y="-195" font-family="Helvetica,sans-Serif" font-size="10.00">set_transform_matrix</text>
</a>
</g>
</g>
<!-- Node10&#45;&gt;Node20 -->
<g id="edge23_Node000010_Node000020" class="edge">
<title>Node10&#45;&gt;Node20</title>
<g id="a_edge23_Node000010_Node000020"><a xlink:title=" ">
<path fill="none" stroke="#63b8ff" d="M493.02,-204.4C512.27,-203.37 532.84,-202.27 551.76,-201.26"/>
<polygon fill="#63b8ff" stroke="#63b8ff" points="551.99,-204.75 561.79,-200.72 551.62,-197.76 551.99,-204.75"/>
</a>
</g>
</g>
<!-- Node12 -->
<g id="Node000012" class="node">
<title>Node12</title>
<g id="a_Node000012"><a xlink:href="Matrix_8cpp.html#a67401ed1d8de1f4d3a3e5a7b72842b6a" target="_top" xlink:title=" ">
<polygon fill="white" stroke="#666666" points="855,-395 788,-395 788,-376 855,-376 855,-395"/>
<text text-anchor="middle" x="821.5" y="-383" font-family="Helvetica,sans-Serif" font-size="10.00">AddMatrix</text>
</a>
</g>
</g>
<!-- Node11&#45;&gt;Node12 -->
<g id="edge12_Node000011_Node000012" class="edge">
<title>Node11&#45;&gt;Node12</title>
<g id="a_edge12_Node000011_Node000012"><a xlink:title=" ">
<path fill="none" stroke="#63b8ff" d="M660.03,-345.02C684.53,-351.45 717.69,-360.1 747,-367.5 757.03,-370.03 767.85,-372.71 778.01,-375.2"/>
<polygon fill="#63b8ff" stroke="#63b8ff" points="777.37,-378.65 787.91,-377.63 779.03,-371.85 777.37,-378.65"/>
</a>
</g>
</g>
<!-- Node15 -->
<g id="Node000015" class="node">
<title>Node15</title>
<g id="a_Node000015"><a xlink:href="Game_8cpp.html#ae2fa844b3cb1021ecbc357f8ed2ad8cc" target="_top" xlink:title=" ">
<polygon fill="white" stroke="#666666" points="852.5,-358 790.5,-358 790.5,-339 852.5,-339 852.5,-358"/>
<text text-anchor="middle" x="821.5" y="-346" font-family="Helvetica,sans-Serif" font-size="10.00">GetWorld</text>
</a>
</g>
</g>
<!-- Node11&#45;&gt;Node15 -->
<g id="edge16_Node000011_Node000015" class="edge">
<title>Node11&#45;&gt;Node15</title>
<g id="a_edge16_Node000011_Node000015"><a xlink:title=" ">
<path fill="none" stroke="#63b8ff" d="M666.15,-338.29C699.84,-340.52 746.74,-343.62 779.99,-345.82"/>
<polygon fill="#63b8ff" stroke="#63b8ff" points="780.06,-349.33 790.27,-346.5 780.52,-342.35 780.06,-349.33"/>
</a>
</g>
</g>
<!-- Node13 -->
<g id="Node000013" class="node">
<title>Node13</title>
<g id="a_Node000013"><a xlink:href="FrameInterpolation_8cpp.html#a8cf1f2d6fabc6925aa71a9515341b4aa" target="_top" xlink:title=" ">
<polygon fill="white" stroke="#666666" points="1090,-403.5 950,-403.5 950,-373.5 1090,-373.5 1090,-403.5"/>
<text text-anchor="start" x="958" y="-391.5" font-family="Helvetica,sans-Serif" font-size="10.00">FrameInterpolation</text>
<text text-anchor="middle" x="1020" y="-380.5" font-family="Helvetica,sans-Serif" font-size="10.00">_RecordMatrixMtxFToMtx</text>
</a>
</g>
</g>
<!-- Node12&#45;&gt;Node13 -->
<g id="edge13_Node000012_Node000013" class="edge">
<title>Node12&#45;&gt;Node13</title>
<g id="a_edge13_Node000012_Node000013"><a xlink:title=" ">
<path fill="none" stroke="#63b8ff" d="M855.39,-386C878.36,-386.35 910.04,-386.84 939.42,-387.29"/>
<polygon fill="#63b8ff" stroke="#63b8ff" points="939.64,-390.79 949.7,-387.44 939.75,-383.79 939.64,-390.79"/>
</a>
</g>
</g>
<!-- Node14 -->
<g id="Node000014" class="node">
<title>Node14</title>
<g id="a_Node000014"><a xlink:href="guMtxF2L_8c.html#a40ab2d64c609839ff1e0ef0de2d0dcc4" target="_top" xlink:title=" ">
<polygon fill="white" stroke="#666666" points="1052.5,-355 987.5,-355 987.5,-336 1052.5,-336 1052.5,-355"/>
<text text-anchor="middle" x="1020" y="-343" font-family="Helvetica,sans-Serif" font-size="10.00">guMtxF2L</text>
</a>
</g>
</g>
<!-- Node12&#45;&gt;Node14 -->
<g id="edge15_Node000012_Node000014" class="edge">
<title>Node12&#45;&gt;Node14</title>
<g id="a_edge15_Node000012_Node000014"><a xlink:title=" ">
<path fill="none" stroke="#63b8ff" d="M855.39,-378.8C888.94,-371.97 941.11,-361.35 977.49,-353.95"/>
<polygon fill="#63b8ff" stroke="#63b8ff" points="978.21,-357.38 987.31,-351.95 976.81,-350.52 978.21,-357.38"/>
</a>
</g>
</g>
<!-- Node13&#45;&gt;Node5 -->
<g id="edge14_Node000013_Node000005" class="edge">
<title>Node13&#45;&gt;Node5</title>
<g id="a_edge14_Node000013_Node000005"><a xlink:title=" ">
<path fill="none" stroke="#63b8ff" d="M1084.51,-373.39C1092.55,-370.78 1100.56,-367.82 1108,-364.5 1132.97,-353.37 1159.03,-335.88 1176.45,-323.21"/>
<polygon fill="#63b8ff" stroke="#63b8ff" points="1178.77,-325.85 1184.72,-317.08 1174.6,-320.22 1178.77,-325.85"/>
</a>
</g>
</g>
<!-- Node17 -->
<g id="Node000017" class="node">
<title>Node17</title>
<g id="a_Node000017"><a xlink:href="Engine_8cpp.html#a223c8bc63f228dc11177515e38eff2db" target="_top" xlink:title=" ">
<polygon fill="white" stroke="#666666" points="896,-19 747,-19 747,0 896,0 896,-19"/>
<text text-anchor="middle" x="821.5" y="-7" font-family="Helvetica,sans-Serif" font-size="10.00">GameEngine_OTRSigCheck</text>
</a>
</g>
</g>
<!-- Node16&#45;&gt;Node17 -->
<g id="edge20_Node000016_Node000017" class="edge">
<title>Node16&#45;&gt;Node17</title>
<g id="a_edge20_Node000016_Node000017"><a xlink:title=" ">
<path fill="none" stroke="#63b8ff" d="M667.7,-91.69C682.25,-88.97 698.04,-84.35 711,-76.5 732.32,-63.59 726.35,-47.46 747,-33.5 753.49,-29.11 760.84,-25.48 768.32,-22.48"/>
<polygon fill="#63b8ff" stroke="#63b8ff" points="769.62,-25.73 777.81,-19.02 767.22,-19.16 769.62,-25.73"/>
</a>
</g>
</g>
<!-- Node18 -->
<g id="Node000018" class="node">
<title>Node18</title>
<g id="a_Node000018"><a xlink:href="string_8c.html#a008e171a518fe0e0352f31b245e03875" target="_top" xlink:title=" ">
<polygon fill="white" stroke="#666666" points="1042,-19 998,-19 998,0 1042,0 1042,-19"/>
<text text-anchor="middle" x="1020" y="-7" font-family="Helvetica,sans-Serif" font-size="10.00">strlen</text>
</a>
</g>
</g>
<!-- Node17&#45;&gt;Node18 -->
<g id="edge21_Node000017_Node000018" class="edge">
<title>Node17&#45;&gt;Node18</title>
<g id="a_edge21_Node000017_Node000018"><a xlink:title=" ">
<path fill="none" stroke="#63b8ff" d="M896.23,-9.5C927.91,-9.5 963.23,-9.5 987.82,-9.5"/>
<polygon fill="#63b8ff" stroke="#63b8ff" points="987.99,-13 997.99,-9.5 987.99,-6 987.99,-13"/>
</a>
</g>
</g>
<!-- Node21 -->
<g id="Node000021" class="node">
<title>Node21</title>
<g id="a_Node000021"><a xlink:href="math__util_8c.html#ae69cbf5c8d4b3b0dba2d7b4d4673689f" target="_top" xlink:title=" ">
<polygon fill="white" stroke="#666666" points="840.5,-245 802.5,-245 802.5,-226 840.5,-226 840.5,-245"/>
<text text-anchor="middle" x="821.5" y="-233" font-family="Helvetica,sans-Serif" font-size="10.00">coss</text>
</a>
</g>
</g>
<!-- Node20&#45;&gt;Node21 -->
<g id="edge24_Node000020_Node000021" class="edge">
<title>Node20&#45;&gt;Node21</title>
<g id="a_edge24_Node000020_Node000021"><a xlink:title=" ">
<path fill="none" stroke="#63b8ff" d="M673.33,-207.04C710.76,-214.28 760.89,-223.97 791.92,-229.97"/>
<polygon fill="#63b8ff" stroke="#63b8ff" points="791.57,-233.47 802.05,-231.93 792.9,-226.6 791.57,-233.47"/>
</a>
</g>
</g>
<!-- Node22 -->
<g id="Node000022" class="node">
<title>Node22</title>
<g id="a_Node000022"><a xlink:href="FrameInterpolation_8cpp.html#adc4e082ac2a755e94aa8b4e8bbba9850" target="_top" xlink:title=" ">
<polygon fill="white" stroke="#666666" points="1096,-250.5 944,-250.5 944,-220.5 1096,-220.5 1096,-250.5"/>
<text text-anchor="start" x="952" y="-238.5" font-family="Helvetica,sans-Serif" font-size="10.00">FrameInterpolation</text>
<text text-anchor="middle" x="1020" y="-227.5" font-family="Helvetica,sans-Serif" font-size="10.00">_RecordSetTransformMatrix</text>
</a>
</g>
</g>
<!-- Node20&#45;&gt;Node22 -->
<g id="edge25_Node000020_Node000022" class="edge">
<title>Node20&#45;&gt;Node22</title>
<g id="a_edge25_Node000020_Node000022"><a xlink:title=" ">
<path fill="none" stroke="#63b8ff" d="M684.09,-200.25C739.29,-203.13 823.32,-208.36 896,-216.5 908.2,-217.87 921.04,-219.56 933.64,-221.37"/>
<polygon fill="#63b8ff" stroke="#63b8ff" points="933.27,-224.86 943.68,-222.85 934.29,-217.93 933.27,-224.86"/>
</a>
</g>
</g>
<!-- Node23 -->
<g id="Node000023" class="node">
<title>Node23</title>
<g id="a_Node000023"><a xlink:href="math__util_8c.html#a19ed3bd78fd2d3e2bd0a29f6caf48545" target="_top" xlink:title=" ">
<polygon fill="white" stroke="#666666" points="839.5,-282 803.5,-282 803.5,-263 839.5,-263 839.5,-282"/>
<text text-anchor="middle" x="821.5" y="-270" font-family="Helvetica,sans-Serif" font-size="10.00">sins</text>
</a>
</g>
</g>
<!-- Node20&#45;&gt;Node23 -->
<g id="edge27_Node000020_Node000023" class="edge">
<title>Node20&#45;&gt;Node23</title>
<g id="a_edge27_Node000020_Node000023"><a xlink:title=" ">
<path fill="none" stroke="#63b8ff" d="M684.14,-206.66C693.46,-209.39 702.73,-212.92 711,-217.5 730.8,-228.46 727.35,-242.27 747,-253.5 761.27,-261.66 779.08,-266.38 793.6,-269.07"/>
<polygon fill="#63b8ff" stroke="#63b8ff" points="793.05,-272.53 803.49,-270.69 794.19,-265.62 793.05,-272.53"/>
</a>
</g>
</g>
<!-- Node24 -->
<g id="Node000024" class="node">
<title>Node24</title>
<g id="a_Node000024"><a xlink:href="math__util__2_8c.html#ab05a6d20123383498f07f82db7b6fb8d" target="_top" xlink:title=" ">
<polygon fill="white" stroke="#666666" points="879.5,-95 763.5,-95 763.5,-76 879.5,-76 879.5,-95"/>
<text text-anchor="middle" x="821.5" y="-83" font-family="Helvetica,sans-Serif" font-size="10.00">vec3f_cross_product</text>
</a>
</g>
</g>
<!-- Node20&#45;&gt;Node24 -->
<g id="edge28_Node000020_Node000024" class="edge">
<title>Node20&#45;&gt;Node24</title>
<g id="a_edge28_Node000020_Node000024"><a xlink:title=" ">
<path fill="none" stroke="#63b8ff" d="M684.31,-191.83C693.92,-188.89 703.24,-184.64 711,-178.5 740,-155.56 718.29,-126.8 747,-103.5 749.3,-101.64 751.75,-99.96 754.33,-98.46"/>
<polygon fill="#63b8ff" stroke="#63b8ff" points="756.04,-101.52 763.48,-93.97 752.96,-95.23 756.04,-101.52"/>
</a>
</g>
</g>
<!-- Node25 -->
<g id="Node000025" class="node">
<title>Node25</title>
<g id="a_Node000025"><a xlink:href="math__util__2_8c.html#ad692d06c2c62cfc4e1b91e03cc0acf00" target="_top" xlink:title=" ">
<polygon fill="white" stroke="#666666" points="870.5,-169 772.5,-169 772.5,-150 870.5,-150 870.5,-169"/>
<text text-anchor="middle" x="821.5" y="-157" font-family="Helvetica,sans-Serif" font-size="10.00">vec3f_normalize</text>
</a>
</g>
</g>
<!-- Node20&#45;&gt;Node25 -->
<g id="edge29_Node000020_Node000025" class="edge">
<title>Node20&#45;&gt;Node25</title>
<g id="a_edge29_Node000020_Node000025"><a xlink:title=" ">
<path fill="none" stroke="#63b8ff" d="M673.33,-187.96C700.26,-182.75 733.78,-176.27 762.02,-170.81"/>
<polygon fill="#63b8ff" stroke="#63b8ff" points="763.01,-174.18 772.17,-168.85 761.69,-167.31 763.01,-174.18"/>
</a>
</g>
</g>
<!-- Node27 -->
<g id="Node000027" class="node">
<title>Node27</title>
<g id="a_Node000027"><a xlink:href="math__util__2_8c.html#a03ebc759ba50db479384b0ad89225f1e" target="_top" xlink:title=" ">
<polygon fill="white" stroke="#666666" points="864.5,-132 778.5,-132 778.5,-113 864.5,-113 864.5,-132"/>
<text text-anchor="middle" x="821.5" y="-120" font-family="Helvetica,sans-Serif" font-size="10.00">vec3f_set_xyz</text>
</a>
</g>
</g>
<!-- Node20&#45;&gt;Node27 -->
<g id="edge31_Node000020_Node000027" class="edge">
<title>Node20&#45;&gt;Node27</title>
<g id="a_edge31_Node000020_Node000027"><a xlink:title=" ">
<path fill="none" stroke="#63b8ff" d="M684.24,-189.29C693.55,-186.64 702.79,-183.13 711,-178.5 731.26,-167.07 726.88,-152.19 747,-140.5 753.63,-136.65 761.07,-133.61 768.59,-131.23"/>
<polygon fill="#63b8ff" stroke="#63b8ff" points="769.79,-134.53 778.47,-128.45 767.9,-127.79 769.79,-134.53"/>
</a>
</g>
</g>
<!-- Node22&#45;&gt;Node5 -->
<g id="edge26_Node000022_Node000005" class="edge">
<title>Node22&#45;&gt;Node5</title>
<g id="a_edge26_Node000022_Node000005"><a xlink:title=" ">
<path fill="none" stroke="#63b8ff" d="M1057.9,-250.59C1089.23,-263.41 1133.79,-281.64 1163.97,-293.99"/>
<polygon fill="#63b8ff" stroke="#63b8ff" points="1163.03,-297.39 1173.61,-297.93 1165.68,-290.91 1163.03,-297.39"/>
</a>
</g>
</g>
<!-- Node26 -->
<g id="Node000026" class="node">
<title>Node26</title>
<g id="a_Node000026"><a xlink:href="math_8h.html#a37bde043e94a6f074c78f10518fb5d99" target="_top" xlink:title=" ">
<polygon fill="white" stroke="#666666" points="1039.5,-169 1000.5,-169 1000.5,-150 1039.5,-150 1039.5,-169"/>
<text text-anchor="middle" x="1020" y="-157" font-family="Helvetica,sans-Serif" font-size="10.00">sqrtf</text>
</a>
</g>
</g>
<!-- Node25&#45;&gt;Node26 -->
<g id="edge30_Node000025_Node000026" class="edge">
<title>Node25&#45;&gt;Node26</title>
<g id="a_edge30_Node000025_Node000026"><a xlink:title=" ">
<path fill="none" stroke="#63b8ff" d="M870.57,-159.5C907.97,-159.5 958.64,-159.5 990.05,-159.5"/>
<polygon fill="#63b8ff" stroke="#63b8ff" points="990.3,-163 1000.3,-159.5 990.3,-156 990.3,-163"/>
</a>
</g>
</g>
<!-- Node28&#45;&gt;Node17 -->
<g id="edge34_Node000028_Node000017" class="edge">
<title>Node28&#45;&gt;Node17</title>
<g id="a_edge34_Node000028_Node000017"><a xlink:title=" ">
<path fill="none" stroke="#63b8ff" d="M448.66,-47.38C472.34,-41.03 505.42,-32.95 535,-28.5 602.43,-18.36 679.62,-13.63 736.73,-11.43"/>
<polygon fill="#63b8ff" stroke="#63b8ff" points="736.93,-14.92 746.79,-11.06 736.67,-7.93 736.93,-14.92"/>
</a>
</g>
</g>
<!-- Node30&#45;&gt;Node11 -->
<g id="edge37_Node000030_Node000011" class="edge">
<title>Node30&#45;&gt;Node11</title>
<g id="a_edge37_Node000030_Node000011"><a xlink:title=" ">
<path fill="none" stroke="#63b8ff" d="M455.15,-294.09C488.74,-302.43 537.53,-314.54 573.68,-323.51"/>
<polygon fill="#63b8ff" stroke="#63b8ff" points="572.97,-326.94 583.52,-325.95 574.66,-320.14 572.97,-326.94"/>
</a>
</g>
</g>
<!-- Node31 -->
<g id="Node000031" class="node">
<title>Node31</title>
<g id="a_Node000031"><a xlink:href="math__util__2_8c.html#ae71383a9d7f97bcb240b23f68068ab30" target="_top" xlink:title=" ">
<polygon fill="white" stroke="#666666" points="711,-294 535,-294 535,-275 711,-275 711,-294"/>
<text text-anchor="middle" x="623" y="-282" font-family="Helvetica,sans-Serif" font-size="10.00">mtxf_set_matrix_transformation</text>
</a>
</g>
</g>
<!-- Node30&#45;&gt;Node31 -->
<g id="edge38_Node000030_Node000031" class="edge">
<title>Node30&#45;&gt;Node31</title>
<g id="a_edge38_Node000030_Node000031"><a xlink:title=" ">
<path fill="none" stroke="#63b8ff" d="M499.2,-284.5C507.61,-284.5 516.22,-284.5 524.77,-284.5"/>
<polygon fill="#63b8ff" stroke="#63b8ff" points="524.77,-288 534.77,-284.5 524.77,-281 524.77,-288"/>
</a>
</g>
</g>
<!-- Node31&#45;&gt;Node21 -->
<g id="edge39_Node000031_Node000021" class="edge">
<title>Node31&#45;&gt;Node21</title>
<g id="a_edge39_Node000031_Node000021"><a xlink:title=" ">
<path fill="none" stroke="#63b8ff" d="M672.09,-274.96C684.81,-272.17 698.48,-268.94 711,-265.5 727.26,-261.03 730.8,-258.18 747,-253.5 761.89,-249.2 778.66,-245.05 792.41,-241.81"/>
<polygon fill="#63b8ff" stroke="#63b8ff" points="793.31,-245.19 802.27,-239.53 791.74,-238.38 793.31,-245.19"/>
</a>
</g>
</g>
<!-- Node31&#45;&gt;Node23 -->
<g id="edge42_Node000031_Node000023" class="edge">
<title>Node31&#45;&gt;Node23</title>
<g id="a_edge42_Node000031_Node000023"><a xlink:title=" ">
<path fill="none" stroke="#63b8ff" d="M711.05,-279.18C740.59,-277.38 771.51,-275.49 792.92,-274.18"/>
<polygon fill="#63b8ff" stroke="#63b8ff" points="793.42,-277.66 803.19,-273.56 793,-270.67 793.42,-277.66"/>
</a>
</g>
</g>
<!-- Node32 -->
<g id="Node000032" class="node">
<title>Node32</title>
<g id="a_Node000032"><a xlink:href="FrameInterpolation_8cpp.html#af749df1a96bee5c78287b1845455ae2d" target="_top" xlink:title=" ">
<polygon fill="white" stroke="#666666" points="1108,-451.5 932,-451.5 932,-421.5 1108,-421.5 1108,-451.5"/>
<text text-anchor="start" x="940" y="-439.5" font-family="Helvetica,sans-Serif" font-size="10.00">FrameInterpolation</text>
<text text-anchor="middle" x="1020" y="-428.5" font-family="Helvetica,sans-Serif" font-size="10.00">_RecordSetMatrixTransformation</text>
</a>
</g>
</g>
<!-- Node31&#45;&gt;Node32 -->
<g id="edge40_Node000031_Node000032" class="edge">
<title>Node31&#45;&gt;Node32</title>
<g id="a_edge40_Node000031_Node000032"><a xlink:title=" ">
<path fill="none" stroke="#63b8ff" d="M671.35,-294.11C685.49,-298.89 700.11,-306 711,-316.5 741.41,-345.84 713.35,-378.93 747,-404.5 773.96,-424.99 855.13,-432.58 921.83,-435.29"/>
<polygon fill="#63b8ff" stroke="#63b8ff" points="921.86,-438.79 931.98,-435.67 922.12,-431.8 921.86,-438.79"/>
</a>
</g>
</g>
<!-- Node32&#45;&gt;Node5 -->
<g id="edge41_Node000032_Node000005" class="edge">
<title>Node32&#45;&gt;Node5</title>
<g id="a_edge41_Node000032_Node000005"><a xlink:title=" ">
<path fill="none" stroke="#63b8ff" d="M1090.56,-421.47C1096.67,-418.92 1102.59,-415.96 1108,-412.5 1143.05,-390.11 1171.57,-349.64 1186.25,-326.02"/>
<polygon fill="#63b8ff" stroke="#63b8ff" points="1189.34,-327.68 1191.51,-317.3 1183.34,-324.06 1189.34,-327.68"/>
</a>
</g>
</g>
<!-- Node33&#45;&gt;Node2 -->
<g id="edge44_Node000033_Node000002" class="edge">
<title>Node33&#45;&gt;Node2</title>
<g id="a_edge44_Node000033_Node000002"><a xlink:title=" ">
<path fill="none" stroke="#63b8ff" d="M234.28,-413.15C263.6,-432.26 326.76,-473.3 332,-475.5 339.51,-478.66 347.64,-481.34 355.77,-483.6"/>
<polygon fill="#63b8ff" stroke="#63b8ff" points="355.08,-487.04 365.64,-486.16 356.84,-480.26 355.08,-487.04"/>
</a>
</g>
</g>
<!-- Node34 -->
<g id="Node000034" class="node">
<title>Node34</title>
<g id="a_Node000034"><a xlink:href="code__80086E70_8c.html#abee4ac0bf830479754bf7a3054719714" target="_top" xlink:title="Returns the distance between the object and the camera.">
<polygon fill="white" stroke="#666666" points="482,-466.5 349,-466.5 349,-436.5 482,-436.5 482,-466.5"/>
<text text-anchor="start" x="357" y="-454.5" font-family="Helvetica,sans-Serif" font-size="10.00">get_horizontal_distance</text>
<text text-anchor="middle" x="415.5" y="-443.5" font-family="Helvetica,sans-Serif" font-size="10.00">_to_camera</text>
</a>
</g>
</g>
<!-- Node33&#45;&gt;Node34 -->
<g id="edge45_Node000033_Node000034" class="edge">
<title>Node33&#45;&gt;Node34</title>
<g id="a_edge45_Node000033_Node000034"><a xlink:title=" ">
<path fill="none" stroke="#63b8ff" d="M258.49,-413.1C282.75,-419.07 314.68,-426.93 343.33,-433.98"/>
<polygon fill="#63b8ff" stroke="#63b8ff" points="342.76,-437.45 353.31,-436.44 344.43,-430.65 342.76,-437.45"/>
</a>
</g>
</g>
<!-- Node35 -->
<g id="Node000035" class="node">
<title>Node35</title>
<g id="a_Node000035"><a xlink:href="code__80086E70_8c.html#abe4dd4c208100b3bca1036d0a14074f2" target="_top" xlink:title=" ">
<polygon fill="white" stroke="#666666" points="473,-418.5 358,-418.5 358,-388.5 473,-388.5 473,-418.5"/>
<text text-anchor="start" x="366" y="-406.5" font-family="Helvetica,sans-Serif" font-size="10.00">is_object_visible_on</text>
<text text-anchor="middle" x="415.5" y="-395.5" font-family="Helvetica,sans-Serif" font-size="10.00">_camera</text>
</a>
</g>
</g>
<!-- Node33&#45;&gt;Node35 -->
<g id="edge46_Node000033_Node000035" class="edge">
<title>Node33&#45;&gt;Node35</title>
<g id="a_edge46_Node000033_Node000035"><a xlink:title=" ">
<path fill="none" stroke="#63b8ff" d="M264.73,-403.5C289.37,-403.5 320.34,-403.5 347.71,-403.5"/>
<polygon fill="#63b8ff" stroke="#63b8ff" points="348,-407 358,-403.5 348,-400 348,-407"/>
</a>
</g>
</g>
<!-- Node33&#45;&gt;Node37 -->
<g id="edge49_Node000033_Node000037" class="edge">
<title>Node33&#45;&gt;Node37</title>
<g id="a_edge49_Node000033_Node000037"><a xlink:title=" ">
<path fill="none" stroke="#63b8ff" d="M262.78,-393.96C291.94,-387.53 330.58,-379 361.57,-372.17"/>
<polygon fill="#63b8ff" stroke="#63b8ff" points="362.33,-375.59 371.34,-370.02 360.83,-368.75 362.33,-375.59"/>
</a>
</g>
</g>
<!-- Node36 -->
<g id="Node000036" class="node">
<title>Node36</title>
<g id="a_Node000036"><a xlink:href="math__util__2_8c.html#a13e56d0f66165ef2bfef5122f7de73b6" target="_top" xlink:title=" ">
<polygon fill="white" stroke="#666666" points="687.5,-425 558.5,-425 558.5,-406 687.5,-406 687.5,-425"/>
<text text-anchor="middle" x="623" y="-413" font-family="Helvetica,sans-Serif" font-size="10.00">get_angle_between_xy</text>
</a>
</g>
</g>
<!-- Node35&#45;&gt;Node36 -->
<g id="edge47_Node000035_Node000036" class="edge">
<title>Node35&#45;&gt;Node36</title>
<g id="a_edge47_Node000035_Node000036"><a xlink:title=" ">
<path fill="none" stroke="#63b8ff" d="M473.2,-406.81C496.38,-408.16 523.5,-409.75 548.2,-411.19"/>
<polygon fill="#63b8ff" stroke="#63b8ff" points="548.06,-414.69 558.25,-411.78 548.47,-407.7 548.06,-414.69"/>
</a>
</g>
</g>
<!-- Node36&#45;&gt;Node8 -->
<g id="edge48_Node000036_Node000008" class="edge">
<title>Node36&#45;&gt;Node8</title>
<g id="a_edge48_Node000036_Node000008"><a xlink:title=" ">
<path fill="none" stroke="#63b8ff" d="M664.71,-425.03C700.68,-433.45 752.52,-445.59 786.35,-453.51"/>
<polygon fill="#63b8ff" stroke="#63b8ff" points="785.71,-456.95 796.24,-455.82 787.3,-450.13 785.71,-456.95"/>
</a>
</g>
</g>
</g>
</svg>
