<?xml version="1.0" encoding="UTF-8" standalone="no"?>
<!DOCTYPE svg PUBLIC "-//W3C//DTD SVG 1.1//EN"
 "http://www.w3.org/Graphics/SVG/1.1/DTD/svg11.dtd">
<!-- Generated by graphviz version 2.43.0 (0)
 -->
<!-- Title: MarioRaceway::Draw Pages: 1 -->
<!--zoomable 214 -->

<svg id="main" version="1.1" xmlns="http://www.w3.org/2000/svg" xmlns:xlink="http://www.w3.org/1999/xlink" xml:space="preserve" onload="init(evt)">

<style type="text/css"><![CDATA[
.node, .edge {opacity: 0.7;}
.node.selected, .edge.selected {opacity: 1;}
.edge:hover path { stroke: red; }
.edge:hover polygon { stroke: red; fill: red; }
]]></style>

<defs>
  <circle id="rim" cx="0" cy="0" r="7"/>
  <circle id="rim2" cx="0" cy="0" r="3.5"/>
  <g id="zoomPlus">
    <use xlink:href="#rim" fill="#404040"><set attributeName="fill" to="#808080" begin="zoomplus.mouseover" end="zoomplus.mouseout"/></use>
    <path d="M-4,0h8M0,-4v8" fill="none" stroke="white" stroke-width="1.5" pointer-events="none"/>
  </g>
  <g id="zoomMin">
    <use xlink:href="#rim" fill="#404040"><set attributeName="fill" to="#808080" begin="zoomminus.mouseover" end="zoomminus.mouseout"/></use>
    <path d="M-4,0h8" fill="none" stroke="white" stroke-width="1.5" pointer-events="none"/>
  </g>
  <g id="arrowUp" transform="translate(30 24)">
    <use xlink:href="#rim"/>
    <path pointer-events="none" fill="none" stroke="white" stroke-width="1.5" d="M0,-3.0v7 M-2.5,-0.5L0,-3.0L2.5,-0.5"/>
  </g>
  <g id="arrowRight" transform="rotate(90) translate(36 -43)">
    <use xlink:href="#rim"/>
    <path pointer-events="none" fill="none" stroke="white" stroke-width="1.5" d="M0,-3.0v7 M-2.5,-0.5L0,-3.0L2.5,-0.5"/>
  </g>
  <g id="arrowDown" transform="rotate(180) translate(-30 -48)">
    <use xlink:href="#rim"/>
    <path pointer-events="none" fill="none" stroke="white" stroke-width="1.5" d="M0,-3.0v7 M-2.5,-0.5L0,-3.0L2.5,-0.5"/>
  </g>
  <g id="arrowLeft" transform="rotate(270) translate(-36 17)">
    <use xlink:href="#rim"/>
    <path pointer-events="none" fill="none" stroke="white" stroke-width="1.5" d="M0,-3.0v7 M-2.5,-0.5L0,-3.0L2.5,-0.5"/>
  </g>
  <g id="resetDef">
    <use xlink:href="#rim2" fill="#404040"><set attributeName="fill" to="#808080" begin="reset.mouseover" end="reset.mouseout"/></use>
  </g>
</defs>
<script type="application/ecmascript">
var viewWidth = 736;
var viewHeight = 214;
var sectionId = 'dynsection-5';
</script>
<script type="application/ecmascript" xlink:href="svg.min.js"/>
<svg id="graph" class="graph">
<g id="viewport">
<title>MarioRaceway::Draw</title>
<!-- Node1 -->
<g id="Node000001" class="node">
<title>Node1</title>
<g id="a_Node000001"><a xlink:title=" ">
<polygon fill="#999999" stroke="#666666" points="119,-131 0,-131 0,-112 119,-112 119,-131"/>
<text text-anchor="middle" x="59.5" y="-119" font-family="Helvetica,sans-Serif" font-size="10.00">MarioRaceway::Draw</text>
</a>
</g>
</g>
<!-- Node2 -->
<g id="Node000002" class="node">
<title>Node2</title>
<g id="a_Node000002"><a xlink:href="render__courses_8c.html#a9a9119b96bf015cf8b5a168485f67e3f" target="_top" xlink:title=" ">
<polygon fill="white" stroke="#666666" points="278.5,-206 186.5,-206 186.5,-187 278.5,-187 278.5,-206"/>
<text text-anchor="middle" x="232.5" y="-194" font-family="Helvetica,sans-Serif" font-size="10.00">func_80290C20</text>
</a>
</g>
</g>
<!-- Node1&#45;&gt;Node2 -->
<g id="edge1_Node000001_Node000002" class="edge">
<title>Node1&#45;&gt;Node2</title>
<g id="a_edge1_Node000001_Node000002"><a xlink:title=" ">
<path fill="none" stroke="#63b8ff" d="M73.57,-131.21C91.19,-143.86 123.95,-165.85 155,-178.5 161.78,-181.26 169.07,-183.65 176.37,-185.71"/>
<polygon fill="#63b8ff" stroke="#63b8ff" points="175.71,-189.16 186.27,-188.32 177.49,-182.39 175.71,-189.16"/>
</a>
</g>
</g>
<!-- Node3 -->
<g id="Node000003" class="node">
<title>Node3</title>
<g id="a_Node000003"><a xlink:href="render__courses_8c.html#aee88ee3e4f8a82e2e6135f10370570a4" target="_top" xlink:title=" ">
<polygon fill="white" stroke="#666666" points="278,-169 187,-169 187,-150 278,-150 278,-169"/>
<text text-anchor="middle" x="232.5" y="-157" font-family="Helvetica,sans-Serif" font-size="10.00">func_80291198</text>
</a>
</g>
</g>
<!-- Node1&#45;&gt;Node3 -->
<g id="edge2_Node000001_Node000003" class="edge">
<title>Node1&#45;&gt;Node3</title>
<g id="a_edge2_Node000001_Node000003"><a xlink:title=" ">
<path fill="none" stroke="#63b8ff" d="M103.65,-131.09C126.42,-136.15 154.55,-142.4 178.62,-147.75"/>
<polygon fill="#63b8ff" stroke="#63b8ff" points="178.14,-151.23 188.66,-149.98 179.66,-144.39 178.14,-151.23"/>
</a>
</g>
</g>
<!-- Node4 -->
<g id="Node000004" class="node">
<title>Node4</title>
<g id="a_Node000004"><a xlink:href="GBIMiddleware_8cpp.html#a4ecc44e3c6f1ca5a6b4a20c41d3bd2d2" target="_top" xlink:title=" ">
<polygon fill="white" stroke="#666666" points="449,-131 360,-131 360,-112 449,-112 449,-131"/>
<text text-anchor="middle" x="404.5" y="-119" font-family="Helvetica,sans-Serif" font-size="10.00">gSPDisplayList</text>
</a>
</g>
</g>
<!-- Node1&#45;&gt;Node4 -->
<g id="edge6_Node000001_Node000004" class="edge">
<title>Node1&#45;&gt;Node4</title>
<g id="a_edge6_Node000001_Node000004"><a xlink:title=" ">
<path fill="none" stroke="#63b8ff" d="M119.07,-121.5C183.78,-121.5 287.09,-121.5 349.78,-121.5"/>
<polygon fill="#63b8ff" stroke="#63b8ff" points="349.86,-125 359.86,-121.5 349.86,-118 349.86,-125"/>
</a>
</g>
</g>
<!-- Node7 -->
<g id="Node000007" class="node">
<title>Node7</title>
<g id="a_Node000007"><a xlink:href="MarioRaceway_8cpp.html#ac4278fb9b842fc05e04349f8d5935edc" target="_top" xlink:title=" ">
<polygon fill="white" stroke="#666666" points="310,-93 155,-93 155,-74 310,-74 310,-93"/>
<text text-anchor="middle" x="232.5" y="-81" font-family="Helvetica,sans-Serif" font-size="10.00">render_mario_raceway_pipe</text>
</a>
</g>
</g>
<!-- Node1&#45;&gt;Node7 -->
<g id="edge7_Node000001_Node000007" class="edge">
<title>Node1&#45;&gt;Node7</title>
<g id="a_edge7_Node000001_Node000007"><a xlink:title=" ">
<path fill="none" stroke="#63b8ff" d="M103.65,-111.91C126.42,-106.85 154.55,-100.6 178.62,-95.25"/>
<polygon fill="#63b8ff" stroke="#63b8ff" points="179.66,-98.61 188.66,-93.02 178.14,-91.77 179.66,-98.61"/>
</a>
</g>
</g>
<!-- Node8 -->
<g id="Node000008" class="node">
<title>Node8</title>
<g id="a_Node000008"><a xlink:href="render__courses_8c.html#aa2d036c2083162fb6a9fe86ebd20386b" target="_top" xlink:title=" ">
<polygon fill="white" stroke="#666666" points="294.5,-56 170.5,-56 170.5,-37 294.5,-37 294.5,-56"/>
<text text-anchor="middle" x="232.5" y="-44" font-family="Helvetica,sans-Serif" font-size="10.00">render_track_sections</text>
</a>
</g>
</g>
<!-- Node1&#45;&gt;Node8 -->
<g id="edge9_Node000001_Node000008" class="edge">
<title>Node1&#45;&gt;Node8</title>
<g id="a_edge9_Node000001_Node000008"><a xlink:title=" ">
<path fill="none" stroke="#63b8ff" d="M73.93,-111.82C91.68,-99.44 124.3,-78.09 155,-65.5 161.12,-62.99 167.67,-60.75 174.25,-58.76"/>
<polygon fill="#63b8ff" stroke="#63b8ff" points="175.21,-62.13 183.88,-56.04 173.3,-55.39 175.21,-62.13"/>
</a>
</g>
</g>
<!-- Node3&#45;&gt;Node4 -->
<g id="edge3_Node000003_Node000004" class="edge">
<title>Node3&#45;&gt;Node4</title>
<g id="a_edge3_Node000003_Node000004"><a xlink:title=" ">
<path fill="none" stroke="#63b8ff" d="M276.4,-149.91C299.03,-144.85 327,-138.6 350.93,-133.25"/>
<polygon fill="#63b8ff" stroke="#63b8ff" points="351.91,-136.62 360.91,-131.02 350.39,-129.79 351.91,-136.62"/>
</a>
</g>
</g>
<!-- Node5 -->
<g id="Node000005" class="node">
<title>Node5</title>
<g id="a_Node000005"><a xlink:href="Engine_8cpp.html#a223c8bc63f228dc11177515e38eff2db" target="_top" xlink:title=" ">
<polygon fill="white" stroke="#666666" points="648,-131 499,-131 499,-112 648,-112 648,-131"/>
<text text-anchor="middle" x="573.5" y="-119" font-family="Helvetica,sans-Serif" font-size="10.00">GameEngine_OTRSigCheck</text>
</a>
</g>
</g>
<!-- Node4&#45;&gt;Node5 -->
<g id="edge4_Node000004_Node000005" class="edge">
<title>Node4&#45;&gt;Node5</title>
<g id="a_edge4_Node000004_Node000005"><a xlink:title=" ">
<path fill="none" stroke="#63b8ff" d="M449.38,-121.5C461.47,-121.5 475,-121.5 488.55,-121.5"/>
<polygon fill="#63b8ff" stroke="#63b8ff" points="488.89,-125 498.89,-121.5 488.89,-118 488.89,-125"/>
</a>
</g>
</g>
<!-- Node6 -->
<g id="Node000006" class="node">
<title>Node6</title>
<g id="a_Node000006"><a xlink:href="string_8c.html#a008e171a518fe0e0352f31b245e03875" target="_top" xlink:title=" ">
<polygon fill="white" stroke="#666666" points="728,-131 684,-131 684,-112 728,-112 728,-131"/>
<text text-anchor="middle" x="706" y="-119" font-family="Helvetica,sans-Serif" font-size="10.00">strlen</text>
</a>
</g>
</g>
<!-- Node5&#45;&gt;Node6 -->
<g id="edge5_Node000005_Node000006" class="edge">
<title>Node5&#45;&gt;Node6</title>
<g id="a_edge5_Node000005_Node000006"><a xlink:title=" ">
<path fill="none" stroke="#63b8ff" d="M648.14,-121.5C657.12,-121.5 665.89,-121.5 673.75,-121.5"/>
<polygon fill="#63b8ff" stroke="#63b8ff" points="673.83,-125 683.83,-121.5 673.83,-118 673.83,-125"/>
</a>
</g>
</g>
<!-- Node7&#45;&gt;Node4 -->
<g id="edge8_Node000007_Node000004" class="edge">
<title>Node7&#45;&gt;Node4</title>
<g id="a_edge8_Node000007_Node000004"><a xlink:title=" ">
<path fill="none" stroke="#63b8ff" d="M276.4,-93.09C299.03,-98.15 327,-104.4 350.93,-109.75"/>
<polygon fill="#63b8ff" stroke="#63b8ff" points="350.39,-113.21 360.91,-111.98 351.91,-106.38 350.39,-113.21"/>
</a>
</g>
</g>
<!-- Node8&#45;&gt;Node4 -->
<g id="edge11_Node000008_Node000004" class="edge">
<title>Node8&#45;&gt;Node4</title>
<g id="a_edge11_Node000008_Node000004"><a xlink:title=" ">
<path fill="none" stroke="#63b8ff" d="M288.05,-56.05C295.69,-58.52 303.24,-61.62 310,-65.5 329.9,-76.93 326.55,-90.33 346,-102.5 349.31,-104.57 352.88,-106.45 356.55,-108.13"/>
<polygon fill="#63b8ff" stroke="#63b8ff" points="355.24,-111.38 365.82,-111.95 357.9,-104.9 355.24,-111.38"/>
</a>
</g>
</g>
<!-- Node9 -->
<g id="Node000009" class="node">
<title>Node9</title>
<g id="a_Node000009"><a xlink:href="collision_8c.html#a053809031f467d0a6747788211e0ec69" target="_top" xlink:title=" ">
<polygon fill="white" stroke="#666666" points="463,-93 346,-93 346,-74 463,-74 463,-93"/>
<text text-anchor="middle" x="404.5" y="-81" font-family="Helvetica,sans-Serif" font-size="10.00">get_track_section_id</text>
</a>
</g>
</g>
<!-- Node8&#45;&gt;Node9 -->
<g id="edge10_Node000008_Node000009" class="edge">
<title>Node8&#45;&gt;Node9</title>
<g id="a_edge10_Node000008_Node000009"><a xlink:title=" ">
<path fill="none" stroke="#63b8ff" d="M277.28,-56.03C299.3,-60.82 326.2,-66.68 349.5,-71.75"/>
<polygon fill="#63b8ff" stroke="#63b8ff" points="349.06,-75.23 359.57,-73.94 350.55,-68.39 349.06,-75.23"/>
</a>
</g>
</g>
<!-- Node10 -->
<g id="Node000010" class="node">
<title>Node10</title>
<g id="a_Node000010"><a xlink:href="Game_8cpp.html#a8ebd6a4d970e4333ab5a9dd66c3d9c48" target="_top" xlink:title=" ">
<polygon fill="white" stroke="#666666" points="453,-56 356,-56 356,-37 453,-37 453,-56"/>
<text text-anchor="middle" x="404.5" y="-44" font-family="Helvetica,sans-Serif" font-size="10.00">IsBowsersCastle</text>
</a>
</g>
</g>
<!-- Node8&#45;&gt;Node10 -->
<g id="edge12_Node000008_Node000010" class="edge">
<title>Node8&#45;&gt;Node10</title>
<g id="a_edge12_Node000008_Node000010"><a xlink:title=" ">
<path fill="none" stroke="#63b8ff" d="M294.87,-46.5C311.34,-46.5 329.08,-46.5 345.36,-46.5"/>
<polygon fill="#63b8ff" stroke="#63b8ff" points="345.82,-50 355.82,-46.5 345.82,-43 345.82,-50"/>
</a>
</g>
</g>
<!-- Node11 -->
<g id="Node000011" class="node">
<title>Node11</title>
<g id="a_Node000011"><a xlink:href="Game_8cpp.html#a9f5c2ace915f66e850628695f297b1ff" target="_top" xlink:title=" ">
<polygon fill="white" stroke="#666666" points="455,-19 354,-19 354,0 455,0 455,-19"/>
<text text-anchor="middle" x="404.5" y="-7" font-family="Helvetica,sans-Serif" font-size="10.00">IsChocoMountain</text>
</a>
</g>
</g>
<!-- Node8&#45;&gt;Node11 -->
<g id="edge13_Node000008_Node000011" class="edge">
<title>Node8&#45;&gt;Node11</title>
<g id="a_edge13_Node000008_Node000011"><a xlink:title=" ">
<path fill="none" stroke="#63b8ff" d="M277.28,-36.97C299.3,-32.18 326.2,-26.32 349.5,-21.25"/>
<polygon fill="#63b8ff" stroke="#63b8ff" points="350.55,-24.61 359.57,-19.06 349.06,-17.77 350.55,-24.61"/>
</a>
</g>
</g>
</g>
</svg>

<g id="navigator" transform="translate(0 0)" fill="#404254">
  <rect fill="#f2f5e9" fill-opacity="0.5" stroke="#606060" stroke-width=".5" x="0" y="0" width="60" height="60"/>
  <use id="zoomplus" xlink:href="#zoomPlus" x="17" y="9" onmousedown="handleZoom(evt,'in')"/>
  <use id="zoomminus" xlink:href="#zoomMin" x="42" y="9" onmousedown="handleZoom(evt,'out')"/>
  <use id="reset" xlink:href="#resetDef" x="30" y="36" onmousedown="handleReset()"/>
   <use id="arrowup" xlink:href="#arrowUp" x="0" y="0" onmousedown="handlePan(0,-1)"/>
  <use id="arrowright" xlink:href="#arrowRight" x="0" y="0" onmousedown="handlePan(1,0)"/>
  <use id="arrowdown" xlink:href="#arrowDown" x="0" y="0" onmousedown="handlePan(0,1)"/>
  <use id="arrowleft" xlink:href="#arrowLeft" x="0" y="0" onmousedown="handlePan(-1,0)"/>
</g>
<svg viewBox="0 0 15 15" width="100%" height="30px" preserveAspectRatio="xMaxYMin meet">
 <g id="arrow_out" transform="scale(0.3 0.3)">
  <a xlink:href="classMarioRaceway_a4dde82a6aacad30249f22ea6a705085a_cgraph_org.svg" target="_base">
   <rect id="button" ry="5" rx="5" y="6" x="6" height="38" width="38"
        fill="#f2f5e9" fill-opacity="0.5" stroke="#606060" stroke-width="1.0"/>
   <path id="arrow"
     d="M 11.500037,31.436501 C 11.940474,20.09759 22.043105,11.32322 32.158766,21.979434 L 37.068811,17.246167 C 37.068811,17.246167 37.088388,32 37.088388,32 L 22.160133,31.978069 C 22.160133,31.978069 26.997745,27.140456 26.997745,27.140456 C 18.528582,18.264221 13.291696,25.230495 11.500037,31.436501 z"
     style="fill:#404040;"/>
  </a>
 </g>
</svg>

<style type='text/css'>
<![CDATA[
[data-mouse-over-selected='false'] { opacity: 0.7; }
[data-mouse-over-selected='true']  { opacity: 1.0; }
]]>
</style>
<script type="application/ecmascript"><![CDATA[
document.addEventListener('DOMContentLoaded', (event) => {
  highlightEdges();
  highlightAdjacentNodes();
});
]]></script>
</svg>
