<?xml version="1.0" encoding="UTF-8" standalone="no"?>
<!DOCTYPE svg PUBLIC "-//W3C//DTD SVG 1.1//EN"
 "http://www.w3.org/Graphics/SVG/1.1/DTD/svg11.dtd">
<!-- Generated by graphviz version 2.43.0 (0)
 -->
<!-- Title: GameUI::PortMenu::AddSceneVisibility Pages: 1 -->
<svg width="567pt" height="38pt"
 viewBox="0.00 0.00 567.00 38.00" xmlns="http://www.w3.org/2000/svg" xmlns:xlink="http://www.w3.org/1999/xlink">
<g id="graph0" class="graph" transform="scale(1 1) rotate(0) translate(4 34)">
<title>GameUI::PortMenu::AddSceneVisibility</title>
<!-- Node1 -->
<g id="Node000001" class="node">
<title>Node1</title>
<g id="a_Node000001"><a xlink:title=" ">
<polygon fill="#999999" stroke="#666666" points="559,-30 396,-30 396,0 559,0 559,-30"/>
<text text-anchor="start" x="404" y="-18" font-family="Helvetica,sans-Serif" font-size="10.00">GameUI::PortMenu::AddScene</text>
<text text-anchor="middle" x="477.5" y="-7" font-family="Helvetica,sans-Serif" font-size="10.00">Visibility</text>
</a>
</g>
</g>
<!-- Node2 -->
<g id="Node000002" class="node">
<title>Node2</title>
<g id="a_Node000002"><a xlink:href="classGameUI_1_1PortMenu.html#ae2b125ddd080ba7cfd4da340dfb14192" target="_top" xlink:title=" ">
<polygon fill="white" stroke="#666666" points="360,-30 207,-30 207,0 360,0 360,-30"/>
<text text-anchor="start" x="215" y="-18" font-family="Helvetica,sans-Serif" font-size="10.00">GameUI::PortMenu::AddDev</text>
<text text-anchor="middle" x="283.5" y="-7" font-family="Helvetica,sans-Serif" font-size="10.00">Tools</text>
</a>
</g>
</g>
<!-- Node1&#45;&gt;Node2 -->
<g id="edge1_Node000001_Node000002" class="edge">
<title>Node1&#45;&gt;Node2</title>
<g id="a_edge1_Node000001_Node000002"><a xlink:title=" ">
<path fill="none" stroke="#63b8ff" d="M385.89,-15C377.32,-15 368.7,-15 360.29,-15"/>
<polygon fill="#63b8ff" stroke="#63b8ff" points="385.91,-18.5 395.91,-15 385.91,-11.5 385.91,-18.5"/>
</a>
</g>
</g>
<!-- Node3 -->
<g id="Node000003" class="node">
<title>Node3</title>
<g id="a_Node000003"><a xlink:href="classGameUI_1_1PortMenu.html#a6107d5040943b730f00a96293d335e23" target="_top" xlink:title=" ">
<polygon fill="white" stroke="#666666" points="171,-24.5 0,-24.5 0,-5.5 171,-5.5 171,-24.5"/>
<text text-anchor="middle" x="85.5" y="-12.5" font-family="Helvetica,sans-Serif" font-size="10.00">GameUI::PortMenu::InitElement</text>
</a>
</g>
</g>
<!-- Node2&#45;&gt;Node3 -->
<g id="edge2_Node000002_Node000003" class="edge">
<title>Node2&#45;&gt;Node3</title>
<g id="a_edge2_Node000002_Node000003"><a xlink:title=" ">
<path fill="none" stroke="#63b8ff" d="M196.54,-15C188.13,-15 179.6,-15 171.2,-15"/>
<polygon fill="#63b8ff" stroke="#63b8ff" points="196.72,-18.5 206.72,-15 196.72,-11.5 196.72,-18.5"/>
</a>
</g>
</g>
</g>
</svg>
