<?xml version="1.0" encoding="UTF-8" standalone="no"?>
<!DOCTYPE svg PUBLIC "-//W3C//DTD SVG 1.1//EN"
 "http://www.w3.org/Graphics/SVG/1.1/DTD/svg11.dtd">
<!-- Generated by graphviz version 2.43.0 (0)
 -->
<!-- Title: OBoos::Draw Pages: 1 -->
<svg width="1345pt" height="664pt"
 viewBox="0.00 0.00 1345.00 664.36" xmlns="http://www.w3.org/2000/svg" xmlns:xlink="http://www.w3.org/1999/xlink">
<g id="graph0" class="graph" transform="scale(1 1) rotate(0) translate(4 660.36)">
<title>OBoos::Draw</title>
<!-- Node1 -->
<g id="Node000001" class="node">
<title>Node1</title>
<g id="a_Node000001"><a xlink:title=" ">
<polygon fill="#999999" stroke="#666666" points="80,-285 0,-285 0,-266 80,-266 80,-285"/>
<text text-anchor="middle" x="40" y="-273" font-family="Helvetica,sans-Serif" font-size="10.00">OBoos::Draw</text>
</a>
</g>
</g>
<!-- Node2 -->
<g id="Node000002" class="node">
<title>Node2</title>
<g id="a_Node000002"><a xlink:href="FrameInterpolation_8cpp.html#a3a036bc9d533e28a4e9697cd20dccf3e" target="_top" xlink:title=" ">
<polygon fill="white" stroke="#666666" points="402.5,-410.5 292.5,-410.5 292.5,-380.5 402.5,-380.5 402.5,-410.5"/>
<text text-anchor="start" x="300.5" y="-398.5" font-family="Helvetica,sans-Serif" font-size="10.00">FrameInterpolation</text>
<text text-anchor="middle" x="347.5" y="-387.5" font-family="Helvetica,sans-Serif" font-size="10.00">_RecordCloseChild</text>
</a>
</g>
</g>
<!-- Node1&#45;&gt;Node2 -->
<g id="edge1_Node000001_Node000002" class="edge">
<title>Node1&#45;&gt;Node2</title>
<g id="a_edge1_Node000001_Node000002"><a xlink:title=" ">
<path fill="none" stroke="#63b8ff" d="M53.97,-285.06C68.48,-295.41 92.99,-311.86 116,-322.5 170.24,-347.59 235.44,-367.35 282.64,-379.95"/>
<polygon fill="#63b8ff" stroke="#63b8ff" points="281.86,-383.37 292.43,-382.53 283.65,-376.6 281.86,-383.37"/>
</a>
</g>
</g>
<!-- Node4 -->
<g id="Node000004" class="node">
<title>Node4</title>
<g id="a_Node000004"><a xlink:href="FrameInterpolation_8cpp.html#a0eda726b74eac815af4e874014e2727c" target="_top" xlink:title=" ">
<polygon fill="white" stroke="#666666" points="402.5,-362.5 292.5,-362.5 292.5,-332.5 402.5,-332.5 402.5,-362.5"/>
<text text-anchor="start" x="300.5" y="-350.5" font-family="Helvetica,sans-Serif" font-size="10.00">FrameInterpolation</text>
<text text-anchor="middle" x="347.5" y="-339.5" font-family="Helvetica,sans-Serif" font-size="10.00">_RecordOpenChild</text>
</a>
</g>
</g>
<!-- Node1&#45;&gt;Node4 -->
<g id="edge3_Node000001_Node000004" class="edge">
<title>Node1&#45;&gt;Node4</title>
<g id="a_edge3_Node000001_Node000004"><a xlink:title=" ">
<path fill="none" stroke="#63b8ff" d="M77.96,-285.04C90.07,-288.11 103.6,-291.5 116,-294.5 172.15,-308.07 236.19,-322.73 282.5,-333.18"/>
<polygon fill="#63b8ff" stroke="#63b8ff" points="281.87,-336.63 292.4,-335.41 283.41,-329.8 281.87,-336.63"/>
</a>
</g>
</g>
<!-- Node5 -->
<g id="Node000005" class="node">
<title>Node5</title>
<g id="a_Node000005"><a xlink:href="classOBoos.html#a788942157fec6b0285d501947000f9c5" target="_top" xlink:title=" ">
<polygon fill="white" stroke="#666666" points="245,-285 116,-285 116,-266 245,-266 245,-285"/>
<text text-anchor="middle" x="180.5" y="-273" font-family="Helvetica,sans-Serif" font-size="10.00">OBoos::func_800523B8</text>
</a>
</g>
</g>
<!-- Node1&#45;&gt;Node5 -->
<g id="edge5_Node000001_Node000005" class="edge">
<title>Node1&#45;&gt;Node5</title>
<g id="a_edge5_Node000001_Node000005"><a xlink:title=" ">
<path fill="none" stroke="#63b8ff" d="M80.32,-275.5C88.31,-275.5 96.96,-275.5 105.7,-275.5"/>
<polygon fill="#63b8ff" stroke="#63b8ff" points="105.98,-279 115.98,-275.5 105.98,-272 105.98,-279"/>
</a>
</g>
</g>
<!-- Node40 -->
<g id="Node000040" class="node">
<title>Node40</title>
<g id="a_Node000040"><a xlink:href="update__objects_8c.html#ae85ab923e54f707801592c71f2a847cd" target="_top" xlink:title=" ">
<polygon fill="white" stroke="#666666" points="399.5,-201.5 295.5,-201.5 295.5,-171.5 399.5,-171.5 399.5,-201.5"/>
<text text-anchor="start" x="303.5" y="-189.5" font-family="Helvetica,sans-Serif" font-size="10.00">is_obj_flag_status</text>
<text text-anchor="middle" x="347.5" y="-178.5" font-family="Helvetica,sans-Serif" font-size="10.00">_active</text>
</a>
</g>
</g>
<!-- Node1&#45;&gt;Node40 -->
<g id="edge58_Node000001_Node000040" class="edge">
<title>Node1&#45;&gt;Node40</title>
<g id="a_edge58_Node000001_Node000040"><a xlink:title=" ">
<path fill="none" stroke="#63b8ff" d="M73.69,-265.98C124.1,-251.29 221.63,-222.88 285.38,-204.3"/>
<polygon fill="#63b8ff" stroke="#63b8ff" points="286.69,-207.57 295.31,-201.41 284.73,-200.85 286.69,-207.57"/>
</a>
</g>
</g>
<!-- Node41 -->
<g id="Node000041" class="node">
<title>Node41</title>
<g id="a_Node000041"><a xlink:href="code__80086E70_8c.html#a364496b44c479b8d7937d98d2283c89e" target="_top" xlink:title=" ">
<polygon fill="white" stroke="#666666" points="226.5,-110 134.5,-110 134.5,-91 226.5,-91 226.5,-110"/>
<text text-anchor="middle" x="180.5" y="-98" font-family="Helvetica,sans-Serif" font-size="10.00">func_8008A364</text>
</a>
</g>
</g>
<!-- Node1&#45;&gt;Node41 -->
<g id="edge51_Node000001_Node000041" class="edge">
<title>Node1&#45;&gt;Node41</title>
<g id="a_edge51_Node000001_Node000041"><a xlink:title=" ">
<path fill="none" stroke="#63b8ff" d="M48.64,-265.84C71.01,-237.58 136.56,-154.76 165.5,-118.19"/>
<polygon fill="#63b8ff" stroke="#63b8ff" points="168.25,-120.36 171.71,-110.34 162.76,-116.01 168.25,-120.36"/>
</a>
</g>
</g>
<!-- Node3 -->
<g id="Node000003" class="node">
<title>Node3</title>
<g id="a_Node000003"><a xlink:href="FrameInterpolation_8cpp.html#a02c7ac5342a4d376edee38f312b480bf" target="_top" xlink:title=" ">
<polygon fill="white" stroke="#666666" points="1337,-461 1229,-461 1229,-442 1337,-442 1337,-461"/>
<text text-anchor="middle" x="1283" y="-449" font-family="Helvetica,sans-Serif" font-size="10.00">check_if_recording</text>
</a>
</g>
</g>
<!-- Node2&#45;&gt;Node3 -->
<g id="edge2_Node000002_Node000003" class="edge">
<title>Node2&#45;&gt;Node3</title>
<g id="a_edge2_Node000002_Node000003"><a xlink:title=" ">
<path fill="none" stroke="#63b8ff" d="M350.31,-410.51C356.11,-451.46 378.32,-565.34 450,-615.5 555.96,-689.65 610.67,-639.5 740,-639.5 740,-639.5 740,-639.5 924,-639.5 1044.03,-639.5 1092.68,-681.41 1193,-615.5 1244.79,-581.47 1268.88,-506.72 1277.74,-471.11"/>
<polygon fill="#63b8ff" stroke="#63b8ff" points="1281.23,-471.56 1280.1,-461.03 1274.42,-469.97 1281.23,-471.56"/>
</a>
</g>
</g>
<!-- Node4&#45;&gt;Node3 -->
<g id="edge4_Node000004_Node000003" class="edge">
<title>Node4&#45;&gt;Node3</title>
<g id="a_edge4_Node000004_Node000003"><a xlink:title=" ">
<path fill="none" stroke="#63b8ff" d="M398.61,-362.56C404.03,-365.14 409.28,-368.11 414,-371.5 434.79,-386.46 430.95,-399.38 450,-416.5 563.72,-518.67 587.12,-601.5 740,-601.5 740,-601.5 740,-601.5 924,-601.5 1046.12,-601.5 1086.36,-605.01 1193,-545.5 1226.66,-526.72 1255.16,-490.91 1270.31,-469.32"/>
<polygon fill="#63b8ff" stroke="#63b8ff" points="1273.22,-471.27 1275.96,-461.03 1267.44,-467.32 1273.22,-471.27"/>
</a>
</g>
</g>
<!-- Node5&#45;&gt;Node2 -->
<g id="edge6_Node000005_Node000002" class="edge">
<title>Node5&#45;&gt;Node2</title>
<g id="a_edge6_Node000005_Node000002"><a xlink:title=" ">
<path fill="none" stroke="#63b8ff" d="M189,-285.02C204.36,-303.96 241.33,-346.66 281,-371.5 283.59,-373.12 286.3,-374.65 289.08,-376.1"/>
<polygon fill="#63b8ff" stroke="#63b8ff" points="287.65,-379.29 298.18,-380.43 290.66,-372.97 287.65,-379.29"/>
</a>
</g>
</g>
<!-- Node5&#45;&gt;Node4 -->
<g id="edge7_Node000005_Node000004" class="edge">
<title>Node5&#45;&gt;Node4</title>
<g id="a_edge7_Node000005_Node000004"><a xlink:title=" ">
<path fill="none" stroke="#63b8ff" d="M199.95,-285.08C219.74,-295.19 252.21,-311.32 281,-323.5 285.19,-325.27 289.56,-327.04 293.97,-328.77"/>
<polygon fill="#63b8ff" stroke="#63b8ff" points="293.04,-332.16 303.63,-332.48 295.55,-325.63 293.04,-332.16"/>
</a>
</g>
</g>
<!-- Node6 -->
<g id="Node000006" class="node">
<title>Node6</title>
<g id="a_Node000006"><a xlink:href="math__util__2_8c.html#a99d173c040cb4a9d0184df2605d71e32" target="_top" xlink:title=" ">
<polygon fill="white" stroke="#666666" points="579.5,-99 487.5,-99 487.5,-80 579.5,-80 579.5,-99"/>
<text text-anchor="middle" x="533.5" y="-87" font-family="Helvetica,sans-Serif" font-size="10.00">func_800418AC</text>
</a>
</g>
</g>
<!-- Node5&#45;&gt;Node6 -->
<g id="edge8_Node000005_Node000006" class="edge">
<title>Node5&#45;&gt;Node6</title>
<g id="a_edge8_Node000005_Node000006"><a xlink:title=" ">
<path fill="none" stroke="#63b8ff" d="M217.14,-265.99C281.38,-248.78 410.33,-213.94 414,-210.5 449.36,-177.32 413.69,-139.65 450,-107.5 457.66,-100.72 467.26,-96.3 477.19,-93.46"/>
<polygon fill="#63b8ff" stroke="#63b8ff" points="478.24,-96.81 487.17,-91.11 476.63,-89.99 478.24,-96.81"/>
</a>
</g>
</g>
<!-- Node9 -->
<g id="Node000009" class="node">
<title>Node9</title>
<g id="a_Node000009"><a xlink:href="render__objects_8c.html#a577b767fc17b228d27b5ed698eb1c8ad" target="_top" xlink:title=" ">
<polygon fill="white" stroke="#666666" points="393.5,-277 301.5,-277 301.5,-258 393.5,-258 393.5,-277"/>
<text text-anchor="middle" x="347.5" y="-265" font-family="Helvetica,sans-Serif" font-size="10.00">func_800484BC</text>
</a>
</g>
</g>
<!-- Node5&#45;&gt;Node9 -->
<g id="edge11_Node000005_Node000009" class="edge">
<title>Node5&#45;&gt;Node9</title>
<g id="a_edge11_Node000005_Node000009"><a xlink:title=" ">
<path fill="none" stroke="#63b8ff" d="M245.29,-272.41C260.33,-271.68 276.23,-270.91 290.87,-270.2"/>
<polygon fill="#63b8ff" stroke="#63b8ff" points="291.46,-273.67 301.28,-269.69 291.12,-266.68 291.46,-273.67"/>
</a>
</g>
</g>
<!-- Node26 -->
<g id="Node000026" class="node">
<title>Node26</title>
<g id="a_Node000026"><a xlink:href="render__objects_8c.html#ae2e5b979255388934c7b7091f24997b6" target="_top" xlink:title=" ">
<polygon fill="white" stroke="#666666" points="393.5,-314 301.5,-314 301.5,-295 393.5,-295 393.5,-314"/>
<text text-anchor="middle" x="347.5" y="-302" font-family="Helvetica,sans-Serif" font-size="10.00">func_8004A630</text>
</a>
</g>
</g>
<!-- Node5&#45;&gt;Node26 -->
<g id="edge31_Node000005_Node000026" class="edge">
<title>Node5&#45;&gt;Node26</title>
<g id="a_edge31_Node000005_Node000026"><a xlink:title=" ">
<path fill="none" stroke="#63b8ff" d="M235.98,-285.08C253.72,-288.19 273.41,-291.65 291.2,-294.78"/>
<polygon fill="#63b8ff" stroke="#63b8ff" points="290.98,-298.29 301.43,-296.58 292.19,-291.4 290.98,-298.29"/>
</a>
</g>
</g>
<!-- Node5&#45;&gt;Node40 -->
<g id="edge50_Node000005_Node000040" class="edge">
<title>Node5&#45;&gt;Node40</title>
<g id="a_edge50_Node000005_Node000040"><a xlink:title=" ">
<path fill="none" stroke="#63b8ff" d="M196,-265.96C215.09,-253.6 249.86,-231.7 281,-215.5 287.45,-212.15 294.36,-208.81 301.2,-205.66"/>
<polygon fill="#63b8ff" stroke="#63b8ff" points="302.75,-208.81 310.42,-201.5 299.87,-202.43 302.75,-208.81"/>
</a>
</g>
</g>
<!-- Node7 -->
<g id="Node000007" class="node">
<title>Node7</title>
<g id="a_Node000007"><a xlink:href="math__util_8c.html#aaa39a297477f56051975259f4bddd829" target="_top" xlink:title=" ">
<polygon fill="white" stroke="#666666" points="766,-79 716,-79 716,-60 766,-60 766,-79"/>
<text text-anchor="middle" x="741" y="-67" font-family="Helvetica,sans-Serif" font-size="10.00">atan2s</text>
</a>
</g>
</g>
<!-- Node6&#45;&gt;Node7 -->
<g id="edge9_Node000006_Node000007" class="edge">
<title>Node6&#45;&gt;Node7</title>
<g id="a_edge9_Node000006_Node000007"><a xlink:title=" ">
<path fill="none" stroke="#63b8ff" d="M579.6,-85.11C617.61,-81.41 671.18,-76.2 705.75,-72.83"/>
<polygon fill="#63b8ff" stroke="#63b8ff" points="706.22,-76.3 715.83,-71.85 705.54,-69.34 706.22,-76.3"/>
</a>
</g>
</g>
<!-- Node8 -->
<g id="Node000008" class="node">
<title>Node8</title>
<g id="a_Node000008"><a xlink:href="math__util_8c.html#a0273b0ea0783a06996c28669a7438ed9" target="_top" xlink:title=" ">
<polygon fill="white" stroke="#666666" points="964,-79 882,-79 882,-60 964,-60 964,-79"/>
<text text-anchor="middle" x="923" y="-67" font-family="Helvetica,sans-Serif" font-size="10.00">atan2_lookup</text>
</a>
</g>
</g>
<!-- Node7&#45;&gt;Node8 -->
<g id="edge10_Node000007_Node000008" class="edge">
<title>Node7&#45;&gt;Node8</title>
<g id="a_edge10_Node000007_Node000008"><a xlink:title=" ">
<path fill="none" stroke="#63b8ff" d="M766.28,-69.5C793.15,-69.5 837.21,-69.5 871.62,-69.5"/>
<polygon fill="#63b8ff" stroke="#63b8ff" points="871.96,-73 881.96,-69.5 871.96,-66 871.96,-73"/>
</a>
</g>
</g>
<!-- Node10 -->
<g id="Node000010" class="node">
<title>Node10</title>
<g id="a_Node000010"><a xlink:href="GBIMiddleware_8cpp.html#a4ecc44e3c6f1ca5a6b4a20c41d3bd2d2" target="_top" xlink:title=" ">
<polygon fill="white" stroke="#666666" points="578,-247 489,-247 489,-228 578,-228 578,-247"/>
<text text-anchor="middle" x="533.5" y="-235" font-family="Helvetica,sans-Serif" font-size="10.00">gSPDisplayList</text>
</a>
</g>
</g>
<!-- Node9&#45;&gt;Node10 -->
<g id="edge12_Node000009_Node000010" class="edge">
<title>Node9&#45;&gt;Node10</title>
<g id="a_edge12_Node000009_Node000010"><a xlink:title=" ">
<path fill="none" stroke="#63b8ff" d="M393.51,-260.16C419.27,-255.96 451.74,-250.67 478.82,-246.25"/>
<polygon fill="#63b8ff" stroke="#63b8ff" points="479.6,-249.67 488.9,-244.61 478.47,-242.76 479.6,-249.67"/>
</a>
</g>
</g>
<!-- Node13 -->
<g id="Node000013" class="node">
<title>Node13</title>
<g id="a_Node000013"><a xlink:href="GBIMiddleware_8cpp.html#aeef79449a27a710d73576e4a4f7f7f99" target="_top" xlink:title=" ">
<polygon fill="white" stroke="#666666" points="566.5,-210 500.5,-210 500.5,-191 566.5,-191 566.5,-210"/>
<text text-anchor="middle" x="533.5" y="-198" font-family="Helvetica,sans-Serif" font-size="10.00">gSPVertex</text>
</a>
</g>
</g>
<!-- Node9&#45;&gt;Node13 -->
<g id="edge15_Node000009_Node000013" class="edge">
<title>Node9&#45;&gt;Node13</title>
<g id="a_edge15_Node000009_Node000013"><a xlink:title=" ">
<path fill="none" stroke="#63b8ff" d="M379.13,-257.96C390.35,-254.04 402.98,-249.09 414,-243.5 431.15,-234.8 432.34,-227.12 450,-219.5 462.69,-214.03 477.19,-210.01 490.46,-207.12"/>
<polygon fill="#63b8ff" stroke="#63b8ff" points="491.2,-210.54 500.31,-205.12 489.81,-203.68 491.2,-210.54"/>
</a>
</g>
</g>
<!-- Node14 -->
<g id="Node000014" class="node">
<title>Node14</title>
<g id="a_Node000014"><a xlink:href="render__objects_8c.html#a8a3e9d3da5a6ac97b84b553fdc5d7d59" target="_top" xlink:title=" ">
<polygon fill="white" stroke="#666666" points="582.5,-136 484.5,-136 484.5,-117 582.5,-117 582.5,-136"/>
<text text-anchor="middle" x="533.5" y="-124" font-family="Helvetica,sans-Serif" font-size="10.00">rsp_load_texture</text>
</a>
</g>
</g>
<!-- Node9&#45;&gt;Node14 -->
<g id="edge17_Node000009_Node000014" class="edge">
<title>Node9&#45;&gt;Node14</title>
<g id="a_edge17_Node000009_Node000014"><a xlink:title=" ">
<path fill="none" stroke="#63b8ff" d="M391.15,-257.98C399.53,-254.53 407.67,-249.84 414,-243.5 447.07,-210.35 414.75,-175.32 450,-144.5 456.97,-138.41 465.52,-134.22 474.45,-131.38"/>
<polygon fill="#63b8ff" stroke="#63b8ff" points="475.46,-134.73 484.23,-128.79 473.67,-127.97 475.46,-134.73"/>
</a>
</g>
</g>
<!-- Node15 -->
<g id="Node000015" class="node">
<title>Node15</title>
<g id="a_Node000015"><a xlink:href="math__util__2_8c.html#a2eff0e02deb703653ee3230fbc02eb14" target="_top" xlink:title="set the matrix to a transformation matrix">
<polygon fill="white" stroke="#666666" points="617,-284 450,-284 450,-265 617,-265 617,-284"/>
<text text-anchor="middle" x="533.5" y="-272" font-family="Helvetica,sans-Serif" font-size="10.00">rsp_set_matrix_transformation</text>
</a>
</g>
</g>
<!-- Node9&#45;&gt;Node15 -->
<g id="edge18_Node000009_Node000015" class="edge">
<title>Node9&#45;&gt;Node15</title>
<g id="a_edge18_Node000009_Node000015"><a xlink:title=" ">
<path fill="none" stroke="#63b8ff" d="M393.51,-269.21C407.61,-269.75 423.72,-270.36 439.85,-270.98"/>
<polygon fill="#63b8ff" stroke="#63b8ff" points="439.76,-274.47 449.89,-271.36 440.03,-267.48 439.76,-274.47"/>
</a>
</g>
</g>
<!-- Node25 -->
<g id="Node000025" class="node">
<title>Node25</title>
<g id="a_Node000025"><a xlink:href="render__objects_8c.html#ad92ac25c074d6586a5b7c7331fccdb21" target="_top" xlink:title=" ">
<polygon fill="white" stroke="#666666" points="584,-173 483,-173 483,-154 584,-154 584,-173"/>
<text text-anchor="middle" x="533.5" y="-161" font-family="Helvetica,sans-Serif" font-size="10.00">set_transparency</text>
</a>
</g>
</g>
<!-- Node9&#45;&gt;Node25 -->
<g id="edge30_Node000009_Node000025" class="edge">
<title>Node9&#45;&gt;Node25</title>
<g id="a_edge30_Node000009_Node000025"><a xlink:title=" ">
<path fill="none" stroke="#63b8ff" d="M387.91,-257.99C397.14,-254.49 406.46,-249.78 414,-243.5 438.19,-223.35 424.6,-201.1 450,-182.5 456.82,-177.51 464.74,-173.8 472.92,-171.05"/>
<polygon fill="#63b8ff" stroke="#63b8ff" points="473.96,-174.39 482.59,-168.24 472.01,-167.67 473.96,-174.39"/>
</a>
</g>
</g>
<!-- Node11 -->
<g id="Node000011" class="node">
<title>Node11</title>
<g id="a_Node000011"><a xlink:href="Engine_8cpp.html#a223c8bc63f228dc11177515e38eff2db" target="_top" xlink:title=" ">
<polygon fill="white" stroke="#666666" points="815.5,-210 666.5,-210 666.5,-191 815.5,-191 815.5,-210"/>
<text text-anchor="middle" x="741" y="-198" font-family="Helvetica,sans-Serif" font-size="10.00">GameEngine_OTRSigCheck</text>
</a>
</g>
</g>
<!-- Node10&#45;&gt;Node11 -->
<g id="edge13_Node000010_Node000011" class="edge">
<title>Node10&#45;&gt;Node11</title>
<g id="a_edge13_Node000010_Node000011"><a xlink:title=" ">
<path fill="none" stroke="#63b8ff" d="M578.08,-229.65C606.79,-224.49 644.84,-217.63 676.84,-211.87"/>
<polygon fill="#63b8ff" stroke="#63b8ff" points="677.77,-215.26 687,-210.04 676.53,-208.37 677.77,-215.26"/>
</a>
</g>
</g>
<!-- Node12 -->
<g id="Node000012" class="node">
<title>Node12</title>
<g id="a_Node000012"><a xlink:href="string_8c.html#a008e171a518fe0e0352f31b245e03875" target="_top" xlink:title=" ">
<polygon fill="white" stroke="#666666" points="945,-125 901,-125 901,-106 945,-106 945,-125"/>
<text text-anchor="middle" x="923" y="-113" font-family="Helvetica,sans-Serif" font-size="10.00">strlen</text>
</a>
</g>
</g>
<!-- Node11&#45;&gt;Node12 -->
<g id="edge14_Node000011_Node000012" class="edge">
<title>Node11&#45;&gt;Node12</title>
<g id="a_edge14_Node000011_Node000012"><a xlink:title=" ">
<path fill="none" stroke="#63b8ff" d="M757.44,-190.82C780.28,-176.8 824.72,-150.64 865,-133.5 873.3,-129.97 882.55,-126.76 891.13,-124.06"/>
<polygon fill="#63b8ff" stroke="#63b8ff" points="892.24,-127.38 900.8,-121.14 890.22,-120.68 892.24,-127.38"/>
</a>
</g>
</g>
<!-- Node13&#45;&gt;Node11 -->
<g id="edge16_Node000013_Node000011" class="edge">
<title>Node13&#45;&gt;Node11</title>
<g id="a_edge16_Node000013_Node000011"><a xlink:title=" ">
<path fill="none" stroke="#63b8ff" d="M566.61,-200.5C590.65,-200.5 624.69,-200.5 656.25,-200.5"/>
<polygon fill="#63b8ff" stroke="#63b8ff" points="656.39,-204 666.39,-200.5 656.39,-197 656.39,-204"/>
</a>
</g>
</g>
<!-- Node16 -->
<g id="Node000016" class="node">
<title>Node16</title>
<g id="a_Node000016"><a xlink:href="Matrix_8cpp.html#a329d78c031733cf22ff7518f5d38fd74" target="_top" xlink:title=" ">
<polygon fill="white" stroke="#666666" points="784,-272 698,-272 698,-253 784,-253 784,-272"/>
<text text-anchor="middle" x="741" y="-260" font-family="Helvetica,sans-Serif" font-size="10.00">AddHudMatrix</text>
</a>
</g>
</g>
<!-- Node15&#45;&gt;Node16 -->
<g id="edge19_Node000015_Node000016" class="edge">
<title>Node15&#45;&gt;Node16</title>
<g id="a_edge19_Node000015_Node000016"><a xlink:title=" ">
<path fill="none" stroke="#63b8ff" d="M617.2,-269.67C640.97,-268.28 666.23,-266.81 687.62,-265.56"/>
<polygon fill="#63b8ff" stroke="#63b8ff" points="688,-269.04 697.78,-264.97 687.6,-262.05 688,-269.04"/>
</a>
</g>
</g>
<!-- Node21 -->
<g id="Node000021" class="node">
<title>Node21</title>
<g id="a_Node000021"><a xlink:href="math__util__2_8c.html#ae71383a9d7f97bcb240b23f68068ab30" target="_top" xlink:title=" ">
<polygon fill="white" stroke="#666666" points="829,-373 653,-373 653,-354 829,-354 829,-373"/>
<text text-anchor="middle" x="741" y="-361" font-family="Helvetica,sans-Serif" font-size="10.00">mtxf_set_matrix_transformation</text>
</a>
</g>
</g>
<!-- Node15&#45;&gt;Node21 -->
<g id="edge25_Node000015_Node000021" class="edge">
<title>Node15&#45;&gt;Node21</title>
<g id="a_edge25_Node000015_Node000021"><a xlink:title=" ">
<path fill="none" stroke="#63b8ff" d="M595.15,-284.02C602.78,-286.48 610.26,-289.59 617,-293.5 637.4,-305.34 633.32,-319.5 653,-332.5 664.51,-340.11 678.12,-346.1 691.11,-350.71"/>
<polygon fill="#63b8ff" stroke="#63b8ff" points="690.28,-354.12 700.88,-353.97 692.5,-347.48 690.28,-354.12"/>
</a>
</g>
</g>
<!-- Node17 -->
<g id="Node000017" class="node">
<title>Node17</title>
<g id="a_Node000017"><a xlink:href="Matrix_8cpp.html#a67401ed1d8de1f4d3a3e5a7b72842b6a" target="_top" xlink:title=" ">
<polygon fill="white" stroke="#666666" points="956.5,-238 889.5,-238 889.5,-219 956.5,-219 956.5,-238"/>
<text text-anchor="middle" x="923" y="-226" font-family="Helvetica,sans-Serif" font-size="10.00">AddMatrix</text>
</a>
</g>
</g>
<!-- Node16&#45;&gt;Node17 -->
<g id="edge20_Node000016_Node000017" class="edge">
<title>Node16&#45;&gt;Node17</title>
<g id="a_edge20_Node000016_Node000017"><a xlink:title=" ">
<path fill="none" stroke="#63b8ff" d="M784.2,-254.53C812.8,-249.13 850.47,-242.01 879.19,-236.59"/>
<polygon fill="#63b8ff" stroke="#63b8ff" points="880.16,-239.97 889.33,-234.67 878.86,-233.09 880.16,-239.97"/>
</a>
</g>
</g>
<!-- Node20 -->
<g id="Node000020" class="node">
<title>Node20</title>
<g id="a_Node000020"><a xlink:href="Game_8cpp.html#ae2fa844b3cb1021ecbc357f8ed2ad8cc" target="_top" xlink:title=" ">
<polygon fill="white" stroke="#666666" points="954,-162 892,-162 892,-143 954,-143 954,-162"/>
<text text-anchor="middle" x="923" y="-150" font-family="Helvetica,sans-Serif" font-size="10.00">GetWorld</text>
</a>
</g>
</g>
<!-- Node16&#45;&gt;Node20 -->
<g id="edge24_Node000016_Node000020" class="edge">
<title>Node16&#45;&gt;Node20</title>
<g id="a_edge24_Node000016_Node000020"><a xlink:title=" ">
<path fill="none" stroke="#63b8ff" d="M767.98,-253C786.18,-245.57 810.46,-234.08 829,-219.5 848.59,-204.09 844.95,-191.31 865,-176.5 870.27,-172.61 876.27,-169.21 882.35,-166.28"/>
<polygon fill="#63b8ff" stroke="#63b8ff" points="884.13,-169.32 891.87,-162.08 881.31,-162.92 884.13,-169.32"/>
</a>
</g>
</g>
<!-- Node18 -->
<g id="Node000018" class="node">
<title>Node18</title>
<g id="a_Node000018"><a xlink:href="FrameInterpolation_8cpp.html#a8cf1f2d6fabc6925aa71a9515341b4aa" target="_top" xlink:title=" ">
<polygon fill="white" stroke="#666666" points="1175,-355.5 1035,-355.5 1035,-325.5 1175,-325.5 1175,-355.5"/>
<text text-anchor="start" x="1043" y="-343.5" font-family="Helvetica,sans-Serif" font-size="10.00">FrameInterpolation</text>
<text text-anchor="middle" x="1105" y="-332.5" font-family="Helvetica,sans-Serif" font-size="10.00">_RecordMatrixMtxFToMtx</text>
</a>
</g>
</g>
<!-- Node17&#45;&gt;Node18 -->
<g id="edge21_Node000017_Node000018" class="edge">
<title>Node17&#45;&gt;Node18</title>
<g id="a_edge21_Node000017_Node000018"><a xlink:title=" ">
<path fill="none" stroke="#63b8ff" d="M956.71,-237.38C964.86,-240.13 973.43,-243.52 981,-247.5 1018.3,-267.13 1056.24,-297.79 1079.93,-318.49"/>
<polygon fill="#63b8ff" stroke="#63b8ff" points="1077.88,-321.35 1087.69,-325.36 1082.52,-316.11 1077.88,-321.35"/>
</a>
</g>
</g>
<!-- Node19 -->
<g id="Node000019" class="node">
<title>Node19</title>
<g id="a_Node000019"><a xlink:href="guMtxF2L_8c.html#a40ab2d64c609839ff1e0ef0de2d0dcc4" target="_top" xlink:title=" ">
<polygon fill="white" stroke="#666666" points="1137.5,-243 1072.5,-243 1072.5,-224 1137.5,-224 1137.5,-243"/>
<text text-anchor="middle" x="1105" y="-231" font-family="Helvetica,sans-Serif" font-size="10.00">guMtxF2L</text>
</a>
</g>
</g>
<!-- Node17&#45;&gt;Node19 -->
<g id="edge23_Node000017_Node000019" class="edge">
<title>Node17&#45;&gt;Node19</title>
<g id="a_edge23_Node000017_Node000019"><a xlink:title=" ">
<path fill="none" stroke="#63b8ff" d="M956.6,-229.41C986.22,-230.23 1030.07,-231.45 1062.25,-232.34"/>
<polygon fill="#63b8ff" stroke="#63b8ff" points="1062.16,-235.84 1072.25,-232.62 1062.35,-228.84 1062.16,-235.84"/>
</a>
</g>
</g>
<!-- Node18&#45;&gt;Node3 -->
<g id="edge22_Node000018_Node000003" class="edge">
<title>Node18&#45;&gt;Node3</title>
<g id="a_edge22_Node000018_Node000003"><a xlink:title=" ">
<path fill="none" stroke="#63b8ff" d="M1130.1,-355.7C1163.66,-376.87 1224.13,-415 1257.76,-436.21"/>
<polygon fill="#63b8ff" stroke="#63b8ff" points="1256.17,-439.34 1266.49,-441.72 1259.9,-433.42 1256.17,-439.34"/>
</a>
</g>
</g>
<!-- Node22 -->
<g id="Node000022" class="node">
<title>Node22</title>
<g id="a_Node000022"><a xlink:href="math__util_8c.html#ae69cbf5c8d4b3b0dba2d7b4d4673689f" target="_top" xlink:title=" ">
<polygon fill="white" stroke="#666666" points="942,-423 904,-423 904,-404 942,-404 942,-423"/>
<text text-anchor="middle" x="923" y="-411" font-family="Helvetica,sans-Serif" font-size="10.00">coss</text>
</a>
</g>
</g>
<!-- Node21&#45;&gt;Node22 -->
<g id="edge26_Node000021_Node000022" class="edge">
<title>Node21&#45;&gt;Node22</title>
<g id="a_edge26_Node000021_Node000022"><a xlink:title=" ">
<path fill="none" stroke="#63b8ff" d="M776.28,-373.02C810.37,-382.49 862.05,-396.85 893.82,-405.67"/>
<polygon fill="#63b8ff" stroke="#63b8ff" points="893.21,-409.14 903.78,-408.44 895.09,-402.39 893.21,-409.14"/>
</a>
</g>
</g>
<!-- Node23 -->
<g id="Node000023" class="node">
<title>Node23</title>
<g id="a_Node000023"><a xlink:href="FrameInterpolation_8cpp.html#af749df1a96bee5c78287b1845455ae2d" target="_top" xlink:title=" ">
<polygon fill="white" stroke="#666666" points="1193,-205.5 1017,-205.5 1017,-175.5 1193,-175.5 1193,-205.5"/>
<text text-anchor="start" x="1025" y="-193.5" font-family="Helvetica,sans-Serif" font-size="10.00">FrameInterpolation</text>
<text text-anchor="middle" x="1105" y="-182.5" font-family="Helvetica,sans-Serif" font-size="10.00">_RecordSetMatrixTransformation</text>
</a>
</g>
</g>
<!-- Node21&#45;&gt;Node23 -->
<g id="edge27_Node000021_Node000023" class="edge">
<title>Node21&#45;&gt;Node23</title>
<g id="a_edge27_Node000021_Node000023"><a xlink:title=" ">
<path fill="none" stroke="#63b8ff" d="M793.6,-353.9C806.59,-349.3 819.52,-342.52 829,-332.5 867.85,-291.43 821.17,-246.21 865,-210.5 904.4,-178.4 960.57,-172.36 1008.55,-174.83"/>
<polygon fill="#63b8ff" stroke="#63b8ff" points="1008.46,-178.33 1018.66,-175.48 1008.91,-171.35 1008.46,-178.33"/>
</a>
</g>
</g>
<!-- Node24 -->
<g id="Node000024" class="node">
<title>Node24</title>
<g id="a_Node000024"><a xlink:href="math__util_8c.html#a19ed3bd78fd2d3e2bd0a29f6caf48545" target="_top" xlink:title=" ">
<polygon fill="white" stroke="#666666" points="941,-386 905,-386 905,-367 941,-367 941,-386"/>
<text text-anchor="middle" x="923" y="-374" font-family="Helvetica,sans-Serif" font-size="10.00">sins</text>
</a>
</g>
</g>
<!-- Node21&#45;&gt;Node24 -->
<g id="edge29_Node000021_Node000024" class="edge">
<title>Node21&#45;&gt;Node24</title>
<g id="a_edge29_Node000021_Node000024"><a xlink:title=" ">
<path fill="none" stroke="#63b8ff" d="M829.1,-369.79C852.88,-371.51 876.93,-373.25 894.6,-374.52"/>
<polygon fill="#63b8ff" stroke="#63b8ff" points="894.49,-378.02 904.72,-375.25 895,-371.04 894.49,-378.02"/>
</a>
</g>
</g>
<!-- Node23&#45;&gt;Node3 -->
<g id="edge28_Node000023_Node000003" class="edge">
<title>Node23&#45;&gt;Node3</title>
<g id="a_edge28_Node000023_Node000003"><a xlink:title=" ">
<path fill="none" stroke="#63b8ff" d="M1179.11,-205.66C1184.13,-208.41 1188.84,-211.66 1193,-215.5 1257.69,-275.16 1275.66,-386.59 1280.4,-431.74"/>
<polygon fill="#63b8ff" stroke="#63b8ff" points="1276.92,-432.09 1281.34,-441.72 1283.88,-431.44 1276.92,-432.09"/>
</a>
</g>
</g>
<!-- Node26&#45;&gt;Node10 -->
<g id="edge38_Node000026_Node000010" class="edge">
<title>Node26&#45;&gt;Node10</title>
<g id="a_edge38_Node000026_Node000010"><a xlink:title=" ">
<path fill="none" stroke="#63b8ff" d="M393.17,-294.99C400.34,-292.69 407.52,-289.89 414,-286.5 432.46,-276.86 431.34,-265.76 450,-256.5 458.99,-252.04 469.04,-248.61 478.96,-245.97"/>
<polygon fill="#63b8ff" stroke="#63b8ff" points="479.9,-249.35 488.79,-243.6 478.25,-242.55 479.9,-249.35"/>
</a>
</g>
</g>
<!-- Node27 -->
<g id="Node000027" class="node">
<title>Node27</title>
<g id="a_Node000027"><a xlink:href="collision_8c.html#a6527a2135a10909cdf9a1fd731be5628" target="_top" xlink:title=" ">
<polygon fill="white" stroke="#666666" points="602.5,-321 464.5,-321 464.5,-302 602.5,-302 602.5,-321"/>
<text text-anchor="middle" x="533.5" y="-309" font-family="Helvetica,sans-Serif" font-size="10.00">calculate_surface_height</text>
</a>
</g>
</g>
<!-- Node26&#45;&gt;Node27 -->
<g id="edge32_Node000026_Node000027" class="edge">
<title>Node26&#45;&gt;Node27</title>
<g id="a_edge32_Node000026_Node000027"><a xlink:title=" ">
<path fill="none" stroke="#63b8ff" d="M393.51,-306.21C411.8,-306.91 433.47,-307.73 454.19,-308.52"/>
<polygon fill="#63b8ff" stroke="#63b8ff" points="454.15,-312.02 464.27,-308.9 454.41,-305.03 454.15,-312.02"/>
</a>
</g>
</g>
<!-- Node28 -->
<g id="Node000028" class="node">
<title>Node28</title>
<g id="a_Node000028"><a xlink:href="math__util__2_8c.html#a837dad2e432e4b17ac02eeee934cf4ce" target="_top" xlink:title=" ">
<polygon fill="white" stroke="#666666" points="579,-407 488,-407 488,-388 579,-388 579,-407"/>
<text text-anchor="middle" x="533.5" y="-395" font-family="Helvetica,sans-Serif" font-size="10.00">func_80041924</text>
</a>
</g>
</g>
<!-- Node26&#45;&gt;Node28 -->
<g id="edge33_Node000026_Node000028" class="edge">
<title>Node26&#45;&gt;Node28</title>
<g id="a_edge33_Node000026_Node000028"><a xlink:title=" ">
<path fill="none" stroke="#63b8ff" d="M393.83,-313.05C400.99,-315.66 408,-319.06 414,-323.5 437.49,-340.87 426.03,-361.79 450,-378.5 458.32,-384.3 468.15,-388.35 478.07,-391.18"/>
<polygon fill="#63b8ff" stroke="#63b8ff" points="477.42,-394.63 487.96,-393.62 479.09,-387.83 477.42,-394.63"/>
</a>
</g>
</g>
<!-- Node33 -->
<g id="Node000033" class="node">
<title>Node33</title>
<g id="a_Node000033"><a xlink:href="math__util__2_8c.html#af76a1b5132e0b292f26895736bb69cc7" target="_top" xlink:title=" ">
<polygon fill="white" stroke="#666666" points="594.5,-369.5 472.5,-369.5 472.5,-339.5 594.5,-339.5 594.5,-369.5"/>
<text text-anchor="start" x="480.5" y="-357.5" font-family="Helvetica,sans-Serif" font-size="10.00">rsp_set_matrix_transl</text>
<text text-anchor="middle" x="533.5" y="-346.5" font-family="Helvetica,sans-Serif" font-size="10.00">_rot_scale</text>
</a>
</g>
</g>
<!-- Node26&#45;&gt;Node33 -->
<g id="edge39_Node000026_Node000033" class="edge">
<title>Node26&#45;&gt;Node33</title>
<g id="a_edge39_Node000026_Node000033"><a xlink:title=" ">
<path fill="none" stroke="#63b8ff" d="M383.54,-314.02C407.14,-320.43 438.98,-329.09 467.17,-336.75"/>
<polygon fill="#63b8ff" stroke="#63b8ff" points="466.4,-340.16 476.96,-339.41 468.23,-333.41 466.4,-340.16"/>
</a>
</g>
</g>
<!-- Node29 -->
<g id="Node000029" class="node">
<title>Node29</title>
<g id="a_Node000029"><a xlink:href="collision_8c.html#a37aa55b3768d001533ad75e7f1b8388a" target="_top" xlink:title=" ">
<polygon fill="white" stroke="#666666" points="811.5,-323 670.5,-323 670.5,-304 811.5,-304 811.5,-323"/>
<text text-anchor="middle" x="741" y="-311" font-family="Helvetica,sans-Serif" font-size="10.00">check_bounding_collision</text>
</a>
</g>
</g>
<!-- Node28&#45;&gt;Node29 -->
<g id="edge34_Node000028_Node000029" class="edge">
<title>Node28&#45;&gt;Node29</title>
<g id="a_edge34_Node000028_Node000029"><a xlink:title=" ">
<path fill="none" stroke="#63b8ff" d="M579.24,-391.57C591.92,-388.74 605.42,-384.59 617,-378.5 636.21,-368.4 634.46,-356.79 653,-345.5 665.95,-337.61 681.16,-331.19 695.21,-326.23"/>
<polygon fill="#63b8ff" stroke="#63b8ff" points="696.35,-329.54 704.7,-323.03 694.11,-322.91 696.35,-329.54"/>
</a>
</g>
</g>
<!-- Node30 -->
<g id="Node000030" class="node">
<title>Node30</title>
<g id="a_Node000030"><a xlink:href="collision_8c.html#ac312bf382cb40752f6b790a99e7cdcb6" target="_top" xlink:title=" ">
<polygon fill="white" stroke="#666666" points="977,-275 869,-275 869,-256 977,-256 977,-275"/>
<text text-anchor="middle" x="923" y="-263" font-family="Helvetica,sans-Serif" font-size="10.00">check_collision_yx</text>
</a>
</g>
</g>
<!-- Node29&#45;&gt;Node30 -->
<g id="edge35_Node000029_Node000030" class="edge">
<title>Node29&#45;&gt;Node30</title>
<g id="a_edge35_Node000029_Node000030"><a xlink:title=" ">
<path fill="none" stroke="#63b8ff" d="M777.99,-303.9C806.2,-296.38 845.63,-285.86 876.11,-277.74"/>
<polygon fill="#63b8ff" stroke="#63b8ff" points="877.31,-281.04 886.07,-275.08 875.51,-274.28 877.31,-281.04"/>
</a>
</g>
</g>
<!-- Node31 -->
<g id="Node000031" class="node">
<title>Node31</title>
<g id="a_Node000031"><a xlink:href="collision_8c.html#a4b48832a90e984536a0635a016ec4f28" target="_top" xlink:title=" ">
<polygon fill="white" stroke="#666666" points="976.5,-349 869.5,-349 869.5,-330 976.5,-330 976.5,-349"/>
<text text-anchor="middle" x="923" y="-337" font-family="Helvetica,sans-Serif" font-size="10.00">check_collision_zx</text>
</a>
</g>
</g>
<!-- Node29&#45;&gt;Node31 -->
<g id="edge36_Node000029_Node000031" class="edge">
<title>Node29&#45;&gt;Node31</title>
<g id="a_edge36_Node000029_Node000031"><a xlink:title=" ">
<path fill="none" stroke="#63b8ff" d="M808,-323.03C824.7,-325.45 842.6,-328.03 859.14,-330.42"/>
<polygon fill="#63b8ff" stroke="#63b8ff" points="858.84,-333.91 869.24,-331.88 859.84,-326.99 858.84,-333.91"/>
</a>
</g>
</g>
<!-- Node32 -->
<g id="Node000032" class="node">
<title>Node32</title>
<g id="a_Node000032"><a xlink:href="collision_8c.html#a21fef964ab48191a1c0341954ef27a40" target="_top" xlink:title=" ">
<polygon fill="white" stroke="#666666" points="976.5,-312 869.5,-312 869.5,-293 976.5,-293 976.5,-312"/>
<text text-anchor="middle" x="923" y="-300" font-family="Helvetica,sans-Serif" font-size="10.00">check_collision_zy</text>
</a>
</g>
</g>
<!-- Node29&#45;&gt;Node32 -->
<g id="edge37_Node000029_Node000032" class="edge">
<title>Node29&#45;&gt;Node32</title>
<g id="a_edge37_Node000029_Node000032"><a xlink:title=" ">
<path fill="none" stroke="#63b8ff" d="M811.59,-309.25C827.19,-308.29 843.64,-307.29 858.95,-306.35"/>
<polygon fill="#63b8ff" stroke="#63b8ff" points="859.58,-309.82 869.34,-305.72 859.15,-302.83 859.58,-309.82"/>
</a>
</g>
</g>
<!-- Node33&#45;&gt;Node16 -->
<g id="edge40_Node000033_Node000016" class="edge">
<title>Node33&#45;&gt;Node16</title>
<g id="a_edge40_Node000033_Node000016"><a xlink:title=" ">
<path fill="none" stroke="#63b8ff" d="M594.53,-340.82C602.34,-337.96 610.04,-334.55 617,-330.5 636.29,-319.27 634.18,-307.48 653,-295.5 666.06,-287.18 681.55,-280.47 695.8,-275.32"/>
<polygon fill="#63b8ff" stroke="#63b8ff" points="697.11,-278.57 705.43,-272.01 694.84,-271.95 697.11,-278.57"/>
</a>
</g>
</g>
<!-- Node34 -->
<g id="Node000034" class="node">
<title>Node34</title>
<g id="a_Node000034"><a xlink:href="math__util__2_8c.html#aae502d60ed48e002c9bf17890477aebc" target="_top" xlink:title=" ">
<polygon fill="white" stroke="#666666" points="802,-461 680,-461 680,-442 802,-442 802,-461"/>
<text text-anchor="middle" x="741" y="-449" font-family="Helvetica,sans-Serif" font-size="10.00">set_transform_matrix</text>
</a>
</g>
</g>
<!-- Node33&#45;&gt;Node34 -->
<g id="edge41_Node000033_Node000034" class="edge">
<title>Node33&#45;&gt;Node34</title>
<g id="a_edge41_Node000033_Node000034"><a xlink:title=" ">
<path fill="none" stroke="#63b8ff" d="M590.62,-369.56C599.57,-372.51 608.63,-375.84 617,-379.5 653.99,-395.66 693.79,-420.47 717.8,-436.34"/>
<polygon fill="#63b8ff" stroke="#63b8ff" points="715.93,-439.3 726.18,-441.94 719.82,-433.48 715.93,-439.3"/>
</a>
</g>
</g>
<!-- Node34&#45;&gt;Node22 -->
<g id="edge42_Node000034_Node000022" class="edge">
<title>Node34&#45;&gt;Node22</title>
<g id="a_edge42_Node000034_Node000022"><a xlink:title=" ">
<path fill="none" stroke="#63b8ff" d="M787.42,-441.91C820.85,-434.85 865.26,-425.48 893.74,-419.47"/>
<polygon fill="#63b8ff" stroke="#63b8ff" points="894.76,-422.83 903.82,-417.34 893.32,-415.98 894.76,-422.83"/>
</a>
</g>
</g>
<!-- Node34&#45;&gt;Node24 -->
<g id="edge45_Node000034_Node000024" class="edge">
<title>Node34&#45;&gt;Node24</title>
<g id="a_edge45_Node000034_Node000024"><a xlink:title=" ">
<path fill="none" stroke="#63b8ff" d="M761.33,-441.93C785.32,-430.23 827.66,-410.18 865,-395.5 874.7,-391.69 885.5,-387.96 895.08,-384.83"/>
<polygon fill="#63b8ff" stroke="#63b8ff" points="896.42,-388.07 904.87,-381.69 894.28,-381.41 896.42,-388.07"/>
</a>
</g>
</g>
<!-- Node35 -->
<g id="Node000035" class="node">
<title>Node35</title>
<g id="a_Node000035"><a xlink:href="FrameInterpolation_8cpp.html#adc4e082ac2a755e94aa8b4e8bbba9850" target="_top" xlink:title=" ">
<polygon fill="white" stroke="#666666" points="1181,-466.5 1029,-466.5 1029,-436.5 1181,-436.5 1181,-466.5"/>
<text text-anchor="start" x="1037" y="-454.5" font-family="Helvetica,sans-Serif" font-size="10.00">FrameInterpolation</text>
<text text-anchor="middle" x="1105" y="-443.5" font-family="Helvetica,sans-Serif" font-size="10.00">_RecordSetTransformMatrix</text>
</a>
</g>
</g>
<!-- Node34&#45;&gt;Node35 -->
<g id="edge43_Node000034_Node000035" class="edge">
<title>Node34&#45;&gt;Node35</title>
<g id="a_edge43_Node000034_Node000035"><a xlink:title=" ">
<path fill="none" stroke="#63b8ff" d="M802.18,-451.5C861.37,-451.5 952.27,-451.5 1018.86,-451.5"/>
<polygon fill="#63b8ff" stroke="#63b8ff" points="1018.91,-455 1028.91,-451.5 1018.91,-448 1018.91,-455"/>
</a>
</g>
</g>
<!-- Node36 -->
<g id="Node000036" class="node">
<title>Node36</title>
<g id="a_Node000036"><a xlink:href="math__util__2_8c.html#ab05a6d20123383498f07f82db7b6fb8d" target="_top" xlink:title=" ">
<polygon fill="white" stroke="#666666" points="981,-573 865,-573 865,-554 981,-554 981,-573"/>
<text text-anchor="middle" x="923" y="-561" font-family="Helvetica,sans-Serif" font-size="10.00">vec3f_cross_product</text>
</a>
</g>
</g>
<!-- Node34&#45;&gt;Node36 -->
<g id="edge46_Node000034_Node000036" class="edge">
<title>Node34&#45;&gt;Node36</title>
<g id="a_edge46_Node000034_Node000036"><a xlink:title=" ">
<path fill="none" stroke="#63b8ff" d="M752.01,-461.14C771.95,-479.87 818.73,-521.46 865,-545.5 868.33,-547.23 871.85,-548.83 875.45,-550.3"/>
<polygon fill="#63b8ff" stroke="#63b8ff" points="874.47,-553.67 885.06,-553.9 876.92,-547.11 874.47,-553.67"/>
</a>
</g>
</g>
<!-- Node37 -->
<g id="Node000037" class="node">
<title>Node37</title>
<g id="a_Node000037"><a xlink:href="math__util__2_8c.html#ad692d06c2c62cfc4e1b91e03cc0acf00" target="_top" xlink:title=" ">
<polygon fill="white" stroke="#666666" points="972,-536 874,-536 874,-517 972,-517 972,-536"/>
<text text-anchor="middle" x="923" y="-524" font-family="Helvetica,sans-Serif" font-size="10.00">vec3f_normalize</text>
</a>
</g>
</g>
<!-- Node34&#45;&gt;Node37 -->
<g id="edge47_Node000034_Node000037" class="edge">
<title>Node34&#45;&gt;Node37</title>
<g id="a_edge47_Node000034_Node000037"><a xlink:title=" ">
<path fill="none" stroke="#63b8ff" d="M760.85,-461.16C784.71,-473.16 827.26,-493.86 865,-508.5 869.72,-510.33 874.7,-512.11 879.69,-513.81"/>
<polygon fill="#63b8ff" stroke="#63b8ff" points="878.6,-517.13 889.2,-516.93 880.79,-510.48 878.6,-517.13"/>
</a>
</g>
</g>
<!-- Node39 -->
<g id="Node000039" class="node">
<title>Node39</title>
<g id="a_Node000039"><a xlink:href="math__util__2_8c.html#a03ebc759ba50db479384b0ad89225f1e" target="_top" xlink:title=" ">
<polygon fill="white" stroke="#666666" points="966,-499 880,-499 880,-480 966,-480 966,-499"/>
<text text-anchor="middle" x="923" y="-487" font-family="Helvetica,sans-Serif" font-size="10.00">vec3f_set_xyz</text>
</a>
</g>
</g>
<!-- Node34&#45;&gt;Node39 -->
<g id="edge49_Node000034_Node000039" class="edge">
<title>Node34&#45;&gt;Node39</title>
<g id="a_edge49_Node000034_Node000039"><a xlink:title=" ">
<path fill="none" stroke="#63b8ff" d="M787.42,-461.09C812.52,-466.39 843.81,-472.99 869.9,-478.5"/>
<polygon fill="#63b8ff" stroke="#63b8ff" points="869.48,-481.99 879.99,-480.63 870.93,-475.14 869.48,-481.99"/>
</a>
</g>
</g>
<!-- Node35&#45;&gt;Node3 -->
<g id="edge44_Node000035_Node000003" class="edge">
<title>Node35&#45;&gt;Node3</title>
<g id="a_edge44_Node000035_Node000003"><a xlink:title=" ">
<path fill="none" stroke="#63b8ff" d="M1181.15,-451.5C1193.71,-451.5 1206.62,-451.5 1218.83,-451.5"/>
<polygon fill="#63b8ff" stroke="#63b8ff" points="1218.91,-455 1228.91,-451.5 1218.91,-448 1218.91,-455"/>
</a>
</g>
</g>
<!-- Node38 -->
<g id="Node000038" class="node">
<title>Node38</title>
<g id="a_Node000038"><a xlink:href="math_8h.html#a37bde043e94a6f074c78f10518fb5d99" target="_top" xlink:title=" ">
<polygon fill="white" stroke="#666666" points="1124.5,-536 1085.5,-536 1085.5,-517 1124.5,-517 1124.5,-536"/>
<text text-anchor="middle" x="1105" y="-524" font-family="Helvetica,sans-Serif" font-size="10.00">sqrtf</text>
</a>
</g>
</g>
<!-- Node37&#45;&gt;Node38 -->
<g id="edge48_Node000037_Node000038" class="edge">
<title>Node37&#45;&gt;Node38</title>
<g id="a_edge48_Node000037_Node000038"><a xlink:title=" ">
<path fill="none" stroke="#63b8ff" d="M972.24,-526.5C1004.97,-526.5 1047.16,-526.5 1074.87,-526.5"/>
<polygon fill="#63b8ff" stroke="#63b8ff" points="1075.08,-530 1085.08,-526.5 1075.08,-523 1075.08,-530"/>
</a>
</g>
</g>
<!-- Node42 -->
<g id="Node000042" class="node">
<title>Node42</title>
<g id="a_Node000042"><a xlink:href="update__objects_8c.html#a3953241e15c6372ac8944ba842148a9a" target="_top" xlink:title=" ">
<polygon fill="white" stroke="#666666" points="397,-153 298,-153 298,-134 397,-134 397,-153"/>
<text text-anchor="middle" x="347.5" y="-141" font-family="Helvetica,sans-Serif" font-size="10.00">clear_object_flag</text>
</a>
</g>
</g>
<!-- Node41&#45;&gt;Node42 -->
<g id="edge52_Node000041_Node000042" class="edge">
<title>Node41&#45;&gt;Node42</title>
<g id="a_edge52_Node000041_Node000042"><a xlink:title=" ">
<path fill="none" stroke="#63b8ff" d="M218.12,-110.04C242.26,-116.33 274.08,-124.63 300,-131.38"/>
<polygon fill="#63b8ff" stroke="#63b8ff" points="299.42,-134.85 309.98,-133.98 301.19,-128.07 299.42,-134.85"/>
</a>
</g>
</g>
<!-- Node43 -->
<g id="Node000043" class="node">
<title>Node43</title>
<g id="a_Node000043"><a xlink:href="code__80086E70_8c.html#abee4ac0bf830479754bf7a3054719714" target="_top" xlink:title="Returns the distance between the object and the camera.">
<polygon fill="white" stroke="#666666" points="414,-115.5 281,-115.5 281,-85.5 414,-85.5 414,-115.5"/>
<text text-anchor="start" x="289" y="-103.5" font-family="Helvetica,sans-Serif" font-size="10.00">get_horizontal_distance</text>
<text text-anchor="middle" x="347.5" y="-92.5" font-family="Helvetica,sans-Serif" font-size="10.00">_to_camera</text>
</a>
</g>
</g>
<!-- Node41&#45;&gt;Node43 -->
<g id="edge53_Node000041_Node000043" class="edge">
<title>Node41&#45;&gt;Node43</title>
<g id="a_edge53_Node000041_Node000043"><a xlink:title=" ">
<path fill="none" stroke="#63b8ff" d="M226.59,-100.5C240.15,-100.5 255.43,-100.5 270.43,-100.5"/>
<polygon fill="#63b8ff" stroke="#63b8ff" points="270.74,-104 280.74,-100.5 270.74,-97 270.74,-104"/>
</a>
</g>
</g>
<!-- Node44 -->
<g id="Node000044" class="node">
<title>Node44</title>
<g id="a_Node000044"><a xlink:href="code__80086E70_8c.html#abe4dd4c208100b3bca1036d0a14074f2" target="_top" xlink:title=" ">
<polygon fill="white" stroke="#666666" points="405,-67.5 290,-67.5 290,-37.5 405,-37.5 405,-67.5"/>
<text text-anchor="start" x="298" y="-55.5" font-family="Helvetica,sans-Serif" font-size="10.00">is_object_visible_on</text>
<text text-anchor="middle" x="347.5" y="-44.5" font-family="Helvetica,sans-Serif" font-size="10.00">_camera</text>
</a>
</g>
</g>
<!-- Node41&#45;&gt;Node44 -->
<g id="edge54_Node000041_Node000044" class="edge">
<title>Node41&#45;&gt;Node44</title>
<g id="a_edge54_Node000041_Node000044"><a xlink:title=" ">
<path fill="none" stroke="#63b8ff" d="M214.49,-90.9C234.66,-85.03 261.09,-77.35 285,-70.39"/>
<polygon fill="#63b8ff" stroke="#63b8ff" points="286.1,-73.72 294.72,-67.56 284.14,-67 286.1,-73.72"/>
</a>
</g>
</g>
<!-- Node46 -->
<g id="Node000046" class="node">
<title>Node46</title>
<g id="a_Node000046"><a xlink:href="update__objects_8c.html#afe64f2394ee0deab6370b77609500bda" target="_top" xlink:title=" ">
<polygon fill="white" stroke="#666666" points="392.5,-19 302.5,-19 302.5,0 392.5,0 392.5,-19"/>
<text text-anchor="middle" x="347.5" y="-7" font-family="Helvetica,sans-Serif" font-size="10.00">set_object_flag</text>
</a>
</g>
</g>
<!-- Node41&#45;&gt;Node46 -->
<g id="edge57_Node000041_Node000046" class="edge">
<title>Node41&#45;&gt;Node46</title>
<g id="a_edge57_Node000041_Node000046"><a xlink:title=" ">
<path fill="none" stroke="#63b8ff" d="M192.04,-90.95C209.38,-75.7 245.56,-45.81 281,-28.5 285.67,-26.22 290.66,-24.16 295.73,-22.32"/>
<polygon fill="#63b8ff" stroke="#63b8ff" points="297.14,-25.54 305.5,-19.04 294.91,-18.9 297.14,-25.54"/>
</a>
</g>
</g>
<!-- Node45 -->
<g id="Node000045" class="node">
<title>Node45</title>
<g id="a_Node000045"><a xlink:href="math__util__2_8c.html#a13e56d0f66165ef2bfef5122f7de73b6" target="_top" xlink:title=" ">
<polygon fill="white" stroke="#666666" points="598,-62 469,-62 469,-43 598,-43 598,-62"/>
<text text-anchor="middle" x="533.5" y="-50" font-family="Helvetica,sans-Serif" font-size="10.00">get_angle_between_xy</text>
</a>
</g>
</g>
<!-- Node44&#45;&gt;Node45 -->
<g id="edge55_Node000044_Node000045" class="edge">
<title>Node44&#45;&gt;Node45</title>
<g id="a_edge55_Node000044_Node000045"><a xlink:title=" ">
<path fill="none" stroke="#63b8ff" d="M405.21,-52.5C422.07,-52.5 440.79,-52.5 458.58,-52.5"/>
<polygon fill="#63b8ff" stroke="#63b8ff" points="458.92,-56 468.92,-52.5 458.92,-49 458.92,-56"/>
</a>
</g>
</g>
<!-- Node45&#45;&gt;Node7 -->
<g id="edge56_Node000045_Node000007" class="edge">
<title>Node45&#45;&gt;Node7</title>
<g id="a_edge56_Node000045_Node000007"><a xlink:title=" ">
<path fill="none" stroke="#63b8ff" d="M598.11,-57.76C633.6,-60.7 676.41,-64.24 705.66,-66.66"/>
<polygon fill="#63b8ff" stroke="#63b8ff" points="705.53,-70.16 715.78,-67.5 706.1,-63.18 705.53,-70.16"/>
</a>
</g>
</g>
</g>
</svg>
