<?xml version="1.0" encoding="UTF-8" standalone="no"?>
<!DOCTYPE svg PUBLIC "-//W3C//DTD SVG 1.1//EN"
 "http://www.w3.org/Graphics/SVG/1.1/DTD/svg11.dtd">
<!-- Generated by graphviz version 2.43.0 (0)
 -->
<!-- Title: MarioRaceway::CreditsSpawnActors Pages: 1 -->
<svg width="1730pt" height="740pt"
 viewBox="0.00 0.00 1730.00 740.00" xmlns="http://www.w3.org/2000/svg" xmlns:xlink="http://www.w3.org/1999/xlink">
<g id="graph0" class="graph" transform="scale(1 1) rotate(0) translate(4 736)">
<title>MarioRaceway::CreditsSpawnActors</title>
<!-- Node1 -->
<g id="Node000001" class="node">
<title>Node1</title>
<g id="a_Node000001"><a xlink:title=" ">
<polygon fill="#999999" stroke="#666666" points="161,-283.5 0,-283.5 0,-253.5 161,-253.5 161,-283.5"/>
<text text-anchor="start" x="8" y="-271.5" font-family="Helvetica,sans-Serif" font-size="10.00">MarioRaceway::CreditsSpawn</text>
<text text-anchor="middle" x="80.5" y="-260.5" font-family="Helvetica,sans-Serif" font-size="10.00">Actors</text>
</a>
</g>
</g>
<!-- Node2 -->
<g id="Node000002" class="node">
<title>Node2</title>
<g id="a_Node000002"><a xlink:href="actors_8c.html#aa6c218ad25d2200bdbf85cbbd197d1cd" target="_top" xlink:title=" ">
<polygon fill="white" stroke="#666666" points="284,-278 197,-278 197,-259 284,-259 284,-278"/>
<text text-anchor="middle" x="240.5" y="-266" font-family="Helvetica,sans-Serif" font-size="10.00">spawn_foliage</text>
</a>
</g>
</g>
<!-- Node1&#45;&gt;Node2 -->
<g id="edge1_Node000001_Node000002" class="edge">
<title>Node1&#45;&gt;Node2</title>
<g id="a_edge1_Node000001_Node000002"><a xlink:title=" ">
<path fill="none" stroke="#63b8ff" d="M161.43,-268.5C170.04,-268.5 178.63,-268.5 186.81,-268.5"/>
<polygon fill="#63b8ff" stroke="#63b8ff" points="186.9,-272 196.9,-268.5 186.9,-265 186.9,-272"/>
</a>
</g>
</g>
<!-- Node3 -->
<g id="Node000003" class="node">
<title>Node3</title>
<g id="a_Node000003"><a xlink:href="actors_8c.html#a91fb2e4e37e7c72fea918fe2c1bb4eaf" target="_top" xlink:title=" ">
<polygon fill="white" stroke="#666666" points="460,-515 320,-515 320,-496 460,-496 460,-515"/>
<text text-anchor="middle" x="390" y="-503" font-family="Helvetica,sans-Serif" font-size="10.00">add_actor_to_empty_slot</text>
</a>
</g>
</g>
<!-- Node2&#45;&gt;Node3 -->
<g id="edge2_Node000002_Node000003" class="edge">
<title>Node2&#45;&gt;Node3</title>
<g id="a_edge2_Node000002_Node000003"><a xlink:title=" ">
<path fill="none" stroke="#63b8ff" d="M244.93,-278.38C254.4,-304.93 282.7,-379.46 320,-433.5 334.52,-454.54 355.25,-475.26 370.19,-489.03"/>
<polygon fill="#63b8ff" stroke="#63b8ff" points="368.05,-491.82 377.82,-495.93 372.74,-486.63 368.05,-491.82"/>
</a>
</g>
</g>
<!-- Node5 -->
<g id="Node000005" class="node">
<title>Node5</title>
<g id="a_Node000005"><a xlink:href="collision_8c.html#a37aa55b3768d001533ad75e7f1b8388a" target="_top" xlink:title=" ">
<polygon fill="white" stroke="#666666" points="785,-665 644,-665 644,-646 785,-646 785,-665"/>
<text text-anchor="middle" x="714.5" y="-653" font-family="Helvetica,sans-Serif" font-size="10.00">check_bounding_collision</text>
</a>
</g>
</g>
<!-- Node2&#45;&gt;Node5 -->
<g id="edge29_Node000002_Node000005" class="edge">
<title>Node2&#45;&gt;Node5</title>
<g id="a_edge29_Node000002_Node000005"><a xlink:title=" ">
<path fill="none" stroke="#63b8ff" d="M242.07,-278.16C245.37,-330.89 263.98,-583.41 320,-631.5 419.9,-717.26 591.85,-687.69 671.16,-667.69"/>
<polygon fill="#63b8ff" stroke="#63b8ff" points="672.47,-670.96 681.27,-665.06 670.71,-664.19 672.47,-670.96"/>
</a>
</g>
</g>
<!-- Node10 -->
<g id="Node000010" class="node">
<title>Node10</title>
<g id="a_Node000010"><a xlink:href="Game_8cpp.html#a693de7d8b89fe291aafea86bc64a0a2e" target="_top" xlink:title=" ">
<polygon fill="white" stroke="#666666" points="934,-621 854,-621 854,-602 934,-602 934,-621"/>
<text text-anchor="middle" x="894" y="-609" font-family="Helvetica,sans-Serif" font-size="10.00">CM_GetActor</text>
</a>
</g>
</g>
<!-- Node2&#45;&gt;Node10 -->
<g id="edge30_Node000002_Node000010" class="edge">
<title>Node2&#45;&gt;Node10</title>
<g id="a_edge30_Node000002_Node000010"><a xlink:title=" ">
<path fill="none" stroke="#63b8ff" d="M241.66,-278.01C242.77,-314.71 251.56,-448.82 320,-524.5 376.91,-587.44 413.11,-580.37 496,-598.5 618.73,-625.35 767.84,-620.57 843.62,-615.58"/>
<polygon fill="#63b8ff" stroke="#63b8ff" points="844.08,-619.05 853.82,-614.88 843.6,-612.07 844.08,-619.05"/>
</a>
</g>
</g>
<!-- Node23 -->
<g id="Node000023" class="node">
<title>Node23</title>
<g id="a_Node000023"><a xlink:href="math__util_8c.html#a79fd07a0971ec96a3ff0801963a2fa7f" target="_top" xlink:title=" ">
<polygon fill="white" stroke="#666666" points="926,-464 862,-464 862,-445 926,-445 926,-464"/>
<text text-anchor="middle" x="894" y="-452" font-family="Helvetica,sans-Serif" font-size="10.00">vec3f_set</text>
</a>
</g>
</g>
<!-- Node2&#45;&gt;Node23 -->
<g id="edge44_Node000002_Node000023" class="edge">
<title>Node2&#45;&gt;Node23</title>
<g id="a_edge44_Node000002_Node000023"><a xlink:title=" ">
<path fill="none" stroke="#63b8ff" d="M243.98,-278.31C250.98,-303.65 273.43,-371.37 320,-400.5 407.91,-455.49 681.94,-428.03 785,-439.5 807.11,-441.96 831.68,-445.32 851.79,-448.24"/>
<polygon fill="#63b8ff" stroke="#63b8ff" points="851.46,-451.73 861.86,-449.72 852.48,-444.8 851.46,-451.73"/>
</a>
</g>
</g>
<!-- Node29 -->
<g id="Node000029" class="node">
<title>Node29</title>
<g id="a_Node000029"><a xlink:href="collision_8c.html#a6527a2135a10909cdf9a1fd731be5628" target="_top" xlink:title=" ">
<polygon fill="white" stroke="#666666" points="459,-391 321,-391 321,-372 459,-372 459,-391"/>
<text text-anchor="middle" x="390" y="-379" font-family="Helvetica,sans-Serif" font-size="10.00">calculate_surface_height</text>
</a>
</g>
</g>
<!-- Node2&#45;&gt;Node29 -->
<g id="edge28_Node000002_Node000029" class="edge">
<title>Node2&#45;&gt;Node29</title>
<g id="a_edge28_Node000002_Node000029"><a xlink:title=" ">
<path fill="none" stroke="#63b8ff" d="M247.61,-278.27C259.42,-296.41 287.16,-335.45 320,-357.5 326.3,-361.73 333.42,-365.29 340.64,-368.27"/>
<polygon fill="#63b8ff" stroke="#63b8ff" points="339.88,-371.72 350.47,-371.97 342.34,-365.17 339.88,-371.72"/>
</a>
</g>
</g>
<!-- Node30 -->
<g id="Node000030" class="node">
<title>Node30</title>
<g id="a_Node000030"><a xlink:href="actors_8c.html#a6fd7dc3bc34357287535b6f06ab7d85c" target="_top" xlink:title=" ">
<polygon fill="white" stroke="#666666" points="598,-353 506,-353 506,-334 598,-334 598,-353"/>
<text text-anchor="middle" x="552" y="-341" font-family="Helvetica,sans-Serif" font-size="10.00">func_802976D8</text>
</a>
</g>
</g>
<!-- Node2&#45;&gt;Node30 -->
<g id="edge31_Node000002_Node000030" class="edge">
<title>Node2&#45;&gt;Node30</title>
<g id="a_edge31_Node000002_Node000030"><a xlink:title=" ">
<path fill="none" stroke="#63b8ff" d="M251.64,-278.32C265.69,-291.25 292.48,-313.49 320,-323.5 377.27,-344.33 447.59,-347.51 495.5,-346.64"/>
<polygon fill="#63b8ff" stroke="#63b8ff" points="495.76,-350.14 505.67,-346.39 495.58,-343.14 495.76,-350.14"/>
</a>
</g>
</g>
<!-- Node31 -->
<g id="Node000031" class="node">
<title>Node31</title>
<g id="a_Node000031"><a xlink:href="actors_8c.html#a09d879c67b2c1430dd8ba2d5c9c136e1" target="_top" xlink:title=" ">
<polygon fill="white" stroke="#666666" points="436,-315 344,-315 344,-296 436,-296 436,-315"/>
<text text-anchor="middle" x="390" y="-303" font-family="Helvetica,sans-Serif" font-size="10.00">func_802976EC</text>
</a>
</g>
</g>
<!-- Node2&#45;&gt;Node31 -->
<g id="edge32_Node000002_Node000031" class="edge">
<title>Node2&#45;&gt;Node31</title>
<g id="a_edge32_Node000002_Node000031"><a xlink:title=" ">
<path fill="none" stroke="#63b8ff" d="M279.48,-278.03C298.25,-282.74 321.09,-288.47 341.05,-293.47"/>
<polygon fill="#63b8ff" stroke="#63b8ff" points="340.34,-296.9 350.89,-295.94 342.04,-290.11 340.34,-296.9"/>
</a>
</g>
</g>
<!-- Node34 -->
<g id="Node000034" class="node">
<title>Node34</title>
<g id="a_Node000034"><a xlink:href="Game_8cpp.html#a8ebd6a4d970e4333ab5a9dd66c3d9c48" target="_top" xlink:title=" ">
<polygon fill="white" stroke="#666666" points="438.5,-278 341.5,-278 341.5,-259 438.5,-259 438.5,-278"/>
<text text-anchor="middle" x="390" y="-266" font-family="Helvetica,sans-Serif" font-size="10.00">IsBowsersCastle</text>
</a>
</g>
</g>
<!-- Node2&#45;&gt;Node34 -->
<g id="edge36_Node000002_Node000034" class="edge">
<title>Node2&#45;&gt;Node34</title>
<g id="a_edge36_Node000002_Node000034"><a xlink:title=" ">
<path fill="none" stroke="#63b8ff" d="M284.16,-268.5C298.82,-268.5 315.48,-268.5 331.14,-268.5"/>
<polygon fill="#63b8ff" stroke="#63b8ff" points="331.25,-272 341.25,-268.5 331.25,-265 331.25,-272"/>
</a>
</g>
</g>
<!-- Node35 -->
<g id="Node000035" class="node">
<title>Node35</title>
<g id="a_Node000035"><a xlink:href="Game_8cpp.html#af4bf996258124d6741c70e4fa918ef03" target="_top" xlink:title=" ">
<polygon fill="white" stroke="#666666" points="442.5,-241 337.5,-241 337.5,-222 442.5,-222 442.5,-241"/>
<text text-anchor="middle" x="390" y="-229" font-family="Helvetica,sans-Serif" font-size="10.00">IsFrappeSnowland</text>
</a>
</g>
</g>
<!-- Node2&#45;&gt;Node35 -->
<g id="edge37_Node000002_Node000035" class="edge">
<title>Node2&#45;&gt;Node35</title>
<g id="a_edge37_Node000002_Node000035"><a xlink:title=" ">
<path fill="none" stroke="#63b8ff" d="M279.48,-258.97C298.25,-254.26 321.09,-248.53 341.05,-243.53"/>
<polygon fill="#63b8ff" stroke="#63b8ff" points="342.04,-246.89 350.89,-241.06 340.34,-240.1 342.04,-246.89"/>
</a>
</g>
</g>
<!-- Node36 -->
<g id="Node000036" class="node">
<title>Node36</title>
<g id="a_Node000036"><a xlink:href="Game_8cpp.html#ad474b8b257813cceeae25ab5205273c4" target="_top" xlink:title=" ">
<polygon fill="white" stroke="#666666" points="439,-204 341,-204 341,-185 439,-185 439,-204"/>
<text text-anchor="middle" x="390" y="-192" font-family="Helvetica,sans-Serif" font-size="10.00">IsKalimariDesert</text>
</a>
</g>
</g>
<!-- Node2&#45;&gt;Node36 -->
<g id="edge38_Node000002_Node000036" class="edge">
<title>Node2&#45;&gt;Node36</title>
<g id="a_edge38_Node000002_Node000036"><a xlink:title=" ">
<path fill="none" stroke="#63b8ff" d="M252.13,-258.96C266.52,-246.52 293.46,-224.91 320,-212.5 324.15,-210.56 328.54,-208.8 333.02,-207.22"/>
<polygon fill="#63b8ff" stroke="#63b8ff" points="334.46,-210.43 342.89,-204.02 332.3,-203.77 334.46,-210.43"/>
</a>
</g>
</g>
<!-- Node37 -->
<g id="Node000037" class="node">
<title>Node37</title>
<g id="a_Node000037"><a xlink:href="Game_8cpp.html#a2d7429dca77188f881bf1c340271ea90" target="_top" xlink:title=" ">
<polygon fill="white" stroke="#666666" points="436,-167 344,-167 344,-148 436,-148 436,-167"/>
<text text-anchor="middle" x="390" y="-155" font-family="Helvetica,sans-Serif" font-size="10.00">IsLuigiRaceway</text>
</a>
</g>
</g>
<!-- Node2&#45;&gt;Node37 -->
<g id="edge39_Node000002_Node000037" class="edge">
<title>Node2&#45;&gt;Node37</title>
<g id="a_edge39_Node000002_Node000037"><a xlink:title=" ">
<path fill="none" stroke="#63b8ff" d="M246.81,-258.92C257.84,-239.93 285.15,-197.47 320,-175.5 324.4,-172.72 329.22,-170.37 334.2,-168.39"/>
<polygon fill="#63b8ff" stroke="#63b8ff" points="335.62,-171.6 343.9,-164.99 333.31,-164.99 335.62,-171.6"/>
</a>
</g>
</g>
<!-- Node38 -->
<g id="Node000038" class="node">
<title>Node38</title>
<g id="a_Node000038"><a xlink:href="Game_8cpp.html#a591286b8b2219a8889cda4cc5d3b8c79" target="_top" xlink:title=" ">
<polygon fill="white" stroke="#666666" points="438.5,-130 341.5,-130 341.5,-111 438.5,-111 438.5,-130"/>
<text text-anchor="middle" x="390" y="-118" font-family="Helvetica,sans-Serif" font-size="10.00">IsMarioRaceway</text>
</a>
</g>
</g>
<!-- Node2&#45;&gt;Node38 -->
<g id="edge40_Node000002_Node000038" class="edge">
<title>Node2&#45;&gt;Node38</title>
<g id="a_edge40_Node000002_Node000038"><a xlink:title=" ">
<path fill="none" stroke="#63b8ff" d="M244.45,-258.93C252.41,-234.75 276.69,-170.84 320,-138.5 323.67,-135.76 327.72,-133.44 331.97,-131.46"/>
<polygon fill="#63b8ff" stroke="#63b8ff" points="333.49,-134.63 341.49,-127.69 330.91,-128.12 333.49,-134.63"/>
</a>
</g>
</g>
<!-- Node39 -->
<g id="Node000039" class="node">
<title>Node39</title>
<g id="a_Node000039"><a xlink:href="Game_8cpp.html#a8a295fe1e3fdfa50223813feaca6d7d6" target="_top" xlink:title=" ">
<polygon fill="white" stroke="#666666" points="435.5,-93 344.5,-93 344.5,-74 435.5,-74 435.5,-93"/>
<text text-anchor="middle" x="390" y="-81" font-family="Helvetica,sans-Serif" font-size="10.00">IsMooMooFarm</text>
</a>
</g>
</g>
<!-- Node2&#45;&gt;Node39 -->
<g id="edge41_Node000002_Node000039" class="edge">
<title>Node2&#45;&gt;Node39</title>
<g id="a_edge41_Node000002_Node000039"><a xlink:title=" ">
<path fill="none" stroke="#63b8ff" d="M243.1,-258.84C248.39,-230.14 268.01,-144.7 320,-101.5 324.34,-97.89 329.33,-95 334.6,-92.68"/>
<polygon fill="#63b8ff" stroke="#63b8ff" points="336.12,-95.84 344.29,-89.09 333.7,-89.28 336.12,-95.84"/>
</a>
</g>
</g>
<!-- Node40 -->
<g id="Node000040" class="node">
<title>Node40</title>
<g id="a_Node000040"><a xlink:href="Game_8cpp.html#afb0bb7b7bc2b816a7a9fbedcc6c41ab7" target="_top" xlink:title=" ">
<polygon fill="white" stroke="#666666" points="438.5,-56 341.5,-56 341.5,-37 438.5,-37 438.5,-56"/>
<text text-anchor="middle" x="390" y="-44" font-family="Helvetica,sans-Serif" font-size="10.00">IsRoyalRaceway</text>
</a>
</g>
</g>
<!-- Node2&#45;&gt;Node40 -->
<g id="edge42_Node000002_Node000040" class="edge">
<title>Node2&#45;&gt;Node40</title>
<g id="a_edge42_Node000002_Node000040"><a xlink:title=" ">
<path fill="none" stroke="#63b8ff" d="M242.21,-258.66C245.14,-225.8 259.17,-118.87 320,-64.5 323.62,-61.27 327.74,-58.6 332.14,-56.41"/>
<polygon fill="#63b8ff" stroke="#63b8ff" points="333.57,-59.6 341.46,-52.53 330.88,-53.14 333.57,-59.6"/>
</a>
</g>
</g>
<!-- Node41 -->
<g id="Node000041" class="node">
<title>Node41</title>
<g id="a_Node000041"><a xlink:href="Game_8cpp.html#ab05bb065469940f40a5023c58a8f9e7f" target="_top" xlink:title=" ">
<polygon fill="white" stroke="#666666" points="430,-19 350,-19 350,0 430,0 430,-19"/>
<text text-anchor="middle" x="390" y="-7" font-family="Helvetica,sans-Serif" font-size="10.00">IsYoshiValley</text>
</a>
</g>
</g>
<!-- Node2&#45;&gt;Node41 -->
<g id="edge43_Node000002_Node000041" class="edge">
<title>Node2&#45;&gt;Node41</title>
<g id="a_edge43_Node000002_Node000041"><a xlink:title=" ">
<path fill="none" stroke="#63b8ff" d="M241.55,-258.99C242.27,-222.97 249.85,-93.58 320,-27.5 325.58,-22.25 332.49,-18.48 339.76,-15.79"/>
<polygon fill="#63b8ff" stroke="#63b8ff" points="341.26,-19 349.82,-12.75 339.23,-12.3 341.26,-19"/>
</a>
</g>
</g>
<!-- Node4 -->
<g id="Node000004" class="node">
<title>Node4</title>
<g id="a_Node000004"><a xlink:href="actors_8c.html#a39c023177b5a7686cdd1fc65b8b953e1" target="_top" xlink:title=" ">
<polygon fill="white" stroke="#666666" points="583,-478 521,-478 521,-459 583,-459 583,-478"/>
<text text-anchor="middle" x="552" y="-466" font-family="Helvetica,sans-Serif" font-size="10.00">actor_init</text>
</a>
</g>
</g>
<!-- Node3&#45;&gt;Node4 -->
<g id="edge3_Node000003_Node000004" class="edge">
<title>Node3&#45;&gt;Node4</title>
<g id="a_edge3_Node000003_Node000004"><a xlink:title=" ">
<path fill="none" stroke="#63b8ff" d="M432.2,-495.97C456.43,-490.37 486.91,-483.32 510.94,-477.76"/>
<polygon fill="#63b8ff" stroke="#63b8ff" points="511.85,-481.15 520.8,-475.48 510.27,-474.33 511.85,-481.15"/>
</a>
</g>
</g>
<!-- Node26 -->
<g id="Node000026" class="node">
<title>Node26</title>
<g id="a_Node000026"><a xlink:href="Game_8cpp.html#acea5cfd9ab22f745bd6627869b95a62e" target="_top" xlink:title=" ">
<polygon fill="white" stroke="#666666" points="608,-589 496,-589 496,-570 608,-570 608,-589"/>
<text text-anchor="middle" x="552" y="-577" font-family="Helvetica,sans-Serif" font-size="10.00">CM_ActorBeginPlay</text>
</a>
</g>
</g>
<!-- Node3&#45;&gt;Node26 -->
<g id="edge25_Node000003_Node000026" class="edge">
<title>Node3&#45;&gt;Node26</title>
<g id="a_edge25_Node000003_Node000026"><a xlink:title=" ">
<path fill="none" stroke="#63b8ff" d="M406.94,-515.13C427.15,-527.07 463.31,-547.56 496,-561.5 500.17,-563.28 504.57,-564.99 509,-566.6"/>
<polygon fill="#63b8ff" stroke="#63b8ff" points="508.07,-569.98 518.66,-569.95 510.36,-563.36 508.07,-569.98"/>
</a>
</g>
</g>
<!-- Node27 -->
<g id="Node000027" class="node">
<title>Node27</title>
<g id="a_Node000027"><a xlink:href="Game_8cpp.html#a42f23077aaa52cb3ea5c7803b7dd6816" target="_top" xlink:title=" ">
<polygon fill="white" stroke="#666666" points="605,-552 499,-552 499,-533 605,-533 605,-552"/>
<text text-anchor="middle" x="552" y="-540" font-family="Helvetica,sans-Serif" font-size="10.00">CM_AddBaseActor</text>
</a>
</g>
</g>
<!-- Node3&#45;&gt;Node27 -->
<g id="edge26_Node000003_Node000027" class="edge">
<title>Node3&#45;&gt;Node27</title>
<g id="a_edge26_Node000003_Node000027"><a xlink:title=" ">
<path fill="none" stroke="#63b8ff" d="M432.2,-515.03C452.84,-519.8 478.02,-525.62 499.88,-530.68"/>
<polygon fill="#63b8ff" stroke="#63b8ff" points="499.13,-534.1 509.66,-532.94 500.7,-527.28 499.13,-534.1"/>
</a>
</g>
</g>
<!-- Node28 -->
<g id="Node000028" class="node">
<title>Node28</title>
<g id="a_Node000028"><a xlink:href="Game_8cpp.html#a0841ffe9a66e95aca42438b9d8ffc3d3" target="_top" xlink:title=" ">
<polygon fill="white" stroke="#666666" points="602.5,-515 501.5,-515 501.5,-496 602.5,-496 602.5,-515"/>
<text text-anchor="middle" x="552" y="-503" font-family="Helvetica,sans-Serif" font-size="10.00">CM_GetActorSize</text>
</a>
</g>
</g>
<!-- Node3&#45;&gt;Node28 -->
<g id="edge27_Node000003_Node000028" class="edge">
<title>Node3&#45;&gt;Node28</title>
<g id="a_edge27_Node000003_Node000028"><a xlink:title=" ">
<path fill="none" stroke="#63b8ff" d="M460.25,-505.5C470.53,-505.5 481.05,-505.5 491.12,-505.5"/>
<polygon fill="#63b8ff" stroke="#63b8ff" points="491.41,-509 501.41,-505.5 491.41,-502 491.41,-509"/>
</a>
</g>
</g>
<!-- Node4&#45;&gt;Node5 -->
<g id="edge4_Node000004_Node000005" class="edge">
<title>Node4&#45;&gt;Node5</title>
<g id="a_edge4_Node000004_Node000005"><a xlink:title=" ">
<path fill="none" stroke="#63b8ff" d="M583.21,-473.55C592.17,-476.36 601.35,-480.72 608,-487.5 644.32,-524.52 614.77,-555.66 644,-598.5 655.58,-615.47 673.63,-630.07 688.44,-640.24"/>
<polygon fill="#63b8ff" stroke="#63b8ff" points="686.88,-643.4 697.15,-645.98 690.73,-637.55 686.88,-643.4"/>
</a>
</g>
</g>
<!-- Node9 -->
<g id="Node000009" class="node">
<title>Node9</title>
<g id="a_Node000009"><a xlink:href="actors_8c.html#a1a9bccb586242555a9123ebd4ab70f2a" target="_top" xlink:title=" ">
<polygon fill="white" stroke="#666666" points="780.5,-589.5 648.5,-589.5 648.5,-559.5 780.5,-559.5 780.5,-589.5"/>
<text text-anchor="start" x="656.5" y="-577.5" font-family="Helvetica,sans-Serif" font-size="10.00">cleanup_red_and_green</text>
<text text-anchor="middle" x="714.5" y="-566.5" font-family="Helvetica,sans-Serif" font-size="10.00">_shells</text>
</a>
</g>
</g>
<!-- Node4&#45;&gt;Node9 -->
<g id="edge8_Node000004_Node000009" class="edge">
<title>Node4&#45;&gt;Node9</title>
<g id="a_edge8_Node000004_Node000009"><a xlink:title=" ">
<path fill="none" stroke="#63b8ff" d="M583.27,-474.69C591.93,-477.54 600.92,-481.63 608,-487.5 632.83,-508.08 619.17,-529.92 644,-550.5 645.55,-551.78 647.17,-553 648.85,-554.15"/>
<polygon fill="#63b8ff" stroke="#63b8ff" points="647.27,-557.29 657.65,-559.4 650.85,-551.27 647.27,-557.29"/>
</a>
</g>
</g>
<!-- Node22 -->
<g id="Node000022" class="node">
<title>Node22</title>
<g id="a_Node000022"><a xlink:href="collision_8c.html#ad72fef3ffe32191d73b1822f512ebf3f" target="_top" xlink:title=" ">
<polygon fill="white" stroke="#666666" points="762,-541 667,-541 667,-522 762,-522 762,-541"/>
<text text-anchor="middle" x="714.5" y="-529" font-family="Helvetica,sans-Serif" font-size="10.00">func_802AAAAC</text>
</a>
</g>
</g>
<!-- Node4&#45;&gt;Node22 -->
<g id="edge21_Node000004_Node000022" class="edge">
<title>Node4&#45;&gt;Node22</title>
<g id="a_edge21_Node000004_Node000022"><a xlink:title=" ">
<path fill="none" stroke="#63b8ff" d="M583.06,-477.11C591.35,-479.96 600.2,-483.45 608,-487.5 625.51,-496.6 626.14,-505.1 644,-513.5 648.11,-515.43 652.45,-517.18 656.89,-518.75"/>
<polygon fill="#63b8ff" stroke="#63b8ff" points="656.08,-522.17 666.67,-521.93 658.24,-515.51 656.08,-522.17"/>
</a>
</g>
</g>
<!-- Node24 -->
<g id="Node000024" class="node">
<title>Node24</title>
<g id="a_Node000024"><a xlink:href="math__util_8c.html#af7b470ed76fce07b8042a47c96e5690b" target="_top" xlink:title=" ">
<polygon fill="white" stroke="#666666" points="768,-504 661,-504 661,-485 768,-485 768,-504"/>
<text text-anchor="middle" x="714.5" y="-492" font-family="Helvetica,sans-Serif" font-size="10.00">vec3f_copy_return</text>
</a>
</g>
</g>
<!-- Node4&#45;&gt;Node24 -->
<g id="edge23_Node000004_Node000024" class="edge">
<title>Node4&#45;&gt;Node24</title>
<g id="a_edge23_Node000004_Node000024"><a xlink:title=" ">
<path fill="none" stroke="#63b8ff" d="M583.19,-473.39C602.17,-476.47 627.38,-480.55 650.56,-484.3"/>
<polygon fill="#63b8ff" stroke="#63b8ff" points="650.27,-487.8 660.7,-485.95 651.38,-480.89 650.27,-487.8"/>
</a>
</g>
</g>
<!-- Node25 -->
<g id="Node000025" class="node">
<title>Node25</title>
<g id="a_Node000025"><a xlink:href="math__util_8c.html#a0e270ee67600c8c9c2f140c647d008a1" target="_top" xlink:title=" ">
<polygon fill="white" stroke="#666666" points="751.5,-467 677.5,-467 677.5,-448 751.5,-448 751.5,-467"/>
<text text-anchor="middle" x="714.5" y="-455" font-family="Helvetica,sans-Serif" font-size="10.00">vec3s_copy</text>
</a>
</g>
</g>
<!-- Node4&#45;&gt;Node25 -->
<g id="edge24_Node000004_Node000025" class="edge">
<title>Node4&#45;&gt;Node25</title>
<g id="a_edge24_Node000004_Node000025"><a xlink:title=" ">
<path fill="none" stroke="#63b8ff" d="M583.19,-466.43C606.86,-464.81 640.21,-462.52 667.25,-460.67"/>
<polygon fill="#63b8ff" stroke="#63b8ff" points="667.53,-464.16 677.26,-459.98 667.05,-457.18 667.53,-464.16"/>
</a>
</g>
</g>
<!-- Node6 -->
<g id="Node000006" class="node">
<title>Node6</title>
<g id="a_Node000006"><a xlink:href="collision_8c.html#ac312bf382cb40752f6b790a99e7cdcb6" target="_top" xlink:title=" ">
<polygon fill="white" stroke="#666666" points="948,-732 840,-732 840,-713 948,-713 948,-732"/>
<text text-anchor="middle" x="894" y="-720" font-family="Helvetica,sans-Serif" font-size="10.00">check_collision_yx</text>
</a>
</g>
</g>
<!-- Node5&#45;&gt;Node6 -->
<g id="edge5_Node000005_Node000006" class="edge">
<title>Node5&#45;&gt;Node6</title>
<g id="a_edge5_Node000005_Node000006"><a xlink:title=" ">
<path fill="none" stroke="#63b8ff" d="M733.36,-665.07C754,-675.83 789.2,-693.26 821,-704.5 826.9,-706.59 833.15,-708.53 839.41,-710.31"/>
<polygon fill="#63b8ff" stroke="#63b8ff" points="838.63,-713.72 849.2,-712.96 840.47,-706.97 838.63,-713.72"/>
</a>
</g>
</g>
<!-- Node7 -->
<g id="Node000007" class="node">
<title>Node7</title>
<g id="a_Node000007"><a xlink:href="collision_8c.html#a4b48832a90e984536a0635a016ec4f28" target="_top" xlink:title=" ">
<polygon fill="white" stroke="#666666" points="947.5,-695 840.5,-695 840.5,-676 947.5,-676 947.5,-695"/>
<text text-anchor="middle" x="894" y="-683" font-family="Helvetica,sans-Serif" font-size="10.00">check_collision_zx</text>
</a>
</g>
</g>
<!-- Node5&#45;&gt;Node7 -->
<g id="edge6_Node000005_Node000007" class="edge">
<title>Node5&#45;&gt;Node7</title>
<g id="a_edge6_Node000005_Node000007"><a xlink:title=" ">
<path fill="none" stroke="#63b8ff" d="M772.15,-665.07C790.64,-668.2 811.28,-671.69 830.19,-674.88"/>
<polygon fill="#63b8ff" stroke="#63b8ff" points="829.76,-678.36 840.2,-676.58 830.93,-671.46 829.76,-678.36"/>
</a>
</g>
</g>
<!-- Node8 -->
<g id="Node000008" class="node">
<title>Node8</title>
<g id="a_Node000008"><a xlink:href="collision_8c.html#a21fef964ab48191a1c0341954ef27a40" target="_top" xlink:title=" ">
<polygon fill="white" stroke="#666666" points="947.5,-658 840.5,-658 840.5,-639 947.5,-639 947.5,-658"/>
<text text-anchor="middle" x="894" y="-646" font-family="Helvetica,sans-Serif" font-size="10.00">check_collision_zy</text>
</a>
</g>
</g>
<!-- Node5&#45;&gt;Node8 -->
<g id="edge7_Node000005_Node000008" class="edge">
<title>Node5&#45;&gt;Node8</title>
<g id="a_edge7_Node000005_Node000008"><a xlink:title=" ">
<path fill="none" stroke="#63b8ff" d="M785.14,-652.75C799.91,-652.17 815.43,-651.56 829.94,-650.99"/>
<polygon fill="#63b8ff" stroke="#63b8ff" points="830.45,-654.47 840.3,-650.58 830.17,-647.48 830.45,-654.47"/>
</a>
</g>
</g>
<!-- Node9&#45;&gt;Node10 -->
<g id="edge9_Node000009_Node000010" class="edge">
<title>Node9&#45;&gt;Node10</title>
<g id="a_edge9_Node000009_Node000010"><a xlink:title=" ">
<path fill="none" stroke="#63b8ff" d="M780.59,-588.07C801.57,-592.44 824.45,-597.21 844.06,-601.3"/>
<polygon fill="#63b8ff" stroke="#63b8ff" points="843.49,-604.75 853.99,-603.37 844.91,-597.9 843.49,-604.75"/>
</a>
</g>
</g>
<!-- Node11 -->
<g id="Node000011" class="node">
<title>Node11</title>
<g id="a_Node000011"><a xlink:href="code__80005FD0_8c.html#ad301b978cdd3c4cc190b10be050d51d8" target="_top" xlink:title=" ">
<polygon fill="white" stroke="#666666" points="967,-546.5 821,-546.5 821,-516.5 967,-516.5 967,-546.5"/>
<text text-anchor="start" x="829" y="-534.5" font-family="Helvetica,sans-Serif" font-size="10.00">delete_actor_in_unexpired</text>
<text text-anchor="middle" x="894" y="-523.5" font-family="Helvetica,sans-Serif" font-size="10.00">_actor_list</text>
</a>
</g>
</g>
<!-- Node9&#45;&gt;Node11 -->
<g id="edge10_Node000009_Node000011" class="edge">
<title>Node9&#45;&gt;Node11</title>
<g id="a_edge10_Node000009_Node000011"><a xlink:title=" ">
<path fill="none" stroke="#63b8ff" d="M777.58,-559.46C791.63,-556.06 806.67,-552.41 821.09,-548.92"/>
<polygon fill="#63b8ff" stroke="#63b8ff" points="822.06,-552.29 830.95,-546.53 820.41,-545.48 822.06,-552.29"/>
</a>
</g>
</g>
<!-- Node12 -->
<g id="Node000012" class="node">
<title>Node12</title>
<g id="a_Node000012"><a xlink:href="actors_8c.html#a694ec6ef7548b8618aeb35c038d3a9b9" target="_top" xlink:title=" ">
<polygon fill="white" stroke="#666666" points="935.5,-584 852.5,-584 852.5,-565 935.5,-565 935.5,-584"/>
<text text-anchor="middle" x="894" y="-572" font-family="Helvetica,sans-Serif" font-size="10.00">destroy_actor</text>
</a>
</g>
</g>
<!-- Node9&#45;&gt;Node12 -->
<g id="edge11_Node000009_Node000012" class="edge">
<title>Node9&#45;&gt;Node12</title>
<g id="a_edge11_Node000009_Node000012"><a xlink:title=" ">
<path fill="none" stroke="#63b8ff" d="M780.59,-574.5C800.97,-574.5 823.14,-574.5 842.37,-574.5"/>
<polygon fill="#63b8ff" stroke="#63b8ff" points="842.43,-578 852.43,-574.5 842.43,-571 842.43,-578"/>
</a>
</g>
</g>
<!-- Node13 -->
<g id="Node000013" class="node">
<title>Node13</title>
<g id="a_Node000013"><a xlink:href="actors_8c.html#a12dc3ccac4c7d8569eadac0af4fd6f9f" target="_top" xlink:title=" ">
<polygon fill="white" stroke="#666666" points="1161,-584 1003,-584 1003,-565 1161,-565 1161,-584"/>
<text text-anchor="middle" x="1082" y="-572" font-family="Helvetica,sans-Serif" font-size="10.00">play_sound_before_despawn</text>
</a>
</g>
</g>
<!-- Node12&#45;&gt;Node13 -->
<g id="edge12_Node000012_Node000013" class="edge">
<title>Node12&#45;&gt;Node13</title>
<g id="a_edge12_Node000012_Node000013"><a xlink:title=" ">
<path fill="none" stroke="#63b8ff" d="M935.82,-574.5C952.65,-574.5 972.86,-574.5 992.77,-574.5"/>
<polygon fill="#63b8ff" stroke="#63b8ff" points="992.82,-578 1002.82,-574.5 992.82,-571 992.82,-578"/>
</a>
</g>
</g>
<!-- Node14 -->
<g id="Node000014" class="node">
<title>Node14</title>
<g id="a_Node000014"><a xlink:href="external_8c.html#ae72057869772019e4464c87d4e16c682" target="_top" xlink:title=" ">
<polygon fill="white" stroke="#666666" points="1289,-584 1197,-584 1197,-565 1289,-565 1289,-584"/>
<text text-anchor="middle" x="1243" y="-572" font-family="Helvetica,sans-Serif" font-size="10.00">func_800C99E0</text>
</a>
</g>
</g>
<!-- Node13&#45;&gt;Node14 -->
<g id="edge13_Node000013_Node000014" class="edge">
<title>Node13&#45;&gt;Node14</title>
<g id="a_edge13_Node000013_Node000014"><a xlink:title=" ">
<path fill="none" stroke="#63b8ff" d="M1161.1,-574.5C1169.72,-574.5 1178.35,-574.5 1186.61,-574.5"/>
<polygon fill="#63b8ff" stroke="#63b8ff" points="1186.83,-578 1196.83,-574.5 1186.83,-571 1186.83,-578"/>
</a>
</g>
</g>
<!-- Node15 -->
<g id="Node000015" class="node">
<title>Node15</title>
<g id="a_Node000015"><a xlink:href="external_8c.html#aeb87c527482a244173df36a1f3d4f446" target="_top" xlink:title=" ">
<polygon fill="white" stroke="#666666" points="1417,-603 1325,-603 1325,-584 1417,-584 1417,-603"/>
<text text-anchor="middle" x="1371" y="-591" font-family="Helvetica,sans-Serif" font-size="10.00">func_800C21E8</text>
</a>
</g>
</g>
<!-- Node14&#45;&gt;Node15 -->
<g id="edge14_Node000014_Node000015" class="edge">
<title>Node14&#45;&gt;Node15</title>
<g id="a_edge14_Node000014_Node000015"><a xlink:title=" ">
<path fill="none" stroke="#63b8ff" d="M1289.13,-581.31C1297.46,-582.56 1306.23,-583.88 1314.81,-585.18"/>
<polygon fill="#63b8ff" stroke="#63b8ff" points="1314.35,-588.65 1324.76,-586.68 1315.39,-581.73 1314.35,-588.65"/>
</a>
</g>
</g>
<!-- Node16 -->
<g id="Node000016" class="node">
<title>Node16</title>
<g id="a_Node000016"><a xlink:href="external_8c.html#a028d40421b90c38f68ebfd5acc626f2e" target="_top" xlink:title=" ">
<polygon fill="white" stroke="#666666" points="1417,-566 1325,-566 1325,-547 1417,-547 1417,-566"/>
<text text-anchor="middle" x="1371" y="-554" font-family="Helvetica,sans-Serif" font-size="10.00">func_800C5578</text>
</a>
</g>
</g>
<!-- Node14&#45;&gt;Node16 -->
<g id="edge15_Node000014_Node000016" class="edge">
<title>Node14&#45;&gt;Node16</title>
<g id="a_edge15_Node000014_Node000016"><a xlink:title=" ">
<path fill="none" stroke="#63b8ff" d="M1289.13,-568.05C1297.46,-566.86 1306.23,-565.61 1314.81,-564.38"/>
<polygon fill="#63b8ff" stroke="#63b8ff" points="1315.35,-567.84 1324.76,-562.96 1314.36,-560.91 1315.35,-567.84"/>
</a>
</g>
</g>
<!-- Node17 -->
<g id="Node000017" class="node">
<title>Node17</title>
<g id="a_Node000017"><a xlink:href="external_8c.html#ac0fb767de7e14a03f1bcfa53f0abd23b" target="_top" xlink:title=" ">
<polygon fill="white" stroke="#666666" points="1593,-603 1453,-603 1453,-584 1593,-584 1593,-603"/>
<text text-anchor="middle" x="1523" y="-591" font-family="Helvetica,sans-Serif" font-size="10.00">delete_sound_from_bank</text>
</a>
</g>
</g>
<!-- Node16&#45;&gt;Node17 -->
<g id="edge16_Node000016_Node000017" class="edge">
<title>Node16&#45;&gt;Node17</title>
<g id="a_edge16_Node000016_Node000017"><a xlink:title=" ">
<path fill="none" stroke="#63b8ff" d="M1410.63,-566.03C1429.8,-570.76 1453.16,-576.52 1473.52,-581.54"/>
<polygon fill="#63b8ff" stroke="#63b8ff" points="1472.69,-584.94 1483.24,-583.94 1474.37,-578.15 1472.69,-584.94"/>
</a>
</g>
</g>
<!-- Node19 -->
<g id="Node000019" class="node">
<title>Node19</title>
<g id="a_Node000019"><a xlink:href="external_8c.html#ab83bd36e63f0f1baddcb2482b5ad31b0" target="_top" xlink:title=" ">
<polygon fill="white" stroke="#666666" points="1569.5,-566 1476.5,-566 1476.5,-547 1569.5,-547 1569.5,-566"/>
<text text-anchor="middle" x="1523" y="-554" font-family="Helvetica,sans-Serif" font-size="10.00">func_800C41CC</text>
</a>
</g>
</g>
<!-- Node16&#45;&gt;Node19 -->
<g id="edge18_Node000016_Node000019" class="edge">
<title>Node16&#45;&gt;Node19</title>
<g id="a_edge18_Node000016_Node000019"><a xlink:title=" ">
<path fill="none" stroke="#63b8ff" d="M1417,-556.5C1432.37,-556.5 1449.74,-556.5 1465.86,-556.5"/>
<polygon fill="#63b8ff" stroke="#63b8ff" points="1466.25,-560 1476.25,-556.5 1466.25,-553 1466.25,-560"/>
</a>
</g>
</g>
<!-- Node20 -->
<g id="Node000020" class="node">
<title>Node20</title>
<g id="a_Node000020"><a xlink:href="port__eu_8c.html#aa89dfaecca46c6d071f08c1898d1f7c9" target="_top" xlink:title=" ">
<polygon fill="white" stroke="#666666" points="1569.5,-529 1476.5,-529 1476.5,-510 1569.5,-510 1569.5,-529"/>
<text text-anchor="middle" x="1523" y="-517" font-family="Helvetica,sans-Serif" font-size="10.00">func_800CBBE8</text>
</a>
</g>
</g>
<!-- Node16&#45;&gt;Node20 -->
<g id="edge19_Node000016_Node000020" class="edge">
<title>Node16&#45;&gt;Node20</title>
<g id="a_edge19_Node000016_Node000020"><a xlink:title=" ">
<path fill="none" stroke="#63b8ff" d="M1410.63,-546.97C1429.8,-542.24 1453.16,-536.48 1473.52,-531.46"/>
<polygon fill="#63b8ff" stroke="#63b8ff" points="1474.37,-534.85 1483.24,-529.06 1472.69,-528.06 1474.37,-534.85"/>
</a>
</g>
</g>
<!-- Node18 -->
<g id="Node000018" class="node">
<title>Node18</title>
<g id="a_Node000018"><a xlink:href="external_8c.html#a358ac55e8ab5262dcae8037334be06d7" target="_top" xlink:title=" ">
<polygon fill="white" stroke="#666666" points="1721.5,-603 1629.5,-603 1629.5,-584 1721.5,-584 1721.5,-603"/>
<text text-anchor="middle" x="1675.5" y="-591" font-family="Helvetica,sans-Serif" font-size="10.00">func_800C40F0</text>
</a>
</g>
</g>
<!-- Node17&#45;&gt;Node18 -->
<g id="edge17_Node000017_Node000018" class="edge">
<title>Node17&#45;&gt;Node18</title>
<g id="a_edge17_Node000017_Node000018"><a xlink:title=" ">
<path fill="none" stroke="#63b8ff" d="M1593.08,-593.5C1601.87,-593.5 1610.78,-593.5 1619.31,-593.5"/>
<polygon fill="#63b8ff" stroke="#63b8ff" points="1619.5,-597 1629.5,-593.5 1619.5,-590 1619.5,-597"/>
</a>
</g>
</g>
<!-- Node21 -->
<g id="Node000021" class="node">
<title>Node21</title>
<g id="a_Node000021"><a xlink:href="port__eu_8c.html#af361a20d2e08f30c53a237ca481ff734" target="_top" xlink:title=" ">
<polygon fill="white" stroke="#666666" points="1722,-529 1629,-529 1629,-510 1722,-510 1722,-529"/>
<text text-anchor="middle" x="1675.5" y="-517" font-family="Helvetica,sans-Serif" font-size="10.00">func_800CBB48</text>
</a>
</g>
</g>
<!-- Node20&#45;&gt;Node21 -->
<g id="edge20_Node000020_Node000021" class="edge">
<title>Node20&#45;&gt;Node21</title>
<g id="a_edge20_Node000020_Node000021"><a xlink:title=" ">
<path fill="none" stroke="#63b8ff" d="M1569.56,-519.5C1584.96,-519.5 1602.34,-519.5 1618.46,-519.5"/>
<polygon fill="#63b8ff" stroke="#63b8ff" points="1618.83,-523 1628.83,-519.5 1618.83,-516 1618.83,-523"/>
</a>
</g>
</g>
<!-- Node22&#45;&gt;Node23 -->
<g id="edge22_Node000022_Node000023" class="edge">
<title>Node22&#45;&gt;Node23</title>
<g id="a_edge22_Node000022_Node000023"><a xlink:title=" ">
<path fill="none" stroke="#63b8ff" d="M759.04,-521.99C767.76,-519.59 776.77,-516.76 785,-513.5 815.46,-501.45 848.17,-482.67 869.51,-469.55"/>
<polygon fill="#63b8ff" stroke="#63b8ff" points="871.56,-472.39 878.2,-464.13 867.86,-466.45 871.56,-472.39"/>
</a>
</g>
</g>
<!-- Node31&#45;&gt;Node30 -->
<g id="edge35_Node000031_Node000030" class="edge">
<title>Node31&#45;&gt;Node30</title>
<g id="a_edge35_Node000031_Node000030"><a xlink:title=" ">
<path fill="none" stroke="#63b8ff" d="M431.37,-315.09C452.49,-320.1 478.53,-326.29 500.92,-331.61"/>
<polygon fill="#63b8ff" stroke="#63b8ff" points="500.38,-335.07 510.92,-333.98 501.99,-328.26 500.38,-335.07"/>
</a>
</g>
</g>
<!-- Node32 -->
<g id="Node000032" class="node">
<title>Node32</title>
<g id="a_Node000032"><a xlink:href="math__util_8c.html#aaa39a297477f56051975259f4bddd829" target="_top" xlink:title=" ">
<polygon fill="white" stroke="#666666" points="577,-315 527,-315 527,-296 577,-296 577,-315"/>
<text text-anchor="middle" x="552" y="-303" font-family="Helvetica,sans-Serif" font-size="10.00">atan2s</text>
</a>
</g>
</g>
<!-- Node31&#45;&gt;Node32 -->
<g id="edge33_Node000031_Node000032" class="edge">
<title>Node31&#45;&gt;Node32</title>
<g id="a_edge33_Node000031_Node000032"><a xlink:title=" ">
<path fill="none" stroke="#63b8ff" d="M436.42,-305.5C461.9,-305.5 493.17,-305.5 516.6,-305.5"/>
<polygon fill="#63b8ff" stroke="#63b8ff" points="516.77,-309 526.77,-305.5 516.77,-302 516.77,-309"/>
</a>
</g>
</g>
<!-- Node33 -->
<g id="Node000033" class="node">
<title>Node33</title>
<g id="a_Node000033"><a xlink:href="math__util_8c.html#a0273b0ea0783a06996c28669a7438ed9" target="_top" xlink:title=" ">
<polygon fill="white" stroke="#666666" points="755.5,-315 673.5,-315 673.5,-296 755.5,-296 755.5,-315"/>
<text text-anchor="middle" x="714.5" y="-303" font-family="Helvetica,sans-Serif" font-size="10.00">atan2_lookup</text>
</a>
</g>
</g>
<!-- Node32&#45;&gt;Node33 -->
<g id="edge34_Node000032_Node000033" class="edge">
<title>Node32&#45;&gt;Node33</title>
<g id="a_edge34_Node000032_Node000033"><a xlink:title=" ">
<path fill="none" stroke="#63b8ff" d="M577.03,-305.5C599.69,-305.5 634.38,-305.5 663.11,-305.5"/>
<polygon fill="#63b8ff" stroke="#63b8ff" points="663.39,-309 673.39,-305.5 663.39,-302 663.39,-309"/>
</a>
</g>
</g>
</g>
</svg>
