<?xml version="1.0" encoding="UTF-8" standalone="no"?>
<!DOCTYPE svg PUBLIC "-//W3C//DTD SVG 1.1//EN"
 "http://www.w3.org/Graphics/SVG/1.1/DTD/svg11.dtd">
<!-- Generated by graphviz version 2.43.0 (0)
 -->
<!-- Title: MooMooFarm::CreditsSpawnActors Pages: 1 -->
<svg width="1724pt" height="740pt"
 viewBox="0.00 0.00 1724.00 740.00" xmlns="http://www.w3.org/2000/svg" xmlns:xlink="http://www.w3.org/1999/xlink">
<g id="graph0" class="graph" transform="scale(1 1) rotate(0) translate(4 736)">
<title>MooMooFarm::CreditsSpawnActors</title>
<!-- Node1 -->
<g id="Node000001" class="node">
<title>Node1</title>
<g id="a_Node000001"><a xlink:title=" ">
<polygon fill="#999999" stroke="#666666" points="155,-283.5 0,-283.5 0,-253.5 155,-253.5 155,-283.5"/>
<text text-anchor="start" x="8" y="-271.5" font-family="Helvetica,sans-Serif" font-size="10.00">MooMooFarm::CreditsSpawn</text>
<text text-anchor="middle" x="77.5" y="-260.5" font-family="Helvetica,sans-Serif" font-size="10.00">Actors</text>
</a>
</g>
</g>
<!-- Node2 -->
<g id="Node000002" class="node">
<title>Node2</title>
<g id="a_Node000002"><a xlink:href="actors_8c.html#aa6c218ad25d2200bdbf85cbbd197d1cd" target="_top" xlink:title=" ">
<polygon fill="white" stroke="#666666" points="278,-278 191,-278 191,-259 278,-259 278,-278"/>
<text text-anchor="middle" x="234.5" y="-266" font-family="Helvetica,sans-Serif" font-size="10.00">spawn_foliage</text>
</a>
</g>
</g>
<!-- Node1&#45;&gt;Node2 -->
<g id="edge1_Node000001_Node000002" class="edge">
<title>Node1&#45;&gt;Node2</title>
<g id="a_edge1_Node000001_Node000002"><a xlink:title=" ">
<path fill="none" stroke="#63b8ff" d="M155.09,-268.5C163.78,-268.5 172.48,-268.5 180.76,-268.5"/>
<polygon fill="#63b8ff" stroke="#63b8ff" points="181,-272 191,-268.5 181,-265 181,-272"/>
</a>
</g>
</g>
<!-- Node3 -->
<g id="Node000003" class="node">
<title>Node3</title>
<g id="a_Node000003"><a xlink:href="actors_8c.html#a91fb2e4e37e7c72fea918fe2c1bb4eaf" target="_top" xlink:title=" ">
<polygon fill="white" stroke="#666666" points="454,-515 314,-515 314,-496 454,-496 454,-515"/>
<text text-anchor="middle" x="384" y="-503" font-family="Helvetica,sans-Serif" font-size="10.00">add_actor_to_empty_slot</text>
</a>
</g>
</g>
<!-- Node2&#45;&gt;Node3 -->
<g id="edge2_Node000002_Node000003" class="edge">
<title>Node2&#45;&gt;Node3</title>
<g id="a_edge2_Node000002_Node000003"><a xlink:title=" ">
<path fill="none" stroke="#63b8ff" d="M238.93,-278.38C248.4,-304.93 276.7,-379.46 314,-433.5 328.52,-454.54 349.25,-475.26 364.19,-489.03"/>
<polygon fill="#63b8ff" stroke="#63b8ff" points="362.05,-491.82 371.82,-495.93 366.74,-486.63 362.05,-491.82"/>
</a>
</g>
</g>
<!-- Node5 -->
<g id="Node000005" class="node">
<title>Node5</title>
<g id="a_Node000005"><a xlink:href="collision_8c.html#a37aa55b3768d001533ad75e7f1b8388a" target="_top" xlink:title=" ">
<polygon fill="white" stroke="#666666" points="779,-665 638,-665 638,-646 779,-646 779,-665"/>
<text text-anchor="middle" x="708.5" y="-653" font-family="Helvetica,sans-Serif" font-size="10.00">check_bounding_collision</text>
</a>
</g>
</g>
<!-- Node2&#45;&gt;Node5 -->
<g id="edge29_Node000002_Node000005" class="edge">
<title>Node2&#45;&gt;Node5</title>
<g id="a_edge29_Node000002_Node000005"><a xlink:title=" ">
<path fill="none" stroke="#63b8ff" d="M236.07,-278.16C239.37,-330.89 257.98,-583.41 314,-631.5 413.9,-717.26 585.85,-687.69 665.16,-667.69"/>
<polygon fill="#63b8ff" stroke="#63b8ff" points="666.47,-670.96 675.27,-665.06 664.71,-664.19 666.47,-670.96"/>
</a>
</g>
</g>
<!-- Node10 -->
<g id="Node000010" class="node">
<title>Node10</title>
<g id="a_Node000010"><a xlink:href="Game_8cpp.html#a693de7d8b89fe291aafea86bc64a0a2e" target="_top" xlink:title=" ">
<polygon fill="white" stroke="#666666" points="928,-621 848,-621 848,-602 928,-602 928,-621"/>
<text text-anchor="middle" x="888" y="-609" font-family="Helvetica,sans-Serif" font-size="10.00">CM_GetActor</text>
</a>
</g>
</g>
<!-- Node2&#45;&gt;Node10 -->
<g id="edge30_Node000002_Node000010" class="edge">
<title>Node2&#45;&gt;Node10</title>
<g id="a_edge30_Node000002_Node000010"><a xlink:title=" ">
<path fill="none" stroke="#63b8ff" d="M235.66,-278.01C236.77,-314.71 245.56,-448.82 314,-524.5 370.91,-587.44 407.11,-580.37 490,-598.5 612.73,-625.35 761.84,-620.57 837.62,-615.58"/>
<polygon fill="#63b8ff" stroke="#63b8ff" points="838.08,-619.05 847.82,-614.88 837.6,-612.07 838.08,-619.05"/>
</a>
</g>
</g>
<!-- Node23 -->
<g id="Node000023" class="node">
<title>Node23</title>
<g id="a_Node000023"><a xlink:href="math__util_8c.html#a79fd07a0971ec96a3ff0801963a2fa7f" target="_top" xlink:title=" ">
<polygon fill="white" stroke="#666666" points="920,-464 856,-464 856,-445 920,-445 920,-464"/>
<text text-anchor="middle" x="888" y="-452" font-family="Helvetica,sans-Serif" font-size="10.00">vec3f_set</text>
</a>
</g>
</g>
<!-- Node2&#45;&gt;Node23 -->
<g id="edge44_Node000002_Node000023" class="edge">
<title>Node2&#45;&gt;Node23</title>
<g id="a_edge44_Node000002_Node000023"><a xlink:title=" ">
<path fill="none" stroke="#63b8ff" d="M237.98,-278.31C244.98,-303.65 267.43,-371.37 314,-400.5 401.91,-455.49 675.94,-428.03 779,-439.5 801.11,-441.96 825.68,-445.32 845.79,-448.24"/>
<polygon fill="#63b8ff" stroke="#63b8ff" points="845.46,-451.73 855.86,-449.72 846.48,-444.8 845.46,-451.73"/>
</a>
</g>
</g>
<!-- Node29 -->
<g id="Node000029" class="node">
<title>Node29</title>
<g id="a_Node000029"><a xlink:href="collision_8c.html#a6527a2135a10909cdf9a1fd731be5628" target="_top" xlink:title=" ">
<polygon fill="white" stroke="#666666" points="453,-391 315,-391 315,-372 453,-372 453,-391"/>
<text text-anchor="middle" x="384" y="-379" font-family="Helvetica,sans-Serif" font-size="10.00">calculate_surface_height</text>
</a>
</g>
</g>
<!-- Node2&#45;&gt;Node29 -->
<g id="edge28_Node000002_Node000029" class="edge">
<title>Node2&#45;&gt;Node29</title>
<g id="a_edge28_Node000002_Node000029"><a xlink:title=" ">
<path fill="none" stroke="#63b8ff" d="M241.61,-278.27C253.42,-296.41 281.16,-335.45 314,-357.5 320.3,-361.73 327.42,-365.29 334.64,-368.27"/>
<polygon fill="#63b8ff" stroke="#63b8ff" points="333.88,-371.72 344.47,-371.97 336.34,-365.17 333.88,-371.72"/>
</a>
</g>
</g>
<!-- Node30 -->
<g id="Node000030" class="node">
<title>Node30</title>
<g id="a_Node000030"><a xlink:href="actors_8c.html#a6fd7dc3bc34357287535b6f06ab7d85c" target="_top" xlink:title=" ">
<polygon fill="white" stroke="#666666" points="592,-353 500,-353 500,-334 592,-334 592,-353"/>
<text text-anchor="middle" x="546" y="-341" font-family="Helvetica,sans-Serif" font-size="10.00">func_802976D8</text>
</a>
</g>
</g>
<!-- Node2&#45;&gt;Node30 -->
<g id="edge31_Node000002_Node000030" class="edge">
<title>Node2&#45;&gt;Node30</title>
<g id="a_edge31_Node000002_Node000030"><a xlink:title=" ">
<path fill="none" stroke="#63b8ff" d="M245.64,-278.32C259.69,-291.25 286.48,-313.49 314,-323.5 371.27,-344.33 441.59,-347.51 489.5,-346.64"/>
<polygon fill="#63b8ff" stroke="#63b8ff" points="489.76,-350.14 499.67,-346.39 489.58,-343.14 489.76,-350.14"/>
</a>
</g>
</g>
<!-- Node31 -->
<g id="Node000031" class="node">
<title>Node31</title>
<g id="a_Node000031"><a xlink:href="actors_8c.html#a09d879c67b2c1430dd8ba2d5c9c136e1" target="_top" xlink:title=" ">
<polygon fill="white" stroke="#666666" points="430,-315 338,-315 338,-296 430,-296 430,-315"/>
<text text-anchor="middle" x="384" y="-303" font-family="Helvetica,sans-Serif" font-size="10.00">func_802976EC</text>
</a>
</g>
</g>
<!-- Node2&#45;&gt;Node31 -->
<g id="edge32_Node000002_Node000031" class="edge">
<title>Node2&#45;&gt;Node31</title>
<g id="a_edge32_Node000002_Node000031"><a xlink:title=" ">
<path fill="none" stroke="#63b8ff" d="M273.48,-278.03C292.25,-282.74 315.09,-288.47 335.05,-293.47"/>
<polygon fill="#63b8ff" stroke="#63b8ff" points="334.34,-296.9 344.89,-295.94 336.04,-290.11 334.34,-296.9"/>
</a>
</g>
</g>
<!-- Node34 -->
<g id="Node000034" class="node">
<title>Node34</title>
<g id="a_Node000034"><a xlink:href="Game_8cpp.html#a8ebd6a4d970e4333ab5a9dd66c3d9c48" target="_top" xlink:title=" ">
<polygon fill="white" stroke="#666666" points="432.5,-278 335.5,-278 335.5,-259 432.5,-259 432.5,-278"/>
<text text-anchor="middle" x="384" y="-266" font-family="Helvetica,sans-Serif" font-size="10.00">IsBowsersCastle</text>
</a>
</g>
</g>
<!-- Node2&#45;&gt;Node34 -->
<g id="edge36_Node000002_Node000034" class="edge">
<title>Node2&#45;&gt;Node34</title>
<g id="a_edge36_Node000002_Node000034"><a xlink:title=" ">
<path fill="none" stroke="#63b8ff" d="M278.16,-268.5C292.82,-268.5 309.48,-268.5 325.14,-268.5"/>
<polygon fill="#63b8ff" stroke="#63b8ff" points="325.25,-272 335.25,-268.5 325.25,-265 325.25,-272"/>
</a>
</g>
</g>
<!-- Node35 -->
<g id="Node000035" class="node">
<title>Node35</title>
<g id="a_Node000035"><a xlink:href="Game_8cpp.html#af4bf996258124d6741c70e4fa918ef03" target="_top" xlink:title=" ">
<polygon fill="white" stroke="#666666" points="436.5,-241 331.5,-241 331.5,-222 436.5,-222 436.5,-241"/>
<text text-anchor="middle" x="384" y="-229" font-family="Helvetica,sans-Serif" font-size="10.00">IsFrappeSnowland</text>
</a>
</g>
</g>
<!-- Node2&#45;&gt;Node35 -->
<g id="edge37_Node000002_Node000035" class="edge">
<title>Node2&#45;&gt;Node35</title>
<g id="a_edge37_Node000002_Node000035"><a xlink:title=" ">
<path fill="none" stroke="#63b8ff" d="M273.48,-258.97C292.25,-254.26 315.09,-248.53 335.05,-243.53"/>
<polygon fill="#63b8ff" stroke="#63b8ff" points="336.04,-246.89 344.89,-241.06 334.34,-240.1 336.04,-246.89"/>
</a>
</g>
</g>
<!-- Node36 -->
<g id="Node000036" class="node">
<title>Node36</title>
<g id="a_Node000036"><a xlink:href="Game_8cpp.html#ad474b8b257813cceeae25ab5205273c4" target="_top" xlink:title=" ">
<polygon fill="white" stroke="#666666" points="433,-204 335,-204 335,-185 433,-185 433,-204"/>
<text text-anchor="middle" x="384" y="-192" font-family="Helvetica,sans-Serif" font-size="10.00">IsKalimariDesert</text>
</a>
</g>
</g>
<!-- Node2&#45;&gt;Node36 -->
<g id="edge38_Node000002_Node000036" class="edge">
<title>Node2&#45;&gt;Node36</title>
<g id="a_edge38_Node000002_Node000036"><a xlink:title=" ">
<path fill="none" stroke="#63b8ff" d="M246.13,-258.96C260.52,-246.52 287.46,-224.91 314,-212.5 318.15,-210.56 322.54,-208.8 327.02,-207.22"/>
<polygon fill="#63b8ff" stroke="#63b8ff" points="328.46,-210.43 336.89,-204.02 326.3,-203.77 328.46,-210.43"/>
</a>
</g>
</g>
<!-- Node37 -->
<g id="Node000037" class="node">
<title>Node37</title>
<g id="a_Node000037"><a xlink:href="Game_8cpp.html#a2d7429dca77188f881bf1c340271ea90" target="_top" xlink:title=" ">
<polygon fill="white" stroke="#666666" points="430,-167 338,-167 338,-148 430,-148 430,-167"/>
<text text-anchor="middle" x="384" y="-155" font-family="Helvetica,sans-Serif" font-size="10.00">IsLuigiRaceway</text>
</a>
</g>
</g>
<!-- Node2&#45;&gt;Node37 -->
<g id="edge39_Node000002_Node000037" class="edge">
<title>Node2&#45;&gt;Node37</title>
<g id="a_edge39_Node000002_Node000037"><a xlink:title=" ">
<path fill="none" stroke="#63b8ff" d="M240.81,-258.92C251.84,-239.93 279.15,-197.47 314,-175.5 318.4,-172.72 323.22,-170.37 328.2,-168.39"/>
<polygon fill="#63b8ff" stroke="#63b8ff" points="329.62,-171.6 337.9,-164.99 327.31,-164.99 329.62,-171.6"/>
</a>
</g>
</g>
<!-- Node38 -->
<g id="Node000038" class="node">
<title>Node38</title>
<g id="a_Node000038"><a xlink:href="Game_8cpp.html#a591286b8b2219a8889cda4cc5d3b8c79" target="_top" xlink:title=" ">
<polygon fill="white" stroke="#666666" points="432.5,-130 335.5,-130 335.5,-111 432.5,-111 432.5,-130"/>
<text text-anchor="middle" x="384" y="-118" font-family="Helvetica,sans-Serif" font-size="10.00">IsMarioRaceway</text>
</a>
</g>
</g>
<!-- Node2&#45;&gt;Node38 -->
<g id="edge40_Node000002_Node000038" class="edge">
<title>Node2&#45;&gt;Node38</title>
<g id="a_edge40_Node000002_Node000038"><a xlink:title=" ">
<path fill="none" stroke="#63b8ff" d="M238.45,-258.93C246.41,-234.75 270.69,-170.84 314,-138.5 317.67,-135.76 321.72,-133.44 325.97,-131.46"/>
<polygon fill="#63b8ff" stroke="#63b8ff" points="327.49,-134.63 335.49,-127.69 324.91,-128.12 327.49,-134.63"/>
</a>
</g>
</g>
<!-- Node39 -->
<g id="Node000039" class="node">
<title>Node39</title>
<g id="a_Node000039"><a xlink:href="Game_8cpp.html#a8a295fe1e3fdfa50223813feaca6d7d6" target="_top" xlink:title=" ">
<polygon fill="white" stroke="#666666" points="429.5,-93 338.5,-93 338.5,-74 429.5,-74 429.5,-93"/>
<text text-anchor="middle" x="384" y="-81" font-family="Helvetica,sans-Serif" font-size="10.00">IsMooMooFarm</text>
</a>
</g>
</g>
<!-- Node2&#45;&gt;Node39 -->
<g id="edge41_Node000002_Node000039" class="edge">
<title>Node2&#45;&gt;Node39</title>
<g id="a_edge41_Node000002_Node000039"><a xlink:title=" ">
<path fill="none" stroke="#63b8ff" d="M237.1,-258.84C242.39,-230.14 262.01,-144.7 314,-101.5 318.34,-97.89 323.33,-95 328.6,-92.68"/>
<polygon fill="#63b8ff" stroke="#63b8ff" points="330.12,-95.84 338.29,-89.09 327.7,-89.28 330.12,-95.84"/>
</a>
</g>
</g>
<!-- Node40 -->
<g id="Node000040" class="node">
<title>Node40</title>
<g id="a_Node000040"><a xlink:href="Game_8cpp.html#afb0bb7b7bc2b816a7a9fbedcc6c41ab7" target="_top" xlink:title=" ">
<polygon fill="white" stroke="#666666" points="432.5,-56 335.5,-56 335.5,-37 432.5,-37 432.5,-56"/>
<text text-anchor="middle" x="384" y="-44" font-family="Helvetica,sans-Serif" font-size="10.00">IsRoyalRaceway</text>
</a>
</g>
</g>
<!-- Node2&#45;&gt;Node40 -->
<g id="edge42_Node000002_Node000040" class="edge">
<title>Node2&#45;&gt;Node40</title>
<g id="a_edge42_Node000002_Node000040"><a xlink:title=" ">
<path fill="none" stroke="#63b8ff" d="M236.21,-258.66C239.14,-225.8 253.17,-118.87 314,-64.5 317.62,-61.27 321.74,-58.6 326.14,-56.41"/>
<polygon fill="#63b8ff" stroke="#63b8ff" points="327.57,-59.6 335.46,-52.53 324.88,-53.14 327.57,-59.6"/>
</a>
</g>
</g>
<!-- Node41 -->
<g id="Node000041" class="node">
<title>Node41</title>
<g id="a_Node000041"><a xlink:href="Game_8cpp.html#ab05bb065469940f40a5023c58a8f9e7f" target="_top" xlink:title=" ">
<polygon fill="white" stroke="#666666" points="424,-19 344,-19 344,0 424,0 424,-19"/>
<text text-anchor="middle" x="384" y="-7" font-family="Helvetica,sans-Serif" font-size="10.00">IsYoshiValley</text>
</a>
</g>
</g>
<!-- Node2&#45;&gt;Node41 -->
<g id="edge43_Node000002_Node000041" class="edge">
<title>Node2&#45;&gt;Node41</title>
<g id="a_edge43_Node000002_Node000041"><a xlink:title=" ">
<path fill="none" stroke="#63b8ff" d="M235.55,-258.99C236.27,-222.97 243.85,-93.58 314,-27.5 319.58,-22.25 326.49,-18.48 333.76,-15.79"/>
<polygon fill="#63b8ff" stroke="#63b8ff" points="335.26,-19 343.82,-12.75 333.23,-12.3 335.26,-19"/>
</a>
</g>
</g>
<!-- Node4 -->
<g id="Node000004" class="node">
<title>Node4</title>
<g id="a_Node000004"><a xlink:href="actors_8c.html#a39c023177b5a7686cdd1fc65b8b953e1" target="_top" xlink:title=" ">
<polygon fill="white" stroke="#666666" points="577,-478 515,-478 515,-459 577,-459 577,-478"/>
<text text-anchor="middle" x="546" y="-466" font-family="Helvetica,sans-Serif" font-size="10.00">actor_init</text>
</a>
</g>
</g>
<!-- Node3&#45;&gt;Node4 -->
<g id="edge3_Node000003_Node000004" class="edge">
<title>Node3&#45;&gt;Node4</title>
<g id="a_edge3_Node000003_Node000004"><a xlink:title=" ">
<path fill="none" stroke="#63b8ff" d="M426.2,-495.97C450.43,-490.37 480.91,-483.32 504.94,-477.76"/>
<polygon fill="#63b8ff" stroke="#63b8ff" points="505.85,-481.15 514.8,-475.48 504.27,-474.33 505.85,-481.15"/>
</a>
</g>
</g>
<!-- Node26 -->
<g id="Node000026" class="node">
<title>Node26</title>
<g id="a_Node000026"><a xlink:href="Game_8cpp.html#acea5cfd9ab22f745bd6627869b95a62e" target="_top" xlink:title=" ">
<polygon fill="white" stroke="#666666" points="602,-589 490,-589 490,-570 602,-570 602,-589"/>
<text text-anchor="middle" x="546" y="-577" font-family="Helvetica,sans-Serif" font-size="10.00">CM_ActorBeginPlay</text>
</a>
</g>
</g>
<!-- Node3&#45;&gt;Node26 -->
<g id="edge25_Node000003_Node000026" class="edge">
<title>Node3&#45;&gt;Node26</title>
<g id="a_edge25_Node000003_Node000026"><a xlink:title=" ">
<path fill="none" stroke="#63b8ff" d="M400.94,-515.13C421.15,-527.07 457.31,-547.56 490,-561.5 494.17,-563.28 498.57,-564.99 503,-566.6"/>
<polygon fill="#63b8ff" stroke="#63b8ff" points="502.07,-569.98 512.66,-569.95 504.36,-563.36 502.07,-569.98"/>
</a>
</g>
</g>
<!-- Node27 -->
<g id="Node000027" class="node">
<title>Node27</title>
<g id="a_Node000027"><a xlink:href="Game_8cpp.html#a42f23077aaa52cb3ea5c7803b7dd6816" target="_top" xlink:title=" ">
<polygon fill="white" stroke="#666666" points="599,-552 493,-552 493,-533 599,-533 599,-552"/>
<text text-anchor="middle" x="546" y="-540" font-family="Helvetica,sans-Serif" font-size="10.00">CM_AddBaseActor</text>
</a>
</g>
</g>
<!-- Node3&#45;&gt;Node27 -->
<g id="edge26_Node000003_Node000027" class="edge">
<title>Node3&#45;&gt;Node27</title>
<g id="a_edge26_Node000003_Node000027"><a xlink:title=" ">
<path fill="none" stroke="#63b8ff" d="M426.2,-515.03C446.84,-519.8 472.02,-525.62 493.88,-530.68"/>
<polygon fill="#63b8ff" stroke="#63b8ff" points="493.13,-534.1 503.66,-532.94 494.7,-527.28 493.13,-534.1"/>
</a>
</g>
</g>
<!-- Node28 -->
<g id="Node000028" class="node">
<title>Node28</title>
<g id="a_Node000028"><a xlink:href="Game_8cpp.html#a0841ffe9a66e95aca42438b9d8ffc3d3" target="_top" xlink:title=" ">
<polygon fill="white" stroke="#666666" points="596.5,-515 495.5,-515 495.5,-496 596.5,-496 596.5,-515"/>
<text text-anchor="middle" x="546" y="-503" font-family="Helvetica,sans-Serif" font-size="10.00">CM_GetActorSize</text>
</a>
</g>
</g>
<!-- Node3&#45;&gt;Node28 -->
<g id="edge27_Node000003_Node000028" class="edge">
<title>Node3&#45;&gt;Node28</title>
<g id="a_edge27_Node000003_Node000028"><a xlink:title=" ">
<path fill="none" stroke="#63b8ff" d="M454.25,-505.5C464.53,-505.5 475.05,-505.5 485.12,-505.5"/>
<polygon fill="#63b8ff" stroke="#63b8ff" points="485.41,-509 495.41,-505.5 485.41,-502 485.41,-509"/>
</a>
</g>
</g>
<!-- Node4&#45;&gt;Node5 -->
<g id="edge4_Node000004_Node000005" class="edge">
<title>Node4&#45;&gt;Node5</title>
<g id="a_edge4_Node000004_Node000005"><a xlink:title=" ">
<path fill="none" stroke="#63b8ff" d="M577.21,-473.55C586.17,-476.36 595.35,-480.72 602,-487.5 638.32,-524.52 608.77,-555.66 638,-598.5 649.58,-615.47 667.63,-630.07 682.44,-640.24"/>
<polygon fill="#63b8ff" stroke="#63b8ff" points="680.88,-643.4 691.15,-645.98 684.73,-637.55 680.88,-643.4"/>
</a>
</g>
</g>
<!-- Node9 -->
<g id="Node000009" class="node">
<title>Node9</title>
<g id="a_Node000009"><a xlink:href="actors_8c.html#a1a9bccb586242555a9123ebd4ab70f2a" target="_top" xlink:title=" ">
<polygon fill="white" stroke="#666666" points="774.5,-589.5 642.5,-589.5 642.5,-559.5 774.5,-559.5 774.5,-589.5"/>
<text text-anchor="start" x="650.5" y="-577.5" font-family="Helvetica,sans-Serif" font-size="10.00">cleanup_red_and_green</text>
<text text-anchor="middle" x="708.5" y="-566.5" font-family="Helvetica,sans-Serif" font-size="10.00">_shells</text>
</a>
</g>
</g>
<!-- Node4&#45;&gt;Node9 -->
<g id="edge8_Node000004_Node000009" class="edge">
<title>Node4&#45;&gt;Node9</title>
<g id="a_edge8_Node000004_Node000009"><a xlink:title=" ">
<path fill="none" stroke="#63b8ff" d="M577.27,-474.69C585.93,-477.54 594.92,-481.63 602,-487.5 626.83,-508.08 613.17,-529.92 638,-550.5 639.55,-551.78 641.17,-553 642.85,-554.15"/>
<polygon fill="#63b8ff" stroke="#63b8ff" points="641.27,-557.29 651.65,-559.4 644.85,-551.27 641.27,-557.29"/>
</a>
</g>
</g>
<!-- Node22 -->
<g id="Node000022" class="node">
<title>Node22</title>
<g id="a_Node000022"><a xlink:href="collision_8c.html#ad72fef3ffe32191d73b1822f512ebf3f" target="_top" xlink:title=" ">
<polygon fill="white" stroke="#666666" points="756,-541 661,-541 661,-522 756,-522 756,-541"/>
<text text-anchor="middle" x="708.5" y="-529" font-family="Helvetica,sans-Serif" font-size="10.00">func_802AAAAC</text>
</a>
</g>
</g>
<!-- Node4&#45;&gt;Node22 -->
<g id="edge21_Node000004_Node000022" class="edge">
<title>Node4&#45;&gt;Node22</title>
<g id="a_edge21_Node000004_Node000022"><a xlink:title=" ">
<path fill="none" stroke="#63b8ff" d="M577.06,-477.11C585.35,-479.96 594.2,-483.45 602,-487.5 619.51,-496.6 620.14,-505.1 638,-513.5 642.11,-515.43 646.45,-517.18 650.89,-518.75"/>
<polygon fill="#63b8ff" stroke="#63b8ff" points="650.08,-522.17 660.67,-521.93 652.24,-515.51 650.08,-522.17"/>
</a>
</g>
</g>
<!-- Node24 -->
<g id="Node000024" class="node">
<title>Node24</title>
<g id="a_Node000024"><a xlink:href="math__util_8c.html#af7b470ed76fce07b8042a47c96e5690b" target="_top" xlink:title=" ">
<polygon fill="white" stroke="#666666" points="762,-504 655,-504 655,-485 762,-485 762,-504"/>
<text text-anchor="middle" x="708.5" y="-492" font-family="Helvetica,sans-Serif" font-size="10.00">vec3f_copy_return</text>
</a>
</g>
</g>
<!-- Node4&#45;&gt;Node24 -->
<g id="edge23_Node000004_Node000024" class="edge">
<title>Node4&#45;&gt;Node24</title>
<g id="a_edge23_Node000004_Node000024"><a xlink:title=" ">
<path fill="none" stroke="#63b8ff" d="M577.19,-473.39C596.17,-476.47 621.38,-480.55 644.56,-484.3"/>
<polygon fill="#63b8ff" stroke="#63b8ff" points="644.27,-487.8 654.7,-485.95 645.38,-480.89 644.27,-487.8"/>
</a>
</g>
</g>
<!-- Node25 -->
<g id="Node000025" class="node">
<title>Node25</title>
<g id="a_Node000025"><a xlink:href="math__util_8c.html#a0e270ee67600c8c9c2f140c647d008a1" target="_top" xlink:title=" ">
<polygon fill="white" stroke="#666666" points="745.5,-467 671.5,-467 671.5,-448 745.5,-448 745.5,-467"/>
<text text-anchor="middle" x="708.5" y="-455" font-family="Helvetica,sans-Serif" font-size="10.00">vec3s_copy</text>
</a>
</g>
</g>
<!-- Node4&#45;&gt;Node25 -->
<g id="edge24_Node000004_Node000025" class="edge">
<title>Node4&#45;&gt;Node25</title>
<g id="a_edge24_Node000004_Node000025"><a xlink:title=" ">
<path fill="none" stroke="#63b8ff" d="M577.19,-466.43C600.86,-464.81 634.21,-462.52 661.25,-460.67"/>
<polygon fill="#63b8ff" stroke="#63b8ff" points="661.53,-464.16 671.26,-459.98 661.05,-457.18 661.53,-464.16"/>
</a>
</g>
</g>
<!-- Node6 -->
<g id="Node000006" class="node">
<title>Node6</title>
<g id="a_Node000006"><a xlink:href="collision_8c.html#ac312bf382cb40752f6b790a99e7cdcb6" target="_top" xlink:title=" ">
<polygon fill="white" stroke="#666666" points="942,-732 834,-732 834,-713 942,-713 942,-732"/>
<text text-anchor="middle" x="888" y="-720" font-family="Helvetica,sans-Serif" font-size="10.00">check_collision_yx</text>
</a>
</g>
</g>
<!-- Node5&#45;&gt;Node6 -->
<g id="edge5_Node000005_Node000006" class="edge">
<title>Node5&#45;&gt;Node6</title>
<g id="a_edge5_Node000005_Node000006"><a xlink:title=" ">
<path fill="none" stroke="#63b8ff" d="M727.36,-665.07C748,-675.83 783.2,-693.26 815,-704.5 820.9,-706.59 827.15,-708.53 833.41,-710.31"/>
<polygon fill="#63b8ff" stroke="#63b8ff" points="832.63,-713.72 843.2,-712.96 834.47,-706.97 832.63,-713.72"/>
</a>
</g>
</g>
<!-- Node7 -->
<g id="Node000007" class="node">
<title>Node7</title>
<g id="a_Node000007"><a xlink:href="collision_8c.html#a4b48832a90e984536a0635a016ec4f28" target="_top" xlink:title=" ">
<polygon fill="white" stroke="#666666" points="941.5,-695 834.5,-695 834.5,-676 941.5,-676 941.5,-695"/>
<text text-anchor="middle" x="888" y="-683" font-family="Helvetica,sans-Serif" font-size="10.00">check_collision_zx</text>
</a>
</g>
</g>
<!-- Node5&#45;&gt;Node7 -->
<g id="edge6_Node000005_Node000007" class="edge">
<title>Node5&#45;&gt;Node7</title>
<g id="a_edge6_Node000005_Node000007"><a xlink:title=" ">
<path fill="none" stroke="#63b8ff" d="M766.15,-665.07C784.64,-668.2 805.28,-671.69 824.19,-674.88"/>
<polygon fill="#63b8ff" stroke="#63b8ff" points="823.76,-678.36 834.2,-676.58 824.93,-671.46 823.76,-678.36"/>
</a>
</g>
</g>
<!-- Node8 -->
<g id="Node000008" class="node">
<title>Node8</title>
<g id="a_Node000008"><a xlink:href="collision_8c.html#a21fef964ab48191a1c0341954ef27a40" target="_top" xlink:title=" ">
<polygon fill="white" stroke="#666666" points="941.5,-658 834.5,-658 834.5,-639 941.5,-639 941.5,-658"/>
<text text-anchor="middle" x="888" y="-646" font-family="Helvetica,sans-Serif" font-size="10.00">check_collision_zy</text>
</a>
</g>
</g>
<!-- Node5&#45;&gt;Node8 -->
<g id="edge7_Node000005_Node000008" class="edge">
<title>Node5&#45;&gt;Node8</title>
<g id="a_edge7_Node000005_Node000008"><a xlink:title=" ">
<path fill="none" stroke="#63b8ff" d="M779.14,-652.75C793.91,-652.17 809.43,-651.56 823.94,-650.99"/>
<polygon fill="#63b8ff" stroke="#63b8ff" points="824.45,-654.47 834.3,-650.58 824.17,-647.48 824.45,-654.47"/>
</a>
</g>
</g>
<!-- Node9&#45;&gt;Node10 -->
<g id="edge9_Node000009_Node000010" class="edge">
<title>Node9&#45;&gt;Node10</title>
<g id="a_edge9_Node000009_Node000010"><a xlink:title=" ">
<path fill="none" stroke="#63b8ff" d="M774.59,-588.07C795.57,-592.44 818.45,-597.21 838.06,-601.3"/>
<polygon fill="#63b8ff" stroke="#63b8ff" points="837.49,-604.75 847.99,-603.37 838.91,-597.9 837.49,-604.75"/>
</a>
</g>
</g>
<!-- Node11 -->
<g id="Node000011" class="node">
<title>Node11</title>
<g id="a_Node000011"><a xlink:href="code__80005FD0_8c.html#ad301b978cdd3c4cc190b10be050d51d8" target="_top" xlink:title=" ">
<polygon fill="white" stroke="#666666" points="961,-546.5 815,-546.5 815,-516.5 961,-516.5 961,-546.5"/>
<text text-anchor="start" x="823" y="-534.5" font-family="Helvetica,sans-Serif" font-size="10.00">delete_actor_in_unexpired</text>
<text text-anchor="middle" x="888" y="-523.5" font-family="Helvetica,sans-Serif" font-size="10.00">_actor_list</text>
</a>
</g>
</g>
<!-- Node9&#45;&gt;Node11 -->
<g id="edge10_Node000009_Node000011" class="edge">
<title>Node9&#45;&gt;Node11</title>
<g id="a_edge10_Node000009_Node000011"><a xlink:title=" ">
<path fill="none" stroke="#63b8ff" d="M771.58,-559.46C785.63,-556.06 800.67,-552.41 815.09,-548.92"/>
<polygon fill="#63b8ff" stroke="#63b8ff" points="816.06,-552.29 824.95,-546.53 814.41,-545.48 816.06,-552.29"/>
</a>
</g>
</g>
<!-- Node12 -->
<g id="Node000012" class="node">
<title>Node12</title>
<g id="a_Node000012"><a xlink:href="actors_8c.html#a694ec6ef7548b8618aeb35c038d3a9b9" target="_top" xlink:title=" ">
<polygon fill="white" stroke="#666666" points="929.5,-584 846.5,-584 846.5,-565 929.5,-565 929.5,-584"/>
<text text-anchor="middle" x="888" y="-572" font-family="Helvetica,sans-Serif" font-size="10.00">destroy_actor</text>
</a>
</g>
</g>
<!-- Node9&#45;&gt;Node12 -->
<g id="edge11_Node000009_Node000012" class="edge">
<title>Node9&#45;&gt;Node12</title>
<g id="a_edge11_Node000009_Node000012"><a xlink:title=" ">
<path fill="none" stroke="#63b8ff" d="M774.59,-574.5C794.97,-574.5 817.14,-574.5 836.37,-574.5"/>
<polygon fill="#63b8ff" stroke="#63b8ff" points="836.43,-578 846.43,-574.5 836.43,-571 836.43,-578"/>
</a>
</g>
</g>
<!-- Node13 -->
<g id="Node000013" class="node">
<title>Node13</title>
<g id="a_Node000013"><a xlink:href="actors_8c.html#a12dc3ccac4c7d8569eadac0af4fd6f9f" target="_top" xlink:title=" ">
<polygon fill="white" stroke="#666666" points="1155,-584 997,-584 997,-565 1155,-565 1155,-584"/>
<text text-anchor="middle" x="1076" y="-572" font-family="Helvetica,sans-Serif" font-size="10.00">play_sound_before_despawn</text>
</a>
</g>
</g>
<!-- Node12&#45;&gt;Node13 -->
<g id="edge12_Node000012_Node000013" class="edge">
<title>Node12&#45;&gt;Node13</title>
<g id="a_edge12_Node000012_Node000013"><a xlink:title=" ">
<path fill="none" stroke="#63b8ff" d="M929.82,-574.5C946.65,-574.5 966.86,-574.5 986.77,-574.5"/>
<polygon fill="#63b8ff" stroke="#63b8ff" points="986.82,-578 996.82,-574.5 986.82,-571 986.82,-578"/>
</a>
</g>
</g>
<!-- Node14 -->
<g id="Node000014" class="node">
<title>Node14</title>
<g id="a_Node000014"><a xlink:href="external_8c.html#ae72057869772019e4464c87d4e16c682" target="_top" xlink:title=" ">
<polygon fill="white" stroke="#666666" points="1283,-584 1191,-584 1191,-565 1283,-565 1283,-584"/>
<text text-anchor="middle" x="1237" y="-572" font-family="Helvetica,sans-Serif" font-size="10.00">func_800C99E0</text>
</a>
</g>
</g>
<!-- Node13&#45;&gt;Node14 -->
<g id="edge13_Node000013_Node000014" class="edge">
<title>Node13&#45;&gt;Node14</title>
<g id="a_edge13_Node000013_Node000014"><a xlink:title=" ">
<path fill="none" stroke="#63b8ff" d="M1155.1,-574.5C1163.72,-574.5 1172.35,-574.5 1180.61,-574.5"/>
<polygon fill="#63b8ff" stroke="#63b8ff" points="1180.83,-578 1190.83,-574.5 1180.83,-571 1180.83,-578"/>
</a>
</g>
</g>
<!-- Node15 -->
<g id="Node000015" class="node">
<title>Node15</title>
<g id="a_Node000015"><a xlink:href="external_8c.html#aeb87c527482a244173df36a1f3d4f446" target="_top" xlink:title=" ">
<polygon fill="white" stroke="#666666" points="1411,-603 1319,-603 1319,-584 1411,-584 1411,-603"/>
<text text-anchor="middle" x="1365" y="-591" font-family="Helvetica,sans-Serif" font-size="10.00">func_800C21E8</text>
</a>
</g>
</g>
<!-- Node14&#45;&gt;Node15 -->
<g id="edge14_Node000014_Node000015" class="edge">
<title>Node14&#45;&gt;Node15</title>
<g id="a_edge14_Node000014_Node000015"><a xlink:title=" ">
<path fill="none" stroke="#63b8ff" d="M1283.13,-581.31C1291.46,-582.56 1300.23,-583.88 1308.81,-585.18"/>
<polygon fill="#63b8ff" stroke="#63b8ff" points="1308.35,-588.65 1318.76,-586.68 1309.39,-581.73 1308.35,-588.65"/>
</a>
</g>
</g>
<!-- Node16 -->
<g id="Node000016" class="node">
<title>Node16</title>
<g id="a_Node000016"><a xlink:href="external_8c.html#a028d40421b90c38f68ebfd5acc626f2e" target="_top" xlink:title=" ">
<polygon fill="white" stroke="#666666" points="1411,-566 1319,-566 1319,-547 1411,-547 1411,-566"/>
<text text-anchor="middle" x="1365" y="-554" font-family="Helvetica,sans-Serif" font-size="10.00">func_800C5578</text>
</a>
</g>
</g>
<!-- Node14&#45;&gt;Node16 -->
<g id="edge15_Node000014_Node000016" class="edge">
<title>Node14&#45;&gt;Node16</title>
<g id="a_edge15_Node000014_Node000016"><a xlink:title=" ">
<path fill="none" stroke="#63b8ff" d="M1283.13,-568.05C1291.46,-566.86 1300.23,-565.61 1308.81,-564.38"/>
<polygon fill="#63b8ff" stroke="#63b8ff" points="1309.35,-567.84 1318.76,-562.96 1308.36,-560.91 1309.35,-567.84"/>
</a>
</g>
</g>
<!-- Node17 -->
<g id="Node000017" class="node">
<title>Node17</title>
<g id="a_Node000017"><a xlink:href="external_8c.html#ac0fb767de7e14a03f1bcfa53f0abd23b" target="_top" xlink:title=" ">
<polygon fill="white" stroke="#666666" points="1587,-603 1447,-603 1447,-584 1587,-584 1587,-603"/>
<text text-anchor="middle" x="1517" y="-591" font-family="Helvetica,sans-Serif" font-size="10.00">delete_sound_from_bank</text>
</a>
</g>
</g>
<!-- Node16&#45;&gt;Node17 -->
<g id="edge16_Node000016_Node000017" class="edge">
<title>Node16&#45;&gt;Node17</title>
<g id="a_edge16_Node000016_Node000017"><a xlink:title=" ">
<path fill="none" stroke="#63b8ff" d="M1404.63,-566.03C1423.8,-570.76 1447.16,-576.52 1467.52,-581.54"/>
<polygon fill="#63b8ff" stroke="#63b8ff" points="1466.69,-584.94 1477.24,-583.94 1468.37,-578.15 1466.69,-584.94"/>
</a>
</g>
</g>
<!-- Node19 -->
<g id="Node000019" class="node">
<title>Node19</title>
<g id="a_Node000019"><a xlink:href="external_8c.html#ab83bd36e63f0f1baddcb2482b5ad31b0" target="_top" xlink:title=" ">
<polygon fill="white" stroke="#666666" points="1563.5,-566 1470.5,-566 1470.5,-547 1563.5,-547 1563.5,-566"/>
<text text-anchor="middle" x="1517" y="-554" font-family="Helvetica,sans-Serif" font-size="10.00">func_800C41CC</text>
</a>
</g>
</g>
<!-- Node16&#45;&gt;Node19 -->
<g id="edge18_Node000016_Node000019" class="edge">
<title>Node16&#45;&gt;Node19</title>
<g id="a_edge18_Node000016_Node000019"><a xlink:title=" ">
<path fill="none" stroke="#63b8ff" d="M1411,-556.5C1426.37,-556.5 1443.74,-556.5 1459.86,-556.5"/>
<polygon fill="#63b8ff" stroke="#63b8ff" points="1460.25,-560 1470.25,-556.5 1460.25,-553 1460.25,-560"/>
</a>
</g>
</g>
<!-- Node20 -->
<g id="Node000020" class="node">
<title>Node20</title>
<g id="a_Node000020"><a xlink:href="port__eu_8c.html#aa89dfaecca46c6d071f08c1898d1f7c9" target="_top" xlink:title=" ">
<polygon fill="white" stroke="#666666" points="1563.5,-529 1470.5,-529 1470.5,-510 1563.5,-510 1563.5,-529"/>
<text text-anchor="middle" x="1517" y="-517" font-family="Helvetica,sans-Serif" font-size="10.00">func_800CBBE8</text>
</a>
</g>
</g>
<!-- Node16&#45;&gt;Node20 -->
<g id="edge19_Node000016_Node000020" class="edge">
<title>Node16&#45;&gt;Node20</title>
<g id="a_edge19_Node000016_Node000020"><a xlink:title=" ">
<path fill="none" stroke="#63b8ff" d="M1404.63,-546.97C1423.8,-542.24 1447.16,-536.48 1467.52,-531.46"/>
<polygon fill="#63b8ff" stroke="#63b8ff" points="1468.37,-534.85 1477.24,-529.06 1466.69,-528.06 1468.37,-534.85"/>
</a>
</g>
</g>
<!-- Node18 -->
<g id="Node000018" class="node">
<title>Node18</title>
<g id="a_Node000018"><a xlink:href="external_8c.html#a358ac55e8ab5262dcae8037334be06d7" target="_top" xlink:title=" ">
<polygon fill="white" stroke="#666666" points="1715.5,-603 1623.5,-603 1623.5,-584 1715.5,-584 1715.5,-603"/>
<text text-anchor="middle" x="1669.5" y="-591" font-family="Helvetica,sans-Serif" font-size="10.00">func_800C40F0</text>
</a>
</g>
</g>
<!-- Node17&#45;&gt;Node18 -->
<g id="edge17_Node000017_Node000018" class="edge">
<title>Node17&#45;&gt;Node18</title>
<g id="a_edge17_Node000017_Node000018"><a xlink:title=" ">
<path fill="none" stroke="#63b8ff" d="M1587.08,-593.5C1595.87,-593.5 1604.78,-593.5 1613.31,-593.5"/>
<polygon fill="#63b8ff" stroke="#63b8ff" points="1613.5,-597 1623.5,-593.5 1613.5,-590 1613.5,-597"/>
</a>
</g>
</g>
<!-- Node21 -->
<g id="Node000021" class="node">
<title>Node21</title>
<g id="a_Node000021"><a xlink:href="port__eu_8c.html#af361a20d2e08f30c53a237ca481ff734" target="_top" xlink:title=" ">
<polygon fill="white" stroke="#666666" points="1716,-529 1623,-529 1623,-510 1716,-510 1716,-529"/>
<text text-anchor="middle" x="1669.5" y="-517" font-family="Helvetica,sans-Serif" font-size="10.00">func_800CBB48</text>
</a>
</g>
</g>
<!-- Node20&#45;&gt;Node21 -->
<g id="edge20_Node000020_Node000021" class="edge">
<title>Node20&#45;&gt;Node21</title>
<g id="a_edge20_Node000020_Node000021"><a xlink:title=" ">
<path fill="none" stroke="#63b8ff" d="M1563.56,-519.5C1578.96,-519.5 1596.34,-519.5 1612.46,-519.5"/>
<polygon fill="#63b8ff" stroke="#63b8ff" points="1612.83,-523 1622.83,-519.5 1612.83,-516 1612.83,-523"/>
</a>
</g>
</g>
<!-- Node22&#45;&gt;Node23 -->
<g id="edge22_Node000022_Node000023" class="edge">
<title>Node22&#45;&gt;Node23</title>
<g id="a_edge22_Node000022_Node000023"><a xlink:title=" ">
<path fill="none" stroke="#63b8ff" d="M753.04,-521.99C761.76,-519.59 770.77,-516.76 779,-513.5 809.46,-501.45 842.17,-482.67 863.51,-469.55"/>
<polygon fill="#63b8ff" stroke="#63b8ff" points="865.56,-472.39 872.2,-464.13 861.86,-466.45 865.56,-472.39"/>
</a>
</g>
</g>
<!-- Node31&#45;&gt;Node30 -->
<g id="edge35_Node000031_Node000030" class="edge">
<title>Node31&#45;&gt;Node30</title>
<g id="a_edge35_Node000031_Node000030"><a xlink:title=" ">
<path fill="none" stroke="#63b8ff" d="M425.37,-315.09C446.49,-320.1 472.53,-326.29 494.92,-331.61"/>
<polygon fill="#63b8ff" stroke="#63b8ff" points="494.38,-335.07 504.92,-333.98 495.99,-328.26 494.38,-335.07"/>
</a>
</g>
</g>
<!-- Node32 -->
<g id="Node000032" class="node">
<title>Node32</title>
<g id="a_Node000032"><a xlink:href="math__util_8c.html#aaa39a297477f56051975259f4bddd829" target="_top" xlink:title=" ">
<polygon fill="white" stroke="#666666" points="571,-315 521,-315 521,-296 571,-296 571,-315"/>
<text text-anchor="middle" x="546" y="-303" font-family="Helvetica,sans-Serif" font-size="10.00">atan2s</text>
</a>
</g>
</g>
<!-- Node31&#45;&gt;Node32 -->
<g id="edge33_Node000031_Node000032" class="edge">
<title>Node31&#45;&gt;Node32</title>
<g id="a_edge33_Node000031_Node000032"><a xlink:title=" ">
<path fill="none" stroke="#63b8ff" d="M430.42,-305.5C455.9,-305.5 487.17,-305.5 510.6,-305.5"/>
<polygon fill="#63b8ff" stroke="#63b8ff" points="510.77,-309 520.77,-305.5 510.77,-302 510.77,-309"/>
</a>
</g>
</g>
<!-- Node33 -->
<g id="Node000033" class="node">
<title>Node33</title>
<g id="a_Node000033"><a xlink:href="math__util_8c.html#a0273b0ea0783a06996c28669a7438ed9" target="_top" xlink:title=" ">
<polygon fill="white" stroke="#666666" points="749.5,-315 667.5,-315 667.5,-296 749.5,-296 749.5,-315"/>
<text text-anchor="middle" x="708.5" y="-303" font-family="Helvetica,sans-Serif" font-size="10.00">atan2_lookup</text>
</a>
</g>
</g>
<!-- Node32&#45;&gt;Node33 -->
<g id="edge34_Node000032_Node000033" class="edge">
<title>Node32&#45;&gt;Node33</title>
<g id="a_edge34_Node000032_Node000033"><a xlink:title=" ">
<path fill="none" stroke="#63b8ff" d="M571.03,-305.5C593.69,-305.5 628.38,-305.5 657.11,-305.5"/>
<polygon fill="#63b8ff" stroke="#63b8ff" points="657.39,-309 667.39,-305.5 657.39,-302 657.39,-309"/>
</a>
</g>
</g>
</g>
</svg>
