<?xml version="1.0" encoding="UTF-8" standalone="no"?>
<!DOCTYPE svg PUBLIC "-//W3C//DTD SVG 1.1//EN"
 "http://www.w3.org/Graphics/SVG/1.1/DTD/svg11.dtd">
<!-- Generated by graphviz version 2.43.0 (0)
 -->
<!-- Title: Editor::Gizmo Pages: 1 -->
<svg width="742pt" height="562pt"
 viewBox="0.00 0.00 742.00 561.82" xmlns="http://www.w3.org/2000/svg" xmlns:xlink="http://www.w3.org/1999/xlink">
<g id="graph0" class="graph" transform="scale(1 1) rotate(0) translate(4 557.82)">
<title>Editor::Gizmo</title>
<!-- Node1 -->
<g id="Node000001" class="node">
<title>Node1</title>
<g id="a_Node000001"><a xlink:title=" ">
<polygon fill="#999999" stroke="#666666" points="734,-282.32 651,-282.32 651,-263.32 734,-263.32 734,-282.32"/>
<text text-anchor="middle" x="692.5" y="-270.32" font-family="Helvetica,sans-Serif" font-size="10.00">Editor::Gizmo</text>
</a>
</g>
</g>
<!-- Node2 -->
<g id="Node000002" class="node">
<title>Node2</title>
<g id="a_Node000002"><a xlink:href="structEditor_1_1Gizmo_1_1TrackDimensions.html" target="_top" xlink:title=" ">
<polygon fill="white" stroke="#666666" points="511,-497.32 339,-497.32 339,-478.32 511,-478.32 511,-497.32"/>
<text text-anchor="middle" x="425" y="-485.32" font-family="Helvetica,sans-Serif" font-size="10.00">Editor::Gizmo::TrackDimensions</text>
</a>
</g>
</g>
<!-- Node2&#45;&gt;Node1 -->
<g id="edge1_Node000001_Node000002" class="edge">
<title>Node2&#45;&gt;Node1</title>
<g id="a_edge1_Node000001_Node000002"><a xlink:title=" ">
<path fill="none" stroke="#9a32cd" stroke-dasharray="5,2" d="M491.34,-498.26C536.08,-501.61 594.12,-497.99 633,-465.82 691,-417.84 692.84,-314.32 691.94,-282.4"/>
<polygon fill="#9a32cd" stroke="#9a32cd" points="491.41,-494.75 481.14,-497.36 490.79,-501.73 491.41,-494.75"/>
</a>
</g>
<text text-anchor="middle" x="581" y="-501.82" font-family="Helvetica,sans-Serif" font-size="10.00" fill="grey"> dimensions</text>
</g>
<!-- Node3 -->
<g id="Node000003" class="node">
<title>Node3</title>
<g id="a_Node000003"><a xlink:title=" ">
<polygon fill="white" stroke="#666666" points="191,-497.32 157,-497.32 157,-478.32 191,-478.32 191,-497.32"/>
<text text-anchor="middle" x="174" y="-485.32" font-family="Helvetica,sans-Serif" font-size="10.00">s16</text>
</a>
</g>
</g>
<!-- Node3&#45;&gt;Node2 -->
<g id="edge2_Node000002_Node000003" class="edge">
<title>Node3&#45;&gt;Node2</title>
<g id="a_edge2_Node000002_Node000003"><a xlink:title=" ">
<path fill="none" stroke="#9a32cd" stroke-dasharray="5,2" d="M201.38,-487.82C233.89,-487.82 290.73,-487.82 338.84,-487.82"/>
<polygon fill="#9a32cd" stroke="#9a32cd" points="201.34,-484.32 191.34,-487.82 201.34,-491.32 201.34,-484.32"/>
</a>
</g>
<text text-anchor="middle" x="283.5" y="-545.82" font-family="Helvetica,sans-Serif" font-size="10.00" fill="grey"> MaxX</text>
<text text-anchor="middle" x="283.5" y="-534.82" font-family="Helvetica,sans-Serif" font-size="10.00" fill="grey">MaxY</text>
<text text-anchor="middle" x="283.5" y="-523.82" font-family="Helvetica,sans-Serif" font-size="10.00" fill="grey">MaxZ</text>
<text text-anchor="middle" x="283.5" y="-512.82" font-family="Helvetica,sans-Serif" font-size="10.00" fill="grey">MinX</text>
<text text-anchor="middle" x="283.5" y="-501.82" font-family="Helvetica,sans-Serif" font-size="10.00" fill="grey">MinY</text>
<text text-anchor="middle" x="283.5" y="-490.82" font-family="Helvetica,sans-Serif" font-size="10.00" fill="grey">MinZ</text>
</g>
<!-- Node4 -->
<g id="Node000004" class="node">
<title>Node4</title>
<g id="a_Node000004"><a xlink:title=" ">
<polygon fill="white" stroke="#666666" points="444,-450.32 406,-450.32 406,-431.32 444,-431.32 444,-450.32"/>
<text text-anchor="middle" x="425" y="-438.32" font-family="Helvetica,sans-Serif" font-size="10.00">bool</text>
</a>
</g>
</g>
<!-- Node4&#45;&gt;Node1 -->
<g id="edge3_Node000001_Node000004" class="edge">
<title>Node4&#45;&gt;Node1</title>
<g id="a_edge3_Node000001_Node000004"><a xlink:title=" ">
<path fill="none" stroke="#9a32cd" stroke-dasharray="5,2" d="M454.32,-439.16C504.34,-435.7 605.61,-426.21 633,-404.82 673.7,-373.05 686.78,-306.94 690.33,-282.33"/>
<polygon fill="#9a32cd" stroke="#9a32cd" points="453.94,-435.68 444.19,-439.83 454.4,-442.66 453.94,-435.68"/>
</a>
</g>
<text text-anchor="middle" x="581" y="-455.82" font-family="Helvetica,sans-Serif" font-size="10.00" fill="grey"> Enabled</text>
<text text-anchor="middle" x="581" y="-444.82" font-family="Helvetica,sans-Serif" font-size="10.00" fill="grey">ManipulationStart</text>
<text text-anchor="middle" x="581" y="-433.82" font-family="Helvetica,sans-Serif" font-size="10.00" fill="grey">_draw</text>
</g>
<!-- Node5 -->
<g id="Node000005" class="node">
<title>Node5</title>
<g id="a_Node000005"><a xlink:href="structFVector.html" target="_top" xlink:title=" ">
<polygon fill="white" stroke="#666666" points="200.5,-240.32 147.5,-240.32 147.5,-221.32 200.5,-221.32 200.5,-240.32"/>
<text text-anchor="middle" x="174" y="-228.32" font-family="Helvetica,sans-Serif" font-size="10.00">FVector</text>
</a>
</g>
</g>
<!-- Node5&#45;&gt;Node1 -->
<g id="edge4_Node000001_Node000005" class="edge">
<title>Node5&#45;&gt;Node1</title>
<g id="a_edge4_Node000001_Node000005"><a xlink:title=" ">
<path fill="none" stroke="#9a32cd" stroke-dasharray="5,2" d="M203.2,-244.54C215.96,-250.05 231.42,-255.82 246,-258.82 392.45,-289.05 571.66,-281.62 650.72,-276.16"/>
<polygon fill="#9a32cd" stroke="#9a32cd" points="204.59,-241.32 194.03,-240.41 201.72,-247.71 204.59,-241.32"/>
</a>
</g>
<text text-anchor="middle" x="425" y="-316.82" font-family="Helvetica,sans-Serif" font-size="10.00" fill="grey"> InitialScale</text>
<text text-anchor="middle" x="425" y="-305.82" font-family="Helvetica,sans-Serif" font-size="10.00" fill="grey">Pos</text>
<text text-anchor="middle" x="425" y="-294.82" font-family="Helvetica,sans-Serif" font-size="10.00" fill="grey">_cursorOffset</text>
<text text-anchor="middle" x="425" y="-283.82" font-family="Helvetica,sans-Serif" font-size="10.00" fill="grey">_ray</text>
</g>
<!-- Node10 -->
<g id="Node000010" class="node">
<title>Node10</title>
<g id="a_Node000010"><a xlink:href="classEditor_1_1GameObject.html" target="_top" xlink:title=" ">
<polygon fill="white" stroke="#666666" points="481,-134.32 369,-134.32 369,-115.32 481,-115.32 481,-134.32"/>
<text text-anchor="middle" x="425" y="-122.32" font-family="Helvetica,sans-Serif" font-size="10.00">Editor::GameObject</text>
</a>
</g>
</g>
<!-- Node5&#45;&gt;Node10 -->
<g id="edge11_Node000010_Node000005" class="edge">
<title>Node5&#45;&gt;Node10</title>
<g id="a_edge11_Node000010_Node000005"><a xlink:title=" ">
<path fill="none" stroke="#9a32cd" stroke-dasharray="5,2" d="M190.63,-213.55C204.04,-199.76 224.54,-180.96 246,-169.82 258.09,-163.55 333.45,-145.58 382.16,-134.34"/>
<polygon fill="#9a32cd" stroke="#9a32cd" points="187.92,-211.32 183.61,-221 193.02,-216.13 187.92,-211.32"/>
</a>
</g>
<text text-anchor="middle" x="283.5" y="-205.82" font-family="Helvetica,sans-Serif" font-size="10.00" fill="grey"> Pos</text>
<text text-anchor="middle" x="283.5" y="-194.82" font-family="Helvetica,sans-Serif" font-size="10.00" fill="grey">Scale</text>
<text text-anchor="middle" x="283.5" y="-183.82" font-family="Helvetica,sans-Serif" font-size="10.00" fill="grey">SpawnPos</text>
<text text-anchor="middle" x="283.5" y="-172.82" font-family="Helvetica,sans-Serif" font-size="10.00" fill="grey">SpawnScale</text>
</g>
<!-- Node6 -->
<g id="Node000006" class="node">
<title>Node6</title>
<g id="a_Node000006"><a xlink:title=" ">
<polygon fill="white" stroke="#666666" points="47,-240.32 9,-240.32 9,-221.32 47,-221.32 47,-240.32"/>
<text text-anchor="middle" x="28" y="-228.32" font-family="Helvetica,sans-Serif" font-size="10.00">float</text>
</a>
</g>
</g>
<!-- Node6&#45;&gt;Node1 -->
<g id="edge17_Node000001_Node000006" class="edge">
<title>Node6&#45;&gt;Node1</title>
<g id="a_edge17_Node000001_Node000006"><a xlink:title=" ">
<path fill="none" stroke="#9a32cd" stroke-dasharray="5,2" d="M45.56,-247.59C53.55,-254.8 63.63,-262.72 74,-267.82 182.44,-321.18 218.91,-315.18 339,-328.82 414.96,-337.45 435.34,-339.75 511,-328.82 569.61,-320.36 635.31,-295.99 668.96,-282.35"/>
<polygon fill="#9a32cd" stroke="#9a32cd" points="47.74,-244.84 38.08,-240.49 42.93,-249.91 47.74,-244.84"/>
</a>
</g>
<text text-anchor="middle" x="283.5" y="-361.82" font-family="Helvetica,sans-Serif" font-size="10.00" fill="grey"> AllAxisRadius</text>
<text text-anchor="middle" x="283.5" y="-350.82" font-family="Helvetica,sans-Serif" font-size="10.00" fill="grey">HandleSize</text>
<text text-anchor="middle" x="283.5" y="-339.82" font-family="Helvetica,sans-Serif" font-size="10.00" fill="grey">PickDistance</text>
<text text-anchor="middle" x="283.5" y="-328.82" font-family="Helvetica,sans-Serif" font-size="10.00" fill="grey">_gizmoOffset</text>
</g>
<!-- Node6&#45;&gt;Node5 -->
<g id="edge5_Node000005_Node000006" class="edge">
<title>Node6&#45;&gt;Node5</title>
<g id="a_edge5_Node000005_Node000006"><a xlink:title=" ">
<path fill="none" stroke="#9a32cd" stroke-dasharray="5,2" d="M57.29,-230.82C83.48,-230.82 122.09,-230.82 147.39,-230.82"/>
<polygon fill="#9a32cd" stroke="#9a32cd" points="57.24,-227.32 47.24,-230.82 57.24,-234.32 57.24,-227.32"/>
</a>
</g>
<text text-anchor="middle" x="88" y="-255.82" font-family="Helvetica,sans-Serif" font-size="10.00" fill="grey"> x</text>
<text text-anchor="middle" x="88" y="-244.82" font-family="Helvetica,sans-Serif" font-size="10.00" fill="grey">y</text>
<text text-anchor="middle" x="88" y="-233.82" font-family="Helvetica,sans-Serif" font-size="10.00" fill="grey">z</text>
</g>
<!-- Node6&#45;&gt;Node10 -->
<g id="edge13_Node000010_Node000006" class="edge">
<title>Node6&#45;&gt;Node10</title>
<g id="a_edge13_Node000010_Node000006"><a xlink:title=" ">
<path fill="none" stroke="#9a32cd" stroke-dasharray="5,2" d="M37.01,-211.49C49.82,-183.47 77.82,-132.67 120,-111.82 212.59,-66.07 341.05,-97.78 396.6,-115.32"/>
<polygon fill="#9a32cd" stroke="#9a32cd" points="33.65,-210.43 32.85,-221 40.07,-213.24 33.65,-210.43"/>
</a>
</g>
<text text-anchor="middle" x="174" y="-125.82" font-family="Helvetica,sans-Serif" font-size="10.00" fill="grey"> BoundingBoxSize</text>
<text text-anchor="middle" x="174" y="-114.82" font-family="Helvetica,sans-Serif" font-size="10.00" fill="grey">Speed</text>
</g>
<!-- Node7 -->
<g id="Node000007" class="node">
<title>Node7</title>
<g id="a_Node000007"><a xlink:href="structIRotator.html" target="_top" xlink:title=" ">
<polygon fill="white" stroke="#666666" points="202,-389.32 146,-389.32 146,-370.32 202,-370.32 202,-389.32"/>
<text text-anchor="middle" x="174" y="-377.32" font-family="Helvetica,sans-Serif" font-size="10.00">IRotator</text>
</a>
</g>
</g>
<!-- Node7&#45;&gt;Node1 -->
<g id="edge6_Node000001_Node000007" class="edge">
<title>Node7&#45;&gt;Node1</title>
<g id="a_edge6_Node000001_Node000007"><a xlink:title=" ">
<path fill="none" stroke="#9a32cd" stroke-dasharray="5,2" d="M212.39,-382.36C308.51,-388.21 561.66,-399.25 633,-358.82 663.48,-341.55 681.36,-301.07 688.23,-282.48"/>
<polygon fill="#9a32cd" stroke="#9a32cd" points="212.46,-378.86 202.26,-381.72 212.02,-385.84 212.46,-378.86"/>
</a>
</g>
<text text-anchor="middle" x="425" y="-401.82" font-family="Helvetica,sans-Serif" font-size="10.00" fill="grey"> InitialRotation</text>
<text text-anchor="middle" x="425" y="-390.82" font-family="Helvetica,sans-Serif" font-size="10.00" fill="grey">Rot</text>
</g>
<!-- Node7&#45;&gt;Node10 -->
<g id="edge12_Node000010_Node000007" class="edge">
<title>Node7&#45;&gt;Node10</title>
<g id="a_edge12_Node000010_Node000007"><a xlink:title=" ">
<path fill="none" stroke="#9a32cd" stroke-dasharray="5,2" d="M187.42,-361.91C200.97,-342.82 223.71,-312.08 246,-287.82 276.06,-255.12 378.4,-164.8 412.7,-134.72"/>
<polygon fill="#9a32cd" stroke="#9a32cd" points="184.44,-360.07 181.55,-370.26 190.16,-364.09 184.44,-360.07"/>
</a>
</g>
<text text-anchor="middle" x="283.5" y="-301.82" font-family="Helvetica,sans-Serif" font-size="10.00" fill="grey"> Rot</text>
<text text-anchor="middle" x="283.5" y="-290.82" font-family="Helvetica,sans-Serif" font-size="10.00" fill="grey">SpawnRot</text>
</g>
<!-- Node8 -->
<g id="Node000008" class="node">
<title>Node8</title>
<g id="a_Node000008"><a xlink:title=" ">
<polygon fill="white" stroke="#666666" points="56,-389.32 0,-389.32 0,-370.32 56,-370.32 56,-389.32"/>
<text text-anchor="middle" x="28" y="-377.32" font-family="Helvetica,sans-Serif" font-size="10.00">uint16_t</text>
</a>
</g>
</g>
<!-- Node8&#45;&gt;Node7 -->
<g id="edge7_Node000007_Node000008" class="edge">
<title>Node8&#45;&gt;Node7</title>
<g id="a_edge7_Node000007_Node000008"><a xlink:title=" ">
<path fill="none" stroke="#9a32cd" stroke-dasharray="5,2" d="M66.22,-379.82C91.02,-379.82 123.06,-379.82 145.55,-379.82"/>
<polygon fill="#9a32cd" stroke="#9a32cd" points="66.09,-376.32 56.09,-379.82 66.09,-383.32 66.09,-376.32"/>
</a>
</g>
<text text-anchor="middle" x="88" y="-404.82" font-family="Helvetica,sans-Serif" font-size="10.00" fill="grey"> pitch</text>
<text text-anchor="middle" x="88" y="-393.82" font-family="Helvetica,sans-Serif" font-size="10.00" fill="grey">roll</text>
<text text-anchor="middle" x="88" y="-382.82" font-family="Helvetica,sans-Serif" font-size="10.00" fill="grey">yaw</text>
</g>
<!-- Node9 -->
<g id="Node000009" class="node">
<title>Node9</title>
<g id="a_Node000009"><a xlink:title=" ">
<polygon fill="white" stroke="#666666" points="466.5,-236.32 383.5,-236.32 383.5,-217.32 466.5,-217.32 466.5,-236.32"/>
<text text-anchor="middle" x="425" y="-224.32" font-family="Helvetica,sans-Serif" font-size="10.00">GizmoHandle</text>
</a>
</g>
</g>
<!-- Node9&#45;&gt;Node1 -->
<g id="edge8_Node000001_Node000009" class="edge">
<title>Node9&#45;&gt;Node1</title>
<g id="a_edge8_Node000001_Node000009"><a xlink:title=" ">
<path fill="none" stroke="#9a32cd" stroke-dasharray="5,2" d="M476.78,-227.71C519.15,-229.46 580.82,-234.36 633,-247.82 646.9,-251.41 661.77,-257.8 673.04,-263.22"/>
<polygon fill="#9a32cd" stroke="#9a32cd" points="476.83,-224.21 466.7,-227.34 476.57,-231.21 476.83,-224.21"/>
</a>
</g>
<text text-anchor="middle" x="581" y="-250.82" font-family="Helvetica,sans-Serif" font-size="10.00" fill="grey"> SelectedHandle</text>
</g>
<!-- Node10&#45;&gt;Node1 -->
<g id="edge9_Node000001_Node000010" class="edge">
<title>Node10&#45;&gt;Node1</title>
<g id="a_edge9_Node000001_Node000010"><a xlink:title=" ">
<path fill="none" stroke="#9a32cd" stroke-dasharray="5,2" d="M467.6,-112.92C512.52,-102.71 584.18,-94.36 633,-127.82 679.8,-159.9 689.17,-236.25 691.04,-263.2"/>
<polygon fill="#9a32cd" stroke="#9a32cd" points="466.52,-109.58 457.61,-115.32 468.15,-116.39 466.52,-109.58"/>
</a>
</g>
<text text-anchor="middle" x="581" y="-218.82" font-family="Helvetica,sans-Serif" font-size="10.00" fill="grey"> BlueCollision</text>
<text text-anchor="middle" x="581" y="-207.82" font-family="Helvetica,sans-Serif" font-size="10.00" fill="grey">BlueRotateCollision</text>
<text text-anchor="middle" x="581" y="-196.82" font-family="Helvetica,sans-Serif" font-size="10.00" fill="grey">BlueScaleCollision</text>
<text text-anchor="middle" x="581" y="-185.82" font-family="Helvetica,sans-Serif" font-size="10.00" fill="grey">GreenCollision</text>
<text text-anchor="middle" x="581" y="-174.82" font-family="Helvetica,sans-Serif" font-size="10.00" fill="grey">GreenRotateCollision</text>
<text text-anchor="middle" x="581" y="-163.82" font-family="Helvetica,sans-Serif" font-size="10.00" fill="grey">GreenScaleCollision</text>
<text text-anchor="middle" x="581" y="-152.82" font-family="Helvetica,sans-Serif" font-size="10.00" fill="grey">RedCollision</text>
<text text-anchor="middle" x="581" y="-141.82" font-family="Helvetica,sans-Serif" font-size="10.00" fill="grey">RedRotateCollision</text>
<text text-anchor="middle" x="581" y="-130.82" font-family="Helvetica,sans-Serif" font-size="10.00" fill="grey">RedScaleCollision</text>
</g>
<!-- Node11 -->
<g id="Node000011" class="node">
<title>Node11</title>
<g id="a_Node000011"><a xlink:title=" ">
<polygon fill="white" stroke="#666666" points="193,-19.32 155,-19.32 155,-0.32 193,-0.32 193,-19.32"/>
<text text-anchor="middle" x="174" y="-7.32" font-family="Helvetica,sans-Serif" font-size="10.00">char</text>
</a>
</g>
</g>
<!-- Node11&#45;&gt;Node10 -->
<g id="edge10_Node000010_Node000011" class="edge">
<title>Node11&#45;&gt;Node10</title>
<g id="a_edge10_Node000010_Node000011"><a xlink:title=" ">
<path fill="none" stroke="#9a32cd" stroke-dasharray="5,2" d="M203.25,-3.68C235.54,1.59 288.16,4.55 321,-22.82 344.03,-42.01 319.34,-65.19 339,-87.82 350.4,-100.95 367.31,-109.58 383.05,-115.18"/>
<polygon fill="#9a32cd" stroke="#9a32cd" points="202.35,-0.28 193.13,-5.51 203.6,-7.17 202.35,-0.28"/>
</a>
</g>
<text text-anchor="middle" x="283.5" y="-47.82" font-family="Helvetica,sans-Serif" font-size="10.00" fill="grey"> Model</text>
<text text-anchor="middle" x="283.5" y="-36.82" font-family="Helvetica,sans-Serif" font-size="10.00" fill="grey">Name</text>
<text text-anchor="middle" x="283.5" y="-25.82" font-family="Helvetica,sans-Serif" font-size="10.00" fill="grey">ResourceName</text>
</g>
<!-- Node12 -->
<g id="Node000012" class="node">
<title>Node12</title>
<g id="a_Node000012"><a xlink:title=" ">
<polygon fill="white" stroke="#666666" points="228,-65.32 120,-65.32 120,-46.32 228,-46.32 228,-65.32"/>
<text text-anchor="middle" x="174" y="-53.32" font-family="Helvetica,sans-Serif" font-size="10.00">vector&lt; Triangle &gt;</text>
</a>
</g>
</g>
<!-- Node12&#45;&gt;Node10 -->
<g id="edge14_Node000010_Node000012" class="edge">
<title>Node12&#45;&gt;Node10</title>
<g id="a_edge14_Node000010_Node000012"><a xlink:title=" ">
<path fill="none" stroke="#9a32cd" stroke-dasharray="5,2" d="M238.46,-59.32C264.6,-62.19 294.84,-67.4 321,-76.82 329.82,-80 330.68,-83.5 339,-87.82 358.99,-98.22 382.54,-108.31 399.77,-115.32"/>
<polygon fill="#9a32cd" stroke="#9a32cd" points="238.58,-55.82 228.28,-58.3 237.88,-62.78 238.58,-55.82"/>
</a>
</g>
<text text-anchor="middle" x="283.5" y="-79.82" font-family="Helvetica,sans-Serif" font-size="10.00" fill="grey"> Triangles</text>
</g>
<!-- Node13 -->
<g id="Node000013" class="node">
<title>Node13</title>
<g id="a_Node000013"><a xlink:title=" ">
<polygon fill="white" stroke="#666666" points="214.5,-161.32 133.5,-161.32 133.5,-142.32 214.5,-142.32 214.5,-161.32"/>
<text text-anchor="middle" x="174" y="-149.32" font-family="Helvetica,sans-Serif" font-size="10.00">CollisionType</text>
</a>
</g>
</g>
<!-- Node13&#45;&gt;Node10 -->
<g id="edge15_Node000010_Node000013" class="edge">
<title>Node13&#45;&gt;Node10</title>
<g id="a_edge15_Node000010_Node000013"><a xlink:title=" ">
<path fill="none" stroke="#9a32cd" stroke-dasharray="5,2" d="M221.94,-140.14C229.93,-138.47 238.17,-136.94 246,-135.82 286.92,-129.99 333.57,-127.25 368.84,-125.96"/>
<polygon fill="#9a32cd" stroke="#9a32cd" points="221.03,-136.75 212.01,-142.31 222.53,-143.59 221.03,-136.75"/>
</a>
</g>
<text text-anchor="middle" x="283.5" y="-138.82" font-family="Helvetica,sans-Serif" font-size="10.00" fill="grey"> Collision</text>
</g>
<!-- Node14 -->
<g id="Node000014" class="node">
<title>Node14</title>
<g id="a_Node000014"><a xlink:title=" ">
<polygon fill="white" stroke="#666666" points="445.5,-78.32 404.5,-78.32 404.5,-59.32 445.5,-59.32 445.5,-78.32"/>
<text text-anchor="middle" x="425" y="-66.32" font-family="Helvetica,sans-Serif" font-size="10.00">MtxF</text>
</a>
</g>
</g>
<!-- Node14&#45;&gt;Node1 -->
<g id="edge16_Node000001_Node000014" class="edge">
<title>Node14&#45;&gt;Node1</title>
<g id="a_edge16_Node000001_Node000014"><a xlink:title=" ">
<path fill="none" stroke="#9a32cd" stroke-dasharray="5,2" d="M455.5,-64.28C505.93,-57.2 605.89,-46.35 633,-66.82 665.63,-91.48 685.38,-225.89 690.29,-263.21"/>
<polygon fill="#9a32cd" stroke="#9a32cd" points="454.94,-60.83 445.54,-65.73 455.94,-67.76 454.94,-60.83"/>
</a>
</g>
<text text-anchor="middle" x="581" y="-91.82" font-family="Helvetica,sans-Serif" font-size="10.00" fill="grey"> Mtx_BlueZ</text>
<text text-anchor="middle" x="581" y="-80.82" font-family="Helvetica,sans-Serif" font-size="10.00" fill="grey">Mtx_GreenY</text>
<text text-anchor="middle" x="581" y="-69.82" font-family="Helvetica,sans-Serif" font-size="10.00" fill="grey">Mtx_RedX</text>
</g>
<!-- Node15 -->
<g id="Node000015" class="node">
<title>Node15</title>
<g id="a_Node000015"><a xlink:title=" ">
<polygon fill="white" stroke="#666666" points="478.5,-41.32 371.5,-41.32 371.5,-0.32 478.5,-0.32 478.5,-41.32"/>
<text text-anchor="start" x="379.5" y="-29.32" font-family="Helvetica,sans-Serif" font-size="10.00">variant&lt; AActor *,</text>
<text text-anchor="start" x="379.5" y="-18.32" font-family="Helvetica,sans-Serif" font-size="10.00"> OObject *, Editor::</text>
<text text-anchor="middle" x="425" y="-7.32" font-family="Helvetica,sans-Serif" font-size="10.00">GameObject * &gt;</text>
</a>
</g>
</g>
<!-- Node15&#45;&gt;Node1 -->
<g id="edge18_Node000001_Node000015" class="edge">
<title>Node15&#45;&gt;Node1</title>
<g id="a_edge18_Node000001_Node000015"><a xlink:title=" ">
<path fill="none" stroke="#9a32cd" stroke-dasharray="5,2" d="M488.76,-9.01C534.05,-4.27 593.88,-6.33 633,-39.82 668.16,-69.94 686.33,-223.04 690.54,-263.18"/>
<polygon fill="#9a32cd" stroke="#9a32cd" points="488.27,-5.55 478.74,-10.19 489.09,-12.5 488.27,-5.55"/>
</a>
</g>
<text text-anchor="middle" x="581" y="-42.82" font-family="Helvetica,sans-Serif" font-size="10.00" fill="grey"> _selected</text>
</g>
</g>
</svg>
