<?xml version="1.0" encoding="UTF-8" standalone="no"?>
<!DOCTYPE svg PUBLIC "-//W3C//DTD SVG 1.1//EN"
 "http://www.w3.org/Graphics/SVG/1.1/DTD/svg11.dtd">
<!-- Generated by graphviz version 2.43.0 (0)
 -->
<!-- Title: Editor::ContentBrowserWindow Pages: 1 -->
<svg width="439pt" height="126pt"
 viewBox="0.00 0.00 438.50 126.00" xmlns="http://www.w3.org/2000/svg" xmlns:xlink="http://www.w3.org/1999/xlink">

<svg id="main" version="1.1" xmlns="http://www.w3.org/2000/svg" xmlns:xlink="http://www.w3.org/1999/xlink" xml:space="preserve">

<style type="text/css"><![CDATA[
.node, .edge {opacity: 0.7;}
.node.selected, .edge.selected {opacity: 1;}
.edge:hover path { stroke: red; }
.edge:hover polygon { stroke: red; fill: red; }
]]></style>
<script type="application/ecmascript" xlink:href="svg.min.js"/>
<svg id="graph" class="graph">
<g id="graph0" class="graph" transform="scale(1 1) rotate(0) translate(4 122)">
<title>Editor::ContentBrowserWindow</title>
<!-- Node1 -->
<g id="Node000001" class="node">
<title>Node1</title>
<g id="a_Node000001"><a xlink:title=" ">
<polygon fill="#999999" stroke="#666666" points="300.5,-19 132.5,-19 132.5,0 300.5,0 300.5,-19"/>
<text text-anchor="middle" x="216.5" y="-7" font-family="Helvetica,sans-Serif" font-size="10.00">Editor::ContentBrowserWindow</text>
</a>
</g>
</g>
<!-- Node2 -->
<g id="Node000002" class="node">
<title>Node2</title>
<g id="a_Node000002"><a xlink:title=" ">
<polygon fill="white" stroke="#666666" points="99,-118 0,-118 0,-99 99,-99 99,-118"/>
<text text-anchor="middle" x="49.5" y="-106" font-family="Helvetica,sans-Serif" font-size="10.00">Ship::GuiWindow</text>
</a>
</g>
</g>
<!-- Node2&#45;&gt;Node1 -->
<g id="edge1_Node000001_Node000002" class="edge">
<title>Node2&#45;&gt;Node1</title>
<g id="a_edge1_Node000001_Node000002"><a xlink:title=" ">
<path fill="none" stroke="#63b8ff" d="M73.35,-93.65C108.3,-73.35 172.41,-36.11 201.47,-19.23"/>
<polygon fill="#63b8ff" stroke="#63b8ff" points="71.21,-90.84 64.32,-98.89 74.73,-96.9 71.21,-90.84"/>
</a>
</g>
</g>
<!-- Node3 -->
<g id="Node000003" class="node">
<title>Node3</title>
<g id="a_Node000003"><a xlink:title=" ">
<polygon fill="white" stroke="#666666" points="236,-118 117,-118 117,-99 236,-99 236,-118"/>
<text text-anchor="middle" x="176.5" y="-106" font-family="Helvetica,sans-Serif" font-size="10.00">vector&lt; std::string &gt;</text>
</a>
</g>
</g>
<!-- Node3&#45;&gt;Node1 -->
<g id="edge2_Node000001_Node000003" class="edge">
<title>Node3&#45;&gt;Node1</title>
<g id="a_edge2_Node000001_Node000003"><a xlink:title=" ">
<path fill="none" stroke="#9a32cd" stroke-dasharray="5,2" d="M178.59,-88.44C180.78,-73.74 185.13,-53.25 193.5,-37 196.96,-30.28 202.46,-23.86 207.22,-19.01"/>
<polygon fill="#9a32cd" stroke="#9a32cd" points="175.07,-88.43 177.26,-98.79 182.01,-89.32 175.07,-88.43"/>
</a>
</g>
<text text-anchor="middle" x="214.5" y="-56.5" font-family="Helvetica,sans-Serif" font-size="10.00" fill="grey"> Content</text>
</g>
<!-- Node4 -->
<g id="Node000004" class="node">
<title>Node4</title>
<g id="a_Node000004"><a xlink:title=" ">
<polygon fill="white" stroke="#666666" points="292.5,-118 254.5,-118 254.5,-99 292.5,-99 292.5,-118"/>
<text text-anchor="middle" x="273.5" y="-106" font-family="Helvetica,sans-Serif" font-size="10.00">bool</text>
</a>
</g>
</g>
<!-- Node4&#45;&gt;Node1 -->
<g id="edge3_Node000001_Node000004" class="edge">
<title>Node4&#45;&gt;Node1</title>
<g id="a_edge3_Node000001_Node000004"><a xlink:title=" ">
<path fill="none" stroke="#9a32cd" stroke-dasharray="5,2" d="M263.41,-89.87C261.75,-86.92 260.07,-83.88 258.5,-81 247.95,-61.62 247.07,-55.79 235.5,-37 231.7,-30.83 226.95,-24.2 223.15,-19.12"/>
<polygon fill="#9a32cd" stroke="#9a32cd" points="260.45,-91.74 268.43,-98.71 266.54,-88.28 260.45,-91.74"/>
</a>
</g>
<text text-anchor="middle" x="296.5" y="-73" font-family="Helvetica,sans-Serif" font-size="10.00" fill="grey"> ActorContent</text>
<text text-anchor="middle" x="296.5" y="-62" font-family="Helvetica,sans-Serif" font-size="10.00" fill="grey">CustomContent</text>
<text text-anchor="middle" x="296.5" y="-51" font-family="Helvetica,sans-Serif" font-size="10.00" fill="grey">Refresh</text>
<text text-anchor="middle" x="296.5" y="-40" font-family="Helvetica,sans-Serif" font-size="10.00" fill="grey">TrackContent</text>
</g>
<!-- Node5 -->
<g id="Node000005" class="node">
<title>Node5</title>
<g id="a_Node000005"><a xlink:title=" ">
<polygon fill="white" stroke="#666666" points="375.5,-118 337.5,-118 337.5,-99 375.5,-99 375.5,-118"/>
<text text-anchor="middle" x="356.5" y="-106" font-family="Helvetica,sans-Serif" font-size="10.00">char</text>
</a>
</g>
</g>
<!-- Node5&#45;&gt;Node1 -->
<g id="edge4_Node000001_Node000005" class="edge">
<title>Node5&#45;&gt;Node1</title>
<g id="a_edge4_Node000001_Node000005"><a xlink:title=" ">
<path fill="none" stroke="#9a32cd" stroke-dasharray="5,2" d="M355.63,-88.36C353.85,-72.37 348.76,-50.14 334.5,-37 326.09,-29.25 303.44,-23.29 280.22,-19.01"/>
<polygon fill="#9a32cd" stroke="#9a32cd" points="352.16,-88.97 356.42,-98.68 359.14,-88.44 352.16,-88.97"/>
</a>
</g>
<text text-anchor="middle" x="392.5" y="-56.5" font-family="Helvetica,sans-Serif" font-size="10.00" fill="grey"> mSearchBuffer</text>
</g>
</g>
</svg>
</svg>

<style type='text/css'>
<![CDATA[
[data-mouse-over-selected='false'] { opacity: 0.7; }
[data-mouse-over-selected='true']  { opacity: 1.0; }
]]>
</style>
<script type="application/ecmascript"><![CDATA[
document.addEventListener('DOMContentLoaded', (event) => {
  highlightEdges();
  highlightAdjacentNodes();
});
]]></script>
</svg>
