<?xml version="1.0" encoding="UTF-8" standalone="no"?>
<!DOCTYPE svg PUBLIC "-//W3C//DTD SVG 1.1//EN"
 "http://www.w3.org/Graphics/SVG/1.1/DTD/svg11.dtd">
<!-- Generated by graphviz version 2.43.0 (0)
 -->
<!-- Title: OBombKart::OBombKart Pages: 1 -->
<!--zoomable 804 -->

<svg id="main" version="1.1" xmlns="http://www.w3.org/2000/svg" xmlns:xlink="http://www.w3.org/1999/xlink" xml:space="preserve" onload="init(evt)">

<style type="text/css"><![CDATA[
.node, .edge {opacity: 0.7;}
.node.selected, .edge.selected {opacity: 1;}
.edge:hover path { stroke: red; }
.edge:hover polygon { stroke: red; fill: red; }
]]></style>

<defs>
  <circle id="rim" cx="0" cy="0" r="7"/>
  <circle id="rim2" cx="0" cy="0" r="3.5"/>
  <g id="zoomPlus">
    <use xlink:href="#rim" fill="#404040"><set attributeName="fill" to="#808080" begin="zoomplus.mouseover" end="zoomplus.mouseout"/></use>
    <path d="M-4,0h8M0,-4v8" fill="none" stroke="white" stroke-width="1.5" pointer-events="none"/>
  </g>
  <g id="zoomMin">
    <use xlink:href="#rim" fill="#404040"><set attributeName="fill" to="#808080" begin="zoomminus.mouseover" end="zoomminus.mouseout"/></use>
    <path d="M-4,0h8" fill="none" stroke="white" stroke-width="1.5" pointer-events="none"/>
  </g>
  <g id="arrowUp" transform="translate(30 24)">
    <use xlink:href="#rim"/>
    <path pointer-events="none" fill="none" stroke="white" stroke-width="1.5" d="M0,-3.0v7 M-2.5,-0.5L0,-3.0L2.5,-0.5"/>
  </g>
  <g id="arrowRight" transform="rotate(90) translate(36 -43)">
    <use xlink:href="#rim"/>
    <path pointer-events="none" fill="none" stroke="white" stroke-width="1.5" d="M0,-3.0v7 M-2.5,-0.5L0,-3.0L2.5,-0.5"/>
  </g>
  <g id="arrowDown" transform="rotate(180) translate(-30 -48)">
    <use xlink:href="#rim"/>
    <path pointer-events="none" fill="none" stroke="white" stroke-width="1.5" d="M0,-3.0v7 M-2.5,-0.5L0,-3.0L2.5,-0.5"/>
  </g>
  <g id="arrowLeft" transform="rotate(270) translate(-36 17)">
    <use xlink:href="#rim"/>
    <path pointer-events="none" fill="none" stroke="white" stroke-width="1.5" d="M0,-3.0v7 M-2.5,-0.5L0,-3.0L2.5,-0.5"/>
  </g>
  <g id="resetDef">
    <use xlink:href="#rim2" fill="#404040"><set attributeName="fill" to="#808080" begin="reset.mouseover" end="reset.mouseout"/></use>
  </g>
</defs>
<script type="application/ecmascript">
var viewWidth = 491;
var viewHeight = 804;
var sectionId = 'dynsection-3';
</script>
<script type="application/ecmascript" xlink:href="svg.min.js"/>
<svg id="graph" class="graph">
<g id="viewport">
<title>OBombKart::OBombKart</title>
<!-- Node1 -->
<g id="Node000001" class="node">
<title>Node1</title>
<g id="a_Node000001"><a xlink:title=" ">
<polygon fill="#999999" stroke="#666666" points="483,-388 348,-388 348,-369 483,-369 483,-388"/>
<text text-anchor="middle" x="415.5" y="-376" font-family="Helvetica,sans-Serif" font-size="10.00">OBombKart::OBombKart</text>
</a>
</g>
</g>
<!-- Node2 -->
<g id="Node000002" class="node">
<title>Node2</title>
<g id="a_Node000002"><a xlink:href="classOBombKart.html#a9fa11c43dd1885221b160bd688eceff0" target="_top" xlink:title=" ">
<polygon fill="white" stroke="#666666" points="312,-407 201,-407 201,-388 312,-388 312,-407"/>
<text text-anchor="middle" x="256.5" y="-395" font-family="Helvetica,sans-Serif" font-size="10.00">OBombKart::Spawn</text>
</a>
</g>
</g>
<!-- Node1&#45;&gt;Node2 -->
<g id="edge1_Node000001_Node000002" class="edge">
<title>Node1&#45;&gt;Node2</title>
<g id="a_edge1_Node000001_Node000002"><a xlink:title=" ">
<path fill="none" stroke="#63b8ff" d="M337.84,-387.78C329.22,-388.82 320.58,-389.87 312.32,-390.87"/>
<polygon fill="#63b8ff" stroke="#63b8ff" points="338.41,-391.23 347.92,-386.56 337.57,-384.28 338.41,-391.23"/>
</a>
</g>
</g>
<!-- Node25 -->
<g id="Node000025" class="node">
<title>Node25</title>
<g id="a_Node000025"><a xlink:href="classOBombKart.html#a8ea897e27339a081e5a98c2813b64a8b" target="_top" xlink:title=" ">
<polygon fill="white" stroke="#666666" points="312,-370 201,-370 201,-351 312,-351 312,-370"/>
<text text-anchor="middle" x="256.5" y="-358" font-family="Helvetica,sans-Serif" font-size="10.00">OBombKart::Spawn</text>
</a>
</g>
</g>
<!-- Node1&#45;&gt;Node25 -->
<g id="edge24_Node000001_Node000025" class="edge">
<title>Node1&#45;&gt;Node25</title>
<g id="a_edge24_Node000001_Node000025"><a xlink:title=" ">
<path fill="none" stroke="#63b8ff" d="M337.84,-369.71C329.22,-368.72 320.58,-367.73 312.32,-366.78"/>
<polygon fill="#63b8ff" stroke="#63b8ff" points="337.58,-373.2 347.92,-370.87 338.38,-366.25 337.58,-373.2"/>
</a>
</g>
</g>
<!-- Node3 -->
<g id="Node000003" class="node">
<title>Node3</title>
<g id="a_Node000003"><a xlink:href="classBansheeBoardwalk.html#ac3c915c5a03066d4221e2007e8315988" target="_top" xlink:title=" ">
<polygon fill="white" stroke="#666666" points="165,-796 0,-796 0,-777 165,-777 165,-796"/>
<text text-anchor="middle" x="82.5" y="-784" font-family="Helvetica,sans-Serif" font-size="10.00">BansheeBoardwalk::BeginPlay</text>
</a>
</g>
</g>
<!-- Node2&#45;&gt;Node3 -->
<g id="edge2_Node000002_Node000003" class="edge">
<title>Node2&#45;&gt;Node3</title>
<g id="a_edge2_Node000002_Node000003"><a xlink:title=" ">
<path fill="none" stroke="#63b8ff" d="M253.41,-417.28C245.67,-486.76 216.4,-718.21 165,-768.5 161.58,-771.84 157.69,-774.63 153.51,-776.93"/>
<polygon fill="#63b8ff" stroke="#63b8ff" points="256.9,-417.56 254.5,-407.24 249.94,-416.8 256.9,-417.56"/>
</a>
</g>
</g>
<!-- Node4 -->
<g id="Node000004" class="node">
<title>Node4</title>
<g id="a_Node000004"><a xlink:href="classBigDonut.html#af07674b3f0de39da096eb1b107f9df0d" target="_top" xlink:title=" ">
<polygon fill="white" stroke="#666666" points="140.5,-759 24.5,-759 24.5,-740 140.5,-740 140.5,-759"/>
<text text-anchor="middle" x="82.5" y="-747" font-family="Helvetica,sans-Serif" font-size="10.00">BigDonut::BeginPlay</text>
</a>
</g>
</g>
<!-- Node2&#45;&gt;Node4 -->
<g id="edge3_Node000002_Node000004" class="edge">
<title>Node2&#45;&gt;Node4</title>
<g id="a_edge3_Node000002_Node000004"><a xlink:title=" ">
<path fill="none" stroke="#63b8ff" d="M252.83,-417.38C243.69,-482.38 211.65,-687 165,-731.5 158.18,-738 149.58,-742.36 140.52,-745.25"/>
<polygon fill="#63b8ff" stroke="#63b8ff" points="256.32,-417.63 254.22,-407.24 249.39,-416.67 256.32,-417.63"/>
</a>
</g>
</g>
<!-- Node5 -->
<g id="Node000005" class="node">
<title>Node5</title>
<g id="a_Node000005"><a xlink:href="classBlockFort.html#aa950159c68ce91b2543b203cb117e894" target="_top" xlink:title=" ">
<polygon fill="white" stroke="#666666" points="141,-722 24,-722 24,-703 141,-703 141,-722"/>
<text text-anchor="middle" x="82.5" y="-710" font-family="Helvetica,sans-Serif" font-size="10.00">BlockFort::BeginPlay</text>
</a>
</g>
</g>
<!-- Node2&#45;&gt;Node5 -->
<g id="edge4_Node000002_Node000005" class="edge">
<title>Node2&#45;&gt;Node5</title>
<g id="a_edge4_Node000002_Node000005"><a xlink:title=" ">
<path fill="none" stroke="#63b8ff" d="M255.83,-417.43C255.56,-470.9 247.05,-618.65 165,-694.5 158.3,-700.7 149.96,-704.93 141.19,-707.8"/>
<polygon fill="#63b8ff" stroke="#63b8ff" points="259.33,-417.23 255.78,-407.24 252.33,-417.26 259.33,-417.23"/>
</a>
</g>
</g>
<!-- Node6 -->
<g id="Node000006" class="node">
<title>Node6</title>
<g id="a_Node000006"><a xlink:href="classBowsersCastle.html#ac69e2f19bec161754a90b77bb3cb49dd" target="_top" xlink:title=" ">
<polygon fill="white" stroke="#666666" points="154,-685 11,-685 11,-666 154,-666 154,-685"/>
<text text-anchor="middle" x="82.5" y="-673" font-family="Helvetica,sans-Serif" font-size="10.00">BowsersCastle::BeginPlay</text>
</a>
</g>
</g>
<!-- Node2&#45;&gt;Node6 -->
<g id="edge5_Node000002_Node000006" class="edge">
<title>Node2&#45;&gt;Node6</title>
<g id="a_edge5_Node000002_Node000006"><a xlink:title=" ">
<path fill="none" stroke="#63b8ff" d="M254.84,-417.21C252.09,-465.92 237.92,-592.68 165,-657.5 161.21,-660.87 156.93,-663.65 152.37,-665.95"/>
<polygon fill="#63b8ff" stroke="#63b8ff" points="258.34,-417.22 255.31,-407.07 251.35,-416.9 258.34,-417.22"/>
</a>
</g>
</g>
<!-- Node7 -->
<g id="Node000007" class="node">
<title>Node7</title>
<g id="a_Node000007"><a xlink:href="classChocoMountain.html#a7f3b1f20205339a6c01a8adb40a27502" target="_top" xlink:title=" ">
<polygon fill="white" stroke="#666666" points="156,-648 9,-648 9,-629 156,-629 156,-648"/>
<text text-anchor="middle" x="82.5" y="-636" font-family="Helvetica,sans-Serif" font-size="10.00">ChocoMountain::BeginPlay</text>
</a>
</g>
</g>
<!-- Node2&#45;&gt;Node7 -->
<g id="edge6_Node000002_Node000007" class="edge">
<title>Node2&#45;&gt;Node7</title>
<g id="a_edge6_Node000002_Node000007"><a xlink:title=" ">
<path fill="none" stroke="#63b8ff" d="M253.54,-417.35C248.09,-461.2 228.72,-566.68 165,-620.5 161.01,-623.87 156.54,-626.64 151.79,-628.93"/>
<polygon fill="#63b8ff" stroke="#63b8ff" points="257.02,-417.71 254.66,-407.38 250.06,-416.92 257.02,-417.71"/>
</a>
</g>
</g>
<!-- Node8 -->
<g id="Node000008" class="node">
<title>Node8</title>
<g id="a_Node000008"><a xlink:href="classDKJungle.html#af1f20969288526ce721aa9a72e535422" target="_top" xlink:title=" ">
<polygon fill="white" stroke="#666666" points="140.5,-611 24.5,-611 24.5,-592 140.5,-592 140.5,-611"/>
<text text-anchor="middle" x="82.5" y="-599" font-family="Helvetica,sans-Serif" font-size="10.00">DKJungle::BeginPlay</text>
</a>
</g>
</g>
<!-- Node2&#45;&gt;Node8 -->
<g id="edge7_Node000002_Node000008" class="edge">
<title>Node2&#45;&gt;Node8</title>
<g id="a_edge7_Node000002_Node000008"><a xlink:title=" ">
<path fill="none" stroke="#63b8ff" d="M251.87,-416.9C243.66,-455.12 219.93,-540.19 165,-583.5 157.95,-589.06 149.53,-592.99 140.82,-595.74"/>
<polygon fill="#63b8ff" stroke="#63b8ff" points="255.31,-417.53 253.86,-407.03 248.45,-416.14 255.31,-417.53"/>
</a>
</g>
</g>
<!-- Node9 -->
<g id="Node000009" class="node">
<title>Node9</title>
<g id="a_Node000009"><a xlink:href="classDoubleDeck.html#a6249973995b9850ee976397d6fcd0134" target="_top" xlink:title=" ">
<polygon fill="white" stroke="#666666" points="148,-574 17,-574 17,-555 148,-555 148,-574"/>
<text text-anchor="middle" x="82.5" y="-562" font-family="Helvetica,sans-Serif" font-size="10.00">DoubleDeck::BeginPlay</text>
</a>
</g>
</g>
<!-- Node2&#45;&gt;Node9 -->
<g id="edge8_Node000002_Node000009" class="edge">
<title>Node2&#45;&gt;Node9</title>
<g id="a_edge8_Node000002_Node000009"><a xlink:title=" ">
<path fill="none" stroke="#63b8ff" d="M249.49,-416.56C238.32,-448.71 211.22,-513.43 165,-546.5 159.93,-550.13 154.27,-553.04 148.35,-555.38"/>
<polygon fill="#63b8ff" stroke="#63b8ff" points="252.83,-417.59 252.67,-407 246.19,-415.38 252.83,-417.59"/>
</a>
</g>
</g>
<!-- Node10 -->
<g id="Node000010" class="node">
<title>Node10</title>
<g id="a_Node000010"><a xlink:href="classFrappeSnowland.html#ad24c95ef68d598ac712ce0bfa1429f0a" target="_top" xlink:title=" ">
<polygon fill="white" stroke="#666666" points="158.5,-537 6.5,-537 6.5,-518 158.5,-518 158.5,-537"/>
<text text-anchor="middle" x="82.5" y="-525" font-family="Helvetica,sans-Serif" font-size="10.00">FrappeSnowland::BeginPlay</text>
</a>
</g>
</g>
<!-- Node2&#45;&gt;Node10 -->
<g id="edge9_Node000002_Node000010" class="edge">
<title>Node2&#45;&gt;Node10</title>
<g id="a_edge9_Node000002_Node000010"><a xlink:title=" ">
<path fill="none" stroke="#63b8ff" d="M245.82,-416.07C231.63,-441.36 202.72,-486.15 165,-509.5 159.46,-512.93 153.34,-515.71 147.03,-517.97"/>
<polygon fill="#63b8ff" stroke="#63b8ff" points="248.98,-417.58 250.68,-407.13 242.83,-414.24 248.98,-417.58"/>
</a>
</g>
</g>
<!-- Node11 -->
<g id="Node000011" class="node">
<title>Node11</title>
<g id="a_Node000011"><a xlink:href="classKalimariDesert.html#aa3f0f4155f0d9a6ecfb4ca824603b81f" target="_top" xlink:title=" ">
<polygon fill="white" stroke="#666666" points="155,-500 10,-500 10,-481 155,-481 155,-500"/>
<text text-anchor="middle" x="82.5" y="-488" font-family="Helvetica,sans-Serif" font-size="10.00">KalimariDesert::BeginPlay</text>
</a>
</g>
</g>
<!-- Node2&#45;&gt;Node11 -->
<g id="edge10_Node000002_Node000011" class="edge">
<title>Node2&#45;&gt;Node11</title>
<g id="a_edge10_Node000002_Node000011"><a xlink:title=" ">
<path fill="none" stroke="#63b8ff" d="M239.46,-414.95C222.6,-432.22 194.46,-458.1 165,-472.5 157.97,-475.94 150.28,-478.72 142.52,-480.98"/>
<polygon fill="#63b8ff" stroke="#63b8ff" points="242.43,-416.91 246.79,-407.26 237.36,-412.08 242.43,-416.91"/>
</a>
</g>
</g>
<!-- Node12 -->
<g id="Node000012" class="node">
<title>Node12</title>
<g id="a_Node000012"><a xlink:href="classKoopaTroopaBeach.html#a9080e865d29d960d60c9d86d9370ea1a" target="_top" xlink:title=" ">
<polygon fill="white" stroke="#666666" points="164.5,-463 0.5,-463 0.5,-444 164.5,-444 164.5,-463"/>
<text text-anchor="middle" x="82.5" y="-451" font-family="Helvetica,sans-Serif" font-size="10.00">KoopaTroopaBeach::BeginPlay</text>
</a>
</g>
</g>
<!-- Node2&#45;&gt;Node12 -->
<g id="edge11_Node000002_Node000012" class="edge">
<title>Node2&#45;&gt;Node12</title>
<g id="a_edge11_Node000002_Node000012"><a xlink:title=" ">
<path fill="none" stroke="#63b8ff" d="M226.63,-411.19C209.1,-419.11 186.1,-428.8 165,-435.5 154.92,-438.7 143.96,-441.54 133.44,-443.96"/>
<polygon fill="#63b8ff" stroke="#63b8ff" points="228.13,-414.36 235.76,-407.01 225.21,-407.99 228.13,-414.36"/>
</a>
</g>
</g>
<!-- Node13 -->
<g id="Node000013" class="node">
<title>Node13</title>
<g id="a_Node000013"><a xlink:href="classLuigiRaceway.html#a00b59b5b947f751c540ecfe6483b7703" target="_top" xlink:title=" ">
<polygon fill="white" stroke="#666666" points="151.5,-426 13.5,-426 13.5,-407 151.5,-407 151.5,-426"/>
<text text-anchor="middle" x="82.5" y="-414" font-family="Helvetica,sans-Serif" font-size="10.00">LuigiRaceway::BeginPlay</text>
</a>
</g>
</g>
<!-- Node2&#45;&gt;Node13 -->
<g id="edge12_Node000002_Node000013" class="edge">
<title>Node2&#45;&gt;Node13</title>
<g id="a_edge12_Node000002_Node000013"><a xlink:title=" ">
<path fill="none" stroke="#63b8ff" d="M190.59,-404.67C177.9,-406.07 164.55,-407.55 151.75,-408.96"/>
<polygon fill="#63b8ff" stroke="#63b8ff" points="191.05,-408.14 200.61,-403.56 190.28,-401.18 191.05,-408.14"/>
</a>
</g>
</g>
<!-- Node14 -->
<g id="Node000014" class="node">
<title>Node14</title>
<g id="a_Node000014"><a xlink:href="classMarioRaceway.html#add93404089a3200bf3345cccbaaaff2d" target="_top" xlink:title=" ">
<polygon fill="white" stroke="#666666" points="154,-389 11,-389 11,-370 154,-370 154,-389"/>
<text text-anchor="middle" x="82.5" y="-377" font-family="Helvetica,sans-Serif" font-size="10.00">MarioRaceway::BeginPlay</text>
</a>
</g>
</g>
<!-- Node2&#45;&gt;Node14 -->
<g id="edge13_Node000002_Node000014" class="edge">
<title>Node2&#45;&gt;Node14</title>
<g id="a_edge13_Node000002_Node000014"><a xlink:title=" ">
<path fill="none" stroke="#63b8ff" d="M190.39,-390.69C178.57,-389.45 166.19,-388.15 154.22,-386.9"/>
<polygon fill="#63b8ff" stroke="#63b8ff" points="190.3,-394.2 200.61,-391.76 191.02,-387.23 190.3,-394.2"/>
</a>
</g>
</g>
<!-- Node15 -->
<g id="Node000015" class="node">
<title>Node15</title>
<g id="a_Node000015"><a xlink:href="classMooMooFarm.html#a7b794a6f0f3e7955abb3ec2e77c7b30d" target="_top" xlink:title=" ">
<polygon fill="white" stroke="#666666" points="151,-352 14,-352 14,-333 151,-333 151,-352"/>
<text text-anchor="middle" x="82.5" y="-340" font-family="Helvetica,sans-Serif" font-size="10.00">MooMooFarm::BeginPlay</text>
</a>
</g>
</g>
<!-- Node2&#45;&gt;Node15 -->
<g id="edge14_Node000002_Node000015" class="edge">
<title>Node2&#45;&gt;Node15</title>
<g id="a_edge14_Node000002_Node000015"><a xlink:title=" ">
<path fill="none" stroke="#63b8ff" d="M214.27,-384.59C209.76,-382.97 205.26,-381.26 201,-379.5 184.46,-372.68 181.83,-367.57 165,-361.5 154.75,-357.8 143.51,-354.64 132.74,-352.02"/>
<polygon fill="#63b8ff" stroke="#63b8ff" points="213.49,-388.02 224.09,-387.99 215.78,-381.41 213.49,-388.02"/>
</a>
</g>
</g>
<!-- Node16 -->
<g id="Node000016" class="node">
<title>Node16</title>
<g id="a_Node000016"><a xlink:href="classPodiumCeremony.html#a65cdc7a796ddbace20d38e2a6af2335c" target="_top" xlink:title=" ">
<polygon fill="white" stroke="#666666" points="161.5,-315 3.5,-315 3.5,-296 161.5,-296 161.5,-315"/>
<text text-anchor="middle" x="82.5" y="-303" font-family="Helvetica,sans-Serif" font-size="10.00">PodiumCeremony::BeginPlay</text>
</a>
</g>
</g>
<!-- Node2&#45;&gt;Node16 -->
<g id="edge15_Node000002_Node000016" class="edge">
<title>Node2&#45;&gt;Node16</title>
<g id="a_edge15_Node000002_Node000016"><a xlink:title=" ">
<path fill="none" stroke="#63b8ff" d="M206.69,-383.34C204.71,-382.16 202.8,-380.88 201,-379.5 177.83,-361.7 188.94,-341.24 165,-324.5 159.52,-320.67 153.38,-317.6 146.99,-315.15"/>
<polygon fill="#63b8ff" stroke="#63b8ff" points="205.28,-386.55 215.79,-387.93 208.44,-380.3 205.28,-386.55"/>
</a>
</g>
</g>
<!-- Node17 -->
<g id="Node000017" class="node">
<title>Node17</title>
<g id="a_Node000017"><a xlink:href="classRainbowRoad.html#adbdfd88223a14b4db65eda47b316b15b" target="_top" xlink:title=" ">
<polygon fill="white" stroke="#666666" points="151.5,-278 13.5,-278 13.5,-259 151.5,-259 151.5,-278"/>
<text text-anchor="middle" x="82.5" y="-266" font-family="Helvetica,sans-Serif" font-size="10.00">RainbowRoad::BeginPlay</text>
</a>
</g>
</g>
<!-- Node2&#45;&gt;Node17 -->
<g id="edge16_Node000002_Node000017" class="edge">
<title>Node2&#45;&gt;Node17</title>
<g id="a_edge16_Node000002_Node000017"><a xlink:title=" ">
<path fill="none" stroke="#63b8ff" d="M204.57,-382.53C203.33,-381.58 202.13,-380.57 201,-379.5 169.13,-349.3 198.2,-316.23 165,-287.5 160.61,-283.7 155.6,-280.62 150.27,-278.13"/>
<polygon fill="#63b8ff" stroke="#63b8ff" points="203.09,-385.72 213.45,-387.95 206.74,-379.75 203.09,-385.72"/>
</a>
</g>
</g>
<!-- Node18 -->
<g id="Node000018" class="node">
<title>Node18</title>
<g id="a_Node000018"><a xlink:href="classRoyalRaceway.html#a417f6ebceb092a23aebc5448e8f1241e" target="_top" xlink:title=" ">
<polygon fill="white" stroke="#666666" points="154,-241 11,-241 11,-222 154,-222 154,-241"/>
<text text-anchor="middle" x="82.5" y="-229" font-family="Helvetica,sans-Serif" font-size="10.00">RoyalRaceway::BeginPlay</text>
</a>
</g>
</g>
<!-- Node2&#45;&gt;Node18 -->
<g id="edge17_Node000002_Node000018" class="edge">
<title>Node2&#45;&gt;Node18</title>
<g id="a_edge17_Node000002_Node000018"><a xlink:title=" ">
<path fill="none" stroke="#63b8ff" d="M203.87,-382.21C202.87,-381.36 201.91,-380.45 201,-379.5 159.91,-336.44 207.99,-291.67 165,-250.5 161.01,-246.68 156.41,-243.58 151.47,-241.06"/>
<polygon fill="#63b8ff" stroke="#63b8ff" points="202.05,-385.2 212.3,-387.87 205.95,-379.39 202.05,-385.2"/>
</a>
</g>
</g>
<!-- Node19 -->
<g id="Node000019" class="node">
<title>Node19</title>
<g id="a_Node000019"><a xlink:href="classSherbetLand.html#aaf3ff18960e8e9896f51bd93e2d8ff9a" target="_top" xlink:title=" ">
<polygon fill="white" stroke="#666666" points="148.5,-204 16.5,-204 16.5,-185 148.5,-185 148.5,-204"/>
<text text-anchor="middle" x="82.5" y="-192" font-family="Helvetica,sans-Serif" font-size="10.00">SherbetLand::BeginPlay</text>
</a>
</g>
</g>
<!-- Node2&#45;&gt;Node19 -->
<g id="edge18_Node000002_Node000019" class="edge">
<title>Node2&#45;&gt;Node19</title>
<g id="a_edge18_Node000002_Node000019"><a xlink:title=" ">
<path fill="none" stroke="#63b8ff" d="M203.42,-381.94C202.57,-381.16 201.77,-380.35 201,-379.5 150.51,-323.38 217.97,-267.29 165,-213.5 160.31,-208.74 154.68,-205.07 148.59,-202.27"/>
<polygon fill="#63b8ff" stroke="#63b8ff" points="201.66,-384.98 211.84,-387.91 205.71,-379.27 201.66,-384.98"/>
</a>
</g>
</g>
<!-- Node20 -->
<g id="Node000020" class="node">
<title>Node20</title>
<g id="a_Node000020"><a xlink:href="classSkyscraper.html#a14953e622cb718b01891d1b5884809d7" target="_top" xlink:title=" ">
<polygon fill="white" stroke="#666666" points="145,-167 20,-167 20,-148 145,-148 145,-167"/>
<text text-anchor="middle" x="82.5" y="-155" font-family="Helvetica,sans-Serif" font-size="10.00">Skyscraper::BeginPlay</text>
</a>
</g>
</g>
<!-- Node2&#45;&gt;Node20 -->
<g id="edge19_Node000002_Node000020" class="edge">
<title>Node2&#45;&gt;Node20</title>
<g id="a_edge19_Node000002_Node000020"><a xlink:title=" ">
<path fill="none" stroke="#63b8ff" d="M203.32,-381.93C202.51,-381.16 201.73,-380.35 201,-379.5 141.02,-310.23 228.04,-243 165,-176.5 159.5,-170.7 152.61,-166.52 145.16,-163.52"/>
<polygon fill="#63b8ff" stroke="#63b8ff" points="201.31,-384.79 211.44,-387.88 205.45,-379.15 201.31,-384.79"/>
</a>
</g>
</g>
<!-- Node21 -->
<g id="Node000021" class="node">
<title>Node21</title>
<g id="a_Node000021"><a xlink:href="classTestTrack.html#a2837e5e48c268d15ca1590ced6aa7a00" target="_top" xlink:title=" ">
<polygon fill="white" stroke="#666666" points="140.5,-130 24.5,-130 24.5,-111 140.5,-111 140.5,-130"/>
<text text-anchor="middle" x="82.5" y="-118" font-family="Helvetica,sans-Serif" font-size="10.00">TestTrack::BeginPlay</text>
</a>
</g>
</g>
<!-- Node2&#45;&gt;Node21 -->
<g id="edge20_Node000002_Node000021" class="edge">
<title>Node2&#45;&gt;Node21</title>
<g id="a_edge20_Node000002_Node000021"><a xlink:title=" ">
<path fill="none" stroke="#63b8ff" d="M203.29,-381.95C202.49,-381.17 201.72,-380.36 201,-379.5 131.49,-297.03 238.15,-218.76 165,-139.5 158.5,-132.45 149.93,-127.78 140.8,-124.72"/>
<polygon fill="#63b8ff" stroke="#63b8ff" points="201.24,-384.79 211.35,-387.96 205.42,-379.18 201.24,-384.79"/>
</a>
</g>
</g>
<!-- Node22 -->
<g id="Node000022" class="node">
<title>Node22</title>
<g id="a_Node000022"><a xlink:href="classToadsTurnpike.html#a25009a2dd4f7e438741965b0a9fc9a7e" target="_top" xlink:title=" ">
<polygon fill="white" stroke="#666666" points="152.5,-93 12.5,-93 12.5,-74 152.5,-74 152.5,-93"/>
<text text-anchor="middle" x="82.5" y="-81" font-family="Helvetica,sans-Serif" font-size="10.00">ToadsTurnpike::BeginPlay</text>
</a>
</g>
</g>
<!-- Node2&#45;&gt;Node22 -->
<g id="edge21_Node000002_Node000022" class="edge">
<title>Node2&#45;&gt;Node22</title>
<g id="a_edge21_Node000002_Node000022"><a xlink:title=" ">
<path fill="none" stroke="#63b8ff" d="M202.92,-381.63C202.25,-380.95 201.61,-380.24 201,-379.5 121.93,-283.79 248.3,-194.55 165,-102.5 161.49,-98.62 157.36,-95.46 152.84,-92.89"/>
<polygon fill="#63b8ff" stroke="#63b8ff" points="200.96,-384.54 211.02,-387.87 205.23,-378.99 200.96,-384.54"/>
</a>
</g>
</g>
<!-- Node23 -->
<g id="Node000023" class="node">
<title>Node23</title>
<g id="a_Node000023"><a xlink:href="classWarioStadium.html#a4378b74fb0c8f22034f5235ff051e53d" target="_top" xlink:title=" ">
<polygon fill="white" stroke="#666666" points="152.5,-56 12.5,-56 12.5,-37 152.5,-37 152.5,-56"/>
<text text-anchor="middle" x="82.5" y="-44" font-family="Helvetica,sans-Serif" font-size="10.00">WarioStadium::BeginPlay</text>
</a>
</g>
</g>
<!-- Node2&#45;&gt;Node23 -->
<g id="edge22_Node000002_Node000023" class="edge">
<title>Node2&#45;&gt;Node23</title>
<g id="a_edge22_Node000002_Node000023"><a xlink:title=" ">
<path fill="none" stroke="#63b8ff" d="M202.91,-381.64C202.24,-380.96 201.61,-380.24 201,-379.5 112.35,-270.54 258.46,-170.37 165,-65.5 161.42,-61.49 157.18,-58.24 152.53,-55.61"/>
<polygon fill="#63b8ff" stroke="#63b8ff" points="200.93,-384.53 210.97,-387.91 205.22,-379.01 200.93,-384.53"/>
</a>
</g>
</g>
<!-- Node24 -->
<g id="Node000024" class="node">
<title>Node24</title>
<g id="a_Node000024"><a xlink:href="classYoshiValley.html#aeb7285a3e855f75b8a1bde321834be1b" target="_top" xlink:title=" ">
<polygon fill="white" stroke="#666666" points="145,-19 20,-19 20,0 145,0 145,-19"/>
<text text-anchor="middle" x="82.5" y="-7" font-family="Helvetica,sans-Serif" font-size="10.00">YoshiValley::BeginPlay</text>
</a>
</g>
</g>
<!-- Node2&#45;&gt;Node24 -->
<g id="edge23_Node000002_Node000024" class="edge">
<title>Node2&#45;&gt;Node24</title>
<g id="a_edge23_Node000002_Node000024"><a xlink:title=" ">
<path fill="none" stroke="#63b8ff" d="M202.89,-381.65C202.23,-380.96 201.6,-380.25 201,-379.5 102.76,-257.27 268.64,-146.19 165,-28.5 159.62,-22.39 152.7,-18.05 145.16,-14.99"/>
<polygon fill="#63b8ff" stroke="#63b8ff" points="200.9,-384.53 210.93,-387.94 205.21,-379.02 200.9,-384.53"/>
</a>
</g>
</g>
</g>
</svg>

<g id="navigator" transform="translate(0 0)" fill="#404254">
  <rect fill="#f2f5e9" fill-opacity="0.5" stroke="#606060" stroke-width=".5" x="0" y="0" width="60" height="60"/>
  <use id="zoomplus" xlink:href="#zoomPlus" x="17" y="9" onmousedown="handleZoom(evt,'in')"/>
  <use id="zoomminus" xlink:href="#zoomMin" x="42" y="9" onmousedown="handleZoom(evt,'out')"/>
  <use id="reset" xlink:href="#resetDef" x="30" y="36" onmousedown="handleReset()"/>
   <use id="arrowup" xlink:href="#arrowUp" x="0" y="0" onmousedown="handlePan(0,-1)"/>
  <use id="arrowright" xlink:href="#arrowRight" x="0" y="0" onmousedown="handlePan(1,0)"/>
  <use id="arrowdown" xlink:href="#arrowDown" x="0" y="0" onmousedown="handlePan(0,1)"/>
  <use id="arrowleft" xlink:href="#arrowLeft" x="0" y="0" onmousedown="handlePan(-1,0)"/>
</g>
<svg viewBox="0 0 15 15" width="100%" height="30px" preserveAspectRatio="xMaxYMin meet">
 <g id="arrow_out" transform="scale(0.3 0.3)">
  <a xlink:href="classOBombKart_a1566e8d56318b18ad900fbbac9966d9d_icgraph_org.svg" target="_base">
   <rect id="button" ry="5" rx="5" y="6" x="6" height="38" width="38"
        fill="#f2f5e9" fill-opacity="0.5" stroke="#606060" stroke-width="1.0"/>
   <path id="arrow"
     d="M 11.500037,31.436501 C 11.940474,20.09759 22.043105,11.32322 32.158766,21.979434 L 37.068811,17.246167 C 37.068811,17.246167 37.088388,32 37.088388,32 L 22.160133,31.978069 C 22.160133,31.978069 26.997745,27.140456 26.997745,27.140456 C 18.528582,18.264221 13.291696,25.230495 11.500037,31.436501 z"
     style="fill:#404040;"/>
  </a>
 </g>
</svg>

<style type='text/css'>
<![CDATA[
[data-mouse-over-selected='false'] { opacity: 0.7; }
[data-mouse-over-selected='true']  { opacity: 1.0; }
]]>
</style>
<script type="application/ecmascript"><![CDATA[
document.addEventListener('DOMContentLoaded', (event) => {
  highlightEdges();
  highlightAdjacentNodes();
});
]]></script>
</svg>
