<?xml version="1.0" encoding="UTF-8" standalone="no"?>
<!DOCTYPE svg PUBLIC "-//W3C//DTD SVG 1.1//EN"
 "http://www.w3.org/Graphics/SVG/1.1/DTD/svg11.dtd">
<!-- Generated by graphviz version 2.43.0 (0)
 -->
<!-- Title: SherbetLand::DrawWater Pages: 1 -->
<svg width="723pt" height="213pt"
 viewBox="0.00 0.00 723.00 213.00" xmlns="http://www.w3.org/2000/svg" xmlns:xlink="http://www.w3.org/1999/xlink">
<g id="graph0" class="graph" transform="scale(1 1) rotate(0) translate(4 209)">
<title>SherbetLand::DrawWater</title>
<!-- Node1 -->
<g id="Node000001" class="node">
<title>Node1</title>
<g id="a_Node000001"><a xlink:title=" ">
<polygon fill="#999999" stroke="#666666" points="137,-149 0,-149 0,-130 137,-130 137,-149"/>
<text text-anchor="middle" x="68.5" y="-137" font-family="Helvetica,sans-Serif" font-size="10.00">SherbetLand::DrawWater</text>
</a>
</g>
</g>
<!-- Node2 -->
<g id="Node000002" class="node">
<title>Node2</title>
<g id="a_Node000002"><a xlink:href="render__courses_8c.html#a9a9119b96bf015cf8b5a168485f67e3f" target="_top" xlink:title=" ">
<polygon fill="white" stroke="#666666" points="281,-205 189,-205 189,-186 281,-186 281,-205"/>
<text text-anchor="middle" x="235" y="-193" font-family="Helvetica,sans-Serif" font-size="10.00">func_80290C20</text>
</a>
</g>
</g>
<!-- Node1&#45;&gt;Node2 -->
<g id="edge1_Node000001_Node000002" class="edge">
<title>Node1&#45;&gt;Node2</title>
<g id="a_edge1_Node000001_Node000002"><a xlink:title=" ">
<path fill="none" stroke="#63b8ff" d="M94.02,-149.01C114.89,-156.99 145.74,-168.48 173,-177.5 178.64,-179.37 184.61,-181.24 190.51,-183.04"/>
<polygon fill="#63b8ff" stroke="#63b8ff" points="189.73,-186.46 200.32,-185.99 191.75,-179.76 189.73,-186.46"/>
</a>
</g>
</g>
<!-- Node3 -->
<g id="Node000003" class="node">
<title>Node3</title>
<g id="a_Node000003"><a xlink:href="collision_8c.html#a61760d2ed3e30640a95e872ea8afc900" target="_top" xlink:title=" ">
<polygon fill="white" stroke="#666666" points="282.5,-168 187.5,-168 187.5,-149 282.5,-149 282.5,-168"/>
<text text-anchor="middle" x="235" y="-156" font-family="Helvetica,sans-Serif" font-size="10.00">get_water_level</text>
</a>
</g>
</g>
<!-- Node1&#45;&gt;Node3 -->
<g id="edge2_Node000001_Node000003" class="edge">
<title>Node1&#45;&gt;Node3</title>
<g id="a_edge2_Node000001_Node000003"><a xlink:title=" ">
<path fill="none" stroke="#63b8ff" d="M137.36,-147.34C150.63,-148.87 164.41,-150.46 177.27,-151.95"/>
<polygon fill="#63b8ff" stroke="#63b8ff" points="177.02,-155.44 187.36,-153.11 177.83,-148.49 177.02,-155.44"/>
</a>
</g>
</g>
<!-- Node5 -->
<g id="Node000005" class="node">
<title>Node5</title>
<g id="a_Node000005"><a xlink:href="GBIMiddleware_8cpp.html#a4ecc44e3c6f1ca5a6b4a20c41d3bd2d2" target="_top" xlink:title=" ">
<polygon fill="white" stroke="#666666" points="436,-130 347,-130 347,-111 436,-111 436,-130"/>
<text text-anchor="middle" x="391.5" y="-118" font-family="Helvetica,sans-Serif" font-size="10.00">gSPDisplayList</text>
</a>
</g>
</g>
<!-- Node1&#45;&gt;Node5 -->
<g id="edge4_Node000001_Node000005" class="edge">
<title>Node1&#45;&gt;Node5</title>
<g id="a_edge4_Node000001_Node000005"><a xlink:title=" ">
<path fill="none" stroke="#63b8ff" d="M137.18,-135.49C196.46,-131.99 281.46,-126.95 336.33,-123.71"/>
<polygon fill="#63b8ff" stroke="#63b8ff" points="336.77,-127.19 346.54,-123.1 336.35,-120.2 336.77,-127.19"/>
</a>
</g>
</g>
<!-- Node8 -->
<g id="Node000008" class="node">
<title>Node8</title>
<g id="a_Node000008"><a xlink:href="render__courses_8c.html#aa2d036c2083162fb6a9fe86ebd20386b" target="_top" xlink:title=" ">
<polygon fill="white" stroke="#666666" points="297,-92 173,-92 173,-73 297,-73 297,-92"/>
<text text-anchor="middle" x="235" y="-80" font-family="Helvetica,sans-Serif" font-size="10.00">render_track_sections</text>
</a>
</g>
</g>
<!-- Node1&#45;&gt;Node8 -->
<g id="edge7_Node000001_Node000008" class="edge">
<title>Node1&#45;&gt;Node8</title>
<g id="a_edge7_Node000001_Node000008"><a xlink:title=" ">
<path fill="none" stroke="#63b8ff" d="M97.03,-129.96C124.32,-120.51 166.3,-105.96 196.59,-95.46"/>
<polygon fill="#63b8ff" stroke="#63b8ff" points="198.07,-98.65 206.38,-92.07 195.78,-92.04 198.07,-98.65"/>
</a>
</g>
</g>
<!-- Node4 -->
<g id="Node000004" class="node">
<title>Node4</title>
<g id="a_Node000004"><a xlink:href="Game_8cpp.html#a7ff5610a2d67bb8a510d93cf238e6ffb" target="_top" xlink:title=" ">
<polygon fill="white" stroke="#666666" points="446.5,-168 336.5,-168 336.5,-149 446.5,-149 446.5,-168"/>
<text text-anchor="middle" x="391.5" y="-156" font-family="Helvetica,sans-Serif" font-size="10.00">CM_GetWaterLevel</text>
</a>
</g>
</g>
<!-- Node3&#45;&gt;Node4 -->
<g id="edge3_Node000003_Node000004" class="edge">
<title>Node3&#45;&gt;Node4</title>
<g id="a_edge3_Node000003_Node000004"><a xlink:title=" ">
<path fill="none" stroke="#63b8ff" d="M282.77,-158.5C296.35,-158.5 311.43,-158.5 325.9,-158.5"/>
<polygon fill="#63b8ff" stroke="#63b8ff" points="326.29,-162 336.29,-158.5 326.29,-155 326.29,-162"/>
</a>
</g>
</g>
<!-- Node6 -->
<g id="Node000006" class="node">
<title>Node6</title>
<g id="a_Node000006"><a xlink:href="Engine_8cpp.html#a223c8bc63f228dc11177515e38eff2db" target="_top" xlink:title=" ">
<polygon fill="white" stroke="#666666" points="635,-130 486,-130 486,-111 635,-111 635,-130"/>
<text text-anchor="middle" x="560.5" y="-118" font-family="Helvetica,sans-Serif" font-size="10.00">GameEngine_OTRSigCheck</text>
</a>
</g>
</g>
<!-- Node5&#45;&gt;Node6 -->
<g id="edge5_Node000005_Node000006" class="edge">
<title>Node5&#45;&gt;Node6</title>
<g id="a_edge5_Node000005_Node000006"><a xlink:title=" ">
<path fill="none" stroke="#63b8ff" d="M436.38,-120.5C448.47,-120.5 462,-120.5 475.55,-120.5"/>
<polygon fill="#63b8ff" stroke="#63b8ff" points="475.89,-124 485.89,-120.5 475.89,-117 475.89,-124"/>
</a>
</g>
</g>
<!-- Node7 -->
<g id="Node000007" class="node">
<title>Node7</title>
<g id="a_Node000007"><a xlink:href="string_8c.html#a008e171a518fe0e0352f31b245e03875" target="_top" xlink:title=" ">
<polygon fill="white" stroke="#666666" points="715,-130 671,-130 671,-111 715,-111 715,-130"/>
<text text-anchor="middle" x="693" y="-118" font-family="Helvetica,sans-Serif" font-size="10.00">strlen</text>
</a>
</g>
</g>
<!-- Node6&#45;&gt;Node7 -->
<g id="edge6_Node000006_Node000007" class="edge">
<title>Node6&#45;&gt;Node7</title>
<g id="a_edge6_Node000006_Node000007"><a xlink:title=" ">
<path fill="none" stroke="#63b8ff" d="M635.14,-120.5C644.12,-120.5 652.89,-120.5 660.75,-120.5"/>
<polygon fill="#63b8ff" stroke="#63b8ff" points="660.83,-124 670.83,-120.5 660.83,-117 660.83,-124"/>
</a>
</g>
</g>
<!-- Node8&#45;&gt;Node5 -->
<g id="edge9_Node000008_Node000005" class="edge">
<title>Node8&#45;&gt;Node5</title>
<g id="a_edge9_Node000008_Node000005"><a xlink:title=" ">
<path fill="none" stroke="#63b8ff" d="M274.99,-92.09C295.28,-97.08 320.29,-103.23 341.85,-108.53"/>
<polygon fill="#63b8ff" stroke="#63b8ff" points="341.25,-111.99 351.79,-110.98 342.92,-105.19 341.25,-111.99"/>
</a>
</g>
</g>
<!-- Node9 -->
<g id="Node000009" class="node">
<title>Node9</title>
<g id="a_Node000009"><a xlink:href="collision_8c.html#a053809031f467d0a6747788211e0ec69" target="_top" xlink:title=" ">
<polygon fill="white" stroke="#666666" points="450,-93 333,-93 333,-74 450,-74 450,-93"/>
<text text-anchor="middle" x="391.5" y="-81" font-family="Helvetica,sans-Serif" font-size="10.00">get_track_section_id</text>
</a>
</g>
</g>
<!-- Node8&#45;&gt;Node9 -->
<g id="edge8_Node000008_Node000009" class="edge">
<title>Node8&#45;&gt;Node9</title>
<g id="a_edge8_Node000008_Node000009"><a xlink:title=" ">
<path fill="none" stroke="#63b8ff" d="M297.06,-82.9C305.46,-82.95 314.12,-83.01 322.63,-83.06"/>
<polygon fill="#63b8ff" stroke="#63b8ff" points="322.88,-86.56 332.9,-83.13 322.92,-79.56 322.88,-86.56"/>
</a>
</g>
</g>
<!-- Node10 -->
<g id="Node000010" class="node">
<title>Node10</title>
<g id="a_Node000010"><a xlink:href="Game_8cpp.html#a8ebd6a4d970e4333ab5a9dd66c3d9c48" target="_top" xlink:title=" ">
<polygon fill="white" stroke="#666666" points="440,-56 343,-56 343,-37 440,-37 440,-56"/>
<text text-anchor="middle" x="391.5" y="-44" font-family="Helvetica,sans-Serif" font-size="10.00">IsBowsersCastle</text>
</a>
</g>
</g>
<!-- Node8&#45;&gt;Node10 -->
<g id="edge10_Node000008_Node000010" class="edge">
<title>Node8&#45;&gt;Node10</title>
<g id="a_edge10_Node000008_Node000010"><a xlink:title=" ">
<path fill="none" stroke="#63b8ff" d="M277,-72.95C296.28,-68.45 319.46,-63.05 339.83,-58.31"/>
<polygon fill="#63b8ff" stroke="#63b8ff" points="340.63,-61.71 349.58,-56.03 339.05,-54.9 340.63,-61.71"/>
</a>
</g>
</g>
<!-- Node11 -->
<g id="Node000011" class="node">
<title>Node11</title>
<g id="a_Node000011"><a xlink:href="Game_8cpp.html#a9f5c2ace915f66e850628695f297b1ff" target="_top" xlink:title=" ">
<polygon fill="white" stroke="#666666" points="442,-19 341,-19 341,0 442,0 442,-19"/>
<text text-anchor="middle" x="391.5" y="-7" font-family="Helvetica,sans-Serif" font-size="10.00">IsChocoMountain</text>
</a>
</g>
</g>
<!-- Node8&#45;&gt;Node11 -->
<g id="edge11_Node000008_Node000011" class="edge">
<title>Node8&#45;&gt;Node11</title>
<g id="a_edge11_Node000008_Node000011"><a xlink:title=" ">
<path fill="none" stroke="#63b8ff" d="M250.61,-72.9C269.17,-61.03 302.46,-40.76 333,-27.5 337.16,-25.69 341.56,-23.98 346,-22.39"/>
<polygon fill="#63b8ff" stroke="#63b8ff" points="347.37,-25.62 355.71,-19.08 345.11,-18.99 347.37,-25.62"/>
</a>
</g>
</g>
</g>
</svg>
