<?xml version="1.0" encoding="UTF-8" standalone="no"?>
<!DOCTYPE svg PUBLIC "-//W3C//DTD SVG 1.1//EN"
 "http://www.w3.org/Graphics/SVG/1.1/DTD/svg11.dtd">
<!-- Generated by graphviz version 2.43.0 (0)
 -->
<!-- Title: Editor::ToolsWindow::DrawElement Pages: 1 -->
<!--zoomable 224 -->

<svg id="main" version="1.1" xmlns="http://www.w3.org/2000/svg" xmlns:xlink="http://www.w3.org/1999/xlink" xml:space="preserve" onload="init(evt)">

<style type="text/css"><![CDATA[
.node, .edge {opacity: 0.7;}
.node.selected, .edge.selected {opacity: 1;}
.edge:hover path { stroke: red; }
.edge:hover polygon { stroke: red; fill: red; }
]]></style>

<defs>
  <circle id="rim" cx="0" cy="0" r="7"/>
  <circle id="rim2" cx="0" cy="0" r="3.5"/>
  <g id="zoomPlus">
    <use xlink:href="#rim" fill="#404040"><set attributeName="fill" to="#808080" begin="zoomplus.mouseover" end="zoomplus.mouseout"/></use>
    <path d="M-4,0h8M0,-4v8" fill="none" stroke="white" stroke-width="1.5" pointer-events="none"/>
  </g>
  <g id="zoomMin">
    <use xlink:href="#rim" fill="#404040"><set attributeName="fill" to="#808080" begin="zoomminus.mouseover" end="zoomminus.mouseout"/></use>
    <path d="M-4,0h8" fill="none" stroke="white" stroke-width="1.5" pointer-events="none"/>
  </g>
  <g id="arrowUp" transform="translate(30 24)">
    <use xlink:href="#rim"/>
    <path pointer-events="none" fill="none" stroke="white" stroke-width="1.5" d="M0,-3.0v7 M-2.5,-0.5L0,-3.0L2.5,-0.5"/>
  </g>
  <g id="arrowRight" transform="rotate(90) translate(36 -43)">
    <use xlink:href="#rim"/>
    <path pointer-events="none" fill="none" stroke="white" stroke-width="1.5" d="M0,-3.0v7 M-2.5,-0.5L0,-3.0L2.5,-0.5"/>
  </g>
  <g id="arrowDown" transform="rotate(180) translate(-30 -48)">
    <use xlink:href="#rim"/>
    <path pointer-events="none" fill="none" stroke="white" stroke-width="1.5" d="M0,-3.0v7 M-2.5,-0.5L0,-3.0L2.5,-0.5"/>
  </g>
  <g id="arrowLeft" transform="rotate(270) translate(-36 17)">
    <use xlink:href="#rim"/>
    <path pointer-events="none" fill="none" stroke="white" stroke-width="1.5" d="M0,-3.0v7 M-2.5,-0.5L0,-3.0L2.5,-0.5"/>
  </g>
  <g id="resetDef">
    <use xlink:href="#rim2" fill="#404040"><set attributeName="fill" to="#808080" begin="reset.mouseover" end="reset.mouseout"/></use>
  </g>
</defs>
<script type="application/ecmascript">
var viewWidth = 773;
var viewHeight = 224;
var sectionId = 'dynsection-2';
</script>
<script type="application/ecmascript" xlink:href="svg.min.js"/>
<svg id="graph" class="graph">
<g id="viewport">
<title>Editor::ToolsWindow::DrawElement</title>
<!-- Node1 -->
<g id="Node000001" class="node">
<title>Node1</title>
<g id="a_Node000001"><a xlink:title=" ">
<polygon fill="#999999" stroke="#666666" points="115,-125.5 0,-125.5 0,-95.5 115,-95.5 115,-125.5"/>
<text text-anchor="start" x="8" y="-113.5" font-family="Helvetica,sans-Serif" font-size="10.00">Editor::ToolsWindow</text>
<text text-anchor="middle" x="57.5" y="-102.5" font-family="Helvetica,sans-Serif" font-size="10.00">::DrawElement</text>
</a>
</g>
</g>
<!-- Node2 -->
<g id="Node000002" class="node">
<title>Node2</title>
<g id="a_Node000002"><a xlink:href="Game_8cpp.html#a6c3b9e6da7b395aa8a1b97ba2e966fff" target="_top" xlink:title=" ">
<polygon fill="white" stroke="#666666" points="255,-179 162,-179 162,-160 255,-160 255,-179"/>
<text text-anchor="middle" x="208.5" y="-167" font-family="Helvetica,sans-Serif" font-size="10.00">CM_ResetAudio</text>
</a>
</g>
</g>
<!-- Node1&#45;&gt;Node2 -->
<g id="edge1_Node000001_Node000002" class="edge">
<title>Node1&#45;&gt;Node2</title>
<g id="a_edge1_Node000001_Node000002"><a xlink:title=" ">
<path fill="none" stroke="#63b8ff" d="M90.25,-125.6C107.94,-133.75 130.47,-143.71 151,-151.5 155.75,-153.3 160.77,-155.08 165.78,-156.77"/>
<polygon fill="#63b8ff" stroke="#63b8ff" points="164.73,-160.11 175.32,-159.91 166.91,-153.46 164.73,-160.11"/>
</a>
</g>
</g>
<!-- Node6 -->
<g id="Node000006" class="node">
<title>Node6</title>
<g id="a_Node000006"><a xlink:href="Game_8cpp.html#adabb5b527520eaa3b7cc42fa98a4b334" target="_top" xlink:title=" ">
<polygon fill="white" stroke="#666666" points="265,-142 152,-142 152,-123 265,-123 265,-142"/>
<text text-anchor="middle" x="208.5" y="-130" font-family="Helvetica,sans-Serif" font-size="10.00">CM_SetFreeCamera</text>
</a>
</g>
</g>
<!-- Node1&#45;&gt;Node6 -->
<g id="edge5_Node000001_Node000006" class="edge">
<title>Node1&#45;&gt;Node6</title>
<g id="a_edge5_Node000001_Node000006"><a xlink:title=" ">
<path fill="none" stroke="#63b8ff" d="M115.26,-118.88C123.98,-120.17 133.05,-121.51 141.94,-122.82"/>
<polygon fill="#63b8ff" stroke="#63b8ff" points="141.48,-126.29 151.89,-124.29 142.51,-119.37 141.48,-126.29"/>
</a>
</g>
</g>
<!-- Node7 -->
<g id="Node000007" class="node">
<title>Node7</title>
<g id="a_Node000007"><a xlink:href="classEditor_1_1ToolsWindow.html#a282351dc0b0b85fbb4960bf819e710da" target="_top" xlink:title=" ">
<polygon fill="white" stroke="#666666" points="266,-104.5 151,-104.5 151,-74.5 266,-74.5 266,-104.5"/>
<text text-anchor="start" x="159" y="-92.5" font-family="Helvetica,sans-Serif" font-size="10.00">Editor::ToolsWindow</text>
<text text-anchor="middle" x="208.5" y="-81.5" font-family="Helvetica,sans-Serif" font-size="10.00">::GameSpeed</text>
</a>
</g>
</g>
<!-- Node1&#45;&gt;Node7 -->
<g id="edge6_Node000001_Node000007" class="edge">
<title>Node1&#45;&gt;Node7</title>
<g id="a_edge6_Node000001_Node000007"><a xlink:title=" ">
<path fill="none" stroke="#63b8ff" d="M115.26,-102.5C123.65,-101.32 132.36,-100.09 140.93,-98.88"/>
<polygon fill="#63b8ff" stroke="#63b8ff" points="141.49,-102.34 150.9,-97.48 140.51,-95.41 141.49,-102.34"/>
</a>
</g>
</g>
<!-- Node8 -->
<g id="Node000008" class="node">
<title>Node8</title>
<g id="a_Node000008"><a xlink:href="namespaceEditor.html#a7f2229e4a768c53fcfb4b8dd1b1272d9" target="_top" xlink:title=" ">
<polygon fill="white" stroke="#666666" points="259,-56 158,-56 158,-37 259,-37 259,-56"/>
<text text-anchor="middle" x="208.5" y="-44" font-family="Helvetica,sans-Serif" font-size="10.00">Editor::SaveLevel</text>
</a>
</g>
</g>
<!-- Node1&#45;&gt;Node8 -->
<g id="edge7_Node000001_Node000008" class="edge">
<title>Node1&#45;&gt;Node8</title>
<g id="a_edge7_Node000001_Node000008"><a xlink:title=" ">
<path fill="none" stroke="#63b8ff" d="M87.23,-95.34C105.27,-86.12 129.18,-74.43 151,-65.5 156.15,-63.39 161.62,-61.33 167.07,-59.39"/>
<polygon fill="#63b8ff" stroke="#63b8ff" points="168.43,-62.62 176.74,-56.05 166.15,-56.01 168.43,-62.62"/>
</a>
</g>
</g>
<!-- Node3 -->
<g id="Node000003" class="node">
<title>Node3</title>
<g id="a_Node000003"><a xlink:href="external_8c.html#ac48b7cbfcaa7737f892877ead85e4ba7" target="_top" xlink:title=" ">
<polygon fill="white" stroke="#666666" points="428,-216 336,-216 336,-197 428,-197 428,-216"/>
<text text-anchor="middle" x="382" y="-204" font-family="Helvetica,sans-Serif" font-size="10.00">func_800C3448</text>
</a>
</g>
</g>
<!-- Node2&#45;&gt;Node3 -->
<g id="edge2_Node000002_Node000003" class="edge">
<title>Node2&#45;&gt;Node3</title>
<g id="a_edge2_Node000002_Node000003"><a xlink:title=" ">
<path fill="none" stroke="#63b8ff" d="M253.67,-179.03C275.98,-183.84 303.26,-189.73 326.83,-194.81"/>
<polygon fill="#63b8ff" stroke="#63b8ff" points="326.17,-198.25 336.69,-196.94 327.65,-191.41 326.17,-198.25"/>
</a>
</g>
</g>
<!-- Node4 -->
<g id="Node000004" class="node">
<title>Node4</title>
<g id="a_Node000004"><a xlink:href="HMAS_8cpp.html#ac2a77b78c5136dc216da6bf01f003060" target="_top" xlink:title=" ">
<polygon fill="white" stroke="#666666" points="431,-179 333,-179 333,-160 431,-160 431,-179"/>
<text text-anchor="middle" x="382" y="-167" font-family="Helvetica,sans-Serif" font-size="10.00">HMAS_AddEffect</text>
</a>
</g>
</g>
<!-- Node2&#45;&gt;Node4 -->
<g id="edge3_Node000002_Node000004" class="edge">
<title>Node2&#45;&gt;Node4</title>
<g id="a_edge3_Node000002_Node000004"><a xlink:title=" ">
<path fill="none" stroke="#63b8ff" d="M255.01,-169.5C275.74,-169.5 300.53,-169.5 322.61,-169.5"/>
<polygon fill="#63b8ff" stroke="#63b8ff" points="322.88,-173 332.88,-169.5 322.88,-166 322.88,-173"/>
</a>
</g>
</g>
<!-- Node5 -->
<g id="Node000005" class="node">
<title>Node5</title>
<g id="a_Node000005"><a xlink:href="HMAS_8cpp.html#a73c414770e0086761854237b09428fcf" target="_top" xlink:title=" ">
<polygon fill="white" stroke="#666666" points="429.5,-142 334.5,-142 334.5,-123 429.5,-123 429.5,-142"/>
<text text-anchor="middle" x="382" y="-130" font-family="Helvetica,sans-Serif" font-size="10.00">HMAS_IsPlaying</text>
</a>
</g>
</g>
<!-- Node2&#45;&gt;Node5 -->
<g id="edge4_Node000002_Node000005" class="edge">
<title>Node2&#45;&gt;Node5</title>
<g id="a_edge4_Node000002_Node000005"><a xlink:title=" ">
<path fill="none" stroke="#63b8ff" d="M253.67,-159.97C275.98,-155.16 303.26,-149.27 326.83,-144.19"/>
<polygon fill="#63b8ff" stroke="#63b8ff" points="327.65,-147.59 336.69,-142.06 326.17,-140.75 327.65,-147.59"/>
</a>
</g>
</g>
<!-- Node9 -->
<g id="Node000009" class="node">
<title>Node9</title>
<g id="a_Node000009"><a xlink:href="namespaceEditor.html#aa164982e09ca2812f69c6408ee8149e7" target="_top" xlink:title=" ">
<polygon fill="white" stroke="#666666" points="435,-93 329,-93 329,-74 435,-74 435,-93"/>
<text text-anchor="middle" x="382" y="-81" font-family="Helvetica,sans-Serif" font-size="10.00">Editor::SaveActors</text>
</a>
</g>
</g>
<!-- Node8&#45;&gt;Node9 -->
<g id="edge8_Node000008_Node000009" class="edge">
<title>Node8&#45;&gt;Node9</title>
<g id="a_edge8_Node000008_Node000009"><a xlink:title=" ">
<path fill="none" stroke="#63b8ff" d="M253.67,-56.03C275.98,-60.84 303.26,-66.73 326.83,-71.81"/>
<polygon fill="#63b8ff" stroke="#63b8ff" points="326.17,-75.25 336.69,-73.94 327.65,-68.41 326.17,-75.25"/>
</a>
</g>
</g>
<!-- Node13 -->
<g id="Node000013" class="node">
<title>Node13</title>
<g id="a_Node000013"><a xlink:href="namespaceEditor.html#a70cb66b6c3265e069a7d40e430f6efe5" target="_top" xlink:title=" ">
<polygon fill="white" stroke="#666666" points="462,-56 302,-56 302,-37 462,-37 462,-56"/>
<text text-anchor="middle" x="382" y="-44" font-family="Helvetica,sans-Serif" font-size="10.00">Editor::SaveStaticMeshActors</text>
</a>
</g>
</g>
<!-- Node8&#45;&gt;Node13 -->
<g id="edge12_Node000008_Node000013" class="edge">
<title>Node8&#45;&gt;Node13</title>
<g id="a_edge12_Node000008_Node000013"><a xlink:title=" ">
<path fill="none" stroke="#63b8ff" d="M259.1,-46.5C269.33,-46.5 280.39,-46.5 291.54,-46.5"/>
<polygon fill="#63b8ff" stroke="#63b8ff" points="291.78,-50 301.78,-46.5 291.78,-43 291.78,-50"/>
</a>
</g>
</g>
<!-- Node14 -->
<g id="Node000014" class="node">
<title>Node14</title>
<g id="a_Node000014"><a xlink:href="namespaceEditor.html#ab4f05867dba1ec63e0638d365f54805e" target="_top" xlink:title=" ">
<polygon fill="white" stroke="#666666" points="429.5,-19 334.5,-19 334.5,0 429.5,0 429.5,-19"/>
<text text-anchor="middle" x="382" y="-7" font-family="Helvetica,sans-Serif" font-size="10.00">Editor::SaveTour</text>
</a>
</g>
</g>
<!-- Node8&#45;&gt;Node14 -->
<g id="edge13_Node000008_Node000014" class="edge">
<title>Node8&#45;&gt;Node14</title>
<g id="a_edge13_Node000008_Node000014"><a xlink:title=" ">
<path fill="none" stroke="#63b8ff" d="M253.67,-36.97C275.98,-32.16 303.26,-26.27 326.83,-21.19"/>
<polygon fill="#63b8ff" stroke="#63b8ff" points="327.65,-24.59 336.69,-19.06 326.17,-17.75 327.65,-24.59"/>
</a>
</g>
</g>
<!-- Node10 -->
<g id="Node000010" class="node">
<title>Node10</title>
<g id="a_Node000010"><a xlink:href="actors_8c.html#af929d0a871448970cbdd4de3d4b58c3f" target="_top" xlink:title=" ">
<polygon fill="white" stroke="#666666" points="616,-122.5 506,-122.5 506,-92.5 616,-92.5 616,-122.5"/>
<text text-anchor="start" x="514" y="-110.5" font-family="Helvetica,sans-Serif" font-size="10.00">get_actor_resource</text>
<text text-anchor="middle" x="561" y="-99.5" font-family="Helvetica,sans-Serif" font-size="10.00">_location_name</text>
</a>
</g>
</g>
<!-- Node9&#45;&gt;Node10 -->
<g id="edge9_Node000009_Node000010" class="edge">
<title>Node9&#45;&gt;Node10</title>
<g id="a_edge9_Node000009_Node000010"><a xlink:title=" ">
<path fill="none" stroke="#63b8ff" d="M435.15,-90.57C454.17,-93.15 475.89,-96.1 495.83,-98.8"/>
<polygon fill="#63b8ff" stroke="#63b8ff" points="495.39,-102.27 505.77,-100.15 496.33,-95.33 495.39,-102.27"/>
</a>
</g>
</g>
<!-- Node11 -->
<g id="Node000011" class="node">
<title>Node11</title>
<g id="a_Node000011"><a xlink:href="structSpawnParams.html#a9748aa1883cadfa0810f0662f2f987cd" target="_top" xlink:title=" ">
<polygon fill="white" stroke="#666666" points="624,-74 498,-74 498,-55 624,-55 624,-74"/>
<text text-anchor="middle" x="561" y="-62" font-family="Helvetica,sans-Serif" font-size="10.00">SpawnParams::to_json</text>
</a>
</g>
</g>
<!-- Node9&#45;&gt;Node11 -->
<g id="edge10_Node000009_Node000011" class="edge">
<title>Node9&#45;&gt;Node11</title>
<g id="a_edge10_Node000009_Node000011"><a xlink:title=" ">
<path fill="none" stroke="#63b8ff" d="M435.15,-77.9C451.6,-76.14 470.08,-74.15 487.68,-72.26"/>
<polygon fill="#63b8ff" stroke="#63b8ff" points="488.35,-75.71 497.92,-71.16 487.6,-68.75 488.35,-75.71"/>
</a>
</g>
</g>
<!-- Node12 -->
<g id="Node000012" class="node">
<title>Node12</title>
<g id="a_Node000012"><a xlink:href="SpawnParams_8h.html#a862d476b8707d009d489c4200aecc3a8" target="_top" xlink:title=" ">
<polygon fill="white" stroke="#666666" points="765,-74 660,-74 660,-55 765,-55 765,-74"/>
<text text-anchor="middle" x="712.5" y="-62" font-family="Helvetica,sans-Serif" font-size="10.00">set_optional_from</text>
</a>
</g>
</g>
<!-- Node11&#45;&gt;Node12 -->
<g id="edge11_Node000011_Node000012" class="edge">
<title>Node11&#45;&gt;Node12</title>
<g id="a_edge11_Node000011_Node000012"><a xlink:title=" ">
<path fill="none" stroke="#63b8ff" d="M624.1,-64.5C632.54,-64.5 641.21,-64.5 649.64,-64.5"/>
<polygon fill="#63b8ff" stroke="#63b8ff" points="649.79,-68 659.79,-64.5 649.79,-61 649.79,-68"/>
</a>
</g>
</g>
<!-- Node15 -->
<g id="Node000015" class="node">
<title>Node15</title>
<g id="a_Node000015"><a xlink:href="namespaceEditor.html#ac53b027d0bf127bb5f0520b97c57ab0b" target="_top" xlink:title=" ">
<polygon fill="white" stroke="#666666" points="602,-19 520,-19 520,0 602,0 602,-19"/>
<text text-anchor="middle" x="561" y="-7" font-family="Helvetica,sans-Serif" font-size="10.00">Editor::ToJson</text>
</a>
</g>
</g>
<!-- Node14&#45;&gt;Node15 -->
<g id="edge14_Node000014_Node000015" class="edge">
<title>Node14&#45;&gt;Node15</title>
<g id="a_edge14_Node000014_Node000015"><a xlink:title=" ">
<path fill="none" stroke="#63b8ff" d="M429.5,-9.5C454.17,-9.5 484.5,-9.5 509.71,-9.5"/>
<polygon fill="#63b8ff" stroke="#63b8ff" points="509.82,-13 519.82,-9.5 509.82,-6 509.82,-13"/>
</a>
</g>
</g>
</g>
</svg>

<g id="navigator" transform="translate(0 0)" fill="#404254">
  <rect fill="#f2f5e9" fill-opacity="0.5" stroke="#606060" stroke-width=".5" x="0" y="0" width="60" height="60"/>
  <use id="zoomplus" xlink:href="#zoomPlus" x="17" y="9" onmousedown="handleZoom(evt,'in')"/>
  <use id="zoomminus" xlink:href="#zoomMin" x="42" y="9" onmousedown="handleZoom(evt,'out')"/>
  <use id="reset" xlink:href="#resetDef" x="30" y="36" onmousedown="handleReset()"/>
   <use id="arrowup" xlink:href="#arrowUp" x="0" y="0" onmousedown="handlePan(0,-1)"/>
  <use id="arrowright" xlink:href="#arrowRight" x="0" y="0" onmousedown="handlePan(1,0)"/>
  <use id="arrowdown" xlink:href="#arrowDown" x="0" y="0" onmousedown="handlePan(0,1)"/>
  <use id="arrowleft" xlink:href="#arrowLeft" x="0" y="0" onmousedown="handlePan(-1,0)"/>
</g>
<svg viewBox="0 0 15 15" width="100%" height="30px" preserveAspectRatio="xMaxYMin meet">
 <g id="arrow_out" transform="scale(0.3 0.3)">
  <a xlink:href="classEditor_1_1ToolsWindow_acc7235f0826c422806a61a1214aa42c2_cgraph_org.svg" target="_base">
   <rect id="button" ry="5" rx="5" y="6" x="6" height="38" width="38"
        fill="#f2f5e9" fill-opacity="0.5" stroke="#606060" stroke-width="1.0"/>
   <path id="arrow"
     d="M 11.500037,31.436501 C 11.940474,20.09759 22.043105,11.32322 32.158766,21.979434 L 37.068811,17.246167 C 37.068811,17.246167 37.088388,32 37.088388,32 L 22.160133,31.978069 C 22.160133,31.978069 26.997745,27.140456 26.997745,27.140456 C 18.528582,18.264221 13.291696,25.230495 11.500037,31.436501 z"
     style="fill:#404040;"/>
  </a>
 </g>
</svg>

<style type='text/css'>
<![CDATA[
[data-mouse-over-selected='false'] { opacity: 0.7; }
[data-mouse-over-selected='true']  { opacity: 1.0; }
]]>
</style>
<script type="application/ecmascript"><![CDATA[
document.addEventListener('DOMContentLoaded', (event) => {
  highlightEdges();
  highlightAdjacentNodes();
});
]]></script>
</svg>
