<?xml version="1.0" encoding="UTF-8" standalone="no"?>
<!DOCTYPE svg PUBLIC "-//W3C//DTD SVG 1.1//EN"
 "http://www.w3.org/Graphics/SVG/1.1/DTD/svg11.dtd">
<!-- Generated by graphviz version 2.43.0 (0)
 -->
<!-- Title: LuigiRaceway::Load Pages: 1 -->
<svg width="1069pt" height="298pt"
 viewBox="0.00 0.00 1069.00 297.50" xmlns="http://www.w3.org/2000/svg" xmlns:xlink="http://www.w3.org/1999/xlink">
<g id="graph0" class="graph" transform="scale(1 1) rotate(0) translate(4 293.5)">
<title>LuigiRaceway::Load</title>
<!-- Node1 -->
<g id="Node000001" class="node">
<title>Node1</title>
<g id="a_Node000001"><a xlink:title=" ">
<polygon fill="#999999" stroke="#666666" points="113,-210 0,-210 0,-191 113,-191 113,-210"/>
<text text-anchor="middle" x="56.5" y="-198" font-family="Helvetica,sans-Serif" font-size="10.00">LuigiRaceway::Load</text>
</a>
</g>
</g>
<!-- Node2 -->
<g id="Node000002" class="node">
<title>Node2</title>
<g id="a_Node000002"><a xlink:href="render__courses_8c.html#ab02cdf6684f984a12e7388fe973bc89a" target="_top" xlink:title=" ">
<polygon fill="white" stroke="#666666" points="277.5,-256 185.5,-256 185.5,-237 277.5,-237 277.5,-256"/>
<text text-anchor="middle" x="231.5" y="-244" font-family="Helvetica,sans-Serif" font-size="10.00">func_80295C6C</text>
</a>
</g>
</g>
<!-- Node1&#45;&gt;Node2 -->
<g id="edge1_Node000001_Node000002" class="edge">
<title>Node1&#45;&gt;Node2</title>
<g id="a_edge1_Node000001_Node000002"><a xlink:title=" ">
<path fill="none" stroke="#63b8ff" d="M93.35,-210.03C119.91,-217.09 156.3,-226.77 184.93,-234.38"/>
<polygon fill="#63b8ff" stroke="#63b8ff" points="184.14,-237.79 194.7,-236.98 185.94,-231.03 184.14,-237.79"/>
</a>
</g>
</g>
<!-- Node6 -->
<g id="Node000006" class="node">
<title>Node6</title>
<g id="a_Node000006"><a xlink:href="Track_8cpp.html#a0406803b8f06bfcaf7e1bd3ad2ab2e12" target="_top" xlink:title=" ">
<polygon fill="white" stroke="#666666" points="314,-210 149,-210 149,-191 314,-191 314,-210"/>
<text text-anchor="middle" x="231.5" y="-198" font-family="Helvetica,sans-Serif" font-size="10.00">InvertTriangleWindingByName</text>
</a>
</g>
</g>
<!-- Node1&#45;&gt;Node6 -->
<g id="edge5_Node000001_Node000006" class="edge">
<title>Node1&#45;&gt;Node6</title>
<g id="a_edge5_Node000001_Node000006"><a xlink:title=" ">
<path fill="none" stroke="#63b8ff" d="M113.19,-200.5C121.36,-200.5 129.94,-200.5 138.6,-200.5"/>
<polygon fill="#63b8ff" stroke="#63b8ff" points="138.78,-204 148.78,-200.5 138.78,-197 138.78,-204"/>
</a>
</g>
</g>
<!-- Node11 -->
<g id="Node000011" class="node">
<title>Node11</title>
<g id="a_Node000011"><a xlink:href="render__courses_8c.html#ac97a07076b3e301db5da93c0fe8f0500" target="_top" xlink:title=" ">
<polygon fill="white" stroke="#666666" points="298.5,-155 164.5,-155 164.5,-136 298.5,-136 298.5,-155"/>
<text text-anchor="middle" x="231.5" y="-143" font-family="Helvetica,sans-Serif" font-size="10.00">parse_track_displaylists</text>
</a>
</g>
</g>
<!-- Node1&#45;&gt;Node11 -->
<g id="edge11_Node000001_Node000011" class="edge">
<title>Node1&#45;&gt;Node11</title>
<g id="a_edge11_Node000001_Node000011"><a xlink:title=" ">
<path fill="none" stroke="#63b8ff" d="M87.63,-190.92C116.2,-181.84 159.29,-168.14 190.68,-158.16"/>
<polygon fill="#63b8ff" stroke="#63b8ff" points="191.95,-161.43 200.42,-155.06 189.83,-154.76 191.95,-161.43"/>
</a>
</g>
</g>
<!-- Node3 -->
<g id="Node000003" class="node">
<title>Node3</title>
<g id="a_Node000003"><a xlink:href="collision_8c.html#aa1116ededb9ebc0ee976259f02fe2a4e" target="_top" xlink:title=" ">
<polygon fill="white" stroke="#666666" points="495.5,-277 365.5,-277 365.5,-258 495.5,-258 495.5,-277"/>
<text text-anchor="middle" x="430.5" y="-265" font-family="Helvetica,sans-Serif" font-size="10.00">generate_collision_grid</text>
</a>
</g>
</g>
<!-- Node2&#45;&gt;Node3 -->
<g id="edge2_Node000002_Node000003" class="edge">
<title>Node2&#45;&gt;Node3</title>
<g id="a_edge2_Node000002_Node000003"><a xlink:title=" ">
<path fill="none" stroke="#63b8ff" d="M277.7,-251.32C300.66,-253.77 329.16,-256.8 355.24,-259.58"/>
<polygon fill="#63b8ff" stroke="#63b8ff" points="355.16,-263.1 365.48,-260.68 355.9,-256.13 355.16,-263.1"/>
</a>
</g>
</g>
<!-- Node4 -->
<g id="Node000004" class="node">
<title>Node4</title>
<g id="a_Node000004"><a xlink:href="collision_8c.html#a4e4ec74302aec60828a8d271390f7631" target="_top" xlink:title=" ">
<polygon fill="white" stroke="#666666" points="687,-289.5 556,-289.5 556,-259.5 687,-259.5 687,-289.5"/>
<text text-anchor="start" x="564" y="-277.5" font-family="Helvetica,sans-Serif" font-size="10.00">is_triangle_intersecting</text>
<text text-anchor="middle" x="621.5" y="-266.5" font-family="Helvetica,sans-Serif" font-size="10.00">_bounding_box</text>
</a>
</g>
</g>
<!-- Node3&#45;&gt;Node4 -->
<g id="edge3_Node000003_Node000004" class="edge">
<title>Node3&#45;&gt;Node4</title>
<g id="a_edge3_Node000003_Node000004"><a xlink:title=" ">
<path fill="none" stroke="#63b8ff" d="M495.75,-269.88C511.79,-270.47 529.13,-271.12 545.64,-271.73"/>
<polygon fill="#63b8ff" stroke="#63b8ff" points="545.66,-275.23 555.78,-272.1 545.92,-268.24 545.66,-275.23"/>
</a>
</g>
</g>
<!-- Node5 -->
<g id="Node000005" class="node">
<title>Node5</title>
<g id="a_Node000005"><a xlink:href="collision_8c.html#a7ef4f800cb44ad39ca233d0c76ce039a" target="_top" xlink:title=" ">
<polygon fill="white" stroke="#666666" points="849,-289.5 738,-289.5 738,-259.5 849,-259.5 849,-289.5"/>
<text text-anchor="start" x="746" y="-277.5" font-family="Helvetica,sans-Serif" font-size="10.00">is_line_intersecting</text>
<text text-anchor="middle" x="793.5" y="-266.5" font-family="Helvetica,sans-Serif" font-size="10.00">_rectangle</text>
</a>
</g>
</g>
<!-- Node4&#45;&gt;Node5 -->
<g id="edge4_Node000004_Node000005" class="edge">
<title>Node4&#45;&gt;Node5</title>
<g id="a_edge4_Node000004_Node000005"><a xlink:title=" ">
<path fill="none" stroke="#63b8ff" d="M687.25,-274.5C700.56,-274.5 714.58,-274.5 727.88,-274.5"/>
<polygon fill="#63b8ff" stroke="#63b8ff" points="727.89,-278 737.89,-274.5 727.89,-271 727.89,-278"/>
</a>
</g>
</g>
<!-- Node7 -->
<g id="Node000007" class="node">
<title>Node7</title>
<g id="a_Node000007"><a xlink:href="Track_8cpp.html#ad29b2b4706dd79c5d6239851b61530d4" target="_top" xlink:title=" ">
<polygon fill="white" stroke="#666666" points="511,-210 350,-210 350,-191 511,-191 511,-210"/>
<text text-anchor="middle" x="430.5" y="-198" font-family="Helvetica,sans-Serif" font-size="10.00">InvertTriangleWindingInternal</text>
</a>
</g>
</g>
<!-- Node6&#45;&gt;Node7 -->
<g id="edge6_Node000006_Node000007" class="edge">
<title>Node6&#45;&gt;Node7</title>
<g id="a_edge6_Node000006_Node000007"><a xlink:title=" ">
<path fill="none" stroke="#63b8ff" d="M314.05,-200.5C322.57,-200.5 331.27,-200.5 339.87,-200.5"/>
<polygon fill="#63b8ff" stroke="#63b8ff" points="339.91,-204 349.91,-200.5 339.91,-197 339.91,-204"/>
</a>
</g>
</g>
<!-- Node7&#45;&gt;Node7 -->
<g id="edge9_Node000007_Node000007" class="edge">
<title>Node7&#45;&gt;Node7</title>
<g id="a_edge9_Node000007_Node000007"><a xlink:title=" ">
<path fill="none" stroke="#63b8ff" d="M401.22,-210.08C386.97,-218.73 396.73,-228 430.5,-228 453.72,-228 465.59,-223.62 466.11,-218.07"/>
<polygon fill="#63b8ff" stroke="#63b8ff" points="468.73,-215.75 459.78,-210.08 463.25,-220.1 468.73,-215.75"/>
</a>
</g>
</g>
<!-- Node8 -->
<g id="Node000008" class="node">
<title>Node8</title>
<g id="a_Node000008"><a xlink:href="Engine_8cpp.html#a223c8bc63f228dc11177515e38eff2db" target="_top" xlink:title=" ">
<polygon fill="white" stroke="#666666" points="696,-204 547,-204 547,-185 696,-185 696,-204"/>
<text text-anchor="middle" x="621.5" y="-192" font-family="Helvetica,sans-Serif" font-size="10.00">GameEngine_OTRSigCheck</text>
</a>
</g>
</g>
<!-- Node7&#45;&gt;Node8 -->
<g id="edge7_Node000007_Node000008" class="edge">
<title>Node7&#45;&gt;Node8</title>
<g id="a_edge7_Node000007_Node000008"><a xlink:title=" ">
<path fill="none" stroke="#63b8ff" d="M511.11,-197.97C519.5,-197.71 528.05,-197.43 536.49,-197.17"/>
<polygon fill="#63b8ff" stroke="#63b8ff" points="536.82,-200.66 546.71,-196.84 536.6,-193.66 536.82,-200.66"/>
</a>
</g>
</g>
<!-- Node10 -->
<g id="Node000010" class="node">
<title>Node10</title>
<g id="a_Node000010"><a xlink:href="Track_8cpp.html#a5bae290668f6b484d13626d67e16cc3f" target="_top" xlink:title=" ">
<polygon fill="white" stroke="#666666" points="681.5,-241 561.5,-241 561.5,-222 681.5,-222 681.5,-241"/>
<text text-anchor="middle" x="621.5" y="-229" font-family="Helvetica,sans-Serif" font-size="10.00">SwapTriangleVertices</text>
</a>
</g>
</g>
<!-- Node7&#45;&gt;Node10 -->
<g id="edge10_Node000007_Node000010" class="edge">
<title>Node7&#45;&gt;Node10</title>
<g id="a_edge10_Node000007_Node000010"><a xlink:title=" ">
<path fill="none" stroke="#63b8ff" d="M489.49,-210.01C509.35,-213.27 531.76,-216.94 552.35,-220.32"/>
<polygon fill="#63b8ff" stroke="#63b8ff" points="551.86,-223.79 562.29,-221.95 552.99,-216.88 551.86,-223.79"/>
</a>
</g>
</g>
<!-- Node9 -->
<g id="Node000009" class="node">
<title>Node9</title>
<g id="a_Node000009"><a xlink:href="string_8c.html#a008e171a518fe0e0352f31b245e03875" target="_top" xlink:title=" ">
<polygon fill="white" stroke="#666666" points="815.5,-185 771.5,-185 771.5,-166 815.5,-166 815.5,-185"/>
<text text-anchor="middle" x="793.5" y="-173" font-family="Helvetica,sans-Serif" font-size="10.00">strlen</text>
</a>
</g>
</g>
<!-- Node8&#45;&gt;Node9 -->
<g id="edge8_Node000008_Node000009" class="edge">
<title>Node8&#45;&gt;Node9</title>
<g id="a_edge8_Node000008_Node000009"><a xlink:title=" ">
<path fill="none" stroke="#63b8ff" d="M696.08,-186.28C718.88,-183.73 742.8,-181.05 761.11,-179.01"/>
<polygon fill="#63b8ff" stroke="#63b8ff" points="761.65,-182.47 771.2,-177.88 760.87,-175.51 761.65,-182.47"/>
</a>
</g>
</g>
<!-- Node12 -->
<g id="Node000012" class="node">
<title>Node12</title>
<g id="a_Node000012"><a xlink:href="collision_8c.html#a3081198f925be148fc9f05897a3bddd3" target="_top" xlink:title=" ">
<polygon fill="white" stroke="#666666" points="499.5,-130 361.5,-130 361.5,-111 499.5,-111 499.5,-130"/>
<text text-anchor="middle" x="430.5" y="-118" font-family="Helvetica,sans-Serif" font-size="10.00">generate_collision_mesh</text>
</a>
</g>
</g>
<!-- Node11&#45;&gt;Node12 -->
<g id="edge12_Node000011_Node000012" class="edge">
<title>Node11&#45;&gt;Node12</title>
<g id="a_edge12_Node000011_Node000012"><a xlink:title=" ">
<path fill="none" stroke="#63b8ff" d="M298.65,-137.11C315.47,-134.97 333.7,-132.66 351.07,-130.45"/>
<polygon fill="#63b8ff" stroke="#63b8ff" points="351.69,-133.9 361.17,-129.17 350.81,-126.96 351.69,-133.9"/>
</a>
</g>
</g>
<!-- Node12&#45;&gt;Node8 -->
<g id="edge13_Node000012_Node000008" class="edge">
<title>Node12&#45;&gt;Node8</title>
<g id="a_edge13_Node000012_Node000008"><a xlink:title=" ">
<path fill="none" stroke="#63b8ff" d="M448.23,-130.01C470.27,-142.21 510.52,-163.36 547,-176.5 552.84,-178.6 559.03,-180.54 565.24,-182.31"/>
<polygon fill="#63b8ff" stroke="#63b8ff" points="564.4,-185.71 574.96,-184.94 566.22,-178.95 564.4,-185.71"/>
</a>
</g>
</g>
<!-- Node12&#45;&gt;Node12 -->
<g id="edge14_Node000012_Node000012" class="edge">
<title>Node12&#45;&gt;Node12</title>
<g id="a_edge14_Node000012_Node000012"><a xlink:title=" ">
<path fill="none" stroke="#63b8ff" d="M401.22,-130.08C386.97,-138.73 396.73,-148 430.5,-148 453.72,-148 465.59,-143.62 466.11,-138.07"/>
<polygon fill="#63b8ff" stroke="#63b8ff" points="468.73,-135.75 459.78,-130.08 463.25,-140.1 468.73,-135.75"/>
</a>
</g>
</g>
<!-- Node13 -->
<g id="Node000013" class="node">
<title>Node13</title>
<g id="a_Node000013"><a xlink:href="collision_8c.html#a2419eefe1cdba5b280babacc4a15fc6c" target="_top" xlink:title=" ">
<polygon fill="white" stroke="#666666" points="657,-167 586,-167 586,-148 657,-148 657,-167"/>
<text text-anchor="middle" x="621.5" y="-155" font-family="Helvetica,sans-Serif" font-size="10.00">is_cull_box</text>
</a>
</g>
</g>
<!-- Node12&#45;&gt;Node13 -->
<g id="edge15_Node000012_Node000013" class="edge">
<title>Node12&#45;&gt;Node13</title>
<g id="a_edge15_Node000012_Node000013"><a xlink:title=" ">
<path fill="none" stroke="#63b8ff" d="M480.17,-130.03C509.59,-135.79 546.83,-143.08 575.55,-148.7"/>
<polygon fill="#63b8ff" stroke="#63b8ff" points="575.23,-152.2 585.71,-150.69 576.57,-145.33 575.23,-152.2"/>
</a>
</g>
</g>
<!-- Node14 -->
<g id="Node000014" class="node">
<title>Node14</title>
<g id="a_Node000014"><a xlink:href="collision_8c.html#a30eb531df39ba558cd733e1d1cd6aaa0" target="_top" xlink:title=" ">
<polygon fill="white" stroke="#666666" points="664.5,-130 578.5,-130 578.5,-111 664.5,-111 664.5,-130"/>
<text text-anchor="middle" x="621.5" y="-118" font-family="Helvetica,sans-Serif" font-size="10.00">set_vtx_buffer</text>
</a>
</g>
</g>
<!-- Node12&#45;&gt;Node14 -->
<g id="edge17_Node000012_Node000014" class="edge">
<title>Node12&#45;&gt;Node14</title>
<g id="a_edge17_Node000012_Node000014"><a xlink:title=" ">
<path fill="none" stroke="#63b8ff" d="M499.73,-120.5C522.36,-120.5 547.17,-120.5 568.38,-120.5"/>
<polygon fill="#63b8ff" stroke="#63b8ff" points="568.48,-124 578.48,-120.5 568.48,-117 568.48,-124"/>
</a>
</g>
</g>
<!-- Node15 -->
<g id="Node000015" class="node">
<title>Node15</title>
<g id="a_Node000015"><a xlink:href="collision_8c.html#a593833ca3f04f0c7d8f5dcabe6430115" target="_top" xlink:title=" ">
<polygon fill="white" stroke="#666666" points="692,-93 551,-93 551,-74 692,-74 692,-93"/>
<text text-anchor="middle" x="621.5" y="-81" font-family="Helvetica,sans-Serif" font-size="10.00">set_vtx_from_quadrangle</text>
</a>
</g>
</g>
<!-- Node12&#45;&gt;Node15 -->
<g id="edge18_Node000012_Node000015" class="edge">
<title>Node12&#45;&gt;Node15</title>
<g id="a_edge18_Node000012_Node000015"><a xlink:title=" ">
<path fill="none" stroke="#63b8ff" d="M480.17,-110.97C505.1,-106.09 535.63,-100.11 561.85,-94.98"/>
<polygon fill="#63b8ff" stroke="#63b8ff" points="562.52,-98.42 571.66,-93.06 561.18,-91.55 562.52,-98.42"/>
</a>
</g>
</g>
<!-- Node19 -->
<g id="Node000019" class="node">
<title>Node19</title>
<g id="a_Node000019"><a xlink:href="collision_8c.html#ac558a6e1314f154bbf53aaf15396ea1e" target="_top" xlink:title=" ">
<polygon fill="white" stroke="#666666" points="673,-56 570,-56 570,-37 673,-37 673,-56"/>
<text text-anchor="middle" x="621.5" y="-44" font-family="Helvetica,sans-Serif" font-size="10.00">set_vtx_from_tri2</text>
</a>
</g>
</g>
<!-- Node12&#45;&gt;Node19 -->
<g id="edge22_Node000012_Node000019" class="edge">
<title>Node12&#45;&gt;Node19</title>
<g id="a_edge22_Node000012_Node000019"><a xlink:title=" ">
<path fill="none" stroke="#63b8ff" d="M448.23,-110.99C470.27,-98.79 510.52,-77.64 547,-64.5 552.84,-62.4 559.03,-60.46 565.24,-58.69"/>
<polygon fill="#63b8ff" stroke="#63b8ff" points="566.22,-62.05 574.96,-56.06 564.4,-55.29 566.22,-62.05"/>
</a>
</g>
</g>
<!-- Node20 -->
<g id="Node000020" class="node">
<title>Node20</title>
<g id="a_Node000020"><a xlink:href="collision_8c.html#a335dc7fed8a2540ca0a5b0a466545845" target="_top" xlink:title=" ">
<polygon fill="white" stroke="#666666" points="683.5,-19 559.5,-19 559.5,0 683.5,0 683.5,-19"/>
<text text-anchor="middle" x="621.5" y="-7" font-family="Helvetica,sans-Serif" font-size="10.00">set_vtx_from_triangle</text>
</a>
</g>
</g>
<!-- Node12&#45;&gt;Node20 -->
<g id="edge24_Node000012_Node000020" class="edge">
<title>Node12&#45;&gt;Node20</title>
<g id="a_edge24_Node000012_Node000020"><a xlink:title=" ">
<path fill="none" stroke="#63b8ff" d="M440.38,-110.96C458.54,-92.06 502,-49.74 547,-27.5 550.84,-25.6 554.9,-23.89 559.05,-22.36"/>
<polygon fill="#63b8ff" stroke="#63b8ff" points="560.49,-25.57 568.87,-19.09 558.27,-18.93 560.49,-25.57"/>
</a>
</g>
</g>
<!-- Node13&#45;&gt;Node9 -->
<g id="edge16_Node000013_Node000009" class="edge">
<title>Node13&#45;&gt;Node9</title>
<g id="a_edge16_Node000013_Node000009"><a xlink:title=" ">
<path fill="none" stroke="#63b8ff" d="M657.31,-161.19C687.77,-164.41 731.61,-169.05 761.03,-172.17"/>
<polygon fill="#63b8ff" stroke="#63b8ff" points="760.85,-175.67 771.16,-173.24 761.59,-168.71 760.85,-175.67"/>
</a>
</g>
</g>
<!-- Node16 -->
<g id="Node000016" class="node">
<title>Node16</title>
<g id="a_Node000016"><a xlink:href="collision_8c.html#a8c516edee107b39b30bb3a4d3c54534a" target="_top" xlink:title=" ">
<polygon fill="white" stroke="#666666" points="855,-56 732,-56 732,-37 855,-37 855,-56"/>
<text text-anchor="middle" x="793.5" y="-44" font-family="Helvetica,sans-Serif" font-size="10.00">add_collision_triangle</text>
</a>
</g>
</g>
<!-- Node15&#45;&gt;Node16 -->
<g id="edge19_Node000015_Node000016" class="edge">
<title>Node15&#45;&gt;Node16</title>
<g id="a_edge19_Node000015_Node000016"><a xlink:title=" ">
<path fill="none" stroke="#63b8ff" d="M666.28,-73.97C688.3,-69.18 715.2,-63.32 738.5,-58.25"/>
<polygon fill="#63b8ff" stroke="#63b8ff" points="739.55,-61.61 748.57,-56.06 738.06,-54.77 739.55,-61.61"/>
</a>
</g>
</g>
<!-- Node17 -->
<g id="Node000017" class="node">
<title>Node17</title>
<g id="a_Node000017"><a xlink:href="RaceManager_8cpp.html#a693bf81394ee91ac6be58f7481471619" target="_top" xlink:title=" ">
<polygon fill="white" stroke="#666666" points="1061,-75 891,-75 891,-56 1061,-56 1061,-75"/>
<text text-anchor="middle" x="976" y="-63" font-family="Helvetica,sans-Serif" font-size="10.00">add_triangle_to_collision_mesh</text>
</a>
</g>
</g>
<!-- Node16&#45;&gt;Node17 -->
<g id="edge20_Node000016_Node000017" class="edge">
<title>Node16&#45;&gt;Node17</title>
<g id="a_edge20_Node000016_Node000017"><a xlink:title=" ">
<path fill="none" stroke="#63b8ff" d="M855.11,-52.88C863.35,-53.75 871.97,-54.65 880.63,-55.57"/>
<polygon fill="#63b8ff" stroke="#63b8ff" points="880.5,-59.07 890.81,-56.64 881.23,-52.11 880.5,-59.07"/>
</a>
</g>
</g>
<!-- Node18 -->
<g id="Node000018" class="node">
<title>Node18</title>
<g id="a_Node000018"><a xlink:href="math_8h.html#a37bde043e94a6f074c78f10518fb5d99" target="_top" xlink:title=" ">
<polygon fill="white" stroke="#666666" points="995.5,-38 956.5,-38 956.5,-19 995.5,-19 995.5,-38"/>
<text text-anchor="middle" x="976" y="-26" font-family="Helvetica,sans-Serif" font-size="10.00">sqrtf</text>
</a>
</g>
</g>
<!-- Node16&#45;&gt;Node18 -->
<g id="edge21_Node000016_Node000018" class="edge">
<title>Node16&#45;&gt;Node18</title>
<g id="a_edge21_Node000016_Node000018"><a xlink:title=" ">
<path fill="none" stroke="#63b8ff" d="M855.11,-40.46C885.8,-37.4 921.63,-33.82 946.07,-31.38"/>
<polygon fill="#63b8ff" stroke="#63b8ff" points="946.52,-34.86 956.13,-30.38 945.83,-27.89 946.52,-34.86"/>
</a>
</g>
</g>
<!-- Node19&#45;&gt;Node16 -->
<g id="edge23_Node000019_Node000016" class="edge">
<title>Node19&#45;&gt;Node16</title>
<g id="a_edge23_Node000019_Node000016"><a xlink:title=" ">
<path fill="none" stroke="#63b8ff" d="M673.05,-46.5C688.36,-46.5 705.48,-46.5 721.86,-46.5"/>
<polygon fill="#63b8ff" stroke="#63b8ff" points="721.95,-50 731.95,-46.5 721.95,-43 721.95,-50"/>
</a>
</g>
</g>
<!-- Node20&#45;&gt;Node16 -->
<g id="edge25_Node000020_Node000016" class="edge">
<title>Node20&#45;&gt;Node16</title>
<g id="a_edge25_Node000020_Node000016"><a xlink:title=" ">
<path fill="none" stroke="#63b8ff" d="M666.28,-19.03C688.3,-23.82 715.2,-29.68 738.5,-34.75"/>
<polygon fill="#63b8ff" stroke="#63b8ff" points="738.06,-38.23 748.57,-36.94 739.55,-31.39 738.06,-38.23"/>
</a>
</g>
</g>
</g>
</svg>
