<?xml version="1.0" encoding="UTF-8" standalone="no"?>
<!DOCTYPE svg PUBLIC "-//W3C//DTD SVG 1.1//EN"
 "http://www.w3.org/Graphics/SVG/1.1/DTD/svg11.dtd">
<!-- Generated by graphviz version 2.43.0 (0)
 -->
<!-- Title: World Pages: 1 -->
<svg width="665pt" height="727pt"
 viewBox="0.00 0.00 665.00 727.23" xmlns="http://www.w3.org/2000/svg" xmlns:xlink="http://www.w3.org/1999/xlink">
<g id="graph0" class="graph" transform="scale(1 1) rotate(0) translate(4 723.23)">
<title>World</title>
<!-- Node1 -->
<g id="Node000001" class="node">
<title>Node1</title>
<g id="a_Node000001"><a xlink:title=" ">
<polygon fill="#999999" stroke="#666666" points="657,-314.73 613,-314.73 613,-295.73 657,-295.73 657,-314.73"/>
<text text-anchor="middle" x="635" y="-302.73" font-family="Helvetica,sans-Serif" font-size="10.00">World</text>
</a>
</g>
</g>
<!-- Node2 -->
<g id="Node000002" class="node">
<title>Node2</title>
<g id="a_Node000002"><a xlink:title=" ">
<polygon fill="white" stroke="#666666" points="444,-705.73 328,-705.73 328,-686.73 444,-686.73 444,-705.73"/>
<text text-anchor="middle" x="386" y="-693.73" font-family="Helvetica,sans-Serif" font-size="10.00">shared_ptr&lt; Track &gt;</text>
</a>
</g>
</g>
<!-- Node2&#45;&gt;Node1 -->
<g id="edge1_Node000001_Node000002" class="edge">
<title>Node2&#45;&gt;Node1</title>
<g id="a_edge1_Node000001_Node000002"><a xlink:title=" ">
<path fill="none" stroke="#9a32cd" stroke-dasharray="5,2" d="M445.19,-706.95C492.27,-711.97 556.8,-709.95 595,-671.23 620.81,-645.08 631.72,-370.49 633.67,-314.98"/>
<polygon fill="#9a32cd" stroke="#9a32cd" points="445.47,-703.46 435.13,-705.74 444.64,-710.41 445.47,-703.46"/>
</a>
</g>
<text text-anchor="middle" x="539" y="-711.23" font-family="Helvetica,sans-Serif" font-size="10.00" fill="grey"> mTrack</text>
</g>
<!-- Node3 -->
<g id="Node000003" class="node">
<title>Node3</title>
<g id="a_Node000003"><a xlink:href="classCup.html" target="_top" xlink:title=" ">
<polygon fill="white" stroke="#666666" points="403.5,-555.73 368.5,-555.73 368.5,-536.73 403.5,-536.73 403.5,-555.73"/>
<text text-anchor="middle" x="386" y="-543.73" font-family="Helvetica,sans-Serif" font-size="10.00">Cup</text>
</a>
</g>
</g>
<!-- Node3&#45;&gt;Node1 -->
<g id="edge2_Node000001_Node000003" class="edge">
<title>Node3&#45;&gt;Node1</title>
<g id="a_edge2_Node000001_Node000003"><a xlink:title=" ">
<path fill="none" stroke="#9a32cd" stroke-dasharray="5,2" d="M413.72,-545.24C458.18,-542.08 547.19,-529.1 595,-476.23 616.96,-451.96 629.54,-347.85 633.01,-315.12"/>
<polygon fill="#9a32cd" stroke="#9a32cd" points="413.45,-541.75 403.68,-545.84 413.87,-548.74 413.45,-541.75"/>
</a>
</g>
<text text-anchor="middle" x="539" y="-536.23" font-family="Helvetica,sans-Serif" font-size="10.00" fill="grey"> CurrentCup</text>
</g>
<!-- Node4 -->
<g id="Node000004" class="node">
<title>Node4</title>
<g id="a_Node000004"><a xlink:title=" ">
<polygon fill="white" stroke="#666666" points="162.5,-609.73 118.5,-609.73 118.5,-590.73 162.5,-590.73 162.5,-609.73"/>
<text text-anchor="middle" x="140.5" y="-597.73" font-family="Helvetica,sans-Serif" font-size="10.00">string</text>
</a>
</g>
</g>
<!-- Node4&#45;&gt;Node3 -->
<g id="edge3_Node000003_Node000004" class="edge">
<title>Node4&#45;&gt;Node3</title>
<g id="a_edge3_Node000003_Node000004"><a xlink:title=" ">
<path fill="none" stroke="#9a32cd" stroke-dasharray="5,2" d="M172.47,-595.07C202.42,-589.91 249.01,-581.43 289,-572.23 317.1,-565.77 349.39,-556.68 368.45,-551.13"/>
<polygon fill="#9a32cd" stroke="#9a32cd" points="171.88,-591.62 162.61,-596.75 173.06,-598.52 171.88,-591.62"/>
</a>
</g>
<text text-anchor="middle" x="252" y="-589.23" font-family="Helvetica,sans-Serif" font-size="10.00" fill="grey"> Id</text>
</g>
<!-- Node5 -->
<g id="Node000005" class="node">
<title>Node5</title>
<g id="a_Node000005"><a xlink:title=" ">
<polygon fill="white" stroke="#666666" points="178,-572.73 103,-572.73 103,-553.73 178,-553.73 178,-572.73"/>
<text text-anchor="middle" x="140.5" y="-560.73" font-family="Helvetica,sans-Serif" font-size="10.00">const char *</text>
</a>
</g>
</g>
<!-- Node5&#45;&gt;Node3 -->
<g id="edge4_Node000003_Node000005" class="edge">
<title>Node5&#45;&gt;Node3</title>
<g id="a_edge4_Node000003_Node000005"><a xlink:title=" ">
<path fill="none" stroke="#9a32cd" stroke-dasharray="5,2" d="M188.43,-559.96C243.51,-556.11 331.96,-549.94 368.44,-547.39"/>
<polygon fill="#9a32cd" stroke="#9a32cd" points="187.95,-556.48 178.22,-560.67 188.44,-563.47 187.95,-556.48"/>
</a>
</g>
<text text-anchor="middle" x="252" y="-560.23" font-family="Helvetica,sans-Serif" font-size="10.00" fill="grey"> Name</text>
</g>
<!-- Node6 -->
<g id="Node000006" class="node">
<title>Node6</title>
<g id="a_Node000006"><a xlink:title=" ">
<polygon fill="white" stroke="#666666" points="155,-535.73 126,-535.73 126,-516.73 155,-516.73 155,-535.73"/>
<text text-anchor="middle" x="140.5" y="-523.73" font-family="Helvetica,sans-Serif" font-size="10.00">u8</text>
</a>
</g>
</g>
<!-- Node6&#45;&gt;Node3 -->
<g id="edge5_Node000003_Node000006" class="edge">
<title>Node6&#45;&gt;Node3</title>
<g id="a_edge5_Node000003_Node000006"><a xlink:title=" ">
<path fill="none" stroke="#9a32cd" stroke-dasharray="5,2" d="M165.4,-527.88C194.58,-529.91 245.44,-533.57 289,-537.23 316.86,-539.58 349.22,-542.69 368.36,-544.58"/>
<polygon fill="#9a32cd" stroke="#9a32cd" points="165.55,-524.38 155.34,-527.18 165.07,-531.36 165.55,-524.38"/>
</a>
</g>
<text text-anchor="middle" x="252" y="-540.23" font-family="Helvetica,sans-Serif" font-size="10.00" fill="grey"> Thumbnail</text>
</g>
<!-- Node7 -->
<g id="Node000007" class="node">
<title>Node7</title>
<g id="a_Node000007"><a xlink:title=" ">
<polygon fill="white" stroke="#666666" points="163,-485.73 118,-485.73 118,-466.73 163,-466.73 163,-485.73"/>
<text text-anchor="middle" x="140.5" y="-473.73" font-family="Helvetica,sans-Serif" font-size="10.00">size_t</text>
</a>
</g>
</g>
<!-- Node7&#45;&gt;Node1 -->
<g id="edge10_Node000001_Node000007" class="edge">
<title>Node7&#45;&gt;Node1</title>
<g id="a_edge10_Node000001_Node000007"><a xlink:title=" ">
<path fill="none" stroke="#9a32cd" stroke-dasharray="5,2" d="M173.39,-478.21C265.69,-483.26 530.62,-492.77 595,-440.23 633.94,-408.46 635.46,-340.41 634.57,-315.04"/>
<polygon fill="#9a32cd" stroke="#9a32cd" points="173.44,-474.71 163.26,-477.64 173.05,-481.7 173.44,-474.71"/>
</a>
</g>
<text text-anchor="middle" x="386" y="-496.23" font-family="Helvetica,sans-Serif" font-size="10.00" fill="grey"> CupIndex</text>
<text text-anchor="middle" x="386" y="-485.23" font-family="Helvetica,sans-Serif" font-size="10.00" fill="grey">TrackIndex</text>
</g>
<!-- Node7&#45;&gt;Node3 -->
<g id="edge6_Node000003_Node000007" class="edge">
<title>Node7&#45;&gt;Node3</title>
<g id="a_edge6_Node000003_Node000007"><a xlink:title=" ">
<path fill="none" stroke="#9a32cd" stroke-dasharray="5,2" d="M172.94,-484.39C202.86,-492.24 249.13,-504.6 289,-516.23 316.99,-524.4 349.32,-534.68 368.41,-540.84"/>
<polygon fill="#9a32cd" stroke="#9a32cd" points="173.63,-480.95 163.07,-481.81 171.86,-487.72 173.63,-480.95"/>
</a>
</g>
<text text-anchor="middle" x="252" y="-519.23" font-family="Helvetica,sans-Serif" font-size="10.00" fill="grey"> CursorPosition</text>
</g>
<!-- Node8 -->
<g id="Node000008" class="node">
<title>Node8</title>
<g id="a_Node000008"><a xlink:title=" ">
<polygon fill="white" stroke="#666666" points="197,-665.23 84,-665.23 84,-635.23 197,-635.23 197,-665.23"/>
<text text-anchor="start" x="92" y="-653.23" font-family="Helvetica,sans-Serif" font-size="10.00">vector&lt; std::shared</text>
<text text-anchor="middle" x="140.5" y="-642.23" font-family="Helvetica,sans-Serif" font-size="10.00">_ptr&lt; Track &gt; &gt;</text>
</a>
</g>
</g>
<!-- Node8&#45;&gt;Node1 -->
<g id="edge24_Node000001_Node000008" class="edge">
<title>Node8&#45;&gt;Node1</title>
<g id="a_edge24_Node000001_Node000008"><a xlink:title=" ">
<path fill="none" stroke="#9a32cd" stroke-dasharray="5,2" d="M207.11,-657.24C307.55,-663.91 497.96,-659.78 595,-548.23 626.2,-512.37 632.63,-355.28 633.77,-314.79"/>
<polygon fill="#9a32cd" stroke="#9a32cd" points="207.31,-653.75 197.09,-656.52 206.81,-660.73 207.31,-653.75"/>
</a>
</g>
<text text-anchor="middle" x="386" y="-660.23" font-family="Helvetica,sans-Serif" font-size="10.00" fill="grey"> Tracks</text>
</g>
<!-- Node8&#45;&gt;Node3 -->
<g id="edge7_Node000003_Node000008" class="edge">
<title>Node8&#45;&gt;Node3</title>
<g id="a_edge7_Node000003_Node000008"><a xlink:title=" ">
<path fill="none" stroke="#9a32cd" stroke-dasharray="5,2" d="M205.27,-632.11C231.64,-623.83 262.24,-613.2 289,-601.23 319.16,-587.75 352.13,-567.56 370.52,-555.76"/>
<polygon fill="#9a32cd" stroke="#9a32cd" points="203.9,-628.87 195.38,-635.17 205.97,-635.56 203.9,-628.87"/>
</a>
</g>
<text text-anchor="middle" x="252" y="-630.23" font-family="Helvetica,sans-Serif" font-size="10.00" fill="grey"> Courses</text>
</g>
<!-- Node9 -->
<g id="Node000009" class="node">
<title>Node9</title>
<g id="a_Node000009"><a xlink:title=" ">
<polygon fill="white" stroke="#666666" points="406.5,-425.73 365.5,-425.73 365.5,-406.73 406.5,-406.73 406.5,-425.73"/>
<text text-anchor="middle" x="386" y="-413.73" font-family="Helvetica,sans-Serif" font-size="10.00">MtxF</text>
</a>
</g>
</g>
<!-- Node9&#45;&gt;Node1 -->
<g id="edge8_Node000001_Node000009" class="edge">
<title>Node9&#45;&gt;Node1</title>
<g id="a_edge8_Node000001_Node000009"><a xlink:title=" ">
<path fill="none" stroke="#9a32cd" stroke-dasharray="5,2" d="M416.72,-421.71C460.29,-427.99 542.07,-432.96 595,-394.23 621.41,-374.91 630.19,-333.76 632.89,-314.97"/>
<polygon fill="#9a32cd" stroke="#9a32cd" points="417.18,-418.24 406.76,-420.15 416.1,-425.15 417.18,-418.24"/>
</a>
</g>
<text text-anchor="middle" x="539" y="-428.23" font-family="Helvetica,sans-Serif" font-size="10.00" fill="grey"> Mtx</text>
</g>
<!-- Node10 -->
<g id="Node000010" class="node">
<title>Node10</title>
<g id="a_Node000010"><a xlink:title=" ">
<polygon fill="white" stroke="#666666" points="434.5,-388.73 337.5,-388.73 337.5,-369.73 434.5,-369.73 434.5,-388.73"/>
<text text-anchor="middle" x="386" y="-376.73" font-family="Helvetica,sans-Serif" font-size="10.00">vector&lt; Cup * &gt;</text>
</a>
</g>
</g>
<!-- Node10&#45;&gt;Node1 -->
<g id="edge9_Node000001_Node000010" class="edge">
<title>Node10&#45;&gt;Node1</title>
<g id="a_edge9_Node000001_Node000010"><a xlink:title=" ">
<path fill="none" stroke="#9a32cd" stroke-dasharray="5,2" d="M444.79,-382.31C488.56,-382.17 548.84,-376.5 595,-351.23 610.43,-342.79 622.4,-325.62 628.81,-314.81"/>
<polygon fill="#9a32cd" stroke="#9a32cd" points="444.62,-378.81 434.59,-382.25 444.57,-385.81 444.62,-378.81"/>
</a>
</g>
<text text-anchor="middle" x="539" y="-383.23" font-family="Helvetica,sans-Serif" font-size="10.00" fill="grey"> Cups</text>
</g>
<!-- Node11 -->
<g id="Node000011" class="node">
<title>Node11</title>
<g id="a_Node000011"><a xlink:title=" ">
<polygon fill="white" stroke="#666666" points="459,-351.73 313,-351.73 313,-332.73 459,-332.73 459,-351.73"/>
<text text-anchor="middle" x="386" y="-339.73" font-family="Helvetica,sans-Serif" font-size="10.00">vector&lt; GameCamera * &gt;</text>
</a>
</g>
</g>
<!-- Node11&#45;&gt;Node1 -->
<g id="edge11_Node000001_Node000011" class="edge">
<title>Node11&#45;&gt;Node1</title>
<g id="a_edge11_Node000001_Node000011"><a xlink:title=" ">
<path fill="none" stroke="#9a32cd" stroke-dasharray="5,2" d="M469.18,-338.51C507.77,-335.5 554.17,-330.07 595,-320.23 600.92,-318.81 607.16,-316.7 612.86,-314.52"/>
<polygon fill="#9a32cd" stroke="#9a32cd" points="468.74,-335.04 459.02,-339.26 469.26,-342.02 468.74,-335.04"/>
</a>
</g>
<text text-anchor="middle" x="539" y="-339.23" font-family="Helvetica,sans-Serif" font-size="10.00" fill="grey"> Cameras</text>
</g>
<!-- Node12 -->
<g id="Node000012" class="node">
<title>Node12</title>
<g id="a_Node000012"><a xlink:title=" ">
<polygon fill="white" stroke="#666666" points="465,-314.73 307,-314.73 307,-295.73 465,-295.73 465,-314.73"/>
<text text-anchor="middle" x="386" y="-302.73" font-family="Helvetica,sans-Serif" font-size="10.00">vector&lt; StaticMeshActor * &gt;</text>
</a>
</g>
</g>
<!-- Node12&#45;&gt;Node1 -->
<g id="edge12_Node000001_Node000012" class="edge">
<title>Node12&#45;&gt;Node1</title>
<g id="a_edge12_Node000001_Node000012"><a xlink:title=" ">
<path fill="none" stroke="#9a32cd" stroke-dasharray="5,2" d="M475.27,-305.23C524.84,-305.23 582.67,-305.23 612.99,-305.23"/>
<polygon fill="#9a32cd" stroke="#9a32cd" points="475.15,-301.73 465.15,-305.23 475.15,-308.73 475.15,-301.73"/>
</a>
</g>
<text text-anchor="middle" x="539" y="-308.23" font-family="Helvetica,sans-Serif" font-size="10.00" fill="grey"> StaticMeshActors</text>
</g>
<!-- Node13 -->
<g id="Node000013" class="node">
<title>Node13</title>
<g id="a_Node000013"><a xlink:title=" ">
<polygon fill="white" stroke="#666666" points="441,-277.73 331,-277.73 331,-258.73 441,-258.73 441,-277.73"/>
<text text-anchor="middle" x="386" y="-265.73" font-family="Helvetica,sans-Serif" font-size="10.00">vector&lt; AActor * &gt;</text>
</a>
</g>
</g>
<!-- Node13&#45;&gt;Node1 -->
<g id="edge13_Node000001_Node000013" class="edge">
<title>Node13&#45;&gt;Node1</title>
<g id="a_edge13_Node000001_Node000013"><a xlink:title=" ">
<path fill="none" stroke="#9a32cd" stroke-dasharray="5,2" d="M451.34,-270.69C492.81,-273.34 547.65,-278.83 595,-290.23 600.92,-291.66 607.16,-293.77 612.86,-295.95"/>
<polygon fill="#9a32cd" stroke="#9a32cd" points="451.29,-267.18 441.09,-270.08 450.87,-274.17 451.29,-267.18"/>
</a>
</g>
<text text-anchor="middle" x="539" y="-293.23" font-family="Helvetica,sans-Serif" font-size="10.00" fill="grey"> Actors</text>
</g>
<!-- Node14 -->
<g id="Node000014" class="node">
<title>Node14</title>
<g id="a_Node000014"><a xlink:title=" ">
<polygon fill="white" stroke="#666666" points="444.5,-240.73 327.5,-240.73 327.5,-221.73 444.5,-221.73 444.5,-240.73"/>
<text text-anchor="middle" x="386" y="-228.73" font-family="Helvetica,sans-Serif" font-size="10.00">vector&lt; OObject * &gt;</text>
</a>
</g>
</g>
<!-- Node14&#45;&gt;Node1 -->
<g id="edge14_Node000001_Node000014" class="edge">
<title>Node14&#45;&gt;Node1</title>
<g id="a_edge14_Node000001_Node000014"><a xlink:title=" ">
<path fill="none" stroke="#9a32cd" stroke-dasharray="5,2" d="M454.79,-227.75C497.46,-228.41 552.34,-234.73 595,-258.23 610.6,-266.83 622.52,-284.39 628.87,-295.44"/>
<polygon fill="#9a32cd" stroke="#9a32cd" points="454.79,-224.25 444.77,-227.69 454.75,-231.24 454.79,-224.25"/>
</a>
</g>
<text text-anchor="middle" x="539" y="-261.23" font-family="Helvetica,sans-Serif" font-size="10.00" fill="grey"> Objects</text>
</g>
<!-- Node15 -->
<g id="Node000015" class="node">
<title>Node15</title>
<g id="a_Node000015"><a xlink:title=" ">
<polygon fill="white" stroke="#666666" points="461,-203.73 311,-203.73 311,-184.73 461,-184.73 461,-203.73"/>
<text text-anchor="middle" x="386" y="-191.73" font-family="Helvetica,sans-Serif" font-size="10.00">vector&lt; ParticleEmitter * &gt;</text>
</a>
</g>
</g>
<!-- Node15&#45;&gt;Node1 -->
<g id="edge15_Node000001_Node000015" class="edge">
<title>Node15&#45;&gt;Node1</title>
<g id="a_edge15_Node000001_Node000015"><a xlink:title=" ">
<path fill="none" stroke="#9a32cd" stroke-dasharray="5,2" d="M456.89,-184C500.55,-181.42 555.73,-185.55 595,-214.23 622.07,-234.01 630.53,-276.46 633.02,-295.56"/>
<polygon fill="#9a32cd" stroke="#9a32cd" points="456.64,-180.51 446.91,-184.71 457.14,-187.49 456.64,-180.51"/>
</a>
</g>
<text text-anchor="middle" x="539" y="-217.23" font-family="Helvetica,sans-Serif" font-size="10.00" fill="grey"> Emitters</text>
</g>
<!-- Node16 -->
<g id="Node000016" class="node">
<title>Node16</title>
<g id="a_Node000016"><a xlink:title=" ">
<polygon fill="white" stroke="#666666" points="448.5,-166.23 323.5,-166.23 323.5,-136.23 448.5,-136.23 448.5,-166.23"/>
<text text-anchor="start" x="331.5" y="-154.23" font-family="Helvetica,sans-Serif" font-size="10.00">unordered_map&lt; s32,</text>
<text text-anchor="middle" x="386" y="-143.23" font-family="Helvetica,sans-Serif" font-size="10.00"> OLakitu * &gt;</text>
</a>
</g>
</g>
<!-- Node16&#45;&gt;Node1 -->
<g id="edge16_Node000001_Node000016" class="edge">
<title>Node16&#45;&gt;Node1</title>
<g id="a_edge16_Node000001_Node000016"><a xlink:title=" ">
<path fill="none" stroke="#9a32cd" stroke-dasharray="5,2" d="M458.99,-138.07C502.96,-134.25 557.72,-137.62 595,-168.23 634.56,-200.72 635.64,-270.24 634.61,-295.67"/>
<polygon fill="#9a32cd" stroke="#9a32cd" points="458.52,-134.6 448.92,-139.08 459.22,-141.56 458.52,-134.6"/>
</a>
</g>
<text text-anchor="middle" x="539" y="-171.23" font-family="Helvetica,sans-Serif" font-size="10.00" fill="grey"> Lakitus</text>
</g>
<!-- Node17 -->
<g id="Node000017" class="node">
<title>Node17</title>
<g id="a_Node000017"><a xlink:href="classPlayerBombKart.html" target="_top" xlink:title=" ">
<polygon fill="white" stroke="#666666" points="434,-117.73 338,-117.73 338,-98.73 434,-98.73 434,-117.73"/>
<text text-anchor="middle" x="386" y="-105.73" font-family="Helvetica,sans-Serif" font-size="10.00">PlayerBombKart</text>
</a>
</g>
</g>
<!-- Node17&#45;&gt;Node1 -->
<g id="edge17_Node000001_Node000017" class="edge">
<title>Node17&#45;&gt;Node1</title>
<g id="a_edge17_Node000001_Node000017"><a xlink:title=" ">
<path fill="none" stroke="#9a32cd" stroke-dasharray="5,2" d="M432.5,-96.73C479.03,-87.91 550.6,-82.91 595,-121.23 621.82,-144.39 631.19,-260.5 633.43,-295.34"/>
<polygon fill="#9a32cd" stroke="#9a32cd" points="431.79,-93.3 422.68,-98.72 433.18,-100.16 431.79,-93.3"/>
</a>
</g>
<text text-anchor="middle" x="539" y="-124.23" font-family="Helvetica,sans-Serif" font-size="10.00" fill="grey"> playerBombKart</text>
</g>
<!-- Node18 -->
<g id="Node000018" class="node">
<title>Node18</title>
<g id="a_Node000018"><a xlink:title=" ">
<polygon fill="white" stroke="#666666" points="157.5,-99.73 123.5,-99.73 123.5,-80.73 157.5,-80.73 157.5,-99.73"/>
<text text-anchor="middle" x="140.5" y="-87.73" font-family="Helvetica,sans-Serif" font-size="10.00">s16</text>
</a>
</g>
</g>
<!-- Node18&#45;&gt;Node17 -->
<g id="edge18_Node000017_Node000018" class="edge">
<title>Node18&#45;&gt;Node17</title>
<g id="a_edge18_Node000017_Node000018"><a xlink:title=" ">
<path fill="none" stroke="#9a32cd" stroke-dasharray="5,2" d="M168.24,-90.02C197.83,-89.99 246.91,-90.61 289,-94.23 304.94,-95.61 322.27,-97.89 337.76,-100.22"/>
<polygon fill="#9a32cd" stroke="#9a32cd" points="167.89,-86.52 157.91,-90.05 167.92,-93.52 167.89,-86.52"/>
</a>
</g>
<text text-anchor="middle" x="252" y="-97.23" font-family="Helvetica,sans-Serif" font-size="10.00" fill="grey"> state</text>
</g>
<!-- Node19 -->
<g id="Node000019" class="node">
<title>Node19</title>
<g id="a_Node000019"><a xlink:href="structFVector.html" target="_top" xlink:title=" ">
<polygon fill="white" stroke="#666666" points="167,-62.73 114,-62.73 114,-43.73 167,-43.73 167,-62.73"/>
<text text-anchor="middle" x="140.5" y="-50.73" font-family="Helvetica,sans-Serif" font-size="10.00">FVector</text>
</a>
</g>
</g>
<!-- Node19&#45;&gt;Node17 -->
<g id="edge19_Node000017_Node000019" class="edge">
<title>Node19&#45;&gt;Node17</title>
<g id="a_edge19_Node000017_Node000019"><a xlink:title=" ">
<path fill="none" stroke="#9a32cd" stroke-dasharray="5,2" d="M177.34,-53.53C208.1,-54.95 253.02,-59.83 289,-75.23 298.32,-79.22 297.87,-84.83 307,-89.23 316.54,-93.84 327.29,-97.39 337.69,-100.1"/>
<polygon fill="#9a32cd" stroke="#9a32cd" points="177.21,-50.02 167.09,-53.16 176.96,-57.02 177.21,-50.02"/>
</a>
</g>
<text text-anchor="middle" x="252" y="-78.23" font-family="Helvetica,sans-Serif" font-size="10.00" fill="grey"> pos</text>
</g>
<!-- Node20 -->
<g id="Node000020" class="node">
<title>Node20</title>
<g id="a_Node000020"><a xlink:title=" ">
<polygon fill="white" stroke="#666666" points="38,-62.73 0,-62.73 0,-43.73 38,-43.73 38,-62.73"/>
<text text-anchor="middle" x="19" y="-50.73" font-family="Helvetica,sans-Serif" font-size="10.00">float</text>
</a>
</g>
</g>
<!-- Node20&#45;&gt;Node19 -->
<g id="edge20_Node000019_Node000020" class="edge">
<title>Node20&#45;&gt;Node19</title>
<g id="a_edge20_Node000019_Node000020"><a xlink:title=" ">
<path fill="none" stroke="#9a32cd" stroke-dasharray="5,2" d="M48.41,-53.23C68.2,-53.23 94.41,-53.23 113.63,-53.23"/>
<polygon fill="#9a32cd" stroke="#9a32cd" points="48.15,-49.73 38.15,-53.23 48.15,-56.73 48.15,-49.73"/>
</a>
</g>
<text text-anchor="middle" x="61" y="-78.23" font-family="Helvetica,sans-Serif" font-size="10.00" fill="grey"> x</text>
<text text-anchor="middle" x="61" y="-67.23" font-family="Helvetica,sans-Serif" font-size="10.00" fill="grey">y</text>
<text text-anchor="middle" x="61" y="-56.23" font-family="Helvetica,sans-Serif" font-size="10.00" fill="grey">z</text>
</g>
<!-- Node21 -->
<g id="Node000021" class="node">
<title>Node21</title>
<g id="a_Node000021"><a xlink:title=" ">
<polygon fill="white" stroke="#666666" points="156.5,-173.73 124.5,-173.73 124.5,-154.73 156.5,-154.73 156.5,-173.73"/>
<text text-anchor="middle" x="140.5" y="-161.73" font-family="Helvetica,sans-Serif" font-size="10.00">f32</text>
</a>
</g>
</g>
<!-- Node21&#45;&gt;Node17 -->
<g id="edge21_Node000017_Node000021" class="edge">
<title>Node21&#45;&gt;Node17</title>
<g id="a_edge21_Node000017_Node000021"><a xlink:title=" ">
<path fill="none" stroke="#9a32cd" stroke-dasharray="5,2" d="M166.81,-161.02C196.54,-156.84 247.11,-148.48 289,-135.23 297.35,-132.6 298.71,-130.06 307,-127.23 317.42,-123.68 328.84,-120.51 339.65,-117.83"/>
<polygon fill="#9a32cd" stroke="#9a32cd" points="166.3,-157.56 156.86,-162.37 167.24,-164.49 166.3,-157.56"/>
</a>
</g>
<text text-anchor="middle" x="252" y="-155.23" font-family="Helvetica,sans-Serif" font-size="10.00" fill="grey"> surfaceHeight</text>
</g>
<!-- Node22 -->
<g id="Node000022" class="node">
<title>Node22</title>
<g id="a_Node000022"><a xlink:title=" ">
<polygon fill="white" stroke="#666666" points="157.5,-136.73 123.5,-136.73 123.5,-117.73 157.5,-117.73 157.5,-136.73"/>
<text text-anchor="middle" x="140.5" y="-124.73" font-family="Helvetica,sans-Serif" font-size="10.00">s32</text>
</a>
</g>
</g>
<!-- Node22&#45;&gt;Node17 -->
<g id="edge22_Node000017_Node000022" class="edge">
<title>Node22&#45;&gt;Node17</title>
<g id="a_edge22_Node000017_Node000022"><a xlink:title=" ">
<path fill="none" stroke="#9a32cd" stroke-dasharray="5,2" d="M168.04,-125.16C208.7,-121.99 287.02,-115.88 337.59,-111.93"/>
<polygon fill="#9a32cd" stroke="#9a32cd" points="167.55,-121.69 157.85,-125.96 168.1,-128.67 167.55,-121.69"/>
</a>
</g>
<text text-anchor="middle" x="252" y="-123.23" font-family="Helvetica,sans-Serif" font-size="10.00" fill="grey"> _primAlpha</text>
</g>
<!-- Node23 -->
<g id="Node000023" class="node">
<title>Node23</title>
<g id="a_Node000023"><a xlink:title=" ">
<polygon fill="white" stroke="#666666" points="453,-80.23 319,-80.23 319,-50.23 453,-50.23 453,-80.23"/>
<text text-anchor="start" x="327" y="-68.23" font-family="Helvetica,sans-Serif" font-size="10.00">vector&lt; std::shared</text>
<text text-anchor="middle" x="386" y="-57.23" font-family="Helvetica,sans-Serif" font-size="10.00">_ptr&lt; TrainCrossing &gt; &gt;</text>
</a>
</g>
</g>
<!-- Node23&#45;&gt;Node1 -->
<g id="edge23_Node000001_Node000023" class="edge">
<title>Node23&#45;&gt;Node1</title>
<g id="a_edge23_Node000001_Node000023"><a xlink:title=" ">
<path fill="none" stroke="#9a32cd" stroke-dasharray="5,2" d="M454.99,-48.56C500.1,-41.81 557.66,-42.12 595,-75.23 628.64,-105.06 633.26,-256.12 633.9,-295.72"/>
<polygon fill="#9a32cd" stroke="#9a32cd" points="454.28,-45.13 444.98,-50.2 455.41,-52.04 454.28,-45.13"/>
</a>
</g>
<text text-anchor="middle" x="539" y="-78.23" font-family="Helvetica,sans-Serif" font-size="10.00" fill="grey"> Crossings</text>
</g>
<!-- Node24 -->
<g id="Node000024" class="node">
<title>Node24</title>
<g id="a_Node000024"><a xlink:title=" ">
<polygon fill="white" stroke="#666666" points="465,-31.73 307,-31.73 307,-12.73 465,-12.73 465,-31.73"/>
<text text-anchor="middle" x="386" y="-19.73" font-family="Helvetica,sans-Serif" font-size="10.00">unique_ptr&lt; RaceManager &gt;</text>
</a>
</g>
</g>
<!-- Node24&#45;&gt;Node1 -->
<g id="edge25_Node000001_Node000024" class="edge">
<title>Node24&#45;&gt;Node1</title>
<g id="a_edge25_Node000001_Node000024"><a xlink:title=" ">
<path fill="none" stroke="#9a32cd" stroke-dasharray="5,2" d="M426.95,-10.22C473.45,1.05 549.64,10.71 595,-30.23 635.27,-66.58 634.88,-251.47 634.19,-295.71"/>
<polygon fill="#9a32cd" stroke="#9a32cd" points="426.04,-6.84 417.22,-12.71 427.78,-13.62 426.04,-6.84"/>
</a>
</g>
<text text-anchor="middle" x="539" y="-33.23" font-family="Helvetica,sans-Serif" font-size="10.00" fill="grey"> RaceManagerInstance</text>
</g>
</g>
</svg>
