<?xml version="1.0" encoding="UTF-8" standalone="no"?>
<!DOCTYPE svg PUBLIC "-//W3C//DTD SVG 1.1//EN"
 "http://www.w3.org/Graphics/SVG/1.1/DTD/svg11.dtd">
<!-- Generated by graphviz version 2.43.0 (0)
 -->
<!-- Title: GameUI::PortMenu::AddWidget Pages: 1 -->
<svg width="837pt" height="158pt"
 viewBox="0.00 0.00 837.00 157.56" xmlns="http://www.w3.org/2000/svg" xmlns:xlink="http://www.w3.org/1999/xlink">
<g id="graph0" class="graph" transform="scale(1 1) rotate(0) translate(4 153.56)">
<title>GameUI::PortMenu::AddWidget</title>
<!-- Node1 -->
<g id="Node000001" class="node">
<title>Node1</title>
<g id="a_Node000001"><a xlink:title=" ">
<polygon fill="#999999" stroke="#666666" points="829,-80.19 661,-80.19 661,-61.19 829,-61.19 829,-80.19"/>
<text text-anchor="middle" x="745" y="-68.19" font-family="Helvetica,sans-Serif" font-size="10.00">GameUI::PortMenu::AddWidget</text>
</a>
</g>
</g>
<!-- Node2 -->
<g id="Node000002" class="node">
<title>Node2</title>
<g id="a_Node000002"><a xlink:href="classGameUI_1_1PortMenu.html#ae2b125ddd080ba7cfd4da340dfb14192" target="_top" xlink:title=" ">
<polygon fill="white" stroke="#666666" points="386.5,-128.69 233.5,-128.69 233.5,-98.69 386.5,-98.69 386.5,-128.69"/>
<text text-anchor="start" x="241.5" y="-116.69" font-family="Helvetica,sans-Serif" font-size="10.00">GameUI::PortMenu::AddDev</text>
<text text-anchor="middle" x="310" y="-105.69" font-family="Helvetica,sans-Serif" font-size="10.00">Tools</text>
</a>
</g>
</g>
<!-- Node1&#45;&gt;Node2 -->
<g id="edge1_Node000001_Node000002" class="edge">
<title>Node1&#45;&gt;Node2</title>
<g id="a_edge1_Node000001_Node000002"><a xlink:title=" ">
<path fill="none" stroke="#63b8ff" d="M723.96,-86.29C701.38,-102.78 662.86,-127.77 625,-137.69 536.55,-160.88 429.65,-143.53 366.16,-128.71"/>
<polygon fill="#63b8ff" stroke="#63b8ff" points="726.16,-89.01 732.07,-80.22 721.97,-83.41 726.16,-89.01"/>
</a>
</g>
</g>
<!-- Node4 -->
<g id="Node000004" class="node">
<title>Node4</title>
<g id="a_Node000004"><a xlink:href="classGameUI_1_1PortMenu.html#ad0164e1a4d1111fb2312cdec60c8d223" target="_top" xlink:title=" ">
<polygon fill="white" stroke="#666666" points="413,-61.19 207,-61.19 207,-42.19 413,-42.19 413,-61.19"/>
<text text-anchor="middle" x="310" y="-49.19" font-family="Helvetica,sans-Serif" font-size="10.00">GameUI::PortMenu::AddEnhancements</text>
</a>
</g>
</g>
<!-- Node1&#45;&gt;Node4 -->
<g id="edge3_Node000001_Node000004" class="edge">
<title>Node1&#45;&gt;Node4</title>
<g id="a_edge3_Node000001_Node000004"><a xlink:title=" ">
<path fill="none" stroke="#63b8ff" d="M650.64,-66.6C580.68,-63.53 485.01,-59.33 413.03,-56.17"/>
<polygon fill="#63b8ff" stroke="#63b8ff" points="650.63,-70.1 660.77,-67.04 650.93,-63.11 650.63,-70.1"/>
</a>
</g>
</g>
<!-- Node5 -->
<g id="Node000005" class="node">
<title>Node5</title>
<g id="a_Node000005"><a xlink:href="classGameUI_1_1PortMenu.html#acf1c08d9ed088b6b33ec91a0e0a48494" target="_top" xlink:title=" ">
<polygon fill="white" stroke="#666666" points="625,-42.19 449,-42.19 449,-23.19 625,-23.19 625,-42.19"/>
<text text-anchor="middle" x="537" y="-30.19" font-family="Helvetica,sans-Serif" font-size="10.00">GameUI::PortMenu::AddRulesets</text>
</a>
</g>
</g>
<!-- Node1&#45;&gt;Node5 -->
<g id="edge5_Node000001_Node000005" class="edge">
<title>Node1&#45;&gt;Node5</title>
<g id="a_edge5_Node000001_Node000005"><a xlink:title=" ">
<path fill="none" stroke="#63b8ff" d="M682.1,-59.27C652.63,-53.84 617.78,-47.41 589.74,-42.24"/>
<polygon fill="#63b8ff" stroke="#63b8ff" points="681.81,-62.78 692.28,-61.15 683.08,-55.9 681.81,-62.78"/>
</a>
</g>
</g>
<!-- Node6 -->
<g id="Node000006" class="node">
<title>Node6</title>
<g id="a_Node000006"><a xlink:href="classGameUI_1_1PortMenu.html#aae9fe5836ea57a15312e9f9a17e91850" target="_top" xlink:title=" ">
<polygon fill="white" stroke="#666666" points="618.5,-128.69 455.5,-128.69 455.5,-98.69 618.5,-98.69 618.5,-128.69"/>
<text text-anchor="start" x="463.5" y="-116.69" font-family="Helvetica,sans-Serif" font-size="10.00">GameUI::PortMenu::AddScene</text>
<text text-anchor="middle" x="537" y="-105.69" font-family="Helvetica,sans-Serif" font-size="10.00">Visibility</text>
</a>
</g>
</g>
<!-- Node1&#45;&gt;Node6 -->
<g id="edge7_Node000001_Node000006" class="edge">
<title>Node1&#45;&gt;Node6</title>
<g id="a_edge7_Node000001_Node000006"><a xlink:title=" ">
<path fill="none" stroke="#63b8ff" d="M688.23,-82.33C664.11,-87.37 635.58,-93.32 609.89,-98.69"/>
<polygon fill="#63b8ff" stroke="#63b8ff" points="689.21,-85.71 698.28,-80.24 687.78,-78.85 689.21,-85.71"/>
</a>
</g>
</g>
<!-- Node7 -->
<g id="Node000007" class="node">
<title>Node7</title>
<g id="a_Node000007"><a xlink:href="classGameUI_1_1PortMenu.html#ad1010e161497fac3f609b69b0f7d6348" target="_top" xlink:title=" ">
<polygon fill="white" stroke="#666666" points="396.5,-24.19 223.5,-24.19 223.5,-5.19 396.5,-5.19 396.5,-24.19"/>
<text text-anchor="middle" x="310" y="-12.19" font-family="Helvetica,sans-Serif" font-size="10.00">GameUI::PortMenu::AddSettings</text>
</a>
</g>
</g>
<!-- Node1&#45;&gt;Node7 -->
<g id="edge9_Node000001_Node000007" class="edge">
<title>Node1&#45;&gt;Node7</title>
<g id="a_edge9_Node000001_Node000007"><a xlink:title=" ">
<path fill="none" stroke="#63b8ff" d="M720.64,-55.61C697.45,-41.59 660.34,-21.72 625,-13.69 544.46,4.6 449.28,0.89 384.99,-5.18"/>
<polygon fill="#63b8ff" stroke="#63b8ff" points="719.05,-58.74 729.39,-61.02 722.73,-52.78 719.05,-58.74"/>
</a>
</g>
</g>
<!-- Node3 -->
<g id="Node000003" class="node">
<title>Node3</title>
<g id="a_Node000003"><a xlink:href="classGameUI_1_1PortMenu.html#a6107d5040943b730f00a96293d335e23" target="_top" xlink:title=" ">
<polygon fill="white" stroke="#666666" points="171,-61.19 0,-61.19 0,-42.19 171,-42.19 171,-61.19"/>
<text text-anchor="middle" x="85.5" y="-49.19" font-family="Helvetica,sans-Serif" font-size="10.00">GameUI::PortMenu::InitElement</text>
</a>
</g>
</g>
<!-- Node2&#45;&gt;Node3 -->
<g id="edge2_Node000002_Node000003" class="edge">
<title>Node2&#45;&gt;Node3</title>
<g id="a_edge2_Node000002_Node000003"><a xlink:title=" ">
<path fill="none" stroke="#63b8ff" d="M245.34,-95.95C204.83,-84.66 153.93,-70.48 120.83,-61.26"/>
<polygon fill="#63b8ff" stroke="#63b8ff" points="244.57,-99.37 255.14,-98.68 246.45,-92.63 244.57,-99.37"/>
</a>
</g>
</g>
<!-- Node4&#45;&gt;Node3 -->
<g id="edge4_Node000004_Node000003" class="edge">
<title>Node4&#45;&gt;Node3</title>
<g id="a_edge4_Node000004_Node000003"><a xlink:title=" ">
<path fill="none" stroke="#63b8ff" d="M196.72,-51.69C188.08,-51.69 179.44,-51.69 171.02,-51.69"/>
<polygon fill="#63b8ff" stroke="#63b8ff" points="196.87,-55.19 206.87,-51.69 196.87,-48.19 196.87,-55.19"/>
</a>
</g>
</g>
<!-- Node5&#45;&gt;Node4 -->
<g id="edge6_Node000005_Node000004" class="edge">
<title>Node5&#45;&gt;Node4</title>
<g id="a_edge6_Node000005_Node000004"><a xlink:title=" ">
<path fill="none" stroke="#63b8ff" d="M438.54,-40.92C430.16,-41.63 421.67,-42.35 413.25,-43.06"/>
<polygon fill="#63b8ff" stroke="#63b8ff" points="439.02,-44.39 448.69,-40.07 438.43,-37.42 439.02,-44.39"/>
</a>
</g>
</g>
<!-- Node6&#45;&gt;Node2 -->
<g id="edge8_Node000006_Node000002" class="edge">
<title>Node6&#45;&gt;Node2</title>
<g id="a_edge8_Node000006_Node000002"><a xlink:title=" ">
<path fill="none" stroke="#63b8ff" d="M445.3,-113.69C425.8,-113.69 405.38,-113.69 386.53,-113.69"/>
<polygon fill="#63b8ff" stroke="#63b8ff" points="445.41,-117.19 455.41,-113.69 445.41,-110.19 445.41,-117.19"/>
</a>
</g>
</g>
<!-- Node7&#45;&gt;Node3 -->
<g id="edge10_Node000007_Node000003" class="edge">
<title>Node7&#45;&gt;Node3</title>
<g id="a_edge10_Node000007_Node000003"><a xlink:title=" ">
<path fill="none" stroke="#63b8ff" d="M241.78,-25.87C210.58,-31.06 173.88,-37.16 143.99,-42.13"/>
<polygon fill="#63b8ff" stroke="#63b8ff" points="242.41,-29.31 251.7,-24.22 241.26,-22.41 242.41,-29.31"/>
</a>
</g>
</g>
</g>
</svg>
