<?xml version="1.0" encoding="UTF-8" standalone="no"?>
<!DOCTYPE svg PUBLIC "-//W3C//DTD SVG 1.1//EN"
 "http://www.w3.org/Graphics/SVG/1.1/DTD/svg11.dtd">
<!-- Generated by graphviz version 2.43.0 (0)
 -->
<!-- Title: KalimariDesert::Render Pages: 1 -->
<svg width="732pt" height="232pt"
 viewBox="0.00 0.00 732.00 232.00" xmlns="http://www.w3.org/2000/svg" xmlns:xlink="http://www.w3.org/1999/xlink">
<g id="graph0" class="graph" transform="scale(1 1) rotate(0) translate(4 228)">
<title>KalimariDesert::Render</title>
<!-- Node1 -->
<g id="Node000001" class="node">
<title>Node1</title>
<g id="a_Node000001"><a xlink:title=" ">
<polygon fill="#999999" stroke="#666666" points="131,-167 0,-167 0,-148 131,-148 131,-167"/>
<text text-anchor="middle" x="65.5" y="-155" font-family="Helvetica,sans-Serif" font-size="10.00">KalimariDesert::Render</text>
</a>
</g>
</g>
<!-- Node2 -->
<g id="Node000002" class="node">
<title>Node2</title>
<g id="a_Node000002"><a xlink:href="render__courses_8c.html#a9a9119b96bf015cf8b5a168485f67e3f" target="_top" xlink:title=" ">
<polygon fill="white" stroke="#666666" points="282.5,-224 190.5,-224 190.5,-205 282.5,-205 282.5,-224"/>
<text text-anchor="middle" x="236.5" y="-212" font-family="Helvetica,sans-Serif" font-size="10.00">func_80290C20</text>
</a>
</g>
</g>
<!-- Node1&#45;&gt;Node2 -->
<g id="edge1_Node000001_Node000002" class="edge">
<title>Node1&#45;&gt;Node2</title>
<g id="a_edge1_Node000001_Node000002"><a xlink:title=" ">
<path fill="none" stroke="#63b8ff" d="M94.79,-167.04C122.94,-176.53 166.32,-191.17 197.47,-201.67"/>
<polygon fill="#63b8ff" stroke="#63b8ff" points="196.53,-205.05 207.12,-204.93 198.76,-198.42 196.53,-205.05"/>
</a>
</g>
</g>
<!-- Node3 -->
<g id="Node000003" class="node">
<title>Node3</title>
<g id="a_Node000003"><a xlink:href="GBIMiddleware_8cpp.html#a4ecc44e3c6f1ca5a6b4a20c41d3bd2d2" target="_top" xlink:title=" ">
<polygon fill="white" stroke="#666666" points="445,-204 356,-204 356,-185 445,-185 445,-204"/>
<text text-anchor="middle" x="400.5" y="-192" font-family="Helvetica,sans-Serif" font-size="10.00">gSPDisplayList</text>
</a>
</g>
</g>
<!-- Node1&#45;&gt;Node3 -->
<g id="edge2_Node000001_Node000003" class="edge">
<title>Node1&#45;&gt;Node3</title>
<g id="a_edge2_Node000001_Node000003"><a xlink:title=" ">
<path fill="none" stroke="#63b8ff" d="M131.1,-164.68C193.55,-171.62 287.07,-182.01 345.62,-188.51"/>
<polygon fill="#63b8ff" stroke="#63b8ff" points="345.45,-192.02 355.77,-189.64 346.22,-185.06 345.45,-192.02"/>
</a>
</g>
</g>
<!-- Node6 -->
<g id="Node000006" class="node">
<title>Node6</title>
<g id="a_Node000006"><a xlink:href="render__courses_8c.html#a0c6536cf72cff97ccc3ed5c85967817e" target="_top" xlink:title=" ">
<polygon fill="white" stroke="#666666" points="306,-148 167,-148 167,-129 306,-129 306,-148"/>
<text text-anchor="middle" x="236.5" y="-136" font-family="Helvetica,sans-Serif" font-size="10.00">render_course_segments</text>
</a>
</g>
</g>
<!-- Node1&#45;&gt;Node6 -->
<g id="edge5_Node000001_Node000006" class="edge">
<title>Node1&#45;&gt;Node6</title>
<g id="a_edge5_Node000001_Node000006"><a xlink:title=" ">
<path fill="none" stroke="#63b8ff" d="M131.36,-150.21C139.72,-149.27 148.35,-148.3 156.91,-147.34"/>
<polygon fill="#63b8ff" stroke="#63b8ff" points="157.34,-150.81 166.89,-146.21 156.56,-143.85 157.34,-150.81"/>
</a>
</g>
</g>
<!-- Node10 -->
<g id="Node000010" class="node">
<title>Node10</title>
<g id="a_Node000010"><a xlink:href="math__util_8c.html#ae3e380239986384fef7c10e23eced83f" target="_top" xlink:title=" ">
<polygon fill="white" stroke="#666666" points="305,-56 168,-56 168,-37 305,-37 305,-56"/>
<text text-anchor="middle" x="236.5" y="-44" font-family="Helvetica,sans-Serif" font-size="10.00">set_track_light_direction</text>
</a>
</g>
</g>
<!-- Node1&#45;&gt;Node10 -->
<g id="edge10_Node000001_Node000010" class="edge">
<title>Node1&#45;&gt;Node10</title>
<g id="a_edge10_Node000001_Node000010"><a xlink:title=" ">
<path fill="none" stroke="#63b8ff" d="M81.2,-147.84C110.54,-128.57 176.58,-85.2 212,-61.94"/>
<polygon fill="#63b8ff" stroke="#63b8ff" points="214.27,-64.63 220.71,-56.21 210.43,-58.78 214.27,-64.63"/>
</a>
</g>
</g>
<!-- Node4 -->
<g id="Node000004" class="node">
<title>Node4</title>
<g id="a_Node000004"><a xlink:href="Engine_8cpp.html#a223c8bc63f228dc11177515e38eff2db" target="_top" xlink:title=" ">
<polygon fill="white" stroke="#666666" points="644,-204 495,-204 495,-185 644,-185 644,-204"/>
<text text-anchor="middle" x="569.5" y="-192" font-family="Helvetica,sans-Serif" font-size="10.00">GameEngine_OTRSigCheck</text>
</a>
</g>
</g>
<!-- Node3&#45;&gt;Node4 -->
<g id="edge3_Node000003_Node000004" class="edge">
<title>Node3&#45;&gt;Node4</title>
<g id="a_edge3_Node000003_Node000004"><a xlink:title=" ">
<path fill="none" stroke="#63b8ff" d="M445.38,-194.5C457.47,-194.5 471,-194.5 484.55,-194.5"/>
<polygon fill="#63b8ff" stroke="#63b8ff" points="484.89,-198 494.89,-194.5 484.89,-191 484.89,-198"/>
</a>
</g>
</g>
<!-- Node5 -->
<g id="Node000005" class="node">
<title>Node5</title>
<g id="a_Node000005"><a xlink:href="string_8c.html#a008e171a518fe0e0352f31b245e03875" target="_top" xlink:title=" ">
<polygon fill="white" stroke="#666666" points="724,-204 680,-204 680,-185 724,-185 724,-204"/>
<text text-anchor="middle" x="702" y="-192" font-family="Helvetica,sans-Serif" font-size="10.00">strlen</text>
</a>
</g>
</g>
<!-- Node4&#45;&gt;Node5 -->
<g id="edge4_Node000004_Node000005" class="edge">
<title>Node4&#45;&gt;Node5</title>
<g id="a_edge4_Node000004_Node000005"><a xlink:title=" ">
<path fill="none" stroke="#63b8ff" d="M644.14,-194.5C653.12,-194.5 661.89,-194.5 669.75,-194.5"/>
<polygon fill="#63b8ff" stroke="#63b8ff" points="669.83,-198 679.83,-194.5 669.83,-191 669.83,-198"/>
</a>
</g>
</g>
<!-- Node6&#45;&gt;Node3 -->
<g id="edge7_Node000006_Node000003" class="edge">
<title>Node6&#45;&gt;Node3</title>
<g id="a_edge7_Node000006_Node000003"><a xlink:title=" ">
<path fill="none" stroke="#63b8ff" d="M265.57,-148.09C278,-152.4 292.76,-157.61 306,-162.5 322.1,-168.45 325.8,-170.82 342,-176.5 347.18,-178.32 352.66,-180.15 358.09,-181.9"/>
<polygon fill="#63b8ff" stroke="#63b8ff" points="357.15,-185.28 367.74,-184.98 359.27,-178.61 357.15,-185.28"/>
</a>
</g>
</g>
<!-- Node7 -->
<g id="Node000007" class="node">
<title>Node7</title>
<g id="a_Node000007"><a xlink:href="collision_8c.html#a053809031f467d0a6747788211e0ec69" target="_top" xlink:title=" ">
<polygon fill="white" stroke="#666666" points="459,-167 342,-167 342,-148 459,-148 459,-167"/>
<text text-anchor="middle" x="400.5" y="-155" font-family="Helvetica,sans-Serif" font-size="10.00">get_track_section_id</text>
</a>
</g>
</g>
<!-- Node6&#45;&gt;Node7 -->
<g id="edge6_Node000006_Node000007" class="edge">
<title>Node6&#45;&gt;Node7</title>
<g id="a_edge6_Node000006_Node000007"><a xlink:title=" ">
<path fill="none" stroke="#63b8ff" d="M306.2,-146.56C314.66,-147.55 323.31,-148.56 331.75,-149.55"/>
<polygon fill="#63b8ff" stroke="#63b8ff" points="331.59,-153.06 341.93,-150.75 332.41,-146.11 331.59,-153.06"/>
</a>
</g>
</g>
<!-- Node8 -->
<g id="Node000008" class="node">
<title>Node8</title>
<g id="a_Node000008"><a xlink:href="Game_8cpp.html#a8ebd6a4d970e4333ab5a9dd66c3d9c48" target="_top" xlink:title=" ">
<polygon fill="white" stroke="#666666" points="449,-130 352,-130 352,-111 449,-111 449,-130"/>
<text text-anchor="middle" x="400.5" y="-118" font-family="Helvetica,sans-Serif" font-size="10.00">IsBowsersCastle</text>
</a>
</g>
</g>
<!-- Node6&#45;&gt;Node8 -->
<g id="edge8_Node000006_Node000008" class="edge">
<title>Node6&#45;&gt;Node8</title>
<g id="a_edge8_Node000006_Node000008"><a xlink:title=" ">
<path fill="none" stroke="#63b8ff" d="M306.2,-130.87C317.96,-129.56 330.06,-128.22 341.5,-126.94"/>
<polygon fill="#63b8ff" stroke="#63b8ff" points="342.24,-130.38 351.79,-125.8 341.46,-123.43 342.24,-130.38"/>
</a>
</g>
</g>
<!-- Node9 -->
<g id="Node000009" class="node">
<title>Node9</title>
<g id="a_Node000009"><a xlink:href="Game_8cpp.html#a9f5c2ace915f66e850628695f297b1ff" target="_top" xlink:title=" ">
<polygon fill="white" stroke="#666666" points="451,-93 350,-93 350,-74 451,-74 451,-93"/>
<text text-anchor="middle" x="400.5" y="-81" font-family="Helvetica,sans-Serif" font-size="10.00">IsChocoMountain</text>
</a>
</g>
</g>
<!-- Node6&#45;&gt;Node9 -->
<g id="edge9_Node000006_Node000009" class="edge">
<title>Node6&#45;&gt;Node9</title>
<g id="a_edge9_Node000006_Node000009"><a xlink:title=" ">
<path fill="none" stroke="#63b8ff" d="M264.97,-128.93C286.03,-121.62 315.82,-111.33 342,-102.5 348.01,-100.47 354.39,-98.34 360.62,-96.27"/>
<polygon fill="#63b8ff" stroke="#63b8ff" points="361.83,-99.56 370.22,-93.09 359.63,-92.91 361.83,-99.56"/>
</a>
</g>
</g>
<!-- Node11 -->
<g id="Node000011" class="node">
<title>Node11</title>
<g id="a_Node000011"><a xlink:href="math__util_8c.html#ae69cbf5c8d4b3b0dba2d7b4d4673689f" target="_top" xlink:title=" ">
<polygon fill="white" stroke="#666666" points="419.5,-56 381.5,-56 381.5,-37 419.5,-37 419.5,-56"/>
<text text-anchor="middle" x="400.5" y="-44" font-family="Helvetica,sans-Serif" font-size="10.00">coss</text>
</a>
</g>
</g>
<!-- Node10&#45;&gt;Node11 -->
<g id="edge11_Node000010_Node000011" class="edge">
<title>Node10&#45;&gt;Node11</title>
<g id="a_edge11_Node000010_Node000011"><a xlink:title=" ">
<path fill="none" stroke="#63b8ff" d="M305.26,-46.5C328.35,-46.5 352.91,-46.5 371.17,-46.5"/>
<polygon fill="#63b8ff" stroke="#63b8ff" points="371.39,-50 381.39,-46.5 371.39,-43 371.39,-50"/>
</a>
</g>
</g>
<!-- Node12 -->
<g id="Node000012" class="node">
<title>Node12</title>
<g id="a_Node000012"><a xlink:href="math__util_8c.html#a19ed3bd78fd2d3e2bd0a29f6caf48545" target="_top" xlink:title=" ">
<polygon fill="white" stroke="#666666" points="418.5,-19 382.5,-19 382.5,0 418.5,0 418.5,-19"/>
<text text-anchor="middle" x="400.5" y="-7" font-family="Helvetica,sans-Serif" font-size="10.00">sins</text>
</a>
</g>
</g>
<!-- Node10&#45;&gt;Node12 -->
<g id="edge12_Node000010_Node000012" class="edge">
<title>Node10&#45;&gt;Node12</title>
<g id="a_edge12_Node000010_Node000012"><a xlink:title=" ">
<path fill="none" stroke="#63b8ff" d="M279.22,-36.97C308.42,-30.3 346.61,-21.58 372.05,-15.77"/>
<polygon fill="#63b8ff" stroke="#63b8ff" points="373.13,-19.11 382.1,-13.47 371.57,-12.29 373.13,-19.11"/>
</a>
</g>
</g>
</g>
</svg>
