<?xml version="1.0" encoding="UTF-8" standalone="no"?>
<!DOCTYPE svg PUBLIC "-//W3C//DTD SVG 1.1//EN"
 "http://www.w3.org/Graphics/SVG/1.1/DTD/svg11.dtd">
<!-- Generated by graphviz version 2.43.0 (0)
 -->
<!-- Title: Editor::ContentBrowserWindow::FindTracks Pages: 1 -->
<svg width="1046pt" height="175pt"
 viewBox="0.00 0.00 1046.00 175.00" xmlns="http://www.w3.org/2000/svg" xmlns:xlink="http://www.w3.org/1999/xlink">
<g id="graph0" class="graph" transform="scale(1 1) rotate(0) translate(4 171)">
<title>Editor::ContentBrowserWindow::FindTracks</title>
<!-- Node1 -->
<g id="Node000001" class="node">
<title>Node1</title>
<g id="a_Node000001"><a xlink:title=" ">
<polygon fill="#999999" stroke="#666666" points="168,-61.5 0,-61.5 0,-31.5 168,-31.5 168,-61.5"/>
<text text-anchor="start" x="8" y="-49.5" font-family="Helvetica,sans-Serif" font-size="10.00">Editor::ContentBrowserWindow</text>
<text text-anchor="middle" x="84" y="-38.5" font-family="Helvetica,sans-Serif" font-size="10.00">::FindTracks</text>
</a>
</g>
</g>
<!-- Node2 -->
<g id="Node000002" class="node">
<title>Node2</title>
<g id="a_Node000002"><a xlink:href="namespaceEditor.html#ac95c825fc97e637d93f36fe4e9121515" target="_top" xlink:title=" ">
<polygon fill="white" stroke="#666666" points="313,-93 212,-93 212,-74 313,-74 313,-93"/>
<text text-anchor="middle" x="262.5" y="-81" font-family="Helvetica,sans-Serif" font-size="10.00">Editor::LoadLevel</text>
</a>
</g>
</g>
<!-- Node1&#45;&gt;Node2 -->
<g id="edge1_Node000001_Node000002" class="edge">
<title>Node1&#45;&gt;Node2</title>
<g id="a_edge1_Node000001_Node000002"><a xlink:title=" ">
<path fill="none" stroke="#63b8ff" d="M156.79,-61.55C173.23,-65 190.46,-68.61 206.09,-71.88"/>
<polygon fill="#63b8ff" stroke="#63b8ff" points="205.6,-75.36 216.1,-73.98 207.04,-68.51 205.6,-75.36"/>
</a>
</g>
</g>
<!-- Node13 -->
<g id="Node000013" class="node">
<title>Node13</title>
<g id="a_Node000013"><a xlink:href="namespaceEditor.html#a98e9712b85e0226321f81e1cc620777a" target="_top" xlink:title=" ">
<polygon fill="white" stroke="#666666" points="321,-38 204,-38 204,-19 321,-19 321,-38"/>
<text text-anchor="middle" x="262.5" y="-26" font-family="Helvetica,sans-Serif" font-size="10.00">Editor::LoadMinimap</text>
</a>
</g>
</g>
<!-- Node1&#45;&gt;Node13 -->
<g id="edge13_Node000001_Node000013" class="edge">
<title>Node1&#45;&gt;Node13</title>
<g id="a_edge13_Node000001_Node000013"><a xlink:title=" ">
<path fill="none" stroke="#63b8ff" d="M168.08,-38.03C176.66,-37.15 185.31,-36.27 193.7,-35.41"/>
<polygon fill="#63b8ff" stroke="#63b8ff" points="194.18,-38.88 203.77,-34.39 193.47,-31.92 194.18,-38.88"/>
</a>
</g>
</g>
<!-- Node3 -->
<g id="Node000003" class="node">
<title>Node3</title>
<g id="a_Node000003"><a xlink:href="namespaceEditor.html#a432aae20cd7a713f5cc3ba38ecfd3af4" target="_top" xlink:title=" ">
<polygon fill="white" stroke="#666666" points="489,-167 384,-167 384,-148 489,-148 489,-167"/>
<text text-anchor="middle" x="436.5" y="-155" font-family="Helvetica,sans-Serif" font-size="10.00">Editor::LoadActors</text>
</a>
</g>
</g>
<!-- Node2&#45;&gt;Node3 -->
<g id="edge2_Node000002_Node000003" class="edge">
<title>Node2&#45;&gt;Node3</title>
<g id="a_edge2_Node000002_Node000003"><a xlink:title=" ">
<path fill="none" stroke="#63b8ff" d="M276.43,-93.06C293.87,-105.51 326.28,-127.14 357,-139.5 362.4,-141.67 368.12,-143.62 373.92,-145.34"/>
<polygon fill="#63b8ff" stroke="#63b8ff" points="373.12,-148.76 383.69,-148.06 374.99,-142.01 373.12,-148.76"/>
</a>
</g>
</g>
<!-- Node6 -->
<g id="Node000006" class="node">
<title>Node6</title>
<g id="a_Node000006"><a xlink:href="namespaceEditor.html#ac889659f9eba7f23eba74579b0dded64" target="_top" xlink:title=" ">
<polygon fill="white" stroke="#666666" points="487,-130 386,-130 386,-111 487,-111 487,-130"/>
<text text-anchor="middle" x="436.5" y="-118" font-family="Helvetica,sans-Serif" font-size="10.00">Editor::LoadProps</text>
</a>
</g>
</g>
<!-- Node2&#45;&gt;Node6 -->
<g id="edge5_Node000002_Node000006" class="edge">
<title>Node2&#45;&gt;Node6</title>
<g id="a_edge5_Node000002_Node000006"><a xlink:title=" ">
<path fill="none" stroke="#63b8ff" d="M307.79,-93.03C330.18,-97.84 357.53,-103.73 381.18,-108.81"/>
<polygon fill="#63b8ff" stroke="#63b8ff" points="380.54,-112.26 391.06,-110.94 382.02,-105.41 380.54,-112.26"/>
</a>
</g>
</g>
<!-- Node7 -->
<g id="Node000007" class="node">
<title>Node7</title>
<g id="a_Node000007"><a xlink:href="namespaceEditor.html#a4697168fae026ab11c35133c2dbea7bf" target="_top" xlink:title=" ">
<polygon fill="white" stroke="#666666" points="516,-93 357,-93 357,-74 516,-74 516,-93"/>
<text text-anchor="middle" x="436.5" y="-81" font-family="Helvetica,sans-Serif" font-size="10.00">Editor::LoadStaticMeshActors</text>
</a>
</g>
</g>
<!-- Node2&#45;&gt;Node7 -->
<g id="edge6_Node000002_Node000007" class="edge">
<title>Node2&#45;&gt;Node7</title>
<g id="a_edge6_Node000002_Node000007"><a xlink:title=" ">
<path fill="none" stroke="#63b8ff" d="M313.25,-83.5C323.76,-83.5 335.16,-83.5 346.63,-83.5"/>
<polygon fill="#63b8ff" stroke="#63b8ff" points="346.7,-87 356.7,-83.5 346.7,-80 346.7,-87"/>
</a>
</g>
</g>
<!-- Node9 -->
<g id="Node000009" class="node">
<title>Node9</title>
<g id="a_Node000009"><a xlink:href="namespaceEditor.html#aa0123d5f7befc013345aed2247f7ea74" target="_top" xlink:title=" ">
<polygon fill="white" stroke="#666666" points="484,-56 389,-56 389,-37 484,-37 484,-56"/>
<text text-anchor="middle" x="436.5" y="-44" font-family="Helvetica,sans-Serif" font-size="10.00">Editor::LoadTour</text>
</a>
</g>
</g>
<!-- Node2&#45;&gt;Node9 -->
<g id="edge8_Node000002_Node000009" class="edge">
<title>Node2&#45;&gt;Node9</title>
<g id="a_edge8_Node000002_Node000009"><a xlink:title=" ">
<path fill="none" stroke="#63b8ff" d="M307.79,-73.97C330.18,-69.16 357.53,-63.27 381.18,-58.19"/>
<polygon fill="#63b8ff" stroke="#63b8ff" points="382.02,-61.59 391.06,-56.06 380.54,-54.74 382.02,-61.59"/>
</a>
</g>
</g>
<!-- Node4 -->
<g id="Node000004" class="node">
<title>Node4</title>
<g id="a_Node000004"><a xlink:href="structSpawnParams.html#a8a5a24c4ced13fc9150d32d895470c9f" target="_top" xlink:title=" ">
<polygon fill="white" stroke="#666666" points="700,-167 560,-167 560,-148 700,-148 700,-167"/>
<text text-anchor="middle" x="630" y="-155" font-family="Helvetica,sans-Serif" font-size="10.00">SpawnParams::from_json</text>
</a>
</g>
</g>
<!-- Node3&#45;&gt;Node4 -->
<g id="edge3_Node000003_Node000004" class="edge">
<title>Node3&#45;&gt;Node4</title>
<g id="a_edge3_Node000003_Node000004"><a xlink:title=" ">
<path fill="none" stroke="#63b8ff" d="M489.07,-157.5C507.65,-157.5 529.06,-157.5 549.46,-157.5"/>
<polygon fill="#63b8ff" stroke="#63b8ff" points="549.7,-161 559.7,-157.5 549.7,-154 549.7,-161"/>
</a>
</g>
</g>
<!-- Node5 -->
<g id="Node000005" class="node">
<title>Node5</title>
<g id="a_Node000005"><a xlink:href="SpawnParams_8h.html#af4dfccdb6d4f1f9514fa9f7483e0d0aa" target="_top" xlink:title=" ">
<polygon fill="white" stroke="#666666" points="862.5,-167 770.5,-167 770.5,-148 862.5,-148 862.5,-167"/>
<text text-anchor="middle" x="816.5" y="-155" font-family="Helvetica,sans-Serif" font-size="10.00">get_optional_to</text>
</a>
</g>
</g>
<!-- Node4&#45;&gt;Node5 -->
<g id="edge4_Node000004_Node000005" class="edge">
<title>Node4&#45;&gt;Node5</title>
<g id="a_edge4_Node000004_Node000005"><a xlink:title=" ">
<path fill="none" stroke="#63b8ff" d="M700.23,-157.5C719.98,-157.5 741.24,-157.5 760.06,-157.5"/>
<polygon fill="#63b8ff" stroke="#63b8ff" points="760.24,-161 770.24,-157.5 760.24,-154 760.24,-161"/>
</a>
</g>
</g>
<!-- Node8 -->
<g id="Node000008" class="node">
<title>Node8</title>
<g id="a_Node000008"><a xlink:href="namespaceEditor.html#a5682c68f8c058161eac4f98905aa0c86" target="_top" xlink:title=" ">
<polygon fill="white" stroke="#666666" points="706,-101.5 554,-101.5 554,-71.5 706,-71.5 706,-101.5"/>
<text text-anchor="start" x="562" y="-89.5" font-family="Helvetica,sans-Serif" font-size="10.00">Editor::Load_AddStaticMesh</text>
<text text-anchor="middle" x="630" y="-78.5" font-family="Helvetica,sans-Serif" font-size="10.00">Actor</text>
</a>
</g>
</g>
<!-- Node7&#45;&gt;Node8 -->
<g id="edge7_Node000007_Node000008" class="edge">
<title>Node7&#45;&gt;Node8</title>
<g id="a_edge7_Node000007_Node000008"><a xlink:title=" ">
<path fill="none" stroke="#63b8ff" d="M516.22,-84.73C525.29,-84.88 534.57,-85.02 543.72,-85.16"/>
<polygon fill="#63b8ff" stroke="#63b8ff" points="543.92,-88.67 553.98,-85.32 544.03,-81.67 543.92,-88.67"/>
</a>
</g>
</g>
<!-- Node10 -->
<g id="Node000010" class="node">
<title>Node10</title>
<g id="a_Node000010"><a xlink:href="namespaceEditor.html#ac7a2abd4c4133424f846cec0f2eba13f" target="_top" xlink:title=" ">
<polygon fill="white" stroke="#666666" points="708,-53 552,-53 552,-34 708,-34 708,-53"/>
<text text-anchor="middle" x="630" y="-41" font-family="Helvetica,sans-Serif" font-size="10.00">Editor::FromJsonCameraShot</text>
</a>
</g>
</g>
<!-- Node9&#45;&gt;Node10 -->
<g id="edge9_Node000009_Node000010" class="edge">
<title>Node9&#45;&gt;Node10</title>
<g id="a_edge9_Node000009_Node000010"><a xlink:title=" ">
<path fill="none" stroke="#63b8ff" d="M484.35,-45.77C501.6,-45.5 521.75,-45.18 541.44,-44.87"/>
<polygon fill="#63b8ff" stroke="#63b8ff" points="541.73,-48.37 551.68,-44.71 541.62,-41.37 541.73,-48.37"/>
</a>
</g>
</g>
<!-- Node11 -->
<g id="Node000011" class="node">
<title>Node11</title>
<g id="a_Node000011"><a xlink:href="namespaceEditor.html#ad162fbe6cf9ca7ed07efed73134a8a46" target="_top" xlink:title=" ">
<polygon fill="white" stroke="#666666" points="889,-72 744,-72 744,-53 889,-53 889,-72"/>
<text text-anchor="middle" x="816.5" y="-60" font-family="Helvetica,sans-Serif" font-size="10.00">Editor::FromJsonKeyFrame</text>
</a>
</g>
</g>
<!-- Node10&#45;&gt;Node11 -->
<g id="edge10_Node000010_Node000011" class="edge">
<title>Node10&#45;&gt;Node11</title>
<g id="a_edge10_Node000010_Node000011"><a xlink:title=" ">
<path fill="none" stroke="#63b8ff" d="M708.18,-51.45C716.69,-52.32 725.39,-53.22 733.95,-54.1"/>
<polygon fill="#63b8ff" stroke="#63b8ff" points="733.63,-57.59 743.94,-55.13 734.35,-50.62 733.63,-57.59"/>
</a>
</g>
</g>
<!-- Node12 -->
<g id="Node000012" class="node">
<title>Node12</title>
<g id="a_Node000012"><a xlink:href="namespaceEditor.html#a6292171c89d7dad84497433e54697153" target="_top" xlink:title=" ">
<polygon fill="white" stroke="#666666" points="1038,-53 925,-53 925,-34 1038,-34 1038,-53"/>
<text text-anchor="middle" x="981.5" y="-41" font-family="Helvetica,sans-Serif" font-size="10.00">Editor::FromJsonVec</text>
</a>
</g>
</g>
<!-- Node10&#45;&gt;Node12 -->
<g id="edge12_Node000010_Node000012" class="edge">
<title>Node10&#45;&gt;Node12</title>
<g id="a_edge12_Node000010_Node000012"><a xlink:title=" ">
<path fill="none" stroke="#63b8ff" d="M708.13,-43.5C770.05,-43.5 856.04,-43.5 914.73,-43.5"/>
<polygon fill="#63b8ff" stroke="#63b8ff" points="915,-47 925,-43.5 915,-40 915,-47"/>
</a>
</g>
</g>
<!-- Node11&#45;&gt;Node12 -->
<g id="edge11_Node000011_Node000012" class="edge">
<title>Node11&#45;&gt;Node12</title>
<g id="a_edge11_Node000011_Node000012"><a xlink:title=" ">
<path fill="none" stroke="#63b8ff" d="M889.47,-54.11C897.84,-53.14 906.34,-52.14 914.62,-51.18"/>
<polygon fill="#63b8ff" stroke="#63b8ff" points="915.06,-54.65 924.58,-50.02 914.24,-47.7 915.06,-54.65"/>
</a>
</g>
</g>
<!-- Node14 -->
<g id="Node000014" class="node">
<title>Node14</title>
<g id="a_Node000014"><a xlink:href="namespaceEditor.html#a16ee4fdafc5f31285b8604f717f40438" target="_top" xlink:title=" ">
<polygon fill="white" stroke="#666666" points="509.5,-19 363.5,-19 363.5,0 509.5,0 509.5,-19"/>
<text text-anchor="middle" x="436.5" y="-7" font-family="Helvetica,sans-Serif" font-size="10.00">Editor::SetDefaultMinimap</text>
</a>
</g>
</g>
<!-- Node13&#45;&gt;Node14 -->
<g id="edge14_Node000013_Node000014" class="edge">
<title>Node13&#45;&gt;Node14</title>
<g id="a_edge14_Node000013_Node000014"><a xlink:title=" ">
<path fill="none" stroke="#63b8ff" d="M321.25,-22.12C331.46,-20.99 342.26,-19.8 352.99,-18.61"/>
<polygon fill="#63b8ff" stroke="#63b8ff" points="353.68,-22.06 363.24,-17.48 352.91,-15.1 353.68,-22.06"/>
</a>
</g>
</g>
</g>
</svg>
