<?xml version="1.0" encoding="UTF-8" standalone="no"?>
<!DOCTYPE svg PUBLIC "-//W3C//DTD SVG 1.1//EN"
 "http://www.w3.org/Graphics/SVG/1.1/DTD/svg11.dtd">
<!-- Generated by graphviz version 2.43.0 (0)
 -->
<!-- Title: SkySnow::Draw Pages: 1 -->
<svg width="912pt" height="329pt"
 viewBox="0.00 0.00 912.00 329.00" xmlns="http://www.w3.org/2000/svg" xmlns:xlink="http://www.w3.org/1999/xlink">
<g id="graph0" class="graph" transform="scale(1 1) rotate(0) translate(4 325)">
<title>SkySnow::Draw</title>
<!-- Node1 -->
<g id="Node000001" class="node">
<title>Node1</title>
<g id="a_Node000001"><a xlink:title=" ">
<polygon fill="#999999" stroke="#666666" points="91,-179 0,-179 0,-160 91,-160 91,-179"/>
<text text-anchor="middle" x="45.5" y="-167" font-family="Helvetica,sans-Serif" font-size="10.00">SkySnow::Draw</text>
</a>
</g>
</g>
<!-- Node2 -->
<g id="Node000002" class="node">
<title>Node2</title>
<g id="a_Node000002"><a xlink:href="math__util_8h.html#a8fb5c0b9b43a108724b355136d29d2f9" target="_top" xlink:title=" ">
<polygon fill="white" stroke="#666666" points="220.5,-321 182.5,-321 182.5,-302 220.5,-302 220.5,-321"/>
<text text-anchor="middle" x="201.5" y="-309" font-family="Helvetica,sans-Serif" font-size="10.00">fabs</text>
</a>
</g>
</g>
<!-- Node1&#45;&gt;Node2 -->
<g id="edge1_Node000001_Node000002" class="edge">
<title>Node1&#45;&gt;Node2</title>
<g id="a_edge1_Node000001_Node000002"><a xlink:title=" ">
<path fill="none" stroke="#63b8ff" d="M50.39,-179.02C59.98,-201.34 86.94,-257.43 127,-287.5 140.22,-297.42 157.72,-303.35 172.33,-306.83"/>
<polygon fill="#63b8ff" stroke="#63b8ff" points="171.85,-310.31 182.36,-308.96 173.3,-303.46 171.85,-310.31"/>
</a>
</g>
</g>
<!-- Node3 -->
<g id="Node000003" class="node">
<title>Node3</title>
<g id="a_Node000003"><a xlink:href="FrameInterpolation_8cpp.html#a3a036bc9d533e28a4e9697cd20dccf3e" target="_top" xlink:title=" ">
<polygon fill="white" stroke="#666666" points="735,-292.5 625,-292.5 625,-262.5 735,-262.5 735,-292.5"/>
<text text-anchor="start" x="633" y="-280.5" font-family="Helvetica,sans-Serif" font-size="10.00">FrameInterpolation</text>
<text text-anchor="middle" x="680" y="-269.5" font-family="Helvetica,sans-Serif" font-size="10.00">_RecordCloseChild</text>
</a>
</g>
</g>
<!-- Node1&#45;&gt;Node3 -->
<g id="edge2_Node000001_Node000003" class="edge">
<title>Node1&#45;&gt;Node3</title>
<g id="a_edge2_Node000001_Node000003"><a xlink:title=" ">
<path fill="none" stroke="#63b8ff" d="M55.81,-179.46C69.76,-193.68 97.63,-219.43 127,-231.5 292.27,-299.43 508.43,-292.98 614.54,-284.34"/>
<polygon fill="#63b8ff" stroke="#63b8ff" points="615.1,-287.81 624.77,-283.47 614.51,-280.83 615.1,-287.81"/>
</a>
</g>
</g>
<!-- Node5 -->
<g id="Node000005" class="node">
<title>Node5</title>
<g id="a_Node000005"><a xlink:href="FrameInterpolation_8cpp.html#a0eda726b74eac815af4e874014e2727c" target="_top" xlink:title=" ">
<polygon fill="white" stroke="#666666" points="441.5,-245.5 331.5,-245.5 331.5,-215.5 441.5,-215.5 441.5,-245.5"/>
<text text-anchor="start" x="339.5" y="-233.5" font-family="Helvetica,sans-Serif" font-size="10.00">FrameInterpolation</text>
<text text-anchor="middle" x="386.5" y="-222.5" font-family="Helvetica,sans-Serif" font-size="10.00">_RecordOpenChild</text>
</a>
</g>
</g>
<!-- Node1&#45;&gt;Node5 -->
<g id="edge4_Node000001_Node000005" class="edge">
<title>Node1&#45;&gt;Node5</title>
<g id="a_edge4_Node000001_Node000005"><a xlink:title=" ">
<path fill="none" stroke="#63b8ff" d="M62.5,-179.13C78.29,-188.13 103.43,-201.11 127,-207.5 191.51,-225 268.07,-229.94 321.04,-231"/>
<polygon fill="#63b8ff" stroke="#63b8ff" points="321.26,-234.51 331.31,-231.17 321.37,-227.51 321.26,-234.51"/>
</a>
</g>
</g>
<!-- Node6 -->
<g id="Node000006" class="node">
<title>Node6</title>
<g id="a_Node000006"><a xlink:href="math__util__2_8c.html#ae4327c5df49b333e448da750f14387ce" target="_top" xlink:title=" ">
<polygon fill="white" stroke="#666666" points="276,-198 127,-198 127,-179 276,-179 276,-198"/>
<text text-anchor="middle" x="201.5" y="-186" font-family="Helvetica,sans-Serif" font-size="10.00">func_80042330_unchanged</text>
</a>
</g>
</g>
<!-- Node1&#45;&gt;Node6 -->
<g id="edge6_Node000001_Node000006" class="edge">
<title>Node1&#45;&gt;Node6</title>
<g id="a_edge6_Node000001_Node000006"><a xlink:title=" ">
<path fill="none" stroke="#63b8ff" d="M91.04,-175C99.18,-176 107.9,-177.08 116.74,-178.17"/>
<polygon fill="#63b8ff" stroke="#63b8ff" points="116.4,-181.65 126.75,-179.4 117.26,-174.7 116.4,-181.65"/>
</a>
</g>
</g>
<!-- Node16 -->
<g id="Node000016" class="node">
<title>Node16</title>
<g id="a_Node000016"><a xlink:href="render__objects_8c.html#a7e222e4426a0c151a8580e2982336170" target="_top" xlink:title=" ">
<polygon fill="white" stroke="#666666" points="248,-161 155,-161 155,-142 248,-142 248,-161"/>
<text text-anchor="middle" x="201.5" y="-149" font-family="Helvetica,sans-Serif" font-size="10.00">func_80044DA0</text>
</a>
</g>
</g>
<!-- Node1&#45;&gt;Node16 -->
<g id="edge18_Node000001_Node000016" class="edge">
<title>Node1&#45;&gt;Node16</title>
<g id="a_edge18_Node000001_Node000016"><a xlink:title=" ">
<path fill="none" stroke="#63b8ff" d="M91.04,-164.29C107.83,-162.33 127.13,-160.08 144.8,-158.01"/>
<polygon fill="#63b8ff" stroke="#63b8ff" points="145.46,-161.46 154.99,-156.82 144.65,-154.5 145.46,-161.46"/>
</a>
</g>
</g>
<!-- Node17 -->
<g id="Node000017" class="node">
<title>Node17</title>
<g id="a_Node000017"><a xlink:href="render__objects_8c.html#a93a6f0b4f562c06bfb21f3825543ad19" target="_top" xlink:title=" ">
<polygon fill="white" stroke="#666666" points="247.5,-124 155.5,-124 155.5,-105 247.5,-105 247.5,-124"/>
<text text-anchor="middle" x="201.5" y="-112" font-family="Helvetica,sans-Serif" font-size="10.00">func_8004B6C4</text>
</a>
</g>
</g>
<!-- Node1&#45;&gt;Node17 -->
<g id="edge19_Node000001_Node000017" class="edge">
<title>Node1&#45;&gt;Node17</title>
<g id="a_edge19_Node000001_Node000017"><a xlink:title=" ">
<path fill="none" stroke="#63b8ff" d="M65.33,-160C81.41,-152.14 105.33,-141.09 127,-133.5 133.93,-131.07 141.32,-128.81 148.64,-126.74"/>
<polygon fill="#63b8ff" stroke="#63b8ff" points="149.81,-130.05 158.54,-124.05 147.98,-123.29 149.81,-130.05"/>
</a>
</g>
</g>
<!-- Node18 -->
<g id="Node000018" class="node">
<title>Node18</title>
<g id="a_Node000018"><a xlink:href="GBIMiddleware_8cpp.html#a4ecc44e3c6f1ca5a6b4a20c41d3bd2d2" target="_top" xlink:title=" ">
<polygon fill="white" stroke="#666666" points="246,-87 157,-87 157,-68 246,-68 246,-87"/>
<text text-anchor="middle" x="201.5" y="-75" font-family="Helvetica,sans-Serif" font-size="10.00">gSPDisplayList</text>
</a>
</g>
</g>
<!-- Node1&#45;&gt;Node18 -->
<g id="edge20_Node000001_Node000018" class="edge">
<title>Node1&#45;&gt;Node18</title>
<g id="a_edge20_Node000001_Node000018"><a xlink:title=" ">
<path fill="none" stroke="#63b8ff" d="M54.07,-159.92C67.18,-144.02 95.71,-112.26 127,-95.5 133.15,-92.21 139.9,-89.51 146.76,-87.29"/>
<polygon fill="#63b8ff" stroke="#63b8ff" points="148.17,-90.53 156.8,-84.39 146.22,-83.8 148.17,-90.53"/>
</a>
</g>
</g>
<!-- Node21 -->
<g id="Node000021" class="node">
<title>Node21</title>
<g id="a_Node000021"><a xlink:href="GBIMiddleware_8cpp.html#aeef79449a27a710d73576e4a4f7f7f99" target="_top" xlink:title=" ">
<polygon fill="white" stroke="#666666" points="234.5,-50 168.5,-50 168.5,-31 234.5,-31 234.5,-50"/>
<text text-anchor="middle" x="201.5" y="-38" font-family="Helvetica,sans-Serif" font-size="10.00">gSPVertex</text>
</a>
</g>
</g>
<!-- Node1&#45;&gt;Node21 -->
<g id="edge23_Node000001_Node000021" class="edge">
<title>Node1&#45;&gt;Node21</title>
<g id="a_edge23_Node000001_Node000021"><a xlink:title=" ">
<path fill="none" stroke="#63b8ff" d="M50.7,-159.7C60.58,-137.87 87.49,-85.06 127,-58.5 136.35,-52.22 147.68,-48.12 158.62,-45.46"/>
<polygon fill="#63b8ff" stroke="#63b8ff" points="159.42,-48.87 168.49,-43.39 157.98,-42.01 159.42,-48.87"/>
</a>
</g>
</g>
<!-- Node4 -->
<g id="Node000004" class="node">
<title>Node4</title>
<g id="a_Node000004"><a xlink:href="FrameInterpolation_8cpp.html#a02c7ac5342a4d376edee38f312b480bf" target="_top" xlink:title=" ">
<polygon fill="white" stroke="#666666" points="904,-222 796,-222 796,-203 904,-203 904,-222"/>
<text text-anchor="middle" x="850" y="-210" font-family="Helvetica,sans-Serif" font-size="10.00">check_if_recording</text>
</a>
</g>
</g>
<!-- Node3&#45;&gt;Node4 -->
<g id="edge3_Node000003_Node000004" class="edge">
<title>Node3&#45;&gt;Node4</title>
<g id="a_edge3_Node000003_Node000004"><a xlink:title=" ">
<path fill="none" stroke="#63b8ff" d="M722.91,-262.4C734.92,-258 748,-253.13 760,-248.5 778.85,-241.23 799.8,-232.77 816.64,-225.88"/>
<polygon fill="#63b8ff" stroke="#63b8ff" points="818.11,-229.07 826.03,-222.03 815.45,-222.59 818.11,-229.07"/>
</a>
</g>
</g>
<!-- Node5&#45;&gt;Node4 -->
<g id="edge5_Node000005_Node000004" class="edge">
<title>Node5&#45;&gt;Node4</title>
<g id="a_edge5_Node000005_Node000004"><a xlink:title=" ">
<path fill="none" stroke="#63b8ff" d="M441.8,-228.38C527.72,-225.03 694.6,-218.52 785.78,-214.97"/>
<polygon fill="#63b8ff" stroke="#63b8ff" points="786.12,-218.46 795.98,-214.57 785.85,-211.46 786.12,-218.46"/>
</a>
</g>
</g>
<!-- Node7 -->
<g id="Node000007" class="node">
<title>Node7</title>
<g id="a_Node000007"><a xlink:href="Matrix_8cpp.html#a329d78c031733cf22ff7518f5d38fd74" target="_top" xlink:title=" ">
<polygon fill="white" stroke="#666666" points="429.5,-197 343.5,-197 343.5,-178 429.5,-178 429.5,-197"/>
<text text-anchor="middle" x="386.5" y="-185" font-family="Helvetica,sans-Serif" font-size="10.00">AddHudMatrix</text>
</a>
</g>
</g>
<!-- Node6&#45;&gt;Node7 -->
<g id="edge7_Node000006_Node000007" class="edge">
<title>Node6&#45;&gt;Node7</title>
<g id="a_edge7_Node000006_Node000007"><a xlink:title=" ">
<path fill="none" stroke="#63b8ff" d="M276.14,-188.1C295.24,-187.99 315.41,-187.88 333.16,-187.79"/>
<polygon fill="#63b8ff" stroke="#63b8ff" points="333.33,-191.29 343.31,-187.73 333.29,-184.29 333.33,-191.29"/>
</a>
</g>
</g>
<!-- Node12 -->
<g id="Node000012" class="node">
<title>Node12</title>
<g id="a_Node000012"><a xlink:href="math__util__2_8c.html#a54b1e79ca4e8d2f7f7256891f9c4e772" target="_top" xlink:title="arg1 and arg2 are s32&#39;s into floats?!?">
<polygon fill="white" stroke="#666666" points="449.5,-118.5 323.5,-118.5 323.5,-88.5 449.5,-88.5 449.5,-118.5"/>
<text text-anchor="start" x="331.5" y="-106.5" font-family="Helvetica,sans-Serif" font-size="10.00">mtxf_translation_x</text>
<text text-anchor="middle" x="386.5" y="-95.5" font-family="Helvetica,sans-Serif" font-size="10.00">_y_rotate_z_scale_x_y</text>
</a>
</g>
</g>
<!-- Node6&#45;&gt;Node12 -->
<g id="edge13_Node000006_Node000012" class="edge">
<title>Node6&#45;&gt;Node12</title>
<g id="a_edge13_Node000006_Node000012"><a xlink:title=" ">
<path fill="none" stroke="#63b8ff" d="M250.64,-178.98C259.23,-176.64 268,-173.83 276,-170.5 305.11,-158.38 335.5,-139.18 356.85,-124.44"/>
<polygon fill="#63b8ff" stroke="#63b8ff" points="358.96,-127.24 365.14,-118.63 354.94,-121.51 358.96,-127.24"/>
</a>
</g>
</g>
<!-- Node8 -->
<g id="Node000008" class="node">
<title>Node8</title>
<g id="a_Node000008"><a xlink:href="Matrix_8cpp.html#a67401ed1d8de1f4d3a3e5a7b72842b6a" target="_top" xlink:title=" ">
<polygon fill="white" stroke="#666666" points="564,-206 497,-206 497,-187 564,-187 564,-206"/>
<text text-anchor="middle" x="530.5" y="-194" font-family="Helvetica,sans-Serif" font-size="10.00">AddMatrix</text>
</a>
</g>
</g>
<!-- Node7&#45;&gt;Node8 -->
<g id="edge8_Node000007_Node000008" class="edge">
<title>Node7&#45;&gt;Node8</title>
<g id="a_edge8_Node000007_Node000008"><a xlink:title=" ">
<path fill="none" stroke="#63b8ff" d="M429.72,-190.18C447.63,-191.31 468.47,-192.63 486.46,-193.77"/>
<polygon fill="#63b8ff" stroke="#63b8ff" points="486.48,-197.28 496.68,-194.42 486.93,-190.29 486.48,-197.28"/>
</a>
</g>
</g>
<!-- Node11 -->
<g id="Node000011" class="node">
<title>Node11</title>
<g id="a_Node000011"><a xlink:href="Game_8cpp.html#ae2fa844b3cb1021ecbc357f8ed2ad8cc" target="_top" xlink:title=" ">
<polygon fill="white" stroke="#666666" points="561.5,-169 499.5,-169 499.5,-150 561.5,-150 561.5,-169"/>
<text text-anchor="middle" x="530.5" y="-157" font-family="Helvetica,sans-Serif" font-size="10.00">GetWorld</text>
</a>
</g>
</g>
<!-- Node7&#45;&gt;Node11 -->
<g id="edge12_Node000007_Node000011" class="edge">
<title>Node7&#45;&gt;Node11</title>
<g id="a_edge12_Node000007_Node000011"><a xlink:title=" ">
<path fill="none" stroke="#63b8ff" d="M429.72,-179.17C448.62,-175.45 470.8,-171.08 489.44,-167.4"/>
<polygon fill="#63b8ff" stroke="#63b8ff" points="490.25,-170.81 499.38,-165.44 488.9,-163.94 490.25,-170.81"/>
</a>
</g>
</g>
<!-- Node9 -->
<g id="Node000009" class="node">
<title>Node9</title>
<g id="a_Node000009"><a xlink:href="FrameInterpolation_8cpp.html#a8cf1f2d6fabc6925aa71a9515341b4aa" target="_top" xlink:title=" ">
<polygon fill="white" stroke="#666666" points="750,-206.5 610,-206.5 610,-176.5 750,-176.5 750,-206.5"/>
<text text-anchor="start" x="618" y="-194.5" font-family="Helvetica,sans-Serif" font-size="10.00">FrameInterpolation</text>
<text text-anchor="middle" x="680" y="-183.5" font-family="Helvetica,sans-Serif" font-size="10.00">_RecordMatrixMtxFToMtx</text>
</a>
</g>
</g>
<!-- Node8&#45;&gt;Node9 -->
<g id="edge9_Node000008_Node000009" class="edge">
<title>Node8&#45;&gt;Node9</title>
<g id="a_edge9_Node000008_Node000009"><a xlink:title=" ">
<path fill="none" stroke="#63b8ff" d="M564.24,-195.39C574.88,-195.03 587.2,-194.61 599.74,-194.19"/>
<polygon fill="#63b8ff" stroke="#63b8ff" points="599.93,-197.68 609.81,-193.85 599.7,-190.69 599.93,-197.68"/>
</a>
</g>
</g>
<!-- Node10 -->
<g id="Node000010" class="node">
<title>Node10</title>
<g id="a_Node000010"><a xlink:href="guMtxF2L_8c.html#a40ab2d64c609839ff1e0ef0de2d0dcc4" target="_top" xlink:title=" ">
<polygon fill="white" stroke="#666666" points="712.5,-158 647.5,-158 647.5,-139 712.5,-139 712.5,-158"/>
<text text-anchor="middle" x="680" y="-146" font-family="Helvetica,sans-Serif" font-size="10.00">guMtxF2L</text>
</a>
</g>
</g>
<!-- Node8&#45;&gt;Node10 -->
<g id="edge11_Node000008_Node000010" class="edge">
<title>Node8&#45;&gt;Node10</title>
<g id="a_edge11_Node000008_Node000010"><a xlink:title=" ">
<path fill="none" stroke="#63b8ff" d="M551.55,-186.98C565.03,-180.84 583.32,-173 600,-167.5 611.93,-163.57 625.12,-160.07 637.25,-157.19"/>
<polygon fill="#63b8ff" stroke="#63b8ff" points="638.18,-160.56 647.14,-154.91 636.61,-153.74 638.18,-160.56"/>
</a>
</g>
</g>
<!-- Node9&#45;&gt;Node4 -->
<g id="edge10_Node000009_Node000004" class="edge">
<title>Node9&#45;&gt;Node4</title>
<g id="a_edge10_Node000009_Node000004"><a xlink:title=" ">
<path fill="none" stroke="#63b8ff" d="M750.3,-200.16C762.05,-201.63 774.19,-203.15 785.77,-204.6"/>
<polygon fill="#63b8ff" stroke="#63b8ff" points="785.41,-208.08 795.77,-205.85 786.28,-201.13 785.41,-208.08"/>
</a>
</g>
</g>
<!-- Node13 -->
<g id="Node000013" class="node">
<title>Node13</title>
<g id="a_Node000013"><a xlink:href="math__util_8c.html#ae69cbf5c8d4b3b0dba2d7b4d4673689f" target="_top" xlink:title=" ">
<polygon fill="white" stroke="#666666" points="549.5,-132 511.5,-132 511.5,-113 549.5,-113 549.5,-132"/>
<text text-anchor="middle" x="530.5" y="-120" font-family="Helvetica,sans-Serif" font-size="10.00">coss</text>
</a>
</g>
</g>
<!-- Node12&#45;&gt;Node13 -->
<g id="edge14_Node000012_Node000013" class="edge">
<title>Node12&#45;&gt;Node13</title>
<g id="a_edge14_Node000012_Node000013"><a xlink:title=" ">
<path fill="none" stroke="#63b8ff" d="M449.78,-111.83C467.77,-114.24 486.52,-116.75 501.31,-118.73"/>
<polygon fill="#63b8ff" stroke="#63b8ff" points="500.94,-122.21 511.31,-120.07 501.87,-115.27 500.94,-122.21"/>
</a>
</g>
</g>
<!-- Node14 -->
<g id="Node000014" class="node">
<title>Node14</title>
<g id="a_Node000014"><a xlink:href="FrameInterpolation_8cpp.html#aeb9128118a5441a4bf264c302e761fe1" target="_top" xlink:title=" ">
<polygon fill="white" stroke="#666666" points="760,-110.5 600,-110.5 600,-80.5 760,-80.5 760,-110.5"/>
<text text-anchor="start" x="608" y="-98.5" font-family="Helvetica,sans-Serif" font-size="10.00">FrameInterpolation</text>
<text text-anchor="middle" x="680" y="-87.5" font-family="Helvetica,sans-Serif" font-size="10.00">_RecordMatrixPosRotScaleXY</text>
</a>
</g>
</g>
<!-- Node12&#45;&gt;Node14 -->
<g id="edge15_Node000012_Node000014" class="edge">
<title>Node12&#45;&gt;Node14</title>
<g id="a_edge15_Node000012_Node000014"><a xlink:title=" ">
<path fill="none" stroke="#63b8ff" d="M449.68,-101.79C490.48,-100.67 544.49,-99.19 589.84,-97.95"/>
<polygon fill="#63b8ff" stroke="#63b8ff" points="590.07,-101.44 599.97,-97.67 589.88,-94.44 590.07,-101.44"/>
</a>
</g>
</g>
<!-- Node15 -->
<g id="Node000015" class="node">
<title>Node15</title>
<g id="a_Node000015"><a xlink:href="math__util_8c.html#a19ed3bd78fd2d3e2bd0a29f6caf48545" target="_top" xlink:title=" ">
<polygon fill="white" stroke="#666666" points="548.5,-56 512.5,-56 512.5,-37 548.5,-37 548.5,-56"/>
<text text-anchor="middle" x="530.5" y="-44" font-family="Helvetica,sans-Serif" font-size="10.00">sins</text>
</a>
</g>
</g>
<!-- Node12&#45;&gt;Node15 -->
<g id="edge17_Node000012_Node000015" class="edge">
<title>Node12&#45;&gt;Node15</title>
<g id="a_edge17_Node000012_Node000015"><a xlink:title=" ">
<path fill="none" stroke="#63b8ff" d="M425.18,-88.37C449.69,-78.54 481.05,-65.95 502.96,-57.15"/>
<polygon fill="#63b8ff" stroke="#63b8ff" points="504.33,-60.38 512.31,-53.4 501.72,-53.88 504.33,-60.38"/>
</a>
</g>
</g>
<!-- Node14&#45;&gt;Node4 -->
<g id="edge16_Node000014_Node000004" class="edge">
<title>Node14&#45;&gt;Node4</title>
<g id="a_edge16_Node000014_Node000004"><a xlink:title=" ">
<path fill="none" stroke="#63b8ff" d="M721.71,-110.51C734.43,-115.99 748.21,-122.76 760,-130.5 788.64,-149.29 816.89,-177.41 833.64,-195.35"/>
<polygon fill="#63b8ff" stroke="#63b8ff" points="831.15,-197.8 840.49,-202.8 836.3,-193.07 831.15,-197.8"/>
</a>
</g>
</g>
<!-- Node19 -->
<g id="Node000019" class="node">
<title>Node19</title>
<g id="a_Node000019"><a xlink:href="Engine_8cpp.html#a223c8bc63f228dc11177515e38eff2db" target="_top" xlink:title=" ">
<polygon fill="white" stroke="#666666" points="461,-50 312,-50 312,-31 461,-31 461,-50"/>
<text text-anchor="middle" x="386.5" y="-38" font-family="Helvetica,sans-Serif" font-size="10.00">GameEngine_OTRSigCheck</text>
</a>
</g>
</g>
<!-- Node18&#45;&gt;Node19 -->
<g id="edge21_Node000018_Node000019" class="edge">
<title>Node18&#45;&gt;Node19</title>
<g id="a_edge21_Node000018_Node000019"><a xlink:title=" ">
<path fill="none" stroke="#63b8ff" d="M246.33,-68.64C270.99,-63.65 302.06,-57.37 328.58,-52.01"/>
<polygon fill="#63b8ff" stroke="#63b8ff" points="329.39,-55.41 338.5,-50 328.01,-48.55 329.39,-55.41"/>
</a>
</g>
</g>
<!-- Node20 -->
<g id="Node000020" class="node">
<title>Node20</title>
<g id="a_Node000020"><a xlink:href="string_8c.html#a008e171a518fe0e0352f31b245e03875" target="_top" xlink:title=" ">
<polygon fill="white" stroke="#666666" points="552.5,-19 508.5,-19 508.5,0 552.5,0 552.5,-19"/>
<text text-anchor="middle" x="530.5" y="-7" font-family="Helvetica,sans-Serif" font-size="10.00">strlen</text>
</a>
</g>
</g>
<!-- Node19&#45;&gt;Node20 -->
<g id="edge22_Node000019_Node000020" class="edge">
<title>Node19&#45;&gt;Node20</title>
<g id="a_edge22_Node000019_Node000020"><a xlink:title=" ">
<path fill="none" stroke="#63b8ff" d="M431.26,-30.95C452.95,-26.21 478.64,-20.6 498.31,-16.31"/>
<polygon fill="#63b8ff" stroke="#63b8ff" points="499.25,-19.69 508.27,-14.13 497.75,-12.85 499.25,-19.69"/>
</a>
</g>
</g>
<!-- Node21&#45;&gt;Node19 -->
<g id="edge24_Node000021_Node000019" class="edge">
<title>Node21&#45;&gt;Node19</title>
<g id="a_edge24_Node000021_Node000019"><a xlink:title=" ">
<path fill="none" stroke="#63b8ff" d="M234.8,-40.5C253.47,-40.5 277.91,-40.5 301.66,-40.5"/>
<polygon fill="#63b8ff" stroke="#63b8ff" points="301.78,-44 311.78,-40.5 301.78,-37 301.78,-44"/>
</a>
</g>
</g>
</g>
</svg>
