<?xml version="1.0" encoding="UTF-8" standalone="no"?>
<!DOCTYPE svg PUBLIC "-//W3C//DTD SVG 1.1//EN"
 "http://www.w3.org/Graphics/SVG/1.1/DTD/svg11.dtd">
<!-- Generated by graphviz version 2.43.0 (0)
 -->
<!-- Title: World::SetCurrentCourse Pages: 1 -->
<svg width="323pt" height="101pt"
 viewBox="0.00 0.00 323.00 101.00" xmlns="http://www.w3.org/2000/svg" xmlns:xlink="http://www.w3.org/1999/xlink">
<g id="graph0" class="graph" transform="scale(1 1) rotate(0) translate(4 97)">
<title>World::SetCurrentCourse</title>
<!-- Node1 -->
<g id="Node000001" class="node">
<title>Node1</title>
<g id="a_Node000001"><a xlink:title=" ">
<polygon fill="#999999" stroke="#666666" points="315,-56 179,-56 179,-37 315,-37 315,-56"/>
<text text-anchor="middle" x="247" y="-44" font-family="Helvetica,sans-Serif" font-size="10.00">World::SetCurrentCourse</text>
</a>
</g>
</g>
<!-- Node2 -->
<g id="Node000002" class="node">
<title>Node2</title>
<g id="a_Node000002"><a xlink:href="classWorld.html#ade602b7d3351de3212ebf045e95f3d0c" target="_top" xlink:title=" ">
<polygon fill="white" stroke="#666666" points="121.5,-93 21.5,-93 21.5,-74 121.5,-74 121.5,-93"/>
<text text-anchor="middle" x="71.5" y="-81" font-family="Helvetica,sans-Serif" font-size="10.00">World::SetCourse</text>
</a>
</g>
</g>
<!-- Node1&#45;&gt;Node2 -->
<g id="edge1_Node000001_Node000002" class="edge">
<title>Node1&#45;&gt;Node2</title>
<g id="a_edge1_Node000001_Node000002"><a xlink:title=" ">
<path fill="none" stroke="#63b8ff" d="M191.36,-58.15C167.53,-63.23 139.93,-69.12 117.33,-73.94"/>
<polygon fill="#63b8ff" stroke="#63b8ff" points="192.27,-61.54 201.32,-56.03 190.81,-54.69 192.27,-61.54"/>
</a>
</g>
</g>
<!-- Node3 -->
<g id="Node000003" class="node">
<title>Node3</title>
<g id="a_Node000003"><a xlink:href="classWorld.html#add5fc20932442ff63d458ebe5903f913" target="_top" xlink:title=" ">
<polygon fill="white" stroke="#666666" points="139,-56 4,-56 4,-37 139,-37 139,-56"/>
<text text-anchor="middle" x="71.5" y="-44" font-family="Helvetica,sans-Serif" font-size="10.00">World::SetCourseByType</text>
</a>
</g>
</g>
<!-- Node1&#45;&gt;Node3 -->
<g id="edge2_Node000001_Node000003" class="edge">
<title>Node1&#45;&gt;Node3</title>
<g id="a_edge2_Node000001_Node000003"><a xlink:title=" ">
<path fill="none" stroke="#63b8ff" d="M168.71,-46.5C158.84,-46.5 148.8,-46.5 139.12,-46.5"/>
<polygon fill="#63b8ff" stroke="#63b8ff" points="168.92,-50 178.92,-46.5 168.92,-43 168.92,-50"/>
</a>
</g>
</g>
<!-- Node4 -->
<g id="Node000004" class="node">
<title>Node4</title>
<g id="a_Node000004"><a xlink:href="classWorld.html#ab721025b6bc57ab1d7c9c603cae3f001" target="_top" xlink:title=" ">
<polygon fill="white" stroke="#666666" points="143,-19 0,-19 0,0 143,0 143,-19"/>
<text text-anchor="middle" x="71.5" y="-7" font-family="Helvetica,sans-Serif" font-size="10.00">World::SetCourseFromCup</text>
</a>
</g>
</g>
<!-- Node1&#45;&gt;Node4 -->
<g id="edge3_Node000001_Node000004" class="edge">
<title>Node1&#45;&gt;Node4</title>
<g id="a_edge3_Node000001_Node000004"><a xlink:title=" ">
<path fill="none" stroke="#63b8ff" d="M191.36,-34.85C167.53,-29.77 139.93,-23.88 117.33,-19.06"/>
<polygon fill="#63b8ff" stroke="#63b8ff" points="190.81,-38.31 201.32,-36.97 192.27,-31.46 190.81,-38.31"/>
</a>
</g>
</g>
</g>
</svg>
