<?xml version="1.0" encoding="UTF-8" standalone="no"?>
<!DOCTYPE svg PUBLIC "-//W3C//DTD SVG 1.1//EN"
 "http://www.w3.org/Graphics/SVG/1.1/DTD/svg11.dtd">
<!-- Generated by graphviz version 2.43.0 (0)
 -->
<!-- Title: Editor::ContentBrowserWindow::ToLower Pages: 1 -->
<svg width="584pt" height="172pt"
 viewBox="0.00 0.00 584.00 172.00" xmlns="http://www.w3.org/2000/svg" xmlns:xlink="http://www.w3.org/1999/xlink">
<g id="graph0" class="graph" transform="scale(1 1) rotate(0) translate(4 168)">
<title>Editor::ContentBrowserWindow::ToLower</title>
<!-- Node1 -->
<g id="Node000001" class="node">
<title>Node1</title>
<g id="a_Node000001"><a xlink:title=" ">
<polygon fill="#999999" stroke="#666666" points="576,-99 408,-99 408,-69 576,-69 576,-99"/>
<text text-anchor="start" x="416" y="-87" font-family="Helvetica,sans-Serif" font-size="10.00">Editor::ContentBrowserWindow</text>
<text text-anchor="middle" x="492" y="-76" font-family="Helvetica,sans-Serif" font-size="10.00">::ToLower</text>
</a>
</g>
</g>
<!-- Node2 -->
<g id="Node000002" class="node">
<title>Node2</title>
<g id="a_Node000002"><a xlink:href="classEditor_1_1ContentBrowserWindow.html#a592a4ce51797c84e28bd118755f1001a" target="_top" xlink:title=" ">
<polygon fill="white" stroke="#666666" points="372,-164 204,-164 204,-134 372,-134 372,-164"/>
<text text-anchor="start" x="212" y="-152" font-family="Helvetica,sans-Serif" font-size="10.00">Editor::ContentBrowserWindow</text>
<text text-anchor="middle" x="288" y="-141" font-family="Helvetica,sans-Serif" font-size="10.00">::AddActorContent</text>
</a>
</g>
</g>
<!-- Node1&#45;&gt;Node2 -->
<g id="edge1_Node000001_Node000002" class="edge">
<title>Node1&#45;&gt;Node2</title>
<g id="a_edge1_Node000001_Node000002"><a xlink:title=" ">
<path fill="none" stroke="#63b8ff" d="M434.34,-102.23C403.31,-112.22 365.31,-124.45 335.95,-133.89"/>
<polygon fill="#63b8ff" stroke="#63b8ff" points="435.7,-105.47 444.15,-99.08 433.56,-98.81 435.7,-105.47"/>
</a>
</g>
</g>
<!-- Node3 -->
<g id="Node000003" class="node">
<title>Node3</title>
<g id="a_Node000003"><a xlink:href="classEditor_1_1ContentBrowserWindow.html#aba36715d806ae75b046302e476726b44" target="_top" xlink:title=" ">
<polygon fill="white" stroke="#666666" points="168,-99 0,-99 0,-69 168,-69 168,-99"/>
<text text-anchor="start" x="8" y="-87" font-family="Helvetica,sans-Serif" font-size="10.00">Editor::ContentBrowserWindow</text>
<text text-anchor="middle" x="84" y="-76" font-family="Helvetica,sans-Serif" font-size="10.00">::DrawElement</text>
</a>
</g>
</g>
<!-- Node1&#45;&gt;Node3 -->
<g id="edge7_Node000001_Node000003" class="edge">
<title>Node1&#45;&gt;Node3</title>
<g id="a_edge7_Node000001_Node000003"><a xlink:title=" ">
<path fill="none" stroke="#63b8ff" d="M397.62,-86.58C388.96,-86.75 380.32,-86.9 372,-87 297.34,-87.94 278.66,-87.94 204,-87 192.43,-86.85 180.22,-86.63 168.22,-86.37"/>
<polygon fill="#63b8ff" stroke="#63b8ff" points="397.86,-90.07 407.78,-86.37 397.71,-83.07 397.86,-90.07"/>
</a>
</g>
</g>
<!-- Node4 -->
<g id="Node000004" class="node">
<title>Node4</title>
<g id="a_Node000004"><a xlink:href="classEditor_1_1ContentBrowserWindow.html#ab63050b867a4804315f473b762dabfba" target="_top" xlink:title=" ">
<polygon fill="white" stroke="#666666" points="372,-78 204,-78 204,-48 372,-48 372,-78"/>
<text text-anchor="start" x="212" y="-66" font-family="Helvetica,sans-Serif" font-size="10.00">Editor::ContentBrowserWindow</text>
<text text-anchor="middle" x="288" y="-55" font-family="Helvetica,sans-Serif" font-size="10.00">::AddCustomContent</text>
</a>
</g>
</g>
<!-- Node1&#45;&gt;Node4 -->
<g id="edge3_Node000001_Node000004" class="edge">
<title>Node1&#45;&gt;Node4</title>
<g id="a_edge3_Node000001_Node000004"><a xlink:title=" ">
<path fill="none" stroke="#63b8ff" d="M397.89,-74.32C389.27,-73.42 380.56,-72.52 372.04,-71.63"/>
<polygon fill="#63b8ff" stroke="#63b8ff" points="397.66,-77.81 407.96,-75.37 398.38,-70.85 397.66,-77.81"/>
</a>
</g>
</g>
<!-- Node5 -->
<g id="Node000005" class="node">
<title>Node5</title>
<g id="a_Node000005"><a xlink:href="classEditor_1_1ContentBrowserWindow.html#a44c8b43c9e58a08b289ff1042151c78b" target="_top" xlink:title=" ">
<polygon fill="white" stroke="#666666" points="372,-30 204,-30 204,0 372,0 372,-30"/>
<text text-anchor="start" x="212" y="-18" font-family="Helvetica,sans-Serif" font-size="10.00">Editor::ContentBrowserWindow</text>
<text text-anchor="middle" x="288" y="-7" font-family="Helvetica,sans-Serif" font-size="10.00">::AddTrackContent</text>
</a>
</g>
</g>
<!-- Node1&#45;&gt;Node5 -->
<g id="edge5_Node000001_Node000005" class="edge">
<title>Node1&#45;&gt;Node5</title>
<g id="a_edge5_Node000001_Node000005"><a xlink:title=" ">
<path fill="none" stroke="#63b8ff" d="M444.14,-65.29C422.35,-56.84 396,-46.99 372,-39 362.89,-35.97 353.15,-32.95 343.66,-30.13"/>
<polygon fill="#63b8ff" stroke="#63b8ff" points="442.9,-68.56 453.49,-68.93 445.45,-62.04 442.9,-68.56"/>
</a>
</g>
</g>
<!-- Node2&#45;&gt;Node3 -->
<g id="edge2_Node000002_Node000003" class="edge">
<title>Node2&#45;&gt;Node3</title>
<g id="a_edge2_Node000002_Node000003"><a xlink:title=" ">
<path fill="none" stroke="#63b8ff" d="M230.34,-130.77C199.31,-120.78 161.31,-108.55 131.95,-99.11"/>
<polygon fill="#63b8ff" stroke="#63b8ff" points="229.56,-134.19 240.15,-133.92 231.7,-127.53 229.56,-134.19"/>
</a>
</g>
</g>
<!-- Node4&#45;&gt;Node3 -->
<g id="edge4_Node000004_Node000003" class="edge">
<title>Node4&#45;&gt;Node3</title>
<g id="a_edge4_Node000004_Node000003"><a xlink:title=" ">
<path fill="none" stroke="#63b8ff" d="M193.89,-72.68C185.27,-73.58 176.56,-74.48 168.04,-75.37"/>
<polygon fill="#63b8ff" stroke="#63b8ff" points="194.38,-76.15 203.96,-71.63 193.66,-69.19 194.38,-76.15"/>
</a>
</g>
</g>
<!-- Node5&#45;&gt;Node3 -->
<g id="edge6_Node000005_Node000003" class="edge">
<title>Node5&#45;&gt;Node3</title>
<g id="a_edge6_Node000005_Node000003"><a xlink:title=" ">
<path fill="none" stroke="#63b8ff" d="M222.5,-33.1C216.23,-35.03 209.98,-37.01 204,-39 176.44,-48.18 145.8,-59.8 122.51,-68.93"/>
<polygon fill="#63b8ff" stroke="#63b8ff" points="223.78,-36.37 232.34,-30.13 221.75,-29.67 223.78,-36.37"/>
</a>
</g>
</g>
</g>
</svg>
