<?xml version="1.0" encoding="UTF-8" standalone="no"?>
<!DOCTYPE svg PUBLIC "-//W3C//DTD SVG 1.1//EN"
 "http://www.w3.org/Graphics/SVG/1.1/DTD/svg11.dtd">
<!-- Generated by graphviz version 2.43.0 (0)
 -->
<!-- Title: BowsersCastle::Load Pages: 1 -->
<!--zoomable 335 -->

<svg id="main" version="1.1" xmlns="http://www.w3.org/2000/svg" xmlns:xlink="http://www.w3.org/1999/xlink" xml:space="preserve" onload="init(evt)">

<style type="text/css"><![CDATA[
.node, .edge {opacity: 0.7;}
.node.selected, .edge.selected {opacity: 1;}
.edge:hover path { stroke: red; }
.edge:hover polygon { stroke: red; fill: red; }
]]></style>

<defs>
  <circle id="rim" cx="0" cy="0" r="7"/>
  <circle id="rim2" cx="0" cy="0" r="3.5"/>
  <g id="zoomPlus">
    <use xlink:href="#rim" fill="#404040"><set attributeName="fill" to="#808080" begin="zoomplus.mouseover" end="zoomplus.mouseout"/></use>
    <path d="M-4,0h8M0,-4v8" fill="none" stroke="white" stroke-width="1.5" pointer-events="none"/>
  </g>
  <g id="zoomMin">
    <use xlink:href="#rim" fill="#404040"><set attributeName="fill" to="#808080" begin="zoomminus.mouseover" end="zoomminus.mouseout"/></use>
    <path d="M-4,0h8" fill="none" stroke="white" stroke-width="1.5" pointer-events="none"/>
  </g>
  <g id="arrowUp" transform="translate(30 24)">
    <use xlink:href="#rim"/>
    <path pointer-events="none" fill="none" stroke="white" stroke-width="1.5" d="M0,-3.0v7 M-2.5,-0.5L0,-3.0L2.5,-0.5"/>
  </g>
  <g id="arrowRight" transform="rotate(90) translate(36 -43)">
    <use xlink:href="#rim"/>
    <path pointer-events="none" fill="none" stroke="white" stroke-width="1.5" d="M0,-3.0v7 M-2.5,-0.5L0,-3.0L2.5,-0.5"/>
  </g>
  <g id="arrowDown" transform="rotate(180) translate(-30 -48)">
    <use xlink:href="#rim"/>
    <path pointer-events="none" fill="none" stroke="white" stroke-width="1.5" d="M0,-3.0v7 M-2.5,-0.5L0,-3.0L2.5,-0.5"/>
  </g>
  <g id="arrowLeft" transform="rotate(270) translate(-36 17)">
    <use xlink:href="#rim"/>
    <path pointer-events="none" fill="none" stroke="white" stroke-width="1.5" d="M0,-3.0v7 M-2.5,-0.5L0,-3.0L2.5,-0.5"/>
  </g>
  <g id="resetDef">
    <use xlink:href="#rim2" fill="#404040"><set attributeName="fill" to="#808080" begin="reset.mouseover" end="reset.mouseout"/></use>
  </g>
</defs>
<script type="application/ecmascript">
var viewWidth = 1074;
var viewHeight = 335;
var sectionId = 'dynsection-10';
</script>
<script type="application/ecmascript" xlink:href="svg.min.js"/>
<svg id="graph" class="graph">
<g id="viewport">
<title>BowsersCastle::Load</title>
<!-- Node1 -->
<g id="Node000001" class="node">
<title>Node1</title>
<g id="a_Node000001"><a xlink:title=" ">
<polygon fill="#999999" stroke="#666666" points="118,-187.5 0,-187.5 0,-168.5 118,-168.5 118,-187.5"/>
<text text-anchor="middle" x="59" y="-175.5" font-family="Helvetica,sans-Serif" font-size="10.00">BowsersCastle::Load</text>
</a>
</g>
</g>
<!-- Node2 -->
<g id="Node000002" class="node">
<title>Node2</title>
<g id="a_Node000002"><a xlink:href="collision_8c.html#a7fe1ddc7a4c312ab8f9519229963450b" target="_top" xlink:title=" ">
<polygon fill="white" stroke="#666666" points="505.5,-284.5 365.5,-284.5 365.5,-265.5 505.5,-265.5 505.5,-284.5"/>
<text text-anchor="middle" x="435.5" y="-272.5" font-family="Helvetica,sans-Serif" font-size="10.00">find_vtx_and_set_colours</text>
</a>
</g>
</g>
<!-- Node1&#45;&gt;Node2 -->
<g id="edge1_Node000001_Node000002" class="edge">
<title>Node1&#45;&gt;Node2</title>
<g id="a_edge1_Node000001_Node000002"><a xlink:title=" ">
<path fill="none" stroke="#63b8ff" d="M75.7,-187.62C93.89,-198.33 125.08,-215.41 154,-225 220.11,-246.91 298.35,-259.84 355.38,-267.05"/>
<polygon fill="#63b8ff" stroke="#63b8ff" points="355.06,-270.53 365.41,-268.28 355.91,-263.59 355.06,-270.53"/>
</a>
</g>
</g>
<!-- Node7 -->
<g id="Node000007" class="node">
<title>Node7</title>
<g id="a_Node000007"><a xlink:href="render__courses_8c.html#ab02cdf6684f984a12e7388fe973bc89a" target="_top" xlink:title=" ">
<polygon fill="white" stroke="#666666" points="282.5,-132.5 190.5,-132.5 190.5,-113.5 282.5,-113.5 282.5,-132.5"/>
<text text-anchor="middle" x="236.5" y="-120.5" font-family="Helvetica,sans-Serif" font-size="10.00">func_80295C6C</text>
</a>
</g>
</g>
<!-- Node1&#45;&gt;Node7 -->
<g id="edge8_Node000001_Node000007" class="edge">
<title>Node1&#45;&gt;Node7</title>
<g id="a_edge8_Node000001_Node000007"><a xlink:title=" ">
<path fill="none" stroke="#63b8ff" d="M82.49,-168.39C101.35,-160.57 129.1,-149.63 154,-142 162.48,-139.4 171.55,-136.96 180.44,-134.75"/>
<polygon fill="#63b8ff" stroke="#63b8ff" points="181.47,-138.11 190.37,-132.36 179.83,-131.3 181.47,-138.11"/>
</a>
</g>
</g>
<!-- Node11 -->
<g id="Node000011" class="node">
<title>Node11</title>
<g id="a_Node000011"><a xlink:href="Track_8cpp.html#a0406803b8f06bfcaf7e1bd3ad2ab2e12" target="_top" xlink:title=" ">
<polygon fill="white" stroke="#666666" points="319,-215.5 154,-215.5 154,-196.5 319,-196.5 319,-215.5"/>
<text text-anchor="middle" x="236.5" y="-203.5" font-family="Helvetica,sans-Serif" font-size="10.00">InvertTriangleWindingByName</text>
</a>
</g>
</g>
<!-- Node1&#45;&gt;Node11 -->
<g id="edge12_Node000001_Node000011" class="edge">
<title>Node1&#45;&gt;Node11</title>
<g id="a_edge12_Node000001_Node000011"><a xlink:title=" ">
<path fill="none" stroke="#63b8ff" d="M118.44,-187.32C133.57,-189.74 150.02,-192.36 165.67,-194.86"/>
<polygon fill="#63b8ff" stroke="#63b8ff" points="165.39,-198.36 175.82,-196.48 166.49,-191.45 165.39,-198.36"/>
</a>
</g>
</g>
<!-- Node14 -->
<g id="Node000014" class="node">
<title>Node14</title>
<g id="a_Node000014"><a xlink:href="render__courses_8c.html#ac97a07076b3e301db5da93c0fe8f0500" target="_top" xlink:title=" ">
<polygon fill="white" stroke="#666666" points="303.5,-169.5 169.5,-169.5 169.5,-150.5 303.5,-150.5 303.5,-169.5"/>
<text text-anchor="middle" x="236.5" y="-157.5" font-family="Helvetica,sans-Serif" font-size="10.00">parse_track_displaylists</text>
</a>
</g>
</g>
<!-- Node1&#45;&gt;Node14 -->
<g id="edge17_Node000001_Node000014" class="edge">
<title>Node1&#45;&gt;Node14</title>
<g id="a_edge17_Node000001_Node000014"><a xlink:title=" ">
<path fill="none" stroke="#63b8ff" d="M118.44,-172.01C131.47,-170.67 145.48,-169.23 159.11,-167.83"/>
<polygon fill="#63b8ff" stroke="#63b8ff" points="159.85,-171.28 169.44,-166.78 159.14,-164.31 159.85,-171.28"/>
</a>
</g>
</g>
<!-- Node2&#45;&gt;Node2 -->
<g id="edge2_Node000002_Node000002" class="edge">
<title>Node2&#45;&gt;Node2</title>
<g id="a_edge2_Node000002_Node000002"><a xlink:title=" ">
<path fill="none" stroke="#63b8ff" d="M406.22,-284.58C391.97,-293.23 401.73,-302.5 435.5,-302.5 458.72,-302.5 470.59,-298.12 471.11,-292.57"/>
<polygon fill="#63b8ff" stroke="#63b8ff" points="473.73,-290.25 464.78,-284.58 468.25,-294.6 473.73,-290.25"/>
</a>
</g>
</g>
<!-- Node3 -->
<g id="Node000003" class="node">
<title>Node3</title>
<g id="a_Node000003"><a xlink:href="Engine_8cpp.html#a223c8bc63f228dc11177515e38eff2db" target="_top" xlink:title=" ">
<polygon fill="white" stroke="#666666" points="701,-252.5 552,-252.5 552,-233.5 701,-233.5 701,-252.5"/>
<text text-anchor="middle" x="626.5" y="-240.5" font-family="Helvetica,sans-Serif" font-size="10.00">GameEngine_OTRSigCheck</text>
</a>
</g>
</g>
<!-- Node2&#45;&gt;Node3 -->
<g id="edge3_Node000002_Node000003" class="edge">
<title>Node2&#45;&gt;Node3</title>
<g id="a_edge3_Node000002_Node000003"><a xlink:title=" ">
<path fill="none" stroke="#63b8ff" d="M492.69,-265.49C513.55,-261.95 537.4,-257.92 559.08,-254.25"/>
<polygon fill="#63b8ff" stroke="#63b8ff" points="559.92,-257.65 569.2,-252.53 558.75,-250.75 559.92,-257.65"/>
</a>
</g>
</g>
<!-- Node5 -->
<g id="Node000005" class="node">
<title>Node5</title>
<g id="a_Node000005"><a xlink:href="collision_8c.html#a2419eefe1cdba5b280babacc4a15fc6c" target="_top" xlink:title=" ">
<polygon fill="white" stroke="#666666" points="662,-289.5 591,-289.5 591,-270.5 662,-270.5 662,-289.5"/>
<text text-anchor="middle" x="626.5" y="-277.5" font-family="Helvetica,sans-Serif" font-size="10.00">is_cull_box</text>
</a>
</g>
</g>
<!-- Node2&#45;&gt;Node5 -->
<g id="edge5_Node000002_Node000005" class="edge">
<title>Node2&#45;&gt;Node5</title>
<g id="a_edge5_Node000002_Node000005"><a xlink:title=" ">
<path fill="none" stroke="#63b8ff" d="M505.54,-276.83C530.57,-277.49 558.18,-278.22 580.6,-278.81"/>
<polygon fill="#63b8ff" stroke="#63b8ff" points="580.73,-282.32 590.82,-279.08 580.92,-275.32 580.73,-282.32"/>
</a>
</g>
</g>
<!-- Node6 -->
<g id="Node000006" class="node">
<title>Node6</title>
<g id="a_Node000006"><a xlink:href="collision_8c.html#ae34213badc2dd781cab43c88b1e3fdce" target="_top" xlink:title=" ">
<polygon fill="white" stroke="#666666" points="681,-326.5 572,-326.5 572,-307.5 681,-307.5 681,-326.5"/>
<text text-anchor="middle" x="626.5" y="-314.5" font-family="Helvetica,sans-Serif" font-size="10.00">set_vertex_colours</text>
</a>
</g>
</g>
<!-- Node2&#45;&gt;Node6 -->
<g id="edge7_Node000002_Node000006" class="edge">
<title>Node2&#45;&gt;Node6</title>
<g id="a_edge7_Node000002_Node000006"><a xlink:title=" ">
<path fill="none" stroke="#63b8ff" d="M479.39,-284.53C506.96,-290.66 542.99,-298.66 572.37,-305.19"/>
<polygon fill="#63b8ff" stroke="#63b8ff" points="571.93,-308.68 582.46,-307.43 573.45,-301.85 571.93,-308.68"/>
</a>
</g>
</g>
<!-- Node4 -->
<g id="Node000004" class="node">
<title>Node4</title>
<g id="a_Node000004"><a xlink:href="string_8c.html#a008e171a518fe0e0352f31b245e03875" target="_top" xlink:title=" ">
<polygon fill="white" stroke="#666666" points="820.5,-270.5 776.5,-270.5 776.5,-251.5 820.5,-251.5 820.5,-270.5"/>
<text text-anchor="middle" x="798.5" y="-258.5" font-family="Helvetica,sans-Serif" font-size="10.00">strlen</text>
</a>
</g>
</g>
<!-- Node3&#45;&gt;Node4 -->
<g id="edge4_Node000003_Node000004" class="edge">
<title>Node3&#45;&gt;Node4</title>
<g id="a_edge4_Node000003_Node000004"><a xlink:title=" ">
<path fill="none" stroke="#63b8ff" d="M701.08,-250.79C723.88,-253.2 747.8,-255.74 766.11,-257.68"/>
<polygon fill="#63b8ff" stroke="#63b8ff" points="765.88,-261.17 776.2,-258.74 766.62,-254.21 765.88,-261.17"/>
</a>
</g>
</g>
<!-- Node5&#45;&gt;Node4 -->
<g id="edge6_Node000005_Node000004" class="edge">
<title>Node5&#45;&gt;Node4</title>
<g id="a_edge6_Node000005_Node000004"><a xlink:title=" ">
<path fill="none" stroke="#63b8ff" d="M662.31,-276.11C692.77,-272.71 736.61,-267.81 766.03,-264.52"/>
<polygon fill="#63b8ff" stroke="#63b8ff" points="766.61,-267.97 776.16,-263.38 765.84,-261.02 766.61,-267.97"/>
</a>
</g>
</g>
<!-- Node8 -->
<g id="Node000008" class="node">
<title>Node8</title>
<g id="a_Node000008"><a xlink:href="collision_8c.html#aa1116ededb9ebc0ee976259f02fe2a4e" target="_top" xlink:title=" ">
<polygon fill="white" stroke="#666666" points="500.5,-79.5 370.5,-79.5 370.5,-60.5 500.5,-60.5 500.5,-79.5"/>
<text text-anchor="middle" x="435.5" y="-67.5" font-family="Helvetica,sans-Serif" font-size="10.00">generate_collision_grid</text>
</a>
</g>
</g>
<!-- Node7&#45;&gt;Node8 -->
<g id="edge9_Node000007_Node000008" class="edge">
<title>Node7&#45;&gt;Node8</title>
<g id="a_edge9_Node000007_Node000008"><a xlink:title=" ">
<path fill="none" stroke="#63b8ff" d="M273.18,-113.4C305.67,-104.66 353.82,-91.71 389.06,-82.22"/>
<polygon fill="#63b8ff" stroke="#63b8ff" points="390.34,-85.5 399.09,-79.53 388.52,-78.74 390.34,-85.5"/>
</a>
</g>
</g>
<!-- Node9 -->
<g id="Node000009" class="node">
<title>Node9</title>
<g id="a_Node000009"><a xlink:href="collision_8c.html#a4e4ec74302aec60828a8d271390f7631" target="_top" xlink:title=" ">
<polygon fill="white" stroke="#666666" points="692,-30 561,-30 561,0 692,0 692,-30"/>
<text text-anchor="start" x="569" y="-18" font-family="Helvetica,sans-Serif" font-size="10.00">is_triangle_intersecting</text>
<text text-anchor="middle" x="626.5" y="-7" font-family="Helvetica,sans-Serif" font-size="10.00">_bounding_box</text>
</a>
</g>
</g>
<!-- Node8&#45;&gt;Node9 -->
<g id="edge10_Node000008_Node000009" class="edge">
<title>Node8&#45;&gt;Node9</title>
<g id="a_edge10_Node000008_Node000009"><a xlink:title=" ">
<path fill="none" stroke="#63b8ff" d="M469.42,-60.42C495.38,-52.87 532.32,-42.12 563.74,-32.97"/>
<polygon fill="#63b8ff" stroke="#63b8ff" points="565.11,-36.22 573.73,-30.07 563.15,-29.5 565.11,-36.22"/>
</a>
</g>
</g>
<!-- Node10 -->
<g id="Node000010" class="node">
<title>Node10</title>
<g id="a_Node000010"><a xlink:href="collision_8c.html#a7ef4f800cb44ad39ca233d0c76ce039a" target="_top" xlink:title=" ">
<polygon fill="white" stroke="#666666" points="854,-30 743,-30 743,0 854,0 854,-30"/>
<text text-anchor="start" x="751" y="-18" font-family="Helvetica,sans-Serif" font-size="10.00">is_line_intersecting</text>
<text text-anchor="middle" x="798.5" y="-7" font-family="Helvetica,sans-Serif" font-size="10.00">_rectangle</text>
</a>
</g>
</g>
<!-- Node9&#45;&gt;Node10 -->
<g id="edge11_Node000009_Node000010" class="edge">
<title>Node9&#45;&gt;Node10</title>
<g id="a_edge11_Node000009_Node000010"><a xlink:title=" ">
<path fill="none" stroke="#63b8ff" d="M692.25,-15C705.56,-15 719.58,-15 732.88,-15"/>
<polygon fill="#63b8ff" stroke="#63b8ff" points="732.89,-18.5 742.89,-15 732.89,-11.5 732.89,-18.5"/>
</a>
</g>
</g>
<!-- Node12 -->
<g id="Node000012" class="node">
<title>Node12</title>
<g id="a_Node000012"><a xlink:href="Track_8cpp.html#ad29b2b4706dd79c5d6239851b61530d4" target="_top" xlink:title=" ">
<polygon fill="white" stroke="#666666" points="516,-220.5 355,-220.5 355,-201.5 516,-201.5 516,-220.5"/>
<text text-anchor="middle" x="435.5" y="-208.5" font-family="Helvetica,sans-Serif" font-size="10.00">InvertTriangleWindingInternal</text>
</a>
</g>
</g>
<!-- Node11&#45;&gt;Node12 -->
<g id="edge13_Node000011_Node000012" class="edge">
<title>Node11&#45;&gt;Node12</title>
<g id="a_edge13_Node000011_Node000012"><a xlink:title=" ">
<path fill="none" stroke="#63b8ff" d="M319.05,-208.07C327.57,-208.29 336.27,-208.51 344.87,-208.73"/>
<polygon fill="#63b8ff" stroke="#63b8ff" points="344.83,-212.23 354.91,-208.98 345.01,-205.23 344.83,-212.23"/>
</a>
</g>
</g>
<!-- Node12&#45;&gt;Node3 -->
<g id="edge14_Node000012_Node000003" class="edge">
<title>Node12&#45;&gt;Node3</title>
<g id="a_edge14_Node000012_Node000003"><a xlink:title=" ">
<path fill="none" stroke="#63b8ff" d="M492.69,-220.51C513.55,-224.05 537.4,-228.08 559.08,-231.75"/>
<polygon fill="#63b8ff" stroke="#63b8ff" points="558.75,-235.25 569.2,-233.47 559.92,-228.35 558.75,-235.25"/>
</a>
</g>
</g>
<!-- Node12&#45;&gt;Node12 -->
<g id="edge15_Node000012_Node000012" class="edge">
<title>Node12&#45;&gt;Node12</title>
<g id="a_edge15_Node000012_Node000012"><a xlink:title=" ">
<path fill="none" stroke="#63b8ff" d="M406.22,-220.58C391.97,-229.23 401.73,-238.5 435.5,-238.5 458.72,-238.5 470.59,-234.12 471.11,-228.57"/>
<polygon fill="#63b8ff" stroke="#63b8ff" points="473.73,-226.25 464.78,-220.58 468.25,-230.6 473.73,-226.25"/>
</a>
</g>
</g>
<!-- Node13 -->
<g id="Node000013" class="node">
<title>Node13</title>
<g id="a_Node000013"><a xlink:href="Track_8cpp.html#a5bae290668f6b484d13626d67e16cc3f" target="_top" xlink:title=" ">
<polygon fill="white" stroke="#666666" points="686.5,-215.5 566.5,-215.5 566.5,-196.5 686.5,-196.5 686.5,-215.5"/>
<text text-anchor="middle" x="626.5" y="-203.5" font-family="Helvetica,sans-Serif" font-size="10.00">SwapTriangleVertices</text>
</a>
</g>
</g>
<!-- Node12&#45;&gt;Node13 -->
<g id="edge16_Node000012_Node000013" class="edge">
<title>Node12&#45;&gt;Node13</title>
<g id="a_edge16_Node000012_Node000013"><a xlink:title=" ">
<path fill="none" stroke="#63b8ff" d="M516.11,-208.89C529.4,-208.54 543.1,-208.18 556.11,-207.84"/>
<polygon fill="#63b8ff" stroke="#63b8ff" points="556.47,-211.33 566.38,-207.56 556.29,-204.33 556.47,-211.33"/>
</a>
</g>
</g>
<!-- Node15 -->
<g id="Node000015" class="node">
<title>Node15</title>
<g id="a_Node000015"><a xlink:href="collision_8c.html#a3081198f925be148fc9f05897a3bddd3" target="_top" xlink:title=" ">
<polygon fill="white" stroke="#666666" points="504.5,-165.5 366.5,-165.5 366.5,-146.5 504.5,-146.5 504.5,-165.5"/>
<text text-anchor="middle" x="435.5" y="-153.5" font-family="Helvetica,sans-Serif" font-size="10.00">generate_collision_mesh</text>
</a>
</g>
</g>
<!-- Node14&#45;&gt;Node15 -->
<g id="edge18_Node000014_Node000015" class="edge">
<title>Node14&#45;&gt;Node15</title>
<g id="a_edge18_Node000014_Node000015"><a xlink:title=" ">
<path fill="none" stroke="#63b8ff" d="M303.65,-158.66C320.47,-158.32 338.7,-157.95 356.07,-157.59"/>
<polygon fill="#63b8ff" stroke="#63b8ff" points="356.25,-161.09 366.17,-157.39 356.1,-154.09 356.25,-161.09"/>
</a>
</g>
</g>
<!-- Node15&#45;&gt;Node3 -->
<g id="edge19_Node000015_Node000003" class="edge">
<title>Node15&#45;&gt;Node3</title>
<g id="a_edge19_Node000015_Node000003"><a xlink:title=" ">
<path fill="none" stroke="#63b8ff" d="M461.84,-165.57C477.97,-172.19 498.95,-181.8 516,-193 533.89,-204.75 533.05,-215.05 552,-225 555.56,-226.87 559.32,-228.55 563.19,-230.06"/>
<polygon fill="#63b8ff" stroke="#63b8ff" points="562.35,-233.47 572.94,-233.47 564.66,-226.86 562.35,-233.47"/>
</a>
</g>
</g>
<!-- Node15&#45;&gt;Node5 -->
<g id="edge21_Node000015_Node000005" class="edge">
<title>Node15&#45;&gt;Node5</title>
<g id="a_edge21_Node000015_Node000005"><a xlink:title=" ">
<path fill="none" stroke="#63b8ff" d="M468.79,-165.55C484.5,-171.46 502.79,-180.38 516,-193 541.01,-216.9 524.78,-240.66 552,-262 560.22,-268.45 570.42,-272.62 580.58,-275.32"/>
<polygon fill="#63b8ff" stroke="#63b8ff" points="580.13,-278.81 590.66,-277.55 581.65,-271.97 580.13,-278.81"/>
</a>
</g>
</g>
<!-- Node15&#45;&gt;Node15 -->
<g id="edge20_Node000015_Node000015" class="edge">
<title>Node15&#45;&gt;Node15</title>
<g id="a_edge20_Node000015_Node000015"><a xlink:title=" ">
<path fill="none" stroke="#63b8ff" d="M406.22,-165.58C391.97,-174.23 401.73,-183.5 435.5,-183.5 458.72,-183.5 470.59,-179.12 471.11,-173.57"/>
<polygon fill="#63b8ff" stroke="#63b8ff" points="473.73,-171.25 464.78,-165.58 468.25,-175.6 473.73,-171.25"/>
</a>
</g>
</g>
<!-- Node16 -->
<g id="Node000016" class="node">
<title>Node16</title>
<g id="a_Node000016"><a xlink:href="collision_8c.html#a30eb531df39ba558cd733e1d1cd6aaa0" target="_top" xlink:title=" ">
<polygon fill="white" stroke="#666666" points="669.5,-67.5 583.5,-67.5 583.5,-48.5 669.5,-48.5 669.5,-67.5"/>
<text text-anchor="middle" x="626.5" y="-55.5" font-family="Helvetica,sans-Serif" font-size="10.00">set_vtx_buffer</text>
</a>
</g>
</g>
<!-- Node15&#45;&gt;Node16 -->
<g id="edge22_Node000015_Node000016" class="edge">
<title>Node15&#45;&gt;Node16</title>
<g id="a_edge22_Node000015_Node000016"><a xlink:title=" ">
<path fill="none" stroke="#63b8ff" d="M447.45,-146.32C467.04,-129.51 509.96,-94.92 552,-76 558.83,-72.93 566.26,-70.33 573.69,-68.15"/>
<polygon fill="#63b8ff" stroke="#63b8ff" points="574.67,-71.51 583.41,-65.51 572.84,-64.75 574.67,-71.51"/>
</a>
</g>
</g>
<!-- Node17 -->
<g id="Node000017" class="node">
<title>Node17</title>
<g id="a_Node000017"><a xlink:href="collision_8c.html#a593833ca3f04f0c7d8f5dcabe6430115" target="_top" xlink:title=" ">
<polygon fill="white" stroke="#666666" points="697,-178.5 556,-178.5 556,-159.5 697,-159.5 697,-178.5"/>
<text text-anchor="middle" x="626.5" y="-166.5" font-family="Helvetica,sans-Serif" font-size="10.00">set_vtx_from_quadrangle</text>
</a>
</g>
</g>
<!-- Node15&#45;&gt;Node17 -->
<g id="edge23_Node000015_Node000017" class="edge">
<title>Node15&#45;&gt;Node17</title>
<g id="a_edge23_Node000015_Node000017"><a xlink:title=" ">
<path fill="none" stroke="#63b8ff" d="M504.73,-160.69C517.96,-161.6 531.94,-162.56 545.5,-163.5"/>
<polygon fill="#63b8ff" stroke="#63b8ff" points="545.56,-167.01 555.78,-164.2 546.04,-160.03 545.56,-167.01"/>
</a>
</g>
</g>
<!-- Node21 -->
<g id="Node000021" class="node">
<title>Node21</title>
<g id="a_Node000021"><a xlink:href="collision_8c.html#ac558a6e1314f154bbf53aaf15396ea1e" target="_top" xlink:title=" ">
<polygon fill="white" stroke="#666666" points="678,-141.5 575,-141.5 575,-122.5 678,-122.5 678,-141.5"/>
<text text-anchor="middle" x="626.5" y="-129.5" font-family="Helvetica,sans-Serif" font-size="10.00">set_vtx_from_tri2</text>
</a>
</g>
</g>
<!-- Node15&#45;&gt;Node21 -->
<g id="edge27_Node000015_Node000021" class="edge">
<title>Node15&#45;&gt;Node21</title>
<g id="a_edge27_Node000015_Node000021"><a xlink:title=" ">
<path fill="none" stroke="#63b8ff" d="M504.73,-147.34C524.36,-144.84 545.63,-142.14 564.77,-139.71"/>
<polygon fill="#63b8ff" stroke="#63b8ff" points="565.39,-143.16 574.87,-138.43 564.51,-136.22 565.39,-143.16"/>
</a>
</g>
</g>
<!-- Node22 -->
<g id="Node000022" class="node">
<title>Node22</title>
<g id="a_Node000022"><a xlink:href="collision_8c.html#a335dc7fed8a2540ca0a5b0a466545845" target="_top" xlink:title=" ">
<polygon fill="white" stroke="#666666" points="688.5,-104.5 564.5,-104.5 564.5,-85.5 688.5,-85.5 688.5,-104.5"/>
<text text-anchor="middle" x="626.5" y="-92.5" font-family="Helvetica,sans-Serif" font-size="10.00">set_vtx_from_triangle</text>
</a>
</g>
</g>
<!-- Node15&#45;&gt;Node22 -->
<g id="edge29_Node000015_Node000022" class="edge">
<title>Node15&#45;&gt;Node22</title>
<g id="a_edge29_Node000015_Node000022"><a xlink:title=" ">
<path fill="none" stroke="#63b8ff" d="M460.61,-146.47C483.81,-137.47 520.01,-123.93 552,-114 559.7,-111.61 567.91,-109.28 575.95,-107.12"/>
<polygon fill="#63b8ff" stroke="#63b8ff" points="576.85,-110.5 585.63,-104.56 575.07,-103.73 576.85,-110.5"/>
</a>
</g>
</g>
<!-- Node18 -->
<g id="Node000018" class="node">
<title>Node18</title>
<g id="a_Node000018"><a xlink:href="collision_8c.html#a8c516edee107b39b30bb3a4d3c54534a" target="_top" xlink:title=" ">
<polygon fill="white" stroke="#666666" points="860,-141.5 737,-141.5 737,-122.5 860,-122.5 860,-141.5"/>
<text text-anchor="middle" x="798.5" y="-129.5" font-family="Helvetica,sans-Serif" font-size="10.00">add_collision_triangle</text>
</a>
</g>
</g>
<!-- Node17&#45;&gt;Node18 -->
<g id="edge24_Node000017_Node000018" class="edge">
<title>Node17&#45;&gt;Node18</title>
<g id="a_edge24_Node000017_Node000018"><a xlink:title=" ">
<path fill="none" stroke="#63b8ff" d="M671.28,-159.47C693.3,-154.68 720.2,-148.82 743.5,-143.75"/>
<polygon fill="#63b8ff" stroke="#63b8ff" points="744.55,-147.11 753.57,-141.56 743.06,-140.27 744.55,-147.11"/>
</a>
</g>
</g>
<!-- Node19 -->
<g id="Node000019" class="node">
<title>Node19</title>
<g id="a_Node000019"><a xlink:href="RaceManager_8cpp.html#a693bf81394ee91ac6be58f7481471619" target="_top" xlink:title=" ">
<polygon fill="white" stroke="#666666" points="1066,-160.5 896,-160.5 896,-141.5 1066,-141.5 1066,-160.5"/>
<text text-anchor="middle" x="981" y="-148.5" font-family="Helvetica,sans-Serif" font-size="10.00">add_triangle_to_collision_mesh</text>
</a>
</g>
</g>
<!-- Node18&#45;&gt;Node19 -->
<g id="edge25_Node000018_Node000019" class="edge">
<title>Node18&#45;&gt;Node19</title>
<g id="a_edge25_Node000018_Node000019"><a xlink:title=" ">
<path fill="none" stroke="#63b8ff" d="M860.11,-138.38C868.35,-139.25 876.97,-140.15 885.63,-141.07"/>
<polygon fill="#63b8ff" stroke="#63b8ff" points="885.5,-144.57 895.81,-142.14 886.23,-137.61 885.5,-144.57"/>
</a>
</g>
</g>
<!-- Node20 -->
<g id="Node000020" class="node">
<title>Node20</title>
<g id="a_Node000020"><a xlink:href="math_8h.html#a37bde043e94a6f074c78f10518fb5d99" target="_top" xlink:title=" ">
<polygon fill="white" stroke="#666666" points="1000.5,-123.5 961.5,-123.5 961.5,-104.5 1000.5,-104.5 1000.5,-123.5"/>
<text text-anchor="middle" x="981" y="-111.5" font-family="Helvetica,sans-Serif" font-size="10.00">sqrtf</text>
</a>
</g>
</g>
<!-- Node18&#45;&gt;Node20 -->
<g id="edge26_Node000018_Node000020" class="edge">
<title>Node18&#45;&gt;Node20</title>
<g id="a_edge26_Node000018_Node000020"><a xlink:title=" ">
<path fill="none" stroke="#63b8ff" d="M860.11,-125.96C890.8,-122.9 926.63,-119.32 951.07,-116.88"/>
<polygon fill="#63b8ff" stroke="#63b8ff" points="951.52,-120.36 961.13,-115.88 950.83,-113.39 951.52,-120.36"/>
</a>
</g>
</g>
<!-- Node21&#45;&gt;Node18 -->
<g id="edge28_Node000021_Node000018" class="edge">
<title>Node21&#45;&gt;Node18</title>
<g id="a_edge28_Node000021_Node000018"><a xlink:title=" ">
<path fill="none" stroke="#63b8ff" d="M678.05,-132C693.36,-132 710.48,-132 726.86,-132"/>
<polygon fill="#63b8ff" stroke="#63b8ff" points="726.95,-135.5 736.95,-132 726.95,-128.5 726.95,-135.5"/>
</a>
</g>
</g>
<!-- Node22&#45;&gt;Node18 -->
<g id="edge30_Node000022_Node000018" class="edge">
<title>Node22&#45;&gt;Node18</title>
<g id="a_edge30_Node000022_Node000018"><a xlink:title=" ">
<path fill="none" stroke="#63b8ff" d="M671.28,-104.53C693.3,-109.32 720.2,-115.18 743.5,-120.25"/>
<polygon fill="#63b8ff" stroke="#63b8ff" points="743.06,-123.73 753.57,-122.44 744.55,-116.89 743.06,-123.73"/>
</a>
</g>
</g>
</g>
</svg>

<g id="navigator" transform="translate(0 0)" fill="#404254">
  <rect fill="#f2f5e9" fill-opacity="0.5" stroke="#606060" stroke-width=".5" x="0" y="0" width="60" height="60"/>
  <use id="zoomplus" xlink:href="#zoomPlus" x="17" y="9" onmousedown="handleZoom(evt,'in')"/>
  <use id="zoomminus" xlink:href="#zoomMin" x="42" y="9" onmousedown="handleZoom(evt,'out')"/>
  <use id="reset" xlink:href="#resetDef" x="30" y="36" onmousedown="handleReset()"/>
   <use id="arrowup" xlink:href="#arrowUp" x="0" y="0" onmousedown="handlePan(0,-1)"/>
  <use id="arrowright" xlink:href="#arrowRight" x="0" y="0" onmousedown="handlePan(1,0)"/>
  <use id="arrowdown" xlink:href="#arrowDown" x="0" y="0" onmousedown="handlePan(0,1)"/>
  <use id="arrowleft" xlink:href="#arrowLeft" x="0" y="0" onmousedown="handlePan(-1,0)"/>
</g>
<svg viewBox="0 0 15 15" width="100%" height="30px" preserveAspectRatio="xMaxYMin meet">
 <g id="arrow_out" transform="scale(0.3 0.3)">
  <a xlink:href="classBowsersCastle_a4bae64f1140c0d6f7ad385b406456bce_cgraph_org.svg" target="_base">
   <rect id="button" ry="5" rx="5" y="6" x="6" height="38" width="38"
        fill="#f2f5e9" fill-opacity="0.5" stroke="#606060" stroke-width="1.0"/>
   <path id="arrow"
     d="M 11.500037,31.436501 C 11.940474,20.09759 22.043105,11.32322 32.158766,21.979434 L 37.068811,17.246167 C 37.068811,17.246167 37.088388,32 37.088388,32 L 22.160133,31.978069 C 22.160133,31.978069 26.997745,27.140456 26.997745,27.140456 C 18.528582,18.264221 13.291696,25.230495 11.500037,31.436501 z"
     style="fill:#404040;"/>
  </a>
 </g>
</svg>

<style type='text/css'>
<![CDATA[
[data-mouse-over-selected='false'] { opacity: 0.7; }
[data-mouse-over-selected='true']  { opacity: 1.0; }
]]>
</style>
<script type="application/ecmascript"><![CDATA[
document.addEventListener('DOMContentLoaded', (event) => {
  highlightEdges();
  highlightAdjacentNodes();
});
]]></script>
</svg>
