<?xml version="1.0" encoding="UTF-8" standalone="no"?>
<!DOCTYPE svg PUBLIC "-//W3C//DTD SVG 1.1//EN"
 "http://www.w3.org/Graphics/SVG/1.1/DTD/svg11.dtd">
<!-- Generated by graphviz version 2.43.0 (0)
 -->
<!-- Title: OThwomp Pages: 1 -->
<svg width="1521pt" height="624pt"
 viewBox="0.00 0.00 1521.09 624.00" xmlns="http://www.w3.org/2000/svg" xmlns:xlink="http://www.w3.org/1999/xlink">
<g id="graph0" class="graph" transform="scale(1 1) rotate(0) translate(4 620)">
<title>OThwomp</title>
<!-- Node1 -->
<g id="Node000001" class="node">
<title>Node1</title>
<g id="a_Node000001"><a xlink:title=" ">
<polygon fill="#999999" stroke="#666666" points="1327.09,-19 1261.09,-19 1261.09,0 1327.09,0 1327.09,-19"/>
<text text-anchor="middle" x="1294.09" y="-7" font-family="Helvetica,sans-Serif" font-size="10.00">OThwomp</text>
</a>
</g>
</g>
<!-- Node2 -->
<g id="Node000002" class="node">
<title>Node2</title>
<g id="a_Node000002"><a xlink:href="classOObject.html" target="_top" xlink:title=" ">
<polygon fill="white" stroke="#666666" points="998.09,-96 942.09,-96 942.09,-77 998.09,-77 998.09,-96"/>
<text text-anchor="middle" x="970.09" y="-84" font-family="Helvetica,sans-Serif" font-size="10.00">OObject</text>
</a>
</g>
</g>
<!-- Node2&#45;&gt;Node1 -->
<g id="edge1_Node000001_Node000002" class="edge">
<title>Node2&#45;&gt;Node1</title>
<g id="a_edge1_Node000001_Node000002"><a xlink:title=" ">
<path fill="none" stroke="#63b8ff" d="M1008.37,-76.64C1072.47,-61.8 1200.46,-32.17 1260.95,-18.17"/>
<polygon fill="#63b8ff" stroke="#63b8ff" points="1007.23,-73.31 998.28,-78.98 1008.81,-80.13 1007.23,-73.31"/>
</a>
</g>
</g>
<!-- Node3 -->
<g id="Node000003" class="node">
<title>Node3</title>
<g id="a_Node000003"><a xlink:title=" ">
<polygon fill="white" stroke="#666666" points="1192.09,-180 1142.09,-180 1142.09,-161 1192.09,-161 1192.09,-180"/>
<text text-anchor="middle" x="1167.09" y="-168" font-family="Helvetica,sans-Serif" font-size="10.00">uint8_t</text>
</a>
</g>
</g>
<!-- Node3&#45;&gt;Node2 -->
<g id="edge2_Node000002_Node000003" class="edge">
<title>Node3&#45;&gt;Node2</title>
<g id="a_edge2_Node000002_Node000003"><a xlink:title=" ">
<path fill="none" stroke="#9a32cd" stroke-dasharray="5,2" d="M1168.88,-150.92C1168.96,-138.73 1166.81,-123.36 1157.09,-114 1134.95,-92.67 1044.93,-88.37 998.34,-87.6"/>
<polygon fill="#9a32cd" stroke="#9a32cd" points="1165.38,-150.79 1168.33,-160.96 1172.37,-151.17 1165.38,-150.79"/>
</a>
</g>
<text text-anchor="middle" x="1180.59" y="-122.5" font-family="Helvetica,sans-Serif" font-size="10.00" fill="grey"> uuid</text>
</g>
<!-- Node4 -->
<g id="Node000004" class="node">
<title>Node4</title>
<g id="a_Node000004"><a xlink:href="structObject.html" target="_top" xlink:title=" ">
<polygon fill="white" stroke="#666666" points="414.09,-180 366.09,-180 366.09,-161 414.09,-161 414.09,-180"/>
<text text-anchor="middle" x="390.09" y="-168" font-family="Helvetica,sans-Serif" font-size="10.00">Object</text>
</a>
</g>
</g>
<!-- Node4&#45;&gt;Node2 -->
<g id="edge3_Node000002_Node000004" class="edge">
<title>Node4&#45;&gt;Node2</title>
<g id="a_edge3_Node000002_Node000004"><a xlink:title=" ">
<path fill="none" stroke="#9a32cd" stroke-dasharray="5,2" d="M424.45,-169.77C513.61,-170.02 750.39,-167.6 821.09,-136 834,-130.23 831.58,-120.6 844.09,-114 875.13,-97.63 915.49,-91.37 942.06,-88.98"/>
<polygon fill="#9a32cd" stroke="#9a32cd" points="424.34,-166.27 414.32,-169.73 424.31,-173.27 424.34,-166.27"/>
</a>
</g>
<text text-anchor="middle" x="849.09" y="-122.5" font-family="Helvetica,sans-Serif" font-size="10.00" fill="grey"> o</text>
</g>
<!-- Node5 -->
<g id="Node000005" class="node">
<title>Node5</title>
<g id="a_Node000005"><a xlink:title=" ">
<polygon fill="white" stroke="#666666" points="562.09,-363 530.09,-363 530.09,-344 562.09,-344 562.09,-363"/>
<text text-anchor="middle" x="546.09" y="-351" font-family="Helvetica,sans-Serif" font-size="10.00">f32</text>
</a>
</g>
</g>
<!-- Node5&#45;&gt;Node4 -->
<g id="edge4_Node000004_Node000005" class="edge">
<title>Node5&#45;&gt;Node4</title>
<g id="a_edge4_Node000004_Node000005"><a xlink:title=" ">
<path fill="none" stroke="#9a32cd" stroke-dasharray="5,2" d="M520.28,-344.32C485.57,-336.89 468.5,-348.52 447.09,-326 409.38,-286.32 449.87,-253.29 424.09,-205 418.78,-195.06 409.52,-186.22 402,-180.13"/>
<polygon fill="#9a32cd" stroke="#9a32cd" points="519.46,-347.72 530.02,-346.8 521.19,-340.94 519.46,-347.72"/>
</a>
</g>
<text text-anchor="middle" x="481.59" y="-301.5" font-family="Helvetica,sans-Serif" font-size="10.00" fill="grey"> offset</text>
<text text-anchor="middle" x="481.59" y="-290.5" font-family="Helvetica,sans-Serif" font-size="10.00" fill="grey">origin_pos</text>
<text text-anchor="middle" x="481.59" y="-279.5" font-family="Helvetica,sans-Serif" font-size="10.00" fill="grey">pos</text>
<text text-anchor="middle" x="481.59" y="-268.5" font-family="Helvetica,sans-Serif" font-size="10.00" fill="grey">sizeScaling</text>
<text text-anchor="middle" x="481.59" y="-257.5" font-family="Helvetica,sans-Serif" font-size="10.00" fill="grey">surfaceHeight</text>
<text text-anchor="middle" x="481.59" y="-246.5" font-family="Helvetica,sans-Serif" font-size="10.00" fill="grey">unk_01C</text>
<text text-anchor="middle" x="481.59" y="-235.5" font-family="Helvetica,sans-Serif" font-size="10.00" fill="grey">unk_034</text>
<text text-anchor="middle" x="481.59" y="-224.5" font-family="Helvetica,sans-Serif" font-size="10.00" fill="grey">velocity</text>
</g>
<!-- Node6 -->
<g id="Node000006" class="node">
<title>Node6</title>
<g id="a_Node000006"><a xlink:title=" ">
<polygon fill="white" stroke="#666666" points="40.09,-363 6.09,-363 6.09,-344 40.09,-344 40.09,-363"/>
<text text-anchor="middle" x="23.09" y="-351" font-family="Helvetica,sans-Serif" font-size="10.00">s32</text>
</a>
</g>
</g>
<!-- Node6&#45;&gt;Node1 -->
<g id="edge31_Node000001_Node000006" class="edge">
<title>Node6&#45;&gt;Node1</title>
<g id="a_edge31_Node000001_Node000006"><a xlink:title=" ">
<path fill="none" stroke="#9a32cd" stroke-dasharray="5,2" d="M13.88,-334.89C12.73,-331.99 11.73,-328.96 11.09,-326 -0.26,-273.43 -6.15,-255.94 11.09,-205 20.24,-177.97 26.17,-169.55 50.09,-154 258.21,-18.68 1085.01,-10.59 1261.03,-10.43"/>
<polygon fill="#9a32cd" stroke="#9a32cd" points="10.72,-336.4 18.11,-343.99 17.07,-333.45 10.72,-336.4"/>
</a>
</g>
<text text-anchor="middle" x="146.09" y="-122.5" font-family="Helvetica,sans-Serif" font-size="10.00" fill="grey"> _idx</text>
</g>
<!-- Node6&#45;&gt;Node2 -->
<g id="edge20_Node000002_Node000006" class="edge">
<title>Node6&#45;&gt;Node2</title>
<g id="a_edge20_Node000002_Node000006"><a xlink:title=" ">
<path fill="none" stroke="#9a32cd" stroke-dasharray="5,2" d="M19.17,-333.7C13.97,-303.36 8.5,-243.15 37.09,-205 73.82,-156 105.83,-169.43 165.09,-154 297.39,-119.54 333.95,-126.52 470.09,-114 649.27,-97.53 865.6,-90.37 941.84,-88.23"/>
<polygon fill="#9a32cd" stroke="#9a32cd" points="15.77,-334.59 21.07,-343.76 22.65,-333.28 15.77,-334.59"/>
</a>
</g>
<text text-anchor="middle" x="198.09" y="-168" font-family="Helvetica,sans-Serif" font-size="10.00" fill="grey"> _objectIndex</text>
</g>
<!-- Node6&#45;&gt;Node4 -->
<g id="edge5_Node000004_Node000006" class="edge">
<title>Node6&#45;&gt;Node4</title>
<g id="a_edge5_Node000004_Node000006"><a xlink:title=" ">
<path fill="none" stroke="#9a32cd" stroke-dasharray="5,2" d="M31.19,-334.44C32.26,-331.65 33.27,-328.77 34.09,-326 49.54,-273.57 15.19,-241.26 56.09,-205 81.16,-182.77 324.62,-195.27 357.09,-187 363.22,-185.44 369.6,-182.73 375.1,-180.01"/>
<polygon fill="#9a32cd" stroke="#9a32cd" points="27.88,-333.26 27.24,-343.84 34.34,-335.97 27.88,-333.26"/>
</a>
</g>
<text text-anchor="middle" x="77.59" y="-290.5" font-family="Helvetica,sans-Serif" font-size="10.00" fill="grey"> status</text>
<text text-anchor="middle" x="77.59" y="-279.5" font-family="Helvetica,sans-Serif" font-size="10.00" fill="grey">timer</text>
<text text-anchor="middle" x="77.59" y="-268.5" font-family="Helvetica,sans-Serif" font-size="10.00" fill="grey">unk_048</text>
<text text-anchor="middle" x="77.59" y="-257.5" font-family="Helvetica,sans-Serif" font-size="10.00" fill="grey">unk_04C</text>
<text text-anchor="middle" x="77.59" y="-246.5" font-family="Helvetica,sans-Serif" font-size="10.00" fill="grey">unk_058</text>
<text text-anchor="middle" x="77.59" y="-235.5" font-family="Helvetica,sans-Serif" font-size="10.00" fill="grey">unk_05C</text>
</g>
<!-- Node7 -->
<g id="Node000007" class="node">
<title>Node7</title>
<g id="a_Node000007"><a xlink:title=" ">
<polygon fill="white" stroke="#666666" points="836.09,-363 798.09,-363 798.09,-344 836.09,-344 836.09,-363"/>
<text text-anchor="middle" x="817.09" y="-351" font-family="Helvetica,sans-Serif" font-size="10.00">char</text>
</a>
</g>
</g>
<!-- Node7&#45;&gt;Node2 -->
<g id="edge18_Node000002_Node000007" class="edge">
<title>Node7&#45;&gt;Node2</title>
<g id="a_edge18_Node000002_Node000007"><a xlink:title=" ">
<path fill="none" stroke="#9a32cd" stroke-dasharray="5,2" d="M828.19,-335.43C829.96,-332.35 831.67,-329.13 833.09,-326 866.28,-252.93 842.81,-220.26 888.09,-154 905.77,-128.12 936.42,-107.14 954.82,-96.07"/>
<polygon fill="#9a32cd" stroke="#9a32cd" points="825.21,-333.59 822.96,-343.95 831.17,-337.26 825.21,-333.59"/>
</a>
</g>
<text text-anchor="middle" x="925.59" y="-179" font-family="Helvetica,sans-Serif" font-size="10.00" fill="grey"> Model</text>
<text text-anchor="middle" x="925.59" y="-168" font-family="Helvetica,sans-Serif" font-size="10.00" fill="grey">Name</text>
<text text-anchor="middle" x="925.59" y="-157" font-family="Helvetica,sans-Serif" font-size="10.00" fill="grey">ResourceName</text>
</g>
<!-- Node7&#45;&gt;Node4 -->
<g id="edge6_Node000004_Node000007" class="edge">
<title>Node7&#45;&gt;Node4</title>
<g id="a_edge6_Node000004_Node000007"><a xlink:title=" ">
<path fill="none" stroke="#9a32cd" stroke-dasharray="5,2" d="M788.57,-342.3C780.43,-338.26 772.14,-332.9 766.09,-326 728.35,-282.99 767.25,-240.14 722.09,-205 697.89,-186.17 486.58,-175.57 414.25,-172.47"/>
<polygon fill="#9a32cd" stroke="#9a32cd" points="787.35,-345.59 797.91,-346.45 790.19,-339.19 787.35,-345.59"/>
</a>
</g>
<text text-anchor="middle" x="799.59" y="-274" font-family="Helvetica,sans-Serif" font-size="10.00" fill="grey"> activeTLUT</text>
<text text-anchor="middle" x="799.59" y="-263" font-family="Helvetica,sans-Serif" font-size="10.00" fill="grey">activeTexture</text>
<text text-anchor="middle" x="799.59" y="-252" font-family="Helvetica,sans-Serif" font-size="10.00" fill="grey">textureList</text>
</g>
<!-- Node8 -->
<g id="Node000008" class="node">
<title>Node8</title>
<g id="a_Node000008"><a xlink:title=" ">
<polygon fill="white" stroke="#666666" points="609.59,-363 580.59,-363 580.59,-344 609.59,-344 609.59,-363"/>
<text text-anchor="middle" x="595.09" y="-351" font-family="Helvetica,sans-Serif" font-size="10.00">u8</text>
</a>
</g>
</g>
<!-- Node8&#45;&gt;Node4 -->
<g id="edge7_Node000004_Node000008" class="edge">
<title>Node8&#45;&gt;Node4</title>
<g id="a_edge7_Node000004_Node000008"><a xlink:title=" ">
<path fill="none" stroke="#9a32cd" stroke-dasharray="5,2" d="M570.82,-343.57C557.72,-338.27 543.36,-331.53 539.09,-326 505.6,-282.7 553.38,-245.08 516.09,-205 489.88,-176.83 442.92,-171.3 414.32,-170.76"/>
<polygon fill="#9a32cd" stroke="#9a32cd" points="569.82,-346.93 580.41,-347.29 572.36,-340.41 569.82,-346.93"/>
</a>
</g>
<text text-anchor="middle" x="574.59" y="-318" font-family="Helvetica,sans-Serif" font-size="10.00" fill="grey"> textureHeight</text>
<text text-anchor="middle" x="574.59" y="-307" font-family="Helvetica,sans-Serif" font-size="10.00" fill="grey">textureWidth</text>
<text text-anchor="middle" x="574.59" y="-296" font-family="Helvetica,sans-Serif" font-size="10.00" fill="grey">tlutList</text>
<text text-anchor="middle" x="574.59" y="-285" font-family="Helvetica,sans-Serif" font-size="10.00" fill="grey">unk_0D5</text>
<text text-anchor="middle" x="574.59" y="-274" font-family="Helvetica,sans-Serif" font-size="10.00" fill="grey">unk_0D6</text>
<text text-anchor="middle" x="574.59" y="-263" font-family="Helvetica,sans-Serif" font-size="10.00" fill="grey">unk_0D7</text>
<text text-anchor="middle" x="574.59" y="-252" font-family="Helvetica,sans-Serif" font-size="10.00" fill="grey">unk_0D8</text>
<text text-anchor="middle" x="574.59" y="-241" font-family="Helvetica,sans-Serif" font-size="10.00" fill="grey">unk_0DB</text>
<text text-anchor="middle" x="574.59" y="-230" font-family="Helvetica,sans-Serif" font-size="10.00" fill="grey">unk_0DC</text>
<text text-anchor="middle" x="574.59" y="-219" font-family="Helvetica,sans-Serif" font-size="10.00" fill="grey">unk_0DD</text>
<text text-anchor="middle" x="574.59" y="-208" font-family="Helvetica,sans-Serif" font-size="10.00" fill="grey">...</text>
</g>
<!-- Node9 -->
<g id="Node000009" class="node">
<title>Node9</title>
<g id="a_Node000009"><a xlink:title=" ">
<polygon fill="white" stroke="#666666" points="139.09,-363 105.09,-363 105.09,-344 139.09,-344 139.09,-363"/>
<text text-anchor="middle" x="122.09" y="-351" font-family="Helvetica,sans-Serif" font-size="10.00">Gfx</text>
</a>
</g>
</g>
<!-- Node9&#45;&gt;Node4 -->
<g id="edge8_Node000004_Node000009" class="edge">
<title>Node9&#45;&gt;Node4</title>
<g id="a_edge8_Node000004_Node000009"><a xlink:title=" ">
<path fill="none" stroke="#9a32cd" stroke-dasharray="5,2" d="M115.29,-334.19C105.09,-303.16 90.29,-240.19 123.09,-205 140.87,-185.93 331.88,-193.65 357.09,-187 363.09,-185.42 369.33,-182.78 374.75,-180.12"/>
<polygon fill="#9a32cd" stroke="#9a32cd" points="112.02,-335.45 118.62,-343.73 118.63,-333.14 112.02,-335.45"/>
</a>
</g>
<text text-anchor="middle" x="140.09" y="-263" font-family="Helvetica,sans-Serif" font-size="10.00" fill="grey"> model</text>
</g>
<!-- Node10 -->
<g id="Node000010" class="node">
<title>Node10</title>
<g id="a_Node000010"><a xlink:title=" ">
<polygon fill="white" stroke="#666666" points="195.59,-363 162.59,-363 162.59,-344 195.59,-344 195.59,-363"/>
<text text-anchor="middle" x="179.09" y="-351" font-family="Helvetica,sans-Serif" font-size="10.00">Vtx</text>
</a>
</g>
</g>
<!-- Node10&#45;&gt;Node4 -->
<g id="edge9_Node000004_Node000010" class="edge">
<title>Node10&#45;&gt;Node4</title>
<g id="a_edge9_Node000004_Node000010"><a xlink:title=" ">
<path fill="none" stroke="#9a32cd" stroke-dasharray="5,2" d="M172.38,-334.27C162.32,-303.37 147.72,-240.59 180.09,-205 206.69,-175.75 318.99,-197.55 357.09,-187 363.07,-185.34 369.31,-182.68 374.73,-180.03"/>
<polygon fill="#9a32cd" stroke="#9a32cd" points="169.09,-335.47 175.67,-343.78 175.71,-333.18 169.09,-335.47"/>
</a>
</g>
<text text-anchor="middle" x="197.59" y="-263" font-family="Helvetica,sans-Serif" font-size="10.00" fill="grey"> vertex</text>
</g>
<!-- Node11 -->
<g id="Node000011" class="node">
<title>Node11</title>
<g id="a_Node000011"><a xlink:title=" ">
<polygon fill="white" stroke="#666666" points="251.59,-363 222.59,-363 222.59,-344 251.59,-344 251.59,-363"/>
<text text-anchor="middle" x="237.09" y="-351" font-family="Helvetica,sans-Serif" font-size="10.00">s8</text>
</a>
</g>
</g>
<!-- Node11&#45;&gt;Node4 -->
<g id="edge10_Node000004_Node000011" class="edge">
<title>Node11&#45;&gt;Node4</title>
<g id="a_edge10_Node000004_Node000011"><a xlink:title=" ">
<path fill="none" stroke="#9a32cd" stroke-dasharray="5,2" d="M230.44,-334.03C220.66,-303.24 206.74,-241.21 238.09,-205 255.6,-184.78 331.5,-194.77 357.09,-187 362.91,-185.24 369,-182.61 374.35,-180.03"/>
<polygon fill="#9a32cd" stroke="#9a32cd" points="227.25,-335.51 233.77,-343.86 233.88,-333.27 227.25,-335.51"/>
</a>
</g>
<text text-anchor="middle" x="278.09" y="-318" font-family="Helvetica,sans-Serif" font-size="10.00" fill="grey"> isTimerActive</text>
<text text-anchor="middle" x="278.09" y="-307" font-family="Helvetica,sans-Serif" font-size="10.00" fill="grey">textureListIndex</text>
<text text-anchor="middle" x="278.09" y="-296" font-family="Helvetica,sans-Serif" font-size="10.00" fill="grey">unk_078</text>
<text text-anchor="middle" x="278.09" y="-285" font-family="Helvetica,sans-Serif" font-size="10.00" fill="grey">unk_0CA</text>
<text text-anchor="middle" x="278.09" y="-274" font-family="Helvetica,sans-Serif" font-size="10.00" fill="grey">unk_0CC</text>
<text text-anchor="middle" x="278.09" y="-263" font-family="Helvetica,sans-Serif" font-size="10.00" fill="grey">unk_0CD</text>
<text text-anchor="middle" x="278.09" y="-252" font-family="Helvetica,sans-Serif" font-size="10.00" fill="grey">unk_0CE</text>
<text text-anchor="middle" x="278.09" y="-241" font-family="Helvetica,sans-Serif" font-size="10.00" fill="grey">unk_0CF</text>
<text text-anchor="middle" x="278.09" y="-230" font-family="Helvetica,sans-Serif" font-size="10.00" fill="grey">unk_0D0</text>
<text text-anchor="middle" x="278.09" y="-219" font-family="Helvetica,sans-Serif" font-size="10.00" fill="grey">unk_0D1</text>
<text text-anchor="middle" x="278.09" y="-208" font-family="Helvetica,sans-Serif" font-size="10.00" fill="grey">...</text>
</g>
<!-- Node12 -->
<g id="Node000012" class="node">
<title>Node12</title>
<g id="a_Node000012"><a xlink:href="structSplineControlPoint.html" target="_top" xlink:title=" ">
<polygon fill="white" stroke="#666666" points="458.59,-539 351.59,-539 351.59,-520 458.59,-520 458.59,-539"/>
<text text-anchor="middle" x="405.09" y="-527" font-family="Helvetica,sans-Serif" font-size="10.00">SplineControlPoint</text>
</a>
</g>
</g>
<!-- Node12&#45;&gt;Node4 -->
<g id="edge11_Node000004_Node000012" class="edge">
<title>Node12&#45;&gt;Node4</title>
<g id="a_edge11_Node000004_Node000012"><a xlink:title=" ">
<path fill="none" stroke="#9a32cd" stroke-dasharray="5,2" d="M397.04,-510.42C395.96,-507.63 394.93,-504.76 394.09,-502 375.7,-441.72 372.34,-425.71 366.09,-363 361.37,-315.64 343.49,-302.49 371.09,-205 373.68,-195.86 379.24,-186.56 383.68,-180.08"/>
<polygon fill="#9a32cd" stroke="#9a32cd" points="393.89,-511.96 400.99,-519.82 400.34,-509.25 393.89,-511.96"/>
</a>
</g>
<text text-anchor="middle" x="399.59" y="-351" font-family="Helvetica,sans-Serif" font-size="10.00" fill="grey"> controlPoints</text>
</g>
<!-- Node14 -->
<g id="Node000014" class="node">
<title>Node14</title>
<g id="a_Node000014"><a xlink:href="structSplineData.html" target="_top" xlink:title=" ">
<polygon fill="white" stroke="#666666" points="512.09,-363 442.09,-363 442.09,-344 512.09,-344 512.09,-363"/>
<text text-anchor="middle" x="477.09" y="-351" font-family="Helvetica,sans-Serif" font-size="10.00">SplineData</text>
</a>
</g>
</g>
<!-- Node12&#45;&gt;Node14 -->
<g id="edge15_Node000014_Node000012" class="edge">
<title>Node12&#45;&gt;Node14</title>
<g id="a_edge15_Node000014_Node000012"><a xlink:title=" ">
<path fill="none" stroke="#9a32cd" stroke-dasharray="5,2" d="M400.48,-509.85C394.19,-479.71 386.59,-419.78 414.09,-381 420.75,-371.61 431.41,-365.53 442.08,-361.6"/>
<polygon fill="#9a32cd" stroke="#9a32cd" points="397.12,-510.86 402.75,-519.83 403.95,-509.31 397.12,-510.86"/>
</a>
</g>
<text text-anchor="middle" x="447.59" y="-439" font-family="Helvetica,sans-Serif" font-size="10.00" fill="grey"> controlPoints</text>
</g>
<!-- Node13 -->
<g id="Node000013" class="node">
<title>Node13</title>
<g id="a_Node000013"><a xlink:title=" ">
<polygon fill="white" stroke="#666666" points="484.09,-616 450.09,-616 450.09,-597 484.09,-597 484.09,-616"/>
<text text-anchor="middle" x="467.09" y="-604" font-family="Helvetica,sans-Serif" font-size="10.00">s16</text>
</a>
</g>
</g>
<!-- Node13&#45;&gt;Node1 -->
<g id="edge32_Node000001_Node000013" class="edge">
<title>Node13&#45;&gt;Node1</title>
<g id="a_edge32_Node000001_Node000013"><a xlink:title=" ">
<path fill="none" stroke="#9a32cd" stroke-dasharray="5,2" d="M494.5,-604.48C637.77,-598.99 1294.09,-571.6 1294.09,-530.5 1294.09,-530.5 1294.09,-530.5 1294.09,-85.5 1294.09,-61.54 1294.09,-33.28 1294.09,-19.28"/>
<polygon fill="#9a32cd" stroke="#9a32cd" points="494.22,-600.99 484.36,-604.87 494.49,-607.99 494.22,-600.99"/>
</a>
</g>
<text text-anchor="middle" x="1331.09" y="-263" font-family="Helvetica,sans-Serif" font-size="10.00" fill="grey"> _faceDirection</text>
</g>
<!-- Node13&#45;&gt;Node4 -->
<g id="edge16_Node000004_Node000013" class="edge">
<title>Node13&#45;&gt;Node4</title>
<g id="a_edge16_Node000004_Node000013"><a xlink:title=" ">
<path fill="none" stroke="#9a32cd" stroke-dasharray="5,2" d="M440.43,-598.44C401.44,-586.38 331.27,-557.52 311.09,-502 292.72,-451.46 304.95,-434.43 311.09,-381 315.68,-341.1 331.49,-239.47 352.09,-205 358.13,-194.88 368.26,-186.18 376.54,-180.18"/>
<polygon fill="#9a32cd" stroke="#9a32cd" points="439.5,-601.82 450.08,-601.28 441.48,-595.1 439.5,-601.82"/>
</a>
</g>
<text text-anchor="middle" x="338.09" y="-494" font-family="Helvetica,sans-Serif" font-size="10.00" fill="grey"> primAlpha</text>
<text text-anchor="middle" x="338.09" y="-483" font-family="Helvetica,sans-Serif" font-size="10.00" fill="grey">state</text>
<text text-anchor="middle" x="338.09" y="-472" font-family="Helvetica,sans-Serif" font-size="10.00" fill="grey">type</text>
<text text-anchor="middle" x="338.09" y="-461" font-family="Helvetica,sans-Serif" font-size="10.00" fill="grey">unk_084</text>
<text text-anchor="middle" x="338.09" y="-450" font-family="Helvetica,sans-Serif" font-size="10.00" fill="grey">unk_09C</text>
<text text-anchor="middle" x="338.09" y="-439" font-family="Helvetica,sans-Serif" font-size="10.00" fill="grey">unk_09E</text>
<text text-anchor="middle" x="338.09" y="-428" font-family="Helvetica,sans-Serif" font-size="10.00" fill="grey">unk_0A2</text>
<text text-anchor="middle" x="338.09" y="-417" font-family="Helvetica,sans-Serif" font-size="10.00" fill="grey">unk_0A8</text>
<text text-anchor="middle" x="338.09" y="-406" font-family="Helvetica,sans-Serif" font-size="10.00" fill="grey">unk_0AA</text>
<text text-anchor="middle" x="338.09" y="-395" font-family="Helvetica,sans-Serif" font-size="10.00" fill="grey">unk_0AC</text>
<text text-anchor="middle" x="338.09" y="-384" font-family="Helvetica,sans-Serif" font-size="10.00" fill="grey">...</text>
</g>
<!-- Node13&#45;&gt;Node12 -->
<g id="edge12_Node000012_Node000013" class="edge">
<title>Node13&#45;&gt;Node12</title>
<g id="a_edge12_Node000012_Node000013"><a xlink:title=" ">
<path fill="none" stroke="#9a32cd" stroke-dasharray="5,2" d="M451.05,-589.86C447.67,-586.37 444.19,-582.63 441.09,-579 429.64,-565.61 417.72,-548.91 410.87,-539.01"/>
<polygon fill="#9a32cd" stroke="#9a32cd" points="448.58,-592.33 458.11,-596.95 453.54,-587.4 448.58,-592.33"/>
</a>
</g>
<text text-anchor="middle" x="461.09" y="-571" font-family="Helvetica,sans-Serif" font-size="10.00" fill="grey"> pos</text>
<text text-anchor="middle" x="461.09" y="-560" font-family="Helvetica,sans-Serif" font-size="10.00" fill="grey">velocity</text>
</g>
<!-- Node13&#45;&gt;Node14 -->
<g id="edge14_Node000014_Node000013" class="edge">
<title>Node13&#45;&gt;Node14</title>
<g id="a_edge14_Node000014_Node000013"><a xlink:title=" ">
<path fill="none" stroke="#9a32cd" stroke-dasharray="5,2" d="M477.95,-587.74C479.24,-584.9 480.36,-581.94 481.09,-579 501.35,-497.27 484.57,-393.64 478.84,-363.24"/>
<polygon fill="#9a32cd" stroke="#9a32cd" points="474.83,-586.16 473.18,-596.62 480.99,-589.47 474.83,-586.16"/>
</a>
</g>
<text text-anchor="middle" x="535.59" y="-527" font-family="Helvetica,sans-Serif" font-size="10.00" fill="grey"> numControlPoints</text>
</g>
<!-- Node14&#45;&gt;Node4 -->
<g id="edge13_Node000004_Node000014" class="edge">
<title>Node14&#45;&gt;Node4</title>
<g id="a_edge13_Node000004_Node000014"><a xlink:title=" ">
<path fill="none" stroke="#9a32cd" stroke-dasharray="5,2" d="M431.92,-343.67C414.01,-339.17 396.4,-333.14 391.09,-326 357.49,-280.79 378.34,-205.79 386.92,-180.29"/>
<polygon fill="#9a32cd" stroke="#9a32cd" points="431.29,-347.12 441.83,-346.01 432.9,-340.31 431.29,-347.12"/>
</a>
</g>
<text text-anchor="middle" x="407.59" y="-263" font-family="Helvetica,sans-Serif" font-size="10.00" fill="grey"> spline</text>
</g>
<!-- Node15 -->
<g id="Node000015" class="node">
<title>Node15</title>
<g id="a_Node000015"><a xlink:title=" ">
<polygon fill="white" stroke="#666666" points="706.59,-363 671.59,-363 671.59,-344 706.59,-344 706.59,-363"/>
<text text-anchor="middle" x="689.09" y="-351" font-family="Helvetica,sans-Serif" font-size="10.00">u16</text>
</a>
</g>
</g>
<!-- Node15&#45;&gt;Node1 -->
<g id="edge27_Node000001_Node000015" class="edge">
<title>Node15&#45;&gt;Node1</title>
<g id="a_edge27_Node000001_Node000015"><a xlink:title=" ">
<path fill="none" stroke="#9a32cd" stroke-dasharray="5,2" d="M710.23,-336.99C713.37,-333.72 716.19,-330.02 718.09,-326 738.23,-283.34 698.48,-149.89 729.09,-114 798.74,-32.35 1150.71,-14.83 1260.99,-11.33"/>
<polygon fill="#9a32cd" stroke="#9a32cd" points="707.72,-334.54 702.59,-343.81 712.38,-339.76 707.72,-334.54"/>
</a>
</g>
<text text-anchor="middle" x="773.09" y="-122.5" font-family="Helvetica,sans-Serif" font-size="10.00" fill="grey"> BoundingBoxSize</text>
</g>
<!-- Node15&#45;&gt;Node4 -->
<g id="edge17_Node000004_Node000015" class="edge">
<title>Node15&#45;&gt;Node4</title>
<g id="a_edge17_Node000004_Node000015"><a xlink:title=" ">
<path fill="none" stroke="#9a32cd" stroke-dasharray="5,2" d="M661.81,-345.42C651.35,-341.38 640.22,-335.22 633.09,-326 599.6,-282.7 649.5,-242.99 610.09,-205 582.48,-178.39 465.42,-172.9 414.22,-171.78"/>
<polygon fill="#9a32cd" stroke="#9a32cd" points="660.9,-348.81 671.49,-348.68 663.13,-342.17 660.9,-348.81"/>
</a>
</g>
<text text-anchor="middle" x="675.59" y="-301.5" font-family="Helvetica,sans-Serif" font-size="10.00" fill="grey"> animationTimer</text>
<text text-anchor="middle" x="675.59" y="-290.5" font-family="Helvetica,sans-Serif" font-size="10.00" fill="grey">boundingBoxSize</text>
<text text-anchor="middle" x="675.59" y="-279.5" font-family="Helvetica,sans-Serif" font-size="10.00" fill="grey">direction_angle</text>
<text text-anchor="middle" x="675.59" y="-268.5" font-family="Helvetica,sans-Serif" font-size="10.00" fill="grey">orientation</text>
<text text-anchor="middle" x="675.59" y="-257.5" font-family="Helvetica,sans-Serif" font-size="10.00" fill="grey">unk_09A</text>
<text text-anchor="middle" x="675.59" y="-246.5" font-family="Helvetica,sans-Serif" font-size="10.00" fill="grey">unk_0B8</text>
<text text-anchor="middle" x="675.59" y="-235.5" font-family="Helvetica,sans-Serif" font-size="10.00" fill="grey">unk_0C4</text>
<text text-anchor="middle" x="675.59" y="-224.5" font-family="Helvetica,sans-Serif" font-size="10.00" fill="grey">unk_0C6</text>
</g>
<!-- Node16 -->
<g id="Node000016" class="node">
<title>Node16</title>
<g id="a_Node000016"><a xlink:title=" ">
<polygon fill="white" stroke="#666666" points="1120.09,-180 1082.09,-180 1082.09,-161 1120.09,-161 1120.09,-180"/>
<text text-anchor="middle" x="1101.09" y="-168" font-family="Helvetica,sans-Serif" font-size="10.00">bool</text>
</a>
</g>
</g>
<!-- Node16&#45;&gt;Node2 -->
<g id="edge19_Node000002_Node000016" class="edge">
<title>Node16&#45;&gt;Node2</title>
<g id="a_edge19_Node000002_Node000016"><a xlink:title=" ">
<path fill="none" stroke="#9a32cd" stroke-dasharray="5,2" d="M1085.95,-153.18C1071.61,-137.86 1051.63,-116.88 1047.09,-114 1032.17,-104.53 1013.46,-97.99 998.22,-93.78"/>
<polygon fill="#9a32cd" stroke="#9a32cd" points="1083.43,-155.62 1092.81,-160.55 1088.55,-150.85 1083.43,-155.62"/>
</a>
</g>
<text text-anchor="middle" x="1113.59" y="-122.5" font-family="Helvetica,sans-Serif" font-size="10.00" fill="grey"> bPendingDestroy</text>
</g>
<!-- Node17 -->
<g id="Node000017" class="node">
<title>Node17</title>
<g id="a_Node000017"><a xlink:href="structFVector.html" target="_top" xlink:title=" ">
<polygon fill="white" stroke="#666666" points="1063.59,-180 1010.59,-180 1010.59,-161 1063.59,-161 1063.59,-180"/>
<text text-anchor="middle" x="1037.09" y="-168" font-family="Helvetica,sans-Serif" font-size="10.00">FVector</text>
</a>
</g>
</g>
<!-- Node17&#45;&gt;Node2 -->
<g id="edge21_Node000002_Node000017" class="edge">
<title>Node17&#45;&gt;Node2</title>
<g id="a_edge21_Node000002_Node000017"><a xlink:title=" ">
<path fill="none" stroke="#9a32cd" stroke-dasharray="5,2" d="M1010.6,-155.65C1002.5,-150.38 994.15,-143.75 988.09,-136 978.69,-123.97 973.84,-106.53 971.64,-96.17"/>
<polygon fill="#9a32cd" stroke="#9a32cd" points="1008.79,-158.64 1019.16,-160.81 1012.41,-152.65 1008.79,-158.64"/>
</a>
</g>
<text text-anchor="middle" x="1017.59" y="-128" font-family="Helvetica,sans-Serif" font-size="10.00" fill="grey"> SpawnPos</text>
<text text-anchor="middle" x="1017.59" y="-117" font-family="Helvetica,sans-Serif" font-size="10.00" fill="grey">SpawnScale</text>
</g>
<!-- Node18 -->
<g id="Node000018" class="node">
<title>Node18</title>
<g id="a_Node000018"><a xlink:title=" ">
<polygon fill="white" stroke="#666666" points="1017.09,-363 979.09,-363 979.09,-344 1017.09,-344 1017.09,-363"/>
<text text-anchor="middle" x="998.09" y="-351" font-family="Helvetica,sans-Serif" font-size="10.00">float</text>
</a>
</g>
</g>
<!-- Node18&#45;&gt;Node2 -->
<g id="edge25_Node000002_Node000018" class="edge">
<title>Node18&#45;&gt;Node2</title>
<g id="a_edge25_Node000002_Node000018"><a xlink:title=" ">
<path fill="none" stroke="#9a32cd" stroke-dasharray="5,2" d="M993.45,-333.96C986.1,-303.52 972.1,-240.94 967.09,-187 965.73,-172.4 966.76,-168.66 967.09,-154 967.56,-133.2 968.85,-108.78 969.58,-96.1"/>
<polygon fill="#9a32cd" stroke="#9a32cd" points="990.13,-335.09 995.91,-343.96 996.92,-333.42 990.13,-335.09"/>
</a>
</g>
<text text-anchor="middle" x="984.09" y="-168" font-family="Helvetica,sans-Serif" font-size="10.00" fill="grey"> Speed</text>
</g>
<!-- Node18&#45;&gt;Node17 -->
<g id="edge22_Node000017_Node000018" class="edge">
<title>Node18&#45;&gt;Node17</title>
<g id="a_edge22_Node000017_Node000018"><a xlink:title=" ">
<path fill="none" stroke="#9a32cd" stroke-dasharray="5,2" d="M1002.1,-333.87C1010.42,-295.29 1029.24,-207.91 1035.23,-180.14"/>
<polygon fill="#9a32cd" stroke="#9a32cd" points="998.66,-333.26 999.97,-343.77 1005.5,-334.73 998.66,-333.26"/>
</a>
</g>
<text text-anchor="middle" x="1035.09" y="-274" font-family="Helvetica,sans-Serif" font-size="10.00" fill="grey"> x</text>
<text text-anchor="middle" x="1035.09" y="-263" font-family="Helvetica,sans-Serif" font-size="10.00" fill="grey">y</text>
<text text-anchor="middle" x="1035.09" y="-252" font-family="Helvetica,sans-Serif" font-size="10.00" fill="grey">z</text>
</g>
<!-- Node19 -->
<g id="Node000019" class="node">
<title>Node19</title>
<g id="a_Node000019"><a xlink:href="structIRotator.html" target="_top" xlink:title=" ">
<polygon fill="white" stroke="#666666" points="1266.09,-180 1210.09,-180 1210.09,-161 1266.09,-161 1266.09,-180"/>
<text text-anchor="middle" x="1238.09" y="-168" font-family="Helvetica,sans-Serif" font-size="10.00">IRotator</text>
</a>
</g>
</g>
<!-- Node19&#45;&gt;Node2 -->
<g id="edge23_Node000002_Node000019" class="edge">
<title>Node19&#45;&gt;Node2</title>
<g id="a_edge23_Node000002_Node000019"><a xlink:title=" ">
<path fill="none" stroke="#9a32cd" stroke-dasharray="5,2" d="M1229.7,-151.37C1222.82,-138.68 1211.81,-122.53 1197.09,-114 1163.88,-94.75 1051.18,-89.46 998.14,-88.02"/>
<polygon fill="#9a32cd" stroke="#9a32cd" points="1226.71,-153.22 1234.33,-160.59 1232.97,-150.08 1226.71,-153.22"/>
</a>
</g>
<text text-anchor="middle" x="1246.09" y="-122.5" font-family="Helvetica,sans-Serif" font-size="10.00" fill="grey"> SpawnRot</text>
</g>
<!-- Node20 -->
<g id="Node000020" class="node">
<title>Node20</title>
<g id="a_Node000020"><a xlink:title=" ">
<polygon fill="white" stroke="#666666" points="1266.09,-363 1210.09,-363 1210.09,-344 1266.09,-344 1266.09,-363"/>
<text text-anchor="middle" x="1238.09" y="-351" font-family="Helvetica,sans-Serif" font-size="10.00">uint16_t</text>
</a>
</g>
</g>
<!-- Node20&#45;&gt;Node19 -->
<g id="edge24_Node000019_Node000020" class="edge">
<title>Node20&#45;&gt;Node19</title>
<g id="a_edge24_Node000019_Node000020"><a xlink:title=" ">
<path fill="none" stroke="#9a32cd" stroke-dasharray="5,2" d="M1238.09,-333.38C1238.09,-294.54 1238.09,-207.79 1238.09,-180.14"/>
<polygon fill="#9a32cd" stroke="#9a32cd" points="1234.59,-333.77 1238.09,-343.77 1241.59,-333.77 1234.59,-333.77"/>
</a>
</g>
<text text-anchor="middle" x="1252.09" y="-274" font-family="Helvetica,sans-Serif" font-size="10.00" fill="grey"> pitch</text>
<text text-anchor="middle" x="1252.09" y="-263" font-family="Helvetica,sans-Serif" font-size="10.00" fill="grey">roll</text>
<text text-anchor="middle" x="1252.09" y="-252" font-family="Helvetica,sans-Serif" font-size="10.00" fill="grey">yaw</text>
</g>
<!-- Node21 -->
<g id="Node000021" class="node">
<title>Node21</title>
<g id="a_Node000021"><a xlink:title=" ">
<polygon fill="white" stroke="#666666" points="348.09,-180 240.09,-180 240.09,-161 348.09,-161 348.09,-180"/>
<text text-anchor="middle" x="294.09" y="-168" font-family="Helvetica,sans-Serif" font-size="10.00">vector&lt; Triangle &gt;</text>
</a>
</g>
</g>
<!-- Node21&#45;&gt;Node2 -->
<g id="edge26_Node000002_Node000021" class="edge">
<title>Node21&#45;&gt;Node2</title>
<g id="a_edge26_Node000002_Node000021"><a xlink:title=" ">
<path fill="none" stroke="#9a32cd" stroke-dasharray="5,2" d="M336.03,-158.49C343.04,-156.85 350.25,-155.28 357.09,-154 580.4,-112.07 854.8,-93.96 942.07,-88.99"/>
<polygon fill="#9a32cd" stroke="#9a32cd" points="334.89,-155.17 325.99,-160.92 336.53,-161.97 334.89,-155.17"/>
</a>
</g>
<text text-anchor="middle" x="648.59" y="-122.5" font-family="Helvetica,sans-Serif" font-size="10.00" fill="grey"> Triangles</text>
</g>
<!-- Node22 -->
<g id="Node000022" class="node">
<title>Node22</title>
<g id="a_Node000022"><a xlink:title=" ">
<polygon fill="white" stroke="#666666" points="1369.59,-96 1322.59,-96 1322.59,-77 1369.59,-77 1369.59,-96"/>
<text text-anchor="middle" x="1346.09" y="-84" font-family="Helvetica,sans-Serif" font-size="10.00">States</text>
</a>
</g>
</g>
<!-- Node22&#45;&gt;Node1 -->
<g id="edge28_Node000001_Node000022" class="edge">
<title>Node22&#45;&gt;Node1</title>
<g id="a_edge28_Node000001_Node000022"><a xlink:title=" ">
<path fill="none" stroke="#9a32cd" stroke-dasharray="5,2" d="M1334.16,-68.29C1323.48,-52.88 1308.25,-30.93 1299.99,-19"/>
<polygon fill="#9a32cd" stroke="#9a32cd" points="1331.55,-70.67 1340.13,-76.9 1337.3,-66.68 1331.55,-70.67"/>
</a>
</g>
<text text-anchor="middle" x="1352.59" y="-45.5" font-family="Helvetica,sans-Serif" font-size="10.00" fill="grey"> Behaviour</text>
</g>
<!-- Node23 -->
<g id="Node000023" class="node">
<title>Node23</title>
<g id="a_Node000023"><a xlink:title=" ">
<polygon fill="white" stroke="#666666" points="1438.09,-96 1388.09,-96 1388.09,-77 1438.09,-77 1438.09,-96"/>
<text text-anchor="middle" x="1413.09" y="-84" font-family="Helvetica,sans-Serif" font-size="10.00">int16_t</text>
</a>
</g>
</g>
<!-- Node23&#45;&gt;Node1 -->
<g id="edge29_Node000001_Node000023" class="edge">
<title>Node23&#45;&gt;Node1</title>
<g id="a_edge29_Node000001_Node000023"><a xlink:title=" ">
<path fill="none" stroke="#9a32cd" stroke-dasharray="5,2" d="M1405.93,-67.62C1400.95,-57.3 1393.35,-44.85 1383.09,-37 1366.96,-24.66 1345.15,-18.04 1327.15,-14.51"/>
<polygon fill="#9a32cd" stroke="#9a32cd" points="1402.81,-69.23 1410.04,-76.98 1409.22,-66.42 1402.81,-69.23"/>
</a>
</g>
<text text-anchor="middle" x="1427.09" y="-45.5" font-family="Helvetica,sans-Serif" font-size="10.00" fill="grey"> PrimAlpha</text>
</g>
<!-- Node24 -->
<g id="Node000024" class="node">
<title>Node24</title>
<g id="a_Node000024"><a xlink:title=" ">
<polygon fill="white" stroke="#666666" points="1512.59,-96 1467.59,-96 1467.59,-77 1512.59,-77 1512.59,-96"/>
<text text-anchor="middle" x="1490.09" y="-84" font-family="Helvetica,sans-Serif" font-size="10.00">size_t</text>
</a>
</g>
</g>
<!-- Node24&#45;&gt;Node1 -->
<g id="edge30_Node000001_Node000024" class="edge">
<title>Node24&#45;&gt;Node1</title>
<g id="a_edge30_Node000001_Node000024"><a xlink:title=" ">
<path fill="none" stroke="#9a32cd" stroke-dasharray="5,2" d="M1482.69,-67.44C1477.41,-56.87 1469.26,-44.22 1458.09,-37 1437.02,-23.38 1368.83,-16.03 1327.3,-12.72"/>
<polygon fill="#9a32cd" stroke="#9a32cd" points="1479.57,-69.03 1486.88,-76.69 1485.95,-66.14 1479.57,-69.03"/>
</a>
</g>
<text text-anchor="middle" x="1495.09" y="-51" font-family="Helvetica,sans-Serif" font-size="10.00" fill="grey"> _count</text>
<text text-anchor="middle" x="1495.09" y="-40" font-family="Helvetica,sans-Serif" font-size="10.00" fill="grey">_rand</text>
</g>
</g>
</svg>
