<?xml version="1.0" encoding="UTF-8" standalone="no"?>
<!DOCTYPE svg PUBLIC "-//W3C//DTD SVG 1.1//EN"
 "http://www.w3.org/Graphics/SVG/1.1/DTD/svg11.dtd">
<!-- Generated by graphviz version 2.43.0 (0)
 -->
<!-- Title: GameUI::PortMenu::InitElement Pages: 1 -->
<!--zoomable 836 -->

<svg id="main" version="1.1" xmlns="http://www.w3.org/2000/svg" xmlns:xlink="http://www.w3.org/1999/xlink" xml:space="preserve" onload="init(evt)">

<style type="text/css"><![CDATA[
.node, .edge {opacity: 0.7;}
.node.selected, .edge.selected {opacity: 1;}
.edge:hover path { stroke: red; }
.edge:hover polygon { stroke: red; fill: red; }
]]></style>

<defs>
  <circle id="rim" cx="0" cy="0" r="7"/>
  <circle id="rim2" cx="0" cy="0" r="3.5"/>
  <g id="zoomPlus">
    <use xlink:href="#rim" fill="#404040"><set attributeName="fill" to="#808080" begin="zoomplus.mouseover" end="zoomplus.mouseout"/></use>
    <path d="M-4,0h8M0,-4v8" fill="none" stroke="white" stroke-width="1.5" pointer-events="none"/>
  </g>
  <g id="zoomMin">
    <use xlink:href="#rim" fill="#404040"><set attributeName="fill" to="#808080" begin="zoomminus.mouseover" end="zoomminus.mouseout"/></use>
    <path d="M-4,0h8" fill="none" stroke="white" stroke-width="1.5" pointer-events="none"/>
  </g>
  <g id="arrowUp" transform="translate(30 24)">
    <use xlink:href="#rim"/>
    <path pointer-events="none" fill="none" stroke="white" stroke-width="1.5" d="M0,-3.0v7 M-2.5,-0.5L0,-3.0L2.5,-0.5"/>
  </g>
  <g id="arrowRight" transform="rotate(90) translate(36 -43)">
    <use xlink:href="#rim"/>
    <path pointer-events="none" fill="none" stroke="white" stroke-width="1.5" d="M0,-3.0v7 M-2.5,-0.5L0,-3.0L2.5,-0.5"/>
  </g>
  <g id="arrowDown" transform="rotate(180) translate(-30 -48)">
    <use xlink:href="#rim"/>
    <path pointer-events="none" fill="none" stroke="white" stroke-width="1.5" d="M0,-3.0v7 M-2.5,-0.5L0,-3.0L2.5,-0.5"/>
  </g>
  <g id="arrowLeft" transform="rotate(270) translate(-36 17)">
    <use xlink:href="#rim"/>
    <path pointer-events="none" fill="none" stroke="white" stroke-width="1.5" d="M0,-3.0v7 M-2.5,-0.5L0,-3.0L2.5,-0.5"/>
  </g>
  <g id="resetDef">
    <use xlink:href="#rim2" fill="#404040"><set attributeName="fill" to="#808080" begin="reset.mouseover" end="reset.mouseout"/></use>
  </g>
</defs>
<script type="application/ecmascript">
var viewWidth = 1012;
var viewHeight = 836;
var sectionId = 'dynsection-17';
</script>
<script type="application/ecmascript" xlink:href="svg.min.js"/>
<svg id="graph" class="graph">
<g id="viewport">
<title>GameUI::PortMenu::InitElement</title>
<!-- Node1 -->
<g id="Node000001" class="node">
<title>Node1</title>
<g id="a_Node000001"><a xlink:title=" ">
<polygon fill="#999999" stroke="#666666" points="171,-294 0,-294 0,-275 171,-275 171,-294"/>
<text text-anchor="middle" x="85.5" y="-282" font-family="Helvetica,sans-Serif" font-size="10.00">GameUI::PortMenu::InitElement</text>
</a>
</g>
</g>
<!-- Node2 -->
<g id="Node000002" class="node">
<title>Node2</title>
<g id="a_Node000002"><a xlink:href="classGameUI_1_1PortMenu.html#ae2b125ddd080ba7cfd4da340dfb14192" target="_top" xlink:title=" ">
<polygon fill="white" stroke="#666666" points="386.5,-525.5 233.5,-525.5 233.5,-495.5 386.5,-495.5 386.5,-525.5"/>
<text text-anchor="start" x="241.5" y="-513.5" font-family="Helvetica,sans-Serif" font-size="10.00">GameUI::PortMenu::AddDev</text>
<text text-anchor="middle" x="310" y="-502.5" font-family="Helvetica,sans-Serif" font-size="10.00">Tools</text>
</a>
</g>
</g>
<!-- Node1&#45;&gt;Node2 -->
<g id="edge1_Node000001_Node000002" class="edge">
<title>Node1&#45;&gt;Node2</title>
<g id="a_edge1_Node000001_Node000002"><a xlink:title=" ">
<path fill="none" stroke="#63b8ff" d="M96.06,-294.21C129.22,-327.89 239.85,-440.26 287.19,-488.35"/>
<polygon fill="#63b8ff" stroke="#63b8ff" points="284.72,-490.83 294.23,-495.5 289.71,-485.91 284.72,-490.83"/>
</a>
</g>
</g>
<!-- Node14 -->
<g id="Node000014" class="node">
<title>Node14</title>
<g id="a_Node000014"><a xlink:href="classGameUI_1_1PortMenu.html#ad0164e1a4d1111fb2312cdec60c8d223" target="_top" xlink:title=" ">
<polygon fill="white" stroke="#666666" points="413,-682 207,-682 207,-663 413,-663 413,-682"/>
<text text-anchor="middle" x="310" y="-670" font-family="Helvetica,sans-Serif" font-size="10.00">GameUI::PortMenu::AddEnhancements</text>
</a>
</g>
</g>
<!-- Node1&#45;&gt;Node14 -->
<g id="edge17_Node000001_Node000014" class="edge">
<title>Node1&#45;&gt;Node14</title>
<g id="a_edge17_Node000001_Node000014"><a xlink:title=" ">
<path fill="none" stroke="#63b8ff" d="M90.47,-294.38C104.41,-328.67 153.24,-445.39 207,-534.5 234.53,-580.14 273.4,-629.39 294.31,-654.91"/>
<polygon fill="#63b8ff" stroke="#63b8ff" points="291.85,-657.42 300.91,-662.9 297.24,-652.96 291.85,-657.42"/>
</a>
</g>
</g>
<!-- Node17 -->
<g id="Node000017" class="node">
<title>Node17</title>
<g id="a_Node000017"><a xlink:href="classGameUI_1_1PortMenu.html#ad1010e161497fac3f609b69b0f7d6348" target="_top" xlink:title=" ">
<polygon fill="white" stroke="#666666" points="396.5,-313 223.5,-313 223.5,-294 396.5,-294 396.5,-313"/>
<text text-anchor="middle" x="310" y="-301" font-family="Helvetica,sans-Serif" font-size="10.00">GameUI::PortMenu::AddSettings</text>
</a>
</g>
</g>
<!-- Node1&#45;&gt;Node17 -->
<g id="edge32_Node000001_Node000017" class="edge">
<title>Node1&#45;&gt;Node17</title>
<g id="a_edge32_Node000001_Node000017"><a xlink:title=" ">
<path fill="none" stroke="#63b8ff" d="M171.25,-291.74C184.99,-292.91 199.3,-294.13 213.27,-295.33"/>
<polygon fill="#63b8ff" stroke="#63b8ff" points="213.12,-298.82 223.38,-296.19 213.71,-291.85 213.12,-298.82"/>
</a>
</g>
</g>
<!-- Node18 -->
<g id="Node000018" class="node">
<title>Node18</title>
<g id="a_Node000018"><a xlink:href="structMenuInit.html#a7c6bfdff0aa1152d33dd9b028aa2dec9" target="_top" xlink:title=" ">
<polygon fill="white" stroke="#666666" points="373,-276 247,-276 247,-257 373,-257 373,-276"/>
<text text-anchor="middle" x="310" y="-264" font-family="Helvetica,sans-Serif" font-size="10.00">MenuInit::GetInitFuncs</text>
</a>
</g>
</g>
<!-- Node1&#45;&gt;Node18 -->
<g id="edge43_Node000001_Node000018" class="edge">
<title>Node1&#45;&gt;Node18</title>
<g id="a_edge43_Node000001_Node000018"><a xlink:title=" ">
<path fill="none" stroke="#63b8ff" d="M171.25,-277.64C192.89,-275.89 215.94,-274.03 236.88,-272.33"/>
<polygon fill="#63b8ff" stroke="#63b8ff" points="237.29,-275.81 246.97,-271.52 236.72,-268.84 237.29,-275.81"/>
</a>
</g>
</g>
<!-- Node19 -->
<g id="Node000019" class="node">
<title>Node19</title>
<g id="a_Node000019"><a xlink:href="classShip_1_1Menu.html#a953d120de56dfabc594b699e2ff68b23" target="_top" xlink:title=" ">
<polygon fill="white" stroke="#666666" points="376.5,-159 243.5,-159 243.5,-140 376.5,-140 376.5,-159"/>
<text text-anchor="middle" x="310" y="-147" font-family="Helvetica,sans-Serif" font-size="10.00">Ship::Menu::InitElement</text>
</a>
</g>
</g>
<!-- Node1&#45;&gt;Node19 -->
<g id="edge44_Node000001_Node000019" class="edge">
<title>Node1&#45;&gt;Node19</title>
<g id="a_edge44_Node000001_Node000019"><a xlink:title=" ">
<path fill="none" stroke="#63b8ff" d="M102.5,-274.79C140.91,-251.49 238.52,-192.26 284.43,-164.41"/>
<polygon fill="#63b8ff" stroke="#63b8ff" points="286.41,-167.3 293.14,-159.12 282.78,-161.32 286.41,-167.3"/>
</a>
</g>
</g>
<!-- Node21 -->
<g id="Node000021" class="node">
<title>Node21</title>
<g id="a_Node000021"><a xlink:href="classShip_1_1Menu.html#a5c9049d39655da5c027cf0cabf77adda" target="_top" xlink:title=" ">
<polygon fill="white" stroke="#666666" points="380.5,-61.5 239.5,-61.5 239.5,-31.5 380.5,-31.5 380.5,-61.5"/>
<text text-anchor="start" x="247.5" y="-49.5" font-family="Helvetica,sans-Serif" font-size="10.00">Ship::Menu::InsertSidebar</text>
<text text-anchor="middle" x="310" y="-38.5" font-family="Helvetica,sans-Serif" font-size="10.00">Search</text>
</a>
</g>
</g>
<!-- Node1&#45;&gt;Node21 -->
<g id="edge46_Node000001_Node000021" class="edge">
<title>Node1&#45;&gt;Node21</title>
<g id="a_edge46_Node000001_Node000021"><a xlink:title=" ">
<path fill="none" stroke="#63b8ff" d="M92.94,-274.98C110,-250.07 158.43,-181.43 207,-131.5 229.99,-107.87 259.12,-84.11 280.37,-67.75"/>
<polygon fill="#63b8ff" stroke="#63b8ff" points="282.55,-70.49 288.37,-61.64 278.3,-64.92 282.55,-70.49"/>
</a>
</g>
</g>
<!-- Node3 -->
<g id="Node000003" class="node">
<title>Node3</title>
<g id="a_Node000003"><a xlink:href="classShip_1_1Menu.html#ab11c570db7278bb11d2106d1b3584830" target="_top" xlink:title=" ">
<polygon fill="white" stroke="#666666" points="611,-483 463,-483 463,-464 611,-464 611,-483"/>
<text text-anchor="middle" x="537" y="-471" font-family="Helvetica,sans-Serif" font-size="10.00">Ship::Menu::AddMenuEntry</text>
</a>
</g>
</g>
<!-- Node2&#45;&gt;Node3 -->
<g id="edge2_Node000002_Node000003" class="edge">
<title>Node2&#45;&gt;Node3</title>
<g id="a_edge2_Node000002_Node000003"><a xlink:title=" ">
<path fill="none" stroke="#63b8ff" d="M386.55,-498.08C412.92,-493.74 442.34,-488.9 468.06,-484.67"/>
<polygon fill="#63b8ff" stroke="#63b8ff" points="468.79,-488.1 478.09,-483.02 467.65,-481.19 468.79,-488.1"/>
</a>
</g>
</g>
<!-- Node4 -->
<g id="Node000004" class="node">
<title>Node4</title>
<g id="a_Node000004"><a xlink:href="classGameUI_1_1PortMenu.html#aae9fe5836ea57a15312e9f9a17e91850" target="_top" xlink:title=" ">
<polygon fill="white" stroke="#666666" points="618.5,-644.5 455.5,-644.5 455.5,-614.5 618.5,-614.5 618.5,-644.5"/>
<text text-anchor="start" x="463.5" y="-632.5" font-family="Helvetica,sans-Serif" font-size="10.00">GameUI::PortMenu::AddScene</text>
<text text-anchor="middle" x="537" y="-621.5" font-family="Helvetica,sans-Serif" font-size="10.00">Visibility</text>
</a>
</g>
</g>
<!-- Node2&#45;&gt;Node4 -->
<g id="edge3_Node000002_Node000004" class="edge">
<title>Node2&#45;&gt;Node4</title>
<g id="a_edge3_Node000002_Node000004"><a xlink:title=" ">
<path fill="none" stroke="#63b8ff" d="M339.5,-525.57C379.79,-546.88 453.49,-585.86 498.28,-609.55"/>
<polygon fill="#63b8ff" stroke="#63b8ff" points="496.9,-612.78 507.38,-614.36 500.18,-606.59 496.9,-612.78"/>
</a>
</g>
</g>
<!-- Node5 -->
<g id="Node000005" class="node">
<title>Node5</title>
<g id="a_Node000005"><a xlink:href="classGameUI_1_1PortMenu.html#a13c853deed0530fa8e1810ffe6fef9a5" target="_top" xlink:title=" ">
<polygon fill="white" stroke="#666666" points="831,-706.5 661,-706.5 661,-676.5 831,-676.5 831,-706.5"/>
<text text-anchor="start" x="669" y="-694.5" font-family="Helvetica,sans-Serif" font-size="10.00">GameUI::PortMenu::AddSidebar</text>
<text text-anchor="middle" x="746" y="-683.5" font-family="Helvetica,sans-Serif" font-size="10.00">Entry</text>
</a>
</g>
</g>
<!-- Node2&#45;&gt;Node5 -->
<g id="edge8_Node000002_Node000005" class="edge">
<title>Node2&#45;&gt;Node5</title>
<g id="a_edge8_Node000002_Node000005"><a xlink:title=" ">
<path fill="none" stroke="#63b8ff" d="M323.23,-525.9C343.35,-551.63 384.1,-605.39 413,-654.5 431.75,-686.37 417.71,-709.81 449,-729.5 515.21,-771.16 547.95,-742.99 625,-729.5 641.76,-726.57 644.84,-721.82 661,-716.5 668.14,-714.15 675.64,-711.78 683.11,-709.48"/>
<polygon fill="#63b8ff" stroke="#63b8ff" points="684.33,-712.77 692.88,-706.51 682.29,-706.07 684.33,-712.77"/>
</a>
</g>
</g>
<!-- Node6 -->
<g id="Node000006" class="node">
<title>Node6</title>
<g id="a_Node000006"><a xlink:href="classGameUI_1_1PortMenu.html#a35ff589db0705776ae252a50fa1cee7d" target="_top" xlink:title=" ">
<polygon fill="white" stroke="#666666" points="830,-639 662,-639 662,-620 830,-620 830,-639"/>
<text text-anchor="middle" x="746" y="-627" font-family="Helvetica,sans-Serif" font-size="10.00">GameUI::PortMenu::AddWidget</text>
</a>
</g>
</g>
<!-- Node2&#45;&gt;Node6 -->
<g id="edge9_Node000002_Node000006" class="edge">
<title>Node2&#45;&gt;Node6</title>
<g id="a_edge9_Node000002_Node000006"><a xlink:title=" ">
<path fill="none" stroke="#63b8ff" d="M365.97,-525.57C452.91,-549.41 620.5,-595.36 700.45,-617.28"/>
<polygon fill="#63b8ff" stroke="#63b8ff" points="699.64,-620.69 710.21,-619.96 701.49,-613.94 699.64,-620.69"/>
</a>
</g>
</g>
<!-- Node7 -->
<g id="Node000007" class="node">
<title>Node7</title>
<g id="a_Node000007"><a xlink:href="structWidgetInfo.html#a90231c4f7b3b153e6ede3f853748db3a" target="_top" xlink:title=" ">
<polygon fill="white" stroke="#666666" points="795,-744 697,-744 697,-725 795,-725 795,-744"/>
<text text-anchor="middle" x="746" y="-732" font-family="Helvetica,sans-Serif" font-size="10.00">WidgetInfo::CVar</text>
</a>
</g>
</g>
<!-- Node2&#45;&gt;Node7 -->
<g id="edge11_Node000002_Node000007" class="edge">
<title>Node2&#45;&gt;Node7</title>
<g id="a_edge11_Node000002_Node000007"><a xlink:title=" ">
<path fill="none" stroke="#63b8ff" d="M323.78,-525.59C344.69,-550.88 386.56,-604.02 413,-654.5 434.73,-695.97 410.65,-726.64 449,-753.5 530.14,-810.33 656.48,-771.02 714.27,-747.97"/>
<polygon fill="#63b8ff" stroke="#63b8ff" points="715.66,-751.18 723.59,-744.15 713.01,-744.7 715.66,-751.18"/>
</a>
</g>
</g>
<!-- Node8 -->
<g id="Node000008" class="node">
<title>Node8</title>
<g id="a_Node000008"><a xlink:href="structWidgetInfo.html#a8fb193d773f8f491d161798ec34a3569" target="_top" xlink:title=" ">
<polygon fill="white" stroke="#666666" points="802.5,-596 689.5,-596 689.5,-577 802.5,-577 802.5,-596"/>
<text text-anchor="middle" x="746" y="-584" font-family="Helvetica,sans-Serif" font-size="10.00">WidgetInfo::Options</text>
</a>
</g>
</g>
<!-- Node2&#45;&gt;Node8 -->
<g id="edge12_Node000002_Node000008" class="edge">
<title>Node2&#45;&gt;Node8</title>
<g id="a_edge12_Node000002_Node000008"><a xlink:title=" ">
<path fill="none" stroke="#63b8ff" d="M338.73,-495.43C395.07,-466.98 525.97,-411.92 625,-455.5 677.73,-478.71 717.4,-537.79 734.99,-568.04"/>
<polygon fill="#63b8ff" stroke="#63b8ff" points="731.95,-569.78 739.92,-576.77 738.05,-566.34 731.95,-569.78"/>
</a>
</g>
</g>
<!-- Node9 -->
<g id="Node000009" class="node">
<title>Node9</title>
<g id="a_Node000009"><a xlink:href="structWidgetInfo.html#a63678e013cb28e918508e58d8c6f2aec" target="_top" xlink:title=" ">
<polygon fill="white" stroke="#666666" points="596,-407 478,-407 478,-388 596,-388 596,-407"/>
<text text-anchor="middle" x="537" y="-395" font-family="Helvetica,sans-Serif" font-size="10.00">WidgetInfo::Callback</text>
</a>
</g>
</g>
<!-- Node2&#45;&gt;Node9 -->
<g id="edge10_Node000002_Node000009" class="edge">
<title>Node2&#45;&gt;Node9</title>
<g id="a_edge10_Node000002_Node000009"><a xlink:title=" ">
<path fill="none" stroke="#63b8ff" d="M330.47,-495.2C356.24,-475.6 403.73,-441.77 449,-421.5 459.18,-416.94 470.43,-413.06 481.36,-409.84"/>
<polygon fill="#63b8ff" stroke="#63b8ff" points="482.59,-413.13 491.28,-407.06 480.7,-406.39 482.59,-413.13"/>
</a>
</g>
</g>
<!-- Node10 -->
<g id="Node000010" class="node">
<title>Node10</title>
<g id="a_Node000010"><a xlink:href="structWidgetInfo.html#aa5a2f8ac208a9a4bb743df31284b9823" target="_top" xlink:title=" ">
<polygon fill="white" stroke="#666666" points="594,-520 480,-520 480,-501 594,-501 594,-520"/>
<text text-anchor="middle" x="537" y="-508" font-family="Helvetica,sans-Serif" font-size="10.00">WidgetInfo::PreFunc</text>
</a>
</g>
</g>
<!-- Node2&#45;&gt;Node10 -->
<g id="edge13_Node000002_Node000010" class="edge">
<title>Node2&#45;&gt;Node10</title>
<g id="a_edge13_Node000002_Node000010"><a xlink:title=" ">
<path fill="none" stroke="#63b8ff" d="M386.55,-510.5C413.48,-510.5 443.6,-510.5 469.7,-510.5"/>
<polygon fill="#63b8ff" stroke="#63b8ff" points="469.87,-514 479.87,-510.5 469.87,-507 469.87,-514"/>
</a>
</g>
</g>
<!-- Node11 -->
<g id="Node000011" class="node">
<title>Node11</title>
<g id="a_Node000011"><a xlink:href="namespaceUIWidgets.html#a4d98c5aaae7bc50d0349332872902b84" target="_top" xlink:title=" ">
<polygon fill="white" stroke="#666666" points="798.5,-807 693.5,-807 693.5,-788 798.5,-788 798.5,-807"/>
<text text-anchor="middle" x="746" y="-795" font-family="Helvetica,sans-Serif" font-size="10.00">UIWidgets::Tooltip</text>
</a>
</g>
</g>
<!-- Node2&#45;&gt;Node11 -->
<g id="edge14_Node000002_Node000011" class="edge">
<title>Node2&#45;&gt;Node11</title>
<g id="a_edge14_Node000002_Node000011"><a xlink:title=" ">
<path fill="none" stroke="#63b8ff" d="M324.54,-525.79C346.16,-550.94 388.54,-603.37 413,-654.5 438.32,-707.42 403.17,-744.87 449,-781.5 521.35,-839.33 638.28,-823.75 701.34,-809.4"/>
<polygon fill="#63b8ff" stroke="#63b8ff" points="702.43,-812.74 711.35,-807.03 700.81,-805.93 702.43,-812.74"/>
</a>
</g>
</g>
<!-- Node13 -->
<g id="Node000013" class="node">
<title>Node13</title>
<g id="a_Node000013"><a xlink:href="structWidgetInfo.html#aeea77b4ba4faf5a2440b454857c019e5" target="_top" xlink:title=" ">
<polygon fill="white" stroke="#666666" points="609,-370 465,-370 465,-351 609,-351 609,-370"/>
<text text-anchor="middle" x="537" y="-358" font-family="Helvetica,sans-Serif" font-size="10.00">WidgetInfo::WindowName</text>
</a>
</g>
</g>
<!-- Node2&#45;&gt;Node13 -->
<g id="edge16_Node000002_Node000013" class="edge">
<title>Node2&#45;&gt;Node13</title>
<g id="a_edge16_Node000002_Node000013"><a xlink:title=" ">
<path fill="none" stroke="#63b8ff" d="M322.39,-495.17C343.87,-467.42 393.25,-409.04 449,-379.5 453.5,-377.12 458.27,-375.04 463.18,-373.21"/>
<polygon fill="#63b8ff" stroke="#63b8ff" points="464.38,-376.5 472.76,-370.02 462.17,-369.86 464.38,-376.5"/>
</a>
</g>
</g>
<!-- Node4&#45;&gt;Node5 -->
<g id="edge4_Node000004_Node000005" class="edge">
<title>Node4&#45;&gt;Node5</title>
<g id="a_edge4_Node000004_Node000005"><a xlink:title=" ">
<path fill="none" stroke="#63b8ff" d="M588.11,-644.51C617.26,-653.24 654.19,-664.3 684.9,-673.5"/>
<polygon fill="#63b8ff" stroke="#63b8ff" points="684.05,-676.9 694.64,-676.41 686.06,-670.19 684.05,-676.9"/>
</a>
</g>
</g>
<!-- Node4&#45;&gt;Node6 -->
<g id="edge5_Node000004_Node000006" class="edge">
<title>Node4&#45;&gt;Node6</title>
<g id="a_edge5_Node000004_Node000006"><a xlink:title=" ">
<path fill="none" stroke="#63b8ff" d="M618.62,-629.5C629.49,-629.5 640.71,-629.5 651.77,-629.5"/>
<polygon fill="#63b8ff" stroke="#63b8ff" points="651.87,-633 661.87,-629.5 651.87,-626 651.87,-633"/>
</a>
</g>
</g>
<!-- Node4&#45;&gt;Node7 -->
<g id="edge6_Node000004_Node000007" class="edge">
<title>Node4&#45;&gt;Node7</title>
<g id="a_edge6_Node000004_Node000007"><a xlink:title=" ">
<path fill="none" stroke="#63b8ff" d="M558.59,-644.55C590.65,-667.88 649.98,-710.63 661,-715.5 669.15,-719.1 678.05,-722.06 686.92,-724.47"/>
<polygon fill="#63b8ff" stroke="#63b8ff" points="686.32,-727.93 696.87,-726.97 688.03,-721.14 686.32,-727.93"/>
</a>
</g>
</g>
<!-- Node4&#45;&gt;Node8 -->
<g id="edge7_Node000004_Node000008" class="edge">
<title>Node4&#45;&gt;Node8</title>
<g id="a_edge7_Node000004_Node000008"><a xlink:title=" ">
<path fill="none" stroke="#63b8ff" d="M610.4,-614.46C636.21,-609.1 664.86,-603.15 689.08,-598.12"/>
<polygon fill="#63b8ff" stroke="#63b8ff" points="690.08,-601.48 699.16,-596.02 688.66,-594.63 690.08,-601.48"/>
</a>
</g>
</g>
<!-- Node12 -->
<g id="Node000012" class="node">
<title>Node12</title>
<g id="a_Node000012"><a xlink:href="namespaceUIWidgets.html#a01b8f77a826ec1dcc1ee8c9a21c219d6" target="_top" xlink:title=" ">
<polygon fill="white" stroke="#666666" points="1004,-807 867,-807 867,-788 1004,-788 1004,-807"/>
<text text-anchor="middle" x="935.5" y="-795" font-family="Helvetica,sans-Serif" font-size="10.00">UIWidgets::WrappedText</text>
</a>
</g>
</g>
<!-- Node11&#45;&gt;Node12 -->
<g id="edge15_Node000011_Node000012" class="edge">
<title>Node11&#45;&gt;Node12</title>
<g id="a_edge15_Node000011_Node000012"><a xlink:title=" ">
<path fill="none" stroke="#63b8ff" d="M798.73,-797.5C816.64,-797.5 837.13,-797.5 856.66,-797.5"/>
<polygon fill="#63b8ff" stroke="#63b8ff" points="856.77,-801 866.77,-797.5 856.77,-794 856.77,-801"/>
</a>
</g>
</g>
<!-- Node14&#45;&gt;Node3 -->
<g id="edge18_Node000014_Node000003" class="edge">
<title>Node14&#45;&gt;Node3</title>
<g id="a_edge18_Node000014_Node000003"><a xlink:title=" ">
<path fill="none" stroke="#63b8ff" d="M318.06,-662.92C344.95,-626.48 439.88,-498.29 449,-492.5 452.35,-490.37 455.91,-488.48 459.6,-486.79"/>
<polygon fill="#63b8ff" stroke="#63b8ff" points="461.01,-490 468.99,-483.02 458.4,-483.5 461.01,-490"/>
</a>
</g>
</g>
<!-- Node14&#45;&gt;Node5 -->
<g id="edge26_Node000014_Node000005" class="edge">
<title>Node14&#45;&gt;Node5</title>
<g id="a_edge26_Node000014_Node000005"><a xlink:title=" ">
<path fill="none" stroke="#63b8ff" d="M321,-682.08C342.38,-701.8 394.99,-746.44 449,-762.5 523.98,-784.79 554.68,-796.76 625,-762.5 648.34,-751.13 639.54,-731.12 661,-716.5 663.92,-714.51 667,-712.68 670.18,-710.99"/>
<polygon fill="#63b8ff" stroke="#63b8ff" points="671.88,-714.06 679.41,-706.6 668.87,-707.74 671.88,-714.06"/>
</a>
</g>
</g>
<!-- Node14&#45;&gt;Node6 -->
<g id="edge27_Node000014_Node000006" class="edge">
<title>Node14&#45;&gt;Node6</title>
<g id="a_edge27_Node000014_Node000006"><a xlink:title=" ">
<path fill="none" stroke="#63b8ff" d="M413.15,-669.86C474.72,-667.38 554.59,-662.63 625,-653.5 648.01,-650.52 673.22,-645.71 694.58,-641.18"/>
<polygon fill="#63b8ff" stroke="#63b8ff" points="695.37,-644.59 704.41,-639.06 693.89,-637.75 695.37,-644.59"/>
</a>
</g>
</g>
<!-- Node14&#45;&gt;Node7 -->
<g id="edge28_Node000014_Node000007" class="edge">
<title>Node14&#45;&gt;Node7</title>
<g id="a_edge28_Node000014_Node000007"><a xlink:title=" ">
<path fill="none" stroke="#63b8ff" d="M318.38,-682.04C337.13,-705.39 389.35,-765.05 449,-786.5 522.61,-812.97 548.41,-802.38 625,-786.5 659.39,-779.37 696.03,-761.87 719.65,-749.14"/>
<polygon fill="#63b8ff" stroke="#63b8ff" points="721.57,-752.08 728.63,-744.18 718.18,-745.95 721.57,-752.08"/>
</a>
</g>
</g>
<!-- Node14&#45;&gt;Node8 -->
<g id="edge29_Node000014_Node000008" class="edge">
<title>Node14&#45;&gt;Node8</title>
<g id="a_edge29_Node000014_Node000008"><a xlink:title=" ">
<path fill="none" stroke="#63b8ff" d="M325.96,-662.8C350.51,-647.46 401.36,-618.07 449,-605.5 526.19,-585.13 618.44,-582.46 679.21,-583.53"/>
<polygon fill="#63b8ff" stroke="#63b8ff" points="679.36,-587.03 689.43,-583.75 679.51,-580.03 679.36,-587.03"/>
</a>
</g>
</g>
<!-- Node14&#45;&gt;Node10 -->
<g id="edge30_Node000014_Node000010" class="edge">
<title>Node14&#45;&gt;Node10</title>
<g id="a_edge30_Node000014_Node000010"><a xlink:title=" ">
<path fill="none" stroke="#63b8ff" d="M324.3,-662.81C348.88,-644.91 403.11,-605.48 449,-572.5 471.06,-556.65 496.36,-538.64 513.96,-526.13"/>
<polygon fill="#63b8ff" stroke="#63b8ff" points="516.29,-528.78 522.41,-520.13 512.23,-523.07 516.29,-528.78"/>
</a>
</g>
</g>
<!-- Node14&#45;&gt;Node11 -->
<g id="edge31_Node000014_Node000011" class="edge">
<title>Node14&#45;&gt;Node11</title>
<g id="a_edge31_Node000014_Node000011"><a xlink:title=" ">
<path fill="none" stroke="#63b8ff" d="M316.91,-682.25C333.62,-708.77 384.26,-781.96 449,-808.5 533.79,-843.26 643.95,-824.3 703.09,-809.56"/>
<polygon fill="#63b8ff" stroke="#63b8ff" points="704.01,-812.94 712.82,-807.06 702.27,-806.16 704.01,-812.94"/>
</a>
</g>
</g>
<!-- Node15 -->
<g id="Node000015" class="node">
<title>Node15</title>
<g id="a_Node000015"><a xlink:href="classGameUI_1_1PortMenu.html#acf1c08d9ed088b6b33ec91a0e0a48494" target="_top" xlink:title=" ">
<polygon fill="white" stroke="#666666" points="625,-720 449,-720 449,-701 625,-701 625,-720"/>
<text text-anchor="middle" x="537" y="-708" font-family="Helvetica,sans-Serif" font-size="10.00">GameUI::PortMenu::AddRulesets</text>
</a>
</g>
</g>
<!-- Node14&#45;&gt;Node15 -->
<g id="edge19_Node000014_Node000015" class="edge">
<title>Node14&#45;&gt;Node15</title>
<g id="a_edge19_Node000014_Node000015"><a xlink:title=" ">
<path fill="none" stroke="#63b8ff" d="M367.49,-682.04C398.38,-687.26 436.84,-693.75 469.21,-699.22"/>
<polygon fill="#63b8ff" stroke="#63b8ff" points="469.05,-702.74 479.49,-700.96 470.21,-695.84 469.05,-702.74"/>
</a>
</g>
</g>
<!-- Node15&#45;&gt;Node5 -->
<g id="edge20_Node000015_Node000005" class="edge">
<title>Node15&#45;&gt;Node5</title>
<g id="a_edge20_Node000015_Node000005"><a xlink:title=" ">
<path fill="none" stroke="#63b8ff" d="M625.19,-702.5C633.68,-701.72 642.33,-700.92 650.89,-700.14"/>
<polygon fill="#63b8ff" stroke="#63b8ff" points="651.25,-703.62 660.89,-699.22 650.61,-696.65 651.25,-703.62"/>
</a>
</g>
</g>
<!-- Node15&#45;&gt;Node6 -->
<g id="edge21_Node000015_Node000006" class="edge">
<title>Node15&#45;&gt;Node6</title>
<g id="a_edge21_Node000015_Node000006"><a xlink:title=" ">
<path fill="none" stroke="#63b8ff" d="M579.76,-700.94C594.3,-697.1 610.58,-692.22 625,-686.5 641.82,-679.83 644.75,-675.45 661,-667.5 678.14,-659.11 697.54,-650.29 713.38,-643.26"/>
<polygon fill="#63b8ff" stroke="#63b8ff" points="714.99,-646.38 722.72,-639.14 712.16,-639.97 714.99,-646.38"/>
</a>
</g>
</g>
<!-- Node15&#45;&gt;Node7 -->
<g id="edge22_Node000015_Node000007" class="edge">
<title>Node15&#45;&gt;Node7</title>
<g id="a_edge22_Node000015_Node000007"><a xlink:title=" ">
<path fill="none" stroke="#63b8ff" d="M620.11,-720.02C642.42,-722.61 666.11,-725.35 686.79,-727.75"/>
<polygon fill="#63b8ff" stroke="#63b8ff" points="686.66,-731.26 697,-728.93 687.47,-724.31 686.66,-731.26"/>
</a>
</g>
</g>
<!-- Node15&#45;&gt;Node8 -->
<g id="edge23_Node000015_Node000008" class="edge">
<title>Node15&#45;&gt;Node8</title>
<g id="a_edge23_Node000015_Node000008"><a xlink:title=" ">
<path fill="none" stroke="#63b8ff" d="M555.69,-700.9C574.03,-690.51 603.03,-672.81 625,-653.5 643.47,-637.27 640.38,-624.89 661,-611.5 668.69,-606.51 677.4,-602.49 686.24,-599.25"/>
<polygon fill="#63b8ff" stroke="#63b8ff" points="687.47,-602.53 695.84,-596.03 685.24,-595.89 687.47,-602.53"/>
</a>
</g>
</g>
<!-- Node15&#45;&gt;Node11 -->
<g id="edge24_Node000015_Node000011" class="edge">
<title>Node15&#45;&gt;Node11</title>
<g id="a_edge24_Node000015_Node000011"><a xlink:title=" ">
<path fill="none" stroke="#63b8ff" d="M560.94,-720.14C597.96,-735.7 670.94,-766.37 713.03,-784.06"/>
<polygon fill="#63b8ff" stroke="#63b8ff" points="711.69,-787.3 722.27,-787.95 714.41,-780.85 711.69,-787.3"/>
</a>
</g>
</g>
<!-- Node16 -->
<g id="Node000016" class="node">
<title>Node16</title>
<g id="a_Node000016"><a xlink:href="structWidgetInfo.html#a989db9af6c076da6263e8d8b5430f4b8" target="_top" xlink:title=" ">
<polygon fill="white" stroke="#666666" points="814.5,-351 677.5,-351 677.5,-332 814.5,-332 814.5,-351"/>
<text text-anchor="middle" x="746" y="-339" font-family="Helvetica,sans-Serif" font-size="10.00">WidgetInfo::ValuePointer</text>
</a>
</g>
</g>
<!-- Node15&#45;&gt;Node16 -->
<g id="edge25_Node000015_Node000016" class="edge">
<title>Node15&#45;&gt;Node16</title>
<g id="a_edge25_Node000015_Node000016"><a xlink:title=" ">
<path fill="none" stroke="#63b8ff" d="M560.11,-700.87C579.6,-691.37 607.54,-675.14 625,-653.5 634.86,-641.28 713.83,-426.68 738,-360.66"/>
<polygon fill="#63b8ff" stroke="#63b8ff" points="741.36,-361.67 741.5,-351.08 734.78,-359.27 741.36,-361.67"/>
</a>
</g>
</g>
<!-- Node17&#45;&gt;Node3 -->
<g id="edge33_Node000017_Node000003" class="edge">
<title>Node17&#45;&gt;Node3</title>
<g id="a_edge33_Node000017_Node000003"><a xlink:title=" ">
<path fill="none" stroke="#63b8ff" d="M322.12,-313.29C345.17,-333.43 400.07,-380.59 449,-416.5 469.58,-431.6 493.96,-447.41 511.67,-458.53"/>
<polygon fill="#63b8ff" stroke="#63b8ff" points="509.93,-461.57 520.26,-463.89 513.63,-455.63 509.93,-461.57"/>
</a>
</g>
</g>
<!-- Node17&#45;&gt;Node5 -->
<g id="edge34_Node000017_Node000005" class="edge">
<title>Node17&#45;&gt;Node5</title>
<g id="a_edge34_Node000017_Node000005"><a xlink:title=" ">
<path fill="none" stroke="#63b8ff" d="M377.33,-293.98C389.31,-291.64 401.61,-288.83 413,-285.5 429.64,-280.63 432,-273.9 449,-270.5 525.7,-255.16 567.13,-217.88 625,-270.5 687.43,-327.27 613.61,-578.68 661,-648.5 667.48,-658.04 676.74,-665.59 686.77,-671.51"/>
<polygon fill="#63b8ff" stroke="#63b8ff" points="685.26,-674.67 695.73,-676.31 688.57,-668.5 685.26,-674.67"/>
</a>
</g>
</g>
<!-- Node17&#45;&gt;Node6 -->
<g id="edge35_Node000017_Node000006" class="edge">
<title>Node17&#45;&gt;Node6</title>
<g id="a_edge35_Node000017_Node000006"><a xlink:title=" ">
<path fill="none" stroke="#63b8ff" d="M396.24,-293.96C402.13,-291.66 407.79,-288.87 413,-285.5 436.91,-270.03 423.84,-245.83 449,-232.5 518.13,-195.89 567.09,-179.91 625,-232.5 686.65,-288.48 607.71,-541.51 661,-605.5 663.97,-609.07 667.44,-612.13 671.24,-614.75"/>
<polygon fill="#63b8ff" stroke="#63b8ff" points="669.6,-617.85 680.01,-619.81 673.1,-611.79 669.6,-617.85"/>
</a>
</g>
</g>
<!-- Node17&#45;&gt;Node7 -->
<g id="edge37_Node000017_Node000007" class="edge">
<title>Node17&#45;&gt;Node7</title>
<g id="a_edge37_Node000017_Node000007"><a xlink:title=" ">
<path fill="none" stroke="#63b8ff" d="M383.46,-293.97C465.23,-284.99 591.27,-277.12 625,-308.5 691.48,-370.34 601.25,-647.14 661,-715.5 667.79,-723.27 677.02,-728.23 686.89,-731.33"/>
<polygon fill="#63b8ff" stroke="#63b8ff" points="686.34,-734.8 696.89,-733.85 688.05,-728.02 686.34,-734.8"/>
</a>
</g>
</g>
<!-- Node17&#45;&gt;Node8 -->
<g id="edge38_Node000017_Node000008" class="edge">
<title>Node17&#45;&gt;Node8</title>
<g id="a_edge38_Node000017_Node000008"><a xlink:title=" ">
<path fill="none" stroke="#63b8ff" d="M396.9,-295.31C402.67,-292.71 408.12,-289.48 413,-285.5 446.7,-258 413.03,-218.95 449,-194.5 513.69,-150.52 564.11,-145.4 625,-194.5 683.77,-241.89 639.8,-288.05 661,-360.5 683.89,-438.72 720.55,-528.68 736.79,-567.28"/>
<polygon fill="#63b8ff" stroke="#63b8ff" points="733.68,-568.91 740.81,-576.76 740.13,-566.18 733.68,-568.91"/>
</a>
</g>
</g>
<!-- Node17&#45;&gt;Node9 -->
<g id="edge36_Node000017_Node000009" class="edge">
<title>Node17&#45;&gt;Node9</title>
<g id="a_edge36_Node000017_Node000009"><a xlink:title=" ">
<path fill="none" stroke="#63b8ff" d="M325.21,-313.23C349.5,-329.4 401.02,-361.78 449,-379.5 454.98,-381.71 461.3,-383.67 467.69,-385.42"/>
<polygon fill="#63b8ff" stroke="#63b8ff" points="467.2,-388.9 477.76,-387.97 468.93,-382.12 467.2,-388.9"/>
</a>
</g>
</g>
<!-- Node17&#45;&gt;Node10 -->
<g id="edge39_Node000017_Node000010" class="edge">
<title>Node17&#45;&gt;Node10</title>
<g id="a_edge39_Node000017_Node000010"><a xlink:title=" ">
<path fill="none" stroke="#63b8ff" d="M315.02,-313.29C328.58,-344.98 375.9,-445.43 449,-492.5 455.33,-496.58 462.41,-499.75 469.72,-502.22"/>
<polygon fill="#63b8ff" stroke="#63b8ff" points="469.21,-505.72 479.79,-505.17 471.18,-499 469.21,-505.72"/>
</a>
</g>
</g>
<!-- Node17&#45;&gt;Node11 -->
<g id="edge40_Node000017_Node000011" class="edge">
<title>Node17&#45;&gt;Node11</title>
<g id="a_edge40_Node000017_Node000011"><a xlink:title=" ">
<path fill="none" stroke="#63b8ff" d="M396.66,-308.65C484.14,-314.77 609.32,-326.24 625,-342.5 688.65,-408.49 610.16,-677.21 661,-753.5 670.21,-767.32 685.21,-777.08 700,-783.84"/>
<polygon fill="#63b8ff" stroke="#63b8ff" points="699.06,-787.24 709.63,-787.86 701.75,-780.78 699.06,-787.24"/>
</a>
</g>
</g>
<!-- Node17&#45;&gt;Node13 -->
<g id="edge42_Node000017_Node000013" class="edge">
<title>Node17&#45;&gt;Node13</title>
<g id="a_edge42_Node000017_Node000013"><a xlink:title=" ">
<path fill="none" stroke="#63b8ff" d="M348.66,-313.04C387.03,-322.76 446.66,-337.87 488.3,-348.42"/>
<polygon fill="#63b8ff" stroke="#63b8ff" points="487.66,-351.87 498.22,-350.93 489.38,-345.08 487.66,-351.87"/>
</a>
</g>
</g>
<!-- Node17&#45;&gt;Node16 -->
<g id="edge41_Node000017_Node000016" class="edge">
<title>Node17&#45;&gt;Node16</title>
<g id="a_edge41_Node000017_Node000016"><a xlink:title=" ">
<path fill="none" stroke="#63b8ff" d="M396.89,-296.1C402.74,-293.33 408.2,-289.85 413,-285.5 457.09,-245.51 401.59,-192.49 449,-156.5 511.3,-109.2 556.27,-119.16 625,-156.5 691.25,-192.49 726.59,-282.6 739.37,-322.25"/>
<polygon fill="#63b8ff" stroke="#63b8ff" points="736.02,-323.29 742.32,-331.81 742.71,-321.22 736.02,-323.29"/>
</a>
</g>
</g>
<!-- Node20 -->
<g id="Node000020" class="node">
<title>Node20</title>
<g id="a_Node000020"><a xlink:href="classShip_1_1Menu.html#a7329d35f375df068b761b04f4ef390c5" target="_top" xlink:title=" ">
<polygon fill="white" stroke="#666666" points="612.5,-104.5 461.5,-104.5 461.5,-74.5 612.5,-74.5 612.5,-104.5"/>
<text text-anchor="start" x="469.5" y="-92.5" font-family="Helvetica,sans-Serif" font-size="10.00">Ship::Menu::UpdateWindow</text>
<text text-anchor="middle" x="537" y="-81.5" font-family="Helvetica,sans-Serif" font-size="10.00">BackendObjects</text>
</a>
</g>
</g>
<!-- Node19&#45;&gt;Node20 -->
<g id="edge45_Node000019_Node000020" class="edge">
<title>Node19&#45;&gt;Node20</title>
<g id="a_edge45_Node000019_Node000020"><a xlink:title=" ">
<path fill="none" stroke="#63b8ff" d="M346.65,-139.99C379.62,-131.2 429.46,-117.91 469.73,-107.17"/>
<polygon fill="#63b8ff" stroke="#63b8ff" points="470.72,-110.53 479.48,-104.57 468.91,-103.77 470.72,-110.53"/>
</a>
</g>
</g>
<!-- Node22 -->
<g id="Node000022" class="node">
<title>Node22</title>
<g id="a_Node000022"><a xlink:href="namespaceShip.html#aa346db7804e4175df73113e9e2391358" target="_top" xlink:title=" ">
<polygon fill="white" stroke="#666666" points="602,-19 472,-19 472,0 602,0 602,-19"/>
<text text-anchor="middle" x="537" y="-7" font-family="Helvetica,sans-Serif" font-size="10.00">Ship::GetVectorIndexOf</text>
</a>
</g>
</g>
<!-- Node21&#45;&gt;Node22 -->
<g id="edge47_Node000021_Node000022" class="edge">
<title>Node21&#45;&gt;Node22</title>
<g id="a_edge47_Node000021_Node000022"><a xlink:title=" ">
<path fill="none" stroke="#63b8ff" d="M380.65,-35.05C408.47,-30.47 440.39,-25.22 468.04,-20.68"/>
<polygon fill="#63b8ff" stroke="#63b8ff" points="468.72,-24.11 478.02,-19.03 467.58,-17.2 468.72,-24.11"/>
</a>
</g>
</g>
<!-- Node23 -->
<g id="Node000023" class="node">
<title>Node23</title>
<g id="a_Node000023"><a xlink:href="ShipUtils_8cpp.html#a31d87083f0db90738310ec533f7e9d17" target="_top" xlink:title=" ">
<polygon fill="white" stroke="#666666" points="596,-56 478,-56 478,-37 596,-37 596,-56"/>
<text text-anchor="middle" x="537" y="-44" font-family="Helvetica,sans-Serif" font-size="10.00">Ship_IsCStringEmpty</text>
</a>
</g>
</g>
<!-- Node21&#45;&gt;Node23 -->
<g id="edge48_Node000021_Node000023" class="edge">
<title>Node21&#45;&gt;Node23</title>
<g id="a_edge48_Node000021_Node000023"><a xlink:title=" ">
<path fill="none" stroke="#63b8ff" d="M380.65,-46.5C408.23,-46.5 439.85,-46.5 467.33,-46.5"/>
<polygon fill="#63b8ff" stroke="#63b8ff" points="467.65,-50 477.65,-46.5 467.65,-43 467.65,-50"/>
</a>
</g>
</g>
</g>
</svg>

<g id="navigator" transform="translate(0 0)" fill="#404254">
  <rect fill="#f2f5e9" fill-opacity="0.5" stroke="#606060" stroke-width=".5" x="0" y="0" width="60" height="60"/>
  <use id="zoomplus" xlink:href="#zoomPlus" x="17" y="9" onmousedown="handleZoom(evt,'in')"/>
  <use id="zoomminus" xlink:href="#zoomMin" x="42" y="9" onmousedown="handleZoom(evt,'out')"/>
  <use id="reset" xlink:href="#resetDef" x="30" y="36" onmousedown="handleReset()"/>
   <use id="arrowup" xlink:href="#arrowUp" x="0" y="0" onmousedown="handlePan(0,-1)"/>
  <use id="arrowright" xlink:href="#arrowRight" x="0" y="0" onmousedown="handlePan(1,0)"/>
  <use id="arrowdown" xlink:href="#arrowDown" x="0" y="0" onmousedown="handlePan(0,1)"/>
  <use id="arrowleft" xlink:href="#arrowLeft" x="0" y="0" onmousedown="handlePan(-1,0)"/>
</g>
<svg viewBox="0 0 15 15" width="100%" height="30px" preserveAspectRatio="xMaxYMin meet">
 <g id="arrow_out" transform="scale(0.3 0.3)">
  <a xlink:href="classGameUI_1_1PortMenu_a6107d5040943b730f00a96293d335e23_cgraph_org.svg" target="_base">
   <rect id="button" ry="5" rx="5" y="6" x="6" height="38" width="38"
        fill="#f2f5e9" fill-opacity="0.5" stroke="#606060" stroke-width="1.0"/>
   <path id="arrow"
     d="M 11.500037,31.436501 C 11.940474,20.09759 22.043105,11.32322 32.158766,21.979434 L 37.068811,17.246167 C 37.068811,17.246167 37.088388,32 37.088388,32 L 22.160133,31.978069 C 22.160133,31.978069 26.997745,27.140456 26.997745,27.140456 C 18.528582,18.264221 13.291696,25.230495 11.500037,31.436501 z"
     style="fill:#404040;"/>
  </a>
 </g>
</svg>

<style type='text/css'>
<![CDATA[
[data-mouse-over-selected='false'] { opacity: 0.7; }
[data-mouse-over-selected='true']  { opacity: 1.0; }
]]>
</style>
<script type="application/ecmascript"><![CDATA[
document.addEventListener('DOMContentLoaded', (event) => {
  highlightEdges();
  highlightAdjacentNodes();
});
]]></script>
</svg>
