<?xml version="1.0" encoding="UTF-8" standalone="no"?>
<!DOCTYPE svg PUBLIC "-//W3C//DTD SVG 1.1//EN"
 "http://www.w3.org/Graphics/SVG/1.1/DTD/svg11.dtd">
<!-- Generated by graphviz version 2.43.0 (0)
 -->
<!-- Title: Editor::TrackPropertiesWindow::DrawElement Pages: 1 -->
<svg width="733pt" height="365pt"
 viewBox="0.00 0.00 733.00 364.66" xmlns="http://www.w3.org/2000/svg" xmlns:xlink="http://www.w3.org/1999/xlink">
<g id="graph0" class="graph" transform="scale(1 1) rotate(0) translate(4 360.66)">
<title>Editor::TrackPropertiesWindow::DrawElement</title>
<!-- Node1 -->
<g id="Node000001" class="node">
<title>Node1</title>
<g id="a_Node000001"><a xlink:title=" ">
<polygon fill="#999999" stroke="#666666" points="165,-205.66 0,-205.66 0,-175.66 165,-175.66 165,-205.66"/>
<text text-anchor="start" x="8" y="-193.66" font-family="Helvetica,sans-Serif" font-size="10.00">Editor::TrackPropertiesWindow</text>
<text text-anchor="middle" x="82.5" y="-182.66" font-family="Helvetica,sans-Serif" font-size="10.00">::DrawElement</text>
</a>
</g>
</g>
<!-- Node2 -->
<g id="Node000002" class="node">
<title>Node2</title>
<g id="a_Node000002"><a xlink:href="classEditor_1_1TrackPropertiesWindow.html#ad6a61b4a2dda81fb0578029746c66388" target="_top" xlink:title=" ">
<polygon fill="white" stroke="#666666" points="366,-318.66 201,-318.66 201,-288.66 366,-288.66 366,-318.66"/>
<text text-anchor="start" x="209" y="-306.66" font-family="Helvetica,sans-Serif" font-size="10.00">Editor::TrackPropertiesWindow</text>
<text text-anchor="middle" x="283.5" y="-295.66" font-family="Helvetica,sans-Serif" font-size="10.00">::DrawFog</text>
</a>
</g>
</g>
<!-- Node1&#45;&gt;Node2 -->
<g id="edge1_Node000001_Node000002" class="edge">
<title>Node1&#45;&gt;Node2</title>
<g id="a_edge1_Node000001_Node000002"><a xlink:title=" ">
<path fill="none" stroke="#63b8ff" d="M99.34,-205.69C120.79,-225.31 161.02,-259.49 201,-279.66 204.78,-281.57 208.73,-283.35 212.78,-285.01"/>
<polygon fill="#63b8ff" stroke="#63b8ff" points="211.74,-288.36 222.33,-288.66 214.24,-281.82 211.74,-288.36"/>
</a>
</g>
</g>
<!-- Node3 -->
<g id="Node000003" class="node">
<title>Node3</title>
<g id="a_Node000003"><a xlink:href="classEditor_1_1TrackPropertiesWindow.html#a8b63bc062fc5bd60bd103e24a109d02d" target="_top" xlink:title=" ">
<polygon fill="white" stroke="#666666" points="567,-356.66 402,-356.66 402,-326.66 567,-326.66 567,-356.66"/>
<text text-anchor="start" x="410" y="-344.66" font-family="Helvetica,sans-Serif" font-size="10.00">Editor::TrackPropertiesWindow</text>
<text text-anchor="middle" x="484.5" y="-333.66" font-family="Helvetica,sans-Serif" font-size="10.00">::FloatToRGB8</text>
</a>
</g>
</g>
<!-- Node1&#45;&gt;Node3 -->
<g id="edge22_Node000001_Node000003" class="edge">
<title>Node1&#45;&gt;Node3</title>
<g id="a_edge22_Node000001_Node000003"><a xlink:title=" ">
<path fill="none" stroke="#63b8ff" d="M90.99,-205.71C106.68,-235.36 146.13,-300.77 201,-327.66 259.86,-356.51 334.15,-359.08 391.77,-354.93"/>
<polygon fill="#63b8ff" stroke="#63b8ff" points="392.27,-358.4 401.96,-354.12 391.71,-351.43 392.27,-358.4"/>
</a>
</g>
</g>
<!-- Node4 -->
<g id="Node000004" class="node">
<title>Node4</title>
<g id="a_Node000004"><a xlink:href="classEditor_1_1TrackPropertiesWindow.html#a7fd6e90871f5e991d3cca9ec8e757123" target="_top" xlink:title=" ">
<polygon fill="white" stroke="#666666" points="567,-308.66 402,-308.66 402,-278.66 567,-278.66 567,-308.66"/>
<text text-anchor="start" x="410" y="-296.66" font-family="Helvetica,sans-Serif" font-size="10.00">Editor::TrackPropertiesWindow</text>
<text text-anchor="middle" x="484.5" y="-285.66" font-family="Helvetica,sans-Serif" font-size="10.00">::RGB8ToFloat</text>
</a>
</g>
</g>
<!-- Node1&#45;&gt;Node4 -->
<g id="edge25_Node000001_Node000004" class="edge">
<title>Node1&#45;&gt;Node4</title>
<g id="a_edge25_Node000001_Node000004"><a xlink:title=" ">
<path fill="none" stroke="#63b8ff" d="M165.14,-196.55C235.84,-202.72 331.96,-214.01 366,-231.66 386.65,-242.37 382.16,-257.51 402,-269.66 404.77,-271.36 407.66,-272.94 410.64,-274.41"/>
<polygon fill="#63b8ff" stroke="#63b8ff" points="409.23,-277.61 419.78,-278.52 412.09,-271.23 409.23,-277.61"/>
</a>
</g>
</g>
<!-- Node5 -->
<g id="Node000005" class="node">
<title>Node5</title>
<g id="a_Node000005"><a xlink:href="classEditor_1_1TrackPropertiesWindow.html#a9c0a882cebba2e32a9fb41db0018d689" target="_top" xlink:title=" ">
<polygon fill="white" stroke="#666666" points="366,-270.66 201,-270.66 201,-240.66 366,-240.66 366,-270.66"/>
<text text-anchor="start" x="209" y="-258.66" font-family="Helvetica,sans-Serif" font-size="10.00">Editor::TrackPropertiesWindow</text>
<text text-anchor="middle" x="283.5" y="-247.66" font-family="Helvetica,sans-Serif" font-size="10.00">::DrawLight</text>
</a>
</g>
</g>
<!-- Node1&#45;&gt;Node5 -->
<g id="edge4_Node000001_Node000005" class="edge">
<title>Node1&#45;&gt;Node5</title>
<g id="a_edge4_Node000001_Node000005"><a xlink:title=" ">
<path fill="none" stroke="#63b8ff" d="M129.65,-205.74C158.56,-215.18 195.99,-227.41 226.58,-237.4"/>
<polygon fill="#63b8ff" stroke="#63b8ff" points="225.66,-240.78 236.25,-240.56 227.83,-234.12 225.66,-240.78"/>
</a>
</g>
</g>
<!-- Node6 -->
<g id="Node000006" class="node">
<title>Node6</title>
<g id="a_Node000006"><a xlink:href="classEditor_1_1TrackPropertiesWindow.html#a1e9ff69fe776ad12bc72f4c7bac8539a" target="_top" xlink:title=" ">
<polygon fill="white" stroke="#666666" points="366,-184.66 201,-184.66 201,-154.66 366,-154.66 366,-184.66"/>
<text text-anchor="start" x="209" y="-172.66" font-family="Helvetica,sans-Serif" font-size="10.00">Editor::TrackPropertiesWindow</text>
<text text-anchor="middle" x="283.5" y="-161.66" font-family="Helvetica,sans-Serif" font-size="10.00">::DrawMusic</text>
</a>
</g>
</g>
<!-- Node1&#45;&gt;Node6 -->
<g id="edge7_Node000001_Node000006" class="edge">
<title>Node1&#45;&gt;Node6</title>
<g id="a_edge7_Node000001_Node000006"><a xlink:title=" ">
<path fill="none" stroke="#63b8ff" d="M165.02,-182.06C173.5,-181.16 182.17,-180.25 190.76,-179.34"/>
<polygon fill="#63b8ff" stroke="#63b8ff" points="191.21,-182.82 200.79,-178.28 190.48,-175.85 191.21,-182.82"/>
</a>
</g>
</g>
<!-- Node7 -->
<g id="Node000007" class="node">
<title>Node7</title>
<g id="a_Node000007"><a xlink:href="Game_8cpp.html#a0967ca61e9f768c9e278fef7b8030085" target="_top" xlink:title=" ">
<polygon fill="white" stroke="#666666" points="514,-98.16 455,-98.16 455,-79.16 514,-79.16 514,-98.16"/>
<text text-anchor="middle" x="484.5" y="-86.16" font-family="Helvetica,sans-Serif" font-size="10.00">GetTrack</text>
</a>
</g>
</g>
<!-- Node1&#45;&gt;Node7 -->
<g id="edge23_Node000001_Node000007" class="edge">
<title>Node1&#45;&gt;Node7</title>
<g id="a_edge23_Node000001_Node000007"><a xlink:title=" ">
<path fill="none" stroke="#63b8ff" d="M118.2,-175.62C141.32,-166.03 172.57,-153.91 201,-145.66 286.54,-120.84 389.73,-102.98 444.65,-94.4"/>
<polygon fill="#63b8ff" stroke="#63b8ff" points="445.3,-97.84 454.65,-92.85 444.23,-90.92 445.3,-97.84"/>
</a>
</g>
</g>
<!-- Node9 -->
<g id="Node000009" class="node">
<title>Node9</title>
<g id="a_Node000009"><a xlink:href="Game_8cpp.html#ae2fa844b3cb1021ecbc357f8ed2ad8cc" target="_top" xlink:title=" ">
<polygon fill="white" stroke="#666666" points="695,-58.16 633,-58.16 633,-39.16 695,-39.16 695,-58.16"/>
<text text-anchor="middle" x="664" y="-46.16" font-family="Helvetica,sans-Serif" font-size="10.00">GetWorld</text>
</a>
</g>
</g>
<!-- Node1&#45;&gt;Node9 -->
<g id="edge24_Node000001_Node000009" class="edge">
<title>Node1&#45;&gt;Node9</title>
<g id="a_edge24_Node000001_Node000009"><a xlink:title=" ">
<path fill="none" stroke="#63b8ff" d="M91.84,-175.49C108.47,-146.83 148.69,-84.99 201,-55.66 343.49,24.24 405.17,0.66 567,-21.66 587.07,-24.43 608.85,-30.31 626.59,-35.88"/>
<polygon fill="#63b8ff" stroke="#63b8ff" points="625.93,-39.34 636.52,-39.1 628.09,-32.68 625.93,-39.34"/>
</a>
</g>
</g>
<!-- Node16 -->
<g id="Node000016" class="node">
<title>Node16</title>
<g id="a_Node000016"><a xlink:href="classEditor_1_1TrackPropertiesWindow.html#a4b4fbf010ca458a4218eaf5f2b363aa2" target="_top" xlink:title=" ">
<polygon fill="white" stroke="#666666" points="567,-60.66 402,-60.66 402,-30.66 567,-30.66 567,-60.66"/>
<text text-anchor="start" x="410" y="-48.66" font-family="Helvetica,sans-Serif" font-size="10.00">Editor::TrackPropertiesWindow</text>
<text text-anchor="middle" x="484.5" y="-37.66" font-family="Helvetica,sans-Serif" font-size="10.00">::DrawTourCamera</text>
</a>
</g>
</g>
<!-- Node1&#45;&gt;Node16 -->
<g id="edge19_Node000001_Node000016" class="edge">
<title>Node1&#45;&gt;Node16</title>
<g id="a_edge19_Node000001_Node000016"><a xlink:title=" ">
<path fill="none" stroke="#63b8ff" d="M99.62,-175.56C121.07,-156.32 160.96,-123.44 201,-105.66 261.63,-78.75 335.05,-63.63 391.84,-55.3"/>
<polygon fill="#63b8ff" stroke="#63b8ff" points="392.48,-58.74 401.88,-53.87 391.49,-51.81 392.48,-58.74"/>
</a>
</g>
</g>
<!-- Node2&#45;&gt;Node3 -->
<g id="edge2_Node000002_Node000003" class="edge">
<title>Node2&#45;&gt;Node3</title>
<g id="a_edge2_Node000002_Node000003"><a xlink:title=" ">
<path fill="none" stroke="#63b8ff" d="M363.15,-318.68C373.52,-320.66 384.21,-322.7 394.74,-324.71"/>
<polygon fill="#63b8ff" stroke="#63b8ff" points="394.29,-328.19 404.77,-326.63 395.6,-321.31 394.29,-328.19"/>
</a>
</g>
</g>
<!-- Node2&#45;&gt;Node4 -->
<g id="edge3_Node000002_Node000004" class="edge">
<title>Node2&#45;&gt;Node4</title>
<g id="a_edge3_Node000002_Node000004"><a xlink:title=" ">
<path fill="none" stroke="#63b8ff" d="M366.02,-299.57C374.5,-299.14 383.17,-298.7 391.76,-298.27"/>
<polygon fill="#63b8ff" stroke="#63b8ff" points="391.98,-301.77 401.79,-297.77 391.63,-294.77 391.98,-301.77"/>
</a>
</g>
</g>
<!-- Node5&#45;&gt;Node3 -->
<g id="edge5_Node000005_Node000003" class="edge">
<title>Node5&#45;&gt;Node3</title>
<g id="a_edge5_Node000005_Node000003"><a xlink:title=" ">
<path fill="none" stroke="#63b8ff" d="M348.22,-270.81C354.43,-273.34 360.47,-276.27 366,-279.66 385.84,-291.81 382.16,-305.51 402,-317.66 404.77,-319.36 407.66,-320.94 410.64,-322.41"/>
<polygon fill="#63b8ff" stroke="#63b8ff" points="409.23,-325.61 419.78,-326.52 412.09,-319.23 409.23,-325.61"/>
</a>
</g>
</g>
<!-- Node5&#45;&gt;Node4 -->
<g id="edge6_Node000005_Node000004" class="edge">
<title>Node5&#45;&gt;Node4</title>
<g id="a_edge6_Node000005_Node000004"><a xlink:title=" ">
<path fill="none" stroke="#63b8ff" d="M363.15,-270.68C373.52,-272.66 384.21,-274.7 394.74,-276.71"/>
<polygon fill="#63b8ff" stroke="#63b8ff" points="394.29,-280.19 404.77,-278.63 395.6,-273.31 394.29,-280.19"/>
</a>
</g>
</g>
<!-- Node6&#45;&gt;Node7 -->
<g id="edge8_Node000006_Node000007" class="edge">
<title>Node6&#45;&gt;Node7</title>
<g id="a_edge8_Node000006_Node000007"><a xlink:title=" ">
<path fill="none" stroke="#63b8ff" d="M319.99,-154.53C334.5,-147.98 351.3,-139.92 366,-131.66 382.76,-122.24 384.35,-115.3 402,-107.66 415.39,-101.87 430.81,-97.7 444.61,-94.76"/>
<polygon fill="#63b8ff" stroke="#63b8ff" points="445.66,-98.13 454.79,-92.76 444.3,-91.26 445.66,-98.13"/>
</a>
</g>
</g>
<!-- Node8 -->
<g id="Node000008" class="node">
<title>Node8</title>
<g id="a_Node000008"><a xlink:href="classWorld.html#a1a4dacc6aea0b846df998be0afc239f7" target="_top" xlink:title=" ">
<polygon fill="white" stroke="#666666" points="710.5,-98.16 617.5,-98.16 617.5,-79.16 710.5,-79.16 710.5,-98.16"/>
<text text-anchor="middle" x="664" y="-86.16" font-family="Helvetica,sans-Serif" font-size="10.00">World::GetTrack</text>
</a>
</g>
</g>
<!-- Node6&#45;&gt;Node8 -->
<g id="edge11_Node000006_Node000008" class="edge">
<title>Node6&#45;&gt;Node8</title>
<g id="a_edge11_Node000006_Node000008"><a xlink:title=" ">
<path fill="none" stroke="#63b8ff" d="M329.16,-184.73C386.67,-201.49 488.54,-222.1 567,-188.66 606.09,-172 636.92,-130.75 652.3,-106.76"/>
<polygon fill="#63b8ff" stroke="#63b8ff" points="655.3,-108.56 657.58,-98.21 649.35,-104.88 655.3,-108.56"/>
</a>
</g>
</g>
<!-- Node6&#45;&gt;Node9 -->
<g id="edge12_Node000006_Node000009" class="edge">
<title>Node6&#45;&gt;Node9</title>
<g id="a_edge12_Node000006_Node000009"><a xlink:title=" ">
<path fill="none" stroke="#63b8ff" d="M366.14,-175.01C437.92,-178.05 535.7,-177.63 567,-155.66 600.92,-131.86 572.84,-98.07 603,-69.66 608.63,-64.36 615.68,-60.38 622.95,-57.41"/>
<polygon fill="#63b8ff" stroke="#63b8ff" points="624.59,-60.54 632.88,-53.94 622.29,-53.93 624.59,-60.54"/>
</a>
</g>
</g>
<!-- Node10 -->
<g id="Node000010" class="node">
<title>Node10</title>
<g id="a_Node000010"><a xlink:href="classEditor_1_1TrackPropertiesWindow.html#aa28b9e2a87228cc4f182ccc54790cc70" target="_top" xlink:title=" ">
<polygon fill="white" stroke="#666666" points="567,-146.66 402,-146.66 402,-116.66 567,-116.66 567,-146.66"/>
<text text-anchor="start" x="410" y="-134.66" font-family="Helvetica,sans-Serif" font-size="10.00">Editor::TrackPropertiesWindow</text>
<text text-anchor="middle" x="484.5" y="-123.66" font-family="Helvetica,sans-Serif" font-size="10.00">::MusicSeqToString</text>
</a>
</g>
</g>
<!-- Node6&#45;&gt;Node10 -->
<g id="edge13_Node000006_Node000010" class="edge">
<title>Node6&#45;&gt;Node10</title>
<g id="a_edge13_Node000006_Node000010"><a xlink:title=" ">
<path fill="none" stroke="#63b8ff" d="M363.15,-154.64C373.52,-152.66 384.21,-150.62 394.74,-148.61"/>
<polygon fill="#63b8ff" stroke="#63b8ff" points="395.6,-152.01 404.77,-146.7 394.29,-145.13 395.6,-152.01"/>
</a>
</g>
</g>
<!-- Node11 -->
<g id="Node000011" class="node">
<title>Node11</title>
<g id="a_Node000011"><a xlink:href="external_8c.html#a6584dbe6b07d52e25d5ca892468153a5" target="_top" xlink:title=" ">
<polygon fill="white" stroke="#666666" points="529,-260.16 440,-260.16 440,-241.16 529,-241.16 529,-260.16"/>
<text text-anchor="middle" x="484.5" y="-248.16" font-family="Helvetica,sans-Serif" font-size="10.00">play_sequence</text>
</a>
</g>
</g>
<!-- Node6&#45;&gt;Node11 -->
<g id="edge14_Node000006_Node000011" class="edge">
<title>Node6&#45;&gt;Node11</title>
<g id="a_edge14_Node000006_Node000011"><a xlink:title=" ">
<path fill="none" stroke="#63b8ff" d="M334.73,-184.69C345.33,-188.64 356.25,-193.32 366,-198.66 383.77,-208.41 383.96,-217.42 402,-226.66 410.86,-231.2 420.71,-235.02 430.42,-238.18"/>
<polygon fill="#63b8ff" stroke="#63b8ff" points="429.45,-241.54 440.04,-241.11 431.5,-234.84 429.45,-241.54"/>
</a>
</g>
</g>
<!-- Node7&#45;&gt;Node8 -->
<g id="edge9_Node000007_Node000008" class="edge">
<title>Node7&#45;&gt;Node8</title>
<g id="a_edge9_Node000007_Node000008"><a xlink:title=" ">
<path fill="none" stroke="#63b8ff" d="M514.02,-88.66C539.02,-88.66 576.11,-88.66 607.02,-88.66"/>
<polygon fill="#63b8ff" stroke="#63b8ff" points="607.24,-92.16 617.24,-88.66 607.24,-85.16 607.24,-92.16"/>
</a>
</g>
</g>
<!-- Node7&#45;&gt;Node9 -->
<g id="edge10_Node000007_Node000009" class="edge">
<title>Node7&#45;&gt;Node9</title>
<g id="a_edge10_Node000007_Node000009"><a xlink:title=" ">
<path fill="none" stroke="#63b8ff" d="M514.02,-82.24C543.5,-75.59 589.78,-65.16 622.94,-57.69"/>
<polygon fill="#63b8ff" stroke="#63b8ff" points="623.78,-61.09 632.77,-55.47 622.25,-54.26 623.78,-61.09"/>
</a>
</g>
</g>
<!-- Node12 -->
<g id="Node000012" class="node">
<title>Node12</title>
<g id="a_Node000012"><a xlink:href="external_8c.html#ac48b7cbfcaa7737f892877ead85e4ba7" target="_top" xlink:title=" ">
<polygon fill="white" stroke="#666666" points="710,-315.16 618,-315.16 618,-296.16 710,-296.16 710,-315.16"/>
<text text-anchor="middle" x="664" y="-303.16" font-family="Helvetica,sans-Serif" font-size="10.00">func_800C3448</text>
</a>
</g>
</g>
<!-- Node11&#45;&gt;Node12 -->
<g id="edge15_Node000011_Node000012" class="edge">
<title>Node11&#45;&gt;Node12</title>
<g id="a_edge15_Node000011_Node000012"><a xlink:title=" ">
<path fill="none" stroke="#63b8ff" d="M529.19,-258.86C541.59,-261.72 554.97,-265.32 567,-269.66 583.83,-275.73 586.37,-281.07 603,-287.66 607.74,-289.54 612.76,-291.34 617.8,-293.02"/>
<polygon fill="#63b8ff" stroke="#63b8ff" points="616.85,-296.39 627.44,-296.1 618.97,-289.72 616.85,-296.39"/>
</a>
</g>
</g>
<!-- Node13 -->
<g id="Node000013" class="node">
<title>Node13</title>
<g id="a_Node000013"><a xlink:href="HMAS_8cpp.html#a943f713ceca4307e6e1bb48253c6ad6c" target="_top" xlink:title=" ">
<polygon fill="white" stroke="#666666" points="725,-278.16 603,-278.16 603,-259.16 725,-259.16 725,-278.16"/>
<text text-anchor="middle" x="664" y="-266.16" font-family="Helvetica,sans-Serif" font-size="10.00">HMAS_IsIDRegistered</text>
</a>
</g>
</g>
<!-- Node11&#45;&gt;Node13 -->
<g id="edge16_Node000011_Node000013" class="edge">
<title>Node11&#45;&gt;Node13</title>
<g id="a_edge16_Node000011_Node000013"><a xlink:title=" ">
<path fill="none" stroke="#63b8ff" d="M529.38,-255.11C548.52,-257.05 571.44,-259.38 592.85,-261.55"/>
<polygon fill="#63b8ff" stroke="#63b8ff" points="592.59,-265.04 602.89,-262.57 593.3,-258.08 592.59,-265.04"/>
</a>
</g>
</g>
<!-- Node14 -->
<g id="Node000014" class="node">
<title>Node14</title>
<g id="a_Node000014"><a xlink:href="HMAS_8cpp.html#a704c0426d4f7027c277b28346062dff3" target="_top" xlink:title=" ">
<polygon fill="white" stroke="#666666" points="700,-241.16 628,-241.16 628,-222.16 700,-222.16 700,-241.16"/>
<text text-anchor="middle" x="664" y="-229.16" font-family="Helvetica,sans-Serif" font-size="10.00">HMAS_Play</text>
</a>
</g>
</g>
<!-- Node11&#45;&gt;Node14 -->
<g id="edge17_Node000011_Node000014" class="edge">
<title>Node11&#45;&gt;Node14</title>
<g id="a_edge17_Node000011_Node000014"><a xlink:title=" ">
<path fill="none" stroke="#63b8ff" d="M529.38,-245.97C556.32,-243.08 590.76,-239.4 617.92,-236.49"/>
<polygon fill="#63b8ff" stroke="#63b8ff" points="618.37,-239.96 627.94,-235.41 617.63,-233 618.37,-239.96"/>
</a>
</g>
</g>
<!-- Node15 -->
<g id="Node000015" class="node">
<title>Node15</title>
<g id="a_Node000015"><a xlink:href="HMAS_8cpp.html#aa651a0e94efa3ddb0a63e1b4233c0aab" target="_top" xlink:title=" ">
<polygon fill="white" stroke="#666666" points="700.5,-204.16 627.5,-204.16 627.5,-185.16 700.5,-185.16 700.5,-204.16"/>
<text text-anchor="middle" x="664" y="-192.16" font-family="Helvetica,sans-Serif" font-size="10.00">HMAS_Stop</text>
</a>
</g>
</g>
<!-- Node11&#45;&gt;Node15 -->
<g id="edge18_Node000011_Node000015" class="edge">
<title>Node11&#45;&gt;Node15</title>
<g id="a_edge18_Node000011_Node000015"><a xlink:title=" ">
<path fill="none" stroke="#63b8ff" d="M520.2,-241.14C534.75,-236.97 551.78,-231.85 567,-226.66 583.25,-221.12 586.77,-218.24 603,-212.66 608.34,-210.83 613.97,-209 619.57,-207.25"/>
<polygon fill="#63b8ff" stroke="#63b8ff" points="620.99,-210.47 629.53,-204.19 618.94,-203.78 620.99,-210.47"/>
</a>
</g>
</g>
<!-- Node16&#45;&gt;Node8 -->
<g id="edge20_Node000016_Node000008" class="edge">
<title>Node16&#45;&gt;Node8</title>
<g id="a_edge20_Node000016_Node000008"><a xlink:title=" ">
<path fill="none" stroke="#63b8ff" d="M547.58,-60.7C569.32,-65.97 593.41,-71.8 613.93,-76.77"/>
<polygon fill="#63b8ff" stroke="#63b8ff" points="613.15,-80.19 623.69,-79.14 614.8,-73.38 613.15,-80.19"/>
</a>
</g>
</g>
<!-- Node16&#45;&gt;Node9 -->
<g id="edge21_Node000016_Node000009" class="edge">
<title>Node16&#45;&gt;Node9</title>
<g id="a_edge21_Node000016_Node000009"><a xlink:title=" ">
<path fill="none" stroke="#63b8ff" d="M567.24,-47.04C586.34,-47.37 605.89,-47.7 622.29,-47.97"/>
<polygon fill="#63b8ff" stroke="#63b8ff" points="622.53,-51.48 632.59,-48.15 622.65,-44.48 622.53,-51.48"/>
</a>
</g>
</g>
</g>
</svg>
