<?xml version="1.0" encoding="UTF-8" standalone="no"?>
<!DOCTYPE svg PUBLIC "-//W3C//DTD SVG 1.1//EN"
 "http://www.w3.org/Graphics/SVG/1.1/DTD/svg11.dtd">
<!-- Generated by graphviz version 2.43.0 (0)
 -->
<!-- Title: BansheeBoardwalk::Load Pages: 1 -->
<svg width="1096pt" height="372pt"
 viewBox="0.00 0.00 1096.00 371.50" xmlns="http://www.w3.org/2000/svg" xmlns:xlink="http://www.w3.org/1999/xlink">
<g id="graph0" class="graph" transform="scale(1 1) rotate(0) translate(4 367.5)">
<title>BansheeBoardwalk::Load</title>
<!-- Node1 -->
<g id="Node000001" class="node">
<title>Node1</title>
<g id="a_Node000001"><a xlink:title=" ">
<polygon fill="#999999" stroke="#666666" points="140,-149.5 0,-149.5 0,-130.5 140,-130.5 140,-149.5"/>
<text text-anchor="middle" x="70" y="-137.5" font-family="Helvetica,sans-Serif" font-size="10.00">BansheeBoardwalk::Load</text>
</a>
</g>
</g>
<!-- Node2 -->
<g id="Node000002" class="node">
<title>Node2</title>
<g id="a_Node000002"><a xlink:href="collision_8c.html#a7fe1ddc7a4c312ab8f9519229963450b" target="_top" xlink:title=" ">
<polygon fill="white" stroke="#666666" points="527.5,-307.5 387.5,-307.5 387.5,-288.5 527.5,-288.5 527.5,-307.5"/>
<text text-anchor="middle" x="457.5" y="-295.5" font-family="Helvetica,sans-Serif" font-size="10.00">find_vtx_and_set_colours</text>
</a>
</g>
</g>
<!-- Node1&#45;&gt;Node2 -->
<g id="edge1_Node000001_Node000002" class="edge">
<title>Node1&#45;&gt;Node2</title>
<g id="a_edge1_Node000001_Node000002"><a xlink:title=" ">
<path fill="none" stroke="#63b8ff" d="M81.86,-149.66C100.09,-165.42 138.55,-196.73 176,-215 248.27,-250.26 338.45,-273.66 396.73,-286.37"/>
<polygon fill="#63b8ff" stroke="#63b8ff" points="396.01,-289.8 406.52,-288.47 397.48,-282.95 396.01,-289.8"/>
</a>
</g>
</g>
<!-- Node7 -->
<g id="Node000007" class="node">
<title>Node7</title>
<g id="a_Node000007"><a xlink:href="render__courses_8c.html#ab02cdf6684f984a12e7388fe973bc89a" target="_top" xlink:title=" ">
<polygon fill="white" stroke="#666666" points="304.5,-94.5 212.5,-94.5 212.5,-75.5 304.5,-75.5 304.5,-94.5"/>
<text text-anchor="middle" x="258.5" y="-82.5" font-family="Helvetica,sans-Serif" font-size="10.00">func_80295C6C</text>
</a>
</g>
</g>
<!-- Node1&#45;&gt;Node7 -->
<g id="edge8_Node000001_Node000007" class="edge">
<title>Node1&#45;&gt;Node7</title>
<g id="a_edge8_Node000001_Node000007"><a xlink:title=" ">
<path fill="none" stroke="#63b8ff" d="M96.66,-130.39C117.78,-122.67 148.59,-111.87 176,-104 184.72,-101.5 194.03,-99.08 203.13,-96.87"/>
<polygon fill="#63b8ff" stroke="#63b8ff" points="203.96,-100.27 212.88,-94.54 202.34,-93.46 203.96,-100.27"/>
</a>
</g>
</g>
<!-- Node11 -->
<g id="Node000011" class="node">
<title>Node11</title>
<g id="a_Node000011"><a xlink:href="Track_8cpp.html#a0406803b8f06bfcaf7e1bd3ad2ab2e12" target="_top" xlink:title=" ">
<polygon fill="white" stroke="#666666" points="341,-131.5 176,-131.5 176,-112.5 341,-112.5 341,-131.5"/>
<text text-anchor="middle" x="258.5" y="-119.5" font-family="Helvetica,sans-Serif" font-size="10.00">InvertTriangleWindingByName</text>
</a>
</g>
</g>
<!-- Node1&#45;&gt;Node11 -->
<g id="edge12_Node000001_Node000011" class="edge">
<title>Node1&#45;&gt;Node11</title>
<g id="a_edge12_Node000001_Node000011"><a xlink:title=" ">
<path fill="none" stroke="#63b8ff" d="M140.18,-133.32C148.53,-132.52 157.15,-131.69 165.75,-130.86"/>
<polygon fill="#63b8ff" stroke="#63b8ff" points="166.21,-134.33 175.83,-129.88 165.54,-127.36 166.21,-134.33"/>
</a>
</g>
</g>
<!-- Node15 -->
<g id="Node000015" class="node">
<title>Node15</title>
<g id="a_Node000015"><a xlink:href="render__courses_8c.html#ac97a07076b3e301db5da93c0fe8f0500" target="_top" xlink:title=" ">
<polygon fill="white" stroke="#666666" points="325.5,-205.5 191.5,-205.5 191.5,-186.5 325.5,-186.5 325.5,-205.5"/>
<text text-anchor="middle" x="258.5" y="-193.5" font-family="Helvetica,sans-Serif" font-size="10.00">parse_track_displaylists</text>
</a>
</g>
</g>
<!-- Node1&#45;&gt;Node15 -->
<g id="edge18_Node000001_Node000015" class="edge">
<title>Node1&#45;&gt;Node15</title>
<g id="a_edge18_Node000001_Node000015"><a xlink:title=" ">
<path fill="none" stroke="#63b8ff" d="M103.06,-149.63C134.34,-159.02 182.07,-173.35 216.18,-183.59"/>
<polygon fill="#63b8ff" stroke="#63b8ff" points="215.27,-186.98 225.86,-186.5 217.29,-180.27 215.27,-186.98"/>
</a>
</g>
</g>
<!-- Node2&#45;&gt;Node2 -->
<g id="edge2_Node000002_Node000002" class="edge">
<title>Node2&#45;&gt;Node2</title>
<g id="a_edge2_Node000002_Node000002"><a xlink:title=" ">
<path fill="none" stroke="#63b8ff" d="M428.22,-307.58C413.97,-316.23 423.73,-325.5 457.5,-325.5 480.72,-325.5 492.59,-321.12 493.11,-315.57"/>
<polygon fill="#63b8ff" stroke="#63b8ff" points="495.73,-313.25 486.78,-307.58 490.25,-317.6 495.73,-313.25"/>
</a>
</g>
</g>
<!-- Node3 -->
<g id="Node000003" class="node">
<title>Node3</title>
<g id="a_Node000003"><a xlink:href="Engine_8cpp.html#a223c8bc63f228dc11177515e38eff2db" target="_top" xlink:title=" ">
<polygon fill="white" stroke="#666666" points="723,-289.5 574,-289.5 574,-270.5 723,-270.5 723,-289.5"/>
<text text-anchor="middle" x="648.5" y="-277.5" font-family="Helvetica,sans-Serif" font-size="10.00">GameEngine_OTRSigCheck</text>
</a>
</g>
</g>
<!-- Node2&#45;&gt;Node3 -->
<g id="edge3_Node000002_Node000003" class="edge">
<title>Node2&#45;&gt;Node3</title>
<g id="a_edge3_Node000002_Node000003"><a xlink:title=" ">
<path fill="none" stroke="#63b8ff" d="M527.54,-291.43C539.32,-290.3 551.67,-289.13 563.78,-287.97"/>
<polygon fill="#63b8ff" stroke="#63b8ff" points="564.26,-291.44 573.88,-287.01 563.59,-284.48 564.26,-291.44"/>
</a>
</g>
</g>
<!-- Node5 -->
<g id="Node000005" class="node">
<title>Node5</title>
<g id="a_Node000005"><a xlink:href="collision_8c.html#a2419eefe1cdba5b280babacc4a15fc6c" target="_top" xlink:title=" ">
<polygon fill="white" stroke="#666666" points="684,-326.5 613,-326.5 613,-307.5 684,-307.5 684,-326.5"/>
<text text-anchor="middle" x="648.5" y="-314.5" font-family="Helvetica,sans-Serif" font-size="10.00">is_cull_box</text>
</a>
</g>
</g>
<!-- Node2&#45;&gt;Node5 -->
<g id="edge5_Node000002_Node000005" class="edge">
<title>Node2&#45;&gt;Node5</title>
<g id="a_edge5_Node000002_Node000005"><a xlink:title=" ">
<path fill="none" stroke="#63b8ff" d="M527.54,-304.94C552.57,-307.46 580.18,-310.23 602.6,-312.49"/>
<polygon fill="#63b8ff" stroke="#63b8ff" points="602.52,-316 612.82,-313.51 603.22,-309.03 602.52,-316"/>
</a>
</g>
</g>
<!-- Node6 -->
<g id="Node000006" class="node">
<title>Node6</title>
<g id="a_Node000006"><a xlink:href="collision_8c.html#ae34213badc2dd781cab43c88b1e3fdce" target="_top" xlink:title=" ">
<polygon fill="white" stroke="#666666" points="703,-363.5 594,-363.5 594,-344.5 703,-344.5 703,-363.5"/>
<text text-anchor="middle" x="648.5" y="-351.5" font-family="Helvetica,sans-Serif" font-size="10.00">set_vertex_colours</text>
</a>
</g>
</g>
<!-- Node2&#45;&gt;Node6 -->
<g id="edge7_Node000002_Node000006" class="edge">
<title>Node2&#45;&gt;Node6</title>
<g id="a_edge7_Node000002_Node000006"><a xlink:title=" ">
<path fill="none" stroke="#63b8ff" d="M485.39,-307.5C508.68,-315.58 543.36,-327.22 574,-336 581.2,-338.06 588.84,-340.1 596.36,-342.02"/>
<polygon fill="#63b8ff" stroke="#63b8ff" points="595.59,-345.43 606.15,-344.47 597.29,-338.64 595.59,-345.43"/>
</a>
</g>
</g>
<!-- Node4 -->
<g id="Node000004" class="node">
<title>Node4</title>
<g id="a_Node000004"><a xlink:href="string_8c.html#a008e171a518fe0e0352f31b245e03875" target="_top" xlink:title=" ">
<polygon fill="white" stroke="#666666" points="842.5,-307.5 798.5,-307.5 798.5,-288.5 842.5,-288.5 842.5,-307.5"/>
<text text-anchor="middle" x="820.5" y="-295.5" font-family="Helvetica,sans-Serif" font-size="10.00">strlen</text>
</a>
</g>
</g>
<!-- Node3&#45;&gt;Node4 -->
<g id="edge4_Node000003_Node000004" class="edge">
<title>Node3&#45;&gt;Node4</title>
<g id="a_edge4_Node000003_Node000004"><a xlink:title=" ">
<path fill="none" stroke="#63b8ff" d="M723.08,-287.79C745.88,-290.2 769.8,-292.74 788.11,-294.68"/>
<polygon fill="#63b8ff" stroke="#63b8ff" points="787.88,-298.17 798.2,-295.74 788.62,-291.21 787.88,-298.17"/>
</a>
</g>
</g>
<!-- Node5&#45;&gt;Node4 -->
<g id="edge6_Node000005_Node000004" class="edge">
<title>Node5&#45;&gt;Node4</title>
<g id="a_edge6_Node000005_Node000004"><a xlink:title=" ">
<path fill="none" stroke="#63b8ff" d="M684.31,-313.11C714.77,-309.71 758.61,-304.81 788.03,-301.52"/>
<polygon fill="#63b8ff" stroke="#63b8ff" points="788.61,-304.97 798.16,-300.38 787.84,-298.02 788.61,-304.97"/>
</a>
</g>
</g>
<!-- Node8 -->
<g id="Node000008" class="node">
<title>Node8</title>
<g id="a_Node000008"><a xlink:href="collision_8c.html#aa1116ededb9ebc0ee976259f02fe2a4e" target="_top" xlink:title=" ">
<polygon fill="white" stroke="#666666" points="522.5,-55.5 392.5,-55.5 392.5,-36.5 522.5,-36.5 522.5,-55.5"/>
<text text-anchor="middle" x="457.5" y="-43.5" font-family="Helvetica,sans-Serif" font-size="10.00">generate_collision_grid</text>
</a>
</g>
</g>
<!-- Node7&#45;&gt;Node8 -->
<g id="edge9_Node000007_Node000008" class="edge">
<title>Node7&#45;&gt;Node8</title>
<g id="a_edge9_Node000007_Node000008"><a xlink:title=" ">
<path fill="none" stroke="#63b8ff" d="M304.7,-76.05C332.56,-70.54 368.56,-63.41 398.51,-57.48"/>
<polygon fill="#63b8ff" stroke="#63b8ff" points="399.29,-60.89 408.42,-55.52 397.93,-54.03 399.29,-60.89"/>
</a>
</g>
</g>
<!-- Node9 -->
<g id="Node000009" class="node">
<title>Node9</title>
<g id="a_Node000009"><a xlink:href="collision_8c.html#a4e4ec74302aec60828a8d271390f7631" target="_top" xlink:title=" ">
<polygon fill="white" stroke="#666666" points="714,-30 583,-30 583,0 714,0 714,-30"/>
<text text-anchor="start" x="591" y="-18" font-family="Helvetica,sans-Serif" font-size="10.00">is_triangle_intersecting</text>
<text text-anchor="middle" x="648.5" y="-7" font-family="Helvetica,sans-Serif" font-size="10.00">_bounding_box</text>
</a>
</g>
</g>
<!-- Node8&#45;&gt;Node9 -->
<g id="edge10_Node000008_Node000009" class="edge">
<title>Node8&#45;&gt;Node9</title>
<g id="a_edge10_Node000008_Node000009"><a xlink:title=" ">
<path fill="none" stroke="#63b8ff" d="M516.49,-36.49C534.24,-33.58 554.03,-30.33 572.73,-27.26"/>
<polygon fill="#63b8ff" stroke="#63b8ff" points="573.39,-30.7 582.69,-25.63 572.26,-23.79 573.39,-30.7"/>
</a>
</g>
</g>
<!-- Node10 -->
<g id="Node000010" class="node">
<title>Node10</title>
<g id="a_Node000010"><a xlink:href="collision_8c.html#a7ef4f800cb44ad39ca233d0c76ce039a" target="_top" xlink:title=" ">
<polygon fill="white" stroke="#666666" points="876,-30 765,-30 765,0 876,0 876,-30"/>
<text text-anchor="start" x="773" y="-18" font-family="Helvetica,sans-Serif" font-size="10.00">is_line_intersecting</text>
<text text-anchor="middle" x="820.5" y="-7" font-family="Helvetica,sans-Serif" font-size="10.00">_rectangle</text>
</a>
</g>
</g>
<!-- Node9&#45;&gt;Node10 -->
<g id="edge11_Node000009_Node000010" class="edge">
<title>Node9&#45;&gt;Node10</title>
<g id="a_edge11_Node000009_Node000010"><a xlink:title=" ">
<path fill="none" stroke="#63b8ff" d="M714.25,-15C727.56,-15 741.58,-15 754.88,-15"/>
<polygon fill="#63b8ff" stroke="#63b8ff" points="754.89,-18.5 764.89,-15 754.89,-11.5 754.89,-18.5"/>
</a>
</g>
</g>
<!-- Node12 -->
<g id="Node000012" class="node">
<title>Node12</title>
<g id="a_Node000012"><a xlink:href="Track_8cpp.html#ad29b2b4706dd79c5d6239851b61530d4" target="_top" xlink:title=" ">
<polygon fill="white" stroke="#666666" points="538,-113.5 377,-113.5 377,-94.5 538,-94.5 538,-113.5"/>
<text text-anchor="middle" x="457.5" y="-101.5" font-family="Helvetica,sans-Serif" font-size="10.00">InvertTriangleWindingInternal</text>
</a>
</g>
</g>
<!-- Node11&#45;&gt;Node12 -->
<g id="edge13_Node000011_Node000012" class="edge">
<title>Node11&#45;&gt;Node12</title>
<g id="a_edge13_Node000011_Node000012"><a xlink:title=" ">
<path fill="none" stroke="#63b8ff" d="M341.05,-114.55C349.57,-113.77 358.27,-112.98 366.87,-112.19"/>
<polygon fill="#63b8ff" stroke="#63b8ff" points="367.27,-115.67 376.91,-111.27 366.64,-108.7 367.27,-115.67"/>
</a>
</g>
</g>
<!-- Node12&#45;&gt;Node3 -->
<g id="edge14_Node000012_Node000003" class="edge">
<title>Node12&#45;&gt;Node3</title>
<g id="a_edge14_Node000012_Node000003"><a xlink:title=" ">
<path fill="none" stroke="#63b8ff" d="M469.65,-113.71C486.14,-128.5 517.32,-158.11 538,-188 558.81,-218.08 545.54,-239.03 574,-262 575.57,-263.27 577.22,-264.45 578.93,-265.55"/>
<polygon fill="#63b8ff" stroke="#63b8ff" points="577.46,-268.73 587.92,-270.4 580.78,-262.57 577.46,-268.73"/>
</a>
</g>
</g>
<!-- Node12&#45;&gt;Node12 -->
<g id="edge15_Node000012_Node000012" class="edge">
<title>Node12&#45;&gt;Node12</title>
<g id="a_edge15_Node000012_Node000012"><a xlink:title=" ">
<path fill="none" stroke="#63b8ff" d="M428.22,-113.58C413.97,-122.23 423.73,-131.5 457.5,-131.5 480.72,-131.5 492.59,-127.12 493.11,-121.57"/>
<polygon fill="#63b8ff" stroke="#63b8ff" points="495.73,-119.25 486.78,-113.58 490.25,-123.6 495.73,-119.25"/>
</a>
</g>
</g>
<!-- Node13 -->
<g id="Node000013" class="node">
<title>Node13</title>
<g id="a_Node000013"><a xlink:href="Track_8cpp.html#ab01e041d195d4b8a1029c8b9532b0600" target="_top" xlink:title=" ">
<polygon fill="white" stroke="#666666" points="689.5,-104.5 607.5,-104.5 607.5,-85.5 689.5,-85.5 689.5,-104.5"/>
<text text-anchor="middle" x="648.5" y="-92.5" font-family="Helvetica,sans-Serif" font-size="10.00">StripOtrPrefix</text>
</a>
</g>
</g>
<!-- Node12&#45;&gt;Node13 -->
<g id="edge16_Node000012_Node000013" class="edge">
<title>Node12&#45;&gt;Node13</title>
<g id="a_edge16_Node000012_Node000013"><a xlink:title=" ">
<path fill="none" stroke="#63b8ff" d="M538.11,-100.21C558.19,-99.25 579.19,-98.25 597.36,-97.39"/>
<polygon fill="#63b8ff" stroke="#63b8ff" points="597.59,-100.88 607.42,-96.91 597.26,-93.89 597.59,-100.88"/>
</a>
</g>
</g>
<!-- Node14 -->
<g id="Node000014" class="node">
<title>Node14</title>
<g id="a_Node000014"><a xlink:href="Track_8cpp.html#a5bae290668f6b484d13626d67e16cc3f" target="_top" xlink:title=" ">
<polygon fill="white" stroke="#666666" points="708.5,-67.5 588.5,-67.5 588.5,-48.5 708.5,-48.5 708.5,-67.5"/>
<text text-anchor="middle" x="648.5" y="-55.5" font-family="Helvetica,sans-Serif" font-size="10.00">SwapTriangleVertices</text>
</a>
</g>
</g>
<!-- Node12&#45;&gt;Node14 -->
<g id="edge17_Node000012_Node000014" class="edge">
<title>Node12&#45;&gt;Node14</title>
<g id="a_edge17_Node000012_Node000014"><a xlink:title=" ">
<path fill="none" stroke="#63b8ff" d="M497.66,-94.47C526.93,-87.35 567.14,-77.56 598.53,-69.92"/>
<polygon fill="#63b8ff" stroke="#63b8ff" points="599.5,-73.28 608.39,-67.52 597.85,-66.48 599.5,-73.28"/>
</a>
</g>
</g>
<!-- Node16 -->
<g id="Node000016" class="node">
<title>Node16</title>
<g id="a_Node000016"><a xlink:href="collision_8c.html#a3081198f925be148fc9f05897a3bddd3" target="_top" xlink:title=" ">
<polygon fill="white" stroke="#666666" points="526.5,-215.5 388.5,-215.5 388.5,-196.5 526.5,-196.5 526.5,-215.5"/>
<text text-anchor="middle" x="457.5" y="-203.5" font-family="Helvetica,sans-Serif" font-size="10.00">generate_collision_mesh</text>
</a>
</g>
</g>
<!-- Node15&#45;&gt;Node16 -->
<g id="edge19_Node000015_Node000016" class="edge">
<title>Node15&#45;&gt;Node16</title>
<g id="a_edge19_Node000015_Node000016"><a xlink:title=" ">
<path fill="none" stroke="#63b8ff" d="M325.65,-199.36C342.47,-200.21 360.7,-201.14 378.07,-202.02"/>
<polygon fill="#63b8ff" stroke="#63b8ff" points="378.01,-205.52 388.17,-202.53 378.36,-198.53 378.01,-205.52"/>
</a>
</g>
</g>
<!-- Node16&#45;&gt;Node3 -->
<g id="edge20_Node000016_Node000003" class="edge">
<title>Node16&#45;&gt;Node3</title>
<g id="a_edge20_Node000016_Node000003"><a xlink:title=" ">
<path fill="none" stroke="#63b8ff" d="M475.23,-215.51C497.27,-227.71 537.52,-248.86 574,-262 579.84,-264.1 586.03,-266.04 592.24,-267.81"/>
<polygon fill="#63b8ff" stroke="#63b8ff" points="591.4,-271.21 601.96,-270.44 593.22,-264.45 591.4,-271.21"/>
</a>
</g>
</g>
<!-- Node16&#45;&gt;Node5 -->
<g id="edge22_Node000016_Node000005" class="edge">
<title>Node16&#45;&gt;Node5</title>
<g id="a_edge22_Node000016_Node000005"><a xlink:title=" ">
<path fill="none" stroke="#63b8ff" d="M467.38,-215.54C485.54,-234.44 529,-276.76 574,-299 582.92,-303.41 592.99,-306.78 602.75,-309.35"/>
<polygon fill="#63b8ff" stroke="#63b8ff" points="602.21,-312.82 612.75,-311.74 603.84,-306.01 602.21,-312.82"/>
</a>
</g>
</g>
<!-- Node16&#45;&gt;Node16 -->
<g id="edge21_Node000016_Node000016" class="edge">
<title>Node16&#45;&gt;Node16</title>
<g id="a_edge21_Node000016_Node000016"><a xlink:title=" ">
<path fill="none" stroke="#63b8ff" d="M428.22,-215.58C413.97,-224.23 423.73,-233.5 457.5,-233.5 480.72,-233.5 492.59,-229.12 493.11,-223.57"/>
<polygon fill="#63b8ff" stroke="#63b8ff" points="495.73,-221.25 486.78,-215.58 490.25,-225.6 495.73,-221.25"/>
</a>
</g>
</g>
<!-- Node17 -->
<g id="Node000017" class="node">
<title>Node17</title>
<g id="a_Node000017"><a xlink:href="collision_8c.html#a30eb531df39ba558cd733e1d1cd6aaa0" target="_top" xlink:title=" ">
<polygon fill="white" stroke="#666666" points="691.5,-252.5 605.5,-252.5 605.5,-233.5 691.5,-233.5 691.5,-252.5"/>
<text text-anchor="middle" x="648.5" y="-240.5" font-family="Helvetica,sans-Serif" font-size="10.00">set_vtx_buffer</text>
</a>
</g>
</g>
<!-- Node16&#45;&gt;Node17 -->
<g id="edge23_Node000016_Node000017" class="edge">
<title>Node16&#45;&gt;Node17</title>
<g id="a_edge23_Node000016_Node000017"><a xlink:title=" ">
<path fill="none" stroke="#63b8ff" d="M507.17,-215.53C534.25,-220.83 567.96,-227.43 595.55,-232.83"/>
<polygon fill="#63b8ff" stroke="#63b8ff" points="594.93,-236.27 605.41,-234.76 596.27,-229.4 594.93,-236.27"/>
</a>
</g>
</g>
<!-- Node18 -->
<g id="Node000018" class="node">
<title>Node18</title>
<g id="a_Node000018"><a xlink:href="collision_8c.html#a593833ca3f04f0c7d8f5dcabe6430115" target="_top" xlink:title=" ">
<polygon fill="white" stroke="#666666" points="719,-215.5 578,-215.5 578,-196.5 719,-196.5 719,-215.5"/>
<text text-anchor="middle" x="648.5" y="-203.5" font-family="Helvetica,sans-Serif" font-size="10.00">set_vtx_from_quadrangle</text>
</a>
</g>
</g>
<!-- Node16&#45;&gt;Node18 -->
<g id="edge24_Node000016_Node000018" class="edge">
<title>Node16&#45;&gt;Node18</title>
<g id="a_edge24_Node000016_Node000018"><a xlink:title=" ">
<path fill="none" stroke="#63b8ff" d="M526.73,-206C539.96,-206 553.94,-206 567.5,-206"/>
<polygon fill="#63b8ff" stroke="#63b8ff" points="567.78,-209.5 577.78,-206 567.78,-202.5 567.78,-209.5"/>
</a>
</g>
</g>
<!-- Node22 -->
<g id="Node000022" class="node">
<title>Node22</title>
<g id="a_Node000022"><a xlink:href="collision_8c.html#ac558a6e1314f154bbf53aaf15396ea1e" target="_top" xlink:title=" ">
<polygon fill="white" stroke="#666666" points="700,-178.5 597,-178.5 597,-159.5 700,-159.5 700,-178.5"/>
<text text-anchor="middle" x="648.5" y="-166.5" font-family="Helvetica,sans-Serif" font-size="10.00">set_vtx_from_tri2</text>
</a>
</g>
</g>
<!-- Node16&#45;&gt;Node22 -->
<g id="edge28_Node000016_Node000022" class="edge">
<title>Node16&#45;&gt;Node22</title>
<g id="a_edge28_Node000016_Node000022"><a xlink:title=" ">
<path fill="none" stroke="#63b8ff" d="M507.17,-196.47C532.1,-191.59 562.63,-185.61 588.85,-180.48"/>
<polygon fill="#63b8ff" stroke="#63b8ff" points="589.52,-183.92 598.66,-178.56 588.18,-177.05 589.52,-183.92"/>
</a>
</g>
</g>
<!-- Node23 -->
<g id="Node000023" class="node">
<title>Node23</title>
<g id="a_Node000023"><a xlink:href="collision_8c.html#a335dc7fed8a2540ca0a5b0a466545845" target="_top" xlink:title=" ">
<polygon fill="white" stroke="#666666" points="710.5,-141.5 586.5,-141.5 586.5,-122.5 710.5,-122.5 710.5,-141.5"/>
<text text-anchor="middle" x="648.5" y="-129.5" font-family="Helvetica,sans-Serif" font-size="10.00">set_vtx_from_triangle</text>
</a>
</g>
</g>
<!-- Node16&#45;&gt;Node23 -->
<g id="edge30_Node000016_Node000023" class="edge">
<title>Node16&#45;&gt;Node23</title>
<g id="a_edge30_Node000016_Node000023"><a xlink:title=" ">
<path fill="none" stroke="#63b8ff" d="M476.05,-196.34C498.3,-184.39 538.1,-164.05 574,-151 580.73,-148.55 587.91,-146.29 595.05,-144.24"/>
<polygon fill="#63b8ff" stroke="#63b8ff" points="596,-147.61 604.71,-141.59 594.14,-140.86 596,-147.61"/>
</a>
</g>
</g>
<!-- Node19 -->
<g id="Node000019" class="node">
<title>Node19</title>
<g id="a_Node000019"><a xlink:href="collision_8c.html#a8c516edee107b39b30bb3a4d3c54534a" target="_top" xlink:title=" ">
<polygon fill="white" stroke="#666666" points="882,-178.5 759,-178.5 759,-159.5 882,-159.5 882,-178.5"/>
<text text-anchor="middle" x="820.5" y="-166.5" font-family="Helvetica,sans-Serif" font-size="10.00">add_collision_triangle</text>
</a>
</g>
</g>
<!-- Node18&#45;&gt;Node19 -->
<g id="edge25_Node000018_Node000019" class="edge">
<title>Node18&#45;&gt;Node19</title>
<g id="a_edge25_Node000018_Node000019"><a xlink:title=" ">
<path fill="none" stroke="#63b8ff" d="M693.28,-196.47C715.3,-191.68 742.2,-185.82 765.5,-180.75"/>
<polygon fill="#63b8ff" stroke="#63b8ff" points="766.55,-184.11 775.57,-178.56 765.06,-177.27 766.55,-184.11"/>
</a>
</g>
</g>
<!-- Node20 -->
<g id="Node000020" class="node">
<title>Node20</title>
<g id="a_Node000020"><a xlink:href="RaceManager_8cpp.html#a693bf81394ee91ac6be58f7481471619" target="_top" xlink:title=" ">
<polygon fill="white" stroke="#666666" points="1088,-197.5 918,-197.5 918,-178.5 1088,-178.5 1088,-197.5"/>
<text text-anchor="middle" x="1003" y="-185.5" font-family="Helvetica,sans-Serif" font-size="10.00">add_triangle_to_collision_mesh</text>
</a>
</g>
</g>
<!-- Node19&#45;&gt;Node20 -->
<g id="edge26_Node000019_Node000020" class="edge">
<title>Node19&#45;&gt;Node20</title>
<g id="a_edge26_Node000019_Node000020"><a xlink:title=" ">
<path fill="none" stroke="#63b8ff" d="M882.11,-175.38C890.35,-176.25 898.97,-177.15 907.63,-178.07"/>
<polygon fill="#63b8ff" stroke="#63b8ff" points="907.5,-181.57 917.81,-179.14 908.23,-174.61 907.5,-181.57"/>
</a>
</g>
</g>
<!-- Node21 -->
<g id="Node000021" class="node">
<title>Node21</title>
<g id="a_Node000021"><a xlink:href="math_8h.html#a37bde043e94a6f074c78f10518fb5d99" target="_top" xlink:title=" ">
<polygon fill="white" stroke="#666666" points="1022.5,-160.5 983.5,-160.5 983.5,-141.5 1022.5,-141.5 1022.5,-160.5"/>
<text text-anchor="middle" x="1003" y="-148.5" font-family="Helvetica,sans-Serif" font-size="10.00">sqrtf</text>
</a>
</g>
</g>
<!-- Node19&#45;&gt;Node21 -->
<g id="edge27_Node000019_Node000021" class="edge">
<title>Node19&#45;&gt;Node21</title>
<g id="a_edge27_Node000019_Node000021"><a xlink:title=" ">
<path fill="none" stroke="#63b8ff" d="M882.11,-162.96C912.8,-159.9 948.63,-156.32 973.07,-153.88"/>
<polygon fill="#63b8ff" stroke="#63b8ff" points="973.52,-157.36 983.13,-152.88 972.83,-150.39 973.52,-157.36"/>
</a>
</g>
</g>
<!-- Node22&#45;&gt;Node19 -->
<g id="edge29_Node000022_Node000019" class="edge">
<title>Node22&#45;&gt;Node19</title>
<g id="a_edge29_Node000022_Node000019"><a xlink:title=" ">
<path fill="none" stroke="#63b8ff" d="M700.05,-169C715.36,-169 732.48,-169 748.86,-169"/>
<polygon fill="#63b8ff" stroke="#63b8ff" points="748.95,-172.5 758.95,-169 748.95,-165.5 748.95,-172.5"/>
</a>
</g>
</g>
<!-- Node23&#45;&gt;Node19 -->
<g id="edge31_Node000023_Node000019" class="edge">
<title>Node23&#45;&gt;Node19</title>
<g id="a_edge31_Node000023_Node000019"><a xlink:title=" ">
<path fill="none" stroke="#63b8ff" d="M693.28,-141.53C715.3,-146.32 742.2,-152.18 765.5,-157.25"/>
<polygon fill="#63b8ff" stroke="#63b8ff" points="765.06,-160.73 775.57,-159.44 766.55,-153.89 765.06,-160.73"/>
</a>
</g>
</g>
</g>
</svg>
