<?xml version="1.0" encoding="UTF-8" standalone="no"?>
<!DOCTYPE svg PUBLIC "-//W3C//DTD SVG 1.1//EN"
 "http://www.w3.org/Graphics/SVG/1.1/DTD/svg11.dtd">
<!-- Generated by graphviz version 2.43.0 (0)
 -->
<!-- Title: BigDonut::Load Pages: 1 -->
<svg width="1052pt" height="298pt"
 viewBox="0.00 0.00 1052.00 297.50" xmlns="http://www.w3.org/2000/svg" xmlns:xlink="http://www.w3.org/1999/xlink">
<g id="graph0" class="graph" transform="scale(1 1) rotate(0) translate(4 293.5)">
<title>BigDonut::Load</title>
<!-- Node1 -->
<g id="Node000001" class="node">
<title>Node1</title>
<g id="a_Node000001"><a xlink:title=" ">
<polygon fill="#999999" stroke="#666666" points="91,-148 0,-148 0,-129 91,-129 91,-148"/>
<text text-anchor="middle" x="45.5" y="-136" font-family="Helvetica,sans-Serif" font-size="10.00">BigDonut::Load</text>
</a>
</g>
</g>
<!-- Node2 -->
<g id="Node000002" class="node">
<title>Node2</title>
<g id="a_Node000002"><a xlink:href="render__courses_8c.html#ab02cdf6684f984a12e7388fe973bc89a" target="_top" xlink:title=" ">
<polygon fill="white" stroke="#666666" points="258,-197 166,-197 166,-178 258,-178 258,-197"/>
<text text-anchor="middle" x="212" y="-185" font-family="Helvetica,sans-Serif" font-size="10.00">func_80295C6C</text>
</a>
</g>
</g>
<!-- Node1&#45;&gt;Node2 -->
<g id="edge1_Node000001_Node000002" class="edge">
<title>Node1&#45;&gt;Node2</title>
<g id="a_edge1_Node000001_Node000002"><a xlink:title=" ">
<path fill="none" stroke="#63b8ff" d="M78.62,-148.08C93.36,-152.48 111.07,-157.75 127,-162.5 140.6,-166.55 155.43,-170.97 168.8,-174.94"/>
<polygon fill="#63b8ff" stroke="#63b8ff" points="168.11,-178.39 178.69,-177.89 170.1,-171.68 168.11,-178.39"/>
</a>
</g>
</g>
<!-- Node6 -->
<g id="Node000006" class="node">
<title>Node6</title>
<g id="a_Node000006"><a xlink:href="collision_8c.html#a0c0f33fa7f0e76fa9cd556c9f1401b36" target="_top" xlink:title=" ">
<polygon fill="white" stroke="#666666" points="297,-153.5 127,-153.5 127,-123.5 297,-123.5 297,-153.5"/>
<text text-anchor="start" x="135" y="-141.5" font-family="Helvetica,sans-Serif" font-size="10.00">generate_collision</text>
<text text-anchor="middle" x="212" y="-130.5" font-family="Helvetica,sans-Serif" font-size="10.00">_mesh_with_default_section_id</text>
</a>
</g>
</g>
<!-- Node1&#45;&gt;Node6 -->
<g id="edge5_Node000001_Node000006" class="edge">
<title>Node1&#45;&gt;Node6</title>
<g id="a_edge5_Node000001_Node000006"><a xlink:title=" ">
<path fill="none" stroke="#63b8ff" d="M91.02,-138.5C99.1,-138.5 107.81,-138.5 116.72,-138.5"/>
<polygon fill="#63b8ff" stroke="#63b8ff" points="116.83,-142 126.83,-138.5 116.83,-135 116.83,-142"/>
</a>
</g>
</g>
<!-- Node18 -->
<g id="Node000018" class="node">
<title>Node18</title>
<g id="a_Node000018"><a xlink:href="Course_8cpp.html#a0406803b8f06bfcaf7e1bd3ad2ab2e12" target="_top" xlink:title=" ">
<polygon fill="white" stroke="#666666" points="294.5,-90 129.5,-90 129.5,-71 294.5,-71 294.5,-90"/>
<text text-anchor="middle" x="212" y="-78" font-family="Helvetica,sans-Serif" font-size="10.00">InvertTriangleWindingByName</text>
</a>
</g>
</g>
<!-- Node1&#45;&gt;Node18 -->
<g id="edge21_Node000001_Node000018" class="edge">
<title>Node1&#45;&gt;Node18</title>
<g id="a_edge21_Node000001_Node000018"><a xlink:title=" ">
<path fill="none" stroke="#63b8ff" d="M73.66,-128.92C101.17,-119.23 143.88,-104.17 174.36,-93.42"/>
<polygon fill="#63b8ff" stroke="#63b8ff" points="175.53,-96.72 183.8,-90.09 173.2,-90.12 175.53,-96.72"/>
</a>
</g>
</g>
<!-- Node3 -->
<g id="Node000003" class="node">
<title>Node3</title>
<g id="a_Node000003"><a xlink:href="collision_8c.html#aa1116ededb9ebc0ee976259f02fe2a4e" target="_top" xlink:title=" ">
<polygon fill="white" stroke="#666666" points="478.5,-252 348.5,-252 348.5,-233 478.5,-233 478.5,-252"/>
<text text-anchor="middle" x="413.5" y="-240" font-family="Helvetica,sans-Serif" font-size="10.00">generate_collision_grid</text>
</a>
</g>
</g>
<!-- Node2&#45;&gt;Node3 -->
<g id="edge2_Node000002_Node000003" class="edge">
<title>Node2&#45;&gt;Node3</title>
<g id="a_edge2_Node000002_Node000003"><a xlink:title=" ">
<path fill="none" stroke="#63b8ff" d="M247.75,-197.08C281.12,-206.28 331.67,-220.22 367.98,-230.23"/>
<polygon fill="#63b8ff" stroke="#63b8ff" points="367.24,-233.65 377.81,-232.94 369.1,-226.91 367.24,-233.65"/>
</a>
</g>
</g>
<!-- Node4 -->
<g id="Node000004" class="node">
<title>Node4</title>
<g id="a_Node000004"><a xlink:href="collision_8c.html#a4e4ec74302aec60828a8d271390f7631" target="_top" xlink:title=" ">
<polygon fill="white" stroke="#666666" points="670,-289.5 539,-289.5 539,-259.5 670,-259.5 670,-289.5"/>
<text text-anchor="start" x="547" y="-277.5" font-family="Helvetica,sans-Serif" font-size="10.00">is_triangle_intersecting</text>
<text text-anchor="middle" x="604.5" y="-266.5" font-family="Helvetica,sans-Serif" font-size="10.00">_bounding_box</text>
</a>
</g>
</g>
<!-- Node3&#45;&gt;Node4 -->
<g id="edge3_Node000003_Node000004" class="edge">
<title>Node3&#45;&gt;Node4</title>
<g id="a_edge3_Node000003_Node000004"><a xlink:title=" ">
<path fill="none" stroke="#63b8ff" d="M470.69,-252.01C488.95,-255.11 509.5,-258.58 528.88,-261.87"/>
<polygon fill="#63b8ff" stroke="#63b8ff" points="528.45,-265.34 538.89,-263.56 529.61,-258.44 528.45,-265.34"/>
</a>
</g>
</g>
<!-- Node5 -->
<g id="Node000005" class="node">
<title>Node5</title>
<g id="a_Node000005"><a xlink:href="collision_8c.html#a7ef4f800cb44ad39ca233d0c76ce039a" target="_top" xlink:title=" ">
<polygon fill="white" stroke="#666666" points="832,-289.5 721,-289.5 721,-259.5 832,-259.5 832,-289.5"/>
<text text-anchor="start" x="729" y="-277.5" font-family="Helvetica,sans-Serif" font-size="10.00">is_line_intersecting</text>
<text text-anchor="middle" x="776.5" y="-266.5" font-family="Helvetica,sans-Serif" font-size="10.00">_rectangle</text>
</a>
</g>
</g>
<!-- Node4&#45;&gt;Node5 -->
<g id="edge4_Node000004_Node000005" class="edge">
<title>Node4&#45;&gt;Node5</title>
<g id="a_edge4_Node000004_Node000005"><a xlink:title=" ">
<path fill="none" stroke="#63b8ff" d="M670.25,-274.5C683.56,-274.5 697.58,-274.5 710.88,-274.5"/>
<polygon fill="#63b8ff" stroke="#63b8ff" points="710.89,-278 720.89,-274.5 710.89,-271 710.89,-278"/>
</a>
</g>
</g>
<!-- Node7 -->
<g id="Node000007" class="node">
<title>Node7</title>
<g id="a_Node000007"><a xlink:href="collision_8c.html#a3081198f925be148fc9f05897a3bddd3" target="_top" xlink:title=" ">
<polygon fill="white" stroke="#666666" points="482.5,-148 344.5,-148 344.5,-129 482.5,-129 482.5,-148"/>
<text text-anchor="middle" x="413.5" y="-136" font-family="Helvetica,sans-Serif" font-size="10.00">generate_collision_mesh</text>
</a>
</g>
</g>
<!-- Node6&#45;&gt;Node7 -->
<g id="edge6_Node000006_Node000007" class="edge">
<title>Node6&#45;&gt;Node7</title>
<g id="a_edge6_Node000006_Node000007"><a xlink:title=" ">
<path fill="none" stroke="#63b8ff" d="M297.03,-138.5C309.34,-138.5 321.98,-138.5 334.17,-138.5"/>
<polygon fill="#63b8ff" stroke="#63b8ff" points="334.29,-142 344.29,-138.5 334.29,-135 334.29,-142"/>
</a>
</g>
</g>
<!-- Node7&#45;&gt;Node7 -->
<g id="edge9_Node000007_Node000007" class="edge">
<title>Node7&#45;&gt;Node7</title>
<g id="a_edge9_Node000007_Node000007"><a xlink:title=" ">
<path fill="none" stroke="#63b8ff" d="M384.22,-148.08C369.97,-156.73 379.73,-166 413.5,-166 436.72,-166 448.59,-161.62 449.11,-156.07"/>
<polygon fill="#63b8ff" stroke="#63b8ff" points="451.73,-153.75 442.78,-148.08 446.25,-158.1 451.73,-153.75"/>
</a>
</g>
</g>
<!-- Node8 -->
<g id="Node000008" class="node">
<title>Node8</title>
<g id="a_Node000008"><a xlink:href="Engine_8cpp.html#a223c8bc63f228dc11177515e38eff2db" target="_top" xlink:title=" ">
<polygon fill="white" stroke="#666666" points="679,-56 530,-56 530,-37 679,-37 679,-56"/>
<text text-anchor="middle" x="604.5" y="-44" font-family="Helvetica,sans-Serif" font-size="10.00">GameEngine_OTRSigCheck</text>
</a>
</g>
</g>
<!-- Node7&#45;&gt;Node8 -->
<g id="edge7_Node000007_Node000008" class="edge">
<title>Node7&#45;&gt;Node8</title>
<g id="a_edge7_Node000007_Node000008"><a xlink:title=" ">
<path fill="none" stroke="#63b8ff" d="M426.55,-128.84C446.76,-113.11 489.29,-81.95 530,-64.5 534.71,-62.48 539.69,-60.66 544.75,-59.02"/>
<polygon fill="#63b8ff" stroke="#63b8ff" points="545.95,-62.32 554.53,-56.1 543.94,-55.61 545.95,-62.32"/>
</a>
</g>
</g>
<!-- Node10 -->
<g id="Node000010" class="node">
<title>Node10</title>
<g id="a_Node000010"><a xlink:href="collision_8c.html#a2419eefe1cdba5b280babacc4a15fc6c" target="_top" xlink:title=" ">
<polygon fill="white" stroke="#666666" points="640,-130 569,-130 569,-111 640,-111 640,-130"/>
<text text-anchor="middle" x="604.5" y="-118" font-family="Helvetica,sans-Serif" font-size="10.00">is_cull_box</text>
</a>
</g>
</g>
<!-- Node7&#45;&gt;Node10 -->
<g id="edge10_Node000007_Node000010" class="edge">
<title>Node7&#45;&gt;Node10</title>
<g id="a_edge10_Node000007_Node000010"><a xlink:title=" ">
<path fill="none" stroke="#63b8ff" d="M482.73,-132C508.04,-129.59 536.08,-126.92 558.76,-124.76"/>
<polygon fill="#63b8ff" stroke="#63b8ff" points="559.16,-128.24 568.78,-123.81 558.49,-121.27 559.16,-128.24"/>
</a>
</g>
</g>
<!-- Node11 -->
<g id="Node000011" class="node">
<title>Node11</title>
<g id="a_Node000011"><a xlink:href="collision_8c.html#a30eb531df39ba558cd733e1d1cd6aaa0" target="_top" xlink:title=" ">
<polygon fill="white" stroke="#666666" points="647.5,-93 561.5,-93 561.5,-74 647.5,-74 647.5,-93"/>
<text text-anchor="middle" x="604.5" y="-81" font-family="Helvetica,sans-Serif" font-size="10.00">set_vtx_buffer</text>
</a>
</g>
</g>
<!-- Node7&#45;&gt;Node11 -->
<g id="edge12_Node000007_Node000011" class="edge">
<title>Node7&#45;&gt;Node11</title>
<g id="a_edge12_Node000007_Node000011"><a xlink:title=" ">
<path fill="none" stroke="#63b8ff" d="M442.34,-128.98C465.63,-121.16 499.81,-110.02 530,-101.5 537.21,-99.47 544.85,-97.44 552.38,-95.53"/>
<polygon fill="#63b8ff" stroke="#63b8ff" points="553.31,-98.91 562.16,-93.09 551.61,-92.12 553.31,-98.91"/>
</a>
</g>
</g>
<!-- Node12 -->
<g id="Node000012" class="node">
<title>Node12</title>
<g id="a_Node000012"><a xlink:href="collision_8c.html#a593833ca3f04f0c7d8f5dcabe6430115" target="_top" xlink:title=" ">
<polygon fill="white" stroke="#666666" points="675,-241 534,-241 534,-222 675,-222 675,-241"/>
<text text-anchor="middle" x="604.5" y="-229" font-family="Helvetica,sans-Serif" font-size="10.00">set_vtx_from_quadrangle</text>
</a>
</g>
</g>
<!-- Node7&#45;&gt;Node12 -->
<g id="edge13_Node000007_Node000012" class="edge">
<title>Node7&#45;&gt;Node12</title>
<g id="a_edge13_Node000007_Node000012"><a xlink:title=" ">
<path fill="none" stroke="#63b8ff" d="M426.21,-148.04C446.25,-163.92 488.96,-195.76 530,-213.5 534.7,-215.53 539.68,-217.36 544.74,-219.01"/>
<polygon fill="#63b8ff" stroke="#63b8ff" points="543.92,-222.42 554.51,-221.94 545.94,-215.71 543.92,-222.42"/>
</a>
</g>
</g>
<!-- Node16 -->
<g id="Node000016" class="node">
<title>Node16</title>
<g id="a_Node000016"><a xlink:href="collision_8c.html#ac558a6e1314f154bbf53aaf15396ea1e" target="_top" xlink:title=" ">
<polygon fill="white" stroke="#666666" points="656,-204 553,-204 553,-185 656,-185 656,-204"/>
<text text-anchor="middle" x="604.5" y="-192" font-family="Helvetica,sans-Serif" font-size="10.00">set_vtx_from_tri2</text>
</a>
</g>
</g>
<!-- Node7&#45;&gt;Node16 -->
<g id="edge17_Node000007_Node000016" class="edge">
<title>Node7&#45;&gt;Node16</title>
<g id="a_edge17_Node000007_Node000016"><a xlink:title=" ">
<path fill="none" stroke="#63b8ff" d="M441.39,-148C464.68,-156.08 499.36,-167.72 530,-176.5 537.2,-178.56 544.84,-180.6 552.36,-182.52"/>
<polygon fill="#63b8ff" stroke="#63b8ff" points="551.59,-185.93 562.15,-184.97 553.29,-179.14 551.59,-185.93"/>
</a>
</g>
</g>
<!-- Node17 -->
<g id="Node000017" class="node">
<title>Node17</title>
<g id="a_Node000017"><a xlink:href="collision_8c.html#a335dc7fed8a2540ca0a5b0a466545845" target="_top" xlink:title=" ">
<polygon fill="white" stroke="#666666" points="666.5,-167 542.5,-167 542.5,-148 666.5,-148 666.5,-167"/>
<text text-anchor="middle" x="604.5" y="-155" font-family="Helvetica,sans-Serif" font-size="10.00">set_vtx_from_triangle</text>
</a>
</g>
</g>
<!-- Node7&#45;&gt;Node17 -->
<g id="edge19_Node000007_Node000017" class="edge">
<title>Node7&#45;&gt;Node17</title>
<g id="a_edge19_Node000007_Node000017"><a xlink:title=" ">
<path fill="none" stroke="#63b8ff" d="M482.73,-145.36C498.84,-146.98 516.06,-148.71 532.3,-150.34"/>
<polygon fill="#63b8ff" stroke="#63b8ff" points="531.97,-153.83 542.27,-151.34 532.67,-146.86 531.97,-153.83"/>
</a>
</g>
</g>
<!-- Node9 -->
<g id="Node000009" class="node">
<title>Node9</title>
<g id="a_Node000009"><a xlink:href="string_8c.html#a008e171a518fe0e0352f31b245e03875" target="_top" xlink:title=" ">
<polygon fill="white" stroke="#666666" points="798.5,-93 754.5,-93 754.5,-74 798.5,-74 798.5,-93"/>
<text text-anchor="middle" x="776.5" y="-81" font-family="Helvetica,sans-Serif" font-size="10.00">strlen</text>
</a>
</g>
</g>
<!-- Node8&#45;&gt;Node9 -->
<g id="edge8_Node000008_Node000009" class="edge">
<title>Node8&#45;&gt;Node9</title>
<g id="a_edge8_Node000008_Node000009"><a xlink:title=" ">
<path fill="none" stroke="#63b8ff" d="M649.28,-56.03C678.98,-62.49 717.55,-70.89 744.19,-76.69"/>
<polygon fill="#63b8ff" stroke="#63b8ff" points="743.61,-80.14 754.12,-78.85 745.1,-73.3 743.61,-80.14"/>
</a>
</g>
</g>
<!-- Node10&#45;&gt;Node9 -->
<g id="edge11_Node000010_Node000009" class="edge">
<title>Node10&#45;&gt;Node9</title>
<g id="a_edge11_Node000010_Node000009"><a xlink:title=" ">
<path fill="none" stroke="#63b8ff" d="M640.31,-112.92C670.77,-106.3 714.61,-96.75 744.03,-90.35"/>
<polygon fill="#63b8ff" stroke="#63b8ff" points="745.14,-93.69 754.16,-88.14 743.65,-86.85 745.14,-93.69"/>
</a>
</g>
</g>
<!-- Node13 -->
<g id="Node000013" class="node">
<title>Node13</title>
<g id="a_Node000013"><a xlink:href="collision_8c.html#a8c516edee107b39b30bb3a4d3c54534a" target="_top" xlink:title=" ">
<polygon fill="white" stroke="#666666" points="838,-204 715,-204 715,-185 838,-185 838,-204"/>
<text text-anchor="middle" x="776.5" y="-192" font-family="Helvetica,sans-Serif" font-size="10.00">add_collision_triangle</text>
</a>
</g>
</g>
<!-- Node12&#45;&gt;Node13 -->
<g id="edge14_Node000012_Node000013" class="edge">
<title>Node12&#45;&gt;Node13</title>
<g id="a_edge14_Node000012_Node000013"><a xlink:title=" ">
<path fill="none" stroke="#63b8ff" d="M649.28,-221.97C671.3,-217.18 698.2,-211.32 721.5,-206.25"/>
<polygon fill="#63b8ff" stroke="#63b8ff" points="722.55,-209.61 731.57,-204.06 721.06,-202.77 722.55,-209.61"/>
</a>
</g>
</g>
<!-- Node14 -->
<g id="Node000014" class="node">
<title>Node14</title>
<g id="a_Node000014"><a xlink:href="RaceManager_8cpp.html#a693bf81394ee91ac6be58f7481471619" target="_top" xlink:title=" ">
<polygon fill="white" stroke="#666666" points="1044,-223 874,-223 874,-204 1044,-204 1044,-223"/>
<text text-anchor="middle" x="959" y="-211" font-family="Helvetica,sans-Serif" font-size="10.00">add_triangle_to_collision_mesh</text>
</a>
</g>
</g>
<!-- Node13&#45;&gt;Node14 -->
<g id="edge15_Node000013_Node000014" class="edge">
<title>Node13&#45;&gt;Node14</title>
<g id="a_edge15_Node000013_Node000014"><a xlink:title=" ">
<path fill="none" stroke="#63b8ff" d="M838.11,-200.88C846.35,-201.75 854.97,-202.65 863.63,-203.57"/>
<polygon fill="#63b8ff" stroke="#63b8ff" points="863.5,-207.07 873.81,-204.64 864.23,-200.11 863.5,-207.07"/>
</a>
</g>
</g>
<!-- Node15 -->
<g id="Node000015" class="node">
<title>Node15</title>
<g id="a_Node000015"><a xlink:href="math_8h.html#a37bde043e94a6f074c78f10518fb5d99" target="_top" xlink:title=" ">
<polygon fill="white" stroke="#666666" points="978.5,-186 939.5,-186 939.5,-167 978.5,-167 978.5,-186"/>
<text text-anchor="middle" x="959" y="-174" font-family="Helvetica,sans-Serif" font-size="10.00">sqrtf</text>
</a>
</g>
</g>
<!-- Node13&#45;&gt;Node15 -->
<g id="edge16_Node000013_Node000015" class="edge">
<title>Node13&#45;&gt;Node15</title>
<g id="a_edge16_Node000013_Node000015"><a xlink:title=" ">
<path fill="none" stroke="#63b8ff" d="M838.11,-188.46C868.8,-185.4 904.63,-181.82 929.07,-179.38"/>
<polygon fill="#63b8ff" stroke="#63b8ff" points="929.52,-182.86 939.13,-178.38 928.83,-175.89 929.52,-182.86"/>
</a>
</g>
</g>
<!-- Node16&#45;&gt;Node13 -->
<g id="edge18_Node000016_Node000013" class="edge">
<title>Node16&#45;&gt;Node13</title>
<g id="a_edge18_Node000016_Node000013"><a xlink:title=" ">
<path fill="none" stroke="#63b8ff" d="M656.05,-194.5C671.36,-194.5 688.48,-194.5 704.86,-194.5"/>
<polygon fill="#63b8ff" stroke="#63b8ff" points="704.95,-198 714.95,-194.5 704.95,-191 704.95,-198"/>
</a>
</g>
</g>
<!-- Node17&#45;&gt;Node13 -->
<g id="edge20_Node000017_Node000013" class="edge">
<title>Node17&#45;&gt;Node13</title>
<g id="a_edge20_Node000017_Node000013"><a xlink:title=" ">
<path fill="none" stroke="#63b8ff" d="M649.28,-167.03C671.3,-171.82 698.2,-177.68 721.5,-182.75"/>
<polygon fill="#63b8ff" stroke="#63b8ff" points="721.06,-186.23 731.57,-184.94 722.55,-179.39 721.06,-186.23"/>
</a>
</g>
</g>
<!-- Node19 -->
<g id="Node000019" class="node">
<title>Node19</title>
<g id="a_Node000019"><a xlink:href="Course_8cpp.html#ad29b2b4706dd79c5d6239851b61530d4" target="_top" xlink:title=" ">
<polygon fill="white" stroke="#666666" points="494,-56 333,-56 333,-37 494,-37 494,-56"/>
<text text-anchor="middle" x="413.5" y="-44" font-family="Helvetica,sans-Serif" font-size="10.00">InvertTriangleWindingInternal</text>
</a>
</g>
</g>
<!-- Node18&#45;&gt;Node19 -->
<g id="edge22_Node000018_Node000019" class="edge">
<title>Node18&#45;&gt;Node19</title>
<g id="a_edge22_Node000018_Node000019"><a xlink:title=" ">
<path fill="none" stroke="#63b8ff" d="M268.84,-70.98C292.95,-66.87 321.34,-62.04 346.49,-57.75"/>
<polygon fill="#63b8ff" stroke="#63b8ff" points="347.41,-61.14 356.68,-56.01 346.23,-54.24 347.41,-61.14"/>
</a>
</g>
</g>
<!-- Node19&#45;&gt;Node8 -->
<g id="edge23_Node000019_Node000008" class="edge">
<title>Node19&#45;&gt;Node8</title>
<g id="a_edge23_Node000019_Node000008"><a xlink:title=" ">
<path fill="none" stroke="#63b8ff" d="M494.11,-46.5C502.5,-46.5 511.05,-46.5 519.49,-46.5"/>
<polygon fill="#63b8ff" stroke="#63b8ff" points="519.71,-50 529.71,-46.5 519.71,-43 519.71,-50"/>
</a>
</g>
</g>
<!-- Node19&#45;&gt;Node19 -->
<g id="edge24_Node000019_Node000019" class="edge">
<title>Node19&#45;&gt;Node19</title>
<g id="a_edge24_Node000019_Node000019"><a xlink:title=" ">
<path fill="none" stroke="#63b8ff" d="M384.22,-56.08C369.97,-64.73 379.73,-74 413.5,-74 436.72,-74 448.59,-69.62 449.11,-64.07"/>
<polygon fill="#63b8ff" stroke="#63b8ff" points="451.73,-61.75 442.78,-56.08 446.25,-66.1 451.73,-61.75"/>
</a>
</g>
</g>
<!-- Node20 -->
<g id="Node000020" class="node">
<title>Node20</title>
<g id="a_Node000020"><a xlink:href="Course_8cpp.html#a5bae290668f6b484d13626d67e16cc3f" target="_top" xlink:title=" ">
<polygon fill="white" stroke="#666666" points="664.5,-19 544.5,-19 544.5,0 664.5,0 664.5,-19"/>
<text text-anchor="middle" x="604.5" y="-7" font-family="Helvetica,sans-Serif" font-size="10.00">SwapTriangleVertices</text>
</a>
</g>
</g>
<!-- Node19&#45;&gt;Node20 -->
<g id="edge25_Node000019_Node000020" class="edge">
<title>Node19&#45;&gt;Node20</title>
<g id="a_edge25_Node000019_Node000020"><a xlink:title=" ">
<path fill="none" stroke="#63b8ff" d="M463.17,-36.97C488.1,-32.09 518.63,-26.11 544.85,-20.98"/>
<polygon fill="#63b8ff" stroke="#63b8ff" points="545.52,-24.42 554.66,-19.06 544.18,-17.55 545.52,-24.42"/>
</a>
</g>
</g>
</g>
</svg>
