<?xml version="1.0" encoding="UTF-8" standalone="no"?>
<!DOCTYPE svg PUBLIC "-//W3C//DTD SVG 1.1//EN"
 "http://www.w3.org/Graphics/SVG/1.1/DTD/svg11.dtd">
<!-- Generated by graphviz version 2.43.0 (0)
 -->
<!-- Title: RainbowRoad::Load Pages: 1 -->
<svg width="1069pt" height="372pt"
 viewBox="0.00 0.00 1069.00 371.50" xmlns="http://www.w3.org/2000/svg" xmlns:xlink="http://www.w3.org/1999/xlink">
<g id="graph0" class="graph" transform="scale(1 1) rotate(0) translate(4 367.5)">
<title>RainbowRoad::Load</title>
<!-- Node1 -->
<g id="Node000001" class="node">
<title>Node1</title>
<g id="a_Node000001"><a xlink:title=" ">
<polygon fill="#999999" stroke="#666666" points="113,-149.5 0,-149.5 0,-130.5 113,-130.5 113,-149.5"/>
<text text-anchor="middle" x="56.5" y="-137.5" font-family="Helvetica,sans-Serif" font-size="10.00">RainbowRoad::Load</text>
</a>
</g>
</g>
<!-- Node2 -->
<g id="Node000002" class="node">
<title>Node2</title>
<g id="a_Node000002"><a xlink:href="collision_8c.html#a7fe1ddc7a4c312ab8f9519229963450b" target="_top" xlink:title=" ">
<polygon fill="white" stroke="#666666" points="500.5,-307.5 360.5,-307.5 360.5,-288.5 500.5,-288.5 500.5,-307.5"/>
<text text-anchor="middle" x="430.5" y="-295.5" font-family="Helvetica,sans-Serif" font-size="10.00">find_vtx_and_set_colours</text>
</a>
</g>
</g>
<!-- Node1&#45;&gt;Node2 -->
<g id="edge1_Node000001_Node000002" class="edge">
<title>Node1&#45;&gt;Node2</title>
<g id="a_edge1_Node000001_Node000002"><a xlink:title=" ">
<path fill="none" stroke="#63b8ff" d="M66.71,-149.74C82.24,-165.63 115.24,-197.12 149,-215 218.26,-251.69 305.95,-274.3 364.68,-286.48"/>
<polygon fill="#63b8ff" stroke="#63b8ff" points="364.07,-289.93 374.57,-288.49 365.47,-283.07 364.07,-289.93"/>
</a>
</g>
</g>
<!-- Node7 -->
<g id="Node000007" class="node">
<title>Node7</title>
<g id="a_Node000007"><a xlink:href="render__courses_8c.html#ab02cdf6684f984a12e7388fe973bc89a" target="_top" xlink:title=" ">
<polygon fill="white" stroke="#666666" points="277.5,-94.5 185.5,-94.5 185.5,-75.5 277.5,-75.5 277.5,-94.5"/>
<text text-anchor="middle" x="231.5" y="-82.5" font-family="Helvetica,sans-Serif" font-size="10.00">func_80295C6C</text>
</a>
</g>
</g>
<!-- Node1&#45;&gt;Node7 -->
<g id="edge8_Node000001_Node000007" class="edge">
<title>Node1&#45;&gt;Node7</title>
<g id="a_edge8_Node000001_Node000007"><a xlink:title=" ">
<path fill="none" stroke="#63b8ff" d="M79.36,-130.35C97.7,-122.52 124.72,-111.56 149,-104 157.47,-101.36 166.53,-98.9 175.42,-96.69"/>
<polygon fill="#63b8ff" stroke="#63b8ff" points="176.45,-100.04 185.35,-94.29 174.8,-93.24 176.45,-100.04"/>
</a>
</g>
</g>
<!-- Node11 -->
<g id="Node000011" class="node">
<title>Node11</title>
<g id="a_Node000011"><a xlink:href="Track_8cpp.html#a0406803b8f06bfcaf7e1bd3ad2ab2e12" target="_top" xlink:title=" ">
<polygon fill="white" stroke="#666666" points="314,-131.5 149,-131.5 149,-112.5 314,-112.5 314,-131.5"/>
<text text-anchor="middle" x="231.5" y="-119.5" font-family="Helvetica,sans-Serif" font-size="10.00">InvertTriangleWindingByName</text>
</a>
</g>
</g>
<!-- Node1&#45;&gt;Node11 -->
<g id="edge12_Node000001_Node000011" class="edge">
<title>Node1&#45;&gt;Node11</title>
<g id="a_edge12_Node000001_Node000011"><a xlink:title=" ">
<path fill="none" stroke="#63b8ff" d="M113.19,-134.21C121.36,-133.36 129.94,-132.46 138.6,-131.56"/>
<polygon fill="#63b8ff" stroke="#63b8ff" points="139.19,-135.02 148.78,-130.5 138.47,-128.06 139.19,-135.02"/>
</a>
</g>
</g>
<!-- Node15 -->
<g id="Node000015" class="node">
<title>Node15</title>
<g id="a_Node000015"><a xlink:href="render__courses_8c.html#ac97a07076b3e301db5da93c0fe8f0500" target="_top" xlink:title=" ">
<polygon fill="white" stroke="#666666" points="298.5,-205.5 164.5,-205.5 164.5,-186.5 298.5,-186.5 298.5,-205.5"/>
<text text-anchor="middle" x="231.5" y="-193.5" font-family="Helvetica,sans-Serif" font-size="10.00">parse_track_displaylists</text>
</a>
</g>
</g>
<!-- Node1&#45;&gt;Node15 -->
<g id="edge18_Node000001_Node000015" class="edge">
<title>Node1&#45;&gt;Node15</title>
<g id="a_edge18_Node000001_Node000015"><a xlink:title=" ">
<path fill="none" stroke="#63b8ff" d="M87.24,-149.63C116.01,-158.94 159.77,-173.1 191.36,-183.33"/>
<polygon fill="#63b8ff" stroke="#63b8ff" points="190.56,-186.75 201.15,-186.5 192.71,-180.09 190.56,-186.75"/>
</a>
</g>
</g>
<!-- Node2&#45;&gt;Node2 -->
<g id="edge2_Node000002_Node000002" class="edge">
<title>Node2&#45;&gt;Node2</title>
<g id="a_edge2_Node000002_Node000002"><a xlink:title=" ">
<path fill="none" stroke="#63b8ff" d="M401.22,-307.58C386.97,-316.23 396.73,-325.5 430.5,-325.5 453.72,-325.5 465.59,-321.12 466.11,-315.57"/>
<polygon fill="#63b8ff" stroke="#63b8ff" points="468.73,-313.25 459.78,-307.58 463.25,-317.6 468.73,-313.25"/>
</a>
</g>
</g>
<!-- Node3 -->
<g id="Node000003" class="node">
<title>Node3</title>
<g id="a_Node000003"><a xlink:href="Engine_8cpp.html#a223c8bc63f228dc11177515e38eff2db" target="_top" xlink:title=" ">
<polygon fill="white" stroke="#666666" points="696,-289.5 547,-289.5 547,-270.5 696,-270.5 696,-289.5"/>
<text text-anchor="middle" x="621.5" y="-277.5" font-family="Helvetica,sans-Serif" font-size="10.00">GameEngine_OTRSigCheck</text>
</a>
</g>
</g>
<!-- Node2&#45;&gt;Node3 -->
<g id="edge3_Node000002_Node000003" class="edge">
<title>Node2&#45;&gt;Node3</title>
<g id="a_edge3_Node000002_Node000003"><a xlink:title=" ">
<path fill="none" stroke="#63b8ff" d="M500.54,-291.43C512.32,-290.3 524.67,-289.13 536.78,-287.97"/>
<polygon fill="#63b8ff" stroke="#63b8ff" points="537.26,-291.44 546.88,-287.01 536.59,-284.48 537.26,-291.44"/>
</a>
</g>
</g>
<!-- Node5 -->
<g id="Node000005" class="node">
<title>Node5</title>
<g id="a_Node000005"><a xlink:href="collision_8c.html#a2419eefe1cdba5b280babacc4a15fc6c" target="_top" xlink:title=" ">
<polygon fill="white" stroke="#666666" points="657,-326.5 586,-326.5 586,-307.5 657,-307.5 657,-326.5"/>
<text text-anchor="middle" x="621.5" y="-314.5" font-family="Helvetica,sans-Serif" font-size="10.00">is_cull_box</text>
</a>
</g>
</g>
<!-- Node2&#45;&gt;Node5 -->
<g id="edge5_Node000002_Node000005" class="edge">
<title>Node2&#45;&gt;Node5</title>
<g id="a_edge5_Node000002_Node000005"><a xlink:title=" ">
<path fill="none" stroke="#63b8ff" d="M500.54,-304.94C525.57,-307.46 553.18,-310.23 575.6,-312.49"/>
<polygon fill="#63b8ff" stroke="#63b8ff" points="575.52,-316 585.82,-313.51 576.22,-309.03 575.52,-316"/>
</a>
</g>
</g>
<!-- Node6 -->
<g id="Node000006" class="node">
<title>Node6</title>
<g id="a_Node000006"><a xlink:href="collision_8c.html#ae34213badc2dd781cab43c88b1e3fdce" target="_top" xlink:title=" ">
<polygon fill="white" stroke="#666666" points="676,-363.5 567,-363.5 567,-344.5 676,-344.5 676,-363.5"/>
<text text-anchor="middle" x="621.5" y="-351.5" font-family="Helvetica,sans-Serif" font-size="10.00">set_vertex_colours</text>
</a>
</g>
</g>
<!-- Node2&#45;&gt;Node6 -->
<g id="edge7_Node000002_Node000006" class="edge">
<title>Node2&#45;&gt;Node6</title>
<g id="a_edge7_Node000002_Node000006"><a xlink:title=" ">
<path fill="none" stroke="#63b8ff" d="M458.39,-307.5C481.68,-315.58 516.36,-327.22 547,-336 554.2,-338.06 561.84,-340.1 569.36,-342.02"/>
<polygon fill="#63b8ff" stroke="#63b8ff" points="568.59,-345.43 579.15,-344.47 570.29,-338.64 568.59,-345.43"/>
</a>
</g>
</g>
<!-- Node4 -->
<g id="Node000004" class="node">
<title>Node4</title>
<g id="a_Node000004"><a xlink:href="string_8c.html#a008e171a518fe0e0352f31b245e03875" target="_top" xlink:title=" ">
<polygon fill="white" stroke="#666666" points="815.5,-307.5 771.5,-307.5 771.5,-288.5 815.5,-288.5 815.5,-307.5"/>
<text text-anchor="middle" x="793.5" y="-295.5" font-family="Helvetica,sans-Serif" font-size="10.00">strlen</text>
</a>
</g>
</g>
<!-- Node3&#45;&gt;Node4 -->
<g id="edge4_Node000003_Node000004" class="edge">
<title>Node3&#45;&gt;Node4</title>
<g id="a_edge4_Node000003_Node000004"><a xlink:title=" ">
<path fill="none" stroke="#63b8ff" d="M696.08,-287.79C718.88,-290.2 742.8,-292.74 761.11,-294.68"/>
<polygon fill="#63b8ff" stroke="#63b8ff" points="760.88,-298.17 771.2,-295.74 761.62,-291.21 760.88,-298.17"/>
</a>
</g>
</g>
<!-- Node5&#45;&gt;Node4 -->
<g id="edge6_Node000005_Node000004" class="edge">
<title>Node5&#45;&gt;Node4</title>
<g id="a_edge6_Node000005_Node000004"><a xlink:title=" ">
<path fill="none" stroke="#63b8ff" d="M657.31,-313.11C687.77,-309.71 731.61,-304.81 761.03,-301.52"/>
<polygon fill="#63b8ff" stroke="#63b8ff" points="761.61,-304.97 771.16,-300.38 760.84,-298.02 761.61,-304.97"/>
</a>
</g>
</g>
<!-- Node8 -->
<g id="Node000008" class="node">
<title>Node8</title>
<g id="a_Node000008"><a xlink:href="collision_8c.html#aa1116ededb9ebc0ee976259f02fe2a4e" target="_top" xlink:title=" ">
<polygon fill="white" stroke="#666666" points="495.5,-55.5 365.5,-55.5 365.5,-36.5 495.5,-36.5 495.5,-55.5"/>
<text text-anchor="middle" x="430.5" y="-43.5" font-family="Helvetica,sans-Serif" font-size="10.00">generate_collision_grid</text>
</a>
</g>
</g>
<!-- Node7&#45;&gt;Node8 -->
<g id="edge9_Node000007_Node000008" class="edge">
<title>Node7&#45;&gt;Node8</title>
<g id="a_edge9_Node000007_Node000008"><a xlink:title=" ">
<path fill="none" stroke="#63b8ff" d="M277.7,-76.05C305.56,-70.54 341.56,-63.41 371.51,-57.48"/>
<polygon fill="#63b8ff" stroke="#63b8ff" points="372.29,-60.89 381.42,-55.52 370.93,-54.03 372.29,-60.89"/>
</a>
</g>
</g>
<!-- Node9 -->
<g id="Node000009" class="node">
<title>Node9</title>
<g id="a_Node000009"><a xlink:href="collision_8c.html#a4e4ec74302aec60828a8d271390f7631" target="_top" xlink:title=" ">
<polygon fill="white" stroke="#666666" points="687,-30 556,-30 556,0 687,0 687,-30"/>
<text text-anchor="start" x="564" y="-18" font-family="Helvetica,sans-Serif" font-size="10.00">is_triangle_intersecting</text>
<text text-anchor="middle" x="621.5" y="-7" font-family="Helvetica,sans-Serif" font-size="10.00">_bounding_box</text>
</a>
</g>
</g>
<!-- Node8&#45;&gt;Node9 -->
<g id="edge10_Node000008_Node000009" class="edge">
<title>Node8&#45;&gt;Node9</title>
<g id="a_edge10_Node000008_Node000009"><a xlink:title=" ">
<path fill="none" stroke="#63b8ff" d="M489.49,-36.49C507.24,-33.58 527.03,-30.33 545.73,-27.26"/>
<polygon fill="#63b8ff" stroke="#63b8ff" points="546.39,-30.7 555.69,-25.63 545.26,-23.79 546.39,-30.7"/>
</a>
</g>
</g>
<!-- Node10 -->
<g id="Node000010" class="node">
<title>Node10</title>
<g id="a_Node000010"><a xlink:href="collision_8c.html#a7ef4f800cb44ad39ca233d0c76ce039a" target="_top" xlink:title=" ">
<polygon fill="white" stroke="#666666" points="849,-30 738,-30 738,0 849,0 849,-30"/>
<text text-anchor="start" x="746" y="-18" font-family="Helvetica,sans-Serif" font-size="10.00">is_line_intersecting</text>
<text text-anchor="middle" x="793.5" y="-7" font-family="Helvetica,sans-Serif" font-size="10.00">_rectangle</text>
</a>
</g>
</g>
<!-- Node9&#45;&gt;Node10 -->
<g id="edge11_Node000009_Node000010" class="edge">
<title>Node9&#45;&gt;Node10</title>
<g id="a_edge11_Node000009_Node000010"><a xlink:title=" ">
<path fill="none" stroke="#63b8ff" d="M687.25,-15C700.56,-15 714.58,-15 727.88,-15"/>
<polygon fill="#63b8ff" stroke="#63b8ff" points="727.89,-18.5 737.89,-15 727.89,-11.5 727.89,-18.5"/>
</a>
</g>
</g>
<!-- Node12 -->
<g id="Node000012" class="node">
<title>Node12</title>
<g id="a_Node000012"><a xlink:href="Track_8cpp.html#ad29b2b4706dd79c5d6239851b61530d4" target="_top" xlink:title=" ">
<polygon fill="white" stroke="#666666" points="511,-113.5 350,-113.5 350,-94.5 511,-94.5 511,-113.5"/>
<text text-anchor="middle" x="430.5" y="-101.5" font-family="Helvetica,sans-Serif" font-size="10.00">InvertTriangleWindingInternal</text>
</a>
</g>
</g>
<!-- Node11&#45;&gt;Node12 -->
<g id="edge13_Node000011_Node000012" class="edge">
<title>Node11&#45;&gt;Node12</title>
<g id="a_edge13_Node000011_Node000012"><a xlink:title=" ">
<path fill="none" stroke="#63b8ff" d="M314.05,-114.55C322.57,-113.77 331.27,-112.98 339.87,-112.19"/>
<polygon fill="#63b8ff" stroke="#63b8ff" points="340.27,-115.67 349.91,-111.27 339.64,-108.7 340.27,-115.67"/>
</a>
</g>
</g>
<!-- Node12&#45;&gt;Node3 -->
<g id="edge14_Node000012_Node000003" class="edge">
<title>Node12&#45;&gt;Node3</title>
<g id="a_edge14_Node000012_Node000003"><a xlink:title=" ">
<path fill="none" stroke="#63b8ff" d="M442.65,-113.71C459.14,-128.5 490.32,-158.11 511,-188 531.81,-218.08 518.54,-239.03 547,-262 548.57,-263.27 550.22,-264.45 551.93,-265.55"/>
<polygon fill="#63b8ff" stroke="#63b8ff" points="550.46,-268.73 560.92,-270.4 553.78,-262.57 550.46,-268.73"/>
</a>
</g>
</g>
<!-- Node12&#45;&gt;Node12 -->
<g id="edge15_Node000012_Node000012" class="edge">
<title>Node12&#45;&gt;Node12</title>
<g id="a_edge15_Node000012_Node000012"><a xlink:title=" ">
<path fill="none" stroke="#63b8ff" d="M401.22,-113.58C386.97,-122.23 396.73,-131.5 430.5,-131.5 453.72,-131.5 465.59,-127.12 466.11,-121.57"/>
<polygon fill="#63b8ff" stroke="#63b8ff" points="468.73,-119.25 459.78,-113.58 463.25,-123.6 468.73,-119.25"/>
</a>
</g>
</g>
<!-- Node13 -->
<g id="Node000013" class="node">
<title>Node13</title>
<g id="a_Node000013"><a xlink:href="Track_8cpp.html#ab01e041d195d4b8a1029c8b9532b0600" target="_top" xlink:title=" ">
<polygon fill="white" stroke="#666666" points="662.5,-104.5 580.5,-104.5 580.5,-85.5 662.5,-85.5 662.5,-104.5"/>
<text text-anchor="middle" x="621.5" y="-92.5" font-family="Helvetica,sans-Serif" font-size="10.00">StripOtrPrefix</text>
</a>
</g>
</g>
<!-- Node12&#45;&gt;Node13 -->
<g id="edge16_Node000012_Node000013" class="edge">
<title>Node12&#45;&gt;Node13</title>
<g id="a_edge16_Node000012_Node000013"><a xlink:title=" ">
<path fill="none" stroke="#63b8ff" d="M511.11,-100.21C531.19,-99.25 552.19,-98.25 570.36,-97.39"/>
<polygon fill="#63b8ff" stroke="#63b8ff" points="570.59,-100.88 580.42,-96.91 570.26,-93.89 570.59,-100.88"/>
</a>
</g>
</g>
<!-- Node14 -->
<g id="Node000014" class="node">
<title>Node14</title>
<g id="a_Node000014"><a xlink:href="Track_8cpp.html#a5bae290668f6b484d13626d67e16cc3f" target="_top" xlink:title=" ">
<polygon fill="white" stroke="#666666" points="681.5,-67.5 561.5,-67.5 561.5,-48.5 681.5,-48.5 681.5,-67.5"/>
<text text-anchor="middle" x="621.5" y="-55.5" font-family="Helvetica,sans-Serif" font-size="10.00">SwapTriangleVertices</text>
</a>
</g>
</g>
<!-- Node12&#45;&gt;Node14 -->
<g id="edge17_Node000012_Node000014" class="edge">
<title>Node12&#45;&gt;Node14</title>
<g id="a_edge17_Node000012_Node000014"><a xlink:title=" ">
<path fill="none" stroke="#63b8ff" d="M470.66,-94.47C499.93,-87.35 540.14,-77.56 571.53,-69.92"/>
<polygon fill="#63b8ff" stroke="#63b8ff" points="572.5,-73.28 581.39,-67.52 570.85,-66.48 572.5,-73.28"/>
</a>
</g>
</g>
<!-- Node16 -->
<g id="Node000016" class="node">
<title>Node16</title>
<g id="a_Node000016"><a xlink:href="collision_8c.html#a3081198f925be148fc9f05897a3bddd3" target="_top" xlink:title=" ">
<polygon fill="white" stroke="#666666" points="499.5,-215.5 361.5,-215.5 361.5,-196.5 499.5,-196.5 499.5,-215.5"/>
<text text-anchor="middle" x="430.5" y="-203.5" font-family="Helvetica,sans-Serif" font-size="10.00">generate_collision_mesh</text>
</a>
</g>
</g>
<!-- Node15&#45;&gt;Node16 -->
<g id="edge19_Node000015_Node000016" class="edge">
<title>Node15&#45;&gt;Node16</title>
<g id="a_edge19_Node000015_Node000016"><a xlink:title=" ">
<path fill="none" stroke="#63b8ff" d="M298.65,-199.36C315.47,-200.21 333.7,-201.14 351.07,-202.02"/>
<polygon fill="#63b8ff" stroke="#63b8ff" points="351.01,-205.52 361.17,-202.53 351.36,-198.53 351.01,-205.52"/>
</a>
</g>
</g>
<!-- Node16&#45;&gt;Node3 -->
<g id="edge20_Node000016_Node000003" class="edge">
<title>Node16&#45;&gt;Node3</title>
<g id="a_edge20_Node000016_Node000003"><a xlink:title=" ">
<path fill="none" stroke="#63b8ff" d="M448.23,-215.51C470.27,-227.71 510.52,-248.86 547,-262 552.84,-264.1 559.03,-266.04 565.24,-267.81"/>
<polygon fill="#63b8ff" stroke="#63b8ff" points="564.4,-271.21 574.96,-270.44 566.22,-264.45 564.4,-271.21"/>
</a>
</g>
</g>
<!-- Node16&#45;&gt;Node5 -->
<g id="edge22_Node000016_Node000005" class="edge">
<title>Node16&#45;&gt;Node5</title>
<g id="a_edge22_Node000016_Node000005"><a xlink:title=" ">
<path fill="none" stroke="#63b8ff" d="M440.38,-215.54C458.54,-234.44 502,-276.76 547,-299 555.92,-303.41 565.99,-306.78 575.75,-309.35"/>
<polygon fill="#63b8ff" stroke="#63b8ff" points="575.21,-312.82 585.75,-311.74 576.84,-306.01 575.21,-312.82"/>
</a>
</g>
</g>
<!-- Node16&#45;&gt;Node16 -->
<g id="edge21_Node000016_Node000016" class="edge">
<title>Node16&#45;&gt;Node16</title>
<g id="a_edge21_Node000016_Node000016"><a xlink:title=" ">
<path fill="none" stroke="#63b8ff" d="M401.22,-215.58C386.97,-224.23 396.73,-233.5 430.5,-233.5 453.72,-233.5 465.59,-229.12 466.11,-223.57"/>
<polygon fill="#63b8ff" stroke="#63b8ff" points="468.73,-221.25 459.78,-215.58 463.25,-225.6 468.73,-221.25"/>
</a>
</g>
</g>
<!-- Node17 -->
<g id="Node000017" class="node">
<title>Node17</title>
<g id="a_Node000017"><a xlink:href="collision_8c.html#a30eb531df39ba558cd733e1d1cd6aaa0" target="_top" xlink:title=" ">
<polygon fill="white" stroke="#666666" points="664.5,-252.5 578.5,-252.5 578.5,-233.5 664.5,-233.5 664.5,-252.5"/>
<text text-anchor="middle" x="621.5" y="-240.5" font-family="Helvetica,sans-Serif" font-size="10.00">set_vtx_buffer</text>
</a>
</g>
</g>
<!-- Node16&#45;&gt;Node17 -->
<g id="edge23_Node000016_Node000017" class="edge">
<title>Node16&#45;&gt;Node17</title>
<g id="a_edge23_Node000016_Node000017"><a xlink:title=" ">
<path fill="none" stroke="#63b8ff" d="M480.17,-215.53C507.25,-220.83 540.96,-227.43 568.55,-232.83"/>
<polygon fill="#63b8ff" stroke="#63b8ff" points="567.93,-236.27 578.41,-234.76 569.27,-229.4 567.93,-236.27"/>
</a>
</g>
</g>
<!-- Node18 -->
<g id="Node000018" class="node">
<title>Node18</title>
<g id="a_Node000018"><a xlink:href="collision_8c.html#a593833ca3f04f0c7d8f5dcabe6430115" target="_top" xlink:title=" ">
<polygon fill="white" stroke="#666666" points="692,-215.5 551,-215.5 551,-196.5 692,-196.5 692,-215.5"/>
<text text-anchor="middle" x="621.5" y="-203.5" font-family="Helvetica,sans-Serif" font-size="10.00">set_vtx_from_quadrangle</text>
</a>
</g>
</g>
<!-- Node16&#45;&gt;Node18 -->
<g id="edge24_Node000016_Node000018" class="edge">
<title>Node16&#45;&gt;Node18</title>
<g id="a_edge24_Node000016_Node000018"><a xlink:title=" ">
<path fill="none" stroke="#63b8ff" d="M499.73,-206C512.96,-206 526.94,-206 540.5,-206"/>
<polygon fill="#63b8ff" stroke="#63b8ff" points="540.78,-209.5 550.78,-206 540.78,-202.5 540.78,-209.5"/>
</a>
</g>
</g>
<!-- Node22 -->
<g id="Node000022" class="node">
<title>Node22</title>
<g id="a_Node000022"><a xlink:href="collision_8c.html#ac558a6e1314f154bbf53aaf15396ea1e" target="_top" xlink:title=" ">
<polygon fill="white" stroke="#666666" points="673,-178.5 570,-178.5 570,-159.5 673,-159.5 673,-178.5"/>
<text text-anchor="middle" x="621.5" y="-166.5" font-family="Helvetica,sans-Serif" font-size="10.00">set_vtx_from_tri2</text>
</a>
</g>
</g>
<!-- Node16&#45;&gt;Node22 -->
<g id="edge28_Node000016_Node000022" class="edge">
<title>Node16&#45;&gt;Node22</title>
<g id="a_edge28_Node000016_Node000022"><a xlink:title=" ">
<path fill="none" stroke="#63b8ff" d="M480.17,-196.47C505.1,-191.59 535.63,-185.61 561.85,-180.48"/>
<polygon fill="#63b8ff" stroke="#63b8ff" points="562.52,-183.92 571.66,-178.56 561.18,-177.05 562.52,-183.92"/>
</a>
</g>
</g>
<!-- Node23 -->
<g id="Node000023" class="node">
<title>Node23</title>
<g id="a_Node000023"><a xlink:href="collision_8c.html#a335dc7fed8a2540ca0a5b0a466545845" target="_top" xlink:title=" ">
<polygon fill="white" stroke="#666666" points="683.5,-141.5 559.5,-141.5 559.5,-122.5 683.5,-122.5 683.5,-141.5"/>
<text text-anchor="middle" x="621.5" y="-129.5" font-family="Helvetica,sans-Serif" font-size="10.00">set_vtx_from_triangle</text>
</a>
</g>
</g>
<!-- Node16&#45;&gt;Node23 -->
<g id="edge30_Node000016_Node000023" class="edge">
<title>Node16&#45;&gt;Node23</title>
<g id="a_edge30_Node000016_Node000023"><a xlink:title=" ">
<path fill="none" stroke="#63b8ff" d="M449.05,-196.34C471.3,-184.39 511.1,-164.05 547,-151 553.73,-148.55 560.91,-146.29 568.05,-144.24"/>
<polygon fill="#63b8ff" stroke="#63b8ff" points="569,-147.61 577.71,-141.59 567.14,-140.86 569,-147.61"/>
</a>
</g>
</g>
<!-- Node19 -->
<g id="Node000019" class="node">
<title>Node19</title>
<g id="a_Node000019"><a xlink:href="collision_8c.html#a8c516edee107b39b30bb3a4d3c54534a" target="_top" xlink:title=" ">
<polygon fill="white" stroke="#666666" points="855,-178.5 732,-178.5 732,-159.5 855,-159.5 855,-178.5"/>
<text text-anchor="middle" x="793.5" y="-166.5" font-family="Helvetica,sans-Serif" font-size="10.00">add_collision_triangle</text>
</a>
</g>
</g>
<!-- Node18&#45;&gt;Node19 -->
<g id="edge25_Node000018_Node000019" class="edge">
<title>Node18&#45;&gt;Node19</title>
<g id="a_edge25_Node000018_Node000019"><a xlink:title=" ">
<path fill="none" stroke="#63b8ff" d="M666.28,-196.47C688.3,-191.68 715.2,-185.82 738.5,-180.75"/>
<polygon fill="#63b8ff" stroke="#63b8ff" points="739.55,-184.11 748.57,-178.56 738.06,-177.27 739.55,-184.11"/>
</a>
</g>
</g>
<!-- Node20 -->
<g id="Node000020" class="node">
<title>Node20</title>
<g id="a_Node000020"><a xlink:href="RaceManager_8cpp.html#a693bf81394ee91ac6be58f7481471619" target="_top" xlink:title=" ">
<polygon fill="white" stroke="#666666" points="1061,-197.5 891,-197.5 891,-178.5 1061,-178.5 1061,-197.5"/>
<text text-anchor="middle" x="976" y="-185.5" font-family="Helvetica,sans-Serif" font-size="10.00">add_triangle_to_collision_mesh</text>
</a>
</g>
</g>
<!-- Node19&#45;&gt;Node20 -->
<g id="edge26_Node000019_Node000020" class="edge">
<title>Node19&#45;&gt;Node20</title>
<g id="a_edge26_Node000019_Node000020"><a xlink:title=" ">
<path fill="none" stroke="#63b8ff" d="M855.11,-175.38C863.35,-176.25 871.97,-177.15 880.63,-178.07"/>
<polygon fill="#63b8ff" stroke="#63b8ff" points="880.5,-181.57 890.81,-179.14 881.23,-174.61 880.5,-181.57"/>
</a>
</g>
</g>
<!-- Node21 -->
<g id="Node000021" class="node">
<title>Node21</title>
<g id="a_Node000021"><a xlink:href="math_8h.html#a37bde043e94a6f074c78f10518fb5d99" target="_top" xlink:title=" ">
<polygon fill="white" stroke="#666666" points="995.5,-160.5 956.5,-160.5 956.5,-141.5 995.5,-141.5 995.5,-160.5"/>
<text text-anchor="middle" x="976" y="-148.5" font-family="Helvetica,sans-Serif" font-size="10.00">sqrtf</text>
</a>
</g>
</g>
<!-- Node19&#45;&gt;Node21 -->
<g id="edge27_Node000019_Node000021" class="edge">
<title>Node19&#45;&gt;Node21</title>
<g id="a_edge27_Node000019_Node000021"><a xlink:title=" ">
<path fill="none" stroke="#63b8ff" d="M855.11,-162.96C885.8,-159.9 921.63,-156.32 946.07,-153.88"/>
<polygon fill="#63b8ff" stroke="#63b8ff" points="946.52,-157.36 956.13,-152.88 945.83,-150.39 946.52,-157.36"/>
</a>
</g>
</g>
<!-- Node22&#45;&gt;Node19 -->
<g id="edge29_Node000022_Node000019" class="edge">
<title>Node22&#45;&gt;Node19</title>
<g id="a_edge29_Node000022_Node000019"><a xlink:title=" ">
<path fill="none" stroke="#63b8ff" d="M673.05,-169C688.36,-169 705.48,-169 721.86,-169"/>
<polygon fill="#63b8ff" stroke="#63b8ff" points="721.95,-172.5 731.95,-169 721.95,-165.5 721.95,-172.5"/>
</a>
</g>
</g>
<!-- Node23&#45;&gt;Node19 -->
<g id="edge31_Node000023_Node000019" class="edge">
<title>Node23&#45;&gt;Node19</title>
<g id="a_edge31_Node000023_Node000019"><a xlink:title=" ">
<path fill="none" stroke="#63b8ff" d="M666.28,-141.53C688.3,-146.32 715.2,-152.18 738.5,-157.25"/>
<polygon fill="#63b8ff" stroke="#63b8ff" points="738.06,-160.73 748.57,-159.44 739.55,-153.89 738.06,-160.73"/>
</a>
</g>
</g>
</g>
</svg>
