<?xml version="1.0" encoding="UTF-8" standalone="no"?>
<!DOCTYPE svg PUBLIC "-//W3C//DTD SVG 1.1//EN"
 "http://www.w3.org/Graphics/SVG/1.1/DTD/svg11.dtd">
<!-- Generated by graphviz version 2.43.0 (0)
 -->
<!-- Title: DKJungle::Render Pages: 1 -->
<svg width="702pt" height="232pt"
 viewBox="0.00 0.00 702.00 232.00" xmlns="http://www.w3.org/2000/svg" xmlns:xlink="http://www.w3.org/1999/xlink">
<g id="graph0" class="graph" transform="scale(1 1) rotate(0) translate(4 228)">
<title>DKJungle::Render</title>
<!-- Node1 -->
<g id="Node000001" class="node">
<title>Node1</title>
<g id="a_Node000001"><a xlink:title=" ">
<polygon fill="#999999" stroke="#666666" points="101,-167 0,-167 0,-148 101,-148 101,-167"/>
<text text-anchor="middle" x="50.5" y="-155" font-family="Helvetica,sans-Serif" font-size="10.00">DKJungle::Render</text>
</a>
</g>
</g>
<!-- Node2 -->
<g id="Node000002" class="node">
<title>Node2</title>
<g id="a_Node000002"><a xlink:href="render__courses_8c.html#a9a9119b96bf015cf8b5a168485f67e3f" target="_top" xlink:title=" ">
<polygon fill="white" stroke="#666666" points="252.5,-224 160.5,-224 160.5,-205 252.5,-205 252.5,-224"/>
<text text-anchor="middle" x="206.5" y="-212" font-family="Helvetica,sans-Serif" font-size="10.00">func_80290C20</text>
</a>
</g>
</g>
<!-- Node1&#45;&gt;Node2 -->
<g id="edge1_Node000001_Node000002" class="edge">
<title>Node1&#45;&gt;Node2</title>
<g id="a_edge1_Node000001_Node000002"><a xlink:title=" ">
<path fill="none" stroke="#63b8ff" d="M75.75,-167.09C92.82,-173.79 116.24,-182.86 137,-190.5 146.93,-194.16 157.72,-198 167.74,-201.51"/>
<polygon fill="#63b8ff" stroke="#63b8ff" points="166.84,-204.9 177.43,-204.89 169.14,-198.29 166.84,-204.9"/>
</a>
</g>
</g>
<!-- Node3 -->
<g id="Node000003" class="node">
<title>Node3</title>
<g id="a_Node000003"><a xlink:href="GBIMiddleware_8cpp.html#a4ecc44e3c6f1ca5a6b4a20c41d3bd2d2" target="_top" xlink:title=" ">
<polygon fill="white" stroke="#666666" points="415,-204 326,-204 326,-185 415,-185 415,-204"/>
<text text-anchor="middle" x="370.5" y="-192" font-family="Helvetica,sans-Serif" font-size="10.00">gSPDisplayList</text>
</a>
</g>
</g>
<!-- Node1&#45;&gt;Node3 -->
<g id="edge2_Node000001_Node000003" class="edge">
<title>Node1&#45;&gt;Node3</title>
<g id="a_edge2_Node000001_Node000003"><a xlink:title=" ">
<path fill="none" stroke="#63b8ff" d="M101.19,-163.28C159.48,-170.06 255.76,-181.27 315.75,-188.25"/>
<polygon fill="#63b8ff" stroke="#63b8ff" points="315.45,-191.73 325.78,-189.41 316.26,-184.78 315.45,-191.73"/>
</a>
</g>
</g>
<!-- Node6 -->
<g id="Node000006" class="node">
<title>Node6</title>
<g id="a_Node000006"><a xlink:href="render__courses_8c.html#a0c6536cf72cff97ccc3ed5c85967817e" target="_top" xlink:title=" ">
<polygon fill="white" stroke="#666666" points="276,-148 137,-148 137,-129 276,-129 276,-148"/>
<text text-anchor="middle" x="206.5" y="-136" font-family="Helvetica,sans-Serif" font-size="10.00">render_course_segments</text>
</a>
</g>
</g>
<!-- Node1&#45;&gt;Node6 -->
<g id="edge5_Node000001_Node000006" class="edge">
<title>Node1&#45;&gt;Node6</title>
<g id="a_edge5_Node000001_Node000006"><a xlink:title=" ">
<path fill="none" stroke="#63b8ff" d="M101.07,-151.38C109.38,-150.36 118.17,-149.27 127,-148.19"/>
<polygon fill="#63b8ff" stroke="#63b8ff" points="127.44,-151.66 136.94,-146.96 126.59,-144.71 127.44,-151.66"/>
</a>
</g>
</g>
<!-- Node10 -->
<g id="Node000010" class="node">
<title>Node10</title>
<g id="a_Node000010"><a xlink:href="math__util_8c.html#ae3e380239986384fef7c10e23eced83f" target="_top" xlink:title=" ">
<polygon fill="white" stroke="#666666" points="275,-56 138,-56 138,-37 275,-37 275,-56"/>
<text text-anchor="middle" x="206.5" y="-44" font-family="Helvetica,sans-Serif" font-size="10.00">set_track_light_direction</text>
</a>
</g>
</g>
<!-- Node1&#45;&gt;Node10 -->
<g id="edge10_Node000001_Node000010" class="edge">
<title>Node1&#45;&gt;Node10</title>
<g id="a_edge10_Node000001_Node000010"><a xlink:title=" ">
<path fill="none" stroke="#63b8ff" d="M64.9,-147.84C91.52,-128.66 151.29,-85.57 183.67,-62.23"/>
<polygon fill="#63b8ff" stroke="#63b8ff" points="185.96,-64.9 192.02,-56.21 181.87,-59.22 185.96,-64.9"/>
</a>
</g>
</g>
<!-- Node4 -->
<g id="Node000004" class="node">
<title>Node4</title>
<g id="a_Node000004"><a xlink:href="Engine_8cpp.html#a223c8bc63f228dc11177515e38eff2db" target="_top" xlink:title=" ">
<polygon fill="white" stroke="#666666" points="614,-204 465,-204 465,-185 614,-185 614,-204"/>
<text text-anchor="middle" x="539.5" y="-192" font-family="Helvetica,sans-Serif" font-size="10.00">GameEngine_OTRSigCheck</text>
</a>
</g>
</g>
<!-- Node3&#45;&gt;Node4 -->
<g id="edge3_Node000003_Node000004" class="edge">
<title>Node3&#45;&gt;Node4</title>
<g id="a_edge3_Node000003_Node000004"><a xlink:title=" ">
<path fill="none" stroke="#63b8ff" d="M415.38,-194.5C427.47,-194.5 441,-194.5 454.55,-194.5"/>
<polygon fill="#63b8ff" stroke="#63b8ff" points="454.89,-198 464.89,-194.5 454.89,-191 454.89,-198"/>
</a>
</g>
</g>
<!-- Node5 -->
<g id="Node000005" class="node">
<title>Node5</title>
<g id="a_Node000005"><a xlink:href="string_8c.html#a008e171a518fe0e0352f31b245e03875" target="_top" xlink:title=" ">
<polygon fill="white" stroke="#666666" points="694,-204 650,-204 650,-185 694,-185 694,-204"/>
<text text-anchor="middle" x="672" y="-192" font-family="Helvetica,sans-Serif" font-size="10.00">strlen</text>
</a>
</g>
</g>
<!-- Node4&#45;&gt;Node5 -->
<g id="edge4_Node000004_Node000005" class="edge">
<title>Node4&#45;&gt;Node5</title>
<g id="a_edge4_Node000004_Node000005"><a xlink:title=" ">
<path fill="none" stroke="#63b8ff" d="M614.14,-194.5C623.12,-194.5 631.89,-194.5 639.75,-194.5"/>
<polygon fill="#63b8ff" stroke="#63b8ff" points="639.83,-198 649.83,-194.5 639.83,-191 639.83,-198"/>
</a>
</g>
</g>
<!-- Node6&#45;&gt;Node3 -->
<g id="edge7_Node000006_Node000003" class="edge">
<title>Node6&#45;&gt;Node3</title>
<g id="a_edge7_Node000006_Node000003"><a xlink:title=" ">
<path fill="none" stroke="#63b8ff" d="M235.57,-148.09C248,-152.4 262.76,-157.61 276,-162.5 292.1,-168.45 295.8,-170.82 312,-176.5 317.18,-178.32 322.66,-180.15 328.09,-181.9"/>
<polygon fill="#63b8ff" stroke="#63b8ff" points="327.15,-185.28 337.74,-184.98 329.27,-178.61 327.15,-185.28"/>
</a>
</g>
</g>
<!-- Node7 -->
<g id="Node000007" class="node">
<title>Node7</title>
<g id="a_Node000007"><a xlink:href="collision_8c.html#a053809031f467d0a6747788211e0ec69" target="_top" xlink:title=" ">
<polygon fill="white" stroke="#666666" points="429,-167 312,-167 312,-148 429,-148 429,-167"/>
<text text-anchor="middle" x="370.5" y="-155" font-family="Helvetica,sans-Serif" font-size="10.00">get_track_section_id</text>
</a>
</g>
</g>
<!-- Node6&#45;&gt;Node7 -->
<g id="edge6_Node000006_Node000007" class="edge">
<title>Node6&#45;&gt;Node7</title>
<g id="a_edge6_Node000006_Node000007"><a xlink:title=" ">
<path fill="none" stroke="#63b8ff" d="M276.2,-146.56C284.66,-147.55 293.31,-148.56 301.75,-149.55"/>
<polygon fill="#63b8ff" stroke="#63b8ff" points="301.59,-153.06 311.93,-150.75 302.41,-146.11 301.59,-153.06"/>
</a>
</g>
</g>
<!-- Node8 -->
<g id="Node000008" class="node">
<title>Node8</title>
<g id="a_Node000008"><a xlink:href="Game_8cpp.html#a8ebd6a4d970e4333ab5a9dd66c3d9c48" target="_top" xlink:title=" ">
<polygon fill="white" stroke="#666666" points="419,-130 322,-130 322,-111 419,-111 419,-130"/>
<text text-anchor="middle" x="370.5" y="-118" font-family="Helvetica,sans-Serif" font-size="10.00">IsBowsersCastle</text>
</a>
</g>
</g>
<!-- Node6&#45;&gt;Node8 -->
<g id="edge8_Node000006_Node000008" class="edge">
<title>Node6&#45;&gt;Node8</title>
<g id="a_edge8_Node000006_Node000008"><a xlink:title=" ">
<path fill="none" stroke="#63b8ff" d="M276.2,-130.87C287.96,-129.56 300.06,-128.22 311.5,-126.94"/>
<polygon fill="#63b8ff" stroke="#63b8ff" points="312.24,-130.38 321.79,-125.8 311.46,-123.43 312.24,-130.38"/>
</a>
</g>
</g>
<!-- Node9 -->
<g id="Node000009" class="node">
<title>Node9</title>
<g id="a_Node000009"><a xlink:href="Game_8cpp.html#a9f5c2ace915f66e850628695f297b1ff" target="_top" xlink:title=" ">
<polygon fill="white" stroke="#666666" points="421,-93 320,-93 320,-74 421,-74 421,-93"/>
<text text-anchor="middle" x="370.5" y="-81" font-family="Helvetica,sans-Serif" font-size="10.00">IsChocoMountain</text>
</a>
</g>
</g>
<!-- Node6&#45;&gt;Node9 -->
<g id="edge9_Node000006_Node000009" class="edge">
<title>Node6&#45;&gt;Node9</title>
<g id="a_edge9_Node000006_Node000009"><a xlink:title=" ">
<path fill="none" stroke="#63b8ff" d="M234.97,-128.93C256.03,-121.62 285.82,-111.33 312,-102.5 318.01,-100.47 324.39,-98.34 330.62,-96.27"/>
<polygon fill="#63b8ff" stroke="#63b8ff" points="331.83,-99.56 340.22,-93.09 329.63,-92.91 331.83,-99.56"/>
</a>
</g>
</g>
<!-- Node11 -->
<g id="Node000011" class="node">
<title>Node11</title>
<g id="a_Node000011"><a xlink:href="math__util_8c.html#ae69cbf5c8d4b3b0dba2d7b4d4673689f" target="_top" xlink:title=" ">
<polygon fill="white" stroke="#666666" points="389.5,-56 351.5,-56 351.5,-37 389.5,-37 389.5,-56"/>
<text text-anchor="middle" x="370.5" y="-44" font-family="Helvetica,sans-Serif" font-size="10.00">coss</text>
</a>
</g>
</g>
<!-- Node10&#45;&gt;Node11 -->
<g id="edge11_Node000010_Node000011" class="edge">
<title>Node10&#45;&gt;Node11</title>
<g id="a_edge11_Node000010_Node000011"><a xlink:title=" ">
<path fill="none" stroke="#63b8ff" d="M275.26,-46.5C298.35,-46.5 322.91,-46.5 341.17,-46.5"/>
<polygon fill="#63b8ff" stroke="#63b8ff" points="341.39,-50 351.39,-46.5 341.39,-43 341.39,-50"/>
</a>
</g>
</g>
<!-- Node12 -->
<g id="Node000012" class="node">
<title>Node12</title>
<g id="a_Node000012"><a xlink:href="math__util_8c.html#a19ed3bd78fd2d3e2bd0a29f6caf48545" target="_top" xlink:title=" ">
<polygon fill="white" stroke="#666666" points="388.5,-19 352.5,-19 352.5,0 388.5,0 388.5,-19"/>
<text text-anchor="middle" x="370.5" y="-7" font-family="Helvetica,sans-Serif" font-size="10.00">sins</text>
</a>
</g>
</g>
<!-- Node10&#45;&gt;Node12 -->
<g id="edge12_Node000010_Node000012" class="edge">
<title>Node10&#45;&gt;Node12</title>
<g id="a_edge12_Node000010_Node000012"><a xlink:title=" ">
<path fill="none" stroke="#63b8ff" d="M249.22,-36.97C278.42,-30.3 316.61,-21.58 342.05,-15.77"/>
<polygon fill="#63b8ff" stroke="#63b8ff" points="343.13,-19.11 352.1,-13.47 341.57,-12.29 343.13,-19.11"/>
</a>
</g>
</g>
</g>
</svg>
