<?xml version="1.0" encoding="UTF-8" standalone="no"?>
<!DOCTYPE svg PUBLIC "-//W3C//DTD SVG 1.1//EN"
 "http://www.w3.org/Graphics/SVG/1.1/DTD/svg11.dtd">
<!-- Generated by graphviz version 2.43.0 (0)
 -->
<!-- Title: OFlagpole::func_80055164 Pages: 1 -->
<svg width="1416pt" height="320pt"
 viewBox="0.00 0.00 1416.00 320.48" xmlns="http://www.w3.org/2000/svg" xmlns:xlink="http://www.w3.org/1999/xlink">
<g id="graph0" class="graph" transform="scale(1 1) rotate(0) translate(4 316.48)">
<title>OFlagpole::func_80055164</title>
<!-- Node1 -->
<g id="Node000001" class="node">
<title>Node1</title>
<g id="a_Node000001"><a xlink:title=" ">
<polygon fill="#999999" stroke="#666666" points="146,-217.62 0,-217.62 0,-198.62 146,-198.62 146,-217.62"/>
<text text-anchor="middle" x="73" y="-205.62" font-family="Helvetica,sans-Serif" font-size="10.00">OFlagpole::func_80055164</text>
</a>
</g>
</g>
<!-- Node2 -->
<g id="Node000002" class="node">
<title>Node2</title>
<g id="a_Node000002"><a xlink:href="FrameInterpolation_8cpp.html#a3a036bc9d533e28a4e9697cd20dccf3e" target="_top" xlink:title=" ">
<polygon fill="white" stroke="#666666" points="834,-307.12 724,-307.12 724,-277.12 834,-277.12 834,-307.12"/>
<text text-anchor="start" x="732" y="-295.12" font-family="Helvetica,sans-Serif" font-size="10.00">FrameInterpolation</text>
<text text-anchor="middle" x="779" y="-284.12" font-family="Helvetica,sans-Serif" font-size="10.00">_RecordCloseChild</text>
</a>
</g>
</g>
<!-- Node1&#45;&gt;Node2 -->
<g id="edge1_Node000001_Node000002" class="edge">
<title>Node1&#45;&gt;Node2</title>
<g id="a_edge1_Node000001_Node000002"><a xlink:title=" ">
<path fill="none" stroke="#63b8ff" d="M103,-217.72C124.56,-224.47 154.82,-233.16 182,-238.12 373.34,-273.07 603.56,-285.78 713.47,-290.09"/>
<polygon fill="#63b8ff" stroke="#63b8ff" points="713.6,-293.6 723.73,-290.48 713.87,-286.61 713.6,-293.6"/>
</a>
</g>
</g>
<!-- Node4 -->
<g id="Node000004" class="node">
<title>Node4</title>
<g id="a_Node000004"><a xlink:href="FrameInterpolation_8cpp.html#a0eda726b74eac815af4e874014e2727c" target="_top" xlink:title=" ">
<polygon fill="white" stroke="#666666" points="834,-259.12 724,-259.12 724,-229.12 834,-229.12 834,-259.12"/>
<text text-anchor="start" x="732" y="-247.12" font-family="Helvetica,sans-Serif" font-size="10.00">FrameInterpolation</text>
<text text-anchor="middle" x="779" y="-236.12" font-family="Helvetica,sans-Serif" font-size="10.00">_RecordOpenChild</text>
</a>
</g>
</g>
<!-- Node1&#45;&gt;Node4 -->
<g id="edge3_Node000001_Node000004" class="edge">
<title>Node1&#45;&gt;Node4</title>
<g id="a_edge3_Node000001_Node000004"><a xlink:title=" ">
<path fill="none" stroke="#63b8ff" d="M146.26,-216.86C158.19,-218.1 170.43,-219.25 182,-220.12 375.07,-234.72 604.03,-240.8 713.48,-243.01"/>
<polygon fill="#63b8ff" stroke="#63b8ff" points="713.62,-246.52 723.69,-243.22 713.76,-239.52 713.62,-246.52"/>
</a>
</g>
</g>
<!-- Node5 -->
<g id="Node000005" class="node">
<title>Node5</title>
<g id="a_Node000005"><a xlink:href="GBIMiddleware_8cpp.html#a4ecc44e3c6f1ca5a6b4a20c41d3bd2d2" target="_top" xlink:title=" ">
<polygon fill="white" stroke="#666666" points="823.5,-210.62 734.5,-210.62 734.5,-191.62 823.5,-191.62 823.5,-210.62"/>
<text text-anchor="middle" x="779" y="-198.62" font-family="Helvetica,sans-Serif" font-size="10.00">gSPDisplayList</text>
</a>
</g>
</g>
<!-- Node1&#45;&gt;Node5 -->
<g id="edge5_Node000001_Node000005" class="edge">
<title>Node1&#45;&gt;Node5</title>
<g id="a_edge5_Node000001_Node000005"><a xlink:title=" ">
<path fill="none" stroke="#63b8ff" d="M146.03,-207.41C287.49,-206 598.7,-202.91 724.08,-201.66"/>
<polygon fill="#63b8ff" stroke="#63b8ff" points="724.24,-205.16 734.21,-201.56 724.17,-198.16 724.24,-205.16"/>
</a>
</g>
</g>
<!-- Node8 -->
<g id="Node000008" class="node">
<title>Node8</title>
<g id="a_Node000008"><a xlink:href="animation_8c.html#add052983781b2a8bac8cdd8080d5eaa8" target="_top" xlink:title=" ">
<polygon fill="white" stroke="#666666" points="318,-179.62 182,-179.62 182,-160.62 318,-160.62 318,-179.62"/>
<text text-anchor="middle" x="250" y="-167.62" font-family="Helvetica,sans-Serif" font-size="10.00">render_animated_model</text>
</a>
</g>
</g>
<!-- Node1&#45;&gt;Node8 -->
<g id="edge8_Node000001_Node000008" class="edge">
<title>Node1&#45;&gt;Node8</title>
<g id="a_edge8_Node000001_Node000008"><a xlink:title=" ">
<path fill="none" stroke="#63b8ff" d="M118.16,-198.54C141.57,-193.45 170.51,-187.17 195.21,-181.8"/>
<polygon fill="#63b8ff" stroke="#63b8ff" points="196.13,-185.19 205.16,-179.64 194.64,-178.35 196.13,-185.19"/>
</a>
</g>
</g>
<!-- Node20 -->
<g id="Node000020" class="node">
<title>Node20</title>
<g id="a_Node000020"><a xlink:href="math__util__2_8c.html#a2eff0e02deb703653ee3230fbc02eb14" target="_top" xlink:title="set the matrix to a transformation matrix">
<polygon fill="white" stroke="#666666" points="655,-141.62 488,-141.62 488,-122.62 655,-122.62 655,-141.62"/>
<text text-anchor="middle" x="571.5" y="-129.62" font-family="Helvetica,sans-Serif" font-size="10.00">rsp_set_matrix_transformation</text>
</a>
</g>
</g>
<!-- Node1&#45;&gt;Node20 -->
<g id="edge25_Node000001_Node000020" class="edge">
<title>Node1&#45;&gt;Node20</title>
<g id="a_edge25_Node000001_Node000020"><a xlink:title=" ">
<path fill="none" stroke="#63b8ff" d="M87.5,-198.48C107.18,-185.02 145.4,-161.15 182,-151.12 280.37,-124.19 397.9,-122.42 477.74,-125.5"/>
<polygon fill="#63b8ff" stroke="#63b8ff" points="477.64,-129 487.77,-125.92 477.93,-122.01 477.64,-129"/>
</a>
</g>
</g>
<!-- Node3 -->
<g id="Node000003" class="node">
<title>Node3</title>
<g id="a_Node000003"><a xlink:href="FrameInterpolation_8cpp.html#a02c7ac5342a4d376edee38f312b480bf" target="_top" xlink:title=" ">
<polygon fill="white" stroke="#666666" points="1408,-182.62 1300,-182.62 1300,-163.62 1408,-163.62 1408,-182.62"/>
<text text-anchor="middle" x="1354" y="-170.62" font-family="Helvetica,sans-Serif" font-size="10.00">check_if_recording</text>
</a>
</g>
</g>
<!-- Node2&#45;&gt;Node3 -->
<g id="edge2_Node000002_Node000003" class="edge">
<title>Node2&#45;&gt;Node3</title>
<g id="a_edge2_Node000002_Node000003"><a xlink:title=" ">
<path fill="none" stroke="#63b8ff" d="M834.24,-301.11C927.1,-313.91 1120.4,-329.13 1264,-263.12 1298.09,-247.46 1326.3,-212.66 1341.3,-191.21"/>
<polygon fill="#63b8ff" stroke="#63b8ff" points="1344.37,-192.92 1347.07,-182.67 1338.57,-189 1344.37,-192.92"/>
</a>
</g>
</g>
<!-- Node4&#45;&gt;Node3 -->
<g id="edge4_Node000004_Node000003" class="edge">
<title>Node4&#45;&gt;Node3</title>
<g id="a_edge4_Node000004_Node000003"><a xlink:title=" ">
<path fill="none" stroke="#63b8ff" d="M834.31,-253.13C925.66,-266.1 1114.7,-283.53 1264,-235.12 1292.17,-225.99 1319.32,-204.68 1336.07,-189.6"/>
<polygon fill="#63b8ff" stroke="#63b8ff" points="1338.47,-192.15 1343.41,-182.78 1333.7,-187.02 1338.47,-192.15"/>
</a>
</g>
</g>
<!-- Node6 -->
<g id="Node000006" class="node">
<title>Node6</title>
<g id="a_Node000006"><a xlink:href="Engine_8cpp.html#a223c8bc63f228dc11177515e38eff2db" target="_top" xlink:title=" ">
<polygon fill="white" stroke="#666666" points="1052,-224.62 903,-224.62 903,-205.62 1052,-205.62 1052,-224.62"/>
<text text-anchor="middle" x="977.5" y="-212.62" font-family="Helvetica,sans-Serif" font-size="10.00">GameEngine_OTRSigCheck</text>
</a>
</g>
</g>
<!-- Node5&#45;&gt;Node6 -->
<g id="edge6_Node000005_Node000006" class="edge">
<title>Node5&#45;&gt;Node6</title>
<g id="a_edge6_Node000005_Node000006"><a xlink:title=" ">
<path fill="none" stroke="#63b8ff" d="M823.61,-204.23C843.99,-205.68 868.97,-207.46 892.78,-209.16"/>
<polygon fill="#63b8ff" stroke="#63b8ff" points="892.68,-212.66 902.9,-209.88 893.18,-205.68 892.68,-212.66"/>
</a>
</g>
</g>
<!-- Node7 -->
<g id="Node000007" class="node">
<title>Node7</title>
<g id="a_Node000007"><a xlink:href="string_8c.html#a008e171a518fe0e0352f31b245e03875" target="_top" xlink:title=" ">
<polygon fill="white" stroke="#666666" points="1198,-225.62 1154,-225.62 1154,-206.62 1198,-206.62 1198,-225.62"/>
<text text-anchor="middle" x="1176" y="-213.62" font-family="Helvetica,sans-Serif" font-size="10.00">strlen</text>
</a>
</g>
</g>
<!-- Node6&#45;&gt;Node7 -->
<g id="edge7_Node000006_Node000007" class="edge">
<title>Node6&#45;&gt;Node7</title>
<g id="a_edge7_Node000006_Node000007"><a xlink:title=" ">
<path fill="none" stroke="#63b8ff" d="M1052.23,-215.5C1083.91,-215.66 1119.23,-215.84 1143.82,-215.97"/>
<polygon fill="#63b8ff" stroke="#63b8ff" points="1143.97,-219.47 1153.99,-216.02 1144.01,-212.47 1143.97,-219.47"/>
</a>
</g>
</g>
<!-- Node9 -->
<g id="Node000009" class="node">
<title>Node9</title>
<g id="a_Node000009"><a xlink:href="animation_8c.html#a7da03cd272338cd10712ba10e097bd74" target="_top" xlink:title=" ">
<polygon fill="white" stroke="#666666" points="452,-179.62 354,-179.62 354,-160.62 452,-160.62 452,-179.62"/>
<text text-anchor="middle" x="403" y="-167.62" font-family="Helvetica,sans-Serif" font-size="10.00">render_armature</text>
</a>
</g>
</g>
<!-- Node8&#45;&gt;Node9 -->
<g id="edge9_Node000008_Node000009" class="edge">
<title>Node8&#45;&gt;Node9</title>
<g id="a_edge9_Node000008_Node000009"><a xlink:title=" ">
<path fill="none" stroke="#63b8ff" d="M318.11,-170.12C326.62,-170.12 335.28,-170.12 343.64,-170.12"/>
<polygon fill="#63b8ff" stroke="#63b8ff" points="343.66,-173.62 353.66,-170.12 343.66,-166.62 343.66,-173.62"/>
</a>
</g>
</g>
<!-- Node10 -->
<g id="Node000010" class="node">
<title>Node10</title>
<g id="a_Node000010"><a xlink:href="animation_8c.html#a735935d8f41d2fbdc617a41a92dfc371" target="_top" xlink:title=" ">
<polygon fill="white" stroke="#666666" points="640.5,-179.62 502.5,-179.62 502.5,-160.62 640.5,-160.62 640.5,-179.62"/>
<text text-anchor="middle" x="571.5" y="-167.62" font-family="Helvetica,sans-Serif" font-size="10.00">render_limb_or_add_mtx</text>
</a>
</g>
</g>
<!-- Node9&#45;&gt;Node10 -->
<g id="edge10_Node000009_Node000010" class="edge">
<title>Node9&#45;&gt;Node10</title>
<g id="a_edge10_Node000009_Node000010"><a xlink:title=" ">
<path fill="none" stroke="#63b8ff" d="M452.16,-170.12C464.63,-170.12 478.4,-170.12 491.99,-170.12"/>
<polygon fill="#63b8ff" stroke="#63b8ff" points="492.33,-173.62 502.33,-170.12 492.33,-166.62 492.33,-173.62"/>
</a>
</g>
</g>
<!-- Node10&#45;&gt;Node2 -->
<g id="edge17_Node000010_Node000002" class="edge">
<title>Node10&#45;&gt;Node2</title>
<g id="a_edge17_Node000010_Node000002"><a xlink:title=" ">
<path fill="none" stroke="#63b8ff" d="M581.33,-179.77C599.78,-199.35 644.59,-243.96 691,-268.12 698.21,-271.88 706.08,-275.1 714.03,-277.85"/>
<polygon fill="#63b8ff" stroke="#63b8ff" points="713.15,-281.24 723.74,-280.96 715.29,-274.57 713.15,-281.24"/>
</a>
</g>
</g>
<!-- Node10&#45;&gt;Node4 -->
<g id="edge18_Node000010_Node000004" class="edge">
<title>Node10&#45;&gt;Node4</title>
<g id="a_edge18_Node000010_Node000004"><a xlink:title=" ">
<path fill="none" stroke="#63b8ff" d="M593.16,-179.81C616.55,-190.55 655.98,-207.97 691,-220.12 698.39,-222.69 706.2,-225.17 714,-227.49"/>
<polygon fill="#63b8ff" stroke="#63b8ff" points="713.25,-230.92 723.83,-230.36 715.21,-224.2 713.25,-230.92"/>
</a>
</g>
</g>
<!-- Node10&#45;&gt;Node5 -->
<g id="edge19_Node000010_Node000005" class="edge">
<title>Node10&#45;&gt;Node5</title>
<g id="a_edge19_Node000010_Node000005"><a xlink:title=" ">
<path fill="none" stroke="#63b8ff" d="M635.55,-179.64C663.9,-183.91 697.02,-188.91 724.18,-193.01"/>
<polygon fill="#63b8ff" stroke="#63b8ff" points="723.87,-196.5 734.28,-194.53 724.92,-189.58 723.87,-196.5"/>
</a>
</g>
</g>
<!-- Node11 -->
<g id="Node000011" class="node">
<title>Node11</title>
<g id="a_Node000011"><a xlink:href="Matrix_8cpp.html#a329d78c031733cf22ff7518f5d38fd74" target="_top" xlink:title=" ">
<polygon fill="white" stroke="#666666" points="822,-160.62 736,-160.62 736,-141.62 822,-141.62 822,-160.62"/>
<text text-anchor="middle" x="779" y="-148.62" font-family="Helvetica,sans-Serif" font-size="10.00">AddHudMatrix</text>
</a>
</g>
</g>
<!-- Node10&#45;&gt;Node11 -->
<g id="edge11_Node000010_Node000011" class="edge">
<title>Node10&#45;&gt;Node11</title>
<g id="a_edge11_Node000010_Node000011"><a xlink:title=" ">
<path fill="none" stroke="#63b8ff" d="M640.64,-163.82C668.39,-161.26 699.95,-158.34 725.81,-155.95"/>
<polygon fill="#63b8ff" stroke="#63b8ff" points="726.15,-159.43 735.79,-155.03 725.51,-152.46 726.15,-159.43"/>
</a>
</g>
</g>
<!-- Node16 -->
<g id="Node000016" class="node">
<title>Node16</title>
<g id="a_Node000016"><a xlink:href="animation_8c.html#acfd85958c3b1020053c0810bbe96380e" target="_top" xlink:title=" ">
<polygon fill="white" stroke="#666666" points="843.5,-89.62 714.5,-89.62 714.5,-70.62 843.5,-70.62 843.5,-89.62"/>
<text text-anchor="middle" x="779" y="-77.62" font-family="Helvetica,sans-Serif" font-size="10.00">mtxf_translate_rotate2</text>
</a>
</g>
</g>
<!-- Node10&#45;&gt;Node16 -->
<g id="edge20_Node000010_Node000016" class="edge">
<title>Node10&#45;&gt;Node16</title>
<g id="a_edge20_Node000010_Node000016"><a xlink:title=" ">
<path fill="none" stroke="#63b8ff" d="M621.63,-160.6C632.78,-157.78 644.45,-154.31 655,-150.12 674.77,-142.28 724.04,-113.04 753.87,-94.93"/>
<polygon fill="#63b8ff" stroke="#63b8ff" points="755.74,-97.89 762.46,-89.7 752.1,-91.91 755.74,-97.89"/>
</a>
</g>
</g>
<!-- Node12 -->
<g id="Node000012" class="node">
<title>Node12</title>
<g id="a_Node000012"><a xlink:href="Matrix_8cpp.html#a67401ed1d8de1f4d3a3e5a7b72842b6a" target="_top" xlink:title=" ">
<polygon fill="white" stroke="#666666" points="1011,-184.62 944,-184.62 944,-165.62 1011,-165.62 1011,-184.62"/>
<text text-anchor="middle" x="977.5" y="-172.62" font-family="Helvetica,sans-Serif" font-size="10.00">AddMatrix</text>
</a>
</g>
</g>
<!-- Node11&#45;&gt;Node12 -->
<g id="edge12_Node000011_Node000012" class="edge">
<title>Node11&#45;&gt;Node12</title>
<g id="a_edge12_Node000011_Node000012"><a xlink:title=" ">
<path fill="none" stroke="#63b8ff" d="M822.15,-156.27C855.02,-160.29 900.48,-165.84 933.55,-169.88"/>
<polygon fill="#63b8ff" stroke="#63b8ff" points="933.47,-173.39 943.82,-171.13 934.32,-166.45 933.47,-173.39"/>
</a>
</g>
</g>
<!-- Node15 -->
<g id="Node000015" class="node">
<title>Node15</title>
<g id="a_Node000015"><a xlink:href="Game_8cpp.html#ae2fa844b3cb1021ecbc357f8ed2ad8cc" target="_top" xlink:title=" ">
<polygon fill="white" stroke="#666666" points="1008.5,-147.62 946.5,-147.62 946.5,-128.62 1008.5,-128.62 1008.5,-147.62"/>
<text text-anchor="middle" x="977.5" y="-135.62" font-family="Helvetica,sans-Serif" font-size="10.00">GetWorld</text>
</a>
</g>
</g>
<!-- Node11&#45;&gt;Node15 -->
<g id="edge16_Node000011_Node000015" class="edge">
<title>Node11&#45;&gt;Node15</title>
<g id="a_edge16_Node000011_Node000015"><a xlink:title=" ">
<path fill="none" stroke="#63b8ff" d="M822.15,-148.34C855.84,-146.11 902.74,-143 935.99,-140.8"/>
<polygon fill="#63b8ff" stroke="#63b8ff" points="936.52,-144.28 946.27,-140.12 936.06,-137.29 936.52,-144.28"/>
</a>
</g>
</g>
<!-- Node13 -->
<g id="Node000013" class="node">
<title>Node13</title>
<g id="a_Node000013"><a xlink:href="FrameInterpolation_8cpp.html#a8cf1f2d6fabc6925aa71a9515341b4aa" target="_top" xlink:title=" ">
<polygon fill="white" stroke="#666666" points="1246,-188.12 1106,-188.12 1106,-158.12 1246,-158.12 1246,-188.12"/>
<text text-anchor="start" x="1114" y="-176.12" font-family="Helvetica,sans-Serif" font-size="10.00">FrameInterpolation</text>
<text text-anchor="middle" x="1176" y="-165.12" font-family="Helvetica,sans-Serif" font-size="10.00">_RecordMatrixMtxFToMtx</text>
</a>
</g>
</g>
<!-- Node12&#45;&gt;Node13 -->
<g id="edge13_Node000012_Node000013" class="edge">
<title>Node12&#45;&gt;Node13</title>
<g id="a_edge13_Node000012_Node000013"><a xlink:title=" ">
<path fill="none" stroke="#63b8ff" d="M1011.39,-174.79C1034.36,-174.56 1066.04,-174.23 1095.42,-173.93"/>
<polygon fill="#63b8ff" stroke="#63b8ff" points="1095.73,-177.43 1105.7,-173.83 1095.66,-170.43 1095.73,-177.43"/>
</a>
</g>
</g>
<!-- Node14 -->
<g id="Node000014" class="node">
<title>Node14</title>
<g id="a_Node000014"><a xlink:href="guMtxF2L_8c.html#a40ab2d64c609839ff1e0ef0de2d0dcc4" target="_top" xlink:title=" ">
<polygon fill="white" stroke="#666666" points="1208.5,-139.62 1143.5,-139.62 1143.5,-120.62 1208.5,-120.62 1208.5,-139.62"/>
<text text-anchor="middle" x="1176" y="-127.62" font-family="Helvetica,sans-Serif" font-size="10.00">guMtxF2L</text>
</a>
</g>
</g>
<!-- Node12&#45;&gt;Node14 -->
<g id="edge15_Node000012_Node000014" class="edge">
<title>Node12&#45;&gt;Node14</title>
<g id="a_edge15_Node000012_Node000014"><a xlink:title=" ">
<path fill="none" stroke="#63b8ff" d="M1011.05,-167.23C1032.81,-162 1062.09,-155.03 1088,-149.12 1102.68,-145.78 1118.77,-142.23 1133.09,-139.12"/>
<polygon fill="#63b8ff" stroke="#63b8ff" points="1134.12,-142.47 1143.15,-136.94 1132.64,-135.63 1134.12,-142.47"/>
</a>
</g>
</g>
<!-- Node13&#45;&gt;Node3 -->
<g id="edge14_Node000013_Node000003" class="edge">
<title>Node13&#45;&gt;Node3</title>
<g id="a_edge14_Node000013_Node000003"><a xlink:title=" ">
<path fill="none" stroke="#63b8ff" d="M1246.05,-173.12C1260.47,-173.12 1275.59,-173.12 1289.78,-173.12"/>
<polygon fill="#63b8ff" stroke="#63b8ff" points="1289.93,-176.62 1299.93,-173.12 1289.93,-169.62 1289.93,-176.62"/>
</a>
</g>
</g>
<!-- Node17 -->
<g id="Node000017" class="node">
<title>Node17</title>
<g id="a_Node000017"><a xlink:href="math__util_8c.html#ae69cbf5c8d4b3b0dba2d7b4d4673689f" target="_top" xlink:title=" ">
<polygon fill="white" stroke="#666666" points="996.5,-71.62 958.5,-71.62 958.5,-52.62 996.5,-52.62 996.5,-71.62"/>
<text text-anchor="middle" x="977.5" y="-59.62" font-family="Helvetica,sans-Serif" font-size="10.00">coss</text>
</a>
</g>
</g>
<!-- Node16&#45;&gt;Node17 -->
<g id="edge21_Node000016_Node000017" class="edge">
<title>Node16&#45;&gt;Node17</title>
<g id="a_edge21_Node000016_Node000017"><a xlink:title=" ">
<path fill="none" stroke="#63b8ff" d="M843.53,-74.31C878.77,-71.08 920.85,-67.22 948.09,-64.73"/>
<polygon fill="#63b8ff" stroke="#63b8ff" points="948.47,-68.21 958.11,-63.81 947.83,-61.24 948.47,-68.21"/>
</a>
</g>
</g>
<!-- Node18 -->
<g id="Node000018" class="node">
<title>Node18</title>
<g id="a_Node000018"><a xlink:href="FrameInterpolation_8cpp.html#a3a4250dd10535ebfad101196ec528f79" target="_top" xlink:title=" ">
<polygon fill="white" stroke="#666666" points="1246,-102.12 1106,-102.12 1106,-72.12 1246,-72.12 1246,-102.12"/>
<text text-anchor="start" x="1114" y="-90.12" font-family="Helvetica,sans-Serif" font-size="10.00">FrameInterpolation</text>
<text text-anchor="middle" x="1176" y="-79.12" font-family="Helvetica,sans-Serif" font-size="10.00">_RecordMatrixPosRotXYZ</text>
</a>
</g>
</g>
<!-- Node16&#45;&gt;Node18 -->
<g id="edge22_Node000016_Node000018" class="edge">
<title>Node16&#45;&gt;Node18</title>
<g id="a_edge22_Node000016_Node000018"><a xlink:title=" ">
<path fill="none" stroke="#63b8ff" d="M843.9,-81.26C912.51,-82.47 1021.61,-84.41 1095.67,-85.72"/>
<polygon fill="#63b8ff" stroke="#63b8ff" points="1095.81,-89.22 1105.87,-85.9 1095.94,-82.22 1095.81,-89.22"/>
</a>
</g>
</g>
<!-- Node19 -->
<g id="Node000019" class="node">
<title>Node19</title>
<g id="a_Node000019"><a xlink:href="math__util_8c.html#a19ed3bd78fd2d3e2bd0a29f6caf48545" target="_top" xlink:title=" ">
<polygon fill="white" stroke="#666666" points="995.5,-34.62 959.5,-34.62 959.5,-15.62 995.5,-15.62 995.5,-34.62"/>
<text text-anchor="middle" x="977.5" y="-22.62" font-family="Helvetica,sans-Serif" font-size="10.00">sins</text>
</a>
</g>
</g>
<!-- Node16&#45;&gt;Node19 -->
<g id="edge24_Node000016_Node000019" class="edge">
<title>Node16&#45;&gt;Node19</title>
<g id="a_edge24_Node000016_Node000019"><a xlink:title=" ">
<path fill="none" stroke="#63b8ff" d="M833.96,-70.53C845.03,-67.95 856.5,-64.83 867,-61.12 883.87,-55.17 886.21,-49.29 903,-43.12 917.94,-37.64 935.19,-33.32 949.23,-30.28"/>
<polygon fill="#63b8ff" stroke="#63b8ff" points="950.16,-33.66 959.25,-28.21 948.74,-26.81 950.16,-33.66"/>
</a>
</g>
</g>
<!-- Node18&#45;&gt;Node3 -->
<g id="edge23_Node000018_Node000003" class="edge">
<title>Node18&#45;&gt;Node3</title>
<g id="a_edge23_Node000018_Node000003"><a xlink:title=" ">
<path fill="none" stroke="#63b8ff" d="M1241.56,-102.27C1249.27,-104.85 1256.91,-107.8 1264,-111.12 1289.98,-123.32 1316.58,-142.97 1333.84,-156.88"/>
<polygon fill="#63b8ff" stroke="#63b8ff" points="1332.02,-159.91 1341.97,-163.56 1336.47,-154.5 1332.02,-159.91"/>
</a>
</g>
</g>
<!-- Node20&#45;&gt;Node11 -->
<g id="edge26_Node000020_Node000011" class="edge">
<title>Node20&#45;&gt;Node11</title>
<g id="a_edge26_Node000020_Node000011"><a xlink:title=" ">
<path fill="none" stroke="#63b8ff" d="M655.2,-139.77C678.97,-141.97 704.23,-144.3 725.62,-146.28"/>
<polygon fill="#63b8ff" stroke="#63b8ff" points="725.5,-149.79 735.78,-147.22 726.15,-142.82 725.5,-149.79"/>
</a>
</g>
</g>
<!-- Node21 -->
<g id="Node000021" class="node">
<title>Node21</title>
<g id="a_Node000021"><a xlink:href="math__util__2_8c.html#ae71383a9d7f97bcb240b23f68068ab30" target="_top" xlink:title=" ">
<polygon fill="white" stroke="#666666" points="867,-52.62 691,-52.62 691,-33.62 867,-33.62 867,-52.62"/>
<text text-anchor="middle" x="779" y="-40.62" font-family="Helvetica,sans-Serif" font-size="10.00">mtxf_set_matrix_transformation</text>
</a>
</g>
</g>
<!-- Node20&#45;&gt;Node21 -->
<g id="edge27_Node000020_Node000021" class="edge">
<title>Node20&#45;&gt;Node21</title>
<g id="a_edge27_Node000020_Node000021"><a xlink:title=" ">
<path fill="none" stroke="#63b8ff" d="M585.25,-122.49C606.19,-107.15 649.66,-77.25 691,-61.12 696.52,-58.97 702.35,-57.06 708.26,-55.36"/>
<polygon fill="#63b8ff" stroke="#63b8ff" points="709.49,-58.66 718.26,-52.71 707.7,-51.89 709.49,-58.66"/>
</a>
</g>
</g>
<!-- Node21&#45;&gt;Node17 -->
<g id="edge28_Node000021_Node000017" class="edge">
<title>Node21&#45;&gt;Node17</title>
<g id="a_edge28_Node000021_Node000017"><a xlink:title=" ">
<path fill="none" stroke="#63b8ff" d="M867.05,-51.54C896.38,-54.38 927.06,-57.34 948.45,-59.41"/>
<polygon fill="#63b8ff" stroke="#63b8ff" points="948.15,-62.9 958.44,-60.38 948.83,-55.93 948.15,-62.9"/>
</a>
</g>
</g>
<!-- Node21&#45;&gt;Node19 -->
<g id="edge31_Node000021_Node000019" class="edge">
<title>Node21&#45;&gt;Node19</title>
<g id="a_edge31_Node000021_Node000019"><a xlink:title=" ">
<path fill="none" stroke="#63b8ff" d="M867.05,-35.15C896.73,-32.43 927.79,-29.59 949.21,-27.62"/>
<polygon fill="#63b8ff" stroke="#63b8ff" points="949.55,-31.11 959.19,-26.71 948.91,-24.14 949.55,-31.11"/>
</a>
</g>
</g>
<!-- Node22 -->
<g id="Node000022" class="node">
<title>Node22</title>
<g id="a_Node000022"><a xlink:href="FrameInterpolation_8cpp.html#af749df1a96bee5c78287b1845455ae2d" target="_top" xlink:title=" ">
<polygon fill="white" stroke="#666666" points="1264,-30.12 1088,-30.12 1088,-0.12 1264,-0.12 1264,-30.12"/>
<text text-anchor="start" x="1096" y="-18.12" font-family="Helvetica,sans-Serif" font-size="10.00">FrameInterpolation</text>
<text text-anchor="middle" x="1176" y="-7.12" font-family="Helvetica,sans-Serif" font-size="10.00">_RecordSetMatrixTransformation</text>
</a>
</g>
</g>
<!-- Node21&#45;&gt;Node22 -->
<g id="edge29_Node000021_Node000022" class="edge">
<title>Node21&#45;&gt;Node22</title>
<g id="a_edge29_Node000021_Node000022"><a xlink:title=" ">
<path fill="none" stroke="#63b8ff" d="M804.03,-33.61C828.48,-24.47 867.7,-11.32 903,-6.12 960.52,2.34 1025.58,0.59 1077.65,-3.51"/>
<polygon fill="#63b8ff" stroke="#63b8ff" points="1077.63,-7.02 1087.89,-4.36 1078.21,-0.05 1077.63,-7.02"/>
</a>
</g>
</g>
<!-- Node22&#45;&gt;Node3 -->
<g id="edge30_Node000022_Node000003" class="edge">
<title>Node22&#45;&gt;Node3</title>
<g id="a_edge30_Node000022_Node000003"><a xlink:title=" ">
<path fill="none" stroke="#63b8ff" d="M1211.56,-30.32C1228.36,-38.64 1248.26,-49.94 1264,-63.12 1296.77,-90.58 1326.11,-131.54 1341.55,-154.95"/>
<polygon fill="#63b8ff" stroke="#63b8ff" points="1338.74,-157.06 1347.11,-163.55 1344.62,-153.26 1338.74,-157.06"/>
</a>
</g>
</g>
</g>
</svg>
