<?xml version="1.0" encoding="UTF-8" standalone="no"?>
<!DOCTYPE svg PUBLIC "-//W3C//DTD SVG 1.1//EN"
 "http://www.w3.org/Graphics/SVG/1.1/DTD/svg11.dtd">
<!-- Generated by graphviz version 2.43.0 (0)
 -->
<!-- Title: KoopaTroopaBeach::Load Pages: 1 -->
<svg width="1094pt" height="372pt"
 viewBox="0.00 0.00 1094.00 371.50" xmlns="http://www.w3.org/2000/svg" xmlns:xlink="http://www.w3.org/1999/xlink">
<g id="graph0" class="graph" transform="scale(1 1) rotate(0) translate(4 367.5)">
<title>KoopaTroopaBeach::Load</title>
<!-- Node1 -->
<g id="Node000001" class="node">
<title>Node1</title>
<g id="a_Node000001"><a xlink:title=" ">
<polygon fill="#999999" stroke="#666666" points="138,-149.5 0,-149.5 0,-130.5 138,-130.5 138,-149.5"/>
<text text-anchor="middle" x="69" y="-137.5" font-family="Helvetica,sans-Serif" font-size="10.00">KoopaTroopaBeach::Load</text>
</a>
</g>
</g>
<!-- Node2 -->
<g id="Node000002" class="node">
<title>Node2</title>
<g id="a_Node000002"><a xlink:href="collision_8c.html#a7fe1ddc7a4c312ab8f9519229963450b" target="_top" xlink:title=" ">
<polygon fill="white" stroke="#666666" points="525.5,-307.5 385.5,-307.5 385.5,-288.5 525.5,-288.5 525.5,-307.5"/>
<text text-anchor="middle" x="455.5" y="-295.5" font-family="Helvetica,sans-Serif" font-size="10.00">find_vtx_and_set_colours</text>
</a>
</g>
</g>
<!-- Node1&#45;&gt;Node2 -->
<g id="edge1_Node000001_Node000002" class="edge">
<title>Node1&#45;&gt;Node2</title>
<g id="a_edge1_Node000001_Node000002"><a xlink:title=" ">
<path fill="none" stroke="#63b8ff" d="M80.74,-149.66C98.77,-165.43 136.83,-196.76 174,-215 246.08,-250.37 336.12,-273.71 394.44,-286.39"/>
<polygon fill="#63b8ff" stroke="#63b8ff" points="393.72,-289.82 404.23,-288.48 395.18,-282.97 393.72,-289.82"/>
</a>
</g>
</g>
<!-- Node7 -->
<g id="Node000007" class="node">
<title>Node7</title>
<g id="a_Node000007"><a xlink:href="render__courses_8c.html#ab02cdf6684f984a12e7388fe973bc89a" target="_top" xlink:title=" ">
<polygon fill="white" stroke="#666666" points="302.5,-94.5 210.5,-94.5 210.5,-75.5 302.5,-75.5 302.5,-94.5"/>
<text text-anchor="middle" x="256.5" y="-82.5" font-family="Helvetica,sans-Serif" font-size="10.00">func_80295C6C</text>
</a>
</g>
</g>
<!-- Node1&#45;&gt;Node7 -->
<g id="edge8_Node000001_Node000007" class="edge">
<title>Node1&#45;&gt;Node7</title>
<g id="a_edge8_Node000001_Node000007"><a xlink:title=" ">
<path fill="none" stroke="#63b8ff" d="M95.41,-130.37C116.32,-122.65 146.83,-111.85 174,-104 182.71,-101.48 192.02,-99.06 201.12,-96.85"/>
<polygon fill="#63b8ff" stroke="#63b8ff" points="201.95,-100.24 210.87,-94.52 200.33,-93.44 201.95,-100.24"/>
</a>
</g>
</g>
<!-- Node11 -->
<g id="Node000011" class="node">
<title>Node11</title>
<g id="a_Node000011"><a xlink:href="Track_8cpp.html#a0406803b8f06bfcaf7e1bd3ad2ab2e12" target="_top" xlink:title=" ">
<polygon fill="white" stroke="#666666" points="339,-131.5 174,-131.5 174,-112.5 339,-112.5 339,-131.5"/>
<text text-anchor="middle" x="256.5" y="-119.5" font-family="Helvetica,sans-Serif" font-size="10.00">InvertTriangleWindingByName</text>
</a>
</g>
</g>
<!-- Node1&#45;&gt;Node11 -->
<g id="edge12_Node000001_Node000011" class="edge">
<title>Node1&#45;&gt;Node11</title>
<g id="a_edge12_Node000001_Node000011"><a xlink:title=" ">
<path fill="none" stroke="#63b8ff" d="M138.02,-133.4C146.42,-132.58 155.11,-131.74 163.79,-130.9"/>
<polygon fill="#63b8ff" stroke="#63b8ff" points="164.33,-134.36 173.95,-129.91 163.66,-127.4 164.33,-134.36"/>
</a>
</g>
</g>
<!-- Node15 -->
<g id="Node000015" class="node">
<title>Node15</title>
<g id="a_Node000015"><a xlink:href="render__courses_8c.html#ac97a07076b3e301db5da93c0fe8f0500" target="_top" xlink:title=" ">
<polygon fill="white" stroke="#666666" points="323.5,-205.5 189.5,-205.5 189.5,-186.5 323.5,-186.5 323.5,-205.5"/>
<text text-anchor="middle" x="256.5" y="-193.5" font-family="Helvetica,sans-Serif" font-size="10.00">parse_track_displaylists</text>
</a>
</g>
</g>
<!-- Node1&#45;&gt;Node15 -->
<g id="edge18_Node000001_Node000015" class="edge">
<title>Node1&#45;&gt;Node15</title>
<g id="a_edge18_Node000001_Node000015"><a xlink:title=" ">
<path fill="none" stroke="#63b8ff" d="M101.89,-149.63C133,-159.02 180.47,-173.35 214.4,-183.59"/>
<polygon fill="#63b8ff" stroke="#63b8ff" points="213.44,-186.96 224.03,-186.5 215.47,-180.26 213.44,-186.96"/>
</a>
</g>
</g>
<!-- Node2&#45;&gt;Node2 -->
<g id="edge2_Node000002_Node000002" class="edge">
<title>Node2&#45;&gt;Node2</title>
<g id="a_edge2_Node000002_Node000002"><a xlink:title=" ">
<path fill="none" stroke="#63b8ff" d="M426.22,-307.58C411.97,-316.23 421.73,-325.5 455.5,-325.5 478.72,-325.5 490.59,-321.12 491.11,-315.57"/>
<polygon fill="#63b8ff" stroke="#63b8ff" points="493.73,-313.25 484.78,-307.58 488.25,-317.6 493.73,-313.25"/>
</a>
</g>
</g>
<!-- Node3 -->
<g id="Node000003" class="node">
<title>Node3</title>
<g id="a_Node000003"><a xlink:href="Engine_8cpp.html#a223c8bc63f228dc11177515e38eff2db" target="_top" xlink:title=" ">
<polygon fill="white" stroke="#666666" points="721,-289.5 572,-289.5 572,-270.5 721,-270.5 721,-289.5"/>
<text text-anchor="middle" x="646.5" y="-277.5" font-family="Helvetica,sans-Serif" font-size="10.00">GameEngine_OTRSigCheck</text>
</a>
</g>
</g>
<!-- Node2&#45;&gt;Node3 -->
<g id="edge3_Node000002_Node000003" class="edge">
<title>Node2&#45;&gt;Node3</title>
<g id="a_edge3_Node000002_Node000003"><a xlink:title=" ">
<path fill="none" stroke="#63b8ff" d="M525.54,-291.43C537.32,-290.3 549.67,-289.13 561.78,-287.97"/>
<polygon fill="#63b8ff" stroke="#63b8ff" points="562.26,-291.44 571.88,-287.01 561.59,-284.48 562.26,-291.44"/>
</a>
</g>
</g>
<!-- Node5 -->
<g id="Node000005" class="node">
<title>Node5</title>
<g id="a_Node000005"><a xlink:href="collision_8c.html#a2419eefe1cdba5b280babacc4a15fc6c" target="_top" xlink:title=" ">
<polygon fill="white" stroke="#666666" points="682,-326.5 611,-326.5 611,-307.5 682,-307.5 682,-326.5"/>
<text text-anchor="middle" x="646.5" y="-314.5" font-family="Helvetica,sans-Serif" font-size="10.00">is_cull_box</text>
</a>
</g>
</g>
<!-- Node2&#45;&gt;Node5 -->
<g id="edge5_Node000002_Node000005" class="edge">
<title>Node2&#45;&gt;Node5</title>
<g id="a_edge5_Node000002_Node000005"><a xlink:title=" ">
<path fill="none" stroke="#63b8ff" d="M525.54,-304.94C550.57,-307.46 578.18,-310.23 600.6,-312.49"/>
<polygon fill="#63b8ff" stroke="#63b8ff" points="600.52,-316 610.82,-313.51 601.22,-309.03 600.52,-316"/>
</a>
</g>
</g>
<!-- Node6 -->
<g id="Node000006" class="node">
<title>Node6</title>
<g id="a_Node000006"><a xlink:href="collision_8c.html#ae34213badc2dd781cab43c88b1e3fdce" target="_top" xlink:title=" ">
<polygon fill="white" stroke="#666666" points="701,-363.5 592,-363.5 592,-344.5 701,-344.5 701,-363.5"/>
<text text-anchor="middle" x="646.5" y="-351.5" font-family="Helvetica,sans-Serif" font-size="10.00">set_vertex_colours</text>
</a>
</g>
</g>
<!-- Node2&#45;&gt;Node6 -->
<g id="edge7_Node000002_Node000006" class="edge">
<title>Node2&#45;&gt;Node6</title>
<g id="a_edge7_Node000002_Node000006"><a xlink:title=" ">
<path fill="none" stroke="#63b8ff" d="M483.39,-307.5C506.68,-315.58 541.36,-327.22 572,-336 579.2,-338.06 586.84,-340.1 594.36,-342.02"/>
<polygon fill="#63b8ff" stroke="#63b8ff" points="593.59,-345.43 604.15,-344.47 595.29,-338.64 593.59,-345.43"/>
</a>
</g>
</g>
<!-- Node4 -->
<g id="Node000004" class="node">
<title>Node4</title>
<g id="a_Node000004"><a xlink:href="string_8c.html#a008e171a518fe0e0352f31b245e03875" target="_top" xlink:title=" ">
<polygon fill="white" stroke="#666666" points="840.5,-307.5 796.5,-307.5 796.5,-288.5 840.5,-288.5 840.5,-307.5"/>
<text text-anchor="middle" x="818.5" y="-295.5" font-family="Helvetica,sans-Serif" font-size="10.00">strlen</text>
</a>
</g>
</g>
<!-- Node3&#45;&gt;Node4 -->
<g id="edge4_Node000003_Node000004" class="edge">
<title>Node3&#45;&gt;Node4</title>
<g id="a_edge4_Node000003_Node000004"><a xlink:title=" ">
<path fill="none" stroke="#63b8ff" d="M721.08,-287.79C743.88,-290.2 767.8,-292.74 786.11,-294.68"/>
<polygon fill="#63b8ff" stroke="#63b8ff" points="785.88,-298.17 796.2,-295.74 786.62,-291.21 785.88,-298.17"/>
</a>
</g>
</g>
<!-- Node5&#45;&gt;Node4 -->
<g id="edge6_Node000005_Node000004" class="edge">
<title>Node5&#45;&gt;Node4</title>
<g id="a_edge6_Node000005_Node000004"><a xlink:title=" ">
<path fill="none" stroke="#63b8ff" d="M682.31,-313.11C712.77,-309.71 756.61,-304.81 786.03,-301.52"/>
<polygon fill="#63b8ff" stroke="#63b8ff" points="786.61,-304.97 796.16,-300.38 785.84,-298.02 786.61,-304.97"/>
</a>
</g>
</g>
<!-- Node8 -->
<g id="Node000008" class="node">
<title>Node8</title>
<g id="a_Node000008"><a xlink:href="collision_8c.html#aa1116ededb9ebc0ee976259f02fe2a4e" target="_top" xlink:title=" ">
<polygon fill="white" stroke="#666666" points="520.5,-55.5 390.5,-55.5 390.5,-36.5 520.5,-36.5 520.5,-55.5"/>
<text text-anchor="middle" x="455.5" y="-43.5" font-family="Helvetica,sans-Serif" font-size="10.00">generate_collision_grid</text>
</a>
</g>
</g>
<!-- Node7&#45;&gt;Node8 -->
<g id="edge9_Node000007_Node000008" class="edge">
<title>Node7&#45;&gt;Node8</title>
<g id="a_edge9_Node000007_Node000008"><a xlink:title=" ">
<path fill="none" stroke="#63b8ff" d="M302.7,-76.05C330.56,-70.54 366.56,-63.41 396.51,-57.48"/>
<polygon fill="#63b8ff" stroke="#63b8ff" points="397.29,-60.89 406.42,-55.52 395.93,-54.03 397.29,-60.89"/>
</a>
</g>
</g>
<!-- Node9 -->
<g id="Node000009" class="node">
<title>Node9</title>
<g id="a_Node000009"><a xlink:href="collision_8c.html#a4e4ec74302aec60828a8d271390f7631" target="_top" xlink:title=" ">
<polygon fill="white" stroke="#666666" points="712,-30 581,-30 581,0 712,0 712,-30"/>
<text text-anchor="start" x="589" y="-18" font-family="Helvetica,sans-Serif" font-size="10.00">is_triangle_intersecting</text>
<text text-anchor="middle" x="646.5" y="-7" font-family="Helvetica,sans-Serif" font-size="10.00">_bounding_box</text>
</a>
</g>
</g>
<!-- Node8&#45;&gt;Node9 -->
<g id="edge10_Node000008_Node000009" class="edge">
<title>Node8&#45;&gt;Node9</title>
<g id="a_edge10_Node000008_Node000009"><a xlink:title=" ">
<path fill="none" stroke="#63b8ff" d="M514.49,-36.49C532.24,-33.58 552.03,-30.33 570.73,-27.26"/>
<polygon fill="#63b8ff" stroke="#63b8ff" points="571.39,-30.7 580.69,-25.63 570.26,-23.79 571.39,-30.7"/>
</a>
</g>
</g>
<!-- Node10 -->
<g id="Node000010" class="node">
<title>Node10</title>
<g id="a_Node000010"><a xlink:href="collision_8c.html#a7ef4f800cb44ad39ca233d0c76ce039a" target="_top" xlink:title=" ">
<polygon fill="white" stroke="#666666" points="874,-30 763,-30 763,0 874,0 874,-30"/>
<text text-anchor="start" x="771" y="-18" font-family="Helvetica,sans-Serif" font-size="10.00">is_line_intersecting</text>
<text text-anchor="middle" x="818.5" y="-7" font-family="Helvetica,sans-Serif" font-size="10.00">_rectangle</text>
</a>
</g>
</g>
<!-- Node9&#45;&gt;Node10 -->
<g id="edge11_Node000009_Node000010" class="edge">
<title>Node9&#45;&gt;Node10</title>
<g id="a_edge11_Node000009_Node000010"><a xlink:title=" ">
<path fill="none" stroke="#63b8ff" d="M712.25,-15C725.56,-15 739.58,-15 752.88,-15"/>
<polygon fill="#63b8ff" stroke="#63b8ff" points="752.89,-18.5 762.89,-15 752.89,-11.5 752.89,-18.5"/>
</a>
</g>
</g>
<!-- Node12 -->
<g id="Node000012" class="node">
<title>Node12</title>
<g id="a_Node000012"><a xlink:href="Track_8cpp.html#ad29b2b4706dd79c5d6239851b61530d4" target="_top" xlink:title=" ">
<polygon fill="white" stroke="#666666" points="536,-113.5 375,-113.5 375,-94.5 536,-94.5 536,-113.5"/>
<text text-anchor="middle" x="455.5" y="-101.5" font-family="Helvetica,sans-Serif" font-size="10.00">InvertTriangleWindingInternal</text>
</a>
</g>
</g>
<!-- Node11&#45;&gt;Node12 -->
<g id="edge13_Node000011_Node000012" class="edge">
<title>Node11&#45;&gt;Node12</title>
<g id="a_edge13_Node000011_Node000012"><a xlink:title=" ">
<path fill="none" stroke="#63b8ff" d="M339.05,-114.55C347.57,-113.77 356.27,-112.98 364.87,-112.19"/>
<polygon fill="#63b8ff" stroke="#63b8ff" points="365.27,-115.67 374.91,-111.27 364.64,-108.7 365.27,-115.67"/>
</a>
</g>
</g>
<!-- Node12&#45;&gt;Node3 -->
<g id="edge14_Node000012_Node000003" class="edge">
<title>Node12&#45;&gt;Node3</title>
<g id="a_edge14_Node000012_Node000003"><a xlink:title=" ">
<path fill="none" stroke="#63b8ff" d="M467.65,-113.71C484.14,-128.5 515.32,-158.11 536,-188 556.81,-218.08 543.54,-239.03 572,-262 573.57,-263.27 575.22,-264.45 576.93,-265.55"/>
<polygon fill="#63b8ff" stroke="#63b8ff" points="575.46,-268.73 585.92,-270.4 578.78,-262.57 575.46,-268.73"/>
</a>
</g>
</g>
<!-- Node12&#45;&gt;Node12 -->
<g id="edge15_Node000012_Node000012" class="edge">
<title>Node12&#45;&gt;Node12</title>
<g id="a_edge15_Node000012_Node000012"><a xlink:title=" ">
<path fill="none" stroke="#63b8ff" d="M426.22,-113.58C411.97,-122.23 421.73,-131.5 455.5,-131.5 478.72,-131.5 490.59,-127.12 491.11,-121.57"/>
<polygon fill="#63b8ff" stroke="#63b8ff" points="493.73,-119.25 484.78,-113.58 488.25,-123.6 493.73,-119.25"/>
</a>
</g>
</g>
<!-- Node13 -->
<g id="Node000013" class="node">
<title>Node13</title>
<g id="a_Node000013"><a xlink:href="Track_8cpp.html#ab01e041d195d4b8a1029c8b9532b0600" target="_top" xlink:title=" ">
<polygon fill="white" stroke="#666666" points="687.5,-104.5 605.5,-104.5 605.5,-85.5 687.5,-85.5 687.5,-104.5"/>
<text text-anchor="middle" x="646.5" y="-92.5" font-family="Helvetica,sans-Serif" font-size="10.00">StripOtrPrefix</text>
</a>
</g>
</g>
<!-- Node12&#45;&gt;Node13 -->
<g id="edge16_Node000012_Node000013" class="edge">
<title>Node12&#45;&gt;Node13</title>
<g id="a_edge16_Node000012_Node000013"><a xlink:title=" ">
<path fill="none" stroke="#63b8ff" d="M536.11,-100.21C556.19,-99.25 577.19,-98.25 595.36,-97.39"/>
<polygon fill="#63b8ff" stroke="#63b8ff" points="595.59,-100.88 605.42,-96.91 595.26,-93.89 595.59,-100.88"/>
</a>
</g>
</g>
<!-- Node14 -->
<g id="Node000014" class="node">
<title>Node14</title>
<g id="a_Node000014"><a xlink:href="Track_8cpp.html#a5bae290668f6b484d13626d67e16cc3f" target="_top" xlink:title=" ">
<polygon fill="white" stroke="#666666" points="706.5,-67.5 586.5,-67.5 586.5,-48.5 706.5,-48.5 706.5,-67.5"/>
<text text-anchor="middle" x="646.5" y="-55.5" font-family="Helvetica,sans-Serif" font-size="10.00">SwapTriangleVertices</text>
</a>
</g>
</g>
<!-- Node12&#45;&gt;Node14 -->
<g id="edge17_Node000012_Node000014" class="edge">
<title>Node12&#45;&gt;Node14</title>
<g id="a_edge17_Node000012_Node000014"><a xlink:title=" ">
<path fill="none" stroke="#63b8ff" d="M495.66,-94.47C524.93,-87.35 565.14,-77.56 596.53,-69.92"/>
<polygon fill="#63b8ff" stroke="#63b8ff" points="597.5,-73.28 606.39,-67.52 595.85,-66.48 597.5,-73.28"/>
</a>
</g>
</g>
<!-- Node16 -->
<g id="Node000016" class="node">
<title>Node16</title>
<g id="a_Node000016"><a xlink:href="collision_8c.html#a3081198f925be148fc9f05897a3bddd3" target="_top" xlink:title=" ">
<polygon fill="white" stroke="#666666" points="524.5,-215.5 386.5,-215.5 386.5,-196.5 524.5,-196.5 524.5,-215.5"/>
<text text-anchor="middle" x="455.5" y="-203.5" font-family="Helvetica,sans-Serif" font-size="10.00">generate_collision_mesh</text>
</a>
</g>
</g>
<!-- Node15&#45;&gt;Node16 -->
<g id="edge19_Node000015_Node000016" class="edge">
<title>Node15&#45;&gt;Node16</title>
<g id="a_edge19_Node000015_Node000016"><a xlink:title=" ">
<path fill="none" stroke="#63b8ff" d="M323.65,-199.36C340.47,-200.21 358.7,-201.14 376.07,-202.02"/>
<polygon fill="#63b8ff" stroke="#63b8ff" points="376.01,-205.52 386.17,-202.53 376.36,-198.53 376.01,-205.52"/>
</a>
</g>
</g>
<!-- Node16&#45;&gt;Node3 -->
<g id="edge20_Node000016_Node000003" class="edge">
<title>Node16&#45;&gt;Node3</title>
<g id="a_edge20_Node000016_Node000003"><a xlink:title=" ">
<path fill="none" stroke="#63b8ff" d="M473.23,-215.51C495.27,-227.71 535.52,-248.86 572,-262 577.84,-264.1 584.03,-266.04 590.24,-267.81"/>
<polygon fill="#63b8ff" stroke="#63b8ff" points="589.4,-271.21 599.96,-270.44 591.22,-264.45 589.4,-271.21"/>
</a>
</g>
</g>
<!-- Node16&#45;&gt;Node5 -->
<g id="edge22_Node000016_Node000005" class="edge">
<title>Node16&#45;&gt;Node5</title>
<g id="a_edge22_Node000016_Node000005"><a xlink:title=" ">
<path fill="none" stroke="#63b8ff" d="M465.38,-215.54C483.54,-234.44 527,-276.76 572,-299 580.92,-303.41 590.99,-306.78 600.75,-309.35"/>
<polygon fill="#63b8ff" stroke="#63b8ff" points="600.21,-312.82 610.75,-311.74 601.84,-306.01 600.21,-312.82"/>
</a>
</g>
</g>
<!-- Node16&#45;&gt;Node16 -->
<g id="edge21_Node000016_Node000016" class="edge">
<title>Node16&#45;&gt;Node16</title>
<g id="a_edge21_Node000016_Node000016"><a xlink:title=" ">
<path fill="none" stroke="#63b8ff" d="M426.22,-215.58C411.97,-224.23 421.73,-233.5 455.5,-233.5 478.72,-233.5 490.59,-229.12 491.11,-223.57"/>
<polygon fill="#63b8ff" stroke="#63b8ff" points="493.73,-221.25 484.78,-215.58 488.25,-225.6 493.73,-221.25"/>
</a>
</g>
</g>
<!-- Node17 -->
<g id="Node000017" class="node">
<title>Node17</title>
<g id="a_Node000017"><a xlink:href="collision_8c.html#a30eb531df39ba558cd733e1d1cd6aaa0" target="_top" xlink:title=" ">
<polygon fill="white" stroke="#666666" points="689.5,-252.5 603.5,-252.5 603.5,-233.5 689.5,-233.5 689.5,-252.5"/>
<text text-anchor="middle" x="646.5" y="-240.5" font-family="Helvetica,sans-Serif" font-size="10.00">set_vtx_buffer</text>
</a>
</g>
</g>
<!-- Node16&#45;&gt;Node17 -->
<g id="edge23_Node000016_Node000017" class="edge">
<title>Node16&#45;&gt;Node17</title>
<g id="a_edge23_Node000016_Node000017"><a xlink:title=" ">
<path fill="none" stroke="#63b8ff" d="M505.17,-215.53C532.25,-220.83 565.96,-227.43 593.55,-232.83"/>
<polygon fill="#63b8ff" stroke="#63b8ff" points="592.93,-236.27 603.41,-234.76 594.27,-229.4 592.93,-236.27"/>
</a>
</g>
</g>
<!-- Node18 -->
<g id="Node000018" class="node">
<title>Node18</title>
<g id="a_Node000018"><a xlink:href="collision_8c.html#a593833ca3f04f0c7d8f5dcabe6430115" target="_top" xlink:title=" ">
<polygon fill="white" stroke="#666666" points="717,-215.5 576,-215.5 576,-196.5 717,-196.5 717,-215.5"/>
<text text-anchor="middle" x="646.5" y="-203.5" font-family="Helvetica,sans-Serif" font-size="10.00">set_vtx_from_quadrangle</text>
</a>
</g>
</g>
<!-- Node16&#45;&gt;Node18 -->
<g id="edge24_Node000016_Node000018" class="edge">
<title>Node16&#45;&gt;Node18</title>
<g id="a_edge24_Node000016_Node000018"><a xlink:title=" ">
<path fill="none" stroke="#63b8ff" d="M524.73,-206C537.96,-206 551.94,-206 565.5,-206"/>
<polygon fill="#63b8ff" stroke="#63b8ff" points="565.78,-209.5 575.78,-206 565.78,-202.5 565.78,-209.5"/>
</a>
</g>
</g>
<!-- Node22 -->
<g id="Node000022" class="node">
<title>Node22</title>
<g id="a_Node000022"><a xlink:href="collision_8c.html#ac558a6e1314f154bbf53aaf15396ea1e" target="_top" xlink:title=" ">
<polygon fill="white" stroke="#666666" points="698,-178.5 595,-178.5 595,-159.5 698,-159.5 698,-178.5"/>
<text text-anchor="middle" x="646.5" y="-166.5" font-family="Helvetica,sans-Serif" font-size="10.00">set_vtx_from_tri2</text>
</a>
</g>
</g>
<!-- Node16&#45;&gt;Node22 -->
<g id="edge28_Node000016_Node000022" class="edge">
<title>Node16&#45;&gt;Node22</title>
<g id="a_edge28_Node000016_Node000022"><a xlink:title=" ">
<path fill="none" stroke="#63b8ff" d="M505.17,-196.47C530.1,-191.59 560.63,-185.61 586.85,-180.48"/>
<polygon fill="#63b8ff" stroke="#63b8ff" points="587.52,-183.92 596.66,-178.56 586.18,-177.05 587.52,-183.92"/>
</a>
</g>
</g>
<!-- Node23 -->
<g id="Node000023" class="node">
<title>Node23</title>
<g id="a_Node000023"><a xlink:href="collision_8c.html#a335dc7fed8a2540ca0a5b0a466545845" target="_top" xlink:title=" ">
<polygon fill="white" stroke="#666666" points="708.5,-141.5 584.5,-141.5 584.5,-122.5 708.5,-122.5 708.5,-141.5"/>
<text text-anchor="middle" x="646.5" y="-129.5" font-family="Helvetica,sans-Serif" font-size="10.00">set_vtx_from_triangle</text>
</a>
</g>
</g>
<!-- Node16&#45;&gt;Node23 -->
<g id="edge30_Node000016_Node000023" class="edge">
<title>Node16&#45;&gt;Node23</title>
<g id="a_edge30_Node000016_Node000023"><a xlink:title=" ">
<path fill="none" stroke="#63b8ff" d="M474.05,-196.34C496.3,-184.39 536.1,-164.05 572,-151 578.73,-148.55 585.91,-146.29 593.05,-144.24"/>
<polygon fill="#63b8ff" stroke="#63b8ff" points="594,-147.61 602.71,-141.59 592.14,-140.86 594,-147.61"/>
</a>
</g>
</g>
<!-- Node19 -->
<g id="Node000019" class="node">
<title>Node19</title>
<g id="a_Node000019"><a xlink:href="collision_8c.html#a8c516edee107b39b30bb3a4d3c54534a" target="_top" xlink:title=" ">
<polygon fill="white" stroke="#666666" points="880,-178.5 757,-178.5 757,-159.5 880,-159.5 880,-178.5"/>
<text text-anchor="middle" x="818.5" y="-166.5" font-family="Helvetica,sans-Serif" font-size="10.00">add_collision_triangle</text>
</a>
</g>
</g>
<!-- Node18&#45;&gt;Node19 -->
<g id="edge25_Node000018_Node000019" class="edge">
<title>Node18&#45;&gt;Node19</title>
<g id="a_edge25_Node000018_Node000019"><a xlink:title=" ">
<path fill="none" stroke="#63b8ff" d="M691.28,-196.47C713.3,-191.68 740.2,-185.82 763.5,-180.75"/>
<polygon fill="#63b8ff" stroke="#63b8ff" points="764.55,-184.11 773.57,-178.56 763.06,-177.27 764.55,-184.11"/>
</a>
</g>
</g>
<!-- Node20 -->
<g id="Node000020" class="node">
<title>Node20</title>
<g id="a_Node000020"><a xlink:href="RaceManager_8cpp.html#a693bf81394ee91ac6be58f7481471619" target="_top" xlink:title=" ">
<polygon fill="white" stroke="#666666" points="1086,-197.5 916,-197.5 916,-178.5 1086,-178.5 1086,-197.5"/>
<text text-anchor="middle" x="1001" y="-185.5" font-family="Helvetica,sans-Serif" font-size="10.00">add_triangle_to_collision_mesh</text>
</a>
</g>
</g>
<!-- Node19&#45;&gt;Node20 -->
<g id="edge26_Node000019_Node000020" class="edge">
<title>Node19&#45;&gt;Node20</title>
<g id="a_edge26_Node000019_Node000020"><a xlink:title=" ">
<path fill="none" stroke="#63b8ff" d="M880.11,-175.38C888.35,-176.25 896.97,-177.15 905.63,-178.07"/>
<polygon fill="#63b8ff" stroke="#63b8ff" points="905.5,-181.57 915.81,-179.14 906.23,-174.61 905.5,-181.57"/>
</a>
</g>
</g>
<!-- Node21 -->
<g id="Node000021" class="node">
<title>Node21</title>
<g id="a_Node000021"><a xlink:href="math_8h.html#a37bde043e94a6f074c78f10518fb5d99" target="_top" xlink:title=" ">
<polygon fill="white" stroke="#666666" points="1020.5,-160.5 981.5,-160.5 981.5,-141.5 1020.5,-141.5 1020.5,-160.5"/>
<text text-anchor="middle" x="1001" y="-148.5" font-family="Helvetica,sans-Serif" font-size="10.00">sqrtf</text>
</a>
</g>
</g>
<!-- Node19&#45;&gt;Node21 -->
<g id="edge27_Node000019_Node000021" class="edge">
<title>Node19&#45;&gt;Node21</title>
<g id="a_edge27_Node000019_Node000021"><a xlink:title=" ">
<path fill="none" stroke="#63b8ff" d="M880.11,-162.96C910.8,-159.9 946.63,-156.32 971.07,-153.88"/>
<polygon fill="#63b8ff" stroke="#63b8ff" points="971.52,-157.36 981.13,-152.88 970.83,-150.39 971.52,-157.36"/>
</a>
</g>
</g>
<!-- Node22&#45;&gt;Node19 -->
<g id="edge29_Node000022_Node000019" class="edge">
<title>Node22&#45;&gt;Node19</title>
<g id="a_edge29_Node000022_Node000019"><a xlink:title=" ">
<path fill="none" stroke="#63b8ff" d="M698.05,-169C713.36,-169 730.48,-169 746.86,-169"/>
<polygon fill="#63b8ff" stroke="#63b8ff" points="746.95,-172.5 756.95,-169 746.95,-165.5 746.95,-172.5"/>
</a>
</g>
</g>
<!-- Node23&#45;&gt;Node19 -->
<g id="edge31_Node000023_Node000019" class="edge">
<title>Node23&#45;&gt;Node19</title>
<g id="a_edge31_Node000023_Node000019"><a xlink:title=" ">
<path fill="none" stroke="#63b8ff" d="M691.28,-141.53C713.3,-146.32 740.2,-152.18 763.5,-157.25"/>
<polygon fill="#63b8ff" stroke="#63b8ff" points="763.06,-160.73 773.57,-159.44 764.55,-153.89 763.06,-160.73"/>
</a>
</g>
</g>
</g>
</svg>
