<?xml version="1.0" encoding="UTF-8" standalone="no"?>
<!DOCTYPE svg PUBLIC "-//W3C//DTD SVG 1.1//EN"
 "http://www.w3.org/Graphics/SVG/1.1/DTD/svg11.dtd">
<!-- Generated by graphviz version 2.43.0 (0)
 -->
<!-- Title: func_80281D00 Pages: 1 -->
<svg width="857pt" height="1407pt"
 viewBox="0.00 0.00 857.00 1407.00" xmlns="http://www.w3.org/2000/svg" xmlns:xlink="http://www.w3.org/1999/xlink">
<g id="graph0" class="graph" transform="scale(1 1) rotate(0) translate(4 1403)">
<title>func_80281D00</title>
<!-- Node1 -->
<g id="Node000001" class="node">
<title>Node1</title>
<g id="a_Node000001"><a xlink:title=" ">
<polygon fill="#999999" stroke="#666666" points="92,-505 0,-505 0,-486 92,-486 92,-505"/>
<text text-anchor="middle" x="46" y="-493" font-family="Helvetica,sans-Serif" font-size="10.00">func_80281D00</text>
</a>
</g>
</g>
<!-- Node2 -->
<g id="Node000002" class="node">
<title>Node2</title>
<g id="a_Node000002"><a xlink:href="ceremony__and__credits_8c.html#a513e36d3f7a9dd44fdb8aae694e2ee16" target="_top" xlink:title=" ">
<polygon fill="white" stroke="#666666" points="245,-1350.5 128,-1350.5 128,-1320.5 245,-1320.5 245,-1350.5"/>
<text text-anchor="start" x="136" y="-1338.5" font-family="Helvetica,sans-Serif" font-size="10.00">ceremony_transition</text>
<text text-anchor="middle" x="186.5" y="-1327.5" font-family="Helvetica,sans-Serif" font-size="10.00">_sliding_borders</text>
</a>
</g>
</g>
<!-- Node1&#45;&gt;Node2 -->
<g id="edge1_Node000001_Node000002" class="edge">
<title>Node1&#45;&gt;Node2</title>
<g id="a_edge1_Node000001_Node000002"><a xlink:title=" ">
<path fill="none" stroke="#63b8ff" d="M46.96,-505.1C46.78,-585.4 48.42,-1146.25 128,-1290.5 133.15,-1299.84 141.12,-1307.9 149.51,-1314.51"/>
<polygon fill="#63b8ff" stroke="#63b8ff" points="147.45,-1317.34 157.6,-1320.4 151.58,-1311.68 147.45,-1317.34"/>
</a>
</g>
</g>
<!-- Node9 -->
<g id="Node000009" class="node">
<title>Node9</title>
<g id="a_Node000009"><a xlink:href="main_8c.html#ac6df158ad2a863eb16f6b82e12ea26e4" target="_top" xlink:title=" ">
<polygon fill="white" stroke="#666666" points="238.5,-505 134.5,-505 134.5,-486 238.5,-486 238.5,-505"/>
<text text-anchor="middle" x="186.5" y="-493" font-family="Helvetica,sans-Serif" font-size="10.00">clear_framebuffer</text>
</a>
</g>
</g>
<!-- Node1&#45;&gt;Node9 -->
<g id="edge5_Node000001_Node000009" class="edge">
<title>Node1&#45;&gt;Node9</title>
<g id="a_edge5_Node000001_Node000009"><a xlink:title=" ">
<path fill="none" stroke="#63b8ff" d="M92.35,-495.5C102.51,-495.5 113.46,-495.5 124.15,-495.5"/>
<polygon fill="#63b8ff" stroke="#63b8ff" points="124.29,-499 134.29,-495.5 124.29,-492 124.29,-499"/>
</a>
</g>
</g>
<!-- Node10 -->
<g id="Node000010" class="node">
<title>Node10</title>
<g id="a_Node000010"><a xlink:href="Game_8cpp.html#a3416a195a0c7be6ec3783bbf4842dc3e" target="_top" xlink:title=" ">
<polygon fill="white" stroke="#666666" points="607.5,-1258 525.5,-1258 525.5,-1239 607.5,-1239 607.5,-1258"/>
<text text-anchor="middle" x="566.5" y="-1246" font-family="Helvetica,sans-Serif" font-size="10.00">CM_GetProps</text>
</a>
</g>
</g>
<!-- Node1&#45;&gt;Node10 -->
<g id="edge6_Node000001_Node000010" class="edge">
<title>Node1&#45;&gt;Node10</title>
<g id="a_edge6_Node000001_Node000010"><a xlink:title=" ">
<path fill="none" stroke="#63b8ff" d="M47.26,-505.34C49.33,-576.93 64.5,-1017.93 128,-1132.5 170.57,-1209.3 198.29,-1228.01 281,-1257.5 360.48,-1285.84 460.5,-1272.37 518.3,-1260.26"/>
<polygon fill="#63b8ff" stroke="#63b8ff" points="519.21,-1263.64 528.24,-1258.1 517.73,-1256.8 519.21,-1263.64"/>
</a>
</g>
</g>
<!-- Node11 -->
<g id="Node000011" class="node">
<title>Node11</title>
<g id="a_Node000011"><a xlink:href="render__player_8c.html#a01be050002fbc5c7f80bda44baae4a79" target="_top" xlink:title=" ">
<polygon fill="white" stroke="#666666" points="232.5,-862 140.5,-862 140.5,-843 232.5,-843 232.5,-862"/>
<text text-anchor="middle" x="186.5" y="-850" font-family="Helvetica,sans-Serif" font-size="10.00">func_80021B0C</text>
</a>
</g>
</g>
<!-- Node1&#45;&gt;Node11 -->
<g id="edge7_Node000001_Node000011" class="edge">
<title>Node1&#45;&gt;Node11</title>
<g id="a_edge7_Node000001_Node000011"><a xlink:title=" ">
<path fill="none" stroke="#63b8ff" d="M48.15,-505.05C54.24,-554.06 84.04,-777.04 128,-828.5 131.21,-832.26 135.11,-835.44 139.35,-838.13"/>
<polygon fill="#63b8ff" stroke="#63b8ff" points="137.95,-841.35 148.41,-843 141.25,-835.18 137.95,-841.35"/>
</a>
</g>
</g>
<!-- Node30 -->
<g id="Node000030" class="node">
<title>Node30</title>
<g id="a_Node000030"><a xlink:href="GBIMiddleware_8cpp.html#a4ecc44e3c6f1ca5a6b4a20c41d3bd2d2" target="_top" xlink:title=" ">
<polygon fill="white" stroke="#666666" points="611,-824 522,-824 522,-805 611,-805 611,-824"/>
<text text-anchor="middle" x="566.5" y="-812" font-family="Helvetica,sans-Serif" font-size="10.00">gSPDisplayList</text>
</a>
</g>
</g>
<!-- Node1&#45;&gt;Node30 -->
<g id="edge40_Node000001_Node000030" class="edge">
<title>Node1&#45;&gt;Node30</title>
<g id="a_edge40_Node000001_Node000030"><a xlink:title=" ">
<path fill="none" stroke="#63b8ff" d="M46.84,-505.06C46.75,-543.13 51.7,-685.39 128,-757.5 182.21,-808.74 407.17,-815 511.68,-815.07"/>
<polygon fill="#63b8ff" stroke="#63b8ff" points="511.72,-818.57 521.71,-815.06 511.71,-811.57 511.72,-818.57"/>
</a>
</g>
</g>
<!-- Node46 -->
<g id="Node000046" class="node">
<title>Node46</title>
<g id="a_Node000046"><a xlink:href="menu__items_8c.html#af21eb61f5e1a1ae1ffcc0cf89c398a2e" target="_top" xlink:title=" ">
<polygon fill="white" stroke="#666666" points="232,-542 141,-542 141,-523 232,-523 232,-542"/>
<text text-anchor="middle" x="186.5" y="-530" font-family="Helvetica,sans-Serif" font-size="10.00">func_80093F10</text>
</a>
</g>
</g>
<!-- Node1&#45;&gt;Node46 -->
<g id="edge12_Node000001_Node000046" class="edge">
<title>Node1&#45;&gt;Node46</title>
<g id="a_edge12_Node000001_Node000046"><a xlink:title=" ">
<path fill="none" stroke="#63b8ff" d="M82.67,-505.03C100.06,-509.67 121.18,-515.32 139.75,-520.28"/>
<polygon fill="#63b8ff" stroke="#63b8ff" points="138.91,-523.68 149.47,-522.88 140.71,-516.91 138.91,-523.68"/>
</a>
</g>
</g>
<!-- Node1777 -->
<g id="Node001777" class="node">
<title>Node1777</title>
<g id="a_Node001777"><a xlink:href="podium__ceremony__actors_8c.html#ada674a65695d9415cb4e50e687318e45" target="_top" xlink:title=" ">
<polygon fill="white" stroke="#666666" points="232.5,-468 140.5,-468 140.5,-449 232.5,-449 232.5,-468"/>
<text text-anchor="middle" x="186.5" y="-456" font-family="Helvetica,sans-Serif" font-size="10.00">func_8028150C</text>
</a>
</g>
</g>
<!-- Node1&#45;&gt;Node1777 -->
<g id="edge23_Node000001_Node001777" class="edge">
<title>Node1&#45;&gt;Node1777</title>
<g id="a_edge23_Node000001_Node001777"><a xlink:title=" ">
<path fill="none" stroke="#63b8ff" d="M82.67,-485.97C100.06,-481.33 121.18,-475.68 139.75,-470.72"/>
<polygon fill="#63b8ff" stroke="#63b8ff" points="140.71,-474.09 149.47,-468.12 138.91,-467.32 140.71,-474.09"/>
</a>
</g>
</g>
<!-- Node488 -->
<g id="Node000488" class="node">
<title>Node488</title>
<g id="a_Node000488"><a xlink:href="code__80281C40_8c.html#ab5bd4c2d6a7aebc416355a5b976df802" target="_top" xlink:title=" ">
<polygon fill="white" stroke="#666666" points="232.5,-385 140.5,-385 140.5,-366 232.5,-366 232.5,-385"/>
<text text-anchor="middle" x="186.5" y="-373" font-family="Helvetica,sans-Serif" font-size="10.00">func_80281C40</text>
</a>
</g>
</g>
<!-- Node1&#45;&gt;Node488 -->
<g id="edge24_Node000001_Node000488" class="edge">
<title>Node1&#45;&gt;Node488</title>
<g id="a_edge24_Node000001_Node000488"><a xlink:title=" ">
<path fill="none" stroke="#63b8ff" d="M58.33,-485.68C82.09,-465.1 137.31,-417.25 166.55,-391.92"/>
<polygon fill="#63b8ff" stroke="#63b8ff" points="169.13,-394.31 174.4,-385.12 164.55,-389.02 169.13,-394.31"/>
</a>
</g>
</g>
<!-- Node497 -->
<g id="Node000497" class="node">
<title>Node497</title>
<g id="a_Node000497"><a xlink:href="skybox__and__splitscreen_8c.html#a0ead9b2e7f52608fae3579b63f3453e5" target="_top" xlink:title=" ">
<polygon fill="white" stroke="#666666" points="232.5,-1060 140.5,-1060 140.5,-1041 232.5,-1041 232.5,-1060"/>
<text text-anchor="middle" x="186.5" y="-1048" font-family="Helvetica,sans-Serif" font-size="10.00">func_802A53A4</text>
</a>
</g>
</g>
<!-- Node1&#45;&gt;Node497 -->
<g id="edge26_Node000001_Node000497" class="edge">
<title>Node1&#45;&gt;Node497</title>
<g id="a_edge26_Node000001_Node000497"><a xlink:title=" ">
<path fill="none" stroke="#63b8ff" d="M48.72,-505.17C56.46,-548.3 89.42,-727.33 128,-871.5 143.77,-930.42 167.16,-998.7 178.64,-1031.28"/>
<polygon fill="#63b8ff" stroke="#63b8ff" points="175.4,-1032.64 182.04,-1040.9 182,-1030.3 175.4,-1032.64"/>
</a>
</g>
</g>
<!-- Node504 -->
<g id="Node000504" class="node">
<title>Node504</title>
<g id="a_Node000504"><a xlink:href="skybox__and__splitscreen_8c.html#a1ff551b00275f32a4c52eb741006cbc2" target="_top" xlink:title=" ">
<polygon fill="white" stroke="#666666" points="593,-1191 540,-1191 540,-1172 593,-1172 593,-1191"/>
<text text-anchor="middle" x="566.5" y="-1179" font-family="Helvetica,sans-Serif" font-size="10.00">init_rdp</text>
</a>
</g>
</g>
<!-- Node1&#45;&gt;Node504 -->
<g id="edge49_Node000001_Node000504" class="edge">
<title>Node1&#45;&gt;Node504</title>
<g id="a_edge49_Node000001_Node000504"><a xlink:title=" ">
<path fill="none" stroke="#63b8ff" d="M47.35,-505.25C49.93,-572.55 67.51,-968.48 128,-1069.5 171.29,-1141.8 200.9,-1155.32 281,-1181.5 366.78,-1209.54 475.05,-1197.55 530,-1188.39"/>
<polygon fill="#63b8ff" stroke="#63b8ff" points="530.69,-1191.83 539.94,-1186.67 529.49,-1184.93 530.69,-1191.83"/>
</a>
</g>
</g>
<!-- Node518 -->
<g id="Node000518" class="node">
<title>Node518</title>
<g id="a_Node000518"><a xlink:href="guLookAtF_8c.html#a8641b89f7767fe85370ca7d198ef5566" target="_top" xlink:title=" ">
<polygon fill="white" stroke="#666666" points="217.5,-259 155.5,-259 155.5,-240 217.5,-240 217.5,-259"/>
<text text-anchor="middle" x="186.5" y="-247" font-family="Helvetica,sans-Serif" font-size="10.00">guLookAt</text>
</a>
</g>
</g>
<!-- Node1&#45;&gt;Node518 -->
<g id="edge41_Node000001_Node000518" class="edge">
<title>Node1&#45;&gt;Node518</title>
<g id="a_edge41_Node000001_Node000518"><a xlink:title=" ">
<path fill="none" stroke="#63b8ff" d="M47.69,-485.95C50.65,-451.96 65.13,-335.54 128,-271.5 132.93,-266.48 139.13,-262.58 145.62,-259.57"/>
<polygon fill="#63b8ff" stroke="#63b8ff" points="147.21,-262.7 155.21,-255.75 144.63,-256.2 147.21,-262.7"/>
</a>
</g>
</g>
<!-- Node521 -->
<g id="Node000521" class="node">
<title>Node521</title>
<g id="a_Node000521"><a xlink:href="guPerspectiveF_8c.html#ac2050885d6967becf0e5e3bb3e54bd08" target="_top" xlink:title=" ">
<polygon fill="white" stroke="#666666" points="229.5,-299 143.5,-299 143.5,-280 229.5,-280 229.5,-299"/>
<text text-anchor="middle" x="186.5" y="-287" font-family="Helvetica,sans-Serif" font-size="10.00">guPerspective</text>
</a>
</g>
</g>
<!-- Node1&#45;&gt;Node521 -->
<g id="edge45_Node000001_Node000521" class="edge">
<title>Node1&#45;&gt;Node521</title>
<g id="a_edge45_Node000001_Node000521"><a xlink:title=" ">
<path fill="none" stroke="#63b8ff" d="M51.96,-485.78C63.88,-462.74 95.56,-403.29 128,-357.5 140.88,-339.32 157.48,-320.06 169.53,-306.7"/>
<polygon fill="#63b8ff" stroke="#63b8ff" points="172.21,-308.95 176.37,-299.2 167.04,-304.23 172.21,-308.95"/>
</a>
</g>
</g>
<!-- Node510 -->
<g id="Node000510" class="node">
<title>Node510</title>
<g id="a_Node000510"><a xlink:href="math__util_8c.html#ac22eee16b1def67d2441ce919df0c5ac" target="_top" xlink:title=" ">
<polygon fill="white" stroke="#666666" points="228,-222 145,-222 145,-203 228,-203 228,-222"/>
<text text-anchor="middle" x="186.5" y="-210" font-family="Helvetica,sans-Serif" font-size="10.00">mtxf_identity</text>
</a>
</g>
</g>
<!-- Node1&#45;&gt;Node510 -->
<g id="edge50_Node000001_Node000510" class="edge">
<title>Node1&#45;&gt;Node510</title>
<g id="a_edge50_Node000001_Node000510"><a xlink:title=" ">
<path fill="none" stroke="#63b8ff" d="M46.98,-485.78C47.43,-447.67 54.22,-306.88 128,-231.5 130.35,-229.1 133.02,-227 135.88,-225.16"/>
<polygon fill="#63b8ff" stroke="#63b8ff" points="137.69,-228.16 144.93,-220.42 134.44,-221.96 137.69,-228.16"/>
</a>
</g>
</g>
<!-- Node582 -->
<g id="Node000582" class="node">
<title>Node582</title>
<g id="a_Node000582"><a xlink:href="code__80057C60_8c.html#aa7a2789a42aa20531456b55e052ab664" target="_top" xlink:title=" ">
<polygon fill="white" stroke="#666666" points="228,-748 145,-748 145,-729 228,-729 228,-748"/>
<text text-anchor="middle" x="186.5" y="-736" font-family="Helvetica,sans-Serif" font-size="10.00">render_object</text>
</a>
</g>
</g>
<!-- Node1&#45;&gt;Node582 -->
<g id="edge51_Node000001_Node000582" class="edge">
<title>Node1&#45;&gt;Node582</title>
<g id="a_edge51_Node000001_Node000582"><a xlink:title=" ">
<path fill="none" stroke="#63b8ff" d="M52.43,-505.03C73.11,-541.31 147.19,-671.28 174.92,-719.93"/>
<polygon fill="#63b8ff" stroke="#63b8ff" points="171.97,-721.82 179.96,-728.78 178.05,-718.35 171.97,-721.82"/>
</a>
</g>
</g>
<!-- Node1434 -->
<g id="Node001434" class="node">
<title>Node1434</title>
<g id="a_Node001434"><a xlink:href="render__player_8c.html#a26fb4ad724f6adf5cdaa5b79c5e3d5d1" target="_top" xlink:title=" ">
<polygon fill="white" stroke="#666666" points="231,-136 142,-136 142,-117 231,-117 231,-136"/>
<text text-anchor="middle" x="186.5" y="-124" font-family="Helvetica,sans-Serif" font-size="10.00">render_players</text>
</a>
</g>
</g>
<!-- Node1&#45;&gt;Node1434 -->
<g id="edge54_Node000001_Node001434" class="edge">
<title>Node1&#45;&gt;Node1434</title>
<g id="a_edge54_Node000001_Node001434"><a xlink:title=" ">
<path fill="none" stroke="#63b8ff" d="M48.05,-485.84C52.55,-447.13 72.64,-300.21 128,-194.5 138.22,-174.99 154.86,-156.14 167.62,-143.26"/>
<polygon fill="#63b8ff" stroke="#63b8ff" points="170.28,-145.55 174.97,-136.05 165.38,-140.55 170.28,-145.55"/>
</a>
</g>
</g>
<!-- Node530 -->
<g id="Node000530" class="node">
<title>Node530</title>
<g id="a_Node000530"><a xlink:href="math__util_8c.html#a1e5d28a1962fbb390c7551f66c2f099a" target="_top" xlink:title=" ">
<polygon fill="#fff0f0" stroke="red" points="243,-99 130,-99 130,-80 243,-80 243,-99"/>
<text text-anchor="middle" x="186.5" y="-87" font-family="Helvetica,sans-Serif" font-size="10.00">render_set_position</text>
</a>
</g>
</g>
<!-- Node1&#45;&gt;Node530 -->
<g id="edge59_Node000001_Node000530" class="edge">
<title>Node1&#45;&gt;Node530</title>
<g id="a_edge59_Node000001_Node000530"><a xlink:title=" ">
<path fill="none" stroke="#63b8ff" d="M47.74,-485.81C52.04,-431.69 75.53,-167.25 128,-108.5 129.18,-107.18 130.45,-105.95 131.8,-104.81"/>
<polygon fill="#63b8ff" stroke="#63b8ff" points="133.89,-107.62 140.24,-99.14 129.99,-101.81 133.89,-107.62"/>
</a>
</g>
</g>
<!-- Node1778 -->
<g id="Node001778" class="node">
<title>Node1778</title>
<g id="a_Node001778"><a xlink:href="podium__ceremony__actors_8c.html#a6b0b952d000187f1e1b4e130a1d6caf8" target="_top" xlink:title=" ">
<polygon fill="#fff0f0" stroke="red" points="242.5,-62 130.5,-62 130.5,-43 242.5,-43 242.5,-62"/>
<text text-anchor="middle" x="186.5" y="-50" font-family="Helvetica,sans-Serif" font-size="10.00">update_actors_loop</text>
</a>
</g>
</g>
<!-- Node1&#45;&gt;Node1778 -->
<g id="edge60_Node000001_Node001778" class="edge">
<title>Node1&#45;&gt;Node1778</title>
<g id="a_edge60_Node000001_Node001778"><a xlink:title=" ">
<path fill="none" stroke="#63b8ff" d="M47.56,-485.65C50.98,-428.17 71.03,-136.42 128,-71.5 129.17,-70.17 130.43,-68.93 131.77,-67.78"/>
<polygon fill="#63b8ff" stroke="#63b8ff" points="133.86,-70.59 140.18,-62.08 129.94,-64.8 133.86,-70.59"/>
</a>
</g>
</g>
<!-- Node3 -->
<g id="Node000003" class="node">
<title>Node3</title>
<g id="a_Node000003"><a xlink:href="ceremony__and__credits_8c.html#a160bab6d6d445123f7da0d831e840eb7" target="_top" xlink:title=" ">
<polygon fill="white" stroke="#666666" points="433,-1399 281,-1399 281,-1380 433,-1380 433,-1399"/>
<text text-anchor="middle" x="357" y="-1387" font-family="Helvetica,sans-Serif" font-size="10.00">adjust_f32_value_transition</text>
</a>
</g>
</g>
<!-- Node2&#45;&gt;Node3 -->
<g id="edge2_Node000002_Node000003" class="edge">
<title>Node2&#45;&gt;Node3</title>
<g id="a_edge2_Node000002_Node000003"><a xlink:title=" ">
<path fill="none" stroke="#63b8ff" d="M223.52,-1350.65C240.73,-1357.55 261.73,-1365.51 281,-1371.5 287.86,-1373.63 295.13,-1375.66 302.35,-1377.54"/>
<polygon fill="#63b8ff" stroke="#63b8ff" points="301.56,-1380.95 312.11,-1379.99 303.27,-1374.16 301.56,-1380.95"/>
</a>
</g>
</g>
<!-- Node4 -->
<g id="Node000004" class="node">
<title>Node4</title>
<g id="a_Node000004"><a xlink:href="Engine_8cpp.html#a0b2a0a6072d24bc155959292bc165961" target="_top" xlink:title=" ">
<polygon fill="#fff0f0" stroke="red" points="430,-1362 284,-1362 284,-1343 430,-1343 430,-1362"/>
<text text-anchor="middle" x="357" y="-1350" font-family="Helvetica,sans-Serif" font-size="10.00">OTRGetGameRenderWidth</text>
</a>
</g>
</g>
<!-- Node2&#45;&gt;Node4 -->
<g id="edge3_Node000002_Node000004" class="edge">
<title>Node2&#45;&gt;Node4</title>
<g id="a_edge3_Node000002_Node000004"><a xlink:title=" ">
<path fill="none" stroke="#63b8ff" d="M245.02,-1341.3C254.29,-1342.24 264.04,-1343.22 273.75,-1344.2"/>
<polygon fill="#63b8ff" stroke="#63b8ff" points="273.54,-1347.7 283.84,-1345.22 274.24,-1340.73 273.54,-1347.7"/>
</a>
</g>
</g>
<!-- Node6 -->
<g id="Node000006" class="node">
<title>Node6</title>
<g id="a_Node000006"><a xlink:href="Engine_8cpp.html#af8ad96e953b60eb630f5261745844e45" target="_top" xlink:title=" ">
<polygon fill="#fff0f0" stroke="red" points="664,-1314 469,-1314 469,-1295 664,-1295 664,-1314"/>
<text text-anchor="middle" x="566.5" y="-1302" font-family="Helvetica,sans-Serif" font-size="10.00">OTRGetRectDimensionFromLeftEdge</text>
</a>
</g>
</g>
<!-- Node2&#45;&gt;Node6 -->
<g id="edge4_Node000002_Node000006" class="edge">
<title>Node2&#45;&gt;Node6</title>
<g id="a_edge4_Node000002_Node000006"><a xlink:title=" ">
<path fill="none" stroke="#63b8ff" d="M245.32,-1330.76C301.9,-1326.12 389.41,-1318.94 458.66,-1313.26"/>
<polygon fill="#63b8ff" stroke="#63b8ff" points="459.06,-1316.74 468.74,-1312.44 458.48,-1309.76 459.06,-1316.74"/>
</a>
</g>
</g>
<!-- Node12 -->
<g id="Node000012" class="node">
<title>Node12</title>
<g id="a_Node000012"><a xlink:href="code__80057C60_8c.html#aa092aa3d7f7c2b7df1efdc5cd214b41e" target="_top" xlink:title=" ">
<polygon fill="#fff0f0" stroke="red" points="403,-862 311,-862 311,-843 403,-843 403,-862"/>
<text text-anchor="middle" x="357" y="-850" font-family="Helvetica,sans-Serif" font-size="10.00">func_8006E7CC</text>
</a>
</g>
</g>
<!-- Node11&#45;&gt;Node12 -->
<g id="edge8_Node000011_Node000012" class="edge">
<title>Node11&#45;&gt;Node12</title>
<g id="a_edge8_Node000011_Node000012"><a xlink:title=" ">
<path fill="none" stroke="#63b8ff" d="M232.65,-852.5C253.53,-852.5 278.51,-852.5 300.52,-852.5"/>
<polygon fill="#63b8ff" stroke="#63b8ff" points="300.72,-856 310.72,-852.5 300.72,-849 300.72,-856"/>
</a>
</g>
</g>
<!-- Node43 -->
<g id="Node000043" class="node">
<title>Node43</title>
<g id="a_Node000043"><a xlink:href="render__player_8c.html#a9652f690c50c69870238da9df225f8d8" target="_top" xlink:title=" ">
<polygon fill="#fff0f0" stroke="red" points="420.5,-910.5 293.5,-910.5 293.5,-880.5 420.5,-880.5 420.5,-910.5"/>
<text text-anchor="start" x="301.5" y="-898.5" font-family="Helvetica,sans-Serif" font-size="10.00">render_player_shadow</text>
<text text-anchor="middle" x="357" y="-887.5" font-family="Helvetica,sans-Serif" font-size="10.00">_credits</text>
</a>
</g>
</g>
<!-- Node11&#45;&gt;Node43 -->
<g id="edge9_Node000011_Node000043" class="edge">
<title>Node11&#45;&gt;Node43</title>
<g id="a_edge9_Node000011_Node000043"><a xlink:title=" ">
<path fill="none" stroke="#63b8ff" d="M224.9,-862.04C243.31,-866.74 266.1,-872.56 287.49,-878.02"/>
<polygon fill="#63b8ff" stroke="#63b8ff" points="286.64,-881.41 297.2,-880.49 288.37,-874.63 286.64,-881.41"/>
</a>
</g>
</g>
<!-- Node43&#45;&gt;Node30 -->
<g id="edge10_Node000043_Node000030" class="edge">
<title>Node43&#45;&gt;Node30</title>
<g id="a_edge10_Node000043_Node000030"><a xlink:title=" ">
<path fill="none" stroke="#63b8ff" d="M407.45,-880.42C416.02,-877.6 424.81,-874.57 433,-871.5 468.93,-858.06 509.3,-840.29 535.94,-828.19"/>
<polygon fill="#63b8ff" stroke="#63b8ff" points="537.45,-831.35 545.09,-824.01 534.54,-824.98 537.45,-831.35"/>
</a>
</g>
</g>
<!-- Node31 -->
<g id="Node000031" class="node">
<title>Node31</title>
<g id="a_Node000031"><a xlink:href="Engine_8cpp.html#a223c8bc63f228dc11177515e38eff2db" target="_top" xlink:title=" ">
<polygon fill="#fff0f0" stroke="red" points="849,-824 700,-824 700,-805 849,-805 849,-824"/>
<text text-anchor="middle" x="774.5" y="-812" font-family="Helvetica,sans-Serif" font-size="10.00">GameEngine_OTRSigCheck</text>
</a>
</g>
</g>
<!-- Node30&#45;&gt;Node31 -->
<g id="edge11_Node000030_Node000031" class="edge">
<title>Node30&#45;&gt;Node31</title>
<g id="a_edge11_Node000030_Node000031"><a xlink:title=" ">
<path fill="none" stroke="#63b8ff" d="M611.19,-814.5C634.02,-814.5 662.75,-814.5 689.66,-814.5"/>
<polygon fill="#63b8ff" stroke="#63b8ff" points="689.87,-818 699.87,-814.5 689.87,-811 689.87,-818"/>
</a>
</g>
</g>
<!-- Node46&#45;&gt;Node30 -->
<g id="edge21_Node000046_Node000030" class="edge">
<title>Node46&#45;&gt;Node30</title>
<g id="a_edge21_Node000046_Node000030"><a xlink:title=" ">
<path fill="none" stroke="#63b8ff" d="M190.89,-542.07C200.65,-568.29 231.33,-641.91 281,-681.5 336.95,-726.09 368.25,-704.07 433,-734.5 473.68,-753.62 517.77,-781.91 543.45,-799.22"/>
<polygon fill="#63b8ff" stroke="#63b8ff" points="541.49,-802.12 551.72,-804.86 545.42,-796.34 541.49,-802.12"/>
</a>
</g>
</g>
<!-- Node47 -->
<g id="Node000047" class="node">
<title>Node47</title>
<g id="a_Node000047"><a xlink:href="Matrix_8cpp.html#a11c8471303ff583e65dfe68519c8c6cd" target="_top" xlink:title=" ">
<polygon fill="#fff0f0" stroke="red" points="418,-598 296,-598 296,-579 418,-579 418,-598"/>
<text text-anchor="middle" x="357" y="-586" font-family="Helvetica,sans-Serif" font-size="10.00">AddEffectMatrixOrtho</text>
</a>
</g>
</g>
<!-- Node46&#45;&gt;Node47 -->
<g id="edge13_Node000046_Node000047" class="edge">
<title>Node46&#45;&gt;Node47</title>
<g id="a_edge13_Node000046_Node000047"><a xlink:title=" ">
<path fill="none" stroke="#63b8ff" d="M208.33,-542.02C227.06,-550.33 255.48,-562.3 281,-570.5 287.51,-572.59 294.41,-574.56 301.28,-576.38"/>
<polygon fill="#63b8ff" stroke="#63b8ff" points="300.72,-579.85 311.28,-578.93 302.45,-573.07 300.72,-579.85"/>
</a>
</g>
</g>
<!-- Node49 -->
<g id="Node000049" class="node">
<title>Node49</title>
<g id="a_Node000049"><a xlink:href="menu__items_8c.html#ab804a61cd6e485851b3611d6f9b03bb3" target="_top" xlink:title=" ">
<polygon fill="white" stroke="#666666" points="402.5,-561 311.5,-561 311.5,-542 402.5,-542 402.5,-561"/>
<text text-anchor="middle" x="357" y="-549" font-family="Helvetica,sans-Serif" font-size="10.00">func_80092290</text>
</a>
</g>
</g>
<!-- Node46&#45;&gt;Node49 -->
<g id="edge14_Node000046_Node000049" class="edge">
<title>Node46&#45;&gt;Node49</title>
<g id="a_edge14_Node000046_Node000049"><a xlink:title=" ">
<path fill="none" stroke="#63b8ff" d="M232.21,-537.54C253.43,-539.93 278.98,-542.82 301.35,-545.34"/>
<polygon fill="#63b8ff" stroke="#63b8ff" points="301.04,-548.83 311.37,-546.47 301.83,-541.87 301.04,-548.83"/>
</a>
</g>
</g>
<!-- Node50 -->
<g id="Node000050" class="node">
<title>Node50</title>
<g id="a_Node000050"><a xlink:href="menu__items_8c.html#ac6ec4c42ba222e5620f5c1b6aa2535cf" target="_top" xlink:title=" ">
<polygon fill="white" stroke="#666666" points="403,-524 311,-524 311,-505 403,-505 403,-524"/>
<text text-anchor="middle" x="357" y="-512" font-family="Helvetica,sans-Serif" font-size="10.00">func_80099A70</text>
</a>
</g>
</g>
<!-- Node46&#45;&gt;Node50 -->
<g id="edge15_Node000046_Node000050" class="edge">
<title>Node46&#45;&gt;Node50</title>
<g id="a_edge15_Node000046_Node000050"><a xlink:title=" ">
<path fill="none" stroke="#63b8ff" d="M232.21,-527.72C253.27,-525.47 278.58,-522.77 300.81,-520.4"/>
<polygon fill="#63b8ff" stroke="#63b8ff" points="301.21,-523.87 310.79,-519.33 300.47,-516.91 301.21,-523.87"/>
</a>
</g>
</g>
<!-- Node51 -->
<g id="Node000051" class="node">
<title>Node51</title>
<g id="a_Node000051"><a xlink:href="menu__items_8h.html#a0250d0c3ad00aaf82903bf60ed652def" target="_top" xlink:title=" ">
<polygon fill="white" stroke="#666666" points="403,-487 311,-487 311,-468 403,-468 403,-487"/>
<text text-anchor="middle" x="357" y="-475" font-family="Helvetica,sans-Serif" font-size="10.00">func_80099AEC</text>
</a>
</g>
</g>
<!-- Node46&#45;&gt;Node51 -->
<g id="edge16_Node000046_Node000051" class="edge">
<title>Node46&#45;&gt;Node51</title>
<g id="a_edge16_Node000046_Node000051"><a xlink:title=" ">
<path fill="none" stroke="#63b8ff" d="M221.26,-522.92C229.14,-520.42 237.43,-517.55 245,-514.5 261.59,-507.81 264.23,-502.73 281,-496.5 287.51,-494.08 294.46,-491.86 301.39,-489.86"/>
<polygon fill="#63b8ff" stroke="#63b8ff" points="302.77,-493.11 311.49,-487.09 300.92,-486.36 302.77,-493.11"/>
</a>
</g>
</g>
<!-- Node52 -->
<g id="Node000052" class="node">
<title>Node52</title>
<g id="a_Node000052"><a xlink:href="menu__items_8c.html#a80ec798e2d55b54cd3bcd7dfa05c62cf" target="_top" xlink:title=" ">
<polygon fill="white" stroke="#666666" points="402.5,-450 311.5,-450 311.5,-431 402.5,-431 402.5,-450"/>
<text text-anchor="middle" x="357" y="-438" font-family="Helvetica,sans-Serif" font-size="10.00">func_80099E54</text>
</a>
</g>
</g>
<!-- Node46&#45;&gt;Node52 -->
<g id="edge17_Node000046_Node000052" class="edge">
<title>Node46&#45;&gt;Node52</title>
<g id="a_edge17_Node000046_Node000052"><a xlink:title=" ">
<path fill="none" stroke="#63b8ff" d="M229.99,-522.93C235.33,-520.68 240.49,-517.91 245,-514.5 268.31,-496.88 257.22,-476.47 281,-459.5 287.09,-455.16 294.08,-451.8 301.29,-449.21"/>
<polygon fill="#63b8ff" stroke="#63b8ff" points="302.68,-452.45 311.19,-446.14 300.6,-445.76 302.68,-452.45"/>
</a>
</g>
</g>
<!-- Node53 -->
<g id="Node000053" class="node">
<title>Node53</title>
<g id="a_Node000053"><a xlink:href="menu__items_8c.html#abb491fbf848c6e5509054ad65807818b" target="_top" xlink:title=" ">
<polygon fill="#fff0f0" stroke="red" points="403,-413 311,-413 311,-394 403,-394 403,-413"/>
<text text-anchor="middle" x="357" y="-401" font-family="Helvetica,sans-Serif" font-size="10.00">func_80099EC4</text>
</a>
</g>
</g>
<!-- Node46&#45;&gt;Node53 -->
<g id="edge18_Node000046_Node000053" class="edge">
<title>Node46&#45;&gt;Node53</title>
<g id="a_edge18_Node000046_Node000053"><a xlink:title=" ">
<path fill="none" stroke="#63b8ff" d="M232.13,-523.08C236.83,-520.81 241.25,-518 245,-514.5 277.11,-484.55 248.08,-451.55 281,-422.5 286.88,-417.31 293.97,-413.5 301.43,-410.71"/>
<polygon fill="#63b8ff" stroke="#63b8ff" points="302.51,-414.04 310.99,-407.7 300.4,-407.37 302.51,-414.04"/>
</a>
</g>
</g>
<!-- Node67 -->
<g id="Node000067" class="node">
<title>Node67</title>
<g id="a_Node000067"><a xlink:href="menu__items_8c.html#a29cbe5c8f91343f11f916dc66094707a" target="_top" xlink:title=" ">
<polygon fill="white" stroke="#666666" points="403,-376 311,-376 311,-357 403,-357 403,-376"/>
<text text-anchor="middle" x="357" y="-364" font-family="Helvetica,sans-Serif" font-size="10.00">func_8009C918</text>
</a>
</g>
</g>
<!-- Node46&#45;&gt;Node67 -->
<g id="edge19_Node000046_Node000067" class="edge">
<title>Node46&#45;&gt;Node67</title>
<g id="a_edge19_Node000046_Node000067"><a xlink:title=" ">
<path fill="none" stroke="#63b8ff" d="M232.21,-523.59C236.95,-521.23 241.36,-518.26 245,-514.5 286.43,-471.76 238.41,-427.08 281,-385.5 286.68,-379.96 293.73,-375.96 301.21,-373.09"/>
<polygon fill="#63b8ff" stroke="#63b8ff" points="302.39,-376.39 310.86,-370.03 300.27,-369.72 302.39,-376.39"/>
</a>
</g>
</g>
<!-- Node68 -->
<g id="Node000068" class="node">
<title>Node68</title>
<g id="a_Node000068"><a xlink:href="menu__items_8c.html#a7ce80b05c85045464b43508403003739" target="_top" xlink:title=" ">
<polygon fill="#fff0f0" stroke="red" points="403.5,-672 310.5,-672 310.5,-653 403.5,-653 403.5,-672"/>
<text text-anchor="middle" x="357" y="-660" font-family="Helvetica,sans-Serif" font-size="10.00">func_8009CA2C</text>
</a>
</g>
</g>
<!-- Node46&#45;&gt;Node68 -->
<g id="edge20_Node000046_Node000068" class="edge">
<title>Node46&#45;&gt;Node68</title>
<g id="a_edge20_Node000046_Node000068"><a xlink:title=" ">
<path fill="none" stroke="#63b8ff" d="M192.6,-542.07C204.77,-563.92 237.74,-617.66 281,-644.5 286.89,-648.15 293.46,-651.06 300.19,-653.38"/>
<polygon fill="#63b8ff" stroke="#63b8ff" points="299.54,-656.84 310.12,-656.38 301.56,-650.14 299.54,-656.84"/>
</a>
</g>
</g>
<!-- Node117 -->
<g id="Node000117" class="node">
<title>Node117</title>
<g id="a_Node000117"><a xlink:href="menu__items_8c.html#a1e3ad283dd2f5c1852b442746a11649c" target="_top" xlink:title=" ">
<polygon fill="#fff0f0" stroke="red" points="421,-635 293,-635 293,-616 421,-616 421,-635"/>
<text text-anchor="middle" x="357" y="-623" font-family="Helvetica,sans-Serif" font-size="10.00">handle_menus_default</text>
</a>
</g>
</g>
<!-- Node46&#45;&gt;Node117 -->
<g id="edge22_Node000046_Node000117" class="edge">
<title>Node46&#45;&gt;Node117</title>
<g id="a_edge22_Node000046_Node000117"><a xlink:title=" ">
<path fill="none" stroke="#63b8ff" d="M196.6,-542.18C212.27,-558.25 246.06,-590.37 281,-607.5 285.03,-609.48 289.29,-611.24 293.66,-612.82"/>
<polygon fill="#63b8ff" stroke="#63b8ff" points="292.73,-616.2 303.32,-615.99 294.91,-609.55 292.73,-616.2"/>
</a>
</g>
</g>
<!-- Node489 -->
<g id="Node000489" class="node">
<title>Node489</title>
<g id="a_Node000489"><a xlink:href="render__objects_8c.html#a177b409a09064a27359b1dc5db7ec445" target="_top" xlink:title=" ">
<polygon fill="#fff0f0" stroke="red" points="402.5,-339 311.5,-339 311.5,-320 402.5,-320 402.5,-339"/>
<text text-anchor="middle" x="357" y="-327" font-family="Helvetica,sans-Serif" font-size="10.00">func_800579F8</text>
</a>
</g>
</g>
<!-- Node488&#45;&gt;Node489 -->
<g id="edge25_Node000488_Node000489" class="edge">
<title>Node488&#45;&gt;Node489</title>
<g id="a_edge25_Node000488_Node000489"><a xlink:title=" ">
<path fill="none" stroke="#63b8ff" d="M219.45,-365.99C237.48,-360.7 260.45,-354.07 281,-348.5 289.57,-346.18 298.72,-343.79 307.57,-341.52"/>
<polygon fill="#63b8ff" stroke="#63b8ff" points="308.57,-344.88 317.4,-339.02 306.84,-338.09 308.57,-344.88"/>
</a>
</g>
</g>
<!-- Node468 -->
<g id="Node000468" class="node">
<title>Node468</title>
<g id="a_Node000468"><a xlink:href="code__80057C60_8c.html#a5051668e440a7101d3885766d39d2404" target="_top" xlink:title=" ">
<polygon fill="#fff0f0" stroke="red" points="403,-948 311,-948 311,-929 403,-929 403,-948"/>
<text text-anchor="middle" x="357" y="-936" font-family="Helvetica,sans-Serif" font-size="10.00">func_80057FC4</text>
</a>
</g>
</g>
<!-- Node497&#45;&gt;Node468 -->
<g id="edge27_Node000497_Node000468" class="edge">
<title>Node497&#45;&gt;Node468</title>
<g id="a_edge27_Node000497_Node000468"><a xlink:title=" ">
<path fill="none" stroke="#63b8ff" d="M194.28,-1040.92C208.24,-1021.95 242.15,-979.51 281,-957.5 287.27,-953.95 294.2,-951.05 301.24,-948.69"/>
<polygon fill="#63b8ff" stroke="#63b8ff" points="302.3,-952.03 310.87,-945.79 300.28,-945.33 302.3,-952.03"/>
</a>
</g>
</g>
<!-- Node498 -->
<g id="Node000498" class="node">
<title>Node498</title>
<g id="a_Node000498"><a xlink:href="menu__items_8c.html#a6cc677f84eccb008ce70c4b051701cb6" target="_top" xlink:title=" ">
<polygon fill="#fff0f0" stroke="red" points="403,-1135 311,-1135 311,-1116 403,-1116 403,-1135"/>
<text text-anchor="middle" x="357" y="-1123" font-family="Helvetica,sans-Serif" font-size="10.00">func_80093A30</text>
</a>
</g>
</g>
<!-- Node497&#45;&gt;Node498 -->
<g id="edge29_Node000497_Node000498" class="edge">
<title>Node497&#45;&gt;Node498</title>
<g id="a_edge29_Node000497_Node000498"><a xlink:title=" ">
<path fill="none" stroke="#63b8ff" d="M200.42,-1060.2C217.85,-1072.83 250.25,-1094.8 281,-1107.5 287.32,-1110.11 294.1,-1112.39 300.91,-1114.38"/>
<polygon fill="#63b8ff" stroke="#63b8ff" points="300.29,-1117.84 310.86,-1117.08 302.12,-1111.08 300.29,-1117.84"/>
</a>
</g>
</g>
<!-- Node502 -->
<g id="Node000502" class="node">
<title>Node502</title>
<g id="a_Node000502"><a xlink:href="skybox__and__splitscreen_8c.html#acc9cba21c82598c6d7d4301fa6a67981" target="_top" xlink:title=" ">
<polygon fill="white" stroke="#666666" points="403,-1098 311,-1098 311,-1079 403,-1079 403,-1098"/>
<text text-anchor="middle" x="357" y="-1086" font-family="Helvetica,sans-Serif" font-size="10.00">func_802A3730</text>
</a>
</g>
</g>
<!-- Node497&#45;&gt;Node502 -->
<g id="edge30_Node000497_Node000502" class="edge">
<title>Node497&#45;&gt;Node502</title>
<g id="a_edge30_Node000497_Node000502"><a xlink:title=" ">
<path fill="none" stroke="#63b8ff" d="M230.02,-1060.09C252.46,-1065.15 280.17,-1071.4 303.89,-1076.75"/>
<polygon fill="#63b8ff" stroke="#63b8ff" points="303.26,-1080.19 313.79,-1078.98 304.8,-1073.37 303.26,-1080.19"/>
</a>
</g>
</g>
<!-- Node503 -->
<g id="Node000503" class="node">
<title>Node503</title>
<g id="a_Node000503"><a xlink:href="skybox__and__splitscreen_8c.html#a957121c0bb1c28d3526a6a29fa723d79" target="_top" xlink:title=" ">
<polygon fill="#fff0f0" stroke="red" points="403,-1172 311,-1172 311,-1153 403,-1153 403,-1172"/>
<text text-anchor="middle" x="357" y="-1160" font-family="Helvetica,sans-Serif" font-size="10.00">func_802A487C</text>
</a>
</g>
</g>
<!-- Node497&#45;&gt;Node503 -->
<g id="edge31_Node000497_Node000503" class="edge">
<title>Node497&#45;&gt;Node503</title>
<g id="a_edge31_Node000497_Node000503"><a xlink:title=" ">
<path fill="none" stroke="#63b8ff" d="M194.23,-1060.22C208.1,-1079.48 241.87,-1122.52 281,-1144.5 287.26,-1148.02 294.19,-1150.85 301.23,-1153.13"/>
<polygon fill="#63b8ff" stroke="#63b8ff" points="300.27,-1156.5 310.85,-1155.91 302.22,-1149.77 300.27,-1156.5"/>
</a>
</g>
</g>
<!-- Node497&#45;&gt;Node504 -->
<g id="edge37_Node000497_Node000504" class="edge">
<title>Node497&#45;&gt;Node504</title>
<g id="a_edge37_Node000497_Node000504"><a xlink:title=" ">
<path fill="none" stroke="#63b8ff" d="M232.84,-1046.19C283.6,-1043.15 367.33,-1043.56 433,-1070.5 483.39,-1091.17 528.92,-1138.32 551.16,-1164.02"/>
<polygon fill="#63b8ff" stroke="#63b8ff" points="548.65,-1166.47 557.79,-1171.84 554,-1161.94 548.65,-1166.47"/>
</a>
</g>
</g>
<!-- Node506 -->
<g id="Node000506" class="node">
<title>Node506</title>
<g id="a_Node000506"><a xlink:href="skybox__and__splitscreen_8c.html#a51d622a3e48bc5ed08a534bc490d0b1d" target="_top" xlink:title=" ">
<polygon fill="#fff0f0" stroke="red" points="403.5,-1248 310.5,-1248 310.5,-1229 403.5,-1229 403.5,-1248"/>
<text text-anchor="middle" x="357" y="-1236" font-family="Helvetica,sans-Serif" font-size="10.00">func_802A4A0C</text>
</a>
</g>
</g>
<!-- Node497&#45;&gt;Node506 -->
<g id="edge33_Node000497_Node000506" class="edge">
<title>Node497&#45;&gt;Node506</title>
<g id="a_edge33_Node000497_Node000506"><a xlink:title=" ">
<path fill="none" stroke="#63b8ff" d="M192.98,-1060.12C206.2,-1082.85 241.69,-1141 281,-1181.5 296.52,-1197.49 316.77,-1212.61 332.31,-1223.25"/>
<polygon fill="#63b8ff" stroke="#63b8ff" points="330.59,-1226.31 340.85,-1228.97 334.49,-1220.5 330.59,-1226.31"/>
</a>
</g>
</g>
<!-- Node516 -->
<g id="Node000516" class="node">
<title>Node516</title>
<g id="a_Node000516"><a xlink:href="skybox__and__splitscreen_8c.html#af301b54a848553e5cbefdeaecc5dd67b" target="_top" xlink:title=" ">
<polygon fill="white" stroke="#666666" points="395.5,-1022 318.5,-1022 318.5,-1003 395.5,-1003 395.5,-1022"/>
<text text-anchor="middle" x="357" y="-1010" font-family="Helvetica,sans-Serif" font-size="10.00">init_z_buffer</text>
</a>
</g>
</g>
<!-- Node497&#45;&gt;Node516 -->
<g id="edge38_Node000497_Node000516" class="edge">
<title>Node497&#45;&gt;Node516</title>
<g id="a_edge38_Node000497_Node000516"><a xlink:title=" ">
<path fill="none" stroke="#63b8ff" d="M230.02,-1040.91C253.93,-1035.52 283.83,-1028.78 308.5,-1023.21"/>
<polygon fill="#63b8ff" stroke="#63b8ff" points="309.39,-1026.6 318.38,-1020.99 307.85,-1019.77 309.39,-1026.6"/>
</a>
</g>
</g>
<!-- Node517 -->
<g id="Node000517" class="node">
<title>Node517</title>
<g id="a_Node000517"><a xlink:href="skybox__and__splitscreen_8c.html#ab481a35d4548245b2a89ab574f460a14" target="_top" xlink:title=" ">
<polygon fill="white" stroke="#666666" points="411.5,-985 302.5,-985 302.5,-966 411.5,-966 411.5,-985"/>
<text text-anchor="middle" x="357" y="-973" font-family="Helvetica,sans-Serif" font-size="10.00">select_framebuffer</text>
</a>
</g>
</g>
<!-- Node497&#45;&gt;Node517 -->
<g id="edge39_Node000497_Node000517" class="edge">
<title>Node497&#45;&gt;Node517</title>
<g id="a_edge39_Node000497_Node000517"><a xlink:title=" ">
<path fill="none" stroke="#63b8ff" d="M200.78,-1040.83C218.33,-1028.46 250.6,-1007.13 281,-994.5 286.86,-992.06 293.11,-989.88 299.41,-987.94"/>
<polygon fill="#63b8ff" stroke="#63b8ff" points="300.66,-991.22 309.3,-985.08 298.72,-984.49 300.66,-991.22"/>
</a>
</g>
</g>
<!-- Node468&#45;&gt;Node30 -->
<g id="edge28_Node000468_Node000030" class="edge">
<title>Node468&#45;&gt;Node30</title>
<g id="a_edge28_Node000468_Node000030"><a xlink:title=" ">
<path fill="none" stroke="#63b8ff" d="M403.13,-930.35C413.25,-927.63 423.73,-924.08 433,-919.5 479.81,-896.36 525.54,-854.68 549.09,-831.4"/>
<polygon fill="#63b8ff" stroke="#63b8ff" points="551.62,-833.82 556.2,-824.26 546.66,-828.88 551.62,-833.82"/>
</a>
</g>
</g>
<!-- Node503&#45;&gt;Node504 -->
<g id="edge32_Node000503_Node000504" class="edge">
<title>Node503&#45;&gt;Node504</title>
<g id="a_edge32_Node000503_Node000504"><a xlink:title=" ">
<path fill="none" stroke="#63b8ff" d="M403.02,-1166.62C440.94,-1170.09 494.46,-1174.99 529.55,-1178.21"/>
<polygon fill="#63b8ff" stroke="#63b8ff" points="529.54,-1181.72 539.82,-1179.15 530.18,-1174.75 529.54,-1181.72"/>
</a>
</g>
</g>
<!-- Node506&#45;&gt;Node6 -->
<g id="edge36_Node000506_Node000006" class="edge">
<title>Node506&#45;&gt;Node6</title>
<g id="a_edge36_Node000506_Node000006"><a xlink:title=" ">
<path fill="none" stroke="#63b8ff" d="M388.17,-1248.1C424.54,-1259.67 485.77,-1279.14 525.91,-1291.91"/>
<polygon fill="#63b8ff" stroke="#63b8ff" points="525.04,-1295.3 535.63,-1295 527.16,-1288.63 525.04,-1295.3"/>
</a>
</g>
</g>
<!-- Node506&#45;&gt;Node10 -->
<g id="edge34_Node000506_Node000010" class="edge">
<title>Node506&#45;&gt;Node10</title>
<g id="a_edge34_Node000506_Node000010"><a xlink:title=" ">
<path fill="none" stroke="#63b8ff" d="M403.54,-1240.69C436.51,-1242.28 481.09,-1244.43 515.13,-1246.07"/>
<polygon fill="#63b8ff" stroke="#63b8ff" points="515.17,-1249.58 525.33,-1246.56 515.51,-1242.59 515.17,-1249.58"/>
</a>
</g>
</g>
<!-- Node506&#45;&gt;Node504 -->
<g id="edge35_Node000506_Node000504" class="edge">
<title>Node506&#45;&gt;Node504</title>
<g id="a_edge35_Node000506_Node000504"><a xlink:title=" ">
<path fill="none" stroke="#63b8ff" d="M392.73,-1228.96C430.86,-1218.49 491.74,-1201.76 530.12,-1191.22"/>
<polygon fill="#63b8ff" stroke="#63b8ff" points="531.13,-1194.57 539.84,-1188.55 529.27,-1187.82 531.13,-1194.57"/>
</a>
</g>
</g>
<!-- Node22 -->
<g id="Node000022" class="node">
<title>Node22</title>
<g id="a_Node000022"><a xlink:href="FrameInterpolation_8cpp.html#a8cf1f2d6fabc6925aa71a9515341b4aa" target="_top" xlink:title=" ">
<polygon fill="#fff0f0" stroke="red" points="427,-264.5 287,-264.5 287,-234.5 427,-234.5 427,-264.5"/>
<text text-anchor="start" x="295" y="-252.5" font-family="Helvetica,sans-Serif" font-size="10.00">FrameInterpolation</text>
<text text-anchor="middle" x="357" y="-241.5" font-family="Helvetica,sans-Serif" font-size="10.00">_RecordMatrixMtxFToMtx</text>
</a>
</g>
</g>
<!-- Node518&#45;&gt;Node22 -->
<g id="edge42_Node000518_Node000022" class="edge">
<title>Node518&#45;&gt;Node22</title>
<g id="a_edge42_Node000518_Node000022"><a xlink:title=" ">
<path fill="none" stroke="#63b8ff" d="M217.62,-249.5C234.22,-249.5 255.67,-249.5 276.71,-249.5"/>
<polygon fill="#63b8ff" stroke="#63b8ff" points="276.99,-253 286.99,-249.5 276.99,-246 276.99,-253"/>
</a>
</g>
</g>
<!-- Node519 -->
<g id="Node000519" class="node">
<title>Node519</title>
<g id="a_Node000519"><a xlink:href="guLookAtF_8c.html#a221be5535617db52477d4cb992afa4a9" target="_top" xlink:title=" ">
<polygon fill="#fff0f0" stroke="red" points="391,-179 323,-179 323,-160 391,-160 391,-179"/>
<text text-anchor="middle" x="357" y="-167" font-family="Helvetica,sans-Serif" font-size="10.00">guLookAtF</text>
</a>
</g>
</g>
<!-- Node518&#45;&gt;Node519 -->
<g id="edge43_Node000518_Node000519" class="edge">
<title>Node518&#45;&gt;Node519</title>
<g id="a_edge43_Node000518_Node000519"><a xlink:title=" ">
<path fill="none" stroke="#63b8ff" d="M217.61,-243.56C226.9,-240.84 236.82,-236.96 245,-231.5 265.73,-217.66 259.9,-201.76 281,-188.5 290.58,-182.48 301.97,-178.37 312.95,-175.55"/>
<polygon fill="#63b8ff" stroke="#63b8ff" points="313.87,-178.94 322.85,-173.32 312.32,-172.11 313.87,-178.94"/>
</a>
</g>
</g>
<!-- Node23 -->
<g id="Node000023" class="node">
<title>Node23</title>
<g id="a_Node000023"><a xlink:href="guMtxF2L_8c.html#a40ab2d64c609839ff1e0ef0de2d0dcc4" target="_top" xlink:title=" ">
<polygon fill="white" stroke="#666666" points="389.5,-216 324.5,-216 324.5,-197 389.5,-197 389.5,-216"/>
<text text-anchor="middle" x="357" y="-204" font-family="Helvetica,sans-Serif" font-size="10.00">guMtxF2L</text>
</a>
</g>
</g>
<!-- Node518&#45;&gt;Node23 -->
<g id="edge44_Node000518_Node000023" class="edge">
<title>Node518&#45;&gt;Node23</title>
<g id="a_edge44_Node000518_Node000023"><a xlink:title=" ">
<path fill="none" stroke="#63b8ff" d="M217.81,-241.69C236.11,-236.99 259.89,-230.88 281,-225.5 291.86,-222.73 303.61,-219.75 314.52,-216.98"/>
<polygon fill="#63b8ff" stroke="#63b8ff" points="315.41,-220.37 324.25,-214.52 313.69,-213.58 315.41,-220.37"/>
</a>
</g>
</g>
<!-- Node521&#45;&gt;Node22 -->
<g id="edge46_Node000521_Node000022" class="edge">
<title>Node521&#45;&gt;Node22</title>
<g id="a_edge46_Node000521_Node000022"><a xlink:title=" ">
<path fill="none" stroke="#63b8ff" d="M227.86,-279.92C244.36,-276 263.97,-271.35 282.83,-266.87"/>
<polygon fill="#63b8ff" stroke="#63b8ff" points="283.69,-270.26 292.61,-264.55 282.07,-263.45 283.69,-270.26"/>
</a>
</g>
</g>
<!-- Node521&#45;&gt;Node23 -->
<g id="edge47_Node000521_Node000023" class="edge">
<title>Node521&#45;&gt;Node23</title>
<g id="a_edge47_Node000521_Node000023"><a xlink:title=" ">
<path fill="none" stroke="#63b8ff" d="M222.7,-279.95C230.43,-276.97 238.3,-273.2 245,-268.5 265.4,-254.18 259.9,-238.76 281,-225.5 291.03,-219.2 303.05,-214.99 314.49,-212.17"/>
<polygon fill="#63b8ff" stroke="#63b8ff" points="315.31,-215.57 324.34,-210.03 313.83,-208.73 315.31,-215.57"/>
</a>
</g>
</g>
<!-- Node522 -->
<g id="Node000522" class="node">
<title>Node522</title>
<g id="a_Node000522"><a xlink:href="guPerspectiveF_8c.html#a440bd049e431a7ef892658d88620646c" target="_top" xlink:title=" ">
<polygon fill="#fff0f0" stroke="red" points="403,-302 311,-302 311,-283 403,-283 403,-302"/>
<text text-anchor="middle" x="357" y="-290" font-family="Helvetica,sans-Serif" font-size="10.00">guPerspectiveF</text>
</a>
</g>
</g>
<!-- Node521&#45;&gt;Node522 -->
<g id="edge48_Node000521_Node000522" class="edge">
<title>Node521&#45;&gt;Node522</title>
<g id="a_edge48_Node000521_Node000522"><a xlink:title=" ">
<path fill="none" stroke="#63b8ff" d="M229.59,-290.25C251.15,-290.63 277.69,-291.11 300.87,-291.52"/>
<polygon fill="#63b8ff" stroke="#63b8ff" points="300.85,-295.02 310.91,-291.7 300.98,-288.02 300.85,-295.02"/>
</a>
</g>
</g>
<!-- Node582&#45;&gt;Node30 -->
<g id="edge52_Node000582_Node000030" class="edge">
<title>Node582&#45;&gt;Node30</title>
<g id="a_edge52_Node000582_Node000030"><a xlink:title=" ">
<path fill="none" stroke="#63b8ff" d="M228.1,-737.89C277.3,-738.04 362.4,-741.18 433,-758.5 471.23,-767.88 512.62,-786.94 538.78,-800.21"/>
<polygon fill="#63b8ff" stroke="#63b8ff" points="537.21,-803.33 547.7,-804.8 540.41,-797.11 537.21,-803.33"/>
</a>
</g>
</g>
<!-- Node583 -->
<g id="Node000583" class="node">
<title>Node583</title>
<g id="a_Node000583"><a xlink:href="code__80057C60_8c.html#aa04f94d84853c32f977f9032cc021f39" target="_top" xlink:title=" ">
<polygon fill="#fff0f0" stroke="red" points="426,-786 288,-786 288,-767 426,-767 426,-786"/>
<text text-anchor="middle" x="357" y="-774" font-family="Helvetica,sans-Serif" font-size="10.00">render_object_for_player</text>
</a>
</g>
</g>
<!-- Node582&#45;&gt;Node583 -->
<g id="edge53_Node000582_Node000583" class="edge">
<title>Node582&#45;&gt;Node583</title>
<g id="a_edge53_Node000582_Node000583"><a xlink:title=" ">
<path fill="none" stroke="#63b8ff" d="M228.29,-747.7C251.06,-752.83 279.66,-759.28 304.03,-764.78"/>
<polygon fill="#63b8ff" stroke="#63b8ff" points="303.3,-768.2 313.83,-766.99 304.84,-761.37 303.3,-768.2"/>
</a>
</g>
</g>
<!-- Node1435 -->
<g id="Node001435" class="node">
<title>Node1435</title>
<g id="a_Node001435"><a xlink:href="render__player_8c.html#a01499b43d51c6cf4d9f2da56acba5c02" target="_top" xlink:title="one of his function is to put the frame to load in to a list to load it to be only applied for the ne...">
<polygon fill="#fff0f0" stroke="red" points="409.5,-19 304.5,-19 304.5,0 409.5,0 409.5,-19"/>
<text text-anchor="middle" x="357" y="-7" font-family="Helvetica,sans-Serif" font-size="10.00">init_render_player</text>
</a>
</g>
</g>
<!-- Node1434&#45;&gt;Node1435 -->
<g id="edge55_Node001434_Node001435" class="edge">
<title>Node1434&#45;&gt;Node1435</title>
<g id="a_edge55_Node001434_Node001435"><a xlink:title=" ">
<path fill="none" stroke="#63b8ff" d="M231.11,-117.32C236.16,-115.01 240.94,-112.12 245,-108.5 274.41,-82.29 250.72,-52.7 281,-27.5 285.08,-24.11 289.69,-21.33 294.57,-19.07"/>
<polygon fill="#63b8ff" stroke="#63b8ff" points="296.17,-22.2 304.22,-15.31 293.63,-15.68 296.17,-22.2"/>
</a>
</g>
</g>
<!-- Node1441 -->
<g id="Node001441" class="node">
<title>Node1441</title>
<g id="a_Node001441"><a xlink:href="render__player_8c.html#ac24fc5ffaaa76695b373321ef03cf370" target="_top" xlink:title=" ">
<polygon fill="#fff0f0" stroke="red" points="419.5,-141.5 294.5,-141.5 294.5,-111.5 419.5,-111.5 419.5,-141.5"/>
<text text-anchor="start" x="302.5" y="-129.5" font-family="Helvetica,sans-Serif" font-size="10.00">load_kart_texture_and</text>
<text text-anchor="middle" x="357" y="-118.5" font-family="Helvetica,sans-Serif" font-size="10.00">_render_kart_particles</text>
</a>
</g>
</g>
<!-- Node1434&#45;&gt;Node1441 -->
<g id="edge56_Node001434_Node001441" class="edge">
<title>Node1434&#45;&gt;Node1441</title>
<g id="a_edge56_Node001434_Node001441"><a xlink:title=" ">
<path fill="none" stroke="#63b8ff" d="M231.33,-126.5C247.46,-126.5 266.19,-126.5 284.15,-126.5"/>
<polygon fill="#63b8ff" stroke="#63b8ff" points="284.31,-130 294.31,-126.5 284.31,-123 284.31,-130"/>
</a>
</g>
</g>
<!-- Node1443 -->
<g id="Node001443" class="node">
<title>Node1443</title>
<g id="a_Node001443"><a xlink:href="code__80057C60_8c.html#aac6d65c75d0e3e89bfe5793755139651" target="_top" xlink:title=" ">
<polygon fill="#fff0f0" stroke="red" points="416.5,-93 297.5,-93 297.5,-74 416.5,-74 416.5,-93"/>
<text text-anchor="middle" x="357" y="-81" font-family="Helvetica,sans-Serif" font-size="10.00">render_kart_particles</text>
</a>
</g>
</g>
<!-- Node1434&#45;&gt;Node1443 -->
<g id="edge57_Node001434_Node001443" class="edge">
<title>Node1434&#45;&gt;Node1443</title>
<g id="a_edge57_Node001434_Node001443"><a xlink:title=" ">
<path fill="none" stroke="#63b8ff" d="M224.8,-116.9C241.92,-112.5 262.49,-107.22 281,-102.5 289.89,-100.23 299.37,-97.82 308.5,-95.51"/>
<polygon fill="#63b8ff" stroke="#63b8ff" points="309.39,-98.89 318.22,-93.05 307.67,-92.11 309.39,-98.89"/>
</a>
</g>
</g>
<!-- Node1461 -->
<g id="Node001461" class="node">
<title>Node1461</title>
<g id="a_Node001461"><a xlink:href="render__player_8c.html#afc527b5994dfca4582442b8bd35bbf52" target="_top" xlink:title=" ">
<polygon fill="#fff0f0" stroke="red" points="416,-56 298,-56 298,-37 416,-37 416,-56"/>
<text text-anchor="middle" x="357" y="-44" font-family="Helvetica,sans-Serif" font-size="10.00">try_rendering_player</text>
</a>
</g>
</g>
<!-- Node1434&#45;&gt;Node1461 -->
<g id="edge58_Node001434_Node001461" class="edge">
<title>Node1434&#45;&gt;Node1461</title>
<g id="a_edge58_Node001434_Node001461"><a xlink:title=" ">
<path fill="none" stroke="#63b8ff" d="M228.43,-116.9C234.24,-114.63 239.95,-111.87 245,-108.5 265.73,-94.66 259.9,-78.76 281,-65.5 284.36,-63.39 287.94,-61.51 291.65,-59.85"/>
<polygon fill="#63b8ff" stroke="#63b8ff" points="293.07,-63.05 301.08,-56.11 290.49,-56.54 293.07,-63.05"/>
</a>
</g>
</g>
</g>
</svg>
