<?xml version="1.0" encoding="UTF-8" standalone="no"?>
<!DOCTYPE svg PUBLIC "-//W3C//DTD SVG 1.1//EN"
 "http://www.w3.org/Graphics/SVG/1.1/DTD/svg11.dtd">
<!-- Generated by graphviz version 2.43.0 (0)
 -->
<!-- Title: func_80066998 Pages: 1 -->
<svg width="835pt" height="352pt"
 viewBox="0.00 0.00 835.00 351.50" xmlns="http://www.w3.org/2000/svg" xmlns:xlink="http://www.w3.org/1999/xlink">
<g id="graph0" class="graph" transform="scale(1 1) rotate(0) translate(4 347.5)">
<title>func_80066998</title>
<!-- Node1 -->
<g id="Node000001" class="node">
<title>Node1</title>
<g id="a_Node000001"><a xlink:title=" ">
<polygon fill="#999999" stroke="#666666" points="91,-238 0,-238 0,-219 91,-219 91,-238"/>
<text text-anchor="middle" x="45.5" y="-226" font-family="Helvetica,sans-Serif" font-size="10.00">func_80066998</text>
</a>
</g>
</g>
<!-- Node2 -->
<g id="Node000002" class="node">
<title>Node2</title>
<g id="a_Node000002"><a xlink:href="FrameInterpolation_8cpp.html#a3a036bc9d533e28a4e9697cd20dccf3e" target="_top" xlink:title=" ">
<polygon fill="white" stroke="#666666" points="668,-343.5 558,-343.5 558,-313.5 668,-313.5 668,-343.5"/>
<text text-anchor="start" x="566" y="-331.5" font-family="Helvetica,sans-Serif" font-size="10.00">FrameInterpolation</text>
<text text-anchor="middle" x="613" y="-320.5" font-family="Helvetica,sans-Serif" font-size="10.00">_RecordCloseChild</text>
</a>
</g>
</g>
<!-- Node1&#45;&gt;Node2 -->
<g id="edge1_Node000001_Node000002" class="edge">
<title>Node1&#45;&gt;Node2</title>
<g id="a_edge1_Node000001_Node000002"><a xlink:title=" ">
<path fill="none" stroke="#63b8ff" d="M62.86,-238.1C78.71,-246.95 103.71,-259.7 127,-266.5 273.48,-309.27 453.38,-322.54 547.55,-326.66"/>
<polygon fill="#63b8ff" stroke="#63b8ff" points="547.64,-330.17 557.77,-327.08 547.93,-323.17 547.64,-330.17"/>
</a>
</g>
</g>
<!-- Node4 -->
<g id="Node000004" class="node">
<title>Node4</title>
<g id="a_Node000004"><a xlink:href="FrameInterpolation_8cpp.html#a0eda726b74eac815af4e874014e2727c" target="_top" xlink:title=" ">
<polygon fill="white" stroke="#666666" points="668,-295.5 558,-295.5 558,-265.5 668,-265.5 668,-295.5"/>
<text text-anchor="start" x="566" y="-283.5" font-family="Helvetica,sans-Serif" font-size="10.00">FrameInterpolation</text>
<text text-anchor="middle" x="613" y="-272.5" font-family="Helvetica,sans-Serif" font-size="10.00">_RecordOpenChild</text>
</a>
</g>
</g>
<!-- Node1&#45;&gt;Node4 -->
<g id="edge3_Node000001_Node000004" class="edge">
<title>Node1&#45;&gt;Node4</title>
<g id="a_edge3_Node000001_Node000004"><a xlink:title=" ">
<path fill="none" stroke="#63b8ff" d="M81.52,-238.08C95.56,-241.58 111.95,-245.23 127,-247.5 276.61,-270.09 454.53,-277.22 547.74,-279.47"/>
<polygon fill="#63b8ff" stroke="#63b8ff" points="547.78,-282.97 557.86,-279.7 547.94,-275.98 547.78,-282.97"/>
</a>
</g>
</g>
<!-- Node5 -->
<g id="Node000005" class="node">
<title>Node5</title>
<g id="a_Node000005"><a xlink:href="render__objects_8c.html#a42d051e0c41afb54803bffd1a3a19e91" target="_top" xlink:title=" ">
<polygon fill="white" stroke="#666666" points="219,-238 127,-238 127,-219 219,-219 219,-238"/>
<text text-anchor="middle" x="173" y="-226" font-family="Helvetica,sans-Serif" font-size="10.00">func_8004B35C</text>
</a>
</g>
</g>
<!-- Node1&#45;&gt;Node5 -->
<g id="edge5_Node000001_Node000005" class="edge">
<title>Node1&#45;&gt;Node5</title>
<g id="a_edge5_Node000001_Node000005"><a xlink:title=" ">
<path fill="none" stroke="#63b8ff" d="M91.1,-228.5C99.31,-228.5 107.98,-228.5 116.47,-228.5"/>
<polygon fill="#63b8ff" stroke="#63b8ff" points="116.7,-232 126.7,-228.5 116.7,-225 116.7,-232"/>
</a>
</g>
</g>
<!-- Node6 -->
<g id="Node000006" class="node">
<title>Node6</title>
<g id="a_Node000006"><a xlink:href="code__80057C60_8c.html#afe48d8fb3ea987ea8782c445f30eb8c3" target="_top" xlink:title=" ">
<polygon fill="white" stroke="#666666" points="219,-182 127,-182 127,-163 219,-163 219,-182"/>
<text text-anchor="middle" x="173" y="-170" font-family="Helvetica,sans-Serif" font-size="10.00">func_800652D4</text>
</a>
</g>
</g>
<!-- Node1&#45;&gt;Node6 -->
<g id="edge6_Node000001_Node000006" class="edge">
<title>Node1&#45;&gt;Node6</title>
<g id="a_edge6_Node000001_Node000006"><a xlink:title=" ">
<path fill="none" stroke="#63b8ff" d="M68.07,-218.87C88.31,-209.84 118.78,-196.25 141.5,-186.11"/>
<polygon fill="#63b8ff" stroke="#63b8ff" points="143,-189.27 150.71,-182 140.15,-182.88 143,-189.27"/>
</a>
</g>
</g>
<!-- Node18 -->
<g id="Node000018" class="node">
<title>Node18</title>
<g id="a_Node000018"><a xlink:href="GBIMiddleware_8cpp.html#a4ecc44e3c6f1ca5a6b4a20c41d3bd2d2" target="_top" xlink:title=" ">
<polygon fill="white" stroke="#666666" points="217.5,-126 128.5,-126 128.5,-107 217.5,-107 217.5,-126"/>
<text text-anchor="middle" x="173" y="-114" font-family="Helvetica,sans-Serif" font-size="10.00">gSPDisplayList</text>
</a>
</g>
</g>
<!-- Node1&#45;&gt;Node18 -->
<g id="edge21_Node000001_Node000018" class="edge">
<title>Node1&#45;&gt;Node18</title>
<g id="a_edge21_Node000001_Node000018"><a xlink:title=" ">
<path fill="none" stroke="#63b8ff" d="M56.79,-218.78C71.98,-204.5 101.36,-177.09 127,-154.5 135.31,-147.17 144.65,-139.24 152.66,-132.53"/>
<polygon fill="#63b8ff" stroke="#63b8ff" points="154.98,-135.15 160.42,-126.05 150.5,-129.77 154.98,-135.15"/>
</a>
</g>
</g>
<!-- Node3 -->
<g id="Node000003" class="node">
<title>Node3</title>
<g id="a_Node000003"><a xlink:href="FrameInterpolation_8cpp.html#a02c7ac5342a4d376edee38f312b480bf" target="_top" xlink:title=" ">
<polygon fill="white" stroke="#666666" points="827,-242 719,-242 719,-223 827,-223 827,-242"/>
<text text-anchor="middle" x="773" y="-230" font-family="Helvetica,sans-Serif" font-size="10.00">check_if_recording</text>
</a>
</g>
</g>
<!-- Node2&#45;&gt;Node3 -->
<g id="edge2_Node000002_Node000003" class="edge">
<title>Node2&#45;&gt;Node3</title>
<g id="a_edge2_Node000002_Node000003"><a xlink:title=" ">
<path fill="none" stroke="#63b8ff" d="M663.9,-313.47C670.48,-310.82 677.01,-307.83 683,-304.5 710.47,-289.23 737.96,-265.35 754.96,-249.33"/>
<polygon fill="#63b8ff" stroke="#63b8ff" points="757.64,-251.62 762.42,-242.17 752.79,-246.57 757.64,-251.62"/>
</a>
</g>
</g>
<!-- Node4&#45;&gt;Node3 -->
<g id="edge4_Node000004_Node000003" class="edge">
<title>Node4&#45;&gt;Node3</title>
<g id="a_edge4_Node000004_Node000003"><a xlink:title=" ">
<path fill="none" stroke="#63b8ff" d="M663.56,-265.44C685.18,-258.88 710.23,-251.26 730.81,-245.01"/>
<polygon fill="#63b8ff" stroke="#63b8ff" points="731.97,-248.32 740.52,-242.06 729.93,-241.62 731.97,-248.32"/>
</a>
</g>
</g>
<!-- Node7 -->
<g id="Node000007" class="node">
<title>Node7</title>
<g id="a_Node000007"><a xlink:href="Matrix_8cpp.html#abcc586bf25e812a2fcaea1cd869a626b" target="_top" xlink:title=" ">
<polygon fill="white" stroke="#666666" points="377,-208 282,-208 282,-189 377,-189 377,-208"/>
<text text-anchor="middle" x="329.5" y="-196" font-family="Helvetica,sans-Serif" font-size="10.00">AddEffectMatrix</text>
</a>
</g>
</g>
<!-- Node6&#45;&gt;Node7 -->
<g id="edge7_Node000006_Node000007" class="edge">
<title>Node6&#45;&gt;Node7</title>
<g id="a_edge7_Node000006_Node000007"><a xlink:title=" ">
<path fill="none" stroke="#63b8ff" d="M219.1,-180.09C235.63,-182.87 254.55,-186.06 271.96,-188.98"/>
<polygon fill="#63b8ff" stroke="#63b8ff" points="271.56,-192.47 282,-190.67 272.72,-185.56 271.56,-192.47"/>
</a>
</g>
</g>
<!-- Node12 -->
<g id="Node000012" class="node">
<title>Node12</title>
<g id="a_Node000012"><a xlink:href="math__util_8c.html#aca95a220db79fe028b35270f35a4a7b3" target="_top" xlink:title=" ">
<polygon fill="white" stroke="#666666" points="365,-170 294,-170 294,-151 365,-151 365,-170"/>
<text text-anchor="middle" x="329.5" y="-158" font-family="Helvetica,sans-Serif" font-size="10.00">mtxf_scale</text>
</a>
</g>
</g>
<!-- Node6&#45;&gt;Node12 -->
<g id="edge13_Node000006_Node000012" class="edge">
<title>Node6&#45;&gt;Node12</title>
<g id="a_edge13_Node000006_Node000012"><a xlink:title=" ">
<path fill="none" stroke="#63b8ff" d="M219.1,-169C239.43,-167.42 263.37,-165.56 283.67,-163.98"/>
<polygon fill="#63b8ff" stroke="#63b8ff" points="284.21,-167.45 293.91,-163.19 283.67,-160.47 284.21,-167.45"/>
</a>
</g>
</g>
<!-- Node14 -->
<g id="Node000014" class="node">
<title>Node14</title>
<g id="a_Node000014"><a xlink:href="render__player_8c.html#a565e21fd6aa0dacea58fb8a0e4304772" target="_top" xlink:title=" ">
<polygon fill="white" stroke="#666666" points="391,-113 268,-113 268,-94 391,-94 391,-113"/>
<text text-anchor="middle" x="329.5" y="-101" font-family="Helvetica,sans-Serif" font-size="10.00">mtxf_translate_rotate</text>
</a>
</g>
</g>
<!-- Node6&#45;&gt;Node14 -->
<g id="edge16_Node000006_Node000014" class="edge">
<title>Node6&#45;&gt;Node14</title>
<g id="a_edge16_Node000006_Node000014"><a xlink:title=" ">
<path fill="none" stroke="#63b8ff" d="M195.48,-162.91C222.12,-151.01 267.69,-130.66 297.96,-117.14"/>
<polygon fill="#63b8ff" stroke="#63b8ff" points="299.5,-120.29 307.2,-113.01 296.64,-113.89 299.5,-120.29"/>
</a>
</g>
</g>
<!-- Node8 -->
<g id="Node000008" class="node">
<title>Node8</title>
<g id="a_Node000008"><a xlink:href="Matrix_8cpp.html#a67401ed1d8de1f4d3a3e5a7b72842b6a" target="_top" xlink:title=" ">
<polygon fill="white" stroke="#666666" points="507,-245 440,-245 440,-226 507,-226 507,-245"/>
<text text-anchor="middle" x="473.5" y="-233" font-family="Helvetica,sans-Serif" font-size="10.00">AddMatrix</text>
</a>
</g>
</g>
<!-- Node7&#45;&gt;Node8 -->
<g id="edge8_Node000007_Node000008" class="edge">
<title>Node7&#45;&gt;Node8</title>
<g id="a_edge8_Node000007_Node000008"><a xlink:title=" ">
<path fill="none" stroke="#63b8ff" d="M367.07,-208.03C386.33,-213.05 410.05,-219.23 430.11,-224.46"/>
<polygon fill="#63b8ff" stroke="#63b8ff" points="429.37,-227.88 439.93,-227.01 431.14,-221.11 429.37,-227.88"/>
</a>
</g>
</g>
<!-- Node11 -->
<g id="Node000011" class="node">
<title>Node11</title>
<g id="a_Node000011"><a xlink:href="Game_8cpp.html#ae2fa844b3cb1021ecbc357f8ed2ad8cc" target="_top" xlink:title=" ">
<polygon fill="white" stroke="#666666" points="504.5,-208 442.5,-208 442.5,-189 504.5,-189 504.5,-208"/>
<text text-anchor="middle" x="473.5" y="-196" font-family="Helvetica,sans-Serif" font-size="10.00">GetWorld</text>
</a>
</g>
</g>
<!-- Node7&#45;&gt;Node11 -->
<g id="edge12_Node000007_Node000011" class="edge">
<title>Node7&#45;&gt;Node11</title>
<g id="a_edge12_Node000007_Node000011"><a xlink:title=" ">
<path fill="none" stroke="#63b8ff" d="M377.39,-198.5C395.05,-198.5 414.97,-198.5 432,-198.5"/>
<polygon fill="#63b8ff" stroke="#63b8ff" points="432.18,-202 442.18,-198.5 432.18,-195 432.18,-202"/>
</a>
</g>
</g>
<!-- Node9 -->
<g id="Node000009" class="node">
<title>Node9</title>
<g id="a_Node000009"><a xlink:href="FrameInterpolation_8cpp.html#a8cf1f2d6fabc6925aa71a9515341b4aa" target="_top" xlink:title=" ">
<polygon fill="white" stroke="#666666" points="683,-247.5 543,-247.5 543,-217.5 683,-217.5 683,-247.5"/>
<text text-anchor="start" x="551" y="-235.5" font-family="Helvetica,sans-Serif" font-size="10.00">FrameInterpolation</text>
<text text-anchor="middle" x="613" y="-224.5" font-family="Helvetica,sans-Serif" font-size="10.00">_RecordMatrixMtxFToMtx</text>
</a>
</g>
</g>
<!-- Node8&#45;&gt;Node9 -->
<g id="edge9_Node000008_Node000009" class="edge">
<title>Node8&#45;&gt;Node9</title>
<g id="a_edge9_Node000008_Node000009"><a xlink:title=" ">
<path fill="none" stroke="#63b8ff" d="M507.09,-234.79C514.93,-234.62 523.66,-234.43 532.63,-234.23"/>
<polygon fill="#63b8ff" stroke="#63b8ff" points="532.91,-237.73 542.83,-234.01 532.76,-230.73 532.91,-237.73"/>
</a>
</g>
</g>
<!-- Node10 -->
<g id="Node000010" class="node">
<title>Node10</title>
<g id="a_Node000010"><a xlink:href="guMtxF2L_8c.html#a40ab2d64c609839ff1e0ef0de2d0dcc4" target="_top" xlink:title=" ">
<polygon fill="white" stroke="#666666" points="645.5,-199 580.5,-199 580.5,-180 645.5,-180 645.5,-199"/>
<text text-anchor="middle" x="613" y="-187" font-family="Helvetica,sans-Serif" font-size="10.00">guMtxF2L</text>
</a>
</g>
</g>
<!-- Node8&#45;&gt;Node10 -->
<g id="edge11_Node000008_Node000010" class="edge">
<title>Node8&#45;&gt;Node10</title>
<g id="a_edge11_Node000008_Node000010"><a xlink:title=" ">
<path fill="none" stroke="#63b8ff" d="M497.11,-225.88C510.35,-220.43 527.48,-213.68 543,-208.5 551.83,-205.55 561.4,-202.71 570.52,-200.15"/>
<polygon fill="#63b8ff" stroke="#63b8ff" points="571.47,-203.52 580.18,-197.5 569.61,-196.77 571.47,-203.52"/>
</a>
</g>
</g>
<!-- Node9&#45;&gt;Node3 -->
<g id="edge10_Node000009_Node000003" class="edge">
<title>Node9&#45;&gt;Node3</title>
<g id="a_edge10_Node000009_Node000003"><a xlink:title=" ">
<path fill="none" stroke="#63b8ff" d="M683.3,-232.5C691.79,-232.5 700.43,-232.5 708.82,-232.5"/>
<polygon fill="#63b8ff" stroke="#63b8ff" points="708.91,-236 718.91,-232.5 708.91,-229 708.91,-236"/>
</a>
</g>
</g>
<!-- Node13 -->
<g id="Node000013" class="node">
<title>Node13</title>
<g id="a_Node000013"><a xlink:href="FrameInterpolation_8cpp.html#ad8eff15a52471a7a9c4801f2f23124e6" target="_top" xlink:title=" ">
<polygon fill="white" stroke="#666666" points="669.5,-161.5 556.5,-161.5 556.5,-131.5 669.5,-131.5 669.5,-161.5"/>
<text text-anchor="start" x="564.5" y="-149.5" font-family="Helvetica,sans-Serif" font-size="10.00">FrameInterpolation</text>
<text text-anchor="middle" x="613" y="-138.5" font-family="Helvetica,sans-Serif" font-size="10.00">_RecordMatrixScale</text>
</a>
</g>
</g>
<!-- Node12&#45;&gt;Node13 -->
<g id="edge14_Node000012_Node000013" class="edge">
<title>Node12&#45;&gt;Node13</title>
<g id="a_edge14_Node000012_Node000013"><a xlink:title=" ">
<path fill="none" stroke="#63b8ff" d="M365.02,-158.78C409.94,-156.55 489.37,-152.6 546.02,-149.78"/>
<polygon fill="#63b8ff" stroke="#63b8ff" points="546.51,-153.26 556.32,-149.27 546.16,-146.27 546.51,-153.26"/>
</a>
</g>
</g>
<!-- Node13&#45;&gt;Node3 -->
<g id="edge15_Node000013_Node000003" class="edge">
<title>Node13&#45;&gt;Node3</title>
<g id="a_edge15_Node000013_Node000003"><a xlink:title=" ">
<path fill="none" stroke="#63b8ff" d="M660.71,-161.6C668.3,-164.57 675.97,-167.89 683,-171.5 708.12,-184.39 734.51,-203.25 751.97,-216.58"/>
<polygon fill="#63b8ff" stroke="#63b8ff" points="750.18,-219.62 760.23,-222.98 754.47,-214.09 750.18,-219.62"/>
</a>
</g>
</g>
<!-- Node15 -->
<g id="Node000015" class="node">
<title>Node15</title>
<g id="a_Node000015"><a xlink:href="math__util_8c.html#ae69cbf5c8d4b3b0dba2d7b4d4673689f" target="_top" xlink:title=" ">
<polygon fill="white" stroke="#666666" points="492.5,-132 454.5,-132 454.5,-113 492.5,-113 492.5,-132"/>
<text text-anchor="middle" x="473.5" y="-120" font-family="Helvetica,sans-Serif" font-size="10.00">coss</text>
</a>
</g>
</g>
<!-- Node14&#45;&gt;Node15 -->
<g id="edge17_Node000014_Node000015" class="edge">
<title>Node14&#45;&gt;Node15</title>
<g id="a_edge17_Node000014_Node000015"><a xlink:title=" ">
<path fill="none" stroke="#63b8ff" d="M391.13,-111.61C409.57,-114.08 428.97,-116.68 444.19,-118.71"/>
<polygon fill="#63b8ff" stroke="#63b8ff" points="444.09,-122.23 454.47,-120.09 445.02,-115.29 444.09,-122.23"/>
</a>
</g>
</g>
<!-- Node16 -->
<g id="Node000016" class="node">
<title>Node16</title>
<g id="a_Node000016"><a xlink:href="FrameInterpolation_8cpp.html#aafa8768b46143c8110779aa8afdfe41c" target="_top" xlink:title=" ">
<polygon fill="white" stroke="#666666" points="679,-107.5 547,-107.5 547,-77.5 679,-77.5 679,-107.5"/>
<text text-anchor="start" x="555" y="-95.5" font-family="Helvetica,sans-Serif" font-size="10.00">FrameInterpolation</text>
<text text-anchor="middle" x="613" y="-84.5" font-family="Helvetica,sans-Serif" font-size="10.00">_RecordTranslateRotate</text>
</a>
</g>
</g>
<!-- Node14&#45;&gt;Node16 -->
<g id="edge18_Node000014_Node000016" class="edge">
<title>Node14&#45;&gt;Node16</title>
<g id="a_edge18_Node000014_Node000016"><a xlink:title=" ">
<path fill="none" stroke="#63b8ff" d="M391.23,-101.13C433.91,-99.46 491.28,-97.22 536.84,-95.44"/>
<polygon fill="#63b8ff" stroke="#63b8ff" points="537.11,-98.93 546.96,-95.04 536.83,-91.93 537.11,-98.93"/>
</a>
</g>
</g>
<!-- Node17 -->
<g id="Node000017" class="node">
<title>Node17</title>
<g id="a_Node000017"><a xlink:href="math__util_8c.html#a19ed3bd78fd2d3e2bd0a29f6caf48545" target="_top" xlink:title=" ">
<polygon fill="white" stroke="#666666" points="491.5,-56 455.5,-56 455.5,-37 491.5,-37 491.5,-56"/>
<text text-anchor="middle" x="473.5" y="-44" font-family="Helvetica,sans-Serif" font-size="10.00">sins</text>
</a>
</g>
</g>
<!-- Node14&#45;&gt;Node17 -->
<g id="edge20_Node000014_Node000017" class="edge">
<title>Node14&#45;&gt;Node17</title>
<g id="a_edge20_Node000014_Node000017"><a xlink:title=" ">
<path fill="none" stroke="#63b8ff" d="M354.27,-93.96C379.61,-83.79 419.65,-67.72 445.99,-57.14"/>
<polygon fill="#63b8ff" stroke="#63b8ff" points="447.39,-60.35 455.36,-53.38 444.78,-53.86 447.39,-60.35"/>
</a>
</g>
</g>
<!-- Node16&#45;&gt;Node3 -->
<g id="edge19_Node000016_Node000003" class="edge">
<title>Node16&#45;&gt;Node3</title>
<g id="a_edge19_Node000016_Node000003"><a xlink:title=" ">
<path fill="none" stroke="#63b8ff" d="M657.37,-107.56C666.3,-111.67 675.31,-116.65 683,-122.5 717.2,-148.51 746.21,-190.33 761.16,-214.21"/>
<polygon fill="#63b8ff" stroke="#63b8ff" points="758.31,-216.26 766.51,-222.97 764.29,-212.61 758.31,-216.26"/>
</a>
</g>
</g>
<!-- Node19 -->
<g id="Node000019" class="node">
<title>Node19</title>
<g id="a_Node000019"><a xlink:href="Engine_8cpp.html#a223c8bc63f228dc11177515e38eff2db" target="_top" xlink:title=" ">
<polygon fill="white" stroke="#666666" points="404,-38 255,-38 255,-19 404,-19 404,-38"/>
<text text-anchor="middle" x="329.5" y="-26" font-family="Helvetica,sans-Serif" font-size="10.00">GameEngine_OTRSigCheck</text>
</a>
</g>
</g>
<!-- Node18&#45;&gt;Node19 -->
<g id="edge22_Node000018_Node000019" class="edge">
<title>Node18&#45;&gt;Node19</title>
<g id="a_edge22_Node000018_Node000019"><a xlink:title=" ">
<path fill="none" stroke="#63b8ff" d="M190.83,-106.91C217.88,-91.51 271.2,-61.13 302.96,-43.04"/>
<polygon fill="#63b8ff" stroke="#63b8ff" points="304.74,-46.06 311.69,-38.07 301.27,-39.98 304.74,-46.06"/>
</a>
</g>
</g>
<!-- Node20 -->
<g id="Node000020" class="node">
<title>Node20</title>
<g id="a_Node000020"><a xlink:href="string_8c.html#a008e171a518fe0e0352f31b245e03875" target="_top" xlink:title=" ">
<polygon fill="white" stroke="#666666" points="495.5,-19 451.5,-19 451.5,0 495.5,0 495.5,-19"/>
<text text-anchor="middle" x="473.5" y="-7" font-family="Helvetica,sans-Serif" font-size="10.00">strlen</text>
</a>
</g>
</g>
<!-- Node19&#45;&gt;Node20 -->
<g id="edge23_Node000019_Node000020" class="edge">
<title>Node19&#45;&gt;Node20</title>
<g id="a_edge23_Node000019_Node000020"><a xlink:title=" ">
<path fill="none" stroke="#63b8ff" d="M401.92,-18.94C415.77,-17.09 429.6,-15.24 441.3,-13.67"/>
<polygon fill="#63b8ff" stroke="#63b8ff" points="441.94,-17.12 451.39,-12.32 441.02,-10.18 441.94,-17.12"/>
</a>
</g>
</g>
</g>
</svg>
