<?xml version="1.0" encoding="UTF-8" standalone="no"?>
<!DOCTYPE svg PUBLIC "-//W3C//DTD SVG 1.1//EN"
 "http://www.w3.org/Graphics/SVG/1.1/DTD/svg11.dtd">
<!-- Generated by graphviz version 2.43.0 (0)
 -->
<!-- Title: func_80086EF0 Pages: 1 -->
<svg width="824pt" height="267pt"
 viewBox="0.00 0.00 824.00 266.50" xmlns="http://www.w3.org/2000/svg" xmlns:xlink="http://www.w3.org/1999/xlink">
<g id="graph0" class="graph" transform="scale(1 1) rotate(0) translate(4 262.5)">
<title>func_80086EF0</title>
<!-- Node1 -->
<g id="Node000001" class="node">
<title>Node1</title>
<g id="a_Node000001"><a xlink:title=" ">
<polygon fill="#999999" stroke="#666666" points="816,-142 725,-142 725,-123 816,-123 816,-142"/>
<text text-anchor="middle" x="770.5" y="-130" font-family="Helvetica,sans-Serif" font-size="10.00">func_80086EF0</text>
</a>
</g>
</g>
<!-- Node2 -->
<g id="Node000002" class="node">
<title>Node2</title>
<g id="a_Node000002"><a xlink:href="update__objects_8c.html#ac4defed8efafac621907e4575e719377" target="_top" xlink:title=" ">
<polygon fill="white" stroke="#666666" points="652,-253 561,-253 561,-234 652,-234 652,-253"/>
<text text-anchor="middle" x="606.5" y="-241" font-family="Helvetica,sans-Serif" font-size="10.00">func_80078220</text>
</a>
</g>
</g>
<!-- Node1&#45;&gt;Node2 -->
<g id="edge1_Node000001_Node000002" class="edge">
<title>Node1&#45;&gt;Node2</title>
<g id="a_edge1_Node000001_Node000002"><a xlink:title=" ">
<path fill="none" stroke="#63b8ff" d="M758.69,-150.98C745.18,-172.37 720.02,-207.02 689,-225.5 677.92,-232.1 664.7,-236.29 652.15,-238.94"/>
<polygon fill="#63b8ff" stroke="#63b8ff" points="761.84,-152.55 764.06,-142.19 755.86,-148.91 761.84,-152.55"/>
</a>
</g>
</g>
<!-- Node6 -->
<g id="Node000006" class="node">
<title>Node6</title>
<g id="a_Node000006"><a xlink:href="classOBoos.html#a186ed6315077567455c3f8cb258223c9" target="_top" xlink:title=" ">
<polygon fill="white" stroke="#666666" points="671.5,-216 541.5,-216 541.5,-197 671.5,-197 671.5,-216"/>
<text text-anchor="middle" x="606.5" y="-204" font-family="Helvetica,sans-Serif" font-size="10.00">OBoos::func_8007C5B4</text>
</a>
</g>
</g>
<!-- Node1&#45;&gt;Node6 -->
<g id="edge5_Node000001_Node000006" class="edge">
<title>Node1&#45;&gt;Node6</title>
<g id="a_edge5_Node000001_Node000006"><a xlink:title=" ">
<path fill="none" stroke="#63b8ff" d="M750.82,-148.68C735.27,-161.34 712.03,-178.42 689,-188.5 681.3,-191.87 672.91,-194.64 664.53,-196.9"/>
<polygon fill="#63b8ff" stroke="#63b8ff" points="753.18,-151.28 758.62,-142.18 748.7,-145.9 753.18,-151.28"/>
</a>
</g>
</g>
<!-- Node9 -->
<g id="Node000009" class="node">
<title>Node9</title>
<g id="a_Node000009"><a xlink:href="update__objects_8c.html#ae0ee5042f7a95ee3c66f70b38449a778" target="_top" xlink:title=" ">
<polygon fill="white" stroke="#666666" points="652.5,-179 560.5,-179 560.5,-160 652.5,-160 652.5,-179"/>
<text text-anchor="middle" x="606.5" y="-167" font-family="Helvetica,sans-Serif" font-size="10.00">func_8007CE0C</text>
</a>
</g>
</g>
<!-- Node1&#45;&gt;Node9 -->
<g id="edge8_Node000001_Node000009" class="edge">
<title>Node1&#45;&gt;Node9</title>
<g id="a_edge8_Node000001_Node000009"><a xlink:title=" ">
<path fill="none" stroke="#63b8ff" d="M719.5,-144.42C709.41,-146.79 698.87,-149.25 689,-151.5 676.71,-154.31 663.36,-157.29 651.09,-159.99"/>
<polygon fill="#63b8ff" stroke="#63b8ff" points="720.47,-147.79 729.4,-142.08 718.86,-140.97 720.47,-147.79"/>
</a>
</g>
</g>
<!-- Node12 -->
<g id="Node000012" class="node">
<title>Node12</title>
<g id="a_Node000012"><a xlink:href="classOSeagull.html#aecaeaea3ef1cd4205d9049803ea997e5" target="_top" xlink:title=" ">
<polygon fill="white" stroke="#666666" points="677,-142 536,-142 536,-123 677,-123 677,-142"/>
<text text-anchor="middle" x="606.5" y="-130" font-family="Helvetica,sans-Serif" font-size="10.00">OSeagull::func_8008241C</text>
</a>
</g>
</g>
<!-- Node1&#45;&gt;Node12 -->
<g id="edge11_Node000001_Node000012" class="edge">
<title>Node1&#45;&gt;Node12</title>
<g id="a_edge11_Node000001_Node000012"><a xlink:title=" ">
<path fill="none" stroke="#63b8ff" d="M714.53,-132.5C702.56,-132.5 689.73,-132.5 677.27,-132.5"/>
<polygon fill="#63b8ff" stroke="#63b8ff" points="714.8,-136 724.8,-132.5 714.8,-129 714.8,-136"/>
</a>
</g>
</g>
<!-- Node15 -->
<g id="Node000015" class="node">
<title>Node15</title>
<g id="a_Node000015"><a xlink:href="classOHotAirBalloon.html#a401de1da0d55d973c05514589e2b5298" target="_top" xlink:title=" ">
<polygon fill="white" stroke="#666666" points="663,-104.5 550,-104.5 550,-74.5 663,-74.5 663,-104.5"/>
<text text-anchor="start" x="558" y="-92.5" font-family="Helvetica,sans-Serif" font-size="10.00">OHotAirBalloon::init</text>
<text text-anchor="middle" x="606.5" y="-81.5" font-family="Helvetica,sans-Serif" font-size="10.00">_hot_air_balloon</text>
</a>
</g>
</g>
<!-- Node1&#45;&gt;Node15 -->
<g id="edge14_Node000001_Node000015" class="edge">
<title>Node1&#45;&gt;Node15</title>
<g id="a_edge14_Node000001_Node000015"><a xlink:title=" ">
<path fill="none" stroke="#63b8ff" d="M723.72,-120.35C704.87,-115.34 682.85,-109.5 663.09,-104.25"/>
<polygon fill="#63b8ff" stroke="#63b8ff" points="722.98,-123.77 733.55,-122.96 724.78,-117.01 722.98,-123.77"/>
</a>
</g>
</g>
<!-- Node18 -->
<g id="Node000018" class="node">
<title>Node18</title>
<g id="a_Node000018"><a xlink:href="classOPenguin.html#a01fbbc1e75fe6579750c19bf4a33a927" target="_top" xlink:title=" ">
<polygon fill="white" stroke="#666666" points="689,-56 524,-56 524,-37 689,-37 689,-56"/>
<text text-anchor="middle" x="606.5" y="-44" font-family="Helvetica,sans-Serif" font-size="10.00">OPenguin::InitEmperorPenguin</text>
</a>
</g>
</g>
<!-- Node1&#45;&gt;Node18 -->
<g id="edge17_Node000001_Node000018" class="edge">
<title>Node1&#45;&gt;Node18</title>
<g id="a_edge17_Node000001_Node000018"><a xlink:title=" ">
<path fill="none" stroke="#63b8ff" d="M753.58,-115.3C738.42,-99.96 714.23,-78.05 689,-65.5 681.2,-61.62 672.57,-58.51 663.94,-56.03"/>
<polygon fill="#63b8ff" stroke="#63b8ff" points="751.18,-117.86 760.64,-122.64 756.22,-113 751.18,-117.86"/>
</a>
</g>
</g>
<!-- Node21 -->
<g id="Node000021" class="node">
<title>Node21</title>
<g id="a_Node000021"><a xlink:href="classOPenguin.html#ab9b849e96d3da4ef0158c79310d441b8" target="_top" xlink:title=" ">
<polygon fill="white" stroke="#666666" points="682,-19 531,-19 531,0 682,0 682,-19"/>
<text text-anchor="middle" x="606.5" y="-7" font-family="Helvetica,sans-Serif" font-size="10.00">OPenguin::InitOtherPenguin</text>
</a>
</g>
</g>
<!-- Node1&#45;&gt;Node21 -->
<g id="edge20_Node000001_Node000021" class="edge">
<title>Node1&#45;&gt;Node21</title>
<g id="a_edge20_Node000001_Node000021"><a xlink:title=" ">
<path fill="none" stroke="#63b8ff" d="M760.42,-113.74C747.82,-89.82 722.74,-48.98 689,-27.5 683.62,-24.08 677.69,-21.3 671.54,-19.04"/>
<polygon fill="#63b8ff" stroke="#63b8ff" points="757.39,-115.52 765.04,-122.85 763.64,-112.35 757.39,-115.52"/>
</a>
</g>
</g>
<!-- Node3 -->
<g id="Node000003" class="node">
<title>Node3</title>
<g id="a_Node000003"><a xlink:href="update__objects_8c.html#ab41f725550186878218b0d8b3b0fa5d4" target="_top" xlink:title=" ">
<polygon fill="white" stroke="#666666" points="459.5,-253 367.5,-253 367.5,-234 459.5,-234 459.5,-253"/>
<text text-anchor="middle" x="413.5" y="-241" font-family="Helvetica,sans-Serif" font-size="10.00">func_800786EC</text>
</a>
</g>
</g>
<!-- Node2&#45;&gt;Node3 -->
<g id="edge2_Node000002_Node000003" class="edge">
<title>Node2&#45;&gt;Node3</title>
<g id="a_edge2_Node000002_Node000003"><a xlink:title=" ">
<path fill="none" stroke="#63b8ff" d="M550.41,-243.5C521.63,-243.5 486.84,-243.5 459.66,-243.5"/>
<polygon fill="#63b8ff" stroke="#63b8ff" points="550.72,-247 560.72,-243.5 550.72,-240 550.72,-247"/>
</a>
</g>
</g>
<!-- Node4 -->
<g id="Node000004" class="node">
<title>Node4</title>
<g id="a_Node000004"><a xlink:href="update__objects_8c.html#aa48fd49d06dac7e1948b468b4f260477" target="_top" xlink:title=" ">
<polygon fill="white" stroke="#666666" points="299,-253 189,-253 189,-234 299,-234 299,-253"/>
<text text-anchor="middle" x="244" y="-241" font-family="Helvetica,sans-Serif" font-size="10.00">update_snowflakes</text>
</a>
</g>
</g>
<!-- Node3&#45;&gt;Node4 -->
<g id="edge3_Node000003_Node000004" class="edge">
<title>Node3&#45;&gt;Node4</title>
<g id="a_edge3_Node000003_Node000004"><a xlink:title=" ">
<path fill="none" stroke="#63b8ff" d="M357.09,-243.5C338.5,-243.5 317.8,-243.5 299.3,-243.5"/>
<polygon fill="#63b8ff" stroke="#63b8ff" points="357.17,-247 367.17,-243.5 357.17,-240 357.17,-247"/>
</a>
</g>
</g>
<!-- Node5 -->
<g id="Node000005" class="node">
<title>Node5</title>
<g id="a_Node000005"><a xlink:href="classFrappeSnowland.html#a96ecd2e1bd66ff82a6f0684ad88ee1af" target="_top" xlink:title=" ">
<polygon fill="white" stroke="#666666" points="149,-258.5 0,-258.5 0,-228.5 149,-228.5 149,-258.5"/>
<text text-anchor="start" x="8" y="-246.5" font-family="Helvetica,sans-Serif" font-size="10.00">FrappeSnowland::TickTrack</text>
<text text-anchor="middle" x="74.5" y="-235.5" font-family="Helvetica,sans-Serif" font-size="10.00">Objects</text>
</a>
</g>
</g>
<!-- Node4&#45;&gt;Node5 -->
<g id="edge4_Node000004_Node000005" class="edge">
<title>Node4&#45;&gt;Node5</title>
<g id="a_edge4_Node000004_Node000005"><a xlink:title=" ">
<path fill="none" stroke="#63b8ff" d="M178.38,-243.5C168.79,-243.5 158.85,-243.5 149.1,-243.5"/>
<polygon fill="#63b8ff" stroke="#63b8ff" points="178.62,-247 188.62,-243.5 178.62,-240 178.62,-247"/>
</a>
</g>
</g>
<!-- Node7 -->
<g id="Node000007" class="node">
<title>Node7</title>
<g id="a_Node000007"><a xlink:href="classOBoos.html#a5483474ae266b13f26f36898ac4e6b35" target="_top" xlink:title=" ">
<polygon fill="white" stroke="#666666" points="478,-216 349,-216 349,-197 478,-197 478,-216"/>
<text text-anchor="middle" x="413.5" y="-204" font-family="Helvetica,sans-Serif" font-size="10.00">OBoos::func_8007C684</text>
</a>
</g>
</g>
<!-- Node6&#45;&gt;Node7 -->
<g id="edge6_Node000006_Node000007" class="edge">
<title>Node6&#45;&gt;Node7</title>
<g id="a_edge6_Node000006_Node000007"><a xlink:title=" ">
<path fill="none" stroke="#63b8ff" d="M531.19,-206.5C513.66,-206.5 495.14,-206.5 478.14,-206.5"/>
<polygon fill="#63b8ff" stroke="#63b8ff" points="531.37,-210 541.37,-206.5 531.37,-203 531.37,-210"/>
</a>
</g>
</g>
<!-- Node8 -->
<g id="Node000008" class="node">
<title>Node8</title>
<g id="a_Node000008"><a xlink:href="classOBoos.html#a12c6c9d602befe0bdc7383aa3f3530ed" target="_top" xlink:title=" ">
<polygon fill="white" stroke="#666666" points="281,-216 207,-216 207,-197 281,-197 281,-216"/>
<text text-anchor="middle" x="244" y="-204" font-family="Helvetica,sans-Serif" font-size="10.00">OBoos::Tick</text>
</a>
</g>
</g>
<!-- Node7&#45;&gt;Node8 -->
<g id="edge7_Node000007_Node000008" class="edge">
<title>Node7&#45;&gt;Node8</title>
<g id="a_edge7_Node000007_Node000008"><a xlink:title=" ">
<path fill="none" stroke="#63b8ff" d="M338.46,-206.5C318.7,-206.5 298.21,-206.5 281.47,-206.5"/>
<polygon fill="#63b8ff" stroke="#63b8ff" points="338.7,-210 348.7,-206.5 338.7,-203 338.7,-210"/>
</a>
</g>
</g>
<!-- Node10 -->
<g id="Node000010" class="node">
<title>Node10</title>
<g id="a_Node000010"><a xlink:href="update__objects_8c.html#a73baf566f784645307e6515a2528537d" target="_top" xlink:title=" ">
<polygon fill="white" stroke="#666666" points="460.5,-179 366.5,-179 366.5,-160 460.5,-160 460.5,-179"/>
<text text-anchor="middle" x="413.5" y="-167" font-family="Helvetica,sans-Serif" font-size="10.00">func_8007CEDC</text>
</a>
</g>
</g>
<!-- Node9&#45;&gt;Node10 -->
<g id="edge9_Node000009_Node000010" class="edge">
<title>Node9&#45;&gt;Node10</title>
<g id="a_edge9_Node000009_Node000010"><a xlink:title=" ">
<path fill="none" stroke="#63b8ff" d="M550.08,-169.5C521.75,-169.5 487.67,-169.5 460.77,-169.5"/>
<polygon fill="#63b8ff" stroke="#63b8ff" points="550.24,-173 560.24,-169.5 550.24,-166 550.24,-173"/>
</a>
</g>
</g>
<!-- Node11 -->
<g id="Node000011" class="node">
<title>Node11</title>
<g id="a_Node000011"><a xlink:href="update__objects_8c.html#a0f87dba5711ff3586d5fc515bd6df6af" target="_top" xlink:title=" ">
<polygon fill="white" stroke="#666666" points="290,-179 198,-179 198,-160 290,-160 290,-179"/>
<text text-anchor="middle" x="244" y="-167" font-family="Helvetica,sans-Serif" font-size="10.00">func_8007D070</text>
</a>
</g>
</g>
<!-- Node10&#45;&gt;Node11 -->
<g id="edge10_Node000010_Node000011" class="edge">
<title>Node10&#45;&gt;Node11</title>
<g id="a_edge10_Node000010_Node000011"><a xlink:title=" ">
<path fill="none" stroke="#63b8ff" d="M356.01,-169.5C334.57,-169.5 310.46,-169.5 290.19,-169.5"/>
<polygon fill="#63b8ff" stroke="#63b8ff" points="356.29,-173 366.29,-169.5 356.29,-166 356.29,-173"/>
</a>
</g>
</g>
<!-- Node13 -->
<g id="Node000013" class="node">
<title>Node13</title>
<g id="a_Node000013"><a xlink:href="classOSeagull.html#afbe00548c91b2db5834e88901cf7a385" target="_top" xlink:title=" ">
<polygon fill="white" stroke="#666666" points="483.5,-142 343.5,-142 343.5,-123 483.5,-123 483.5,-142"/>
<text text-anchor="middle" x="413.5" y="-130" font-family="Helvetica,sans-Serif" font-size="10.00">OSeagull::func_80082714</text>
</a>
</g>
</g>
<!-- Node12&#45;&gt;Node13 -->
<g id="edge12_Node000012_Node000013" class="edge">
<title>Node12&#45;&gt;Node13</title>
<g id="a_edge12_Node000012_Node000013"><a xlink:title=" ">
<path fill="none" stroke="#63b8ff" d="M525.69,-132.5C511.76,-132.5 497.37,-132.5 483.76,-132.5"/>
<polygon fill="#63b8ff" stroke="#63b8ff" points="525.73,-136 535.73,-132.5 525.73,-129 525.73,-136"/>
</a>
</g>
</g>
<!-- Node14 -->
<g id="Node000014" class="node">
<title>Node14</title>
<g id="a_Node000014"><a xlink:href="classOSeagull.html#a86b5da4447db382837540ab7dc34c95a" target="_top" xlink:title=" ">
<polygon fill="white" stroke="#666666" points="287,-142 201,-142 201,-123 287,-123 287,-142"/>
<text text-anchor="middle" x="244" y="-130" font-family="Helvetica,sans-Serif" font-size="10.00">OSeagull::Tick</text>
</a>
</g>
</g>
<!-- Node13&#45;&gt;Node14 -->
<g id="edge13_Node000013_Node000014" class="edge">
<title>Node13&#45;&gt;Node14</title>
<g id="a_edge13_Node000013_Node000014"><a xlink:title=" ">
<path fill="none" stroke="#63b8ff" d="M333.03,-132.5C317.16,-132.5 301.08,-132.5 287.08,-132.5"/>
<polygon fill="#63b8ff" stroke="#63b8ff" points="333.4,-136 343.4,-132.5 333.4,-129 333.4,-136"/>
</a>
</g>
</g>
<!-- Node16 -->
<g id="Node000016" class="node">
<title>Node16</title>
<g id="a_Node000016"><a xlink:href="classOHotAirBalloon.html#a40bc8d453d3d79b9a7accdc5b4e1420d" target="_top" xlink:title=" ">
<polygon fill="white" stroke="#666666" points="473,-104.5 354,-104.5 354,-74.5 473,-74.5 473,-104.5"/>
<text text-anchor="start" x="362" y="-92.5" font-family="Helvetica,sans-Serif" font-size="10.00">OHotAirBalloon::func</text>
<text text-anchor="middle" x="413.5" y="-81.5" font-family="Helvetica,sans-Serif" font-size="10.00">_80085768</text>
</a>
</g>
</g>
<!-- Node15&#45;&gt;Node16 -->
<g id="edge15_Node000015_Node000016" class="edge">
<title>Node15&#45;&gt;Node16</title>
<g id="a_edge15_Node000015_Node000016"><a xlink:title=" ">
<path fill="none" stroke="#63b8ff" d="M539.89,-89.5C518.22,-89.5 494.26,-89.5 473.14,-89.5"/>
<polygon fill="#63b8ff" stroke="#63b8ff" points="540,-93 550,-89.5 540,-86 540,-93"/>
</a>
</g>
</g>
<!-- Node17 -->
<g id="Node000017" class="node">
<title>Node17</title>
<g id="a_Node000017"><a xlink:href="classOHotAirBalloon.html#a59cdcf707eed92e7a9f72626d093fc23" target="_top" xlink:title=" ">
<polygon fill="white" stroke="#666666" points="303,-99 185,-99 185,-80 303,-80 303,-99"/>
<text text-anchor="middle" x="244" y="-87" font-family="Helvetica,sans-Serif" font-size="10.00">OHotAirBalloon::Tick</text>
</a>
</g>
</g>
<!-- Node16&#45;&gt;Node17 -->
<g id="edge16_Node000016_Node000017" class="edge">
<title>Node16&#45;&gt;Node17</title>
<g id="a_edge16_Node000016_Node000017"><a xlink:title=" ">
<path fill="none" stroke="#63b8ff" d="M343.76,-89.5C330.31,-89.5 316.33,-89.5 303.27,-89.5"/>
<polygon fill="#63b8ff" stroke="#63b8ff" points="343.92,-93 353.92,-89.5 343.92,-86 343.92,-93"/>
</a>
</g>
</g>
<!-- Node19 -->
<g id="Node000019" class="node">
<title>Node19</title>
<g id="a_Node000019"><a xlink:href="classOPenguin.html#a1ec4a3b20ac1a6a2a83157fdda4eedf2" target="_top" xlink:title=" ">
<polygon fill="white" stroke="#666666" points="488,-56 339,-56 339,-37 488,-37 488,-56"/>
<text text-anchor="middle" x="413.5" y="-44" font-family="Helvetica,sans-Serif" font-size="10.00">OPenguin::EmperorPenguin</text>
</a>
</g>
</g>
<!-- Node18&#45;&gt;Node19 -->
<g id="edge18_Node000018_Node000019" class="edge">
<title>Node18&#45;&gt;Node19</title>
<g id="a_edge18_Node000018_Node000019"><a xlink:title=" ">
<path fill="none" stroke="#63b8ff" d="M513.88,-46.5C505.28,-46.5 496.64,-46.5 488.23,-46.5"/>
<polygon fill="#63b8ff" stroke="#63b8ff" points="513.94,-50 523.94,-46.5 513.94,-43 513.94,-50"/>
</a>
</g>
</g>
<!-- Node20 -->
<g id="Node000020" class="node">
<title>Node20</title>
<g id="a_Node000020"><a xlink:href="classOPenguin.html#aac1264338aa7ced7c78ec7ff987a1ef7" target="_top" xlink:title=" ">
<polygon fill="white" stroke="#666666" points="288.5,-38 199.5,-38 199.5,-19 288.5,-19 288.5,-38"/>
<text text-anchor="middle" x="244" y="-26" font-family="Helvetica,sans-Serif" font-size="10.00">OPenguin::Tick</text>
</a>
</g>
</g>
<!-- Node19&#45;&gt;Node20 -->
<g id="edge19_Node000019_Node000020" class="edge">
<title>Node19&#45;&gt;Node20</title>
<g id="a_edge19_Node000019_Node000020"><a xlink:title=" ">
<path fill="none" stroke="#63b8ff" d="M328.54,-37.48C314.78,-36 301.02,-34.52 288.76,-33.2"/>
<polygon fill="#63b8ff" stroke="#63b8ff" points="328.23,-40.96 338.54,-38.55 328.98,-34 328.23,-40.96"/>
</a>
</g>
</g>
<!-- Node22 -->
<g id="Node000022" class="node">
<title>Node22</title>
<g id="a_Node000022"><a xlink:href="classOPenguin.html#a5e83c91b2ac2cb17b55fa68485eb82dd" target="_top" xlink:title=" ">
<polygon fill="white" stroke="#666666" points="481,-19 346,-19 346,0 481,0 481,-19"/>
<text text-anchor="middle" x="413.5" y="-7" font-family="Helvetica,sans-Serif" font-size="10.00">OPenguin::OtherPenguin</text>
</a>
</g>
</g>
<!-- Node21&#45;&gt;Node22 -->
<g id="edge21_Node000021_Node000022" class="edge">
<title>Node21&#45;&gt;Node22</title>
<g id="a_edge21_Node000021_Node000022"><a xlink:title=" ">
<path fill="none" stroke="#63b8ff" d="M520.73,-9.5C507.43,-9.5 493.85,-9.5 481.03,-9.5"/>
<polygon fill="#63b8ff" stroke="#63b8ff" points="520.83,-13 530.83,-9.5 520.83,-6 520.83,-13"/>
</a>
</g>
</g>
<!-- Node22&#45;&gt;Node20 -->
<g id="edge22_Node000022_Node000020" class="edge">
<title>Node22&#45;&gt;Node20</title>
<g id="a_edge22_Node000022_Node000020"><a xlink:title=" ">
<path fill="none" stroke="#63b8ff" d="M335.85,-18.19C319.73,-20.02 303.27,-21.89 288.85,-23.53"/>
<polygon fill="#63b8ff" stroke="#63b8ff" points="336.28,-21.67 345.82,-17.06 335.49,-14.71 336.28,-21.67"/>
</a>
</g>
</g>
</g>
</svg>
