<?xml version="1.0" encoding="UTF-8" standalone="no"?>
<!DOCTYPE svg PUBLIC "-//W3C//DTD SVG 1.1//EN"
 "http://www.w3.org/Graphics/SVG/1.1/DTD/svg11.dtd">
<!-- Generated by graphviz version 2.43.0 (0)
 -->
<!-- Title: update_vehicle_following_path Pages: 1 -->
<!--zoomable 224 -->

<svg id="main" version="1.1" xmlns="http://www.w3.org/2000/svg" xmlns:xlink="http://www.w3.org/1999/xlink" xml:space="preserve" onload="init(evt)">

<style type="text/css"><![CDATA[
.node, .edge {opacity: 0.7;}
.node.selected, .edge.selected {opacity: 1;}
.edge:hover path { stroke: red; }
.edge:hover polygon { stroke: red; fill: red; }
]]></style>

<defs>
  <circle id="rim" cx="0" cy="0" r="7"/>
  <circle id="rim2" cx="0" cy="0" r="3.5"/>
  <g id="zoomPlus">
    <use xlink:href="#rim" fill="#404040"><set attributeName="fill" to="#808080" begin="zoomplus.mouseover" end="zoomplus.mouseout"/></use>
    <path d="M-4,0h8M0,-4v8" fill="none" stroke="white" stroke-width="1.5" pointer-events="none"/>
  </g>
  <g id="zoomMin">
    <use xlink:href="#rim" fill="#404040"><set attributeName="fill" to="#808080" begin="zoomminus.mouseover" end="zoomminus.mouseout"/></use>
    <path d="M-4,0h8" fill="none" stroke="white" stroke-width="1.5" pointer-events="none"/>
  </g>
  <g id="arrowUp" transform="translate(30 24)">
    <use xlink:href="#rim"/>
    <path pointer-events="none" fill="none" stroke="white" stroke-width="1.5" d="M0,-3.0v7 M-2.5,-0.5L0,-3.0L2.5,-0.5"/>
  </g>
  <g id="arrowRight" transform="rotate(90) translate(36 -43)">
    <use xlink:href="#rim"/>
    <path pointer-events="none" fill="none" stroke="white" stroke-width="1.5" d="M0,-3.0v7 M-2.5,-0.5L0,-3.0L2.5,-0.5"/>
  </g>
  <g id="arrowDown" transform="rotate(180) translate(-30 -48)">
    <use xlink:href="#rim"/>
    <path pointer-events="none" fill="none" stroke="white" stroke-width="1.5" d="M0,-3.0v7 M-2.5,-0.5L0,-3.0L2.5,-0.5"/>
  </g>
  <g id="arrowLeft" transform="rotate(270) translate(-36 17)">
    <use xlink:href="#rim"/>
    <path pointer-events="none" fill="none" stroke="white" stroke-width="1.5" d="M0,-3.0v7 M-2.5,-0.5L0,-3.0L2.5,-0.5"/>
  </g>
  <g id="resetDef">
    <use xlink:href="#rim2" fill="#404040"><set attributeName="fill" to="#808080" begin="reset.mouseover" end="reset.mouseout"/></use>
  </g>
</defs>
<script type="application/ecmascript">
var viewWidth = 1073;
var viewHeight = 224;
var sectionId = 'dynsection-264';
</script>
<script type="application/ecmascript" xlink:href="svg.min.js"/>
<svg id="graph" class="graph">
<g id="viewport">
<title>update_vehicle_following_path</title>
<!-- Node1 -->
<g id="Node000001" class="node">
<title>Node1</title>
<g id="a_Node000001"><a xlink:title=" ">
<polygon fill="#999999" stroke="#666666" points="1065,-123 897,-123 897,-104 1065,-104 1065,-123"/>
<text text-anchor="middle" x="981" y="-111" font-family="Helvetica,sans-Serif" font-size="10.00">update_vehicle_following_path</text>
</a>
</g>
</g>
<!-- Node2 -->
<g id="Node000002" class="node">
<title>Node2</title>
<g id="a_Node000002"><a xlink:href="classABoat.html#a72f9505bb203b7da30ee448f061bbe49" target="_top" xlink:title=" ">
<polygon fill="white" stroke="#666666" points="837,-216 756,-216 756,-197 837,-197 837,-216"/>
<text text-anchor="middle" x="796.5" y="-204" font-family="Helvetica,sans-Serif" font-size="10.00">ABoat::ABoat</text>
</a>
</g>
</g>
<!-- Node1&#45;&gt;Node2 -->
<g id="edge1_Node000001_Node000002" class="edge">
<title>Node1&#45;&gt;Node2</title>
<g id="a_edge1_Node000001_Node000002"><a xlink:title=" ">
<path fill="none" stroke="#63b8ff" d="M959.2,-129.22C936.23,-145.94 897.63,-172.17 861,-188.5 853.46,-191.86 845.14,-194.75 837.08,-197.18"/>
<polygon fill="#63b8ff" stroke="#63b8ff" points="961.51,-131.86 967.48,-123.11 957.35,-126.23 961.51,-131.86"/>
</a>
</g>
</g>
<!-- Node5 -->
<g id="Node000005" class="node">
<title>Node5</title>
<g id="a_Node000005"><a xlink:href="classATrain.html#a924e9fb51739e1fba6b0eff6635611bc" target="_top" xlink:title=" ">
<polygon fill="white" stroke="#666666" points="837,-179 756,-179 756,-160 837,-160 837,-179"/>
<text text-anchor="middle" x="796.5" y="-167" font-family="Helvetica,sans-Serif" font-size="10.00">ATrain::ATrain</text>
</a>
</g>
</g>
<!-- Node1&#45;&gt;Node5 -->
<g id="edge4_Node000001_Node000005" class="edge">
<title>Node1&#45;&gt;Node5</title>
<g id="a_edge4_Node000001_Node000005"><a xlink:title=" ">
<path fill="none" stroke="#63b8ff" d="M939.92,-126.08C916.86,-133.29 887.32,-142.47 861,-150.5 850.76,-153.62 839.58,-156.98 829.5,-160"/>
<polygon fill="#63b8ff" stroke="#63b8ff" points="941.2,-129.34 949.7,-123.02 939.11,-122.66 941.2,-129.34"/>
</a>
</g>
</g>
<!-- Node11 -->
<g id="Node000011" class="node">
<title>Node11</title>
<g id="a_Node000011"><a xlink:href="classABoat.html#a9edd4ca53a59cadb0e65f49bd5502bc1" target="_top" xlink:title=" ">
<polygon fill="white" stroke="#666666" points="832.5,-142 760.5,-142 760.5,-123 832.5,-123 832.5,-142"/>
<text text-anchor="middle" x="796.5" y="-130" font-family="Helvetica,sans-Serif" font-size="10.00">ABoat::Tick</text>
</a>
</g>
</g>
<!-- Node1&#45;&gt;Node11 -->
<g id="edge10_Node000001_Node000011" class="edge">
<title>Node1&#45;&gt;Node11</title>
<g id="a_edge10_Node000001_Node000011"><a xlink:title=" ">
<path fill="none" stroke="#63b8ff" d="M886.69,-123.21C867.41,-125.22 848.26,-127.22 832.67,-128.84"/>
<polygon fill="#63b8ff" stroke="#63b8ff" points="887.18,-126.68 896.76,-122.17 886.45,-119.72 887.18,-126.68"/>
</a>
</g>
</g>
<!-- Node12 -->
<g id="Node000012" class="node">
<title>Node12</title>
<g id="a_Node000012"><a xlink:href="classATrain.html#acc8b87940356921e15f3e6859bd83cf1" target="_top" xlink:title=" ">
<polygon fill="white" stroke="#666666" points="832.5,-105 760.5,-105 760.5,-86 832.5,-86 832.5,-105"/>
<text text-anchor="middle" x="796.5" y="-93" font-family="Helvetica,sans-Serif" font-size="10.00">ATrain::Tick</text>
</a>
</g>
</g>
<!-- Node1&#45;&gt;Node12 -->
<g id="edge11_Node000001_Node000012" class="edge">
<title>Node1&#45;&gt;Node12</title>
<g id="a_edge11_Node000001_Node000012"><a xlink:title=" ">
<path fill="none" stroke="#63b8ff" d="M886.69,-104.3C867.41,-102.4 848.26,-100.51 832.67,-98.97"/>
<polygon fill="#63b8ff" stroke="#63b8ff" points="886.47,-107.79 896.76,-105.29 887.15,-100.83 886.47,-107.79"/>
</a>
</g>
</g>
<!-- Node13 -->
<g id="Node000013" class="node">
<title>Node13</title>
<g id="a_Node000013"><a xlink:href="code__80005FD0_8c.html#a729f7f5e21d05aa84945ba750d554c76" target="_top" xlink:title=" ">
<polygon fill="white" stroke="#666666" points="861,-67.5 732,-67.5 732,-37.5 861,-37.5 861,-67.5"/>
<text text-anchor="start" x="740" y="-55.5" font-family="Helvetica,sans-Serif" font-size="10.00">update_vehicle_paddle</text>
<text text-anchor="middle" x="796.5" y="-44.5" font-family="Helvetica,sans-Serif" font-size="10.00">_boats</text>
</a>
</g>
</g>
<!-- Node1&#45;&gt;Node13 -->
<g id="edge12_Node000001_Node000013" class="edge">
<title>Node1&#45;&gt;Node13</title>
<g id="a_edge12_Node000001_Node000013"><a xlink:title=" ">
<path fill="none" stroke="#63b8ff" d="M941.73,-100.71C912.79,-91.04 872.97,-77.72 842.5,-67.54"/>
<polygon fill="#63b8ff" stroke="#63b8ff" points="940.89,-104.12 951.48,-103.97 943.11,-97.48 940.89,-104.12"/>
</a>
</g>
</g>
<!-- Node14 -->
<g id="Node000014" class="node">
<title>Node14</title>
<g id="a_Node000014"><a xlink:href="code__80005FD0_8c.html#aa4a9c388d068cd83d2e2a4f6c30705e4" target="_top" xlink:title=" ">
<polygon fill="white" stroke="#666666" points="858.5,-19 734.5,-19 734.5,0 858.5,0 858.5,-19"/>
<text text-anchor="middle" x="796.5" y="-7" font-family="Helvetica,sans-Serif" font-size="10.00">update_vehicle_trains</text>
</a>
</g>
</g>
<!-- Node1&#45;&gt;Node14 -->
<g id="edge13_Node000001_Node000014" class="edge">
<title>Node1&#45;&gt;Node14</title>
<g id="a_edge13_Node000001_Node000014"><a xlink:title=" ">
<path fill="none" stroke="#63b8ff" d="M961.61,-97.38C939.22,-78.51 899.62,-47.42 861,-28.5 853.46,-24.8 845.05,-21.67 836.89,-19.08"/>
<polygon fill="#63b8ff" stroke="#63b8ff" points="959.43,-100.13 969.3,-103.97 963.98,-94.81 959.43,-100.13"/>
</a>
</g>
</g>
<!-- Node3 -->
<g id="Node000003" class="node">
<title>Node3</title>
<g id="a_Node000003"><a xlink:href="classABoat.html#a2a8755582504f510d51f7988b42df18b" target="_top" xlink:title=" ">
<polygon fill="white" stroke="#666666" points="696,-216 612,-216 612,-197 696,-197 696,-216"/>
<text text-anchor="middle" x="654" y="-204" font-family="Helvetica,sans-Serif" font-size="10.00">ABoat::Spawn</text>
</a>
</g>
</g>
<!-- Node2&#45;&gt;Node3 -->
<g id="edge2_Node000002_Node000003" class="edge">
<title>Node2&#45;&gt;Node3</title>
<g id="a_edge2_Node000002_Node000003"><a xlink:title=" ">
<path fill="none" stroke="#63b8ff" d="M745.62,-206.5C729.43,-206.5 711.65,-206.5 696.17,-206.5"/>
<polygon fill="#63b8ff" stroke="#63b8ff" points="745.99,-210 755.99,-206.5 745.99,-203 745.99,-210"/>
</a>
</g>
</g>
<!-- Node4 -->
<g id="Node000004" class="node">
<title>Node4</title>
<g id="a_Node000004"><a xlink:href="classDKJungle.html#af1f20969288526ce721aa9a72e535422" target="_top" xlink:title=" ">
<polygon fill="white" stroke="#666666" points="550,-216 434,-216 434,-197 550,-197 550,-216"/>
<text text-anchor="middle" x="492" y="-204" font-family="Helvetica,sans-Serif" font-size="10.00">DKJungle::BeginPlay</text>
</a>
</g>
</g>
<!-- Node3&#45;&gt;Node4 -->
<g id="edge3_Node000003_Node000004" class="edge">
<title>Node3&#45;&gt;Node4</title>
<g id="a_edge3_Node000003_Node000004"><a xlink:title=" ">
<path fill="none" stroke="#63b8ff" d="M601.33,-206.5C584.96,-206.5 566.77,-206.5 550.04,-206.5"/>
<polygon fill="#63b8ff" stroke="#63b8ff" points="601.8,-210 611.8,-206.5 601.8,-203 601.8,-210"/>
</a>
</g>
</g>
<!-- Node6 -->
<g id="Node000006" class="node">
<title>Node6</title>
<g id="a_Node000006"><a xlink:href="classATrain.html#aa39976112e962ff1536c33236e16cc20" target="_top" xlink:title=" ">
<polygon fill="white" stroke="#666666" points="696,-179 612,-179 612,-160 696,-160 696,-179"/>
<text text-anchor="middle" x="654" y="-167" font-family="Helvetica,sans-Serif" font-size="10.00">ATrain::Spawn</text>
</a>
</g>
</g>
<!-- Node5&#45;&gt;Node6 -->
<g id="edge5_Node000005_Node000006" class="edge">
<title>Node5&#45;&gt;Node6</title>
<g id="a_edge5_Node000005_Node000006"><a xlink:title=" ">
<path fill="none" stroke="#63b8ff" d="M745.62,-169.5C729.43,-169.5 711.65,-169.5 696.17,-169.5"/>
<polygon fill="#63b8ff" stroke="#63b8ff" points="745.99,-173 755.99,-169.5 745.99,-166 745.99,-173"/>
</a>
</g>
</g>
<!-- Node7 -->
<g id="Node000007" class="node">
<title>Node7</title>
<g id="a_Node000007"><a xlink:href="classKalimariDesert.html#aa3f0f4155f0d9a6ecfb4ca824603b81f" target="_top" xlink:title=" ">
<polygon fill="white" stroke="#666666" points="564.5,-179 419.5,-179 419.5,-160 564.5,-160 564.5,-179"/>
<text text-anchor="middle" x="492" y="-167" font-family="Helvetica,sans-Serif" font-size="10.00">KalimariDesert::BeginPlay</text>
</a>
</g>
</g>
<!-- Node6&#45;&gt;Node7 -->
<g id="edge6_Node000006_Node000007" class="edge">
<title>Node6&#45;&gt;Node7</title>
<g id="a_edge6_Node000006_Node000007"><a xlink:title=" ">
<path fill="none" stroke="#63b8ff" d="M601.73,-169.5C589.97,-169.5 577.25,-169.5 564.79,-169.5"/>
<polygon fill="#63b8ff" stroke="#63b8ff" points="601.8,-173 611.8,-169.5 601.8,-166 601.8,-173"/>
</a>
</g>
</g>
<!-- Node8 -->
<g id="Node000008" class="node">
<title>Node8</title>
<g id="a_Node000008"><a xlink:href="classEditor_1_1ContentBrowserWindow.html#a892a21e5db2c05ba813cfdc4f1dae812" target="_top" xlink:title=" ">
<polygon fill="white" stroke="#666666" points="576,-141.5 408,-141.5 408,-111.5 576,-111.5 576,-141.5"/>
<text text-anchor="start" x="416" y="-129.5" font-family="Helvetica,sans-Serif" font-size="10.00">Editor::ContentBrowserWindow</text>
<text text-anchor="middle" x="492" y="-118.5" font-family="Helvetica,sans-Serif" font-size="10.00">::TrainWindow</text>
</a>
</g>
</g>
<!-- Node6&#45;&gt;Node8 -->
<g id="edge7_Node000006_Node000008" class="edge">
<title>Node6&#45;&gt;Node8</title>
<g id="a_edge7_Node000006_Node000008"><a xlink:title=" ">
<path fill="none" stroke="#63b8ff" d="M607.67,-157.32C589.37,-152.4 568.08,-146.68 548.84,-141.51"/>
<polygon fill="#63b8ff" stroke="#63b8ff" points="606.93,-160.74 617.49,-159.96 608.74,-153.98 606.93,-160.74"/>
</a>
</g>
</g>
<!-- Node9 -->
<g id="Node000009" class="node">
<title>Node9</title>
<g id="a_Node000009"><a xlink:href="classEditor_1_1ContentBrowserWindow.html#a4c6f618d8a04fc19805b4642b40c57ce" target="_top" xlink:title=" ">
<polygon fill="white" stroke="#666666" points="372,-141.5 204,-141.5 204,-111.5 372,-111.5 372,-141.5"/>
<text text-anchor="start" x="212" y="-129.5" font-family="Helvetica,sans-Serif" font-size="10.00">Editor::ContentBrowserWindow</text>
<text text-anchor="middle" x="288" y="-118.5" font-family="Helvetica,sans-Serif" font-size="10.00">::AddActorContent</text>
</a>
</g>
</g>
<!-- Node8&#45;&gt;Node9 -->
<g id="edge8_Node000008_Node000009" class="edge">
<title>Node8&#45;&gt;Node9</title>
<g id="a_edge8_Node000008_Node000009"><a xlink:title=" ">
<path fill="none" stroke="#63b8ff" d="M397.89,-126.5C389.27,-126.5 380.56,-126.5 372.04,-126.5"/>
<polygon fill="#63b8ff" stroke="#63b8ff" points="397.96,-130 407.96,-126.5 397.96,-123 397.96,-130"/>
</a>
</g>
</g>
<!-- Node10 -->
<g id="Node000010" class="node">
<title>Node10</title>
<g id="a_Node000010"><a xlink:href="classEditor_1_1ContentBrowserWindow.html#aba36715d806ae75b046302e476726b44" target="_top" xlink:title=" ">
<polygon fill="white" stroke="#666666" points="168,-141.5 0,-141.5 0,-111.5 168,-111.5 168,-141.5"/>
<text text-anchor="start" x="8" y="-129.5" font-family="Helvetica,sans-Serif" font-size="10.00">Editor::ContentBrowserWindow</text>
<text text-anchor="middle" x="84" y="-118.5" font-family="Helvetica,sans-Serif" font-size="10.00">::DrawElement</text>
</a>
</g>
</g>
<!-- Node9&#45;&gt;Node10 -->
<g id="edge9_Node000009_Node000010" class="edge">
<title>Node9&#45;&gt;Node10</title>
<g id="a_edge9_Node000009_Node000010"><a xlink:title=" ">
<path fill="none" stroke="#63b8ff" d="M193.89,-126.5C185.27,-126.5 176.56,-126.5 168.04,-126.5"/>
<polygon fill="#63b8ff" stroke="#63b8ff" points="193.96,-130 203.96,-126.5 193.96,-123 193.96,-130"/>
</a>
</g>
</g>
</g>
</svg>

<g id="navigator" transform="translate(0 0)" fill="#404254">
  <rect fill="#f2f5e9" fill-opacity="0.5" stroke="#606060" stroke-width=".5" x="0" y="0" width="60" height="60"/>
  <use id="zoomplus" xlink:href="#zoomPlus" x="17" y="9" onmousedown="handleZoom(evt,'in')"/>
  <use id="zoomminus" xlink:href="#zoomMin" x="42" y="9" onmousedown="handleZoom(evt,'out')"/>
  <use id="reset" xlink:href="#resetDef" x="30" y="36" onmousedown="handleReset()"/>
   <use id="arrowup" xlink:href="#arrowUp" x="0" y="0" onmousedown="handlePan(0,-1)"/>
  <use id="arrowright" xlink:href="#arrowRight" x="0" y="0" onmousedown="handlePan(1,0)"/>
  <use id="arrowdown" xlink:href="#arrowDown" x="0" y="0" onmousedown="handlePan(0,1)"/>
  <use id="arrowleft" xlink:href="#arrowLeft" x="0" y="0" onmousedown="handlePan(-1,0)"/>
</g>
<svg viewBox="0 0 15 15" width="100%" height="30px" preserveAspectRatio="xMaxYMin meet">
 <g id="arrow_out" transform="scale(0.3 0.3)">
  <a xlink:href="code__80005FD0_8c_a777de4239351e9266f8b367ce46cb936_icgraph_org.svg" target="_base">
   <rect id="button" ry="5" rx="5" y="6" x="6" height="38" width="38"
        fill="#f2f5e9" fill-opacity="0.5" stroke="#606060" stroke-width="1.0"/>
   <path id="arrow"
     d="M 11.500037,31.436501 C 11.940474,20.09759 22.043105,11.32322 32.158766,21.979434 L 37.068811,17.246167 C 37.068811,17.246167 37.088388,32 37.088388,32 L 22.160133,31.978069 C 22.160133,31.978069 26.997745,27.140456 26.997745,27.140456 C 18.528582,18.264221 13.291696,25.230495 11.500037,31.436501 z"
     style="fill:#404040;"/>
  </a>
 </g>
</svg>

<style type='text/css'>
<![CDATA[
[data-mouse-over-selected='false'] { opacity: 0.7; }
[data-mouse-over-selected='true']  { opacity: 1.0; }
]]>
</style>
<script type="application/ecmascript"><![CDATA[
document.addEventListener('DOMContentLoaded', (event) => {
  highlightEdges();
  highlightAdjacentNodes();
});
]]></script>
</svg>
