<?xml version="1.0" encoding="UTF-8" standalone="no"?>
<!DOCTYPE svg PUBLIC "-//W3C//DTD SVG 1.1//EN"
 "http://www.w3.org/Graphics/SVG/1.1/DTD/svg11.dtd">
<!-- Generated by graphviz version 2.43.0 (0)
 -->
<!-- Title: find_closest_vehicles_path_point Pages: 1 -->
<svg width="1229pt" height="224pt"
 viewBox="0.00 0.00 1229.00 224.00" xmlns="http://www.w3.org/2000/svg" xmlns:xlink="http://www.w3.org/1999/xlink">
<g id="graph0" class="graph" transform="scale(1 1) rotate(0) translate(4 220)">
<title>find_closest_vehicles_path_point</title>
<!-- Node1 -->
<g id="Node000001" class="node">
<title>Node1</title>
<g id="a_Node000001"><a xlink:title=" ">
<polygon fill="#999999" stroke="#666666" points="1221,-128.5 1101,-128.5 1101,-98.5 1221,-98.5 1221,-128.5"/>
<text text-anchor="start" x="1109" y="-116.5" font-family="Helvetica,sans-Serif" font-size="10.00">find_closest_vehicles</text>
<text text-anchor="middle" x="1161" y="-105.5" font-family="Helvetica,sans-Serif" font-size="10.00">_path_point</text>
</a>
</g>
</g>
<!-- Node2 -->
<g id="Node000002" class="node">
<title>Node2</title>
<g id="a_Node000002"><a xlink:href="code__80005FD0_8c.html#a777de4239351e9266f8b367ce46cb936" target="_top" xlink:title=" ">
<polygon fill="white" stroke="#666666" points="1065,-123 897,-123 897,-104 1065,-104 1065,-123"/>
<text text-anchor="middle" x="981" y="-111" font-family="Helvetica,sans-Serif" font-size="10.00">update_vehicle_following_path</text>
</a>
</g>
</g>
<!-- Node1&#45;&gt;Node2 -->
<g id="edge1_Node000001_Node000002" class="edge">
<title>Node1&#45;&gt;Node2</title>
<g id="a_edge1_Node000001_Node000002"><a xlink:title=" ">
<path fill="none" stroke="#63b8ff" d="M1090.65,-113.5C1082.28,-113.5 1073.66,-113.5 1065.11,-113.5"/>
<polygon fill="#63b8ff" stroke="#63b8ff" points="1090.73,-117 1100.73,-113.5 1090.73,-110 1090.73,-117"/>
</a>
</g>
</g>
<!-- Node3 -->
<g id="Node000003" class="node">
<title>Node3</title>
<g id="a_Node000003"><a xlink:href="classABoat.html#a72f9505bb203b7da30ee448f061bbe49" target="_top" xlink:title=" ">
<polygon fill="white" stroke="#666666" points="837,-216 756,-216 756,-197 837,-197 837,-216"/>
<text text-anchor="middle" x="796.5" y="-204" font-family="Helvetica,sans-Serif" font-size="10.00">ABoat::ABoat</text>
</a>
</g>
</g>
<!-- Node2&#45;&gt;Node3 -->
<g id="edge2_Node000002_Node000003" class="edge">
<title>Node2&#45;&gt;Node3</title>
<g id="a_edge2_Node000002_Node000003"><a xlink:title=" ">
<path fill="none" stroke="#63b8ff" d="M958.75,-129.15C935.66,-145.56 897.22,-171.17 861,-187.5 852.92,-191.14 843.96,-194.31 835.37,-196.96"/>
<polygon fill="#63b8ff" stroke="#63b8ff" points="961.01,-131.83 967.09,-123.15 956.92,-126.15 961.01,-131.83"/>
</a>
</g>
</g>
<!-- Node5 -->
<g id="Node000005" class="node">
<title>Node5</title>
<g id="a_Node000005"><a xlink:href="classATrain.html#a924e9fb51739e1fba6b0eff6635611bc" target="_top" xlink:title=" ">
<polygon fill="white" stroke="#666666" points="837,-179 756,-179 756,-160 837,-160 837,-179"/>
<text text-anchor="middle" x="796.5" y="-167" font-family="Helvetica,sans-Serif" font-size="10.00">ATrain::ATrain</text>
</a>
</g>
</g>
<!-- Node2&#45;&gt;Node5 -->
<g id="edge4_Node000002_Node000005" class="edge">
<title>Node2&#45;&gt;Node5</title>
<g id="a_edge4_Node000002_Node000005"><a xlink:title=" ">
<path fill="none" stroke="#63b8ff" d="M939.92,-126.08C916.86,-133.29 887.32,-142.47 861,-150.5 850.76,-153.62 839.58,-156.98 829.5,-160"/>
<polygon fill="#63b8ff" stroke="#63b8ff" points="941.2,-129.34 949.7,-123.02 939.11,-122.66 941.2,-129.34"/>
</a>
</g>
</g>
<!-- Node10 -->
<g id="Node000010" class="node">
<title>Node10</title>
<g id="a_Node000010"><a xlink:href="classABoat.html#a9edd4ca53a59cadb0e65f49bd5502bc1" target="_top" xlink:title=" ">
<polygon fill="white" stroke="#666666" points="832.5,-142 760.5,-142 760.5,-123 832.5,-123 832.5,-142"/>
<text text-anchor="middle" x="796.5" y="-130" font-family="Helvetica,sans-Serif" font-size="10.00">ABoat::Tick</text>
</a>
</g>
</g>
<!-- Node2&#45;&gt;Node10 -->
<g id="edge9_Node000002_Node000010" class="edge">
<title>Node2&#45;&gt;Node10</title>
<g id="a_edge9_Node000002_Node000010"><a xlink:title=" ">
<path fill="none" stroke="#63b8ff" d="M886.69,-123.21C867.41,-125.22 848.26,-127.22 832.67,-128.84"/>
<polygon fill="#63b8ff" stroke="#63b8ff" points="887.18,-126.68 896.76,-122.17 886.45,-119.72 887.18,-126.68"/>
</a>
</g>
</g>
<!-- Node11 -->
<g id="Node000011" class="node">
<title>Node11</title>
<g id="a_Node000011"><a xlink:href="classATrain.html#acc8b87940356921e15f3e6859bd83cf1" target="_top" xlink:title=" ">
<polygon fill="white" stroke="#666666" points="832.5,-105 760.5,-105 760.5,-86 832.5,-86 832.5,-105"/>
<text text-anchor="middle" x="796.5" y="-93" font-family="Helvetica,sans-Serif" font-size="10.00">ATrain::Tick</text>
</a>
</g>
</g>
<!-- Node2&#45;&gt;Node11 -->
<g id="edge10_Node000002_Node000011" class="edge">
<title>Node2&#45;&gt;Node11</title>
<g id="a_edge10_Node000002_Node000011"><a xlink:title=" ">
<path fill="none" stroke="#63b8ff" d="M886.69,-104.3C867.41,-102.4 848.26,-100.51 832.67,-98.97"/>
<polygon fill="#63b8ff" stroke="#63b8ff" points="886.47,-107.79 896.76,-105.29 887.15,-100.83 886.47,-107.79"/>
</a>
</g>
</g>
<!-- Node12 -->
<g id="Node000012" class="node">
<title>Node12</title>
<g id="a_Node000012"><a xlink:href="code__80005FD0_8c.html#a729f7f5e21d05aa84945ba750d554c76" target="_top" xlink:title=" ">
<polygon fill="white" stroke="#666666" points="861,-67.5 732,-67.5 732,-37.5 861,-37.5 861,-67.5"/>
<text text-anchor="start" x="740" y="-55.5" font-family="Helvetica,sans-Serif" font-size="10.00">update_vehicle_paddle</text>
<text text-anchor="middle" x="796.5" y="-44.5" font-family="Helvetica,sans-Serif" font-size="10.00">_boats</text>
</a>
</g>
</g>
<!-- Node2&#45;&gt;Node12 -->
<g id="edge11_Node000002_Node000012" class="edge">
<title>Node2&#45;&gt;Node12</title>
<g id="a_edge11_Node000002_Node000012"><a xlink:title=" ">
<path fill="none" stroke="#63b8ff" d="M941.73,-100.71C912.79,-91.04 872.97,-77.72 842.5,-67.54"/>
<polygon fill="#63b8ff" stroke="#63b8ff" points="940.89,-104.12 951.48,-103.97 943.11,-97.48 940.89,-104.12"/>
</a>
</g>
</g>
<!-- Node13 -->
<g id="Node000013" class="node">
<title>Node13</title>
<g id="a_Node000013"><a xlink:href="code__80005FD0_8c.html#aa4a9c388d068cd83d2e2a4f6c30705e4" target="_top" xlink:title=" ">
<polygon fill="white" stroke="#666666" points="858.5,-19 734.5,-19 734.5,0 858.5,0 858.5,-19"/>
<text text-anchor="middle" x="796.5" y="-7" font-family="Helvetica,sans-Serif" font-size="10.00">update_vehicle_trains</text>
</a>
</g>
</g>
<!-- Node2&#45;&gt;Node13 -->
<g id="edge12_Node000002_Node000013" class="edge">
<title>Node2&#45;&gt;Node13</title>
<g id="a_edge12_Node000002_Node000013"><a xlink:title=" ">
<path fill="none" stroke="#63b8ff" d="M961.61,-97.38C939.22,-78.51 899.62,-47.42 861,-28.5 853.46,-24.8 845.05,-21.67 836.89,-19.08"/>
<polygon fill="#63b8ff" stroke="#63b8ff" points="959.43,-100.13 969.3,-103.97 963.98,-94.81 959.43,-100.13"/>
</a>
</g>
</g>
<!-- Node4 -->
<g id="Node000004" class="node">
<title>Node4</title>
<g id="a_Node000004"><a xlink:href="classABoat.html#a2a8755582504f510d51f7988b42df18b" target="_top" xlink:title=" ">
<polygon fill="white" stroke="#666666" points="696,-216 612,-216 612,-197 696,-197 696,-216"/>
<text text-anchor="middle" x="654" y="-204" font-family="Helvetica,sans-Serif" font-size="10.00">ABoat::Spawn</text>
</a>
</g>
</g>
<!-- Node3&#45;&gt;Node4 -->
<g id="edge3_Node000003_Node000004" class="edge">
<title>Node3&#45;&gt;Node4</title>
<g id="a_edge3_Node000003_Node000004"><a xlink:title=" ">
<path fill="none" stroke="#63b8ff" d="M745.62,-206.5C729.43,-206.5 711.65,-206.5 696.17,-206.5"/>
<polygon fill="#63b8ff" stroke="#63b8ff" points="745.99,-210 755.99,-206.5 745.99,-203 745.99,-210"/>
</a>
</g>
</g>
<!-- Node6 -->
<g id="Node000006" class="node">
<title>Node6</title>
<g id="a_Node000006"><a xlink:href="classATrain.html#aa39976112e962ff1536c33236e16cc20" target="_top" xlink:title=" ">
<polygon fill="white" stroke="#666666" points="696,-179 612,-179 612,-160 696,-160 696,-179"/>
<text text-anchor="middle" x="654" y="-167" font-family="Helvetica,sans-Serif" font-size="10.00">ATrain::Spawn</text>
</a>
</g>
</g>
<!-- Node5&#45;&gt;Node6 -->
<g id="edge5_Node000005_Node000006" class="edge">
<title>Node5&#45;&gt;Node6</title>
<g id="a_edge5_Node000005_Node000006"><a xlink:title=" ">
<path fill="none" stroke="#63b8ff" d="M745.62,-169.5C729.43,-169.5 711.65,-169.5 696.17,-169.5"/>
<polygon fill="#63b8ff" stroke="#63b8ff" points="745.99,-173 755.99,-169.5 745.99,-166 745.99,-173"/>
</a>
</g>
</g>
<!-- Node7 -->
<g id="Node000007" class="node">
<title>Node7</title>
<g id="a_Node000007"><a xlink:href="classEditor_1_1ContentBrowserWindow.html#a892a21e5db2c05ba813cfdc4f1dae812" target="_top" xlink:title=" ">
<polygon fill="white" stroke="#666666" points="576,-184.5 408,-184.5 408,-154.5 576,-154.5 576,-184.5"/>
<text text-anchor="start" x="416" y="-172.5" font-family="Helvetica,sans-Serif" font-size="10.00">Editor::ContentBrowserWindow</text>
<text text-anchor="middle" x="492" y="-161.5" font-family="Helvetica,sans-Serif" font-size="10.00">::TrainWindow</text>
</a>
</g>
</g>
<!-- Node6&#45;&gt;Node7 -->
<g id="edge6_Node000006_Node000007" class="edge">
<title>Node6&#45;&gt;Node7</title>
<g id="a_edge6_Node000006_Node000007"><a xlink:title=" ">
<path fill="none" stroke="#63b8ff" d="M601.67,-169.5C593.46,-169.5 584.78,-169.5 576.05,-169.5"/>
<polygon fill="#63b8ff" stroke="#63b8ff" points="601.8,-173 611.8,-169.5 601.8,-166 601.8,-173"/>
</a>
</g>
</g>
<!-- Node8 -->
<g id="Node000008" class="node">
<title>Node8</title>
<g id="a_Node000008"><a xlink:href="classEditor_1_1ContentBrowserWindow.html#a592a4ce51797c84e28bd118755f1001a" target="_top" xlink:title=" ">
<polygon fill="white" stroke="#666666" points="372,-184.5 204,-184.5 204,-154.5 372,-154.5 372,-184.5"/>
<text text-anchor="start" x="212" y="-172.5" font-family="Helvetica,sans-Serif" font-size="10.00">Editor::ContentBrowserWindow</text>
<text text-anchor="middle" x="288" y="-161.5" font-family="Helvetica,sans-Serif" font-size="10.00">::AddActorContent</text>
</a>
</g>
</g>
<!-- Node7&#45;&gt;Node8 -->
<g id="edge7_Node000007_Node000008" class="edge">
<title>Node7&#45;&gt;Node8</title>
<g id="a_edge7_Node000007_Node000008"><a xlink:title=" ">
<path fill="none" stroke="#63b8ff" d="M397.89,-169.5C389.27,-169.5 380.56,-169.5 372.04,-169.5"/>
<polygon fill="#63b8ff" stroke="#63b8ff" points="397.96,-173 407.96,-169.5 397.96,-166 397.96,-173"/>
</a>
</g>
</g>
<!-- Node9 -->
<g id="Node000009" class="node">
<title>Node9</title>
<g id="a_Node000009"><a xlink:href="classEditor_1_1ContentBrowserWindow.html#aba36715d806ae75b046302e476726b44" target="_top" xlink:title=" ">
<polygon fill="white" stroke="#666666" points="168,-184.5 0,-184.5 0,-154.5 168,-154.5 168,-184.5"/>
<text text-anchor="start" x="8" y="-172.5" font-family="Helvetica,sans-Serif" font-size="10.00">Editor::ContentBrowserWindow</text>
<text text-anchor="middle" x="84" y="-161.5" font-family="Helvetica,sans-Serif" font-size="10.00">::DrawElement</text>
</a>
</g>
</g>
<!-- Node8&#45;&gt;Node9 -->
<g id="edge8_Node000008_Node000009" class="edge">
<title>Node8&#45;&gt;Node9</title>
<g id="a_edge8_Node000008_Node000009"><a xlink:title=" ">
<path fill="none" stroke="#63b8ff" d="M193.89,-169.5C185.27,-169.5 176.56,-169.5 168.04,-169.5"/>
<polygon fill="#63b8ff" stroke="#63b8ff" points="193.96,-173 203.96,-169.5 193.96,-166 193.96,-173"/>
</a>
</g>
</g>
</g>
</svg>
