<?xml version="1.0" encoding="UTF-8" standalone="no"?>
<!DOCTYPE svg PUBLIC "-//W3C//DTD SVG 1.1//EN"
 "http://www.w3.org/Graphics/SVG/1.1/DTD/svg11.dtd">
<!-- Generated by graphviz version 2.43.0 (0)
 -->
<!-- Title: object_add_velocity_offset_y Pages: 1 -->
<svg width="2471pt" height="487pt"
 viewBox="0.00 0.00 2471.00 486.50" xmlns="http://www.w3.org/2000/svg" xmlns:xlink="http://www.w3.org/1999/xlink">
<g id="graph0" class="graph" transform="scale(1 1) rotate(0) translate(4 482.5)">
<title>object_add_velocity_offset_y</title>
<!-- Node1 -->
<g id="Node000001" class="node">
<title>Node1</title>
<g id="a_Node000001"><a xlink:title=" ">
<polygon fill="#999999" stroke="#666666" points="2463,-296.5 2349,-296.5 2349,-266.5 2463,-266.5 2463,-296.5"/>
<text text-anchor="start" x="2357" y="-284.5" font-family="Helvetica,sans-Serif" font-size="10.00">object_add_velocity</text>
<text text-anchor="middle" x="2406" y="-273.5" font-family="Helvetica,sans-Serif" font-size="10.00">_offset_y</text>
</a>
</g>
</g>
<!-- Node2 -->
<g id="Node000002" class="node">
<title>Node2</title>
<g id="a_Node000002"><a xlink:href="classOGrandPrixBalloons.html#ad906339aab46ffa3cf676cbc94ad8855" target="_top" xlink:title=" ">
<polygon fill="white" stroke="#666666" points="2286.5,-478.5 2172.5,-478.5 2172.5,-448.5 2286.5,-448.5 2286.5,-478.5"/>
<text text-anchor="start" x="2180.5" y="-466.5" font-family="Helvetica,sans-Serif" font-size="10.00">OGrandPrixBalloons</text>
<text text-anchor="middle" x="2229.5" y="-455.5" font-family="Helvetica,sans-Serif" font-size="10.00">::func_80074D94</text>
</a>
</g>
</g>
<!-- Node1&#45;&gt;Node2 -->
<g id="edge1_Node000001_Node000002" class="edge">
<title>Node1&#45;&gt;Node2</title>
<g id="a_edge1_Node000001_Node000002"><a xlink:title=" ">
<path fill="none" stroke="#63b8ff" d="M2397.09,-306.56C2384.77,-341.54 2357.65,-404.61 2313,-439.5 2305.24,-445.56 2296,-450.09 2286.56,-453.48"/>
<polygon fill="#63b8ff" stroke="#63b8ff" points="2400.55,-307.27 2400.44,-296.67 2393.92,-305.02 2400.55,-307.27"/>
</a>
</g>
</g>
<!-- Node4 -->
<g id="Node000004" class="node">
<title>Node4</title>
<g id="a_Node000004"><a xlink:href="update__objects_8c.html#a2c0e14b26c2ae4a663564f8f64c4d17a" target="_top" xlink:title=" ">
<polygon fill="white" stroke="#666666" points="2275.5,-430 2183.5,-430 2183.5,-411 2275.5,-411 2275.5,-430"/>
<text text-anchor="middle" x="2229.5" y="-418" font-family="Helvetica,sans-Serif" font-size="10.00">func_80076AEC</text>
</a>
</g>
</g>
<!-- Node1&#45;&gt;Node4 -->
<g id="edge3_Node000001_Node000004" class="edge">
<title>Node1&#45;&gt;Node4</title>
<g id="a_edge3_Node000001_Node000004"><a xlink:title=" ">
<path fill="none" stroke="#63b8ff" d="M2393.39,-305.58C2378.67,-333.43 2350.62,-378.51 2313,-402.5 2301.88,-409.6 2288.38,-413.93 2275.55,-416.56"/>
<polygon fill="#63b8ff" stroke="#63b8ff" points="2396.59,-307.01 2398.03,-296.51 2390.36,-303.82 2396.59,-307.01"/>
</a>
</g>
</g>
<!-- Node7 -->
<g id="Node000007" class="node">
<title>Node7</title>
<g id="a_Node000007"><a xlink:href="update__objects_8c.html#a3be1995862278cf310334b57e7ce3b62" target="_top" xlink:title=" ">
<polygon fill="white" stroke="#666666" points="2275,-393 2184,-393 2184,-374 2275,-374 2275,-393"/>
<text text-anchor="middle" x="2229.5" y="-381" font-family="Helvetica,sans-Serif" font-size="10.00">func_80078288</text>
</a>
</g>
</g>
<!-- Node1&#45;&gt;Node7 -->
<g id="edge6_Node000001_Node000007" class="edge">
<title>Node1&#45;&gt;Node7</title>
<g id="a_edge6_Node000001_Node000007"><a xlink:title=" ">
<path fill="none" stroke="#63b8ff" d="M2386.33,-304.25C2369.25,-323.53 2342.25,-350.37 2313,-365.5 2301.41,-371.49 2287.91,-375.5 2275.22,-378.17"/>
<polygon fill="#63b8ff" stroke="#63b8ff" points="2389.13,-306.37 2393.02,-296.51 2383.83,-301.79 2389.13,-306.37"/>
</a>
</g>
</g>
<!-- Node11 -->
<g id="Node000011" class="node">
<title>Node11</title>
<g id="a_Node000011"><a xlink:href="classOCheepCheep.html#a8b53061efba5deef7c5a4ca7e611fe65" target="_top" xlink:title=" ">
<polygon fill="white" stroke="#666666" points="2313,-356 2146,-356 2146,-337 2313,-337 2313,-356"/>
<text text-anchor="middle" x="2229.5" y="-344" font-family="Helvetica,sans-Serif" font-size="10.00">OCheepCheep::func_8007BFB0</text>
</a>
</g>
</g>
<!-- Node1&#45;&gt;Node11 -->
<g id="edge10_Node000001_Node000011" class="edge">
<title>Node1&#45;&gt;Node11</title>
<g id="a_edge10_Node000001_Node000011"><a xlink:title=" ">
<path fill="none" stroke="#63b8ff" d="M2369.86,-301.53C2353.07,-310.46 2332.43,-320.52 2313,-327.5 2302.76,-331.18 2291.55,-334.32 2280.78,-336.92"/>
<polygon fill="#63b8ff" stroke="#63b8ff" points="2371.64,-304.55 2378.77,-296.71 2368.31,-298.4 2371.64,-304.55"/>
</a>
</g>
</g>
<!-- Node13 -->
<g id="Node000013" class="node">
<title>Node13</title>
<g id="a_Node000013"><a xlink:href="classOHotAirBalloon.html#aa36b4dc68be94cae680263d5d5d1c071" target="_top" xlink:title=" ">
<polygon fill="white" stroke="#666666" points="2289,-318.5 2170,-318.5 2170,-288.5 2289,-288.5 2289,-318.5"/>
<text text-anchor="start" x="2178" y="-306.5" font-family="Helvetica,sans-Serif" font-size="10.00">OHotAirBalloon::func</text>
<text text-anchor="middle" x="2229.5" y="-295.5" font-family="Helvetica,sans-Serif" font-size="10.00">_80085534</text>
</a>
</g>
</g>
<!-- Node1&#45;&gt;Node13 -->
<g id="edge12_Node000001_Node000013" class="edge">
<title>Node1&#45;&gt;Node13</title>
<g id="a_edge12_Node000001_Node000013"><a xlink:title=" ">
<path fill="none" stroke="#63b8ff" d="M2338.84,-289.84C2322.54,-291.9 2305.19,-294.08 2289.27,-296.09"/>
<polygon fill="#63b8ff" stroke="#63b8ff" points="2339.34,-293.31 2348.83,-288.58 2338.47,-286.36 2339.34,-293.31"/>
</a>
</g>
</g>
<!-- Node15 -->
<g id="Node000015" class="node">
<title>Node15</title>
<g id="a_Node000015"><a xlink:href="classOPodium.html#a56ef8afe083b4dacad00075ee493a515" target="_top" xlink:title=" ">
<polygon fill="white" stroke="#666666" points="2300,-270 2159,-270 2159,-251 2300,-251 2300,-270"/>
<text text-anchor="middle" x="2229.5" y="-258" font-family="Helvetica,sans-Serif" font-size="10.00">OPodium::func_80086424</text>
</a>
</g>
</g>
<!-- Node1&#45;&gt;Node15 -->
<g id="edge14_Node000001_Node000015" class="edge">
<title>Node1&#45;&gt;Node15</title>
<g id="a_edge14_Node000001_Node000015"><a xlink:title=" ">
<path fill="none" stroke="#63b8ff" d="M2338.81,-273.53C2326.13,-272.01 2312.81,-270.41 2300.02,-268.87"/>
<polygon fill="#63b8ff" stroke="#63b8ff" points="2338.48,-277.02 2348.83,-274.74 2339.32,-270.07 2338.48,-277.02"/>
</a>
</g>
</g>
<!-- Node17 -->
<g id="Node000017" class="node">
<title>Node17</title>
<g id="a_Node000017"><a xlink:href="classOTrophy.html#a5c03cbdb2860998f8f88aca4dfdd69ba" target="_top" xlink:title=" ">
<polygon fill="white" stroke="#666666" points="2102,-232 1966,-232 1966,-213 2102,-213 2102,-232"/>
<text text-anchor="middle" x="2034" y="-220" font-family="Helvetica,sans-Serif" font-size="10.00">OTrophy::func_80086940</text>
</a>
</g>
</g>
<!-- Node1&#45;&gt;Node17 -->
<g id="edge16_Node000001_Node000017" class="edge">
<title>Node1&#45;&gt;Node17</title>
<g id="a_edge16_Node000001_Node000017"><a xlink:title=" ">
<path fill="none" stroke="#63b8ff" d="M2367.24,-262.17C2350.97,-254.73 2331.47,-246.95 2313,-242.5 2242.44,-225.5 2159.12,-221.56 2102.22,-221.2"/>
<polygon fill="#63b8ff" stroke="#63b8ff" points="2365.88,-265.4 2376.42,-266.49 2368.86,-259.07 2365.88,-265.4"/>
</a>
</g>
</g>
<!-- Node19 -->
<g id="Node000019" class="node">
<title>Node19</title>
<g id="a_Node000019"><a xlink:href="code__80086E70_8c.html#ae0ef8b1b8fb4faf299a6a11421a191fd" target="_top" xlink:title=" ">
<polygon fill="white" stroke="#666666" points="2275.5,-101 2183.5,-101 2183.5,-82 2275.5,-82 2275.5,-101"/>
<text text-anchor="middle" x="2229.5" y="-89" font-family="Helvetica,sans-Serif" font-size="10.00">func_80087B84</text>
</a>
</g>
</g>
<!-- Node1&#45;&gt;Node19 -->
<g id="edge18_Node000001_Node000019" class="edge">
<title>Node1&#45;&gt;Node19</title>
<g id="a_edge18_Node000001_Node000019"><a xlink:title=" ">
<path fill="none" stroke="#63b8ff" d="M2395.48,-256.74C2381.73,-223.82 2353.45,-165.63 2313,-129.5 2298.42,-116.47 2278.61,-107.15 2262.05,-101"/>
<polygon fill="#63b8ff" stroke="#63b8ff" points="2392.27,-258.14 2399.28,-266.09 2398.76,-255.5 2392.27,-258.14"/>
</a>
</g>
</g>
<!-- Node66 -->
<g id="Node000066" class="node">
<title>Node66</title>
<g id="a_Node000066"><a xlink:href="code__80086E70_8c.html#a78aeff54a3f4ebd08b5abf8bb3d66047" target="_top" xlink:title=" ">
<polygon fill="white" stroke="#666666" points="2275.5,-194 2183.5,-194 2183.5,-175 2275.5,-175 2275.5,-194"/>
<text text-anchor="middle" x="2229.5" y="-182" font-family="Helvetica,sans-Serif" font-size="10.00">func_80087C48</text>
</a>
</g>
</g>
<!-- Node1&#45;&gt;Node66 -->
<g id="edge51_Node000001_Node000066" class="edge">
<title>Node1&#45;&gt;Node66</title>
<g id="a_edge51_Node000001_Node000066"><a xlink:title=" ">
<path fill="none" stroke="#63b8ff" d="M2382.22,-259.24C2364.61,-243.12 2338.92,-221.89 2313,-208.5 2301.21,-202.41 2287.64,-197.65 2274.96,-194.03"/>
<polygon fill="#63b8ff" stroke="#63b8ff" points="2380.02,-261.97 2389.72,-266.24 2384.8,-256.86 2380.02,-261.97"/>
</a>
</g>
</g>
<!-- Node70 -->
<g id="Node000070" class="node">
<title>Node70</title>
<g id="a_Node000070"><a xlink:href="code__80086E70_8c.html#ac4c0808f380085196c14ce1a71abb447" target="_top" xlink:title=" ">
<polygon fill="white" stroke="#666666" points="2275.5,-157 2183.5,-157 2183.5,-138 2275.5,-138 2275.5,-157"/>
<text text-anchor="middle" x="2229.5" y="-145" font-family="Helvetica,sans-Serif" font-size="10.00">func_80087D24</text>
</a>
</g>
</g>
<!-- Node1&#45;&gt;Node70 -->
<g id="edge56_Node000001_Node000070" class="edge">
<title>Node1&#45;&gt;Node70</title>
<g id="a_edge56_Node000001_Node000070"><a xlink:title=" ">
<path fill="none" stroke="#63b8ff" d="M2392.36,-257.49C2377.13,-231.01 2349.05,-189.16 2313,-166.5 2301.93,-159.54 2288.58,-155.12 2275.88,-152.32"/>
<polygon fill="#63b8ff" stroke="#63b8ff" points="2389.45,-259.46 2397.37,-266.49 2395.56,-256.05 2389.45,-259.46"/>
</a>
</g>
</g>
<!-- Node3 -->
<g id="Node000003" class="node">
<title>Node3</title>
<g id="a_Node000003"><a xlink:href="classOGrandPrixBalloons.html#a472d8d10b7e437a86b01bfd84857db3c" target="_top" xlink:title=" ">
<polygon fill="white" stroke="#666666" points="2091,-478.5 1977,-478.5 1977,-448.5 2091,-448.5 2091,-478.5"/>
<text text-anchor="start" x="1985" y="-466.5" font-family="Helvetica,sans-Serif" font-size="10.00">OGrandPrixBalloons</text>
<text text-anchor="middle" x="2034" y="-455.5" font-family="Helvetica,sans-Serif" font-size="10.00">::Tick</text>
</a>
</g>
</g>
<!-- Node2&#45;&gt;Node3 -->
<g id="edge2_Node000002_Node000003" class="edge">
<title>Node2&#45;&gt;Node3</title>
<g id="a_edge2_Node000002_Node000003"><a xlink:title=" ">
<path fill="none" stroke="#63b8ff" d="M2162.18,-463.5C2139.02,-463.5 2113.27,-463.5 2091.03,-463.5"/>
<polygon fill="#63b8ff" stroke="#63b8ff" points="2162.27,-467 2172.27,-463.5 2162.27,-460 2162.27,-467"/>
</a>
</g>
</g>
<!-- Node5 -->
<g id="Node000005" class="node">
<title>Node5</title>
<g id="a_Node000005"><a xlink:href="update__objects_8c.html#adb84f91341a8ce4d15d3242630d3e5e2" target="_top" xlink:title=" ">
<polygon fill="white" stroke="#666666" points="2096.5,-430 1971.5,-430 1971.5,-411 2096.5,-411 2096.5,-430"/>
<text text-anchor="middle" x="2034" y="-418" font-family="Helvetica,sans-Serif" font-size="10.00">update_flame_particle</text>
</a>
</g>
</g>
<!-- Node4&#45;&gt;Node5 -->
<g id="edge4_Node000004_Node000005" class="edge">
<title>Node4&#45;&gt;Node5</title>
<g id="a_edge4_Node000004_Node000005"><a xlink:title=" ">
<path fill="none" stroke="#63b8ff" d="M2172.84,-420.5C2148.98,-420.5 2121.03,-420.5 2096.56,-420.5"/>
<polygon fill="#63b8ff" stroke="#63b8ff" points="2173.13,-424 2183.13,-420.5 2173.13,-417 2173.13,-424"/>
</a>
</g>
</g>
<!-- Node6 -->
<g id="Node000006" class="node">
<title>Node6</title>
<g id="a_Node000006"><a xlink:href="classBowsersCastle.html#ad41e25f66713393c3a578d78919de017" target="_top" xlink:title=" ">
<polygon fill="white" stroke="#666666" points="1915.5,-438.5 1775.5,-438.5 1775.5,-408.5 1915.5,-408.5 1915.5,-438.5"/>
<text text-anchor="start" x="1783.5" y="-426.5" font-family="Helvetica,sans-Serif" font-size="10.00">BowsersCastle::TickTrack</text>
<text text-anchor="middle" x="1845.5" y="-415.5" font-family="Helvetica,sans-Serif" font-size="10.00">Objects</text>
</a>
</g>
</g>
<!-- Node5&#45;&gt;Node6 -->
<g id="edge5_Node000005_Node000006" class="edge">
<title>Node5&#45;&gt;Node6</title>
<g id="a_edge5_Node000005_Node000006"><a xlink:title=" ">
<path fill="none" stroke="#63b8ff" d="M1961.23,-421.65C1946.3,-421.89 1930.59,-422.15 1915.76,-422.39"/>
<polygon fill="#63b8ff" stroke="#63b8ff" points="1961.47,-425.15 1971.42,-421.49 1961.36,-418.15 1961.47,-425.15"/>
</a>
</g>
</g>
<!-- Node8 -->
<g id="Node000008" class="node">
<title>Node8</title>
<g id="a_Node000008"><a xlink:href="update__objects_8c.html#ab41f725550186878218b0d8b3b0fa5d4" target="_top" xlink:title=" ">
<polygon fill="white" stroke="#666666" points="2080,-393 1988,-393 1988,-374 2080,-374 2080,-393"/>
<text text-anchor="middle" x="2034" y="-381" font-family="Helvetica,sans-Serif" font-size="10.00">func_800786EC</text>
</a>
</g>
</g>
<!-- Node7&#45;&gt;Node8 -->
<g id="edge7_Node000007_Node000008" class="edge">
<title>Node7&#45;&gt;Node8</title>
<g id="a_edge7_Node000007_Node000008"><a xlink:title=" ">
<path fill="none" stroke="#63b8ff" d="M2173.49,-383.5C2144.02,-383.5 2108.15,-383.5 2080.31,-383.5"/>
<polygon fill="#63b8ff" stroke="#63b8ff" points="2173.62,-387 2183.62,-383.5 2173.62,-380 2173.62,-387"/>
</a>
</g>
</g>
<!-- Node9 -->
<g id="Node000009" class="node">
<title>Node9</title>
<g id="a_Node000009"><a xlink:href="update__objects_8c.html#aa48fd49d06dac7e1948b468b4f260477" target="_top" xlink:title=" ">
<polygon fill="white" stroke="#666666" points="1900.5,-390 1790.5,-390 1790.5,-371 1900.5,-371 1900.5,-390"/>
<text text-anchor="middle" x="1845.5" y="-378" font-family="Helvetica,sans-Serif" font-size="10.00">update_snowflakes</text>
</a>
</g>
</g>
<!-- Node8&#45;&gt;Node9 -->
<g id="edge8_Node000008_Node000009" class="edge">
<title>Node8&#45;&gt;Node9</title>
<g id="a_edge8_Node000008_Node000009"><a xlink:title=" ">
<path fill="none" stroke="#63b8ff" d="M1977.68,-382.61C1953.3,-382.22 1924.75,-381.76 1900.52,-381.37"/>
<polygon fill="#63b8ff" stroke="#63b8ff" points="1977.8,-386.11 1987.85,-382.77 1977.91,-379.11 1977.8,-386.11"/>
</a>
</g>
</g>
<!-- Node10 -->
<g id="Node000010" class="node">
<title>Node10</title>
<g id="a_Node000010"><a xlink:href="classFrappeSnowland.html#a96ecd2e1bd66ff82a6f0684ad88ee1af" target="_top" xlink:title=" ">
<polygon fill="white" stroke="#666666" points="1733,-395.5 1584,-395.5 1584,-365.5 1733,-365.5 1733,-395.5"/>
<text text-anchor="start" x="1592" y="-383.5" font-family="Helvetica,sans-Serif" font-size="10.00">FrappeSnowland::TickTrack</text>
<text text-anchor="middle" x="1658.5" y="-372.5" font-family="Helvetica,sans-Serif" font-size="10.00">Objects</text>
</a>
</g>
</g>
<!-- Node9&#45;&gt;Node10 -->
<g id="edge9_Node000009_Node000010" class="edge">
<title>Node9&#45;&gt;Node10</title>
<g id="a_edge9_Node000009_Node000010"><a xlink:title=" ">
<path fill="none" stroke="#63b8ff" d="M1780.19,-380.5C1765.02,-380.5 1748.72,-380.5 1733.17,-380.5"/>
<polygon fill="#63b8ff" stroke="#63b8ff" points="1780.49,-384 1790.49,-380.5 1780.49,-377 1780.49,-384"/>
</a>
</g>
</g>
<!-- Node12 -->
<g id="Node000012" class="node">
<title>Node12</title>
<g id="a_Node000012"><a xlink:href="classOCheepCheep.html#a688ceaefa53beddd7affd711a416f27e" target="_top" xlink:title=" ">
<polygon fill="white" stroke="#666666" points="2090,-356 1978,-356 1978,-337 2090,-337 2090,-356"/>
<text text-anchor="middle" x="2034" y="-344" font-family="Helvetica,sans-Serif" font-size="10.00">OCheepCheep::Tick</text>
</a>
</g>
</g>
<!-- Node11&#45;&gt;Node12 -->
<g id="edge11_Node000011_Node000012" class="edge">
<title>Node11&#45;&gt;Node12</title>
<g id="a_edge11_Node000011_Node000012"><a xlink:title=" ">
<path fill="none" stroke="#63b8ff" d="M2135.69,-346.5C2120.13,-346.5 2104.44,-346.5 2090.22,-346.5"/>
<polygon fill="#63b8ff" stroke="#63b8ff" points="2135.88,-350 2145.88,-346.5 2135.88,-343 2135.88,-350"/>
</a>
</g>
</g>
<!-- Node14 -->
<g id="Node000014" class="node">
<title>Node14</title>
<g id="a_Node000014"><a xlink:href="classOHotAirBalloon.html#a59cdcf707eed92e7a9f72626d093fc23" target="_top" xlink:title=" ">
<polygon fill="white" stroke="#666666" points="2093,-313 1975,-313 1975,-294 2093,-294 2093,-313"/>
<text text-anchor="middle" x="2034" y="-301" font-family="Helvetica,sans-Serif" font-size="10.00">OHotAirBalloon::Tick</text>
</a>
</g>
</g>
<!-- Node13&#45;&gt;Node14 -->
<g id="edge13_Node000013_Node000014" class="edge">
<title>Node13&#45;&gt;Node14</title>
<g id="a_edge13_Node000013_Node000014"><a xlink:title=" ">
<path fill="none" stroke="#63b8ff" d="M2159.73,-303.5C2137.92,-303.5 2114.03,-303.5 2093.05,-303.5"/>
<polygon fill="#63b8ff" stroke="#63b8ff" points="2159.92,-307 2169.92,-303.5 2159.92,-300 2159.92,-307"/>
</a>
</g>
</g>
<!-- Node16 -->
<g id="Node000016" class="node">
<title>Node16</title>
<g id="a_Node000016"><a xlink:href="classOPodium.html#ae915f9876c29c308285ad3ed3202ec93" target="_top" xlink:title=" ">
<polygon fill="white" stroke="#666666" points="2077.5,-270 1990.5,-270 1990.5,-251 2077.5,-251 2077.5,-270"/>
<text text-anchor="middle" x="2034" y="-258" font-family="Helvetica,sans-Serif" font-size="10.00">OPodium::Tick</text>
</a>
</g>
</g>
<!-- Node15&#45;&gt;Node16 -->
<g id="edge15_Node000015_Node000016" class="edge">
<title>Node15&#45;&gt;Node16</title>
<g id="a_edge15_Node000015_Node000016"><a xlink:title=" ">
<path fill="none" stroke="#63b8ff" d="M2148.59,-260.5C2124.24,-260.5 2098.43,-260.5 2077.57,-260.5"/>
<polygon fill="#63b8ff" stroke="#63b8ff" points="2148.92,-264 2158.92,-260.5 2148.92,-257 2148.92,-264"/>
</a>
</g>
</g>
<!-- Node18 -->
<g id="Node000018" class="node">
<title>Node18</title>
<g id="a_Node000018"><a xlink:href="classOTrophy.html#a907d7e4c1695e4764fc2e299a10cc782" target="_top" xlink:title=" ">
<polygon fill="white" stroke="#666666" points="1886.5,-232 1804.5,-232 1804.5,-213 1886.5,-213 1886.5,-232"/>
<text text-anchor="middle" x="1845.5" y="-220" font-family="Helvetica,sans-Serif" font-size="10.00">OTrophy::Tick</text>
</a>
</g>
</g>
<!-- Node17&#45;&gt;Node18 -->
<g id="edge17_Node000017_Node000018" class="edge">
<title>Node17&#45;&gt;Node18</title>
<g id="a_edge17_Node000017_Node000018"><a xlink:title=" ">
<path fill="none" stroke="#63b8ff" d="M1955.86,-222.5C1932.11,-222.5 1906.92,-222.5 1886.71,-222.5"/>
<polygon fill="#63b8ff" stroke="#63b8ff" points="1955.93,-226 1965.93,-222.5 1955.93,-219 1955.93,-226"/>
</a>
</g>
</g>
<!-- Node20 -->
<g id="Node000020" class="node">
<title>Node20</title>
<g id="a_Node000020"><a xlink:href="update__objects_8c.html#ac1cfaf791e38d2d69655cfdcb24ef537" target="_top" xlink:title=" ">
<polygon fill="white" stroke="#666666" points="2080.5,-82 1987.5,-82 1987.5,-63 2080.5,-63 2080.5,-82"/>
<text text-anchor="middle" x="2034" y="-70" font-family="Helvetica,sans-Serif" font-size="10.00">func_80077BCC</text>
</a>
</g>
</g>
<!-- Node19&#45;&gt;Node20 -->
<g id="edge19_Node000019_Node000020" class="edge">
<title>Node19&#45;&gt;Node20</title>
<g id="a_edge19_Node000019_Node000020"><a xlink:title=" ">
<path fill="none" stroke="#63b8ff" d="M2173.07,-86.06C2143.84,-83.19 2108.41,-79.71 2080.75,-76.99"/>
<polygon fill="#63b8ff" stroke="#63b8ff" points="2172.84,-89.55 2183.13,-87.05 2173.52,-82.58 2172.84,-89.55"/>
</a>
</g>
</g>
<!-- Node21 -->
<g id="Node000021" class="node">
<title>Node21</title>
<g id="a_Node000021"><a xlink:href="update__objects_8c.html#aae52c57b6e3dba06e478c46c9d373689" target="_top" xlink:title=" ">
<polygon fill="white" stroke="#666666" points="1882.5,-82 1808.5,-82 1808.5,-63 1882.5,-63 1882.5,-82"/>
<text text-anchor="middle" x="1845.5" y="-70" font-family="Helvetica,sans-Serif" font-size="10.00">update_leaf</text>
</a>
</g>
</g>
<!-- Node20&#45;&gt;Node21 -->
<g id="edge20_Node000020_Node000021" class="edge">
<title>Node20&#45;&gt;Node21</title>
<g id="a_edge20_Node000020_Node000021"><a xlink:title=" ">
<path fill="none" stroke="#63b8ff" d="M1977.26,-72.5C1946.61,-72.5 1909.47,-72.5 1882.62,-72.5"/>
<polygon fill="#63b8ff" stroke="#63b8ff" points="1977.38,-76 1987.38,-72.5 1977.38,-69 1977.38,-76"/>
</a>
</g>
</g>
<!-- Node22 -->
<g id="Node000022" class="node">
<title>Node22</title>
<g id="a_Node000022"><a xlink:href="code__80057C60_8c.html#a47dd2884e5a0c8902fd6ee5804e52bf9" target="_top" xlink:title=" ">
<polygon fill="white" stroke="#666666" points="1696,-82 1621,-82 1621,-63 1696,-63 1696,-82"/>
<text text-anchor="middle" x="1658.5" y="-70" font-family="Helvetica,sans-Serif" font-size="10.00">tick_objects</text>
</a>
</g>
</g>
<!-- Node21&#45;&gt;Node22 -->
<g id="edge21_Node000021_Node000022" class="edge">
<title>Node21&#45;&gt;Node22</title>
<g id="a_edge21_Node000021_Node000022"><a xlink:title=" ">
<path fill="none" stroke="#63b8ff" d="M1798.09,-72.5C1766.55,-72.5 1725.4,-72.5 1696.15,-72.5"/>
<polygon fill="#63b8ff" stroke="#63b8ff" points="1798.39,-76 1808.39,-72.5 1798.39,-69 1798.39,-76"/>
</a>
</g>
</g>
<!-- Node23 -->
<g id="Node000023" class="node">
<title>Node23</title>
<g id="a_Node000023"><a xlink:href="code__80057C60_8c.html#a48f7fc1ba7acccec2d7b6e0a59f65dc5" target="_top" xlink:title=" ">
<polygon fill="white" stroke="#666666" points="1548,-119 1456,-119 1456,-100 1548,-100 1548,-119"/>
<text text-anchor="middle" x="1502" y="-107" font-family="Helvetica,sans-Serif" font-size="10.00">func_80059D00</text>
</a>
</g>
</g>
<!-- Node22&#45;&gt;Node23 -->
<g id="edge22_Node000022_Node000023" class="edge">
<title>Node22&#45;&gt;Node23</title>
<g id="a_edge22_Node000022_Node000023"><a xlink:title=" ">
<path fill="none" stroke="#63b8ff" d="M1610.9,-83.66C1589.21,-88.86 1563.66,-94.97 1542.87,-99.95"/>
<polygon fill="#63b8ff" stroke="#63b8ff" points="1611.98,-87 1620.89,-81.27 1610.35,-80.19 1611.98,-87"/>
</a>
</g>
</g>
<!-- Node24 -->
<g id="Node000024" class="node">
<title>Node24</title>
<g id="a_Node000024"><a xlink:href="code__80057C60_8c.html#a86b7dba9c0715c4d7fdf8ce61c0738bc" target="_top" xlink:title=" ">
<polygon fill="white" stroke="#666666" points="1420,-119 1328,-119 1328,-100 1420,-100 1420,-119"/>
<text text-anchor="middle" x="1374" y="-107" font-family="Helvetica,sans-Serif" font-size="10.00">func_8005A070</text>
</a>
</g>
</g>
<!-- Node23&#45;&gt;Node24 -->
<g id="edge23_Node000023_Node000024" class="edge">
<title>Node23&#45;&gt;Node24</title>
<g id="a_edge23_Node000023_Node000024"><a xlink:title=" ">
<path fill="none" stroke="#63b8ff" d="M1445.65,-109.5C1437.16,-109.5 1428.48,-109.5 1420.24,-109.5"/>
<polygon fill="#63b8ff" stroke="#63b8ff" points="1445.87,-113 1455.87,-109.5 1445.87,-106 1445.87,-113"/>
</a>
</g>
</g>
<!-- Node25 -->
<g id="Node000025" class="node">
<title>Node25</title>
<g id="a_Node000025"><a xlink:href="code__80280000_8c.html#a4d9b0156b64d7a67e4cb21cde391ca43" target="_top" xlink:title=" ">
<polygon fill="white" stroke="#666666" points="1291.5,-157 1200.5,-157 1200.5,-138 1291.5,-138 1291.5,-157"/>
<text text-anchor="middle" x="1246" y="-145" font-family="Helvetica,sans-Serif" font-size="10.00">func_80280000</text>
</a>
</g>
</g>
<!-- Node24&#45;&gt;Node25 -->
<g id="edge24_Node000024_Node000025" class="edge">
<title>Node24&#45;&gt;Node25</title>
<g id="a_edge24_Node000024_Node000025"><a xlink:title=" ">
<path fill="none" stroke="#63b8ff" d="M1331.44,-122.04C1314.29,-127.2 1294.75,-133.1 1278.78,-137.91"/>
<polygon fill="#63b8ff" stroke="#63b8ff" points="1332.64,-125.33 1341.2,-119.09 1330.62,-118.63 1332.64,-125.33"/>
</a>
</g>
</g>
<!-- Node52 -->
<g id="Node000052" class="node">
<title>Node52</title>
<g id="a_Node000052"><a xlink:href="podium__ceremony__actors_8c.html#a7ea229c65f264670fc828b95e8321154" target="_top" xlink:title=" ">
<polygon fill="white" stroke="#666666" points="1164,-119 1030,-119 1030,-100 1164,-100 1164,-119"/>
<text text-anchor="middle" x="1097" y="-107" font-family="Helvetica,sans-Serif" font-size="10.00">podium_ceremony_loop</text>
</a>
</g>
</g>
<!-- Node24&#45;&gt;Node52 -->
<g id="edge47_Node000024_Node000052" class="edge">
<title>Node24&#45;&gt;Node52</title>
<g id="a_edge47_Node000024_Node000052"><a xlink:title=" ">
<path fill="none" stroke="#63b8ff" d="M1317.89,-109.5C1273.59,-109.5 1211.22,-109.5 1164.22,-109.5"/>
<polygon fill="#63b8ff" stroke="#63b8ff" points="1317.9,-113 1327.9,-109.5 1317.9,-106 1317.9,-113"/>
</a>
</g>
</g>
<!-- Node56 -->
<g id="Node000056" class="node">
<title>Node56</title>
<g id="a_Node000056"><a xlink:href="main_8c.html#afff87ffcbfee4f1f37d443110aa7b52a" target="_top" xlink:title=" ">
<polygon fill="white" stroke="#666666" points="1292,-81 1200,-81 1200,-62 1292,-62 1292,-81"/>
<text text-anchor="middle" x="1246" y="-69" font-family="Helvetica,sans-Serif" font-size="10.00">race_logic_loop</text>
</a>
</g>
</g>
<!-- Node24&#45;&gt;Node56 -->
<g id="edge49_Node000024_Node000056" class="edge">
<title>Node24&#45;&gt;Node56</title>
<g id="a_edge49_Node000024_Node000056"><a xlink:title=" ">
<path fill="none" stroke="#63b8ff" d="M1331.44,-96.96C1314.29,-91.8 1294.75,-85.9 1278.78,-81.09"/>
<polygon fill="#63b8ff" stroke="#63b8ff" points="1330.62,-100.37 1341.2,-99.91 1332.64,-93.67 1330.62,-100.37"/>
</a>
</g>
</g>
<!-- Node26 -->
<g id="Node000026" class="node">
<title>Node26</title>
<g id="a_Node000026"><a xlink:href="code__80280000_8c.html#aa28a69be4eda3b8667366c6c7b556024" target="_top" xlink:title=" ">
<polygon fill="white" stroke="#666666" points="1135,-156 1059,-156 1059,-137 1135,-137 1135,-156"/>
<text text-anchor="middle" x="1097" y="-144" font-family="Helvetica,sans-Serif" font-size="10.00">credits_loop</text>
</a>
</g>
</g>
<!-- Node25&#45;&gt;Node26 -->
<g id="edge25_Node000025_Node000026" class="edge">
<title>Node25&#45;&gt;Node26</title>
<g id="a_edge25_Node000025_Node000026"><a xlink:title=" ">
<path fill="none" stroke="#63b8ff" d="M1190.26,-147.13C1171.99,-147 1152.06,-146.87 1135.42,-146.75"/>
<polygon fill="#63b8ff" stroke="#63b8ff" points="1190.47,-150.63 1200.5,-147.2 1190.52,-143.63 1190.47,-150.63"/>
</a>
</g>
</g>
<!-- Node27 -->
<g id="Node000027" class="node">
<title>Node27</title>
<g id="a_Node000027"><a xlink:href="main_8c.html#ae04143ce8113cdafa007c642eb620bc8" target="_top" xlink:title=" ">
<polygon fill="white" stroke="#666666" points="994,-119 878,-119 878,-100 994,-100 994,-119"/>
<text text-anchor="middle" x="936" y="-107" font-family="Helvetica,sans-Serif" font-size="10.00">game_state_handler</text>
</a>
</g>
</g>
<!-- Node26&#45;&gt;Node27 -->
<g id="edge26_Node000026_Node000027" class="edge">
<title>Node26&#45;&gt;Node27</title>
<g id="a_edge26_Node000026_Node000027"><a xlink:title=" ">
<path fill="none" stroke="#63b8ff" d="M1048.71,-135.5C1026.21,-130.26 999.57,-124.06 977.95,-119.03"/>
<polygon fill="#63b8ff" stroke="#63b8ff" points="1048.19,-138.97 1058.72,-137.83 1049.78,-132.15 1048.19,-138.97"/>
</a>
</g>
</g>
<!-- Node28 -->
<g id="Node000028" class="node">
<title>Node28</title>
<g id="a_Node000028"><a xlink:href="main_8c.html#a2bd6afc4241736db360297b364c27b84" target="_top" xlink:title=" ">
<polygon fill="white" stroke="#666666" points="842,-119 741,-119 741,-100 842,-100 842,-119"/>
<text text-anchor="middle" x="791.5" y="-107" font-family="Helvetica,sans-Serif" font-size="10.00">thread5_iteration</text>
</a>
</g>
</g>
<!-- Node27&#45;&gt;Node28 -->
<g id="edge27_Node000027_Node000028" class="edge">
<title>Node27&#45;&gt;Node28</title>
<g id="a_edge27_Node000027_Node000028"><a xlink:title=" ">
<path fill="none" stroke="#63b8ff" d="M867.83,-109.5C859.23,-109.5 850.56,-109.5 842.3,-109.5"/>
<polygon fill="#63b8ff" stroke="#63b8ff" points="867.86,-113 877.86,-109.5 867.86,-106 867.86,-113"/>
</a>
</g>
</g>
<!-- Node29 -->
<g id="Node000029" class="node">
<title>Node29</title>
<g id="a_Node000029"><a xlink:href="Game_8cpp.html#a7e10f41e410b6fdab17e0388f164f61d" target="_top" xlink:title=" ">
<polygon fill="white" stroke="#666666" points="705,-119 631,-119 631,-100 705,-100 705,-119"/>
<text text-anchor="middle" x="668" y="-107" font-family="Helvetica,sans-Serif" font-size="10.00">push_frame</text>
</a>
</g>
</g>
<!-- Node28&#45;&gt;Node29 -->
<g id="edge28_Node000028_Node000029" class="edge">
<title>Node28&#45;&gt;Node29</title>
<g id="a_edge28_Node000028_Node000029"><a xlink:title=" ">
<path fill="none" stroke="#63b8ff" d="M730.57,-109.5C721.87,-109.5 713.15,-109.5 705.12,-109.5"/>
<polygon fill="#63b8ff" stroke="#63b8ff" points="730.73,-113 740.73,-109.5 730.73,-106 730.73,-113"/>
</a>
</g>
</g>
<!-- Node30 -->
<g id="Node000030" class="node">
<title>Node30</title>
<g id="a_Node000030"><a xlink:href="Game_8cpp.html#a0ddf1224851353fc92bfbff6f499fa97" target="_top" xlink:title=" ">
<polygon fill="white" stroke="#666666" points="595,-119 554,-119 554,-100 595,-100 595,-119"/>
<text text-anchor="middle" x="574.5" y="-107" font-family="Helvetica,sans-Serif" font-size="10.00">main</text>
</a>
</g>
</g>
<!-- Node29&#45;&gt;Node30 -->
<g id="edge29_Node000029_Node000030" class="edge">
<title>Node29&#45;&gt;Node30</title>
<g id="a_edge29_Node000029_Node000030"><a xlink:title=" ">
<path fill="none" stroke="#63b8ff" d="M620.7,-109.5C611.67,-109.5 602.66,-109.5 595.09,-109.5"/>
<polygon fill="#63b8ff" stroke="#63b8ff" points="620.84,-113 630.84,-109.5 620.84,-106 620.84,-113"/>
</a>
</g>
</g>
<!-- Node31 -->
<g id="Node000031" class="node">
<title>Node31</title>
<g id="a_Node000031"><a xlink:href="save_8c.html#a8b3c5dc6e9f3ab9c0ffa00692ec877f8" target="_top" xlink:title=" ">
<polygon fill="white" stroke="#666666" points="315,-105.5 148,-105.5 148,-75.5 315,-75.5 315,-105.5"/>
<text text-anchor="start" x="156" y="-93.5" font-family="Helvetica,sans-Serif" font-size="10.00">reset_save_data_grand</text>
<text text-anchor="middle" x="231.5" y="-82.5" font-family="Helvetica,sans-Serif" font-size="10.00">_prix_points_and_sound_mode</text>
</a>
</g>
</g>
<!-- Node30&#45;&gt;Node31 -->
<g id="edge30_Node000030_Node000031" class="edge">
<title>Node30&#45;&gt;Node31</title>
<g id="a_edge30_Node000030_Node000031"><a xlink:title=" ">
<path fill="none" stroke="#63b8ff" d="M543.45,-107.83C492.88,-105.01 389.06,-99.22 315.31,-95.11"/>
<polygon fill="#63b8ff" stroke="#63b8ff" points="543.51,-111.33 553.69,-108.4 543.9,-104.35 543.51,-111.33"/>
</a>
</g>
</g>
<!-- Node36 -->
<g id="Node000036" class="node">
<title>Node36</title>
<g id="a_Node000036"><a xlink:href="save_8c.html#a8dc090a6f3860eb91143ff48d44df6b5" target="_top" xlink:title=" ">
<polygon fill="#fff0f0" stroke="red" points="112,-19 0,-19 0,0 112,0 112,-19"/>
<text text-anchor="middle" x="56" y="-7" font-family="Helvetica,sans-Serif" font-size="10.00">validate_save_data</text>
</a>
</g>
</g>
<!-- Node30&#45;&gt;Node36 -->
<g id="edge41_Node000030_Node000036" class="edge">
<title>Node30&#45;&gt;Node36</title>
<g id="a_edge41_Node000030_Node000036"><a xlink:title=" ">
<path fill="none" stroke="#63b8ff" d="M545.96,-95.3C499.71,-72.34 402.87,-27.95 315,-11.5 245.99,1.42 164.76,-0.73 112.15,-4.34"/>
<polygon fill="#63b8ff" stroke="#63b8ff" points="544.53,-98.5 555.04,-99.86 547.67,-92.25 544.53,-98.5"/>
</a>
</g>
</g>
<!-- Node44 -->
<g id="Node000044" class="node">
<title>Node44</title>
<g id="a_Node000044"><a xlink:href="save_8c.html#a26ad085353b2bc1d1f8b1644bebf0e04" target="_top" xlink:title=" ">
<polygon fill="#fff0f0" stroke="red" points="507.5,-138 361.5,-138 361.5,-119 507.5,-119 507.5,-138"/>
<text text-anchor="middle" x="434.5" y="-126" font-family="Helvetica,sans-Serif" font-size="10.00">update_save_data_backup</text>
</a>
</g>
</g>
<!-- Node30&#45;&gt;Node44 -->
<g id="edge34_Node000030_Node000044" class="edge">
<title>Node30&#45;&gt;Node44</title>
<g id="a_edge34_Node000030_Node000044"><a xlink:title=" ">
<path fill="none" stroke="#63b8ff" d="M543.81,-113.59C532.28,-115.18 518.54,-117.07 504.78,-118.96"/>
<polygon fill="#63b8ff" stroke="#63b8ff" points="544.3,-117.05 553.73,-112.22 543.34,-110.12 544.3,-117.05"/>
</a>
</g>
</g>
<!-- Node65 -->
<g id="Node000065" class="node">
<title>Node65</title>
<g id="a_Node000065"><a xlink:href="save_8c.html#a2afb543114bf6836bf722730aed3fbc0" target="_top" xlink:title=" ">
<polygon fill="#fff0f0" stroke="red" points="518,-186.5 351,-186.5 351,-156.5 518,-156.5 518,-186.5"/>
<text text-anchor="start" x="359" y="-174.5" font-family="Helvetica,sans-Serif" font-size="10.00">write_save_data_grand</text>
<text text-anchor="middle" x="434.5" y="-163.5" font-family="Helvetica,sans-Serif" font-size="10.00">_prix_points_and_sound_mode</text>
</a>
</g>
</g>
<!-- Node30&#45;&gt;Node65 -->
<g id="edge42_Node000030_Node000065" class="edge">
<title>Node30&#45;&gt;Node65</title>
<g id="a_edge42_Node000030_Node000065"><a xlink:title=" ">
<path fill="none" stroke="#63b8ff" d="M553.65,-125.38C543.46,-132.91 530.57,-141.55 518,-147.5 510.99,-150.82 503.42,-153.78 495.81,-156.39"/>
<polygon fill="#63b8ff" stroke="#63b8ff" points="556.01,-127.98 561.83,-119.13 551.76,-122.42 556.01,-127.98"/>
</a>
</g>
</g>
<!-- Node32 -->
<g id="Node000032" class="node">
<title>Node32</title>
<g id="a_Node000032"><a xlink:href="save_8c.html#ad7bf4d9f76b7d03f66d2a24ea7fac08c" target="_top" xlink:title=" ">
<polygon fill="#fff0f0" stroke="red" points="102.5,-78 9.5,-78 9.5,-59 102.5,-59 102.5,-78"/>
<text text-anchor="middle" x="56" y="-66" font-family="Helvetica,sans-Serif" font-size="10.00">func_800B46D0</text>
</a>
</g>
</g>
<!-- Node31&#45;&gt;Node32 -->
<g id="edge31_Node000031_Node000032" class="edge">
<title>Node31&#45;&gt;Node32</title>
<g id="a_edge31_Node000031_Node000032"><a xlink:title=" ">
<path fill="none" stroke="#63b8ff" d="M137.62,-78.72C125.49,-77.19 113.53,-75.67 102.68,-74.29"/>
<polygon fill="#63b8ff" stroke="#63b8ff" points="137.45,-82.23 147.82,-80.02 138.33,-75.29 137.45,-82.23"/>
</a>
</g>
</g>
<!-- Node35 -->
<g id="Node000035" class="node">
<title>Node35</title>
<g id="a_Node000035"><a xlink:href="menus_8c.html#a90ecae1a8b3caa74de9edb245b43e56a" target="_top" xlink:title=" ">
<polygon fill="#fff0f0" stroke="red" points="106.5,-180 5.5,-180 5.5,-161 106.5,-161 106.5,-180"/>
<text text-anchor="middle" x="56" y="-168" font-family="Helvetica,sans-Serif" font-size="10.00">splash_menu_act</text>
</a>
</g>
</g>
<!-- Node31&#45;&gt;Node35 -->
<g id="edge32_Node000031_Node000035" class="edge">
<title>Node31&#45;&gt;Node35</title>
<g id="a_edge32_Node000031_Node000035"><a xlink:title=" ">
<path fill="none" stroke="#63b8ff" d="M173.84,-108.96C165.09,-112.22 156.23,-115.78 148,-119.5 120.44,-131.95 90.11,-149.86 72.36,-160.81"/>
<polygon fill="#63b8ff" stroke="#63b8ff" points="175.06,-112.24 183.26,-105.53 172.67,-105.66 175.06,-112.24"/>
</a>
</g>
</g>
<!-- Node31&#45;&gt;Node36 -->
<g id="edge33_Node000031_Node000036" class="edge">
<title>Node31&#45;&gt;Node36</title>
<g id="a_edge33_Node000031_Node000036"><a xlink:title=" ">
<path fill="none" stroke="#63b8ff" d="M189.21,-71.22C154.06,-54.81 105.03,-31.93 77.63,-19.13"/>
<polygon fill="#63b8ff" stroke="#63b8ff" points="187.73,-74.4 198.27,-75.45 190.69,-68.05 187.73,-74.4"/>
</a>
</g>
</g>
<!-- Node44&#45;&gt;Node32 -->
<g id="edge35_Node000044_Node000032" class="edge">
<title>Node44&#45;&gt;Node32</title>
<g id="a_edge35_Node000044_Node000032"><a xlink:title=" ">
<path fill="none" stroke="#63b8ff" d="M411.96,-113.11C389.15,-97.84 351.46,-75.46 315,-66.5 242.36,-48.64 154.7,-54.94 102.53,-61.47"/>
<polygon fill="#63b8ff" stroke="#63b8ff" points="410.27,-116.2 420.5,-118.97 414.23,-110.43 410.27,-116.2"/>
</a>
</g>
</g>
<!-- Node44&#45;&gt;Node35 -->
<g id="edge39_Node000044_Node000035" class="edge">
<title>Node44&#45;&gt;Node35</title>
<g id="a_edge39_Node000044_Node000035"><a xlink:title=" ">
<path fill="none" stroke="#63b8ff" d="M351.35,-133.57C294.17,-137.61 216.24,-144.16 148,-153.5 133.35,-155.5 117.48,-158.26 103.15,-160.98"/>
<polygon fill="#63b8ff" stroke="#63b8ff" points="351.68,-137.05 361.42,-132.86 351.2,-130.07 351.68,-137.05"/>
</a>
</g>
</g>
<!-- Node44&#45;&gt;Node36 -->
<g id="edge40_Node000044_Node000036" class="edge">
<title>Node44&#45;&gt;Node36</title>
<g id="a_edge40_Node000044_Node000036"><a xlink:title=" ">
<path fill="none" stroke="#63b8ff" d="M414.29,-112.36C391.93,-94.49 353.18,-66.26 315,-51.5 248.12,-25.65 165.52,-15.71 112.08,-11.89"/>
<polygon fill="#63b8ff" stroke="#63b8ff" points="412.32,-115.27 422.29,-118.87 416.74,-109.84 412.32,-115.27"/>
</a>
</g>
</g>
<!-- Node45 -->
<g id="Node000045" class="node">
<title>Node45</title>
<g id="a_Node000045"><a xlink:href="save_8c.html#ac9214aa43d8a7ceae94ad87ace54100c" target="_top" xlink:title=" ">
<polygon fill="#fff0f0" stroke="red" points="277.5,-181 185.5,-181 185.5,-162 277.5,-162 277.5,-181"/>
<text text-anchor="middle" x="231.5" y="-169" font-family="Helvetica,sans-Serif" font-size="10.00">func_800B536C</text>
</a>
</g>
</g>
<!-- Node44&#45;&gt;Node45 -->
<g id="edge36_Node000044_Node000045" class="edge">
<title>Node44&#45;&gt;Node45</title>
<g id="a_edge36_Node000044_Node000045"><a xlink:title=" ">
<path fill="none" stroke="#63b8ff" d="M378.81,-140.2C346.85,-147.04 307.01,-155.56 276.98,-161.98"/>
<polygon fill="#63b8ff" stroke="#63b8ff" points="379.85,-143.56 388.89,-138.04 378.38,-136.71 379.85,-143.56"/>
</a>
</g>
</g>
<!-- Node64 -->
<g id="Node000064" class="node">
<title>Node64</title>
<g id="a_Node000064"><a xlink:href="save_8c.html#a0a39714120c509859f34268a5d39f2a9" target="_top" xlink:title=" ">
<polygon fill="white" stroke="#666666" points="277.5,-218 185.5,-218 185.5,-199 277.5,-199 277.5,-218"/>
<text text-anchor="middle" x="231.5" y="-206" font-family="Helvetica,sans-Serif" font-size="10.00">func_800B5404</text>
</a>
</g>
</g>
<!-- Node44&#45;&gt;Node64 -->
<g id="edge37_Node000044_Node000064" class="edge">
<title>Node44&#45;&gt;Node64</title>
<g id="a_edge37_Node000044_Node000064"><a xlink:title=" ">
<path fill="none" stroke="#63b8ff" d="M362.38,-141.62C358.42,-143.35 354.59,-145.3 351,-147.5 329.75,-160.53 336.32,-177.59 315,-190.5 303.84,-197.26 290.47,-201.49 277.77,-204.14"/>
<polygon fill="#63b8ff" stroke="#63b8ff" points="363.73,-144.85 371.81,-138 361.22,-138.32 363.73,-144.85"/>
</a>
</g>
</g>
<!-- Node64&#45;&gt;Node35 -->
<g id="edge38_Node000064_Node000035" class="edge">
<title>Node64&#45;&gt;Node35</title>
<g id="a_edge38_Node000064_Node000035"><a xlink:title=" ">
<path fill="none" stroke="#63b8ff" d="M176.94,-196.83C167.3,-194.72 157.35,-192.55 148,-190.5 132.51,-187.11 115.55,-183.38 100.51,-180.08"/>
<polygon fill="#63b8ff" stroke="#63b8ff" points="176.31,-200.27 186.83,-198.98 177.8,-193.43 176.31,-200.27"/>
</a>
</g>
</g>
<!-- Node65&#45;&gt;Node31 -->
<g id="edge45_Node000065_Node000031" class="edge">
<title>Node65&#45;&gt;Node31</title>
<g id="a_edge45_Node000065_Node000031"><a xlink:title=" ">
<path fill="none" stroke="#63b8ff" d="M367.62,-153.4C361.96,-151.53 356.35,-149.55 351,-147.5 319.23,-135.34 284.3,-118.02 260.65,-105.67"/>
<polygon fill="#63b8ff" stroke="#63b8ff" points="366.58,-156.74 377.17,-156.47 368.72,-150.08 366.58,-156.74"/>
</a>
</g>
</g>
<!-- Node65&#45;&gt;Node35 -->
<g id="edge46_Node000065_Node000035" class="edge">
<title>Node65&#45;&gt;Node35</title>
<g id="a_edge46_Node000065_Node000035"><a xlink:title=" ">
<path fill="none" stroke="#63b8ff" d="M401.01,-191.67C377.96,-204.75 345.77,-220.59 315,-227.5 242.58,-243.75 219.34,-248 148,-227.5 115.75,-218.23 83.86,-193.82 67.77,-180.14"/>
<polygon fill="#63b8ff" stroke="#63b8ff" points="402.79,-194.69 409.68,-186.64 399.27,-188.63 402.79,-194.69"/>
</a>
</g>
</g>
<!-- Node65&#45;&gt;Node45 -->
<g id="edge43_Node000065_Node000045" class="edge">
<title>Node65&#45;&gt;Node45</title>
<g id="a_edge43_Node000065_Node000045"><a xlink:title=" ">
<path fill="none" stroke="#63b8ff" d="M340.84,-171.5C318.9,-171.5 296.46,-171.5 277.73,-171.5"/>
<polygon fill="#63b8ff" stroke="#63b8ff" points="340.88,-175 350.88,-171.5 340.88,-168 340.88,-175"/>
</a>
</g>
</g>
<!-- Node65&#45;&gt;Node64 -->
<g id="edge44_Node000065_Node000064" class="edge">
<title>Node65&#45;&gt;Node64</title>
<g id="a_edge44_Node000065_Node000064"><a xlink:title=" ">
<path fill="none" stroke="#63b8ff" d="M341.88,-188.36C319.55,-192.48 296.63,-196.69 277.58,-200.2"/>
<polygon fill="#63b8ff" stroke="#63b8ff" points="342.54,-191.8 351.75,-186.55 341.28,-184.92 342.54,-191.8"/>
</a>
</g>
</g>
<!-- Node52&#45;&gt;Node27 -->
<g id="edge48_Node000052_Node000027" class="edge">
<title>Node52&#45;&gt;Node27</title>
<g id="a_edge48_Node000052_Node000027"><a xlink:title=" ">
<path fill="none" stroke="#63b8ff" d="M1019.87,-109.5C1011.24,-109.5 1002.56,-109.5 994.24,-109.5"/>
<polygon fill="#63b8ff" stroke="#63b8ff" points="1019.95,-113 1029.95,-109.5 1019.95,-106 1019.95,-113"/>
</a>
</g>
</g>
<!-- Node56&#45;&gt;Node27 -->
<g id="edge50_Node000056_Node000027" class="edge">
<title>Node56&#45;&gt;Node27</title>
<g id="a_edge50_Node000056_Node000027"><a xlink:title=" ">
<path fill="none" stroke="#63b8ff" d="M1189.84,-74.65C1146.29,-77.55 1084.07,-82.61 1030,-90.5 1013.04,-92.97 994.51,-96.57 978.49,-99.98"/>
<polygon fill="#63b8ff" stroke="#63b8ff" points="1190.19,-78.13 1199.94,-73.99 1189.74,-71.15 1190.19,-78.13"/>
</a>
</g>
</g>
<!-- Node66&#45;&gt;Node17 -->
<g id="edge55_Node000066_Node000017" class="edge">
<title>Node66&#45;&gt;Node17</title>
<g id="a_edge55_Node000066_Node000017"><a xlink:title=" ">
<path fill="none" stroke="#63b8ff" d="M2173,-195.4C2144.73,-200.95 2110.67,-207.64 2083.47,-212.98"/>
<polygon fill="#63b8ff" stroke="#63b8ff" points="2173.99,-198.77 2183.13,-193.41 2172.65,-191.9 2173.99,-198.77"/>
</a>
</g>
</g>
<!-- Node67 -->
<g id="Node000067" class="node">
<title>Node67</title>
<g id="a_Node000067"><a xlink:href="classOSnowman.html#a1d589cb7de864ebc8942ea1bc10d155a" target="_top" xlink:title=" ">
<polygon fill="white" stroke="#666666" points="2110,-194 1958,-194 1958,-175 2110,-175 2110,-194"/>
<text text-anchor="middle" x="2034" y="-182" font-family="Helvetica,sans-Serif" font-size="10.00">OSnowman::func_80083948</text>
</a>
</g>
</g>
<!-- Node66&#45;&gt;Node67 -->
<g id="edge52_Node000066_Node000067" class="edge">
<title>Node66&#45;&gt;Node67</title>
<g id="a_edge52_Node000066_Node000067"><a xlink:title=" ">
<path fill="none" stroke="#63b8ff" d="M2172.92,-184.5C2153.43,-184.5 2131.2,-184.5 2110.37,-184.5"/>
<polygon fill="#63b8ff" stroke="#63b8ff" points="2173.13,-188 2183.13,-184.5 2173.13,-181 2173.13,-188"/>
</a>
</g>
</g>
<!-- Node68 -->
<g id="Node000068" class="node">
<title>Node68</title>
<g id="a_Node000068"><a xlink:href="classOSnowman.html#ad8f7afbec39a4816e2c2b4237d15b294" target="_top" xlink:title=" ">
<polygon fill="white" stroke="#666666" points="1922,-195 1769,-195 1769,-176 1922,-176 1922,-195"/>
<text text-anchor="middle" x="1845.5" y="-183" font-family="Helvetica,sans-Serif" font-size="10.00">OSnowman::func_80083A94</text>
</a>
</g>
</g>
<!-- Node67&#45;&gt;Node68 -->
<g id="edge53_Node000067_Node000068" class="edge">
<title>Node67&#45;&gt;Node68</title>
<g id="a_edge53_Node000067_Node000068"><a xlink:title=" ">
<path fill="none" stroke="#63b8ff" d="M1947.88,-184.96C1939.25,-185 1930.52,-185.05 1922,-185.1"/>
<polygon fill="#63b8ff" stroke="#63b8ff" points="1947.97,-188.46 1957.95,-184.9 1947.93,-181.46 1947.97,-188.46"/>
</a>
</g>
</g>
<!-- Node69 -->
<g id="Node000069" class="node">
<title>Node69</title>
<g id="a_Node000069"><a xlink:href="classOSnowman.html#ae84de267ff70c7e2ac5748b9bd738ada" target="_top" xlink:title=" ">
<polygon fill="white" stroke="#666666" points="1707.5,-195 1609.5,-195 1609.5,-176 1707.5,-176 1707.5,-195"/>
<text text-anchor="middle" x="1658.5" y="-183" font-family="Helvetica,sans-Serif" font-size="10.00">OSnowman::Tick</text>
</a>
</g>
</g>
<!-- Node68&#45;&gt;Node69 -->
<g id="edge54_Node000068_Node000069" class="edge">
<title>Node68&#45;&gt;Node69</title>
<g id="a_edge54_Node000068_Node000069"><a xlink:title=" ">
<path fill="none" stroke="#63b8ff" d="M1758.73,-185.5C1741.22,-185.5 1723.38,-185.5 1707.75,-185.5"/>
<polygon fill="#63b8ff" stroke="#63b8ff" points="1758.99,-189 1768.99,-185.5 1758.99,-182 1758.99,-189"/>
</a>
</g>
</g>
<!-- Node70&#45;&gt;Node67 -->
<g id="edge63_Node000070_Node000067" class="edge">
<title>Node70&#45;&gt;Node67</title>
<g id="a_edge63_Node000070_Node000067"><a xlink:title=" ">
<path fill="none" stroke="#63b8ff" d="M2173.16,-158.08C2145.33,-163.4 2111.86,-169.8 2084.84,-174.97"/>
<polygon fill="#63b8ff" stroke="#63b8ff" points="2173.97,-161.49 2183.13,-156.17 2172.65,-154.62 2173.97,-161.49"/>
</a>
</g>
</g>
<!-- Node71 -->
<g id="Node000071" class="node">
<title>Node71</title>
<g id="a_Node000071"><a xlink:href="code__80057C60_8c.html#ae63e5109911965ae4a90fbf6de218da5" target="_top" xlink:title=" ">
<polygon fill="white" stroke="#666666" points="2080,-157 1988,-157 1988,-138 2080,-138 2080,-157"/>
<text text-anchor="middle" x="2034" y="-145" font-family="Helvetica,sans-Serif" font-size="10.00">func_8005A14C</text>
</a>
</g>
</g>
<!-- Node70&#45;&gt;Node71 -->
<g id="edge57_Node000070_Node000071" class="edge">
<title>Node70&#45;&gt;Node71</title>
<g id="a_edge57_Node000070_Node000071"><a xlink:title=" ">
<path fill="none" stroke="#63b8ff" d="M2173,-147.5C2143.54,-147.5 2107.81,-147.5 2080.08,-147.5"/>
<polygon fill="#63b8ff" stroke="#63b8ff" points="2173.13,-151 2183.13,-147.5 2173.13,-144 2173.13,-151"/>
</a>
</g>
</g>
<!-- Node73 -->
<g id="Node000073" class="node">
<title>Node73</title>
<g id="a_Node000073"><a xlink:href="classOMole.html#a4b783c8416d8ddf52227b39a57dd727e" target="_top" xlink:title=" ">
<polygon fill="white" stroke="#666666" points="2098,-119 1970,-119 1970,-100 2098,-100 2098,-119"/>
<text text-anchor="middle" x="2034" y="-107" font-family="Helvetica,sans-Serif" font-size="10.00">OMole::func_80081924</text>
</a>
</g>
</g>
<!-- Node70&#45;&gt;Node73 -->
<g id="edge60_Node000070_Node000073" class="edge">
<title>Node70&#45;&gt;Node73</title>
<g id="a_edge60_Node000070_Node000073"><a xlink:title=" ">
<path fill="none" stroke="#63b8ff" d="M2173,-136.6C2144.73,-131.05 2110.67,-124.36 2083.47,-119.02"/>
<polygon fill="#63b8ff" stroke="#63b8ff" points="2172.65,-140.1 2183.13,-138.59 2173.99,-133.23 2172.65,-140.1"/>
</a>
</g>
</g>
<!-- Node72 -->
<g id="Node000072" class="node">
<title>Node72</title>
<g id="a_Node000072"><a xlink:href="code__80057C60_8c.html#ae344d1674557788ab398ca89c91551d9" target="_top" xlink:title=" ">
<polygon fill="white" stroke="#666666" points="1704.5,-157 1612.5,-157 1612.5,-138 1704.5,-138 1704.5,-157"/>
<text text-anchor="middle" x="1658.5" y="-145" font-family="Helvetica,sans-Serif" font-size="10.00">func_8005A380</text>
</a>
</g>
</g>
<!-- Node71&#45;&gt;Node72 -->
<g id="edge58_Node000071_Node000072" class="edge">
<title>Node71&#45;&gt;Node72</title>
<g id="a_edge58_Node000071_Node000072"><a xlink:title=" ">
<path fill="none" stroke="#63b8ff" d="M1977.87,-147.5C1903.76,-147.5 1773.37,-147.5 1704.71,-147.5"/>
<polygon fill="#63b8ff" stroke="#63b8ff" points="1977.95,-151 1987.95,-147.5 1977.95,-144 1977.95,-151"/>
</a>
</g>
</g>
<!-- Node72&#45;&gt;Node23 -->
<g id="edge59_Node000072_Node000023" class="edge">
<title>Node72&#45;&gt;Node23</title>
<g id="a_edge59_Node000072_Node000023"><a xlink:title=" ">
<path fill="none" stroke="#63b8ff" d="M1608.55,-135.46C1586.96,-130.15 1561.96,-124 1541.71,-119.02"/>
<polygon fill="#63b8ff" stroke="#63b8ff" points="1607.97,-138.92 1618.51,-137.91 1609.64,-132.12 1607.97,-138.92"/>
</a>
</g>
</g>
<!-- Node74 -->
<g id="Node000074" class="node">
<title>Node74</title>
<g id="a_Node000074"><a xlink:href="classOMole.html#a1a79f1c2486e56741e1055d05d5665a7" target="_top" xlink:title=" ">
<polygon fill="white" stroke="#666666" points="1910,-119 1781,-119 1781,-100 1910,-100 1910,-119"/>
<text text-anchor="middle" x="1845.5" y="-107" font-family="Helvetica,sans-Serif" font-size="10.00">OMole::func_80081A88</text>
</a>
</g>
</g>
<!-- Node73&#45;&gt;Node74 -->
<g id="edge61_Node000073_Node000074" class="edge">
<title>Node73&#45;&gt;Node74</title>
<g id="a_edge61_Node000073_Node000074"><a xlink:title=" ">
<path fill="none" stroke="#63b8ff" d="M1959.79,-109.5C1943.41,-109.5 1926.17,-109.5 1910.21,-109.5"/>
<polygon fill="#63b8ff" stroke="#63b8ff" points="1959.86,-113 1969.86,-109.5 1959.86,-106 1959.86,-113"/>
</a>
</g>
</g>
<!-- Node75 -->
<g id="Node000075" class="node">
<title>Node75</title>
<g id="a_Node000075"><a xlink:href="classOMole.html#a7a10ff3da864cbf52234a43630edec3b" target="_top" xlink:title=" ">
<polygon fill="white" stroke="#666666" points="1723.5,-119 1593.5,-119 1593.5,-100 1723.5,-100 1723.5,-119"/>
<text text-anchor="middle" x="1658.5" y="-107" font-family="Helvetica,sans-Serif" font-size="10.00">OMole::func_800821AC</text>
</a>
</g>
</g>
<!-- Node74&#45;&gt;Node75 -->
<g id="edge62_Node000074_Node000075" class="edge">
<title>Node74&#45;&gt;Node75</title>
<g id="a_edge62_Node000074_Node000075"><a xlink:title=" ">
<path fill="none" stroke="#63b8ff" d="M1770.71,-109.5C1755.13,-109.5 1738.8,-109.5 1723.6,-109.5"/>
<polygon fill="#63b8ff" stroke="#63b8ff" points="1770.83,-113 1780.83,-109.5 1770.83,-106 1770.83,-113"/>
</a>
</g>
</g>
</g>
</svg>
