<?xml version="1.0" encoding="UTF-8" standalone="no"?>
<!DOCTYPE svg PUBLIC "-//W3C//DTD SVG 1.1//EN"
 "http://www.w3.org/Graphics/SVG/1.1/DTD/svg11.dtd">
<!-- Generated by graphviz version 2.43.0 (0)
 -->
<!-- Title: get_angle_between_path Pages: 1 -->
<!--zoomable 879 -->

<svg id="main" version="1.1" xmlns="http://www.w3.org/2000/svg" xmlns:xlink="http://www.w3.org/1999/xlink" xml:space="preserve" onload="init(evt)">

<style type="text/css"><![CDATA[
.node, .edge {opacity: 0.7;}
.node.selected, .edge.selected {opacity: 1;}
.edge:hover path { stroke: red; }
.edge:hover polygon { stroke: red; fill: red; }
]]></style>

<defs>
  <circle id="rim" cx="0" cy="0" r="7"/>
  <circle id="rim2" cx="0" cy="0" r="3.5"/>
  <g id="zoomPlus">
    <use xlink:href="#rim" fill="#404040"><set attributeName="fill" to="#808080" begin="zoomplus.mouseover" end="zoomplus.mouseout"/></use>
    <path d="M-4,0h8M0,-4v8" fill="none" stroke="white" stroke-width="1.5" pointer-events="none"/>
  </g>
  <g id="zoomMin">
    <use xlink:href="#rim" fill="#404040"><set attributeName="fill" to="#808080" begin="zoomminus.mouseover" end="zoomminus.mouseout"/></use>
    <path d="M-4,0h8" fill="none" stroke="white" stroke-width="1.5" pointer-events="none"/>
  </g>
  <g id="arrowUp" transform="translate(30 24)">
    <use xlink:href="#rim"/>
    <path pointer-events="none" fill="none" stroke="white" stroke-width="1.5" d="M0,-3.0v7 M-2.5,-0.5L0,-3.0L2.5,-0.5"/>
  </g>
  <g id="arrowRight" transform="rotate(90) translate(36 -43)">
    <use xlink:href="#rim"/>
    <path pointer-events="none" fill="none" stroke="white" stroke-width="1.5" d="M0,-3.0v7 M-2.5,-0.5L0,-3.0L2.5,-0.5"/>
  </g>
  <g id="arrowDown" transform="rotate(180) translate(-30 -48)">
    <use xlink:href="#rim"/>
    <path pointer-events="none" fill="none" stroke="white" stroke-width="1.5" d="M0,-3.0v7 M-2.5,-0.5L0,-3.0L2.5,-0.5"/>
  </g>
  <g id="arrowLeft" transform="rotate(270) translate(-36 17)">
    <use xlink:href="#rim"/>
    <path pointer-events="none" fill="none" stroke="white" stroke-width="1.5" d="M0,-3.0v7 M-2.5,-0.5L0,-3.0L2.5,-0.5"/>
  </g>
  <g id="resetDef">
    <use xlink:href="#rim2" fill="#404040"><set attributeName="fill" to="#808080" begin="reset.mouseover" end="reset.mouseout"/></use>
  </g>
</defs>
<script type="application/ecmascript">
var viewWidth = 1326;
var viewHeight = 879;
var sectionId = 'dynsection-131';
</script>
<script type="application/ecmascript" xlink:href="svg.min.js"/>
<svg id="graph" class="graph">
<g id="viewport">
<title>get_angle_between_path</title>
<!-- Node1 -->
<g id="Node000001" class="node">
<title>Node1</title>
<g id="a_Node000001"><a xlink:title=" ">
<polygon fill="#999999" stroke="#666666" points="1318,-215.5 1179,-215.5 1179,-196.5 1318,-196.5 1318,-215.5"/>
<text text-anchor="middle" x="1248.5" y="-203.5" font-family="Helvetica,sans-Serif" font-size="10.00">get_angle_between_path</text>
</a>
</g>
</g>
<!-- Node2 -->
<g id="Node000002" class="node">
<title>Node2</title>
<g id="a_Node000002"><a xlink:href="code__80005FD0_8c.html#a45fa364fbae557a3d2025ebdc0846cd2" target="_top" xlink:title=" ">
<polygon fill="white" stroke="#666666" points="1106,-673.5 1012,-673.5 1012,-654.5 1106,-654.5 1106,-673.5"/>
<text text-anchor="middle" x="1059" y="-661.5" font-family="Helvetica,sans-Serif" font-size="10.00">func_8000D6D0</text>
</a>
</g>
</g>
<!-- Node1&#45;&gt;Node2 -->
<g id="edge1_Node000001_Node000002" class="edge">
<title>Node1&#45;&gt;Node2</title>
<g id="a_edge1_Node000001_Node000002"><a xlink:title=" ">
<path fill="none" stroke="#63b8ff" d="M1241.31,-225.39C1226.14,-272.31 1185.3,-395.44 1143,-495 1116.67,-556.98 1078.97,-628.64 1065.25,-654.27"/>
<polygon fill="#63b8ff" stroke="#63b8ff" points="1244.72,-226.22 1244.45,-215.63 1238.05,-224.08 1244.72,-226.22"/>
</a>
</g>
</g>
<!-- Node26 -->
<g id="Node000026" class="node">
<title>Node26</title>
<g id="a_Node000026"><a xlink:href="code__80005FD0_8c.html#a124bae511133f507498b19842362feeb" target="_top" xlink:title=" ">
<polygon fill="white" stroke="#666666" points="1105,-485.5 1013,-485.5 1013,-466.5 1105,-466.5 1105,-485.5"/>
<text text-anchor="middle" x="1059" y="-473.5" font-family="Helvetica,sans-Serif" font-size="10.00">func_8000D940</text>
</a>
</g>
</g>
<!-- Node1&#45;&gt;Node26 -->
<g id="edge29_Node000001_Node000026" class="edge">
<title>Node1&#45;&gt;Node26</title>
<g id="a_edge29_Node000001_Node000026"><a xlink:title=" ">
<path fill="none" stroke="#63b8ff" d="M1235.08,-223.88C1198.91,-275.97 1094.45,-426.39 1066.79,-466.22"/>
<polygon fill="#63b8ff" stroke="#63b8ff" points="1238,-225.82 1240.83,-215.61 1232.25,-221.83 1238,-225.82"/>
</a>
</g>
</g>
<!-- Node30 -->
<g id="Node000030" class="node">
<title>Node30</title>
<g id="a_Node000030"><a xlink:href="classABoat.html#a9edd4ca53a59cadb0e65f49bd5502bc1" target="_top" xlink:title=" ">
<polygon fill="white" stroke="#666666" points="904.5,-215.5 832.5,-215.5 832.5,-196.5 904.5,-196.5 904.5,-215.5"/>
<text text-anchor="middle" x="868.5" y="-203.5" font-family="Helvetica,sans-Serif" font-size="10.00">ABoat::Tick</text>
</a>
</g>
</g>
<!-- Node1&#45;&gt;Node30 -->
<g id="edge44_Node000001_Node000030" class="edge">
<title>Node1&#45;&gt;Node30</title>
<g id="a_edge44_Node000001_Node000030"><a xlink:title=" ">
<path fill="none" stroke="#63b8ff" d="M1168.43,-206C1087.3,-206 964.74,-206 904.9,-206"/>
<polygon fill="#63b8ff" stroke="#63b8ff" points="1168.61,-209.5 1178.61,-206 1168.61,-202.5 1168.61,-209.5"/>
</a>
</g>
</g>
<!-- Node31 -->
<g id="Node000031" class="node">
<title>Node31</title>
<g id="a_Node000031"><a xlink:href="code__80005FD0_8c.html#a777de4239351e9266f8b367ce46cb936" target="_top" xlink:title=" ">
<polygon fill="white" stroke="#666666" points="1143,-141.5 975,-141.5 975,-122.5 1143,-122.5 1143,-141.5"/>
<text text-anchor="middle" x="1059" y="-129.5" font-family="Helvetica,sans-Serif" font-size="10.00">update_vehicle_following_path</text>
</a>
</g>
</g>
<!-- Node1&#45;&gt;Node31 -->
<g id="edge45_Node000001_Node000031" class="edge">
<title>Node1&#45;&gt;Node31</title>
<g id="a_edge45_Node000001_Node000031"><a xlink:title=" ">
<path fill="none" stroke="#63b8ff" d="M1213.94,-192.76C1176.67,-178.04 1117.4,-154.65 1084.33,-141.6"/>
<polygon fill="#63b8ff" stroke="#63b8ff" points="1212.78,-196.06 1223.37,-196.48 1215.35,-189.55 1212.78,-196.06"/>
</a>
</g>
</g>
<!-- Node40 -->
<g id="Node000040" class="node">
<title>Node40</title>
<g id="a_Node000040"><a xlink:href="code__80005FD0_8c.html#a729f7f5e21d05aa84945ba750d554c76" target="_top" xlink:title=" ">
<polygon fill="white" stroke="#666666" points="933,-30 804,-30 804,0 933,0 933,-30"/>
<text text-anchor="start" x="812" y="-18" font-family="Helvetica,sans-Serif" font-size="10.00">update_vehicle_paddle</text>
<text text-anchor="middle" x="868.5" y="-7" font-family="Helvetica,sans-Serif" font-size="10.00">_boats</text>
</a>
</g>
</g>
<!-- Node1&#45;&gt;Node40 -->
<g id="edge57_Node000001_Node000040" class="edge">
<title>Node1&#45;&gt;Node40</title>
<g id="a_edge57_Node000001_Node000040"><a xlink:title=" ">
<path fill="none" stroke="#63b8ff" d="M1231.89,-188.79C1212.68,-168.5 1178.27,-134.9 1143,-114 1075.12,-73.78 988.21,-45.77 930.8,-30.06"/>
<polygon fill="#63b8ff" stroke="#63b8ff" points="1229.55,-191.41 1238.92,-196.35 1234.67,-186.64 1229.55,-191.41"/>
</a>
</g>
</g>
<!-- Node3 -->
<g id="Node000003" class="node">
<title>Node3</title>
<g id="a_Node000003"><a xlink:href="classABus.html#aabc43c4a5a7c5acc7daa5e89f9d42cdb" target="_top" xlink:title=" ">
<polygon fill="white" stroke="#666666" points="723,-617.5 651,-617.5 651,-598.5 723,-598.5 723,-617.5"/>
<text text-anchor="middle" x="687" y="-605.5" font-family="Helvetica,sans-Serif" font-size="10.00">ABus::ABus</text>
</a>
</g>
</g>
<!-- Node2&#45;&gt;Node3 -->
<g id="edge2_Node000002_Node000003" class="edge">
<title>Node2&#45;&gt;Node3</title>
<g id="a_edge2_Node000002_Node000003"><a xlink:title=" ">
<path fill="none" stroke="#63b8ff" d="M1049.41,-683.06C1033.28,-716.19 994.97,-783.41 939,-810 882.4,-836.89 846.4,-849.81 798,-810 733.98,-757.35 818.92,-687.26 762,-627 752.07,-616.49 737.18,-611.48 723.36,-609.2"/>
<polygon fill="#63b8ff" stroke="#63b8ff" points="1052.77,-684.13 1053.86,-673.59 1046.44,-681.15 1052.77,-684.13"/>
</a>
</g>
</g>
<!-- Node5 -->
<g id="Node000005" class="node">
<title>Node5</title>
<g id="a_Node000005"><a xlink:href="classACar.html#a7c537f8a1af7c93b57a6fbf2f52a894d" target="_top" xlink:title=" ">
<polygon fill="white" stroke="#666666" points="721.5,-580.5 652.5,-580.5 652.5,-561.5 721.5,-561.5 721.5,-580.5"/>
<text text-anchor="middle" x="687" y="-568.5" font-family="Helvetica,sans-Serif" font-size="10.00">ACar::ACar</text>
</a>
</g>
</g>
<!-- Node2&#45;&gt;Node5 -->
<g id="edge4_Node000002_Node000005" class="edge">
<title>Node2&#45;&gt;Node5</title>
<g id="a_edge4_Node000002_Node000005"><a xlink:title=" ">
<path fill="none" stroke="#63b8ff" d="M1045.38,-681.82C1025.96,-707.51 986.03,-753.84 939,-772 880.54,-794.57 846.42,-811.78 798,-772 734.29,-719.66 818.65,-649.92 762,-590 751.7,-579.11 736.08,-574.13 721.84,-571.97"/>
<polygon fill="#63b8ff" stroke="#63b8ff" points="1048.26,-683.81 1051.37,-673.68 1042.62,-679.66 1048.26,-683.81"/>
</a>
</g>
</g>
<!-- Node7 -->
<g id="Node000007" class="node">
<title>Node7</title>
<g id="a_Node000007"><a xlink:href="classATankerTruck.html#a09577845d0c017bc5845b1cac44b5078" target="_top" xlink:title=" ">
<polygon fill="white" stroke="#666666" points="761.5,-543.5 612.5,-543.5 612.5,-524.5 761.5,-524.5 761.5,-543.5"/>
<text text-anchor="middle" x="687" y="-531.5" font-family="Helvetica,sans-Serif" font-size="10.00">ATankerTruck::ATankerTruck</text>
</a>
</g>
</g>
<!-- Node2&#45;&gt;Node7 -->
<g id="edge6_Node000002_Node000007" class="edge">
<title>Node2&#45;&gt;Node7</title>
<g id="a_edge6_Node000002_Node000007"><a xlink:title=" ">
<path fill="none" stroke="#63b8ff" d="M1038.88,-679.93C992.36,-716.69 871.69,-799.79 798,-739 733.05,-685.42 819.72,-614.3 762,-553 758.36,-549.14 754.06,-546.02 749.38,-543.5"/>
<polygon fill="#63b8ff" stroke="#63b8ff" points="1041.08,-682.65 1046.67,-673.65 1036.69,-677.2 1041.08,-682.65"/>
</a>
</g>
</g>
<!-- Node9 -->
<g id="Node000009" class="node">
<title>Node9</title>
<g id="a_Node000009"><a xlink:href="classATruck.html#a8b5a611d66bd00a6ddf86eec0920a583" target="_top" xlink:title=" ">
<polygon fill="white" stroke="#666666" points="730,-654.5 644,-654.5 644,-635.5 730,-635.5 730,-654.5"/>
<text text-anchor="middle" x="687" y="-642.5" font-family="Helvetica,sans-Serif" font-size="10.00">ATruck::ATruck</text>
</a>
</g>
</g>
<!-- Node2&#45;&gt;Node9 -->
<g id="edge8_Node000002_Node000009" class="edge">
<title>Node2&#45;&gt;Node9</title>
<g id="a_edge8_Node000002_Node000009"><a xlink:title=" ">
<path fill="none" stroke="#63b8ff" d="M1052.35,-683.39C1039.64,-722.96 1004.67,-812.26 939,-848 883.96,-877.95 851.84,-880.06 798,-848 723.26,-803.49 696.19,-688.58 689.68,-654.6"/>
<polygon fill="#63b8ff" stroke="#63b8ff" points="1055.75,-684.23 1055.35,-673.64 1049.06,-682.17 1055.75,-684.23"/>
</a>
</g>
</g>
<!-- Node11 -->
<g id="Node000011" class="node">
<title>Node11</title>
<g id="a_Node000011"><a xlink:href="code__80005FD0_8c.html#af8068c46ce72dbd5b61790d355728cff" target="_top" xlink:title=" ">
<polygon fill="white" stroke="#666666" points="936.5,-341 800.5,-341 800.5,-311 936.5,-311 936.5,-341"/>
<text text-anchor="start" x="808.5" y="-329" font-family="Helvetica,sans-Serif" font-size="10.00">initialize_toads_turnpike</text>
<text text-anchor="middle" x="868.5" y="-318" font-family="Helvetica,sans-Serif" font-size="10.00">_vehicle</text>
</a>
</g>
</g>
<!-- Node2&#45;&gt;Node11 -->
<g id="edge10_Node000002_Node000011" class="edge">
<title>Node2&#45;&gt;Node11</title>
<g id="a_edge10_Node000002_Node000011"><a xlink:title=" ">
<path fill="none" stroke="#63b8ff" d="M1047.22,-645.35C1029.93,-614.8 995.83,-551.8 975,-495 952.43,-433.47 982.69,-400.85 939,-352 935.14,-347.68 930.48,-344.07 925.44,-341.07"/>
<polygon fill="#63b8ff" stroke="#63b8ff" points="1044.39,-647.47 1052.39,-654.41 1050.47,-643.99 1044.39,-647.47"/>
</a>
</g>
</g>
<!-- Node16 -->
<g id="Node000016" class="node">
<title>Node16</title>
<g id="a_Node000016"><a xlink:href="code__80005FD0_8c.html#ac8070bcd41974c70ea8b6d4218b1ebef" target="_top" xlink:title=" ">
<polygon fill="white" stroke="#666666" points="935,-542.5 802,-542.5 802,-523.5 935,-523.5 935,-542.5"/>
<text text-anchor="middle" x="868.5" y="-530.5" font-family="Helvetica,sans-Serif" font-size="10.00">spawn_vehicle_on_road</text>
</a>
</g>
</g>
<!-- Node2&#45;&gt;Node16 -->
<g id="edge15_Node000002_Node000016" class="edge">
<title>Node2&#45;&gt;Node16</title>
<g id="a_edge15_Node000002_Node000016"><a xlink:title=" ">
<path fill="none" stroke="#63b8ff" d="M1035.5,-648.36C996.08,-620.97 915.67,-565.09 883.38,-542.65"/>
<polygon fill="#63b8ff" stroke="#63b8ff" points="1033.93,-651.53 1044.14,-654.37 1037.92,-645.79 1033.93,-651.53"/>
</a>
</g>
</g>
<!-- Node17 -->
<g id="Node000017" class="node">
<title>Node17</title>
<g id="a_Node000017"><a xlink:href="classABus.html#a07af38f3fced338dc420cffcdfddb826" target="_top" xlink:title=" ">
<polygon fill="white" stroke="#666666" points="902.5,-729.5 834.5,-729.5 834.5,-710.5 902.5,-710.5 902.5,-729.5"/>
<text text-anchor="middle" x="868.5" y="-717.5" font-family="Helvetica,sans-Serif" font-size="10.00">ABus::Tick</text>
</a>
</g>
</g>
<!-- Node2&#45;&gt;Node17 -->
<g id="edge20_Node000002_Node000017" class="edge">
<title>Node2&#45;&gt;Node17</title>
<g id="a_edge20_Node000002_Node000017"><a xlink:title=" ">
<path fill="none" stroke="#63b8ff" d="M1020.25,-676.65C996.93,-684.31 966.35,-694.1 939,-702 927.27,-705.39 914.33,-708.82 902.83,-711.77"/>
<polygon fill="#63b8ff" stroke="#63b8ff" points="1021.37,-679.96 1029.76,-673.51 1019.17,-673.32 1021.37,-679.96"/>
</a>
</g>
</g>
<!-- Node18 -->
<g id="Node000018" class="node">
<title>Node18</title>
<g id="a_Node000018"><a xlink:href="classACar.html#aa5a07144df2ce488c986f2c9eece9916" target="_top" xlink:title=" ">
<polygon fill="white" stroke="#666666" points="901.5,-655.5 835.5,-655.5 835.5,-636.5 901.5,-636.5 901.5,-655.5"/>
<text text-anchor="middle" x="868.5" y="-643.5" font-family="Helvetica,sans-Serif" font-size="10.00">ACar::Tick</text>
</a>
</g>
</g>
<!-- Node2&#45;&gt;Node18 -->
<g id="edge21_Node000002_Node000018" class="edge">
<title>Node2&#45;&gt;Node18</title>
<g id="a_edge21_Node000002_Node000018"><a xlink:title=" ">
<path fill="none" stroke="#63b8ff" d="M1001.56,-658.61C968.87,-655.49 928.9,-651.67 901.56,-649.06"/>
<polygon fill="#63b8ff" stroke="#63b8ff" points="1001.6,-662.13 1011.89,-659.6 1002.27,-655.16 1001.6,-662.13"/>
</a>
</g>
</g>
<!-- Node19 -->
<g id="Node000019" class="node">
<title>Node19</title>
<g id="a_Node000019"><a xlink:href="classATankerTruck.html#a7a57be806639c04fa4d391a47bf09ab3" target="_top" xlink:title=" ">
<polygon fill="white" stroke="#666666" points="921.5,-692.5 815.5,-692.5 815.5,-673.5 921.5,-673.5 921.5,-692.5"/>
<text text-anchor="middle" x="868.5" y="-680.5" font-family="Helvetica,sans-Serif" font-size="10.00">ATankerTruck::Tick</text>
</a>
</g>
</g>
<!-- Node2&#45;&gt;Node19 -->
<g id="edge22_Node000002_Node000019" class="edge">
<title>Node2&#45;&gt;Node19</title>
<g id="a_edge22_Node000002_Node000019"><a xlink:title=" ">
<path fill="none" stroke="#63b8ff" d="M1001.69,-669.68C976.36,-672.23 946.63,-675.23 921.79,-677.73"/>
<polygon fill="#63b8ff" stroke="#63b8ff" points="1002.29,-673.13 1011.89,-668.65 1001.59,-666.17 1002.29,-673.13"/>
</a>
</g>
</g>
<!-- Node20 -->
<g id="Node000020" class="node">
<title>Node20</title>
<g id="a_Node000020"><a xlink:href="classATruck.html#a251df5418c913a4e27ab67cfb068fdfc" target="_top" xlink:title=" ">
<polygon fill="white" stroke="#666666" points="905.5,-618.5 831.5,-618.5 831.5,-599.5 905.5,-599.5 905.5,-618.5"/>
<text text-anchor="middle" x="868.5" y="-606.5" font-family="Helvetica,sans-Serif" font-size="10.00">ATruck::Tick</text>
</a>
</g>
</g>
<!-- Node2&#45;&gt;Node20 -->
<g id="edge23_Node000002_Node000020" class="edge">
<title>Node2&#45;&gt;Node20</title>
<g id="a_edge23_Node000002_Node000020"><a xlink:title=" ">
<path fill="none" stroke="#63b8ff" d="M1017.49,-651.45C994.51,-644.41 965.2,-635.54 939,-628 928.06,-624.85 916.12,-621.54 905.27,-618.58"/>
<polygon fill="#63b8ff" stroke="#63b8ff" points="1016.66,-654.86 1027.25,-654.45 1018.72,-648.17 1016.66,-654.86"/>
</a>
</g>
</g>
<!-- Node21 -->
<g id="Node000021" class="node">
<title>Node21</title>
<g id="a_Node000021"><a xlink:href="code__80005FD0_8c.html#a99144559f0973d72038cdccbe00881b6" target="_top" xlink:title=" ">
<polygon fill="white" stroke="#666666" points="931.5,-391 805.5,-391 805.5,-361 931.5,-361 931.5,-391"/>
<text text-anchor="start" x="813.5" y="-379" font-family="Helvetica,sans-Serif" font-size="10.00">update_vehicle_follow</text>
<text text-anchor="middle" x="868.5" y="-368" font-family="Helvetica,sans-Serif" font-size="10.00">_path_point</text>
</a>
</g>
</g>
<!-- Node2&#45;&gt;Node21 -->
<g id="edge24_Node000002_Node000021" class="edge">
<title>Node2&#45;&gt;Node21</title>
<g id="a_edge24_Node000002_Node000021"><a xlink:title=" ">
<path fill="none" stroke="#63b8ff" d="M1046.05,-645.75C1011.42,-592.83 911.38,-439.99 879.44,-391.18"/>
<polygon fill="#63b8ff" stroke="#63b8ff" points="1043.32,-647.97 1051.73,-654.42 1049.18,-644.13 1043.32,-647.97"/>
</a>
</g>
</g>
<!-- Node4 -->
<g id="Node000004" class="node">
<title>Node4</title>
<g id="a_Node000004"><a xlink:href="classABus.html#a456ce9ea8c555e72a30abe4b40bd2d7b" target="_top" xlink:title=" ">
<polygon fill="white" stroke="#666666" points="532,-617.5 452,-617.5 452,-598.5 532,-598.5 532,-617.5"/>
<text text-anchor="middle" x="492" y="-605.5" font-family="Helvetica,sans-Serif" font-size="10.00">ABus::Spawn</text>
</a>
</g>
</g>
<!-- Node3&#45;&gt;Node4 -->
<g id="edge3_Node000003_Node000004" class="edge">
<title>Node3&#45;&gt;Node4</title>
<g id="a_edge3_Node000003_Node000004"><a xlink:title=" ">
<path fill="none" stroke="#63b8ff" d="M640.33,-608C607.42,-608 563.47,-608 532.16,-608"/>
<polygon fill="#63b8ff" stroke="#63b8ff" points="640.6,-611.5 650.6,-608 640.6,-604.5 640.6,-611.5"/>
</a>
</g>
</g>
<!-- Node6 -->
<g id="Node000006" class="node">
<title>Node6</title>
<g id="a_Node000006"><a xlink:href="classACar.html#a657415a24ab2c0d907f25fd227156848" target="_top" xlink:title=" ">
<polygon fill="white" stroke="#666666" points="531,-580.5 453,-580.5 453,-561.5 531,-561.5 531,-580.5"/>
<text text-anchor="middle" x="492" y="-568.5" font-family="Helvetica,sans-Serif" font-size="10.00">ACar::Spawn</text>
</a>
</g>
</g>
<!-- Node5&#45;&gt;Node6 -->
<g id="edge5_Node000005_Node000006" class="edge">
<title>Node5&#45;&gt;Node6</title>
<g id="a_edge5_Node000005_Node000006"><a xlink:title=" ">
<path fill="none" stroke="#63b8ff" d="M641.99,-571C608.57,-571 563.09,-571 531.2,-571"/>
<polygon fill="#63b8ff" stroke="#63b8ff" points="642.38,-574.5 652.38,-571 642.38,-567.5 642.38,-574.5"/>
</a>
</g>
</g>
<!-- Node8 -->
<g id="Node000008" class="node">
<title>Node8</title>
<g id="a_Node000008"><a xlink:href="classATankerTruck.html#a2aacacbab3ba357a304a26523e4e3679" target="_top" xlink:title=" ">
<polygon fill="white" stroke="#666666" points="551,-543.5 433,-543.5 433,-524.5 551,-524.5 551,-543.5"/>
<text text-anchor="middle" x="492" y="-531.5" font-family="Helvetica,sans-Serif" font-size="10.00">ATankerTruck::Spawn</text>
</a>
</g>
</g>
<!-- Node7&#45;&gt;Node8 -->
<g id="edge7_Node000007_Node000008" class="edge">
<title>Node7&#45;&gt;Node8</title>
<g id="a_edge7_Node000007_Node000008"><a xlink:title=" ">
<path fill="none" stroke="#63b8ff" d="M602.37,-534C585.05,-534 567.17,-534 551.01,-534"/>
<polygon fill="#63b8ff" stroke="#63b8ff" points="602.48,-537.5 612.48,-534 602.48,-530.5 602.48,-537.5"/>
</a>
</g>
</g>
<!-- Node10 -->
<g id="Node000010" class="node">
<title>Node10</title>
<g id="a_Node000010"><a xlink:href="classATruck.html#afe7c33a6d77655f1404a658a747fa3f6" target="_top" xlink:title=" ">
<polygon fill="white" stroke="#666666" points="535,-654.5 449,-654.5 449,-635.5 535,-635.5 535,-654.5"/>
<text text-anchor="middle" x="492" y="-642.5" font-family="Helvetica,sans-Serif" font-size="10.00">ATruck::Spawn</text>
</a>
</g>
</g>
<!-- Node9&#45;&gt;Node10 -->
<g id="edge9_Node000009_Node000010" class="edge">
<title>Node9&#45;&gt;Node10</title>
<g id="a_edge9_Node000009_Node000010"><a xlink:title=" ">
<path fill="none" stroke="#63b8ff" d="M633.5,-645C602.64,-645 564.14,-645 535.26,-645"/>
<polygon fill="#63b8ff" stroke="#63b8ff" points="633.65,-648.5 643.65,-645 633.65,-641.5 633.65,-648.5"/>
</a>
</g>
</g>
<!-- Node12 -->
<g id="Node000012" class="node">
<title>Node12</title>
<g id="a_Node000012"><a xlink:href="code__80005FD0_8c.html#a3dbfe2d211c050114533e7681ca66ee1" target="_top" xlink:title=" ">
<polygon fill="white" stroke="#666666" points="755.5,-298.5 618.5,-298.5 618.5,-279.5 755.5,-279.5 755.5,-298.5"/>
<text text-anchor="middle" x="687" y="-286.5" font-family="Helvetica,sans-Serif" font-size="10.00">init_vehicles_box_trucks</text>
</a>
</g>
</g>
<!-- Node11&#45;&gt;Node12 -->
<g id="edge11_Node000011_Node000012" class="edge">
<title>Node11&#45;&gt;Node12</title>
<g id="a_edge11_Node000011_Node000012"><a xlink:title=" ">
<path fill="none" stroke="#63b8ff" d="M790.5,-310.13C771.37,-306.19 751.46,-302.08 734.33,-298.55"/>
<polygon fill="#63b8ff" stroke="#63b8ff" points="789.9,-313.58 800.41,-312.17 791.32,-306.72 789.9,-313.58"/>
</a>
</g>
</g>
<!-- Node13 -->
<g id="Node000013" class="node">
<title>Node13</title>
<g id="a_Node000013"><a xlink:href="code__80005FD0_8c.html#a18b1873671315cc770b401dbf911e944" target="_top" xlink:title=" ">
<polygon fill="white" stroke="#666666" points="739,-261.5 635,-261.5 635,-242.5 739,-242.5 739,-261.5"/>
<text text-anchor="middle" x="687" y="-249.5" font-family="Helvetica,sans-Serif" font-size="10.00">init_vehicles_cars</text>
</a>
</g>
</g>
<!-- Node11&#45;&gt;Node13 -->
<g id="edge12_Node000011_Node000013" class="edge">
<title>Node11&#45;&gt;Node13</title>
<g id="a_edge12_Node000011_Node000013"><a xlink:title=" ">
<path fill="none" stroke="#63b8ff" d="M806.97,-306.7C803.89,-305.22 800.88,-303.65 798,-302 779.69,-291.48 780.72,-280.77 762,-271 754.59,-267.13 746.35,-264.02 738.13,-261.52"/>
<polygon fill="#63b8ff" stroke="#63b8ff" points="805.84,-310.02 816.4,-310.87 808.67,-303.62 805.84,-310.02"/>
</a>
</g>
</g>
<!-- Node14 -->
<g id="Node000014" class="node">
<title>Node14</title>
<g id="a_Node000014"><a xlink:href="code__80005FD0_8c.html#a349a6a78e11cf0fbeb1871785fc1bffe" target="_top" xlink:title=" ">
<polygon fill="white" stroke="#666666" points="744.5,-224 629.5,-224 629.5,-194 744.5,-194 744.5,-224"/>
<text text-anchor="start" x="637.5" y="-212" font-family="Helvetica,sans-Serif" font-size="10.00">init_vehicles_school</text>
<text text-anchor="middle" x="687" y="-201" font-family="Helvetica,sans-Serif" font-size="10.00">_buses</text>
</a>
</g>
</g>
<!-- Node11&#45;&gt;Node14 -->
<g id="edge13_Node000011_Node000014" class="edge">
<title>Node11&#45;&gt;Node14</title>
<g id="a_edge13_Node000011_Node000014"><a xlink:title=" ">
<path fill="none" stroke="#63b8ff" d="M802.27,-305.35C800.79,-304.28 799.37,-303.17 798,-302 772.03,-279.76 788.05,-256.16 762,-234 756.84,-229.61 750.87,-225.98 744.6,-222.98"/>
<polygon fill="#63b8ff" stroke="#63b8ff" points="800.84,-308.58 811.19,-310.85 804.52,-302.62 800.84,-308.58"/>
</a>
</g>
</g>
<!-- Node15 -->
<g id="Node000015" class="node">
<title>Node15</title>
<g id="a_Node000015"><a xlink:href="code__80005FD0_8c.html#af60d8a9bd8b6d0685b0ecc0cd804ca6c" target="_top" xlink:title=" ">
<polygon fill="white" stroke="#666666" points="743.5,-335.5 630.5,-335.5 630.5,-316.5 743.5,-316.5 743.5,-335.5"/>
<text text-anchor="middle" x="687" y="-323.5" font-family="Helvetica,sans-Serif" font-size="10.00">init_vehicles_trucks</text>
</a>
</g>
</g>
<!-- Node11&#45;&gt;Node15 -->
<g id="edge14_Node000011_Node000015" class="edge">
<title>Node11&#45;&gt;Node15</title>
<g id="a_edge14_Node000011_Node000015"><a xlink:title=" ">
<path fill="none" stroke="#63b8ff" d="M790.2,-326C774.52,-326 758.33,-326 743.58,-326"/>
<polygon fill="#63b8ff" stroke="#63b8ff" points="790.41,-329.5 800.41,-326 790.41,-322.5 790.41,-329.5"/>
</a>
</g>
</g>
<!-- Node16&#45;&gt;Node3 -->
<g id="edge16_Node000016_Node000003" class="edge">
<title>Node16&#45;&gt;Node3</title>
<g id="a_edge16_Node000016_Node000003"><a xlink:title=" ">
<path fill="none" stroke="#63b8ff" d="M821.22,-546C813.22,-549.07 805.17,-552.73 798,-557 779.35,-568.11 781.15,-579.78 762,-590 750.1,-596.35 735.94,-600.5 723.2,-603.19"/>
<polygon fill="#63b8ff" stroke="#63b8ff" points="822.66,-549.2 830.9,-542.53 820.3,-542.61 822.66,-549.2"/>
</a>
</g>
</g>
<!-- Node16&#45;&gt;Node5 -->
<g id="edge17_Node000016_Node000005" class="edge">
<title>Node16&#45;&gt;Node5</title>
<g id="a_edge17_Node000016_Node000005"><a xlink:title=" ">
<path fill="none" stroke="#63b8ff" d="M812.4,-544.66C782.77,-550.94 747.17,-558.47 721.66,-563.87"/>
<polygon fill="#63b8ff" stroke="#63b8ff" points="813.15,-548.08 822.2,-542.59 811.7,-541.24 813.15,-548.08"/>
</a>
</g>
</g>
<!-- Node16&#45;&gt;Node7 -->
<g id="edge18_Node000016_Node000007" class="edge">
<title>Node16&#45;&gt;Node7</title>
<g id="a_edge18_Node000016_Node000007"><a xlink:title=" ">
<path fill="none" stroke="#63b8ff" d="M791.66,-533.42C781.7,-533.48 771.5,-533.53 761.58,-533.59"/>
<polygon fill="#63b8ff" stroke="#63b8ff" points="791.95,-536.92 801.93,-533.37 791.92,-529.92 791.95,-536.92"/>
</a>
</g>
</g>
<!-- Node16&#45;&gt;Node9 -->
<g id="edge19_Node000016_Node000009" class="edge">
<title>Node16&#45;&gt;Node9</title>
<g id="a_edge19_Node000016_Node000009"><a xlink:title=" ">
<path fill="none" stroke="#63b8ff" d="M814.01,-546.63C808.24,-549.47 802.75,-552.88 798,-557 771.56,-579.91 789.48,-605.35 762,-627 752.96,-634.12 741.52,-638.48 730.36,-641.13"/>
<polygon fill="#63b8ff" stroke="#63b8ff" points="815.47,-549.81 823.25,-542.62 812.68,-543.39 815.47,-549.81"/>
</a>
</g>
</g>
<!-- Node22 -->
<g id="Node000022" class="node">
<title>Node22</title>
<g id="a_Node000022"><a xlink:href="code__80005FD0_8c.html#a46fda4504f406f2374a5de6ea0e623a8" target="_top" xlink:title=" ">
<polygon fill="white" stroke="#666666" points="744,-458 630,-458 630,-428 744,-428 744,-458"/>
<text text-anchor="start" x="638" y="-446" font-family="Helvetica,sans-Serif" font-size="10.00">update_vehicle_box</text>
<text text-anchor="middle" x="687" y="-435" font-family="Helvetica,sans-Serif" font-size="10.00">_trucks</text>
</a>
</g>
</g>
<!-- Node21&#45;&gt;Node22 -->
<g id="edge25_Node000021_Node000022" class="edge">
<title>Node21&#45;&gt;Node22</title>
<g id="a_edge25_Node000021_Node000022"><a xlink:title=" ">
<path fill="none" stroke="#63b8ff" d="M822.15,-394.87C799.14,-404.37 773.63,-414.75 762,-419 753.75,-422.01 744.93,-425.04 736.34,-427.89"/>
<polygon fill="#63b8ff" stroke="#63b8ff" points="823.58,-398.07 831.48,-391.01 820.9,-391.6 823.58,-398.07"/>
</a>
</g>
</g>
<!-- Node23 -->
<g id="Node000023" class="node">
<title>Node23</title>
<g id="a_Node000023"><a xlink:href="code__80005FD0_8c.html#a94fbb4c25911b6d5620c4b560898833f" target="_top" xlink:title=" ">
<polygon fill="white" stroke="#666666" points="745,-409.5 629,-409.5 629,-390.5 745,-390.5 745,-409.5"/>
<text text-anchor="middle" x="687" y="-397.5" font-family="Helvetica,sans-Serif" font-size="10.00">update_vehicle_cars</text>
</a>
</g>
</g>
<!-- Node21&#45;&gt;Node23 -->
<g id="edge26_Node000021_Node000023" class="edge">
<title>Node21&#45;&gt;Node23</title>
<g id="a_edge26_Node000021_Node000023"><a xlink:title=" ">
<path fill="none" stroke="#63b8ff" d="M795.24,-385.66C778.59,-387.89 761.11,-390.22 745.21,-392.35"/>
<polygon fill="#63b8ff" stroke="#63b8ff" points="796.03,-389.09 805.47,-384.29 795.1,-382.15 796.03,-389.09"/>
</a>
</g>
</g>
<!-- Node24 -->
<g id="Node000024" class="node">
<title>Node24</title>
<g id="a_Node000024"><a xlink:href="code__80005FD0_8c.html#a787304a085fd2a0f8002cf74f3d537a8" target="_top" xlink:title=" ">
<polygon fill="white" stroke="#666666" points="762,-372.5 612,-372.5 612,-353.5 762,-353.5 762,-372.5"/>
<text text-anchor="middle" x="687" y="-360.5" font-family="Helvetica,sans-Serif" font-size="10.00">update_vehicle_school_bus</text>
</a>
</g>
</g>
<!-- Node21&#45;&gt;Node24 -->
<g id="edge27_Node000021_Node000024" class="edge">
<title>Node21&#45;&gt;Node24</title>
<g id="a_edge27_Node000021_Node000024"><a xlink:title=" ">
<path fill="none" stroke="#63b8ff" d="M795.5,-370.79C784.5,-369.99 773.13,-369.17 762.09,-368.37"/>
<polygon fill="#63b8ff" stroke="#63b8ff" points="795.25,-374.28 805.47,-371.51 795.75,-367.29 795.25,-374.28"/>
</a>
</g>
</g>
<!-- Node25 -->
<g id="Node000025" class="node">
<title>Node25</title>
<g id="a_Node000025"><a xlink:href="code__80005FD0_8c.html#a31895d8d4cc5138b65ec7587e833034b" target="_top" xlink:title=" ">
<polygon fill="white" stroke="#666666" points="750.5,-506 623.5,-506 623.5,-476 750.5,-476 750.5,-506"/>
<text text-anchor="start" x="631.5" y="-494" font-family="Helvetica,sans-Serif" font-size="10.00">update_vehicle_tanker</text>
<text text-anchor="middle" x="687" y="-483" font-family="Helvetica,sans-Serif" font-size="10.00">_trucks</text>
</a>
</g>
</g>
<!-- Node21&#45;&gt;Node25 -->
<g id="edge28_Node000021_Node000025" class="edge">
<title>Node21&#45;&gt;Node25</title>
<g id="a_edge28_Node000021_Node000025"><a xlink:title=" ">
<path fill="none" stroke="#63b8ff" d="M810.61,-395.94C806.11,-398.63 801.83,-401.64 798,-405 774.04,-426.01 786.79,-446.98 762,-467 757.8,-470.39 753.1,-473.31 748.17,-475.82"/>
<polygon fill="#63b8ff" stroke="#63b8ff" points="812.33,-398.99 819.47,-391.16 809.01,-392.82 812.33,-398.99"/>
</a>
</g>
</g>
<!-- Node26&#45;&gt;Node3 -->
<g id="edge30_Node000026_Node000003" class="edge">
<title>Node26&#45;&gt;Node3</title>
<g id="a_edge30_Node000026_Node000003"><a xlink:title=" ">
<path fill="none" stroke="#63b8ff" d="M1002.64,-478.31C936.15,-482.09 829.59,-491.68 798,-515 768.26,-536.96 790.73,-566.72 762,-590 751.11,-598.82 736.55,-603.43 723.23,-605.79"/>
<polygon fill="#63b8ff" stroke="#63b8ff" points="1003.16,-481.78 1012.95,-477.75 1002.78,-474.79 1003.16,-481.78"/>
</a>
</g>
</g>
<!-- Node26&#45;&gt;Node5 -->
<g id="edge31_Node000026_Node000005" class="edge">
<title>Node26&#45;&gt;Node5</title>
<g id="a_edge31_Node000026_Node000005"><a xlink:title=" ">
<path fill="none" stroke="#63b8ff" d="M1014.77,-464.13C959.8,-451.71 864.13,-439.25 798,-481 767.75,-500.1 789.98,-530.7 762,-553 750.63,-562.06 735.36,-566.66 721.65,-568.96"/>
<polygon fill="#63b8ff" stroke="#63b8ff" points="1014,-467.55 1024.54,-466.44 1015.61,-460.74 1014,-467.55"/>
</a>
</g>
</g>
<!-- Node26&#45;&gt;Node7 -->
<g id="edge32_Node000026_Node000007" class="edge">
<title>Node26&#45;&gt;Node7</title>
<g id="a_edge32_Node000026_Node000007"><a xlink:title=" ">
<path fill="none" stroke="#63b8ff" d="M1030.72,-461.95C980.56,-438.27 872.02,-397.25 798,-443 767.57,-461.81 789.84,-492.52 762,-515 757.25,-518.83 751.82,-521.9 746.11,-524.36"/>
<polygon fill="#63b8ff" stroke="#63b8ff" points="1029.42,-465.21 1039.95,-466.43 1032.48,-458.92 1029.42,-465.21"/>
</a>
</g>
</g>
<!-- Node26&#45;&gt;Node9 -->
<g id="edge33_Node000026_Node000009" class="edge">
<title>Node26&#45;&gt;Node9</title>
<g id="a_edge33_Node000026_Node000009"><a xlink:title=" ">
<path fill="none" stroke="#63b8ff" d="M1037.62,-491.72C1014.74,-508.7 975.97,-535.53 939,-552 879.61,-578.46 854.18,-558.26 798,-591 778.45,-602.39 781.73,-615.91 762,-627 752.32,-632.44 741.02,-636.25 730.21,-638.91"/>
<polygon fill="#63b8ff" stroke="#63b8ff" points="1039.97,-494.33 1045.85,-485.52 1035.76,-488.74 1039.97,-494.33"/>
</a>
</g>
</g>
<!-- Node26&#45;&gt;Node11 -->
<g id="edge36_Node000026_Node000011" class="edge">
<title>Node26&#45;&gt;Node11</title>
<g id="a_edge36_Node000026_Node000011"><a xlink:title=" ">
<path fill="none" stroke="#63b8ff" d="M1044.86,-457.82C1024.78,-431.21 984.04,-381.64 939,-352 932.65,-347.82 925.54,-344.19 918.35,-341.07"/>
<polygon fill="#63b8ff" stroke="#63b8ff" points="1042.3,-460.25 1051.07,-466.2 1047.93,-456.08 1042.3,-460.25"/>
</a>
</g>
</g>
<!-- Node26&#45;&gt;Node16 -->
<g id="edge37_Node000026_Node000016" class="edge">
<title>Node26&#45;&gt;Node16</title>
<g id="a_edge37_Node000026_Node000016"><a xlink:title=" ">
<path fill="none" stroke="#63b8ff" d="M1016.6,-488.52C981.82,-499.04 932.86,-513.84 901.15,-523.43"/>
<polygon fill="#63b8ff" stroke="#63b8ff" points="1017.89,-491.79 1026.45,-485.54 1015.86,-485.08 1017.89,-491.79"/>
</a>
</g>
</g>
<!-- Node26&#45;&gt;Node17 -->
<g id="edge38_Node000026_Node000017" class="edge">
<title>Node26&#45;&gt;Node17</title>
<g id="a_edge38_Node000026_Node000017"><a xlink:title=" ">
<path fill="none" stroke="#63b8ff" d="M1049.15,-494.88C1024.74,-546.59 957.13,-687.64 939,-702 928.74,-710.12 915.2,-714.61 902.81,-717.08"/>
<polygon fill="#63b8ff" stroke="#63b8ff" points="1052.45,-496.07 1053.54,-485.53 1046.12,-493.09 1052.45,-496.07"/>
</a>
</g>
</g>
<!-- Node26&#45;&gt;Node18 -->
<g id="edge39_Node000026_Node000018" class="edge">
<title>Node26&#45;&gt;Node18</title>
<g id="a_edge39_Node000026_Node000018"><a xlink:title=" ">
<path fill="none" stroke="#63b8ff" d="M1048.59,-494.86C1031.42,-527.27 991.87,-593.36 939,-628 927.95,-635.24 914.13,-639.57 901.74,-642.16"/>
<polygon fill="#63b8ff" stroke="#63b8ff" points="1051.89,-496.1 1053.36,-485.61 1045.67,-492.89 1051.89,-496.1"/>
</a>
</g>
</g>
<!-- Node26&#45;&gt;Node19 -->
<g id="edge40_Node000026_Node000019" class="edge">
<title>Node26&#45;&gt;Node19</title>
<g id="a_edge40_Node000026_Node000019"><a xlink:title=" ">
<path fill="none" stroke="#63b8ff" d="M1051.48,-495.12C1037.37,-533.54 1000.24,-620.24 939,-665 933.77,-668.82 927.79,-671.84 921.59,-674.21"/>
<polygon fill="#63b8ff" stroke="#63b8ff" points="1054.8,-496.23 1054.85,-485.64 1048.2,-493.89 1054.8,-496.23"/>
</a>
</g>
</g>
<!-- Node26&#45;&gt;Node20 -->
<g id="edge41_Node000026_Node000020" class="edge">
<title>Node26&#45;&gt;Node20</title>
<g id="a_edge41_Node000026_Node000020"><a xlink:title=" ">
<path fill="none" stroke="#63b8ff" d="M1043.25,-493.39C1022.29,-517.12 981.67,-559.6 939,-585 928.8,-591.07 916.84,-595.9 905.74,-599.59"/>
<polygon fill="#63b8ff" stroke="#63b8ff" points="1046.14,-495.41 1050.05,-485.56 1040.85,-490.82 1046.14,-495.41"/>
</a>
</g>
</g>
<!-- Node26&#45;&gt;Node21 -->
<g id="edge43_Node000026_Node000021" class="edge">
<title>Node26&#45;&gt;Node21</title>
<g id="a_edge43_Node000026_Node000021"><a xlink:title=" ">
<path fill="none" stroke="#63b8ff" d="M1034.76,-460.78C1011.17,-445.66 973.33,-422.29 939,-405 929.31,-400.12 918.6,-395.35 908.54,-391.14"/>
<polygon fill="#63b8ff" stroke="#63b8ff" points="1033.06,-463.85 1043.36,-466.33 1036.85,-457.97 1033.06,-463.85"/>
</a>
</g>
</g>
<!-- Node27 -->
<g id="Node000027" class="node">
<title>Node27</title>
<g id="a_Node000027"><a xlink:href="classOSeagull.html#afb8d3fd824adf5e5edbf698c94f59111" target="_top" xlink:title=" ">
<polygon fill="white" stroke="#666666" points="939,-292.5 798,-292.5 798,-273.5 939,-273.5 939,-292.5"/>
<text text-anchor="middle" x="868.5" y="-280.5" font-family="Helvetica,sans-Serif" font-size="10.00">OSeagull::func_8008275C</text>
</a>
</g>
</g>
<!-- Node26&#45;&gt;Node27 -->
<g id="edge34_Node000026_Node000027" class="edge">
<title>Node26&#45;&gt;Node27</title>
<g id="a_edge34_Node000026_Node000027"><a xlink:title=" ">
<path fill="none" stroke="#63b8ff" d="M1050.37,-456.99C1034.93,-421.03 996.52,-342.97 939,-302 933.5,-298.08 927.23,-294.97 920.75,-292.5"/>
<polygon fill="#63b8ff" stroke="#63b8ff" points="1047.18,-458.45 1054.26,-466.34 1053.65,-455.76 1047.18,-458.45"/>
</a>
</g>
</g>
<!-- Node29 -->
<g id="Node000029" class="node">
<title>Node29</title>
<g id="a_Node000029"><a xlink:href="classOChainChomp.html#afdcecc46c8c4ff9245a00ace65733d3e" target="_top" xlink:title=" ">
<polygon fill="white" stroke="#666666" points="925,-255.5 812,-255.5 812,-236.5 925,-236.5 925,-255.5"/>
<text text-anchor="middle" x="868.5" y="-243.5" font-family="Helvetica,sans-Serif" font-size="10.00">OChainChomp::Tick</text>
</a>
</g>
</g>
<!-- Node26&#45;&gt;Node29 -->
<g id="edge42_Node000026_Node000029" class="edge">
<title>Node26&#45;&gt;Node29</title>
<g id="a_edge42_Node000026_Node000029"><a xlink:title=" ">
<path fill="none" stroke="#63b8ff" d="M1052.61,-456.48C1040.05,-414.7 1004.77,-316.26 939,-265 934.07,-261.16 928.41,-258.09 922.5,-255.64"/>
<polygon fill="#63b8ff" stroke="#63b8ff" points="1049.3,-457.61 1055.44,-466.25 1056.02,-455.67 1049.3,-457.61"/>
</a>
</g>
</g>
<!-- Node28 -->
<g id="Node000028" class="node">
<title>Node28</title>
<g id="a_Node000028"><a xlink:href="classOSeagull.html#a86b5da4447db382837540ab7dc34c95a" target="_top" xlink:title=" ">
<polygon fill="white" stroke="#666666" points="730,-175.5 644,-175.5 644,-156.5 730,-156.5 730,-175.5"/>
<text text-anchor="middle" x="687" y="-163.5" font-family="Helvetica,sans-Serif" font-size="10.00">OSeagull::Tick</text>
</a>
</g>
</g>
<!-- Node27&#45;&gt;Node28 -->
<g id="edge35_Node000027_Node000028" class="edge">
<title>Node27&#45;&gt;Node28</title>
<g id="a_edge35_Node000027_Node000028"><a xlink:title=" ">
<path fill="none" stroke="#63b8ff" d="M802.31,-268.26C800.82,-267.25 799.38,-266.16 798,-265 768.2,-239.86 791.83,-210.11 762,-185 753.07,-177.48 741.53,-172.89 730.24,-170.1"/>
<polygon fill="#63b8ff" stroke="#63b8ff" points="800.96,-271.52 811.39,-273.37 804.39,-265.42 800.96,-271.52"/>
</a>
</g>
</g>
<!-- Node31&#45;&gt;Node30 -->
<g id="edge53_Node000031_Node000030" class="edge">
<title>Node31&#45;&gt;Node30</title>
<g id="a_edge53_Node000031_Node000030"><a xlink:title=" ">
<path fill="none" stroke="#63b8ff" d="M1031.22,-146.37C1007.5,-158.67 971.65,-176.21 939,-188 927.98,-191.98 915.68,-195.46 904.53,-198.28"/>
<polygon fill="#63b8ff" stroke="#63b8ff" points="1033.07,-149.35 1040.3,-141.61 1029.82,-143.15 1033.07,-149.35"/>
</a>
</g>
</g>
<!-- Node32 -->
<g id="Node000032" class="node">
<title>Node32</title>
<g id="a_Node000032"><a xlink:href="classABoat.html#a72f9505bb203b7da30ee448f061bbe49" target="_top" xlink:title=" ">
<polygon fill="white" stroke="#666666" points="909,-141.5 828,-141.5 828,-122.5 909,-122.5 909,-141.5"/>
<text text-anchor="middle" x="868.5" y="-129.5" font-family="Helvetica,sans-Serif" font-size="10.00">ABoat::ABoat</text>
</a>
</g>
</g>
<!-- Node31&#45;&gt;Node32 -->
<g id="edge46_Node000031_Node000032" class="edge">
<title>Node31&#45;&gt;Node32</title>
<g id="a_edge46_Node000031_Node000032"><a xlink:title=" ">
<path fill="none" stroke="#63b8ff" d="M964.63,-132C945.2,-132 925.71,-132 909.48,-132"/>
<polygon fill="#63b8ff" stroke="#63b8ff" points="964.77,-135.5 974.77,-132 964.77,-128.5 964.77,-135.5"/>
</a>
</g>
</g>
<!-- Node34 -->
<g id="Node000034" class="node">
<title>Node34</title>
<g id="a_Node000034"><a xlink:href="classATrain.html#a924e9fb51739e1fba6b0eff6635611bc" target="_top" xlink:title=" ">
<polygon fill="white" stroke="#666666" points="909,-104.5 828,-104.5 828,-85.5 909,-85.5 909,-104.5"/>
<text text-anchor="middle" x="868.5" y="-92.5" font-family="Helvetica,sans-Serif" font-size="10.00">ATrain::ATrain</text>
</a>
</g>
</g>
<!-- Node31&#45;&gt;Node34 -->
<g id="edge48_Node000031_Node000034" class="edge">
<title>Node31&#45;&gt;Node34</title>
<g id="a_edge48_Node000031_Node000034"><a xlink:title=" ">
<path fill="none" stroke="#63b8ff" d="M999.35,-120.49C970.08,-114.74 935.44,-107.94 909.31,-102.81"/>
<polygon fill="#63b8ff" stroke="#63b8ff" points="998.97,-123.98 1009.46,-122.47 1000.32,-117.11 998.97,-123.98"/>
</a>
</g>
</g>
<!-- Node39 -->
<g id="Node000039" class="node">
<title>Node39</title>
<g id="a_Node000039"><a xlink:href="classATrain.html#acc8b87940356921e15f3e6859bd83cf1" target="_top" xlink:title=" ">
<polygon fill="white" stroke="#666666" points="904.5,-67.5 832.5,-67.5 832.5,-48.5 904.5,-48.5 904.5,-67.5"/>
<text text-anchor="middle" x="868.5" y="-55.5" font-family="Helvetica,sans-Serif" font-size="10.00">ATrain::Tick</text>
</a>
</g>
</g>
<!-- Node31&#45;&gt;Node39 -->
<g id="edge54_Node000031_Node000039" class="edge">
<title>Node31&#45;&gt;Node39</title>
<g id="a_edge54_Node000031_Node000039"><a xlink:title=" ">
<path fill="none" stroke="#63b8ff" d="M1030.74,-117.82C1006.97,-105.84 971.32,-88.79 939,-77 927.95,-72.97 915.65,-69.34 904.5,-66.35"/>
<polygon fill="#63b8ff" stroke="#63b8ff" points="1029.35,-121.04 1039.85,-122.46 1032.52,-114.8 1029.35,-121.04"/>
</a>
</g>
</g>
<!-- Node31&#45;&gt;Node40 -->
<g id="edge55_Node000031_Node000040" class="edge">
<title>Node31&#45;&gt;Node40</title>
<g id="a_edge55_Node000031_Node000040"><a xlink:title=" ">
<path fill="none" stroke="#63b8ff" d="M1036.88,-116.23C1020.03,-103.59 995.87,-85.32 975,-69 958.82,-56.34 956.91,-50.06 939,-40 932.4,-36.3 925.16,-32.97 917.91,-30.05"/>
<polygon fill="#63b8ff" stroke="#63b8ff" points="1034.87,-119.1 1044.97,-122.29 1039.07,-113.5 1034.87,-119.1"/>
</a>
</g>
</g>
<!-- Node41 -->
<g id="Node000041" class="node">
<title>Node41</title>
<g id="a_Node000041"><a xlink:href="code__80005FD0_8c.html#aa4a9c388d068cd83d2e2a4f6c30705e4" target="_top" xlink:title=" ">
<polygon fill="white" stroke="#666666" points="930.5,-178.5 806.5,-178.5 806.5,-159.5 930.5,-159.5 930.5,-178.5"/>
<text text-anchor="middle" x="868.5" y="-166.5" font-family="Helvetica,sans-Serif" font-size="10.00">update_vehicle_trains</text>
</a>
</g>
</g>
<!-- Node31&#45;&gt;Node41 -->
<g id="edge56_Node000031_Node000041" class="edge">
<title>Node31&#45;&gt;Node41</title>
<g id="a_edge56_Node000031_Node000041"><a xlink:title=" ">
<path fill="none" stroke="#63b8ff" d="M999.33,-143.52C973.28,-148.63 942.98,-154.58 918.21,-159.44"/>
<polygon fill="#63b8ff" stroke="#63b8ff" points="1000.32,-146.89 1009.46,-141.53 998.97,-140.02 1000.32,-146.89"/>
</a>
</g>
</g>
<!-- Node33 -->
<g id="Node000033" class="node">
<title>Node33</title>
<g id="a_Node000033"><a xlink:href="classABoat.html#a2a8755582504f510d51f7988b42df18b" target="_top" xlink:title=" ">
<polygon fill="white" stroke="#666666" points="729,-138.5 645,-138.5 645,-119.5 729,-119.5 729,-138.5"/>
<text text-anchor="middle" x="687" y="-126.5" font-family="Helvetica,sans-Serif" font-size="10.00">ABoat::Spawn</text>
</a>
</g>
</g>
<!-- Node32&#45;&gt;Node33 -->
<g id="edge47_Node000032_Node000033" class="edge">
<title>Node32&#45;&gt;Node33</title>
<g id="a_edge47_Node000032_Node000033"><a xlink:title=" ">
<path fill="none" stroke="#63b8ff" d="M817.36,-131.16C789.59,-130.7 755.5,-130.13 729.28,-129.69"/>
<polygon fill="#63b8ff" stroke="#63b8ff" points="817.61,-134.67 827.66,-131.33 817.72,-127.67 817.61,-134.67"/>
</a>
</g>
</g>
<!-- Node35 -->
<g id="Node000035" class="node">
<title>Node35</title>
<g id="a_Node000035"><a xlink:href="classATrain.html#aa39976112e962ff1536c33236e16cc20" target="_top" xlink:title=" ">
<polygon fill="white" stroke="#666666" points="729,-101.5 645,-101.5 645,-82.5 729,-82.5 729,-101.5"/>
<text text-anchor="middle" x="687" y="-89.5" font-family="Helvetica,sans-Serif" font-size="10.00">ATrain::Spawn</text>
</a>
</g>
</g>
<!-- Node34&#45;&gt;Node35 -->
<g id="edge49_Node000034_Node000035" class="edge">
<title>Node34&#45;&gt;Node35</title>
<g id="a_edge49_Node000034_Node000035"><a xlink:title=" ">
<path fill="none" stroke="#63b8ff" d="M817.36,-94.16C789.59,-93.7 755.5,-93.13 729.28,-92.69"/>
<polygon fill="#63b8ff" stroke="#63b8ff" points="817.61,-97.67 827.66,-94.33 817.72,-90.67 817.61,-97.67"/>
</a>
</g>
</g>
<!-- Node36 -->
<g id="Node000036" class="node">
<title>Node36</title>
<g id="a_Node000036"><a xlink:href="classEditor_1_1ContentBrowserWindow.html#a892a21e5db2c05ba813cfdc4f1dae812" target="_top" xlink:title=" ">
<polygon fill="white" stroke="#666666" points="576,-107 408,-107 408,-77 576,-77 576,-107"/>
<text text-anchor="start" x="416" y="-95" font-family="Helvetica,sans-Serif" font-size="10.00">Editor::ContentBrowserWindow</text>
<text text-anchor="middle" x="492" y="-84" font-family="Helvetica,sans-Serif" font-size="10.00">::TrainWindow</text>
</a>
</g>
</g>
<!-- Node35&#45;&gt;Node36 -->
<g id="edge50_Node000035_Node000036" class="edge">
<title>Node35&#45;&gt;Node36</title>
<g id="a_edge50_Node000035_Node000036"><a xlink:title=" ">
<path fill="none" stroke="#63b8ff" d="M634.37,-92C616.43,-92 595.84,-92 576.02,-92"/>
<polygon fill="#63b8ff" stroke="#63b8ff" points="634.6,-95.5 644.6,-92 634.6,-88.5 634.6,-95.5"/>
</a>
</g>
</g>
<!-- Node37 -->
<g id="Node000037" class="node">
<title>Node37</title>
<g id="a_Node000037"><a xlink:href="classEditor_1_1ContentBrowserWindow.html#a592a4ce51797c84e28bd118755f1001a" target="_top" xlink:title=" ">
<polygon fill="white" stroke="#666666" points="372,-107 204,-107 204,-77 372,-77 372,-107"/>
<text text-anchor="start" x="212" y="-95" font-family="Helvetica,sans-Serif" font-size="10.00">Editor::ContentBrowserWindow</text>
<text text-anchor="middle" x="288" y="-84" font-family="Helvetica,sans-Serif" font-size="10.00">::AddActorContent</text>
</a>
</g>
</g>
<!-- Node36&#45;&gt;Node37 -->
<g id="edge51_Node000036_Node000037" class="edge">
<title>Node36&#45;&gt;Node37</title>
<g id="a_edge51_Node000036_Node000037"><a xlink:title=" ">
<path fill="none" stroke="#63b8ff" d="M397.89,-92C389.27,-92 380.56,-92 372.04,-92"/>
<polygon fill="#63b8ff" stroke="#63b8ff" points="397.96,-95.5 407.96,-92 397.96,-88.5 397.96,-95.5"/>
</a>
</g>
</g>
<!-- Node38 -->
<g id="Node000038" class="node">
<title>Node38</title>
<g id="a_Node000038"><a xlink:href="classEditor_1_1ContentBrowserWindow.html#aba36715d806ae75b046302e476726b44" target="_top" xlink:title=" ">
<polygon fill="white" stroke="#666666" points="168,-107 0,-107 0,-77 168,-77 168,-107"/>
<text text-anchor="start" x="8" y="-95" font-family="Helvetica,sans-Serif" font-size="10.00">Editor::ContentBrowserWindow</text>
<text text-anchor="middle" x="84" y="-84" font-family="Helvetica,sans-Serif" font-size="10.00">::DrawElement</text>
</a>
</g>
</g>
<!-- Node37&#45;&gt;Node38 -->
<g id="edge52_Node000037_Node000038" class="edge">
<title>Node37&#45;&gt;Node38</title>
<g id="a_edge52_Node000037_Node000038"><a xlink:title=" ">
<path fill="none" stroke="#63b8ff" d="M193.89,-92C185.27,-92 176.56,-92 168.04,-92"/>
<polygon fill="#63b8ff" stroke="#63b8ff" points="193.96,-95.5 203.96,-92 193.96,-88.5 193.96,-95.5"/>
</a>
</g>
</g>
</g>
</svg>

<g id="navigator" transform="translate(0 0)" fill="#404254">
  <rect fill="#f2f5e9" fill-opacity="0.5" stroke="#606060" stroke-width=".5" x="0" y="0" width="60" height="60"/>
  <use id="zoomplus" xlink:href="#zoomPlus" x="17" y="9" onmousedown="handleZoom(evt,'in')"/>
  <use id="zoomminus" xlink:href="#zoomMin" x="42" y="9" onmousedown="handleZoom(evt,'out')"/>
  <use id="reset" xlink:href="#resetDef" x="30" y="36" onmousedown="handleReset()"/>
   <use id="arrowup" xlink:href="#arrowUp" x="0" y="0" onmousedown="handlePan(0,-1)"/>
  <use id="arrowright" xlink:href="#arrowRight" x="0" y="0" onmousedown="handlePan(1,0)"/>
  <use id="arrowdown" xlink:href="#arrowDown" x="0" y="0" onmousedown="handlePan(0,1)"/>
  <use id="arrowleft" xlink:href="#arrowLeft" x="0" y="0" onmousedown="handlePan(-1,0)"/>
</g>
<svg viewBox="0 0 15 15" width="100%" height="30px" preserveAspectRatio="xMaxYMin meet">
 <g id="arrow_out" transform="scale(0.3 0.3)">
  <a xlink:href="code__80005FD0_8h_a391c39bae973fc9817fb092a11d68edf_icgraph_org.svg" target="_base">
   <rect id="button" ry="5" rx="5" y="6" x="6" height="38" width="38"
        fill="#f2f5e9" fill-opacity="0.5" stroke="#606060" stroke-width="1.0"/>
   <path id="arrow"
     d="M 11.500037,31.436501 C 11.940474,20.09759 22.043105,11.32322 32.158766,21.979434 L 37.068811,17.246167 C 37.068811,17.246167 37.088388,32 37.088388,32 L 22.160133,31.978069 C 22.160133,31.978069 26.997745,27.140456 26.997745,27.140456 C 18.528582,18.264221 13.291696,25.230495 11.500037,31.436501 z"
     style="fill:#404040;"/>
  </a>
 </g>
</svg>

<style type='text/css'>
<![CDATA[
[data-mouse-over-selected='false'] { opacity: 0.7; }
[data-mouse-over-selected='true']  { opacity: 1.0; }
]]>
</style>
<script type="application/ecmascript"><![CDATA[
document.addEventListener('DOMContentLoaded', (event) => {
  highlightEdges();
  highlightAdjacentNodes();
});
]]></script>
</svg>
