<?xml version="1.0" encoding="UTF-8" standalone="no"?>
<!DOCTYPE svg PUBLIC "-//W3C//DTD SVG 1.1//EN"
 "http://www.w3.org/Graphics/SVG/1.1/DTD/svg11.dtd">
<!-- Generated by graphviz version 2.43.0 (0)
 -->
<!-- Title: src/code_8006E9C0.h Pages: 1 -->
<svg width="6268pt" height="203pt"
 viewBox="0.00 0.00 6267.50 203.00" xmlns="http://www.w3.org/2000/svg" xmlns:xlink="http://www.w3.org/1999/xlink">
<g id="graph0" class="graph" transform="scale(1 1) rotate(0) translate(4 199)">
<title>src/code_8006E9C0.h</title>
<!-- Node1 -->
<g id="Node000001" class="node">
<title>Node1</title>
<g id="a_Node000001"><a xlink:title=" ">
<polygon fill="#999999" stroke="#666666" points="3144.5,-195 3024.5,-195 3024.5,-176 3144.5,-176 3144.5,-195"/>
<text text-anchor="middle" x="3084.5" y="-183" font-family="Helvetica,sans-Serif" font-size="10.00">src/code_8006E9C0.h</text>
</a>
</g>
</g>
<!-- Node2 -->
<g id="Node000002" class="node">
<title>Node2</title>
<g id="a_Node000002"><a xlink:href="code__800029B0_8c.html" target="_top" xlink:title=" ">
<polygon fill="white" stroke="#666666" points="119,-134.5 0,-134.5 0,-115.5 119,-115.5 119,-134.5"/>
<text text-anchor="middle" x="59.5" y="-122.5" font-family="Helvetica,sans-Serif" font-size="10.00">src/code_800029B0.c</text>
</a>
</g>
</g>
<!-- Node1&#45;&gt;Node2 -->
<g id="edge1_Node000001_Node000002" class="edge">
<title>Node1&#45;&gt;Node2</title>
<g id="a_edge1_Node000001_Node000002"><a xlink:title=" ">
<path fill="none" stroke="#63b8ff" d="M3014.23,-184.22C2594.14,-182.46 423.27,-171.85 128.5,-140 117.56,-138.82 105.79,-136.74 95.12,-134.54"/>
<polygon fill="#63b8ff" stroke="#63b8ff" points="3014.39,-187.72 3024.4,-184.26 3014.42,-180.72 3014.39,-187.72"/>
</a>
</g>
</g>
<!-- Node3 -->
<g id="Node000003" class="node">
<title>Node3</title>
<g id="a_Node000003"><a xlink:href="code__80057C60_8c.html" target="_top" xlink:title=" ">
<polygon fill="white" stroke="#666666" points="256,-134.5 137,-134.5 137,-115.5 256,-115.5 256,-134.5"/>
<text text-anchor="middle" x="196.5" y="-122.5" font-family="Helvetica,sans-Serif" font-size="10.00">src/code_80057C60.c</text>
</a>
</g>
</g>
<!-- Node1&#45;&gt;Node3 -->
<g id="edge2_Node000001_Node000003" class="edge">
<title>Node1&#45;&gt;Node3</title>
<g id="a_edge2_Node000001_Node000003"><a xlink:title=" ">
<path fill="none" stroke="#63b8ff" d="M3014.25,-184.17C2605.87,-182.13 545.86,-170.39 265.5,-140 254.56,-138.81 242.79,-136.73 232.12,-134.53"/>
<polygon fill="#63b8ff" stroke="#63b8ff" points="3014.42,-187.67 3024.44,-184.22 3014.46,-180.67 3014.42,-187.67"/>
</a>
</g>
</g>
<!-- Node4 -->
<g id="Node000004" class="node">
<title>Node4</title>
<g id="a_Node000004"><a xlink:href="code__8006E9C0_8c.html" target="_top" xlink:title=" ">
<polygon fill="white" stroke="#666666" points="393,-134.5 274,-134.5 274,-115.5 393,-115.5 393,-134.5"/>
<text text-anchor="middle" x="333.5" y="-122.5" font-family="Helvetica,sans-Serif" font-size="10.00">src/code_8006E9C0.c</text>
</a>
</g>
</g>
<!-- Node1&#45;&gt;Node4 -->
<g id="edge3_Node000001_Node000004" class="edge">
<title>Node1&#45;&gt;Node4</title>
<g id="a_edge3_Node000001_Node000004"><a xlink:title=" ">
<path fill="none" stroke="#63b8ff" d="M3014.2,-184.11C2617.64,-181.78 668.44,-168.94 402.5,-140 391.56,-138.81 379.79,-136.73 369.12,-134.52"/>
<polygon fill="#63b8ff" stroke="#63b8ff" points="3014.36,-187.61 3024.38,-184.17 3014.4,-180.61 3014.36,-187.61"/>
</a>
</g>
</g>
<!-- Node5 -->
<g id="Node000005" class="node">
<title>Node5</title>
<g id="a_Node000005"><a xlink:href="all__variables_8h.html" target="_top" xlink:title=" ">
<polygon fill="white" stroke="#666666" points="549.5,-134.5 411.5,-134.5 411.5,-115.5 549.5,-115.5 549.5,-134.5"/>
<text text-anchor="middle" x="480.5" y="-122.5" font-family="Helvetica,sans-Serif" font-size="10.00">src/debug/all_variables.h</text>
</a>
</g>
</g>
<!-- Node1&#45;&gt;Node5 -->
<g id="edge4_Node000001_Node000005" class="edge">
<title>Node1&#45;&gt;Node5</title>
<g id="a_edge4_Node000001_Node000005"><a xlink:title=" ">
<path fill="none" stroke="#63b8ff" d="M3014.34,-184.76C2658.96,-185.85 1055.1,-187.98 559.5,-140 547.02,-138.79 533.55,-136.7 521.33,-134.5"/>
<polygon fill="#63b8ff" stroke="#63b8ff" points="3014.5,-188.26 3024.49,-184.73 3014.47,-181.26 3014.5,-188.26"/>
</a>
</g>
</g>
<!-- Node8 -->
<g id="Node000008" class="node">
<title>Node8</title>
<g id="a_Node000008"><a xlink:href="code__80280000_8c.html" target="_top" xlink:title=" ">
<polygon fill="white" stroke="#666666" points="723,-134.5 568,-134.5 568,-115.5 723,-115.5 723,-134.5"/>
<text text-anchor="middle" x="645.5" y="-122.5" font-family="Helvetica,sans-Serif" font-size="10.00">src/ending/code_80280000.c</text>
</a>
</g>
</g>
<!-- Node1&#45;&gt;Node8 -->
<g id="edge7_Node000001_Node000008" class="edge">
<title>Node1&#45;&gt;Node8</title>
<g id="a_edge7_Node000001_Node000008"><a xlink:title=" ">
<path fill="none" stroke="#63b8ff" d="M3014.26,-184.5C2673.72,-184.32 1192.23,-181.13 732.5,-140 718.94,-138.79 704.29,-136.72 690.95,-134.55"/>
<polygon fill="#63b8ff" stroke="#63b8ff" points="3014.47,-188 3024.47,-184.51 3014.47,-181 3014.47,-188"/>
</a>
</g>
</g>
<!-- Node9 -->
<g id="Node000009" class="node">
<title>Node9</title>
<g id="a_Node000009"><a xlink:href="code__80281780_8c.html" target="_top" xlink:title=" ">
<polygon fill="white" stroke="#666666" points="896,-134.5 741,-134.5 741,-115.5 896,-115.5 896,-134.5"/>
<text text-anchor="middle" x="818.5" y="-122.5" font-family="Helvetica,sans-Serif" font-size="10.00">src/ending/code_80281780.c</text>
</a>
</g>
</g>
<!-- Node1&#45;&gt;Node9 -->
<g id="edge8_Node000001_Node000009" class="edge">
<title>Node1&#45;&gt;Node9</title>
<g id="a_edge8_Node000001_Node000009"><a xlink:title=" ">
<path fill="none" stroke="#63b8ff" d="M3014.2,-184.38C2689.09,-183.63 1329.09,-178.22 905.5,-140 891.94,-138.78 877.29,-136.71 863.95,-134.54"/>
<polygon fill="#63b8ff" stroke="#63b8ff" points="3014.42,-187.88 3024.43,-184.4 3014.44,-180.88 3014.42,-187.88"/>
</a>
</g>
</g>
<!-- Node10 -->
<g id="Node000010" class="node">
<title>Node10</title>
<g id="a_Node000010"><a xlink:href="SkyCloud_8cpp.html" target="_top" xlink:title=" ">
<polygon fill="white" stroke="#666666" points="1069,-134.5 914,-134.5 914,-115.5 1069,-115.5 1069,-134.5"/>
<text text-anchor="middle" x="991.5" y="-122.5" font-family="Helvetica,sans-Serif" font-size="10.00">src/engine/sky/SkyCloud.cpp</text>
</a>
</g>
</g>
<!-- Node1&#45;&gt;Node10 -->
<g id="edge9_Node000001_Node000010" class="edge">
<title>Node1&#45;&gt;Node10</title>
<g id="a_edge9_Node000001_Node000010"><a xlink:title=" ">
<path fill="none" stroke="#63b8ff" d="M3014.3,-184.24C2705.51,-182.88 1466.11,-175.32 1078.5,-140 1064.94,-138.76 1050.29,-136.7 1036.95,-134.52"/>
<polygon fill="#63b8ff" stroke="#63b8ff" points="3014.45,-187.74 3024.46,-184.28 3014.48,-180.74 3014.45,-187.74"/>
</a>
</g>
</g>
<!-- Node11 -->
<g id="Node000011" class="node">
<title>Node11</title>
<g id="a_Node000011"><a xlink:href="SkySnow_8cpp.html" target="_top" xlink:title=" ">
<polygon fill="white" stroke="#666666" points="1239.5,-134.5 1087.5,-134.5 1087.5,-115.5 1239.5,-115.5 1239.5,-134.5"/>
<text text-anchor="middle" x="1163.5" y="-122.5" font-family="Helvetica,sans-Serif" font-size="10.00">src/engine/sky/SkySnow.cpp</text>
</a>
</g>
</g>
<!-- Node1&#45;&gt;Node11 -->
<g id="edge10_Node000001_Node000011" class="edge">
<title>Node1&#45;&gt;Node11</title>
<g id="a_edge10_Node000001_Node000011"><a xlink:title=" ">
<path fill="none" stroke="#63b8ff" d="M3014.08,-184.1C2721.47,-182.25 1600.65,-173.11 1248.5,-140 1235.25,-138.75 1220.94,-136.68 1207.9,-134.51"/>
<polygon fill="#63b8ff" stroke="#63b8ff" points="3014.11,-187.6 3024.13,-184.17 3014.15,-180.6 3014.11,-187.6"/>
</a>
</g>
</g>
<!-- Node12 -->
<g id="Node000012" class="node">
<title>Node12</title>
<g id="a_Node000012"><a xlink:href="SkyStar_8cpp.html" target="_top" xlink:title=" ">
<polygon fill="white" stroke="#666666" points="1403.5,-134.5 1257.5,-134.5 1257.5,-115.5 1403.5,-115.5 1403.5,-134.5"/>
<text text-anchor="middle" x="1330.5" y="-122.5" font-family="Helvetica,sans-Serif" font-size="10.00">src/engine/sky/SkyStar.cpp</text>
</a>
</g>
</g>
<!-- Node1&#45;&gt;Node12 -->
<g id="edge11_Node000001_Node000012" class="edge">
<title>Node1&#45;&gt;Node12</title>
<g id="a_edge11_Node000001_Node000012"><a xlink:title=" ">
<path fill="none" stroke="#63b8ff" d="M3014.15,-183.94C2738.48,-181.56 1731.48,-170.9 1413.5,-140 1400.7,-138.76 1386.89,-136.71 1374.28,-134.57"/>
<polygon fill="#63b8ff" stroke="#63b8ff" points="3014.38,-187.45 3024.41,-184.03 3014.44,-180.45 3014.38,-187.45"/>
</a>
</g>
</g>
<!-- Node13 -->
<g id="Node000013" class="node">
<title>Node13</title>
<g id="a_Node000013"><a xlink:href="BansheeBoardwalk_8cpp.html" target="_top" xlink:title=" ">
<polygon fill="white" stroke="#666666" points="1567,-140 1422,-140 1422,-110 1567,-110 1567,-140"/>
<text text-anchor="start" x="1430" y="-128" font-family="Helvetica,sans-Serif" font-size="10.00">src/engine/tracks/Banshee</text>
<text text-anchor="middle" x="1494.5" y="-117" font-family="Helvetica,sans-Serif" font-size="10.00">Boardwalk.cpp</text>
</a>
</g>
</g>
<!-- Node1&#45;&gt;Node13 -->
<g id="edge12_Node000001_Node000013" class="edge">
<title>Node1&#45;&gt;Node13</title>
<g id="a_edge12_Node000001_Node000013"><a xlink:title=" ">
<path fill="none" stroke="#63b8ff" d="M3014.21,-183.73C2756.1,-180.7 1860.86,-168.33 1576.5,-140 1573.48,-139.7 1570.41,-139.35 1567.31,-138.97"/>
<polygon fill="#63b8ff" stroke="#63b8ff" points="3014.17,-187.23 3024.21,-183.85 3014.25,-180.23 3014.17,-187.23"/>
</a>
</g>
</g>
<!-- Node14 -->
<g id="Node000014" class="node">
<title>Node14</title>
<g id="a_Node000014"><a xlink:href="BigDonut_8cpp.html" target="_top" xlink:title=" ">
<polygon fill="white" stroke="#666666" points="1753.5,-134.5 1585.5,-134.5 1585.5,-115.5 1753.5,-115.5 1753.5,-134.5"/>
<text text-anchor="middle" x="1669.5" y="-122.5" font-family="Helvetica,sans-Serif" font-size="10.00">src/engine/tracks/BigDonut.cpp</text>
</a>
</g>
</g>
<!-- Node1&#45;&gt;Node14 -->
<g id="edge13_Node000001_Node000014" class="edge">
<title>Node1&#45;&gt;Node14</title>
<g id="a_edge13_Node000001_Node000014"><a xlink:title=" ">
<path fill="none" stroke="#63b8ff" d="M3014.15,-184.99C2816.47,-185.76 2239.35,-183.77 1762.5,-140 1748.35,-138.7 1733.08,-136.67 1719.08,-134.55"/>
<polygon fill="#63b8ff" stroke="#63b8ff" points="3014.41,-188.49 3024.39,-184.95 3014.38,-181.49 3014.41,-188.49"/>
</a>
</g>
</g>
<!-- Node15 -->
<g id="Node000015" class="node">
<title>Node15</title>
<g id="a_Node000015"><a xlink:href="BlockFort_8cpp.html" target="_top" xlink:title=" ">
<polygon fill="white" stroke="#666666" points="1940,-134.5 1771,-134.5 1771,-115.5 1940,-115.5 1940,-134.5"/>
<text text-anchor="middle" x="1855.5" y="-122.5" font-family="Helvetica,sans-Serif" font-size="10.00">src/engine/tracks/BlockFort.cpp</text>
</a>
</g>
</g>
<!-- Node1&#45;&gt;Node15 -->
<g id="edge14_Node000001_Node000015" class="edge">
<title>Node1&#45;&gt;Node15</title>
<g id="a_edge14_Node000001_Node000015"><a xlink:title=" ">
<path fill="none" stroke="#63b8ff" d="M3014.33,-184.4C2836.04,-183.56 2351.31,-177.69 1949.5,-140 1935.37,-138.67 1920.13,-136.66 1906.11,-134.57"/>
<polygon fill="#63b8ff" stroke="#63b8ff" points="3014.34,-187.9 3024.36,-184.44 3014.38,-180.9 3014.34,-187.9"/>
</a>
</g>
</g>
<!-- Node16 -->
<g id="Node000016" class="node">
<title>Node16</title>
<g id="a_Node000016"><a xlink:href="BowsersCastle_8cpp.html" target="_top" xlink:title=" ">
<polygon fill="white" stroke="#666666" points="2102.5,-140 1958.5,-140 1958.5,-110 2102.5,-110 2102.5,-140"/>
<text text-anchor="start" x="1966.5" y="-128" font-family="Helvetica,sans-Serif" font-size="10.00">src/engine/tracks/Bowsers</text>
<text text-anchor="middle" x="2030.5" y="-117" font-family="Helvetica,sans-Serif" font-size="10.00">Castle.cpp</text>
</a>
</g>
</g>
<!-- Node1&#45;&gt;Node16 -->
<g id="edge15_Node000001_Node000016" class="edge">
<title>Node1&#45;&gt;Node16</title>
<g id="a_edge15_Node000001_Node000016"><a xlink:title=" ">
<path fill="none" stroke="#63b8ff" d="M3014.09,-184.25C2853.65,-183.02 2448.79,-176.27 2112.5,-140 2109.34,-139.66 2106.12,-139.27 2102.87,-138.85"/>
<polygon fill="#63b8ff" stroke="#63b8ff" points="3014.27,-187.75 3024.3,-184.32 3014.32,-180.75 3014.27,-187.75"/>
</a>
</g>
</g>
<!-- Node17 -->
<g id="Node000017" class="node">
<title>Node17</title>
<g id="a_Node000017"><a xlink:href="ChocoMountain_8cpp.html" target="_top" xlink:title=" ">
<polygon fill="white" stroke="#666666" points="2320,-134.5 2121,-134.5 2121,-115.5 2320,-115.5 2320,-134.5"/>
<text text-anchor="middle" x="2220.5" y="-122.5" font-family="Helvetica,sans-Serif" font-size="10.00">src/engine/tracks/ChocoMountain.cpp</text>
</a>
</g>
</g>
<!-- Node1&#45;&gt;Node17 -->
<g id="edge16_Node000001_Node000017" class="edge">
<title>Node1&#45;&gt;Node17</title>
<g id="a_edge16_Node000001_Node000017"><a xlink:title=" ">
<path fill="none" stroke="#63b8ff" d="M3014.1,-181.97C2880.44,-176.81 2580.82,-163.52 2329.5,-140 2313.73,-138.52 2296.73,-136.53 2280.96,-134.52"/>
<polygon fill="#63b8ff" stroke="#63b8ff" points="3014.08,-185.47 3024.2,-182.36 3014.35,-178.48 3014.08,-185.47"/>
</a>
</g>
</g>
<!-- Node18 -->
<g id="Node000018" class="node">
<title>Node18</title>
<g id="a_Node000018"><a xlink:href="DKJungle_8cpp.html" target="_top" xlink:title=" ">
<polygon fill="white" stroke="#666666" points="2505,-134.5 2338,-134.5 2338,-115.5 2505,-115.5 2505,-134.5"/>
<text text-anchor="middle" x="2421.5" y="-122.5" font-family="Helvetica,sans-Serif" font-size="10.00">src/engine/tracks/DKJungle.cpp</text>
</a>
</g>
</g>
<!-- Node1&#45;&gt;Node18 -->
<g id="edge17_Node000001_Node000018" class="edge">
<title>Node1&#45;&gt;Node18</title>
<g id="a_edge17_Node000001_Node000018"><a xlink:title=" ">
<path fill="none" stroke="#63b8ff" d="M3014.37,-180.64C2906.65,-174.36 2694.11,-160.5 2514.5,-140 2501.2,-138.48 2486.88,-136.5 2473.55,-134.51"/>
<polygon fill="#63b8ff" stroke="#63b8ff" points="3014.27,-184.14 3024.46,-181.23 3014.68,-177.16 3014.27,-184.14"/>
</a>
</g>
</g>
<!-- Node19 -->
<g id="Node000019" class="node">
<title>Node19</title>
<g id="a_Node000019"><a xlink:href="DoubleDeck_8cpp.html" target="_top" xlink:title=" ">
<polygon fill="white" stroke="#666666" points="2660,-140 2523,-140 2523,-110 2660,-110 2660,-140"/>
<text text-anchor="start" x="2531" y="-128" font-family="Helvetica,sans-Serif" font-size="10.00">src/engine/tracks/Double</text>
<text text-anchor="middle" x="2591.5" y="-117" font-family="Helvetica,sans-Serif" font-size="10.00">Deck.cpp</text>
</a>
</g>
</g>
<!-- Node1&#45;&gt;Node19 -->
<g id="edge18_Node000001_Node000019" class="edge">
<title>Node1&#45;&gt;Node19</title>
<g id="a_edge18_Node000001_Node000019"><a xlink:title=" ">
<path fill="none" stroke="#63b8ff" d="M3014.16,-178.49C2931.47,-171.06 2790.17,-157.28 2669.5,-140 2666.5,-139.57 2663.45,-139.11 2660.36,-138.63"/>
<polygon fill="#63b8ff" stroke="#63b8ff" points="3013.93,-181.98 3024.2,-179.38 3014.55,-175.01 3013.93,-181.98"/>
</a>
</g>
</g>
<!-- Node20 -->
<g id="Node000020" class="node">
<title>Node20</title>
<g id="a_Node000020"><a xlink:href="FrappeSnowland_8cpp.html" target="_top" xlink:title=" ">
<polygon fill="white" stroke="#666666" points="2814.5,-140 2678.5,-140 2678.5,-110 2814.5,-110 2814.5,-140"/>
<text text-anchor="start" x="2686.5" y="-128" font-family="Helvetica,sans-Serif" font-size="10.00">src/engine/tracks/Frappe</text>
<text text-anchor="middle" x="2746.5" y="-117" font-family="Helvetica,sans-Serif" font-size="10.00">Snowland.cpp</text>
</a>
</g>
</g>
<!-- Node1&#45;&gt;Node20 -->
<g id="edge19_Node000001_Node000020" class="edge">
<title>Node1&#45;&gt;Node20</title>
<g id="a_edge19_Node000001_Node000020"><a xlink:title=" ">
<path fill="none" stroke="#63b8ff" d="M3023.8,-174.25C2971.09,-165.32 2892.73,-151.96 2824.5,-140 2821.25,-139.43 2817.92,-138.84 2814.56,-138.25"/>
<polygon fill="#63b8ff" stroke="#63b8ff" points="3023.22,-177.7 3033.66,-175.92 3024.39,-170.8 3023.22,-177.7"/>
</a>
</g>
</g>
<!-- Node21 -->
<g id="Node000021" class="node">
<title>Node21</title>
<g id="a_Node000021"><a xlink:href="Harbour_8cpp.html" target="_top" xlink:title=" ">
<polygon fill="white" stroke="#666666" points="2994,-134.5 2833,-134.5 2833,-115.5 2994,-115.5 2994,-134.5"/>
<text text-anchor="middle" x="2913.5" y="-122.5" font-family="Helvetica,sans-Serif" font-size="10.00">src/engine/tracks/Harbour.cpp</text>
</a>
</g>
</g>
<!-- Node1&#45;&gt;Node21 -->
<g id="edge20_Node000001_Node000021" class="edge">
<title>Node1&#45;&gt;Node21</title>
<g id="a_edge20_Node000001_Node000021"><a xlink:title=" ">
<path fill="none" stroke="#63b8ff" d="M3049.92,-172.67C3016.85,-161.36 2967.79,-144.57 2938.39,-134.52"/>
<polygon fill="#63b8ff" stroke="#63b8ff" points="3049.04,-176.07 3059.64,-175.99 3051.31,-169.45 3049.04,-176.07"/>
</a>
</g>
</g>
<!-- Node22 -->
<g id="Node000022" class="node">
<title>Node22</title>
<g id="a_Node000022"><a xlink:href="KalimariDesert_8cpp.html" target="_top" xlink:title=" ">
<polygon fill="white" stroke="#666666" points="3156.5,-140 3012.5,-140 3012.5,-110 3156.5,-110 3156.5,-140"/>
<text text-anchor="start" x="3020.5" y="-128" font-family="Helvetica,sans-Serif" font-size="10.00">src/engine/tracks/Kalimari</text>
<text text-anchor="middle" x="3084.5" y="-117" font-family="Helvetica,sans-Serif" font-size="10.00">Desert.cpp</text>
</a>
</g>
</g>
<!-- Node1&#45;&gt;Node22 -->
<g id="edge21_Node000001_Node000022" class="edge">
<title>Node1&#45;&gt;Node22</title>
<g id="a_edge21_Node000001_Node000022"><a xlink:title=" ">
<path fill="none" stroke="#63b8ff" d="M3084.5,-165.65C3084.5,-157.36 3084.5,-147.78 3084.5,-140.11"/>
<polygon fill="#63b8ff" stroke="#63b8ff" points="3081,-165.87 3084.5,-175.87 3088,-165.87 3081,-165.87"/>
</a>
</g>
</g>
<!-- Node23 -->
<g id="Node000023" class="node">
<title>Node23</title>
<g id="a_Node000023"><a xlink:href="KoopaTroopaBeach_8cpp.html" target="_top" xlink:title=" ">
<polygon fill="white" stroke="#666666" points="3340,-140 3175,-140 3175,-110 3340,-110 3340,-140"/>
<text text-anchor="start" x="3183" y="-128" font-family="Helvetica,sans-Serif" font-size="10.00">src/engine/tracks/KoopaTroopa</text>
<text text-anchor="middle" x="3257.5" y="-117" font-family="Helvetica,sans-Serif" font-size="10.00">Beach.cpp</text>
</a>
</g>
</g>
<!-- Node1&#45;&gt;Node23 -->
<g id="edge22_Node000001_Node000023" class="edge">
<title>Node1&#45;&gt;Node23</title>
<g id="a_edge22_Node000001_Node000023"><a xlink:title=" ">
<path fill="none" stroke="#63b8ff" d="M3119.38,-172.71C3147.25,-163.28 3186.4,-150.04 3215.91,-140.06"/>
<polygon fill="#63b8ff" stroke="#63b8ff" points="3118.01,-169.47 3109.66,-175.99 3120.25,-176.11 3118.01,-169.47"/>
</a>
</g>
</g>
<!-- Node24 -->
<g id="Node000024" class="node">
<title>Node24</title>
<g id="a_Node000024"><a xlink:href="LuigiRaceway_8cpp.html" target="_top" xlink:title=" ">
<polygon fill="white" stroke="#666666" points="3547,-134.5 3358,-134.5 3358,-115.5 3547,-115.5 3547,-134.5"/>
<text text-anchor="middle" x="3452.5" y="-122.5" font-family="Helvetica,sans-Serif" font-size="10.00">src/engine/tracks/LuigiRaceway.cpp</text>
</a>
</g>
</g>
<!-- Node1&#45;&gt;Node24 -->
<g id="edge23_Node000001_Node000024" class="edge">
<title>Node1&#45;&gt;Node24</title>
<g id="a_edge23_Node000001_Node000024"><a xlink:title=" ">
<path fill="none" stroke="#63b8ff" d="M3148.15,-174.38C3219.04,-163.11 3332.39,-145.09 3398.93,-134.52"/>
<polygon fill="#63b8ff" stroke="#63b8ff" points="3147.34,-170.97 3138.01,-175.99 3148.44,-177.88 3147.34,-170.97"/>
</a>
</g>
</g>
<!-- Node25 -->
<g id="Node000025" class="node">
<title>Node25</title>
<g id="a_Node000025"><a xlink:href="MarioRaceway_8cpp.html" target="_top" xlink:title=" ">
<polygon fill="white" stroke="#666666" points="3759.5,-134.5 3565.5,-134.5 3565.5,-115.5 3759.5,-115.5 3759.5,-134.5"/>
<text text-anchor="middle" x="3662.5" y="-122.5" font-family="Helvetica,sans-Serif" font-size="10.00">src/engine/tracks/MarioRaceway.cpp</text>
</a>
</g>
</g>
<!-- Node1&#45;&gt;Node25 -->
<g id="edge24_Node000001_Node000025" class="edge">
<title>Node1&#45;&gt;Node25</title>
<g id="a_edge24_Node000001_Node000025"><a xlink:title=" ">
<path fill="none" stroke="#63b8ff" d="M3154.61,-178.71C3246.86,-170.91 3414.01,-156.12 3556.5,-140 3570.89,-138.37 3586.35,-136.44 3600.89,-134.53"/>
<polygon fill="#63b8ff" stroke="#63b8ff" points="3154.22,-175.23 3144.55,-179.56 3154.81,-182.21 3154.22,-175.23"/>
</a>
</g>
</g>
<!-- Node26 -->
<g id="Node000026" class="node">
<title>Node26</title>
<g id="a_Node000026"><a xlink:href="MooMooFarm_8cpp.html" target="_top" xlink:title=" ">
<polygon fill="white" stroke="#666666" points="3923,-140 3778,-140 3778,-110 3923,-110 3923,-140"/>
<text text-anchor="start" x="3786" y="-128" font-family="Helvetica,sans-Serif" font-size="10.00">src/engine/tracks/MooMoo</text>
<text text-anchor="middle" x="3850.5" y="-117" font-family="Helvetica,sans-Serif" font-size="10.00">Farm.cpp</text>
</a>
</g>
</g>
<!-- Node1&#45;&gt;Node26 -->
<g id="edge25_Node000001_Node000026" class="edge">
<title>Node1&#45;&gt;Node26</title>
<g id="a_edge25_Node000001_Node000026"><a xlink:title=" ">
<path fill="none" stroke="#63b8ff" d="M3154.75,-182.34C3278.93,-177.99 3545.2,-166.25 3768.5,-140 3771.51,-139.65 3774.58,-139.26 3777.68,-138.84"/>
<polygon fill="#63b8ff" stroke="#63b8ff" points="3154.49,-178.85 3144.62,-182.69 3154.73,-185.85 3154.49,-178.85"/>
</a>
</g>
</g>
<!-- Node27 -->
<g id="Node000027" class="node">
<title>Node27</title>
<g id="a_Node000027"><a xlink:href="PodiumCeremony_8cpp.html" target="_top" xlink:title=" ">
<polygon fill="white" stroke="#666666" points="4081.5,-140 3941.5,-140 3941.5,-110 4081.5,-110 4081.5,-140"/>
<text text-anchor="start" x="3949.5" y="-128" font-family="Helvetica,sans-Serif" font-size="10.00">src/engine/tracks/Podium</text>
<text text-anchor="middle" x="4011.5" y="-117" font-family="Helvetica,sans-Serif" font-size="10.00">Ceremony.cpp</text>
</a>
</g>
</g>
<!-- Node1&#45;&gt;Node27 -->
<g id="edge26_Node000001_Node000027" class="edge">
<title>Node1&#45;&gt;Node27</title>
<g id="a_edge26_Node000001_Node000027"><a xlink:title=" ">
<path fill="none" stroke="#63b8ff" d="M3154.73,-183.73C3300.26,-181.5 3645.18,-172.87 3932.5,-140 3935.41,-139.67 3938.37,-139.3 3941.35,-138.89"/>
<polygon fill="#63b8ff" stroke="#63b8ff" points="3154.55,-180.23 3144.6,-183.88 3154.65,-187.23 3154.55,-180.23"/>
</a>
</g>
</g>
<!-- Node28 -->
<g id="Node000028" class="node">
<title>Node28</title>
<g id="a_Node000028"><a xlink:href="RainbowRoad_8cpp.html" target="_top" xlink:title=" ">
<polygon fill="white" stroke="#666666" points="4245,-140 4100,-140 4100,-110 4245,-110 4245,-140"/>
<text text-anchor="start" x="4108" y="-128" font-family="Helvetica,sans-Serif" font-size="10.00">src/engine/tracks/Rainbow</text>
<text text-anchor="middle" x="4172.5" y="-117" font-family="Helvetica,sans-Serif" font-size="10.00">Road.cpp</text>
</a>
</g>
</g>
<!-- Node1&#45;&gt;Node28 -->
<g id="edge27_Node000001_Node000028" class="edge">
<title>Node1&#45;&gt;Node28</title>
<g id="a_edge27_Node000001_Node000028"><a xlink:title=" ">
<path fill="none" stroke="#63b8ff" d="M3154.96,-184.4C3319.33,-183.52 3740.74,-177.45 4090.5,-140 4093.52,-139.68 4096.59,-139.31 4099.69,-138.92"/>
<polygon fill="#63b8ff" stroke="#63b8ff" points="3154.49,-180.91 3144.51,-184.45 3154.53,-187.91 3154.49,-180.91"/>
</a>
</g>
</g>
<!-- Node29 -->
<g id="Node000029" class="node">
<title>Node29</title>
<g id="a_Node000029"><a xlink:href="RoyalRaceway_8cpp.html" target="_top" xlink:title=" ">
<polygon fill="white" stroke="#666666" points="4457.5,-134.5 4263.5,-134.5 4263.5,-115.5 4457.5,-115.5 4457.5,-134.5"/>
<text text-anchor="middle" x="4360.5" y="-122.5" font-family="Helvetica,sans-Serif" font-size="10.00">src/engine/tracks/RoyalRaceway.cpp</text>
</a>
</g>
</g>
<!-- Node1&#45;&gt;Node29 -->
<g id="edge28_Node000001_Node000029" class="edge">
<title>Node1&#45;&gt;Node29</title>
<g id="a_edge28_Node000001_Node000029"><a xlink:title=" ">
<path fill="none" stroke="#63b8ff" d="M3154.83,-184.11C3336.91,-182.6 3838.5,-175.31 4254.5,-140 4270.41,-138.65 4287.59,-136.63 4303.39,-134.54"/>
<polygon fill="#63b8ff" stroke="#63b8ff" points="3154.56,-180.61 3144.59,-184.19 3154.62,-187.61 3154.56,-180.61"/>
</a>
</g>
</g>
<!-- Node30 -->
<g id="Node000030" class="node">
<title>Node30</title>
<g id="a_Node000030"><a xlink:href="SherbetLand_8cpp.html" target="_top" xlink:title=" ">
<polygon fill="white" stroke="#666666" points="4615.5,-140 4475.5,-140 4475.5,-110 4615.5,-110 4615.5,-140"/>
<text text-anchor="start" x="4483.5" y="-128" font-family="Helvetica,sans-Serif" font-size="10.00">src/engine/tracks/Sherbet</text>
<text text-anchor="middle" x="4545.5" y="-117" font-family="Helvetica,sans-Serif" font-size="10.00">Land.cpp</text>
</a>
</g>
</g>
<!-- Node1&#45;&gt;Node30 -->
<g id="edge29_Node000001_Node000030" class="edge">
<title>Node1&#45;&gt;Node30</title>
<g id="a_edge29_Node000001_Node000030"><a xlink:title=" ">
<path fill="none" stroke="#63b8ff" d="M3154.96,-183.57C3399.12,-180.12 4208.17,-166.91 4466.5,-140 4469.41,-139.7 4472.37,-139.35 4475.36,-138.97"/>
<polygon fill="#63b8ff" stroke="#63b8ff" points="3154.74,-180.07 3144.79,-183.71 3154.84,-187.07 3154.74,-180.07"/>
</a>
</g>
</g>
<!-- Node31 -->
<g id="Node000031" class="node">
<title>Node31</title>
<g id="a_Node000031"><a xlink:href="Skyscraper_8cpp.html" target="_top" xlink:title=" ">
<polygon fill="white" stroke="#666666" points="4809.5,-134.5 4633.5,-134.5 4633.5,-115.5 4809.5,-115.5 4809.5,-134.5"/>
<text text-anchor="middle" x="4721.5" y="-122.5" font-family="Helvetica,sans-Serif" font-size="10.00">src/engine/tracks/Skyscraper.cpp</text>
</a>
</g>
</g>
<!-- Node1&#45;&gt;Node31 -->
<g id="edge30_Node000001_Node000031" class="edge">
<title>Node1&#45;&gt;Node31</title>
<g id="a_edge30_Node000001_Node000031"><a xlink:title=" ">
<path fill="none" stroke="#63b8ff" d="M3154.93,-183.54C3416.67,-179.79 4333.26,-165.14 4624.5,-140 4639.42,-138.71 4655.54,-136.66 4670.28,-134.51"/>
<polygon fill="#63b8ff" stroke="#63b8ff" points="3154.74,-180.04 3144.79,-183.68 3154.84,-187.04 3154.74,-180.04"/>
</a>
</g>
</g>
<!-- Node32 -->
<g id="Node000032" class="node">
<title>Node32</title>
<g id="a_Node000032"><a xlink:href="TestTrack_8cpp.html" target="_top" xlink:title=" ">
<polygon fill="white" stroke="#666666" points="4995.5,-134.5 4827.5,-134.5 4827.5,-115.5 4995.5,-115.5 4995.5,-134.5"/>
<text text-anchor="middle" x="4911.5" y="-122.5" font-family="Helvetica,sans-Serif" font-size="10.00">src/engine/tracks/TestTrack.cpp</text>
</a>
</g>
</g>
<!-- Node1&#45;&gt;Node32 -->
<g id="edge31_Node000001_Node000032" class="edge">
<title>Node1&#45;&gt;Node32</title>
<g id="a_edge31_Node000001_Node000032"><a xlink:title=" ">
<path fill="none" stroke="#63b8ff" d="M3154.69,-183.86C3436.58,-181.11 4487.17,-169.08 4818.5,-140 4832.81,-138.74 4848.28,-136.7 4862.41,-134.55"/>
<polygon fill="#63b8ff" stroke="#63b8ff" points="3154.56,-180.36 3144.59,-183.96 3154.62,-187.36 3154.56,-180.36"/>
</a>
</g>
</g>
<!-- Node33 -->
<g id="Node000033" class="node">
<title>Node33</title>
<g id="a_Node000033"><a xlink:href="ToadsTurnpike_8cpp.html" target="_top" xlink:title=" ">
<polygon fill="white" stroke="#666666" points="5205,-134.5 5014,-134.5 5014,-115.5 5205,-115.5 5205,-134.5"/>
<text text-anchor="middle" x="5109.5" y="-122.5" font-family="Helvetica,sans-Serif" font-size="10.00">src/engine/tracks/ToadsTurnpike.cpp</text>
</a>
</g>
</g>
<!-- Node1&#45;&gt;Node33 -->
<g id="edge32_Node000001_Node000033" class="edge">
<title>Node1&#45;&gt;Node33</title>
<g id="a_edge32_Node000001_Node000033"><a xlink:title=" ">
<path fill="none" stroke="#63b8ff" d="M3155.08,-183.9C3456.17,-181.18 4634.51,-168.87 5004.5,-140 5020.73,-138.73 5038.28,-136.67 5054.31,-134.51"/>
<polygon fill="#63b8ff" stroke="#63b8ff" points="3154.71,-180.4 3144.75,-183.99 3154.78,-187.4 3154.71,-180.4"/>
</a>
</g>
</g>
<!-- Node34 -->
<g id="Node000034" class="node">
<title>Node34</title>
<g id="a_Node000034"><a xlink:href="Track_8cpp.html" target="_top" xlink:title=" ">
<polygon fill="white" stroke="#666666" points="5372,-134.5 5223,-134.5 5223,-115.5 5372,-115.5 5372,-134.5"/>
<text text-anchor="middle" x="5297.5" y="-122.5" font-family="Helvetica,sans-Serif" font-size="10.00">src/engine/tracks/Track.cpp</text>
</a>
</g>
</g>
<!-- Node1&#45;&gt;Node34 -->
<g id="edge33_Node000001_Node000034" class="edge">
<title>Node1&#45;&gt;Node34</title>
<g id="a_edge33_Node000001_Node000034"><a xlink:title=" ">
<path fill="none" stroke="#63b8ff" d="M3154.8,-184.41C3475.44,-183.81 4801.27,-178.96 5214.5,-140 5227.45,-138.78 5241.43,-136.72 5254.15,-134.54"/>
<polygon fill="#63b8ff" stroke="#63b8ff" points="3154.71,-180.91 3144.72,-184.43 3154.72,-187.91 3154.71,-180.91"/>
</a>
</g>
</g>
<!-- Node35 -->
<g id="Node000035" class="node">
<title>Node35</title>
<g id="a_Node000035"><a xlink:href="WarioStadium_8cpp.html" target="_top" xlink:title=" ">
<polygon fill="white" stroke="#666666" points="5581,-134.5 5390,-134.5 5390,-115.5 5581,-115.5 5581,-134.5"/>
<text text-anchor="middle" x="5485.5" y="-122.5" font-family="Helvetica,sans-Serif" font-size="10.00">src/engine/tracks/WarioStadium.cpp</text>
</a>
</g>
</g>
<!-- Node1&#45;&gt;Node35 -->
<g id="edge34_Node000001_Node000035" class="edge">
<title>Node1&#45;&gt;Node35</title>
<g id="a_edge34_Node000001_Node000035"><a xlink:title=" ">
<path fill="none" stroke="#63b8ff" d="M3154.73,-184.22C3490.31,-182.74 4932.78,-174.44 5381.5,-140 5397.67,-138.76 5415.16,-136.69 5431.11,-134.52"/>
<polygon fill="#63b8ff" stroke="#63b8ff" points="3154.64,-180.72 3144.65,-184.27 3154.67,-187.72 3154.64,-180.72"/>
</a>
</g>
</g>
<!-- Node36 -->
<g id="Node000036" class="node">
<title>Node36</title>
<g id="a_Node000036"><a xlink:href="YoshiValley_8cpp.html" target="_top" xlink:title=" ">
<polygon fill="white" stroke="#666666" points="5775.5,-134.5 5599.5,-134.5 5599.5,-115.5 5775.5,-115.5 5775.5,-134.5"/>
<text text-anchor="middle" x="5687.5" y="-122.5" font-family="Helvetica,sans-Serif" font-size="10.00">src/engine/tracks/YoshiValley.cpp</text>
</a>
</g>
</g>
<!-- Node1&#45;&gt;Node36 -->
<g id="edge35_Node000001_Node000036" class="edge">
<title>Node1&#45;&gt;Node36</title>
<g id="a_edge35_Node000001_Node000036"><a xlink:title=" ">
<path fill="none" stroke="#63b8ff" d="M3154.69,-184.45C3508.42,-183.99 5098.2,-179.74 5590.5,-140 5605.68,-138.77 5622.1,-136.7 5637.04,-134.51"/>
<polygon fill="#63b8ff" stroke="#63b8ff" points="3154.58,-180.95 3144.58,-184.46 3154.59,-187.95 3154.58,-180.95"/>
</a>
</g>
</g>
<!-- Node37 -->
<g id="Node000037" class="node">
<title>Node37</title>
<g id="a_Node000037"><a xlink:href="menu__items_8c.html" target="_top" xlink:title=" ">
<polygon fill="white" stroke="#666666" points="5897,-134.5 5794,-134.5 5794,-115.5 5897,-115.5 5897,-134.5"/>
<text text-anchor="middle" x="5845.5" y="-122.5" font-family="Helvetica,sans-Serif" font-size="10.00">src/menu_items.c</text>
</a>
</g>
</g>
<!-- Node1&#45;&gt;Node37 -->
<g id="edge36_Node000001_Node000037" class="edge">
<title>Node1&#45;&gt;Node37</title>
<g id="a_edge36_Node000001_Node000037"><a xlink:title=" ">
<path fill="none" stroke="#63b8ff" d="M3154.96,-184.22C3553.52,-182.52 5517.09,-172.53 5784.5,-140 5794.21,-138.82 5804.63,-136.74 5814.06,-134.54"/>
<polygon fill="#63b8ff" stroke="#63b8ff" points="3154.71,-180.72 3144.73,-184.26 3154.74,-187.72 3154.71,-180.72"/>
</a>
</g>
</g>
<!-- Node38 -->
<g id="Node000038" class="node">
<title>Node38</title>
<g id="a_Node000038"><a xlink:href="render__objects_8c.html" target="_top" xlink:title=" ">
<polygon fill="white" stroke="#666666" points="6029.5,-134.5 5915.5,-134.5 5915.5,-115.5 6029.5,-115.5 6029.5,-134.5"/>
<text text-anchor="middle" x="5972.5" y="-122.5" font-family="Helvetica,sans-Serif" font-size="10.00">src/render_objects.c</text>
</a>
</g>
</g>
<!-- Node1&#45;&gt;Node38 -->
<g id="edge37_Node000001_Node000038" class="edge">
<title>Node1&#45;&gt;Node38</title>
<g id="a_edge37_Node000001_Node000038"><a xlink:title=" ">
<path fill="none" stroke="#63b8ff" d="M3154.83,-184.2C3563.67,-182.38 5625.98,-171.66 5906.5,-140 5916.98,-138.82 5928.24,-136.74 5938.45,-134.53"/>
<polygon fill="#63b8ff" stroke="#63b8ff" points="3154.61,-180.71 3144.63,-184.25 3154.64,-187.71 3154.61,-180.71"/>
</a>
</g>
</g>
<!-- Node39 -->
<g id="Node000039" class="node">
<title>Node39</title>
<g id="a_Node000039"><a xlink:href="replays_8c.html" target="_top" xlink:title=" ">
<polygon fill="white" stroke="#666666" points="6125.5,-134.5 6047.5,-134.5 6047.5,-115.5 6125.5,-115.5 6125.5,-134.5"/>
<text text-anchor="middle" x="6086.5" y="-122.5" font-family="Helvetica,sans-Serif" font-size="10.00">src/replays.c</text>
</a>
</g>
</g>
<!-- Node1&#45;&gt;Node39 -->
<g id="edge38_Node000001_Node000039" class="edge">
<title>Node1&#45;&gt;Node39</title>
<g id="a_edge38_Node000001_Node000039"><a xlink:title=" ">
<path fill="none" stroke="#63b8ff" d="M3154.77,-184.57C3574.84,-184.85 5745.51,-184.11 6038.5,-140 6046.23,-138.84 6054.45,-136.76 6061.87,-134.56"/>
<polygon fill="#63b8ff" stroke="#63b8ff" points="3154.6,-181.07 3144.59,-184.56 3154.59,-188.07 3154.6,-181.07"/>
</a>
</g>
</g>
<!-- Node40 -->
<g id="Node000040" class="node">
<title>Node40</title>
<g id="a_Node000040"><a xlink:href="update__objects_8c.html" target="_top" xlink:title=" ">
<polygon fill="white" stroke="#666666" points="6259.5,-134.5 6143.5,-134.5 6143.5,-115.5 6259.5,-115.5 6259.5,-134.5"/>
<text text-anchor="middle" x="6201.5" y="-122.5" font-family="Helvetica,sans-Serif" font-size="10.00">src/update_objects.c</text>
</a>
</g>
</g>
<!-- Node1&#45;&gt;Node40 -->
<g id="edge39_Node000001_Node000040" class="edge">
<title>Node1&#45;&gt;Node40</title>
<g id="a_edge39_Node000001_Node000040"><a xlink:title=" ">
<path fill="none" stroke="#63b8ff" d="M3154.62,-184.28C3582.15,-182.85 5829.88,-173.73 6134.5,-140 6145.13,-138.82 6156.57,-136.74 6166.93,-134.54"/>
<polygon fill="#63b8ff" stroke="#63b8ff" points="3154.55,-180.78 3144.56,-184.32 3154.57,-187.78 3154.55,-180.78"/>
</a>
</g>
</g>
<!-- Node6 -->
<g id="Node000006" class="node">
<title>Node6</title>
<g id="a_Node000006"><a xlink:href="debug_8inc_8c.html" target="_top" xlink:title=" ">
<polygon fill="white" stroke="#666666" points="541.5,-74 419.5,-74 419.5,-55 541.5,-55 541.5,-74"/>
<text text-anchor="middle" x="480.5" y="-62" font-family="Helvetica,sans-Serif" font-size="10.00">src/debug/debug.inc.c</text>
</a>
</g>
</g>
<!-- Node5&#45;&gt;Node6 -->
<g id="edge5_Node000005_Node000006" class="edge">
<title>Node5&#45;&gt;Node6</title>
<g id="a_edge5_Node000005_Node000006"><a xlink:title=" ">
<path fill="none" stroke="#63b8ff" d="M480.5,-105.16C480.5,-94.74 480.5,-82.3 480.5,-74.17"/>
<polygon fill="#63b8ff" stroke="#63b8ff" points="477,-105.37 480.5,-115.37 484,-105.37 477,-105.37"/>
</a>
</g>
</g>
<!-- Node7 -->
<g id="Node000007" class="node">
<title>Node7</title>
<g id="a_Node000007"><a xlink:href="debug_8c.html" target="_top" xlink:title=" ">
<polygon fill="white" stroke="#666666" points="533,-19 428,-19 428,0 533,0 533,-19"/>
<text text-anchor="middle" x="480.5" y="-7" font-family="Helvetica,sans-Serif" font-size="10.00">src/debug/debug.c</text>
</a>
</g>
</g>
<!-- Node6&#45;&gt;Node7 -->
<g id="edge6_Node000006_Node000007" class="edge">
<title>Node6&#45;&gt;Node7</title>
<g id="a_edge6_Node000006_Node000007"><a xlink:title=" ">
<path fill="none" stroke="#63b8ff" d="M480.5,-44.66C480.5,-35.93 480.5,-25.99 480.5,-19.09"/>
<polygon fill="#63b8ff" stroke="#63b8ff" points="477,-44.75 480.5,-54.75 484,-44.75 477,-44.75"/>
</a>
</g>
</g>
</g>
</svg>
