<?xml version="1.0" encoding="UTF-8" standalone="no"?>
<!DOCTYPE svg PUBLIC "-//W3C//DTD SVG 1.1//EN"
 "http://www.w3.org/Graphics/SVG/1.1/DTD/svg11.dtd">
<!-- Generated by graphviz version 2.43.0 (0)
 -->
<!-- Title: init_hud Pages: 1 -->
<!--zoomable 495 -->

<svg id="main" version="1.1" xmlns="http://www.w3.org/2000/svg" xmlns:xlink="http://www.w3.org/1999/xlink" xml:space="preserve" onload="init(evt)">

<style type="text/css"><![CDATA[
.node, .edge {opacity: 0.7;}
.node.selected, .edge.selected {opacity: 1;}
.edge:hover path { stroke: red; }
.edge:hover polygon { stroke: red; fill: red; }
]]></style>

<defs>
  <circle id="rim" cx="0" cy="0" r="7"/>
  <circle id="rim2" cx="0" cy="0" r="3.5"/>
  <g id="zoomPlus">
    <use xlink:href="#rim" fill="#404040"><set attributeName="fill" to="#808080" begin="zoomplus.mouseover" end="zoomplus.mouseout"/></use>
    <path d="M-4,0h8M0,-4v8" fill="none" stroke="white" stroke-width="1.5" pointer-events="none"/>
  </g>
  <g id="zoomMin">
    <use xlink:href="#rim" fill="#404040"><set attributeName="fill" to="#808080" begin="zoomminus.mouseover" end="zoomminus.mouseout"/></use>
    <path d="M-4,0h8" fill="none" stroke="white" stroke-width="1.5" pointer-events="none"/>
  </g>
  <g id="arrowUp" transform="translate(30 24)">
    <use xlink:href="#rim"/>
    <path pointer-events="none" fill="none" stroke="white" stroke-width="1.5" d="M0,-3.0v7 M-2.5,-0.5L0,-3.0L2.5,-0.5"/>
  </g>
  <g id="arrowRight" transform="rotate(90) translate(36 -43)">
    <use xlink:href="#rim"/>
    <path pointer-events="none" fill="none" stroke="white" stroke-width="1.5" d="M0,-3.0v7 M-2.5,-0.5L0,-3.0L2.5,-0.5"/>
  </g>
  <g id="arrowDown" transform="rotate(180) translate(-30 -48)">
    <use xlink:href="#rim"/>
    <path pointer-events="none" fill="none" stroke="white" stroke-width="1.5" d="M0,-3.0v7 M-2.5,-0.5L0,-3.0L2.5,-0.5"/>
  </g>
  <g id="arrowLeft" transform="rotate(270) translate(-36 17)">
    <use xlink:href="#rim"/>
    <path pointer-events="none" fill="none" stroke="white" stroke-width="1.5" d="M0,-3.0v7 M-2.5,-0.5L0,-3.0L2.5,-0.5"/>
  </g>
  <g id="resetDef">
    <use xlink:href="#rim2" fill="#404040"><set attributeName="fill" to="#808080" begin="reset.mouseover" end="reset.mouseout"/></use>
  </g>
</defs>
<script type="application/ecmascript">
var viewWidth = 829;
var viewHeight = 495;
var sectionId = 'dynsection-21';
</script>
<script type="application/ecmascript" xlink:href="svg.min.js"/>
<svg id="graph" class="graph">
<g id="viewport">
<title>init_hud</title>
<!-- Node1 -->
<g id="Node000001" class="node">
<title>Node1</title>
<g id="a_Node000001"><a xlink:title=" ">
<polygon fill="#999999" stroke="#666666" points="56,-264.81 0,-264.81 0,-245.81 56,-245.81 56,-264.81"/>
<text text-anchor="middle" x="28" y="-252.81" font-family="Helvetica,sans-Serif" font-size="10.00">init_hud</text>
</a>
</g>
</g>
<!-- Node2 -->
<g id="Node000002" class="node">
<title>Node2</title>
<g id="a_Node000002"><a xlink:href="code__8006E9C0_8h.html#a0a15839e2884f0317e950c05b03e4f0b" target="_top" xlink:title=" ">
<polygon fill="white" stroke="#666666" points="198,-381.81 108,-381.81 108,-362.81 198,-362.81 198,-381.81"/>
<text text-anchor="middle" x="153" y="-369.81" font-family="Helvetica,sans-Serif" font-size="10.00">func_8006FA94</text>
</a>
</g>
</g>
<!-- Node1&#45;&gt;Node2 -->
<g id="edge1_Node000001_Node000002" class="edge">
<title>Node1&#45;&gt;Node2</title>
<g id="a_edge1_Node000001_Node000002"><a xlink:title=" ">
<path fill="none" stroke="#63b8ff" d="M32.51,-265.1C40.14,-284.98 60.16,-330.21 92,-354.31 94.09,-355.89 96.31,-357.33 98.63,-358.64"/>
<polygon fill="#63b8ff" stroke="#63b8ff" points="97.41,-361.94 107.94,-363.12 100.44,-355.63 97.41,-361.94"/>
</a>
</g>
</g>
<!-- Node3 -->
<g id="Node000003" class="node">
<title>Node3</title>
<g id="a_Node000003"><a xlink:href="code__8006E9C0_8c.html#a7ce8b772e14372f2078703a39e676d2a" target="_top" xlink:title=" ">
<polygon fill="white" stroke="#666666" points="198.5,-344.81 107.5,-344.81 107.5,-325.81 198.5,-325.81 198.5,-344.81"/>
<text text-anchor="middle" x="153" y="-332.81" font-family="Helvetica,sans-Serif" font-size="10.00">func_80070148</text>
</a>
</g>
</g>
<!-- Node1&#45;&gt;Node3 -->
<g id="edge2_Node000001_Node000003" class="edge">
<title>Node1&#45;&gt;Node3</title>
<g id="a_edge2_Node000001_Node000003"><a xlink:title=" ">
<path fill="none" stroke="#63b8ff" d="M36.44,-265.19C47.22,-278.86 68.49,-303.4 92,-317.31 94.85,-319 97.88,-320.54 101,-321.95"/>
<polygon fill="#63b8ff" stroke="#63b8ff" points="99.95,-325.3 110.53,-325.77 102.55,-318.8 99.95,-325.3"/>
</a>
</g>
</g>
<!-- Node5 -->
<g id="Node000005" class="node">
<title>Node5</title>
<g id="a_Node000005"><a xlink:href="code__8006E9C0_8c.html#a9b35328c0ffddc0723de4730c5e41431" target="_top" xlink:title=" ">
<polygon fill="white" stroke="#666666" points="210.5,-307.81 95.5,-307.81 95.5,-288.81 210.5,-288.81 210.5,-307.81"/>
<text text-anchor="middle" x="153" y="-295.81" font-family="Helvetica,sans-Serif" font-size="10.00">init_hud_one_player</text>
</a>
</g>
</g>
<!-- Node1&#45;&gt;Node5 -->
<g id="edge4_Node000001_Node000005" class="edge">
<title>Node1&#45;&gt;Node5</title>
<g id="a_edge4_Node000001_Node000005"><a xlink:title=" ">
<path fill="none" stroke="#63b8ff" d="M53.11,-264.87C64.8,-269.4 79.07,-274.8 92,-279.31 98.09,-281.43 104.57,-283.59 110.93,-285.65"/>
<polygon fill="#63b8ff" stroke="#63b8ff" points="110.16,-289.07 120.75,-288.78 112.29,-282.41 110.16,-289.07"/>
</a>
</g>
</g>
<!-- Node23 -->
<g id="Node000023" class="node">
<title>Node23</title>
<g id="a_Node000023"><a xlink:href="code__8006E9C0_8c.html#a36e7c29e21274b76d24f7c8864af5c3b" target="_top" xlink:title=" ">
<polygon fill="white" stroke="#666666" points="208.5,-174.31 97.5,-174.31 97.5,-144.31 208.5,-144.31 208.5,-174.31"/>
<text text-anchor="start" x="105.5" y="-162.31" font-family="Helvetica,sans-Serif" font-size="10.00">init_hud_three_four</text>
<text text-anchor="middle" x="153" y="-151.31" font-family="Helvetica,sans-Serif" font-size="10.00">_player</text>
</a>
</g>
</g>
<!-- Node1&#45;&gt;Node23 -->
<g id="edge31_Node000001_Node000023" class="edge">
<title>Node1&#45;&gt;Node23</title>
<g id="a_edge31_Node000001_Node000023"><a xlink:title=" ">
<path fill="none" stroke="#63b8ff" d="M35.23,-245.62C45.43,-230.44 67.06,-200.97 92,-183.31 94.08,-181.83 96.27,-180.43 98.52,-179.1"/>
<polygon fill="#63b8ff" stroke="#63b8ff" points="100.31,-182.11 107.49,-174.32 97.02,-175.94 100.31,-182.11"/>
</a>
</g>
</g>
<!-- Node24 -->
<g id="Node000024" class="node">
<title>Node24</title>
<g id="a_Node000024"><a xlink:href="code__8006E9C0_8c.html#ae0bbfee0194d6a21ab9c2133af28ae16" target="_top" xlink:title=" ">
<polygon fill="white" stroke="#666666" points="210.5,-270.31 95.5,-270.31 95.5,-240.31 210.5,-240.31 210.5,-270.31"/>
<text text-anchor="start" x="103.5" y="-258.31" font-family="Helvetica,sans-Serif" font-size="10.00">init_hud_two_player</text>
<text text-anchor="middle" x="153" y="-247.31" font-family="Helvetica,sans-Serif" font-size="10.00">_horizontal</text>
</a>
</g>
</g>
<!-- Node1&#45;&gt;Node24 -->
<g id="edge37_Node000001_Node000024" class="edge">
<title>Node1&#45;&gt;Node24</title>
<g id="a_edge37_Node000001_Node000024"><a xlink:title=" ">
<path fill="none" stroke="#63b8ff" d="M56.3,-255.31C64.9,-255.31 74.8,-255.31 84.91,-255.31"/>
<polygon fill="#63b8ff" stroke="#63b8ff" points="85.05,-258.81 95.05,-255.31 85.05,-251.81 85.05,-258.81"/>
</a>
</g>
</g>
<!-- Node25 -->
<g id="Node000025" class="node">
<title>Node25</title>
<g id="a_Node000025"><a xlink:href="code__8006E9C0_8c.html#aa98fba14045af26e5c13a6a72442b8be" target="_top" xlink:title=" ">
<polygon fill="white" stroke="#666666" points="210.5,-222.31 95.5,-222.31 95.5,-192.31 210.5,-192.31 210.5,-222.31"/>
<text text-anchor="start" x="103.5" y="-210.31" font-family="Helvetica,sans-Serif" font-size="10.00">init_hud_two_player</text>
<text text-anchor="middle" x="153" y="-199.31" font-family="Helvetica,sans-Serif" font-size="10.00">_vertical</text>
</a>
</g>
</g>
<!-- Node1&#45;&gt;Node25 -->
<g id="edge43_Node000001_Node000025" class="edge">
<title>Node1&#45;&gt;Node25</title>
<g id="a_edge43_Node000001_Node000025"><a xlink:title=" ">
<path fill="none" stroke="#63b8ff" d="M53.6,-245.71C68.03,-240.08 86.76,-232.77 104.01,-226.04"/>
<polygon fill="#63b8ff" stroke="#63b8ff" points="105.36,-229.27 113.4,-222.37 102.81,-222.75 105.36,-229.27"/>
</a>
</g>
</g>
<!-- Node26 -->
<g id="Node000026" class="node">
<title>Node26</title>
<g id="a_Node000026"><a xlink:href="code__8006E9C0_8c.html#a90b6f11f43c81c8c033805cfddb8fc89" target="_top" xlink:title=" ">
<polygon fill="white" stroke="#666666" points="214,-52.81 92,-52.81 92,-33.81 214,-33.81 214,-52.81"/>
<text text-anchor="middle" x="153" y="-40.81" font-family="Helvetica,sans-Serif" font-size="10.00">reset_object_variable</text>
</a>
</g>
</g>
<!-- Node1&#45;&gt;Node26 -->
<g id="edge49_Node000001_Node000026" class="edge">
<title>Node1&#45;&gt;Node26</title>
<g id="a_edge49_Node000001_Node000026"><a xlink:title=" ">
<path fill="none" stroke="#63b8ff" d="M33.61,-245.81C43.63,-225.3 68.42,-175.49 92,-135.31 107.44,-109 127.01,-79.65 139.52,-61.33"/>
<polygon fill="#63b8ff" stroke="#63b8ff" points="142.43,-63.28 145.21,-53.05 136.66,-59.31 142.43,-63.28"/>
</a>
</g>
</g>
<!-- Node4 -->
<g id="Node000004" class="node">
<title>Node4</title>
<g id="a_Node000004"><a xlink:href="update__objects_8c.html#a92856990c4ca5fba1b8e0c61ca832c27" target="_top" xlink:title=" ">
<polygon fill="white" stroke="#666666" points="534,-315.81 406,-315.81 406,-296.81 534,-296.81 534,-315.81"/>
<text text-anchor="middle" x="470" y="-303.81" font-family="Helvetica,sans-Serif" font-size="10.00">find_unused_obj_index</text>
</a>
</g>
</g>
<!-- Node3&#45;&gt;Node4 -->
<g id="edge3_Node000003_Node000004" class="edge">
<title>Node3&#45;&gt;Node4</title>
<g id="a_edge3_Node000003_Node000004"><a xlink:title=" ">
<path fill="none" stroke="#63b8ff" d="M184.85,-344.89C227.17,-356.59 305.34,-372.98 370,-357.31 398.39,-350.43 427.75,-333.91 447.05,-321.52"/>
<polygon fill="#63b8ff" stroke="#63b8ff" points="448.99,-324.43 455.41,-316 445.14,-318.58 448.99,-324.43"/>
</a>
</g>
</g>
<!-- Node5&#45;&gt;Node4 -->
<g id="edge5_Node000005_Node000004" class="edge">
<title>Node5&#45;&gt;Node4</title>
<g id="a_edge5_Node000005_Node000004"><a xlink:title=" ">
<path fill="none" stroke="#63b8ff" d="M189.12,-307.86C197.42,-310.55 206.15,-313.73 214,-317.31 231.06,-325.08 231.95,-334.23 250,-339.31 301.34,-353.75 317.36,-347.85 370,-339.31 393.3,-335.53 418.53,-327.05 437.68,-319.63"/>
<polygon fill="#63b8ff" stroke="#63b8ff" points="439.11,-322.83 447.11,-315.88 436.52,-316.33 439.11,-322.83"/>
</a>
</g>
</g>
<!-- Node6 -->
<g id="Node000006" class="node">
<title>Node6</title>
<g id="a_Node000006"><a xlink:href="code__8006E9C0_8c.html#adabe944683b893973bd60b26b4a9d6f6" target="_top" xlink:title=" ">
<polygon fill="white" stroke="#666666" points="356,-183.81 264,-183.81 264,-164.81 356,-164.81 356,-183.81"/>
<text text-anchor="middle" x="310" y="-171.81" font-family="Helvetica,sans-Serif" font-size="10.00">func_8007055C</text>
</a>
</g>
</g>
<!-- Node5&#45;&gt;Node6 -->
<g id="edge6_Node000005_Node000006" class="edge">
<title>Node5&#45;&gt;Node6</title>
<g id="a_edge6_Node000005_Node000006"><a xlink:title=" ">
<path fill="none" stroke="#63b8ff" d="M195.91,-288.69C202.28,-286.22 208.54,-283.14 214,-279.31 235.54,-264.19 232.58,-252.02 250,-232.31 262.83,-217.79 278.52,-202.47 290.49,-191.22"/>
<polygon fill="#63b8ff" stroke="#63b8ff" points="293.16,-193.52 298.11,-184.15 288.4,-188.39 293.16,-193.52"/>
</a>
</g>
</g>
<!-- Node9 -->
<g id="Node000009" class="node">
<title>Node9</title>
<g id="a_Node000009"><a xlink:href="save_8c.html#a590a89e6ed89945271c4289d6cadf64e" target="_top" xlink:title=" ">
<polygon fill="white" stroke="#666666" points="356,-485.81 264,-485.81 264,-466.81 356,-466.81 356,-485.81"/>
<text text-anchor="middle" x="310" y="-473.81" font-family="Helvetica,sans-Serif" font-size="10.00">func_800B4E24</text>
</a>
</g>
</g>
<!-- Node5&#45;&gt;Node9 -->
<g id="edge9_Node000005_Node000009" class="edge">
<title>Node5&#45;&gt;Node9</title>
<g id="a_edge9_Node000005_Node000009"><a xlink:title=" ">
<path fill="none" stroke="#63b8ff" d="M201.03,-307.85C205.86,-310.32 210.32,-313.42 214,-317.31 258.42,-364.32 205.33,-411.53 250,-458.31 251.59,-459.98 253.33,-461.49 255.19,-462.87"/>
<polygon fill="#63b8ff" stroke="#63b8ff" points="253.55,-465.96 263.93,-468.05 257.11,-459.94 253.55,-465.96"/>
</a>
</g>
</g>
<!-- Node16 -->
<g id="Node000016" class="node">
<title>Node16</title>
<g id="a_Node000016"><a xlink:href="save_8c.html#aeb6bf308b677f5d69746807a3404ed49" target="_top" xlink:title=" ">
<polygon fill="white" stroke="#666666" points="356,-448.81 264,-448.81 264,-429.81 356,-429.81 356,-448.81"/>
<text text-anchor="middle" x="310" y="-436.81" font-family="Helvetica,sans-Serif" font-size="10.00">func_800B4F2C</text>
</a>
</g>
</g>
<!-- Node5&#45;&gt;Node16 -->
<g id="edge17_Node000005_Node000016" class="edge">
<title>Node5&#45;&gt;Node16</title>
<g id="a_edge17_Node000005_Node000016"><a xlink:title=" ">
<path fill="none" stroke="#63b8ff" d="M197.54,-307.9C203.43,-310.36 209.11,-313.45 214,-317.31 238.4,-336.58 231.17,-352.56 250,-377.31 262.4,-393.6 278.55,-410.32 290.81,-422.29"/>
<polygon fill="#63b8ff" stroke="#63b8ff" points="288.6,-425.01 298.24,-429.41 293.45,-419.96 288.6,-425.01"/>
</a>
</g>
</g>
<!-- Node17 -->
<g id="Node000017" class="node">
<title>Node17</title>
<g id="a_Node000017"><a xlink:href="code__8006E9C0_8c.html#a95bd792f4507dd26cf251c980bd9214b" target="_top" xlink:title=" ">
<polygon fill="white" stroke="#666666" points="362.5,-146.81 257.5,-146.81 257.5,-127.81 362.5,-127.81 362.5,-146.81"/>
<text text-anchor="middle" x="310" y="-134.81" font-family="Helvetica,sans-Serif" font-size="10.00">init_course_object</text>
</a>
</g>
</g>
<!-- Node5&#45;&gt;Node17 -->
<g id="edge21_Node000005_Node000017" class="edge">
<title>Node5&#45;&gt;Node17</title>
<g id="a_edge21_Node000005_Node000017"><a xlink:title=" ">
<path fill="none" stroke="#63b8ff" d="M200.61,-288.79C205.57,-286.32 210.18,-283.22 214,-279.31 254.09,-238.24 209.7,-196.16 250,-155.31 250.95,-154.34 251.95,-153.43 253,-152.56"/>
<polygon fill="#63b8ff" stroke="#63b8ff" points="255.28,-155.25 261.73,-146.84 251.44,-149.4 255.28,-155.25"/>
</a>
</g>
</g>
<!-- Node21 -->
<g id="Node000021" class="node">
<title>Node21</title>
<g id="a_Node000021"><a xlink:href="code__8006E9C0_8c.html#a7fd371a62513a311ab8903e23511dc9b" target="_top" xlink:title=" ">
<polygon fill="white" stroke="#666666" points="361.5,-259.81 258.5,-259.81 258.5,-240.81 361.5,-240.81 361.5,-259.81"/>
<text text-anchor="middle" x="310" y="-247.81" font-family="Helvetica,sans-Serif" font-size="10.00">init_item_window</text>
</a>
</g>
</g>
<!-- Node5&#45;&gt;Node21 -->
<g id="edge28_Node000005_Node000021" class="edge">
<title>Node5&#45;&gt;Node21</title>
<g id="a_edge28_Node000005_Node000021"><a xlink:title=" ">
<path fill="none" stroke="#63b8ff" d="M184.99,-288.71C208.97,-281.29 242.36,-270.95 268.45,-262.87"/>
<polygon fill="#63b8ff" stroke="#63b8ff" points="269.54,-266.19 278.06,-259.89 267.47,-259.5 269.54,-266.19"/>
</a>
</g>
</g>
<!-- Node22 -->
<g id="Node000022" class="node">
<title>Node22</title>
<g id="a_Node000022"><a xlink:href="code__8006E9C0_8c.html#ac9869b321dfbda91715daf48a65b2075" target="_top" xlink:title=" ">
<polygon fill="white" stroke="#666666" points="370,-296.81 250,-296.81 250,-277.81 370,-277.81 370,-296.81"/>
<text text-anchor="middle" x="310" y="-284.81" font-family="Helvetica,sans-Serif" font-size="10.00">init_object_list_index</text>
</a>
</g>
</g>
<!-- Node5&#45;&gt;Node22 -->
<g id="edge29_Node000005_Node000022" class="edge">
<title>Node5&#45;&gt;Node22</title>
<g id="a_edge29_Node000005_Node000022"><a xlink:title=" ">
<path fill="none" stroke="#63b8ff" d="M210.84,-294.27C220.26,-293.61 230.13,-292.91 239.82,-292.22"/>
<polygon fill="#63b8ff" stroke="#63b8ff" points="240.1,-295.71 249.83,-291.51 239.61,-288.72 240.1,-295.71"/>
</a>
</g>
</g>
<!-- Node7 -->
<g id="Node000007" class="node">
<title>Node7</title>
<g id="a_Node000007"><a xlink:href="effects_8c.html#a39f746571de71a6f7dc193320afc377c" target="_top" xlink:title=" ">
<polygon fill="white" stroke="#666666" points="516,-183.81 424,-183.81 424,-164.81 516,-164.81 516,-183.81"/>
<text text-anchor="middle" x="470" y="-171.81" font-family="Helvetica,sans-Serif" font-size="10.00">func_8008C23C</text>
</a>
</g>
</g>
<!-- Node6&#45;&gt;Node7 -->
<g id="edge7_Node000006_Node000007" class="edge">
<title>Node6&#45;&gt;Node7</title>
<g id="a_edge7_Node000006_Node000007"><a xlink:title=" ">
<path fill="none" stroke="#63b8ff" d="M356.28,-174.31C374.2,-174.31 394.98,-174.31 413.78,-174.31"/>
<polygon fill="#63b8ff" stroke="#63b8ff" points="413.99,-177.81 423.99,-174.31 413.99,-170.81 413.99,-177.81"/>
</a>
</g>
</g>
<!-- Node8 -->
<g id="Node000008" class="node">
<title>Node8</title>
<g id="a_Node000008"><a xlink:href="Sky_8cpp.html#a608ec30656e958e6ac701fadd35703a6" target="_top" xlink:title=" ">
<polygon fill="white" stroke="#666666" points="510,-220.81 430,-220.81 430,-201.81 510,-201.81 510,-220.81"/>
<text text-anchor="middle" x="470" y="-208.81" font-family="Helvetica,sans-Serif" font-size="10.00">InitSkyActors</text>
</a>
</g>
</g>
<!-- Node6&#45;&gt;Node8 -->
<g id="edge8_Node000006_Node000008" class="edge">
<title>Node6&#45;&gt;Node8</title>
<g id="a_edge8_Node000006_Node000008"><a xlink:title=" ">
<path fill="none" stroke="#63b8ff" d="M351.69,-183.84C372.54,-188.72 398.09,-194.7 420.02,-199.84"/>
<polygon fill="#63b8ff" stroke="#63b8ff" points="419.28,-203.26 429.81,-202.13 420.87,-196.44 419.28,-203.26"/>
</a>
</g>
</g>
<!-- Node10 -->
<g id="Node000010" class="node">
<title>Node10</title>
<g id="a_Node000010"><a xlink:href="save_8c.html#a5b764da80aeb63b24b59906b4c9aa000" target="_top" xlink:title=" ">
<polygon fill="white" stroke="#666666" points="516.5,-448.81 423.5,-448.81 423.5,-429.81 516.5,-429.81 516.5,-448.81"/>
<text text-anchor="middle" x="470" y="-436.81" font-family="Helvetica,sans-Serif" font-size="10.00">func_800B4DF4</text>
</a>
</g>
</g>
<!-- Node9&#45;&gt;Node10 -->
<g id="edge10_Node000009_Node000010" class="edge">
<title>Node9&#45;&gt;Node10</title>
<g id="a_edge10_Node000009_Node000010"><a xlink:title=" ">
<path fill="none" stroke="#63b8ff" d="M351.69,-466.78C371.97,-462.03 396.71,-456.24 418.22,-451.2"/>
<polygon fill="#63b8ff" stroke="#63b8ff" points="419.24,-454.56 428.17,-448.87 417.64,-447.74 419.24,-454.56"/>
</a>
</g>
</g>
<!-- Node11 -->
<g id="Node000011" class="node">
<title>Node11</title>
<g id="a_Node000011"><a xlink:href="Game_8cpp.html#ae131a8b6906df364a68be4307caab750" target="_top" xlink:title=" ">
<polygon fill="white" stroke="#666666" points="531.5,-410.81 408.5,-410.81 408.5,-391.81 531.5,-391.81 531.5,-410.81"/>
<text text-anchor="middle" x="470" y="-398.81" font-family="Helvetica,sans-Serif" font-size="10.00">GetCupCursorPosition</text>
</a>
</g>
</g>
<!-- Node9&#45;&gt;Node11 -->
<g id="edge11_Node000009_Node000011" class="edge">
<title>Node9&#45;&gt;Node11</title>
<g id="a_edge11_Node000009_Node000011"><a xlink:title=" ">
<path fill="none" stroke="#63b8ff" d="M351.84,-466.81C358.15,-464.51 364.42,-461.71 370,-458.31 389.59,-446.36 386.48,-433.36 406,-421.31 410.12,-418.77 414.58,-416.52 419.18,-414.54"/>
<polygon fill="#63b8ff" stroke="#63b8ff" points="420.65,-417.72 428.71,-410.84 418.12,-411.19 420.65,-417.72"/>
</a>
</g>
</g>
<!-- Node14 -->
<g id="Node000014" class="node">
<title>Node14</title>
<g id="a_Node000014"><a xlink:href="Game_8cpp.html#a0499ce6f7f2cd1b56b0674de6c0cc813" target="_top" xlink:title=" ">
<polygon fill="white" stroke="#666666" points="510,-485.81 430,-485.81 430,-466.81 510,-466.81 510,-485.81"/>
<text text-anchor="middle" x="470" y="-473.81" font-family="Helvetica,sans-Serif" font-size="10.00">GetCupIndex</text>
</a>
</g>
</g>
<!-- Node9&#45;&gt;Node14 -->
<g id="edge14_Node000009_Node000014" class="edge">
<title>Node9&#45;&gt;Node14</title>
<g id="a_edge14_Node000009_Node000014"><a xlink:title=" ">
<path fill="none" stroke="#63b8ff" d="M356.28,-476.31C376.08,-476.31 399.36,-476.31 419.61,-476.31"/>
<polygon fill="#63b8ff" stroke="#63b8ff" points="419.88,-479.81 429.88,-476.31 419.88,-472.81 419.88,-479.81"/>
</a>
</g>
</g>
<!-- Node12 -->
<g id="Node000012" class="node">
<title>Node12</title>
<g id="a_Node000012"><a xlink:href="classWorld.html#a37da13d556bec8e05d87b87942bdb19e" target="_top" xlink:title=" ">
<polygon fill="white" stroke="#666666" points="692,-410.81 570,-410.81 570,-391.81 692,-391.81 692,-410.81"/>
<text text-anchor="middle" x="631" y="-398.81" font-family="Helvetica,sans-Serif" font-size="10.00">World::GetCurrentCup</text>
</a>
</g>
</g>
<!-- Node11&#45;&gt;Node12 -->
<g id="edge12_Node000011_Node000012" class="edge">
<title>Node11&#45;&gt;Node12</title>
<g id="a_edge12_Node000011_Node000012"><a xlink:title=" ">
<path fill="none" stroke="#63b8ff" d="M531.56,-401.31C540.78,-401.31 550.36,-401.31 559.76,-401.31"/>
<polygon fill="#63b8ff" stroke="#63b8ff" points="559.87,-404.81 569.87,-401.31 559.87,-397.81 559.87,-404.81"/>
</a>
</g>
</g>
<!-- Node13 -->
<g id="Node000013" class="node">
<title>Node13</title>
<g id="a_Node000013"><a xlink:href="Game_8cpp.html#ae2fa844b3cb1021ecbc357f8ed2ad8cc" target="_top" xlink:title=" ">
<polygon fill="white" stroke="#666666" points="805.5,-311.81 743.5,-311.81 743.5,-292.81 805.5,-292.81 805.5,-311.81"/>
<text text-anchor="middle" x="774.5" y="-299.81" font-family="Helvetica,sans-Serif" font-size="10.00">GetWorld</text>
</a>
</g>
</g>
<!-- Node11&#45;&gt;Node13 -->
<g id="edge13_Node000011_Node000013" class="edge">
<title>Node11&#45;&gt;Node13</title>
<g id="a_edge13_Node000011_Node000013"><a xlink:title=" ">
<path fill="none" stroke="#63b8ff" d="M500.28,-391.73C555.06,-373.8 673.03,-335.19 734.49,-315.08"/>
<polygon fill="#63b8ff" stroke="#63b8ff" points="735.79,-318.33 744.2,-311.9 733.61,-311.68 735.79,-318.33"/>
</a>
</g>
</g>
<!-- Node14&#45;&gt;Node13 -->
<g id="edge16_Node000014_Node000013" class="edge">
<title>Node14&#45;&gt;Node13</title>
<g id="a_edge16_Node000014_Node000013"><a xlink:title=" ">
<path fill="none" stroke="#63b8ff" d="M510.13,-469.81C565.37,-460.06 662.75,-440.64 692,-420.31 728.46,-394.97 753.67,-347.68 765.61,-321.31"/>
<polygon fill="#63b8ff" stroke="#63b8ff" points="768.88,-322.58 769.66,-312.01 762.46,-319.78 768.88,-322.58"/>
</a>
</g>
</g>
<!-- Node15 -->
<g id="Node000015" class="node">
<title>Node15</title>
<g id="a_Node000015"><a xlink:href="classWorld.html#ab508b5afe4c28e1b222d3fa1bcebd63f" target="_top" xlink:title=" ">
<polygon fill="white" stroke="#666666" points="687.5,-486.81 574.5,-486.81 574.5,-467.81 687.5,-467.81 687.5,-486.81"/>
<text text-anchor="middle" x="631" y="-474.81" font-family="Helvetica,sans-Serif" font-size="10.00">World::GetCupIndex</text>
</a>
</g>
</g>
<!-- Node14&#45;&gt;Node15 -->
<g id="edge15_Node000014_Node000015" class="edge">
<title>Node14&#45;&gt;Node15</title>
<g id="a_edge15_Node000014_Node000015"><a xlink:title=" ">
<path fill="none" stroke="#63b8ff" d="M510.3,-476.56C526.6,-476.66 545.95,-476.78 564.29,-476.89"/>
<polygon fill="#63b8ff" stroke="#63b8ff" points="564.33,-480.4 574.35,-476.96 564.37,-473.4 564.33,-480.4"/>
</a>
</g>
</g>
<!-- Node16&#45;&gt;Node10 -->
<g id="edge18_Node000016_Node000010" class="edge">
<title>Node16&#45;&gt;Node10</title>
<g id="a_edge18_Node000016_Node000010"><a xlink:title=" ">
<path fill="none" stroke="#63b8ff" d="M356.28,-439.31C374.05,-439.31 394.63,-439.31 413.3,-439.31"/>
<polygon fill="#63b8ff" stroke="#63b8ff" points="413.44,-442.81 423.44,-439.31 413.44,-435.81 413.44,-442.81"/>
</a>
</g>
</g>
<!-- Node16&#45;&gt;Node11 -->
<g id="edge19_Node000016_Node000011" class="edge">
<title>Node16&#45;&gt;Node11</title>
<g id="a_edge19_Node000016_Node000011"><a xlink:title=" ">
<path fill="none" stroke="#63b8ff" d="M350.87,-429.72C371.72,-424.7 397.43,-418.52 419.54,-413.2"/>
<polygon fill="#63b8ff" stroke="#63b8ff" points="420.51,-416.57 429.42,-410.83 418.88,-409.76 420.51,-416.57"/>
</a>
</g>
</g>
<!-- Node16&#45;&gt;Node14 -->
<g id="edge20_Node000016_Node000014" class="edge">
<title>Node16&#45;&gt;Node14</title>
<g id="a_edge20_Node000016_Node000014"><a xlink:title=" ">
<path fill="none" stroke="#63b8ff" d="M351.69,-448.84C372.54,-453.72 398.09,-459.7 420.02,-464.84"/>
<polygon fill="#63b8ff" stroke="#63b8ff" points="419.28,-468.26 429.81,-467.13 420.87,-461.44 419.28,-468.26"/>
</a>
</g>
</g>
<!-- Node18 -->
<g id="Node000018" class="node">
<title>Node18</title>
<g id="a_Node000018"><a xlink:href="Game_8cpp.html#a872b3eafef96f83081b83794fb4681e5" target="_top" xlink:title=" ">
<polygon fill="white" stroke="#666666" points="528,-146.81 412,-146.81 412,-127.81 528,-127.81 528,-146.81"/>
<text text-anchor="middle" x="470" y="-134.81" font-family="Helvetica,sans-Serif" font-size="10.00">CM_InitTrackObjects</text>
</a>
</g>
</g>
<!-- Node17&#45;&gt;Node18 -->
<g id="edge22_Node000017_Node000018" class="edge">
<title>Node17&#45;&gt;Node18</title>
<g id="a_edge22_Node000017_Node000018"><a xlink:title=" ">
<path fill="none" stroke="#63b8ff" d="M362.74,-137.31C375.16,-137.31 388.62,-137.31 401.64,-137.31"/>
<polygon fill="#63b8ff" stroke="#63b8ff" points="401.96,-140.81 411.96,-137.31 401.96,-133.81 401.96,-140.81"/>
</a>
</g>
</g>
<!-- Node18&#45;&gt;Node13 -->
<g id="edge27_Node000018_Node000013" class="edge">
<title>Node18&#45;&gt;Node13</title>
<g id="a_edge27_Node000018_Node000013"><a xlink:title=" ">
<path fill="none" stroke="#63b8ff" d="M516.01,-146.87C522.29,-149.13 528.48,-151.91 534,-155.31 554.09,-167.67 551.32,-179.91 570,-194.31 624.67,-236.44 698.1,-270.84 740.16,-288.79"/>
<polygon fill="#63b8ff" stroke="#63b8ff" points="738.82,-292.03 749.39,-292.69 741.54,-285.58 738.82,-292.03"/>
</a>
</g>
</g>
<!-- Node19 -->
<g id="Node000019" class="node">
<title>Node19</title>
<g id="a_Node000019"><a xlink:href="Game_8cpp.html#a0967ca61e9f768c9e278fef7b8030085" target="_top" xlink:title=" ">
<polygon fill="white" stroke="#666666" points="660.5,-184.81 601.5,-184.81 601.5,-165.81 660.5,-165.81 660.5,-184.81"/>
<text text-anchor="middle" x="631" y="-172.81" font-family="Helvetica,sans-Serif" font-size="10.00">GetTrack</text>
</a>
</g>
</g>
<!-- Node18&#45;&gt;Node19 -->
<g id="edge23_Node000018_Node000019" class="edge">
<title>Node18&#45;&gt;Node19</title>
<g id="a_edge23_Node000018_Node000019"><a xlink:title=" ">
<path fill="none" stroke="#63b8ff" d="M511.12,-146.9C535.75,-152.78 567.13,-160.28 591.47,-166.1"/>
<polygon fill="#63b8ff" stroke="#63b8ff" points="590.89,-169.56 601.42,-168.48 592.51,-162.75 590.89,-169.56"/>
</a>
</g>
</g>
<!-- Node20 -->
<g id="Node000020" class="node">
<title>Node20</title>
<g id="a_Node000020"><a xlink:href="classWorld.html#a1a4dacc6aea0b846df998be0afc239f7" target="_top" xlink:title=" ">
<polygon fill="white" stroke="#666666" points="821,-165.81 728,-165.81 728,-146.81 821,-146.81 821,-165.81"/>
<text text-anchor="middle" x="774.5" y="-153.81" font-family="Helvetica,sans-Serif" font-size="10.00">World::GetTrack</text>
</a>
</g>
</g>
<!-- Node18&#45;&gt;Node20 -->
<g id="edge26_Node000018_Node000020" class="edge">
<title>Node18&#45;&gt;Node20</title>
<g id="a_edge26_Node000018_Node000020"><a xlink:title=" ">
<path fill="none" stroke="#63b8ff" d="M528.25,-140.9C582.64,-144.32 663.9,-149.42 717.78,-152.81"/>
<polygon fill="#63b8ff" stroke="#63b8ff" points="717.64,-156.31 727.84,-153.44 718.08,-149.32 717.64,-156.31"/>
</a>
</g>
</g>
<!-- Node19&#45;&gt;Node13 -->
<g id="edge25_Node000019_Node000013" class="edge">
<title>Node19&#45;&gt;Node13</title>
<g id="a_edge25_Node000019_Node000013"><a xlink:title=" ">
<path fill="none" stroke="#63b8ff" d="M642.64,-184.85C666.61,-206.37 725.09,-258.86 755.09,-285.78"/>
<polygon fill="#63b8ff" stroke="#63b8ff" points="752.96,-288.58 762.74,-292.65 757.64,-283.37 752.96,-288.58"/>
</a>
</g>
</g>
<!-- Node19&#45;&gt;Node20 -->
<g id="edge24_Node000019_Node000020" class="edge">
<title>Node19&#45;&gt;Node20</title>
<g id="a_edge24_Node000019_Node000020"><a xlink:title=" ">
<path fill="none" stroke="#63b8ff" d="M660.63,-171.46C677.07,-169.26 698.27,-166.41 717.86,-163.78"/>
<polygon fill="#63b8ff" stroke="#63b8ff" points="718.47,-167.23 727.92,-162.43 717.54,-160.29 718.47,-167.23"/>
</a>
</g>
</g>
<!-- Node22&#45;&gt;Node4 -->
<g id="edge30_Node000022_Node000004" class="edge">
<title>Node22&#45;&gt;Node4</title>
<g id="a_edge30_Node000022_Node000004"><a xlink:title=" ">
<path fill="none" stroke="#63b8ff" d="M370.28,-294.44C378.65,-295.44 387.34,-296.49 395.93,-297.52"/>
<polygon fill="#63b8ff" stroke="#63b8ff" points="395.6,-301.01 405.95,-298.73 396.44,-294.06 395.6,-301.01"/>
</a>
</g>
</g>
<!-- Node23&#45;&gt;Node4 -->
<g id="edge32_Node000023_Node000004" class="edge">
<title>Node23&#45;&gt;Node4</title>
<g id="a_edge32_Node000023_Node000004"><a xlink:title=" ">
<path fill="none" stroke="#63b8ff" d="M177.65,-144.22C220.32,-119.09 311.24,-75.48 370,-118.31 412.25,-149.11 380.86,-184.46 406,-230.31 418.24,-252.62 437.48,-274.62 451.48,-289.16"/>
<polygon fill="#63b8ff" stroke="#63b8ff" points="449.12,-291.76 458.64,-296.43 454.11,-286.85 449.12,-291.76"/>
</a>
</g>
</g>
<!-- Node23&#45;&gt;Node6 -->
<g id="edge33_Node000023_Node000006" class="edge">
<title>Node23&#45;&gt;Node6</title>
<g id="a_edge33_Node000023_Node000006"><a xlink:title=" ">
<path fill="none" stroke="#63b8ff" d="M208.65,-164.6C223.17,-166 238.86,-167.52 253.43,-168.93"/>
<polygon fill="#63b8ff" stroke="#63b8ff" points="253.51,-172.45 263.8,-169.93 254.18,-165.49 253.51,-172.45"/>
</a>
</g>
</g>
<!-- Node23&#45;&gt;Node17 -->
<g id="edge34_Node000023_Node000017" class="edge">
<title>Node23&#45;&gt;Node17</title>
<g id="a_edge34_Node000023_Node000017"><a xlink:title=" ">
<path fill="none" stroke="#63b8ff" d="M208.65,-151.55C221.16,-149.78 234.55,-147.87 247.34,-146.06"/>
<polygon fill="#63b8ff" stroke="#63b8ff" points="248.03,-149.5 257.44,-144.63 247.05,-142.57 248.03,-149.5"/>
</a>
</g>
</g>
<!-- Node23&#45;&gt;Node21 -->
<g id="edge35_Node000023_Node000021" class="edge">
<title>Node23&#45;&gt;Node21</title>
<g id="a_edge35_Node000023_Node000021"><a xlink:title=" ">
<path fill="none" stroke="#63b8ff" d="M195.25,-174.32C201.65,-177.07 208.08,-180.1 214,-183.31 241.56,-198.27 270.67,-219.75 289.28,-234.33"/>
<polygon fill="#63b8ff" stroke="#63b8ff" points="287.28,-237.21 297.29,-240.68 291.63,-231.73 287.28,-237.21"/>
</a>
</g>
</g>
<!-- Node23&#45;&gt;Node22 -->
<g id="edge36_Node000023_Node000022" class="edge">
<title>Node23&#45;&gt;Node22</title>
<g id="a_edge36_Node000023_Node000022"><a xlink:title=" ">
<path fill="none" stroke="#63b8ff" d="M202.35,-174.48C206.59,-177 210.56,-179.92 214,-183.31 243.53,-212.37 219.27,-241.51 250,-269.31 251.31,-270.49 252.7,-271.6 254.14,-272.63"/>
<polygon fill="#63b8ff" stroke="#63b8ff" points="252.59,-275.78 263,-277.8 256.12,-269.74 252.59,-275.78"/>
</a>
</g>
</g>
<!-- Node24&#45;&gt;Node4 -->
<g id="edge38_Node000024_Node000004" class="edge">
<title>Node24&#45;&gt;Node4</title>
<g id="a_edge38_Node000024_Node000004"><a xlink:title=" ">
<path fill="none" stroke="#63b8ff" d="M193.67,-270.31C200.58,-273.35 207.6,-276.73 214,-280.31 231.22,-289.95 231.22,-300.24 250,-306.31 298.83,-322.1 357.06,-321.24 401.19,-316.89"/>
<polygon fill="#63b8ff" stroke="#63b8ff" points="401.66,-320.36 411.24,-315.82 400.92,-313.4 401.66,-320.36"/>
</a>
</g>
</g>
<!-- Node24&#45;&gt;Node6 -->
<g id="edge39_Node000024_Node000006" class="edge">
<title>Node24&#45;&gt;Node6</title>
<g id="a_edge39_Node000024_Node000006"><a xlink:title=" ">
<path fill="none" stroke="#63b8ff" d="M194.41,-240.17C201.04,-237.4 207.77,-234.4 214,-231.31 239.47,-218.67 267.2,-201.63 286.09,-189.48"/>
<polygon fill="#63b8ff" stroke="#63b8ff" points="288.12,-192.33 294.6,-183.94 284.31,-186.46 288.12,-192.33"/>
</a>
</g>
</g>
<!-- Node24&#45;&gt;Node17 -->
<g id="edge40_Node000024_Node000017" class="edge">
<title>Node24&#45;&gt;Node17</title>
<g id="a_edge40_Node000024_Node000017"><a xlink:title=" ">
<path fill="none" stroke="#63b8ff" d="M201.89,-240.15C206.27,-237.62 210.4,-234.69 214,-231.31 241.23,-205.71 221.71,-179.74 250,-155.31 251.37,-154.13 252.81,-153.03 254.31,-152"/>
<polygon fill="#63b8ff" stroke="#63b8ff" points="256.45,-154.81 263.45,-146.86 253.02,-148.71 256.45,-154.81"/>
</a>
</g>
</g>
<!-- Node24&#45;&gt;Node21 -->
<g id="edge41_Node000024_Node000021" class="edge">
<title>Node24&#45;&gt;Node21</title>
<g id="a_edge41_Node000024_Node000021"><a xlink:title=" ">
<path fill="none" stroke="#63b8ff" d="M210.84,-253.47C222.99,-253.08 235.87,-252.67 248.16,-252.27"/>
<polygon fill="#63b8ff" stroke="#63b8ff" points="248.44,-255.76 258.32,-251.94 248.21,-248.77 248.44,-255.76"/>
</a>
</g>
</g>
<!-- Node24&#45;&gt;Node22 -->
<g id="edge42_Node000024_Node000022" class="edge">
<title>Node24&#45;&gt;Node22</title>
<g id="a_edge42_Node000024_Node000022"><a xlink:title=" ">
<path fill="none" stroke="#63b8ff" d="M210.84,-267.04C224.6,-269.88 239.31,-272.92 253.03,-275.75"/>
<polygon fill="#63b8ff" stroke="#63b8ff" points="252.32,-279.18 262.83,-277.78 253.74,-272.33 252.32,-279.18"/>
</a>
</g>
</g>
<!-- Node25&#45;&gt;Node4 -->
<g id="edge44_Node000025_Node000004" class="edge">
<title>Node25&#45;&gt;Node4</title>
<g id="a_edge44_Node000025_Node000004"><a xlink:title=" ">
<path fill="none" stroke="#63b8ff" d="M210.54,-205.9C255.3,-206.64 318.61,-211.87 370,-232.31 402.65,-245.3 434.04,-271.95 452.42,-289.47"/>
<polygon fill="#63b8ff" stroke="#63b8ff" points="450.09,-292.09 459.69,-296.57 454.99,-287.08 450.09,-292.09"/>
</a>
</g>
</g>
<!-- Node25&#45;&gt;Node6 -->
<g id="edge45_Node000025_Node000006" class="edge">
<title>Node25&#45;&gt;Node6</title>
<g id="a_edge45_Node000025_Node000006"><a xlink:title=" ">
<path fill="none" stroke="#63b8ff" d="M210.84,-195.21C225.02,-192.19 240.2,-188.96 254.28,-185.96"/>
<polygon fill="#63b8ff" stroke="#63b8ff" points="255.25,-189.33 264.3,-183.82 253.79,-182.48 255.25,-189.33"/>
</a>
</g>
</g>
<!-- Node25&#45;&gt;Node17 -->
<g id="edge46_Node000025_Node000017" class="edge">
<title>Node25&#45;&gt;Node17</title>
<g id="a_edge46_Node000025_Node000017"><a xlink:title=" ">
<path fill="none" stroke="#63b8ff" d="M196.03,-192.26C202.19,-189.55 208.36,-186.55 214,-183.31 231.58,-173.22 232.01,-164.64 250,-155.31 253.48,-153.5 257.18,-151.84 260.95,-150.33"/>
<polygon fill="#63b8ff" stroke="#63b8ff" points="262.24,-153.58 270.42,-146.85 259.83,-147.01 262.24,-153.58"/>
</a>
</g>
</g>
<!-- Node25&#45;&gt;Node21 -->
<g id="edge47_Node000025_Node000021" class="edge">
<title>Node25&#45;&gt;Node21</title>
<g id="a_edge47_Node000025_Node000021"><a xlink:title=" ">
<path fill="none" stroke="#63b8ff" d="M208.21,-222.35C226.6,-227.45 246.92,-233.09 264.47,-237.95"/>
<polygon fill="#63b8ff" stroke="#63b8ff" points="263.87,-241.42 274.44,-240.72 265.74,-234.68 263.87,-241.42"/>
</a>
</g>
</g>
<!-- Node25&#45;&gt;Node22 -->
<g id="edge48_Node000025_Node000022" class="edge">
<title>Node25&#45;&gt;Node22</title>
<g id="a_edge48_Node000025_Node000022"><a xlink:title=" ">
<path fill="none" stroke="#63b8ff" d="M198.07,-222.35C203.63,-224.98 209.08,-227.97 214,-231.31 233.25,-244.38 230.22,-257.06 250,-269.31 252.65,-270.95 255.45,-272.44 258.35,-273.81"/>
<polygon fill="#63b8ff" stroke="#63b8ff" points="257.23,-277.14 267.81,-277.76 259.93,-270.68 257.23,-277.14"/>
</a>
</g>
</g>
<!-- Node27 -->
<g id="Node000027" class="node">
<title>Node27</title>
<g id="a_Node000027"><a xlink:href="bstring_8h.html#ab828ad07c8ebf898973f27778c543651" target="_top" xlink:title=" ">
<polygon fill="white" stroke="#666666" points="492,-33.81 448,-33.81 448,-14.81 492,-14.81 492,-33.81"/>
<text text-anchor="middle" x="470" y="-21.81" font-family="Helvetica,sans-Serif" font-size="10.00">bzero</text>
</a>
</g>
</g>
<!-- Node26&#45;&gt;Node27 -->
<g id="edge50_Node000026_Node000027" class="edge">
<title>Node26&#45;&gt;Node27</title>
<g id="a_edge50_Node000026_Node000027"><a xlink:title=" ">
<path fill="none" stroke="#63b8ff" d="M172.14,-33.73C190.99,-24.35 221.65,-10.71 250,-5.31 316.32,7.34 395.57,-6.57 438.2,-16.37"/>
<polygon fill="#63b8ff" stroke="#63b8ff" points="437.43,-19.78 447.97,-18.69 439.05,-12.97 437.43,-19.78"/>
</a>
</g>
</g>
<!-- Node28 -->
<g id="Node000028" class="node">
<title>Node28</title>
<g id="a_Node000028"><a xlink:href="code__8006E9C0_8c.html#a8a550ccbf88c5850622c9ce854e3bc07" target="_top" xlink:title=" ">
<polygon fill="white" stroke="#666666" points="358,-70.81 262,-70.81 262,-51.81 358,-51.81 358,-70.81"/>
<text text-anchor="middle" x="310" y="-58.81" font-family="Helvetica,sans-Serif" font-size="10.00">clear_object_list</text>
</a>
</g>
</g>
<!-- Node26&#45;&gt;Node28 -->
<g id="edge51_Node000026_Node000028" class="edge">
<title>Node26&#45;&gt;Node28</title>
<g id="a_edge51_Node000026_Node000028"><a xlink:title=" ">
<path fill="none" stroke="#63b8ff" d="M214.37,-50.32C226.72,-51.75 239.69,-53.26 251.92,-54.68"/>
<polygon fill="#63b8ff" stroke="#63b8ff" points="251.65,-58.17 261.99,-55.85 252.46,-51.22 251.65,-58.17"/>
</a>
</g>
</g>
<!-- Node29 -->
<g id="Node000029" class="node">
<title>Node29</title>
<g id="a_Node000029"><a xlink:href="code__8006E9C0_8c.html#a2e7b50a4e958c5bd727b199ced2511e5" target="_top" xlink:title=" ">
<polygon fill="white" stroke="#666666" points="356,-33.81 264,-33.81 264,-14.81 356,-14.81 356,-33.81"/>
<text text-anchor="middle" x="310" y="-21.81" font-family="Helvetica,sans-Serif" font-size="10.00">func_8006EB10</text>
</a>
</g>
</g>
<!-- Node26&#45;&gt;Node29 -->
<g id="edge53_Node000026_Node000029" class="edge">
<title>Node26&#45;&gt;Node29</title>
<g id="a_edge53_Node000026_Node000029"><a xlink:title=" ">
<path fill="none" stroke="#63b8ff" d="M214.37,-35.91C227.38,-34.31 241.07,-32.63 253.87,-31.07"/>
<polygon fill="#63b8ff" stroke="#63b8ff" points="254.42,-34.53 263.92,-29.83 253.57,-27.58 254.42,-34.53"/>
</a>
</g>
</g>
<!-- Node28&#45;&gt;Node27 -->
<g id="edge52_Node000028_Node000027" class="edge">
<title>Node28&#45;&gt;Node27</title>
<g id="a_edge52_Node000028_Node000027"><a xlink:title=" ">
<path fill="none" stroke="#63b8ff" d="M351.69,-51.78C378.57,-45.48 413.26,-37.36 437.93,-31.58"/>
<polygon fill="#63b8ff" stroke="#63b8ff" points="438.9,-34.95 447.83,-29.26 437.3,-28.14 438.9,-34.95"/>
</a>
</g>
</g>
</g>
</svg>

<g id="navigator" transform="translate(0 0)" fill="#404254">
  <rect fill="#f2f5e9" fill-opacity="0.5" stroke="#606060" stroke-width=".5" x="0" y="0" width="60" height="60"/>
  <use id="zoomplus" xlink:href="#zoomPlus" x="17" y="9" onmousedown="handleZoom(evt,'in')"/>
  <use id="zoomminus" xlink:href="#zoomMin" x="42" y="9" onmousedown="handleZoom(evt,'out')"/>
  <use id="reset" xlink:href="#resetDef" x="30" y="36" onmousedown="handleReset()"/>
   <use id="arrowup" xlink:href="#arrowUp" x="0" y="0" onmousedown="handlePan(0,-1)"/>
  <use id="arrowright" xlink:href="#arrowRight" x="0" y="0" onmousedown="handlePan(1,0)"/>
  <use id="arrowdown" xlink:href="#arrowDown" x="0" y="0" onmousedown="handlePan(0,1)"/>
  <use id="arrowleft" xlink:href="#arrowLeft" x="0" y="0" onmousedown="handlePan(-1,0)"/>
</g>
<svg viewBox="0 0 15 15" width="100%" height="30px" preserveAspectRatio="xMaxYMin meet">
 <g id="arrow_out" transform="scale(0.3 0.3)">
  <a xlink:href="code__8006E9C0_8c_a47667a5a47fd4ca740865e963ce795c9_cgraph_org.svg" target="_base">
   <rect id="button" ry="5" rx="5" y="6" x="6" height="38" width="38"
        fill="#f2f5e9" fill-opacity="0.5" stroke="#606060" stroke-width="1.0"/>
   <path id="arrow"
     d="M 11.500037,31.436501 C 11.940474,20.09759 22.043105,11.32322 32.158766,21.979434 L 37.068811,17.246167 C 37.068811,17.246167 37.088388,32 37.088388,32 L 22.160133,31.978069 C 22.160133,31.978069 26.997745,27.140456 26.997745,27.140456 C 18.528582,18.264221 13.291696,25.230495 11.500037,31.436501 z"
     style="fill:#404040;"/>
  </a>
 </g>
</svg>

<style type='text/css'>
<![CDATA[
[data-mouse-over-selected='false'] { opacity: 0.7; }
[data-mouse-over-selected='true']  { opacity: 1.0; }
]]>
</style>
<script type="application/ecmascript"><![CDATA[
document.addEventListener('DOMContentLoaded', (event) => {
  highlightEdges();
  highlightAdjacentNodes();
});
]]></script>
</svg>
