<?xml version="1.0" encoding="UTF-8" standalone="no"?>
<!DOCTYPE svg PUBLIC "-//W3C//DTD SVG 1.1//EN"
 "http://www.w3.org/Graphics/SVG/1.1/DTD/svg11.dtd">
<!-- Generated by graphviz version 2.43.0 (0)
 -->
<!-- Title: render_music_note Pages: 1 -->
<svg width="854pt" height="351pt"
 viewBox="0.00 0.00 854.00 350.50" xmlns="http://www.w3.org/2000/svg" xmlns:xlink="http://www.w3.org/1999/xlink">
<g id="graph0" class="graph" transform="scale(1 1) rotate(0) translate(4 346.5)">
<title>render_music_note</title>
<!-- Node1 -->
<g id="Node000001" class="node">
<title>Node1</title>
<g id="a_Node000001"><a xlink:title=" ">
<polygon fill="#999999" stroke="#666666" points="110,-172 0,-172 0,-153 110,-153 110,-172"/>
<text text-anchor="middle" x="55" y="-160" font-family="Helvetica,sans-Serif" font-size="10.00">render_music_note</text>
</a>
</g>
</g>
<!-- Node2 -->
<g id="Node000002" class="node">
<title>Node2</title>
<g id="a_Node000002"><a xlink:href="math__util_8c.html#ae69cbf5c8d4b3b0dba2d7b4d4673689f" target="_top" xlink:title=" ">
<polygon fill="white" stroke="#666666" points="511.5,-320 473.5,-320 473.5,-301 511.5,-301 511.5,-320"/>
<text text-anchor="middle" x="492.5" y="-308" font-family="Helvetica,sans-Serif" font-size="10.00">coss</text>
</a>
</g>
</g>
<!-- Node1&#45;&gt;Node2 -->
<g id="edge1_Node000001_Node000002" class="edge">
<title>Node1&#45;&gt;Node2</title>
<g id="a_edge1_Node000001_Node000002"><a xlink:title=" ">
<path fill="none" stroke="#63b8ff" d="M68.92,-172.17C101.39,-195.91 189.87,-257.12 274,-284.5 339.37,-305.77 420.87,-309.97 463.12,-310.59"/>
<polygon fill="#63b8ff" stroke="#63b8ff" points="463.2,-314.1 473.23,-310.69 463.26,-307.1 463.2,-314.1"/>
</a>
</g>
</g>
<!-- Node3 -->
<g id="Node000003" class="node">
<title>Node3</title>
<g id="a_Node000003"><a xlink:href="FrameInterpolation_8cpp.html#a3a036bc9d533e28a4e9697cd20dccf3e" target="_top" xlink:title=" ">
<polygon fill="white" stroke="#666666" points="687,-342.5 577,-342.5 577,-312.5 687,-312.5 687,-342.5"/>
<text text-anchor="start" x="585" y="-330.5" font-family="Helvetica,sans-Serif" font-size="10.00">FrameInterpolation</text>
<text text-anchor="middle" x="632" y="-319.5" font-family="Helvetica,sans-Serif" font-size="10.00">_RecordCloseChild</text>
</a>
</g>
</g>
<!-- Node1&#45;&gt;Node3 -->
<g id="edge2_Node000001_Node000003" class="edge">
<title>Node1&#45;&gt;Node3</title>
<g id="a_edge2_Node000001_Node000003"><a xlink:title=" ">
<path fill="none" stroke="#63b8ff" d="M62.32,-172.03C75.62,-191.43 108.41,-235.82 146,-261.5 196.3,-295.86 214.74,-296.38 274,-310.5 374.1,-334.36 494.33,-334.44 566.6,-331.54"/>
<polygon fill="#63b8ff" stroke="#63b8ff" points="567.07,-335.02 576.91,-331.09 566.76,-328.03 567.07,-335.02"/>
</a>
</g>
</g>
<!-- Node5 -->
<g id="Node000005" class="node">
<title>Node5</title>
<g id="a_Node000005"><a xlink:href="FrameInterpolation_8cpp.html#a0eda726b74eac815af4e874014e2727c" target="_top" xlink:title=" ">
<polygon fill="white" stroke="#666666" points="687,-94.5 577,-94.5 577,-64.5 687,-64.5 687,-94.5"/>
<text text-anchor="start" x="585" y="-82.5" font-family="Helvetica,sans-Serif" font-size="10.00">FrameInterpolation</text>
<text text-anchor="middle" x="632" y="-71.5" font-family="Helvetica,sans-Serif" font-size="10.00">_RecordOpenChild</text>
</a>
</g>
</g>
<!-- Node1&#45;&gt;Node5 -->
<g id="edge4_Node000001_Node000005" class="edge">
<title>Node1&#45;&gt;Node5</title>
<g id="a_edge4_Node000001_Node000005"><a xlink:title=" ">
<path fill="none" stroke="#63b8ff" d="M86.33,-152.9C128.11,-140.09 205.95,-117.72 274,-106.5 375.42,-89.77 494.78,-83.39 566.58,-80.97"/>
<polygon fill="#63b8ff" stroke="#63b8ff" points="566.94,-84.46 576.82,-80.64 566.71,-77.46 566.94,-84.46"/>
</a>
</g>
</g>
<!-- Node6 -->
<g id="Node000006" class="node">
<title>Node6</title>
<g id="a_Node000006"><a xlink:href="render__objects_8c.html#a9ea20c14c263ed864d8e02d082b6b18b" target="_top" xlink:title=" ">
<polygon fill="white" stroke="#666666" points="238,-56 146,-56 146,-37 238,-37 238,-56"/>
<text text-anchor="middle" x="192" y="-44" font-family="Helvetica,sans-Serif" font-size="10.00">func_8004B414</text>
</a>
</g>
</g>
<!-- Node1&#45;&gt;Node6 -->
<g id="edge6_Node000001_Node000006" class="edge">
<title>Node1&#45;&gt;Node6</title>
<g id="a_edge6_Node000001_Node000006"><a xlink:title=" ">
<path fill="none" stroke="#63b8ff" d="M63.63,-152.95C78.21,-135.11 111.67,-96.23 146,-70.5 150.52,-67.11 155.57,-63.93 160.62,-61.05"/>
<polygon fill="#63b8ff" stroke="#63b8ff" points="162.44,-64.05 169.58,-56.23 159.12,-57.88 162.44,-64.05"/>
</a>
</g>
</g>
<!-- Node7 -->
<g id="Node000007" class="node">
<title>Node7</title>
<g id="a_Node000007"><a xlink:href="code__80057C60_8c.html#afe48d8fb3ea987ea8782c445f30eb8c3" target="_top" xlink:title=" ">
<polygon fill="white" stroke="#666666" points="238,-172 146,-172 146,-153 238,-153 238,-172"/>
<text text-anchor="middle" x="192" y="-160" font-family="Helvetica,sans-Serif" font-size="10.00">func_800652D4</text>
</a>
</g>
</g>
<!-- Node1&#45;&gt;Node7 -->
<g id="edge7_Node000001_Node000007" class="edge">
<title>Node1&#45;&gt;Node7</title>
<g id="a_edge7_Node000001_Node000007"><a xlink:title=" ">
<path fill="none" stroke="#63b8ff" d="M110.13,-162.5C118.58,-162.5 127.32,-162.5 135.79,-162.5"/>
<polygon fill="#63b8ff" stroke="#63b8ff" points="135.96,-166 145.96,-162.5 135.96,-159 135.96,-166"/>
</a>
</g>
</g>
<!-- Node17 -->
<g id="Node000017" class="node">
<title>Node17</title>
<g id="a_Node000017"><a xlink:href="math__util_8c.html#a19ed3bd78fd2d3e2bd0a29f6caf48545" target="_top" xlink:title=" ">
<polygon fill="white" stroke="#666666" points="510.5,-244 474.5,-244 474.5,-225 510.5,-225 510.5,-244"/>
<text text-anchor="middle" x="492.5" y="-232" font-family="Helvetica,sans-Serif" font-size="10.00">sins</text>
</a>
</g>
</g>
<!-- Node1&#45;&gt;Node17 -->
<g id="edge25_Node000001_Node000017" class="edge">
<title>Node1&#45;&gt;Node17</title>
<g id="a_edge25_Node000001_Node000017"><a xlink:title=" ">
<path fill="none" stroke="#63b8ff" d="M98.94,-172.07C113.81,-175.25 130.6,-178.7 146,-181.5 264.03,-202.99 405.81,-222.9 464.27,-230.85"/>
<polygon fill="#63b8ff" stroke="#63b8ff" points="463.81,-234.32 474.19,-232.19 464.75,-227.38 463.81,-234.32"/>
</a>
</g>
</g>
<!-- Node18 -->
<g id="Node000018" class="node">
<title>Node18</title>
<g id="a_Node000018"><a xlink:href="GBIMiddleware_8cpp.html#a4ecc44e3c6f1ca5a6b4a20c41d3bd2d2" target="_top" xlink:title=" ">
<polygon fill="white" stroke="#666666" points="236.5,-19 147.5,-19 147.5,0 236.5,0 236.5,-19"/>
<text text-anchor="middle" x="192" y="-7" font-family="Helvetica,sans-Serif" font-size="10.00">gSPDisplayList</text>
</a>
</g>
</g>
<!-- Node1&#45;&gt;Node18 -->
<g id="edge22_Node000001_Node000018" class="edge">
<title>Node1&#45;&gt;Node18</title>
<g id="a_edge22_Node000001_Node000018"><a xlink:title=" ">
<path fill="none" stroke="#63b8ff" d="M59.95,-152.89C70.42,-128.57 101.16,-63.88 146,-27.5 147.52,-26.27 149.13,-25.11 150.81,-24.02"/>
<polygon fill="#63b8ff" stroke="#63b8ff" points="152.54,-27.07 159.62,-19.18 149.17,-20.93 152.54,-27.07"/>
</a>
</g>
</g>
<!-- Node4 -->
<g id="Node000004" class="node">
<title>Node4</title>
<g id="a_Node000004"><a xlink:href="FrameInterpolation_8cpp.html#a02c7ac5342a4d376edee38f312b480bf" target="_top" xlink:title=" ">
<polygon fill="white" stroke="#666666" points="846,-185 738,-185 738,-166 846,-166 846,-185"/>
<text text-anchor="middle" x="792" y="-173" font-family="Helvetica,sans-Serif" font-size="10.00">check_if_recording</text>
</a>
</g>
</g>
<!-- Node3&#45;&gt;Node4 -->
<g id="edge3_Node000003_Node000004" class="edge">
<title>Node3&#45;&gt;Node4</title>
<g id="a_edge3_Node000003_Node000004"><a xlink:title=" ">
<path fill="none" stroke="#63b8ff" d="M665.6,-312.43C677.71,-306 691.14,-297.82 702,-288.5 735.13,-260.08 764.51,-217.79 779.82,-193.82"/>
<polygon fill="#63b8ff" stroke="#63b8ff" points="782.8,-195.65 785.14,-185.32 776.87,-191.93 782.8,-195.65"/>
</a>
</g>
</g>
<!-- Node5&#45;&gt;Node4 -->
<g id="edge5_Node000005_Node000004" class="edge">
<title>Node5&#45;&gt;Node4</title>
<g id="a_edge5_Node000005_Node000004"><a xlink:title=" ">
<path fill="none" stroke="#63b8ff" d="M682.9,-94.53C689.48,-97.18 696.01,-100.17 702,-103.5 729.47,-118.77 756.96,-142.65 773.96,-158.67"/>
<polygon fill="#63b8ff" stroke="#63b8ff" points="771.79,-161.43 781.42,-165.83 776.64,-156.38 771.79,-161.43"/>
</a>
</g>
</g>
<!-- Node8 -->
<g id="Node000008" class="node">
<title>Node8</title>
<g id="a_Node000008"><a xlink:href="Matrix_8cpp.html#abcc586bf25e812a2fcaea1cd869a626b" target="_top" xlink:title=" ">
<polygon fill="white" stroke="#666666" points="396,-172 301,-172 301,-153 396,-153 396,-172"/>
<text text-anchor="middle" x="348.5" y="-160" font-family="Helvetica,sans-Serif" font-size="10.00">AddEffectMatrix</text>
</a>
</g>
</g>
<!-- Node7&#45;&gt;Node8 -->
<g id="edge8_Node000007_Node000008" class="edge">
<title>Node7&#45;&gt;Node8</title>
<g id="a_edge8_Node000007_Node000008"><a xlink:title=" ">
<path fill="none" stroke="#63b8ff" d="M238.1,-162.5C254.63,-162.5 273.55,-162.5 290.96,-162.5"/>
<polygon fill="#63b8ff" stroke="#63b8ff" points="291,-166 301,-162.5 291,-159 291,-166"/>
</a>
</g>
</g>
<!-- Node13 -->
<g id="Node000013" class="node">
<title>Node13</title>
<g id="a_Node000013"><a xlink:href="math__util_8c.html#aca95a220db79fe028b35270f35a4a7b3" target="_top" xlink:title=" ">
<polygon fill="white" stroke="#666666" points="384,-135 313,-135 313,-116 384,-116 384,-135"/>
<text text-anchor="middle" x="348.5" y="-123" font-family="Helvetica,sans-Serif" font-size="10.00">mtxf_scale</text>
</a>
</g>
</g>
<!-- Node7&#45;&gt;Node13 -->
<g id="edge14_Node000007_Node000013" class="edge">
<title>Node7&#45;&gt;Node13</title>
<g id="a_edge14_Node000007_Node000013"><a xlink:title=" ">
<path fill="none" stroke="#63b8ff" d="M232.79,-152.97C254.26,-147.83 280.84,-141.46 303,-136.16"/>
<polygon fill="#63b8ff" stroke="#63b8ff" points="303.93,-139.53 312.84,-133.8 302.3,-132.73 303.93,-139.53"/>
</a>
</g>
</g>
<!-- Node15 -->
<g id="Node000015" class="node">
<title>Node15</title>
<g id="a_Node000015"><a xlink:href="render__player_8c.html#a565e21fd6aa0dacea58fb8a0e4304772" target="_top" xlink:title=" ">
<polygon fill="white" stroke="#666666" points="410,-275 287,-275 287,-256 410,-256 410,-275"/>
<text text-anchor="middle" x="348.5" y="-263" font-family="Helvetica,sans-Serif" font-size="10.00">mtxf_translate_rotate</text>
</a>
</g>
</g>
<!-- Node7&#45;&gt;Node15 -->
<g id="edge17_Node000007_Node000015" class="edge">
<title>Node7&#45;&gt;Node15</title>
<g id="a_edge17_Node000007_Node000015"><a xlink:title=" ">
<path fill="none" stroke="#63b8ff" d="M207.26,-172.01C234.02,-189.85 292.01,-228.51 324.41,-250.11"/>
<polygon fill="#63b8ff" stroke="#63b8ff" points="322.56,-253.08 332.83,-255.72 326.45,-247.26 322.56,-253.08"/>
</a>
</g>
</g>
<!-- Node9 -->
<g id="Node000009" class="node">
<title>Node9</title>
<g id="a_Node000009"><a xlink:href="Matrix_8cpp.html#a67401ed1d8de1f4d3a3e5a7b72842b6a" target="_top" xlink:title=" ">
<polygon fill="white" stroke="#666666" points="526,-170 459,-170 459,-151 526,-151 526,-170"/>
<text text-anchor="middle" x="492.5" y="-158" font-family="Helvetica,sans-Serif" font-size="10.00">AddMatrix</text>
</a>
</g>
</g>
<!-- Node8&#45;&gt;Node9 -->
<g id="edge9_Node000008_Node000009" class="edge">
<title>Node8&#45;&gt;Node9</title>
<g id="a_edge9_Node000008_Node000009"><a xlink:title=" ">
<path fill="none" stroke="#63b8ff" d="M396.39,-161.84C413.09,-161.6 431.81,-161.34 448.19,-161.11"/>
<polygon fill="#63b8ff" stroke="#63b8ff" points="448.63,-164.6 458.58,-160.96 448.53,-157.6 448.63,-164.6"/>
</a>
</g>
</g>
<!-- Node12 -->
<g id="Node000012" class="node">
<title>Node12</title>
<g id="a_Node000012"><a xlink:href="Game_8cpp.html#ae2fa844b3cb1021ecbc357f8ed2ad8cc" target="_top" xlink:title=" ">
<polygon fill="white" stroke="#666666" points="523.5,-207 461.5,-207 461.5,-188 523.5,-188 523.5,-207"/>
<text text-anchor="middle" x="492.5" y="-195" font-family="Helvetica,sans-Serif" font-size="10.00">GetWorld</text>
</a>
</g>
</g>
<!-- Node8&#45;&gt;Node12 -->
<g id="edge13_Node000008_Node000012" class="edge">
<title>Node8&#45;&gt;Node12</title>
<g id="a_edge13_Node000008_Node000012"><a xlink:title=" ">
<path fill="none" stroke="#63b8ff" d="M388.3,-172.06C407.88,-176.89 431.61,-182.74 451.37,-187.61"/>
<polygon fill="#63b8ff" stroke="#63b8ff" points="450.75,-191.06 461.3,-190.06 452.43,-184.26 450.75,-191.06"/>
</a>
</g>
</g>
<!-- Node10 -->
<g id="Node000010" class="node">
<title>Node10</title>
<g id="a_Node000010"><a xlink:href="FrameInterpolation_8cpp.html#a8cf1f2d6fabc6925aa71a9515341b4aa" target="_top" xlink:title=" ">
<polygon fill="white" stroke="#666666" points="702,-190.5 562,-190.5 562,-160.5 702,-160.5 702,-190.5"/>
<text text-anchor="start" x="570" y="-178.5" font-family="Helvetica,sans-Serif" font-size="10.00">FrameInterpolation</text>
<text text-anchor="middle" x="632" y="-167.5" font-family="Helvetica,sans-Serif" font-size="10.00">_RecordMatrixMtxFToMtx</text>
</a>
</g>
</g>
<!-- Node9&#45;&gt;Node10 -->
<g id="edge10_Node000009_Node000010" class="edge">
<title>Node9&#45;&gt;Node10</title>
<g id="a_edge10_Node000009_Node000010"><a xlink:title=" ">
<path fill="none" stroke="#63b8ff" d="M526.09,-164.05C533.93,-164.91 542.66,-165.86 551.63,-166.84"/>
<polygon fill="#63b8ff" stroke="#63b8ff" points="551.51,-170.35 561.83,-167.95 552.27,-163.39 551.51,-170.35"/>
</a>
</g>
</g>
<!-- Node11 -->
<g id="Node000011" class="node">
<title>Node11</title>
<g id="a_Node000011"><a xlink:href="guMtxF2L_8c.html#a40ab2d64c609839ff1e0ef0de2d0dcc4" target="_top" xlink:title=" ">
<polygon fill="white" stroke="#666666" points="664.5,-228 599.5,-228 599.5,-209 664.5,-209 664.5,-228"/>
<text text-anchor="middle" x="632" y="-216" font-family="Helvetica,sans-Serif" font-size="10.00">guMtxF2L</text>
</a>
</g>
</g>
<!-- Node9&#45;&gt;Node11 -->
<g id="edge12_Node000009_Node000011" class="edge">
<title>Node9&#45;&gt;Node11</title>
<g id="a_edge12_Node000009_Node000011"><a xlink:title=" ">
<path fill="none" stroke="#63b8ff" d="M510.01,-170.18C528.52,-181 556.66,-197.29 562,-199.5 570.68,-203.1 580.26,-206.23 589.44,-208.86"/>
<polygon fill="#63b8ff" stroke="#63b8ff" points="588.62,-212.26 599.19,-211.51 590.46,-205.51 588.62,-212.26"/>
</a>
</g>
</g>
<!-- Node10&#45;&gt;Node4 -->
<g id="edge11_Node000010_Node000004" class="edge">
<title>Node10&#45;&gt;Node4</title>
<g id="a_edge11_Node000010_Node000004"><a xlink:title=" ">
<path fill="none" stroke="#63b8ff" d="M702.3,-175.5C710.79,-175.5 719.43,-175.5 727.82,-175.5"/>
<polygon fill="#63b8ff" stroke="#63b8ff" points="727.91,-179 737.91,-175.5 727.91,-172 727.91,-179"/>
</a>
</g>
</g>
<!-- Node14 -->
<g id="Node000014" class="node">
<title>Node14</title>
<g id="a_Node000014"><a xlink:href="FrameInterpolation_8cpp.html#ad8eff15a52471a7a9c4801f2f23124e6" target="_top" xlink:title=" ">
<polygon fill="white" stroke="#666666" points="688.5,-142.5 575.5,-142.5 575.5,-112.5 688.5,-112.5 688.5,-142.5"/>
<text text-anchor="start" x="583.5" y="-130.5" font-family="Helvetica,sans-Serif" font-size="10.00">FrameInterpolation</text>
<text text-anchor="middle" x="632" y="-119.5" font-family="Helvetica,sans-Serif" font-size="10.00">_RecordMatrixScale</text>
</a>
</g>
</g>
<!-- Node13&#45;&gt;Node14 -->
<g id="edge15_Node000013_Node000014" class="edge">
<title>Node13&#45;&gt;Node14</title>
<g id="a_edge15_Node000013_Node000014"><a xlink:title=" ">
<path fill="none" stroke="#63b8ff" d="M384.02,-125.75C428.94,-126.06 508.37,-126.63 565.02,-127.03"/>
<polygon fill="#63b8ff" stroke="#63b8ff" points="565.3,-130.53 575.32,-127.1 565.35,-123.53 565.3,-130.53"/>
</a>
</g>
</g>
<!-- Node14&#45;&gt;Node4 -->
<g id="edge16_Node000014_Node000004" class="edge">
<title>Node14&#45;&gt;Node4</title>
<g id="a_edge16_Node000014_Node000004"><a xlink:title=" ">
<path fill="none" stroke="#63b8ff" d="M682.56,-142.56C704.18,-149.12 729.23,-156.74 749.81,-162.99"/>
<polygon fill="#63b8ff" stroke="#63b8ff" points="748.93,-166.38 759.52,-165.94 750.97,-159.68 748.93,-166.38"/>
</a>
</g>
</g>
<!-- Node15&#45;&gt;Node2 -->
<g id="edge18_Node000015_Node000002" class="edge">
<title>Node15&#45;&gt;Node2</title>
<g id="a_edge18_Node000015_Node000002"><a xlink:title=" ">
<path fill="none" stroke="#63b8ff" d="M379.61,-275.04C404.4,-282.9 439.28,-293.95 463.48,-301.62"/>
<polygon fill="#63b8ff" stroke="#63b8ff" points="462.55,-305 473.14,-304.68 464.66,-298.32 462.55,-305"/>
</a>
</g>
</g>
<!-- Node16 -->
<g id="Node000016" class="node">
<title>Node16</title>
<g id="a_Node000016"><a xlink:href="FrameInterpolation_8cpp.html#aafa8768b46143c8110779aa8afdfe41c" target="_top" xlink:title=" ">
<polygon fill="white" stroke="#666666" points="698,-279.5 566,-279.5 566,-249.5 698,-249.5 698,-279.5"/>
<text text-anchor="start" x="574" y="-267.5" font-family="Helvetica,sans-Serif" font-size="10.00">FrameInterpolation</text>
<text text-anchor="middle" x="632" y="-256.5" font-family="Helvetica,sans-Serif" font-size="10.00">_RecordTranslateRotate</text>
</a>
</g>
</g>
<!-- Node15&#45;&gt;Node16 -->
<g id="edge19_Node000015_Node000016" class="edge">
<title>Node15&#45;&gt;Node16</title>
<g id="a_edge19_Node000015_Node000016"><a xlink:title=" ">
<path fill="none" stroke="#63b8ff" d="M410.23,-265.28C452.91,-265.13 510.28,-264.93 555.84,-264.77"/>
<polygon fill="#63b8ff" stroke="#63b8ff" points="555.98,-268.27 565.96,-264.73 555.95,-261.27 555.98,-268.27"/>
</a>
</g>
</g>
<!-- Node15&#45;&gt;Node17 -->
<g id="edge21_Node000015_Node000017" class="edge">
<title>Node15&#45;&gt;Node17</title>
<g id="a_edge21_Node000015_Node000017"><a xlink:title=" ">
<path fill="none" stroke="#63b8ff" d="M393.26,-255.95C416.47,-250.88 444.26,-244.81 464.35,-240.43"/>
<polygon fill="#63b8ff" stroke="#63b8ff" points="465.34,-243.79 474.36,-238.24 463.85,-236.95 465.34,-243.79"/>
</a>
</g>
</g>
<!-- Node16&#45;&gt;Node4 -->
<g id="edge20_Node000016_Node000004" class="edge">
<title>Node16&#45;&gt;Node4</title>
<g id="a_edge20_Node000016_Node000004"><a xlink:title=" ">
<path fill="none" stroke="#63b8ff" d="M676.04,-249.47C684.8,-245.91 693.83,-241.86 702,-237.5 727.03,-224.12 753.44,-205.01 770.93,-191.54"/>
<polygon fill="#63b8ff" stroke="#63b8ff" points="773.48,-193.99 779.2,-185.08 769.17,-188.48 773.48,-193.99"/>
</a>
</g>
</g>
<!-- Node19 -->
<g id="Node000019" class="node">
<title>Node19</title>
<g id="a_Node000019"><a xlink:href="Engine_8cpp.html#a223c8bc63f228dc11177515e38eff2db" target="_top" xlink:title=" ">
<polygon fill="white" stroke="#666666" points="423,-19 274,-19 274,0 423,0 423,-19"/>
<text text-anchor="middle" x="348.5" y="-7" font-family="Helvetica,sans-Serif" font-size="10.00">GameEngine_OTRSigCheck</text>
</a>
</g>
</g>
<!-- Node18&#45;&gt;Node19 -->
<g id="edge23_Node000018_Node000019" class="edge">
<title>Node18&#45;&gt;Node19</title>
<g id="a_edge23_Node000018_Node000019"><a xlink:title=" ">
<path fill="none" stroke="#63b8ff" d="M236.86,-9.5C245.31,-9.5 254.42,-9.5 263.66,-9.5"/>
<polygon fill="#63b8ff" stroke="#63b8ff" points="263.71,-13 273.71,-9.5 263.71,-6 263.71,-13"/>
</a>
</g>
</g>
<!-- Node20 -->
<g id="Node000020" class="node">
<title>Node20</title>
<g id="a_Node000020"><a xlink:href="string_8c.html#a008e171a518fe0e0352f31b245e03875" target="_top" xlink:title=" ">
<polygon fill="white" stroke="#666666" points="514.5,-19 470.5,-19 470.5,0 514.5,0 514.5,-19"/>
<text text-anchor="middle" x="492.5" y="-7" font-family="Helvetica,sans-Serif" font-size="10.00">strlen</text>
</a>
</g>
</g>
<!-- Node19&#45;&gt;Node20 -->
<g id="edge24_Node000019_Node000020" class="edge">
<title>Node19&#45;&gt;Node20</title>
<g id="a_edge24_Node000019_Node000020"><a xlink:title=" ">
<path fill="none" stroke="#63b8ff" d="M423.41,-9.5C436.35,-9.5 449.16,-9.5 460.12,-9.5"/>
<polygon fill="#63b8ff" stroke="#63b8ff" points="460.39,-13 470.39,-9.5 460.39,-6 460.39,-13"/>
</a>
</g>
</g>
</g>
</svg>
