<?xml version="1.0" encoding="UTF-8" standalone="no"?>
<!DOCTYPE svg PUBLIC "-//W3C//DTD SVG 1.1//EN"
 "http://www.w3.org/Graphics/SVG/1.1/DTD/svg11.dtd">
<!-- Generated by graphviz version 2.43.0 (0)
 -->
<!-- Title: credits_spawn_actors Pages: 1 -->
<svg width="1211pt" height="212pt"
 viewBox="0.00 0.00 1211.00 212.00" xmlns="http://www.w3.org/2000/svg" xmlns:xlink="http://www.w3.org/1999/xlink">
<g id="graph0" class="graph" transform="scale(1 1) rotate(0) translate(4 208)">
<title>credits_spawn_actors</title>
<!-- Node1 -->
<g id="Node000001" class="node">
<title>Node1</title>
<g id="a_Node000001"><a xlink:title=" ">
<polygon fill="#999999" stroke="#666666" points="122,-93 0,-93 0,-74 122,-74 122,-93"/>
<text text-anchor="middle" x="61" y="-81" font-family="Helvetica,sans-Serif" font-size="10.00">credits_spawn_actors</text>
</a>
</g>
</g>
<!-- Node2 -->
<g id="Node000002" class="node">
<title>Node2</title>
<g id="a_Node000002"><a xlink:href="Game_8cpp.html#a88c0d93fc49776f7a5c145312f4f81a0" target="_top" xlink:title=" ">
<polygon fill="white" stroke="#666666" points="268.5,-167 182.5,-167 182.5,-148 268.5,-148 268.5,-167"/>
<text text-anchor="middle" x="225.5" y="-155" font-family="Helvetica,sans-Serif" font-size="10.00">CM_BeginPlay</text>
</a>
</g>
</g>
<!-- Node1&#45;&gt;Node2 -->
<g id="edge1_Node000001_Node000002" class="edge">
<title>Node1&#45;&gt;Node2</title>
<g id="a_edge1_Node000001_Node000002"><a xlink:title=" ">
<path fill="none" stroke="#63b8ff" d="M75.71,-93.07C93.81,-105.33 127.03,-126.54 158,-139.5 162.71,-141.47 167.69,-143.28 172.73,-144.94"/>
<polygon fill="#63b8ff" stroke="#63b8ff" points="171.84,-148.32 182.43,-147.92 173.9,-141.63 171.84,-148.32"/>
</a>
</g>
</g>
<!-- Node15 -->
<g id="Node000015" class="node">
<title>Node15</title>
<g id="a_Node000015"><a xlink:href="Game_8cpp.html#a13d5b10b9acb59b4b90db739aba83d1f" target="_top" xlink:title=" ">
<polygon fill="white" stroke="#666666" points="272,-130 179,-130 179,-111 272,-111 272,-130"/>
<text text-anchor="middle" x="225.5" y="-118" font-family="Helvetica,sans-Serif" font-size="10.00">CM_CleanWorld</text>
</a>
</g>
</g>
<!-- Node1&#45;&gt;Node15 -->
<g id="edge15_Node000001_Node000015" class="edge">
<title>Node1&#45;&gt;Node15</title>
<g id="a_edge15_Node000001_Node000015"><a xlink:title=" ">
<path fill="none" stroke="#63b8ff" d="M103.85,-93.03C124.81,-97.8 150.38,-103.62 172.58,-108.68"/>
<polygon fill="#63b8ff" stroke="#63b8ff" points="171.98,-112.13 182.51,-110.94 173.54,-105.31 171.98,-112.13"/>
</a>
</g>
</g>
<!-- Node16 -->
<g id="Node000016" class="node">
<title>Node16</title>
<g id="a_Node000016"><a xlink:href="Game_8cpp.html#aaffb8b8bf0073d2bc3c2221a0d6e72ec" target="_top" xlink:title=" ">
<polygon fill="white" stroke="#666666" points="293,-93 158,-93 158,-74 293,-74 293,-93"/>
<text text-anchor="middle" x="225.5" y="-81" font-family="Helvetica,sans-Serif" font-size="10.00">CM_CreditsSpawnActors</text>
</a>
</g>
</g>
<!-- Node1&#45;&gt;Node16 -->
<g id="edge16_Node000001_Node000016" class="edge">
<title>Node1&#45;&gt;Node16</title>
<g id="a_edge16_Node000001_Node000016"><a xlink:title=" ">
<path fill="none" stroke="#63b8ff" d="M122.05,-83.5C130.43,-83.5 139.14,-83.5 147.77,-83.5"/>
<polygon fill="#63b8ff" stroke="#63b8ff" points="147.86,-87 157.86,-83.5 147.86,-80 147.86,-87"/>
</a>
</g>
</g>
<!-- Node17 -->
<g id="Node000017" class="node">
<title>Node17</title>
<g id="a_Node000017"><a xlink:href="actors_8c.html#a90bb1e98b1fc94450092f4fddff2a61b" target="_top" xlink:title=" ">
<polygon fill="white" stroke="#666666" points="278.5,-56 172.5,-56 172.5,-37 278.5,-37 278.5,-56"/>
<text text-anchor="middle" x="225.5" y="-44" font-family="Helvetica,sans-Serif" font-size="10.00">destroy_all_actors</text>
</a>
</g>
</g>
<!-- Node1&#45;&gt;Node17 -->
<g id="edge17_Node000001_Node000017" class="edge">
<title>Node1&#45;&gt;Node17</title>
<g id="a_edge17_Node000001_Node000017"><a xlink:title=" ">
<path fill="none" stroke="#63b8ff" d="M103.85,-73.97C124.81,-69.2 150.38,-63.38 172.58,-58.32"/>
<polygon fill="#63b8ff" stroke="#63b8ff" points="173.54,-61.69 182.51,-56.06 171.98,-54.87 173.54,-61.69"/>
</a>
</g>
</g>
<!-- Node19 -->
<g id="Node000019" class="node">
<title>Node19</title>
<g id="a_Node000019"><a xlink:href="code__800029B0_8c.html#a400480f631a30b3b2e03db7e291f73d1" target="_top" xlink:title=" ">
<polygon fill="white" stroke="#666666" points="275.5,-19 175.5,-19 175.5,0 275.5,0 275.5,-19"/>
<text text-anchor="middle" x="225.5" y="-7" font-family="Helvetica,sans-Serif" font-size="10.00">set_mirror_mode</text>
</a>
</g>
</g>
<!-- Node1&#45;&gt;Node19 -->
<g id="edge19_Node000001_Node000019" class="edge">
<title>Node1&#45;&gt;Node19</title>
<g id="a_edge19_Node000001_Node000019"><a xlink:title=" ">
<path fill="none" stroke="#63b8ff" d="M75.71,-73.93C93.81,-61.67 127.03,-40.46 158,-27.5 162.71,-25.53 167.69,-23.72 172.73,-22.06"/>
<polygon fill="#63b8ff" stroke="#63b8ff" points="173.9,-25.37 182.43,-19.08 171.84,-18.68 173.9,-25.37"/>
</a>
</g>
</g>
<!-- Node3 -->
<g id="Node000003" class="node">
<title>Node3</title>
<g id="a_Node000003"><a xlink:href="classTourCamera.html#a832099745cef0a897e0ba619506563d2" target="_top" xlink:title=" ">
<polygon fill="white" stroke="#666666" points="486,-185 329,-185 329,-166 486,-166 486,-185"/>
<text text-anchor="middle" x="407.5" y="-173" font-family="Helvetica,sans-Serif" font-size="10.00">TourCamera::IsTourComplete</text>
</a>
</g>
</g>
<!-- Node2&#45;&gt;Node3 -->
<g id="edge2_Node000002_Node000003" class="edge">
<title>Node2&#45;&gt;Node3</title>
<g id="a_edge2_Node000002_Node000003"><a xlink:title=" ">
<path fill="none" stroke="#63b8ff" d="M268.7,-161.72C283.73,-163.22 301.26,-164.98 318.68,-166.72"/>
<polygon fill="#63b8ff" stroke="#63b8ff" points="318.61,-170.23 328.91,-167.74 319.31,-163.26 318.61,-170.23"/>
</a>
</g>
</g>
<!-- Node4 -->
<g id="Node000004" class="node">
<title>Node4</title>
<g id="a_Node000004"><a xlink:href="namespaceEditor.html#ac95c825fc97e637d93f36fe4e9121515" target="_top" xlink:title=" ">
<polygon fill="white" stroke="#666666" points="458,-148 357,-148 357,-129 458,-129 458,-148"/>
<text text-anchor="middle" x="407.5" y="-136" font-family="Helvetica,sans-Serif" font-size="10.00">Editor::LoadLevel</text>
</a>
</g>
</g>
<!-- Node2&#45;&gt;Node4 -->
<g id="edge3_Node000002_Node000004" class="edge">
<title>Node2&#45;&gt;Node4</title>
<g id="a_edge3_Node000002_Node000004"><a xlink:title=" ">
<path fill="none" stroke="#63b8ff" d="M268.7,-153.05C292,-150.59 321.32,-147.49 346.92,-144.79"/>
<polygon fill="#63b8ff" stroke="#63b8ff" points="347.32,-148.27 356.9,-143.74 346.59,-141.3 347.32,-148.27"/>
</a>
</g>
</g>
<!-- Node5 -->
<g id="Node000005" class="node">
<title>Node5</title>
<g id="a_Node000005"><a xlink:href="namespaceEditor.html#a432aae20cd7a713f5cc3ba38ecfd3af4" target="_top" xlink:title=" ">
<polygon fill="white" stroke="#666666" points="654,-204 549,-204 549,-185 654,-185 654,-204"/>
<text text-anchor="middle" x="601.5" y="-192" font-family="Helvetica,sans-Serif" font-size="10.00">Editor::LoadActors</text>
</a>
</g>
</g>
<!-- Node4&#45;&gt;Node5 -->
<g id="edge4_Node000004_Node000005" class="edge">
<title>Node4&#45;&gt;Node5</title>
<g id="a_edge4_Node000004_Node000005"><a xlink:title=" ">
<path fill="none" stroke="#63b8ff" d="M455.38,-148.03C465.61,-150.65 476.29,-153.81 486,-157.5 502.91,-163.92 505.04,-170.2 522,-176.5 527.85,-178.67 534.04,-180.63 540.29,-182.39"/>
<polygon fill="#63b8ff" stroke="#63b8ff" points="539.53,-185.81 550.09,-184.99 541.32,-179.05 539.53,-185.81"/>
</a>
</g>
</g>
<!-- Node8 -->
<g id="Node000008" class="node">
<title>Node8</title>
<g id="a_Node000008"><a xlink:href="namespaceEditor.html#ac889659f9eba7f23eba74579b0dded64" target="_top" xlink:title=" ">
<polygon fill="white" stroke="#666666" points="652,-167 551,-167 551,-148 652,-148 652,-167"/>
<text text-anchor="middle" x="601.5" y="-155" font-family="Helvetica,sans-Serif" font-size="10.00">Editor::LoadProps</text>
</a>
</g>
</g>
<!-- Node4&#45;&gt;Node8 -->
<g id="edge7_Node000004_Node000008" class="edge">
<title>Node4&#45;&gt;Node8</title>
<g id="a_edge7_Node000004_Node000008"><a xlink:title=" ">
<path fill="none" stroke="#63b8ff" d="M458.44,-143.44C483.56,-145.93 514.18,-148.96 540.55,-151.57"/>
<polygon fill="#63b8ff" stroke="#63b8ff" points="540.51,-155.08 550.81,-152.58 541.2,-148.11 540.51,-155.08"/>
</a>
</g>
</g>
<!-- Node9 -->
<g id="Node000009" class="node">
<title>Node9</title>
<g id="a_Node000009"><a xlink:href="namespaceEditor.html#a4697168fae026ab11c35133c2dbea7bf" target="_top" xlink:title=" ">
<polygon fill="white" stroke="#666666" points="681,-130 522,-130 522,-111 681,-111 681,-130"/>
<text text-anchor="middle" x="601.5" y="-118" font-family="Helvetica,sans-Serif" font-size="10.00">Editor::LoadStaticMeshActors</text>
</a>
</g>
</g>
<!-- Node4&#45;&gt;Node9 -->
<g id="edge8_Node000004_Node000009" class="edge">
<title>Node4&#45;&gt;Node9</title>
<g id="a_edge8_Node000004_Node000009"><a xlink:title=" ">
<path fill="none" stroke="#63b8ff" d="M458.44,-133.82C474.76,-132.29 493.39,-130.54 511.68,-128.83"/>
<polygon fill="#63b8ff" stroke="#63b8ff" points="512.16,-132.3 521.79,-127.88 511.51,-125.33 512.16,-132.3"/>
</a>
</g>
</g>
<!-- Node11 -->
<g id="Node000011" class="node">
<title>Node11</title>
<g id="a_Node000011"><a xlink:href="namespaceEditor.html#aa0123d5f7befc013345aed2247f7ea74" target="_top" xlink:title=" ">
<polygon fill="white" stroke="#666666" points="649,-92 554,-92 554,-73 649,-73 649,-92"/>
<text text-anchor="middle" x="601.5" y="-80" font-family="Helvetica,sans-Serif" font-size="10.00">Editor::LoadTour</text>
</a>
</g>
</g>
<!-- Node4&#45;&gt;Node11 -->
<g id="edge10_Node000004_Node000011" class="edge">
<title>Node4&#45;&gt;Node11</title>
<g id="a_edge10_Node000004_Node000011"><a xlink:title=" ">
<path fill="none" stroke="#63b8ff" d="M437.28,-128.86C460.14,-121.33 492.98,-110.79 522,-102.5 531.43,-99.8 541.56,-97.09 551.29,-94.57"/>
<polygon fill="#63b8ff" stroke="#63b8ff" points="552.43,-97.9 561.25,-92.03 550.69,-91.11 552.43,-97.9"/>
</a>
</g>
</g>
<!-- Node6 -->
<g id="Node000006" class="node">
<title>Node6</title>
<g id="a_Node000006"><a xlink:href="structSpawnParams.html#a8a5a24c4ced13fc9150d32d895470c9f" target="_top" xlink:title=" ">
<polygon fill="white" stroke="#666666" points="865,-204 725,-204 725,-185 865,-185 865,-204"/>
<text text-anchor="middle" x="795" y="-192" font-family="Helvetica,sans-Serif" font-size="10.00">SpawnParams::from_json</text>
</a>
</g>
</g>
<!-- Node5&#45;&gt;Node6 -->
<g id="edge5_Node000005_Node000006" class="edge">
<title>Node5&#45;&gt;Node6</title>
<g id="a_edge5_Node000005_Node000006"><a xlink:title=" ">
<path fill="none" stroke="#63b8ff" d="M654.07,-194.5C672.65,-194.5 694.06,-194.5 714.46,-194.5"/>
<polygon fill="#63b8ff" stroke="#63b8ff" points="714.7,-198 724.7,-194.5 714.7,-191 714.7,-198"/>
</a>
</g>
</g>
<!-- Node7 -->
<g id="Node000007" class="node">
<title>Node7</title>
<g id="a_Node000007"><a xlink:href="SpawnParams_8h.html#af4dfccdb6d4f1f9514fa9f7483e0d0aa" target="_top" xlink:title=" ">
<polygon fill="white" stroke="#666666" points="1027.5,-204 935.5,-204 935.5,-185 1027.5,-185 1027.5,-204"/>
<text text-anchor="middle" x="981.5" y="-192" font-family="Helvetica,sans-Serif" font-size="10.00">get_optional_to</text>
</a>
</g>
</g>
<!-- Node6&#45;&gt;Node7 -->
<g id="edge6_Node000006_Node000007" class="edge">
<title>Node6&#45;&gt;Node7</title>
<g id="a_edge6_Node000006_Node000007"><a xlink:title=" ">
<path fill="none" stroke="#63b8ff" d="M865.23,-194.5C884.98,-194.5 906.24,-194.5 925.06,-194.5"/>
<polygon fill="#63b8ff" stroke="#63b8ff" points="925.24,-198 935.24,-194.5 925.24,-191 925.24,-198"/>
</a>
</g>
</g>
<!-- Node10 -->
<g id="Node000010" class="node">
<title>Node10</title>
<g id="a_Node000010"><a xlink:href="namespaceEditor.html#a5682c68f8c058161eac4f98905aa0c86" target="_top" xlink:title=" ">
<polygon fill="white" stroke="#666666" points="871,-137.5 719,-137.5 719,-107.5 871,-107.5 871,-137.5"/>
<text text-anchor="start" x="727" y="-125.5" font-family="Helvetica,sans-Serif" font-size="10.00">Editor::Load_AddStaticMesh</text>
<text text-anchor="middle" x="795" y="-114.5" font-family="Helvetica,sans-Serif" font-size="10.00">Actor</text>
</a>
</g>
</g>
<!-- Node9&#45;&gt;Node10 -->
<g id="edge9_Node000009_Node000010" class="edge">
<title>Node9&#45;&gt;Node10</title>
<g id="a_edge9_Node000009_Node000010"><a xlink:title=" ">
<path fill="none" stroke="#63b8ff" d="M681.22,-121.32C690.29,-121.42 699.57,-121.51 708.72,-121.61"/>
<polygon fill="#63b8ff" stroke="#63b8ff" points="708.94,-125.11 718.98,-121.72 709.02,-118.11 708.94,-125.11"/>
</a>
</g>
</g>
<!-- Node12 -->
<g id="Node000012" class="node">
<title>Node12</title>
<g id="a_Node000012"><a xlink:href="namespaceEditor.html#ac7a2abd4c4133424f846cec0f2eba13f" target="_top" xlink:title=" ">
<polygon fill="white" stroke="#666666" points="873,-89 717,-89 717,-70 873,-70 873,-89"/>
<text text-anchor="middle" x="795" y="-77" font-family="Helvetica,sans-Serif" font-size="10.00">Editor::FromJsonCameraShot</text>
</a>
</g>
</g>
<!-- Node11&#45;&gt;Node12 -->
<g id="edge11_Node000011_Node000012" class="edge">
<title>Node11&#45;&gt;Node12</title>
<g id="a_edge11_Node000011_Node000012"><a xlink:title=" ">
<path fill="none" stroke="#63b8ff" d="M649.35,-81.77C666.6,-81.5 686.75,-81.18 706.44,-80.87"/>
<polygon fill="#63b8ff" stroke="#63b8ff" points="706.73,-84.37 716.68,-80.71 706.62,-77.37 706.73,-84.37"/>
</a>
</g>
</g>
<!-- Node13 -->
<g id="Node000013" class="node">
<title>Node13</title>
<g id="a_Node000013"><a xlink:href="namespaceEditor.html#ad162fbe6cf9ca7ed07efed73134a8a46" target="_top" xlink:title=" ">
<polygon fill="white" stroke="#666666" points="1054,-108 909,-108 909,-89 1054,-89 1054,-108"/>
<text text-anchor="middle" x="981.5" y="-96" font-family="Helvetica,sans-Serif" font-size="10.00">Editor::FromJsonKeyFrame</text>
</a>
</g>
</g>
<!-- Node12&#45;&gt;Node13 -->
<g id="edge12_Node000012_Node000013" class="edge">
<title>Node12&#45;&gt;Node13</title>
<g id="a_edge12_Node000012_Node000013"><a xlink:title=" ">
<path fill="none" stroke="#63b8ff" d="M873.18,-87.45C881.69,-88.32 890.39,-89.22 898.95,-90.1"/>
<polygon fill="#63b8ff" stroke="#63b8ff" points="898.63,-93.59 908.94,-91.13 899.35,-86.62 898.63,-93.59"/>
</a>
</g>
</g>
<!-- Node14 -->
<g id="Node000014" class="node">
<title>Node14</title>
<g id="a_Node000014"><a xlink:href="namespaceEditor.html#a6292171c89d7dad84497433e54697153" target="_top" xlink:title=" ">
<polygon fill="white" stroke="#666666" points="1203,-89 1090,-89 1090,-70 1203,-70 1203,-89"/>
<text text-anchor="middle" x="1146.5" y="-77" font-family="Helvetica,sans-Serif" font-size="10.00">Editor::FromJsonVec</text>
</a>
</g>
</g>
<!-- Node12&#45;&gt;Node14 -->
<g id="edge14_Node000012_Node000014" class="edge">
<title>Node12&#45;&gt;Node14</title>
<g id="a_edge14_Node000012_Node000014"><a xlink:title=" ">
<path fill="none" stroke="#63b8ff" d="M873.13,-79.5C935.05,-79.5 1021.04,-79.5 1079.73,-79.5"/>
<polygon fill="#63b8ff" stroke="#63b8ff" points="1080,-83 1090,-79.5 1080,-76 1080,-83"/>
</a>
</g>
</g>
<!-- Node13&#45;&gt;Node14 -->
<g id="edge13_Node000013_Node000014" class="edge">
<title>Node13&#45;&gt;Node14</title>
<g id="a_edge13_Node000013_Node000014"><a xlink:title=" ">
<path fill="none" stroke="#63b8ff" d="M1054.47,-90.11C1062.84,-89.14 1071.34,-88.14 1079.62,-87.18"/>
<polygon fill="#63b8ff" stroke="#63b8ff" points="1080.06,-90.65 1089.58,-86.02 1079.24,-83.7 1080.06,-90.65"/>
</a>
</g>
</g>
<!-- Node18 -->
<g id="Node000018" class="node">
<title>Node18</title>
<g id="a_Node000018"><a xlink:href="Game_8cpp.html#a693de7d8b89fe291aafea86bc64a0a2e" target="_top" xlink:title=" ">
<polygon fill="white" stroke="#666666" points="447.5,-56 367.5,-56 367.5,-37 447.5,-37 447.5,-56"/>
<text text-anchor="middle" x="407.5" y="-44" font-family="Helvetica,sans-Serif" font-size="10.00">CM_GetActor</text>
</a>
</g>
</g>
<!-- Node17&#45;&gt;Node18 -->
<g id="edge18_Node000017_Node000018" class="edge">
<title>Node17&#45;&gt;Node18</title>
<g id="a_edge18_Node000017_Node000018"><a xlink:title=" ">
<path fill="none" stroke="#63b8ff" d="M278.56,-46.5C303.37,-46.5 332.87,-46.5 357.3,-46.5"/>
<polygon fill="#63b8ff" stroke="#63b8ff" points="357.42,-50 367.42,-46.5 357.42,-43 357.42,-50"/>
</a>
</g>
</g>
<!-- Node20 -->
<g id="Node000020" class="node">
<title>Node20</title>
<g id="a_Node000020"><a xlink:href="Game_8cpp.html#a70dfa94e07750a1aa0749a37ecd916fd" target="_top" xlink:title=" ">
<polygon fill="white" stroke="#666666" points="451,-19 364,-19 364,0 451,0 451,-19"/>
<text text-anchor="middle" x="407.5" y="-7" font-family="Helvetica,sans-Serif" font-size="10.00">UnLoadCourse</text>
</a>
</g>
</g>
<!-- Node19&#45;&gt;Node20 -->
<g id="edge20_Node000019_Node000020" class="edge">
<title>Node19&#45;&gt;Node20</title>
<g id="a_edge20_Node000019_Node000020"><a xlink:title=" ">
<path fill="none" stroke="#63b8ff" d="M275.69,-9.5C299.82,-9.5 328.93,-9.5 353.55,-9.5"/>
<polygon fill="#63b8ff" stroke="#63b8ff" points="353.8,-13 363.8,-9.5 353.8,-6 353.8,-13"/>
</a>
</g>
</g>
</g>
</svg>
