<?xml version="1.0" encoding="UTF-8" standalone="no"?>
<!DOCTYPE svg PUBLIC "-//W3C//DTD SVG 1.1//EN"
 "http://www.w3.org/Graphics/SVG/1.1/DTD/svg11.dtd">
<!-- Generated by graphviz version 2.43.0 (0)
 -->
<!-- Title: render_snowing_effect Pages: 1 -->
<svg width="1477pt" height="409pt"
 viewBox="0.00 0.00 1477.00 408.63" xmlns="http://www.w3.org/2000/svg" xmlns:xlink="http://www.w3.org/1999/xlink">
<g id="graph0" class="graph" transform="scale(1 1) rotate(0) translate(4 404.63)">
<title>render_snowing_effect</title>
<!-- Node1 -->
<g id="Node000001" class="node">
<title>Node1</title>
<g id="a_Node000001"><a xlink:title=" ">
<polygon fill="#999999" stroke="#666666" points="127,-283.5 0,-283.5 0,-264.5 127,-264.5 127,-283.5"/>
<text text-anchor="middle" x="63.5" y="-271.5" font-family="Helvetica,sans-Serif" font-size="10.00">render_snowing_effect</text>
</a>
</g>
</g>
<!-- Node2 -->
<g id="Node000002" class="node">
<title>Node2</title>
<g id="a_Node000002"><a xlink:href="Game_8cpp.html#a3416a195a0c7be6ec3783bbf4842dc3e" target="_top" xlink:title=" ">
<polygon fill="white" stroke="#666666" points="729.5,-387.5 647.5,-387.5 647.5,-368.5 729.5,-368.5 729.5,-387.5"/>
<text text-anchor="middle" x="688.5" y="-375.5" font-family="Helvetica,sans-Serif" font-size="10.00">CM_GetProps</text>
</a>
</g>
</g>
<!-- Node1&#45;&gt;Node2 -->
<g id="edge1_Node000001_Node000002" class="edge">
<title>Node1&#45;&gt;Node2</title>
<g id="a_edge1_Node000001_Node000002"><a xlink:title=" ">
<path fill="none" stroke="#63b8ff" d="M72.48,-283.68C87.83,-301.47 123.47,-338.94 163,-354 327.17,-416.53 541.43,-398.51 637.3,-385.79"/>
<polygon fill="#63b8ff" stroke="#63b8ff" points="637.87,-389.24 647.31,-384.42 636.92,-382.31 637.87,-389.24"/>
</a>
</g>
</g>
<!-- Node6 -->
<g id="Node000006" class="node">
<title>Node6</title>
<g id="a_Node000006"><a xlink:href="Game_8cpp.html#af4bf996258124d6741c70e4fa918ef03" target="_top" xlink:title=" ">
<polygon fill="white" stroke="#666666" points="948.5,-349.5 843.5,-349.5 843.5,-330.5 948.5,-330.5 948.5,-349.5"/>
<text text-anchor="middle" x="896" y="-337.5" font-family="Helvetica,sans-Serif" font-size="10.00">IsFrappeSnowland</text>
</a>
</g>
</g>
<!-- Node1&#45;&gt;Node6 -->
<g id="edge7_Node000001_Node000006" class="edge">
<title>Node1&#45;&gt;Node6</title>
<g id="a_edge7_Node000001_Node000006"><a xlink:title=" ">
<path fill="none" stroke="#63b8ff" d="M88.26,-283.6C135.8,-301.9 246.35,-340 343,-340 343,-340 343,-340 498.5,-340 616.92,-340 755.23,-340 833.22,-340"/>
<polygon fill="#63b8ff" stroke="#63b8ff" points="833.36,-343.5 843.36,-340 833.36,-336.5 833.36,-343.5"/>
</a>
</g>
</g>
<!-- Node7 -->
<g id="Node000007" class="node">
<title>Node7</title>
<g id="a_Node000007"><a xlink:href="render__objects_8c.html#a74e336af3dc8e4758497e6ca47c4de44" target="_top" xlink:title=" ">
<polygon fill="white" stroke="#666666" points="262,-198.5 163,-198.5 163,-179.5 262,-179.5 262,-198.5"/>
<text text-anchor="middle" x="212.5" y="-186.5" font-family="Helvetica,sans-Serif" font-size="10.00">render_ice_block</text>
</a>
</g>
</g>
<!-- Node1&#45;&gt;Node7 -->
<g id="edge10_Node000001_Node000007" class="edge">
<title>Node1&#45;&gt;Node7</title>
<g id="a_edge10_Node000001_Node000007"><a xlink:title=" ">
<path fill="none" stroke="#63b8ff" d="M81.08,-264.41C106.66,-249.62 155.96,-221.11 186.08,-203.7"/>
<polygon fill="#63b8ff" stroke="#63b8ff" points="187.85,-206.72 194.76,-198.68 184.35,-200.66 187.85,-206.72"/>
</a>
</g>
</g>
<!-- Node29 -->
<g id="Node000029" class="node">
<title>Node29</title>
<g id="a_Node000029"><a xlink:href="render__objects_8c.html#a86d8d3510358624b3620267998748129" target="_top" xlink:title=" ">
<polygon fill="white" stroke="#666666" points="569,-110 426,-110 426,-80 569,-80 569,-110"/>
<text text-anchor="start" x="434" y="-98" font-family="Helvetica,sans-Serif" font-size="10.00">render_object_snowflakes</text>
<text text-anchor="middle" x="497.5" y="-87" font-family="Helvetica,sans-Serif" font-size="10.00">_particles</text>
</a>
</g>
</g>
<!-- Node1&#45;&gt;Node29 -->
<g id="edge41_Node000001_Node000029" class="edge">
<title>Node1&#45;&gt;Node29</title>
<g id="a_edge41_Node000001_Node000029"><a xlink:title=" ">
<path fill="none" stroke="#63b8ff" d="M71.35,-264.4C86.07,-244.39 122.65,-197.78 163,-170 238.25,-118.2 343.58,-101.58 415.61,-96.56"/>
<polygon fill="#63b8ff" stroke="#63b8ff" points="416.23,-100.03 425.99,-95.9 415.79,-93.04 416.23,-100.03"/>
</a>
</g>
</g>
<!-- Node3 -->
<g id="Node000003" class="node">
<title>Node3</title>
<g id="a_Node000003"><a xlink:href="Game_8cpp.html#a0967ca61e9f768c9e278fef7b8030085" target="_top" xlink:title=" ">
<polygon fill="white" stroke="#666666" points="925.5,-386.5 866.5,-386.5 866.5,-367.5 925.5,-367.5 925.5,-386.5"/>
<text text-anchor="middle" x="896" y="-374.5" font-family="Helvetica,sans-Serif" font-size="10.00">GetTrack</text>
</a>
</g>
</g>
<!-- Node2&#45;&gt;Node3 -->
<g id="edge2_Node000002_Node000003" class="edge">
<title>Node2&#45;&gt;Node3</title>
<g id="a_edge2_Node000002_Node000003"><a xlink:title=" ">
<path fill="none" stroke="#63b8ff" d="M729.61,-377.8C766.18,-377.63 819.87,-377.37 856.07,-377.19"/>
<polygon fill="#63b8ff" stroke="#63b8ff" points="856.26,-380.69 866.24,-377.14 856.23,-373.69 856.26,-380.69"/>
</a>
</g>
</g>
<!-- Node4 -->
<g id="Node000004" class="node">
<title>Node4</title>
<g id="a_Node000004"><a xlink:href="classWorld.html#a1a4dacc6aea0b846df998be0afc239f7" target="_top" xlink:title=" ">
<polygon fill="white" stroke="#666666" points="1113,-386.5 1020,-386.5 1020,-367.5 1113,-367.5 1113,-386.5"/>
<text text-anchor="middle" x="1066.5" y="-374.5" font-family="Helvetica,sans-Serif" font-size="10.00">World::GetTrack</text>
</a>
</g>
</g>
<!-- Node2&#45;&gt;Node4 -->
<g id="edge5_Node000002_Node000004" class="edge">
<title>Node2&#45;&gt;Node4</title>
<g id="a_edge5_Node000002_Node000004"><a xlink:title=" ">
<path fill="none" stroke="#63b8ff" d="M729.66,-385.21C752.53,-388.96 781.78,-393.13 808,-395 886.02,-400.57 906.24,-403.48 984,-395 995.81,-393.71 1008.41,-391.4 1020.09,-388.86"/>
<polygon fill="#63b8ff" stroke="#63b8ff" points="1021.1,-392.22 1030.07,-386.58 1019.55,-385.39 1021.1,-392.22"/>
</a>
</g>
</g>
<!-- Node5 -->
<g id="Node000005" class="node">
<title>Node5</title>
<g id="a_Node000005"><a xlink:href="Game_8cpp.html#ae2fa844b3cb1021ecbc357f8ed2ad8cc" target="_top" xlink:title=" ">
<polygon fill="white" stroke="#666666" points="1097.5,-330.5 1035.5,-330.5 1035.5,-311.5 1097.5,-311.5 1097.5,-330.5"/>
<text text-anchor="middle" x="1066.5" y="-318.5" font-family="Helvetica,sans-Serif" font-size="10.00">GetWorld</text>
</a>
</g>
</g>
<!-- Node2&#45;&gt;Node5 -->
<g id="edge6_Node000002_Node000005" class="edge">
<title>Node2&#45;&gt;Node5</title>
<g id="a_edge6_Node000002_Node000005"><a xlink:title=" ">
<path fill="none" stroke="#63b8ff" d="M704.04,-368.33C725.63,-354.6 767.94,-330.13 808,-321 883.23,-303.85 974.08,-309.82 1025.28,-315.54"/>
<polygon fill="#63b8ff" stroke="#63b8ff" points="1024.94,-319.02 1035.28,-316.71 1025.75,-312.07 1024.94,-319.02"/>
</a>
</g>
</g>
<!-- Node3&#45;&gt;Node4 -->
<g id="edge3_Node000003_Node000004" class="edge">
<title>Node3&#45;&gt;Node4</title>
<g id="a_edge3_Node000003_Node000004"><a xlink:title=" ">
<path fill="none" stroke="#63b8ff" d="M925.58,-377C948.58,-377 981.59,-377 1009.78,-377"/>
<polygon fill="#63b8ff" stroke="#63b8ff" points="1009.91,-380.5 1019.91,-377 1009.91,-373.5 1009.91,-380.5"/>
</a>
</g>
</g>
<!-- Node3&#45;&gt;Node5 -->
<g id="edge4_Node000003_Node000005" class="edge">
<title>Node3&#45;&gt;Node5</title>
<g id="a_edge4_Node000003_Node000005"><a xlink:title=" ">
<path fill="none" stroke="#63b8ff" d="M925.62,-372.33C942.79,-369.13 964.93,-364.33 984,-358 1002.69,-351.8 1022.84,-342.67 1038.43,-335.03"/>
<polygon fill="#63b8ff" stroke="#63b8ff" points="1040.11,-338.11 1047.49,-330.51 1036.98,-331.84 1040.11,-338.11"/>
</a>
</g>
</g>
<!-- Node6&#45;&gt;Node4 -->
<g id="edge8_Node000006_Node000004" class="edge">
<title>Node6&#45;&gt;Node4</title>
<g id="a_edge8_Node000006_Node000004"><a xlink:title=" ">
<path fill="none" stroke="#63b8ff" d="M944,-349.5C956.98,-352.18 971.05,-355.15 984,-358 994.22,-360.25 1005.13,-362.73 1015.54,-365.15"/>
<polygon fill="#63b8ff" stroke="#63b8ff" points="1014.8,-368.57 1025.34,-367.43 1016.39,-361.75 1014.8,-368.57"/>
</a>
</g>
</g>
<!-- Node6&#45;&gt;Node5 -->
<g id="edge9_Node000006_Node000005" class="edge">
<title>Node6&#45;&gt;Node5</title>
<g id="a_edge9_Node000006_Node000005"><a xlink:title=" ">
<path fill="none" stroke="#63b8ff" d="M948.93,-334.14C973.42,-331.38 1002.19,-328.14 1025.03,-325.56"/>
<polygon fill="#63b8ff" stroke="#63b8ff" points="1025.52,-329.03 1035.07,-324.43 1024.74,-322.07 1025.52,-329.03"/>
</a>
</g>
</g>
<!-- Node8 -->
<g id="Node000008" class="node">
<title>Node8</title>
<g id="a_Node000008"><a xlink:href="render__objects_8c.html#ac325d36969b7f334a015e267e224acfd" target="_top" xlink:title=" ">
<polygon fill="white" stroke="#666666" points="390,-179.5 298,-179.5 298,-160.5 390,-160.5 390,-179.5"/>
<text text-anchor="middle" x="344" y="-167.5" font-family="Helvetica,sans-Serif" font-size="10.00">func_8005285C</text>
</a>
</g>
</g>
<!-- Node7&#45;&gt;Node8 -->
<g id="edge11_Node000007_Node000008" class="edge">
<title>Node7&#45;&gt;Node8</title>
<g id="a_edge11_Node000007_Node000008"><a xlink:title=" ">
<path fill="none" stroke="#63b8ff" d="M262.09,-181.87C270.55,-180.63 279.4,-179.33 288.02,-178.07"/>
<polygon fill="#63b8ff" stroke="#63b8ff" points="288.6,-181.52 297.99,-176.6 287.59,-174.59 288.6,-181.52"/>
</a>
</g>
</g>
<!-- Node25 -->
<g id="Node000025" class="node">
<title>Node25</title>
<g id="a_Node000025"><a xlink:href="render__objects_8c.html#acca7eccb2c7434f31224c69e3383ba2f" target="_top" xlink:title=" ">
<polygon fill="white" stroke="#666666" points="543.5,-215.5 451.5,-215.5 451.5,-196.5 543.5,-196.5 543.5,-215.5"/>
<text text-anchor="middle" x="497.5" y="-203.5" font-family="Helvetica,sans-Serif" font-size="10.00">func_800528EC</text>
</a>
</g>
</g>
<!-- Node7&#45;&gt;Node25 -->
<g id="edge32_Node000007_Node000025" class="edge">
<title>Node7&#45;&gt;Node25</title>
<g id="a_edge32_Node000007_Node000025"><a xlink:title=" ">
<path fill="none" stroke="#63b8ff" d="M262.15,-191.92C311.93,-194.91 389.16,-199.55 441.22,-202.68"/>
<polygon fill="#63b8ff" stroke="#63b8ff" points="441.09,-206.18 451.29,-203.28 441.51,-199.19 441.09,-206.18"/>
</a>
</g>
</g>
<!-- Node28 -->
<g id="Node000028" class="node">
<title>Node28</title>
<g id="a_Node000028"><a xlink:href="update__objects_8c.html#a6eafc39608c664ff3d5b832ffb629b12" target="_top" xlink:title=" ">
<polygon fill="white" stroke="#666666" points="389.5,-142.5 298.5,-142.5 298.5,-123.5 389.5,-123.5 389.5,-142.5"/>
<text text-anchor="middle" x="344" y="-130.5" font-family="Helvetica,sans-Serif" font-size="10.00">func_80072320</text>
</a>
</g>
</g>
<!-- Node7&#45;&gt;Node28 -->
<g id="edge40_Node000007_Node000028" class="edge">
<title>Node7&#45;&gt;Node28</title>
<g id="a_edge40_Node000007_Node000028"><a xlink:title=" ">
<path fill="none" stroke="#63b8ff" d="M234.23,-179.39C251.27,-171.55 276.09,-160.3 298,-151 301.64,-149.45 305.47,-147.87 309.28,-146.31"/>
<polygon fill="#63b8ff" stroke="#63b8ff" points="310.67,-149.52 318.63,-142.53 308.05,-143.03 310.67,-149.52"/>
</a>
</g>
</g>
<!-- Node9 -->
<g id="Node000009" class="node">
<title>Node9</title>
<g id="a_Node000009"><a xlink:href="FrameInterpolation_8cpp.html#a3a036bc9d533e28a4e9697cd20dccf3e" target="_top" xlink:title=" ">
<polygon fill="white" stroke="#666666" points="743.5,-30 633.5,-30 633.5,0 743.5,0 743.5,-30"/>
<text text-anchor="start" x="641.5" y="-18" font-family="Helvetica,sans-Serif" font-size="10.00">FrameInterpolation</text>
<text text-anchor="middle" x="688.5" y="-7" font-family="Helvetica,sans-Serif" font-size="10.00">_RecordCloseChild</text>
</a>
</g>
</g>
<!-- Node8&#45;&gt;Node9 -->
<g id="edge12_Node000008_Node000009" class="edge">
<title>Node8&#45;&gt;Node9</title>
<g id="a_edge12_Node000008_Node000009"><a xlink:title=" ">
<path fill="none" stroke="#63b8ff" d="M376.42,-160.37C381.36,-157.88 386.12,-154.79 390,-151 417.89,-123.75 395.67,-95.5 426,-71 481.88,-25.86 565.72,-14.83 623.33,-13.17"/>
<polygon fill="#63b8ff" stroke="#63b8ff" points="623.48,-16.66 633.41,-12.96 623.34,-9.66 623.48,-16.66"/>
</a>
</g>
</g>
<!-- Node11 -->
<g id="Node000011" class="node">
<title>Node11</title>
<g id="a_Node000011"><a xlink:href="FrameInterpolation_8cpp.html#a0eda726b74eac815af4e874014e2727c" target="_top" xlink:title=" ">
<polygon fill="white" stroke="#666666" points="743.5,-264 633.5,-264 633.5,-234 743.5,-234 743.5,-264"/>
<text text-anchor="start" x="641.5" y="-252" font-family="Helvetica,sans-Serif" font-size="10.00">FrameInterpolation</text>
<text text-anchor="middle" x="688.5" y="-241" font-family="Helvetica,sans-Serif" font-size="10.00">_RecordOpenChild</text>
</a>
</g>
</g>
<!-- Node8&#45;&gt;Node11 -->
<g id="edge14_Node000008_Node000011" class="edge">
<title>Node8&#45;&gt;Node11</title>
<g id="a_edge14_Node000008_Node000011"><a xlink:title=" ">
<path fill="none" stroke="#63b8ff" d="M355.58,-179.6C370.2,-192.25 397.97,-214.03 426,-224 490.39,-246.9 568.99,-251.55 623.11,-251.48"/>
<polygon fill="#63b8ff" stroke="#63b8ff" points="623.28,-254.98 633.26,-251.41 623.23,-247.98 623.28,-254.98"/>
</a>
</g>
</g>
<!-- Node12 -->
<g id="Node000012" class="node">
<title>Node12</title>
<g id="a_Node000012"><a xlink:href="render__objects_8c.html#a64a1b579023d24b6d3506bc42b13b837" target="_top" xlink:title=" ">
<polygon fill="white" stroke="#666666" points="543,-178.5 452,-178.5 452,-159.5 543,-159.5 543,-178.5"/>
<text text-anchor="middle" x="497.5" y="-166.5" font-family="Helvetica,sans-Serif" font-size="10.00">func_80043500</text>
</a>
</g>
</g>
<!-- Node8&#45;&gt;Node12 -->
<g id="edge16_Node000008_Node000012" class="edge">
<title>Node8&#45;&gt;Node12</title>
<g id="a_edge16_Node000008_Node000012"><a xlink:title=" ">
<path fill="none" stroke="#63b8ff" d="M390.04,-169.7C406.22,-169.6 424.65,-169.47 441.58,-169.36"/>
<polygon fill="#63b8ff" stroke="#63b8ff" points="441.91,-172.86 451.89,-169.29 441.87,-165.86 441.91,-172.86"/>
</a>
</g>
</g>
<!-- Node10 -->
<g id="Node000010" class="node">
<title>Node10</title>
<g id="a_Node000010"><a xlink:href="FrameInterpolation_8cpp.html#a02c7ac5342a4d376edee38f312b480bf" target="_top" xlink:title=" ">
<polygon fill="white" stroke="#666666" points="1469,-172.5 1361,-172.5 1361,-153.5 1469,-153.5 1469,-172.5"/>
<text text-anchor="middle" x="1415" y="-160.5" font-family="Helvetica,sans-Serif" font-size="10.00">check_if_recording</text>
</a>
</g>
</g>
<!-- Node9&#45;&gt;Node10 -->
<g id="edge13_Node000009_Node000010" class="edge">
<title>Node9&#45;&gt;Node10</title>
<g id="a_edge13_Node000009_Node000010"><a xlink:title=" ">
<path fill="none" stroke="#63b8ff" d="M743.9,-10.48C858.1,-3.34 1128.51,0.95 1325,-96 1352.13,-109.38 1379.33,-131.42 1396.39,-146.55"/>
<polygon fill="#63b8ff" stroke="#63b8ff" points="1394.14,-149.23 1403.9,-153.35 1398.84,-144.04 1394.14,-149.23"/>
</a>
</g>
</g>
<!-- Node11&#45;&gt;Node10 -->
<g id="edge15_Node000011_Node000010" class="edge">
<title>Node11&#45;&gt;Node10</title>
<g id="a_edge15_Node000011_Node000010"><a xlink:title=" ">
<path fill="none" stroke="#63b8ff" d="M743.79,-258.1C856.12,-274.66 1120.61,-301.75 1325,-230 1354.17,-219.76 1381.61,-196.19 1398.11,-179.92"/>
<polygon fill="#63b8ff" stroke="#63b8ff" points="1400.78,-182.2 1405.29,-172.62 1395.78,-177.3 1400.78,-182.2"/>
</a>
</g>
</g>
<!-- Node13 -->
<g id="Node000013" class="node">
<title>Node13</title>
<g id="a_Node000013"><a xlink:href="GBIMiddleware_8cpp.html#a4ecc44e3c6f1ca5a6b4a20c41d3bd2d2" target="_top" xlink:title=" ">
<polygon fill="white" stroke="#666666" points="733,-141.5 644,-141.5 644,-122.5 733,-122.5 733,-141.5"/>
<text text-anchor="middle" x="688.5" y="-129.5" font-family="Helvetica,sans-Serif" font-size="10.00">gSPDisplayList</text>
</a>
</g>
</g>
<!-- Node12&#45;&gt;Node13 -->
<g id="edge17_Node000012_Node000013" class="edge">
<title>Node12&#45;&gt;Node13</title>
<g id="a_edge17_Node000012_Node000013"><a xlink:title=" ">
<path fill="none" stroke="#63b8ff" d="M543.29,-160.23C570.44,-154.92 605.23,-148.11 633.84,-142.5"/>
<polygon fill="#63b8ff" stroke="#63b8ff" points="634.54,-145.93 643.68,-140.58 633.2,-139.06 634.54,-145.93"/>
</a>
</g>
</g>
<!-- Node16 -->
<g id="Node000016" class="node">
<title>Node16</title>
<g id="a_Node000016"><a xlink:href="math__util__2_8c.html#a2eff0e02deb703653ee3230fbc02eb14" target="_top" xlink:title="set the matrix to a transformation matrix">
<polygon fill="white" stroke="#666666" points="772,-178.5 605,-178.5 605,-159.5 772,-159.5 772,-178.5"/>
<text text-anchor="middle" x="688.5" y="-166.5" font-family="Helvetica,sans-Serif" font-size="10.00">rsp_set_matrix_transformation</text>
</a>
</g>
</g>
<!-- Node12&#45;&gt;Node16 -->
<g id="edge20_Node000012_Node000016" class="edge">
<title>Node12&#45;&gt;Node16</title>
<g id="a_edge20_Node000012_Node000016"><a xlink:title=" ">
<path fill="none" stroke="#63b8ff" d="M543.29,-169C558.71,-169 576.6,-169 594.43,-169"/>
<polygon fill="#63b8ff" stroke="#63b8ff" points="594.89,-172.5 604.89,-169 594.89,-165.5 594.89,-172.5"/>
</a>
</g>
</g>
<!-- Node14 -->
<g id="Node000014" class="node">
<title>Node14</title>
<g id="a_Node000014"><a xlink:href="Engine_8cpp.html#a223c8bc63f228dc11177515e38eff2db" target="_top" xlink:title=" ">
<polygon fill="white" stroke="#666666" points="970.5,-215.5 821.5,-215.5 821.5,-196.5 970.5,-196.5 970.5,-215.5"/>
<text text-anchor="middle" x="896" y="-203.5" font-family="Helvetica,sans-Serif" font-size="10.00">GameEngine_OTRSigCheck</text>
</a>
</g>
</g>
<!-- Node13&#45;&gt;Node14 -->
<g id="edge18_Node000013_Node000014" class="edge">
<title>Node13&#45;&gt;Node14</title>
<g id="a_edge18_Node000013_Node000014"><a xlink:title=" ">
<path fill="none" stroke="#63b8ff" d="M733.18,-136.63C746.24,-139.29 760.21,-143.45 772,-150 792.06,-161.14 787.94,-175.86 808,-187 812.17,-189.32 816.6,-191.35 821.17,-193.14"/>
<polygon fill="#63b8ff" stroke="#63b8ff" points="820.1,-196.47 830.7,-196.47 822.41,-189.87 820.1,-196.47"/>
</a>
</g>
</g>
<!-- Node15 -->
<g id="Node000015" class="node">
<title>Node15</title>
<g id="a_Node000015"><a xlink:href="string_8c.html#a008e171a518fe0e0352f31b245e03875" target="_top" xlink:title=" ">
<polygon fill="white" stroke="#666666" points="1088.5,-215.5 1044.5,-215.5 1044.5,-196.5 1088.5,-196.5 1088.5,-215.5"/>
<text text-anchor="middle" x="1066.5" y="-203.5" font-family="Helvetica,sans-Serif" font-size="10.00">strlen</text>
</a>
</g>
</g>
<!-- Node14&#45;&gt;Node15 -->
<g id="edge19_Node000014_Node000015" class="edge">
<title>Node14&#45;&gt;Node15</title>
<g id="a_edge19_Node000014_Node000015"><a xlink:title=" ">
<path fill="none" stroke="#63b8ff" d="M970.91,-206C993.13,-206 1016.32,-206 1034.18,-206"/>
<polygon fill="#63b8ff" stroke="#63b8ff" points="1034.29,-209.5 1044.29,-206 1034.29,-202.5 1034.29,-209.5"/>
</a>
</g>
</g>
<!-- Node17 -->
<g id="Node000017" class="node">
<title>Node17</title>
<g id="a_Node000017"><a xlink:href="Matrix_8cpp.html#a329d78c031733cf22ff7518f5d38fd74" target="_top" xlink:title=" ">
<polygon fill="white" stroke="#666666" points="939,-178.5 853,-178.5 853,-159.5 939,-159.5 939,-178.5"/>
<text text-anchor="middle" x="896" y="-166.5" font-family="Helvetica,sans-Serif" font-size="10.00">AddHudMatrix</text>
</a>
</g>
</g>
<!-- Node16&#45;&gt;Node17 -->
<g id="edge21_Node000016_Node000017" class="edge">
<title>Node16&#45;&gt;Node17</title>
<g id="a_edge21_Node000016_Node000017"><a xlink:title=" ">
<path fill="none" stroke="#63b8ff" d="M772.2,-169C795.97,-169 821.23,-169 842.62,-169"/>
<polygon fill="#63b8ff" stroke="#63b8ff" points="842.78,-172.5 852.78,-169 842.78,-165.5 842.78,-172.5"/>
</a>
</g>
</g>
<!-- Node21 -->
<g id="Node000021" class="node">
<title>Node21</title>
<g id="a_Node000021"><a xlink:href="math__util__2_8c.html#ae71383a9d7f97bcb240b23f68068ab30" target="_top" xlink:title=" ">
<polygon fill="white" stroke="#666666" points="984,-140.5 808,-140.5 808,-121.5 984,-121.5 984,-140.5"/>
<text text-anchor="middle" x="896" y="-128.5" font-family="Helvetica,sans-Serif" font-size="10.00">mtxf_set_matrix_transformation</text>
</a>
</g>
</g>
<!-- Node16&#45;&gt;Node21 -->
<g id="edge27_Node000016_Node000021" class="edge">
<title>Node16&#45;&gt;Node21</title>
<g id="a_edge27_Node000016_Node000021"><a xlink:title=" ">
<path fill="none" stroke="#63b8ff" d="M741.09,-159.46C769.06,-154.29 803.82,-147.86 833.23,-142.42"/>
<polygon fill="#63b8ff" stroke="#63b8ff" points="834.19,-145.8 843.39,-140.54 832.92,-138.92 834.19,-145.8"/>
</a>
</g>
</g>
<!-- Node17&#45;&gt;Node5 -->
<g id="edge26_Node000017_Node000005" class="edge">
<title>Node17&#45;&gt;Node5</title>
<g id="a_edge26_Node000017_Node000005"><a xlink:title=" ">
<path fill="none" stroke="#63b8ff" d="M939.17,-170.79C954.4,-173.14 971.02,-177.84 984,-187 1005.17,-201.93 1039.91,-268.72 1056.34,-302.01"/>
<polygon fill="#63b8ff" stroke="#63b8ff" points="1053.28,-303.72 1060.81,-311.17 1059.57,-300.65 1053.28,-303.72"/>
</a>
</g>
</g>
<!-- Node18 -->
<g id="Node000018" class="node">
<title>Node18</title>
<g id="a_Node000018"><a xlink:href="Matrix_8cpp.html#a67401ed1d8de1f4d3a3e5a7b72842b6a" target="_top" xlink:title=" ">
<polygon fill="white" stroke="#666666" points="1100,-178.5 1033,-178.5 1033,-159.5 1100,-159.5 1100,-178.5"/>
<text text-anchor="middle" x="1066.5" y="-166.5" font-family="Helvetica,sans-Serif" font-size="10.00">AddMatrix</text>
</a>
</g>
</g>
<!-- Node17&#45;&gt;Node18 -->
<g id="edge22_Node000017_Node000018" class="edge">
<title>Node17&#45;&gt;Node18</title>
<g id="a_edge22_Node000017_Node000018"><a xlink:title=" ">
<path fill="none" stroke="#63b8ff" d="M939.09,-169C964.62,-169 997.11,-169 1022.76,-169"/>
<polygon fill="#63b8ff" stroke="#63b8ff" points="1022.93,-172.5 1032.93,-169 1022.93,-165.5 1022.93,-172.5"/>
</a>
</g>
</g>
<!-- Node19 -->
<g id="Node000019" class="node">
<title>Node19</title>
<g id="a_Node000019"><a xlink:href="FrameInterpolation_8cpp.html#a8cf1f2d6fabc6925aa71a9515341b4aa" target="_top" xlink:title=" ">
<polygon fill="white" stroke="#666666" points="1307,-221 1167,-221 1167,-191 1307,-191 1307,-221"/>
<text text-anchor="start" x="1175" y="-209" font-family="Helvetica,sans-Serif" font-size="10.00">FrameInterpolation</text>
<text text-anchor="middle" x="1237" y="-198" font-family="Helvetica,sans-Serif" font-size="10.00">_RecordMatrixMtxFToMtx</text>
</a>
</g>
</g>
<!-- Node18&#45;&gt;Node19 -->
<g id="edge23_Node000018_Node000019" class="edge">
<title>Node18&#45;&gt;Node19</title>
<g id="a_edge23_Node000018_Node000019"><a xlink:title=" ">
<path fill="none" stroke="#63b8ff" d="M1100.39,-176.22C1116.85,-179.84 1137.54,-184.38 1157.77,-188.82"/>
<polygon fill="#63b8ff" stroke="#63b8ff" points="1157.12,-192.26 1167.64,-190.99 1158.62,-185.43 1157.12,-192.26"/>
</a>
</g>
</g>
<!-- Node20 -->
<g id="Node000020" class="node">
<title>Node20</title>
<g id="a_Node000020"><a xlink:href="guMtxF2L_8c.html#a40ab2d64c609839ff1e0ef0de2d0dcc4" target="_top" xlink:title=" ">
<polygon fill="white" stroke="#666666" points="1269.5,-172.5 1204.5,-172.5 1204.5,-153.5 1269.5,-153.5 1269.5,-172.5"/>
<text text-anchor="middle" x="1237" y="-160.5" font-family="Helvetica,sans-Serif" font-size="10.00">guMtxF2L</text>
</a>
</g>
</g>
<!-- Node18&#45;&gt;Node20 -->
<g id="edge25_Node000018_Node000020" class="edge">
<title>Node18&#45;&gt;Node20</title>
<g id="a_edge25_Node000018_Node000020"><a xlink:title=" ">
<path fill="none" stroke="#63b8ff" d="M1100.39,-167.83C1127.17,-166.88 1165.16,-165.52 1194.11,-164.49"/>
<polygon fill="#63b8ff" stroke="#63b8ff" points="1194.47,-167.98 1204.34,-164.13 1194.22,-160.99 1194.47,-167.98"/>
</a>
</g>
</g>
<!-- Node19&#45;&gt;Node10 -->
<g id="edge24_Node000019_Node000010" class="edge">
<title>Node19&#45;&gt;Node10</title>
<g id="a_edge24_Node000019_Node000010"><a xlink:title=" ">
<path fill="none" stroke="#63b8ff" d="M1299.56,-190.96C1321.01,-185.72 1344.78,-179.91 1365.07,-174.96"/>
<polygon fill="#63b8ff" stroke="#63b8ff" points="1366.14,-178.3 1375.03,-172.52 1364.48,-171.5 1366.14,-178.3"/>
</a>
</g>
</g>
<!-- Node22 -->
<g id="Node000022" class="node">
<title>Node22</title>
<g id="a_Node000022"><a xlink:href="math__util_8c.html#ae69cbf5c8d4b3b0dba2d7b4d4673689f" target="_top" xlink:title=" ">
<polygon fill="white" stroke="#666666" points="1085.5,-102.5 1047.5,-102.5 1047.5,-83.5 1085.5,-83.5 1085.5,-102.5"/>
<text text-anchor="middle" x="1066.5" y="-90.5" font-family="Helvetica,sans-Serif" font-size="10.00">coss</text>
</a>
</g>
</g>
<!-- Node21&#45;&gt;Node22 -->
<g id="edge28_Node000021_Node000022" class="edge">
<title>Node21&#45;&gt;Node22</title>
<g id="a_edge28_Node000021_Node000022"><a xlink:title=" ">
<path fill="none" stroke="#63b8ff" d="M939.52,-121.41C970.16,-114.5 1010.65,-105.37 1037.36,-99.35"/>
<polygon fill="#63b8ff" stroke="#63b8ff" points="1038.22,-102.74 1047.21,-97.13 1036.68,-95.91 1038.22,-102.74"/>
</a>
</g>
</g>
<!-- Node23 -->
<g id="Node000023" class="node">
<title>Node23</title>
<g id="a_Node000023"><a xlink:href="FrameInterpolation_8cpp.html#af749df1a96bee5c78287b1845455ae2d" target="_top" xlink:title=" ">
<polygon fill="white" stroke="#666666" points="1325,-135 1149,-135 1149,-105 1325,-105 1325,-135"/>
<text text-anchor="start" x="1157" y="-123" font-family="Helvetica,sans-Serif" font-size="10.00">FrameInterpolation</text>
<text text-anchor="middle" x="1237" y="-112" font-family="Helvetica,sans-Serif" font-size="10.00">_RecordSetMatrixTransformation</text>
</a>
</g>
</g>
<!-- Node21&#45;&gt;Node23 -->
<g id="edge29_Node000021_Node000023" class="edge">
<title>Node21&#45;&gt;Node23</title>
<g id="a_edge29_Node000021_Node000023"><a xlink:title=" ">
<path fill="none" stroke="#63b8ff" d="M984.3,-128.17C1031.55,-126.63 1090.05,-124.74 1138.76,-123.16"/>
<polygon fill="#63b8ff" stroke="#63b8ff" points="1139.11,-126.65 1148.99,-122.82 1138.89,-119.65 1139.11,-126.65"/>
</a>
</g>
</g>
<!-- Node24 -->
<g id="Node000024" class="node">
<title>Node24</title>
<g id="a_Node000024"><a xlink:href="math__util_8c.html#a19ed3bd78fd2d3e2bd0a29f6caf48545" target="_top" xlink:title=" ">
<polygon fill="white" stroke="#666666" points="1084.5,-65.5 1048.5,-65.5 1048.5,-46.5 1084.5,-46.5 1084.5,-65.5"/>
<text text-anchor="middle" x="1066.5" y="-53.5" font-family="Helvetica,sans-Serif" font-size="10.00">sins</text>
</a>
</g>
</g>
<!-- Node21&#45;&gt;Node24 -->
<g id="edge31_Node000021_Node000024" class="edge">
<title>Node21&#45;&gt;Node24</title>
<g id="a_edge31_Node000021_Node000024"><a xlink:title=" ">
<path fill="none" stroke="#63b8ff" d="M959.03,-121.39C967.72,-118.73 976.3,-115.33 984,-111 1004,-99.75 1000.91,-86.73 1020,-74 1025.66,-70.23 1032.23,-67.05 1038.59,-64.47"/>
<polygon fill="#63b8ff" stroke="#63b8ff" points="1040.07,-67.66 1048.24,-60.91 1037.65,-61.09 1040.07,-67.66"/>
</a>
</g>
</g>
<!-- Node23&#45;&gt;Node10 -->
<g id="edge30_Node000023_Node000010" class="edge">
<title>Node23&#45;&gt;Node10</title>
<g id="a_edge30_Node000023_Node000010"><a xlink:title=" ">
<path fill="none" stroke="#63b8ff" d="M1299.56,-135.04C1321.01,-140.28 1344.78,-146.09 1365.07,-151.04"/>
<polygon fill="#63b8ff" stroke="#63b8ff" points="1364.48,-154.5 1375.03,-153.48 1366.14,-147.7 1364.48,-154.5"/>
</a>
</g>
</g>
<!-- Node25&#45;&gt;Node9 -->
<g id="edge33_Node000025_Node000009" class="edge">
<title>Node25&#45;&gt;Node9</title>
<g id="a_edge33_Node000025_Node000009"><a xlink:title=" ">
<path fill="none" stroke="#63b8ff" d="M543.7,-201.37C553.09,-198.49 562.18,-193.99 569,-187 616.27,-138.55 558.21,-87.92 605,-39 610.25,-33.52 616.66,-29.26 623.58,-25.97"/>
<polygon fill="#63b8ff" stroke="#63b8ff" points="625.31,-29.05 633.26,-22.05 622.68,-22.56 625.31,-29.05"/>
</a>
</g>
</g>
<!-- Node25&#45;&gt;Node11 -->
<g id="edge34_Node000025_Node000011" class="edge">
<title>Node25&#45;&gt;Node11</title>
<g id="a_edge34_Node000025_Node000011"><a xlink:title=" ">
<path fill="none" stroke="#63b8ff" d="M540.45,-215.54C564.85,-221.1 596.12,-228.21 623.54,-234.45"/>
<polygon fill="#63b8ff" stroke="#63b8ff" points="622.92,-237.9 633.45,-236.7 624.48,-231.07 622.92,-237.9"/>
</a>
</g>
</g>
<!-- Node25&#45;&gt;Node13 -->
<g id="edge35_Node000025_Node000013" class="edge">
<title>Node25&#45;&gt;Node13</title>
<g id="a_edge35_Node000025_Node000013"><a xlink:title=" ">
<path fill="none" stroke="#63b8ff" d="M543.58,-197.72C552.36,-195.05 561.24,-191.56 569,-187 588.78,-175.38 584.94,-161.14 605,-150 613.84,-145.09 623.91,-141.52 633.9,-138.92"/>
<polygon fill="#63b8ff" stroke="#63b8ff" points="634.86,-142.29 643.82,-136.63 633.29,-135.47 634.86,-142.29"/>
</a>
</g>
</g>
<!-- Node25&#45;&gt;Node16 -->
<g id="edge39_Node000025_Node000016" class="edge">
<title>Node25&#45;&gt;Node16</title>
<g id="a_edge39_Node000025_Node000016"><a xlink:title=" ">
<path fill="none" stroke="#63b8ff" d="M543.77,-197.14C569.35,-192.13 601.61,-185.81 629.08,-180.44"/>
<polygon fill="#63b8ff" stroke="#63b8ff" points="629.82,-183.86 638.96,-178.5 628.47,-176.99 629.82,-183.86"/>
</a>
</g>
</g>
<!-- Node26 -->
<g id="Node000026" class="node">
<title>Node26</title>
<g id="a_Node000026"><a xlink:href="GBIMiddleware_8cpp.html#aeef79449a27a710d73576e4a4f7f7f99" target="_top" xlink:title=" ">
<polygon fill="white" stroke="#666666" points="721.5,-215.5 655.5,-215.5 655.5,-196.5 721.5,-196.5 721.5,-215.5"/>
<text text-anchor="middle" x="688.5" y="-203.5" font-family="Helvetica,sans-Serif" font-size="10.00">gSPVertex</text>
</a>
</g>
</g>
<!-- Node25&#45;&gt;Node26 -->
<g id="edge36_Node000025_Node000026" class="edge">
<title>Node25&#45;&gt;Node26</title>
<g id="a_edge36_Node000025_Node000026"><a xlink:title=" ">
<path fill="none" stroke="#63b8ff" d="M543.77,-206C574.54,-206 614.98,-206 645.12,-206"/>
<polygon fill="#63b8ff" stroke="#63b8ff" points="645.32,-209.5 655.32,-206 645.32,-202.5 645.32,-209.5"/>
</a>
</g>
</g>
<!-- Node27 -->
<g id="Node000027" class="node">
<title>Node27</title>
<g id="a_Node000027"><a xlink:href="render__objects_8c.html#ac6b2b1be6d99122b6bd5612bdee6ffef" target="_top" xlink:title=" ">
<polygon fill="white" stroke="#666666" points="743.5,-312 633.5,-312 633.5,-282 743.5,-282 743.5,-312"/>
<text text-anchor="start" x="641.5" y="-300" font-family="Helvetica,sans-Serif" font-size="10.00">load_texture_block</text>
<text text-anchor="middle" x="688.5" y="-289" font-family="Helvetica,sans-Serif" font-size="10.00">_ia16_nomirror</text>
</a>
</g>
</g>
<!-- Node25&#45;&gt;Node27 -->
<g id="edge38_Node000025_Node000027" class="edge">
<title>Node25&#45;&gt;Node27</title>
<g id="a_edge38_Node000025_Node000027"><a xlink:title=" ">
<path fill="none" stroke="#63b8ff" d="M511.28,-215.71C530.63,-230.01 568.94,-256.79 605,-273 611.03,-275.71 617.45,-278.2 623.94,-280.47"/>
<polygon fill="#63b8ff" stroke="#63b8ff" points="622.87,-283.8 633.46,-283.63 625.07,-277.16 622.87,-283.8"/>
</a>
</g>
</g>
<!-- Node26&#45;&gt;Node14 -->
<g id="edge37_Node000026_Node000014" class="edge">
<title>Node26&#45;&gt;Node14</title>
<g id="a_edge37_Node000026_Node000014"><a xlink:title=" ">
<path fill="none" stroke="#63b8ff" d="M721.61,-206C745.65,-206 779.69,-206 811.25,-206"/>
<polygon fill="#63b8ff" stroke="#63b8ff" points="811.39,-209.5 821.39,-206 811.39,-202.5 811.39,-209.5"/>
</a>
</g>
</g>
<!-- Node29&#45;&gt;Node9 -->
<g id="edge42_Node000029_Node000009" class="edge">
<title>Node29&#45;&gt;Node9</title>
<g id="a_edge42_Node000029_Node000009"><a xlink:title=" ">
<path fill="none" stroke="#63b8ff" d="M523.64,-79.93C544.79,-67.71 576.14,-50.65 605,-39 610.9,-36.62 617.13,-34.36 623.4,-32.26"/>
<polygon fill="#63b8ff" stroke="#63b8ff" points="624.82,-35.48 633.27,-29.08 622.68,-28.82 624.82,-35.48"/>
</a>
</g>
</g>
<!-- Node29&#45;&gt;Node11 -->
<g id="edge43_Node000029_Node000011" class="edge">
<title>Node29&#45;&gt;Node11</title>
<g id="a_edge43_Node000029_Node000011"><a xlink:title=" ">
<path fill="none" stroke="#63b8ff" d="M523.02,-110C537.77,-119.95 556.11,-134.07 569,-150 592.01,-178.43 577.17,-200.27 605,-224 610.56,-228.74 617,-232.58 623.78,-235.7"/>
<polygon fill="#63b8ff" stroke="#63b8ff" points="622.6,-239 633.18,-239.5 625.23,-232.51 622.6,-239"/>
</a>
</g>
</g>
<!-- Node29&#45;&gt;Node13 -->
<g id="edge45_Node000029_Node000013" class="edge">
<title>Node29&#45;&gt;Node13</title>
<g id="a_edge45_Node000029_Node000013"><a xlink:title=" ">
<path fill="none" stroke="#63b8ff" d="M569.15,-108.83C590.58,-113.03 613.77,-117.57 633.9,-121.51"/>
<polygon fill="#63b8ff" stroke="#63b8ff" points="633.32,-124.96 643.81,-123.45 634.67,-118.09 633.32,-124.96"/>
</a>
</g>
</g>
<!-- Node30 -->
<g id="Node000030" class="node">
<title>Node30</title>
<g id="a_Node000030"><a xlink:href="render__objects_8c.html#a81be2b87d808633d8fe563c777fe1b0c" target="_top" xlink:title=" ">
<polygon fill="white" stroke="#666666" points="734,-67.5 643,-67.5 643,-48.5 734,-48.5 734,-67.5"/>
<text text-anchor="middle" x="688.5" y="-55.5" font-family="Helvetica,sans-Serif" font-size="10.00">func_80044F34</text>
</a>
</g>
</g>
<!-- Node29&#45;&gt;Node30 -->
<g id="edge44_Node000029_Node000030" class="edge">
<title>Node29&#45;&gt;Node30</title>
<g id="a_edge44_Node000029_Node000030"><a xlink:title=" ">
<path fill="none" stroke="#63b8ff" d="M569.15,-81.17C590.31,-77.03 613.19,-72.55 633.14,-68.64"/>
<polygon fill="#63b8ff" stroke="#63b8ff" points="633.83,-72.07 642.97,-66.72 632.49,-65.2 633.83,-72.07"/>
</a>
</g>
</g>
<!-- Node31 -->
<g id="Node000031" class="node">
<title>Node31</title>
<g id="a_Node000031"><a xlink:href="math__util__2_8c.html#aca064a66dc29c36e1db7b79a6b679e25" target="_top" xlink:title=" ">
<polygon fill="white" stroke="#666666" points="763,-104.5 614,-104.5 614,-85.5 763,-85.5 763,-104.5"/>
<text text-anchor="middle" x="688.5" y="-92.5" font-family="Helvetica,sans-Serif" font-size="10.00">rsp_set_matrix_gObjectList</text>
</a>
</g>
</g>
<!-- Node29&#45;&gt;Node31 -->
<g id="edge46_Node000029_Node000031" class="edge">
<title>Node29&#45;&gt;Node31</title>
<g id="a_edge46_Node000029_Node000031"><a xlink:title=" ">
<path fill="none" stroke="#63b8ff" d="M569.15,-95C580.42,-95 592.17,-95 603.71,-95"/>
<polygon fill="#63b8ff" stroke="#63b8ff" points="603.78,-98.5 613.78,-95 603.78,-91.5 603.78,-98.5"/>
</a>
</g>
</g>
<!-- Node31&#45;&gt;Node17 -->
<g id="edge47_Node000031_Node000017" class="edge">
<title>Node31&#45;&gt;Node17</title>
<g id="a_edge47_Node000031_Node000017"><a xlink:title=" ">
<path fill="none" stroke="#63b8ff" d="M751.73,-104.52C758.78,-106.77 765.7,-109.56 772,-113 791.86,-123.85 788.2,-138.04 808,-149 818.59,-154.87 830.82,-159.01 842.7,-161.95"/>
<polygon fill="#63b8ff" stroke="#63b8ff" points="842.04,-165.38 852.56,-164.13 843.56,-158.55 842.04,-165.38"/>
</a>
</g>
</g>
<!-- Node32 -->
<g id="Node000032" class="node">
<title>Node32</title>
<g id="a_Node000032"><a xlink:href="math__util__2_8c.html#ab70b077c4d314699e7fb4bea342827e0" target="_top" xlink:title=" ">
<polygon fill="white" stroke="#666666" points="975,-102.5 817,-102.5 817,-83.5 975,-83.5 975,-102.5"/>
<text text-anchor="middle" x="896" y="-90.5" font-family="Helvetica,sans-Serif" font-size="10.00">mtxf_set_matrix_gObjectList</text>
</a>
</g>
</g>
<!-- Node31&#45;&gt;Node32 -->
<g id="edge48_Node000031_Node000032" class="edge">
<title>Node31&#45;&gt;Node32</title>
<g id="a_edge48_Node000031_Node000032"><a xlink:title=" ">
<path fill="none" stroke="#63b8ff" d="M763.11,-94.28C777.1,-94.15 791.88,-94 806.29,-93.86"/>
<polygon fill="#63b8ff" stroke="#63b8ff" points="806.73,-97.36 816.69,-93.76 806.66,-90.36 806.73,-97.36"/>
</a>
</g>
</g>
<!-- Node32&#45;&gt;Node22 -->
<g id="edge49_Node000032_Node000022" class="edge">
<title>Node32&#45;&gt;Node22</title>
<g id="a_edge49_Node000032_Node000022"><a xlink:title=" ">
<path fill="none" stroke="#63b8ff" d="M975.33,-93C997.33,-93 1019.86,-93 1036.9,-93"/>
<polygon fill="#63b8ff" stroke="#63b8ff" points="1037.25,-96.5 1047.25,-93 1037.25,-89.5 1037.25,-96.5"/>
</a>
</g>
</g>
<!-- Node32&#45;&gt;Node24 -->
<g id="edge50_Node000032_Node000024" class="edge">
<title>Node32&#45;&gt;Node24</title>
<g id="a_edge50_Node000032_Node000024"><a xlink:title=" ">
<path fill="none" stroke="#63b8ff" d="M940.39,-83.47C971.25,-76.7 1011.74,-67.8 1038.18,-62"/>
<polygon fill="#63b8ff" stroke="#63b8ff" points="1039.23,-65.35 1048.25,-59.79 1037.73,-58.51 1039.23,-65.35"/>
</a>
</g>
</g>
</g>
</svg>
