<?xml version="1.0" encoding="UTF-8" standalone="no"?>
<!DOCTYPE svg PUBLIC "-//W3C//DTD SVG 1.1//EN"
 "http://www.w3.org/Graphics/SVG/1.1/DTD/svg11.dtd">
<!-- Generated by graphviz version 2.43.0 (0)
 -->
<!-- Title: get_track_section_id Pages: 1 -->
<svg width="851pt" height="1286pt"
 viewBox="0.00 0.00 851.00 1286.00" xmlns="http://www.w3.org/2000/svg" xmlns:xlink="http://www.w3.org/1999/xlink">
<g id="graph0" class="graph" transform="scale(1 1) rotate(0) translate(4 1282)">
<title>get_track_section_id</title>
<!-- Node1 -->
<g id="Node000001" class="node">
<title>Node1</title>
<g id="a_Node000001"><a xlink:title=" ">
<polygon fill="#999999" stroke="#666666" points="843,-464 726,-464 726,-445 843,-445 843,-464"/>
<text text-anchor="middle" x="784.5" y="-452" font-family="Helvetica,sans-Serif" font-size="10.00">get_track_section_id</text>
</a>
</g>
</g>
<!-- Node2 -->
<g id="Node000002" class="node">
<title>Node2</title>
<g id="a_Node000002"><a xlink:href="code__80005FD0_8c.html#aae3d2d6e27d79a30dfe68c64e771b5b1" target="_top" xlink:title=" ">
<polygon fill="white" stroke="#666666" points="666.5,-1000 573.5,-1000 573.5,-981 666.5,-981 666.5,-1000"/>
<text text-anchor="middle" x="620" y="-988" font-family="Helvetica,sans-Serif" font-size="10.00">func_8000D24C</text>
</a>
</g>
</g>
<!-- Node1&#45;&gt;Node2 -->
<g id="edge1_Node000001_Node000002" class="edge">
<title>Node1&#45;&gt;Node2</title>
<g id="a_edge1_Node000001_Node000002"><a xlink:title=" ">
<path fill="none" stroke="#63b8ff" d="M777.59,-473.99C751.01,-561.68 642.97,-918.04 623.89,-980.98"/>
<polygon fill="#63b8ff" stroke="#63b8ff" points="780.99,-474.85 780.54,-464.26 774.29,-472.82 780.99,-474.85"/>
</a>
</g>
</g>
<!-- Node89 -->
<g id="Node000089" class="node">
<title>Node89</title>
<g id="a_Node000089"><a xlink:href="code__80005FD0_8c.html#ac09cdba0d303bd516359b9ae117e59e6" target="_top" xlink:title=" ">
<polygon fill="white" stroke="#666666" points="665.5,-705 574.5,-705 574.5,-686 665.5,-686 665.5,-705"/>
<text text-anchor="middle" x="620" y="-693" font-family="Helvetica,sans-Serif" font-size="10.00">func_80011014</text>
</a>
</g>
</g>
<!-- Node1&#45;&gt;Node89 -->
<g id="edge16_Node000001_Node000089" class="edge">
<title>Node1&#45;&gt;Node89</title>
<g id="a_edge16_Node000001_Node000089"><a xlink:title=" ">
<path fill="none" stroke="#63b8ff" d="M771.21,-472.72C738.82,-520.77 651.92,-649.65 627.48,-685.9"/>
<polygon fill="#63b8ff" stroke="#63b8ff" points="774.24,-474.49 776.93,-464.25 768.44,-470.58 774.24,-474.49"/>
</a>
</g>
</g>
<!-- Node98 -->
<g id="Node000098" class="node">
<title>Node98</title>
<g id="a_Node000098"><a xlink:href="code__80086E70_8c.html#a4849c8b11b4ef9c517ab0c822b98ef57" target="_top" xlink:title=" ">
<polygon fill="white" stroke="#666666" points="666,-538 574,-538 574,-519 666,-519 666,-538"/>
<text text-anchor="middle" x="620" y="-526" font-family="Helvetica,sans-Serif" font-size="10.00">func_8008A870</text>
</a>
</g>
</g>
<!-- Node1&#45;&gt;Node98 -->
<g id="edge19_Node000001_Node000098" class="edge">
<title>Node1&#45;&gt;Node98</title>
<g id="a_edge19_Node000001_Node000098"><a xlink:title=" ">
<path fill="none" stroke="#63b8ff" d="M761.97,-469.82C743.6,-482.29 716.09,-499.55 690,-510.5 682.24,-513.76 673.73,-516.56 665.42,-518.91"/>
<polygon fill="#63b8ff" stroke="#63b8ff" points="763.97,-472.69 770.21,-464.13 759.99,-466.93 763.97,-472.69"/>
</a>
</g>
</g>
<!-- Node99 -->
<g id="Node000099" class="node">
<title>Node99</title>
<g id="a_Node000099"><a xlink:href="code__80086E70_8c.html#af93a7602ca2bf7516e9146660e81d4ae" target="_top" xlink:title=" ">
<polygon fill="white" stroke="#666666" points="666,-501 574,-501 574,-482 666,-482 666,-501"/>
<text text-anchor="middle" x="620" y="-489" font-family="Helvetica,sans-Serif" font-size="10.00">func_8008A890</text>
</a>
</g>
</g>
<!-- Node1&#45;&gt;Node99 -->
<g id="edge20_Node000001_Node000099" class="edge">
<title>Node1&#45;&gt;Node99</title>
<g id="a_edge20_Node000001_Node000099"><a xlink:title=" ">
<path fill="none" stroke="#63b8ff" d="M731.73,-466.29C709.54,-471.34 683.97,-477.16 662.99,-481.94"/>
<polygon fill="#63b8ff" stroke="#63b8ff" points="732.68,-469.66 741.65,-464.03 731.12,-462.84 732.68,-469.66"/>
</a>
</g>
</g>
<!-- Node103 -->
<g id="Node000103" class="node">
<title>Node103</title>
<g id="a_Node000103"><a xlink:href="classDKJungle.html#a967ee0922db46ff0b7c571e9c88f5999" target="_top" xlink:title=" ">
<polygon fill="white" stroke="#666666" points="689.5,-464 550.5,-464 550.5,-445 689.5,-445 689.5,-464"/>
<text text-anchor="middle" x="620" y="-452" font-family="Helvetica,sans-Serif" font-size="10.00">DKJungle::GetWaterLevel</text>
</a>
</g>
</g>
<!-- Node1&#45;&gt;Node103 -->
<g id="edge24_Node000001_Node000103" class="edge">
<title>Node1&#45;&gt;Node103</title>
<g id="a_edge24_Node000001_Node000103"><a xlink:title=" ">
<path fill="none" stroke="#63b8ff" d="M715.47,-454.5C706.95,-454.5 698.22,-454.5 689.68,-454.5"/>
<polygon fill="#63b8ff" stroke="#63b8ff" points="715.75,-458 725.75,-454.5 715.75,-451 715.75,-458"/>
</a>
</g>
</g>
<!-- Node104 -->
<g id="Node000104" class="node">
<title>Node104</title>
<g id="a_Node000104"><a xlink:href="render__courses_8c.html#a0c6536cf72cff97ccc3ed5c85967817e" target="_top" xlink:title=" ">
<polygon fill="white" stroke="#666666" points="689.5,-427 550.5,-427 550.5,-408 689.5,-408 689.5,-427"/>
<text text-anchor="middle" x="620" y="-415" font-family="Helvetica,sans-Serif" font-size="10.00">render_course_segments</text>
</a>
</g>
</g>
<!-- Node1&#45;&gt;Node104 -->
<g id="edge25_Node000001_Node000104" class="edge">
<title>Node1&#45;&gt;Node104</title>
<g id="a_edge25_Node000001_Node000104"><a xlink:title=" ">
<path fill="none" stroke="#63b8ff" d="M731.73,-442.71C709.54,-437.66 683.97,-431.84 662.99,-427.06"/>
<polygon fill="#63b8ff" stroke="#63b8ff" points="731.12,-446.16 741.65,-444.97 732.68,-439.34 731.12,-446.16"/>
</a>
</g>
</g>
<!-- Node124 -->
<g id="Node000124" class="node">
<title>Node124</title>
<g id="a_Node000124"><a xlink:href="code__80005FD0_8c.html#aa68f443dc84b98b90105c83a74d957de" target="_top" xlink:title=" ">
<polygon fill="white" stroke="#666666" points="690,-354.5 550,-354.5 550,-324.5 690,-324.5 690,-354.5"/>
<text text-anchor="start" x="558" y="-342.5" font-family="Helvetica,sans-Serif" font-size="10.00">update_path_index_track</text>
<text text-anchor="middle" x="620" y="-331.5" font-family="Helvetica,sans-Serif" font-size="10.00">_section</text>
</a>
</g>
</g>
<!-- Node1&#45;&gt;Node124 -->
<g id="edge45_Node000001_Node000124" class="edge">
<title>Node1&#45;&gt;Node124</title>
<g id="a_edge45_Node000001_Node000124"><a xlink:title=" ">
<path fill="none" stroke="#63b8ff" d="M761.45,-438.89C730.11,-416.72 673.1,-376.37 642.22,-354.52"/>
<polygon fill="#63b8ff" stroke="#63b8ff" points="759.74,-441.97 769.92,-444.89 763.78,-436.26 759.74,-441.97"/>
</a>
</g>
</g>
<!-- Node125 -->
<g id="Node000125" class="node">
<title>Node125</title>
<g id="a_Node000125"><a xlink:href="code__80005FD0_8c.html#ae616e2a3faeffb647be7b4ce03960f15" target="_top" xlink:title=" ">
<polygon fill="white" stroke="#666666" points="486,-57 373,-57 373,-38 486,-38 486,-57"/>
<text text-anchor="middle" x="429.5" y="-45" font-family="Helvetica,sans-Serif" font-size="10.00">update_player_path</text>
</a>
</g>
</g>
<!-- Node1&#45;&gt;Node125 -->
<g id="edge50_Node000001_Node000125" class="edge">
<title>Node1&#45;&gt;Node125</title>
<g id="a_edge50_Node000001_Node000125"><a xlink:title=" ">
<path fill="none" stroke="#63b8ff" d="M776.11,-435.01C750.69,-370.78 660.28,-164.36 514,-66.5 505.72,-60.96 496.06,-57.02 486.3,-54.22"/>
<polygon fill="#63b8ff" stroke="#63b8ff" points="772.98,-436.62 779.87,-444.68 779.51,-434.09 772.98,-436.62"/>
</a>
</g>
</g>
<!-- Node131 -->
<g id="Node000131" class="node">
<title>Node131</title>
<g id="a_Node000131"><a xlink:href="code__80005FD0_8c.html#a0ca8c804cfdeb1e02617c70d1a8c73e1" target="_top" xlink:title=" ">
<polygon fill="white" stroke="#666666" points="676.5,-59.5 563.5,-59.5 563.5,-29.5 676.5,-29.5 676.5,-59.5"/>
<text text-anchor="start" x="571.5" y="-47.5" font-family="Helvetica,sans-Serif" font-size="10.00">update_player_path</text>
<text text-anchor="middle" x="620" y="-36.5" font-family="Helvetica,sans-Serif" font-size="10.00">_selection</text>
</a>
</g>
</g>
<!-- Node1&#45;&gt;Node131 -->
<g id="edge51_Node000001_Node000131" class="edge">
<title>Node1&#45;&gt;Node131</title>
<g id="a_edge51_Node000001_Node000131"><a xlink:title=" ">
<path fill="none" stroke="#63b8ff" d="M776.21,-435.22C760.65,-394.17 722.91,-295.08 690,-212.5 667.47,-155.97 639.69,-89.19 627.39,-59.74"/>
<polygon fill="#63b8ff" stroke="#63b8ff" points="773.02,-436.68 779.83,-444.79 779.56,-434.2 773.02,-436.68"/>
</a>
</g>
</g>
<!-- Node3 -->
<g id="Node000003" class="node">
<title>Node3</title>
<g id="a_Node000003"><a xlink:href="code__80005FD0_8c.html#aff1ba4b22fc22c38fcf28007ccaaa752" target="_top" xlink:title=" ">
<polygon fill="white" stroke="#666666" points="476,-1204 383,-1204 383,-1185 476,-1185 476,-1204"/>
<text text-anchor="middle" x="429.5" y="-1192" font-family="Helvetica,sans-Serif" font-size="10.00">func_8000D2B4</text>
</a>
</g>
</g>
<!-- Node2&#45;&gt;Node3 -->
<g id="edge2_Node000002_Node000003" class="edge">
<title>Node2&#45;&gt;Node3</title>
<g id="a_edge2_Node000002_Node000003"><a xlink:title=" ">
<path fill="none" stroke="#63b8ff" d="M603.15,-1007.65C565.07,-1048.86 469.39,-1152.41 439.54,-1184.72"/>
<polygon fill="#63b8ff" stroke="#63b8ff" points="605.95,-1009.79 610.16,-1000.07 600.8,-1005.04 605.95,-1009.79"/>
</a>
</g>
</g>
<!-- Node35 -->
<g id="Node000035" class="node">
<title>Node35</title>
<g id="a_Node000035"><a xlink:href="code__80005FD0_8c.html#ac12bccf3deb2b9633f49acd4376e0465" target="_top" xlink:title=" ">
<polygon fill="white" stroke="#666666" points="476,-1000 383,-1000 383,-981 476,-981 476,-1000"/>
<text text-anchor="middle" x="429.5" y="-988" font-family="Helvetica,sans-Serif" font-size="10.00">func_8000D33C</text>
</a>
</g>
</g>
<!-- Node2&#45;&gt;Node35 -->
<g id="edge7_Node000002_Node000035" class="edge">
<title>Node2&#45;&gt;Node35</title>
<g id="a_edge7_Node000002_Node000035"><a xlink:title=" ">
<path fill="none" stroke="#63b8ff" d="M563.02,-990.5C535.28,-990.5 502.2,-990.5 476.04,-990.5"/>
<polygon fill="#63b8ff" stroke="#63b8ff" points="563.37,-994 573.37,-990.5 563.37,-987 563.37,-994"/>
</a>
</g>
</g>
<!-- Node4 -->
<g id="Node000004" class="node">
<title>Node4</title>
<g id="a_Node000004"><a xlink:href="code__80005FD0_8c.html#a45fa364fbae557a3d2025ebdc0846cd2" target="_top" xlink:title=" ">
<polygon fill="#fff0f0" stroke="red" points="276,-1278 182,-1278 182,-1259 276,-1259 276,-1278"/>
<text text-anchor="middle" x="229" y="-1266" font-family="Helvetica,sans-Serif" font-size="10.00">func_8000D6D0</text>
</a>
</g>
</g>
<!-- Node3&#45;&gt;Node4 -->
<g id="edge3_Node000003_Node000004" class="edge">
<title>Node3&#45;&gt;Node4</title>
<g id="a_edge3_Node000003_Node000004"><a xlink:title=" ">
<path fill="none" stroke="#63b8ff" d="M402.1,-1208.88C378.33,-1221.34 342.14,-1239.11 309,-1250.5 298.49,-1254.11 286.94,-1257.21 276,-1259.77"/>
<polygon fill="#63b8ff" stroke="#63b8ff" points="403.98,-1211.85 411.18,-1204.07 400.7,-1205.66 403.98,-1211.85"/>
</a>
</g>
</g>
<!-- Node29 -->
<g id="Node000029" class="node">
<title>Node29</title>
<g id="a_Node000029"><a xlink:href="code__80005FD0_8c.html#a124bae511133f507498b19842362feeb" target="_top" xlink:title=" ">
<polygon fill="#fff0f0" stroke="red" points="275,-1241 183,-1241 183,-1222 275,-1222 275,-1241"/>
<text text-anchor="middle" x="229" y="-1229" font-family="Helvetica,sans-Serif" font-size="10.00">func_8000D940</text>
</a>
</g>
</g>
<!-- Node3&#45;&gt;Node29 -->
<g id="edge4_Node000003_Node000029" class="edge">
<title>Node3&#45;&gt;Node29</title>
<g id="a_edge4_Node000003_Node000029"><a xlink:title=" ">
<path fill="none" stroke="#63b8ff" d="M372.81,-1204.88C342.03,-1210.62 304.28,-1217.65 275.33,-1223.05"/>
<polygon fill="#63b8ff" stroke="#63b8ff" points="373.77,-1208.26 382.96,-1202.99 372.49,-1201.38 373.77,-1208.26"/>
</a>
</g>
</g>
<!-- Node33 -->
<g id="Node000033" class="node">
<title>Node33</title>
<g id="a_Node000033"><a xlink:href="code__80005FD0_8c.html#ad7cfd2edb9055380080a6c1c577d042f" target="_top" xlink:title=" ">
<polygon fill="white" stroke="#666666" points="275.5,-1204 182.5,-1204 182.5,-1185 275.5,-1185 275.5,-1204"/>
<text text-anchor="middle" x="229" y="-1192" font-family="Helvetica,sans-Serif" font-size="10.00">func_8000DF8C</text>
</a>
</g>
</g>
<!-- Node3&#45;&gt;Node33 -->
<g id="edge5_Node000003_Node000033" class="edge">
<title>Node3&#45;&gt;Node33</title>
<g id="a_edge5_Node000003_Node000033"><a xlink:title=" ">
<path fill="none" stroke="#63b8ff" d="M372.85,-1194.5C342.19,-1194.5 304.59,-1194.5 275.67,-1194.5"/>
<polygon fill="#63b8ff" stroke="#63b8ff" points="372.96,-1198 382.96,-1194.5 372.96,-1191 372.96,-1198"/>
</a>
</g>
</g>
<!-- Node34 -->
<g id="Node000034" class="node">
<title>Node34</title>
<g id="a_Node000034"><a xlink:href="classOBombKart.html#ae45058df866237b65f841ece4c611bf6" target="_top" xlink:title=" ">
<polygon fill="white" stroke="#666666" points="278.5,-1167 179.5,-1167 179.5,-1148 278.5,-1148 278.5,-1167"/>
<text text-anchor="middle" x="229" y="-1155" font-family="Helvetica,sans-Serif" font-size="10.00">OBombKart::Tick</text>
</a>
</g>
</g>
<!-- Node3&#45;&gt;Node34 -->
<g id="edge6_Node000003_Node000034" class="edge">
<title>Node3&#45;&gt;Node34</title>
<g id="a_edge6_Node000003_Node000034"><a xlink:title=" ">
<path fill="none" stroke="#63b8ff" d="M372.8,-1184.12C343.24,-1178.61 307.25,-1171.9 278.8,-1166.6"/>
<polygon fill="#63b8ff" stroke="#63b8ff" points="372.49,-1187.62 382.96,-1186.01 373.77,-1180.74 372.49,-1187.62"/>
</a>
</g>
</g>
<!-- Node36 -->
<g id="Node000036" class="node">
<title>Node36</title>
<g id="a_Node000036"><a xlink:href="code__80005FD0_8c.html#a4653876884c97d13061b7b420a918c2e" target="_top" xlink:title=" ">
<polygon fill="#fff0f0" stroke="red" points="275,-1130 183,-1130 183,-1111 275,-1111 275,-1130"/>
<text text-anchor="middle" x="229" y="-1118" font-family="Helvetica,sans-Serif" font-size="10.00">func_8001577C</text>
</a>
</g>
</g>
<!-- Node35&#45;&gt;Node36 -->
<g id="edge8_Node000035_Node000036" class="edge">
<title>Node35&#45;&gt;Node36</title>
<g id="a_edge8_Node000035_Node000036"><a xlink:title=" ">
<path fill="none" stroke="#63b8ff" d="M415.04,-1007.98C394.82,-1032.97 354.14,-1078.51 309,-1102.5 298.69,-1107.98 286.76,-1111.8 275.35,-1114.46"/>
<polygon fill="#63b8ff" stroke="#63b8ff" points="417.84,-1010.08 421.31,-1000.07 412.36,-1005.74 417.84,-1010.08"/>
</a>
</g>
</g>
<!-- Node82 -->
<g id="Node000082" class="node">
<title>Node82</title>
<g id="a_Node000082"><a xlink:href="code__80005FD0_8c.html#af78d8397fa3a12ca87ae281bdf990218" target="_top" xlink:title=" ">
<polygon fill="#fff0f0" stroke="red" points="275,-1093 183,-1093 183,-1074 275,-1074 275,-1093"/>
<text text-anchor="middle" x="229" y="-1081" font-family="Helvetica,sans-Serif" font-size="10.00">func_80015C94</text>
</a>
</g>
</g>
<!-- Node35&#45;&gt;Node82 -->
<g id="edge9_Node000035_Node000082" class="edge">
<title>Node35&#45;&gt;Node82</title>
<g id="a_edge9_Node000035_Node000082"><a xlink:title=" ">
<path fill="none" stroke="#63b8ff" d="M408.13,-1006.31C385.23,-1023.33 346.37,-1050.04 309,-1065.5 298.34,-1069.91 286.41,-1073.34 275.1,-1075.97"/>
<polygon fill="#63b8ff" stroke="#63b8ff" points="410.49,-1008.91 416.36,-1000.09 406.27,-1003.33 410.49,-1008.91"/>
</a>
</g>
</g>
<!-- Node83 -->
<g id="Node000083" class="node">
<title>Node83</title>
<g id="a_Node000083"><a xlink:href="code__80005FD0_8c.html#acb51f46008c8a06197fc136c4f2802a9" target="_top" xlink:title=" ">
<polygon fill="#fff0f0" stroke="red" points="274.5,-1056 183.5,-1056 183.5,-1037 274.5,-1037 274.5,-1056"/>
<text text-anchor="middle" x="229" y="-1044" font-family="Helvetica,sans-Serif" font-size="10.00">func_80016494</text>
</a>
</g>
</g>
<!-- Node35&#45;&gt;Node83 -->
<g id="edge10_Node000035_Node000083" class="edge">
<title>Node35&#45;&gt;Node83</title>
<g id="a_edge10_Node000035_Node000083"><a xlink:title=" ">
<path fill="none" stroke="#63b8ff" d="M391.13,-1003.27C367.69,-1011.06 336.75,-1020.94 309,-1028.5 298.01,-1031.49 286.06,-1034.4 274.87,-1036.96"/>
<polygon fill="#63b8ff" stroke="#63b8ff" points="392.32,-1006.57 400.69,-1000.07 390.09,-999.93 392.32,-1006.57"/>
</a>
</g>
</g>
<!-- Node84 -->
<g id="Node000084" class="node">
<title>Node84</title>
<g id="a_Node000084"><a xlink:href="code__80005FD0_8c.html#a24f79b7815d902f0c40373c892d9241b" target="_top" xlink:title=" ">
<polygon fill="#fff0f0" stroke="red" points="274.5,-1019 183.5,-1019 183.5,-1000 274.5,-1000 274.5,-1019"/>
<text text-anchor="middle" x="229" y="-1007" font-family="Helvetica,sans-Serif" font-size="10.00">func_80017054</text>
</a>
</g>
</g>
<!-- Node35&#45;&gt;Node84 -->
<g id="edge11_Node000035_Node000084" class="edge">
<title>Node35&#45;&gt;Node84</title>
<g id="a_edge11_Node000035_Node000084"><a xlink:title=" ">
<path fill="none" stroke="#63b8ff" d="M372.74,-995.84C341.73,-998.81 303.67,-1002.45 274.64,-1005.23"/>
<polygon fill="#63b8ff" stroke="#63b8ff" points="373.34,-999.3 382.96,-994.86 372.67,-992.33 373.34,-999.3"/>
</a>
</g>
</g>
<!-- Node85 -->
<g id="Node000085" class="node">
<title>Node85</title>
<g id="a_Node000085"><a xlink:href="code__80005FD0_8c.html#aec654f7098be6c6ff382d5058263a76a" target="_top" xlink:title=" ">
<polygon fill="#fff0f0" stroke="red" points="274.5,-982 183.5,-982 183.5,-963 274.5,-963 274.5,-982"/>
<text text-anchor="middle" x="229" y="-970" font-family="Helvetica,sans-Serif" font-size="10.00">func_800178F4</text>
</a>
</g>
</g>
<!-- Node35&#45;&gt;Node85 -->
<g id="edge12_Node000035_Node000085" class="edge">
<title>Node35&#45;&gt;Node85</title>
<g id="a_edge12_Node000035_Node000085"><a xlink:title=" ">
<path fill="none" stroke="#63b8ff" d="M372.74,-985.44C341.73,-982.63 303.67,-979.18 274.64,-976.55"/>
<polygon fill="#63b8ff" stroke="#63b8ff" points="372.68,-988.95 382.96,-986.37 373.32,-981.98 372.68,-988.95"/>
</a>
</g>
</g>
<!-- Node86 -->
<g id="Node000086" class="node">
<title>Node86</title>
<g id="a_Node000086"><a xlink:href="code__80005FD0_8c.html#a221c2d9c469606ad4ceb44b3feed0b2a" target="_top" xlink:title=" ">
<polygon fill="#fff0f0" stroke="red" points="274.5,-945 183.5,-945 183.5,-926 274.5,-926 274.5,-945"/>
<text text-anchor="middle" x="229" y="-933" font-family="Helvetica,sans-Serif" font-size="10.00">func_800180F0</text>
</a>
</g>
</g>
<!-- Node35&#45;&gt;Node86 -->
<g id="edge13_Node000035_Node000086" class="edge">
<title>Node35&#45;&gt;Node86</title>
<g id="a_edge13_Node000035_Node000086"><a xlink:title=" ">
<path fill="none" stroke="#63b8ff" d="M388.38,-977.8C365.26,-970.63 335.6,-961.7 309,-954.5 296.88,-951.22 283.64,-947.92 271.52,-945.02"/>
<polygon fill="#63b8ff" stroke="#63b8ff" points="387.6,-981.22 398.18,-980.85 389.68,-974.53 387.6,-981.22"/>
</a>
</g>
</g>
<!-- Node87 -->
<g id="Node000087" class="node">
<title>Node87</title>
<g id="a_Node000087"><a xlink:href="code__80005FD0_8c.html#a93d50445c0f98845ef112c4d057bc81a" target="_top" xlink:title=" ">
<polygon fill="#fff0f0" stroke="red" points="274.5,-908 183.5,-908 183.5,-889 274.5,-889 274.5,-908"/>
<text text-anchor="middle" x="229" y="-896" font-family="Helvetica,sans-Serif" font-size="10.00">func_800188F4</text>
</a>
</g>
</g>
<!-- Node35&#45;&gt;Node87 -->
<g id="edge14_Node000035_Node000087" class="edge">
<title>Node35&#45;&gt;Node87</title>
<g id="a_edge14_Node000035_Node000087"><a xlink:title=" ">
<path fill="none" stroke="#63b8ff" d="M407.65,-974.96C384.62,-958.48 345.89,-932.76 309,-917.5 298.18,-913.02 286.07,-909.45 274.65,-906.67"/>
<polygon fill="#63b8ff" stroke="#63b8ff" points="405.81,-977.94 415.95,-980.99 409.92,-972.28 405.81,-977.94"/>
</a>
</g>
</g>
<!-- Node88 -->
<g id="Node000088" class="node">
<title>Node88</title>
<g id="a_Node000088"><a xlink:href="code__80005FD0_8c.html#a81a2a6017420af697758903d74577445" target="_top" xlink:title=" ">
<polygon fill="#fff0f0" stroke="red" points="275,-871 183,-871 183,-852 275,-852 275,-871"/>
<text text-anchor="middle" x="229" y="-859" font-family="Helvetica,sans-Serif" font-size="10.00">func_8001933C</text>
</a>
</g>
</g>
<!-- Node35&#45;&gt;Node88 -->
<g id="edge15_Node000035_Node000088" class="edge">
<title>Node35&#45;&gt;Node88</title>
<g id="a_edge15_Node000035_Node000088"><a xlink:title=" ">
<path fill="none" stroke="#63b8ff" d="M414.63,-973.04C394.17,-948.52 353.51,-904.24 309,-880.5 298.67,-874.99 286.73,-871.05 275.32,-868.25"/>
<polygon fill="#63b8ff" stroke="#63b8ff" points="411.95,-975.3 420.99,-980.82 417.37,-970.87 411.95,-975.3"/>
</a>
</g>
</g>
<!-- Node90 -->
<g id="Node000090" class="node">
<title>Node90</title>
<g id="a_Node000090"><a xlink:href="code__80005FD0_8c.html#ae18f6f7140f2ee549963a3bc404b159e" target="_top" xlink:title=" ">
<polygon fill="white" stroke="#666666" points="477,-834 382,-834 382,-815 477,-815 477,-834"/>
<text text-anchor="middle" x="429.5" y="-822" font-family="Helvetica,sans-Serif" font-size="10.00">load_track_path</text>
</a>
</g>
</g>
<!-- Node89&#45;&gt;Node90 -->
<g id="edge17_Node000089_Node000090" class="edge">
<title>Node89&#45;&gt;Node90</title>
<g id="a_edge17_Node000089_Node000090"><a xlink:title=" ">
<path fill="none" stroke="#63b8ff" d="M607.22,-713.59C589.93,-738.61 555.2,-783.31 514,-806.5 502.89,-812.76 489.82,-816.84 477.36,-819.51"/>
<polygon fill="#63b8ff" stroke="#63b8ff" points="610.29,-715.3 612.98,-705.05 604.49,-711.38 610.29,-715.3"/>
</a>
</g>
</g>
<!-- Node91 -->
<g id="Node000091" class="node">
<title>Node91</title>
<g id="a_Node000091"><a xlink:href="code__80005FD0_8c.html#a77709d8cbf7a0b88d0f3cb3f5efca3be" target="_top" xlink:title=" ">
<polygon fill="#fff0f0" stroke="red" points="292.5,-834 165.5,-834 165.5,-815 292.5,-815 292.5,-834"/>
<text text-anchor="middle" x="229" y="-822" font-family="Helvetica,sans-Serif" font-size="10.00">init_course_path_point</text>
</a>
</g>
</g>
<!-- Node90&#45;&gt;Node91 -->
<g id="edge18_Node000090_Node000091" class="edge">
<title>Node90&#45;&gt;Node91</title>
<g id="a_edge18_Node000090_Node000091"><a xlink:title=" ">
<path fill="none" stroke="#63b8ff" d="M371.68,-824.5C347.03,-824.5 318.07,-824.5 292.78,-824.5"/>
<polygon fill="#63b8ff" stroke="#63b8ff" points="371.96,-828 381.96,-824.5 371.96,-821 371.96,-828"/>
</a>
</g>
</g>
<!-- Node100 -->
<g id="Node000100" class="node">
<title>Node100</title>
<g id="a_Node000100"><a xlink:href="code__80057C60_8c.html#ae61bd9f49508d924387c00845cae4060" target="_top" xlink:title=" ">
<polygon fill="#fff0f0" stroke="red" points="475.5,-797 383.5,-797 383.5,-778 475.5,-778 475.5,-797"/>
<text text-anchor="middle" x="429.5" y="-785" font-family="Helvetica,sans-Serif" font-size="10.00">func_80059AC8</text>
</a>
</g>
</g>
<!-- Node99&#45;&gt;Node100 -->
<g id="edge21_Node000099_Node000100" class="edge">
<title>Node99&#45;&gt;Node100</title>
<g id="a_edge21_Node000099_Node000100"><a xlink:title=" ">
<path fill="none" stroke="#63b8ff" d="M564.39,-499.75C558.96,-502.45 553.99,-505.95 550,-510.5 473.36,-597.87 593.07,-684.33 514,-769.5 504.21,-780.04 489.85,-785.18 475.79,-787.49"/>
<polygon fill="#63b8ff" stroke="#63b8ff" points="565.9,-502.92 573.87,-495.94 563.29,-496.42 565.9,-502.92"/>
</a>
</g>
</g>
<!-- Node101 -->
<g id="Node000101" class="node">
<title>Node101</title>
<g id="a_Node000101"><a xlink:href="code__80280000_8c.html#a4d9b0156b64d7a67e4cb21cde391ca43" target="_top" xlink:title=" ">
<polygon fill="#fff0f0" stroke="red" points="274.5,-797 183.5,-797 183.5,-778 274.5,-778 274.5,-797"/>
<text text-anchor="middle" x="229" y="-785" font-family="Helvetica,sans-Serif" font-size="10.00">func_80280000</text>
</a>
</g>
</g>
<!-- Node100&#45;&gt;Node101 -->
<g id="edge22_Node000100_Node000101" class="edge">
<title>Node100&#45;&gt;Node101</title>
<g id="a_edge22_Node000100_Node000101"><a xlink:title=" ">
<path fill="none" stroke="#63b8ff" d="M373.2,-787.5C342.07,-787.5 303.7,-787.5 274.52,-787.5"/>
<polygon fill="#63b8ff" stroke="#63b8ff" points="373.46,-791 383.46,-787.5 373.46,-784 373.46,-791"/>
</a>
</g>
</g>
<!-- Node67 -->
<g id="Node000067" class="node">
<title>Node67</title>
<g id="a_Node000067"><a xlink:href="podium__ceremony__actors_8c.html#a7ea229c65f264670fc828b95e8321154" target="_top" xlink:title=" ">
<polygon fill="#fff0f0" stroke="red" points="296,-760 162,-760 162,-741 296,-741 296,-760"/>
<text text-anchor="middle" x="229" y="-748" font-family="Helvetica,sans-Serif" font-size="10.00">podium_ceremony_loop</text>
</a>
</g>
</g>
<!-- Node100&#45;&gt;Node67 -->
<g id="edge23_Node000100_Node000067" class="edge">
<title>Node100&#45;&gt;Node67</title>
<g id="a_edge23_Node000100_Node000067"><a xlink:title=" ">
<path fill="none" stroke="#63b8ff" d="M373.52,-777.25C344.64,-771.87 309.46,-765.31 281.16,-760.04"/>
<polygon fill="#63b8ff" stroke="#63b8ff" points="372.99,-780.71 383.46,-779.1 374.27,-773.83 372.99,-780.71"/>
</a>
</g>
</g>
<!-- Node105 -->
<g id="Node000105" class="node">
<title>Node105</title>
<g id="a_Node000105"><a xlink:href="classKoopaTroopaBeach.html#a7790540cdd46c8cef5c0d9db8d12b5ec" target="_top" xlink:title=" ">
<polygon fill="white" stroke="#666666" points="514,-760 345,-760 345,-741 514,-741 514,-760"/>
<text text-anchor="middle" x="429.5" y="-748" font-family="Helvetica,sans-Serif" font-size="10.00">KoopaTroopaBeach::DrawWater</text>
</a>
</g>
</g>
<!-- Node104&#45;&gt;Node105 -->
<g id="edge26_Node000104_Node000105" class="edge">
<title>Node104&#45;&gt;Node105</title>
<g id="a_edge26_Node000104_Node000105"><a xlink:title=" ">
<path fill="none" stroke="#63b8ff" d="M553.32,-433.1C552.15,-434.16 551.04,-435.29 550,-436.5 463.46,-536.87 603.34,-634.61 514,-732.5 511,-735.79 507.56,-738.55 503.82,-740.87"/>
<polygon fill="#63b8ff" stroke="#63b8ff" points="555.69,-435.7 561.78,-427.03 551.61,-430.01 555.69,-435.7"/>
</a>
</g>
</g>
<!-- Node106 -->
<g id="Node000106" class="node">
<title>Node106</title>
<g id="a_Node000106"><a xlink:href="classRainbowRoad.html#a97b8108b8f7cd71b8112f52a01ddf9a3" target="_top" xlink:title=" ">
<polygon fill="white" stroke="#666666" points="501,-723 358,-723 358,-704 501,-704 501,-723"/>
<text text-anchor="middle" x="429.5" y="-711" font-family="Helvetica,sans-Serif" font-size="10.00">RainbowRoad::DrawWater</text>
</a>
</g>
</g>
<!-- Node104&#45;&gt;Node106 -->
<g id="edge27_Node000104_Node000106" class="edge">
<title>Node104&#45;&gt;Node106</title>
<g id="a_edge27_Node000104_Node000106"><a xlink:title=" ">
<path fill="none" stroke="#63b8ff" d="M553.34,-433.12C552.17,-434.18 551.05,-435.3 550,-436.5 473.36,-523.87 593.07,-610.33 514,-695.5 510.27,-699.52 505.87,-702.76 501.08,-705.35"/>
<polygon fill="#63b8ff" stroke="#63b8ff" points="555.72,-435.73 561.85,-427.09 551.67,-430.02 555.72,-435.73"/>
</a>
</g>
</g>
<!-- Node107 -->
<g id="Node000107" class="node">
<title>Node107</title>
<g id="a_Node000107"><a xlink:href="classSherbetLand.html#a8920d448b38a9ca5174ee1150c569746" target="_top" xlink:title=" ">
<polygon fill="white" stroke="#666666" points="498,-686 361,-686 361,-667 498,-667 498,-686"/>
<text text-anchor="middle" x="429.5" y="-674" font-family="Helvetica,sans-Serif" font-size="10.00">SherbetLand::DrawWater</text>
</a>
</g>
</g>
<!-- Node104&#45;&gt;Node107 -->
<g id="edge28_Node000104_Node000107" class="edge">
<title>Node104&#45;&gt;Node107</title>
<g id="a_edge28_Node000104_Node000107"><a xlink:title=" ">
<path fill="none" stroke="#63b8ff" d="M553.38,-433.15C552.19,-434.2 551.06,-435.32 550,-436.5 483.24,-510.89 582.83,-586.02 514,-658.5 509.51,-663.23 504.09,-666.87 498.2,-669.65"/>
<polygon fill="#63b8ff" stroke="#63b8ff" points="555.75,-435.77 561.94,-427.17 551.74,-430.03 555.75,-435.77"/>
</a>
</g>
</g>
<!-- Node108 -->
<g id="Node000108" class="node">
<title>Node108</title>
<g id="a_Node000108"><a xlink:href="classBansheeBoardwalk.html#a5964a70c120565a07669c19ae791f843" target="_top" xlink:title=" ">
<polygon fill="white" stroke="#666666" points="505,-649 354,-649 354,-630 505,-630 505,-649"/>
<text text-anchor="middle" x="429.5" y="-637" font-family="Helvetica,sans-Serif" font-size="10.00">BansheeBoardwalk::Render</text>
</a>
</g>
</g>
<!-- Node104&#45;&gt;Node108 -->
<g id="edge29_Node000104_Node000108" class="edge">
<title>Node104&#45;&gt;Node108</title>
<g id="a_edge29_Node000104_Node000108"><a xlink:title=" ">
<path fill="none" stroke="#63b8ff" d="M553.89,-432.81C552.52,-433.96 551.22,-435.18 550,-436.5 493.08,-497.95 572.63,-561.68 514,-621.5 510.78,-624.78 507.12,-627.54 503.17,-629.84"/>
<polygon fill="#63b8ff" stroke="#63b8ff" points="556.04,-435.58 562.4,-427.11 552.14,-429.77 556.04,-435.58"/>
</a>
</g>
</g>
<!-- Node109 -->
<g id="Node000109" class="node">
<title>Node109</title>
<g id="a_Node000109"><a xlink:href="classBowsersCastle.html#af670116693c9440f1f6ff5d26a7a18f8" target="_top" xlink:title=" ">
<polygon fill="white" stroke="#666666" points="494,-612 365,-612 365,-593 494,-593 494,-612"/>
<text text-anchor="middle" x="429.5" y="-600" font-family="Helvetica,sans-Serif" font-size="10.00">BowsersCastle::Render</text>
</a>
</g>
</g>
<!-- Node104&#45;&gt;Node109 -->
<g id="edge30_Node000104_Node000109" class="edge">
<title>Node104&#45;&gt;Node109</title>
<g id="a_edge30_Node000104_Node000109"><a xlink:title=" ">
<path fill="none" stroke="#63b8ff" d="M554.46,-432.5C552.89,-433.73 551.4,-435.06 550,-436.5 502.86,-485.08 562.49,-537.27 514,-584.5 508.37,-589.98 501.49,-593.97 494.12,-596.84"/>
<polygon fill="#63b8ff" stroke="#63b8ff" points="556.36,-435.44 562.91,-427.11 552.6,-429.53 556.36,-435.44"/>
</a>
</g>
</g>
<!-- Node110 -->
<g id="Node000110" class="node">
<title>Node110</title>
<g id="a_Node000110"><a xlink:href="classChocoMountain.html#aa64bf253e5759e09a98d47d6eb96d965" target="_top" xlink:title=" ">
<polygon fill="white" stroke="#666666" points="496,-575 363,-575 363,-556 496,-556 496,-575"/>
<text text-anchor="middle" x="429.5" y="-563" font-family="Helvetica,sans-Serif" font-size="10.00">ChocoMountain::Render</text>
</a>
</g>
</g>
<!-- Node104&#45;&gt;Node110 -->
<g id="edge31_Node000104_Node000110" class="edge">
<title>Node104&#45;&gt;Node110</title>
<g id="a_edge31_Node000104_Node000110"><a xlink:title=" ">
<path fill="none" stroke="#63b8ff" d="M555.25,-432.16C553.4,-433.49 551.64,-434.93 550,-436.5 512.51,-472.34 552.48,-512.73 514,-547.5 508.83,-552.17 502.74,-555.74 496.25,-558.44"/>
<polygon fill="#63b8ff" stroke="#63b8ff" points="557.05,-435.17 563.88,-427.07 553.49,-429.14 557.05,-435.17"/>
</a>
</g>
</g>
<!-- Node111 -->
<g id="Node000111" class="node">
<title>Node111</title>
<g id="a_Node000111"><a xlink:href="classDKJungle.html#abb8ab2f6dba395f0f89448973196bc64" target="_top" xlink:title=" ">
<polygon fill="white" stroke="#666666" points="480,-538 379,-538 379,-519 480,-519 480,-538"/>
<text text-anchor="middle" x="429.5" y="-526" font-family="Helvetica,sans-Serif" font-size="10.00">DKJungle::Render</text>
</a>
</g>
</g>
<!-- Node104&#45;&gt;Node111 -->
<g id="edge32_Node000104_Node000111" class="edge">
<title>Node104&#45;&gt;Node111</title>
<g id="a_edge32_Node000104_Node000111"><a xlink:title=" ">
<path fill="none" stroke="#63b8ff" d="M556.53,-431.83C554.24,-433.25 552.05,-434.8 550,-436.5 521.87,-459.88 542.78,-487.93 514,-510.5 504.32,-518.1 492.13,-522.66 480.09,-525.36"/>
<polygon fill="#63b8ff" stroke="#63b8ff" points="558.52,-434.75 565.8,-427.05 555.31,-428.53 558.52,-434.75"/>
</a>
</g>
</g>
<!-- Node112 -->
<g id="Node000112" class="node">
<title>Node112</title>
<g id="a_Node000112"><a xlink:href="classFrappeSnowland.html#a1fd083ac467df5829a3fd99525eb06f5" target="_top" xlink:title=" ">
<polygon fill="white" stroke="#666666" points="498,-501 361,-501 361,-482 498,-482 498,-501"/>
<text text-anchor="middle" x="429.5" y="-489" font-family="Helvetica,sans-Serif" font-size="10.00">FrappeSnowland::Render</text>
</a>
</g>
</g>
<!-- Node104&#45;&gt;Node112 -->
<g id="edge33_Node000104_Node000112" class="edge">
<title>Node104&#45;&gt;Node112</title>
<g id="a_edge33_Node000104_Node000112"><a xlink:title=" ">
<path fill="none" stroke="#63b8ff" d="M561.64,-430.69C557.6,-432.4 553.67,-434.33 550,-436.5 530.25,-448.18 534.07,-462.39 514,-473.5 507.77,-476.95 500.95,-479.74 493.96,-481.99"/>
<polygon fill="#63b8ff" stroke="#63b8ff" points="563.12,-433.87 571.24,-427.06 560.65,-427.32 563.12,-433.87"/>
</a>
</g>
</g>
<!-- Node113 -->
<g id="Node000113" class="node">
<title>Node113</title>
<g id="a_Node000113"><a xlink:href="classKalimariDesert.html#aad824dbb6927b40d907cb96d2c62e223" target="_top" xlink:title=" ">
<polygon fill="white" stroke="#666666" points="495,-464 364,-464 364,-445 495,-445 495,-464"/>
<text text-anchor="middle" x="429.5" y="-452" font-family="Helvetica,sans-Serif" font-size="10.00">KalimariDesert::Render</text>
</a>
</g>
</g>
<!-- Node104&#45;&gt;Node113 -->
<g id="edge34_Node000104_Node000113" class="edge">
<title>Node104&#45;&gt;Node113</title>
<g id="a_edge34_Node000104_Node000113"><a xlink:title=" ">
<path fill="none" stroke="#63b8ff" d="M560.33,-429.02C534.28,-434.13 503.98,-440.08 479.21,-444.94"/>
<polygon fill="#63b8ff" stroke="#63b8ff" points="561.32,-432.39 570.46,-427.03 559.97,-425.52 561.32,-432.39"/>
</a>
</g>
</g>
<!-- Node114 -->
<g id="Node000114" class="node">
<title>Node114</title>
<g id="a_Node000114"><a xlink:href="classKoopaTroopaBeach.html#aafdd68838a096c5b0ce03cbe52fa1996" target="_top" xlink:title=" ">
<polygon fill="white" stroke="#666666" points="504,-427 355,-427 355,-408 504,-408 504,-427"/>
<text text-anchor="middle" x="429.5" y="-415" font-family="Helvetica,sans-Serif" font-size="10.00">KoopaTroopaBeach::Render</text>
</a>
</g>
</g>
<!-- Node104&#45;&gt;Node114 -->
<g id="edge35_Node000104_Node000114" class="edge">
<title>Node104&#45;&gt;Node114</title>
<g id="a_edge35_Node000104_Node000114"><a xlink:title=" ">
<path fill="none" stroke="#63b8ff" d="M540.06,-417.5C528.15,-417.5 515.91,-417.5 504.12,-417.5"/>
<polygon fill="#63b8ff" stroke="#63b8ff" points="540.41,-421 550.41,-417.5 540.41,-414 540.41,-421"/>
</a>
</g>
</g>
<!-- Node115 -->
<g id="Node000115" class="node">
<title>Node115</title>
<g id="a_Node000115"><a xlink:href="classLuigiRaceway.html#a50da353726332129520768fb119ceb3e" target="_top" xlink:title=" ">
<polygon fill="white" stroke="#666666" points="491.5,-390 367.5,-390 367.5,-371 491.5,-371 491.5,-390"/>
<text text-anchor="middle" x="429.5" y="-378" font-family="Helvetica,sans-Serif" font-size="10.00">LuigiRaceway::Render</text>
</a>
</g>
</g>
<!-- Node104&#45;&gt;Node115 -->
<g id="edge36_Node000104_Node000115" class="edge">
<title>Node104&#45;&gt;Node115</title>
<g id="a_edge36_Node000104_Node000115"><a xlink:title=" ">
<path fill="none" stroke="#63b8ff" d="M560.33,-405.98C534.28,-400.87 503.98,-394.92 479.21,-390.06"/>
<polygon fill="#63b8ff" stroke="#63b8ff" points="559.97,-409.48 570.46,-407.97 561.32,-402.61 559.97,-409.48"/>
</a>
</g>
</g>
<!-- Node116 -->
<g id="Node000116" class="node">
<title>Node116</title>
<g id="a_Node000116"><a xlink:href="classMarioRaceway.html#a4132ff796ca22dc242d26081946a5032" target="_top" xlink:title=" ">
<polygon fill="white" stroke="#666666" points="493.5,-353 365.5,-353 365.5,-334 493.5,-334 493.5,-353"/>
<text text-anchor="middle" x="429.5" y="-341" font-family="Helvetica,sans-Serif" font-size="10.00">MarioRaceway::Render</text>
</a>
</g>
</g>
<!-- Node104&#45;&gt;Node116 -->
<g id="edge37_Node000104_Node000116" class="edge">
<title>Node104&#45;&gt;Node116</title>
<g id="a_edge37_Node000104_Node000116"><a xlink:title=" ">
<path fill="none" stroke="#63b8ff" d="M595.17,-402.73C574.4,-390.43 543.14,-373.24 514,-362.5 503.96,-358.8 492.96,-355.68 482.33,-353.1"/>
<polygon fill="#63b8ff" stroke="#63b8ff" points="593.55,-405.84 603.92,-408 597.16,-399.84 593.55,-405.84"/>
</a>
</g>
</g>
<!-- Node117 -->
<g id="Node000117" class="node">
<title>Node117</title>
<g id="a_Node000117"><a xlink:href="classMooMooFarm.html#a31b2d7a41c9bb65e1dcffca2b9817da1" target="_top" xlink:title=" ">
<polygon fill="white" stroke="#666666" points="491,-316 368,-316 368,-297 491,-297 491,-316"/>
<text text-anchor="middle" x="429.5" y="-304" font-family="Helvetica,sans-Serif" font-size="10.00">MooMooFarm::Render</text>
</a>
</g>
</g>
<!-- Node104&#45;&gt;Node117 -->
<g id="edge38_Node000104_Node000117" class="edge">
<title>Node104&#45;&gt;Node117</title>
<g id="a_edge38_Node000104_Node000117"><a xlink:title=" ">
<path fill="none" stroke="#63b8ff" d="M597.5,-401.97C583.54,-391.58 565.19,-377.32 550,-363.5 532.79,-347.84 534.21,-337.02 514,-325.5 507.03,-321.52 499.28,-318.38 491.39,-315.89"/>
<polygon fill="#63b8ff" stroke="#63b8ff" points="595.43,-404.79 605.56,-407.9 599.58,-399.16 595.43,-404.79"/>
</a>
</g>
</g>
<!-- Node118 -->
<g id="Node000118" class="node">
<title>Node118</title>
<g id="a_Node000118"><a xlink:href="classPodiumCeremony.html#af02d82c0d12de76bfedbb8d2e6cf3ff5" target="_top" xlink:title=" ">
<polygon fill="white" stroke="#666666" points="501,-279 358,-279 358,-260 501,-260 501,-279"/>
<text text-anchor="middle" x="429.5" y="-267" font-family="Helvetica,sans-Serif" font-size="10.00">PodiumCeremony::Render</text>
</a>
</g>
</g>
<!-- Node104&#45;&gt;Node118 -->
<g id="edge39_Node000104_Node000118" class="edge">
<title>Node104&#45;&gt;Node118</title>
<g id="a_edge39_Node000104_Node000118"><a xlink:title=" ">
<path fill="none" stroke="#63b8ff" d="M594.32,-402.34C579.99,-392.6 562.39,-378.91 550,-363.5 526.83,-334.68 542.9,-311.56 514,-288.5 509.24,-284.7 503.86,-281.63 498.18,-279.15"/>
<polygon fill="#63b8ff" stroke="#63b8ff" points="592.46,-405.3 602.74,-407.87 596.3,-399.45 592.46,-405.3"/>
</a>
</g>
</g>
<!-- Node119 -->
<g id="Node000119" class="node">
<title>Node119</title>
<g id="a_Node000119"><a xlink:href="classRoyalRaceway.html#ac18c4d1a3c18d52432d234ee7f42be6f" target="_top" xlink:title=" ">
<polygon fill="white" stroke="#666666" points="493.5,-242 365.5,-242 365.5,-223 493.5,-223 493.5,-242"/>
<text text-anchor="middle" x="429.5" y="-230" font-family="Helvetica,sans-Serif" font-size="10.00">RoyalRaceway::Render</text>
</a>
</g>
</g>
<!-- Node104&#45;&gt;Node119 -->
<g id="edge40_Node000104_Node000119" class="edge">
<title>Node104&#45;&gt;Node119</title>
<g id="a_edge40_Node000104_Node000119"><a xlink:title=" ">
<path fill="none" stroke="#63b8ff" d="M592.97,-402.56C578.48,-393.05 561.17,-379.52 550,-363.5 520.1,-320.61 552.55,-286.82 514,-251.5 508.19,-246.18 501.21,-242.24 493.79,-239.35"/>
<polygon fill="#63b8ff" stroke="#63b8ff" points="591.22,-405.59 601.55,-407.95 594.95,-399.66 591.22,-405.59"/>
</a>
</g>
</g>
<!-- Node120 -->
<g id="Node000120" class="node">
<title>Node120</title>
<g id="a_Node000120"><a xlink:href="classSherbetLand.html#a4f766f0dc275fccf76cdbb0f71493c36" target="_top" xlink:title=" ">
<polygon fill="white" stroke="#666666" points="488.5,-205 370.5,-205 370.5,-186 488.5,-186 488.5,-205"/>
<text text-anchor="middle" x="429.5" y="-193" font-family="Helvetica,sans-Serif" font-size="10.00">SherbetLand::Render</text>
</a>
</g>
</g>
<!-- Node104&#45;&gt;Node120 -->
<g id="edge41_Node000104_Node000120" class="edge">
<title>Node104&#45;&gt;Node120</title>
<g id="a_edge41_Node000104_Node000120"><a xlink:title=" ">
<path fill="none" stroke="#63b8ff" d="M592.24,-402.68C577.66,-393.27 560.5,-379.81 550,-363.5 513.13,-306.21 562.49,-262.35 514,-214.5 507.02,-207.61 498.08,-203.01 488.67,-199.97"/>
<polygon fill="#63b8ff" stroke="#63b8ff" points="590.55,-405.74 600.91,-407.99 594.22,-399.78 590.55,-405.74"/>
</a>
</g>
</g>
<!-- Node121 -->
<g id="Node000121" class="node">
<title>Node121</title>
<g id="a_Node000121"><a xlink:href="classToadsTurnpike.html#a563cab8dfd01fbcc08a3167caf6b78db" target="_top" xlink:title=" ">
<polygon fill="white" stroke="#666666" points="492,-168 367,-168 367,-149 492,-149 492,-168"/>
<text text-anchor="middle" x="429.5" y="-156" font-family="Helvetica,sans-Serif" font-size="10.00">ToadsTurnpike::Render</text>
</a>
</g>
</g>
<!-- Node104&#45;&gt;Node121 -->
<g id="edge42_Node000104_Node000121" class="edge">
<title>Node104&#45;&gt;Node121</title>
<g id="a_edge42_Node000104_Node000121"><a xlink:title=" ">
<path fill="none" stroke="#63b8ff" d="M591.67,-402.67C577.06,-393.34 560.06,-379.94 550,-363.5 506.06,-291.67 572.56,-238 514,-177.5 508,-171.3 500.44,-166.94 492.32,-163.9"/>
<polygon fill="#63b8ff" stroke="#63b8ff" points="590.01,-405.76 600.38,-407.95 593.64,-399.77 590.01,-405.76"/>
</a>
</g>
</g>
<!-- Node122 -->
<g id="Node000122" class="node">
<title>Node122</title>
<g id="a_Node000122"><a xlink:href="classWarioStadium.html#a7b544197ce58d2c2ddca33649b687457" target="_top" xlink:title=" ">
<polygon fill="white" stroke="#666666" points="492,-131 367,-131 367,-112 492,-112 492,-131"/>
<text text-anchor="middle" x="429.5" y="-119" font-family="Helvetica,sans-Serif" font-size="10.00">WarioStadium::Render</text>
</a>
</g>
</g>
<!-- Node104&#45;&gt;Node122 -->
<g id="edge43_Node000104_Node000122" class="edge">
<title>Node104&#45;&gt;Node122</title>
<g id="a_edge43_Node000104_Node000122"><a xlink:title=" ">
<path fill="none" stroke="#63b8ff" d="M591.19,-402.61C576.58,-393.32 559.74,-379.99 550,-363.5 498.95,-277.05 582.69,-213.71 514,-140.5 508,-134.1 500.33,-129.65 492.08,-126.57"/>
<polygon fill="#63b8ff" stroke="#63b8ff" points="589.54,-405.7 599.91,-407.86 593.15,-399.7 589.54,-405.7"/>
</a>
</g>
</g>
<!-- Node123 -->
<g id="Node000123" class="node">
<title>Node123</title>
<g id="a_Node000123"><a xlink:href="classYoshiValley.html#accc7a829beaaf41c9cbe3d5f219cab00" target="_top" xlink:title=" ">
<polygon fill="white" stroke="#666666" points="485,-94 374,-94 374,-75 485,-75 485,-94"/>
<text text-anchor="middle" x="429.5" y="-82" font-family="Helvetica,sans-Serif" font-size="10.00">YoshiValley::Render</text>
</a>
</g>
</g>
<!-- Node104&#45;&gt;Node123 -->
<g id="edge44_Node000104_Node000123" class="edge">
<title>Node104&#45;&gt;Node123</title>
<g id="a_edge44_Node000104_Node000123"><a xlink:title=" ">
<path fill="none" stroke="#63b8ff" d="M591.04,-402.69C576.39,-393.43 559.55,-380.1 550,-363.5 491.82,-262.39 592.86,-189.47 514,-103.5 506.46,-95.28 496.17,-90.25 485.39,-87.24"/>
<polygon fill="#63b8ff" stroke="#63b8ff" points="589.42,-405.8 599.8,-407.93 593.01,-399.79 589.42,-405.8"/>
</a>
</g>
</g>
<!-- Node124&#45;&gt;Node125 -->
<g id="edge46_Node000124_Node000125" class="edge">
<title>Node124&#45;&gt;Node125</title>
<g id="a_edge46_Node000124_Node000125"><a xlink:title=" ">
<path fill="none" stroke="#63b8ff" d="M598.81,-316.41C583.18,-297.32 562.19,-268.83 550,-240.5 518.79,-167.96 569.29,-122.89 514,-66.5 506.51,-58.86 496.62,-54.01 486.29,-50.99"/>
<polygon fill="#63b8ff" stroke="#63b8ff" points="596.26,-318.81 605.36,-324.24 601.63,-314.32 596.26,-318.81"/>
</a>
</g>
</g>
<!-- Node126 -->
<g id="Node000126" class="node">
<title>Node126</title>
<g id="a_Node000126"><a xlink:href="code__80005FD0_8c.html#a6d20c6aafb7dcabfb154bf2858b7a1f4" target="_top" xlink:title=" ">
<polygon fill="white" stroke="#666666" points="309,-19 149,-19 149,0 309,0 309,-19"/>
<text text-anchor="middle" x="229" y="-7" font-family="Helvetica,sans-Serif" font-size="10.00">update_cpu_path_completion</text>
</a>
</g>
</g>
<!-- Node125&#45;&gt;Node126 -->
<g id="edge47_Node000125_Node000126" class="edge">
<title>Node125&#45;&gt;Node126</title>
<g id="a_edge47_Node000125_Node000126"><a xlink:title=" ">
<path fill="none" stroke="#63b8ff" d="M368.48,-36.01C340.16,-30.59 306.76,-24.19 279.85,-19.04"/>
<polygon fill="#63b8ff" stroke="#63b8ff" points="368.19,-39.52 378.67,-37.96 369.5,-32.64 368.19,-39.52"/>
</a>
</g>
</g>
<!-- Node127 -->
<g id="Node000127" class="node">
<title>Node127</title>
<g id="a_Node000127"><a xlink:href="code__80005FD0_8c.html#a7512a13bf1bd10a7c33a6b047e9c4330" target="_top" xlink:title=" ">
<polygon fill="#fff0f0" stroke="red" points="113,-43.5 0,-43.5 0,-13.5 113,-13.5 113,-43.5"/>
<text text-anchor="start" x="8" y="-31.5" font-family="Helvetica,sans-Serif" font-size="10.00">update_player_path</text>
<text text-anchor="middle" x="56.5" y="-20.5" font-family="Helvetica,sans-Serif" font-size="10.00">_completion</text>
</a>
</g>
</g>
<!-- Node125&#45;&gt;Node127 -->
<g id="edge49_Node000125_Node000127" class="edge">
<title>Node125&#45;&gt;Node127</title>
<g id="a_edge49_Node000125_Node000127"><a xlink:title=" ">
<path fill="none" stroke="#63b8ff" d="M362.79,-44.13C291.8,-40.5 179.91,-34.77 113.12,-31.35"/>
<polygon fill="#63b8ff" stroke="#63b8ff" points="362.79,-47.64 372.96,-44.66 363.15,-40.65 362.79,-47.64"/>
</a>
</g>
</g>
<!-- Node126&#45;&gt;Node127 -->
<g id="edge48_Node000126_Node000127" class="edge">
<title>Node126&#45;&gt;Node127</title>
<g id="a_edge48_Node000126_Node000127"><a xlink:title=" ">
<path fill="none" stroke="#63b8ff" d="M138.6,-19.46C129.96,-20.43 121.38,-21.38 113.22,-22.29"/>
<polygon fill="#63b8ff" stroke="#63b8ff" points="139.19,-22.92 148.74,-18.33 138.41,-15.96 139.19,-22.92"/>
</a>
</g>
</g>
<!-- Node131&#45;&gt;Node126 -->
<g id="edge52_Node000131_Node000126" class="edge">
<title>Node131&#45;&gt;Node126</title>
<g id="a_edge52_Node000131_Node000126"><a xlink:title=" ">
<path fill="none" stroke="#63b8ff" d="M553.02,-34.34C540.1,-32.56 526.64,-30.85 514,-29.5 444.94,-22.15 366.14,-16.84 309.1,-13.55"/>
<polygon fill="#63b8ff" stroke="#63b8ff" points="552.85,-37.85 563.24,-35.78 553.82,-30.92 552.85,-37.85"/>
</a>
</g>
</g>
</g>
</svg>
