<?xml version="1.0" encoding="UTF-8" standalone="no"?>
<!DOCTYPE svg PUBLIC "-//W3C//DTD SVG 1.1//EN"
 "http://www.w3.org/Graphics/SVG/1.1/DTD/svg11.dtd">
<!-- Generated by graphviz version 2.43.0 (0)
 -->
<!-- Title: src/engine/editor/Collision.cpp Pages: 1 -->
<!--zoomable 368 -->

<svg id="main" version="1.1" xmlns="http://www.w3.org/2000/svg" xmlns:xlink="http://www.w3.org/1999/xlink" xml:space="preserve" onload="init(evt)">

<style type="text/css"><![CDATA[
.node, .edge {opacity: 0.7;}
.node.selected, .edge.selected {opacity: 1;}
.edge:hover path { stroke: red; }
.edge:hover polygon { stroke: red; fill: red; }
]]></style>

<defs>
  <circle id="rim" cx="0" cy="0" r="7"/>
  <circle id="rim2" cx="0" cy="0" r="3.5"/>
  <g id="zoomPlus">
    <use xlink:href="#rim" fill="#404040"><set attributeName="fill" to="#808080" begin="zoomplus.mouseover" end="zoomplus.mouseout"/></use>
    <path d="M-4,0h8M0,-4v8" fill="none" stroke="white" stroke-width="1.5" pointer-events="none"/>
  </g>
  <g id="zoomMin">
    <use xlink:href="#rim" fill="#404040"><set attributeName="fill" to="#808080" begin="zoomminus.mouseover" end="zoomminus.mouseout"/></use>
    <path d="M-4,0h8" fill="none" stroke="white" stroke-width="1.5" pointer-events="none"/>
  </g>
  <g id="arrowUp" transform="translate(30 24)">
    <use xlink:href="#rim"/>
    <path pointer-events="none" fill="none" stroke="white" stroke-width="1.5" d="M0,-3.0v7 M-2.5,-0.5L0,-3.0L2.5,-0.5"/>
  </g>
  <g id="arrowRight" transform="rotate(90) translate(36 -43)">
    <use xlink:href="#rim"/>
    <path pointer-events="none" fill="none" stroke="white" stroke-width="1.5" d="M0,-3.0v7 M-2.5,-0.5L0,-3.0L2.5,-0.5"/>
  </g>
  <g id="arrowDown" transform="rotate(180) translate(-30 -48)">
    <use xlink:href="#rim"/>
    <path pointer-events="none" fill="none" stroke="white" stroke-width="1.5" d="M0,-3.0v7 M-2.5,-0.5L0,-3.0L2.5,-0.5"/>
  </g>
  <g id="arrowLeft" transform="rotate(270) translate(-36 17)">
    <use xlink:href="#rim"/>
    <path pointer-events="none" fill="none" stroke="white" stroke-width="1.5" d="M0,-3.0v7 M-2.5,-0.5L0,-3.0L2.5,-0.5"/>
  </g>
  <g id="resetDef">
    <use xlink:href="#rim2" fill="#404040"><set attributeName="fill" to="#808080" begin="reset.mouseover" end="reset.mouseout"/></use>
  </g>
</defs>
<script type="application/ecmascript">
var viewWidth = 1784;
var viewHeight = 368;
var sectionId = 'dynsection-0';
</script>
<script type="application/ecmascript" xlink:href="svg.min.js"/>
<svg id="graph" class="graph">
<g id="viewport">
<title>src/engine/editor/Collision.cpp</title>
<!-- Node1 -->
<g id="Node000001" class="node">
<title>Node1</title>
<g id="a_Node000001"><a xlink:title=" ">
<polygon fill="#999999" stroke="#666666" points="911,-360 747,-360 747,-341 911,-341 911,-360"/>
<text text-anchor="middle" x="829" y="-348" font-family="Helvetica,sans-Serif" font-size="10.00">src/engine/editor/Collision.cpp</text>
</a>
</g>
</g>
<!-- Node2 -->
<g id="Node000002" class="node">
<title>Node2</title>
<g id="a_Node000002"><a xlink:href="Collision_8h.html" target="_top" xlink:title=" ">
<polygon fill="white" stroke="#666666" points="676,-299.5 608,-299.5 608,-280.5 676,-280.5 676,-299.5"/>
<text text-anchor="middle" x="642" y="-287.5" font-family="Helvetica,sans-Serif" font-size="10.00">Collision.h</text>
</a>
</g>
</g>
<!-- Node1&#45;&gt;Node2 -->
<g id="edge1_Node000001_Node000002" class="edge">
<title>Node1&#45;&gt;Node2</title>
<g id="a_edge1_Node000001_Node000002"><a xlink:title=" ">
<path fill="none" stroke="#63b8ff" d="M801.81,-340.99C769.4,-330.86 715.1,-313.87 678.92,-302.55"/>
<polygon fill="#63b8ff" stroke="#63b8ff" points="679.81,-299.16 669.22,-299.52 677.72,-305.84 679.81,-299.16"/>
</a>
</g>
</g>
<!-- Node3 -->
<g id="Node000003" class="node">
<title>Node3</title>
<g id="a_Node000003"><a xlink:title=" ">
<polygon fill="#e0e0e0" stroke="#999999" points="242,-129 104,-129 104,-110 242,-110 242,-129"/>
<text text-anchor="middle" x="173" y="-117" font-family="Helvetica,sans-Serif" font-size="10.00">libultraship/libultraship.h</text>
</a>
</g>
</g>
<!-- Node1&#45;&gt;Node3 -->
<g id="edge60_Node000001_Node000003" class="edge">
<title>Node1&#45;&gt;Node3</title>
<g id="a_edge60_Node000001_Node000003"><a xlink:title=" ">
<path fill="none" stroke="#63b8ff" d="M746.6,-344.77C631.81,-335.75 419.15,-310.14 253,-239 213.67,-222.16 194.1,-221.76 174,-184 166.71,-170.31 167.13,-152.5 168.99,-139.23"/>
<polygon fill="#63b8ff" stroke="#63b8ff" points="172.44,-139.79 170.75,-129.33 165.55,-138.57 172.44,-139.79"/>
</a>
</g>
</g>
<!-- Node4 -->
<g id="Node000004" class="node">
<title>Node4</title>
<g id="a_Node000004"><a xlink:title=" ">
<polygon fill="#e0e0e0" stroke="#999999" points="115,-74 37,-74 37,-55 115,-55 115,-74"/>
<text text-anchor="middle" x="76" y="-62" font-family="Helvetica,sans-Serif" font-size="10.00">libultra/gbi.h</text>
</a>
</g>
</g>
<!-- Node1&#45;&gt;Node4 -->
<g id="edge61_Node000001_Node000004" class="edge">
<title>Node1&#45;&gt;Node4</title>
<g id="a_edge61_Node000001_Node000004"><a xlink:title=" ">
<path fill="none" stroke="#63b8ff" d="M746.86,-346.24C537.45,-336.84 0,-305.43 0,-230.5 0,-230.5 0,-230.5 0,-173.5 0,-134.47 33.61,-99.58 56.13,-80.6"/>
<polygon fill="#63b8ff" stroke="#63b8ff" points="58.56,-83.14 64.12,-74.12 54.15,-77.7 58.56,-83.14"/>
</a>
</g>
</g>
<!-- Node5 -->
<g id="Node000005" class="node">
<title>Node5</title>
<g id="a_Node000005"><a xlink:href="GameObject_8h.html" target="_top" xlink:title=" ">
<polygon fill="white" stroke="#666666" points="614,-239 528,-239 528,-220 614,-220 614,-239"/>
<text text-anchor="middle" x="571" y="-227" font-family="Helvetica,sans-Serif" font-size="10.00">GameObject.h</text>
</a>
</g>
</g>
<!-- Node1&#45;&gt;Node5 -->
<g id="edge68_Node000001_Node000005" class="edge">
<title>Node1&#45;&gt;Node5</title>
<g id="a_edge68_Node000001_Node000005"><a xlink:title=" ">
<path fill="none" stroke="#63b8ff" d="M746.81,-342.07C690.14,-335.41 621.18,-323.73 599,-305 582.46,-291.03 575.68,-266.26 572.9,-249.13"/>
<polygon fill="#63b8ff" stroke="#63b8ff" points="576.37,-248.64 571.6,-239.18 569.43,-249.55 576.37,-248.64"/>
</a>
</g>
</g>
<!-- Node19 -->
<g id="Node000019" class="node">
<title>Node19</title>
<g id="a_Node000019"><a xlink:href="Actor_8h.html" target="_top" xlink:title=" ">
<polygon fill="white" stroke="#666666" points="1358,-239 1272,-239 1272,-220 1358,-220 1358,-239"/>
<text text-anchor="middle" x="1315" y="-227" font-family="Helvetica,sans-Serif" font-size="10.00">engine/Actor.h</text>
</a>
</g>
</g>
<!-- Node1&#45;&gt;Node19 -->
<g id="edge66_Node000001_Node000019" class="edge">
<title>Node1&#45;&gt;Node19</title>
<g id="a_edge66_Node000001_Node000019"><a xlink:title=" ">
<path fill="none" stroke="#63b8ff" d="M911.29,-345.83C979.64,-341.06 1078.8,-330.1 1162,-305 1210.79,-290.28 1263.3,-261.57 1292.36,-244.41"/>
<polygon fill="#63b8ff" stroke="#63b8ff" points="1294.5,-247.21 1301.28,-239.07 1290.9,-241.2 1294.5,-247.21"/>
</a>
</g>
</g>
<!-- Node22 -->
<g id="Node000022" class="node">
<title>Node22</title>
<g id="a_Node000022"><a xlink:href="main_8h.html" target="_top" xlink:title=" ">
<polygon fill="white" stroke="#666666" points="1340,-184 1290,-184 1290,-165 1340,-165 1340,-184"/>
<text text-anchor="middle" x="1315" y="-172" font-family="Helvetica,sans-Serif" font-size="10.00">main.h</text>
</a>
</g>
</g>
<!-- Node1&#45;&gt;Node22 -->
<g id="edge69_Node000001_Node000022" class="edge">
<title>Node1&#45;&gt;Node22</title>
<g id="a_edge69_Node000001_Node000022"><a xlink:title=" ">
<path fill="none" stroke="#63b8ff" d="M852.77,-340.99C932.3,-312.52 1189.24,-220.53 1281.57,-187.47"/>
<polygon fill="#63b8ff" stroke="#63b8ff" points="1282.75,-190.76 1290.99,-184.1 1280.4,-184.17 1282.75,-190.76"/>
</a>
</g>
</g>
<!-- Node26 -->
<g id="Node000026" class="node">
<title>Node26</title>
<g id="a_Node000026"><a xlink:href="Object_8h.html" target="_top" xlink:title=" ">
<polygon fill="white" stroke="#666666" points="988.5,-239 857.5,-239 857.5,-220 988.5,-220 988.5,-239"/>
<text text-anchor="middle" x="923" y="-227" font-family="Helvetica,sans-Serif" font-size="10.00">engine/objects/Object.h</text>
</a>
</g>
</g>
<!-- Node1&#45;&gt;Node26 -->
<g id="edge67_Node000001_Node000026" class="edge">
<title>Node1&#45;&gt;Node26</title>
<g id="a_edge67_Node000001_Node000026"><a xlink:title=" ">
<path fill="none" stroke="#63b8ff" d="M835.76,-340.94C851.2,-321.4 889.28,-273.18 909.65,-247.4"/>
<polygon fill="#63b8ff" stroke="#63b8ff" points="912.6,-249.32 916.05,-239.3 907.1,-244.98 912.6,-249.32"/>
</a>
</g>
</g>
<!-- Node29 -->
<g id="Node000029" class="node">
<title>Node29</title>
<g id="a_Node000029"><a xlink:href="Matrix_8h.html" target="_top" xlink:title=" ">
<polygon fill="white" stroke="#666666" points="860.5,-184 803.5,-184 803.5,-165 860.5,-165 860.5,-184"/>
<text text-anchor="middle" x="832" y="-172" font-family="Helvetica,sans-Serif" font-size="10.00">Matrix.h</text>
</a>
</g>
</g>
<!-- Node1&#45;&gt;Node29 -->
<g id="edge62_Node000001_Node000029" class="edge">
<title>Node1&#45;&gt;Node29</title>
<g id="a_edge62_Node000001_Node000029"><a xlink:title=" ">
<path fill="none" stroke="#63b8ff" d="M829.15,-340.63C829.62,-313.64 831.03,-232.03 831.67,-194.61"/>
<polygon fill="#63b8ff" stroke="#63b8ff" points="835.18,-194.2 831.85,-184.14 828.18,-194.08 835.18,-194.2"/>
</a>
</g>
</g>
<!-- Node30 -->
<g id="Node000030" class="node">
<title>Node30</title>
<g id="a_Node000030"><a xlink:href="other__textures_8h.html" target="_top" xlink:title=" ">
<polygon fill="white" stroke="#666666" points="1643,-305 1523,-305 1523,-275 1643,-275 1643,-305"/>
<text text-anchor="start" x="1531" y="-293" font-family="Helvetica,sans-Serif" font-size="10.00">assets/textures/other</text>
<text text-anchor="middle" x="1583" y="-282" font-family="Helvetica,sans-Serif" font-size="10.00">_textures.h</text>
</a>
</g>
</g>
<!-- Node1&#45;&gt;Node30 -->
<g id="edge70_Node000001_Node000030" class="edge">
<title>Node1&#45;&gt;Node30</title>
<g id="a_edge70_Node000001_Node000030"><a xlink:title=" ">
<path fill="none" stroke="#63b8ff" d="M911.13,-343.13C1060.16,-331.56 1372.66,-307.32 1512.61,-296.46"/>
<polygon fill="#63b8ff" stroke="#63b8ff" points="1513.08,-299.94 1522.78,-295.67 1512.54,-292.96 1513.08,-299.94"/>
</a>
</g>
</g>
<!-- Node2&#45;&gt;Node3 -->
<g id="edge2_Node000002_Node000003" class="edge">
<title>Node2&#45;&gt;Node3</title>
<g id="a_edge2_Node000002_Node000003"><a xlink:title=" ">
<path fill="none" stroke="#63b8ff" d="M607.77,-285.71C512.6,-275.88 247.92,-243.64 188,-184 176.34,-172.4 173.08,-153.53 172.45,-139.37"/>
<polygon fill="#63b8ff" stroke="#63b8ff" points="175.95,-139.23 172.39,-129.25 168.95,-139.27 175.95,-139.23"/>
</a>
</g>
</g>
<!-- Node2&#45;&gt;Node4 -->
<g id="edge3_Node000002_Node000004" class="edge">
<title>Node2&#45;&gt;Node4</title>
<g id="a_edge3_Node000002_Node000004"><a xlink:title=" ">
<path fill="none" stroke="#63b8ff" d="M607.78,-289.59C538.56,-289.71 377.9,-284.55 253,-239 168.1,-208.04 128.98,-206.2 82,-129 73.81,-115.55 72.87,-97.45 73.65,-84.02"/>
<polygon fill="#63b8ff" stroke="#63b8ff" points="77.14,-84.32 74.59,-74.03 70.17,-83.66 77.14,-84.32"/>
</a>
</g>
</g>
<!-- Node2&#45;&gt;Node5 -->
<g id="edge4_Node000002_Node000005" class="edge">
<title>Node2&#45;&gt;Node5</title>
<g id="a_edge4_Node000002_Node000005"><a xlink:title=" ">
<path fill="none" stroke="#63b8ff" d="M631.52,-280.37C620.51,-271.3 602.96,-256.84 589.59,-245.82"/>
<polygon fill="#63b8ff" stroke="#63b8ff" points="591.46,-242.83 581.52,-239.17 587.01,-248.23 591.46,-242.83"/>
</a>
</g>
</g>
<!-- Node9 -->
<g id="Node000009" class="node">
<title>Node9</title>
<g id="a_Node000009"><a xlink:href="EditorMath_8h.html" target="_top" xlink:title=" ">
<polygon fill="white" stroke="#666666" points="610.5,-184 531.5,-184 531.5,-165 610.5,-165 610.5,-184"/>
<text text-anchor="middle" x="571" y="-172" font-family="Helvetica,sans-Serif" font-size="10.00">EditorMath.h</text>
</a>
</g>
</g>
<!-- Node2&#45;&gt;Node9 -->
<g id="edge59_Node000002_Node000009" class="edge">
<title>Node2&#45;&gt;Node9</title>
<g id="a_edge59_Node000002_Node000009"><a xlink:title=" ">
<path fill="none" stroke="#63b8ff" d="M641.25,-280.28C639.71,-266.5 635.26,-239.3 623,-220 615.44,-208.09 603.7,-197.65 593.29,-189.89"/>
<polygon fill="#63b8ff" stroke="#63b8ff" points="595.17,-186.93 584.98,-184.02 591.13,-192.64 595.17,-186.93"/>
</a>
</g>
</g>
<!-- Node2&#45;&gt;Node19 -->
<g id="edge32_Node000002_Node000019" class="edge">
<title>Node2&#45;&gt;Node19</title>
<g id="a_edge32_Node000002_Node000019"><a xlink:title=" ">
<path fill="none" stroke="#63b8ff" d="M676.3,-286.02C785.96,-276.49 1128.64,-246.7 1261.56,-235.15"/>
<polygon fill="#63b8ff" stroke="#63b8ff" points="1262.23,-238.6 1271.89,-234.25 1261.62,-231.63 1262.23,-238.6"/>
</a>
</g>
</g>
<!-- Node2&#45;&gt;Node26 -->
<g id="edge50_Node000002_Node000026" class="edge">
<title>Node2&#45;&gt;Node26</title>
<g id="a_edge50_Node000002_Node000026"><a xlink:title=" ">
<path fill="none" stroke="#63b8ff" d="M676.18,-281.89C725.02,-271.72 815.15,-252.95 871.93,-241.13"/>
<polygon fill="#63b8ff" stroke="#63b8ff" points="872.71,-244.55 881.78,-239.08 871.28,-237.69 872.71,-244.55"/>
</a>
</g>
</g>
<!-- Node5&#45;&gt;Node3 -->
<g id="edge5_Node000005_Node000003" class="edge">
<title>Node5&#45;&gt;Node3</title>
<g id="a_edge5_Node000005_Node000003"><a xlink:title=" ">
<path fill="none" stroke="#63b8ff" d="M527.88,-227.96C443.51,-226.16 260.35,-218.28 209,-184 193.23,-173.47 183.59,-153.55 178.31,-138.81"/>
<polygon fill="#63b8ff" stroke="#63b8ff" points="181.61,-137.65 175.21,-129.21 174.95,-139.8 181.61,-137.65"/>
</a>
</g>
</g>
<!-- Node5&#45;&gt;Node4 -->
<g id="edge6_Node000005_Node000004" class="edge">
<title>Node5&#45;&gt;Node4</title>
<g id="a_edge6_Node000005_Node000004"><a xlink:title=" ">
<path fill="none" stroke="#63b8ff" d="M527.8,-229.25C455.51,-229.25 306.31,-223.85 188,-184 142.49,-168.67 124.58,-166.83 95,-129 84.92,-116.11 80.18,-97.95 77.95,-84.35"/>
<polygon fill="#63b8ff" stroke="#63b8ff" points="81.39,-83.67 76.61,-74.21 74.45,-84.59 81.39,-83.67"/>
</a>
</g>
</g>
<!-- Node6 -->
<g id="Node000006" class="node">
<title>Node6</title>
<g id="a_Node000006"><a xlink:title=" ">
<polygon fill="#e0e0e0" stroke="#999999" points="457,-19 367,-19 367,0 457,0 457,-19"/>
<text text-anchor="middle" x="412" y="-7" font-family="Helvetica,sans-Serif" font-size="10.00">libultra/types.h</text>
</a>
</g>
</g>
<!-- Node5&#45;&gt;Node6 -->
<g id="edge7_Node000005_Node000006" class="edge">
<title>Node5&#45;&gt;Node6</title>
<g id="a_edge7_Node000005_Node000006"><a xlink:title=" ">
<path fill="none" stroke="#63b8ff" d="M545.58,-219.98C485.64,-199.64 339.6,-148.5 327,-129 302.01,-90.32 355.45,-46.78 388.48,-24.82"/>
<polygon fill="#63b8ff" stroke="#63b8ff" points="390.66,-27.57 397.17,-19.21 386.87,-21.69 390.66,-27.57"/>
</a>
</g>
</g>
<!-- Node7 -->
<g id="Node000007" class="node">
<title>Node7</title>
<g id="a_Node000007"><a xlink:href="CoreMath_8h.html" target="_top" xlink:title=" ">
<polygon fill="white" stroke="#666666" points="812,-129 730,-129 730,-110 812,-110 812,-129"/>
<text text-anchor="middle" x="771" y="-117" font-family="Helvetica,sans-Serif" font-size="10.00">../CoreMath.h</text>
</a>
</g>
</g>
<!-- Node5&#45;&gt;Node7 -->
<g id="edge8_Node000005_Node000007" class="edge">
<title>Node5&#45;&gt;Node7</title>
<g id="a_edge8_Node000005_Node000007"><a xlink:title=" ">
<path fill="none" stroke="#63b8ff" d="M587.03,-219.84C621.86,-201.04 704.64,-156.33 746.24,-133.87"/>
<polygon fill="#63b8ff" stroke="#63b8ff" points="748.04,-136.88 755.17,-129.05 744.71,-130.72 748.04,-136.88"/>
</a>
</g>
</g>
<!-- Node5&#45;&gt;Node9 -->
<g id="edge10_Node000005_Node000009" class="edge">
<title>Node5&#45;&gt;Node9</title>
<g id="a_edge10_Node000005_Node000009"><a xlink:title=" ">
<path fill="none" stroke="#63b8ff" d="M565.83,-219.75C564.34,-212.8 563.9,-202.85 564.52,-194.13"/>
<polygon fill="#63b8ff" stroke="#63b8ff" points="568.01,-194.47 565.87,-184.09 561.07,-193.53 568.01,-194.47"/>
</a>
</g>
</g>
<!-- Node10 -->
<g id="Node000010" class="node">
<title>Node10</title>
<g id="a_Node000010"><a xlink:title=" ">
<polygon fill="#e0e0e0" stroke="#999999" points="383.5,-129 336.5,-129 336.5,-110 383.5,-110 383.5,-129"/>
<text text-anchor="middle" x="360" y="-117" font-family="Helvetica,sans-Serif" font-size="10.00">vector</text>
</a>
</g>
</g>
<!-- Node5&#45;&gt;Node10 -->
<g id="edge21_Node000005_Node000010" class="edge">
<title>Node5&#45;&gt;Node10</title>
<g id="a_edge21_Node000005_Node000010"><a xlink:title=" ">
<path fill="none" stroke="#63b8ff" d="M554.09,-219.84C517.27,-201 429.64,-156.14 385.84,-133.73"/>
<polygon fill="#63b8ff" stroke="#63b8ff" points="387.19,-130.49 376.7,-129.05 384,-136.72 387.19,-130.49"/>
</a>
</g>
</g>
<!-- Node13 -->
<g id="Node000013" class="node">
<title>Node13</title>
<g id="a_Node000013"><a xlink:href="common__structs_8h.html" target="_top" xlink:title=" ">
<polygon fill="white" stroke="#666666" points="1437.5,-74 1330.5,-74 1330.5,-55 1437.5,-55 1437.5,-74"/>
<text text-anchor="middle" x="1384" y="-62" font-family="Helvetica,sans-Serif" font-size="10.00">common_structs.h</text>
</a>
</g>
</g>
<!-- Node5&#45;&gt;Node13 -->
<g id="edge31_Node000005_Node000013" class="edge">
<title>Node5&#45;&gt;Node13</title>
<g id="a_edge31_Node000005_Node000013"><a xlink:title=" ">
<path fill="none" stroke="#63b8ff" d="M614,-228.38C673.63,-226.85 783.8,-218.97 870,-184 922.23,-162.81 920.35,-130.14 973,-110 1034.83,-86.34 1220.96,-73.67 1320.15,-68.44"/>
<polygon fill="#63b8ff" stroke="#63b8ff" points="1320.54,-71.93 1330.35,-67.91 1320.18,-64.93 1320.54,-71.93"/>
</a>
</g>
</g>
<!-- Node14 -->
<g id="Node000014" class="node">
<title>Node14</title>
<g id="a_Node000014"><a xlink:href="SpawnParams_8h.html" target="_top" xlink:title=" ">
<polygon fill="white" stroke="#666666" points="1112,-184 982,-184 982,-165 1112,-165 1112,-184"/>
<text text-anchor="middle" x="1047" y="-172" font-family="Helvetica,sans-Serif" font-size="10.00">engine/SpawnParams.h</text>
</a>
</g>
</g>
<!-- Node5&#45;&gt;Node14 -->
<g id="edge22_Node000005_Node000014" class="edge">
<title>Node5&#45;&gt;Node14</title>
<g id="a_edge22_Node000005_Node000014"><a xlink:title=" ">
<path fill="none" stroke="#63b8ff" d="M614.08,-223.7C695.06,-214.69 870.88,-195.11 971.78,-183.88"/>
<polygon fill="#63b8ff" stroke="#63b8ff" points="972.35,-187.33 981.9,-182.75 971.58,-180.38 972.35,-187.33"/>
</a>
</g>
</g>
<!-- Node18 -->
<g id="Node000018" class="node">
<title>Node18</title>
<g id="a_Node000018"><a xlink:href="DefaultProperties_8h.html" target="_top" xlink:title=" ">
<polygon fill="white" stroke="#666666" points="381.5,-184 218.5,-184 218.5,-165 381.5,-165 381.5,-184"/>
<text text-anchor="middle" x="300" y="-172" font-family="Helvetica,sans-Serif" font-size="10.00">src/port/ui/DefaultProperties.h</text>
</a>
</g>
</g>
<!-- Node5&#45;&gt;Node18 -->
<g id="edge29_Node000005_Node000018" class="edge">
<title>Node5&#45;&gt;Node18</title>
<g id="a_edge29_Node000005_Node000018"><a xlink:title=" ">
<path fill="none" stroke="#63b8ff" d="M527.76,-220.04C480.41,-210.78 404.43,-195.92 353.39,-185.94"/>
<polygon fill="#63b8ff" stroke="#63b8ff" points="354.02,-182.5 343.53,-184.01 352.68,-189.37 354.02,-182.5"/>
</a>
</g>
</g>
<!-- Node8 -->
<g id="Node000008" class="node">
<title>Node8</title>
<g id="a_Node000008"><a xlink:title=" ">
<polygon fill="#e0e0e0" stroke="#999999" points="1424,-19 1344,-19 1344,0 1424,0 1424,-19"/>
<text text-anchor="middle" x="1384" y="-7" font-family="Helvetica,sans-Serif" font-size="10.00">libultraship.h</text>
</a>
</g>
</g>
<!-- Node7&#45;&gt;Node8 -->
<g id="edge9_Node000007_Node000008" class="edge">
<title>Node7&#45;&gt;Node8</title>
<g id="a_edge9_Node000007_Node000008"><a xlink:title=" ">
<path fill="none" stroke="#63b8ff" d="M763.49,-109.97C752.65,-96.59 735.43,-70.63 750,-55 789.5,-12.63 1190.8,-9.83 1333.76,-10.19"/>
<polygon fill="#63b8ff" stroke="#63b8ff" points="1333.99,-13.69 1344,-10.22 1334.01,-6.69 1333.99,-13.69"/>
</a>
</g>
</g>
<!-- Node9&#45;&gt;Node3 -->
<g id="edge11_Node000009_Node000003" class="edge">
<title>Node9&#45;&gt;Node3</title>
<g id="a_edge11_Node000009_Node000003"><a xlink:title=" ">
<path fill="none" stroke="#63b8ff" d="M531.38,-168.22C465.16,-159.41 330.98,-141.54 246.9,-130.34"/>
<polygon fill="#63b8ff" stroke="#63b8ff" points="247.28,-126.86 236.91,-129.01 246.36,-133.8 247.28,-126.86"/>
</a>
</g>
</g>
<!-- Node9&#45;&gt;Node4 -->
<g id="edge12_Node000009_Node000004" class="edge">
<title>Node9&#45;&gt;Node4</title>
<g id="a_edge12_Node000009_Node000004"><a xlink:title=" ">
<path fill="none" stroke="#63b8ff" d="M531.11,-167.07C482.66,-159.07 398.53,-144.55 327,-129 316.76,-126.77 188.12,-94.06 119.11,-76.49"/>
<polygon fill="#63b8ff" stroke="#63b8ff" points="119.93,-73.08 109.38,-74.01 118.21,-79.87 119.93,-73.08"/>
</a>
</g>
</g>
<!-- Node9&#45;&gt;Node5 -->
<g id="edge16_Node000009_Node000005" class="edge">
<title>Node9&#45;&gt;Node5</title>
<g id="a_edge16_Node000009_Node000005"><a xlink:title=" ">
<path fill="none" stroke="#63b8ff" d="M576.13,-184.09C577.64,-190.99 578.09,-200.93 577.49,-209.66"/>
<polygon fill="#63b8ff" stroke="#63b8ff" points="574,-209.38 576.17,-219.75 580.94,-210.29 574,-209.38"/>
</a>
</g>
</g>
<!-- Node9&#45;&gt;Node6 -->
<g id="edge13_Node000009_Node000006" class="edge">
<title>Node9&#45;&gt;Node6</title>
<g id="a_edge13_Node000009_Node000006"><a xlink:title=" ">
<path fill="none" stroke="#63b8ff" d="M531.39,-171.8C499.45,-168.21 455.88,-157.89 431,-129 406.95,-101.07 407.06,-55.15 409.43,-29.45"/>
<polygon fill="#63b8ff" stroke="#63b8ff" points="412.95,-29.53 410.6,-19.2 405.99,-28.73 412.95,-29.53"/>
</a>
</g>
</g>
<!-- Node9&#45;&gt;Node7 -->
<g id="edge14_Node000009_Node000007" class="edge">
<title>Node9&#45;&gt;Node7</title>
<g id="a_edge14_Node000009_Node000007"><a xlink:title=" ">
<path fill="none" stroke="#63b8ff" d="M603.13,-164.98C637.15,-155.97 691,-141.7 728.5,-131.76"/>
<polygon fill="#63b8ff" stroke="#63b8ff" points="729.84,-135.03 738.61,-129.08 728.05,-128.26 729.84,-135.03"/>
</a>
</g>
</g>
<!-- Node9&#45;&gt;Node10 -->
<g id="edge15_Node000009_Node000010" class="edge">
<title>Node9&#45;&gt;Node10</title>
<g id="a_edge15_Node000009_Node000010"><a xlink:title=" ">
<path fill="none" stroke="#63b8ff" d="M537.1,-164.98C497.64,-155.07 432.88,-138.81 393.56,-128.93"/>
<polygon fill="#63b8ff" stroke="#63b8ff" points="394.22,-125.49 383.67,-126.45 392.51,-132.28 394.22,-125.49"/>
</a>
</g>
</g>
<!-- Node11 -->
<g id="Node000011" class="node">
<title>Node11</title>
<g id="a_Node000011"><a xlink:title=" ">
<polygon fill="#e0e0e0" stroke="#999999" points="557.5,-129 440.5,-129 440.5,-110 557.5,-110 557.5,-129"/>
<text text-anchor="middle" x="499" y="-117" font-family="Helvetica,sans-Serif" font-size="10.00">fast/Fast3dWindow.h</text>
</a>
</g>
</g>
<!-- Node9&#45;&gt;Node11 -->
<g id="edge17_Node000009_Node000011" class="edge">
<title>Node9&#45;&gt;Node11</title>
<g id="a_edge17_Node000009_Node000011"><a xlink:title=" ">
<path fill="none" stroke="#63b8ff" d="M559.43,-164.98C548.58,-157 532.12,-144.88 519.12,-135.31"/>
<polygon fill="#63b8ff" stroke="#63b8ff" points="520.91,-132.28 510.78,-129.17 516.76,-137.92 520.91,-132.28"/>
</a>
</g>
</g>
<!-- Node12 -->
<g id="Node000012" class="node">
<title>Node12</title>
<g id="a_Node000012"><a xlink:title=" ">
<polygon fill="#e0e0e0" stroke="#999999" points="674,-129 576,-129 576,-110 674,-110 674,-129"/>
<text text-anchor="middle" x="625" y="-117" font-family="Helvetica,sans-Serif" font-size="10.00">fast/interpreter.h</text>
</a>
</g>
</g>
<!-- Node9&#45;&gt;Node12 -->
<g id="edge18_Node000009_Node000012" class="edge">
<title>Node9&#45;&gt;Node12</title>
<g id="a_edge18_Node000009_Node000012"><a xlink:title=" ">
<path fill="none" stroke="#63b8ff" d="M579.92,-164.75C587.78,-157.03 599.43,-145.6 608.92,-136.28"/>
<polygon fill="#63b8ff" stroke="#63b8ff" points="611.56,-138.59 616.25,-129.09 606.66,-133.6 611.56,-138.59"/>
</a>
</g>
</g>
<!-- Node9&#45;&gt;Node13 -->
<g id="edge19_Node000009_Node000013" class="edge">
<title>Node9&#45;&gt;Node13</title>
<g id="a_edge19_Node000009_Node000013"><a xlink:title=" ">
<path fill="none" stroke="#63b8ff" d="M594.41,-164.87C617.24,-156.29 652.83,-142.51 683,-129 700.23,-121.28 702.78,-114.95 721,-110 832.59,-79.68 1176.02,-69.56 1319.73,-66.59"/>
<polygon fill="#63b8ff" stroke="#63b8ff" points="1320.21,-70.08 1330.13,-66.38 1320.06,-63.08 1320.21,-70.08"/>
</a>
</g>
</g>
<!-- Node13&#45;&gt;Node8 -->
<g id="edge20_Node000013_Node000008" class="edge">
<title>Node13&#45;&gt;Node8</title>
<g id="a_edge20_Node000013_Node000008"><a xlink:title=" ">
<path fill="none" stroke="#63b8ff" d="M1384,-54.75C1384,-47.8 1384,-37.85 1384,-29.13"/>
<polygon fill="#63b8ff" stroke="#63b8ff" points="1387.5,-29.09 1384,-19.09 1380.5,-29.09 1387.5,-29.09"/>
</a>
</g>
</g>
<!-- Node14&#45;&gt;Node7 -->
<g id="edge27_Node000014_Node000007" class="edge">
<title>Node14&#45;&gt;Node7</title>
<g id="a_edge27_Node000014_Node000007"><a xlink:title=" ">
<path fill="none" stroke="#63b8ff" d="M1002.66,-164.98C953.37,-155.52 873.91,-140.26 822.06,-130.31"/>
<polygon fill="#63b8ff" stroke="#63b8ff" points="822.56,-126.84 812.08,-128.39 821.24,-133.71 822.56,-126.84"/>
</a>
</g>
</g>
<!-- Node14&#45;&gt;Node10 -->
<g id="edge23_Node000014_Node000010" class="edge">
<title>Node14&#45;&gt;Node10</title>
<g id="a_edge23_Node000014_Node000010"><a xlink:title=" ">
<path fill="none" stroke="#63b8ff" d="M981.73,-169.8C869.18,-163.18 631.39,-148.22 431,-129 418.89,-127.84 405.65,-126.32 393.91,-124.89"/>
<polygon fill="#63b8ff" stroke="#63b8ff" points="393.99,-121.37 383.64,-123.61 393.13,-128.32 393.99,-121.37"/>
</a>
</g>
</g>
<!-- Node14&#45;&gt;Node13 -->
<g id="edge28_Node000014_Node000013" class="edge">
<title>Node14&#45;&gt;Node13</title>
<g id="a_edge28_Node000014_Node000013"><a xlink:title=" ">
<path fill="none" stroke="#63b8ff" d="M1112.01,-171.96C1166.82,-168.48 1246.15,-158.24 1309,-129 1333.28,-117.71 1355.97,-96.4 1369.91,-81.59"/>
<polygon fill="#63b8ff" stroke="#63b8ff" points="1372.55,-83.89 1376.7,-74.14 1367.37,-79.18 1372.55,-83.89"/>
</a>
</g>
</g>
<!-- Node15 -->
<g id="Node000015" class="node">
<title>Node15</title>
<g id="a_Node000015"><a xlink:title=" ">
<polygon fill="#e0e0e0" stroke="#999999" points="1038,-129 982,-129 982,-110 1038,-110 1038,-129"/>
<text text-anchor="middle" x="1010" y="-117" font-family="Helvetica,sans-Serif" font-size="10.00">optional</text>
</a>
</g>
</g>
<!-- Node14&#45;&gt;Node15 -->
<g id="edge24_Node000014_Node000015" class="edge">
<title>Node14&#45;&gt;Node15</title>
<g id="a_edge24_Node000014_Node000015"><a xlink:title=" ">
<path fill="none" stroke="#63b8ff" d="M1040.89,-164.75C1035.72,-157.34 1028.15,-146.5 1021.81,-137.41"/>
<polygon fill="#63b8ff" stroke="#63b8ff" points="1024.59,-135.29 1016,-129.09 1018.85,-139.29 1024.59,-135.29"/>
</a>
</g>
</g>
<!-- Node16 -->
<g id="Node000016" class="node">
<title>Node16</title>
<g id="a_Node000016"><a xlink:title=" ">
<polygon fill="#e0e0e0" stroke="#999999" points="1100,-129 1056,-129 1056,-110 1100,-110 1100,-129"/>
<text text-anchor="middle" x="1078" y="-117" font-family="Helvetica,sans-Serif" font-size="10.00">string</text>
</a>
</g>
</g>
<!-- Node14&#45;&gt;Node16 -->
<g id="edge25_Node000014_Node000016" class="edge">
<title>Node14&#45;&gt;Node16</title>
<g id="a_edge25_Node000014_Node000016"><a xlink:title=" ">
<path fill="none" stroke="#63b8ff" d="M1052.12,-164.75C1056.36,-157.49 1062.53,-146.95 1067.78,-137.98"/>
<polygon fill="#63b8ff" stroke="#63b8ff" points="1070.95,-139.49 1072.98,-129.09 1064.91,-135.95 1070.95,-139.49"/>
</a>
</g>
</g>
<!-- Node17 -->
<g id="Node000017" class="node">
<title>Node17</title>
<g id="a_Node000017"><a xlink:title=" ">
<polygon fill="#e0e0e0" stroke="#999999" points="1228,-129 1118,-129 1118,-110 1228,-110 1228,-129"/>
<text text-anchor="middle" x="1173" y="-117" font-family="Helvetica,sans-Serif" font-size="10.00">nlohmann/json.hpp</text>
</a>
</g>
</g>
<!-- Node14&#45;&gt;Node17 -->
<g id="edge26_Node000014_Node000017" class="edge">
<title>Node14&#45;&gt;Node17</title>
<g id="a_edge26_Node000014_Node000017"><a xlink:title=" ">
<path fill="none" stroke="#63b8ff" d="M1067.24,-164.98C1087.7,-156.38 1119.53,-142.99 1142.93,-133.15"/>
<polygon fill="#63b8ff" stroke="#63b8ff" points="1144.53,-136.27 1152.39,-129.17 1141.81,-129.82 1144.53,-136.27"/>
</a>
</g>
</g>
<!-- Node18&#45;&gt;Node3 -->
<g id="edge30_Node000018_Node000003" class="edge">
<title>Node18&#45;&gt;Node3</title>
<g id="a_edge30_Node000018_Node000003"><a xlink:title=" ">
<path fill="none" stroke="#63b8ff" d="M279.6,-164.98C258.98,-156.38 226.89,-142.99 203.31,-133.15"/>
<polygon fill="#63b8ff" stroke="#63b8ff" points="204.35,-129.79 193.78,-129.17 201.66,-136.25 204.35,-129.79"/>
</a>
</g>
</g>
<!-- Node19&#45;&gt;Node8 -->
<g id="edge33_Node000019_Node000008" class="edge">
<title>Node19&#45;&gt;Node8</title>
<g id="a_edge33_Node000019_Node000008"><a xlink:title=" ">
<path fill="none" stroke="#63b8ff" d="M1358,-228.08C1397.87,-225.54 1456.79,-216.05 1496,-184 1516.94,-166.89 1516.08,-155.38 1522,-129 1530.01,-93.31 1513.94,-78.6 1486,-55 1468.37,-40.11 1444.98,-29.43 1425.05,-22.27"/>
<polygon fill="#63b8ff" stroke="#63b8ff" points="1426.18,-18.95 1415.59,-19.03 1423.92,-25.58 1426.18,-18.95"/>
</a>
</g>
</g>
<!-- Node19&#45;&gt;Node9 -->
<g id="edge35_Node000019_Node000009" class="edge">
<title>Node19&#45;&gt;Node9</title>
<g id="a_edge35_Node000019_Node000009"><a xlink:title=" ">
<path fill="none" stroke="#63b8ff" d="M1271.78,-225.42C1142.42,-216.21 758.69,-188.87 620.94,-179.06"/>
<polygon fill="#63b8ff" stroke="#63b8ff" points="620.9,-175.55 610.68,-178.33 620.41,-182.53 620.9,-175.55"/>
</a>
</g>
</g>
<!-- Node19&#45;&gt;Node13 -->
<g id="edge49_Node000019_Node000013" class="edge">
<title>Node19&#45;&gt;Node13</title>
<g id="a_edge49_Node000019_Node000013"><a xlink:title=" ">
<path fill="none" stroke="#63b8ff" d="M1358.33,-224.65C1392.11,-219.78 1438.71,-208.79 1472,-184 1495.24,-166.69 1498.9,-156.82 1507,-129 1509.36,-120.89 1511.85,-116.91 1507,-110 1493.31,-90.49 1470.17,-79.49 1447.62,-73.32"/>
<polygon fill="#63b8ff" stroke="#63b8ff" points="1448.24,-69.86 1437.69,-70.88 1446.57,-76.66 1448.24,-69.86"/>
</a>
</g>
</g>
<!-- Node19&#45;&gt;Node14 -->
<g id="edge34_Node000019_Node000014" class="edge">
<title>Node19&#45;&gt;Node14</title>
<g id="a_edge34_Node000019_Node000014"><a xlink:title=" ">
<path fill="none" stroke="#63b8ff" d="M1271.94,-219.98C1225.29,-210.76 1150.8,-196.03 1100.44,-186.07"/>
<polygon fill="#63b8ff" stroke="#63b8ff" points="1100.89,-182.59 1090.4,-184.08 1099.53,-189.46 1100.89,-182.59"/>
</a>
</g>
</g>
<!-- Node20 -->
<g id="Node000020" class="node">
<title>Node20</title>
<g id="a_Node000020"><a xlink:href="macros_8h.html" target="_top" xlink:title=" ">
<polygon fill="white" stroke="#666666" points="1720,-184 1658,-184 1658,-165 1720,-165 1720,-184"/>
<text text-anchor="middle" x="1689" y="-172" font-family="Helvetica,sans-Serif" font-size="10.00">macros.h</text>
</a>
</g>
</g>
<!-- Node19&#45;&gt;Node20 -->
<g id="edge36_Node000019_Node000020" class="edge">
<title>Node19&#45;&gt;Node20</title>
<g id="a_edge36_Node000019_Node000020"><a xlink:title=" ">
<path fill="none" stroke="#63b8ff" d="M1358.22,-223.38C1421.21,-215.76 1541.87,-200.54 1644,-184 1645.1,-183.82 1646.21,-183.64 1647.33,-183.45"/>
<polygon fill="#63b8ff" stroke="#63b8ff" points="1648.32,-186.83 1657.57,-181.65 1647.11,-179.94 1648.32,-186.83"/>
</a>
</g>
</g>
<!-- Node19&#45;&gt;Node22 -->
<g id="edge39_Node000019_Node000022" class="edge">
<title>Node19&#45;&gt;Node22</title>
<g id="a_edge39_Node000019_Node000022"><a xlink:title=" ">
<path fill="none" stroke="#63b8ff" d="M1315,-219.75C1315,-212.8 1315,-202.85 1315,-194.13"/>
<polygon fill="#63b8ff" stroke="#63b8ff" points="1318.5,-194.09 1315,-184.09 1311.5,-194.09 1318.5,-194.09"/>
</a>
</g>
</g>
<!-- Node25 -->
<g id="Node000025" class="node">
<title>Node25</title>
<g id="a_Node000025"><a xlink:href="camera_8h.html" target="_top" xlink:title=" ">
<polygon fill="white" stroke="#666666" points="1463,-184 1401,-184 1401,-165 1463,-165 1463,-184"/>
<text text-anchor="middle" x="1432" y="-172" font-family="Helvetica,sans-Serif" font-size="10.00">camera.h</text>
</a>
</g>
</g>
<!-- Node19&#45;&gt;Node25 -->
<g id="edge46_Node000019_Node000025" class="edge">
<title>Node19&#45;&gt;Node25</title>
<g id="a_edge46_Node000019_Node000025"><a xlink:title=" ">
<path fill="none" stroke="#63b8ff" d="M1333.8,-219.98C1352.62,-211.46 1381.82,-198.23 1403.5,-188.41"/>
<polygon fill="#63b8ff" stroke="#63b8ff" points="1405.2,-191.48 1412.86,-184.17 1402.31,-185.11 1405.2,-191.48"/>
</a>
</g>
</g>
<!-- Node20&#45;&gt;Node8 -->
<g id="edge38_Node000020_Node000008" class="edge">
<title>Node20&#45;&gt;Node8</title>
<g id="a_edge38_Node000020_Node000008"><a xlink:title=" ">
<path fill="none" stroke="#63b8ff" d="M1698.39,-164.8C1710.47,-152.5 1728.81,-129.36 1719,-110 1700.32,-73.13 1682.05,-71.14 1644,-55 1575.23,-25.83 1488.53,-15.77 1434.68,-12.3"/>
<polygon fill="#63b8ff" stroke="#63b8ff" points="1434.55,-8.79 1424.36,-11.7 1434.14,-15.78 1434.55,-8.79"/>
</a>
</g>
</g>
<!-- Node21 -->
<g id="Node000021" class="node">
<title>Node21</title>
<g id="a_Node000021"><a xlink:href="math_8h.html" target="_top" xlink:title=" ">
<polygon fill="white" stroke="#666666" points="1709.5,-129 1658.5,-129 1658.5,-110 1709.5,-110 1709.5,-129"/>
<text text-anchor="middle" x="1684" y="-117" font-family="Helvetica,sans-Serif" font-size="10.00">math.h</text>
</a>
</g>
</g>
<!-- Node20&#45;&gt;Node21 -->
<g id="edge37_Node000020_Node000021" class="edge">
<title>Node20&#45;&gt;Node21</title>
<g id="a_edge37_Node000020_Node000021"><a xlink:title=" ">
<path fill="none" stroke="#63b8ff" d="M1688.17,-164.75C1687.52,-157.8 1686.58,-147.85 1685.76,-139.13"/>
<polygon fill="#63b8ff" stroke="#63b8ff" points="1689.23,-138.72 1684.81,-129.09 1682.27,-139.37 1689.23,-138.72"/>
</a>
</g>
</g>
<!-- Node22&#45;&gt;Node13 -->
<g id="edge45_Node000022_Node000013" class="edge">
<title>Node22&#45;&gt;Node13</title>
<g id="a_edge45_Node000022_Node000013"><a xlink:title=" ">
<path fill="none" stroke="#63b8ff" d="M1340.02,-169.11C1376.24,-162.18 1440.44,-147.57 1454,-129 1468.75,-108.79 1441.08,-90.12 1416.3,-78.33"/>
<polygon fill="#63b8ff" stroke="#63b8ff" points="1417.59,-75.07 1407.04,-74.16 1414.72,-81.46 1417.59,-75.07"/>
</a>
</g>
</g>
<!-- Node23 -->
<g id="Node000023" class="node">
<title>Node23</title>
<g id="a_Node000023"><a xlink:href="mk64_8h.html" target="_top" xlink:title=" ">
<polygon fill="white" stroke="#666666" points="1299.5,-129 1246.5,-129 1246.5,-110 1299.5,-110 1299.5,-129"/>
<text text-anchor="middle" x="1273" y="-117" font-family="Helvetica,sans-Serif" font-size="10.00">mk64.h</text>
</a>
</g>
</g>
<!-- Node22&#45;&gt;Node23 -->
<g id="edge40_Node000022_Node000023" class="edge">
<title>Node22&#45;&gt;Node23</title>
<g id="a_edge40_Node000022_Node000023"><a xlink:title=" ">
<path fill="none" stroke="#63b8ff" d="M1308.06,-164.75C1302.13,-157.26 1293.43,-146.28 1286.18,-137.13"/>
<polygon fill="#63b8ff" stroke="#63b8ff" points="1288.76,-134.75 1279.81,-129.09 1283.27,-139.1 1288.76,-134.75"/>
</a>
</g>
</g>
<!-- Node23&#45;&gt;Node4 -->
<g id="edge44_Node000023_Node000004" class="edge">
<title>Node23&#45;&gt;Node4</title>
<g id="a_edge44_Node000023_Node000004"><a xlink:title=" ">
<path fill="none" stroke="#63b8ff" d="M1246.37,-111.61C1243.23,-110.97 1240.05,-110.42 1237,-110 1017.06,-80.11 317.25,-68.72 125.18,-66.12"/>
<polygon fill="#63b8ff" stroke="#63b8ff" points="125.14,-62.62 115.1,-65.98 125.05,-69.62 125.14,-62.62"/>
</a>
</g>
</g>
<!-- Node23&#45;&gt;Node8 -->
<g id="edge41_Node000023_Node000008" class="edge">
<title>Node23&#45;&gt;Node8</title>
<g id="a_edge41_Node000023_Node000008"><a xlink:title=" ">
<path fill="none" stroke="#63b8ff" d="M1278.62,-109.64C1287.07,-96.73 1303.97,-72.41 1322,-55 1333.77,-43.63 1348.62,-32.87 1360.83,-24.78"/>
<polygon fill="#63b8ff" stroke="#63b8ff" points="1363.05,-27.51 1369.56,-19.15 1359.26,-21.63 1363.05,-27.51"/>
</a>
</g>
</g>
<!-- Node24 -->
<g id="Node000024" class="node">
<title>Node24</title>
<g id="a_Node000024"><a xlink:href="string_8h.html" target="_top" xlink:title=" ">
<polygon fill="white" stroke="#666666" points="811.5,-74 758.5,-74 758.5,-55 811.5,-55 811.5,-74"/>
<text text-anchor="middle" x="785" y="-62" font-family="Helvetica,sans-Serif" font-size="10.00">string.h</text>
</a>
</g>
</g>
<!-- Node23&#45;&gt;Node24 -->
<g id="edge42_Node000023_Node000024" class="edge">
<title>Node23&#45;&gt;Node24</title>
<g id="a_edge42_Node000023_Node000024"><a xlink:title=" ">
<path fill="none" stroke="#63b8ff" d="M1246.34,-111.79C1243.21,-111.12 1240.04,-110.51 1237,-110 1083.97,-84.52 899.18,-71.92 821.84,-67.45"/>
<polygon fill="#63b8ff" stroke="#63b8ff" points="821.84,-63.95 811.66,-66.88 821.44,-70.94 821.84,-63.95"/>
</a>
</g>
</g>
<!-- Node24&#45;&gt;Node6 -->
<g id="edge43_Node000024_Node000006" class="edge">
<title>Node24&#45;&gt;Node6</title>
<g id="a_edge43_Node000024_Node000006"><a xlink:title=" ">
<path fill="none" stroke="#63b8ff" d="M758.47,-59.73C697.98,-51.14 548.78,-29.93 467.29,-18.36"/>
<polygon fill="#63b8ff" stroke="#63b8ff" points="467.62,-14.87 457.22,-16.93 466.63,-21.8 467.62,-14.87"/>
</a>
</g>
</g>
<!-- Node25&#45;&gt;Node8 -->
<g id="edge47_Node000025_Node000008" class="edge">
<title>Node25&#45;&gt;Node8</title>
<g id="a_edge47_Node000025_Node000008"><a xlink:title=" ">
<path fill="none" stroke="#63b8ff" d="M1457.99,-164.9C1483.9,-154.7 1518.34,-135.77 1507,-110 1488.84,-68.71 1443.36,-39.45 1413.09,-23.77"/>
<polygon fill="#63b8ff" stroke="#63b8ff" points="1414.36,-20.5 1403.85,-19.17 1411.23,-26.76 1414.36,-20.5"/>
</a>
</g>
</g>
<!-- Node25&#45;&gt;Node13 -->
<g id="edge48_Node000025_Node000013" class="edge">
<title>Node25&#45;&gt;Node13</title>
<g id="a_edge48_Node000025_Node000013"><a xlink:title=" ">
<path fill="none" stroke="#63b8ff" d="M1451.04,-164.88C1473.69,-153.38 1506.68,-131.93 1492,-110 1481.39,-94.15 1463.99,-83.94 1446.22,-77.36"/>
<polygon fill="#63b8ff" stroke="#63b8ff" points="1446.95,-73.91 1436.36,-74.07 1444.74,-80.55 1446.95,-73.91"/>
</a>
</g>
</g>
<!-- Node26&#45;&gt;Node8 -->
<g id="edge51_Node000026_Node000008" class="edge">
<title>Node26&#45;&gt;Node8</title>
<g id="a_edge51_Node000026_Node000008"><a xlink:title=" ">
<path fill="none" stroke="#63b8ff" d="M924.01,-219.79C927.04,-197.8 938.12,-139.65 973,-110 1027.38,-63.78 1236.2,-30.38 1333.53,-16.98"/>
<polygon fill="#63b8ff" stroke="#63b8ff" points="1334.27,-20.41 1343.71,-15.6 1333.33,-13.47 1334.27,-20.41"/>
</a>
</g>
</g>
<!-- Node26&#45;&gt;Node9 -->
<g id="edge53_Node000026_Node000009" class="edge">
<title>Node26&#45;&gt;Node9</title>
<g id="a_edge53_Node000026_Node000009"><a xlink:title=" ">
<path fill="none" stroke="#63b8ff" d="M866.45,-219.98C798.47,-209.75 685.48,-192.74 620.71,-182.98"/>
<polygon fill="#63b8ff" stroke="#63b8ff" points="621.15,-179.51 610.74,-181.48 620.11,-186.43 621.15,-179.51"/>
</a>
</g>
</g>
<!-- Node26&#45;&gt;Node14 -->
<g id="edge52_Node000026_Node000014" class="edge">
<title>Node26&#45;&gt;Node14</title>
<g id="a_edge52_Node000026_Node000014"><a xlink:title=" ">
<path fill="none" stroke="#63b8ff" d="M942.92,-219.98C963.05,-211.38 994.38,-197.99 1017.41,-188.15"/>
<polygon fill="#63b8ff" stroke="#63b8ff" points="1018.9,-191.32 1026.71,-184.17 1016.14,-184.88 1018.9,-191.32"/>
</a>
</g>
</g>
<!-- Node26&#45;&gt;Node25 -->
<g id="edge54_Node000026_Node000025" class="edge">
<title>Node26&#45;&gt;Node25</title>
<g id="a_edge54_Node000026_Node000025"><a xlink:title=" ">
<path fill="none" stroke="#63b8ff" d="M988.5,-221.68C1094.93,-210.6 1302.39,-189 1390.65,-179.81"/>
<polygon fill="#63b8ff" stroke="#63b8ff" points="1391.23,-183.26 1400.81,-178.75 1390.5,-176.3 1391.23,-183.26"/>
</a>
</g>
</g>
<!-- Node27 -->
<g id="Node000027" class="node">
<title>Node27</title>
<g id="a_Node000027"><a xlink:href="objects_8h.html" target="_top" xlink:title=" ">
<polygon fill="white" stroke="#666666" points="1271.5,-184 1210.5,-184 1210.5,-165 1271.5,-165 1271.5,-184"/>
<text text-anchor="middle" x="1241" y="-172" font-family="Helvetica,sans-Serif" font-size="10.00">objects.h</text>
</a>
</g>
</g>
<!-- Node26&#45;&gt;Node27 -->
<g id="edge55_Node000026_Node000027" class="edge">
<title>Node26&#45;&gt;Node27</title>
<g id="a_edge55_Node000026_Node000027"><a xlink:title=" ">
<path fill="none" stroke="#63b8ff" d="M974.09,-219.98C1036.9,-209.52 1142.24,-191.96 1200.02,-182.33"/>
<polygon fill="#63b8ff" stroke="#63b8ff" points="1200.94,-185.72 1210.23,-180.63 1199.79,-178.82 1200.94,-185.72"/>
</a>
</g>
</g>
<!-- Node27&#45;&gt;Node13 -->
<g id="edge58_Node000027_Node000013" class="edge">
<title>Node27&#45;&gt;Node13</title>
<g id="a_edge58_Node000027_Node000013"><a xlink:title=" ">
<path fill="none" stroke="#63b8ff" d="M1271.77,-166.92C1321.95,-156.05 1416.35,-134.94 1421,-129 1432.95,-113.74 1417.69,-94.24 1403.31,-80.9"/>
<polygon fill="#63b8ff" stroke="#63b8ff" points="1405.43,-78.1 1395.59,-74.19 1400.84,-83.39 1405.43,-78.1"/>
</a>
</g>
</g>
<!-- Node28 -->
<g id="Node000028" class="node">
<title>Node28</title>
<g id="a_Node000028"><a xlink:href="spline_8h.html" target="_top" xlink:title=" ">
<polygon fill="white" stroke="#666666" points="1411.5,-129 1356.5,-129 1356.5,-110 1411.5,-110 1411.5,-129"/>
<text text-anchor="middle" x="1384" y="-117" font-family="Helvetica,sans-Serif" font-size="10.00">spline.h</text>
</a>
</g>
</g>
<!-- Node27&#45;&gt;Node28 -->
<g id="edge56_Node000027_Node000028" class="edge">
<title>Node27&#45;&gt;Node28</title>
<g id="a_edge56_Node000027_Node000028"><a xlink:title=" ">
<path fill="none" stroke="#63b8ff" d="M1263.98,-164.98C1287.5,-156.27 1324.29,-142.63 1350.94,-132.75"/>
<polygon fill="#63b8ff" stroke="#63b8ff" points="1352.45,-135.93 1360.61,-129.17 1350.01,-129.36 1352.45,-135.93"/>
</a>
</g>
</g>
<!-- Node28&#45;&gt;Node13 -->
<g id="edge57_Node000028_Node000013" class="edge">
<title>Node28&#45;&gt;Node13</title>
<g id="a_edge57_Node000028_Node000013"><a xlink:title=" ">
<path fill="none" stroke="#63b8ff" d="M1384,-109.75C1384,-102.8 1384,-92.85 1384,-84.13"/>
<polygon fill="#63b8ff" stroke="#63b8ff" points="1387.5,-84.09 1384,-74.09 1380.5,-84.09 1387.5,-84.09"/>
</a>
</g>
</g>
<!-- Node29&#45;&gt;Node7 -->
<g id="edge65_Node000029_Node000007" class="edge">
<title>Node29&#45;&gt;Node7</title>
<g id="a_edge65_Node000029_Node000007"><a xlink:title=" ">
<path fill="none" stroke="#63b8ff" d="M822.2,-164.98C813.18,-157.15 799.59,-145.34 788.68,-135.86"/>
<polygon fill="#63b8ff" stroke="#63b8ff" points="790.82,-133.09 780.98,-129.17 786.23,-138.37 790.82,-133.09"/>
</a>
</g>
</g>
<!-- Node29&#45;&gt;Node8 -->
<g id="edge63_Node000029_Node000008" class="edge">
<title>Node29&#45;&gt;Node8</title>
<g id="a_edge63_Node000029_Node000008"><a xlink:title=" ">
<path fill="none" stroke="#63b8ff" d="M834.21,-164.72C840.43,-142.02 860.42,-81.34 902,-55 937.88,-32.27 1217.64,-17.69 1333.75,-12.56"/>
<polygon fill="#63b8ff" stroke="#63b8ff" points="1333.97,-16.06 1343.81,-12.12 1333.66,-9.06 1333.97,-16.06"/>
</a>
</g>
</g>
<!-- Node29&#45;&gt;Node13 -->
<g id="edge64_Node000029_Node000013" class="edge">
<title>Node29&#45;&gt;Node13</title>
<g id="a_edge64_Node000029_Node000013"><a xlink:title=" ">
<path fill="none" stroke="#63b8ff" d="M842.88,-164.9C861.53,-150.69 901.34,-122.63 940,-110 1008.95,-87.48 1214.61,-74.09 1320.07,-68.53"/>
<polygon fill="#63b8ff" stroke="#63b8ff" points="1320.46,-72.02 1330.27,-68 1320.1,-65.02 1320.46,-72.02"/>
</a>
</g>
</g>
<!-- Node30&#45;&gt;Node8 -->
<g id="edge71_Node000030_Node000008" class="edge">
<title>Node30&#45;&gt;Node8</title>
<g id="a_edge71_Node000030_Node000008"><a xlink:title=" ">
<path fill="none" stroke="#63b8ff" d="M1643.01,-279.57C1699.66,-266.84 1776,-238.08 1776,-175.5 1776,-175.5 1776,-175.5 1776,-118.5 1776,-48.39 1540,-22.06 1434.23,-13.78"/>
<polygon fill="#63b8ff" stroke="#63b8ff" points="1434.34,-10.28 1424.11,-13.01 1433.82,-17.26 1434.34,-10.28"/>
</a>
</g>
</g>
<!-- Node31 -->
<g id="Node000031" class="node">
<title>Node31</title>
<g id="a_Node000031"><a xlink:href="align__asset__macro_8h.html" target="_top" xlink:title=" ">
<polygon fill="white" stroke="#666666" points="1641.5,-239 1524.5,-239 1524.5,-220 1641.5,-220 1641.5,-239"/>
<text text-anchor="middle" x="1583" y="-227" font-family="Helvetica,sans-Serif" font-size="10.00">align_asset_macro.h</text>
</a>
</g>
</g>
<!-- Node30&#45;&gt;Node31 -->
<g id="edge72_Node000030_Node000031" class="edge">
<title>Node30&#45;&gt;Node31</title>
<g id="a_edge72_Node000030_Node000031"><a xlink:title=" ">
<path fill="none" stroke="#63b8ff" d="M1583,-274.84C1583,-267.21 1583,-257.7 1583,-249.45"/>
<polygon fill="#63b8ff" stroke="#63b8ff" points="1586.5,-249.27 1583,-239.27 1579.5,-249.27 1586.5,-249.27"/>
</a>
</g>
</g>
</g>
</svg>

<g id="navigator" transform="translate(0 0)" fill="#404254">
  <rect fill="#f2f5e9" fill-opacity="0.5" stroke="#606060" stroke-width=".5" x="0" y="0" width="60" height="60"/>
  <use id="zoomplus" xlink:href="#zoomPlus" x="17" y="9" onmousedown="handleZoom(evt,'in')"/>
  <use id="zoomminus" xlink:href="#zoomMin" x="42" y="9" onmousedown="handleZoom(evt,'out')"/>
  <use id="reset" xlink:href="#resetDef" x="30" y="36" onmousedown="handleReset()"/>
   <use id="arrowup" xlink:href="#arrowUp" x="0" y="0" onmousedown="handlePan(0,-1)"/>
  <use id="arrowright" xlink:href="#arrowRight" x="0" y="0" onmousedown="handlePan(1,0)"/>
  <use id="arrowdown" xlink:href="#arrowDown" x="0" y="0" onmousedown="handlePan(0,1)"/>
  <use id="arrowleft" xlink:href="#arrowLeft" x="0" y="0" onmousedown="handlePan(-1,0)"/>
</g>
<svg viewBox="0 0 15 15" width="100%" height="30px" preserveAspectRatio="xMaxYMin meet">
 <g id="arrow_out" transform="scale(0.3 0.3)">
  <a xlink:href="Collision_8cpp__incl_org.svg" target="_base">
   <rect id="button" ry="5" rx="5" y="6" x="6" height="38" width="38"
        fill="#f2f5e9" fill-opacity="0.5" stroke="#606060" stroke-width="1.0"/>
   <path id="arrow"
     d="M 11.500037,31.436501 C 11.940474,20.09759 22.043105,11.32322 32.158766,21.979434 L 37.068811,17.246167 C 37.068811,17.246167 37.088388,32 37.088388,32 L 22.160133,31.978069 C 22.160133,31.978069 26.997745,27.140456 26.997745,27.140456 C 18.528582,18.264221 13.291696,25.230495 11.500037,31.436501 z"
     style="fill:#404040;"/>
  </a>
 </g>
</svg>

<style type='text/css'>
<![CDATA[
[data-mouse-over-selected='false'] { opacity: 0.7; }
[data-mouse-over-selected='true']  { opacity: 1.0; }
]]>
</style>
<script type="application/ecmascript"><![CDATA[
document.addEventListener('DOMContentLoaded', (event) => {
  highlightEdges();
  highlightAdjacentNodes();
});
]]></script>
</svg>
