<?xml version="1.0" encoding="UTF-8" standalone="no"?>
<!DOCTYPE svg PUBLIC "-//W3C//DTD SVG 1.1//EN"
 "http://www.w3.org/Graphics/SVG/1.1/DTD/svg11.dtd">
<!-- Generated by graphviz version 2.43.0 (0)
 -->
<!-- Title: InvertTriangleWinding Pages: 1 -->
<svg width="593pt" height="64pt"
 viewBox="0.00 0.00 593.00 64.00" xmlns="http://www.w3.org/2000/svg" xmlns:xlink="http://www.w3.org/1999/xlink">
<g id="graph0" class="graph" transform="scale(1 1) rotate(0) translate(4 60)">
<title>InvertTriangleWinding</title>
<!-- Node1 -->
<g id="Node000001" class="node">
<title>Node1</title>
<g id="a_Node000001"><a xlink:title=" ">
<polygon fill="#999999" stroke="#666666" points="123,-37 0,-37 0,-18 123,-18 123,-37"/>
<text text-anchor="middle" x="61.5" y="-25" font-family="Helvetica,sans-Serif" font-size="10.00">InvertTriangleWinding</text>
</a>
</g>
</g>
<!-- Node2 -->
<g id="Node000002" class="node">
<title>Node2</title>
<g id="a_Node000002"><a xlink:href="Course_8cpp.html#ad29b2b4706dd79c5d6239851b61530d4" target="_top" xlink:title=" ">
<polygon fill="white" stroke="#666666" points="320,-37 159,-37 159,-18 320,-18 320,-37"/>
<text text-anchor="middle" x="239.5" y="-25" font-family="Helvetica,sans-Serif" font-size="10.00">InvertTriangleWindingInternal</text>
</a>
</g>
</g>
<!-- Node1&#45;&gt;Node2 -->
<g id="edge1_Node000001_Node000002" class="edge">
<title>Node1&#45;&gt;Node2</title>
<g id="a_edge1_Node000001_Node000002"><a xlink:title=" ">
<path fill="none" stroke="#63b8ff" d="M123.07,-27.5C131.36,-27.5 140.01,-27.5 148.69,-27.5"/>
<polygon fill="#63b8ff" stroke="#63b8ff" points="148.86,-31 158.86,-27.5 148.86,-24 148.86,-31"/>
</a>
</g>
</g>
<!-- Node2&#45;&gt;Node2 -->
<g id="edge4_Node000002_Node000002" class="edge">
<title>Node2&#45;&gt;Node2</title>
<g id="a_edge4_Node000002_Node000002"><a xlink:title=" ">
<path fill="none" stroke="#63b8ff" d="M212.07,-37.08C198.72,-45.73 207.86,-55 239.5,-55 260.76,-55 271.86,-50.82 272.81,-45.45"/>
<polygon fill="#63b8ff" stroke="#63b8ff" points="275.55,-43.26 266.93,-37.08 269.82,-47.28 275.55,-43.26"/>
</a>
</g>
</g>
<!-- Node3 -->
<g id="Node000003" class="node">
<title>Node3</title>
<g id="a_Node000003"><a xlink:href="Engine_8cpp.html#a223c8bc63f228dc11177515e38eff2db" target="_top" xlink:title=" ">
<polygon fill="white" stroke="#666666" points="505,-56 356,-56 356,-37 505,-37 505,-56"/>
<text text-anchor="middle" x="430.5" y="-44" font-family="Helvetica,sans-Serif" font-size="10.00">GameEngine_OTRSigCheck</text>
</a>
</g>
</g>
<!-- Node2&#45;&gt;Node3 -->
<g id="edge2_Node000002_Node000003" class="edge">
<title>Node2&#45;&gt;Node3</title>
<g id="a_edge2_Node000002_Node000003"><a xlink:title=" ">
<path fill="none" stroke="#63b8ff" d="M320.11,-35.5C328.5,-36.35 337.05,-37.21 345.49,-38.05"/>
<polygon fill="#63b8ff" stroke="#63b8ff" points="345.41,-41.56 355.71,-39.08 346.11,-34.6 345.41,-41.56"/>
</a>
</g>
</g>
<!-- Node5 -->
<g id="Node000005" class="node">
<title>Node5</title>
<g id="a_Node000005"><a xlink:href="Course_8cpp.html#a5bae290668f6b484d13626d67e16cc3f" target="_top" xlink:title=" ">
<polygon fill="white" stroke="#666666" points="490.5,-19 370.5,-19 370.5,0 490.5,0 490.5,-19"/>
<text text-anchor="middle" x="430.5" y="-7" font-family="Helvetica,sans-Serif" font-size="10.00">SwapTriangleVertices</text>
</a>
</g>
</g>
<!-- Node2&#45;&gt;Node5 -->
<g id="edge5_Node000002_Node000005" class="edge">
<title>Node2&#45;&gt;Node5</title>
<g id="a_edge5_Node000002_Node000005"><a xlink:title=" ">
<path fill="none" stroke="#63b8ff" d="M320.11,-19.92C333.4,-18.65 347.1,-17.35 360.11,-16.11"/>
<polygon fill="#63b8ff" stroke="#63b8ff" points="360.75,-19.56 370.38,-15.13 360.09,-12.59 360.75,-19.56"/>
</a>
</g>
</g>
<!-- Node4 -->
<g id="Node000004" class="node">
<title>Node4</title>
<g id="a_Node000004"><a xlink:href="string_8c.html#a008e171a518fe0e0352f31b245e03875" target="_top" xlink:title=" ">
<polygon fill="white" stroke="#666666" points="585,-56 541,-56 541,-37 585,-37 585,-56"/>
<text text-anchor="middle" x="563" y="-44" font-family="Helvetica,sans-Serif" font-size="10.00">strlen</text>
</a>
</g>
</g>
<!-- Node3&#45;&gt;Node4 -->
<g id="edge3_Node000003_Node000004" class="edge">
<title>Node3&#45;&gt;Node4</title>
<g id="a_edge3_Node000003_Node000004"><a xlink:title=" ">
<path fill="none" stroke="#63b8ff" d="M505.14,-46.5C514.12,-46.5 522.89,-46.5 530.75,-46.5"/>
<polygon fill="#63b8ff" stroke="#63b8ff" points="530.83,-50 540.83,-46.5 530.83,-43 530.83,-50"/>
</a>
</g>
</g>
</g>
</svg>
