<?xml version="1.0" encoding="UTF-8" standalone="no"?>
<!DOCTYPE svg PUBLIC "-//W3C//DTD SVG 1.1//EN"
 "http://www.w3.org/Graphics/SVG/1.1/DTD/svg11.dtd">
<!-- Generated by graphviz version 2.43.0 (0)
 -->
<!-- Title: src/port/ui/DefaultProperties.cpp Pages: 1 -->
<svg width="1205pt" height="423pt"
 viewBox="0.00 0.00 1205.04 423.00" xmlns="http://www.w3.org/2000/svg" xmlns:xlink="http://www.w3.org/1999/xlink">
<g id="graph0" class="graph" transform="scale(1 1) rotate(0) translate(4 419)">
<title>src/port/ui/DefaultProperties.cpp</title>
<!-- Node1 -->
<g id="Node000001" class="node">
<title>Node1</title>
<g id="a_Node000001"><a xlink:title=" ">
<polygon fill="#999999" stroke="#666666" points="1075.04,-415 901.04,-415 901.04,-396 1075.04,-396 1075.04,-415"/>
<text text-anchor="middle" x="988.04" y="-403" font-family="Helvetica,sans-Serif" font-size="10.00">src/port/ui/DefaultProperties.cpp</text>
</a>
</g>
</g>
<!-- Node2 -->
<g id="Node000002" class="node">
<title>Node2</title>
<g id="a_Node000002"><a xlink:title=" ">
<polygon fill="#e0e0e0" stroke="#999999" points="972.54,-360 921.54,-360 921.54,-341 972.54,-341 972.54,-360"/>
<text text-anchor="middle" x="947.04" y="-348" font-family="Helvetica,sans-Serif" font-size="10.00">variant</text>
</a>
</g>
</g>
<!-- Node1&#45;&gt;Node2 -->
<g id="edge1_Node000001_Node000002" class="edge">
<title>Node1&#45;&gt;Node2</title>
<g id="a_edge1_Node000001_Node000002"><a xlink:title=" ">
<path fill="none" stroke="#63b8ff" d="M981.27,-395.75C975.48,-388.26 966.98,-377.28 959.9,-368.13"/>
<polygon fill="#63b8ff" stroke="#63b8ff" points="962.57,-365.86 953.69,-360.09 957.04,-370.14 962.57,-365.86"/>
</a>
</g>
</g>
<!-- Node3 -->
<g id="Node000003" class="node">
<title>Node3</title>
<g id="a_Node000003"><a xlink:href="Game_8h.html" target="_top" xlink:title=" ">
<polygon fill="white" stroke="#666666" points="1067.54,-360 990.54,-360 990.54,-341 1067.54,-341 1067.54,-360"/>
<text text-anchor="middle" x="1029.04" y="-348" font-family="Helvetica,sans-Serif" font-size="10.00">port/Game.h</text>
</a>
</g>
</g>
<!-- Node1&#45;&gt;Node3 -->
<g id="edge2_Node000001_Node000003" class="edge">
<title>Node1&#45;&gt;Node3</title>
<g id="a_edge2_Node000001_Node000003"><a xlink:title=" ">
<path fill="none" stroke="#63b8ff" d="M994.81,-395.75C1000.6,-388.26 1009.1,-377.28 1016.18,-368.13"/>
<polygon fill="#63b8ff" stroke="#63b8ff" points="1019.05,-370.14 1022.4,-360.09 1013.51,-365.86 1019.05,-370.14"/>
</a>
</g>
</g>
<!-- Node4 -->
<g id="Node000004" class="node">
<title>Node4</title>
<g id="a_Node000004"><a xlink:title=" ">
<polygon fill="#e0e0e0" stroke="#999999" points="820.04,-19 740.04,-19 740.04,0 820.04,0 820.04,-19"/>
<text text-anchor="middle" x="780.04" y="-7" font-family="Helvetica,sans-Serif" font-size="10.00">libultraship.h</text>
</a>
</g>
</g>
<!-- Node3&#45;&gt;Node4 -->
<g id="edge3_Node000003_Node000004" class="edge">
<title>Node3&#45;&gt;Node4</title>
<g id="a_edge3_Node000003_Node000004"><a xlink:title=" ">
<path fill="none" stroke="#63b8ff" d="M990.31,-342.37C987.18,-341.88 984.06,-341.41 981.04,-341 817.79,-318.62 775.95,-321.89 612.04,-305 481.97,-291.6 27.04,-372.26 27.04,-241.5 27.04,-241.5 27.04,-241.5 27.04,-124 27.04,-92.1 -91.99,-118.61 175.04,-55 412.75,1.62 483.29,-46.89 730,-18.97"/>
<polygon fill="#63b8ff" stroke="#63b8ff" points="730.45,-22.44 739.98,-17.81 729.64,-15.49 730.45,-22.44"/>
</a>
</g>
</g>
<!-- Node5 -->
<g id="Node000005" class="node">
<title>Node5</title>
<g id="a_Node000005"><a xlink:href="Track_8h.html" target="_top" xlink:title=" ">
<polygon fill="white" stroke="#666666" points="741.04,-305 621.04,-305 621.04,-286 741.04,-286 741.04,-305"/>
<text text-anchor="middle" x="681.04" y="-293" font-family="Helvetica,sans-Serif" font-size="10.00">engine/tracks/Track.h</text>
</a>
</g>
</g>
<!-- Node3&#45;&gt;Node5 -->
<g id="edge4_Node000003_Node000005" class="edge">
<title>Node3&#45;&gt;Node5</title>
<g id="a_edge4_Node000003_Node000005"><a xlink:title=" ">
<path fill="none" stroke="#63b8ff" d="M990.28,-342.54C987.16,-342.01 984.05,-341.49 981.04,-341 902.56,-328.23 812.28,-315.04 751.43,-306.37"/>
<polygon fill="#63b8ff" stroke="#63b8ff" points="751.56,-302.86 741.17,-304.91 750.58,-309.79 751.56,-302.86"/>
</a>
</g>
</g>
<!-- Node9 -->
<g id="Node000009" class="node">
<title>Node9</title>
<g id="a_Node000009"><a xlink:href="camera_8h.html" target="_top" xlink:title=" ">
<polygon fill="white" stroke="#666666" points="941.04,-134.5 879.04,-134.5 879.04,-115.5 941.04,-115.5 941.04,-134.5"/>
<text text-anchor="middle" x="910.04" y="-122.5" font-family="Helvetica,sans-Serif" font-size="10.00">camera.h</text>
</a>
</g>
</g>
<!-- Node3&#45;&gt;Node9 -->
<g id="edge61_Node000003_Node000009" class="edge">
<title>Node3&#45;&gt;Node9</title>
<g id="a_edge61_Node000003_Node000009"><a xlink:title=" ">
<path fill="none" stroke="#63b8ff" d="M1028.84,-340.96C1028.05,-320.75 1024.15,-268.85 1005.04,-231 986.26,-193.81 950.7,-159.83 928.82,-141.12"/>
<polygon fill="#63b8ff" stroke="#63b8ff" points="930.81,-138.23 920.9,-134.51 926.33,-143.6 930.81,-138.23"/>
</a>
</g>
</g>
<!-- Node25 -->
<g id="Node000025" class="node">
<title>Node25</title>
<g id="a_Node000025"><a xlink:href="code__800029B0_8h.html" target="_top" xlink:title=" ">
<polygon fill="white" stroke="#666666" points="1107.54,-195 1004.54,-195 1004.54,-176 1107.54,-176 1107.54,-195"/>
<text text-anchor="middle" x="1056.04" y="-183" font-family="Helvetica,sans-Serif" font-size="10.00">code_800029B0.h</text>
</a>
</g>
</g>
<!-- Node3&#45;&gt;Node25 -->
<g id="edge63_Node000003_Node000025" class="edge">
<title>Node3&#45;&gt;Node25</title>
<g id="a_edge63_Node000003_Node000025"><a xlink:title=" ">
<path fill="none" stroke="#63b8ff" d="M1032.35,-340.77C1035.57,-331.89 1040.38,-317.68 1043.04,-305 1050.35,-270.19 1053.71,-228.71 1055.12,-205.2"/>
<polygon fill="#63b8ff" stroke="#63b8ff" points="1058.62,-205.39 1055.67,-195.22 1051.63,-205.01 1058.62,-205.39"/>
</a>
</g>
</g>
<!-- Node26 -->
<g id="Node000026" class="node">
<title>Node26</title>
<g id="a_Node000026"><a xlink:href="macros_8h.html" target="_top" xlink:title=" ">
<polygon fill="white" stroke="#666666" points="1197.04,-74 1135.04,-74 1135.04,-55 1197.04,-55 1197.04,-74"/>
<text text-anchor="middle" x="1166.04" y="-62" font-family="Helvetica,sans-Serif" font-size="10.00">macros.h</text>
</a>
</g>
</g>
<!-- Node3&#45;&gt;Node26 -->
<g id="edge60_Node000003_Node000026" class="edge">
<title>Node3&#45;&gt;Node26</title>
<g id="a_edge60_Node000003_Node000026"><a xlink:title=" ">
<path fill="none" stroke="#63b8ff" d="M1066.8,-341C1112.97,-328.11 1185.04,-298.82 1185.04,-241.5 1185.04,-241.5 1185.04,-241.5 1185.04,-184.5 1185.04,-148.54 1176.48,-107.23 1170.85,-83.96"/>
<polygon fill="#63b8ff" stroke="#63b8ff" points="1174.2,-82.93 1168.37,-74.09 1167.41,-84.64 1174.2,-82.93"/>
</a>
</g>
</g>
<!-- Node28 -->
<g id="Node000028" class="node">
<title>Node28</title>
<g id="a_Node000028"><a xlink:href="actor__types_8h.html" target="_top" xlink:title=" ">
<polygon fill="white" stroke="#666666" points="1118.54,-134.5 1035.54,-134.5 1035.54,-115.5 1118.54,-115.5 1118.54,-134.5"/>
<text text-anchor="middle" x="1077.04" y="-122.5" font-family="Helvetica,sans-Serif" font-size="10.00">actor_types.h</text>
</a>
</g>
</g>
<!-- Node3&#45;&gt;Node28 -->
<g id="edge62_Node000003_Node000028" class="edge">
<title>Node3&#45;&gt;Node28</title>
<g id="a_edge62_Node000003_Node000028"><a xlink:title=" ">
<path fill="none" stroke="#63b8ff" d="M1036.25,-340.85C1054.3,-318.5 1101.1,-256.31 1116.04,-195 1118.04,-186.8 1118.79,-183.99 1116.04,-176 1111.66,-163.25 1102.54,-151.25 1094.22,-142.21"/>
<polygon fill="#63b8ff" stroke="#63b8ff" points="1096.46,-139.49 1086.96,-134.79 1091.46,-144.39 1096.46,-139.49"/>
</a>
</g>
</g>
<!-- Node30 -->
<g id="Node000030" class="node">
<title>Node30</title>
<g id="a_Node000030"><a xlink:href="HM__Intro_8h.html" target="_top" xlink:title=" ">
<polygon fill="white" stroke="#666666" points="823.04,-134.5 717.04,-134.5 717.04,-115.5 823.04,-115.5 823.04,-134.5"/>
<text text-anchor="middle" x="770.04" y="-122.5" font-family="Helvetica,sans-Serif" font-size="10.00">engine/HM_Intro.h</text>
</a>
</g>
</g>
<!-- Node3&#45;&gt;Node30 -->
<g id="edge55_Node000003_Node000030" class="edge">
<title>Node3&#45;&gt;Node30</title>
<g id="a_edge55_Node000003_Node000030"><a xlink:title=" ">
<path fill="none" stroke="#63b8ff" d="M1018.89,-340.74C979.72,-306.94 838.15,-184.77 787.89,-141.4"/>
<polygon fill="#63b8ff" stroke="#63b8ff" points="789.98,-138.58 780.12,-134.7 785.41,-143.88 789.98,-138.58"/>
</a>
</g>
</g>
<!-- Node6 -->
<g id="Node000006" class="node">
<title>Node6</title>
<g id="a_Node000006"><a xlink:title=" ">
<polygon fill="#e0e0e0" stroke="#999999" points="691.04,-250 553.04,-250 553.04,-231 691.04,-231 691.04,-250"/>
<text text-anchor="middle" x="622.04" y="-238" font-family="Helvetica,sans-Serif" font-size="10.00">libultraship/libultraship.h</text>
</a>
</g>
</g>
<!-- Node5&#45;&gt;Node6 -->
<g id="edge5_Node000005_Node000006" class="edge">
<title>Node5&#45;&gt;Node6</title>
<g id="a_edge5_Node000005_Node000006"><a xlink:title=" ">
<path fill="none" stroke="#63b8ff" d="M671.56,-285.98C662.84,-278.15 649.7,-266.34 639.14,-256.86"/>
<polygon fill="#63b8ff" stroke="#63b8ff" points="641.47,-254.25 631.69,-250.17 636.79,-259.46 641.47,-254.25"/>
</a>
</g>
</g>
<!-- Node7 -->
<g id="Node000007" class="node">
<title>Node7</title>
<g id="a_Node000007"><a xlink:href="CoreMath_8h.html" target="_top" xlink:title=" ">
<polygon fill="white" stroke="#666666" points="877.54,-74 804.54,-74 804.54,-55 877.54,-55 877.54,-74"/>
<text text-anchor="middle" x="841.04" y="-62" font-family="Helvetica,sans-Serif" font-size="10.00">CoreMath.h</text>
</a>
</g>
</g>
<!-- Node5&#45;&gt;Node7 -->
<g id="edge6_Node000005_Node000007" class="edge">
<title>Node5&#45;&gt;Node7</title>
<g id="a_edge6_Node000005_Node000007"><a xlink:title=" ">
<path fill="none" stroke="#63b8ff" d="M741.27,-287.3C786.72,-280.47 843.62,-268.49 858.04,-250 877.88,-224.56 856.19,-125.69 845.87,-84.1"/>
<polygon fill="#63b8ff" stroke="#63b8ff" points="849.21,-83.04 843.36,-74.21 842.43,-84.76 849.21,-83.04"/>
</a>
</g>
</g>
<!-- Node8 -->
<g id="Node000008" class="node">
<title>Node8</title>
<g id="a_Node000008"><a xlink:href="defines_8h.html" target="_top" xlink:title=" ">
<polygon fill="white" stroke="#666666" points="770.54,-250 709.54,-250 709.54,-231 770.54,-231 770.54,-250"/>
<text text-anchor="middle" x="740.04" y="-238" font-family="Helvetica,sans-Serif" font-size="10.00">defines.h</text>
</a>
</g>
</g>
<!-- Node5&#45;&gt;Node8 -->
<g id="edge8_Node000005_Node000008" class="edge">
<title>Node5&#45;&gt;Node8</title>
<g id="a_edge8_Node000005_Node000008"><a xlink:title=" ">
<path fill="none" stroke="#63b8ff" d="M690.52,-285.98C699.24,-278.15 712.38,-266.34 722.94,-256.86"/>
<polygon fill="#63b8ff" stroke="#63b8ff" points="725.29,-259.46 730.39,-250.17 720.61,-254.25 725.29,-259.46"/>
</a>
</g>
</g>
<!-- Node5&#45;&gt;Node9 -->
<g id="edge9_Node000005_Node000009" class="edge">
<title>Node5&#45;&gt;Node9</title>
<g id="a_edge9_Node000005_Node000009"><a xlink:title=" ">
<path fill="none" stroke="#63b8ff" d="M741.17,-289.31C795.81,-283.3 870.85,-271.37 891.04,-250 918,-221.46 916.42,-171.64 913.12,-144.65"/>
<polygon fill="#63b8ff" stroke="#63b8ff" points="916.56,-144.01 911.68,-134.61 909.63,-145.01 916.56,-144.01"/>
</a>
</g>
</g>
<!-- Node10 -->
<g id="Node000010" class="node">
<title>Node10</title>
<g id="a_Node000010"><a xlink:href="common__structs_8h.html" target="_top" xlink:title=" ">
<polygon fill="white" stroke="#666666" points="492.54,-74 385.54,-74 385.54,-55 492.54,-55 492.54,-74"/>
<text text-anchor="middle" x="439.04" y="-62" font-family="Helvetica,sans-Serif" font-size="10.00">common_structs.h</text>
</a>
</g>
</g>
<!-- Node5&#45;&gt;Node10 -->
<g id="edge42_Node000005_Node000010" class="edge">
<title>Node5&#45;&gt;Node10</title>
<g id="a_edge42_Node000005_Node000010"><a xlink:title=" ">
<path fill="none" stroke="#63b8ff" d="M620.89,-294.58C534.44,-293.4 381.03,-286.11 341.04,-250 316.26,-227.62 318.03,-207.86 328.04,-176 338.76,-141.89 348.65,-135.18 374.04,-110 386.07,-98.07 401.69,-87.26 414.6,-79.28"/>
<polygon fill="#63b8ff" stroke="#63b8ff" points="416.64,-82.14 423.43,-74 413.05,-76.13 416.64,-82.14"/>
</a>
</g>
</g>
<!-- Node11 -->
<g id="Node000011" class="node">
<title>Node11</title>
<g id="a_Node000011"><a xlink:href="src_2data_2some__data_8h.html" target="_top" xlink:title=" ">
<polygon fill="white" stroke="#666666" points="264.04,-250 160.04,-250 160.04,-231 264.04,-231 264.04,-250"/>
<text text-anchor="middle" x="212.04" y="-238" font-family="Helvetica,sans-Serif" font-size="10.00">data/some_data.h</text>
</a>
</g>
</g>
<!-- Node5&#45;&gt;Node11 -->
<g id="edge13_Node000005_Node000011" class="edge">
<title>Node5&#45;&gt;Node11</title>
<g id="a_edge13_Node000005_Node000011"><a xlink:title=" ">
<path fill="none" stroke="#63b8ff" d="M620.73,-288.13C542.07,-279.75 400.19,-264.39 279.04,-250 277.55,-249.82 276.04,-249.64 274.52,-249.46"/>
<polygon fill="#63b8ff" stroke="#63b8ff" points="274.69,-245.95 264.33,-248.22 273.84,-252.9 274.69,-245.95"/>
</a>
</g>
</g>
<!-- Node17 -->
<g id="Node000017" class="node">
<title>Node17</title>
<g id="a_Node000017"><a xlink:href="bomb__kart_8h.html" target="_top" xlink:title=" ">
<polygon fill="white" stroke="#666666" points="584.54,-195 507.54,-195 507.54,-176 584.54,-176 584.54,-195"/>
<text text-anchor="middle" x="546.04" y="-183" font-family="Helvetica,sans-Serif" font-size="10.00">bomb_kart.h</text>
</a>
</g>
</g>
<!-- Node5&#45;&gt;Node17 -->
<g id="edge23_Node000005_Node000017" class="edge">
<title>Node5&#45;&gt;Node17</title>
<g id="a_edge23_Node000005_Node000017"><a xlink:title=" ">
<path fill="none" stroke="#63b8ff" d="M620.71,-290.66C592.63,-285.48 561.61,-274.18 544.04,-250 534.73,-237.19 536.5,-218.77 539.84,-205.06"/>
<polygon fill="#63b8ff" stroke="#63b8ff" points="543.25,-205.86 542.68,-195.28 536.53,-203.91 543.25,-205.86"/>
</a>
</g>
</g>
<!-- Node21 -->
<g id="Node000021" class="node">
<title>Node21</title>
<g id="a_Node000021"><a xlink:href="path__spawn__metadata_8h.html" target="_top" xlink:title=" ">
<polygon fill="white" stroke="#666666" points="496.54,-250 359.54,-250 359.54,-231 496.54,-231 496.54,-250"/>
<text text-anchor="middle" x="428.04" y="-238" font-family="Helvetica,sans-Serif" font-size="10.00">path_spawn_metadata.h</text>
</a>
</g>
</g>
<!-- Node5&#45;&gt;Node21 -->
<g id="edge30_Node000005_Node000021" class="edge">
<title>Node5&#45;&gt;Node21</title>
<g id="a_edge30_Node000005_Node000021"><a xlink:title=" ">
<path fill="none" stroke="#63b8ff" d="M640.39,-285.98C596.54,-276.8 526.62,-262.15 479.09,-252.19"/>
<polygon fill="#63b8ff" stroke="#63b8ff" points="479.51,-248.71 469.01,-250.08 478.08,-255.56 479.51,-248.71"/>
</a>
</g>
</g>
<!-- Node22 -->
<g id="Node000022" class="node">
<title>Node22</title>
<g id="a_Node000022"><a xlink:href="waypoints_8h.html" target="_top" xlink:title=" ">
<polygon fill="white" stroke="#666666" points="413.04,-195 337.04,-195 337.04,-176 413.04,-176 413.04,-195"/>
<text text-anchor="middle" x="375.04" y="-183" font-family="Helvetica,sans-Serif" font-size="10.00">waypoints.h</text>
</a>
</g>
</g>
<!-- Node5&#45;&gt;Node22 -->
<g id="edge40_Node000005_Node000022" class="edge">
<title>Node5&#45;&gt;Node22</title>
<g id="a_edge40_Node000005_Node000022"><a xlink:title=" ">
<path fill="none" stroke="#63b8ff" d="M621,-295.45C535.33,-295.37 384.54,-289.44 350.04,-250 338.29,-236.56 349.04,-216.93 359.87,-203.07"/>
<polygon fill="#63b8ff" stroke="#63b8ff" points="362.66,-205.19 366.42,-195.28 357.31,-200.68 362.66,-205.19"/>
</a>
</g>
</g>
<!-- Node24 -->
<g id="Node000024" class="node">
<title>Node24</title>
<g id="a_Node000024"><a xlink:href="sounds_8h.html" target="_top" xlink:title=" ">
<polygon fill="white" stroke="#666666" points="849.04,-250 789.04,-250 789.04,-231 849.04,-231 849.04,-250"/>
<text text-anchor="middle" x="819.04" y="-238" font-family="Helvetica,sans-Serif" font-size="10.00">sounds.h</text>
</a>
</g>
</g>
<!-- Node5&#45;&gt;Node24 -->
<g id="edge41_Node000005_Node000024" class="edge">
<title>Node5&#45;&gt;Node24</title>
<g id="a_edge41_Node000005_Node000024"><a xlink:title=" ">
<path fill="none" stroke="#63b8ff" d="M703.21,-285.98C725.81,-277.3 761.1,-263.75 786.79,-253.88"/>
<polygon fill="#63b8ff" stroke="#63b8ff" points="788.39,-257.02 796.47,-250.17 785.88,-250.49 788.39,-257.02"/>
</a>
</g>
</g>
<!-- Node5&#45;&gt;Node25 -->
<g id="edge43_Node000005_Node000025" class="edge">
<title>Node5&#45;&gt;Node25</title>
<g id="a_edge43_Node000005_Node000025"><a xlink:title=" ">
<path fill="none" stroke="#63b8ff" d="M741.1,-288.6C792.08,-282.44 866.67,-270.71 929.04,-250 967.42,-237.26 1008.76,-214.77 1033.51,-200.26"/>
<polygon fill="#63b8ff" stroke="#63b8ff" points="1035.34,-203.25 1042.14,-195.13 1031.76,-197.23 1035.34,-203.25"/>
</a>
</g>
</g>
<!-- Node7&#45;&gt;Node4 -->
<g id="edge7_Node000007_Node000004" class="edge">
<title>Node7&#45;&gt;Node4</title>
<g id="a_edge7_Node000007_Node000004"><a xlink:title=" ">
<path fill="none" stroke="#63b8ff" d="M831.24,-54.98C822.22,-47.15 808.64,-35.34 797.72,-25.86"/>
<polygon fill="#63b8ff" stroke="#63b8ff" points="799.86,-23.09 790.02,-19.17 795.27,-28.37 799.86,-23.09"/>
</a>
</g>
</g>
<!-- Node9&#45;&gt;Node4 -->
<g id="edge10_Node000009_Node000004" class="edge">
<title>Node9&#45;&gt;Node4</title>
<g id="a_edge10_Node000009_Node000004"><a xlink:title=" ">
<path fill="none" stroke="#63b8ff" d="M909.26,-115.2C907.54,-100.83 902.19,-72.2 886.04,-55 871.14,-39.13 849.69,-28.71 829.98,-21.97"/>
<polygon fill="#63b8ff" stroke="#63b8ff" points="830.77,-18.55 820.18,-18.86 828.66,-25.22 830.77,-18.55"/>
</a>
</g>
</g>
<!-- Node9&#45;&gt;Node10 -->
<g id="edge11_Node000009_Node000010" class="edge">
<title>Node9&#45;&gt;Node10</title>
<g id="a_edge11_Node000009_Node000010"><a xlink:title=" ">
<path fill="none" stroke="#63b8ff" d="M878.99,-117.95C864.73,-115.29 847.56,-112.27 832.04,-110 716.3,-93.08 580.57,-78.97 502.71,-71.43"/>
<polygon fill="#63b8ff" stroke="#63b8ff" points="502.87,-67.93 492.58,-70.45 502.2,-74.89 502.87,-67.93"/>
</a>
</g>
</g>
<!-- Node10&#45;&gt;Node4 -->
<g id="edge12_Node000010_Node000004" class="edge">
<title>Node10&#45;&gt;Node4</title>
<g id="a_edge12_Node000010_Node000004"><a xlink:title=" ">
<path fill="none" stroke="#63b8ff" d="M492.64,-55.67C549.13,-47.34 640.97,-33.58 729.95,-19.15"/>
<polygon fill="#63b8ff" stroke="#63b8ff" points="730.63,-22.59 739.94,-17.53 729.51,-15.68 730.63,-22.59"/>
</a>
</g>
</g>
<!-- Node12 -->
<g id="Node000012" class="node">
<title>Node12</title>
<g id="a_Node000012"><a xlink:title=" ">
<polygon fill="#e0e0e0" stroke="#999999" points="635.04,-74 557.04,-74 557.04,-55 635.04,-55 635.04,-74"/>
<text text-anchor="middle" x="596.04" y="-62" font-family="Helvetica,sans-Serif" font-size="10.00">libultra/gbi.h</text>
</a>
</g>
</g>
<!-- Node11&#45;&gt;Node12 -->
<g id="edge14_Node000011_Node000012" class="edge">
<title>Node11&#45;&gt;Node12</title>
<g id="a_edge14_Node000011_Node000012"><a xlink:title=" ">
<path fill="none" stroke="#63b8ff" d="M224.22,-230.84C244.61,-216.79 287.46,-189.3 328.04,-176 385.56,-157.15 558.17,-185.54 598.04,-140 611.33,-124.83 607.69,-100.51 602.82,-83.82"/>
<polygon fill="#63b8ff" stroke="#63b8ff" points="606.07,-82.5 599.6,-74.11 599.43,-84.71 606.07,-82.5"/>
</a>
</g>
</g>
<!-- Node13 -->
<g id="Node000013" class="node">
<title>Node13</title>
<g id="a_Node000013"><a xlink:href="spline_8h.html" target="_top" xlink:title=" ">
<polygon fill="white" stroke="#666666" points="248.54,-134.5 193.54,-134.5 193.54,-115.5 248.54,-115.5 248.54,-134.5"/>
<text text-anchor="middle" x="221.04" y="-122.5" font-family="Helvetica,sans-Serif" font-size="10.00">spline.h</text>
</a>
</g>
</g>
<!-- Node11&#45;&gt;Node13 -->
<g id="edge15_Node000011_Node000013" class="edge">
<title>Node11&#45;&gt;Node13</title>
<g id="a_edge15_Node000011_Node000013"><a xlink:title=" ">
<path fill="none" stroke="#63b8ff" d="M200.22,-230.99C185.53,-219.28 163.37,-197.23 172.04,-176 177.77,-161.97 189.54,-149.75 200.11,-140.9"/>
<polygon fill="#63b8ff" stroke="#63b8ff" points="202.48,-143.48 208.19,-134.56 198.16,-137.98 202.48,-143.48"/>
</a>
</g>
</g>
<!-- Node14 -->
<g id="Node000014" class="node">
<title>Node14</title>
<g id="a_Node000014"><a xlink:href="other__textures_8h.html" target="_top" xlink:title=" ">
<polygon fill="white" stroke="#666666" points="175.04,-140 55.04,-140 55.04,-110 175.04,-110 175.04,-140"/>
<text text-anchor="start" x="63.04" y="-128" font-family="Helvetica,sans-Serif" font-size="10.00">assets/textures/other</text>
<text text-anchor="middle" x="115.04" y="-117" font-family="Helvetica,sans-Serif" font-size="10.00">_textures.h</text>
</a>
</g>
</g>
<!-- Node11&#45;&gt;Node14 -->
<g id="edge17_Node000011_Node000014" class="edge">
<title>Node11&#45;&gt;Node14</title>
<g id="a_edge17_Node000011_Node000014"><a xlink:title=" ">
<path fill="none" stroke="#63b8ff" d="M202.33,-230.67C192.93,-221.96 178.47,-208.07 167.04,-195 154.08,-180.18 140.74,-162.42 130.82,-148.63"/>
<polygon fill="#63b8ff" stroke="#63b8ff" points="133.48,-146.33 124.83,-140.21 127.78,-150.39 133.48,-146.33"/>
</a>
</g>
</g>
<!-- Node16 -->
<g id="Node000016" class="node">
<title>Node16</title>
<g id="a_Node000016"><a xlink:href="objects_8h.html" target="_top" xlink:title=" ">
<polygon fill="white" stroke="#666666" points="242.54,-195 181.54,-195 181.54,-176 242.54,-176 242.54,-195"/>
<text text-anchor="middle" x="212.04" y="-183" font-family="Helvetica,sans-Serif" font-size="10.00">objects.h</text>
</a>
</g>
</g>
<!-- Node11&#45;&gt;Node16 -->
<g id="edge20_Node000011_Node000016" class="edge">
<title>Node11&#45;&gt;Node16</title>
<g id="a_edge20_Node000011_Node000016"><a xlink:title=" ">
<path fill="none" stroke="#63b8ff" d="M212.04,-230.75C212.04,-223.8 212.04,-213.85 212.04,-205.13"/>
<polygon fill="#63b8ff" stroke="#63b8ff" points="215.54,-205.09 212.04,-195.09 208.54,-205.09 215.54,-205.09"/>
</a>
</g>
</g>
<!-- Node13&#45;&gt;Node10 -->
<g id="edge16_Node000013_Node000010" class="edge">
<title>Node13&#45;&gt;Node10</title>
<g id="a_edge16_Node000013_Node000010"><a xlink:title=" ">
<path fill="none" stroke="#63b8ff" d="M245.82,-115.4C251.46,-113.54 257.43,-111.64 263.04,-110 306.4,-97.31 356.39,-84.88 391.98,-76.4"/>
<polygon fill="#63b8ff" stroke="#63b8ff" points="393.16,-79.71 402.08,-74 391.55,-72.9 393.16,-79.71"/>
</a>
</g>
</g>
<!-- Node14&#45;&gt;Node4 -->
<g id="edge18_Node000014_Node000004" class="edge">
<title>Node14&#45;&gt;Node4</title>
<g id="a_edge18_Node000014_Node000004"><a xlink:title=" ">
<path fill="none" stroke="#63b8ff" d="M129.68,-109.88C147.82,-93.39 180.45,-66.85 214.04,-55 319.79,-17.7 601.33,-32.05 729.88,-18.92"/>
<polygon fill="#63b8ff" stroke="#63b8ff" points="730.43,-22.38 739.98,-17.79 729.65,-15.42 730.43,-22.38"/>
</a>
</g>
</g>
<!-- Node15 -->
<g id="Node000015" class="node">
<title>Node15</title>
<g id="a_Node000015"><a xlink:href="align__asset__macro_8h.html" target="_top" xlink:title=" ">
<polygon fill="white" stroke="#666666" points="340.54,-74 223.54,-74 223.54,-55 340.54,-55 340.54,-74"/>
<text text-anchor="middle" x="282.04" y="-62" font-family="Helvetica,sans-Serif" font-size="10.00">align_asset_macro.h</text>
</a>
</g>
</g>
<!-- Node14&#45;&gt;Node15 -->
<g id="edge19_Node000014_Node000015" class="edge">
<title>Node14&#45;&gt;Node15</title>
<g id="a_edge19_Node000014_Node000015"><a xlink:title=" ">
<path fill="none" stroke="#63b8ff" d="M155.04,-109.99C183.28,-100.1 220.72,-86.98 247.62,-77.56"/>
<polygon fill="#63b8ff" stroke="#63b8ff" points="249.1,-80.75 257.38,-74.14 246.78,-74.14 249.1,-80.75"/>
</a>
</g>
</g>
<!-- Node16&#45;&gt;Node10 -->
<g id="edge22_Node000016_Node000010" class="edge">
<title>Node16&#45;&gt;Node10</title>
<g id="a_edge22_Node000016_Node000010"><a xlink:title=" ">
<path fill="none" stroke="#63b8ff" d="M220.05,-175.89C234.73,-160.58 267.52,-128.5 301.04,-110 328.5,-94.84 361.91,-83.9 388.99,-76.66"/>
<polygon fill="#63b8ff" stroke="#63b8ff" points="390.22,-79.95 399.02,-74.06 388.47,-73.18 390.22,-79.95"/>
</a>
</g>
</g>
<!-- Node16&#45;&gt;Node13 -->
<g id="edge21_Node000016_Node000013" class="edge">
<title>Node16&#45;&gt;Node13</title>
<g id="a_edge21_Node000016_Node000013"><a xlink:title=" ">
<path fill="none" stroke="#63b8ff" d="M213.37,-175.87C214.63,-167.66 216.57,-155.04 218.19,-144.55"/>
<polygon fill="#63b8ff" stroke="#63b8ff" points="221.65,-145.08 219.71,-134.67 214.73,-144.02 221.65,-145.08"/>
</a>
</g>
</g>
<!-- Node17&#45;&gt;Node10 -->
<g id="edge24_Node000017_Node000010" class="edge">
<title>Node17&#45;&gt;Node10</title>
<g id="a_edge24_Node000017_Node000010"><a xlink:title=" ">
<path fill="none" stroke="#63b8ff" d="M514.49,-175.85C495.49,-169.08 472.29,-157.76 458.04,-140 445.28,-124.1 440.98,-100.65 439.59,-84.32"/>
<polygon fill="#63b8ff" stroke="#63b8ff" points="443.09,-84.12 439.03,-74.33 436.1,-84.52 443.09,-84.12"/>
</a>
</g>
</g>
<!-- Node18 -->
<g id="Node000018" class="node">
<title>Node18</title>
<g id="a_Node000018"><a xlink:href="mk64_8h.html" target="_top" xlink:title=" ">
<polygon fill="white" stroke="#666666" points="698.54,-134.5 645.54,-134.5 645.54,-115.5 698.54,-115.5 698.54,-134.5"/>
<text text-anchor="middle" x="672.04" y="-122.5" font-family="Helvetica,sans-Serif" font-size="10.00">mk64.h</text>
</a>
</g>
</g>
<!-- Node17&#45;&gt;Node18 -->
<g id="edge25_Node000017_Node000018" class="edge">
<title>Node17&#45;&gt;Node18</title>
<g id="a_edge25_Node000017_Node000018"><a xlink:title=" ">
<path fill="none" stroke="#63b8ff" d="M564.36,-175.99C585.45,-166.2 620.3,-150.02 644.63,-138.73"/>
<polygon fill="#63b8ff" stroke="#63b8ff" points="646.1,-141.9 653.7,-134.52 643.15,-135.55 646.1,-141.9"/>
</a>
</g>
</g>
<!-- Node18&#45;&gt;Node4 -->
<g id="edge26_Node000018_Node000004" class="edge">
<title>Node18&#45;&gt;Node4</title>
<g id="a_edge26_Node000018_Node000004"><a xlink:title=" ">
<path fill="none" stroke="#63b8ff" d="M680.16,-115.47C698.14,-96.57 741.57,-50.93 764.79,-26.52"/>
<polygon fill="#63b8ff" stroke="#63b8ff" points="767.47,-28.79 771.83,-19.13 762.4,-23.96 767.47,-28.79"/>
</a>
</g>
</g>
<!-- Node18&#45;&gt;Node12 -->
<g id="edge29_Node000018_Node000012" class="edge">
<title>Node18&#45;&gt;Node12</title>
<g id="a_edge29_Node000018_Node000012"><a xlink:title=" ">
<path fill="none" stroke="#63b8ff" d="M660.83,-115.37C648.93,-106.21 629.9,-91.56 615.54,-80.51"/>
<polygon fill="#63b8ff" stroke="#63b8ff" points="617.36,-77.49 607.3,-74.17 613.09,-83.04 617.36,-77.49"/>
</a>
</g>
</g>
<!-- Node19 -->
<g id="Node000019" class="node">
<title>Node19</title>
<g id="a_Node000019"><a xlink:href="string_8h.html" target="_top" xlink:title=" ">
<polygon fill="white" stroke="#666666" points="706.54,-74 653.54,-74 653.54,-55 706.54,-55 706.54,-74"/>
<text text-anchor="middle" x="680.04" y="-62" font-family="Helvetica,sans-Serif" font-size="10.00">string.h</text>
</a>
</g>
</g>
<!-- Node18&#45;&gt;Node19 -->
<g id="edge27_Node000018_Node000019" class="edge">
<title>Node18&#45;&gt;Node19</title>
<g id="a_edge27_Node000018_Node000019"><a xlink:title=" ">
<path fill="none" stroke="#63b8ff" d="M673.22,-115.37C674.33,-107.25 676.03,-94.81 677.46,-84.39"/>
<polygon fill="#63b8ff" stroke="#63b8ff" points="680.97,-84.55 678.86,-74.17 674.03,-83.6 680.97,-84.55"/>
</a>
</g>
</g>
<!-- Node20 -->
<g id="Node000020" class="node">
<title>Node20</title>
<g id="a_Node000020"><a xlink:title=" ">
<polygon fill="#e0e0e0" stroke="#999999" points="722.04,-19 632.04,-19 632.04,0 722.04,0 722.04,-19"/>
<text text-anchor="middle" x="677.04" y="-7" font-family="Helvetica,sans-Serif" font-size="10.00">libultra/types.h</text>
</a>
</g>
</g>
<!-- Node19&#45;&gt;Node20 -->
<g id="edge28_Node000019_Node000020" class="edge">
<title>Node19&#45;&gt;Node20</title>
<g id="a_edge28_Node000019_Node000020"><a xlink:title=" ">
<path fill="none" stroke="#63b8ff" d="M679.55,-54.75C679.15,-47.8 678.59,-37.85 678.1,-29.13"/>
<polygon fill="#63b8ff" stroke="#63b8ff" points="681.59,-28.88 677.53,-19.09 674.6,-29.27 681.59,-28.88"/>
</a>
</g>
</g>
<!-- Node21&#45;&gt;Node10 -->
<g id="edge33_Node000021_Node000010" class="edge">
<title>Node21&#45;&gt;Node10</title>
<g id="a_edge33_Node000021_Node000010"><a xlink:title=" ">
<path fill="none" stroke="#63b8ff" d="M428.6,-230.63C430.32,-203.52 435.51,-121.32 437.86,-84.13"/>
<polygon fill="#63b8ff" stroke="#63b8ff" points="441.36,-84.34 438.49,-74.14 434.37,-83.9 441.36,-84.34"/>
</a>
</g>
</g>
<!-- Node21&#45;&gt;Node17 -->
<g id="edge39_Node000021_Node000017" class="edge">
<title>Node21&#45;&gt;Node17</title>
<g id="a_edge39_Node000021_Node000017"><a xlink:title=" ">
<path fill="none" stroke="#63b8ff" d="M447,-230.98C466.07,-222.42 495.7,-209.11 517.59,-199.28"/>
<polygon fill="#63b8ff" stroke="#63b8ff" points="519.05,-202.46 526.74,-195.17 516.18,-196.07 519.05,-202.46"/>
</a>
</g>
</g>
<!-- Node21&#45;&gt;Node22 -->
<g id="edge31_Node000021_Node000022" class="edge">
<title>Node21&#45;&gt;Node22</title>
<g id="a_edge31_Node000021_Node000022"><a xlink:title=" ">
<path fill="none" stroke="#63b8ff" d="M419.29,-230.75C411.57,-223.03 400.14,-211.6 390.82,-202.28"/>
<polygon fill="#63b8ff" stroke="#63b8ff" points="393.18,-199.69 383.63,-195.09 388.23,-204.64 393.18,-199.69"/>
</a>
</g>
</g>
<!-- Node23 -->
<g id="Node000023" class="node">
<title>Node23</title>
<g id="a_Node000023"><a xlink:href="other_2common__data_8h.html" target="_top" xlink:title=" ">
<polygon fill="white" stroke="#666666" points="589.04,-140 467.04,-140 467.04,-110 589.04,-110 589.04,-140"/>
<text text-anchor="start" x="475.04" y="-128" font-family="Helvetica,sans-Serif" font-size="10.00">assets/other/common</text>
<text text-anchor="middle" x="528.04" y="-117" font-family="Helvetica,sans-Serif" font-size="10.00">_data.h</text>
</a>
</g>
</g>
<!-- Node21&#45;&gt;Node23 -->
<g id="edge34_Node000021_Node000023" class="edge">
<title>Node21&#45;&gt;Node23</title>
<g id="a_edge34_Node000021_Node000023"><a xlink:title=" ">
<path fill="none" stroke="#63b8ff" d="M435.56,-230.97C450.97,-213.48 486.57,-173.07 508.83,-147.81"/>
<polygon fill="#63b8ff" stroke="#63b8ff" points="511.56,-150 515.55,-140.18 506.31,-145.37 511.56,-150"/>
</a>
</g>
</g>
<!-- Node22&#45;&gt;Node10 -->
<g id="edge32_Node000022_Node000010" class="edge">
<title>Node22&#45;&gt;Node10</title>
<g id="a_edge32_Node000022_Node000010"><a xlink:title=" ">
<path fill="none" stroke="#63b8ff" d="M374.57,-175.6C374.19,-160.95 375.12,-131.25 387.04,-110 393.86,-97.86 405.33,-87.51 415.76,-79.85"/>
<polygon fill="#63b8ff" stroke="#63b8ff" points="417.91,-82.63 424.16,-74.08 413.94,-76.86 417.91,-82.63"/>
</a>
</g>
</g>
<!-- Node23&#45;&gt;Node4 -->
<g id="edge36_Node000023_Node000004" class="edge">
<title>Node23&#45;&gt;Node4</title>
<g id="a_edge36_Node000023_Node000004"><a xlink:title=" ">
<path fill="none" stroke="#63b8ff" d="M528.03,-109.87C528.83,-94.12 532.65,-69.03 548.04,-55 551.42,-51.92 662.69,-31.53 729.88,-19.45"/>
<polygon fill="#63b8ff" stroke="#63b8ff" points="730.64,-22.87 739.86,-17.66 729.4,-15.98 730.64,-22.87"/>
</a>
</g>
</g>
<!-- Node23&#45;&gt;Node10 -->
<g id="edge37_Node000023_Node000010" class="edge">
<title>Node23&#45;&gt;Node10</title>
<g id="a_edge37_Node000023_Node000010"><a xlink:title=" ">
<path fill="none" stroke="#63b8ff" d="M506.5,-109.84C492.57,-100.68 474.51,-88.82 460.59,-79.66"/>
<polygon fill="#63b8ff" stroke="#63b8ff" points="462.4,-76.66 452.12,-74.09 458.55,-82.51 462.4,-76.66"/>
</a>
</g>
</g>
<!-- Node23&#45;&gt;Node12 -->
<g id="edge35_Node000023_Node000012" class="edge">
<title>Node23&#45;&gt;Node12</title>
<g id="a_edge35_Node000023_Node000012"><a xlink:title=" ">
<path fill="none" stroke="#63b8ff" d="M544.5,-109.84C554.68,-101.09 567.73,-89.85 578.16,-80.88"/>
<polygon fill="#63b8ff" stroke="#63b8ff" points="580.55,-83.44 585.85,-74.27 575.99,-78.13 580.55,-83.44"/>
</a>
</g>
</g>
<!-- Node23&#45;&gt;Node15 -->
<g id="edge38_Node000023_Node000015" class="edge">
<title>Node23&#45;&gt;Node15</title>
<g id="a_edge38_Node000023_Node000015"><a xlink:title=" ">
<path fill="none" stroke="#63b8ff" d="M469.12,-109.99C425.84,-99.7 367.87,-85.91 327.99,-76.43"/>
<polygon fill="#63b8ff" stroke="#63b8ff" points="328.55,-72.96 318.01,-74.05 326.93,-79.77 328.55,-72.96"/>
</a>
</g>
</g>
<!-- Node25&#45;&gt;Node4 -->
<g id="edge47_Node000025_Node000004" class="edge">
<title>Node25&#45;&gt;Node4</title>
<g id="a_edge47_Node000025_Node000004"><a xlink:title=" ">
<path fill="none" stroke="#63b8ff" d="M1048.68,-175.69C1036.32,-161.16 1010.27,-131.63 985.04,-110 952.56,-82.15 944.11,-74.52 906.04,-55 878.89,-41.08 846.37,-29.71 821.17,-21.95"/>
<polygon fill="#63b8ff" stroke="#63b8ff" points="822.14,-18.59 811.56,-19.06 820.12,-25.29 822.14,-18.59"/>
</a>
</g>
</g>
<!-- Node25&#45;&gt;Node7 -->
<g id="edge54_Node000025_Node000007" class="edge">
<title>Node25&#45;&gt;Node7</title>
<g id="a_edge54_Node000025_Node000007"><a xlink:title=" ">
<path fill="none" stroke="#63b8ff" d="M1043.81,-175.85C1016.45,-156.51 952.52,-111.36 950.04,-110 926.24,-97 897.83,-85.52 875.99,-77.48"/>
<polygon fill="#63b8ff" stroke="#63b8ff" points="877.04,-74.14 866.45,-74.03 874.67,-80.72 877.04,-74.14"/>
</a>
</g>
</g>
<!-- Node25&#45;&gt;Node9 -->
<g id="edge53_Node000025_Node000009" class="edge">
<title>Node25&#45;&gt;Node9</title>
<g id="a_edge53_Node000025_Node000009"><a xlink:title=" ">
<path fill="none" stroke="#63b8ff" d="M1034.81,-175.99C1010.05,-166.07 968.92,-149.59 940.69,-138.28"/>
<polygon fill="#63b8ff" stroke="#63b8ff" points="941.88,-134.99 931.3,-134.52 939.28,-141.49 941.88,-134.99"/>
</a>
</g>
</g>
<!-- Node25&#45;&gt;Node26 -->
<g id="edge44_Node000025_Node000026" class="edge">
<title>Node25&#45;&gt;Node26</title>
<g id="a_edge44_Node000025_Node000026"><a xlink:title=" ">
<path fill="none" stroke="#63b8ff" d="M1075.48,-175.86C1090.97,-168.21 1112.42,-155.8 1127.04,-140 1142.33,-123.47 1153.35,-99.82 1159.7,-83.63"/>
<polygon fill="#63b8ff" stroke="#63b8ff" points="1163,-84.81 1163.19,-74.21 1156.43,-82.37 1163,-84.81"/>
</a>
</g>
</g>
<!-- Node25&#45;&gt;Node28 -->
<g id="edge48_Node000025_Node000028" class="edge">
<title>Node25&#45;&gt;Node28</title>
<g id="a_edge48_Node000025_Node000028"><a xlink:title=" ">
<path fill="none" stroke="#63b8ff" d="M1059.14,-175.87C1062.12,-167.57 1066.71,-154.78 1070.5,-144.22"/>
<polygon fill="#63b8ff" stroke="#63b8ff" points="1073.85,-145.26 1073.93,-134.67 1067.26,-142.9 1073.85,-145.26"/>
</a>
</g>
</g>
<!-- Node26&#45;&gt;Node4 -->
<g id="edge46_Node000026_Node000004" class="edge">
<title>Node26&#45;&gt;Node4</title>
<g id="a_edge46_Node000026_Node000004"><a xlink:title=" ">
<path fill="none" stroke="#63b8ff" d="M1134.64,-56.58C1131.74,-56.01 1128.84,-55.48 1126.04,-55 1021.48,-37.2 898.05,-22.93 830.51,-15.69"/>
<polygon fill="#63b8ff" stroke="#63b8ff" points="830.47,-12.16 820.16,-14.59 829.73,-19.12 830.47,-12.16"/>
</a>
</g>
</g>
<!-- Node27 -->
<g id="Node000027" class="node">
<title>Node27</title>
<g id="a_Node000027"><a xlink:href="math_8h.html" target="_top" xlink:title=" ">
<polygon fill="white" stroke="#666666" points="1191.54,-19 1140.54,-19 1140.54,0 1191.54,0 1191.54,-19"/>
<text text-anchor="middle" x="1166.04" y="-7" font-family="Helvetica,sans-Serif" font-size="10.00">math.h</text>
</a>
</g>
</g>
<!-- Node26&#45;&gt;Node27 -->
<g id="edge45_Node000026_Node000027" class="edge">
<title>Node26&#45;&gt;Node27</title>
<g id="a_edge45_Node000026_Node000027"><a xlink:title=" ">
<path fill="none" stroke="#63b8ff" d="M1166.04,-54.75C1166.04,-47.8 1166.04,-37.85 1166.04,-29.13"/>
<polygon fill="#63b8ff" stroke="#63b8ff" points="1169.54,-29.09 1166.04,-19.09 1162.54,-29.09 1169.54,-29.09"/>
</a>
</g>
</g>
<!-- Node28&#45;&gt;Node4 -->
<g id="edge49_Node000028_Node000004" class="edge">
<title>Node28&#45;&gt;Node4</title>
<g id="a_edge49_Node000028_Node000004"><a xlink:title=" ">
<path fill="none" stroke="#63b8ff" d="M1071.09,-115.14C1060.52,-100.15 1036.91,-69.95 1009.04,-55 952.68,-24.77 878.72,-14.9 830.31,-11.78"/>
<polygon fill="#63b8ff" stroke="#63b8ff" points="830.27,-8.27 820.09,-11.19 829.87,-15.26 830.27,-8.27"/>
</a>
</g>
</g>
<!-- Node28&#45;&gt;Node10 -->
<g id="edge51_Node000028_Node000010" class="edge">
<title>Node28&#45;&gt;Node10</title>
<g id="a_edge51_Node000028_Node000010"><a xlink:title=" ">
<path fill="none" stroke="#63b8ff" d="M1035.31,-119.16C1010.54,-116.34 978.52,-112.81 950.04,-110 789.29,-94.14 599.79,-78.42 502.99,-70.6"/>
<polygon fill="#63b8ff" stroke="#63b8ff" points="503.03,-67.09 492.78,-69.77 502.47,-74.06 503.03,-67.09"/>
</a>
</g>
</g>
<!-- Node28&#45;&gt;Node26 -->
<g id="edge50_Node000028_Node000026" class="edge">
<title>Node28&#45;&gt;Node26</title>
<g id="a_edge50_Node000028_Node000026"><a xlink:title=" ">
<path fill="none" stroke="#63b8ff" d="M1090.17,-115.37C1104.37,-106.04 1127.24,-91.01 1144.16,-79.88"/>
<polygon fill="#63b8ff" stroke="#63b8ff" points="1146.42,-82.58 1152.86,-74.17 1142.58,-76.74 1146.42,-82.58"/>
</a>
</g>
</g>
<!-- Node29 -->
<g id="Node000029" class="node">
<title>Node29</title>
<g id="a_Node000029"><a xlink:title=" ">
<polygon fill="#e0e0e0" stroke="#999999" points="1117.04,-74 1061.04,-74 1061.04,-55 1117.04,-55 1117.04,-74"/>
<text text-anchor="middle" x="1089.04" y="-62" font-family="Helvetica,sans-Serif" font-size="10.00">assert.h</text>
</a>
</g>
</g>
<!-- Node28&#45;&gt;Node29 -->
<g id="edge52_Node000028_Node000029" class="edge">
<title>Node28&#45;&gt;Node29</title>
<g id="a_edge52_Node000028_Node000029"><a xlink:title=" ">
<path fill="none" stroke="#63b8ff" d="M1078.81,-115.37C1080.5,-107.16 1083.08,-94.54 1085.24,-84.05"/>
<polygon fill="#63b8ff" stroke="#63b8ff" points="1088.68,-84.67 1087.26,-74.17 1081.83,-83.26 1088.68,-84.67"/>
</a>
</g>
</g>
<!-- Node30&#45;&gt;Node4 -->
<g id="edge56_Node000030_Node000004" class="edge">
<title>Node30&#45;&gt;Node4</title>
<g id="a_edge56_Node000030_Node000004"><a xlink:title=" ">
<path fill="none" stroke="#63b8ff" d="M770.79,-115.47C772.4,-97.23 776.2,-54.07 778.4,-29.14"/>
<polygon fill="#63b8ff" stroke="#63b8ff" points="781.89,-29.4 779.28,-19.13 774.92,-28.78 781.89,-29.4"/>
</a>
</g>
</g>
<!-- Node30&#45;&gt;Node7 -->
<g id="edge58_Node000030_Node000007" class="edge">
<title>Node30&#45;&gt;Node7</title>
<g id="a_edge58_Node000030_Node000007"><a xlink:title=" ">
<path fill="none" stroke="#63b8ff" d="M780.52,-115.37C791.53,-106.3 809.08,-91.84 822.45,-80.82"/>
<polygon fill="#63b8ff" stroke="#63b8ff" points="825.03,-83.23 830.52,-74.17 820.58,-77.83 825.03,-83.23"/>
</a>
</g>
</g>
<!-- Node30&#45;&gt;Node10 -->
<g id="edge59_Node000030_Node000010" class="edge">
<title>Node30&#45;&gt;Node10</title>
<g id="a_edge59_Node000030_Node000010"><a xlink:title=" ">
<path fill="none" stroke="#63b8ff" d="M733.13,-115.45C724.58,-113.56 715.51,-111.64 707.04,-110 637.44,-96.5 557.18,-83.51 502.77,-75.09"/>
<polygon fill="#63b8ff" stroke="#63b8ff" points="503,-71.58 492.58,-73.52 501.93,-78.5 503,-71.58"/>
</a>
</g>
</g>
<!-- Node30&#45;&gt;Node12 -->
<g id="edge57_Node000030_Node000012" class="edge">
<title>Node30&#45;&gt;Node12</title>
<g id="a_edge57_Node000030_Node000012"><a xlink:title=" ">
<path fill="none" stroke="#63b8ff" d="M744.74,-115.49C714.84,-105.44 664.92,-88.66 631.26,-77.34"/>
<polygon fill="#63b8ff" stroke="#63b8ff" points="631.97,-73.89 621.37,-74.02 629.74,-80.52 631.97,-73.89"/>
</a>
</g>
</g>
</g>
</svg>
