<?xml version="1.0" encoding="UTF-8" standalone="no"?>
<!DOCTYPE svg PUBLIC "-//W3C//DTD SVG 1.1//EN"
 "http://www.w3.org/Graphics/SVG/1.1/DTD/svg11.dtd">
<!-- Generated by graphviz version 2.43.0 (0)
 -->
<!-- Title: src/engine/tracks Pages: 1 -->
<!--zoomable 133 -->

<svg id="main" version="1.1" xmlns="http://www.w3.org/2000/svg" xmlns:xlink="http://www.w3.org/1999/xlink" xml:space="preserve" onload="init(evt)">

<style type="text/css"><![CDATA[
.node, .edge {opacity: 0.7;}
.node.selected, .edge.selected {opacity: 1;}
.edge:hover path { stroke: red; }
.edge:hover polygon { stroke: red; fill: red; }
]]></style>

<defs>
  <circle id="rim" cx="0" cy="0" r="7"/>
  <circle id="rim2" cx="0" cy="0" r="3.5"/>
  <g id="zoomPlus">
    <use xlink:href="#rim" fill="#404040"><set attributeName="fill" to="#808080" begin="zoomplus.mouseover" end="zoomplus.mouseout"/></use>
    <path d="M-4,0h8M0,-4v8" fill="none" stroke="white" stroke-width="1.5" pointer-events="none"/>
  </g>
  <g id="zoomMin">
    <use xlink:href="#rim" fill="#404040"><set attributeName="fill" to="#808080" begin="zoomminus.mouseover" end="zoomminus.mouseout"/></use>
    <path d="M-4,0h8" fill="none" stroke="white" stroke-width="1.5" pointer-events="none"/>
  </g>
  <g id="arrowUp" transform="translate(30 24)">
    <use xlink:href="#rim"/>
    <path pointer-events="none" fill="none" stroke="white" stroke-width="1.5" d="M0,-3.0v7 M-2.5,-0.5L0,-3.0L2.5,-0.5"/>
  </g>
  <g id="arrowRight" transform="rotate(90) translate(36 -43)">
    <use xlink:href="#rim"/>
    <path pointer-events="none" fill="none" stroke="white" stroke-width="1.5" d="M0,-3.0v7 M-2.5,-0.5L0,-3.0L2.5,-0.5"/>
  </g>
  <g id="arrowDown" transform="rotate(180) translate(-30 -48)">
    <use xlink:href="#rim"/>
    <path pointer-events="none" fill="none" stroke="white" stroke-width="1.5" d="M0,-3.0v7 M-2.5,-0.5L0,-3.0L2.5,-0.5"/>
  </g>
  <g id="arrowLeft" transform="rotate(270) translate(-36 17)">
    <use xlink:href="#rim"/>
    <path pointer-events="none" fill="none" stroke="white" stroke-width="1.5" d="M0,-3.0v7 M-2.5,-0.5L0,-3.0L2.5,-0.5"/>
  </g>
  <g id="resetDef">
    <use xlink:href="#rim2" fill="#404040"><set attributeName="fill" to="#808080" begin="reset.mouseover" end="reset.mouseout"/></use>
  </g>
</defs>
<script type="application/ecmascript">
var viewWidth = 806;
var viewHeight = 133;
var sectionId = 'dynsection-0';
</script>
<script type="application/ecmascript" xlink:href="svg.min.js"/>
<svg id="graph" class="graph">
<g id="viewport">
<title>src/engine/tracks</title>
<g id="clust1" class="cluster">
<title>clusterdir_2052808828190f934b76e979ee65af8a</title>
<g id="a_clust1"><a xlink:href="dir_2052808828190f934b76e979ee65af8a.html" target="_top" xlink:title="engine">
<polygon fill="#daedff" stroke="#7f7f7f" stroke-dasharray="5,2" points="8,-8 8,-117 358,-117 358,-8 8,-8"/>
<text text-anchor="middle" x="183" y="-105" font-family="Helvetica,sans-Serif" font-size="10.00">engine</text>
</a>
</g>
</g>
<!-- dir_1ee540f77cb35e295a0ce7e67d25f9b4 -->
<g id="node1" class="node">
<title>dir_1ee540f77cb35e295a0ce7e67d25f9b4</title>
<g id="a_node1"><a xlink:href="dir_1ee540f77cb35e295a0ce7e67d25f9b4.html" target="_top" xlink:title="actors">
<polygon fill="#4ea9ff" stroke="#404040" points="63.5,-35 16.5,-35 16.5,-16 63.5,-16 63.5,-35"/>
<text text-anchor="middle" x="40" y="-23" font-family="Helvetica,sans-Serif" font-size="10.00">actors</text>
</a>
</g>
</g>
<!-- dir_5be95e51eb5f418b7778cdd680745101 -->
<g id="node2" class="node">
<title>dir_5be95e51eb5f418b7778cdd680745101</title>
<g id="a_node2"><a xlink:href="dir_5be95e51eb5f418b7778cdd680745101.html" target="_top" xlink:title="particles">
<polygon fill="#4ea9ff" stroke="#404040" points="140.5,-35 81.5,-35 81.5,-16 140.5,-16 140.5,-35"/>
<text text-anchor="middle" x="111" y="-23" font-family="Helvetica,sans-Serif" font-size="10.00">particles</text>
</a>
</g>
</g>
<!-- dir_d9fd50ce652a2b377376480fd9039164 -->
<g id="node3" class="node">
<title>dir_d9fd50ce652a2b377376480fd9039164</title>
<g id="a_node3"><a xlink:href="dir_d9fd50ce652a2b377376480fd9039164.html" target="_top" xlink:title="vehicles">
<polygon fill="#4ea9ff" stroke="#404040" points="215.5,-35 158.5,-35 158.5,-16 215.5,-16 215.5,-35"/>
<text text-anchor="middle" x="187" y="-23" font-family="Helvetica,sans-Serif" font-size="10.00">vehicles</text>
</a>
</g>
</g>
<!-- dir_e542ca8db7fd71a1414236dde431d8c7 -->
<g id="node4" class="node">
<title>dir_e542ca8db7fd71a1414236dde431d8c7</title>
<g id="a_node4"><a xlink:href="dir_e542ca8db7fd71a1414236dde431d8c7.html" target="_top" xlink:title="objects">
<polygon fill="#4ea9ff" stroke="#404040" points="286,-35 234,-35 234,-16 286,-16 286,-35"/>
<text text-anchor="middle" x="260" y="-23" font-family="Helvetica,sans-Serif" font-size="10.00">objects</text>
</a>
</g>
</g>
<!-- dir_f4f7efabaac21873a58d10d576a92da6 -->
<g id="node5" class="node">
<title>dir_f4f7efabaac21873a58d10d576a92da6</title>
<g id="a_node5"><a xlink:href="dir_f4f7efabaac21873a58d10d576a92da6.html" target="_top" xlink:title="editor">
<polygon fill="#4ea9ff" stroke="#404040" points="349.5,-35 304.5,-35 304.5,-16 349.5,-16 349.5,-35"/>
<text text-anchor="middle" x="327" y="-23" font-family="Helvetica,sans-Serif" font-size="10.00">editor</text>
</a>
</g>
</g>
<!-- dir_8955581d22ca769fa1400ba486b7589a -->
<g id="node6" class="node">
<title>dir_8955581d22ca769fa1400ba486b7589a</title>
<g id="a_node6"><a xlink:href="dir_8955581d22ca769fa1400ba486b7589a.html" target="_top" xlink:title="tracks">
<polygon fill="#daedff" stroke="#404040" stroke-width="2" points="349.5,-90 302.5,-90 302.5,-71 349.5,-71 349.5,-90"/>
<text text-anchor="middle" x="326" y="-78" font-family="Helvetica,sans-Serif" font-size="10.00">tracks</text>
</a>
</g>
</g>
<!-- dir_8955581d22ca769fa1400ba486b7589a&#45;&gt;dir_1ee540f77cb35e295a0ce7e67d25f9b4 -->
<g id="edge2" class="edge">
<title>dir_8955581d22ca769fa1400ba486b7589a&#45;&gt;dir_1ee540f77cb35e295a0ce7e67d25f9b4</title>
<g id="a_edge2"><a xlink:href="dir_000129_000002.html" target="_top">
<path fill="none" stroke="#63b8ff" d="M302.16,-75.94C258.74,-69.33 163.69,-54.22 73.57,-34.97"/>
<polygon fill="#63b8ff" stroke="#63b8ff" points="74.25,-31.54 63.74,-32.85 72.78,-38.38 74.25,-31.54"/>
</a>
</g>
<g id="a_edge2&#45;headlabel"><a xlink:href="dir_000129_000002.html" target="_top" xlink:title="33">
<text text-anchor="middle" x="78.37" y="-27.02" font-family="Helvetica,sans-Serif" font-size="10.00" fill="#63b8ff">33</text>
</a>
</g>
</g>
<!-- dir_8955581d22ca769fa1400ba486b7589a&#45;&gt;dir_5be95e51eb5f418b7778cdd680745101 -->
<g id="edge3" class="edge">
<title>dir_8955581d22ca769fa1400ba486b7589a&#45;&gt;dir_5be95e51eb5f418b7778cdd680745101</title>
<g id="a_edge3"><a xlink:href="dir_000129_000095.html" target="_top">
<path fill="none" stroke="#63b8ff" d="M302.17,-73.63C265.55,-64.6 195.04,-47.22 150.65,-36.27"/>
<polygon fill="#63b8ff" stroke="#63b8ff" points="151.32,-32.84 140.78,-33.84 149.65,-39.63 151.32,-32.84"/>
</a>
</g>
<g id="a_edge3&#45;headlabel"><a xlink:href="dir_000129_000095.html" target="_top" xlink:title="1">
<text text-anchor="middle" x="155.49" y="-28.44" font-family="Helvetica,sans-Serif" font-size="10.00" fill="#63b8ff">1</text>
</a>
</g>
</g>
<!-- dir_8955581d22ca769fa1400ba486b7589a&#45;&gt;dir_d9fd50ce652a2b377376480fd9039164 -->
<g id="edge9" class="edge">
<title>dir_8955581d22ca769fa1400ba486b7589a&#45;&gt;dir_d9fd50ce652a2b377376480fd9039164</title>
<g id="a_edge9"><a xlink:href="dir_000129_000135.html" target="_top">
<path fill="none" stroke="#63b8ff" d="M303.67,-70.98C280.8,-62.27 245.04,-48.63 219.14,-38.75"/>
<polygon fill="#63b8ff" stroke="#63b8ff" points="220.33,-35.46 209.74,-35.17 217.84,-42 220.33,-35.46"/>
</a>
</g>
<g id="a_edge9&#45;headlabel"><a xlink:href="dir_000129_000135.html" target="_top" xlink:title="12">
<text text-anchor="middle" x="224.7" y="-31.59" font-family="Helvetica,sans-Serif" font-size="10.00" fill="#63b8ff">12</text>
</a>
</g>
</g>
<!-- dir_8955581d22ca769fa1400ba486b7589a&#45;&gt;dir_e542ca8db7fd71a1414236dde431d8c7 -->
<g id="edge10" class="edge">
<title>dir_8955581d22ca769fa1400ba486b7589a&#45;&gt;dir_e542ca8db7fd71a1414236dde431d8c7</title>
<g id="a_edge10"><a xlink:href="dir_000129_000090.html" target="_top">
<path fill="none" stroke="#63b8ff" d="M315.4,-70.98C305.54,-63.07 290.65,-51.11 278.78,-41.58"/>
<polygon fill="#63b8ff" stroke="#63b8ff" points="280.79,-38.7 270.8,-35.17 276.4,-44.16 280.79,-38.7"/>
</a>
</g>
<g id="a_edge10&#45;headlabel"><a xlink:href="dir_000129_000090.html" target="_top" xlink:title="70">
<text text-anchor="middle" x="285.37" y="-36.24" font-family="Helvetica,sans-Serif" font-size="10.00" fill="#63b8ff">70</text>
</a>
</g>
</g>
<!-- dir_8955581d22ca769fa1400ba486b7589a&#45;&gt;dir_f4f7efabaac21873a58d10d576a92da6 -->
<g id="edge11" class="edge">
<title>dir_8955581d22ca769fa1400ba486b7589a&#45;&gt;dir_f4f7efabaac21873a58d10d576a92da6</title>
<g id="a_edge11"><a xlink:href="dir_000129_000045.html" target="_top">
<path fill="none" stroke="#63b8ff" d="M326.17,-70.75C326.3,-63.8 326.48,-53.85 326.65,-45.13"/>
<polygon fill="#63b8ff" stroke="#63b8ff" points="330.15,-45.15 326.84,-35.09 323.15,-45.02 330.15,-45.15"/>
</a>
</g>
<g id="a_edge11&#45;headlabel"><a xlink:href="dir_000129_000045.html" target="_top" xlink:title="1">
<text text-anchor="middle" x="332.92" y="-46.3" font-family="Helvetica,sans-Serif" font-size="10.00" fill="#63b8ff">1</text>
</a>
</g>
</g>
<!-- dir_00af227302e88d94a0c5bc4ff969c991 -->
<g id="node7" class="node">
<title>dir_00af227302e88d94a0c5bc4ff969c991</title>
<g id="a_node7"><a xlink:href="dir_00af227302e88d94a0c5bc4ff969c991.html" target="_top" xlink:title="ending">
<polygon fill="#daedff" stroke="#7f7f7f" points="418,-35 368,-35 368,-16 418,-16 418,-35"/>
<text text-anchor="middle" x="393" y="-23" font-family="Helvetica,sans-Serif" font-size="10.00">ending</text>
</a>
</g>
</g>
<!-- dir_8955581d22ca769fa1400ba486b7589a&#45;&gt;dir_00af227302e88d94a0c5bc4ff969c991 -->
<g id="edge1" class="edge">
<title>dir_8955581d22ca769fa1400ba486b7589a&#45;&gt;dir_00af227302e88d94a0c5bc4ff969c991</title>
<g id="a_edge1"><a xlink:href="dir_000129_000046.html" target="_top">
<path fill="none" stroke="#63b8ff" d="M336.76,-70.98C346.77,-63.07 361.89,-51.11 373.93,-41.58"/>
<polygon fill="#63b8ff" stroke="#63b8ff" points="376.37,-44.12 382.04,-35.17 372.03,-38.63 376.37,-44.12"/>
</a>
</g>
<g id="a_edge1&#45;headlabel"><a xlink:href="dir_000129_000046.html" target="_top" xlink:title="1">
<text text-anchor="middle" x="375.31" y="-46.08" font-family="Helvetica,sans-Serif" font-size="10.00" fill="#63b8ff">1</text>
</a>
</g>
</g>
<!-- dir_9d35e33a62367a6e44d3f53c24813abf -->
<g id="node8" class="node">
<title>dir_9d35e33a62367a6e44d3f53c24813abf</title>
<g id="a_node8"><a xlink:href="dir_9d35e33a62367a6e44d3f53c24813abf.html" target="_top" xlink:title="courses">
<polygon fill="#daedff" stroke="red" points="490,-35 436,-35 436,-16 490,-16 490,-35"/>
<text text-anchor="middle" x="463" y="-23" font-family="Helvetica,sans-Serif" font-size="10.00">courses</text>
</a>
</g>
</g>
<!-- dir_8955581d22ca769fa1400ba486b7589a&#45;&gt;dir_9d35e33a62367a6e44d3f53c24813abf -->
<g id="edge4" class="edge">
<title>dir_8955581d22ca769fa1400ba486b7589a&#45;&gt;dir_9d35e33a62367a6e44d3f53c24813abf</title>
<g id="a_edge4"><a xlink:href="dir_000129_000032.html" target="_top">
<path fill="none" stroke="#63b8ff" d="M348.01,-70.98C370.45,-62.3 405.48,-48.75 430.99,-38.88"/>
<polygon fill="#63b8ff" stroke="#63b8ff" points="432.52,-42.04 440.59,-35.17 430,-35.51 432.52,-42.04"/>
</a>
</g>
<g id="a_edge4&#45;headlabel"><a xlink:href="dir_000129_000032.html" target="_top" xlink:title="5">
<text text-anchor="middle" x="430.2" y="-43.49" font-family="Helvetica,sans-Serif" font-size="10.00" fill="#63b8ff">5</text>
</a>
</g>
</g>
<!-- dir_a63dedf81f1e5ea1d42bb45ef831eb8c -->
<g id="node9" class="node">
<title>dir_a63dedf81f1e5ea1d42bb45ef831eb8c</title>
<g id="a_node9"><a xlink:href="dir_a63dedf81f1e5ea1d42bb45ef831eb8c.html" target="_top" xlink:title="audio">
<polygon fill="#daedff" stroke="#7f7f7f" points="552,-35 508,-35 508,-16 552,-16 552,-35"/>
<text text-anchor="middle" x="530" y="-23" font-family="Helvetica,sans-Serif" font-size="10.00">audio</text>
</a>
</g>
</g>
<!-- dir_8955581d22ca769fa1400ba486b7589a&#45;&gt;dir_a63dedf81f1e5ea1d42bb45ef831eb8c -->
<g id="edge5" class="edge">
<title>dir_8955581d22ca769fa1400ba486b7589a&#45;&gt;dir_a63dedf81f1e5ea1d42bb45ef831eb8c</title>
<g id="a_edge5"><a xlink:href="dir_000129_000005.html" target="_top">
<path fill="none" stroke="#63b8ff" d="M349.54,-73.57C381.09,-65.6 439.11,-50.84 498.13,-35.2"/>
<polygon fill="#63b8ff" stroke="#63b8ff" points="499.23,-38.53 508,-32.58 497.43,-31.76 499.23,-38.53"/>
</a>
</g>
<g id="a_edge5&#45;headlabel"><a xlink:href="dir_000129_000005.html" target="_top" xlink:title="23">
<text text-anchor="middle" x="496.48" y="-39.7" font-family="Helvetica,sans-Serif" font-size="10.00" fill="#63b8ff">23</text>
</a>
</g>
</g>
<!-- dir_b624d86e5671d82a613a73eb9566e66f -->
<g id="node10" class="node">
<title>dir_b624d86e5671d82a613a73eb9566e66f</title>
<g id="a_node10"><a xlink:href="dir_b624d86e5671d82a613a73eb9566e66f.html" target="_top" xlink:title="racing">
<polygon fill="#daedff" stroke="#7f7f7f" points="617.5,-35 570.5,-35 570.5,-16 617.5,-16 617.5,-35"/>
<text text-anchor="middle" x="594" y="-23" font-family="Helvetica,sans-Serif" font-size="10.00">racing</text>
</a>
</g>
</g>
<!-- dir_8955581d22ca769fa1400ba486b7589a&#45;&gt;dir_b624d86e5671d82a613a73eb9566e66f -->
<g id="edge6" class="edge">
<title>dir_8955581d22ca769fa1400ba486b7589a&#45;&gt;dir_b624d86e5671d82a613a73eb9566e66f</title>
<g id="a_edge6"><a xlink:href="dir_000129_000099.html" target="_top">
<path fill="none" stroke="#63b8ff" d="M349.79,-75.52C390.71,-68.57 477.28,-53.36 560.4,-35.01"/>
<polygon fill="#63b8ff" stroke="#63b8ff" points="561.25,-38.4 570.25,-32.81 559.73,-31.57 561.25,-38.4"/>
</a>
</g>
<g id="a_edge6&#45;headlabel"><a xlink:href="dir_000129_000099.html" target="_top" xlink:title="123">
<text text-anchor="middle" x="558.36" y="-39.46" font-family="Helvetica,sans-Serif" font-size="10.00" fill="#63b8ff">123</text>
</a>
</g>
</g>
<!-- dir_c1be8d27e7f84178e95f152701110b19 -->
<g id="node11" class="node">
<title>dir_c1be8d27e7f84178e95f152701110b19</title>
<g id="a_node11"><a xlink:href="dir_c1be8d27e7f84178e95f152701110b19.html" target="_top" xlink:title="data">
<polygon fill="#daedff" stroke="#7f7f7f" points="674,-35 636,-35 636,-16 674,-16 674,-35"/>
<text text-anchor="middle" x="655" y="-23" font-family="Helvetica,sans-Serif" font-size="10.00">data</text>
</a>
</g>
</g>
<!-- dir_8955581d22ca769fa1400ba486b7589a&#45;&gt;dir_c1be8d27e7f84178e95f152701110b19 -->
<g id="edge7" class="edge">
<title>dir_8955581d22ca769fa1400ba486b7589a&#45;&gt;dir_c1be8d27e7f84178e95f152701110b19</title>
<g id="a_edge7"><a xlink:href="dir_000129_000035.html" target="_top">
<path fill="none" stroke="#63b8ff" d="M349.63,-77.21C399.2,-72.15 517.73,-58.72 626.04,-34.91"/>
<polygon fill="#63b8ff" stroke="#63b8ff" points="626.82,-38.33 635.82,-32.73 625.3,-31.5 626.82,-38.33"/>
</a>
</g>
<g id="a_edge7&#45;headlabel"><a xlink:href="dir_000129_000035.html" target="_top" xlink:title="48">
<text text-anchor="middle" x="623.93" y="-39.38" font-family="Helvetica,sans-Serif" font-size="10.00" fill="#63b8ff">48</text>
</a>
</g>
</g>
<!-- dir_d44c64559bbebec7f509842c48db8b23 -->
<g id="node12" class="node">
<title>dir_d44c64559bbebec7f509842c48db8b23</title>
<g id="a_node12"><a xlink:href="dir_d44c64559bbebec7f509842c48db8b23.html" target="_top" xlink:title="include">
<polygon fill="#daedff" stroke="red" points="744,-35 692,-35 692,-16 744,-16 744,-35"/>
<text text-anchor="middle" x="718" y="-23" font-family="Helvetica,sans-Serif" font-size="10.00">include</text>
</a>
</g>
</g>
<!-- dir_8955581d22ca769fa1400ba486b7589a&#45;&gt;dir_d44c64559bbebec7f509842c48db8b23 -->
<g id="edge8" class="edge">
<title>dir_8955581d22ca769fa1400ba486b7589a&#45;&gt;dir_d44c64559bbebec7f509842c48db8b23</title>
<g id="a_edge8"><a xlink:href="dir_000129_000059.html" target="_top">
<path fill="none" stroke="#63b8ff" d="M349.53,-77.5C405.42,-72.57 550.65,-58.58 681.5,-35.08"/>
<polygon fill="#63b8ff" stroke="#63b8ff" points="682.48,-38.46 691.7,-33.23 681.23,-31.58 682.48,-38.46"/>
</a>
</g>
<g id="a_edge8&#45;headlabel"><a xlink:href="dir_000129_000059.html" target="_top" xlink:title="253">
<text text-anchor="middle" x="679.46" y="-39.4" font-family="Helvetica,sans-Serif" font-size="10.00" fill="#63b8ff">253</text>
</a>
</g>
</g>
<!-- dir_fd8b95245ffcce776715f180c056b450 -->
<g id="node13" class="node">
<title>dir_fd8b95245ffcce776715f180c056b450</title>
<g id="a_node13"><a xlink:href="dir_fd8b95245ffcce776715f180c056b450.html" target="_top" xlink:title="port">
<polygon fill="#daedff" stroke="red" stroke-dasharray="5,2" points="798,-35 762,-35 762,-16 798,-16 798,-35"/>
<text text-anchor="middle" x="780" y="-23" font-family="Helvetica,sans-Serif" font-size="10.00">port</text>
</a>
</g>
</g>
<!-- dir_8955581d22ca769fa1400ba486b7589a&#45;&gt;dir_fd8b95245ffcce776715f180c056b450 -->
<g id="edge12" class="edge">
<title>dir_8955581d22ca769fa1400ba486b7589a&#45;&gt;dir_fd8b95245ffcce776715f180c056b450</title>
<g id="a_edge12"><a xlink:href="dir_000129_000097.html" target="_top">
<path fill="none" stroke="#63b8ff" d="M349.86,-78.69C413.75,-76.18 593.97,-66.79 751.94,-34.8"/>
<polygon fill="#63b8ff" stroke="#63b8ff" points="752.74,-38.21 761.83,-32.77 751.33,-31.36 752.74,-38.21"/>
</a>
</g>
<g id="a_edge12&#45;headlabel"><a xlink:href="dir_000129_000097.html" target="_top" xlink:title="2">
<text text-anchor="middle" x="749.8" y="-39.22" font-family="Helvetica,sans-Serif" font-size="10.00" fill="#63b8ff">2</text>
</a>
</g>
</g>
</g>
</svg>

<g id="navigator" transform="translate(0 0)" fill="#404254">
  <rect fill="#f2f5e9" fill-opacity="0.5" stroke="#606060" stroke-width=".5" x="0" y="0" width="60" height="60"/>
  <use id="zoomplus" xlink:href="#zoomPlus" x="17" y="9" onmousedown="handleZoom(evt,'in')"/>
  <use id="zoomminus" xlink:href="#zoomMin" x="42" y="9" onmousedown="handleZoom(evt,'out')"/>
  <use id="reset" xlink:href="#resetDef" x="30" y="36" onmousedown="handleReset()"/>
   <use id="arrowup" xlink:href="#arrowUp" x="0" y="0" onmousedown="handlePan(0,-1)"/>
  <use id="arrowright" xlink:href="#arrowRight" x="0" y="0" onmousedown="handlePan(1,0)"/>
  <use id="arrowdown" xlink:href="#arrowDown" x="0" y="0" onmousedown="handlePan(0,1)"/>
  <use id="arrowleft" xlink:href="#arrowLeft" x="0" y="0" onmousedown="handlePan(-1,0)"/>
</g>
<svg viewBox="0 0 15 15" width="100%" height="30px" preserveAspectRatio="xMaxYMin meet">
 <g id="arrow_out" transform="scale(0.3 0.3)">
  <a xlink:href="dir_8955581d22ca769fa1400ba486b7589a_dep_org.svg" target="_base">
   <rect id="button" ry="5" rx="5" y="6" x="6" height="38" width="38"
        fill="#f2f5e9" fill-opacity="0.5" stroke="#606060" stroke-width="1.0"/>
   <path id="arrow"
     d="M 11.500037,31.436501 C 11.940474,20.09759 22.043105,11.32322 32.158766,21.979434 L 37.068811,17.246167 C 37.068811,17.246167 37.088388,32 37.088388,32 L 22.160133,31.978069 C 22.160133,31.978069 26.997745,27.140456 26.997745,27.140456 C 18.528582,18.264221 13.291696,25.230495 11.500037,31.436501 z"
     style="fill:#404040;"/>
  </a>
 </g>
</svg>

<style type='text/css'>
<![CDATA[
[data-mouse-over-selected='false'] { opacity: 0.7; }
[data-mouse-over-selected='true']  { opacity: 1.0; }
]]>
</style>
<script type="application/ecmascript"><![CDATA[
document.addEventListener('DOMContentLoaded', (event) => {
  highlightEdges();
  highlightAdjacentNodes();
});
]]></script>
</svg>
