<?xml version="1.0" encoding="UTF-8" standalone="no"?>
<!DOCTYPE svg PUBLIC "-//W3C//DTD SVG 1.1//EN"
 "http://www.w3.org/Graphics/SVG/1.1/DTD/svg11.dtd">
<!-- Generated by graphviz version 2.43.0 (0)
 -->
<!-- Title: include/assets/models/tracks/double_deck/double_deck_vertices.h Pages: 1 -->
<svg width="325pt" height="181pt"
 viewBox="0.00 0.00 324.50 181.00" xmlns="http://www.w3.org/2000/svg" xmlns:xlink="http://www.w3.org/1999/xlink">
<g id="graph0" class="graph" transform="scale(1 1) rotate(0) translate(4 177)">
<title>include/assets/models/tracks/double_deck/double_deck_vertices.h</title>
<!-- Node1 -->
<g id="Node000001" class="node">
<title>Node1</title>
<g id="a_Node000001"><a xlink:title=" ">
<polygon fill="#999999" stroke="#666666" points="198.5,-173 48.5,-173 48.5,-132 198.5,-132 198.5,-173"/>
<text text-anchor="start" x="56.5" y="-161" font-family="Helvetica,sans-Serif" font-size="10.00">include/assets/models</text>
<text text-anchor="start" x="56.5" y="-150" font-family="Helvetica,sans-Serif" font-size="10.00">/tracks/double_deck/double</text>
<text text-anchor="middle" x="123.5" y="-139" font-family="Helvetica,sans-Serif" font-size="10.00">_deck_vertices.h</text>
</a>
</g>
</g>
<!-- Node2 -->
<g id="Node000002" class="node">
<title>Node2</title>
<g id="a_Node000002"><a xlink:href="all__course__model_8h.html" target="_top" xlink:title=" ">
<polygon fill="white" stroke="#666666" points="107,-96 0,-96 0,-66 107,-66 107,-96"/>
<text text-anchor="start" x="8" y="-84" font-family="Helvetica,sans-Serif" font-size="10.00">courses/all_course</text>
<text text-anchor="middle" x="53.5" y="-73" font-family="Helvetica,sans-Serif" font-size="10.00">_model.h</text>
</a>
</g>
</g>
<!-- Node1&#45;&gt;Node2 -->
<g id="edge1_Node000001_Node000002" class="edge">
<title>Node1&#45;&gt;Node2</title>
<g id="a_edge1_Node000001_Node000002"><a xlink:title=" ">
<path fill="none" stroke="#63b8ff" d="M96.35,-124.55C86.55,-114.81 75.88,-104.22 67.64,-96.04"/>
<polygon fill="#63b8ff" stroke="#63b8ff" points="94.07,-127.21 103.63,-131.77 99,-122.24 94.07,-127.21"/>
</a>
</g>
</g>
<!-- Node3 -->
<g id="Node000003" class="node">
<title>Node3</title>
<g id="a_Node000003"><a xlink:href="DoubleDeck_8h.html" target="_top" xlink:title=" ">
<polygon fill="white" stroke="#666666" points="262,-96 125,-96 125,-66 262,-66 262,-96"/>
<text text-anchor="start" x="133" y="-84" font-family="Helvetica,sans-Serif" font-size="10.00">src/engine/tracks/Double</text>
<text text-anchor="middle" x="193.5" y="-73" font-family="Helvetica,sans-Serif" font-size="10.00">Deck.h</text>
</a>
</g>
</g>
<!-- Node1&#45;&gt;Node3 -->
<g id="edge2_Node000001_Node000003" class="edge">
<title>Node1&#45;&gt;Node3</title>
<g id="a_edge2_Node000001_Node000003"><a xlink:title=" ">
<path fill="none" stroke="#63b8ff" d="M150.65,-124.55C160.45,-114.81 171.12,-104.22 179.36,-96.04"/>
<polygon fill="#63b8ff" stroke="#63b8ff" points="148,-122.24 143.37,-131.77 152.93,-127.21 148,-122.24"/>
</a>
</g>
</g>
<!-- Node4 -->
<g id="Node000004" class="node">
<title>Node4</title>
<g id="a_Node000004"><a xlink:href="DoubleDeck_8cpp.html" target="_top" xlink:title=" ">
<polygon fill="white" stroke="#666666" points="192,-30 55,-30 55,0 192,0 192,-30"/>
<text text-anchor="start" x="63" y="-18" font-family="Helvetica,sans-Serif" font-size="10.00">src/engine/tracks/Double</text>
<text text-anchor="middle" x="123.5" y="-7" font-family="Helvetica,sans-Serif" font-size="10.00">Deck.cpp</text>
</a>
</g>
</g>
<!-- Node3&#45;&gt;Node4 -->
<g id="edge3_Node000003_Node000004" class="edge">
<title>Node3&#45;&gt;Node4</title>
<g id="a_edge3_Node000003_Node000004"><a xlink:title=" ">
<path fill="none" stroke="#63b8ff" d="M170.45,-58.92C160.13,-49.49 148.23,-38.61 138.99,-30.16"/>
<polygon fill="#63b8ff" stroke="#63b8ff" points="168.22,-61.63 177.96,-65.8 172.95,-56.47 168.22,-61.63"/>
</a>
</g>
</g>
<!-- Node5 -->
<g id="Node000005" class="node">
<title>Node5</title>
<g id="a_Node000005"><a xlink:href="Game_8cpp.html" target="_top" xlink:title=" ">
<polygon fill="white" stroke="#666666" points="316.5,-24.5 210.5,-24.5 210.5,-5.5 316.5,-5.5 316.5,-24.5"/>
<text text-anchor="middle" x="263.5" y="-12.5" font-family="Helvetica,sans-Serif" font-size="10.00">src/port/Game.cpp</text>
</a>
</g>
</g>
<!-- Node3&#45;&gt;Node5 -->
<g id="edge4_Node000003_Node000005" class="edge">
<title>Node3&#45;&gt;Node5</title>
<g id="a_edge4_Node000003_Node000005"><a xlink:title=" ">
<path fill="none" stroke="#63b8ff" d="M216.54,-58.93C229.21,-47.35 244.24,-33.61 253.83,-24.84"/>
<polygon fill="#63b8ff" stroke="#63b8ff" points="214.05,-56.47 209.04,-65.8 218.78,-61.63 214.05,-56.47"/>
</a>
</g>
</g>
</g>
</svg>
