<?xml version="1.0" encoding="UTF-8" standalone="no"?>
<!DOCTYPE svg PUBLIC "-//W3C//DTD SVG 1.1//EN"
 "http://www.w3.org/Graphics/SVG/1.1/DTD/svg11.dtd">
<!-- Generated by graphviz version 2.43.0 (0)
 -->
<!-- Title: src/engine/courses/FrappeSnowland.h Pages: 1 -->
<!--zoomable 390 -->

<svg id="main" version="1.1" xmlns="http://www.w3.org/2000/svg" xmlns:xlink="http://www.w3.org/1999/xlink" xml:space="preserve" onload="init(evt)">

<style type="text/css"><![CDATA[
.node, .edge {opacity: 0.7;}
.node.selected, .edge.selected {opacity: 1;}
.edge:hover path { stroke: red; }
.edge:hover polygon { stroke: red; fill: red; }
]]></style>

<defs>
  <circle id="rim" cx="0" cy="0" r="7"/>
  <circle id="rim2" cx="0" cy="0" r="3.5"/>
  <g id="zoomPlus">
    <use xlink:href="#rim" fill="#404040"><set attributeName="fill" to="#808080" begin="zoomplus.mouseover" end="zoomplus.mouseout"/></use>
    <path d="M-4,0h8M0,-4v8" fill="none" stroke="white" stroke-width="1.5" pointer-events="none"/>
  </g>
  <g id="zoomMin">
    <use xlink:href="#rim" fill="#404040"><set attributeName="fill" to="#808080" begin="zoomminus.mouseover" end="zoomminus.mouseout"/></use>
    <path d="M-4,0h8" fill="none" stroke="white" stroke-width="1.5" pointer-events="none"/>
  </g>
  <g id="arrowUp" transform="translate(30 24)">
    <use xlink:href="#rim"/>
    <path pointer-events="none" fill="none" stroke="white" stroke-width="1.5" d="M0,-3.0v7 M-2.5,-0.5L0,-3.0L2.5,-0.5"/>
  </g>
  <g id="arrowRight" transform="rotate(90) translate(36 -43)">
    <use xlink:href="#rim"/>
    <path pointer-events="none" fill="none" stroke="white" stroke-width="1.5" d="M0,-3.0v7 M-2.5,-0.5L0,-3.0L2.5,-0.5"/>
  </g>
  <g id="arrowDown" transform="rotate(180) translate(-30 -48)">
    <use xlink:href="#rim"/>
    <path pointer-events="none" fill="none" stroke="white" stroke-width="1.5" d="M0,-3.0v7 M-2.5,-0.5L0,-3.0L2.5,-0.5"/>
  </g>
  <g id="arrowLeft" transform="rotate(270) translate(-36 17)">
    <use xlink:href="#rim"/>
    <path pointer-events="none" fill="none" stroke="white" stroke-width="1.5" d="M0,-3.0v7 M-2.5,-0.5L0,-3.0L2.5,-0.5"/>
  </g>
  <g id="resetDef">
    <use xlink:href="#rim2" fill="#404040"><set attributeName="fill" to="#808080" begin="reset.mouseover" end="reset.mouseout"/></use>
  </g>
</defs>
<script type="application/ecmascript">
var viewWidth = 1408;
var viewHeight = 390;
var sectionId = 'dynsection-0';
</script>
<script type="application/ecmascript" xlink:href="svg.min.js"/>
<svg id="graph" class="graph">
<g id="viewport">
<title>src/engine/courses/FrappeSnowland.h</title>
<!-- Node1 -->
<g id="Node000001" class="node">
<title>Node1</title>
<g id="a_Node000001"><a xlink:title=" ">
<polygon fill="#999999" stroke="#666666" points="1002.5,-382 893.5,-382 893.5,-352 1002.5,-352 1002.5,-382"/>
<text text-anchor="start" x="901.5" y="-370" font-family="Helvetica,sans-Serif" font-size="10.00">src/engine/courses</text>
<text text-anchor="middle" x="948" y="-359" font-family="Helvetica,sans-Serif" font-size="10.00">/FrappeSnowland.h</text>
</a>
</g>
</g>
<!-- Node2 -->
<g id="Node000002" class="node">
<title>Node2</title>
<g id="a_Node000002"><a xlink:title=" ">
<polygon fill="#e0e0e0" stroke="#999999" points="419,-19 339,-19 339,0 419,0 419,-19"/>
<text text-anchor="middle" x="379" y="-7" font-family="Helvetica,sans-Serif" font-size="10.00">libultraship.h</text>
</a>
</g>
</g>
<!-- Node1&#45;&gt;Node2 -->
<g id="edge1_Node000001_Node000002" class="edge">
<title>Node1&#45;&gt;Node2</title>
<g id="a_edge1_Node000001_Node000002"><a xlink:title=" ">
<path fill="none" stroke="#63b8ff" d="M1002.52,-363.75C1122.74,-357.29 1400,-333.61 1400,-252.5 1400,-252.5 1400,-252.5 1400,-129.5 1400,-34.64 1292.86,-74.34 1200,-55 1051.61,-24.09 584.42,-13.84 429.48,-11.24"/>
<polygon fill="#63b8ff" stroke="#63b8ff" points="429.36,-7.74 419.3,-11.08 429.24,-14.74 429.36,-7.74"/>
</a>
</g>
</g>
<!-- Node3 -->
<g id="Node000003" class="node">
<title>Node3</title>
<g id="a_Node000003"><a xlink:href="Course_8h.html" target="_top" xlink:title=" ">
<polygon fill="white" stroke="#666666" points="910.5,-316 851.5,-316 851.5,-297 910.5,-297 910.5,-316"/>
<text text-anchor="middle" x="881" y="-304" font-family="Helvetica,sans-Serif" font-size="10.00">Course.h</text>
</a>
</g>
</g>
<!-- Node1&#45;&gt;Node3 -->
<g id="edge2_Node000001_Node000003" class="edge">
<title>Node1&#45;&gt;Node3</title>
<g id="a_edge2_Node000001_Node000003"><a xlink:title=" ">
<path fill="none" stroke="#63b8ff" d="M931.78,-351.84C921.76,-343.09 908.89,-331.85 898.62,-322.88"/>
<polygon fill="#63b8ff" stroke="#63b8ff" points="900.87,-320.21 891.04,-316.27 896.27,-325.48 900.87,-320.21"/>
</a>
</g>
</g>
<!-- Node6 -->
<g id="Node000006" class="node">
<title>Node6</title>
<g id="a_Node000006"><a xlink:href="camera_8h.html" target="_top" xlink:title=" ">
<polygon fill="white" stroke="#666666" points="590,-206 528,-206 528,-187 590,-187 590,-206"/>
<text text-anchor="middle" x="559" y="-194" font-family="Helvetica,sans-Serif" font-size="10.00">camera.h</text>
</a>
</g>
</g>
<!-- Node1&#45;&gt;Node6 -->
<g id="edge61_Node000001_Node000006" class="edge">
<title>Node1&#45;&gt;Node6</title>
<g id="a_edge61_Node000001_Node000006"><a xlink:title=" ">
<path fill="none" stroke="#63b8ff" d="M893.41,-359.17C796.85,-345.85 602.16,-313.1 561,-261 551.18,-248.57 551.75,-230.1 554.14,-216.28"/>
<polygon fill="#63b8ff" stroke="#63b8ff" points="557.58,-216.92 556.29,-206.4 550.74,-215.43 557.58,-216.92"/>
</a>
</g>
</g>
<!-- Node8 -->
<g id="Node000008" class="node">
<title>Node8</title>
<g id="a_Node000008"><a xlink:href="course__offsets_8h.html" target="_top" xlink:title=" ">
<polygon fill="white" stroke="#666666" points="510,-206 414,-206 414,-187 510,-187 510,-206"/>
<text text-anchor="middle" x="462" y="-194" font-family="Helvetica,sans-Serif" font-size="10.00">course_offsets.h</text>
</a>
</g>
</g>
<!-- Node1&#45;&gt;Node8 -->
<g id="edge60_Node000001_Node000008" class="edge">
<title>Node1&#45;&gt;Node8</title>
<g id="a_edge60_Node000001_Node000008"><a xlink:title=" ">
<path fill="none" stroke="#63b8ff" d="M893.43,-363.73C826.79,-359.62 711.44,-348.1 618,-316 570.76,-299.77 559.12,-292.06 520,-261 502.54,-247.14 485.72,-227.85 474.73,-214.18"/>
<polygon fill="#63b8ff" stroke="#63b8ff" points="477.33,-211.82 468.4,-206.11 471.82,-216.14 477.33,-211.82"/>
</a>
</g>
</g>
<!-- Node14 -->
<g id="Node000014" class="node">
<title>Node14</title>
<g id="a_Node000014"><a xlink:href="src_2data_2some__data_8h.html" target="_top" xlink:title=" ">
<polygon fill="white" stroke="#666666" points="1313,-261 1209,-261 1209,-242 1313,-242 1313,-261"/>
<text text-anchor="middle" x="1261" y="-249" font-family="Helvetica,sans-Serif" font-size="10.00">data/some_data.h</text>
</a>
</g>
</g>
<!-- Node1&#45;&gt;Node14 -->
<g id="edge62_Node000001_Node000014" class="edge">
<title>Node1&#45;&gt;Node14</title>
<g id="a_edge62_Node000001_Node000014"><a xlink:title=" ">
<path fill="none" stroke="#63b8ff" d="M986.69,-351.97C1048.7,-329.49 1169.25,-285.77 1227.67,-264.59"/>
<polygon fill="#63b8ff" stroke="#63b8ff" points="1228.95,-267.84 1237.16,-261.14 1226.57,-261.26 1228.95,-267.84"/>
</a>
</g>
</g>
<!-- Node16 -->
<g id="Node000016" class="node">
<title>Node16</title>
<g id="a_Node000016"><a xlink:href="objects_8h.html" target="_top" xlink:title=" ">
<polygon fill="white" stroke="#666666" points="1371.5,-206 1310.5,-206 1310.5,-187 1371.5,-187 1371.5,-206"/>
<text text-anchor="middle" x="1341" y="-194" font-family="Helvetica,sans-Serif" font-size="10.00">objects.h</text>
</a>
</g>
</g>
<!-- Node1&#45;&gt;Node16 -->
<g id="edge63_Node000001_Node000016" class="edge">
<title>Node1&#45;&gt;Node16</title>
<g id="a_edge63_Node000001_Node000016"><a xlink:title=" ">
<path fill="none" stroke="#63b8ff" d="M1002.76,-366.3C1083.65,-363.71 1234.88,-346.75 1322,-261 1333.91,-249.28 1338.42,-230.43 1340.09,-216.31"/>
<polygon fill="#63b8ff" stroke="#63b8ff" points="1343.59,-216.47 1340.92,-206.22 1336.62,-215.9 1343.59,-216.47"/>
</a>
</g>
</g>
<!-- Node21 -->
<g id="Node000021" class="node">
<title>Node21</title>
<g id="a_Node000021"><a xlink:href="path__spawn__metadata_8h.html" target="_top" xlink:title=" ">
<polygon fill="white" stroke="#666666" points="1152.5,-261 1015.5,-261 1015.5,-242 1152.5,-242 1152.5,-261"/>
<text text-anchor="middle" x="1084" y="-249" font-family="Helvetica,sans-Serif" font-size="10.00">path_spawn_metadata.h</text>
</a>
</g>
</g>
<!-- Node1&#45;&gt;Node21 -->
<g id="edge64_Node000001_Node000021" class="edge">
<title>Node1&#45;&gt;Node21</title>
<g id="a_edge64_Node000001_Node000021"><a xlink:title=" ">
<path fill="none" stroke="#63b8ff" d="M964.95,-351.85C990.65,-330.41 1039.28,-289.82 1065.74,-267.74"/>
<polygon fill="#63b8ff" stroke="#63b8ff" points="1068.06,-270.37 1073.49,-261.27 1063.57,-264.99 1068.06,-270.37"/>
</a>
</g>
</g>
<!-- Node25 -->
<g id="Node000025" class="node">
<title>Node25</title>
<g id="a_Node000025"><a xlink:href="frappe__snowland__vertices_8h.html" target="_top" xlink:title=" ">
<polygon fill="white" stroke="#666666" points="291.5,-151 154.5,-151 154.5,-110 291.5,-110 291.5,-151"/>
<text text-anchor="start" x="162.5" y="-139" font-family="Helvetica,sans-Serif" font-size="10.00">assets/models/tracks</text>
<text text-anchor="start" x="162.5" y="-128" font-family="Helvetica,sans-Serif" font-size="10.00">/frappe_snowland/frappe</text>
<text text-anchor="middle" x="223" y="-117" font-family="Helvetica,sans-Serif" font-size="10.00">_snowland_vertices.h</text>
</a>
</g>
</g>
<!-- Node1&#45;&gt;Node25 -->
<g id="edge48_Node000001_Node000025" class="edge">
<title>Node1&#45;&gt;Node25</title>
<g id="a_edge48_Node000001_Node000025"><a xlink:title=" ">
<path fill="none" stroke="#63b8ff" d="M893.32,-362.7C793.18,-356.16 584.37,-340.08 516,-316 411,-279.02 304.58,-198.99 253.75,-157.55"/>
<polygon fill="#63b8ff" stroke="#63b8ff" points="255.73,-154.65 245.79,-151 251.29,-160.06 255.73,-154.65"/>
</a>
</g>
</g>
<!-- Node26 -->
<g id="Node000026" class="node">
<title>Node26</title>
<g id="a_Node000026"><a xlink:href="frappe__snowland__displaylists_8h.html" target="_top" xlink:title=" ">
<polygon fill="white" stroke="#666666" points="448,-151 310,-151 310,-110 448,-110 448,-151"/>
<text text-anchor="start" x="318" y="-139" font-family="Helvetica,sans-Serif" font-size="10.00">assets/models/tracks</text>
<text text-anchor="start" x="318" y="-128" font-family="Helvetica,sans-Serif" font-size="10.00">/frappe_snowland/frappe</text>
<text text-anchor="middle" x="379" y="-117" font-family="Helvetica,sans-Serif" font-size="10.00">_snowland_displaylists.h</text>
</a>
</g>
</g>
<!-- Node1&#45;&gt;Node26 -->
<g id="edge52_Node000001_Node000026" class="edge">
<title>Node1&#45;&gt;Node26</title>
<g id="a_edge52_Node000001_Node000026"><a xlink:title=" ">
<path fill="none" stroke="#63b8ff" d="M893.4,-366.65C817.65,-365.84 677.52,-358.04 567,-316 485.66,-285.06 458.02,-275.02 405,-206 394.99,-192.97 388.66,-175.81 384.75,-161.24"/>
<polygon fill="#63b8ff" stroke="#63b8ff" points="388.07,-160.08 382.31,-151.18 381.27,-161.72 388.07,-160.08"/>
</a>
</g>
</g>
<!-- Node27 -->
<g id="Node000027" class="node">
<title>Node27</title>
<g id="a_Node000027"><a xlink:href="models_2tracks_2frappe__snowland_2frappe__snowland__data_8h.html" target="_top" xlink:title=" ">
<polygon fill="white" stroke="#666666" points="679.5,-151 542.5,-151 542.5,-110 679.5,-110 679.5,-151"/>
<text text-anchor="start" x="550.5" y="-139" font-family="Helvetica,sans-Serif" font-size="10.00">assets/models/tracks</text>
<text text-anchor="start" x="550.5" y="-128" font-family="Helvetica,sans-Serif" font-size="10.00">/frappe_snowland/frappe</text>
<text text-anchor="middle" x="611" y="-117" font-family="Helvetica,sans-Serif" font-size="10.00">_snowland_data.h</text>
</a>
</g>
</g>
<!-- Node1&#45;&gt;Node27 -->
<g id="edge56_Node000001_Node000027" class="edge">
<title>Node1&#45;&gt;Node27</title>
<g id="a_edge56_Node000001_Node000027"><a xlink:title=" ">
<path fill="none" stroke="#63b8ff" d="M951.75,-351.56C959.57,-317.72 973.53,-232.67 930,-187 894.54,-149.79 757.1,-160.32 689.97,-150.8"/>
<polygon fill="#63b8ff" stroke="#63b8ff" points="690.26,-147.3 679.82,-149.09 689.1,-154.2 690.26,-147.3"/>
</a>
</g>
</g>
<!-- Node4 -->
<g id="Node000004" class="node">
<title>Node4</title>
<g id="a_Node000004"><a xlink:title=" ">
<polygon fill="#e0e0e0" stroke="#999999" points="803,-261 665,-261 665,-242 803,-242 803,-261"/>
<text text-anchor="middle" x="734" y="-249" font-family="Helvetica,sans-Serif" font-size="10.00">libultraship/libultraship.h</text>
</a>
</g>
</g>
<!-- Node3&#45;&gt;Node4 -->
<g id="edge3_Node000003_Node000004" class="edge">
<title>Node3&#45;&gt;Node4</title>
<g id="a_edge3_Node000003_Node000004"><a xlink:title=" ">
<path fill="none" stroke="#63b8ff" d="M857.38,-296.98C833.1,-288.23 795.05,-274.51 767.63,-264.62"/>
<polygon fill="#63b8ff" stroke="#63b8ff" points="768.64,-261.27 758.05,-261.17 766.27,-267.85 768.64,-261.27"/>
</a>
</g>
</g>
<!-- Node5 -->
<g id="Node000005" class="node">
<title>Node5</title>
<g id="a_Node000005"><a xlink:href="CoreMath_8h.html" target="_top" xlink:title=" ">
<polygon fill="white" stroke="#666666" points="117.5,-206 44.5,-206 44.5,-187 117.5,-187 117.5,-206"/>
<text text-anchor="middle" x="81" y="-194" font-family="Helvetica,sans-Serif" font-size="10.00">CoreMath.h</text>
</a>
</g>
</g>
<!-- Node3&#45;&gt;Node5 -->
<g id="edge4_Node000003_Node000005" class="edge">
<title>Node3&#45;&gt;Node5</title>
<g id="a_edge4_Node000003_Node000005"><a xlink:title=" ">
<path fill="none" stroke="#63b8ff" d="M851.49,-302.08C789.86,-294.88 642.99,-277.47 520,-261 377.01,-241.85 208.2,-216.72 127.94,-204.62"/>
<polygon fill="#63b8ff" stroke="#63b8ff" points="128.09,-201.1 117.68,-203.07 127.04,-208.02 128.09,-201.1"/>
</a>
</g>
</g>
<!-- Node3&#45;&gt;Node6 -->
<g id="edge6_Node000003_Node000006" class="edge">
<title>Node3&#45;&gt;Node6</title>
<g id="a_edge6_Node000003_Node000006"><a xlink:title=" ">
<path fill="none" stroke="#63b8ff" d="M851.41,-305.08C783.38,-303.51 618.57,-296.08 578,-261 565.22,-249.95 560.85,-230.7 559.45,-216.28"/>
<polygon fill="#63b8ff" stroke="#63b8ff" points="562.93,-215.79 558.85,-206.01 555.94,-216.19 562.93,-215.79"/>
</a>
</g>
</g>
<!-- Node7 -->
<g id="Node000007" class="node">
<title>Node7</title>
<g id="a_Node000007"><a xlink:href="common__structs_8h.html" target="_top" xlink:title=" ">
<polygon fill="white" stroke="#666666" points="1190.5,-74 1083.5,-74 1083.5,-55 1190.5,-55 1190.5,-74"/>
<text text-anchor="middle" x="1137" y="-62" font-family="Helvetica,sans-Serif" font-size="10.00">common_structs.h</text>
</a>
</g>
</g>
<!-- Node3&#45;&gt;Node7 -->
<g id="edge47_Node000003_Node000007" class="edge">
<title>Node3&#45;&gt;Node7</title>
<g id="a_edge47_Node000003_Node000007"><a xlink:title=" ">
<path fill="none" stroke="#63b8ff" d="M895.72,-297C945.78,-267.97 1107.13,-173.34 1122,-151 1135.28,-131.05 1137.85,-102.9 1137.89,-84.43"/>
<polygon fill="#63b8ff" stroke="#63b8ff" points="1141.39,-84.26 1137.66,-74.34 1134.39,-84.42 1141.39,-84.26"/>
</a>
</g>
</g>
<!-- Node3&#45;&gt;Node8 -->
<g id="edge10_Node000003_Node000008" class="edge">
<title>Node3&#45;&gt;Node8</title>
<g id="a_edge10_Node000003_Node000008"><a xlink:title=" ">
<path fill="none" stroke="#63b8ff" d="M851.3,-305.57C793.53,-304.81 662.8,-298.65 561,-261 530.25,-249.63 499.13,-227.54 480.19,-212.65"/>
<polygon fill="#63b8ff" stroke="#63b8ff" points="482.15,-209.73 472.17,-206.19 477.76,-215.19 482.15,-209.73"/>
</a>
</g>
</g>
<!-- Node3&#45;&gt;Node14 -->
<g id="edge19_Node000003_Node000014" class="edge">
<title>Node3&#45;&gt;Node14</title>
<g id="a_edge19_Node000003_Node000014"><a xlink:title=" ">
<path fill="none" stroke="#63b8ff" d="M910.5,-301.39C972.19,-292.78 1115.95,-272.73 1198.92,-261.16"/>
<polygon fill="#63b8ff" stroke="#63b8ff" points="1199.56,-264.6 1208.98,-259.76 1198.59,-257.67 1199.56,-264.6"/>
</a>
</g>
</g>
<!-- Node17 -->
<g id="Node000017" class="node">
<title>Node17</title>
<g id="a_Node000017"><a xlink:href="defines_8h.html" target="_top" xlink:title=" ">
<polygon fill="white" stroke="#666666" points="882.5,-261 821.5,-261 821.5,-242 882.5,-242 882.5,-261"/>
<text text-anchor="middle" x="852" y="-249" font-family="Helvetica,sans-Serif" font-size="10.00">defines.h</text>
</a>
</g>
</g>
<!-- Node3&#45;&gt;Node17 -->
<g id="edge27_Node000003_Node000017" class="edge">
<title>Node3&#45;&gt;Node17</title>
<g id="a_edge27_Node000003_Node000017"><a xlink:title=" ">
<path fill="none" stroke="#63b8ff" d="M876.21,-296.75C872.24,-289.49 866.47,-278.95 861.57,-269.98"/>
<polygon fill="#63b8ff" stroke="#63b8ff" points="864.57,-268.18 856.7,-261.09 858.43,-271.54 864.57,-268.18"/>
</a>
</g>
</g>
<!-- Node18 -->
<g id="Node000018" class="node">
<title>Node18</title>
<g id="a_Node000018"><a xlink:href="bomb__kart_8h.html" target="_top" xlink:title=" ">
<polygon fill="white" stroke="#666666" points="920.5,-206 843.5,-206 843.5,-187 920.5,-187 920.5,-206"/>
<text text-anchor="middle" x="882" y="-194" font-family="Helvetica,sans-Serif" font-size="10.00">bomb_kart.h</text>
</a>
</g>
</g>
<!-- Node3&#45;&gt;Node18 -->
<g id="edge28_Node000003_Node000018" class="edge">
<title>Node3&#45;&gt;Node18</title>
<g id="a_edge28_Node000003_Node000018"><a xlink:title=" ">
<path fill="none" stroke="#63b8ff" d="M883.83,-296.75C886.55,-287.86 890.46,-273.64 892,-261 893.86,-245.75 890.82,-228.54 887.62,-215.88"/>
<polygon fill="#63b8ff" stroke="#63b8ff" points="890.95,-214.79 884.89,-206.1 884.21,-216.67 890.95,-214.79"/>
</a>
</g>
</g>
<!-- Node3&#45;&gt;Node21 -->
<g id="edge35_Node000003_Node000021" class="edge">
<title>Node3&#45;&gt;Node21</title>
<g id="a_edge35_Node000003_Node000021"><a xlink:title=" ">
<path fill="none" stroke="#63b8ff" d="M910.52,-297.79C945.01,-288.79 1002.36,-273.81 1041.61,-263.57"/>
<polygon fill="#63b8ff" stroke="#63b8ff" points="1042.63,-266.92 1051.42,-261.01 1040.86,-260.15 1042.63,-266.92"/>
</a>
</g>
</g>
<!-- Node22 -->
<g id="Node000022" class="node">
<title>Node22</title>
<g id="a_Node000022"><a xlink:href="waypoints_8h.html" target="_top" xlink:title=" ">
<polygon fill="white" stroke="#666666" points="1178,-206 1102,-206 1102,-187 1178,-187 1178,-206"/>
<text text-anchor="middle" x="1140" y="-194" font-family="Helvetica,sans-Serif" font-size="10.00">waypoints.h</text>
</a>
</g>
</g>
<!-- Node3&#45;&gt;Node22 -->
<g id="edge45_Node000003_Node000022" class="edge">
<title>Node3&#45;&gt;Node22</title>
<g id="a_edge45_Node000003_Node000022"><a xlink:title=" ">
<path fill="none" stroke="#63b8ff" d="M910.85,-305.44C976.46,-304.59 1129.92,-298.56 1162,-261 1173.31,-247.75 1163.95,-228.36 1154.18,-214.5"/>
<polygon fill="#63b8ff" stroke="#63b8ff" points="1156.76,-212.12 1147.91,-206.3 1151.2,-216.37 1156.76,-212.12"/>
</a>
</g>
</g>
<!-- Node24 -->
<g id="Node000024" class="node">
<title>Node24</title>
<g id="a_Node000024"><a xlink:href="sounds_8h.html" target="_top" xlink:title=" ">
<polygon fill="white" stroke="#666666" points="647,-261 587,-261 587,-242 647,-242 647,-261"/>
<text text-anchor="middle" x="617" y="-249" font-family="Helvetica,sans-Serif" font-size="10.00">sounds.h</text>
</a>
</g>
</g>
<!-- Node3&#45;&gt;Node24 -->
<g id="edge46_Node000003_Node000024" class="edge">
<title>Node3&#45;&gt;Node24</title>
<g id="a_edge46_Node000003_Node000024"><a xlink:title=" ">
<path fill="none" stroke="#63b8ff" d="M851.48,-299.85C810.29,-291.93 732.99,-276.91 657.39,-261.26"/>
<polygon fill="#63b8ff" stroke="#63b8ff" points="657.72,-257.75 647.22,-259.15 656.3,-264.61 657.72,-257.75"/>
</a>
</g>
</g>
<!-- Node5&#45;&gt;Node2 -->
<g id="edge5_Node000005_Node000002" class="edge">
<title>Node5&#45;&gt;Node2</title>
<g id="a_edge5_Node000005_Node000002"><a xlink:title=" ">
<path fill="none" stroke="#63b8ff" d="M59.21,-186.87C44.36,-179.69 25.84,-167.91 17,-151 -2.83,-113.06 -5.57,-84.98 25,-55 66.96,-13.84 241.27,-9.25 328.62,-9.63"/>
<polygon fill="#63b8ff" stroke="#63b8ff" points="328.81,-13.13 338.83,-9.7 328.86,-6.13 328.81,-13.13"/>
</a>
</g>
</g>
<!-- Node6&#45;&gt;Node2 -->
<g id="edge7_Node000006_Node000002" class="edge">
<title>Node6&#45;&gt;Node2</title>
<g id="a_edge7_Node000006_Node000002"><a xlink:title=" ">
<path fill="none" stroke="#63b8ff" d="M527.63,-188.43C524.72,-187.9 521.81,-187.41 519,-187 469.91,-179.83 107.63,-187.46 74,-151 45.07,-119.64 46.09,-87.27 74,-55 106.32,-17.62 250.78,-11.01 328.73,-10.23"/>
<polygon fill="#63b8ff" stroke="#63b8ff" points="328.84,-13.73 338.81,-10.16 328.79,-6.73 328.84,-13.73"/>
</a>
</g>
</g>
<!-- Node6&#45;&gt;Node7 -->
<g id="edge8_Node000006_Node000007" class="edge">
<title>Node6&#45;&gt;Node7</title>
<g id="a_edge8_Node000006_Node000007"><a xlink:title=" ">
<path fill="none" stroke="#63b8ff" d="M590.31,-194.15C693.63,-189.49 1019.52,-173.16 1061,-151 1081.63,-139.98 1078.52,-127.54 1094,-110 1102.62,-100.23 1112.72,-89.73 1120.96,-81.39"/>
<polygon fill="#63b8ff" stroke="#63b8ff" points="1123.61,-83.69 1128.19,-74.14 1118.65,-78.75 1123.61,-83.69"/>
</a>
</g>
</g>
<!-- Node7&#45;&gt;Node2 -->
<g id="edge9_Node000007_Node000002" class="edge">
<title>Node7&#45;&gt;Node2</title>
<g id="a_edge9_Node000007_Node000002"><a xlink:title=" ">
<path fill="none" stroke="#63b8ff" d="M1083.4,-59.75C943.06,-49.94 566.31,-23.6 429.52,-14.03"/>
<polygon fill="#63b8ff" stroke="#63b8ff" points="429.54,-10.53 419.32,-13.32 429.05,-17.51 429.54,-10.53"/>
</a>
</g>
</g>
<!-- Node8&#45;&gt;Node2 -->
<g id="edge11_Node000008_Node000002" class="edge">
<title>Node8&#45;&gt;Node2</title>
<g id="a_edge11_Node000008_Node000002"><a xlink:title=" ">
<path fill="none" stroke="#63b8ff" d="M413.91,-193.96C308.71,-190.11 65.58,-178.32 41,-151 12.46,-119.28 12.87,-87.08 41,-55 59.65,-33.73 238.95,-19.41 328.55,-13.52"/>
<polygon fill="#63b8ff" stroke="#63b8ff" points="329,-17 338.76,-12.86 328.55,-10.02 329,-17"/>
</a>
</g>
</g>
<!-- Node9 -->
<g id="Node000009" class="node">
<title>Node9</title>
<g id="a_Node000009"><a xlink:title=" ">
<polygon fill="#e0e0e0" stroke="#999999" points="90,-19 0,-19 0,0 90,0 90,-19"/>
<text text-anchor="middle" x="45" y="-7" font-family="Helvetica,sans-Serif" font-size="10.00">libultra/types.h</text>
</a>
</g>
</g>
<!-- Node8&#45;&gt;Node9 -->
<g id="edge12_Node000008_Node000009" class="edge">
<title>Node8&#45;&gt;Node9</title>
<g id="a_edge12_Node000008_Node000009"><a xlink:title=" ">
<path fill="none" stroke="#63b8ff" d="M413.65,-194.25C303.87,-190.92 43.24,-180 17,-151 -14.34,-116.37 15.36,-56.95 33.42,-27.74"/>
<polygon fill="#63b8ff" stroke="#63b8ff" points="36.53,-29.38 38.99,-19.07 30.64,-25.59 36.53,-29.38"/>
</a>
</g>
</g>
<!-- Node10 -->
<g id="Node000010" class="node">
<title>Node10</title>
<g id="a_Node000010"><a xlink:title=" ">
<polygon fill="#e0e0e0" stroke="#999999" points="500,-74 422,-74 422,-55 500,-55 500,-74"/>
<text text-anchor="middle" x="461" y="-62" font-family="Helvetica,sans-Serif" font-size="10.00">libultra/gbi.h</text>
</a>
</g>
</g>
<!-- Node8&#45;&gt;Node10 -->
<g id="edge13_Node000008_Node000010" class="edge">
<title>Node8&#45;&gt;Node10</title>
<g id="a_edge13_Node000008_Node000010"><a xlink:title=" ">
<path fill="none" stroke="#63b8ff" d="M461.93,-186.97C461.78,-166.32 461.37,-113.22 461.15,-84.54"/>
<polygon fill="#63b8ff" stroke="#63b8ff" points="464.64,-84.2 461.07,-74.23 457.64,-84.26 464.64,-84.2"/>
</a>
</g>
</g>
<!-- Node11 -->
<g id="Node000011" class="node">
<title>Node11</title>
<g id="a_Node000011"><a xlink:href="other__textures_8h.html" target="_top" xlink:title=" ">
<polygon fill="white" stroke="#666666" points="958,-145.5 838,-145.5 838,-115.5 958,-115.5 958,-145.5"/>
<text text-anchor="start" x="846" y="-133.5" font-family="Helvetica,sans-Serif" font-size="10.00">assets/textures/other</text>
<text text-anchor="middle" x="898" y="-122.5" font-family="Helvetica,sans-Serif" font-size="10.00">_textures.h</text>
</a>
</g>
</g>
<!-- Node8&#45;&gt;Node11 -->
<g id="edge14_Node000008_Node000011" class="edge">
<title>Node8&#45;&gt;Node11</title>
<g id="a_edge14_Node000008_Node000011"><a xlink:title=" ">
<path fill="none" stroke="#63b8ff" d="M510.19,-188.2C513.17,-187.79 516.12,-187.38 519,-187 656.5,-168.77 692.94,-177.95 829,-151 833.38,-150.13 837.88,-149.13 842.39,-148.04"/>
<polygon fill="#63b8ff" stroke="#63b8ff" points="843.39,-151.39 852.22,-145.54 841.67,-144.61 843.39,-151.39"/>
</a>
</g>
</g>
<!-- Node13 -->
<g id="Node000013" class="node">
<title>Node13</title>
<g id="a_Node000013"><a xlink:href="animation_8h.html" target="_top" xlink:title=" ">
<polygon fill="white" stroke="#666666" points="1051.5,-140 976.5,-140 976.5,-121 1051.5,-121 1051.5,-140"/>
<text text-anchor="middle" x="1014" y="-128" font-family="Helvetica,sans-Serif" font-size="10.00">animation.h</text>
</a>
</g>
</g>
<!-- Node8&#45;&gt;Node13 -->
<g id="edge17_Node000008_Node000013" class="edge">
<title>Node8&#45;&gt;Node13</title>
<g id="a_edge17_Node000008_Node000013"><a xlink:title=" ">
<path fill="none" stroke="#63b8ff" d="M510.17,-188.08C513.16,-187.69 516.12,-187.33 519,-187 717.45,-164.26 772.82,-197.85 967,-151 973.92,-149.33 981.15,-146.78 987.8,-144.06"/>
<polygon fill="#63b8ff" stroke="#63b8ff" points="989.25,-147.25 997.03,-140.06 986.46,-140.83 989.25,-147.25"/>
</a>
</g>
</g>
<!-- Node11&#45;&gt;Node2 -->
<g id="edge15_Node000011_Node000002" class="edge">
<title>Node11&#45;&gt;Node2</title>
<g id="a_edge15_Node000011_Node000002"><a xlink:title=" ">
<path fill="none" stroke="#63b8ff" d="M865.3,-115.38C825.04,-98.54 754.2,-70.71 691,-55 600.4,-32.48 491.97,-20.21 429.72,-14.53"/>
<polygon fill="#63b8ff" stroke="#63b8ff" points="429.67,-11.02 419.4,-13.61 429.05,-17.99 429.67,-11.02"/>
</a>
</g>
</g>
<!-- Node12 -->
<g id="Node000012" class="node">
<title>Node12</title>
<g id="a_Node000012"><a xlink:href="align__asset__macro_8h.html" target="_top" xlink:title=" ">
<polygon fill="white" stroke="#666666" points="635.5,-74 518.5,-74 518.5,-55 635.5,-55 635.5,-74"/>
<text text-anchor="middle" x="577" y="-62" font-family="Helvetica,sans-Serif" font-size="10.00">align_asset_macro.h</text>
</a>
</g>
</g>
<!-- Node11&#45;&gt;Node12 -->
<g id="edge16_Node000011_Node000012" class="edge">
<title>Node11&#45;&gt;Node12</title>
<g id="a_edge16_Node000011_Node000012"><a xlink:title=" ">
<path fill="none" stroke="#63b8ff" d="M850.65,-115.44C843.43,-113.49 836.04,-111.61 829,-110 767.09,-95.82 695.73,-83.6 644.79,-75.57"/>
<polygon fill="#63b8ff" stroke="#63b8ff" points="645.3,-72.11 634.88,-74.02 644.22,-79.03 645.3,-72.11"/>
</a>
</g>
</g>
<!-- Node13&#45;&gt;Node7 -->
<g id="edge18_Node000013_Node000007" class="edge">
<title>Node13&#45;&gt;Node7</title>
<g id="a_edge18_Node000013_Node000007"><a xlink:title=" ">
<path fill="none" stroke="#63b8ff" d="M1030.59,-120.87C1051.31,-110.09 1087,-91.52 1111.28,-78.88"/>
<polygon fill="#63b8ff" stroke="#63b8ff" points="1113.03,-81.92 1120.28,-74.2 1109.8,-75.71 1113.03,-81.92"/>
</a>
</g>
</g>
<!-- Node14&#45;&gt;Node10 -->
<g id="edge20_Node000014_Node000010" class="edge">
<title>Node14&#45;&gt;Node10</title>
<g id="a_edge20_Node000014_Node000010"><a xlink:title=" ">
<path fill="none" stroke="#63b8ff" d="M1254.36,-241.95C1242.6,-227.55 1216.53,-198.87 1187,-187 1051.94,-132.73 663.23,-216 533,-151 503.46,-136.25 481.38,-103.34 469.89,-82.92"/>
<polygon fill="#63b8ff" stroke="#63b8ff" points="472.93,-81.19 465.12,-74.04 466.77,-84.5 472.93,-81.19"/>
</a>
</g>
</g>
<!-- Node14&#45;&gt;Node11 -->
<g id="edge23_Node000014_Node000011" class="edge">
<title>Node14&#45;&gt;Node11</title>
<g id="a_edge23_Node000014_Node000011"><a xlink:title=" ">
<path fill="none" stroke="#63b8ff" d="M1258.09,-241.81C1252.88,-227.72 1240.55,-200.16 1220,-187 1124.73,-125.98 1078.73,-174.23 968,-151 963.83,-150.13 959.55,-149.14 955.25,-148.1"/>
<polygon fill="#63b8ff" stroke="#63b8ff" points="955.79,-144.62 945.24,-145.56 954.07,-151.41 955.79,-144.62"/>
</a>
</g>
</g>
<!-- Node15 -->
<g id="Node000015" class="node">
<title>Node15</title>
<g id="a_Node000015"><a xlink:href="spline_8h.html" target="_top" xlink:title=" ">
<polygon fill="white" stroke="#666666" points="1315.5,-140 1260.5,-140 1260.5,-121 1315.5,-121 1315.5,-140"/>
<text text-anchor="middle" x="1288" y="-128" font-family="Helvetica,sans-Serif" font-size="10.00">spline.h</text>
</a>
</g>
</g>
<!-- Node14&#45;&gt;Node15 -->
<g id="edge21_Node000014_Node000015" class="edge">
<title>Node14&#45;&gt;Node15</title>
<g id="a_edge21_Node000014_Node000015"><a xlink:title=" ">
<path fill="none" stroke="#63b8ff" d="M1262.94,-241.94C1267.28,-222.82 1277.84,-176.27 1283.77,-150.12"/>
<polygon fill="#63b8ff" stroke="#63b8ff" points="1287.2,-150.83 1286,-140.3 1280.38,-149.28 1287.2,-150.83"/>
</a>
</g>
</g>
<!-- Node14&#45;&gt;Node16 -->
<g id="edge24_Node000014_Node000016" class="edge">
<title>Node14&#45;&gt;Node16</title>
<g id="a_edge24_Node000014_Node000016"><a xlink:title=" ">
<path fill="none" stroke="#63b8ff" d="M1273.85,-241.98C1286.14,-233.84 1304.91,-221.41 1319.48,-211.76"/>
<polygon fill="#63b8ff" stroke="#63b8ff" points="1321.51,-214.61 1327.91,-206.17 1317.64,-208.78 1321.51,-214.61"/>
</a>
</g>
</g>
<!-- Node15&#45;&gt;Node7 -->
<g id="edge22_Node000015_Node000007" class="edge">
<title>Node15&#45;&gt;Node7</title>
<g id="a_edge22_Node000015_Node000007"><a xlink:title=" ">
<path fill="none" stroke="#63b8ff" d="M1270.1,-120.96C1262.68,-117.48 1253.96,-113.47 1246,-110 1220,-98.67 1190.17,-86.55 1168.29,-77.82"/>
<polygon fill="#63b8ff" stroke="#63b8ff" points="1169.43,-74.51 1158.84,-74.07 1166.84,-81.01 1169.43,-74.51"/>
</a>
</g>
</g>
<!-- Node16&#45;&gt;Node7 -->
<g id="edge26_Node000016_Node000007" class="edge">
<title>Node16&#45;&gt;Node7</title>
<g id="a_edge26_Node000016_Node000007"><a xlink:title=" ">
<path fill="none" stroke="#63b8ff" d="M1342.17,-186.88C1343.97,-169.76 1345.32,-131.31 1325,-110 1307.93,-92.1 1248.11,-80.05 1200.48,-73.06"/>
<polygon fill="#63b8ff" stroke="#63b8ff" points="1200.91,-69.58 1190.52,-71.64 1199.93,-76.51 1200.91,-69.58"/>
</a>
</g>
</g>
<!-- Node16&#45;&gt;Node15 -->
<g id="edge25_Node000016_Node000015" class="edge">
<title>Node16&#45;&gt;Node15</title>
<g id="a_edge25_Node000016_Node000015"><a xlink:title=" ">
<path fill="none" stroke="#63b8ff" d="M1333.85,-186.87C1325.68,-177 1312.11,-160.61 1301.84,-148.22"/>
<polygon fill="#63b8ff" stroke="#63b8ff" points="1304.45,-145.87 1295.37,-140.41 1299.06,-150.34 1304.45,-145.87"/>
</a>
</g>
</g>
<!-- Node18&#45;&gt;Node7 -->
<g id="edge29_Node000018_Node000007" class="edge">
<title>Node18&#45;&gt;Node7</title>
<g id="a_edge29_Node000018_Node000007"><a xlink:title=" ">
<path fill="none" stroke="#63b8ff" d="M920.56,-189.27C977.89,-179.72 1080.36,-161.49 1094,-151 1115.68,-134.32 1127.25,-103.74 1132.76,-84.03"/>
<polygon fill="#63b8ff" stroke="#63b8ff" points="1136.21,-84.67 1135.27,-74.12 1129.42,-82.95 1136.21,-84.67"/>
</a>
</g>
</g>
<!-- Node19 -->
<g id="Node000019" class="node">
<title>Node19</title>
<g id="a_Node000019"><a xlink:href="mk64_8h.html" target="_top" xlink:title=" ">
<polygon fill="white" stroke="#666666" points="136.5,-140 83.5,-140 83.5,-121 136.5,-121 136.5,-140"/>
<text text-anchor="middle" x="110" y="-128" font-family="Helvetica,sans-Serif" font-size="10.00">mk64.h</text>
</a>
</g>
</g>
<!-- Node18&#45;&gt;Node19 -->
<g id="edge30_Node000018_Node000019" class="edge">
<title>Node18&#45;&gt;Node19</title>
<g id="a_edge30_Node000018_Node000019"><a xlink:title=" ">
<path fill="none" stroke="#63b8ff" d="M843.03,-194.16C700.47,-189.13 212.13,-170.62 145,-151 140.37,-149.65 135.68,-147.59 131.3,-145.32"/>
<polygon fill="#63b8ff" stroke="#63b8ff" points="132.77,-142.13 122.35,-140.18 129.28,-148.2 132.77,-142.13"/>
</a>
</g>
</g>
<!-- Node19&#45;&gt;Node2 -->
<g id="edge31_Node000019_Node000002" class="edge">
<title>Node19&#45;&gt;Node2</title>
<g id="a_edge31_Node000019_Node000002"><a xlink:title=" ">
<path fill="none" stroke="#63b8ff" d="M124.46,-120.99C130.7,-117.44 138.13,-113.36 145,-110 215.92,-75.29 301.98,-40.5 347.39,-22.7"/>
<polygon fill="#63b8ff" stroke="#63b8ff" points="348.67,-25.96 356.71,-19.06 346.12,-19.44 348.67,-25.96"/>
</a>
</g>
</g>
<!-- Node19&#45;&gt;Node10 -->
<g id="edge34_Node000019_Node000010" class="edge">
<title>Node19&#45;&gt;Node10</title>
<g id="a_edge34_Node000019_Node000010"><a xlink:title=" ">
<path fill="none" stroke="#63b8ff" d="M122.76,-120.89C129.18,-116.96 137.22,-112.61 145,-110 235.79,-79.5 348.06,-69.9 411.4,-66.88"/>
<polygon fill="#63b8ff" stroke="#63b8ff" points="411.68,-70.37 421.51,-66.44 411.37,-63.38 411.68,-70.37"/>
</a>
</g>
</g>
<!-- Node20 -->
<g id="Node000020" class="node">
<title>Node20</title>
<g id="a_Node000020"><a xlink:href="string_8h.html" target="_top" xlink:title=" ">
<polygon fill="white" stroke="#666666" points="136.5,-74 83.5,-74 83.5,-55 136.5,-55 136.5,-74"/>
<text text-anchor="middle" x="110" y="-62" font-family="Helvetica,sans-Serif" font-size="10.00">string.h</text>
</a>
</g>
</g>
<!-- Node19&#45;&gt;Node20 -->
<g id="edge32_Node000019_Node000020" class="edge">
<title>Node19&#45;&gt;Node20</title>
<g id="a_edge32_Node000019_Node000020"><a xlink:title=" ">
<path fill="none" stroke="#63b8ff" d="M110,-120.87C110,-111.66 110,-96.79 110,-84.77"/>
<polygon fill="#63b8ff" stroke="#63b8ff" points="113.5,-84.41 110,-74.41 106.5,-84.41 113.5,-84.41"/>
</a>
</g>
</g>
<!-- Node20&#45;&gt;Node9 -->
<g id="edge33_Node000020_Node000009" class="edge">
<title>Node20&#45;&gt;Node9</title>
<g id="a_edge33_Node000020_Node000009"><a xlink:title=" ">
<path fill="none" stroke="#63b8ff" d="M99.56,-54.98C89.85,-47.07 75.18,-35.11 63.5,-25.58"/>
<polygon fill="#63b8ff" stroke="#63b8ff" points="65.6,-22.78 55.63,-19.17 61.17,-28.2 65.6,-22.78"/>
</a>
</g>
</g>
<!-- Node21&#45;&gt;Node7 -->
<g id="edge38_Node000021_Node000007" class="edge">
<title>Node21&#45;&gt;Node7</title>
<g id="a_edge38_Node000021_Node000007"><a xlink:title=" ">
<path fill="none" stroke="#63b8ff" d="M1082.8,-241.73C1081.48,-228.51 1080.94,-203.29 1093,-187 1115.47,-156.63 1149.72,-182.87 1170,-151 1179.78,-135.63 1175.72,-127.3 1170,-110 1166.54,-99.54 1159.57,-89.53 1152.92,-81.66"/>
<polygon fill="#63b8ff" stroke="#63b8ff" points="1155.33,-79.1 1146.02,-74.04 1150.14,-83.8 1155.33,-79.1"/>
</a>
</g>
</g>
<!-- Node21&#45;&gt;Node18 -->
<g id="edge44_Node000021_Node000018" class="edge">
<title>Node21&#45;&gt;Node18</title>
<g id="a_edge44_Node000021_Node000018"><a xlink:title=" ">
<path fill="none" stroke="#63b8ff" d="M1051.55,-241.98C1017.04,-232.93 962.34,-218.58 924.44,-208.64"/>
<polygon fill="#63b8ff" stroke="#63b8ff" points="925.27,-205.23 914.71,-206.08 923.49,-212.01 925.27,-205.23"/>
</a>
</g>
</g>
<!-- Node21&#45;&gt;Node22 -->
<g id="edge36_Node000021_Node000022" class="edge">
<title>Node21&#45;&gt;Node22</title>
<g id="a_edge36_Node000021_Node000022"><a xlink:title=" ">
<path fill="none" stroke="#63b8ff" d="M1093,-241.98C1101.19,-234.23 1113.51,-222.58 1123.47,-213.14"/>
<polygon fill="#63b8ff" stroke="#63b8ff" points="1125.98,-215.59 1130.84,-206.17 1121.17,-210.5 1125.98,-215.59"/>
</a>
</g>
</g>
<!-- Node23 -->
<g id="Node000023" class="node">
<title>Node23</title>
<g id="a_Node000023"><a xlink:href="other_2common__data_8h.html" target="_top" xlink:title=" ">
<polygon fill="white" stroke="#666666" points="820,-145.5 698,-145.5 698,-115.5 820,-115.5 820,-145.5"/>
<text text-anchor="start" x="706" y="-133.5" font-family="Helvetica,sans-Serif" font-size="10.00">assets/other/common</text>
<text text-anchor="middle" x="759" y="-122.5" font-family="Helvetica,sans-Serif" font-size="10.00">_data.h</text>
</a>
</g>
</g>
<!-- Node21&#45;&gt;Node23 -->
<g id="edge39_Node000021_Node000023" class="edge">
<title>Node21&#45;&gt;Node23</title>
<g id="a_edge39_Node000021_Node000023"><a xlink:title=" ">
<path fill="none" stroke="#63b8ff" d="M1075.2,-241.56C1060.95,-227.63 1031.35,-200.91 1001,-187 930,-154.46 904.88,-169.49 829,-151 825.35,-150.11 821.61,-149.17 817.84,-148.19"/>
<polygon fill="#63b8ff" stroke="#63b8ff" points="818.41,-144.72 807.85,-145.55 816.62,-151.49 818.41,-144.72"/>
</a>
</g>
</g>
<!-- Node22&#45;&gt;Node7 -->
<g id="edge37_Node000022_Node000007" class="edge">
<title>Node22&#45;&gt;Node7</title>
<g id="a_edge37_Node000022_Node000007"><a xlink:title=" ">
<path fill="none" stroke="#63b8ff" d="M1163.78,-186.92C1179.43,-179.89 1198.67,-168.25 1208,-151 1216.67,-134.97 1216.82,-125.94 1208,-110 1200.16,-95.83 1185.71,-85.57 1171.89,-78.5"/>
<polygon fill="#63b8ff" stroke="#63b8ff" points="1173.05,-75.18 1162.51,-74.1 1170.08,-81.52 1173.05,-75.18"/>
</a>
</g>
</g>
<!-- Node23&#45;&gt;Node2 -->
<g id="edge41_Node000023_Node000002" class="edge">
<title>Node23&#45;&gt;Node2</title>
<g id="a_edge41_Node000023_Node000002"><a xlink:title=" ">
<path fill="none" stroke="#63b8ff" d="M745.19,-115.36C727.43,-98.1 694.81,-69.43 661,-55 584.66,-22.43 487.54,-13.43 429.48,-11.1"/>
<polygon fill="#63b8ff" stroke="#63b8ff" points="429.58,-7.6 419.46,-10.75 429.33,-14.6 429.58,-7.6"/>
</a>
</g>
</g>
<!-- Node23&#45;&gt;Node7 -->
<g id="edge42_Node000023_Node000007" class="edge">
<title>Node23&#45;&gt;Node7</title>
<g id="a_edge42_Node000023_Node000007"><a xlink:title=" ">
<path fill="none" stroke="#63b8ff" d="M806.24,-115.45C813.81,-113.46 821.59,-111.56 829,-110 912.76,-92.36 1010.81,-79.51 1073.38,-72.28"/>
<polygon fill="#63b8ff" stroke="#63b8ff" points="1073.96,-75.73 1083.49,-71.12 1073.16,-68.78 1073.96,-75.73"/>
</a>
</g>
</g>
<!-- Node23&#45;&gt;Node10 -->
<g id="edge40_Node000023_Node000010" class="edge">
<title>Node23&#45;&gt;Node10</title>
<g id="a_edge40_Node000023_Node000010"><a xlink:title=" ">
<path fill="none" stroke="#63b8ff" d="M710.55,-115.47C703.35,-113.54 696,-111.65 689,-110 655.75,-102.14 566.62,-85.19 510.16,-74.62"/>
<polygon fill="#63b8ff" stroke="#63b8ff" points="510.49,-71.12 500.01,-72.73 509.2,-78.01 510.49,-71.12"/>
</a>
</g>
</g>
<!-- Node23&#45;&gt;Node12 -->
<g id="edge43_Node000023_Node000012" class="edge">
<title>Node23&#45;&gt;Node12</title>
<g id="a_edge43_Node000023_Node000012"><a xlink:title=" ">
<path fill="none" stroke="#63b8ff" d="M719.06,-115.45C686.72,-104.08 641.66,-88.24 611.02,-77.46"/>
<polygon fill="#63b8ff" stroke="#63b8ff" points="611.82,-74.03 601.22,-74.02 609.49,-80.64 611.82,-74.03"/>
</a>
</g>
</g>
<!-- Node25&#45;&gt;Node2 -->
<g id="edge49_Node000025_Node000002" class="edge">
<title>Node25&#45;&gt;Node2</title>
<g id="a_edge49_Node000025_Node000002"><a xlink:title=" ">
<path fill="none" stroke="#63b8ff" d="M248.76,-109.85C279.84,-86.14 331.4,-46.81 359.41,-25.44"/>
<polygon fill="#63b8ff" stroke="#63b8ff" points="361.8,-28.02 367.63,-19.18 357.55,-22.46 361.8,-28.02"/>
</a>
</g>
</g>
<!-- Node25&#45;&gt;Node10 -->
<g id="edge50_Node000025_Node000010" class="edge">
<title>Node25&#45;&gt;Node10</title>
<g id="a_edge50_Node000025_Node000010"><a xlink:title=" ">
<path fill="none" stroke="#63b8ff" d="M291.52,-111.07C332.77,-99.98 383.94,-86.22 419.21,-76.74"/>
<polygon fill="#63b8ff" stroke="#63b8ff" points="420.41,-80.04 429.16,-74.06 418.59,-73.28 420.41,-80.04"/>
</a>
</g>
</g>
<!-- Node25&#45;&gt;Node12 -->
<g id="edge51_Node000025_Node000012" class="edge">
<title>Node25&#45;&gt;Node12</title>
<g id="a_edge51_Node000025_Node000012"><a xlink:title=" ">
<path fill="none" stroke="#63b8ff" d="M291.83,-111.95C294.92,-111.27 297.99,-110.62 301,-110 371.16,-95.6 452.14,-83.02 508.16,-74.94"/>
<polygon fill="#63b8ff" stroke="#63b8ff" points="508.92,-78.37 518.32,-73.48 507.92,-71.44 508.92,-78.37"/>
</a>
</g>
</g>
<!-- Node26&#45;&gt;Node2 -->
<g id="edge53_Node000026_Node000002" class="edge">
<title>Node26&#45;&gt;Node2</title>
<g id="a_edge53_Node000026_Node000002"><a xlink:title=" ">
<path fill="none" stroke="#63b8ff" d="M379,-109.85C379,-87.48 379,-51.19 379,-29.21"/>
<polygon fill="#63b8ff" stroke="#63b8ff" points="382.5,-29.18 379,-19.18 375.5,-29.18 382.5,-29.18"/>
</a>
</g>
</g>
<!-- Node26&#45;&gt;Node10 -->
<g id="edge54_Node000026_Node000010" class="edge">
<title>Node26&#45;&gt;Node10</title>
<g id="a_edge54_Node000026_Node000010"><a xlink:title=" ">
<path fill="none" stroke="#63b8ff" d="M404.05,-109.95C416.21,-100.46 430.59,-89.24 441.85,-80.44"/>
<polygon fill="#63b8ff" stroke="#63b8ff" points="444.05,-83.17 449.78,-74.26 439.74,-77.65 444.05,-83.17"/>
</a>
</g>
</g>
<!-- Node26&#45;&gt;Node12 -->
<g id="edge55_Node000026_Node000012" class="edge">
<title>Node26&#45;&gt;Node12</title>
<g id="a_edge55_Node000026_Node000012"><a xlink:title=" ">
<path fill="none" stroke="#63b8ff" d="M439.48,-109.95C472.6,-99.24 512.54,-86.34 540.82,-77.19"/>
<polygon fill="#63b8ff" stroke="#63b8ff" points="542.24,-80.41 550.68,-74.01 540.09,-73.75 542.24,-80.41"/>
</a>
</g>
</g>
<!-- Node27&#45;&gt;Node2 -->
<g id="edge57_Node000027_Node000002" class="edge">
<title>Node27&#45;&gt;Node2</title>
<g id="a_edge57_Node000027_Node000002"><a xlink:title=" ">
<path fill="none" stroke="#63b8ff" d="M631.03,-109.81C644.92,-93.75 658.69,-71.17 645,-55 617.91,-23.01 498.58,-14 429.3,-11.47"/>
<polygon fill="#63b8ff" stroke="#63b8ff" points="429.16,-7.97 419.05,-11.13 428.93,-14.96 429.16,-7.97"/>
</a>
</g>
</g>
<!-- Node27&#45;&gt;Node10 -->
<g id="edge58_Node000027_Node000010" class="edge">
<title>Node27&#45;&gt;Node10</title>
<g id="a_edge58_Node000027_Node000010"><a xlink:title=" ">
<path fill="none" stroke="#63b8ff" d="M565.18,-109.95C540.93,-99.6 511.87,-87.2 490.6,-78.13"/>
<polygon fill="#63b8ff" stroke="#63b8ff" points="491.71,-74.8 481.14,-74.09 488.96,-81.24 491.71,-74.8"/>
</a>
</g>
</g>
<!-- Node27&#45;&gt;Node12 -->
<g id="edge59_Node000027_Node000012" class="edge">
<title>Node27&#45;&gt;Node12</title>
<g id="a_edge59_Node000027_Node000012"><a xlink:title=" ">
<path fill="none" stroke="#63b8ff" d="M600.61,-109.95C596.07,-101.39 590.77,-91.42 586.35,-83.1"/>
<polygon fill="#63b8ff" stroke="#63b8ff" points="589.44,-81.45 581.65,-74.26 583.25,-84.73 589.44,-81.45"/>
</a>
</g>
</g>
</g>
</svg>

<g id="navigator" transform="translate(0 0)" fill="#404254">
  <rect fill="#f2f5e9" fill-opacity="0.5" stroke="#606060" stroke-width=".5" x="0" y="0" width="60" height="60"/>
  <use id="zoomplus" xlink:href="#zoomPlus" x="17" y="9" onmousedown="handleZoom(evt,'in')"/>
  <use id="zoomminus" xlink:href="#zoomMin" x="42" y="9" onmousedown="handleZoom(evt,'out')"/>
  <use id="reset" xlink:href="#resetDef" x="30" y="36" onmousedown="handleReset()"/>
   <use id="arrowup" xlink:href="#arrowUp" x="0" y="0" onmousedown="handlePan(0,-1)"/>
  <use id="arrowright" xlink:href="#arrowRight" x="0" y="0" onmousedown="handlePan(1,0)"/>
  <use id="arrowdown" xlink:href="#arrowDown" x="0" y="0" onmousedown="handlePan(0,1)"/>
  <use id="arrowleft" xlink:href="#arrowLeft" x="0" y="0" onmousedown="handlePan(-1,0)"/>
</g>
<svg viewBox="0 0 15 15" width="100%" height="30px" preserveAspectRatio="xMaxYMin meet">
 <g id="arrow_out" transform="scale(0.3 0.3)">
  <a xlink:href="FrappeSnowland_8h__incl_org.svg" target="_base">
   <rect id="button" ry="5" rx="5" y="6" x="6" height="38" width="38"
        fill="#f2f5e9" fill-opacity="0.5" stroke="#606060" stroke-width="1.0"/>
   <path id="arrow"
     d="M 11.500037,31.436501 C 11.940474,20.09759 22.043105,11.32322 32.158766,21.979434 L 37.068811,17.246167 C 37.068811,17.246167 37.088388,32 37.088388,32 L 22.160133,31.978069 C 22.160133,31.978069 26.997745,27.140456 26.997745,27.140456 C 18.528582,18.264221 13.291696,25.230495 11.500037,31.436501 z"
     style="fill:#404040;"/>
  </a>
 </g>
</svg>

<style type='text/css'>
<![CDATA[
[data-mouse-over-selected='false'] { opacity: 0.7; }
[data-mouse-over-selected='true']  { opacity: 1.0; }
]]>
</style>
<script type="application/ecmascript"><![CDATA[
document.addEventListener('DOMContentLoaded', (event) => {
  highlightEdges();
  highlightAdjacentNodes();
});
]]></script>
</svg>
