<?xml version="1.0" encoding="UTF-8" standalone="no"?>
<!DOCTYPE svg PUBLIC "-//W3C//DTD SVG 1.1//EN"
 "http://www.w3.org/Graphics/SVG/1.1/DTD/svg11.dtd">
<!-- Generated by graphviz version 2.43.0 (0)
 -->
<!-- Title: include/assets/models/tracks/frappe_snowland/frappe_snowland_vertices.h Pages: 1 -->
<svg width="385pt" height="236pt"
 viewBox="0.00 0.00 384.50 236.00" xmlns="http://www.w3.org/2000/svg" xmlns:xlink="http://www.w3.org/1999/xlink">
<g id="graph0" class="graph" transform="scale(1 1) rotate(0) translate(4 232)">
<title>include/assets/models/tracks/frappe_snowland/frappe_snowland_vertices.h</title>
<!-- Node1 -->
<g id="Node000001" class="node">
<title>Node1</title>
<g id="a_Node000001"><a xlink:title=" ">
<polygon fill="#999999" stroke="#666666" points="242.5,-228 86.5,-228 86.5,-187 242.5,-187 242.5,-228"/>
<text text-anchor="start" x="94.5" y="-216" font-family="Helvetica,sans-Serif" font-size="10.00">include/assets/models</text>
<text text-anchor="start" x="94.5" y="-205" font-family="Helvetica,sans-Serif" font-size="10.00">/tracks/frappe_snowland</text>
<text text-anchor="middle" x="164.5" y="-194" font-family="Helvetica,sans-Serif" font-size="10.00">/frappe_snowland_vertices.h</text>
</a>
</g>
</g>
<!-- Node2 -->
<g id="Node000002" class="node">
<title>Node2</title>
<g id="a_Node000002"><a xlink:href="all__course__model_8h.html" target="_top" xlink:title=" ">
<polygon fill="white" stroke="#666666" points="148,-151 41,-151 41,-121 148,-121 148,-151"/>
<text text-anchor="start" x="49" y="-139" font-family="Helvetica,sans-Serif" font-size="10.00">courses/all_course</text>
<text text-anchor="middle" x="94.5" y="-128" font-family="Helvetica,sans-Serif" font-size="10.00">_model.h</text>
</a>
</g>
</g>
<!-- Node1&#45;&gt;Node2 -->
<g id="edge1_Node000001_Node000002" class="edge">
<title>Node1&#45;&gt;Node2</title>
<g id="a_edge1_Node000001_Node000002"><a xlink:title=" ">
<path fill="none" stroke="#63b8ff" d="M137.35,-179.55C127.55,-169.81 116.88,-159.22 108.64,-151.04"/>
<polygon fill="#63b8ff" stroke="#63b8ff" points="135.07,-182.21 144.63,-186.77 140,-177.24 135.07,-182.21"/>
</a>
</g>
</g>
<!-- Node3 -->
<g id="Node000003" class="node">
<title>Node3</title>
<g id="a_Node000003"><a xlink:href="FrappeSnowland_8h.html" target="_top" xlink:title=" ">
<polygon fill="white" stroke="#666666" points="302.5,-151 166.5,-151 166.5,-121 302.5,-121 302.5,-151"/>
<text text-anchor="start" x="174.5" y="-139" font-family="Helvetica,sans-Serif" font-size="10.00">src/engine/tracks/Frappe</text>
<text text-anchor="middle" x="234.5" y="-128" font-family="Helvetica,sans-Serif" font-size="10.00">Snowland.h</text>
</a>
</g>
</g>
<!-- Node1&#45;&gt;Node3 -->
<g id="edge2_Node000001_Node000003" class="edge">
<title>Node1&#45;&gt;Node3</title>
<g id="a_edge2_Node000001_Node000003"><a xlink:title=" ">
<path fill="none" stroke="#63b8ff" d="M191.65,-179.55C201.45,-169.81 212.12,-159.22 220.36,-151.04"/>
<polygon fill="#63b8ff" stroke="#63b8ff" points="189,-177.24 184.37,-186.77 193.93,-182.21 189,-177.24"/>
</a>
</g>
</g>
<!-- Node4 -->
<g id="Node000004" class="node">
<title>Node4</title>
<g id="a_Node000004"><a xlink:href="AllTracks_8h.html" target="_top" xlink:title=" ">
<polygon fill="white" stroke="#666666" points="222.5,-79.5 100.5,-79.5 100.5,-60.5 222.5,-60.5 222.5,-79.5"/>
<text text-anchor="middle" x="161.5" y="-67.5" font-family="Helvetica,sans-Serif" font-size="10.00">src/engine/AllTracks.h</text>
</a>
</g>
</g>
<!-- Node3&#45;&gt;Node4 -->
<g id="edge3_Node000003_Node000004" class="edge">
<title>Node3&#45;&gt;Node4</title>
<g id="a_edge3_Node000003_Node000004"><a xlink:title=" ">
<path fill="none" stroke="#63b8ff" d="M210.47,-113.93C197.26,-102.35 181.58,-88.61 171.59,-79.84"/>
<polygon fill="#63b8ff" stroke="#63b8ff" points="208.47,-116.84 218.3,-120.8 213.09,-111.57 208.47,-116.84"/>
</a>
</g>
</g>
<!-- Node7 -->
<g id="Node000007" class="node">
<title>Node7</title>
<g id="a_Node000007"><a xlink:href="FrappeSnowland_8cpp.html" target="_top" xlink:title=" ">
<polygon fill="white" stroke="#666666" points="376.5,-85 240.5,-85 240.5,-55 376.5,-55 376.5,-85"/>
<text text-anchor="start" x="248.5" y="-73" font-family="Helvetica,sans-Serif" font-size="10.00">src/engine/tracks/Frappe</text>
<text text-anchor="middle" x="308.5" y="-62" font-family="Helvetica,sans-Serif" font-size="10.00">Snowland.cpp</text>
</a>
</g>
</g>
<!-- Node3&#45;&gt;Node7 -->
<g id="edge6_Node000003_Node000007" class="edge">
<title>Node3&#45;&gt;Node7</title>
<g id="a_edge6_Node000003_Node000007"><a xlink:title=" ">
<path fill="none" stroke="#63b8ff" d="M258.55,-114.2C269.53,-104.7 282.26,-93.69 292.12,-85.16"/>
<polygon fill="#63b8ff" stroke="#63b8ff" points="256.2,-111.61 250.92,-120.8 260.78,-116.9 256.2,-111.61"/>
</a>
</g>
</g>
<!-- Node5 -->
<g id="Node000005" class="node">
<title>Node5</title>
<g id="a_Node000005"><a xlink:href="RegisterContent_8cpp.html" target="_top" xlink:title=" ">
<polygon fill="white" stroke="#666666" points="169,-19 0,-19 0,0 169,0 169,-19"/>
<text text-anchor="middle" x="84.5" y="-7" font-family="Helvetica,sans-Serif" font-size="10.00">src/engine/RegisterContent.cpp</text>
</a>
</g>
</g>
<!-- Node4&#45;&gt;Node5 -->
<g id="edge4_Node000004_Node000005" class="edge">
<title>Node4&#45;&gt;Node5</title>
<g id="a_edge4_Node000004_Node000005"><a xlink:title=" ">
<path fill="none" stroke="#63b8ff" d="M141.81,-54.04C127.27,-42.99 107.98,-28.34 95.91,-19.17"/>
<polygon fill="#63b8ff" stroke="#63b8ff" points="140.06,-57.11 150.14,-60.37 144.29,-51.53 140.06,-57.11"/>
</a>
</g>
</g>
<!-- Node6 -->
<g id="Node000006" class="node">
<title>Node6</title>
<g id="a_Node000006"><a xlink:href="Game_8cpp.html" target="_top" xlink:title=" ">
<polygon fill="white" stroke="#666666" points="292.5,-19 186.5,-19 186.5,0 292.5,0 292.5,-19"/>
<text text-anchor="middle" x="239.5" y="-7" font-family="Helvetica,sans-Serif" font-size="10.00">src/port/Game.cpp</text>
</a>
</g>
</g>
<!-- Node4&#45;&gt;Node6 -->
<g id="edge5_Node000004_Node000006" class="edge">
<title>Node4&#45;&gt;Node6</title>
<g id="a_edge5_Node000004_Node000006"><a xlink:title=" ">
<path fill="none" stroke="#63b8ff" d="M181.04,-54.35C195.81,-43.27 215.6,-28.43 227.94,-19.17"/>
<polygon fill="#63b8ff" stroke="#63b8ff" points="178.91,-51.57 173.01,-60.37 183.11,-57.17 178.91,-51.57"/>
</a>
</g>
</g>
</g>
</svg>
