<?xml version="1.0" encoding="UTF-8" standalone="no"?>
<!DOCTYPE svg PUBLIC "-//W3C//DTD SVG 1.1//EN"
 "http://www.w3.org/Graphics/SVG/1.1/DTD/svg11.dtd">
<!-- Generated by graphviz version 2.43.0 (0)
 -->
<!-- Title: CM_RenderCourseObjects Pages: 1 -->
<!--zoomable 337 -->

<svg id="main" version="1.1" xmlns="http://www.w3.org/2000/svg" xmlns:xlink="http://www.w3.org/1999/xlink" xml:space="preserve" onload="init(evt)">

<style type="text/css"><![CDATA[
.node, .edge {opacity: 0.7;}
.node.selected, .edge.selected {opacity: 1;}
.edge:hover path { stroke: red; }
.edge:hover polygon { stroke: red; fill: red; }
]]></style>

<defs>
  <circle id="rim" cx="0" cy="0" r="7"/>
  <circle id="rim2" cx="0" cy="0" r="3.5"/>
  <g id="zoomPlus">
    <use xlink:href="#rim" fill="#404040"><set attributeName="fill" to="#808080" begin="zoomplus.mouseover" end="zoomplus.mouseout"/></use>
    <path d="M-4,0h8M0,-4v8" fill="none" stroke="white" stroke-width="1.5" pointer-events="none"/>
  </g>
  <g id="zoomMin">
    <use xlink:href="#rim" fill="#404040"><set attributeName="fill" to="#808080" begin="zoomminus.mouseover" end="zoomminus.mouseout"/></use>
    <path d="M-4,0h8" fill="none" stroke="white" stroke-width="1.5" pointer-events="none"/>
  </g>
  <g id="arrowUp" transform="translate(30 24)">
    <use xlink:href="#rim"/>
    <path pointer-events="none" fill="none" stroke="white" stroke-width="1.5" d="M0,-3.0v7 M-2.5,-0.5L0,-3.0L2.5,-0.5"/>
  </g>
  <g id="arrowRight" transform="rotate(90) translate(36 -43)">
    <use xlink:href="#rim"/>
    <path pointer-events="none" fill="none" stroke="white" stroke-width="1.5" d="M0,-3.0v7 M-2.5,-0.5L0,-3.0L2.5,-0.5"/>
  </g>
  <g id="arrowDown" transform="rotate(180) translate(-30 -48)">
    <use xlink:href="#rim"/>
    <path pointer-events="none" fill="none" stroke="white" stroke-width="1.5" d="M0,-3.0v7 M-2.5,-0.5L0,-3.0L2.5,-0.5"/>
  </g>
  <g id="arrowLeft" transform="rotate(270) translate(-36 17)">
    <use xlink:href="#rim"/>
    <path pointer-events="none" fill="none" stroke="white" stroke-width="1.5" d="M0,-3.0v7 M-2.5,-0.5L0,-3.0L2.5,-0.5"/>
  </g>
  <g id="resetDef">
    <use xlink:href="#rim2" fill="#404040"><set attributeName="fill" to="#808080" begin="reset.mouseover" end="reset.mouseout"/></use>
  </g>
</defs>
<script type="application/ecmascript">
var viewWidth = 1483;
var viewHeight = 337;
var sectionId = 'dynsection-35';
</script>
<script type="application/ecmascript" xlink:href="svg.min.js"/>
<svg id="graph" class="graph">
<g id="viewport">
<title>CM_RenderCourseObjects</title>
<!-- Node1 -->
<g id="Node000001" class="node">
<title>Node1</title>
<g id="a_Node000001"><a xlink:title=" ">
<polygon fill="#999999" stroke="#666666" points="143,-164.5 0,-164.5 0,-145.5 143,-145.5 143,-164.5"/>
<text text-anchor="middle" x="71.5" y="-152.5" font-family="Helvetica,sans-Serif" font-size="10.00">CM_RenderCourseObjects</text>
</a>
</g>
</g>
<!-- Node2 -->
<g id="Node000002" class="node">
<title>Node2</title>
<g id="a_Node000002"><a xlink:href="Smoke_8cpp.html#a701f65cce7562e1f6e1fcd6a891341d2" target="_top" xlink:title=" ">
<polygon fill="white" stroke="#666666" points="277,-164.5 179,-164.5 179,-145.5 277,-145.5 277,-164.5"/>
<text text-anchor="middle" x="228" y="-152.5" font-family="Helvetica,sans-Serif" font-size="10.00">TrainSmokeDraw</text>
</a>
</g>
</g>
<!-- Node1&#45;&gt;Node2 -->
<g id="edge1_Node000001_Node000002" class="edge">
<title>Node1&#45;&gt;Node2</title>
<g id="a_edge1_Node000001_Node000002"><a xlink:title=" ">
<path fill="none" stroke="#63b8ff" d="M143.42,-155C151.79,-155 160.25,-155 168.42,-155"/>
<polygon fill="#63b8ff" stroke="#63b8ff" points="168.58,-158.5 178.58,-155 168.58,-151.5 168.58,-158.5"/>
</a>
</g>
</g>
<!-- Node3 -->
<g id="Node000003" class="node">
<title>Node3</title>
<g id="a_Node000003"><a xlink:href="FrameInterpolation_8cpp.html#a3a036bc9d533e28a4e9697cd20dccf3e" target="_top" xlink:title=" ">
<polygon fill="white" stroke="#666666" points="1298,-329 1188,-329 1188,-299 1298,-299 1298,-329"/>
<text text-anchor="start" x="1196" y="-317" font-family="Helvetica,sans-Serif" font-size="10.00">FrameInterpolation</text>
<text text-anchor="middle" x="1243" y="-306" font-family="Helvetica,sans-Serif" font-size="10.00">_RecordCloseChild</text>
</a>
</g>
</g>
<!-- Node2&#45;&gt;Node3 -->
<g id="edge2_Node000002_Node000003" class="edge">
<title>Node2&#45;&gt;Node3</title>
<g id="a_edge2_Node000002_Node000003"><a xlink:title=" ">
<path fill="none" stroke="#63b8ff" d="M232.45,-164.83C241.46,-189 268.21,-251.5 313,-281 396.97,-336.32 434.95,-322 535.5,-322 535.5,-322 535.5,-322 929,-322 1014.99,-322 1114.23,-318.95 1177.5,-316.61"/>
<polygon fill="#63b8ff" stroke="#63b8ff" points="1177.87,-320.1 1187.73,-316.23 1177.6,-313.1 1177.87,-320.1"/>
</a>
</g>
</g>
<!-- Node5 -->
<g id="Node000005" class="node">
<title>Node5</title>
<g id="a_Node000005"><a xlink:href="FrameInterpolation_8cpp.html#a0eda726b74eac815af4e874014e2727c" target="_top" xlink:title=" ">
<polygon fill="white" stroke="#666666" points="1298,-125 1188,-125 1188,-95 1298,-95 1298,-125"/>
<text text-anchor="start" x="1196" y="-113" font-family="Helvetica,sans-Serif" font-size="10.00">FrameInterpolation</text>
<text text-anchor="middle" x="1243" y="-102" font-family="Helvetica,sans-Serif" font-size="10.00">_RecordOpenChild</text>
</a>
</g>
</g>
<!-- Node2&#45;&gt;Node5 -->
<g id="edge4_Node000002_Node000005" class="edge">
<title>Node2&#45;&gt;Node5</title>
<g id="a_edge4_Node000002_Node000005"><a xlink:title=" ">
<path fill="none" stroke="#63b8ff" d="M244.75,-145.37C261.15,-135.87 287.9,-121.81 313,-115 408.79,-89.02 436.25,-96 535.5,-96 535.5,-96 535.5,-96 929,-96 1015.05,-96 1114.27,-101.35 1177.53,-105.43"/>
<polygon fill="#63b8ff" stroke="#63b8ff" points="1177.54,-108.94 1187.75,-106.1 1178,-101.95 1177.54,-108.94"/>
</a>
</g>
</g>
<!-- Node6 -->
<g id="Node000006" class="node">
<title>Node6</title>
<g id="a_Node000006"><a xlink:href="render__objects_8c.html#a96e9d0f1c39751cc18e6a5adfbe393bf" target="_top" xlink:title=" ">
<polygon fill="white" stroke="#666666" points="420.5,-67.5 328.5,-67.5 328.5,-48.5 420.5,-48.5 420.5,-67.5"/>
<text text-anchor="middle" x="374.5" y="-55.5" font-family="Helvetica,sans-Serif" font-size="10.00">func_8004B72C</text>
</a>
</g>
</g>
<!-- Node2&#45;&gt;Node6 -->
<g id="edge6_Node000002_Node000006" class="edge">
<title>Node2&#45;&gt;Node6</title>
<g id="a_edge6_Node000002_Node000006"><a xlink:title=" ">
<path fill="none" stroke="#63b8ff" d="M237.99,-145.31C252.52,-130.11 282.63,-100.48 313,-82 319.5,-78.04 326.78,-74.51 333.96,-71.44"/>
<polygon fill="#63b8ff" stroke="#63b8ff" points="335.65,-74.54 343.62,-67.56 333.04,-68.04 335.65,-74.54"/>
</a>
</g>
</g>
<!-- Node7 -->
<g id="Node000007" class="node">
<title>Node7</title>
<g id="a_Node000007"><a xlink:href="GBIMiddleware_8cpp.html#a4ecc44e3c6f1ca5a6b4a20c41d3bd2d2" target="_top" xlink:title=" ">
<polygon fill="white" stroke="#666666" points="765,-292.5 676,-292.5 676,-273.5 765,-273.5 765,-292.5"/>
<text text-anchor="middle" x="720.5" y="-280.5" font-family="Helvetica,sans-Serif" font-size="10.00">gSPDisplayList</text>
</a>
</g>
</g>
<!-- Node2&#45;&gt;Node7 -->
<g id="edge7_Node000002_Node000007" class="edge">
<title>Node2&#45;&gt;Node7</title>
<g id="a_edge7_Node000002_Node000007"><a xlink:title=" ">
<path fill="none" stroke="#63b8ff" d="M234.2,-164.58C245.52,-184.37 274.52,-229.56 313,-249 427.87,-307.03 584.5,-299.81 665.71,-290.73"/>
<polygon fill="#63b8ff" stroke="#63b8ff" points="666.18,-294.2 675.71,-289.56 665.37,-287.25 666.18,-294.2"/>
</a>
</g>
</g>
<!-- Node10 -->
<g id="Node000010" class="node">
<title>Node10</title>
<g id="a_Node000010"><a xlink:href="math__util__2_8c.html#adce48d8322f3e1f7f481896a320a3365" target="_top" xlink:title=" ">
<polygon fill="white" stroke="#666666" points="435.5,-143.5 313.5,-143.5 313.5,-124.5 435.5,-124.5 435.5,-143.5"/>
<text text-anchor="middle" x="374.5" y="-131.5" font-family="Helvetica,sans-Serif" font-size="10.00">is_particle_on_screen</text>
</a>
</g>
</g>
<!-- Node2&#45;&gt;Node10 -->
<g id="edge10_Node000002_Node000010" class="edge">
<title>Node2&#45;&gt;Node10</title>
<g id="a_edge10_Node000002_Node000010"><a xlink:title=" ">
<path fill="none" stroke="#63b8ff" d="M277.12,-148.01C285.53,-146.78 294.43,-145.49 303.29,-144.2"/>
<polygon fill="#63b8ff" stroke="#63b8ff" points="303.86,-147.66 313.25,-142.76 302.85,-140.73 303.86,-147.66"/>
</a>
</g>
</g>
<!-- Node14 -->
<g id="Node000014" class="node">
<title>Node14</title>
<g id="a_Node000014"><a xlink:href="render__objects_8c.html#a346a55731e91e8f44ec477268ec8a0f8" target="_top" xlink:title=" ">
<polygon fill="white" stroke="#666666" points="429.5,-30 319.5,-30 319.5,0 429.5,0 429.5,-30"/>
<text text-anchor="start" x="327.5" y="-18" font-family="Helvetica,sans-Serif" font-size="10.00">load_texture_block</text>
<text text-anchor="middle" x="374.5" y="-7" font-family="Helvetica,sans-Serif" font-size="10.00">_i8_nomirror</text>
</a>
</g>
</g>
<!-- Node2&#45;&gt;Node14 -->
<g id="edge14_Node000002_Node000014" class="edge">
<title>Node2&#45;&gt;Node14</title>
<g id="a_edge14_Node000002_Node000014"><a xlink:title=" ">
<path fill="none" stroke="#63b8ff" d="M233.5,-145.49C244.26,-123.69 273.54,-69.68 313,-39 314.78,-37.62 316.64,-36.31 318.57,-35.06"/>
<polygon fill="#63b8ff" stroke="#63b8ff" points="320.43,-38.03 327.37,-30.03 316.96,-31.96 320.43,-38.03"/>
</a>
</g>
</g>
<!-- Node15 -->
<g id="Node000015" class="node">
<title>Node15</title>
<g id="a_Node000015"><a xlink:href="render__objects_8c.html#a5e5a2e028879ac856899bbfbb1754b25" target="_top" xlink:title=" ">
<polygon fill="white" stroke="#666666" points="436,-240 313,-240 313,-210 436,-210 436,-240"/>
<text text-anchor="start" x="321" y="-228" font-family="Helvetica,sans-Serif" font-size="10.00">render_object_paddle</text>
<text text-anchor="middle" x="374.5" y="-217" font-family="Helvetica,sans-Serif" font-size="10.00">_boat_smoke_particle</text>
</a>
</g>
</g>
<!-- Node2&#45;&gt;Node15 -->
<g id="edge15_Node000002_Node000015" class="edge">
<title>Node2&#45;&gt;Node15</title>
<g id="a_edge15_Node000002_Node000015"><a xlink:title=" ">
<path fill="none" stroke="#63b8ff" d="M245.11,-164.6C261.8,-174.36 288.77,-189.61 313,-201 316.58,-202.68 320.31,-204.35 324.09,-205.98"/>
<polygon fill="#63b8ff" stroke="#63b8ff" points="322.92,-209.29 333.5,-209.94 325.64,-202.84 322.92,-209.29"/>
</a>
</g>
</g>
<!-- Node29 -->
<g id="Node000029" class="node">
<title>Node29</title>
<g id="a_Node000029"><a xlink:href="render__objects_8c.html#a1bb53e6e216b59033928fa1263067b94" target="_top" xlink:title=" ">
<polygon fill="white" stroke="#666666" points="430,-192 319,-192 319,-162 430,-162 430,-192"/>
<text text-anchor="start" x="327" y="-180" font-family="Helvetica,sans-Serif" font-size="10.00">render_object_train</text>
<text text-anchor="middle" x="374.5" y="-169" font-family="Helvetica,sans-Serif" font-size="10.00">_smoke_particle</text>
</a>
</g>
</g>
<!-- Node2&#45;&gt;Node29 -->
<g id="edge34_Node000002_Node000029" class="edge">
<title>Node2&#45;&gt;Node29</title>
<g id="a_edge34_Node000002_Node000029"><a xlink:title=" ">
<path fill="none" stroke="#63b8ff" d="M277.12,-162.33C287.26,-163.87 298.12,-165.52 308.75,-167.14"/>
<polygon fill="#63b8ff" stroke="#63b8ff" points="308.44,-170.64 318.86,-168.68 309.5,-163.72 308.44,-170.64"/>
</a>
</g>
</g>
<!-- Node4 -->
<g id="Node000004" class="node">
<title>Node4</title>
<g id="a_Node000004"><a xlink:href="FrameInterpolation_8cpp.html#a02c7ac5342a4d376edee38f312b480bf" target="_top" xlink:title=" ">
<polygon fill="white" stroke="#666666" points="1475,-224.5 1367,-224.5 1367,-205.5 1475,-205.5 1475,-224.5"/>
<text text-anchor="middle" x="1421" y="-212.5" font-family="Helvetica,sans-Serif" font-size="10.00">check_if_recording</text>
</a>
</g>
</g>
<!-- Node3&#45;&gt;Node4 -->
<g id="edge3_Node000003_Node000004" class="edge">
<title>Node3&#45;&gt;Node4</title>
<g id="a_edge3_Node000003_Node000004"><a xlink:title=" ">
<path fill="none" stroke="#63b8ff" d="M1292.97,-298.83C1305.68,-294.14 1319.13,-288.47 1331,-282 1357.42,-267.61 1384.59,-245.97 1401.85,-231.2"/>
<polygon fill="#63b8ff" stroke="#63b8ff" points="1404.23,-233.77 1409.47,-224.57 1399.63,-228.49 1404.23,-233.77"/>
</a>
</g>
</g>
<!-- Node5&#45;&gt;Node4 -->
<g id="edge5_Node000005_Node000004" class="edge">
<title>Node5&#45;&gt;Node4</title>
<g id="a_edge5_Node000005_Node000004"><a xlink:title=" ">
<path fill="none" stroke="#63b8ff" d="M1283.94,-125.14C1299.06,-131.46 1316.2,-139.36 1331,-148 1356.83,-163.09 1383.94,-184.4 1401.35,-198.91"/>
<polygon fill="#63b8ff" stroke="#63b8ff" points="1399.18,-201.66 1409.07,-205.43 1403.69,-196.31 1399.18,-201.66"/>
</a>
</g>
</g>
<!-- Node8 -->
<g id="Node000008" class="node">
<title>Node8</title>
<g id="a_Node000008"><a xlink:href="Engine_8cpp.html#a223c8bc63f228dc11177515e38eff2db" target="_top" xlink:title=" ">
<polygon fill="white" stroke="#666666" points="1002.5,-292.5 853.5,-292.5 853.5,-273.5 1002.5,-273.5 1002.5,-292.5"/>
<text text-anchor="middle" x="928" y="-280.5" font-family="Helvetica,sans-Serif" font-size="10.00">GameEngine_OTRSigCheck</text>
</a>
</g>
</g>
<!-- Node7&#45;&gt;Node8 -->
<g id="edge8_Node000007_Node000008" class="edge">
<title>Node7&#45;&gt;Node8</title>
<g id="a_edge8_Node000007_Node000008"><a xlink:title=" ">
<path fill="none" stroke="#63b8ff" d="M765.08,-283C787.75,-283 816.25,-283 843,-283"/>
<polygon fill="#63b8ff" stroke="#63b8ff" points="843.15,-286.5 853.15,-283 843.15,-279.5 843.15,-286.5"/>
</a>
</g>
</g>
<!-- Node9 -->
<g id="Node000009" class="node">
<title>Node9</title>
<g id="a_Node000009"><a xlink:href="string_8c.html#a008e171a518fe0e0352f31b245e03875" target="_top" xlink:title=" ">
<polygon fill="white" stroke="#666666" points="1107.5,-293.5 1063.5,-293.5 1063.5,-274.5 1107.5,-274.5 1107.5,-293.5"/>
<text text-anchor="middle" x="1085.5" y="-281.5" font-family="Helvetica,sans-Serif" font-size="10.00">strlen</text>
</a>
</g>
</g>
<!-- Node8&#45;&gt;Node9 -->
<g id="edge9_Node000008_Node000009" class="edge">
<title>Node8&#45;&gt;Node9</title>
<g id="a_edge9_Node000008_Node000009"><a xlink:title=" ">
<path fill="none" stroke="#63b8ff" d="M1002.65,-283.47C1020.29,-283.59 1038.21,-283.7 1052.77,-283.8"/>
<polygon fill="#63b8ff" stroke="#63b8ff" points="1053.17,-287.3 1063.19,-283.86 1053.21,-280.3 1053.17,-287.3"/>
</a>
</g>
</g>
<!-- Node11 -->
<g id="Node000011" class="node">
<title>Node11</title>
<g id="a_Node000011"><a xlink:href="math__util__2_8c.html#a13e56d0f66165ef2bfef5122f7de73b6" target="_top" xlink:title=" ">
<polygon fill="white" stroke="#666666" points="601,-143.5 472,-143.5 472,-124.5 601,-124.5 601,-143.5"/>
<text text-anchor="middle" x="536.5" y="-131.5" font-family="Helvetica,sans-Serif" font-size="10.00">get_angle_between_xy</text>
</a>
</g>
</g>
<!-- Node10&#45;&gt;Node11 -->
<g id="edge11_Node000010_Node000011" class="edge">
<title>Node10&#45;&gt;Node11</title>
<g id="a_edge11_Node000010_Node000011"><a xlink:title=" ">
<path fill="none" stroke="#63b8ff" d="M435.53,-134C444.07,-134 452.94,-134 461.7,-134"/>
<polygon fill="#63b8ff" stroke="#63b8ff" points="461.92,-137.5 471.92,-134 461.92,-130.5 461.92,-137.5"/>
</a>
</g>
</g>
<!-- Node12 -->
<g id="Node000012" class="node">
<title>Node12</title>
<g id="a_Node000012"><a xlink:href="math__util_8c.html#aaa39a297477f56051975259f4bddd829" target="_top" xlink:title=" ">
<polygon fill="white" stroke="#666666" points="745.5,-148.5 695.5,-148.5 695.5,-129.5 745.5,-129.5 745.5,-148.5"/>
<text text-anchor="middle" x="720.5" y="-136.5" font-family="Helvetica,sans-Serif" font-size="10.00">atan2s</text>
</a>
</g>
</g>
<!-- Node11&#45;&gt;Node12 -->
<g id="edge12_Node000011_Node000012" class="edge">
<title>Node11&#45;&gt;Node12</title>
<g id="a_edge12_Node000011_Node000012"><a xlink:title=" ">
<path fill="none" stroke="#63b8ff" d="M601.15,-135.75C629.42,-136.53 661.57,-137.41 685.22,-138.06"/>
<polygon fill="#63b8ff" stroke="#63b8ff" points="685.35,-141.56 695.44,-138.34 685.54,-134.57 685.35,-141.56"/>
</a>
</g>
</g>
<!-- Node13 -->
<g id="Node000013" class="node">
<title>Node13</title>
<g id="a_Node000013"><a xlink:href="math__util_8c.html#a0273b0ea0783a06996c28669a7438ed9" target="_top" xlink:title=" ">
<polygon fill="white" stroke="#666666" points="969,-148.5 887,-148.5 887,-129.5 969,-129.5 969,-148.5"/>
<text text-anchor="middle" x="928" y="-136.5" font-family="Helvetica,sans-Serif" font-size="10.00">atan2_lookup</text>
</a>
</g>
</g>
<!-- Node12&#45;&gt;Node13 -->
<g id="edge13_Node000012_Node000013" class="edge">
<title>Node12&#45;&gt;Node13</title>
<g id="a_edge13_Node000012_Node000013"><a xlink:title=" ">
<path fill="none" stroke="#63b8ff" d="M745.88,-139C777.93,-139 835.03,-139 876.56,-139"/>
<polygon fill="#63b8ff" stroke="#63b8ff" points="876.77,-142.5 886.77,-139 876.77,-135.5 876.77,-142.5"/>
</a>
</g>
</g>
<!-- Node16 -->
<g id="Node000016" class="node">
<title>Node16</title>
<g id="a_Node000016"><a xlink:href="math__util__2_8c.html#a99d173c040cb4a9d0184df2605d71e32" target="_top" xlink:title=" ">
<polygon fill="white" stroke="#666666" points="582.5,-217.5 490.5,-217.5 490.5,-198.5 582.5,-198.5 582.5,-217.5"/>
<text text-anchor="middle" x="536.5" y="-205.5" font-family="Helvetica,sans-Serif" font-size="10.00">func_800418AC</text>
</a>
</g>
</g>
<!-- Node15&#45;&gt;Node16 -->
<g id="edge16_Node000015_Node000016" class="edge">
<title>Node15&#45;&gt;Node16</title>
<g id="a_edge16_Node000015_Node000016"><a xlink:title=" ">
<path fill="none" stroke="#63b8ff" d="M436.45,-218.52C450.8,-217 466.02,-215.38 480.12,-213.88"/>
<polygon fill="#63b8ff" stroke="#63b8ff" points="480.58,-217.36 490.15,-212.82 479.84,-210.39 480.58,-217.36"/>
</a>
</g>
</g>
<!-- Node17 -->
<g id="Node000017" class="node">
<title>Node17</title>
<g id="a_Node000017"><a xlink:href="render__objects_8c.html#abfc36be592b2cbf423febe66fa12ec34" target="_top" xlink:title=" ">
<polygon fill="white" stroke="#666666" points="582.5,-254.5 490.5,-254.5 490.5,-235.5 582.5,-235.5 582.5,-254.5"/>
<text text-anchor="middle" x="536.5" y="-242.5" font-family="Helvetica,sans-Serif" font-size="10.00">func_800431B0</text>
</a>
</g>
</g>
<!-- Node15&#45;&gt;Node17 -->
<g id="edge18_Node000015_Node000017" class="edge">
<title>Node15&#45;&gt;Node17</title>
<g id="a_edge18_Node000015_Node000017"><a xlink:title=" ">
<path fill="none" stroke="#63b8ff" d="M436.45,-232.62C450.8,-234.41 466.02,-236.32 480.12,-238.08"/>
<polygon fill="#63b8ff" stroke="#63b8ff" points="479.8,-241.56 490.15,-239.33 480.66,-234.62 479.8,-241.56"/>
</a>
</g>
</g>
<!-- Node28 -->
<g id="Node000028" class="node">
<title>Node28</title>
<g id="a_Node000028"><a xlink:href="render__objects_8c.html#a478c0c265cba4e59430ec73ad32231f2" target="_top" xlink:title=" ">
<polygon fill="white" stroke="#666666" points="585.5,-180.5 487.5,-180.5 487.5,-161.5 585.5,-161.5 585.5,-180.5"/>
<text text-anchor="middle" x="536.5" y="-168.5" font-family="Helvetica,sans-Serif" font-size="10.00">set_color_render</text>
</a>
</g>
</g>
<!-- Node15&#45;&gt;Node28 -->
<g id="edge33_Node000015_Node000028" class="edge">
<title>Node15&#45;&gt;Node28</title>
<g id="a_edge33_Node000015_Node000028"><a xlink:title=" ">
<path fill="none" stroke="#63b8ff" d="M415.7,-209.84C432.95,-203.48 453.39,-196.15 472,-190 478.61,-187.82 485.63,-185.6 492.52,-183.5"/>
<polygon fill="#63b8ff" stroke="#63b8ff" points="493.87,-186.75 502.43,-180.5 491.85,-180.04 493.87,-186.75"/>
</a>
</g>
</g>
<!-- Node16&#45;&gt;Node12 -->
<g id="edge17_Node000016_Node000012" class="edge">
<title>Node16&#45;&gt;Node12</title>
<g id="a_edge17_Node000016_Node000012"><a xlink:title=" ">
<path fill="none" stroke="#63b8ff" d="M574.36,-198.43C583.16,-195.9 592.47,-193.03 601,-190 631.98,-179 666.39,-163.85 690.11,-152.92"/>
<polygon fill="#63b8ff" stroke="#63b8ff" points="691.68,-156.05 699.27,-148.67 688.73,-149.7 691.68,-156.05"/>
</a>
</g>
</g>
<!-- Node17&#45;&gt;Node7 -->
<g id="edge19_Node000017_Node000007" class="edge">
<title>Node17&#45;&gt;Node7</title>
<g id="a_edge19_Node000017_Node000007"><a xlink:title=" ">
<path fill="none" stroke="#63b8ff" d="M582.96,-254.49C608.16,-259.75 639.65,-266.33 666.04,-271.84"/>
<polygon fill="#63b8ff" stroke="#63b8ff" points="665.37,-275.27 675.88,-273.89 666.8,-268.42 665.37,-275.27"/>
</a>
</g>
</g>
<!-- Node18 -->
<g id="Node000018" class="node">
<title>Node18</title>
<g id="a_Node000018"><a xlink:href="GBIMiddleware_8cpp.html#aeef79449a27a710d73576e4a4f7f7f99" target="_top" xlink:title=" ">
<polygon fill="white" stroke="#666666" points="753.5,-255.5 687.5,-255.5 687.5,-236.5 753.5,-236.5 753.5,-255.5"/>
<text text-anchor="middle" x="720.5" y="-243.5" font-family="Helvetica,sans-Serif" font-size="10.00">gSPVertex</text>
</a>
</g>
</g>
<!-- Node17&#45;&gt;Node18 -->
<g id="edge20_Node000017_Node000018" class="edge">
<title>Node17&#45;&gt;Node18</title>
<g id="a_edge20_Node000017_Node000018"><a xlink:title=" ">
<path fill="none" stroke="#63b8ff" d="M582.96,-245.25C611.81,-245.41 648.88,-245.61 677.12,-245.77"/>
<polygon fill="#63b8ff" stroke="#63b8ff" points="677.45,-249.27 687.47,-245.82 677.49,-242.27 677.45,-249.27"/>
</a>
</g>
</g>
<!-- Node19 -->
<g id="Node000019" class="node">
<title>Node19</title>
<g id="a_Node000019"><a xlink:href="math__util__2_8c.html#a2eff0e02deb703653ee3230fbc02eb14" target="_top" xlink:title="set the matrix to a transformation matrix">
<polygon fill="white" stroke="#666666" points="804,-218.5 637,-218.5 637,-199.5 804,-199.5 804,-218.5"/>
<text text-anchor="middle" x="720.5" y="-206.5" font-family="Helvetica,sans-Serif" font-size="10.00">rsp_set_matrix_transformation</text>
</a>
</g>
</g>
<!-- Node17&#45;&gt;Node19 -->
<g id="edge22_Node000017_Node000019" class="edge">
<title>Node17&#45;&gt;Node19</title>
<g id="a_edge22_Node000017_Node000019"><a xlink:title=" ">
<path fill="none" stroke="#63b8ff" d="M582.96,-236.01C606.75,-231.3 636.14,-225.49 661.56,-220.46"/>
<polygon fill="#63b8ff" stroke="#63b8ff" points="662.31,-223.88 671.44,-218.51 660.95,-217.01 662.31,-223.88"/>
</a>
</g>
</g>
<!-- Node18&#45;&gt;Node8 -->
<g id="edge21_Node000018_Node000008" class="edge">
<title>Node18&#45;&gt;Node8</title>
<g id="a_edge21_Node000018_Node000008"><a xlink:title=" ">
<path fill="none" stroke="#63b8ff" d="M753.61,-251.78C783.02,-257.08 827.39,-265.06 863.88,-271.64"/>
<polygon fill="#63b8ff" stroke="#63b8ff" points="863.48,-275.12 873.95,-273.45 864.72,-268.23 863.48,-275.12"/>
</a>
</g>
</g>
<!-- Node20 -->
<g id="Node000020" class="node">
<title>Node20</title>
<g id="a_Node000020"><a xlink:href="Matrix_8cpp.html#a329d78c031733cf22ff7518f5d38fd74" target="_top" xlink:title=" ">
<polygon fill="white" stroke="#666666" points="971,-237.5 885,-237.5 885,-218.5 971,-218.5 971,-237.5"/>
<text text-anchor="middle" x="928" y="-225.5" font-family="Helvetica,sans-Serif" font-size="10.00">AddHudMatrix</text>
</a>
</g>
</g>
<!-- Node19&#45;&gt;Node20 -->
<g id="edge23_Node000019_Node000020" class="edge">
<title>Node19&#45;&gt;Node20</title>
<g id="a_edge23_Node000019_Node000020"><a xlink:title=" ">
<path fill="none" stroke="#63b8ff" d="M804.2,-216.65C827.97,-218.84 853.23,-221.18 874.62,-223.16"/>
<polygon fill="#63b8ff" stroke="#63b8ff" points="874.5,-226.66 884.78,-224.1 875.15,-219.69 874.5,-226.66"/>
</a>
</g>
</g>
<!-- Node24 -->
<g id="Node000024" class="node">
<title>Node24</title>
<g id="a_Node000024"><a xlink:href="math__util__2_8c.html#ae71383a9d7f97bcb240b23f68068ab30" target="_top" xlink:title=" ">
<polygon fill="white" stroke="#666666" points="1016,-190.5 840,-190.5 840,-171.5 1016,-171.5 1016,-190.5"/>
<text text-anchor="middle" x="928" y="-178.5" font-family="Helvetica,sans-Serif" font-size="10.00">mtxf_set_matrix_transformation</text>
</a>
</g>
</g>
<!-- Node19&#45;&gt;Node24 -->
<g id="edge28_Node000019_Node000024" class="edge">
<title>Node19&#45;&gt;Node24</title>
<g id="a_edge28_Node000019_Node000024"><a xlink:title=" ">
<path fill="none" stroke="#63b8ff" d="M791.36,-199.48C809.23,-197.05 828.58,-194.41 846.92,-191.91"/>
<polygon fill="#63b8ff" stroke="#63b8ff" points="847.55,-195.36 856.98,-190.54 846.6,-188.42 847.55,-195.36"/>
</a>
</g>
</g>
<!-- Node21 -->
<g id="Node000021" class="node">
<title>Node21</title>
<g id="a_Node000021"><a xlink:href="Matrix_8cpp.html#a67401ed1d8de1f4d3a3e5a7b72842b6a" target="_top" xlink:title=" ">
<polygon fill="white" stroke="#666666" points="1119,-256.5 1052,-256.5 1052,-237.5 1119,-237.5 1119,-256.5"/>
<text text-anchor="middle" x="1085.5" y="-244.5" font-family="Helvetica,sans-Serif" font-size="10.00">AddMatrix</text>
</a>
</g>
</g>
<!-- Node20&#45;&gt;Node21 -->
<g id="edge24_Node000020_Node000021" class="edge">
<title>Node20&#45;&gt;Node21</title>
<g id="a_edge24_Node000020_Node000021"><a xlink:title=" ">
<path fill="none" stroke="#63b8ff" d="M971.08,-233.14C992.98,-235.82 1019.69,-239.08 1041.69,-241.77"/>
<polygon fill="#63b8ff" stroke="#63b8ff" points="1041.4,-245.26 1051.76,-243 1042.25,-238.31 1041.4,-245.26"/>
</a>
</g>
</g>
<!-- Node22 -->
<g id="Node000022" class="node">
<title>Node22</title>
<g id="a_Node000022"><a xlink:href="FrameInterpolation_8cpp.html#a8cf1f2d6fabc6925aa71a9515341b4aa" target="_top" xlink:title=" ">
<polygon fill="white" stroke="#666666" points="1313,-273 1173,-273 1173,-243 1313,-243 1313,-273"/>
<text text-anchor="start" x="1181" y="-261" font-family="Helvetica,sans-Serif" font-size="10.00">FrameInterpolation</text>
<text text-anchor="middle" x="1243" y="-250" font-family="Helvetica,sans-Serif" font-size="10.00">_RecordMatrixMtxFToMtx</text>
</a>
</g>
</g>
<!-- Node21&#45;&gt;Node22 -->
<g id="edge25_Node000021_Node000022" class="edge">
<title>Node21&#45;&gt;Node22</title>
<g id="a_edge25_Node000021_Node000022"><a xlink:title=" ">
<path fill="none" stroke="#63b8ff" d="M1119.1,-249.31C1131.96,-250.22 1147.33,-251.3 1162.79,-252.4"/>
<polygon fill="#63b8ff" stroke="#63b8ff" points="1162.71,-255.9 1172.93,-253.11 1163.2,-248.92 1162.71,-255.9"/>
</a>
</g>
</g>
<!-- Node23 -->
<g id="Node000023" class="node">
<title>Node23</title>
<g id="a_Node000023"><a xlink:href="guMtxF2L_8c.html#a40ab2d64c609839ff1e0ef0de2d0dcc4" target="_top" xlink:title=" ">
<polygon fill="white" stroke="#666666" points="1275.5,-224.5 1210.5,-224.5 1210.5,-205.5 1275.5,-205.5 1275.5,-224.5"/>
<text text-anchor="middle" x="1243" y="-212.5" font-family="Helvetica,sans-Serif" font-size="10.00">guMtxF2L</text>
</a>
</g>
</g>
<!-- Node21&#45;&gt;Node23 -->
<g id="edge27_Node000021_Node000023" class="edge">
<title>Node21&#45;&gt;Node23</title>
<g id="a_edge27_Node000021_Node000023"><a xlink:title=" ">
<path fill="none" stroke="#63b8ff" d="M1119.1,-240.29C1142.66,-235.44 1174.68,-228.85 1200.14,-223.62"/>
<polygon fill="#63b8ff" stroke="#63b8ff" points="1201.15,-226.98 1210.24,-221.54 1199.74,-220.12 1201.15,-226.98"/>
</a>
</g>
</g>
<!-- Node22&#45;&gt;Node4 -->
<g id="edge26_Node000022_Node000004" class="edge">
<title>Node22&#45;&gt;Node4</title>
<g id="a_edge26_Node000022_Node000004"><a xlink:title=" ">
<path fill="none" stroke="#63b8ff" d="M1305.56,-242.96C1327.01,-237.72 1350.78,-231.91 1371.07,-226.96"/>
<polygon fill="#63b8ff" stroke="#63b8ff" points="1372.14,-230.3 1381.03,-224.52 1370.48,-223.5 1372.14,-230.3"/>
</a>
</g>
</g>
<!-- Node25 -->
<g id="Node000025" class="node">
<title>Node25</title>
<g id="a_Node000025"><a xlink:href="math__util_8c.html#ae69cbf5c8d4b3b0dba2d7b4d4673689f" target="_top" xlink:title=" ">
<polygon fill="white" stroke="#666666" points="1104.5,-143.5 1066.5,-143.5 1066.5,-124.5 1104.5,-124.5 1104.5,-143.5"/>
<text text-anchor="middle" x="1085.5" y="-131.5" font-family="Helvetica,sans-Serif" font-size="10.00">coss</text>
</a>
</g>
</g>
<!-- Node24&#45;&gt;Node25 -->
<g id="edge29_Node000024_Node000025" class="edge">
<title>Node24&#45;&gt;Node25</title>
<g id="a_edge29_Node000024_Node000025"><a xlink:title=" ">
<path fill="none" stroke="#63b8ff" d="M965.53,-171.4C981.14,-167.18 999.52,-162.04 1016,-157 1029.4,-152.9 1044.15,-148 1056.52,-143.78"/>
<polygon fill="#63b8ff" stroke="#63b8ff" points="1057.95,-146.99 1066.27,-140.42 1055.68,-140.37 1057.95,-146.99"/>
</a>
</g>
</g>
<!-- Node26 -->
<g id="Node000026" class="node">
<title>Node26</title>
<g id="a_Node000026"><a xlink:href="FrameInterpolation_8cpp.html#af749df1a96bee5c78287b1845455ae2d" target="_top" xlink:title=" ">
<polygon fill="white" stroke="#666666" points="1331,-187 1155,-187 1155,-157 1331,-157 1331,-187"/>
<text text-anchor="start" x="1163" y="-175" font-family="Helvetica,sans-Serif" font-size="10.00">FrameInterpolation</text>
<text text-anchor="middle" x="1243" y="-164" font-family="Helvetica,sans-Serif" font-size="10.00">_RecordSetMatrixTransformation</text>
</a>
</g>
</g>
<!-- Node24&#45;&gt;Node26 -->
<g id="edge30_Node000024_Node000026" class="edge">
<title>Node24&#45;&gt;Node26</title>
<g id="a_edge30_Node000024_Node000026"><a xlink:title=" ">
<path fill="none" stroke="#63b8ff" d="M1016.19,-178.49C1056.13,-177.34 1103.61,-175.98 1144.71,-174.8"/>
<polygon fill="#63b8ff" stroke="#63b8ff" points="1144.84,-178.3 1154.74,-174.51 1144.64,-171.3 1144.84,-178.3"/>
</a>
</g>
</g>
<!-- Node27 -->
<g id="Node000027" class="node">
<title>Node27</title>
<g id="a_Node000027"><a xlink:href="math__util_8c.html#a19ed3bd78fd2d3e2bd0a29f6caf48545" target="_top" xlink:title=" ">
<polygon fill="white" stroke="#666666" points="1103.5,-219.5 1067.5,-219.5 1067.5,-200.5 1103.5,-200.5 1103.5,-219.5"/>
<text text-anchor="middle" x="1085.5" y="-207.5" font-family="Helvetica,sans-Serif" font-size="10.00">sins</text>
</a>
</g>
</g>
<!-- Node24&#45;&gt;Node27 -->
<g id="edge32_Node000024_Node000027" class="edge">
<title>Node24&#45;&gt;Node27</title>
<g id="a_edge32_Node000024_Node000027"><a xlink:title=" ">
<path fill="none" stroke="#63b8ff" d="M980.35,-190.58C1006.08,-195.37 1036.19,-200.99 1057.4,-204.95"/>
<polygon fill="#63b8ff" stroke="#63b8ff" points="1056.85,-208.4 1067.32,-206.8 1058.13,-201.52 1056.85,-208.4"/>
</a>
</g>
</g>
<!-- Node26&#45;&gt;Node4 -->
<g id="edge31_Node000026_Node000004" class="edge">
<title>Node26&#45;&gt;Node4</title>
<g id="a_edge31_Node000026_Node000004"><a xlink:title=" ">
<path fill="none" stroke="#63b8ff" d="M1305.56,-187.04C1327.01,-192.28 1350.78,-198.09 1371.07,-203.04"/>
<polygon fill="#63b8ff" stroke="#63b8ff" points="1370.48,-206.5 1381.03,-205.48 1372.14,-199.7 1370.48,-206.5"/>
</a>
</g>
</g>
<!-- Node29&#45;&gt;Node16 -->
<g id="edge35_Node000029_Node000016" class="edge">
<title>Node29&#45;&gt;Node16</title>
<g id="a_edge35_Node000029_Node000016"><a xlink:title=" ">
<path fill="none" stroke="#63b8ff" d="M430.12,-187.58C446.38,-190.73 464.21,-194.19 480.51,-197.35"/>
<polygon fill="#63b8ff" stroke="#63b8ff" points="479.94,-200.8 490.42,-199.27 481.27,-193.93 479.94,-200.8"/>
</a>
</g>
</g>
<!-- Node29&#45;&gt;Node17 -->
<g id="edge36_Node000029_Node000017" class="edge">
<title>Node29&#45;&gt;Node17</title>
<g id="a_edge36_Node000029_Node000017"><a xlink:title=" ">
<path fill="none" stroke="#63b8ff" d="M417.46,-192.07C423.79,-194.79 430.15,-197.79 436,-201 453.31,-210.49 454.24,-218.4 472,-227 475.83,-228.85 479.88,-230.55 484.02,-232.09"/>
<polygon fill="#63b8ff" stroke="#63b8ff" points="483.14,-235.49 493.73,-235.42 485.41,-228.87 483.14,-235.49"/>
</a>
</g>
</g>
<!-- Node29&#45;&gt;Node28 -->
<g id="edge37_Node000029_Node000028" class="edge">
<title>Node29&#45;&gt;Node28</title>
<g id="a_edge37_Node000029_Node000028"><a xlink:title=" ">
<path fill="none" stroke="#63b8ff" d="M430.12,-174.95C445.19,-174.39 461.62,-173.77 476.91,-173.2"/>
<polygon fill="#63b8ff" stroke="#63b8ff" points="477.43,-176.68 487.29,-172.81 477.16,-169.69 477.43,-176.68"/>
</a>
</g>
</g>
</g>
</svg>

<g id="navigator" transform="translate(0 0)" fill="#404254">
  <rect fill="#f2f5e9" fill-opacity="0.5" stroke="#606060" stroke-width=".5" x="0" y="0" width="60" height="60"/>
  <use id="zoomplus" xlink:href="#zoomPlus" x="17" y="9" onmousedown="handleZoom(evt,'in')"/>
  <use id="zoomminus" xlink:href="#zoomMin" x="42" y="9" onmousedown="handleZoom(evt,'out')"/>
  <use id="reset" xlink:href="#resetDef" x="30" y="36" onmousedown="handleReset()"/>
   <use id="arrowup" xlink:href="#arrowUp" x="0" y="0" onmousedown="handlePan(0,-1)"/>
  <use id="arrowright" xlink:href="#arrowRight" x="0" y="0" onmousedown="handlePan(1,0)"/>
  <use id="arrowdown" xlink:href="#arrowDown" x="0" y="0" onmousedown="handlePan(0,1)"/>
  <use id="arrowleft" xlink:href="#arrowLeft" x="0" y="0" onmousedown="handlePan(-1,0)"/>
</g>
<svg viewBox="0 0 15 15" width="100%" height="30px" preserveAspectRatio="xMaxYMin meet">
 <g id="arrow_out" transform="scale(0.3 0.3)">
  <a xlink:href="Game_8h_a9c298b74644bca038fc690c69c171811_cgraph_org.svg" target="_base">
   <rect id="button" ry="5" rx="5" y="6" x="6" height="38" width="38"
        fill="#f2f5e9" fill-opacity="0.5" stroke="#606060" stroke-width="1.0"/>
   <path id="arrow"
     d="M 11.500037,31.436501 C 11.940474,20.09759 22.043105,11.32322 32.158766,21.979434 L 37.068811,17.246167 C 37.068811,17.246167 37.088388,32 37.088388,32 L 22.160133,31.978069 C 22.160133,31.978069 26.997745,27.140456 26.997745,27.140456 C 18.528582,18.264221 13.291696,25.230495 11.500037,31.436501 z"
     style="fill:#404040;"/>
  </a>
 </g>
</svg>

<style type='text/css'>
<![CDATA[
[data-mouse-over-selected='false'] { opacity: 0.7; }
[data-mouse-over-selected='true']  { opacity: 1.0; }
]]>
</style>
<script type="application/ecmascript"><![CDATA[
document.addEventListener('DOMContentLoaded', (event) => {
  highlightEdges();
  highlightAdjacentNodes();
});
]]></script>
</svg>
