<?xml version="1.0" encoding="UTF-8" standalone="no"?>
<!DOCTYPE svg PUBLIC "-//W3C//DTD SVG 1.1//EN"
 "http://www.w3.org/Graphics/SVG/1.1/DTD/svg11.dtd">
<!-- Generated by graphviz version 2.43.0 (0)
 -->
<!-- Title: CM_BeginPlay Pages: 1 -->
<svg width="1004pt" height="142pt"
 viewBox="0.00 0.00 1004.00 142.00" xmlns="http://www.w3.org/2000/svg" xmlns:xlink="http://www.w3.org/1999/xlink">
<g id="graph0" class="graph" transform="scale(1 1) rotate(0) translate(4 138)">
<title>CM_BeginPlay</title>
<!-- Node1 -->
<g id="Node000001" class="node">
<title>Node1</title>
<g id="a_Node000001"><a xlink:title=" ">
<polygon fill="#999999" stroke="#666666" points="86,-96 0,-96 0,-77 86,-77 86,-96"/>
<text text-anchor="middle" x="43" y="-84" font-family="Helvetica,sans-Serif" font-size="10.00">CM_BeginPlay</text>
</a>
</g>
</g>
<!-- Node2 -->
<g id="Node000002" class="node">
<title>Node2</title>
<g id="a_Node000002"><a xlink:href="classTourCamera.html#a832099745cef0a897e0ba619506563d2" target="_top" xlink:title=" ">
<polygon fill="white" stroke="#666666" points="279,-115 122,-115 122,-96 279,-96 279,-115"/>
<text text-anchor="middle" x="200.5" y="-103" font-family="Helvetica,sans-Serif" font-size="10.00">TourCamera::IsTourComplete</text>
</a>
</g>
</g>
<!-- Node1&#45;&gt;Node2 -->
<g id="edge1_Node000001_Node000002" class="edge">
<title>Node1&#45;&gt;Node2</title>
<g id="a_edge1_Node000001_Node000002"><a xlink:title=" ">
<path fill="none" stroke="#63b8ff" d="M86.08,-91.64C94.12,-92.62 102.81,-93.69 111.67,-94.77"/>
<polygon fill="#63b8ff" stroke="#63b8ff" points="111.38,-98.26 121.73,-96 112.23,-91.31 111.38,-98.26"/>
</a>
</g>
</g>
<!-- Node3 -->
<g id="Node000003" class="node">
<title>Node3</title>
<g id="a_Node000003"><a xlink:href="namespaceEditor.html#ac95c825fc97e637d93f36fe4e9121515" target="_top" xlink:title=" ">
<polygon fill="white" stroke="#666666" points="251,-78 150,-78 150,-59 251,-59 251,-78"/>
<text text-anchor="middle" x="200.5" y="-66" font-family="Helvetica,sans-Serif" font-size="10.00">Editor::LoadLevel</text>
</a>
</g>
</g>
<!-- Node1&#45;&gt;Node3 -->
<g id="edge2_Node000001_Node000003" class="edge">
<title>Node1&#45;&gt;Node3</title>
<g id="a_edge2_Node000001_Node000003"><a xlink:title=" ">
<path fill="none" stroke="#63b8ff" d="M86.08,-81.63C102.62,-79.71 121.92,-77.48 139.85,-75.4"/>
<polygon fill="#63b8ff" stroke="#63b8ff" points="140.4,-78.86 149.93,-74.24 139.6,-71.91 140.4,-78.86"/>
</a>
</g>
</g>
<!-- Node4 -->
<g id="Node000004" class="node">
<title>Node4</title>
<g id="a_Node000004"><a xlink:href="namespaceEditor.html#a432aae20cd7a713f5cc3ba38ecfd3af4" target="_top" xlink:title=" ">
<polygon fill="white" stroke="#666666" points="447,-134 342,-134 342,-115 447,-115 447,-134"/>
<text text-anchor="middle" x="394.5" y="-122" font-family="Helvetica,sans-Serif" font-size="10.00">Editor::LoadActors</text>
</a>
</g>
</g>
<!-- Node3&#45;&gt;Node4 -->
<g id="edge3_Node000003_Node000004" class="edge">
<title>Node3&#45;&gt;Node4</title>
<g id="a_edge3_Node000003_Node000004"><a xlink:title=" ">
<path fill="none" stroke="#63b8ff" d="M248.38,-78.03C258.61,-80.65 269.29,-83.81 279,-87.5 295.91,-93.92 298.04,-100.2 315,-106.5 320.85,-108.67 327.04,-110.63 333.29,-112.39"/>
<polygon fill="#63b8ff" stroke="#63b8ff" points="332.53,-115.81 343.09,-114.99 334.32,-109.05 332.53,-115.81"/>
</a>
</g>
</g>
<!-- Node7 -->
<g id="Node000007" class="node">
<title>Node7</title>
<g id="a_Node000007"><a xlink:href="namespaceEditor.html#ac889659f9eba7f23eba74579b0dded64" target="_top" xlink:title=" ">
<polygon fill="white" stroke="#666666" points="445,-97 344,-97 344,-78 445,-78 445,-97"/>
<text text-anchor="middle" x="394.5" y="-85" font-family="Helvetica,sans-Serif" font-size="10.00">Editor::LoadProps</text>
</a>
</g>
</g>
<!-- Node3&#45;&gt;Node7 -->
<g id="edge6_Node000003_Node000007" class="edge">
<title>Node3&#45;&gt;Node7</title>
<g id="a_edge6_Node000003_Node000007"><a xlink:title=" ">
<path fill="none" stroke="#63b8ff" d="M251.44,-73.44C276.56,-75.93 307.18,-78.96 333.55,-81.57"/>
<polygon fill="#63b8ff" stroke="#63b8ff" points="333.51,-85.08 343.81,-82.58 334.2,-78.11 333.51,-85.08"/>
</a>
</g>
</g>
<!-- Node8 -->
<g id="Node000008" class="node">
<title>Node8</title>
<g id="a_Node000008"><a xlink:href="namespaceEditor.html#a4697168fae026ab11c35133c2dbea7bf" target="_top" xlink:title=" ">
<polygon fill="white" stroke="#666666" points="474,-60 315,-60 315,-41 474,-41 474,-60"/>
<text text-anchor="middle" x="394.5" y="-48" font-family="Helvetica,sans-Serif" font-size="10.00">Editor::LoadStaticMeshActors</text>
</a>
</g>
</g>
<!-- Node3&#45;&gt;Node8 -->
<g id="edge7_Node000003_Node000008" class="edge">
<title>Node3&#45;&gt;Node8</title>
<g id="a_edge7_Node000003_Node000008"><a xlink:title=" ">
<path fill="none" stroke="#63b8ff" d="M251.44,-63.82C267.76,-62.29 286.39,-60.54 304.68,-58.83"/>
<polygon fill="#63b8ff" stroke="#63b8ff" points="305.16,-62.3 314.79,-57.88 304.51,-55.33 305.16,-62.3"/>
</a>
</g>
</g>
<!-- Node10 -->
<g id="Node000010" class="node">
<title>Node10</title>
<g id="a_Node000010"><a xlink:href="namespaceEditor.html#aa0123d5f7befc013345aed2247f7ea74" target="_top" xlink:title=" ">
<polygon fill="white" stroke="#666666" points="442,-22 347,-22 347,-3 442,-3 442,-22"/>
<text text-anchor="middle" x="394.5" y="-10" font-family="Helvetica,sans-Serif" font-size="10.00">Editor::LoadTour</text>
</a>
</g>
</g>
<!-- Node3&#45;&gt;Node10 -->
<g id="edge9_Node000003_Node000010" class="edge">
<title>Node3&#45;&gt;Node10</title>
<g id="a_edge9_Node000003_Node000010"><a xlink:title=" ">
<path fill="none" stroke="#63b8ff" d="M230.28,-58.86C253.14,-51.33 285.98,-40.79 315,-32.5 324.43,-29.8 334.56,-27.09 344.29,-24.57"/>
<polygon fill="#63b8ff" stroke="#63b8ff" points="345.43,-27.9 354.25,-22.03 343.69,-21.11 345.43,-27.9"/>
</a>
</g>
</g>
<!-- Node5 -->
<g id="Node000005" class="node">
<title>Node5</title>
<g id="a_Node000005"><a xlink:href="structSpawnParams.html#a8a5a24c4ced13fc9150d32d895470c9f" target="_top" xlink:title=" ">
<polygon fill="white" stroke="#666666" points="658,-134 518,-134 518,-115 658,-115 658,-134"/>
<text text-anchor="middle" x="588" y="-122" font-family="Helvetica,sans-Serif" font-size="10.00">SpawnParams::from_json</text>
</a>
</g>
</g>
<!-- Node4&#45;&gt;Node5 -->
<g id="edge4_Node000004_Node000005" class="edge">
<title>Node4&#45;&gt;Node5</title>
<g id="a_edge4_Node000004_Node000005"><a xlink:title=" ">
<path fill="none" stroke="#63b8ff" d="M447.07,-124.5C465.65,-124.5 487.06,-124.5 507.46,-124.5"/>
<polygon fill="#63b8ff" stroke="#63b8ff" points="507.7,-128 517.7,-124.5 507.7,-121 507.7,-128"/>
</a>
</g>
</g>
<!-- Node6 -->
<g id="Node000006" class="node">
<title>Node6</title>
<g id="a_Node000006"><a xlink:href="SpawnParams_8h.html#af4dfccdb6d4f1f9514fa9f7483e0d0aa" target="_top" xlink:title=" ">
<polygon fill="white" stroke="#666666" points="820.5,-134 728.5,-134 728.5,-115 820.5,-115 820.5,-134"/>
<text text-anchor="middle" x="774.5" y="-122" font-family="Helvetica,sans-Serif" font-size="10.00">get_optional_to</text>
</a>
</g>
</g>
<!-- Node5&#45;&gt;Node6 -->
<g id="edge5_Node000005_Node000006" class="edge">
<title>Node5&#45;&gt;Node6</title>
<g id="a_edge5_Node000005_Node000006"><a xlink:title=" ">
<path fill="none" stroke="#63b8ff" d="M658.23,-124.5C677.98,-124.5 699.24,-124.5 718.06,-124.5"/>
<polygon fill="#63b8ff" stroke="#63b8ff" points="718.24,-128 728.24,-124.5 718.24,-121 718.24,-128"/>
</a>
</g>
</g>
<!-- Node9 -->
<g id="Node000009" class="node">
<title>Node9</title>
<g id="a_Node000009"><a xlink:href="namespaceEditor.html#a5682c68f8c058161eac4f98905aa0c86" target="_top" xlink:title=" ">
<polygon fill="white" stroke="#666666" points="664,-67.5 512,-67.5 512,-37.5 664,-37.5 664,-67.5"/>
<text text-anchor="start" x="520" y="-55.5" font-family="Helvetica,sans-Serif" font-size="10.00">Editor::Load_AddStaticMesh</text>
<text text-anchor="middle" x="588" y="-44.5" font-family="Helvetica,sans-Serif" font-size="10.00">Actor</text>
</a>
</g>
</g>
<!-- Node8&#45;&gt;Node9 -->
<g id="edge8_Node000008_Node000009" class="edge">
<title>Node8&#45;&gt;Node9</title>
<g id="a_edge8_Node000008_Node000009"><a xlink:title=" ">
<path fill="none" stroke="#63b8ff" d="M474.22,-51.32C483.29,-51.42 492.57,-51.51 501.72,-51.61"/>
<polygon fill="#63b8ff" stroke="#63b8ff" points="501.94,-55.11 511.98,-51.72 502.02,-48.11 501.94,-55.11"/>
</a>
</g>
</g>
<!-- Node11 -->
<g id="Node000011" class="node">
<title>Node11</title>
<g id="a_Node000011"><a xlink:href="namespaceEditor.html#ac7a2abd4c4133424f846cec0f2eba13f" target="_top" xlink:title=" ">
<polygon fill="white" stroke="#666666" points="666,-19 510,-19 510,0 666,0 666,-19"/>
<text text-anchor="middle" x="588" y="-7" font-family="Helvetica,sans-Serif" font-size="10.00">Editor::FromJsonCameraShot</text>
</a>
</g>
</g>
<!-- Node10&#45;&gt;Node11 -->
<g id="edge10_Node000010_Node000011" class="edge">
<title>Node10&#45;&gt;Node11</title>
<g id="a_edge10_Node000010_Node000011"><a xlink:title=" ">
<path fill="none" stroke="#63b8ff" d="M442.35,-11.77C459.6,-11.5 479.75,-11.18 499.44,-10.87"/>
<polygon fill="#63b8ff" stroke="#63b8ff" points="499.73,-14.37 509.68,-10.71 499.62,-7.37 499.73,-14.37"/>
</a>
</g>
</g>
<!-- Node12 -->
<g id="Node000012" class="node">
<title>Node12</title>
<g id="a_Node000012"><a xlink:href="namespaceEditor.html#ad162fbe6cf9ca7ed07efed73134a8a46" target="_top" xlink:title=" ">
<polygon fill="white" stroke="#666666" points="847,-38 702,-38 702,-19 847,-19 847,-38"/>
<text text-anchor="middle" x="774.5" y="-26" font-family="Helvetica,sans-Serif" font-size="10.00">Editor::FromJsonKeyFrame</text>
</a>
</g>
</g>
<!-- Node11&#45;&gt;Node12 -->
<g id="edge11_Node000011_Node000012" class="edge">
<title>Node11&#45;&gt;Node12</title>
<g id="a_edge11_Node000011_Node000012"><a xlink:title=" ">
<path fill="none" stroke="#63b8ff" d="M666.18,-17.45C674.69,-18.32 683.39,-19.22 691.95,-20.1"/>
<polygon fill="#63b8ff" stroke="#63b8ff" points="691.63,-23.59 701.94,-21.13 692.35,-16.62 691.63,-23.59"/>
</a>
</g>
</g>
<!-- Node13 -->
<g id="Node000013" class="node">
<title>Node13</title>
<g id="a_Node000013"><a xlink:href="namespaceEditor.html#a6292171c89d7dad84497433e54697153" target="_top" xlink:title=" ">
<polygon fill="white" stroke="#666666" points="996,-19 883,-19 883,0 996,0 996,-19"/>
<text text-anchor="middle" x="939.5" y="-7" font-family="Helvetica,sans-Serif" font-size="10.00">Editor::FromJsonVec</text>
</a>
</g>
</g>
<!-- Node11&#45;&gt;Node13 -->
<g id="edge13_Node000011_Node000013" class="edge">
<title>Node11&#45;&gt;Node13</title>
<g id="a_edge13_Node000011_Node000013"><a xlink:title=" ">
<path fill="none" stroke="#63b8ff" d="M666.13,-9.5C728.05,-9.5 814.04,-9.5 872.73,-9.5"/>
<polygon fill="#63b8ff" stroke="#63b8ff" points="873,-13 883,-9.5 873,-6 873,-13"/>
</a>
</g>
</g>
<!-- Node12&#45;&gt;Node13 -->
<g id="edge12_Node000012_Node000013" class="edge">
<title>Node12&#45;&gt;Node13</title>
<g id="a_edge12_Node000012_Node000013"><a xlink:title=" ">
<path fill="none" stroke="#63b8ff" d="M847.47,-20.11C855.84,-19.14 864.34,-18.14 872.62,-17.18"/>
<polygon fill="#63b8ff" stroke="#63b8ff" points="873.06,-20.65 882.58,-16.02 872.24,-13.7 873.06,-20.65"/>
</a>
</g>
</g>
</g>
</svg>
