<?xml version="1.0" encoding="UTF-8" standalone="no"?>
<!DOCTYPE svg PUBLIC "-//W3C//DTD SVG 1.1//EN"
 "http://www.w3.org/Graphics/SVG/1.1/DTD/svg11.dtd">
<!-- Generated by graphviz version 2.43.0 (0)
 -->
<!-- Title: src/engine/cameras/GameCamera.cpp Pages: 1 -->
<svg width="1618pt" height="434pt"
 viewBox="0.00 0.00 1618.00 434.00" xmlns="http://www.w3.org/2000/svg" xmlns:xlink="http://www.w3.org/1999/xlink">
<g id="graph0" class="graph" transform="scale(1 1) rotate(0) translate(4 430)">
<title>src/engine/cameras/GameCamera.cpp</title>
<!-- Node1 -->
<g id="Node000001" class="node">
<title>Node1</title>
<g id="a_Node000001"><a xlink:title=" ">
<polygon fill="#999999" stroke="#666666" points="339,-426 227,-426 227,-396 339,-396 339,-426"/>
<text text-anchor="start" x="235" y="-414" font-family="Helvetica,sans-Serif" font-size="10.00">src/engine/cameras</text>
<text text-anchor="middle" x="283" y="-403" font-family="Helvetica,sans-Serif" font-size="10.00">/GameCamera.cpp</text>
</a>
</g>
</g>
<!-- Node2 -->
<g id="Node000002" class="node">
<title>Node2</title>
<g id="a_Node000002"><a xlink:title=" ">
<polygon fill="#e0e0e0" stroke="#999999" points="629,-19 549,-19 549,0 629,0 629,-19"/>
<text text-anchor="middle" x="589" y="-7" font-family="Helvetica,sans-Serif" font-size="10.00">libultraship.h</text>
</a>
</g>
</g>
<!-- Node1&#45;&gt;Node2 -->
<g id="edge1_Node000001_Node000002" class="edge">
<title>Node1&#45;&gt;Node2</title>
<g id="a_edge1_Node000001_Node000002"><a xlink:title=" ">
<path fill="none" stroke="#63b8ff" d="M226.75,-399.32C144.22,-382.02 0,-344.87 0,-296.5 0,-296.5 0,-296.5 0,-124 0,-59.37 66.17,-73.81 128,-55 203.67,-31.98 435.32,-18.06 538.5,-12.85"/>
<polygon fill="#63b8ff" stroke="#63b8ff" points="538.85,-16.34 548.66,-12.34 538.5,-9.34 538.85,-16.34"/>
</a>
</g>
</g>
<!-- Node3 -->
<g id="Node000003" class="node">
<title>Node3</title>
<g id="a_Node000003"><a xlink:title=" ">
<polygon fill="#e0e0e0" stroke="#999999" points="496,-74 418,-74 418,-55 496,-55 496,-74"/>
<text text-anchor="middle" x="457" y="-62" font-family="Helvetica,sans-Serif" font-size="10.00">libultra/gbi.h</text>
</a>
</g>
</g>
<!-- Node1&#45;&gt;Node3 -->
<g id="edge2_Node000001_Node000003" class="edge">
<title>Node1&#45;&gt;Node3</title>
<g id="a_edge2_Node000001_Node000003"><a xlink:title=" ">
<path fill="none" stroke="#63b8ff" d="M276.65,-395.83C260.26,-356.87 220.95,-246.39 268,-176 291.25,-141.21 318.9,-161.17 355,-140 373.56,-129.12 375.71,-122.81 393,-110 407,-99.62 423.1,-88.43 435.66,-79.86"/>
<polygon fill="#63b8ff" stroke="#63b8ff" points="437.78,-82.65 444.09,-74.14 433.85,-76.86 437.78,-82.65"/>
</a>
</g>
</g>
<!-- Node4 -->
<g id="Node000004" class="node">
<title>Node4</title>
<g id="a_Node000004"><a xlink:href="GameCamera_8h.html" target="_top" xlink:title=" ">
<polygon fill="white" stroke="#666666" points="160.5,-250 67.5,-250 67.5,-231 160.5,-231 160.5,-250"/>
<text text-anchor="middle" x="114" y="-238" font-family="Helvetica,sans-Serif" font-size="10.00">GameCamera.h</text>
</a>
</g>
</g>
<!-- Node1&#45;&gt;Node4 -->
<g id="edge3_Node000001_Node000004" class="edge">
<title>Node1&#45;&gt;Node4</title>
<g id="a_edge3_Node000001_Node000004"><a xlink:title=" ">
<path fill="none" stroke="#63b8ff" d="M242.66,-395.82C223.3,-387.57 200.73,-375.66 184,-360 152.86,-330.85 131.12,-284.74 120.8,-259.49"/>
<polygon fill="#63b8ff" stroke="#63b8ff" points="124.01,-258.08 117.09,-250.06 117.49,-260.65 124.01,-258.08"/>
</a>
</g>
</g>
<!-- Node6 -->
<g id="Node000006" class="node">
<title>Node6</title>
<g id="a_Node000006"><a xlink:href="camera_8h.html" target="_top" xlink:title=" ">
<polygon fill="white" stroke="#666666" points="339,-195 277,-195 277,-176 339,-176 339,-195"/>
<text text-anchor="middle" x="308" y="-183" font-family="Helvetica,sans-Serif" font-size="10.00">camera.h</text>
</a>
</g>
</g>
<!-- Node1&#45;&gt;Node6 -->
<g id="edge78_Node000001_Node000006" class="edge">
<title>Node1&#45;&gt;Node6</title>
<g id="a_edge78_Node000001_Node000006"><a xlink:title=" ">
<path fill="none" stroke="#63b8ff" d="M284.6,-395.68C288.95,-356.76 301,-249.07 305.89,-205.33"/>
<polygon fill="#63b8ff" stroke="#63b8ff" points="309.39,-205.56 307.02,-195.23 302.43,-204.78 309.39,-205.56"/>
</a>
</g>
</g>
<!-- Node8 -->
<g id="Node000008" class="node">
<title>Node8</title>
<g id="a_Node000008"><a xlink:href="FrameInterpolation_8h.html" target="_top" xlink:title=" ">
<polygon fill="white" stroke="#666666" points="1610,-140 1488,-140 1488,-110 1610,-110 1610,-140"/>
<text text-anchor="start" x="1496" y="-128" font-family="Helvetica,sans-Serif" font-size="10.00">port/interpolation</text>
<text text-anchor="middle" x="1549" y="-117" font-family="Helvetica,sans-Serif" font-size="10.00">/FrameInterpolation.h</text>
</a>
</g>
</g>
<!-- Node1&#45;&gt;Node8 -->
<g id="edge11_Node000001_Node000008" class="edge">
<title>Node1&#45;&gt;Node8</title>
<g id="a_edge11_Node000001_Node000008"><a xlink:title=" ">
<path fill="none" stroke="#63b8ff" d="M339.1,-407.85C581.03,-398.21 1523,-356.79 1523,-296.5 1523,-296.5 1523,-296.5 1523,-239.5 1523,-207.77 1532.77,-172.28 1540.34,-149.57"/>
<polygon fill="#63b8ff" stroke="#63b8ff" points="1543.65,-150.69 1543.61,-140.1 1537.04,-148.4 1543.65,-150.69"/>
</a>
</g>
</g>
<!-- Node9 -->
<g id="Node000009" class="node">
<title>Node9</title>
<g id="a_Node000009"><a xlink:href="Matrix_8h.html" target="_top" xlink:title=" ">
<polygon fill="white" stroke="#666666" points="235.5,-134.5 142.5,-134.5 142.5,-115.5 235.5,-115.5 235.5,-134.5"/>
<text text-anchor="middle" x="189" y="-122.5" font-family="Helvetica,sans-Serif" font-size="10.00">engine/Matrix.h</text>
</a>
</g>
</g>
<!-- Node1&#45;&gt;Node9 -->
<g id="edge14_Node000001_Node000009" class="edge">
<title>Node1&#45;&gt;Node9</title>
<g id="a_edge14_Node000001_Node000009"><a xlink:title=" ">
<path fill="none" stroke="#63b8ff" d="M262.42,-395.71C237.27,-376.38 198,-339.34 198,-296.5 198,-296.5 198,-296.5 198,-239.5 198,-206 194.06,-167.12 191.39,-144.66"/>
<polygon fill="#63b8ff" stroke="#63b8ff" points="194.84,-144.02 190.14,-134.52 187.89,-144.88 194.84,-144.02"/>
</a>
</g>
</g>
<!-- Node10 -->
<g id="Node000010" class="node">
<title>Node10</title>
<g id="a_Node000010"><a xlink:href="Game_8h.html" target="_top" xlink:title=" ">
<polygon fill="white" stroke="#666666" points="886.5,-360 809.5,-360 809.5,-341 886.5,-341 886.5,-360"/>
<text text-anchor="middle" x="848" y="-348" font-family="Helvetica,sans-Serif" font-size="10.00">port/Game.h</text>
</a>
</g>
</g>
<!-- Node1&#45;&gt;Node10 -->
<g id="edge18_Node000001_Node000010" class="edge">
<title>Node1&#45;&gt;Node10</title>
<g id="a_edge18_Node000001_Node000010"><a xlink:title=" ">
<path fill="none" stroke="#63b8ff" d="M339.24,-404.18C450.01,-392.71 694.74,-367.37 799.2,-356.55"/>
<polygon fill="#63b8ff" stroke="#63b8ff" points="799.87,-360 809.45,-355.49 799.15,-353.04 799.87,-360"/>
</a>
</g>
</g>
<!-- Node27 -->
<g id="Node000027" class="node">
<title>Node27</title>
<g id="a_Node000027"><a xlink:href="code__800029B0_8h.html" target="_top" xlink:title=" ">
<polygon fill="white" stroke="#666666" points="1309.5,-250 1206.5,-250 1206.5,-231 1309.5,-231 1309.5,-250"/>
<text text-anchor="middle" x="1258" y="-238" font-family="Helvetica,sans-Serif" font-size="10.00">code_800029B0.h</text>
</a>
</g>
</g>
<!-- Node1&#45;&gt;Node27 -->
<g id="edge77_Node000001_Node000027" class="edge">
<title>Node1&#45;&gt;Node27</title>
<g id="a_edge77_Node000001_Node000027"><a xlink:title=" ">
<path fill="none" stroke="#63b8ff" d="M339.38,-409.71C448.1,-408.2 693.88,-400.19 896,-360 974.3,-344.43 991.12,-329.82 1067,-305 1121.57,-287.15 1184.78,-266.05 1223.05,-253.23"/>
<polygon fill="#63b8ff" stroke="#63b8ff" points="1224.32,-256.5 1232.69,-250 1222.1,-249.86 1224.32,-256.5"/>
</a>
</g>
</g>
<!-- Node33 -->
<g id="Node000033" class="node">
<title>Node33</title>
<g id="a_Node000033"><a xlink:href="main_8h.html" target="_top" xlink:title=" ">
<polygon fill="white" stroke="#666666" points="445,-195 395,-195 395,-176 445,-176 445,-195"/>
<text text-anchor="middle" x="420" y="-183" font-family="Helvetica,sans-Serif" font-size="10.00">main.h</text>
</a>
</g>
</g>
<!-- Node1&#45;&gt;Node33 -->
<g id="edge74_Node000001_Node000033" class="edge">
<title>Node1&#45;&gt;Node33</title>
<g id="a_edge74_Node000001_Node000033"><a xlink:title=" ">
<path fill="none" stroke="#63b8ff" d="M291.78,-395.68C315.89,-356.35 383.06,-246.77 409.3,-203.96"/>
<polygon fill="#63b8ff" stroke="#63b8ff" points="412.41,-205.59 414.65,-195.23 406.44,-201.93 412.41,-205.59"/>
</a>
</g>
</g>
<!-- Node4&#45;&gt;Node2 -->
<g id="edge4_Node000004_Node000002" class="edge">
<title>Node4&#45;&gt;Node2</title>
<g id="a_edge4_Node000004_Node000002"><a xlink:title=" ">
<path fill="none" stroke="#63b8ff" d="M111.72,-230.86C108.79,-218.62 104.38,-195.57 107,-176 114.64,-118.98 105.54,-87.52 153,-55 184.24,-33.59 430.66,-18.56 538.62,-12.94"/>
<polygon fill="#63b8ff" stroke="#63b8ff" points="539.12,-16.42 548.93,-12.41 538.76,-9.43 539.12,-16.42"/>
</a>
</g>
</g>
<!-- Node5 -->
<g id="Node000005" class="node">
<title>Node5</title>
<g id="a_Node000005"><a xlink:href="CoreMath_8h.html" target="_top" xlink:title=" ">
<polygon fill="white" stroke="#666666" points="290.5,-74 217.5,-74 217.5,-55 290.5,-55 290.5,-74"/>
<text text-anchor="middle" x="254" y="-62" font-family="Helvetica,sans-Serif" font-size="10.00">CoreMath.h</text>
</a>
</g>
</g>
<!-- Node4&#45;&gt;Node5 -->
<g id="edge5_Node000004_Node000005" class="edge">
<title>Node4&#45;&gt;Node5</title>
<g id="a_edge5_Node000004_Node000005"><a xlink:title=" ">
<path fill="none" stroke="#63b8ff" d="M112.6,-230.76C109.48,-208.04 104.37,-146.31 134,-110 151.98,-87.96 181.99,-76.84 207.49,-71.22"/>
<polygon fill="#63b8ff" stroke="#63b8ff" points="208.24,-74.64 217.37,-69.26 206.88,-67.78 208.24,-74.64"/>
</a>
</g>
</g>
<!-- Node4&#45;&gt;Node6 -->
<g id="edge7_Node000004_Node000006" class="edge">
<title>Node4&#45;&gt;Node6</title>
<g id="a_edge7_Node000004_Node000006"><a xlink:title=" ">
<path fill="none" stroke="#63b8ff" d="M145.17,-230.98C178.26,-221.94 230.71,-207.62 267.1,-197.67"/>
<polygon fill="#63b8ff" stroke="#63b8ff" points="268.18,-201.01 276.91,-194.99 266.34,-194.25 268.18,-201.01"/>
</a>
</g>
</g>
<!-- Node5&#45;&gt;Node2 -->
<g id="edge6_Node000005_Node000002" class="edge">
<title>Node5&#45;&gt;Node2</title>
<g id="a_edge6_Node000005_Node000002"><a xlink:title=" ">
<path fill="none" stroke="#63b8ff" d="M290.64,-56.63C293.8,-56.06 296.96,-55.52 300,-55 383.57,-40.85 481.07,-26.23 538.78,-17.77"/>
<polygon fill="#63b8ff" stroke="#63b8ff" points="539.34,-21.22 548.73,-16.31 538.33,-14.3 539.34,-21.22"/>
</a>
</g>
</g>
<!-- Node6&#45;&gt;Node2 -->
<g id="edge8_Node000006_Node000002" class="edge">
<title>Node6&#45;&gt;Node2</title>
<g id="a_edge8_Node000006_Node000002"><a xlink:title=" ">
<path fill="none" stroke="#63b8ff" d="M276.78,-181.07C231.56,-175.38 151.35,-162.35 134,-140 125.82,-129.47 128.79,-122.27 134,-110 147.76,-77.6 159.14,-69.98 191,-55 251.51,-26.55 445.76,-15.73 538.63,-12.11"/>
<polygon fill="#63b8ff" stroke="#63b8ff" points="539.04,-15.6 548.9,-11.72 538.78,-8.6 539.04,-15.6"/>
</a>
</g>
</g>
<!-- Node7 -->
<g id="Node000007" class="node">
<title>Node7</title>
<g id="a_Node000007"><a xlink:href="common__structs_8h.html" target="_top" xlink:title=" ">
<polygon fill="white" stroke="#666666" points="1009.5,-74 902.5,-74 902.5,-55 1009.5,-55 1009.5,-74"/>
<text text-anchor="middle" x="956" y="-62" font-family="Helvetica,sans-Serif" font-size="10.00">common_structs.h</text>
</a>
</g>
</g>
<!-- Node6&#45;&gt;Node7 -->
<g id="edge9_Node000006_Node000007" class="edge">
<title>Node6&#45;&gt;Node7</title>
<g id="a_edge9_Node000006_Node000007"><a xlink:title=" ">
<path fill="none" stroke="#63b8ff" d="M339.1,-180.91C353.38,-179.31 370.54,-177.46 386,-176 485.21,-166.6 741.57,-179.64 833,-140 851.19,-132.12 849.62,-121.17 866,-110 884.59,-97.32 907.32,-86.11 925.28,-78.12"/>
<polygon fill="#63b8ff" stroke="#63b8ff" points="926.94,-81.21 934.72,-74.02 924.15,-74.79 926.94,-81.21"/>
</a>
</g>
</g>
<!-- Node7&#45;&gt;Node2 -->
<g id="edge10_Node000007_Node000002" class="edge">
<title>Node7&#45;&gt;Node2</title>
<g id="a_edge10_Node000007_Node000002"><a xlink:title=" ">
<path fill="none" stroke="#63b8ff" d="M902.24,-55.74C831.51,-45.52 708.12,-27.7 639.21,-17.75"/>
<polygon fill="#63b8ff" stroke="#63b8ff" points="639.44,-14.25 629.04,-16.28 638.44,-21.18 639.44,-14.25"/>
</a>
</g>
</g>
<!-- Node8&#45;&gt;Node2 -->
<g id="edge12_Node000008_Node000002" class="edge">
<title>Node8&#45;&gt;Node2</title>
<g id="a_edge12_Node000008_Node000002"><a xlink:title=" ">
<path fill="none" stroke="#63b8ff" d="M1538.69,-109.81C1525.71,-93.24 1501.74,-66.63 1474,-55 1397.06,-22.74 815.04,-13.2 639.18,-11.04"/>
<polygon fill="#63b8ff" stroke="#63b8ff" points="639.2,-7.54 629.16,-10.92 639.11,-14.54 639.2,-7.54"/>
</a>
</g>
</g>
<!-- Node8&#45;&gt;Node7 -->
<g id="edge13_Node000008_Node000007" class="edge">
<title>Node8&#45;&gt;Node7</title>
<g id="a_edge13_Node000008_Node000007"><a xlink:title=" ">
<path fill="none" stroke="#63b8ff" d="M1487.77,-117.96C1374.74,-106.81 1134.39,-83.1 1019.6,-71.77"/>
<polygon fill="#63b8ff" stroke="#63b8ff" points="1019.85,-68.28 1009.56,-70.78 1019.17,-75.25 1019.85,-68.28"/>
</a>
</g>
</g>
<!-- Node9&#45;&gt;Node2 -->
<g id="edge15_Node000009_Node000002" class="edge">
<title>Node9&#45;&gt;Node2</title>
<g id="a_edge15_Node000009_Node000002"><a xlink:title=" ">
<path fill="none" stroke="#63b8ff" d="M188.7,-115.19C188.71,-100.26 191.11,-70.15 209,-55 233.7,-34.09 441.04,-19.22 538.61,-13.32"/>
<polygon fill="#63b8ff" stroke="#63b8ff" points="539.05,-16.8 548.83,-12.71 538.64,-9.81 539.05,-16.8"/>
</a>
</g>
</g>
<!-- Node9&#45;&gt;Node5 -->
<g id="edge17_Node000009_Node000005" class="edge">
<title>Node9&#45;&gt;Node5</title>
<g id="a_edge17_Node000009_Node000005"><a xlink:title=" ">
<path fill="none" stroke="#63b8ff" d="M198.59,-115.37C208.58,-106.38 224.43,-92.11 236.63,-81.14"/>
<polygon fill="#63b8ff" stroke="#63b8ff" points="239.28,-83.46 244.37,-74.17 234.6,-78.26 239.28,-83.46"/>
</a>
</g>
</g>
<!-- Node9&#45;&gt;Node7 -->
<g id="edge16_Node000009_Node000007" class="edge">
<title>Node9&#45;&gt;Node7</title>
<g id="a_edge16_Node000009_Node000007"><a xlink:title=" ">
<path fill="none" stroke="#63b8ff" d="M235.78,-116.35C251.11,-114.04 268.25,-111.68 284,-110 506.83,-86.24 772.68,-73.11 892.23,-68.02"/>
<polygon fill="#63b8ff" stroke="#63b8ff" points="892.46,-71.51 902.3,-67.59 892.16,-64.52 892.46,-71.51"/>
</a>
</g>
</g>
<!-- Node10&#45;&gt;Node2 -->
<g id="edge19_Node000010_Node000002" class="edge">
<title>Node10&#45;&gt;Node2</title>
<g id="a_edge19_Node000010_Node000002"><a xlink:title=" ">
<path fill="none" stroke="#63b8ff" d="M886.75,-346.79C1021.28,-336.85 1460,-299.96 1460,-241.5 1460,-241.5 1460,-241.5 1460,-124 1460,-78.71 1426.72,-72.63 1385,-55 1316.62,-26.1 803.8,-14.39 639.49,-11.35"/>
<polygon fill="#63b8ff" stroke="#63b8ff" points="639.24,-7.84 629.18,-11.16 639.12,-14.84 639.24,-7.84"/>
</a>
</g>
</g>
<!-- Node10&#45;&gt;Node6 -->
<g id="edge71_Node000010_Node000006" class="edge">
<title>Node10&#45;&gt;Node6</title>
<g id="a_edge71_Node000010_Node000006"><a xlink:title=" ">
<path fill="none" stroke="#63b8ff" d="M809.29,-349.5C738.33,-348.53 583.29,-341.92 459,-305 406.6,-289.43 389.71,-286.47 349,-250 334.69,-237.18 323.33,-218.24 316.23,-204.39"/>
<polygon fill="#63b8ff" stroke="#63b8ff" points="319.36,-202.81 311.84,-195.36 313.07,-205.88 319.36,-202.81"/>
</a>
</g>
</g>
<!-- Node11 -->
<g id="Node000011" class="node">
<title>Node11</title>
<g id="a_Node000011"><a xlink:href="Track_8h.html" target="_top" xlink:title=" ">
<polygon fill="white" stroke="#666666" points="908,-305 788,-305 788,-286 908,-286 908,-305"/>
<text text-anchor="middle" x="848" y="-293" font-family="Helvetica,sans-Serif" font-size="10.00">engine/tracks/Track.h</text>
</a>
</g>
</g>
<!-- Node10&#45;&gt;Node11 -->
<g id="edge20_Node000010_Node000011" class="edge">
<title>Node10&#45;&gt;Node11</title>
<g id="a_edge20_Node000010_Node000011"><a xlink:title=" ">
<path fill="none" stroke="#63b8ff" d="M848,-340.75C848,-333.8 848,-323.85 848,-315.13"/>
<polygon fill="#63b8ff" stroke="#63b8ff" points="851.5,-315.09 848,-305.09 844.5,-315.09 851.5,-315.09"/>
</a>
</g>
</g>
<!-- Node10&#45;&gt;Node27 -->
<g id="edge73_Node000010_Node000027" class="edge">
<title>Node10&#45;&gt;Node27</title>
<g id="a_edge73_Node000010_Node000027"><a xlink:title=" ">
<path fill="none" stroke="#63b8ff" d="M880.51,-340.94C954.15,-321.54 1133.62,-274.26 1215.73,-252.63"/>
<polygon fill="#63b8ff" stroke="#63b8ff" points="1216.7,-256 1225.48,-250.07 1214.92,-249.23 1216.7,-256"/>
</a>
</g>
</g>
<!-- Node30 -->
<g id="Node000030" class="node">
<title>Node30</title>
<g id="a_Node000030"><a xlink:href="actor__types_8h.html" target="_top" xlink:title=" ">
<polygon fill="white" stroke="#666666" points="1379.5,-195 1296.5,-195 1296.5,-176 1379.5,-176 1379.5,-195"/>
<text text-anchor="middle" x="1338" y="-183" font-family="Helvetica,sans-Serif" font-size="10.00">actor_types.h</text>
</a>
</g>
</g>
<!-- Node10&#45;&gt;Node30 -->
<g id="edge72_Node000010_Node000030" class="edge">
<title>Node10&#45;&gt;Node30</title>
<g id="a_edge72_Node000010_Node000030"><a xlink:title=" ">
<path fill="none" stroke="#63b8ff" d="M886.55,-346.39C987.41,-337.5 1255.64,-308.73 1319,-250 1331.25,-238.64 1335.72,-219.74 1337.29,-205.51"/>
<polygon fill="#63b8ff" stroke="#63b8ff" points="1340.8,-205.55 1338.02,-195.33 1333.81,-205.05 1340.8,-205.55"/>
</a>
</g>
</g>
<!-- Node32 -->
<g id="Node000032" class="node">
<title>Node32</title>
<g id="a_Node000032"><a xlink:href="HM__Intro_8h.html" target="_top" xlink:title=" ">
<polygon fill="white" stroke="#666666" points="508,-134.5 402,-134.5 402,-115.5 508,-115.5 508,-134.5"/>
<text text-anchor="middle" x="455" y="-122.5" font-family="Helvetica,sans-Serif" font-size="10.00">engine/HM_Intro.h</text>
</a>
</g>
</g>
<!-- Node10&#45;&gt;Node32 -->
<g id="edge66_Node000010_Node000032" class="edge">
<title>Node10&#45;&gt;Node32</title>
<g id="a_edge66_Node000010_Node000032"><a xlink:title=" ">
<path fill="none" stroke="#63b8ff" d="M809.42,-350.15C737.01,-349.22 580.11,-336.59 492,-250 463.12,-221.62 456.56,-171.73 455.22,-144.69"/>
<polygon fill="#63b8ff" stroke="#63b8ff" points="458.71,-144.52 454.91,-134.63 451.71,-144.73 458.71,-144.52"/>
</a>
</g>
</g>
<!-- Node11&#45;&gt;Node5 -->
<g id="edge22_Node000011_Node000005" class="edge">
<title>Node11&#45;&gt;Node5</title>
<g id="a_edge22_Node000011_Node000005"><a xlink:title=" ">
<path fill="none" stroke="#63b8ff" d="M787.74,-293.42C715.83,-290.67 592.66,-281.3 492,-250 485.76,-248.06 288.36,-144.87 284,-140 269.8,-124.12 261.87,-100.67 257.78,-84.33"/>
<polygon fill="#63b8ff" stroke="#63b8ff" points="261.14,-83.33 255.53,-74.34 254.31,-84.87 261.14,-83.33"/>
</a>
</g>
</g>
<!-- Node11&#45;&gt;Node6 -->
<g id="edge24_Node000011_Node000006" class="edge">
<title>Node11&#45;&gt;Node6</title>
<g id="a_edge24_Node000011_Node000006"><a xlink:title=" ">
<path fill="none" stroke="#63b8ff" d="M787.95,-293.19C679.26,-290.1 454.55,-280.17 383,-250 358.33,-239.6 335.72,-218.09 321.92,-202.99"/>
<polygon fill="#63b8ff" stroke="#63b8ff" points="324.44,-200.56 315.2,-195.38 319.19,-205.19 324.44,-200.56"/>
</a>
</g>
</g>
<!-- Node11&#45;&gt;Node7 -->
<g id="edge54_Node000011_Node000007" class="edge">
<title>Node11&#45;&gt;Node7</title>
<g id="a_edge54_Node000011_Node000007"><a xlink:title=" ">
<path fill="none" stroke="#63b8ff" d="M908.28,-290.08C994.06,-283.17 1142.83,-268.65 1159,-250 1201.91,-200.52 1166.34,-148.01 1113,-110 1085.74,-90.58 1050.2,-79.6 1019.84,-73.42"/>
<polygon fill="#63b8ff" stroke="#63b8ff" points="1020.23,-69.93 1009.75,-71.5 1018.92,-76.81 1020.23,-69.93"/>
</a>
</g>
</g>
<!-- Node12 -->
<g id="Node000012" class="node">
<title>Node12</title>
<g id="a_Node000012"><a xlink:title=" ">
<polygon fill="#e0e0e0" stroke="#999999" points="799,-250 661,-250 661,-231 799,-231 799,-250"/>
<text text-anchor="middle" x="730" y="-238" font-family="Helvetica,sans-Serif" font-size="10.00">libultraship/libultraship.h</text>
</a>
</g>
</g>
<!-- Node11&#45;&gt;Node12 -->
<g id="edge21_Node000011_Node000012" class="edge">
<title>Node11&#45;&gt;Node12</title>
<g id="a_edge21_Node000011_Node000012"><a xlink:title=" ">
<path fill="none" stroke="#63b8ff" d="M829.04,-285.98C809.97,-277.42 780.34,-264.11 758.45,-254.28"/>
<polygon fill="#63b8ff" stroke="#63b8ff" points="759.86,-251.07 749.3,-250.17 756.99,-257.46 759.86,-251.07"/>
</a>
</g>
</g>
<!-- Node13 -->
<g id="Node000013" class="node">
<title>Node13</title>
<g id="a_Node000013"><a xlink:href="defines_8h.html" target="_top" xlink:title=" ">
<polygon fill="white" stroke="#666666" points="878.5,-250 817.5,-250 817.5,-231 878.5,-231 878.5,-250"/>
<text text-anchor="middle" x="848" y="-238" font-family="Helvetica,sans-Serif" font-size="10.00">defines.h</text>
</a>
</g>
</g>
<!-- Node11&#45;&gt;Node13 -->
<g id="edge23_Node000011_Node000013" class="edge">
<title>Node11&#45;&gt;Node13</title>
<g id="a_edge23_Node000011_Node000013"><a xlink:title=" ">
<path fill="none" stroke="#63b8ff" d="M848,-285.75C848,-278.8 848,-268.85 848,-260.13"/>
<polygon fill="#63b8ff" stroke="#63b8ff" points="851.5,-260.09 848,-250.09 844.5,-260.09 851.5,-260.09"/>
</a>
</g>
</g>
<!-- Node14 -->
<g id="Node000014" class="node">
<title>Node14</title>
<g id="a_Node000014"><a xlink:href="src_2data_2some__data_8h.html" target="_top" xlink:title=" ">
<polygon fill="white" stroke="#666666" points="605,-250 501,-250 501,-231 605,-231 605,-250"/>
<text text-anchor="middle" x="553" y="-238" font-family="Helvetica,sans-Serif" font-size="10.00">data/some_data.h</text>
</a>
</g>
</g>
<!-- Node11&#45;&gt;Node14 -->
<g id="edge25_Node000011_Node000014" class="edge">
<title>Node11&#45;&gt;Node14</title>
<g id="a_edge25_Node000011_Node000014"><a xlink:title=" ">
<path fill="none" stroke="#63b8ff" d="M800.6,-285.98C748.93,-276.7 666.23,-261.84 610.79,-251.88"/>
<polygon fill="#63b8ff" stroke="#63b8ff" points="611.23,-248.41 600.77,-250.08 609.99,-255.3 611.23,-248.41"/>
</a>
</g>
</g>
<!-- Node19 -->
<g id="Node000019" class="node">
<title>Node19</title>
<g id="a_Node000019"><a xlink:href="bomb__kart_8h.html" target="_top" xlink:title=" ">
<polygon fill="white" stroke="#666666" points="848.5,-195 771.5,-195 771.5,-176 848.5,-176 848.5,-195"/>
<text text-anchor="middle" x="810" y="-183" font-family="Helvetica,sans-Serif" font-size="10.00">bomb_kart.h</text>
</a>
</g>
</g>
<!-- Node11&#45;&gt;Node19 -->
<g id="edge35_Node000011_Node000019" class="edge">
<title>Node11&#45;&gt;Node19</title>
<g id="a_edge35_Node000011_Node000019"><a xlink:title=" ">
<path fill="none" stroke="#63b8ff" d="M787.93,-289C736.73,-282.91 668.82,-271.07 652,-250 619.98,-209.9 704.02,-194.98 761.46,-189.54"/>
<polygon fill="#63b8ff" stroke="#63b8ff" points="761.83,-193.02 771.48,-188.66 761.21,-186.05 761.83,-193.02"/>
</a>
</g>
</g>
<!-- Node23 -->
<g id="Node000023" class="node">
<title>Node23</title>
<g id="a_Node000023"><a xlink:href="path__spawn__metadata_8h.html" target="_top" xlink:title=" ">
<polygon fill="white" stroke="#666666" points="1033.5,-250 896.5,-250 896.5,-231 1033.5,-231 1033.5,-250"/>
<text text-anchor="middle" x="965" y="-238" font-family="Helvetica,sans-Serif" font-size="10.00">path_spawn_metadata.h</text>
</a>
</g>
</g>
<!-- Node11&#45;&gt;Node23 -->
<g id="edge42_Node000011_Node000023" class="edge">
<title>Node11&#45;&gt;Node23</title>
<g id="a_edge42_Node000011_Node000023"><a xlink:title=" ">
<path fill="none" stroke="#63b8ff" d="M866.8,-285.98C885.62,-277.46 914.82,-264.23 936.5,-254.41"/>
<polygon fill="#63b8ff" stroke="#63b8ff" points="938.2,-257.48 945.86,-250.17 935.31,-251.11 938.2,-257.48"/>
</a>
</g>
</g>
<!-- Node24 -->
<g id="Node000024" class="node">
<title>Node24</title>
<g id="a_Node000024"><a xlink:href="waypoints_8h.html" target="_top" xlink:title=" ">
<polygon fill="white" stroke="#666666" points="1150,-195 1074,-195 1074,-176 1150,-176 1150,-195"/>
<text text-anchor="middle" x="1112" y="-183" font-family="Helvetica,sans-Serif" font-size="10.00">waypoints.h</text>
</a>
</g>
</g>
<!-- Node11&#45;&gt;Node24 -->
<g id="edge52_Node000011_Node000024" class="edge">
<title>Node11&#45;&gt;Node24</title>
<g id="a_edge52_Node000011_Node000024"><a xlink:title=" ">
<path fill="none" stroke="#63b8ff" d="M908.38,-288.88C948.39,-283.25 1001.05,-272.06 1043,-250 1065.16,-238.34 1085.6,-217.77 1098.39,-203.2"/>
<polygon fill="#63b8ff" stroke="#63b8ff" points="1101.18,-205.32 1104.99,-195.43 1095.85,-200.79 1101.18,-205.32"/>
</a>
</g>
</g>
<!-- Node26 -->
<g id="Node000026" class="node">
<title>Node26</title>
<g id="a_Node000026"><a xlink:href="sounds_8h.html" target="_top" xlink:title=" ">
<polygon fill="white" stroke="#666666" points="1150,-250 1090,-250 1090,-231 1150,-231 1150,-250"/>
<text text-anchor="middle" x="1120" y="-238" font-family="Helvetica,sans-Serif" font-size="10.00">sounds.h</text>
</a>
</g>
</g>
<!-- Node11&#45;&gt;Node26 -->
<g id="edge53_Node000011_Node000026" class="edge">
<title>Node11&#45;&gt;Node26</title>
<g id="a_edge53_Node000011_Node000026"><a xlink:title=" ">
<path fill="none" stroke="#63b8ff" d="M891.7,-285.98C943.68,-275.86 1029.73,-259.09 1080.02,-249.29"/>
<polygon fill="#63b8ff" stroke="#63b8ff" points="1080.73,-252.72 1089.88,-247.37 1079.4,-245.85 1080.73,-252.72"/>
</a>
</g>
</g>
<!-- Node11&#45;&gt;Node27 -->
<g id="edge55_Node000011_Node000027" class="edge">
<title>Node11&#45;&gt;Node27</title>
<g id="a_edge55_Node000011_Node000027"><a xlink:title=" ">
<path fill="none" stroke="#63b8ff" d="M908.06,-286.74C985.11,-276.78 1118.11,-259.58 1196.07,-249.51"/>
<polygon fill="#63b8ff" stroke="#63b8ff" points="1196.76,-252.95 1206.22,-248.19 1195.86,-246 1196.76,-252.95"/>
</a>
</g>
</g>
<!-- Node14&#45;&gt;Node3 -->
<g id="edge26_Node000014_Node000003" class="edge">
<title>Node14&#45;&gt;Node3</title>
<g id="a_edge26_Node000014_Node000003"><a xlink:title=" ">
<path fill="none" stroke="#63b8ff" d="M552.51,-230.82C550.88,-208.75 544.09,-149.43 517,-110 508.34,-97.39 494.92,-86.96 482.97,-79.37"/>
<polygon fill="#63b8ff" stroke="#63b8ff" points="484.6,-76.26 474.22,-74.13 481.01,-82.27 484.6,-76.26"/>
</a>
</g>
</g>
<!-- Node15 -->
<g id="Node000015" class="node">
<title>Node15</title>
<g id="a_Node000015"><a xlink:href="spline_8h.html" target="_top" xlink:title=" ">
<polygon fill="white" stroke="#666666" points="1011.5,-134.5 956.5,-134.5 956.5,-115.5 1011.5,-115.5 1011.5,-134.5"/>
<text text-anchor="middle" x="984" y="-122.5" font-family="Helvetica,sans-Serif" font-size="10.00">spline.h</text>
</a>
</g>
</g>
<!-- Node14&#45;&gt;Node15 -->
<g id="edge27_Node000014_Node000015" class="edge">
<title>Node14&#45;&gt;Node15</title>
<g id="a_edge27_Node000014_Node000015"><a xlink:title=" ">
<path fill="none" stroke="#63b8ff" d="M579.02,-230.98C618.54,-218.19 696.16,-193.64 763,-176 826.91,-159.13 902.13,-142.87 946.29,-133.68"/>
<polygon fill="#63b8ff" stroke="#63b8ff" points="947.2,-137.06 956.28,-131.61 945.78,-130.21 947.2,-137.06"/>
</a>
</g>
</g>
<!-- Node16 -->
<g id="Node000016" class="node">
<title>Node16</title>
<g id="a_Node000016"><a xlink:href="other__textures_8h.html" target="_top" xlink:title=" ">
<polygon fill="white" stroke="#666666" points="684,-140 564,-140 564,-110 684,-110 684,-140"/>
<text text-anchor="start" x="572" y="-128" font-family="Helvetica,sans-Serif" font-size="10.00">assets/textures/other</text>
<text text-anchor="middle" x="624" y="-117" font-family="Helvetica,sans-Serif" font-size="10.00">_textures.h</text>
</a>
</g>
</g>
<!-- Node14&#45;&gt;Node16 -->
<g id="edge29_Node000014_Node000016" class="edge">
<title>Node14&#45;&gt;Node16</title>
<g id="a_edge29_Node000014_Node000016"><a xlink:title=" ">
<path fill="none" stroke="#63b8ff" d="M558.34,-230.97C569.14,-213.7 593.9,-174.12 609.74,-148.8"/>
<polygon fill="#63b8ff" stroke="#63b8ff" points="612.79,-150.52 615.13,-140.18 606.86,-146.8 612.79,-150.52"/>
</a>
</g>
</g>
<!-- Node18 -->
<g id="Node000018" class="node">
<title>Node18</title>
<g id="a_Node000018"><a xlink:href="objects_8h.html" target="_top" xlink:title=" ">
<polygon fill="white" stroke="#666666" points="1014.5,-195 953.5,-195 953.5,-176 1014.5,-176 1014.5,-195"/>
<text text-anchor="middle" x="984" y="-183" font-family="Helvetica,sans-Serif" font-size="10.00">objects.h</text>
</a>
</g>
</g>
<!-- Node14&#45;&gt;Node18 -->
<g id="edge32_Node000014_Node000018" class="edge">
<title>Node14&#45;&gt;Node18</title>
<g id="a_edge32_Node000014_Node000018"><a xlink:title=" ">
<path fill="none" stroke="#63b8ff" d="M605.42,-233.05C692.48,-222.35 865.06,-201.13 943.5,-191.48"/>
<polygon fill="#63b8ff" stroke="#63b8ff" points="943.98,-194.95 953.48,-190.25 943.13,-188 943.98,-194.95"/>
</a>
</g>
</g>
<!-- Node15&#45;&gt;Node7 -->
<g id="edge28_Node000015_Node000007" class="edge">
<title>Node15&#45;&gt;Node7</title>
<g id="a_edge28_Node000015_Node000007"><a xlink:title=" ">
<path fill="none" stroke="#63b8ff" d="M979.87,-115.37C975.86,-106.99 969.65,-94.01 964.56,-83.39"/>
<polygon fill="#63b8ff" stroke="#63b8ff" points="967.62,-81.68 960.15,-74.17 961.31,-84.7 967.62,-81.68"/>
</a>
</g>
</g>
<!-- Node16&#45;&gt;Node2 -->
<g id="edge30_Node000016_Node000002" class="edge">
<title>Node16&#45;&gt;Node2</title>
<g id="a_edge30_Node000016_Node000002"><a xlink:title=" ">
<path fill="none" stroke="#63b8ff" d="M619.57,-109.63C613.24,-89.12 601.63,-51.47 594.68,-28.93"/>
<polygon fill="#63b8ff" stroke="#63b8ff" points="597.98,-27.75 591.69,-19.23 591.29,-29.82 597.98,-27.75"/>
</a>
</g>
</g>
<!-- Node17 -->
<g id="Node000017" class="node">
<title>Node17</title>
<g id="a_Node000017"><a xlink:href="align__asset__macro_8h.html" target="_top" xlink:title=" ">
<polygon fill="white" stroke="#666666" points="734.5,-74 617.5,-74 617.5,-55 734.5,-55 734.5,-74"/>
<text text-anchor="middle" x="676" y="-62" font-family="Helvetica,sans-Serif" font-size="10.00">align_asset_macro.h</text>
</a>
</g>
</g>
<!-- Node16&#45;&gt;Node17 -->
<g id="edge31_Node000016_Node000017" class="edge">
<title>Node16&#45;&gt;Node17</title>
<g id="a_edge31_Node000016_Node000017"><a xlink:title=" ">
<path fill="none" stroke="#63b8ff" d="M636.59,-109.84C644.06,-101.43 653.56,-90.74 661.37,-81.96"/>
<polygon fill="#63b8ff" stroke="#63b8ff" points="664.18,-84.07 668.21,-74.27 658.95,-79.41 664.18,-84.07"/>
</a>
</g>
</g>
<!-- Node18&#45;&gt;Node7 -->
<g id="edge34_Node000018_Node000007" class="edge">
<title>Node18&#45;&gt;Node7</title>
<g id="a_edge34_Node000018_Node000007"><a xlink:title=" ">
<path fill="none" stroke="#63b8ff" d="M994.44,-175.87C1003.42,-167.7 1015.74,-154.55 1021,-140 1025.53,-127.46 1027.22,-121.79 1021,-110 1013.76,-96.27 1000.17,-85.97 987.28,-78.76"/>
<polygon fill="#63b8ff" stroke="#63b8ff" points="988.61,-75.51 978.12,-74.05 985.41,-81.73 988.61,-75.51"/>
</a>
</g>
</g>
<!-- Node18&#45;&gt;Node15 -->
<g id="edge33_Node000018_Node000015" class="edge">
<title>Node18&#45;&gt;Node15</title>
<g id="a_edge33_Node000018_Node000015"><a xlink:title=" ">
<path fill="none" stroke="#63b8ff" d="M984,-175.87C984,-167.75 984,-155.31 984,-144.89"/>
<polygon fill="#63b8ff" stroke="#63b8ff" points="987.5,-144.67 984,-134.67 980.5,-144.67 987.5,-144.67"/>
</a>
</g>
</g>
<!-- Node19&#45;&gt;Node7 -->
<g id="edge36_Node000019_Node000007" class="edge">
<title>Node19&#45;&gt;Node7</title>
<g id="a_edge36_Node000019_Node000007"><a xlink:title=" ">
<path fill="none" stroke="#63b8ff" d="M837.25,-175.89C857.26,-168.6 884.28,-156.67 904,-140 922.75,-124.15 937.93,-100.02 946.94,-83.55"/>
<polygon fill="#63b8ff" stroke="#63b8ff" points="950.18,-84.91 951.74,-74.42 943.99,-81.65 950.18,-84.91"/>
</a>
</g>
</g>
<!-- Node20 -->
<g id="Node000020" class="node">
<title>Node20</title>
<g id="a_Node000020"><a xlink:href="mk64_8h.html" target="_top" xlink:title=" ">
<polygon fill="white" stroke="#666666" points="345.5,-134.5 292.5,-134.5 292.5,-115.5 345.5,-115.5 345.5,-134.5"/>
<text text-anchor="middle" x="319" y="-122.5" font-family="Helvetica,sans-Serif" font-size="10.00">mk64.h</text>
</a>
</g>
</g>
<!-- Node19&#45;&gt;Node20 -->
<g id="edge37_Node000019_Node000020" class="edge">
<title>Node19&#45;&gt;Node20</title>
<g id="a_edge37_Node000019_Node000020"><a xlink:title=" ">
<path fill="none" stroke="#63b8ff" d="M771.35,-181.42C697.57,-175.32 531.65,-160.48 393,-140 380.79,-138.2 367.53,-135.82 355.65,-133.54"/>
<polygon fill="#63b8ff" stroke="#63b8ff" points="356.12,-130.06 345.63,-131.58 354.77,-136.93 356.12,-130.06"/>
</a>
</g>
</g>
<!-- Node20&#45;&gt;Node2 -->
<g id="edge38_Node000020_Node000002" class="edge">
<title>Node20&#45;&gt;Node2</title>
<g id="a_edge38_Node000020_Node000002"><a xlink:title=" ">
<path fill="none" stroke="#63b8ff" d="M327.62,-115.38C342.74,-100.73 375.64,-71.04 409,-55 450.37,-35.11 501.5,-23.57 538.68,-17.25"/>
<polygon fill="#63b8ff" stroke="#63b8ff" points="539.47,-20.67 548.78,-15.6 538.34,-13.76 539.47,-20.67"/>
</a>
</g>
</g>
<!-- Node20&#45;&gt;Node3 -->
<g id="edge41_Node000020_Node000003" class="edge">
<title>Node20&#45;&gt;Node3</title>
<g id="a_edge41_Node000020_Node000003"><a xlink:title=" ">
<path fill="none" stroke="#63b8ff" d="M339.07,-115.49C362.37,-105.62 401.01,-89.23 427.68,-77.93"/>
<polygon fill="#63b8ff" stroke="#63b8ff" points="429.07,-81.14 436.91,-74.02 426.34,-74.7 429.07,-81.14"/>
</a>
</g>
</g>
<!-- Node21 -->
<g id="Node000021" class="node">
<title>Node21</title>
<g id="a_Node000021"><a xlink:href="string_8h.html" target="_top" xlink:title=" ">
<polygon fill="white" stroke="#666666" points="361.5,-74 308.5,-74 308.5,-55 361.5,-55 361.5,-74"/>
<text text-anchor="middle" x="335" y="-62" font-family="Helvetica,sans-Serif" font-size="10.00">string.h</text>
</a>
</g>
</g>
<!-- Node20&#45;&gt;Node21 -->
<g id="edge39_Node000020_Node000021" class="edge">
<title>Node20&#45;&gt;Node21</title>
<g id="a_edge39_Node000020_Node000021"><a xlink:title=" ">
<path fill="none" stroke="#63b8ff" d="M321.36,-115.37C323.61,-107.16 327.06,-94.54 329.93,-84.05"/>
<polygon fill="#63b8ff" stroke="#63b8ff" points="333.37,-84.74 332.63,-74.17 326.62,-82.89 333.37,-84.74"/>
</a>
</g>
</g>
<!-- Node22 -->
<g id="Node000022" class="node">
<title>Node22</title>
<g id="a_Node000022"><a xlink:title=" ">
<polygon fill="#e0e0e0" stroke="#999999" points="380,-19 290,-19 290,0 380,0 380,-19"/>
<text text-anchor="middle" x="335" y="-7" font-family="Helvetica,sans-Serif" font-size="10.00">libultra/types.h</text>
</a>
</g>
</g>
<!-- Node21&#45;&gt;Node22 -->
<g id="edge40_Node000021_Node000022" class="edge">
<title>Node21&#45;&gt;Node22</title>
<g id="a_edge40_Node000021_Node000022"><a xlink:title=" ">
<path fill="none" stroke="#63b8ff" d="M335,-54.75C335,-47.8 335,-37.85 335,-29.13"/>
<polygon fill="#63b8ff" stroke="#63b8ff" points="338.5,-29.09 335,-19.09 331.5,-29.09 338.5,-29.09"/>
</a>
</g>
</g>
<!-- Node23&#45;&gt;Node7 -->
<g id="edge45_Node000023_Node000007" class="edge">
<title>Node23&#45;&gt;Node7</title>
<g id="a_edge45_Node000023_Node000007"><a xlink:title=" ">
<path fill="none" stroke="#63b8ff" d="M982.1,-230.91C995.52,-223.29 1013.62,-210.9 1024,-195 1044.89,-163 1056.46,-142.89 1037,-110 1028.14,-95.02 1012.24,-84.74 996.86,-77.88"/>
<polygon fill="#63b8ff" stroke="#63b8ff" points="998,-74.56 987.42,-74.03 995.36,-81.04 998,-74.56"/>
</a>
</g>
</g>
<!-- Node23&#45;&gt;Node19 -->
<g id="edge51_Node000023_Node000019" class="edge">
<title>Node23&#45;&gt;Node19</title>
<g id="a_edge51_Node000023_Node000019"><a xlink:title=" ">
<path fill="none" stroke="#63b8ff" d="M940.1,-230.98C914.3,-222.16 873.78,-208.31 844.82,-198.41"/>
<polygon fill="#63b8ff" stroke="#63b8ff" points="845.69,-195.01 835.1,-195.08 843.43,-201.63 845.69,-195.01"/>
</a>
</g>
</g>
<!-- Node23&#45;&gt;Node24 -->
<g id="edge43_Node000023_Node000024" class="edge">
<title>Node23&#45;&gt;Node24</title>
<g id="a_edge43_Node000023_Node000024"><a xlink:title=" ">
<path fill="none" stroke="#63b8ff" d="M988.62,-230.98C1012.9,-222.23 1050.95,-208.51 1078.37,-198.62"/>
<polygon fill="#63b8ff" stroke="#63b8ff" points="1079.73,-201.85 1087.95,-195.17 1077.36,-195.27 1079.73,-201.85"/>
</a>
</g>
</g>
<!-- Node25 -->
<g id="Node000025" class="node">
<title>Node25</title>
<g id="a_Node000025"><a xlink:href="other_2common__data_8h.html" target="_top" xlink:title=" ">
<polygon fill="white" stroke="#666666" points="824,-140 702,-140 702,-110 824,-110 824,-140"/>
<text text-anchor="start" x="710" y="-128" font-family="Helvetica,sans-Serif" font-size="10.00">assets/other/common</text>
<text text-anchor="middle" x="763" y="-117" font-family="Helvetica,sans-Serif" font-size="10.00">_data.h</text>
</a>
</g>
</g>
<!-- Node23&#45;&gt;Node25 -->
<g id="edge46_Node000023_Node000025" class="edge">
<title>Node23&#45;&gt;Node25</title>
<g id="a_edge46_Node000023_Node000025"><a xlink:title=" ">
<path fill="none" stroke="#63b8ff" d="M950.94,-230.84C930.61,-218.4 891.75,-194.88 858,-176 838.89,-165.31 817.3,-153.9 799.54,-144.68"/>
<polygon fill="#63b8ff" stroke="#63b8ff" points="801.13,-141.56 790.64,-140.07 797.91,-147.77 801.13,-141.56"/>
</a>
</g>
</g>
<!-- Node24&#45;&gt;Node7 -->
<g id="edge44_Node000024_Node000007" class="edge">
<title>Node24&#45;&gt;Node7</title>
<g id="a_edge44_Node000024_Node000007"><a xlink:title=" ">
<path fill="none" stroke="#63b8ff" d="M1112.19,-175.88C1112.04,-160.56 1109.5,-128.47 1092,-110 1073.14,-90.1 1045.27,-79.09 1019.66,-73"/>
<polygon fill="#63b8ff" stroke="#63b8ff" points="1020.13,-69.52 1009.61,-70.82 1018.65,-76.36 1020.13,-69.52"/>
</a>
</g>
</g>
<!-- Node25&#45;&gt;Node2 -->
<g id="edge48_Node000025_Node000002" class="edge">
<title>Node25&#45;&gt;Node2</title>
<g id="a_edge48_Node000025_Node000002"><a xlink:title=" ">
<path fill="none" stroke="#63b8ff" d="M762.98,-109.85C762.19,-94.32 758.5,-69.66 744,-55 716.61,-27.31 673.22,-16.57 639.31,-12.54"/>
<polygon fill="#63b8ff" stroke="#63b8ff" points="639.42,-9.04 629.11,-11.5 638.7,-16 639.42,-9.04"/>
</a>
</g>
</g>
<!-- Node25&#45;&gt;Node3 -->
<g id="edge47_Node000025_Node000003" class="edge">
<title>Node25&#45;&gt;Node3</title>
<g id="a_edge47_Node000025_Node000003"><a xlink:title=" ">
<path fill="none" stroke="#63b8ff" d="M701.92,-111.74C698.91,-111.15 695.92,-110.57 693,-110 628.56,-97.48 554.11,-83.53 506.35,-74.64"/>
<polygon fill="#63b8ff" stroke="#63b8ff" points="506.75,-71.16 496.28,-72.77 505.47,-78.04 506.75,-71.16"/>
</a>
</g>
</g>
<!-- Node25&#45;&gt;Node7 -->
<g id="edge49_Node000025_Node000007" class="edge">
<title>Node25&#45;&gt;Node7</title>
<g id="a_edge49_Node000025_Node000007"><a xlink:title=" ">
<path fill="none" stroke="#63b8ff" d="M809.23,-109.99C842.54,-99.89 886.93,-86.44 918.14,-76.98"/>
<polygon fill="#63b8ff" stroke="#63b8ff" points="919.23,-80.3 927.78,-74.05 917.2,-73.6 919.23,-80.3"/>
</a>
</g>
</g>
<!-- Node25&#45;&gt;Node17 -->
<g id="edge50_Node000025_Node000017" class="edge">
<title>Node25&#45;&gt;Node17</title>
<g id="a_edge50_Node000025_Node000017"><a xlink:title=" ">
<path fill="none" stroke="#63b8ff" d="M741.94,-109.84C728.46,-100.77 711.01,-89.04 697.45,-79.92"/>
<polygon fill="#63b8ff" stroke="#63b8ff" points="699.03,-76.77 688.78,-74.09 695.13,-82.58 699.03,-76.77"/>
</a>
</g>
</g>
<!-- Node27&#45;&gt;Node2 -->
<g id="edge59_Node000027_Node000002" class="edge">
<title>Node27&#45;&gt;Node2</title>
<g id="a_edge59_Node000027_Node000002"><a xlink:title=" ">
<path fill="none" stroke="#63b8ff" d="M1252.28,-230.79C1237,-208.13 1193.01,-146.54 1143,-110 1094.32,-74.43 1077.26,-70.52 1019,-55 885.22,-19.37 720.97,-11.98 639.62,-10.64"/>
<polygon fill="#63b8ff" stroke="#63b8ff" points="639.22,-7.13 629.18,-10.49 639.13,-14.13 639.22,-7.13"/>
</a>
</g>
</g>
<!-- Node27&#45;&gt;Node6 -->
<g id="edge65_Node000027_Node000006" class="edge">
<title>Node27&#45;&gt;Node6</title>
<g id="a_edge65_Node000027_Node000006"><a xlink:title=" ">
<path fill="none" stroke="#63b8ff" d="M1206.39,-234.68C1191.14,-233.37 1174.41,-232.02 1159,-231 815.82,-208.29 728.89,-221.64 386,-195 374.03,-194.07 361.05,-192.77 349.18,-191.47"/>
<polygon fill="#63b8ff" stroke="#63b8ff" points="349.41,-187.97 339.08,-190.33 348.63,-194.93 349.41,-187.97"/>
</a>
</g>
</g>
<!-- Node28 -->
<g id="Node000028" class="node">
<title>Node28</title>
<g id="a_Node000028"><a xlink:href="macros_8h.html" target="_top" xlink:title=" ">
<polygon fill="white" stroke="#666666" points="1320,-134.5 1258,-134.5 1258,-115.5 1320,-115.5 1320,-134.5"/>
<text text-anchor="middle" x="1289" y="-122.5" font-family="Helvetica,sans-Serif" font-size="10.00">macros.h</text>
</a>
</g>
</g>
<!-- Node27&#45;&gt;Node28 -->
<g id="edge56_Node000027_Node000028" class="edge">
<title>Node27&#45;&gt;Node28</title>
<g id="a_edge56_Node000027_Node000028"><a xlink:title=" ">
<path fill="none" stroke="#63b8ff" d="M1260.33,-230.97C1265.33,-212.65 1277.21,-169.18 1284,-144.31"/>
<polygon fill="#63b8ff" stroke="#63b8ff" points="1287.38,-145.2 1286.64,-134.63 1280.63,-143.35 1287.38,-145.2"/>
</a>
</g>
</g>
<!-- Node27&#45;&gt;Node30 -->
<g id="edge60_Node000027_Node000030" class="edge">
<title>Node27&#45;&gt;Node30</title>
<g id="a_edge60_Node000027_Node000030"><a xlink:title=" ">
<path fill="none" stroke="#63b8ff" d="M1270.85,-230.98C1283.14,-222.84 1301.91,-210.41 1316.48,-200.76"/>
<polygon fill="#63b8ff" stroke="#63b8ff" points="1318.51,-203.61 1324.91,-195.17 1314.64,-197.78 1318.51,-203.61"/>
</a>
</g>
</g>
<!-- Node28&#45;&gt;Node2 -->
<g id="edge58_Node000028_Node000002" class="edge">
<title>Node28&#45;&gt;Node2</title>
<g id="a_edge58_Node000028_Node000002"><a xlink:title=" ">
<path fill="none" stroke="#63b8ff" d="M1286.24,-115.35C1280.87,-100.1 1267.44,-68.75 1244,-55 1192.32,-24.7 783.76,-14.15 639.35,-11.35"/>
<polygon fill="#63b8ff" stroke="#63b8ff" points="639.08,-7.85 629.02,-11.16 638.95,-14.85 639.08,-7.85"/>
</a>
</g>
</g>
<!-- Node29 -->
<g id="Node000029" class="node">
<title>Node29</title>
<g id="a_Node000029"><a xlink:href="math_8h.html" target="_top" xlink:title=" ">
<polygon fill="white" stroke="#666666" points="1347.5,-74 1296.5,-74 1296.5,-55 1347.5,-55 1347.5,-74"/>
<text text-anchor="middle" x="1322" y="-62" font-family="Helvetica,sans-Serif" font-size="10.00">math.h</text>
</a>
</g>
</g>
<!-- Node28&#45;&gt;Node29 -->
<g id="edge57_Node000028_Node000029" class="edge">
<title>Node28&#45;&gt;Node29</title>
<g id="a_edge57_Node000028_Node000029"><a xlink:title=" ">
<path fill="none" stroke="#63b8ff" d="M1293.87,-115.37C1298.65,-106.9 1306.07,-93.74 1312.09,-83.07"/>
<polygon fill="#63b8ff" stroke="#63b8ff" points="1315.25,-84.6 1317.11,-74.17 1309.15,-81.16 1315.25,-84.6"/>
</a>
</g>
</g>
<!-- Node30&#45;&gt;Node2 -->
<g id="edge61_Node000030_Node000002" class="edge">
<title>Node30&#45;&gt;Node2</title>
<g id="a_edge61_Node000030_Node000002"><a xlink:title=" ">
<path fill="none" stroke="#63b8ff" d="M1360.12,-175.95C1375.2,-168.82 1394.01,-157.06 1403,-140 1423.03,-102 1395.37,-74.3 1357,-55 1293.19,-22.9 799.72,-13.37 639.24,-11.11"/>
<polygon fill="#63b8ff" stroke="#63b8ff" points="639.21,-7.61 629.16,-10.97 639.11,-14.61 639.21,-7.61"/>
</a>
</g>
</g>
<!-- Node30&#45;&gt;Node7 -->
<g id="edge63_Node000030_Node000007" class="edge">
<title>Node30&#45;&gt;Node7</title>
<g id="a_edge63_Node000030_Node000007"><a xlink:title=" ">
<path fill="none" stroke="#63b8ff" d="M1321.55,-175.92C1291.71,-160.67 1226.31,-128.68 1168,-110 1119.26,-94.39 1062.43,-82.8 1019.88,-75.37"/>
<polygon fill="#63b8ff" stroke="#63b8ff" points="1020.39,-71.9 1009.94,-73.66 1019.2,-78.8 1020.39,-71.9"/>
</a>
</g>
</g>
<!-- Node30&#45;&gt;Node28 -->
<g id="edge62_Node000030_Node000028" class="edge">
<title>Node30&#45;&gt;Node28</title>
<g id="a_edge62_Node000030_Node000028"><a xlink:title=" ">
<path fill="none" stroke="#63b8ff" d="M1330.77,-175.87C1323.46,-167.14 1311.98,-153.43 1302.9,-142.59"/>
<polygon fill="#63b8ff" stroke="#63b8ff" points="1305.36,-140.09 1296.26,-134.67 1300,-144.58 1305.36,-140.09"/>
</a>
</g>
</g>
<!-- Node31 -->
<g id="Node000031" class="node">
<title>Node31</title>
<g id="a_Node000031"><a xlink:title=" ">
<polygon fill="#e0e0e0" stroke="#999999" points="1394,-134.5 1338,-134.5 1338,-115.5 1394,-115.5 1394,-134.5"/>
<text text-anchor="middle" x="1366" y="-122.5" font-family="Helvetica,sans-Serif" font-size="10.00">assert.h</text>
</a>
</g>
</g>
<!-- Node30&#45;&gt;Node31 -->
<g id="edge64_Node000030_Node000031" class="edge">
<title>Node30&#45;&gt;Node31</title>
<g id="a_edge64_Node000030_Node000031"><a xlink:title=" ">
<path fill="none" stroke="#63b8ff" d="M1342.13,-175.87C1346.14,-167.49 1352.35,-154.51 1357.44,-143.89"/>
<polygon fill="#63b8ff" stroke="#63b8ff" points="1360.69,-145.2 1361.85,-134.67 1354.38,-142.18 1360.69,-145.2"/>
</a>
</g>
</g>
<!-- Node32&#45;&gt;Node2 -->
<g id="edge67_Node000032_Node000002" class="edge">
<title>Node32&#45;&gt;Node2</title>
<g id="a_edge67_Node000032_Node000002"><a xlink:title=" ">
<path fill="none" stroke="#63b8ff" d="M465.07,-115.47C487.58,-96.41 542.21,-50.13 570.83,-25.89"/>
<polygon fill="#63b8ff" stroke="#63b8ff" points="573.44,-28.26 578.81,-19.13 568.92,-22.92 573.44,-28.26"/>
</a>
</g>
</g>
<!-- Node32&#45;&gt;Node3 -->
<g id="edge68_Node000032_Node000003" class="edge">
<title>Node32&#45;&gt;Node3</title>
<g id="a_edge68_Node000032_Node000003"><a xlink:title=" ">
<path fill="none" stroke="#63b8ff" d="M455.3,-115.37C455.57,-107.25 456,-94.81 456.35,-84.39"/>
<polygon fill="#63b8ff" stroke="#63b8ff" points="459.86,-84.28 456.7,-74.17 452.86,-84.04 459.86,-84.28"/>
</a>
</g>
</g>
<!-- Node32&#45;&gt;Node5 -->
<g id="edge69_Node000032_Node000005" class="edge">
<title>Node32&#45;&gt;Node5</title>
<g id="a_edge69_Node000032_Node000005"><a xlink:title=" ">
<path fill="none" stroke="#63b8ff" d="M425.77,-115.49C390.79,-105.31 332.07,-88.22 293.18,-76.9"/>
<polygon fill="#63b8ff" stroke="#63b8ff" points="293.84,-73.45 283.26,-74.02 291.89,-80.17 293.84,-73.45"/>
</a>
</g>
</g>
<!-- Node32&#45;&gt;Node7 -->
<g id="edge70_Node000032_Node000007" class="edge">
<title>Node32&#45;&gt;Node7</title>
<g id="a_edge70_Node000032_Node000007"><a xlink:title=" ">
<path fill="none" stroke="#63b8ff" d="M508.16,-116.27C523.28,-114.15 539.78,-111.91 555,-110 673.89,-95.08 812.95,-80.23 892.14,-72.02"/>
<polygon fill="#63b8ff" stroke="#63b8ff" points="892.84,-75.46 902.43,-70.95 892.12,-68.5 892.84,-75.46"/>
</a>
</g>
</g>
<!-- Node33&#45;&gt;Node7 -->
<g id="edge76_Node000033_Node000007" class="edge">
<title>Node33&#45;&gt;Node7</title>
<g id="a_edge76_Node000033_Node000007"><a xlink:title=" ">
<path fill="none" stroke="#63b8ff" d="M445,-183.91C527.3,-181.69 788.89,-172.19 866,-140 870.23,-138.24 913.27,-101.89 938.27,-80.63"/>
<polygon fill="#63b8ff" stroke="#63b8ff" points="940.63,-83.22 945.97,-74.07 936.09,-77.89 940.63,-83.22"/>
</a>
</g>
</g>
<!-- Node33&#45;&gt;Node20 -->
<g id="edge75_Node000033_Node000020" class="edge">
<title>Node33&#45;&gt;Node20</title>
<g id="a_edge75_Node000033_Node000020"><a xlink:title=" ">
<path fill="none" stroke="#63b8ff" d="M405.1,-175.87C388.69,-166.36 362.07,-150.95 342.77,-139.77"/>
<polygon fill="#63b8ff" stroke="#63b8ff" points="344.37,-136.65 333.96,-134.67 340.86,-142.71 344.37,-136.65"/>
</a>
</g>
</g>
</g>
</svg>
