<?xml version="1.0" encoding="UTF-8" standalone="no"?>
<!DOCTYPE svg PUBLIC "-//W3C//DTD SVG 1.1//EN"
 "http://www.w3.org/Graphics/SVG/1.1/DTD/svg11.dtd">
<!-- Generated by graphviz version 2.43.0 (0)
 -->
<!-- Title: CM_SetViewProjection Pages: 1 -->
<!--zoomable 347 -->

<svg id="main" version="1.1" xmlns="http://www.w3.org/2000/svg" xmlns:xlink="http://www.w3.org/1999/xlink" xml:space="preserve" onload="init(evt)">

<style type="text/css"><![CDATA[
.node, .edge {opacity: 0.7;}
.node.selected, .edge.selected {opacity: 1;}
.edge:hover path { stroke: red; }
.edge:hover polygon { stroke: red; fill: red; }
]]></style>

<defs>
  <circle id="rim" cx="0" cy="0" r="7"/>
  <circle id="rim2" cx="0" cy="0" r="3.5"/>
  <g id="zoomPlus">
    <use xlink:href="#rim" fill="#404040"><set attributeName="fill" to="#808080" begin="zoomplus.mouseover" end="zoomplus.mouseout"/></use>
    <path d="M-4,0h8M0,-4v8" fill="none" stroke="white" stroke-width="1.5" pointer-events="none"/>
  </g>
  <g id="zoomMin">
    <use xlink:href="#rim" fill="#404040"><set attributeName="fill" to="#808080" begin="zoomminus.mouseover" end="zoomminus.mouseout"/></use>
    <path d="M-4,0h8" fill="none" stroke="white" stroke-width="1.5" pointer-events="none"/>
  </g>
  <g id="arrowUp" transform="translate(30 24)">
    <use xlink:href="#rim"/>
    <path pointer-events="none" fill="none" stroke="white" stroke-width="1.5" d="M0,-3.0v7 M-2.5,-0.5L0,-3.0L2.5,-0.5"/>
  </g>
  <g id="arrowRight" transform="rotate(90) translate(36 -43)">
    <use xlink:href="#rim"/>
    <path pointer-events="none" fill="none" stroke="white" stroke-width="1.5" d="M0,-3.0v7 M-2.5,-0.5L0,-3.0L2.5,-0.5"/>
  </g>
  <g id="arrowDown" transform="rotate(180) translate(-30 -48)">
    <use xlink:href="#rim"/>
    <path pointer-events="none" fill="none" stroke="white" stroke-width="1.5" d="M0,-3.0v7 M-2.5,-0.5L0,-3.0L2.5,-0.5"/>
  </g>
  <g id="arrowLeft" transform="rotate(270) translate(-36 17)">
    <use xlink:href="#rim"/>
    <path pointer-events="none" fill="none" stroke="white" stroke-width="1.5" d="M0,-3.0v7 M-2.5,-0.5L0,-3.0L2.5,-0.5"/>
  </g>
  <g id="resetDef">
    <use xlink:href="#rim2" fill="#404040"><set attributeName="fill" to="#808080" begin="reset.mouseover" end="reset.mouseout"/></use>
  </g>
</defs>
<script type="application/ecmascript">
var viewWidth = 815;
var viewHeight = 347;
var sectionId = 'dynsection-60';
</script>
<script type="application/ecmascript" xlink:href="svg.min.js"/>
<svg id="graph" class="graph">
<g id="viewport">
<title>CM_SetViewProjection</title>
<!-- Node1 -->
<g id="Node000001" class="node">
<title>Node1</title>
<g id="a_Node000001"><a xlink:title=" ">
<polygon fill="#999999" stroke="#666666" points="126,-249 0,-249 0,-230 126,-230 126,-249"/>
<text text-anchor="middle" x="63" y="-237" font-family="Helvetica,sans-Serif" font-size="10.00">CM_SetViewProjection</text>
</a>
</g>
</g>
<!-- Node2 -->
<g id="Node000002" class="node">
<title>Node2</title>
<g id="a_Node000002"><a xlink:href="classGameCamera.html#a0b57e58a455b563182aca39a202c2ffd" target="_top" xlink:title=" ">
<polygon fill="white" stroke="#666666" points="305,-268 198,-268 198,-249 305,-249 305,-268"/>
<text text-anchor="middle" x="251.5" y="-256" font-family="Helvetica,sans-Serif" font-size="10.00">GameCamera::Get</text>
</a>
</g>
</g>
<!-- Node1&#45;&gt;Node2 -->
<g id="edge1_Node000001_Node000002" class="edge">
<title>Node1&#45;&gt;Node2</title>
<g id="a_edge1_Node000001_Node000002"><a xlink:title=" ">
<path fill="none" stroke="#63b8ff" d="M126.1,-245.83C145.86,-247.84 167.73,-250.07 187.55,-252.09"/>
<polygon fill="#63b8ff" stroke="#63b8ff" points="187.41,-255.59 197.71,-253.12 188.12,-248.63 187.41,-255.59"/>
</a>
</g>
</g>
<!-- Node3 -->
<g id="Node000003" class="node">
<title>Node3</title>
<g id="a_Node000003"><a xlink:href="classGameCamera.html#a96870ea78675e370cdfd9f65ae134beb" target="_top" xlink:title=" ">
<polygon fill="white" stroke="#666666" points="341,-231 162,-231 162,-212 341,-212 341,-231"/>
<text text-anchor="middle" x="251.5" y="-219" font-family="Helvetica,sans-Serif" font-size="10.00">GameCamera::SetViewProjection</text>
</a>
</g>
</g>
<!-- Node1&#45;&gt;Node3 -->
<g id="edge2_Node000001_Node000003" class="edge">
<title>Node1&#45;&gt;Node3</title>
<g id="a_edge2_Node000001_Node000003"><a xlink:title=" ">
<path fill="none" stroke="#63b8ff" d="M126.1,-233.51C134.33,-232.71 142.92,-231.88 151.57,-231.05"/>
<polygon fill="#63b8ff" stroke="#63b8ff" points="152.13,-234.51 161.75,-230.07 151.46,-227.54 152.13,-234.51"/>
</a>
</g>
</g>
<!-- Node4 -->
<g id="Node000004" class="node">
<title>Node4</title>
<g id="a_Node000004"><a xlink:href="Game_8cpp.html#a3416a195a0c7be6ec3783bbf4842dc3e" target="_top" xlink:title=" ">
<polygon fill="white" stroke="#666666" points="473,-339 391,-339 391,-320 473,-320 473,-339"/>
<text text-anchor="middle" x="432" y="-327" font-family="Helvetica,sans-Serif" font-size="10.00">CM_GetProps</text>
</a>
</g>
</g>
<!-- Node3&#45;&gt;Node4 -->
<g id="edge3_Node000003_Node000004" class="edge">
<title>Node3&#45;&gt;Node4</title>
<g id="a_edge3_Node000003_Node000004"><a xlink:title=" ">
<path fill="none" stroke="#63b8ff" d="M324.54,-231.09C330.42,-233.59 336.01,-236.68 341,-240.5 368.77,-261.77 350.63,-287.51 377,-310.5 378.93,-312.19 381.03,-313.72 383.23,-315.13"/>
<polygon fill="#63b8ff" stroke="#63b8ff" points="381.67,-318.27 392.13,-319.91 384.98,-312.1 381.67,-318.27"/>
</a>
</g>
</g>
<!-- Node5 -->
<g id="Node000005" class="node">
<title>Node5</title>
<g id="a_Node000005"><a xlink:href="FrameInterpolation_8cpp.html#ab79dec187c1c1b859e47a13251fb1671" target="_top" xlink:title=" ">
<polygon fill="white" stroke="#666666" points="487,-301.5 377,-301.5 377,-271.5 487,-271.5 487,-301.5"/>
<text text-anchor="start" x="385" y="-289.5" font-family="Helvetica,sans-Serif" font-size="10.00">FrameInterpolation</text>
<text text-anchor="middle" x="432" y="-278.5" font-family="Helvetica,sans-Serif" font-size="10.00">_GetCameraEpoch</text>
</a>
</g>
</g>
<!-- Node3&#45;&gt;Node5 -->
<g id="edge4_Node000003_Node000005" class="edge">
<title>Node3&#45;&gt;Node5</title>
<g id="a_edge4_Node000003_Node000005"><a xlink:title=" ">
<path fill="none" stroke="#63b8ff" d="M307.89,-231.06C319,-233.63 330.49,-236.76 341,-240.5 346.59,-242.49 371.43,-255.24 393.6,-266.81"/>
<polygon fill="#63b8ff" stroke="#63b8ff" points="392.07,-269.96 402.55,-271.49 395.32,-263.75 392.07,-269.96"/>
</a>
</g>
</g>
<!-- Node6 -->
<g id="Node000006" class="node">
<title>Node6</title>
<g id="a_Node000006"><a xlink:href="FrameInterpolation_8cpp.html#a3a036bc9d533e28a4e9697cd20dccf3e" target="_top" xlink:title=" ">
<polygon fill="white" stroke="#666666" points="648,-264.5 538,-264.5 538,-234.5 648,-234.5 648,-264.5"/>
<text text-anchor="start" x="546" y="-252.5" font-family="Helvetica,sans-Serif" font-size="10.00">FrameInterpolation</text>
<text text-anchor="middle" x="593" y="-241.5" font-family="Helvetica,sans-Serif" font-size="10.00">_RecordCloseChild</text>
</a>
</g>
</g>
<!-- Node3&#45;&gt;Node6 -->
<g id="edge5_Node000003_Node000006" class="edge">
<title>Node3&#45;&gt;Node6</title>
<g id="a_edge5_Node000003_Node000006"><a xlink:title=" ">
<path fill="none" stroke="#63b8ff" d="M341.26,-228.82C399.64,-233.64 474.73,-239.83 527.46,-244.18"/>
<polygon fill="#63b8ff" stroke="#63b8ff" points="527.44,-247.69 537.69,-245.02 528.01,-240.71 527.44,-247.69"/>
</a>
</g>
</g>
<!-- Node8 -->
<g id="Node000008" class="node">
<title>Node8</title>
<g id="a_Node000008"><a xlink:href="FrameInterpolation_8cpp.html#a0eda726b74eac815af4e874014e2727c" target="_top" xlink:title=" ">
<polygon fill="white" stroke="#666666" points="487,-215.5 377,-215.5 377,-185.5 487,-185.5 487,-215.5"/>
<text text-anchor="start" x="385" y="-203.5" font-family="Helvetica,sans-Serif" font-size="10.00">FrameInterpolation</text>
<text text-anchor="middle" x="432" y="-192.5" font-family="Helvetica,sans-Serif" font-size="10.00">_RecordOpenChild</text>
</a>
</g>
</g>
<!-- Node3&#45;&gt;Node8 -->
<g id="edge7_Node000003_Node000008" class="edge">
<title>Node3&#45;&gt;Node8</title>
<g id="a_edge7_Node000003_Node000008"><a xlink:title=" ">
<path fill="none" stroke="#63b8ff" d="M333.39,-211.98C344.58,-210.67 355.94,-209.33 366.77,-208.06"/>
<polygon fill="#63b8ff" stroke="#63b8ff" points="367.44,-211.5 376.96,-206.86 366.62,-204.55 367.44,-211.5"/>
</a>
</g>
</g>
<!-- Node9 -->
<g id="Node000009" class="node">
<title>Node9</title>
<g id="a_Node000009"><a xlink:href="guLookAtF_8c.html#a8641b89f7767fe85370ca7d198ef5566" target="_top" xlink:title=" ">
<polygon fill="white" stroke="#666666" points="463,-162 401,-162 401,-143 463,-143 463,-162"/>
<text text-anchor="middle" x="432" y="-150" font-family="Helvetica,sans-Serif" font-size="10.00">guLookAt</text>
</a>
</g>
</g>
<!-- Node3&#45;&gt;Node9 -->
<g id="edge9_Node000003_Node000009" class="edge">
<title>Node3&#45;&gt;Node9</title>
<g id="a_edge9_Node000003_Node000009"><a xlink:title=" ">
<path fill="none" stroke="#63b8ff" d="M277.32,-211.91C308.36,-199.91 361.66,-179.3 396.61,-165.79"/>
<polygon fill="#63b8ff" stroke="#63b8ff" points="398.33,-168.88 406.39,-162.01 395.8,-162.35 398.33,-168.88"/>
</a>
</g>
</g>
<!-- Node15 -->
<g id="Node000015" class="node">
<title>Node15</title>
<g id="a_Node000015"><a xlink:href="guPerspectiveF_8c.html#ac2050885d6967becf0e5e3bb3e54bd08" target="_top" xlink:title=" ">
<polygon fill="white" stroke="#666666" points="475,-114 389,-114 389,-95 475,-95 475,-114"/>
<text text-anchor="middle" x="432" y="-102" font-family="Helvetica,sans-Serif" font-size="10.00">guPerspective</text>
</a>
</g>
</g>
<!-- Node3&#45;&gt;Node15 -->
<g id="edge16_Node000003_Node000015" class="edge">
<title>Node3&#45;&gt;Node15</title>
<g id="a_edge16_Node000003_Node000015"><a xlink:title=" ">
<path fill="none" stroke="#63b8ff" d="M265.29,-211.91C287.52,-195.38 334.96,-160.77 377,-134.5 385.55,-129.16 395.1,-123.69 403.77,-118.92"/>
<polygon fill="#63b8ff" stroke="#63b8ff" points="405.62,-121.9 412.73,-114.04 402.27,-115.75 405.62,-121.9"/>
</a>
</g>
</g>
<!-- Node7 -->
<g id="Node000007" class="node">
<title>Node7</title>
<g id="a_Node000007"><a xlink:href="FrameInterpolation_8cpp.html#a02c7ac5342a4d376edee38f312b480bf" target="_top" xlink:title=" ">
<polygon fill="white" stroke="#666666" points="807,-216 699,-216 699,-197 807,-197 807,-216"/>
<text text-anchor="middle" x="753" y="-204" font-family="Helvetica,sans-Serif" font-size="10.00">check_if_recording</text>
</a>
</g>
</g>
<!-- Node6&#45;&gt;Node7 -->
<g id="edge6_Node000006_Node000007" class="edge">
<title>Node6&#45;&gt;Node7</title>
<g id="a_edge6_Node000006_Node000007"><a xlink:title=" ">
<path fill="none" stroke="#63b8ff" d="M648.37,-234.7C667.51,-229.5 688.78,-223.71 707.04,-218.73"/>
<polygon fill="#63b8ff" stroke="#63b8ff" points="708.12,-222.07 716.85,-216.07 706.28,-215.31 708.12,-222.07"/>
</a>
</g>
</g>
<!-- Node8&#45;&gt;Node7 -->
<g id="edge8_Node000008_Node000007" class="edge">
<title>Node8&#45;&gt;Node7</title>
<g id="a_edge8_Node000008_Node000007"><a xlink:title=" ">
<path fill="none" stroke="#63b8ff" d="M487.11,-201.52C542.87,-202.57 629.73,-204.2 688.65,-205.31"/>
<polygon fill="#63b8ff" stroke="#63b8ff" points="688.89,-208.81 698.95,-205.5 689.02,-201.81 688.89,-208.81"/>
</a>
</g>
</g>
<!-- Node10 -->
<g id="Node000010" class="node">
<title>Node10</title>
<g id="a_Node000010"><a xlink:href="FrameInterpolation_8cpp.html#a8cf1f2d6fabc6925aa71a9515341b4aa" target="_top" xlink:title=" ">
<polygon fill="white" stroke="#666666" points="663,-178.5 523,-178.5 523,-148.5 663,-148.5 663,-178.5"/>
<text text-anchor="start" x="531" y="-166.5" font-family="Helvetica,sans-Serif" font-size="10.00">FrameInterpolation</text>
<text text-anchor="middle" x="593" y="-155.5" font-family="Helvetica,sans-Serif" font-size="10.00">_RecordMatrixMtxFToMtx</text>
</a>
</g>
</g>
<!-- Node9&#45;&gt;Node10 -->
<g id="edge10_Node000009_Node000010" class="edge">
<title>Node9&#45;&gt;Node10</title>
<g id="a_edge10_Node000009_Node000010"><a xlink:title=" ">
<path fill="none" stroke="#63b8ff" d="M463.28,-154.59C477.44,-155.57 495.04,-156.79 512.62,-158.01"/>
<polygon fill="#63b8ff" stroke="#63b8ff" points="512.73,-161.52 522.95,-158.72 513.22,-154.54 512.73,-161.52"/>
</a>
</g>
</g>
<!-- Node11 -->
<g id="Node000011" class="node">
<title>Node11</title>
<g id="a_Node000011"><a xlink:href="guLookAtF_8c.html#a221be5535617db52477d4cb992afa4a9" target="_top" xlink:title=" ">
<polygon fill="white" stroke="#666666" points="627,-130 559,-130 559,-111 627,-111 627,-130"/>
<text text-anchor="middle" x="593" y="-118" font-family="Helvetica,sans-Serif" font-size="10.00">guLookAtF</text>
</a>
</g>
</g>
<!-- Node9&#45;&gt;Node11 -->
<g id="edge12_Node000009_Node000011" class="edge">
<title>Node9&#45;&gt;Node11</title>
<g id="a_edge12_Node000009_Node000011"><a xlink:title=" ">
<path fill="none" stroke="#63b8ff" d="M463.28,-146.41C487.49,-141.53 521.74,-134.64 548.82,-129.19"/>
<polygon fill="#63b8ff" stroke="#63b8ff" points="549.7,-132.58 558.81,-127.18 548.32,-125.72 549.7,-132.58"/>
</a>
</g>
</g>
<!-- Node14 -->
<g id="Node000014" class="node">
<title>Node14</title>
<g id="a_Node000014"><a xlink:href="guMtxF2L_8c.html#a40ab2d64c609839ff1e0ef0de2d0dcc4" target="_top" xlink:title=" ">
<polygon fill="white" stroke="#666666" points="625.5,-93 560.5,-93 560.5,-74 625.5,-74 625.5,-93"/>
<text text-anchor="middle" x="593" y="-81" font-family="Helvetica,sans-Serif" font-size="10.00">guMtxF2L</text>
</a>
</g>
</g>
<!-- Node9&#45;&gt;Node14 -->
<g id="edge15_Node000009_Node000014" class="edge">
<title>Node9&#45;&gt;Node14</title>
<g id="a_edge15_Node000009_Node000014"><a xlink:title=" ">
<path fill="none" stroke="#63b8ff" d="M451.39,-142.95C461.89,-137.41 475.28,-130.22 487,-123.5 503.27,-114.17 505.74,-108.83 523,-101.5 531.7,-97.8 541.35,-94.71 550.61,-92.19"/>
<polygon fill="#63b8ff" stroke="#63b8ff" points="551.62,-95.54 560.44,-89.68 549.89,-88.76 551.62,-95.54"/>
</a>
</g>
</g>
<!-- Node10&#45;&gt;Node7 -->
<g id="edge11_Node000010_Node000007" class="edge">
<title>Node10&#45;&gt;Node7</title>
<g id="a_edge11_Node000010_Node000007"><a xlink:title=" ">
<path fill="none" stroke="#63b8ff" d="M649.26,-178.54C668.18,-183.69 689.11,-189.38 707.11,-194.28"/>
<polygon fill="#63b8ff" stroke="#63b8ff" points="706.21,-197.66 716.78,-196.91 708.05,-190.91 706.21,-197.66"/>
</a>
</g>
</g>
<!-- Node12 -->
<g id="Node000012" class="node">
<title>Node12</title>
<g id="a_Node000012"><a xlink:href="guMtxF2L_8c.html#a257a86497fc08677370948eda3163595" target="_top" xlink:title=" ">
<polygon fill="white" stroke="#666666" points="792,-93 714,-93 714,-74 792,-74 792,-93"/>
<text text-anchor="middle" x="753" y="-81" font-family="Helvetica,sans-Serif" font-size="10.00">guMtxIdentF</text>
</a>
</g>
</g>
<!-- Node11&#45;&gt;Node12 -->
<g id="edge13_Node000011_Node000012" class="edge">
<title>Node11&#45;&gt;Node12</title>
<g id="a_edge13_Node000011_Node000012"><a xlink:title=" ">
<path fill="none" stroke="#63b8ff" d="M627.12,-112.74C649.39,-107.53 679.1,-100.57 703.96,-94.75"/>
<polygon fill="#63b8ff" stroke="#63b8ff" points="704.98,-98.1 713.92,-92.42 703.39,-91.29 704.98,-98.1"/>
</a>
</g>
</g>
<!-- Node13 -->
<g id="Node000013" class="node">
<title>Node13</title>
<g id="a_Node000013"><a xlink:href="math_8h.html#a37bde043e94a6f074c78f10518fb5d99" target="_top" xlink:title=" ">
<polygon fill="white" stroke="#666666" points="772.5,-130 733.5,-130 733.5,-111 772.5,-111 772.5,-130"/>
<text text-anchor="middle" x="753" y="-118" font-family="Helvetica,sans-Serif" font-size="10.00">sqrtf</text>
</a>
</g>
</g>
<!-- Node11&#45;&gt;Node13 -->
<g id="edge14_Node000011_Node000013" class="edge">
<title>Node11&#45;&gt;Node13</title>
<g id="a_edge14_Node000011_Node000013"><a xlink:title=" ">
<path fill="none" stroke="#63b8ff" d="M627.12,-120.5C655.56,-120.5 696.14,-120.5 723.24,-120.5"/>
<polygon fill="#63b8ff" stroke="#63b8ff" points="723.26,-124 733.26,-120.5 723.26,-117 723.26,-124"/>
</a>
</g>
</g>
<!-- Node15&#45;&gt;Node10 -->
<g id="edge17_Node000015_Node000010" class="edge">
<title>Node15&#45;&gt;Node10</title>
<g id="a_edge17_Node000015_Node000010"><a xlink:title=" ">
<path fill="none" stroke="#63b8ff" d="M456.98,-114.1C475.06,-121.27 500.5,-131.22 523,-139.5 527.86,-141.29 532.92,-143.12 538,-144.93"/>
<polygon fill="#63b8ff" stroke="#63b8ff" points="537.15,-148.34 547.74,-148.37 539.48,-141.74 537.15,-148.34"/>
</a>
</g>
</g>
<!-- Node15&#45;&gt;Node14 -->
<g id="edge18_Node000015_Node000014" class="edge">
<title>Node15&#45;&gt;Node14</title>
<g id="a_edge18_Node000015_Node000014"><a xlink:title=" ">
<path fill="none" stroke="#63b8ff" d="M475.19,-98.93C498.41,-95.86 527.11,-92.07 550.26,-89.01"/>
<polygon fill="#63b8ff" stroke="#63b8ff" points="551.01,-92.44 560.46,-87.67 550.09,-85.5 551.01,-92.44"/>
</a>
</g>
</g>
<!-- Node16 -->
<g id="Node000016" class="node">
<title>Node16</title>
<g id="a_Node000016"><a xlink:href="guPerspectiveF_8c.html#a440bd049e431a7ef892658d88620646c" target="_top" xlink:title=" ">
<polygon fill="white" stroke="#666666" points="639,-56 547,-56 547,-37 639,-37 639,-56"/>
<text text-anchor="middle" x="593" y="-44" font-family="Helvetica,sans-Serif" font-size="10.00">guPerspectiveF</text>
</a>
</g>
</g>
<!-- Node15&#45;&gt;Node16 -->
<g id="edge19_Node000015_Node000016" class="edge">
<title>Node15&#45;&gt;Node16</title>
<g id="a_edge19_Node000015_Node000016"><a xlink:title=" ">
<path fill="none" stroke="#63b8ff" d="M451.95,-94.99C469.91,-86.24 497.82,-73.31 523,-64.5 528.69,-62.51 534.71,-60.62 540.73,-58.88"/>
<polygon fill="#63b8ff" stroke="#63b8ff" points="542.11,-62.13 550.8,-56.07 540.23,-55.38 542.11,-62.13"/>
</a>
</g>
</g>
<!-- Node16&#45;&gt;Node12 -->
<g id="edge21_Node000016_Node000012" class="edge">
<title>Node16&#45;&gt;Node12</title>
<g id="a_edge21_Node000016_Node000012"><a xlink:title=" ">
<path fill="none" stroke="#63b8ff" d="M634.69,-56.03C655.86,-60.99 681.87,-67.08 704.02,-72.26"/>
<polygon fill="#63b8ff" stroke="#63b8ff" points="703.36,-75.7 713.89,-74.58 704.95,-68.89 703.36,-75.7"/>
</a>
</g>
</g>
<!-- Node17 -->
<g id="Node000017" class="node">
<title>Node17</title>
<g id="a_Node000017"><a xlink:href="cosf_8c.html#a7b126b2344591e649c21c9ab0b8adb40" target="_top" xlink:title=" ">
<polygon fill="white" stroke="#666666" points="771.5,-19 734.5,-19 734.5,0 771.5,0 771.5,-19"/>
<text text-anchor="middle" x="753" y="-7" font-family="Helvetica,sans-Serif" font-size="10.00">cosf</text>
</a>
</g>
</g>
<!-- Node16&#45;&gt;Node17 -->
<g id="edge20_Node000016_Node000017" class="edge">
<title>Node16&#45;&gt;Node17</title>
<g id="a_edge20_Node000016_Node000017"><a xlink:title=" ">
<path fill="none" stroke="#63b8ff" d="M634.69,-36.97C662.85,-30.38 699.58,-21.77 724.38,-15.97"/>
<polygon fill="#63b8ff" stroke="#63b8ff" points="725.28,-19.35 734.22,-13.66 723.69,-12.54 725.28,-19.35"/>
</a>
</g>
</g>
<!-- Node18 -->
<g id="Node000018" class="node">
<title>Node18</title>
<g id="a_Node000018"><a xlink:href="sinf_8c.html#a8a7dc2a88e109f4e15b661247665709a" target="_top" xlink:title=" ">
<polygon fill="white" stroke="#666666" points="770.5,-56 735.5,-56 735.5,-37 770.5,-37 770.5,-56"/>
<text text-anchor="middle" x="753" y="-44" font-family="Helvetica,sans-Serif" font-size="10.00">sinf</text>
</a>
</g>
</g>
<!-- Node16&#45;&gt;Node18 -->
<g id="edge22_Node000016_Node000018" class="edge">
<title>Node16&#45;&gt;Node18</title>
<g id="a_edge22_Node000016_Node000018"><a xlink:title=" ">
<path fill="none" stroke="#63b8ff" d="M639.28,-46.5C666.99,-46.5 701.51,-46.5 725,-46.5"/>
<polygon fill="#63b8ff" stroke="#63b8ff" points="725.26,-50 735.26,-46.5 725.26,-43 725.26,-50"/>
</a>
</g>
</g>
</g>
</svg>

<g id="navigator" transform="translate(0 0)" fill="#404254">
  <rect fill="#f2f5e9" fill-opacity="0.5" stroke="#606060" stroke-width=".5" x="0" y="0" width="60" height="60"/>
  <use id="zoomplus" xlink:href="#zoomPlus" x="17" y="9" onmousedown="handleZoom(evt,'in')"/>
  <use id="zoomminus" xlink:href="#zoomMin" x="42" y="9" onmousedown="handleZoom(evt,'out')"/>
  <use id="reset" xlink:href="#resetDef" x="30" y="36" onmousedown="handleReset()"/>
   <use id="arrowup" xlink:href="#arrowUp" x="0" y="0" onmousedown="handlePan(0,-1)"/>
  <use id="arrowright" xlink:href="#arrowRight" x="0" y="0" onmousedown="handlePan(1,0)"/>
  <use id="arrowdown" xlink:href="#arrowDown" x="0" y="0" onmousedown="handlePan(0,1)"/>
  <use id="arrowleft" xlink:href="#arrowLeft" x="0" y="0" onmousedown="handlePan(-1,0)"/>
</g>
<svg viewBox="0 0 15 15" width="100%" height="30px" preserveAspectRatio="xMaxYMin meet">
 <g id="arrow_out" transform="scale(0.3 0.3)">
  <a xlink:href="Game_8cpp_a60e4d1e692fa311a6dd91e2ff04a1558_cgraph_org.svg" target="_base">
   <rect id="button" ry="5" rx="5" y="6" x="6" height="38" width="38"
        fill="#f2f5e9" fill-opacity="0.5" stroke="#606060" stroke-width="1.0"/>
   <path id="arrow"
     d="M 11.500037,31.436501 C 11.940474,20.09759 22.043105,11.32322 32.158766,21.979434 L 37.068811,17.246167 C 37.068811,17.246167 37.088388,32 37.088388,32 L 22.160133,31.978069 C 22.160133,31.978069 26.997745,27.140456 26.997745,27.140456 C 18.528582,18.264221 13.291696,25.230495 11.500037,31.436501 z"
     style="fill:#404040;"/>
  </a>
 </g>
</svg>

<style type='text/css'>
<![CDATA[
[data-mouse-over-selected='false'] { opacity: 0.7; }
[data-mouse-over-selected='true']  { opacity: 1.0; }
]]>
</style>
<script type="application/ecmascript"><![CDATA[
document.addEventListener('DOMContentLoaded', (event) => {
  highlightEdges();
  highlightAdjacentNodes();
});
]]></script>
</svg>
