<?xml version="1.0" encoding="UTF-8" standalone="no"?>
<!DOCTYPE svg PUBLIC "-//W3C//DTD SVG 1.1//EN"
 "http://www.w3.org/Graphics/SVG/1.1/DTD/svg11.dtd">
<!-- Generated by graphviz version 2.43.0 (0)
 -->
<!-- Title: src/actors/green_shell/update.inc.c Pages: 1 -->
<!--zoomable 434 -->

<svg id="main" version="1.1" xmlns="http://www.w3.org/2000/svg" xmlns:xlink="http://www.w3.org/1999/xlink" xml:space="preserve" onload="init(evt)">

<style type="text/css"><![CDATA[
.node, .edge {opacity: 0.7;}
.node.selected, .edge.selected {opacity: 1;}
.edge:hover path { stroke: red; }
.edge:hover polygon { stroke: red; fill: red; }
]]></style>

<defs>
  <circle id="rim" cx="0" cy="0" r="7"/>
  <circle id="rim2" cx="0" cy="0" r="3.5"/>
  <g id="zoomPlus">
    <use xlink:href="#rim" fill="#404040"><set attributeName="fill" to="#808080" begin="zoomplus.mouseover" end="zoomplus.mouseout"/></use>
    <path d="M-4,0h8M0,-4v8" fill="none" stroke="white" stroke-width="1.5" pointer-events="none"/>
  </g>
  <g id="zoomMin">
    <use xlink:href="#rim" fill="#404040"><set attributeName="fill" to="#808080" begin="zoomminus.mouseover" end="zoomminus.mouseout"/></use>
    <path d="M-4,0h8" fill="none" stroke="white" stroke-width="1.5" pointer-events="none"/>
  </g>
  <g id="arrowUp" transform="translate(30 24)">
    <use xlink:href="#rim"/>
    <path pointer-events="none" fill="none" stroke="white" stroke-width="1.5" d="M0,-3.0v7 M-2.5,-0.5L0,-3.0L2.5,-0.5"/>
  </g>
  <g id="arrowRight" transform="rotate(90) translate(36 -43)">
    <use xlink:href="#rim"/>
    <path pointer-events="none" fill="none" stroke="white" stroke-width="1.5" d="M0,-3.0v7 M-2.5,-0.5L0,-3.0L2.5,-0.5"/>
  </g>
  <g id="arrowDown" transform="rotate(180) translate(-30 -48)">
    <use xlink:href="#rim"/>
    <path pointer-events="none" fill="none" stroke="white" stroke-width="1.5" d="M0,-3.0v7 M-2.5,-0.5L0,-3.0L2.5,-0.5"/>
  </g>
  <g id="arrowLeft" transform="rotate(270) translate(-36 17)">
    <use xlink:href="#rim"/>
    <path pointer-events="none" fill="none" stroke="white" stroke-width="1.5" d="M0,-3.0v7 M-2.5,-0.5L0,-3.0L2.5,-0.5"/>
  </g>
  <g id="resetDef">
    <use xlink:href="#rim2" fill="#404040"><set attributeName="fill" to="#808080" begin="reset.mouseover" end="reset.mouseout"/></use>
  </g>
</defs>
<script type="application/ecmascript">
var viewWidth = 1370;
var viewHeight = 434;
var sectionId = 'dynsection-0';
</script>
<script type="application/ecmascript" xlink:href="svg.min.js"/>
<svg id="graph" class="graph">
<g id="viewport">
<title>src/actors/green_shell/update.inc.c</title>
<!-- Node1 -->
<g id="Node000001" class="node">
<title>Node1</title>
<g id="a_Node000001"><a xlink:title=" ">
<polygon fill="#999999" stroke="#666666" points="809.5,-426 686.5,-426 686.5,-396 809.5,-396 809.5,-426"/>
<text text-anchor="start" x="694.5" y="-414" font-family="Helvetica,sans-Serif" font-size="10.00">src/actors/green_shell</text>
<text text-anchor="middle" x="748" y="-403" font-family="Helvetica,sans-Serif" font-size="10.00">/update.inc.c</text>
</a>
</g>
</g>
<!-- Node2 -->
<g id="Node000002" class="node">
<title>Node2</title>
<g id="a_Node000002"><a xlink:href="actors_8h.html" target="_top" xlink:title=" ">
<polygon fill="white" stroke="#666666" points="1112,-305 1056,-305 1056,-286 1112,-286 1112,-305"/>
<text text-anchor="middle" x="1084" y="-293" font-family="Helvetica,sans-Serif" font-size="10.00">actors.h</text>
</a>
</g>
</g>
<!-- Node1&#45;&gt;Node2 -->
<g id="edge1_Node000001_Node000002" class="edge">
<title>Node1&#45;&gt;Node2</title>
<g id="a_edge1_Node000001_Node000002"><a xlink:title=" ">
<path fill="none" stroke="#63b8ff" d="M809.81,-405.26C884.45,-398.56 1004.64,-384.34 1042,-360 1058.58,-349.2 1070.13,-329.32 1076.86,-314.67"/>
<polygon fill="#63b8ff" stroke="#63b8ff" points="1080.22,-315.71 1080.92,-305.14 1073.78,-312.97 1080.22,-315.71"/>
</a>
</g>
</g>
<!-- Node9 -->
<g id="Node000009" class="node">
<title>Node9</title>
<g id="a_Node000009"><a xlink:href="code__800029B0_8h.html" target="_top" xlink:title=" ">
<polygon fill="white" stroke="#666666" points="1121.5,-250 1018.5,-250 1018.5,-231 1121.5,-231 1121.5,-250"/>
<text text-anchor="middle" x="1070" y="-238" font-family="Helvetica,sans-Serif" font-size="10.00">code_800029B0.h</text>
</a>
</g>
</g>
<!-- Node1&#45;&gt;Node9 -->
<g id="edge27_Node000001_Node000009" class="edge">
<title>Node1&#45;&gt;Node9</title>
<g id="a_edge27_Node000001_Node000009"><a xlink:title=" ">
<path fill="none" stroke="#63b8ff" d="M809.69,-403.96C875.27,-396.5 973.63,-382.04 1004,-360 1008.58,-356.68 1043.48,-291.55 1060.6,-259.29"/>
<polygon fill="#63b8ff" stroke="#63b8ff" points="1063.88,-260.57 1065.47,-250.1 1057.7,-257.29 1063.88,-260.57"/>
</a>
</g>
</g>
<!-- Node12 -->
<g id="Node000012" class="node">
<title>Node12</title>
<g id="a_Node000012"><a xlink:href="main_8h.html" target="_top" xlink:title=" ">
<polygon fill="white" stroke="#666666" points="117,-195 67,-195 67,-176 117,-176 117,-195"/>
<text text-anchor="middle" x="92" y="-183" font-family="Helvetica,sans-Serif" font-size="10.00">main.h</text>
</a>
</g>
</g>
<!-- Node1&#45;&gt;Node12 -->
<g id="edge20_Node000001_Node000012" class="edge">
<title>Node1&#45;&gt;Node12</title>
<g id="a_edge20_Node000001_Node000012"><a xlink:title=" ">
<path fill="none" stroke="#63b8ff" d="M686.12,-398.1C637.94,-388.58 569.49,-374.45 510,-360 332.08,-316.77 245.56,-376.29 113,-250 100.79,-238.37 95.68,-219.51 93.54,-205.36"/>
<polygon fill="#63b8ff" stroke="#63b8ff" points="96.99,-204.78 92.38,-195.25 90.04,-205.58 96.99,-204.78"/>
</a>
</g>
</g>
<!-- Node17 -->
<g id="Node000017" class="node">
<title>Node17</title>
<g id="a_Node000017"><a xlink:href="defines_8h.html" target="_top" xlink:title=" ">
<polygon fill="white" stroke="#666666" points="183.5,-250 122.5,-250 122.5,-231 183.5,-231 183.5,-250"/>
<text text-anchor="middle" x="153" y="-238" font-family="Helvetica,sans-Serif" font-size="10.00">defines.h</text>
</a>
</g>
</g>
<!-- Node1&#45;&gt;Node17 -->
<g id="edge28_Node000001_Node000017" class="edge">
<title>Node1&#45;&gt;Node17</title>
<g id="a_edge28_Node000001_Node000017"><a xlink:title=" ">
<path fill="none" stroke="#63b8ff" d="M698.55,-396C583.31,-363.36 298.71,-282.76 193.2,-252.88"/>
<polygon fill="#63b8ff" stroke="#63b8ff" points="193.85,-249.43 183.27,-250.07 191.94,-256.16 193.85,-249.43"/>
</a>
</g>
</g>
<!-- Node18 -->
<g id="Node000018" class="node">
<title>Node18</title>
<g id="a_Node000018"><a xlink:href="collision_8h.html" target="_top" xlink:title=" ">
<polygon fill="white" stroke="#666666" points="66,-360 0,-360 0,-341 66,-341 66,-360"/>
<text text-anchor="middle" x="33" y="-348" font-family="Helvetica,sans-Serif" font-size="10.00">collision.h</text>
</a>
</g>
</g>
<!-- Node1&#45;&gt;Node18 -->
<g id="edge29_Node000001_Node000018" class="edge">
<title>Node1&#45;&gt;Node18</title>
<g id="a_edge29_Node000001_Node000018"><a xlink:title=" ">
<path fill="none" stroke="#63b8ff" d="M686.08,-407.52C567.88,-402.32 302.07,-388.31 80,-360 78.73,-359.84 77.44,-359.66 76.14,-359.48"/>
<polygon fill="#63b8ff" stroke="#63b8ff" points="76.47,-355.99 66.06,-357.92 75.41,-362.91 76.47,-355.99"/>
</a>
</g>
</g>
<!-- Node19 -->
<g id="Node000019" class="node">
<title>Node19</title>
<g id="a_Node000019"><a xlink:href="Game_8h.html" target="_top" xlink:title=" ">
<polygon fill="white" stroke="#666666" points="995.5,-360 918.5,-360 918.5,-341 995.5,-341 995.5,-360"/>
<text text-anchor="middle" x="957" y="-348" font-family="Helvetica,sans-Serif" font-size="10.00">port/Game.h</text>
</a>
</g>
</g>
<!-- Node1&#45;&gt;Node19 -->
<g id="edge31_Node000001_Node000019" class="edge">
<title>Node1&#45;&gt;Node19</title>
<g id="a_edge31_Node000001_Node000019"><a xlink:title=" ">
<path fill="none" stroke="#63b8ff" d="M798.06,-395.99C834.29,-385.85 882.62,-372.32 916.44,-362.85"/>
<polygon fill="#63b8ff" stroke="#63b8ff" points="917.75,-366.12 926.44,-360.05 915.87,-359.38 917.75,-366.12"/>
</a>
</g>
</g>
<!-- Node3 -->
<g id="Node000003" class="node">
<title>Node3</title>
<g id="a_Node000003"><a xlink:href="actor__types_8h.html" target="_top" xlink:title=" ">
<polygon fill="white" stroke="#666666" points="1229.5,-195 1146.5,-195 1146.5,-176 1229.5,-176 1229.5,-195"/>
<text text-anchor="middle" x="1188" y="-183" font-family="Helvetica,sans-Serif" font-size="10.00">actor_types.h</text>
</a>
</g>
</g>
<!-- Node2&#45;&gt;Node3 -->
<g id="edge2_Node000002_Node000003" class="edge">
<title>Node2&#45;&gt;Node3</title>
<g id="a_edge2_Node000002_Node000003"><a xlink:title=" ">
<path fill="none" stroke="#63b8ff" d="M1093.33,-285.8C1102.74,-276.95 1117.61,-262.75 1130,-250 1145.19,-234.36 1161.92,-215.91 1173.5,-202.93"/>
<polygon fill="#63b8ff" stroke="#63b8ff" points="1176.26,-205.09 1180.29,-195.28 1171.03,-200.44 1176.26,-205.09"/>
</a>
</g>
</g>
<!-- Node2&#45;&gt;Node9 -->
<g id="edge10_Node000002_Node000009" class="edge">
<title>Node2&#45;&gt;Node9</title>
<g id="a_edge10_Node000002_Node000009"><a xlink:title=" ">
<path fill="none" stroke="#63b8ff" d="M1081.69,-285.75C1079.83,-278.72 1077.16,-268.62 1074.85,-259.84"/>
<polygon fill="#63b8ff" stroke="#63b8ff" points="1078.21,-258.86 1072.27,-250.09 1071.44,-260.65 1078.21,-258.86"/>
</a>
</g>
</g>
<!-- Node10 -->
<g id="Node000010" class="node">
<title>Node10</title>
<g id="a_Node000010"><a xlink:href="camera_8h.html" target="_top" xlink:title=" ">
<polygon fill="white" stroke="#666666" points="1004,-195 942,-195 942,-176 1004,-176 1004,-195"/>
<text text-anchor="middle" x="973" y="-183" font-family="Helvetica,sans-Serif" font-size="10.00">camera.h</text>
</a>
</g>
</g>
<!-- Node2&#45;&gt;Node10 -->
<g id="edge19_Node000002_Node000010" class="edge">
<title>Node2&#45;&gt;Node10</title>
<g id="a_edge19_Node000002_Node000010"><a xlink:title=" ">
<path fill="none" stroke="#63b8ff" d="M1063.59,-285.97C1047.3,-278.37 1024.69,-266 1009,-250 996.13,-236.88 986.29,-218.24 980.18,-204.55"/>
<polygon fill="#63b8ff" stroke="#63b8ff" points="983.35,-203.07 976.24,-195.22 976.9,-205.8 983.35,-203.07"/>
</a>
</g>
</g>
<!-- Node4 -->
<g id="Node000004" class="node">
<title>Node4</title>
<g id="a_Node000004"><a xlink:title=" ">
<polygon fill="#e0e0e0" stroke="#999999" points="1027,-19 947,-19 947,0 1027,0 1027,-19"/>
<text text-anchor="middle" x="987" y="-7" font-family="Helvetica,sans-Serif" font-size="10.00">libultraship.h</text>
</a>
</g>
</g>
<!-- Node3&#45;&gt;Node4 -->
<g id="edge3_Node000003_Node000004" class="edge">
<title>Node3&#45;&gt;Node4</title>
<g id="a_edge3_Node000003_Node000004"><a xlink:title=" ">
<path fill="none" stroke="#63b8ff" d="M1198.89,-175.9C1208.34,-167.75 1221.49,-154.61 1228,-140 1243.42,-105.37 1259.32,-84.07 1235,-55 1210.29,-25.46 1102.25,-15.5 1037.19,-12.17"/>
<polygon fill="#63b8ff" stroke="#63b8ff" points="1037.3,-8.67 1027.14,-11.69 1036.96,-15.66 1037.3,-8.67"/>
</a>
</g>
</g>
<!-- Node5 -->
<g id="Node000005" class="node">
<title>Node5</title>
<g id="a_Node000005"><a xlink:href="macros_8h.html" target="_top" xlink:title=" ">
<polygon fill="white" stroke="#666666" points="1219,-134.5 1157,-134.5 1157,-115.5 1219,-115.5 1219,-134.5"/>
<text text-anchor="middle" x="1188" y="-122.5" font-family="Helvetica,sans-Serif" font-size="10.00">macros.h</text>
</a>
</g>
</g>
<!-- Node3&#45;&gt;Node5 -->
<g id="edge4_Node000003_Node000005" class="edge">
<title>Node3&#45;&gt;Node5</title>
<g id="a_edge4_Node000003_Node000005"><a xlink:title=" ">
<path fill="none" stroke="#63b8ff" d="M1188,-175.87C1188,-167.75 1188,-155.31 1188,-144.89"/>
<polygon fill="#63b8ff" stroke="#63b8ff" points="1191.5,-144.67 1188,-134.67 1184.5,-144.67 1191.5,-144.67"/>
</a>
</g>
</g>
<!-- Node7 -->
<g id="Node000007" class="node">
<title>Node7</title>
<g id="a_Node000007"><a xlink:href="common__structs_8h.html" target="_top" xlink:title=" ">
<polygon fill="white" stroke="#666666" points="419.5,-74 312.5,-74 312.5,-55 419.5,-55 419.5,-74"/>
<text text-anchor="middle" x="366" y="-62" font-family="Helvetica,sans-Serif" font-size="10.00">common_structs.h</text>
</a>
</g>
</g>
<!-- Node3&#45;&gt;Node7 -->
<g id="edge7_Node000003_Node000007" class="edge">
<title>Node3&#45;&gt;Node7</title>
<g id="a_edge7_Node000003_Node000007"><a xlink:title=" ">
<path fill="none" stroke="#63b8ff" d="M1146.3,-182.3C1006.83,-174.85 563.75,-150.49 535,-140 513.79,-132.26 513.99,-120.49 494,-110 466.87,-95.77 434.22,-84.5 408.69,-76.86"/>
<polygon fill="#63b8ff" stroke="#63b8ff" points="409.51,-73.46 398.93,-74.02 407.55,-80.18 409.51,-73.46"/>
</a>
</g>
</g>
<!-- Node8 -->
<g id="Node000008" class="node">
<title>Node8</title>
<g id="a_Node000008"><a xlink:title=" ">
<polygon fill="#e0e0e0" stroke="#999999" points="1334,-134.5 1278,-134.5 1278,-115.5 1334,-115.5 1334,-134.5"/>
<text text-anchor="middle" x="1306" y="-122.5" font-family="Helvetica,sans-Serif" font-size="10.00">assert.h</text>
</a>
</g>
</g>
<!-- Node3&#45;&gt;Node8 -->
<g id="edge9_Node000003_Node000008" class="edge">
<title>Node3&#45;&gt;Node8</title>
<g id="a_edge9_Node000003_Node000008"><a xlink:title=" ">
<path fill="none" stroke="#63b8ff" d="M1205.16,-175.99C1224.73,-166.29 1256.97,-150.31 1279.72,-139.03"/>
<polygon fill="#63b8ff" stroke="#63b8ff" points="1281.42,-142.09 1288.82,-134.52 1278.31,-135.82 1281.42,-142.09"/>
</a>
</g>
</g>
<!-- Node5&#45;&gt;Node4 -->
<g id="edge6_Node000005_Node000004" class="edge">
<title>Node5&#45;&gt;Node4</title>
<g id="a_edge6_Node000005_Node000004"><a xlink:title=" ">
<path fill="none" stroke="#63b8ff" d="M1181.74,-115.04C1171.1,-100.42 1148.07,-71.46 1122,-55 1096.09,-38.65 1063.57,-27.69 1036.93,-20.74"/>
<polygon fill="#63b8ff" stroke="#63b8ff" points="1037.59,-17.3 1027.04,-18.27 1035.89,-24.09 1037.59,-17.3"/>
</a>
</g>
</g>
<!-- Node6 -->
<g id="Node000006" class="node">
<title>Node6</title>
<g id="a_Node000006"><a xlink:href="math_8h.html" target="_top" xlink:title=" ">
<polygon fill="white" stroke="#666666" points="1225.5,-74 1174.5,-74 1174.5,-55 1225.5,-55 1225.5,-74"/>
<text text-anchor="middle" x="1200" y="-62" font-family="Helvetica,sans-Serif" font-size="10.00">math.h</text>
</a>
</g>
</g>
<!-- Node5&#45;&gt;Node6 -->
<g id="edge5_Node000005_Node000006" class="edge">
<title>Node5&#45;&gt;Node6</title>
<g id="a_edge5_Node000005_Node000006"><a xlink:title=" ">
<path fill="none" stroke="#63b8ff" d="M1189.77,-115.37C1191.45,-107.16 1194.04,-94.54 1196.19,-84.05"/>
<polygon fill="#63b8ff" stroke="#63b8ff" points="1199.64,-84.67 1198.22,-74.17 1192.78,-83.26 1199.64,-84.67"/>
</a>
</g>
</g>
<!-- Node7&#45;&gt;Node4 -->
<g id="edge8_Node000007_Node000004" class="edge">
<title>Node7&#45;&gt;Node4</title>
<g id="a_edge8_Node000007_Node000004"><a xlink:title=" ">
<path fill="none" stroke="#63b8ff" d="M419.75,-58.91C538.45,-48.78 821.52,-24.62 936.83,-14.78"/>
<polygon fill="#63b8ff" stroke="#63b8ff" points="937.14,-18.27 946.8,-13.93 936.54,-11.29 937.14,-18.27"/>
</a>
</g>
</g>
<!-- Node9&#45;&gt;Node3 -->
<g id="edge13_Node000009_Node000003" class="edge">
<title>Node9&#45;&gt;Node3</title>
<g id="a_edge13_Node000009_Node000003"><a xlink:title=" ">
<path fill="none" stroke="#63b8ff" d="M1088.96,-230.98C1108.03,-222.42 1137.66,-209.11 1159.55,-199.28"/>
<polygon fill="#63b8ff" stroke="#63b8ff" points="1161.01,-202.46 1168.7,-195.17 1158.14,-196.07 1161.01,-202.46"/>
</a>
</g>
</g>
<!-- Node9&#45;&gt;Node4 -->
<g id="edge12_Node000009_Node000004" class="edge">
<title>Node9&#45;&gt;Node4</title>
<g id="a_edge12_Node000009_Node000004"><a xlink:title=" ">
<path fill="none" stroke="#63b8ff" d="M1072.56,-230.98C1080.36,-203.23 1101.24,-113.82 1066,-55 1057.09,-40.13 1041.22,-29.81 1026.04,-22.89"/>
<polygon fill="#63b8ff" stroke="#63b8ff" points="1027.31,-19.63 1016.74,-19.01 1024.61,-26.09 1027.31,-19.63"/>
</a>
</g>
</g>
<!-- Node9&#45;&gt;Node5 -->
<g id="edge11_Node000009_Node000005" class="edge">
<title>Node9&#45;&gt;Node5</title>
<g id="a_edge11_Node000009_Node000005"><a xlink:title=" ">
<path fill="none" stroke="#63b8ff" d="M1078.87,-230.97C1098.6,-211.99 1146.38,-166.03 1171.67,-141.71"/>
<polygon fill="#63b8ff" stroke="#63b8ff" points="1174.25,-144.08 1179.03,-134.63 1169.39,-139.04 1174.25,-144.08"/>
</a>
</g>
</g>
<!-- Node9&#45;&gt;Node10 -->
<g id="edge14_Node000009_Node000010" class="edge">
<title>Node9&#45;&gt;Node10</title>
<g id="a_edge14_Node000009_Node000010"><a xlink:title=" ">
<path fill="none" stroke="#63b8ff" d="M1054.42,-230.98C1039.23,-222.69 1015.9,-209.94 998.1,-200.22"/>
<polygon fill="#63b8ff" stroke="#63b8ff" points="999.32,-196.89 988.87,-195.17 995.97,-203.04 999.32,-196.89"/>
</a>
</g>
</g>
<!-- Node11 -->
<g id="Node000011" class="node">
<title>Node11</title>
<g id="a_Node000011"><a xlink:href="CoreMath_8h.html" target="_top" xlink:title=" ">
<polygon fill="white" stroke="#666666" points="1041.5,-74 932.5,-74 932.5,-55 1041.5,-55 1041.5,-74"/>
<text text-anchor="middle" x="987" y="-62" font-family="Helvetica,sans-Serif" font-size="10.00">engine/CoreMath.h</text>
</a>
</g>
</g>
<!-- Node9&#45;&gt;Node11 -->
<g id="edge17_Node000009_Node000011" class="edge">
<title>Node9&#45;&gt;Node11</title>
<g id="a_edge17_Node000009_Node000011"><a xlink:title=" ">
<path fill="none" stroke="#63b8ff" d="M1065.77,-230.63C1052.73,-203.29 1012.95,-119.9 995.43,-83.18"/>
<polygon fill="#63b8ff" stroke="#63b8ff" points="998.59,-81.66 991.12,-74.14 992.27,-84.68 998.59,-81.66"/>
</a>
</g>
</g>
<!-- Node10&#45;&gt;Node4 -->
<g id="edge15_Node000010_Node000004" class="edge">
<title>Node10&#45;&gt;Node4</title>
<g id="a_edge15_Node000010_Node000004"><a xlink:title=" ">
<path fill="none" stroke="#63b8ff" d="M982.13,-175.86C999.64,-158.55 1037.32,-117.55 1050,-74 1052.36,-65.89 1053.88,-62.5 1050,-55 1042.96,-41.41 1029.66,-31.09 1017.08,-23.82"/>
<polygon fill="#63b8ff" stroke="#63b8ff" points="1018.62,-20.68 1008.15,-19.07 1015.33,-26.86 1018.62,-20.68"/>
</a>
</g>
</g>
<!-- Node10&#45;&gt;Node7 -->
<g id="edge16_Node000010_Node000007" class="edge">
<title>Node10&#45;&gt;Node7</title>
<g id="a_edge16_Node000010_Node000007"><a xlink:title=" ">
<path fill="none" stroke="#63b8ff" d="M941.69,-183.57C849.99,-180.54 583.41,-169.38 502,-140 479.74,-131.97 478.49,-121.85 458,-110 437.56,-98.18 413.51,-86.62 395.13,-78.25"/>
<polygon fill="#63b8ff" stroke="#63b8ff" points="396.37,-74.97 385.82,-74.06 393.5,-81.35 396.37,-74.97"/>
</a>
</g>
</g>
<!-- Node11&#45;&gt;Node4 -->
<g id="edge18_Node000011_Node000004" class="edge">
<title>Node11&#45;&gt;Node4</title>
<g id="a_edge18_Node000011_Node000004"><a xlink:title=" ">
<path fill="none" stroke="#63b8ff" d="M987,-54.75C987,-47.8 987,-37.85 987,-29.13"/>
<polygon fill="#63b8ff" stroke="#63b8ff" points="990.5,-29.09 987,-19.09 983.5,-29.09 990.5,-29.09"/>
</a>
</g>
</g>
<!-- Node12&#45;&gt;Node7 -->
<g id="edge26_Node000012_Node000007" class="edge">
<title>Node12&#45;&gt;Node7</title>
<g id="a_edge26_Node000012_Node000007"><a xlink:title=" ">
<path fill="none" stroke="#63b8ff" d="M104.67,-175.87C127.23,-160.82 176.19,-129.52 221,-110 253.29,-95.94 291.41,-84.42 320.46,-76.63"/>
<polygon fill="#63b8ff" stroke="#63b8ff" points="321.55,-79.97 330.33,-74.04 319.77,-73.2 321.55,-79.97"/>
</a>
</g>
</g>
<!-- Node13 -->
<g id="Node000013" class="node">
<title>Node13</title>
<g id="a_Node000013"><a xlink:href="mk64_8h.html" target="_top" xlink:title=" ">
<polygon fill="white" stroke="#666666" points="147.5,-134.5 94.5,-134.5 94.5,-115.5 147.5,-115.5 147.5,-134.5"/>
<text text-anchor="middle" x="121" y="-122.5" font-family="Helvetica,sans-Serif" font-size="10.00">mk64.h</text>
</a>
</g>
</g>
<!-- Node12&#45;&gt;Node13 -->
<g id="edge21_Node000012_Node000013" class="edge">
<title>Node12&#45;&gt;Node13</title>
<g id="a_edge21_Node000012_Node000013"><a xlink:title=" ">
<path fill="none" stroke="#63b8ff" d="M96.28,-175.87C100.43,-167.49 106.87,-154.51 112.13,-143.89"/>
<polygon fill="#63b8ff" stroke="#63b8ff" points="115.4,-145.18 116.7,-134.67 109.13,-142.07 115.4,-145.18"/>
</a>
</g>
</g>
<!-- Node13&#45;&gt;Node4 -->
<g id="edge22_Node000013_Node000004" class="edge">
<title>Node13&#45;&gt;Node4</title>
<g id="a_edge22_Node000013_Node000004"><a xlink:title=" ">
<path fill="none" stroke="#63b8ff" d="M138.54,-115.32C170.39,-100.03 240.26,-68.61 303,-55 423.99,-28.75 800.19,-15.77 936.79,-11.83"/>
<polygon fill="#63b8ff" stroke="#63b8ff" points="937.07,-15.33 946.97,-11.54 936.87,-8.33 937.07,-15.33"/>
</a>
</g>
</g>
<!-- Node14 -->
<g id="Node000014" class="node">
<title>Node14</title>
<g id="a_Node000014"><a xlink:href="string_8h.html" target="_top" xlink:title=" ">
<polygon fill="white" stroke="#666666" points="147.5,-74 94.5,-74 94.5,-55 147.5,-55 147.5,-74"/>
<text text-anchor="middle" x="121" y="-62" font-family="Helvetica,sans-Serif" font-size="10.00">string.h</text>
</a>
</g>
</g>
<!-- Node13&#45;&gt;Node14 -->
<g id="edge23_Node000013_Node000014" class="edge">
<title>Node13&#45;&gt;Node14</title>
<g id="a_edge23_Node000013_Node000014"><a xlink:title=" ">
<path fill="none" stroke="#63b8ff" d="M121,-115.37C121,-107.25 121,-94.81 121,-84.39"/>
<polygon fill="#63b8ff" stroke="#63b8ff" points="124.5,-84.17 121,-74.17 117.5,-84.17 124.5,-84.17"/>
</a>
</g>
</g>
<!-- Node16 -->
<g id="Node000016" class="node">
<title>Node16</title>
<g id="a_Node000016"><a xlink:title=" ">
<polygon fill="#e0e0e0" stroke="#999999" points="702,-74 624,-74 624,-55 702,-55 702,-74"/>
<text text-anchor="middle" x="663" y="-62" font-family="Helvetica,sans-Serif" font-size="10.00">libultra/gbi.h</text>
</a>
</g>
</g>
<!-- Node13&#45;&gt;Node16 -->
<g id="edge25_Node000013_Node000016" class="edge">
<title>Node13&#45;&gt;Node16</title>
<g id="a_edge25_Node000013_Node000016"><a xlink:title=" ">
<path fill="none" stroke="#63b8ff" d="M147.51,-121.14C232.94,-111.92 501.94,-82.88 613.63,-70.83"/>
<polygon fill="#63b8ff" stroke="#63b8ff" points="614.06,-74.3 623.62,-69.75 613.31,-67.34 614.06,-74.3"/>
</a>
</g>
</g>
<!-- Node15 -->
<g id="Node000015" class="node">
<title>Node15</title>
<g id="a_Node000015"><a xlink:title=" ">
<polygon fill="#e0e0e0" stroke="#999999" points="166,-19 76,-19 76,0 166,0 166,-19"/>
<text text-anchor="middle" x="121" y="-7" font-family="Helvetica,sans-Serif" font-size="10.00">libultra/types.h</text>
</a>
</g>
</g>
<!-- Node14&#45;&gt;Node15 -->
<g id="edge24_Node000014_Node000015" class="edge">
<title>Node14&#45;&gt;Node15</title>
<g id="a_edge24_Node000014_Node000015"><a xlink:title=" ">
<path fill="none" stroke="#63b8ff" d="M121,-54.75C121,-47.8 121,-37.85 121,-29.13"/>
<polygon fill="#63b8ff" stroke="#63b8ff" points="124.5,-29.09 121,-19.09 117.5,-29.09 124.5,-29.09"/>
</a>
</g>
</g>
<!-- Node18&#45;&gt;Node7 -->
<g id="edge30_Node000018_Node000007" class="edge">
<title>Node18&#45;&gt;Node7</title>
<g id="a_edge30_Node000018_Node000007"><a xlink:title=" ">
<path fill="none" stroke="#63b8ff" d="M33.54,-340.82C34.63,-322.49 37,-278.46 37,-241.5 37,-241.5 37,-241.5 37,-184.5 37,-145.11 52,-131.51 85,-110 119.85,-87.28 230.52,-75.19 302.13,-69.58"/>
<polygon fill="#63b8ff" stroke="#63b8ff" points="302.69,-73.05 312.4,-68.8 302.16,-66.07 302.69,-73.05"/>
</a>
</g>
</g>
<!-- Node19&#45;&gt;Node3 -->
<g id="edge72_Node000019_Node000003" class="edge">
<title>Node19&#45;&gt;Node3</title>
<g id="a_edge72_Node000019_Node000003"><a xlink:title=" ">
<path fill="none" stroke="#63b8ff" d="M995.81,-347.26C1031.57,-343.41 1084.49,-333.01 1121,-305 1154.63,-279.2 1174.03,-231.37 1182.63,-205.06"/>
<polygon fill="#63b8ff" stroke="#63b8ff" points="1186.06,-205.81 1185.66,-195.22 1179.37,-203.75 1186.06,-205.81"/>
</a>
</g>
</g>
<!-- Node19&#45;&gt;Node4 -->
<g id="edge32_Node000019_Node000004" class="edge">
<title>Node19&#45;&gt;Node4</title>
<g id="a_edge32_Node000019_Node000004"><a xlink:title=" ">
<path fill="none" stroke="#63b8ff" d="M995.83,-347.42C1097.2,-340.95 1362,-316.82 1362,-241.5 1362,-241.5 1362,-241.5 1362,-124 1362,-56.92 1139.42,-25.83 1037.22,-15.09"/>
<polygon fill="#63b8ff" stroke="#63b8ff" points="1037.44,-11.6 1027.13,-14.06 1036.72,-18.56 1037.44,-11.6"/>
</a>
</g>
</g>
<!-- Node19&#45;&gt;Node5 -->
<g id="edge70_Node000019_Node000005" class="edge">
<title>Node19&#45;&gt;Node5</title>
<g id="a_edge70_Node000019_Node000005"><a xlink:title=" ">
<path fill="none" stroke="#63b8ff" d="M995.67,-347.36C1035.66,-343.61 1098.62,-333.31 1145,-305 1199.89,-271.49 1216.73,-255.33 1239,-195 1246.77,-173.94 1227.71,-153.76 1210.72,-140.72"/>
<polygon fill="#63b8ff" stroke="#63b8ff" points="1212.35,-137.58 1202.18,-134.59 1208.26,-143.26 1212.35,-137.58"/>
</a>
</g>
</g>
<!-- Node19&#45;&gt;Node9 -->
<g id="edge73_Node000019_Node000009" class="edge">
<title>Node19&#45;&gt;Node9</title>
<g id="a_edge73_Node000019_Node000009"><a xlink:title=" ">
<path fill="none" stroke="#63b8ff" d="M963.96,-340.87C974.29,-328.25 994.59,-304.28 1014,-286 1025.27,-275.39 1038.85,-264.56 1049.81,-256.24"/>
<polygon fill="#63b8ff" stroke="#63b8ff" points="1052.03,-258.95 1057.94,-250.16 1047.84,-253.34 1052.03,-258.95"/>
</a>
</g>
</g>
<!-- Node19&#45;&gt;Node10 -->
<g id="edge71_Node000019_Node000010" class="edge">
<title>Node19&#45;&gt;Node10</title>
<g id="a_edge71_Node000019_Node000010"><a xlink:title=" ">
<path fill="none" stroke="#63b8ff" d="M957.86,-340.74C960.36,-315.31 967.64,-241.08 971.12,-205.69"/>
<polygon fill="#63b8ff" stroke="#63b8ff" points="974.64,-205.6 972.14,-195.31 967.68,-204.92 974.64,-205.6"/>
</a>
</g>
</g>
<!-- Node20 -->
<g id="Node000020" class="node">
<title>Node20</title>
<g id="a_Node000020"><a xlink:href="Track_8h.html" target="_top" xlink:title=" ">
<polygon fill="white" stroke="#666666" points="634,-305 514,-305 514,-286 634,-286 634,-305"/>
<text text-anchor="middle" x="574" y="-293" font-family="Helvetica,sans-Serif" font-size="10.00">engine/tracks/Track.h</text>
</a>
</g>
</g>
<!-- Node19&#45;&gt;Node20 -->
<g id="edge33_Node000019_Node000020" class="edge">
<title>Node19&#45;&gt;Node20</title>
<g id="a_edge33_Node000019_Node000020"><a xlink:title=" ">
<path fill="none" stroke="#63b8ff" d="M918.17,-344.13C853.97,-335.24 724.82,-317.37 644.27,-306.22"/>
<polygon fill="#63b8ff" stroke="#63b8ff" points="644.6,-302.74 634.21,-304.83 643.64,-309.67 644.6,-302.74"/>
</a>
</g>
</g>
<!-- Node32 -->
<g id="Node000032" class="node">
<title>Node32</title>
<g id="a_Node000032"><a xlink:href="HM__Intro_8h.html" target="_top" xlink:title=" ">
<polygon fill="white" stroke="#666666" points="966,-134.5 860,-134.5 860,-115.5 966,-115.5 966,-134.5"/>
<text text-anchor="middle" x="913" y="-122.5" font-family="Helvetica,sans-Serif" font-size="10.00">engine/HM_Intro.h</text>
</a>
</g>
</g>
<!-- Node19&#45;&gt;Node32 -->
<g id="edge65_Node000019_Node000032" class="edge">
<title>Node19&#45;&gt;Node32</title>
<g id="a_edge65_Node000019_Node000032"><a xlink:title=" ">
<path fill="none" stroke="#63b8ff" d="M955.28,-340.74C948.79,-307.78 925.76,-190.81 916.7,-144.79"/>
<polygon fill="#63b8ff" stroke="#63b8ff" points="920.13,-144.08 914.76,-134.94 913.26,-145.43 920.13,-144.08"/>
</a>
</g>
</g>
<!-- Node20&#45;&gt;Node7 -->
<g id="edge63_Node000020_Node000007" class="edge">
<title>Node20&#45;&gt;Node7</title>
<g id="a_edge63_Node000020_Node000007"><a xlink:title=" ">
<path fill="none" stroke="#63b8ff" d="M541.91,-285.92C500.65,-273.18 429.83,-245.17 392,-195 367.11,-162 364.38,-111.27 364.95,-84.14"/>
<polygon fill="#63b8ff" stroke="#63b8ff" points="368.45,-84.2 365.33,-74.07 361.45,-83.93 368.45,-84.2"/>
</a>
</g>
</g>
<!-- Node20&#45;&gt;Node9 -->
<g id="edge64_Node000020_Node000009" class="edge">
<title>Node20&#45;&gt;Node9</title>
<g id="a_edge64_Node000020_Node000009"><a xlink:title=" ">
<path fill="none" stroke="#63b8ff" d="M634.32,-288.05C729.23,-277.91 912.44,-258.34 1008.23,-248.1"/>
<polygon fill="#63b8ff" stroke="#63b8ff" points="1008.78,-251.56 1018.35,-247.02 1008.03,-244.6 1008.78,-251.56"/>
</a>
</g>
</g>
<!-- Node20&#45;&gt;Node10 -->
<g id="edge37_Node000020_Node000010" class="edge">
<title>Node20&#45;&gt;Node10</title>
<g id="a_edge37_Node000020_Node000010"><a xlink:title=" ">
<path fill="none" stroke="#63b8ff" d="M634.17,-290.52C691.4,-285.43 779.3,-274.17 852,-250 888.97,-237.71 928.29,-215.06 951.74,-200.4"/>
<polygon fill="#63b8ff" stroke="#63b8ff" points="953.64,-203.34 960.2,-195.02 949.88,-197.43 953.64,-203.34"/>
</a>
</g>
</g>
<!-- Node20&#45;&gt;Node11 -->
<g id="edge35_Node000020_Node000011" class="edge">
<title>Node20&#45;&gt;Node11</title>
<g id="a_edge35_Node000020_Node000011"><a xlink:title=" ">
<path fill="none" stroke="#63b8ff" d="M634.21,-290.85C685.11,-286.07 759.1,-275.11 819,-250 838.56,-241.8 963.77,-157.99 975,-140 985.5,-123.19 987.78,-100.23 987.89,-84.26"/>
<polygon fill="#63b8ff" stroke="#63b8ff" points="991.38,-83.98 987.67,-74.05 984.38,-84.13 991.38,-83.98"/>
</a>
</g>
</g>
<!-- Node20&#45;&gt;Node17 -->
<g id="edge36_Node000020_Node000017" class="edge">
<title>Node20&#45;&gt;Node17</title>
<g id="a_edge36_Node000020_Node000017"><a xlink:title=" ">
<path fill="none" stroke="#63b8ff" d="M513.92,-288.68C439.54,-281.18 309.1,-267.05 198,-250 196.72,-249.8 195.42,-249.6 194.1,-249.38"/>
<polygon fill="#63b8ff" stroke="#63b8ff" points="194.39,-245.88 183.94,-247.63 193.2,-252.78 194.39,-245.88"/>
</a>
</g>
</g>
<!-- Node21 -->
<g id="Node000021" class="node">
<title>Node21</title>
<g id="a_Node000021"><a xlink:title=" ">
<polygon fill="#e0e0e0" stroke="#999999" points="810,-250 672,-250 672,-231 810,-231 810,-250"/>
<text text-anchor="middle" x="741" y="-238" font-family="Helvetica,sans-Serif" font-size="10.00">libultraship/libultraship.h</text>
</a>
</g>
</g>
<!-- Node20&#45;&gt;Node21 -->
<g id="edge34_Node000020_Node000021" class="edge">
<title>Node20&#45;&gt;Node21</title>
<g id="a_edge34_Node000020_Node000021"><a xlink:title=" ">
<path fill="none" stroke="#63b8ff" d="M600.83,-285.98C628.87,-277.09 673.05,-263.07 704.3,-253.15"/>
<polygon fill="#63b8ff" stroke="#63b8ff" points="705.49,-256.44 713.96,-250.08 703.37,-249.77 705.49,-256.44"/>
</a>
</g>
</g>
<!-- Node22 -->
<g id="Node000022" class="node">
<title>Node22</title>
<g id="a_Node000022"><a xlink:href="src_2data_2some__data_8h.html" target="_top" xlink:title=" ">
<polygon fill="white" stroke="#666666" points="576,-250 472,-250 472,-231 576,-231 576,-250"/>
<text text-anchor="middle" x="524" y="-238" font-family="Helvetica,sans-Serif" font-size="10.00">data/some_data.h</text>
</a>
</g>
</g>
<!-- Node20&#45;&gt;Node22 -->
<g id="edge38_Node000020_Node000022" class="edge">
<title>Node20&#45;&gt;Node22</title>
<g id="a_edge38_Node000020_Node000022"><a xlink:title=" ">
<path fill="none" stroke="#63b8ff" d="M565.74,-285.75C558.54,-278.11 547.89,-266.82 539.15,-257.56"/>
<polygon fill="#63b8ff" stroke="#63b8ff" points="541.51,-254.96 532.1,-250.09 536.42,-259.76 541.51,-254.96"/>
</a>
</g>
</g>
<!-- Node27 -->
<g id="Node000027" class="node">
<title>Node27</title>
<g id="a_Node000027"><a xlink:href="bomb__kart_8h.html" target="_top" xlink:title=" ">
<polygon fill="white" stroke="#666666" points="212.5,-195 135.5,-195 135.5,-176 212.5,-176 212.5,-195"/>
<text text-anchor="middle" x="174" y="-183" font-family="Helvetica,sans-Serif" font-size="10.00">bomb_kart.h</text>
</a>
</g>
</g>
<!-- Node20&#45;&gt;Node27 -->
<g id="edge48_Node000020_Node000027" class="edge">
<title>Node20&#45;&gt;Node27</title>
<g id="a_edge48_Node000020_Node000027"><a xlink:title=" ">
<path fill="none" stroke="#63b8ff" d="M513.71,-294.9C448.32,-293.33 342.04,-284.9 258,-250 231.26,-238.89 205.45,-217.22 189.66,-202.31"/>
<polygon fill="#63b8ff" stroke="#63b8ff" points="191.97,-199.68 182.36,-195.22 187.1,-204.7 191.97,-199.68"/>
</a>
</g>
</g>
<!-- Node28 -->
<g id="Node000028" class="node">
<title>Node28</title>
<g id="a_Node000028"><a xlink:href="path__spawn__metadata_8h.html" target="_top" xlink:title=" ">
<polygon fill="white" stroke="#666666" points="415.5,-250 278.5,-250 278.5,-231 415.5,-231 415.5,-250"/>
<text text-anchor="middle" x="347" y="-238" font-family="Helvetica,sans-Serif" font-size="10.00">path_spawn_metadata.h</text>
</a>
</g>
</g>
<!-- Node20&#45;&gt;Node28 -->
<g id="edge51_Node000020_Node000028" class="edge">
<title>Node20&#45;&gt;Node28</title>
<g id="a_edge51_Node000020_Node000028"><a xlink:title=" ">
<path fill="none" stroke="#63b8ff" d="M537.53,-285.98C498.43,-276.86 436.23,-262.33 393.61,-252.38"/>
<polygon fill="#63b8ff" stroke="#63b8ff" points="394.29,-248.95 383.76,-250.08 392.7,-255.76 394.29,-248.95"/>
</a>
</g>
</g>
<!-- Node29 -->
<g id="Node000029" class="node">
<title>Node29</title>
<g id="a_Node000029"><a xlink:href="waypoints_8h.html" target="_top" xlink:title=" ">
<polygon fill="white" stroke="#666666" points="307,-195 231,-195 231,-176 307,-176 307,-195"/>
<text text-anchor="middle" x="269" y="-183" font-family="Helvetica,sans-Serif" font-size="10.00">waypoints.h</text>
</a>
</g>
</g>
<!-- Node20&#45;&gt;Node29 -->
<g id="edge61_Node000020_Node000029" class="edge">
<title>Node20&#45;&gt;Node29</title>
<g id="a_edge61_Node000020_Node000029"><a xlink:title=" ">
<path fill="none" stroke="#63b8ff" d="M513.98,-294.64C434.3,-293.4 300.02,-285.87 269,-250 258.53,-237.89 259.94,-219.09 263.12,-205.09"/>
<polygon fill="#63b8ff" stroke="#63b8ff" points="266.58,-205.67 265.85,-195.1 259.83,-203.82 266.58,-205.67"/>
</a>
</g>
</g>
<!-- Node31 -->
<g id="Node000031" class="node">
<title>Node31</title>
<g id="a_Node000031"><a xlink:href="sounds_8h.html" target="_top" xlink:title=" ">
<polygon fill="white" stroke="#666666" points="654,-250 594,-250 594,-231 654,-231 654,-250"/>
<text text-anchor="middle" x="624" y="-238" font-family="Helvetica,sans-Serif" font-size="10.00">sounds.h</text>
</a>
</g>
</g>
<!-- Node20&#45;&gt;Node31 -->
<g id="edge62_Node000020_Node000031" class="edge">
<title>Node20&#45;&gt;Node31</title>
<g id="a_edge62_Node000020_Node000031"><a xlink:title=" ">
<path fill="none" stroke="#63b8ff" d="M582.26,-285.75C589.46,-278.11 600.11,-266.82 608.85,-257.56"/>
<polygon fill="#63b8ff" stroke="#63b8ff" points="611.58,-259.76 615.9,-250.09 606.49,-254.96 611.58,-259.76"/>
</a>
</g>
</g>
<!-- Node22&#45;&gt;Node16 -->
<g id="edge39_Node000022_Node000016" class="edge">
<title>Node22&#45;&gt;Node16</title>
<g id="a_edge39_Node000022_Node000016"><a xlink:title=" ">
<path fill="none" stroke="#63b8ff" d="M550.74,-230.9C586.55,-217.76 648.65,-188.92 675,-140 684.48,-122.4 678.4,-99.32 671.93,-83.54"/>
<polygon fill="#63b8ff" stroke="#63b8ff" points="675.09,-82.03 667.79,-74.35 668.71,-84.91 675.09,-82.03"/>
</a>
</g>
</g>
<!-- Node23 -->
<g id="Node000023" class="node">
<title>Node23</title>
<g id="a_Node000023"><a xlink:href="spline_8h.html" target="_top" xlink:title=" ">
<polygon fill="white" stroke="#666666" points="449.5,-134.5 394.5,-134.5 394.5,-115.5 449.5,-115.5 449.5,-134.5"/>
<text text-anchor="middle" x="422" y="-122.5" font-family="Helvetica,sans-Serif" font-size="10.00">spline.h</text>
</a>
</g>
</g>
<!-- Node22&#45;&gt;Node23 -->
<g id="edge40_Node000022_Node000023" class="edge">
<title>Node22&#45;&gt;Node23</title>
<g id="a_edge40_Node000022_Node000023"><a xlink:title=" ">
<path fill="none" stroke="#63b8ff" d="M517.01,-230.69C507.07,-218.25 488.15,-194.95 471,-176 460.32,-164.19 447.74,-151.38 438,-141.68"/>
<polygon fill="#63b8ff" stroke="#63b8ff" points="440.46,-139.19 430.89,-134.65 435.54,-144.17 440.46,-139.19"/>
</a>
</g>
</g>
<!-- Node24 -->
<g id="Node000024" class="node">
<title>Node24</title>
<g id="a_Node000024"><a xlink:href="other__textures_8h.html" target="_top" xlink:title=" ">
<polygon fill="white" stroke="#666666" points="842,-140 722,-140 722,-110 842,-110 842,-140"/>
<text text-anchor="start" x="730" y="-128" font-family="Helvetica,sans-Serif" font-size="10.00">assets/textures/other</text>
<text text-anchor="middle" x="782" y="-117" font-family="Helvetica,sans-Serif" font-size="10.00">_textures.h</text>
</a>
</g>
</g>
<!-- Node22&#45;&gt;Node24 -->
<g id="edge42_Node000022_Node000024" class="edge">
<title>Node22&#45;&gt;Node24</title>
<g id="a_edge42_Node000022_Node000024"><a xlink:title=" ">
<path fill="none" stroke="#63b8ff" d="M571.15,-230.93C617.52,-222 684.63,-207.58 708,-195 730,-183.16 750.39,-163.18 764.17,-147.76"/>
<polygon fill="#63b8ff" stroke="#63b8ff" points="766.84,-150.02 770.75,-140.18 761.55,-145.44 766.84,-150.02"/>
</a>
</g>
</g>
<!-- Node26 -->
<g id="Node000026" class="node">
<title>Node26</title>
<g id="a_Node000026"><a xlink:href="objects_8h.html" target="_top" xlink:title=" ">
<polygon fill="white" stroke="#666666" points="462.5,-195 401.5,-195 401.5,-176 462.5,-176 462.5,-195"/>
<text text-anchor="middle" x="432" y="-183" font-family="Helvetica,sans-Serif" font-size="10.00">objects.h</text>
</a>
</g>
</g>
<!-- Node22&#45;&gt;Node26 -->
<g id="edge45_Node000022_Node000026" class="edge">
<title>Node22&#45;&gt;Node26</title>
<g id="a_edge45_Node000022_Node000026"><a xlink:title=" ">
<path fill="none" stroke="#63b8ff" d="M509.22,-230.98C494.82,-222.69 472.69,-209.94 455.81,-200.22"/>
<polygon fill="#63b8ff" stroke="#63b8ff" points="457.46,-197.13 447.05,-195.17 453.97,-203.19 457.46,-197.13"/>
</a>
</g>
</g>
<!-- Node23&#45;&gt;Node7 -->
<g id="edge41_Node000023_Node000007" class="edge">
<title>Node23&#45;&gt;Node7</title>
<g id="a_edge41_Node000023_Node000007"><a xlink:title=" ">
<path fill="none" stroke="#63b8ff" d="M413.74,-115.37C405.22,-106.47 391.74,-92.39 381.27,-81.45"/>
<polygon fill="#63b8ff" stroke="#63b8ff" points="383.74,-78.97 374.3,-74.17 378.68,-83.81 383.74,-78.97"/>
</a>
</g>
</g>
<!-- Node24&#45;&gt;Node4 -->
<g id="edge43_Node000024_Node000004" class="edge">
<title>Node24&#45;&gt;Node4</title>
<g id="a_edge43_Node000024_Node000004"><a xlink:title=" ">
<path fill="none" stroke="#63b8ff" d="M807.55,-109.85C847.23,-87.89 923.16,-45.85 962.31,-24.17"/>
<polygon fill="#63b8ff" stroke="#63b8ff" points="964.37,-27.03 971.42,-19.12 960.98,-20.91 964.37,-27.03"/>
</a>
</g>
</g>
<!-- Node25 -->
<g id="Node000025" class="node">
<title>Node25</title>
<g id="a_Node000025"><a xlink:href="align__asset__macro_8h.html" target="_top" xlink:title=" ">
<polygon fill="white" stroke="#666666" points="837.5,-74 720.5,-74 720.5,-55 837.5,-55 837.5,-74"/>
<text text-anchor="middle" x="779" y="-62" font-family="Helvetica,sans-Serif" font-size="10.00">align_asset_macro.h</text>
</a>
</g>
</g>
<!-- Node24&#45;&gt;Node25 -->
<g id="edge44_Node000024_Node000025" class="edge">
<title>Node24&#45;&gt;Node25</title>
<g id="a_edge44_Node000024_Node000025"><a xlink:title=" ">
<path fill="none" stroke="#63b8ff" d="M781.27,-109.84C780.88,-102.21 780.4,-92.7 779.97,-84.45"/>
<polygon fill="#63b8ff" stroke="#63b8ff" points="783.46,-84.07 779.45,-74.27 776.47,-84.43 783.46,-84.07"/>
</a>
</g>
</g>
<!-- Node26&#45;&gt;Node7 -->
<g id="edge47_Node000026_Node000007" class="edge">
<title>Node26&#45;&gt;Node7</title>
<g id="a_edge47_Node000026_Node000007"><a xlink:title=" ">
<path fill="none" stroke="#63b8ff" d="M419.32,-175.73C408.6,-167.65 393.65,-154.73 385,-140 374.88,-122.77 370.1,-100.23 367.87,-84.47"/>
<polygon fill="#63b8ff" stroke="#63b8ff" points="371.33,-83.88 366.66,-74.36 364.38,-84.71 371.33,-83.88"/>
</a>
</g>
</g>
<!-- Node26&#45;&gt;Node23 -->
<g id="edge46_Node000026_Node000023" class="edge">
<title>Node26&#45;&gt;Node23</title>
<g id="a_edge46_Node000026_Node000023"><a xlink:title=" ">
<path fill="none" stroke="#63b8ff" d="M430.52,-175.87C429.12,-167.66 426.96,-155.04 425.17,-144.55"/>
<polygon fill="#63b8ff" stroke="#63b8ff" points="428.62,-143.93 423.48,-134.67 421.72,-145.11 428.62,-143.93"/>
</a>
</g>
</g>
<!-- Node27&#45;&gt;Node7 -->
<g id="edge49_Node000027_Node000007" class="edge">
<title>Node27&#45;&gt;Node7</title>
<g id="a_edge49_Node000027_Node000007"><a xlink:title=" ">
<path fill="none" stroke="#63b8ff" d="M182.68,-175.73C197.87,-160.74 230.75,-129.88 263,-110 284.52,-96.74 310.69,-85.49 331.26,-77.61"/>
<polygon fill="#63b8ff" stroke="#63b8ff" points="332.72,-80.8 340.87,-74.03 330.28,-74.25 332.72,-80.8"/>
</a>
</g>
</g>
<!-- Node27&#45;&gt;Node13 -->
<g id="edge50_Node000027_Node000013" class="edge">
<title>Node27&#45;&gt;Node13</title>
<g id="a_edge50_Node000027_Node000013"><a xlink:title=" ">
<path fill="none" stroke="#63b8ff" d="M166.18,-175.87C158.19,-167.05 145.61,-153.16 135.74,-142.27"/>
<polygon fill="#63b8ff" stroke="#63b8ff" points="138.16,-139.73 128.85,-134.67 132.97,-144.43 138.16,-139.73"/>
</a>
</g>
</g>
<!-- Node28&#45;&gt;Node7 -->
<g id="edge54_Node000028_Node000007" class="edge">
<title>Node28&#45;&gt;Node7</title>
<g id="a_edge54_Node000028_Node000007"><a xlink:title=" ">
<path fill="none" stroke="#63b8ff" d="M343.35,-230.96C332.82,-205.79 303.76,-132.23 314,-110 319.75,-97.52 330.91,-87.24 341.42,-79.71"/>
<polygon fill="#63b8ff" stroke="#63b8ff" points="343.57,-82.49 349.97,-74.05 339.7,-76.65 343.57,-82.49"/>
</a>
</g>
</g>
<!-- Node28&#45;&gt;Node27 -->
<g id="edge60_Node000028_Node000027" class="edge">
<title>Node28&#45;&gt;Node27</title>
<g id="a_edge60_Node000028_Node000027"><a xlink:title=" ">
<path fill="none" stroke="#63b8ff" d="M319.2,-230.98C290.03,-222.05 244,-207.94 211.6,-198.02"/>
<polygon fill="#63b8ff" stroke="#63b8ff" points="212.6,-194.66 202.01,-195.08 210.55,-201.36 212.6,-194.66"/>
</a>
</g>
</g>
<!-- Node28&#45;&gt;Node29 -->
<g id="edge52_Node000028_Node000029" class="edge">
<title>Node28&#45;&gt;Node29</title>
<g id="a_edge52_Node000028_Node000029"><a xlink:title=" ">
<path fill="none" stroke="#63b8ff" d="M334.47,-230.98C322.6,-222.92 304.54,-210.65 290.39,-201.03"/>
<polygon fill="#63b8ff" stroke="#63b8ff" points="292,-197.9 281.76,-195.17 288.06,-203.69 292,-197.9"/>
</a>
</g>
</g>
<!-- Node30 -->
<g id="Node000030" class="node">
<title>Node30</title>
<g id="a_Node000030"><a xlink:href="other_2common__data_8h.html" target="_top" xlink:title=" ">
<polygon fill="white" stroke="#666666" points="666,-140 544,-140 544,-110 666,-110 666,-140"/>
<text text-anchor="start" x="552" y="-128" font-family="Helvetica,sans-Serif" font-size="10.00">assets/other/common</text>
<text text-anchor="middle" x="605" y="-117" font-family="Helvetica,sans-Serif" font-size="10.00">_data.h</text>
</a>
</g>
</g>
<!-- Node28&#45;&gt;Node30 -->
<g id="edge55_Node000028_Node000030" class="edge">
<title>Node28&#45;&gt;Node30</title>
<g id="a_edge55_Node000028_Node000030"><a xlink:title=" ">
<path fill="none" stroke="#63b8ff" d="M374,-230.95C399.39,-222.64 438.28,-209.22 471,-195 505.78,-179.88 544.12,-159.77 570.85,-145.16"/>
<polygon fill="#63b8ff" stroke="#63b8ff" points="572.72,-148.13 579.79,-140.24 569.34,-142 572.72,-148.13"/>
</a>
</g>
</g>
<!-- Node29&#45;&gt;Node7 -->
<g id="edge53_Node000029_Node000007" class="edge">
<title>Node29&#45;&gt;Node7</title>
<g id="a_edge53_Node000029_Node000007"><a xlink:title=" ">
<path fill="none" stroke="#63b8ff" d="M267.29,-175.78C264.87,-160.87 262.16,-130.12 276,-110 286.49,-94.75 303.76,-84.5 320.38,-77.72"/>
<polygon fill="#63b8ff" stroke="#63b8ff" points="321.89,-80.89 330.03,-74.12 319.44,-74.33 321.89,-80.89"/>
</a>
</g>
</g>
<!-- Node30&#45;&gt;Node4 -->
<g id="edge57_Node000030_Node000004" class="edge">
<title>Node30&#45;&gt;Node4</title>
<g id="a_edge57_Node000030_Node000004"><a xlink:title=" ">
<path fill="none" stroke="#63b8ff" d="M602.54,-109.9C600.68,-94.18 600.53,-69.11 615,-55 637.63,-32.93 840.44,-18.71 936.7,-13.15"/>
<polygon fill="#63b8ff" stroke="#63b8ff" points="937,-16.64 946.79,-12.58 936.61,-9.65 937,-16.64"/>
</a>
</g>
</g>
<!-- Node30&#45;&gt;Node7 -->
<g id="edge58_Node000030_Node000007" class="edge">
<title>Node30&#45;&gt;Node7</title>
<g id="a_edge58_Node000030_Node000007"><a xlink:title=" ">
<path fill="none" stroke="#63b8ff" d="M547.75,-109.99C505.79,-99.72 449.62,-85.97 410.89,-76.49"/>
<polygon fill="#63b8ff" stroke="#63b8ff" points="411.49,-73.03 400.95,-74.05 409.83,-79.83 411.49,-73.03"/>
</a>
</g>
</g>
<!-- Node30&#45;&gt;Node16 -->
<g id="edge56_Node000030_Node000016" class="edge">
<title>Node30&#45;&gt;Node16</title>
<g id="a_edge56_Node000030_Node000016"><a xlink:title=" ">
<path fill="none" stroke="#63b8ff" d="M619.04,-109.84C627.55,-101.26 638.41,-90.3 647.22,-81.42"/>
<polygon fill="#63b8ff" stroke="#63b8ff" points="649.75,-83.83 654.31,-74.27 644.78,-78.9 649.75,-83.83"/>
</a>
</g>
</g>
<!-- Node30&#45;&gt;Node25 -->
<g id="edge59_Node000030_Node000025" class="edge">
<title>Node30&#45;&gt;Node25</title>
<g id="a_edge59_Node000030_Node000025"><a xlink:title=" ">
<path fill="none" stroke="#63b8ff" d="M646.68,-109.99C676.32,-100.02 715.69,-86.78 743.77,-77.35"/>
<polygon fill="#63b8ff" stroke="#63b8ff" points="745.2,-80.56 753.56,-74.05 742.96,-73.92 745.2,-80.56"/>
</a>
</g>
</g>
<!-- Node32&#45;&gt;Node4 -->
<g id="edge66_Node000032_Node000004" class="edge">
<title>Node32&#45;&gt;Node4</title>
<g id="a_edge66_Node000032_Node000004"><a xlink:title=" ">
<path fill="none" stroke="#63b8ff" d="M912.15,-115.19C911.25,-101.3 911.29,-73.95 923,-55 931.24,-41.66 945.14,-31.28 957.88,-23.91"/>
<polygon fill="#63b8ff" stroke="#63b8ff" points="959.71,-26.9 966.85,-19.08 956.39,-20.74 959.71,-26.9"/>
</a>
</g>
</g>
<!-- Node32&#45;&gt;Node7 -->
<g id="edge69_Node000032_Node000007" class="edge">
<title>Node32&#45;&gt;Node7</title>
<g id="a_edge69_Node000032_Node000007"><a xlink:title=" ">
<path fill="none" stroke="#63b8ff" d="M879.04,-115.49C869.98,-113.45 860.16,-111.45 851,-110 701.07,-86.3 522.92,-73.95 429.85,-68.7"/>
<polygon fill="#63b8ff" stroke="#63b8ff" points="429.93,-65.19 419.75,-68.13 429.54,-72.18 429.93,-65.19"/>
</a>
</g>
</g>
<!-- Node32&#45;&gt;Node11 -->
<g id="edge68_Node000032_Node000011" class="edge">
<title>Node32&#45;&gt;Node11</title>
<g id="a_edge68_Node000032_Node000011"><a xlink:title=" ">
<path fill="none" stroke="#63b8ff" d="M923.92,-115.37C935.51,-106.21 954.03,-91.56 968.02,-80.51"/>
<polygon fill="#63b8ff" stroke="#63b8ff" points="970.36,-83.11 976.04,-74.17 966.02,-77.62 970.36,-83.11"/>
</a>
</g>
</g>
<!-- Node32&#45;&gt;Node16 -->
<g id="edge67_Node000032_Node000016" class="edge">
<title>Node32&#45;&gt;Node16</title>
<g id="a_edge67_Node000032_Node000016"><a xlink:title=" ">
<path fill="none" stroke="#63b8ff" d="M876.65,-115.49C832.4,-105.14 757.61,-87.64 709.29,-76.33"/>
<polygon fill="#63b8ff" stroke="#63b8ff" points="709.93,-72.89 699.4,-74.02 708.34,-79.7 709.93,-72.89"/>
</a>
</g>
</g>
</g>
</svg>

<g id="navigator" transform="translate(0 0)" fill="#404254">
  <rect fill="#f2f5e9" fill-opacity="0.5" stroke="#606060" stroke-width=".5" x="0" y="0" width="60" height="60"/>
  <use id="zoomplus" xlink:href="#zoomPlus" x="17" y="9" onmousedown="handleZoom(evt,'in')"/>
  <use id="zoomminus" xlink:href="#zoomMin" x="42" y="9" onmousedown="handleZoom(evt,'out')"/>
  <use id="reset" xlink:href="#resetDef" x="30" y="36" onmousedown="handleReset()"/>
   <use id="arrowup" xlink:href="#arrowUp" x="0" y="0" onmousedown="handlePan(0,-1)"/>
  <use id="arrowright" xlink:href="#arrowRight" x="0" y="0" onmousedown="handlePan(1,0)"/>
  <use id="arrowdown" xlink:href="#arrowDown" x="0" y="0" onmousedown="handlePan(0,1)"/>
  <use id="arrowleft" xlink:href="#arrowLeft" x="0" y="0" onmousedown="handlePan(-1,0)"/>
</g>
<svg viewBox="0 0 15 15" width="100%" height="30px" preserveAspectRatio="xMaxYMin meet">
 <g id="arrow_out" transform="scale(0.3 0.3)">
  <a xlink:href="green__shell_2update_8inc_8c__incl_org.svg" target="_base">
   <rect id="button" ry="5" rx="5" y="6" x="6" height="38" width="38"
        fill="#f2f5e9" fill-opacity="0.5" stroke="#606060" stroke-width="1.0"/>
   <path id="arrow"
     d="M 11.500037,31.436501 C 11.940474,20.09759 22.043105,11.32322 32.158766,21.979434 L 37.068811,17.246167 C 37.068811,17.246167 37.088388,32 37.088388,32 L 22.160133,31.978069 C 22.160133,31.978069 26.997745,27.140456 26.997745,27.140456 C 18.528582,18.264221 13.291696,25.230495 11.500037,31.436501 z"
     style="fill:#404040;"/>
  </a>
 </g>
</svg>

<style type='text/css'>
<![CDATA[
[data-mouse-over-selected='false'] { opacity: 0.7; }
[data-mouse-over-selected='true']  { opacity: 1.0; }
]]>
</style>
<script type="application/ecmascript"><![CDATA[
document.addEventListener('DOMContentLoaded', (event) => {
  highlightEdges();
  highlightAdjacentNodes();
});
]]></script>
</svg>
