<?xml version="1.0" encoding="UTF-8" standalone="no"?>
<!DOCTYPE svg PUBLIC "-//W3C//DTD SVG 1.1//EN"
 "http://www.w3.org/Graphics/SVG/1.1/DTD/svg11.dtd">
<!-- Generated by graphviz version 2.43.0 (0)
 -->
<!-- Title: render_actor_green_shell Pages: 1 -->
<svg width="1440pt" height="547pt"
 viewBox="0.00 0.00 1440.00 547.28" xmlns="http://www.w3.org/2000/svg" xmlns:xlink="http://www.w3.org/1999/xlink">
<g id="graph0" class="graph" transform="scale(1 1) rotate(0) translate(4 543.28)">
<title>render_actor_green_shell</title>
<!-- Node1 -->
<g id="Node000001" class="node">
<title>Node1</title>
<g id="a_Node000001"><a xlink:title="Renders the green shell actor.">
<polygon fill="#999999" stroke="#666666" points="111,-324.78 0,-324.78 0,-294.78 111,-294.78 111,-324.78"/>
<text text-anchor="start" x="8" y="-312.78" font-family="Helvetica,sans-Serif" font-size="10.00">render_actor_green</text>
<text text-anchor="middle" x="55.5" y="-301.78" font-family="Helvetica,sans-Serif" font-size="10.00">_shell</text>
</a>
</g>
</g>
<!-- Node2 -->
<g id="Node000002" class="node">
<title>Node2</title>
<g id="a_Node000002"><a xlink:href="actors_8c.html#a244363eb20e950ed94944be1c768a37c" target="_top" xlink:title=" ">
<polygon fill="white" stroke="#666666" points="254,-319.28 147,-319.28 147,-300.28 254,-300.28 254,-319.28"/>
<text text-anchor="middle" x="200.5" y="-307.28" font-family="Helvetica,sans-Serif" font-size="10.00">render_actor_shell</text>
</a>
</g>
</g>
<!-- Node1&#45;&gt;Node2 -->
<g id="edge1_Node000001_Node000002" class="edge">
<title>Node1&#45;&gt;Node2</title>
<g id="a_edge1_Node000001_Node000002"><a xlink:title=" ">
<path fill="none" stroke="#63b8ff" d="M111.38,-309.78C119.67,-309.78 128.27,-309.78 136.71,-309.78"/>
<polygon fill="#63b8ff" stroke="#63b8ff" points="136.89,-313.28 146.89,-309.78 136.89,-306.28 136.89,-313.28"/>
</a>
</g>
</g>
<!-- Node3 -->
<g id="Node000003" class="node">
<title>Node3</title>
<g id="a_Node000003"><a xlink:href="actors_8c.html#a25f3c7f1a525abf36fb695a718345b57" target="_top" xlink:title=" ">
<polygon fill="white" stroke="#666666" points="417,-539.28 306,-539.28 306,-520.28 417,-520.28 417,-539.28"/>
<text text-anchor="middle" x="361.5" y="-527.28" font-family="Helvetica,sans-Serif" font-size="10.00">actor_not_rendered</text>
</a>
</g>
</g>
<!-- Node2&#45;&gt;Node3 -->
<g id="edge2_Node000002_Node000003" class="edge">
<title>Node2&#45;&gt;Node3</title>
<g id="a_edge2_Node000002_Node000003"><a xlink:title=" ">
<path fill="none" stroke="#63b8ff" d="M202.75,-319.56C207.48,-352.23 227.25,-458.5 290,-511.78 292.02,-513.49 294.19,-515.05 296.46,-516.46"/>
<polygon fill="#63b8ff" stroke="#63b8ff" points="295.17,-519.73 305.66,-521.21 298.38,-513.51 295.17,-519.73"/>
</a>
</g>
</g>
<!-- Node4 -->
<g id="Node000004" class="node">
<title>Node4</title>
<g id="a_Node000004"><a xlink:href="actors_8c.html#a9293f7b62cb3da5141c43f313acdd360" target="_top" xlink:title=" ">
<polygon fill="white" stroke="#666666" points="406.5,-502.28 316.5,-502.28 316.5,-483.28 406.5,-483.28 406.5,-502.28"/>
<text text-anchor="middle" x="361.5" y="-490.28" font-family="Helvetica,sans-Serif" font-size="10.00">actor_rendered</text>
</a>
</g>
</g>
<!-- Node2&#45;&gt;Node4 -->
<g id="edge3_Node000002_Node000004" class="edge">
<title>Node2&#45;&gt;Node4</title>
<g id="a_edge3_Node000002_Node000004"><a xlink:title=" ">
<path fill="none" stroke="#63b8ff" d="M204.23,-319.61C212.4,-347.26 239.31,-426.47 290,-468.78 294.95,-472.91 300.65,-476.34 306.61,-479.19"/>
<polygon fill="#63b8ff" stroke="#63b8ff" points="305.57,-482.55 316.14,-483.2 308.28,-476.1 305.57,-482.55"/>
</a>
</g>
</g>
<!-- Node5 -->
<g id="Node000005" class="node">
<title>Node5</title>
<g id="a_Node000005"><a xlink:href="Game_8cpp.html#a04c2e1c30af14b6e8354d7a9be00e39c" target="_top" xlink:title=" ">
<polygon fill="white" stroke="#666666" points="416.5,-39.28 306.5,-39.28 306.5,-20.28 416.5,-20.28 416.5,-39.28"/>
<text text-anchor="middle" x="361.5" y="-27.28" font-family="Helvetica,sans-Serif" font-size="10.00">CM_FindActorIndex</text>
</a>
</g>
</g>
<!-- Node2&#45;&gt;Node5 -->
<g id="edge4_Node000002_Node000005" class="edge">
<title>Node2&#45;&gt;Node5</title>
<g id="a_edge4_Node000002_Node000005"><a xlink:title=" ">
<path fill="none" stroke="#63b8ff" d="M203.78,-299.85C211.55,-267.5 239.38,-163.04 290,-91.78 303.02,-73.45 322.47,-56.87 337.65,-45.48"/>
<polygon fill="#63b8ff" stroke="#63b8ff" points="339.98,-48.11 346.01,-39.4 335.87,-42.45 339.98,-48.11"/>
</a>
</g>
</g>
<!-- Node7 -->
<g id="Node000007" class="node">
<title>Node7</title>
<g id="a_Node000007"><a xlink:href="FrameInterpolation_8cpp.html#a3a036bc9d533e28a4e9697cd20dccf3e" target="_top" xlink:title=" ">
<polygon fill="white" stroke="#666666" points="1273,-466.78 1163,-466.78 1163,-436.78 1273,-436.78 1273,-466.78"/>
<text text-anchor="start" x="1171" y="-454.78" font-family="Helvetica,sans-Serif" font-size="10.00">FrameInterpolation</text>
<text text-anchor="middle" x="1218" y="-443.78" font-family="Helvetica,sans-Serif" font-size="10.00">_RecordCloseChild</text>
</a>
</g>
</g>
<!-- Node2&#45;&gt;Node7 -->
<g id="edge6_Node000002_Node000007" class="edge">
<title>Node2&#45;&gt;Node7</title>
<g id="a_edge6_Node000002_Node000007"><a xlink:title=" ">
<path fill="none" stroke="#63b8ff" d="M209.15,-319.52C223.23,-336.78 255.06,-372.72 290,-391.78 388.9,-445.71 422.85,-454.78 535.5,-454.78 535.5,-454.78 535.5,-454.78 889.5,-454.78 980.85,-454.78 1086.52,-453.59 1152.57,-452.71"/>
<polygon fill="#63b8ff" stroke="#63b8ff" points="1152.87,-456.21 1162.82,-452.58 1152.77,-449.21 1152.87,-456.21"/>
</a>
</g>
</g>
<!-- Node9 -->
<g id="Node000009" class="node">
<title>Node9</title>
<g id="a_Node000009"><a xlink:href="FrameInterpolation_8cpp.html#a0eda726b74eac815af4e874014e2727c" target="_top" xlink:title=" ">
<polygon fill="white" stroke="#666666" points="1110.5,-426.78 1000.5,-426.78 1000.5,-396.78 1110.5,-396.78 1110.5,-426.78"/>
<text text-anchor="start" x="1008.5" y="-414.78" font-family="Helvetica,sans-Serif" font-size="10.00">FrameInterpolation</text>
<text text-anchor="middle" x="1055.5" y="-403.78" font-family="Helvetica,sans-Serif" font-size="10.00">_RecordOpenChild</text>
</a>
</g>
</g>
<!-- Node2&#45;&gt;Node9 -->
<g id="edge8_Node000002_Node000009" class="edge">
<title>Node2&#45;&gt;Node9</title>
<g id="a_edge8_Node000002_Node000009"><a xlink:title=" ">
<path fill="none" stroke="#63b8ff" d="M219,-319.37C267.64,-345.12 409.18,-413.78 535.5,-413.78 535.5,-413.78 535.5,-413.78 710,-413.78 807.57,-413.78 920.67,-412.96 989.9,-412.37"/>
<polygon fill="#63b8ff" stroke="#63b8ff" points="990.23,-415.87 1000.2,-412.29 990.17,-408.87 990.23,-415.87"/>
</a>
</g>
</g>
<!-- Node10 -->
<g id="Node000010" class="node">
<title>Node10</title>
<g id="a_Node000010"><a xlink:href="actors_8c.html#a1e950a72a2fb31b55123e856e64e15c0" target="_top" xlink:title=" ">
<polygon fill="white" stroke="#666666" points="407,-319.28 316,-319.28 316,-300.28 407,-300.28 407,-319.28"/>
<text text-anchor="middle" x="361.5" y="-307.28" font-family="Helvetica,sans-Serif" font-size="10.00">func_802979F8</text>
</a>
</g>
</g>
<!-- Node2&#45;&gt;Node10 -->
<g id="edge10_Node000002_Node000010" class="edge">
<title>Node2&#45;&gt;Node10</title>
<g id="a_edge10_Node000002_Node000010"><a xlink:title=" ">
<path fill="none" stroke="#63b8ff" d="M254,-309.78C270.56,-309.78 288.88,-309.78 305.6,-309.78"/>
<polygon fill="#63b8ff" stroke="#63b8ff" points="305.77,-313.28 315.77,-309.78 305.77,-306.28 305.77,-313.28"/>
</a>
</g>
</g>
<!-- Node18 -->
<g id="Node000018" class="node">
<title>Node18</title>
<g id="a_Node000018"><a xlink:href="GBIMiddleware_8cpp.html#a4ecc44e3c6f1ca5a6b4a20c41d3bd2d2" target="_top" xlink:title=" ">
<polygon fill="white" stroke="#666666" points="753.5,-237.28 664.5,-237.28 664.5,-218.28 753.5,-218.28 753.5,-237.28"/>
<text text-anchor="middle" x="709" y="-225.28" font-family="Helvetica,sans-Serif" font-size="10.00">gSPDisplayList</text>
</a>
</g>
</g>
<!-- Node2&#45;&gt;Node18 -->
<g id="edge36_Node000002_Node000018" class="edge">
<title>Node2&#45;&gt;Node18</title>
<g id="a_edge36_Node000002_Node000018"><a xlink:title=" ">
<path fill="none" stroke="#63b8ff" d="M219.94,-300.21C237.48,-291.57 264.84,-279.24 290,-272.78 417.69,-239.95 573.3,-231.04 653.85,-228.64"/>
<polygon fill="#63b8ff" stroke="#63b8ff" points="654.34,-232.13 664.24,-228.36 654.15,-225.13 654.34,-232.13"/>
</a>
</g>
</g>
<!-- Node27 -->
<g id="Node000027" class="node">
<title>Node27</title>
<g id="a_Node000027"><a xlink:href="math__util_8c.html#a1e5d28a1962fbb390c7551f66c2f099a" target="_top" xlink:title=" ">
<polygon fill="white" stroke="#666666" points="765.5,-274.28 652.5,-274.28 652.5,-255.28 765.5,-255.28 765.5,-274.28"/>
<text text-anchor="middle" x="709" y="-262.28" font-family="Helvetica,sans-Serif" font-size="10.00">render_set_position</text>
</a>
</g>
</g>
<!-- Node2&#45;&gt;Node27 -->
<g id="edge47_Node000002_Node000027" class="edge">
<title>Node2&#45;&gt;Node27</title>
<g id="a_edge47_Node000002_Node000027"><a xlink:title=" ">
<path fill="none" stroke="#63b8ff" d="M242.28,-300.27C257.22,-297.11 274.3,-293.87 290,-291.78 413.74,-275.27 559.47,-268.76 642.07,-266.26"/>
<polygon fill="#63b8ff" stroke="#63b8ff" points="642.43,-269.75 652.32,-265.96 642.22,-262.76 642.43,-269.75"/>
</a>
</g>
</g>
<!-- Node32 -->
<g id="Node000032" class="node">
<title>Node32</title>
<g id="a_Node000032"><a xlink:href="math__util_8c.html#a5e1d12b8745a8d5f8d73ab366328d3cd" target="_top" xlink:title=" ">
<polygon fill="white" stroke="#666666" points="433,-119.28 290,-119.28 290,-100.28 433,-100.28 433,-119.28"/>
<text text-anchor="middle" x="361.5" y="-107.28" font-family="Helvetica,sans-Serif" font-size="10.00">is_within_render_distance</text>
</a>
</g>
</g>
<!-- Node2&#45;&gt;Node32 -->
<g id="edge37_Node000002_Node000032" class="edge">
<title>Node2&#45;&gt;Node32</title>
<g id="a_edge37_Node000002_Node000032"><a xlink:title=" ">
<path fill="none" stroke="#63b8ff" d="M209.17,-300.13C234.25,-268.58 314.09,-168.15 346.57,-127.3"/>
<polygon fill="#63b8ff" stroke="#63b8ff" points="349.42,-129.33 352.91,-119.32 343.95,-124.97 349.42,-129.33"/>
</a>
</g>
</g>
<!-- Node6 -->
<g id="Node000006" class="node">
<title>Node6</title>
<g id="a_Node000006"><a xlink:href="Game_8cpp.html#ae2fa844b3cb1021ecbc357f8ed2ad8cc" target="_top" xlink:title=" ">
<polygon fill="white" stroke="#666666" points="1086.5,-82.28 1024.5,-82.28 1024.5,-63.28 1086.5,-63.28 1086.5,-82.28"/>
<text text-anchor="middle" x="1055.5" y="-70.28" font-family="Helvetica,sans-Serif" font-size="10.00">GetWorld</text>
</a>
</g>
</g>
<!-- Node5&#45;&gt;Node6 -->
<g id="edge5_Node000005_Node000006" class="edge">
<title>Node5&#45;&gt;Node6</title>
<g id="a_edge5_Node000005_Node000006"><a xlink:title=" ">
<path fill="none" stroke="#63b8ff" d="M396.23,-20.16C417.01,-14.74 444.32,-8.52 469,-5.78 674.3,17.07 919.94,-37.79 1014.6,-62"/>
<polygon fill="#63b8ff" stroke="#63b8ff" points="1013.78,-65.4 1024.34,-64.52 1015.54,-58.63 1013.78,-65.4"/>
</a>
</g>
</g>
<!-- Node8 -->
<g id="Node000008" class="node">
<title>Node8</title>
<g id="a_Node000008"><a xlink:href="FrameInterpolation_8cpp.html#a02c7ac5342a4d376edee38f312b480bf" target="_top" xlink:title=" ">
<polygon fill="white" stroke="#666666" points="1432,-373.28 1324,-373.28 1324,-354.28 1432,-354.28 1432,-373.28"/>
<text text-anchor="middle" x="1378" y="-361.28" font-family="Helvetica,sans-Serif" font-size="10.00">check_if_recording</text>
</a>
</g>
</g>
<!-- Node7&#45;&gt;Node8 -->
<g id="edge7_Node000007_Node000008" class="edge">
<title>Node7&#45;&gt;Node8</title>
<g id="a_edge7_Node000007_Node000008"><a xlink:title=" ">
<path fill="none" stroke="#63b8ff" d="M1255.3,-436.67C1265.99,-431.9 1277.6,-426.4 1288,-420.78 1311.64,-407.99 1337.36,-391.17 1355.05,-379.13"/>
<polygon fill="#63b8ff" stroke="#63b8ff" points="1357.25,-381.86 1363.51,-373.31 1353.28,-376.09 1357.25,-381.86"/>
</a>
</g>
</g>
<!-- Node9&#45;&gt;Node8 -->
<g id="edge9_Node000009_Node000008" class="edge">
<title>Node9&#45;&gt;Node8</title>
<g id="a_edge9_Node000009_Node000008"><a xlink:title=" ">
<path fill="none" stroke="#63b8ff" d="M1110.78,-403.96C1157.71,-397.17 1227.36,-387 1288,-377.78 1296.34,-376.51 1305.11,-375.15 1313.76,-373.8"/>
<polygon fill="#63b8ff" stroke="#63b8ff" points="1314.49,-377.23 1323.83,-372.23 1313.41,-370.32 1314.49,-377.23"/>
</a>
</g>
</g>
<!-- Node11 -->
<g id="Node000011" class="node">
<title>Node11</title>
<g id="a_Node000011"><a xlink:href="actors_8c.html#a09d879c67b2c1430dd8ba2d5c9c136e1" target="_top" xlink:title=" ">
<polygon fill="white" stroke="#666666" points="582.5,-205.28 490.5,-205.28 490.5,-186.28 582.5,-186.28 582.5,-205.28"/>
<text text-anchor="middle" x="536.5" y="-193.28" font-family="Helvetica,sans-Serif" font-size="10.00">func_802976EC</text>
</a>
</g>
</g>
<!-- Node10&#45;&gt;Node11 -->
<g id="edge11_Node000010_Node000011" class="edge">
<title>Node10&#45;&gt;Node11</title>
<g id="a_edge11_Node000010_Node000011"><a xlink:title=" ">
<path fill="none" stroke="#63b8ff" d="M376.95,-300.25C406.9,-280.52 475.95,-235.02 512.24,-211.1"/>
<polygon fill="#63b8ff" stroke="#63b8ff" points="514.3,-213.94 520.72,-205.51 510.45,-208.09 514.3,-213.94"/>
</a>
</g>
</g>
<!-- Node15 -->
<g id="Node000015" class="node">
<title>Node15</title>
<g id="a_Node000015"><a xlink:href="actors_8c.html#a83bcf2234f4c65898ed5d48a7301f86b" target="_top" xlink:title=" ">
<polygon fill="white" stroke="#666666" points="582,-374.28 491,-374.28 491,-355.28 582,-355.28 582,-374.28"/>
<text text-anchor="middle" x="536.5" y="-362.28" font-family="Helvetica,sans-Serif" font-size="10.00">func_80297760</text>
</a>
</g>
</g>
<!-- Node10&#45;&gt;Node15 -->
<g id="edge15_Node000010_Node000015" class="edge">
<title>Node10&#45;&gt;Node15</title>
<g id="a_edge15_Node000010_Node000015"><a xlink:title=" ">
<path fill="none" stroke="#63b8ff" d="M392.63,-319.36C421.2,-328.44 464.29,-342.14 495.68,-352.11"/>
<polygon fill="#63b8ff" stroke="#63b8ff" points="494.83,-355.52 505.42,-355.21 496.95,-348.85 494.83,-355.52"/>
</a>
</g>
</g>
<!-- Node17 -->
<g id="Node000017" class="node">
<title>Node17</title>
<g id="a_Node000017"><a xlink:href="actors_8c.html#ac46c5c4408bdcd2bfdeddd690b1ed203" target="_top" xlink:title=" ">
<polygon fill="white" stroke="#666666" points="582.5,-319.28 490.5,-319.28 490.5,-300.28 582.5,-300.28 582.5,-319.28"/>
<text text-anchor="middle" x="536.5" y="-307.28" font-family="Helvetica,sans-Serif" font-size="10.00">func_8029794C</text>
</a>
</g>
</g>
<!-- Node10&#45;&gt;Node17 -->
<g id="edge17_Node000010_Node000017" class="edge">
<title>Node10&#45;&gt;Node17</title>
<g id="a_edge17_Node000010_Node000017"><a xlink:title=" ">
<path fill="none" stroke="#63b8ff" d="M407.05,-309.78C429.38,-309.78 456.62,-309.78 480.27,-309.78"/>
<polygon fill="#63b8ff" stroke="#63b8ff" points="480.5,-313.28 490.5,-309.78 480.5,-306.28 480.5,-313.28"/>
</a>
</g>
</g>
<!-- Node12 -->
<g id="Node000012" class="node">
<title>Node12</title>
<g id="a_Node000012"><a xlink:href="math__util_8c.html#aaa39a297477f56051975259f4bddd829" target="_top" xlink:title=" ">
<polygon fill="white" stroke="#666666" points="734,-159.28 684,-159.28 684,-140.28 734,-140.28 734,-159.28"/>
<text text-anchor="middle" x="709" y="-147.28" font-family="Helvetica,sans-Serif" font-size="10.00">atan2s</text>
</a>
</g>
</g>
<!-- Node11&#45;&gt;Node12 -->
<g id="edge12_Node000011_Node000012" class="edge">
<title>Node11&#45;&gt;Node12</title>
<g id="a_edge12_Node000011_Node000012"><a xlink:title=" ">
<path fill="none" stroke="#63b8ff" d="M572.83,-186.24C602.58,-178.22 644.86,-166.81 674.18,-158.9"/>
<polygon fill="#63b8ff" stroke="#63b8ff" points="675.23,-162.24 683.97,-156.26 673.4,-155.48 675.23,-162.24"/>
</a>
</g>
</g>
<!-- Node14 -->
<g id="Node000014" class="node">
<title>Node14</title>
<g id="a_Node000014"><a xlink:href="actors_8c.html#a6fd7dc3bc34357287535b6f06ab7d85c" target="_top" xlink:title=" ">
<polygon fill="white" stroke="#666666" points="755,-200.28 663,-200.28 663,-181.28 755,-181.28 755,-200.28"/>
<text text-anchor="middle" x="709" y="-188.28" font-family="Helvetica,sans-Serif" font-size="10.00">func_802976D8</text>
</a>
</g>
</g>
<!-- Node11&#45;&gt;Node14 -->
<g id="edge14_Node000011_Node000014" class="edge">
<title>Node11&#45;&gt;Node14</title>
<g id="a_edge14_Node000011_Node000014"><a xlink:title=" ">
<path fill="none" stroke="#63b8ff" d="M582.74,-194.45C604.22,-193.82 630.07,-193.06 652.7,-192.4"/>
<polygon fill="#63b8ff" stroke="#63b8ff" points="652.95,-195.89 662.84,-192.1 652.74,-188.89 652.95,-195.89"/>
</a>
</g>
</g>
<!-- Node13 -->
<g id="Node000013" class="node">
<title>Node13</title>
<g id="a_Node000013"><a xlink:href="math__util_8c.html#a0273b0ea0783a06996c28669a7438ed9" target="_top" xlink:title=" ">
<polygon fill="white" stroke="#666666" points="929.5,-146.28 847.5,-146.28 847.5,-127.28 929.5,-127.28 929.5,-146.28"/>
<text text-anchor="middle" x="888.5" y="-134.28" font-family="Helvetica,sans-Serif" font-size="10.00">atan2_lookup</text>
</a>
</g>
</g>
<!-- Node12&#45;&gt;Node13 -->
<g id="edge13_Node000012_Node000013" class="edge">
<title>Node12&#45;&gt;Node13</title>
<g id="a_edge13_Node000012_Node000013"><a xlink:title=" ">
<path fill="none" stroke="#63b8ff" d="M734.31,-147.99C760.64,-146.07 803.39,-142.94 837.04,-140.47"/>
<polygon fill="#63b8ff" stroke="#63b8ff" points="837.45,-143.95 847.17,-139.73 836.94,-136.97 837.45,-143.95"/>
</a>
</g>
</g>
<!-- Node16 -->
<g id="Node000016" class="node">
<title>Node16</title>
<g id="a_Node000016"><a xlink:href="collision_8c.html#a6527a2135a10909cdf9a1fd731be5628" target="_top" xlink:title=" ">
<polygon fill="white" stroke="#666666" points="778,-385.28 640,-385.28 640,-366.28 778,-366.28 778,-385.28"/>
<text text-anchor="middle" x="709" y="-373.28" font-family="Helvetica,sans-Serif" font-size="10.00">calculate_surface_height</text>
</a>
</g>
</g>
<!-- Node15&#45;&gt;Node16 -->
<g id="edge16_Node000015_Node000016" class="edge">
<title>Node15&#45;&gt;Node16</title>
<g id="a_edge16_Node000015_Node000016"><a xlink:title=" ">
<path fill="none" stroke="#63b8ff" d="M582.3,-367.67C596.84,-368.6 613.43,-369.67 629.68,-370.72"/>
<polygon fill="#63b8ff" stroke="#63b8ff" points="629.53,-374.22 639.73,-371.37 629.98,-367.23 629.53,-374.22"/>
</a>
</g>
</g>
<!-- Node17&#45;&gt;Node18 -->
<g id="edge18_Node000017_Node000018" class="edge">
<title>Node17&#45;&gt;Node18</title>
<g id="a_edge18_Node000017_Node000018"><a xlink:title=" ">
<path fill="none" stroke="#63b8ff" d="M550.44,-300.17C569.28,-286.58 605.74,-261.74 640,-246.78 645.4,-244.42 651.16,-242.28 656.97,-240.35"/>
<polygon fill="#63b8ff" stroke="#63b8ff" points="658.21,-243.63 666.72,-237.32 656.14,-236.95 658.21,-243.63"/>
</a>
</g>
</g>
<!-- Node21 -->
<g id="Node000021" class="node">
<title>Node21</title>
<g id="a_Node000021"><a xlink:href="math__util_8c.html#a7085bb4bb08bdc39c0fa0b98f25176ef" target="_top" xlink:title=" ">
<polygon fill="white" stroke="#666666" points="773,-311.28 645,-311.28 645,-292.28 773,-292.28 773,-311.28"/>
<text text-anchor="middle" x="709" y="-299.28" font-family="Helvetica,sans-Serif" font-size="10.00">mtxf_pos_rotation_xyz</text>
</a>
</g>
</g>
<!-- Node17&#45;&gt;Node21 -->
<g id="edge21_Node000017_Node000021" class="edge">
<title>Node17&#45;&gt;Node21</title>
<g id="a_edge21_Node000017_Node000021"><a xlink:title=" ">
<path fill="none" stroke="#63b8ff" d="M582.74,-307.65C598.66,-306.91 616.98,-306.05 634.62,-305.22"/>
<polygon fill="#63b8ff" stroke="#63b8ff" points="635.07,-308.7 644.89,-304.74 634.74,-301.71 635.07,-308.7"/>
</a>
</g>
</g>
<!-- Node25 -->
<g id="Node000025" class="node">
<title>Node25</title>
<g id="a_Node000025"><a xlink:href="math__util_8c.html#aca95a220db79fe028b35270f35a4a7b3" target="_top" xlink:title=" ">
<polygon fill="white" stroke="#666666" points="744.5,-348.28 673.5,-348.28 673.5,-329.28 744.5,-329.28 744.5,-348.28"/>
<text text-anchor="middle" x="709" y="-336.28" font-family="Helvetica,sans-Serif" font-size="10.00">mtxf_scale</text>
</a>
</g>
</g>
<!-- Node17&#45;&gt;Node25 -->
<g id="edge26_Node000017_Node000025" class="edge">
<title>Node17&#45;&gt;Node25</title>
<g id="a_edge26_Node000017_Node000025"><a xlink:title=" ">
<path fill="none" stroke="#63b8ff" d="M582.74,-317.47C607.72,-321.72 638.61,-326.97 663.47,-331.2"/>
<polygon fill="#63b8ff" stroke="#63b8ff" points="662.92,-334.66 673.37,-332.88 664.1,-327.76 662.92,-334.66"/>
</a>
</g>
</g>
<!-- Node17&#45;&gt;Node27 -->
<g id="edge29_Node000017_Node000027" class="edge">
<title>Node17&#45;&gt;Node27</title>
<g id="a_edge29_Node000017_Node000027"><a xlink:title=" ">
<path fill="none" stroke="#63b8ff" d="M573.66,-300.23C599.43,-293.43 634.28,-284.23 662.02,-276.91"/>
<polygon fill="#63b8ff" stroke="#63b8ff" points="663.12,-280.24 671.89,-274.3 661.33,-273.47 663.12,-280.24"/>
</a>
</g>
</g>
<!-- Node19 -->
<g id="Node000019" class="node">
<title>Node19</title>
<g id="a_Node000019"><a xlink:href="Engine_8cpp.html#a223c8bc63f228dc11177515e38eff2db" target="_top" xlink:title=" ">
<polygon fill="white" stroke="#666666" points="963,-183.28 814,-183.28 814,-164.28 963,-164.28 963,-183.28"/>
<text text-anchor="middle" x="888.5" y="-171.28" font-family="Helvetica,sans-Serif" font-size="10.00">GameEngine_OTRSigCheck</text>
</a>
</g>
</g>
<!-- Node18&#45;&gt;Node19 -->
<g id="edge19_Node000018_Node000019" class="edge">
<title>Node18&#45;&gt;Node19</title>
<g id="a_edge19_Node000018_Node000019"><a xlink:title=" ">
<path fill="none" stroke="#63b8ff" d="M751.01,-218.21C760,-215.76 769.4,-212.92 778,-209.78 794.62,-203.71 797.36,-198.79 814,-192.78 820.82,-190.31 828.1,-188.03 835.33,-185.96"/>
<polygon fill="#63b8ff" stroke="#63b8ff" points="836.39,-189.3 845.11,-183.28 834.54,-182.55 836.39,-189.3"/>
</a>
</g>
</g>
<!-- Node20 -->
<g id="Node000020" class="node">
<title>Node20</title>
<g id="a_Node000020"><a xlink:href="string_8c.html#a008e171a518fe0e0352f31b245e03875" target="_top" xlink:title=" ">
<polygon fill="white" stroke="#666666" points="1077.5,-183.28 1033.5,-183.28 1033.5,-164.28 1077.5,-164.28 1077.5,-183.28"/>
<text text-anchor="middle" x="1055.5" y="-171.28" font-family="Helvetica,sans-Serif" font-size="10.00">strlen</text>
</a>
</g>
</g>
<!-- Node19&#45;&gt;Node20 -->
<g id="edge20_Node000019_Node000020" class="edge">
<title>Node19&#45;&gt;Node20</title>
<g id="a_edge20_Node000019_Node000020"><a xlink:title=" ">
<path fill="none" stroke="#63b8ff" d="M963.31,-173.78C984.29,-173.78 1006.02,-173.78 1023.01,-173.78"/>
<polygon fill="#63b8ff" stroke="#63b8ff" points="1023.43,-177.28 1033.43,-173.78 1023.43,-170.28 1023.43,-177.28"/>
</a>
</g>
</g>
<!-- Node22 -->
<g id="Node000022" class="node">
<title>Node22</title>
<g id="a_Node000022"><a xlink:href="math__util_8c.html#ae69cbf5c8d4b3b0dba2d7b4d4673689f" target="_top" xlink:title=" ">
<polygon fill="white" stroke="#666666" points="907.5,-294.28 869.5,-294.28 869.5,-275.28 907.5,-275.28 907.5,-294.28"/>
<text text-anchor="middle" x="888.5" y="-282.28" font-family="Helvetica,sans-Serif" font-size="10.00">coss</text>
</a>
</g>
</g>
<!-- Node21&#45;&gt;Node22 -->
<g id="edge22_Node000021_Node000022" class="edge">
<title>Node21&#45;&gt;Node22</title>
<g id="a_edge22_Node000021_Node000022"><a xlink:title=" ">
<path fill="none" stroke="#63b8ff" d="M773.08,-295.73C802.5,-292.92 836.04,-289.7 859.16,-287.49"/>
<polygon fill="#63b8ff" stroke="#63b8ff" points="859.68,-290.96 869.3,-286.52 859.02,-283.99 859.68,-290.96"/>
</a>
</g>
</g>
<!-- Node23 -->
<g id="Node000023" class="node">
<title>Node23</title>
<g id="a_Node000023"><a xlink:href="FrameInterpolation_8cpp.html#a3a4250dd10535ebfad101196ec528f79" target="_top" xlink:title=" ">
<polygon fill="white" stroke="#666666" points="1288,-335.78 1148,-335.78 1148,-305.78 1288,-305.78 1288,-335.78"/>
<text text-anchor="start" x="1156" y="-323.78" font-family="Helvetica,sans-Serif" font-size="10.00">FrameInterpolation</text>
<text text-anchor="middle" x="1218" y="-312.78" font-family="Helvetica,sans-Serif" font-size="10.00">_RecordMatrixPosRotXYZ</text>
</a>
</g>
</g>
<!-- Node21&#45;&gt;Node23 -->
<g id="edge23_Node000021_Node000023" class="edge">
<title>Node21&#45;&gt;Node23</title>
<g id="a_edge23_Node000021_Node000023"><a xlink:title=" ">
<path fill="none" stroke="#63b8ff" d="M773.19,-304.14C865.45,-307.6 1036.97,-314.03 1137.62,-317.8"/>
<polygon fill="#63b8ff" stroke="#63b8ff" points="1137.61,-321.3 1147.73,-318.18 1137.87,-314.31 1137.61,-321.3"/>
</a>
</g>
</g>
<!-- Node24 -->
<g id="Node000024" class="node">
<title>Node24</title>
<g id="a_Node000024"><a xlink:href="math__util_8c.html#a19ed3bd78fd2d3e2bd0a29f6caf48545" target="_top" xlink:title=" ">
<polygon fill="white" stroke="#666666" points="906.5,-257.28 870.5,-257.28 870.5,-238.28 906.5,-238.28 906.5,-257.28"/>
<text text-anchor="middle" x="888.5" y="-245.28" font-family="Helvetica,sans-Serif" font-size="10.00">sins</text>
</a>
</g>
</g>
<!-- Node21&#45;&gt;Node24 -->
<g id="edge25_Node000021_Node000024" class="edge">
<title>Node21&#45;&gt;Node24</title>
<g id="a_edge25_Node000021_Node000024"><a xlink:title=" ">
<path fill="none" stroke="#63b8ff" d="M751.01,-292.21C760,-289.76 769.4,-286.92 778,-283.78 794.62,-277.71 797.36,-272.79 814,-266.78 829.01,-261.35 846.27,-256.8 860.29,-253.52"/>
<polygon fill="#63b8ff" stroke="#63b8ff" points="861.31,-256.88 870.29,-251.26 859.77,-250.05 861.31,-256.88"/>
</a>
</g>
</g>
<!-- Node23&#45;&gt;Node8 -->
<g id="edge24_Node000023_Node000008" class="edge">
<title>Node23&#45;&gt;Node8</title>
<g id="a_edge24_Node000023_Node000008"><a xlink:title=" ">
<path fill="none" stroke="#63b8ff" d="M1274.26,-335.81C1293.18,-340.96 1314.11,-346.66 1332.11,-351.56"/>
<polygon fill="#63b8ff" stroke="#63b8ff" points="1331.21,-354.94 1341.78,-354.19 1333.05,-348.19 1331.21,-354.94"/>
</a>
</g>
</g>
<!-- Node26 -->
<g id="Node000026" class="node">
<title>Node26</title>
<g id="a_Node000026"><a xlink:href="FrameInterpolation_8cpp.html#ad8eff15a52471a7a9c4801f2f23124e6" target="_top" xlink:title=" ">
<polygon fill="white" stroke="#666666" points="1112,-378.78 999,-378.78 999,-348.78 1112,-348.78 1112,-378.78"/>
<text text-anchor="start" x="1007" y="-366.78" font-family="Helvetica,sans-Serif" font-size="10.00">FrameInterpolation</text>
<text text-anchor="middle" x="1055.5" y="-355.78" font-family="Helvetica,sans-Serif" font-size="10.00">_RecordMatrixScale</text>
</a>
</g>
</g>
<!-- Node25&#45;&gt;Node26 -->
<g id="edge27_Node000025_Node000026" class="edge">
<title>Node25&#45;&gt;Node26</title>
<g id="a_edge27_Node000025_Node000026"><a xlink:title=" ">
<path fill="none" stroke="#63b8ff" d="M744.61,-341.29C801.53,-345.42 915.83,-353.71 988.58,-358.99"/>
<polygon fill="#63b8ff" stroke="#63b8ff" points="988.77,-362.51 999,-359.75 989.28,-355.53 988.77,-362.51"/>
</a>
</g>
</g>
<!-- Node26&#45;&gt;Node8 -->
<g id="edge28_Node000026_Node000008" class="edge">
<title>Node26&#45;&gt;Node8</title>
<g id="a_edge28_Node000026_Node000008"><a xlink:title=" ">
<path fill="none" stroke="#63b8ff" d="M1112.33,-363.78C1168.5,-363.78 1254.99,-363.78 1313.68,-363.78"/>
<polygon fill="#63b8ff" stroke="#63b8ff" points="1313.94,-367.28 1323.94,-363.78 1313.94,-360.28 1313.94,-367.28"/>
</a>
</g>
</g>
<!-- Node28 -->
<g id="Node000028" class="node">
<title>Node28</title>
<g id="a_Node000028"><a xlink:href="Matrix_8cpp.html#a6416f9a60a7397e8b517b1483adb96e8" target="_top" xlink:title=" ">
<polygon fill="white" stroke="#666666" points="937.5,-220.28 839.5,-220.28 839.5,-201.28 937.5,-201.28 937.5,-220.28"/>
<text text-anchor="middle" x="888.5" y="-208.28" font-family="Helvetica,sans-Serif" font-size="10.00">AddObjectMatrix</text>
</a>
</g>
</g>
<!-- Node27&#45;&gt;Node28 -->
<g id="edge30_Node000027_Node000028" class="edge">
<title>Node27&#45;&gt;Node28</title>
<g id="a_edge30_Node000027_Node000028"><a xlink:title=" ">
<path fill="none" stroke="#63b8ff" d="M751.01,-255.21C760,-252.76 769.4,-249.92 778,-246.78 794.62,-240.71 797.36,-235.79 814,-229.78 820.82,-227.31 828.1,-225.03 835.33,-222.96"/>
<polygon fill="#63b8ff" stroke="#63b8ff" points="836.39,-226.3 845.11,-220.28 834.54,-219.55 836.39,-226.3"/>
</a>
</g>
</g>
<!-- Node28&#45;&gt;Node6 -->
<g id="edge35_Node000028_Node000006" class="edge">
<title>Node28&#45;&gt;Node6</title>
<g id="a_edge35_Node000028_Node000006"><a xlink:title=" ">
<path fill="none" stroke="#63b8ff" d="M937.72,-203.94C946.58,-201.34 955.42,-197.74 963,-192.78 983.47,-179.37 1022.78,-121.64 1042.54,-91.41"/>
<polygon fill="#63b8ff" stroke="#63b8ff" points="1045.72,-92.94 1048.22,-82.65 1039.84,-89.13 1045.72,-92.94"/>
</a>
</g>
</g>
<!-- Node29 -->
<g id="Node000029" class="node">
<title>Node29</title>
<g id="a_Node000029"><a xlink:href="Matrix_8cpp.html#a67401ed1d8de1f4d3a3e5a7b72842b6a" target="_top" xlink:title=" ">
<polygon fill="white" stroke="#666666" points="1089,-233.28 1022,-233.28 1022,-214.28 1089,-214.28 1089,-233.28"/>
<text text-anchor="middle" x="1055.5" y="-221.28" font-family="Helvetica,sans-Serif" font-size="10.00">AddMatrix</text>
</a>
</g>
</g>
<!-- Node28&#45;&gt;Node29 -->
<g id="edge31_Node000028_Node000029" class="edge">
<title>Node28&#45;&gt;Node29</title>
<g id="a_edge31_Node000028_Node000029"><a xlink:title=" ">
<path fill="none" stroke="#63b8ff" d="M937.67,-214.57C961.18,-216.42 989.21,-218.63 1011.93,-220.42"/>
<polygon fill="#63b8ff" stroke="#63b8ff" points="1011.71,-223.91 1021.95,-221.21 1012.26,-216.94 1011.71,-223.91"/>
</a>
</g>
</g>
<!-- Node30 -->
<g id="Node000030" class="node">
<title>Node30</title>
<g id="a_Node000030"><a xlink:href="FrameInterpolation_8cpp.html#a8cf1f2d6fabc6925aa71a9515341b4aa" target="_top" xlink:title=" ">
<polygon fill="white" stroke="#666666" points="1288,-238.78 1148,-238.78 1148,-208.78 1288,-208.78 1288,-238.78"/>
<text text-anchor="start" x="1156" y="-226.78" font-family="Helvetica,sans-Serif" font-size="10.00">FrameInterpolation</text>
<text text-anchor="middle" x="1218" y="-215.78" font-family="Helvetica,sans-Serif" font-size="10.00">_RecordMatrixMtxFToMtx</text>
</a>
</g>
</g>
<!-- Node29&#45;&gt;Node30 -->
<g id="edge32_Node000029_Node000030" class="edge">
<title>Node29&#45;&gt;Node30</title>
<g id="a_edge32_Node000029_Node000030"><a xlink:title=" ">
<path fill="none" stroke="#63b8ff" d="M1089.37,-223.78C1103.47,-223.78 1120.62,-223.78 1137.71,-223.78"/>
<polygon fill="#63b8ff" stroke="#63b8ff" points="1137.75,-227.28 1147.75,-223.78 1137.75,-220.28 1137.75,-227.28"/>
</a>
</g>
</g>
<!-- Node31 -->
<g id="Node000031" class="node">
<title>Node31</title>
<g id="a_Node000031"><a xlink:href="guMtxF2L_8c.html#a40ab2d64c609839ff1e0ef0de2d0dcc4" target="_top" xlink:title=" ">
<polygon fill="white" stroke="#666666" points="1250.5,-276.28 1185.5,-276.28 1185.5,-257.28 1250.5,-257.28 1250.5,-276.28"/>
<text text-anchor="middle" x="1218" y="-264.28" font-family="Helvetica,sans-Serif" font-size="10.00">guMtxF2L</text>
</a>
</g>
</g>
<!-- Node29&#45;&gt;Node31 -->
<g id="edge34_Node000029_Node000031" class="edge">
<title>Node29&#45;&gt;Node31</title>
<g id="a_edge34_Node000029_Node000031"><a xlink:title=" ">
<path fill="none" stroke="#63b8ff" d="M1089.37,-232.58C1114.25,-239.25 1148.61,-248.45 1175.41,-255.63"/>
<polygon fill="#63b8ff" stroke="#63b8ff" points="1174.71,-259.07 1185.27,-258.27 1176.52,-252.31 1174.71,-259.07"/>
</a>
</g>
</g>
<!-- Node30&#45;&gt;Node8 -->
<g id="edge33_Node000030_Node000008" class="edge">
<title>Node30&#45;&gt;Node8</title>
<g id="a_edge33_Node000030_Node000008"><a xlink:title=" ">
<path fill="none" stroke="#63b8ff" d="M1270.77,-238.83C1276.85,-241.65 1282.75,-244.95 1288,-248.78 1324.2,-275.16 1352.98,-320.22 1367.23,-345.39"/>
<polygon fill="#63b8ff" stroke="#63b8ff" points="1364.23,-347.2 1372.12,-354.27 1370.36,-343.82 1364.23,-347.2"/>
</a>
</g>
</g>
<!-- Node33 -->
<g id="Node000033" class="node">
<title>Node33</title>
<g id="a_Node000033"><a xlink:href="math__util_8c.html#a07a66adf3458c156c7961b983983627a" target="_top" xlink:title=" ">
<polygon fill="white" stroke="#666666" points="583,-119.28 490,-119.28 490,-100.28 583,-100.28 583,-119.28"/>
<text text-anchor="middle" x="536.5" y="-107.28" font-family="Helvetica,sans-Serif" font-size="10.00">func_802B7CA8</text>
</a>
</g>
</g>
<!-- Node32&#45;&gt;Node33 -->
<g id="edge38_Node000032_Node000033" class="edge">
<title>Node32&#45;&gt;Node33</title>
<g id="a_edge38_Node000032_Node000033"><a xlink:title=" ">
<path fill="none" stroke="#63b8ff" d="M433.36,-109.78C448.68,-109.78 464.68,-109.78 479.34,-109.78"/>
<polygon fill="#63b8ff" stroke="#63b8ff" points="479.75,-113.28 489.75,-109.78 479.75,-106.28 479.75,-113.28"/>
</a>
</g>
</g>
<!-- Node35 -->
<g id="Node000035" class="node">
<title>Node35</title>
<g id="a_Node000035"><a xlink:href="math__util_8c.html#a84cf9d4ec33146a64c230ed4cec56632" target="_top" xlink:title=" ">
<polygon fill="white" stroke="#666666" points="604,-167.78 469,-167.78 469,-137.78 604,-137.78 604,-167.78"/>
<text text-anchor="start" x="477" y="-155.78" font-family="Helvetica,sans-Serif" font-size="10.00">get_angle_between_two</text>
<text text-anchor="middle" x="536.5" y="-144.78" font-family="Helvetica,sans-Serif" font-size="10.00">_vectors</text>
</a>
</g>
</g>
<!-- Node32&#45;&gt;Node35 -->
<g id="edge41_Node000032_Node000035" class="edge">
<title>Node32&#45;&gt;Node35</title>
<g id="a_edge41_Node000032_Node000035"><a xlink:title=" ">
<path fill="none" stroke="#63b8ff" d="M400.89,-119.32C419.8,-124.02 443.2,-129.83 465.16,-135.29"/>
<polygon fill="#63b8ff" stroke="#63b8ff" points="464.58,-138.75 475.13,-137.77 466.27,-131.96 464.58,-138.75"/>
</a>
</g>
</g>
<!-- Node36 -->
<g id="Node000036" class="node">
<title>Node36</title>
<g id="a_Node000036"><a xlink:href="math__util_8c.html#a3eb0db0895b2c11953df746ce49b782e" target="_top" xlink:title=" ">
<polygon fill="white" stroke="#666666" points="591.5,-44.78 481.5,-44.78 481.5,-14.78 591.5,-14.78 591.5,-44.78"/>
<text text-anchor="start" x="489.5" y="-32.78" font-family="Helvetica,sans-Serif" font-size="10.00">is_visible_between</text>
<text text-anchor="middle" x="536.5" y="-21.78" font-family="Helvetica,sans-Serif" font-size="10.00">_angle</text>
</a>
</g>
</g>
<!-- Node32&#45;&gt;Node36 -->
<g id="edge43_Node000032_Node000036" class="edge">
<title>Node32&#45;&gt;Node36</title>
<g id="a_edge43_Node000032_Node000036"><a xlink:title=" ">
<path fill="none" stroke="#63b8ff" d="M379.54,-100.19C400.32,-88.68 436.67,-69.14 469,-54.78 473.67,-52.7 478.57,-50.64 483.51,-48.65"/>
<polygon fill="#63b8ff" stroke="#63b8ff" points="484.97,-51.84 492.98,-44.91 482.4,-45.32 484.97,-51.84"/>
</a>
</g>
</g>
<!-- Node37 -->
<g id="Node000037" class="node">
<title>Node37</title>
<g id="a_Node000037"><a xlink:href="Game_8cpp.html#ad474b8b257813cceeae25ab5205273c4" target="_top" xlink:title=" ">
<polygon fill="white" stroke="#666666" points="585.5,-82.28 487.5,-82.28 487.5,-63.28 585.5,-63.28 585.5,-82.28"/>
<text text-anchor="middle" x="536.5" y="-70.28" font-family="Helvetica,sans-Serif" font-size="10.00">IsKalimariDesert</text>
</a>
</g>
</g>
<!-- Node32&#45;&gt;Node37 -->
<g id="edge44_Node000032_Node000037" class="edge">
<title>Node32&#45;&gt;Node37</title>
<g id="a_edge44_Node000032_Node000037"><a xlink:title=" ">
<path fill="none" stroke="#63b8ff" d="M407.05,-100.25C429.57,-95.43 457.08,-89.55 480.86,-84.46"/>
<polygon fill="#63b8ff" stroke="#63b8ff" points="481.75,-87.85 490.8,-82.34 480.29,-81 481.75,-87.85"/>
</a>
</g>
</g>
<!-- Node33&#45;&gt;Node12 -->
<g id="edge39_Node000033_Node000012" class="edge">
<title>Node33&#45;&gt;Node12</title>
<g id="a_edge39_Node000033_Node000012"><a xlink:title=" ">
<path fill="none" stroke="#63b8ff" d="M578.34,-119.36C607.52,-126.2 646.32,-135.31 673.86,-141.77"/>
<polygon fill="#63b8ff" stroke="#63b8ff" points="673.28,-145.22 683.81,-144.1 674.88,-138.41 673.28,-145.22"/>
</a>
</g>
</g>
<!-- Node34 -->
<g id="Node000034" class="node">
<title>Node34</title>
<g id="a_Node000034"><a xlink:href="math_8h.html#a37bde043e94a6f074c78f10518fb5d99" target="_top" xlink:title=" ">
<polygon fill="white" stroke="#666666" points="728.5,-120.28 689.5,-120.28 689.5,-101.28 728.5,-101.28 728.5,-120.28"/>
<text text-anchor="middle" x="709" y="-108.28" font-family="Helvetica,sans-Serif" font-size="10.00">sqrtf</text>
</a>
</g>
</g>
<!-- Node33&#45;&gt;Node34 -->
<g id="edge40_Node000033_Node000034" class="edge">
<title>Node33&#45;&gt;Node34</title>
<g id="a_edge40_Node000033_Node000034"><a xlink:title=" ">
<path fill="none" stroke="#63b8ff" d="M583.19,-110.04C613.71,-110.22 652.91,-110.45 679.17,-110.61"/>
<polygon fill="#63b8ff" stroke="#63b8ff" points="679.2,-114.11 689.22,-110.67 679.25,-107.11 679.2,-114.11"/>
</a>
</g>
</g>
<!-- Node35&#45;&gt;Node12 -->
<g id="edge42_Node000035_Node000012" class="edge">
<title>Node35&#45;&gt;Node12</title>
<g id="a_edge42_Node000035_Node000012"><a xlink:title=" ">
<path fill="none" stroke="#63b8ff" d="M604.4,-151.6C628.12,-151.18 653.84,-150.73 673.71,-150.38"/>
<polygon fill="#63b8ff" stroke="#63b8ff" points="673.88,-153.88 683.82,-150.2 673.76,-146.88 673.88,-153.88"/>
</a>
</g>
</g>
<!-- Node37&#45;&gt;Node6 -->
<g id="edge46_Node000037_Node000006" class="edge">
<title>Node37&#45;&gt;Node6</title>
<g id="a_edge46_Node000037_Node000006"><a xlink:title=" ">
<path fill="none" stroke="#63b8ff" d="M585.67,-72.78C686.93,-72.78 920.22,-72.78 1014.19,-72.78"/>
<polygon fill="#63b8ff" stroke="#63b8ff" points="1014.42,-76.28 1024.42,-72.78 1014.42,-69.28 1014.42,-76.28"/>
</a>
</g>
</g>
<!-- Node38 -->
<g id="Node000038" class="node">
<title>Node38</title>
<g id="a_Node000038"><a xlink:href="classWorld.html#a1a4dacc6aea0b846df998be0afc239f7" target="_top" xlink:title=" ">
<polygon fill="white" stroke="#666666" points="755.5,-44.28 662.5,-44.28 662.5,-25.28 755.5,-25.28 755.5,-44.28"/>
<text text-anchor="middle" x="709" y="-32.28" font-family="Helvetica,sans-Serif" font-size="10.00">World::GetTrack</text>
</a>
</g>
</g>
<!-- Node37&#45;&gt;Node38 -->
<g id="edge45_Node000037_Node000038" class="edge">
<title>Node37&#45;&gt;Node38</title>
<g id="a_edge45_Node000037_Node000038"><a xlink:title=" ">
<path fill="none" stroke="#63b8ff" d="M580.52,-63.19C603.23,-58.13 631.27,-51.88 655.27,-46.53"/>
<polygon fill="#63b8ff" stroke="#63b8ff" points="656.29,-49.89 665.29,-44.3 654.76,-43.05 656.29,-49.89"/>
</a>
</g>
</g>
</g>
</svg>
