<?xml version="1.0" encoding="UTF-8" standalone="no"?>
<!DOCTYPE svg PUBLIC "-//W3C//DTD SVG 1.1//EN"
 "http://www.w3.org/Graphics/SVG/1.1/DTD/svg11.dtd">
<!-- Generated by graphviz version 2.43.0 (0)
 -->
<!-- Title: src/port/audio/HMAS.h Pages: 1 -->
<!--zoomable 203 -->

<svg id="main" version="1.1" xmlns="http://www.w3.org/2000/svg" xmlns:xlink="http://www.w3.org/1999/xlink" xml:space="preserve" onload="init(evt)">

<style type="text/css"><![CDATA[
.node, .edge {opacity: 0.7;}
.node.selected, .edge.selected {opacity: 1;}
.edge:hover path { stroke: red; }
.edge:hover polygon { stroke: red; fill: red; }
]]></style>

<defs>
  <circle id="rim" cx="0" cy="0" r="7"/>
  <circle id="rim2" cx="0" cy="0" r="3.5"/>
  <g id="zoomPlus">
    <use xlink:href="#rim" fill="#404040"><set attributeName="fill" to="#808080" begin="zoomplus.mouseover" end="zoomplus.mouseout"/></use>
    <path d="M-4,0h8M0,-4v8" fill="none" stroke="white" stroke-width="1.5" pointer-events="none"/>
  </g>
  <g id="zoomMin">
    <use xlink:href="#rim" fill="#404040"><set attributeName="fill" to="#808080" begin="zoomminus.mouseover" end="zoomminus.mouseout"/></use>
    <path d="M-4,0h8" fill="none" stroke="white" stroke-width="1.5" pointer-events="none"/>
  </g>
  <g id="arrowUp" transform="translate(30 24)">
    <use xlink:href="#rim"/>
    <path pointer-events="none" fill="none" stroke="white" stroke-width="1.5" d="M0,-3.0v7 M-2.5,-0.5L0,-3.0L2.5,-0.5"/>
  </g>
  <g id="arrowRight" transform="rotate(90) translate(36 -43)">
    <use xlink:href="#rim"/>
    <path pointer-events="none" fill="none" stroke="white" stroke-width="1.5" d="M0,-3.0v7 M-2.5,-0.5L0,-3.0L2.5,-0.5"/>
  </g>
  <g id="arrowDown" transform="rotate(180) translate(-30 -48)">
    <use xlink:href="#rim"/>
    <path pointer-events="none" fill="none" stroke="white" stroke-width="1.5" d="M0,-3.0v7 M-2.5,-0.5L0,-3.0L2.5,-0.5"/>
  </g>
  <g id="arrowLeft" transform="rotate(270) translate(-36 17)">
    <use xlink:href="#rim"/>
    <path pointer-events="none" fill="none" stroke="white" stroke-width="1.5" d="M0,-3.0v7 M-2.5,-0.5L0,-3.0L2.5,-0.5"/>
  </g>
  <g id="resetDef">
    <use xlink:href="#rim2" fill="#404040"><set attributeName="fill" to="#808080" begin="reset.mouseover" end="reset.mouseout"/></use>
  </g>
</defs>
<script type="application/ecmascript">
var viewWidth = 5351;
var viewHeight = 203;
var sectionId = 'dynsection-0';
</script>
<script type="application/ecmascript" xlink:href="svg.min.js"/>
<svg id="graph" class="graph">
<g id="viewport">
<title>src/port/audio/HMAS.h</title>
<!-- Node1 -->
<g id="Node000001" class="node">
<title>Node1</title>
<g id="a_Node000001"><a xlink:title=" ">
<polygon fill="#999999" stroke="#666666" points="2458.5,-195 2333.5,-195 2333.5,-176 2458.5,-176 2458.5,-195"/>
<text text-anchor="middle" x="2396" y="-183" font-family="Helvetica,sans-Serif" font-size="10.00">src/port/audio/HMAS.h</text>
</a>
</g>
</g>
<!-- Node2 -->
<g id="Node000002" class="node">
<title>Node2</title>
<g id="a_Node000002"><a xlink:href="external_8c.html" target="_top" xlink:title=" ">
<polygon fill="white" stroke="#666666" points="2197.5,-140 2084.5,-140 2084.5,-121 2197.5,-121 2197.5,-140"/>
<text text-anchor="middle" x="2141" y="-128" font-family="Helvetica,sans-Serif" font-size="10.00">src/audio/external.c</text>
</a>
</g>
</g>
<!-- Node1&#45;&gt;Node2 -->
<g id="edge1_Node000001_Node000002" class="edge">
<title>Node1&#45;&gt;Node2</title>
<g id="a_edge1_Node000001_Node000002"><a xlink:title=" ">
<path fill="none" stroke="#63b8ff" d="M2345.2,-173.94C2297.4,-164.01 2226.71,-149.31 2182.29,-140.08"/>
<polygon fill="#63b8ff" stroke="#63b8ff" points="2344.53,-177.38 2355.03,-175.98 2345.95,-170.52 2344.53,-177.38"/>
</a>
</g>
</g>
<!-- Node3 -->
<g id="Node000003" class="node">
<title>Node3</title>
<g id="a_Node000003"><a xlink:href="effects_8c.html" target="_top" xlink:title=" ">
<polygon fill="white" stroke="#666666" points="2290.5,-140 2215.5,-140 2215.5,-121 2290.5,-121 2290.5,-140"/>
<text text-anchor="middle" x="2253" y="-128" font-family="Helvetica,sans-Serif" font-size="10.00">src/effects.c</text>
</a>
</g>
</g>
<!-- Node1&#45;&gt;Node3 -->
<g id="edge2_Node000001_Node000003" class="edge">
<title>Node1&#45;&gt;Node3</title>
<g id="a_edge2_Node000001_Node000003"><a xlink:title=" ">
<path fill="none" stroke="#63b8ff" d="M2363.41,-172.42C2336.88,-162.59 2300.07,-148.95 2276.39,-140.17"/>
<polygon fill="#63b8ff" stroke="#63b8ff" points="2362.43,-175.79 2373.02,-175.98 2364.86,-169.23 2362.43,-175.79"/>
</a>
</g>
</g>
<!-- Node4 -->
<g id="Node000004" class="node">
<title>Node4</title>
<g id="a_Node000004"><a xlink:href="TourCamera_8cpp.html" target="_top" xlink:title=" ">
<polygon fill="white" stroke="#666666" points="112,-85 0,-85 0,-55 112,-55 112,-85"/>
<text text-anchor="start" x="8" y="-73" font-family="Helvetica,sans-Serif" font-size="10.00">src/engine/cameras</text>
<text text-anchor="middle" x="56" y="-62" font-family="Helvetica,sans-Serif" font-size="10.00">/TourCamera.cpp</text>
</a>
</g>
</g>
<!-- Node1&#45;&gt;Node4 -->
<g id="edge3_Node000001_Node000004" class="edge">
<title>Node1&#45;&gt;Node4</title>
<g id="a_edge3_Node000001_Node000004"><a xlink:title=" ">
<path fill="none" stroke="#63b8ff" d="M2376.52,-169.86C2353.26,-152.73 2315.46,-126.06 2299,-121 2067.64,-49.92 361.45,-112.61 121,-85 118.13,-84.67 115.21,-84.27 112.26,-83.82"/>
<polygon fill="#63b8ff" stroke="#63b8ff" points="2374.53,-172.74 2384.64,-175.89 2378.7,-167.12 2374.53,-172.74"/>
</a>
</g>
</g>
<!-- Node5 -->
<g id="Node000005" class="node">
<title>Node5</title>
<g id="a_Node000005"><a xlink:href="Engine_8h.html" target="_top" xlink:title=" ">
<polygon fill="white" stroke="#666666" points="2445,-140 2347,-140 2347,-121 2445,-121 2445,-140"/>
<text text-anchor="middle" x="2396" y="-128" font-family="Helvetica,sans-Serif" font-size="10.00">src/port/Engine.h</text>
</a>
</g>
</g>
<!-- Node1&#45;&gt;Node5 -->
<g id="edge4_Node000001_Node000005" class="edge">
<title>Node1&#45;&gt;Node5</title>
<g id="a_edge4_Node000001_Node000005"><a xlink:title=" ">
<path fill="none" stroke="#63b8ff" d="M2396,-165.66C2396,-156.93 2396,-146.99 2396,-140.09"/>
<polygon fill="#63b8ff" stroke="#63b8ff" points="2392.5,-165.75 2396,-175.75 2399.5,-165.75 2392.5,-165.75"/>
</a>
</g>
</g>
<!-- Node28 -->
<g id="Node000028" class="node">
<title>Node28</title>
<g id="a_Node000028"><a xlink:href="HMAS_8cpp.html" target="_top" xlink:title=" ">
<polygon fill="white" stroke="#666666" points="4643,-79.5 4507,-79.5 4507,-60.5 4643,-60.5 4643,-79.5"/>
<text text-anchor="middle" x="4575" y="-67.5" font-family="Helvetica,sans-Serif" font-size="10.00">src/port/audio/HMAS.cpp</text>
</a>
</g>
</g>
<!-- Node1&#45;&gt;Node28 -->
<g id="edge40_Node000001_Node000028" class="edge">
<title>Node1&#45;&gt;Node28</title>
<g id="a_edge40_Node000001_Node000028"><a xlink:title=" ">
<path fill="none" stroke="#63b8ff" d="M2468.84,-182.35C2791.28,-172.64 4092.12,-131.3 4498,-85 4509.61,-83.68 4522.11,-81.66 4533.59,-79.57"/>
<polygon fill="#63b8ff" stroke="#63b8ff" points="2468.57,-178.86 2458.68,-182.66 2468.78,-185.85 2468.57,-178.86"/>
</a>
</g>
</g>
<!-- Node40 -->
<g id="Node000040" class="node">
<title>Node40</title>
<g id="a_Node000040"><a xlink:href="Menu_8h.html" target="_top" xlink:title=" ">
<polygon fill="white" stroke="#666666" points="4213,-140 4109,-140 4109,-121 4213,-121 4213,-140"/>
<text text-anchor="middle" x="4161" y="-128" font-family="Helvetica,sans-Serif" font-size="10.00">src/port/ui/Menu.h</text>
</a>
</g>
</g>
<!-- Node1&#45;&gt;Node40 -->
<g id="edge41_Node000001_Node000040" class="edge">
<title>Node1&#45;&gt;Node40</title>
<g id="a_edge41_Node000001_Node000040"><a xlink:title=" ">
<path fill="none" stroke="#63b8ff" d="M2468.65,-182.32C2762.05,-173.51 3855.79,-140.67 4108.61,-133.07"/>
<polygon fill="#63b8ff" stroke="#63b8ff" points="2468.45,-178.82 2458.56,-182.62 2468.66,-185.82 2468.45,-178.82"/>
</a>
</g>
</g>
<!-- Node48 -->
<g id="Node000048" class="node">
<title>Node48</title>
<g id="a_Node000048"><a xlink:href="race__logic_8c.html" target="_top" xlink:title=" ">
<polygon fill="white" stroke="#666666" points="4356.5,-140 4231.5,-140 4231.5,-121 4356.5,-121 4356.5,-140"/>
<text text-anchor="middle" x="4294" y="-128" font-family="Helvetica,sans-Serif" font-size="10.00">src/racing/race_logic.c</text>
</a>
</g>
</g>
<!-- Node1&#45;&gt;Node48 -->
<g id="edge53_Node000001_Node000048" class="edge">
<title>Node1&#45;&gt;Node48</title>
<g id="a_edge53_Node000001_Node000048"><a xlink:title=" ">
<path fill="none" stroke="#63b8ff" d="M2468.95,-183.63C2764.31,-179.97 3872.27,-164.85 4222,-140 4225.01,-139.79 4228.09,-139.54 4231.2,-139.26"/>
<polygon fill="#63b8ff" stroke="#63b8ff" points="2468.74,-180.13 2458.79,-183.76 2468.83,-187.13 2468.74,-180.13"/>
</a>
</g>
</g>
<!-- Node5&#45;&gt;Node4 -->
<g id="edge12_Node000005_Node000004" class="edge">
<title>Node5&#45;&gt;Node4</title>
<g id="a_edge12_Node000005_Node000004"><a xlink:title=" ">
<path fill="none" stroke="#63b8ff" d="M2336.84,-121.31C2335.55,-121.2 2334.27,-121.1 2333,-121 1842.77,-84.07 609.42,-141.03 121,-85 118.13,-84.67 115.21,-84.27 112.26,-83.82"/>
<polygon fill="#63b8ff" stroke="#63b8ff" points="2336.58,-124.8 2346.88,-122.3 2337.27,-117.84 2336.58,-124.8"/>
</a>
</g>
</g>
<!-- Node6 -->
<g id="Node000006" class="node">
<title>Node6</title>
<g id="a_Node000006"><a xlink:href="load_8c.html" target="_top" xlink:title=" ">
<polygon fill="white" stroke="#666666" points="2829.5,-79.5 2736.5,-79.5 2736.5,-60.5 2829.5,-60.5 2829.5,-79.5"/>
<text text-anchor="middle" x="2783" y="-67.5" font-family="Helvetica,sans-Serif" font-size="10.00">src/audio/load.c</text>
</a>
</g>
</g>
<!-- Node5&#45;&gt;Node6 -->
<g id="edge5_Node000005_Node000006" class="edge">
<title>Node5&#45;&gt;Node6</title>
<g id="a_edge5_Node000005_Node000006"><a xlink:title=" ">
<path fill="none" stroke="#63b8ff" d="M2455.35,-123.54C2521.84,-116.39 2632.67,-103.07 2727,-85 2734.97,-83.47 2743.51,-81.51 2751.45,-79.54"/>
<polygon fill="#63b8ff" stroke="#63b8ff" points="2454.64,-120.09 2445.07,-124.63 2455.38,-127.05 2454.64,-120.09"/>
</a>
</g>
</g>
<!-- Node7 -->
<g id="Node000007" class="node">
<title>Node7</title>
<g id="a_Node000007"><a xlink:href="playback_8c.html" target="_top" xlink:title=" ">
<polygon fill="white" stroke="#666666" points="2964,-79.5 2848,-79.5 2848,-60.5 2964,-60.5 2964,-79.5"/>
<text text-anchor="middle" x="2906" y="-67.5" font-family="Helvetica,sans-Serif" font-size="10.00">src/audio/playback.c</text>
</a>
</g>
</g>
<!-- Node5&#45;&gt;Node7 -->
<g id="edge6_Node000005_Node000007" class="edge">
<title>Node5&#45;&gt;Node7</title>
<g id="a_edge6_Node000005_Node000007"><a xlink:title=" ">
<path fill="none" stroke="#63b8ff" d="M2455.25,-125.48C2540.29,-119.27 2701.74,-105.83 2838,-85 2847.77,-83.51 2858.26,-81.53 2868,-79.54"/>
<polygon fill="#63b8ff" stroke="#63b8ff" points="2454.98,-121.99 2445.26,-126.2 2455.49,-128.97 2454.98,-121.99"/>
</a>
</g>
</g>
<!-- Node8 -->
<g id="Node000008" class="node">
<title>Node8</title>
<g id="a_Node000008"><a xlink:href="seqplayer_8c.html" target="_top" xlink:title=" ">
<polygon fill="white" stroke="#666666" points="3101.5,-79.5 2982.5,-79.5 2982.5,-60.5 3101.5,-60.5 3101.5,-79.5"/>
<text text-anchor="middle" x="3042" y="-67.5" font-family="Helvetica,sans-Serif" font-size="10.00">src/audio/seqplayer.c</text>
</a>
</g>
</g>
<!-- Node5&#45;&gt;Node8 -->
<g id="edge7_Node000005_Node000008" class="edge">
<title>Node5&#45;&gt;Node8</title>
<g id="a_edge7_Node000005_Node000008"><a xlink:title=" ">
<path fill="none" stroke="#63b8ff" d="M2455.3,-127.34C2560.16,-122.98 2784.97,-111.22 2973,-85 2983.17,-83.58 2994.09,-81.59 3004.18,-79.55"/>
<polygon fill="#63b8ff" stroke="#63b8ff" points="2455.08,-123.84 2445.23,-127.75 2455.37,-130.84 2455.08,-123.84"/>
</a>
</g>
</g>
<!-- Node9 -->
<g id="Node000009" class="node">
<title>Node9</title>
<g id="a_Node000009"><a xlink:href="synthesis_8c.html" target="_top" xlink:title=" ">
<polygon fill="white" stroke="#666666" points="3238.5,-79.5 3119.5,-79.5 3119.5,-60.5 3238.5,-60.5 3238.5,-79.5"/>
<text text-anchor="middle" x="3179" y="-67.5" font-family="Helvetica,sans-Serif" font-size="10.00">src/audio/synthesis.c</text>
</a>
</g>
</g>
<!-- Node5&#45;&gt;Node9 -->
<g id="edge8_Node000005_Node000009" class="edge">
<title>Node5&#45;&gt;Node9</title>
<g id="a_edge8_Node000005_Node000009"><a xlink:title=" ">
<path fill="none" stroke="#63b8ff" d="M2455.44,-128.56C2578.23,-126.02 2868.62,-116.86 3110,-85 3120.42,-83.62 3131.63,-81.59 3141.92,-79.5"/>
<polygon fill="#63b8ff" stroke="#63b8ff" points="2455.06,-125.07 2445.13,-128.77 2455.2,-132.07 2455.06,-125.07"/>
</a>
</g>
</g>
<!-- Node10 -->
<g id="Node000010" class="node">
<title>Node10</title>
<g id="a_Node000010"><a xlink:href="code__8006E9C0_8c.html" target="_top" xlink:title=" ">
<polygon fill="white" stroke="#666666" points="3375.5,-79.5 3256.5,-79.5 3256.5,-60.5 3375.5,-60.5 3375.5,-79.5"/>
<text text-anchor="middle" x="3316" y="-67.5" font-family="Helvetica,sans-Serif" font-size="10.00">src/code_8006E9C0.c</text>
</a>
</g>
</g>
<!-- Node5&#45;&gt;Node10 -->
<g id="edge9_Node000005_Node000010" class="edge">
<title>Node5&#45;&gt;Node10</title>
<g id="a_edge9_Node000005_Node000010"><a xlink:title=" ">
<path fill="none" stroke="#63b8ff" d="M2455.16,-129.41C2594,-128.54 2951.32,-122.52 3247,-85 3257.43,-83.68 3268.64,-81.66 3278.93,-79.57"/>
<polygon fill="#63b8ff" stroke="#63b8ff" points="2455.13,-125.91 2445.15,-129.47 2455.17,-132.91 2455.13,-125.91"/>
</a>
</g>
</g>
<!-- Node11 -->
<g id="Node000011" class="node">
<title>Node11</title>
<g id="a_Node000011"><a xlink:href="ceremony__and__credits_8c.html" target="_top" xlink:title=" ">
<polygon fill="white" stroke="#666666" points="3512.5,-85 3393.5,-85 3393.5,-55 3512.5,-55 3512.5,-85"/>
<text text-anchor="start" x="3401.5" y="-73" font-family="Helvetica,sans-Serif" font-size="10.00">src/ending/ceremony</text>
<text text-anchor="middle" x="3453" y="-62" font-family="Helvetica,sans-Serif" font-size="10.00">_and_credits.c</text>
</a>
</g>
</g>
<!-- Node5&#45;&gt;Node11 -->
<g id="edge10_Node000005_Node000011" class="edge">
<title>Node5&#45;&gt;Node11</title>
<g id="a_edge10_Node000005_Node000011"><a xlink:title=" ">
<path fill="none" stroke="#63b8ff" d="M2455.23,-130.03C2609.07,-130.7 3033.75,-128.15 3384,-85 3387.03,-84.63 3390.13,-84.19 3393.25,-83.71"/>
<polygon fill="#63b8ff" stroke="#63b8ff" points="2455.07,-126.52 2445.06,-129.97 2455.04,-133.52 2455.07,-126.52"/>
</a>
</g>
</g>
<!-- Node12 -->
<g id="Node000012" class="node">
<title>Node12</title>
<g id="a_Node000012"><a xlink:href="TrackBrowser_8cpp.html" target="_top" xlink:title=" ">
<polygon fill="white" stroke="#666666" points="3685.5,-79.5 3530.5,-79.5 3530.5,-60.5 3685.5,-60.5 3685.5,-79.5"/>
<text text-anchor="middle" x="3608" y="-67.5" font-family="Helvetica,sans-Serif" font-size="10.00">src/engine/TrackBrowser.cpp</text>
</a>
</g>
</g>
<!-- Node5&#45;&gt;Node12 -->
<g id="edge11_Node000005_Node000012" class="edge">
<title>Node5&#45;&gt;Node12</title>
<g id="a_edge11_Node000005_Node000012"><a xlink:title=" ">
<path fill="none" stroke="#63b8ff" d="M2455.32,-129.66C2623.06,-129.56 3114.98,-125.55 3521,-85 3534.24,-83.68 3548.53,-81.64 3561.63,-79.52"/>
<polygon fill="#63b8ff" stroke="#63b8ff" points="2455.22,-126.16 2445.22,-129.66 2455.22,-133.16 2455.22,-126.16"/>
</a>
</g>
</g>
<!-- Node13 -->
<g id="Node000013" class="node">
<title>Node13</title>
<g id="a_Node000013"><a xlink:href="Editor_8cpp.html" target="_top" xlink:title=" ">
<polygon fill="white" stroke="#666666" points="3852.5,-79.5 3703.5,-79.5 3703.5,-60.5 3852.5,-60.5 3852.5,-79.5"/>
<text text-anchor="middle" x="3778" y="-67.5" font-family="Helvetica,sans-Serif" font-size="10.00">src/engine/editor/Editor.cpp</text>
</a>
</g>
</g>
<!-- Node5&#45;&gt;Node13 -->
<g id="edge13_Node000005_Node000013" class="edge">
<title>Node5&#45;&gt;Node13</title>
<g id="a_edge13_Node000005_Node000013"><a xlink:title=" ">
<path fill="none" stroke="#63b8ff" d="M2455.15,-128.5C2675.52,-124.62 3448.71,-109.54 3694,-85 3706.95,-83.7 3720.92,-81.65 3733.68,-79.5"/>
<polygon fill="#63b8ff" stroke="#63b8ff" points="2455.02,-125 2445.08,-128.68 2455.14,-132 2455.02,-125"/>
</a>
</g>
</g>
<!-- Node14 -->
<g id="Node000014" class="node">
<title>Node14</title>
<g id="a_Node000014"><a xlink:href="EditorMath_8cpp.html" target="_top" xlink:title=" ">
<polygon fill="white" stroke="#666666" points="4001,-85 3871,-85 3871,-55 4001,-55 4001,-85"/>
<text text-anchor="start" x="3879" y="-73" font-family="Helvetica,sans-Serif" font-size="10.00">src/engine/editor/Editor</text>
<text text-anchor="middle" x="3936" y="-62" font-family="Helvetica,sans-Serif" font-size="10.00">Math.cpp</text>
</a>
</g>
</g>
<!-- Node5&#45;&gt;Node14 -->
<g id="edge14_Node000005_Node000014" class="edge">
<title>Node5&#45;&gt;Node14</title>
<g id="a_edge14_Node000005_Node000014"><a xlink:title=" ">
<path fill="none" stroke="#63b8ff" d="M2455.5,-128.92C2694.03,-126.39 3581.65,-115.13 3861,-85 3864.16,-84.66 3867.39,-84.26 3870.64,-83.81"/>
<polygon fill="#63b8ff" stroke="#63b8ff" points="2455.26,-125.42 2445.29,-129.02 2455.33,-132.42 2455.26,-125.42"/>
</a>
</g>
</g>
<!-- Node15 -->
<g id="Node000015" class="node">
<title>Node15</title>
<g id="a_Node000015"><a xlink:href="Gizmo_8cpp.html" target="_top" xlink:title=" ">
<polygon fill="white" stroke="#666666" points="4172.5,-79.5 4019.5,-79.5 4019.5,-60.5 4172.5,-60.5 4172.5,-79.5"/>
<text text-anchor="middle" x="4096" y="-67.5" font-family="Helvetica,sans-Serif" font-size="10.00">src/engine/editor/Gizmo.cpp</text>
</a>
</g>
</g>
<!-- Node5&#45;&gt;Node15 -->
<g id="edge15_Node000005_Node000015" class="edge">
<title>Node5&#45;&gt;Node15</title>
<g id="a_edge15_Node000005_Node000015"><a xlink:title=" ">
<path fill="none" stroke="#63b8ff" d="M2455.17,-128.93C2708.07,-126.33 3699.31,-114.44 4010,-85 4023.25,-83.74 4037.56,-81.7 4050.62,-79.55"/>
<polygon fill="#63b8ff" stroke="#63b8ff" points="2455.05,-125.43 2445.09,-129.03 2455.12,-132.43 2455.05,-125.43"/>
</a>
</g>
</g>
<!-- Node16 -->
<g id="Node000016" class="node">
<title>Node16</title>
<g id="a_Node000016"><a xlink:href="Light_8cpp.html" target="_top" xlink:title=" ">
<polygon fill="white" stroke="#666666" points="4337,-79.5 4191,-79.5 4191,-60.5 4337,-60.5 4337,-79.5"/>
<text text-anchor="middle" x="4264" y="-67.5" font-family="Helvetica,sans-Serif" font-size="10.00">src/engine/editor/Light.cpp</text>
</a>
</g>
</g>
<!-- Node5&#45;&gt;Node16 -->
<g id="edge16_Node000005_Node000016" class="edge">
<title>Node5&#45;&gt;Node16</title>
<g id="a_edge16_Node000005_Node000016"><a xlink:title=" ">
<path fill="none" stroke="#63b8ff" d="M2455.61,-129.17C2725.64,-127.5 3835.86,-118.68 4182,-85 4194.79,-83.76 4208.6,-81.68 4221.17,-79.51"/>
<polygon fill="#63b8ff" stroke="#63b8ff" points="2455.22,-125.67 2445.25,-129.23 2455.27,-132.67 2455.22,-125.67"/>
</a>
</g>
</g>
<!-- Node17 -->
<g id="Node000017" class="node">
<title>Node17</title>
<g id="a_Node000017"><a xlink:href="ObjectPicker_8cpp.html" target="_top" xlink:title=" ">
<polygon fill="white" stroke="#666666" points="4488.5,-85 4355.5,-85 4355.5,-55 4488.5,-55 4488.5,-85"/>
<text text-anchor="start" x="4363.5" y="-73" font-family="Helvetica,sans-Serif" font-size="10.00">src/engine/editor/Object</text>
<text text-anchor="middle" x="4422" y="-62" font-family="Helvetica,sans-Serif" font-size="10.00">Picker.cpp</text>
</a>
</g>
</g>
<!-- Node5&#45;&gt;Node17 -->
<g id="edge17_Node000005_Node000017" class="edge">
<title>Node5&#45;&gt;Node17</title>
<g id="a_edge17_Node000005_Node000017"><a xlink:title=" ">
<path fill="none" stroke="#63b8ff" d="M2455.47,-129.42C2740.18,-128.85 3965.84,-124.1 4346,-85 4349.07,-84.68 4352.2,-84.31 4355.36,-83.9"/>
<polygon fill="#63b8ff" stroke="#63b8ff" points="2455.34,-125.92 2445.35,-129.44 2455.36,-132.92 2455.34,-125.92"/>
</a>
</g>
</g>
<!-- Node18 -->
<g id="Node000018" class="node">
<title>Node18</title>
<g id="a_Node000018"><a xlink:href="SceneManager_8cpp.html" target="_top" xlink:title=" ">
<polygon fill="white" stroke="#666666" points="323.5,-79.5 130.5,-79.5 130.5,-60.5 323.5,-60.5 323.5,-79.5"/>
<text text-anchor="middle" x="227" y="-67.5" font-family="Helvetica,sans-Serif" font-size="10.00">src/engine/editor/SceneManager.cpp</text>
</a>
</g>
</g>
<!-- Node5&#45;&gt;Node18 -->
<g id="edge18_Node000005_Node000018" class="edge">
<title>Node5&#45;&gt;Node18</title>
<g id="a_edge18_Node000005_Node000018"><a xlink:title=" ">
<path fill="none" stroke="#63b8ff" d="M2336.84,-121.31C2335.55,-121.2 2334.27,-121.1 2333,-121 1446.09,-53.42 1218.96,-151.89 332,-85 315.68,-83.77 298.02,-81.7 281.92,-79.53"/>
<polygon fill="#63b8ff" stroke="#63b8ff" points="2336.58,-124.81 2346.88,-122.31 2337.27,-117.84 2336.58,-124.81"/>
</a>
</g>
</g>
<!-- Node19 -->
<g id="Node000019" class="node">
<title>Node19</title>
<g id="a_Node000019"><a xlink:href="ModManager_8cpp.html" target="_top" xlink:title=" ">
<polygon fill="white" stroke="#666666" points="524.5,-79.5 341.5,-79.5 341.5,-60.5 524.5,-60.5 524.5,-79.5"/>
<text text-anchor="middle" x="433" y="-67.5" font-family="Helvetica,sans-Serif" font-size="10.00">src/engine/mods/ModManager.cpp</text>
</a>
</g>
</g>
<!-- Node5&#45;&gt;Node19 -->
<g id="edge19_Node000005_Node000019" class="edge">
<title>Node5&#45;&gt;Node19</title>
<g id="a_edge19_Node000005_Node000019"><a xlink:title=" ">
<path fill="none" stroke="#63b8ff" d="M2336.84,-121.32C2335.55,-121.2 2334.27,-121.1 2333,-121 1535.21,-59.41 1330.63,-148.58 533,-85 517.45,-83.76 500.62,-81.69 485.29,-79.52"/>
<polygon fill="#63b8ff" stroke="#63b8ff" points="2336.58,-124.81 2346.88,-122.32 2337.27,-117.84 2336.58,-124.81"/>
</a>
</g>
</g>
<!-- Node20 -->
<g id="Node000020" class="node">
<title>Node20</title>
<g id="a_Node000020"><a xlink:href="freecam_8cpp.html" target="_top" xlink:title=" ">
<polygon fill="white" stroke="#666666" points="691.5,-85 542.5,-85 542.5,-55 691.5,-55 691.5,-85"/>
<text text-anchor="start" x="550.5" y="-73" font-family="Helvetica,sans-Serif" font-size="10.00">src/enhancements/freecam</text>
<text text-anchor="middle" x="617" y="-62" font-family="Helvetica,sans-Serif" font-size="10.00">/freecam.cpp</text>
</a>
</g>
</g>
<!-- Node5&#45;&gt;Node20 -->
<g id="edge20_Node000005_Node000020" class="edge">
<title>Node5&#45;&gt;Node20</title>
<g id="a_edge20_Node000005_Node000020"><a xlink:title=" ">
<path fill="none" stroke="#63b8ff" d="M2336.84,-121.32C2335.55,-121.21 2334.27,-121.1 2333,-121 1609.26,-64.38 1422.71,-153.55 700,-85 697.24,-84.74 694.42,-84.44 691.59,-84.11"/>
<polygon fill="#63b8ff" stroke="#63b8ff" points="2336.58,-124.81 2346.88,-122.33 2337.28,-117.85 2336.58,-124.81"/>
</a>
</g>
</g>
<!-- Node21 -->
<g id="Node000021" class="node">
<title>Node21</title>
<g id="a_Node000021"><a xlink:href="main_8c.html" target="_top" xlink:title=" ">
<polygon fill="white" stroke="#666666" points="776.5,-79.5 709.5,-79.5 709.5,-60.5 776.5,-60.5 776.5,-79.5"/>
<text text-anchor="middle" x="743" y="-67.5" font-family="Helvetica,sans-Serif" font-size="10.00">src/main.c</text>
</a>
</g>
</g>
<!-- Node5&#45;&gt;Node21 -->
<g id="edge21_Node000005_Node000021" class="edge">
<title>Node5&#45;&gt;Node21</title>
<g id="a_edge21_Node000005_Node000021"><a xlink:title=" ">
<path fill="none" stroke="#63b8ff" d="M2336.84,-121.32C2335.55,-121.21 2334.27,-121.1 2333,-121 1990.19,-93.97 1124.97,-142.84 786,-85 779.03,-83.81 771.65,-81.73 765.01,-79.53"/>
<polygon fill="#63b8ff" stroke="#63b8ff" points="2336.57,-124.81 2346.88,-122.34 2337.28,-117.85 2336.57,-124.81"/>
</a>
</g>
</g>
<!-- Node22 -->
<g id="Node000022" class="node">
<title>Node22</title>
<g id="a_Node000022"><a xlink:href="math__util__2_8c.html" target="_top" xlink:title=" ">
<polygon fill="white" stroke="#666666" points="895,-79.5 795,-79.5 795,-60.5 895,-60.5 895,-79.5"/>
<text text-anchor="middle" x="845" y="-67.5" font-family="Helvetica,sans-Serif" font-size="10.00">src/math_util_2.c</text>
</a>
</g>
</g>
<!-- Node5&#45;&gt;Node22 -->
<g id="edge22_Node000005_Node000022" class="edge">
<title>Node5&#45;&gt;Node22</title>
<g id="a_edge22_Node000005_Node000022"><a xlink:title=" ">
<path fill="none" stroke="#63b8ff" d="M2336.84,-121.33C2335.55,-121.21 2334.27,-121.1 2333,-121 1699.7,-70.45 1534.03,-166.78 904,-85 894.71,-83.79 884.75,-81.73 875.7,-79.56"/>
<polygon fill="#63b8ff" stroke="#63b8ff" points="2336.57,-124.82 2346.87,-122.35 2337.28,-117.85 2336.57,-124.82"/>
</a>
</g>
</g>
<!-- Node23 -->
<g id="Node000023" class="node">
<title>Node23</title>
<g id="a_Node000023"><a xlink:href="menu__items_8c.html" target="_top" xlink:title=" ">
<polygon fill="white" stroke="#666666" points="1016.5,-79.5 913.5,-79.5 913.5,-60.5 1016.5,-60.5 1016.5,-79.5"/>
<text text-anchor="middle" x="965" y="-67.5" font-family="Helvetica,sans-Serif" font-size="10.00">src/menu_items.c</text>
</a>
</g>
</g>
<!-- Node5&#45;&gt;Node23 -->
<g id="edge23_Node000005_Node000023" class="edge">
<title>Node5&#45;&gt;Node23</title>
<g id="a_edge23_Node000005_Node000023"><a xlink:title=" ">
<path fill="none" stroke="#63b8ff" d="M2336.84,-121.33C2335.55,-121.21 2334.27,-121.1 2333,-121 1753.79,-74.08 1602.46,-158.35 1026,-85 1016.41,-83.78 1006.11,-81.72 996.76,-79.54"/>
<polygon fill="#63b8ff" stroke="#63b8ff" points="2336.57,-124.82 2346.87,-122.36 2337.28,-117.86 2336.57,-124.82"/>
</a>
</g>
</g>
<!-- Node24 -->
<g id="Node000024" class="node">
<title>Node24</title>
<g id="a_Node000024"><a xlink:href="Engine_8cpp.html" target="_top" xlink:title=" ">
<polygon fill="white" stroke="#666666" points="1145,-79.5 1035,-79.5 1035,-60.5 1145,-60.5 1145,-79.5"/>
<text text-anchor="middle" x="1090" y="-67.5" font-family="Helvetica,sans-Serif" font-size="10.00">src/port/Engine.cpp</text>
</a>
</g>
</g>
<!-- Node5&#45;&gt;Node24 -->
<g id="edge24_Node000005_Node000024" class="edge">
<title>Node5&#45;&gt;Node24</title>
<g id="a_edge24_Node000005_Node000024"><a xlink:title=" ">
<path fill="none" stroke="#63b8ff" d="M2336.84,-121.34C2335.55,-121.22 2334.27,-121.1 2333,-121 1810.53,-77.89 1674.29,-149.29 1154,-85 1143.95,-83.76 1133.16,-81.69 1123.35,-79.52"/>
<polygon fill="#63b8ff" stroke="#63b8ff" points="2336.57,-124.83 2346.87,-122.37 2337.28,-117.86 2336.57,-124.83"/>
</a>
</g>
</g>
<!-- Node25 -->
<g id="Node000025" class="node">
<title>Node25</title>
<g id="a_Node000025"><a xlink:href="GBIMiddleware_8cpp.html" target="_top" xlink:title=" ">
<polygon fill="white" stroke="#666666" points="1314.5,-79.5 1163.5,-79.5 1163.5,-60.5 1314.5,-60.5 1314.5,-79.5"/>
<text text-anchor="middle" x="1239" y="-67.5" font-family="Helvetica,sans-Serif" font-size="10.00">src/port/GBIMiddleware.cpp</text>
</a>
</g>
</g>
<!-- Node5&#45;&gt;Node25 -->
<g id="edge25_Node000005_Node000025" class="edge">
<title>Node5&#45;&gt;Node25</title>
<g id="a_edge25_Node000005_Node000025"><a xlink:title=" ">
<path fill="none" stroke="#63b8ff" d="M2336.84,-121.35C2335.55,-121.22 2334.27,-121.11 2333,-121 1885.89,-82.95 1770.51,-129.55 1324,-85 1311.05,-83.71 1297.09,-81.68 1284.29,-79.56"/>
<polygon fill="#63b8ff" stroke="#63b8ff" points="2336.56,-124.84 2346.87,-122.4 2337.29,-117.87 2336.56,-124.84"/>
</a>
</g>
</g>
<!-- Node26 -->
<g id="Node000026" class="node">
<title>Node26</title>
<g id="a_Node000026"><a xlink:href="Game_8cpp.html" target="_top" xlink:title=" ">
<polygon fill="white" stroke="#666666" points="1439,-79.5 1333,-79.5 1333,-60.5 1439,-60.5 1439,-79.5"/>
<text text-anchor="middle" x="1386" y="-67.5" font-family="Helvetica,sans-Serif" font-size="10.00">src/port/Game.cpp</text>
</a>
</g>
</g>
<!-- Node5&#45;&gt;Node26 -->
<g id="edge26_Node000005_Node000026" class="edge">
<title>Node5&#45;&gt;Node26</title>
<g id="a_edge26_Node000005_Node000026"><a xlink:title=" ">
<path fill="none" stroke="#63b8ff" d="M2336.84,-121.35C2335.55,-121.23 2334.27,-121.11 2333,-121 1940.84,-86.64 1838.27,-136.57 1448,-85 1438.37,-83.73 1428.04,-81.68 1418.62,-79.53"/>
<polygon fill="#63b8ff" stroke="#63b8ff" points="2336.55,-124.84 2346.87,-122.42 2337.29,-117.88 2336.55,-124.84"/>
</a>
</g>
</g>
<!-- Node27 -->
<g id="Node000027" class="node">
<title>Node27</title>
<g id="a_Node000027"><a xlink:href="GameExtractor_8cpp.html" target="_top" xlink:title=" ">
<polygon fill="white" stroke="#666666" points="1606.5,-79.5 1457.5,-79.5 1457.5,-60.5 1606.5,-60.5 1606.5,-79.5"/>
<text text-anchor="middle" x="1532" y="-67.5" font-family="Helvetica,sans-Serif" font-size="10.00">src/port/GameExtractor.cpp</text>
</a>
</g>
</g>
<!-- Node5&#45;&gt;Node27 -->
<g id="edge27_Node000005_Node000027" class="edge">
<title>Node5&#45;&gt;Node27</title>
<g id="a_edge27_Node000005_Node000027"><a xlink:title=" ">
<path fill="none" stroke="#63b8ff" d="M2336.84,-121.37C2335.55,-121.24 2334.27,-121.12 2333,-121 2014.84,-91.61 1932.63,-119.63 1615,-85 1602.51,-83.64 1589.04,-81.61 1576.66,-79.52"/>
<polygon fill="#63b8ff" stroke="#63b8ff" points="2336.54,-124.86 2346.86,-122.46 2337.3,-117.9 2336.54,-124.86"/>
</a>
</g>
</g>
<!-- Node5&#45;&gt;Node28 -->
<g id="edge28_Node000005_Node000028" class="edge">
<title>Node5&#45;&gt;Node28</title>
<g id="a_edge28_Node000005_Node000028"><a xlink:title=" ">
<path fill="none" stroke="#63b8ff" d="M2455.73,-128.8C2776.75,-124.97 4290.4,-105.94 4498,-85 4510.03,-83.79 4523,-81.72 4534.81,-79.55"/>
<polygon fill="#63b8ff" stroke="#63b8ff" points="2455.21,-125.31 2445.26,-128.93 2455.3,-132.31 2455.21,-125.31"/>
</a>
</g>
</g>
<!-- Node29 -->
<g id="Node000029" class="node">
<title>Node29</title>
<g id="a_Node000029"><a xlink:href="FrameInterpolation_8cpp.html" target="_top" xlink:title=" ">
<polygon fill="white" stroke="#666666" points="1757.5,-85 1624.5,-85 1624.5,-55 1757.5,-55 1757.5,-85"/>
<text text-anchor="start" x="1632.5" y="-73" font-family="Helvetica,sans-Serif" font-size="10.00">src/port/interpolation</text>
<text text-anchor="middle" x="1691" y="-62" font-family="Helvetica,sans-Serif" font-size="10.00">/FrameInterpolation.cpp</text>
</a>
</g>
</g>
<!-- Node5&#45;&gt;Node29 -->
<g id="edge29_Node000005_Node000029" class="edge">
<title>Node5&#45;&gt;Node29</title>
<g id="a_edge29_Node000005_Node000029"><a xlink:title=" ">
<path fill="none" stroke="#63b8ff" d="M2336.84,-121.39C2335.55,-121.26 2334.27,-121.13 2333,-121 2081.72,-96.1 2016.57,-116.22 1766,-85 1763.24,-84.66 1760.43,-84.27 1757.59,-83.86"/>
<polygon fill="#63b8ff" stroke="#63b8ff" points="2336.53,-124.88 2346.86,-122.53 2337.32,-117.93 2336.53,-124.88"/>
</a>
</g>
</g>
<!-- Node30 -->
<g id="Node000030" class="node">
<title>Node30</title>
<g id="a_Node000030"><a xlink:href="AudioSequenceFactory_8cpp.html" target="_top" xlink:title=" ">
<polygon fill="white" stroke="#666666" points="1924.5,-85 1775.5,-85 1775.5,-55 1924.5,-55 1924.5,-85"/>
<text text-anchor="start" x="1783.5" y="-73" font-family="Helvetica,sans-Serif" font-size="10.00">src/port/resource/importers</text>
<text text-anchor="middle" x="1850" y="-62" font-family="Helvetica,sans-Serif" font-size="10.00">/AudioSequenceFactory.cpp</text>
</a>
</g>
</g>
<!-- Node5&#45;&gt;Node30 -->
<g id="edge30_Node000005_Node000030" class="edge">
<title>Node5&#45;&gt;Node30</title>
<g id="a_edge30_Node000005_Node000030"><a xlink:title=" ">
<path fill="none" stroke="#63b8ff" d="M2336.83,-121.44C2335.54,-121.29 2334.26,-121.14 2333,-121 2157.83,-101.21 2112.92,-106.86 1938,-85 1933.7,-84.46 1929.29,-83.88 1924.84,-83.26"/>
<polygon fill="#63b8ff" stroke="#63b8ff" points="2336.5,-124.93 2346.84,-122.66 2337.34,-117.98 2336.5,-124.93"/>
</a>
</g>
</g>
<!-- Node31 -->
<g id="Node000031" class="node">
<title>Node31</title>
<g id="a_Node000031"><a xlink:href="ContentBrowser_8cpp.html" target="_top" xlink:title=" ">
<polygon fill="white" stroke="#666666" points="2365,-19 2199,-19 2199,0 2365,0 2365,-19"/>
<text text-anchor="middle" x="2282" y="-7" font-family="Helvetica,sans-Serif" font-size="10.00">src/port/ui/ContentBrowser.cpp</text>
</a>
</g>
</g>
<!-- Node5&#45;&gt;Node31 -->
<g id="edge31_Node000005_Node000031" class="edge">
<title>Node5&#45;&gt;Node31</title>
<g id="a_edge31_Node000005_Node000031"><a xlink:title=" ">
<path fill="none" stroke="#63b8ff" d="M2336.83,-121.46C2335.54,-121.3 2334.26,-121.15 2333,-121 2293.41,-116.33 2002.74,-114.57 1976,-85 1967.06,-75.11 1967.28,-65.08 1976,-55 2004.32,-22.27 2118.37,-13.11 2198.91,-10.82"/>
<polygon fill="#63b8ff" stroke="#63b8ff" points="2336.48,-124.94 2346.84,-122.7 2337.35,-118 2336.48,-124.94"/>
</a>
</g>
</g>
<!-- Node32 -->
<g id="Node000032" class="node">
<title>Node32</title>
<g id="a_Node000032"><a xlink:href="ImguiUI_8cpp.html" target="_top" xlink:title=" ">
<polygon fill="white" stroke="#666666" points="3458.5,-19 3331.5,-19 3331.5,0 3458.5,0 3458.5,-19"/>
<text text-anchor="middle" x="3395" y="-7" font-family="Helvetica,sans-Serif" font-size="10.00">src/port/ui/ImguiUI.cpp</text>
</a>
</g>
</g>
<!-- Node5&#45;&gt;Node32 -->
<g id="edge32_Node000005_Node000032" class="edge">
<title>Node5&#45;&gt;Node32</title>
<g id="a_edge32_Node000005_Node000032"><a xlink:title=" ">
<path fill="none" stroke="#63b8ff" d="M2336.83,-121.48C2335.54,-121.32 2334.26,-121.16 2333,-121 2189.32,-103.2 1913.29,-159.01 2014,-55 2060.33,-7.15 3065.96,-8.83 3331.29,-10.12"/>
<polygon fill="#63b8ff" stroke="#63b8ff" points="2336.47,-124.96 2346.83,-122.76 2337.36,-118.02 2336.47,-124.96"/>
</a>
</g>
</g>
<!-- Node33 -->
<g id="Node000033" class="node">
<title>Node33</title>
<g id="a_Node000033"><a xlink:href="Menu_8cpp.html" target="_top" xlink:title=" ">
<polygon fill="white" stroke="#666666" points="4777,-79.5 4661,-79.5 4661,-60.5 4777,-60.5 4777,-79.5"/>
<text text-anchor="middle" x="4719" y="-67.5" font-family="Helvetica,sans-Serif" font-size="10.00">src/port/ui/Menu.cpp</text>
</a>
</g>
</g>
<!-- Node5&#45;&gt;Node33 -->
<g id="edge33_Node000005_Node000033" class="edge">
<title>Node5&#45;&gt;Node33</title>
<g id="a_edge33_Node000005_Node000033"><a xlink:title=" ">
<path fill="none" stroke="#63b8ff" d="M2455.76,-128.99C2790.78,-126.02 4428.54,-110.33 4652,-85 4662.63,-83.8 4674.06,-81.71 4684.43,-79.51"/>
<polygon fill="#63b8ff" stroke="#63b8ff" points="2455.28,-125.49 2445.31,-129.08 2455.34,-132.49 2455.28,-125.49"/>
</a>
</g>
</g>
<!-- Node34 -->
<g id="Node000034" class="node">
<title>Node34</title>
<g id="a_Node000034"><a xlink:href="ResolutionEditor_8cpp.html" target="_top" xlink:title=" ">
<polygon fill="white" stroke="#666666" points="4119,-19 3951,-19 3951,0 4119,0 4119,-19"/>
<text text-anchor="middle" x="4035" y="-7" font-family="Helvetica,sans-Serif" font-size="10.00">src/port/ui/ResolutionEditor.cpp</text>
</a>
</g>
</g>
<!-- Node5&#45;&gt;Node34 -->
<g id="edge34_Node000005_Node000034" class="edge">
<title>Node5&#45;&gt;Node34</title>
<g id="a_edge34_Node000005_Node000034"><a xlink:title=" ">
<path fill="none" stroke="#63b8ff" d="M2336.82,-121.5C2335.54,-121.33 2334.26,-121.16 2333,-121 2203.64,-104.13 1955.79,-148.27 2047,-55 2055.45,-46.35 3573.71,-18.72 3950.92,-11.99"/>
<polygon fill="#63b8ff" stroke="#63b8ff" points="2336.45,-124.98 2346.82,-122.82 2337.37,-118.04 2336.45,-124.98"/>
</a>
</g>
</g>
<!-- Node35 -->
<g id="Node000035" class="node">
<title>Node35</title>
<g id="a_Node000035"><a xlink:href="collision_8c.html" target="_top" xlink:title=" ">
<polygon fill="white" stroke="#666666" points="2172,-79.5 2056,-79.5 2056,-60.5 2172,-60.5 2172,-79.5"/>
<text text-anchor="middle" x="2114" y="-67.5" font-family="Helvetica,sans-Serif" font-size="10.00">src/racing/collision.c</text>
</a>
</g>
</g>
<!-- Node5&#45;&gt;Node35 -->
<g id="edge35_Node000005_Node000035" class="edge">
<title>Node5&#45;&gt;Node35</title>
<g id="a_edge35_Node000005_Node000035"><a xlink:title=" ">
<path fill="none" stroke="#63b8ff" d="M2344.71,-118.91C2301.15,-109.91 2236.97,-96.64 2181,-85 2172.51,-83.23 2163.41,-81.34 2154.74,-79.53"/>
<polygon fill="#63b8ff" stroke="#63b8ff" points="2344.28,-122.4 2354.78,-120.99 2345.69,-115.54 2344.28,-122.4"/>
</a>
</g>
</g>
<!-- Node36 -->
<g id="Node000036" class="node">
<title>Node36</title>
<g id="a_Node000036"><a xlink:href="framebuffer__effects_8c.html" target="_top" xlink:title=" ">
<polygon fill="white" stroke="#666666" points="2315.5,-85 2190.5,-85 2190.5,-55 2315.5,-55 2315.5,-85"/>
<text text-anchor="start" x="2198.5" y="-73" font-family="Helvetica,sans-Serif" font-size="10.00">src/racing/framebuffer</text>
<text text-anchor="middle" x="2253" y="-62" font-family="Helvetica,sans-Serif" font-size="10.00">_effects.c</text>
</a>
</g>
</g>
<!-- Node5&#45;&gt;Node36 -->
<g id="edge36_Node000005_Node000036" class="edge">
<title>Node5&#45;&gt;Node36</title>
<g id="a_edge36_Node000005_Node000036"><a xlink:title=" ">
<path fill="none" stroke="#63b8ff" d="M2365.95,-117.21C2343,-107.82 2311.34,-94.87 2287.38,-85.06"/>
<polygon fill="#63b8ff" stroke="#63b8ff" points="2364.63,-120.45 2375.21,-120.99 2367.28,-113.97 2364.63,-120.45"/>
</a>
</g>
</g>
<!-- Node37 -->
<g id="Node000037" class="node">
<title>Node37</title>
<g id="a_Node000037"><a xlink:href="skybox__and__splitscreen_8c.html" target="_top" xlink:title=" ">
<polygon fill="white" stroke="#666666" points="2458.5,-85 2333.5,-85 2333.5,-55 2458.5,-55 2458.5,-85"/>
<text text-anchor="start" x="2341.5" y="-73" font-family="Helvetica,sans-Serif" font-size="10.00">src/racing/skybox_and</text>
<text text-anchor="middle" x="2396" y="-62" font-family="Helvetica,sans-Serif" font-size="10.00">_splitscreen.c</text>
</a>
</g>
</g>
<!-- Node5&#45;&gt;Node37 -->
<g id="edge37_Node000005_Node000037" class="edge">
<title>Node5&#45;&gt;Node37</title>
<g id="a_edge37_Node000005_Node000037"><a xlink:title=" ">
<path fill="none" stroke="#63b8ff" d="M2396,-110.65C2396,-102.36 2396,-92.78 2396,-85.11"/>
<polygon fill="#63b8ff" stroke="#63b8ff" points="2392.5,-110.87 2396,-120.87 2399.5,-110.87 2392.5,-110.87"/>
</a>
</g>
</g>
<!-- Node38 -->
<g id="Node000038" class="node">
<title>Node38</title>
<g id="a_Node000038"><a xlink:href="render__objects_8c.html" target="_top" xlink:title=" ">
<polygon fill="white" stroke="#666666" points="2591,-79.5 2477,-79.5 2477,-60.5 2591,-60.5 2591,-79.5"/>
<text text-anchor="middle" x="2534" y="-67.5" font-family="Helvetica,sans-Serif" font-size="10.00">src/render_objects.c</text>
</a>
</g>
</g>
<!-- Node5&#45;&gt;Node38 -->
<g id="edge38_Node000005_Node000038" class="edge">
<title>Node5&#45;&gt;Node38</title>
<g id="a_edge38_Node000005_Node000038"><a xlink:title=" ">
<path fill="none" stroke="#63b8ff" d="M2425.29,-117.08C2451.95,-105.78 2490.6,-89.4 2513.91,-79.52"/>
<polygon fill="#63b8ff" stroke="#63b8ff" points="2423.91,-113.87 2416.07,-120.99 2426.64,-120.31 2423.91,-113.87"/>
</a>
</g>
</g>
<!-- Node39 -->
<g id="Node000039" class="node">
<title>Node39</title>
<g id="a_Node000039"><a xlink:href="render__player_8c.html" target="_top" xlink:title=" ">
<polygon fill="white" stroke="#666666" points="2718.5,-79.5 2609.5,-79.5 2609.5,-60.5 2718.5,-60.5 2718.5,-79.5"/>
<text text-anchor="middle" x="2664" y="-67.5" font-family="Helvetica,sans-Serif" font-size="10.00">src/render_player.c</text>
</a>
</g>
</g>
<!-- Node5&#45;&gt;Node39 -->
<g id="edge39_Node000005_Node000039" class="edge">
<title>Node5&#45;&gt;Node39</title>
<g id="a_edge39_Node000005_Node000039"><a xlink:title=" ">
<path fill="none" stroke="#63b8ff" d="M2444.92,-118.84C2486.25,-109.83 2547,-96.58 2600,-85 2608.11,-83.23 2616.8,-81.33 2625.08,-79.52"/>
<polygon fill="#63b8ff" stroke="#63b8ff" points="2444.13,-115.43 2435.11,-120.98 2445.63,-122.27 2444.13,-115.43"/>
</a>
</g>
</g>
<!-- Node40&#45;&gt;Node33 -->
<g id="edge42_Node000040_Node000033" class="edge">
<title>Node40&#45;&gt;Node33</title>
<g id="a_edge42_Node000040_Node000033"><a xlink:title=" ">
<path fill="none" stroke="#63b8ff" d="M4223.2,-121.05C4414.91,-100.42 4465.9,-112.15 4652,-85 4661.88,-83.56 4672.49,-81.56 4682.28,-79.52"/>
<polygon fill="#63b8ff" stroke="#63b8ff" points="4222.63,-117.59 4213.07,-122.16 4223.39,-124.55 4222.63,-117.59"/>
</a>
</g>
</g>
<!-- Node41 -->
<g id="Node000041" class="node">
<title>Node41</title>
<g id="a_Node000041"><a xlink:href="PortMenu_8h.html" target="_top" xlink:title=" ">
<polygon fill="white" stroke="#666666" points="4919,-79.5 4795,-79.5 4795,-60.5 4919,-60.5 4919,-79.5"/>
<text text-anchor="middle" x="4857" y="-67.5" font-family="Helvetica,sans-Serif" font-size="10.00">src/port/ui/PortMenu.h</text>
</a>
</g>
</g>
<!-- Node40&#45;&gt;Node41 -->
<g id="edge43_Node000040_Node000041" class="edge">
<title>Node40&#45;&gt;Node41</title>
<g id="a_edge43_Node000040_Node000041"><a xlink:title=" ">
<path fill="none" stroke="#63b8ff" d="M4223.22,-121.08C4474.22,-96.51 4540.64,-116.9 4786,-85 4796.59,-83.62 4807.98,-81.62 4818.46,-79.55"/>
<polygon fill="#63b8ff" stroke="#63b8ff" points="4222.67,-117.61 4213.06,-122.08 4223.36,-124.58 4222.67,-117.61"/>
</a>
</g>
</g>
<!-- Node41&#45;&gt;Node31 -->
<g id="edge44_Node000041_Node000031" class="edge">
<title>Node41&#45;&gt;Node31</title>
<g id="a_edge44_Node000041_Node000031"><a xlink:title=" ">
<path fill="none" stroke="#63b8ff" d="M4810.31,-58.58C4802.24,-57.12 4793.91,-55.84 4786,-55 4541.32,-28.91 2771.38,-14.17 2365.01,-11.1"/>
<polygon fill="#63b8ff" stroke="#63b8ff" points="4809.86,-62.05 4820.34,-60.49 4811.17,-55.18 4809.86,-62.05"/>
</a>
</g>
</g>
<!-- Node41&#45;&gt;Node32 -->
<g id="edge46_Node000041_Node000032" class="edge">
<title>Node41&#45;&gt;Node32</title>
<g id="a_edge46_Node000041_Node000032"><a xlink:title=" ">
<path fill="none" stroke="#63b8ff" d="M4809.76,-58.57C4801.86,-57.15 4793.72,-55.88 4786,-55 4653.44,-39.91 3714.15,-17.73 3458.89,-11.93"/>
<polygon fill="#63b8ff" stroke="#63b8ff" points="4809.12,-62.01 4819.59,-60.44 4810.42,-55.14 4809.12,-62.01"/>
</a>
</g>
</g>
<!-- Node41&#45;&gt;Node34 -->
<g id="edge49_Node000041_Node000034" class="edge">
<title>Node41&#45;&gt;Node34</title>
<g id="a_edge49_Node000041_Node000034"><a xlink:title=" ">
<path fill="none" stroke="#63b8ff" d="M4808.94,-58.61C4801.3,-57.22 4793.45,-55.95 4786,-55 4545.34,-24.29 4258.54,-14.72 4119.25,-11.78"/>
<polygon fill="#63b8ff" stroke="#63b8ff" points="4808.36,-62.06 4818.83,-60.49 4809.66,-55.18 4808.36,-62.06"/>
</a>
</g>
</g>
<!-- Node42 -->
<g id="Node000042" class="node">
<title>Node42</title>
<g id="a_Node000042"><a xlink:href="FreecamWindow_8cpp.html" target="_top" xlink:title=" ">
<polygon fill="white" stroke="#666666" points="5033.5,-19 4864.5,-19 4864.5,0 5033.5,0 5033.5,-19"/>
<text text-anchor="middle" x="4949" y="-7" font-family="Helvetica,sans-Serif" font-size="10.00">src/port/ui/FreecamWindow.cpp</text>
</a>
</g>
</g>
<!-- Node41&#45;&gt;Node42 -->
<g id="edge45_Node000041_Node000042" class="edge">
<title>Node41&#45;&gt;Node42</title>
<g id="a_edge45_Node000041_Node000042"><a xlink:title=" ">
<path fill="none" stroke="#63b8ff" d="M4879.07,-54.97C4896.59,-43.82 4920.53,-28.6 4935.37,-19.17"/>
<polygon fill="#63b8ff" stroke="#63b8ff" points="4877.14,-52.05 4870.57,-60.37 4880.89,-57.96 4877.14,-52.05"/>
</a>
</g>
</g>
<!-- Node43 -->
<g id="Node000043" class="node">
<title>Node43</title>
<g id="a_Node000043"><a xlink:href="PortMenu_8cpp.html" target="_top" xlink:title=" ">
<polygon fill="white" stroke="#666666" points="5186.5,-19 5051.5,-19 5051.5,0 5186.5,0 5186.5,-19"/>
<text text-anchor="middle" x="5119" y="-7" font-family="Helvetica,sans-Serif" font-size="10.00">src/port/ui/PortMenu.cpp</text>
</a>
</g>
</g>
<!-- Node41&#45;&gt;Node43 -->
<g id="edge47_Node000041_Node000043" class="edge">
<title>Node41&#45;&gt;Node43</title>
<g id="a_edge47_Node000041_Node000043"><a xlink:title=" ">
<path fill="none" stroke="#63b8ff" d="M4905.14,-58.25C4955.75,-46.95 5034.36,-29.4 5080.86,-19.02"/>
<polygon fill="#63b8ff" stroke="#63b8ff" points="4904.09,-54.9 4895.1,-60.49 4905.62,-61.73 4904.09,-54.9"/>
</a>
</g>
</g>
<!-- Node44 -->
<g id="Node000044" class="node">
<title>Node44</title>
<g id="a_Node000044"><a xlink:href="Properties_8cpp.html" target="_top" xlink:title=" ">
<polygon fill="white" stroke="#666666" points="5343,-19 5205,-19 5205,0 5343,0 5343,-19"/>
<text text-anchor="middle" x="5274" y="-7" font-family="Helvetica,sans-Serif" font-size="10.00">src/port/ui/Properties.cpp</text>
</a>
</g>
</g>
<!-- Node41&#45;&gt;Node44 -->
<g id="edge48_Node000041_Node000044" class="edge">
<title>Node41&#45;&gt;Node44</title>
<g id="a_edge48_Node000041_Node000044"><a xlink:title=" ">
<path fill="none" stroke="#63b8ff" d="M4927.65,-59.09C5007.88,-47.83 5137.44,-29.66 5213.29,-19.02"/>
<polygon fill="#63b8ff" stroke="#63b8ff" points="4927.05,-55.64 4917.64,-60.49 4928.02,-62.57 4927.05,-55.64"/>
</a>
</g>
</g>
<!-- Node45 -->
<g id="Node000045" class="node">
<title>Node45</title>
<g id="a_Node000045"><a xlink:href="SceneExplorer_8cpp.html" target="_top" xlink:title=" ">
<polygon fill="white" stroke="#666666" points="4532,-19 4374,-19 4374,0 4532,0 4532,-19"/>
<text text-anchor="middle" x="4453" y="-7" font-family="Helvetica,sans-Serif" font-size="10.00">src/port/ui/SceneExplorer.cpp</text>
</a>
</g>
</g>
<!-- Node41&#45;&gt;Node45 -->
<g id="edge50_Node000041_Node000045" class="edge">
<title>Node41&#45;&gt;Node45</title>
<g id="a_edge50_Node000041_Node000045"><a xlink:title=" ">
<path fill="none" stroke="#63b8ff" d="M4806.29,-58.61C4799.48,-57.33 4792.58,-56.09 4786,-55 4697.09,-40.31 4594.21,-27.14 4526.6,-19.01"/>
<polygon fill="#63b8ff" stroke="#63b8ff" points="4805.67,-62.05 4816.15,-60.5 4806.99,-55.18 4805.67,-62.05"/>
</a>
</g>
</g>
<!-- Node46 -->
<g id="Node000046" class="node">
<title>Node46</title>
<g id="a_Node000046"><a xlink:href="Tools_8cpp.html" target="_top" xlink:title=" ">
<polygon fill="white" stroke="#666666" points="4663.5,-19 4550.5,-19 4550.5,0 4663.5,0 4663.5,-19"/>
<text text-anchor="middle" x="4607" y="-7" font-family="Helvetica,sans-Serif" font-size="10.00">src/port/ui/Tools.cpp</text>
</a>
</g>
</g>
<!-- Node41&#45;&gt;Node46 -->
<g id="edge51_Node000041_Node000046" class="edge">
<title>Node41&#45;&gt;Node46</title>
<g id="a_edge51_Node000041_Node000046"><a xlink:title=" ">
<path fill="none" stroke="#63b8ff" d="M4810.76,-58.18C4762.46,-46.88 4687.67,-29.38 4643.4,-19.02"/>
<polygon fill="#63b8ff" stroke="#63b8ff" points="4810.11,-61.62 4820.65,-60.49 4811.71,-54.81 4810.11,-61.62"/>
</a>
</g>
</g>
<!-- Node47 -->
<g id="Node000047" class="node">
<title>Node47</title>
<g id="a_Node000047"><a xlink:href="TrackProperties_8cpp.html" target="_top" xlink:title=" ">
<polygon fill="white" stroke="#666666" points="4846,-19 4682,-19 4682,0 4846,0 4846,-19"/>
<text text-anchor="middle" x="4764" y="-7" font-family="Helvetica,sans-Serif" font-size="10.00">src/port/ui/TrackProperties.cpp</text>
</a>
</g>
</g>
<!-- Node41&#45;&gt;Node47 -->
<g id="edge52_Node000041_Node000047" class="edge">
<title>Node41&#45;&gt;Node47</title>
<g id="a_edge52_Node000041_Node000047"><a xlink:title=" ">
<path fill="none" stroke="#63b8ff" d="M4834.69,-54.97C4816.98,-43.82 4792.78,-28.6 4777.78,-19.17"/>
<polygon fill="#63b8ff" stroke="#63b8ff" points="4832.95,-58.01 4843.28,-60.37 4836.68,-52.08 4832.95,-58.01"/>
</a>
</g>
</g>
</g>
</svg>

<g id="navigator" transform="translate(0 0)" fill="#404254">
  <rect fill="#f2f5e9" fill-opacity="0.5" stroke="#606060" stroke-width=".5" x="0" y="0" width="60" height="60"/>
  <use id="zoomplus" xlink:href="#zoomPlus" x="17" y="9" onmousedown="handleZoom(evt,'in')"/>
  <use id="zoomminus" xlink:href="#zoomMin" x="42" y="9" onmousedown="handleZoom(evt,'out')"/>
  <use id="reset" xlink:href="#resetDef" x="30" y="36" onmousedown="handleReset()"/>
   <use id="arrowup" xlink:href="#arrowUp" x="0" y="0" onmousedown="handlePan(0,-1)"/>
  <use id="arrowright" xlink:href="#arrowRight" x="0" y="0" onmousedown="handlePan(1,0)"/>
  <use id="arrowdown" xlink:href="#arrowDown" x="0" y="0" onmousedown="handlePan(0,1)"/>
  <use id="arrowleft" xlink:href="#arrowLeft" x="0" y="0" onmousedown="handlePan(-1,0)"/>
</g>
<svg viewBox="0 0 15 15" width="100%" height="30px" preserveAspectRatio="xMaxYMin meet">
 <g id="arrow_out" transform="scale(0.3 0.3)">
  <a xlink:href="HMAS_8h__dep__incl_org.svg" target="_base">
   <rect id="button" ry="5" rx="5" y="6" x="6" height="38" width="38"
        fill="#f2f5e9" fill-opacity="0.5" stroke="#606060" stroke-width="1.0"/>
   <path id="arrow"
     d="M 11.500037,31.436501 C 11.940474,20.09759 22.043105,11.32322 32.158766,21.979434 L 37.068811,17.246167 C 37.068811,17.246167 37.088388,32 37.088388,32 L 22.160133,31.978069 C 22.160133,31.978069 26.997745,27.140456 26.997745,27.140456 C 18.528582,18.264221 13.291696,25.230495 11.500037,31.436501 z"
     style="fill:#404040;"/>
  </a>
 </g>
</svg>

<style type='text/css'>
<![CDATA[
[data-mouse-over-selected='false'] { opacity: 0.7; }
[data-mouse-over-selected='true']  { opacity: 1.0; }
]]>
</style>
<script type="application/ecmascript"><![CDATA[
document.addEventListener('DOMContentLoaded', (event) => {
  highlightEdges();
  highlightAdjacentNodes();
});
]]></script>
</svg>
