<?xml version="1.0" encoding="UTF-8" standalone="no"?>
<!DOCTYPE svg PUBLIC "-//W3C//DTD SVG 1.1//EN"
 "http://www.w3.org/Graphics/SVG/1.1/DTD/svg11.dtd">
<!-- Generated by graphviz version 2.43.0 (0)
 -->
<!-- Title: include/assets/models/tracks/koopa_troopa_beach/koopa_troopa_beach_vertices.h Pages: 1 -->
<svg width="414pt" height="247pt"
 viewBox="0.00 0.00 414.00 247.00" xmlns="http://www.w3.org/2000/svg" xmlns:xlink="http://www.w3.org/1999/xlink">
<g id="graph0" class="graph" transform="scale(1 1) rotate(0) translate(4 243)">
<title>include/assets/models/tracks/koopa_troopa_beach/koopa_troopa_beach_vertices.h</title>
<!-- Node1 -->
<g id="Node000001" class="node">
<title>Node1</title>
<g id="a_Node000001"><a xlink:title=" ">
<polygon fill="#999999" stroke="#666666" points="243,-239 88,-239 88,-187 243,-187 243,-239"/>
<text text-anchor="start" x="96" y="-227" font-family="Helvetica,sans-Serif" font-size="10.00">include/assets/models</text>
<text text-anchor="start" x="96" y="-216" font-family="Helvetica,sans-Serif" font-size="10.00">/tracks/koopa_troopa</text>
<text text-anchor="start" x="96" y="-205" font-family="Helvetica,sans-Serif" font-size="10.00">_beach/koopa_troopa_beach</text>
<text text-anchor="middle" x="165.5" y="-194" font-family="Helvetica,sans-Serif" font-size="10.00">_vertices.h</text>
</a>
</g>
</g>
<!-- Node2 -->
<g id="Node000002" class="node">
<title>Node2</title>
<g id="a_Node000002"><a xlink:href="all__course__model_8h.html" target="_top" xlink:title=" ">
<polygon fill="white" stroke="#666666" points="142,-151 35,-151 35,-121 142,-121 142,-151"/>
<text text-anchor="start" x="43" y="-139" font-family="Helvetica,sans-Serif" font-size="10.00">courses/all_course</text>
<text text-anchor="middle" x="88.5" y="-128" font-family="Helvetica,sans-Serif" font-size="10.00">_model.h</text>
</a>
</g>
</g>
<!-- Node1&#45;&gt;Node2 -->
<g id="edge1_Node000001_Node000002" class="edge">
<title>Node1&#45;&gt;Node2</title>
<g id="a_edge1_Node000001_Node000002"><a xlink:title=" ">
<path fill="none" stroke="#63b8ff" d="M132.21,-179.57C122.11,-169.74 111.53,-159.44 103.31,-151.43"/>
<polygon fill="#63b8ff" stroke="#63b8ff" points="129.83,-182.14 139.43,-186.61 134.71,-177.12 129.83,-182.14"/>
</a>
</g>
</g>
<!-- Node3 -->
<g id="Node000003" class="node">
<title>Node3</title>
<g id="a_Node000003"><a xlink:href="KoopaTroopaBeach_8h.html" target="_top" xlink:title=" ">
<polygon fill="white" stroke="#666666" points="325,-151 160,-151 160,-121 325,-121 325,-151"/>
<text text-anchor="start" x="168" y="-139" font-family="Helvetica,sans-Serif" font-size="10.00">src/engine/tracks/KoopaTroopa</text>
<text text-anchor="middle" x="242.5" y="-128" font-family="Helvetica,sans-Serif" font-size="10.00">Beach.h</text>
</a>
</g>
</g>
<!-- Node1&#45;&gt;Node3 -->
<g id="edge2_Node000001_Node000003" class="edge">
<title>Node1&#45;&gt;Node3</title>
<g id="a_edge2_Node000001_Node000003"><a xlink:title=" ">
<path fill="none" stroke="#63b8ff" d="M198.79,-179.57C208.89,-169.74 219.47,-159.44 227.69,-151.43"/>
<polygon fill="#63b8ff" stroke="#63b8ff" points="196.29,-177.12 191.57,-186.61 201.17,-182.14 196.29,-177.12"/>
</a>
</g>
</g>
<!-- Node4 -->
<g id="Node000004" class="node">
<title>Node4</title>
<g id="a_Node000004"><a xlink:href="AllTracks_8h.html" target="_top" xlink:title=" ">
<polygon fill="white" stroke="#666666" points="222.5,-79.5 100.5,-79.5 100.5,-60.5 222.5,-60.5 222.5,-79.5"/>
<text text-anchor="middle" x="161.5" y="-67.5" font-family="Helvetica,sans-Serif" font-size="10.00">src/engine/AllTracks.h</text>
</a>
</g>
</g>
<!-- Node3&#45;&gt;Node4 -->
<g id="edge3_Node000003_Node000004" class="edge">
<title>Node3&#45;&gt;Node4</title>
<g id="a_edge3_Node000003_Node000004"><a xlink:title=" ">
<path fill="none" stroke="#63b8ff" d="M216.66,-114.58C201.84,-102.87 183.99,-88.77 172.69,-79.84"/>
<polygon fill="#63b8ff" stroke="#63b8ff" points="214.51,-117.34 224.52,-120.8 218.85,-111.85 214.51,-117.34"/>
</a>
</g>
</g>
<!-- Node7 -->
<g id="Node000007" class="node">
<title>Node7</title>
<g id="a_Node000007"><a xlink:href="KoopaTroopaBeach_8cpp.html" target="_top" xlink:title=" ">
<polygon fill="white" stroke="#666666" points="406,-85 241,-85 241,-55 406,-55 406,-85"/>
<text text-anchor="start" x="249" y="-73" font-family="Helvetica,sans-Serif" font-size="10.00">src/engine/tracks/KoopaTroopa</text>
<text text-anchor="middle" x="323.5" y="-62" font-family="Helvetica,sans-Serif" font-size="10.00">Beach.cpp</text>
</a>
</g>
</g>
<!-- Node3&#45;&gt;Node7 -->
<g id="edge6_Node000003_Node000007" class="edge">
<title>Node3&#45;&gt;Node7</title>
<g id="a_edge6_Node000003_Node000007"><a xlink:title=" ">
<path fill="none" stroke="#63b8ff" d="M268.47,-114.48C280.58,-104.91 294.68,-93.77 305.57,-85.16"/>
<polygon fill="#63b8ff" stroke="#63b8ff" points="266.15,-111.85 260.48,-120.8 270.49,-117.34 266.15,-111.85"/>
</a>
</g>
</g>
<!-- Node5 -->
<g id="Node000005" class="node">
<title>Node5</title>
<g id="a_Node000005"><a xlink:href="RegisterContent_8cpp.html" target="_top" xlink:title=" ">
<polygon fill="white" stroke="#666666" points="169,-19 0,-19 0,0 169,0 169,-19"/>
<text text-anchor="middle" x="84.5" y="-7" font-family="Helvetica,sans-Serif" font-size="10.00">src/engine/RegisterContent.cpp</text>
</a>
</g>
</g>
<!-- Node4&#45;&gt;Node5 -->
<g id="edge4_Node000004_Node000005" class="edge">
<title>Node4&#45;&gt;Node5</title>
<g id="a_edge4_Node000004_Node000005"><a xlink:title=" ">
<path fill="none" stroke="#63b8ff" d="M141.81,-54.04C127.27,-42.99 107.98,-28.34 95.91,-19.17"/>
<polygon fill="#63b8ff" stroke="#63b8ff" points="140.06,-57.11 150.14,-60.37 144.29,-51.53 140.06,-57.11"/>
</a>
</g>
</g>
<!-- Node6 -->
<g id="Node000006" class="node">
<title>Node6</title>
<g id="a_Node000006"><a xlink:href="Game_8cpp.html" target="_top" xlink:title=" ">
<polygon fill="white" stroke="#666666" points="292.5,-19 186.5,-19 186.5,0 292.5,0 292.5,-19"/>
<text text-anchor="middle" x="239.5" y="-7" font-family="Helvetica,sans-Serif" font-size="10.00">src/port/Game.cpp</text>
</a>
</g>
</g>
<!-- Node4&#45;&gt;Node6 -->
<g id="edge5_Node000004_Node000006" class="edge">
<title>Node4&#45;&gt;Node6</title>
<g id="a_edge5_Node000004_Node000006"><a xlink:title=" ">
<path fill="none" stroke="#63b8ff" d="M181.04,-54.35C195.81,-43.27 215.6,-28.43 227.94,-19.17"/>
<polygon fill="#63b8ff" stroke="#63b8ff" points="178.91,-51.57 173.01,-60.37 183.11,-57.17 178.91,-51.57"/>
</a>
</g>
</g>
</g>
</svg>
