<?xml version="1.0" encoding="UTF-8" standalone="no"?>
<!DOCTYPE svg PUBLIC "-//W3C//DTD SVG 1.1//EN"
 "http://www.w3.org/Graphics/SVG/1.1/DTD/svg11.dtd">
<!-- Generated by graphviz version 2.43.0 (0)
 -->
<!-- Title: include/assets/models/tracks/luigi_raceway/luigi_raceway_displaylists.h Pages: 1 -->
<svg width="783pt" height="280pt"
 viewBox="0.00 0.00 782.50 280.00" xmlns="http://www.w3.org/2000/svg" xmlns:xlink="http://www.w3.org/1999/xlink">
<g id="graph0" class="graph" transform="scale(1 1) rotate(0) translate(4 276)">
<title>include/assets/models/tracks/luigi_raceway/luigi_raceway_displaylists.h</title>
<!-- Node1 -->
<g id="Node000001" class="node">
<title>Node1</title>
<g id="a_Node000001"><a xlink:title=" ">
<polygon fill="#999999" stroke="#666666" points="459,-272 302,-272 302,-231 459,-231 459,-272"/>
<text text-anchor="start" x="310" y="-260" font-family="Helvetica,sans-Serif" font-size="10.00">include/assets/models</text>
<text text-anchor="start" x="310" y="-249" font-family="Helvetica,sans-Serif" font-size="10.00">/tracks/luigi_raceway</text>
<text text-anchor="middle" x="380.5" y="-238" font-family="Helvetica,sans-Serif" font-size="10.00">/luigi_raceway_displaylists.h</text>
</a>
</g>
</g>
<!-- Node2 -->
<g id="Node000002" class="node">
<title>Node2</title>
<g id="a_Node000002"><a xlink:href="all__course__packed_8h.html" target="_top" xlink:title=" ">
<polygon fill="white" stroke="#666666" points="341,-195 234,-195 234,-165 341,-165 341,-195"/>
<text text-anchor="start" x="242" y="-183" font-family="Helvetica,sans-Serif" font-size="10.00">courses/all_course</text>
<text text-anchor="middle" x="287.5" y="-172" font-family="Helvetica,sans-Serif" font-size="10.00">_packed.h</text>
</a>
</g>
</g>
<!-- Node1&#45;&gt;Node2 -->
<g id="edge1_Node000001_Node000002" class="edge">
<title>Node1&#45;&gt;Node2</title>
<g id="a_edge1_Node000001_Node000002"><a xlink:title=" ">
<path fill="none" stroke="#63b8ff" d="M345.96,-224.69C332.53,-214.65 317.66,-203.54 306.28,-195.04"/>
<polygon fill="#63b8ff" stroke="#63b8ff" points="343.99,-227.59 354.1,-230.77 348.18,-221.98 343.99,-227.59"/>
</a>
</g>
</g>
<!-- Node8 -->
<g id="Node000008" class="node">
<title>Node8</title>
<g id="a_Node000008"><a xlink:href="LuigiRaceway_8h.html" target="_top" xlink:title=" ">
<polygon fill="white" stroke="#666666" points="644.5,-189.5 466.5,-189.5 466.5,-170.5 644.5,-170.5 644.5,-189.5"/>
<text text-anchor="middle" x="555.5" y="-177.5" font-family="Helvetica,sans-Serif" font-size="10.00">src/engine/tracks/LuigiRaceway.h</text>
</a>
</g>
</g>
<!-- Node1&#45;&gt;Node8 -->
<g id="edge7_Node000001_Node000008" class="edge">
<title>Node1&#45;&gt;Node8</title>
<g id="a_edge7_Node000001_Node000008"><a xlink:title=" ">
<path fill="none" stroke="#63b8ff" d="M439.19,-227.19C471.88,-214.21 510.6,-198.83 534.09,-189.5"/>
<polygon fill="#63b8ff" stroke="#63b8ff" points="437.71,-224.01 429.71,-230.96 440.3,-230.52 437.71,-224.01"/>
</a>
</g>
</g>
<!-- Node3 -->
<g id="Node000003" class="node">
<title>Node3</title>
<g id="a_Node000003"><a xlink:href="code__800029B0_8c.html" target="_top" xlink:title=" ">
<polygon fill="white" stroke="#666666" points="119,-129 0,-129 0,-110 119,-110 119,-129"/>
<text text-anchor="middle" x="59.5" y="-117" font-family="Helvetica,sans-Serif" font-size="10.00">src/code_800029B0.c</text>
</a>
</g>
</g>
<!-- Node2&#45;&gt;Node3 -->
<g id="edge2_Node000002_Node000003" class="edge">
<title>Node2&#45;&gt;Node3</title>
<g id="a_edge2_Node000002_Node000003"><a xlink:title=" ">
<path fill="none" stroke="#63b8ff" d="M224.04,-162.72C181.45,-151.79 127.08,-137.84 92.76,-129.03"/>
<polygon fill="#63b8ff" stroke="#63b8ff" points="223.2,-166.12 233.76,-165.21 224.94,-159.33 223.2,-166.12"/>
</a>
</g>
</g>
<!-- Node4 -->
<g id="Node000004" class="node">
<title>Node4</title>
<g id="a_Node000004"><a xlink:href="all__variables_8h.html" target="_top" xlink:title=" ">
<polygon fill="white" stroke="#666666" points="275.5,-129 137.5,-129 137.5,-110 275.5,-110 275.5,-129"/>
<text text-anchor="middle" x="206.5" y="-117" font-family="Helvetica,sans-Serif" font-size="10.00">src/debug/all_variables.h</text>
</a>
</g>
</g>
<!-- Node2&#45;&gt;Node4 -->
<g id="edge3_Node000002_Node000004" class="edge">
<title>Node2&#45;&gt;Node4</title>
<g id="a_edge3_Node000002_Node000004"><a xlink:title=" ">
<path fill="none" stroke="#63b8ff" d="M259.55,-158.82C245.59,-148.73 229.42,-137.05 218.64,-129.27"/>
<polygon fill="#63b8ff" stroke="#63b8ff" points="257.74,-161.82 267.89,-164.84 261.83,-156.15 257.74,-161.82"/>
</a>
</g>
</g>
<!-- Node7 -->
<g id="Node000007" class="node">
<title>Node7</title>
<g id="a_Node000007"><a xlink:href="render__courses_8c.html" target="_top" xlink:title=" ">
<polygon fill="white" stroke="#666666" points="443,-129 294,-129 294,-110 443,-110 443,-129"/>
<text text-anchor="middle" x="368.5" y="-117" font-family="Helvetica,sans-Serif" font-size="10.00">src/racing/render_courses.c</text>
</a>
</g>
</g>
<!-- Node2&#45;&gt;Node7 -->
<g id="edge6_Node000002_Node000007" class="edge">
<title>Node2&#45;&gt;Node7</title>
<g id="a_edge6_Node000002_Node000007"><a xlink:title=" ">
<path fill="none" stroke="#63b8ff" d="M315.45,-158.82C329.41,-148.73 345.58,-137.05 356.36,-129.27"/>
<polygon fill="#63b8ff" stroke="#63b8ff" points="313.17,-156.15 307.11,-164.84 317.26,-161.82 313.17,-156.15"/>
</a>
</g>
</g>
<!-- Node5 -->
<g id="Node000005" class="node">
<title>Node5</title>
<g id="a_Node000005"><a xlink:href="debug_8inc_8c.html" target="_top" xlink:title=" ">
<polygon fill="white" stroke="#666666" points="267.5,-74 145.5,-74 145.5,-55 267.5,-55 267.5,-74"/>
<text text-anchor="middle" x="206.5" y="-62" font-family="Helvetica,sans-Serif" font-size="10.00">src/debug/debug.inc.c</text>
</a>
</g>
</g>
<!-- Node4&#45;&gt;Node5 -->
<g id="edge4_Node000004_Node000005" class="edge">
<title>Node4&#45;&gt;Node5</title>
<g id="a_edge4_Node000004_Node000005"><a xlink:title=" ">
<path fill="none" stroke="#63b8ff" d="M206.5,-99.66C206.5,-90.93 206.5,-80.99 206.5,-74.09"/>
<polygon fill="#63b8ff" stroke="#63b8ff" points="203,-99.75 206.5,-109.75 210,-99.75 203,-99.75"/>
</a>
</g>
</g>
<!-- Node6 -->
<g id="Node000006" class="node">
<title>Node6</title>
<g id="a_Node000006"><a xlink:href="debug_8c.html" target="_top" xlink:title=" ">
<polygon fill="white" stroke="#666666" points="259,-19 154,-19 154,0 259,0 259,-19"/>
<text text-anchor="middle" x="206.5" y="-7" font-family="Helvetica,sans-Serif" font-size="10.00">src/debug/debug.c</text>
</a>
</g>
</g>
<!-- Node5&#45;&gt;Node6 -->
<g id="edge5_Node000005_Node000006" class="edge">
<title>Node5&#45;&gt;Node6</title>
<g id="a_edge5_Node000005_Node000006"><a xlink:title=" ">
<path fill="none" stroke="#63b8ff" d="M206.5,-44.66C206.5,-35.93 206.5,-25.99 206.5,-19.09"/>
<polygon fill="#63b8ff" stroke="#63b8ff" points="203,-44.75 206.5,-54.75 210,-44.75 203,-44.75"/>
</a>
</g>
</g>
<!-- Node9 -->
<g id="Node000009" class="node">
<title>Node9</title>
<g id="a_Node000009"><a xlink:href="LuigiRaceway_8cpp.html" target="_top" xlink:title=" ">
<polygon fill="white" stroke="#666666" points="650,-129 461,-129 461,-110 650,-110 650,-129"/>
<text text-anchor="middle" x="555.5" y="-117" font-family="Helvetica,sans-Serif" font-size="10.00">src/engine/tracks/LuigiRaceway.cpp</text>
</a>
</g>
</g>
<!-- Node8&#45;&gt;Node9 -->
<g id="edge8_Node000008_Node000009" class="edge">
<title>Node8&#45;&gt;Node9</title>
<g id="a_edge8_Node000008_Node000009"><a xlink:title=" ">
<path fill="none" stroke="#63b8ff" d="M555.5,-160.16C555.5,-149.74 555.5,-137.3 555.5,-129.17"/>
<polygon fill="#63b8ff" stroke="#63b8ff" points="552,-160.37 555.5,-170.37 559,-160.37 552,-160.37"/>
</a>
</g>
</g>
<!-- Node10 -->
<g id="Node000010" class="node">
<title>Node10</title>
<g id="a_Node000010"><a xlink:href="Game_8cpp.html" target="_top" xlink:title=" ">
<polygon fill="white" stroke="#666666" points="774.5,-129 668.5,-129 668.5,-110 774.5,-110 774.5,-129"/>
<text text-anchor="middle" x="721.5" y="-117" font-family="Helvetica,sans-Serif" font-size="10.00">src/port/Game.cpp</text>
</a>
</g>
</g>
<!-- Node8&#45;&gt;Node10 -->
<g id="edge9_Node000008_Node000010" class="edge">
<title>Node8&#45;&gt;Node10</title>
<g id="a_edge9_Node000008_Node000010"><a xlink:title=" ">
<path fill="none" stroke="#63b8ff" d="M589.48,-167.02C621.58,-155.71 668.92,-139.03 697.33,-129.02"/>
<polygon fill="#63b8ff" stroke="#63b8ff" points="587.91,-163.87 579.64,-170.49 590.23,-170.47 587.91,-163.87"/>
</a>
</g>
</g>
</g>
</svg>
