<?xml version="1.0" encoding="UTF-8" standalone="no"?>
<!DOCTYPE svg PUBLIC "-//W3C//DTD SVG 1.1//EN"
 "http://www.w3.org/Graphics/SVG/1.1/DTD/svg11.dtd">
<!-- Generated by graphviz version 2.43.0 (0)
 -->
<!-- Title: race_logic_loop Pages: 1 -->
<svg width="600pt" height="1050pt"
 viewBox="0.00 0.00 600.00 1050.00" xmlns="http://www.w3.org/2000/svg" xmlns:xlink="http://www.w3.org/1999/xlink">
<g id="graph0" class="graph" transform="scale(1 1) rotate(0) translate(4 1046)">
<title>race_logic_loop</title>
<!-- Node1 -->
<g id="Node000001" class="node">
<title>Node1</title>
<g id="a_Node000001"><a xlink:title=" ">
<polygon fill="#999999" stroke="#666666" points="92,-444 0,-444 0,-425 92,-425 92,-444"/>
<text text-anchor="middle" x="46" y="-432" font-family="Helvetica,sans-Serif" font-size="10.00">race_logic_loop</text>
</a>
</g>
</g>
<!-- Node2 -->
<g id="Node000002" class="node">
<title>Node2</title>
<g id="a_Node000002"><a xlink:href="Matrix_8cpp.html#a5ebb6ec3e4ef36c159c344784d791f60" target="_top" xlink:title=" ">
<polygon fill="white" stroke="#666666" points="249.5,-1042 149.5,-1042 149.5,-1023 249.5,-1023 249.5,-1042"/>
<text text-anchor="middle" x="199.5" y="-1030" font-family="Helvetica,sans-Serif" font-size="10.00">ClearMatrixPools</text>
</a>
</g>
</g>
<!-- Node1&#45;&gt;Node2 -->
<g id="edge1_Node000001_Node000002" class="edge">
<title>Node1&#45;&gt;Node2</title>
<g id="a_edge1_Node000001_Node000002"><a xlink:title=" ">
<path fill="none" stroke="#63b8ff" d="M46.94,-444.21C46.68,-512.91 48.52,-925.65 128,-1014.5 131.35,-1018.25 135.36,-1021.26 139.75,-1023.68"/>
<polygon fill="#63b8ff" stroke="#63b8ff" points="138.63,-1027.02 149.19,-1027.87 141.46,-1020.62 138.63,-1027.02"/>
</a>
</g>
</g>
<!-- Node3 -->
<g id="Node000003" class="node">
<title>Node3</title>
<g id="a_Node000003"><a xlink:href="Matrix_8cpp.html#af39326f348cc7842daad2b60055f9949" target="_top" xlink:title=" ">
<polygon fill="white" stroke="#666666" points="265,-1005 134,-1005 134,-986 265,-986 265,-1005"/>
<text text-anchor="middle" x="199.5" y="-993" font-family="Helvetica,sans-Serif" font-size="10.00">ClearObjectsMatrixPool</text>
</a>
</g>
</g>
<!-- Node1&#45;&gt;Node3 -->
<g id="edge2_Node000001_Node000003" class="edge">
<title>Node1&#45;&gt;Node3</title>
<g id="a_edge2_Node000001_Node000003"><a xlink:title=" ">
<path fill="none" stroke="#63b8ff" d="M47.04,-444.01C47.48,-509.59 53.26,-894.73 128,-977.5 128.76,-978.34 129.56,-979.15 130.38,-979.92"/>
<polygon fill="#63b8ff" stroke="#63b8ff" points="128.42,-982.82 138.54,-985.95 132.58,-977.19 128.42,-982.82"/>
</a>
</g>
</g>
<!-- Node4 -->
<g id="Node000004" class="node">
<title>Node4</title>
<g id="a_Node000004"><a xlink:href="Game_8cpp.html#a653209c17a221876506140f4d377270b" target="_top" xlink:title=" ">
<polygon fill="white" stroke="#666666" points="270,-968 129,-968 129,-949 270,-949 270,-968"/>
<text text-anchor="middle" x="199.5" y="-956" font-family="Helvetica,sans-Serif" font-size="10.00">CM_RunGarbageCollector</text>
</a>
</g>
</g>
<!-- Node1&#45;&gt;Node4 -->
<g id="edge3_Node000001_Node000004" class="edge">
<title>Node1&#45;&gt;Node4</title>
<g id="a_edge3_Node000001_Node000004"><a xlink:title=" ">
<path fill="none" stroke="#63b8ff" d="M47.15,-444.17C48.35,-507.58 58.13,-863.95 128,-940.5 128.77,-941.34 129.57,-942.14 130.4,-942.91"/>
<polygon fill="#63b8ff" stroke="#63b8ff" points="128.45,-945.82 138.58,-948.91 132.59,-940.18 128.45,-945.82"/>
</a>
</g>
</g>
<!-- Node10 -->
<g id="Node000010" class="node">
<title>Node10</title>
<g id="a_Node000010"><a xlink:href="Game_8cpp.html#a6ca781f4055a82d58dda2cbb2fbb51ab" target="_top" xlink:title=" ">
<polygon fill="white" stroke="#666666" points="242.5,-931 156.5,-931 156.5,-912 242.5,-912 242.5,-931"/>
<text text-anchor="middle" x="199.5" y="-919" font-family="Helvetica,sans-Serif" font-size="10.00">CM_TickEditor</text>
</a>
</g>
</g>
<!-- Node1&#45;&gt;Node10 -->
<g id="edge5_Node000001_Node000010" class="edge">
<title>Node1&#45;&gt;Node10</title>
<g id="a_edge5_Node000001_Node000010"><a xlink:title=" ">
<path fill="none" stroke="#63b8ff" d="M47.29,-444.24C49.28,-505.12 62.95,-833.1 128,-903.5 133.07,-908.99 139.56,-912.9 146.54,-915.67"/>
<polygon fill="#63b8ff" stroke="#63b8ff" points="145.69,-919.07 156.28,-918.79 147.82,-912.4 145.69,-919.07"/>
</a>
</g>
</g>
<!-- Node11 -->
<g id="Node000011" class="node">
<title>Node11</title>
<g id="a_Node000011"><a xlink:href="main_8c.html#a63560855ac1d6edacfcc26fd8e93066a" target="_top" xlink:title=" ">
<polygon fill="white" stroke="#666666" points="255,-894 144,-894 144,-875 255,-875 255,-894"/>
<text text-anchor="middle" x="199.5" y="-882" font-family="Helvetica,sans-Serif" font-size="10.00">display_debug_info</text>
</a>
</g>
</g>
<!-- Node1&#45;&gt;Node11 -->
<g id="edge6_Node000001_Node000011" class="edge">
<title>Node1&#45;&gt;Node11</title>
<g id="a_edge6_Node000001_Node000011"><a xlink:title=" ">
<path fill="none" stroke="#63b8ff" d="M47.44,-444.22C50.28,-502.2 67.73,-802.2 128,-866.5 130.07,-868.7 132.36,-870.65 134.82,-872.37"/>
<polygon fill="#63b8ff" stroke="#63b8ff" points="133.32,-875.55 143.76,-877.4 136.76,-869.45 133.32,-875.55"/>
</a>
</g>
</g>
<!-- Node27 -->
<g id="Node000027" class="node">
<title>Node27</title>
<g id="a_Node000027"><a xlink:href="Game_8cpp.html#a6c45266fcd154c834f48fe75086df1a7" target="_top" xlink:title=" ">
<polygon fill="white" stroke="#666666" points="252.5,-857 146.5,-857 146.5,-838 252.5,-838 252.5,-857"/>
<text text-anchor="middle" x="199.5" y="-845" font-family="Helvetica,sans-Serif" font-size="10.00">Editor_CleanWorld</text>
</a>
</g>
</g>
<!-- Node1&#45;&gt;Node27 -->
<g id="edge9_Node000001_Node000027" class="edge">
<title>Node1&#45;&gt;Node27</title>
<g id="a_edge9_Node000001_Node000027"><a xlink:title=" ">
<path fill="none" stroke="#63b8ff" d="M47.62,-444.09C51.33,-498.82 72.45,-771.23 128,-829.5 130.69,-832.32 133.75,-834.72 137.05,-836.76"/>
<polygon fill="#63b8ff" stroke="#63b8ff" points="135.78,-840.04 146.29,-841.37 138.91,-833.77 135.78,-840.04"/>
</a>
</g>
</g>
<!-- Node29 -->
<g id="Node000029" class="node">
<title>Node29</title>
<g id="a_Node000029"><a xlink:href="Game_8cpp.html#a929f192c4ae16f29f0f63fa455c29190" target="_top" xlink:title=" ">
<polygon fill="white" stroke="#666666" points="253,-820 146,-820 146,-801 253,-801 253,-820"/>
<text text-anchor="middle" x="199.5" y="-808" font-family="Helvetica,sans-Serif" font-size="10.00">Editor_ClearMatrix</text>
</a>
</g>
</g>
<!-- Node1&#45;&gt;Node29 -->
<g id="edge11_Node000001_Node000029" class="edge">
<title>Node1&#45;&gt;Node29</title>
<g id="a_edge11_Node000001_Node000029"><a xlink:title=" ">
<path fill="none" stroke="#63b8ff" d="M47.86,-444.16C52.66,-495.83 77.7,-739.14 128,-791.5 130.61,-794.22 133.57,-796.56 136.76,-798.58"/>
<polygon fill="#63b8ff" stroke="#63b8ff" points="135.16,-801.7 145.65,-803.2 138.39,-795.49 135.16,-801.7"/>
</a>
</g>
</g>
<!-- Node30 -->
<g id="Node000030" class="node">
<title>Node30</title>
<g id="a_Node000030"><a xlink:href="framebuffer__effects_8c.html#a71b68b58779ff9a29542a67e601bf244" target="_top" xlink:title=" ">
<polygon fill="white" stroke="#666666" points="271,-782.5 128,-782.5 128,-752.5 271,-752.5 271,-782.5"/>
<text text-anchor="start" x="136" y="-770.5" font-family="Helvetica,sans-Serif" font-size="10.00">FB_WriteFramebufferSlice</text>
<text text-anchor="middle" x="199.5" y="-759.5" font-family="Helvetica,sans-Serif" font-size="10.00">ToCPU</text>
</a>
</g>
</g>
<!-- Node1&#45;&gt;Node30 -->
<g id="edge12_Node000001_Node000030" class="edge">
<title>Node1&#45;&gt;Node30</title>
<g id="a_edge12_Node000001_Node000030"><a xlink:title=" ">
<path fill="none" stroke="#63b8ff" d="M46.49,-444.07C44.81,-485.69 43.74,-652.97 128,-743.5 128.89,-744.46 129.82,-745.38 130.79,-746.26"/>
<polygon fill="#63b8ff" stroke="#63b8ff" points="128.73,-749.09 138.82,-752.34 132.96,-743.51 128.73,-749.09"/>
</a>
</g>
</g>
<!-- Node36 -->
<g id="Node000036" class="node">
<title>Node36</title>
<g id="a_Node000036"><a xlink:href="render__player_8c.html#ade05e2965b5e4bdd78c56a784ef6001d" target="_top" xlink:title=" ">
<polygon fill="white" stroke="#666666" points="245,-697 154,-697 154,-678 245,-678 245,-697"/>
<text text-anchor="middle" x="199.5" y="-685" font-family="Helvetica,sans-Serif" font-size="10.00">func_80022744</text>
</a>
</g>
</g>
<!-- Node1&#45;&gt;Node36 -->
<g id="edge17_Node000001_Node000036" class="edge">
<title>Node1&#45;&gt;Node36</title>
<g id="a_edge17_Node000001_Node000036"><a xlink:title=" ">
<path fill="none" stroke="#63b8ff" d="M52.75,-444.11C75.25,-481.68 157.5,-619.03 187.48,-669.09"/>
<polygon fill="#63b8ff" stroke="#63b8ff" points="184.6,-671.1 192.74,-677.88 190.61,-667.5 184.6,-671.1"/>
</a>
</g>
</g>
<!-- Node140 -->
<g id="Node000140" class="node">
<title>Node140</title>
<g id="a_Node000140"><a xlink:href="code__80057C60_8c.html#a0135e2230005441e89632e3979ccb848" target="_top" xlink:title=" ">
<polygon fill="white" stroke="#666666" points="245.5,-481 153.5,-481 153.5,-462 245.5,-462 245.5,-481"/>
<text text-anchor="middle" x="199.5" y="-469" font-family="Helvetica,sans-Serif" font-size="10.00">func_800591B4</text>
</a>
</g>
</g>
<!-- Node1&#45;&gt;Node140 -->
<g id="edge20_Node000001_Node000140" class="edge">
<title>Node1&#45;&gt;Node140</title>
<g id="a_edge20_Node000001_Node000140"><a xlink:title=" ">
<path fill="none" stroke="#63b8ff" d="M86.02,-444.03C105.38,-448.76 128.97,-454.52 149.53,-459.54"/>
<polygon fill="#63b8ff" stroke="#63b8ff" points="148.81,-462.97 159.35,-461.94 150.47,-456.17 148.81,-462.97"/>
</a>
</g>
</g>
<!-- Node204 -->
<g id="Node000204" class="node">
<title>Node204</title>
<g id="a_Node000204"><a xlink:href="code__80057C60_8c.html#a86b7dba9c0715c4d7fdf8ce61c0738bc" target="_top" xlink:title=" ">
<polygon fill="#fff0f0" stroke="red" points="245.5,-444 153.5,-444 153.5,-425 245.5,-425 245.5,-444"/>
<text text-anchor="middle" x="199.5" y="-432" font-family="Helvetica,sans-Serif" font-size="10.00">func_8005A070</text>
</a>
</g>
</g>
<!-- Node1&#45;&gt;Node204 -->
<g id="edge32_Node000001_Node000204" class="edge">
<title>Node1&#45;&gt;Node204</title>
<g id="a_edge32_Node000001_Node000204"><a xlink:title=" ">
<path fill="none" stroke="#63b8ff" d="M92.04,-434.5C108.08,-434.5 126.33,-434.5 143.13,-434.5"/>
<polygon fill="#63b8ff" stroke="#63b8ff" points="143.37,-438 153.37,-434.5 143.37,-431 143.37,-438"/>
</a>
</g>
</g>
<!-- Node303 -->
<g id="Node000303" class="node">
<title>Node303</title>
<g id="a_Node000303"><a xlink:href="menu__items_8c.html#a67d42501ba0c65dedf05a039b9a2e49d" target="_top" xlink:title=" ">
<polygon fill="#fff0f0" stroke="red" points="245,-407 154,-407 154,-388 245,-388 245,-407"/>
<text text-anchor="middle" x="199.5" y="-395" font-family="Helvetica,sans-Serif" font-size="10.00">func_80093E20</text>
</a>
</g>
</g>
<!-- Node1&#45;&gt;Node303 -->
<g id="edge41_Node000001_Node000303" class="edge">
<title>Node1&#45;&gt;Node303</title>
<g id="a_edge41_Node000001_Node000303"><a xlink:title=" ">
<path fill="none" stroke="#63b8ff" d="M86.02,-424.97C105.38,-420.24 128.97,-414.48 149.53,-409.46"/>
<polygon fill="#63b8ff" stroke="#63b8ff" points="150.47,-412.83 159.35,-407.06 148.81,-406.03 150.47,-412.83"/>
</a>
</g>
</g>
<!-- Node1457 -->
<g id="Node001457" class="node">
<title>Node1457</title>
<g id="a_Node001457"><a xlink:href="race__logic_8c.html#a3189893b0ea5d4a7b1d679edc52d78ed" target="_top" xlink:title=" ">
<polygon fill="#fff0f0" stroke="red" points="245.5,-370 153.5,-370 153.5,-351 245.5,-351 245.5,-370"/>
<text text-anchor="middle" x="199.5" y="-358" font-family="Helvetica,sans-Serif" font-size="10.00">func_80290B14</text>
</a>
</g>
</g>
<!-- Node1&#45;&gt;Node1457 -->
<g id="edge42_Node000001_Node001457" class="edge">
<title>Node1&#45;&gt;Node1457</title>
<g id="a_edge42_Node000001_Node001457"><a xlink:title=" ">
<path fill="none" stroke="#63b8ff" d="M58.33,-424.98C73.36,-412.81 101.11,-391.83 128,-379.5 133.24,-377.1 138.85,-374.95 144.52,-373.04"/>
<polygon fill="#63b8ff" stroke="#63b8ff" points="145.58,-376.37 154.08,-370.05 143.49,-369.69 145.58,-376.37"/>
</a>
</g>
</g>
<!-- Node1513 -->
<g id="Node001513" class="node">
<title>Node1513</title>
<g id="a_Node001513"><a xlink:href="skybox__and__splitscreen_8c.html#a3e841fd472316b42bf7b4d8f077b2d1c" target="_top" xlink:title=" ">
<polygon fill="white" stroke="#666666" points="245.5,-257 153.5,-257 153.5,-238 245.5,-238 245.5,-257"/>
<text text-anchor="middle" x="199.5" y="-245" font-family="Helvetica,sans-Serif" font-size="10.00">func_802A38B4</text>
</a>
</g>
</g>
<!-- Node1&#45;&gt;Node1513 -->
<g id="edge43_Node000001_Node001513" class="edge">
<title>Node1&#45;&gt;Node1513</title>
<g id="a_edge43_Node000001_Node001513"><a xlink:title=" ">
<path fill="none" stroke="#63b8ff" d="M49.07,-424.84C55.55,-396.89 78.06,-315.2 128,-271.5 132.73,-267.37 138.19,-263.94 143.96,-261.09"/>
<polygon fill="#63b8ff" stroke="#63b8ff" points="145.4,-264.28 153.18,-257.09 142.62,-257.86 145.4,-264.28"/>
</a>
</g>
</g>
<!-- Node656 -->
<g id="Node000656" class="node">
<title>Node656</title>
<g id="a_Node000656"><a xlink:href="skybox__and__splitscreen_8c.html#a1ff551b00275f32a4c52eb741006cbc2" target="_top" xlink:title=" ">
<polygon fill="white" stroke="#666666" points="408.5,-56 355.5,-56 355.5,-37 408.5,-37 408.5,-56"/>
<text text-anchor="middle" x="382" y="-44" font-family="Helvetica,sans-Serif" font-size="10.00">init_rdp</text>
</a>
</g>
</g>
<!-- Node1&#45;&gt;Node656 -->
<g id="edge49_Node000001_Node000656" class="edge">
<title>Node1&#45;&gt;Node656</title>
<g id="a_edge49_Node000001_Node000656"><a xlink:title=" ">
<path fill="none" stroke="#63b8ff" d="M50.31,-424.67C58.96,-400.47 84.67,-337.64 128,-305.5 180.91,-266.25 226.41,-314.99 271,-266.5 330.66,-201.63 249.3,-138.12 307,-71.5 316.72,-60.28 331.65,-54.09 345.56,-50.67"/>
<polygon fill="#63b8ff" stroke="#63b8ff" points="346.33,-54.08 355.42,-48.64 344.92,-47.23 346.33,-54.08"/>
</a>
</g>
</g>
<!-- Node666 -->
<g id="Node000666" class="node">
<title>Node666</title>
<g id="a_Node000666"><a xlink:href="skybox__and__splitscreen_8c.html#ab481a35d4548245b2a89ab574f460a14" target="_top" xlink:title=" ">
<polygon fill="white" stroke="#666666" points="436.5,-19 327.5,-19 327.5,0 436.5,0 436.5,-19"/>
<text text-anchor="middle" x="382" y="-7" font-family="Helvetica,sans-Serif" font-size="10.00">select_framebuffer</text>
</a>
</g>
</g>
<!-- Node1&#45;&gt;Node666 -->
<g id="edge56_Node000001_Node000666" class="edge">
<title>Node1&#45;&gt;Node666</title>
<g id="a_edge56_Node000001_Node000666"><a xlink:title=" ">
<path fill="none" stroke="#63b8ff" d="M47.85,-424.63C51.24,-391.68 66.71,-284.39 128,-229.5 177.07,-185.55 225.57,-238.21 271,-190.5 322.16,-136.77 255.1,-80.51 307,-27.5 310.26,-24.17 314.03,-21.41 318.1,-19.14"/>
<polygon fill="#63b8ff" stroke="#63b8ff" points="319.78,-22.22 327.42,-14.89 316.87,-15.85 319.78,-22.22"/>
</a>
</g>
</g>
<!-- Node1514 -->
<g id="Node001514" class="node">
<title>Node1514</title>
<g id="a_Node001514"><a xlink:href="skybox__and__splitscreen_8c.html#a67bde07a20019a64500eba855d93ff4a" target="_top" xlink:title=" ">
<polygon fill="#fff0f0" stroke="red" points="245.5,-734 153.5,-734 153.5,-715 245.5,-715 245.5,-734"/>
<text text-anchor="middle" x="199.5" y="-722" font-family="Helvetica,sans-Serif" font-size="10.00">func_802A4300</text>
</a>
</g>
</g>
<!-- Node1&#45;&gt;Node1514 -->
<g id="edge46_Node000001_Node001514" class="edge">
<title>Node1&#45;&gt;Node1514</title>
<g id="a_edge46_Node000001_Node001514"><a xlink:title=" ">
<path fill="none" stroke="#63b8ff" d="M46.73,-444.13C46.17,-483.16 49.5,-631.04 128,-706.5 132.43,-710.76 137.73,-714.05 143.4,-716.59"/>
<polygon fill="#63b8ff" stroke="#63b8ff" points="142.62,-720.03 153.22,-720.19 145.03,-713.46 142.62,-720.03"/>
</a>
</g>
</g>
<!-- Node1515 -->
<g id="Node001515" class="node">
<title>Node1515</title>
<g id="a_Node001515"><a xlink:href="skybox__and__splitscreen_8c.html#a1521be679cd75bb46d9e6f0e1ae184f4" target="_top" xlink:title=" ">
<polygon fill="#fff0f0" stroke="red" points="245.5,-181 153.5,-181 153.5,-162 245.5,-162 245.5,-181"/>
<text text-anchor="middle" x="199.5" y="-169" font-family="Helvetica,sans-Serif" font-size="10.00">func_802A4EF4</text>
</a>
</g>
</g>
<!-- Node1&#45;&gt;Node1515 -->
<g id="edge48_Node000001_Node001515" class="edge">
<title>Node1&#45;&gt;Node1515</title>
<g id="a_edge48_Node000001_Node001515"><a xlink:title=" ">
<path fill="none" stroke="#63b8ff" d="M47.36,-424.73C49.23,-388.88 60.51,-263.08 128,-195.5 132.56,-190.94 138.01,-187.24 143.85,-184.25"/>
<polygon fill="#63b8ff" stroke="#63b8ff" points="145.51,-187.34 153.25,-180.1 142.69,-180.93 145.51,-187.34"/>
</a>
</g>
</g>
<!-- Node1518 -->
<g id="Node001518" class="node">
<title>Node1518</title>
<g id="a_Node001518"><a xlink:href="start__game_8c.html#a2a306c238cbe5ae028cbeee2e724b2e6" target="_top" xlink:title=" ">
<polygon fill="#fff0f0" stroke="red" points="257,-143.5 142,-143.5 142,-113.5 257,-113.5 257,-143.5"/>
<text text-anchor="start" x="150" y="-131.5" font-family="Helvetica,sans-Serif" font-size="10.00">network_all_players</text>
<text text-anchor="middle" x="199.5" y="-120.5" font-family="Helvetica,sans-Serif" font-size="10.00">_loaded</text>
</a>
</g>
</g>
<!-- Node1&#45;&gt;Node1518 -->
<g id="edge50_Node000001_Node001518" class="edge">
<title>Node1&#45;&gt;Node1518</title>
<g id="a_edge50_Node000001_Node001518"><a xlink:title=" ">
<path fill="none" stroke="#63b8ff" d="M46.81,-424.76C46.6,-385.25 51.08,-235.19 128,-153.5 129.63,-151.77 131.38,-150.16 133.24,-148.66"/>
<polygon fill="#63b8ff" stroke="#63b8ff" points="135.61,-151.28 141.93,-142.78 131.69,-145.49 135.61,-151.28"/>
</a>
</g>
</g>
<!-- Node1520 -->
<g id="Node001520" class="node">
<title>Node1520</title>
<g id="a_Node001520"><a xlink:href="main_8c.html#a06ee966cd36f1640715226c8c9a77d75" target="_top" xlink:title=" ">
<polygon fill="#fff0f0" stroke="red" points="254.5,-95 144.5,-95 144.5,-76 254.5,-76 254.5,-95"/>
<text text-anchor="middle" x="199.5" y="-83" font-family="Helvetica,sans-Serif" font-size="10.00">process_game_tick</text>
</a>
</g>
</g>
<!-- Node1&#45;&gt;Node1520 -->
<g id="edge51_Node000001_Node001520" class="edge">
<title>Node1&#45;&gt;Node1520</title>
<g id="a_edge51_Node000001_Node001520"><a xlink:title=" ">
<path fill="none" stroke="#63b8ff" d="M48.04,-424.92C53.59,-375.8 81.09,-152.48 128,-104.5 130.23,-102.22 132.71,-100.2 135.36,-98.42"/>
<polygon fill="#63b8ff" stroke="#63b8ff" points="137.25,-101.37 144.32,-93.49 133.87,-95.24 137.25,-101.37"/>
</a>
</g>
</g>
<!-- Node509 -->
<g id="Node000509" class="node">
<title>Node509</title>
<g id="a_Node000509"><a xlink:href="profiler_8c.html#ad822f08530dc02ebea867b58f6b2cf5b" target="_top" xlink:title=" ">
<polygon fill="#fff0f0" stroke="red" points="270.5,-58 128.5,-58 128.5,-39 270.5,-39 270.5,-58"/>
<text text-anchor="middle" x="199.5" y="-46" font-family="Helvetica,sans-Serif" font-size="10.00">profiler_log_thread5_time</text>
</a>
</g>
</g>
<!-- Node1&#45;&gt;Node509 -->
<g id="edge52_Node000001_Node000509" class="edge">
<title>Node1&#45;&gt;Node509</title>
<g id="a_edge52_Node000001_Node000509"><a xlink:title=" ">
<path fill="none" stroke="#63b8ff" d="M47.79,-424.92C52.3,-372.57 76.4,-121.53 128,-67.5 129.26,-66.18 130.61,-64.94 132.02,-63.79"/>
<polygon fill="#63b8ff" stroke="#63b8ff" points="134.33,-66.47 140.78,-58.06 130.49,-60.61 134.33,-66.47"/>
</a>
</g>
</g>
<!-- Node1674 -->
<g id="Node001674" class="node">
<title>Node1674</title>
<g id="a_Node001674"><a xlink:href="skybox__and__splitscreen_8c.html#ae4f7ad839fe3a60b3b6fde3d07ae8acd" target="_top" xlink:title=" ">
<polygon fill="#fff0f0" stroke="red" points="245,-333 154,-333 154,-314 245,-314 245,-333"/>
<text text-anchor="middle" x="199.5" y="-321" font-family="Helvetica,sans-Serif" font-size="10.00">render_screens</text>
</a>
</g>
</g>
<!-- Node1&#45;&gt;Node1674 -->
<g id="edge53_Node000001_Node001674" class="edge">
<title>Node1&#45;&gt;Node1674</title>
<g id="a_edge53_Node000001_Node001674"><a xlink:title=" ">
<path fill="none" stroke="#63b8ff" d="M52.78,-424.76C64.5,-405.89 92.94,-364.29 128,-342.5 133.03,-339.37 138.58,-336.75 144.29,-334.56"/>
<polygon fill="#63b8ff" stroke="#63b8ff" points="145.64,-337.8 153.98,-331.26 143.38,-331.17 145.64,-337.8"/>
</a>
</g>
</g>
<!-- Node1783 -->
<g id="Node001783" class="node">
<title>Node1783</title>
<g id="a_Node001783"><a xlink:href="replays_8c.html#a59a502f5731aede840d62afee090455f" target="_top" xlink:title=" ">
<polygon fill="#fff0f0" stroke="red" points="239,-21 160,-21 160,-2 239,-2 239,-21"/>
<text text-anchor="middle" x="199.5" y="-9" font-family="Helvetica,sans-Serif" font-size="10.00">replays_loop</text>
</a>
</g>
</g>
<!-- Node1&#45;&gt;Node1783 -->
<g id="edge55_Node000001_Node001783" class="edge">
<title>Node1&#45;&gt;Node1783</title>
<g id="a_edge55_Node000001_Node001783"><a xlink:title=" ">
<path fill="none" stroke="#63b8ff" d="M47.58,-424.67C51.09,-368.56 71.24,-89.32 128,-29.5 133.94,-23.24 141.72,-19.04 149.95,-16.25"/>
<polygon fill="#63b8ff" stroke="#63b8ff" points="151,-19.59 159.72,-13.57 149.15,-12.84 151,-19.59"/>
</a>
</g>
</g>
<!-- Node5 -->
<g id="Node000005" class="node">
<title>Node5</title>
<g id="a_Node000005"><a xlink:href="GarbageCollector_8cpp.html#a84b79755bcb042f728327f1ee3741265" target="_top" xlink:title=" ">
<polygon fill="#fff0f0" stroke="red" points="442,-1036 322,-1036 322,-1017 442,-1017 442,-1036"/>
<text text-anchor="middle" x="382" y="-1024" font-family="Helvetica,sans-Serif" font-size="10.00">RunGarbageCollector</text>
</a>
</g>
</g>
<!-- Node4&#45;&gt;Node5 -->
<g id="edge4_Node000004_Node000005" class="edge">
<title>Node4&#45;&gt;Node5</title>
<g id="a_edge4_Node000004_Node000005"><a xlink:title=" ">
<path fill="none" stroke="#63b8ff" d="M247.51,-968.01C255.59,-970.52 263.72,-973.64 271,-977.5 289.66,-987.38 288.22,-998.85 307,-1008.5 310.7,-1010.4 314.62,-1012.11 318.63,-1013.64"/>
<polygon fill="#63b8ff" stroke="#63b8ff" points="317.54,-1016.97 328.13,-1016.9 319.81,-1010.35 317.54,-1016.97"/>
</a>
</g>
</g>
<!-- Node12 -->
<g id="Node000012" class="node">
<title>Node12</title>
<g id="a_Node000012"><a xlink:href="render__objects_8c.html#aff3ef06841914727f4be7cc7bec453dc" target="_top" xlink:title=" ">
<polygon fill="#fff0f0" stroke="red" points="428,-999 336,-999 336,-980 428,-980 428,-999"/>
<text text-anchor="middle" x="382" y="-987" font-family="Helvetica,sans-Serif" font-size="10.00">func_80057A50</text>
</a>
</g>
</g>
<!-- Node11&#45;&gt;Node12 -->
<g id="edge7_Node000011_Node000012" class="edge">
<title>Node11&#45;&gt;Node12</title>
<g id="a_edge7_Node000011_Node000012"><a xlink:title=" ">
<path fill="none" stroke="#63b8ff" d="M254.72,-894.08C260.57,-896.54 266.15,-899.63 271,-903.5 297.73,-924.83 280.01,-950.5 307,-971.5 312.54,-975.81 318.96,-979.11 325.66,-981.62"/>
<polygon fill="#63b8ff" stroke="#63b8ff" points="325.02,-985.09 335.61,-984.78 327.14,-978.42 325.02,-985.09"/>
</a>
</g>
</g>
<!-- Node23 -->
<g id="Node000023" class="node">
<title>Node23</title>
<g id="a_Node000023"><a xlink:href="profiler_8c.html#ab7b1e6773ce3f388fa683d69fb70944f" target="_top" xlink:title=" ">
<polygon fill="#fff0f0" stroke="red" points="431.5,-962 332.5,-962 332.5,-943 431.5,-943 431.5,-962"/>
<text text-anchor="middle" x="382" y="-950" font-family="Helvetica,sans-Serif" font-size="10.00">resource_display</text>
</a>
</g>
</g>
<!-- Node11&#45;&gt;Node23 -->
<g id="edge8_Node000011_Node000023" class="edge">
<title>Node11&#45;&gt;Node23</title>
<g id="a_edge8_Node000011_Node000023"><a xlink:title=" ">
<path fill="none" stroke="#63b8ff" d="M247.51,-894.01C255.59,-896.52 263.72,-899.64 271,-903.5 289.66,-913.38 288.22,-924.85 307,-934.5 311.92,-937.03 317.22,-939.22 322.63,-941.1"/>
<polygon fill="#63b8ff" stroke="#63b8ff" points="321.85,-944.52 332.44,-944.18 323.94,-937.84 321.85,-944.52"/>
</a>
</g>
</g>
<!-- Node28 -->
<g id="Node000028" class="node">
<title>Node28</title>
<g id="a_Node000028"><a xlink:href="Game_8cpp.html#a13d5b10b9acb59b4b90db739aba83d1f" target="_top" xlink:title=" ">
<polygon fill="white" stroke="#666666" points="428.5,-925 335.5,-925 335.5,-906 428.5,-906 428.5,-925"/>
<text text-anchor="middle" x="382" y="-913" font-family="Helvetica,sans-Serif" font-size="10.00">CM_CleanWorld</text>
</a>
</g>
</g>
<!-- Node27&#45;&gt;Node28 -->
<g id="edge10_Node000027_Node000028" class="edge">
<title>Node27&#45;&gt;Node28</title>
<g id="a_edge10_Node000027_Node000028"><a xlink:title=" ">
<path fill="none" stroke="#63b8ff" d="M247.51,-857.01C255.59,-859.52 263.72,-862.64 271,-866.5 289.66,-876.38 288.22,-887.85 307,-897.5 312.71,-900.44 318.92,-902.9 325.23,-904.98"/>
<polygon fill="#63b8ff" stroke="#63b8ff" points="324.59,-908.44 335.17,-907.92 326.58,-901.73 324.59,-908.44"/>
</a>
</g>
</g>
<!-- Node31 -->
<g id="Node000031" class="node">
<title>Node31</title>
<g id="a_Node000031"><a xlink:href="framebuffer__effects_8c.html#a071a1a399ee05aa8ce9016470c0eb8a7" target="_top" xlink:title=" ">
<polygon fill="white" stroke="#666666" points="446.5,-888 317.5,-888 317.5,-869 446.5,-869 446.5,-888"/>
<text text-anchor="middle" x="382" y="-876" font-family="Helvetica,sans-Serif" font-size="10.00">FB_CopyToFramebuffer</text>
</a>
</g>
</g>
<!-- Node30&#45;&gt;Node31 -->
<g id="edge13_Node000030_Node000031" class="edge">
<title>Node30&#45;&gt;Node31</title>
<g id="a_edge13_Node000030_Node000031"><a xlink:title=" ">
<path fill="none" stroke="#63b8ff" d="M256.22,-782.67C261.53,-785.43 266.58,-788.68 271,-792.5 296.88,-814.85 280.01,-839.5 307,-860.5 308.78,-861.89 310.65,-863.17 312.6,-864.35"/>
<polygon fill="#63b8ff" stroke="#63b8ff" points="311.02,-867.47 321.51,-868.94 314.22,-861.25 311.02,-867.47"/>
</a>
</g>
</g>
<!-- Node32 -->
<g id="Node000032" class="node">
<title>Node32</title>
<g id="a_Node000032"><a xlink:href="Engine_8cpp.html#a130aa97f1c7fae24f3d23f8126e7506f" target="_top" xlink:title=" ">
<polygon fill="#fff0f0" stroke="red" points="438.5,-851 325.5,-851 325.5,-832 438.5,-832 438.5,-851"/>
<text text-anchor="middle" x="382" y="-839" font-family="Helvetica,sans-Serif" font-size="10.00">OTRGetAspectRatio</text>
</a>
</g>
</g>
<!-- Node30&#45;&gt;Node32 -->
<g id="edge14_Node000030_Node000032" class="edge">
<title>Node30&#45;&gt;Node32</title>
<g id="a_edge14_Node000030_Node000032"><a xlink:title=" ">
<path fill="none" stroke="#63b8ff" d="M250.47,-782.6C257.55,-785.48 264.6,-788.78 271,-792.5 289.26,-803.1 288.22,-813.85 307,-823.5 310.7,-825.4 314.62,-827.11 318.63,-828.64"/>
<polygon fill="#63b8ff" stroke="#63b8ff" points="317.54,-831.97 328.13,-831.9 319.81,-825.35 317.54,-831.97"/>
</a>
</g>
</g>
<!-- Node34 -->
<g id="Node000034" class="node">
<title>Node34</title>
<g id="a_Node000034"><a xlink:href="Engine_8cpp.html#a74cff0dc9810ca52110d05e078ed8a53" target="_top" xlink:title=" ">
<polygon fill="#fff0f0" stroke="red" points="457,-814 307,-814 307,-795 457,-795 457,-814"/>
<text text-anchor="middle" x="382" y="-802" font-family="Helvetica,sans-Serif" font-size="10.00">OTRGetGameRenderHeight</text>
</a>
</g>
</g>
<!-- Node30&#45;&gt;Node34 -->
<g id="edge15_Node000030_Node000034" class="edge">
<title>Node30&#45;&gt;Node34</title>
<g id="a_edge15_Node000030_Node000034"><a xlink:title=" ">
<path fill="none" stroke="#63b8ff" d="M271.06,-781.96C288.67,-785.57 307.32,-789.4 324.17,-792.85"/>
<polygon fill="#63b8ff" stroke="#63b8ff" points="323.9,-796.37 334.4,-794.95 325.3,-789.51 323.9,-796.37"/>
</a>
</g>
</g>
<!-- Node35 -->
<g id="Node000035" class="node">
<title>Node35</title>
<g id="a_Node000035"><a xlink:href="Engine_8cpp.html#a0b2a0a6072d24bc155959292bc165961" target="_top" xlink:title=" ">
<polygon fill="#fff0f0" stroke="red" points="455,-777 309,-777 309,-758 455,-758 455,-777"/>
<text text-anchor="middle" x="382" y="-765" font-family="Helvetica,sans-Serif" font-size="10.00">OTRGetGameRenderWidth</text>
</a>
</g>
</g>
<!-- Node30&#45;&gt;Node35 -->
<g id="edge16_Node000030_Node000035" class="edge">
<title>Node30&#45;&gt;Node35</title>
<g id="a_edge16_Node000030_Node000035"><a xlink:title=" ">
<path fill="none" stroke="#63b8ff" d="M271.06,-767.5C280.04,-767.5 289.29,-767.5 298.44,-767.5"/>
<polygon fill="#63b8ff" stroke="#63b8ff" points="298.7,-771 308.7,-767.5 298.7,-764 298.7,-771"/>
</a>
</g>
</g>
<!-- Node37 -->
<g id="Node000037" class="node">
<title>Node37</title>
<g id="a_Node000037"><a xlink:href="render__player_8c.html#a6f4aaf3ac0ad53a8a8e1cb6055b5a048" target="_top" xlink:title=" ">
<polygon fill="#fff0f0" stroke="red" points="428,-740 336,-740 336,-721 428,-721 428,-740"/>
<text text-anchor="middle" x="382" y="-728" font-family="Helvetica,sans-Serif" font-size="10.00">func_8002276C</text>
</a>
</g>
</g>
<!-- Node36&#45;&gt;Node37 -->
<g id="edge18_Node000036_Node000037" class="edge">
<title>Node36&#45;&gt;Node37</title>
<g id="a_edge18_Node000036_Node000037"><a xlink:title=" ">
<path fill="none" stroke="#63b8ff" d="M240.56,-697.04C267.32,-703.42 302.7,-711.85 331.26,-718.65"/>
<polygon fill="#63b8ff" stroke="#63b8ff" points="330.51,-722.07 341.05,-720.98 332.14,-715.26 330.51,-722.07"/>
</a>
</g>
</g>
<!-- Node55 -->
<g id="Node000055" class="node">
<title>Node55</title>
<g id="a_Node000055"><a xlink:href="code__80057C60_8c.html#ade4dcf359774830597852284e9fee171" target="_top" xlink:title=" ">
<polygon fill="#fff0f0" stroke="red" points="427.5,-703 336.5,-703 336.5,-684 427.5,-684 427.5,-703"/>
<text text-anchor="middle" x="382" y="-691" font-family="Helvetica,sans-Serif" font-size="10.00">func_8006E058</text>
</a>
</g>
</g>
<!-- Node36&#45;&gt;Node55 -->
<g id="edge19_Node000036_Node000055" class="edge">
<title>Node36&#45;&gt;Node55</title>
<g id="a_edge19_Node000036_Node000055"><a xlink:title=" ">
<path fill="none" stroke="#63b8ff" d="M245.12,-688.98C269.63,-689.8 300.24,-690.82 326.2,-691.68"/>
<polygon fill="#63b8ff" stroke="#63b8ff" points="326.16,-695.18 336.27,-692.01 326.39,-688.18 326.16,-695.18"/>
</a>
</g>
</g>
<!-- Node141 -->
<g id="Node000141" class="node">
<title>Node141</title>
<g id="a_Node000141"><a xlink:href="render__objects_8c.html#a790ebc40448deb7ce1ab8fa298663f0d" target="_top" xlink:title=" ">
<polygon fill="#fff0f0" stroke="red" points="427.5,-395 336.5,-395 336.5,-376 427.5,-376 427.5,-395"/>
<text text-anchor="middle" x="382" y="-383" font-family="Helvetica,sans-Serif" font-size="10.00">func_8004EE54</text>
</a>
</g>
</g>
<!-- Node140&#45;&gt;Node141 -->
<g id="edge21_Node000140_Node000141" class="edge">
<title>Node140&#45;&gt;Node141</title>
<g id="a_edge21_Node000140_Node000141"><a xlink:title=" ">
<path fill="none" stroke="#63b8ff" d="M245.72,-464.85C254.59,-462.24 263.46,-458.59 271,-453.5 293.4,-438.39 284.61,-419.63 307,-404.5 312.97,-400.47 319.74,-397.29 326.69,-394.79"/>
<polygon fill="#63b8ff" stroke="#63b8ff" points="327.76,-398.12 336.24,-391.77 325.65,-391.45 327.76,-398.12"/>
</a>
</g>
</g>
<!-- Node154 -->
<g id="Node000154" class="node">
<title>Node154</title>
<g id="a_Node000154"><a xlink:href="render__objects_8c.html#a863e3cfbfc8514c990b3bd44fd5e2abc" target="_top" xlink:title=" ">
<polygon fill="#fff0f0" stroke="red" points="427.5,-358 336.5,-358 336.5,-339 427.5,-339 427.5,-358"/>
<text text-anchor="middle" x="382" y="-346" font-family="Helvetica,sans-Serif" font-size="10.00">func_8004F3E4</text>
</a>
</g>
</g>
<!-- Node140&#45;&gt;Node154 -->
<g id="edge22_Node000140_Node000154" class="edge">
<title>Node140&#45;&gt;Node154</title>
<g id="a_edge22_Node000140_Node000154"><a xlink:title=" ">
<path fill="none" stroke="#63b8ff" d="M245.64,-466.51C254.81,-463.8 263.83,-459.69 271,-453.5 302.36,-426.42 275.65,-394.6 307,-367.5 312.66,-362.61 319.41,-358.95 326.5,-356.22"/>
<polygon fill="#63b8ff" stroke="#63b8ff" points="327.88,-359.45 336.32,-353.04 325.72,-352.79 327.88,-359.45"/>
</a>
</g>
</g>
<!-- Node156 -->
<g id="Node000156" class="node">
<title>Node156</title>
<g id="a_Node000156"><a xlink:href="render__objects_8c.html#aed285c112a16165b4c91395da0ae8889" target="_top" xlink:title=" ">
<polygon fill="#fff0f0" stroke="red" points="427.5,-321 336.5,-321 336.5,-302 427.5,-302 427.5,-321"/>
<text text-anchor="middle" x="382" y="-309" font-family="Helvetica,sans-Serif" font-size="10.00">func_80050320</text>
</a>
</g>
</g>
<!-- Node140&#45;&gt;Node156 -->
<g id="edge23_Node000140_Node000156" class="edge">
<title>Node140&#45;&gt;Node156</title>
<g id="a_edge23_Node000140_Node000156"><a xlink:title=" ">
<path fill="none" stroke="#63b8ff" d="M245.81,-467.21C255.08,-464.47 264.09,-460.17 271,-453.5 311.97,-413.93 266.06,-370.1 307,-330.5 312.44,-325.24 319.13,-321.38 326.25,-318.56"/>
<polygon fill="#63b8ff" stroke="#63b8ff" points="327.72,-321.76 336.13,-315.32 325.54,-315.1 327.72,-321.76"/>
</a>
</g>
</g>
<!-- Node172 -->
<g id="Node000172" class="node">
<title>Node172</title>
<g id="a_Node000172"><a xlink:href="render__objects_8c.html#ae272e3c0a8cc70d11040911588de9656" target="_top" xlink:title=" ">
<polygon fill="#fff0f0" stroke="red" points="428,-284 336,-284 336,-265 428,-265 428,-284"/>
<text text-anchor="middle" x="382" y="-272" font-family="Helvetica,sans-Serif" font-size="10.00">func_800514BC</text>
</a>
</g>
</g>
<!-- Node140&#45;&gt;Node172 -->
<g id="edge24_Node000140_Node000172" class="edge">
<title>Node140&#45;&gt;Node172</title>
<g id="a_edge24_Node000140_Node000172"><a xlink:title=" ">
<path fill="none" stroke="#63b8ff" d="M245.76,-467.64C255.14,-464.88 264.22,-460.48 271,-453.5 321.8,-401.23 256.24,-345.81 307,-293.5 312.27,-288.07 318.87,-284.11 325.94,-281.25"/>
<polygon fill="#63b8ff" stroke="#63b8ff" points="327.41,-284.45 335.8,-277.98 325.2,-277.81 327.41,-284.45"/>
</a>
</g>
</g>
<!-- Node185 -->
<g id="Node000185" class="node">
<title>Node185</title>
<g id="a_Node000185"><a xlink:href="code__80057C60_8c.html#a4baa810ff1285519b37da7ac9b184b56" target="_top" xlink:title=" ">
<polygon fill="white" stroke="#666666" points="428,-666 336,-666 336,-647 428,-647 428,-666"/>
<text text-anchor="middle" x="382" y="-654" font-family="Helvetica,sans-Serif" font-size="10.00">func_80057C60</text>
</a>
</g>
</g>
<!-- Node140&#45;&gt;Node185 -->
<g id="edge25_Node000140_Node000185" class="edge">
<title>Node140&#45;&gt;Node185</title>
<g id="a_edge25_Node000140_Node000185"><a xlink:title=" ">
<path fill="none" stroke="#63b8ff" d="M203.74,-481.25C213.9,-510.21 247.98,-596.29 307,-638.5 312.71,-642.58 319.23,-645.75 325.98,-648.2"/>
<polygon fill="#63b8ff" stroke="#63b8ff" points="325.39,-651.68 335.98,-651.3 327.46,-644.99 325.39,-651.68"/>
</a>
</g>
</g>
<!-- Node186 -->
<g id="Node000186" class="node">
<title>Node186</title>
<g id="a_Node000186"><a xlink:href="code__80057C60_8c.html#a23591c50e334e347e1af59fcd68c0a5f" target="_top" xlink:title=" ">
<polygon fill="#fff0f0" stroke="red" points="428,-629 336,-629 336,-610 428,-610 428,-629"/>
<text text-anchor="middle" x="382" y="-617" font-family="Helvetica,sans-Serif" font-size="10.00">func_80057CE4</text>
</a>
</g>
</g>
<!-- Node140&#45;&gt;Node186 -->
<g id="edge26_Node000140_Node000186" class="edge">
<title>Node140&#45;&gt;Node186</title>
<g id="a_edge26_Node000140_Node000186"><a xlink:title=" ">
<path fill="none" stroke="#63b8ff" d="M205.47,-481.13C218.54,-505.45 256.37,-569.65 307,-601.5 312.79,-605.14 319.26,-608.05 325.9,-610.36"/>
<polygon fill="#63b8ff" stroke="#63b8ff" points="325.11,-613.78 335.7,-613.36 327.16,-607.09 325.11,-613.78"/>
</a>
</g>
</g>
<!-- Node188 -->
<g id="Node000188" class="node">
<title>Node188</title>
<g id="a_Node000188"><a xlink:href="code__80057C60_8c.html#a42401fff0d83dd5bbe75d000e438683b" target="_top" xlink:title=" ">
<polygon fill="#fff0f0" stroke="red" points="429,-592 335,-592 335,-573 429,-573 429,-592"/>
<text text-anchor="middle" x="382" y="-580" font-family="Helvetica,sans-Serif" font-size="10.00">func_80057DD0</text>
</a>
</g>
</g>
<!-- Node140&#45;&gt;Node188 -->
<g id="edge27_Node000140_Node000188" class="edge">
<title>Node140&#45;&gt;Node188</title>
<g id="a_edge27_Node000140_Node000188"><a xlink:title=" ">
<path fill="none" stroke="#63b8ff" d="M208.52,-481.07C224.95,-500.04 264.5,-542.47 307,-564.5 312.62,-567.41 318.73,-569.87 324.95,-571.93"/>
<polygon fill="#63b8ff" stroke="#63b8ff" points="324.17,-575.35 334.76,-574.87 326.18,-568.65 324.17,-575.35"/>
</a>
</g>
</g>
<!-- Node189 -->
<g id="Node000189" class="node">
<title>Node189</title>
<g id="a_Node000189"><a xlink:href="code__80057C60_8c.html#ad01f42e1a5383053663438a906ce6418" target="_top" xlink:title=" ">
<polygon fill="#fff0f0" stroke="red" points="428,-555 336,-555 336,-536 428,-536 428,-555"/>
<text text-anchor="middle" x="382" y="-543" font-family="Helvetica,sans-Serif" font-size="10.00">func_8005902C</text>
</a>
</g>
</g>
<!-- Node140&#45;&gt;Node189 -->
<g id="edge28_Node000140_Node000189" class="edge">
<title>Node140&#45;&gt;Node189</title>
<g id="a_edge28_Node000140_Node000189"><a xlink:title=" ">
<path fill="none" stroke="#63b8ff" d="M215.82,-481.1C236.02,-493.4 273,-514.65 307,-527.5 313.01,-529.77 319.4,-531.83 325.81,-533.67"/>
<polygon fill="#63b8ff" stroke="#63b8ff" points="325.29,-537.15 335.85,-536.39 327.11,-530.4 325.29,-537.15"/>
</a>
</g>
</g>
<!-- Node191 -->
<g id="Node000191" class="node">
<title>Node191</title>
<g id="a_Node000191"><a xlink:href="code__80057C60_8c.html#a07233860af03988ae66ceddae57a89aa" target="_top" xlink:title=" ">
<polygon fill="#fff0f0" stroke="red" points="428,-518 336,-518 336,-499 428,-499 428,-518"/>
<text text-anchor="middle" x="382" y="-506" font-family="Helvetica,sans-Serif" font-size="10.00">func_800590D4</text>
</a>
</g>
</g>
<!-- Node140&#45;&gt;Node191 -->
<g id="edge29_Node000140_Node000191" class="edge">
<title>Node140&#45;&gt;Node191</title>
<g id="a_edge29_Node000140_Node000191"><a xlink:title=" ">
<path fill="none" stroke="#63b8ff" d="M245.58,-480.74C269.92,-485.73 300.16,-491.93 325.88,-497.2"/>
<polygon fill="#63b8ff" stroke="#63b8ff" points="325.37,-500.67 335.87,-499.25 326.77,-493.81 325.37,-500.67"/>
</a>
</g>
</g>
<!-- Node19 -->
<g id="Node000019" class="node">
<title>Node19</title>
<g id="a_Node000019"><a xlink:href="GBIMiddleware_8cpp.html#a4ecc44e3c6f1ca5a6b4a20c41d3bd2d2" target="_top" xlink:title=" ">
<polygon fill="#fff0f0" stroke="red" points="426.5,-481 337.5,-481 337.5,-462 426.5,-462 426.5,-481"/>
<text text-anchor="middle" x="382" y="-469" font-family="Helvetica,sans-Serif" font-size="10.00">gSPDisplayList</text>
</a>
</g>
</g>
<!-- Node140&#45;&gt;Node19 -->
<g id="edge30_Node000140_Node000019" class="edge">
<title>Node140&#45;&gt;Node19</title>
<g id="a_edge30_Node000140_Node000019"><a xlink:title=" ">
<path fill="none" stroke="#63b8ff" d="M245.58,-471.5C270.38,-471.5 301.31,-471.5 327.34,-471.5"/>
<polygon fill="#63b8ff" stroke="#63b8ff" points="327.43,-475 337.43,-471.5 327.43,-468 327.43,-475"/>
</a>
</g>
</g>
<!-- Node199 -->
<g id="Node000199" class="node">
<title>Node199</title>
<g id="a_Node000199"><a xlink:href="render__objects_8c.html#ad5b7b39bf3dd9c1145b3e330b0556c81" target="_top" xlink:title=" ">
<polygon fill="#fff0f0" stroke="red" points="447,-443.5 317,-443.5 317,-413.5 447,-413.5 447,-443.5"/>
<text text-anchor="start" x="325" y="-431.5" font-family="Helvetica,sans-Serif" font-size="10.00">set_minimap_finishline</text>
<text text-anchor="middle" x="382" y="-420.5" font-family="Helvetica,sans-Serif" font-size="10.00">_position</text>
</a>
</g>
</g>
<!-- Node140&#45;&gt;Node199 -->
<g id="edge31_Node000140_Node000199" class="edge">
<title>Node140&#45;&gt;Node199</title>
<g id="a_edge31_Node000140_Node000199"><a xlink:title=" ">
<path fill="none" stroke="#63b8ff" d="M240.56,-461.96C260.46,-457.22 285.14,-451.34 308.23,-445.84"/>
<polygon fill="#63b8ff" stroke="#63b8ff" points="309.09,-449.23 318.01,-443.51 307.47,-442.42 309.09,-449.23"/>
</a>
</g>
</g>
<!-- Node205 -->
<g id="Node000205" class="node">
<title>Node205</title>
<g id="a_Node000205"><a xlink:href="Game_8cpp.html#a76052dcdf19901299b26e38b1342aafc" target="_top" xlink:title=" ">
<polygon fill="white" stroke="#666666" points="590,-124 495,-124 495,-105 590,-105 590,-124"/>
<text text-anchor="middle" x="542.5" y="-112" font-family="Helvetica,sans-Serif" font-size="10.00">CM_TickObjects</text>
</a>
</g>
</g>
<!-- Node204&#45;&gt;Node205 -->
<g id="edge33_Node000204_Node000205" class="edge">
<title>Node204&#45;&gt;Node205</title>
<g id="a_edge33_Node000204_Node000205"><a xlink:title=" ">
<path fill="none" stroke="#63b8ff" d="M245.59,-431.36C255.21,-428.61 264.44,-424.02 271,-416.5 316.91,-363.93 254.9,-150.94 307,-104.5 363.35,-54.28 460.93,-81.97 510.57,-101.12"/>
<polygon fill="#63b8ff" stroke="#63b8ff" points="509.53,-104.47 520.12,-104.93 512.13,-97.97 509.53,-104.47"/>
</a>
</g>
</g>
<!-- Node206 -->
<g id="Node000206" class="node">
<title>Node206</title>
<g id="a_Node000206"><a xlink:href="Game_8cpp.html#a02007628d0171593ccc991bf3a496d73" target="_top" xlink:title=" ">
<polygon fill="white" stroke="#666666" points="592,-227 493,-227 493,-208 592,-208 592,-227"/>
<text text-anchor="middle" x="542.5" y="-215" font-family="Helvetica,sans-Serif" font-size="10.00">CM_TickParticles</text>
</a>
</g>
</g>
<!-- Node204&#45;&gt;Node206 -->
<g id="edge34_Node000204_Node000206" class="edge">
<title>Node204&#45;&gt;Node206</title>
<g id="a_edge34_Node000204_Node000206"><a xlink:title=" ">
<path fill="none" stroke="#63b8ff" d="M245.76,-430.64C255.14,-427.88 264.22,-423.48 271,-416.5 321.8,-364.23 254.02,-306.56 307,-256.5 331.67,-233.19 421.45,-223.73 482.48,-219.95"/>
<polygon fill="#63b8ff" stroke="#63b8ff" points="482.99,-223.43 492.77,-219.35 482.58,-216.44 482.99,-223.43"/>
</a>
</g>
</g>
<!-- Node207 -->
<g id="Node000207" class="node">
<title>Node207</title>
<g id="a_Node000207"><a xlink:href="math__util__2_8c.html#ae43d750d31e45ae2a51b6ca6d87d1570" target="_top" xlink:title=" ">
<polygon fill="#fff0f0" stroke="red" points="428,-132 336,-132 336,-113 428,-113 428,-132"/>
<text text-anchor="middle" x="382" y="-120" font-family="Helvetica,sans-Serif" font-size="10.00">func_80041D34</text>
</a>
</g>
</g>
<!-- Node204&#45;&gt;Node207 -->
<g id="edge35_Node000204_Node000207" class="edge">
<title>Node204&#45;&gt;Node207</title>
<g id="a_edge35_Node000204_Node000207"><a xlink:title=" ">
<path fill="none" stroke="#63b8ff" d="M245.86,-431.18C255.35,-428.41 264.45,-423.86 271,-416.5 351.43,-326.02 229.49,-239.49 307,-146.5 312.17,-140.3 318.96,-135.69 326.33,-132.26"/>
<polygon fill="#63b8ff" stroke="#63b8ff" points="327.86,-135.42 335.9,-128.52 325.31,-128.9 327.86,-135.42"/>
</a>
</g>
</g>
<!-- Node210 -->
<g id="Node000210" class="node">
<title>Node210</title>
<g id="a_Node000210"><a xlink:href="code__80057C60_8c.html#a3ddea993374238b2d2a8b009ae479f88" target="_top" xlink:title=" ">
<polygon fill="white" stroke="#666666" points="588,-180 497,-180 497,-161 588,-161 588,-180"/>
<text text-anchor="middle" x="542.5" y="-168" font-family="Helvetica,sans-Serif" font-size="10.00">func_80059820</text>
</a>
</g>
</g>
<!-- Node204&#45;&gt;Node210 -->
<g id="edge36_Node000204_Node000210" class="edge">
<title>Node204&#45;&gt;Node210</title>
<g id="a_edge36_Node000204_Node000210"><a xlink:title=" ">
<path fill="none" stroke="#63b8ff" d="M245.76,-431.09C255.26,-428.33 264.38,-423.8 271,-416.5 342.24,-337.87 228.01,-251.34 307,-180.5 359.9,-133.06 449.54,-145.61 501.32,-158.43"/>
<polygon fill="#63b8ff" stroke="#63b8ff" points="500.59,-161.86 511.15,-160.98 502.35,-155.08 500.59,-161.86"/>
</a>
</g>
</g>
<!-- Node211 -->
<g id="Node000211" class="node">
<title>Node211</title>
<g id="a_Node000211"><a xlink:href="code__80057C60_8c.html#a48f7fc1ba7acccec2d7b6e0a59f65dc5" target="_top" xlink:title=" ">
<polygon fill="#fff0f0" stroke="red" points="428,-208 336,-208 336,-189 428,-189 428,-208"/>
<text text-anchor="middle" x="382" y="-196" font-family="Helvetica,sans-Serif" font-size="10.00">func_80059D00</text>
</a>
</g>
</g>
<!-- Node204&#45;&gt;Node211 -->
<g id="edge37_Node000204_Node000211" class="edge">
<title>Node204&#45;&gt;Node211</title>
<g id="a_edge37_Node000204_Node000211"><a xlink:title=" ">
<path fill="none" stroke="#63b8ff" d="M245.59,-430.93C255.09,-428.18 264.27,-423.69 271,-416.5 330.91,-352.46 249.15,-288.41 307,-222.5 312.26,-216.5 319.03,-212 326.34,-208.61"/>
<polygon fill="#63b8ff" stroke="#63b8ff" points="327.78,-211.81 335.81,-204.9 325.22,-205.29 327.78,-211.81"/>
</a>
</g>
</g>
<!-- Node211&#45;&gt;Node205 -->
<g id="edge38_Node000211_Node000205" class="edge">
<title>Node211&#45;&gt;Node205</title>
<g id="a_edge38_Node000211_Node000205"><a xlink:title=" ">
<path fill="none" stroke="#63b8ff" d="M401.18,-188.86C429.01,-174.12 482.32,-145.86 514.62,-128.74"/>
<polygon fill="#63b8ff" stroke="#63b8ff" points="516.33,-131.8 523.53,-124.02 513.06,-125.61 516.33,-131.8"/>
</a>
</g>
</g>
<!-- Node211&#45;&gt;Node206 -->
<g id="edge39_Node000211_Node000206" class="edge">
<title>Node211&#45;&gt;Node206</title>
<g id="a_edge39_Node000211_Node000206"><a xlink:title=" ">
<path fill="none" stroke="#63b8ff" d="M428.42,-203.94C445.32,-205.97 464.75,-208.3 482.68,-210.45"/>
<polygon fill="#63b8ff" stroke="#63b8ff" points="482.4,-213.94 492.75,-211.66 483.24,-206.99 482.4,-213.94"/>
</a>
</g>
</g>
<!-- Node211&#45;&gt;Node210 -->
<g id="edge40_Node000211_Node000210" class="edge">
<title>Node211&#45;&gt;Node210</title>
<g id="a_edge40_Node000211_Node000210"><a xlink:title=" ">
<path fill="none" stroke="#63b8ff" d="M428.42,-190.48C446.64,-187.26 467.8,-183.52 486.86,-180.15"/>
<polygon fill="#63b8ff" stroke="#63b8ff" points="487.66,-183.57 496.89,-178.38 486.44,-176.67 487.66,-183.57"/>
</a>
</g>
</g>
<!-- Node1513&#45;&gt;Node656 -->
<g id="edge44_Node001513_Node000656" class="edge">
<title>Node1513&#45;&gt;Node656</title>
<g id="a_edge44_Node001513_Node000656"><a xlink:title=" ">
<path fill="none" stroke="#63b8ff" d="M245.52,-239.66C255.03,-236.11 264.22,-230.97 271,-223.5 317.94,-171.77 259.68,-121.89 307,-70.5 316.84,-59.81 331.48,-53.87 345.14,-50.57"/>
<polygon fill="#63b8ff" stroke="#63b8ff" points="346.19,-53.93 355.31,-48.53 344.82,-47.06 346.19,-53.93"/>
</a>
</g>
</g>
<!-- Node1513&#45;&gt;Node666 -->
<g id="edge45_Node001513_Node000666" class="edge">
<title>Node1513&#45;&gt;Node666</title>
<g id="a_edge45_Node001513_Node000666"><a xlink:title=" ">
<path fill="none" stroke="#63b8ff" d="M245.8,-239.9C255.29,-236.34 264.41,-231.13 271,-223.5 328.88,-156.46 246.18,-91.89 307,-27.5 310.2,-24.11 313.93,-21.31 317.97,-19.01"/>
<polygon fill="#63b8ff" stroke="#63b8ff" points="319.64,-22.09 327.24,-14.72 316.7,-15.74 319.64,-22.09"/>
</a>
</g>
</g>
<!-- Node1514&#45;&gt;Node35 -->
<g id="edge47_Node001514_Node000035" class="edge">
<title>Node1514&#45;&gt;Node35</title>
<g id="a_edge47_Node001514_Node000035"><a xlink:title=" ">
<path fill="none" stroke="#63b8ff" d="M240.56,-734.04C267.32,-740.42 302.7,-748.85 331.26,-755.65"/>
<polygon fill="#63b8ff" stroke="#63b8ff" points="330.51,-759.07 341.05,-757.98 332.14,-752.26 330.51,-759.07"/>
</a>
</g>
</g>
<!-- Node1674&#45;&gt;Node656 -->
<g id="edge54_Node001674_Node000656" class="edge">
<title>Node1674&#45;&gt;Node656</title>
<g id="a_edge54_Node001674_Node000656"><a xlink:title=" ">
<path fill="none" stroke="#63b8ff" d="M245.21,-316.29C254.96,-312.73 264.34,-307.42 271,-299.5 337.32,-220.65 240.11,-148.86 307,-70.5 316.6,-59.26 331.51,-53.24 345.44,-50.04"/>
<polygon fill="#63b8ff" stroke="#63b8ff" points="346.15,-53.47 355.32,-48.17 344.85,-46.59 346.15,-53.47"/>
</a>
</g>
</g>
</g>
</svg>
