<?xml version="1.0" encoding="UTF-8" standalone="no"?>
<!DOCTYPE svg PUBLIC "-//W3C//DTD SVG 1.1//EN"
 "http://www.w3.org/Graphics/SVG/1.1/DTD/svg11.dtd">
<!-- Generated by graphviz version 2.43.0 (0)
 -->
<!-- Title: game_init_clear_framebuffer Pages: 1 -->
<svg width="1017pt" height="65pt"
 viewBox="0.00 0.00 1017.00 65.00" xmlns="http://www.w3.org/2000/svg" xmlns:xlink="http://www.w3.org/1999/xlink">
<g id="graph0" class="graph" transform="scale(1 1) rotate(0) translate(4 61)">
<title>game_init_clear_framebuffer</title>
<!-- Node1 -->
<g id="Node000001" class="node">
<title>Node1</title>
<g id="a_Node000001"><a xlink:title=" ">
<polygon fill="#999999" stroke="#666666" points="158,-38 0,-38 0,-19 158,-19 158,-38"/>
<text text-anchor="middle" x="79" y="-26" font-family="Helvetica,sans-Serif" font-size="10.00">game_init_clear_framebuffer</text>
</a>
</g>
</g>
<!-- Node2 -->
<g id="Node000002" class="node">
<title>Node2</title>
<g id="a_Node000002"><a xlink:href="main_8c.html#ac6df158ad2a863eb16f6b82e12ea26e4" target="_top" xlink:title=" ">
<polygon fill="white" stroke="#666666" points="298,-38 194,-38 194,-19 298,-19 298,-38"/>
<text text-anchor="middle" x="246" y="-26" font-family="Helvetica,sans-Serif" font-size="10.00">clear_framebuffer</text>
</a>
</g>
</g>
<!-- Node1&#45;&gt;Node2 -->
<g id="edge1_Node000001_Node000002" class="edge">
<title>Node1&#45;&gt;Node2</title>
<g id="a_edge1_Node000001_Node000002"><a xlink:title=" ">
<path fill="none" stroke="#63b8ff" d="M158.15,-28.5C166.8,-28.5 175.51,-28.5 183.9,-28.5"/>
<polygon fill="#63b8ff" stroke="#63b8ff" points="183.95,-32 193.95,-28.5 183.95,-25 183.95,-32"/>
</a>
</g>
</g>
<!-- Node3 -->
<g id="Node000003" class="node">
<title>Node3</title>
<g id="a_Node000003"><a xlink:href="Engine_8cpp.html#a0b2a0a6072d24bc155959292bc165961" target="_top" xlink:title=" ">
<polygon fill="white" stroke="#666666" points="724.5,-57 578.5,-57 578.5,-38 724.5,-38 724.5,-57"/>
<text text-anchor="middle" x="651.5" y="-45" font-family="Helvetica,sans-Serif" font-size="10.00">OTRGetGameRenderWidth</text>
</a>
</g>
</g>
<!-- Node2&#45;&gt;Node3 -->
<g id="edge2_Node000002_Node000003" class="edge">
<title>Node2&#45;&gt;Node3</title>
<g id="a_edge2_Node000002_Node000003"><a xlink:title=" ">
<path fill="none" stroke="#63b8ff" d="M298.1,-30.91C366.13,-34.11 487.24,-39.81 568.22,-43.63"/>
<polygon fill="#63b8ff" stroke="#63b8ff" points="568.23,-47.13 578.38,-44.1 568.56,-40.14 568.23,-47.13"/>
</a>
</g>
</g>
<!-- Node5 -->
<g id="Node000005" class="node">
<title>Node5</title>
<g id="a_Node000005"><a xlink:href="Engine_8cpp.html#af8ad96e953b60eb630f5261745844e45" target="_top" xlink:title=" ">
<polygon fill="white" stroke="#666666" points="529,-19 334,-19 334,0 529,0 529,-19"/>
<text text-anchor="middle" x="431.5" y="-7" font-family="Helvetica,sans-Serif" font-size="10.00">OTRGetRectDimensionFromLeftEdge</text>
</a>
</g>
</g>
<!-- Node2&#45;&gt;Node5 -->
<g id="edge4_Node000002_Node000005" class="edge">
<title>Node2&#45;&gt;Node5</title>
<g id="a_edge4_Node000002_Node000005"><a xlink:title=" ">
<path fill="none" stroke="#63b8ff" d="M298.11,-23.21C307.68,-22.22 317.98,-21.15 328.46,-20.07"/>
<polygon fill="#63b8ff" stroke="#63b8ff" points="328.96,-23.53 338.55,-19.02 328.24,-16.57 328.96,-23.53"/>
</a>
</g>
</g>
<!-- Node4 -->
<g id="Node000004" class="node">
<title>Node4</title>
<g id="a_Node000004"><a xlink:href="Engine_8cpp.html#a29357c424545be61af4bd28d84fd344a" target="_top" xlink:title=" ">
<polygon fill="white" stroke="#666666" points="1009,-38 923,-38 923,-19 1009,-19 1009,-38"/>
<text text-anchor="middle" x="966" y="-26" font-family="Helvetica,sans-Serif" font-size="10.00">GetInterpreter</text>
</a>
</g>
</g>
<!-- Node3&#45;&gt;Node4 -->
<g id="edge3_Node000003_Node000004" class="edge">
<title>Node3&#45;&gt;Node4</title>
<g id="a_edge3_Node000003_Node000004"><a xlink:title=" ">
<path fill="none" stroke="#63b8ff" d="M724.59,-43.12C781.92,-39.63 860.81,-34.83 912.34,-31.7"/>
<polygon fill="#63b8ff" stroke="#63b8ff" points="912.81,-35.18 922.58,-31.08 912.39,-28.19 912.81,-35.18"/>
</a>
</g>
</g>
<!-- Node6 -->
<g id="Node000006" class="node">
<title>Node6</title>
<g id="a_Node000006"><a xlink:href="Engine_8cpp.html#afc8b077c3a02d35419cae70c83942941" target="_top" xlink:title=" ">
<polygon fill="white" stroke="#666666" points="738,-19 565,-19 565,0 738,0 738,-19"/>
<text text-anchor="middle" x="651.5" y="-7" font-family="Helvetica,sans-Serif" font-size="10.00">OTRGetDimensionFromLeftEdge</text>
</a>
</g>
</g>
<!-- Node5&#45;&gt;Node6 -->
<g id="edge5_Node000005_Node000006" class="edge">
<title>Node5&#45;&gt;Node6</title>
<g id="a_edge5_Node000005_Node000006"><a xlink:title=" ">
<path fill="none" stroke="#63b8ff" d="M529.07,-9.5C537.67,-9.5 546.36,-9.5 554.95,-9.5"/>
<polygon fill="#63b8ff" stroke="#63b8ff" points="554.97,-13 564.97,-9.5 554.97,-6 554.97,-13"/>
</a>
</g>
</g>
<!-- Node7 -->
<g id="Node000007" class="node">
<title>Node7</title>
<g id="a_Node000007"><a xlink:href="Engine_8cpp.html#a130aa97f1c7fae24f3d23f8126e7506f" target="_top" xlink:title=" ">
<polygon fill="white" stroke="#666666" points="887,-19 774,-19 774,0 887,0 887,-19"/>
<text text-anchor="middle" x="830.5" y="-7" font-family="Helvetica,sans-Serif" font-size="10.00">OTRGetAspectRatio</text>
</a>
</g>
</g>
<!-- Node6&#45;&gt;Node7 -->
<g id="edge6_Node000006_Node000007" class="edge">
<title>Node6&#45;&gt;Node7</title>
<g id="a_edge6_Node000006_Node000007"><a xlink:title=" ">
<path fill="none" stroke="#63b8ff" d="M738.15,-9.5C746.81,-9.5 755.5,-9.5 763.9,-9.5"/>
<polygon fill="#63b8ff" stroke="#63b8ff" points="763.97,-13 773.97,-9.5 763.97,-6 763.97,-13"/>
</a>
</g>
</g>
<!-- Node7&#45;&gt;Node4 -->
<g id="edge7_Node000007_Node000004" class="edge">
<title>Node7&#45;&gt;Node4</title>
<g id="a_edge7_Node000007_Node000004"><a xlink:title=" ">
<path fill="none" stroke="#63b8ff" d="M887.34,-17.45C895.77,-18.65 904.45,-19.88 912.8,-21.07"/>
<polygon fill="#63b8ff" stroke="#63b8ff" points="912.39,-24.55 922.79,-22.49 913.38,-17.62 912.39,-24.55"/>
</a>
</g>
</g>
</g>
</svg>
