<?xml version="1.0" encoding="UTF-8" standalone="no"?>
<!DOCTYPE svg PUBLIC "-//W3C//DTD SVG 1.1//EN"
 "http://www.w3.org/Graphics/SVG/1.1/DTD/svg11.dtd">
<!-- Generated by graphviz version 2.43.0 (0)
 -->
<!-- Title: include/assets/models/tracks/mario_raceway/mario_raceway_vertices.h Pages: 1 -->
<svg width="759pt" height="181pt"
 viewBox="0.00 0.00 759.00 181.00" xmlns="http://www.w3.org/2000/svg" xmlns:xlink="http://www.w3.org/1999/xlink">
<g id="graph0" class="graph" transform="scale(1 1) rotate(0) translate(4 177)">
<title>include/assets/models/tracks/mario_raceway/mario_raceway_vertices.h</title>
<!-- Node1 -->
<g id="Node000001" class="node">
<title>Node1</title>
<g id="a_Node000001"><a xlink:title=" ">
<polygon fill="#999999" stroke="#666666" points="330.5,-173 182.5,-173 182.5,-132 330.5,-132 330.5,-173"/>
<text text-anchor="start" x="190.5" y="-161" font-family="Helvetica,sans-Serif" font-size="10.00">include/assets/models</text>
<text text-anchor="start" x="190.5" y="-150" font-family="Helvetica,sans-Serif" font-size="10.00">/tracks/mario_raceway</text>
<text text-anchor="middle" x="256.5" y="-139" font-family="Helvetica,sans-Serif" font-size="10.00">/mario_raceway_vertices.h</text>
</a>
</g>
</g>
<!-- Node2 -->
<g id="Node000002" class="node">
<title>Node2</title>
<g id="a_Node000002"><a xlink:href="all__course__model_8h.html" target="_top" xlink:title=" ">
<polygon fill="white" stroke="#666666" points="119,-96 12,-96 12,-66 119,-66 119,-96"/>
<text text-anchor="start" x="20" y="-84" font-family="Helvetica,sans-Serif" font-size="10.00">courses/all_course</text>
<text text-anchor="middle" x="65.5" y="-73" font-family="Helvetica,sans-Serif" font-size="10.00">_model.h</text>
</a>
</g>
</g>
<!-- Node1&#45;&gt;Node2 -->
<g id="edge1_Node000001_Node000002" class="edge">
<title>Node1&#45;&gt;Node2</title>
<g id="a_edge1_Node000001_Node000002"><a xlink:title=" ">
<path fill="none" stroke="#63b8ff" d="M193.38,-128.53C163.83,-117.78 129.59,-105.32 103.99,-96"/>
<polygon fill="#63b8ff" stroke="#63b8ff" points="192.19,-131.82 202.79,-131.96 194.59,-125.25 192.19,-131.82"/>
</a>
</g>
</g>
<!-- Node4 -->
<g id="Node000004" class="node">
<title>Node4</title>
<g id="a_Node000004"><a xlink:href="Harbour_8h.html" target="_top" xlink:title=" ">
<polygon fill="white" stroke="#666666" points="248,-96 141,-96 141,-66 248,-66 248,-96"/>
<text text-anchor="start" x="149" y="-84" font-family="Helvetica,sans-Serif" font-size="10.00">src/engine/courses</text>
<text text-anchor="middle" x="194.5" y="-73" font-family="Helvetica,sans-Serif" font-size="10.00">/Harbour.h</text>
</a>
</g>
</g>
<!-- Node1&#45;&gt;Node4 -->
<g id="edge3_Node000001_Node000004" class="edge">
<title>Node1&#45;&gt;Node4</title>
<g id="a_edge3_Node000001_Node000004"><a xlink:title=" ">
<path fill="none" stroke="#63b8ff" d="M232.2,-124.26C223.59,-114.61 214.25,-104.14 207.02,-96.04"/>
<polygon fill="#63b8ff" stroke="#63b8ff" points="229.63,-126.64 238.9,-131.77 234.85,-121.98 229.63,-126.64"/>
</a>
</g>
</g>
<!-- Node6 -->
<g id="Node000006" class="node">
<title>Node6</title>
<g id="a_Node000006"><a xlink:href="MarioRaceway_8h.html" target="_top" xlink:title=" ">
<polygon fill="white" stroke="#666666" points="436,-96 329,-96 329,-66 436,-66 436,-96"/>
<text text-anchor="start" x="337" y="-84" font-family="Helvetica,sans-Serif" font-size="10.00">src/engine/courses</text>
<text text-anchor="middle" x="382.5" y="-73" font-family="Helvetica,sans-Serif" font-size="10.00">/MarioRaceway.h</text>
</a>
</g>
</g>
<!-- Node1&#45;&gt;Node6 -->
<g id="edge5_Node000001_Node000006" class="edge">
<title>Node1&#45;&gt;Node6</title>
<g id="a_edge5_Node000001_Node000006"><a xlink:title=" ">
<path fill="none" stroke="#63b8ff" d="M300.91,-127C319.67,-116.66 340.84,-104.98 356.91,-96.11"/>
<polygon fill="#63b8ff" stroke="#63b8ff" points="299,-124.06 291.93,-131.96 302.38,-130.19 299,-124.06"/>
</a>
</g>
</g>
<!-- Node10 -->
<g id="Node000010" class="node">
<title>Node10</title>
<g id="a_Node000010"><a xlink:href="TestCourse_8h.html" target="_top" xlink:title=" ">
<polygon fill="white" stroke="#666666" points="626,-96 519,-96 519,-66 626,-66 626,-96"/>
<text text-anchor="start" x="527" y="-84" font-family="Helvetica,sans-Serif" font-size="10.00">src/engine/courses</text>
<text text-anchor="middle" x="572.5" y="-73" font-family="Helvetica,sans-Serif" font-size="10.00">/TestCourse.h</text>
</a>
</g>
</g>
<!-- Node1&#45;&gt;Node10 -->
<g id="edge9_Node000001_Node000010" class="edge">
<title>Node1&#45;&gt;Node10</title>
<g id="a_edge9_Node000001_Node000010"><a xlink:title=" ">
<path fill="none" stroke="#63b8ff" d="M340.58,-133.01C397.06,-120.59 469.8,-104.59 518.63,-93.85"/>
<polygon fill="#63b8ff" stroke="#63b8ff" points="339.6,-129.64 330.59,-135.21 341.11,-136.48 339.6,-129.64"/>
</a>
</g>
</g>
<!-- Node3 -->
<g id="Node000003" class="node">
<title>Node3</title>
<g id="a_Node000003"><a xlink:href="courseTable_8c.html" target="_top" xlink:title=" ">
<polygon fill="white" stroke="#666666" points="123,-24.5 0,-24.5 0,-5.5 123,-5.5 123,-24.5"/>
<text text-anchor="middle" x="61.5" y="-12.5" font-family="Helvetica,sans-Serif" font-size="10.00">courses/courseTable.c</text>
</a>
</g>
</g>
<!-- Node2&#45;&gt;Node3 -->
<g id="edge2_Node000002_Node000003" class="edge">
<title>Node2&#45;&gt;Node3</title>
<g id="a_edge2_Node000002_Node000003"><a xlink:title=" ">
<path fill="none" stroke="#63b8ff" d="M63.98,-55.6C63.3,-44.8 62.55,-32.78 62.05,-24.84"/>
<polygon fill="#63b8ff" stroke="#63b8ff" points="60.5,-56.03 64.61,-65.8 67.48,-55.6 60.5,-56.03"/>
</a>
</g>
</g>
<!-- Node5 -->
<g id="Node000005" class="node">
<title>Node5</title>
<g id="a_Node000005"><a xlink:href="Harbour_8cpp.html" target="_top" xlink:title=" ">
<polygon fill="white" stroke="#666666" points="248,-30 141,-30 141,0 248,0 248,-30"/>
<text text-anchor="start" x="149" y="-18" font-family="Helvetica,sans-Serif" font-size="10.00">src/engine/courses</text>
<text text-anchor="middle" x="194.5" y="-7" font-family="Helvetica,sans-Serif" font-size="10.00">/Harbour.cpp</text>
</a>
</g>
</g>
<!-- Node4&#45;&gt;Node5 -->
<g id="edge4_Node000004_Node000005" class="edge">
<title>Node4&#45;&gt;Node5</title>
<g id="a_edge4_Node000004_Node000005"><a xlink:title=" ">
<path fill="none" stroke="#63b8ff" d="M194.5,-55.54C194.5,-46.96 194.5,-37.61 194.5,-30.16"/>
<polygon fill="#63b8ff" stroke="#63b8ff" points="191,-55.8 194.5,-65.8 198,-55.8 191,-55.8"/>
</a>
</g>
</g>
<!-- Node7 -->
<g id="Node000007" class="node">
<title>Node7</title>
<g id="a_Node000007"><a xlink:href="Course_8cpp.html" target="_top" xlink:title=" ">
<polygon fill="white" stroke="#666666" points="373,-30 266,-30 266,0 373,0 373,-30"/>
<text text-anchor="start" x="274" y="-18" font-family="Helvetica,sans-Serif" font-size="10.00">src/engine/courses</text>
<text text-anchor="middle" x="319.5" y="-7" font-family="Helvetica,sans-Serif" font-size="10.00">/Course.cpp</text>
</a>
</g>
</g>
<!-- Node6&#45;&gt;Node7 -->
<g id="edge6_Node000006_Node000007" class="edge">
<title>Node6&#45;&gt;Node7</title>
<g id="a_edge6_Node000006_Node000007"><a xlink:title=" ">
<path fill="none" stroke="#63b8ff" d="M361.48,-58.65C352.25,-49.27 341.67,-38.53 333.44,-30.16"/>
<polygon fill="#63b8ff" stroke="#63b8ff" points="359.01,-61.13 368.52,-65.8 364,-56.21 359.01,-61.13"/>
</a>
</g>
</g>
<!-- Node8 -->
<g id="Node000008" class="node">
<title>Node8</title>
<g id="a_Node000008"><a xlink:href="MarioRaceway_8cpp.html" target="_top" xlink:title=" ">
<polygon fill="white" stroke="#666666" points="501.5,-30 391.5,-30 391.5,0 501.5,0 501.5,-30"/>
<text text-anchor="start" x="399.5" y="-18" font-family="Helvetica,sans-Serif" font-size="10.00">src/engine/courses</text>
<text text-anchor="middle" x="446.5" y="-7" font-family="Helvetica,sans-Serif" font-size="10.00">/MarioRaceway.cpp</text>
</a>
</g>
</g>
<!-- Node6&#45;&gt;Node8 -->
<g id="edge7_Node000006_Node000008" class="edge">
<title>Node6&#45;&gt;Node8</title>
<g id="a_edge7_Node000006_Node000008"><a xlink:title=" ">
<path fill="none" stroke="#63b8ff" d="M403.85,-58.65C413.23,-49.27 423.97,-38.53 432.34,-30.16"/>
<polygon fill="#63b8ff" stroke="#63b8ff" points="401.3,-56.25 396.7,-65.8 406.25,-61.2 401.3,-56.25"/>
</a>
</g>
</g>
<!-- Node9 -->
<g id="Node000009" class="node">
<title>Node9</title>
<g id="a_Node000009"><a xlink:href="Game_8cpp.html" target="_top" xlink:title=" ">
<polygon fill="white" stroke="#666666" points="625.5,-24.5 519.5,-24.5 519.5,-5.5 625.5,-5.5 625.5,-24.5"/>
<text text-anchor="middle" x="572.5" y="-12.5" font-family="Helvetica,sans-Serif" font-size="10.00">src/port/Game.cpp</text>
</a>
</g>
</g>
<!-- Node6&#45;&gt;Node9 -->
<g id="edge8_Node000006_Node000009" class="edge">
<title>Node6&#45;&gt;Node9</title>
<g id="a_edge8_Node000006_Node000009"><a xlink:title=" ">
<path fill="none" stroke="#63b8ff" d="M433.75,-62.74C470.49,-50.36 518.38,-34.23 547.21,-24.52"/>
<polygon fill="#63b8ff" stroke="#63b8ff" points="432.56,-59.45 424.2,-65.95 434.79,-66.08 432.56,-59.45"/>
</a>
</g>
</g>
<!-- Node10&#45;&gt;Node9 -->
<g id="edge11_Node000010_Node000009" class="edge">
<title>Node10&#45;&gt;Node9</title>
<g id="a_edge11_Node000010_Node000009"><a xlink:title=" ">
<path fill="none" stroke="#63b8ff" d="M572.5,-55.6C572.5,-44.8 572.5,-32.78 572.5,-24.84"/>
<polygon fill="#63b8ff" stroke="#63b8ff" points="569,-55.8 572.5,-65.8 576,-55.8 569,-55.8"/>
</a>
</g>
</g>
<!-- Node11 -->
<g id="Node000011" class="node">
<title>Node11</title>
<g id="a_Node000011"><a xlink:href="TestCourse_8cpp.html" target="_top" xlink:title=" ">
<polygon fill="white" stroke="#666666" points="751,-30 644,-30 644,0 751,0 751,-30"/>
<text text-anchor="start" x="652" y="-18" font-family="Helvetica,sans-Serif" font-size="10.00">src/engine/courses</text>
<text text-anchor="middle" x="697.5" y="-7" font-family="Helvetica,sans-Serif" font-size="10.00">/TestCourse.cpp</text>
</a>
</g>
</g>
<!-- Node10&#45;&gt;Node11 -->
<g id="edge10_Node000010_Node000011" class="edge">
<title>Node10&#45;&gt;Node11</title>
<g id="a_edge10_Node000010_Node000011"><a xlink:title=" ">
<path fill="none" stroke="#63b8ff" d="M608.87,-61.38C628.43,-51.36 652.15,-39.22 670.13,-30.01"/>
<polygon fill="#63b8ff" stroke="#63b8ff" points="607.24,-58.28 599.93,-65.95 610.43,-64.51 607.24,-58.28"/>
</a>
</g>
</g>
</g>
</svg>
