<?xml version="1.0" encoding="UTF-8" standalone="no"?>
<!DOCTYPE svg PUBLIC "-//W3C//DTD SVG 1.1//EN"
 "http://www.w3.org/Graphics/SVG/1.1/DTD/svg11.dtd">
<!-- Generated by graphviz version 2.43.0 (0)
 -->
<!-- Title: include/assets/models/tracks/mario_raceway/mario_raceway_displaylists.h Pages: 1 -->
<svg width="1220pt" height="291pt"
 viewBox="0.00 0.00 1220.00 291.00" xmlns="http://www.w3.org/2000/svg" xmlns:xlink="http://www.w3.org/1999/xlink">
<g id="graph0" class="graph" transform="scale(1 1) rotate(0) translate(4 287)">
<title>include/assets/models/tracks/mario_raceway/mario_raceway_displaylists.h</title>
<!-- Node1 -->
<g id="Node000001" class="node">
<title>Node1</title>
<g id="a_Node000001"><a xlink:title=" ">
<polygon fill="#999999" stroke="#666666" points="799.5,-283 635.5,-283 635.5,-242 799.5,-242 799.5,-283"/>
<text text-anchor="start" x="643.5" y="-271" font-family="Helvetica,sans-Serif" font-size="10.00">include/assets/models</text>
<text text-anchor="start" x="643.5" y="-260" font-family="Helvetica,sans-Serif" font-size="10.00">/tracks/mario_raceway</text>
<text text-anchor="middle" x="717.5" y="-249" font-family="Helvetica,sans-Serif" font-size="10.00">/mario_raceway_displaylists.h</text>
</a>
</g>
</g>
<!-- Node2 -->
<g id="Node000002" class="node">
<title>Node2</title>
<g id="a_Node000002"><a xlink:href="all__course__packed_8h.html" target="_top" xlink:title=" ">
<polygon fill="white" stroke="#666666" points="401,-206 294,-206 294,-176 401,-176 401,-206"/>
<text text-anchor="start" x="302" y="-194" font-family="Helvetica,sans-Serif" font-size="10.00">courses/all_course</text>
<text text-anchor="middle" x="347.5" y="-183" font-family="Helvetica,sans-Serif" font-size="10.00">_packed.h</text>
</a>
</g>
</g>
<!-- Node1&#45;&gt;Node2 -->
<g id="edge1_Node000001_Node000002" class="edge">
<title>Node1&#45;&gt;Node2</title>
<g id="a_edge1_Node000001_Node000002"><a xlink:title=" ">
<path fill="none" stroke="#63b8ff" d="M625.15,-244.15C554.54,-230.89 459.65,-213.07 401.08,-202.06"/>
<polygon fill="#63b8ff" stroke="#63b8ff" points="624.91,-247.67 635.39,-246.08 626.2,-240.79 624.91,-247.67"/>
</a>
</g>
</g>
<!-- Node9 -->
<g id="Node000009" class="node">
<title>Node9</title>
<g id="a_Node000009"><a xlink:href="Harbour_8h.html" target="_top" xlink:title=" ">
<polygon fill="white" stroke="#666666" points="709,-206 602,-206 602,-176 709,-176 709,-206"/>
<text text-anchor="start" x="610" y="-194" font-family="Helvetica,sans-Serif" font-size="10.00">src/engine/courses</text>
<text text-anchor="middle" x="655.5" y="-183" font-family="Helvetica,sans-Serif" font-size="10.00">/Harbour.h</text>
</a>
</g>
</g>
<!-- Node1&#45;&gt;Node9 -->
<g id="edge8_Node000001_Node000009" class="edge">
<title>Node1&#45;&gt;Node9</title>
<g id="a_edge8_Node000001_Node000009"><a xlink:title=" ">
<path fill="none" stroke="#63b8ff" d="M693.2,-234.26C684.59,-224.61 675.25,-214.14 668.02,-206.04"/>
<polygon fill="#63b8ff" stroke="#63b8ff" points="690.63,-236.64 699.9,-241.77 695.85,-231.98 690.63,-236.64"/>
</a>
</g>
</g>
<!-- Node11 -->
<g id="Node000011" class="node">
<title>Node11</title>
<g id="a_Node000011"><a xlink:href="MarioRaceway_8h.html" target="_top" xlink:title=" ">
<polygon fill="white" stroke="#666666" points="897,-206 790,-206 790,-176 897,-176 897,-206"/>
<text text-anchor="start" x="798" y="-194" font-family="Helvetica,sans-Serif" font-size="10.00">src/engine/courses</text>
<text text-anchor="middle" x="843.5" y="-183" font-family="Helvetica,sans-Serif" font-size="10.00">/MarioRaceway.h</text>
</a>
</g>
</g>
<!-- Node1&#45;&gt;Node11 -->
<g id="edge10_Node000001_Node000011" class="edge">
<title>Node1&#45;&gt;Node11</title>
<g id="a_edge10_Node000001_Node000011"><a xlink:title=" ">
<path fill="none" stroke="#63b8ff" d="M761.91,-237C780.67,-226.66 801.84,-214.98 817.91,-206.11"/>
<polygon fill="#63b8ff" stroke="#63b8ff" points="760,-234.06 752.93,-241.96 763.38,-240.19 760,-234.06"/>
</a>
</g>
</g>
<!-- Node15 -->
<g id="Node000015" class="node">
<title>Node15</title>
<g id="a_Node000015"><a xlink:href="TestCourse_8h.html" target="_top" xlink:title=" ">
<polygon fill="white" stroke="#666666" points="1087,-206 980,-206 980,-176 1087,-176 1087,-206"/>
<text text-anchor="start" x="988" y="-194" font-family="Helvetica,sans-Serif" font-size="10.00">src/engine/courses</text>
<text text-anchor="middle" x="1033.5" y="-183" font-family="Helvetica,sans-Serif" font-size="10.00">/TestCourse.h</text>
</a>
</g>
</g>
<!-- Node1&#45;&gt;Node15 -->
<g id="edge14_Node000001_Node000015" class="edge">
<title>Node1&#45;&gt;Node15</title>
<g id="a_edge14_Node000001_Node000015"><a xlink:title=" ">
<path fill="none" stroke="#63b8ff" d="M809.52,-241.26C864.88,-229.09 933.41,-214.01 979.99,-203.77"/>
<polygon fill="#63b8ff" stroke="#63b8ff" points="808.72,-237.85 799.7,-243.42 810.22,-244.69 808.72,-237.85"/>
</a>
</g>
</g>
<!-- Node3 -->
<g id="Node000003" class="node">
<title>Node3</title>
<g id="a_Node000003"><a xlink:href="courseTable_8c.html" target="_top" xlink:title=" ">
<polygon fill="white" stroke="#666666" points="123,-134.5 0,-134.5 0,-115.5 123,-115.5 123,-134.5"/>
<text text-anchor="middle" x="61.5" y="-122.5" font-family="Helvetica,sans-Serif" font-size="10.00">courses/courseTable.c</text>
</a>
</g>
</g>
<!-- Node2&#45;&gt;Node3 -->
<g id="edge2_Node000002_Node000003" class="edge">
<title>Node2&#45;&gt;Node3</title>
<g id="a_edge2_Node000002_Node000003"><a xlink:title=" ">
<path fill="none" stroke="#63b8ff" d="M283.8,-175.74C227.26,-163.09 146.53,-145.03 99.52,-134.51"/>
<polygon fill="#63b8ff" stroke="#63b8ff" points="283.18,-179.19 293.71,-177.96 284.71,-172.36 283.18,-179.19"/>
</a>
</g>
</g>
<!-- Node4 -->
<g id="Node000004" class="node">
<title>Node4</title>
<g id="a_Node000004"><a xlink:href="code__800029B0_8c.html" target="_top" xlink:title=" ">
<polygon fill="white" stroke="#666666" points="260,-134.5 141,-134.5 141,-115.5 260,-115.5 260,-134.5"/>
<text text-anchor="middle" x="200.5" y="-122.5" font-family="Helvetica,sans-Serif" font-size="10.00">src/code_800029B0.c</text>
</a>
</g>
</g>
<!-- Node2&#45;&gt;Node4 -->
<g id="edge3_Node000002_Node000004" class="edge">
<title>Node2&#45;&gt;Node4</title>
<g id="a_edge3_Node000002_Node000004"><a xlink:title=" ">
<path fill="none" stroke="#63b8ff" d="M306.02,-171.94C277.86,-159.68 241.9,-144.02 220.06,-134.52"/>
<polygon fill="#63b8ff" stroke="#63b8ff" points="304.67,-175.17 315.24,-175.95 307.47,-168.75 304.67,-175.17"/>
</a>
</g>
</g>
<!-- Node5 -->
<g id="Node000005" class="node">
<title>Node5</title>
<g id="a_Node000005"><a xlink:href="all__variables_8h.html" target="_top" xlink:title=" ">
<polygon fill="white" stroke="#666666" points="416.5,-134.5 278.5,-134.5 278.5,-115.5 416.5,-115.5 416.5,-134.5"/>
<text text-anchor="middle" x="347.5" y="-122.5" font-family="Helvetica,sans-Serif" font-size="10.00">src/debug/all_variables.h</text>
</a>
</g>
</g>
<!-- Node2&#45;&gt;Node5 -->
<g id="edge4_Node000002_Node000005" class="edge">
<title>Node2&#45;&gt;Node5</title>
<g id="a_edge4_Node000002_Node000005"><a xlink:title=" ">
<path fill="none" stroke="#63b8ff" d="M347.5,-165.6C347.5,-154.8 347.5,-142.78 347.5,-134.84"/>
<polygon fill="#63b8ff" stroke="#63b8ff" points="344,-165.8 347.5,-175.8 351,-165.8 344,-165.8"/>
</a>
</g>
</g>
<!-- Node8 -->
<g id="Node000008" class="node">
<title>Node8</title>
<g id="a_Node000008"><a xlink:href="render__courses_8c.html" target="_top" xlink:title=" ">
<polygon fill="white" stroke="#666666" points="584,-134.5 435,-134.5 435,-115.5 584,-115.5 584,-134.5"/>
<text text-anchor="middle" x="509.5" y="-122.5" font-family="Helvetica,sans-Serif" font-size="10.00">src/racing/render_courses.c</text>
</a>
</g>
</g>
<!-- Node2&#45;&gt;Node8 -->
<g id="edge7_Node000002_Node000008" class="edge">
<title>Node2&#45;&gt;Node8</title>
<g id="a_edge7_Node000002_Node000008"><a xlink:title=" ">
<path fill="none" stroke="#63b8ff" d="M392.41,-172.26C423.56,-159.95 463.67,-144.11 487.94,-134.52"/>
<polygon fill="#63b8ff" stroke="#63b8ff" points="391.07,-169.03 383.05,-175.95 393.64,-175.54 391.07,-169.03"/>
</a>
</g>
</g>
<!-- Node6 -->
<g id="Node000006" class="node">
<title>Node6</title>
<g id="a_Node000006"><a xlink:href="debug_8inc_8c.html" target="_top" xlink:title=" ">
<polygon fill="white" stroke="#666666" points="408.5,-74 286.5,-74 286.5,-55 408.5,-55 408.5,-74"/>
<text text-anchor="middle" x="347.5" y="-62" font-family="Helvetica,sans-Serif" font-size="10.00">src/debug/debug.inc.c</text>
</a>
</g>
</g>
<!-- Node5&#45;&gt;Node6 -->
<g id="edge5_Node000005_Node000006" class="edge">
<title>Node5&#45;&gt;Node6</title>
<g id="a_edge5_Node000005_Node000006"><a xlink:title=" ">
<path fill="none" stroke="#63b8ff" d="M347.5,-105.16C347.5,-94.74 347.5,-82.3 347.5,-74.17"/>
<polygon fill="#63b8ff" stroke="#63b8ff" points="344,-105.37 347.5,-115.37 351,-105.37 344,-105.37"/>
</a>
</g>
</g>
<!-- Node7 -->
<g id="Node000007" class="node">
<title>Node7</title>
<g id="a_Node000007"><a xlink:href="debug_8c.html" target="_top" xlink:title=" ">
<polygon fill="white" stroke="#666666" points="400,-19 295,-19 295,0 400,0 400,-19"/>
<text text-anchor="middle" x="347.5" y="-7" font-family="Helvetica,sans-Serif" font-size="10.00">src/debug/debug.c</text>
</a>
</g>
</g>
<!-- Node6&#45;&gt;Node7 -->
<g id="edge6_Node000006_Node000007" class="edge">
<title>Node6&#45;&gt;Node7</title>
<g id="a_edge6_Node000006_Node000007"><a xlink:title=" ">
<path fill="none" stroke="#63b8ff" d="M347.5,-44.66C347.5,-35.93 347.5,-25.99 347.5,-19.09"/>
<polygon fill="#63b8ff" stroke="#63b8ff" points="344,-44.75 347.5,-54.75 351,-44.75 344,-44.75"/>
</a>
</g>
</g>
<!-- Node10 -->
<g id="Node000010" class="node">
<title>Node10</title>
<g id="a_Node000010"><a xlink:href="Harbour_8cpp.html" target="_top" xlink:title=" ">
<polygon fill="white" stroke="#666666" points="709,-140 602,-140 602,-110 709,-110 709,-140"/>
<text text-anchor="start" x="610" y="-128" font-family="Helvetica,sans-Serif" font-size="10.00">src/engine/courses</text>
<text text-anchor="middle" x="655.5" y="-117" font-family="Helvetica,sans-Serif" font-size="10.00">/Harbour.cpp</text>
</a>
</g>
</g>
<!-- Node9&#45;&gt;Node10 -->
<g id="edge9_Node000009_Node000010" class="edge">
<title>Node9&#45;&gt;Node10</title>
<g id="a_edge9_Node000009_Node000010"><a xlink:title=" ">
<path fill="none" stroke="#63b8ff" d="M655.5,-165.54C655.5,-156.96 655.5,-147.61 655.5,-140.16"/>
<polygon fill="#63b8ff" stroke="#63b8ff" points="652,-165.8 655.5,-175.8 659,-165.8 652,-165.8"/>
</a>
</g>
</g>
<!-- Node12 -->
<g id="Node000012" class="node">
<title>Node12</title>
<g id="a_Node000012"><a xlink:href="Course_8cpp.html" target="_top" xlink:title=" ">
<polygon fill="white" stroke="#666666" points="834,-140 727,-140 727,-110 834,-110 834,-140"/>
<text text-anchor="start" x="735" y="-128" font-family="Helvetica,sans-Serif" font-size="10.00">src/engine/courses</text>
<text text-anchor="middle" x="780.5" y="-117" font-family="Helvetica,sans-Serif" font-size="10.00">/Course.cpp</text>
</a>
</g>
</g>
<!-- Node11&#45;&gt;Node12 -->
<g id="edge11_Node000011_Node000012" class="edge">
<title>Node11&#45;&gt;Node12</title>
<g id="a_edge11_Node000011_Node000012"><a xlink:title=" ">
<path fill="none" stroke="#63b8ff" d="M822.48,-168.65C813.25,-159.27 802.67,-148.53 794.44,-140.16"/>
<polygon fill="#63b8ff" stroke="#63b8ff" points="820.01,-171.13 829.52,-175.8 825,-166.21 820.01,-171.13"/>
</a>
</g>
</g>
<!-- Node13 -->
<g id="Node000013" class="node">
<title>Node13</title>
<g id="a_Node000013"><a xlink:href="MarioRaceway_8cpp.html" target="_top" xlink:title=" ">
<polygon fill="white" stroke="#666666" points="962.5,-140 852.5,-140 852.5,-110 962.5,-110 962.5,-140"/>
<text text-anchor="start" x="860.5" y="-128" font-family="Helvetica,sans-Serif" font-size="10.00">src/engine/courses</text>
<text text-anchor="middle" x="907.5" y="-117" font-family="Helvetica,sans-Serif" font-size="10.00">/MarioRaceway.cpp</text>
</a>
</g>
</g>
<!-- Node11&#45;&gt;Node13 -->
<g id="edge12_Node000011_Node000013" class="edge">
<title>Node11&#45;&gt;Node13</title>
<g id="a_edge12_Node000011_Node000013"><a xlink:title=" ">
<path fill="none" stroke="#63b8ff" d="M864.85,-168.65C874.23,-159.27 884.97,-148.53 893.34,-140.16"/>
<polygon fill="#63b8ff" stroke="#63b8ff" points="862.3,-166.25 857.7,-175.8 867.25,-171.2 862.3,-166.25"/>
</a>
</g>
</g>
<!-- Node14 -->
<g id="Node000014" class="node">
<title>Node14</title>
<g id="a_Node000014"><a xlink:href="Game_8cpp.html" target="_top" xlink:title=" ">
<polygon fill="white" stroke="#666666" points="1086.5,-134.5 980.5,-134.5 980.5,-115.5 1086.5,-115.5 1086.5,-134.5"/>
<text text-anchor="middle" x="1033.5" y="-122.5" font-family="Helvetica,sans-Serif" font-size="10.00">src/port/Game.cpp</text>
</a>
</g>
</g>
<!-- Node11&#45;&gt;Node14 -->
<g id="edge13_Node000011_Node000014" class="edge">
<title>Node11&#45;&gt;Node14</title>
<g id="a_edge13_Node000011_Node000014"><a xlink:title=" ">
<path fill="none" stroke="#63b8ff" d="M894.75,-172.74C931.49,-160.36 979.38,-144.23 1008.21,-134.52"/>
<polygon fill="#63b8ff" stroke="#63b8ff" points="893.56,-169.45 885.2,-175.95 895.79,-176.08 893.56,-169.45"/>
</a>
</g>
</g>
<!-- Node15&#45;&gt;Node14 -->
<g id="edge16_Node000015_Node000014" class="edge">
<title>Node15&#45;&gt;Node14</title>
<g id="a_edge16_Node000015_Node000014"><a xlink:title=" ">
<path fill="none" stroke="#63b8ff" d="M1033.5,-165.6C1033.5,-154.8 1033.5,-142.78 1033.5,-134.84"/>
<polygon fill="#63b8ff" stroke="#63b8ff" points="1030,-165.8 1033.5,-175.8 1037,-165.8 1030,-165.8"/>
</a>
</g>
</g>
<!-- Node16 -->
<g id="Node000016" class="node">
<title>Node16</title>
<g id="a_Node000016"><a xlink:href="TestCourse_8cpp.html" target="_top" xlink:title=" ">
<polygon fill="white" stroke="#666666" points="1212,-140 1105,-140 1105,-110 1212,-110 1212,-140"/>
<text text-anchor="start" x="1113" y="-128" font-family="Helvetica,sans-Serif" font-size="10.00">src/engine/courses</text>
<text text-anchor="middle" x="1158.5" y="-117" font-family="Helvetica,sans-Serif" font-size="10.00">/TestCourse.cpp</text>
</a>
</g>
</g>
<!-- Node15&#45;&gt;Node16 -->
<g id="edge15_Node000015_Node000016" class="edge">
<title>Node15&#45;&gt;Node16</title>
<g id="a_edge15_Node000015_Node000016"><a xlink:title=" ">
<path fill="none" stroke="#63b8ff" d="M1069.87,-171.38C1089.43,-161.36 1113.15,-149.22 1131.13,-140.01"/>
<polygon fill="#63b8ff" stroke="#63b8ff" points="1068.24,-168.28 1060.93,-175.95 1071.43,-174.51 1068.24,-168.28"/>
</a>
</g>
</g>
</g>
</svg>
