<?xml version="1.0" encoding="UTF-8" standalone="no"?>
<!DOCTYPE svg PUBLIC "-//W3C//DTD SVG 1.1//EN"
 "http://www.w3.org/Graphics/SVG/1.1/DTD/svg11.dtd">
<!-- Generated by graphviz version 2.43.0 (0)
 -->
<!-- Title: include/assets/models/tracks/mario_raceway/mario_raceway_displaylists.h Pages: 1 -->
<svg width="1336pt" height="280pt"
 viewBox="0.00 0.00 1335.50 280.00" xmlns="http://www.w3.org/2000/svg" xmlns:xlink="http://www.w3.org/1999/xlink">
<g id="graph0" class="graph" transform="scale(1 1) rotate(0) translate(4 276)">
<title>include/assets/models/tracks/mario_raceway/mario_raceway_displaylists.h</title>
<!-- Node1 -->
<g id="Node000001" class="node">
<title>Node1</title>
<g id="a_Node000001"><a xlink:title=" ">
<polygon fill="#999999" stroke="#666666" points="727.5,-272 563.5,-272 563.5,-231 727.5,-231 727.5,-272"/>
<text text-anchor="start" x="571.5" y="-260" font-family="Helvetica,sans-Serif" font-size="10.00">include/assets/models</text>
<text text-anchor="start" x="571.5" y="-249" font-family="Helvetica,sans-Serif" font-size="10.00">/tracks/mario_raceway</text>
<text text-anchor="middle" x="645.5" y="-238" font-family="Helvetica,sans-Serif" font-size="10.00">/mario_raceway_displaylists.h</text>
</a>
</g>
</g>
<!-- Node2 -->
<g id="Node000002" class="node">
<title>Node2</title>
<g id="a_Node000002"><a xlink:href="all__course__packed_8h.html" target="_top" xlink:title=" ">
<polygon fill="white" stroke="#666666" points="341,-195 234,-195 234,-165 341,-165 341,-195"/>
<text text-anchor="start" x="242" y="-183" font-family="Helvetica,sans-Serif" font-size="10.00">courses/all_course</text>
<text text-anchor="middle" x="287.5" y="-172" font-family="Helvetica,sans-Serif" font-size="10.00">_packed.h</text>
</a>
</g>
</g>
<!-- Node1&#45;&gt;Node2 -->
<g id="edge1_Node000001_Node000002" class="edge">
<title>Node1&#45;&gt;Node2</title>
<g id="a_edge1_Node000001_Node000002"><a xlink:title=" ">
<path fill="none" stroke="#63b8ff" d="M553.19,-232.58C485.94,-219.52 397.17,-202.29 341.2,-191.43"/>
<polygon fill="#63b8ff" stroke="#63b8ff" points="552.88,-236.09 563.37,-234.56 554.22,-229.21 552.88,-236.09"/>
</a>
</g>
</g>
<!-- Node8 -->
<g id="Node000008" class="node">
<title>Node8</title>
<g id="a_Node000008"><a xlink:href="Harbour_8h.html" target="_top" xlink:title=" ">
<polygon fill="white" stroke="#666666" points="622.5,-189.5 472.5,-189.5 472.5,-170.5 622.5,-170.5 622.5,-189.5"/>
<text text-anchor="middle" x="547.5" y="-177.5" font-family="Helvetica,sans-Serif" font-size="10.00">src/engine/tracks/Harbour.h</text>
</a>
</g>
</g>
<!-- Node1&#45;&gt;Node8 -->
<g id="edge7_Node000001_Node000008" class="edge">
<title>Node1&#45;&gt;Node8</title>
<g id="a_edge7_Node000001_Node000008"><a xlink:title=" ">
<path fill="none" stroke="#63b8ff" d="M609.54,-225C591.94,-212.51 571.91,-198.31 559.49,-189.5"/>
<polygon fill="#63b8ff" stroke="#63b8ff" points="607.76,-228.03 617.94,-230.96 611.81,-222.32 607.76,-228.03"/>
</a>
</g>
</g>
<!-- Node10 -->
<g id="Node000010" class="node">
<title>Node10</title>
<g id="a_Node000010"><a xlink:href="MarioRaceway_8h.html" target="_top" xlink:title=" ">
<polygon fill="white" stroke="#666666" points="905.5,-189.5 723.5,-189.5 723.5,-170.5 905.5,-170.5 905.5,-189.5"/>
<text text-anchor="middle" x="814.5" y="-177.5" font-family="Helvetica,sans-Serif" font-size="10.00">src/engine/tracks/MarioRaceway.h</text>
</a>
</g>
</g>
<!-- Node1&#45;&gt;Node10 -->
<g id="edge9_Node000001_Node000010" class="edge">
<title>Node1&#45;&gt;Node10</title>
<g id="a_edge9_Node000001_Node000010"><a xlink:title=" ">
<path fill="none" stroke="#63b8ff" d="M702.59,-227.02C734.07,-214.08 771.23,-198.79 793.82,-189.5"/>
<polygon fill="#63b8ff" stroke="#63b8ff" points="700.94,-223.92 693.03,-230.96 703.61,-230.39 700.94,-223.92"/>
</a>
</g>
</g>
<!-- Node16 -->
<g id="Node000016" class="node">
<title>Node16</title>
<g id="a_Node000016"><a xlink:href="TestTrack_8h.html" target="_top" xlink:title=" ">
<polygon fill="white" stroke="#666666" points="1159,-189.5 1002,-189.5 1002,-170.5 1159,-170.5 1159,-189.5"/>
<text text-anchor="middle" x="1080.5" y="-177.5" font-family="Helvetica,sans-Serif" font-size="10.00">src/engine/tracks/TestTrack.h</text>
</a>
</g>
</g>
<!-- Node1&#45;&gt;Node16 -->
<g id="edge15_Node000001_Node000016" class="edge">
<title>Node1&#45;&gt;Node16</title>
<g id="a_edge15_Node000001_Node000016"><a xlink:title=" ">
<path fill="none" stroke="#63b8ff" d="M737.56,-235.79C825.55,-221.73 955.16,-201.03 1027.22,-189.51"/>
<polygon fill="#63b8ff" stroke="#63b8ff" points="736.9,-232.35 727.58,-237.39 738,-239.27 736.9,-232.35"/>
</a>
</g>
</g>
<!-- Node3 -->
<g id="Node000003" class="node">
<title>Node3</title>
<g id="a_Node000003"><a xlink:href="code__800029B0_8c.html" target="_top" xlink:title=" ">
<polygon fill="white" stroke="#666666" points="119,-129 0,-129 0,-110 119,-110 119,-129"/>
<text text-anchor="middle" x="59.5" y="-117" font-family="Helvetica,sans-Serif" font-size="10.00">src/code_800029B0.c</text>
</a>
</g>
</g>
<!-- Node2&#45;&gt;Node3 -->
<g id="edge2_Node000002_Node000003" class="edge">
<title>Node2&#45;&gt;Node3</title>
<g id="a_edge2_Node000002_Node000003"><a xlink:title=" ">
<path fill="none" stroke="#63b8ff" d="M224.04,-162.72C181.45,-151.79 127.08,-137.84 92.76,-129.03"/>
<polygon fill="#63b8ff" stroke="#63b8ff" points="223.2,-166.12 233.76,-165.21 224.94,-159.33 223.2,-166.12"/>
</a>
</g>
</g>
<!-- Node4 -->
<g id="Node000004" class="node">
<title>Node4</title>
<g id="a_Node000004"><a xlink:href="all__variables_8h.html" target="_top" xlink:title=" ">
<polygon fill="white" stroke="#666666" points="275.5,-129 137.5,-129 137.5,-110 275.5,-110 275.5,-129"/>
<text text-anchor="middle" x="206.5" y="-117" font-family="Helvetica,sans-Serif" font-size="10.00">src/debug/all_variables.h</text>
</a>
</g>
</g>
<!-- Node2&#45;&gt;Node4 -->
<g id="edge3_Node000002_Node000004" class="edge">
<title>Node2&#45;&gt;Node4</title>
<g id="a_edge3_Node000002_Node000004"><a xlink:title=" ">
<path fill="none" stroke="#63b8ff" d="M259.55,-158.82C245.59,-148.73 229.42,-137.05 218.64,-129.27"/>
<polygon fill="#63b8ff" stroke="#63b8ff" points="257.74,-161.82 267.89,-164.84 261.83,-156.15 257.74,-161.82"/>
</a>
</g>
</g>
<!-- Node7 -->
<g id="Node000007" class="node">
<title>Node7</title>
<g id="a_Node000007"><a xlink:href="render__courses_8c.html" target="_top" xlink:title=" ">
<polygon fill="white" stroke="#666666" points="443,-129 294,-129 294,-110 443,-110 443,-129"/>
<text text-anchor="middle" x="368.5" y="-117" font-family="Helvetica,sans-Serif" font-size="10.00">src/racing/render_courses.c</text>
</a>
</g>
</g>
<!-- Node2&#45;&gt;Node7 -->
<g id="edge6_Node000002_Node000007" class="edge">
<title>Node2&#45;&gt;Node7</title>
<g id="a_edge6_Node000002_Node000007"><a xlink:title=" ">
<path fill="none" stroke="#63b8ff" d="M315.45,-158.82C329.41,-148.73 345.58,-137.05 356.36,-129.27"/>
<polygon fill="#63b8ff" stroke="#63b8ff" points="313.17,-156.15 307.11,-164.84 317.26,-161.82 313.17,-156.15"/>
</a>
</g>
</g>
<!-- Node5 -->
<g id="Node000005" class="node">
<title>Node5</title>
<g id="a_Node000005"><a xlink:href="debug_8inc_8c.html" target="_top" xlink:title=" ">
<polygon fill="white" stroke="#666666" points="267.5,-74 145.5,-74 145.5,-55 267.5,-55 267.5,-74"/>
<text text-anchor="middle" x="206.5" y="-62" font-family="Helvetica,sans-Serif" font-size="10.00">src/debug/debug.inc.c</text>
</a>
</g>
</g>
<!-- Node4&#45;&gt;Node5 -->
<g id="edge4_Node000004_Node000005" class="edge">
<title>Node4&#45;&gt;Node5</title>
<g id="a_edge4_Node000004_Node000005"><a xlink:title=" ">
<path fill="none" stroke="#63b8ff" d="M206.5,-99.66C206.5,-90.93 206.5,-80.99 206.5,-74.09"/>
<polygon fill="#63b8ff" stroke="#63b8ff" points="203,-99.75 206.5,-109.75 210,-99.75 203,-99.75"/>
</a>
</g>
</g>
<!-- Node6 -->
<g id="Node000006" class="node">
<title>Node6</title>
<g id="a_Node000006"><a xlink:href="debug_8c.html" target="_top" xlink:title=" ">
<polygon fill="white" stroke="#666666" points="259,-19 154,-19 154,0 259,0 259,-19"/>
<text text-anchor="middle" x="206.5" y="-7" font-family="Helvetica,sans-Serif" font-size="10.00">src/debug/debug.c</text>
</a>
</g>
</g>
<!-- Node5&#45;&gt;Node6 -->
<g id="edge5_Node000005_Node000006" class="edge">
<title>Node5&#45;&gt;Node6</title>
<g id="a_edge5_Node000005_Node000006"><a xlink:title=" ">
<path fill="none" stroke="#63b8ff" d="M206.5,-44.66C206.5,-35.93 206.5,-25.99 206.5,-19.09"/>
<polygon fill="#63b8ff" stroke="#63b8ff" points="203,-44.75 206.5,-54.75 210,-44.75 203,-44.75"/>
</a>
</g>
</g>
<!-- Node9 -->
<g id="Node000009" class="node">
<title>Node9</title>
<g id="a_Node000009"><a xlink:href="Harbour_8cpp.html" target="_top" xlink:title=" ">
<polygon fill="white" stroke="#666666" points="622,-129 461,-129 461,-110 622,-110 622,-129"/>
<text text-anchor="middle" x="541.5" y="-117" font-family="Helvetica,sans-Serif" font-size="10.00">src/engine/tracks/Harbour.cpp</text>
</a>
</g>
</g>
<!-- Node8&#45;&gt;Node9 -->
<g id="edge8_Node000008_Node000009" class="edge">
<title>Node8&#45;&gt;Node9</title>
<g id="a_edge8_Node000008_Node000009"><a xlink:title=" ">
<path fill="none" stroke="#63b8ff" d="M545.57,-160.16C544.5,-149.74 543.22,-137.3 542.39,-129.17"/>
<polygon fill="#63b8ff" stroke="#63b8ff" points="542.11,-160.78 546.61,-170.37 549.08,-160.06 542.11,-160.78"/>
</a>
</g>
</g>
<!-- Node11 -->
<g id="Node000011" class="node">
<title>Node11</title>
<g id="a_Node000011"><a xlink:href="AllTracks_8h.html" target="_top" xlink:title=" ">
<polygon fill="white" stroke="#666666" points="1141.5,-129 1019.5,-129 1019.5,-110 1141.5,-110 1141.5,-129"/>
<text text-anchor="middle" x="1080.5" y="-117" font-family="Helvetica,sans-Serif" font-size="10.00">src/engine/AllTracks.h</text>
</a>
</g>
</g>
<!-- Node10&#45;&gt;Node11 -->
<g id="edge10_Node000010_Node000011" class="edge">
<title>Node10&#45;&gt;Node11</title>
<g id="a_edge10_Node000010_Node000011"><a xlink:title=" ">
<path fill="none" stroke="#63b8ff" d="M863.05,-168.32C914.43,-157.02 994.47,-139.42 1041.77,-129.02"/>
<polygon fill="#63b8ff" stroke="#63b8ff" points="862.19,-164.93 853.18,-170.49 863.7,-171.76 862.19,-164.93"/>
</a>
</g>
</g>
<!-- Node14 -->
<g id="Node000014" class="node">
<title>Node14</title>
<g id="a_Node000014"><a xlink:href="MarioRaceway_8cpp.html" target="_top" xlink:title=" ">
<polygon fill="white" stroke="#666666" points="834.5,-129 640.5,-129 640.5,-110 834.5,-110 834.5,-129"/>
<text text-anchor="middle" x="737.5" y="-117" font-family="Helvetica,sans-Serif" font-size="10.00">src/engine/tracks/MarioRaceway.cpp</text>
</a>
</g>
</g>
<!-- Node10&#45;&gt;Node14 -->
<g id="edge13_Node000010_Node000014" class="edge">
<title>Node10&#45;&gt;Node14</title>
<g id="a_edge13_Node000010_Node000014"><a xlink:title=" ">
<path fill="none" stroke="#63b8ff" d="M794.81,-164.04C780.27,-152.99 760.98,-138.34 748.91,-129.17"/>
<polygon fill="#63b8ff" stroke="#63b8ff" points="793.06,-167.11 803.14,-170.37 797.29,-161.53 793.06,-167.11"/>
</a>
</g>
</g>
<!-- Node15 -->
<g id="Node000015" class="node">
<title>Node15</title>
<g id="a_Node000015"><a xlink:href="Track_8cpp.html" target="_top" xlink:title=" ">
<polygon fill="white" stroke="#666666" points="1001,-129 852,-129 852,-110 1001,-110 1001,-129"/>
<text text-anchor="middle" x="926.5" y="-117" font-family="Helvetica,sans-Serif" font-size="10.00">src/engine/tracks/Track.cpp</text>
</a>
</g>
</g>
<!-- Node10&#45;&gt;Node15 -->
<g id="edge14_Node000010_Node000015" class="edge">
<title>Node10&#45;&gt;Node15</title>
<g id="a_edge14_Node000010_Node000015"><a xlink:title=" ">
<path fill="none" stroke="#63b8ff" d="M839.91,-165.73C861.36,-154.53 891.43,-138.82 909.91,-129.17"/>
<polygon fill="#63b8ff" stroke="#63b8ff" points="838.27,-162.64 831.03,-170.37 841.51,-168.84 838.27,-162.64"/>
</a>
</g>
</g>
<!-- Node12 -->
<g id="Node000012" class="node">
<title>Node12</title>
<g id="a_Node000012"><a xlink:href="RegisterContent_8cpp.html" target="_top" xlink:title=" ">
<polygon fill="white" stroke="#666666" points="1087,-74 918,-74 918,-55 1087,-55 1087,-74"/>
<text text-anchor="middle" x="1002.5" y="-62" font-family="Helvetica,sans-Serif" font-size="10.00">src/engine/RegisterContent.cpp</text>
</a>
</g>
</g>
<!-- Node11&#45;&gt;Node12 -->
<g id="edge11_Node000011_Node000012" class="edge">
<title>Node11&#45;&gt;Node12</title>
<g id="a_edge11_Node000011_Node000012"><a xlink:title=" ">
<path fill="none" stroke="#63b8ff" d="M1059.38,-104.15C1045.29,-94.57 1027.21,-82.29 1015.26,-74.17"/>
<polygon fill="#63b8ff" stroke="#63b8ff" points="1057.73,-107.26 1067.97,-109.98 1061.66,-101.47 1057.73,-107.26"/>
</a>
</g>
</g>
<!-- Node13 -->
<g id="Node000013" class="node">
<title>Node13</title>
<g id="a_Node000013"><a xlink:href="Game_8cpp.html" target="_top" xlink:title=" ">
<polygon fill="white" stroke="#666666" points="1210.5,-74 1104.5,-74 1104.5,-55 1210.5,-55 1210.5,-74"/>
<text text-anchor="middle" x="1157.5" y="-62" font-family="Helvetica,sans-Serif" font-size="10.00">src/port/Game.cpp</text>
</a>
</g>
</g>
<!-- Node11&#45;&gt;Node13 -->
<g id="edge12_Node000011_Node000013" class="edge">
<title>Node11&#45;&gt;Node13</title>
<g id="a_edge12_Node000011_Node000013"><a xlink:title=" ">
<path fill="none" stroke="#63b8ff" d="M1101.35,-104.15C1115.26,-94.57 1133.11,-82.29 1144.9,-74.17"/>
<polygon fill="#63b8ff" stroke="#63b8ff" points="1099.12,-101.43 1092.87,-109.98 1103.09,-107.2 1099.12,-101.43"/>
</a>
</g>
</g>
<!-- Node16&#45;&gt;Node11 -->
<g id="edge16_Node000016_Node000011" class="edge">
<title>Node16&#45;&gt;Node11</title>
<g id="a_edge16_Node000016_Node000011"><a xlink:title=" ">
<path fill="none" stroke="#63b8ff" d="M1080.5,-160.16C1080.5,-149.74 1080.5,-137.3 1080.5,-129.17"/>
<polygon fill="#63b8ff" stroke="#63b8ff" points="1077,-160.37 1080.5,-170.37 1084,-160.37 1077,-160.37"/>
</a>
</g>
</g>
<!-- Node17 -->
<g id="Node000017" class="node">
<title>Node17</title>
<g id="a_Node000017"><a xlink:href="TestTrack_8cpp.html" target="_top" xlink:title=" ">
<polygon fill="white" stroke="#666666" points="1327.5,-129 1159.5,-129 1159.5,-110 1327.5,-110 1327.5,-129"/>
<text text-anchor="middle" x="1243.5" y="-117" font-family="Helvetica,sans-Serif" font-size="10.00">src/engine/tracks/TestTrack.cpp</text>
</a>
</g>
</g>
<!-- Node16&#45;&gt;Node17 -->
<g id="edge17_Node000016_Node000017" class="edge">
<title>Node16&#45;&gt;Node17</title>
<g id="a_edge17_Node000016_Node000017"><a xlink:title=" ">
<path fill="none" stroke="#63b8ff" d="M1113.87,-167.02C1145.38,-155.71 1191.87,-139.03 1219.77,-129.02"/>
<polygon fill="#63b8ff" stroke="#63b8ff" points="1112.43,-163.82 1104.2,-170.49 1114.8,-170.41 1112.43,-163.82"/>
</a>
</g>
</g>
</g>
</svg>
