<?xml version="1.0" encoding="UTF-8" standalone="no"?>
<!DOCTYPE svg PUBLIC "-//W3C//DTD SVG 1.1//EN"
 "http://www.w3.org/Graphics/SVG/1.1/DTD/svg11.dtd">
<!-- Generated by graphviz version 2.43.0 (0)
 -->
<!-- Title: vec3s_set Pages: 1 -->
<!--zoomable 446 -->

<svg id="main" version="1.1" xmlns="http://www.w3.org/2000/svg" xmlns:xlink="http://www.w3.org/1999/xlink" xml:space="preserve" onload="init(evt)">

<style type="text/css"><![CDATA[
.node, .edge {opacity: 0.7;}
.node.selected, .edge.selected {opacity: 1;}
.edge:hover path { stroke: red; }
.edge:hover polygon { stroke: red; fill: red; }
]]></style>

<defs>
  <circle id="rim" cx="0" cy="0" r="7"/>
  <circle id="rim2" cx="0" cy="0" r="3.5"/>
  <g id="zoomPlus">
    <use xlink:href="#rim" fill="#404040"><set attributeName="fill" to="#808080" begin="zoomplus.mouseover" end="zoomplus.mouseout"/></use>
    <path d="M-4,0h8M0,-4v8" fill="none" stroke="white" stroke-width="1.5" pointer-events="none"/>
  </g>
  <g id="zoomMin">
    <use xlink:href="#rim" fill="#404040"><set attributeName="fill" to="#808080" begin="zoomminus.mouseover" end="zoomminus.mouseout"/></use>
    <path d="M-4,0h8" fill="none" stroke="white" stroke-width="1.5" pointer-events="none"/>
  </g>
  <g id="arrowUp" transform="translate(30 24)">
    <use xlink:href="#rim"/>
    <path pointer-events="none" fill="none" stroke="white" stroke-width="1.5" d="M0,-3.0v7 M-2.5,-0.5L0,-3.0L2.5,-0.5"/>
  </g>
  <g id="arrowRight" transform="rotate(90) translate(36 -43)">
    <use xlink:href="#rim"/>
    <path pointer-events="none" fill="none" stroke="white" stroke-width="1.5" d="M0,-3.0v7 M-2.5,-0.5L0,-3.0L2.5,-0.5"/>
  </g>
  <g id="arrowDown" transform="rotate(180) translate(-30 -48)">
    <use xlink:href="#rim"/>
    <path pointer-events="none" fill="none" stroke="white" stroke-width="1.5" d="M0,-3.0v7 M-2.5,-0.5L0,-3.0L2.5,-0.5"/>
  </g>
  <g id="arrowLeft" transform="rotate(270) translate(-36 17)">
    <use xlink:href="#rim"/>
    <path pointer-events="none" fill="none" stroke="white" stroke-width="1.5" d="M0,-3.0v7 M-2.5,-0.5L0,-3.0L2.5,-0.5"/>
  </g>
  <g id="resetDef">
    <use xlink:href="#rim2" fill="#404040"><set attributeName="fill" to="#808080" begin="reset.mouseover" end="reset.mouseout"/></use>
  </g>
</defs>
<script type="application/ecmascript">
var viewWidth = 1066;
var viewHeight = 446;
var sectionId = 'dynsection-63';
</script>
<script type="application/ecmascript" xlink:href="svg.min.js"/>
<svg id="graph" class="graph">
<g id="viewport">
<title>vec3s_set</title>
<!-- Node1 -->
<g id="Node000001" class="node">
<title>Node1</title>
<g id="a_Node000001"><a xlink:title=" ">
<polygon fill="#999999" stroke="#666666" points="1058,-268 993,-268 993,-249 1058,-249 1058,-268"/>
<text text-anchor="middle" x="1025.5" y="-256" font-family="Helvetica,sans-Serif" font-size="10.00">vec3s_set</text>
</a>
</g>
</g>
<!-- Node2 -->
<g id="Node000002" class="node">
<title>Node2</title>
<g id="a_Node000002"><a xlink:href="classABoat.html#a72f9505bb203b7da30ee448f061bbe49" target="_top" xlink:title=" ">
<polygon fill="white" stroke="#666666" points="925,-438 844,-438 844,-419 925,-419 925,-438"/>
<text text-anchor="middle" x="884.5" y="-426" font-family="Helvetica,sans-Serif" font-size="10.00">ABoat::ABoat</text>
</a>
</g>
</g>
<!-- Node1&#45;&gt;Node2 -->
<g id="edge1_Node000001_Node000002" class="edge">
<title>Node1&#45;&gt;Node2</title>
<g id="a_edge1_Node000001_Node000002"><a xlink:title=" ">
<path fill="none" stroke="#63b8ff" d="M1021.43,-278.12C1015.28,-310.68 998.3,-375.73 957,-410.5 948.09,-418 936.48,-422.44 925.21,-425.06"/>
<polygon fill="#63b8ff" stroke="#63b8ff" points="1024.91,-278.51 1023.18,-268.06 1018.02,-277.31 1024.91,-278.51"/>
</a>
</g>
</g>
<!-- Node4 -->
<g id="Node000004" class="node">
<title>Node4</title>
<g id="a_Node000004"><a xlink:href="classATrain.html#a924e9fb51739e1fba6b0eff6635611bc" target="_top" xlink:title=" ">
<polygon fill="white" stroke="#666666" points="925,-401 844,-401 844,-382 925,-382 925,-401"/>
<text text-anchor="middle" x="884.5" y="-389" font-family="Helvetica,sans-Serif" font-size="10.00">ATrain::ATrain</text>
</a>
</g>
</g>
<!-- Node1&#45;&gt;Node4 -->
<g id="edge3_Node000001_Node000004" class="edge">
<title>Node1&#45;&gt;Node4</title>
<g id="a_edge3_Node000001_Node000004"><a xlink:title=" ">
<path fill="none" stroke="#63b8ff" d="M1018.38,-278.07C1009.25,-303.93 989.58,-349.08 957,-373.5 947.78,-380.41 936.21,-384.69 925.08,-387.33"/>
<polygon fill="#63b8ff" stroke="#63b8ff" points="1021.8,-278.87 1021.65,-268.28 1015.16,-276.65 1021.8,-278.87"/>
</a>
</g>
</g>
<!-- Node9 -->
<g id="Node000009" class="node">
<title>Node9</title>
<g id="a_Node000009"><a xlink:href="classKalimariDesert.html#aa3f0f4155f0d9a6ecfb4ca824603b81f" target="_top" xlink:title=" ">
<polygon fill="white" stroke="#666666" points="957,-364 812,-364 812,-345 957,-345 957,-364"/>
<text text-anchor="middle" x="884.5" y="-352" font-family="Helvetica,sans-Serif" font-size="10.00">KalimariDesert::BeginPlay</text>
</a>
</g>
</g>
<!-- Node1&#45;&gt;Node9 -->
<g id="edge8_Node000001_Node000009" class="edge">
<title>Node1&#45;&gt;Node9</title>
<g id="a_edge8_Node000001_Node000009"><a xlink:title=" ">
<path fill="none" stroke="#63b8ff" d="M1013.32,-277.02C1001.53,-294.94 981.32,-321.52 957,-336.5 951.44,-339.92 945.26,-342.7 938.92,-344.94"/>
<polygon fill="#63b8ff" stroke="#63b8ff" points="1016.58,-278.41 1018.97,-268.08 1010.67,-274.66 1016.58,-278.41"/>
</a>
</g>
</g>
<!-- Node10 -->
<g id="Node000010" class="node">
<title>Node10</title>
<g id="a_Node000010"><a xlink:href="falling__rock_2update_8inc_8c.html#a9a8171deacccacba26f4fda3f2aec227" target="_top" xlink:title=" ">
<polygon fill="white" stroke="#666666" points="930.5,-327 838.5,-327 838.5,-308 930.5,-308 930.5,-327"/>
<text text-anchor="middle" x="884.5" y="-315" font-family="Helvetica,sans-Serif" font-size="10.00">func_8029CF0C</text>
</a>
</g>
</g>
<!-- Node1&#45;&gt;Node10 -->
<g id="edge9_Node000001_Node000010" class="edge">
<title>Node1&#45;&gt;Node10</title>
<g id="a_edge9_Node000001_Node000010"><a xlink:title=" ">
<path fill="none" stroke="#63b8ff" d="M1002.88,-273.93C990.05,-282.49 973.18,-292.73 957,-299.5 948.73,-302.96 939.64,-305.87 930.79,-308.28"/>
<polygon fill="#63b8ff" stroke="#63b8ff" points="1005.16,-276.61 1011.43,-268.07 1001.2,-270.83 1005.16,-276.61"/>
</a>
</g>
</g>
<!-- Node12 -->
<g id="Node000012" class="node">
<title>Node12</title>
<g id="a_Node000012"><a xlink:href="actors_8c.html#a5998eaf5bee060a664f203f5d0a8ae95" target="_top" xlink:title=" ">
<polygon fill="white" stroke="#666666" points="939,-252.5 830,-252.5 830,-222.5 939,-222.5 939,-252.5"/>
<text text-anchor="start" x="838" y="-240.5" font-family="Helvetica,sans-Serif" font-size="10.00">init_actor_hot_air</text>
<text text-anchor="middle" x="884.5" y="-229.5" font-family="Helvetica,sans-Serif" font-size="10.00">_balloon_item_box</text>
</a>
</g>
</g>
<!-- Node1&#45;&gt;Node12 -->
<g id="edge11_Node000001_Node000012" class="edge">
<title>Node1&#45;&gt;Node12</title>
<g id="a_edge11_Node000001_Node000012"><a xlink:title=" ">
<path fill="none" stroke="#63b8ff" d="M982.82,-252.2C969.05,-250.12 953.53,-247.78 939.01,-245.58"/>
<polygon fill="#63b8ff" stroke="#63b8ff" points="982.55,-255.7 992.96,-253.73 983.59,-248.78 982.55,-255.7"/>
</a>
</g>
</g>
<!-- Node17 -->
<g id="Node000017" class="node">
<title>Node17</title>
<g id="a_Node000017"><a xlink:href="classAFallingRock.html#a61b80c1c12dbf2506ecf5089ee5cb757" target="_top" xlink:title=" ">
<polygon fill="white" stroke="#666666" points="941,-204 828,-204 828,-185 941,-185 941,-204"/>
<text text-anchor="middle" x="884.5" y="-192" font-family="Helvetica,sans-Serif" font-size="10.00">AFallingRock::Reset</text>
</a>
</g>
</g>
<!-- Node1&#45;&gt;Node17 -->
<g id="edge16_Node000001_Node000017" class="edge">
<title>Node1&#45;&gt;Node17</title>
<g id="a_edge16_Node000001_Node000017"><a xlink:title=" ">
<path fill="none" stroke="#63b8ff" d="M1004.62,-242.71C991.69,-233.09 974.11,-221.22 957,-213.5 948.69,-209.75 939.49,-206.62 930.53,-204.05"/>
<polygon fill="#63b8ff" stroke="#63b8ff" points="1002.7,-245.64 1012.77,-248.92 1006.94,-240.07 1002.7,-245.64"/>
</a>
</g>
</g>
<!-- Node19 -->
<g id="Node000019" class="node">
<title>Node19</title>
<g id="a_Node000019"><a xlink:href="actors_8c.html#a89e1bc069861528b3d9bac9571a83cd5" target="_top" xlink:title=" ">
<polygon fill="white" stroke="#666666" points="942.5,-167 826.5,-167 826.5,-148 942.5,-148 942.5,-167"/>
<text text-anchor="middle" x="884.5" y="-155" font-family="Helvetica,sans-Serif" font-size="10.00">spawn_actor_at_pos</text>
</a>
</g>
</g>
<!-- Node1&#45;&gt;Node19 -->
<g id="edge18_Node000001_Node000019" class="edge">
<title>Node1&#45;&gt;Node19</title>
<g id="a_edge18_Node000001_Node000019"><a xlink:title=" ">
<path fill="none" stroke="#63b8ff" d="M1014,-239.91C1002.44,-221.12 982.1,-192.62 957,-176.5 950.95,-172.61 944.12,-169.52 937.15,-167.05"/>
<polygon fill="#63b8ff" stroke="#63b8ff" points="1011.12,-241.92 1019.23,-248.73 1017.15,-238.35 1011.12,-241.92"/>
</a>
</g>
</g>
<!-- Node21 -->
<g id="Node000021" class="node">
<title>Node21</title>
<g id="a_Node000021"><a xlink:href="falling__rock_2update_8inc_8c.html#ad18c14dd8d45f1315a6ed69f8ba9cdd3" target="_top" xlink:title=" ">
<polygon fill="white" stroke="#666666" points="942.5,-130 826.5,-130 826.5,-111 942.5,-111 942.5,-130"/>
<text text-anchor="middle" x="884.5" y="-118" font-family="Helvetica,sans-Serif" font-size="10.00">spawn_falling_rocks</text>
</a>
</g>
</g>
<!-- Node1&#45;&gt;Node21 -->
<g id="edge20_Node000001_Node000021" class="edge">
<title>Node1&#45;&gt;Node21</title>
<g id="a_edge20_Node000001_Node000021"><a xlink:title=" ">
<path fill="none" stroke="#63b8ff" d="M1018.77,-239.08C1009.93,-212.53 990.38,-165.26 957,-139.5 952.02,-135.65 946.32,-132.59 940.37,-130.14"/>
<polygon fill="#63b8ff" stroke="#63b8ff" points="1015.48,-240.28 1021.83,-248.76 1022.16,-238.17 1015.48,-240.28"/>
</a>
</g>
</g>
<!-- Node23 -->
<g id="Node000023" class="node">
<title>Node23</title>
<g id="a_Node000023"><a xlink:href="actors_8c.html#a64785058c93cd477d4f1f3fd1eee38fe" target="_top" xlink:title=" ">
<polygon fill="white" stroke="#666666" points="938.5,-290 830.5,-290 830.5,-271 938.5,-271 938.5,-290"/>
<text text-anchor="middle" x="884.5" y="-278" font-family="Helvetica,sans-Serif" font-size="10.00">spawn_palm_trees</text>
</a>
</g>
</g>
<!-- Node1&#45;&gt;Node23 -->
<g id="edge22_Node000001_Node000023" class="edge">
<title>Node1&#45;&gt;Node23</title>
<g id="a_edge22_Node000001_Node000023"><a xlink:title=" ">
<path fill="none" stroke="#63b8ff" d="M982.76,-265.11C968.92,-267.3 953.32,-269.77 938.73,-272.07"/>
<polygon fill="#63b8ff" stroke="#63b8ff" points="983.63,-268.51 992.96,-263.49 982.53,-261.6 983.63,-268.51"/>
</a>
</g>
</g>
<!-- Node24 -->
<g id="Node000024" class="node">
<title>Node24</title>
<g id="a_Node000024"><a xlink:href="actors_8c.html#af6d278bc785acfd772b70dd01b2a2dc0" target="_top" xlink:title=" ">
<polygon fill="white" stroke="#666666" points="947,-75 822,-75 822,-56 947,-56 947,-75"/>
<text text-anchor="middle" x="884.5" y="-63" font-family="Helvetica,sans-Serif" font-size="10.00">spawn_piranha_plants</text>
</a>
</g>
</g>
<!-- Node1&#45;&gt;Node24 -->
<g id="edge24_Node000001_Node000024" class="edge">
<title>Node1&#45;&gt;Node24</title>
<g id="a_edge24_Node000001_Node000024"><a xlink:title=" ">
<path fill="none" stroke="#63b8ff" d="M1020.53,-238.92C1013.12,-206.84 994.46,-142.64 957,-102.5 945.37,-90.03 928.58,-81.05 914.2,-75.05"/>
<polygon fill="#63b8ff" stroke="#63b8ff" points="1017.14,-239.81 1022.69,-248.84 1023.98,-238.32 1017.14,-239.81"/>
</a>
</g>
</g>
<!-- Node3 -->
<g id="Node000003" class="node">
<title>Node3</title>
<g id="a_Node000003"><a xlink:href="classABoat.html#a2a8755582504f510d51f7988b42df18b" target="_top" xlink:title=" ">
<polygon fill="white" stroke="#666666" points="736,-438 652,-438 652,-419 736,-419 736,-438"/>
<text text-anchor="middle" x="694" y="-426" font-family="Helvetica,sans-Serif" font-size="10.00">ABoat::Spawn</text>
</a>
</g>
</g>
<!-- Node2&#45;&gt;Node3 -->
<g id="edge2_Node000002_Node000003" class="edge">
<title>Node2&#45;&gt;Node3</title>
<g id="a_edge2_Node000002_Node000003"><a xlink:title=" ">
<path fill="none" stroke="#63b8ff" d="M833.98,-428.5C803.5,-428.5 764.88,-428.5 736.09,-428.5"/>
<polygon fill="#63b8ff" stroke="#63b8ff" points="833.98,-432 843.98,-428.5 833.98,-425 833.98,-432"/>
</a>
</g>
</g>
<!-- Node5 -->
<g id="Node000005" class="node">
<title>Node5</title>
<g id="a_Node000005"><a xlink:href="classATrain.html#aa39976112e962ff1536c33236e16cc20" target="_top" xlink:title=" ">
<polygon fill="white" stroke="#666666" points="736,-401 652,-401 652,-382 736,-382 736,-401"/>
<text text-anchor="middle" x="694" y="-389" font-family="Helvetica,sans-Serif" font-size="10.00">ATrain::Spawn</text>
</a>
</g>
</g>
<!-- Node4&#45;&gt;Node5 -->
<g id="edge4_Node000004_Node000005" class="edge">
<title>Node4&#45;&gt;Node5</title>
<g id="a_edge4_Node000004_Node000005"><a xlink:title=" ">
<path fill="none" stroke="#63b8ff" d="M833.98,-391.5C803.5,-391.5 764.88,-391.5 736.09,-391.5"/>
<polygon fill="#63b8ff" stroke="#63b8ff" points="833.98,-395 843.98,-391.5 833.98,-388 833.98,-395"/>
</a>
</g>
</g>
<!-- Node6 -->
<g id="Node000006" class="node">
<title>Node6</title>
<g id="a_Node000006"><a xlink:href="classEditor_1_1ContentBrowserWindow.html#a892a21e5db2c05ba813cfdc4f1dae812" target="_top" xlink:title=" ">
<polygon fill="white" stroke="#666666" points="576,-406.5 408,-406.5 408,-376.5 576,-376.5 576,-406.5"/>
<text text-anchor="start" x="416" y="-394.5" font-family="Helvetica,sans-Serif" font-size="10.00">Editor::ContentBrowserWindow</text>
<text text-anchor="middle" x="492" y="-383.5" font-family="Helvetica,sans-Serif" font-size="10.00">::TrainWindow</text>
</a>
</g>
</g>
<!-- Node5&#45;&gt;Node6 -->
<g id="edge5_Node000005_Node000006" class="edge">
<title>Node5&#45;&gt;Node6</title>
<g id="a_edge5_Node000005_Node000006"><a xlink:title=" ">
<path fill="none" stroke="#63b8ff" d="M641.47,-391.5C621.54,-391.5 598.23,-391.5 576.06,-391.5"/>
<polygon fill="#63b8ff" stroke="#63b8ff" points="641.56,-395 651.56,-391.5 641.56,-388 641.56,-395"/>
</a>
</g>
</g>
<!-- Node7 -->
<g id="Node000007" class="node">
<title>Node7</title>
<g id="a_Node000007"><a xlink:href="classEditor_1_1ContentBrowserWindow.html#a592a4ce51797c84e28bd118755f1001a" target="_top" xlink:title=" ">
<polygon fill="white" stroke="#666666" points="372,-406.5 204,-406.5 204,-376.5 372,-376.5 372,-406.5"/>
<text text-anchor="start" x="212" y="-394.5" font-family="Helvetica,sans-Serif" font-size="10.00">Editor::ContentBrowserWindow</text>
<text text-anchor="middle" x="288" y="-383.5" font-family="Helvetica,sans-Serif" font-size="10.00">::AddActorContent</text>
</a>
</g>
</g>
<!-- Node6&#45;&gt;Node7 -->
<g id="edge6_Node000006_Node000007" class="edge">
<title>Node6&#45;&gt;Node7</title>
<g id="a_edge6_Node000006_Node000007"><a xlink:title=" ">
<path fill="none" stroke="#63b8ff" d="M397.89,-391.5C389.27,-391.5 380.56,-391.5 372.04,-391.5"/>
<polygon fill="#63b8ff" stroke="#63b8ff" points="397.96,-395 407.96,-391.5 397.96,-388 397.96,-395"/>
</a>
</g>
</g>
<!-- Node8 -->
<g id="Node000008" class="node">
<title>Node8</title>
<g id="a_Node000008"><a xlink:href="classEditor_1_1ContentBrowserWindow.html#aba36715d806ae75b046302e476726b44" target="_top" xlink:title=" ">
<polygon fill="white" stroke="#666666" points="168,-406.5 0,-406.5 0,-376.5 168,-376.5 168,-406.5"/>
<text text-anchor="start" x="8" y="-394.5" font-family="Helvetica,sans-Serif" font-size="10.00">Editor::ContentBrowserWindow</text>
<text text-anchor="middle" x="84" y="-383.5" font-family="Helvetica,sans-Serif" font-size="10.00">::DrawElement</text>
</a>
</g>
</g>
<!-- Node7&#45;&gt;Node8 -->
<g id="edge7_Node000007_Node000008" class="edge">
<title>Node7&#45;&gt;Node8</title>
<g id="a_edge7_Node000007_Node000008"><a xlink:title=" ">
<path fill="none" stroke="#63b8ff" d="M193.89,-391.5C185.27,-391.5 176.56,-391.5 168.04,-391.5"/>
<polygon fill="#63b8ff" stroke="#63b8ff" points="193.96,-395 203.96,-391.5 193.96,-388 193.96,-395"/>
</a>
</g>
</g>
<!-- Node11 -->
<g id="Node000011" class="node">
<title>Node11</title>
<g id="a_Node000011"><a xlink:href="falling__rock_2update_8inc_8c.html#a7476a0a7924f3878d39fb7b83f229779" target="_top" xlink:title="Updates the falling rock actor. Actor used in Choco Mountain.">
<polygon fill="white" stroke="#666666" points="752,-338.5 636,-338.5 636,-308.5 752,-308.5 752,-338.5"/>
<text text-anchor="start" x="644" y="-326.5" font-family="Helvetica,sans-Serif" font-size="10.00">update_actor_falling</text>
<text text-anchor="middle" x="694" y="-315.5" font-family="Helvetica,sans-Serif" font-size="10.00">_rocks</text>
</a>
</g>
</g>
<!-- Node10&#45;&gt;Node11 -->
<g id="edge10_Node000010_Node000011" class="edge">
<title>Node10&#45;&gt;Node11</title>
<g id="a_edge10_Node000010_Node000011"><a xlink:title=" ">
<path fill="none" stroke="#63b8ff" d="M828.05,-319.26C804.21,-320.02 776.35,-320.91 752.3,-321.68"/>
<polygon fill="#63b8ff" stroke="#63b8ff" points="828.47,-322.75 838.35,-318.94 828.24,-315.76 828.47,-322.75"/>
</a>
</g>
</g>
<!-- Node13 -->
<g id="Node000013" class="node">
<title>Node13</title>
<g id="a_Node000013"><a xlink:href="classKoopaTroopaBeach.html#a9080e865d29d960d60c9d86d9370ea1a" target="_top" xlink:title=" ">
<polygon fill="white" stroke="#666666" points="776,-290 612,-290 612,-271 776,-271 776,-290"/>
<text text-anchor="middle" x="694" y="-278" font-family="Helvetica,sans-Serif" font-size="10.00">KoopaTroopaBeach::BeginPlay</text>
</a>
</g>
</g>
<!-- Node12&#45;&gt;Node13 -->
<g id="edge12_Node000012_Node000013" class="edge">
<title>Node12&#45;&gt;Node13</title>
<g id="a_edge12_Node000012_Node000013"><a xlink:title=" ">
<path fill="none" stroke="#63b8ff" d="M820.06,-251.97C792.56,-258.25 761.13,-265.41 736.66,-271"/>
<polygon fill="#63b8ff" stroke="#63b8ff" points="821.02,-255.34 829.99,-249.71 819.46,-248.52 821.02,-255.34"/>
</a>
</g>
</g>
<!-- Node14 -->
<g id="Node000014" class="node">
<title>Node14</title>
<g id="a_Node000014"><a xlink:href="classOHotAirBalloon.html#a401de1da0d55d973c05514589e2b5298" target="_top" xlink:title=" ">
<polygon fill="white" stroke="#666666" points="750.5,-252.5 637.5,-252.5 637.5,-222.5 750.5,-222.5 750.5,-252.5"/>
<text text-anchor="start" x="645.5" y="-240.5" font-family="Helvetica,sans-Serif" font-size="10.00">OHotAirBalloon::init</text>
<text text-anchor="middle" x="694" y="-229.5" font-family="Helvetica,sans-Serif" font-size="10.00">_hot_air_balloon</text>
</a>
</g>
</g>
<!-- Node12&#45;&gt;Node14 -->
<g id="edge13_Node000012_Node000014" class="edge">
<title>Node12&#45;&gt;Node14</title>
<g id="a_edge13_Node000012_Node000014"><a xlink:title=" ">
<path fill="none" stroke="#63b8ff" d="M819.87,-237.5C797.42,-237.5 772.36,-237.5 750.62,-237.5"/>
<polygon fill="#63b8ff" stroke="#63b8ff" points="819.99,-241 829.99,-237.5 819.99,-234 819.99,-241"/>
</a>
</g>
</g>
<!-- Node15 -->
<g id="Node000015" class="node">
<title>Node15</title>
<g id="a_Node000015"><a xlink:href="classOHotAirBalloon.html#a40bc8d453d3d79b9a7accdc5b4e1420d" target="_top" xlink:title=" ">
<polygon fill="white" stroke="#666666" points="551.5,-252.5 432.5,-252.5 432.5,-222.5 551.5,-222.5 551.5,-252.5"/>
<text text-anchor="start" x="440.5" y="-240.5" font-family="Helvetica,sans-Serif" font-size="10.00">OHotAirBalloon::func</text>
<text text-anchor="middle" x="492" y="-229.5" font-family="Helvetica,sans-Serif" font-size="10.00">_80085768</text>
</a>
</g>
</g>
<!-- Node14&#45;&gt;Node15 -->
<g id="edge14_Node000014_Node000015" class="edge">
<title>Node14&#45;&gt;Node15</title>
<g id="a_edge14_Node000014_Node000015"><a xlink:title=" ">
<path fill="none" stroke="#63b8ff" d="M627.05,-237.5C602.67,-237.5 575.23,-237.5 551.55,-237.5"/>
<polygon fill="#63b8ff" stroke="#63b8ff" points="627.29,-241 637.29,-237.5 627.29,-234 627.29,-241"/>
</a>
</g>
</g>
<!-- Node16 -->
<g id="Node000016" class="node">
<title>Node16</title>
<g id="a_Node000016"><a xlink:href="classOHotAirBalloon.html#a59cdcf707eed92e7a9f72626d093fc23" target="_top" xlink:title=" ">
<polygon fill="white" stroke="#666666" points="347,-247 229,-247 229,-228 347,-228 347,-247"/>
<text text-anchor="middle" x="288" y="-235" font-family="Helvetica,sans-Serif" font-size="10.00">OHotAirBalloon::Tick</text>
</a>
</g>
</g>
<!-- Node15&#45;&gt;Node16 -->
<g id="edge15_Node000015_Node000016" class="edge">
<title>Node15&#45;&gt;Node16</title>
<g id="a_edge15_Node000015_Node000016"><a xlink:title=" ">
<path fill="none" stroke="#63b8ff" d="M422.05,-237.5C397.68,-237.5 370.53,-237.5 347.15,-237.5"/>
<polygon fill="#63b8ff" stroke="#63b8ff" points="422.3,-241 432.3,-237.5 422.3,-234 422.3,-241"/>
</a>
</g>
</g>
<!-- Node18 -->
<g id="Node000018" class="node">
<title>Node18</title>
<g id="a_Node000018"><a xlink:href="classAFallingRock.html#a78da7ee050ed40f6c83c0a334f7d901f" target="_top" xlink:title="Updates the falling rock actor. Actor used in Choco Mountain.">
<polygon fill="white" stroke="#666666" points="746.5,-204 641.5,-204 641.5,-185 746.5,-185 746.5,-204"/>
<text text-anchor="middle" x="694" y="-192" font-family="Helvetica,sans-Serif" font-size="10.00">AFallingRock::Tick</text>
</a>
</g>
</g>
<!-- Node17&#45;&gt;Node18 -->
<g id="edge17_Node000017_Node000018" class="edge">
<title>Node17&#45;&gt;Node18</title>
<g id="a_edge17_Node000017_Node000018"><a xlink:title=" ">
<path fill="none" stroke="#63b8ff" d="M817.8,-194.5C794.47,-194.5 768.57,-194.5 746.59,-194.5"/>
<polygon fill="#63b8ff" stroke="#63b8ff" points="817.96,-198 827.96,-194.5 817.96,-191 817.96,-198"/>
</a>
</g>
</g>
<!-- Node20 -->
<g id="Node000020" class="node">
<title>Node20</title>
<g id="a_Node000020"><a xlink:href="actors_8c.html#a0d9197f8df1df3e8834fbaf37e9e2115" target="_top" xlink:title=" ">
<polygon fill="white" stroke="#666666" points="741,-167 647,-167 647,-148 741,-148 741,-167"/>
<text text-anchor="middle" x="694" y="-155" font-family="Helvetica,sans-Serif" font-size="10.00">func_8029ABD4</text>
</a>
</g>
</g>
<!-- Node19&#45;&gt;Node20 -->
<g id="edge19_Node000019_Node000020" class="edge">
<title>Node19&#45;&gt;Node20</title>
<g id="a_edge19_Node000019_Node000020"><a xlink:title=" ">
<path fill="none" stroke="#63b8ff" d="M816.31,-157.5C791.41,-157.5 763.74,-157.5 741.13,-157.5"/>
<polygon fill="#63b8ff" stroke="#63b8ff" points="816.43,-161 826.43,-157.5 816.43,-154 816.43,-161"/>
</a>
</g>
</g>
<!-- Node22 -->
<g id="Node000022" class="node">
<title>Node22</title>
<g id="a_Node000022"><a xlink:href="classTestTrack.html#a2837e5e48c268d15ca1590ced6aa7a00" target="_top" xlink:title=" ">
<polygon fill="white" stroke="#666666" points="752,-130 636,-130 636,-111 752,-111 752,-130"/>
<text text-anchor="middle" x="694" y="-118" font-family="Helvetica,sans-Serif" font-size="10.00">TestTrack::BeginPlay</text>
</a>
</g>
</g>
<!-- Node21&#45;&gt;Node22 -->
<g id="edge21_Node000021_Node000022" class="edge">
<title>Node21&#45;&gt;Node22</title>
<g id="a_edge21_Node000021_Node000022"><a xlink:title=" ">
<path fill="none" stroke="#63b8ff" d="M816.31,-120.5C795.34,-120.5 772.42,-120.5 752.2,-120.5"/>
<polygon fill="#63b8ff" stroke="#63b8ff" points="816.43,-124 826.43,-120.5 816.43,-117 816.43,-124"/>
</a>
</g>
</g>
<!-- Node23&#45;&gt;Node13 -->
<g id="edge23_Node000023_Node000013" class="edge">
<title>Node23&#45;&gt;Node13</title>
<g id="a_edge23_Node000023_Node000013"><a xlink:title=" ">
<path fill="none" stroke="#63b8ff" d="M820.37,-280.5C806.19,-280.5 790.94,-280.5 776.14,-280.5"/>
<polygon fill="#63b8ff" stroke="#63b8ff" points="820.49,-284 830.49,-280.5 820.49,-277 820.49,-284"/>
</a>
</g>
</g>
<!-- Node25 -->
<g id="Node000025" class="node">
<title>Node25</title>
<g id="a_Node000025"><a xlink:href="classMarioRaceway.html#add93404089a3200bf3345cccbaaaff2d" target="_top" xlink:title=" ">
<polygon fill="white" stroke="#666666" points="765.5,-93 622.5,-93 622.5,-74 765.5,-74 765.5,-93"/>
<text text-anchor="middle" x="694" y="-81" font-family="Helvetica,sans-Serif" font-size="10.00">MarioRaceway::BeginPlay</text>
</a>
</g>
</g>
<!-- Node24&#45;&gt;Node25 -->
<g id="edge25_Node000024_Node000025" class="edge">
<title>Node24&#45;&gt;Node25</title>
<g id="a_edge25_Node000024_Node000025"><a xlink:title=" ">
<path fill="none" stroke="#63b8ff" d="M811.52,-72.37C796.5,-73.81 780.67,-75.32 765.69,-76.75"/>
<polygon fill="#63b8ff" stroke="#63b8ff" points="812.16,-75.83 821.78,-71.39 811.49,-68.86 812.16,-75.83"/>
</a>
</g>
</g>
<!-- Node26 -->
<g id="Node000026" class="node">
<title>Node26</title>
<g id="a_Node000026"><a xlink:href="classPodiumCeremony.html#a65cdc7a796ddbace20d38e2a6af2335c" target="_top" xlink:title=" ">
<polygon fill="white" stroke="#666666" points="773,-56 615,-56 615,-37 773,-37 773,-56"/>
<text text-anchor="middle" x="694" y="-44" font-family="Helvetica,sans-Serif" font-size="10.00">PodiumCeremony::BeginPlay</text>
</a>
</g>
</g>
<!-- Node24&#45;&gt;Node26 -->
<g id="edge26_Node000024_Node000026" class="edge">
<title>Node24&#45;&gt;Node26</title>
<g id="a_edge26_Node000024_Node000026"><a xlink:title=" ">
<path fill="none" stroke="#63b8ff" d="M811.76,-58.27C799.1,-56.99 785.86,-55.66 773.04,-54.37"/>
<polygon fill="#63b8ff" stroke="#63b8ff" points="811.48,-61.76 821.78,-59.28 812.18,-54.79 811.48,-61.76"/>
</a>
</g>
</g>
<!-- Node27 -->
<g id="Node000027" class="node">
<title>Node27</title>
<g id="a_Node000027"><a xlink:href="classRoyalRaceway.html#a417f6ebceb092a23aebc5448e8f1241e" target="_top" xlink:title=" ">
<polygon fill="white" stroke="#666666" points="765.5,-19 622.5,-19 622.5,0 765.5,0 765.5,-19"/>
<text text-anchor="middle" x="694" y="-7" font-family="Helvetica,sans-Serif" font-size="10.00">RoyalRaceway::BeginPlay</text>
</a>
</g>
</g>
<!-- Node24&#45;&gt;Node27 -->
<g id="edge27_Node000024_Node000027" class="edge">
<title>Node24&#45;&gt;Node27</title>
<g id="a_edge27_Node000024_Node000027"><a xlink:title=" ">
<path fill="none" stroke="#63b8ff" d="M849.57,-52.32C828.58,-44.46 800.97,-34.66 776,-27.5 765.2,-24.4 753.46,-21.52 742.36,-19.01"/>
<polygon fill="#63b8ff" stroke="#63b8ff" points="848.42,-55.62 859.01,-55.89 850.89,-49.08 848.42,-55.62"/>
</a>
</g>
</g>
</g>
</svg>

<g id="navigator" transform="translate(0 0)" fill="#404254">
  <rect fill="#f2f5e9" fill-opacity="0.5" stroke="#606060" stroke-width=".5" x="0" y="0" width="60" height="60"/>
  <use id="zoomplus" xlink:href="#zoomPlus" x="17" y="9" onmousedown="handleZoom(evt,'in')"/>
  <use id="zoomminus" xlink:href="#zoomMin" x="42" y="9" onmousedown="handleZoom(evt,'out')"/>
  <use id="reset" xlink:href="#resetDef" x="30" y="36" onmousedown="handleReset()"/>
   <use id="arrowup" xlink:href="#arrowUp" x="0" y="0" onmousedown="handlePan(0,-1)"/>
  <use id="arrowright" xlink:href="#arrowRight" x="0" y="0" onmousedown="handlePan(1,0)"/>
  <use id="arrowdown" xlink:href="#arrowDown" x="0" y="0" onmousedown="handlePan(0,1)"/>
  <use id="arrowleft" xlink:href="#arrowLeft" x="0" y="0" onmousedown="handlePan(-1,0)"/>
</g>
<svg viewBox="0 0 15 15" width="100%" height="30px" preserveAspectRatio="xMaxYMin meet">
 <g id="arrow_out" transform="scale(0.3 0.3)">
  <a xlink:href="math__util_8h_a523340db1831d8da840b1f2278194a6d_icgraph_org.svg" target="_base">
   <rect id="button" ry="5" rx="5" y="6" x="6" height="38" width="38"
        fill="#f2f5e9" fill-opacity="0.5" stroke="#606060" stroke-width="1.0"/>
   <path id="arrow"
     d="M 11.500037,31.436501 C 11.940474,20.09759 22.043105,11.32322 32.158766,21.979434 L 37.068811,17.246167 C 37.068811,17.246167 37.088388,32 37.088388,32 L 22.160133,31.978069 C 22.160133,31.978069 26.997745,27.140456 26.997745,27.140456 C 18.528582,18.264221 13.291696,25.230495 11.500037,31.436501 z"
     style="fill:#404040;"/>
  </a>
 </g>
</svg>

<style type='text/css'>
<![CDATA[
[data-mouse-over-selected='false'] { opacity: 0.7; }
[data-mouse-over-selected='true']  { opacity: 1.0; }
]]>
</style>
<script type="application/ecmascript"><![CDATA[
document.addEventListener('DOMContentLoaded', (event) => {
  highlightEdges();
  highlightAdjacentNodes();
});
]]></script>
</svg>
