<?xml version="1.0" encoding="UTF-8" standalone="no"?>
<!DOCTYPE svg PUBLIC "-//W3C//DTD SVG 1.1//EN"
 "http://www.w3.org/Graphics/SVG/1.1/DTD/svg11.dtd">
<!-- Generated by graphviz version 2.43.0 (0)
 -->
<!-- Title: vec3s_set Pages: 1 -->
<!--zoomable 467 -->

<svg id="main" version="1.1" xmlns="http://www.w3.org/2000/svg" xmlns:xlink="http://www.w3.org/1999/xlink" xml:space="preserve" onload="init(evt)">

<style type="text/css"><![CDATA[
.node, .edge {opacity: 0.7;}
.node.selected, .edge.selected {opacity: 1;}
.edge:hover path { stroke: red; }
.edge:hover polygon { stroke: red; fill: red; }
]]></style>

<defs>
  <circle id="rim" cx="0" cy="0" r="7"/>
  <circle id="rim2" cx="0" cy="0" r="3.5"/>
  <g id="zoomPlus">
    <use xlink:href="#rim" fill="#404040"><set attributeName="fill" to="#808080" begin="zoomplus.mouseover" end="zoomplus.mouseout"/></use>
    <path d="M-4,0h8M0,-4v8" fill="none" stroke="white" stroke-width="1.5" pointer-events="none"/>
  </g>
  <g id="zoomMin">
    <use xlink:href="#rim" fill="#404040"><set attributeName="fill" to="#808080" begin="zoomminus.mouseover" end="zoomminus.mouseout"/></use>
    <path d="M-4,0h8" fill="none" stroke="white" stroke-width="1.5" pointer-events="none"/>
  </g>
  <g id="arrowUp" transform="translate(30 24)">
    <use xlink:href="#rim"/>
    <path pointer-events="none" fill="none" stroke="white" stroke-width="1.5" d="M0,-3.0v7 M-2.5,-0.5L0,-3.0L2.5,-0.5"/>
  </g>
  <g id="arrowRight" transform="rotate(90) translate(36 -43)">
    <use xlink:href="#rim"/>
    <path pointer-events="none" fill="none" stroke="white" stroke-width="1.5" d="M0,-3.0v7 M-2.5,-0.5L0,-3.0L2.5,-0.5"/>
  </g>
  <g id="arrowDown" transform="rotate(180) translate(-30 -48)">
    <use xlink:href="#rim"/>
    <path pointer-events="none" fill="none" stroke="white" stroke-width="1.5" d="M0,-3.0v7 M-2.5,-0.5L0,-3.0L2.5,-0.5"/>
  </g>
  <g id="arrowLeft" transform="rotate(270) translate(-36 17)">
    <use xlink:href="#rim"/>
    <path pointer-events="none" fill="none" stroke="white" stroke-width="1.5" d="M0,-3.0v7 M-2.5,-0.5L0,-3.0L2.5,-0.5"/>
  </g>
  <g id="resetDef">
    <use xlink:href="#rim2" fill="#404040"><set attributeName="fill" to="#808080" begin="reset.mouseover" end="reset.mouseout"/></use>
  </g>
</defs>
<script type="application/ecmascript">
var viewWidth = 1046;
var viewHeight = 467;
var sectionId = 'dynsection-75';
</script>
<script type="application/ecmascript" xlink:href="svg.min.js"/>
<svg id="graph" class="graph">
<g id="viewport">
<title>vec3s_set</title>
<!-- Node1 -->
<g id="Node000001" class="node">
<title>Node1</title>
<g id="a_Node000001"><a xlink:title=" ">
<polygon fill="#999999" stroke="#666666" points="1038,-268 973,-268 973,-249 1038,-249 1038,-268"/>
<text text-anchor="middle" x="1005.5" y="-256" font-family="Helvetica,sans-Serif" font-size="10.00">vec3s_set</text>
</a>
</g>
</g>
<!-- Node2 -->
<g id="Node000002" class="node">
<title>Node2</title>
<g id="a_Node000002"><a xlink:href="classABoat.html#a72f9505bb203b7da30ee448f061bbe49" target="_top" xlink:title=" ">
<polygon fill="white" stroke="#666666" points="915,-454 834,-454 834,-435 915,-435 915,-454"/>
<text text-anchor="middle" x="874.5" y="-442" font-family="Helvetica,sans-Serif" font-size="10.00">ABoat::ABoat</text>
</a>
</g>
</g>
<!-- Node1&#45;&gt;Node2 -->
<g id="edge1_Node000001_Node000002" class="edge">
<title>Node1&#45;&gt;Node2</title>
<g id="a_edge1_Node000001_Node000002"><a xlink:title=" ">
<path fill="none" stroke="#63b8ff" d="M1001.77,-278.43C996.02,-312.81 979.5,-383.45 937,-423.5 930.84,-429.3 923.01,-433.51 915.02,-436.55"/>
<polygon fill="#63b8ff" stroke="#63b8ff" points="1005.27,-278.66 1003.33,-268.25 998.35,-277.6 1005.27,-278.66"/>
</a>
</g>
</g>
<!-- Node5 -->
<g id="Node000005" class="node">
<title>Node5</title>
<g id="a_Node000005"><a xlink:href="classATrain.html#a924e9fb51739e1fba6b0eff6635611bc" target="_top" xlink:title=" ">
<polygon fill="white" stroke="#666666" points="915,-414 834,-414 834,-395 915,-395 915,-414"/>
<text text-anchor="middle" x="874.5" y="-402" font-family="Helvetica,sans-Serif" font-size="10.00">ATrain::ATrain</text>
</a>
</g>
</g>
<!-- Node1&#45;&gt;Node5 -->
<g id="edge4_Node000001_Node000005" class="edge">
<title>Node1&#45;&gt;Node5</title>
<g id="a_edge4_Node000001_Node000005"><a xlink:title=" ">
<path fill="none" stroke="#63b8ff" d="M998.48,-277.88C989.29,-304.48 969.34,-352.2 937,-380.5 929.93,-386.69 921.07,-391.37 912.31,-394.89"/>
<polygon fill="#63b8ff" stroke="#63b8ff" points="1001.87,-278.79 1001.67,-268.2 995.22,-276.6 1001.87,-278.79"/>
</a>
</g>
</g>
<!-- Node7 -->
<g id="Node000007" class="node">
<title>Node7</title>
<g id="a_Node000007"><a xlink:href="classKalimariDesert.html#aa3f0f4155f0d9a6ecfb4ca824603b81f" target="_top" xlink:title=" ">
<polygon fill="white" stroke="#666666" points="564.5,-373 419.5,-373 419.5,-354 564.5,-354 564.5,-373"/>
<text text-anchor="middle" x="492" y="-361" font-family="Helvetica,sans-Serif" font-size="10.00">KalimariDesert::BeginPlay</text>
</a>
</g>
</g>
<!-- Node1&#45;&gt;Node7 -->
<g id="edge10_Node000001_Node000007" class="edge">
<title>Node1&#45;&gt;Node7</title>
<g id="a_edge10_Node000001_Node000007"><a xlink:title=" ">
<path fill="none" stroke="#63b8ff" d="M995.06,-277.06C984.05,-296.49 963.87,-326.02 937,-339.5 807.11,-404.67 628.16,-386.97 542.54,-373.04"/>
<polygon fill="#63b8ff" stroke="#63b8ff" points="998.17,-278.66 999.84,-268.2 992.01,-275.34 998.17,-278.66"/>
</a>
</g>
</g>
<!-- Node11 -->
<g id="Node000011" class="node">
<title>Node11</title>
<g id="a_Node000011"><a xlink:href="falling__rock_2update_8inc_8c.html#a9a8171deacccacba26f4fda3f2aec227" target="_top" xlink:title=" ">
<polygon fill="white" stroke="#666666" points="920.5,-330 828.5,-330 828.5,-311 920.5,-311 920.5,-330"/>
<text text-anchor="middle" x="874.5" y="-318" font-family="Helvetica,sans-Serif" font-size="10.00">func_8029CF0C</text>
</a>
</g>
</g>
<!-- Node1&#45;&gt;Node11 -->
<g id="edge11_Node000001_Node000011" class="edge">
<title>Node1&#45;&gt;Node11</title>
<g id="a_edge11_Node000001_Node000011"><a xlink:title=" ">
<path fill="none" stroke="#63b8ff" d="M982.17,-273.75C969.33,-282.08 952.69,-292.16 937,-299.5 927.7,-303.85 917.24,-307.76 907.62,-310.99"/>
<polygon fill="#63b8ff" stroke="#63b8ff" points="984.36,-276.5 990.77,-268.06 980.5,-270.66 984.36,-276.5"/>
</a>
</g>
</g>
<!-- Node13 -->
<g id="Node000013" class="node">
<title>Node13</title>
<g id="a_Node000013"><a xlink:href="actors_8c.html#a5998eaf5bee060a664f203f5d0a8ae95" target="_top" xlink:title=" ">
<polygon fill="white" stroke="#666666" points="929,-252.5 820,-252.5 820,-222.5 929,-222.5 929,-252.5"/>
<text text-anchor="start" x="828" y="-240.5" font-family="Helvetica,sans-Serif" font-size="10.00">init_actor_hot_air</text>
<text text-anchor="middle" x="874.5" y="-229.5" font-family="Helvetica,sans-Serif" font-size="10.00">_balloon_item_box</text>
</a>
</g>
</g>
<!-- Node1&#45;&gt;Node13 -->
<g id="edge13_Node000001_Node000013" class="edge">
<title>Node1&#45;&gt;Node13</title>
<g id="a_edge13_Node000001_Node000013"><a xlink:title=" ">
<path fill="none" stroke="#63b8ff" d="M962.95,-251.74C952.17,-249.98 940.41,-248.07 929.1,-246.23"/>
<polygon fill="#63b8ff" stroke="#63b8ff" points="962.51,-255.21 972.94,-253.36 963.64,-248.3 962.51,-255.21"/>
</a>
</g>
</g>
<!-- Node18 -->
<g id="Node000018" class="node">
<title>Node18</title>
<g id="a_Node000018"><a xlink:href="classAFallingRock.html#a61b80c1c12dbf2506ecf5089ee5cb757" target="_top" xlink:title=" ">
<polygon fill="white" stroke="#666666" points="931,-204 818,-204 818,-185 931,-185 931,-204"/>
<text text-anchor="middle" x="874.5" y="-192" font-family="Helvetica,sans-Serif" font-size="10.00">AFallingRock::Reset</text>
</a>
</g>
</g>
<!-- Node1&#45;&gt;Node18 -->
<g id="edge18_Node000001_Node000018" class="edge">
<title>Node1&#45;&gt;Node18</title>
<g id="a_edge18_Node000001_Node000018"><a xlink:title=" ">
<path fill="none" stroke="#63b8ff" d="M984.04,-242.59C971.11,-233.13 953.74,-221.46 937,-213.5 929.33,-209.85 920.79,-206.7 912.58,-204.06"/>
<polygon fill="#63b8ff" stroke="#63b8ff" points="982.11,-245.52 992.22,-248.72 986.31,-239.92 982.11,-245.52"/>
</a>
</g>
</g>
<!-- Node20 -->
<g id="Node000020" class="node">
<title>Node20</title>
<g id="a_Node000020"><a xlink:href="actors_8c.html#a89e1bc069861528b3d9bac9571a83cd5" target="_top" xlink:title=" ">
<polygon fill="white" stroke="#666666" points="932.5,-167 816.5,-167 816.5,-148 932.5,-148 932.5,-167"/>
<text text-anchor="middle" x="874.5" y="-155" font-family="Helvetica,sans-Serif" font-size="10.00">spawn_actor_at_pos</text>
</a>
</g>
</g>
<!-- Node1&#45;&gt;Node20 -->
<g id="edge20_Node000001_Node000020" class="edge">
<title>Node1&#45;&gt;Node20</title>
<g id="a_edge20_Node000001_Node000020"><a xlink:title=" ">
<path fill="none" stroke="#63b8ff" d="M993.87,-240.11C982.2,-221.49 961.78,-193.12 937,-176.5 931.25,-172.64 924.67,-169.54 918.01,-167.05"/>
<polygon fill="#63b8ff" stroke="#63b8ff" points="990.99,-242.11 999.16,-248.85 996.98,-238.48 990.99,-242.11"/>
</a>
</g>
</g>
<!-- Node22 -->
<g id="Node000022" class="node">
<title>Node22</title>
<g id="a_Node000022"><a xlink:href="falling__rock_2update_8inc_8c.html#ad18c14dd8d45f1315a6ed69f8ba9cdd3" target="_top" xlink:title=" ">
<polygon fill="white" stroke="#666666" points="932.5,-130 816.5,-130 816.5,-111 932.5,-111 932.5,-130"/>
<text text-anchor="middle" x="874.5" y="-118" font-family="Helvetica,sans-Serif" font-size="10.00">spawn_falling_rocks</text>
</a>
</g>
</g>
<!-- Node1&#45;&gt;Node22 -->
<g id="edge22_Node000001_Node000022" class="edge">
<title>Node1&#45;&gt;Node22</title>
<g id="a_edge22_Node000001_Node000022"><a xlink:title=" ">
<path fill="none" stroke="#63b8ff" d="M998.63,-239.26C989.61,-212.93 969.86,-165.92 937,-139.5 932.21,-135.65 926.64,-132.57 920.85,-130.12"/>
<polygon fill="#63b8ff" stroke="#63b8ff" points="995.33,-240.44 1001.75,-248.86 1001.98,-238.27 995.33,-240.44"/>
</a>
</g>
</g>
<!-- Node24 -->
<g id="Node000024" class="node">
<title>Node24</title>
<g id="a_Node000024"><a xlink:href="actors_8c.html#a64785058c93cd477d4f1f3fd1eee38fe" target="_top" xlink:title=" ">
<polygon fill="white" stroke="#666666" points="928.5,-290 820.5,-290 820.5,-271 928.5,-271 928.5,-290"/>
<text text-anchor="middle" x="874.5" y="-278" font-family="Helvetica,sans-Serif" font-size="10.00">spawn_palm_trees</text>
</a>
</g>
</g>
<!-- Node1&#45;&gt;Node24 -->
<g id="edge24_Node000001_Node000024" class="edge">
<title>Node1&#45;&gt;Node24</title>
<g id="a_edge24_Node000001_Node000024"><a xlink:title=" ">
<path fill="none" stroke="#63b8ff" d="M962.84,-265.61C951.93,-267.47 940.02,-269.5 928.6,-271.44"/>
<polygon fill="#63b8ff" stroke="#63b8ff" points="963.67,-269.01 972.94,-263.88 962.5,-262.11 963.67,-269.01"/>
</a>
</g>
</g>
<!-- Node25 -->
<g id="Node000025" class="node">
<title>Node25</title>
<g id="a_Node000025"><a xlink:href="actors_8c.html#af6d278bc785acfd772b70dd01b2a2dc0" target="_top" xlink:title=" ">
<polygon fill="white" stroke="#666666" points="937,-75 812,-75 812,-56 937,-56 937,-75"/>
<text text-anchor="middle" x="874.5" y="-63" font-family="Helvetica,sans-Serif" font-size="10.00">spawn_piranha_plants</text>
</a>
</g>
</g>
<!-- Node1&#45;&gt;Node25 -->
<g id="edge26_Node000001_Node000025" class="edge">
<title>Node1&#45;&gt;Node25</title>
<g id="a_edge26_Node000001_Node000025"><a xlink:title=" ">
<path fill="none" stroke="#63b8ff" d="M1000.23,-239.19C992.41,-207.49 973.15,-143.82 937,-102.5 926.58,-90.59 911.36,-81.39 898.67,-75.14"/>
<polygon fill="#63b8ff" stroke="#63b8ff" points="996.84,-240.04 1002.53,-248.98 1003.65,-238.44 996.84,-240.04"/>
</a>
</g>
</g>
<!-- Node3 -->
<g id="Node000003" class="node">
<title>Node3</title>
<g id="a_Node000003"><a xlink:href="classABoat.html#a2a8755582504f510d51f7988b42df18b" target="_top" xlink:title=" ">
<polygon fill="white" stroke="#666666" points="736,-458 652,-458 652,-439 736,-439 736,-458"/>
<text text-anchor="middle" x="694" y="-446" font-family="Helvetica,sans-Serif" font-size="10.00">ABoat::Spawn</text>
</a>
</g>
</g>
<!-- Node2&#45;&gt;Node3 -->
<g id="edge2_Node000002_Node000003" class="edge">
<title>Node2&#45;&gt;Node3</title>
<g id="a_edge2_Node000002_Node000003"><a xlink:title=" ">
<path fill="none" stroke="#63b8ff" d="M823.64,-445.62C796.03,-446.24 762.12,-447 736.05,-447.58"/>
<polygon fill="#63b8ff" stroke="#63b8ff" points="823.97,-449.11 833.89,-445.39 823.81,-442.11 823.97,-449.11"/>
</a>
</g>
</g>
<!-- Node4 -->
<g id="Node000004" class="node">
<title>Node4</title>
<g id="a_Node000004"><a xlink:href="classDKJungle.html#af1f20969288526ce721aa9a72e535422" target="_top" xlink:title=" ">
<polygon fill="white" stroke="#666666" points="550,-459 434,-459 434,-440 550,-440 550,-459"/>
<text text-anchor="middle" x="492" y="-447" font-family="Helvetica,sans-Serif" font-size="10.00">DKJungle::BeginPlay</text>
</a>
</g>
</g>
<!-- Node3&#45;&gt;Node4 -->
<g id="edge3_Node000003_Node000004" class="edge">
<title>Node3&#45;&gt;Node4</title>
<g id="a_edge3_Node000003_Node000004"><a xlink:title=" ">
<path fill="none" stroke="#63b8ff" d="M641.23,-448.76C613.38,-448.9 578.97,-449.07 550.31,-449.21"/>
<polygon fill="#63b8ff" stroke="#63b8ff" points="641.58,-452.26 651.56,-448.71 641.54,-445.26 641.58,-452.26"/>
</a>
</g>
</g>
<!-- Node6 -->
<g id="Node000006" class="node">
<title>Node6</title>
<g id="a_Node000006"><a xlink:href="classATrain.html#aa39976112e962ff1536c33236e16cc20" target="_top" xlink:title=" ">
<polygon fill="white" stroke="#666666" points="736,-414 652,-414 652,-395 736,-395 736,-414"/>
<text text-anchor="middle" x="694" y="-402" font-family="Helvetica,sans-Serif" font-size="10.00">ATrain::Spawn</text>
</a>
</g>
</g>
<!-- Node5&#45;&gt;Node6 -->
<g id="edge5_Node000005_Node000006" class="edge">
<title>Node5&#45;&gt;Node6</title>
<g id="a_edge5_Node000005_Node000006"><a xlink:title=" ">
<path fill="none" stroke="#63b8ff" d="M823.64,-404.5C796.03,-404.5 762.12,-404.5 736.05,-404.5"/>
<polygon fill="#63b8ff" stroke="#63b8ff" points="823.89,-408 833.89,-404.5 823.89,-401 823.89,-408"/>
</a>
</g>
</g>
<!-- Node6&#45;&gt;Node7 -->
<g id="edge6_Node000006_Node000007" class="edge">
<title>Node6&#45;&gt;Node7</title>
<g id="a_edge6_Node000006_Node000007"><a xlink:title=" ">
<path fill="none" stroke="#63b8ff" d="M641.66,-393.98C610.19,-387.52 570.21,-379.33 539.64,-373.06"/>
<polygon fill="#63b8ff" stroke="#63b8ff" points="641.06,-397.43 651.56,-396 642.47,-390.57 641.06,-397.43"/>
</a>
</g>
</g>
<!-- Node8 -->
<g id="Node000008" class="node">
<title>Node8</title>
<g id="a_Node000008"><a xlink:href="classEditor_1_1ContentBrowserWindow.html#a892a21e5db2c05ba813cfdc4f1dae812" target="_top" xlink:title=" ">
<polygon fill="white" stroke="#666666" points="576,-421.5 408,-421.5 408,-391.5 576,-391.5 576,-421.5"/>
<text text-anchor="start" x="416" y="-409.5" font-family="Helvetica,sans-Serif" font-size="10.00">Editor::ContentBrowserWindow</text>
<text text-anchor="middle" x="492" y="-398.5" font-family="Helvetica,sans-Serif" font-size="10.00">::TrainWindow</text>
</a>
</g>
</g>
<!-- Node6&#45;&gt;Node8 -->
<g id="edge7_Node000006_Node000008" class="edge">
<title>Node6&#45;&gt;Node8</title>
<g id="a_edge7_Node000006_Node000008"><a xlink:title=" ">
<path fill="none" stroke="#63b8ff" d="M641.47,-405.02C621.54,-405.21 598.23,-405.45 576.06,-405.67"/>
<polygon fill="#63b8ff" stroke="#63b8ff" points="641.6,-408.51 651.56,-404.91 641.53,-401.51 641.6,-408.51"/>
</a>
</g>
</g>
<!-- Node9 -->
<g id="Node000009" class="node">
<title>Node9</title>
<g id="a_Node000009"><a xlink:href="classEditor_1_1ContentBrowserWindow.html#a4c6f618d8a04fc19805b4642b40c57ce" target="_top" xlink:title=" ">
<polygon fill="white" stroke="#666666" points="372,-421.5 204,-421.5 204,-391.5 372,-391.5 372,-421.5"/>
<text text-anchor="start" x="212" y="-409.5" font-family="Helvetica,sans-Serif" font-size="10.00">Editor::ContentBrowserWindow</text>
<text text-anchor="middle" x="288" y="-398.5" font-family="Helvetica,sans-Serif" font-size="10.00">::AddActorContent</text>
</a>
</g>
</g>
<!-- Node8&#45;&gt;Node9 -->
<g id="edge8_Node000008_Node000009" class="edge">
<title>Node8&#45;&gt;Node9</title>
<g id="a_edge8_Node000008_Node000009"><a xlink:title=" ">
<path fill="none" stroke="#63b8ff" d="M397.89,-406.5C389.27,-406.5 380.56,-406.5 372.04,-406.5"/>
<polygon fill="#63b8ff" stroke="#63b8ff" points="397.96,-410 407.96,-406.5 397.96,-403 397.96,-410"/>
</a>
</g>
</g>
<!-- Node10 -->
<g id="Node000010" class="node">
<title>Node10</title>
<g id="a_Node000010"><a xlink:href="classEditor_1_1ContentBrowserWindow.html#aba36715d806ae75b046302e476726b44" target="_top" xlink:title=" ">
<polygon fill="white" stroke="#666666" points="168,-421.5 0,-421.5 0,-391.5 168,-391.5 168,-421.5"/>
<text text-anchor="start" x="8" y="-409.5" font-family="Helvetica,sans-Serif" font-size="10.00">Editor::ContentBrowserWindow</text>
<text text-anchor="middle" x="84" y="-398.5" font-family="Helvetica,sans-Serif" font-size="10.00">::DrawElement</text>
</a>
</g>
</g>
<!-- Node9&#45;&gt;Node10 -->
<g id="edge9_Node000009_Node000010" class="edge">
<title>Node9&#45;&gt;Node10</title>
<g id="a_edge9_Node000009_Node000010"><a xlink:title=" ">
<path fill="none" stroke="#63b8ff" d="M193.89,-406.5C185.27,-406.5 176.56,-406.5 168.04,-406.5"/>
<polygon fill="#63b8ff" stroke="#63b8ff" points="193.96,-410 203.96,-406.5 193.96,-403 193.96,-410"/>
</a>
</g>
</g>
<!-- Node12 -->
<g id="Node000012" class="node">
<title>Node12</title>
<g id="a_Node000012"><a xlink:href="falling__rock_2update_8inc_8c.html#a7476a0a7924f3878d39fb7b83f229779" target="_top" xlink:title="Updates the falling rock actor. Actor used in Choco Mountain.">
<polygon fill="white" stroke="#666666" points="752,-338.5 636,-338.5 636,-308.5 752,-308.5 752,-338.5"/>
<text text-anchor="start" x="644" y="-326.5" font-family="Helvetica,sans-Serif" font-size="10.00">update_actor_falling</text>
<text text-anchor="middle" x="694" y="-315.5" font-family="Helvetica,sans-Serif" font-size="10.00">_rocks</text>
</a>
</g>
</g>
<!-- Node11&#45;&gt;Node12 -->
<g id="edge12_Node000011_Node000012" class="edge">
<title>Node11&#45;&gt;Node12</title>
<g id="a_edge12_Node000011_Node000012"><a xlink:title=" ">
<path fill="none" stroke="#63b8ff" d="M818.41,-321.43C797.4,-321.78 773.42,-322.18 752.22,-322.54"/>
<polygon fill="#63b8ff" stroke="#63b8ff" points="818.52,-324.92 828.46,-321.26 818.4,-317.93 818.52,-324.92"/>
</a>
</g>
</g>
<!-- Node14 -->
<g id="Node000014" class="node">
<title>Node14</title>
<g id="a_Node000014"><a xlink:href="classKoopaTroopaBeach.html#a9080e865d29d960d60c9d86d9370ea1a" target="_top" xlink:title=" ">
<polygon fill="white" stroke="#666666" points="776,-290 612,-290 612,-271 776,-271 776,-290"/>
<text text-anchor="middle" x="694" y="-278" font-family="Helvetica,sans-Serif" font-size="10.00">KoopaTroopaBeach::BeginPlay</text>
</a>
</g>
</g>
<!-- Node13&#45;&gt;Node14 -->
<g id="edge14_Node000013_Node000014" class="edge">
<title>Node13&#45;&gt;Node14</title>
<g id="a_edge14_Node000013_Node000014"><a xlink:title=" ">
<path fill="none" stroke="#63b8ff" d="M810.05,-253.23C798.71,-256 787.01,-258.85 776,-261.5 763.08,-264.61 748.98,-267.93 736.23,-270.92"/>
<polygon fill="#63b8ff" stroke="#63b8ff" points="811.01,-256.59 819.88,-250.81 809.34,-249.8 811.01,-256.59"/>
</a>
</g>
</g>
<!-- Node15 -->
<g id="Node000015" class="node">
<title>Node15</title>
<g id="a_Node000015"><a xlink:href="classOHotAirBalloon.html#a401de1da0d55d973c05514589e2b5298" target="_top" xlink:title=" ">
<polygon fill="white" stroke="#666666" points="750.5,-252.5 637.5,-252.5 637.5,-222.5 750.5,-222.5 750.5,-252.5"/>
<text text-anchor="start" x="645.5" y="-240.5" font-family="Helvetica,sans-Serif" font-size="10.00">OHotAirBalloon::init</text>
<text text-anchor="middle" x="694" y="-229.5" font-family="Helvetica,sans-Serif" font-size="10.00">_hot_air_balloon</text>
</a>
</g>
</g>
<!-- Node13&#45;&gt;Node15 -->
<g id="edge15_Node000013_Node000015" class="edge">
<title>Node13&#45;&gt;Node15</title>
<g id="a_edge15_Node000013_Node000015"><a xlink:title=" ">
<path fill="none" stroke="#63b8ff" d="M809.73,-237.5C790.44,-237.5 769.41,-237.5 750.69,-237.5"/>
<polygon fill="#63b8ff" stroke="#63b8ff" points="809.94,-241 819.94,-237.5 809.94,-234 809.94,-241"/>
</a>
</g>
</g>
<!-- Node16 -->
<g id="Node000016" class="node">
<title>Node16</title>
<g id="a_Node000016"><a xlink:href="classOHotAirBalloon.html#a40bc8d453d3d79b9a7accdc5b4e1420d" target="_top" xlink:title=" ">
<polygon fill="white" stroke="#666666" points="551.5,-252.5 432.5,-252.5 432.5,-222.5 551.5,-222.5 551.5,-252.5"/>
<text text-anchor="start" x="440.5" y="-240.5" font-family="Helvetica,sans-Serif" font-size="10.00">OHotAirBalloon::func</text>
<text text-anchor="middle" x="492" y="-229.5" font-family="Helvetica,sans-Serif" font-size="10.00">_80085768</text>
</a>
</g>
</g>
<!-- Node15&#45;&gt;Node16 -->
<g id="edge16_Node000015_Node000016" class="edge">
<title>Node15&#45;&gt;Node16</title>
<g id="a_edge16_Node000015_Node000016"><a xlink:title=" ">
<path fill="none" stroke="#63b8ff" d="M627.05,-237.5C602.67,-237.5 575.23,-237.5 551.55,-237.5"/>
<polygon fill="#63b8ff" stroke="#63b8ff" points="627.29,-241 637.29,-237.5 627.29,-234 627.29,-241"/>
</a>
</g>
</g>
<!-- Node17 -->
<g id="Node000017" class="node">
<title>Node17</title>
<g id="a_Node000017"><a xlink:href="classOHotAirBalloon.html#a59cdcf707eed92e7a9f72626d093fc23" target="_top" xlink:title=" ">
<polygon fill="white" stroke="#666666" points="347,-247 229,-247 229,-228 347,-228 347,-247"/>
<text text-anchor="middle" x="288" y="-235" font-family="Helvetica,sans-Serif" font-size="10.00">OHotAirBalloon::Tick</text>
</a>
</g>
</g>
<!-- Node16&#45;&gt;Node17 -->
<g id="edge17_Node000016_Node000017" class="edge">
<title>Node16&#45;&gt;Node17</title>
<g id="a_edge17_Node000016_Node000017"><a xlink:title=" ">
<path fill="none" stroke="#63b8ff" d="M422.05,-237.5C397.68,-237.5 370.53,-237.5 347.15,-237.5"/>
<polygon fill="#63b8ff" stroke="#63b8ff" points="422.3,-241 432.3,-237.5 422.3,-234 422.3,-241"/>
</a>
</g>
</g>
<!-- Node19 -->
<g id="Node000019" class="node">
<title>Node19</title>
<g id="a_Node000019"><a xlink:href="classAFallingRock.html#a78da7ee050ed40f6c83c0a334f7d901f" target="_top" xlink:title="Updates the falling rock actor. Actor used in Choco Mountain.">
<polygon fill="white" stroke="#666666" points="746.5,-204 641.5,-204 641.5,-185 746.5,-185 746.5,-204"/>
<text text-anchor="middle" x="694" y="-192" font-family="Helvetica,sans-Serif" font-size="10.00">AFallingRock::Tick</text>
</a>
</g>
</g>
<!-- Node18&#45;&gt;Node19 -->
<g id="edge19_Node000018_Node000019" class="edge">
<title>Node18&#45;&gt;Node19</title>
<g id="a_edge19_Node000018_Node000019"><a xlink:title=" ">
<path fill="none" stroke="#63b8ff" d="M807.91,-194.5C787.66,-194.5 765.67,-194.5 746.51,-194.5"/>
<polygon fill="#63b8ff" stroke="#63b8ff" points="808,-198 818,-194.5 808,-191 808,-198"/>
</a>
</g>
</g>
<!-- Node21 -->
<g id="Node000021" class="node">
<title>Node21</title>
<g id="a_Node000021"><a xlink:href="actors_8c.html#a0d9197f8df1df3e8834fbaf37e9e2115" target="_top" xlink:title=" ">
<polygon fill="white" stroke="#666666" points="741,-167 647,-167 647,-148 741,-148 741,-167"/>
<text text-anchor="middle" x="694" y="-155" font-family="Helvetica,sans-Serif" font-size="10.00">func_8029ABD4</text>
</a>
</g>
</g>
<!-- Node20&#45;&gt;Node21 -->
<g id="edge21_Node000020_Node000021" class="edge">
<title>Node20&#45;&gt;Node21</title>
<g id="a_edge21_Node000020_Node000021"><a xlink:title=" ">
<path fill="none" stroke="#63b8ff" d="M805.91,-157.5C784.26,-157.5 760.8,-157.5 741.05,-157.5"/>
<polygon fill="#63b8ff" stroke="#63b8ff" points="806.04,-161 816.04,-157.5 806.04,-154 806.04,-161"/>
</a>
</g>
</g>
<!-- Node23 -->
<g id="Node000023" class="node">
<title>Node23</title>
<g id="a_Node000023"><a xlink:href="classTestTrack.html#a2837e5e48c268d15ca1590ced6aa7a00" target="_top" xlink:title=" ">
<polygon fill="white" stroke="#666666" points="752,-130 636,-130 636,-111 752,-111 752,-130"/>
<text text-anchor="middle" x="694" y="-118" font-family="Helvetica,sans-Serif" font-size="10.00">TestTrack::BeginPlay</text>
</a>
</g>
</g>
<!-- Node22&#45;&gt;Node23 -->
<g id="edge23_Node000022_Node000023" class="edge">
<title>Node22&#45;&gt;Node23</title>
<g id="a_edge23_Node000022_Node000023"><a xlink:title=" ">
<path fill="none" stroke="#63b8ff" d="M805.77,-120.5C788.06,-120.5 769.14,-120.5 752.05,-120.5"/>
<polygon fill="#63b8ff" stroke="#63b8ff" points="806.04,-124 816.04,-120.5 806.04,-117 806.04,-124"/>
</a>
</g>
</g>
<!-- Node24&#45;&gt;Node14 -->
<g id="edge25_Node000024_Node000014" class="edge">
<title>Node24&#45;&gt;Node14</title>
<g id="a_edge25_Node000024_Node000014"><a xlink:title=" ">
<path fill="none" stroke="#63b8ff" d="M810.12,-280.5C799.17,-280.5 787.65,-280.5 776.3,-280.5"/>
<polygon fill="#63b8ff" stroke="#63b8ff" points="810.43,-284 820.43,-280.5 810.43,-277 810.43,-284"/>
</a>
</g>
</g>
<!-- Node26 -->
<g id="Node000026" class="node">
<title>Node26</title>
<g id="a_Node000026"><a xlink:href="classMarioRaceway.html#add93404089a3200bf3345cccbaaaff2d" target="_top" xlink:title=" ">
<polygon fill="white" stroke="#666666" points="765.5,-93 622.5,-93 622.5,-74 765.5,-74 765.5,-93"/>
<text text-anchor="middle" x="694" y="-81" font-family="Helvetica,sans-Serif" font-size="10.00">MarioRaceway::BeginPlay</text>
</a>
</g>
</g>
<!-- Node25&#45;&gt;Node26 -->
<g id="edge27_Node000025_Node000026" class="edge">
<title>Node25&#45;&gt;Node26</title>
<g id="a_edge27_Node000025_Node000026"><a xlink:title=" ">
<path fill="none" stroke="#63b8ff" d="M801.53,-72.76C789.67,-73.95 777.39,-75.19 765.57,-76.38"/>
<polygon fill="#63b8ff" stroke="#63b8ff" points="802.22,-76.21 811.82,-71.72 801.52,-69.24 802.22,-76.21"/>
</a>
</g>
</g>
<!-- Node27 -->
<g id="Node000027" class="node">
<title>Node27</title>
<g id="a_Node000027"><a xlink:href="classPodiumCeremony.html#a65cdc7a796ddbace20d38e2a6af2335c" target="_top" xlink:title=" ">
<polygon fill="white" stroke="#666666" points="773,-56 615,-56 615,-37 773,-37 773,-56"/>
<text text-anchor="middle" x="694" y="-44" font-family="Helvetica,sans-Serif" font-size="10.00">PodiumCeremony::BeginPlay</text>
</a>
</g>
</g>
<!-- Node25&#45;&gt;Node27 -->
<g id="edge28_Node000025_Node000027" class="edge">
<title>Node25&#45;&gt;Node27</title>
<g id="a_edge28_Node000025_Node000027"><a xlink:title=" ">
<path fill="none" stroke="#63b8ff" d="M801.71,-57.86C792.28,-56.86 782.58,-55.82 773.06,-54.81"/>
<polygon fill="#63b8ff" stroke="#63b8ff" points="801.51,-61.36 811.82,-58.93 802.25,-54.4 801.51,-61.36"/>
</a>
</g>
</g>
<!-- Node28 -->
<g id="Node000028" class="node">
<title>Node28</title>
<g id="a_Node000028"><a xlink:href="classRoyalRaceway.html#a417f6ebceb092a23aebc5448e8f1241e" target="_top" xlink:title=" ">
<polygon fill="white" stroke="#666666" points="765.5,-19 622.5,-19 622.5,0 765.5,0 765.5,-19"/>
<text text-anchor="middle" x="694" y="-7" font-family="Helvetica,sans-Serif" font-size="10.00">RoyalRaceway::BeginPlay</text>
</a>
</g>
</g>
<!-- Node25&#45;&gt;Node28 -->
<g id="edge29_Node000025_Node000028" class="edge">
<title>Node25&#45;&gt;Node28</title>
<g id="a_edge29_Node000025_Node000028"><a xlink:title=" ">
<path fill="none" stroke="#63b8ff" d="M842.44,-51.99C823.5,-44.1 798.65,-34.39 776,-27.5 765.66,-24.36 754.43,-21.51 743.71,-19.06"/>
<polygon fill="#63b8ff" stroke="#63b8ff" points="841.19,-55.26 851.77,-55.92 843.91,-48.81 841.19,-55.26"/>
</a>
</g>
</g>
</g>
</svg>

<g id="navigator" transform="translate(0 0)" fill="#404254">
  <rect fill="#f2f5e9" fill-opacity="0.5" stroke="#606060" stroke-width=".5" x="0" y="0" width="60" height="60"/>
  <use id="zoomplus" xlink:href="#zoomPlus" x="17" y="9" onmousedown="handleZoom(evt,'in')"/>
  <use id="zoomminus" xlink:href="#zoomMin" x="42" y="9" onmousedown="handleZoom(evt,'out')"/>
  <use id="reset" xlink:href="#resetDef" x="30" y="36" onmousedown="handleReset()"/>
   <use id="arrowup" xlink:href="#arrowUp" x="0" y="0" onmousedown="handlePan(0,-1)"/>
  <use id="arrowright" xlink:href="#arrowRight" x="0" y="0" onmousedown="handlePan(1,0)"/>
  <use id="arrowdown" xlink:href="#arrowDown" x="0" y="0" onmousedown="handlePan(0,1)"/>
  <use id="arrowleft" xlink:href="#arrowLeft" x="0" y="0" onmousedown="handlePan(-1,0)"/>
</g>
<svg viewBox="0 0 15 15" width="100%" height="30px" preserveAspectRatio="xMaxYMin meet">
 <g id="arrow_out" transform="scale(0.3 0.3)">
  <a xlink:href="math__util_8c_a9092c945c52b3a3481228b2724991e3c_icgraph_org.svg" target="_base">
   <rect id="button" ry="5" rx="5" y="6" x="6" height="38" width="38"
        fill="#f2f5e9" fill-opacity="0.5" stroke="#606060" stroke-width="1.0"/>
   <path id="arrow"
     d="M 11.500037,31.436501 C 11.940474,20.09759 22.043105,11.32322 32.158766,21.979434 L 37.068811,17.246167 C 37.068811,17.246167 37.088388,32 37.088388,32 L 22.160133,31.978069 C 22.160133,31.978069 26.997745,27.140456 26.997745,27.140456 C 18.528582,18.264221 13.291696,25.230495 11.500037,31.436501 z"
     style="fill:#404040;"/>
  </a>
 </g>
</svg>

<style type='text/css'>
<![CDATA[
[data-mouse-over-selected='false'] { opacity: 0.7; }
[data-mouse-over-selected='true']  { opacity: 1.0; }
]]>
</style>
<script type="application/ecmascript"><![CDATA[
document.addEventListener('DOMContentLoaded', (event) => {
  highlightEdges();
  highlightAdjacentNodes();
});
]]></script>
</svg>
