<?xml version="1.0" encoding="UTF-8" standalone="no"?>
<!DOCTYPE svg PUBLIC "-//W3C//DTD SVG 1.1//EN"
 "http://www.w3.org/Graphics/SVG/1.1/DTD/svg11.dtd">
<!-- Generated by graphviz version 2.43.0 (0)
 -->
<!-- Title: sinf Pages: 1 -->
<svg width="855pt" height="871pt"
 viewBox="0.00 0.00 855.00 871.00" xmlns="http://www.w3.org/2000/svg" xmlns:xlink="http://www.w3.org/1999/xlink">
<g id="graph0" class="graph" transform="scale(1 1) rotate(0) translate(4 867)">
<title>sinf</title>
<!-- Node1 -->
<g id="Node000001" class="node">
<title>Node1</title>
<g id="a_Node000001"><a xlink:title=" ">
<polygon fill="#999999" stroke="#666666" points="847,-241 812,-241 812,-222 847,-222 847,-241"/>
<text text-anchor="middle" x="829.5" y="-229" font-family="Helvetica,sans-Serif" font-size="10.00">sinf</text>
</a>
</g>
</g>
<!-- Node2 -->
<g id="Node000002" class="node">
<title>Node2</title>
<g id="a_Node000002"><a xlink:href="freecam__engine_8c.html#a8274a8d234eadb39b99538fbf0f6cdc6" target="_top" xlink:title=" ">
<polygon fill="white" stroke="#666666" points="774,-705.5 625,-705.5 625,-675.5 774,-675.5 774,-705.5"/>
<text text-anchor="start" x="633" y="-693.5" font-family="Helvetica,sans-Serif" font-size="10.00">freecam_calculate_forward</text>
<text text-anchor="middle" x="699.5" y="-682.5" font-family="Helvetica,sans-Serif" font-size="10.00">_vector_allow_rotation</text>
</a>
</g>
</g>
<!-- Node1&#45;&gt;Node2 -->
<g id="edge1_Node000001_Node000002" class="edge">
<title>Node1&#45;&gt;Node2</title>
<g id="a_edge1_Node000001_Node000002"><a xlink:title=" ">
<path fill="none" stroke="#63b8ff" d="M827.12,-251.28C823.25,-300.77 810.22,-433.56 776,-538.5 758.83,-591.17 726.16,-648.45 710.02,-675.17"/>
<polygon fill="#63b8ff" stroke="#63b8ff" points="830.63,-251.27 827.88,-241.03 823.65,-250.75 830.63,-251.27"/>
</a>
</g>
</g>
<!-- Node6 -->
<g id="Node000006" class="node">
<title>Node6</title>
<g id="a_Node000006"><a xlink:href="math__util_8c.html#a9fac0ad3d9b29974486905779554714e" target="_top" xlink:title=" ">
<polygon fill="white" stroke="#666666" points="745.5,-529 653.5,-529 653.5,-510 745.5,-510 745.5,-529"/>
<text text-anchor="middle" x="699.5" y="-517" font-family="Helvetica,sans-Serif" font-size="10.00">func_802B5564</text>
</a>
</g>
</g>
<!-- Node1&#45;&gt;Node6 -->
<g id="edge5_Node000001_Node000006" class="edge">
<title>Node1&#45;&gt;Node6</title>
<g id="a_edge5_Node000001_Node000006"><a xlink:title=" ">
<path fill="none" stroke="#63b8ff" d="M825.43,-251.2C819.44,-286.26 804.24,-361.18 776,-418.5 757.71,-455.62 725.28,-492.98 709.55,-509.99"/>
<polygon fill="#63b8ff" stroke="#63b8ff" points="828.89,-251.73 827.06,-241.29 821.98,-250.59 828.89,-251.73"/>
</a>
</g>
</g>
<!-- Node57 -->
<g id="Node000057" class="node">
<title>Node57</title>
<g id="a_Node000057"><a xlink:href="EditorMath_8cpp.html#a707962eeb418c5eae5161502b49da8e4" target="_top" xlink:title=" ">
<polygon fill="white" stroke="#666666" points="776,-315 623,-315 623,-296 776,-296 776,-315"/>
<text text-anchor="middle" x="699.5" y="-303" font-family="Helvetica,sans-Serif" font-size="10.00">GetPositionAheadOfCamera</text>
</a>
</g>
</g>
<!-- Node1&#45;&gt;Node57 -->
<g id="edge18_Node000001_Node000057" class="edge">
<title>Node1&#45;&gt;Node57</title>
<g id="a_edge18_Node000001_Node000057"><a xlink:title=" ">
<path fill="none" stroke="#63b8ff" d="M816.2,-249.37C806.65,-261.9 792.32,-278.03 776,-287.5 770.06,-290.95 763.48,-293.74 756.77,-295.99"/>
<polygon fill="#63b8ff" stroke="#63b8ff" points="819.21,-251.18 822.27,-241.04 813.55,-247.06 819.21,-251.18"/>
</a>
</g>
</g>
<!-- Node62 -->
<g id="Node000062" class="node">
<title>Node62</title>
<g id="a_Node000062"><a xlink:href="guPerspectiveF_8c.html#a440bd049e431a7ef892658d88620646c" target="_top" xlink:title=" ">
<polygon fill="white" stroke="#666666" points="549,-423 457,-423 457,-404 549,-404 549,-423"/>
<text text-anchor="middle" x="503" y="-411" font-family="Helvetica,sans-Serif" font-size="10.00">guPerspectiveF</text>
</a>
</g>
</g>
<!-- Node1&#45;&gt;Node62 -->
<g id="edge25_Node000001_Node000062" class="edge">
<title>Node1&#45;&gt;Node62</title>
<g id="a_edge25_Node000001_Node000062"><a xlink:title=" ">
<path fill="none" stroke="#63b8ff" d="M827.59,-251.61C824.96,-283.74 814.84,-346.18 776,-377.5 711.2,-429.75 608.13,-427.44 549.22,-420.71"/>
<polygon fill="#63b8ff" stroke="#63b8ff" points="831.1,-251.47 828.26,-241.26 824.12,-251.02 831.1,-251.47"/>
</a>
</g>
</g>
<!-- Node75 -->
<g id="Node000075" class="node">
<title>Node75</title>
<g id="a_Node000075"><a xlink:href="guRotateF_8c.html#a6bf4235e1732340bfcbde49454bd63ff" target="_top" xlink:title=" ">
<polygon fill="white" stroke="#666666" points="733,-368 666,-368 666,-349 733,-349 733,-368"/>
<text text-anchor="middle" x="699.5" y="-356" font-family="Helvetica,sans-Serif" font-size="10.00">guRotateF</text>
</a>
</g>
</g>
<!-- Node1&#45;&gt;Node75 -->
<g id="edge39_Node000001_Node000075" class="edge">
<title>Node1&#45;&gt;Node75</title>
<g id="a_edge39_Node000001_Node000075"><a xlink:title=" ">
<path fill="none" stroke="#63b8ff" d="M821.78,-250.82C813.75,-271.46 798.5,-303.95 776,-324.5 763.9,-335.55 747.6,-343.5 733.25,-348.92"/>
<polygon fill="#63b8ff" stroke="#63b8ff" points="825.14,-251.83 825.33,-241.24 818.58,-249.41 825.14,-251.83"/>
</a>
</g>
</g>
<!-- Node86 -->
<g id="Node000086" class="node">
<title>Node86</title>
<g id="a_Node000086"><a xlink:href="matrix_8c.html#a1a1152d173452c211da6efcfb4c570cd" target="_top" xlink:title=" ">
<polygon fill="white" stroke="#666666" points="753,-278 646,-278 646,-259 753,-259 753,-278"/>
<text text-anchor="middle" x="699.5" y="-266" font-family="Helvetica,sans-Serif" font-size="10.00">Matrix_RotateAxis</text>
</a>
</g>
</g>
<!-- Node1&#45;&gt;Node86 -->
<g id="edge45_Node000001_Node000086" class="edge">
<title>Node1&#45;&gt;Node86</title>
<g id="a_edge45_Node000001_Node000086"><a xlink:title=" ">
<path fill="none" stroke="#63b8ff" d="M802.1,-241.71C793.81,-244.74 784.58,-247.93 776,-250.5 765.8,-253.55 754.71,-256.43 744.24,-258.96"/>
<polygon fill="#63b8ff" stroke="#63b8ff" points="803.49,-244.93 811.64,-238.15 801.05,-238.37 803.49,-244.93"/>
</a>
</g>
</g>
<!-- Node87 -->
<g id="Node000087" class="node">
<title>Node87</title>
<g id="a_Node000087"><a xlink:href="matrix_8c.html#aaa305a1912488e82e504587c44782186" target="_top" xlink:title=" ">
<polygon fill="white" stroke="#666666" points="745.5,-241 653.5,-241 653.5,-222 745.5,-222 745.5,-241"/>
<text text-anchor="middle" x="699.5" y="-229" font-family="Helvetica,sans-Serif" font-size="10.00">Matrix_RotateX</text>
</a>
</g>
</g>
<!-- Node1&#45;&gt;Node87 -->
<g id="edge46_Node000001_Node000087" class="edge">
<title>Node1&#45;&gt;Node87</title>
<g id="a_edge46_Node000001_Node000087"><a xlink:title=" ">
<path fill="none" stroke="#63b8ff" d="M801.41,-231.5C785.22,-231.5 764.25,-231.5 745.61,-231.5"/>
<polygon fill="#63b8ff" stroke="#63b8ff" points="801.77,-235 811.77,-231.5 801.77,-228 801.77,-235"/>
</a>
</g>
</g>
<!-- Node89 -->
<g id="Node000089" class="node">
<title>Node89</title>
<g id="a_Node000089"><a xlink:href="matrix_8c.html#a98e5dad795f9742cd28838d09dc12cec" target="_top" xlink:title=" ">
<polygon fill="white" stroke="#666666" points="745.5,-204 653.5,-204 653.5,-185 745.5,-185 745.5,-204"/>
<text text-anchor="middle" x="699.5" y="-192" font-family="Helvetica,sans-Serif" font-size="10.00">Matrix_RotateY</text>
</a>
</g>
</g>
<!-- Node1&#45;&gt;Node89 -->
<g id="edge48_Node000001_Node000089" class="edge">
<title>Node1&#45;&gt;Node89</title>
<g id="a_edge48_Node000001_Node000089"><a xlink:title=" ">
<path fill="none" stroke="#63b8ff" d="M802.04,-221.95C793.75,-219.08 784.54,-216.03 776,-213.5 764.73,-210.16 752.4,-206.89 741.03,-204.04"/>
<polygon fill="#63b8ff" stroke="#63b8ff" points="801,-225.29 811.59,-225.3 803.32,-218.68 801,-225.29"/>
</a>
</g>
</g>
<!-- Node91 -->
<g id="Node000091" class="node">
<title>Node91</title>
<g id="a_Node000091"><a xlink:href="matrix_8c.html#ae3ec435526cd1ca5ba7c194fba3776eb" target="_top" xlink:title=" ">
<polygon fill="white" stroke="#666666" points="745.5,-167 653.5,-167 653.5,-148 745.5,-148 745.5,-167"/>
<text text-anchor="middle" x="699.5" y="-155" font-family="Helvetica,sans-Serif" font-size="10.00">Matrix_RotateZ</text>
</a>
</g>
</g>
<!-- Node1&#45;&gt;Node91 -->
<g id="edge51_Node000001_Node000091" class="edge">
<title>Node1&#45;&gt;Node91</title>
<g id="a_edge51_Node000001_Node000091"><a xlink:title=" ">
<path fill="none" stroke="#63b8ff" d="M815.77,-213.59C806.18,-201.38 791.97,-185.81 776,-176.5 766.77,-171.12 756.05,-167.26 745.64,-164.48"/>
<polygon fill="#63b8ff" stroke="#63b8ff" points="813.09,-215.86 821.9,-221.75 818.69,-211.65 813.09,-215.86"/>
</a>
</g>
</g>
<!-- Node92 -->
<g id="Node000092" class="node">
<title>Node92</title>
<g id="a_Node000092"><a xlink:href="EditorMath_8cpp.html#aec421cbbf2e9bd9129630e44e420cd3b" target="_top" xlink:title=" ">
<polygon fill="white" stroke="#666666" points="768,-130 631,-130 631,-111 768,-111 768,-130"/>
<text text-anchor="middle" x="699.5" y="-118" font-family="Helvetica,sans-Serif" font-size="10.00">SetDirectionFromRotator</text>
</a>
</g>
</g>
<!-- Node1&#45;&gt;Node92 -->
<g id="edge53_Node000001_Node000092" class="edge">
<title>Node1&#45;&gt;Node92</title>
<g id="a_edge53_Node000001_Node000092"><a xlink:title=" ">
<path fill="none" stroke="#63b8ff" d="M822.82,-212.28C815.51,-190.95 800.71,-157.11 776,-138.5 771.48,-135.1 766.41,-132.32 761.09,-130.07"/>
<polygon fill="#63b8ff" stroke="#63b8ff" points="819.51,-213.43 825.9,-221.88 826.18,-211.29 819.51,-213.43"/>
</a>
</g>
</g>
<!-- Node94 -->
<g id="Node000094" class="node">
<title>Node94</title>
<g id="a_Node000094"><a xlink:href="classASpaghettiShip.html#aabfb3bdc331da98c0e6caacf02797c31" target="_top" xlink:title=" ">
<polygon fill="white" stroke="#666666" points="758,-93 641,-93 641,-74 758,-74 758,-93"/>
<text text-anchor="middle" x="699.5" y="-81" font-family="Helvetica,sans-Serif" font-size="10.00">ASpaghettiShip::Tick</text>
</a>
</g>
</g>
<!-- Node1&#45;&gt;Node94 -->
<g id="edge55_Node000001_Node000094" class="edge">
<title>Node1&#45;&gt;Node94</title>
<g id="a_edge55_Node000001_Node000094"><a xlink:title=" ">
<path fill="none" stroke="#63b8ff" d="M826.22,-211.95C821.81,-183.31 809.39,-130.23 776,-101.5 770.79,-97.02 764.66,-93.61 758.18,-91.02"/>
<polygon fill="#63b8ff" stroke="#63b8ff" points="822.76,-212.52 827.58,-221.95 829.7,-211.57 822.76,-212.52"/>
</a>
</g>
</g>
<!-- Node95 -->
<g id="Node000095" class="node">
<title>Node95</title>
<g id="a_Node000095"><a xlink:href="classAStarship.html#a13d936f05c0f19811e1753f026ed3ae4" target="_top" xlink:title=" ">
<polygon fill="white" stroke="#666666" points="744,-56 655,-56 655,-37 744,-37 744,-56"/>
<text text-anchor="middle" x="699.5" y="-44" font-family="Helvetica,sans-Serif" font-size="10.00">AStarship::Tick</text>
</a>
</g>
</g>
<!-- Node1&#45;&gt;Node95 -->
<g id="edge56_Node000001_Node000095" class="edge">
<title>Node1&#45;&gt;Node95</title>
<g id="a_edge56_Node000001_Node000095"><a xlink:title=" ">
<path fill="none" stroke="#63b8ff" d="M828.24,-211.54C826.66,-176.46 818.15,-103.78 776,-64.5 767.32,-56.42 755.69,-51.76 744.16,-49.14"/>
<polygon fill="#63b8ff" stroke="#63b8ff" points="824.76,-211.99 828.55,-221.89 831.75,-211.79 824.76,-211.99"/>
</a>
</g>
</g>
<!-- Node96 -->
<g id="Node000096" class="node">
<title>Node96</title>
<g id="a_Node000096"><a xlink:href="classOTrophy.html#a907d7e4c1695e4764fc2e299a10cc782" target="_top" xlink:title=" ">
<polygon fill="white" stroke="#666666" points="740.5,-19 658.5,-19 658.5,0 740.5,0 740.5,-19"/>
<text text-anchor="middle" x="699.5" y="-7" font-family="Helvetica,sans-Serif" font-size="10.00">OTrophy::Tick</text>
</a>
</g>
</g>
<!-- Node1&#45;&gt;Node96 -->
<g id="edge57_Node000001_Node000096" class="edge">
<title>Node1&#45;&gt;Node96</title>
<g id="a_edge57_Node000001_Node000096"><a xlink:title=" ">
<path fill="none" stroke="#63b8ff" d="M826.03,-211.79C819.86,-165.82 802.4,-53.43 776,-27.5 766.58,-18.25 753.31,-13.44 740.51,-11.03"/>
<polygon fill="#63b8ff" stroke="#63b8ff" points="822.59,-212.49 827.35,-221.96 829.53,-211.59 822.59,-212.49"/>
</a>
</g>
</g>
<!-- Node3 -->
<g id="Node000003" class="node">
<title>Node3</title>
<g id="a_Node000003"><a xlink:href="freecam_8cpp.html#a66970e145d033feb13d6c3a660b72546" target="_top" xlink:title=" ">
<polygon fill="white" stroke="#666666" points="544.5,-826 461.5,-826 461.5,-807 544.5,-807 544.5,-826"/>
<text text-anchor="middle" x="503" y="-814" font-family="Helvetica,sans-Serif" font-size="10.00">freecam_loop</text>
</a>
</g>
</g>
<!-- Node2&#45;&gt;Node3 -->
<g id="edge2_Node000002_Node000003" class="edge">
<title>Node2&#45;&gt;Node3</title>
<g id="a_edge2_Node000002_Node000003"><a xlink:title=" ">
<path fill="none" stroke="#63b8ff" d="M666.42,-711.28C623.71,-738.95 549.92,-786.75 518.67,-807"/>
<polygon fill="#63b8ff" stroke="#63b8ff" points="668.55,-714.07 675.04,-705.7 664.74,-708.2 668.55,-714.07"/>
</a>
</g>
</g>
<!-- Node4 -->
<g id="Node000004" class="node">
<title>Node4</title>
<g id="a_Node000004"><a xlink:href="freecam_8cpp.html#ac900b57837488f4606719d9b0a594621" target="_top" xlink:title=" ">
<polygon fill="white" stroke="#666666" points="327.5,-863 270.5,-863 270.5,-844 327.5,-844 327.5,-863"/>
<text text-anchor="middle" x="299" y="-851" font-family="Helvetica,sans-Serif" font-size="10.00">freecam</text>
</a>
</g>
</g>
<!-- Node3&#45;&gt;Node4 -->
<g id="edge3_Node000003_Node000004" class="edge">
<title>Node3&#45;&gt;Node4</title>
<g id="a_edge3_Node000003_Node000004"><a xlink:title=" ">
<path fill="none" stroke="#63b8ff" d="M451.21,-825.8C412.01,-832.98 359.26,-842.65 327.55,-848.45"/>
<polygon fill="#63b8ff" stroke="#63b8ff" points="451.92,-829.23 461.12,-823.99 450.66,-822.35 451.92,-829.23"/>
</a>
</g>
</g>
<!-- Node5 -->
<g id="Node000005" class="node">
<title>Node5</title>
<g id="a_Node000005"><a xlink:href="classFreeCamera.html#ae39719dc886452a2f1b735a6e8fa4bae" target="_top" xlink:title=" ">
<polygon fill="white" stroke="#666666" points="350,-826 248,-826 248,-807 350,-807 350,-826"/>
<text text-anchor="middle" x="299" y="-814" font-family="Helvetica,sans-Serif" font-size="10.00">FreeCamera::Tick</text>
</a>
</g>
</g>
<!-- Node3&#45;&gt;Node5 -->
<g id="edge4_Node000003_Node000005" class="edge">
<title>Node3&#45;&gt;Node5</title>
<g id="a_edge4_Node000003_Node000005"><a xlink:title=" ">
<path fill="none" stroke="#63b8ff" d="M450.99,-816.5C420.09,-816.5 380.85,-816.5 350.12,-816.5"/>
<polygon fill="#63b8ff" stroke="#63b8ff" points="451.12,-820 461.12,-816.5 451.12,-813 451.12,-820"/>
</a>
</g>
</g>
<!-- Node7 -->
<g id="Node000007" class="node">
<title>Node7</title>
<g id="a_Node000007"><a xlink:href="skybox__and__splitscreen_8c.html#a6135e98ec3076399696ca04f441529f4" target="_top" xlink:title=" ">
<polygon fill="white" stroke="#666666" points="549.5,-622 456.5,-622 456.5,-603 549.5,-603 549.5,-622"/>
<text text-anchor="middle" x="503" y="-610" font-family="Helvetica,sans-Serif" font-size="10.00">func_802A4A0C</text>
</a>
</g>
</g>
<!-- Node6&#45;&gt;Node7 -->
<g id="edge6_Node000006_Node000007" class="edge">
<title>Node6&#45;&gt;Node7</title>
<g id="a_edge6_Node000006_Node000007"><a xlink:title=" ">
<path fill="none" stroke="#63b8ff" d="M669.18,-533.52C629.14,-552.66 558.42,-586.48 523.97,-602.95"/>
<polygon fill="#63b8ff" stroke="#63b8ff" points="670.91,-536.57 678.42,-529.1 667.89,-530.26 670.91,-536.57"/>
</a>
</g>
</g>
<!-- Node8 -->
<g id="Node000008" class="node">
<title>Node8</title>
<g id="a_Node000008"><a xlink:href="skybox__and__splitscreen_8c.html#a106a6c5b25b49dea0722c25630e2bdb9" target="_top" xlink:title=" ">
<polygon fill="#fff0f0" stroke="red" points="345,-530 253,-530 253,-511 345,-511 345,-530"/>
<text text-anchor="middle" x="299" y="-518" font-family="Helvetica,sans-Serif" font-size="10.00">func_802A5004</text>
</a>
</g>
</g>
<!-- Node7&#45;&gt;Node8 -->
<g id="edge7_Node000007_Node000008" class="edge">
<title>Node7&#45;&gt;Node8</title>
<g id="a_edge7_Node000007_Node000008"><a xlink:title=" ">
<path fill="none" stroke="#63b8ff" d="M481.28,-596.88C458.38,-580.32 419.85,-554.54 383,-539.5 371.09,-534.64 357.69,-530.89 345.19,-528.05"/>
<polygon fill="#63b8ff" stroke="#63b8ff" points="479.4,-599.84 489.54,-602.93 483.54,-594.19 479.4,-599.84"/>
</a>
</g>
</g>
<!-- Node49 -->
<g id="Node000049" class="node">
<title>Node49</title>
<g id="a_Node000049"><a xlink:href="skybox__and__splitscreen_8c.html#ab0061fbdffa3d6f0a7a58b866cfd2336" target="_top" xlink:title=" ">
<polygon fill="#fff0f0" stroke="red" points="345,-493 253,-493 253,-474 345,-474 345,-493"/>
<text text-anchor="middle" x="299" y="-481" font-family="Helvetica,sans-Serif" font-size="10.00">func_802A50EC</text>
</a>
</g>
</g>
<!-- Node7&#45;&gt;Node49 -->
<g id="edge8_Node000007_Node000049" class="edge">
<title>Node7&#45;&gt;Node49</title>
<g id="a_edge8_Node000007_Node000049"><a xlink:title=" ">
<path fill="none" stroke="#63b8ff" d="M488.24,-594.97C467.93,-570.37 427.52,-525.99 383,-502.5 371.36,-496.36 357.79,-492.19 345.03,-489.37"/>
<polygon fill="#63b8ff" stroke="#63b8ff" points="485.54,-597.21 494.55,-602.78 490.98,-592.81 485.54,-597.21"/>
</a>
</g>
</g>
<!-- Node50 -->
<g id="Node000050" class="node">
<title>Node50</title>
<g id="a_Node000050"><a xlink:href="skybox__and__splitscreen_8c.html#a499e9f29e241ca3ab115fda541a146ac" target="_top" xlink:title=" ">
<polygon fill="#fff0f0" stroke="red" points="345.5,-789 252.5,-789 252.5,-770 345.5,-770 345.5,-789"/>
<text text-anchor="middle" x="299" y="-777" font-family="Helvetica,sans-Serif" font-size="10.00">func_802A51D4</text>
</a>
</g>
</g>
<!-- Node7&#45;&gt;Node50 -->
<g id="edge9_Node000007_Node000050" class="edge">
<title>Node7&#45;&gt;Node50</title>
<g id="a_edge9_Node000007_Node000050"><a xlink:title=" ">
<path fill="none" stroke="#63b8ff" d="M492.63,-631.21C475.52,-663.31 436.06,-728.59 383,-761.5 371.85,-768.42 358.42,-772.7 345.64,-775.35"/>
<polygon fill="#63b8ff" stroke="#63b8ff" points="495.89,-632.52 497.39,-622.03 489.67,-629.3 495.89,-632.52"/>
</a>
</g>
</g>
<!-- Node51 -->
<g id="Node000051" class="node">
<title>Node51</title>
<g id="a_Node000051"><a xlink:href="skybox__and__splitscreen_8c.html#aa58c449ec64b285fd3b4def5e261ff97" target="_top" xlink:title=" ">
<polygon fill="#fff0f0" stroke="red" points="345.5,-752 252.5,-752 252.5,-733 345.5,-733 345.5,-752"/>
<text text-anchor="middle" x="299" y="-740" font-family="Helvetica,sans-Serif" font-size="10.00">func_802A52BC</text>
</a>
</g>
</g>
<!-- Node7&#45;&gt;Node51 -->
<g id="edge10_Node000007_Node000051" class="edge">
<title>Node7&#45;&gt;Node51</title>
<g id="a_edge10_Node000007_Node000051"><a xlink:title=" ">
<path fill="none" stroke="#63b8ff" d="M488.65,-630.05C468.58,-655.11 428.14,-700.75 383,-724.5 371.65,-730.47 358.43,-734.46 345.92,-737.13"/>
<polygon fill="#63b8ff" stroke="#63b8ff" points="491.45,-632.14 494.87,-622.11 485.95,-627.82 491.45,-632.14"/>
</a>
</g>
</g>
<!-- Node52 -->
<g id="Node000052" class="node">
<title>Node52</title>
<g id="a_Node000052"><a xlink:href="skybox__and__splitscreen_8c.html#a0ead9b2e7f52608fae3579b63f3453e5" target="_top" xlink:title=" ">
<polygon fill="#fff0f0" stroke="red" points="345,-715 253,-715 253,-696 345,-696 345,-715"/>
<text text-anchor="middle" x="299" y="-703" font-family="Helvetica,sans-Serif" font-size="10.00">func_802A53A4</text>
</a>
</g>
</g>
<!-- Node7&#45;&gt;Node52 -->
<g id="edge11_Node000007_Node000052" class="edge">
<title>Node7&#45;&gt;Node52</title>
<g id="a_edge11_Node000007_Node000052"><a xlink:title=" ">
<path fill="none" stroke="#63b8ff" d="M481.76,-628.39C458.99,-645.48 420.32,-672.25 383,-687.5 371.13,-692.35 357.74,-695.99 345.23,-698.67"/>
<polygon fill="#63b8ff" stroke="#63b8ff" points="484.11,-630.99 489.94,-622.14 479.87,-625.43 484.11,-630.99"/>
</a>
</g>
</g>
<!-- Node53 -->
<g id="Node000053" class="node">
<title>Node53</title>
<g id="a_Node000053"><a xlink:href="skybox__and__splitscreen_8c.html#a530f75435172f605331e514c70b3a1bd" target="_top" xlink:title=" ">
<polygon fill="#fff0f0" stroke="red" points="345,-678 253,-678 253,-659 345,-659 345,-678"/>
<text text-anchor="middle" x="299" y="-666" font-family="Helvetica,sans-Serif" font-size="10.00">func_802A54A8</text>
</a>
</g>
</g>
<!-- Node7&#45;&gt;Node53 -->
<g id="edge14_Node000007_Node000053" class="edge">
<title>Node7&#45;&gt;Node53</title>
<g id="a_edge14_Node000007_Node000053"><a xlink:title=" ">
<path fill="none" stroke="#63b8ff" d="M465.28,-625.23C441.9,-633.08 410.87,-643.05 383,-650.5 370.89,-653.74 357.67,-656.81 345.42,-659.47"/>
<polygon fill="#63b8ff" stroke="#63b8ff" points="466.46,-628.52 474.81,-622 464.21,-621.89 466.46,-628.52"/>
</a>
</g>
</g>
<!-- Node54 -->
<g id="Node000054" class="node">
<title>Node54</title>
<g id="a_Node000054"><a xlink:href="skybox__and__splitscreen_8c.html#ae2f505de9b25f530a00ecf1e4f146700" target="_top" xlink:title=" ">
<polygon fill="#fff0f0" stroke="red" points="345,-641 253,-641 253,-622 345,-622 345,-641"/>
<text text-anchor="middle" x="299" y="-629" font-family="Helvetica,sans-Serif" font-size="10.00">func_802A5590</text>
</a>
</g>
</g>
<!-- Node7&#45;&gt;Node54 -->
<g id="edge15_Node000007_Node000054" class="edge">
<title>Node7&#45;&gt;Node54</title>
<g id="a_edge15_Node000007_Node000054"><a xlink:title=" ">
<path fill="none" stroke="#63b8ff" d="M446.35,-617.73C414.48,-620.73 374.99,-624.45 345.07,-627.26"/>
<polygon fill="#63b8ff" stroke="#63b8ff" points="446.79,-621.21 456.42,-616.79 446.13,-614.24 446.79,-621.21"/>
</a>
</g>
</g>
<!-- Node55 -->
<g id="Node000055" class="node">
<title>Node55</title>
<g id="a_Node000055"><a xlink:href="skybox__and__splitscreen_8c.html#a248dc83fd4a3f414744f72faf84b1904" target="_top" xlink:title=" ">
<polygon fill="#fff0f0" stroke="red" points="345,-604 253,-604 253,-585 345,-585 345,-604"/>
<text text-anchor="middle" x="299" y="-592" font-family="Helvetica,sans-Serif" font-size="10.00">func_802A5678</text>
</a>
</g>
</g>
<!-- Node7&#45;&gt;Node55 -->
<g id="edge16_Node000007_Node000055" class="edge">
<title>Node7&#45;&gt;Node55</title>
<g id="a_edge16_Node000007_Node000055"><a xlink:title=" ">
<path fill="none" stroke="#63b8ff" d="M446.35,-607.54C414.48,-604.7 374.99,-601.18 345.07,-598.52"/>
<polygon fill="#63b8ff" stroke="#63b8ff" points="446.14,-611.04 456.42,-608.44 446.77,-604.06 446.14,-611.04"/>
</a>
</g>
</g>
<!-- Node56 -->
<g id="Node000056" class="node">
<title>Node56</title>
<g id="a_Node000056"><a xlink:href="skybox__and__splitscreen_8c.html#adbeb0599946e6477e4aa0c65e9fea6a8" target="_top" xlink:title=" ">
<polygon fill="#fff0f0" stroke="red" points="345,-567 253,-567 253,-548 345,-548 345,-567"/>
<text text-anchor="middle" x="299" y="-555" font-family="Helvetica,sans-Serif" font-size="10.00">func_802A5760</text>
</a>
</g>
</g>
<!-- Node7&#45;&gt;Node56 -->
<g id="edge17_Node000007_Node000056" class="edge">
<title>Node7&#45;&gt;Node56</title>
<g id="a_edge17_Node000007_Node000056"><a xlink:title=" ">
<path fill="none" stroke="#63b8ff" d="M462.56,-599.82C439.48,-592.59 409.71,-583.59 383,-576.5 370.57,-573.2 357,-569.95 344.51,-567.1"/>
<polygon fill="#63b8ff" stroke="#63b8ff" points="461.74,-603.24 472.33,-602.9 463.84,-596.56 461.74,-603.24"/>
</a>
</g>
</g>
<!-- Node34 -->
<g id="Node000034" class="node">
<title>Node34</title>
<g id="a_Node000034"><a xlink:href="code__80280000_8c.html#ae610920735bc9dad9f2dce878c5a6b32" target="_top" xlink:title=" ">
<polygon fill="#fff0f0" stroke="red" points="135,-696 44,-696 44,-677 135,-677 135,-696"/>
<text text-anchor="middle" x="89.5" y="-684" font-family="Helvetica,sans-Serif" font-size="10.00">func_80280038</text>
</a>
</g>
</g>
<!-- Node52&#45;&gt;Node34 -->
<g id="edge12_Node000052_Node000034" class="edge">
<title>Node52&#45;&gt;Node34</title>
<g id="a_edge12_Node000052_Node000034"><a xlink:title=" ">
<path fill="none" stroke="#63b8ff" d="M242.83,-700.45C209.14,-697.36 166.63,-693.47 135.08,-690.58"/>
<polygon fill="#63b8ff" stroke="#63b8ff" points="242.7,-703.95 252.98,-701.38 243.34,-696.98 242.7,-703.95"/>
</a>
</g>
</g>
<!-- Node36 -->
<g id="Node000036" class="node">
<title>Node36</title>
<g id="a_Node000036"><a xlink:href="code__80281C40_8c.html#af6f6a1f0caec6d086a4ab98602a6670e" target="_top" xlink:title=" ">
<polygon fill="#fff0f0" stroke="red" points="135.5,-641 43.5,-641 43.5,-622 135.5,-622 135.5,-641"/>
<text text-anchor="middle" x="89.5" y="-629" font-family="Helvetica,sans-Serif" font-size="10.00">func_80281D00</text>
</a>
</g>
</g>
<!-- Node52&#45;&gt;Node36 -->
<g id="edge13_Node000052_Node000036" class="edge">
<title>Node52&#45;&gt;Node36</title>
<g id="a_edge13_Node000052_Node000036"><a xlink:title=" ">
<path fill="none" stroke="#63b8ff" d="M243.18,-695.83C233.66,-693.52 223.94,-690.76 215,-687.5 198,-681.3 195.36,-676.22 179,-668.5 157.76,-658.48 133.07,-648.27 115.18,-641.13"/>
<polygon fill="#63b8ff" stroke="#63b8ff" points="242.47,-699.26 253,-698.07 244.03,-692.43 242.47,-699.26"/>
</a>
</g>
</g>
<!-- Node58 -->
<g id="Node000058" class="node">
<title>Node58</title>
<g id="a_Node000058"><a xlink:href="classEditor_1_1ContentBrowserWindow.html#a4c6f618d8a04fc19805b4642b40c57ce" target="_top" xlink:title=" ">
<polygon fill="white" stroke="#666666" points="587,-300.5 419,-300.5 419,-270.5 587,-270.5 587,-300.5"/>
<text text-anchor="start" x="427" y="-288.5" font-family="Helvetica,sans-Serif" font-size="10.00">Editor::ContentBrowserWindow</text>
<text text-anchor="middle" x="503" y="-277.5" font-family="Helvetica,sans-Serif" font-size="10.00">::AddActorContent</text>
</a>
</g>
</g>
<!-- Node57&#45;&gt;Node58 -->
<g id="edge19_Node000057_Node000058" class="edge">
<title>Node57&#45;&gt;Node58</title>
<g id="a_edge19_Node000057_Node000058"><a xlink:title=" ">
<path fill="none" stroke="#63b8ff" d="M612.57,-296.66C604.17,-295.8 595.66,-294.92 587.28,-294.06"/>
<polygon fill="#63b8ff" stroke="#63b8ff" points="612.44,-300.17 622.74,-297.71 613.15,-293.21 612.44,-300.17"/>
</a>
</g>
</g>
<!-- Node60 -->
<g id="Node000060" class="node">
<title>Node60</title>
<g id="a_Node000060"><a xlink:href="classEditor_1_1ContentBrowserWindow.html#aa9de84896693a0e072c6a01b520bd654" target="_top" xlink:title=" ">
<polygon fill="white" stroke="#666666" points="587,-252.5 419,-252.5 419,-222.5 587,-222.5 587,-252.5"/>
<text text-anchor="start" x="427" y="-240.5" font-family="Helvetica,sans-Serif" font-size="10.00">Editor::ContentBrowserWindow</text>
<text text-anchor="middle" x="503" y="-229.5" font-family="Helvetica,sans-Serif" font-size="10.00">::AddCustomContent</text>
</a>
</g>
</g>
<!-- Node57&#45;&gt;Node60 -->
<g id="edge21_Node000057_Node000060" class="edge">
<title>Node57&#45;&gt;Node60</title>
<g id="a_edge21_Node000057_Node000060"><a xlink:title=" ">
<path fill="none" stroke="#63b8ff" d="M636.68,-292.9C631.98,-291.29 627.36,-289.5 623,-287.5 605.06,-279.28 604.74,-270.15 587,-261.5 580.12,-258.15 572.69,-255.18 565.2,-252.57"/>
<polygon fill="#63b8ff" stroke="#63b8ff" points="635.83,-296.3 646.42,-295.93 637.91,-289.61 635.83,-296.3"/>
</a>
</g>
</g>
<!-- Node61 -->
<g id="Node000061" class="node">
<title>Node61</title>
<g id="a_Node000061"><a xlink:href="classEditor_1_1ContentBrowserWindow.html#a54990fe37fd6a6cc176f7bc29aaae3ff" target="_top" xlink:title=" ">
<polygon fill="white" stroke="#666666" points="587,-348.5 419,-348.5 419,-318.5 587,-318.5 587,-348.5"/>
<text text-anchor="start" x="427" y="-336.5" font-family="Helvetica,sans-Serif" font-size="10.00">Editor::ContentBrowserWindow</text>
<text text-anchor="middle" x="503" y="-325.5" font-family="Helvetica,sans-Serif" font-size="10.00">::AddObjectContent</text>
</a>
</g>
</g>
<!-- Node57&#45;&gt;Node61 -->
<g id="edge23_Node000057_Node000061" class="edge">
<title>Node57&#45;&gt;Node61</title>
<g id="a_edge23_Node000057_Node000061"><a xlink:title=" ">
<path fill="none" stroke="#63b8ff" d="M622.36,-316.46C610.81,-318.12 598.84,-319.85 587.16,-321.53"/>
<polygon fill="#63b8ff" stroke="#63b8ff" points="622.98,-319.91 632.38,-315.02 621.98,-312.98 622.98,-319.91"/>
</a>
</g>
</g>
<!-- Node59 -->
<g id="Node000059" class="node">
<title>Node59</title>
<g id="a_Node000059"><a xlink:href="classEditor_1_1ContentBrowserWindow.html#aba36715d806ae75b046302e476726b44" target="_top" xlink:title=" ">
<polygon fill="white" stroke="#666666" points="383,-255.5 215,-255.5 215,-225.5 383,-225.5 383,-255.5"/>
<text text-anchor="start" x="223" y="-243.5" font-family="Helvetica,sans-Serif" font-size="10.00">Editor::ContentBrowserWindow</text>
<text text-anchor="middle" x="299" y="-232.5" font-family="Helvetica,sans-Serif" font-size="10.00">::DrawElement</text>
</a>
</g>
</g>
<!-- Node58&#45;&gt;Node59 -->
<g id="edge20_Node000058_Node000059" class="edge">
<title>Node58&#45;&gt;Node59</title>
<g id="a_edge20_Node000058_Node000059"><a xlink:title=" ">
<path fill="none" stroke="#63b8ff" d="M424.46,-268.23C405.68,-264.04 385.75,-259.6 367.48,-255.53"/>
<polygon fill="#63b8ff" stroke="#63b8ff" points="423.93,-271.69 434.46,-270.45 425.46,-264.86 423.93,-271.69"/>
</a>
</g>
</g>
<!-- Node60&#45;&gt;Node59 -->
<g id="edge22_Node000060_Node000059" class="edge">
<title>Node60&#45;&gt;Node59</title>
<g id="a_edge22_Node000060_Node000059"><a xlink:title=" ">
<path fill="none" stroke="#63b8ff" d="M408.89,-238.88C400.27,-239.01 391.56,-239.14 383.04,-239.27"/>
<polygon fill="#63b8ff" stroke="#63b8ff" points="409.02,-242.38 418.96,-238.73 408.91,-235.38 409.02,-242.38"/>
</a>
</g>
</g>
<!-- Node61&#45;&gt;Node59 -->
<g id="edge24_Node000061_Node000059" class="edge">
<title>Node61&#45;&gt;Node59</title>
<g id="a_edge24_Node000061_Node000059"><a xlink:title=" ">
<path fill="none" stroke="#63b8ff" d="M426.49,-313.99C423.9,-312.6 421.4,-311.1 419,-309.5 397.7,-295.28 404.3,-278.72 383,-264.5 377.89,-261.08 372.28,-258.15 366.47,-255.62"/>
<polygon fill="#63b8ff" stroke="#63b8ff" points="425,-317.16 435.53,-318.38 428.06,-310.87 425,-317.16"/>
</a>
</g>
</g>
<!-- Node63 -->
<g id="Node000063" class="node">
<title>Node63</title>
<g id="a_Node000063"><a xlink:href="guPerspectiveF_8c.html#ac2050885d6967becf0e5e3bb3e54bd08" target="_top" xlink:title=" ">
<polygon fill="white" stroke="#666666" points="342,-456 256,-456 256,-437 342,-437 342,-456"/>
<text text-anchor="middle" x="299" y="-444" font-family="Helvetica,sans-Serif" font-size="10.00">guPerspective</text>
</a>
</g>
</g>
<!-- Node62&#45;&gt;Node63 -->
<g id="edge26_Node000062_Node000063" class="edge">
<title>Node62&#45;&gt;Node63</title>
<g id="a_edge26_Node000062_Node000063"><a xlink:title=" ">
<path fill="none" stroke="#63b8ff" d="M446.96,-422.49C413.95,-427.89 372.6,-434.64 342.18,-439.61"/>
<polygon fill="#63b8ff" stroke="#63b8ff" points="447.61,-425.93 456.92,-420.86 446.49,-419.02 447.61,-425.93"/>
</a>
</g>
</g>
<!-- Node71 -->
<g id="Node000071" class="node">
<title>Node71</title>
<g id="a_Node000071"><a xlink:href="EditorMath_8cpp.html#a2c886dcf27cddd6d4ccb5803eb9cc1df" target="_top" xlink:title=" ">
<polygon fill="white" stroke="#666666" points="346,-341 252,-341 252,-322 346,-322 346,-341"/>
<text text-anchor="middle" x="299" y="-329" font-family="Helvetica,sans-Serif" font-size="10.00">ScreenRayTrace</text>
</a>
</g>
</g>
<!-- Node62&#45;&gt;Node71 -->
<g id="edge35_Node000062_Node000071" class="edge">
<title>Node62&#45;&gt;Node71</title>
<g id="a_edge35_Node000062_Node000071"><a xlink:title=" ">
<path fill="none" stroke="#63b8ff" d="M447.16,-403.89C437.64,-401.57 427.93,-398.8 419,-395.5 379.39,-380.88 336.65,-355.18 314.76,-341.21"/>
<polygon fill="#63b8ff" stroke="#63b8ff" points="446.45,-407.31 456.98,-406.13 448.01,-400.49 446.45,-407.31"/>
</a>
</g>
</g>
<!-- Node63&#45;&gt;Node34 -->
<g id="edge28_Node000063_Node000034" class="edge">
<title>Node63&#45;&gt;Node34</title>
<g id="a_edge28_Node000063_Node000034"><a xlink:title=" ">
<path fill="none" stroke="#63b8ff" d="M245.77,-449.08C234.32,-452 223.19,-457.04 215,-465.5 156.75,-525.7 232.21,-585.81 179,-650.5 167.94,-663.95 151.06,-672.42 135,-677.74"/>
<polygon fill="#63b8ff" stroke="#63b8ff" points="246.74,-452.45 255.84,-447.02 245.34,-445.59 246.74,-452.45"/>
</a>
</g>
</g>
<!-- Node63&#45;&gt;Node36 -->
<g id="edge29_Node000063_Node000036" class="edge">
<title>Node63&#45;&gt;Node36</title>
<g id="a_edge29_Node000063_Node000036"><a xlink:title=" ">
<path fill="none" stroke="#63b8ff" d="M245.81,-449.98C234.57,-452.9 223.52,-457.7 215,-465.5 176.74,-500.51 210.97,-535.66 179,-576.5 162.39,-597.72 135.13,-612.87 115.25,-621.83"/>
<polygon fill="#63b8ff" stroke="#63b8ff" points="246.63,-453.38 255.68,-447.88 245.17,-446.54 246.63,-453.38"/>
</a>
</g>
</g>
<!-- Node64 -->
<g id="Node000064" class="node">
<title>Node64</title>
<g id="a_Node000064"><a xlink:href="menu__items_8c.html#ae0c2344ba6cdd815eec1916e693e5577" target="_top" xlink:title=" ">
<polygon fill="white" stroke="#666666" points="135,-419 44,-419 44,-400 135,-400 135,-419"/>
<text text-anchor="middle" x="89.5" y="-407" font-family="Helvetica,sans-Serif" font-size="10.00">func_80094660</text>
</a>
</g>
</g>
<!-- Node63&#45;&gt;Node64 -->
<g id="edge27_Node000063_Node000064" class="edge">
<title>Node63&#45;&gt;Node64</title>
<g id="a_edge27_Node000063_Node000064"><a xlink:title=" ">
<path fill="none" stroke="#63b8ff" d="M245.53,-437.14C211.48,-431.07 167.58,-423.24 135.19,-417.47"/>
<polygon fill="#63b8ff" stroke="#63b8ff" points="245.3,-440.66 255.76,-438.97 246.53,-433.77 245.3,-440.66"/>
</a>
</g>
</g>
<!-- Node65 -->
<g id="Node000065" class="node">
<title>Node65</title>
<g id="a_Node000065"><a xlink:href="matrix_8c.html#a1d7c23456db266819ec9f0e6e877bfd6" target="_top" xlink:title=" ">
<polygon fill="white" stroke="#666666" points="152.5,-456 26.5,-456 26.5,-437 152.5,-437 152.5,-456"/>
<text text-anchor="middle" x="89.5" y="-444" font-family="Helvetica,sans-Serif" font-size="10.00">Matrix_InitPerspective</text>
</a>
</g>
</g>
<!-- Node63&#45;&gt;Node65 -->
<g id="edge30_Node000063_Node000065" class="edge">
<title>Node63&#45;&gt;Node65</title>
<g id="a_edge30_Node000063_Node000065"><a xlink:title=" ">
<path fill="none" stroke="#63b8ff" d="M245.69,-446.5C217.45,-446.5 182.4,-446.5 152.76,-446.5"/>
<polygon fill="#63b8ff" stroke="#63b8ff" points="245.76,-450 255.76,-446.5 245.76,-443 245.76,-450"/>
</a>
</g>
</g>
<!-- Node66 -->
<g id="Node000066" class="node">
<title>Node66</title>
<g id="a_Node000066"><a xlink:href="menu__items_8c.html#a36b50985f08aa8d4b566a89074c4e880" target="_top" xlink:title=" ">
<polygon fill="white" stroke="#666666" points="152.5,-382 26.5,-382 26.5,-363 152.5,-363 152.5,-382"/>
<text text-anchor="middle" x="89.5" y="-370" font-family="Helvetica,sans-Serif" font-size="10.00">render_checkered_flag</text>
</a>
</g>
</g>
<!-- Node63&#45;&gt;Node66 -->
<g id="edge31_Node000063_Node000066" class="edge">
<title>Node63&#45;&gt;Node66</title>
<g id="a_edge31_Node000063_Node000066"><a xlink:title=" ">
<path fill="none" stroke="#63b8ff" d="M245.72,-440.03C235.13,-437.4 224.38,-433.7 215,-428.5 194.93,-417.37 199.08,-402.61 179,-391.5 170.89,-387.01 161.81,-383.58 152.65,-380.96"/>
<polygon fill="#63b8ff" stroke="#63b8ff" points="245.25,-443.51 255.77,-442.24 246.75,-436.67 245.25,-443.51"/>
</a>
</g>
</g>
<!-- Node67 -->
<g id="Node000067" class="node">
<title>Node67</title>
<g id="a_Node000067"><a xlink:href="classFreeCamera.html#a8cc5e7a4d41e540e96d0008b12a4c057" target="_top" xlink:title=" ">
<polygon fill="white" stroke="#666666" points="174.5,-567 4.5,-567 4.5,-548 174.5,-548 174.5,-567"/>
<text text-anchor="middle" x="89.5" y="-555" font-family="Helvetica,sans-Serif" font-size="10.00">FreeCamera::SetViewProjection</text>
</a>
</g>
</g>
<!-- Node63&#45;&gt;Node67 -->
<g id="edge32_Node000063_Node000067" class="edge">
<title>Node63&#45;&gt;Node67</title>
<g id="a_edge32_Node000063_Node000067"><a xlink:title=" ">
<path fill="none" stroke="#63b8ff" d="M245.89,-451.04C234.84,-453.93 223.86,-458.46 215,-465.5 186.37,-488.26 207.91,-517.09 179,-539.5 174.66,-542.86 169.86,-545.64 164.79,-547.93"/>
<polygon fill="#63b8ff" stroke="#63b8ff" points="246.98,-454.38 255.99,-448.82 245.47,-447.55 246.98,-454.38"/>
</a>
</g>
</g>
<!-- Node68 -->
<g id="Node000068" class="node">
<title>Node68</title>
<g id="a_Node000068"><a xlink:href="classGameCamera.html#a96870ea78675e370cdfd9f65ae134beb" target="_top" xlink:title=" ">
<polygon fill="#fff0f0" stroke="red" points="179,-530 0,-530 0,-511 179,-511 179,-530"/>
<text text-anchor="middle" x="89.5" y="-518" font-family="Helvetica,sans-Serif" font-size="10.00">GameCamera::SetViewProjection</text>
</a>
</g>
</g>
<!-- Node63&#45;&gt;Node68 -->
<g id="edge33_Node000063_Node000068" class="edge">
<title>Node63&#45;&gt;Node68</title>
<g id="a_edge33_Node000063_Node000068"><a xlink:title=" ">
<path fill="none" stroke="#63b8ff" d="M245.71,-453.67C235.12,-456.42 224.37,-460.23 215,-465.5 195,-476.74 199.14,-491.5 179,-502.5 172.81,-505.88 166.06,-508.63 159.14,-510.87"/>
<polygon fill="#63b8ff" stroke="#63b8ff" points="246.81,-457.01 255.76,-451.34 245.23,-450.19 246.81,-457.01"/>
</a>
</g>
</g>
<!-- Node70 -->
<g id="Node000070" class="node">
<title>Node70</title>
<g id="a_Node000070"><a xlink:href="classTourCamera.html#adfb50a603c5e2b03d9c6dff377976700" target="_top" xlink:title=" ">
<polygon fill="white" stroke="#666666" points="174.5,-493 4.5,-493 4.5,-474 174.5,-474 174.5,-493"/>
<text text-anchor="middle" x="89.5" y="-481" font-family="Helvetica,sans-Serif" font-size="10.00">TourCamera::SetViewProjection</text>
</a>
</g>
</g>
<!-- Node63&#45;&gt;Node70 -->
<g id="edge34_Node000063_Node000070" class="edge">
<title>Node63&#45;&gt;Node70</title>
<g id="a_edge34_Node000063_Node000070"><a xlink:title=" ">
<path fill="none" stroke="#63b8ff" d="M245.58,-455.85C214.57,-461.38 175.37,-468.37 144.15,-473.93"/>
<polygon fill="#63b8ff" stroke="#63b8ff" points="246.53,-459.23 255.76,-454.03 245.3,-452.34 246.53,-459.23"/>
</a>
</g>
</g>
<!-- Node72 -->
<g id="Node000072" class="node">
<title>Node72</title>
<g id="a_Node000072"><a xlink:href="classEditor_1_1ObjectPicker.html#ae8f9eba788757b67dae37cf8bd0e0eb4" target="_top" xlink:title=" ">
<polygon fill="white" stroke="#666666" points="145.5,-248.5 33.5,-248.5 33.5,-218.5 145.5,-218.5 145.5,-248.5"/>
<text text-anchor="start" x="41.5" y="-236.5" font-family="Helvetica,sans-Serif" font-size="10.00">Editor::ObjectPicker</text>
<text text-anchor="middle" x="89.5" y="-225.5" font-family="Helvetica,sans-Serif" font-size="10.00">::DragHandle</text>
</a>
</g>
</g>
<!-- Node71&#45;&gt;Node72 -->
<g id="edge36_Node000071_Node000072" class="edge">
<title>Node71&#45;&gt;Node72</title>
<g id="a_edge36_Node000071_Node000072"><a xlink:title=" ">
<path fill="none" stroke="#63b8ff" d="M241.96,-324.86C232.42,-322.04 223.01,-318.08 215,-312.5 191.02,-295.81 202.64,-274.67 179,-257.5 169.21,-250.39 157.43,-245.39 145.71,-241.87"/>
<polygon fill="#63b8ff" stroke="#63b8ff" points="241.35,-328.31 251.91,-327.39 243.08,-321.53 241.35,-328.31"/>
</a>
</g>
</g>
<!-- Node73 -->
<g id="Node000073" class="node">
<title>Node73</title>
<g id="a_Node000073"><a xlink:href="classEditor_1_1ObjectPicker.html#abc67db1df15bbf4451cb3584e708600b" target="_top" xlink:title=" ">
<polygon fill="white" stroke="#666666" points="145.5,-344.5 33.5,-344.5 33.5,-314.5 145.5,-314.5 145.5,-344.5"/>
<text text-anchor="start" x="41.5" y="-332.5" font-family="Helvetica,sans-Serif" font-size="10.00">Editor::ObjectPicker</text>
<text text-anchor="middle" x="89.5" y="-321.5" font-family="Helvetica,sans-Serif" font-size="10.00">::Draw</text>
</a>
</g>
</g>
<!-- Node71&#45;&gt;Node73 -->
<g id="edge37_Node000071_Node000073" class="edge">
<title>Node71&#45;&gt;Node73</title>
<g id="a_edge37_Node000071_Node000073"><a xlink:title=" ">
<path fill="none" stroke="#63b8ff" d="M241.69,-330.96C211.84,-330.67 175.31,-330.32 145.63,-330.03"/>
<polygon fill="#63b8ff" stroke="#63b8ff" points="241.92,-334.46 251.95,-331.06 241.98,-327.46 241.92,-334.46"/>
</a>
</g>
</g>
<!-- Node74 -->
<g id="Node000074" class="node">
<title>Node74</title>
<g id="a_Node000074"><a xlink:href="classEditor_1_1ObjectPicker.html#ac8bcc9acb930259101f244832a14506d" target="_top" xlink:title=" ">
<polygon fill="white" stroke="#666666" points="145.5,-296.5 33.5,-296.5 33.5,-266.5 145.5,-266.5 145.5,-296.5"/>
<text text-anchor="start" x="41.5" y="-284.5" font-family="Helvetica,sans-Serif" font-size="10.00">Editor::ObjectPicker</text>
<text text-anchor="middle" x="89.5" y="-273.5" font-family="Helvetica,sans-Serif" font-size="10.00">::SelectObject</text>
</a>
</g>
</g>
<!-- Node71&#45;&gt;Node74 -->
<g id="edge38_Node000071_Node000074" class="edge">
<title>Node71&#45;&gt;Node74</title>
<g id="a_edge38_Node000071_Node000074"><a xlink:title=" ">
<path fill="none" stroke="#63b8ff" d="M245.72,-319.69C235.52,-317.34 224.92,-314.87 215,-312.5 192.25,-307.06 167.22,-300.87 145.6,-295.46"/>
<polygon fill="#63b8ff" stroke="#63b8ff" points="245.21,-323.17 255.74,-321.99 246.77,-316.34 245.21,-323.17"/>
</a>
</g>
</g>
<!-- Node76 -->
<g id="Node000076" class="node">
<title>Node76</title>
<g id="a_Node000076"><a xlink:href="guRotateF_8c.html#a98ec2e0b2831b168feffd49493a08134" target="_top" xlink:title=" ">
<polygon fill="white" stroke="#666666" points="533.5,-386 472.5,-386 472.5,-367 533.5,-367 533.5,-386"/>
<text text-anchor="middle" x="503" y="-374" font-family="Helvetica,sans-Serif" font-size="10.00">guRotate</text>
</a>
</g>
</g>
<!-- Node75&#45;&gt;Node76 -->
<g id="edge40_Node000075_Node000076" class="edge">
<title>Node75&#45;&gt;Node76</title>
<g id="a_edge40_Node000075_Node000076"><a xlink:title=" ">
<path fill="none" stroke="#63b8ff" d="M655.96,-362.44C619,-365.86 566.41,-370.72 533.79,-373.74"/>
<polygon fill="#63b8ff" stroke="#63b8ff" points="656.31,-365.92 665.95,-361.51 655.67,-358.95 656.31,-365.92"/>
</a>
</g>
</g>
<!-- Node76&#45;&gt;Node66 -->
<g id="edge44_Node000076_Node000066" class="edge">
<title>Node76&#45;&gt;Node66</title>
<g id="a_edge44_Node000076_Node000066"><a xlink:title=" ">
<path fill="none" stroke="#63b8ff" d="M461.98,-376.11C390.05,-375.41 238.46,-373.94 152.83,-373.11"/>
<polygon fill="#63b8ff" stroke="#63b8ff" points="462.37,-379.61 472.41,-376.21 462.44,-372.62 462.37,-379.61"/>
</a>
</g>
</g>
<!-- Node77 -->
<g id="Node000077" class="node">
<title>Node77</title>
<g id="a_Node000077"><a xlink:href="menu__items_8c.html#adbd28a1b1d900463cb8b1fb645179c71" target="_top" xlink:title=" ">
<polygon fill="white" stroke="#666666" points="345,-419 253,-419 253,-400 345,-400 345,-419"/>
<text text-anchor="middle" x="299" y="-407" font-family="Helvetica,sans-Serif" font-size="10.00">func_800942D0</text>
</a>
</g>
</g>
<!-- Node76&#45;&gt;Node77 -->
<g id="edge41_Node000076_Node000077" class="edge">
<title>Node76&#45;&gt;Node77</title>
<g id="a_edge41_Node000076_Node000077"><a xlink:title=" ">
<path fill="none" stroke="#63b8ff" d="M462.25,-382.99C428.61,-388.49 380.39,-396.37 345.27,-402.11"/>
<polygon fill="#63b8ff" stroke="#63b8ff" points="462.89,-386.44 472.19,-381.37 461.76,-379.53 462.89,-386.44"/>
</a>
</g>
</g>
<!-- Node78 -->
<g id="Node000078" class="node">
<title>Node78</title>
<g id="a_Node000078"><a xlink:href="menu__items_8c.html#a42765eaa7fe2a286a830c4ccbac3a69f" target="_top" xlink:title=" ">
<polygon fill="#fff0f0" stroke="red" points="364,-303.5 234,-303.5 234,-273.5 364,-273.5 364,-303.5"/>
<text text-anchor="start" x="242" y="-291.5" font-family="Helvetica,sans-Serif" font-size="10.00">pause_menu_item_box</text>
<text text-anchor="middle" x="299" y="-280.5" font-family="Helvetica,sans-Serif" font-size="10.00">_cursor</text>
</a>
</g>
</g>
<!-- Node76&#45;&gt;Node78 -->
<g id="edge43_Node000076_Node000078" class="edge">
<title>Node76&#45;&gt;Node78</title>
<g id="a_edge43_Node000076_Node000078"><a xlink:title=" ">
<path fill="none" stroke="#63b8ff" d="M462.02,-372.79C447.65,-370.09 431.84,-365.46 419,-357.5 397.53,-344.18 404.01,-327.53 383,-313.5 377.24,-309.66 370.88,-306.39 364.3,-303.61"/>
<polygon fill="#63b8ff" stroke="#63b8ff" points="461.74,-376.29 472.17,-374.43 462.85,-369.38 461.74,-376.29"/>
</a>
</g>
</g>
<!-- Node77&#45;&gt;Node64 -->
<g id="edge42_Node000077_Node000064" class="edge">
<title>Node77&#45;&gt;Node64</title>
<g id="a_edge42_Node000077_Node000064"><a xlink:title=" ">
<path fill="none" stroke="#63b8ff" d="M242.83,-409.5C209.14,-409.5 166.63,-409.5 135.08,-409.5"/>
<polygon fill="#63b8ff" stroke="#63b8ff" points="242.98,-413 252.98,-409.5 242.98,-406 242.98,-413"/>
</a>
</g>
</g>
<!-- Node88 -->
<g id="Node000088" class="node">
<title>Node88</title>
<g id="a_Node000088"><a xlink:href="matrix_8c.html#a73bee04950f29c9d15d38a6c821c9b01" target="_top" xlink:title=" ">
<polygon fill="white" stroke="#666666" points="564,-204 442,-204 442,-185 564,-185 564,-204"/>
<text text-anchor="middle" x="503" y="-192" font-family="Helvetica,sans-Serif" font-size="10.00">Matrix_GetYRPAngles</text>
</a>
</g>
</g>
<!-- Node87&#45;&gt;Node88 -->
<g id="edge47_Node000087_Node000088" class="edge">
<title>Node87&#45;&gt;Node88</title>
<g id="a_edge47_Node000087_Node000088"><a xlink:title=" ">
<path fill="none" stroke="#63b8ff" d="M643.32,-221C615.22,-215.66 581.32,-209.21 553.99,-204.01"/>
<polygon fill="#63b8ff" stroke="#63b8ff" points="642.91,-224.49 653.39,-222.92 644.22,-217.61 642.91,-224.49"/>
</a>
</g>
</g>
<!-- Node89&#45;&gt;Node88 -->
<g id="edge50_Node000089_Node000088" class="edge">
<title>Node89&#45;&gt;Node88</title>
<g id="a_edge50_Node000089_Node000088"><a xlink:title=" ">
<path fill="none" stroke="#63b8ff" d="M643.14,-194.5C618.53,-194.5 589.5,-194.5 564.34,-194.5"/>
<polygon fill="#63b8ff" stroke="#63b8ff" points="643.39,-198 653.39,-194.5 643.39,-191 643.39,-198"/>
</a>
</g>
</g>
<!-- Node90 -->
<g id="Node000090" class="node">
<title>Node90</title>
<g id="a_Node000090"><a xlink:href="matrix_8c.html#a4fafa88c505aee9f2c70579c30b313ad" target="_top" xlink:title=" ">
<polygon fill="white" stroke="#666666" points="564.5,-167 441.5,-167 441.5,-148 564.5,-148 564.5,-167"/>
<text text-anchor="middle" x="503" y="-155" font-family="Helvetica,sans-Serif" font-size="10.00">Matrix_GetXYZAngles</text>
</a>
</g>
</g>
<!-- Node89&#45;&gt;Node90 -->
<g id="edge49_Node000089_Node000090" class="edge">
<title>Node89&#45;&gt;Node90</title>
<g id="a_edge49_Node000089_Node000090"><a xlink:title=" ">
<path fill="none" stroke="#63b8ff" d="M643.32,-184C615.22,-178.66 581.32,-172.21 553.99,-167.01"/>
<polygon fill="#63b8ff" stroke="#63b8ff" points="642.91,-187.49 653.39,-185.92 644.22,-180.61 642.91,-187.49"/>
</a>
</g>
</g>
<!-- Node91&#45;&gt;Node90 -->
<g id="edge52_Node000091_Node000090" class="edge">
<title>Node91&#45;&gt;Node90</title>
<g id="a_edge52_Node000091_Node000090"><a xlink:title=" ">
<path fill="none" stroke="#63b8ff" d="M643.18,-157.5C618.69,-157.5 589.8,-157.5 564.71,-157.5"/>
<polygon fill="#63b8ff" stroke="#63b8ff" points="643.39,-161 653.39,-157.5 643.39,-154 643.39,-161"/>
</a>
</g>
</g>
<!-- Node93 -->
<g id="Node000093" class="node">
<title>Node93</title>
<g id="a_Node000093"><a xlink:href="classEditor_1_1LightObject.html#a1be1c7f94b7022b86b89c1955fabe2eb" target="_top" xlink:title=" ">
<polygon fill="white" stroke="#666666" points="556.5,-129.5 449.5,-129.5 449.5,-99.5 556.5,-99.5 556.5,-129.5"/>
<text text-anchor="start" x="457.5" y="-117.5" font-family="Helvetica,sans-Serif" font-size="10.00">Editor::LightObject</text>
<text text-anchor="middle" x="503" y="-106.5" font-family="Helvetica,sans-Serif" font-size="10.00">::Tick</text>
</a>
</g>
</g>
<!-- Node92&#45;&gt;Node93 -->
<g id="edge54_Node000092_Node000093" class="edge">
<title>Node92&#45;&gt;Node93</title>
<g id="a_edge54_Node000092_Node000093"><a xlink:title=" ">
<path fill="none" stroke="#63b8ff" d="M620.67,-118.1C599.23,-117.44 576.48,-116.74 556.81,-116.13"/>
<polygon fill="#63b8ff" stroke="#63b8ff" points="620.64,-121.6 630.75,-118.41 620.86,-114.6 620.64,-121.6"/>
</a>
</g>
</g>
</g>
</svg>
