<?xml version="1.0" encoding="UTF-8" standalone="no"?>
<!DOCTYPE svg PUBLIC "-//W3C//DTD SVG 1.1//EN"
 "http://www.w3.org/Graphics/SVG/1.1/DTD/svg11.dtd">
<!-- Generated by graphviz version 2.43.0 (0)
 -->
<!-- Title: AddMatrix Pages: 1 -->
<!--zoomable 1252 -->

<svg id="main" version="1.1" xmlns="http://www.w3.org/2000/svg" xmlns:xlink="http://www.w3.org/1999/xlink" xml:space="preserve" onload="init(evt)">

<style type="text/css"><![CDATA[
.node, .edge {opacity: 0.7;}
.node.selected, .edge.selected {opacity: 1;}
.edge:hover path { stroke: red; }
.edge:hover polygon { stroke: red; fill: red; }
]]></style>

<defs>
  <circle id="rim" cx="0" cy="0" r="7"/>
  <circle id="rim2" cx="0" cy="0" r="3.5"/>
  <g id="zoomPlus">
    <use xlink:href="#rim" fill="#404040"><set attributeName="fill" to="#808080" begin="zoomplus.mouseover" end="zoomplus.mouseout"/></use>
    <path d="M-4,0h8M0,-4v8" fill="none" stroke="white" stroke-width="1.5" pointer-events="none"/>
  </g>
  <g id="zoomMin">
    <use xlink:href="#rim" fill="#404040"><set attributeName="fill" to="#808080" begin="zoomminus.mouseover" end="zoomminus.mouseout"/></use>
    <path d="M-4,0h8" fill="none" stroke="white" stroke-width="1.5" pointer-events="none"/>
  </g>
  <g id="arrowUp" transform="translate(30 24)">
    <use xlink:href="#rim"/>
    <path pointer-events="none" fill="none" stroke="white" stroke-width="1.5" d="M0,-3.0v7 M-2.5,-0.5L0,-3.0L2.5,-0.5"/>
  </g>
  <g id="arrowRight" transform="rotate(90) translate(36 -43)">
    <use xlink:href="#rim"/>
    <path pointer-events="none" fill="none" stroke="white" stroke-width="1.5" d="M0,-3.0v7 M-2.5,-0.5L0,-3.0L2.5,-0.5"/>
  </g>
  <g id="arrowDown" transform="rotate(180) translate(-30 -48)">
    <use xlink:href="#rim"/>
    <path pointer-events="none" fill="none" stroke="white" stroke-width="1.5" d="M0,-3.0v7 M-2.5,-0.5L0,-3.0L2.5,-0.5"/>
  </g>
  <g id="arrowLeft" transform="rotate(270) translate(-36 17)">
    <use xlink:href="#rim"/>
    <path pointer-events="none" fill="none" stroke="white" stroke-width="1.5" d="M0,-3.0v7 M-2.5,-0.5L0,-3.0L2.5,-0.5"/>
  </g>
  <g id="resetDef">
    <use xlink:href="#rim2" fill="#404040"><set attributeName="fill" to="#808080" begin="reset.mouseover" end="reset.mouseout"/></use>
  </g>
</defs>
<script type="application/ecmascript">
var viewWidth = 564;
var viewHeight = 1252;
var sectionId = 'dynsection-10';
</script>
<script type="application/ecmascript" xlink:href="svg.min.js"/>
<svg id="graph" class="graph">
<g id="viewport">
<title>AddMatrix</title>
<!-- Node1 -->
<g id="Node000001" class="node">
<title>Node1</title>
<g id="a_Node000001"><a xlink:title=" ">
<polygon fill="#999999" stroke="#666666" points="556,-420 489,-420 489,-401 556,-401 556,-420"/>
<text text-anchor="middle" x="522.5" y="-408" font-family="Helvetica,sans-Serif" font-size="10.00">AddMatrix</text>
</a>
</g>
</g>
<!-- Node2 -->
<g id="Node000002" class="node">
<title>Node2</title>
<g id="a_Node000002"><a xlink:href="Matrix_8cpp.html#abcc586bf25e812a2fcaea1cd869a626b" target="_top" xlink:title=" ">
<polygon fill="white" stroke="#666666" points="451.5,-844 356.5,-844 356.5,-825 451.5,-825 451.5,-844"/>
<text text-anchor="middle" x="404" y="-832" font-family="Helvetica,sans-Serif" font-size="10.00">AddEffectMatrix</text>
</a>
</g>
</g>
<!-- Node1&#45;&gt;Node2 -->
<g id="edge1_Node000001_Node000002" class="edge">
<title>Node1&#45;&gt;Node2</title>
<g id="a_edge1_Node000001_Node000002"><a xlink:title=" ">
<path fill="none" stroke="#63b8ff" d="M516.12,-430.09C495.59,-504.78 422.67,-770.18 407.7,-824.68"/>
<polygon fill="#63b8ff" stroke="#63b8ff" points="519.57,-430.72 518.85,-420.15 512.82,-428.87 519.57,-430.72"/>
</a>
</g>
</g>
<!-- Node99 -->
<g id="Node000099" class="node">
<title>Node99</title>
<g id="a_Node000099"><a xlink:href="Matrix_8cpp.html#a329d78c031733cf22ff7518f5d38fd74" target="_top" xlink:title=" ">
<polygon fill="white" stroke="#666666" points="447,-420 361,-420 361,-401 447,-401 447,-420"/>
<text text-anchor="middle" x="404" y="-408" font-family="Helvetica,sans-Serif" font-size="10.00">AddHudMatrix</text>
</a>
</g>
</g>
<!-- Node1&#45;&gt;Node99 -->
<g id="edge30_Node000001_Node000099" class="edge">
<title>Node1&#45;&gt;Node99</title>
<g id="a_edge30_Node000001_Node000099"><a xlink:title=" ">
<path fill="none" stroke="#63b8ff" d="M478.71,-410.5C468.39,-410.5 457.38,-410.5 447.1,-410.5"/>
<polygon fill="#63b8ff" stroke="#63b8ff" points="478.74,-414 488.74,-410.5 478.74,-407 478.74,-414"/>
</a>
</g>
</g>
<!-- Node364 -->
<g id="Node000364" class="node">
<title>Node364</title>
<g id="a_Node000364"><a xlink:href="Matrix_8cpp.html#a6416f9a60a7397e8b517b1483adb96e8" target="_top" xlink:title=" ">
<polygon fill="white" stroke="#666666" points="453,-75 355,-75 355,-56 453,-56 453,-75"/>
<text text-anchor="middle" x="404" y="-63" font-family="Helvetica,sans-Serif" font-size="10.00">AddObjectMatrix</text>
</a>
</g>
</g>
<!-- Node1&#45;&gt;Node364 -->
<g id="edge47_Node000001_Node000364" class="edge">
<title>Node1&#45;&gt;Node364</title>
<g id="a_edge47_Node000001_Node000364"><a xlink:title=" ">
<path fill="none" stroke="#63b8ff" d="M515,-391.26C493.36,-327.16 424.17,-122.28 408.28,-75.2"/>
<polygon fill="#63b8ff" stroke="#63b8ff" points="511.75,-392.56 518.26,-400.91 518.38,-390.32 511.75,-392.56"/>
</a>
</g>
</g>
<!-- Node3 -->
<g id="Node000003" class="node">
<title>Node3</title>
<g id="a_Node000003"><a xlink:href="render__player_8c.html#aaaba1eb7a4bac0f495dd2075e8a24340" target="_top" xlink:title=" ">
<polygon fill="white" stroke="#666666" points="281.5,-1004 189.5,-1004 189.5,-985 281.5,-985 281.5,-1004"/>
<text text-anchor="middle" x="235.5" y="-992" font-family="Helvetica,sans-Serif" font-size="10.00">func_80025DE8</text>
</a>
</g>
</g>
<!-- Node2&#45;&gt;Node3 -->
<g id="edge2_Node000002_Node000003" class="edge">
<title>Node2&#45;&gt;Node3</title>
<g id="a_edge2_Node000002_Node000003"><a xlink:title=" ">
<path fill="none" stroke="#63b8ff" d="M385.6,-851.22C350.91,-884.56 274.12,-958.35 246.58,-984.82"/>
<polygon fill="#63b8ff" stroke="#63b8ff" points="388.3,-853.48 393.08,-844.03 383.45,-848.43 388.3,-853.48"/>
</a>
</g>
</g>
<!-- Node52 -->
<g id="Node000052" class="node">
<title>Node52</title>
<g id="a_Node000052"><a xlink:href="code__80057C60_8c.html#afe48d8fb3ea987ea8782c445f30eb8c3" target="_top" xlink:title=" ">
<polygon fill="#fff0f0" stroke="red" points="281.5,-881 189.5,-881 189.5,-862 281.5,-862 281.5,-881"/>
<text text-anchor="middle" x="235.5" y="-869" font-family="Helvetica,sans-Serif" font-size="10.00">func_800652D4</text>
</a>
</g>
</g>
<!-- Node2&#45;&gt;Node52 -->
<g id="edge4_Node000002_Node000052" class="edge">
<title>Node2&#45;&gt;Node52</title>
<g id="a_edge4_Node000002_Node000052"><a xlink:title=" ">
<path fill="none" stroke="#63b8ff" d="M351.14,-846.3C340.51,-848.69 329.4,-851.19 319,-853.5 306.55,-856.27 293.03,-859.23 280.61,-861.94"/>
<polygon fill="#63b8ff" stroke="#63b8ff" points="352.16,-849.65 361.14,-844.03 350.62,-842.83 352.16,-849.65"/>
</a>
</g>
</g>
<!-- Node91 -->
<g id="Node000091" class="node">
<title>Node91</title>
<g id="a_Node000091"><a xlink:href="podium__ceremony__actors_8c.html#aca4471232210cb9f7177a97d0300af4e" target="_top" xlink:title=" ">
<polygon fill="#fff0f0" stroke="red" points="281.5,-844 189.5,-844 189.5,-825 281.5,-825 281.5,-844"/>
<text text-anchor="middle" x="235.5" y="-832" font-family="Helvetica,sans-Serif" font-size="10.00">func_80280A28</text>
</a>
</g>
</g>
<!-- Node2&#45;&gt;Node91 -->
<g id="edge25_Node000002_Node000091" class="edge">
<title>Node2&#45;&gt;Node91</title>
<g id="a_edge25_Node000002_Node000091"><a xlink:title=" ">
<path fill="none" stroke="#63b8ff" d="M346.06,-834.5C324.99,-834.5 301.41,-834.5 281.54,-834.5"/>
<polygon fill="#63b8ff" stroke="#63b8ff" points="346.18,-838 356.18,-834.5 346.18,-831 346.18,-838"/>
</a>
</g>
</g>
<!-- Node94 -->
<g id="Node000094" class="node">
<title>Node94</title>
<g id="a_Node000094"><a xlink:href="code__80057C60_8c.html#a756339e9120a7a20e2e8cdfaec8227e7" target="_top" xlink:title=" ">
<polygon fill="#fff0f0" stroke="red" points="280,-807 191,-807 191,-788 280,-788 280,-807"/>
<text text-anchor="middle" x="235.5" y="-795" font-family="Helvetica,sans-Serif" font-size="10.00">render_balloon</text>
</a>
</g>
</g>
<!-- Node2&#45;&gt;Node94 -->
<g id="edge26_Node000002_Node000094" class="edge">
<title>Node2&#45;&gt;Node94</title>
<g id="a_edge26_Node000002_Node000094"><a xlink:title=" ">
<path fill="none" stroke="#63b8ff" d="M350.26,-822.78C327.46,-817.71 301.11,-811.86 279.52,-807.06"/>
<polygon fill="#63b8ff" stroke="#63b8ff" points="349.6,-826.22 360.12,-824.97 351.12,-819.39 349.6,-826.22"/>
</a>
</g>
</g>
<!-- Node96 -->
<g id="Node000096" class="node">
<title>Node96</title>
<g id="a_Node000096"><a xlink:href="code__80057C60_8c.html#a38d7c818632179e1cb6ba01da30ca455" target="_top" xlink:title=" ">
<polygon fill="#fff0f0" stroke="red" points="297,-770 174,-770 174,-751 297,-751 297,-770"/>
<text text-anchor="middle" x="235.5" y="-758" font-family="Helvetica,sans-Serif" font-size="10.00">render_battle_balloon</text>
</a>
</g>
</g>
<!-- Node2&#45;&gt;Node96 -->
<g id="edge27_Node000002_Node000096" class="edge">
<title>Node2&#45;&gt;Node96</title>
<g id="a_edge27_Node000002_Node000096"><a xlink:title=" ">
<path fill="none" stroke="#63b8ff" d="M383.04,-818.5C366.71,-806.15 342.54,-789.54 319,-779.5 310.08,-775.7 300.27,-772.59 290.63,-770.08"/>
<polygon fill="#63b8ff" stroke="#63b8ff" points="381.2,-821.5 391.25,-824.85 385.48,-815.96 381.2,-821.5"/>
</a>
</g>
</g>
<!-- Node98 -->
<g id="Node000098" class="node">
<title>Node98</title>
<g id="a_Node000098"><a xlink:href="render__player_8c.html#a30ed78cf8502138212a8e5460b4c5933" target="_top" xlink:title=" ">
<polygon fill="white" stroke="#666666" points="313,-1176 158,-1176 158,-1157 313,-1157 313,-1176"/>
<text text-anchor="middle" x="235.5" y="-1164" font-family="Helvetica,sans-Serif" font-size="10.00">render_player_ice_reflection</text>
</a>
</g>
</g>
<!-- Node2&#45;&gt;Node98 -->
<g id="edge28_Node000002_Node000098" class="edge">
<title>Node2&#45;&gt;Node98</title>
<g id="a_edge28_Node000002_Node000098"><a xlink:title=" ">
<path fill="none" stroke="#63b8ff" d="M394.44,-853.64C379.62,-886.58 347.99,-955.96 319,-1013.5 291.3,-1068.48 255.36,-1132.99 241.9,-1156.93"/>
<polygon fill="#63b8ff" stroke="#63b8ff" points="397.74,-854.85 398.64,-844.29 391.35,-851.98 397.74,-854.85"/>
</a>
</g>
</g>
<!-- Node4 -->
<g id="Node000004" class="node">
<title>Node4</title>
<g id="a_Node000004"><a xlink:href="render__player_8c.html#a9afd62c74edf8ebd0a77158f6626ce10" target="_top" xlink:title=" ">
<polygon fill="#fff0f0" stroke="red" points="100,-1244 16,-1244 16,-1225 100,-1225 100,-1244"/>
<text text-anchor="middle" x="58" y="-1232" font-family="Helvetica,sans-Serif" font-size="10.00">render_player</text>
</a>
</g>
</g>
<!-- Node3&#45;&gt;Node4 -->
<g id="edge3_Node000003_Node000004" class="edge">
<title>Node3&#45;&gt;Node4</title>
<g id="a_edge3_Node000003_Node000004"><a xlink:title=" ">
<path fill="none" stroke="#63b8ff" d="M224.43,-1013.22C208.86,-1042.19 178.02,-1099.65 152,-1148.5 135.93,-1178.68 142.27,-1194.6 116,-1216.5 111.38,-1220.35 105.92,-1223.39 100.25,-1225.77"/>
<polygon fill="#63b8ff" stroke="#63b8ff" points="227.62,-1014.69 229.27,-1004.22 221.45,-1011.37 227.62,-1014.69"/>
</a>
</g>
</g>
<!-- Node53 -->
<g id="Node000053" class="node">
<title>Node53</title>
<g id="a_Node000053"><a xlink:href="code__80057C60_8c.html#a7d449221d1101f6984723f0b5e29dcd1" target="_top" xlink:title=" ">
<polygon fill="#fff0f0" stroke="red" points="104,-1121 12,-1121 12,-1102 104,-1102 104,-1121"/>
<text text-anchor="middle" x="58" y="-1109" font-family="Helvetica,sans-Serif" font-size="10.00">func_8006538C</text>
</a>
</g>
</g>
<!-- Node52&#45;&gt;Node53 -->
<g id="edge5_Node000052_Node000053" class="edge">
<title>Node52&#45;&gt;Node53</title>
<g id="a_edge5_Node000052_Node000053"><a xlink:title=" ">
<path fill="none" stroke="#63b8ff" d="M218.03,-888.31C199.59,-907.97 169.95,-942.2 152,-976.5 126.77,-1024.7 154.33,-1054.89 116,-1093.5 112.56,-1096.96 108.47,-1099.76 104.07,-1102.02"/>
<polygon fill="#63b8ff" stroke="#63b8ff" points="220.58,-890.71 224.95,-881.06 215.51,-885.88 220.58,-890.71"/>
</a>
</g>
</g>
<!-- Node56 -->
<g id="Node000056" class="node">
<title>Node56</title>
<g id="a_Node000056"><a xlink:href="code__80057C60_8c.html#a26b8516e0eef5293af855e7c6764f1fb" target="_top" xlink:title=" ">
<polygon fill="#fff0f0" stroke="red" points="104,-1084 12,-1084 12,-1065 104,-1065 104,-1084"/>
<text text-anchor="middle" x="58" y="-1072" font-family="Helvetica,sans-Serif" font-size="10.00">func_800658A0</text>
</a>
</g>
</g>
<!-- Node52&#45;&gt;Node56 -->
<g id="edge6_Node000052_Node000056" class="edge">
<title>Node52&#45;&gt;Node56</title>
<g id="a_edge6_Node000052_Node000056"><a xlink:title=" ">
<path fill="none" stroke="#63b8ff" d="M218.83,-888.69C201.09,-908.74 172.07,-943.36 152,-976.5 131.81,-1009.85 145.13,-1030.59 116,-1056.5 112.12,-1059.95 107.59,-1062.74 102.79,-1064.99"/>
<polygon fill="#63b8ff" stroke="#63b8ff" points="221.62,-890.83 225.68,-881.04 216.4,-886.16 221.62,-890.83"/>
</a>
</g>
</g>
<!-- Node58 -->
<g id="Node000058" class="node">
<title>Node58</title>
<g id="a_Node000058"><a xlink:href="code__80057C60_8c.html#a87c585b22e6059b0a94399fb9a1e2818" target="_top" xlink:title=" ">
<polygon fill="#fff0f0" stroke="red" points="103.5,-1047 12.5,-1047 12.5,-1028 103.5,-1028 103.5,-1047"/>
<text text-anchor="middle" x="58" y="-1035" font-family="Helvetica,sans-Serif" font-size="10.00">func_800664E0</text>
</a>
</g>
</g>
<!-- Node52&#45;&gt;Node58 -->
<g id="edge7_Node000052_Node000058" class="edge">
<title>Node52&#45;&gt;Node58</title>
<g id="a_edge7_Node000052_Node000058"><a xlink:title=" ">
<path fill="none" stroke="#63b8ff" d="M220.44,-889.33C189.79,-928.18 119.39,-1017.17 116,-1019.5 111.03,-1022.9 105.39,-1025.69 99.64,-1027.96"/>
<polygon fill="#63b8ff" stroke="#63b8ff" points="223.55,-891.05 226.99,-881.03 218.05,-886.71 223.55,-891.05"/>
</a>
</g>
</g>
<!-- Node59 -->
<g id="Node000059" class="node">
<title>Node59</title>
<g id="a_Node000059"><a xlink:href="code__80057C60_8c.html#a7f88600eb9c1e98bc9c82699ac01b1d3" target="_top" xlink:title=" ">
<polygon fill="white" stroke="#666666" points="103.5,-1010 12.5,-1010 12.5,-991 103.5,-991 103.5,-1010"/>
<text text-anchor="middle" x="58" y="-998" font-family="Helvetica,sans-Serif" font-size="10.00">func_80066714</text>
</a>
</g>
</g>
<!-- Node52&#45;&gt;Node59 -->
<g id="edge8_Node000052_Node000059" class="edge">
<title>Node52&#45;&gt;Node59</title>
<g id="a_edge8_Node000052_Node000059"><a xlink:title=" ">
<path fill="none" stroke="#63b8ff" d="M220.31,-889.03C199.74,-913.34 159.34,-957.15 116,-982.5 110.27,-985.85 103.84,-988.66 97.42,-990.97"/>
<polygon fill="#63b8ff" stroke="#63b8ff" points="223.26,-890.95 226.96,-881.02 217.87,-886.48 223.26,-890.95"/>
</a>
</g>
</g>
<!-- Node60 -->
<g id="Node000060" class="node">
<title>Node60</title>
<g id="a_Node000060"><a xlink:href="code__80057C60_8c.html#a3f7eaa00f6c7a777007bb0cd45c49c31" target="_top" xlink:title=" ">
<polygon fill="#fff0f0" stroke="red" points="103.5,-973 12.5,-973 12.5,-954 103.5,-954 103.5,-973"/>
<text text-anchor="middle" x="58" y="-961" font-family="Helvetica,sans-Serif" font-size="10.00">func_80066998</text>
</a>
</g>
</g>
<!-- Node52&#45;&gt;Node60 -->
<g id="edge9_Node000052_Node000060" class="edge">
<title>Node52&#45;&gt;Node60</title>
<g id="a_edge9_Node000052_Node000060"><a xlink:title=" ">
<path fill="none" stroke="#63b8ff" d="M213.3,-887.05C190.28,-903.37 151.97,-928.91 116,-945.5 109.12,-948.67 101.53,-951.5 94.19,-953.92"/>
<polygon fill="#63b8ff" stroke="#63b8ff" points="215.53,-889.76 221.61,-881.08 211.45,-884.07 215.53,-889.76"/>
</a>
</g>
</g>
<!-- Node70 -->
<g id="Node000070" class="node">
<title>Node70</title>
<g id="a_Node000070"><a xlink:href="code__80057C60_8c.html#a089a0196c5a33042c0decbdfb994c6a1" target="_top" xlink:title=" ">
<polygon fill="#fff0f0" stroke="red" points="104.5,-936 11.5,-936 11.5,-917 104.5,-917 104.5,-936"/>
<text text-anchor="middle" x="58" y="-924" font-family="Helvetica,sans-Serif" font-size="10.00">func_80066BAC</text>
</a>
</g>
</g>
<!-- Node52&#45;&gt;Node70 -->
<g id="edge10_Node000052_Node000070" class="edge">
<title>Node52&#45;&gt;Node70</title>
<g id="a_edge10_Node000052_Node000070"><a xlink:title=" ">
<path fill="none" stroke="#63b8ff" d="M194.04,-884.18C162.18,-894.16 118.47,-907.86 89.51,-916.94"/>
<polygon fill="#63b8ff" stroke="#63b8ff" points="195.43,-887.41 203.93,-881.08 193.34,-880.73 195.43,-887.41"/>
</a>
</g>
</g>
<!-- Node71 -->
<g id="Node000071" class="node">
<title>Node71</title>
<g id="a_Node000071"><a xlink:href="code__80057C60_8c.html#a2f5245121d6e632508386ce076689ab0" target="_top" xlink:title=" ">
<polygon fill="#fff0f0" stroke="red" points="103.5,-899 12.5,-899 12.5,-880 103.5,-880 103.5,-899"/>
<text text-anchor="middle" x="58" y="-887" font-family="Helvetica,sans-Serif" font-size="10.00">func_80067280</text>
</a>
</g>
</g>
<!-- Node52&#45;&gt;Node71 -->
<g id="edge11_Node000052_Node000071" class="edge">
<title>Node52&#45;&gt;Node71</title>
<g id="a_edge11_Node000052_Node000071"><a xlink:title=" ">
<path fill="none" stroke="#63b8ff" d="M179.15,-877.18C154.85,-879.67 126.69,-882.56 103.74,-884.91"/>
<polygon fill="#63b8ff" stroke="#63b8ff" points="179.71,-880.64 189.3,-876.14 179,-873.67 179.71,-880.64"/>
</a>
</g>
</g>
<!-- Node72 -->
<g id="Node000072" class="node">
<title>Node72</title>
<g id="a_Node000072"><a xlink:href="code__80057C60_8c.html#a83b70a807a1868d489124f4250751dce" target="_top" xlink:title=" ">
<polygon fill="#fff0f0" stroke="red" points="103.5,-862 12.5,-862 12.5,-843 103.5,-843 103.5,-862"/>
<text text-anchor="middle" x="58" y="-850" font-family="Helvetica,sans-Serif" font-size="10.00">func_80068724</text>
</a>
</g>
</g>
<!-- Node52&#45;&gt;Node72 -->
<g id="edge12_Node000052_Node000072" class="edge">
<title>Node52&#45;&gt;Node72</title>
<g id="a_edge12_Node000052_Node000072"><a xlink:title=" ">
<path fill="none" stroke="#63b8ff" d="M179.15,-865.51C154.85,-862.88 126.69,-859.83 103.74,-857.34"/>
<polygon fill="#63b8ff" stroke="#63b8ff" points="178.99,-869.01 189.3,-866.61 179.74,-862.05 178.99,-869.01"/>
</a>
</g>
</g>
<!-- Node73 -->
<g id="Node000073" class="node">
<title>Node73</title>
<g id="a_Node000073"><a xlink:href="code__80057C60_8c.html#ab2deee631099b8f4a4f3725c00012367" target="_top" xlink:title=" ">
<polygon fill="#fff0f0" stroke="red" points="104,-825 12,-825 12,-806 104,-806 104,-825"/>
<text text-anchor="middle" x="58" y="-813" font-family="Helvetica,sans-Serif" font-size="10.00">func_800691B8</text>
</a>
</g>
</g>
<!-- Node52&#45;&gt;Node73 -->
<g id="edge13_Node000052_Node000073" class="edge">
<title>Node52&#45;&gt;Node73</title>
<g id="a_edge13_Node000052_Node000073"><a xlink:title=" ">
<path fill="none" stroke="#63b8ff" d="M179.39,-861.65C170.12,-859.38 160.7,-856.68 152,-853.5 135.01,-847.29 132.64,-841.61 116,-834.5 107.94,-831.06 99.04,-827.83 90.7,-825.04"/>
<polygon fill="#63b8ff" stroke="#63b8ff" points="178.81,-865.11 189.34,-863.95 180.39,-858.29 178.81,-865.11"/>
</a>
</g>
</g>
<!-- Node74 -->
<g id="Node000074" class="node">
<title>Node74</title>
<g id="a_Node000074"><a xlink:href="code__80057C60_8c.html#a816ad699435bcfbaac32ffd5e1c873bf" target="_top" xlink:title=" ">
<polygon fill="#fff0f0" stroke="red" points="103.5,-788 12.5,-788 12.5,-769 103.5,-769 103.5,-788"/>
<text text-anchor="middle" x="58" y="-776" font-family="Helvetica,sans-Serif" font-size="10.00">func_80069444</text>
</a>
</g>
</g>
<!-- Node52&#45;&gt;Node74 -->
<g id="edge14_Node000052_Node000074" class="edge">
<title>Node52&#45;&gt;Node74</title>
<g id="a_edge14_Node000052_Node000074"><a xlink:title=" ">
<path fill="none" stroke="#63b8ff" d="M179.1,-865.69C169.5,-862.98 160.04,-859.09 152,-853.5 127.7,-836.62 139.36,-815.66 116,-797.5 111.06,-793.66 105.3,-790.58 99.38,-788.1"/>
<polygon fill="#63b8ff" stroke="#63b8ff" points="178.55,-869.16 189.09,-868.11 180.19,-862.35 178.55,-869.16"/>
</a>
</g>
</g>
<!-- Node75 -->
<g id="Node000075" class="node">
<title>Node75</title>
<g id="a_Node000075"><a xlink:href="code__80057C60_8c.html#a64a649414b0f4d317984a4440ce212cf" target="_top" xlink:title=" ">
<polygon fill="#fff0f0" stroke="red" points="103.5,-751 12.5,-751 12.5,-732 103.5,-732 103.5,-751"/>
<text text-anchor="middle" x="58" y="-739" font-family="Helvetica,sans-Serif" font-size="10.00">func_80069938</text>
</a>
</g>
</g>
<!-- Node52&#45;&gt;Node75 -->
<g id="edge15_Node000052_Node000075" class="edge">
<title>Node52&#45;&gt;Node75</title>
<g id="a_edge15_Node000052_Node000075"><a xlink:title=" ">
<path fill="none" stroke="#63b8ff" d="M179.37,-867.34C169.43,-864.51 159.77,-860.15 152,-853.5 118.33,-824.67 148.08,-791.09 116,-760.5 111.92,-756.61 107.03,-753.52 101.85,-751.06"/>
<polygon fill="#63b8ff" stroke="#63b8ff" points="178.81,-870.81 189.35,-869.69 180.41,-863.99 178.81,-870.81"/>
</a>
</g>
</g>
<!-- Node76 -->
<g id="Node000076" class="node">
<title>Node76</title>
<g id="a_Node000076"><a xlink:href="code__80057C60_8c.html#a1b816895add639d5bccf6c80120d317a" target="_top" xlink:title=" ">
<polygon fill="#fff0f0" stroke="red" points="104,-714 12,-714 12,-695 104,-695 104,-714"/>
<text text-anchor="middle" x="58" y="-702" font-family="Helvetica,sans-Serif" font-size="10.00">func_80069BA8</text>
</a>
</g>
</g>
<!-- Node52&#45;&gt;Node76 -->
<g id="edge16_Node000052_Node000076" class="edge">
<title>Node52&#45;&gt;Node76</title>
<g id="a_edge16_Node000052_Node000076"><a xlink:title=" ">
<path fill="none" stroke="#63b8ff" d="M179.46,-868.12C169.34,-865.25 159.59,-860.68 152,-853.5 108.45,-812.3 157.28,-766.97 116,-723.5 112.34,-719.64 107.87,-716.57 103.07,-714.12"/>
<polygon fill="#63b8ff" stroke="#63b8ff" points="178.7,-871.54 189.23,-870.38 180.27,-864.72 178.7,-871.54"/>
</a>
</g>
</g>
<!-- Node77 -->
<g id="Node000077" class="node">
<title>Node77</title>
<g id="a_Node000077"><a xlink:href="code__80057C60_8c.html#a96a550feb29af6f064c4f1f6fbf79c8e" target="_top" xlink:title=" ">
<polygon fill="#fff0f0" stroke="red" points="104.5,-677 11.5,-677 11.5,-658 104.5,-658 104.5,-677"/>
<text text-anchor="middle" x="58" y="-665" font-family="Helvetica,sans-Serif" font-size="10.00">func_80069DB8</text>
</a>
</g>
</g>
<!-- Node52&#45;&gt;Node77 -->
<g id="edge17_Node000052_Node000077" class="edge">
<title>Node52&#45;&gt;Node77</title>
<g id="a_edge17_Node000052_Node000077"><a xlink:title=" ">
<path fill="none" stroke="#63b8ff" d="M179.46,-868.55C169.24,-865.67 159.45,-860.97 152,-853.5 98.38,-799.74 166.67,-743.04 116,-686.5 112.52,-682.62 108.22,-679.52 103.56,-677.06"/>
<polygon fill="#63b8ff" stroke="#63b8ff" points="178.79,-871.99 189.32,-870.8 180.35,-865.16 178.79,-871.99"/>
</a>
</g>
</g>
<!-- Node78 -->
<g id="Node000078" class="node">
<title>Node78</title>
<g id="a_Node000078"><a xlink:href="code__80057C60_8c.html#aa29e50ae3d2289c99bf8319eaf7c31bc" target="_top" xlink:title=" ">
<polygon fill="#fff0f0" stroke="red" points="104,-640 12,-640 12,-621 104,-621 104,-640"/>
<text text-anchor="middle" x="58" y="-628" font-family="Helvetica,sans-Serif" font-size="10.00">func_8006A01C</text>
</a>
</g>
</g>
<!-- Node52&#45;&gt;Node78 -->
<g id="edge18_Node000052_Node000078" class="edge">
<title>Node52&#45;&gt;Node78</title>
<g id="a_edge18_Node000052_Node000078"><a xlink:title=" ">
<path fill="none" stroke="#63b8ff" d="M179.24,-868.77C169.04,-865.86 159.31,-861.11 152,-853.5 88.22,-787.1 176.14,-719.21 116,-649.5 112.66,-645.63 108.51,-642.55 103.99,-640.09"/>
<polygon fill="#63b8ff" stroke="#63b8ff" points="178.57,-872.2 189.1,-871.01 180.13,-865.38 178.57,-872.2"/>
</a>
</g>
</g>
<!-- Node79 -->
<g id="Node000079" class="node">
<title>Node79</title>
<g id="a_Node000079"><a xlink:href="code__80057C60_8c.html#aeacc1b0f213ad8d484e5dfac5c42920f" target="_top" xlink:title=" ">
<polygon fill="#fff0f0" stroke="red" points="104,-603 12,-603 12,-584 104,-584 104,-603"/>
<text text-anchor="middle" x="58" y="-591" font-family="Helvetica,sans-Serif" font-size="10.00">func_8006A280</text>
</a>
</g>
</g>
<!-- Node52&#45;&gt;Node79 -->
<g id="edge19_Node000052_Node000079" class="edge">
<title>Node52&#45;&gt;Node79</title>
<g id="a_edge19_Node000052_Node000079"><a xlink:title=" ">
<path fill="none" stroke="#63b8ff" d="M179.4,-869.01C169.09,-866.1 159.29,-861.29 152,-853.5 78.01,-774.42 185.66,-695.43 116,-612.5 112.71,-608.59 108.6,-605.47 104.09,-603"/>
<polygon fill="#63b8ff" stroke="#63b8ff" points="178.85,-872.47 189.37,-871.24 180.38,-865.64 178.85,-872.47"/>
</a>
</g>
</g>
<!-- Node80 -->
<g id="Node000080" class="node">
<title>Node80</title>
<g id="a_Node000080"><a xlink:href="code__80057C60_8c.html#a524fb5cb7f2989ad98c275695da9cc44" target="_top" xlink:title=" ">
<polygon fill="white" stroke="#666666" points="104,-566 12,-566 12,-547 104,-547 104,-566"/>
<text text-anchor="middle" x="58" y="-554" font-family="Helvetica,sans-Serif" font-size="10.00">func_8006C0C8</text>
</a>
</g>
</g>
<!-- Node52&#45;&gt;Node80 -->
<g id="edge20_Node000052_Node000080" class="edge">
<title>Node52&#45;&gt;Node80</title>
<g id="a_edge20_Node000052_Node000080"><a xlink:title=" ">
<path fill="none" stroke="#63b8ff" d="M179.28,-869.12C168.98,-866.2 159.21,-861.36 152,-853.5 67.77,-761.7 195.2,-671.67 116,-575.5 112.75,-571.55 108.66,-568.42 104.16,-565.94"/>
<polygon fill="#63b8ff" stroke="#63b8ff" points="178.73,-872.58 189.25,-871.35 180.26,-865.75 178.73,-872.58"/>
</a>
</g>
</g>
<!-- Node81 -->
<g id="Node000081" class="node">
<title>Node81</title>
<g id="a_Node000081"><a xlink:href="code__80057C60_8c.html#a7ce8e2d5688399f6672f9d55a6ef00a2" target="_top" xlink:title=" ">
<polygon fill="white" stroke="#666666" points="104,-529 12,-529 12,-510 104,-510 104,-529"/>
<text text-anchor="middle" x="58" y="-517" font-family="Helvetica,sans-Serif" font-size="10.00">func_8006C294</text>
</a>
</g>
</g>
<!-- Node52&#45;&gt;Node81 -->
<g id="edge21_Node000052_Node000081" class="edge">
<title>Node52&#45;&gt;Node81</title>
<g id="a_edge21_Node000052_Node000081"><a xlink:title=" ">
<path fill="none" stroke="#63b8ff" d="M179.19,-869.2C168.9,-866.28 159.15,-861.41 152,-853.5 57.52,-748.96 204.76,-647.94 116,-538.5 112.78,-534.53 108.71,-531.38 104.22,-528.89"/>
<polygon fill="#63b8ff" stroke="#63b8ff" points="178.64,-872.66 189.16,-871.43 180.17,-865.83 178.64,-872.66"/>
</a>
</g>
</g>
<!-- Node82 -->
<g id="Node000082" class="node">
<title>Node82</title>
<g id="a_Node000082"><a xlink:href="code__80057C60_8c.html#af1c7b5d386d28447e248a123bec58497" target="_top" xlink:title=" ">
<polygon fill="white" stroke="#666666" points="104.5,-492 11.5,-492 11.5,-473 104.5,-473 104.5,-492"/>
<text text-anchor="middle" x="58" y="-480" font-family="Helvetica,sans-Serif" font-size="10.00">func_8006C4D4</text>
</a>
</g>
</g>
<!-- Node52&#45;&gt;Node82 -->
<g id="edge22_Node000052_Node000082" class="edge">
<title>Node52&#45;&gt;Node82</title>
<g id="a_edge22_Node000052_Node000082"><a xlink:title=" ">
<path fill="none" stroke="#63b8ff" d="M179.12,-869.26C168.83,-866.34 159.1,-861.45 152,-853.5 99.63,-794.85 165.17,-562.86 116,-501.5 112.87,-497.59 108.91,-494.48 104.54,-492.01"/>
<polygon fill="#63b8ff" stroke="#63b8ff" points="178.57,-872.73 189.09,-871.5 180.1,-865.89 178.57,-872.73"/>
</a>
</g>
</g>
<!-- Node83 -->
<g id="Node000083" class="node">
<title>Node83</title>
<g id="a_Node000083"><a xlink:href="code__80057C60_8c.html#ab946bf1fb83419a3626f9d265b04a7bf" target="_top" xlink:title=" ">
<polygon fill="#fff0f0" stroke="red" points="113,-1207 3,-1207 3,-1188 113,-1188 113,-1207"/>
<text text-anchor="middle" x="58" y="-1195" font-family="Helvetica,sans-Serif" font-size="10.00">render_music_note</text>
</a>
</g>
</g>
<!-- Node52&#45;&gt;Node83 -->
<g id="edge23_Node000052_Node000083" class="edge">
<title>Node52&#45;&gt;Node83</title>
<g id="a_edge23_Node000052_Node000083"><a xlink:title=" ">
<path fill="none" stroke="#63b8ff" d="M216.95,-888.25C197.79,-907.61 167.74,-941.36 152,-976.5 114.72,-1059.72 175.63,-1109.5 116,-1178.5 112.66,-1182.37 108.51,-1185.45 103.98,-1187.91"/>
<polygon fill="#63b8ff" stroke="#63b8ff" points="219.54,-890.61 224.19,-881.09 214.61,-885.64 219.54,-890.61"/>
</a>
</g>
</g>
<!-- Node84 -->
<g id="Node000084" class="node">
<title>Node84</title>
<g id="a_Node000084"><a xlink:href="code__80057C60_8c.html#a859868ea70898b00453ccd132796ee5e" target="_top" xlink:title=" ">
<polygon fill="#fff0f0" stroke="red" points="116,-1169.5 0,-1169.5 0,-1139.5 116,-1139.5 116,-1169.5"/>
<text text-anchor="start" x="8" y="-1157.5" font-family="Helvetica,sans-Serif" font-size="10.00">render_player_boost</text>
<text text-anchor="middle" x="58" y="-1146.5" font-family="Helvetica,sans-Serif" font-size="10.00">_spark_particles</text>
</a>
</g>
</g>
<!-- Node52&#45;&gt;Node84 -->
<g id="edge24_Node000052_Node000084" class="edge">
<title>Node52&#45;&gt;Node84</title>
<g id="a_edge24_Node000052_Node000084"><a xlink:title=" ">
<path fill="none" stroke="#63b8ff" d="M217.3,-888.41C198.45,-907.91 168.67,-941.79 152,-976.5 121.57,-1039.86 161.33,-1076.78 116,-1130.5 113.09,-1133.95 109.6,-1136.91 105.8,-1139.45"/>
<polygon fill="#63b8ff" stroke="#63b8ff" points="219.88,-890.77 224.4,-881.2 214.89,-885.86 219.88,-890.77"/>
</a>
</g>
</g>
<!-- Node98&#45;&gt;Node4 -->
<g id="edge29_Node000098_Node000004" class="edge">
<title>Node98&#45;&gt;Node4</title>
<g id="a_edge29_Node000098_Node000004"><a xlink:title=" ">
<path fill="none" stroke="#63b8ff" d="M204.13,-1180.24C180.38,-1190.76 146.39,-1205.32 116,-1216.5 108.01,-1219.44 99.3,-1222.34 91.13,-1224.93"/>
<polygon fill="#63b8ff" stroke="#63b8ff" points="205.62,-1183.41 213.33,-1176.14 202.77,-1177.01 205.62,-1183.41"/>
</a>
</g>
</g>
<!-- Node100 -->
<g id="Node000100" class="node">
<title>Node100</title>
<g id="a_Node000100"><a xlink:href="classOTrophy.html#a2eb7707fd5f496e55c91ee160590cdd7" target="_top" xlink:title=" ">
<polygon fill="white" stroke="#666666" points="101.5,-223 14.5,-223 14.5,-204 101.5,-204 101.5,-223"/>
<text text-anchor="middle" x="58" y="-211" font-family="Helvetica,sans-Serif" font-size="10.00">OTrophy::Draw</text>
</a>
</g>
</g>
<!-- Node99&#45;&gt;Node100 -->
<g id="edge31_Node000099_Node000100" class="edge">
<title>Node99&#45;&gt;Node100</title>
<g id="a_edge31_Node000099_Node000100"><a xlink:title=" ">
<path fill="none" stroke="#63b8ff" d="M380.7,-395.33C364.28,-384.77 341.05,-371.09 319,-362.5 248.07,-334.87 216.95,-364.19 152,-324.5 108.88,-298.15 76.14,-244.75 64.06,-223.02"/>
<polygon fill="#63b8ff" stroke="#63b8ff" points="378.8,-398.26 389.08,-400.82 382.64,-392.41 378.8,-398.26"/>
</a>
</g>
</g>
<!-- Node101 -->
<g id="Node000101" class="node">
<title>Node101</title>
<g id="a_Node000101"><a xlink:href="math__util__2_8c.html#a22aa509214eeed1ba3197762e76d7bed" target="_top" xlink:title=" ">
<polygon fill="#fff0f0" stroke="red" points="281,-315 190,-315 190,-296 281,-296 281,-315"/>
<text text-anchor="middle" x="235.5" y="-303" font-family="Helvetica,sans-Serif" font-size="10.00">func_80042330</text>
</a>
</g>
</g>
<!-- Node99&#45;&gt;Node101 -->
<g id="edge32_Node000099_Node000101" class="edge">
<title>Node99&#45;&gt;Node101</title>
<g id="a_edge32_Node000099_Node000101"><a xlink:title=" ">
<path fill="none" stroke="#63b8ff" d="M389.19,-392.85C373.9,-374.46 347.62,-346.08 319,-329.5 307.51,-322.84 294.04,-317.92 281.35,-314.32"/>
<polygon fill="#63b8ff" stroke="#63b8ff" points="386.76,-395.4 395.77,-400.97 392.2,-391 386.76,-395.4"/>
</a>
</g>
</g>
<!-- Node190 -->
<g id="Node000190" class="node">
<title>Node190</title>
<g id="a_Node000190"><a xlink:href="math__util__2_8c.html#a73fc9c004b7013f9562425001c315571" target="_top" xlink:title=" ">
<polygon fill="#fff0f0" stroke="red" points="301.5,-278 169.5,-278 169.5,-259 301.5,-259 301.5,-278"/>
<text text-anchor="middle" x="235.5" y="-266" font-family="Helvetica,sans-Serif" font-size="10.00">func_80042330_portrait</text>
</a>
</g>
</g>
<!-- Node99&#45;&gt;Node190 -->
<g id="edge33_Node000099_Node000190" class="edge">
<title>Node99&#45;&gt;Node190</title>
<g id="a_edge33_Node000099_Node000190"><a xlink:title=" ">
<path fill="none" stroke="#63b8ff" d="M395.35,-391.36C383.35,-363.89 357.44,-313.74 319,-287.5 313.29,-283.61 306.9,-280.5 300.27,-278.03"/>
<polygon fill="#63b8ff" stroke="#63b8ff" points="392.16,-392.81 399.26,-400.67 398.62,-390.1 392.16,-392.81"/>
</a>
</g>
</g>
<!-- Node191 -->
<g id="Node000191" class="node">
<title>Node191</title>
<g id="a_Node000191"><a xlink:href="math__util__2_8c.html#ae4327c5df49b333e448da750f14387ce" target="_top" xlink:title=" ">
<polygon fill="#fff0f0" stroke="red" points="310,-241 161,-241 161,-222 310,-222 310,-241"/>
<text text-anchor="middle" x="235.5" y="-229" font-family="Helvetica,sans-Serif" font-size="10.00">func_80042330_unchanged</text>
</a>
</g>
</g>
<!-- Node99&#45;&gt;Node191 -->
<g id="edge34_Node000099_Node000191" class="edge">
<title>Node99&#45;&gt;Node191</title>
<g id="a_edge34_Node000099_Node000191"><a xlink:title=" ">
<path fill="none" stroke="#63b8ff" d="M398.35,-390.62C389.28,-356.42 365.88,-286.64 319,-250.5 314,-246.64 308.34,-243.54 302.4,-241.06"/>
<polygon fill="#63b8ff" stroke="#63b8ff" points="395.07,-391.91 400.89,-400.76 401.86,-390.2 395.07,-391.91"/>
</a>
</g>
</g>
<!-- Node213 -->
<g id="Node000213" class="node">
<title>Node213</title>
<g id="a_Node000213"><a xlink:href="math__util__2_8c.html#a5e75cf095048d145dbee0e0428d88711" target="_top" xlink:title=" ">
<polygon fill="#fff0f0" stroke="red" points="295,-204 176,-204 176,-185 295,-185 295,-204"/>
<text text-anchor="middle" x="235.5" y="-192" font-family="Helvetica,sans-Serif" font-size="10.00">func_80042330_wide</text>
</a>
</g>
</g>
<!-- Node99&#45;&gt;Node213 -->
<g id="edge35_Node000099_Node000213" class="edge">
<title>Node99&#45;&gt;Node213</title>
<g id="a_edge35_Node000099_Node000213"><a xlink:title=" ">
<path fill="none" stroke="#63b8ff" d="M400.54,-390.88C394.45,-351 374.91,-260.31 319,-213.5 312.13,-207.74 303.84,-203.65 295.21,-200.76"/>
<polygon fill="#63b8ff" stroke="#63b8ff" points="397.09,-391.49 401.94,-400.91 404.02,-390.52 397.09,-391.49"/>
</a>
</g>
</g>
<!-- Node218 -->
<g id="Node000218" class="node">
<title>Node218</title>
<g id="a_Node000218"><a xlink:href="classOHedgehog.html#a13625be451620e958a7901450c80e330" target="_top" xlink:title=" ">
<polygon fill="#fff0f0" stroke="red" points="313,-167 158,-167 158,-148 313,-148 313,-167"/>
<text text-anchor="middle" x="235.5" y="-155" font-family="Helvetica,sans-Serif" font-size="10.00">OHedgehog::func_8004A870</text>
</a>
</g>
</g>
<!-- Node99&#45;&gt;Node218 -->
<g id="edge36_Node000099_Node000218" class="edge">
<title>Node99&#45;&gt;Node218</title>
<g id="a_edge36_Node000099_Node000218"><a xlink:title=" ">
<path fill="none" stroke="#63b8ff" d="M402.01,-390.7C398.65,-345.48 383.86,-234.1 319,-176.5 314.71,-172.69 309.82,-169.61 304.6,-167.11"/>
<polygon fill="#63b8ff" stroke="#63b8ff" points="398.52,-390.93 402.65,-400.69 405.51,-390.49 398.52,-390.93"/>
</a>
</g>
</g>
<!-- Node221 -->
<g id="Node000221" class="node">
<title>Node221</title>
<g id="a_Node000221"><a xlink:href="render__objects_8c.html#a852cb0a2e8c940add312fbaa9a0cb705" target="_top" xlink:title=" ">
<polygon fill="#fff0f0" stroke="red" points="281.5,-130 189.5,-130 189.5,-111 281.5,-111 281.5,-130"/>
<text text-anchor="middle" x="235.5" y="-118" font-family="Helvetica,sans-Serif" font-size="10.00">func_800568A0</text>
</a>
</g>
</g>
<!-- Node99&#45;&gt;Node221 -->
<g id="edge37_Node000099_Node000221" class="edge">
<title>Node99&#45;&gt;Node221</title>
<g id="a_edge37_Node000099_Node000221"><a xlink:title=" ">
<path fill="none" stroke="#63b8ff" d="M403.14,-390.72C402.35,-340.69 393.01,-208.21 319,-139.5 308.87,-130.1 295.06,-125.04 281.64,-122.4"/>
<polygon fill="#63b8ff" stroke="#63b8ff" points="399.64,-390.86 403.19,-400.84 406.64,-390.82 399.64,-390.86"/>
</a>
</g>
</g>
<!-- Node224 -->
<g id="Node000224" class="node">
<title>Node224</title>
<g id="a_Node000224"><a xlink:href="classPlayerBombKart.html#aa063b7ce63ddb80c6da7550630df531a" target="_top" xlink:title=" ">
<polygon fill="#fff0f0" stroke="red" points="297,-732.5 174,-732.5 174,-702.5 297,-702.5 297,-732.5"/>
<text text-anchor="start" x="182" y="-720.5" font-family="Helvetica,sans-Serif" font-size="10.00">PlayerBombKart::func</text>
<text text-anchor="middle" x="235.5" y="-709.5" font-family="Helvetica,sans-Serif" font-size="10.00">_800568A0</text>
</a>
</g>
</g>
<!-- Node99&#45;&gt;Node224 -->
<g id="edge38_Node000099_Node000224" class="edge">
<title>Node99&#45;&gt;Node224</title>
<g id="a_edge38_Node000099_Node000224"><a xlink:title=" ">
<path fill="none" stroke="#63b8ff" d="M403.2,-430.2C402.63,-481.27 393.83,-619.08 319,-693.5 312.87,-699.6 305.28,-704.17 297.21,-707.59"/>
<polygon fill="#63b8ff" stroke="#63b8ff" points="406.7,-430.18 403.22,-420.17 399.7,-430.17 406.7,-430.18"/>
</a>
</g>
</g>
<!-- Node226 -->
<g id="Node000226" class="node">
<title>Node226</title>
<g id="a_Node000226"><a xlink:href="render__objects_8c.html#ad38e748954bfdc19d29272dbf4703c0e" target="_top" xlink:title=" ">
<polygon fill="#fff0f0" stroke="red" points="281.5,-684 189.5,-684 189.5,-665 281.5,-665 281.5,-684"/>
<text text-anchor="middle" x="235.5" y="-672" font-family="Helvetica,sans-Serif" font-size="10.00">func_80056FCC</text>
</a>
</g>
</g>
<!-- Node99&#45;&gt;Node226 -->
<g id="edge39_Node000099_Node000226" class="edge">
<title>Node99&#45;&gt;Node226</title>
<g id="a_edge39_Node000099_Node000226"><a xlink:title=" ">
<path fill="none" stroke="#63b8ff" d="M402.47,-430.08C400.1,-476.82 387.3,-595.59 319,-656.5 308.82,-665.57 295.15,-670.43 281.87,-672.94"/>
<polygon fill="#63b8ff" stroke="#63b8ff" points="405.97,-430.19 402.87,-420.06 398.98,-429.91 405.97,-430.19"/>
</a>
</g>
</g>
<!-- Node229 -->
<g id="Node000229" class="node">
<title>Node229</title>
<g id="a_Node000229"><a xlink:href="classOBombKart.html#aea3d7d6c71cbc87e4301cc95aef686b7" target="_top" xlink:title=" ">
<polygon fill="#fff0f0" stroke="red" points="296,-647 175,-647 175,-628 296,-628 296,-647"/>
<text text-anchor="middle" x="235.5" y="-635" font-family="Helvetica,sans-Serif" font-size="10.00">OBombKart::LoadMtx</text>
</a>
</g>
</g>
<!-- Node99&#45;&gt;Node229 -->
<g id="edge40_Node000099_Node000229" class="edge">
<title>Node99&#45;&gt;Node229</title>
<g id="a_edge40_Node000099_Node000229"><a xlink:title=" ">
<path fill="none" stroke="#63b8ff" d="M401.11,-430.21C396.02,-471.96 378.09,-569.55 319,-619.5 312.39,-625.08 304.45,-629.05 296.14,-631.85"/>
<polygon fill="#63b8ff" stroke="#63b8ff" points="404.6,-430.54 402.21,-420.22 397.64,-429.78 404.6,-430.54"/>
</a>
</g>
</g>
<!-- Node230 -->
<g id="Node000230" class="node">
<title>Node230</title>
<g id="a_Node000230"><a xlink:href="animation_8c.html#a735935d8f41d2fbdc617a41a92dfc371" target="_top" xlink:title=" ">
<polygon fill="#fff0f0" stroke="red" points="304.5,-610 166.5,-610 166.5,-591 304.5,-591 304.5,-610"/>
<text text-anchor="middle" x="235.5" y="-598" font-family="Helvetica,sans-Serif" font-size="10.00">render_limb_or_add_mtx</text>
</a>
</g>
</g>
<!-- Node99&#45;&gt;Node230 -->
<g id="edge41_Node000099_Node000230" class="edge">
<title>Node99&#45;&gt;Node230</title>
<g id="a_edge41_Node000099_Node000230"><a xlink:title=" ">
<path fill="none" stroke="#63b8ff" d="M399.12,-430.22C390.97,-466.15 368.58,-542.19 319,-581.5 314.16,-585.33 308.69,-588.42 302.93,-590.91"/>
<polygon fill="#63b8ff" stroke="#63b8ff" points="402.62,-430.57 401.28,-420.06 395.77,-429.11 402.62,-430.57"/>
</a>
</g>
</g>
<!-- Node241 -->
<g id="Node000241" class="node">
<title>Node241</title>
<g id="a_Node000241"><a xlink:href="math__util__2_8c.html#a72838b5aa6ee317abde4c7a2c30bc44b" target="_top" xlink:title=" ">
<polygon fill="white" stroke="#666666" points="290.5,-572.5 180.5,-572.5 180.5,-542.5 290.5,-542.5 290.5,-572.5"/>
<text text-anchor="start" x="188.5" y="-560.5" font-family="Helvetica,sans-Serif" font-size="10.00">rsp_set_matrix_diff</text>
<text text-anchor="middle" x="235.5" y="-549.5" font-family="Helvetica,sans-Serif" font-size="10.00">_translation_scale</text>
</a>
</g>
</g>
<!-- Node99&#45;&gt;Node241 -->
<g id="edge42_Node000099_Node000241" class="edge">
<title>Node99&#45;&gt;Node241</title>
<g id="a_edge42_Node000099_Node000241"><a xlink:title=" ">
<path fill="none" stroke="#63b8ff" d="M395.15,-429.36C382.9,-456.47 356.68,-506.18 319,-533.5 310.67,-539.54 300.83,-544.07 290.91,-547.46"/>
<polygon fill="#63b8ff" stroke="#63b8ff" points="398.37,-430.74 399.15,-420.17 391.95,-427.94 398.37,-430.74"/>
</a>
</g>
</g>
<!-- Node242 -->
<g id="Node000242" class="node">
<title>Node242</title>
<g id="a_Node000242"><a xlink:href="math__util__2_8c.html#aca064a66dc29c36e1db7b79a6b679e25" target="_top" xlink:title=" ">
<polygon fill="#fff0f0" stroke="red" points="310,-524 161,-524 161,-505 310,-505 310,-524"/>
<text text-anchor="middle" x="235.5" y="-512" font-family="Helvetica,sans-Serif" font-size="10.00">rsp_set_matrix_gObjectList</text>
</a>
</g>
</g>
<!-- Node99&#45;&gt;Node242 -->
<g id="edge43_Node000099_Node000242" class="edge">
<title>Node99&#45;&gt;Node242</title>
<g id="a_edge43_Node000099_Node000242"><a xlink:title=" ">
<path fill="none" stroke="#63b8ff" d="M390.75,-428.2C376.06,-448.02 349.55,-479.57 319,-496.5 312.84,-499.91 306.1,-502.67 299.2,-504.92"/>
<polygon fill="#63b8ff" stroke="#63b8ff" points="393.64,-430.18 396.64,-420.01 387.96,-426.09 393.64,-430.18"/>
</a>
</g>
</g>
<!-- Node253 -->
<g id="Node000253" class="node">
<title>Node253</title>
<g id="a_Node000253"><a xlink:href="math__util__2_8c.html#a2eff0e02deb703653ee3230fbc02eb14" target="_top" xlink:title="set the matrix to a transformation matrix">
<polygon fill="#fff0f0" stroke="red" points="319,-487 152,-487 152,-468 319,-468 319,-487"/>
<text text-anchor="middle" x="235.5" y="-475" font-family="Helvetica,sans-Serif" font-size="10.00">rsp_set_matrix_transformation</text>
</a>
</g>
</g>
<!-- Node99&#45;&gt;Node253 -->
<g id="edge44_Node000099_Node000253" class="edge">
<title>Node99&#45;&gt;Node253</title>
<g id="a_edge44_Node000099_Node000253"><a xlink:title=" ">
<path fill="none" stroke="#63b8ff" d="M380.7,-425.66C364.27,-436.21 341.04,-449.88 319,-458.5 309.42,-462.25 298.91,-465.37 288.69,-467.92"/>
<polygon fill="#63b8ff" stroke="#63b8ff" points="382.63,-428.58 389.07,-420.17 378.79,-422.72 382.63,-428.58"/>
</a>
</g>
</g>
<!-- Node354 -->
<g id="Node000354" class="node">
<title>Node354</title>
<g id="a_Node000354"><a xlink:href="math__util__2_8c.html#ac40bfdeffa5a3c0f8d7c1ce43c075a45" target="_top" xlink:title=" ">
<polygon fill="#fff0f0" stroke="red" points="319,-449.5 152,-449.5 152,-419.5 319,-419.5 319,-449.5"/>
<text text-anchor="start" x="160" y="-437.5" font-family="Helvetica,sans-Serif" font-size="10.00">rsp_set_matrix_transformation</text>
<text text-anchor="middle" x="235.5" y="-426.5" font-family="Helvetica,sans-Serif" font-size="10.00">_inverted_x_y_orientation</text>
</a>
</g>
</g>
<!-- Node99&#45;&gt;Node354 -->
<g id="edge45_Node000099_Node000354" class="edge">
<title>Node99&#45;&gt;Node354</title>
<g id="a_edge45_Node000099_Node000354"><a xlink:title=" ">
<path fill="none" stroke="#63b8ff" d="M351.08,-417.98C340.9,-419.45 329.98,-421.02 319.09,-422.6"/>
<polygon fill="#63b8ff" stroke="#63b8ff" points="351.59,-421.45 360.99,-416.56 350.59,-414.52 351.59,-421.45"/>
</a>
</g>
</g>
<!-- Node359 -->
<g id="Node000359" class="node">
<title>Node359</title>
<g id="a_Node000359"><a xlink:href="math__util__2_8c.html#af76a1b5132e0b292f26895736bb69cc7" target="_top" xlink:title=" ">
<polygon fill="#fff0f0" stroke="red" points="296.5,-401.5 174.5,-401.5 174.5,-371.5 296.5,-371.5 296.5,-401.5"/>
<text text-anchor="start" x="182.5" y="-389.5" font-family="Helvetica,sans-Serif" font-size="10.00">rsp_set_matrix_transl</text>
<text text-anchor="middle" x="235.5" y="-378.5" font-family="Helvetica,sans-Serif" font-size="10.00">_rot_scale</text>
</a>
</g>
</g>
<!-- Node99&#45;&gt;Node359 -->
<g id="edge46_Node000099_Node000359" class="edge">
<title>Node99&#45;&gt;Node359</title>
<g id="a_edge46_Node000099_Node000359"><a xlink:title=" ">
<path fill="none" stroke="#63b8ff" d="M350.63,-402.95C333.52,-400.48 314.38,-397.73 296.74,-395.18"/>
<polygon fill="#63b8ff" stroke="#63b8ff" points="350.59,-406.48 360.99,-404.44 351.59,-399.55 350.59,-406.48"/>
</a>
</g>
</g>
<!-- Node365 -->
<g id="Node000365" class="node">
<title>Node365</title>
<g id="a_Node000365"><a xlink:href="classAText.html#aa57b324c99af31fbffa359dc9f73e173" target="_top" xlink:title=" ">
<polygon fill="#fff0f0" stroke="red" points="289.5,-56 181.5,-56 181.5,-37 289.5,-37 289.5,-56"/>
<text text-anchor="middle" x="235.5" y="-44" font-family="Helvetica,sans-Serif" font-size="10.00">AText::DrawText3D</text>
</a>
</g>
</g>
<!-- Node364&#45;&gt;Node365 -->
<g id="edge48_Node000364_Node000365" class="edge">
<title>Node364&#45;&gt;Node365</title>
<g id="a_edge48_Node000364_Node000365"><a xlink:title=" ">
<path fill="none" stroke="#63b8ff" d="M344.77,-58.86C326.8,-56.8 307.11,-54.56 289.51,-52.55"/>
<polygon fill="#63b8ff" stroke="#63b8ff" points="344.51,-62.35 354.84,-60 345.3,-55.39 344.51,-62.35"/>
</a>
</g>
</g>
<!-- Node367 -->
<g id="Node000367" class="node">
<title>Node367</title>
<g id="a_Node000367"><a xlink:href="collision__viewer_8c.html#afaee40683a3ae56cae11b2c5687e3328" target="_top" xlink:title=" ">
<polygon fill="#fff0f0" stroke="red" points="282.5,-19 188.5,-19 188.5,0 282.5,0 282.5,-19"/>
<text text-anchor="middle" x="235.5" y="-7" font-family="Helvetica,sans-Serif" font-size="10.00">render_collision</text>
</a>
</g>
</g>
<!-- Node364&#45;&gt;Node367 -->
<g id="edge49_Node000364_Node000367" class="edge">
<title>Node364&#45;&gt;Node367</title>
<g id="a_edge49_Node000364_Node000367"><a xlink:title=" ">
<path fill="none" stroke="#63b8ff" d="M375.41,-51.24C359.3,-43.37 338.38,-33.92 319,-27.5 307.45,-23.67 294.72,-20.44 282.78,-17.81"/>
<polygon fill="#63b8ff" stroke="#63b8ff" points="374.25,-54.58 384.77,-55.9 377.37,-48.31 374.25,-54.58"/>
</a>
</g>
</g>
<!-- Node370 -->
<g id="Node000370" class="node">
<title>Node370</title>
<g id="a_Node000370"><a xlink:href="math__util_8c.html#a1e5d28a1962fbb390c7551f66c2f099a" target="_top" xlink:title=" ">
<polygon fill="#fff0f0" stroke="red" points="292,-93 179,-93 179,-74 292,-74 292,-93"/>
<text text-anchor="middle" x="235.5" y="-81" font-family="Helvetica,sans-Serif" font-size="10.00">render_set_position</text>
</a>
</g>
</g>
<!-- Node364&#45;&gt;Node370 -->
<g id="edge50_Node000364_Node000370" class="edge">
<title>Node364&#45;&gt;Node370</title>
<g id="a_edge50_Node000364_Node000370"><a xlink:title=" ">
<path fill="none" stroke="#63b8ff" d="M344.49,-71.83C327.5,-73.66 308.99,-75.66 292.18,-77.48"/>
<polygon fill="#63b8ff" stroke="#63b8ff" points="345.28,-75.26 354.84,-70.71 344.52,-68.3 345.28,-75.26"/>
</a>
</g>
</g>
<!-- Node370&#45;&gt;Node100 -->
<g id="edge51_Node000370_Node000100" class="edge">
<title>Node370&#45;&gt;Node100</title>
<g id="a_edge51_Node000370_Node000100"><a xlink:title=" ">
<path fill="none" stroke="#63b8ff" d="M169.24,-93.4C163.2,-95.59 157.34,-98.25 152,-101.5 108.59,-127.89 76.02,-181.89 64.02,-203.87"/>
<polygon fill="#63b8ff" stroke="#63b8ff" points="170.38,-96.71 178.85,-90.34 168.26,-90.04 170.38,-96.71"/>
</a>
</g>
</g>
</g>
</svg>

<g id="navigator" transform="translate(0 0)" fill="#404254">
  <rect fill="#f2f5e9" fill-opacity="0.5" stroke="#606060" stroke-width=".5" x="0" y="0" width="60" height="60"/>
  <use id="zoomplus" xlink:href="#zoomPlus" x="17" y="9" onmousedown="handleZoom(evt,'in')"/>
  <use id="zoomminus" xlink:href="#zoomMin" x="42" y="9" onmousedown="handleZoom(evt,'out')"/>
  <use id="reset" xlink:href="#resetDef" x="30" y="36" onmousedown="handleReset()"/>
   <use id="arrowup" xlink:href="#arrowUp" x="0" y="0" onmousedown="handlePan(0,-1)"/>
  <use id="arrowright" xlink:href="#arrowRight" x="0" y="0" onmousedown="handlePan(1,0)"/>
  <use id="arrowdown" xlink:href="#arrowDown" x="0" y="0" onmousedown="handlePan(0,1)"/>
  <use id="arrowleft" xlink:href="#arrowLeft" x="0" y="0" onmousedown="handlePan(-1,0)"/>
</g>
<svg viewBox="0 0 15 15" width="100%" height="30px" preserveAspectRatio="xMaxYMin meet">
 <g id="arrow_out" transform="scale(0.3 0.3)">
  <a xlink:href="Matrix_8cpp_a67401ed1d8de1f4d3a3e5a7b72842b6a_icgraph_org.svg" target="_base">
   <rect id="button" ry="5" rx="5" y="6" x="6" height="38" width="38"
        fill="#f2f5e9" fill-opacity="0.5" stroke="#606060" stroke-width="1.0"/>
   <path id="arrow"
     d="M 11.500037,31.436501 C 11.940474,20.09759 22.043105,11.32322 32.158766,21.979434 L 37.068811,17.246167 C 37.068811,17.246167 37.088388,32 37.088388,32 L 22.160133,31.978069 C 22.160133,31.978069 26.997745,27.140456 26.997745,27.140456 C 18.528582,18.264221 13.291696,25.230495 11.500037,31.436501 z"
     style="fill:#404040;"/>
  </a>
 </g>
</svg>

<style type='text/css'>
<![CDATA[
[data-mouse-over-selected='false'] { opacity: 0.7; }
[data-mouse-over-selected='true']  { opacity: 1.0; }
]]>
</style>
<script type="application/ecmascript"><![CDATA[
document.addEventListener('DOMContentLoaded', (event) => {
  highlightEdges();
  highlightAdjacentNodes();
});
]]></script>
</svg>
