<?xml version="1.0" encoding="UTF-8" standalone="no"?>
<!DOCTYPE svg PUBLIC "-//W3C//DTD SVG 1.1//EN"
 "http://www.w3.org/Graphics/SVG/1.1/DTD/svg11.dtd">
<!-- Generated by graphviz version 2.43.0 (0)
 -->
<!-- Title: draw_version Pages: 1 -->
<!--zoomable 465 -->

<svg id="main" version="1.1" xmlns="http://www.w3.org/2000/svg" xmlns:xlink="http://www.w3.org/1999/xlink" xml:space="preserve" onload="init(evt)">

<style type="text/css"><![CDATA[
.node, .edge {opacity: 0.7;}
.node.selected, .edge.selected {opacity: 1;}
.edge:hover path { stroke: red; }
.edge:hover polygon { stroke: red; fill: red; }
]]></style>

<defs>
  <circle id="rim" cx="0" cy="0" r="7"/>
  <circle id="rim2" cx="0" cy="0" r="3.5"/>
  <g id="zoomPlus">
    <use xlink:href="#rim" fill="#404040"><set attributeName="fill" to="#808080" begin="zoomplus.mouseover" end="zoomplus.mouseout"/></use>
    <path d="M-4,0h8M0,-4v8" fill="none" stroke="white" stroke-width="1.5" pointer-events="none"/>
  </g>
  <g id="zoomMin">
    <use xlink:href="#rim" fill="#404040"><set attributeName="fill" to="#808080" begin="zoomminus.mouseover" end="zoomminus.mouseout"/></use>
    <path d="M-4,0h8" fill="none" stroke="white" stroke-width="1.5" pointer-events="none"/>
  </g>
  <g id="arrowUp" transform="translate(30 24)">
    <use xlink:href="#rim"/>
    <path pointer-events="none" fill="none" stroke="white" stroke-width="1.5" d="M0,-3.0v7 M-2.5,-0.5L0,-3.0L2.5,-0.5"/>
  </g>
  <g id="arrowRight" transform="rotate(90) translate(36 -43)">
    <use xlink:href="#rim"/>
    <path pointer-events="none" fill="none" stroke="white" stroke-width="1.5" d="M0,-3.0v7 M-2.5,-0.5L0,-3.0L2.5,-0.5"/>
  </g>
  <g id="arrowDown" transform="rotate(180) translate(-30 -48)">
    <use xlink:href="#rim"/>
    <path pointer-events="none" fill="none" stroke="white" stroke-width="1.5" d="M0,-3.0v7 M-2.5,-0.5L0,-3.0L2.5,-0.5"/>
  </g>
  <g id="arrowLeft" transform="rotate(270) translate(-36 17)">
    <use xlink:href="#rim"/>
    <path pointer-events="none" fill="none" stroke="white" stroke-width="1.5" d="M0,-3.0v7 M-2.5,-0.5L0,-3.0L2.5,-0.5"/>
  </g>
  <g id="resetDef">
    <use xlink:href="#rim2" fill="#404040"><set attributeName="fill" to="#808080" begin="reset.mouseover" end="reset.mouseout"/></use>
  </g>
</defs>
<script type="application/ecmascript">
var viewWidth = 1456;
var viewHeight = 465;
var sectionId = 'dynsection-31';
</script>
<script type="application/ecmascript" xlink:href="svg.min.js"/>
<svg id="graph" class="graph">
<g id="viewport">
<title>draw_version</title>
<!-- Node1 -->
<g id="Node000001" class="node">
<title>Node1</title>
<g id="a_Node000001"><a xlink:title=" ">
<polygon fill="#999999" stroke="#666666" points="82,-325.5 0,-325.5 0,-306.5 82,-306.5 82,-325.5"/>
<text text-anchor="middle" x="41" y="-313.5" font-family="Helvetica,sans-Serif" font-size="10.00">draw_version</text>
</a>
</g>
</g>
<!-- Node2 -->
<g id="Node000002" class="node">
<title>Node2</title>
<g id="a_Node000002"><a xlink:href="menu__items_8c.html#a7d794365d2dcd6526ddb06e476bef1e3" target="_top" xlink:title=" ">
<polygon fill="white" stroke="#666666" points="350,-377.5 252,-377.5 252,-358.5 350,-358.5 350,-377.5"/>
<text text-anchor="middle" x="301" y="-365.5" font-family="Helvetica,sans-Serif" font-size="10.00">get_string_width</text>
</a>
</g>
</g>
<!-- Node1&#45;&gt;Node2 -->
<g id="edge1_Node000001_Node000002" class="edge">
<title>Node1&#45;&gt;Node2</title>
<g id="a_edge1_Node000001_Node000002"><a xlink:title=" ">
<path fill="none" stroke="#63b8ff" d="M80.58,-325.52C92.55,-328.36 105.8,-331.42 118,-334 159.22,-342.73 205.93,-351.43 241.72,-357.84"/>
<polygon fill="#63b8ff" stroke="#63b8ff" points="241.52,-361.36 251.98,-359.68 242.75,-354.47 241.52,-361.36"/>
</a>
</g>
</g>
<!-- Node7 -->
<g id="Node000007" class="node">
<title>Node7</title>
<g id="a_Node000007"><a xlink:href="menu__items_8c.html#aeadbf47fc56f2dabd289f8f417f2afff" target="_top" xlink:title=" ">
<polygon fill="white" stroke="#666666" points="216,-325.5 118,-325.5 118,-306.5 216,-306.5 216,-325.5"/>
<text text-anchor="middle" x="167" y="-313.5" font-family="Helvetica,sans-Serif" font-size="10.00">print_text1_right</text>
</a>
</g>
</g>
<!-- Node1&#45;&gt;Node7 -->
<g id="edge7_Node000001_Node000007" class="edge">
<title>Node1&#45;&gt;Node7</title>
<g id="a_edge7_Node000001_Node000007"><a xlink:title=" ">
<path fill="none" stroke="#63b8ff" d="M82.26,-316C90.39,-316 99.1,-316 107.7,-316"/>
<polygon fill="#63b8ff" stroke="#63b8ff" points="107.73,-319.5 117.73,-316 107.73,-312.5 107.73,-319.5"/>
</a>
</g>
</g>
<!-- Node40 -->
<g id="Node000040" class="node">
<title>Node40</title>
<g id="a_Node000040"><a xlink:href="menu__items_8c.html#a1a002f259a6c887d6672085b8cda7d4d" target="_top" xlink:title=" ">
<polygon fill="white" stroke="#666666" points="210,-288.5 124,-288.5 124,-269.5 210,-269.5 210,-288.5"/>
<text text-anchor="middle" x="167" y="-276.5" font-family="Helvetica,sans-Serif" font-size="10.00">set_text_color</text>
</a>
</g>
</g>
<!-- Node1&#45;&gt;Node40 -->
<g id="edge51_Node000001_Node000040" class="edge">
<title>Node1&#45;&gt;Node40</title>
<g id="a_edge51_Node000001_Node000040"><a xlink:title=" ">
<path fill="none" stroke="#63b8ff" d="M73.93,-306.47C89.15,-301.93 107.55,-296.44 123.88,-291.57"/>
<polygon fill="#63b8ff" stroke="#63b8ff" points="125.16,-294.84 133.74,-288.62 123.16,-288.13 125.16,-294.84"/>
</a>
</g>
</g>
<!-- Node3 -->
<g id="Node000003" class="node">
<title>Node3</title>
<g id="a_Node000003"><a xlink:href="menu__items_8c.html#ace62f40ce813c34904327e39643a0dbf" target="_top" xlink:title=" ">
<polygon fill="white" stroke="#666666" points="514,-380.5 397,-380.5 397,-361.5 514,-361.5 514,-380.5"/>
<text text-anchor="middle" x="455.5" y="-368.5" font-family="Helvetica,sans-Serif" font-size="10.00">char_to_glyph_index</text>
</a>
</g>
</g>
<!-- Node2&#45;&gt;Node3 -->
<g id="edge2_Node000002_Node000003" class="edge">
<title>Node2&#45;&gt;Node3</title>
<g id="a_edge2_Node000002_Node000003"><a xlink:title=" ">
<path fill="none" stroke="#63b8ff" d="M350.25,-368.95C361.84,-369.18 374.43,-369.42 386.73,-369.67"/>
<polygon fill="#63b8ff" stroke="#63b8ff" points="386.89,-373.17 396.95,-369.87 387.03,-366.17 386.89,-373.17"/>
</a>
</g>
</g>
<!-- Node4 -->
<g id="Node000004" class="node">
<title>Node4</title>
<g id="a_Node000004"><a xlink:href="menu__items_8c.html#ae8ba1b567dba01ff15c64d416653a70b" target="_top" xlink:title=" ">
<polygon fill="white" stroke="#666666" points="653.5,-380.5 561.5,-380.5 561.5,-361.5 653.5,-361.5 653.5,-380.5"/>
<text text-anchor="middle" x="607.5" y="-368.5" font-family="Helvetica,sans-Serif" font-size="10.00">func_80092DF8</text>
</a>
</g>
</g>
<!-- Node3&#45;&gt;Node4 -->
<g id="edge3_Node000003_Node000004" class="edge">
<title>Node3&#45;&gt;Node4</title>
<g id="a_edge3_Node000003_Node000004"><a xlink:title=" ">
<path fill="none" stroke="#63b8ff" d="M514.06,-371C526.33,-371 539.25,-371 551.42,-371"/>
<polygon fill="#63b8ff" stroke="#63b8ff" points="551.43,-374.5 561.43,-371 551.43,-367.5 551.43,-374.5"/>
</a>
</g>
</g>
<!-- Node5 -->
<g id="Node000005" class="node">
<title>Node5</title>
<g id="a_Node000005"><a xlink:href="menu__items_8c.html#acd5b29a8e8634aa4f3db4b9a7c5ba033" target="_top" xlink:title=" ">
<polygon fill="white" stroke="#666666" points="791,-399.5 699,-399.5 699,-380.5 791,-380.5 791,-399.5"/>
<text text-anchor="middle" x="745" y="-387.5" font-family="Helvetica,sans-Serif" font-size="10.00">func_80092E1C</text>
</a>
</g>
</g>
<!-- Node3&#45;&gt;Node5 -->
<g id="edge5_Node000003_Node000005" class="edge">
<title>Node3&#45;&gt;Node5</title>
<g id="a_edge5_Node000003_Node000005"><a xlink:title=" ">
<path fill="none" stroke="#63b8ff" d="M502.07,-380.53C520.3,-383.9 541.56,-387.28 561,-389 603.63,-392.76 652.07,-392.84 688.39,-392.07"/>
<polygon fill="#63b8ff" stroke="#63b8ff" points="688.87,-395.56 698.78,-391.82 688.7,-388.56 688.87,-395.56"/>
</a>
</g>
</g>
<!-- Node6 -->
<g id="Node000006" class="node">
<title>Node6</title>
<g id="a_Node000006"><a xlink:href="menu__items_8c.html#ab26c8dca1828cd1d5a6c341cb851f0b9" target="_top" xlink:title=" ">
<polygon fill="white" stroke="#666666" points="653,-456.5 562,-456.5 562,-437.5 653,-437.5 653,-456.5"/>
<text text-anchor="middle" x="607.5" y="-444.5" font-family="Helvetica,sans-Serif" font-size="10.00">func_80092EE4</text>
</a>
</g>
</g>
<!-- Node3&#45;&gt;Node6 -->
<g id="edge6_Node000003_Node000006" class="edge">
<title>Node3&#45;&gt;Node6</title>
<g id="a_edge6_Node000003_Node000006"><a xlink:title=" ">
<path fill="none" stroke="#63b8ff" d="M475.5,-380.63C501.53,-393.82 548.49,-417.61 578.54,-432.83"/>
<polygon fill="#63b8ff" stroke="#63b8ff" points="577.15,-436.06 587.66,-437.45 580.32,-429.81 577.15,-436.06"/>
</a>
</g>
</g>
<!-- Node4&#45;&gt;Node5 -->
<g id="edge4_Node000004_Node000005" class="edge">
<title>Node4&#45;&gt;Node5</title>
<g id="a_edge4_Node000004_Node000005"><a xlink:title=" ">
<path fill="none" stroke="#63b8ff" d="M653.62,-377.33C664.81,-378.9 676.94,-380.6 688.56,-382.23"/>
<polygon fill="#63b8ff" stroke="#63b8ff" points="688.23,-385.71 698.62,-383.64 689.2,-378.78 688.23,-385.71"/>
</a>
</g>
</g>
<!-- Node8 -->
<g id="Node000008" class="node">
<title>Node8</title>
<g id="a_Node000008"><a xlink:href="menu__items_8c.html#ad2af1a6781c3f0bf246aba0d078ae773" target="_top" xlink:title=" ">
<polygon fill="white" stroke="#666666" points="336,-320.5 266,-320.5 266,-301.5 336,-301.5 336,-320.5"/>
<text text-anchor="middle" x="301" y="-308.5" font-family="Helvetica,sans-Serif" font-size="10.00">print_text1</text>
</a>
</g>
</g>
<!-- Node7&#45;&gt;Node8 -->
<g id="edge8_Node000007_Node000008" class="edge">
<title>Node7&#45;&gt;Node8</title>
<g id="a_edge8_Node000007_Node000008"><a xlink:title=" ">
<path fill="none" stroke="#63b8ff" d="M216.03,-314.18C228.93,-313.69 242.82,-313.17 255.52,-312.68"/>
<polygon fill="#63b8ff" stroke="#63b8ff" points="256,-316.17 265.86,-312.29 255.73,-309.17 256,-316.17"/>
</a>
</g>
</g>
<!-- Node8&#45;&gt;Node3 -->
<g id="edge9_Node000008_Node000003" class="edge">
<title>Node8&#45;&gt;Node3</title>
<g id="a_edge9_Node000008_Node000003"><a xlink:title=" ">
<path fill="none" stroke="#63b8ff" d="M323.24,-320.58C340.13,-328.07 364.41,-338.6 386,-347 395.69,-350.77 406.25,-354.6 416.11,-358.06"/>
<polygon fill="#63b8ff" stroke="#63b8ff" points="415.08,-361.41 425.68,-361.39 417.38,-354.8 415.08,-361.41"/>
</a>
</g>
</g>
<!-- Node9 -->
<g id="Node000009" class="node">
<title>Node9</title>
<g id="a_Node000009"><a xlink:href="FrameInterpolation_8cpp.html#a14ceaeb116362786310778e36943f7be" target="_top" xlink:title=" ">
<polygon fill="white" stroke="#666666" points="525,-305 386,-305 386,-275 525,-275 525,-305"/>
<text text-anchor="start" x="394" y="-293" font-family="Helvetica,sans-Serif" font-size="10.00">FrameInterpolation</text>
<text text-anchor="middle" x="455.5" y="-282" font-family="Helvetica,sans-Serif" font-size="10.00">_ShouldInterpolateFrame</text>
</a>
</g>
</g>
<!-- Node8&#45;&gt;Node9 -->
<g id="edge10_Node000008_Node000009" class="edge">
<title>Node8&#45;&gt;Node9</title>
<g id="a_edge10_Node000008_Node000009"><a xlink:title=" ">
<path fill="none" stroke="#63b8ff" d="M336.22,-306.29C348.03,-304.66 361.78,-302.77 375.65,-300.86"/>
<polygon fill="#63b8ff" stroke="#63b8ff" points="376.31,-304.3 385.74,-299.47 375.36,-297.37 376.31,-304.3"/>
</a>
</g>
</g>
<!-- Node10 -->
<g id="Node000010" class="node">
<title>Node10</title>
<g id="a_Node000010"><a xlink:href="GBIMiddleware_8cpp.html#a4ecc44e3c6f1ca5a6b4a20c41d3bd2d2" target="_top" xlink:title=" ">
<polygon fill="white" stroke="#666666" points="950.5,-340.5 861.5,-340.5 861.5,-321.5 950.5,-321.5 950.5,-340.5"/>
<text text-anchor="middle" x="906" y="-328.5" font-family="Helvetica,sans-Serif" font-size="10.00">gSPDisplayList</text>
</a>
</g>
</g>
<!-- Node8&#45;&gt;Node10 -->
<g id="edge11_Node000008_Node000010" class="edge">
<title>Node8&#45;&gt;Node10</title>
<g id="a_edge11_Node000008_Node000010"><a xlink:title=" ">
<path fill="none" stroke="#63b8ff" d="M336.33,-312.25C351.55,-312.8 369.67,-313.44 386,-314 555.78,-319.81 756.82,-326.28 851.11,-329.29"/>
<polygon fill="#63b8ff" stroke="#63b8ff" points="851.15,-332.79 861.25,-329.61 851.37,-325.79 851.15,-332.79"/>
</a>
</g>
</g>
<!-- Node13 -->
<g id="Node000013" class="node">
<title>Node13</title>
<g id="a_Node000013"><a xlink:href="menu__items_8c.html#a68e560d23390d5add7cb57ccd82e21ae" target="_top" xlink:title=" ">
<polygon fill="white" stroke="#666666" points="503,-206.5 408,-206.5 408,-187.5 503,-187.5 503,-206.5"/>
<text text-anchor="middle" x="455.5" y="-194.5" font-family="Helvetica,sans-Serif" font-size="10.00">load_menu_img</text>
</a>
</g>
</g>
<!-- Node8&#45;&gt;Node13 -->
<g id="edge14_Node000008_Node000013" class="edge">
<title>Node8&#45;&gt;Node13</title>
<g id="a_edge14_Node000008_Node000013"><a xlink:title=" ">
<path fill="none" stroke="#63b8ff" d="M309.69,-301.43C323.5,-284.73 354.07,-249.95 386,-228 395.9,-221.19 407.54,-215.28 418.38,-210.49"/>
<polygon fill="#63b8ff" stroke="#63b8ff" points="419.79,-213.69 427.64,-206.57 417.07,-207.24 419.79,-213.69"/>
</a>
</g>
</g>
<!-- Node15 -->
<g id="Node000015" class="node">
<title>Node15</title>
<g id="a_Node000015"><a xlink:href="menu__items_8c.html#aafca6e35a19465ad361e68b13e467243" target="_top" xlink:title=" ">
<polygon fill="white" stroke="#666666" points="491,-256.5 420,-256.5 420,-237.5 491,-237.5 491,-256.5"/>
<text text-anchor="middle" x="455.5" y="-244.5" font-family="Helvetica,sans-Serif" font-size="10.00">print_letter</text>
</a>
</g>
</g>
<!-- Node8&#45;&gt;Node15 -->
<g id="edge16_Node000008_Node000015" class="edge">
<title>Node8&#45;&gt;Node15</title>
<g id="a_edge16_Node000008_Node000015"><a xlink:title=" ">
<path fill="none" stroke="#63b8ff" d="M317.29,-301.47C333.76,-291.53 360.97,-276.03 386,-266 393.66,-262.93 401.98,-260.17 410.11,-257.77"/>
<polygon fill="#63b8ff" stroke="#63b8ff" points="411.19,-261.1 419.86,-255.01 409.29,-254.36 411.19,-261.1"/>
</a>
</g>
</g>
<!-- Node11 -->
<g id="Node000011" class="node">
<title>Node11</title>
<g id="a_Node000011"><a xlink:href="Engine_8cpp.html#a223c8bc63f228dc11177515e38eff2db" target="_top" xlink:title=" ">
<polygon fill="white" stroke="#666666" points="1161,-321.5 1012,-321.5 1012,-302.5 1161,-302.5 1161,-321.5"/>
<text text-anchor="middle" x="1086.5" y="-309.5" font-family="Helvetica,sans-Serif" font-size="10.00">GameEngine_OTRSigCheck</text>
</a>
</g>
</g>
<!-- Node10&#45;&gt;Node11 -->
<g id="edge12_Node000010_Node000011" class="edge">
<title>Node10&#45;&gt;Node11</title>
<g id="a_edge12_Node000010_Node000011"><a xlink:title=" ">
<path fill="none" stroke="#63b8ff" d="M950.67,-326.35C966.02,-324.72 983.84,-322.82 1001.4,-320.95"/>
<polygon fill="#63b8ff" stroke="#63b8ff" points="1002.11,-324.4 1011.68,-319.86 1001.36,-317.44 1002.11,-324.4"/>
</a>
</g>
</g>
<!-- Node12 -->
<g id="Node000012" class="node">
<title>Node12</title>
<g id="a_Node000012"><a xlink:href="string_8c.html#a008e171a518fe0e0352f31b245e03875" target="_top" xlink:title=" ">
<polygon fill="white" stroke="#666666" points="1243.5,-321.5 1199.5,-321.5 1199.5,-302.5 1243.5,-302.5 1243.5,-321.5"/>
<text text-anchor="middle" x="1221.5" y="-309.5" font-family="Helvetica,sans-Serif" font-size="10.00">strlen</text>
</a>
</g>
</g>
<!-- Node11&#45;&gt;Node12 -->
<g id="edge13_Node000011_Node000012" class="edge">
<title>Node11&#45;&gt;Node12</title>
<g id="a_edge13_Node000011_Node000012"><a xlink:title=" ">
<path fill="none" stroke="#63b8ff" d="M1161,-312C1170.89,-312 1180.56,-312 1189.14,-312"/>
<polygon fill="#63b8ff" stroke="#63b8ff" points="1189.36,-315.5 1199.36,-312 1189.36,-308.5 1189.36,-315.5"/>
</a>
</g>
</g>
<!-- Node14 -->
<g id="Node000014" class="node">
<title>Node14</title>
<g id="a_Node000014"><a xlink:href="menu__items_8c.html#a248768ee2e4ca9ae9cf0a30bfb256859" target="_top" xlink:title=" ">
<polygon fill="white" stroke="#666666" points="646.5,-174.5 568.5,-174.5 568.5,-155.5 646.5,-155.5 646.5,-174.5"/>
<text text-anchor="middle" x="607.5" y="-162.5" font-family="Helvetica,sans-Serif" font-size="10.00">load_texture</text>
</a>
</g>
</g>
<!-- Node13&#45;&gt;Node14 -->
<g id="edge15_Node000013_Node000014" class="edge">
<title>Node13&#45;&gt;Node14</title>
<g id="a_edge15_Node000013_Node000014"><a xlink:title=" ">
<path fill="none" stroke="#63b8ff" d="M501.1,-187.49C519.17,-183.63 540.07,-179.17 558.48,-175.24"/>
<polygon fill="#63b8ff" stroke="#63b8ff" points="559.36,-178.63 568.41,-173.13 557.9,-171.79 559.36,-178.63"/>
</a>
</g>
</g>
<!-- Node15&#45;&gt;Node10 -->
<g id="edge50_Node000015_Node000010" class="edge">
<title>Node15&#45;&gt;Node10</title>
<g id="a_edge50_Node000015_Node000010"><a xlink:title=" ">
<path fill="none" stroke="#63b8ff" d="M491.32,-253.52C569.28,-268.12 758.32,-303.53 851.4,-320.96"/>
<polygon fill="#63b8ff" stroke="#63b8ff" points="850.98,-324.44 861.46,-322.84 852.27,-317.56 850.98,-324.44"/>
</a>
</g>
</g>
<!-- Node16 -->
<g id="Node000016" class="node">
<title>Node16</title>
<g id="a_Node000016"><a xlink:href="menu__items_8c.html#a37eb021a953285ba504198ac6ca73a9a" target="_top" xlink:title=" ">
<polygon fill="white" stroke="#666666" points="654,-211.5 561,-211.5 561,-192.5 654,-192.5 654,-211.5"/>
<text text-anchor="middle" x="607.5" y="-199.5" font-family="Helvetica,sans-Serif" font-size="10.00">func_80095BD0</text>
</a>
</g>
</g>
<!-- Node15&#45;&gt;Node16 -->
<g id="edge17_Node000015_Node000016" class="edge">
<title>Node15&#45;&gt;Node16</title>
<g id="a_edge17_Node000015_Node000016"><a xlink:title=" ">
<path fill="none" stroke="#63b8ff" d="M488.31,-237.46C510.68,-230.74 540.84,-221.7 565.08,-214.42"/>
<polygon fill="#63b8ff" stroke="#63b8ff" points="566.16,-217.76 574.73,-211.53 564.15,-211.05 566.16,-217.76"/>
</a>
</g>
</g>
<!-- Node17 -->
<g id="Node000017" class="node">
<title>Node17</title>
<g id="a_Node000017"><a xlink:href="Matrix_8cpp.html#a6f64c44efb9bdfff802175a9739ce1f1" target="_top" xlink:title=" ">
<polygon fill="white" stroke="#666666" points="788.5,-192.5 701.5,-192.5 701.5,-173.5 788.5,-173.5 788.5,-192.5"/>
<text text-anchor="middle" x="745" y="-180.5" font-family="Helvetica,sans-Serif" font-size="10.00">AddTextMatrix</text>
</a>
</g>
</g>
<!-- Node16&#45;&gt;Node17 -->
<g id="edge18_Node000016_Node000017" class="edge">
<title>Node16&#45;&gt;Node17</title>
<g id="a_edge18_Node000016_Node000017"><a xlink:title=" ">
<path fill="none" stroke="#63b8ff" d="M654.37,-195.57C666.25,-193.9 679.13,-192.1 691.33,-190.39"/>
<polygon fill="#63b8ff" stroke="#63b8ff" points="691.95,-193.83 701.37,-188.98 690.98,-186.9 691.95,-193.83"/>
</a>
</g>
</g>
<!-- Node21 -->
<g id="Node000021" class="node">
<title>Node21</title>
<g id="a_Node000021"><a xlink:href="FrameInterpolation_8cpp.html#a3a036bc9d533e28a4e9697cd20dccf3e" target="_top" xlink:title=" ">
<polygon fill="white" stroke="#666666" points="800,-91 690,-91 690,-61 800,-61 800,-91"/>
<text text-anchor="start" x="698" y="-79" font-family="Helvetica,sans-Serif" font-size="10.00">FrameInterpolation</text>
<text text-anchor="middle" x="745" y="-68" font-family="Helvetica,sans-Serif" font-size="10.00">_RecordCloseChild</text>
</a>
</g>
</g>
<!-- Node16&#45;&gt;Node21 -->
<g id="edge22_Node000016_Node000021" class="edge">
<title>Node16&#45;&gt;Node21</title>
<g id="a_edge22_Node000016_Node000021"><a xlink:title=" ">
<path fill="none" stroke="#63b8ff" d="M640.22,-192.37C645.23,-189.88 650.05,-186.79 654,-183 681.26,-156.85 664.23,-133.63 690,-106 693.13,-102.64 696.72,-99.57 700.53,-96.78"/>
<polygon fill="#63b8ff" stroke="#63b8ff" points="702.7,-99.55 709.13,-91.13 698.86,-93.7 702.7,-99.55"/>
</a>
</g>
</g>
<!-- Node22 -->
<g id="Node000022" class="node">
<title>Node22</title>
<g id="a_Node000022"><a xlink:href="FrameInterpolation_8cpp.html#a0eda726b74eac815af4e874014e2727c" target="_top" xlink:title=" ">
<polygon fill="white" stroke="#666666" points="800,-30 690,-30 690,0 800,0 800,-30"/>
<text text-anchor="start" x="698" y="-18" font-family="Helvetica,sans-Serif" font-size="10.00">FrameInterpolation</text>
<text text-anchor="middle" x="745" y="-7" font-family="Helvetica,sans-Serif" font-size="10.00">_RecordOpenChild</text>
</a>
</g>
</g>
<!-- Node16&#45;&gt;Node22 -->
<g id="edge24_Node000016_Node000022" class="edge">
<title>Node16&#45;&gt;Node22</title>
<g id="a_edge24_Node000016_Node000022"><a xlink:title=" ">
<path fill="none" stroke="#63b8ff" d="M641.71,-192.42C646.3,-189.95 650.61,-186.86 654,-183 693.89,-137.67 654.96,-101.17 690,-52 694.31,-45.96 699.93,-40.59 705.92,-35.94"/>
<polygon fill="#63b8ff" stroke="#63b8ff" points="708.09,-38.7 714.22,-30.06 704.04,-32.99 708.09,-38.7"/>
</a>
</g>
</g>
<!-- Node23 -->
<g id="Node000023" class="node">
<title>Node23</title>
<g id="a_Node000023"><a xlink:href="menu__items_8c.html#ae0fd5923ba70cf6939cd3fa8d09c1191" target="_top" xlink:title=" ">
<polygon fill="white" stroke="#666666" points="790.5,-266.5 699.5,-266.5 699.5,-247.5 790.5,-247.5 790.5,-266.5"/>
<text text-anchor="middle" x="745" y="-254.5" font-family="Helvetica,sans-Serif" font-size="10.00">func_800959F8</text>
</a>
</g>
</g>
<!-- Node16&#45;&gt;Node23 -->
<g id="edge26_Node000016_Node000023" class="edge">
<title>Node16&#45;&gt;Node23</title>
<g id="a_edge26_Node000016_Node000023"><a xlink:title=" ">
<path fill="none" stroke="#63b8ff" d="M629.08,-211.62C645.45,-219.14 669,-229.68 690,-238 695.14,-240.04 700.6,-242.08 705.99,-244.04"/>
<polygon fill="#63b8ff" stroke="#63b8ff" points="704.95,-247.39 715.54,-247.45 707.3,-240.79 704.95,-247.39"/>
</a>
</g>
</g>
<!-- Node25 -->
<g id="Node000025" class="node">
<title>Node25</title>
<g id="a_Node000025"><a xlink:href="stubs_8c.html#a8b417b868747c80d58f83d8a1e78ecf3" target="_top" xlink:title=" ">
<polygon fill="white" stroke="#666666" points="779,-229.5 711,-229.5 711,-210.5 779,-210.5 779,-229.5"/>
<text text-anchor="middle" x="745" y="-217.5" font-family="Helvetica,sans-Serif" font-size="10.00">rmonPrintf</text>
</a>
</g>
</g>
<!-- Node16&#45;&gt;Node25 -->
<g id="edge30_Node000016_Node000025" class="edge">
<title>Node16&#45;&gt;Node25</title>
<g id="a_edge30_Node000016_Node000025"><a xlink:title=" ">
<path fill="none" stroke="#63b8ff" d="M654.37,-208.09C669.2,-210.06 685.6,-212.24 700.26,-214.19"/>
<polygon fill="#63b8ff" stroke="#63b8ff" points="700.22,-217.71 710.59,-215.56 701.14,-210.78 700.22,-217.71"/>
</a>
</g>
</g>
<!-- Node38 -->
<g id="Node000038" class="node">
<title>Node38</title>
<g id="a_Node000038"><a xlink:href="Matrix_8cpp.html#a9818099a1ee20606a7d622e744846366" target="_top" xlink:title=" ">
<polygon fill="white" stroke="#666666" points="787,-134.5 703,-134.5 703,-115.5 787,-115.5 787,-134.5"/>
<text text-anchor="middle" x="745" y="-122.5" font-family="Helvetica,sans-Serif" font-size="10.00">SetTextMatrix</text>
</a>
</g>
</g>
<!-- Node16&#45;&gt;Node38 -->
<g id="edge46_Node000016_Node000038" class="edge">
<title>Node16&#45;&gt;Node38</title>
<g id="a_edge46_Node000016_Node000038"><a xlink:title=" ">
<path fill="none" stroke="#63b8ff" d="M633.9,-192.33C640.55,-189.54 647.64,-186.35 654,-183 678.24,-170.26 704.39,-152.97 722.22,-140.59"/>
<polygon fill="#63b8ff" stroke="#63b8ff" points="724.56,-143.23 730.73,-134.62 720.53,-137.5 724.56,-143.23"/>
</a>
</g>
</g>
<!-- Node18 -->
<g id="Node000018" class="node">
<title>Node18</title>
<g id="a_Node000018"><a xlink:href="FrameInterpolation_8cpp.html#a8cf1f2d6fabc6925aa71a9515341b4aa" target="_top" xlink:title=" ">
<polygon fill="white" stroke="#666666" points="976,-155 836,-155 836,-125 976,-125 976,-155"/>
<text text-anchor="start" x="844" y="-143" font-family="Helvetica,sans-Serif" font-size="10.00">FrameInterpolation</text>
<text text-anchor="middle" x="906" y="-132" font-family="Helvetica,sans-Serif" font-size="10.00">_RecordMatrixMtxFToMtx</text>
</a>
</g>
</g>
<!-- Node17&#45;&gt;Node18 -->
<g id="edge19_Node000017_Node000018" class="edge">
<title>Node17&#45;&gt;Node18</title>
<g id="a_edge19_Node000017_Node000018"><a xlink:title=" ">
<path fill="none" stroke="#63b8ff" d="M781.29,-173.46C798.51,-168.8 819.78,-163.05 839.81,-157.63"/>
<polygon fill="#63b8ff" stroke="#63b8ff" points="840.77,-161 849.51,-155.01 838.94,-154.24 840.77,-161"/>
</a>
</g>
</g>
<!-- Node20 -->
<g id="Node000020" class="node">
<title>Node20</title>
<g id="a_Node000020"><a xlink:href="guMtxF2L_8c.html#a40ab2d64c609839ff1e0ef0de2d0dcc4" target="_top" xlink:title=" ">
<polygon fill="white" stroke="#666666" points="938.5,-192.5 873.5,-192.5 873.5,-173.5 938.5,-173.5 938.5,-192.5"/>
<text text-anchor="middle" x="906" y="-180.5" font-family="Helvetica,sans-Serif" font-size="10.00">guMtxF2L</text>
</a>
</g>
</g>
<!-- Node17&#45;&gt;Node20 -->
<g id="edge21_Node000017_Node000020" class="edge">
<title>Node17&#45;&gt;Node20</title>
<g id="a_edge21_Node000017_Node000020"><a xlink:title=" ">
<path fill="none" stroke="#63b8ff" d="M788.61,-183C811.74,-183 840.23,-183 863.23,-183"/>
<polygon fill="#63b8ff" stroke="#63b8ff" points="863.38,-186.5 873.38,-183 863.38,-179.5 863.38,-186.5"/>
</a>
</g>
</g>
<!-- Node19 -->
<g id="Node000019" class="node">
<title>Node19</title>
<g id="a_Node000019"><a xlink:href="FrameInterpolation_8cpp.html#a02c7ac5342a4d376edee38f312b480bf" target="_top" xlink:title=" ">
<polygon fill="white" stroke="#666666" points="1140.5,-80.5 1032.5,-80.5 1032.5,-61.5 1140.5,-61.5 1140.5,-80.5"/>
<text text-anchor="middle" x="1086.5" y="-68.5" font-family="Helvetica,sans-Serif" font-size="10.00">check_if_recording</text>
</a>
</g>
</g>
<!-- Node18&#45;&gt;Node19 -->
<g id="edge20_Node000018_Node000019" class="edge">
<title>Node18&#45;&gt;Node19</title>
<g id="a_edge20_Node000018_Node000019"><a xlink:title=" ">
<path fill="none" stroke="#63b8ff" d="M951.3,-125C959.54,-122.09 968.05,-119.01 976,-116 1002.33,-106.02 1031.85,-93.83 1053.59,-84.66"/>
<polygon fill="#63b8ff" stroke="#63b8ff" points="1055.15,-87.8 1063,-80.67 1052.42,-81.35 1055.15,-87.8"/>
</a>
</g>
</g>
<!-- Node21&#45;&gt;Node19 -->
<g id="edge23_Node000021_Node000019" class="edge">
<title>Node21&#45;&gt;Node19</title>
<g id="a_edge23_Node000021_Node000019"><a xlink:title=" ">
<path fill="none" stroke="#63b8ff" d="M800.2,-70.4C811.99,-69.4 824.4,-68.51 836,-68 899.36,-65.19 971.86,-66.58 1022.32,-68.28"/>
<polygon fill="#63b8ff" stroke="#63b8ff" points="1022.3,-71.78 1032.42,-68.63 1022.55,-64.78 1022.3,-71.78"/>
</a>
</g>
</g>
<!-- Node22&#45;&gt;Node19 -->
<g id="edge25_Node000022_Node000019" class="edge">
<title>Node22&#45;&gt;Node19</title>
<g id="a_edge25_Node000022_Node000019"><a xlink:title=" ">
<path fill="none" stroke="#63b8ff" d="M800.17,-23.94C860.68,-33.92 958.5,-50.05 1022.41,-60.59"/>
<polygon fill="#63b8ff" stroke="#63b8ff" points="1021.93,-64.06 1032.36,-62.23 1023.06,-57.15 1021.93,-64.06"/>
</a>
</g>
</g>
<!-- Node23&#45;&gt;Node10 -->
<g id="edge27_Node000023_Node000010" class="edge">
<title>Node23&#45;&gt;Node10</title>
<g id="a_edge27_Node000023_Node000010"><a xlink:title=" ">
<path fill="none" stroke="#63b8ff" d="M771.52,-266.53C780.79,-270.45 791.16,-275.4 800,-281 817.84,-292.3 817.37,-302.07 836,-312 840.87,-314.59 846.12,-316.86 851.48,-318.83"/>
<polygon fill="#63b8ff" stroke="#63b8ff" points="850.58,-322.22 861.17,-322.08 852.8,-315.59 850.58,-322.22"/>
</a>
</g>
</g>
<!-- Node24 -->
<g id="Node000024" class="node">
<title>Node24</title>
<g id="a_Node000024"><a xlink:href="GBIMiddleware_8cpp.html#aeef79449a27a710d73576e4a4f7f7f99" target="_top" xlink:title=" ">
<polygon fill="white" stroke="#666666" points="939,-303.5 873,-303.5 873,-284.5 939,-284.5 939,-303.5"/>
<text text-anchor="middle" x="906" y="-291.5" font-family="Helvetica,sans-Serif" font-size="10.00">gSPVertex</text>
</a>
</g>
</g>
<!-- Node23&#45;&gt;Node24 -->
<g id="edge28_Node000023_Node000024" class="edge">
<title>Node23&#45;&gt;Node24</title>
<g id="a_edge28_Node000023_Node000024"><a xlink:title=" ">
<path fill="none" stroke="#63b8ff" d="M786.95,-266.53C810.27,-271.96 839.44,-278.74 862.94,-284.21"/>
<polygon fill="#63b8ff" stroke="#63b8ff" points="862.44,-287.69 872.97,-286.55 864.02,-280.87 862.44,-287.69"/>
</a>
</g>
</g>
<!-- Node24&#45;&gt;Node11 -->
<g id="edge29_Node000024_Node000011" class="edge">
<title>Node24&#45;&gt;Node11</title>
<g id="a_edge29_Node000024_Node000011"><a xlink:title=" ">
<path fill="none" stroke="#63b8ff" d="M939.33,-297.26C956.92,-299.03 979.59,-301.32 1001.8,-303.56"/>
<polygon fill="#63b8ff" stroke="#63b8ff" points="1001.65,-307.06 1011.95,-304.58 1002.35,-300.1 1001.65,-307.06"/>
</a>
</g>
</g>
<!-- Node26 -->
<g id="Node000026" class="node">
<title>Node26</title>
<g id="a_Node000026"><a xlink:href="__Printf_8c.html#a39bb05c90efce6c6790c5d58d271d72d" target="_top" xlink:title=" ">
<polygon fill="white" stroke="#666666" points="930,-266.5 882,-266.5 882,-247.5 930,-247.5 930,-266.5"/>
<text text-anchor="middle" x="906" y="-254.5" font-family="Helvetica,sans-Serif" font-size="10.00">_Printf</text>
</a>
</g>
</g>
<!-- Node25&#45;&gt;Node26 -->
<g id="edge31_Node000025_Node000026" class="edge">
<title>Node25&#45;&gt;Node26</title>
<g id="a_edge31_Node000025_Node000026"><a xlink:title=" ">
<path fill="none" stroke="#63b8ff" d="M779.33,-227.76C806.62,-234.11 845.03,-243.04 872.18,-249.36"/>
<polygon fill="#63b8ff" stroke="#63b8ff" points="871.45,-252.79 881.99,-251.64 873.04,-245.97 871.45,-252.79"/>
</a>
</g>
</g>
<!-- Node37 -->
<g id="Node000037" class="node">
<title>Node37</title>
<g id="a_Node000037"><a xlink:href="is__debug_8c.html#aaccfac8d9098530b6592eefe679d86b4" target="_top" xlink:title=" ">
<polygon fill="white" stroke="#666666" points="958.5,-229.5 853.5,-229.5 853.5,-210.5 958.5,-210.5 958.5,-229.5"/>
<text text-anchor="middle" x="906" y="-217.5" font-family="Helvetica,sans-Serif" font-size="10.00">is_proutSyncPrintf</text>
</a>
</g>
</g>
<!-- Node25&#45;&gt;Node37 -->
<g id="edge45_Node000025_Node000037" class="edge">
<title>Node25&#45;&gt;Node37</title>
<g id="a_edge45_Node000025_Node000037"><a xlink:title=" ">
<path fill="none" stroke="#63b8ff" d="M779.33,-220C797.81,-220 821.37,-220 843.09,-220"/>
<polygon fill="#63b8ff" stroke="#63b8ff" points="843.24,-223.5 853.24,-220 843.24,-216.5 843.24,-223.5"/>
</a>
</g>
</g>
<!-- Node27 -->
<g id="Node000027" class="node">
<title>Node27</title>
<g id="a_Node000027"><a xlink:href="__Printf_8c.html#ad73a5847f2d7c9de14cc2723da86bf45" target="_top" xlink:title=" ">
<polygon fill="white" stroke="#666666" points="1111.5,-284.5 1061.5,-284.5 1061.5,-265.5 1111.5,-265.5 1111.5,-284.5"/>
<text text-anchor="middle" x="1086.5" y="-272.5" font-family="Helvetica,sans-Serif" font-size="10.00">_Putfld</text>
</a>
</g>
</g>
<!-- Node26&#45;&gt;Node27 -->
<g id="edge32_Node000026_Node000027" class="edge">
<title>Node26&#45;&gt;Node27</title>
<g id="a_edge32_Node000026_Node000027"><a xlink:title=" ">
<path fill="none" stroke="#63b8ff" d="M930.34,-259.35C961.08,-262.45 1015.41,-267.93 1050.93,-271.51"/>
<polygon fill="#63b8ff" stroke="#63b8ff" points="1051,-275.04 1061.3,-272.56 1051.7,-268.07 1051,-275.04"/>
</a>
</g>
</g>
<!-- Node36 -->
<g id="Node000036" class="node">
<title>Node36</title>
<g id="a_Node000036"><a xlink:href="string_8c.html#a988b4defe51a1815ef3b9ddab10e7a89" target="_top" xlink:title=" ">
<polygon fill="white" stroke="#666666" points="1108.5,-247.5 1064.5,-247.5 1064.5,-228.5 1108.5,-228.5 1108.5,-247.5"/>
<text text-anchor="middle" x="1086.5" y="-235.5" font-family="Helvetica,sans-Serif" font-size="10.00">strchr</text>
</a>
</g>
</g>
<!-- Node26&#45;&gt;Node36 -->
<g id="edge44_Node000026_Node000036" class="edge">
<title>Node26&#45;&gt;Node36</title>
<g id="a_edge44_Node000026_Node000036"><a xlink:title=" ">
<path fill="none" stroke="#63b8ff" d="M930.34,-254.52C962.02,-251.14 1018.76,-245.1 1054.14,-241.34"/>
<polygon fill="#63b8ff" stroke="#63b8ff" points="1054.81,-244.79 1064.38,-240.25 1054.07,-237.83 1054.81,-244.79"/>
</a>
</g>
</g>
<!-- Node27&#45;&gt;Node12 -->
<g id="edge43_Node000027_Node000012" class="edge">
<title>Node27&#45;&gt;Node12</title>
<g id="a_edge43_Node000027_Node000012"><a xlink:title=" ">
<path fill="none" stroke="#63b8ff" d="M1111.78,-280.5C1126.15,-283.87 1144.69,-288.4 1161,-293 1170.43,-295.66 1180.61,-298.8 1189.84,-301.76"/>
<polygon fill="#63b8ff" stroke="#63b8ff" points="1188.81,-305.11 1199.4,-304.87 1190.97,-298.45 1188.81,-305.11"/>
</a>
</g>
</g>
<!-- Node28 -->
<g id="Node000028" class="node">
<title>Node28</title>
<g id="a_Node000028"><a xlink:href="__Ldtob_8c.html#a7cc858157b66e15c831ad085113729ae" target="_top" xlink:title=" ">
<polygon fill="white" stroke="#666666" points="1246,-190.5 1197,-190.5 1197,-171.5 1246,-171.5 1246,-190.5"/>
<text text-anchor="middle" x="1221.5" y="-178.5" font-family="Helvetica,sans-Serif" font-size="10.00">_Ldtob</text>
</a>
</g>
</g>
<!-- Node27&#45;&gt;Node28 -->
<g id="edge33_Node000027_Node000028" class="edge">
<title>Node27&#45;&gt;Node28</title>
<g id="a_edge33_Node000027_Node000028"><a xlink:title=" ">
<path fill="none" stroke="#63b8ff" d="M1111.58,-272.73C1126.75,-270.38 1146.19,-265.63 1161,-256 1182.78,-241.84 1200.15,-217.01 1210.37,-199.82"/>
<polygon fill="#63b8ff" stroke="#63b8ff" points="1213.64,-201.14 1215.54,-190.72 1207.56,-197.68 1213.64,-201.14"/>
</a>
</g>
</g>
<!-- Node34 -->
<g id="Node000034" class="node">
<title>Node34</title>
<g id="a_Node000034"><a xlink:href="__Litob_8c.html#aaaba3b0ab7920d422a61fe9e22600dd0" target="_top" xlink:title=" ">
<polygon fill="white" stroke="#666666" points="1244.5,-284.5 1198.5,-284.5 1198.5,-265.5 1244.5,-265.5 1244.5,-284.5"/>
<text text-anchor="middle" x="1221.5" y="-272.5" font-family="Helvetica,sans-Serif" font-size="10.00">_Litob</text>
</a>
</g>
</g>
<!-- Node27&#45;&gt;Node34 -->
<g id="edge40_Node000027_Node000034" class="edge">
<title>Node27&#45;&gt;Node34</title>
<g id="a_edge40_Node000027_Node000034"><a xlink:title=" ">
<path fill="none" stroke="#63b8ff" d="M1111.59,-275C1133.01,-275 1164.51,-275 1188.13,-275"/>
<polygon fill="#63b8ff" stroke="#63b8ff" points="1188.36,-278.5 1198.36,-275 1188.36,-271.5 1188.36,-278.5"/>
</a>
</g>
</g>
<!-- Node29 -->
<g id="Node000029" class="node">
<title>Node29</title>
<g id="a_Node000029"><a xlink:href="__Ldtob_8c.html#a2b6c5318b43bab1636bad9113ffb2761" target="_top" xlink:title=" ">
<polygon fill="white" stroke="#666666" points="1342.5,-208.5 1292.5,-208.5 1292.5,-189.5 1342.5,-189.5 1342.5,-208.5"/>
<text text-anchor="middle" x="1317.5" y="-196.5" font-family="Helvetica,sans-Serif" font-size="10.00">_Genld</text>
</a>
</g>
</g>
<!-- Node28&#45;&gt;Node29 -->
<g id="edge34_Node000028_Node000029" class="edge">
<title>Node28&#45;&gt;Node29</title>
<g id="a_edge34_Node000028_Node000029"><a xlink:title=" ">
<path fill="none" stroke="#63b8ff" d="M1246.22,-185.54C1257.16,-187.64 1270.34,-190.16 1282.33,-192.46"/>
<polygon fill="#63b8ff" stroke="#63b8ff" points="1281.98,-195.95 1292.46,-194.4 1283.3,-189.08 1281.98,-195.95"/>
</a>
</g>
</g>
<!-- Node30 -->
<g id="Node000030" class="node">
<title>Node30</title>
<g id="a_Node000030"><a xlink:href="string_8c.html#ad7f1ae1bbb49dece44bda378982a704d" target="_top" xlink:title=" ">
<polygon fill="white" stroke="#666666" points="1448,-246.5 1389,-246.5 1389,-227.5 1448,-227.5 1448,-246.5"/>
<text text-anchor="middle" x="1418.5" y="-234.5" font-family="Helvetica,sans-Serif" font-size="10.00">memcpy</text>
</a>
</g>
</g>
<!-- Node28&#45;&gt;Node30 -->
<g id="edge38_Node000028_Node000030" class="edge">
<title>Node28&#45;&gt;Node30</title>
<g id="a_edge38_Node000028_Node000030"><a xlink:title=" ">
<path fill="none" stroke="#63b8ff" d="M1234.98,-190.59C1246.53,-198.96 1264.5,-210.71 1282,-217 1313.45,-228.31 1351.21,-233.23 1378.87,-235.37"/>
<polygon fill="#63b8ff" stroke="#63b8ff" points="1378.72,-238.87 1388.94,-236.06 1379.2,-231.88 1378.72,-238.87"/>
</a>
</g>
</g>
<!-- Node31 -->
<g id="Node000031" class="node">
<title>Node31</title>
<g id="a_Node000031"><a xlink:href="__Ldtob_8c.html#ab7ade9ce60aaa8baa0244b503351d742" target="_top" xlink:title=" ">
<polygon fill="white" stroke="#666666" points="1353,-171.5 1282,-171.5 1282,-152.5 1353,-152.5 1353,-171.5"/>
<text text-anchor="middle" x="1317.5" y="-159.5" font-family="Helvetica,sans-Serif" font-size="10.00">_Ldunscale</text>
</a>
</g>
</g>
<!-- Node28&#45;&gt;Node31 -->
<g id="edge36_Node000028_Node000031" class="edge">
<title>Node28&#45;&gt;Node31</title>
<g id="a_edge36_Node000028_Node000031"><a xlink:title=" ">
<path fill="none" stroke="#63b8ff" d="M1246.22,-176.21C1254.04,-174.62 1263.02,-172.81 1271.88,-171.02"/>
<polygon fill="#63b8ff" stroke="#63b8ff" points="1272.66,-174.43 1281.77,-169.02 1271.28,-167.57 1272.66,-174.43"/>
</a>
</g>
</g>
<!-- Node32 -->
<g id="Node000032" class="node">
<title>Node32</title>
<g id="a_Node000032"><a xlink:href="ldiv_8c.html#a0302920caf64a5fbe1ce0862799d7784" target="_top" xlink:title=" ">
<polygon fill="white" stroke="#666666" points="1335,-134.5 1300,-134.5 1300,-115.5 1335,-115.5 1335,-134.5"/>
<text text-anchor="middle" x="1317.5" y="-122.5" font-family="Helvetica,sans-Serif" font-size="10.00">ldiv</text>
</a>
</g>
</g>
<!-- Node28&#45;&gt;Node32 -->
<g id="edge37_Node000028_Node000032" class="edge">
<title>Node28&#45;&gt;Node32</title>
<g id="a_edge37_Node000028_Node000032"><a xlink:title=" ">
<path fill="none" stroke="#63b8ff" d="M1236.95,-171.27C1248.87,-163.37 1266.3,-152.09 1282,-143 1284.87,-141.34 1287.9,-139.66 1290.93,-138.02"/>
<polygon fill="#63b8ff" stroke="#63b8ff" points="1292.63,-141.08 1299.84,-133.32 1289.37,-134.89 1292.63,-141.08"/>
</a>
</g>
</g>
<!-- Node33 -->
<g id="Node000033" class="node">
<title>Node33</title>
<g id="a_Node000033"><a xlink:href="alBnkfNew_8c.html#a96a0200a6b40350e524f536d232ecb53" target="_top" xlink:title=" ">
<polygon fill="white" stroke="#666666" points="1343.5,-97.5 1291.5,-97.5 1291.5,-78.5 1343.5,-78.5 1343.5,-97.5"/>
<text text-anchor="middle" x="1317.5" y="-85.5" font-family="Helvetica,sans-Serif" font-size="10.00">unused</text>
</a>
</g>
</g>
<!-- Node28&#45;&gt;Node33 -->
<g id="edge39_Node000028_Node000033" class="edge">
<title>Node28&#45;&gt;Node33</title>
<g id="a_edge39_Node000028_Node000033"><a xlink:title=" ">
<path fill="none" stroke="#63b8ff" d="M1228.38,-171.16C1238,-155.7 1258.42,-125.48 1282,-106 1283.32,-104.91 1284.73,-103.85 1286.18,-102.84"/>
<polygon fill="#63b8ff" stroke="#63b8ff" points="1288.13,-105.74 1294.83,-97.53 1284.47,-99.78 1288.13,-105.74"/>
</a>
</g>
</g>
<!-- Node29&#45;&gt;Node30 -->
<g id="edge35_Node000029_Node000030" class="edge">
<title>Node29&#45;&gt;Node30</title>
<g id="a_edge35_Node000029_Node000030"><a xlink:title=" ">
<path fill="none" stroke="#63b8ff" d="M1342.72,-208.3C1354.88,-212.96 1369.82,-218.7 1383.15,-223.81"/>
<polygon fill="#63b8ff" stroke="#63b8ff" points="1381.91,-227.09 1392.5,-227.4 1384.42,-220.55 1381.91,-227.09"/>
</a>
</g>
</g>
<!-- Node34&#45;&gt;Node30 -->
<g id="edge42_Node000034_Node000030" class="edge">
<title>Node34&#45;&gt;Node30</title>
<g id="a_edge42_Node000034_Node000030"><a xlink:title=" ">
<path fill="none" stroke="#63b8ff" d="M1244.71,-271.14C1270.71,-266.56 1315.05,-258.61 1353,-251 1361.48,-249.3 1370.56,-247.39 1379.16,-245.53"/>
<polygon fill="#63b8ff" stroke="#63b8ff" points="1379.94,-248.95 1388.96,-243.4 1378.45,-242.11 1379.94,-248.95"/>
</a>
</g>
</g>
<!-- Node35 -->
<g id="Node000035" class="node">
<title>Node35</title>
<g id="a_Node000035"><a xlink:href="ldiv_8c.html#a5b23c3639f11980dca762c5f1d74f339" target="_top" xlink:title=" ">
<polygon fill="white" stroke="#666666" points="1336.5,-322.5 1298.5,-322.5 1298.5,-303.5 1336.5,-303.5 1336.5,-322.5"/>
<text text-anchor="middle" x="1317.5" y="-310.5" font-family="Helvetica,sans-Serif" font-size="10.00">lldiv</text>
</a>
</g>
</g>
<!-- Node34&#45;&gt;Node35 -->
<g id="edge41_Node000034_Node000035" class="edge">
<title>Node34&#45;&gt;Node35</title>
<g id="a_edge41_Node000034_Node000035"><a xlink:title=" ">
<path fill="none" stroke="#63b8ff" d="M1244.78,-284.01C1257.97,-289.34 1274.8,-296.14 1288.84,-301.82"/>
<polygon fill="#63b8ff" stroke="#63b8ff" points="1287.89,-305.21 1298.47,-305.71 1290.52,-298.72 1287.89,-305.21"/>
</a>
</g>
</g>
<!-- Node38&#45;&gt;Node38 -->
<g id="edge49_Node000038_Node000038" class="edge">
<title>Node38&#45;&gt;Node38</title>
<g id="a_edge49_Node000038_Node000038"><a xlink:title=" ">
<path fill="none" stroke="#63b8ff" d="M724.04,-134.58C713.84,-143.23 720.83,-152.5 745,-152.5 760.49,-152.5 768.92,-148.7 770.3,-143.69"/>
<polygon fill="#63b8ff" stroke="#63b8ff" points="773.42,-142.11 765.96,-134.58 767.1,-145.12 773.42,-142.11"/>
</a>
</g>
</g>
<!-- Node39 -->
<g id="Node000039" class="node">
<title>Node39</title>
<g id="a_Node000039"><a xlink:href="FrameInterpolation_8cpp.html#a5fbd67ef553452903cf553b9c224fa76" target="_top" xlink:title=" ">
<polygon fill="white" stroke="#666666" points="970,-107 842,-107 842,-77 970,-77 970,-107"/>
<text text-anchor="start" x="850" y="-95" font-family="Helvetica,sans-Serif" font-size="10.00">FrameInterpolation</text>
<text text-anchor="middle" x="906" y="-84" font-family="Helvetica,sans-Serif" font-size="10.00">_Record_SetTextMatrix</text>
</a>
</g>
</g>
<!-- Node38&#45;&gt;Node39 -->
<g id="edge47_Node000038_Node000039" class="edge">
<title>Node38&#45;&gt;Node39</title>
<g id="a_edge47_Node000038_Node000039"><a xlink:title=" ">
<path fill="none" stroke="#63b8ff" d="M787.36,-116.42C801.02,-113.58 816.65,-110.34 831.96,-107.16"/>
<polygon fill="#63b8ff" stroke="#63b8ff" points="832.87,-110.54 841.95,-105.09 831.45,-103.69 832.87,-110.54"/>
</a>
</g>
</g>
<!-- Node39&#45;&gt;Node19 -->
<g id="edge48_Node000039_Node000019" class="edge">
<title>Node39&#45;&gt;Node19</title>
<g id="a_edge48_Node000039_Node000019"><a xlink:title=" ">
<path fill="none" stroke="#63b8ff" d="M970.18,-84.57C987.04,-82.58 1005.26,-80.44 1022.13,-78.45"/>
<polygon fill="#63b8ff" stroke="#63b8ff" points="1022.92,-81.89 1032.44,-77.24 1022.1,-74.94 1022.92,-81.89"/>
</a>
</g>
</g>
</g>
</svg>

<g id="navigator" transform="translate(0 0)" fill="#404254">
  <rect fill="#f2f5e9" fill-opacity="0.5" stroke="#606060" stroke-width=".5" x="0" y="0" width="60" height="60"/>
  <use id="zoomplus" xlink:href="#zoomPlus" x="17" y="9" onmousedown="handleZoom(evt,'in')"/>
  <use id="zoomminus" xlink:href="#zoomMin" x="42" y="9" onmousedown="handleZoom(evt,'out')"/>
  <use id="reset" xlink:href="#resetDef" x="30" y="36" onmousedown="handleReset()"/>
   <use id="arrowup" xlink:href="#arrowUp" x="0" y="0" onmousedown="handlePan(0,-1)"/>
  <use id="arrowright" xlink:href="#arrowRight" x="0" y="0" onmousedown="handlePan(1,0)"/>
  <use id="arrowdown" xlink:href="#arrowDown" x="0" y="0" onmousedown="handlePan(0,1)"/>
  <use id="arrowleft" xlink:href="#arrowLeft" x="0" y="0" onmousedown="handlePan(-1,0)"/>
</g>
<svg viewBox="0 0 15 15" width="100%" height="30px" preserveAspectRatio="xMaxYMin meet">
 <g id="arrow_out" transform="scale(0.3 0.3)">
  <a xlink:href="menu__items_8c_aee53db28cbf778bb50dbde395147d08a_cgraph_org.svg" target="_base">
   <rect id="button" ry="5" rx="5" y="6" x="6" height="38" width="38"
        fill="#f2f5e9" fill-opacity="0.5" stroke="#606060" stroke-width="1.0"/>
   <path id="arrow"
     d="M 11.500037,31.436501 C 11.940474,20.09759 22.043105,11.32322 32.158766,21.979434 L 37.068811,17.246167 C 37.068811,17.246167 37.088388,32 37.088388,32 L 22.160133,31.978069 C 22.160133,31.978069 26.997745,27.140456 26.997745,27.140456 C 18.528582,18.264221 13.291696,25.230495 11.500037,31.436501 z"
     style="fill:#404040;"/>
  </a>
 </g>
</svg>

<style type='text/css'>
<![CDATA[
[data-mouse-over-selected='false'] { opacity: 0.7; }
[data-mouse-over-selected='true']  { opacity: 1.0; }
]]>
</style>
<script type="application/ecmascript"><![CDATA[
document.addEventListener('DOMContentLoaded', (event) => {
  highlightEdges();
  highlightAdjacentNodes();
});
]]></script>
</svg>
