<?xml version="1.0" encoding="UTF-8" standalone="no"?>
<!DOCTYPE svg PUBLIC "-//W3C//DTD SVG 1.1//EN"
 "http://www.w3.org/Graphics/SVG/1.1/DTD/svg11.dtd">
<!-- Generated by graphviz version 2.43.0 (0)
 -->
<!-- Title: render_menu_item_data_course_image Pages: 1 -->
<!--zoomable 495 -->

<svg id="main" version="1.1" xmlns="http://www.w3.org/2000/svg" xmlns:xlink="http://www.w3.org/1999/xlink" xml:space="preserve" onload="init(evt)">

<style type="text/css"><![CDATA[
.node, .edge {opacity: 0.7;}
.node.selected, .edge.selected {opacity: 1;}
.edge:hover path { stroke: red; }
.edge:hover polygon { stroke: red; fill: red; }
]]></style>

<defs>
  <circle id="rim" cx="0" cy="0" r="7"/>
  <circle id="rim2" cx="0" cy="0" r="3.5"/>
  <g id="zoomPlus">
    <use xlink:href="#rim" fill="#404040"><set attributeName="fill" to="#808080" begin="zoomplus.mouseover" end="zoomplus.mouseout"/></use>
    <path d="M-4,0h8M0,-4v8" fill="none" stroke="white" stroke-width="1.5" pointer-events="none"/>
  </g>
  <g id="zoomMin">
    <use xlink:href="#rim" fill="#404040"><set attributeName="fill" to="#808080" begin="zoomminus.mouseover" end="zoomminus.mouseout"/></use>
    <path d="M-4,0h8" fill="none" stroke="white" stroke-width="1.5" pointer-events="none"/>
  </g>
  <g id="arrowUp" transform="translate(30 24)">
    <use xlink:href="#rim"/>
    <path pointer-events="none" fill="none" stroke="white" stroke-width="1.5" d="M0,-3.0v7 M-2.5,-0.5L0,-3.0L2.5,-0.5"/>
  </g>
  <g id="arrowRight" transform="rotate(90) translate(36 -43)">
    <use xlink:href="#rim"/>
    <path pointer-events="none" fill="none" stroke="white" stroke-width="1.5" d="M0,-3.0v7 M-2.5,-0.5L0,-3.0L2.5,-0.5"/>
  </g>
  <g id="arrowDown" transform="rotate(180) translate(-30 -48)">
    <use xlink:href="#rim"/>
    <path pointer-events="none" fill="none" stroke="white" stroke-width="1.5" d="M0,-3.0v7 M-2.5,-0.5L0,-3.0L2.5,-0.5"/>
  </g>
  <g id="arrowLeft" transform="rotate(270) translate(-36 17)">
    <use xlink:href="#rim"/>
    <path pointer-events="none" fill="none" stroke="white" stroke-width="1.5" d="M0,-3.0v7 M-2.5,-0.5L0,-3.0L2.5,-0.5"/>
  </g>
  <g id="resetDef">
    <use xlink:href="#rim2" fill="#404040"><set attributeName="fill" to="#808080" begin="reset.mouseover" end="reset.mouseout"/></use>
  </g>
</defs>
<script type="application/ecmascript">
var viewWidth = 1355;
var viewHeight = 495;
var sectionId = 'dynsection-413';
</script>
<script type="application/ecmascript" xlink:href="svg.min.js"/>
<svg id="graph" class="graph">
<g id="viewport">
<title>render_menu_item_data_course_image</title>
<!-- Node1 -->
<g id="Node000001" class="node">
<title>Node1</title>
<g id="a_Node000001"><a xlink:title=" ">
<polygon fill="#999999" stroke="#666666" points="136,-305.5 0,-305.5 0,-275.5 136,-275.5 136,-305.5"/>
<text text-anchor="start" x="8" y="-293.5" font-family="Helvetica,sans-Serif" font-size="10.00">render_menu_item_data</text>
<text text-anchor="middle" x="68" y="-282.5" font-family="Helvetica,sans-Serif" font-size="10.00">_course_image</text>
</a>
</g>
</g>
<!-- Node2 -->
<g id="Node000002" class="node">
<title>Node2</title>
<g id="a_Node000002"><a xlink:href="menu__items_8c.html#aef2159f78becc266e9520a474b83a3ef" target="_top" xlink:title=" ">
<polygon fill="white" stroke="#666666" points="331,-431 172,-431 172,-412 331,-412 331,-431"/>
<text text-anchor="middle" x="251.5" y="-419" font-family="Helvetica,sans-Serif" font-size="10.00">draw_flash_select_case_slow</text>
</a>
</g>
</g>
<!-- Node1&#45;&gt;Node2 -->
<g id="edge1_Node000001_Node000002" class="edge">
<title>Node1&#45;&gt;Node2</title>
<g id="a_edge1_Node000001_Node000002"><a xlink:title=" ">
<path fill="none" stroke="#63b8ff" d="M82.45,-305.58C101.04,-325.77 136.36,-361.77 172,-385.5 185.28,-394.35 201.09,-402.06 215.03,-408.05"/>
<polygon fill="#63b8ff" stroke="#63b8ff" points="213.75,-411.31 224.32,-411.92 216.43,-404.85 213.75,-411.31"/>
</a>
</g>
</g>
<!-- Node9 -->
<g id="Node000009" class="node">
<title>Node9</title>
<g id="a_Node000009"><a xlink:href="render__objects_8c.html#aa192f4b314faad1c8a4f27ee3152ebe6" target="_top" xlink:title=" ">
<polygon fill="white" stroke="#666666" points="297.5,-376 205.5,-376 205.5,-357 297.5,-357 297.5,-376"/>
<text text-anchor="middle" x="251.5" y="-364" font-family="Helvetica,sans-Serif" font-size="10.00">func_8004EF9C</text>
</a>
</g>
</g>
<!-- Node1&#45;&gt;Node9 -->
<g id="edge8_Node000001_Node000009" class="edge">
<title>Node1&#45;&gt;Node9</title>
<g id="a_edge8_Node000001_Node000009"><a xlink:title=" ">
<path fill="none" stroke="#63b8ff" d="M104.86,-305.52C137.91,-319.35 186.52,-339.71 218.34,-353.03"/>
<polygon fill="#63b8ff" stroke="#63b8ff" points="217.06,-356.29 227.64,-356.93 219.77,-349.84 217.06,-356.29"/>
</a>
</g>
</g>
<!-- Node20 -->
<g id="Node000020" class="node">
<title>Node20</title>
<g id="a_Node000020"><a xlink:href="menu__items_8c.html#a95b3021d5115ba9961b35c05cac3cd51" target="_top" xlink:title=" ">
<polygon fill="white" stroke="#666666" points="297.5,-300 205.5,-300 205.5,-281 297.5,-281 297.5,-300"/>
<text text-anchor="middle" x="251.5" y="-288" font-family="Helvetica,sans-Serif" font-size="10.00">func_8009A76C</text>
</a>
</g>
</g>
<!-- Node1&#45;&gt;Node20 -->
<g id="edge21_Node000001_Node000020" class="edge">
<title>Node1&#45;&gt;Node20</title>
<g id="a_edge21_Node000001_Node000020"><a xlink:title=" ">
<path fill="none" stroke="#63b8ff" d="M136.07,-290.5C155.58,-290.5 176.66,-290.5 195.35,-290.5"/>
<polygon fill="#63b8ff" stroke="#63b8ff" points="195.46,-294 205.46,-290.5 195.46,-287 195.46,-294"/>
</a>
</g>
</g>
<!-- Node27 -->
<g id="Node000027" class="node">
<title>Node27</title>
<g id="a_Node000027"><a xlink:href="save_8c.html#ad91a6d803924eb1d07dd9ccac9caa5fc" target="_top" xlink:title=" ">
<polygon fill="white" stroke="#666666" points="297.5,-263 205.5,-263 205.5,-244 297.5,-244 297.5,-263"/>
<text text-anchor="middle" x="251.5" y="-251" font-family="Helvetica,sans-Serif" font-size="10.00">func_800B639C</text>
</a>
</g>
</g>
<!-- Node1&#45;&gt;Node27 -->
<g id="edge29_Node000001_Node000027" class="edge">
<title>Node1&#45;&gt;Node27</title>
<g id="a_edge29_Node000001_Node000027"><a xlink:title=" ">
<path fill="none" stroke="#63b8ff" d="M136.07,-276.83C155.67,-272.83 176.86,-268.51 195.61,-264.69"/>
<polygon fill="#63b8ff" stroke="#63b8ff" points="196.36,-268.11 205.46,-262.68 194.96,-261.25 196.36,-268.11"/>
</a>
</g>
</g>
<!-- Node28 -->
<g id="Node000028" class="node">
<title>Node28</title>
<g id="a_Node000028"><a xlink:href="menu__items_8c.html#a6ae9a7914726211a0149ff3ff8c2d70d" target="_top" xlink:title=" ">
<polygon fill="white" stroke="#666666" points="496,-112 369,-112 369,-93 496,-93 496,-112"/>
<text text-anchor="middle" x="432.5" y="-100" font-family="Helvetica,sans-Serif" font-size="10.00">render_menu_textures</text>
</a>
</g>
</g>
<!-- Node1&#45;&gt;Node28 -->
<g id="edge30_Node000001_Node000028" class="edge">
<title>Node1&#45;&gt;Node28</title>
<g id="a_edge30_Node000001_Node000028"><a xlink:title=" ">
<path fill="none" stroke="#63b8ff" d="M96.43,-275.32C117.12,-263.94 146.24,-248.05 172,-234.5 255.49,-190.58 355.18,-140.54 403.06,-116.65"/>
<polygon fill="#63b8ff" stroke="#63b8ff" points="404.81,-119.68 412.2,-112.09 401.69,-113.42 404.81,-119.68"/>
</a>
</g>
</g>
<!-- Node3 -->
<g id="Node000003" class="node">
<title>Node3</title>
<g id="a_Node000003"><a xlink:href="menu__items_8c.html#a780c45c1d76dfbecd6464fbc545a9936" target="_top" xlink:title=" ">
<polygon fill="white" stroke="#666666" points="498,-468 367,-468 367,-449 498,-449 498,-468"/>
<text text-anchor="middle" x="432.5" y="-456" font-family="Helvetica,sans-Serif" font-size="10.00">draw_flash_select_case</text>
</a>
</g>
</g>
<!-- Node2&#45;&gt;Node3 -->
<g id="edge2_Node000002_Node000003" class="edge">
<title>Node2&#45;&gt;Node3</title>
<g id="a_edge2_Node000002_Node000003"><a xlink:title=" ">
<path fill="none" stroke="#63b8ff" d="M298.6,-431.03C322,-435.86 350.62,-441.78 375.3,-446.88"/>
<polygon fill="#63b8ff" stroke="#63b8ff" points="374.75,-450.34 385.25,-448.94 376.16,-443.49 374.75,-450.34"/>
</a>
</g>
</g>
<!-- Node4 -->
<g id="Node000004" class="node">
<title>Node4</title>
<g id="a_Node000004"><a xlink:href="menu__items_8c.html#ada97fbf304c29275c91520ae4e904504" target="_top" xlink:title=" ">
<polygon fill="white" stroke="#666666" points="635,-487 554,-487 554,-468 635,-468 635,-487"/>
<text text-anchor="middle" x="594.5" y="-475" font-family="Helvetica,sans-Serif" font-size="10.00">draw_box_fill</text>
</a>
</g>
</g>
<!-- Node3&#45;&gt;Node4 -->
<g id="edge3_Node000003_Node000004" class="edge">
<title>Node3&#45;&gt;Node4</title>
<g id="a_edge3_Node000003_Node000004"><a xlink:title=" ">
<path fill="none" stroke="#63b8ff" d="M498.12,-466.17C513.33,-467.98 529.32,-469.88 543.76,-471.59"/>
<polygon fill="#63b8ff" stroke="#63b8ff" points="543.63,-475.1 553.97,-472.81 544.45,-468.15 543.63,-475.1"/>
</a>
</g>
</g>
<!-- Node5 -->
<g id="Node000005" class="node">
<title>Node5</title>
<g id="a_Node000005"><a xlink:href="GBIMiddleware_8cpp.html#a4ecc44e3c6f1ca5a6b4a20c41d3bd2d2" target="_top" xlink:title=" ">
<polygon fill="white" stroke="#666666" points="819.5,-263 730.5,-263 730.5,-244 819.5,-244 819.5,-263"/>
<text text-anchor="middle" x="775" y="-251" font-family="Helvetica,sans-Serif" font-size="10.00">gSPDisplayList</text>
</a>
</g>
</g>
<!-- Node4&#45;&gt;Node5 -->
<g id="edge4_Node000004_Node000005" class="edge">
<title>Node4&#45;&gt;Node5</title>
<g id="a_edge4_Node000004_Node000005"><a xlink:title=" ">
<path fill="none" stroke="#63b8ff" d="M635.02,-470.12C642.15,-467.57 649.16,-464.13 655,-459.5 688.02,-433.32 744.01,-317.98 765.37,-272.26"/>
<polygon fill="#63b8ff" stroke="#63b8ff" points="768.56,-273.7 769.6,-263.15 762.21,-270.75 768.56,-273.7"/>
</a>
</g>
</g>
<!-- Node8 -->
<g id="Node000008" class="node">
<title>Node8</title>
<g id="a_Node000008"><a xlink:href="menu__items_8c.html#a2341569d8bfc9b8aac7d5dab7933c999" target="_top" xlink:title=" ">
<polygon fill="white" stroke="#666666" points="815,-487 735,-487 735,-468 815,-468 815,-487"/>
<text text-anchor="middle" x="775" y="-475" font-family="Helvetica,sans-Serif" font-size="10.00">swap_values</text>
</a>
</g>
</g>
<!-- Node4&#45;&gt;Node8 -->
<g id="edge7_Node000004_Node000008" class="edge">
<title>Node4&#45;&gt;Node8</title>
<g id="a_edge7_Node000004_Node000008"><a xlink:title=" ">
<path fill="none" stroke="#63b8ff" d="M635.11,-477.5C661.55,-477.5 696.51,-477.5 724.74,-477.5"/>
<polygon fill="#63b8ff" stroke="#63b8ff" points="724.8,-481 734.8,-477.5 724.8,-474 724.8,-481"/>
</a>
</g>
</g>
<!-- Node6 -->
<g id="Node000006" class="node">
<title>Node6</title>
<g id="a_Node000006"><a xlink:href="Engine_8cpp.html#a223c8bc63f228dc11177515e38eff2db" target="_top" xlink:title=" ">
<polygon fill="white" stroke="#666666" points="1060,-263 911,-263 911,-244 1060,-244 1060,-263"/>
<text text-anchor="middle" x="985.5" y="-251" font-family="Helvetica,sans-Serif" font-size="10.00">GameEngine_OTRSigCheck</text>
</a>
</g>
</g>
<!-- Node5&#45;&gt;Node6 -->
<g id="edge5_Node000005_Node000006" class="edge">
<title>Node5&#45;&gt;Node6</title>
<g id="a_edge5_Node000005_Node000006"><a xlink:title=" ">
<path fill="none" stroke="#63b8ff" d="M819.71,-253.5C843.21,-253.5 873,-253.5 900.76,-253.5"/>
<polygon fill="#63b8ff" stroke="#63b8ff" points="900.89,-257 910.89,-253.5 900.89,-250 900.89,-257"/>
</a>
</g>
</g>
<!-- Node7 -->
<g id="Node000007" class="node">
<title>Node7</title>
<g id="a_Node000007"><a xlink:href="string_8c.html#a008e171a518fe0e0352f31b245e03875" target="_top" xlink:title=" ">
<polygon fill="white" stroke="#666666" points="1190.5,-263 1146.5,-263 1146.5,-244 1190.5,-244 1190.5,-263"/>
<text text-anchor="middle" x="1168.5" y="-251" font-family="Helvetica,sans-Serif" font-size="10.00">strlen</text>
</a>
</g>
</g>
<!-- Node6&#45;&gt;Node7 -->
<g id="edge6_Node000006_Node000007" class="edge">
<title>Node6&#45;&gt;Node7</title>
<g id="a_edge6_Node000006_Node000007"><a xlink:title=" ">
<path fill="none" stroke="#63b8ff" d="M1060.12,-253.5C1086.62,-253.5 1115.13,-253.5 1136.11,-253.5"/>
<polygon fill="#63b8ff" stroke="#63b8ff" points="1136.34,-257 1146.34,-253.5 1136.34,-250 1136.34,-257"/>
</a>
</g>
</g>
<!-- Node10 -->
<g id="Node000010" class="node">
<title>Node10</title>
<g id="a_Node000010"><a xlink:href="Game_8cpp.html#ace0c58b4f4721f02388f5b026e30376d" target="_top" xlink:title=" ">
<polygon fill="white" stroke="#666666" points="490.5,-413 374.5,-413 374.5,-394 490.5,-394 490.5,-413"/>
<text text-anchor="middle" x="432.5" y="-401" font-family="Helvetica,sans-Serif" font-size="10.00">CM_GetPropsTrackId</text>
</a>
</g>
</g>
<!-- Node9&#45;&gt;Node10 -->
<g id="edge9_Node000009_Node000010" class="edge">
<title>Node9&#45;&gt;Node10</title>
<g id="a_edge9_Node000009_Node000010"><a xlink:title=" ">
<path fill="none" stroke="#63b8ff" d="M297.67,-375.84C321.25,-380.71 350.31,-386.72 375.33,-391.89"/>
<polygon fill="#63b8ff" stroke="#63b8ff" points="374.91,-395.38 385.41,-393.97 376.33,-388.52 374.91,-395.38"/>
</a>
</g>
</g>
<!-- Node11 -->
<g id="Node000011" class="node">
<title>Node11</title>
<g id="a_Node000011"><a xlink:href="render__objects_8c.html#ad69f6c31e8ec405650c6aebe1fea30f7" target="_top" xlink:title=" ">
<polygon fill="white" stroke="#666666" points="479,-376 386,-376 386,-357 479,-357 479,-376"/>
<text text-anchor="middle" x="432.5" y="-364" font-family="Helvetica,sans-Serif" font-size="10.00">func_8004D37C</text>
</a>
</g>
</g>
<!-- Node9&#45;&gt;Node11 -->
<g id="edge10_Node000009_Node000011" class="edge">
<title>Node9&#45;&gt;Node11</title>
<g id="a_edge10_Node000009_Node000011"><a xlink:title=" ">
<path fill="none" stroke="#63b8ff" d="M297.67,-366.5C321.34,-366.5 350.54,-366.5 375.62,-366.5"/>
<polygon fill="#63b8ff" stroke="#63b8ff" points="375.72,-370 385.72,-366.5 375.72,-363 375.72,-370"/>
</a>
</g>
</g>
<!-- Node11&#45;&gt;Node5 -->
<g id="edge20_Node000011_Node000005" class="edge">
<title>Node11&#45;&gt;Node5</title>
<g id="a_edge20_Node000011_Node000005"><a xlink:title=" ">
<path fill="none" stroke="#63b8ff" d="M479.22,-357.37C524.54,-347.71 595.6,-330.9 655,-309.5 687.66,-297.73 723.51,-280.19 747.23,-267.88"/>
<polygon fill="#63b8ff" stroke="#63b8ff" points="749.07,-270.86 756.3,-263.12 745.82,-264.67 749.07,-270.86"/>
</a>
</g>
</g>
<!-- Node12 -->
<g id="Node000012" class="node">
<title>Node12</title>
<g id="a_Node000012"><a xlink:href="render__objects_8c.html#a81be2b87d808633d8fe563c777fe1b0c" target="_top" xlink:title=" ">
<polygon fill="white" stroke="#666666" points="640,-413 549,-413 549,-394 640,-394 640,-413"/>
<text text-anchor="middle" x="594.5" y="-401" font-family="Helvetica,sans-Serif" font-size="10.00">func_80044F34</text>
</a>
</g>
</g>
<!-- Node11&#45;&gt;Node12 -->
<g id="edge11_Node000011_Node000012" class="edge">
<title>Node11&#45;&gt;Node12</title>
<g id="a_edge11_Node000011_Node000012"><a xlink:title=" ">
<path fill="none" stroke="#63b8ff" d="M474.7,-376.03C495.34,-380.8 520.52,-386.62 542.38,-391.68"/>
<polygon fill="#63b8ff" stroke="#63b8ff" points="541.63,-395.1 552.16,-393.94 543.2,-388.28 541.63,-395.1"/>
</a>
</g>
</g>
<!-- Node13 -->
<g id="Node000013" class="node">
<title>Node13</title>
<g id="a_Node000013"><a xlink:href="render__objects_8c.html#a9ea20c14c263ed864d8e02d082b6b18b" target="_top" xlink:title=" ">
<polygon fill="white" stroke="#666666" points="640.5,-376 548.5,-376 548.5,-357 640.5,-357 640.5,-376"/>
<text text-anchor="middle" x="594.5" y="-364" font-family="Helvetica,sans-Serif" font-size="10.00">func_8004B414</text>
</a>
</g>
</g>
<!-- Node11&#45;&gt;Node13 -->
<g id="edge12_Node000011_Node000013" class="edge">
<title>Node11&#45;&gt;Node13</title>
<g id="a_edge12_Node000011_Node000013"><a xlink:title=" ">
<path fill="none" stroke="#63b8ff" d="M479.35,-366.5C497.74,-366.5 519.1,-366.5 538.34,-366.5"/>
<polygon fill="#63b8ff" stroke="#63b8ff" points="538.47,-370 548.47,-366.5 538.47,-363 538.47,-370"/>
</a>
</g>
</g>
<!-- Node14 -->
<g id="Node000014" class="node">
<title>Node14</title>
<g id="a_Node000014"><a xlink:href="render__objects_8c.html#a95c5979766642960ae786fefaf80953c" target="_top" xlink:title=" ">
<polygon fill="white" stroke="#666666" points="655,-450 534,-450 534,-431 655,-431 655,-450"/>
<text text-anchor="middle" x="594.5" y="-438" font-family="Helvetica,sans-Serif" font-size="10.00">func_8004B97C_wide</text>
</a>
</g>
</g>
<!-- Node11&#45;&gt;Node14 -->
<g id="edge13_Node000011_Node000014" class="edge">
<title>Node11&#45;&gt;Node14</title>
<g id="a_edge13_Node000011_Node000014"><a xlink:title=" ">
<path fill="none" stroke="#63b8ff" d="M477.13,-376.02C484.37,-378.52 491.6,-381.64 498,-385.5 517.65,-397.35 514.4,-410.58 534,-422.5 536.77,-424.18 539.7,-425.72 542.73,-427.12"/>
<polygon fill="#63b8ff" stroke="#63b8ff" points="541.42,-430.36 552,-430.92 544.08,-423.89 541.42,-430.36"/>
</a>
</g>
</g>
<!-- Node15 -->
<g id="Node000015" class="node">
<title>Node15</title>
<g id="a_Node000015"><a xlink:href="render__objects_8c.html#aadbe7ac97f3cbf7b4c06e645f6dcbb74" target="_top" xlink:title=" ">
<polygon fill="white" stroke="#666666" points="859,-450 691,-450 691,-431 859,-431 859,-450"/>
<text text-anchor="middle" x="775" y="-438" font-family="Helvetica,sans-Serif" font-size="10.00">render_texture_rectangle_wide</text>
</a>
</g>
</g>
<!-- Node14&#45;&gt;Node15 -->
<g id="edge14_Node000014_Node000015" class="edge">
<title>Node14&#45;&gt;Node15</title>
<g id="a_edge14_Node000014_Node000015"><a xlink:title=" ">
<path fill="none" stroke="#63b8ff" d="M655.43,-440.5C663.59,-440.5 672.11,-440.5 680.68,-440.5"/>
<polygon fill="#63b8ff" stroke="#63b8ff" points="680.74,-444 690.74,-440.5 680.74,-437 680.74,-444"/>
</a>
</g>
</g>
<!-- Node16 -->
<g id="Node000016" class="node">
<title>Node16</title>
<g id="a_Node000016"><a xlink:href="Engine_8cpp.html#afc8b077c3a02d35419cae70c83942941" target="_top" xlink:title=" ">
<polygon fill="white" stroke="#666666" points="1072,-431 899,-431 899,-412 1072,-412 1072,-431"/>
<text text-anchor="middle" x="985.5" y="-419" font-family="Helvetica,sans-Serif" font-size="10.00">OTRGetDimensionFromLeftEdge</text>
</a>
</g>
</g>
<!-- Node15&#45;&gt;Node16 -->
<g id="edge15_Node000015_Node000016" class="edge">
<title>Node15&#45;&gt;Node16</title>
<g id="a_edge15_Node000015_Node000016"><a xlink:title=" ">
<path fill="none" stroke="#63b8ff" d="M859,-432.94C868.7,-432.05 878.65,-431.15 888.5,-430.25"/>
<polygon fill="#63b8ff" stroke="#63b8ff" points="889.07,-433.71 898.71,-429.32 888.43,-426.74 889.07,-433.71"/>
</a>
</g>
</g>
<!-- Node19 -->
<g id="Node000019" class="node">
<title>Node19</title>
<g id="a_Node000019"><a xlink:href="Engine_8cpp.html#a17495ab17d6e9c65b2a76e3c88a7f718" target="_top" xlink:title=" ">
<polygon fill="white" stroke="#666666" points="1076,-468 895,-468 895,-449 1076,-449 1076,-468"/>
<text text-anchor="middle" x="985.5" y="-456" font-family="Helvetica,sans-Serif" font-size="10.00">OTRGetDimensionFromRightEdge</text>
</a>
</g>
</g>
<!-- Node15&#45;&gt;Node19 -->
<g id="edge18_Node000015_Node000019" class="edge">
<title>Node15&#45;&gt;Node19</title>
<g id="a_edge18_Node000015_Node000019"><a xlink:title=" ">
<path fill="none" stroke="#63b8ff" d="M859,-447.67C867.49,-448.4 876.18,-449.15 884.82,-449.89"/>
<polygon fill="#63b8ff" stroke="#63b8ff" points="884.67,-453.39 894.93,-450.77 885.27,-446.42 884.67,-453.39"/>
</a>
</g>
</g>
<!-- Node17 -->
<g id="Node000017" class="node">
<title>Node17</title>
<g id="a_Node000017"><a xlink:href="Engine_8cpp.html#a130aa97f1c7fae24f3d23f8126e7506f" target="_top" xlink:title=" ">
<polygon fill="white" stroke="#666666" points="1225,-449 1112,-449 1112,-430 1225,-430 1225,-449"/>
<text text-anchor="middle" x="1168.5" y="-437" font-family="Helvetica,sans-Serif" font-size="10.00">OTRGetAspectRatio</text>
</a>
</g>
</g>
<!-- Node16&#45;&gt;Node17 -->
<g id="edge16_Node000016_Node000017" class="edge">
<title>Node16&#45;&gt;Node17</title>
<g id="a_edge16_Node000016_Node000017"><a xlink:title=" ">
<path fill="none" stroke="#63b8ff" d="M1072.23,-430.03C1082.09,-431.01 1092.03,-432 1101.58,-432.94"/>
<polygon fill="#63b8ff" stroke="#63b8ff" points="1101.46,-436.45 1111.76,-433.96 1102.15,-429.48 1101.46,-436.45"/>
</a>
</g>
</g>
<!-- Node18 -->
<g id="Node000018" class="node">
<title>Node18</title>
<g id="a_Node000018"><a xlink:href="Engine_8cpp.html#a29357c424545be61af4bd28d84fd344a" target="_top" xlink:title=" ">
<polygon fill="white" stroke="#666666" points="1347,-449 1261,-449 1261,-430 1347,-430 1347,-449"/>
<text text-anchor="middle" x="1304" y="-437" font-family="Helvetica,sans-Serif" font-size="10.00">GetInterpreter</text>
</a>
</g>
</g>
<!-- Node17&#45;&gt;Node18 -->
<g id="edge17_Node000017_Node000018" class="edge">
<title>Node17&#45;&gt;Node18</title>
<g id="a_edge17_Node000017_Node000018"><a xlink:title=" ">
<path fill="none" stroke="#63b8ff" d="M1225.34,-439.5C1233.68,-439.5 1242.26,-439.5 1250.52,-439.5"/>
<polygon fill="#63b8ff" stroke="#63b8ff" points="1250.79,-443 1260.79,-439.5 1250.79,-436 1250.79,-443"/>
</a>
</g>
</g>
<!-- Node19&#45;&gt;Node17 -->
<g id="edge19_Node000019_Node000017" class="edge">
<title>Node19&#45;&gt;Node17</title>
<g id="a_edge19_Node000019_Node000017"><a xlink:title=" ">
<path fill="none" stroke="#63b8ff" d="M1076.2,-449.08C1084.8,-448.18 1093.4,-447.28 1101.71,-446.41"/>
<polygon fill="#63b8ff" stroke="#63b8ff" points="1102.09,-449.89 1111.67,-445.36 1101.36,-442.92 1102.09,-449.89"/>
</a>
</g>
</g>
<!-- Node21 -->
<g id="Node000021" class="node">
<title>Node21</title>
<g id="a_Node000021"><a xlink:href="menu__items_8c.html#af958f498a1781e584897c0f68028df0e" target="_top" xlink:title=" ">
<polygon fill="white" stroke="#666666" points="478.5,-300 386.5,-300 386.5,-281 478.5,-281 478.5,-300"/>
<text text-anchor="middle" x="432.5" y="-288" font-family="Helvetica,sans-Serif" font-size="10.00">func_8009A878</text>
</a>
</g>
</g>
<!-- Node20&#45;&gt;Node21 -->
<g id="edge22_Node000020_Node000021" class="edge">
<title>Node20&#45;&gt;Node21</title>
<g id="a_edge22_Node000020_Node000021"><a xlink:title=" ">
<path fill="none" stroke="#63b8ff" d="M297.67,-290.5C321.52,-290.5 350.99,-290.5 376.19,-290.5"/>
<polygon fill="#63b8ff" stroke="#63b8ff" points="376.35,-294 386.35,-290.5 376.35,-287 376.35,-294"/>
</a>
</g>
</g>
<!-- Node23 -->
<g id="Node000023" class="node">
<title>Node23</title>
<g id="a_Node000023"><a xlink:href="menu__items_8c.html#a85f6ca108eb24cbbaa44a5df73194789" target="_top" xlink:title=" ">
<polygon fill="white" stroke="#666666" points="478.5,-226 386.5,-226 386.5,-207 478.5,-207 478.5,-226"/>
<text text-anchor="middle" x="432.5" y="-214" font-family="Helvetica,sans-Serif" font-size="10.00">func_8009C434</text>
</a>
</g>
</g>
<!-- Node20&#45;&gt;Node23 -->
<g id="edge24_Node000020_Node000023" class="edge">
<title>Node20&#45;&gt;Node23</title>
<g id="a_edge24_Node000020_Node000023"><a xlink:title=" ">
<path fill="none" stroke="#63b8ff" d="M297.58,-282.46C308.69,-279.86 320.43,-276.56 331,-272.5 359.17,-261.68 389.09,-244.12 408.89,-231.56"/>
<polygon fill="#63b8ff" stroke="#63b8ff" points="410.98,-234.37 417.48,-226.01 407.18,-228.49 410.98,-234.37"/>
</a>
</g>
</g>
<!-- Node22 -->
<g id="Node000022" class="node">
<title>Node22</title>
<g id="a_Node000022"><a xlink:href="menu__items_8c.html#a66e95f019bfd0b516ee71baf91daa2f6" target="_top" xlink:title=" ">
<polygon fill="white" stroke="#666666" points="640.5,-300 548.5,-300 548.5,-281 640.5,-281 640.5,-300"/>
<text text-anchor="middle" x="594.5" y="-288" font-family="Helvetica,sans-Serif" font-size="10.00">func_80099A94</text>
</a>
</g>
</g>
<!-- Node21&#45;&gt;Node22 -->
<g id="edge23_Node000021_Node000022" class="edge">
<title>Node21&#45;&gt;Node22</title>
<g id="a_edge23_Node000021_Node000022"><a xlink:title=" ">
<path fill="none" stroke="#63b8ff" d="M478.92,-290.5C497.33,-290.5 518.75,-290.5 538.06,-290.5"/>
<polygon fill="#63b8ff" stroke="#63b8ff" points="538.24,-294 548.24,-290.5 538.24,-287 538.24,-294"/>
</a>
</g>
</g>
<!-- Node23&#45;&gt;Node5 -->
<g id="edge28_Node000023_Node000005" class="edge">
<title>Node23&#45;&gt;Node5</title>
<g id="a_edge28_Node000023_Node000005"><a xlink:title=" ">
<path fill="none" stroke="#63b8ff" d="M468.85,-206.94C512.95,-196.49 590.4,-183.06 655,-197.5 690.25,-205.38 727.38,-224.91 750.6,-238.68"/>
<polygon fill="#63b8ff" stroke="#63b8ff" points="749,-241.8 759.37,-243.99 752.63,-235.82 749,-241.8"/>
</a>
</g>
</g>
<!-- Node24 -->
<g id="Node000024" class="node">
<title>Node24</title>
<g id="a_Node000024"><a xlink:href="menu__items_8c.html#ad9490c92b9af2d9c1cc307fb09bcb7b6" target="_top" xlink:title=" ">
<polygon fill="white" stroke="#666666" points="640,-150 549,-150 549,-131 640,-131 640,-150"/>
<text text-anchor="middle" x="594.5" y="-138" font-family="Helvetica,sans-Serif" font-size="10.00">func_80095E10</text>
</a>
</g>
</g>
<!-- Node23&#45;&gt;Node24 -->
<g id="edge25_Node000023_Node000024" class="edge">
<title>Node23&#45;&gt;Node24</title>
<g id="a_edge25_Node000023_Node000024"><a xlink:title=" ">
<path fill="none" stroke="#63b8ff" d="M450.68,-206.98C470.5,-196.15 504.19,-178.19 534,-164.5 542,-160.83 550.74,-157.13 558.99,-153.78"/>
<polygon fill="#63b8ff" stroke="#63b8ff" points="560.39,-156.99 568.38,-150.03 557.8,-150.49 560.39,-156.99"/>
</a>
</g>
</g>
<!-- Node25 -->
<g id="Node000025" class="node">
<title>Node25</title>
<g id="a_Node000025"><a xlink:href="menu__items_8c.html#a6e470e4f186b8105553f9b4322aed077" target="_top" xlink:title=" ">
<polygon fill="white" stroke="#666666" points="640,-263 549,-263 549,-244 640,-244 640,-263"/>
<text text-anchor="middle" x="594.5" y="-251" font-family="Helvetica,sans-Serif" font-size="10.00">func_800963F0</text>
</a>
</g>
</g>
<!-- Node23&#45;&gt;Node25 -->
<g id="edge26_Node000023_Node000025" class="edge">
<title>Node23&#45;&gt;Node25</title>
<g id="a_edge26_Node000023_Node000025"><a xlink:title=" ">
<path fill="none" stroke="#63b8ff" d="M474.7,-226.03C495.34,-230.8 520.52,-236.62 542.38,-241.68"/>
<polygon fill="#63b8ff" stroke="#63b8ff" points="541.63,-245.1 552.16,-243.94 543.2,-238.28 541.63,-245.1"/>
</a>
</g>
</g>
<!-- Node26 -->
<g id="Node000026" class="node">
<title>Node26</title>
<g id="a_Node000026"><a xlink:href="menu__items_8c.html#a30ad499b5aa8caea92818f6b4aa27ad0" target="_top" xlink:title=" ">
<polygon fill="white" stroke="#666666" points="640,-226 549,-226 549,-207 640,-207 640,-226"/>
<text text-anchor="middle" x="594.5" y="-214" font-family="Helvetica,sans-Serif" font-size="10.00">func_80097E58</text>
</a>
</g>
</g>
<!-- Node23&#45;&gt;Node26 -->
<g id="edge27_Node000023_Node000026" class="edge">
<title>Node23&#45;&gt;Node26</title>
<g id="a_edge27_Node000023_Node000026"><a xlink:title=" ">
<path fill="none" stroke="#63b8ff" d="M478.92,-216.5C497.48,-216.5 519.12,-216.5 538.56,-216.5"/>
<polygon fill="#63b8ff" stroke="#63b8ff" points="538.79,-220 548.79,-216.5 538.79,-213 538.79,-220"/>
</a>
</g>
</g>
<!-- Node28&#45;&gt;Node5 -->
<g id="edge36_Node000028_Node000005" class="edge">
<title>Node28&#45;&gt;Node5</title>
<g id="a_edge36_Node000028_Node000005"><a xlink:title=" ">
<path fill="none" stroke="#63b8ff" d="M496.47,-95.95C542.7,-93.9 605.75,-97.02 655,-121.5 706.38,-147.04 745.91,-205.14 763.69,-235.01"/>
<polygon fill="#63b8ff" stroke="#63b8ff" points="760.84,-237.06 768.88,-243.97 766.9,-233.56 760.84,-237.06"/>
</a>
</g>
</g>
<!-- Node28&#45;&gt;Node24 -->
<g id="edge31_Node000028_Node000024" class="edge">
<title>Node28&#45;&gt;Node24</title>
<g id="a_edge31_Node000028_Node000024"><a xlink:title=" ">
<path fill="none" stroke="#63b8ff" d="M473.87,-112.09C494.99,-117.1 521.03,-123.29 543.42,-128.61"/>
<polygon fill="#63b8ff" stroke="#63b8ff" points="542.88,-132.07 553.42,-130.98 544.49,-125.26 542.88,-132.07"/>
</a>
</g>
</g>
<!-- Node29 -->
<g id="Node000029" class="node">
<title>Node29</title>
<g id="a_Node000029"><a xlink:href="menu__items_8c.html#aef2b6b221f29f2caa6f68e11b3e7df34" target="_top" xlink:title=" ">
<polygon fill="white" stroke="#666666" points="640.5,-37 548.5,-37 548.5,-18 640.5,-18 640.5,-37"/>
<text text-anchor="middle" x="594.5" y="-25" font-family="Helvetica,sans-Serif" font-size="10.00">func_800987D0</text>
</a>
</g>
</g>
<!-- Node28&#45;&gt;Node29 -->
<g id="edge32_Node000028_Node000029" class="edge">
<title>Node28&#45;&gt;Node29</title>
<g id="a_edge32_Node000028_Node000029"><a xlink:title=" ">
<path fill="none" stroke="#63b8ff" d="M447.95,-92.93C467.02,-80.64 501.92,-59.25 534,-45.5 538.36,-43.63 542.97,-41.88 547.63,-40.25"/>
<polygon fill="#63b8ff" stroke="#63b8ff" points="548.78,-43.55 557.17,-37.09 546.58,-36.91 548.78,-43.55"/>
</a>
</g>
</g>
<!-- Node32 -->
<g id="Node000032" class="node">
<title>Node32</title>
<g id="a_Node000032"><a xlink:href="menu__items_8c.html#a6061a0dbb9b34a45fb1620c6c1d7f73c" target="_top" xlink:title=" ">
<polygon fill="white" stroke="#666666" points="640.5,-74 548.5,-74 548.5,-55 640.5,-55 640.5,-74"/>
<text text-anchor="middle" x="594.5" y="-62" font-family="Helvetica,sans-Serif" font-size="10.00">func_8009B8C4</text>
</a>
</g>
</g>
<!-- Node28&#45;&gt;Node32 -->
<g id="edge35_Node000028_Node000032" class="edge">
<title>Node28&#45;&gt;Node32</title>
<g id="a_edge35_Node000028_Node000032"><a xlink:title=" ">
<path fill="none" stroke="#63b8ff" d="M473.87,-92.91C494.99,-87.9 521.03,-81.71 543.42,-76.39"/>
<polygon fill="#63b8ff" stroke="#63b8ff" points="544.49,-79.74 553.42,-74.02 542.88,-72.93 544.49,-79.74"/>
</a>
</g>
</g>
<!-- Node30 -->
<g id="Node000030" class="node">
<title>Node30</title>
<g id="a_Node000030"><a xlink:href="math__util_8c.html#ae69cbf5c8d4b3b0dba2d7b4d4673689f" target="_top" xlink:title=" ">
<polygon fill="white" stroke="#666666" points="794,-19 756,-19 756,0 794,0 794,-19"/>
<text text-anchor="middle" x="775" y="-7" font-family="Helvetica,sans-Serif" font-size="10.00">coss</text>
</a>
</g>
</g>
<!-- Node29&#45;&gt;Node30 -->
<g id="edge33_Node000029_Node000030" class="edge">
<title>Node29&#45;&gt;Node30</title>
<g id="a_edge33_Node000029_Node000030"><a xlink:title=" ">
<path fill="none" stroke="#63b8ff" d="M640.54,-22.96C673.7,-19.61 717.73,-15.17 745.98,-12.33"/>
<polygon fill="#63b8ff" stroke="#63b8ff" points="746.38,-15.8 755.97,-11.32 745.67,-8.84 746.38,-15.8"/>
</a>
</g>
</g>
<!-- Node31 -->
<g id="Node000031" class="node">
<title>Node31</title>
<g id="a_Node000031"><a xlink:href="math__util_8c.html#a19ed3bd78fd2d3e2bd0a29f6caf48545" target="_top" xlink:title=" ">
<polygon fill="white" stroke="#666666" points="793,-56 757,-56 757,-37 793,-37 793,-56"/>
<text text-anchor="middle" x="775" y="-44" font-family="Helvetica,sans-Serif" font-size="10.00">sins</text>
</a>
</g>
</g>
<!-- Node29&#45;&gt;Node31 -->
<g id="edge34_Node000029_Node000031" class="edge">
<title>Node29&#45;&gt;Node31</title>
<g id="a_edge34_Node000029_Node000031"><a xlink:title=" ">
<path fill="none" stroke="#63b8ff" d="M640.54,-32.29C674.06,-35.86 718.71,-40.61 746.91,-43.62"/>
<polygon fill="#63b8ff" stroke="#63b8ff" points="746.54,-47.1 756.85,-44.67 747.28,-40.14 746.54,-47.1"/>
</a>
</g>
</g>
</g>
</svg>

<g id="navigator" transform="translate(0 0)" fill="#404254">
  <rect fill="#f2f5e9" fill-opacity="0.5" stroke="#606060" stroke-width=".5" x="0" y="0" width="60" height="60"/>
  <use id="zoomplus" xlink:href="#zoomPlus" x="17" y="9" onmousedown="handleZoom(evt,'in')"/>
  <use id="zoomminus" xlink:href="#zoomMin" x="42" y="9" onmousedown="handleZoom(evt,'out')"/>
  <use id="reset" xlink:href="#resetDef" x="30" y="36" onmousedown="handleReset()"/>
   <use id="arrowup" xlink:href="#arrowUp" x="0" y="0" onmousedown="handlePan(0,-1)"/>
  <use id="arrowright" xlink:href="#arrowRight" x="0" y="0" onmousedown="handlePan(1,0)"/>
  <use id="arrowdown" xlink:href="#arrowDown" x="0" y="0" onmousedown="handlePan(0,1)"/>
  <use id="arrowleft" xlink:href="#arrowLeft" x="0" y="0" onmousedown="handlePan(-1,0)"/>
</g>
<svg viewBox="0 0 15 15" width="100%" height="30px" preserveAspectRatio="xMaxYMin meet">
 <g id="arrow_out" transform="scale(0.3 0.3)">
  <a xlink:href="menu__items_8h_a5b9f65d326f8281c8d77ab26a178de52_cgraph_org.svg" target="_base">
   <rect id="button" ry="5" rx="5" y="6" x="6" height="38" width="38"
        fill="#f2f5e9" fill-opacity="0.5" stroke="#606060" stroke-width="1.0"/>
   <path id="arrow"
     d="M 11.500037,31.436501 C 11.940474,20.09759 22.043105,11.32322 32.158766,21.979434 L 37.068811,17.246167 C 37.068811,17.246167 37.088388,32 37.088388,32 L 22.160133,31.978069 C 22.160133,31.978069 26.997745,27.140456 26.997745,27.140456 C 18.528582,18.264221 13.291696,25.230495 11.500037,31.436501 z"
     style="fill:#404040;"/>
  </a>
 </g>
</svg>

<style type='text/css'>
<![CDATA[
[data-mouse-over-selected='false'] { opacity: 0.7; }
[data-mouse-over-selected='true']  { opacity: 1.0; }
]]>
</style>
<script type="application/ecmascript"><![CDATA[
document.addEventListener('DOMContentLoaded', (event) => {
  highlightEdges();
  highlightAdjacentNodes();
});
]]></script>
</svg>
