<?xml version="1.0" encoding="UTF-8" standalone="no"?>
<!DOCTYPE svg PUBLIC "-//W3C//DTD SVG 1.1//EN"
 "http://www.w3.org/Graphics/SVG/1.1/DTD/svg11.dtd">
<!-- Generated by graphviz version 2.43.0 (0)
 -->
<!-- Title: func_8009DAA8 Pages: 1 -->
<svg width="957pt" height="1100pt"
 viewBox="0.00 0.00 957.00 1100.00" xmlns="http://www.w3.org/2000/svg" xmlns:xlink="http://www.w3.org/1999/xlink">
<g id="graph0" class="graph" transform="scale(1 1) rotate(0) translate(4 1096)">
<title>func_8009DAA8</title>
<!-- Node1 -->
<g id="Node000001" class="node">
<title>Node1</title>
<g id="a_Node000001"><a xlink:title=" ">
<polygon fill="#999999" stroke="#666666" points="94,-759 0,-759 0,-740 94,-740 94,-759"/>
<text text-anchor="middle" x="47" y="-747" font-family="Helvetica,sans-Serif" font-size="10.00">func_8009DAA8</text>
</a>
</g>
</g>
<!-- Node2 -->
<g id="Node000002" class="node">
<title>Node2</title>
<g id="a_Node000002"><a xlink:href="menu__items_8c.html#a966fabbb659fa5fb95a5333baecbd50d" target="_top" xlink:title=" ">
<polygon fill="white" stroke="#666666" points="222,-1018 130,-1018 130,-999 222,-999 222,-1018"/>
<text text-anchor="middle" x="176" y="-1006" font-family="Helvetica,sans-Serif" font-size="10.00">draw_box_wide</text>
</a>
</g>
</g>
<!-- Node1&#45;&gt;Node2 -->
<g id="edge1_Node000001_Node000002" class="edge">
<title>Node1&#45;&gt;Node2</title>
<g id="a_edge1_Node000001_Node000002"><a xlink:title=" ">
<path fill="none" stroke="#63b8ff" d="M52.67,-759.03C71.3,-797.02 140.51,-938.17 165.73,-989.6"/>
<polygon fill="#63b8ff" stroke="#63b8ff" points="162.74,-991.45 170.29,-998.89 169.03,-988.37 162.74,-991.45"/>
</a>
</g>
</g>
<!-- Node13 -->
<g id="Node000013" class="node">
<title>Node13</title>
<g id="a_Node000013"><a xlink:href="menu__items_8c.html#a56cfa922219f124d2b12c0f0f7e3cd9f" target="_top" xlink:title=" ">
<polygon fill="white" stroke="#666666" points="222,-500 130,-500 130,-481 222,-481 222,-500"/>
<text text-anchor="middle" x="176" y="-488" font-family="Helvetica,sans-Serif" font-size="10.00">func_8009CE64</text>
</a>
</g>
</g>
<!-- Node1&#45;&gt;Node13 -->
<g id="edge13_Node000001_Node000013" class="edge">
<title>Node1&#45;&gt;Node13</title>
<g id="a_edge13_Node000001_Node000013"><a xlink:title=" ">
<path fill="none" stroke="#63b8ff" d="M52.67,-739.97C71.3,-701.98 140.51,-560.83 165.73,-509.4"/>
<polygon fill="#63b8ff" stroke="#63b8ff" points="169.03,-510.63 170.29,-500.11 162.74,-507.55 169.03,-510.63"/>
</a>
</g>
</g>
<!-- Node3 -->
<g id="Node000003" class="node">
<title>Node3</title>
<g id="a_Node000003"><a xlink:href="GBIMiddleware_8cpp.html#a4ecc44e3c6f1ca5a6b4a20c41d3bd2d2" target="_top" xlink:title=" ">
<polygon fill="white" stroke="#666666" points="404,-1092 315,-1092 315,-1073 404,-1073 404,-1092"/>
<text text-anchor="middle" x="359.5" y="-1080" font-family="Helvetica,sans-Serif" font-size="10.00">gSPDisplayList</text>
</a>
</g>
</g>
<!-- Node2&#45;&gt;Node3 -->
<g id="edge2_Node000002_Node000003" class="edge">
<title>Node2&#45;&gt;Node3</title>
<g id="a_edge2_Node000002_Node000003"><a xlink:title=" ">
<path fill="none" stroke="#63b8ff" d="M187.64,-1018.13C202.33,-1030.86 230.18,-1053.03 258,-1064.5 272.65,-1070.54 289.33,-1074.56 304.83,-1077.23"/>
<polygon fill="#63b8ff" stroke="#63b8ff" points="304.39,-1080.7 314.81,-1078.8 305.48,-1073.79 304.39,-1080.7"/>
</a>
</g>
</g>
<!-- Node6 -->
<g id="Node000006" class="node">
<title>Node6</title>
<g id="a_Node000006"><a xlink:href="Engine_8cpp.html#af8ad96e953b60eb630f5261745844e45" target="_top" xlink:title=" ">
<polygon fill="white" stroke="#666666" points="457,-1055 262,-1055 262,-1036 457,-1036 457,-1055"/>
<text text-anchor="middle" x="359.5" y="-1043" font-family="Helvetica,sans-Serif" font-size="10.00">OTRGetRectDimensionFromLeftEdge</text>
</a>
</g>
</g>
<!-- Node2&#45;&gt;Node6 -->
<g id="edge5_Node000002_Node000006" class="edge">
<title>Node2&#45;&gt;Node6</title>
<g id="a_edge5_Node000002_Node000006"><a xlink:title=" ">
<path fill="none" stroke="#63b8ff" d="M215.64,-1018C229.02,-1021.18 244.14,-1024.63 258,-1027.5 269.08,-1029.79 280.87,-1032.06 292.35,-1034.17"/>
<polygon fill="#63b8ff" stroke="#63b8ff" points="291.85,-1037.64 302.32,-1035.98 293.11,-1030.75 291.85,-1037.64"/>
</a>
</g>
</g>
<!-- Node10 -->
<g id="Node000010" class="node">
<title>Node10</title>
<g id="a_Node000010"><a xlink:href="Engine_8cpp.html#a6a4636ed76942d3a15e97f85ff3196fb" target="_top" xlink:title=" ">
<polygon fill="white" stroke="#666666" points="461,-1018 258,-1018 258,-999 461,-999 461,-1018"/>
<text text-anchor="middle" x="359.5" y="-1006" font-family="Helvetica,sans-Serif" font-size="10.00">OTRGetRectDimensionFromRightEdge</text>
</a>
</g>
</g>
<!-- Node2&#45;&gt;Node10 -->
<g id="edge9_Node000002_Node000010" class="edge">
<title>Node2&#45;&gt;Node10</title>
<g id="a_edge9_Node000002_Node000010"><a xlink:title=" ">
<path fill="none" stroke="#63b8ff" d="M222.33,-1008.5C230.27,-1008.5 238.82,-1008.5 247.65,-1008.5"/>
<polygon fill="#63b8ff" stroke="#63b8ff" points="247.71,-1012 257.71,-1008.5 247.71,-1005 247.71,-1012"/>
</a>
</g>
</g>
<!-- Node12 -->
<g id="Node000012" class="node">
<title>Node12</title>
<g id="a_Node000012"><a xlink:href="menu__items_8c.html#a2341569d8bfc9b8aac7d5dab7933c999" target="_top" xlink:title=" ">
<polygon fill="white" stroke="#666666" points="399.5,-981 319.5,-981 319.5,-962 399.5,-962 399.5,-981"/>
<text text-anchor="middle" x="359.5" y="-969" font-family="Helvetica,sans-Serif" font-size="10.00">swap_values</text>
</a>
</g>
</g>
<!-- Node2&#45;&gt;Node12 -->
<g id="edge12_Node000002_Node000012" class="edge">
<title>Node2&#45;&gt;Node12</title>
<g id="a_edge12_Node000002_Node000012"><a xlink:title=" ">
<path fill="none" stroke="#63b8ff" d="M218.57,-999C231.21,-996.18 245.16,-993.14 258,-990.5 274.71,-987.07 293.03,-983.53 309.4,-980.46"/>
<polygon fill="#63b8ff" stroke="#63b8ff" points="310.12,-983.89 319.31,-978.61 308.83,-977 310.12,-983.89"/>
</a>
</g>
</g>
<!-- Node4 -->
<g id="Node000004" class="node">
<title>Node4</title>
<g id="a_Node000004"><a xlink:href="Engine_8cpp.html#a223c8bc63f228dc11177515e38eff2db" target="_top" xlink:title=" ">
<polygon fill="white" stroke="#666666" points="662,-1092 513,-1092 513,-1073 662,-1073 662,-1092"/>
<text text-anchor="middle" x="587.5" y="-1080" font-family="Helvetica,sans-Serif" font-size="10.00">GameEngine_OTRSigCheck</text>
</a>
</g>
</g>
<!-- Node3&#45;&gt;Node4 -->
<g id="edge3_Node000003_Node000004" class="edge">
<title>Node3&#45;&gt;Node4</title>
<g id="a_edge3_Node000003_Node000004"><a xlink:title=" ">
<path fill="none" stroke="#63b8ff" d="M404.08,-1082.5C431.97,-1082.5 469.09,-1082.5 502.56,-1082.5"/>
<polygon fill="#63b8ff" stroke="#63b8ff" points="502.81,-1086 512.81,-1082.5 502.81,-1079 502.81,-1086"/>
</a>
</g>
</g>
<!-- Node5 -->
<g id="Node000005" class="node">
<title>Node5</title>
<g id="a_Node000005"><a xlink:href="string_8c.html#a008e171a518fe0e0352f31b245e03875" target="_top" xlink:title=" ">
<polygon fill="white" stroke="#666666" points="792.5,-1092 748.5,-1092 748.5,-1073 792.5,-1073 792.5,-1092"/>
<text text-anchor="middle" x="770.5" y="-1080" font-family="Helvetica,sans-Serif" font-size="10.00">strlen</text>
</a>
</g>
</g>
<!-- Node4&#45;&gt;Node5 -->
<g id="edge4_Node000004_Node000005" class="edge">
<title>Node4&#45;&gt;Node5</title>
<g id="a_edge4_Node000004_Node000005"><a xlink:title=" ">
<path fill="none" stroke="#63b8ff" d="M662.12,-1082.5C688.62,-1082.5 717.13,-1082.5 738.11,-1082.5"/>
<polygon fill="#63b8ff" stroke="#63b8ff" points="738.34,-1086 748.34,-1082.5 738.34,-1079 738.34,-1086"/>
</a>
</g>
</g>
<!-- Node7 -->
<g id="Node000007" class="node">
<title>Node7</title>
<g id="a_Node000007"><a xlink:href="Engine_8cpp.html#afc8b077c3a02d35419cae70c83942941" target="_top" xlink:title=" ">
<polygon fill="white" stroke="#666666" points="674,-1055 501,-1055 501,-1036 674,-1036 674,-1055"/>
<text text-anchor="middle" x="587.5" y="-1043" font-family="Helvetica,sans-Serif" font-size="10.00">OTRGetDimensionFromLeftEdge</text>
</a>
</g>
</g>
<!-- Node6&#45;&gt;Node7 -->
<g id="edge6_Node000006_Node000007" class="edge">
<title>Node6&#45;&gt;Node7</title>
<g id="a_edge6_Node000006_Node000007"><a xlink:title=" ">
<path fill="none" stroke="#63b8ff" d="M457.33,-1045.5C468.43,-1045.5 479.74,-1045.5 490.82,-1045.5"/>
<polygon fill="#63b8ff" stroke="#63b8ff" points="490.92,-1049 500.92,-1045.5 490.92,-1042 490.92,-1049"/>
</a>
</g>
</g>
<!-- Node8 -->
<g id="Node000008" class="node">
<title>Node8</title>
<g id="a_Node000008"><a xlink:href="Engine_8cpp.html#a130aa97f1c7fae24f3d23f8126e7506f" target="_top" xlink:title=" ">
<polygon fill="white" stroke="#666666" points="827,-1037 714,-1037 714,-1018 827,-1018 827,-1037"/>
<text text-anchor="middle" x="770.5" y="-1025" font-family="Helvetica,sans-Serif" font-size="10.00">OTRGetAspectRatio</text>
</a>
</g>
</g>
<!-- Node7&#45;&gt;Node8 -->
<g id="edge7_Node000007_Node000008" class="edge">
<title>Node7&#45;&gt;Node8</title>
<g id="a_edge7_Node000007_Node000008"><a xlink:title=" ">
<path fill="none" stroke="#63b8ff" d="M674.23,-1036.97C684.09,-1035.99 694.03,-1035 703.58,-1034.06"/>
<polygon fill="#63b8ff" stroke="#63b8ff" points="704.15,-1037.52 713.76,-1033.04 703.46,-1030.55 704.15,-1037.52"/>
</a>
</g>
</g>
<!-- Node9 -->
<g id="Node000009" class="node">
<title>Node9</title>
<g id="a_Node000009"><a xlink:href="Engine_8cpp.html#a29357c424545be61af4bd28d84fd344a" target="_top" xlink:title=" ">
<polygon fill="white" stroke="#666666" points="949,-1037 863,-1037 863,-1018 949,-1018 949,-1037"/>
<text text-anchor="middle" x="906" y="-1025" font-family="Helvetica,sans-Serif" font-size="10.00">GetInterpreter</text>
</a>
</g>
</g>
<!-- Node8&#45;&gt;Node9 -->
<g id="edge8_Node000008_Node000009" class="edge">
<title>Node8&#45;&gt;Node9</title>
<g id="a_edge8_Node000008_Node000009"><a xlink:title=" ">
<path fill="none" stroke="#63b8ff" d="M827.34,-1027.5C835.68,-1027.5 844.26,-1027.5 852.52,-1027.5"/>
<polygon fill="#63b8ff" stroke="#63b8ff" points="852.79,-1031 862.79,-1027.5 852.79,-1024 852.79,-1031"/>
</a>
</g>
</g>
<!-- Node11 -->
<g id="Node000011" class="node">
<title>Node11</title>
<g id="a_Node000011"><a xlink:href="Engine_8cpp.html#a17495ab17d6e9c65b2a76e3c88a7f718" target="_top" xlink:title=" ">
<polygon fill="white" stroke="#666666" points="678,-1018 497,-1018 497,-999 678,-999 678,-1018"/>
<text text-anchor="middle" x="587.5" y="-1006" font-family="Helvetica,sans-Serif" font-size="10.00">OTRGetDimensionFromRightEdge</text>
</a>
</g>
</g>
<!-- Node10&#45;&gt;Node11 -->
<g id="edge10_Node000010_Node000011" class="edge">
<title>Node10&#45;&gt;Node11</title>
<g id="a_edge10_Node000010_Node000011"><a xlink:title=" ">
<path fill="none" stroke="#63b8ff" d="M461.27,-1008.5C469.72,-1008.5 478.27,-1008.5 486.71,-1008.5"/>
<polygon fill="#63b8ff" stroke="#63b8ff" points="486.95,-1012 496.95,-1008.5 486.95,-1005 486.95,-1012"/>
</a>
</g>
</g>
<!-- Node11&#45;&gt;Node8 -->
<g id="edge11_Node000011_Node000008" class="edge">
<title>Node11&#45;&gt;Node8</title>
<g id="a_edge11_Node000011_Node000008"><a xlink:title=" ">
<path fill="none" stroke="#63b8ff" d="M678.2,-1017.92C686.8,-1018.82 695.4,-1019.72 703.71,-1020.59"/>
<polygon fill="#63b8ff" stroke="#63b8ff" points="703.36,-1024.08 713.67,-1021.64 704.09,-1017.11 703.36,-1024.08"/>
</a>
</g>
</g>
<!-- Node14 -->
<g id="Node000014" class="node">
<title>Node14</title>
<g id="a_Node000014"><a xlink:href="Game_8cpp.html#a6b67bd0fcac20b25c70bc3a90b7bfde4" target="_top" xlink:title=" ">
<polygon fill="white" stroke="#666666" points="395.5,-944 323.5,-944 323.5,-925 395.5,-925 395.5,-944"/>
<text text-anchor="middle" x="359.5" y="-932" font-family="Helvetica,sans-Serif" font-size="10.00">CM_SetCup</text>
</a>
</g>
</g>
<!-- Node13&#45;&gt;Node14 -->
<g id="edge14_Node000013_Node000014" class="edge">
<title>Node13&#45;&gt;Node14</title>
<g id="a_edge14_Node000013_Node000014"><a xlink:title=" ">
<path fill="none" stroke="#63b8ff" d="M177.4,-500.14C179.98,-557.7 196.19,-855.34 258,-916.5 272.31,-930.66 293.71,-935.8 313.09,-937.13"/>
<polygon fill="#63b8ff" stroke="#63b8ff" points="313.16,-940.64 323.28,-937.51 313.42,-933.64 313.16,-940.64"/>
</a>
</g>
</g>
<!-- Node15 -->
<g id="Node000015" class="node">
<title>Node15</title>
<g id="a_Node000015"><a xlink:href="menu__items_8c.html#a1afef788f26591e1ca9153ab8f9559db" target="_top" xlink:title=" ">
<polygon fill="white" stroke="#666666" points="410,-907 309,-907 309,-888 410,-888 410,-907"/>
<text text-anchor="middle" x="359.5" y="-895" font-family="Helvetica,sans-Serif" font-size="10.00">find_menu_items</text>
</a>
</g>
</g>
<!-- Node13&#45;&gt;Node15 -->
<g id="edge15_Node000013_Node000015" class="edge">
<title>Node13&#45;&gt;Node15</title>
<g id="a_edge15_Node000013_Node000015"><a xlink:title=" ">
<path fill="none" stroke="#63b8ff" d="M177.58,-500.01C181.06,-554.27 201.12,-824.2 258,-879.5 268.84,-890.04 283.62,-895.56 298.5,-898.22"/>
<polygon fill="#63b8ff" stroke="#63b8ff" points="298.39,-901.74 308.78,-899.64 299.35,-894.81 298.39,-901.74"/>
</a>
</g>
</g>
<!-- Node16 -->
<g id="Node000016" class="node">
<title>Node16</title>
<g id="a_Node000016"><a xlink:href="code__80005FD0_8c.html#a7fc44af1268e58cc195aeab08726c3cd" target="_top" xlink:title=" ">
<polygon fill="white" stroke="#666666" points="405,-870 314,-870 314,-851 405,-851 405,-870"/>
<text text-anchor="middle" x="359.5" y="-858" font-family="Helvetica,sans-Serif" font-size="10.00">func_8000F124</text>
</a>
</g>
</g>
<!-- Node13&#45;&gt;Node16 -->
<g id="edge16_Node000013_Node000016" class="edge">
<title>Node13&#45;&gt;Node16</title>
<g id="a_edge16_Node000013_Node000016"><a xlink:title=" ">
<path fill="none" stroke="#63b8ff" d="M177.81,-500.1C182.32,-551.45 206.12,-793.09 258,-842.5 270.17,-854.09 287.11,-859.56 303.62,-861.86"/>
<polygon fill="#63b8ff" stroke="#63b8ff" points="303.5,-865.37 313.8,-862.91 304.21,-858.4 303.5,-865.37"/>
</a>
</g>
</g>
<!-- Node19 -->
<g id="Node000019" class="node">
<title>Node19</title>
<g id="a_Node000019"><a xlink:href="menu__items_8c.html#a5a8e55be1315ed840571d9a15fb3d25d" target="_top" xlink:title=" ">
<polygon fill="white" stroke="#666666" points="405.5,-833 313.5,-833 313.5,-814 405.5,-814 405.5,-833"/>
<text text-anchor="middle" x="359.5" y="-821" font-family="Helvetica,sans-Serif" font-size="10.00">func_8009CE1C</text>
</a>
</g>
</g>
<!-- Node13&#45;&gt;Node19 -->
<g id="edge19_Node000013_Node000019" class="edge">
<title>Node13&#45;&gt;Node19</title>
<g id="a_edge19_Node000013_Node000019"><a xlink:title=" ">
<path fill="none" stroke="#63b8ff" d="M178.07,-500.03C183.67,-547.95 211.03,-761.9 258,-805.5 270.21,-816.83 287,-822.27 303.37,-824.62"/>
<polygon fill="#63b8ff" stroke="#63b8ff" points="303.14,-828.11 313.45,-825.7 303.89,-821.15 303.14,-828.11"/>
</a>
</g>
</g>
<!-- Node21 -->
<g id="Node000021" class="node">
<title>Node21</title>
<g id="a_Node000021"><a xlink:href="race__logic_8c.html#a53decb718a29b1c4910cf1f5bada018f" target="_top" xlink:title=" ">
<polygon fill="white" stroke="#666666" points="405,-796 314,-796 314,-777 405,-777 405,-796"/>
<text text-anchor="middle" x="359.5" y="-784" font-family="Helvetica,sans-Serif" font-size="10.00">func_80290338</text>
</a>
</g>
</g>
<!-- Node13&#45;&gt;Node21 -->
<g id="edge21_Node000013_Node000021" class="edge">
<title>Node13&#45;&gt;Node21</title>
<g id="a_edge21_Node000013_Node000021"><a xlink:title=" ">
<path fill="none" stroke="#63b8ff" d="M176.51,-500.23C175.04,-540.32 175.19,-694.06 258,-768.5 270.44,-779.69 287.38,-785.07 303.8,-787.41"/>
<polygon fill="#63b8ff" stroke="#63b8ff" points="303.59,-790.91 313.91,-788.5 304.34,-783.95 303.59,-790.91"/>
</a>
</g>
</g>
<!-- Node22 -->
<g id="Node000022" class="node">
<title>Node22</title>
<g id="a_Node000022"><a xlink:href="race__logic_8c.html#a356c21937c0221ceae8f34442bb2e820" target="_top" xlink:title=" ">
<polygon fill="white" stroke="#666666" points="405,-759 314,-759 314,-740 405,-740 405,-759"/>
<text text-anchor="middle" x="359.5" y="-747" font-family="Helvetica,sans-Serif" font-size="10.00">func_80290360</text>
</a>
</g>
</g>
<!-- Node13&#45;&gt;Node22 -->
<g id="edge22_Node000013_Node000022" class="edge">
<title>Node13&#45;&gt;Node22</title>
<g id="a_edge22_Node000013_Node000022"><a xlink:title=" ">
<path fill="none" stroke="#63b8ff" d="M177,-500.19C177.57,-536.88 184.81,-668.35 258,-731.5 270.61,-742.38 287.51,-747.7 303.85,-750.07"/>
<polygon fill="#63b8ff" stroke="#63b8ff" points="303.58,-753.57 313.91,-751.19 304.36,-746.61 303.58,-753.57"/>
</a>
</g>
</g>
<!-- Node23 -->
<g id="Node000023" class="node">
<title>Node23</title>
<g id="a_Node000023"><a xlink:href="race__logic_8c.html#ab653b6e6bb04ca0f7995cb58cbeba9af" target="_top" xlink:title=" ">
<polygon fill="white" stroke="#666666" points="405,-722 314,-722 314,-703 405,-703 405,-722"/>
<text text-anchor="middle" x="359.5" y="-710" font-family="Helvetica,sans-Serif" font-size="10.00">func_80290388</text>
</a>
</g>
</g>
<!-- Node13&#45;&gt;Node23 -->
<g id="edge23_Node000013_Node000023" class="edge">
<title>Node13&#45;&gt;Node23</title>
<g id="a_edge23_Node000013_Node000023"><a xlink:title=" ">
<path fill="none" stroke="#63b8ff" d="M177.65,-500.07C180.42,-533 194.26,-642.42 258,-694.5 270.85,-704.99 287.73,-710.22 303.98,-712.63"/>
<polygon fill="#63b8ff" stroke="#63b8ff" points="303.64,-716.11 313.98,-713.79 304.45,-709.16 303.64,-716.11"/>
</a>
</g>
</g>
<!-- Node24 -->
<g id="Node000024" class="node">
<title>Node24</title>
<g id="a_Node000024"><a xlink:href="race__logic_8c.html#af98d49ae0af39ccd86b3a2c269969d3c" target="_top" xlink:title=" ">
<polygon fill="white" stroke="#666666" points="405.5,-685 313.5,-685 313.5,-666 405.5,-666 405.5,-685"/>
<text text-anchor="middle" x="359.5" y="-673" font-family="Helvetica,sans-Serif" font-size="10.00">func_802903B0</text>
</a>
</g>
</g>
<!-- Node13&#45;&gt;Node24 -->
<g id="edge24_Node000013_Node000024" class="edge">
<title>Node13&#45;&gt;Node24</title>
<g id="a_edge24_Node000013_Node000024"><a xlink:title=" ">
<path fill="none" stroke="#63b8ff" d="M178.6,-500.36C183.92,-529.62 203.8,-616.45 258,-657.5 270.87,-667.24 287.29,-672.33 303.12,-674.85"/>
<polygon fill="#63b8ff" stroke="#63b8ff" points="303.03,-678.36 313.39,-676.15 303.91,-671.42 303.03,-678.36"/>
</a>
</g>
</g>
<!-- Node27 -->
<g id="Node000027" class="node">
<title>Node27</title>
<g id="a_Node000027"><a xlink:href="Game_8cpp.html#ae131a8b6906df364a68be4307caab750" target="_top" xlink:title=" ">
<polygon fill="white" stroke="#666666" points="421,-648 298,-648 298,-629 421,-629 421,-648"/>
<text text-anchor="middle" x="359.5" y="-636" font-family="Helvetica,sans-Serif" font-size="10.00">GetCupCursorPosition</text>
</a>
</g>
</g>
<!-- Node13&#45;&gt;Node27 -->
<g id="edge27_Node000013_Node000027" class="edge">
<title>Node13&#45;&gt;Node27</title>
<g id="a_edge27_Node000013_Node000027"><a xlink:title=" ">
<path fill="none" stroke="#63b8ff" d="M179.99,-500.28C188.08,-524.96 212.87,-589.93 258,-620.5 266.99,-626.59 277.43,-630.79 288.11,-633.67"/>
<polygon fill="#63b8ff" stroke="#63b8ff" points="287.42,-637.1 297.96,-635.95 289.01,-630.28 287.42,-637.1"/>
</a>
</g>
</g>
<!-- Node28 -->
<g id="Node000028" class="node">
<title>Node28</title>
<g id="a_Node000028"><a xlink:href="Game_8cpp.html#a0499ce6f7f2cd1b56b0674de6c0cc813" target="_top" xlink:title=" ">
<polygon fill="white" stroke="#666666" points="399.5,-611 319.5,-611 319.5,-592 399.5,-592 399.5,-611"/>
<text text-anchor="middle" x="359.5" y="-599" font-family="Helvetica,sans-Serif" font-size="10.00">GetCupIndex</text>
</a>
</g>
</g>
<!-- Node13&#45;&gt;Node28 -->
<g id="edge28_Node000013_Node000028" class="edge">
<title>Node13&#45;&gt;Node28</title>
<g id="a_edge28_Node000013_Node000028"><a xlink:title=" ">
<path fill="none" stroke="#63b8ff" d="M182.25,-500.02C193.41,-519.28 221.49,-562.8 258,-583.5 273.32,-592.19 291.89,-596.84 308.88,-599.29"/>
<polygon fill="#63b8ff" stroke="#63b8ff" points="308.86,-602.81 319.21,-600.54 309.71,-595.86 308.86,-602.81"/>
</a>
</g>
</g>
<!-- Node29 -->
<g id="Node000029" class="node">
<title>Node29</title>
<g id="a_Node000029"><a xlink:href="Game_8cpp.html#ab5e6260830cd0d3a739e5a5d3fa31bf3" target="_top" xlink:title=" ">
<polygon fill="white" stroke="#666666" points="402.5,-574 316.5,-574 316.5,-555 402.5,-555 402.5,-574"/>
<text text-anchor="middle" x="359.5" y="-562" font-family="Helvetica,sans-Serif" font-size="10.00">GetFlowerCup</text>
</a>
</g>
</g>
<!-- Node13&#45;&gt;Node29 -->
<g id="edge29_Node000013_Node000029" class="edge">
<title>Node13&#45;&gt;Node29</title>
<g id="a_edge29_Node000013_Node000029"><a xlink:title=" ">
<path fill="none" stroke="#63b8ff" d="M187.64,-500.13C202.33,-512.86 230.18,-535.03 258,-546.5 273.06,-552.71 290.25,-556.78 306.11,-559.45"/>
<polygon fill="#63b8ff" stroke="#63b8ff" points="305.88,-562.95 316.3,-561 306.94,-556.03 305.88,-562.95"/>
</a>
</g>
</g>
<!-- Node30 -->
<g id="Node000030" class="node">
<title>Node30</title>
<g id="a_Node000030"><a xlink:href="Game_8cpp.html#a9205b4816d835d2a593d896dce112059" target="_top" xlink:title=" ">
<polygon fill="white" stroke="#666666" points="411.5,-537 307.5,-537 307.5,-518 411.5,-518 411.5,-537"/>
<text text-anchor="middle" x="359.5" y="-525" font-family="Helvetica,sans-Serif" font-size="10.00">GetMushroomCup</text>
</a>
</g>
</g>
<!-- Node13&#45;&gt;Node30 -->
<g id="edge30_Node000013_Node000030" class="edge">
<title>Node13&#45;&gt;Node30</title>
<g id="a_edge30_Node000013_Node000030"><a xlink:title=" ">
<path fill="none" stroke="#63b8ff" d="M215.64,-500C229.02,-503.18 244.14,-506.63 258,-509.5 270.6,-512.1 284.14,-514.68 297.06,-517.03"/>
<polygon fill="#63b8ff" stroke="#63b8ff" points="296.81,-520.54 307.27,-518.87 298.05,-513.65 296.81,-520.54"/>
</a>
</g>
</g>
<!-- Node31 -->
<g id="Node000031" class="node">
<title>Node31</title>
<g id="a_Node000031"><a xlink:href="Game_8cpp.html#a9b7d299ffd4422f9c7cfd08576b8b38b" target="_top" xlink:title=" ">
<polygon fill="white" stroke="#666666" points="395.5,-500 323.5,-500 323.5,-481 395.5,-481 395.5,-500"/>
<text text-anchor="middle" x="359.5" y="-488" font-family="Helvetica,sans-Serif" font-size="10.00">GetStarCup</text>
</a>
</g>
</g>
<!-- Node13&#45;&gt;Node31 -->
<g id="edge31_Node000013_Node000031" class="edge">
<title>Node13&#45;&gt;Node31</title>
<g id="a_edge31_Node000013_Node000031"><a xlink:title=" ">
<path fill="none" stroke="#63b8ff" d="M222.33,-490.5C250.08,-490.5 285.45,-490.5 313.19,-490.5"/>
<polygon fill="#63b8ff" stroke="#63b8ff" points="313.42,-494 323.42,-490.5 313.42,-487 313.42,-494"/>
</a>
</g>
</g>
<!-- Node32 -->
<g id="Node000032" class="node">
<title>Node32</title>
<g id="a_Node000032"><a xlink:href="Game_8cpp.html#ac015fe2f0caa481693b5a07997bf69b6" target="_top" xlink:title=" ">
<polygon fill="white" stroke="#666666" points="394.5,-463 324.5,-463 324.5,-444 394.5,-444 394.5,-463"/>
<text text-anchor="middle" x="359.5" y="-451" font-family="Helvetica,sans-Serif" font-size="10.00">IsBigDonut</text>
</a>
</g>
</g>
<!-- Node13&#45;&gt;Node32 -->
<g id="edge32_Node000013_Node000032" class="edge">
<title>Node13&#45;&gt;Node32</title>
<g id="a_edge32_Node000013_Node000032"><a xlink:title=" ">
<path fill="none" stroke="#63b8ff" d="M218.57,-481C231.21,-478.18 245.16,-475.14 258,-472.5 276.47,-468.7 296.9,-464.79 314.49,-461.51"/>
<polygon fill="#63b8ff" stroke="#63b8ff" points="315.29,-464.92 324.49,-459.65 314.02,-458.03 315.29,-464.92"/>
</a>
</g>
</g>
<!-- Node33 -->
<g id="Node000033" class="node">
<title>Node33</title>
<g id="a_Node000033"><a xlink:href="Game_8cpp.html#a08c07f850fcf603d8fb021cdcbddc7a0" target="_top" xlink:title=" ">
<polygon fill="white" stroke="#666666" points="395,-426 324,-426 324,-407 395,-407 395,-426"/>
<text text-anchor="middle" x="359.5" y="-414" font-family="Helvetica,sans-Serif" font-size="10.00">IsBlockFort</text>
</a>
</g>
</g>
<!-- Node13&#45;&gt;Node33 -->
<g id="edge33_Node000013_Node000033" class="edge">
<title>Node13&#45;&gt;Node33</title>
<g id="a_edge33_Node000013_Node000033"><a xlink:title=" ">
<path fill="none" stroke="#63b8ff" d="M187.94,-480.88C202.75,-468.39 230.51,-446.86 258,-435.5 275.42,-428.3 295.68,-423.81 313.42,-421.01"/>
<polygon fill="#63b8ff" stroke="#63b8ff" points="314.14,-424.44 323.54,-419.55 313.14,-417.52 314.14,-424.44"/>
</a>
</g>
</g>
<!-- Node34 -->
<g id="Node000034" class="node">
<title>Node34</title>
<g id="a_Node000034"><a xlink:href="Game_8cpp.html#a566864f9a32a9c8f1df554d0958e31fe" target="_top" xlink:title=" ">
<polygon fill="white" stroke="#666666" points="401.5,-389 317.5,-389 317.5,-370 401.5,-370 401.5,-389"/>
<text text-anchor="middle" x="359.5" y="-377" font-family="Helvetica,sans-Serif" font-size="10.00">IsDoubleDeck</text>
</a>
</g>
</g>
<!-- Node13&#45;&gt;Node34 -->
<g id="edge34_Node000013_Node000034" class="edge">
<title>Node13&#45;&gt;Node34</title>
<g id="a_edge34_Node000013_Node000034"><a xlink:title=" ">
<path fill="none" stroke="#63b8ff" d="M182.46,-480.82C193.82,-461.67 221.94,-419.04 258,-398.5 272.82,-390.06 290.67,-385.27 307.19,-382.59"/>
<polygon fill="#63b8ff" stroke="#63b8ff" points="307.84,-386.04 317.26,-381.18 306.87,-379.1 307.84,-386.04"/>
</a>
</g>
</g>
<!-- Node35 -->
<g id="Node000035" class="node">
<title>Node35</title>
<g id="a_Node000035"><a xlink:href="Game_8cpp.html#a9fedd7b107c6b6e24e773784787a105c" target="_top" xlink:title=" ">
<polygon fill="white" stroke="#666666" points="398.5,-352 320.5,-352 320.5,-333 398.5,-333 398.5,-352"/>
<text text-anchor="middle" x="359.5" y="-340" font-family="Helvetica,sans-Serif" font-size="10.00">IsSkyscraper</text>
</a>
</g>
</g>
<!-- Node13&#45;&gt;Node35 -->
<g id="edge35_Node000013_Node000035" class="edge">
<title>Node13&#45;&gt;Node35</title>
<g id="a_edge35_Node000013_Node000035"><a xlink:title=" ">
<path fill="none" stroke="#63b8ff" d="M180.03,-480.82C188.21,-456.39 213.21,-392.04 258,-361.5 273.21,-351.13 292.58,-346.04 310.24,-343.66"/>
<polygon fill="#63b8ff" stroke="#63b8ff" points="310.84,-347.12 320.41,-342.55 310.08,-340.16 310.84,-347.12"/>
</a>
</g>
</g>
<!-- Node36 -->
<g id="Node000036" class="node">
<title>Node36</title>
<g id="a_Node000036"><a xlink:href="Game_8cpp.html#a97137efc74a8f6bd6e9e54a8643e86f5" target="_top" xlink:title=" ">
<polygon fill="white" stroke="#666666" points="419,-315 300,-315 300,-296 419,-296 419,-315"/>
<text text-anchor="middle" x="359.5" y="-303" font-family="Helvetica,sans-Serif" font-size="10.00">SelectBowsersCastle</text>
</a>
</g>
</g>
<!-- Node13&#45;&gt;Node36 -->
<g id="edge36_Node000013_Node000036" class="edge">
<title>Node13&#45;&gt;Node36</title>
<g id="a_edge36_Node000013_Node000036"><a xlink:title=" ">
<path fill="none" stroke="#63b8ff" d="M178.64,-480.72C184.06,-451.7 204.21,-365.55 258,-324.5 267.28,-317.42 278.42,-312.72 289.86,-309.65"/>
<polygon fill="#63b8ff" stroke="#63b8ff" points="290.97,-312.99 299.94,-307.35 289.41,-306.16 290.97,-312.99"/>
</a>
</g>
</g>
<!-- Node37 -->
<g id="Node000037" class="node">
<title>Node37</title>
<g id="a_Node000037"><a xlink:href="Game_8cpp.html#af24635032f3c7b289048710e7791a439" target="_top" xlink:title=" ">
<polygon fill="white" stroke="#666666" points="419.5,-278 299.5,-278 299.5,-259 419.5,-259 419.5,-278"/>
<text text-anchor="middle" x="359.5" y="-266" font-family="Helvetica,sans-Serif" font-size="10.00">SelectKalimariDesert</text>
</a>
</g>
</g>
<!-- Node13&#45;&gt;Node37 -->
<g id="edge37_Node000013_Node000037" class="edge">
<title>Node13&#45;&gt;Node37</title>
<g id="a_edge37_Node000013_Node000037"><a xlink:title=" ">
<path fill="none" stroke="#63b8ff" d="M177.68,-481C180.56,-448.3 194.74,-339.61 258,-287.5 267.01,-280.08 278.02,-275.22 289.41,-272.09"/>
<polygon fill="#63b8ff" stroke="#63b8ff" points="290.52,-275.42 299.48,-269.76 288.94,-268.6 290.52,-275.42"/>
</a>
</g>
</g>
<!-- Node38 -->
<g id="Node000038" class="node">
<title>Node38</title>
<g id="a_Node000038"><a xlink:href="Game_8cpp.html#ada28d3ac2117e6089cc6eb5b0a6aabba" target="_top" xlink:title=" ">
<polygon fill="white" stroke="#666666" points="416.5,-241 302.5,-241 302.5,-222 416.5,-222 416.5,-241"/>
<text text-anchor="middle" x="359.5" y="-229" font-family="Helvetica,sans-Serif" font-size="10.00">SelectLuigiRaceway</text>
</a>
</g>
</g>
<!-- Node13&#45;&gt;Node38 -->
<g id="edge38_Node000013_Node000038" class="edge">
<title>Node13&#45;&gt;Node38</title>
<g id="a_edge38_Node000013_Node000038"><a xlink:title=" ">
<path fill="none" stroke="#63b8ff" d="M177.03,-480.87C177.72,-444.41 185.35,-313.72 258,-250.5 267.62,-242.13 279.75,-236.96 292.22,-233.86"/>
<polygon fill="#63b8ff" stroke="#63b8ff" points="293.17,-237.23 302.26,-231.79 291.76,-230.38 293.17,-237.23"/>
</a>
</g>
</g>
<!-- Node39 -->
<g id="Node000039" class="node">
<title>Node39</title>
<g id="a_Node000039"><a xlink:href="Game_8cpp.html#aaaf510d501c5771be0f12e0cd1f5cd2d" target="_top" xlink:title=" ">
<polygon fill="white" stroke="#666666" points="419,-204 300,-204 300,-185 419,-185 419,-204"/>
<text text-anchor="middle" x="359.5" y="-192" font-family="Helvetica,sans-Serif" font-size="10.00">SelectMarioRaceway</text>
</a>
</g>
</g>
<!-- Node13&#45;&gt;Node39 -->
<g id="edge39_Node000013_Node000039" class="edge">
<title>Node13&#45;&gt;Node39</title>
<g id="a_edge39_Node000013_Node000039"><a xlink:title=" ">
<path fill="none" stroke="#63b8ff" d="M176.51,-480.77C175.04,-440.68 175.19,-286.94 258,-212.5 266.96,-204.45 278.25,-199.4 289.99,-196.33"/>
<polygon fill="#63b8ff" stroke="#63b8ff" points="290.88,-199.72 299.93,-194.2 289.41,-192.88 290.88,-199.72"/>
</a>
</g>
</g>
<!-- Node40 -->
<g id="Node000040" class="node">
<title>Node40</title>
<g id="a_Node000040"><a xlink:href="Game_8cpp.html#af7015b96d32cb80462316bd3e619b210" target="_top" xlink:title=" ">
<polygon fill="white" stroke="#666666" points="413,-167 306,-167 306,-148 413,-148 413,-167"/>
<text text-anchor="middle" x="359.5" y="-155" font-family="Helvetica,sans-Serif" font-size="10.00">SelectSherbetLand</text>
</a>
</g>
</g>
<!-- Node13&#45;&gt;Node40 -->
<g id="edge40_Node000013_Node000040" class="edge">
<title>Node13&#45;&gt;Node40</title>
<g id="a_edge40_Node000013_Node000040"><a xlink:title=" ">
<path fill="none" stroke="#63b8ff" d="M178.07,-480.97C183.67,-433.05 211.03,-219.1 258,-175.5 268.35,-165.89 281.99,-160.52 295.87,-157.68"/>
<polygon fill="#63b8ff" stroke="#63b8ff" points="296.67,-161.1 305.98,-156.04 295.54,-154.19 296.67,-161.1"/>
</a>
</g>
</g>
<!-- Node41 -->
<g id="Node000041" class="node">
<title>Node41</title>
<g id="a_Node000041"><a xlink:href="Game_8cpp.html#a3f7a00a8021a08fb3374b0467a7119f8" target="_top" xlink:title=" ">
<polygon fill="white" stroke="#666666" points="417,-130 302,-130 302,-111 417,-111 417,-130"/>
<text text-anchor="middle" x="359.5" y="-118" font-family="Helvetica,sans-Serif" font-size="10.00">SelectWarioStadium</text>
</a>
</g>
</g>
<!-- Node13&#45;&gt;Node41 -->
<g id="edge41_Node000013_Node000041" class="edge">
<title>Node13&#45;&gt;Node41</title>
<g id="a_edge41_Node000013_Node000041"><a xlink:title=" ">
<path fill="none" stroke="#63b8ff" d="M177.81,-480.9C182.32,-429.55 206.12,-187.91 258,-138.5 267.27,-129.67 279.3,-124.4 291.81,-121.36"/>
<polygon fill="#63b8ff" stroke="#63b8ff" points="292.75,-124.75 301.89,-119.39 291.4,-117.88 292.75,-124.75"/>
</a>
</g>
</g>
<!-- Node42 -->
<g id="Node000042" class="node">
<title>Node42</title>
<g id="a_Node000042"><a xlink:href="code__800029B0_8c.html#a400480f631a30b3b2e03db7e291f73d1" target="_top" xlink:title=" ">
<polygon fill="white" stroke="#666666" points="409.5,-93 309.5,-93 309.5,-74 409.5,-74 409.5,-93"/>
<text text-anchor="middle" x="359.5" y="-81" font-family="Helvetica,sans-Serif" font-size="10.00">set_mirror_mode</text>
</a>
</g>
</g>
<!-- Node13&#45;&gt;Node42 -->
<g id="edge42_Node000013_Node000042" class="edge">
<title>Node13&#45;&gt;Node42</title>
<g id="a_edge42_Node000013_Node000042"><a xlink:title=" ">
<path fill="none" stroke="#63b8ff" d="M177.58,-480.99C181.06,-426.73 201.12,-156.8 258,-101.5 269.05,-90.76 284.19,-85.23 299.36,-82.63"/>
<polygon fill="#63b8ff" stroke="#63b8ff" points="299.84,-86.09 309.3,-81.31 298.92,-79.15 299.84,-86.09"/>
</a>
</g>
</g>
<!-- Node44 -->
<g id="Node000044" class="node">
<title>Node44</title>
<g id="a_Node000044"><a xlink:href="Game_8cpp.html#a3bd5b6d5945f1342484ffda8e361d0d1" target="_top" xlink:title=" ">
<polygon fill="white" stroke="#666666" points="414.5,-56 304.5,-56 304.5,-37 414.5,-37 414.5,-56"/>
<text text-anchor="middle" x="359.5" y="-44" font-family="Helvetica,sans-Serif" font-size="10.00">SetCourseFromCup</text>
</a>
</g>
</g>
<!-- Node13&#45;&gt;Node44 -->
<g id="edge44_Node000013_Node000044" class="edge">
<title>Node13&#45;&gt;Node44</title>
<g id="a_edge44_Node000013_Node000044"><a xlink:title=" ">
<path fill="none" stroke="#63b8ff" d="M177.4,-480.86C179.98,-423.3 196.19,-125.66 258,-64.5 267.84,-54.77 281.02,-49.3 294.59,-46.4"/>
<polygon fill="#63b8ff" stroke="#63b8ff" points="295.22,-49.84 304.5,-44.71 294.05,-42.94 295.22,-49.84"/>
</a>
</g>
</g>
<!-- Node45 -->
<g id="Node000045" class="node">
<title>Node45</title>
<g id="a_Node000045"><a xlink:href="Game_8cpp.html#ae22f9eac795eb716b246a295a38e5343" target="_top" xlink:title=" ">
<polygon fill="white" stroke="#666666" points="420.5,-19 298.5,-19 298.5,0 420.5,0 420.5,-19"/>
<text text-anchor="middle" x="359.5" y="-7" font-family="Helvetica,sans-Serif" font-size="10.00">SetCupCursorPosition</text>
</a>
</g>
</g>
<!-- Node13&#45;&gt;Node45 -->
<g id="edge45_Node000013_Node000045" class="edge">
<title>Node13&#45;&gt;Node45</title>
<g id="a_edge45_Node000013_Node000045"><a xlink:title=" ">
<path fill="none" stroke="#63b8ff" d="M177.24,-480.82C178.95,-420.33 191.2,-94.57 258,-27.5 266.27,-19.19 276.98,-13.98 288.3,-10.81"/>
<polygon fill="#63b8ff" stroke="#63b8ff" points="289.4,-14.15 298.37,-8.53 287.85,-7.33 289.4,-14.15"/>
</a>
</g>
</g>
<!-- Node17 -->
<g id="Node000017" class="node">
<title>Node17</title>
<g id="a_Node000017"><a xlink:href="math__util_8c.html#a151b63b8adf9af7e4054b3b84bd226dc" target="_top" xlink:title=" ">
<polygon fill="white" stroke="#666666" points="623.5,-870 551.5,-870 551.5,-851 623.5,-851 623.5,-870"/>
<text text-anchor="middle" x="587.5" y="-858" font-family="Helvetica,sans-Serif" font-size="10.00">random_int</text>
</a>
</g>
</g>
<!-- Node16&#45;&gt;Node17 -->
<g id="edge17_Node000016_Node000017" class="edge">
<title>Node16&#45;&gt;Node17</title>
<g id="a_edge17_Node000016_Node000017"><a xlink:title=" ">
<path fill="none" stroke="#63b8ff" d="M405.15,-860.5C444.47,-860.5 501.48,-860.5 541.05,-860.5"/>
<polygon fill="#63b8ff" stroke="#63b8ff" points="541.21,-864 551.21,-860.5 541.21,-857 541.21,-864"/>
</a>
</g>
</g>
<!-- Node18 -->
<g id="Node000018" class="node">
<title>Node18</title>
<g id="a_Node000018"><a xlink:href="math__util_8c.html#a062850863585005ad1d0a75d9ff70693" target="_top" xlink:title=" ">
<polygon fill="white" stroke="#666666" points="809,-870 732,-870 732,-851 809,-851 809,-870"/>
<text text-anchor="middle" x="770.5" y="-858" font-family="Helvetica,sans-Serif" font-size="10.00">random_u16</text>
</a>
</g>
</g>
<!-- Node17&#45;&gt;Node18 -->
<g id="edge18_Node000017_Node000018" class="edge">
<title>Node17&#45;&gt;Node18</title>
<g id="a_edge18_Node000017_Node000018"><a xlink:title=" ">
<path fill="none" stroke="#63b8ff" d="M623.83,-860.5C651.74,-860.5 690.98,-860.5 721.7,-860.5"/>
<polygon fill="#63b8ff" stroke="#63b8ff" points="721.76,-864 731.76,-860.5 721.76,-857 721.76,-864"/>
</a>
</g>
</g>
<!-- Node20 -->
<g id="Node000020" class="node">
<title>Node20</title>
<g id="a_Node000020"><a xlink:href="external_8c.html#ac48b7cbfcaa7737f892877ead85e4ba7" target="_top" xlink:title=" ">
<polygon fill="white" stroke="#666666" points="633.5,-833 541.5,-833 541.5,-814 633.5,-814 633.5,-833"/>
<text text-anchor="middle" x="587.5" y="-821" font-family="Helvetica,sans-Serif" font-size="10.00">func_800C3448</text>
</a>
</g>
</g>
<!-- Node19&#45;&gt;Node20 -->
<g id="edge20_Node000019_Node000020" class="edge">
<title>Node19&#45;&gt;Node20</title>
<g id="a_edge20_Node000019_Node000020"><a xlink:title=" ">
<path fill="none" stroke="#63b8ff" d="M405.69,-823.5C441.87,-823.5 492.78,-823.5 531.36,-823.5"/>
<polygon fill="#63b8ff" stroke="#63b8ff" points="531.39,-827 541.39,-823.5 531.39,-820 531.39,-827"/>
</a>
</g>
</g>
<!-- Node25 -->
<g id="Node000025" class="node">
<title>Node25</title>
<g id="a_Node000025"><a xlink:href="HMAS_8cpp.html#a73c414770e0086761854237b09428fcf" target="_top" xlink:title=" ">
<polygon fill="white" stroke="#666666" points="635,-704 540,-704 540,-685 635,-685 635,-704"/>
<text text-anchor="middle" x="587.5" y="-692" font-family="Helvetica,sans-Serif" font-size="10.00">HMAS_IsPlaying</text>
</a>
</g>
</g>
<!-- Node24&#45;&gt;Node25 -->
<g id="edge25_Node000024_Node000025" class="edge">
<title>Node24&#45;&gt;Node25</title>
<g id="a_edge25_Node000024_Node000025"><a xlink:title=" ">
<path fill="none" stroke="#63b8ff" d="M405.69,-679.3C441.4,-682.3 491.45,-686.51 529.84,-689.74"/>
<polygon fill="#63b8ff" stroke="#63b8ff" points="529.58,-693.23 539.83,-690.58 530.16,-686.25 529.58,-693.23"/>
</a>
</g>
</g>
<!-- Node26 -->
<g id="Node000026" class="node">
<title>Node26</title>
<g id="a_Node000026"><a xlink:href="HMAS_8cpp.html#aa651a0e94efa3ddb0a63e1b4233c0aab" target="_top" xlink:title=" ">
<polygon fill="white" stroke="#666666" points="624,-667 551,-667 551,-648 624,-648 624,-667"/>
<text text-anchor="middle" x="587.5" y="-655" font-family="Helvetica,sans-Serif" font-size="10.00">HMAS_Stop</text>
</a>
</g>
</g>
<!-- Node24&#45;&gt;Node26 -->
<g id="edge26_Node000024_Node000026" class="edge">
<title>Node24&#45;&gt;Node26</title>
<g id="a_edge26_Node000024_Node000026"><a xlink:title=" ">
<path fill="none" stroke="#63b8ff" d="M405.69,-671.9C444.83,-668.78 501.19,-664.29 540.55,-661.16"/>
<polygon fill="#63b8ff" stroke="#63b8ff" points="540.98,-664.64 550.67,-660.35 540.43,-657.66 540.98,-664.64"/>
</a>
</g>
</g>
<!-- Node43 -->
<g id="Node000043" class="node">
<title>Node43</title>
<g id="a_Node000043"><a xlink:href="Game_8cpp.html#a70dfa94e07750a1aa0749a37ecd916fd" target="_top" xlink:title=" ">
<polygon fill="white" stroke="#666666" points="631,-93 544,-93 544,-74 631,-74 631,-93"/>
<text text-anchor="middle" x="587.5" y="-81" font-family="Helvetica,sans-Serif" font-size="10.00">UnLoadCourse</text>
</a>
</g>
</g>
<!-- Node42&#45;&gt;Node43 -->
<g id="edge43_Node000042_Node000043" class="edge">
<title>Node42&#45;&gt;Node43</title>
<g id="a_edge43_Node000042_Node000043"><a xlink:title=" ">
<path fill="none" stroke="#63b8ff" d="M409.54,-83.5C446.09,-83.5 495.95,-83.5 533.43,-83.5"/>
<polygon fill="#63b8ff" stroke="#63b8ff" points="533.65,-87 543.65,-83.5 533.65,-80 533.65,-87"/>
</a>
</g>
</g>
</g>
</svg>
