<?xml version="1.0" encoding="UTF-8" standalone="no"?>
<!DOCTYPE svg PUBLIC "-//W3C//DTD SVG 1.1//EN"
 "http://www.w3.org/Graphics/SVG/1.1/DTD/svg11.dtd">
<!-- Generated by graphviz version 2.43.0 (0)
 -->
<!-- Title: func_800A72FC Pages: 1 -->
<svg width="1476pt" height="485pt"
 viewBox="0.00 0.00 1476.00 485.00" xmlns="http://www.w3.org/2000/svg" xmlns:xlink="http://www.w3.org/1999/xlink">
<g id="graph0" class="graph" transform="scale(1 1) rotate(0) translate(4 481)">
<title>func_800A72FC</title>
<!-- Node1 -->
<g id="Node000001" class="node">
<title>Node1</title>
<g id="a_Node000001"><a xlink:title=" ">
<polygon fill="#999999" stroke="#666666" points="92,-313 0,-313 0,-294 92,-294 92,-313"/>
<text text-anchor="middle" x="46" y="-301" font-family="Helvetica,sans-Serif" font-size="10.00">func_800A72FC</text>
</a>
</g>
</g>
<!-- Node2 -->
<g id="Node000002" class="node">
<title>Node2</title>
<g id="a_Node000002"><a xlink:href="menu__items_8c.html#a7d794365d2dcd6526ddb06e476bef1e3" target="_top" xlink:title=" ">
<polygon fill="white" stroke="#666666" points="380,-335 282,-335 282,-316 380,-316 380,-335"/>
<text text-anchor="middle" x="331" y="-323" font-family="Helvetica,sans-Serif" font-size="10.00">get_string_width</text>
</a>
</g>
</g>
<!-- Node1&#45;&gt;Node2 -->
<g id="edge1_Node000001_Node000002" class="edge">
<title>Node1&#45;&gt;Node2</title>
<g id="a_edge1_Node000001_Node000002"><a xlink:title=" ">
<path fill="none" stroke="#63b8ff" d="M92.16,-307.01C140.83,-310.79 218.46,-316.83 271.71,-320.97"/>
<polygon fill="#63b8ff" stroke="#63b8ff" points="271.45,-324.46 281.69,-321.74 271.99,-317.48 271.45,-324.46"/>
</a>
</g>
</g>
<!-- Node7 -->
<g id="Node000007" class="node">
<title>Node7</title>
<g id="a_Node000007"><a xlink:href="Game_8cpp.html#af21f89b45e081c9857c7c6689737ea93" target="_top" xlink:title=" ">
<polygon fill="white" stroke="#666666" points="222,-403 140,-403 140,-384 222,-384 222,-403"/>
<text text-anchor="middle" x="181" y="-391" font-family="Helvetica,sans-Serif" font-size="10.00">GetCupName</text>
</a>
</g>
</g>
<!-- Node1&#45;&gt;Node7 -->
<g id="edge7_Node000001_Node000007" class="edge">
<title>Node1&#45;&gt;Node7</title>
<g id="a_edge7_Node000001_Node000007"><a xlink:title=" ">
<path fill="none" stroke="#63b8ff" d="M61.23,-313.13C84.23,-328.69 129.76,-359.51 157.28,-378.13"/>
<polygon fill="#63b8ff" stroke="#63b8ff" points="155.63,-381.23 165.87,-383.94 159.55,-375.43 155.63,-381.23"/>
</a>
</g>
</g>
<!-- Node10 -->
<g id="Node000010" class="node">
<title>Node10</title>
<g id="a_Node000010"><a xlink:href="menu__items_8c.html#ac9a8fae36ca33cb34bee67b9f9ab440f" target="_top" xlink:title=" ">
<polygon fill="white" stroke="#666666" points="234,-297.5 128,-297.5 128,-267.5 234,-267.5 234,-297.5"/>
<text text-anchor="start" x="136" y="-285.5" font-family="Helvetica,sans-Serif" font-size="10.00">print_text1_center</text>
<text text-anchor="middle" x="181" y="-274.5" font-family="Helvetica,sans-Serif" font-size="10.00">_mode_1</text>
</a>
</g>
</g>
<!-- Node1&#45;&gt;Node10 -->
<g id="edge10_Node000001_Node000010" class="edge">
<title>Node1&#45;&gt;Node10</title>
<g id="a_edge10_Node000001_Node000010"><a xlink:title=" ">
<path fill="none" stroke="#63b8ff" d="M92.03,-296.39C100.26,-295.09 108.99,-293.71 117.62,-292.35"/>
<polygon fill="#63b8ff" stroke="#63b8ff" points="118.34,-295.78 127.67,-290.76 117.25,-288.86 118.34,-295.78"/>
</a>
</g>
</g>
<!-- Node42 -->
<g id="Node000042" class="node">
<title>Node42</title>
<g id="a_Node000042"><a xlink:href="menu__items_8c.html#a1a002f259a6c887d6672085b8cda7d4d" target="_top" xlink:title=" ">
<polygon fill="white" stroke="#666666" points="224,-249 138,-249 138,-230 224,-230 224,-249"/>
<text text-anchor="middle" x="181" y="-237" font-family="Helvetica,sans-Serif" font-size="10.00">set_text_color</text>
</a>
</g>
</g>
<!-- Node1&#45;&gt;Node42 -->
<g id="edge54_Node000001_Node000042" class="edge">
<title>Node1&#45;&gt;Node42</title>
<g id="a_edge54_Node000001_Node000042"><a xlink:title=" ">
<path fill="none" stroke="#63b8ff" d="M62.45,-293.96C78.48,-284.29 104.44,-269.27 128,-258.5 132.41,-256.48 137.11,-254.52 141.8,-252.68"/>
<polygon fill="#63b8ff" stroke="#63b8ff" points="143.23,-255.88 151.34,-249.06 140.75,-249.33 143.23,-255.88"/>
</a>
</g>
</g>
<!-- Node3 -->
<g id="Node000003" class="node">
<title>Node3</title>
<g id="a_Node000003"><a xlink:href="menu__items_8c.html#ace62f40ce813c34904327e39643a0dbf" target="_top" xlink:title=" ">
<polygon fill="white" stroke="#666666" points="545,-335 428,-335 428,-316 545,-316 545,-335"/>
<text text-anchor="middle" x="486.5" y="-323" font-family="Helvetica,sans-Serif" font-size="10.00">char_to_glyph_index</text>
</a>
</g>
</g>
<!-- Node2&#45;&gt;Node3 -->
<g id="edge2_Node000002_Node000003" class="edge">
<title>Node2&#45;&gt;Node3</title>
<g id="a_edge2_Node000002_Node000003"><a xlink:title=" ">
<path fill="none" stroke="#63b8ff" d="M380.15,-325.5C392.08,-325.5 405.09,-325.5 417.77,-325.5"/>
<polygon fill="#63b8ff" stroke="#63b8ff" points="417.83,-329 427.83,-325.5 417.83,-322 417.83,-329"/>
</a>
</g>
</g>
<!-- Node4 -->
<g id="Node000004" class="node">
<title>Node4</title>
<g id="a_Node000004"><a xlink:href="menu__items_8c.html#ae8ba1b567dba01ff15c64d416653a70b" target="_top" xlink:title=" ">
<polygon fill="white" stroke="#666666" points="673.5,-396 581.5,-396 581.5,-377 673.5,-377 673.5,-396"/>
<text text-anchor="middle" x="627.5" y="-384" font-family="Helvetica,sans-Serif" font-size="10.00">func_80092DF8</text>
</a>
</g>
</g>
<!-- Node3&#45;&gt;Node4 -->
<g id="edge3_Node000003_Node000004" class="edge">
<title>Node3&#45;&gt;Node4</title>
<g id="a_edge3_Node000003_Node000004"><a xlink:title=" ">
<path fill="none" stroke="#63b8ff" d="M509.22,-335.03C532.24,-345.13 568.81,-361.18 595,-372.68"/>
<polygon fill="#63b8ff" stroke="#63b8ff" points="593.91,-376.02 604.48,-376.83 596.72,-369.61 593.91,-376.02"/>
</a>
</g>
</g>
<!-- Node5 -->
<g id="Node000005" class="node">
<title>Node5</title>
<g id="a_Node000005"><a xlink:href="menu__items_8c.html#acd5b29a8e8634aa4f3db4b9a7c5ba033" target="_top" xlink:title=" ">
<polygon fill="white" stroke="#666666" points="811,-396 719,-396 719,-377 811,-377 811,-396"/>
<text text-anchor="middle" x="765" y="-384" font-family="Helvetica,sans-Serif" font-size="10.00">func_80092E1C</text>
</a>
</g>
</g>
<!-- Node3&#45;&gt;Node5 -->
<g id="edge5_Node000003_Node000005" class="edge">
<title>Node3&#45;&gt;Node5</title>
<g id="a_edge5_Node000003_Node000005"><a xlink:title=" ">
<path fill="none" stroke="#63b8ff" d="M530.7,-335.03C579.36,-345.77 658.46,-363.22 710.86,-374.78"/>
<polygon fill="#63b8ff" stroke="#63b8ff" points="710.13,-378.2 720.64,-376.94 711.63,-371.36 710.13,-378.2"/>
</a>
</g>
</g>
<!-- Node6 -->
<g id="Node000006" class="node">
<title>Node6</title>
<g id="a_Node000006"><a xlink:href="menu__items_8c.html#ab26c8dca1828cd1d5a6c341cb851f0b9" target="_top" xlink:title=" ">
<polygon fill="white" stroke="#666666" points="673,-320 582,-320 582,-301 673,-301 673,-320"/>
<text text-anchor="middle" x="627.5" y="-308" font-family="Helvetica,sans-Serif" font-size="10.00">func_80092EE4</text>
</a>
</g>
</g>
<!-- Node3&#45;&gt;Node6 -->
<g id="edge6_Node000003_Node000006" class="edge">
<title>Node3&#45;&gt;Node6</title>
<g id="a_edge6_Node000003_Node000006"><a xlink:title=" ">
<path fill="none" stroke="#63b8ff" d="M545.24,-319.27C554.03,-318.32 563.08,-317.34 571.81,-316.4"/>
<polygon fill="#63b8ff" stroke="#63b8ff" points="572.3,-319.87 581.87,-315.32 571.55,-312.91 572.3,-319.87"/>
</a>
</g>
</g>
<!-- Node4&#45;&gt;Node5 -->
<g id="edge4_Node000004_Node000005" class="edge">
<title>Node4&#45;&gt;Node5</title>
<g id="a_edge4_Node000004_Node000005"><a xlink:title=" ">
<path fill="none" stroke="#63b8ff" d="M673.62,-386.5C684.81,-386.5 696.94,-386.5 708.56,-386.5"/>
<polygon fill="#63b8ff" stroke="#63b8ff" points="708.62,-390 718.62,-386.5 708.62,-383 708.62,-390"/>
</a>
</g>
</g>
<!-- Node8 -->
<g id="Node000008" class="node">
<title>Node8</title>
<g id="a_Node000008"><a xlink:href="classWorld.html#a37da13d556bec8e05d87b87942bdb19e" target="_top" xlink:title=" ">
<polygon fill="white" stroke="#666666" points="392,-403 270,-403 270,-384 392,-384 392,-403"/>
<text text-anchor="middle" x="331" y="-391" font-family="Helvetica,sans-Serif" font-size="10.00">World::GetCurrentCup</text>
</a>
</g>
</g>
<!-- Node7&#45;&gt;Node8 -->
<g id="edge8_Node000007_Node000008" class="edge">
<title>Node7&#45;&gt;Node8</title>
<g id="a_edge8_Node000007_Node000008"><a xlink:title=" ">
<path fill="none" stroke="#63b8ff" d="M222.05,-393.5C233.67,-393.5 246.71,-393.5 259.61,-393.5"/>
<polygon fill="#63b8ff" stroke="#63b8ff" points="259.89,-397 269.89,-393.5 259.89,-390 259.89,-397"/>
</a>
</g>
</g>
<!-- Node9 -->
<g id="Node000009" class="node">
<title>Node9</title>
<g id="a_Node000009"><a xlink:href="Game_8cpp.html#ae2fa844b3cb1021ecbc357f8ed2ad8cc" target="_top" xlink:title=" ">
<polygon fill="white" stroke="#666666" points="957,-457 895,-457 895,-438 957,-438 957,-457"/>
<text text-anchor="middle" x="926" y="-445" font-family="Helvetica,sans-Serif" font-size="10.00">GetWorld</text>
</a>
</g>
</g>
<!-- Node7&#45;&gt;Node9 -->
<g id="edge9_Node000007_Node000009" class="edge">
<title>Node7&#45;&gt;Node9</title>
<g id="a_edge9_Node000007_Node000009"><a xlink:title=" ">
<path fill="none" stroke="#63b8ff" d="M220.05,-403.03C277.26,-416.5 389.04,-439.5 485.5,-439.5 485.5,-439.5 485.5,-439.5 628.5,-439.5 720.12,-439.5 827.61,-443.36 884.65,-445.72"/>
<polygon fill="#63b8ff" stroke="#63b8ff" points="884.56,-449.22 894.7,-446.14 884.86,-442.23 884.56,-449.22"/>
</a>
</g>
</g>
<!-- Node11 -->
<g id="Node000011" class="node">
<title>Node11</title>
<g id="a_Node000011"><a xlink:href="menu__items_8c.html#ad2af1a6781c3f0bf246aba0d078ae773" target="_top" xlink:title=" ">
<polygon fill="white" stroke="#666666" points="366,-159 296,-159 296,-140 366,-140 366,-159"/>
<text text-anchor="middle" x="331" y="-147" font-family="Helvetica,sans-Serif" font-size="10.00">print_text1</text>
</a>
</g>
</g>
<!-- Node10&#45;&gt;Node11 -->
<g id="edge11_Node000010_Node000011" class="edge">
<title>Node10&#45;&gt;Node11</title>
<g id="a_edge11_Node000010_Node000011"><a xlink:title=" ">
<path fill="none" stroke="#63b8ff" d="M219.72,-267.39C224.71,-264.74 229.62,-261.77 234,-258.5 269.34,-232.16 301.18,-190.97 317.82,-167.49"/>
<polygon fill="#63b8ff" stroke="#63b8ff" points="320.78,-169.36 323.61,-159.15 315.03,-165.37 320.78,-169.36"/>
</a>
</g>
</g>
<!-- Node11&#45;&gt;Node3 -->
<g id="edge12_Node000011_Node000003" class="edge">
<title>Node11&#45;&gt;Node3</title>
<g id="a_edge12_Node000011_Node000003"><a xlink:title=" ">
<path fill="none" stroke="#63b8ff" d="M340.47,-159.21C365.26,-187.63 437.91,-270.93 469.98,-307.71"/>
<polygon fill="#63b8ff" stroke="#63b8ff" points="467.65,-310.36 476.87,-315.6 472.93,-305.76 467.65,-310.36"/>
</a>
</g>
</g>
<!-- Node12 -->
<g id="Node000012" class="node">
<title>Node12</title>
<g id="a_Node000012"><a xlink:href="GBIMiddleware_8cpp.html#a4ecc44e3c6f1ca5a6b4a20c41d3bd2d2" target="_top" xlink:title=" ">
<polygon fill="white" stroke="#666666" points="970.5,-96 881.5,-96 881.5,-77 970.5,-77 970.5,-96"/>
<text text-anchor="middle" x="926" y="-84" font-family="Helvetica,sans-Serif" font-size="10.00">gSPDisplayList</text>
</a>
</g>
</g>
<!-- Node11&#45;&gt;Node12 -->
<g id="edge13_Node000011_Node000012" class="edge">
<title>Node11&#45;&gt;Node12</title>
<g id="a_edge13_Node000011_Node000012"><a xlink:title=" ">
<path fill="none" stroke="#63b8ff" d="M366.14,-142.34C384.45,-138.61 407.41,-134.08 428,-130.5 552.78,-108.79 583.72,-99.15 710,-89.5 764.79,-85.31 827.66,-84.95 871.19,-85.4"/>
<polygon fill="#63b8ff" stroke="#63b8ff" points="871.24,-88.9 881.28,-85.52 871.32,-81.9 871.24,-88.9"/>
</a>
</g>
</g>
<!-- Node15 -->
<g id="Node000015" class="node">
<title>Node15</title>
<g id="a_Node000015"><a xlink:href="menu__items_8c.html#a68e560d23390d5add7cb57ccd82e21ae" target="_top" xlink:title=" ">
<polygon fill="white" stroke="#666666" points="534,-19 439,-19 439,0 534,0 534,-19"/>
<text text-anchor="middle" x="486.5" y="-7" font-family="Helvetica,sans-Serif" font-size="10.00">load_menu_img</text>
</a>
</g>
</g>
<!-- Node11&#45;&gt;Node15 -->
<g id="edge16_Node000011_Node000015" class="edge">
<title>Node11&#45;&gt;Node15</title>
<g id="a_edge16_Node000011_Node000015"><a xlink:title=" ">
<path fill="none" stroke="#63b8ff" d="M337.74,-139.74C351.02,-117.91 385.98,-64.61 428,-33.5 433.43,-29.48 439.64,-25.99 445.92,-23.01"/>
<polygon fill="#63b8ff" stroke="#63b8ff" points="447.32,-26.22 455.08,-19.02 444.52,-19.8 447.32,-26.22"/>
</a>
</g>
</g>
<!-- Node17 -->
<g id="Node000017" class="node">
<title>Node17</title>
<g id="a_Node000017"><a xlink:href="menu__items_8c.html#aafca6e35a19465ad361e68b13e467243" target="_top" xlink:title=" ">
<polygon fill="white" stroke="#666666" points="522,-159 451,-159 451,-140 522,-140 522,-159"/>
<text text-anchor="middle" x="486.5" y="-147" font-family="Helvetica,sans-Serif" font-size="10.00">print_letter</text>
</a>
</g>
</g>
<!-- Node11&#45;&gt;Node17 -->
<g id="edge18_Node000011_Node000017" class="edge">
<title>Node11&#45;&gt;Node17</title>
<g id="a_edge18_Node000011_Node000017"><a xlink:title=" ">
<path fill="none" stroke="#63b8ff" d="M366.07,-149.5C388.07,-149.5 416.94,-149.5 440.78,-149.5"/>
<polygon fill="#63b8ff" stroke="#63b8ff" points="441,-153 451,-149.5 441,-146 441,-153"/>
</a>
</g>
</g>
<!-- Node13 -->
<g id="Node000013" class="node">
<title>Node13</title>
<g id="a_Node000013"><a xlink:href="Engine_8cpp.html#a223c8bc63f228dc11177515e38eff2db" target="_top" xlink:title=" ">
<polygon fill="white" stroke="#666666" points="1181,-133 1032,-133 1032,-114 1181,-114 1181,-133"/>
<text text-anchor="middle" x="1106.5" y="-121" font-family="Helvetica,sans-Serif" font-size="10.00">GameEngine_OTRSigCheck</text>
</a>
</g>
</g>
<!-- Node12&#45;&gt;Node13 -->
<g id="edge14_Node000012_Node000013" class="edge">
<title>Node12&#45;&gt;Node13</title>
<g id="a_edge14_Node000012_Node000013"><a xlink:title=" ">
<path fill="none" stroke="#63b8ff" d="M970.67,-95.55C994.45,-100.48 1024.13,-106.63 1049.59,-111.91"/>
<polygon fill="#63b8ff" stroke="#63b8ff" points="1048.98,-115.36 1059.48,-113.96 1050.4,-108.5 1048.98,-115.36"/>
</a>
</g>
</g>
<!-- Node14 -->
<g id="Node000014" class="node">
<title>Node14</title>
<g id="a_Node000014"><a xlink:href="string_8c.html#a008e171a518fe0e0352f31b245e03875" target="_top" xlink:title=" ">
<polygon fill="white" stroke="#666666" points="1263.5,-259 1219.5,-259 1219.5,-240 1263.5,-240 1263.5,-259"/>
<text text-anchor="middle" x="1241.5" y="-247" font-family="Helvetica,sans-Serif" font-size="10.00">strlen</text>
</a>
</g>
</g>
<!-- Node13&#45;&gt;Node14 -->
<g id="edge15_Node000013_Node000014" class="edge">
<title>Node13&#45;&gt;Node14</title>
<g id="a_edge15_Node000013_Node000014"><a xlink:title=" ">
<path fill="none" stroke="#63b8ff" d="M1117.94,-133.39C1140.56,-154.82 1194.37,-205.8 1222.57,-232.51"/>
<polygon fill="#63b8ff" stroke="#63b8ff" points="1220.45,-235.32 1230.11,-239.66 1225.26,-230.24 1220.45,-235.32"/>
</a>
</g>
</g>
<!-- Node16 -->
<g id="Node000016" class="node">
<title>Node16</title>
<g id="a_Node000016"><a xlink:href="menu__items_8c.html#a248768ee2e4ca9ae9cf0a30bfb256859" target="_top" xlink:title=" ">
<polygon fill="white" stroke="#666666" points="666.5,-19 588.5,-19 588.5,0 666.5,0 666.5,-19"/>
<text text-anchor="middle" x="627.5" y="-7" font-family="Helvetica,sans-Serif" font-size="10.00">load_texture</text>
</a>
</g>
</g>
<!-- Node15&#45;&gt;Node16 -->
<g id="edge17_Node000015_Node000016" class="edge">
<title>Node15&#45;&gt;Node16</title>
<g id="a_edge17_Node000015_Node000016"><a xlink:title=" ">
<path fill="none" stroke="#63b8ff" d="M534.17,-9.5C548.39,-9.5 564.04,-9.5 578.35,-9.5"/>
<polygon fill="#63b8ff" stroke="#63b8ff" points="578.49,-13 588.49,-9.5 578.49,-6 578.49,-13"/>
</a>
</g>
</g>
<!-- Node17&#45;&gt;Node12 -->
<g id="edge53_Node000017_Node000012" class="edge">
<title>Node17&#45;&gt;Node12</title>
<g id="a_edge53_Node000017_Node000012"><a xlink:title=" ">
<path fill="none" stroke="#63b8ff" d="M522.35,-141.14C565.97,-130.99 643.09,-114.03 710,-104.5 764.58,-96.72 827.48,-91.94 871.08,-89.28"/>
<polygon fill="#63b8ff" stroke="#63b8ff" points="871.41,-92.76 881.18,-88.68 870.99,-85.77 871.41,-92.76"/>
</a>
</g>
</g>
<!-- Node18 -->
<g id="Node000018" class="node">
<title>Node18</title>
<g id="a_Node000018"><a xlink:href="menu__items_8c.html#a37eb021a953285ba504198ac6ca73a9a" target="_top" xlink:title=" ">
<polygon fill="white" stroke="#666666" points="674,-224 581,-224 581,-205 674,-205 674,-224"/>
<text text-anchor="middle" x="627.5" y="-212" font-family="Helvetica,sans-Serif" font-size="10.00">func_80095BD0</text>
</a>
</g>
</g>
<!-- Node17&#45;&gt;Node18 -->
<g id="edge19_Node000017_Node000018" class="edge">
<title>Node17&#45;&gt;Node18</title>
<g id="a_edge19_Node000017_Node000018"><a xlink:title=" ">
<path fill="none" stroke="#63b8ff" d="M508.01,-159.09C531.42,-170.04 569.9,-188.03 596.64,-200.54"/>
<polygon fill="#63b8ff" stroke="#63b8ff" points="595.36,-203.8 605.91,-204.87 598.33,-197.46 595.36,-203.8"/>
</a>
</g>
</g>
<!-- Node19 -->
<g id="Node000019" class="node">
<title>Node19</title>
<g id="a_Node000019"><a xlink:href="Matrix_8cpp.html#a6f64c44efb9bdfff802175a9739ce1f1" target="_top" xlink:title=" ">
<polygon fill="white" stroke="#666666" points="808.5,-359 721.5,-359 721.5,-340 808.5,-340 808.5,-359"/>
<text text-anchor="middle" x="765" y="-347" font-family="Helvetica,sans-Serif" font-size="10.00">AddTextMatrix</text>
</a>
</g>
</g>
<!-- Node18&#45;&gt;Node19 -->
<g id="edge20_Node000018_Node000019" class="edge">
<title>Node18&#45;&gt;Node19</title>
<g id="a_edge20_Node000018_Node000019"><a xlink:title=" ">
<path fill="none" stroke="#63b8ff" d="M634.06,-224.03C648.86,-249.13 689.48,-316.16 710,-331.5 711.83,-332.87 713.78,-334.14 715.79,-335.32"/>
<polygon fill="#63b8ff" stroke="#63b8ff" points="714.5,-338.58 725.02,-339.89 717.62,-332.31 714.5,-338.58"/>
</a>
</g>
</g>
<!-- Node23 -->
<g id="Node000023" class="node">
<title>Node23</title>
<g id="a_Node000023"><a xlink:href="FrameInterpolation_8cpp.html#a3a036bc9d533e28a4e9697cd20dccf3e" target="_top" xlink:title=" ">
<polygon fill="white" stroke="#666666" points="820,-229.5 710,-229.5 710,-199.5 820,-199.5 820,-229.5"/>
<text text-anchor="start" x="718" y="-217.5" font-family="Helvetica,sans-Serif" font-size="10.00">FrameInterpolation</text>
<text text-anchor="middle" x="765" y="-206.5" font-family="Helvetica,sans-Serif" font-size="10.00">_RecordCloseChild</text>
</a>
</g>
</g>
<!-- Node18&#45;&gt;Node23 -->
<g id="edge25_Node000018_Node000023" class="edge">
<title>Node18&#45;&gt;Node23</title>
<g id="a_edge25_Node000018_Node000023"><a xlink:title=" ">
<path fill="none" stroke="#63b8ff" d="M674.37,-214.5C682.45,-214.5 691,-214.5 699.47,-214.5"/>
<polygon fill="#63b8ff" stroke="#63b8ff" points="699.74,-218 709.74,-214.5 699.74,-211 699.74,-218"/>
</a>
</g>
</g>
<!-- Node24 -->
<g id="Node000024" class="node">
<title>Node24</title>
<g id="a_Node000024"><a xlink:href="FrameInterpolation_8cpp.html#a0eda726b74eac815af4e874014e2727c" target="_top" xlink:title=" ">
<polygon fill="white" stroke="#666666" points="820,-181.5 710,-181.5 710,-151.5 820,-151.5 820,-181.5"/>
<text text-anchor="start" x="718" y="-169.5" font-family="Helvetica,sans-Serif" font-size="10.00">FrameInterpolation</text>
<text text-anchor="middle" x="765" y="-158.5" font-family="Helvetica,sans-Serif" font-size="10.00">_RecordOpenChild</text>
</a>
</g>
</g>
<!-- Node18&#45;&gt;Node24 -->
<g id="edge27_Node000018_Node000024" class="edge">
<title>Node18&#45;&gt;Node24</title>
<g id="a_edge27_Node000018_Node000024"><a xlink:title=" ">
<path fill="none" stroke="#63b8ff" d="M655.59,-204.9C671.72,-199.19 692.71,-191.75 711.92,-184.95"/>
<polygon fill="#63b8ff" stroke="#63b8ff" points="713.22,-188.2 721.48,-181.56 710.88,-181.6 713.22,-188.2"/>
</a>
</g>
</g>
<!-- Node25 -->
<g id="Node000025" class="node">
<title>Node25</title>
<g id="a_Node000025"><a xlink:href="menu__items_8c.html#ae0fd5923ba70cf6939cd3fa8d09c1191" target="_top" xlink:title=" ">
<polygon fill="white" stroke="#666666" points="810.5,-133 719.5,-133 719.5,-114 810.5,-114 810.5,-133"/>
<text text-anchor="middle" x="765" y="-121" font-family="Helvetica,sans-Serif" font-size="10.00">func_800959F8</text>
</a>
</g>
</g>
<!-- Node18&#45;&gt;Node25 -->
<g id="edge29_Node000018_Node000025" class="edge">
<title>Node18&#45;&gt;Node25</title>
<g id="a_edge29_Node000018_Node000025"><a xlink:title=" ">
<path fill="none" stroke="#63b8ff" d="M637.11,-204.79C651.05,-189.59 680.04,-160.09 710,-142.5 713.47,-140.46 717.19,-138.6 721,-136.9"/>
<polygon fill="#63b8ff" stroke="#63b8ff" points="722.6,-140.02 730.54,-133.01 719.96,-133.54 722.6,-140.02"/>
</a>
</g>
</g>
<!-- Node27 -->
<g id="Node000027" class="node">
<title>Node27</title>
<g id="a_Node000027"><a xlink:href="stubs_8c.html#a8b417b868747c80d58f83d8a1e78ecf3" target="_top" xlink:title=" ">
<polygon fill="white" stroke="#666666" points="799,-322 731,-322 731,-303 799,-303 799,-322"/>
<text text-anchor="middle" x="765" y="-310" font-family="Helvetica,sans-Serif" font-size="10.00">rmonPrintf</text>
</a>
</g>
</g>
<!-- Node18&#45;&gt;Node27 -->
<g id="edge33_Node000018_Node000027" class="edge">
<title>Node18&#45;&gt;Node27</title>
<g id="a_edge33_Node000018_Node000027"><a xlink:title=" ">
<path fill="none" stroke="#63b8ff" d="M635.76,-224.05C648.84,-240.66 678.03,-274.95 710,-294.5 713.6,-296.7 717.51,-298.67 721.52,-300.43"/>
<polygon fill="#63b8ff" stroke="#63b8ff" points="720.37,-303.74 730.95,-304.13 722.92,-297.22 720.37,-303.74"/>
</a>
</g>
</g>
<!-- Node40 -->
<g id="Node000040" class="node">
<title>Node40</title>
<g id="a_Node000040"><a xlink:href="Matrix_8cpp.html#a9818099a1ee20606a7d622e744846366" target="_top" xlink:title=" ">
<polygon fill="white" stroke="#666666" points="807,-267 723,-267 723,-248 807,-248 807,-267"/>
<text text-anchor="middle" x="765" y="-255" font-family="Helvetica,sans-Serif" font-size="10.00">SetTextMatrix</text>
</a>
</g>
</g>
<!-- Node18&#45;&gt;Node40 -->
<g id="edge49_Node000018_Node000040" class="edge">
<title>Node18&#45;&gt;Node40</title>
<g id="a_edge49_Node000018_Node000040"><a xlink:title=" ">
<path fill="none" stroke="#63b8ff" d="M658.57,-224.04C677.96,-230.19 703.38,-238.26 724.4,-244.93"/>
<polygon fill="#63b8ff" stroke="#63b8ff" points="723.42,-248.29 734.01,-247.98 725.54,-241.62 723.42,-248.29"/>
</a>
</g>
</g>
<!-- Node19&#45;&gt;Node9 -->
<g id="edge23_Node000019_Node000009" class="edge">
<title>Node19&#45;&gt;Node9</title>
<g id="a_edge23_Node000019_Node000009"><a xlink:title=" ">
<path fill="none" stroke="#63b8ff" d="M804.11,-359.08C809.8,-361.56 815.32,-364.65 820,-368.5 844.32,-388.49 830.87,-410.54 856,-429.5 864.38,-435.82 874.77,-439.93 884.92,-442.6"/>
<polygon fill="#63b8ff" stroke="#63b8ff" points="884.4,-446.06 894.92,-444.81 885.91,-439.23 884.4,-446.06"/>
</a>
</g>
</g>
<!-- Node20 -->
<g id="Node000020" class="node">
<title>Node20</title>
<g id="a_Node000020"><a xlink:href="FrameInterpolation_8cpp.html#a8cf1f2d6fabc6925aa71a9515341b4aa" target="_top" xlink:title=" ">
<polygon fill="white" stroke="#666666" points="996,-345.5 856,-345.5 856,-315.5 996,-315.5 996,-345.5"/>
<text text-anchor="start" x="864" y="-333.5" font-family="Helvetica,sans-Serif" font-size="10.00">FrameInterpolation</text>
<text text-anchor="middle" x="926" y="-322.5" font-family="Helvetica,sans-Serif" font-size="10.00">_RecordMatrixMtxFToMtx</text>
</a>
</g>
</g>
<!-- Node19&#45;&gt;Node20 -->
<g id="edge21_Node000019_Node000020" class="edge">
<title>Node19&#45;&gt;Node20</title>
<g id="a_edge21_Node000019_Node000020"><a xlink:title=" ">
<path fill="none" stroke="#63b8ff" d="M808.61,-344.41C820.08,-343.04 832.86,-341.51 845.64,-339.98"/>
<polygon fill="#63b8ff" stroke="#63b8ff" points="846.35,-343.42 855.86,-338.76 845.52,-336.47 846.35,-343.42"/>
</a>
</g>
</g>
<!-- Node22 -->
<g id="Node000022" class="node">
<title>Node22</title>
<g id="a_Node000022"><a xlink:href="guMtxF2L_8c.html#a40ab2d64c609839ff1e0ef0de2d0dcc4" target="_top" xlink:title=" ">
<polygon fill="white" stroke="#666666" points="958.5,-420 893.5,-420 893.5,-401 958.5,-401 958.5,-420"/>
<text text-anchor="middle" x="926" y="-408" font-family="Helvetica,sans-Serif" font-size="10.00">guMtxF2L</text>
</a>
</g>
</g>
<!-- Node19&#45;&gt;Node22 -->
<g id="edge24_Node000019_Node000022" class="edge">
<title>Node19&#45;&gt;Node22</title>
<g id="a_edge24_Node000019_Node000022"><a xlink:title=" ">
<path fill="none" stroke="#63b8ff" d="M797.39,-359.06C804.95,-361.76 812.89,-364.95 820,-368.5 837.2,-377.09 838.45,-384.63 856,-392.5 864.63,-396.37 874.25,-399.53 883.5,-402.07"/>
<polygon fill="#63b8ff" stroke="#63b8ff" points="882.78,-405.49 893.34,-404.57 884.51,-398.71 882.78,-405.49"/>
</a>
</g>
</g>
<!-- Node21 -->
<g id="Node000021" class="node">
<title>Node21</title>
<g id="a_Node000021"><a xlink:href="FrameInterpolation_8cpp.html#a02c7ac5342a4d376edee38f312b480bf" target="_top" xlink:title=" ">
<polygon fill="white" stroke="#666666" points="1160.5,-232 1052.5,-232 1052.5,-213 1160.5,-213 1160.5,-232"/>
<text text-anchor="middle" x="1106.5" y="-220" font-family="Helvetica,sans-Serif" font-size="10.00">check_if_recording</text>
</a>
</g>
</g>
<!-- Node20&#45;&gt;Node21 -->
<g id="edge22_Node000020_Node000021" class="edge">
<title>Node20&#45;&gt;Node21</title>
<g id="a_edge22_Node000020_Node000021"><a xlink:title=" ">
<path fill="none" stroke="#63b8ff" d="M976.46,-315.47C983.17,-312.81 989.86,-309.81 996,-306.5 1031.22,-287.51 1067.08,-257.55 1087.77,-239.02"/>
<polygon fill="#63b8ff" stroke="#63b8ff" points="1090.37,-241.38 1095.41,-232.06 1085.66,-236.2 1090.37,-241.38"/>
</a>
</g>
</g>
<!-- Node23&#45;&gt;Node21 -->
<g id="edge26_Node000023_Node000021" class="edge">
<title>Node23&#45;&gt;Node21</title>
<g id="a_edge26_Node000023_Node000021"><a xlink:title=" ">
<path fill="none" stroke="#63b8ff" d="M820.17,-215.78C880.55,-217.2 978.09,-219.5 1042.01,-221"/>
<polygon fill="#63b8ff" stroke="#63b8ff" points="1042.28,-224.51 1052.36,-221.25 1042.45,-217.51 1042.28,-224.51"/>
</a>
</g>
</g>
<!-- Node24&#45;&gt;Node21 -->
<g id="edge28_Node000024_Node000021" class="edge">
<title>Node24&#45;&gt;Node21</title>
<g id="a_edge28_Node000024_Node000021"><a xlink:title=" ">
<path fill="none" stroke="#63b8ff" d="M820.17,-175.44C880.68,-185.42 978.5,-201.55 1042.41,-212.09"/>
<polygon fill="#63b8ff" stroke="#63b8ff" points="1041.93,-215.56 1052.36,-213.73 1043.06,-208.65 1041.93,-215.56"/>
</a>
</g>
</g>
<!-- Node25&#45;&gt;Node12 -->
<g id="edge30_Node000025_Node000012" class="edge">
<title>Node25&#45;&gt;Node12</title>
<g id="a_edge30_Node000025_Node000012"><a xlink:title=" ">
<path fill="none" stroke="#63b8ff" d="M806.95,-113.97C827.36,-109.22 852.25,-103.43 873.9,-98.39"/>
<polygon fill="#63b8ff" stroke="#63b8ff" points="874.97,-101.74 883.92,-96.06 873.38,-94.92 874.97,-101.74"/>
</a>
</g>
</g>
<!-- Node26 -->
<g id="Node000026" class="node">
<title>Node26</title>
<g id="a_Node000026"><a xlink:href="GBIMiddleware_8cpp.html#aeef79449a27a710d73576e4a4f7f7f99" target="_top" xlink:title=" ">
<polygon fill="white" stroke="#666666" points="959,-133 893,-133 893,-114 959,-114 959,-133"/>
<text text-anchor="middle" x="926" y="-121" font-family="Helvetica,sans-Serif" font-size="10.00">gSPVertex</text>
</a>
</g>
</g>
<!-- Node25&#45;&gt;Node26 -->
<g id="edge31_Node000025_Node000026" class="edge">
<title>Node25&#45;&gt;Node26</title>
<g id="a_edge31_Node000025_Node000026"><a xlink:title=" ">
<path fill="none" stroke="#63b8ff" d="M810.71,-123.5C833.23,-123.5 860.39,-123.5 882.58,-123.5"/>
<polygon fill="#63b8ff" stroke="#63b8ff" points="882.71,-127 892.71,-123.5 882.71,-120 882.71,-127"/>
</a>
</g>
</g>
<!-- Node26&#45;&gt;Node13 -->
<g id="edge32_Node000026_Node000013" class="edge">
<title>Node26&#45;&gt;Node13</title>
<g id="a_edge32_Node000026_Node000013"><a xlink:title=" ">
<path fill="none" stroke="#63b8ff" d="M959.33,-123.5C976.92,-123.5 999.59,-123.5 1021.8,-123.5"/>
<polygon fill="#63b8ff" stroke="#63b8ff" points="1021.95,-127 1031.95,-123.5 1021.95,-120 1021.95,-127"/>
</a>
</g>
</g>
<!-- Node28 -->
<g id="Node000028" class="node">
<title>Node28</title>
<g id="a_Node000028"><a xlink:href="__Printf_8c.html#a39bb05c90efce6c6790c5d58d271d72d" target="_top" xlink:title=" ">
<polygon fill="white" stroke="#666666" points="950,-383 902,-383 902,-364 950,-364 950,-383"/>
<text text-anchor="middle" x="926" y="-371" font-family="Helvetica,sans-Serif" font-size="10.00">_Printf</text>
</a>
</g>
</g>
<!-- Node27&#45;&gt;Node28 -->
<g id="edge34_Node000027_Node000028" class="edge">
<title>Node27&#45;&gt;Node28</title>
<g id="a_edge34_Node000027_Node000028"><a xlink:title=" ">
<path fill="none" stroke="#63b8ff" d="M797.06,-322.05C804.7,-324.78 812.76,-327.97 820,-331.5 837.07,-339.82 838.65,-346.78 856,-354.5 867.33,-359.54 880.31,-363.54 891.93,-366.54"/>
<polygon fill="#63b8ff" stroke="#63b8ff" points="891.17,-369.96 901.72,-368.92 892.83,-363.16 891.17,-369.96"/>
</a>
</g>
</g>
<!-- Node39 -->
<g id="Node000039" class="node">
<title>Node39</title>
<g id="a_Node000039"><a xlink:href="is__debug_8c.html#aaccfac8d9098530b6592eefe679d86b4" target="_top" xlink:title=" ">
<polygon fill="white" stroke="#666666" points="978.5,-297 873.5,-297 873.5,-278 978.5,-278 978.5,-297"/>
<text text-anchor="middle" x="926" y="-285" font-family="Helvetica,sans-Serif" font-size="10.00">is_proutSyncPrintf</text>
</a>
</g>
</g>
<!-- Node27&#45;&gt;Node39 -->
<g id="edge48_Node000027_Node000039" class="edge">
<title>Node27&#45;&gt;Node39</title>
<g id="a_edge48_Node000027_Node000039"><a xlink:title=" ">
<path fill="none" stroke="#63b8ff" d="M799.33,-307.26C817.81,-304.35 841.37,-300.65 863.09,-297.23"/>
<polygon fill="#63b8ff" stroke="#63b8ff" points="863.91,-300.65 873.24,-295.64 862.82,-293.73 863.91,-300.65"/>
</a>
</g>
</g>
<!-- Node29 -->
<g id="Node000029" class="node">
<title>Node29</title>
<g id="a_Node000029"><a xlink:href="__Printf_8c.html#ad73a5847f2d7c9de14cc2723da86bf45" target="_top" xlink:title=" ">
<polygon fill="white" stroke="#666666" points="1131.5,-383 1081.5,-383 1081.5,-364 1131.5,-364 1131.5,-383"/>
<text text-anchor="middle" x="1106.5" y="-371" font-family="Helvetica,sans-Serif" font-size="10.00">_Putfld</text>
</a>
</g>
</g>
<!-- Node28&#45;&gt;Node29 -->
<g id="edge35_Node000028_Node000029" class="edge">
<title>Node28&#45;&gt;Node29</title>
<g id="a_edge35_Node000028_Node000029"><a xlink:title=" ">
<path fill="none" stroke="#63b8ff" d="M950.34,-373.5C981.08,-373.5 1035.41,-373.5 1070.93,-373.5"/>
<polygon fill="#63b8ff" stroke="#63b8ff" points="1071.3,-377 1081.3,-373.5 1071.3,-370 1071.3,-377"/>
</a>
</g>
</g>
<!-- Node38 -->
<g id="Node000038" class="node">
<title>Node38</title>
<g id="a_Node000038"><a xlink:href="string_8c.html#a988b4defe51a1815ef3b9ddab10e7a89" target="_top" xlink:title=" ">
<polygon fill="white" stroke="#666666" points="1128.5,-346 1084.5,-346 1084.5,-327 1128.5,-327 1128.5,-346"/>
<text text-anchor="middle" x="1106.5" y="-334" font-family="Helvetica,sans-Serif" font-size="10.00">strchr</text>
</a>
</g>
</g>
<!-- Node28&#45;&gt;Node38 -->
<g id="edge47_Node000028_Node000038" class="edge">
<title>Node28&#45;&gt;Node38</title>
<g id="a_edge47_Node000028_Node000038"><a xlink:title=" ">
<path fill="none" stroke="#63b8ff" d="M950.34,-368.66C982.02,-362.09 1038.76,-350.33 1074.14,-343"/>
<polygon fill="#63b8ff" stroke="#63b8ff" points="1075.3,-346.33 1084.38,-340.88 1073.88,-339.48 1075.3,-346.33"/>
</a>
</g>
</g>
<!-- Node29&#45;&gt;Node14 -->
<g id="edge46_Node000029_Node000014" class="edge">
<title>Node29&#45;&gt;Node14</title>
<g id="a_edge46_Node000029_Node000014"><a xlink:title=" ">
<path fill="none" stroke="#63b8ff" d="M1131.77,-372.43C1147.21,-370.65 1166.88,-366.23 1181,-355.5 1210,-333.47 1226.94,-292.97 1234.9,-268.92"/>
<polygon fill="#63b8ff" stroke="#63b8ff" points="1238.31,-269.73 1237.94,-259.15 1231.63,-267.66 1238.31,-269.73"/>
</a>
</g>
</g>
<!-- Node30 -->
<g id="Node000030" class="node">
<title>Node30</title>
<g id="a_Node000030"><a xlink:href="__Ldtob_8c.html#a7cc858157b66e15c831ad085113729ae" target="_top" xlink:title=" ">
<polygon fill="white" stroke="#666666" points="1266,-345 1217,-345 1217,-326 1266,-326 1266,-345"/>
<text text-anchor="middle" x="1241.5" y="-333" font-family="Helvetica,sans-Serif" font-size="10.00">_Ldtob</text>
</a>
</g>
</g>
<!-- Node29&#45;&gt;Node30 -->
<g id="edge36_Node000029_Node000030" class="edge">
<title>Node29&#45;&gt;Node30</title>
<g id="a_edge36_Node000029_Node000030"><a xlink:title=" ">
<path fill="none" stroke="#63b8ff" d="M1131.8,-368.09C1146.19,-364.75 1164.72,-360.22 1181,-355.5 1189.58,-353.01 1198.76,-350.07 1207.28,-347.22"/>
<polygon fill="#63b8ff" stroke="#63b8ff" points="1208.56,-350.48 1216.9,-343.94 1206.31,-343.85 1208.56,-350.48"/>
</a>
</g>
</g>
<!-- Node36 -->
<g id="Node000036" class="node">
<title>Node36</title>
<g id="a_Node000036"><a xlink:href="__Litob_8c.html#aaaba3b0ab7920d422a61fe9e22600dd0" target="_top" xlink:title=" ">
<polygon fill="white" stroke="#666666" points="1264.5,-439 1218.5,-439 1218.5,-420 1264.5,-420 1264.5,-439"/>
<text text-anchor="middle" x="1241.5" y="-427" font-family="Helvetica,sans-Serif" font-size="10.00">_Litob</text>
</a>
</g>
</g>
<!-- Node29&#45;&gt;Node36 -->
<g id="edge43_Node000029_Node000036" class="edge">
<title>Node29&#45;&gt;Node36</title>
<g id="a_edge43_Node000029_Node000036"><a xlink:title=" ">
<path fill="none" stroke="#63b8ff" d="M1130.36,-383.13C1152.04,-392.25 1184.78,-406.04 1208.93,-416.21"/>
<polygon fill="#63b8ff" stroke="#63b8ff" points="1207.8,-419.53 1218.38,-420.18 1210.52,-413.08 1207.8,-419.53"/>
</a>
</g>
</g>
<!-- Node31 -->
<g id="Node000031" class="node">
<title>Node31</title>
<g id="a_Node000031"><a xlink:href="__Ldtob_8c.html#a2b6c5318b43bab1636bad9113ffb2761" target="_top" xlink:title=" ">
<polygon fill="white" stroke="#666666" points="1362.5,-401 1312.5,-401 1312.5,-382 1362.5,-382 1362.5,-401"/>
<text text-anchor="middle" x="1337.5" y="-389" font-family="Helvetica,sans-Serif" font-size="10.00">_Genld</text>
</a>
</g>
</g>
<!-- Node30&#45;&gt;Node31 -->
<g id="edge37_Node000030_Node000031" class="edge">
<title>Node30&#45;&gt;Node31</title>
<g id="a_edge37_Node000030_Node000031"><a xlink:title=" ">
<path fill="none" stroke="#63b8ff" d="M1256.95,-345.23C1268.87,-353.13 1286.3,-364.41 1302,-373.5 1304,-374.65 1306.07,-375.82 1308.17,-376.98"/>
<polygon fill="#63b8ff" stroke="#63b8ff" points="1306.89,-380.26 1317.36,-381.89 1310.19,-374.09 1306.89,-380.26"/>
</a>
</g>
</g>
<!-- Node32 -->
<g id="Node000032" class="node">
<title>Node32</title>
<g id="a_Node000032"><a xlink:href="string_8c.html#ad7f1ae1bbb49dece44bda378982a704d" target="_top" xlink:title=" ">
<polygon fill="white" stroke="#666666" points="1468,-401 1409,-401 1409,-382 1468,-382 1468,-401"/>
<text text-anchor="middle" x="1438.5" y="-389" font-family="Helvetica,sans-Serif" font-size="10.00">memcpy</text>
</a>
</g>
</g>
<!-- Node30&#45;&gt;Node32 -->
<g id="edge41_Node000030_Node000032" class="edge">
<title>Node30&#45;&gt;Node32</title>
<g id="a_edge41_Node000030_Node000032"><a xlink:title=" ">
<path fill="none" stroke="#63b8ff" d="M1246.86,-325.84C1254.96,-309.23 1274.09,-275.76 1302,-262.5 1330.5,-248.96 1346.16,-245.91 1373,-262.5 1411.91,-286.55 1428.13,-341.95 1434.23,-371.73"/>
<polygon fill="#63b8ff" stroke="#63b8ff" points="1430.83,-372.57 1436.1,-381.76 1437.71,-371.29 1430.83,-372.57"/>
</a>
</g>
</g>
<!-- Node33 -->
<g id="Node000033" class="node">
<title>Node33</title>
<g id="a_Node000033"><a xlink:href="__Ldtob_8c.html#ab7ade9ce60aaa8baa0244b503351d742" target="_top" xlink:title=" ">
<polygon fill="white" stroke="#666666" points="1373,-290 1302,-290 1302,-271 1373,-271 1373,-290"/>
<text text-anchor="middle" x="1337.5" y="-278" font-family="Helvetica,sans-Serif" font-size="10.00">_Ldunscale</text>
</a>
</g>
</g>
<!-- Node30&#45;&gt;Node33 -->
<g id="edge39_Node000030_Node000033" class="edge">
<title>Node30&#45;&gt;Node33</title>
<g id="a_edge39_Node000030_Node000033"><a xlink:title=" ">
<path fill="none" stroke="#63b8ff" d="M1258.06,-325.85C1270,-318.5 1286.94,-308.2 1302,-299.5 1304.55,-298.03 1307.23,-296.51 1309.9,-295"/>
<polygon fill="#63b8ff" stroke="#63b8ff" points="1311.83,-297.94 1318.87,-290.03 1308.43,-291.82 1311.83,-297.94"/>
</a>
</g>
</g>
<!-- Node34 -->
<g id="Node000034" class="node">
<title>Node34</title>
<g id="a_Node000034"><a xlink:href="ldiv_8c.html#a0302920caf64a5fbe1ce0862799d7784" target="_top" xlink:title=" ">
<polygon fill="white" stroke="#666666" points="1355,-364 1320,-364 1320,-345 1355,-345 1355,-364"/>
<text text-anchor="middle" x="1337.5" y="-352" font-family="Helvetica,sans-Serif" font-size="10.00">ldiv</text>
</a>
</g>
</g>
<!-- Node30&#45;&gt;Node34 -->
<g id="edge40_Node000030_Node000034" class="edge">
<title>Node30&#45;&gt;Node34</title>
<g id="a_edge40_Node000030_Node000034"><a xlink:title=" ">
<path fill="none" stroke="#63b8ff" d="M1266.22,-340.29C1279.57,-342.99 1296.27,-346.37 1310.04,-349.15"/>
<polygon fill="#63b8ff" stroke="#63b8ff" points="1309.4,-352.59 1319.9,-351.14 1310.79,-345.73 1309.4,-352.59"/>
</a>
</g>
</g>
<!-- Node35 -->
<g id="Node000035" class="node">
<title>Node35</title>
<g id="a_Node000035"><a xlink:href="alBnkfNew_8c.html#a96a0200a6b40350e524f536d232ecb53" target="_top" xlink:title=" ">
<polygon fill="white" stroke="#666666" points="1363.5,-327 1311.5,-327 1311.5,-308 1363.5,-308 1363.5,-327"/>
<text text-anchor="middle" x="1337.5" y="-315" font-family="Helvetica,sans-Serif" font-size="10.00">unused</text>
</a>
</g>
</g>
<!-- Node30&#45;&gt;Node35 -->
<g id="edge42_Node000030_Node000035" class="edge">
<title>Node30&#45;&gt;Node35</title>
<g id="a_edge42_Node000030_Node000035"><a xlink:title=" ">
<path fill="none" stroke="#63b8ff" d="M1266.22,-330.96C1276.9,-328.91 1289.74,-326.45 1301.5,-324.2"/>
<polygon fill="#63b8ff" stroke="#63b8ff" points="1302.31,-327.61 1311.47,-322.29 1300.99,-320.74 1302.31,-327.61"/>
</a>
</g>
</g>
<!-- Node31&#45;&gt;Node32 -->
<g id="edge38_Node000031_Node000032" class="edge">
<title>Node31&#45;&gt;Node32</title>
<g id="a_edge38_Node000031_Node000032"><a xlink:title=" ">
<path fill="none" stroke="#63b8ff" d="M1362.72,-391.5C1373.52,-391.5 1386.52,-391.5 1398.63,-391.5"/>
<polygon fill="#63b8ff" stroke="#63b8ff" points="1398.96,-395 1408.96,-391.5 1398.96,-388 1398.96,-395"/>
</a>
</g>
</g>
<!-- Node36&#45;&gt;Node32 -->
<g id="edge45_Node000036_Node000032" class="edge">
<title>Node36&#45;&gt;Node32</title>
<g id="a_edge45_Node000036_Node000032"><a xlink:title=" ">
<path fill="none" stroke="#63b8ff" d="M1264.84,-427.22C1290.97,-424.34 1335.43,-418.73 1373,-410.5 1381.52,-408.63 1390.57,-406.24 1399.11,-403.78"/>
<polygon fill="#63b8ff" stroke="#63b8ff" points="1400.24,-407.09 1408.83,-400.89 1398.25,-400.38 1400.24,-407.09"/>
</a>
</g>
</g>
<!-- Node37 -->
<g id="Node000037" class="node">
<title>Node37</title>
<g id="a_Node000037"><a xlink:href="ldiv_8c.html#a5b23c3639f11980dca762c5f1d74f339" target="_top" xlink:title=" ">
<polygon fill="white" stroke="#666666" points="1356.5,-477 1318.5,-477 1318.5,-458 1356.5,-458 1356.5,-477"/>
<text text-anchor="middle" x="1337.5" y="-465" font-family="Helvetica,sans-Serif" font-size="10.00">lldiv</text>
</a>
</g>
</g>
<!-- Node36&#45;&gt;Node37 -->
<g id="edge44_Node000036_Node000037" class="edge">
<title>Node36&#45;&gt;Node37</title>
<g id="a_edge44_Node000036_Node000037"><a xlink:title=" ">
<path fill="none" stroke="#63b8ff" d="M1264.78,-438.51C1277.97,-443.84 1294.8,-450.64 1308.84,-456.32"/>
<polygon fill="#63b8ff" stroke="#63b8ff" points="1307.89,-459.71 1318.47,-460.21 1310.52,-453.22 1307.89,-459.71"/>
</a>
</g>
</g>
<!-- Node40&#45;&gt;Node40 -->
<g id="edge52_Node000040_Node000040" class="edge">
<title>Node40&#45;&gt;Node40</title>
<g id="a_edge52_Node000040_Node000040"><a xlink:title=" ">
<path fill="none" stroke="#63b8ff" d="M744.04,-267.08C733.84,-275.73 740.83,-285 765,-285 780.49,-285 788.92,-281.2 790.3,-276.19"/>
<polygon fill="#63b8ff" stroke="#63b8ff" points="793.42,-274.61 785.96,-267.08 787.1,-277.62 793.42,-274.61"/>
</a>
</g>
</g>
<!-- Node41 -->
<g id="Node000041" class="node">
<title>Node41</title>
<g id="a_Node000041"><a xlink:href="FrameInterpolation_8cpp.html#a5fbd67ef553452903cf553b9c224fa76" target="_top" xlink:title=" ">
<polygon fill="white" stroke="#666666" points="990,-259.5 862,-259.5 862,-229.5 990,-229.5 990,-259.5"/>
<text text-anchor="start" x="870" y="-247.5" font-family="Helvetica,sans-Serif" font-size="10.00">FrameInterpolation</text>
<text text-anchor="middle" x="926" y="-236.5" font-family="Helvetica,sans-Serif" font-size="10.00">_Record_SetTextMatrix</text>
</a>
</g>
</g>
<!-- Node40&#45;&gt;Node41 -->
<g id="edge50_Node000040_Node000041" class="edge">
<title>Node40&#45;&gt;Node41</title>
<g id="a_edge50_Node000040_Node000041"><a xlink:title=" ">
<path fill="none" stroke="#63b8ff" d="M807.36,-254.12C821.02,-253 836.65,-251.72 851.96,-250.47"/>
<polygon fill="#63b8ff" stroke="#63b8ff" points="852.27,-253.96 861.95,-249.65 851.7,-246.98 852.27,-253.96"/>
</a>
</g>
</g>
<!-- Node41&#45;&gt;Node21 -->
<g id="edge51_Node000041_Node000021" class="edge">
<title>Node41&#45;&gt;Node21</title>
<g id="a_edge51_Node000041_Node000021"><a xlink:title=" ">
<path fill="none" stroke="#63b8ff" d="M990.18,-236.71C1007.04,-234.63 1025.26,-232.39 1042.13,-230.31"/>
<polygon fill="#63b8ff" stroke="#63b8ff" points="1042.94,-233.74 1052.44,-229.04 1042.09,-226.79 1042.94,-233.74"/>
</a>
</g>
</g>
</g>
</svg>
