<?xml version="1.0" encoding="UTF-8" standalone="no"?>
<!DOCTYPE svg PUBLIC "-//W3C//DTD SVG 1.1//EN"
 "http://www.w3.org/Graphics/SVG/1.1/DTD/svg11.dtd">
<!-- Generated by graphviz version 2.43.0 (0)
 -->
<!-- Title: print_text0 Pages: 1 -->
<!--zoomable 523 -->

<svg id="main" version="1.1" xmlns="http://www.w3.org/2000/svg" xmlns:xlink="http://www.w3.org/1999/xlink" xml:space="preserve" onload="init(evt)">

<style type="text/css"><![CDATA[
.node, .edge {opacity: 0.7;}
.node.selected, .edge.selected {opacity: 1;}
.edge:hover path { stroke: red; }
.edge:hover polygon { stroke: red; fill: red; }
]]></style>

<defs>
  <circle id="rim" cx="0" cy="0" r="7"/>
  <circle id="rim2" cx="0" cy="0" r="3.5"/>
  <g id="zoomPlus">
    <use xlink:href="#rim" fill="#404040"><set attributeName="fill" to="#808080" begin="zoomplus.mouseover" end="zoomplus.mouseout"/></use>
    <path d="M-4,0h8M0,-4v8" fill="none" stroke="white" stroke-width="1.5" pointer-events="none"/>
  </g>
  <g id="zoomMin">
    <use xlink:href="#rim" fill="#404040"><set attributeName="fill" to="#808080" begin="zoomminus.mouseover" end="zoomminus.mouseout"/></use>
    <path d="M-4,0h8" fill="none" stroke="white" stroke-width="1.5" pointer-events="none"/>
  </g>
  <g id="arrowUp" transform="translate(30 24)">
    <use xlink:href="#rim"/>
    <path pointer-events="none" fill="none" stroke="white" stroke-width="1.5" d="M0,-3.0v7 M-2.5,-0.5L0,-3.0L2.5,-0.5"/>
  </g>
  <g id="arrowRight" transform="rotate(90) translate(36 -43)">
    <use xlink:href="#rim"/>
    <path pointer-events="none" fill="none" stroke="white" stroke-width="1.5" d="M0,-3.0v7 M-2.5,-0.5L0,-3.0L2.5,-0.5"/>
  </g>
  <g id="arrowDown" transform="rotate(180) translate(-30 -48)">
    <use xlink:href="#rim"/>
    <path pointer-events="none" fill="none" stroke="white" stroke-width="1.5" d="M0,-3.0v7 M-2.5,-0.5L0,-3.0L2.5,-0.5"/>
  </g>
  <g id="arrowLeft" transform="rotate(270) translate(-36 17)">
    <use xlink:href="#rim"/>
    <path pointer-events="none" fill="none" stroke="white" stroke-width="1.5" d="M0,-3.0v7 M-2.5,-0.5L0,-3.0L2.5,-0.5"/>
  </g>
  <g id="resetDef">
    <use xlink:href="#rim2" fill="#404040"><set attributeName="fill" to="#808080" begin="reset.mouseover" end="reset.mouseout"/></use>
  </g>
</defs>
<script type="application/ecmascript">
var viewWidth = 1176;
var viewHeight = 523;
var sectionId = 'dynsection-423';
</script>
<script type="application/ecmascript" xlink:href="svg.min.js"/>
<svg id="graph" class="graph">
<g id="viewport">
<title>print_text0</title>
<!-- Node1 -->
<g id="Node000001" class="node">
<title>Node1</title>
<g id="a_Node000001"><a xlink:title=" ">
<polygon fill="#999999" stroke="#666666" points="70,-390.5 0,-390.5 0,-371.5 70,-371.5 70,-390.5"/>
<text text-anchor="middle" x="35" y="-378.5" font-family="Helvetica,sans-Serif" font-size="10.00">print_text0</text>
</a>
</g>
</g>
<!-- Node2 -->
<g id="Node000002" class="node">
<title>Node2</title>
<g id="a_Node000002"><a xlink:href="menu__items_8c.html#ace62f40ce813c34904327e39643a0dbf" target="_top" xlink:title=" ">
<polygon fill="white" stroke="#666666" points="234,-476.5 117,-476.5 117,-457.5 234,-457.5 234,-476.5"/>
<text text-anchor="middle" x="175.5" y="-464.5" font-family="Helvetica,sans-Serif" font-size="10.00">char_to_glyph_index</text>
</a>
</g>
</g>
<!-- Node1&#45;&gt;Node2 -->
<g id="edge1_Node000001_Node000002" class="edge">
<title>Node1&#45;&gt;Node2</title>
<g id="a_edge1_Node000001_Node000002"><a xlink:title=" ">
<path fill="none" stroke="#63b8ff" d="M43.49,-390.76C55.23,-405.39 79.39,-432.87 106,-448 109.91,-450.22 114.09,-452.2 118.39,-453.95"/>
<polygon fill="#63b8ff" stroke="#63b8ff" points="117.33,-457.29 127.93,-457.44 119.74,-450.72 117.33,-457.29"/>
</a>
</g>
</g>
<!-- Node6 -->
<g id="Node000006" class="node">
<title>Node6</title>
<g id="a_Node000006"><a xlink:href="FrameInterpolation_8cpp.html#a14ceaeb116362786310778e36943f7be" target="_top" xlink:title=" ">
<polygon fill="white" stroke="#666666" points="245,-439 106,-439 106,-409 245,-409 245,-439"/>
<text text-anchor="start" x="114" y="-427" font-family="Helvetica,sans-Serif" font-size="10.00">FrameInterpolation</text>
<text text-anchor="middle" x="175.5" y="-416" font-family="Helvetica,sans-Serif" font-size="10.00">_ShouldInterpolateFrame</text>
</a>
</g>
</g>
<!-- Node1&#45;&gt;Node6 -->
<g id="edge6_Node000001_Node000006" class="edge">
<title>Node1&#45;&gt;Node6</title>
<g id="a_edge6_Node000001_Node000006"><a xlink:title=" ">
<path fill="none" stroke="#63b8ff" d="M66.74,-390.54C81.33,-395.07 99.26,-400.64 116.28,-405.93"/>
<polygon fill="#63b8ff" stroke="#63b8ff" points="115.58,-409.37 126.17,-408.99 117.65,-402.69 115.58,-409.37"/>
</a>
</g>
</g>
<!-- Node7 -->
<g id="Node000007" class="node">
<title>Node7</title>
<g id="a_Node000007"><a xlink:href="GBIMiddleware_8cpp.html#a4ecc44e3c6f1ca5a6b4a20c41d3bd2d2" target="_top" xlink:title=" ">
<polygon fill="white" stroke="#666666" points="670.5,-330.5 581.5,-330.5 581.5,-311.5 670.5,-311.5 670.5,-330.5"/>
<text text-anchor="middle" x="626" y="-318.5" font-family="Helvetica,sans-Serif" font-size="10.00">gSPDisplayList</text>
</a>
</g>
</g>
<!-- Node1&#45;&gt;Node7 -->
<g id="edge7_Node000001_Node000007" class="edge">
<title>Node1&#45;&gt;Node7</title>
<g id="a_edge7_Node000001_Node000007"><a xlink:title=" ">
<path fill="none" stroke="#63b8ff" d="M66.39,-371.43C78.59,-367.93 92.85,-364.28 106,-362 117.37,-360.03 440.88,-335.11 571.28,-325.11"/>
<polygon fill="#63b8ff" stroke="#63b8ff" points="571.74,-328.59 581.44,-324.33 571.21,-321.61 571.74,-328.59"/>
</a>
</g>
</g>
<!-- Node10 -->
<g id="Node000010" class="node">
<title>Node10</title>
<g id="a_Node000010"><a xlink:href="menu__items_8c.html#a68e560d23390d5add7cb57ccd82e21ae" target="_top" xlink:title=" ">
<polygon fill="white" stroke="#666666" points="223,-390.5 128,-390.5 128,-371.5 223,-371.5 223,-390.5"/>
<text text-anchor="middle" x="175.5" y="-378.5" font-family="Helvetica,sans-Serif" font-size="10.00">load_menu_img</text>
</a>
</g>
</g>
<!-- Node1&#45;&gt;Node10 -->
<g id="edge10_Node000001_Node000010" class="edge">
<title>Node1&#45;&gt;Node10</title>
<g id="a_edge10_Node000001_Node000010"><a xlink:title=" ">
<path fill="none" stroke="#63b8ff" d="M70.24,-381C84.5,-381 101.44,-381 117.48,-381"/>
<polygon fill="#63b8ff" stroke="#63b8ff" points="117.86,-384.5 127.86,-381 117.86,-377.5 117.86,-384.5"/>
</a>
</g>
</g>
<!-- Node12 -->
<g id="Node000012" class="node">
<title>Node12</title>
<g id="a_Node000012"><a xlink:href="menu__items_8c.html#aafca6e35a19465ad361e68b13e467243" target="_top" xlink:title=" ">
<polygon fill="white" stroke="#666666" points="211,-314.5 140,-314.5 140,-295.5 211,-295.5 211,-314.5"/>
<text text-anchor="middle" x="175.5" y="-302.5" font-family="Helvetica,sans-Serif" font-size="10.00">print_letter</text>
</a>
</g>
</g>
<!-- Node1&#45;&gt;Node12 -->
<g id="edge12_Node000001_Node000012" class="edge">
<title>Node1&#45;&gt;Node12</title>
<g id="a_edge12_Node000001_Node000012"><a xlink:title=" ">
<path fill="none" stroke="#63b8ff" d="M46.7,-371.42C59.86,-360.04 83.27,-341.07 106,-329 113.93,-324.79 122.74,-321.07 131.34,-317.89"/>
<polygon fill="#63b8ff" stroke="#63b8ff" points="132.62,-321.15 140.89,-314.53 130.3,-314.54 132.62,-321.15"/>
</a>
</g>
</g>
<!-- Node3 -->
<g id="Node000003" class="node">
<title>Node3</title>
<g id="a_Node000003"><a xlink:href="menu__items_8c.html#ae8ba1b567dba01ff15c64d416653a70b" target="_top" xlink:title=" ">
<polygon fill="white" stroke="#666666" points="373.5,-438.5 281.5,-438.5 281.5,-419.5 373.5,-419.5 373.5,-438.5"/>
<text text-anchor="middle" x="327.5" y="-426.5" font-family="Helvetica,sans-Serif" font-size="10.00">func_80092DF8</text>
</a>
</g>
</g>
<!-- Node2&#45;&gt;Node3 -->
<g id="edge2_Node000002_Node000003" class="edge">
<title>Node2&#45;&gt;Node3</title>
<g id="a_edge2_Node000002_Node000003"><a xlink:title=" ">
<path fill="none" stroke="#63b8ff" d="M214.35,-457.41C233.97,-452.44 258.12,-446.32 278.98,-441.04"/>
<polygon fill="#63b8ff" stroke="#63b8ff" points="280.09,-444.37 288.92,-438.52 278.37,-437.58 280.09,-444.37"/>
</a>
</g>
</g>
<!-- Node4 -->
<g id="Node000004" class="node">
<title>Node4</title>
<g id="a_Node000004"><a xlink:href="menu__items_8c.html#acd5b29a8e8634aa4f3db4b9a7c5ba033" target="_top" xlink:title=" ">
<polygon fill="white" stroke="#666666" points="511,-457.5 419,-457.5 419,-438.5 511,-438.5 511,-457.5"/>
<text text-anchor="middle" x="465" y="-445.5" font-family="Helvetica,sans-Serif" font-size="10.00">func_80092E1C</text>
</a>
</g>
</g>
<!-- Node2&#45;&gt;Node4 -->
<g id="edge4_Node000002_Node000004" class="edge">
<title>Node2&#45;&gt;Node4</title>
<g id="a_edge4_Node000002_Node000004"><a xlink:title=" ">
<path fill="none" stroke="#63b8ff" d="M234.33,-463.18C285.26,-459.81 358.92,-454.94 408.99,-451.64"/>
<polygon fill="#63b8ff" stroke="#63b8ff" points="409.24,-455.13 418.99,-450.97 408.78,-448.14 409.24,-455.13"/>
</a>
</g>
</g>
<!-- Node5 -->
<g id="Node000005" class="node">
<title>Node5</title>
<g id="a_Node000005"><a xlink:href="menu__items_8c.html#ab26c8dca1828cd1d5a6c341cb851f0b9" target="_top" xlink:title=" ">
<polygon fill="white" stroke="#666666" points="373,-514.5 282,-514.5 282,-495.5 373,-495.5 373,-514.5"/>
<text text-anchor="middle" x="327.5" y="-502.5" font-family="Helvetica,sans-Serif" font-size="10.00">func_80092EE4</text>
</a>
</g>
</g>
<!-- Node2&#45;&gt;Node5 -->
<g id="edge5_Node000002_Node000005" class="edge">
<title>Node2&#45;&gt;Node5</title>
<g id="a_edge5_Node000002_Node000005"><a xlink:title=" ">
<path fill="none" stroke="#63b8ff" d="M214.35,-476.59C233.97,-481.56 258.12,-487.68 278.98,-492.96"/>
<polygon fill="#63b8ff" stroke="#63b8ff" points="278.37,-496.42 288.92,-495.48 280.09,-489.63 278.37,-496.42"/>
</a>
</g>
</g>
<!-- Node3&#45;&gt;Node4 -->
<g id="edge3_Node000003_Node000004" class="edge">
<title>Node3&#45;&gt;Node4</title>
<g id="a_edge3_Node000003_Node000004"><a xlink:title=" ">
<path fill="none" stroke="#63b8ff" d="M373.62,-435.33C384.81,-436.9 396.94,-438.6 408.56,-440.23"/>
<polygon fill="#63b8ff" stroke="#63b8ff" points="408.23,-443.71 418.62,-441.64 409.2,-436.78 408.23,-443.71"/>
</a>
</g>
</g>
<!-- Node8 -->
<g id="Node000008" class="node">
<title>Node8</title>
<g id="a_Node000008"><a xlink:href="Engine_8cpp.html#a223c8bc63f228dc11177515e38eff2db" target="_top" xlink:title=" ">
<polygon fill="white" stroke="#666666" points="881,-293.5 732,-293.5 732,-274.5 881,-274.5 881,-293.5"/>
<text text-anchor="middle" x="806.5" y="-281.5" font-family="Helvetica,sans-Serif" font-size="10.00">GameEngine_OTRSigCheck</text>
</a>
</g>
</g>
<!-- Node7&#45;&gt;Node8 -->
<g id="edge8_Node000007_Node000008" class="edge">
<title>Node7&#45;&gt;Node8</title>
<g id="a_edge8_Node000007_Node000008"><a xlink:title=" ">
<path fill="none" stroke="#63b8ff" d="M670.67,-311.95C694.45,-307.02 724.13,-300.87 749.59,-295.59"/>
<polygon fill="#63b8ff" stroke="#63b8ff" points="750.4,-299 759.48,-293.54 748.98,-292.14 750.4,-299"/>
</a>
</g>
</g>
<!-- Node9 -->
<g id="Node000009" class="node">
<title>Node9</title>
<g id="a_Node000009"><a xlink:href="string_8c.html#a008e171a518fe0e0352f31b245e03875" target="_top" xlink:title=" ">
<polygon fill="white" stroke="#666666" points="963.5,-293.5 919.5,-293.5 919.5,-274.5 963.5,-274.5 963.5,-293.5"/>
<text text-anchor="middle" x="941.5" y="-281.5" font-family="Helvetica,sans-Serif" font-size="10.00">strlen</text>
</a>
</g>
</g>
<!-- Node8&#45;&gt;Node9 -->
<g id="edge9_Node000008_Node000009" class="edge">
<title>Node8&#45;&gt;Node9</title>
<g id="a_edge9_Node000008_Node000009"><a xlink:title=" ">
<path fill="none" stroke="#63b8ff" d="M881,-284C890.89,-284 900.56,-284 909.14,-284"/>
<polygon fill="#63b8ff" stroke="#63b8ff" points="909.36,-287.5 919.36,-284 909.36,-280.5 909.36,-287.5"/>
</a>
</g>
</g>
<!-- Node11 -->
<g id="Node000011" class="node">
<title>Node11</title>
<g id="a_Node000011"><a xlink:href="menu__items_8c.html#a248768ee2e4ca9ae9cf0a30bfb256859" target="_top" xlink:title=" ">
<polygon fill="white" stroke="#666666" points="366.5,-390.5 288.5,-390.5 288.5,-371.5 366.5,-371.5 366.5,-390.5"/>
<text text-anchor="middle" x="327.5" y="-378.5" font-family="Helvetica,sans-Serif" font-size="10.00">load_texture</text>
</a>
</g>
</g>
<!-- Node10&#45;&gt;Node11 -->
<g id="edge11_Node000010_Node000011" class="edge">
<title>Node10&#45;&gt;Node11</title>
<g id="a_edge11_Node000010_Node000011"><a xlink:title=" ">
<path fill="none" stroke="#63b8ff" d="M223.14,-381C240.68,-381 260.65,-381 278.33,-381"/>
<polygon fill="#63b8ff" stroke="#63b8ff" points="278.44,-384.5 288.44,-381 278.44,-377.5 278.44,-384.5"/>
</a>
</g>
</g>
<!-- Node12&#45;&gt;Node7 -->
<g id="edge46_Node000012_Node000007" class="edge">
<title>Node12&#45;&gt;Node7</title>
<g id="a_edge46_Node000012_Node000007"><a xlink:title=" ">
<path fill="none" stroke="#63b8ff" d="M211.32,-306.24C289.28,-309.02 478.32,-315.77 571.4,-319.09"/>
<polygon fill="#63b8ff" stroke="#63b8ff" points="571.34,-322.59 581.46,-319.45 571.59,-315.59 571.34,-322.59"/>
</a>
</g>
</g>
<!-- Node13 -->
<g id="Node000013" class="node">
<title>Node13</title>
<g id="a_Node000013"><a xlink:href="menu__items_8c.html#a37eb021a953285ba504198ac6ca73a9a" target="_top" xlink:title=" ">
<polygon fill="white" stroke="#666666" points="374,-181.5 281,-181.5 281,-162.5 374,-162.5 374,-181.5"/>
<text text-anchor="middle" x="327.5" y="-169.5" font-family="Helvetica,sans-Serif" font-size="10.00">func_80095BD0</text>
</a>
</g>
</g>
<!-- Node12&#45;&gt;Node13 -->
<g id="edge13_Node000012_Node000013" class="edge">
<title>Node12&#45;&gt;Node13</title>
<g id="a_edge13_Node000012_Node000013"><a xlink:title=" ">
<path fill="none" stroke="#63b8ff" d="M187.29,-295.43C212.57,-273.02 275.91,-216.86 307.69,-188.68"/>
<polygon fill="#63b8ff" stroke="#63b8ff" points="310.25,-191.09 315.41,-181.84 305.6,-185.85 310.25,-191.09"/>
</a>
</g>
</g>
<!-- Node14 -->
<g id="Node000014" class="node">
<title>Node14</title>
<g id="a_Node000014"><a xlink:href="Matrix_8cpp.html#a6f64c44efb9bdfff802175a9739ce1f1" target="_top" xlink:title=" ">
<polygon fill="white" stroke="#666666" points="508.5,-138.5 421.5,-138.5 421.5,-119.5 508.5,-119.5 508.5,-138.5"/>
<text text-anchor="middle" x="465" y="-126.5" font-family="Helvetica,sans-Serif" font-size="10.00">AddTextMatrix</text>
</a>
</g>
</g>
<!-- Node13&#45;&gt;Node14 -->
<g id="edge14_Node000013_Node000014" class="edge">
<title>Node13&#45;&gt;Node14</title>
<g id="a_edge14_Node000013_Node000014"><a xlink:title=" ">
<path fill="none" stroke="#63b8ff" d="M358.57,-162.46C377.96,-156.31 403.38,-148.24 424.4,-141.57"/>
<polygon fill="#63b8ff" stroke="#63b8ff" points="425.54,-144.88 434.01,-138.52 423.42,-138.21 425.54,-144.88"/>
</a>
</g>
</g>
<!-- Node18 -->
<g id="Node000018" class="node">
<title>Node18</title>
<g id="a_Node000018"><a xlink:href="FrameInterpolation_8cpp.html#a3a036bc9d533e28a4e9697cd20dccf3e" target="_top" xlink:title=" ">
<polygon fill="white" stroke="#666666" points="520,-30 410,-30 410,0 520,0 520,-30"/>
<text text-anchor="start" x="418" y="-18" font-family="Helvetica,sans-Serif" font-size="10.00">FrameInterpolation</text>
<text text-anchor="middle" x="465" y="-7" font-family="Helvetica,sans-Serif" font-size="10.00">_RecordCloseChild</text>
</a>
</g>
</g>
<!-- Node13&#45;&gt;Node18 -->
<g id="edge18_Node000013_Node000018" class="edge">
<title>Node13&#45;&gt;Node18</title>
<g id="a_edge18_Node000013_Node000018"><a xlink:title=" ">
<path fill="none" stroke="#63b8ff" d="M332.08,-162.27C341.37,-138.25 368.45,-75.41 410,-39 411.33,-37.84 412.72,-36.72 414.16,-35.66"/>
<polygon fill="#63b8ff" stroke="#63b8ff" points="416.36,-38.4 422.87,-30.04 412.57,-32.52 416.36,-38.4"/>
</a>
</g>
</g>
<!-- Node19 -->
<g id="Node000019" class="node">
<title>Node19</title>
<g id="a_Node000019"><a xlink:href="FrameInterpolation_8cpp.html#a0eda726b74eac815af4e874014e2727c" target="_top" xlink:title=" ">
<polygon fill="white" stroke="#666666" points="520,-187 410,-187 410,-157 520,-157 520,-187"/>
<text text-anchor="start" x="418" y="-175" font-family="Helvetica,sans-Serif" font-size="10.00">FrameInterpolation</text>
<text text-anchor="middle" x="465" y="-164" font-family="Helvetica,sans-Serif" font-size="10.00">_RecordOpenChild</text>
</a>
</g>
</g>
<!-- Node13&#45;&gt;Node19 -->
<g id="edge20_Node000013_Node000019" class="edge">
<title>Node13&#45;&gt;Node19</title>
<g id="a_edge20_Node000013_Node000019"><a xlink:title=" ">
<path fill="none" stroke="#63b8ff" d="M374.37,-172C382.45,-172 391,-172 399.47,-172"/>
<polygon fill="#63b8ff" stroke="#63b8ff" points="399.74,-175.5 409.74,-172 399.74,-168.5 399.74,-175.5"/>
</a>
</g>
</g>
<!-- Node20 -->
<g id="Node000020" class="node">
<title>Node20</title>
<g id="a_Node000020"><a xlink:href="menu__items_8c.html#ae0fd5923ba70cf6939cd3fa8d09c1191" target="_top" xlink:title=" ">
<polygon fill="white" stroke="#666666" points="510.5,-276.5 419.5,-276.5 419.5,-257.5 510.5,-257.5 510.5,-276.5"/>
<text text-anchor="middle" x="465" y="-264.5" font-family="Helvetica,sans-Serif" font-size="10.00">func_800959F8</text>
</a>
</g>
</g>
<!-- Node13&#45;&gt;Node20 -->
<g id="edge22_Node000013_Node000020" class="edge">
<title>Node13&#45;&gt;Node20</title>
<g id="a_edge22_Node000013_Node000020"><a xlink:title=" ">
<path fill="none" stroke="#63b8ff" d="M340.7,-181.62C356.44,-193.91 384.8,-215.68 410,-233 419.31,-239.4 429.78,-246.1 439,-251.84"/>
<polygon fill="#63b8ff" stroke="#63b8ff" points="437.36,-254.95 447.71,-257.22 441.04,-248.99 437.36,-254.95"/>
</a>
</g>
</g>
<!-- Node22 -->
<g id="Node000022" class="node">
<title>Node22</title>
<g id="a_Node000022"><a xlink:href="stubs_8c.html#a8b417b868747c80d58f83d8a1e78ecf3" target="_top" xlink:title=" ">
<polygon fill="white" stroke="#666666" points="499,-224.5 431,-224.5 431,-205.5 499,-205.5 499,-224.5"/>
<text text-anchor="middle" x="465" y="-212.5" font-family="Helvetica,sans-Serif" font-size="10.00">rmonPrintf</text>
</a>
</g>
</g>
<!-- Node13&#45;&gt;Node22 -->
<g id="edge26_Node000013_Node000022" class="edge">
<title>Node13&#45;&gt;Node22</title>
<g id="a_edge26_Node000013_Node000022"><a xlink:title=" ">
<path fill="none" stroke="#63b8ff" d="M358.57,-181.54C377.96,-187.69 403.38,-195.76 424.4,-202.43"/>
<polygon fill="#63b8ff" stroke="#63b8ff" points="423.42,-205.79 434.01,-205.48 425.54,-199.12 423.42,-205.79"/>
</a>
</g>
</g>
<!-- Node35 -->
<g id="Node000035" class="node">
<title>Node35</title>
<g id="a_Node000035"><a xlink:href="Matrix_8cpp.html#a9818099a1ee20606a7d622e744846366" target="_top" xlink:title=" ">
<polygon fill="white" stroke="#666666" points="507,-67.5 423,-67.5 423,-48.5 507,-48.5 507,-67.5"/>
<text text-anchor="middle" x="465" y="-55.5" font-family="Helvetica,sans-Serif" font-size="10.00">SetTextMatrix</text>
</a>
</g>
</g>
<!-- Node13&#45;&gt;Node35 -->
<g id="edge42_Node000013_Node000035" class="edge">
<title>Node13&#45;&gt;Node35</title>
<g id="a_edge42_Node000013_Node000035"><a xlink:title=" ">
<path fill="none" stroke="#63b8ff" d="M340.05,-162.28C363.35,-142.68 416.19,-98.23 444.77,-74.18"/>
<polygon fill="#63b8ff" stroke="#63b8ff" points="447.08,-76.81 452.48,-67.69 442.57,-71.45 447.08,-76.81"/>
</a>
</g>
</g>
<!-- Node15 -->
<g id="Node000015" class="node">
<title>Node15</title>
<g id="a_Node000015"><a xlink:href="FrameInterpolation_8cpp.html#a8cf1f2d6fabc6925aa71a9515341b4aa" target="_top" xlink:title=" ">
<polygon fill="white" stroke="#666666" points="696,-106 556,-106 556,-76 696,-76 696,-106"/>
<text text-anchor="start" x="564" y="-94" font-family="Helvetica,sans-Serif" font-size="10.00">FrameInterpolation</text>
<text text-anchor="middle" x="626" y="-83" font-family="Helvetica,sans-Serif" font-size="10.00">_RecordMatrixMtxFToMtx</text>
</a>
</g>
</g>
<!-- Node14&#45;&gt;Node15 -->
<g id="edge15_Node000014_Node000015" class="edge">
<title>Node14&#45;&gt;Node15</title>
<g id="a_edge15_Node000014_Node000015"><a xlink:title=" ">
<path fill="none" stroke="#63b8ff" d="M506.12,-119.41C520.14,-116.06 536.34,-112.19 552.19,-108.4"/>
<polygon fill="#63b8ff" stroke="#63b8ff" points="553.08,-111.79 561.99,-106.06 551.45,-104.98 553.08,-111.79"/>
</a>
</g>
</g>
<!-- Node17 -->
<g id="Node000017" class="node">
<title>Node17</title>
<g id="a_Node000017"><a xlink:href="guMtxF2L_8c.html#a40ab2d64c609839ff1e0ef0de2d0dcc4" target="_top" xlink:title=" ">
<polygon fill="white" stroke="#666666" points="658.5,-143.5 593.5,-143.5 593.5,-124.5 658.5,-124.5 658.5,-143.5"/>
<text text-anchor="middle" x="626" y="-131.5" font-family="Helvetica,sans-Serif" font-size="10.00">guMtxF2L</text>
</a>
</g>
</g>
<!-- Node14&#45;&gt;Node17 -->
<g id="edge17_Node000014_Node000017" class="edge">
<title>Node14&#45;&gt;Node17</title>
<g id="a_edge17_Node000014_Node000017"><a xlink:title=" ">
<path fill="none" stroke="#63b8ff" d="M508.61,-130.34C531.74,-131.07 560.23,-131.96 583.23,-132.69"/>
<polygon fill="#63b8ff" stroke="#63b8ff" points="583.27,-136.19 593.38,-133.01 583.49,-129.19 583.27,-136.19"/>
</a>
</g>
</g>
<!-- Node16 -->
<g id="Node000016" class="node">
<title>Node16</title>
<g id="a_Node000016"><a xlink:href="FrameInterpolation_8cpp.html#a02c7ac5342a4d376edee38f312b480bf" target="_top" xlink:title=" ">
<polygon fill="white" stroke="#666666" points="860.5,-76.5 752.5,-76.5 752.5,-57.5 860.5,-57.5 860.5,-76.5"/>
<text text-anchor="middle" x="806.5" y="-64.5" font-family="Helvetica,sans-Serif" font-size="10.00">check_if_recording</text>
</a>
</g>
</g>
<!-- Node15&#45;&gt;Node16 -->
<g id="edge16_Node000015_Node000016" class="edge">
<title>Node15&#45;&gt;Node16</title>
<g id="a_edge16_Node000015_Node000016"><a xlink:title=" ">
<path fill="none" stroke="#63b8ff" d="M696.01,-81.72C711.24,-79.67 727.29,-77.52 742.27,-75.5"/>
<polygon fill="#63b8ff" stroke="#63b8ff" points="743.01,-78.93 752.45,-74.13 742.07,-72 743.01,-78.93"/>
</a>
</g>
</g>
<!-- Node18&#45;&gt;Node16 -->
<g id="edge19_Node000018_Node000016" class="edge">
<title>Node18&#45;&gt;Node16</title>
<g id="a_edge19_Node000018_Node000016"><a xlink:title=" ">
<path fill="none" stroke="#63b8ff" d="M520.14,-9.99C567.19,-7.05 636.89,-6.08 696,-19 726.38,-25.64 758.71,-40.95 780.3,-52.51"/>
<polygon fill="#63b8ff" stroke="#63b8ff" points="778.68,-55.61 789.13,-57.35 782.05,-49.48 778.68,-55.61"/>
</a>
</g>
</g>
<!-- Node19&#45;&gt;Node16 -->
<g id="edge21_Node000019_Node000016" class="edge">
<title>Node19&#45;&gt;Node16</title>
<g id="a_edge21_Node000019_Node000016"><a xlink:title=" ">
<path fill="none" stroke="#63b8ff" d="M520.01,-175.76C567.9,-177.15 638.9,-174.37 696,-152 734.38,-136.96 770.41,-104 790.07,-83.83"/>
<polygon fill="#63b8ff" stroke="#63b8ff" points="792.64,-86.2 796.99,-76.55 787.57,-81.38 792.64,-86.2"/>
</a>
</g>
</g>
<!-- Node20&#45;&gt;Node7 -->
<g id="edge23_Node000020_Node000007" class="edge">
<title>Node20&#45;&gt;Node7</title>
<g id="a_edge23_Node000020_Node000007"><a xlink:title=" ">
<path fill="none" stroke="#63b8ff" d="M488.7,-276.57C506.76,-284 532.76,-294.31 556,-302 562.97,-304.31 570.41,-306.57 577.72,-308.67"/>
<polygon fill="#63b8ff" stroke="#63b8ff" points="576.97,-312.1 587.55,-311.44 578.87,-305.36 576.97,-312.1"/>
</a>
</g>
</g>
<!-- Node21 -->
<g id="Node000021" class="node">
<title>Node21</title>
<g id="a_Node000021"><a xlink:href="GBIMiddleware_8cpp.html#aeef79449a27a710d73576e4a4f7f7f99" target="_top" xlink:title=" ">
<polygon fill="white" stroke="#666666" points="659,-293.5 593,-293.5 593,-274.5 659,-274.5 659,-293.5"/>
<text text-anchor="middle" x="626" y="-281.5" font-family="Helvetica,sans-Serif" font-size="10.00">gSPVertex</text>
</a>
</g>
</g>
<!-- Node20&#45;&gt;Node21 -->
<g id="edge24_Node000020_Node000021" class="edge">
<title>Node20&#45;&gt;Node21</title>
<g id="a_edge24_Node000020_Node000021"><a xlink:title=" ">
<path fill="none" stroke="#63b8ff" d="M510.71,-271.78C533.23,-274.19 560.39,-277.09 582.58,-279.46"/>
<polygon fill="#63b8ff" stroke="#63b8ff" points="582.4,-282.96 592.71,-280.55 583.14,-276 582.4,-282.96"/>
</a>
</g>
</g>
<!-- Node21&#45;&gt;Node8 -->
<g id="edge25_Node000021_Node000008" class="edge">
<title>Node21&#45;&gt;Node8</title>
<g id="a_edge25_Node000021_Node000008"><a xlink:title=" ">
<path fill="none" stroke="#63b8ff" d="M659.33,-284C676.92,-284 699.59,-284 721.8,-284"/>
<polygon fill="#63b8ff" stroke="#63b8ff" points="721.95,-287.5 731.95,-284 721.95,-280.5 721.95,-287.5"/>
</a>
</g>
</g>
<!-- Node23 -->
<g id="Node000023" class="node">
<title>Node23</title>
<g id="a_Node000023"><a xlink:href="__Printf_8c.html#a39bb05c90efce6c6790c5d58d271d72d" target="_top" xlink:title=" ">
<polygon fill="white" stroke="#666666" points="650,-219.5 602,-219.5 602,-200.5 650,-200.5 650,-219.5"/>
<text text-anchor="middle" x="626" y="-207.5" font-family="Helvetica,sans-Serif" font-size="10.00">_Printf</text>
</a>
</g>
</g>
<!-- Node22&#45;&gt;Node23 -->
<g id="edge27_Node000022_Node000023" class="edge">
<title>Node22&#45;&gt;Node23</title>
<g id="a_edge27_Node000022_Node000023"><a xlink:title=" ">
<path fill="none" stroke="#63b8ff" d="M499.33,-213.95C526.5,-213.1 564.69,-211.9 591.82,-211.04"/>
<polygon fill="#63b8ff" stroke="#63b8ff" points="592.1,-214.54 601.99,-210.72 591.88,-207.54 592.1,-214.54"/>
</a>
</g>
</g>
<!-- Node34 -->
<g id="Node000034" class="node">
<title>Node34</title>
<g id="a_Node000034"><a xlink:href="is__debug_8c.html#aaccfac8d9098530b6592eefe679d86b4" target="_top" xlink:title=" ">
<polygon fill="white" stroke="#666666" points="678.5,-256.5 573.5,-256.5 573.5,-237.5 678.5,-237.5 678.5,-256.5"/>
<text text-anchor="middle" x="626" y="-244.5" font-family="Helvetica,sans-Serif" font-size="10.00">is_proutSyncPrintf</text>
</a>
</g>
</g>
<!-- Node22&#45;&gt;Node34 -->
<g id="edge41_Node000022_Node000034" class="edge">
<title>Node22&#45;&gt;Node34</title>
<g id="a_edge41_Node000022_Node000034"><a xlink:title=" ">
<path fill="none" stroke="#63b8ff" d="M499.33,-221.71C519.08,-225.68 544.65,-230.83 567.57,-235.44"/>
<polygon fill="#63b8ff" stroke="#63b8ff" points="567.04,-238.91 577.54,-237.45 568.43,-232.04 567.04,-238.91"/>
</a>
</g>
</g>
<!-- Node24 -->
<g id="Node000024" class="node">
<title>Node24</title>
<g id="a_Node000024"><a xlink:href="__Printf_8c.html#ad73a5847f2d7c9de14cc2723da86bf45" target="_top" xlink:title=" ">
<polygon fill="white" stroke="#666666" points="831.5,-256.5 781.5,-256.5 781.5,-237.5 831.5,-237.5 831.5,-256.5"/>
<text text-anchor="middle" x="806.5" y="-244.5" font-family="Helvetica,sans-Serif" font-size="10.00">_Putfld</text>
</a>
</g>
</g>
<!-- Node23&#45;&gt;Node24 -->
<g id="edge28_Node000023_Node000024" class="edge">
<title>Node23&#45;&gt;Node24</title>
<g id="a_edge28_Node000023_Node000024"><a xlink:title=" ">
<path fill="none" stroke="#63b8ff" d="M650.34,-214.84C681.21,-221.24 735.87,-232.57 771.39,-239.93"/>
<polygon fill="#63b8ff" stroke="#63b8ff" points="770.8,-243.38 781.3,-241.98 772.22,-236.53 770.8,-243.38"/>
</a>
</g>
</g>
<!-- Node33 -->
<g id="Node000033" class="node">
<title>Node33</title>
<g id="a_Node000033"><a xlink:href="string_8c.html#a988b4defe51a1815ef3b9ddab10e7a89" target="_top" xlink:title=" ">
<polygon fill="white" stroke="#666666" points="828.5,-219.5 784.5,-219.5 784.5,-200.5 828.5,-200.5 828.5,-219.5"/>
<text text-anchor="middle" x="806.5" y="-207.5" font-family="Helvetica,sans-Serif" font-size="10.00">strchr</text>
</a>
</g>
</g>
<!-- Node23&#45;&gt;Node33 -->
<g id="edge40_Node000023_Node000033" class="edge">
<title>Node23&#45;&gt;Node33</title>
<g id="a_edge40_Node000023_Node000033"><a xlink:title=" ">
<path fill="none" stroke="#63b8ff" d="M650.34,-210C682.02,-210 738.76,-210 774.14,-210"/>
<polygon fill="#63b8ff" stroke="#63b8ff" points="774.38,-213.5 784.38,-210 774.38,-206.5 774.38,-213.5"/>
</a>
</g>
</g>
<!-- Node24&#45;&gt;Node9 -->
<g id="edge39_Node000024_Node000009" class="edge">
<title>Node24&#45;&gt;Node9</title>
<g id="a_edge39_Node000024_Node000009"><a xlink:title=" ">
<path fill="none" stroke="#63b8ff" d="M831.78,-252.5C846.15,-255.87 864.69,-260.4 881,-265 890.43,-267.66 900.61,-270.8 909.84,-273.76"/>
<polygon fill="#63b8ff" stroke="#63b8ff" points="908.81,-277.11 919.4,-276.87 910.97,-270.45 908.81,-277.11"/>
</a>
</g>
</g>
<!-- Node25 -->
<g id="Node000025" class="node">
<title>Node25</title>
<g id="a_Node000025"><a xlink:href="__Ldtob_8c.html#a7cc858157b66e15c831ad085113729ae" target="_top" xlink:title=" ">
<polygon fill="white" stroke="#666666" points="966,-162.5 917,-162.5 917,-143.5 966,-143.5 966,-162.5"/>
<text text-anchor="middle" x="941.5" y="-150.5" font-family="Helvetica,sans-Serif" font-size="10.00">_Ldtob</text>
</a>
</g>
</g>
<!-- Node24&#45;&gt;Node25 -->
<g id="edge29_Node000024_Node000025" class="edge">
<title>Node24&#45;&gt;Node25</title>
<g id="a_edge29_Node000024_Node000025"><a xlink:title=" ">
<path fill="none" stroke="#63b8ff" d="M831.58,-244.73C846.75,-242.38 866.19,-237.63 881,-228 902.78,-213.84 920.15,-189.01 930.37,-171.82"/>
<polygon fill="#63b8ff" stroke="#63b8ff" points="933.64,-173.14 935.54,-162.72 927.56,-169.68 933.64,-173.14"/>
</a>
</g>
</g>
<!-- Node31 -->
<g id="Node000031" class="node">
<title>Node31</title>
<g id="a_Node000031"><a xlink:href="__Litob_8c.html#aaaba3b0ab7920d422a61fe9e22600dd0" target="_top" xlink:title=" ">
<polygon fill="white" stroke="#666666" points="964.5,-256.5 918.5,-256.5 918.5,-237.5 964.5,-237.5 964.5,-256.5"/>
<text text-anchor="middle" x="941.5" y="-244.5" font-family="Helvetica,sans-Serif" font-size="10.00">_Litob</text>
</a>
</g>
</g>
<!-- Node24&#45;&gt;Node31 -->
<g id="edge36_Node000024_Node000031" class="edge">
<title>Node24&#45;&gt;Node31</title>
<g id="a_edge36_Node000024_Node000031"><a xlink:title=" ">
<path fill="none" stroke="#63b8ff" d="M831.59,-247C853.01,-247 884.51,-247 908.13,-247"/>
<polygon fill="#63b8ff" stroke="#63b8ff" points="908.36,-250.5 918.36,-247 908.36,-243.5 908.36,-250.5"/>
</a>
</g>
</g>
<!-- Node26 -->
<g id="Node000026" class="node">
<title>Node26</title>
<g id="a_Node000026"><a xlink:href="__Ldtob_8c.html#a2b6c5318b43bab1636bad9113ffb2761" target="_top" xlink:title=" ">
<polygon fill="white" stroke="#666666" points="1062.5,-180.5 1012.5,-180.5 1012.5,-161.5 1062.5,-161.5 1062.5,-180.5"/>
<text text-anchor="middle" x="1037.5" y="-168.5" font-family="Helvetica,sans-Serif" font-size="10.00">_Genld</text>
</a>
</g>
</g>
<!-- Node25&#45;&gt;Node26 -->
<g id="edge30_Node000025_Node000026" class="edge">
<title>Node25&#45;&gt;Node26</title>
<g id="a_edge30_Node000025_Node000026"><a xlink:title=" ">
<path fill="none" stroke="#63b8ff" d="M966.22,-157.54C977.16,-159.64 990.34,-162.16 1002.33,-164.46"/>
<polygon fill="#63b8ff" stroke="#63b8ff" points="1001.98,-167.95 1012.46,-166.4 1003.3,-161.08 1001.98,-167.95"/>
</a>
</g>
</g>
<!-- Node27 -->
<g id="Node000027" class="node">
<title>Node27</title>
<g id="a_Node000027"><a xlink:href="string_8c.html#ad7f1ae1bbb49dece44bda378982a704d" target="_top" xlink:title=" ">
<polygon fill="white" stroke="#666666" points="1168,-218.5 1109,-218.5 1109,-199.5 1168,-199.5 1168,-218.5"/>
<text text-anchor="middle" x="1138.5" y="-206.5" font-family="Helvetica,sans-Serif" font-size="10.00">memcpy</text>
</a>
</g>
</g>
<!-- Node25&#45;&gt;Node27 -->
<g id="edge34_Node000025_Node000027" class="edge">
<title>Node25&#45;&gt;Node27</title>
<g id="a_edge34_Node000025_Node000027"><a xlink:title=" ">
<path fill="none" stroke="#63b8ff" d="M954.98,-162.59C966.53,-170.96 984.5,-182.71 1002,-189 1033.45,-200.31 1071.21,-205.23 1098.87,-207.37"/>
<polygon fill="#63b8ff" stroke="#63b8ff" points="1098.72,-210.87 1108.94,-208.06 1099.2,-203.88 1098.72,-210.87"/>
</a>
</g>
</g>
<!-- Node28 -->
<g id="Node000028" class="node">
<title>Node28</title>
<g id="a_Node000028"><a xlink:href="__Ldtob_8c.html#ab7ade9ce60aaa8baa0244b503351d742" target="_top" xlink:title=" ">
<polygon fill="white" stroke="#666666" points="1073,-143.5 1002,-143.5 1002,-124.5 1073,-124.5 1073,-143.5"/>
<text text-anchor="middle" x="1037.5" y="-131.5" font-family="Helvetica,sans-Serif" font-size="10.00">_Ldunscale</text>
</a>
</g>
</g>
<!-- Node25&#45;&gt;Node28 -->
<g id="edge32_Node000025_Node000028" class="edge">
<title>Node25&#45;&gt;Node28</title>
<g id="a_edge32_Node000025_Node000028"><a xlink:title=" ">
<path fill="none" stroke="#63b8ff" d="M966.22,-148.21C974.04,-146.62 983.02,-144.81 991.88,-143.02"/>
<polygon fill="#63b8ff" stroke="#63b8ff" points="992.66,-146.43 1001.77,-141.02 991.28,-139.57 992.66,-146.43"/>
</a>
</g>
</g>
<!-- Node29 -->
<g id="Node000029" class="node">
<title>Node29</title>
<g id="a_Node000029"><a xlink:href="ldiv_8c.html#a0302920caf64a5fbe1ce0862799d7784" target="_top" xlink:title=" ">
<polygon fill="white" stroke="#666666" points="1055,-106.5 1020,-106.5 1020,-87.5 1055,-87.5 1055,-106.5"/>
<text text-anchor="middle" x="1037.5" y="-94.5" font-family="Helvetica,sans-Serif" font-size="10.00">ldiv</text>
</a>
</g>
</g>
<!-- Node25&#45;&gt;Node29 -->
<g id="edge33_Node000025_Node000029" class="edge">
<title>Node25&#45;&gt;Node29</title>
<g id="a_edge33_Node000025_Node000029"><a xlink:title=" ">
<path fill="none" stroke="#63b8ff" d="M956.95,-143.27C968.87,-135.37 986.3,-124.09 1002,-115 1004.87,-113.34 1007.9,-111.66 1010.93,-110.02"/>
<polygon fill="#63b8ff" stroke="#63b8ff" points="1012.63,-113.08 1019.84,-105.32 1009.37,-106.89 1012.63,-113.08"/>
</a>
</g>
</g>
<!-- Node30 -->
<g id="Node000030" class="node">
<title>Node30</title>
<g id="a_Node000030"><a xlink:href="alBnkfNew_8c.html#a96a0200a6b40350e524f536d232ecb53" target="_top" xlink:title=" ">
<polygon fill="white" stroke="#666666" points="1063.5,-69.5 1011.5,-69.5 1011.5,-50.5 1063.5,-50.5 1063.5,-69.5"/>
<text text-anchor="middle" x="1037.5" y="-57.5" font-family="Helvetica,sans-Serif" font-size="10.00">unused</text>
</a>
</g>
</g>
<!-- Node25&#45;&gt;Node30 -->
<g id="edge35_Node000025_Node000030" class="edge">
<title>Node25&#45;&gt;Node30</title>
<g id="a_edge35_Node000025_Node000030"><a xlink:title=" ">
<path fill="none" stroke="#63b8ff" d="M948.38,-143.16C958,-127.7 978.42,-97.48 1002,-78 1003.32,-76.91 1004.73,-75.85 1006.18,-74.84"/>
<polygon fill="#63b8ff" stroke="#63b8ff" points="1008.13,-77.74 1014.83,-69.53 1004.47,-71.78 1008.13,-77.74"/>
</a>
</g>
</g>
<!-- Node26&#45;&gt;Node27 -->
<g id="edge31_Node000026_Node000027" class="edge">
<title>Node26&#45;&gt;Node27</title>
<g id="a_edge31_Node000026_Node000027"><a xlink:title=" ">
<path fill="none" stroke="#63b8ff" d="M1062.72,-180.3C1074.88,-184.96 1089.82,-190.7 1103.15,-195.81"/>
<polygon fill="#63b8ff" stroke="#63b8ff" points="1101.91,-199.09 1112.5,-199.4 1104.42,-192.55 1101.91,-199.09"/>
</a>
</g>
</g>
<!-- Node31&#45;&gt;Node27 -->
<g id="edge38_Node000031_Node000027" class="edge">
<title>Node31&#45;&gt;Node27</title>
<g id="a_edge38_Node000031_Node000027"><a xlink:title=" ">
<path fill="none" stroke="#63b8ff" d="M964.71,-243.14C990.71,-238.56 1035.05,-230.61 1073,-223 1081.48,-221.3 1090.56,-219.39 1099.16,-217.53"/>
<polygon fill="#63b8ff" stroke="#63b8ff" points="1099.94,-220.95 1108.96,-215.4 1098.45,-214.11 1099.94,-220.95"/>
</a>
</g>
</g>
<!-- Node32 -->
<g id="Node000032" class="node">
<title>Node32</title>
<g id="a_Node000032"><a xlink:href="ldiv_8c.html#a5b23c3639f11980dca762c5f1d74f339" target="_top" xlink:title=" ">
<polygon fill="white" stroke="#666666" points="1056.5,-294.5 1018.5,-294.5 1018.5,-275.5 1056.5,-275.5 1056.5,-294.5"/>
<text text-anchor="middle" x="1037.5" y="-282.5" font-family="Helvetica,sans-Serif" font-size="10.00">lldiv</text>
</a>
</g>
</g>
<!-- Node31&#45;&gt;Node32 -->
<g id="edge37_Node000031_Node000032" class="edge">
<title>Node31&#45;&gt;Node32</title>
<g id="a_edge37_Node000031_Node000032"><a xlink:title=" ">
<path fill="none" stroke="#63b8ff" d="M964.78,-256.01C977.97,-261.34 994.8,-268.14 1008.84,-273.82"/>
<polygon fill="#63b8ff" stroke="#63b8ff" points="1007.89,-277.21 1018.47,-277.71 1010.52,-270.72 1007.89,-277.21"/>
</a>
</g>
</g>
<!-- Node35&#45;&gt;Node35 -->
<g id="edge45_Node000035_Node000035" class="edge">
<title>Node35&#45;&gt;Node35</title>
<g id="a_edge45_Node000035_Node000035"><a xlink:title=" ">
<path fill="none" stroke="#63b8ff" d="M444.04,-67.58C433.84,-76.23 440.83,-85.5 465,-85.5 480.49,-85.5 488.92,-81.7 490.3,-76.69"/>
<polygon fill="#63b8ff" stroke="#63b8ff" points="493.42,-75.11 485.96,-67.58 487.1,-78.12 493.42,-75.11"/>
</a>
</g>
</g>
<!-- Node36 -->
<g id="Node000036" class="node">
<title>Node36</title>
<g id="a_Node000036"><a xlink:href="FrameInterpolation_8cpp.html#a5fbd67ef553452903cf553b9c224fa76" target="_top" xlink:title=" ">
<polygon fill="white" stroke="#666666" points="690,-58 562,-58 562,-28 690,-28 690,-58"/>
<text text-anchor="start" x="570" y="-46" font-family="Helvetica,sans-Serif" font-size="10.00">FrameInterpolation</text>
<text text-anchor="middle" x="626" y="-35" font-family="Helvetica,sans-Serif" font-size="10.00">_Record_SetTextMatrix</text>
</a>
</g>
</g>
<!-- Node35&#45;&gt;Node36 -->
<g id="edge43_Node000035_Node000036" class="edge">
<title>Node35&#45;&gt;Node36</title>
<g id="a_edge43_Node000035_Node000036"><a xlink:title=" ">
<path fill="none" stroke="#63b8ff" d="M507.36,-54.1C521.02,-52.81 536.65,-51.33 551.96,-49.89"/>
<polygon fill="#63b8ff" stroke="#63b8ff" points="552.33,-53.37 561.95,-48.95 551.67,-46.4 552.33,-53.37"/>
</a>
</g>
</g>
<!-- Node36&#45;&gt;Node16 -->
<g id="edge44_Node000036_Node000016" class="edge">
<title>Node36&#45;&gt;Node16</title>
<g id="a_edge44_Node000036_Node000016"><a xlink:title=" ">
<path fill="none" stroke="#63b8ff" d="M690.18,-51.5C707.04,-53.76 725.26,-56.21 742.13,-58.48"/>
<polygon fill="#63b8ff" stroke="#63b8ff" points="742.06,-62 752.44,-59.87 742.99,-55.06 742.06,-62"/>
</a>
</g>
</g>
</g>
</svg>

<g id="navigator" transform="translate(0 0)" fill="#404254">
  <rect fill="#f2f5e9" fill-opacity="0.5" stroke="#606060" stroke-width=".5" x="0" y="0" width="60" height="60"/>
  <use id="zoomplus" xlink:href="#zoomPlus" x="17" y="9" onmousedown="handleZoom(evt,'in')"/>
  <use id="zoomminus" xlink:href="#zoomMin" x="42" y="9" onmousedown="handleZoom(evt,'out')"/>
  <use id="reset" xlink:href="#resetDef" x="30" y="36" onmousedown="handleReset()"/>
   <use id="arrowup" xlink:href="#arrowUp" x="0" y="0" onmousedown="handlePan(0,-1)"/>
  <use id="arrowright" xlink:href="#arrowRight" x="0" y="0" onmousedown="handlePan(1,0)"/>
  <use id="arrowdown" xlink:href="#arrowDown" x="0" y="0" onmousedown="handlePan(0,1)"/>
  <use id="arrowleft" xlink:href="#arrowLeft" x="0" y="0" onmousedown="handlePan(-1,0)"/>
</g>
<svg viewBox="0 0 15 15" width="100%" height="30px" preserveAspectRatio="xMaxYMin meet">
 <g id="arrow_out" transform="scale(0.3 0.3)">
  <a xlink:href="menu__items_8c_a07904969a6bc8374f305d668f432b26a_cgraph_org.svg" target="_base">
   <rect id="button" ry="5" rx="5" y="6" x="6" height="38" width="38"
        fill="#f2f5e9" fill-opacity="0.5" stroke="#606060" stroke-width="1.0"/>
   <path id="arrow"
     d="M 11.500037,31.436501 C 11.940474,20.09759 22.043105,11.32322 32.158766,21.979434 L 37.068811,17.246167 C 37.068811,17.246167 37.088388,32 37.088388,32 L 22.160133,31.978069 C 22.160133,31.978069 26.997745,27.140456 26.997745,27.140456 C 18.528582,18.264221 13.291696,25.230495 11.500037,31.436501 z"
     style="fill:#404040;"/>
  </a>
 </g>
</svg>

<style type='text/css'>
<![CDATA[
[data-mouse-over-selected='false'] { opacity: 0.7; }
[data-mouse-over-selected='true']  { opacity: 1.0; }
]]>
</style>
<script type="application/ecmascript"><![CDATA[
document.addEventListener('DOMContentLoaded', (event) => {
  highlightEdges();
  highlightAdjacentNodes();
});
]]></script>
</svg>
