<?xml version="1.0" encoding="UTF-8" standalone="no"?>
<!DOCTYPE svg PUBLIC "-//W3C//DTD SVG 1.1//EN"
 "http://www.w3.org/Graphics/SVG/1.1/DTD/svg11.dtd">
<!-- Generated by graphviz version 2.43.0 (0)
 -->
<!-- Title: func_80094660 Pages: 1 -->
<!--zoomable 298 -->

<svg id="main" version="1.1" xmlns="http://www.w3.org/2000/svg" xmlns:xlink="http://www.w3.org/1999/xlink" xml:space="preserve" onload="init(evt)">

<style type="text/css"><![CDATA[
.node, .edge {opacity: 0.7;}
.node.selected, .edge.selected {opacity: 1;}
.edge:hover path { stroke: red; }
.edge:hover polygon { stroke: red; fill: red; }
]]></style>

<defs>
  <circle id="rim" cx="0" cy="0" r="7"/>
  <circle id="rim2" cx="0" cy="0" r="3.5"/>
  <g id="zoomPlus">
    <use xlink:href="#rim" fill="#404040"><set attributeName="fill" to="#808080" begin="zoomplus.mouseover" end="zoomplus.mouseout"/></use>
    <path d="M-4,0h8M0,-4v8" fill="none" stroke="white" stroke-width="1.5" pointer-events="none"/>
  </g>
  <g id="zoomMin">
    <use xlink:href="#rim" fill="#404040"><set attributeName="fill" to="#808080" begin="zoomminus.mouseover" end="zoomminus.mouseout"/></use>
    <path d="M-4,0h8" fill="none" stroke="white" stroke-width="1.5" pointer-events="none"/>
  </g>
  <g id="arrowUp" transform="translate(30 24)">
    <use xlink:href="#rim"/>
    <path pointer-events="none" fill="none" stroke="white" stroke-width="1.5" d="M0,-3.0v7 M-2.5,-0.5L0,-3.0L2.5,-0.5"/>
  </g>
  <g id="arrowRight" transform="rotate(90) translate(36 -43)">
    <use xlink:href="#rim"/>
    <path pointer-events="none" fill="none" stroke="white" stroke-width="1.5" d="M0,-3.0v7 M-2.5,-0.5L0,-3.0L2.5,-0.5"/>
  </g>
  <g id="arrowDown" transform="rotate(180) translate(-30 -48)">
    <use xlink:href="#rim"/>
    <path pointer-events="none" fill="none" stroke="white" stroke-width="1.5" d="M0,-3.0v7 M-2.5,-0.5L0,-3.0L2.5,-0.5"/>
  </g>
  <g id="arrowLeft" transform="rotate(270) translate(-36 17)">
    <use xlink:href="#rim"/>
    <path pointer-events="none" fill="none" stroke="white" stroke-width="1.5" d="M0,-3.0v7 M-2.5,-0.5L0,-3.0L2.5,-0.5"/>
  </g>
  <g id="resetDef">
    <use xlink:href="#rim2" fill="#404040"><set attributeName="fill" to="#808080" begin="reset.mouseover" end="reset.mouseout"/></use>
  </g>
</defs>
<script type="application/ecmascript">
var viewWidth = 766;
var viewHeight = 298;
var sectionId = 'dynsection-99';
</script>
<script type="application/ecmascript" xlink:href="svg.min.js"/>
<svg id="graph" class="graph">
<g id="viewport">
<title>func_80094660</title>
<!-- Node1 -->
<g id="Node000001" class="node">
<title>Node1</title>
<g id="a_Node000001"><a xlink:title=" ">
<polygon fill="#999999" stroke="#666666" points="91,-214 0,-214 0,-195 91,-195 91,-214"/>
<text text-anchor="middle" x="45.5" y="-202" font-family="Helvetica,sans-Serif" font-size="10.00">func_80094660</text>
</a>
</g>
</g>
<!-- Node2 -->
<g id="Node000002" class="node">
<title>Node2</title>
<g id="a_Node000002"><a xlink:href="menu__items_8c.html#adbd28a1b1d900463cb8b1fb645179c71" target="_top" xlink:title=" ">
<polygon fill="white" stroke="#666666" points="219,-214 127,-214 127,-195 219,-195 219,-214"/>
<text text-anchor="middle" x="173" y="-202" font-family="Helvetica,sans-Serif" font-size="10.00">func_800942D0</text>
</a>
</g>
</g>
<!-- Node1&#45;&gt;Node2 -->
<g id="edge1_Node000001_Node000002" class="edge">
<title>Node1&#45;&gt;Node2</title>
<g id="a_edge1_Node000001_Node000002"><a xlink:title=" ">
<path fill="none" stroke="#63b8ff" d="M91.1,-204.5C99.31,-204.5 107.98,-204.5 116.47,-204.5"/>
<polygon fill="#63b8ff" stroke="#63b8ff" points="116.7,-208 126.7,-204.5 116.7,-201 116.7,-208"/>
</a>
</g>
</g>
<!-- Node3 -->
<g id="Node000003" class="node">
<title>Node3</title>
<g id="a_Node000003"><a xlink:href="Matrix_8cpp.html#acacd5a06b0529a80220125925294944f" target="_top" xlink:title=" ">
<polygon fill="white" stroke="#666666" points="354,-290 255,-290 255,-271 354,-271 354,-290"/>
<text text-anchor="middle" x="304.5" y="-278" font-family="Helvetica,sans-Serif" font-size="10.00">GetLookAtMatrix</text>
</a>
</g>
</g>
<!-- Node1&#45;&gt;Node3 -->
<g id="edge22_Node000001_Node000003" class="edge">
<title>Node1&#45;&gt;Node3</title>
<g id="a_edge22_Node000001_Node000003"><a xlink:title=" ">
<path fill="none" stroke="#63b8ff" d="M63.26,-214.12C79.2,-222.9 104.07,-235.68 127,-243.5 165.29,-256.57 209.91,-265.87 244.7,-271.88"/>
<polygon fill="#63b8ff" stroke="#63b8ff" points="244.26,-275.36 254.7,-273.57 245.42,-268.45 244.26,-275.36"/>
</a>
</g>
</g>
<!-- Node4 -->
<g id="Node000004" class="node">
<title>Node4</title>
<g id="a_Node000004"><a xlink:href="Matrix_8cpp.html#a01fc250c2f6e1cd103c61068f9168032" target="_top" xlink:title=" ">
<polygon fill="white" stroke="#666666" points="350.5,-253 258.5,-253 258.5,-234 350.5,-234 350.5,-253"/>
<text text-anchor="middle" x="304.5" y="-241" font-family="Helvetica,sans-Serif" font-size="10.00">GetPerspMatrix</text>
</a>
</g>
</g>
<!-- Node1&#45;&gt;Node4 -->
<g id="edge23_Node000001_Node000004" class="edge">
<title>Node1&#45;&gt;Node4</title>
<g id="a_edge23_Node000001_Node000004"><a xlink:title=" ">
<path fill="none" stroke="#63b8ff" d="M82.78,-214.03C96.55,-217.39 112.43,-220.96 127,-223.5 167.37,-230.53 213.39,-235.65 248.31,-238.95"/>
<polygon fill="#63b8ff" stroke="#63b8ff" points="248.03,-242.44 258.31,-239.87 248.68,-235.47 248.03,-242.44"/>
</a>
</g>
</g>
<!-- Node20 -->
<g id="Node000020" class="node">
<title>Node20</title>
<g id="a_Node000020"><a xlink:href="guLookAtF_8c.html#a8641b89f7767fe85370ca7d198ef5566" target="_top" xlink:title=" ">
<polygon fill="white" stroke="#666666" points="335.5,-68 273.5,-68 273.5,-49 335.5,-49 335.5,-68"/>
<text text-anchor="middle" x="304.5" y="-56" font-family="Helvetica,sans-Serif" font-size="10.00">guLookAt</text>
</a>
</g>
</g>
<!-- Node1&#45;&gt;Node20 -->
<g id="edge24_Node000001_Node000020" class="edge">
<title>Node1&#45;&gt;Node20</title>
<g id="a_edge24_Node000001_Node000020"><a xlink:title=" ">
<path fill="none" stroke="#63b8ff" d="M60.1,-194.78C92.57,-171.89 177.69,-113.7 255,-76.5 258.4,-74.87 261.98,-73.28 265.61,-71.78"/>
<polygon fill="#63b8ff" stroke="#63b8ff" points="267.16,-74.93 275.17,-68 264.59,-68.42 267.16,-74.93"/>
</a>
</g>
</g>
<!-- Node22 -->
<g id="Node000022" class="node">
<title>Node22</title>
<g id="a_Node000022"><a xlink:href="guPerspectiveF_8c.html#ac2050885d6967becf0e5e3bb3e54bd08" target="_top" xlink:title=" ">
<polygon fill="white" stroke="#666666" points="347.5,-142 261.5,-142 261.5,-123 347.5,-123 347.5,-142"/>
<text text-anchor="middle" x="304.5" y="-130" font-family="Helvetica,sans-Serif" font-size="10.00">guPerspective</text>
</a>
</g>
</g>
<!-- Node1&#45;&gt;Node22 -->
<g id="edge30_Node000001_Node000022" class="edge">
<title>Node1&#45;&gt;Node22</title>
<g id="a_edge30_Node000001_Node000022"><a xlink:title=" ">
<path fill="none" stroke="#63b8ff" d="M80.63,-194.94C126.71,-182.03 208.88,-159.01 259.54,-144.82"/>
<polygon fill="#63b8ff" stroke="#63b8ff" points="260.55,-148.17 269.23,-142.1 258.66,-141.43 260.55,-148.17"/>
</a>
</g>
</g>
<!-- Node2&#45;&gt;Node3 -->
<g id="edge2_Node000002_Node000003" class="edge">
<title>Node2&#45;&gt;Node3</title>
<g id="a_edge2_Node000002_Node000003"><a xlink:title=" ">
<path fill="none" stroke="#63b8ff" d="M185.43,-214.19C200.55,-226.66 228.42,-248.38 255,-262.5 258.07,-264.13 261.31,-265.68 264.62,-267.13"/>
<polygon fill="#63b8ff" stroke="#63b8ff" points="263.39,-270.41 273.97,-270.97 266.05,-263.94 263.39,-270.41"/>
</a>
</g>
</g>
<!-- Node2&#45;&gt;Node4 -->
<g id="edge3_Node000002_Node000004" class="edge">
<title>Node2&#45;&gt;Node4</title>
<g id="a_edge3_Node000002_Node000004"><a xlink:title=" ">
<path fill="none" stroke="#63b8ff" d="M205.68,-214.04C222.61,-219.14 243.67,-225.48 261.9,-230.97"/>
<polygon fill="#63b8ff" stroke="#63b8ff" points="261.11,-234.39 271.7,-233.92 263.13,-227.69 261.11,-234.39"/>
</a>
</g>
</g>
<!-- Node5 -->
<g id="Node000005" class="node">
<title>Node5</title>
<g id="a_Node000005"><a xlink:href="GBIMiddleware_8cpp.html#a4ecc44e3c6f1ca5a6b4a20c41d3bd2d2" target="_top" xlink:title=" ">
<polygon fill="white" stroke="#666666" points="349,-216 260,-216 260,-197 349,-197 349,-216"/>
<text text-anchor="middle" x="304.5" y="-204" font-family="Helvetica,sans-Serif" font-size="10.00">gSPDisplayList</text>
</a>
</g>
</g>
<!-- Node2&#45;&gt;Node5 -->
<g id="edge4_Node000002_Node000005" class="edge">
<title>Node2&#45;&gt;Node5</title>
<g id="a_edge4_Node000002_Node000005"><a xlink:title=" ">
<path fill="none" stroke="#63b8ff" d="M219.29,-205.2C229.04,-205.35 239.43,-205.51 249.47,-205.67"/>
<polygon fill="#63b8ff" stroke="#63b8ff" points="249.71,-209.17 259.76,-205.82 249.81,-202.17 249.71,-209.17"/>
</a>
</g>
</g>
<!-- Node8 -->
<g id="Node000008" class="node">
<title>Node8</title>
<g id="a_Node000008"><a xlink:href="guRotateF_8c.html#a98ec2e0b2831b168feffd49493a08134" target="_top" xlink:title=" ">
<polygon fill="white" stroke="#666666" points="335,-179 274,-179 274,-160 335,-160 335,-179"/>
<text text-anchor="middle" x="304.5" y="-167" font-family="Helvetica,sans-Serif" font-size="10.00">guRotate</text>
</a>
</g>
</g>
<!-- Node2&#45;&gt;Node8 -->
<g id="edge7_Node000002_Node000008" class="edge">
<title>Node2&#45;&gt;Node8</title>
<g id="a_edge7_Node000002_Node000008"><a xlink:title=" ">
<path fill="none" stroke="#63b8ff" d="M209.39,-194.94C226.29,-190.37 246.58,-184.88 263.98,-180.18"/>
<polygon fill="#63b8ff" stroke="#63b8ff" points="265.11,-183.5 273.85,-177.51 263.28,-176.74 265.11,-183.5"/>
</a>
</g>
</g>
<!-- Node18 -->
<g id="Node000018" class="node">
<title>Node18</title>
<g id="a_Node000018"><a xlink:href="guScaleF_8c.html#a42e27e884f27d0dd332f140ef599b723" target="_top" xlink:title=" ">
<polygon fill="white" stroke="#666666" points="332,-105 277,-105 277,-86 332,-86 332,-105"/>
<text text-anchor="middle" x="304.5" y="-93" font-family="Helvetica,sans-Serif" font-size="10.00">guScale</text>
</a>
</g>
</g>
<!-- Node2&#45;&gt;Node18 -->
<g id="edge17_Node000002_Node000018" class="edge">
<title>Node2&#45;&gt;Node18</title>
<g id="a_edge17_Node000002_Node000018"><a xlink:title=" ">
<path fill="none" stroke="#63b8ff" d="M180.43,-194.75C192.85,-176.61 221.82,-137.48 255,-114.5 258.83,-111.85 263.07,-109.5 267.42,-107.43"/>
<polygon fill="#63b8ff" stroke="#63b8ff" points="269.14,-110.5 276.96,-103.36 266.39,-104.07 269.14,-110.5"/>
</a>
</g>
</g>
<!-- Node6 -->
<g id="Node000006" class="node">
<title>Node6</title>
<g id="a_Node000006"><a xlink:href="Engine_8cpp.html#a223c8bc63f228dc11177515e38eff2db" target="_top" xlink:title=" ">
<polygon fill="white" stroke="#666666" points="539,-268 390,-268 390,-249 539,-249 539,-268"/>
<text text-anchor="middle" x="464.5" y="-256" font-family="Helvetica,sans-Serif" font-size="10.00">GameEngine_OTRSigCheck</text>
</a>
</g>
</g>
<!-- Node5&#45;&gt;Node6 -->
<g id="edge5_Node000005_Node000006" class="edge">
<title>Node5&#45;&gt;Node6</title>
<g id="a_edge5_Node000005_Node000006"><a xlink:title=" ">
<path fill="none" stroke="#63b8ff" d="M334.48,-216.04C359.79,-224.37 396.74,-236.53 424.62,-245.7"/>
<polygon fill="#63b8ff" stroke="#63b8ff" points="423.84,-249.13 434.44,-248.93 426.03,-242.48 423.84,-249.13"/>
</a>
</g>
</g>
<!-- Node7 -->
<g id="Node000007" class="node">
<title>Node7</title>
<g id="a_Node000007"><a xlink:href="string_8c.html#a008e171a518fe0e0352f31b245e03875" target="_top" xlink:title=" ">
<polygon fill="white" stroke="#666666" points="651,-268 607,-268 607,-249 651,-249 651,-268"/>
<text text-anchor="middle" x="629" y="-256" font-family="Helvetica,sans-Serif" font-size="10.00">strlen</text>
</a>
</g>
</g>
<!-- Node6&#45;&gt;Node7 -->
<g id="edge6_Node000006_Node000007" class="edge">
<title>Node6&#45;&gt;Node7</title>
<g id="a_edge6_Node000006_Node000007"><a xlink:title=" ">
<path fill="none" stroke="#63b8ff" d="M539.14,-258.5C559.4,-258.5 580.28,-258.5 596.72,-258.5"/>
<polygon fill="#63b8ff" stroke="#63b8ff" points="596.82,-262 606.82,-258.5 596.82,-255 596.82,-262"/>
</a>
</g>
</g>
<!-- Node9 -->
<g id="Node000009" class="node">
<title>Node9</title>
<g id="a_Node000009"><a xlink:href="FrameInterpolation_8cpp.html#a8cf1f2d6fabc6925aa71a9515341b4aa" target="_top" xlink:title=" ">
<polygon fill="white" stroke="#666666" points="534.5,-104.5 394.5,-104.5 394.5,-74.5 534.5,-74.5 534.5,-104.5"/>
<text text-anchor="start" x="402.5" y="-92.5" font-family="Helvetica,sans-Serif" font-size="10.00">FrameInterpolation</text>
<text text-anchor="middle" x="464.5" y="-81.5" font-family="Helvetica,sans-Serif" font-size="10.00">_RecordMatrixMtxFToMtx</text>
</a>
</g>
</g>
<!-- Node8&#45;&gt;Node9 -->
<g id="edge8_Node000008_Node000009" class="edge">
<title>Node8&#45;&gt;Node9</title>
<g id="a_edge8_Node000008_Node000009"><a xlink:title=" ">
<path fill="none" stroke="#63b8ff" d="M335.23,-160.84C341.68,-158.32 348.28,-155.22 354,-151.5 373.23,-138.98 370.6,-126.75 390,-114.5 393.3,-112.41 396.8,-110.48 400.4,-108.69"/>
<polygon fill="#63b8ff" stroke="#63b8ff" points="401.89,-111.86 409.54,-104.53 398.99,-105.49 401.89,-111.86"/>
</a>
</g>
</g>
<!-- Node11 -->
<g id="Node000011" class="node">
<title>Node11</title>
<g id="a_Node000011"><a xlink:href="guMtxF2L_8c.html#a40ab2d64c609839ff1e0ef0de2d0dcc4" target="_top" xlink:title=" ">
<polygon fill="white" stroke="#666666" points="497,-142 432,-142 432,-123 497,-123 497,-142"/>
<text text-anchor="middle" x="464.5" y="-130" font-family="Helvetica,sans-Serif" font-size="10.00">guMtxF2L</text>
</a>
</g>
</g>
<!-- Node8&#45;&gt;Node11 -->
<g id="edge10_Node000008_Node000011" class="edge">
<title>Node8&#45;&gt;Node11</title>
<g id="a_edge10_Node000008_Node000011"><a xlink:title=" ">
<path fill="none" stroke="#63b8ff" d="M335.22,-162.54C359.63,-156.82 394.5,-148.66 421.72,-142.28"/>
<polygon fill="#63b8ff" stroke="#63b8ff" points="422.81,-145.62 431.75,-139.94 421.21,-138.81 422.81,-145.62"/>
</a>
</g>
</g>
<!-- Node12 -->
<g id="Node000012" class="node">
<title>Node12</title>
<g id="a_Node000012"><a xlink:href="guRotateF_8c.html#a6bf4235e1732340bfcbde49454bd63ff" target="_top" xlink:title=" ">
<polygon fill="white" stroke="#666666" points="498,-216 431,-216 431,-197 498,-197 498,-216"/>
<text text-anchor="middle" x="464.5" y="-204" font-family="Helvetica,sans-Serif" font-size="10.00">guRotateF</text>
</a>
</g>
</g>
<!-- Node8&#45;&gt;Node12 -->
<g id="edge11_Node000008_Node000012" class="edge">
<title>Node8&#45;&gt;Node12</title>
<g id="a_edge11_Node000008_Node000012"><a xlink:title=" ">
<path fill="none" stroke="#63b8ff" d="M335.22,-176.46C359.39,-182.12 393.82,-190.18 420.93,-196.53"/>
<polygon fill="#63b8ff" stroke="#63b8ff" points="420.38,-200 430.92,-198.87 421.98,-193.18 420.38,-200"/>
</a>
</g>
</g>
<!-- Node10 -->
<g id="Node000010" class="node">
<title>Node10</title>
<g id="a_Node000010"><a xlink:href="FrameInterpolation_8cpp.html#a02c7ac5342a4d376edee38f312b480bf" target="_top" xlink:title=" ">
<polygon fill="white" stroke="#666666" points="683,-83 575,-83 575,-64 683,-64 683,-83"/>
<text text-anchor="middle" x="629" y="-71" font-family="Helvetica,sans-Serif" font-size="10.00">check_if_recording</text>
</a>
</g>
</g>
<!-- Node9&#45;&gt;Node10 -->
<g id="edge9_Node000009_Node000010" class="edge">
<title>Node9&#45;&gt;Node10</title>
<g id="a_edge9_Node000009_Node000010"><a xlink:title=" ">
<path fill="none" stroke="#63b8ff" d="M534.89,-82.67C544.75,-81.7 554.84,-80.7 564.58,-79.74"/>
<polygon fill="#63b8ff" stroke="#63b8ff" points="564.97,-83.22 574.58,-78.76 564.28,-76.26 564.97,-83.22"/>
</a>
</g>
</g>
<!-- Node13 -->
<g id="Node000013" class="node">
<title>Node13</title>
<g id="a_Node000013"><a xlink:href="cosf_8c.html#a7b126b2344591e649c21c9ab0b8adb40" target="_top" xlink:title=" ">
<polygon fill="white" stroke="#666666" points="647.5,-157 610.5,-157 610.5,-138 647.5,-138 647.5,-157"/>
<text text-anchor="middle" x="629" y="-145" font-family="Helvetica,sans-Serif" font-size="10.00">cosf</text>
</a>
</g>
</g>
<!-- Node12&#45;&gt;Node13 -->
<g id="edge12_Node000012_Node000013" class="edge">
<title>Node12&#45;&gt;Node13</title>
<g id="a_edge12_Node000012_Node000013"><a xlink:title=" ">
<path fill="none" stroke="#63b8ff" d="M498.02,-200.79C511.05,-197.93 526.02,-193.9 539,-188.5 556.31,-181.3 558.09,-174.59 575,-166.5 583.15,-162.6 592.32,-159.04 600.72,-156.08"/>
<polygon fill="#63b8ff" stroke="#63b8ff" points="602.1,-159.31 610.45,-152.79 599.86,-152.68 602.1,-159.31"/>
</a>
</g>
</g>
<!-- Node14 -->
<g id="Node000014" class="node">
<title>Node14</title>
<g id="a_Node000014"><a xlink:href="guMtxF2L_8c.html#a257a86497fc08677370948eda3163595" target="_top" xlink:title=" ">
<polygon fill="white" stroke="#666666" points="668,-120 590,-120 590,-101 668,-101 668,-120"/>
<text text-anchor="middle" x="629" y="-108" font-family="Helvetica,sans-Serif" font-size="10.00">guMtxIdentF</text>
</a>
</g>
</g>
<!-- Node12&#45;&gt;Node14 -->
<g id="edge13_Node000012_Node000014" class="edge">
<title>Node12&#45;&gt;Node14</title>
<g id="a_edge13_Node000012_Node000014"><a xlink:title=" ">
<path fill="none" stroke="#63b8ff" d="M498.2,-204C511.85,-201.64 527.23,-197.11 539,-188.5 563.79,-170.36 551.18,-148.9 575,-129.5 577.06,-127.83 579.27,-126.29 581.59,-124.89"/>
<polygon fill="#63b8ff" stroke="#63b8ff" points="583.62,-127.78 590.92,-120.1 580.42,-121.56 583.62,-127.78"/>
</a>
</g>
</g>
<!-- Node15 -->
<g id="Node000015" class="node">
<title>Node15</title>
<g id="a_Node000015"><a xlink:href="guNormalize_8c.html#a7ad49cccf7be1e598544b9f0b35b5e28" target="_top" xlink:title=" ">
<polygon fill="white" stroke="#666666" points="668.5,-231 589.5,-231 589.5,-212 668.5,-212 668.5,-231"/>
<text text-anchor="middle" x="629" y="-219" font-family="Helvetica,sans-Serif" font-size="10.00">guNormalize</text>
</a>
</g>
</g>
<!-- Node12&#45;&gt;Node15 -->
<g id="edge14_Node000012_Node000015" class="edge">
<title>Node12&#45;&gt;Node15</title>
<g id="a_edge14_Node000012_Node000015"><a xlink:title=" ">
<path fill="none" stroke="#63b8ff" d="M498.38,-209.54C521.64,-211.68 553.2,-214.6 579.35,-217.01"/>
<polygon fill="#63b8ff" stroke="#63b8ff" points="579.17,-220.51 589.45,-217.94 579.82,-213.54 579.17,-220.51"/>
</a>
</g>
</g>
<!-- Node17 -->
<g id="Node000017" class="node">
<title>Node17</title>
<g id="a_Node000017"><a xlink:href="sinf_8c.html#a8a7dc2a88e109f4e15b661247665709a" target="_top" xlink:title=" ">
<polygon fill="white" stroke="#666666" points="646.5,-194 611.5,-194 611.5,-175 646.5,-175 646.5,-194"/>
<text text-anchor="middle" x="629" y="-182" font-family="Helvetica,sans-Serif" font-size="10.00">sinf</text>
</a>
</g>
</g>
<!-- Node12&#45;&gt;Node17 -->
<g id="edge16_Node000012_Node000017" class="edge">
<title>Node12&#45;&gt;Node17</title>
<g id="a_edge16_Node000012_Node000017"><a xlink:title=" ">
<path fill="none" stroke="#63b8ff" d="M498.38,-202.05C528.65,-197.95 572.98,-191.95 601.16,-188.13"/>
<polygon fill="#63b8ff" stroke="#63b8ff" points="601.67,-191.6 611.11,-186.79 600.73,-184.66 601.67,-191.6"/>
</a>
</g>
</g>
<!-- Node16 -->
<g id="Node000016" class="node">
<title>Node16</title>
<g id="a_Node000016"><a xlink:href="math_8h.html#a37bde043e94a6f074c78f10518fb5d99" target="_top" xlink:title=" ">
<polygon fill="white" stroke="#666666" points="758,-133 719,-133 719,-114 758,-114 758,-133"/>
<text text-anchor="middle" x="738.5" y="-121" font-family="Helvetica,sans-Serif" font-size="10.00">sqrtf</text>
</a>
</g>
</g>
<!-- Node15&#45;&gt;Node16 -->
<g id="edge15_Node000015_Node000016" class="edge">
<title>Node15&#45;&gt;Node16</title>
<g id="a_edge15_Node000015_Node000016"><a xlink:title=" ">
<path fill="none" stroke="#63b8ff" d="M668.02,-211.98C673.34,-209.7 678.51,-206.91 683,-203.5 704.23,-187.35 720.09,-160.47 729.07,-142.38"/>
<polygon fill="#63b8ff" stroke="#63b8ff" points="732.34,-143.66 733.45,-133.12 726.01,-140.66 732.34,-143.66"/>
</a>
</g>
</g>
<!-- Node18&#45;&gt;Node9 -->
<g id="edge18_Node000018_Node000009" class="edge">
<title>Node18&#45;&gt;Node9</title>
<g id="a_edge18_Node000018_Node000009"><a xlink:title=" ">
<path fill="none" stroke="#63b8ff" d="M332.3,-94.48C346.78,-93.93 365.49,-93.22 384.23,-92.51"/>
<polygon fill="#63b8ff" stroke="#63b8ff" points="384.44,-96 394.3,-92.13 384.18,-89.01 384.44,-96"/>
</a>
</g>
</g>
<!-- Node18&#45;&gt;Node11 -->
<g id="edge19_Node000018_Node000011" class="edge">
<title>Node18&#45;&gt;Node11</title>
<g id="a_edge19_Node000018_Node000011"><a xlink:title=" ">
<path fill="none" stroke="#63b8ff" d="M332.3,-101.78C356.85,-107.52 393.56,-116.12 421.91,-122.76"/>
<polygon fill="#63b8ff" stroke="#63b8ff" points="421.4,-126.24 431.94,-125.11 423,-119.42 421.4,-126.24"/>
</a>
</g>
</g>
<!-- Node19 -->
<g id="Node000019" class="node">
<title>Node19</title>
<g id="a_Node000019"><a xlink:href="guScaleF_8c.html#a19b9397a765b8eb04c94f9cdd554cdba" target="_top" xlink:title=" ">
<polygon fill="white" stroke="#666666" points="495,-56 434,-56 434,-37 495,-37 495,-56"/>
<text text-anchor="middle" x="464.5" y="-44" font-family="Helvetica,sans-Serif" font-size="10.00">guScaleF</text>
</a>
</g>
</g>
<!-- Node18&#45;&gt;Node19 -->
<g id="edge20_Node000018_Node000019" class="edge">
<title>Node18&#45;&gt;Node19</title>
<g id="a_edge20_Node000018_Node000019"><a xlink:title=" ">
<path fill="none" stroke="#63b8ff" d="M330.45,-85.99C347.17,-79.78 369.76,-71.7 390,-65.5 400.9,-62.16 412.83,-58.91 423.85,-56.07"/>
<polygon fill="#63b8ff" stroke="#63b8ff" points="424.82,-59.43 433.65,-53.58 423.1,-52.65 424.82,-59.43"/>
</a>
</g>
</g>
<!-- Node19&#45;&gt;Node14 -->
<g id="edge21_Node000019_Node000014" class="edge">
<title>Node19&#45;&gt;Node14</title>
<g id="a_edge21_Node000019_Node000014"><a xlink:title=" ">
<path fill="none" stroke="#63b8ff" d="M495.34,-51.58C509.06,-54.57 525.28,-59.05 539,-65.5 556.86,-73.89 557.54,-82.3 575,-91.5 578.95,-93.58 583.18,-95.52 587.46,-97.31"/>
<polygon fill="#63b8ff" stroke="#63b8ff" points="586.24,-100.59 596.82,-100.97 588.78,-94.07 586.24,-100.59"/>
</a>
</g>
</g>
<!-- Node20&#45;&gt;Node9 -->
<g id="edge25_Node000020_Node000009" class="edge">
<title>Node20&#45;&gt;Node9</title>
<g id="a_edge25_Node000020_Node000009"><a xlink:title=" ">
<path fill="none" stroke="#63b8ff" d="M335.59,-64.4C349.51,-67.14 366.77,-70.52 384.06,-73.91"/>
<polygon fill="#63b8ff" stroke="#63b8ff" points="383.74,-77.42 394.22,-75.91 385.08,-70.55 383.74,-77.42"/>
</a>
</g>
</g>
<!-- Node20&#45;&gt;Node11 -->
<g id="edge29_Node000020_Node000011" class="edge">
<title>Node20&#45;&gt;Node11</title>
<g id="a_edge29_Node000020_Node000011"><a xlink:title=" ">
<path fill="none" stroke="#63b8ff" d="M335.74,-67.36C342.03,-69.84 348.43,-72.87 354,-76.5 373.23,-89.02 370.16,-101.98 390,-113.5 399.69,-119.12 411.04,-123.11 421.89,-125.92"/>
<polygon fill="#63b8ff" stroke="#63b8ff" points="421.12,-129.33 431.65,-128.19 422.7,-122.52 421.12,-129.33"/>
</a>
</g>
</g>
<!-- Node21 -->
<g id="Node000021" class="node">
<title>Node21</title>
<g id="a_Node000021"><a xlink:href="guLookAtF_8c.html#a221be5535617db52477d4cb992afa4a9" target="_top" xlink:title=" ">
<polygon fill="white" stroke="#666666" points="498.5,-19 430.5,-19 430.5,0 498.5,0 498.5,-19"/>
<text text-anchor="middle" x="464.5" y="-7" font-family="Helvetica,sans-Serif" font-size="10.00">guLookAtF</text>
</a>
</g>
</g>
<!-- Node20&#45;&gt;Node21 -->
<g id="edge26_Node000020_Node000021" class="edge">
<title>Node20&#45;&gt;Node21</title>
<g id="a_edge26_Node000020_Node000021"><a xlink:title=" ">
<path fill="none" stroke="#63b8ff" d="M329.3,-48.96C346.1,-42.43 369.22,-33.83 390,-27.5 399.8,-24.51 410.45,-21.67 420.53,-19.17"/>
<polygon fill="#63b8ff" stroke="#63b8ff" points="421.46,-22.55 430.36,-16.79 419.81,-15.74 421.46,-22.55"/>
</a>
</g>
</g>
<!-- Node21&#45;&gt;Node14 -->
<g id="edge27_Node000021_Node000014" class="edge">
<title>Node21&#45;&gt;Node14</title>
<g id="a_edge27_Node000021_Node000014"><a xlink:title=" ">
<path fill="none" stroke="#63b8ff" d="M498.72,-11.86C512.3,-14.21 527.49,-18.76 539,-27.5 564.99,-47.23 550.07,-70.44 575,-91.5 576.99,-93.18 579.15,-94.72 581.41,-96.13"/>
<polygon fill="#63b8ff" stroke="#63b8ff" points="580.04,-99.37 590.52,-100.92 583.3,-93.17 580.04,-99.37"/>
</a>
</g>
</g>
<!-- Node21&#45;&gt;Node16 -->
<g id="edge28_Node000021_Node000016" class="edge">
<title>Node21&#45;&gt;Node16</title>
<g id="a_edge28_Node000021_Node000016"><a xlink:title=" ">
<path fill="none" stroke="#63b8ff" d="M498.64,-9.48C543.65,-10.9 625.09,-18.74 683,-54.5 702.79,-66.72 718.33,-88.84 727.67,-104.74"/>
<polygon fill="#63b8ff" stroke="#63b8ff" points="724.74,-106.67 732.66,-113.7 730.85,-103.26 724.74,-106.67"/>
</a>
</g>
</g>
<!-- Node22&#45;&gt;Node9 -->
<g id="edge31_Node000022_Node000009" class="edge">
<title>Node22&#45;&gt;Node9</title>
<g id="a_edge31_Node000022_Node000009"><a xlink:title=" ">
<path fill="none" stroke="#63b8ff" d="M340.57,-122.96C357.6,-118.32 378.63,-112.6 398.44,-107.21"/>
<polygon fill="#63b8ff" stroke="#63b8ff" points="399.63,-110.51 408.36,-104.51 397.79,-103.76 399.63,-110.51"/>
</a>
</g>
</g>
<!-- Node22&#45;&gt;Node11 -->
<g id="edge32_Node000022_Node000011" class="edge">
<title>Node22&#45;&gt;Node11</title>
<g id="a_edge32_Node000022_Node000011"><a xlink:title=" ">
<path fill="none" stroke="#63b8ff" d="M347.84,-132.5C370.67,-132.5 398.75,-132.5 421.52,-132.5"/>
<polygon fill="#63b8ff" stroke="#63b8ff" points="421.57,-136 431.57,-132.5 421.57,-129 421.57,-136"/>
</a>
</g>
</g>
<!-- Node23 -->
<g id="Node000023" class="node">
<title>Node23</title>
<g id="a_Node000023"><a xlink:href="guPerspectiveF_8c.html#a440bd049e431a7ef892658d88620646c" target="_top" xlink:title=" ">
<polygon fill="white" stroke="#666666" points="510.5,-179 418.5,-179 418.5,-160 510.5,-160 510.5,-179"/>
<text text-anchor="middle" x="464.5" y="-167" font-family="Helvetica,sans-Serif" font-size="10.00">guPerspectiveF</text>
</a>
</g>
</g>
<!-- Node22&#45;&gt;Node23 -->
<g id="edge33_Node000022_Node000023" class="edge">
<title>Node22&#45;&gt;Node23</title>
<g id="a_edge33_Node000022_Node000023"><a xlink:title=" ">
<path fill="none" stroke="#63b8ff" d="M346.19,-142.03C366.47,-146.78 391.21,-152.57 412.72,-157.61"/>
<polygon fill="#63b8ff" stroke="#63b8ff" points="412.14,-161.07 422.67,-159.94 413.74,-154.25 412.14,-161.07"/>
</a>
</g>
</g>
<!-- Node23&#45;&gt;Node13 -->
<g id="edge34_Node000023_Node000013" class="edge">
<title>Node23&#45;&gt;Node13</title>
<g id="a_edge34_Node000023_Node000013"><a xlink:title=" ">
<path fill="none" stroke="#63b8ff" d="M510.77,-163.37C539.56,-159.47 575.91,-154.55 600.44,-151.23"/>
<polygon fill="#63b8ff" stroke="#63b8ff" points="601.05,-154.68 610.49,-149.87 600.11,-147.74 601.05,-154.68"/>
</a>
</g>
</g>
<!-- Node23&#45;&gt;Node14 -->
<g id="edge35_Node000023_Node000014" class="edge">
<title>Node23&#45;&gt;Node14</title>
<g id="a_edge35_Node000023_Node000014"><a xlink:title=" ">
<path fill="none" stroke="#63b8ff" d="M510.52,-160.81C520.1,-158.32 530.02,-155.24 539,-151.5 556.31,-144.3 558.09,-137.59 575,-129.5 579.35,-127.42 583.98,-125.44 588.64,-123.59"/>
<polygon fill="#63b8ff" stroke="#63b8ff" points="590.01,-126.81 598.13,-120 587.54,-120.27 590.01,-126.81"/>
</a>
</g>
</g>
<!-- Node23&#45;&gt;Node17 -->
<g id="edge36_Node000023_Node000017" class="edge">
<title>Node23&#45;&gt;Node17</title>
<g id="a_edge36_Node000023_Node000017"><a xlink:title=" ">
<path fill="none" stroke="#63b8ff" d="M510.77,-173.68C539.89,-176.37 576.74,-179.77 601.27,-182.03"/>
<polygon fill="#63b8ff" stroke="#63b8ff" points="601.01,-185.52 611.29,-182.96 601.66,-178.55 601.01,-185.52"/>
</a>
</g>
</g>
</g>
</svg>

<g id="navigator" transform="translate(0 0)" fill="#404254">
  <rect fill="#f2f5e9" fill-opacity="0.5" stroke="#606060" stroke-width=".5" x="0" y="0" width="60" height="60"/>
  <use id="zoomplus" xlink:href="#zoomPlus" x="17" y="9" onmousedown="handleZoom(evt,'in')"/>
  <use id="zoomminus" xlink:href="#zoomMin" x="42" y="9" onmousedown="handleZoom(evt,'out')"/>
  <use id="reset" xlink:href="#resetDef" x="30" y="36" onmousedown="handleReset()"/>
   <use id="arrowup" xlink:href="#arrowUp" x="0" y="0" onmousedown="handlePan(0,-1)"/>
  <use id="arrowright" xlink:href="#arrowRight" x="0" y="0" onmousedown="handlePan(1,0)"/>
  <use id="arrowdown" xlink:href="#arrowDown" x="0" y="0" onmousedown="handlePan(0,1)"/>
  <use id="arrowleft" xlink:href="#arrowLeft" x="0" y="0" onmousedown="handlePan(-1,0)"/>
</g>
<svg viewBox="0 0 15 15" width="100%" height="30px" preserveAspectRatio="xMaxYMin meet">
 <g id="arrow_out" transform="scale(0.3 0.3)">
  <a xlink:href="menu__items_8c_ae0c2344ba6cdd815eec1916e693e5577_cgraph_org.svg" target="_base">
   <rect id="button" ry="5" rx="5" y="6" x="6" height="38" width="38"
        fill="#f2f5e9" fill-opacity="0.5" stroke="#606060" stroke-width="1.0"/>
   <path id="arrow"
     d="M 11.500037,31.436501 C 11.940474,20.09759 22.043105,11.32322 32.158766,21.979434 L 37.068811,17.246167 C 37.068811,17.246167 37.088388,32 37.088388,32 L 22.160133,31.978069 C 22.160133,31.978069 26.997745,27.140456 26.997745,27.140456 C 18.528582,18.264221 13.291696,25.230495 11.500037,31.436501 z"
     style="fill:#404040;"/>
  </a>
 </g>
</svg>

<style type='text/css'>
<![CDATA[
[data-mouse-over-selected='false'] { opacity: 0.7; }
[data-mouse-over-selected='true']  { opacity: 1.0; }
]]>
</style>
<script type="application/ecmascript"><![CDATA[
document.addEventListener('DOMContentLoaded', (event) => {
  highlightEdges();
  highlightAdjacentNodes();
});
]]></script>
</svg>
