<?xml version="1.0" encoding="UTF-8" standalone="no"?>
<!DOCTYPE svg PUBLIC "-//W3C//DTD SVG 1.1//EN"
 "http://www.w3.org/Graphics/SVG/1.1/DTD/svg11.dtd">
<!-- Generated by graphviz version 2.43.0 (0)
 -->
<!-- Title: text_draw Pages: 1 -->
<!--zoomable 523 -->

<svg id="main" version="1.1" xmlns="http://www.w3.org/2000/svg" xmlns:xlink="http://www.w3.org/1999/xlink" xml:space="preserve" onload="init(evt)">

<style type="text/css"><![CDATA[
.node, .edge {opacity: 0.7;}
.node.selected, .edge.selected {opacity: 1;}
.edge:hover path { stroke: red; }
.edge:hover polygon { stroke: red; fill: red; }
]]></style>

<defs>
  <circle id="rim" cx="0" cy="0" r="7"/>
  <circle id="rim2" cx="0" cy="0" r="3.5"/>
  <g id="zoomPlus">
    <use xlink:href="#rim" fill="#404040"><set attributeName="fill" to="#808080" begin="zoomplus.mouseover" end="zoomplus.mouseout"/></use>
    <path d="M-4,0h8M0,-4v8" fill="none" stroke="white" stroke-width="1.5" pointer-events="none"/>
  </g>
  <g id="zoomMin">
    <use xlink:href="#rim" fill="#404040"><set attributeName="fill" to="#808080" begin="zoomminus.mouseover" end="zoomminus.mouseout"/></use>
    <path d="M-4,0h8" fill="none" stroke="white" stroke-width="1.5" pointer-events="none"/>
  </g>
  <g id="arrowUp" transform="translate(30 24)">
    <use xlink:href="#rim"/>
    <path pointer-events="none" fill="none" stroke="white" stroke-width="1.5" d="M0,-3.0v7 M-2.5,-0.5L0,-3.0L2.5,-0.5"/>
  </g>
  <g id="arrowRight" transform="rotate(90) translate(36 -43)">
    <use xlink:href="#rim"/>
    <path pointer-events="none" fill="none" stroke="white" stroke-width="1.5" d="M0,-3.0v7 M-2.5,-0.5L0,-3.0L2.5,-0.5"/>
  </g>
  <g id="arrowDown" transform="rotate(180) translate(-30 -48)">
    <use xlink:href="#rim"/>
    <path pointer-events="none" fill="none" stroke="white" stroke-width="1.5" d="M0,-3.0v7 M-2.5,-0.5L0,-3.0L2.5,-0.5"/>
  </g>
  <g id="arrowLeft" transform="rotate(270) translate(-36 17)">
    <use xlink:href="#rim"/>
    <path pointer-events="none" fill="none" stroke="white" stroke-width="1.5" d="M0,-3.0v7 M-2.5,-0.5L0,-3.0L2.5,-0.5"/>
  </g>
  <g id="resetDef">
    <use xlink:href="#rim2" fill="#404040"><set attributeName="fill" to="#808080" begin="reset.mouseover" end="reset.mouseout"/></use>
  </g>
</defs>
<script type="application/ecmascript">
var viewWidth = 1277;
var viewHeight = 523;
var sectionId = 'dynsection-435';
</script>
<script type="application/ecmascript" xlink:href="svg.min.js"/>
<svg id="graph" class="graph">
<g id="viewport">
<title>text_draw</title>
<!-- Node1 -->
<g id="Node000001" class="node">
<title>Node1</title>
<g id="a_Node000001"><a xlink:title=" ">
<polygon fill="#999999" stroke="#666666" points="65,-390.5 0,-390.5 0,-371.5 65,-371.5 65,-390.5"/>
<text text-anchor="middle" x="32.5" y="-378.5" font-family="Helvetica,sans-Serif" font-size="10.00">text_draw</text>
</a>
</g>
</g>
<!-- Node2 -->
<g id="Node000002" class="node">
<title>Node2</title>
<g id="a_Node000002"><a xlink:href="menu__items_8c.html#afa1d2583978658f8524340b7b94544b1" target="_top" xlink:title=" ">
<polygon fill="white" stroke="#666666" points="171,-390.5 101,-390.5 101,-371.5 171,-371.5 171,-390.5"/>
<text text-anchor="middle" x="136" y="-378.5" font-family="Helvetica,sans-Serif" font-size="10.00">print_text2</text>
</a>
</g>
</g>
<!-- Node1&#45;&gt;Node2 -->
<g id="edge1_Node000001_Node000002" class="edge">
<title>Node1&#45;&gt;Node2</title>
<g id="a_edge1_Node000001_Node000002"><a xlink:title=" ">
<path fill="none" stroke="#63b8ff" d="M65.06,-381C73.26,-381 82.24,-381 90.95,-381"/>
<polygon fill="#63b8ff" stroke="#63b8ff" points="90.99,-384.5 100.99,-381 90.99,-377.5 90.99,-384.5"/>
</a>
</g>
</g>
<!-- Node3 -->
<g id="Node000003" class="node">
<title>Node3</title>
<g id="a_Node000003"><a xlink:href="menu__items_8c.html#ace62f40ce813c34904327e39643a0dbf" target="_top" xlink:title=" ">
<polygon fill="white" stroke="#666666" points="335,-476.5 218,-476.5 218,-457.5 335,-457.5 335,-476.5"/>
<text text-anchor="middle" x="276.5" y="-464.5" font-family="Helvetica,sans-Serif" font-size="10.00">char_to_glyph_index</text>
</a>
</g>
</g>
<!-- Node2&#45;&gt;Node3 -->
<g id="edge2_Node000002_Node000003" class="edge">
<title>Node2&#45;&gt;Node3</title>
<g id="a_edge2_Node000002_Node000003"><a xlink:title=" ">
<path fill="none" stroke="#63b8ff" d="M144.49,-390.76C156.23,-405.39 180.39,-432.87 207,-448 210.91,-450.22 215.09,-452.2 219.39,-453.95"/>
<polygon fill="#63b8ff" stroke="#63b8ff" points="218.33,-457.29 228.93,-457.44 220.74,-450.72 218.33,-457.29"/>
</a>
</g>
</g>
<!-- Node7 -->
<g id="Node000007" class="node">
<title>Node7</title>
<g id="a_Node000007"><a xlink:href="FrameInterpolation_8cpp.html#a14ceaeb116362786310778e36943f7be" target="_top" xlink:title=" ">
<polygon fill="white" stroke="#666666" points="346,-439 207,-439 207,-409 346,-409 346,-439"/>
<text text-anchor="start" x="215" y="-427" font-family="Helvetica,sans-Serif" font-size="10.00">FrameInterpolation</text>
<text text-anchor="middle" x="276.5" y="-416" font-family="Helvetica,sans-Serif" font-size="10.00">_ShouldInterpolateFrame</text>
</a>
</g>
</g>
<!-- Node2&#45;&gt;Node7 -->
<g id="edge7_Node000002_Node000007" class="edge">
<title>Node2&#45;&gt;Node7</title>
<g id="a_edge7_Node000002_Node000007"><a xlink:title=" ">
<path fill="none" stroke="#63b8ff" d="M167.74,-390.54C182.33,-395.07 200.26,-400.64 217.28,-405.93"/>
<polygon fill="#63b8ff" stroke="#63b8ff" points="216.58,-409.37 227.17,-408.99 218.65,-402.69 216.58,-409.37"/>
</a>
</g>
</g>
<!-- Node8 -->
<g id="Node000008" class="node">
<title>Node8</title>
<g id="a_Node000008"><a xlink:href="GBIMiddleware_8cpp.html#a4ecc44e3c6f1ca5a6b4a20c41d3bd2d2" target="_top" xlink:title=" ">
<polygon fill="white" stroke="#666666" points="771.5,-330.5 682.5,-330.5 682.5,-311.5 771.5,-311.5 771.5,-330.5"/>
<text text-anchor="middle" x="727" y="-318.5" font-family="Helvetica,sans-Serif" font-size="10.00">gSPDisplayList</text>
</a>
</g>
</g>
<!-- Node2&#45;&gt;Node8 -->
<g id="edge8_Node000002_Node000008" class="edge">
<title>Node2&#45;&gt;Node8</title>
<g id="a_edge8_Node000002_Node000008"><a xlink:title=" ">
<path fill="none" stroke="#63b8ff" d="M167.39,-371.43C179.59,-367.93 193.85,-364.28 207,-362 218.37,-360.03 541.88,-335.11 672.28,-325.11"/>
<polygon fill="#63b8ff" stroke="#63b8ff" points="672.74,-328.59 682.44,-324.33 672.21,-321.61 672.74,-328.59"/>
</a>
</g>
</g>
<!-- Node11 -->
<g id="Node000011" class="node">
<title>Node11</title>
<g id="a_Node000011"><a xlink:href="menu__items_8c.html#a68e560d23390d5add7cb57ccd82e21ae" target="_top" xlink:title=" ">
<polygon fill="white" stroke="#666666" points="324,-390.5 229,-390.5 229,-371.5 324,-371.5 324,-390.5"/>
<text text-anchor="middle" x="276.5" y="-378.5" font-family="Helvetica,sans-Serif" font-size="10.00">load_menu_img</text>
</a>
</g>
</g>
<!-- Node2&#45;&gt;Node11 -->
<g id="edge11_Node000002_Node000011" class="edge">
<title>Node2&#45;&gt;Node11</title>
<g id="a_edge11_Node000002_Node000011"><a xlink:title=" ">
<path fill="none" stroke="#63b8ff" d="M171.24,-381C185.5,-381 202.44,-381 218.48,-381"/>
<polygon fill="#63b8ff" stroke="#63b8ff" points="218.86,-384.5 228.86,-381 218.86,-377.5 218.86,-384.5"/>
</a>
</g>
</g>
<!-- Node13 -->
<g id="Node000013" class="node">
<title>Node13</title>
<g id="a_Node000013"><a xlink:href="menu__items_8c.html#aafca6e35a19465ad361e68b13e467243" target="_top" xlink:title=" ">
<polygon fill="white" stroke="#666666" points="312,-314.5 241,-314.5 241,-295.5 312,-295.5 312,-314.5"/>
<text text-anchor="middle" x="276.5" y="-302.5" font-family="Helvetica,sans-Serif" font-size="10.00">print_letter</text>
</a>
</g>
</g>
<!-- Node2&#45;&gt;Node13 -->
<g id="edge13_Node000002_Node000013" class="edge">
<title>Node2&#45;&gt;Node13</title>
<g id="a_edge13_Node000002_Node000013"><a xlink:title=" ">
<path fill="none" stroke="#63b8ff" d="M147.7,-371.42C160.86,-360.04 184.27,-341.07 207,-329 214.93,-324.79 223.74,-321.07 232.34,-317.89"/>
<polygon fill="#63b8ff" stroke="#63b8ff" points="233.62,-321.15 241.89,-314.53 231.3,-314.54 233.62,-321.15"/>
</a>
</g>
</g>
<!-- Node4 -->
<g id="Node000004" class="node">
<title>Node4</title>
<g id="a_Node000004"><a xlink:href="menu__items_8c.html#ae8ba1b567dba01ff15c64d416653a70b" target="_top" xlink:title=" ">
<polygon fill="white" stroke="#666666" points="474.5,-438.5 382.5,-438.5 382.5,-419.5 474.5,-419.5 474.5,-438.5"/>
<text text-anchor="middle" x="428.5" y="-426.5" font-family="Helvetica,sans-Serif" font-size="10.00">func_80092DF8</text>
</a>
</g>
</g>
<!-- Node3&#45;&gt;Node4 -->
<g id="edge3_Node000003_Node000004" class="edge">
<title>Node3&#45;&gt;Node4</title>
<g id="a_edge3_Node000003_Node000004"><a xlink:title=" ">
<path fill="none" stroke="#63b8ff" d="M315.35,-457.41C334.97,-452.44 359.12,-446.32 379.98,-441.04"/>
<polygon fill="#63b8ff" stroke="#63b8ff" points="381.09,-444.37 389.92,-438.52 379.37,-437.58 381.09,-444.37"/>
</a>
</g>
</g>
<!-- Node5 -->
<g id="Node000005" class="node">
<title>Node5</title>
<g id="a_Node000005"><a xlink:href="menu__items_8c.html#acd5b29a8e8634aa4f3db4b9a7c5ba033" target="_top" xlink:title=" ">
<polygon fill="white" stroke="#666666" points="612,-457.5 520,-457.5 520,-438.5 612,-438.5 612,-457.5"/>
<text text-anchor="middle" x="566" y="-445.5" font-family="Helvetica,sans-Serif" font-size="10.00">func_80092E1C</text>
</a>
</g>
</g>
<!-- Node3&#45;&gt;Node5 -->
<g id="edge5_Node000003_Node000005" class="edge">
<title>Node3&#45;&gt;Node5</title>
<g id="a_edge5_Node000003_Node000005"><a xlink:title=" ">
<path fill="none" stroke="#63b8ff" d="M335.33,-463.18C386.26,-459.81 459.92,-454.94 509.99,-451.64"/>
<polygon fill="#63b8ff" stroke="#63b8ff" points="510.24,-455.13 519.99,-450.97 509.78,-448.14 510.24,-455.13"/>
</a>
</g>
</g>
<!-- Node6 -->
<g id="Node000006" class="node">
<title>Node6</title>
<g id="a_Node000006"><a xlink:href="menu__items_8c.html#ab26c8dca1828cd1d5a6c341cb851f0b9" target="_top" xlink:title=" ">
<polygon fill="white" stroke="#666666" points="474,-514.5 383,-514.5 383,-495.5 474,-495.5 474,-514.5"/>
<text text-anchor="middle" x="428.5" y="-502.5" font-family="Helvetica,sans-Serif" font-size="10.00">func_80092EE4</text>
</a>
</g>
</g>
<!-- Node3&#45;&gt;Node6 -->
<g id="edge6_Node000003_Node000006" class="edge">
<title>Node3&#45;&gt;Node6</title>
<g id="a_edge6_Node000003_Node000006"><a xlink:title=" ">
<path fill="none" stroke="#63b8ff" d="M315.35,-476.59C334.97,-481.56 359.12,-487.68 379.98,-492.96"/>
<polygon fill="#63b8ff" stroke="#63b8ff" points="379.37,-496.42 389.92,-495.48 381.09,-489.63 379.37,-496.42"/>
</a>
</g>
</g>
<!-- Node4&#45;&gt;Node5 -->
<g id="edge4_Node000004_Node000005" class="edge">
<title>Node4&#45;&gt;Node5</title>
<g id="a_edge4_Node000004_Node000005"><a xlink:title=" ">
<path fill="none" stroke="#63b8ff" d="M474.62,-435.33C485.81,-436.9 497.94,-438.6 509.56,-440.23"/>
<polygon fill="#63b8ff" stroke="#63b8ff" points="509.23,-443.71 519.62,-441.64 510.2,-436.78 509.23,-443.71"/>
</a>
</g>
</g>
<!-- Node9 -->
<g id="Node000009" class="node">
<title>Node9</title>
<g id="a_Node000009"><a xlink:href="Engine_8cpp.html#a223c8bc63f228dc11177515e38eff2db" target="_top" xlink:title=" ">
<polygon fill="white" stroke="#666666" points="982,-293.5 833,-293.5 833,-274.5 982,-274.5 982,-293.5"/>
<text text-anchor="middle" x="907.5" y="-281.5" font-family="Helvetica,sans-Serif" font-size="10.00">GameEngine_OTRSigCheck</text>
</a>
</g>
</g>
<!-- Node8&#45;&gt;Node9 -->
<g id="edge9_Node000008_Node000009" class="edge">
<title>Node8&#45;&gt;Node9</title>
<g id="a_edge9_Node000008_Node000009"><a xlink:title=" ">
<path fill="none" stroke="#63b8ff" d="M771.67,-311.95C795.45,-307.02 825.13,-300.87 850.59,-295.59"/>
<polygon fill="#63b8ff" stroke="#63b8ff" points="851.4,-299 860.48,-293.54 849.98,-292.14 851.4,-299"/>
</a>
</g>
</g>
<!-- Node10 -->
<g id="Node000010" class="node">
<title>Node10</title>
<g id="a_Node000010"><a xlink:href="string_8c.html#a008e171a518fe0e0352f31b245e03875" target="_top" xlink:title=" ">
<polygon fill="white" stroke="#666666" points="1064.5,-293.5 1020.5,-293.5 1020.5,-274.5 1064.5,-274.5 1064.5,-293.5"/>
<text text-anchor="middle" x="1042.5" y="-281.5" font-family="Helvetica,sans-Serif" font-size="10.00">strlen</text>
</a>
</g>
</g>
<!-- Node9&#45;&gt;Node10 -->
<g id="edge10_Node000009_Node000010" class="edge">
<title>Node9&#45;&gt;Node10</title>
<g id="a_edge10_Node000009_Node000010"><a xlink:title=" ">
<path fill="none" stroke="#63b8ff" d="M982,-284C991.89,-284 1001.56,-284 1010.14,-284"/>
<polygon fill="#63b8ff" stroke="#63b8ff" points="1010.36,-287.5 1020.36,-284 1010.36,-280.5 1010.36,-287.5"/>
</a>
</g>
</g>
<!-- Node12 -->
<g id="Node000012" class="node">
<title>Node12</title>
<g id="a_Node000012"><a xlink:href="menu__items_8c.html#a248768ee2e4ca9ae9cf0a30bfb256859" target="_top" xlink:title=" ">
<polygon fill="white" stroke="#666666" points="467.5,-390.5 389.5,-390.5 389.5,-371.5 467.5,-371.5 467.5,-390.5"/>
<text text-anchor="middle" x="428.5" y="-378.5" font-family="Helvetica,sans-Serif" font-size="10.00">load_texture</text>
</a>
</g>
</g>
<!-- Node11&#45;&gt;Node12 -->
<g id="edge12_Node000011_Node000012" class="edge">
<title>Node11&#45;&gt;Node12</title>
<g id="a_edge12_Node000011_Node000012"><a xlink:title=" ">
<path fill="none" stroke="#63b8ff" d="M324.14,-381C341.68,-381 361.65,-381 379.33,-381"/>
<polygon fill="#63b8ff" stroke="#63b8ff" points="379.44,-384.5 389.44,-381 379.44,-377.5 379.44,-384.5"/>
</a>
</g>
</g>
<!-- Node13&#45;&gt;Node8 -->
<g id="edge47_Node000013_Node000008" class="edge">
<title>Node13&#45;&gt;Node8</title>
<g id="a_edge47_Node000013_Node000008"><a xlink:title=" ">
<path fill="none" stroke="#63b8ff" d="M312.32,-306.24C390.28,-309.02 579.32,-315.77 672.4,-319.09"/>
<polygon fill="#63b8ff" stroke="#63b8ff" points="672.34,-322.59 682.46,-319.45 672.59,-315.59 672.34,-322.59"/>
</a>
</g>
</g>
<!-- Node14 -->
<g id="Node000014" class="node">
<title>Node14</title>
<g id="a_Node000014"><a xlink:href="menu__items_8c.html#a37eb021a953285ba504198ac6ca73a9a" target="_top" xlink:title=" ">
<polygon fill="white" stroke="#666666" points="475,-181.5 382,-181.5 382,-162.5 475,-162.5 475,-181.5"/>
<text text-anchor="middle" x="428.5" y="-169.5" font-family="Helvetica,sans-Serif" font-size="10.00">func_80095BD0</text>
</a>
</g>
</g>
<!-- Node13&#45;&gt;Node14 -->
<g id="edge14_Node000013_Node000014" class="edge">
<title>Node13&#45;&gt;Node14</title>
<g id="a_edge14_Node000013_Node000014"><a xlink:title=" ">
<path fill="none" stroke="#63b8ff" d="M288.29,-295.43C313.57,-273.02 376.91,-216.86 408.69,-188.68"/>
<polygon fill="#63b8ff" stroke="#63b8ff" points="411.25,-191.09 416.41,-181.84 406.6,-185.85 411.25,-191.09"/>
</a>
</g>
</g>
<!-- Node15 -->
<g id="Node000015" class="node">
<title>Node15</title>
<g id="a_Node000015"><a xlink:href="Matrix_8cpp.html#a6f64c44efb9bdfff802175a9739ce1f1" target="_top" xlink:title=" ">
<polygon fill="white" stroke="#666666" points="609.5,-138.5 522.5,-138.5 522.5,-119.5 609.5,-119.5 609.5,-138.5"/>
<text text-anchor="middle" x="566" y="-126.5" font-family="Helvetica,sans-Serif" font-size="10.00">AddTextMatrix</text>
</a>
</g>
</g>
<!-- Node14&#45;&gt;Node15 -->
<g id="edge15_Node000014_Node000015" class="edge">
<title>Node14&#45;&gt;Node15</title>
<g id="a_edge15_Node000014_Node000015"><a xlink:title=" ">
<path fill="none" stroke="#63b8ff" d="M459.57,-162.46C478.96,-156.31 504.38,-148.24 525.4,-141.57"/>
<polygon fill="#63b8ff" stroke="#63b8ff" points="526.54,-144.88 535.01,-138.52 524.42,-138.21 526.54,-144.88"/>
</a>
</g>
</g>
<!-- Node19 -->
<g id="Node000019" class="node">
<title>Node19</title>
<g id="a_Node000019"><a xlink:href="FrameInterpolation_8cpp.html#a3a036bc9d533e28a4e9697cd20dccf3e" target="_top" xlink:title=" ">
<polygon fill="white" stroke="#666666" points="621,-30 511,-30 511,0 621,0 621,-30"/>
<text text-anchor="start" x="519" y="-18" font-family="Helvetica,sans-Serif" font-size="10.00">FrameInterpolation</text>
<text text-anchor="middle" x="566" y="-7" font-family="Helvetica,sans-Serif" font-size="10.00">_RecordCloseChild</text>
</a>
</g>
</g>
<!-- Node14&#45;&gt;Node19 -->
<g id="edge19_Node000014_Node000019" class="edge">
<title>Node14&#45;&gt;Node19</title>
<g id="a_edge19_Node000014_Node000019"><a xlink:title=" ">
<path fill="none" stroke="#63b8ff" d="M433.08,-162.27C442.37,-138.25 469.45,-75.41 511,-39 512.33,-37.84 513.72,-36.72 515.16,-35.66"/>
<polygon fill="#63b8ff" stroke="#63b8ff" points="517.36,-38.4 523.87,-30.04 513.57,-32.52 517.36,-38.4"/>
</a>
</g>
</g>
<!-- Node20 -->
<g id="Node000020" class="node">
<title>Node20</title>
<g id="a_Node000020"><a xlink:href="FrameInterpolation_8cpp.html#a0eda726b74eac815af4e874014e2727c" target="_top" xlink:title=" ">
<polygon fill="white" stroke="#666666" points="621,-187 511,-187 511,-157 621,-157 621,-187"/>
<text text-anchor="start" x="519" y="-175" font-family="Helvetica,sans-Serif" font-size="10.00">FrameInterpolation</text>
<text text-anchor="middle" x="566" y="-164" font-family="Helvetica,sans-Serif" font-size="10.00">_RecordOpenChild</text>
</a>
</g>
</g>
<!-- Node14&#45;&gt;Node20 -->
<g id="edge21_Node000014_Node000020" class="edge">
<title>Node14&#45;&gt;Node20</title>
<g id="a_edge21_Node000014_Node000020"><a xlink:title=" ">
<path fill="none" stroke="#63b8ff" d="M475.37,-172C483.45,-172 492,-172 500.47,-172"/>
<polygon fill="#63b8ff" stroke="#63b8ff" points="500.74,-175.5 510.74,-172 500.74,-168.5 500.74,-175.5"/>
</a>
</g>
</g>
<!-- Node21 -->
<g id="Node000021" class="node">
<title>Node21</title>
<g id="a_Node000021"><a xlink:href="menu__items_8c.html#ae0fd5923ba70cf6939cd3fa8d09c1191" target="_top" xlink:title=" ">
<polygon fill="white" stroke="#666666" points="611.5,-276.5 520.5,-276.5 520.5,-257.5 611.5,-257.5 611.5,-276.5"/>
<text text-anchor="middle" x="566" y="-264.5" font-family="Helvetica,sans-Serif" font-size="10.00">func_800959F8</text>
</a>
</g>
</g>
<!-- Node14&#45;&gt;Node21 -->
<g id="edge23_Node000014_Node000021" class="edge">
<title>Node14&#45;&gt;Node21</title>
<g id="a_edge23_Node000014_Node000021"><a xlink:title=" ">
<path fill="none" stroke="#63b8ff" d="M441.7,-181.62C457.44,-193.91 485.8,-215.68 511,-233 520.31,-239.4 530.78,-246.1 540,-251.84"/>
<polygon fill="#63b8ff" stroke="#63b8ff" points="538.36,-254.95 548.71,-257.22 542.04,-248.99 538.36,-254.95"/>
</a>
</g>
</g>
<!-- Node23 -->
<g id="Node000023" class="node">
<title>Node23</title>
<g id="a_Node000023"><a xlink:href="stubs_8c.html#a8b417b868747c80d58f83d8a1e78ecf3" target="_top" xlink:title=" ">
<polygon fill="white" stroke="#666666" points="600,-224.5 532,-224.5 532,-205.5 600,-205.5 600,-224.5"/>
<text text-anchor="middle" x="566" y="-212.5" font-family="Helvetica,sans-Serif" font-size="10.00">rmonPrintf</text>
</a>
</g>
</g>
<!-- Node14&#45;&gt;Node23 -->
<g id="edge27_Node000014_Node000023" class="edge">
<title>Node14&#45;&gt;Node23</title>
<g id="a_edge27_Node000014_Node000023"><a xlink:title=" ">
<path fill="none" stroke="#63b8ff" d="M459.57,-181.54C478.96,-187.69 504.38,-195.76 525.4,-202.43"/>
<polygon fill="#63b8ff" stroke="#63b8ff" points="524.42,-205.79 535.01,-205.48 526.54,-199.12 524.42,-205.79"/>
</a>
</g>
</g>
<!-- Node36 -->
<g id="Node000036" class="node">
<title>Node36</title>
<g id="a_Node000036"><a xlink:href="Matrix_8cpp.html#a9818099a1ee20606a7d622e744846366" target="_top" xlink:title=" ">
<polygon fill="white" stroke="#666666" points="608,-67.5 524,-67.5 524,-48.5 608,-48.5 608,-67.5"/>
<text text-anchor="middle" x="566" y="-55.5" font-family="Helvetica,sans-Serif" font-size="10.00">SetTextMatrix</text>
</a>
</g>
</g>
<!-- Node14&#45;&gt;Node36 -->
<g id="edge43_Node000014_Node000036" class="edge">
<title>Node14&#45;&gt;Node36</title>
<g id="a_edge43_Node000014_Node000036"><a xlink:title=" ">
<path fill="none" stroke="#63b8ff" d="M441.05,-162.28C464.35,-142.68 517.19,-98.23 545.77,-74.18"/>
<polygon fill="#63b8ff" stroke="#63b8ff" points="548.08,-76.81 553.48,-67.69 543.57,-71.45 548.08,-76.81"/>
</a>
</g>
</g>
<!-- Node16 -->
<g id="Node000016" class="node">
<title>Node16</title>
<g id="a_Node000016"><a xlink:href="FrameInterpolation_8cpp.html#a8cf1f2d6fabc6925aa71a9515341b4aa" target="_top" xlink:title=" ">
<polygon fill="white" stroke="#666666" points="797,-106 657,-106 657,-76 797,-76 797,-106"/>
<text text-anchor="start" x="665" y="-94" font-family="Helvetica,sans-Serif" font-size="10.00">FrameInterpolation</text>
<text text-anchor="middle" x="727" y="-83" font-family="Helvetica,sans-Serif" font-size="10.00">_RecordMatrixMtxFToMtx</text>
</a>
</g>
</g>
<!-- Node15&#45;&gt;Node16 -->
<g id="edge16_Node000015_Node000016" class="edge">
<title>Node15&#45;&gt;Node16</title>
<g id="a_edge16_Node000015_Node000016"><a xlink:title=" ">
<path fill="none" stroke="#63b8ff" d="M607.12,-119.41C621.14,-116.06 637.34,-112.19 653.19,-108.4"/>
<polygon fill="#63b8ff" stroke="#63b8ff" points="654.08,-111.79 662.99,-106.06 652.45,-104.98 654.08,-111.79"/>
</a>
</g>
</g>
<!-- Node18 -->
<g id="Node000018" class="node">
<title>Node18</title>
<g id="a_Node000018"><a xlink:href="guMtxF2L_8c.html#a40ab2d64c609839ff1e0ef0de2d0dcc4" target="_top" xlink:title=" ">
<polygon fill="white" stroke="#666666" points="759.5,-143.5 694.5,-143.5 694.5,-124.5 759.5,-124.5 759.5,-143.5"/>
<text text-anchor="middle" x="727" y="-131.5" font-family="Helvetica,sans-Serif" font-size="10.00">guMtxF2L</text>
</a>
</g>
</g>
<!-- Node15&#45;&gt;Node18 -->
<g id="edge18_Node000015_Node000018" class="edge">
<title>Node15&#45;&gt;Node18</title>
<g id="a_edge18_Node000015_Node000018"><a xlink:title=" ">
<path fill="none" stroke="#63b8ff" d="M609.61,-130.34C632.74,-131.07 661.23,-131.96 684.23,-132.69"/>
<polygon fill="#63b8ff" stroke="#63b8ff" points="684.27,-136.19 694.38,-133.01 684.49,-129.19 684.27,-136.19"/>
</a>
</g>
</g>
<!-- Node17 -->
<g id="Node000017" class="node">
<title>Node17</title>
<g id="a_Node000017"><a xlink:href="FrameInterpolation_8cpp.html#a02c7ac5342a4d376edee38f312b480bf" target="_top" xlink:title=" ">
<polygon fill="white" stroke="#666666" points="961.5,-76.5 853.5,-76.5 853.5,-57.5 961.5,-57.5 961.5,-76.5"/>
<text text-anchor="middle" x="907.5" y="-64.5" font-family="Helvetica,sans-Serif" font-size="10.00">check_if_recording</text>
</a>
</g>
</g>
<!-- Node16&#45;&gt;Node17 -->
<g id="edge17_Node000016_Node000017" class="edge">
<title>Node16&#45;&gt;Node17</title>
<g id="a_edge17_Node000016_Node000017"><a xlink:title=" ">
<path fill="none" stroke="#63b8ff" d="M797.01,-81.72C812.24,-79.67 828.29,-77.52 843.27,-75.5"/>
<polygon fill="#63b8ff" stroke="#63b8ff" points="844.01,-78.93 853.45,-74.13 843.07,-72 844.01,-78.93"/>
</a>
</g>
</g>
<!-- Node19&#45;&gt;Node17 -->
<g id="edge20_Node000019_Node000017" class="edge">
<title>Node19&#45;&gt;Node17</title>
<g id="a_edge20_Node000019_Node000017"><a xlink:title=" ">
<path fill="none" stroke="#63b8ff" d="M621.14,-9.99C668.19,-7.05 737.89,-6.08 797,-19 827.38,-25.64 859.71,-40.95 881.3,-52.51"/>
<polygon fill="#63b8ff" stroke="#63b8ff" points="879.68,-55.61 890.13,-57.35 883.05,-49.48 879.68,-55.61"/>
</a>
</g>
</g>
<!-- Node20&#45;&gt;Node17 -->
<g id="edge22_Node000020_Node000017" class="edge">
<title>Node20&#45;&gt;Node17</title>
<g id="a_edge22_Node000020_Node000017"><a xlink:title=" ">
<path fill="none" stroke="#63b8ff" d="M621.01,-175.76C668.9,-177.15 739.9,-174.37 797,-152 835.38,-136.96 871.41,-104 891.07,-83.83"/>
<polygon fill="#63b8ff" stroke="#63b8ff" points="893.64,-86.2 897.99,-76.55 888.57,-81.38 893.64,-86.2"/>
</a>
</g>
</g>
<!-- Node21&#45;&gt;Node8 -->
<g id="edge24_Node000021_Node000008" class="edge">
<title>Node21&#45;&gt;Node8</title>
<g id="a_edge24_Node000021_Node000008"><a xlink:title=" ">
<path fill="none" stroke="#63b8ff" d="M589.7,-276.57C607.76,-284 633.76,-294.31 657,-302 663.97,-304.31 671.41,-306.57 678.72,-308.67"/>
<polygon fill="#63b8ff" stroke="#63b8ff" points="677.97,-312.1 688.55,-311.44 679.87,-305.36 677.97,-312.1"/>
</a>
</g>
</g>
<!-- Node22 -->
<g id="Node000022" class="node">
<title>Node22</title>
<g id="a_Node000022"><a xlink:href="GBIMiddleware_8cpp.html#aeef79449a27a710d73576e4a4f7f7f99" target="_top" xlink:title=" ">
<polygon fill="white" stroke="#666666" points="760,-293.5 694,-293.5 694,-274.5 760,-274.5 760,-293.5"/>
<text text-anchor="middle" x="727" y="-281.5" font-family="Helvetica,sans-Serif" font-size="10.00">gSPVertex</text>
</a>
</g>
</g>
<!-- Node21&#45;&gt;Node22 -->
<g id="edge25_Node000021_Node000022" class="edge">
<title>Node21&#45;&gt;Node22</title>
<g id="a_edge25_Node000021_Node000022"><a xlink:title=" ">
<path fill="none" stroke="#63b8ff" d="M611.71,-271.78C634.23,-274.19 661.39,-277.09 683.58,-279.46"/>
<polygon fill="#63b8ff" stroke="#63b8ff" points="683.4,-282.96 693.71,-280.55 684.14,-276 683.4,-282.96"/>
</a>
</g>
</g>
<!-- Node22&#45;&gt;Node9 -->
<g id="edge26_Node000022_Node000009" class="edge">
<title>Node22&#45;&gt;Node9</title>
<g id="a_edge26_Node000022_Node000009"><a xlink:title=" ">
<path fill="none" stroke="#63b8ff" d="M760.33,-284C777.92,-284 800.59,-284 822.8,-284"/>
<polygon fill="#63b8ff" stroke="#63b8ff" points="822.95,-287.5 832.95,-284 822.95,-280.5 822.95,-287.5"/>
</a>
</g>
</g>
<!-- Node24 -->
<g id="Node000024" class="node">
<title>Node24</title>
<g id="a_Node000024"><a xlink:href="__Printf_8c.html#a39bb05c90efce6c6790c5d58d271d72d" target="_top" xlink:title=" ">
<polygon fill="white" stroke="#666666" points="751,-219.5 703,-219.5 703,-200.5 751,-200.5 751,-219.5"/>
<text text-anchor="middle" x="727" y="-207.5" font-family="Helvetica,sans-Serif" font-size="10.00">_Printf</text>
</a>
</g>
</g>
<!-- Node23&#45;&gt;Node24 -->
<g id="edge28_Node000023_Node000024" class="edge">
<title>Node23&#45;&gt;Node24</title>
<g id="a_edge28_Node000023_Node000024"><a xlink:title=" ">
<path fill="none" stroke="#63b8ff" d="M600.33,-213.95C627.5,-213.1 665.69,-211.9 692.82,-211.04"/>
<polygon fill="#63b8ff" stroke="#63b8ff" points="693.1,-214.54 702.99,-210.72 692.88,-207.54 693.1,-214.54"/>
</a>
</g>
</g>
<!-- Node35 -->
<g id="Node000035" class="node">
<title>Node35</title>
<g id="a_Node000035"><a xlink:href="is__debug_8c.html#aaccfac8d9098530b6592eefe679d86b4" target="_top" xlink:title=" ">
<polygon fill="white" stroke="#666666" points="779.5,-256.5 674.5,-256.5 674.5,-237.5 779.5,-237.5 779.5,-256.5"/>
<text text-anchor="middle" x="727" y="-244.5" font-family="Helvetica,sans-Serif" font-size="10.00">is_proutSyncPrintf</text>
</a>
</g>
</g>
<!-- Node23&#45;&gt;Node35 -->
<g id="edge42_Node000023_Node000035" class="edge">
<title>Node23&#45;&gt;Node35</title>
<g id="a_edge42_Node000023_Node000035"><a xlink:title=" ">
<path fill="none" stroke="#63b8ff" d="M600.33,-221.71C620.08,-225.68 645.65,-230.83 668.57,-235.44"/>
<polygon fill="#63b8ff" stroke="#63b8ff" points="668.04,-238.91 678.54,-237.45 669.43,-232.04 668.04,-238.91"/>
</a>
</g>
</g>
<!-- Node25 -->
<g id="Node000025" class="node">
<title>Node25</title>
<g id="a_Node000025"><a xlink:href="__Printf_8c.html#ad73a5847f2d7c9de14cc2723da86bf45" target="_top" xlink:title=" ">
<polygon fill="white" stroke="#666666" points="932.5,-256.5 882.5,-256.5 882.5,-237.5 932.5,-237.5 932.5,-256.5"/>
<text text-anchor="middle" x="907.5" y="-244.5" font-family="Helvetica,sans-Serif" font-size="10.00">_Putfld</text>
</a>
</g>
</g>
<!-- Node24&#45;&gt;Node25 -->
<g id="edge29_Node000024_Node000025" class="edge">
<title>Node24&#45;&gt;Node25</title>
<g id="a_edge29_Node000024_Node000025"><a xlink:title=" ">
<path fill="none" stroke="#63b8ff" d="M751.34,-214.84C782.21,-221.24 836.87,-232.57 872.39,-239.93"/>
<polygon fill="#63b8ff" stroke="#63b8ff" points="871.8,-243.38 882.3,-241.98 873.22,-236.53 871.8,-243.38"/>
</a>
</g>
</g>
<!-- Node34 -->
<g id="Node000034" class="node">
<title>Node34</title>
<g id="a_Node000034"><a xlink:href="string_8c.html#a988b4defe51a1815ef3b9ddab10e7a89" target="_top" xlink:title=" ">
<polygon fill="white" stroke="#666666" points="929.5,-219.5 885.5,-219.5 885.5,-200.5 929.5,-200.5 929.5,-219.5"/>
<text text-anchor="middle" x="907.5" y="-207.5" font-family="Helvetica,sans-Serif" font-size="10.00">strchr</text>
</a>
</g>
</g>
<!-- Node24&#45;&gt;Node34 -->
<g id="edge41_Node000024_Node000034" class="edge">
<title>Node24&#45;&gt;Node34</title>
<g id="a_edge41_Node000024_Node000034"><a xlink:title=" ">
<path fill="none" stroke="#63b8ff" d="M751.34,-210C783.02,-210 839.76,-210 875.14,-210"/>
<polygon fill="#63b8ff" stroke="#63b8ff" points="875.38,-213.5 885.38,-210 875.38,-206.5 875.38,-213.5"/>
</a>
</g>
</g>
<!-- Node25&#45;&gt;Node10 -->
<g id="edge40_Node000025_Node000010" class="edge">
<title>Node25&#45;&gt;Node10</title>
<g id="a_edge40_Node000025_Node000010"><a xlink:title=" ">
<path fill="none" stroke="#63b8ff" d="M932.78,-252.5C947.15,-255.87 965.69,-260.4 982,-265 991.43,-267.66 1001.61,-270.8 1010.84,-273.76"/>
<polygon fill="#63b8ff" stroke="#63b8ff" points="1009.81,-277.11 1020.4,-276.87 1011.97,-270.45 1009.81,-277.11"/>
</a>
</g>
</g>
<!-- Node26 -->
<g id="Node000026" class="node">
<title>Node26</title>
<g id="a_Node000026"><a xlink:href="__Ldtob_8c.html#a7cc858157b66e15c831ad085113729ae" target="_top" xlink:title=" ">
<polygon fill="white" stroke="#666666" points="1067,-162.5 1018,-162.5 1018,-143.5 1067,-143.5 1067,-162.5"/>
<text text-anchor="middle" x="1042.5" y="-150.5" font-family="Helvetica,sans-Serif" font-size="10.00">_Ldtob</text>
</a>
</g>
</g>
<!-- Node25&#45;&gt;Node26 -->
<g id="edge30_Node000025_Node000026" class="edge">
<title>Node25&#45;&gt;Node26</title>
<g id="a_edge30_Node000025_Node000026"><a xlink:title=" ">
<path fill="none" stroke="#63b8ff" d="M932.58,-244.73C947.75,-242.38 967.19,-237.63 982,-228 1003.78,-213.84 1021.15,-189.01 1031.37,-171.82"/>
<polygon fill="#63b8ff" stroke="#63b8ff" points="1034.64,-173.14 1036.54,-162.72 1028.56,-169.68 1034.64,-173.14"/>
</a>
</g>
</g>
<!-- Node32 -->
<g id="Node000032" class="node">
<title>Node32</title>
<g id="a_Node000032"><a xlink:href="__Litob_8c.html#aaaba3b0ab7920d422a61fe9e22600dd0" target="_top" xlink:title=" ">
<polygon fill="white" stroke="#666666" points="1065.5,-256.5 1019.5,-256.5 1019.5,-237.5 1065.5,-237.5 1065.5,-256.5"/>
<text text-anchor="middle" x="1042.5" y="-244.5" font-family="Helvetica,sans-Serif" font-size="10.00">_Litob</text>
</a>
</g>
</g>
<!-- Node25&#45;&gt;Node32 -->
<g id="edge37_Node000025_Node000032" class="edge">
<title>Node25&#45;&gt;Node32</title>
<g id="a_edge37_Node000025_Node000032"><a xlink:title=" ">
<path fill="none" stroke="#63b8ff" d="M932.59,-247C954.01,-247 985.51,-247 1009.13,-247"/>
<polygon fill="#63b8ff" stroke="#63b8ff" points="1009.36,-250.5 1019.36,-247 1009.36,-243.5 1009.36,-250.5"/>
</a>
</g>
</g>
<!-- Node27 -->
<g id="Node000027" class="node">
<title>Node27</title>
<g id="a_Node000027"><a xlink:href="__Ldtob_8c.html#a2b6c5318b43bab1636bad9113ffb2761" target="_top" xlink:title=" ">
<polygon fill="white" stroke="#666666" points="1163.5,-180.5 1113.5,-180.5 1113.5,-161.5 1163.5,-161.5 1163.5,-180.5"/>
<text text-anchor="middle" x="1138.5" y="-168.5" font-family="Helvetica,sans-Serif" font-size="10.00">_Genld</text>
</a>
</g>
</g>
<!-- Node26&#45;&gt;Node27 -->
<g id="edge31_Node000026_Node000027" class="edge">
<title>Node26&#45;&gt;Node27</title>
<g id="a_edge31_Node000026_Node000027"><a xlink:title=" ">
<path fill="none" stroke="#63b8ff" d="M1067.22,-157.54C1078.16,-159.64 1091.34,-162.16 1103.33,-164.46"/>
<polygon fill="#63b8ff" stroke="#63b8ff" points="1102.98,-167.95 1113.46,-166.4 1104.3,-161.08 1102.98,-167.95"/>
</a>
</g>
</g>
<!-- Node28 -->
<g id="Node000028" class="node">
<title>Node28</title>
<g id="a_Node000028"><a xlink:href="string_8c.html#ad7f1ae1bbb49dece44bda378982a704d" target="_top" xlink:title=" ">
<polygon fill="white" stroke="#666666" points="1269,-218.5 1210,-218.5 1210,-199.5 1269,-199.5 1269,-218.5"/>
<text text-anchor="middle" x="1239.5" y="-206.5" font-family="Helvetica,sans-Serif" font-size="10.00">memcpy</text>
</a>
</g>
</g>
<!-- Node26&#45;&gt;Node28 -->
<g id="edge35_Node000026_Node000028" class="edge">
<title>Node26&#45;&gt;Node28</title>
<g id="a_edge35_Node000026_Node000028"><a xlink:title=" ">
<path fill="none" stroke="#63b8ff" d="M1055.98,-162.59C1067.53,-170.96 1085.5,-182.71 1103,-189 1134.45,-200.31 1172.21,-205.23 1199.87,-207.37"/>
<polygon fill="#63b8ff" stroke="#63b8ff" points="1199.72,-210.87 1209.94,-208.06 1200.2,-203.88 1199.72,-210.87"/>
</a>
</g>
</g>
<!-- Node29 -->
<g id="Node000029" class="node">
<title>Node29</title>
<g id="a_Node000029"><a xlink:href="__Ldtob_8c.html#ab7ade9ce60aaa8baa0244b503351d742" target="_top" xlink:title=" ">
<polygon fill="white" stroke="#666666" points="1174,-143.5 1103,-143.5 1103,-124.5 1174,-124.5 1174,-143.5"/>
<text text-anchor="middle" x="1138.5" y="-131.5" font-family="Helvetica,sans-Serif" font-size="10.00">_Ldunscale</text>
</a>
</g>
</g>
<!-- Node26&#45;&gt;Node29 -->
<g id="edge33_Node000026_Node000029" class="edge">
<title>Node26&#45;&gt;Node29</title>
<g id="a_edge33_Node000026_Node000029"><a xlink:title=" ">
<path fill="none" stroke="#63b8ff" d="M1067.22,-148.21C1075.04,-146.62 1084.02,-144.81 1092.88,-143.02"/>
<polygon fill="#63b8ff" stroke="#63b8ff" points="1093.66,-146.43 1102.77,-141.02 1092.28,-139.57 1093.66,-146.43"/>
</a>
</g>
</g>
<!-- Node30 -->
<g id="Node000030" class="node">
<title>Node30</title>
<g id="a_Node000030"><a xlink:href="ldiv_8c.html#a0302920caf64a5fbe1ce0862799d7784" target="_top" xlink:title=" ">
<polygon fill="white" stroke="#666666" points="1156,-106.5 1121,-106.5 1121,-87.5 1156,-87.5 1156,-106.5"/>
<text text-anchor="middle" x="1138.5" y="-94.5" font-family="Helvetica,sans-Serif" font-size="10.00">ldiv</text>
</a>
</g>
</g>
<!-- Node26&#45;&gt;Node30 -->
<g id="edge34_Node000026_Node000030" class="edge">
<title>Node26&#45;&gt;Node30</title>
<g id="a_edge34_Node000026_Node000030"><a xlink:title=" ">
<path fill="none" stroke="#63b8ff" d="M1057.95,-143.27C1069.87,-135.37 1087.3,-124.09 1103,-115 1105.87,-113.34 1108.9,-111.66 1111.93,-110.02"/>
<polygon fill="#63b8ff" stroke="#63b8ff" points="1113.63,-113.08 1120.84,-105.32 1110.37,-106.89 1113.63,-113.08"/>
</a>
</g>
</g>
<!-- Node31 -->
<g id="Node000031" class="node">
<title>Node31</title>
<g id="a_Node000031"><a xlink:href="alBnkfNew_8c.html#a96a0200a6b40350e524f536d232ecb53" target="_top" xlink:title=" ">
<polygon fill="white" stroke="#666666" points="1164.5,-69.5 1112.5,-69.5 1112.5,-50.5 1164.5,-50.5 1164.5,-69.5"/>
<text text-anchor="middle" x="1138.5" y="-57.5" font-family="Helvetica,sans-Serif" font-size="10.00">unused</text>
</a>
</g>
</g>
<!-- Node26&#45;&gt;Node31 -->
<g id="edge36_Node000026_Node000031" class="edge">
<title>Node26&#45;&gt;Node31</title>
<g id="a_edge36_Node000026_Node000031"><a xlink:title=" ">
<path fill="none" stroke="#63b8ff" d="M1049.38,-143.16C1059,-127.7 1079.42,-97.48 1103,-78 1104.32,-76.91 1105.73,-75.85 1107.18,-74.84"/>
<polygon fill="#63b8ff" stroke="#63b8ff" points="1109.13,-77.74 1115.83,-69.53 1105.47,-71.78 1109.13,-77.74"/>
</a>
</g>
</g>
<!-- Node27&#45;&gt;Node28 -->
<g id="edge32_Node000027_Node000028" class="edge">
<title>Node27&#45;&gt;Node28</title>
<g id="a_edge32_Node000027_Node000028"><a xlink:title=" ">
<path fill="none" stroke="#63b8ff" d="M1163.72,-180.3C1175.88,-184.96 1190.82,-190.7 1204.15,-195.81"/>
<polygon fill="#63b8ff" stroke="#63b8ff" points="1202.91,-199.09 1213.5,-199.4 1205.42,-192.55 1202.91,-199.09"/>
</a>
</g>
</g>
<!-- Node32&#45;&gt;Node28 -->
<g id="edge39_Node000032_Node000028" class="edge">
<title>Node32&#45;&gt;Node28</title>
<g id="a_edge39_Node000032_Node000028"><a xlink:title=" ">
<path fill="none" stroke="#63b8ff" d="M1065.71,-243.14C1091.71,-238.56 1136.05,-230.61 1174,-223 1182.48,-221.3 1191.56,-219.39 1200.16,-217.53"/>
<polygon fill="#63b8ff" stroke="#63b8ff" points="1200.94,-220.95 1209.96,-215.4 1199.45,-214.11 1200.94,-220.95"/>
</a>
</g>
</g>
<!-- Node33 -->
<g id="Node000033" class="node">
<title>Node33</title>
<g id="a_Node000033"><a xlink:href="ldiv_8c.html#a5b23c3639f11980dca762c5f1d74f339" target="_top" xlink:title=" ">
<polygon fill="white" stroke="#666666" points="1157.5,-294.5 1119.5,-294.5 1119.5,-275.5 1157.5,-275.5 1157.5,-294.5"/>
<text text-anchor="middle" x="1138.5" y="-282.5" font-family="Helvetica,sans-Serif" font-size="10.00">lldiv</text>
</a>
</g>
</g>
<!-- Node32&#45;&gt;Node33 -->
<g id="edge38_Node000032_Node000033" class="edge">
<title>Node32&#45;&gt;Node33</title>
<g id="a_edge38_Node000032_Node000033"><a xlink:title=" ">
<path fill="none" stroke="#63b8ff" d="M1065.78,-256.01C1078.97,-261.34 1095.8,-268.14 1109.84,-273.82"/>
<polygon fill="#63b8ff" stroke="#63b8ff" points="1108.89,-277.21 1119.47,-277.71 1111.52,-270.72 1108.89,-277.21"/>
</a>
</g>
</g>
<!-- Node36&#45;&gt;Node36 -->
<g id="edge46_Node000036_Node000036" class="edge">
<title>Node36&#45;&gt;Node36</title>
<g id="a_edge46_Node000036_Node000036"><a xlink:title=" ">
<path fill="none" stroke="#63b8ff" d="M545.04,-67.58C534.84,-76.23 541.83,-85.5 566,-85.5 581.49,-85.5 589.92,-81.7 591.3,-76.69"/>
<polygon fill="#63b8ff" stroke="#63b8ff" points="594.42,-75.11 586.96,-67.58 588.1,-78.12 594.42,-75.11"/>
</a>
</g>
</g>
<!-- Node37 -->
<g id="Node000037" class="node">
<title>Node37</title>
<g id="a_Node000037"><a xlink:href="FrameInterpolation_8cpp.html#a5fbd67ef553452903cf553b9c224fa76" target="_top" xlink:title=" ">
<polygon fill="white" stroke="#666666" points="791,-58 663,-58 663,-28 791,-28 791,-58"/>
<text text-anchor="start" x="671" y="-46" font-family="Helvetica,sans-Serif" font-size="10.00">FrameInterpolation</text>
<text text-anchor="middle" x="727" y="-35" font-family="Helvetica,sans-Serif" font-size="10.00">_Record_SetTextMatrix</text>
</a>
</g>
</g>
<!-- Node36&#45;&gt;Node37 -->
<g id="edge44_Node000036_Node000037" class="edge">
<title>Node36&#45;&gt;Node37</title>
<g id="a_edge44_Node000036_Node000037"><a xlink:title=" ">
<path fill="none" stroke="#63b8ff" d="M608.36,-54.1C622.02,-52.81 637.65,-51.33 652.96,-49.89"/>
<polygon fill="#63b8ff" stroke="#63b8ff" points="653.33,-53.37 662.95,-48.95 652.67,-46.4 653.33,-53.37"/>
</a>
</g>
</g>
<!-- Node37&#45;&gt;Node17 -->
<g id="edge45_Node000037_Node000017" class="edge">
<title>Node37&#45;&gt;Node17</title>
<g id="a_edge45_Node000037_Node000017"><a xlink:title=" ">
<path fill="none" stroke="#63b8ff" d="M791.18,-51.5C808.04,-53.76 826.26,-56.21 843.13,-58.48"/>
<polygon fill="#63b8ff" stroke="#63b8ff" points="843.06,-62 853.44,-59.87 843.99,-55.06 843.06,-62"/>
</a>
</g>
</g>
</g>
</svg>

<g id="navigator" transform="translate(0 0)" fill="#404254">
  <rect fill="#f2f5e9" fill-opacity="0.5" stroke="#606060" stroke-width=".5" x="0" y="0" width="60" height="60"/>
  <use id="zoomplus" xlink:href="#zoomPlus" x="17" y="9" onmousedown="handleZoom(evt,'in')"/>
  <use id="zoomminus" xlink:href="#zoomMin" x="42" y="9" onmousedown="handleZoom(evt,'out')"/>
  <use id="reset" xlink:href="#resetDef" x="30" y="36" onmousedown="handleReset()"/>
   <use id="arrowup" xlink:href="#arrowUp" x="0" y="0" onmousedown="handlePan(0,-1)"/>
  <use id="arrowright" xlink:href="#arrowRight" x="0" y="0" onmousedown="handlePan(1,0)"/>
  <use id="arrowdown" xlink:href="#arrowDown" x="0" y="0" onmousedown="handlePan(0,1)"/>
  <use id="arrowleft" xlink:href="#arrowLeft" x="0" y="0" onmousedown="handlePan(-1,0)"/>
</g>
<svg viewBox="0 0 15 15" width="100%" height="30px" preserveAspectRatio="xMaxYMin meet">
 <g id="arrow_out" transform="scale(0.3 0.3)">
  <a xlink:href="menu__items_8h_a54a4da908a31782d2dd58a320dea741e_cgraph_org.svg" target="_base">
   <rect id="button" ry="5" rx="5" y="6" x="6" height="38" width="38"
        fill="#f2f5e9" fill-opacity="0.5" stroke="#606060" stroke-width="1.0"/>
   <path id="arrow"
     d="M 11.500037,31.436501 C 11.940474,20.09759 22.043105,11.32322 32.158766,21.979434 L 37.068811,17.246167 C 37.068811,17.246167 37.088388,32 37.088388,32 L 22.160133,31.978069 C 22.160133,31.978069 26.997745,27.140456 26.997745,27.140456 C 18.528582,18.264221 13.291696,25.230495 11.500037,31.436501 z"
     style="fill:#404040;"/>
  </a>
 </g>
</svg>

<style type='text/css'>
<![CDATA[
[data-mouse-over-selected='false'] { opacity: 0.7; }
[data-mouse-over-selected='true']  { opacity: 1.0; }
]]>
</style>
<script type="application/ecmascript"><![CDATA[
document.addEventListener('DOMContentLoaded', (event) => {
  highlightEdges();
  highlightAdjacentNodes();
});
]]></script>
</svg>
