<?xml version="1.0" encoding="UTF-8" standalone="no"?>
<!DOCTYPE svg PUBLIC "-//W3C//DTD SVG 1.1//EN"
 "http://www.w3.org/Graphics/SVG/1.1/DTD/svg11.dtd">
<!-- Generated by graphviz version 2.43.0 (0)
 -->
<!-- Title: func_800A6CC0 Pages: 1 -->
<svg width="1609pt" height="405pt"
 viewBox="0.00 0.00 1609.00 405.00" xmlns="http://www.w3.org/2000/svg" xmlns:xlink="http://www.w3.org/1999/xlink">
<g id="graph0" class="graph" transform="scale(1 1) rotate(0) translate(4 401)">
<title>func_800A6CC0</title>
<!-- Node1 -->
<g id="Node000001" class="node">
<title>Node1</title>
<g id="a_Node000001"><a xlink:title=" ">
<polygon fill="#999999" stroke="#666666" points="93,-76 0,-76 0,-57 93,-57 93,-76"/>
<text text-anchor="middle" x="46.5" y="-64" font-family="Helvetica,sans-Serif" font-size="10.00">func_800A6CC0</text>
</a>
</g>
</g>
<!-- Node2 -->
<g id="Node000002" class="node">
<title>Node2</title>
<g id="a_Node000002"><a xlink:href="menu__items_8c.html#ac55af2c937cfbd7129994274ff49f766" target="_top" xlink:title=" ">
<polygon fill="white" stroke="#666666" points="222,-95 129,-95 129,-76 222,-76 222,-95"/>
<text text-anchor="middle" x="175.5" y="-83" font-family="Helvetica,sans-Serif" font-size="10.00">func_800A6D94</text>
</a>
</g>
</g>
<!-- Node1&#45;&gt;Node2 -->
<g id="edge1_Node000001_Node000002" class="edge">
<title>Node1&#45;&gt;Node2</title>
<g id="a_edge1_Node000001_Node000002"><a xlink:title=" ">
<path fill="none" stroke="#63b8ff" d="M93.35,-73.36C101.53,-74.58 110.14,-75.87 118.57,-77.13"/>
<polygon fill="#63b8ff" stroke="#63b8ff" points="118.31,-80.63 128.72,-78.65 119.35,-73.71 118.31,-80.63"/>
</a>
</g>
</g>
<!-- Node42 -->
<g id="Node000042" class="node">
<title>Node42</title>
<g id="a_Node000042"><a xlink:href="menu__items_8c.html#af2f6da2963f7cc24c5fad14aecd39c92" target="_top" xlink:title=" ">
<polygon fill="white" stroke="#666666" points="221.5,-58 129.5,-58 129.5,-39 221.5,-39 221.5,-58"/>
<text text-anchor="middle" x="175.5" y="-46" font-family="Helvetica,sans-Serif" font-size="10.00">func_800A6E94</text>
</a>
</g>
</g>
<!-- Node1&#45;&gt;Node42 -->
<g id="edge52_Node000001_Node000042" class="edge">
<title>Node1&#45;&gt;Node42</title>
<g id="a_edge52_Node000001_Node000042"><a xlink:title=" ">
<path fill="none" stroke="#63b8ff" d="M93.35,-60C101.72,-58.81 110.54,-57.56 119.16,-56.34"/>
<polygon fill="#63b8ff" stroke="#63b8ff" points="119.73,-59.8 129.14,-54.93 118.75,-52.87 119.73,-59.8"/>
</a>
</g>
</g>
<!-- Node3 -->
<g id="Node000003" class="node">
<title>Node3</title>
<g id="a_Node000003"><a xlink:href="menu__items_8c.html#a2879014cfbef2216fd01cd2c94373dde" target="_top" xlink:title=" ">
<polygon fill="white" stroke="#666666" points="373.5,-132 281.5,-132 281.5,-113 373.5,-113 373.5,-132"/>
<text text-anchor="middle" x="327.5" y="-120" font-family="Helvetica,sans-Serif" font-size="10.00">func_800A79F4</text>
</a>
</g>
</g>
<!-- Node2&#45;&gt;Node3 -->
<g id="edge2_Node000002_Node000003" class="edge">
<title>Node2&#45;&gt;Node3</title>
<g id="a_edge2_Node000002_Node000003"><a xlink:title=" ">
<path fill="none" stroke="#63b8ff" d="M215.13,-95.03C234.3,-99.76 257.66,-105.52 278.02,-110.54"/>
<polygon fill="#63b8ff" stroke="#63b8ff" points="277.19,-113.94 287.74,-112.94 278.87,-107.15 277.19,-113.94"/>
</a>
</g>
</g>
<!-- Node4 -->
<g id="Node000004" class="node">
<title>Node4</title>
<g id="a_Node000004"><a xlink:href="menu__items_8c.html#a1a002f259a6c887d6672085b8cda7d4d" target="_top" xlink:title=" ">
<polygon fill="white" stroke="#666666" points="370.5,-58 284.5,-58 284.5,-39 370.5,-39 370.5,-58"/>
<text text-anchor="middle" x="327.5" y="-46" font-family="Helvetica,sans-Serif" font-size="10.00">set_text_color</text>
</a>
</g>
</g>
<!-- Node2&#45;&gt;Node4 -->
<g id="edge3_Node000002_Node000004" class="edge">
<title>Node2&#45;&gt;Node4</title>
<g id="a_edge3_Node000002_Node000004"><a xlink:title=" ">
<path fill="none" stroke="#63b8ff" d="M215.13,-75.97C234.3,-71.24 257.66,-65.48 278.02,-60.46"/>
<polygon fill="#63b8ff" stroke="#63b8ff" points="278.87,-63.85 287.74,-58.06 277.19,-57.06 278.87,-63.85"/>
</a>
</g>
</g>
<!-- Node5 -->
<g id="Node000005" class="node">
<title>Node5</title>
<g id="a_Node000005"><a xlink:href="menu__items_8c.html#a24be09f5258f7b9e60f78e51ad9b5c73" target="_top" xlink:title=" ">
<polygon fill="white" stroke="#666666" points="360,-95 295,-95 295,-76 360,-76 360,-95"/>
<text text-anchor="middle" x="327.5" y="-83" font-family="Helvetica,sans-Serif" font-size="10.00">text_draw</text>
</a>
</g>
</g>
<!-- Node2&#45;&gt;Node5 -->
<g id="edge4_Node000002_Node000005" class="edge">
<title>Node2&#45;&gt;Node5</title>
<g id="a_edge4_Node000002_Node000005"><a xlink:title=" ">
<path fill="none" stroke="#63b8ff" d="M222.32,-85.5C242.18,-85.5 265.28,-85.5 284.68,-85.5"/>
<polygon fill="#63b8ff" stroke="#63b8ff" points="284.73,-89 294.73,-85.5 284.73,-82 284.73,-89"/>
</a>
</g>
</g>
<!-- Node6 -->
<g id="Node000006" class="node">
<title>Node6</title>
<g id="a_Node000006"><a xlink:href="menu__items_8c.html#afa1d2583978658f8524340b7b94544b1" target="_top" xlink:title=" ">
<polygon fill="white" stroke="#666666" points="503,-95 433,-95 433,-76 503,-76 503,-95"/>
<text text-anchor="middle" x="468" y="-83" font-family="Helvetica,sans-Serif" font-size="10.00">print_text2</text>
</a>
</g>
</g>
<!-- Node5&#45;&gt;Node6 -->
<g id="edge5_Node000005_Node000006" class="edge">
<title>Node5&#45;&gt;Node6</title>
<g id="a_edge5_Node000005_Node000006"><a xlink:title=" ">
<path fill="none" stroke="#63b8ff" d="M360.27,-85.5C378.77,-85.5 402.38,-85.5 422.68,-85.5"/>
<polygon fill="#63b8ff" stroke="#63b8ff" points="422.95,-89 432.95,-85.5 422.95,-82 422.95,-89"/>
</a>
</g>
</g>
<!-- Node7 -->
<g id="Node000007" class="node">
<title>Node7</title>
<g id="a_Node000007"><a xlink:href="menu__items_8c.html#ace62f40ce813c34904327e39643a0dbf" target="_top" xlink:title=" ">
<polygon fill="white" stroke="#666666" points="667,-340 550,-340 550,-321 667,-321 667,-340"/>
<text text-anchor="middle" x="608.5" y="-328" font-family="Helvetica,sans-Serif" font-size="10.00">char_to_glyph_index</text>
</a>
</g>
</g>
<!-- Node6&#45;&gt;Node7 -->
<g id="edge6_Node000006_Node000007" class="edge">
<title>Node6&#45;&gt;Node7</title>
<g id="a_edge6_Node000006_Node000007"><a xlink:title=" ">
<path fill="none" stroke="#63b8ff" d="M474.43,-95.1C495.16,-131.77 569.52,-263.32 597.11,-312.11"/>
<polygon fill="#63b8ff" stroke="#63b8ff" points="594.14,-313.98 602.11,-320.96 600.23,-310.53 594.14,-313.98"/>
</a>
</g>
</g>
<!-- Node11 -->
<g id="Node000011" class="node">
<title>Node11</title>
<g id="a_Node000011"><a xlink:href="FrameInterpolation_8cpp.html#a14ceaeb116362786310778e36943f7be" target="_top" xlink:title=" ">
<polygon fill="white" stroke="#666666" points="678,-143.5 539,-143.5 539,-113.5 678,-113.5 678,-143.5"/>
<text text-anchor="start" x="547" y="-131.5" font-family="Helvetica,sans-Serif" font-size="10.00">FrameInterpolation</text>
<text text-anchor="middle" x="608.5" y="-120.5" font-family="Helvetica,sans-Serif" font-size="10.00">_ShouldInterpolateFrame</text>
</a>
</g>
</g>
<!-- Node6&#45;&gt;Node11 -->
<g id="edge11_Node000006_Node000011" class="edge">
<title>Node6&#45;&gt;Node11</title>
<g id="a_edge11_Node000006_Node000011"><a xlink:title=" ">
<path fill="none" stroke="#63b8ff" d="M499.74,-95.04C514.33,-99.57 532.26,-105.14 549.28,-110.43"/>
<polygon fill="#63b8ff" stroke="#63b8ff" points="548.58,-113.87 559.17,-113.49 550.65,-107.19 548.58,-113.87"/>
</a>
</g>
</g>
<!-- Node12 -->
<g id="Node000012" class="node">
<title>Node12</title>
<g id="a_Node000012"><a xlink:href="GBIMiddleware_8cpp.html#a4ecc44e3c6f1ca5a6b4a20c41d3bd2d2" target="_top" xlink:title=" ">
<polygon fill="white" stroke="#666666" points="1103.5,-71 1014.5,-71 1014.5,-52 1103.5,-52 1103.5,-71"/>
<text text-anchor="middle" x="1059" y="-59" font-family="Helvetica,sans-Serif" font-size="10.00">gSPDisplayList</text>
</a>
</g>
</g>
<!-- Node6&#45;&gt;Node12 -->
<g id="edge12_Node000006_Node000012" class="edge">
<title>Node6&#45;&gt;Node12</title>
<g id="a_edge12_Node000006_Node000012"><a xlink:title=" ">
<path fill="none" stroke="#63b8ff" d="M499.7,-75.94C511.82,-72.61 525.94,-69.26 539,-67.5 707.49,-44.77 909.54,-52.29 1004.16,-57.81"/>
<polygon fill="#63b8ff" stroke="#63b8ff" points="1004.15,-61.32 1014.34,-58.42 1004.56,-54.33 1004.15,-61.32"/>
</a>
</g>
</g>
<!-- Node15 -->
<g id="Node000015" class="node">
<title>Node15</title>
<g id="a_Node000015"><a xlink:href="menu__items_8c.html#a68e560d23390d5add7cb57ccd82e21ae" target="_top" xlink:title=" ">
<polygon fill="white" stroke="#666666" points="656,-19 561,-19 561,0 656,0 656,-19"/>
<text text-anchor="middle" x="608.5" y="-7" font-family="Helvetica,sans-Serif" font-size="10.00">load_menu_img</text>
</a>
</g>
</g>
<!-- Node6&#45;&gt;Node15 -->
<g id="edge15_Node000006_Node000015" class="edge">
<title>Node6&#45;&gt;Node15</title>
<g id="a_edge15_Node000006_Node000015"><a xlink:title=" ">
<path fill="none" stroke="#63b8ff" d="M479.7,-75.92C492.86,-64.54 516.27,-45.57 539,-33.5 546.93,-29.29 555.74,-25.57 564.34,-22.39"/>
<polygon fill="#63b8ff" stroke="#63b8ff" points="565.62,-25.65 573.89,-19.03 563.3,-19.04 565.62,-25.65"/>
</a>
</g>
</g>
<!-- Node17 -->
<g id="Node000017" class="node">
<title>Node17</title>
<g id="a_Node000017"><a xlink:href="menu__items_8c.html#aafca6e35a19465ad361e68b13e467243" target="_top" xlink:title=" ">
<polygon fill="white" stroke="#666666" points="644,-95 573,-95 573,-76 644,-76 644,-95"/>
<text text-anchor="middle" x="608.5" y="-83" font-family="Helvetica,sans-Serif" font-size="10.00">print_letter</text>
</a>
</g>
</g>
<!-- Node6&#45;&gt;Node17 -->
<g id="edge17_Node000006_Node000017" class="edge">
<title>Node6&#45;&gt;Node17</title>
<g id="a_edge17_Node000006_Node000017"><a xlink:title=" ">
<path fill="none" stroke="#63b8ff" d="M503.24,-85.5C521.16,-85.5 543.34,-85.5 562.62,-85.5"/>
<polygon fill="#63b8ff" stroke="#63b8ff" points="562.7,-89 572.7,-85.5 562.7,-82 562.7,-89"/>
</a>
</g>
</g>
<!-- Node8 -->
<g id="Node000008" class="node">
<title>Node8</title>
<g id="a_Node000008"><a xlink:href="menu__items_8c.html#ae8ba1b567dba01ff15c64d416653a70b" target="_top" xlink:title=" ">
<polygon fill="white" stroke="#666666" points="806.5,-397 714.5,-397 714.5,-378 806.5,-378 806.5,-397"/>
<text text-anchor="middle" x="760.5" y="-385" font-family="Helvetica,sans-Serif" font-size="10.00">func_80092DF8</text>
</a>
</g>
</g>
<!-- Node7&#45;&gt;Node8 -->
<g id="edge7_Node000007_Node000008" class="edge">
<title>Node7&#45;&gt;Node8</title>
<g id="a_edge7_Node000007_Node000008"><a xlink:title=" ">
<path fill="none" stroke="#63b8ff" d="M634.61,-340.04C659.27,-349.41 697.1,-363.79 724.66,-374.26"/>
<polygon fill="#63b8ff" stroke="#63b8ff" points="723.72,-377.65 734.31,-377.93 726.21,-371.1 723.72,-377.65"/>
</a>
</g>
</g>
<!-- Node9 -->
<g id="Node000009" class="node">
<title>Node9</title>
<g id="a_Node000009"><a xlink:href="menu__items_8c.html#acd5b29a8e8634aa4f3db4b9a7c5ba033" target="_top" xlink:title=" ">
<polygon fill="white" stroke="#666666" points="944,-397 852,-397 852,-378 944,-378 944,-397"/>
<text text-anchor="middle" x="898" y="-385" font-family="Helvetica,sans-Serif" font-size="10.00">func_80092E1C</text>
</a>
</g>
</g>
<!-- Node7&#45;&gt;Node9 -->
<g id="edge9_Node000007_Node000009" class="edge">
<title>Node7&#45;&gt;Node9</title>
<g id="a_edge9_Node000007_Node000009"><a xlink:title=" ">
<path fill="none" stroke="#63b8ff" d="M657.8,-340C697.79,-347.88 756.09,-359.38 807,-369.5 818.24,-371.73 830.27,-374.13 841.76,-376.43"/>
<polygon fill="#63b8ff" stroke="#63b8ff" points="841.19,-379.88 851.68,-378.41 842.56,-373.02 841.19,-379.88"/>
</a>
</g>
</g>
<!-- Node10 -->
<g id="Node000010" class="node">
<title>Node10</title>
<g id="a_Node000010"><a xlink:href="menu__items_8c.html#ab26c8dca1828cd1d5a6c341cb851f0b9" target="_top" xlink:title=" ">
<polygon fill="white" stroke="#666666" points="806,-321 715,-321 715,-302 806,-302 806,-321"/>
<text text-anchor="middle" x="760.5" y="-309" font-family="Helvetica,sans-Serif" font-size="10.00">func_80092EE4</text>
</a>
</g>
</g>
<!-- Node7&#45;&gt;Node10 -->
<g id="edge10_Node000007_Node000010" class="edge">
<title>Node7&#45;&gt;Node10</title>
<g id="a_edge10_Node000007_Node000010"><a xlink:title=" ">
<path fill="none" stroke="#63b8ff" d="M667.06,-323.21C679.46,-321.64 692.52,-319.98 704.8,-318.43"/>
<polygon fill="#63b8ff" stroke="#63b8ff" points="705.42,-321.88 714.9,-317.15 704.54,-314.93 705.42,-321.88"/>
</a>
</g>
</g>
<!-- Node8&#45;&gt;Node9 -->
<g id="edge8_Node000008_Node000009" class="edge">
<title>Node8&#45;&gt;Node9</title>
<g id="a_edge8_Node000008_Node000009"><a xlink:title=" ">
<path fill="none" stroke="#63b8ff" d="M806.62,-387.5C817.81,-387.5 829.94,-387.5 841.56,-387.5"/>
<polygon fill="#63b8ff" stroke="#63b8ff" points="841.62,-391 851.62,-387.5 841.62,-384 841.62,-391"/>
</a>
</g>
</g>
<!-- Node13 -->
<g id="Node000013" class="node">
<title>Node13</title>
<g id="a_Node000013"><a xlink:href="Engine_8cpp.html#a223c8bc63f228dc11177515e38eff2db" target="_top" xlink:title=" ">
<polygon fill="white" stroke="#666666" points="1314,-90 1165,-90 1165,-71 1314,-71 1314,-90"/>
<text text-anchor="middle" x="1239.5" y="-78" font-family="Helvetica,sans-Serif" font-size="10.00">GameEngine_OTRSigCheck</text>
</a>
</g>
</g>
<!-- Node12&#45;&gt;Node13 -->
<g id="edge13_Node000012_Node000013" class="edge">
<title>Node12&#45;&gt;Node13</title>
<g id="a_edge13_Node000012_Node000013"><a xlink:title=" ">
<path fill="none" stroke="#63b8ff" d="M1103.67,-66.15C1119.02,-67.78 1136.84,-69.68 1154.4,-71.55"/>
<polygon fill="#63b8ff" stroke="#63b8ff" points="1154.36,-75.06 1164.68,-72.64 1155.11,-68.1 1154.36,-75.06"/>
</a>
</g>
</g>
<!-- Node14 -->
<g id="Node000014" class="node">
<title>Node14</title>
<g id="a_Node000014"><a xlink:href="string_8c.html#a008e171a518fe0e0352f31b245e03875" target="_top" xlink:title=" ">
<polygon fill="white" stroke="#666666" points="1396.5,-108 1352.5,-108 1352.5,-89 1396.5,-89 1396.5,-108"/>
<text text-anchor="middle" x="1374.5" y="-96" font-family="Helvetica,sans-Serif" font-size="10.00">strlen</text>
</a>
</g>
</g>
<!-- Node13&#45;&gt;Node14 -->
<g id="edge14_Node000013_Node000014" class="edge">
<title>Node13&#45;&gt;Node14</title>
<g id="a_edge14_Node000013_Node000014"><a xlink:title=" ">
<path fill="none" stroke="#63b8ff" d="M1310.89,-90.03C1321.94,-91.52 1332.84,-93 1342.38,-94.29"/>
<polygon fill="#63b8ff" stroke="#63b8ff" points="1342.12,-97.78 1352.49,-95.66 1343.05,-90.85 1342.12,-97.78"/>
</a>
</g>
</g>
<!-- Node16 -->
<g id="Node000016" class="node">
<title>Node16</title>
<g id="a_Node000016"><a xlink:href="menu__items_8c.html#a248768ee2e4ca9ae9cf0a30bfb256859" target="_top" xlink:title=" ">
<polygon fill="white" stroke="#666666" points="799.5,-19 721.5,-19 721.5,0 799.5,0 799.5,-19"/>
<text text-anchor="middle" x="760.5" y="-7" font-family="Helvetica,sans-Serif" font-size="10.00">load_texture</text>
</a>
</g>
</g>
<!-- Node15&#45;&gt;Node16 -->
<g id="edge16_Node000015_Node000016" class="edge">
<title>Node15&#45;&gt;Node16</title>
<g id="a_edge16_Node000015_Node000016"><a xlink:title=" ">
<path fill="none" stroke="#63b8ff" d="M656.14,-9.5C673.68,-9.5 693.65,-9.5 711.33,-9.5"/>
<polygon fill="#63b8ff" stroke="#63b8ff" points="711.44,-13 721.44,-9.5 711.44,-6 711.44,-13"/>
</a>
</g>
</g>
<!-- Node17&#45;&gt;Node12 -->
<g id="edge51_Node000017_Node000012" class="edge">
<title>Node17&#45;&gt;Node12</title>
<g id="a_edge51_Node000017_Node000012"><a xlink:title=" ">
<path fill="none" stroke="#63b8ff" d="M644.32,-83.64C722.28,-79.46 911.32,-69.35 1004.4,-64.37"/>
<polygon fill="#63b8ff" stroke="#63b8ff" points="1004.66,-67.86 1014.46,-63.83 1004.28,-60.87 1004.66,-67.86"/>
</a>
</g>
</g>
<!-- Node18 -->
<g id="Node000018" class="node">
<title>Node18</title>
<g id="a_Node000018"><a xlink:href="menu__items_8c.html#a37eb021a953285ba504198ac6ca73a9a" target="_top" xlink:title=" ">
<polygon fill="white" stroke="#666666" points="807,-207 714,-207 714,-188 807,-188 807,-207"/>
<text text-anchor="middle" x="760.5" y="-195" font-family="Helvetica,sans-Serif" font-size="10.00">func_80095BD0</text>
</a>
</g>
</g>
<!-- Node17&#45;&gt;Node18 -->
<g id="edge18_Node000017_Node000018" class="edge">
<title>Node17&#45;&gt;Node18</title>
<g id="a_edge18_Node000017_Node000018"><a xlink:title=" ">
<path fill="none" stroke="#63b8ff" d="M644.22,-91.01C655.57,-93.86 667.86,-98.13 678,-104.5 708.74,-123.81 734.43,-158.19 748.33,-179.3"/>
<polygon fill="#63b8ff" stroke="#63b8ff" points="745.53,-181.42 753.86,-187.97 751.43,-177.66 745.53,-181.42"/>
</a>
</g>
</g>
<!-- Node19 -->
<g id="Node000019" class="node">
<title>Node19</title>
<g id="a_Node000019"><a xlink:href="Matrix_8cpp.html#a6f64c44efb9bdfff802175a9739ce1f1" target="_top" xlink:title=" ">
<polygon fill="white" stroke="#666666" points="941.5,-311 854.5,-311 854.5,-292 941.5,-292 941.5,-311"/>
<text text-anchor="middle" x="898" y="-299" font-family="Helvetica,sans-Serif" font-size="10.00">AddTextMatrix</text>
</a>
</g>
</g>
<!-- Node18&#45;&gt;Node19 -->
<g id="edge19_Node000018_Node000019" class="edge">
<title>Node18&#45;&gt;Node19</title>
<g id="a_edge19_Node000018_Node000019"><a xlink:title=" ">
<path fill="none" stroke="#63b8ff" d="M768.25,-207.07C780.96,-224.44 810.17,-261.35 843,-282.5 846.11,-284.5 849.45,-286.32 852.9,-287.97"/>
<polygon fill="#63b8ff" stroke="#63b8ff" points="851.6,-291.22 862.17,-291.95 854.36,-284.79 851.6,-291.22"/>
</a>
</g>
</g>
<!-- Node23 -->
<g id="Node000023" class="node">
<title>Node23</title>
<g id="a_Node000023"><a xlink:href="FrameInterpolation_8cpp.html#a3a036bc9d533e28a4e9697cd20dccf3e" target="_top" xlink:title=" ">
<polygon fill="white" stroke="#666666" points="953,-359.5 843,-359.5 843,-329.5 953,-329.5 953,-359.5"/>
<text text-anchor="start" x="851" y="-347.5" font-family="Helvetica,sans-Serif" font-size="10.00">FrameInterpolation</text>
<text text-anchor="middle" x="898" y="-336.5" font-family="Helvetica,sans-Serif" font-size="10.00">_RecordCloseChild</text>
</a>
</g>
</g>
<!-- Node18&#45;&gt;Node23 -->
<g id="edge23_Node000018_Node000023" class="edge">
<title>Node18&#45;&gt;Node23</title>
<g id="a_edge23_Node000018_Node000023"><a xlink:title=" ">
<path fill="none" stroke="#63b8ff" d="M765.57,-207.15C775.59,-229.82 803.49,-287.09 843,-320.5 844.5,-321.77 846.07,-322.98 847.71,-324.14"/>
<polygon fill="#63b8ff" stroke="#63b8ff" points="845.93,-327.15 856.26,-329.48 849.63,-321.21 845.93,-327.15"/>
</a>
</g>
</g>
<!-- Node24 -->
<g id="Node000024" class="node">
<title>Node24</title>
<g id="a_Node000024"><a xlink:href="FrameInterpolation_8cpp.html#a0eda726b74eac815af4e874014e2727c" target="_top" xlink:title=" ">
<polygon fill="white" stroke="#666666" points="953,-273.5 843,-273.5 843,-243.5 953,-243.5 953,-273.5"/>
<text text-anchor="start" x="851" y="-261.5" font-family="Helvetica,sans-Serif" font-size="10.00">FrameInterpolation</text>
<text text-anchor="middle" x="898" y="-250.5" font-family="Helvetica,sans-Serif" font-size="10.00">_RecordOpenChild</text>
</a>
</g>
</g>
<!-- Node18&#45;&gt;Node24 -->
<g id="edge25_Node000018_Node000024" class="edge">
<title>Node18&#45;&gt;Node24</title>
<g id="a_edge25_Node000018_Node000024"><a xlink:title=" ">
<path fill="none" stroke="#63b8ff" d="M782.59,-207.13C799.03,-214.62 822.45,-225.27 843,-234.5 846.43,-236.04 849.99,-237.63 853.56,-239.23"/>
<polygon fill="#63b8ff" stroke="#63b8ff" points="852.43,-242.56 862.99,-243.43 855.28,-236.17 852.43,-242.56"/>
</a>
</g>
</g>
<!-- Node25 -->
<g id="Node000025" class="node">
<title>Node25</title>
<g id="a_Node000025"><a xlink:href="menu__items_8c.html#ae0fd5923ba70cf6939cd3fa8d09c1191" target="_top" xlink:title=" ">
<polygon fill="white" stroke="#666666" points="943.5,-133 852.5,-133 852.5,-114 943.5,-114 943.5,-133"/>
<text text-anchor="middle" x="898" y="-121" font-family="Helvetica,sans-Serif" font-size="10.00">func_800959F8</text>
</a>
</g>
</g>
<!-- Node18&#45;&gt;Node25 -->
<g id="edge27_Node000018_Node000025" class="edge">
<title>Node18&#45;&gt;Node25</title>
<g id="a_edge27_Node000018_Node000025"><a xlink:title=" ">
<path fill="none" stroke="#63b8ff" d="M773.59,-187.88C789,-175.98 816.77,-155.69 843,-142.5 847.11,-140.43 851.49,-138.5 855.92,-136.7"/>
<polygon fill="#63b8ff" stroke="#63b8ff" points="857.49,-139.85 865.6,-133.03 855.01,-133.31 857.49,-139.85"/>
</a>
</g>
</g>
<!-- Node27 -->
<g id="Node000027" class="node">
<title>Node27</title>
<g id="a_Node000027"><a xlink:href="stubs_8c.html#a8b417b868747c80d58f83d8a1e78ecf3" target="_top" xlink:title=" ">
<polygon fill="white" stroke="#666666" points="932,-170 864,-170 864,-151 932,-151 932,-170"/>
<text text-anchor="middle" x="898" y="-158" font-family="Helvetica,sans-Serif" font-size="10.00">rmonPrintf</text>
</a>
</g>
</g>
<!-- Node18&#45;&gt;Node27 -->
<g id="edge31_Node000018_Node000027" class="edge">
<title>Node18&#45;&gt;Node27</title>
<g id="a_edge31_Node000018_Node000027"><a xlink:title=" ">
<path fill="none" stroke="#63b8ff" d="M796.39,-187.97C813.94,-183.18 835.37,-177.33 853.93,-172.26"/>
<polygon fill="#63b8ff" stroke="#63b8ff" points="854.9,-175.62 863.63,-169.61 853.06,-168.87 854.9,-175.62"/>
</a>
</g>
</g>
<!-- Node40 -->
<g id="Node000040" class="node">
<title>Node40</title>
<g id="a_Node000040"><a xlink:href="Matrix_8cpp.html#a9818099a1ee20606a7d622e744846366" target="_top" xlink:title=" ">
<polygon fill="white" stroke="#666666" points="940,-207 856,-207 856,-188 940,-188 940,-207"/>
<text text-anchor="middle" x="898" y="-195" font-family="Helvetica,sans-Serif" font-size="10.00">SetTextMatrix</text>
</a>
</g>
</g>
<!-- Node18&#45;&gt;Node40 -->
<g id="edge47_Node000018_Node000040" class="edge">
<title>Node18&#45;&gt;Node40</title>
<g id="a_edge47_Node000018_Node000040"><a xlink:title=" ">
<path fill="none" stroke="#63b8ff" d="M807.37,-197.5C819.61,-197.5 832.91,-197.5 845.43,-197.5"/>
<polygon fill="#63b8ff" stroke="#63b8ff" points="845.72,-201 855.72,-197.5 845.72,-194 845.72,-201"/>
</a>
</g>
</g>
<!-- Node20 -->
<g id="Node000020" class="node">
<title>Node20</title>
<g id="a_Node000020"><a xlink:href="FrameInterpolation_8cpp.html#a8cf1f2d6fabc6925aa71a9515341b4aa" target="_top" xlink:title=" ">
<polygon fill="white" stroke="#666666" points="1129,-316.5 989,-316.5 989,-286.5 1129,-286.5 1129,-316.5"/>
<text text-anchor="start" x="997" y="-304.5" font-family="Helvetica,sans-Serif" font-size="10.00">FrameInterpolation</text>
<text text-anchor="middle" x="1059" y="-293.5" font-family="Helvetica,sans-Serif" font-size="10.00">_RecordMatrixMtxFToMtx</text>
</a>
</g>
</g>
<!-- Node19&#45;&gt;Node20 -->
<g id="edge20_Node000019_Node000020" class="edge">
<title>Node19&#45;&gt;Node20</title>
<g id="a_edge20_Node000019_Node000020"><a xlink:title=" ">
<path fill="none" stroke="#63b8ff" d="M941.61,-301.5C953.08,-301.5 965.86,-301.5 978.64,-301.5"/>
<polygon fill="#63b8ff" stroke="#63b8ff" points="978.86,-305 988.86,-301.5 978.86,-298 978.86,-305"/>
</a>
</g>
</g>
<!-- Node22 -->
<g id="Node000022" class="node">
<title>Node22</title>
<g id="a_Node000022"><a xlink:href="guMtxF2L_8c.html#a40ab2d64c609839ff1e0ef0de2d0dcc4" target="_top" xlink:title=" ">
<polygon fill="white" stroke="#666666" points="1091.5,-354 1026.5,-354 1026.5,-335 1091.5,-335 1091.5,-354"/>
<text text-anchor="middle" x="1059" y="-342" font-family="Helvetica,sans-Serif" font-size="10.00">guMtxF2L</text>
</a>
</g>
</g>
<!-- Node19&#45;&gt;Node22 -->
<g id="edge22_Node000019_Node000022" class="edge">
<title>Node19&#45;&gt;Node22</title>
<g id="a_edge22_Node000019_Node000022"><a xlink:title=" ">
<path fill="none" stroke="#63b8ff" d="M934.29,-311.04C958.6,-317.62 991,-326.38 1016.54,-333.29"/>
<polygon fill="#63b8ff" stroke="#63b8ff" points="1015.75,-336.7 1026.32,-335.93 1017.58,-329.94 1015.75,-336.7"/>
</a>
</g>
</g>
<!-- Node21 -->
<g id="Node000021" class="node">
<title>Node21</title>
<g id="a_Node000021"><a xlink:href="FrameInterpolation_8cpp.html#a02c7ac5342a4d376edee38f312b480bf" target="_top" xlink:title=" ">
<polygon fill="white" stroke="#666666" points="1293.5,-289 1185.5,-289 1185.5,-270 1293.5,-270 1293.5,-289"/>
<text text-anchor="middle" x="1239.5" y="-277" font-family="Helvetica,sans-Serif" font-size="10.00">check_if_recording</text>
</a>
</g>
</g>
<!-- Node20&#45;&gt;Node21 -->
<g id="edge21_Node000020_Node000021" class="edge">
<title>Node20&#45;&gt;Node21</title>
<g id="a_edge21_Node000020_Node000021"><a xlink:title=" ">
<path fill="none" stroke="#63b8ff" d="M1129.01,-292.99C1144.24,-291.12 1160.29,-289.14 1175.27,-287.29"/>
<polygon fill="#63b8ff" stroke="#63b8ff" points="1175.95,-290.74 1185.45,-286.04 1175.1,-283.79 1175.95,-290.74"/>
</a>
</g>
</g>
<!-- Node23&#45;&gt;Node21 -->
<g id="edge24_Node000023_Node000021" class="edge">
<title>Node23&#45;&gt;Node21</title>
<g id="a_edge24_Node000023_Node000021"><a xlink:title=" ">
<path fill="none" stroke="#63b8ff" d="M947.51,-359.55C995.03,-371.76 1068.86,-383.91 1129,-363.5 1167.86,-350.31 1203.73,-317.17 1223.22,-296.68"/>
<polygon fill="#63b8ff" stroke="#63b8ff" points="1225.86,-298.98 1230.09,-289.27 1220.73,-294.23 1225.86,-298.98"/>
</a>
</g>
</g>
<!-- Node24&#45;&gt;Node21 -->
<g id="edge26_Node000024_Node000021" class="edge">
<title>Node24&#45;&gt;Node21</title>
<g id="a_edge26_Node000024_Node000021"><a xlink:title=" ">
<path fill="none" stroke="#63b8ff" d="M953.17,-261.85C1013.55,-265.59 1111.09,-271.62 1175.01,-275.57"/>
<polygon fill="#63b8ff" stroke="#63b8ff" points="1175.16,-279.09 1185.36,-276.21 1175.6,-272.1 1175.16,-279.09"/>
</a>
</g>
</g>
<!-- Node25&#45;&gt;Node12 -->
<g id="edge28_Node000025_Node000012" class="edge">
<title>Node25&#45;&gt;Node12</title>
<g id="a_edge28_Node000025_Node000012"><a xlink:title=" ">
<path fill="none" stroke="#63b8ff" d="M921.49,-113.91C931.24,-109.65 942.76,-104.47 953,-99.5 969.28,-91.6 972.18,-87.16 989,-80.5 994.99,-78.13 1001.38,-75.94 1007.77,-73.95"/>
<polygon fill="#63b8ff" stroke="#63b8ff" points="1009.15,-77.19 1017.74,-71 1007.16,-70.48 1009.15,-77.19"/>
</a>
</g>
</g>
<!-- Node26 -->
<g id="Node000026" class="node">
<title>Node26</title>
<g id="a_Node000026"><a xlink:href="GBIMiddleware_8cpp.html#aeef79449a27a710d73576e4a4f7f7f99" target="_top" xlink:title=" ">
<polygon fill="white" stroke="#666666" points="1092,-108 1026,-108 1026,-89 1092,-89 1092,-108"/>
<text text-anchor="middle" x="1059" y="-96" font-family="Helvetica,sans-Serif" font-size="10.00">gSPVertex</text>
</a>
</g>
</g>
<!-- Node25&#45;&gt;Node26 -->
<g id="edge29_Node000025_Node000026" class="edge">
<title>Node25&#45;&gt;Node26</title>
<g id="a_edge29_Node000025_Node000026"><a xlink:title=" ">
<path fill="none" stroke="#63b8ff" d="M943.71,-116.47C966.23,-112.93 993.39,-108.66 1015.58,-105.17"/>
<polygon fill="#63b8ff" stroke="#63b8ff" points="1016.38,-108.59 1025.71,-103.58 1015.29,-101.67 1016.38,-108.59"/>
</a>
</g>
</g>
<!-- Node26&#45;&gt;Node13 -->
<g id="edge30_Node000026_Node000013" class="edge">
<title>Node26&#45;&gt;Node13</title>
<g id="a_edge30_Node000026_Node000013"><a xlink:title=" ">
<path fill="none" stroke="#63b8ff" d="M1092.33,-95.24C1109.92,-93.47 1132.59,-91.18 1154.8,-88.94"/>
<polygon fill="#63b8ff" stroke="#63b8ff" points="1155.35,-92.4 1164.95,-87.92 1154.65,-85.44 1155.35,-92.4"/>
</a>
</g>
</g>
<!-- Node28 -->
<g id="Node000028" class="node">
<title>Node28</title>
<g id="a_Node000028"><a xlink:href="__Printf_8c.html#a39bb05c90efce6c6790c5d58d271d72d" target="_top" xlink:title=" ">
<polygon fill="white" stroke="#666666" points="1083,-145 1035,-145 1035,-126 1083,-126 1083,-145"/>
<text text-anchor="middle" x="1059" y="-133" font-family="Helvetica,sans-Serif" font-size="10.00">_Printf</text>
</a>
</g>
</g>
<!-- Node27&#45;&gt;Node28 -->
<g id="edge32_Node000027_Node000028" class="edge">
<title>Node27&#45;&gt;Node28</title>
<g id="a_edge32_Node000027_Node000028"><a xlink:title=" ">
<path fill="none" stroke="#63b8ff" d="M932.33,-155.26C959.5,-150.99 997.69,-144.98 1024.82,-140.72"/>
<polygon fill="#63b8ff" stroke="#63b8ff" points="1025.65,-144.13 1034.99,-139.12 1024.57,-137.21 1025.65,-144.13"/>
</a>
</g>
</g>
<!-- Node39 -->
<g id="Node000039" class="node">
<title>Node39</title>
<g id="a_Node000039"><a xlink:href="is__debug_8c.html#aaccfac8d9098530b6592eefe679d86b4" target="_top" xlink:title=" ">
<polygon fill="white" stroke="#666666" points="1111.5,-182 1006.5,-182 1006.5,-163 1111.5,-163 1111.5,-182"/>
<text text-anchor="middle" x="1059" y="-170" font-family="Helvetica,sans-Serif" font-size="10.00">is_proutSyncPrintf</text>
</a>
</g>
</g>
<!-- Node27&#45;&gt;Node39 -->
<g id="edge46_Node000027_Node000039" class="edge">
<title>Node27&#45;&gt;Node39</title>
<g id="a_edge46_Node000027_Node000039"><a xlink:title=" ">
<path fill="none" stroke="#63b8ff" d="M932.33,-163.02C950.81,-164.41 974.37,-166.19 996.09,-167.83"/>
<polygon fill="#63b8ff" stroke="#63b8ff" points="996.01,-171.33 1006.24,-168.59 996.53,-164.35 996.01,-171.33"/>
</a>
</g>
</g>
<!-- Node29 -->
<g id="Node000029" class="node">
<title>Node29</title>
<g id="a_Node000029"><a xlink:href="__Printf_8c.html#ad73a5847f2d7c9de14cc2723da86bf45" target="_top" xlink:title=" ">
<polygon fill="white" stroke="#666666" points="1264.5,-164 1214.5,-164 1214.5,-145 1264.5,-145 1264.5,-164"/>
<text text-anchor="middle" x="1239.5" y="-152" font-family="Helvetica,sans-Serif" font-size="10.00">_Putfld</text>
</a>
</g>
</g>
<!-- Node28&#45;&gt;Node29 -->
<g id="edge33_Node000028_Node000029" class="edge">
<title>Node28&#45;&gt;Node29</title>
<g id="a_edge33_Node000028_Node000029"><a xlink:title=" ">
<path fill="none" stroke="#63b8ff" d="M1083.34,-137.98C1114.08,-141.26 1168.41,-147.04 1203.93,-150.82"/>
<polygon fill="#63b8ff" stroke="#63b8ff" points="1203.99,-154.35 1214.3,-151.92 1204.73,-147.39 1203.99,-154.35"/>
</a>
</g>
</g>
<!-- Node38 -->
<g id="Node000038" class="node">
<title>Node38</title>
<g id="a_Node000038"><a xlink:href="string_8c.html#a988b4defe51a1815ef3b9ddab10e7a89" target="_top" xlink:title=" ">
<polygon fill="white" stroke="#666666" points="1261.5,-127 1217.5,-127 1217.5,-108 1261.5,-108 1261.5,-127"/>
<text text-anchor="middle" x="1239.5" y="-115" font-family="Helvetica,sans-Serif" font-size="10.00">strchr</text>
</a>
</g>
</g>
<!-- Node28&#45;&gt;Node38 -->
<g id="edge45_Node000028_Node000038" class="edge">
<title>Node28&#45;&gt;Node38</title>
<g id="a_edge45_Node000028_Node000038"><a xlink:title=" ">
<path fill="none" stroke="#63b8ff" d="M1083.34,-133.15C1115.02,-129.95 1171.76,-124.23 1207.14,-120.66"/>
<polygon fill="#63b8ff" stroke="#63b8ff" points="1207.79,-124.12 1217.38,-119.63 1207.08,-117.15 1207.79,-124.12"/>
</a>
</g>
</g>
<!-- Node29&#45;&gt;Node14 -->
<g id="edge44_Node000029_Node000014" class="edge">
<title>Node29&#45;&gt;Node14</title>
<g id="a_edge44_Node000029_Node000014"><a xlink:title=" ">
<path fill="none" stroke="#63b8ff" d="M1264.64,-150.66C1279.3,-147.82 1298.18,-143.27 1314,-136.5 1327.69,-130.64 1341.79,-121.78 1352.83,-114.09"/>
<polygon fill="#63b8ff" stroke="#63b8ff" points="1354.88,-116.93 1360.95,-108.25 1350.79,-111.25 1354.88,-116.93"/>
</a>
</g>
</g>
<!-- Node30 -->
<g id="Node000030" class="node">
<title>Node30</title>
<g id="a_Node000030"><a xlink:href="__Ldtob_8c.html#a7cc858157b66e15c831ad085113729ae" target="_top" xlink:title=" ">
<polygon fill="white" stroke="#666666" points="1399,-154 1350,-154 1350,-135 1399,-135 1399,-154"/>
<text text-anchor="middle" x="1374.5" y="-142" font-family="Helvetica,sans-Serif" font-size="10.00">_Ldtob</text>
</a>
</g>
</g>
<!-- Node29&#45;&gt;Node30 -->
<g id="edge34_Node000029_Node000030" class="edge">
<title>Node29&#45;&gt;Node30</title>
<g id="a_edge34_Node000029_Node000030"><a xlink:title=" ">
<path fill="none" stroke="#63b8ff" d="M1264.59,-152.69C1285.49,-151.12 1315.99,-148.82 1339.4,-147.06"/>
<polygon fill="#63b8ff" stroke="#63b8ff" points="1339.88,-150.54 1349.59,-146.3 1339.36,-143.56 1339.88,-150.54"/>
</a>
</g>
</g>
<!-- Node36 -->
<g id="Node000036" class="node">
<title>Node36</title>
<g id="a_Node000036"><a xlink:href="__Litob_8c.html#aaaba3b0ab7920d422a61fe9e22600dd0" target="_top" xlink:title=" ">
<polygon fill="white" stroke="#666666" points="1397.5,-248 1351.5,-248 1351.5,-229 1397.5,-229 1397.5,-248"/>
<text text-anchor="middle" x="1374.5" y="-236" font-family="Helvetica,sans-Serif" font-size="10.00">_Litob</text>
</a>
</g>
</g>
<!-- Node29&#45;&gt;Node36 -->
<g id="edge41_Node000029_Node000036" class="edge">
<title>Node29&#45;&gt;Node36</title>
<g id="a_edge41_Node000029_Node000036"><a xlink:title=" ">
<path fill="none" stroke="#63b8ff" d="M1255.76,-164.14C1278.81,-178.69 1322.7,-206.41 1349.89,-223.59"/>
<polygon fill="#63b8ff" stroke="#63b8ff" points="1348.1,-226.6 1358.42,-228.98 1351.84,-220.68 1348.1,-226.6"/>
</a>
</g>
</g>
<!-- Node31 -->
<g id="Node000031" class="node">
<title>Node31</title>
<g id="a_Node000031"><a xlink:href="__Ldtob_8c.html#a2b6c5318b43bab1636bad9113ffb2761" target="_top" xlink:title=" ">
<polygon fill="white" stroke="#666666" points="1495.5,-61 1445.5,-61 1445.5,-42 1495.5,-42 1495.5,-61"/>
<text text-anchor="middle" x="1470.5" y="-49" font-family="Helvetica,sans-Serif" font-size="10.00">_Genld</text>
</a>
</g>
</g>
<!-- Node30&#45;&gt;Node31 -->
<g id="edge35_Node000030_Node000031" class="edge">
<title>Node30&#45;&gt;Node31</title>
<g id="a_edge35_Node000030_Node000031"><a xlink:title=" ">
<path fill="none" stroke="#63b8ff" d="M1384.13,-134.88C1388.64,-129.78 1394.2,-123.37 1399,-117.5 1415.65,-97.12 1415.05,-87.66 1435,-70.5 1436.68,-69.05 1438.5,-67.66 1440.38,-66.35"/>
<polygon fill="#63b8ff" stroke="#63b8ff" points="1442.25,-69.3 1448.88,-61.04 1438.55,-63.36 1442.25,-69.3"/>
</a>
</g>
</g>
<!-- Node32 -->
<g id="Node000032" class="node">
<title>Node32</title>
<g id="a_Node000032"><a xlink:href="string_8c.html#ad7f1ae1bbb49dece44bda378982a704d" target="_top" xlink:title=" ">
<polygon fill="white" stroke="#666666" points="1601,-173 1542,-173 1542,-154 1601,-154 1601,-173"/>
<text text-anchor="middle" x="1571.5" y="-161" font-family="Helvetica,sans-Serif" font-size="10.00">memcpy</text>
</a>
</g>
</g>
<!-- Node30&#45;&gt;Node32 -->
<g id="edge39_Node000030_Node000032" class="edge">
<title>Node30&#45;&gt;Node32</title>
<g id="a_edge39_Node000030_Node000032"><a xlink:title=" ">
<path fill="none" stroke="#63b8ff" d="M1399.02,-146.79C1431.94,-150 1492.15,-155.87 1531.75,-159.72"/>
<polygon fill="#63b8ff" stroke="#63b8ff" points="1531.54,-163.22 1541.83,-160.71 1532.22,-156.25 1531.54,-163.22"/>
</a>
</g>
</g>
<!-- Node33 -->
<g id="Node000033" class="node">
<title>Node33</title>
<g id="a_Node000033"><a xlink:href="__Ldtob_8c.html#ab7ade9ce60aaa8baa0244b503351d742" target="_top" xlink:title=" ">
<polygon fill="white" stroke="#666666" points="1506,-211 1435,-211 1435,-192 1506,-192 1506,-211"/>
<text text-anchor="middle" x="1470.5" y="-199" font-family="Helvetica,sans-Serif" font-size="10.00">_Ldunscale</text>
</a>
</g>
</g>
<!-- Node30&#45;&gt;Node33 -->
<g id="edge37_Node000030_Node000033" class="edge">
<title>Node30&#45;&gt;Node33</title>
<g id="a_edge37_Node000030_Node000033"><a xlink:title=" ">
<path fill="none" stroke="#63b8ff" d="M1391.45,-154.17C1406.12,-163.07 1428.1,-176.4 1445,-186.64"/>
<polygon fill="#63b8ff" stroke="#63b8ff" points="1443.42,-189.78 1453.79,-191.97 1447.05,-183.8 1443.42,-189.78"/>
</a>
</g>
</g>
<!-- Node34 -->
<g id="Node000034" class="node">
<title>Node34</title>
<g id="a_Node000034"><a xlink:href="ldiv_8c.html#a0302920caf64a5fbe1ce0862799d7784" target="_top" xlink:title=" ">
<polygon fill="white" stroke="#666666" points="1488,-135 1453,-135 1453,-116 1488,-116 1488,-135"/>
<text text-anchor="middle" x="1470.5" y="-123" font-family="Helvetica,sans-Serif" font-size="10.00">ldiv</text>
</a>
</g>
</g>
<!-- Node30&#45;&gt;Node34 -->
<g id="edge38_Node000030_Node000034" class="edge">
<title>Node30&#45;&gt;Node34</title>
<g id="a_edge38_Node000030_Node000034"><a xlink:title=" ">
<path fill="none" stroke="#63b8ff" d="M1399.22,-139.71C1412.57,-137.01 1429.27,-133.63 1443.04,-130.85"/>
<polygon fill="#63b8ff" stroke="#63b8ff" points="1443.79,-134.27 1452.9,-128.86 1442.4,-127.41 1443.79,-134.27"/>
</a>
</g>
</g>
<!-- Node35 -->
<g id="Node000035" class="node">
<title>Node35</title>
<g id="a_Node000035"><a xlink:href="alBnkfNew_8c.html#a96a0200a6b40350e524f536d232ecb53" target="_top" xlink:title=" ">
<polygon fill="white" stroke="#666666" points="1496.5,-98 1444.5,-98 1444.5,-79 1496.5,-79 1496.5,-98"/>
<text text-anchor="middle" x="1470.5" y="-86" font-family="Helvetica,sans-Serif" font-size="10.00">unused</text>
</a>
</g>
</g>
<!-- Node30&#45;&gt;Node35 -->
<g id="edge40_Node000030_Node000035" class="edge">
<title>Node30&#45;&gt;Node35</title>
<g id="a_edge40_Node000030_Node000035"><a xlink:title=" ">
<path fill="none" stroke="#63b8ff" d="M1390.53,-134.85C1402.48,-127.25 1419.68,-116.48 1435,-107.5 1437.49,-106.04 1440.09,-104.55 1442.71,-103.07"/>
<polygon fill="#63b8ff" stroke="#63b8ff" points="1444.46,-106.1 1451.49,-98.18 1441.05,-99.99 1444.46,-106.1"/>
</a>
</g>
</g>
<!-- Node31&#45;&gt;Node32 -->
<g id="edge36_Node000031_Node000032" class="edge">
<title>Node31&#45;&gt;Node32</title>
<g id="a_edge36_Node000031_Node000032"><a xlink:title=" ">
<path fill="none" stroke="#63b8ff" d="M1492.6,-61.1C1497.29,-63.77 1502.04,-66.93 1506,-70.5 1530.2,-92.33 1550.12,-124.91 1561.14,-145.15"/>
<polygon fill="#63b8ff" stroke="#63b8ff" points="1558.05,-146.79 1565.82,-153.99 1564.24,-143.51 1558.05,-146.79"/>
</a>
</g>
</g>
<!-- Node36&#45;&gt;Node32 -->
<g id="edge43_Node000036_Node000032" class="edge">
<title>Node36&#45;&gt;Node32</title>
<g id="a_edge43_Node000036_Node000032"><a xlink:title=" ">
<path fill="none" stroke="#63b8ff" d="M1394.42,-248.01C1420.94,-259.89 1469.94,-276.49 1506,-257.5 1535.78,-241.82 1554.46,-205.49 1563.64,-182.86"/>
<polygon fill="#63b8ff" stroke="#63b8ff" points="1567,-183.87 1567.3,-173.28 1560.46,-181.38 1567,-183.87"/>
</a>
</g>
</g>
<!-- Node37 -->
<g id="Node000037" class="node">
<title>Node37</title>
<g id="a_Node000037"><a xlink:href="ldiv_8c.html#a5b23c3639f11980dca762c5f1d74f339" target="_top" xlink:title=" ">
<polygon fill="white" stroke="#666666" points="1489.5,-248 1451.5,-248 1451.5,-229 1489.5,-229 1489.5,-248"/>
<text text-anchor="middle" x="1470.5" y="-236" font-family="Helvetica,sans-Serif" font-size="10.00">lldiv</text>
</a>
</g>
</g>
<!-- Node36&#45;&gt;Node37 -->
<g id="edge42_Node000036_Node000037" class="edge">
<title>Node36&#45;&gt;Node37</title>
<g id="a_edge42_Node000036_Node000037"><a xlink:title=" ">
<path fill="none" stroke="#63b8ff" d="M1397.78,-238.5C1410.84,-238.5 1427.47,-238.5 1441.43,-238.5"/>
<polygon fill="#63b8ff" stroke="#63b8ff" points="1441.47,-242 1451.47,-238.5 1441.47,-235 1441.47,-242"/>
</a>
</g>
</g>
<!-- Node40&#45;&gt;Node40 -->
<g id="edge50_Node000040_Node000040" class="edge">
<title>Node40&#45;&gt;Node40</title>
<g id="a_edge50_Node000040_Node000040"><a xlink:title=" ">
<path fill="none" stroke="#63b8ff" d="M877.04,-207.08C866.84,-215.73 873.83,-225 898,-225 913.49,-225 921.92,-221.2 923.3,-216.19"/>
<polygon fill="#63b8ff" stroke="#63b8ff" points="926.42,-214.61 918.96,-207.08 920.1,-217.62 926.42,-214.61"/>
</a>
</g>
</g>
<!-- Node41 -->
<g id="Node000041" class="node">
<title>Node41</title>
<g id="a_Node000041"><a xlink:href="FrameInterpolation_8cpp.html#a5fbd67ef553452903cf553b9c224fa76" target="_top" xlink:title=" ">
<polygon fill="white" stroke="#666666" points="1123,-230.5 995,-230.5 995,-200.5 1123,-200.5 1123,-230.5"/>
<text text-anchor="start" x="1003" y="-218.5" font-family="Helvetica,sans-Serif" font-size="10.00">FrameInterpolation</text>
<text text-anchor="middle" x="1059" y="-207.5" font-family="Helvetica,sans-Serif" font-size="10.00">_Record_SetTextMatrix</text>
</a>
</g>
</g>
<!-- Node40&#45;&gt;Node41 -->
<g id="edge48_Node000040_Node000041" class="edge">
<title>Node40&#45;&gt;Node41</title>
<g id="a_edge48_Node000040_Node000041"><a xlink:title=" ">
<path fill="none" stroke="#63b8ff" d="M940.36,-202.18C954.02,-203.73 969.65,-205.5 984.96,-207.23"/>
<polygon fill="#63b8ff" stroke="#63b8ff" points="984.62,-210.72 994.95,-208.36 985.41,-203.76 984.62,-210.72"/>
</a>
</g>
</g>
<!-- Node41&#45;&gt;Node21 -->
<g id="edge49_Node000041_Node000021" class="edge">
<title>Node41&#45;&gt;Node21</title>
<g id="a_edge49_Node000041_Node000021"><a xlink:title=" ">
<path fill="none" stroke="#63b8ff" d="M1101.85,-230.51C1132.27,-241.41 1173.04,-256.03 1202.11,-266.45"/>
<polygon fill="#63b8ff" stroke="#63b8ff" points="1201.27,-269.87 1211.87,-269.95 1203.63,-263.28 1201.27,-269.87"/>
</a>
</g>
</g>
<!-- Node42&#45;&gt;Node4 -->
<g id="edge54_Node000042_Node000004" class="edge">
<title>Node42&#45;&gt;Node4</title>
<g id="a_edge54_Node000042_Node000004"><a xlink:title=" ">
<path fill="none" stroke="#63b8ff" d="M221.5,-48.5C238.01,-48.5 256.84,-48.5 273.95,-48.5"/>
<polygon fill="#63b8ff" stroke="#63b8ff" points="274.35,-52 284.35,-48.5 274.35,-45 274.35,-52"/>
</a>
</g>
</g>
<!-- Node42&#45;&gt;Node5 -->
<g id="edge55_Node000042_Node000005" class="edge">
<title>Node42&#45;&gt;Node5</title>
<g id="a_edge55_Node000042_Node000005"><a xlink:title=" ">
<path fill="none" stroke="#63b8ff" d="M215.13,-58.03C236.41,-63.28 262.85,-69.8 284.62,-75.17"/>
<polygon fill="#63b8ff" stroke="#63b8ff" points="284.03,-78.63 294.58,-77.63 285.71,-71.83 284.03,-78.63"/>
</a>
</g>
</g>
<!-- Node43 -->
<g id="Node000043" class="node">
<title>Node43</title>
<g id="a_Node000043"><a xlink:href="menu__items_8c.html#a87ff828f0134d42058cf8be2e012a8a3" target="_top" xlink:title=" ">
<polygon fill="white" stroke="#666666" points="397,-21 258,-21 258,-2 397,-2 397,-21"/>
<text text-anchor="middle" x="327.5" y="-9" font-family="Helvetica,sans-Serif" font-size="10.00">convert_number_to_ascii</text>
</a>
</g>
</g>
<!-- Node42&#45;&gt;Node43 -->
<g id="edge53_Node000042_Node000043" class="edge">
<title>Node42&#45;&gt;Node43</title>
<g id="a_edge53_Node000042_Node000043"><a xlink:title=" ">
<path fill="none" stroke="#63b8ff" d="M215.13,-38.97C234.3,-34.24 257.66,-28.48 278.02,-23.46"/>
<polygon fill="#63b8ff" stroke="#63b8ff" points="278.87,-26.85 287.74,-21.06 277.19,-20.06 278.87,-26.85"/>
</a>
</g>
</g>
</g>
</svg>
