<?xml version="1.0" encoding="UTF-8" standalone="no"?>
<!DOCTYPE svg PUBLIC "-//W3C//DTD SVG 1.1//EN"
 "http://www.w3.org/Graphics/SVG/1.1/DTD/svg11.dtd">
<!-- Generated by graphviz version 2.43.0 (0)
 -->
<!-- Title: render_menu_item_announce_ghost Pages: 1 -->
<!--zoomable 508 -->

<svg id="main" version="1.1" xmlns="http://www.w3.org/2000/svg" xmlns:xlink="http://www.w3.org/1999/xlink" xml:space="preserve" onload="init(evt)">

<style type="text/css"><![CDATA[
.node, .edge {opacity: 0.7;}
.node.selected, .edge.selected {opacity: 1;}
.edge:hover path { stroke: red; }
.edge:hover polygon { stroke: red; fill: red; }
]]></style>

<defs>
  <circle id="rim" cx="0" cy="0" r="7"/>
  <circle id="rim2" cx="0" cy="0" r="3.5"/>
  <g id="zoomPlus">
    <use xlink:href="#rim" fill="#404040"><set attributeName="fill" to="#808080" begin="zoomplus.mouseover" end="zoomplus.mouseout"/></use>
    <path d="M-4,0h8M0,-4v8" fill="none" stroke="white" stroke-width="1.5" pointer-events="none"/>
  </g>
  <g id="zoomMin">
    <use xlink:href="#rim" fill="#404040"><set attributeName="fill" to="#808080" begin="zoomminus.mouseover" end="zoomminus.mouseout"/></use>
    <path d="M-4,0h8" fill="none" stroke="white" stroke-width="1.5" pointer-events="none"/>
  </g>
  <g id="arrowUp" transform="translate(30 24)">
    <use xlink:href="#rim"/>
    <path pointer-events="none" fill="none" stroke="white" stroke-width="1.5" d="M0,-3.0v7 M-2.5,-0.5L0,-3.0L2.5,-0.5"/>
  </g>
  <g id="arrowRight" transform="rotate(90) translate(36 -43)">
    <use xlink:href="#rim"/>
    <path pointer-events="none" fill="none" stroke="white" stroke-width="1.5" d="M0,-3.0v7 M-2.5,-0.5L0,-3.0L2.5,-0.5"/>
  </g>
  <g id="arrowDown" transform="rotate(180) translate(-30 -48)">
    <use xlink:href="#rim"/>
    <path pointer-events="none" fill="none" stroke="white" stroke-width="1.5" d="M0,-3.0v7 M-2.5,-0.5L0,-3.0L2.5,-0.5"/>
  </g>
  <g id="arrowLeft" transform="rotate(270) translate(-36 17)">
    <use xlink:href="#rim"/>
    <path pointer-events="none" fill="none" stroke="white" stroke-width="1.5" d="M0,-3.0v7 M-2.5,-0.5L0,-3.0L2.5,-0.5"/>
  </g>
  <g id="resetDef">
    <use xlink:href="#rim2" fill="#404040"><set attributeName="fill" to="#808080" begin="reset.mouseover" end="reset.mouseout"/></use>
  </g>
</defs>
<script type="application/ecmascript">
var viewWidth = 1543;
var viewHeight = 508;
var sectionId = 'dynsection-412';
</script>
<script type="application/ecmascript" xlink:href="svg.min.js"/>
<svg id="graph" class="graph">
<g id="viewport">
<title>render_menu_item_announce_ghost</title>
<!-- Node1 -->
<g id="Node000001" class="node">
<title>Node1</title>
<g id="a_Node000001"><a xlink:title=" ">
<polygon fill="#999999" stroke="#666666" points="161,-90.44 0,-90.44 0,-60.44 161,-60.44 161,-90.44"/>
<text text-anchor="start" x="8" y="-78.44" font-family="Helvetica,sans-Serif" font-size="10.00">render_menu_item_announce</text>
<text text-anchor="middle" x="80.5" y="-67.44" font-family="Helvetica,sans-Serif" font-size="10.00">_ghost</text>
</a>
</g>
</g>
<!-- Node2 -->
<g id="Node000002" class="node">
<title>Node2</title>
<g id="a_Node000002"><a xlink:href="menu__items_8c.html#a4a3e73dfeae9dc0d77f213e77791181c" target="_top" xlink:title=" ">
<polygon fill="white" stroke="#666666" points="282,-65.94 218,-65.94 218,-46.94 282,-46.94 282,-65.94"/>
<text text-anchor="middle" x="250" y="-53.94" font-family="Helvetica,sans-Serif" font-size="10.00">draw_box</text>
</a>
</g>
</g>
<!-- Node1&#45;&gt;Node2 -->
<g id="edge1_Node000001_Node000002" class="edge">
<title>Node1&#45;&gt;Node2</title>
<g id="a_edge1_Node000001_Node000002"><a xlink:title=" ">
<path fill="none" stroke="#63b8ff" d="M161.33,-66.38C177.31,-64.57 193.48,-62.74 207.51,-61.15"/>
<polygon fill="#63b8ff" stroke="#63b8ff" points="208.24,-64.59 217.78,-59.98 207.45,-57.63 208.24,-64.59"/>
</a>
</g>
</g>
<!-- Node7 -->
<g id="Node000007" class="node">
<title>Node7</title>
<g id="a_Node000007"><a xlink:href="menu__items_8c.html#a7d794365d2dcd6526ddb06e476bef1e3" target="_top" xlink:title=" ">
<polygon fill="white" stroke="#666666" points="437,-103.94 339,-103.94 339,-84.94 437,-84.94 437,-103.94"/>
<text text-anchor="middle" x="388" y="-91.94" font-family="Helvetica,sans-Serif" font-size="10.00">get_string_width</text>
</a>
</g>
</g>
<!-- Node1&#45;&gt;Node7 -->
<g id="edge6_Node000001_Node000007" class="edge">
<title>Node1&#45;&gt;Node7</title>
<g id="a_edge6_Node000001_Node000007"><a xlink:title=" ">
<path fill="none" stroke="#63b8ff" d="M161.37,-80.41C213.74,-83.66 281.05,-87.85 328.48,-90.8"/>
<polygon fill="#63b8ff" stroke="#63b8ff" points="328.38,-94.3 338.58,-91.43 328.82,-87.31 328.38,-94.3"/>
</a>
</g>
</g>
<!-- Node12 -->
<g id="Node000012" class="node">
<title>Node12</title>
<g id="a_Node000012"><a xlink:href="menu__items_8c.html#ac9a8fae36ca33cb34bee67b9f9ab440f" target="_top" xlink:title=" ">
<polygon fill="white" stroke="#666666" points="303,-170.44 197,-170.44 197,-140.44 303,-140.44 303,-170.44"/>
<text text-anchor="start" x="205" y="-158.44" font-family="Helvetica,sans-Serif" font-size="10.00">print_text1_center</text>
<text text-anchor="middle" x="250" y="-147.44" font-family="Helvetica,sans-Serif" font-size="10.00">_mode_1</text>
</a>
</g>
</g>
<!-- Node1&#45;&gt;Node12 -->
<g id="edge12_Node000001_Node000012" class="edge">
<title>Node1&#45;&gt;Node12</title>
<g id="a_edge12_Node000001_Node000012"><a xlink:title=" ">
<path fill="none" stroke="#63b8ff" d="M113.01,-90.49C139.94,-103.35 178.88,-121.95 208.2,-135.95"/>
<polygon fill="#63b8ff" stroke="#63b8ff" points="206.82,-139.17 217.35,-140.32 209.84,-132.85 206.82,-139.17"/>
</a>
</g>
</g>
<!-- Node42 -->
<g id="Node000042" class="node">
<title>Node42</title>
<g id="a_Node000042"><a xlink:href="menu__items_8c.html#a1a002f259a6c887d6672085b8cda7d4d" target="_top" xlink:title=" ">
<polygon fill="white" stroke="#666666" points="293,-28.94 207,-28.94 207,-9.94 293,-9.94 293,-28.94"/>
<text text-anchor="middle" x="250" y="-16.94" font-family="Helvetica,sans-Serif" font-size="10.00">set_text_color</text>
</a>
</g>
</g>
<!-- Node1&#45;&gt;Node42 -->
<g id="edge54_Node000001_Node000042" class="edge">
<title>Node1&#45;&gt;Node42</title>
<g id="a_edge54_Node000001_Node000042"><a xlink:title=" ">
<path fill="none" stroke="#63b8ff" d="M126.39,-60.43C152.82,-51.59 185.89,-40.54 211.03,-32.13"/>
<polygon fill="#63b8ff" stroke="#63b8ff" points="212.21,-35.43 220.58,-28.94 209.99,-28.79 212.21,-35.43"/>
</a>
</g>
</g>
<!-- Node3 -->
<g id="Node000003" class="node">
<title>Node3</title>
<g id="a_Node000003"><a xlink:href="GBIMiddleware_8cpp.html#a4ecc44e3c6f1ca5a6b4a20c41d3bd2d2" target="_top" xlink:title=" ">
<polygon fill="white" stroke="#666666" points="1037.5,-178.94 948.5,-178.94 948.5,-159.94 1037.5,-159.94 1037.5,-178.94"/>
<text text-anchor="middle" x="993" y="-166.94" font-family="Helvetica,sans-Serif" font-size="10.00">gSPDisplayList</text>
</a>
</g>
</g>
<!-- Node2&#45;&gt;Node3 -->
<g id="edge2_Node000002_Node000003" class="edge">
<title>Node2&#45;&gt;Node3</title>
<g id="a_edge2_Node000002_Node000003"><a xlink:title=" ">
<path fill="none" stroke="#63b8ff" d="M280.75,-46.81C332.94,-30.8 444.68,-0.44 541.5,-0.44 541.5,-0.44 541.5,-0.44 695.5,-0.44 782.27,-0.44 812.82,6.58 887,-38.44 932.69,-66.17 966.8,-121.39 982.48,-150.49"/>
<polygon fill="#63b8ff" stroke="#63b8ff" points="979.51,-152.36 987.24,-159.6 985.71,-149.12 979.51,-152.36"/>
</a>
</g>
</g>
<!-- Node6 -->
<g id="Node000006" class="node">
<title>Node6</title>
<g id="a_Node000006"><a xlink:href="menu__items_8c.html#a2341569d8bfc9b8aac7d5dab7933c999" target="_top" xlink:title=" ">
<polygon fill="white" stroke="#666666" points="428,-65.94 348,-65.94 348,-46.94 428,-46.94 428,-65.94"/>
<text text-anchor="middle" x="388" y="-53.94" font-family="Helvetica,sans-Serif" font-size="10.00">swap_values</text>
</a>
</g>
</g>
<!-- Node2&#45;&gt;Node6 -->
<g id="edge5_Node000002_Node000006" class="edge">
<title>Node2&#45;&gt;Node6</title>
<g id="a_edge5_Node000002_Node000006"><a xlink:title=" ">
<path fill="none" stroke="#63b8ff" d="M282.2,-56.44C298.68,-56.44 319.28,-56.44 337.84,-56.44"/>
<polygon fill="#63b8ff" stroke="#63b8ff" points="337.91,-59.94 347.91,-56.44 337.91,-52.94 337.91,-59.94"/>
</a>
</g>
</g>
<!-- Node4 -->
<g id="Node000004" class="node">
<title>Node4</title>
<g id="a_Node000004"><a xlink:href="Engine_8cpp.html#a223c8bc63f228dc11177515e38eff2db" target="_top" xlink:title=" ">
<polygon fill="white" stroke="#666666" points="1248,-215.94 1099,-215.94 1099,-196.94 1248,-196.94 1248,-215.94"/>
<text text-anchor="middle" x="1173.5" y="-203.94" font-family="Helvetica,sans-Serif" font-size="10.00">GameEngine_OTRSigCheck</text>
</a>
</g>
</g>
<!-- Node3&#45;&gt;Node4 -->
<g id="edge3_Node000003_Node000004" class="edge">
<title>Node3&#45;&gt;Node4</title>
<g id="a_edge3_Node000003_Node000004"><a xlink:title=" ">
<path fill="none" stroke="#63b8ff" d="M1037.67,-178.49C1061.45,-183.42 1091.13,-189.57 1116.59,-194.85"/>
<polygon fill="#63b8ff" stroke="#63b8ff" points="1115.98,-198.3 1126.48,-196.9 1117.4,-191.44 1115.98,-198.3"/>
</a>
</g>
</g>
<!-- Node5 -->
<g id="Node000005" class="node">
<title>Node5</title>
<g id="a_Node000005"><a xlink:href="string_8c.html#a008e171a518fe0e0352f31b245e03875" target="_top" xlink:title=" ">
<polygon fill="white" stroke="#666666" points="1330.5,-215.94 1286.5,-215.94 1286.5,-196.94 1330.5,-196.94 1330.5,-215.94"/>
<text text-anchor="middle" x="1308.5" y="-203.94" font-family="Helvetica,sans-Serif" font-size="10.00">strlen</text>
</a>
</g>
</g>
<!-- Node4&#45;&gt;Node5 -->
<g id="edge4_Node000004_Node000005" class="edge">
<title>Node4&#45;&gt;Node5</title>
<g id="a_edge4_Node000004_Node000005"><a xlink:title=" ">
<path fill="none" stroke="#63b8ff" d="M1248,-206.44C1257.89,-206.44 1267.56,-206.44 1276.14,-206.44"/>
<polygon fill="#63b8ff" stroke="#63b8ff" points="1276.36,-209.94 1286.36,-206.44 1276.36,-202.94 1276.36,-209.94"/>
</a>
</g>
</g>
<!-- Node8 -->
<g id="Node000008" class="node">
<title>Node8</title>
<g id="a_Node000008"><a xlink:href="menu__items_8c.html#ace62f40ce813c34904327e39643a0dbf" target="_top" xlink:title=" ">
<polygon fill="white" stroke="#666666" points="601,-103.94 484,-103.94 484,-84.94 601,-84.94 601,-103.94"/>
<text text-anchor="middle" x="542.5" y="-91.94" font-family="Helvetica,sans-Serif" font-size="10.00">char_to_glyph_index</text>
</a>
</g>
</g>
<!-- Node7&#45;&gt;Node8 -->
<g id="edge7_Node000007_Node000008" class="edge">
<title>Node7&#45;&gt;Node8</title>
<g id="a_edge7_Node000007_Node000008"><a xlink:title=" ">
<path fill="none" stroke="#63b8ff" d="M437.25,-94.44C448.84,-94.44 461.43,-94.44 473.73,-94.44"/>
<polygon fill="#63b8ff" stroke="#63b8ff" points="473.95,-97.94 483.95,-94.44 473.95,-90.94 473.95,-97.94"/>
</a>
</g>
</g>
<!-- Node9 -->
<g id="Node000009" class="node">
<title>Node9</title>
<g id="a_Node000009"><a xlink:href="menu__items_8c.html#ae8ba1b567dba01ff15c64d416653a70b" target="_top" xlink:title=" ">
<polygon fill="white" stroke="#666666" points="740.5,-47.94 648.5,-47.94 648.5,-28.94 740.5,-28.94 740.5,-47.94"/>
<text text-anchor="middle" x="694.5" y="-35.94" font-family="Helvetica,sans-Serif" font-size="10.00">func_80092DF8</text>
</a>
</g>
</g>
<!-- Node8&#45;&gt;Node9 -->
<g id="edge8_Node000008_Node000009" class="edge">
<title>Node8&#45;&gt;Node9</title>
<g id="a_edge8_Node000008_Node000009"><a xlink:title=" ">
<path fill="none" stroke="#63b8ff" d="M569.29,-84.81C593.9,-75.62 631.19,-61.7 658.49,-51.51"/>
<polygon fill="#63b8ff" stroke="#63b8ff" points="659.91,-54.72 668.05,-47.94 657.46,-48.16 659.91,-54.72"/>
</a>
</g>
</g>
<!-- Node10 -->
<g id="Node000010" class="node">
<title>Node10</title>
<g id="a_Node000010"><a xlink:href="menu__items_8c.html#acd5b29a8e8634aa4f3db4b9a7c5ba033" target="_top" xlink:title=" ">
<polygon fill="white" stroke="#666666" points="878,-66.94 786,-66.94 786,-47.94 878,-47.94 878,-66.94"/>
<text text-anchor="middle" x="832" y="-54.94" font-family="Helvetica,sans-Serif" font-size="10.00">func_80092E1C</text>
</a>
</g>
</g>
<!-- Node8&#45;&gt;Node10 -->
<g id="edge10_Node000008_Node000010" class="edge">
<title>Node8&#45;&gt;Node10</title>
<g id="a_edge10_Node000008_Node000010"><a xlink:title=" ">
<path fill="none" stroke="#63b8ff" d="M601.33,-87C652.26,-80.44 725.92,-70.96 775.99,-64.52"/>
<polygon fill="#63b8ff" stroke="#63b8ff" points="776.52,-67.98 785.99,-63.23 775.62,-61.04 776.52,-67.98"/>
</a>
</g>
</g>
<!-- Node11 -->
<g id="Node000011" class="node">
<title>Node11</title>
<g id="a_Node000011"><a xlink:href="menu__items_8c.html#ab26c8dca1828cd1d5a6c341cb851f0b9" target="_top" xlink:title=" ">
<polygon fill="white" stroke="#666666" points="740,-123.94 649,-123.94 649,-104.94 740,-104.94 740,-123.94"/>
<text text-anchor="middle" x="694.5" y="-111.94" font-family="Helvetica,sans-Serif" font-size="10.00">func_80092EE4</text>
</a>
</g>
</g>
<!-- Node8&#45;&gt;Node11 -->
<g id="edge11_Node000008_Node000011" class="edge">
<title>Node8&#45;&gt;Node11</title>
<g id="a_edge11_Node000008_Node000011"><a xlink:title=" ">
<path fill="none" stroke="#63b8ff" d="M601.06,-102.11C613.46,-103.77 626.52,-105.51 638.8,-107.15"/>
<polygon fill="#63b8ff" stroke="#63b8ff" points="638.53,-110.64 648.9,-108.49 639.45,-103.7 638.53,-110.64"/>
</a>
</g>
</g>
<!-- Node9&#45;&gt;Node10 -->
<g id="edge9_Node000009_Node000010" class="edge">
<title>Node9&#45;&gt;Node10</title>
<g id="a_edge9_Node000009_Node000010"><a xlink:title=" ">
<path fill="none" stroke="#63b8ff" d="M740.62,-44.77C751.81,-46.34 763.94,-48.04 775.56,-49.67"/>
<polygon fill="#63b8ff" stroke="#63b8ff" points="775.23,-53.15 785.62,-51.07 776.2,-46.22 775.23,-53.15"/>
</a>
</g>
</g>
<!-- Node13 -->
<g id="Node000013" class="node">
<title>Node13</title>
<g id="a_Node000013"><a xlink:href="menu__items_8c.html#ad2af1a6781c3f0bf246aba0d078ae773" target="_top" xlink:title=" ">
<polygon fill="white" stroke="#666666" points="423,-180.94 353,-180.94 353,-161.94 423,-161.94 423,-180.94"/>
<text text-anchor="middle" x="388" y="-168.94" font-family="Helvetica,sans-Serif" font-size="10.00">print_text1</text>
</a>
</g>
</g>
<!-- Node12&#45;&gt;Node13 -->
<g id="edge13_Node000012_Node000013" class="edge">
<title>Node12&#45;&gt;Node13</title>
<g id="a_edge13_Node000012_Node000013"><a xlink:title=" ">
<path fill="none" stroke="#63b8ff" d="M303.19,-161.58C316.18,-163.11 329.99,-164.73 342.57,-166.21"/>
<polygon fill="#63b8ff" stroke="#63b8ff" points="342.46,-169.72 352.8,-167.42 343.28,-162.77 342.46,-169.72"/>
</a>
</g>
</g>
<!-- Node13&#45;&gt;Node3 -->
<g id="edge16_Node000013_Node000003" class="edge">
<title>Node13&#45;&gt;Node3</title>
<g id="a_edge16_Node000013_Node000003"><a xlink:title=" ">
<path fill="none" stroke="#63b8ff" d="M423.15,-171.33C523.25,-170.99 816.56,-170.02 938.19,-169.62"/>
<polygon fill="#63b8ff" stroke="#63b8ff" points="938.39,-173.12 948.38,-169.58 938.37,-166.12 938.39,-173.12"/>
</a>
</g>
</g>
<!-- Node13&#45;&gt;Node8 -->
<g id="edge14_Node000013_Node000008" class="edge">
<title>Node13&#45;&gt;Node8</title>
<g id="a_edge14_Node000013_Node000008"><a xlink:title=" ">
<path fill="none" stroke="#63b8ff" d="M408.01,-161.84C434.38,-148.53 482.27,-124.35 512.95,-108.86"/>
<polygon fill="#63b8ff" stroke="#63b8ff" points="514.91,-111.79 522.25,-104.16 511.75,-105.54 514.91,-111.79"/>
</a>
</g>
</g>
<!-- Node14 -->
<g id="Node000014" class="node">
<title>Node14</title>
<g id="a_Node000014"><a xlink:href="FrameInterpolation_8cpp.html#a14ceaeb116362786310778e36943f7be" target="_top" xlink:title=" ">
<polygon fill="white" stroke="#666666" points="612,-248.44 473,-248.44 473,-218.44 612,-218.44 612,-248.44"/>
<text text-anchor="start" x="481" y="-236.44" font-family="Helvetica,sans-Serif" font-size="10.00">FrameInterpolation</text>
<text text-anchor="middle" x="542.5" y="-225.44" font-family="Helvetica,sans-Serif" font-size="10.00">_ShouldInterpolateFrame</text>
</a>
</g>
</g>
<!-- Node13&#45;&gt;Node14 -->
<g id="edge15_Node000013_Node000014" class="edge">
<title>Node13&#45;&gt;Node14</title>
<g id="a_edge15_Node000013_Node000014"><a xlink:title=" ">
<path fill="none" stroke="#63b8ff" d="M409.55,-180.94C426.46,-188.65 451.12,-199.64 473,-208.44 478.34,-210.59 483.95,-212.76 489.56,-214.89"/>
<polygon fill="#63b8ff" stroke="#63b8ff" points="488.36,-218.17 498.95,-218.4 490.81,-211.62 488.36,-218.17"/>
</a>
</g>
</g>
<!-- Node15 -->
<g id="Node000015" class="node">
<title>Node15</title>
<g id="a_Node000015"><a xlink:href="menu__items_8c.html#a68e560d23390d5add7cb57ccd82e21ae" target="_top" xlink:title=" ">
<polygon fill="white" stroke="#666666" points="590,-298.94 495,-298.94 495,-279.94 590,-279.94 590,-298.94"/>
<text text-anchor="middle" x="542.5" y="-286.94" font-family="Helvetica,sans-Serif" font-size="10.00">load_menu_img</text>
</a>
</g>
</g>
<!-- Node13&#45;&gt;Node15 -->
<g id="edge17_Node000013_Node000015" class="edge">
<title>Node13&#45;&gt;Node15</title>
<g id="a_edge17_Node000013_Node000015"><a xlink:title=" ">
<path fill="none" stroke="#63b8ff" d="M396.42,-181.06C410.05,-198.23 440.66,-234.49 473,-257.44 483.1,-264.61 495.06,-270.84 506.14,-275.85"/>
<polygon fill="#63b8ff" stroke="#63b8ff" points="505.01,-279.17 515.58,-279.93 507.79,-272.75 505.01,-279.17"/>
</a>
</g>
</g>
<!-- Node17 -->
<g id="Node000017" class="node">
<title>Node17</title>
<g id="a_Node000017"><a xlink:href="menu__items_8c.html#aafca6e35a19465ad361e68b13e467243" target="_top" xlink:title=" ">
<polygon fill="white" stroke="#666666" points="578,-199.94 507,-199.94 507,-180.94 578,-180.94 578,-199.94"/>
<text text-anchor="middle" x="542.5" y="-187.94" font-family="Helvetica,sans-Serif" font-size="10.00">print_letter</text>
</a>
</g>
</g>
<!-- Node13&#45;&gt;Node17 -->
<g id="edge19_Node000013_Node000017" class="edge">
<title>Node13&#45;&gt;Node17</title>
<g id="a_edge19_Node000013_Node000017"><a xlink:title=" ">
<path fill="none" stroke="#63b8ff" d="M423.22,-175.7C444.95,-178.41 473.29,-181.94 496.79,-184.87"/>
<polygon fill="#63b8ff" stroke="#63b8ff" points="496.51,-188.36 506.86,-186.12 497.37,-181.41 496.51,-188.36"/>
</a>
</g>
</g>
<!-- Node16 -->
<g id="Node000016" class="node">
<title>Node16</title>
<g id="a_Node000016"><a xlink:href="menu__items_8c.html#a248768ee2e4ca9ae9cf0a30bfb256859" target="_top" xlink:title=" ">
<polygon fill="white" stroke="#666666" points="733.5,-332.94 655.5,-332.94 655.5,-313.94 733.5,-313.94 733.5,-332.94"/>
<text text-anchor="middle" x="694.5" y="-320.94" font-family="Helvetica,sans-Serif" font-size="10.00">load_texture</text>
</a>
</g>
</g>
<!-- Node15&#45;&gt;Node16 -->
<g id="edge18_Node000015_Node000016" class="edge">
<title>Node15&#45;&gt;Node16</title>
<g id="a_edge18_Node000015_Node000016"><a xlink:title=" ">
<path fill="none" stroke="#63b8ff" d="M585.68,-299C604.35,-303.23 626.4,-308.23 645.68,-312.6"/>
<polygon fill="#63b8ff" stroke="#63b8ff" points="644.95,-316.02 655.47,-314.82 646.49,-309.2 644.95,-316.02"/>
</a>
</g>
</g>
<!-- Node17&#45;&gt;Node3 -->
<g id="edge53_Node000017_Node000003" class="edge">
<title>Node17&#45;&gt;Node3</title>
<g id="a_edge53_Node000017_Node000003"><a xlink:title=" ">
<path fill="none" stroke="#63b8ff" d="M578.32,-188.81C656.28,-185.16 845.32,-176.31 938.4,-171.95"/>
<polygon fill="#63b8ff" stroke="#63b8ff" points="938.63,-175.44 948.46,-171.48 938.3,-168.45 938.63,-175.44"/>
</a>
</g>
</g>
<!-- Node18 -->
<g id="Node000018" class="node">
<title>Node18</title>
<g id="a_Node000018"><a xlink:href="menu__items_8c.html#a37eb021a953285ba504198ac6ca73a9a" target="_top" xlink:title=" ">
<polygon fill="white" stroke="#666666" points="741,-295.94 648,-295.94 648,-276.94 741,-276.94 741,-295.94"/>
<text text-anchor="middle" x="694.5" y="-283.94" font-family="Helvetica,sans-Serif" font-size="10.00">func_80095BD0</text>
</a>
</g>
</g>
<!-- Node17&#45;&gt;Node18 -->
<g id="edge20_Node000017_Node000018" class="edge">
<title>Node17&#45;&gt;Node18</title>
<g id="a_edge20_Node000017_Node000018"><a xlink:title=" ">
<path fill="none" stroke="#63b8ff" d="M578.23,-196.6C589.47,-199.49 601.68,-203.62 612,-209.44 639.39,-224.9 664.67,-251.51 679.59,-269.04"/>
<polygon fill="#63b8ff" stroke="#63b8ff" points="676.97,-271.37 686.05,-276.83 682.36,-266.9 676.97,-271.37"/>
</a>
</g>
</g>
<!-- Node19 -->
<g id="Node000019" class="node">
<title>Node19</title>
<g id="a_Node000019"><a xlink:href="Matrix_8cpp.html#a6f64c44efb9bdfff802175a9739ce1f1" target="_top" xlink:title=" ">
<polygon fill="white" stroke="#666666" points="875.5,-463.94 788.5,-463.94 788.5,-444.94 875.5,-444.94 875.5,-463.94"/>
<text text-anchor="middle" x="832" y="-451.94" font-family="Helvetica,sans-Serif" font-size="10.00">AddTextMatrix</text>
</a>
</g>
</g>
<!-- Node18&#45;&gt;Node19 -->
<g id="edge21_Node000018_Node000019" class="edge">
<title>Node18&#45;&gt;Node19</title>
<g id="a_edge21_Node000018_Node000019"><a xlink:title=" ">
<path fill="none" stroke="#63b8ff" d="M728.71,-296.02C733.3,-298.49 737.61,-301.58 741,-305.44 780.89,-350.77 735.46,-392.62 777,-436.44 777.92,-437.41 778.89,-438.32 779.91,-439.19"/>
<polygon fill="#63b8ff" stroke="#63b8ff" points="778.19,-442.25 788.45,-444.92 782.09,-436.44 778.19,-442.25"/>
</a>
</g>
</g>
<!-- Node23 -->
<g id="Node000023" class="node">
<title>Node23</title>
<g id="a_Node000023"><a xlink:href="FrameInterpolation_8cpp.html#a3a036bc9d533e28a4e9697cd20dccf3e" target="_top" xlink:title=" ">
<polygon fill="white" stroke="#666666" points="887,-371.44 777,-371.44 777,-341.44 887,-341.44 887,-371.44"/>
<text text-anchor="start" x="785" y="-359.44" font-family="Helvetica,sans-Serif" font-size="10.00">FrameInterpolation</text>
<text text-anchor="middle" x="832" y="-348.44" font-family="Helvetica,sans-Serif" font-size="10.00">_RecordCloseChild</text>
</a>
</g>
</g>
<!-- Node18&#45;&gt;Node23 -->
<g id="edge25_Node000018_Node000023" class="edge">
<title>Node18&#45;&gt;Node23</title>
<g id="a_edge25_Node000018_Node000023"><a xlink:title=" ">
<path fill="none" stroke="#63b8ff" d="M721.54,-296.01C728.05,-298.75 734.91,-301.95 741,-305.44 758.36,-315.37 759.75,-322.31 777,-332.44 779.61,-333.97 782.34,-335.47 785.13,-336.93"/>
<polygon fill="#63b8ff" stroke="#63b8ff" points="783.62,-340.08 794.13,-341.39 786.73,-333.81 783.62,-340.08"/>
</a>
</g>
</g>
<!-- Node24 -->
<g id="Node000024" class="node">
<title>Node24</title>
<g id="a_Node000024"><a xlink:href="FrameInterpolation_8cpp.html#a0eda726b74eac815af4e874014e2727c" target="_top" xlink:title=" ">
<polygon fill="white" stroke="#666666" points="887,-323.44 777,-323.44 777,-293.44 887,-293.44 887,-323.44"/>
<text text-anchor="start" x="785" y="-311.44" font-family="Helvetica,sans-Serif" font-size="10.00">FrameInterpolation</text>
<text text-anchor="middle" x="832" y="-300.44" font-family="Helvetica,sans-Serif" font-size="10.00">_RecordOpenChild</text>
</a>
</g>
</g>
<!-- Node18&#45;&gt;Node24 -->
<g id="edge27_Node000018_Node000024" class="edge">
<title>Node18&#45;&gt;Node24</title>
<g id="a_edge27_Node000018_Node000024"><a xlink:title=" ">
<path fill="none" stroke="#63b8ff" d="M741.37,-293.89C749.54,-295.21 758.18,-296.62 766.75,-298.01"/>
<polygon fill="#63b8ff" stroke="#63b8ff" points="766.31,-301.48 776.74,-299.63 767.43,-294.57 766.31,-301.48"/>
</a>
</g>
</g>
<!-- Node25 -->
<g id="Node000025" class="node">
<title>Node25</title>
<g id="a_Node000025"><a xlink:href="menu__items_8c.html#ae0fd5923ba70cf6939cd3fa8d09c1191" target="_top" xlink:title=" ">
<polygon fill="white" stroke="#666666" points="877.5,-237.94 786.5,-237.94 786.5,-218.94 877.5,-218.94 877.5,-237.94"/>
<text text-anchor="middle" x="832" y="-225.94" font-family="Helvetica,sans-Serif" font-size="10.00">func_800959F8</text>
</a>
</g>
</g>
<!-- Node18&#45;&gt;Node25 -->
<g id="edge29_Node000018_Node000025" class="edge">
<title>Node18&#45;&gt;Node25</title>
<g id="a_edge29_Node000018_Node000025"><a xlink:title=" ">
<path fill="none" stroke="#63b8ff" d="M714.02,-276.87C730.37,-268.59 754.97,-256.55 777,-247.44 781.87,-245.42 787.04,-243.43 792.17,-241.53"/>
<polygon fill="#63b8ff" stroke="#63b8ff" points="793.69,-244.7 801.92,-238.03 791.32,-238.12 793.69,-244.7"/>
</a>
</g>
</g>
<!-- Node27 -->
<g id="Node000027" class="node">
<title>Node27</title>
<g id="a_Node000027"><a xlink:href="stubs_8c.html#a8b417b868747c80d58f83d8a1e78ecf3" target="_top" xlink:title=" ">
<polygon fill="white" stroke="#666666" points="866,-274.94 798,-274.94 798,-255.94 866,-255.94 866,-274.94"/>
<text text-anchor="middle" x="832" y="-262.94" font-family="Helvetica,sans-Serif" font-size="10.00">rmonPrintf</text>
</a>
</g>
</g>
<!-- Node18&#45;&gt;Node27 -->
<g id="edge33_Node000018_Node000027" class="edge">
<title>Node18&#45;&gt;Node27</title>
<g id="a_edge33_Node000018_Node000027"><a xlink:title=" ">
<path fill="none" stroke="#63b8ff" d="M741.37,-279.33C756.35,-277.01 772.91,-274.44 787.69,-272.15"/>
<polygon fill="#63b8ff" stroke="#63b8ff" points="788.25,-275.61 797.59,-270.62 787.17,-268.69 788.25,-275.61"/>
</a>
</g>
</g>
<!-- Node40 -->
<g id="Node000040" class="node">
<title>Node40</title>
<g id="a_Node000040"><a xlink:href="Matrix_8cpp.html#a9818099a1ee20606a7d622e744846366" target="_top" xlink:title=" ">
<polygon fill="white" stroke="#666666" points="874,-408.94 790,-408.94 790,-389.94 874,-389.94 874,-408.94"/>
<text text-anchor="middle" x="832" y="-396.94" font-family="Helvetica,sans-Serif" font-size="10.00">SetTextMatrix</text>
</a>
</g>
</g>
<!-- Node18&#45;&gt;Node40 -->
<g id="edge49_Node000018_Node000040" class="edge">
<title>Node18&#45;&gt;Node40</title>
<g id="a_edge49_Node000018_Node000040"><a xlink:title=" ">
<path fill="none" stroke="#63b8ff" d="M727.19,-296.1C732.2,-298.59 737.03,-301.67 741,-305.44 767.82,-330.9 749.47,-355.76 777,-380.44 778.74,-382 780.62,-383.44 782.6,-384.76"/>
<polygon fill="#63b8ff" stroke="#63b8ff" points="781.32,-388.05 791.76,-389.83 784.71,-381.92 781.32,-388.05"/>
</a>
</g>
</g>
<!-- Node20 -->
<g id="Node000020" class="node">
<title>Node20</title>
<g id="a_Node000020"><a xlink:href="FrameInterpolation_8cpp.html#a8cf1f2d6fabc6925aa71a9515341b4aa" target="_top" xlink:title=" ">
<polygon fill="white" stroke="#666666" points="1063,-462.44 923,-462.44 923,-432.44 1063,-432.44 1063,-462.44"/>
<text text-anchor="start" x="931" y="-450.44" font-family="Helvetica,sans-Serif" font-size="10.00">FrameInterpolation</text>
<text text-anchor="middle" x="993" y="-439.44" font-family="Helvetica,sans-Serif" font-size="10.00">_RecordMatrixMtxFToMtx</text>
</a>
</g>
</g>
<!-- Node19&#45;&gt;Node20 -->
<g id="edge22_Node000019_Node000020" class="edge">
<title>Node19&#45;&gt;Node20</title>
<g id="a_edge22_Node000019_Node000020"><a xlink:title=" ">
<path fill="none" stroke="#63b8ff" d="M875.61,-452.56C887.08,-452.06 899.86,-451.5 912.64,-450.93"/>
<polygon fill="#63b8ff" stroke="#63b8ff" points="913.03,-454.42 922.86,-450.48 912.72,-447.43 913.03,-454.42"/>
</a>
</g>
</g>
<!-- Node22 -->
<g id="Node000022" class="node">
<title>Node22</title>
<g id="a_Node000022"><a xlink:href="guMtxF2L_8c.html#a40ab2d64c609839ff1e0ef0de2d0dcc4" target="_top" xlink:title=" ">
<polygon fill="white" stroke="#666666" points="1025.5,-499.94 960.5,-499.94 960.5,-480.94 1025.5,-480.94 1025.5,-499.94"/>
<text text-anchor="middle" x="993" y="-487.94" font-family="Helvetica,sans-Serif" font-size="10.00">guMtxF2L</text>
</a>
</g>
</g>
<!-- Node19&#45;&gt;Node22 -->
<g id="edge24_Node000019_Node000022" class="edge">
<title>Node19&#45;&gt;Node22</title>
<g id="a_edge24_Node000019_Node000022"><a xlink:title=" ">
<path fill="none" stroke="#63b8ff" d="M875.19,-463.99C898.51,-469.27 927.37,-475.81 950.57,-481.06"/>
<polygon fill="#63b8ff" stroke="#63b8ff" points="949.94,-484.5 960.46,-483.3 951.48,-477.68 949.94,-484.5"/>
</a>
</g>
</g>
<!-- Node21 -->
<g id="Node000021" class="node">
<title>Node21</title>
<g id="a_Node000021"><a xlink:href="FrameInterpolation_8cpp.html#a02c7ac5342a4d376edee38f312b480bf" target="_top" xlink:title=" ">
<polygon fill="white" stroke="#666666" points="1227.5,-386.94 1119.5,-386.94 1119.5,-367.94 1227.5,-367.94 1227.5,-386.94"/>
<text text-anchor="middle" x="1173.5" y="-374.94" font-family="Helvetica,sans-Serif" font-size="10.00">check_if_recording</text>
</a>
</g>
</g>
<!-- Node20&#45;&gt;Node21 -->
<g id="edge23_Node000020_Node000021" class="edge">
<title>Node20&#45;&gt;Node21</title>
<g id="a_edge23_Node000020_Node000021"><a xlink:title=" ">
<path fill="none" stroke="#63b8ff" d="M1038.69,-432.36C1046.81,-429.48 1055.18,-426.44 1063,-423.44 1089.71,-413.19 1119.64,-400.54 1141.44,-391.1"/>
<polygon fill="#63b8ff" stroke="#63b8ff" points="1143.07,-394.21 1150.85,-387.01 1140.28,-387.79 1143.07,-394.21"/>
</a>
</g>
</g>
<!-- Node23&#45;&gt;Node21 -->
<g id="edge26_Node000023_Node000021" class="edge">
<title>Node23&#45;&gt;Node21</title>
<g id="a_edge26_Node000023_Node000021"><a xlink:title=" ">
<path fill="none" stroke="#63b8ff" d="M887.17,-359.79C947.55,-363.52 1045.09,-369.56 1109.01,-373.51"/>
<polygon fill="#63b8ff" stroke="#63b8ff" points="1109.16,-377.03 1119.36,-374.15 1109.6,-370.04 1109.16,-377.03"/>
</a>
</g>
</g>
<!-- Node24&#45;&gt;Node21 -->
<g id="edge28_Node000024_Node000021" class="edge">
<title>Node24&#45;&gt;Node21</title>
<g id="a_edge28_Node000024_Node000021"><a xlink:title=" ">
<path fill="none" stroke="#63b8ff" d="M887.17,-319.45C949.72,-332.16 1052.15,-352.98 1115.76,-365.91"/>
<polygon fill="#63b8ff" stroke="#63b8ff" points="1115.13,-369.35 1125.63,-367.91 1116.53,-362.49 1115.13,-369.35"/>
</a>
</g>
</g>
<!-- Node25&#45;&gt;Node3 -->
<g id="edge30_Node000025_Node000003" class="edge">
<title>Node25&#45;&gt;Node3</title>
<g id="a_edge30_Node000025_Node000003"><a xlink:title=" ">
<path fill="none" stroke="#63b8ff" d="M854.86,-218.86C864.7,-214.51 876.46,-209.27 887,-204.44 903.09,-197.07 906.37,-193.48 923,-187.44 928.59,-185.41 934.51,-183.51 940.45,-181.76"/>
<polygon fill="#63b8ff" stroke="#63b8ff" points="941.71,-185.04 950.39,-178.96 939.81,-178.3 941.71,-185.04"/>
</a>
</g>
</g>
<!-- Node26 -->
<g id="Node000026" class="node">
<title>Node26</title>
<g id="a_Node000026"><a xlink:href="GBIMiddleware_8cpp.html#aeef79449a27a710d73576e4a4f7f7f99" target="_top" xlink:title=" ">
<polygon fill="white" stroke="#666666" points="1026,-215.94 960,-215.94 960,-196.94 1026,-196.94 1026,-215.94"/>
<text text-anchor="middle" x="993" y="-203.94" font-family="Helvetica,sans-Serif" font-size="10.00">gSPVertex</text>
</a>
</g>
</g>
<!-- Node25&#45;&gt;Node26 -->
<g id="edge31_Node000025_Node000026" class="edge">
<title>Node25&#45;&gt;Node26</title>
<g id="a_edge31_Node000025_Node000026"><a xlink:title=" ">
<path fill="none" stroke="#63b8ff" d="M877.71,-222.25C900.23,-219.14 927.39,-215.38 949.58,-212.31"/>
<polygon fill="#63b8ff" stroke="#63b8ff" points="950.29,-215.74 959.71,-210.91 949.33,-208.81 950.29,-215.74"/>
</a>
</g>
</g>
<!-- Node26&#45;&gt;Node4 -->
<g id="edge32_Node000026_Node000004" class="edge">
<title>Node26&#45;&gt;Node4</title>
<g id="a_edge32_Node000026_Node000004"><a xlink:title=" ">
<path fill="none" stroke="#63b8ff" d="M1026.33,-206.44C1043.92,-206.44 1066.59,-206.44 1088.8,-206.44"/>
<polygon fill="#63b8ff" stroke="#63b8ff" points="1088.95,-209.94 1098.95,-206.44 1088.95,-202.94 1088.95,-209.94"/>
</a>
</g>
</g>
<!-- Node28 -->
<g id="Node000028" class="node">
<title>Node28</title>
<g id="a_Node000028"><a xlink:href="__Printf_8c.html#a39bb05c90efce6c6790c5d58d271d72d" target="_top" xlink:title=" ">
<polygon fill="white" stroke="#666666" points="1017,-289.94 969,-289.94 969,-270.94 1017,-270.94 1017,-289.94"/>
<text text-anchor="middle" x="993" y="-277.94" font-family="Helvetica,sans-Serif" font-size="10.00">_Printf</text>
</a>
</g>
</g>
<!-- Node27&#45;&gt;Node28 -->
<g id="edge34_Node000027_Node000028" class="edge">
<title>Node27&#45;&gt;Node28</title>
<g id="a_edge34_Node000027_Node000028"><a xlink:title=" ">
<path fill="none" stroke="#63b8ff" d="M866.33,-268.58C893.5,-271.15 931.69,-274.75 958.82,-277.31"/>
<polygon fill="#63b8ff" stroke="#63b8ff" points="958.7,-280.81 968.99,-278.27 959.36,-273.84 958.7,-280.81"/>
</a>
</g>
</g>
<!-- Node39 -->
<g id="Node000039" class="node">
<title>Node39</title>
<g id="a_Node000039"><a xlink:href="is__debug_8c.html#aaccfac8d9098530b6592eefe679d86b4" target="_top" xlink:title=" ">
<polygon fill="white" stroke="#666666" points="1045.5,-252.94 940.5,-252.94 940.5,-233.94 1045.5,-233.94 1045.5,-252.94"/>
<text text-anchor="middle" x="993" y="-240.94" font-family="Helvetica,sans-Serif" font-size="10.00">is_proutSyncPrintf</text>
</a>
</g>
</g>
<!-- Node27&#45;&gt;Node39 -->
<g id="edge48_Node000027_Node000039" class="edge">
<title>Node27&#45;&gt;Node39</title>
<g id="a_edge48_Node000027_Node000039"><a xlink:title=" ">
<path fill="none" stroke="#63b8ff" d="M866.33,-260.83C884.81,-258.27 908.37,-255.01 930.09,-252.01"/>
<polygon fill="#63b8ff" stroke="#63b8ff" points="930.82,-255.44 940.24,-250.6 929.86,-248.5 930.82,-255.44"/>
</a>
</g>
</g>
<!-- Node29 -->
<g id="Node000029" class="node">
<title>Node29</title>
<g id="a_Node000029"><a xlink:href="__Printf_8c.html#ad73a5847f2d7c9de14cc2723da86bf45" target="_top" xlink:title=" ">
<polygon fill="white" stroke="#666666" points="1198.5,-252.94 1148.5,-252.94 1148.5,-233.94 1198.5,-233.94 1198.5,-252.94"/>
<text text-anchor="middle" x="1173.5" y="-240.94" font-family="Helvetica,sans-Serif" font-size="10.00">_Putfld</text>
</a>
</g>
</g>
<!-- Node28&#45;&gt;Node29 -->
<g id="edge35_Node000028_Node000029" class="edge">
<title>Node28&#45;&gt;Node29</title>
<g id="a_edge35_Node000028_Node000029"><a xlink:title=" ">
<path fill="none" stroke="#63b8ff" d="M1017.34,-275.6C1048.21,-269.2 1102.87,-257.87 1138.39,-250.51"/>
<polygon fill="#63b8ff" stroke="#63b8ff" points="1139.22,-253.91 1148.3,-248.45 1137.8,-247.06 1139.22,-253.91"/>
</a>
</g>
</g>
<!-- Node38 -->
<g id="Node000038" class="node">
<title>Node38</title>
<g id="a_Node000038"><a xlink:href="string_8c.html#a988b4defe51a1815ef3b9ddab10e7a89" target="_top" xlink:title=" ">
<polygon fill="white" stroke="#666666" points="1195.5,-289.94 1151.5,-289.94 1151.5,-270.94 1195.5,-270.94 1195.5,-289.94"/>
<text text-anchor="middle" x="1173.5" y="-277.94" font-family="Helvetica,sans-Serif" font-size="10.00">strchr</text>
</a>
</g>
</g>
<!-- Node28&#45;&gt;Node38 -->
<g id="edge47_Node000028_Node000038" class="edge">
<title>Node28&#45;&gt;Node38</title>
<g id="a_edge47_Node000028_Node000038"><a xlink:title=" ">
<path fill="none" stroke="#63b8ff" d="M1017.34,-280.44C1049.02,-280.44 1105.76,-280.44 1141.14,-280.44"/>
<polygon fill="#63b8ff" stroke="#63b8ff" points="1141.38,-283.94 1151.38,-280.44 1141.38,-276.94 1141.38,-283.94"/>
</a>
</g>
</g>
<!-- Node29&#45;&gt;Node5 -->
<g id="edge46_Node000029_Node000005" class="edge">
<title>Node29&#45;&gt;Node5</title>
<g id="a_edge46_Node000029_Node000005"><a xlink:title=" ">
<path fill="none" stroke="#63b8ff" d="M1198.73,-237.44C1213.09,-233.82 1231.63,-229.03 1248,-224.44 1257.39,-221.81 1267.56,-218.79 1276.79,-215.99"/>
<polygon fill="#63b8ff" stroke="#63b8ff" points="1277.82,-219.34 1286.36,-213.06 1275.77,-212.64 1277.82,-219.34"/>
</a>
</g>
</g>
<!-- Node30 -->
<g id="Node000030" class="node">
<title>Node30</title>
<g id="a_Node000030"><a xlink:href="__Ldtob_8c.html#a7cc858157b66e15c831ad085113729ae" target="_top" xlink:title=" ">
<polygon fill="white" stroke="#666666" points="1333,-346.94 1284,-346.94 1284,-327.94 1333,-327.94 1333,-346.94"/>
<text text-anchor="middle" x="1308.5" y="-334.94" font-family="Helvetica,sans-Serif" font-size="10.00">_Ldtob</text>
</a>
</g>
</g>
<!-- Node29&#45;&gt;Node30 -->
<g id="edge36_Node000029_Node000030" class="edge">
<title>Node29&#45;&gt;Node30</title>
<g id="a_edge36_Node000029_Node000030"><a xlink:title=" ">
<path fill="none" stroke="#63b8ff" d="M1198.58,-245.71C1213.75,-248.06 1233.19,-252.81 1248,-262.44 1269.78,-276.6 1287.15,-301.43 1297.37,-318.62"/>
<polygon fill="#63b8ff" stroke="#63b8ff" points="1294.56,-320.76 1302.54,-327.72 1300.64,-317.3 1294.56,-320.76"/>
</a>
</g>
</g>
<!-- Node36 -->
<g id="Node000036" class="node">
<title>Node36</title>
<g id="a_Node000036"><a xlink:href="__Litob_8c.html#aaaba3b0ab7920d422a61fe9e22600dd0" target="_top" xlink:title=" ">
<polygon fill="white" stroke="#666666" points="1331.5,-252.94 1285.5,-252.94 1285.5,-233.94 1331.5,-233.94 1331.5,-252.94"/>
<text text-anchor="middle" x="1308.5" y="-240.94" font-family="Helvetica,sans-Serif" font-size="10.00">_Litob</text>
</a>
</g>
</g>
<!-- Node29&#45;&gt;Node36 -->
<g id="edge43_Node000029_Node000036" class="edge">
<title>Node29&#45;&gt;Node36</title>
<g id="a_edge43_Node000029_Node000036"><a xlink:title=" ">
<path fill="none" stroke="#63b8ff" d="M1198.59,-243.44C1220.01,-243.44 1251.51,-243.44 1275.13,-243.44"/>
<polygon fill="#63b8ff" stroke="#63b8ff" points="1275.36,-246.94 1285.36,-243.44 1275.36,-239.94 1275.36,-246.94"/>
</a>
</g>
</g>
<!-- Node31 -->
<g id="Node000031" class="node">
<title>Node31</title>
<g id="a_Node000031"><a xlink:href="__Ldtob_8c.html#a2b6c5318b43bab1636bad9113ffb2761" target="_top" xlink:title=" ">
<polygon fill="white" stroke="#666666" points="1429.5,-290.94 1379.5,-290.94 1379.5,-271.94 1429.5,-271.94 1429.5,-290.94"/>
<text text-anchor="middle" x="1404.5" y="-278.94" font-family="Helvetica,sans-Serif" font-size="10.00">_Genld</text>
</a>
</g>
</g>
<!-- Node30&#45;&gt;Node31 -->
<g id="edge37_Node000030_Node000031" class="edge">
<title>Node30&#45;&gt;Node31</title>
<g id="a_edge37_Node000030_Node000031"><a xlink:title=" ">
<path fill="none" stroke="#63b8ff" d="M1324.53,-327.79C1336.48,-320.19 1353.68,-309.41 1369,-300.44 1371.49,-298.98 1374.09,-297.49 1376.71,-296.01"/>
<polygon fill="#63b8ff" stroke="#63b8ff" points="1378.46,-299.04 1385.49,-291.12 1375.05,-292.93 1378.46,-299.04"/>
</a>
</g>
</g>
<!-- Node32 -->
<g id="Node000032" class="node">
<title>Node32</title>
<g id="a_Node000032"><a xlink:href="string_8c.html#ad7f1ae1bbb49dece44bda378982a704d" target="_top" xlink:title=" ">
<polygon fill="white" stroke="#666666" points="1535,-290.94 1476,-290.94 1476,-271.94 1535,-271.94 1535,-290.94"/>
<text text-anchor="middle" x="1505.5" y="-278.94" font-family="Helvetica,sans-Serif" font-size="10.00">memcpy</text>
</a>
</g>
</g>
<!-- Node30&#45;&gt;Node32 -->
<g id="edge41_Node000030_Node000032" class="edge">
<title>Node30&#45;&gt;Node32</title>
<g id="a_edge41_Node000030_Node000032"><a xlink:title=" ">
<path fill="none" stroke="#63b8ff" d="M1333.48,-342.32C1360.36,-346.69 1404.77,-350.6 1440,-337.44 1460.48,-329.79 1478.76,-312.38 1490.58,-298.99"/>
<polygon fill="#63b8ff" stroke="#63b8ff" points="1493.3,-301.2 1497.07,-291.29 1487.95,-296.68 1493.3,-301.2"/>
</a>
</g>
</g>
<!-- Node33 -->
<g id="Node000033" class="node">
<title>Node33</title>
<g id="a_Node000033"><a xlink:href="__Ldtob_8c.html#ab7ade9ce60aaa8baa0244b503351d742" target="_top" xlink:title=" ">
<polygon fill="white" stroke="#666666" points="1440,-327.94 1369,-327.94 1369,-308.94 1440,-308.94 1440,-327.94"/>
<text text-anchor="middle" x="1404.5" y="-315.94" font-family="Helvetica,sans-Serif" font-size="10.00">_Ldunscale</text>
</a>
</g>
</g>
<!-- Node30&#45;&gt;Node33 -->
<g id="edge39_Node000030_Node000033" class="edge">
<title>Node30&#45;&gt;Node33</title>
<g id="a_edge39_Node000030_Node000033"><a xlink:title=" ">
<path fill="none" stroke="#63b8ff" d="M1333.22,-332.64C1341.04,-331.06 1350.02,-329.25 1358.88,-327.46"/>
<polygon fill="#63b8ff" stroke="#63b8ff" points="1359.66,-330.87 1368.77,-325.46 1358.28,-324.01 1359.66,-330.87"/>
</a>
</g>
</g>
<!-- Node34 -->
<g id="Node000034" class="node">
<title>Node34</title>
<g id="a_Node000034"><a xlink:href="ldiv_8c.html#a0302920caf64a5fbe1ce0862799d7784" target="_top" xlink:title=" ">
<polygon fill="white" stroke="#666666" points="1422,-440.94 1387,-440.94 1387,-421.94 1422,-421.94 1422,-440.94"/>
<text text-anchor="middle" x="1404.5" y="-428.94" font-family="Helvetica,sans-Serif" font-size="10.00">ldiv</text>
</a>
</g>
</g>
<!-- Node30&#45;&gt;Node34 -->
<g id="edge40_Node000030_Node000034" class="edge">
<title>Node30&#45;&gt;Node34</title>
<g id="a_edge40_Node000030_Node000034"><a xlink:title=" ">
<path fill="none" stroke="#63b8ff" d="M1315.35,-347.41C1324.93,-363.09 1345.29,-393.72 1369,-413.44 1371.73,-415.71 1374.8,-417.81 1377.94,-419.71"/>
<polygon fill="#63b8ff" stroke="#63b8ff" points="1376.36,-422.83 1386.82,-424.52 1379.69,-416.68 1376.36,-422.83"/>
</a>
</g>
</g>
<!-- Node35 -->
<g id="Node000035" class="node">
<title>Node35</title>
<g id="a_Node000035"><a xlink:href="alBnkfNew_8c.html#a96a0200a6b40350e524f536d232ecb53" target="_top" xlink:title=" ">
<polygon fill="white" stroke="#666666" points="1430.5,-403.94 1378.5,-403.94 1378.5,-384.94 1430.5,-384.94 1430.5,-403.94"/>
<text text-anchor="middle" x="1404.5" y="-391.94" font-family="Helvetica,sans-Serif" font-size="10.00">unused</text>
</a>
</g>
</g>
<!-- Node30&#45;&gt;Node35 -->
<g id="edge42_Node000030_Node000035" class="edge">
<title>Node30&#45;&gt;Node35</title>
<g id="a_edge42_Node000030_Node000035"><a xlink:title=" ">
<path fill="none" stroke="#63b8ff" d="M1325.45,-347.11C1340.12,-356.01 1362.1,-369.34 1379,-379.58"/>
<polygon fill="#63b8ff" stroke="#63b8ff" points="1377.42,-382.72 1387.79,-384.91 1381.05,-376.73 1377.42,-382.72"/>
</a>
</g>
</g>
<!-- Node31&#45;&gt;Node32 -->
<g id="edge38_Node000031_Node000032" class="edge">
<title>Node31&#45;&gt;Node32</title>
<g id="a_edge38_Node000031_Node000032"><a xlink:title=" ">
<path fill="none" stroke="#63b8ff" d="M1429.72,-281.44C1440.52,-281.44 1453.52,-281.44 1465.63,-281.44"/>
<polygon fill="#63b8ff" stroke="#63b8ff" points="1465.96,-284.94 1475.96,-281.44 1465.96,-277.94 1465.96,-284.94"/>
</a>
</g>
</g>
<!-- Node36&#45;&gt;Node32 -->
<g id="edge45_Node000036_Node000032" class="edge">
<title>Node36&#45;&gt;Node32</title>
<g id="a_edge45_Node000036_Node000032"><a xlink:title=" ">
<path fill="none" stroke="#63b8ff" d="M1331.82,-246.03C1357.92,-249.25 1402.36,-255.33 1440,-263.44 1448.5,-265.27 1457.53,-267.56 1466.06,-269.9"/>
<polygon fill="#63b8ff" stroke="#63b8ff" points="1465.21,-273.29 1475.79,-272.63 1467.11,-266.56 1465.21,-273.29"/>
</a>
</g>
</g>
<!-- Node37 -->
<g id="Node000037" class="node">
<title>Node37</title>
<g id="a_Node000037"><a xlink:href="ldiv_8c.html#a5b23c3639f11980dca762c5f1d74f339" target="_top" xlink:title=" ">
<polygon fill="white" stroke="#666666" points="1423.5,-214.94 1385.5,-214.94 1385.5,-195.94 1423.5,-195.94 1423.5,-214.94"/>
<text text-anchor="middle" x="1404.5" y="-202.94" font-family="Helvetica,sans-Serif" font-size="10.00">lldiv</text>
</a>
</g>
</g>
<!-- Node36&#45;&gt;Node37 -->
<g id="edge44_Node000036_Node000037" class="edge">
<title>Node36&#45;&gt;Node37</title>
<g id="a_edge44_Node000036_Node000037"><a xlink:title=" ">
<path fill="none" stroke="#63b8ff" d="M1331.78,-234.43C1344.97,-229.1 1361.8,-222.3 1375.84,-216.62"/>
<polygon fill="#63b8ff" stroke="#63b8ff" points="1377.52,-219.72 1385.47,-212.73 1374.89,-213.23 1377.52,-219.72"/>
</a>
</g>
</g>
<!-- Node40&#45;&gt;Node40 -->
<g id="edge52_Node000040_Node000040" class="edge">
<title>Node40&#45;&gt;Node40</title>
<g id="a_edge52_Node000040_Node000040"><a xlink:title=" ">
<path fill="none" stroke="#63b8ff" d="M811.04,-409.02C800.84,-417.67 807.83,-426.94 832,-426.94 847.49,-426.94 855.92,-423.14 857.3,-418.13"/>
<polygon fill="#63b8ff" stroke="#63b8ff" points="860.42,-416.55 852.96,-409.02 854.1,-419.56 860.42,-416.55"/>
</a>
</g>
</g>
<!-- Node41 -->
<g id="Node000041" class="node">
<title>Node41</title>
<g id="a_Node000041"><a xlink:href="FrameInterpolation_8cpp.html#a5fbd67ef553452903cf553b9c224fa76" target="_top" xlink:title=" ">
<polygon fill="white" stroke="#666666" points="1057,-414.44 929,-414.44 929,-384.44 1057,-384.44 1057,-414.44"/>
<text text-anchor="start" x="937" y="-402.44" font-family="Helvetica,sans-Serif" font-size="10.00">FrameInterpolation</text>
<text text-anchor="middle" x="993" y="-391.44" font-family="Helvetica,sans-Serif" font-size="10.00">_Record_SetTextMatrix</text>
</a>
</g>
</g>
<!-- Node40&#45;&gt;Node41 -->
<g id="edge50_Node000040_Node000041" class="edge">
<title>Node40&#45;&gt;Node41</title>
<g id="a_edge50_Node000040_Node000041"><a xlink:title=" ">
<path fill="none" stroke="#63b8ff" d="M874.36,-399.44C887.89,-399.44 903.36,-399.44 918.53,-399.44"/>
<polygon fill="#63b8ff" stroke="#63b8ff" points="918.95,-402.94 928.95,-399.44 918.95,-395.94 918.95,-402.94"/>
</a>
</g>
</g>
<!-- Node41&#45;&gt;Node21 -->
<g id="edge51_Node000041_Node000021" class="edge">
<title>Node41&#45;&gt;Node21</title>
<g id="a_edge51_Node000041_Node000021"><a xlink:title=" ">
<path fill="none" stroke="#63b8ff" d="M1057.18,-391.65C1074.04,-389.57 1092.26,-387.33 1109.13,-385.25"/>
<polygon fill="#63b8ff" stroke="#63b8ff" points="1109.94,-388.68 1119.44,-383.98 1109.09,-381.73 1109.94,-388.68"/>
</a>
</g>
</g>
</g>
</svg>

<g id="navigator" transform="translate(0 0)" fill="#404254">
  <rect fill="#f2f5e9" fill-opacity="0.5" stroke="#606060" stroke-width=".5" x="0" y="0" width="60" height="60"/>
  <use id="zoomplus" xlink:href="#zoomPlus" x="17" y="9" onmousedown="handleZoom(evt,'in')"/>
  <use id="zoomminus" xlink:href="#zoomMin" x="42" y="9" onmousedown="handleZoom(evt,'out')"/>
  <use id="reset" xlink:href="#resetDef" x="30" y="36" onmousedown="handleReset()"/>
   <use id="arrowup" xlink:href="#arrowUp" x="0" y="0" onmousedown="handlePan(0,-1)"/>
  <use id="arrowright" xlink:href="#arrowRight" x="0" y="0" onmousedown="handlePan(1,0)"/>
  <use id="arrowdown" xlink:href="#arrowDown" x="0" y="0" onmousedown="handlePan(0,1)"/>
  <use id="arrowleft" xlink:href="#arrowLeft" x="0" y="0" onmousedown="handlePan(-1,0)"/>
</g>
<svg viewBox="0 0 15 15" width="100%" height="30px" preserveAspectRatio="xMaxYMin meet">
 <g id="arrow_out" transform="scale(0.3 0.3)">
  <a xlink:href="menu__items_8h_ab1fd935acf8e6a133fc9498097fd2a9c_cgraph_org.svg" target="_base">
   <rect id="button" ry="5" rx="5" y="6" x="6" height="38" width="38"
        fill="#f2f5e9" fill-opacity="0.5" stroke="#606060" stroke-width="1.0"/>
   <path id="arrow"
     d="M 11.500037,31.436501 C 11.940474,20.09759 22.043105,11.32322 32.158766,21.979434 L 37.068811,17.246167 C 37.068811,17.246167 37.088388,32 37.088388,32 L 22.160133,31.978069 C 22.160133,31.978069 26.997745,27.140456 26.997745,27.140456 C 18.528582,18.264221 13.291696,25.230495 11.500037,31.436501 z"
     style="fill:#404040;"/>
  </a>
 </g>
</svg>

<style type='text/css'>
<![CDATA[
[data-mouse-over-selected='false'] { opacity: 0.7; }
[data-mouse-over-selected='true']  { opacity: 1.0; }
]]>
</style>
<script type="application/ecmascript"><![CDATA[
document.addEventListener('DOMContentLoaded', (event) => {
  highlightEdges();
  highlightAdjacentNodes();
});
]]></script>
</svg>
