<?xml version="1.0" encoding="UTF-8" standalone="no"?>
<!DOCTYPE svg PUBLIC "-//W3C//DTD SVG 1.1//EN"
 "http://www.w3.org/Graphics/SVG/1.1/DTD/svg11.dtd">
<!-- Generated by graphviz version 2.43.0 (0)
 -->
<!-- Title: func_800A6E94 Pages: 1 -->
<!--zoomable 523 -->

<svg id="main" version="1.1" xmlns="http://www.w3.org/2000/svg" xmlns:xlink="http://www.w3.org/1999/xlink" xml:space="preserve" onload="init(evt)">

<style type="text/css"><![CDATA[
.node, .edge {opacity: 0.7;}
.node.selected, .edge.selected {opacity: 1;}
.edge:hover path { stroke: red; }
.edge:hover polygon { stroke: red; fill: red; }
]]></style>

<defs>
  <circle id="rim" cx="0" cy="0" r="7"/>
  <circle id="rim2" cx="0" cy="0" r="3.5"/>
  <g id="zoomPlus">
    <use xlink:href="#rim" fill="#404040"><set attributeName="fill" to="#808080" begin="zoomplus.mouseover" end="zoomplus.mouseout"/></use>
    <path d="M-4,0h8M0,-4v8" fill="none" stroke="white" stroke-width="1.5" pointer-events="none"/>
  </g>
  <g id="zoomMin">
    <use xlink:href="#rim" fill="#404040"><set attributeName="fill" to="#808080" begin="zoomminus.mouseover" end="zoomminus.mouseout"/></use>
    <path d="M-4,0h8" fill="none" stroke="white" stroke-width="1.5" pointer-events="none"/>
  </g>
  <g id="arrowUp" transform="translate(30 24)">
    <use xlink:href="#rim"/>
    <path pointer-events="none" fill="none" stroke="white" stroke-width="1.5" d="M0,-3.0v7 M-2.5,-0.5L0,-3.0L2.5,-0.5"/>
  </g>
  <g id="arrowRight" transform="rotate(90) translate(36 -43)">
    <use xlink:href="#rim"/>
    <path pointer-events="none" fill="none" stroke="white" stroke-width="1.5" d="M0,-3.0v7 M-2.5,-0.5L0,-3.0L2.5,-0.5"/>
  </g>
  <g id="arrowDown" transform="rotate(180) translate(-30 -48)">
    <use xlink:href="#rim"/>
    <path pointer-events="none" fill="none" stroke="white" stroke-width="1.5" d="M0,-3.0v7 M-2.5,-0.5L0,-3.0L2.5,-0.5"/>
  </g>
  <g id="arrowLeft" transform="rotate(270) translate(-36 17)">
    <use xlink:href="#rim"/>
    <path pointer-events="none" fill="none" stroke="white" stroke-width="1.5" d="M0,-3.0v7 M-2.5,-0.5L0,-3.0L2.5,-0.5"/>
  </g>
  <g id="resetDef">
    <use xlink:href="#rim2" fill="#404040"><set attributeName="fill" to="#808080" begin="reset.mouseover" end="reset.mouseout"/></use>
  </g>
</defs>
<script type="application/ecmascript">
var viewWidth = 1479;
var viewHeight = 523;
var sectionId = 'dynsection-265';
</script>
<script type="application/ecmascript" xlink:href="svg.min.js"/>
<svg id="graph" class="graph">
<g id="viewport">
<title>func_800A6E94</title>
<!-- Node1 -->
<g id="Node000001" class="node">
<title>Node1</title>
<g id="a_Node000001"><a xlink:title=" ">
<polygon fill="#999999" stroke="#666666" points="92,-427.5 0,-427.5 0,-408.5 92,-408.5 92,-427.5"/>
<text text-anchor="middle" x="46" y="-415.5" font-family="Helvetica,sans-Serif" font-size="10.00">func_800A6E94</text>
</a>
</g>
</g>
<!-- Node2 -->
<g id="Node000002" class="node">
<title>Node2</title>
<g id="a_Node000002"><a xlink:href="menu__items_8c.html#a87ff828f0134d42058cf8be2e012a8a3" target="_top" xlink:title=" ">
<polygon fill="white" stroke="#666666" points="267,-464.5 128,-464.5 128,-445.5 267,-445.5 267,-464.5"/>
<text text-anchor="middle" x="197.5" y="-452.5" font-family="Helvetica,sans-Serif" font-size="10.00">convert_number_to_ascii</text>
</a>
</g>
</g>
<!-- Node1&#45;&gt;Node2 -->
<g id="edge1_Node000001_Node000002" class="edge">
<title>Node1&#45;&gt;Node2</title>
<g id="a_edge1_Node000001_Node000002"><a xlink:title=" ">
<path fill="none" stroke="#63b8ff" d="M85.5,-427.53C104.52,-432.24 127.67,-437.97 147.9,-442.97"/>
<polygon fill="#63b8ff" stroke="#63b8ff" points="147.32,-446.43 157.87,-445.44 149,-439.64 147.32,-446.43"/>
</a>
</g>
</g>
<!-- Node3 -->
<g id="Node000003" class="node">
<title>Node3</title>
<g id="a_Node000003"><a xlink:href="menu__items_8c.html#a1a002f259a6c887d6672085b8cda7d4d" target="_top" xlink:title=" ">
<polygon fill="white" stroke="#666666" points="240.5,-427.5 154.5,-427.5 154.5,-408.5 240.5,-408.5 240.5,-427.5"/>
<text text-anchor="middle" x="197.5" y="-415.5" font-family="Helvetica,sans-Serif" font-size="10.00">set_text_color</text>
</a>
</g>
</g>
<!-- Node1&#45;&gt;Node3 -->
<g id="edge2_Node000001_Node000003" class="edge">
<title>Node1&#45;&gt;Node3</title>
<g id="a_edge2_Node000001_Node000003"><a xlink:title=" ">
<path fill="none" stroke="#63b8ff" d="M92.26,-418C108.63,-418 127.25,-418 144.17,-418"/>
<polygon fill="#63b8ff" stroke="#63b8ff" points="144.46,-421.5 154.46,-418 144.46,-414.5 144.46,-421.5"/>
</a>
</g>
</g>
<!-- Node4 -->
<g id="Node000004" class="node">
<title>Node4</title>
<g id="a_Node000004"><a xlink:href="menu__items_8c.html#a24be09f5258f7b9e60f78e51ad9b5c73" target="_top" xlink:title=" ">
<polygon fill="white" stroke="#666666" points="230,-390.5 165,-390.5 165,-371.5 230,-371.5 230,-390.5"/>
<text text-anchor="middle" x="197.5" y="-378.5" font-family="Helvetica,sans-Serif" font-size="10.00">text_draw</text>
</a>
</g>
</g>
<!-- Node1&#45;&gt;Node4 -->
<g id="edge3_Node000001_Node000004" class="edge">
<title>Node1&#45;&gt;Node4</title>
<g id="a_edge3_Node000001_Node000004"><a xlink:title=" ">
<path fill="none" stroke="#63b8ff" d="M85.5,-408.47C106.71,-403.22 133.06,-396.7 154.76,-391.33"/>
<polygon fill="#63b8ff" stroke="#63b8ff" points="155.82,-394.67 164.69,-388.87 154.14,-387.88 155.82,-394.67"/>
</a>
</g>
</g>
<!-- Node5 -->
<g id="Node000005" class="node">
<title>Node5</title>
<g id="a_Node000005"><a xlink:href="menu__items_8c.html#afa1d2583978658f8524340b7b94544b1" target="_top" xlink:title=" ">
<polygon fill="white" stroke="#666666" points="373,-390.5 303,-390.5 303,-371.5 373,-371.5 373,-390.5"/>
<text text-anchor="middle" x="338" y="-378.5" font-family="Helvetica,sans-Serif" font-size="10.00">print_text2</text>
</a>
</g>
</g>
<!-- Node4&#45;&gt;Node5 -->
<g id="edge4_Node000004_Node000005" class="edge">
<title>Node4&#45;&gt;Node5</title>
<g id="a_edge4_Node000004_Node000005"><a xlink:title=" ">
<path fill="none" stroke="#63b8ff" d="M230.27,-381C248.77,-381 272.38,-381 292.68,-381"/>
<polygon fill="#63b8ff" stroke="#63b8ff" points="292.95,-384.5 302.95,-381 292.95,-377.5 292.95,-384.5"/>
</a>
</g>
</g>
<!-- Node6 -->
<g id="Node000006" class="node">
<title>Node6</title>
<g id="a_Node000006"><a xlink:href="menu__items_8c.html#ace62f40ce813c34904327e39643a0dbf" target="_top" xlink:title=" ">
<polygon fill="white" stroke="#666666" points="537,-476.5 420,-476.5 420,-457.5 537,-457.5 537,-476.5"/>
<text text-anchor="middle" x="478.5" y="-464.5" font-family="Helvetica,sans-Serif" font-size="10.00">char_to_glyph_index</text>
</a>
</g>
</g>
<!-- Node5&#45;&gt;Node6 -->
<g id="edge5_Node000005_Node000006" class="edge">
<title>Node5&#45;&gt;Node6</title>
<g id="a_edge5_Node000005_Node000006"><a xlink:title=" ">
<path fill="none" stroke="#63b8ff" d="M346.49,-390.76C358.23,-405.39 382.39,-432.87 409,-448 412.91,-450.22 417.09,-452.2 421.39,-453.95"/>
<polygon fill="#63b8ff" stroke="#63b8ff" points="420.33,-457.29 430.93,-457.44 422.74,-450.72 420.33,-457.29"/>
</a>
</g>
</g>
<!-- Node10 -->
<g id="Node000010" class="node">
<title>Node10</title>
<g id="a_Node000010"><a xlink:href="FrameInterpolation_8cpp.html#a14ceaeb116362786310778e36943f7be" target="_top" xlink:title=" ">
<polygon fill="white" stroke="#666666" points="548,-439 409,-439 409,-409 548,-409 548,-439"/>
<text text-anchor="start" x="417" y="-427" font-family="Helvetica,sans-Serif" font-size="10.00">FrameInterpolation</text>
<text text-anchor="middle" x="478.5" y="-416" font-family="Helvetica,sans-Serif" font-size="10.00">_ShouldInterpolateFrame</text>
</a>
</g>
</g>
<!-- Node5&#45;&gt;Node10 -->
<g id="edge10_Node000005_Node000010" class="edge">
<title>Node5&#45;&gt;Node10</title>
<g id="a_edge10_Node000005_Node000010"><a xlink:title=" ">
<path fill="none" stroke="#63b8ff" d="M369.74,-390.54C384.33,-395.07 402.26,-400.64 419.28,-405.93"/>
<polygon fill="#63b8ff" stroke="#63b8ff" points="418.58,-409.37 429.17,-408.99 420.65,-402.69 418.58,-409.37"/>
</a>
</g>
</g>
<!-- Node11 -->
<g id="Node000011" class="node">
<title>Node11</title>
<g id="a_Node000011"><a xlink:href="GBIMiddleware_8cpp.html#a4ecc44e3c6f1ca5a6b4a20c41d3bd2d2" target="_top" xlink:title=" ">
<polygon fill="white" stroke="#666666" points="973.5,-330.5 884.5,-330.5 884.5,-311.5 973.5,-311.5 973.5,-330.5"/>
<text text-anchor="middle" x="929" y="-318.5" font-family="Helvetica,sans-Serif" font-size="10.00">gSPDisplayList</text>
</a>
</g>
</g>
<!-- Node5&#45;&gt;Node11 -->
<g id="edge11_Node000005_Node000011" class="edge">
<title>Node5&#45;&gt;Node11</title>
<g id="a_edge11_Node000005_Node000011"><a xlink:title=" ">
<path fill="none" stroke="#63b8ff" d="M369.39,-371.43C381.59,-367.93 395.85,-364.28 409,-362 420.37,-360.03 743.88,-335.11 874.28,-325.11"/>
<polygon fill="#63b8ff" stroke="#63b8ff" points="874.74,-328.59 884.44,-324.33 874.21,-321.61 874.74,-328.59"/>
</a>
</g>
</g>
<!-- Node14 -->
<g id="Node000014" class="node">
<title>Node14</title>
<g id="a_Node000014"><a xlink:href="menu__items_8c.html#a68e560d23390d5add7cb57ccd82e21ae" target="_top" xlink:title=" ">
<polygon fill="white" stroke="#666666" points="526,-390.5 431,-390.5 431,-371.5 526,-371.5 526,-390.5"/>
<text text-anchor="middle" x="478.5" y="-378.5" font-family="Helvetica,sans-Serif" font-size="10.00">load_menu_img</text>
</a>
</g>
</g>
<!-- Node5&#45;&gt;Node14 -->
<g id="edge14_Node000005_Node000014" class="edge">
<title>Node5&#45;&gt;Node14</title>
<g id="a_edge14_Node000005_Node000014"><a xlink:title=" ">
<path fill="none" stroke="#63b8ff" d="M373.24,-381C387.5,-381 404.44,-381 420.48,-381"/>
<polygon fill="#63b8ff" stroke="#63b8ff" points="420.86,-384.5 430.86,-381 420.86,-377.5 420.86,-384.5"/>
</a>
</g>
</g>
<!-- Node16 -->
<g id="Node000016" class="node">
<title>Node16</title>
<g id="a_Node000016"><a xlink:href="menu__items_8c.html#aafca6e35a19465ad361e68b13e467243" target="_top" xlink:title=" ">
<polygon fill="white" stroke="#666666" points="514,-314.5 443,-314.5 443,-295.5 514,-295.5 514,-314.5"/>
<text text-anchor="middle" x="478.5" y="-302.5" font-family="Helvetica,sans-Serif" font-size="10.00">print_letter</text>
</a>
</g>
</g>
<!-- Node5&#45;&gt;Node16 -->
<g id="edge16_Node000005_Node000016" class="edge">
<title>Node5&#45;&gt;Node16</title>
<g id="a_edge16_Node000005_Node000016"><a xlink:title=" ">
<path fill="none" stroke="#63b8ff" d="M349.7,-371.42C362.86,-360.04 386.27,-341.07 409,-329 416.93,-324.79 425.74,-321.07 434.34,-317.89"/>
<polygon fill="#63b8ff" stroke="#63b8ff" points="435.62,-321.15 443.89,-314.53 433.3,-314.54 435.62,-321.15"/>
</a>
</g>
</g>
<!-- Node7 -->
<g id="Node000007" class="node">
<title>Node7</title>
<g id="a_Node000007"><a xlink:href="menu__items_8c.html#ae8ba1b567dba01ff15c64d416653a70b" target="_top" xlink:title=" ">
<polygon fill="white" stroke="#666666" points="676.5,-438.5 584.5,-438.5 584.5,-419.5 676.5,-419.5 676.5,-438.5"/>
<text text-anchor="middle" x="630.5" y="-426.5" font-family="Helvetica,sans-Serif" font-size="10.00">func_80092DF8</text>
</a>
</g>
</g>
<!-- Node6&#45;&gt;Node7 -->
<g id="edge6_Node000006_Node000007" class="edge">
<title>Node6&#45;&gt;Node7</title>
<g id="a_edge6_Node000006_Node000007"><a xlink:title=" ">
<path fill="none" stroke="#63b8ff" d="M517.35,-457.41C536.97,-452.44 561.12,-446.32 581.98,-441.04"/>
<polygon fill="#63b8ff" stroke="#63b8ff" points="583.09,-444.37 591.92,-438.52 581.37,-437.58 583.09,-444.37"/>
</a>
</g>
</g>
<!-- Node8 -->
<g id="Node000008" class="node">
<title>Node8</title>
<g id="a_Node000008"><a xlink:href="menu__items_8c.html#acd5b29a8e8634aa4f3db4b9a7c5ba033" target="_top" xlink:title=" ">
<polygon fill="white" stroke="#666666" points="814,-457.5 722,-457.5 722,-438.5 814,-438.5 814,-457.5"/>
<text text-anchor="middle" x="768" y="-445.5" font-family="Helvetica,sans-Serif" font-size="10.00">func_80092E1C</text>
</a>
</g>
</g>
<!-- Node6&#45;&gt;Node8 -->
<g id="edge8_Node000006_Node000008" class="edge">
<title>Node6&#45;&gt;Node8</title>
<g id="a_edge8_Node000006_Node000008"><a xlink:title=" ">
<path fill="none" stroke="#63b8ff" d="M537.33,-463.18C588.26,-459.81 661.92,-454.94 711.99,-451.64"/>
<polygon fill="#63b8ff" stroke="#63b8ff" points="712.24,-455.13 721.99,-450.97 711.78,-448.14 712.24,-455.13"/>
</a>
</g>
</g>
<!-- Node9 -->
<g id="Node000009" class="node">
<title>Node9</title>
<g id="a_Node000009"><a xlink:href="menu__items_8c.html#ab26c8dca1828cd1d5a6c341cb851f0b9" target="_top" xlink:title=" ">
<polygon fill="white" stroke="#666666" points="676,-514.5 585,-514.5 585,-495.5 676,-495.5 676,-514.5"/>
<text text-anchor="middle" x="630.5" y="-502.5" font-family="Helvetica,sans-Serif" font-size="10.00">func_80092EE4</text>
</a>
</g>
</g>
<!-- Node6&#45;&gt;Node9 -->
<g id="edge9_Node000006_Node000009" class="edge">
<title>Node6&#45;&gt;Node9</title>
<g id="a_edge9_Node000006_Node000009"><a xlink:title=" ">
<path fill="none" stroke="#63b8ff" d="M517.35,-476.59C536.97,-481.56 561.12,-487.68 581.98,-492.96"/>
<polygon fill="#63b8ff" stroke="#63b8ff" points="581.37,-496.42 591.92,-495.48 583.09,-489.63 581.37,-496.42"/>
</a>
</g>
</g>
<!-- Node7&#45;&gt;Node8 -->
<g id="edge7_Node000007_Node000008" class="edge">
<title>Node7&#45;&gt;Node8</title>
<g id="a_edge7_Node000007_Node000008"><a xlink:title=" ">
<path fill="none" stroke="#63b8ff" d="M676.62,-435.33C687.81,-436.9 699.94,-438.6 711.56,-440.23"/>
<polygon fill="#63b8ff" stroke="#63b8ff" points="711.23,-443.71 721.62,-441.64 712.2,-436.78 711.23,-443.71"/>
</a>
</g>
</g>
<!-- Node12 -->
<g id="Node000012" class="node">
<title>Node12</title>
<g id="a_Node000012"><a xlink:href="Engine_8cpp.html#a223c8bc63f228dc11177515e38eff2db" target="_top" xlink:title=" ">
<polygon fill="white" stroke="#666666" points="1184,-293.5 1035,-293.5 1035,-274.5 1184,-274.5 1184,-293.5"/>
<text text-anchor="middle" x="1109.5" y="-281.5" font-family="Helvetica,sans-Serif" font-size="10.00">GameEngine_OTRSigCheck</text>
</a>
</g>
</g>
<!-- Node11&#45;&gt;Node12 -->
<g id="edge12_Node000011_Node000012" class="edge">
<title>Node11&#45;&gt;Node12</title>
<g id="a_edge12_Node000011_Node000012"><a xlink:title=" ">
<path fill="none" stroke="#63b8ff" d="M973.67,-311.95C997.45,-307.02 1027.13,-300.87 1052.59,-295.59"/>
<polygon fill="#63b8ff" stroke="#63b8ff" points="1053.4,-299 1062.48,-293.54 1051.98,-292.14 1053.4,-299"/>
</a>
</g>
</g>
<!-- Node13 -->
<g id="Node000013" class="node">
<title>Node13</title>
<g id="a_Node000013"><a xlink:href="string_8c.html#a008e171a518fe0e0352f31b245e03875" target="_top" xlink:title=" ">
<polygon fill="white" stroke="#666666" points="1266.5,-293.5 1222.5,-293.5 1222.5,-274.5 1266.5,-274.5 1266.5,-293.5"/>
<text text-anchor="middle" x="1244.5" y="-281.5" font-family="Helvetica,sans-Serif" font-size="10.00">strlen</text>
</a>
</g>
</g>
<!-- Node12&#45;&gt;Node13 -->
<g id="edge13_Node000012_Node000013" class="edge">
<title>Node12&#45;&gt;Node13</title>
<g id="a_edge13_Node000012_Node000013"><a xlink:title=" ">
<path fill="none" stroke="#63b8ff" d="M1184,-284C1193.89,-284 1203.56,-284 1212.14,-284"/>
<polygon fill="#63b8ff" stroke="#63b8ff" points="1212.36,-287.5 1222.36,-284 1212.36,-280.5 1212.36,-287.5"/>
</a>
</g>
</g>
<!-- Node15 -->
<g id="Node000015" class="node">
<title>Node15</title>
<g id="a_Node000015"><a xlink:href="menu__items_8c.html#a248768ee2e4ca9ae9cf0a30bfb256859" target="_top" xlink:title=" ">
<polygon fill="white" stroke="#666666" points="669.5,-390.5 591.5,-390.5 591.5,-371.5 669.5,-371.5 669.5,-390.5"/>
<text text-anchor="middle" x="630.5" y="-378.5" font-family="Helvetica,sans-Serif" font-size="10.00">load_texture</text>
</a>
</g>
</g>
<!-- Node14&#45;&gt;Node15 -->
<g id="edge15_Node000014_Node000015" class="edge">
<title>Node14&#45;&gt;Node15</title>
<g id="a_edge15_Node000014_Node000015"><a xlink:title=" ">
<path fill="none" stroke="#63b8ff" d="M526.14,-381C543.68,-381 563.65,-381 581.33,-381"/>
<polygon fill="#63b8ff" stroke="#63b8ff" points="581.44,-384.5 591.44,-381 581.44,-377.5 581.44,-384.5"/>
</a>
</g>
</g>
<!-- Node16&#45;&gt;Node11 -->
<g id="edge50_Node000016_Node000011" class="edge">
<title>Node16&#45;&gt;Node11</title>
<g id="a_edge50_Node000016_Node000011"><a xlink:title=" ">
<path fill="none" stroke="#63b8ff" d="M514.32,-306.24C592.28,-309.02 781.32,-315.77 874.4,-319.09"/>
<polygon fill="#63b8ff" stroke="#63b8ff" points="874.34,-322.59 884.46,-319.45 874.59,-315.59 874.34,-322.59"/>
</a>
</g>
</g>
<!-- Node17 -->
<g id="Node000017" class="node">
<title>Node17</title>
<g id="a_Node000017"><a xlink:href="menu__items_8c.html#a37eb021a953285ba504198ac6ca73a9a" target="_top" xlink:title=" ">
<polygon fill="white" stroke="#666666" points="677,-181.5 584,-181.5 584,-162.5 677,-162.5 677,-181.5"/>
<text text-anchor="middle" x="630.5" y="-169.5" font-family="Helvetica,sans-Serif" font-size="10.00">func_80095BD0</text>
</a>
</g>
</g>
<!-- Node16&#45;&gt;Node17 -->
<g id="edge17_Node000016_Node000017" class="edge">
<title>Node16&#45;&gt;Node17</title>
<g id="a_edge17_Node000016_Node000017"><a xlink:title=" ">
<path fill="none" stroke="#63b8ff" d="M490.29,-295.43C515.57,-273.02 578.91,-216.86 610.69,-188.68"/>
<polygon fill="#63b8ff" stroke="#63b8ff" points="613.25,-191.09 618.41,-181.84 608.6,-185.85 613.25,-191.09"/>
</a>
</g>
</g>
<!-- Node18 -->
<g id="Node000018" class="node">
<title>Node18</title>
<g id="a_Node000018"><a xlink:href="Matrix_8cpp.html#a6f64c44efb9bdfff802175a9739ce1f1" target="_top" xlink:title=" ">
<polygon fill="white" stroke="#666666" points="811.5,-138.5 724.5,-138.5 724.5,-119.5 811.5,-119.5 811.5,-138.5"/>
<text text-anchor="middle" x="768" y="-126.5" font-family="Helvetica,sans-Serif" font-size="10.00">AddTextMatrix</text>
</a>
</g>
</g>
<!-- Node17&#45;&gt;Node18 -->
<g id="edge18_Node000017_Node000018" class="edge">
<title>Node17&#45;&gt;Node18</title>
<g id="a_edge18_Node000017_Node000018"><a xlink:title=" ">
<path fill="none" stroke="#63b8ff" d="M661.57,-162.46C680.96,-156.31 706.38,-148.24 727.4,-141.57"/>
<polygon fill="#63b8ff" stroke="#63b8ff" points="728.54,-144.88 737.01,-138.52 726.42,-138.21 728.54,-144.88"/>
</a>
</g>
</g>
<!-- Node22 -->
<g id="Node000022" class="node">
<title>Node22</title>
<g id="a_Node000022"><a xlink:href="FrameInterpolation_8cpp.html#a3a036bc9d533e28a4e9697cd20dccf3e" target="_top" xlink:title=" ">
<polygon fill="white" stroke="#666666" points="823,-30 713,-30 713,0 823,0 823,-30"/>
<text text-anchor="start" x="721" y="-18" font-family="Helvetica,sans-Serif" font-size="10.00">FrameInterpolation</text>
<text text-anchor="middle" x="768" y="-7" font-family="Helvetica,sans-Serif" font-size="10.00">_RecordCloseChild</text>
</a>
</g>
</g>
<!-- Node17&#45;&gt;Node22 -->
<g id="edge22_Node000017_Node000022" class="edge">
<title>Node17&#45;&gt;Node22</title>
<g id="a_edge22_Node000017_Node000022"><a xlink:title=" ">
<path fill="none" stroke="#63b8ff" d="M635.08,-162.27C644.37,-138.25 671.45,-75.41 713,-39 714.33,-37.84 715.72,-36.72 717.16,-35.66"/>
<polygon fill="#63b8ff" stroke="#63b8ff" points="719.36,-38.4 725.87,-30.04 715.57,-32.52 719.36,-38.4"/>
</a>
</g>
</g>
<!-- Node23 -->
<g id="Node000023" class="node">
<title>Node23</title>
<g id="a_Node000023"><a xlink:href="FrameInterpolation_8cpp.html#a0eda726b74eac815af4e874014e2727c" target="_top" xlink:title=" ">
<polygon fill="white" stroke="#666666" points="823,-187 713,-187 713,-157 823,-157 823,-187"/>
<text text-anchor="start" x="721" y="-175" font-family="Helvetica,sans-Serif" font-size="10.00">FrameInterpolation</text>
<text text-anchor="middle" x="768" y="-164" font-family="Helvetica,sans-Serif" font-size="10.00">_RecordOpenChild</text>
</a>
</g>
</g>
<!-- Node17&#45;&gt;Node23 -->
<g id="edge24_Node000017_Node000023" class="edge">
<title>Node17&#45;&gt;Node23</title>
<g id="a_edge24_Node000017_Node000023"><a xlink:title=" ">
<path fill="none" stroke="#63b8ff" d="M677.37,-172C685.45,-172 694,-172 702.47,-172"/>
<polygon fill="#63b8ff" stroke="#63b8ff" points="702.74,-175.5 712.74,-172 702.74,-168.5 702.74,-175.5"/>
</a>
</g>
</g>
<!-- Node24 -->
<g id="Node000024" class="node">
<title>Node24</title>
<g id="a_Node000024"><a xlink:href="menu__items_8c.html#ae0fd5923ba70cf6939cd3fa8d09c1191" target="_top" xlink:title=" ">
<polygon fill="white" stroke="#666666" points="813.5,-276.5 722.5,-276.5 722.5,-257.5 813.5,-257.5 813.5,-276.5"/>
<text text-anchor="middle" x="768" y="-264.5" font-family="Helvetica,sans-Serif" font-size="10.00">func_800959F8</text>
</a>
</g>
</g>
<!-- Node17&#45;&gt;Node24 -->
<g id="edge26_Node000017_Node000024" class="edge">
<title>Node17&#45;&gt;Node24</title>
<g id="a_edge26_Node000017_Node000024"><a xlink:title=" ">
<path fill="none" stroke="#63b8ff" d="M643.7,-181.62C659.44,-193.91 687.8,-215.68 713,-233 722.31,-239.4 732.78,-246.1 742,-251.84"/>
<polygon fill="#63b8ff" stroke="#63b8ff" points="740.36,-254.95 750.71,-257.22 744.04,-248.99 740.36,-254.95"/>
</a>
</g>
</g>
<!-- Node26 -->
<g id="Node000026" class="node">
<title>Node26</title>
<g id="a_Node000026"><a xlink:href="stubs_8c.html#a8b417b868747c80d58f83d8a1e78ecf3" target="_top" xlink:title=" ">
<polygon fill="white" stroke="#666666" points="802,-224.5 734,-224.5 734,-205.5 802,-205.5 802,-224.5"/>
<text text-anchor="middle" x="768" y="-212.5" font-family="Helvetica,sans-Serif" font-size="10.00">rmonPrintf</text>
</a>
</g>
</g>
<!-- Node17&#45;&gt;Node26 -->
<g id="edge30_Node000017_Node000026" class="edge">
<title>Node17&#45;&gt;Node26</title>
<g id="a_edge30_Node000017_Node000026"><a xlink:title=" ">
<path fill="none" stroke="#63b8ff" d="M661.57,-181.54C680.96,-187.69 706.38,-195.76 727.4,-202.43"/>
<polygon fill="#63b8ff" stroke="#63b8ff" points="726.42,-205.79 737.01,-205.48 728.54,-199.12 726.42,-205.79"/>
</a>
</g>
</g>
<!-- Node39 -->
<g id="Node000039" class="node">
<title>Node39</title>
<g id="a_Node000039"><a xlink:href="Matrix_8cpp.html#a9818099a1ee20606a7d622e744846366" target="_top" xlink:title=" ">
<polygon fill="white" stroke="#666666" points="810,-67.5 726,-67.5 726,-48.5 810,-48.5 810,-67.5"/>
<text text-anchor="middle" x="768" y="-55.5" font-family="Helvetica,sans-Serif" font-size="10.00">SetTextMatrix</text>
</a>
</g>
</g>
<!-- Node17&#45;&gt;Node39 -->
<g id="edge46_Node000017_Node000039" class="edge">
<title>Node17&#45;&gt;Node39</title>
<g id="a_edge46_Node000017_Node000039"><a xlink:title=" ">
<path fill="none" stroke="#63b8ff" d="M643.05,-162.28C666.35,-142.68 719.19,-98.23 747.77,-74.18"/>
<polygon fill="#63b8ff" stroke="#63b8ff" points="750.08,-76.81 755.48,-67.69 745.57,-71.45 750.08,-76.81"/>
</a>
</g>
</g>
<!-- Node19 -->
<g id="Node000019" class="node">
<title>Node19</title>
<g id="a_Node000019"><a xlink:href="FrameInterpolation_8cpp.html#a8cf1f2d6fabc6925aa71a9515341b4aa" target="_top" xlink:title=" ">
<polygon fill="white" stroke="#666666" points="999,-106 859,-106 859,-76 999,-76 999,-106"/>
<text text-anchor="start" x="867" y="-94" font-family="Helvetica,sans-Serif" font-size="10.00">FrameInterpolation</text>
<text text-anchor="middle" x="929" y="-83" font-family="Helvetica,sans-Serif" font-size="10.00">_RecordMatrixMtxFToMtx</text>
</a>
</g>
</g>
<!-- Node18&#45;&gt;Node19 -->
<g id="edge19_Node000018_Node000019" class="edge">
<title>Node18&#45;&gt;Node19</title>
<g id="a_edge19_Node000018_Node000019"><a xlink:title=" ">
<path fill="none" stroke="#63b8ff" d="M809.12,-119.41C823.14,-116.06 839.34,-112.19 855.19,-108.4"/>
<polygon fill="#63b8ff" stroke="#63b8ff" points="856.08,-111.79 864.99,-106.06 854.45,-104.98 856.08,-111.79"/>
</a>
</g>
</g>
<!-- Node21 -->
<g id="Node000021" class="node">
<title>Node21</title>
<g id="a_Node000021"><a xlink:href="guMtxF2L_8c.html#a40ab2d64c609839ff1e0ef0de2d0dcc4" target="_top" xlink:title=" ">
<polygon fill="white" stroke="#666666" points="961.5,-143.5 896.5,-143.5 896.5,-124.5 961.5,-124.5 961.5,-143.5"/>
<text text-anchor="middle" x="929" y="-131.5" font-family="Helvetica,sans-Serif" font-size="10.00">guMtxF2L</text>
</a>
</g>
</g>
<!-- Node18&#45;&gt;Node21 -->
<g id="edge21_Node000018_Node000021" class="edge">
<title>Node18&#45;&gt;Node21</title>
<g id="a_edge21_Node000018_Node000021"><a xlink:title=" ">
<path fill="none" stroke="#63b8ff" d="M811.61,-130.34C834.74,-131.07 863.23,-131.96 886.23,-132.69"/>
<polygon fill="#63b8ff" stroke="#63b8ff" points="886.27,-136.19 896.38,-133.01 886.49,-129.19 886.27,-136.19"/>
</a>
</g>
</g>
<!-- Node20 -->
<g id="Node000020" class="node">
<title>Node20</title>
<g id="a_Node000020"><a xlink:href="FrameInterpolation_8cpp.html#a02c7ac5342a4d376edee38f312b480bf" target="_top" xlink:title=" ">
<polygon fill="white" stroke="#666666" points="1163.5,-76.5 1055.5,-76.5 1055.5,-57.5 1163.5,-57.5 1163.5,-76.5"/>
<text text-anchor="middle" x="1109.5" y="-64.5" font-family="Helvetica,sans-Serif" font-size="10.00">check_if_recording</text>
</a>
</g>
</g>
<!-- Node19&#45;&gt;Node20 -->
<g id="edge20_Node000019_Node000020" class="edge">
<title>Node19&#45;&gt;Node20</title>
<g id="a_edge20_Node000019_Node000020"><a xlink:title=" ">
<path fill="none" stroke="#63b8ff" d="M999.01,-81.72C1014.24,-79.67 1030.29,-77.52 1045.27,-75.5"/>
<polygon fill="#63b8ff" stroke="#63b8ff" points="1046.01,-78.93 1055.45,-74.13 1045.07,-72 1046.01,-78.93"/>
</a>
</g>
</g>
<!-- Node22&#45;&gt;Node20 -->
<g id="edge23_Node000022_Node000020" class="edge">
<title>Node22&#45;&gt;Node20</title>
<g id="a_edge23_Node000022_Node000020"><a xlink:title=" ">
<path fill="none" stroke="#63b8ff" d="M823.14,-9.99C870.19,-7.05 939.89,-6.08 999,-19 1029.38,-25.64 1061.71,-40.95 1083.3,-52.51"/>
<polygon fill="#63b8ff" stroke="#63b8ff" points="1081.68,-55.61 1092.13,-57.35 1085.05,-49.48 1081.68,-55.61"/>
</a>
</g>
</g>
<!-- Node23&#45;&gt;Node20 -->
<g id="edge25_Node000023_Node000020" class="edge">
<title>Node23&#45;&gt;Node20</title>
<g id="a_edge25_Node000023_Node000020"><a xlink:title=" ">
<path fill="none" stroke="#63b8ff" d="M823.01,-175.76C870.9,-177.15 941.9,-174.37 999,-152 1037.38,-136.96 1073.41,-104 1093.07,-83.83"/>
<polygon fill="#63b8ff" stroke="#63b8ff" points="1095.64,-86.2 1099.99,-76.55 1090.57,-81.38 1095.64,-86.2"/>
</a>
</g>
</g>
<!-- Node24&#45;&gt;Node11 -->
<g id="edge27_Node000024_Node000011" class="edge">
<title>Node24&#45;&gt;Node11</title>
<g id="a_edge27_Node000024_Node000011"><a xlink:title=" ">
<path fill="none" stroke="#63b8ff" d="M791.7,-276.57C809.76,-284 835.76,-294.31 859,-302 865.97,-304.31 873.41,-306.57 880.72,-308.67"/>
<polygon fill="#63b8ff" stroke="#63b8ff" points="879.97,-312.1 890.55,-311.44 881.87,-305.36 879.97,-312.1"/>
</a>
</g>
</g>
<!-- Node25 -->
<g id="Node000025" class="node">
<title>Node25</title>
<g id="a_Node000025"><a xlink:href="GBIMiddleware_8cpp.html#aeef79449a27a710d73576e4a4f7f7f99" target="_top" xlink:title=" ">
<polygon fill="white" stroke="#666666" points="962,-293.5 896,-293.5 896,-274.5 962,-274.5 962,-293.5"/>
<text text-anchor="middle" x="929" y="-281.5" font-family="Helvetica,sans-Serif" font-size="10.00">gSPVertex</text>
</a>
</g>
</g>
<!-- Node24&#45;&gt;Node25 -->
<g id="edge28_Node000024_Node000025" class="edge">
<title>Node24&#45;&gt;Node25</title>
<g id="a_edge28_Node000024_Node000025"><a xlink:title=" ">
<path fill="none" stroke="#63b8ff" d="M813.71,-271.78C836.23,-274.19 863.39,-277.09 885.58,-279.46"/>
<polygon fill="#63b8ff" stroke="#63b8ff" points="885.4,-282.96 895.71,-280.55 886.14,-276 885.4,-282.96"/>
</a>
</g>
</g>
<!-- Node25&#45;&gt;Node12 -->
<g id="edge29_Node000025_Node000012" class="edge">
<title>Node25&#45;&gt;Node12</title>
<g id="a_edge29_Node000025_Node000012"><a xlink:title=" ">
<path fill="none" stroke="#63b8ff" d="M962.33,-284C979.92,-284 1002.59,-284 1024.8,-284"/>
<polygon fill="#63b8ff" stroke="#63b8ff" points="1024.95,-287.5 1034.95,-284 1024.95,-280.5 1024.95,-287.5"/>
</a>
</g>
</g>
<!-- Node27 -->
<g id="Node000027" class="node">
<title>Node27</title>
<g id="a_Node000027"><a xlink:href="__Printf_8c.html#a39bb05c90efce6c6790c5d58d271d72d" target="_top" xlink:title=" ">
<polygon fill="white" stroke="#666666" points="953,-219.5 905,-219.5 905,-200.5 953,-200.5 953,-219.5"/>
<text text-anchor="middle" x="929" y="-207.5" font-family="Helvetica,sans-Serif" font-size="10.00">_Printf</text>
</a>
</g>
</g>
<!-- Node26&#45;&gt;Node27 -->
<g id="edge31_Node000026_Node000027" class="edge">
<title>Node26&#45;&gt;Node27</title>
<g id="a_edge31_Node000026_Node000027"><a xlink:title=" ">
<path fill="none" stroke="#63b8ff" d="M802.33,-213.95C829.5,-213.1 867.69,-211.9 894.82,-211.04"/>
<polygon fill="#63b8ff" stroke="#63b8ff" points="895.1,-214.54 904.99,-210.72 894.88,-207.54 895.1,-214.54"/>
</a>
</g>
</g>
<!-- Node38 -->
<g id="Node000038" class="node">
<title>Node38</title>
<g id="a_Node000038"><a xlink:href="is__debug_8c.html#aaccfac8d9098530b6592eefe679d86b4" target="_top" xlink:title=" ">
<polygon fill="white" stroke="#666666" points="981.5,-256.5 876.5,-256.5 876.5,-237.5 981.5,-237.5 981.5,-256.5"/>
<text text-anchor="middle" x="929" y="-244.5" font-family="Helvetica,sans-Serif" font-size="10.00">is_proutSyncPrintf</text>
</a>
</g>
</g>
<!-- Node26&#45;&gt;Node38 -->
<g id="edge45_Node000026_Node000038" class="edge">
<title>Node26&#45;&gt;Node38</title>
<g id="a_edge45_Node000026_Node000038"><a xlink:title=" ">
<path fill="none" stroke="#63b8ff" d="M802.33,-221.71C822.08,-225.68 847.65,-230.83 870.57,-235.44"/>
<polygon fill="#63b8ff" stroke="#63b8ff" points="870.04,-238.91 880.54,-237.45 871.43,-232.04 870.04,-238.91"/>
</a>
</g>
</g>
<!-- Node28 -->
<g id="Node000028" class="node">
<title>Node28</title>
<g id="a_Node000028"><a xlink:href="__Printf_8c.html#ad73a5847f2d7c9de14cc2723da86bf45" target="_top" xlink:title=" ">
<polygon fill="white" stroke="#666666" points="1134.5,-256.5 1084.5,-256.5 1084.5,-237.5 1134.5,-237.5 1134.5,-256.5"/>
<text text-anchor="middle" x="1109.5" y="-244.5" font-family="Helvetica,sans-Serif" font-size="10.00">_Putfld</text>
</a>
</g>
</g>
<!-- Node27&#45;&gt;Node28 -->
<g id="edge32_Node000027_Node000028" class="edge">
<title>Node27&#45;&gt;Node28</title>
<g id="a_edge32_Node000027_Node000028"><a xlink:title=" ">
<path fill="none" stroke="#63b8ff" d="M953.34,-214.84C984.21,-221.24 1038.87,-232.57 1074.39,-239.93"/>
<polygon fill="#63b8ff" stroke="#63b8ff" points="1073.8,-243.38 1084.3,-241.98 1075.22,-236.53 1073.8,-243.38"/>
</a>
</g>
</g>
<!-- Node37 -->
<g id="Node000037" class="node">
<title>Node37</title>
<g id="a_Node000037"><a xlink:href="string_8c.html#a988b4defe51a1815ef3b9ddab10e7a89" target="_top" xlink:title=" ">
<polygon fill="white" stroke="#666666" points="1131.5,-219.5 1087.5,-219.5 1087.5,-200.5 1131.5,-200.5 1131.5,-219.5"/>
<text text-anchor="middle" x="1109.5" y="-207.5" font-family="Helvetica,sans-Serif" font-size="10.00">strchr</text>
</a>
</g>
</g>
<!-- Node27&#45;&gt;Node37 -->
<g id="edge44_Node000027_Node000037" class="edge">
<title>Node27&#45;&gt;Node37</title>
<g id="a_edge44_Node000027_Node000037"><a xlink:title=" ">
<path fill="none" stroke="#63b8ff" d="M953.34,-210C985.02,-210 1041.76,-210 1077.14,-210"/>
<polygon fill="#63b8ff" stroke="#63b8ff" points="1077.38,-213.5 1087.38,-210 1077.38,-206.5 1077.38,-213.5"/>
</a>
</g>
</g>
<!-- Node28&#45;&gt;Node13 -->
<g id="edge43_Node000028_Node000013" class="edge">
<title>Node28&#45;&gt;Node13</title>
<g id="a_edge43_Node000028_Node000013"><a xlink:title=" ">
<path fill="none" stroke="#63b8ff" d="M1134.78,-252.5C1149.15,-255.87 1167.69,-260.4 1184,-265 1193.43,-267.66 1203.61,-270.8 1212.84,-273.76"/>
<polygon fill="#63b8ff" stroke="#63b8ff" points="1211.81,-277.11 1222.4,-276.87 1213.97,-270.45 1211.81,-277.11"/>
</a>
</g>
</g>
<!-- Node29 -->
<g id="Node000029" class="node">
<title>Node29</title>
<g id="a_Node000029"><a xlink:href="__Ldtob_8c.html#a7cc858157b66e15c831ad085113729ae" target="_top" xlink:title=" ">
<polygon fill="white" stroke="#666666" points="1269,-162.5 1220,-162.5 1220,-143.5 1269,-143.5 1269,-162.5"/>
<text text-anchor="middle" x="1244.5" y="-150.5" font-family="Helvetica,sans-Serif" font-size="10.00">_Ldtob</text>
</a>
</g>
</g>
<!-- Node28&#45;&gt;Node29 -->
<g id="edge33_Node000028_Node000029" class="edge">
<title>Node28&#45;&gt;Node29</title>
<g id="a_edge33_Node000028_Node000029"><a xlink:title=" ">
<path fill="none" stroke="#63b8ff" d="M1134.58,-244.73C1149.75,-242.38 1169.19,-237.63 1184,-228 1205.78,-213.84 1223.15,-189.01 1233.37,-171.82"/>
<polygon fill="#63b8ff" stroke="#63b8ff" points="1236.64,-173.14 1238.54,-162.72 1230.56,-169.68 1236.64,-173.14"/>
</a>
</g>
</g>
<!-- Node35 -->
<g id="Node000035" class="node">
<title>Node35</title>
<g id="a_Node000035"><a xlink:href="__Litob_8c.html#aaaba3b0ab7920d422a61fe9e22600dd0" target="_top" xlink:title=" ">
<polygon fill="white" stroke="#666666" points="1267.5,-256.5 1221.5,-256.5 1221.5,-237.5 1267.5,-237.5 1267.5,-256.5"/>
<text text-anchor="middle" x="1244.5" y="-244.5" font-family="Helvetica,sans-Serif" font-size="10.00">_Litob</text>
</a>
</g>
</g>
<!-- Node28&#45;&gt;Node35 -->
<g id="edge40_Node000028_Node000035" class="edge">
<title>Node28&#45;&gt;Node35</title>
<g id="a_edge40_Node000028_Node000035"><a xlink:title=" ">
<path fill="none" stroke="#63b8ff" d="M1134.59,-247C1156.01,-247 1187.51,-247 1211.13,-247"/>
<polygon fill="#63b8ff" stroke="#63b8ff" points="1211.36,-250.5 1221.36,-247 1211.36,-243.5 1211.36,-250.5"/>
</a>
</g>
</g>
<!-- Node30 -->
<g id="Node000030" class="node">
<title>Node30</title>
<g id="a_Node000030"><a xlink:href="__Ldtob_8c.html#a2b6c5318b43bab1636bad9113ffb2761" target="_top" xlink:title=" ">
<polygon fill="white" stroke="#666666" points="1365.5,-180.5 1315.5,-180.5 1315.5,-161.5 1365.5,-161.5 1365.5,-180.5"/>
<text text-anchor="middle" x="1340.5" y="-168.5" font-family="Helvetica,sans-Serif" font-size="10.00">_Genld</text>
</a>
</g>
</g>
<!-- Node29&#45;&gt;Node30 -->
<g id="edge34_Node000029_Node000030" class="edge">
<title>Node29&#45;&gt;Node30</title>
<g id="a_edge34_Node000029_Node000030"><a xlink:title=" ">
<path fill="none" stroke="#63b8ff" d="M1269.22,-157.54C1280.16,-159.64 1293.34,-162.16 1305.33,-164.46"/>
<polygon fill="#63b8ff" stroke="#63b8ff" points="1304.98,-167.95 1315.46,-166.4 1306.3,-161.08 1304.98,-167.95"/>
</a>
</g>
</g>
<!-- Node31 -->
<g id="Node000031" class="node">
<title>Node31</title>
<g id="a_Node000031"><a xlink:href="string_8c.html#ad7f1ae1bbb49dece44bda378982a704d" target="_top" xlink:title=" ">
<polygon fill="white" stroke="#666666" points="1471,-218.5 1412,-218.5 1412,-199.5 1471,-199.5 1471,-218.5"/>
<text text-anchor="middle" x="1441.5" y="-206.5" font-family="Helvetica,sans-Serif" font-size="10.00">memcpy</text>
</a>
</g>
</g>
<!-- Node29&#45;&gt;Node31 -->
<g id="edge38_Node000029_Node000031" class="edge">
<title>Node29&#45;&gt;Node31</title>
<g id="a_edge38_Node000029_Node000031"><a xlink:title=" ">
<path fill="none" stroke="#63b8ff" d="M1257.98,-162.59C1269.53,-170.96 1287.5,-182.71 1305,-189 1336.45,-200.31 1374.21,-205.23 1401.87,-207.37"/>
<polygon fill="#63b8ff" stroke="#63b8ff" points="1401.72,-210.87 1411.94,-208.06 1402.2,-203.88 1401.72,-210.87"/>
</a>
</g>
</g>
<!-- Node32 -->
<g id="Node000032" class="node">
<title>Node32</title>
<g id="a_Node000032"><a xlink:href="__Ldtob_8c.html#ab7ade9ce60aaa8baa0244b503351d742" target="_top" xlink:title=" ">
<polygon fill="white" stroke="#666666" points="1376,-143.5 1305,-143.5 1305,-124.5 1376,-124.5 1376,-143.5"/>
<text text-anchor="middle" x="1340.5" y="-131.5" font-family="Helvetica,sans-Serif" font-size="10.00">_Ldunscale</text>
</a>
</g>
</g>
<!-- Node29&#45;&gt;Node32 -->
<g id="edge36_Node000029_Node000032" class="edge">
<title>Node29&#45;&gt;Node32</title>
<g id="a_edge36_Node000029_Node000032"><a xlink:title=" ">
<path fill="none" stroke="#63b8ff" d="M1269.22,-148.21C1277.04,-146.62 1286.02,-144.81 1294.88,-143.02"/>
<polygon fill="#63b8ff" stroke="#63b8ff" points="1295.66,-146.43 1304.77,-141.02 1294.28,-139.57 1295.66,-146.43"/>
</a>
</g>
</g>
<!-- Node33 -->
<g id="Node000033" class="node">
<title>Node33</title>
<g id="a_Node000033"><a xlink:href="ldiv_8c.html#a0302920caf64a5fbe1ce0862799d7784" target="_top" xlink:title=" ">
<polygon fill="white" stroke="#666666" points="1358,-106.5 1323,-106.5 1323,-87.5 1358,-87.5 1358,-106.5"/>
<text text-anchor="middle" x="1340.5" y="-94.5" font-family="Helvetica,sans-Serif" font-size="10.00">ldiv</text>
</a>
</g>
</g>
<!-- Node29&#45;&gt;Node33 -->
<g id="edge37_Node000029_Node000033" class="edge">
<title>Node29&#45;&gt;Node33</title>
<g id="a_edge37_Node000029_Node000033"><a xlink:title=" ">
<path fill="none" stroke="#63b8ff" d="M1259.95,-143.27C1271.87,-135.37 1289.3,-124.09 1305,-115 1307.87,-113.34 1310.9,-111.66 1313.93,-110.02"/>
<polygon fill="#63b8ff" stroke="#63b8ff" points="1315.63,-113.08 1322.84,-105.32 1312.37,-106.89 1315.63,-113.08"/>
</a>
</g>
</g>
<!-- Node34 -->
<g id="Node000034" class="node">
<title>Node34</title>
<g id="a_Node000034"><a xlink:href="alBnkfNew_8c.html#a96a0200a6b40350e524f536d232ecb53" target="_top" xlink:title=" ">
<polygon fill="white" stroke="#666666" points="1366.5,-69.5 1314.5,-69.5 1314.5,-50.5 1366.5,-50.5 1366.5,-69.5"/>
<text text-anchor="middle" x="1340.5" y="-57.5" font-family="Helvetica,sans-Serif" font-size="10.00">unused</text>
</a>
</g>
</g>
<!-- Node29&#45;&gt;Node34 -->
<g id="edge39_Node000029_Node000034" class="edge">
<title>Node29&#45;&gt;Node34</title>
<g id="a_edge39_Node000029_Node000034"><a xlink:title=" ">
<path fill="none" stroke="#63b8ff" d="M1251.38,-143.16C1261,-127.7 1281.42,-97.48 1305,-78 1306.32,-76.91 1307.73,-75.85 1309.18,-74.84"/>
<polygon fill="#63b8ff" stroke="#63b8ff" points="1311.13,-77.74 1317.83,-69.53 1307.47,-71.78 1311.13,-77.74"/>
</a>
</g>
</g>
<!-- Node30&#45;&gt;Node31 -->
<g id="edge35_Node000030_Node000031" class="edge">
<title>Node30&#45;&gt;Node31</title>
<g id="a_edge35_Node000030_Node000031"><a xlink:title=" ">
<path fill="none" stroke="#63b8ff" d="M1365.72,-180.3C1377.88,-184.96 1392.82,-190.7 1406.15,-195.81"/>
<polygon fill="#63b8ff" stroke="#63b8ff" points="1404.91,-199.09 1415.5,-199.4 1407.42,-192.55 1404.91,-199.09"/>
</a>
</g>
</g>
<!-- Node35&#45;&gt;Node31 -->
<g id="edge42_Node000035_Node000031" class="edge">
<title>Node35&#45;&gt;Node31</title>
<g id="a_edge42_Node000035_Node000031"><a xlink:title=" ">
<path fill="none" stroke="#63b8ff" d="M1267.71,-243.14C1293.71,-238.56 1338.05,-230.61 1376,-223 1384.48,-221.3 1393.56,-219.39 1402.16,-217.53"/>
<polygon fill="#63b8ff" stroke="#63b8ff" points="1402.94,-220.95 1411.96,-215.4 1401.45,-214.11 1402.94,-220.95"/>
</a>
</g>
</g>
<!-- Node36 -->
<g id="Node000036" class="node">
<title>Node36</title>
<g id="a_Node000036"><a xlink:href="ldiv_8c.html#a5b23c3639f11980dca762c5f1d74f339" target="_top" xlink:title=" ">
<polygon fill="white" stroke="#666666" points="1359.5,-294.5 1321.5,-294.5 1321.5,-275.5 1359.5,-275.5 1359.5,-294.5"/>
<text text-anchor="middle" x="1340.5" y="-282.5" font-family="Helvetica,sans-Serif" font-size="10.00">lldiv</text>
</a>
</g>
</g>
<!-- Node35&#45;&gt;Node36 -->
<g id="edge41_Node000035_Node000036" class="edge">
<title>Node35&#45;&gt;Node36</title>
<g id="a_edge41_Node000035_Node000036"><a xlink:title=" ">
<path fill="none" stroke="#63b8ff" d="M1267.78,-256.01C1280.97,-261.34 1297.8,-268.14 1311.84,-273.82"/>
<polygon fill="#63b8ff" stroke="#63b8ff" points="1310.89,-277.21 1321.47,-277.71 1313.52,-270.72 1310.89,-277.21"/>
</a>
</g>
</g>
<!-- Node39&#45;&gt;Node39 -->
<g id="edge49_Node000039_Node000039" class="edge">
<title>Node39&#45;&gt;Node39</title>
<g id="a_edge49_Node000039_Node000039"><a xlink:title=" ">
<path fill="none" stroke="#63b8ff" d="M747.04,-67.58C736.84,-76.23 743.83,-85.5 768,-85.5 783.49,-85.5 791.92,-81.7 793.3,-76.69"/>
<polygon fill="#63b8ff" stroke="#63b8ff" points="796.42,-75.11 788.96,-67.58 790.1,-78.12 796.42,-75.11"/>
</a>
</g>
</g>
<!-- Node40 -->
<g id="Node000040" class="node">
<title>Node40</title>
<g id="a_Node000040"><a xlink:href="FrameInterpolation_8cpp.html#a5fbd67ef553452903cf553b9c224fa76" target="_top" xlink:title=" ">
<polygon fill="white" stroke="#666666" points="993,-58 865,-58 865,-28 993,-28 993,-58"/>
<text text-anchor="start" x="873" y="-46" font-family="Helvetica,sans-Serif" font-size="10.00">FrameInterpolation</text>
<text text-anchor="middle" x="929" y="-35" font-family="Helvetica,sans-Serif" font-size="10.00">_Record_SetTextMatrix</text>
</a>
</g>
</g>
<!-- Node39&#45;&gt;Node40 -->
<g id="edge47_Node000039_Node000040" class="edge">
<title>Node39&#45;&gt;Node40</title>
<g id="a_edge47_Node000039_Node000040"><a xlink:title=" ">
<path fill="none" stroke="#63b8ff" d="M810.36,-54.1C824.02,-52.81 839.65,-51.33 854.96,-49.89"/>
<polygon fill="#63b8ff" stroke="#63b8ff" points="855.33,-53.37 864.95,-48.95 854.67,-46.4 855.33,-53.37"/>
</a>
</g>
</g>
<!-- Node40&#45;&gt;Node20 -->
<g id="edge48_Node000040_Node000020" class="edge">
<title>Node40&#45;&gt;Node20</title>
<g id="a_edge48_Node000040_Node000020"><a xlink:title=" ">
<path fill="none" stroke="#63b8ff" d="M993.18,-51.5C1010.04,-53.76 1028.26,-56.21 1045.13,-58.48"/>
<polygon fill="#63b8ff" stroke="#63b8ff" points="1045.06,-62 1055.44,-59.87 1045.99,-55.06 1045.06,-62"/>
</a>
</g>
</g>
</g>
</svg>

<g id="navigator" transform="translate(0 0)" fill="#404254">
  <rect fill="#f2f5e9" fill-opacity="0.5" stroke="#606060" stroke-width=".5" x="0" y="0" width="60" height="60"/>
  <use id="zoomplus" xlink:href="#zoomPlus" x="17" y="9" onmousedown="handleZoom(evt,'in')"/>
  <use id="zoomminus" xlink:href="#zoomMin" x="42" y="9" onmousedown="handleZoom(evt,'out')"/>
  <use id="reset" xlink:href="#resetDef" x="30" y="36" onmousedown="handleReset()"/>
   <use id="arrowup" xlink:href="#arrowUp" x="0" y="0" onmousedown="handlePan(0,-1)"/>
  <use id="arrowright" xlink:href="#arrowRight" x="0" y="0" onmousedown="handlePan(1,0)"/>
  <use id="arrowdown" xlink:href="#arrowDown" x="0" y="0" onmousedown="handlePan(0,1)"/>
  <use id="arrowleft" xlink:href="#arrowLeft" x="0" y="0" onmousedown="handlePan(-1,0)"/>
</g>
<svg viewBox="0 0 15 15" width="100%" height="30px" preserveAspectRatio="xMaxYMin meet">
 <g id="arrow_out" transform="scale(0.3 0.3)">
  <a xlink:href="menu__items_8c_af2f6da2963f7cc24c5fad14aecd39c92_cgraph_org.svg" target="_base">
   <rect id="button" ry="5" rx="5" y="6" x="6" height="38" width="38"
        fill="#f2f5e9" fill-opacity="0.5" stroke="#606060" stroke-width="1.0"/>
   <path id="arrow"
     d="M 11.500037,31.436501 C 11.940474,20.09759 22.043105,11.32322 32.158766,21.979434 L 37.068811,17.246167 C 37.068811,17.246167 37.088388,32 37.088388,32 L 22.160133,31.978069 C 22.160133,31.978069 26.997745,27.140456 26.997745,27.140456 C 18.528582,18.264221 13.291696,25.230495 11.500037,31.436501 z"
     style="fill:#404040;"/>
  </a>
 </g>
</svg>

<style type='text/css'>
<![CDATA[
[data-mouse-over-selected='false'] { opacity: 0.7; }
[data-mouse-over-selected='true']  { opacity: 1.0; }
]]>
</style>
<script type="application/ecmascript"><![CDATA[
document.addEventListener('DOMContentLoaded', (event) => {
  highlightEdges();
  highlightAdjacentNodes();
});
]]></script>
</svg>
