<?xml version="1.0" encoding="UTF-8" standalone="no"?>
<!DOCTYPE svg PUBLIC "-//W3C//DTD SVG 1.1//EN"
 "http://www.w3.org/Graphics/SVG/1.1/DTD/svg11.dtd">
<!-- Generated by graphviz version 2.43.0 (0)
 -->
<!-- Title: text_draw_wide Pages: 1 -->
<!--zoomable 491 -->

<svg id="main" version="1.1" xmlns="http://www.w3.org/2000/svg" xmlns:xlink="http://www.w3.org/1999/xlink" xml:space="preserve" onload="init(evt)">

<style type="text/css"><![CDATA[
.node, .edge {opacity: 0.7;}
.node.selected, .edge.selected {opacity: 1;}
.edge:hover path { stroke: red; }
.edge:hover polygon { stroke: red; fill: red; }
]]></style>

<defs>
  <circle id="rim" cx="0" cy="0" r="7"/>
  <circle id="rim2" cx="0" cy="0" r="3.5"/>
  <g id="zoomPlus">
    <use xlink:href="#rim" fill="#404040"><set attributeName="fill" to="#808080" begin="zoomplus.mouseover" end="zoomplus.mouseout"/></use>
    <path d="M-4,0h8M0,-4v8" fill="none" stroke="white" stroke-width="1.5" pointer-events="none"/>
  </g>
  <g id="zoomMin">
    <use xlink:href="#rim" fill="#404040"><set attributeName="fill" to="#808080" begin="zoomminus.mouseover" end="zoomminus.mouseout"/></use>
    <path d="M-4,0h8" fill="none" stroke="white" stroke-width="1.5" pointer-events="none"/>
  </g>
  <g id="arrowUp" transform="translate(30 24)">
    <use xlink:href="#rim"/>
    <path pointer-events="none" fill="none" stroke="white" stroke-width="1.5" d="M0,-3.0v7 M-2.5,-0.5L0,-3.0L2.5,-0.5"/>
  </g>
  <g id="arrowRight" transform="rotate(90) translate(36 -43)">
    <use xlink:href="#rim"/>
    <path pointer-events="none" fill="none" stroke="white" stroke-width="1.5" d="M0,-3.0v7 M-2.5,-0.5L0,-3.0L2.5,-0.5"/>
  </g>
  <g id="arrowDown" transform="rotate(180) translate(-30 -48)">
    <use xlink:href="#rim"/>
    <path pointer-events="none" fill="none" stroke="white" stroke-width="1.5" d="M0,-3.0v7 M-2.5,-0.5L0,-3.0L2.5,-0.5"/>
  </g>
  <g id="arrowLeft" transform="rotate(270) translate(-36 17)">
    <use xlink:href="#rim"/>
    <path pointer-events="none" fill="none" stroke="white" stroke-width="1.5" d="M0,-3.0v7 M-2.5,-0.5L0,-3.0L2.5,-0.5"/>
  </g>
  <g id="resetDef">
    <use xlink:href="#rim2" fill="#404040"><set attributeName="fill" to="#808080" begin="reset.mouseover" end="reset.mouseout"/></use>
  </g>
</defs>
<script type="application/ecmascript">
var viewWidth = 1434;
var viewHeight = 491;
var sectionId = 'dynsection-437';
</script>
<script type="application/ecmascript" xlink:href="svg.min.js"/>
<svg id="graph" class="graph">
<g id="viewport">
<title>text_draw_wide</title>
<!-- Node1 -->
<g id="Node000001" class="node">
<title>Node1</title>
<g id="a_Node000001"><a xlink:title=" ">
<polygon fill="#999999" stroke="#666666" points="94,-378 0,-378 0,-359 94,-359 94,-378"/>
<text text-anchor="middle" x="47" y="-366" font-family="Helvetica,sans-Serif" font-size="10.00">text_draw_wide</text>
</a>
</g>
</g>
<!-- Node2 -->
<g id="Node000002" class="node">
<title>Node2</title>
<g id="a_Node000002"><a xlink:href="menu__items_8c.html#a5abcef085b1e2089c54ea352ab09c9e2" target="_top" xlink:title=" ">
<polygon fill="white" stroke="#666666" points="228,-378 130,-378 130,-359 228,-359 228,-378"/>
<text text-anchor="middle" x="179" y="-366" font-family="Helvetica,sans-Serif" font-size="10.00">print_text2_wide</text>
</a>
</g>
</g>
<!-- Node1&#45;&gt;Node2 -->
<g id="edge1_Node000001_Node000002" class="edge">
<title>Node1&#45;&gt;Node2</title>
<g id="a_edge1_Node000001_Node000002"><a xlink:title=" ">
<path fill="none" stroke="#63b8ff" d="M94.2,-368.5C102.4,-368.5 111.03,-368.5 119.52,-368.5"/>
<polygon fill="#63b8ff" stroke="#63b8ff" points="119.75,-372 129.75,-368.5 119.75,-365 119.75,-372"/>
</a>
</g>
</g>
<!-- Node3 -->
<g id="Node000003" class="node">
<title>Node3</title>
<g id="a_Node000003"><a xlink:href="menu__items_8c.html#ace62f40ce813c34904327e39643a0dbf" target="_top" xlink:title=" ">
<polygon fill="white" stroke="#666666" points="392,-464 275,-464 275,-445 392,-445 392,-464"/>
<text text-anchor="middle" x="333.5" y="-452" font-family="Helvetica,sans-Serif" font-size="10.00">char_to_glyph_index</text>
</a>
</g>
</g>
<!-- Node2&#45;&gt;Node3 -->
<g id="edge2_Node000002_Node000003" class="edge">
<title>Node2&#45;&gt;Node3</title>
<g id="a_edge2_Node000002_Node000003"><a xlink:title=" ">
<path fill="none" stroke="#63b8ff" d="M189.42,-378.19C204.06,-392.71 233.76,-420.07 264,-435.5 268.55,-437.82 273.43,-439.89 278.4,-441.73"/>
<polygon fill="#63b8ff" stroke="#63b8ff" points="277.43,-445.1 288.03,-444.98 279.67,-438.47 277.43,-445.1"/>
</a>
</g>
</g>
<!-- Node7 -->
<g id="Node000007" class="node">
<title>Node7</title>
<g id="a_Node000007"><a xlink:href="FrameInterpolation_8cpp.html#a14ceaeb116362786310778e36943f7be" target="_top" xlink:title=" ">
<polygon fill="white" stroke="#666666" points="403,-426.5 264,-426.5 264,-396.5 403,-396.5 403,-426.5"/>
<text text-anchor="start" x="272" y="-414.5" font-family="Helvetica,sans-Serif" font-size="10.00">FrameInterpolation</text>
<text text-anchor="middle" x="333.5" y="-403.5" font-family="Helvetica,sans-Serif" font-size="10.00">_ShouldInterpolateFrame</text>
</a>
</g>
</g>
<!-- Node2&#45;&gt;Node7 -->
<g id="edge7_Node000002_Node000007" class="edge">
<title>Node2&#45;&gt;Node7</title>
<g id="a_edge7_Node000002_Node000007"><a xlink:title=" ">
<path fill="none" stroke="#63b8ff" d="M213.84,-378.04C230.21,-382.66 250.39,-388.35 269.45,-393.72"/>
<polygon fill="#63b8ff" stroke="#63b8ff" points="268.71,-397.15 279.28,-396.49 270.61,-390.41 268.71,-397.15"/>
</a>
</g>
</g>
<!-- Node8 -->
<g id="Node000008" class="node">
<title>Node8</title>
<g id="a_Node000008"><a xlink:href="GBIMiddleware_8cpp.html#a4ecc44e3c6f1ca5a6b4a20c41d3bd2d2" target="_top" xlink:title=" ">
<polygon fill="white" stroke="#666666" points="928.5,-378 839.5,-378 839.5,-359 928.5,-359 928.5,-378"/>
<text text-anchor="middle" x="884" y="-366" font-family="Helvetica,sans-Serif" font-size="10.00">gSPDisplayList</text>
</a>
</g>
</g>
<!-- Node2&#45;&gt;Node8 -->
<g id="edge8_Node000002_Node000008" class="edge">
<title>Node2&#45;&gt;Node8</title>
<g id="a_edge8_Node000002_Node000008"><a xlink:title=" ">
<path fill="none" stroke="#63b8ff" d="M228.04,-368.5C354.51,-368.5 696,-368.5 828.97,-368.5"/>
<polygon fill="#63b8ff" stroke="#63b8ff" points="829.31,-372 839.31,-368.5 829.31,-365 829.31,-372"/>
</a>
</g>
</g>
<!-- Node11 -->
<g id="Node000011" class="node">
<title>Node11</title>
<g id="a_Node000011"><a xlink:href="menu__items_8c.html#a68e560d23390d5add7cb57ccd82e21ae" target="_top" xlink:title=" ">
<polygon fill="white" stroke="#666666" points="381,-215 286,-215 286,-196 381,-196 381,-215"/>
<text text-anchor="middle" x="333.5" y="-203" font-family="Helvetica,sans-Serif" font-size="10.00">load_menu_img</text>
</a>
</g>
</g>
<!-- Node2&#45;&gt;Node11 -->
<g id="edge11_Node000002_Node000011" class="edge">
<title>Node2&#45;&gt;Node11</title>
<g id="a_edge11_Node000002_Node000011"><a xlink:title=" ">
<path fill="none" stroke="#63b8ff" d="M189.08,-358.79C214.13,-332.02 284.46,-256.85 316.38,-222.73"/>
<polygon fill="#63b8ff" stroke="#63b8ff" points="319,-225.06 323.27,-215.36 313.88,-220.27 319,-225.06"/>
</a>
</g>
</g>
<!-- Node13 -->
<g id="Node000013" class="node">
<title>Node13</title>
<g id="a_Node000013"><a xlink:href="menu__items_8c.html#a4a007ea44e7ab306e6126af44f75814a" target="_top" xlink:title=" ">
<polygon fill="white" stroke="#666666" points="397,-311 270,-311 270,-292 397,-292 397,-311"/>
<text text-anchor="middle" x="333.5" y="-299" font-family="Helvetica,sans-Serif" font-size="10.00">print_letter_wide_right</text>
</a>
</g>
</g>
<!-- Node2&#45;&gt;Node13 -->
<g id="edge13_Node000002_Node000013" class="edge">
<title>Node2&#45;&gt;Node13</title>
<g id="a_edge13_Node000002_Node000013"><a xlink:title=" ">
<path fill="none" stroke="#63b8ff" d="M201.85,-358.9C227.9,-347.46 271.61,-328.25 301.23,-315.24"/>
<polygon fill="#63b8ff" stroke="#63b8ff" points="302.94,-318.31 310.69,-311.08 300.13,-311.9 302.94,-318.31"/>
</a>
</g>
</g>
<!-- Node4 -->
<g id="Node000004" class="node">
<title>Node4</title>
<g id="a_Node000004"><a xlink:href="menu__items_8c.html#ae8ba1b567dba01ff15c64d416653a70b" target="_top" xlink:title=" ">
<polygon fill="white" stroke="#666666" points="546,-464 454,-464 454,-445 546,-445 546,-464"/>
<text text-anchor="middle" x="500" y="-452" font-family="Helvetica,sans-Serif" font-size="10.00">func_80092DF8</text>
</a>
</g>
</g>
<!-- Node3&#45;&gt;Node4 -->
<g id="edge3_Node000003_Node000004" class="edge">
<title>Node3&#45;&gt;Node4</title>
<g id="a_edge3_Node000003_Node000004"><a xlink:title=" ">
<path fill="none" stroke="#63b8ff" d="M392.03,-454.5C408.84,-454.5 427.16,-454.5 443.81,-454.5"/>
<polygon fill="#63b8ff" stroke="#63b8ff" points="443.94,-458 453.94,-454.5 443.94,-451 443.94,-458"/>
</a>
</g>
</g>
<!-- Node5 -->
<g id="Node000005" class="node">
<title>Node5</title>
<g id="a_Node000005"><a xlink:href="menu__items_8c.html#acd5b29a8e8634aa4f3db4b9a7c5ba033" target="_top" xlink:title=" ">
<polygon fill="white" stroke="#666666" points="733.5,-483 641.5,-483 641.5,-464 733.5,-464 733.5,-483"/>
<text text-anchor="middle" x="687.5" y="-471" font-family="Helvetica,sans-Serif" font-size="10.00">func_80092E1C</text>
</a>
</g>
</g>
<!-- Node3&#45;&gt;Node5 -->
<g id="edge5_Node000003_Node000005" class="edge">
<title>Node3&#45;&gt;Node5</title>
<g id="a_edge5_Node000003_Node000005"><a xlink:title=" ">
<path fill="none" stroke="#63b8ff" d="M380.07,-464.04C398.3,-467.42 419.56,-470.8 439,-472.5 504.88,-478.27 580.99,-477.46 631.23,-475.9"/>
<polygon fill="#63b8ff" stroke="#63b8ff" points="631.36,-479.4 641.23,-475.57 631.12,-472.4 631.36,-479.4"/>
</a>
</g>
</g>
<!-- Node6 -->
<g id="Node000006" class="node">
<title>Node6</title>
<g id="a_Node000006"><a xlink:href="menu__items_8c.html#ab26c8dca1828cd1d5a6c341cb851f0b9" target="_top" xlink:title=" ">
<polygon fill="white" stroke="#666666" points="545.5,-427 454.5,-427 454.5,-408 545.5,-408 545.5,-427"/>
<text text-anchor="middle" x="500" y="-415" font-family="Helvetica,sans-Serif" font-size="10.00">func_80092EE4</text>
</a>
</g>
</g>
<!-- Node3&#45;&gt;Node6 -->
<g id="edge6_Node000003_Node000006" class="edge">
<title>Node3&#45;&gt;Node6</title>
<g id="a_edge6_Node000003_Node000006"><a xlink:title=" ">
<path fill="none" stroke="#63b8ff" d="M376.86,-444.97C398.08,-440.2 423.97,-434.38 446.44,-429.32"/>
<polygon fill="#63b8ff" stroke="#63b8ff" points="447.51,-432.67 456.5,-427.06 445.97,-425.84 447.51,-432.67"/>
</a>
</g>
</g>
<!-- Node4&#45;&gt;Node5 -->
<g id="edge4_Node000004_Node000005" class="edge">
<title>Node4&#45;&gt;Node5</title>
<g id="a_edge4_Node000004_Node000005"><a xlink:title=" ">
<path fill="none" stroke="#63b8ff" d="M546.38,-459.15C571.96,-461.77 604.12,-465.06 631.17,-467.83"/>
<polygon fill="#63b8ff" stroke="#63b8ff" points="630.96,-471.33 641.27,-468.87 631.68,-464.37 630.96,-471.33"/>
</a>
</g>
</g>
<!-- Node9 -->
<g id="Node000009" class="node">
<title>Node9</title>
<g id="a_Node000009"><a xlink:href="Engine_8cpp.html#a223c8bc63f228dc11177515e38eff2db" target="_top" xlink:title=" ">
<polygon fill="white" stroke="#666666" points="1139,-359 990,-359 990,-340 1139,-340 1139,-359"/>
<text text-anchor="middle" x="1064.5" y="-347" font-family="Helvetica,sans-Serif" font-size="10.00">GameEngine_OTRSigCheck</text>
</a>
</g>
</g>
<!-- Node8&#45;&gt;Node9 -->
<g id="edge9_Node000008_Node000009" class="edge">
<title>Node8&#45;&gt;Node9</title>
<g id="a_edge9_Node000008_Node000009"><a xlink:title=" ">
<path fill="none" stroke="#63b8ff" d="M928.67,-363.85C944.02,-362.22 961.84,-360.32 979.4,-358.45"/>
<polygon fill="#63b8ff" stroke="#63b8ff" points="980.11,-361.9 989.68,-357.36 979.36,-354.94 980.11,-361.9"/>
</a>
</g>
</g>
<!-- Node10 -->
<g id="Node000010" class="node">
<title>Node10</title>
<g id="a_Node000010"><a xlink:href="string_8c.html#a008e171a518fe0e0352f31b245e03875" target="_top" xlink:title=" ">
<polygon fill="white" stroke="#666666" points="1221.5,-359 1177.5,-359 1177.5,-340 1221.5,-340 1221.5,-359"/>
<text text-anchor="middle" x="1199.5" y="-347" font-family="Helvetica,sans-Serif" font-size="10.00">strlen</text>
</a>
</g>
</g>
<!-- Node9&#45;&gt;Node10 -->
<g id="edge10_Node000009_Node000010" class="edge">
<title>Node9&#45;&gt;Node10</title>
<g id="a_edge10_Node000009_Node000010"><a xlink:title=" ">
<path fill="none" stroke="#63b8ff" d="M1139,-349.5C1148.89,-349.5 1158.56,-349.5 1167.14,-349.5"/>
<polygon fill="#63b8ff" stroke="#63b8ff" points="1167.36,-353 1177.36,-349.5 1167.36,-346 1167.36,-353"/>
</a>
</g>
</g>
<!-- Node12 -->
<g id="Node000012" class="node">
<title>Node12</title>
<g id="a_Node000012"><a xlink:href="menu__items_8c.html#a248768ee2e4ca9ae9cf0a30bfb256859" target="_top" xlink:title=" ">
<polygon fill="white" stroke="#666666" points="539,-165 461,-165 461,-146 539,-146 539,-165"/>
<text text-anchor="middle" x="500" y="-153" font-family="Helvetica,sans-Serif" font-size="10.00">load_texture</text>
</a>
</g>
</g>
<!-- Node11&#45;&gt;Node12 -->
<g id="edge12_Node000011_Node000012" class="edge">
<title>Node11&#45;&gt;Node12</title>
<g id="a_edge12_Node000011_Node000012"><a xlink:title=" ">
<path fill="none" stroke="#63b8ff" d="M365.58,-195.93C386.36,-189.55 414.3,-180.99 439,-173.5 444.8,-171.74 450.92,-169.9 456.94,-168.08"/>
<polygon fill="#63b8ff" stroke="#63b8ff" points="458.35,-171.32 466.92,-165.09 456.33,-164.61 458.35,-171.32"/>
</a>
</g>
</g>
<!-- Node13&#45;&gt;Node8 -->
<g id="edge51_Node000013_Node000008" class="edge">
<title>Node13&#45;&gt;Node8</title>
<g id="a_edge51_Node000013_Node000008"><a xlink:title=" ">
<path fill="none" stroke="#63b8ff" d="M397.33,-308.74C483.3,-318.7 642.41,-337.36 778,-354.5 794.7,-356.61 812.87,-359 829.34,-361.2"/>
<polygon fill="#63b8ff" stroke="#63b8ff" points="828.96,-364.68 839.34,-362.54 829.89,-357.74 828.96,-364.68"/>
</a>
</g>
</g>
<!-- Node14 -->
<g id="Node000014" class="node">
<title>Node14</title>
<g id="a_Node000014"><a xlink:href="menu__items_8c.html#ad129d5fc839c6e03c8d1399f72f53071" target="_top" xlink:title=" ">
<polygon fill="white" stroke="#666666" points="561,-250.5 439,-250.5 439,-220.5 561,-220.5 561,-250.5"/>
<text text-anchor="start" x="447" y="-238.5" font-family="Helvetica,sans-Serif" font-size="10.00">func_80095BD0_wide</text>
<text text-anchor="middle" x="500" y="-227.5" font-family="Helvetica,sans-Serif" font-size="10.00">_right</text>
</a>
</g>
</g>
<!-- Node13&#45;&gt;Node14 -->
<g id="edge14_Node000013_Node000014" class="edge">
<title>Node13&#45;&gt;Node14</title>
<g id="a_edge14_Node000013_Node000014"><a xlink:title=" ">
<path fill="none" stroke="#63b8ff" d="M358.42,-291.9C382.78,-282.13 421.21,-266.71 451.74,-254.46"/>
<polygon fill="#63b8ff" stroke="#63b8ff" points="453.37,-257.58 461.35,-250.61 450.76,-251.08 453.37,-257.58"/>
</a>
</g>
</g>
<!-- Node41 -->
<g id="Node000041" class="node">
<title>Node41</title>
<g id="a_Node000041"><a xlink:href="menu__items_8c.html#a6061a0dbb9b34a45fb1620c6c1d7f73c" target="_top" xlink:title=" ">
<polygon fill="white" stroke="#666666" points="546,-202 454,-202 454,-183 546,-183 546,-202"/>
<text text-anchor="middle" x="500" y="-190" font-family="Helvetica,sans-Serif" font-size="10.00">func_8009B8C4</text>
</a>
</g>
</g>
<!-- Node13&#45;&gt;Node41 -->
<g id="edge50_Node000013_Node000041" class="edge">
<title>Node13&#45;&gt;Node41</title>
<g id="a_edge50_Node000013_Node000041"><a xlink:title=" ">
<path fill="none" stroke="#63b8ff" d="M343.04,-291.92C359.74,-273.73 398.64,-234.01 439,-211.5 442.92,-209.32 447.12,-207.34 451.42,-205.57"/>
<polygon fill="#63b8ff" stroke="#63b8ff" points="452.77,-208.8 460.9,-202.01 450.31,-202.25 452.77,-208.8"/>
</a>
</g>
</g>
<!-- Node15 -->
<g id="Node000015" class="node">
<title>Node15</title>
<g id="a_Node000015"><a xlink:href="Matrix_8cpp.html#a6f64c44efb9bdfff802175a9739ce1f1" target="_top" xlink:title=" ">
<polygon fill="white" stroke="#666666" points="731,-224 644,-224 644,-205 731,-205 731,-224"/>
<text text-anchor="middle" x="687.5" y="-212" font-family="Helvetica,sans-Serif" font-size="10.00">AddTextMatrix</text>
</a>
</g>
</g>
<!-- Node14&#45;&gt;Node15 -->
<g id="edge15_Node000014_Node000015" class="edge">
<title>Node14&#45;&gt;Node15</title>
<g id="a_edge15_Node000014_Node000015"><a xlink:title=" ">
<path fill="none" stroke="#63b8ff" d="M561.23,-228.68C584.62,-226.03 611.17,-223.03 633.8,-220.47"/>
<polygon fill="#63b8ff" stroke="#63b8ff" points="634.34,-223.93 643.89,-219.32 633.56,-216.97 634.34,-223.93"/>
</a>
</g>
</g>
<!-- Node19 -->
<g id="Node000019" class="node">
<title>Node19</title>
<g id="a_Node000019"><a xlink:href="FrameInterpolation_8cpp.html#a3a036bc9d533e28a4e9697cd20dccf3e" target="_top" xlink:title=" ">
<polygon fill="white" stroke="#666666" points="742.5,-184.5 632.5,-184.5 632.5,-154.5 742.5,-154.5 742.5,-184.5"/>
<text text-anchor="start" x="640.5" y="-172.5" font-family="Helvetica,sans-Serif" font-size="10.00">FrameInterpolation</text>
<text text-anchor="middle" x="687.5" y="-161.5" font-family="Helvetica,sans-Serif" font-size="10.00">_RecordCloseChild</text>
</a>
</g>
</g>
<!-- Node14&#45;&gt;Node19 -->
<g id="edge19_Node000014_Node000019" class="edge">
<title>Node14&#45;&gt;Node19</title>
<g id="a_edge19_Node000014_Node000019"><a xlink:title=" ">
<path fill="none" stroke="#63b8ff" d="M537.19,-220.41C564.31,-209.11 596.8,-195.57 597,-195.5 605.21,-192.61 613.91,-189.79 622.55,-187.13"/>
<polygon fill="#63b8ff" stroke="#63b8ff" points="623.67,-190.44 632.24,-184.21 621.65,-183.74 623.67,-190.44"/>
</a>
</g>
</g>
<!-- Node20 -->
<g id="Node000020" class="node">
<title>Node20</title>
<g id="a_Node000020"><a xlink:href="FrameInterpolation_8cpp.html#a0eda726b74eac815af4e874014e2727c" target="_top" xlink:title=" ">
<polygon fill="white" stroke="#666666" points="742.5,-131.5 632.5,-131.5 632.5,-101.5 742.5,-101.5 742.5,-131.5"/>
<text text-anchor="start" x="640.5" y="-119.5" font-family="Helvetica,sans-Serif" font-size="10.00">FrameInterpolation</text>
<text text-anchor="middle" x="687.5" y="-108.5" font-family="Helvetica,sans-Serif" font-size="10.00">_RecordOpenChild</text>
</a>
</g>
</g>
<!-- Node14&#45;&gt;Node20 -->
<g id="edge21_Node000014_Node000020" class="edge">
<title>Node14&#45;&gt;Node20</title>
<g id="a_edge21_Node000014_Node000020"><a xlink:title=" ">
<path fill="none" stroke="#63b8ff" d="M546.55,-220.46C551.75,-217.64 556.71,-214.34 561,-210.5 585.61,-188.48 571.51,-166.5 597,-145.5 604.48,-139.33 613.31,-134.47 622.46,-130.63"/>
<polygon fill="#63b8ff" stroke="#63b8ff" points="623.95,-133.81 632.06,-126.99 621.47,-127.26 623.95,-133.81"/>
</a>
</g>
</g>
<!-- Node21 -->
<g id="Node000021" class="node">
<title>Node21</title>
<g id="a_Node000021"><a xlink:href="menu__items_8c.html#ae0fd5923ba70cf6939cd3fa8d09c1191" target="_top" xlink:title=" ">
<polygon fill="white" stroke="#666666" points="733,-302 642,-302 642,-283 733,-283 733,-302"/>
<text text-anchor="middle" x="687.5" y="-290" font-family="Helvetica,sans-Serif" font-size="10.00">func_800959F8</text>
</a>
</g>
</g>
<!-- Node14&#45;&gt;Node21 -->
<g id="edge23_Node000014_Node000021" class="edge">
<title>Node14&#45;&gt;Node21</title>
<g id="a_edge23_Node000014_Node000021"><a xlink:title=" ">
<path fill="none" stroke="#63b8ff" d="M535.16,-250.64C553.28,-258.26 576.06,-267.18 597,-273.5 608.17,-276.87 620.31,-279.87 631.93,-282.44"/>
<polygon fill="#63b8ff" stroke="#63b8ff" points="631.46,-285.92 641.97,-284.58 632.92,-279.07 631.46,-285.92"/>
</a>
</g>
</g>
<!-- Node23 -->
<g id="Node000023" class="node">
<title>Node23</title>
<g id="a_Node000023"><a xlink:href="Engine_8cpp.html#a17495ab17d6e9c65b2a76e3c88a7f718" target="_top" xlink:title=" ">
<polygon fill="white" stroke="#666666" points="778,-23 597,-23 597,-4 778,-4 778,-23"/>
<text text-anchor="middle" x="687.5" y="-11" font-family="Helvetica,sans-Serif" font-size="10.00">OTRGetDimensionFromRightEdge</text>
</a>
</g>
</g>
<!-- Node14&#45;&gt;Node23 -->
<g id="edge27_Node000014_Node000023" class="edge">
<title>Node14&#45;&gt;Node23</title>
<g id="a_edge27_Node000014_Node000023"><a xlink:title=" ">
<path fill="none" stroke="#63b8ff" d="M549.8,-220.35C554,-217.59 557.84,-214.33 561,-210.5 611.75,-148.87 541.36,-91.76 597,-34.5 599.14,-32.3 601.46,-30.31 603.92,-28.52"/>
<polygon fill="#63b8ff" stroke="#63b8ff" points="606.07,-31.31 612.8,-23.13 602.44,-25.32 606.07,-31.31"/>
</a>
</g>
</g>
<!-- Node26 -->
<g id="Node000026" class="node">
<title>Node26</title>
<g id="a_Node000026"><a xlink:href="stubs_8c.html#a8b417b868747c80d58f83d8a1e78ecf3" target="_top" xlink:title=" ">
<polygon fill="white" stroke="#666666" points="721.5,-265 653.5,-265 653.5,-246 721.5,-246 721.5,-265"/>
<text text-anchor="middle" x="687.5" y="-253" font-family="Helvetica,sans-Serif" font-size="10.00">rmonPrintf</text>
</a>
</g>
</g>
<!-- Node14&#45;&gt;Node26 -->
<g id="edge30_Node000014_Node000026" class="edge">
<title>Node14&#45;&gt;Node26</title>
<g id="a_edge30_Node000014_Node000026"><a xlink:title=" ">
<path fill="none" stroke="#63b8ff" d="M561.23,-241.99C587.98,-244.88 618.86,-248.21 643.27,-250.84"/>
<polygon fill="#63b8ff" stroke="#63b8ff" points="642.99,-254.33 653.31,-251.92 643.74,-247.37 642.99,-254.33"/>
</a>
</g>
</g>
<!-- Node39 -->
<g id="Node000039" class="node">
<title>Node39</title>
<g id="a_Node000039"><a xlink:href="Matrix_8cpp.html#a9818099a1ee20606a7d622e744846366" target="_top" xlink:title=" ">
<polygon fill="white" stroke="#666666" points="729.5,-63 645.5,-63 645.5,-44 729.5,-44 729.5,-63"/>
<text text-anchor="middle" x="687.5" y="-51" font-family="Helvetica,sans-Serif" font-size="10.00">SetTextMatrix</text>
</a>
</g>
</g>
<!-- Node14&#45;&gt;Node39 -->
<g id="edge46_Node000014_Node000039" class="edge">
<title>Node14&#45;&gt;Node39</title>
<g id="a_edge46_Node000014_Node000039"><a xlink:title=" ">
<path fill="none" stroke="#63b8ff" d="M548.85,-220.4C553.35,-217.62 557.51,-214.35 561,-210.5 597.81,-169.86 560.52,-133.43 597,-92.5 607.45,-80.77 622.07,-72.42 636.47,-66.54"/>
<polygon fill="#63b8ff" stroke="#63b8ff" points="637.71,-69.82 645.85,-63.03 635.26,-63.26 637.71,-69.82"/>
</a>
</g>
</g>
<!-- Node16 -->
<g id="Node000016" class="node">
<title>Node16</title>
<g id="a_Node000016"><a xlink:href="FrameInterpolation_8cpp.html#a8cf1f2d6fabc6925aa71a9515341b4aa" target="_top" xlink:title=" ">
<polygon fill="white" stroke="#666666" points="954,-229.5 814,-229.5 814,-199.5 954,-199.5 954,-229.5"/>
<text text-anchor="start" x="822" y="-217.5" font-family="Helvetica,sans-Serif" font-size="10.00">FrameInterpolation</text>
<text text-anchor="middle" x="884" y="-206.5" font-family="Helvetica,sans-Serif" font-size="10.00">_RecordMatrixMtxFToMtx</text>
</a>
</g>
</g>
<!-- Node15&#45;&gt;Node16 -->
<g id="edge16_Node000015_Node000016" class="edge">
<title>Node15&#45;&gt;Node16</title>
<g id="a_edge16_Node000015_Node000016"><a xlink:title=" ">
<path fill="none" stroke="#63b8ff" d="M731.18,-214.5C752.41,-214.5 778.77,-214.5 803.54,-214.5"/>
<polygon fill="#63b8ff" stroke="#63b8ff" points="803.66,-218 813.66,-214.5 803.66,-211 803.66,-218"/>
</a>
</g>
</g>
<!-- Node18 -->
<g id="Node000018" class="node">
<title>Node18</title>
<g id="a_Node000018"><a xlink:href="guMtxF2L_8c.html#a40ab2d64c609839ff1e0ef0de2d0dcc4" target="_top" xlink:title=" ">
<polygon fill="white" stroke="#666666" points="916.5,-181 851.5,-181 851.5,-162 916.5,-162 916.5,-181"/>
<text text-anchor="middle" x="884" y="-169" font-family="Helvetica,sans-Serif" font-size="10.00">guMtxF2L</text>
</a>
</g>
</g>
<!-- Node15&#45;&gt;Node18 -->
<g id="edge18_Node000015_Node000018" class="edge">
<title>Node15&#45;&gt;Node18</title>
<g id="a_edge18_Node000015_Node000018"><a xlink:title=" ">
<path fill="none" stroke="#63b8ff" d="M731.18,-205.06C763.88,-197.84 808.73,-187.92 841.2,-180.74"/>
<polygon fill="#63b8ff" stroke="#63b8ff" points="842.27,-184.09 851.28,-178.51 840.76,-177.25 842.27,-184.09"/>
</a>
</g>
</g>
<!-- Node17 -->
<g id="Node000017" class="node">
<title>Node17</title>
<g id="a_Node000017"><a xlink:href="FrameInterpolation_8cpp.html#a02c7ac5342a4d376edee38f312b480bf" target="_top" xlink:title=" ">
<polygon fill="white" stroke="#666666" points="1118.5,-124 1010.5,-124 1010.5,-105 1118.5,-105 1118.5,-124"/>
<text text-anchor="middle" x="1064.5" y="-112" font-family="Helvetica,sans-Serif" font-size="10.00">check_if_recording</text>
</a>
</g>
</g>
<!-- Node16&#45;&gt;Node17 -->
<g id="edge17_Node000016_Node000017" class="edge">
<title>Node16&#45;&gt;Node17</title>
<g id="a_edge17_Node000016_Node000017"><a xlink:title=" ">
<path fill="none" stroke="#63b8ff" d="M931.71,-199.4C939.3,-196.43 946.97,-193.11 954,-189.5 987.33,-172.4 1022.5,-146.76 1043.72,-130.34"/>
<polygon fill="#63b8ff" stroke="#63b8ff" points="1045.94,-133.04 1051.66,-124.12 1041.63,-127.53 1045.94,-133.04"/>
</a>
</g>
</g>
<!-- Node19&#45;&gt;Node17 -->
<g id="edge20_Node000019_Node000017" class="edge">
<title>Node19&#45;&gt;Node17</title>
<g id="a_edge20_Node000019_Node000017"><a xlink:title=" ">
<path fill="none" stroke="#63b8ff" d="M742.63,-161.56C810.77,-151.57 927.65,-134.42 999.96,-123.82"/>
<polygon fill="#63b8ff" stroke="#63b8ff" points="1000.91,-127.22 1010.3,-122.3 999.9,-120.29 1000.91,-127.22"/>
</a>
</g>
</g>
<!-- Node20&#45;&gt;Node17 -->
<g id="edge22_Node000020_Node000017" class="edge">
<title>Node20&#45;&gt;Node17</title>
<g id="a_edge22_Node000020_Node000017"><a xlink:title=" ">
<path fill="none" stroke="#63b8ff" d="M742.63,-116.21C810.77,-115.85 927.65,-115.22 999.96,-114.84"/>
<polygon fill="#63b8ff" stroke="#63b8ff" points="1000.32,-118.34 1010.3,-114.78 1000.28,-111.34 1000.32,-118.34"/>
</a>
</g>
</g>
<!-- Node21&#45;&gt;Node8 -->
<g id="edge24_Node000021_Node000008" class="edge">
<title>Node21&#45;&gt;Node8</title>
<g id="a_edge24_Node000021_Node000008"><a xlink:title=" ">
<path fill="none" stroke="#63b8ff" d="M733.36,-300.09C748.16,-303.73 764.32,-308.99 778,-316.5 797.03,-326.94 795.01,-338.99 814,-349.5 818.89,-352.21 824.2,-354.55 829.62,-356.57"/>
<polygon fill="#63b8ff" stroke="#63b8ff" points="828.84,-360 839.44,-359.88 831.07,-353.37 828.84,-360"/>
</a>
</g>
</g>
<!-- Node22 -->
<g id="Node000022" class="node">
<title>Node22</title>
<g id="a_Node000022"><a xlink:href="GBIMiddleware_8cpp.html#aeef79449a27a710d73576e4a4f7f7f99" target="_top" xlink:title=" ">
<polygon fill="white" stroke="#666666" points="917,-341 851,-341 851,-322 917,-322 917,-341"/>
<text text-anchor="middle" x="884" y="-329" font-family="Helvetica,sans-Serif" font-size="10.00">gSPVertex</text>
</a>
</g>
</g>
<!-- Node21&#45;&gt;Node22 -->
<g id="edge25_Node000021_Node000022" class="edge">
<title>Node21&#45;&gt;Node22</title>
<g id="a_edge25_Node000021_Node000022"><a xlink:title=" ">
<path fill="none" stroke="#63b8ff" d="M733.12,-301.45C765.51,-307.94 809.03,-316.67 840.83,-323.05"/>
<polygon fill="#63b8ff" stroke="#63b8ff" points="840.23,-326.49 850.72,-325.03 841.6,-319.63 840.23,-326.49"/>
</a>
</g>
</g>
<!-- Node22&#45;&gt;Node9 -->
<g id="edge26_Node000022_Node000009" class="edge">
<title>Node22&#45;&gt;Node9</title>
<g id="a_edge26_Node000022_Node000009"><a xlink:title=" ">
<path fill="none" stroke="#63b8ff" d="M917.33,-334.76C934.92,-336.53 957.59,-338.82 979.8,-341.06"/>
<polygon fill="#63b8ff" stroke="#63b8ff" points="979.65,-344.56 989.95,-342.08 980.35,-337.6 979.65,-344.56"/>
</a>
</g>
</g>
<!-- Node24 -->
<g id="Node000024" class="node">
<title>Node24</title>
<g id="a_Node000024"><a xlink:href="Engine_8cpp.html#a130aa97f1c7fae24f3d23f8126e7506f" target="_top" xlink:title=" ">
<polygon fill="white" stroke="#666666" points="940.5,-19 827.5,-19 827.5,0 940.5,0 940.5,-19"/>
<text text-anchor="middle" x="884" y="-7" font-family="Helvetica,sans-Serif" font-size="10.00">OTRGetAspectRatio</text>
</a>
</g>
</g>
<!-- Node23&#45;&gt;Node24 -->
<g id="edge28_Node000023_Node000024" class="edge">
<title>Node23&#45;&gt;Node24</title>
<g id="a_edge28_Node000023_Node000024"><a xlink:title=" ">
<path fill="none" stroke="#63b8ff" d="M778.06,-11.66C791.15,-11.39 804.42,-11.12 816.93,-10.86"/>
<polygon fill="#63b8ff" stroke="#63b8ff" points="817.3,-14.35 827.23,-10.65 817.16,-7.35 817.3,-14.35"/>
</a>
</g>
</g>
<!-- Node25 -->
<g id="Node000025" class="node">
<title>Node25</title>
<g id="a_Node000025"><a xlink:href="Engine_8cpp.html#a29357c424545be61af4bd28d84fd344a" target="_top" xlink:title=" ">
<polygon fill="white" stroke="#666666" points="1107.5,-19 1021.5,-19 1021.5,0 1107.5,0 1107.5,-19"/>
<text text-anchor="middle" x="1064.5" y="-7" font-family="Helvetica,sans-Serif" font-size="10.00">GetInterpreter</text>
</a>
</g>
</g>
<!-- Node24&#45;&gt;Node25 -->
<g id="edge29_Node000024_Node000025" class="edge">
<title>Node24&#45;&gt;Node25</title>
<g id="a_edge29_Node000024_Node000025"><a xlink:title=" ">
<path fill="none" stroke="#63b8ff" d="M940.5,-9.5C963.03,-9.5 988.92,-9.5 1011.12,-9.5"/>
<polygon fill="#63b8ff" stroke="#63b8ff" points="1011.37,-13 1021.37,-9.5 1011.37,-6 1011.37,-13"/>
</a>
</g>
</g>
<!-- Node27 -->
<g id="Node000027" class="node">
<title>Node27</title>
<g id="a_Node000027"><a xlink:href="__Printf_8c.html#a39bb05c90efce6c6790c5d58d271d72d" target="_top" xlink:title=" ">
<polygon fill="white" stroke="#666666" points="908,-304 860,-304 860,-285 908,-285 908,-304"/>
<text text-anchor="middle" x="884" y="-292" font-family="Helvetica,sans-Serif" font-size="10.00">_Printf</text>
</a>
</g>
</g>
<!-- Node26&#45;&gt;Node27 -->
<g id="edge31_Node000026_Node000027" class="edge">
<title>Node26&#45;&gt;Node27</title>
<g id="a_edge31_Node000026_Node000027"><a xlink:title=" ">
<path fill="none" stroke="#63b8ff" d="M721.94,-262.2C757.72,-269.38 814.15,-280.69 849.83,-287.85"/>
<polygon fill="#63b8ff" stroke="#63b8ff" points="849.26,-291.3 859.75,-289.84 850.63,-284.44 849.26,-291.3"/>
</a>
</g>
</g>
<!-- Node38 -->
<g id="Node000038" class="node">
<title>Node38</title>
<g id="a_Node000038"><a xlink:href="is__debug_8c.html#aaccfac8d9098530b6592eefe679d86b4" target="_top" xlink:title=" ">
<polygon fill="white" stroke="#666666" points="936.5,-267 831.5,-267 831.5,-248 936.5,-248 936.5,-267"/>
<text text-anchor="middle" x="884" y="-255" font-family="Helvetica,sans-Serif" font-size="10.00">is_proutSyncPrintf</text>
</a>
</g>
</g>
<!-- Node26&#45;&gt;Node38 -->
<g id="edge45_Node000026_Node000038" class="edge">
<title>Node26&#45;&gt;Node38</title>
<g id="a_edge45_Node000026_Node000038"><a xlink:title=" ">
<path fill="none" stroke="#63b8ff" d="M721.94,-255.84C749.08,-256.12 788.11,-256.52 820.95,-256.86"/>
<polygon fill="#63b8ff" stroke="#63b8ff" points="821.33,-260.37 831.37,-256.97 821.41,-253.37 821.33,-260.37"/>
</a>
</g>
</g>
<!-- Node28 -->
<g id="Node000028" class="node">
<title>Node28</title>
<g id="a_Node000028"><a xlink:href="__Printf_8c.html#ad73a5847f2d7c9de14cc2723da86bf45" target="_top" xlink:title=" ">
<polygon fill="white" stroke="#666666" points="1089.5,-322 1039.5,-322 1039.5,-303 1089.5,-303 1089.5,-322"/>
<text text-anchor="middle" x="1064.5" y="-310" font-family="Helvetica,sans-Serif" font-size="10.00">_Putfld</text>
</a>
</g>
</g>
<!-- Node27&#45;&gt;Node28 -->
<g id="edge32_Node000027_Node000028" class="edge">
<title>Node27&#45;&gt;Node28</title>
<g id="a_edge32_Node000027_Node000028"><a xlink:title=" ">
<path fill="none" stroke="#63b8ff" d="M908.34,-296.85C939.08,-299.95 993.41,-305.43 1028.93,-309.01"/>
<polygon fill="#63b8ff" stroke="#63b8ff" points="1029,-312.54 1039.3,-310.06 1029.7,-305.57 1029,-312.54"/>
</a>
</g>
</g>
<!-- Node37 -->
<g id="Node000037" class="node">
<title>Node37</title>
<g id="a_Node000037"><a xlink:href="string_8c.html#a988b4defe51a1815ef3b9ddab10e7a89" target="_top" xlink:title=" ">
<polygon fill="white" stroke="#666666" points="1086.5,-285 1042.5,-285 1042.5,-266 1086.5,-266 1086.5,-285"/>
<text text-anchor="middle" x="1064.5" y="-273" font-family="Helvetica,sans-Serif" font-size="10.00">strchr</text>
</a>
</g>
</g>
<!-- Node27&#45;&gt;Node37 -->
<g id="edge44_Node000027_Node000037" class="edge">
<title>Node27&#45;&gt;Node37</title>
<g id="a_edge44_Node000027_Node000037"><a xlink:title=" ">
<path fill="none" stroke="#63b8ff" d="M908.34,-292.02C940.02,-288.64 996.76,-282.6 1032.14,-278.84"/>
<polygon fill="#63b8ff" stroke="#63b8ff" points="1032.81,-282.29 1042.38,-277.75 1032.07,-275.33 1032.81,-282.29"/>
</a>
</g>
</g>
<!-- Node28&#45;&gt;Node10 -->
<g id="edge43_Node000028_Node000010" class="edge">
<title>Node28&#45;&gt;Node10</title>
<g id="a_edge43_Node000028_Node000010"><a xlink:title=" ">
<path fill="none" stroke="#63b8ff" d="M1089.78,-318C1104.15,-321.37 1122.69,-325.9 1139,-330.5 1148.43,-333.16 1158.61,-336.3 1167.84,-339.26"/>
<polygon fill="#63b8ff" stroke="#63b8ff" points="1166.81,-342.61 1177.4,-342.37 1168.97,-335.95 1166.81,-342.61"/>
</a>
</g>
</g>
<!-- Node29 -->
<g id="Node000029" class="node">
<title>Node29</title>
<g id="a_Node000029"><a xlink:href="__Ldtob_8c.html#a7cc858157b66e15c831ad085113729ae" target="_top" xlink:title=" ">
<polygon fill="white" stroke="#666666" points="1224,-228 1175,-228 1175,-209 1224,-209 1224,-228"/>
<text text-anchor="middle" x="1199.5" y="-216" font-family="Helvetica,sans-Serif" font-size="10.00">_Ldtob</text>
</a>
</g>
</g>
<!-- Node28&#45;&gt;Node29 -->
<g id="edge33_Node000028_Node000029" class="edge">
<title>Node28&#45;&gt;Node29</title>
<g id="a_edge33_Node000028_Node000029"><a xlink:title=" ">
<path fill="none" stroke="#63b8ff" d="M1089.58,-310.23C1104.75,-307.88 1124.19,-303.13 1139,-293.5 1160.78,-279.34 1178.15,-254.51 1188.37,-237.32"/>
<polygon fill="#63b8ff" stroke="#63b8ff" points="1191.64,-238.64 1193.54,-228.22 1185.56,-235.18 1191.64,-238.64"/>
</a>
</g>
</g>
<!-- Node35 -->
<g id="Node000035" class="node">
<title>Node35</title>
<g id="a_Node000035"><a xlink:href="__Litob_8c.html#aaaba3b0ab7920d422a61fe9e22600dd0" target="_top" xlink:title=" ">
<polygon fill="white" stroke="#666666" points="1222.5,-322 1176.5,-322 1176.5,-303 1222.5,-303 1222.5,-322"/>
<text text-anchor="middle" x="1199.5" y="-310" font-family="Helvetica,sans-Serif" font-size="10.00">_Litob</text>
</a>
</g>
</g>
<!-- Node28&#45;&gt;Node35 -->
<g id="edge40_Node000028_Node000035" class="edge">
<title>Node28&#45;&gt;Node35</title>
<g id="a_edge40_Node000028_Node000035"><a xlink:title=" ">
<path fill="none" stroke="#63b8ff" d="M1089.59,-312.5C1111.01,-312.5 1142.51,-312.5 1166.13,-312.5"/>
<polygon fill="#63b8ff" stroke="#63b8ff" points="1166.36,-316 1176.36,-312.5 1166.36,-309 1166.36,-316"/>
</a>
</g>
</g>
<!-- Node30 -->
<g id="Node000030" class="node">
<title>Node30</title>
<g id="a_Node000030"><a xlink:href="__Ldtob_8c.html#a2b6c5318b43bab1636bad9113ffb2761" target="_top" xlink:title=" ">
<polygon fill="white" stroke="#666666" points="1320.5,-246 1270.5,-246 1270.5,-227 1320.5,-227 1320.5,-246"/>
<text text-anchor="middle" x="1295.5" y="-234" font-family="Helvetica,sans-Serif" font-size="10.00">_Genld</text>
</a>
</g>
</g>
<!-- Node29&#45;&gt;Node30 -->
<g id="edge34_Node000029_Node000030" class="edge">
<title>Node29&#45;&gt;Node30</title>
<g id="a_edge34_Node000029_Node000030"><a xlink:title=" ">
<path fill="none" stroke="#63b8ff" d="M1224.22,-223.04C1235.16,-225.14 1248.34,-227.66 1260.33,-229.96"/>
<polygon fill="#63b8ff" stroke="#63b8ff" points="1259.98,-233.45 1270.46,-231.9 1261.3,-226.58 1259.98,-233.45"/>
</a>
</g>
</g>
<!-- Node31 -->
<g id="Node000031" class="node">
<title>Node31</title>
<g id="a_Node000031"><a xlink:href="string_8c.html#ad7f1ae1bbb49dece44bda378982a704d" target="_top" xlink:title=" ">
<polygon fill="white" stroke="#666666" points="1426,-284 1367,-284 1367,-265 1426,-265 1426,-284"/>
<text text-anchor="middle" x="1396.5" y="-272" font-family="Helvetica,sans-Serif" font-size="10.00">memcpy</text>
</a>
</g>
</g>
<!-- Node29&#45;&gt;Node31 -->
<g id="edge38_Node000029_Node000031" class="edge">
<title>Node29&#45;&gt;Node31</title>
<g id="a_edge38_Node000029_Node000031"><a xlink:title=" ">
<path fill="none" stroke="#63b8ff" d="M1212.98,-228.09C1224.53,-236.46 1242.5,-248.21 1260,-254.5 1291.45,-265.81 1329.21,-270.73 1356.87,-272.87"/>
<polygon fill="#63b8ff" stroke="#63b8ff" points="1356.72,-276.37 1366.94,-273.56 1357.2,-269.38 1356.72,-276.37"/>
</a>
</g>
</g>
<!-- Node32 -->
<g id="Node000032" class="node">
<title>Node32</title>
<g id="a_Node000032"><a xlink:href="__Ldtob_8c.html#ab7ade9ce60aaa8baa0244b503351d742" target="_top" xlink:title=" ">
<polygon fill="white" stroke="#666666" points="1331,-209 1260,-209 1260,-190 1331,-190 1331,-209"/>
<text text-anchor="middle" x="1295.5" y="-197" font-family="Helvetica,sans-Serif" font-size="10.00">_Ldunscale</text>
</a>
</g>
</g>
<!-- Node29&#45;&gt;Node32 -->
<g id="edge36_Node000029_Node000032" class="edge">
<title>Node29&#45;&gt;Node32</title>
<g id="a_edge36_Node000029_Node000032"><a xlink:title=" ">
<path fill="none" stroke="#63b8ff" d="M1224.22,-213.71C1232.04,-212.12 1241.02,-210.31 1249.88,-208.52"/>
<polygon fill="#63b8ff" stroke="#63b8ff" points="1250.66,-211.93 1259.77,-206.52 1249.28,-205.07 1250.66,-211.93"/>
</a>
</g>
</g>
<!-- Node33 -->
<g id="Node000033" class="node">
<title>Node33</title>
<g id="a_Node000033"><a xlink:href="ldiv_8c.html#a0302920caf64a5fbe1ce0862799d7784" target="_top" xlink:title=" ">
<polygon fill="white" stroke="#666666" points="1313,-172 1278,-172 1278,-153 1313,-153 1313,-172"/>
<text text-anchor="middle" x="1295.5" y="-160" font-family="Helvetica,sans-Serif" font-size="10.00">ldiv</text>
</a>
</g>
</g>
<!-- Node29&#45;&gt;Node33 -->
<g id="edge37_Node000029_Node000033" class="edge">
<title>Node29&#45;&gt;Node33</title>
<g id="a_edge37_Node000029_Node000033"><a xlink:title=" ">
<path fill="none" stroke="#63b8ff" d="M1214.95,-208.77C1226.87,-200.87 1244.3,-189.59 1260,-180.5 1262.87,-178.84 1265.9,-177.16 1268.93,-175.52"/>
<polygon fill="#63b8ff" stroke="#63b8ff" points="1270.63,-178.58 1277.84,-170.82 1267.37,-172.39 1270.63,-178.58"/>
</a>
</g>
</g>
<!-- Node34 -->
<g id="Node000034" class="node">
<title>Node34</title>
<g id="a_Node000034"><a xlink:href="alBnkfNew_8c.html#a96a0200a6b40350e524f536d232ecb53" target="_top" xlink:title=" ">
<polygon fill="white" stroke="#666666" points="1321.5,-135 1269.5,-135 1269.5,-116 1321.5,-116 1321.5,-135"/>
<text text-anchor="middle" x="1295.5" y="-123" font-family="Helvetica,sans-Serif" font-size="10.00">unused</text>
</a>
</g>
</g>
<!-- Node29&#45;&gt;Node34 -->
<g id="edge39_Node000029_Node000034" class="edge">
<title>Node29&#45;&gt;Node34</title>
<g id="a_edge39_Node000029_Node000034"><a xlink:title=" ">
<path fill="none" stroke="#63b8ff" d="M1206.38,-208.66C1216,-193.2 1236.42,-162.98 1260,-143.5 1261.32,-142.41 1262.73,-141.35 1264.18,-140.34"/>
<polygon fill="#63b8ff" stroke="#63b8ff" points="1266.13,-143.24 1272.83,-135.03 1262.47,-137.28 1266.13,-143.24"/>
</a>
</g>
</g>
<!-- Node30&#45;&gt;Node31 -->
<g id="edge35_Node000030_Node000031" class="edge">
<title>Node30&#45;&gt;Node31</title>
<g id="a_edge35_Node000030_Node000031"><a xlink:title=" ">
<path fill="none" stroke="#63b8ff" d="M1320.72,-245.8C1332.88,-250.46 1347.82,-256.2 1361.15,-261.31"/>
<polygon fill="#63b8ff" stroke="#63b8ff" points="1359.91,-264.59 1370.5,-264.9 1362.42,-258.05 1359.91,-264.59"/>
</a>
</g>
</g>
<!-- Node35&#45;&gt;Node31 -->
<g id="edge42_Node000035_Node000031" class="edge">
<title>Node35&#45;&gt;Node31</title>
<g id="a_edge42_Node000035_Node000031"><a xlink:title=" ">
<path fill="none" stroke="#63b8ff" d="M1222.93,-322.01C1249.52,-331.85 1294.79,-344.03 1331,-330.5 1351.48,-322.85 1369.76,-305.44 1381.58,-292.05"/>
<polygon fill="#63b8ff" stroke="#63b8ff" points="1384.3,-294.26 1388.07,-284.36 1378.95,-289.74 1384.3,-294.26"/>
</a>
</g>
</g>
<!-- Node36 -->
<g id="Node000036" class="node">
<title>Node36</title>
<g id="a_Node000036"><a xlink:href="ldiv_8c.html#a5b23c3639f11980dca762c5f1d74f339" target="_top" xlink:title=" ">
<polygon fill="white" stroke="#666666" points="1314.5,-322 1276.5,-322 1276.5,-303 1314.5,-303 1314.5,-322"/>
<text text-anchor="middle" x="1295.5" y="-310" font-family="Helvetica,sans-Serif" font-size="10.00">lldiv</text>
</a>
</g>
</g>
<!-- Node35&#45;&gt;Node36 -->
<g id="edge41_Node000035_Node000036" class="edge">
<title>Node35&#45;&gt;Node36</title>
<g id="a_edge41_Node000035_Node000036"><a xlink:title=" ">
<path fill="none" stroke="#63b8ff" d="M1222.78,-312.5C1235.84,-312.5 1252.47,-312.5 1266.43,-312.5"/>
<polygon fill="#63b8ff" stroke="#63b8ff" points="1266.47,-316 1276.47,-312.5 1266.47,-309 1266.47,-316"/>
</a>
</g>
</g>
<!-- Node39&#45;&gt;Node39 -->
<g id="edge49_Node000039_Node000039" class="edge">
<title>Node39&#45;&gt;Node39</title>
<g id="a_edge49_Node000039_Node000039"><a xlink:title=" ">
<path fill="none" stroke="#63b8ff" d="M658.83,-63.08C644.89,-71.73 654.44,-81 687.5,-81 710.23,-81 721.85,-76.62 722.36,-71.07"/>
<polygon fill="#63b8ff" stroke="#63b8ff" points="725.06,-68.84 716.17,-63.08 719.53,-73.13 725.06,-68.84"/>
</a>
</g>
</g>
<!-- Node40 -->
<g id="Node000040" class="node">
<title>Node40</title>
<g id="a_Node000040"><a xlink:href="FrameInterpolation_8cpp.html#a5fbd67ef553452903cf553b9c224fa76" target="_top" xlink:title=" ">
<polygon fill="white" stroke="#666666" points="948,-67.5 820,-67.5 820,-37.5 948,-37.5 948,-67.5"/>
<text text-anchor="start" x="828" y="-55.5" font-family="Helvetica,sans-Serif" font-size="10.00">FrameInterpolation</text>
<text text-anchor="middle" x="884" y="-44.5" font-family="Helvetica,sans-Serif" font-size="10.00">_Record_SetTextMatrix</text>
</a>
</g>
</g>
<!-- Node39&#45;&gt;Node40 -->
<g id="edge47_Node000039_Node000040" class="edge">
<title>Node39&#45;&gt;Node40</title>
<g id="a_edge47_Node000039_Node000040"><a xlink:title=" ">
<path fill="none" stroke="#63b8ff" d="M729.75,-53.29C752.99,-53.17 782.69,-53.02 809.75,-52.88"/>
<polygon fill="#63b8ff" stroke="#63b8ff" points="810,-56.38 819.98,-52.82 809.96,-49.38 810,-56.38"/>
</a>
</g>
</g>
<!-- Node40&#45;&gt;Node17 -->
<g id="edge48_Node000040_Node000017" class="edge">
<title>Node40&#45;&gt;Node17</title>
<g id="a_edge48_Node000040_Node000017"><a xlink:title=" ">
<path fill="none" stroke="#63b8ff" d="M928.21,-67.51C958.21,-77.93 997.76,-91.67 1026.34,-101.59"/>
<polygon fill="#63b8ff" stroke="#63b8ff" points="1025.37,-104.96 1035.96,-104.93 1027.66,-98.35 1025.37,-104.96"/>
</a>
</g>
</g>
</g>
</svg>

<g id="navigator" transform="translate(0 0)" fill="#404254">
  <rect fill="#f2f5e9" fill-opacity="0.5" stroke="#606060" stroke-width=".5" x="0" y="0" width="60" height="60"/>
  <use id="zoomplus" xlink:href="#zoomPlus" x="17" y="9" onmousedown="handleZoom(evt,'in')"/>
  <use id="zoomminus" xlink:href="#zoomMin" x="42" y="9" onmousedown="handleZoom(evt,'out')"/>
  <use id="reset" xlink:href="#resetDef" x="30" y="36" onmousedown="handleReset()"/>
   <use id="arrowup" xlink:href="#arrowUp" x="0" y="0" onmousedown="handlePan(0,-1)"/>
  <use id="arrowright" xlink:href="#arrowRight" x="0" y="0" onmousedown="handlePan(1,0)"/>
  <use id="arrowdown" xlink:href="#arrowDown" x="0" y="0" onmousedown="handlePan(0,1)"/>
  <use id="arrowleft" xlink:href="#arrowLeft" x="0" y="0" onmousedown="handlePan(-1,0)"/>
</g>
<svg viewBox="0 0 15 15" width="100%" height="30px" preserveAspectRatio="xMaxYMin meet">
 <g id="arrow_out" transform="scale(0.3 0.3)">
  <a xlink:href="menu__items_8h_a9340467592455937f469627eae836583_cgraph_org.svg" target="_base">
   <rect id="button" ry="5" rx="5" y="6" x="6" height="38" width="38"
        fill="#f2f5e9" fill-opacity="0.5" stroke="#606060" stroke-width="1.0"/>
   <path id="arrow"
     d="M 11.500037,31.436501 C 11.940474,20.09759 22.043105,11.32322 32.158766,21.979434 L 37.068811,17.246167 C 37.068811,17.246167 37.088388,32 37.088388,32 L 22.160133,31.978069 C 22.160133,31.978069 26.997745,27.140456 26.997745,27.140456 C 18.528582,18.264221 13.291696,25.230495 11.500037,31.436501 z"
     style="fill:#404040;"/>
  </a>
 </g>
</svg>

<style type='text/css'>
<![CDATA[
[data-mouse-over-selected='false'] { opacity: 0.7; }
[data-mouse-over-selected='true']  { opacity: 1.0; }
]]>
</style>
<script type="application/ecmascript"><![CDATA[
document.addEventListener('DOMContentLoaded', (event) => {
  highlightEdges();
  highlightAdjacentNodes();
});
]]></script>
</svg>
