<?xml version="1.0" encoding="UTF-8" standalone="no"?>
<!DOCTYPE svg PUBLIC "-//W3C//DTD SVG 1.1//EN"
 "http://www.w3.org/Graphics/SVG/1.1/DTD/svg11.dtd">
<!-- Generated by graphviz version 2.43.0 (0)
 -->
<!-- Title: func_8009D958 Pages: 1 -->
<!--zoomable 1195 -->

<svg id="main" version="1.1" xmlns="http://www.w3.org/2000/svg" xmlns:xlink="http://www.w3.org/1999/xlink" xml:space="preserve" onload="init(evt)">

<style type="text/css"><![CDATA[
.node, .edge {opacity: 0.7;}
.node.selected, .edge.selected {opacity: 1;}
.edge:hover path { stroke: red; }
.edge:hover polygon { stroke: red; fill: red; }
]]></style>

<defs>
  <circle id="rim" cx="0" cy="0" r="7"/>
  <circle id="rim2" cx="0" cy="0" r="3.5"/>
  <g id="zoomPlus">
    <use xlink:href="#rim" fill="#404040"><set attributeName="fill" to="#808080" begin="zoomplus.mouseover" end="zoomplus.mouseout"/></use>
    <path d="M-4,0h8M0,-4v8" fill="none" stroke="white" stroke-width="1.5" pointer-events="none"/>
  </g>
  <g id="zoomMin">
    <use xlink:href="#rim" fill="#404040"><set attributeName="fill" to="#808080" begin="zoomminus.mouseover" end="zoomminus.mouseout"/></use>
    <path d="M-4,0h8" fill="none" stroke="white" stroke-width="1.5" pointer-events="none"/>
  </g>
  <g id="arrowUp" transform="translate(30 24)">
    <use xlink:href="#rim"/>
    <path pointer-events="none" fill="none" stroke="white" stroke-width="1.5" d="M0,-3.0v7 M-2.5,-0.5L0,-3.0L2.5,-0.5"/>
  </g>
  <g id="arrowRight" transform="rotate(90) translate(36 -43)">
    <use xlink:href="#rim"/>
    <path pointer-events="none" fill="none" stroke="white" stroke-width="1.5" d="M0,-3.0v7 M-2.5,-0.5L0,-3.0L2.5,-0.5"/>
  </g>
  <g id="arrowDown" transform="rotate(180) translate(-30 -48)">
    <use xlink:href="#rim"/>
    <path pointer-events="none" fill="none" stroke="white" stroke-width="1.5" d="M0,-3.0v7 M-2.5,-0.5L0,-3.0L2.5,-0.5"/>
  </g>
  <g id="arrowLeft" transform="rotate(270) translate(-36 17)">
    <use xlink:href="#rim"/>
    <path pointer-events="none" fill="none" stroke="white" stroke-width="1.5" d="M0,-3.0v7 M-2.5,-0.5L0,-3.0L2.5,-0.5"/>
  </g>
  <g id="resetDef">
    <use xlink:href="#rim2" fill="#404040"><set attributeName="fill" to="#808080" begin="reset.mouseover" end="reset.mouseout"/></use>
  </g>
</defs>
<script type="application/ecmascript">
var viewWidth = 1119;
var viewHeight = 1195;
var sectionId = 'dynsection-183';
</script>
<script type="application/ecmascript" xlink:href="svg.min.js"/>
<svg id="graph" class="graph">
<g id="viewport">
<title>func_8009D958</title>
<!-- Node1 -->
<g id="Node000001" class="node">
<title>Node1</title>
<g id="a_Node000001"><a xlink:title=" ">
<polygon fill="#999999" stroke="#666666" points="92,-1038 0,-1038 0,-1019 92,-1019 92,-1038"/>
<text text-anchor="middle" x="46" y="-1026" font-family="Helvetica,sans-Serif" font-size="10.00">func_8009D958</text>
</a>
</g>
</g>
<!-- Node2 -->
<g id="Node000002" class="node">
<title>Node2</title>
<g id="a_Node000002"><a xlink:href="menu__items_8c.html#a8e60e8fa498c04884deba6d2e5bb4ffe" target="_top" xlink:title=" ">
<polygon fill="white" stroke="#666666" points="221,-1038 128,-1038 128,-1019 221,-1019 221,-1038"/>
<text text-anchor="middle" x="174.5" y="-1026" font-family="Helvetica,sans-Serif" font-size="10.00">func_8009D77C</text>
</a>
</g>
</g>
<!-- Node1&#45;&gt;Node2 -->
<g id="edge1_Node000001_Node000002" class="edge">
<title>Node1&#45;&gt;Node2</title>
<g id="a_edge1_Node000001_Node000002"><a xlink:title=" ">
<path fill="none" stroke="#63b8ff" d="M92.31,-1028.5C100.48,-1028.5 109.08,-1028.5 117.5,-1028.5"/>
<polygon fill="#63b8ff" stroke="#63b8ff" points="117.65,-1032 127.65,-1028.5 117.65,-1025 117.65,-1032"/>
</a>
</g>
</g>
<!-- Node3 -->
<g id="Node000003" class="node">
<title>Node3</title>
<g id="a_Node000003"><a xlink:href="menu__items_8c.html#a966fabbb659fa5fb95a5333baecbd50d" target="_top" xlink:title=" ">
<polygon fill="white" stroke="#666666" points="366.5,-1110 274.5,-1110 274.5,-1091 366.5,-1091 366.5,-1110"/>
<text text-anchor="middle" x="320.5" y="-1098" font-family="Helvetica,sans-Serif" font-size="10.00">draw_box_wide</text>
</a>
</g>
</g>
<!-- Node2&#45;&gt;Node3 -->
<g id="edge2_Node000002_Node000003" class="edge">
<title>Node2&#45;&gt;Node3</title>
<g id="a_edge2_Node000002_Node000003"><a xlink:title=" ">
<path fill="none" stroke="#63b8ff" d="M194.62,-1038.06C219.37,-1050.43 262.68,-1072.09 291.23,-1086.37"/>
<polygon fill="#63b8ff" stroke="#63b8ff" points="289.79,-1089.56 300.3,-1090.9 292.92,-1083.3 289.79,-1089.56"/>
</a>
</g>
</g>
<!-- Node8 -->
<g id="Node000008" class="node">
<title>Node8</title>
<g id="a_Node000008"><a xlink:href="Engine_8cpp.html#afc8b077c3a02d35419cae70c83942941" target="_top" xlink:title=" ">
<polygon fill="white" stroke="#666666" points="836,-1075 663,-1075 663,-1056 836,-1056 836,-1075"/>
<text text-anchor="middle" x="749.5" y="-1063" font-family="Helvetica,sans-Serif" font-size="10.00">OTRGetDimensionFromLeftEdge</text>
</a>
</g>
</g>
<!-- Node2&#45;&gt;Node8 -->
<g id="edge50_Node000002_Node000008" class="edge">
<title>Node2&#45;&gt;Node8</title>
<g id="a_edge50_Node000002_Node000008"><a xlink:title=" ">
<path fill="none" stroke="#63b8ff" d="M221.01,-1029.18C302,-1030.7 476.41,-1035.32 623,-1048.5 640.3,-1050.06 658.87,-1052.27 676.29,-1054.59"/>
<polygon fill="#63b8ff" stroke="#63b8ff" points="676.01,-1058.08 686.39,-1055.96 676.95,-1051.15 676.01,-1058.08"/>
</a>
</g>
</g>
<!-- Node12 -->
<g id="Node000012" class="node">
<title>Node12</title>
<g id="a_Node000012"><a xlink:href="Engine_8cpp.html#a17495ab17d6e9c65b2a76e3c88a7f718" target="_top" xlink:title=" ">
<polygon fill="white" stroke="#666666" points="840,-1038 659,-1038 659,-1019 840,-1019 840,-1038"/>
<text text-anchor="middle" x="749.5" y="-1026" font-family="Helvetica,sans-Serif" font-size="10.00">OTRGetDimensionFromRightEdge</text>
</a>
</g>
</g>
<!-- Node2&#45;&gt;Node12 -->
<g id="edge51_Node000002_Node000012" class="edge">
<title>Node2&#45;&gt;Node12</title>
<g id="a_edge51_Node000002_Node000012"><a xlink:title=" ">
<path fill="none" stroke="#63b8ff" d="M221.01,-1019.28C232.69,-1017.3 245.27,-1015.5 257,-1014.5 419.08,-1000.68 460.58,-1005.47 623,-1014.5 636.74,-1015.26 651.29,-1016.49 665.42,-1017.92"/>
<polygon fill="#63b8ff" stroke="#63b8ff" points="665.31,-1021.43 675.62,-1018.98 666.03,-1014.46 665.31,-1021.43"/>
</a>
</g>
</g>
<!-- Node14 -->
<g id="Node000014" class="node">
<title>Node14</title>
<g id="a_Node000014"><a xlink:href="menu__items_8c.html#a148f5b740c006805158fce6122247546" target="_top" xlink:title=" ">
<polygon fill="white" stroke="#666666" points="384,-1158.5 257,-1158.5 257,-1128.5 384,-1128.5 384,-1158.5"/>
<text text-anchor="start" x="265" y="-1146.5" font-family="Helvetica,sans-Serif" font-size="10.00">draw_box_wide_pause</text>
<text text-anchor="middle" x="320.5" y="-1135.5" font-family="Helvetica,sans-Serif" font-size="10.00">_background</text>
</a>
</g>
</g>
<!-- Node2&#45;&gt;Node14 -->
<g id="edge14_Node000002_Node000014" class="edge">
<title>Node2&#45;&gt;Node14</title>
<g id="a_edge14_Node000002_Node000014"><a xlink:title=" ">
<path fill="none" stroke="#63b8ff" d="M181.76,-1038.1C194.09,-1056.34 223.3,-1096.27 257,-1119.5 259.14,-1120.97 261.37,-1122.37 263.68,-1123.69"/>
<polygon fill="#63b8ff" stroke="#63b8ff" points="262.35,-1126.95 272.84,-1128.45 265.58,-1120.74 262.35,-1126.95"/>
</a>
</g>
</g>
<!-- Node15 -->
<g id="Node000015" class="node">
<title>Node15</title>
<g id="a_Node000015"><a xlink:href="menu__items_8c.html#a56cfa922219f124d2b12c0f0f7e3cd9f" target="_top" xlink:title=" ">
<polygon fill="white" stroke="#666666" points="366.5,-518 274.5,-518 274.5,-499 366.5,-499 366.5,-518"/>
<text text-anchor="middle" x="320.5" y="-506" font-family="Helvetica,sans-Serif" font-size="10.00">func_8009CE64</text>
</a>
</g>
</g>
<!-- Node2&#45;&gt;Node15 -->
<g id="edge17_Node000002_Node000015" class="edge">
<title>Node2&#45;&gt;Node15</title>
<g id="a_edge17_Node000002_Node000015"><a xlink:title=" ">
<path fill="none" stroke="#63b8ff" d="M178.25,-1018.58C195.64,-955.76 290.49,-613.26 314.15,-527.82"/>
<polygon fill="#63b8ff" stroke="#63b8ff" points="317.54,-528.68 316.84,-518.11 310.8,-526.81 317.54,-528.68"/>
</a>
</g>
</g>
<!-- Node4 -->
<g id="Node000004" class="node">
<title>Node4</title>
<g id="a_Node000004"><a xlink:href="GBIMiddleware_8cpp.html#a4ecc44e3c6f1ca5a6b4a20c41d3bd2d2" target="_top" xlink:title=" ">
<polygon fill="white" stroke="#666666" points="566,-1187 477,-1187 477,-1168 566,-1168 566,-1187"/>
<text text-anchor="middle" x="521.5" y="-1175" font-family="Helvetica,sans-Serif" font-size="10.00">gSPDisplayList</text>
</a>
</g>
</g>
<!-- Node3&#45;&gt;Node4 -->
<g id="edge3_Node000003_Node000004" class="edge">
<title>Node3&#45;&gt;Node4</title>
<g id="a_edge3_Node000003_Node000004"><a xlink:title=" ">
<path fill="none" stroke="#63b8ff" d="M364.23,-1110.08C371.13,-1112.57 377.97,-1115.67 384,-1119.5 404.18,-1132.34 399.1,-1147.87 420,-1159.5 434.1,-1167.35 450.89,-1171.89 466.67,-1174.48"/>
<polygon fill="#63b8ff" stroke="#63b8ff" points="466.46,-1177.99 476.85,-1175.92 467.44,-1171.06 466.46,-1177.99"/>
</a>
</g>
</g>
<!-- Node7 -->
<g id="Node000007" class="node">
<title>Node7</title>
<g id="a_Node000007"><a xlink:href="Engine_8cpp.html#af8ad96e953b60eb630f5261745844e45" target="_top" xlink:title=" ">
<polygon fill="white" stroke="#666666" points="619,-1113 424,-1113 424,-1094 619,-1094 619,-1113"/>
<text text-anchor="middle" x="521.5" y="-1101" font-family="Helvetica,sans-Serif" font-size="10.00">OTRGetRectDimensionFromLeftEdge</text>
</a>
</g>
</g>
<!-- Node3&#45;&gt;Node7 -->
<g id="edge6_Node000003_Node000007" class="edge">
<title>Node3&#45;&gt;Node7</title>
<g id="a_edge6_Node000003_Node000007"><a xlink:title=" ">
<path fill="none" stroke="#63b8ff" d="M366.66,-1101.18C380.81,-1101.39 397.07,-1101.64 413.61,-1101.89"/>
<polygon fill="#63b8ff" stroke="#63b8ff" points="413.87,-1105.39 423.93,-1102.04 413.98,-1098.39 413.87,-1105.39"/>
</a>
</g>
</g>
<!-- Node11 -->
<g id="Node000011" class="node">
<title>Node11</title>
<g id="a_Node000011"><a xlink:href="Engine_8cpp.html#a6a4636ed76942d3a15e97f85ff3196fb" target="_top" xlink:title=" ">
<polygon fill="white" stroke="#666666" points="623,-1076 420,-1076 420,-1057 623,-1057 623,-1076"/>
<text text-anchor="middle" x="521.5" y="-1064" font-family="Helvetica,sans-Serif" font-size="10.00">OTRGetRectDimensionFromRightEdge</text>
</a>
</g>
</g>
<!-- Node3&#45;&gt;Node11 -->
<g id="edge10_Node000003_Node000011" class="edge">
<title>Node3&#45;&gt;Node11</title>
<g id="a_edge10_Node000003_Node000011"><a xlink:title=" ">
<path fill="none" stroke="#63b8ff" d="M366.66,-1092.78C392.71,-1088.33 425.94,-1082.66 454.84,-1077.72"/>
<polygon fill="#63b8ff" stroke="#63b8ff" points="455.6,-1081.14 464.86,-1076.01 454.42,-1074.24 455.6,-1081.14"/>
</a>
</g>
</g>
<!-- Node13 -->
<g id="Node000013" class="node">
<title>Node13</title>
<g id="a_Node000013"><a xlink:href="menu__items_8c.html#a2341569d8bfc9b8aac7d5dab7933c999" target="_top" xlink:title=" ">
<polygon fill="white" stroke="#666666" points="561.5,-1150 481.5,-1150 481.5,-1131 561.5,-1131 561.5,-1150"/>
<text text-anchor="middle" x="521.5" y="-1138" font-family="Helvetica,sans-Serif" font-size="10.00">swap_values</text>
</a>
</g>
</g>
<!-- Node3&#45;&gt;Node13 -->
<g id="edge13_Node000003_Node000013" class="edge">
<title>Node3&#45;&gt;Node13</title>
<g id="a_edge13_Node000003_Node000013"><a xlink:title=" ">
<path fill="none" stroke="#63b8ff" d="M362.63,-1110.1C380.26,-1114.1 401.1,-1118.7 420,-1122.5 436.69,-1125.86 455.01,-1129.23 471.38,-1132.13"/>
<polygon fill="#63b8ff" stroke="#63b8ff" points="470.84,-1135.59 481.29,-1133.88 472.05,-1128.7 470.84,-1135.59"/>
</a>
</g>
</g>
<!-- Node5 -->
<g id="Node000005" class="node">
<title>Node5</title>
<g id="a_Node000005"><a xlink:href="Engine_8cpp.html#a223c8bc63f228dc11177515e38eff2db" target="_top" xlink:title=" ">
<polygon fill="white" stroke="#666666" points="824,-1187 675,-1187 675,-1168 824,-1168 824,-1187"/>
<text text-anchor="middle" x="749.5" y="-1175" font-family="Helvetica,sans-Serif" font-size="10.00">GameEngine_OTRSigCheck</text>
</a>
</g>
</g>
<!-- Node4&#45;&gt;Node5 -->
<g id="edge4_Node000004_Node000005" class="edge">
<title>Node4&#45;&gt;Node5</title>
<g id="a_edge4_Node000004_Node000005"><a xlink:title=" ">
<path fill="none" stroke="#63b8ff" d="M566.08,-1177.5C593.97,-1177.5 631.09,-1177.5 664.56,-1177.5"/>
<polygon fill="#63b8ff" stroke="#63b8ff" points="664.81,-1181 674.81,-1177.5 664.81,-1174 664.81,-1181"/>
</a>
</g>
</g>
<!-- Node6 -->
<g id="Node000006" class="node">
<title>Node6</title>
<g id="a_Node000006"><a xlink:href="string_8c.html#a008e171a518fe0e0352f31b245e03875" target="_top" xlink:title=" ">
<polygon fill="white" stroke="#666666" points="954.5,-1187 910.5,-1187 910.5,-1168 954.5,-1168 954.5,-1187"/>
<text text-anchor="middle" x="932.5" y="-1175" font-family="Helvetica,sans-Serif" font-size="10.00">strlen</text>
</a>
</g>
</g>
<!-- Node5&#45;&gt;Node6 -->
<g id="edge5_Node000005_Node000006" class="edge">
<title>Node5&#45;&gt;Node6</title>
<g id="a_edge5_Node000005_Node000006"><a xlink:title=" ">
<path fill="none" stroke="#63b8ff" d="M824.12,-1177.5C850.62,-1177.5 879.13,-1177.5 900.11,-1177.5"/>
<polygon fill="#63b8ff" stroke="#63b8ff" points="900.34,-1181 910.34,-1177.5 900.34,-1174 900.34,-1181"/>
</a>
</g>
</g>
<!-- Node7&#45;&gt;Node8 -->
<g id="edge7_Node000007_Node000008" class="edge">
<title>Node7&#45;&gt;Node8</title>
<g id="a_edge7_Node000007_Node000008"><a xlink:title=" ">
<path fill="none" stroke="#63b8ff" d="M579.24,-1093.96C610.4,-1088.72 649.23,-1082.19 681.84,-1076.71"/>
<polygon fill="#63b8ff" stroke="#63b8ff" points="682.46,-1080.15 691.74,-1075.04 681.3,-1073.25 682.46,-1080.15"/>
</a>
</g>
</g>
<!-- Node9 -->
<g id="Node000009" class="node">
<title>Node9</title>
<g id="a_Node000009"><a xlink:href="Engine_8cpp.html#a130aa97f1c7fae24f3d23f8126e7506f" target="_top" xlink:title=" ">
<polygon fill="white" stroke="#666666" points="989,-1056 876,-1056 876,-1037 989,-1037 989,-1056"/>
<text text-anchor="middle" x="932.5" y="-1044" font-family="Helvetica,sans-Serif" font-size="10.00">OTRGetAspectRatio</text>
</a>
</g>
</g>
<!-- Node8&#45;&gt;Node9 -->
<g id="edge8_Node000008_Node000009" class="edge">
<title>Node8&#45;&gt;Node9</title>
<g id="a_edge8_Node000008_Node000009"><a xlink:title=" ">
<path fill="none" stroke="#63b8ff" d="M836.23,-1056.5C846.09,-1055.47 856.03,-1054.42 865.58,-1053.42"/>
<polygon fill="#63b8ff" stroke="#63b8ff" points="866.18,-1056.88 875.76,-1052.35 865.45,-1049.91 866.18,-1056.88"/>
</a>
</g>
</g>
<!-- Node10 -->
<g id="Node000010" class="node">
<title>Node10</title>
<g id="a_Node000010"><a xlink:href="Engine_8cpp.html#a29357c424545be61af4bd28d84fd344a" target="_top" xlink:title=" ">
<polygon fill="white" stroke="#666666" points="1111,-1056 1025,-1056 1025,-1037 1111,-1037 1111,-1056"/>
<text text-anchor="middle" x="1068" y="-1044" font-family="Helvetica,sans-Serif" font-size="10.00">GetInterpreter</text>
</a>
</g>
</g>
<!-- Node9&#45;&gt;Node10 -->
<g id="edge9_Node000009_Node000010" class="edge">
<title>Node9&#45;&gt;Node10</title>
<g id="a_edge9_Node000009_Node000010"><a xlink:title=" ">
<path fill="none" stroke="#63b8ff" d="M989.34,-1046.5C997.68,-1046.5 1006.26,-1046.5 1014.52,-1046.5"/>
<polygon fill="#63b8ff" stroke="#63b8ff" points="1014.79,-1050 1024.79,-1046.5 1014.79,-1043 1014.79,-1050"/>
</a>
</g>
</g>
<!-- Node11&#45;&gt;Node12 -->
<g id="edge11_Node000011_Node000012" class="edge">
<title>Node11&#45;&gt;Node12</title>
<g id="a_edge11_Node000011_Node000012"><a xlink:title=" ">
<path fill="none" stroke="#63b8ff" d="M579.24,-1056.96C610.4,-1051.72 649.23,-1045.19 681.84,-1039.71"/>
<polygon fill="#63b8ff" stroke="#63b8ff" points="682.46,-1043.15 691.74,-1038.04 681.3,-1036.25 682.46,-1043.15"/>
</a>
</g>
</g>
<!-- Node12&#45;&gt;Node9 -->
<g id="edge12_Node000012_Node000009" class="edge">
<title>Node12&#45;&gt;Node9</title>
<g id="a_edge12_Node000012_Node000009"><a xlink:title=" ">
<path fill="none" stroke="#63b8ff" d="M840.2,-1037.42C848.8,-1038.28 857.4,-1039.13 865.71,-1039.96"/>
<polygon fill="#63b8ff" stroke="#63b8ff" points="865.37,-1043.44 875.67,-1040.95 866.06,-1036.48 865.37,-1043.44"/>
</a>
</g>
</g>
<!-- Node14&#45;&gt;Node4 -->
<g id="edge15_Node000014_Node000004" class="edge">
<title>Node14&#45;&gt;Node4</title>
<g id="a_edge15_Node000014_Node000004"><a xlink:title=" ">
<path fill="none" stroke="#63b8ff" d="M384.19,-1154.21C410.63,-1158.73 441.1,-1163.93 466.51,-1168.28"/>
<polygon fill="#63b8ff" stroke="#63b8ff" points="466.26,-1171.78 476.71,-1170.02 467.44,-1164.88 466.26,-1171.78"/>
</a>
</g>
</g>
<!-- Node14&#45;&gt;Node13 -->
<g id="edge16_Node000014_Node000013" class="edge">
<title>Node14&#45;&gt;Node13</title>
<g id="a_edge16_Node000014_Node000013"><a xlink:title=" ">
<path fill="none" stroke="#63b8ff" d="M384.19,-1142.55C412.25,-1142.13 444.86,-1141.64 471.15,-1141.24"/>
<polygon fill="#63b8ff" stroke="#63b8ff" points="471.31,-1144.74 481.25,-1141.09 471.2,-1137.74 471.31,-1144.74"/>
</a>
</g>
</g>
<!-- Node16 -->
<g id="Node000016" class="node">
<title>Node16</title>
<g id="a_Node000016"><a xlink:href="Game_8cpp.html#a6b67bd0fcac20b25c70bc3a90b7bfde4" target="_top" xlink:title=" ">
<polygon fill="white" stroke="#666666" points="557.5,-296 485.5,-296 485.5,-277 557.5,-277 557.5,-296"/>
<text text-anchor="middle" x="521.5" y="-284" font-family="Helvetica,sans-Serif" font-size="10.00">CM_SetCup</text>
</a>
</g>
</g>
<!-- Node15&#45;&gt;Node16 -->
<g id="edge18_Node000015_Node000016" class="edge">
<title>Node15&#45;&gt;Node16</title>
<g id="a_edge18_Node000015_Node000016"><a xlink:title=" ">
<path fill="none" stroke="#63b8ff" d="M323.01,-498.88C328.73,-465.78 352.33,-355.85 420,-304.5 435.61,-292.66 456.47,-287.69 475.15,-285.86"/>
<polygon fill="#63b8ff" stroke="#63b8ff" points="475.52,-289.34 485.25,-285.14 475.03,-282.36 475.52,-289.34"/>
</a>
</g>
</g>
<!-- Node17 -->
<g id="Node000017" class="node">
<title>Node17</title>
<g id="a_Node000017"><a xlink:href="menu__items_8c.html#a1afef788f26591e1ca9153ab8f9559db" target="_top" xlink:title=" ">
<polygon fill="white" stroke="#666666" points="572,-259 471,-259 471,-240 572,-240 572,-259"/>
<text text-anchor="middle" x="521.5" y="-247" font-family="Helvetica,sans-Serif" font-size="10.00">find_menu_items</text>
</a>
</g>
</g>
<!-- Node15&#45;&gt;Node17 -->
<g id="edge19_Node000015_Node000017" class="edge">
<title>Node15&#45;&gt;Node17</title>
<g id="a_edge19_Node000015_Node000017"><a xlink:title=" ">
<path fill="none" stroke="#63b8ff" d="M322.25,-498.75C325.67,-461.86 343.03,-329.74 420,-267.5 431.53,-258.17 446.27,-253.02 460.88,-250.31"/>
<polygon fill="#63b8ff" stroke="#63b8ff" points="461.56,-253.75 470.93,-248.8 460.52,-246.82 461.56,-253.75"/>
</a>
</g>
</g>
<!-- Node18 -->
<g id="Node000018" class="node">
<title>Node18</title>
<g id="a_Node000018"><a xlink:href="code__80005FD0_8c.html#a7fc44af1268e58cc195aeab08726c3cd" target="_top" xlink:title=" ">
<polygon fill="white" stroke="#666666" points="567,-222 476,-222 476,-203 567,-203 567,-222"/>
<text text-anchor="middle" x="521.5" y="-210" font-family="Helvetica,sans-Serif" font-size="10.00">func_8000F124</text>
</a>
</g>
</g>
<!-- Node15&#45;&gt;Node18 -->
<g id="edge20_Node000015_Node000018" class="edge">
<title>Node15&#45;&gt;Node18</title>
<g id="a_edge20_Node000015_Node000018"><a xlink:title=" ">
<path fill="none" stroke="#63b8ff" d="M321.66,-498.98C322.91,-459.1 333.33,-304.06 420,-230.5 432.65,-219.77 449.48,-214.48 465.74,-212.08"/>
<polygon fill="#63b8ff" stroke="#63b8ff" points="466.21,-215.55 475.75,-210.94 465.42,-208.6 466.21,-215.55"/>
</a>
</g>
</g>
<!-- Node21 -->
<g id="Node000021" class="node">
<title>Node21</title>
<g id="a_Node000021"><a xlink:href="menu__items_8c.html#a5a8e55be1315ed840571d9a15fb3d25d" target="_top" xlink:title=" ">
<polygon fill="white" stroke="#666666" points="567.5,-185 475.5,-185 475.5,-166 567.5,-166 567.5,-185"/>
<text text-anchor="middle" x="521.5" y="-173" font-family="Helvetica,sans-Serif" font-size="10.00">func_8009CE1C</text>
</a>
</g>
</g>
<!-- Node15&#45;&gt;Node21 -->
<g id="edge23_Node000015_Node000021" class="edge">
<title>Node15&#45;&gt;Node21</title>
<g id="a_edge23_Node000015_Node000021"><a xlink:title=" ">
<path fill="none" stroke="#63b8ff" d="M321.22,-498.94C320.51,-455.89 323.72,-278.37 420,-193.5 432.39,-182.58 449.07,-177.22 465.28,-174.83"/>
<polygon fill="#63b8ff" stroke="#63b8ff" points="465.73,-178.3 475.27,-173.7 464.94,-171.35 465.73,-178.3"/>
</a>
</g>
</g>
<!-- Node23 -->
<g id="Node000023" class="node">
<title>Node23</title>
<g id="a_Node000023"><a xlink:href="race__logic_8c.html#a53decb718a29b1c4910cf1f5bada018f" target="_top" xlink:title=" ">
<polygon fill="white" stroke="#666666" points="567,-148 476,-148 476,-129 567,-129 567,-148"/>
<text text-anchor="middle" x="521.5" y="-136" font-family="Helvetica,sans-Serif" font-size="10.00">func_80290338</text>
</a>
</g>
</g>
<!-- Node15&#45;&gt;Node23 -->
<g id="edge25_Node000015_Node000023" class="edge">
<title>Node15&#45;&gt;Node23</title>
<g id="a_edge25_Node000015_Node000023"><a xlink:title=" ">
<path fill="none" stroke="#63b8ff" d="M322.81,-498.87C330,-447.41 366.34,-205.26 420,-156.5 432.38,-145.25 449.3,-139.84 465.73,-137.51"/>
<polygon fill="#63b8ff" stroke="#63b8ff" points="466.27,-140.97 475.84,-136.43 465.53,-134.01 466.27,-140.97"/>
</a>
</g>
</g>
<!-- Node24 -->
<g id="Node000024" class="node">
<title>Node24</title>
<g id="a_Node000024"><a xlink:href="race__logic_8c.html#a356c21937c0221ceae8f34442bb2e820" target="_top" xlink:title=" ">
<polygon fill="white" stroke="#666666" points="567,-111 476,-111 476,-92 567,-92 567,-111"/>
<text text-anchor="middle" x="521.5" y="-99" font-family="Helvetica,sans-Serif" font-size="10.00">func_80290360</text>
</a>
</g>
</g>
<!-- Node15&#45;&gt;Node24 -->
<g id="edge26_Node000015_Node000024" class="edge">
<title>Node15&#45;&gt;Node24</title>
<g id="a_edge26_Node000015_Node000024"><a xlink:title=" ">
<path fill="none" stroke="#63b8ff" d="M322.53,-498.97C328.58,-444.59 361.38,-174.11 420,-119.5 432.3,-108.04 449.27,-102.6 465.77,-100.3"/>
<polygon fill="#63b8ff" stroke="#63b8ff" points="466.36,-103.75 475.94,-99.24 465.63,-96.79 466.36,-103.75"/>
</a>
</g>
</g>
<!-- Node25 -->
<g id="Node000025" class="node">
<title>Node25</title>
<g id="a_Node000025"><a xlink:href="race__logic_8c.html#ab653b6e6bb04ca0f7995cb58cbeba9af" target="_top" xlink:title=" ">
<polygon fill="white" stroke="#666666" points="567,-74 476,-74 476,-55 567,-55 567,-74"/>
<text text-anchor="middle" x="521.5" y="-62" font-family="Helvetica,sans-Serif" font-size="10.00">func_80290388</text>
</a>
</g>
</g>
<!-- Node15&#45;&gt;Node25 -->
<g id="edge27_Node000015_Node000025" class="edge">
<title>Node15&#45;&gt;Node25</title>
<g id="a_edge27_Node000015_Node000025"><a xlink:title=" ">
<path fill="none" stroke="#63b8ff" d="M322.32,-498.83C327.39,-441.16 356.47,-142.93 420,-82.5 432.18,-70.92 449.12,-65.44 465.63,-63.15"/>
<polygon fill="#63b8ff" stroke="#63b8ff" points="466.22,-66.6 475.81,-62.1 465.5,-59.64 466.22,-66.6"/>
</a>
</g>
</g>
<!-- Node26 -->
<g id="Node000026" class="node">
<title>Node26</title>
<g id="a_Node000026"><a xlink:href="race__logic_8c.html#af98d49ae0af39ccd86b3a2c269969d3c" target="_top" xlink:title=" ">
<polygon fill="white" stroke="#666666" points="567.5,-37 475.5,-37 475.5,-18 567.5,-18 567.5,-37"/>
<text text-anchor="middle" x="521.5" y="-25" font-family="Helvetica,sans-Serif" font-size="10.00">func_802903B0</text>
</a>
</g>
</g>
<!-- Node15&#45;&gt;Node26 -->
<g id="edge28_Node000015_Node000026" class="edge">
<title>Node15&#45;&gt;Node26</title>
<g id="a_edge28_Node000015_Node000026"><a xlink:title=" ">
<path fill="none" stroke="#63b8ff" d="M322.13,-498.8C326.26,-438.19 351.51,-111.81 420,-45.5 432.02,-33.86 448.85,-28.36 465.29,-26.05"/>
<polygon fill="#63b8ff" stroke="#63b8ff" points="465.85,-29.51 475.44,-25 465.13,-22.55 465.85,-29.51"/>
</a>
</g>
</g>
<!-- Node29 -->
<g id="Node000029" class="node">
<title>Node29</title>
<g id="a_Node000029"><a xlink:href="Game_8cpp.html#ae131a8b6906df364a68be4307caab750" target="_top" xlink:title=" ">
<polygon fill="white" stroke="#666666" points="583,-962 460,-962 460,-943 583,-943 583,-962"/>
<text text-anchor="middle" x="521.5" y="-950" font-family="Helvetica,sans-Serif" font-size="10.00">GetCupCursorPosition</text>
</a>
</g>
</g>
<!-- Node15&#45;&gt;Node29 -->
<g id="edge31_Node000015_Node000029" class="edge">
<title>Node15&#45;&gt;Node29</title>
<g id="a_edge31_Node000015_Node000029"><a xlink:title=" ">
<path fill="none" stroke="#63b8ff" d="M322.32,-518.17C327.39,-575.84 356.47,-874.07 420,-934.5 428.34,-942.44 438.93,-947.5 450.07,-950.65"/>
<polygon fill="#63b8ff" stroke="#63b8ff" points="449.44,-954.09 459.97,-952.94 451.02,-947.27 449.44,-954.09"/>
</a>
</g>
</g>
<!-- Node30 -->
<g id="Node000030" class="node">
<title>Node30</title>
<g id="a_Node000030"><a xlink:href="Game_8cpp.html#a0499ce6f7f2cd1b56b0674de6c0cc813" target="_top" xlink:title=" ">
<polygon fill="white" stroke="#666666" points="561.5,-925 481.5,-925 481.5,-906 561.5,-906 561.5,-925"/>
<text text-anchor="middle" x="521.5" y="-913" font-family="Helvetica,sans-Serif" font-size="10.00">GetCupIndex</text>
</a>
</g>
</g>
<!-- Node15&#45;&gt;Node30 -->
<g id="edge32_Node000015_Node000030" class="edge">
<title>Node15&#45;&gt;Node30</title>
<g id="a_edge32_Node000015_Node000030"><a xlink:title=" ">
<path fill="none" stroke="#63b8ff" d="M322.53,-518.03C328.58,-572.41 361.38,-842.89 420,-897.5 433.62,-910.18 452.96,-915.49 471.06,-917.34"/>
<polygon fill="#63b8ff" stroke="#63b8ff" points="471,-920.85 481.22,-918.05 471.49,-913.86 471,-920.85"/>
</a>
</g>
</g>
<!-- Node31 -->
<g id="Node000031" class="node">
<title>Node31</title>
<g id="a_Node000031"><a xlink:href="Game_8cpp.html#ab5e6260830cd0d3a739e5a5d3fa31bf3" target="_top" xlink:title=" ">
<polygon fill="white" stroke="#666666" points="564.5,-888 478.5,-888 478.5,-869 564.5,-869 564.5,-888"/>
<text text-anchor="middle" x="521.5" y="-876" font-family="Helvetica,sans-Serif" font-size="10.00">GetFlowerCup</text>
</a>
</g>
</g>
<!-- Node15&#45;&gt;Node31 -->
<g id="edge33_Node000015_Node000031" class="edge">
<title>Node15&#45;&gt;Node31</title>
<g id="a_edge33_Node000015_Node000031"><a xlink:title=" ">
<path fill="none" stroke="#63b8ff" d="M322.81,-518.13C330,-569.59 366.34,-811.74 420,-860.5 433.05,-872.36 451.13,-877.72 468.37,-879.84"/>
<polygon fill="#63b8ff" stroke="#63b8ff" points="468.1,-883.33 478.37,-880.74 468.73,-876.36 468.1,-883.33"/>
</a>
</g>
</g>
<!-- Node32 -->
<g id="Node000032" class="node">
<title>Node32</title>
<g id="a_Node000032"><a xlink:href="Game_8cpp.html#a9205b4816d835d2a593d896dce112059" target="_top" xlink:title=" ">
<polygon fill="white" stroke="#666666" points="573.5,-851 469.5,-851 469.5,-832 573.5,-832 573.5,-851"/>
<text text-anchor="middle" x="521.5" y="-839" font-family="Helvetica,sans-Serif" font-size="10.00">GetMushroomCup</text>
</a>
</g>
</g>
<!-- Node15&#45;&gt;Node32 -->
<g id="edge34_Node000015_Node000032" class="edge">
<title>Node15&#45;&gt;Node32</title>
<g id="a_edge34_Node000015_Node000032"><a xlink:title=" ">
<path fill="none" stroke="#63b8ff" d="M321.22,-518.06C320.51,-561.11 323.72,-738.63 420,-823.5 430.91,-833.12 445.16,-838.42 459.47,-841.18"/>
<polygon fill="#63b8ff" stroke="#63b8ff" points="458.94,-844.64 469.36,-842.71 460.01,-837.73 458.94,-844.64"/>
</a>
</g>
</g>
<!-- Node33 -->
<g id="Node000033" class="node">
<title>Node33</title>
<g id="a_Node000033"><a xlink:href="Game_8cpp.html#a9b7d299ffd4422f9c7cfd08576b8b38b" target="_top" xlink:title=" ">
<polygon fill="white" stroke="#666666" points="557.5,-814 485.5,-814 485.5,-795 557.5,-795 557.5,-814"/>
<text text-anchor="middle" x="521.5" y="-802" font-family="Helvetica,sans-Serif" font-size="10.00">GetStarCup</text>
</a>
</g>
</g>
<!-- Node15&#45;&gt;Node33 -->
<g id="edge35_Node000015_Node000033" class="edge">
<title>Node15&#45;&gt;Node33</title>
<g id="a_edge35_Node000015_Node000033"><a xlink:title=" ">
<path fill="none" stroke="#63b8ff" d="M321.66,-518.02C322.91,-557.9 333.33,-712.94 420,-786.5 435.05,-799.27 456.03,-804.34 474.93,-805.99"/>
<polygon fill="#63b8ff" stroke="#63b8ff" points="474.98,-809.5 485.16,-806.58 475.38,-802.51 474.98,-809.5"/>
</a>
</g>
</g>
<!-- Node34 -->
<g id="Node000034" class="node">
<title>Node34</title>
<g id="a_Node000034"><a xlink:href="Game_8cpp.html#ac015fe2f0caa481693b5a07997bf69b6" target="_top" xlink:title=" ">
<polygon fill="white" stroke="#666666" points="556.5,-777 486.5,-777 486.5,-758 556.5,-758 556.5,-777"/>
<text text-anchor="middle" x="521.5" y="-765" font-family="Helvetica,sans-Serif" font-size="10.00">IsBigDonut</text>
</a>
</g>
</g>
<!-- Node15&#45;&gt;Node34 -->
<g id="edge36_Node000015_Node000034" class="edge">
<title>Node15&#45;&gt;Node34</title>
<g id="a_edge36_Node000015_Node000034"><a xlink:title=" ">
<path fill="none" stroke="#63b8ff" d="M322.25,-518.25C325.67,-555.14 343.03,-687.26 420,-749.5 435.66,-762.16 457.2,-767.13 476.33,-768.74"/>
<polygon fill="#63b8ff" stroke="#63b8ff" points="476.18,-772.24 486.36,-769.31 476.58,-765.25 476.18,-772.24"/>
</a>
</g>
</g>
<!-- Node35 -->
<g id="Node000035" class="node">
<title>Node35</title>
<g id="a_Node000035"><a xlink:href="Game_8cpp.html#a08c07f850fcf603d8fb021cdcbddc7a0" target="_top" xlink:title=" ">
<polygon fill="white" stroke="#666666" points="557,-740 486,-740 486,-721 557,-721 557,-740"/>
<text text-anchor="middle" x="521.5" y="-728" font-family="Helvetica,sans-Serif" font-size="10.00">IsBlockFort</text>
</a>
</g>
</g>
<!-- Node15&#45;&gt;Node35 -->
<g id="edge37_Node000015_Node000035" class="edge">
<title>Node15&#45;&gt;Node35</title>
<g id="a_edge37_Node000015_Node000035"><a xlink:title=" ">
<path fill="none" stroke="#63b8ff" d="M323.01,-518.12C328.73,-551.22 352.33,-661.15 420,-712.5 435.73,-724.43 456.79,-729.39 475.57,-731.18"/>
<polygon fill="#63b8ff" stroke="#63b8ff" points="475.51,-734.69 485.72,-731.88 475.99,-727.7 475.51,-734.69"/>
</a>
</g>
</g>
<!-- Node36 -->
<g id="Node000036" class="node">
<title>Node36</title>
<g id="a_Node000036"><a xlink:href="Game_8cpp.html#a566864f9a32a9c8f1df554d0958e31fe" target="_top" xlink:title=" ">
<polygon fill="white" stroke="#666666" points="563.5,-703 479.5,-703 479.5,-684 563.5,-684 563.5,-703"/>
<text text-anchor="middle" x="521.5" y="-691" font-family="Helvetica,sans-Serif" font-size="10.00">IsDoubleDeck</text>
</a>
</g>
</g>
<!-- Node15&#45;&gt;Node36 -->
<g id="edge38_Node000015_Node000036" class="edge">
<title>Node15&#45;&gt;Node36</title>
<g id="a_edge38_Node000015_Node000036"><a xlink:title=" ">
<path fill="none" stroke="#63b8ff" d="M324.16,-518.41C332.58,-547.8 361.69,-634.95 420,-675.5 434.22,-685.39 452.23,-690.35 469.06,-692.71"/>
<polygon fill="#63b8ff" stroke="#63b8ff" points="469.02,-696.22 479.34,-693.86 469.8,-689.27 469.02,-696.22"/>
</a>
</g>
</g>
<!-- Node37 -->
<g id="Node000037" class="node">
<title>Node37</title>
<g id="a_Node000037"><a xlink:href="Game_8cpp.html#a9fedd7b107c6b6e24e773784787a105c" target="_top" xlink:title=" ">
<polygon fill="white" stroke="#666666" points="560.5,-666 482.5,-666 482.5,-647 560.5,-647 560.5,-666"/>
<text text-anchor="middle" x="521.5" y="-654" font-family="Helvetica,sans-Serif" font-size="10.00">IsSkyscraper</text>
</a>
</g>
</g>
<!-- Node15&#45;&gt;Node37 -->
<g id="edge39_Node000015_Node000037" class="edge">
<title>Node15&#45;&gt;Node37</title>
<g id="a_edge39_Node000015_Node000037"><a xlink:title=" ">
<path fill="none" stroke="#63b8ff" d="M325.78,-518.31C337.12,-543.05 370.51,-608.17 420,-638.5 435.54,-648.02 454.81,-652.8 472.3,-655.11"/>
<polygon fill="#63b8ff" stroke="#63b8ff" points="472.04,-658.6 482.36,-656.2 472.8,-651.64 472.04,-658.6"/>
</a>
</g>
</g>
<!-- Node38 -->
<g id="Node000038" class="node">
<title>Node38</title>
<g id="a_Node000038"><a xlink:href="Game_8cpp.html#a97137efc74a8f6bd6e9e54a8643e86f5" target="_top" xlink:title=" ">
<polygon fill="white" stroke="#666666" points="581,-629 462,-629 462,-610 581,-610 581,-629"/>
<text text-anchor="middle" x="521.5" y="-617" font-family="Helvetica,sans-Serif" font-size="10.00">SelectBowsersCastle</text>
</a>
</g>
</g>
<!-- Node15&#45;&gt;Node38 -->
<g id="edge40_Node000015_Node000038" class="edge">
<title>Node15&#45;&gt;Node38</title>
<g id="a_edge40_Node000015_Node000038"><a xlink:title=" ">
<path fill="none" stroke="#63b8ff" d="M328.41,-518.01C342.97,-537.26 378.84,-580.75 420,-601.5 429.82,-606.45 440.77,-610.06 451.74,-612.68"/>
<polygon fill="#63b8ff" stroke="#63b8ff" points="451.28,-616.16 461.79,-614.83 452.74,-609.32 451.28,-616.16"/>
</a>
</g>
</g>
<!-- Node39 -->
<g id="Node000039" class="node">
<title>Node39</title>
<g id="a_Node000039"><a xlink:href="Game_8cpp.html#af24635032f3c7b289048710e7791a439" target="_top" xlink:title=" ">
<polygon fill="white" stroke="#666666" points="581.5,-592 461.5,-592 461.5,-573 581.5,-573 581.5,-592"/>
<text text-anchor="middle" x="521.5" y="-580" font-family="Helvetica,sans-Serif" font-size="10.00">SelectKalimariDesert</text>
</a>
</g>
</g>
<!-- Node15&#45;&gt;Node39 -->
<g id="edge41_Node000015_Node000039" class="edge">
<title>Node15&#45;&gt;Node39</title>
<g id="a_edge41_Node000015_Node000039"><a xlink:title=" ">
<path fill="none" stroke="#63b8ff" d="M334.81,-518.04C353.1,-530.67 387.44,-552.72 420,-564.5 430.02,-568.12 440.87,-571.04 451.62,-573.38"/>
<polygon fill="#63b8ff" stroke="#63b8ff" points="450.93,-576.81 461.43,-575.37 452.32,-569.95 450.93,-576.81"/>
</a>
</g>
</g>
<!-- Node40 -->
<g id="Node000040" class="node">
<title>Node40</title>
<g id="a_Node000040"><a xlink:href="Game_8cpp.html#ada28d3ac2117e6089cc6eb5b0a6aabba" target="_top" xlink:title=" ">
<polygon fill="white" stroke="#666666" points="578.5,-555 464.5,-555 464.5,-536 578.5,-536 578.5,-555"/>
<text text-anchor="middle" x="521.5" y="-543" font-family="Helvetica,sans-Serif" font-size="10.00">SelectLuigiRaceway</text>
</a>
</g>
</g>
<!-- Node15&#45;&gt;Node40 -->
<g id="edge42_Node000015_Node000040" class="edge">
<title>Node15&#45;&gt;Node40</title>
<g id="a_edge42_Node000015_Node000040"><a xlink:title=" ">
<path fill="none" stroke="#63b8ff" d="M366.59,-517.33C383.35,-520.58 402.54,-524.25 420,-527.5 431.78,-529.69 444.34,-531.98 456.45,-534.16"/>
<polygon fill="#63b8ff" stroke="#63b8ff" points="456.03,-537.64 466.49,-535.96 457.27,-530.75 456.03,-537.64"/>
</a>
</g>
</g>
<!-- Node41 -->
<g id="Node000041" class="node">
<title>Node41</title>
<g id="a_Node000041"><a xlink:href="Game_8cpp.html#aaaf510d501c5771be0f12e0cd1f5cd2d" target="_top" xlink:title=" ">
<polygon fill="white" stroke="#666666" points="581,-518 462,-518 462,-499 581,-499 581,-518"/>
<text text-anchor="middle" x="521.5" y="-506" font-family="Helvetica,sans-Serif" font-size="10.00">SelectMarioRaceway</text>
</a>
</g>
</g>
<!-- Node15&#45;&gt;Node41 -->
<g id="edge43_Node000015_Node000041" class="edge">
<title>Node15&#45;&gt;Node41</title>
<g id="a_edge43_Node000015_Node000041"><a xlink:title=" ">
<path fill="none" stroke="#63b8ff" d="M366.66,-508.5C391.78,-508.5 423.57,-508.5 451.73,-508.5"/>
<polygon fill="#63b8ff" stroke="#63b8ff" points="451.92,-512 461.92,-508.5 451.92,-505 451.92,-512"/>
</a>
</g>
</g>
<!-- Node42 -->
<g id="Node000042" class="node">
<title>Node42</title>
<g id="a_Node000042"><a xlink:href="Game_8cpp.html#af7015b96d32cb80462316bd3e619b210" target="_top" xlink:title=" ">
<polygon fill="white" stroke="#666666" points="575,-481 468,-481 468,-462 575,-462 575,-481"/>
<text text-anchor="middle" x="521.5" y="-469" font-family="Helvetica,sans-Serif" font-size="10.00">SelectSherbetLand</text>
</a>
</g>
</g>
<!-- Node15&#45;&gt;Node42 -->
<g id="edge44_Node000015_Node000042" class="edge">
<title>Node15&#45;&gt;Node42</title>
<g id="a_edge44_Node000015_Node000042"><a xlink:title=" ">
<path fill="none" stroke="#63b8ff" d="M366.66,-500.1C394.06,-495.01 429.4,-488.44 459.3,-482.88"/>
<polygon fill="#63b8ff" stroke="#63b8ff" points="460.02,-486.31 469.21,-481.04 458.74,-479.42 460.02,-486.31"/>
</a>
</g>
</g>
<!-- Node43 -->
<g id="Node000043" class="node">
<title>Node43</title>
<g id="a_Node000043"><a xlink:href="Game_8cpp.html#a3f7a00a8021a08fb3374b0467a7119f8" target="_top" xlink:title=" ">
<polygon fill="white" stroke="#666666" points="579,-444 464,-444 464,-425 579,-425 579,-444"/>
<text text-anchor="middle" x="521.5" y="-432" font-family="Helvetica,sans-Serif" font-size="10.00">SelectWarioStadium</text>
</a>
</g>
</g>
<!-- Node15&#45;&gt;Node43 -->
<g id="edge45_Node000015_Node000043" class="edge">
<title>Node15&#45;&gt;Node43</title>
<g id="a_edge45_Node000015_Node000043"><a xlink:title=" ">
<path fill="none" stroke="#63b8ff" d="M335.17,-498.98C353.58,-486.6 387.78,-465.19 420,-453.5 430.72,-449.61 442.38,-446.48 453.84,-443.97"/>
<polygon fill="#63b8ff" stroke="#63b8ff" points="454.73,-447.36 463.82,-441.92 453.32,-440.5 454.73,-447.36"/>
</a>
</g>
</g>
<!-- Node44 -->
<g id="Node000044" class="node">
<title>Node44</title>
<g id="a_Node000044"><a xlink:href="code__800029B0_8c.html#a400480f631a30b3b2e03db7e291f73d1" target="_top" xlink:title=" ">
<polygon fill="white" stroke="#666666" points="571.5,-407 471.5,-407 471.5,-388 571.5,-388 571.5,-407"/>
<text text-anchor="middle" x="521.5" y="-395" font-family="Helvetica,sans-Serif" font-size="10.00">set_mirror_mode</text>
</a>
</g>
</g>
<!-- Node15&#45;&gt;Node44 -->
<g id="edge46_Node000015_Node000044" class="edge">
<title>Node15&#45;&gt;Node44</title>
<g id="a_edge46_Node000015_Node000044"><a xlink:title=" ">
<path fill="none" stroke="#63b8ff" d="M328.68,-498.83C343.45,-479.71 379.3,-437.13 420,-416.5 432.68,-410.07 447.26,-405.81 461.31,-402.98"/>
<polygon fill="#63b8ff" stroke="#63b8ff" points="462.19,-406.38 471.41,-401.17 460.95,-399.49 462.19,-406.38"/>
</a>
</g>
</g>
<!-- Node46 -->
<g id="Node000046" class="node">
<title>Node46</title>
<g id="a_Node000046"><a xlink:href="Game_8cpp.html#ae22f9eac795eb716b246a295a38e5343" target="_top" xlink:title=" ">
<polygon fill="white" stroke="#666666" points="582.5,-370 460.5,-370 460.5,-351 582.5,-351 582.5,-370"/>
<text text-anchor="middle" x="521.5" y="-358" font-family="Helvetica,sans-Serif" font-size="10.00">SetCupCursorPosition</text>
</a>
</g>
</g>
<!-- Node15&#45;&gt;Node46 -->
<g id="edge48_Node000015_Node000046" class="edge">
<title>Node15&#45;&gt;Node46</title>
<g id="a_edge48_Node000015_Node000046"><a xlink:title=" ">
<path fill="none" stroke="#63b8ff" d="M325.82,-498.79C337.25,-474.31 370.84,-409.83 420,-379.5 429.26,-373.79 439.84,-369.72 450.58,-366.84"/>
<polygon fill="#63b8ff" stroke="#63b8ff" points="451.52,-370.22 460.45,-364.52 449.92,-363.4 451.52,-370.22"/>
</a>
</g>
</g>
<!-- Node47 -->
<g id="Node000047" class="node">
<title>Node47</title>
<g id="a_Node000047"><a xlink:href="Game_8cpp.html#a39a600533d17ea739c0cc7778087d82e" target="_top" xlink:title=" ">
<polygon fill="white" stroke="#666666" points="572,-333 471,-333 471,-314 572,-314 572,-333"/>
<text text-anchor="middle" x="521.5" y="-321" font-family="Helvetica,sans-Serif" font-size="10.00">SetTrackFromCup</text>
</a>
</g>
</g>
<!-- Node15&#45;&gt;Node47 -->
<g id="edge49_Node000015_Node000047" class="edge">
<title>Node15&#45;&gt;Node47</title>
<g id="a_edge49_Node000015_Node000047"><a xlink:title=" ">
<path fill="none" stroke="#63b8ff" d="M324.16,-498.59C332.58,-469.2 361.69,-382.05 420,-341.5 431.83,-333.28 446.28,-328.46 460.49,-325.72"/>
<polygon fill="#63b8ff" stroke="#63b8ff" points="461.43,-329.11 470.75,-324.07 460.32,-322.2 461.43,-329.11"/>
</a>
</g>
</g>
<!-- Node19 -->
<g id="Node000019" class="node">
<title>Node19</title>
<g id="a_Node000019"><a xlink:href="math__util_8c.html#a151b63b8adf9af7e4054b3b84bd226dc" target="_top" xlink:title=" ">
<polygon fill="white" stroke="#666666" points="785.5,-222 713.5,-222 713.5,-203 785.5,-203 785.5,-222"/>
<text text-anchor="middle" x="749.5" y="-210" font-family="Helvetica,sans-Serif" font-size="10.00">random_int</text>
</a>
</g>
</g>
<!-- Node18&#45;&gt;Node19 -->
<g id="edge21_Node000018_Node000019" class="edge">
<title>Node18&#45;&gt;Node19</title>
<g id="a_edge21_Node000018_Node000019"><a xlink:title=" ">
<path fill="none" stroke="#63b8ff" d="M567.15,-212.5C606.47,-212.5 663.48,-212.5 703.05,-212.5"/>
<polygon fill="#63b8ff" stroke="#63b8ff" points="703.21,-216 713.21,-212.5 703.21,-209 703.21,-216"/>
</a>
</g>
</g>
<!-- Node20 -->
<g id="Node000020" class="node">
<title>Node20</title>
<g id="a_Node000020"><a xlink:href="math__util_8c.html#a062850863585005ad1d0a75d9ff70693" target="_top" xlink:title=" ">
<polygon fill="white" stroke="#666666" points="971,-222 894,-222 894,-203 971,-203 971,-222"/>
<text text-anchor="middle" x="932.5" y="-210" font-family="Helvetica,sans-Serif" font-size="10.00">random_u16</text>
</a>
</g>
</g>
<!-- Node19&#45;&gt;Node20 -->
<g id="edge22_Node000019_Node000020" class="edge">
<title>Node19&#45;&gt;Node20</title>
<g id="a_edge22_Node000019_Node000020"><a xlink:title=" ">
<path fill="none" stroke="#63b8ff" d="M785.83,-212.5C813.74,-212.5 852.98,-212.5 883.7,-212.5"/>
<polygon fill="#63b8ff" stroke="#63b8ff" points="883.76,-216 893.76,-212.5 883.76,-209 883.76,-216"/>
</a>
</g>
</g>
<!-- Node22 -->
<g id="Node000022" class="node">
<title>Node22</title>
<g id="a_Node000022"><a xlink:href="external_8c.html#ac48b7cbfcaa7737f892877ead85e4ba7" target="_top" xlink:title=" ">
<polygon fill="white" stroke="#666666" points="795.5,-185 703.5,-185 703.5,-166 795.5,-166 795.5,-185"/>
<text text-anchor="middle" x="749.5" y="-173" font-family="Helvetica,sans-Serif" font-size="10.00">func_800C3448</text>
</a>
</g>
</g>
<!-- Node21&#45;&gt;Node22 -->
<g id="edge24_Node000021_Node000022" class="edge">
<title>Node21&#45;&gt;Node22</title>
<g id="a_edge24_Node000021_Node000022"><a xlink:title=" ">
<path fill="none" stroke="#63b8ff" d="M567.69,-175.5C603.87,-175.5 654.78,-175.5 693.36,-175.5"/>
<polygon fill="#63b8ff" stroke="#63b8ff" points="693.39,-179 703.39,-175.5 693.39,-172 693.39,-179"/>
</a>
</g>
</g>
<!-- Node27 -->
<g id="Node000027" class="node">
<title>Node27</title>
<g id="a_Node000027"><a xlink:href="HMAS_8cpp.html#a73c414770e0086761854237b09428fcf" target="_top" xlink:title=" ">
<polygon fill="white" stroke="#666666" points="797,-19 702,-19 702,0 797,0 797,-19"/>
<text text-anchor="middle" x="749.5" y="-7" font-family="Helvetica,sans-Serif" font-size="10.00">HMAS_IsPlaying</text>
</a>
</g>
</g>
<!-- Node26&#45;&gt;Node27 -->
<g id="edge29_Node000026_Node000027" class="edge">
<title>Node26&#45;&gt;Node27</title>
<g id="a_edge29_Node000026_Node000027"><a xlink:title=" ">
<path fill="none" stroke="#63b8ff" d="M567.69,-23.9C603.4,-21.06 653.45,-17.07 691.84,-14.01"/>
<polygon fill="#63b8ff" stroke="#63b8ff" points="692.14,-17.5 701.83,-13.22 691.59,-10.52 692.14,-17.5"/>
</a>
</g>
</g>
<!-- Node28 -->
<g id="Node000028" class="node">
<title>Node28</title>
<g id="a_Node000028"><a xlink:href="HMAS_8cpp.html#aa651a0e94efa3ddb0a63e1b4233c0aab" target="_top" xlink:title=" ">
<polygon fill="white" stroke="#666666" points="786,-56 713,-56 713,-37 786,-37 786,-56"/>
<text text-anchor="middle" x="749.5" y="-44" font-family="Helvetica,sans-Serif" font-size="10.00">HMAS_Stop</text>
</a>
</g>
</g>
<!-- Node26&#45;&gt;Node28 -->
<g id="edge30_Node000026_Node000028" class="edge">
<title>Node26&#45;&gt;Node28</title>
<g id="a_edge30_Node000026_Node000028"><a xlink:title=" ">
<path fill="none" stroke="#63b8ff" d="M567.69,-31.3C606.83,-34.59 663.19,-39.33 702.55,-42.64"/>
<polygon fill="#63b8ff" stroke="#63b8ff" points="702.41,-46.14 712.67,-43.49 703,-39.16 702.41,-46.14"/>
</a>
</g>
</g>
<!-- Node45 -->
<g id="Node000045" class="node">
<title>Node45</title>
<g id="a_Node000045"><a xlink:href="Game_8cpp.html#a1a0b86b75ed10f91ff616764992e6829" target="_top" xlink:title=" ">
<polygon fill="white" stroke="#666666" points="789,-407 710,-407 710,-388 789,-388 789,-407"/>
<text text-anchor="middle" x="749.5" y="-395" font-family="Helvetica,sans-Serif" font-size="10.00">UnLoadTrack</text>
</a>
</g>
</g>
<!-- Node44&#45;&gt;Node45 -->
<g id="edge47_Node000044_Node000045" class="edge">
<title>Node44&#45;&gt;Node45</title>
<g id="a_edge47_Node000044_Node000045"><a xlink:title=" ">
<path fill="none" stroke="#63b8ff" d="M571.54,-397.5C609.39,-397.5 661.53,-397.5 699.4,-397.5"/>
<polygon fill="#63b8ff" stroke="#63b8ff" points="699.68,-401 709.68,-397.5 699.68,-394 699.68,-401"/>
</a>
</g>
</g>
</g>
</svg>

<g id="navigator" transform="translate(0 0)" fill="#404254">
  <rect fill="#f2f5e9" fill-opacity="0.5" stroke="#606060" stroke-width=".5" x="0" y="0" width="60" height="60"/>
  <use id="zoomplus" xlink:href="#zoomPlus" x="17" y="9" onmousedown="handleZoom(evt,'in')"/>
  <use id="zoomminus" xlink:href="#zoomMin" x="42" y="9" onmousedown="handleZoom(evt,'out')"/>
  <use id="reset" xlink:href="#resetDef" x="30" y="36" onmousedown="handleReset()"/>
   <use id="arrowup" xlink:href="#arrowUp" x="0" y="0" onmousedown="handlePan(0,-1)"/>
  <use id="arrowright" xlink:href="#arrowRight" x="0" y="0" onmousedown="handlePan(1,0)"/>
  <use id="arrowdown" xlink:href="#arrowDown" x="0" y="0" onmousedown="handlePan(0,1)"/>
  <use id="arrowleft" xlink:href="#arrowLeft" x="0" y="0" onmousedown="handlePan(-1,0)"/>
</g>
<svg viewBox="0 0 15 15" width="100%" height="30px" preserveAspectRatio="xMaxYMin meet">
 <g id="arrow_out" transform="scale(0.3 0.3)">
  <a xlink:href="menu__items_8c_a3e1c80f37b6c05eef98a89c85236ae05_cgraph_org.svg" target="_base">
   <rect id="button" ry="5" rx="5" y="6" x="6" height="38" width="38"
        fill="#f2f5e9" fill-opacity="0.5" stroke="#606060" stroke-width="1.0"/>
   <path id="arrow"
     d="M 11.500037,31.436501 C 11.940474,20.09759 22.043105,11.32322 32.158766,21.979434 L 37.068811,17.246167 C 37.068811,17.246167 37.088388,32 37.088388,32 L 22.160133,31.978069 C 22.160133,31.978069 26.997745,27.140456 26.997745,27.140456 C 18.528582,18.264221 13.291696,25.230495 11.500037,31.436501 z"
     style="fill:#404040;"/>
  </a>
 </g>
</svg>

<style type='text/css'>
<![CDATA[
[data-mouse-over-selected='false'] { opacity: 0.7; }
[data-mouse-over-selected='true']  { opacity: 1.0; }
]]>
</style>
<script type="application/ecmascript"><![CDATA[
document.addEventListener('DOMContentLoaded', (event) => {
  highlightEdges();
  highlightAdjacentNodes();
});
]]></script>
</svg>
