<?xml version="1.0" encoding="UTF-8" standalone="no"?>
<!DOCTYPE svg PUBLIC "-//W3C//DTD SVG 1.1//EN"
 "http://www.w3.org/Graphics/SVG/1.1/DTD/svg11.dtd">
<!-- Generated by graphviz version 2.43.0 (0)
 -->
<!-- Title: func_800939C8 Pages: 1 -->
<!--zoomable 523 -->

<svg id="main" version="1.1" xmlns="http://www.w3.org/2000/svg" xmlns:xlink="http://www.w3.org/1999/xlink" xml:space="preserve" onload="init(evt)">

<style type="text/css"><![CDATA[
.node, .edge {opacity: 0.7;}
.node.selected, .edge.selected {opacity: 1;}
.edge:hover path { stroke: red; }
.edge:hover polygon { stroke: red; fill: red; }
]]></style>

<defs>
  <circle id="rim" cx="0" cy="0" r="7"/>
  <circle id="rim2" cx="0" cy="0" r="3.5"/>
  <g id="zoomPlus">
    <use xlink:href="#rim" fill="#404040"><set attributeName="fill" to="#808080" begin="zoomplus.mouseover" end="zoomplus.mouseout"/></use>
    <path d="M-4,0h8M0,-4v8" fill="none" stroke="white" stroke-width="1.5" pointer-events="none"/>
  </g>
  <g id="zoomMin">
    <use xlink:href="#rim" fill="#404040"><set attributeName="fill" to="#808080" begin="zoomminus.mouseover" end="zoomminus.mouseout"/></use>
    <path d="M-4,0h8" fill="none" stroke="white" stroke-width="1.5" pointer-events="none"/>
  </g>
  <g id="arrowUp" transform="translate(30 24)">
    <use xlink:href="#rim"/>
    <path pointer-events="none" fill="none" stroke="white" stroke-width="1.5" d="M0,-3.0v7 M-2.5,-0.5L0,-3.0L2.5,-0.5"/>
  </g>
  <g id="arrowRight" transform="rotate(90) translate(36 -43)">
    <use xlink:href="#rim"/>
    <path pointer-events="none" fill="none" stroke="white" stroke-width="1.5" d="M0,-3.0v7 M-2.5,-0.5L0,-3.0L2.5,-0.5"/>
  </g>
  <g id="arrowDown" transform="rotate(180) translate(-30 -48)">
    <use xlink:href="#rim"/>
    <path pointer-events="none" fill="none" stroke="white" stroke-width="1.5" d="M0,-3.0v7 M-2.5,-0.5L0,-3.0L2.5,-0.5"/>
  </g>
  <g id="arrowLeft" transform="rotate(270) translate(-36 17)">
    <use xlink:href="#rim"/>
    <path pointer-events="none" fill="none" stroke="white" stroke-width="1.5" d="M0,-3.0v7 M-2.5,-0.5L0,-3.0L2.5,-0.5"/>
  </g>
  <g id="resetDef">
    <use xlink:href="#rim2" fill="#404040"><set attributeName="fill" to="#808080" begin="reset.mouseover" end="reset.mouseout"/></use>
  </g>
</defs>
<script type="application/ecmascript">
var viewWidth = 1304;
var viewHeight = 523;
var sectionId = 'dynsection-64';
</script>
<script type="application/ecmascript" xlink:href="svg.min.js"/>
<svg id="graph" class="graph">
<g id="viewport">
<title>func_800939C8</title>
<!-- Node1 -->
<g id="Node000001" class="node">
<title>Node1</title>
<g id="a_Node000001"><a xlink:title=" ">
<polygon fill="#999999" stroke="#666666" points="92,-390.5 0,-390.5 0,-371.5 92,-371.5 92,-390.5"/>
<text text-anchor="middle" x="46" y="-378.5" font-family="Helvetica,sans-Serif" font-size="10.00">func_800939C8</text>
</a>
</g>
</g>
<!-- Node2 -->
<g id="Node000002" class="node">
<title>Node2</title>
<g id="a_Node000002"><a xlink:href="menu__items_8c.html#afa1d2583978658f8524340b7b94544b1" target="_top" xlink:title=" ">
<polygon fill="white" stroke="#666666" points="198,-390.5 128,-390.5 128,-371.5 198,-371.5 198,-390.5"/>
<text text-anchor="middle" x="163" y="-378.5" font-family="Helvetica,sans-Serif" font-size="10.00">print_text2</text>
</a>
</g>
</g>
<!-- Node1&#45;&gt;Node2 -->
<g id="edge1_Node000001_Node000002" class="edge">
<title>Node1&#45;&gt;Node2</title>
<g id="a_edge1_Node000001_Node000002"><a xlink:title=" ">
<path fill="none" stroke="#63b8ff" d="M92.12,-381C100.44,-381 109.12,-381 117.42,-381"/>
<polygon fill="#63b8ff" stroke="#63b8ff" points="117.68,-384.5 127.68,-381 117.68,-377.5 117.68,-384.5"/>
</a>
</g>
</g>
<!-- Node3 -->
<g id="Node000003" class="node">
<title>Node3</title>
<g id="a_Node000003"><a xlink:href="menu__items_8c.html#ace62f40ce813c34904327e39643a0dbf" target="_top" xlink:title=" ">
<polygon fill="white" stroke="#666666" points="362,-476.5 245,-476.5 245,-457.5 362,-457.5 362,-476.5"/>
<text text-anchor="middle" x="303.5" y="-464.5" font-family="Helvetica,sans-Serif" font-size="10.00">char_to_glyph_index</text>
</a>
</g>
</g>
<!-- Node2&#45;&gt;Node3 -->
<g id="edge2_Node000002_Node000003" class="edge">
<title>Node2&#45;&gt;Node3</title>
<g id="a_edge2_Node000002_Node000003"><a xlink:title=" ">
<path fill="none" stroke="#63b8ff" d="M171.49,-390.76C183.23,-405.39 207.39,-432.87 234,-448 237.91,-450.22 242.09,-452.2 246.39,-453.95"/>
<polygon fill="#63b8ff" stroke="#63b8ff" points="245.33,-457.29 255.93,-457.44 247.74,-450.72 245.33,-457.29"/>
</a>
</g>
</g>
<!-- Node7 -->
<g id="Node000007" class="node">
<title>Node7</title>
<g id="a_Node000007"><a xlink:href="FrameInterpolation_8cpp.html#a14ceaeb116362786310778e36943f7be" target="_top" xlink:title=" ">
<polygon fill="white" stroke="#666666" points="373,-439 234,-439 234,-409 373,-409 373,-439"/>
<text text-anchor="start" x="242" y="-427" font-family="Helvetica,sans-Serif" font-size="10.00">FrameInterpolation</text>
<text text-anchor="middle" x="303.5" y="-416" font-family="Helvetica,sans-Serif" font-size="10.00">_ShouldInterpolateFrame</text>
</a>
</g>
</g>
<!-- Node2&#45;&gt;Node7 -->
<g id="edge7_Node000002_Node000007" class="edge">
<title>Node2&#45;&gt;Node7</title>
<g id="a_edge7_Node000002_Node000007"><a xlink:title=" ">
<path fill="none" stroke="#63b8ff" d="M194.74,-390.54C209.33,-395.07 227.26,-400.64 244.28,-405.93"/>
<polygon fill="#63b8ff" stroke="#63b8ff" points="243.58,-409.37 254.17,-408.99 245.65,-402.69 243.58,-409.37"/>
</a>
</g>
</g>
<!-- Node8 -->
<g id="Node000008" class="node">
<title>Node8</title>
<g id="a_Node000008"><a xlink:href="GBIMiddleware_8cpp.html#a4ecc44e3c6f1ca5a6b4a20c41d3bd2d2" target="_top" xlink:title=" ">
<polygon fill="white" stroke="#666666" points="798.5,-330.5 709.5,-330.5 709.5,-311.5 798.5,-311.5 798.5,-330.5"/>
<text text-anchor="middle" x="754" y="-318.5" font-family="Helvetica,sans-Serif" font-size="10.00">gSPDisplayList</text>
</a>
</g>
</g>
<!-- Node2&#45;&gt;Node8 -->
<g id="edge8_Node000002_Node000008" class="edge">
<title>Node2&#45;&gt;Node8</title>
<g id="a_edge8_Node000002_Node000008"><a xlink:title=" ">
<path fill="none" stroke="#63b8ff" d="M194.39,-371.43C206.59,-367.93 220.85,-364.28 234,-362 245.37,-360.03 568.88,-335.11 699.28,-325.11"/>
<polygon fill="#63b8ff" stroke="#63b8ff" points="699.74,-328.59 709.44,-324.33 699.21,-321.61 699.74,-328.59"/>
</a>
</g>
</g>
<!-- Node11 -->
<g id="Node000011" class="node">
<title>Node11</title>
<g id="a_Node000011"><a xlink:href="menu__items_8c.html#a68e560d23390d5add7cb57ccd82e21ae" target="_top" xlink:title=" ">
<polygon fill="white" stroke="#666666" points="351,-390.5 256,-390.5 256,-371.5 351,-371.5 351,-390.5"/>
<text text-anchor="middle" x="303.5" y="-378.5" font-family="Helvetica,sans-Serif" font-size="10.00">load_menu_img</text>
</a>
</g>
</g>
<!-- Node2&#45;&gt;Node11 -->
<g id="edge11_Node000002_Node000011" class="edge">
<title>Node2&#45;&gt;Node11</title>
<g id="a_edge11_Node000002_Node000011"><a xlink:title=" ">
<path fill="none" stroke="#63b8ff" d="M198.24,-381C212.5,-381 229.44,-381 245.48,-381"/>
<polygon fill="#63b8ff" stroke="#63b8ff" points="245.86,-384.5 255.86,-381 245.86,-377.5 245.86,-384.5"/>
</a>
</g>
</g>
<!-- Node13 -->
<g id="Node000013" class="node">
<title>Node13</title>
<g id="a_Node000013"><a xlink:href="menu__items_8c.html#aafca6e35a19465ad361e68b13e467243" target="_top" xlink:title=" ">
<polygon fill="white" stroke="#666666" points="339,-314.5 268,-314.5 268,-295.5 339,-295.5 339,-314.5"/>
<text text-anchor="middle" x="303.5" y="-302.5" font-family="Helvetica,sans-Serif" font-size="10.00">print_letter</text>
</a>
</g>
</g>
<!-- Node2&#45;&gt;Node13 -->
<g id="edge13_Node000002_Node000013" class="edge">
<title>Node2&#45;&gt;Node13</title>
<g id="a_edge13_Node000002_Node000013"><a xlink:title=" ">
<path fill="none" stroke="#63b8ff" d="M174.7,-371.42C187.86,-360.04 211.27,-341.07 234,-329 241.93,-324.79 250.74,-321.07 259.34,-317.89"/>
<polygon fill="#63b8ff" stroke="#63b8ff" points="260.62,-321.15 268.89,-314.53 258.3,-314.54 260.62,-321.15"/>
</a>
</g>
</g>
<!-- Node4 -->
<g id="Node000004" class="node">
<title>Node4</title>
<g id="a_Node000004"><a xlink:href="menu__items_8c.html#ae8ba1b567dba01ff15c64d416653a70b" target="_top" xlink:title=" ">
<polygon fill="white" stroke="#666666" points="501.5,-438.5 409.5,-438.5 409.5,-419.5 501.5,-419.5 501.5,-438.5"/>
<text text-anchor="middle" x="455.5" y="-426.5" font-family="Helvetica,sans-Serif" font-size="10.00">func_80092DF8</text>
</a>
</g>
</g>
<!-- Node3&#45;&gt;Node4 -->
<g id="edge3_Node000003_Node000004" class="edge">
<title>Node3&#45;&gt;Node4</title>
<g id="a_edge3_Node000003_Node000004"><a xlink:title=" ">
<path fill="none" stroke="#63b8ff" d="M342.35,-457.41C361.97,-452.44 386.12,-446.32 406.98,-441.04"/>
<polygon fill="#63b8ff" stroke="#63b8ff" points="408.09,-444.37 416.92,-438.52 406.37,-437.58 408.09,-444.37"/>
</a>
</g>
</g>
<!-- Node5 -->
<g id="Node000005" class="node">
<title>Node5</title>
<g id="a_Node000005"><a xlink:href="menu__items_8c.html#acd5b29a8e8634aa4f3db4b9a7c5ba033" target="_top" xlink:title=" ">
<polygon fill="white" stroke="#666666" points="639,-457.5 547,-457.5 547,-438.5 639,-438.5 639,-457.5"/>
<text text-anchor="middle" x="593" y="-445.5" font-family="Helvetica,sans-Serif" font-size="10.00">func_80092E1C</text>
</a>
</g>
</g>
<!-- Node3&#45;&gt;Node5 -->
<g id="edge5_Node000003_Node000005" class="edge">
<title>Node3&#45;&gt;Node5</title>
<g id="a_edge5_Node000003_Node000005"><a xlink:title=" ">
<path fill="none" stroke="#63b8ff" d="M362.33,-463.18C413.26,-459.81 486.92,-454.94 536.99,-451.64"/>
<polygon fill="#63b8ff" stroke="#63b8ff" points="537.24,-455.13 546.99,-450.97 536.78,-448.14 537.24,-455.13"/>
</a>
</g>
</g>
<!-- Node6 -->
<g id="Node000006" class="node">
<title>Node6</title>
<g id="a_Node000006"><a xlink:href="menu__items_8c.html#ab26c8dca1828cd1d5a6c341cb851f0b9" target="_top" xlink:title=" ">
<polygon fill="white" stroke="#666666" points="501,-514.5 410,-514.5 410,-495.5 501,-495.5 501,-514.5"/>
<text text-anchor="middle" x="455.5" y="-502.5" font-family="Helvetica,sans-Serif" font-size="10.00">func_80092EE4</text>
</a>
</g>
</g>
<!-- Node3&#45;&gt;Node6 -->
<g id="edge6_Node000003_Node000006" class="edge">
<title>Node3&#45;&gt;Node6</title>
<g id="a_edge6_Node000003_Node000006"><a xlink:title=" ">
<path fill="none" stroke="#63b8ff" d="M342.35,-476.59C361.97,-481.56 386.12,-487.68 406.98,-492.96"/>
<polygon fill="#63b8ff" stroke="#63b8ff" points="406.37,-496.42 416.92,-495.48 408.09,-489.63 406.37,-496.42"/>
</a>
</g>
</g>
<!-- Node4&#45;&gt;Node5 -->
<g id="edge4_Node000004_Node000005" class="edge">
<title>Node4&#45;&gt;Node5</title>
<g id="a_edge4_Node000004_Node000005"><a xlink:title=" ">
<path fill="none" stroke="#63b8ff" d="M501.62,-435.33C512.81,-436.9 524.94,-438.6 536.56,-440.23"/>
<polygon fill="#63b8ff" stroke="#63b8ff" points="536.23,-443.71 546.62,-441.64 537.2,-436.78 536.23,-443.71"/>
</a>
</g>
</g>
<!-- Node9 -->
<g id="Node000009" class="node">
<title>Node9</title>
<g id="a_Node000009"><a xlink:href="Engine_8cpp.html#a223c8bc63f228dc11177515e38eff2db" target="_top" xlink:title=" ">
<polygon fill="white" stroke="#666666" points="1009,-293.5 860,-293.5 860,-274.5 1009,-274.5 1009,-293.5"/>
<text text-anchor="middle" x="934.5" y="-281.5" font-family="Helvetica,sans-Serif" font-size="10.00">GameEngine_OTRSigCheck</text>
</a>
</g>
</g>
<!-- Node8&#45;&gt;Node9 -->
<g id="edge9_Node000008_Node000009" class="edge">
<title>Node8&#45;&gt;Node9</title>
<g id="a_edge9_Node000008_Node000009"><a xlink:title=" ">
<path fill="none" stroke="#63b8ff" d="M798.67,-311.95C822.45,-307.02 852.13,-300.87 877.59,-295.59"/>
<polygon fill="#63b8ff" stroke="#63b8ff" points="878.4,-299 887.48,-293.54 876.98,-292.14 878.4,-299"/>
</a>
</g>
</g>
<!-- Node10 -->
<g id="Node000010" class="node">
<title>Node10</title>
<g id="a_Node000010"><a xlink:href="string_8c.html#a008e171a518fe0e0352f31b245e03875" target="_top" xlink:title=" ">
<polygon fill="white" stroke="#666666" points="1091.5,-293.5 1047.5,-293.5 1047.5,-274.5 1091.5,-274.5 1091.5,-293.5"/>
<text text-anchor="middle" x="1069.5" y="-281.5" font-family="Helvetica,sans-Serif" font-size="10.00">strlen</text>
</a>
</g>
</g>
<!-- Node9&#45;&gt;Node10 -->
<g id="edge10_Node000009_Node000010" class="edge">
<title>Node9&#45;&gt;Node10</title>
<g id="a_edge10_Node000009_Node000010"><a xlink:title=" ">
<path fill="none" stroke="#63b8ff" d="M1009,-284C1018.89,-284 1028.56,-284 1037.14,-284"/>
<polygon fill="#63b8ff" stroke="#63b8ff" points="1037.36,-287.5 1047.36,-284 1037.36,-280.5 1037.36,-287.5"/>
</a>
</g>
</g>
<!-- Node12 -->
<g id="Node000012" class="node">
<title>Node12</title>
<g id="a_Node000012"><a xlink:href="menu__items_8c.html#a248768ee2e4ca9ae9cf0a30bfb256859" target="_top" xlink:title=" ">
<polygon fill="white" stroke="#666666" points="494.5,-390.5 416.5,-390.5 416.5,-371.5 494.5,-371.5 494.5,-390.5"/>
<text text-anchor="middle" x="455.5" y="-378.5" font-family="Helvetica,sans-Serif" font-size="10.00">load_texture</text>
</a>
</g>
</g>
<!-- Node11&#45;&gt;Node12 -->
<g id="edge12_Node000011_Node000012" class="edge">
<title>Node11&#45;&gt;Node12</title>
<g id="a_edge12_Node000011_Node000012"><a xlink:title=" ">
<path fill="none" stroke="#63b8ff" d="M351.14,-381C368.68,-381 388.65,-381 406.33,-381"/>
<polygon fill="#63b8ff" stroke="#63b8ff" points="406.44,-384.5 416.44,-381 406.44,-377.5 406.44,-384.5"/>
</a>
</g>
</g>
<!-- Node13&#45;&gt;Node8 -->
<g id="edge47_Node000013_Node000008" class="edge">
<title>Node13&#45;&gt;Node8</title>
<g id="a_edge47_Node000013_Node000008"><a xlink:title=" ">
<path fill="none" stroke="#63b8ff" d="M339.32,-306.24C417.28,-309.02 606.32,-315.77 699.4,-319.09"/>
<polygon fill="#63b8ff" stroke="#63b8ff" points="699.34,-322.59 709.46,-319.45 699.59,-315.59 699.34,-322.59"/>
</a>
</g>
</g>
<!-- Node14 -->
<g id="Node000014" class="node">
<title>Node14</title>
<g id="a_Node000014"><a xlink:href="menu__items_8c.html#a37eb021a953285ba504198ac6ca73a9a" target="_top" xlink:title=" ">
<polygon fill="white" stroke="#666666" points="502,-181.5 409,-181.5 409,-162.5 502,-162.5 502,-181.5"/>
<text text-anchor="middle" x="455.5" y="-169.5" font-family="Helvetica,sans-Serif" font-size="10.00">func_80095BD0</text>
</a>
</g>
</g>
<!-- Node13&#45;&gt;Node14 -->
<g id="edge14_Node000013_Node000014" class="edge">
<title>Node13&#45;&gt;Node14</title>
<g id="a_edge14_Node000013_Node000014"><a xlink:title=" ">
<path fill="none" stroke="#63b8ff" d="M315.29,-295.43C340.57,-273.02 403.91,-216.86 435.69,-188.68"/>
<polygon fill="#63b8ff" stroke="#63b8ff" points="438.25,-191.09 443.41,-181.84 433.6,-185.85 438.25,-191.09"/>
</a>
</g>
</g>
<!-- Node15 -->
<g id="Node000015" class="node">
<title>Node15</title>
<g id="a_Node000015"><a xlink:href="Matrix_8cpp.html#a6f64c44efb9bdfff802175a9739ce1f1" target="_top" xlink:title=" ">
<polygon fill="white" stroke="#666666" points="636.5,-138.5 549.5,-138.5 549.5,-119.5 636.5,-119.5 636.5,-138.5"/>
<text text-anchor="middle" x="593" y="-126.5" font-family="Helvetica,sans-Serif" font-size="10.00">AddTextMatrix</text>
</a>
</g>
</g>
<!-- Node14&#45;&gt;Node15 -->
<g id="edge15_Node000014_Node000015" class="edge">
<title>Node14&#45;&gt;Node15</title>
<g id="a_edge15_Node000014_Node000015"><a xlink:title=" ">
<path fill="none" stroke="#63b8ff" d="M486.57,-162.46C505.96,-156.31 531.38,-148.24 552.4,-141.57"/>
<polygon fill="#63b8ff" stroke="#63b8ff" points="553.54,-144.88 562.01,-138.52 551.42,-138.21 553.54,-144.88"/>
</a>
</g>
</g>
<!-- Node19 -->
<g id="Node000019" class="node">
<title>Node19</title>
<g id="a_Node000019"><a xlink:href="FrameInterpolation_8cpp.html#a3a036bc9d533e28a4e9697cd20dccf3e" target="_top" xlink:title=" ">
<polygon fill="white" stroke="#666666" points="648,-30 538,-30 538,0 648,0 648,-30"/>
<text text-anchor="start" x="546" y="-18" font-family="Helvetica,sans-Serif" font-size="10.00">FrameInterpolation</text>
<text text-anchor="middle" x="593" y="-7" font-family="Helvetica,sans-Serif" font-size="10.00">_RecordCloseChild</text>
</a>
</g>
</g>
<!-- Node14&#45;&gt;Node19 -->
<g id="edge19_Node000014_Node000019" class="edge">
<title>Node14&#45;&gt;Node19</title>
<g id="a_edge19_Node000014_Node000019"><a xlink:title=" ">
<path fill="none" stroke="#63b8ff" d="M460.08,-162.27C469.37,-138.25 496.45,-75.41 538,-39 539.33,-37.84 540.72,-36.72 542.16,-35.66"/>
<polygon fill="#63b8ff" stroke="#63b8ff" points="544.36,-38.4 550.87,-30.04 540.57,-32.52 544.36,-38.4"/>
</a>
</g>
</g>
<!-- Node20 -->
<g id="Node000020" class="node">
<title>Node20</title>
<g id="a_Node000020"><a xlink:href="FrameInterpolation_8cpp.html#a0eda726b74eac815af4e874014e2727c" target="_top" xlink:title=" ">
<polygon fill="white" stroke="#666666" points="648,-187 538,-187 538,-157 648,-157 648,-187"/>
<text text-anchor="start" x="546" y="-175" font-family="Helvetica,sans-Serif" font-size="10.00">FrameInterpolation</text>
<text text-anchor="middle" x="593" y="-164" font-family="Helvetica,sans-Serif" font-size="10.00">_RecordOpenChild</text>
</a>
</g>
</g>
<!-- Node14&#45;&gt;Node20 -->
<g id="edge21_Node000014_Node000020" class="edge">
<title>Node14&#45;&gt;Node20</title>
<g id="a_edge21_Node000014_Node000020"><a xlink:title=" ">
<path fill="none" stroke="#63b8ff" d="M502.37,-172C510.45,-172 519,-172 527.47,-172"/>
<polygon fill="#63b8ff" stroke="#63b8ff" points="527.74,-175.5 537.74,-172 527.74,-168.5 527.74,-175.5"/>
</a>
</g>
</g>
<!-- Node21 -->
<g id="Node000021" class="node">
<title>Node21</title>
<g id="a_Node000021"><a xlink:href="menu__items_8c.html#ae0fd5923ba70cf6939cd3fa8d09c1191" target="_top" xlink:title=" ">
<polygon fill="white" stroke="#666666" points="638.5,-276.5 547.5,-276.5 547.5,-257.5 638.5,-257.5 638.5,-276.5"/>
<text text-anchor="middle" x="593" y="-264.5" font-family="Helvetica,sans-Serif" font-size="10.00">func_800959F8</text>
</a>
</g>
</g>
<!-- Node14&#45;&gt;Node21 -->
<g id="edge23_Node000014_Node000021" class="edge">
<title>Node14&#45;&gt;Node21</title>
<g id="a_edge23_Node000014_Node000021"><a xlink:title=" ">
<path fill="none" stroke="#63b8ff" d="M468.7,-181.62C484.44,-193.91 512.8,-215.68 538,-233 547.31,-239.4 557.78,-246.1 567,-251.84"/>
<polygon fill="#63b8ff" stroke="#63b8ff" points="565.36,-254.95 575.71,-257.22 569.04,-248.99 565.36,-254.95"/>
</a>
</g>
</g>
<!-- Node23 -->
<g id="Node000023" class="node">
<title>Node23</title>
<g id="a_Node000023"><a xlink:href="stubs_8c.html#a8b417b868747c80d58f83d8a1e78ecf3" target="_top" xlink:title=" ">
<polygon fill="white" stroke="#666666" points="627,-224.5 559,-224.5 559,-205.5 627,-205.5 627,-224.5"/>
<text text-anchor="middle" x="593" y="-212.5" font-family="Helvetica,sans-Serif" font-size="10.00">rmonPrintf</text>
</a>
</g>
</g>
<!-- Node14&#45;&gt;Node23 -->
<g id="edge27_Node000014_Node000023" class="edge">
<title>Node14&#45;&gt;Node23</title>
<g id="a_edge27_Node000014_Node000023"><a xlink:title=" ">
<path fill="none" stroke="#63b8ff" d="M486.57,-181.54C505.96,-187.69 531.38,-195.76 552.4,-202.43"/>
<polygon fill="#63b8ff" stroke="#63b8ff" points="551.42,-205.79 562.01,-205.48 553.54,-199.12 551.42,-205.79"/>
</a>
</g>
</g>
<!-- Node36 -->
<g id="Node000036" class="node">
<title>Node36</title>
<g id="a_Node000036"><a xlink:href="Matrix_8cpp.html#a9818099a1ee20606a7d622e744846366" target="_top" xlink:title=" ">
<polygon fill="white" stroke="#666666" points="635,-67.5 551,-67.5 551,-48.5 635,-48.5 635,-67.5"/>
<text text-anchor="middle" x="593" y="-55.5" font-family="Helvetica,sans-Serif" font-size="10.00">SetTextMatrix</text>
</a>
</g>
</g>
<!-- Node14&#45;&gt;Node36 -->
<g id="edge43_Node000014_Node000036" class="edge">
<title>Node14&#45;&gt;Node36</title>
<g id="a_edge43_Node000014_Node000036"><a xlink:title=" ">
<path fill="none" stroke="#63b8ff" d="M468.05,-162.28C491.35,-142.68 544.19,-98.23 572.77,-74.18"/>
<polygon fill="#63b8ff" stroke="#63b8ff" points="575.08,-76.81 580.48,-67.69 570.57,-71.45 575.08,-76.81"/>
</a>
</g>
</g>
<!-- Node16 -->
<g id="Node000016" class="node">
<title>Node16</title>
<g id="a_Node000016"><a xlink:href="FrameInterpolation_8cpp.html#a8cf1f2d6fabc6925aa71a9515341b4aa" target="_top" xlink:title=" ">
<polygon fill="white" stroke="#666666" points="824,-106 684,-106 684,-76 824,-76 824,-106"/>
<text text-anchor="start" x="692" y="-94" font-family="Helvetica,sans-Serif" font-size="10.00">FrameInterpolation</text>
<text text-anchor="middle" x="754" y="-83" font-family="Helvetica,sans-Serif" font-size="10.00">_RecordMatrixMtxFToMtx</text>
</a>
</g>
</g>
<!-- Node15&#45;&gt;Node16 -->
<g id="edge16_Node000015_Node000016" class="edge">
<title>Node15&#45;&gt;Node16</title>
<g id="a_edge16_Node000015_Node000016"><a xlink:title=" ">
<path fill="none" stroke="#63b8ff" d="M634.12,-119.41C648.14,-116.06 664.34,-112.19 680.19,-108.4"/>
<polygon fill="#63b8ff" stroke="#63b8ff" points="681.08,-111.79 689.99,-106.06 679.45,-104.98 681.08,-111.79"/>
</a>
</g>
</g>
<!-- Node18 -->
<g id="Node000018" class="node">
<title>Node18</title>
<g id="a_Node000018"><a xlink:href="guMtxF2L_8c.html#a40ab2d64c609839ff1e0ef0de2d0dcc4" target="_top" xlink:title=" ">
<polygon fill="white" stroke="#666666" points="786.5,-143.5 721.5,-143.5 721.5,-124.5 786.5,-124.5 786.5,-143.5"/>
<text text-anchor="middle" x="754" y="-131.5" font-family="Helvetica,sans-Serif" font-size="10.00">guMtxF2L</text>
</a>
</g>
</g>
<!-- Node15&#45;&gt;Node18 -->
<g id="edge18_Node000015_Node000018" class="edge">
<title>Node15&#45;&gt;Node18</title>
<g id="a_edge18_Node000015_Node000018"><a xlink:title=" ">
<path fill="none" stroke="#63b8ff" d="M636.61,-130.34C659.74,-131.07 688.23,-131.96 711.23,-132.69"/>
<polygon fill="#63b8ff" stroke="#63b8ff" points="711.27,-136.19 721.38,-133.01 711.49,-129.19 711.27,-136.19"/>
</a>
</g>
</g>
<!-- Node17 -->
<g id="Node000017" class="node">
<title>Node17</title>
<g id="a_Node000017"><a xlink:href="FrameInterpolation_8cpp.html#a02c7ac5342a4d376edee38f312b480bf" target="_top" xlink:title=" ">
<polygon fill="white" stroke="#666666" points="988.5,-76.5 880.5,-76.5 880.5,-57.5 988.5,-57.5 988.5,-76.5"/>
<text text-anchor="middle" x="934.5" y="-64.5" font-family="Helvetica,sans-Serif" font-size="10.00">check_if_recording</text>
</a>
</g>
</g>
<!-- Node16&#45;&gt;Node17 -->
<g id="edge17_Node000016_Node000017" class="edge">
<title>Node16&#45;&gt;Node17</title>
<g id="a_edge17_Node000016_Node000017"><a xlink:title=" ">
<path fill="none" stroke="#63b8ff" d="M824.01,-81.72C839.24,-79.67 855.29,-77.52 870.27,-75.5"/>
<polygon fill="#63b8ff" stroke="#63b8ff" points="871.01,-78.93 880.45,-74.13 870.07,-72 871.01,-78.93"/>
</a>
</g>
</g>
<!-- Node19&#45;&gt;Node17 -->
<g id="edge20_Node000019_Node000017" class="edge">
<title>Node19&#45;&gt;Node17</title>
<g id="a_edge20_Node000019_Node000017"><a xlink:title=" ">
<path fill="none" stroke="#63b8ff" d="M648.14,-9.99C695.19,-7.05 764.89,-6.08 824,-19 854.38,-25.64 886.71,-40.95 908.3,-52.51"/>
<polygon fill="#63b8ff" stroke="#63b8ff" points="906.68,-55.61 917.13,-57.35 910.05,-49.48 906.68,-55.61"/>
</a>
</g>
</g>
<!-- Node20&#45;&gt;Node17 -->
<g id="edge22_Node000020_Node000017" class="edge">
<title>Node20&#45;&gt;Node17</title>
<g id="a_edge22_Node000020_Node000017"><a xlink:title=" ">
<path fill="none" stroke="#63b8ff" d="M648.01,-175.76C695.9,-177.15 766.9,-174.37 824,-152 862.38,-136.96 898.41,-104 918.07,-83.83"/>
<polygon fill="#63b8ff" stroke="#63b8ff" points="920.64,-86.2 924.99,-76.55 915.57,-81.38 920.64,-86.2"/>
</a>
</g>
</g>
<!-- Node21&#45;&gt;Node8 -->
<g id="edge24_Node000021_Node000008" class="edge">
<title>Node21&#45;&gt;Node8</title>
<g id="a_edge24_Node000021_Node000008"><a xlink:title=" ">
<path fill="none" stroke="#63b8ff" d="M616.7,-276.57C634.76,-284 660.76,-294.31 684,-302 690.97,-304.31 698.41,-306.57 705.72,-308.67"/>
<polygon fill="#63b8ff" stroke="#63b8ff" points="704.97,-312.1 715.55,-311.44 706.87,-305.36 704.97,-312.1"/>
</a>
</g>
</g>
<!-- Node22 -->
<g id="Node000022" class="node">
<title>Node22</title>
<g id="a_Node000022"><a xlink:href="GBIMiddleware_8cpp.html#aeef79449a27a710d73576e4a4f7f7f99" target="_top" xlink:title=" ">
<polygon fill="white" stroke="#666666" points="787,-293.5 721,-293.5 721,-274.5 787,-274.5 787,-293.5"/>
<text text-anchor="middle" x="754" y="-281.5" font-family="Helvetica,sans-Serif" font-size="10.00">gSPVertex</text>
</a>
</g>
</g>
<!-- Node21&#45;&gt;Node22 -->
<g id="edge25_Node000021_Node000022" class="edge">
<title>Node21&#45;&gt;Node22</title>
<g id="a_edge25_Node000021_Node000022"><a xlink:title=" ">
<path fill="none" stroke="#63b8ff" d="M638.71,-271.78C661.23,-274.19 688.39,-277.09 710.58,-279.46"/>
<polygon fill="#63b8ff" stroke="#63b8ff" points="710.4,-282.96 720.71,-280.55 711.14,-276 710.4,-282.96"/>
</a>
</g>
</g>
<!-- Node22&#45;&gt;Node9 -->
<g id="edge26_Node000022_Node000009" class="edge">
<title>Node22&#45;&gt;Node9</title>
<g id="a_edge26_Node000022_Node000009"><a xlink:title=" ">
<path fill="none" stroke="#63b8ff" d="M787.33,-284C804.92,-284 827.59,-284 849.8,-284"/>
<polygon fill="#63b8ff" stroke="#63b8ff" points="849.95,-287.5 859.95,-284 849.95,-280.5 849.95,-287.5"/>
</a>
</g>
</g>
<!-- Node24 -->
<g id="Node000024" class="node">
<title>Node24</title>
<g id="a_Node000024"><a xlink:href="__Printf_8c.html#a39bb05c90efce6c6790c5d58d271d72d" target="_top" xlink:title=" ">
<polygon fill="white" stroke="#666666" points="778,-219.5 730,-219.5 730,-200.5 778,-200.5 778,-219.5"/>
<text text-anchor="middle" x="754" y="-207.5" font-family="Helvetica,sans-Serif" font-size="10.00">_Printf</text>
</a>
</g>
</g>
<!-- Node23&#45;&gt;Node24 -->
<g id="edge28_Node000023_Node000024" class="edge">
<title>Node23&#45;&gt;Node24</title>
<g id="a_edge28_Node000023_Node000024"><a xlink:title=" ">
<path fill="none" stroke="#63b8ff" d="M627.33,-213.95C654.5,-213.1 692.69,-211.9 719.82,-211.04"/>
<polygon fill="#63b8ff" stroke="#63b8ff" points="720.1,-214.54 729.99,-210.72 719.88,-207.54 720.1,-214.54"/>
</a>
</g>
</g>
<!-- Node35 -->
<g id="Node000035" class="node">
<title>Node35</title>
<g id="a_Node000035"><a xlink:href="is__debug_8c.html#aaccfac8d9098530b6592eefe679d86b4" target="_top" xlink:title=" ">
<polygon fill="white" stroke="#666666" points="806.5,-256.5 701.5,-256.5 701.5,-237.5 806.5,-237.5 806.5,-256.5"/>
<text text-anchor="middle" x="754" y="-244.5" font-family="Helvetica,sans-Serif" font-size="10.00">is_proutSyncPrintf</text>
</a>
</g>
</g>
<!-- Node23&#45;&gt;Node35 -->
<g id="edge42_Node000023_Node000035" class="edge">
<title>Node23&#45;&gt;Node35</title>
<g id="a_edge42_Node000023_Node000035"><a xlink:title=" ">
<path fill="none" stroke="#63b8ff" d="M627.33,-221.71C647.08,-225.68 672.65,-230.83 695.57,-235.44"/>
<polygon fill="#63b8ff" stroke="#63b8ff" points="695.04,-238.91 705.54,-237.45 696.43,-232.04 695.04,-238.91"/>
</a>
</g>
</g>
<!-- Node25 -->
<g id="Node000025" class="node">
<title>Node25</title>
<g id="a_Node000025"><a xlink:href="__Printf_8c.html#ad73a5847f2d7c9de14cc2723da86bf45" target="_top" xlink:title=" ">
<polygon fill="white" stroke="#666666" points="959.5,-256.5 909.5,-256.5 909.5,-237.5 959.5,-237.5 959.5,-256.5"/>
<text text-anchor="middle" x="934.5" y="-244.5" font-family="Helvetica,sans-Serif" font-size="10.00">_Putfld</text>
</a>
</g>
</g>
<!-- Node24&#45;&gt;Node25 -->
<g id="edge29_Node000024_Node000025" class="edge">
<title>Node24&#45;&gt;Node25</title>
<g id="a_edge29_Node000024_Node000025"><a xlink:title=" ">
<path fill="none" stroke="#63b8ff" d="M778.34,-214.84C809.21,-221.24 863.87,-232.57 899.39,-239.93"/>
<polygon fill="#63b8ff" stroke="#63b8ff" points="898.8,-243.38 909.3,-241.98 900.22,-236.53 898.8,-243.38"/>
</a>
</g>
</g>
<!-- Node34 -->
<g id="Node000034" class="node">
<title>Node34</title>
<g id="a_Node000034"><a xlink:href="string_8c.html#a988b4defe51a1815ef3b9ddab10e7a89" target="_top" xlink:title=" ">
<polygon fill="white" stroke="#666666" points="956.5,-219.5 912.5,-219.5 912.5,-200.5 956.5,-200.5 956.5,-219.5"/>
<text text-anchor="middle" x="934.5" y="-207.5" font-family="Helvetica,sans-Serif" font-size="10.00">strchr</text>
</a>
</g>
</g>
<!-- Node24&#45;&gt;Node34 -->
<g id="edge41_Node000024_Node000034" class="edge">
<title>Node24&#45;&gt;Node34</title>
<g id="a_edge41_Node000024_Node000034"><a xlink:title=" ">
<path fill="none" stroke="#63b8ff" d="M778.34,-210C810.02,-210 866.76,-210 902.14,-210"/>
<polygon fill="#63b8ff" stroke="#63b8ff" points="902.38,-213.5 912.38,-210 902.38,-206.5 902.38,-213.5"/>
</a>
</g>
</g>
<!-- Node25&#45;&gt;Node10 -->
<g id="edge40_Node000025_Node000010" class="edge">
<title>Node25&#45;&gt;Node10</title>
<g id="a_edge40_Node000025_Node000010"><a xlink:title=" ">
<path fill="none" stroke="#63b8ff" d="M959.78,-252.5C974.15,-255.87 992.69,-260.4 1009,-265 1018.43,-267.66 1028.61,-270.8 1037.84,-273.76"/>
<polygon fill="#63b8ff" stroke="#63b8ff" points="1036.81,-277.11 1047.4,-276.87 1038.97,-270.45 1036.81,-277.11"/>
</a>
</g>
</g>
<!-- Node26 -->
<g id="Node000026" class="node">
<title>Node26</title>
<g id="a_Node000026"><a xlink:href="__Ldtob_8c.html#a7cc858157b66e15c831ad085113729ae" target="_top" xlink:title=" ">
<polygon fill="white" stroke="#666666" points="1094,-162.5 1045,-162.5 1045,-143.5 1094,-143.5 1094,-162.5"/>
<text text-anchor="middle" x="1069.5" y="-150.5" font-family="Helvetica,sans-Serif" font-size="10.00">_Ldtob</text>
</a>
</g>
</g>
<!-- Node25&#45;&gt;Node26 -->
<g id="edge30_Node000025_Node000026" class="edge">
<title>Node25&#45;&gt;Node26</title>
<g id="a_edge30_Node000025_Node000026"><a xlink:title=" ">
<path fill="none" stroke="#63b8ff" d="M959.58,-244.73C974.75,-242.38 994.19,-237.63 1009,-228 1030.78,-213.84 1048.15,-189.01 1058.37,-171.82"/>
<polygon fill="#63b8ff" stroke="#63b8ff" points="1061.64,-173.14 1063.54,-162.72 1055.56,-169.68 1061.64,-173.14"/>
</a>
</g>
</g>
<!-- Node32 -->
<g id="Node000032" class="node">
<title>Node32</title>
<g id="a_Node000032"><a xlink:href="__Litob_8c.html#aaaba3b0ab7920d422a61fe9e22600dd0" target="_top" xlink:title=" ">
<polygon fill="white" stroke="#666666" points="1092.5,-256.5 1046.5,-256.5 1046.5,-237.5 1092.5,-237.5 1092.5,-256.5"/>
<text text-anchor="middle" x="1069.5" y="-244.5" font-family="Helvetica,sans-Serif" font-size="10.00">_Litob</text>
</a>
</g>
</g>
<!-- Node25&#45;&gt;Node32 -->
<g id="edge37_Node000025_Node000032" class="edge">
<title>Node25&#45;&gt;Node32</title>
<g id="a_edge37_Node000025_Node000032"><a xlink:title=" ">
<path fill="none" stroke="#63b8ff" d="M959.59,-247C981.01,-247 1012.51,-247 1036.13,-247"/>
<polygon fill="#63b8ff" stroke="#63b8ff" points="1036.36,-250.5 1046.36,-247 1036.36,-243.5 1036.36,-250.5"/>
</a>
</g>
</g>
<!-- Node27 -->
<g id="Node000027" class="node">
<title>Node27</title>
<g id="a_Node000027"><a xlink:href="__Ldtob_8c.html#a2b6c5318b43bab1636bad9113ffb2761" target="_top" xlink:title=" ">
<polygon fill="white" stroke="#666666" points="1190.5,-180.5 1140.5,-180.5 1140.5,-161.5 1190.5,-161.5 1190.5,-180.5"/>
<text text-anchor="middle" x="1165.5" y="-168.5" font-family="Helvetica,sans-Serif" font-size="10.00">_Genld</text>
</a>
</g>
</g>
<!-- Node26&#45;&gt;Node27 -->
<g id="edge31_Node000026_Node000027" class="edge">
<title>Node26&#45;&gt;Node27</title>
<g id="a_edge31_Node000026_Node000027"><a xlink:title=" ">
<path fill="none" stroke="#63b8ff" d="M1094.22,-157.54C1105.16,-159.64 1118.34,-162.16 1130.33,-164.46"/>
<polygon fill="#63b8ff" stroke="#63b8ff" points="1129.98,-167.95 1140.46,-166.4 1131.3,-161.08 1129.98,-167.95"/>
</a>
</g>
</g>
<!-- Node28 -->
<g id="Node000028" class="node">
<title>Node28</title>
<g id="a_Node000028"><a xlink:href="string_8c.html#ad7f1ae1bbb49dece44bda378982a704d" target="_top" xlink:title=" ">
<polygon fill="white" stroke="#666666" points="1296,-218.5 1237,-218.5 1237,-199.5 1296,-199.5 1296,-218.5"/>
<text text-anchor="middle" x="1266.5" y="-206.5" font-family="Helvetica,sans-Serif" font-size="10.00">memcpy</text>
</a>
</g>
</g>
<!-- Node26&#45;&gt;Node28 -->
<g id="edge35_Node000026_Node000028" class="edge">
<title>Node26&#45;&gt;Node28</title>
<g id="a_edge35_Node000026_Node000028"><a xlink:title=" ">
<path fill="none" stroke="#63b8ff" d="M1082.98,-162.59C1094.53,-170.96 1112.5,-182.71 1130,-189 1161.45,-200.31 1199.21,-205.23 1226.87,-207.37"/>
<polygon fill="#63b8ff" stroke="#63b8ff" points="1226.72,-210.87 1236.94,-208.06 1227.2,-203.88 1226.72,-210.87"/>
</a>
</g>
</g>
<!-- Node29 -->
<g id="Node000029" class="node">
<title>Node29</title>
<g id="a_Node000029"><a xlink:href="__Ldtob_8c.html#ab7ade9ce60aaa8baa0244b503351d742" target="_top" xlink:title=" ">
<polygon fill="white" stroke="#666666" points="1201,-143.5 1130,-143.5 1130,-124.5 1201,-124.5 1201,-143.5"/>
<text text-anchor="middle" x="1165.5" y="-131.5" font-family="Helvetica,sans-Serif" font-size="10.00">_Ldunscale</text>
</a>
</g>
</g>
<!-- Node26&#45;&gt;Node29 -->
<g id="edge33_Node000026_Node000029" class="edge">
<title>Node26&#45;&gt;Node29</title>
<g id="a_edge33_Node000026_Node000029"><a xlink:title=" ">
<path fill="none" stroke="#63b8ff" d="M1094.22,-148.21C1102.04,-146.62 1111.02,-144.81 1119.88,-143.02"/>
<polygon fill="#63b8ff" stroke="#63b8ff" points="1120.66,-146.43 1129.77,-141.02 1119.28,-139.57 1120.66,-146.43"/>
</a>
</g>
</g>
<!-- Node30 -->
<g id="Node000030" class="node">
<title>Node30</title>
<g id="a_Node000030"><a xlink:href="ldiv_8c.html#a0302920caf64a5fbe1ce0862799d7784" target="_top" xlink:title=" ">
<polygon fill="white" stroke="#666666" points="1183,-106.5 1148,-106.5 1148,-87.5 1183,-87.5 1183,-106.5"/>
<text text-anchor="middle" x="1165.5" y="-94.5" font-family="Helvetica,sans-Serif" font-size="10.00">ldiv</text>
</a>
</g>
</g>
<!-- Node26&#45;&gt;Node30 -->
<g id="edge34_Node000026_Node000030" class="edge">
<title>Node26&#45;&gt;Node30</title>
<g id="a_edge34_Node000026_Node000030"><a xlink:title=" ">
<path fill="none" stroke="#63b8ff" d="M1084.95,-143.27C1096.87,-135.37 1114.3,-124.09 1130,-115 1132.87,-113.34 1135.9,-111.66 1138.93,-110.02"/>
<polygon fill="#63b8ff" stroke="#63b8ff" points="1140.63,-113.08 1147.84,-105.32 1137.37,-106.89 1140.63,-113.08"/>
</a>
</g>
</g>
<!-- Node31 -->
<g id="Node000031" class="node">
<title>Node31</title>
<g id="a_Node000031"><a xlink:href="alBnkfNew_8c.html#a96a0200a6b40350e524f536d232ecb53" target="_top" xlink:title=" ">
<polygon fill="white" stroke="#666666" points="1191.5,-69.5 1139.5,-69.5 1139.5,-50.5 1191.5,-50.5 1191.5,-69.5"/>
<text text-anchor="middle" x="1165.5" y="-57.5" font-family="Helvetica,sans-Serif" font-size="10.00">unused</text>
</a>
</g>
</g>
<!-- Node26&#45;&gt;Node31 -->
<g id="edge36_Node000026_Node000031" class="edge">
<title>Node26&#45;&gt;Node31</title>
<g id="a_edge36_Node000026_Node000031"><a xlink:title=" ">
<path fill="none" stroke="#63b8ff" d="M1076.38,-143.16C1086,-127.7 1106.42,-97.48 1130,-78 1131.32,-76.91 1132.73,-75.85 1134.18,-74.84"/>
<polygon fill="#63b8ff" stroke="#63b8ff" points="1136.13,-77.74 1142.83,-69.53 1132.47,-71.78 1136.13,-77.74"/>
</a>
</g>
</g>
<!-- Node27&#45;&gt;Node28 -->
<g id="edge32_Node000027_Node000028" class="edge">
<title>Node27&#45;&gt;Node28</title>
<g id="a_edge32_Node000027_Node000028"><a xlink:title=" ">
<path fill="none" stroke="#63b8ff" d="M1190.72,-180.3C1202.88,-184.96 1217.82,-190.7 1231.15,-195.81"/>
<polygon fill="#63b8ff" stroke="#63b8ff" points="1229.91,-199.09 1240.5,-199.4 1232.42,-192.55 1229.91,-199.09"/>
</a>
</g>
</g>
<!-- Node32&#45;&gt;Node28 -->
<g id="edge39_Node000032_Node000028" class="edge">
<title>Node32&#45;&gt;Node28</title>
<g id="a_edge39_Node000032_Node000028"><a xlink:title=" ">
<path fill="none" stroke="#63b8ff" d="M1092.71,-243.14C1118.71,-238.56 1163.05,-230.61 1201,-223 1209.48,-221.3 1218.56,-219.39 1227.16,-217.53"/>
<polygon fill="#63b8ff" stroke="#63b8ff" points="1227.94,-220.95 1236.96,-215.4 1226.45,-214.11 1227.94,-220.95"/>
</a>
</g>
</g>
<!-- Node33 -->
<g id="Node000033" class="node">
<title>Node33</title>
<g id="a_Node000033"><a xlink:href="ldiv_8c.html#a5b23c3639f11980dca762c5f1d74f339" target="_top" xlink:title=" ">
<polygon fill="white" stroke="#666666" points="1184.5,-294.5 1146.5,-294.5 1146.5,-275.5 1184.5,-275.5 1184.5,-294.5"/>
<text text-anchor="middle" x="1165.5" y="-282.5" font-family="Helvetica,sans-Serif" font-size="10.00">lldiv</text>
</a>
</g>
</g>
<!-- Node32&#45;&gt;Node33 -->
<g id="edge38_Node000032_Node000033" class="edge">
<title>Node32&#45;&gt;Node33</title>
<g id="a_edge38_Node000032_Node000033"><a xlink:title=" ">
<path fill="none" stroke="#63b8ff" d="M1092.78,-256.01C1105.97,-261.34 1122.8,-268.14 1136.84,-273.82"/>
<polygon fill="#63b8ff" stroke="#63b8ff" points="1135.89,-277.21 1146.47,-277.71 1138.52,-270.72 1135.89,-277.21"/>
</a>
</g>
</g>
<!-- Node36&#45;&gt;Node36 -->
<g id="edge46_Node000036_Node000036" class="edge">
<title>Node36&#45;&gt;Node36</title>
<g id="a_edge46_Node000036_Node000036"><a xlink:title=" ">
<path fill="none" stroke="#63b8ff" d="M572.04,-67.58C561.84,-76.23 568.83,-85.5 593,-85.5 608.49,-85.5 616.92,-81.7 618.3,-76.69"/>
<polygon fill="#63b8ff" stroke="#63b8ff" points="621.42,-75.11 613.96,-67.58 615.1,-78.12 621.42,-75.11"/>
</a>
</g>
</g>
<!-- Node37 -->
<g id="Node000037" class="node">
<title>Node37</title>
<g id="a_Node000037"><a xlink:href="FrameInterpolation_8cpp.html#a5fbd67ef553452903cf553b9c224fa76" target="_top" xlink:title=" ">
<polygon fill="white" stroke="#666666" points="818,-58 690,-58 690,-28 818,-28 818,-58"/>
<text text-anchor="start" x="698" y="-46" font-family="Helvetica,sans-Serif" font-size="10.00">FrameInterpolation</text>
<text text-anchor="middle" x="754" y="-35" font-family="Helvetica,sans-Serif" font-size="10.00">_Record_SetTextMatrix</text>
</a>
</g>
</g>
<!-- Node36&#45;&gt;Node37 -->
<g id="edge44_Node000036_Node000037" class="edge">
<title>Node36&#45;&gt;Node37</title>
<g id="a_edge44_Node000036_Node000037"><a xlink:title=" ">
<path fill="none" stroke="#63b8ff" d="M635.36,-54.1C649.02,-52.81 664.65,-51.33 679.96,-49.89"/>
<polygon fill="#63b8ff" stroke="#63b8ff" points="680.33,-53.37 689.95,-48.95 679.67,-46.4 680.33,-53.37"/>
</a>
</g>
</g>
<!-- Node37&#45;&gt;Node17 -->
<g id="edge45_Node000037_Node000017" class="edge">
<title>Node37&#45;&gt;Node17</title>
<g id="a_edge45_Node000037_Node000017"><a xlink:title=" ">
<path fill="none" stroke="#63b8ff" d="M818.18,-51.5C835.04,-53.76 853.26,-56.21 870.13,-58.48"/>
<polygon fill="#63b8ff" stroke="#63b8ff" points="870.06,-62 880.44,-59.87 870.99,-55.06 870.06,-62"/>
</a>
</g>
</g>
</g>
</svg>

<g id="navigator" transform="translate(0 0)" fill="#404254">
  <rect fill="#f2f5e9" fill-opacity="0.5" stroke="#606060" stroke-width=".5" x="0" y="0" width="60" height="60"/>
  <use id="zoomplus" xlink:href="#zoomPlus" x="17" y="9" onmousedown="handleZoom(evt,'in')"/>
  <use id="zoomminus" xlink:href="#zoomMin" x="42" y="9" onmousedown="handleZoom(evt,'out')"/>
  <use id="reset" xlink:href="#resetDef" x="30" y="36" onmousedown="handleReset()"/>
   <use id="arrowup" xlink:href="#arrowUp" x="0" y="0" onmousedown="handlePan(0,-1)"/>
  <use id="arrowright" xlink:href="#arrowRight" x="0" y="0" onmousedown="handlePan(1,0)"/>
  <use id="arrowdown" xlink:href="#arrowDown" x="0" y="0" onmousedown="handlePan(0,1)"/>
  <use id="arrowleft" xlink:href="#arrowLeft" x="0" y="0" onmousedown="handlePan(-1,0)"/>
</g>
<svg viewBox="0 0 15 15" width="100%" height="30px" preserveAspectRatio="xMaxYMin meet">
 <g id="arrow_out" transform="scale(0.3 0.3)">
  <a xlink:href="menu__items_8h_a956e84601c3378e19ace2426c1217cec_cgraph_org.svg" target="_base">
   <rect id="button" ry="5" rx="5" y="6" x="6" height="38" width="38"
        fill="#f2f5e9" fill-opacity="0.5" stroke="#606060" stroke-width="1.0"/>
   <path id="arrow"
     d="M 11.500037,31.436501 C 11.940474,20.09759 22.043105,11.32322 32.158766,21.979434 L 37.068811,17.246167 C 37.068811,17.246167 37.088388,32 37.088388,32 L 22.160133,31.978069 C 22.160133,31.978069 26.997745,27.140456 26.997745,27.140456 C 18.528582,18.264221 13.291696,25.230495 11.500037,31.436501 z"
     style="fill:#404040;"/>
  </a>
 </g>
</svg>

<style type='text/css'>
<![CDATA[
[data-mouse-over-selected='false'] { opacity: 0.7; }
[data-mouse-over-selected='true']  { opacity: 1.0; }
]]>
</style>
<script type="application/ecmascript"><![CDATA[
document.addEventListener('DOMContentLoaded', (event) => {
  highlightEdges();
  highlightAdjacentNodes();
});
]]></script>
</svg>
