<?xml version="1.0" encoding="UTF-8" standalone="no"?>
<!DOCTYPE svg PUBLIC "-//W3C//DTD SVG 1.1//EN"
 "http://www.w3.org/Graphics/SVG/1.1/DTD/svg11.dtd">
<!-- Generated by graphviz version 2.43.0 (0)
 -->
<!-- Title: func_800930E4 Pages: 1 -->
<svg width="1447pt" height="523pt"
 viewBox="0.00 0.00 1447.00 522.50" xmlns="http://www.w3.org/2000/svg" xmlns:xlink="http://www.w3.org/1999/xlink">
<g id="graph0" class="graph" transform="scale(1 1) rotate(0) translate(4 518.5)">
<title>func_800930E4</title>
<!-- Node1 -->
<g id="Node000001" class="node">
<title>Node1</title>
<g id="a_Node000001"><a xlink:title=" ">
<polygon fill="#999999" stroke="#666666" points="91,-371.5 0,-371.5 0,-352.5 91,-352.5 91,-371.5"/>
<text text-anchor="middle" x="45.5" y="-359.5" font-family="Helvetica,sans-Serif" font-size="10.00">func_800930E4</text>
</a>
</g>
</g>
<!-- Node2 -->
<g id="Node000002" class="node">
<title>Node2</title>
<g id="a_Node000002"><a xlink:href="menu__items_8c.html#ad7caaa9bd54f2228a931877bd6eb3b87" target="_top" xlink:title=" ">
<polygon fill="white" stroke="#666666" points="235,-390.5 127,-390.5 127,-371.5 235,-371.5 235,-390.5"/>
<text text-anchor="middle" x="181" y="-378.5" font-family="Helvetica,sans-Serif" font-size="10.00">print_text_mode_1</text>
</a>
</g>
</g>
<!-- Node1&#45;&gt;Node2 -->
<g id="edge1_Node000001_Node000002" class="edge">
<title>Node1&#45;&gt;Node2</title>
<g id="a_edge1_Node000001_Node000002"><a xlink:title=" ">
<path fill="none" stroke="#63b8ff" d="M91.32,-368.38C99.49,-369.54 108.15,-370.77 116.73,-372"/>
<polygon fill="#63b8ff" stroke="#63b8ff" points="116.34,-375.48 126.74,-373.42 117.33,-368.55 116.34,-375.48"/>
</a>
</g>
</g>
<!-- Node39 -->
<g id="Node000039" class="node">
<title>Node39</title>
<g id="a_Node000039"><a xlink:href="menu__items_8c.html#a1a002f259a6c887d6672085b8cda7d4d" target="_top" xlink:title=" ">
<polygon fill="white" stroke="#666666" points="224,-353.5 138,-353.5 138,-334.5 224,-334.5 224,-353.5"/>
<text text-anchor="middle" x="181" y="-341.5" font-family="Helvetica,sans-Serif" font-size="10.00">set_text_color</text>
</a>
</g>
</g>
<!-- Node1&#45;&gt;Node39 -->
<g id="edge49_Node000001_Node000039" class="edge">
<title>Node1&#45;&gt;Node39</title>
<g id="a_edge49_Node000001_Node000039"><a xlink:title=" ">
<path fill="none" stroke="#63b8ff" d="M91.32,-355.96C103.04,-354.38 115.77,-352.66 127.84,-351.03"/>
<polygon fill="#63b8ff" stroke="#63b8ff" points="128.33,-354.5 137.78,-349.69 127.4,-347.56 128.33,-354.5"/>
</a>
</g>
</g>
<!-- Node3 -->
<g id="Node000003" class="node">
<title>Node3</title>
<g id="a_Node000003"><a xlink:href="menu__items_8c.html#a07904969a6bc8374f305d668f432b26a" target="_top" xlink:title=" ">
<polygon fill="white" stroke="#666666" points="341,-390.5 271,-390.5 271,-371.5 341,-371.5 341,-390.5"/>
<text text-anchor="middle" x="306" y="-378.5" font-family="Helvetica,sans-Serif" font-size="10.00">print_text0</text>
</a>
</g>
</g>
<!-- Node2&#45;&gt;Node3 -->
<g id="edge2_Node000002_Node000003" class="edge">
<title>Node2&#45;&gt;Node3</title>
<g id="a_edge2_Node000002_Node000003"><a xlink:title=" ">
<path fill="none" stroke="#63b8ff" d="M235.23,-381C243.73,-381 252.43,-381 260.69,-381"/>
<polygon fill="#63b8ff" stroke="#63b8ff" points="260.85,-384.5 270.85,-381 260.85,-377.5 260.85,-384.5"/>
</a>
</g>
</g>
<!-- Node4 -->
<g id="Node000004" class="node">
<title>Node4</title>
<g id="a_Node000004"><a xlink:href="menu__items_8c.html#ace62f40ce813c34904327e39643a0dbf" target="_top" xlink:title=" ">
<polygon fill="white" stroke="#666666" points="505,-476.5 388,-476.5 388,-457.5 505,-457.5 505,-476.5"/>
<text text-anchor="middle" x="446.5" y="-464.5" font-family="Helvetica,sans-Serif" font-size="10.00">char_to_glyph_index</text>
</a>
</g>
</g>
<!-- Node3&#45;&gt;Node4 -->
<g id="edge3_Node000003_Node000004" class="edge">
<title>Node3&#45;&gt;Node4</title>
<g id="a_edge3_Node000003_Node000004"><a xlink:title=" ">
<path fill="none" stroke="#63b8ff" d="M314.49,-390.76C326.23,-405.39 350.39,-432.87 377,-448 380.91,-450.22 385.09,-452.2 389.39,-453.95"/>
<polygon fill="#63b8ff" stroke="#63b8ff" points="388.33,-457.29 398.93,-457.44 390.74,-450.72 388.33,-457.29"/>
</a>
</g>
</g>
<!-- Node8 -->
<g id="Node000008" class="node">
<title>Node8</title>
<g id="a_Node000008"><a xlink:href="FrameInterpolation_8cpp.html#a14ceaeb116362786310778e36943f7be" target="_top" xlink:title=" ">
<polygon fill="white" stroke="#666666" points="516,-439 377,-439 377,-409 516,-409 516,-439"/>
<text text-anchor="start" x="385" y="-427" font-family="Helvetica,sans-Serif" font-size="10.00">FrameInterpolation</text>
<text text-anchor="middle" x="446.5" y="-416" font-family="Helvetica,sans-Serif" font-size="10.00">_ShouldInterpolateFrame</text>
</a>
</g>
</g>
<!-- Node3&#45;&gt;Node8 -->
<g id="edge8_Node000003_Node000008" class="edge">
<title>Node3&#45;&gt;Node8</title>
<g id="a_edge8_Node000003_Node000008"><a xlink:title=" ">
<path fill="none" stroke="#63b8ff" d="M337.74,-390.54C352.33,-395.07 370.26,-400.64 387.28,-405.93"/>
<polygon fill="#63b8ff" stroke="#63b8ff" points="386.58,-409.37 397.17,-408.99 388.65,-402.69 386.58,-409.37"/>
</a>
</g>
</g>
<!-- Node9 -->
<g id="Node000009" class="node">
<title>Node9</title>
<g id="a_Node000009"><a xlink:href="GBIMiddleware_8cpp.html#a4ecc44e3c6f1ca5a6b4a20c41d3bd2d2" target="_top" xlink:title=" ">
<polygon fill="white" stroke="#666666" points="941.5,-330.5 852.5,-330.5 852.5,-311.5 941.5,-311.5 941.5,-330.5"/>
<text text-anchor="middle" x="897" y="-318.5" font-family="Helvetica,sans-Serif" font-size="10.00">gSPDisplayList</text>
</a>
</g>
</g>
<!-- Node3&#45;&gt;Node9 -->
<g id="edge9_Node000003_Node000009" class="edge">
<title>Node3&#45;&gt;Node9</title>
<g id="a_edge9_Node000003_Node000009"><a xlink:title=" ">
<path fill="none" stroke="#63b8ff" d="M337.39,-371.43C349.59,-367.93 363.85,-364.28 377,-362 388.37,-360.03 711.88,-335.11 842.28,-325.11"/>
<polygon fill="#63b8ff" stroke="#63b8ff" points="842.74,-328.59 852.44,-324.33 842.21,-321.61 842.74,-328.59"/>
</a>
</g>
</g>
<!-- Node12 -->
<g id="Node000012" class="node">
<title>Node12</title>
<g id="a_Node000012"><a xlink:href="menu__items_8c.html#a68e560d23390d5add7cb57ccd82e21ae" target="_top" xlink:title=" ">
<polygon fill="white" stroke="#666666" points="494,-390.5 399,-390.5 399,-371.5 494,-371.5 494,-390.5"/>
<text text-anchor="middle" x="446.5" y="-378.5" font-family="Helvetica,sans-Serif" font-size="10.00">load_menu_img</text>
</a>
</g>
</g>
<!-- Node3&#45;&gt;Node12 -->
<g id="edge12_Node000003_Node000012" class="edge">
<title>Node3&#45;&gt;Node12</title>
<g id="a_edge12_Node000003_Node000012"><a xlink:title=" ">
<path fill="none" stroke="#63b8ff" d="M341.24,-381C355.5,-381 372.44,-381 388.48,-381"/>
<polygon fill="#63b8ff" stroke="#63b8ff" points="388.86,-384.5 398.86,-381 388.86,-377.5 388.86,-384.5"/>
</a>
</g>
</g>
<!-- Node14 -->
<g id="Node000014" class="node">
<title>Node14</title>
<g id="a_Node000014"><a xlink:href="menu__items_8c.html#aafca6e35a19465ad361e68b13e467243" target="_top" xlink:title=" ">
<polygon fill="white" stroke="#666666" points="482,-314.5 411,-314.5 411,-295.5 482,-295.5 482,-314.5"/>
<text text-anchor="middle" x="446.5" y="-302.5" font-family="Helvetica,sans-Serif" font-size="10.00">print_letter</text>
</a>
</g>
</g>
<!-- Node3&#45;&gt;Node14 -->
<g id="edge14_Node000003_Node000014" class="edge">
<title>Node3&#45;&gt;Node14</title>
<g id="a_edge14_Node000003_Node000014"><a xlink:title=" ">
<path fill="none" stroke="#63b8ff" d="M317.7,-371.42C330.86,-360.04 354.27,-341.07 377,-329 384.93,-324.79 393.74,-321.07 402.34,-317.89"/>
<polygon fill="#63b8ff" stroke="#63b8ff" points="403.62,-321.15 411.89,-314.53 401.3,-314.54 403.62,-321.15"/>
</a>
</g>
</g>
<!-- Node5 -->
<g id="Node000005" class="node">
<title>Node5</title>
<g id="a_Node000005"><a xlink:href="menu__items_8c.html#ae8ba1b567dba01ff15c64d416653a70b" target="_top" xlink:title=" ">
<polygon fill="white" stroke="#666666" points="644.5,-438.5 552.5,-438.5 552.5,-419.5 644.5,-419.5 644.5,-438.5"/>
<text text-anchor="middle" x="598.5" y="-426.5" font-family="Helvetica,sans-Serif" font-size="10.00">func_80092DF8</text>
</a>
</g>
</g>
<!-- Node4&#45;&gt;Node5 -->
<g id="edge4_Node000004_Node000005" class="edge">
<title>Node4&#45;&gt;Node5</title>
<g id="a_edge4_Node000004_Node000005"><a xlink:title=" ">
<path fill="none" stroke="#63b8ff" d="M485.35,-457.41C504.97,-452.44 529.12,-446.32 549.98,-441.04"/>
<polygon fill="#63b8ff" stroke="#63b8ff" points="551.09,-444.37 559.92,-438.52 549.37,-437.58 551.09,-444.37"/>
</a>
</g>
</g>
<!-- Node6 -->
<g id="Node000006" class="node">
<title>Node6</title>
<g id="a_Node000006"><a xlink:href="menu__items_8c.html#acd5b29a8e8634aa4f3db4b9a7c5ba033" target="_top" xlink:title=" ">
<polygon fill="white" stroke="#666666" points="782,-457.5 690,-457.5 690,-438.5 782,-438.5 782,-457.5"/>
<text text-anchor="middle" x="736" y="-445.5" font-family="Helvetica,sans-Serif" font-size="10.00">func_80092E1C</text>
</a>
</g>
</g>
<!-- Node4&#45;&gt;Node6 -->
<g id="edge6_Node000004_Node000006" class="edge">
<title>Node4&#45;&gt;Node6</title>
<g id="a_edge6_Node000004_Node000006"><a xlink:title=" ">
<path fill="none" stroke="#63b8ff" d="M505.33,-463.18C556.26,-459.81 629.92,-454.94 679.99,-451.64"/>
<polygon fill="#63b8ff" stroke="#63b8ff" points="680.24,-455.13 689.99,-450.97 679.78,-448.14 680.24,-455.13"/>
</a>
</g>
</g>
<!-- Node7 -->
<g id="Node000007" class="node">
<title>Node7</title>
<g id="a_Node000007"><a xlink:href="menu__items_8c.html#ab26c8dca1828cd1d5a6c341cb851f0b9" target="_top" xlink:title=" ">
<polygon fill="white" stroke="#666666" points="644,-514.5 553,-514.5 553,-495.5 644,-495.5 644,-514.5"/>
<text text-anchor="middle" x="598.5" y="-502.5" font-family="Helvetica,sans-Serif" font-size="10.00">func_80092EE4</text>
</a>
</g>
</g>
<!-- Node4&#45;&gt;Node7 -->
<g id="edge7_Node000004_Node000007" class="edge">
<title>Node4&#45;&gt;Node7</title>
<g id="a_edge7_Node000004_Node000007"><a xlink:title=" ">
<path fill="none" stroke="#63b8ff" d="M485.35,-476.59C504.97,-481.56 529.12,-487.68 549.98,-492.96"/>
<polygon fill="#63b8ff" stroke="#63b8ff" points="549.37,-496.42 559.92,-495.48 551.09,-489.63 549.37,-496.42"/>
</a>
</g>
</g>
<!-- Node5&#45;&gt;Node6 -->
<g id="edge5_Node000005_Node000006" class="edge">
<title>Node5&#45;&gt;Node6</title>
<g id="a_edge5_Node000005_Node000006"><a xlink:title=" ">
<path fill="none" stroke="#63b8ff" d="M644.62,-435.33C655.81,-436.9 667.94,-438.6 679.56,-440.23"/>
<polygon fill="#63b8ff" stroke="#63b8ff" points="679.23,-443.71 689.62,-441.64 680.2,-436.78 679.23,-443.71"/>
</a>
</g>
</g>
<!-- Node10 -->
<g id="Node000010" class="node">
<title>Node10</title>
<g id="a_Node000010"><a xlink:href="Engine_8cpp.html#a223c8bc63f228dc11177515e38eff2db" target="_top" xlink:title=" ">
<polygon fill="white" stroke="#666666" points="1152,-293.5 1003,-293.5 1003,-274.5 1152,-274.5 1152,-293.5"/>
<text text-anchor="middle" x="1077.5" y="-281.5" font-family="Helvetica,sans-Serif" font-size="10.00">GameEngine_OTRSigCheck</text>
</a>
</g>
</g>
<!-- Node9&#45;&gt;Node10 -->
<g id="edge10_Node000009_Node000010" class="edge">
<title>Node9&#45;&gt;Node10</title>
<g id="a_edge10_Node000009_Node000010"><a xlink:title=" ">
<path fill="none" stroke="#63b8ff" d="M941.67,-311.95C965.45,-307.02 995.13,-300.87 1020.59,-295.59"/>
<polygon fill="#63b8ff" stroke="#63b8ff" points="1021.4,-299 1030.48,-293.54 1019.98,-292.14 1021.4,-299"/>
</a>
</g>
</g>
<!-- Node11 -->
<g id="Node000011" class="node">
<title>Node11</title>
<g id="a_Node000011"><a xlink:href="string_8c.html#a008e171a518fe0e0352f31b245e03875" target="_top" xlink:title=" ">
<polygon fill="white" stroke="#666666" points="1234.5,-293.5 1190.5,-293.5 1190.5,-274.5 1234.5,-274.5 1234.5,-293.5"/>
<text text-anchor="middle" x="1212.5" y="-281.5" font-family="Helvetica,sans-Serif" font-size="10.00">strlen</text>
</a>
</g>
</g>
<!-- Node10&#45;&gt;Node11 -->
<g id="edge11_Node000010_Node000011" class="edge">
<title>Node10&#45;&gt;Node11</title>
<g id="a_edge11_Node000010_Node000011"><a xlink:title=" ">
<path fill="none" stroke="#63b8ff" d="M1152,-284C1161.89,-284 1171.56,-284 1180.14,-284"/>
<polygon fill="#63b8ff" stroke="#63b8ff" points="1180.36,-287.5 1190.36,-284 1180.36,-280.5 1180.36,-287.5"/>
</a>
</g>
</g>
<!-- Node13 -->
<g id="Node000013" class="node">
<title>Node13</title>
<g id="a_Node000013"><a xlink:href="menu__items_8c.html#a248768ee2e4ca9ae9cf0a30bfb256859" target="_top" xlink:title=" ">
<polygon fill="white" stroke="#666666" points="637.5,-390.5 559.5,-390.5 559.5,-371.5 637.5,-371.5 637.5,-390.5"/>
<text text-anchor="middle" x="598.5" y="-378.5" font-family="Helvetica,sans-Serif" font-size="10.00">load_texture</text>
</a>
</g>
</g>
<!-- Node12&#45;&gt;Node13 -->
<g id="edge13_Node000012_Node000013" class="edge">
<title>Node12&#45;&gt;Node13</title>
<g id="a_edge13_Node000012_Node000013"><a xlink:title=" ">
<path fill="none" stroke="#63b8ff" d="M494.14,-381C511.68,-381 531.65,-381 549.33,-381"/>
<polygon fill="#63b8ff" stroke="#63b8ff" points="549.44,-384.5 559.44,-381 549.44,-377.5 549.44,-384.5"/>
</a>
</g>
</g>
<!-- Node14&#45;&gt;Node9 -->
<g id="edge48_Node000014_Node000009" class="edge">
<title>Node14&#45;&gt;Node9</title>
<g id="a_edge48_Node000014_Node000009"><a xlink:title=" ">
<path fill="none" stroke="#63b8ff" d="M482.32,-306.24C560.28,-309.02 749.32,-315.77 842.4,-319.09"/>
<polygon fill="#63b8ff" stroke="#63b8ff" points="842.34,-322.59 852.46,-319.45 842.59,-315.59 842.34,-322.59"/>
</a>
</g>
</g>
<!-- Node15 -->
<g id="Node000015" class="node">
<title>Node15</title>
<g id="a_Node000015"><a xlink:href="menu__items_8c.html#a37eb021a953285ba504198ac6ca73a9a" target="_top" xlink:title=" ">
<polygon fill="white" stroke="#666666" points="645,-181.5 552,-181.5 552,-162.5 645,-162.5 645,-181.5"/>
<text text-anchor="middle" x="598.5" y="-169.5" font-family="Helvetica,sans-Serif" font-size="10.00">func_80095BD0</text>
</a>
</g>
</g>
<!-- Node14&#45;&gt;Node15 -->
<g id="edge15_Node000014_Node000015" class="edge">
<title>Node14&#45;&gt;Node15</title>
<g id="a_edge15_Node000014_Node000015"><a xlink:title=" ">
<path fill="none" stroke="#63b8ff" d="M458.29,-295.43C483.57,-273.02 546.91,-216.86 578.69,-188.68"/>
<polygon fill="#63b8ff" stroke="#63b8ff" points="581.25,-191.09 586.41,-181.84 576.6,-185.85 581.25,-191.09"/>
</a>
</g>
</g>
<!-- Node16 -->
<g id="Node000016" class="node">
<title>Node16</title>
<g id="a_Node000016"><a xlink:href="Matrix_8cpp.html#a6f64c44efb9bdfff802175a9739ce1f1" target="_top" xlink:title=" ">
<polygon fill="white" stroke="#666666" points="779.5,-138.5 692.5,-138.5 692.5,-119.5 779.5,-119.5 779.5,-138.5"/>
<text text-anchor="middle" x="736" y="-126.5" font-family="Helvetica,sans-Serif" font-size="10.00">AddTextMatrix</text>
</a>
</g>
</g>
<!-- Node15&#45;&gt;Node16 -->
<g id="edge16_Node000015_Node000016" class="edge">
<title>Node15&#45;&gt;Node16</title>
<g id="a_edge16_Node000015_Node000016"><a xlink:title=" ">
<path fill="none" stroke="#63b8ff" d="M629.57,-162.46C648.96,-156.31 674.38,-148.24 695.4,-141.57"/>
<polygon fill="#63b8ff" stroke="#63b8ff" points="696.54,-144.88 705.01,-138.52 694.42,-138.21 696.54,-144.88"/>
</a>
</g>
</g>
<!-- Node20 -->
<g id="Node000020" class="node">
<title>Node20</title>
<g id="a_Node000020"><a xlink:href="FrameInterpolation_8cpp.html#a3a036bc9d533e28a4e9697cd20dccf3e" target="_top" xlink:title=" ">
<polygon fill="white" stroke="#666666" points="791,-30 681,-30 681,0 791,0 791,-30"/>
<text text-anchor="start" x="689" y="-18" font-family="Helvetica,sans-Serif" font-size="10.00">FrameInterpolation</text>
<text text-anchor="middle" x="736" y="-7" font-family="Helvetica,sans-Serif" font-size="10.00">_RecordCloseChild</text>
</a>
</g>
</g>
<!-- Node15&#45;&gt;Node20 -->
<g id="edge20_Node000015_Node000020" class="edge">
<title>Node15&#45;&gt;Node20</title>
<g id="a_edge20_Node000015_Node000020"><a xlink:title=" ">
<path fill="none" stroke="#63b8ff" d="M603.08,-162.27C612.37,-138.25 639.45,-75.41 681,-39 682.33,-37.84 683.72,-36.72 685.16,-35.66"/>
<polygon fill="#63b8ff" stroke="#63b8ff" points="687.36,-38.4 693.87,-30.04 683.57,-32.52 687.36,-38.4"/>
</a>
</g>
</g>
<!-- Node21 -->
<g id="Node000021" class="node">
<title>Node21</title>
<g id="a_Node000021"><a xlink:href="FrameInterpolation_8cpp.html#a0eda726b74eac815af4e874014e2727c" target="_top" xlink:title=" ">
<polygon fill="white" stroke="#666666" points="791,-187 681,-187 681,-157 791,-157 791,-187"/>
<text text-anchor="start" x="689" y="-175" font-family="Helvetica,sans-Serif" font-size="10.00">FrameInterpolation</text>
<text text-anchor="middle" x="736" y="-164" font-family="Helvetica,sans-Serif" font-size="10.00">_RecordOpenChild</text>
</a>
</g>
</g>
<!-- Node15&#45;&gt;Node21 -->
<g id="edge22_Node000015_Node000021" class="edge">
<title>Node15&#45;&gt;Node21</title>
<g id="a_edge22_Node000015_Node000021"><a xlink:title=" ">
<path fill="none" stroke="#63b8ff" d="M645.37,-172C653.45,-172 662,-172 670.47,-172"/>
<polygon fill="#63b8ff" stroke="#63b8ff" points="670.74,-175.5 680.74,-172 670.74,-168.5 670.74,-175.5"/>
</a>
</g>
</g>
<!-- Node22 -->
<g id="Node000022" class="node">
<title>Node22</title>
<g id="a_Node000022"><a xlink:href="menu__items_8c.html#ae0fd5923ba70cf6939cd3fa8d09c1191" target="_top" xlink:title=" ">
<polygon fill="white" stroke="#666666" points="781.5,-276.5 690.5,-276.5 690.5,-257.5 781.5,-257.5 781.5,-276.5"/>
<text text-anchor="middle" x="736" y="-264.5" font-family="Helvetica,sans-Serif" font-size="10.00">func_800959F8</text>
</a>
</g>
</g>
<!-- Node15&#45;&gt;Node22 -->
<g id="edge24_Node000015_Node000022" class="edge">
<title>Node15&#45;&gt;Node22</title>
<g id="a_edge24_Node000015_Node000022"><a xlink:title=" ">
<path fill="none" stroke="#63b8ff" d="M611.7,-181.62C627.44,-193.91 655.8,-215.68 681,-233 690.31,-239.4 700.78,-246.1 710,-251.84"/>
<polygon fill="#63b8ff" stroke="#63b8ff" points="708.36,-254.95 718.71,-257.22 712.04,-248.99 708.36,-254.95"/>
</a>
</g>
</g>
<!-- Node24 -->
<g id="Node000024" class="node">
<title>Node24</title>
<g id="a_Node000024"><a xlink:href="stubs_8c.html#a8b417b868747c80d58f83d8a1e78ecf3" target="_top" xlink:title=" ">
<polygon fill="white" stroke="#666666" points="770,-224.5 702,-224.5 702,-205.5 770,-205.5 770,-224.5"/>
<text text-anchor="middle" x="736" y="-212.5" font-family="Helvetica,sans-Serif" font-size="10.00">rmonPrintf</text>
</a>
</g>
</g>
<!-- Node15&#45;&gt;Node24 -->
<g id="edge28_Node000015_Node000024" class="edge">
<title>Node15&#45;&gt;Node24</title>
<g id="a_edge28_Node000015_Node000024"><a xlink:title=" ">
<path fill="none" stroke="#63b8ff" d="M629.57,-181.54C648.96,-187.69 674.38,-195.76 695.4,-202.43"/>
<polygon fill="#63b8ff" stroke="#63b8ff" points="694.42,-205.79 705.01,-205.48 696.54,-199.12 694.42,-205.79"/>
</a>
</g>
</g>
<!-- Node37 -->
<g id="Node000037" class="node">
<title>Node37</title>
<g id="a_Node000037"><a xlink:href="Matrix_8cpp.html#a9818099a1ee20606a7d622e744846366" target="_top" xlink:title=" ">
<polygon fill="white" stroke="#666666" points="778,-67.5 694,-67.5 694,-48.5 778,-48.5 778,-67.5"/>
<text text-anchor="middle" x="736" y="-55.5" font-family="Helvetica,sans-Serif" font-size="10.00">SetTextMatrix</text>
</a>
</g>
</g>
<!-- Node15&#45;&gt;Node37 -->
<g id="edge44_Node000015_Node000037" class="edge">
<title>Node15&#45;&gt;Node37</title>
<g id="a_edge44_Node000015_Node000037"><a xlink:title=" ">
<path fill="none" stroke="#63b8ff" d="M611.05,-162.28C634.35,-142.68 687.19,-98.23 715.77,-74.18"/>
<polygon fill="#63b8ff" stroke="#63b8ff" points="718.08,-76.81 723.48,-67.69 713.57,-71.45 718.08,-76.81"/>
</a>
</g>
</g>
<!-- Node17 -->
<g id="Node000017" class="node">
<title>Node17</title>
<g id="a_Node000017"><a xlink:href="FrameInterpolation_8cpp.html#a8cf1f2d6fabc6925aa71a9515341b4aa" target="_top" xlink:title=" ">
<polygon fill="white" stroke="#666666" points="967,-106 827,-106 827,-76 967,-76 967,-106"/>
<text text-anchor="start" x="835" y="-94" font-family="Helvetica,sans-Serif" font-size="10.00">FrameInterpolation</text>
<text text-anchor="middle" x="897" y="-83" font-family="Helvetica,sans-Serif" font-size="10.00">_RecordMatrixMtxFToMtx</text>
</a>
</g>
</g>
<!-- Node16&#45;&gt;Node17 -->
<g id="edge17_Node000016_Node000017" class="edge">
<title>Node16&#45;&gt;Node17</title>
<g id="a_edge17_Node000016_Node000017"><a xlink:title=" ">
<path fill="none" stroke="#63b8ff" d="M777.12,-119.41C791.14,-116.06 807.34,-112.19 823.19,-108.4"/>
<polygon fill="#63b8ff" stroke="#63b8ff" points="824.08,-111.79 832.99,-106.06 822.45,-104.98 824.08,-111.79"/>
</a>
</g>
</g>
<!-- Node19 -->
<g id="Node000019" class="node">
<title>Node19</title>
<g id="a_Node000019"><a xlink:href="guMtxF2L_8c.html#a40ab2d64c609839ff1e0ef0de2d0dcc4" target="_top" xlink:title=" ">
<polygon fill="white" stroke="#666666" points="929.5,-143.5 864.5,-143.5 864.5,-124.5 929.5,-124.5 929.5,-143.5"/>
<text text-anchor="middle" x="897" y="-131.5" font-family="Helvetica,sans-Serif" font-size="10.00">guMtxF2L</text>
</a>
</g>
</g>
<!-- Node16&#45;&gt;Node19 -->
<g id="edge19_Node000016_Node000019" class="edge">
<title>Node16&#45;&gt;Node19</title>
<g id="a_edge19_Node000016_Node000019"><a xlink:title=" ">
<path fill="none" stroke="#63b8ff" d="M779.61,-130.34C802.74,-131.07 831.23,-131.96 854.23,-132.69"/>
<polygon fill="#63b8ff" stroke="#63b8ff" points="854.27,-136.19 864.38,-133.01 854.49,-129.19 854.27,-136.19"/>
</a>
</g>
</g>
<!-- Node18 -->
<g id="Node000018" class="node">
<title>Node18</title>
<g id="a_Node000018"><a xlink:href="FrameInterpolation_8cpp.html#a02c7ac5342a4d376edee38f312b480bf" target="_top" xlink:title=" ">
<polygon fill="white" stroke="#666666" points="1131.5,-76.5 1023.5,-76.5 1023.5,-57.5 1131.5,-57.5 1131.5,-76.5"/>
<text text-anchor="middle" x="1077.5" y="-64.5" font-family="Helvetica,sans-Serif" font-size="10.00">check_if_recording</text>
</a>
</g>
</g>
<!-- Node17&#45;&gt;Node18 -->
<g id="edge18_Node000017_Node000018" class="edge">
<title>Node17&#45;&gt;Node18</title>
<g id="a_edge18_Node000017_Node000018"><a xlink:title=" ">
<path fill="none" stroke="#63b8ff" d="M967.01,-81.72C982.24,-79.67 998.29,-77.52 1013.27,-75.5"/>
<polygon fill="#63b8ff" stroke="#63b8ff" points="1014.01,-78.93 1023.45,-74.13 1013.07,-72 1014.01,-78.93"/>
</a>
</g>
</g>
<!-- Node20&#45;&gt;Node18 -->
<g id="edge21_Node000020_Node000018" class="edge">
<title>Node20&#45;&gt;Node18</title>
<g id="a_edge21_Node000020_Node000018"><a xlink:title=" ">
<path fill="none" stroke="#63b8ff" d="M791.14,-9.99C838.19,-7.05 907.89,-6.08 967,-19 997.38,-25.64 1029.71,-40.95 1051.3,-52.51"/>
<polygon fill="#63b8ff" stroke="#63b8ff" points="1049.68,-55.61 1060.13,-57.35 1053.05,-49.48 1049.68,-55.61"/>
</a>
</g>
</g>
<!-- Node21&#45;&gt;Node18 -->
<g id="edge23_Node000021_Node000018" class="edge">
<title>Node21&#45;&gt;Node18</title>
<g id="a_edge23_Node000021_Node000018"><a xlink:title=" ">
<path fill="none" stroke="#63b8ff" d="M791.01,-175.76C838.9,-177.15 909.9,-174.37 967,-152 1005.38,-136.96 1041.41,-104 1061.07,-83.83"/>
<polygon fill="#63b8ff" stroke="#63b8ff" points="1063.64,-86.2 1067.99,-76.55 1058.57,-81.38 1063.64,-86.2"/>
</a>
</g>
</g>
<!-- Node22&#45;&gt;Node9 -->
<g id="edge25_Node000022_Node000009" class="edge">
<title>Node22&#45;&gt;Node9</title>
<g id="a_edge25_Node000022_Node000009"><a xlink:title=" ">
<path fill="none" stroke="#63b8ff" d="M759.7,-276.57C777.76,-284 803.76,-294.31 827,-302 833.97,-304.31 841.41,-306.57 848.72,-308.67"/>
<polygon fill="#63b8ff" stroke="#63b8ff" points="847.97,-312.1 858.55,-311.44 849.87,-305.36 847.97,-312.1"/>
</a>
</g>
</g>
<!-- Node23 -->
<g id="Node000023" class="node">
<title>Node23</title>
<g id="a_Node000023"><a xlink:href="GBIMiddleware_8cpp.html#aeef79449a27a710d73576e4a4f7f7f99" target="_top" xlink:title=" ">
<polygon fill="white" stroke="#666666" points="930,-293.5 864,-293.5 864,-274.5 930,-274.5 930,-293.5"/>
<text text-anchor="middle" x="897" y="-281.5" font-family="Helvetica,sans-Serif" font-size="10.00">gSPVertex</text>
</a>
</g>
</g>
<!-- Node22&#45;&gt;Node23 -->
<g id="edge26_Node000022_Node000023" class="edge">
<title>Node22&#45;&gt;Node23</title>
<g id="a_edge26_Node000022_Node000023"><a xlink:title=" ">
<path fill="none" stroke="#63b8ff" d="M781.71,-271.78C804.23,-274.19 831.39,-277.09 853.58,-279.46"/>
<polygon fill="#63b8ff" stroke="#63b8ff" points="853.4,-282.96 863.71,-280.55 854.14,-276 853.4,-282.96"/>
</a>
</g>
</g>
<!-- Node23&#45;&gt;Node10 -->
<g id="edge27_Node000023_Node000010" class="edge">
<title>Node23&#45;&gt;Node10</title>
<g id="a_edge27_Node000023_Node000010"><a xlink:title=" ">
<path fill="none" stroke="#63b8ff" d="M930.33,-284C947.92,-284 970.59,-284 992.8,-284"/>
<polygon fill="#63b8ff" stroke="#63b8ff" points="992.95,-287.5 1002.95,-284 992.95,-280.5 992.95,-287.5"/>
</a>
</g>
</g>
<!-- Node25 -->
<g id="Node000025" class="node">
<title>Node25</title>
<g id="a_Node000025"><a xlink:href="__Printf_8c.html#a39bb05c90efce6c6790c5d58d271d72d" target="_top" xlink:title=" ">
<polygon fill="white" stroke="#666666" points="921,-219.5 873,-219.5 873,-200.5 921,-200.5 921,-219.5"/>
<text text-anchor="middle" x="897" y="-207.5" font-family="Helvetica,sans-Serif" font-size="10.00">_Printf</text>
</a>
</g>
</g>
<!-- Node24&#45;&gt;Node25 -->
<g id="edge29_Node000024_Node000025" class="edge">
<title>Node24&#45;&gt;Node25</title>
<g id="a_edge29_Node000024_Node000025"><a xlink:title=" ">
<path fill="none" stroke="#63b8ff" d="M770.33,-213.95C797.5,-213.1 835.69,-211.9 862.82,-211.04"/>
<polygon fill="#63b8ff" stroke="#63b8ff" points="863.1,-214.54 872.99,-210.72 862.88,-207.54 863.1,-214.54"/>
</a>
</g>
</g>
<!-- Node36 -->
<g id="Node000036" class="node">
<title>Node36</title>
<g id="a_Node000036"><a xlink:href="is__debug_8c.html#aaccfac8d9098530b6592eefe679d86b4" target="_top" xlink:title=" ">
<polygon fill="white" stroke="#666666" points="949.5,-256.5 844.5,-256.5 844.5,-237.5 949.5,-237.5 949.5,-256.5"/>
<text text-anchor="middle" x="897" y="-244.5" font-family="Helvetica,sans-Serif" font-size="10.00">is_proutSyncPrintf</text>
</a>
</g>
</g>
<!-- Node24&#45;&gt;Node36 -->
<g id="edge43_Node000024_Node000036" class="edge">
<title>Node24&#45;&gt;Node36</title>
<g id="a_edge43_Node000024_Node000036"><a xlink:title=" ">
<path fill="none" stroke="#63b8ff" d="M770.33,-221.71C790.08,-225.68 815.65,-230.83 838.57,-235.44"/>
<polygon fill="#63b8ff" stroke="#63b8ff" points="838.04,-238.91 848.54,-237.45 839.43,-232.04 838.04,-238.91"/>
</a>
</g>
</g>
<!-- Node26 -->
<g id="Node000026" class="node">
<title>Node26</title>
<g id="a_Node000026"><a xlink:href="__Printf_8c.html#ad73a5847f2d7c9de14cc2723da86bf45" target="_top" xlink:title=" ">
<polygon fill="white" stroke="#666666" points="1102.5,-256.5 1052.5,-256.5 1052.5,-237.5 1102.5,-237.5 1102.5,-256.5"/>
<text text-anchor="middle" x="1077.5" y="-244.5" font-family="Helvetica,sans-Serif" font-size="10.00">_Putfld</text>
</a>
</g>
</g>
<!-- Node25&#45;&gt;Node26 -->
<g id="edge30_Node000025_Node000026" class="edge">
<title>Node25&#45;&gt;Node26</title>
<g id="a_edge30_Node000025_Node000026"><a xlink:title=" ">
<path fill="none" stroke="#63b8ff" d="M921.34,-214.84C952.21,-221.24 1006.87,-232.57 1042.39,-239.93"/>
<polygon fill="#63b8ff" stroke="#63b8ff" points="1041.8,-243.38 1052.3,-241.98 1043.22,-236.53 1041.8,-243.38"/>
</a>
</g>
</g>
<!-- Node35 -->
<g id="Node000035" class="node">
<title>Node35</title>
<g id="a_Node000035"><a xlink:href="string_8c.html#a988b4defe51a1815ef3b9ddab10e7a89" target="_top" xlink:title=" ">
<polygon fill="white" stroke="#666666" points="1099.5,-219.5 1055.5,-219.5 1055.5,-200.5 1099.5,-200.5 1099.5,-219.5"/>
<text text-anchor="middle" x="1077.5" y="-207.5" font-family="Helvetica,sans-Serif" font-size="10.00">strchr</text>
</a>
</g>
</g>
<!-- Node25&#45;&gt;Node35 -->
<g id="edge42_Node000025_Node000035" class="edge">
<title>Node25&#45;&gt;Node35</title>
<g id="a_edge42_Node000025_Node000035"><a xlink:title=" ">
<path fill="none" stroke="#63b8ff" d="M921.34,-210C953.02,-210 1009.76,-210 1045.14,-210"/>
<polygon fill="#63b8ff" stroke="#63b8ff" points="1045.38,-213.5 1055.38,-210 1045.38,-206.5 1045.38,-213.5"/>
</a>
</g>
</g>
<!-- Node26&#45;&gt;Node11 -->
<g id="edge41_Node000026_Node000011" class="edge">
<title>Node26&#45;&gt;Node11</title>
<g id="a_edge41_Node000026_Node000011"><a xlink:title=" ">
<path fill="none" stroke="#63b8ff" d="M1102.78,-252.5C1117.15,-255.87 1135.69,-260.4 1152,-265 1161.43,-267.66 1171.61,-270.8 1180.84,-273.76"/>
<polygon fill="#63b8ff" stroke="#63b8ff" points="1179.81,-277.11 1190.4,-276.87 1181.97,-270.45 1179.81,-277.11"/>
</a>
</g>
</g>
<!-- Node27 -->
<g id="Node000027" class="node">
<title>Node27</title>
<g id="a_Node000027"><a xlink:href="__Ldtob_8c.html#a7cc858157b66e15c831ad085113729ae" target="_top" xlink:title=" ">
<polygon fill="white" stroke="#666666" points="1237,-162.5 1188,-162.5 1188,-143.5 1237,-143.5 1237,-162.5"/>
<text text-anchor="middle" x="1212.5" y="-150.5" font-family="Helvetica,sans-Serif" font-size="10.00">_Ldtob</text>
</a>
</g>
</g>
<!-- Node26&#45;&gt;Node27 -->
<g id="edge31_Node000026_Node000027" class="edge">
<title>Node26&#45;&gt;Node27</title>
<g id="a_edge31_Node000026_Node000027"><a xlink:title=" ">
<path fill="none" stroke="#63b8ff" d="M1102.58,-244.73C1117.75,-242.38 1137.19,-237.63 1152,-228 1173.78,-213.84 1191.15,-189.01 1201.37,-171.82"/>
<polygon fill="#63b8ff" stroke="#63b8ff" points="1204.64,-173.14 1206.54,-162.72 1198.56,-169.68 1204.64,-173.14"/>
</a>
</g>
</g>
<!-- Node33 -->
<g id="Node000033" class="node">
<title>Node33</title>
<g id="a_Node000033"><a xlink:href="__Litob_8c.html#aaaba3b0ab7920d422a61fe9e22600dd0" target="_top" xlink:title=" ">
<polygon fill="white" stroke="#666666" points="1235.5,-256.5 1189.5,-256.5 1189.5,-237.5 1235.5,-237.5 1235.5,-256.5"/>
<text text-anchor="middle" x="1212.5" y="-244.5" font-family="Helvetica,sans-Serif" font-size="10.00">_Litob</text>
</a>
</g>
</g>
<!-- Node26&#45;&gt;Node33 -->
<g id="edge38_Node000026_Node000033" class="edge">
<title>Node26&#45;&gt;Node33</title>
<g id="a_edge38_Node000026_Node000033"><a xlink:title=" ">
<path fill="none" stroke="#63b8ff" d="M1102.59,-247C1124.01,-247 1155.51,-247 1179.13,-247"/>
<polygon fill="#63b8ff" stroke="#63b8ff" points="1179.36,-250.5 1189.36,-247 1179.36,-243.5 1179.36,-250.5"/>
</a>
</g>
</g>
<!-- Node28 -->
<g id="Node000028" class="node">
<title>Node28</title>
<g id="a_Node000028"><a xlink:href="__Ldtob_8c.html#a2b6c5318b43bab1636bad9113ffb2761" target="_top" xlink:title=" ">
<polygon fill="white" stroke="#666666" points="1333.5,-180.5 1283.5,-180.5 1283.5,-161.5 1333.5,-161.5 1333.5,-180.5"/>
<text text-anchor="middle" x="1308.5" y="-168.5" font-family="Helvetica,sans-Serif" font-size="10.00">_Genld</text>
</a>
</g>
</g>
<!-- Node27&#45;&gt;Node28 -->
<g id="edge32_Node000027_Node000028" class="edge">
<title>Node27&#45;&gt;Node28</title>
<g id="a_edge32_Node000027_Node000028"><a xlink:title=" ">
<path fill="none" stroke="#63b8ff" d="M1237.22,-157.54C1248.16,-159.64 1261.34,-162.16 1273.33,-164.46"/>
<polygon fill="#63b8ff" stroke="#63b8ff" points="1272.98,-167.95 1283.46,-166.4 1274.3,-161.08 1272.98,-167.95"/>
</a>
</g>
</g>
<!-- Node29 -->
<g id="Node000029" class="node">
<title>Node29</title>
<g id="a_Node000029"><a xlink:href="string_8c.html#ad7f1ae1bbb49dece44bda378982a704d" target="_top" xlink:title=" ">
<polygon fill="white" stroke="#666666" points="1439,-218.5 1380,-218.5 1380,-199.5 1439,-199.5 1439,-218.5"/>
<text text-anchor="middle" x="1409.5" y="-206.5" font-family="Helvetica,sans-Serif" font-size="10.00">memcpy</text>
</a>
</g>
</g>
<!-- Node27&#45;&gt;Node29 -->
<g id="edge36_Node000027_Node000029" class="edge">
<title>Node27&#45;&gt;Node29</title>
<g id="a_edge36_Node000027_Node000029"><a xlink:title=" ">
<path fill="none" stroke="#63b8ff" d="M1225.98,-162.59C1237.53,-170.96 1255.5,-182.71 1273,-189 1304.45,-200.31 1342.21,-205.23 1369.87,-207.37"/>
<polygon fill="#63b8ff" stroke="#63b8ff" points="1369.72,-210.87 1379.94,-208.06 1370.2,-203.88 1369.72,-210.87"/>
</a>
</g>
</g>
<!-- Node30 -->
<g id="Node000030" class="node">
<title>Node30</title>
<g id="a_Node000030"><a xlink:href="__Ldtob_8c.html#ab7ade9ce60aaa8baa0244b503351d742" target="_top" xlink:title=" ">
<polygon fill="white" stroke="#666666" points="1344,-143.5 1273,-143.5 1273,-124.5 1344,-124.5 1344,-143.5"/>
<text text-anchor="middle" x="1308.5" y="-131.5" font-family="Helvetica,sans-Serif" font-size="10.00">_Ldunscale</text>
</a>
</g>
</g>
<!-- Node27&#45;&gt;Node30 -->
<g id="edge34_Node000027_Node000030" class="edge">
<title>Node27&#45;&gt;Node30</title>
<g id="a_edge34_Node000027_Node000030"><a xlink:title=" ">
<path fill="none" stroke="#63b8ff" d="M1237.22,-148.21C1245.04,-146.62 1254.02,-144.81 1262.88,-143.02"/>
<polygon fill="#63b8ff" stroke="#63b8ff" points="1263.66,-146.43 1272.77,-141.02 1262.28,-139.57 1263.66,-146.43"/>
</a>
</g>
</g>
<!-- Node31 -->
<g id="Node000031" class="node">
<title>Node31</title>
<g id="a_Node000031"><a xlink:href="ldiv_8c.html#a0302920caf64a5fbe1ce0862799d7784" target="_top" xlink:title=" ">
<polygon fill="white" stroke="#666666" points="1326,-106.5 1291,-106.5 1291,-87.5 1326,-87.5 1326,-106.5"/>
<text text-anchor="middle" x="1308.5" y="-94.5" font-family="Helvetica,sans-Serif" font-size="10.00">ldiv</text>
</a>
</g>
</g>
<!-- Node27&#45;&gt;Node31 -->
<g id="edge35_Node000027_Node000031" class="edge">
<title>Node27&#45;&gt;Node31</title>
<g id="a_edge35_Node000027_Node000031"><a xlink:title=" ">
<path fill="none" stroke="#63b8ff" d="M1227.95,-143.27C1239.87,-135.37 1257.3,-124.09 1273,-115 1275.87,-113.34 1278.9,-111.66 1281.93,-110.02"/>
<polygon fill="#63b8ff" stroke="#63b8ff" points="1283.63,-113.08 1290.84,-105.32 1280.37,-106.89 1283.63,-113.08"/>
</a>
</g>
</g>
<!-- Node32 -->
<g id="Node000032" class="node">
<title>Node32</title>
<g id="a_Node000032"><a xlink:href="alBnkfNew_8c.html#a96a0200a6b40350e524f536d232ecb53" target="_top" xlink:title=" ">
<polygon fill="white" stroke="#666666" points="1334.5,-69.5 1282.5,-69.5 1282.5,-50.5 1334.5,-50.5 1334.5,-69.5"/>
<text text-anchor="middle" x="1308.5" y="-57.5" font-family="Helvetica,sans-Serif" font-size="10.00">unused</text>
</a>
</g>
</g>
<!-- Node27&#45;&gt;Node32 -->
<g id="edge37_Node000027_Node000032" class="edge">
<title>Node27&#45;&gt;Node32</title>
<g id="a_edge37_Node000027_Node000032"><a xlink:title=" ">
<path fill="none" stroke="#63b8ff" d="M1219.38,-143.16C1229,-127.7 1249.42,-97.48 1273,-78 1274.32,-76.91 1275.73,-75.85 1277.18,-74.84"/>
<polygon fill="#63b8ff" stroke="#63b8ff" points="1279.13,-77.74 1285.83,-69.53 1275.47,-71.78 1279.13,-77.74"/>
</a>
</g>
</g>
<!-- Node28&#45;&gt;Node29 -->
<g id="edge33_Node000028_Node000029" class="edge">
<title>Node28&#45;&gt;Node29</title>
<g id="a_edge33_Node000028_Node000029"><a xlink:title=" ">
<path fill="none" stroke="#63b8ff" d="M1333.72,-180.3C1345.88,-184.96 1360.82,-190.7 1374.15,-195.81"/>
<polygon fill="#63b8ff" stroke="#63b8ff" points="1372.91,-199.09 1383.5,-199.4 1375.42,-192.55 1372.91,-199.09"/>
</a>
</g>
</g>
<!-- Node33&#45;&gt;Node29 -->
<g id="edge40_Node000033_Node000029" class="edge">
<title>Node33&#45;&gt;Node29</title>
<g id="a_edge40_Node000033_Node000029"><a xlink:title=" ">
<path fill="none" stroke="#63b8ff" d="M1235.71,-243.14C1261.71,-238.56 1306.05,-230.61 1344,-223 1352.48,-221.3 1361.56,-219.39 1370.16,-217.53"/>
<polygon fill="#63b8ff" stroke="#63b8ff" points="1370.94,-220.95 1379.96,-215.4 1369.45,-214.11 1370.94,-220.95"/>
</a>
</g>
</g>
<!-- Node34 -->
<g id="Node000034" class="node">
<title>Node34</title>
<g id="a_Node000034"><a xlink:href="ldiv_8c.html#a5b23c3639f11980dca762c5f1d74f339" target="_top" xlink:title=" ">
<polygon fill="white" stroke="#666666" points="1327.5,-294.5 1289.5,-294.5 1289.5,-275.5 1327.5,-275.5 1327.5,-294.5"/>
<text text-anchor="middle" x="1308.5" y="-282.5" font-family="Helvetica,sans-Serif" font-size="10.00">lldiv</text>
</a>
</g>
</g>
<!-- Node33&#45;&gt;Node34 -->
<g id="edge39_Node000033_Node000034" class="edge">
<title>Node33&#45;&gt;Node34</title>
<g id="a_edge39_Node000033_Node000034"><a xlink:title=" ">
<path fill="none" stroke="#63b8ff" d="M1235.78,-256.01C1248.97,-261.34 1265.8,-268.14 1279.84,-273.82"/>
<polygon fill="#63b8ff" stroke="#63b8ff" points="1278.89,-277.21 1289.47,-277.71 1281.52,-270.72 1278.89,-277.21"/>
</a>
</g>
</g>
<!-- Node37&#45;&gt;Node37 -->
<g id="edge47_Node000037_Node000037" class="edge">
<title>Node37&#45;&gt;Node37</title>
<g id="a_edge47_Node000037_Node000037"><a xlink:title=" ">
<path fill="none" stroke="#63b8ff" d="M715.04,-67.58C704.84,-76.23 711.83,-85.5 736,-85.5 751.49,-85.5 759.92,-81.7 761.3,-76.69"/>
<polygon fill="#63b8ff" stroke="#63b8ff" points="764.42,-75.11 756.96,-67.58 758.1,-78.12 764.42,-75.11"/>
</a>
</g>
</g>
<!-- Node38 -->
<g id="Node000038" class="node">
<title>Node38</title>
<g id="a_Node000038"><a xlink:href="FrameInterpolation_8cpp.html#a5fbd67ef553452903cf553b9c224fa76" target="_top" xlink:title=" ">
<polygon fill="white" stroke="#666666" points="961,-58 833,-58 833,-28 961,-28 961,-58"/>
<text text-anchor="start" x="841" y="-46" font-family="Helvetica,sans-Serif" font-size="10.00">FrameInterpolation</text>
<text text-anchor="middle" x="897" y="-35" font-family="Helvetica,sans-Serif" font-size="10.00">_Record_SetTextMatrix</text>
</a>
</g>
</g>
<!-- Node37&#45;&gt;Node38 -->
<g id="edge45_Node000037_Node000038" class="edge">
<title>Node37&#45;&gt;Node38</title>
<g id="a_edge45_Node000037_Node000038"><a xlink:title=" ">
<path fill="none" stroke="#63b8ff" d="M778.36,-54.1C792.02,-52.81 807.65,-51.33 822.96,-49.89"/>
<polygon fill="#63b8ff" stroke="#63b8ff" points="823.33,-53.37 832.95,-48.95 822.67,-46.4 823.33,-53.37"/>
</a>
</g>
</g>
<!-- Node38&#45;&gt;Node18 -->
<g id="edge46_Node000038_Node000018" class="edge">
<title>Node38&#45;&gt;Node18</title>
<g id="a_edge46_Node000038_Node000018"><a xlink:title=" ">
<path fill="none" stroke="#63b8ff" d="M961.18,-51.5C978.04,-53.76 996.26,-56.21 1013.13,-58.48"/>
<polygon fill="#63b8ff" stroke="#63b8ff" points="1013.06,-62 1023.44,-59.87 1013.99,-55.06 1013.06,-62"/>
</a>
</g>
</g>
</g>
</svg>
