<?xml version="1.0" encoding="UTF-8" standalone="no"?>
<!DOCTYPE svg PUBLIC "-//W3C//DTD SVG 1.1//EN"
 "http://www.w3.org/Graphics/SVG/1.1/DTD/svg11.dtd">
<!-- Generated by graphviz version 2.43.0 (0)
 -->
<!-- Title: func_800A761C Pages: 1 -->
<!--zoomable 455 -->

<svg id="main" version="1.1" xmlns="http://www.w3.org/2000/svg" xmlns:xlink="http://www.w3.org/1999/xlink" xml:space="preserve" onload="init(evt)">

<style type="text/css"><![CDATA[
.node, .edge {opacity: 0.7;}
.node.selected, .edge.selected {opacity: 1;}
.edge:hover path { stroke: red; }
.edge:hover polygon { stroke: red; fill: red; }
]]></style>

<defs>
  <circle id="rim" cx="0" cy="0" r="7"/>
  <circle id="rim2" cx="0" cy="0" r="3.5"/>
  <g id="zoomPlus">
    <use xlink:href="#rim" fill="#404040"><set attributeName="fill" to="#808080" begin="zoomplus.mouseover" end="zoomplus.mouseout"/></use>
    <path d="M-4,0h8M0,-4v8" fill="none" stroke="white" stroke-width="1.5" pointer-events="none"/>
  </g>
  <g id="zoomMin">
    <use xlink:href="#rim" fill="#404040"><set attributeName="fill" to="#808080" begin="zoomminus.mouseover" end="zoomminus.mouseout"/></use>
    <path d="M-4,0h8" fill="none" stroke="white" stroke-width="1.5" pointer-events="none"/>
  </g>
  <g id="arrowUp" transform="translate(30 24)">
    <use xlink:href="#rim"/>
    <path pointer-events="none" fill="none" stroke="white" stroke-width="1.5" d="M0,-3.0v7 M-2.5,-0.5L0,-3.0L2.5,-0.5"/>
  </g>
  <g id="arrowRight" transform="rotate(90) translate(36 -43)">
    <use xlink:href="#rim"/>
    <path pointer-events="none" fill="none" stroke="white" stroke-width="1.5" d="M0,-3.0v7 M-2.5,-0.5L0,-3.0L2.5,-0.5"/>
  </g>
  <g id="arrowDown" transform="rotate(180) translate(-30 -48)">
    <use xlink:href="#rim"/>
    <path pointer-events="none" fill="none" stroke="white" stroke-width="1.5" d="M0,-3.0v7 M-2.5,-0.5L0,-3.0L2.5,-0.5"/>
  </g>
  <g id="arrowLeft" transform="rotate(270) translate(-36 17)">
    <use xlink:href="#rim"/>
    <path pointer-events="none" fill="none" stroke="white" stroke-width="1.5" d="M0,-3.0v7 M-2.5,-0.5L0,-3.0L2.5,-0.5"/>
  </g>
  <g id="resetDef">
    <use xlink:href="#rim2" fill="#404040"><set attributeName="fill" to="#808080" begin="reset.mouseover" end="reset.mouseout"/></use>
  </g>
</defs>
<script type="application/ecmascript">
var viewWidth = 1507;
var viewHeight = 455;
var sectionId = 'dynsection-239';
</script>
<script type="application/ecmascript" xlink:href="svg.min.js"/>
<svg id="graph" class="graph">
<g id="viewport">
<title>func_800A761C</title>
<!-- Node1 -->
<g id="Node000001" class="node">
<title>Node1</title>
<g id="a_Node000001"><a xlink:title=" ">
<polygon fill="#999999" stroke="#666666" points="92,-120 0,-120 0,-101 92,-101 92,-120"/>
<text text-anchor="middle" x="46" y="-108" font-family="Helvetica,sans-Serif" font-size="10.00">func_800A761C</text>
</a>
</g>
</g>
<!-- Node2 -->
<g id="Node000002" class="node">
<title>Node2</title>
<g id="a_Node000002"><a xlink:href="menu__items_8c.html#a87ff828f0134d42058cf8be2e012a8a3" target="_top" xlink:title=" ">
<polygon fill="white" stroke="#666666" points="267,-218 128,-218 128,-199 267,-199 267,-218"/>
<text text-anchor="middle" x="197.5" y="-206" font-family="Helvetica,sans-Serif" font-size="10.00">convert_number_to_ascii</text>
</a>
</g>
</g>
<!-- Node1&#45;&gt;Node2 -->
<g id="edge1_Node000001_Node000002" class="edge">
<title>Node1&#45;&gt;Node2</title>
<g id="a_edge1_Node000001_Node000002"><a xlink:title=" ">
<path fill="none" stroke="#63b8ff" d="M55.48,-120.5C69.23,-136.16 97.92,-166.52 128,-184.5 135.07,-188.73 143.01,-192.36 150.89,-195.43"/>
<polygon fill="#63b8ff" stroke="#63b8ff" points="149.84,-198.77 160.43,-198.89 152.23,-192.19 149.84,-198.77"/>
</a>
</g>
</g>
<!-- Node3 -->
<g id="Node000003" class="node">
<title>Node3</title>
<g id="a_Node000003"><a xlink:href="menu__items_8c.html#a51a08d17a71783b05d2688b3e4f1e88c" target="_top" xlink:title=" ">
<polygon fill="white" stroke="#666666" points="243.5,-142 151.5,-142 151.5,-123 243.5,-123 243.5,-142"/>
<text text-anchor="middle" x="197.5" y="-130" font-family="Helvetica,sans-Serif" font-size="10.00">func_800939C8</text>
</a>
</g>
</g>
<!-- Node1&#45;&gt;Node3 -->
<g id="edge2_Node000001_Node000003" class="edge">
<title>Node1&#45;&gt;Node3</title>
<g id="a_edge2_Node000001_Node000003"><a xlink:title=" ">
<path fill="none" stroke="#63b8ff" d="M92.26,-117.16C107.63,-119.42 124.98,-121.98 141.05,-124.34"/>
<polygon fill="#63b8ff" stroke="#63b8ff" points="140.99,-127.87 151.39,-125.86 142.01,-120.94 140.99,-127.87"/>
</a>
</g>
</g>
<!-- Node40 -->
<g id="Node000040" class="node">
<title>Node40</title>
<g id="a_Node000040"><a xlink:href="menu__items_8c.html#a2879014cfbef2216fd01cd2c94373dde" target="_top" xlink:title=" ">
<polygon fill="white" stroke="#666666" points="243.5,-56 151.5,-56 151.5,-37 243.5,-37 243.5,-56"/>
<text text-anchor="middle" x="197.5" y="-44" font-family="Helvetica,sans-Serif" font-size="10.00">func_800A79F4</text>
</a>
</g>
</g>
<!-- Node1&#45;&gt;Node40 -->
<g id="edge50_Node000001_Node000040" class="edge">
<title>Node1&#45;&gt;Node40</title>
<g id="a_edge50_Node000001_Node000040"><a xlink:title=" ">
<path fill="none" stroke="#63b8ff" d="M61.7,-100.93C77.53,-90.97 103.74,-75.44 128,-65.5 133.77,-63.14 139.93,-60.96 146.11,-59"/>
<polygon fill="#63b8ff" stroke="#63b8ff" points="147.2,-62.33 155.76,-56.09 145.18,-55.63 147.2,-62.33"/>
</a>
</g>
</g>
<!-- Node41 -->
<g id="Node000041" class="node">
<title>Node41</title>
<g id="a_Node000041"><a xlink:href="menu__items_8c.html#a7d794365d2dcd6526ddb06e476bef1e3" target="_top" xlink:title=" ">
<polygon fill="white" stroke="#666666" points="401,-209 303,-209 303,-190 401,-190 401,-209"/>
<text text-anchor="middle" x="352" y="-197" font-family="Helvetica,sans-Serif" font-size="10.00">get_string_width</text>
</a>
</g>
</g>
<!-- Node1&#45;&gt;Node41 -->
<g id="edge51_Node000001_Node000041" class="edge">
<title>Node1&#45;&gt;Node41</title>
<g id="a_edge51_Node000001_Node000041"><a xlink:title=" ">
<path fill="none" stroke="#63b8ff" d="M62.9,-120.1C78.85,-129.35 104.38,-143.14 128,-151.5 182.32,-170.73 246.92,-183.61 292.58,-191.14"/>
<polygon fill="#63b8ff" stroke="#63b8ff" points="292.17,-194.62 302.6,-192.76 293.29,-187.71 292.17,-194.62"/>
</a>
</g>
</g>
<!-- Node42 -->
<g id="Node000042" class="node">
<title>Node42</title>
<g id="a_Node000042"><a xlink:href="menu__items_8c.html#ac9a8fae36ca33cb34bee67b9f9ab440f" target="_top" xlink:title=" ">
<polygon fill="white" stroke="#666666" points="250.5,-104.5 144.5,-104.5 144.5,-74.5 250.5,-74.5 250.5,-104.5"/>
<text text-anchor="start" x="152.5" y="-92.5" font-family="Helvetica,sans-Serif" font-size="10.00">print_text1_center</text>
<text text-anchor="middle" x="197.5" y="-81.5" font-family="Helvetica,sans-Serif" font-size="10.00">_mode_1</text>
</a>
</g>
</g>
<!-- Node1&#45;&gt;Node42 -->
<g id="edge53_Node000001_Node000042" class="edge">
<title>Node1&#45;&gt;Node42</title>
<g id="a_edge53_Node000001_Node000042"><a xlink:title=" ">
<path fill="none" stroke="#63b8ff" d="M92.26,-104.14C105.47,-102.29 120.14,-100.23 134.21,-98.25"/>
<polygon fill="#63b8ff" stroke="#63b8ff" points="134.9,-101.69 144.31,-96.83 133.92,-94.76 134.9,-101.69"/>
</a>
</g>
</g>
<!-- Node44 -->
<g id="Node000044" class="node">
<title>Node44</title>
<g id="a_Node000044"><a xlink:href="menu__items_8c.html#a1a002f259a6c887d6672085b8cda7d4d" target="_top" xlink:title=" ">
<polygon fill="white" stroke="#666666" points="240.5,-19 154.5,-19 154.5,0 240.5,0 240.5,-19"/>
<text text-anchor="middle" x="197.5" y="-7" font-family="Helvetica,sans-Serif" font-size="10.00">set_text_color</text>
</a>
</g>
</g>
<!-- Node1&#45;&gt;Node44 -->
<g id="edge60_Node000001_Node000044" class="edge">
<title>Node1&#45;&gt;Node44</title>
<g id="a_edge60_Node000001_Node000044"><a xlink:title=" ">
<path fill="none" stroke="#63b8ff" d="M53.59,-100.91C66.03,-83.53 94.77,-46.85 128,-27.5 133.11,-24.53 138.71,-22.04 144.44,-19.95"/>
<polygon fill="#63b8ff" stroke="#63b8ff" points="145.71,-23.22 154.14,-16.81 143.55,-16.56 145.71,-23.22"/>
</a>
</g>
</g>
<!-- Node4 -->
<g id="Node000004" class="node">
<title>Node4</title>
<g id="a_Node000004"><a xlink:href="menu__items_8c.html#afa1d2583978658f8524340b7b94544b1" target="_top" xlink:title=" ">
<polygon fill="white" stroke="#666666" points="387,-142 317,-142 317,-123 387,-123 387,-142"/>
<text text-anchor="middle" x="352" y="-130" font-family="Helvetica,sans-Serif" font-size="10.00">print_text2</text>
</a>
</g>
</g>
<!-- Node3&#45;&gt;Node4 -->
<g id="edge3_Node000003_Node000004" class="edge">
<title>Node3&#45;&gt;Node4</title>
<g id="a_edge3_Node000003_Node000004"><a xlink:title=" ">
<path fill="none" stroke="#63b8ff" d="M243.84,-132.5C263.64,-132.5 286.78,-132.5 306.48,-132.5"/>
<polygon fill="#63b8ff" stroke="#63b8ff" points="306.73,-136 316.73,-132.5 306.73,-129 306.73,-136"/>
</a>
</g>
</g>
<!-- Node5 -->
<g id="Node000005" class="node">
<title>Node5</title>
<g id="a_Node000005"><a xlink:href="menu__items_8c.html#ace62f40ce813c34904327e39643a0dbf" target="_top" xlink:title=" ">
<polygon fill="white" stroke="#666666" points="565,-239 448,-239 448,-220 565,-220 565,-239"/>
<text text-anchor="middle" x="506.5" y="-227" font-family="Helvetica,sans-Serif" font-size="10.00">char_to_glyph_index</text>
</a>
</g>
</g>
<!-- Node4&#45;&gt;Node5 -->
<g id="edge4_Node000004_Node000005" class="edge">
<title>Node4&#45;&gt;Node5</title>
<g id="a_edge4_Node000004_Node000005"><a xlink:title=" ">
<path fill="none" stroke="#63b8ff" d="M366.49,-142.07C382.93,-153.63 411.65,-173.53 437,-189.5 450.88,-198.24 466.67,-207.51 479.59,-214.92"/>
<polygon fill="#63b8ff" stroke="#63b8ff" points="478,-218.04 488.42,-219.95 481.46,-211.96 478,-218.04"/>
</a>
</g>
</g>
<!-- Node9 -->
<g id="Node000009" class="node">
<title>Node9</title>
<g id="a_Node000009"><a xlink:href="FrameInterpolation_8cpp.html#a14ceaeb116362786310778e36943f7be" target="_top" xlink:title=" ">
<polygon fill="white" stroke="#666666" points="576,-147.5 437,-147.5 437,-117.5 576,-117.5 576,-147.5"/>
<text text-anchor="start" x="445" y="-135.5" font-family="Helvetica,sans-Serif" font-size="10.00">FrameInterpolation</text>
<text text-anchor="middle" x="506.5" y="-124.5" font-family="Helvetica,sans-Serif" font-size="10.00">_ShouldInterpolateFrame</text>
</a>
</g>
</g>
<!-- Node4&#45;&gt;Node9 -->
<g id="edge9_Node000004_Node000009" class="edge">
<title>Node4&#45;&gt;Node9</title>
<g id="a_edge9_Node000004_Node000009"><a xlink:title=" ">
<path fill="none" stroke="#63b8ff" d="M387.22,-132.5C399.03,-132.5 412.78,-132.5 426.65,-132.5"/>
<polygon fill="#63b8ff" stroke="#63b8ff" points="426.74,-136 436.74,-132.5 426.74,-129 426.74,-136"/>
</a>
</g>
</g>
<!-- Node10 -->
<g id="Node000010" class="node">
<title>Node10</title>
<g id="a_Node000010"><a xlink:href="GBIMiddleware_8cpp.html#a4ecc44e3c6f1ca5a6b4a20c41d3bd2d2" target="_top" xlink:title=" ">
<polygon fill="white" stroke="#666666" points="1001.5,-125 912.5,-125 912.5,-106 1001.5,-106 1001.5,-125"/>
<text text-anchor="middle" x="957" y="-113" font-family="Helvetica,sans-Serif" font-size="10.00">gSPDisplayList</text>
</a>
</g>
</g>
<!-- Node4&#45;&gt;Node10 -->
<g id="edge10_Node000004_Node000010" class="edge">
<title>Node4&#45;&gt;Node10</title>
<g id="a_edge10_Node000004_Node000010"><a xlink:title=" ">
<path fill="none" stroke="#63b8ff" d="M379.45,-142.11C395.79,-147.52 417.32,-153.74 437,-156.5 498.18,-165.07 514.31,-159.82 576,-156.5 692.76,-150.22 828.82,-133.16 902.3,-123.14"/>
<polygon fill="#63b8ff" stroke="#63b8ff" points="902.81,-126.6 912.24,-121.77 901.86,-119.66 902.81,-126.6"/>
</a>
</g>
</g>
<!-- Node13 -->
<g id="Node000013" class="node">
<title>Node13</title>
<g id="a_Node000013"><a xlink:href="menu__items_8c.html#a68e560d23390d5add7cb57ccd82e21ae" target="_top" xlink:title=" ">
<polygon fill="white" stroke="#666666" points="554,-62 459,-62 459,-43 554,-43 554,-62"/>
<text text-anchor="middle" x="506.5" y="-50" font-family="Helvetica,sans-Serif" font-size="10.00">load_menu_img</text>
</a>
</g>
</g>
<!-- Node4&#45;&gt;Node13 -->
<g id="edge13_Node000004_Node000013" class="edge">
<title>Node4&#45;&gt;Node13</title>
<g id="a_edge13_Node000004_Node000013"><a xlink:title=" ">
<path fill="none" stroke="#63b8ff" d="M374.9,-122.93C383.41,-118.75 393.01,-113.44 401,-107.5 419.41,-93.8 417.18,-82.06 437,-70.5 440.87,-68.24 445.02,-66.26 449.3,-64.53"/>
<polygon fill="#63b8ff" stroke="#63b8ff" points="450.59,-67.79 458.81,-61.11 448.22,-61.2 450.59,-67.79"/>
</a>
</g>
</g>
<!-- Node15 -->
<g id="Node000015" class="node">
<title>Node15</title>
<g id="a_Node000015"><a xlink:href="menu__items_8c.html#aafca6e35a19465ad361e68b13e467243" target="_top" xlink:title=" ">
<polygon fill="white" stroke="#666666" points="542,-99 471,-99 471,-80 542,-80 542,-99"/>
<text text-anchor="middle" x="506.5" y="-87" font-family="Helvetica,sans-Serif" font-size="10.00">print_letter</text>
</a>
</g>
</g>
<!-- Node4&#45;&gt;Node15 -->
<g id="edge15_Node000004_Node000015" class="edge">
<title>Node4&#45;&gt;Node15</title>
<g id="a_edge15_Node000004_Node000015"><a xlink:title=" ">
<path fill="none" stroke="#63b8ff" d="M386.1,-122.98C401.55,-118.55 420.21,-113.23 437,-108.5 444.85,-106.29 453.22,-103.95 461.31,-101.7"/>
<polygon fill="#63b8ff" stroke="#63b8ff" points="462.29,-105.06 470.99,-99.02 460.42,-98.32 462.29,-105.06"/>
</a>
</g>
</g>
<!-- Node6 -->
<g id="Node000006" class="node">
<title>Node6</title>
<g id="a_Node000006"><a xlink:href="menu__items_8c.html#ae8ba1b567dba01ff15c64d416653a70b" target="_top" xlink:title=" ">
<polygon fill="white" stroke="#666666" points="704.5,-347 612.5,-347 612.5,-328 704.5,-328 704.5,-347"/>
<text text-anchor="middle" x="658.5" y="-335" font-family="Helvetica,sans-Serif" font-size="10.00">func_80092DF8</text>
</a>
</g>
</g>
<!-- Node5&#45;&gt;Node6 -->
<g id="edge5_Node000005_Node000006" class="edge">
<title>Node5&#45;&gt;Node6</title>
<g id="a_edge5_Node000005_Node000006"><a xlink:title=" ">
<path fill="none" stroke="#63b8ff" d="M520.81,-239.08C546.76,-257.77 604.34,-299.22 635.85,-321.91"/>
<polygon fill="#63b8ff" stroke="#63b8ff" points="633.84,-324.78 644,-327.78 637.93,-319.1 633.84,-324.78"/>
</a>
</g>
</g>
<!-- Node7 -->
<g id="Node000007" class="node">
<title>Node7</title>
<g id="a_Node000007"><a xlink:href="menu__items_8c.html#acd5b29a8e8634aa4f3db4b9a7c5ba033" target="_top" xlink:title=" ">
<polygon fill="white" stroke="#666666" points="842,-440 750,-440 750,-421 842,-421 842,-440"/>
<text text-anchor="middle" x="796" y="-428" font-family="Helvetica,sans-Serif" font-size="10.00">func_80092E1C</text>
</a>
</g>
</g>
<!-- Node5&#45;&gt;Node7 -->
<g id="edge7_Node000005_Node000007" class="edge">
<title>Node5&#45;&gt;Node7</title>
<g id="a_edge7_Node000005_Node000007"><a xlink:title=" ">
<path fill="none" stroke="#63b8ff" d="M513.13,-239.09C527.13,-262.2 565.71,-321.61 612,-356.5 652.07,-386.7 706.17,-406.56 745.14,-418.03"/>
<polygon fill="#63b8ff" stroke="#63b8ff" points="744.62,-421.53 755.2,-420.91 746.55,-414.8 744.62,-421.53"/>
</a>
</g>
</g>
<!-- Node8 -->
<g id="Node000008" class="node">
<title>Node8</title>
<g id="a_Node000008"><a xlink:href="menu__items_8c.html#ab26c8dca1828cd1d5a6c341cb851f0b9" target="_top" xlink:title=" ">
<polygon fill="white" stroke="#666666" points="704,-255 613,-255 613,-236 704,-236 704,-255"/>
<text text-anchor="middle" x="658.5" y="-243" font-family="Helvetica,sans-Serif" font-size="10.00">func_80092EE4</text>
</a>
</g>
</g>
<!-- Node5&#45;&gt;Node8 -->
<g id="edge8_Node000005_Node000008" class="edge">
<title>Node5&#45;&gt;Node8</title>
<g id="a_edge8_Node000005_Node000008"><a xlink:title=" ">
<path fill="none" stroke="#63b8ff" d="M565.06,-235.64C577.46,-236.96 590.52,-238.36 602.8,-239.67"/>
<polygon fill="#63b8ff" stroke="#63b8ff" points="602.59,-243.16 612.9,-240.74 603.33,-236.2 602.59,-243.16"/>
</a>
</g>
</g>
<!-- Node6&#45;&gt;Node7 -->
<g id="edge6_Node000006_Node000007" class="edge">
<title>Node6&#45;&gt;Node7</title>
<g id="a_edge6_Node000006_Node000007"><a xlink:title=" ">
<path fill="none" stroke="#63b8ff" d="M667.54,-347.18C681.13,-362.97 710.19,-394.33 741,-412.5 743.81,-414.16 746.79,-415.69 749.86,-417.09"/>
<polygon fill="#63b8ff" stroke="#63b8ff" points="748.62,-420.37 759.2,-420.95 751.29,-413.9 748.62,-420.37"/>
</a>
</g>
</g>
<!-- Node11 -->
<g id="Node000011" class="node">
<title>Node11</title>
<g id="a_Node000011"><a xlink:href="Engine_8cpp.html#a223c8bc63f228dc11177515e38eff2db" target="_top" xlink:title=" ">
<polygon fill="white" stroke="#666666" points="1212,-162 1063,-162 1063,-143 1212,-143 1212,-162"/>
<text text-anchor="middle" x="1137.5" y="-150" font-family="Helvetica,sans-Serif" font-size="10.00">GameEngine_OTRSigCheck</text>
</a>
</g>
</g>
<!-- Node10&#45;&gt;Node11 -->
<g id="edge11_Node000010_Node000011" class="edge">
<title>Node10&#45;&gt;Node11</title>
<g id="a_edge11_Node000010_Node000011"><a xlink:title=" ">
<path fill="none" stroke="#63b8ff" d="M1001.67,-124.55C1025.45,-129.48 1055.13,-135.63 1080.59,-140.91"/>
<polygon fill="#63b8ff" stroke="#63b8ff" points="1079.98,-144.36 1090.48,-142.96 1081.4,-137.5 1079.98,-144.36"/>
</a>
</g>
</g>
<!-- Node12 -->
<g id="Node000012" class="node">
<title>Node12</title>
<g id="a_Node000012"><a xlink:href="string_8c.html#a008e171a518fe0e0352f31b245e03875" target="_top" xlink:title=" ">
<polygon fill="white" stroke="#666666" points="1294.5,-234 1250.5,-234 1250.5,-215 1294.5,-215 1294.5,-234"/>
<text text-anchor="middle" x="1272.5" y="-222" font-family="Helvetica,sans-Serif" font-size="10.00">strlen</text>
</a>
</g>
</g>
<!-- Node11&#45;&gt;Node12 -->
<g id="edge12_Node000011_Node000012" class="edge">
<title>Node11&#45;&gt;Node12</title>
<g id="a_edge12_Node000011_Node000012"><a xlink:title=" ">
<path fill="none" stroke="#63b8ff" d="M1156.16,-162.06C1178.82,-174.33 1218.33,-195.72 1244.7,-209.99"/>
<polygon fill="#63b8ff" stroke="#63b8ff" points="1243.31,-213.22 1253.77,-214.9 1246.64,-207.06 1243.31,-213.22"/>
</a>
</g>
</g>
<!-- Node14 -->
<g id="Node000014" class="node">
<title>Node14</title>
<g id="a_Node000014"><a xlink:href="menu__items_8c.html#a248768ee2e4ca9ae9cf0a30bfb256859" target="_top" xlink:title=" ">
<polygon fill="white" stroke="#666666" points="697.5,-62 619.5,-62 619.5,-43 697.5,-43 697.5,-62"/>
<text text-anchor="middle" x="658.5" y="-50" font-family="Helvetica,sans-Serif" font-size="10.00">load_texture</text>
</a>
</g>
</g>
<!-- Node13&#45;&gt;Node14 -->
<g id="edge14_Node000013_Node000014" class="edge">
<title>Node13&#45;&gt;Node14</title>
<g id="a_edge14_Node000013_Node000014"><a xlink:title=" ">
<path fill="none" stroke="#63b8ff" d="M554.14,-52.5C571.68,-52.5 591.65,-52.5 609.33,-52.5"/>
<polygon fill="#63b8ff" stroke="#63b8ff" points="609.44,-56 619.44,-52.5 609.44,-49 609.44,-56"/>
</a>
</g>
</g>
<!-- Node15&#45;&gt;Node10 -->
<g id="edge49_Node000015_Node000010" class="edge">
<title>Node15&#45;&gt;Node10</title>
<g id="a_edge49_Node000015_Node000010"><a xlink:title=" ">
<path fill="none" stroke="#63b8ff" d="M542.32,-91.52C620.28,-96.04 809.32,-107 902.4,-112.39"/>
<polygon fill="#63b8ff" stroke="#63b8ff" points="902.27,-115.89 912.46,-112.98 902.67,-108.9 902.27,-115.89"/>
</a>
</g>
</g>
<!-- Node16 -->
<g id="Node000016" class="node">
<title>Node16</title>
<g id="a_Node000016"><a xlink:href="menu__items_8c.html#a37eb021a953285ba504198ac6ca73a9a" target="_top" xlink:title=" ">
<polygon fill="white" stroke="#666666" points="705,-218 612,-218 612,-199 705,-199 705,-218"/>
<text text-anchor="middle" x="658.5" y="-206" font-family="Helvetica,sans-Serif" font-size="10.00">func_80095BD0</text>
</a>
</g>
</g>
<!-- Node15&#45;&gt;Node16 -->
<g id="edge16_Node000015_Node000016" class="edge">
<title>Node15&#45;&gt;Node16</title>
<g id="a_edge16_Node000015_Node000016"><a xlink:title=" ">
<path fill="none" stroke="#63b8ff" d="M542,-94.72C553.46,-97.55 565.88,-101.88 576,-108.5 608.17,-129.52 633.84,-167.3 647.26,-189.92"/>
<polygon fill="#63b8ff" stroke="#63b8ff" points="644.38,-191.93 652.39,-198.86 650.45,-188.44 644.38,-191.93"/>
</a>
</g>
</g>
<!-- Node17 -->
<g id="Node000017" class="node">
<title>Node17</title>
<g id="a_Node000017"><a xlink:href="Matrix_8cpp.html#a6f64c44efb9bdfff802175a9739ce1f1" target="_top" xlink:title=" ">
<polygon fill="white" stroke="#666666" points="839.5,-317 752.5,-317 752.5,-298 839.5,-298 839.5,-317"/>
<text text-anchor="middle" x="796" y="-305" font-family="Helvetica,sans-Serif" font-size="10.00">AddTextMatrix</text>
</a>
</g>
</g>
<!-- Node16&#45;&gt;Node17 -->
<g id="edge17_Node000016_Node000017" class="edge">
<title>Node16&#45;&gt;Node17</title>
<g id="a_edge17_Node000016_Node000017"><a xlink:title=" ">
<path fill="none" stroke="#63b8ff" d="M689.97,-218C695.34,-220.54 700.61,-223.68 705,-227.5 728.74,-248.18 716.68,-268.51 741,-288.5 743.05,-290.18 745.26,-291.72 747.57,-293.13"/>
<polygon fill="#63b8ff" stroke="#63b8ff" points="746.4,-296.46 756.89,-297.92 749.6,-290.24 746.4,-296.46"/>
</a>
</g>
</g>
<!-- Node21 -->
<g id="Node000021" class="node">
<title>Node21</title>
<g id="a_Node000021"><a xlink:href="FrameInterpolation_8cpp.html#a3a036bc9d533e28a4e9697cd20dccf3e" target="_top" xlink:title=" ">
<polygon fill="white" stroke="#666666" points="851,-279.5 741,-279.5 741,-249.5 851,-249.5 851,-279.5"/>
<text text-anchor="start" x="749" y="-267.5" font-family="Helvetica,sans-Serif" font-size="10.00">FrameInterpolation</text>
<text text-anchor="middle" x="796" y="-256.5" font-family="Helvetica,sans-Serif" font-size="10.00">_RecordCloseChild</text>
</a>
</g>
</g>
<!-- Node16&#45;&gt;Node21 -->
<g id="edge21_Node000016_Node000021" class="edge">
<title>Node16&#45;&gt;Node21</title>
<g id="a_edge21_Node000016_Node000021"><a xlink:title=" ">
<path fill="none" stroke="#63b8ff" d="M682.79,-218.13C701,-225.65 726.88,-236.35 749.19,-245.57"/>
<polygon fill="#63b8ff" stroke="#63b8ff" points="747.93,-248.83 758.51,-249.42 750.6,-242.36 747.93,-248.83"/>
</a>
</g>
</g>
<!-- Node22 -->
<g id="Node000022" class="node">
<title>Node22</title>
<g id="a_Node000022"><a xlink:href="FrameInterpolation_8cpp.html#a0eda726b74eac815af4e874014e2727c" target="_top" xlink:title=" ">
<polygon fill="white" stroke="#666666" points="851,-365.5 741,-365.5 741,-335.5 851,-335.5 851,-365.5"/>
<text text-anchor="start" x="749" y="-353.5" font-family="Helvetica,sans-Serif" font-size="10.00">FrameInterpolation</text>
<text text-anchor="middle" x="796" y="-342.5" font-family="Helvetica,sans-Serif" font-size="10.00">_RecordOpenChild</text>
</a>
</g>
</g>
<!-- Node16&#45;&gt;Node22 -->
<g id="edge23_Node000016_Node000022" class="edge">
<title>Node16&#45;&gt;Node22</title>
<g id="a_edge23_Node000016_Node000022"><a xlink:title=" ">
<path fill="none" stroke="#63b8ff" d="M691.97,-218.08C696.78,-220.57 701.34,-223.66 705,-227.5 737.32,-261.37 709.06,-292.26 741,-326.5 741.89,-327.45 742.82,-328.36 743.78,-329.24"/>
<polygon fill="#63b8ff" stroke="#63b8ff" points="741.75,-332.1 751.84,-335.34 745.98,-326.52 741.75,-332.1"/>
</a>
</g>
</g>
<!-- Node23 -->
<g id="Node000023" class="node">
<title>Node23</title>
<g id="a_Node000023"><a xlink:href="menu__items_8c.html#ae0fd5923ba70cf6939cd3fa8d09c1191" target="_top" xlink:title=" ">
<polygon fill="white" stroke="#666666" points="841.5,-176 750.5,-176 750.5,-157 841.5,-157 841.5,-176"/>
<text text-anchor="middle" x="796" y="-164" font-family="Helvetica,sans-Serif" font-size="10.00">func_800959F8</text>
</a>
</g>
</g>
<!-- Node16&#45;&gt;Node23 -->
<g id="edge25_Node000016_Node000023" class="edge">
<title>Node16&#45;&gt;Node23</title>
<g id="a_edge25_Node000016_Node000023"><a xlink:title=" ">
<path fill="none" stroke="#63b8ff" d="M690.25,-198.97C709.17,-193.1 733.65,-185.52 754.18,-179.15"/>
<polygon fill="#63b8ff" stroke="#63b8ff" points="755.39,-182.44 763.91,-176.14 753.32,-175.76 755.39,-182.44"/>
</a>
</g>
</g>
<!-- Node25 -->
<g id="Node000025" class="node">
<title>Node25</title>
<g id="a_Node000025"><a xlink:href="stubs_8c.html#a8b417b868747c80d58f83d8a1e78ecf3" target="_top" xlink:title=" ">
<polygon fill="white" stroke="#666666" points="830,-403 762,-403 762,-384 830,-384 830,-403"/>
<text text-anchor="middle" x="796" y="-391" font-family="Helvetica,sans-Serif" font-size="10.00">rmonPrintf</text>
</a>
</g>
</g>
<!-- Node16&#45;&gt;Node25 -->
<g id="edge29_Node000016_Node000025" class="edge">
<title>Node16&#45;&gt;Node25</title>
<g id="a_edge29_Node000016_Node000025"><a xlink:title=" ">
<path fill="none" stroke="#63b8ff" d="M693.26,-218.25C697.67,-220.69 701.77,-223.73 705,-227.5 748.73,-278.61 695.83,-324.66 741,-374.5 744.29,-378.13 748.31,-381.06 752.67,-383.44"/>
<polygon fill="#63b8ff" stroke="#63b8ff" points="751.38,-386.7 761.94,-387.57 754.23,-380.3 751.38,-386.7"/>
</a>
</g>
</g>
<!-- Node38 -->
<g id="Node000038" class="node">
<title>Node38</title>
<g id="a_Node000038"><a xlink:href="Matrix_8cpp.html#a9818099a1ee20606a7d622e744846366" target="_top" xlink:title=" ">
<polygon fill="white" stroke="#666666" points="838,-213 754,-213 754,-194 838,-194 838,-213"/>
<text text-anchor="middle" x="796" y="-201" font-family="Helvetica,sans-Serif" font-size="10.00">SetTextMatrix</text>
</a>
</g>
</g>
<!-- Node16&#45;&gt;Node38 -->
<g id="edge45_Node000016_Node000038" class="edge">
<title>Node16&#45;&gt;Node38</title>
<g id="a_edge45_Node000016_Node000038"><a xlink:title=" ">
<path fill="none" stroke="#63b8ff" d="M705.37,-206.81C717.61,-206.36 730.91,-205.86 743.43,-205.4"/>
<polygon fill="#63b8ff" stroke="#63b8ff" points="743.86,-208.89 753.72,-205.02 743.6,-201.89 743.86,-208.89"/>
</a>
</g>
</g>
<!-- Node18 -->
<g id="Node000018" class="node">
<title>Node18</title>
<g id="a_Node000018"><a xlink:href="FrameInterpolation_8cpp.html#a8cf1f2d6fabc6925aa71a9515341b4aa" target="_top" xlink:title=" ">
<polygon fill="white" stroke="#666666" points="1027,-296.5 887,-296.5 887,-266.5 1027,-266.5 1027,-296.5"/>
<text text-anchor="start" x="895" y="-284.5" font-family="Helvetica,sans-Serif" font-size="10.00">FrameInterpolation</text>
<text text-anchor="middle" x="957" y="-273.5" font-family="Helvetica,sans-Serif" font-size="10.00">_RecordMatrixMtxFToMtx</text>
</a>
</g>
</g>
<!-- Node17&#45;&gt;Node18 -->
<g id="edge18_Node000017_Node000018" class="edge">
<title>Node17&#45;&gt;Node18</title>
<g id="a_edge18_Node000017_Node000018"><a xlink:title=" ">
<path fill="none" stroke="#63b8ff" d="M839.61,-300.53C851.08,-298.66 863.86,-296.57 876.64,-294.48"/>
<polygon fill="#63b8ff" stroke="#63b8ff" points="877.56,-297.87 886.86,-292.81 876.43,-290.97 877.56,-297.87"/>
</a>
</g>
</g>
<!-- Node20 -->
<g id="Node000020" class="node">
<title>Node20</title>
<g id="a_Node000020"><a xlink:href="guMtxF2L_8c.html#a40ab2d64c609839ff1e0ef0de2d0dcc4" target="_top" xlink:title=" ">
<polygon fill="white" stroke="#666666" points="989.5,-334 924.5,-334 924.5,-315 989.5,-315 989.5,-334"/>
<text text-anchor="middle" x="957" y="-322" font-family="Helvetica,sans-Serif" font-size="10.00">guMtxF2L</text>
</a>
</g>
</g>
<!-- Node17&#45;&gt;Node20 -->
<g id="edge20_Node000017_Node000020" class="edge">
<title>Node17&#45;&gt;Node20</title>
<g id="a_edge20_Node000017_Node000020"><a xlink:title=" ">
<path fill="none" stroke="#63b8ff" d="M839.61,-312.06C862.74,-314.53 891.23,-317.57 914.23,-320.03"/>
<polygon fill="#63b8ff" stroke="#63b8ff" points="914.06,-323.54 924.38,-321.12 914.8,-316.58 914.06,-323.54"/>
</a>
</g>
</g>
<!-- Node19 -->
<g id="Node000019" class="node">
<title>Node19</title>
<g id="a_Node000019"><a xlink:href="FrameInterpolation_8cpp.html#a02c7ac5342a4d376edee38f312b480bf" target="_top" xlink:title=" ">
<polygon fill="white" stroke="#666666" points="1191.5,-269 1083.5,-269 1083.5,-250 1191.5,-250 1191.5,-269"/>
<text text-anchor="middle" x="1137.5" y="-257" font-family="Helvetica,sans-Serif" font-size="10.00">check_if_recording</text>
</a>
</g>
</g>
<!-- Node18&#45;&gt;Node19 -->
<g id="edge19_Node000018_Node000019" class="edge">
<title>Node18&#45;&gt;Node19</title>
<g id="a_edge19_Node000018_Node000019"><a xlink:title=" ">
<path fill="none" stroke="#63b8ff" d="M1027.01,-272.99C1042.24,-271.12 1058.29,-269.14 1073.27,-267.29"/>
<polygon fill="#63b8ff" stroke="#63b8ff" points="1073.95,-270.74 1083.45,-266.04 1073.1,-263.79 1073.95,-270.74"/>
</a>
</g>
</g>
<!-- Node21&#45;&gt;Node19 -->
<g id="edge22_Node000021_Node000019" class="edge">
<title>Node21&#45;&gt;Node19</title>
<g id="a_edge22_Node000021_Node000019"><a xlink:title=" ">
<path fill="none" stroke="#63b8ff" d="M851.22,-259.6C863,-258.72 875.41,-257.95 887,-257.5 950.37,-255.04 1022.87,-256.05 1073.32,-257.36"/>
<polygon fill="#63b8ff" stroke="#63b8ff" points="1073.33,-260.86 1083.43,-257.64 1073.52,-253.87 1073.33,-260.86"/>
</a>
</g>
</g>
<!-- Node22&#45;&gt;Node19 -->
<g id="edge24_Node000022_Node000019" class="edge">
<title>Node22&#45;&gt;Node19</title>
<g id="a_edge24_Node000022_Node000019"><a xlink:title=" ">
<path fill="none" stroke="#63b8ff" d="M851.25,-358.02C898.98,-362.52 969.61,-363.95 1027,-343.5 1065.65,-329.72 1101.6,-296.78 1121.16,-276.49"/>
<polygon fill="#63b8ff" stroke="#63b8ff" points="1123.75,-278.83 1128.05,-269.15 1118.65,-274.04 1123.75,-278.83"/>
</a>
</g>
</g>
<!-- Node23&#45;&gt;Node10 -->
<g id="edge26_Node000023_Node000010" class="edge">
<title>Node23&#45;&gt;Node10</title>
<g id="a_edge26_Node000023_Node000010"><a xlink:title=" ">
<path fill="none" stroke="#63b8ff" d="M822.44,-156.9C840.37,-150.26 865.01,-141.43 887,-134.5 894.25,-132.22 901.98,-129.94 909.54,-127.79"/>
<polygon fill="#63b8ff" stroke="#63b8ff" points="910.64,-131.12 919.33,-125.06 908.76,-124.38 910.64,-131.12"/>
</a>
</g>
</g>
<!-- Node24 -->
<g id="Node000024" class="node">
<title>Node24</title>
<g id="a_Node000024"><a xlink:href="GBIMiddleware_8cpp.html#aeef79449a27a710d73576e4a4f7f7f99" target="_top" xlink:title=" ">
<polygon fill="white" stroke="#666666" points="990,-162 924,-162 924,-143 990,-143 990,-162"/>
<text text-anchor="middle" x="957" y="-150" font-family="Helvetica,sans-Serif" font-size="10.00">gSPVertex</text>
</a>
</g>
</g>
<!-- Node23&#45;&gt;Node24 -->
<g id="edge27_Node000023_Node000024" class="edge">
<title>Node23&#45;&gt;Node24</title>
<g id="a_edge27_Node000023_Node000024"><a xlink:title=" ">
<path fill="none" stroke="#63b8ff" d="M841.71,-162.56C864.23,-160.58 891.39,-158.19 913.58,-156.23"/>
<polygon fill="#63b8ff" stroke="#63b8ff" points="914.06,-159.71 923.71,-155.34 913.44,-152.73 914.06,-159.71"/>
</a>
</g>
</g>
<!-- Node24&#45;&gt;Node11 -->
<g id="edge28_Node000024_Node000011" class="edge">
<title>Node24&#45;&gt;Node11</title>
<g id="a_edge28_Node000024_Node000011"><a xlink:title=" ">
<path fill="none" stroke="#63b8ff" d="M990.33,-152.5C1007.92,-152.5 1030.59,-152.5 1052.8,-152.5"/>
<polygon fill="#63b8ff" stroke="#63b8ff" points="1052.95,-156 1062.95,-152.5 1052.95,-149 1052.95,-156"/>
</a>
</g>
</g>
<!-- Node26 -->
<g id="Node000026" class="node">
<title>Node26</title>
<g id="a_Node000026"><a xlink:href="__Printf_8c.html#a39bb05c90efce6c6790c5d58d271d72d" target="_top" xlink:title=" ">
<polygon fill="white" stroke="#666666" points="981,-447 933,-447 933,-428 981,-428 981,-447"/>
<text text-anchor="middle" x="957" y="-435" font-family="Helvetica,sans-Serif" font-size="10.00">_Printf</text>
</a>
</g>
</g>
<!-- Node25&#45;&gt;Node26 -->
<g id="edge30_Node000025_Node000026" class="edge">
<title>Node25&#45;&gt;Node26</title>
<g id="a_edge30_Node000025_Node000026"><a xlink:title=" ">
<path fill="none" stroke="#63b8ff" d="M829.44,-403.09C846.53,-408.09 867.87,-414.24 887,-419.5 898.7,-422.72 911.55,-426.11 922.96,-429.07"/>
<polygon fill="#63b8ff" stroke="#63b8ff" points="922.4,-432.54 932.96,-431.65 924.15,-425.76 922.4,-432.54"/>
</a>
</g>
</g>
<!-- Node37 -->
<g id="Node000037" class="node">
<title>Node37</title>
<g id="a_Node000037"><a xlink:href="is__debug_8c.html#aaccfac8d9098530b6592eefe679d86b4" target="_top" xlink:title=" ">
<polygon fill="white" stroke="#666666" points="1009.5,-410 904.5,-410 904.5,-391 1009.5,-391 1009.5,-410"/>
<text text-anchor="middle" x="957" y="-398" font-family="Helvetica,sans-Serif" font-size="10.00">is_proutSyncPrintf</text>
</a>
</g>
</g>
<!-- Node25&#45;&gt;Node37 -->
<g id="edge44_Node000025_Node000037" class="edge">
<title>Node25&#45;&gt;Node37</title>
<g id="a_edge44_Node000025_Node000037"><a xlink:title=" ">
<path fill="none" stroke="#63b8ff" d="M830.33,-394.97C848.81,-395.78 872.37,-396.82 894.09,-397.77"/>
<polygon fill="#63b8ff" stroke="#63b8ff" points="894.1,-401.28 904.24,-398.22 894.41,-394.28 894.1,-401.28"/>
</a>
</g>
</g>
<!-- Node27 -->
<g id="Node000027" class="node">
<title>Node27</title>
<g id="a_Node000027"><a xlink:href="__Printf_8c.html#ad73a5847f2d7c9de14cc2723da86bf45" target="_top" xlink:title=" ">
<polygon fill="white" stroke="#666666" points="1162.5,-358 1112.5,-358 1112.5,-339 1162.5,-339 1162.5,-358"/>
<text text-anchor="middle" x="1137.5" y="-346" font-family="Helvetica,sans-Serif" font-size="10.00">_Putfld</text>
</a>
</g>
</g>
<!-- Node26&#45;&gt;Node27 -->
<g id="edge31_Node000026_Node000027" class="edge">
<title>Node26&#45;&gt;Node27</title>
<g id="a_edge31_Node000026_Node000027"><a xlink:title=" ">
<path fill="none" stroke="#63b8ff" d="M981.31,-433.36C994.98,-430.46 1012.39,-425.94 1027,-419.5 1060.38,-404.79 1095.08,-380.5 1116.24,-364.5"/>
<polygon fill="#63b8ff" stroke="#63b8ff" points="1118.64,-367.07 1124.44,-358.2 1114.38,-361.52 1118.64,-367.07"/>
</a>
</g>
</g>
<!-- Node36 -->
<g id="Node000036" class="node">
<title>Node36</title>
<g id="a_Node000036"><a xlink:href="string_8c.html#a988b4defe51a1815ef3b9ddab10e7a89" target="_top" xlink:title=" ">
<polygon fill="white" stroke="#666666" points="1159.5,-447 1115.5,-447 1115.5,-428 1159.5,-428 1159.5,-447"/>
<text text-anchor="middle" x="1137.5" y="-435" font-family="Helvetica,sans-Serif" font-size="10.00">strchr</text>
</a>
</g>
</g>
<!-- Node26&#45;&gt;Node36 -->
<g id="edge43_Node000026_Node000036" class="edge">
<title>Node26&#45;&gt;Node36</title>
<g id="a_edge43_Node000026_Node000036"><a xlink:title=" ">
<path fill="none" stroke="#63b8ff" d="M981.34,-437.5C1013.02,-437.5 1069.76,-437.5 1105.14,-437.5"/>
<polygon fill="#63b8ff" stroke="#63b8ff" points="1105.38,-441 1115.38,-437.5 1105.38,-434 1105.38,-441"/>
</a>
</g>
</g>
<!-- Node27&#45;&gt;Node12 -->
<g id="edge42_Node000027_Node000012" class="edge">
<title>Node27&#45;&gt;Node12</title>
<g id="a_edge42_Node000027_Node000012"><a xlink:title=" ">
<path fill="none" stroke="#63b8ff" d="M1148.94,-338.77C1171.56,-317.67 1225.37,-267.51 1253.57,-241.22"/>
<polygon fill="#63b8ff" stroke="#63b8ff" points="1256.18,-243.56 1261.11,-234.18 1251.41,-238.44 1256.18,-243.56"/>
</a>
</g>
</g>
<!-- Node28 -->
<g id="Node000028" class="node">
<title>Node28</title>
<g id="a_Node000028"><a xlink:href="__Ldtob_8c.html#a7cc858157b66e15c831ad085113729ae" target="_top" xlink:title=" ">
<polygon fill="white" stroke="#666666" points="1297,-320 1248,-320 1248,-301 1297,-301 1297,-320"/>
<text text-anchor="middle" x="1272.5" y="-308" font-family="Helvetica,sans-Serif" font-size="10.00">_Ldtob</text>
</a>
</g>
</g>
<!-- Node27&#45;&gt;Node28 -->
<g id="edge32_Node000027_Node000028" class="edge">
<title>Node27&#45;&gt;Node28</title>
<g id="a_edge32_Node000027_Node000028"><a xlink:title=" ">
<path fill="none" stroke="#63b8ff" d="M1162.59,-341.62C1183.58,-335.62 1214.26,-326.85 1237.71,-320.15"/>
<polygon fill="#63b8ff" stroke="#63b8ff" points="1238.94,-323.44 1247.59,-317.33 1237.02,-316.71 1238.94,-323.44"/>
</a>
</g>
</g>
<!-- Node34 -->
<g id="Node000034" class="node">
<title>Node34</title>
<g id="a_Node000034"><a xlink:href="__Litob_8c.html#aaaba3b0ab7920d422a61fe9e22600dd0" target="_top" xlink:title=" ">
<polygon fill="white" stroke="#666666" points="1295.5,-414 1249.5,-414 1249.5,-395 1295.5,-395 1295.5,-414"/>
<text text-anchor="middle" x="1272.5" y="-402" font-family="Helvetica,sans-Serif" font-size="10.00">_Litob</text>
</a>
</g>
</g>
<!-- Node27&#45;&gt;Node34 -->
<g id="edge39_Node000027_Node000034" class="edge">
<title>Node27&#45;&gt;Node34</title>
<g id="a_edge39_Node000027_Node000034"><a xlink:title=" ">
<path fill="none" stroke="#63b8ff" d="M1161.36,-358.13C1183.04,-367.25 1215.78,-381.04 1239.93,-391.21"/>
<polygon fill="#63b8ff" stroke="#63b8ff" points="1238.8,-394.53 1249.38,-395.18 1241.52,-388.08 1238.8,-394.53"/>
</a>
</g>
</g>
<!-- Node29 -->
<g id="Node000029" class="node">
<title>Node29</title>
<g id="a_Node000029"><a xlink:href="__Ldtob_8c.html#a2b6c5318b43bab1636bad9113ffb2761" target="_top" xlink:title=" ">
<polygon fill="white" stroke="#666666" points="1393.5,-227 1343.5,-227 1343.5,-208 1393.5,-208 1393.5,-227"/>
<text text-anchor="middle" x="1368.5" y="-215" font-family="Helvetica,sans-Serif" font-size="10.00">_Genld</text>
</a>
</g>
</g>
<!-- Node28&#45;&gt;Node29 -->
<g id="edge33_Node000028_Node000029" class="edge">
<title>Node28&#45;&gt;Node29</title>
<g id="a_edge33_Node000028_Node000029"><a xlink:title=" ">
<path fill="none" stroke="#63b8ff" d="M1279.46,-300.86C1289.2,-285.7 1309.77,-256.01 1333,-236.5 1334.7,-235.07 1336.53,-233.7 1338.42,-232.39"/>
<polygon fill="#63b8ff" stroke="#63b8ff" points="1340.29,-235.35 1346.94,-227.11 1336.6,-229.4 1340.29,-235.35"/>
</a>
</g>
</g>
<!-- Node30 -->
<g id="Node000030" class="node">
<title>Node30</title>
<g id="a_Node000030"><a xlink:href="string_8c.html#ad7f1ae1bbb49dece44bda378982a704d" target="_top" xlink:title=" ">
<polygon fill="white" stroke="#666666" points="1499,-339 1440,-339 1440,-320 1499,-320 1499,-339"/>
<text text-anchor="middle" x="1469.5" y="-327" font-family="Helvetica,sans-Serif" font-size="10.00">memcpy</text>
</a>
</g>
</g>
<!-- Node28&#45;&gt;Node30 -->
<g id="edge37_Node000028_Node000030" class="edge">
<title>Node28&#45;&gt;Node30</title>
<g id="a_edge37_Node000028_Node000030"><a xlink:title=" ">
<path fill="none" stroke="#63b8ff" d="M1297.02,-312.79C1329.94,-316 1390.15,-321.87 1429.75,-325.72"/>
<polygon fill="#63b8ff" stroke="#63b8ff" points="1429.54,-329.22 1439.83,-326.71 1430.22,-322.25 1429.54,-329.22"/>
</a>
</g>
</g>
<!-- Node31 -->
<g id="Node000031" class="node">
<title>Node31</title>
<g id="a_Node000031"><a xlink:href="__Ldtob_8c.html#ab7ade9ce60aaa8baa0244b503351d742" target="_top" xlink:title=" ">
<polygon fill="white" stroke="#666666" points="1404,-377 1333,-377 1333,-358 1404,-358 1404,-377"/>
<text text-anchor="middle" x="1368.5" y="-365" font-family="Helvetica,sans-Serif" font-size="10.00">_Ldunscale</text>
</a>
</g>
</g>
<!-- Node28&#45;&gt;Node31 -->
<g id="edge35_Node000028_Node000031" class="edge">
<title>Node28&#45;&gt;Node31</title>
<g id="a_edge35_Node000028_Node000031"><a xlink:title=" ">
<path fill="none" stroke="#63b8ff" d="M1289.45,-320.17C1304.12,-329.07 1326.1,-342.4 1343,-352.64"/>
<polygon fill="#63b8ff" stroke="#63b8ff" points="1341.42,-355.78 1351.79,-357.97 1345.05,-349.8 1341.42,-355.78"/>
</a>
</g>
</g>
<!-- Node32 -->
<g id="Node000032" class="node">
<title>Node32</title>
<g id="a_Node000032"><a xlink:href="ldiv_8c.html#a0302920caf64a5fbe1ce0862799d7784" target="_top" xlink:title=" ">
<polygon fill="white" stroke="#666666" points="1386,-301 1351,-301 1351,-282 1386,-282 1386,-301"/>
<text text-anchor="middle" x="1368.5" y="-289" font-family="Helvetica,sans-Serif" font-size="10.00">ldiv</text>
</a>
</g>
</g>
<!-- Node28&#45;&gt;Node32 -->
<g id="edge36_Node000028_Node000032" class="edge">
<title>Node28&#45;&gt;Node32</title>
<g id="a_edge36_Node000028_Node000032"><a xlink:title=" ">
<path fill="none" stroke="#63b8ff" d="M1297.22,-305.71C1310.57,-303.01 1327.27,-299.63 1341.04,-296.85"/>
<polygon fill="#63b8ff" stroke="#63b8ff" points="1341.79,-300.27 1350.9,-294.86 1340.4,-293.41 1341.79,-300.27"/>
</a>
</g>
</g>
<!-- Node33 -->
<g id="Node000033" class="node">
<title>Node33</title>
<g id="a_Node000033"><a xlink:href="alBnkfNew_8c.html#a96a0200a6b40350e524f536d232ecb53" target="_top" xlink:title=" ">
<polygon fill="white" stroke="#666666" points="1394.5,-264 1342.5,-264 1342.5,-245 1394.5,-245 1394.5,-264"/>
<text text-anchor="middle" x="1368.5" y="-252" font-family="Helvetica,sans-Serif" font-size="10.00">unused</text>
</a>
</g>
</g>
<!-- Node28&#45;&gt;Node33 -->
<g id="edge38_Node000028_Node000033" class="edge">
<title>Node28&#45;&gt;Node33</title>
<g id="a_edge38_Node000028_Node000033"><a xlink:title=" ">
<path fill="none" stroke="#63b8ff" d="M1288.53,-300.85C1300.48,-293.25 1317.68,-282.48 1333,-273.5 1335.49,-272.04 1338.09,-270.55 1340.71,-269.07"/>
<polygon fill="#63b8ff" stroke="#63b8ff" points="1342.46,-272.1 1349.49,-264.18 1339.05,-265.99 1342.46,-272.1"/>
</a>
</g>
</g>
<!-- Node29&#45;&gt;Node30 -->
<g id="edge34_Node000029_Node000030" class="edge">
<title>Node29&#45;&gt;Node30</title>
<g id="a_edge34_Node000029_Node000030"><a xlink:title=" ">
<path fill="none" stroke="#63b8ff" d="M1390.6,-227.1C1395.29,-229.77 1400.04,-232.93 1404,-236.5 1428.2,-258.33 1448.12,-290.91 1459.14,-311.15"/>
<polygon fill="#63b8ff" stroke="#63b8ff" points="1456.05,-312.79 1463.82,-319.99 1462.24,-309.51 1456.05,-312.79"/>
</a>
</g>
</g>
<!-- Node34&#45;&gt;Node30 -->
<g id="edge41_Node000034_Node000030" class="edge">
<title>Node34&#45;&gt;Node30</title>
<g id="a_edge41_Node000034_Node000030"><a xlink:title=" ">
<path fill="none" stroke="#63b8ff" d="M1292.42,-414.01C1318.94,-425.89 1367.94,-442.49 1404,-423.5 1433.78,-407.82 1452.46,-371.49 1461.64,-348.86"/>
<polygon fill="#63b8ff" stroke="#63b8ff" points="1465,-349.87 1465.3,-339.28 1458.46,-347.38 1465,-349.87"/>
</a>
</g>
</g>
<!-- Node35 -->
<g id="Node000035" class="node">
<title>Node35</title>
<g id="a_Node000035"><a xlink:href="ldiv_8c.html#a5b23c3639f11980dca762c5f1d74f339" target="_top" xlink:title=" ">
<polygon fill="white" stroke="#666666" points="1387.5,-414 1349.5,-414 1349.5,-395 1387.5,-395 1387.5,-414"/>
<text text-anchor="middle" x="1368.5" y="-402" font-family="Helvetica,sans-Serif" font-size="10.00">lldiv</text>
</a>
</g>
</g>
<!-- Node34&#45;&gt;Node35 -->
<g id="edge40_Node000034_Node000035" class="edge">
<title>Node34&#45;&gt;Node35</title>
<g id="a_edge40_Node000034_Node000035"><a xlink:title=" ">
<path fill="none" stroke="#63b8ff" d="M1295.78,-404.5C1308.84,-404.5 1325.47,-404.5 1339.43,-404.5"/>
<polygon fill="#63b8ff" stroke="#63b8ff" points="1339.47,-408 1349.47,-404.5 1339.47,-401 1339.47,-408"/>
</a>
</g>
</g>
<!-- Node38&#45;&gt;Node38 -->
<g id="edge48_Node000038_Node000038" class="edge">
<title>Node38&#45;&gt;Node38</title>
<g id="a_edge48_Node000038_Node000038"><a xlink:title=" ">
<path fill="none" stroke="#63b8ff" d="M775.04,-213.08C764.84,-221.73 771.83,-231 796,-231 811.49,-231 819.92,-227.2 821.3,-222.19"/>
<polygon fill="#63b8ff" stroke="#63b8ff" points="824.42,-220.61 816.96,-213.08 818.1,-223.62 824.42,-220.61"/>
</a>
</g>
</g>
<!-- Node39 -->
<g id="Node000039" class="node">
<title>Node39</title>
<g id="a_Node000039"><a xlink:href="FrameInterpolation_8cpp.html#a5fbd67ef553452903cf553b9c224fa76" target="_top" xlink:title=" ">
<polygon fill="white" stroke="#666666" points="1021,-210.5 893,-210.5 893,-180.5 1021,-180.5 1021,-210.5"/>
<text text-anchor="start" x="901" y="-198.5" font-family="Helvetica,sans-Serif" font-size="10.00">FrameInterpolation</text>
<text text-anchor="middle" x="957" y="-187.5" font-family="Helvetica,sans-Serif" font-size="10.00">_Record_SetTextMatrix</text>
</a>
</g>
</g>
<!-- Node38&#45;&gt;Node39 -->
<g id="edge46_Node000038_Node000039" class="edge">
<title>Node38&#45;&gt;Node39</title>
<g id="a_edge46_Node000038_Node000039"><a xlink:title=" ">
<path fill="none" stroke="#63b8ff" d="M838.36,-201.42C852.02,-200.73 867.65,-199.95 882.96,-199.17"/>
<polygon fill="#63b8ff" stroke="#63b8ff" points="883.14,-202.67 892.95,-198.67 882.79,-195.68 883.14,-202.67"/>
</a>
</g>
</g>
<!-- Node39&#45;&gt;Node19 -->
<g id="edge47_Node000039_Node000019" class="edge">
<title>Node39&#45;&gt;Node19</title>
<g id="a_edge47_Node000039_Node000019"><a xlink:title=" ">
<path fill="none" stroke="#63b8ff" d="M999.85,-210.51C1030.27,-221.41 1071.04,-236.03 1100.11,-246.45"/>
<polygon fill="#63b8ff" stroke="#63b8ff" points="1099.27,-249.87 1109.87,-249.95 1101.63,-243.28 1099.27,-249.87"/>
</a>
</g>
</g>
<!-- Node41&#45;&gt;Node5 -->
<g id="edge52_Node000041_Node000005" class="edge">
<title>Node41&#45;&gt;Node5</title>
<g id="a_edge52_Node000041_Node000005"><a xlink:title=" ">
<path fill="none" stroke="#63b8ff" d="M401.25,-208.99C415.72,-211.84 431.74,-214.99 446.8,-217.95"/>
<polygon fill="#63b8ff" stroke="#63b8ff" points="446.55,-221.47 457.04,-219.97 447.9,-214.6 446.55,-221.47"/>
</a>
</g>
</g>
<!-- Node43 -->
<g id="Node000043" class="node">
<title>Node43</title>
<g id="a_Node000043"><a xlink:href="menu__items_8c.html#ad2af1a6781c3f0bf246aba0d078ae773" target="_top" xlink:title=" ">
<polygon fill="white" stroke="#666666" points="387,-99 317,-99 317,-80 387,-80 387,-99"/>
<text text-anchor="middle" x="352" y="-87" font-family="Helvetica,sans-Serif" font-size="10.00">print_text1</text>
</a>
</g>
</g>
<!-- Node42&#45;&gt;Node43 -->
<g id="edge54_Node000042_Node000043" class="edge">
<title>Node42&#45;&gt;Node43</title>
<g id="a_edge54_Node000042_Node000043"><a xlink:title=" ">
<path fill="none" stroke="#63b8ff" d="M250.56,-89.5C268.88,-89.5 289.28,-89.5 306.88,-89.5"/>
<polygon fill="#63b8ff" stroke="#63b8ff" points="306.88,-93 316.88,-89.5 306.88,-86 306.88,-93"/>
</a>
</g>
</g>
<!-- Node43&#45;&gt;Node5 -->
<g id="edge55_Node000043_Node000005" class="edge">
<title>Node43&#45;&gt;Node5</title>
<g id="a_edge55_Node000043_Node000005"><a xlink:title=" ">
<path fill="none" stroke="#63b8ff" d="M377.1,-99.17C385.12,-103 393.84,-107.84 401,-113.5 420.56,-128.95 420.47,-137.85 437,-156.5 454.32,-176.03 474.89,-197.77 488.94,-212.41"/>
<polygon fill="#63b8ff" stroke="#63b8ff" points="486.55,-214.97 496.01,-219.75 491.59,-210.12 486.55,-214.97"/>
</a>
</g>
</g>
<!-- Node43&#45;&gt;Node9 -->
<g id="edge56_Node000043_Node000009" class="edge">
<title>Node43&#45;&gt;Node9</title>
<g id="a_edge56_Node000043_Node000009"><a xlink:title=" ">
<path fill="none" stroke="#63b8ff" d="M386.84,-99.04C403.21,-103.66 423.39,-109.35 442.45,-114.72"/>
<polygon fill="#63b8ff" stroke="#63b8ff" points="441.71,-118.15 452.28,-117.49 443.61,-111.41 441.71,-118.15"/>
</a>
</g>
</g>
<!-- Node43&#45;&gt;Node10 -->
<g id="edge57_Node000043_Node000010" class="edge">
<title>Node43&#45;&gt;Node10</title>
<g id="a_edge57_Node000043_Node000010"><a xlink:title=" ">
<path fill="none" stroke="#63b8ff" d="M363.33,-79.59C378.19,-66.08 407.14,-42.54 437,-33.5 551,1.02 587.37,-14.77 705,-33.5 787,-46.55 878.61,-82.18 925.18,-101.91"/>
<polygon fill="#63b8ff" stroke="#63b8ff" points="923.85,-105.14 934.42,-105.86 926.6,-98.71 923.85,-105.14"/>
</a>
</g>
</g>
<!-- Node43&#45;&gt;Node13 -->
<g id="edge58_Node000043_Node000013" class="edge">
<title>Node43&#45;&gt;Node13</title>
<g id="a_edge58_Node000043_Node000013"><a xlink:title=" ">
<path fill="none" stroke="#63b8ff" d="M387.22,-81.2C407.65,-76.24 433.92,-69.87 456.52,-64.38"/>
<polygon fill="#63b8ff" stroke="#63b8ff" points="457.38,-67.78 466.28,-62.02 455.73,-60.97 457.38,-67.78"/>
</a>
</g>
</g>
<!-- Node43&#45;&gt;Node15 -->
<g id="edge59_Node000043_Node000015" class="edge">
<title>Node43&#45;&gt;Node15</title>
<g id="a_edge59_Node000043_Node000015"><a xlink:title=" ">
<path fill="none" stroke="#63b8ff" d="M387.22,-89.5C408.95,-89.5 437.29,-89.5 460.79,-89.5"/>
<polygon fill="#63b8ff" stroke="#63b8ff" points="460.86,-93 470.86,-89.5 460.86,-86 460.86,-93"/>
</a>
</g>
</g>
</g>
</svg>

<g id="navigator" transform="translate(0 0)" fill="#404254">
  <rect fill="#f2f5e9" fill-opacity="0.5" stroke="#606060" stroke-width=".5" x="0" y="0" width="60" height="60"/>
  <use id="zoomplus" xlink:href="#zoomPlus" x="17" y="9" onmousedown="handleZoom(evt,'in')"/>
  <use id="zoomminus" xlink:href="#zoomMin" x="42" y="9" onmousedown="handleZoom(evt,'out')"/>
  <use id="reset" xlink:href="#resetDef" x="30" y="36" onmousedown="handleReset()"/>
   <use id="arrowup" xlink:href="#arrowUp" x="0" y="0" onmousedown="handlePan(0,-1)"/>
  <use id="arrowright" xlink:href="#arrowRight" x="0" y="0" onmousedown="handlePan(1,0)"/>
  <use id="arrowdown" xlink:href="#arrowDown" x="0" y="0" onmousedown="handlePan(0,1)"/>
  <use id="arrowleft" xlink:href="#arrowLeft" x="0" y="0" onmousedown="handlePan(-1,0)"/>
</g>
<svg viewBox="0 0 15 15" width="100%" height="30px" preserveAspectRatio="xMaxYMin meet">
 <g id="arrow_out" transform="scale(0.3 0.3)">
  <a xlink:href="menu__items_8h_acd2ca82a770a579b75122a00bee67a4b_cgraph_org.svg" target="_base">
   <rect id="button" ry="5" rx="5" y="6" x="6" height="38" width="38"
        fill="#f2f5e9" fill-opacity="0.5" stroke="#606060" stroke-width="1.0"/>
   <path id="arrow"
     d="M 11.500037,31.436501 C 11.940474,20.09759 22.043105,11.32322 32.158766,21.979434 L 37.068811,17.246167 C 37.068811,17.246167 37.088388,32 37.088388,32 L 22.160133,31.978069 C 22.160133,31.978069 26.997745,27.140456 26.997745,27.140456 C 18.528582,18.264221 13.291696,25.230495 11.500037,31.436501 z"
     style="fill:#404040;"/>
  </a>
 </g>
</svg>

<style type='text/css'>
<![CDATA[
[data-mouse-over-selected='false'] { opacity: 0.7; }
[data-mouse-over-selected='true']  { opacity: 1.0; }
]]>
</style>
<script type="application/ecmascript"><![CDATA[
document.addEventListener('DOMContentLoaded', (event) => {
  highlightEdges();
  highlightAdjacentNodes();
});
]]></script>
</svg>
