<?xml version="1.0" encoding="UTF-8" standalone="no"?>
<!DOCTYPE svg PUBLIC "-//W3C//DTD SVG 1.1//EN"
 "http://www.w3.org/Graphics/SVG/1.1/DTD/svg11.dtd">
<!-- Generated by graphviz version 2.43.0 (0)
 -->
<!-- Title: print_text2_wide Pages: 1 -->
<svg width="1292pt" height="458pt"
 viewBox="0.00 0.00 1292.00 457.62" xmlns="http://www.w3.org/2000/svg" xmlns:xlink="http://www.w3.org/1999/xlink">
<g id="graph0" class="graph" transform="scale(1 1) rotate(0) translate(4 453.62)">
<title>print_text2_wide</title>
<!-- Node1 -->
<g id="Node000001" class="node">
<title>Node1</title>
<g id="a_Node000001"><a xlink:title=" ">
<polygon fill="#999999" stroke="#666666" points="98,-174.62 0,-174.62 0,-155.62 98,-155.62 98,-174.62"/>
<text text-anchor="middle" x="49" y="-162.62" font-family="Helvetica,sans-Serif" font-size="10.00">print_text2_wide</text>
</a>
</g>
</g>
<!-- Node2 -->
<g id="Node000002" class="node">
<title>Node2</title>
<g id="a_Node000002"><a xlink:href="menu__items_8c.html#ace62f40ce813c34904327e39643a0dbf" target="_top" xlink:title=" ">
<polygon fill="white" stroke="#666666" points="256,-365.62 139,-365.62 139,-346.62 256,-346.62 256,-365.62"/>
<text text-anchor="middle" x="197.5" y="-353.62" font-family="Helvetica,sans-Serif" font-size="10.00">char_to_glyph_index</text>
</a>
</g>
</g>
<!-- Node1&#45;&gt;Node2 -->
<g id="edge1_Node000001_Node000002" class="edge">
<title>Node1&#45;&gt;Node2</title>
<g id="a_edge1_Node000001_Node000002"><a xlink:title=" ">
<path fill="none" stroke="#63b8ff" d="M57.47,-174.85C80.78,-205.24 152.45,-298.68 182.75,-338.19"/>
<polygon fill="#63b8ff" stroke="#63b8ff" points="180.01,-340.37 188.87,-346.18 185.56,-336.11 180.01,-340.37"/>
</a>
</g>
</g>
<!-- Node6 -->
<g id="Node000006" class="node">
<title>Node6</title>
<g id="a_Node000006"><a xlink:href="GBIMiddleware_8cpp.html#a4ecc44e3c6f1ca5a6b4a20c41d3bd2d2" target="_top" xlink:title=" ">
<polygon fill="white" stroke="#666666" points="786.5,-53.62 697.5,-53.62 697.5,-34.62 786.5,-34.62 786.5,-53.62"/>
<text text-anchor="middle" x="742" y="-41.62" font-family="Helvetica,sans-Serif" font-size="10.00">gSPDisplayList</text>
</a>
</g>
</g>
<!-- Node1&#45;&gt;Node6 -->
<g id="edge6_Node000001_Node000006" class="edge">
<title>Node1&#45;&gt;Node6</title>
<g id="a_edge6_Node000001_Node000006"><a xlink:title=" ">
<path fill="none" stroke="#63b8ff" d="M56.8,-155.51C69.88,-137.65 100.26,-99.05 134,-76.12 198.51,-32.28 220.41,-25.83 297,-11.12 439.28,16.2 611.22,-14.17 693.13,-32.41"/>
<polygon fill="#63b8ff" stroke="#63b8ff" points="692.37,-35.82 702.9,-34.62 693.92,-29 692.37,-35.82"/>
</a>
</g>
</g>
<!-- Node9 -->
<g id="Node000009" class="node">
<title>Node9</title>
<g id="a_Node000009"><a xlink:href="menu__items_8c.html#a68e560d23390d5add7cb57ccd82e21ae" target="_top" xlink:title=" ">
<polygon fill="white" stroke="#666666" points="245,-202.62 150,-202.62 150,-183.62 245,-183.62 245,-202.62"/>
<text text-anchor="middle" x="197.5" y="-190.62" font-family="Helvetica,sans-Serif" font-size="10.00">load_menu_img</text>
</a>
</g>
</g>
<!-- Node1&#45;&gt;Node9 -->
<g id="edge9_Node000001_Node000009" class="edge">
<title>Node1&#45;&gt;Node9</title>
<g id="a_edge9_Node000001_Node000009"><a xlink:title=" ">
<path fill="none" stroke="#63b8ff" d="M98.38,-174.37C111.53,-176.88 125.89,-179.62 139.47,-182.22"/>
<polygon fill="#63b8ff" stroke="#63b8ff" points="139.19,-185.73 149.67,-184.17 140.5,-178.85 139.19,-185.73"/>
</a>
</g>
</g>
<!-- Node11 -->
<g id="Node000011" class="node">
<title>Node11</title>
<g id="a_Node000011"><a xlink:href="menu__items_8c.html#a4a007ea44e7ab306e6126af44f75814a" target="_top" xlink:title=" ">
<polygon fill="white" stroke="#666666" points="261,-104.62 134,-104.62 134,-85.62 261,-85.62 261,-104.62"/>
<text text-anchor="middle" x="197.5" y="-92.62" font-family="Helvetica,sans-Serif" font-size="10.00">print_letter_wide_right</text>
</a>
</g>
</g>
<!-- Node1&#45;&gt;Node11 -->
<g id="edge11_Node000001_Node000011" class="edge">
<title>Node1&#45;&gt;Node11</title>
<g id="a_edge11_Node000001_Node000011"><a xlink:title=" ">
<path fill="none" stroke="#63b8ff" d="M70.06,-155.53C95.13,-143.56 138.22,-122.97 167.03,-109.2"/>
<polygon fill="#63b8ff" stroke="#63b8ff" points="168.7,-112.28 176.21,-104.81 165.68,-105.97 168.7,-112.28"/>
</a>
</g>
</g>
<!-- Node3 -->
<g id="Node000003" class="node">
<title>Node3</title>
<g id="a_Node000003"><a xlink:href="menu__items_8c.html#ae8ba1b567dba01ff15c64d416653a70b" target="_top" xlink:title=" ">
<polygon fill="white" stroke="#666666" points="404,-347.62 312,-347.62 312,-328.62 404,-328.62 404,-347.62"/>
<text text-anchor="middle" x="358" y="-335.62" font-family="Helvetica,sans-Serif" font-size="10.00">func_80092DF8</text>
</a>
</g>
</g>
<!-- Node2&#45;&gt;Node3 -->
<g id="edge2_Node000002_Node000003" class="edge">
<title>Node2&#45;&gt;Node3</title>
<g id="a_edge2_Node000002_Node000003"><a xlink:title=" ">
<path fill="none" stroke="#63b8ff" d="M256.17,-349.57C271.06,-347.88 287.04,-346.06 301.8,-344.39"/>
<polygon fill="#63b8ff" stroke="#63b8ff" points="302.25,-347.86 311.79,-343.25 301.46,-340.9 302.25,-347.86"/>
</a>
</g>
</g>
<!-- Node4 -->
<g id="Node000004" class="node">
<title>Node4</title>
<g id="a_Node000004"><a xlink:href="menu__items_8c.html#acd5b29a8e8634aa4f3db4b9a7c5ba033" target="_top" xlink:title=" ">
<polygon fill="white" stroke="#666666" points="591.5,-422.62 499.5,-422.62 499.5,-403.62 591.5,-403.62 591.5,-422.62"/>
<text text-anchor="middle" x="545.5" y="-410.62" font-family="Helvetica,sans-Serif" font-size="10.00">func_80092E1C</text>
</a>
</g>
</g>
<!-- Node2&#45;&gt;Node4 -->
<g id="edge4_Node000002_Node000004" class="edge">
<title>Node2&#45;&gt;Node4</title>
<g id="a_edge4_Node000002_Node000004"><a xlink:title=" ">
<path fill="none" stroke="#63b8ff" d="M218.33,-365.75C237.85,-374.75 268.75,-387.73 297,-394.12 361.89,-408.79 438.51,-412.68 489.13,-413.45"/>
<polygon fill="#63b8ff" stroke="#63b8ff" points="489.16,-416.95 499.2,-413.57 489.25,-409.95 489.16,-416.95"/>
</a>
</g>
</g>
<!-- Node5 -->
<g id="Node000005" class="node">
<title>Node5</title>
<g id="a_Node000005"><a xlink:href="menu__items_8c.html#ab26c8dca1828cd1d5a6c341cb851f0b9" target="_top" xlink:title=" ">
<polygon fill="white" stroke="#666666" points="403.5,-384.62 312.5,-384.62 312.5,-365.62 403.5,-365.62 403.5,-384.62"/>
<text text-anchor="middle" x="358" y="-372.62" font-family="Helvetica,sans-Serif" font-size="10.00">func_80092EE4</text>
</a>
</g>
</g>
<!-- Node2&#45;&gt;Node5 -->
<g id="edge5_Node000002_Node000005" class="edge">
<title>Node2&#45;&gt;Node5</title>
<g id="a_edge5_Node000002_Node000005"><a xlink:title=" ">
<path fill="none" stroke="#63b8ff" d="M256.17,-363.03C271.13,-364.83 287.2,-366.75 302.02,-368.53"/>
<polygon fill="#63b8ff" stroke="#63b8ff" points="301.7,-372.02 312.04,-369.73 302.53,-365.06 301.7,-372.02"/>
</a>
</g>
</g>
<!-- Node3&#45;&gt;Node4 -->
<g id="edge3_Node000003_Node000004" class="edge">
<title>Node3&#45;&gt;Node4</title>
<g id="a_edge3_Node000003_Node000004"><a xlink:title=" ">
<path fill="none" stroke="#63b8ff" d="M398.99,-347.66C405.94,-350.17 412.89,-353.29 419,-357.12 438.72,-369.47 434.64,-383.85 455,-395.12 465.51,-400.93 477.64,-404.88 489.51,-407.56"/>
<polygon fill="#63b8ff" stroke="#63b8ff" points="488.89,-411.01 499.38,-409.53 490.25,-404.14 488.89,-411.01"/>
</a>
</g>
</g>
<!-- Node7 -->
<g id="Node000007" class="node">
<title>Node7</title>
<g id="a_Node000007"><a xlink:href="Engine_8cpp.html#a223c8bc63f228dc11177515e38eff2db" target="_top" xlink:title=" ">
<polygon fill="white" stroke="#666666" points="997,-90.62 848,-90.62 848,-71.62 997,-71.62 997,-90.62"/>
<text text-anchor="middle" x="922.5" y="-78.62" font-family="Helvetica,sans-Serif" font-size="10.00">GameEngine_OTRSigCheck</text>
</a>
</g>
</g>
<!-- Node6&#45;&gt;Node7 -->
<g id="edge7_Node000006_Node000007" class="edge">
<title>Node6&#45;&gt;Node7</title>
<g id="a_edge7_Node000006_Node000007"><a xlink:title=" ">
<path fill="none" stroke="#63b8ff" d="M786.67,-53.17C810.45,-58.1 840.13,-64.25 865.59,-69.53"/>
<polygon fill="#63b8ff" stroke="#63b8ff" points="864.98,-72.98 875.48,-71.58 866.4,-66.12 864.98,-72.98"/>
</a>
</g>
</g>
<!-- Node8 -->
<g id="Node000008" class="node">
<title>Node8</title>
<g id="a_Node000008"><a xlink:href="string_8c.html#a008e171a518fe0e0352f31b245e03875" target="_top" xlink:title=" ">
<polygon fill="white" stroke="#666666" points="1079.5,-161.62 1035.5,-161.62 1035.5,-142.62 1079.5,-142.62 1079.5,-161.62"/>
<text text-anchor="middle" x="1057.5" y="-149.62" font-family="Helvetica,sans-Serif" font-size="10.00">strlen</text>
</a>
</g>
</g>
<!-- Node7&#45;&gt;Node8 -->
<g id="edge8_Node000007_Node000008" class="edge">
<title>Node7&#45;&gt;Node8</title>
<g id="a_edge8_Node000007_Node000008"><a xlink:title=" ">
<path fill="none" stroke="#63b8ff" d="M941.44,-90.69C964.04,-102.76 1003.12,-123.62 1029.38,-137.64"/>
<polygon fill="#63b8ff" stroke="#63b8ff" points="1027.95,-140.85 1038.42,-142.47 1031.25,-134.67 1027.95,-140.85"/>
</a>
</g>
</g>
<!-- Node10 -->
<g id="Node000010" class="node">
<title>Node10</title>
<g id="a_Node000010"><a xlink:href="menu__items_8c.html#a248768ee2e4ca9ae9cf0a30bfb256859" target="_top" xlink:title=" ">
<polygon fill="white" stroke="#666666" points="397,-237.62 319,-237.62 319,-218.62 397,-218.62 397,-237.62"/>
<text text-anchor="middle" x="358" y="-225.62" font-family="Helvetica,sans-Serif" font-size="10.00">load_texture</text>
</a>
</g>
</g>
<!-- Node9&#45;&gt;Node10 -->
<g id="edge10_Node000009_Node000010" class="edge">
<title>Node9&#45;&gt;Node10</title>
<g id="a_edge10_Node000009_Node000010"><a xlink:title=" ">
<path fill="none" stroke="#63b8ff" d="M241.81,-202.68C262.62,-207.28 287.63,-212.8 309.01,-217.52"/>
<polygon fill="#63b8ff" stroke="#63b8ff" points="308.35,-220.96 318.87,-219.7 309.86,-214.13 308.35,-220.96"/>
</a>
</g>
</g>
<!-- Node11&#45;&gt;Node6 -->
<g id="edge50_Node000011_Node000006" class="edge">
<title>Node11&#45;&gt;Node6</title>
<g id="a_edge50_Node000011_Node000006"><a xlink:title=" ">
<path fill="none" stroke="#63b8ff" d="M261.18,-88.15C313.09,-82.46 388.8,-74.38 455,-68.12 535.79,-60.48 629.54,-52.85 687.06,-48.3"/>
<polygon fill="#63b8ff" stroke="#63b8ff" points="687.67,-51.77 697.37,-47.49 687.12,-44.79 687.67,-51.77"/>
</a>
</g>
</g>
<!-- Node12 -->
<g id="Node000012" class="node">
<title>Node12</title>
<g id="a_Node000012"><a xlink:href="menu__items_8c.html#ad129d5fc839c6e03c8d1399f72f53071" target="_top" xlink:title=" ">
<polygon fill="white" stroke="#666666" points="419,-200.12 297,-200.12 297,-170.12 419,-170.12 419,-200.12"/>
<text text-anchor="start" x="305" y="-188.12" font-family="Helvetica,sans-Serif" font-size="10.00">func_80095BD0_wide</text>
<text text-anchor="middle" x="358" y="-177.12" font-family="Helvetica,sans-Serif" font-size="10.00">_right</text>
</a>
</g>
</g>
<!-- Node11&#45;&gt;Node12 -->
<g id="edge12_Node000011_Node000012" class="edge">
<title>Node11&#45;&gt;Node12</title>
<g id="a_edge12_Node000011_Node000012"><a xlink:title=" ">
<path fill="none" stroke="#63b8ff" d="M215.46,-104.75C240.65,-119.05 288.5,-146.22 321.55,-164.99"/>
<polygon fill="#63b8ff" stroke="#63b8ff" points="320.02,-168.15 330.44,-170.04 323.48,-162.06 320.02,-168.15"/>
</a>
</g>
</g>
<!-- Node40 -->
<g id="Node000040" class="node">
<title>Node40</title>
<g id="a_Node000040"><a xlink:href="menu__items_8c.html#a6061a0dbb9b34a45fb1620c6c1d7f73c" target="_top" xlink:title=" ">
<polygon fill="white" stroke="#666666" points="404,-39.62 312,-39.62 312,-20.62 404,-20.62 404,-39.62"/>
<text text-anchor="middle" x="358" y="-27.62" font-family="Helvetica,sans-Serif" font-size="10.00">func_8009B8C4</text>
</a>
</g>
</g>
<!-- Node11&#45;&gt;Node40 -->
<g id="edge49_Node000011_Node000040" class="edge">
<title>Node11&#45;&gt;Node40</title>
<g id="a_edge49_Node000011_Node000040"><a xlink:title=" ">
<path fill="none" stroke="#63b8ff" d="M221.15,-85.58C241.09,-77.22 270.93,-64.76 297,-54.12 305.6,-50.61 314.92,-46.86 323.59,-43.39"/>
<polygon fill="#63b8ff" stroke="#63b8ff" points="325.04,-46.58 333.03,-39.62 322.44,-40.08 325.04,-46.58"/>
</a>
</g>
</g>
<!-- Node13 -->
<g id="Node000013" class="node">
<title>Node13</title>
<g id="a_Node000013"><a xlink:href="Matrix_8cpp.html#a6f64c44efb9bdfff802175a9739ce1f1" target="_top" xlink:title=" ">
<polygon fill="white" stroke="#666666" points="589,-287.62 502,-287.62 502,-268.62 589,-268.62 589,-287.62"/>
<text text-anchor="middle" x="545.5" y="-275.62" font-family="Helvetica,sans-Serif" font-size="10.00">AddTextMatrix</text>
</a>
</g>
</g>
<!-- Node12&#45;&gt;Node13 -->
<g id="edge13_Node000012_Node000013" class="edge">
<title>Node12&#45;&gt;Node13</title>
<g id="a_edge13_Node000012_Node000013"><a xlink:title=" ">
<path fill="none" stroke="#63b8ff" d="M402.79,-200.15C408.51,-203.02 414.08,-206.33 419,-210.12 439.85,-226.17 432.9,-242.84 455,-257.12 465.89,-264.16 478.89,-268.85 491.56,-271.97"/>
<polygon fill="#63b8ff" stroke="#63b8ff" points="491.09,-275.44 501.6,-274.14 492.57,-268.6 491.09,-275.44"/>
</a>
</g>
</g>
<!-- Node18 -->
<g id="Node000018" class="node">
<title>Node18</title>
<g id="a_Node000018"><a xlink:href="FrameInterpolation_8cpp.html#a3a036bc9d533e28a4e9697cd20dccf3e" target="_top" xlink:title=" ">
<polygon fill="white" stroke="#666666" points="600.5,-248.12 490.5,-248.12 490.5,-218.12 600.5,-218.12 600.5,-248.12"/>
<text text-anchor="start" x="498.5" y="-236.12" font-family="Helvetica,sans-Serif" font-size="10.00">FrameInterpolation</text>
<text text-anchor="middle" x="545.5" y="-225.12" font-family="Helvetica,sans-Serif" font-size="10.00">_RecordCloseChild</text>
</a>
</g>
</g>
<!-- Node12&#45;&gt;Node18 -->
<g id="edge18_Node000012_Node000018" class="edge">
<title>Node12&#45;&gt;Node18</title>
<g id="a_edge18_Node000012_Node000018"><a xlink:title=" ">
<path fill="none" stroke="#63b8ff" d="M417.18,-200.18C437.27,-205.37 459.89,-211.22 480.42,-216.54"/>
<polygon fill="#63b8ff" stroke="#63b8ff" points="479.75,-219.98 490.31,-219.1 481.51,-213.2 479.75,-219.98"/>
</a>
</g>
</g>
<!-- Node19 -->
<g id="Node000019" class="node">
<title>Node19</title>
<g id="a_Node000019"><a xlink:href="FrameInterpolation_8cpp.html#a0eda726b74eac815af4e874014e2727c" target="_top" xlink:title=" ">
<polygon fill="white" stroke="#666666" points="600.5,-200.12 490.5,-200.12 490.5,-170.12 600.5,-170.12 600.5,-200.12"/>
<text text-anchor="start" x="498.5" y="-188.12" font-family="Helvetica,sans-Serif" font-size="10.00">FrameInterpolation</text>
<text text-anchor="middle" x="545.5" y="-177.12" font-family="Helvetica,sans-Serif" font-size="10.00">_RecordOpenChild</text>
</a>
</g>
</g>
<!-- Node12&#45;&gt;Node19 -->
<g id="edge20_Node000012_Node000019" class="edge">
<title>Node12&#45;&gt;Node19</title>
<g id="a_edge20_Node000012_Node000019"><a xlink:title=" ">
<path fill="none" stroke="#63b8ff" d="M419.23,-185.12C438.69,-185.12 460.33,-185.12 480.08,-185.12"/>
<polygon fill="#63b8ff" stroke="#63b8ff" points="480.21,-188.62 490.21,-185.12 480.21,-181.62 480.21,-188.62"/>
</a>
</g>
</g>
<!-- Node20 -->
<g id="Node000020" class="node">
<title>Node20</title>
<g id="a_Node000020"><a xlink:href="menu__items_8c.html#ae0fd5923ba70cf6939cd3fa8d09c1191" target="_top" xlink:title=" ">
<polygon fill="white" stroke="#666666" points="591,-96.62 500,-96.62 500,-77.62 591,-77.62 591,-96.62"/>
<text text-anchor="middle" x="545.5" y="-84.62" font-family="Helvetica,sans-Serif" font-size="10.00">func_800959F8</text>
</a>
</g>
</g>
<!-- Node12&#45;&gt;Node20 -->
<g id="edge22_Node000012_Node000020" class="edge">
<title>Node12&#45;&gt;Node20</title>
<g id="a_edge22_Node000012_Node000020"><a xlink:title=" ">
<path fill="none" stroke="#63b8ff" d="M372.66,-169.82C389.95,-151.45 421.54,-121.14 455,-105.12 465.83,-99.93 478.09,-96.24 489.99,-93.61"/>
<polygon fill="#63b8ff" stroke="#63b8ff" points="490.74,-97.03 499.86,-91.64 489.37,-90.16 490.74,-97.03"/>
</a>
</g>
</g>
<!-- Node22 -->
<g id="Node000022" class="node">
<title>Node22</title>
<g id="a_Node000022"><a xlink:href="Engine_8cpp.html#a17495ab17d6e9c65b2a76e3c88a7f718" target="_top" xlink:title=" ">
<polygon fill="white" stroke="#666666" points="636,-385.62 455,-385.62 455,-366.62 636,-366.62 636,-385.62"/>
<text text-anchor="middle" x="545.5" y="-373.62" font-family="Helvetica,sans-Serif" font-size="10.00">OTRGetDimensionFromRightEdge</text>
</a>
</g>
</g>
<!-- Node12&#45;&gt;Node22 -->
<g id="edge26_Node000012_Node000022" class="edge">
<title>Node12&#45;&gt;Node22</title>
<g id="a_edge26_Node000012_Node000022"><a xlink:title=" ">
<path fill="none" stroke="#63b8ff" d="M407.37,-200.21C411.71,-202.98 415.7,-206.26 419,-210.12 462.99,-261.58 406.18,-311.22 455,-358.12 455.96,-359.05 456.96,-359.93 457.99,-360.78"/>
<polygon fill="#63b8ff" stroke="#63b8ff" points="456.18,-363.78 466.42,-366.5 460.11,-357.99 456.18,-363.78"/>
</a>
</g>
</g>
<!-- Node25 -->
<g id="Node000025" class="node">
<title>Node25</title>
<g id="a_Node000025"><a xlink:href="stubs_8c.html#a8b417b868747c80d58f83d8a1e78ecf3" target="_top" xlink:title=" ">
<polygon fill="white" stroke="#666666" points="579.5,-348.62 511.5,-348.62 511.5,-329.62 579.5,-329.62 579.5,-348.62"/>
<text text-anchor="middle" x="545.5" y="-336.62" font-family="Helvetica,sans-Serif" font-size="10.00">rmonPrintf</text>
</a>
</g>
</g>
<!-- Node12&#45;&gt;Node25 -->
<g id="edge29_Node000012_Node000025" class="edge">
<title>Node12&#45;&gt;Node25</title>
<g id="a_edge29_Node000012_Node000025"><a xlink:title=" ">
<path fill="none" stroke="#63b8ff" d="M405.89,-200.22C410.67,-203.01 415.17,-206.28 419,-210.12 448.55,-239.75 426.1,-266.85 455,-297.12 467.68,-310.4 485.4,-319.92 501.72,-326.5"/>
<polygon fill="#63b8ff" stroke="#63b8ff" points="500.54,-329.79 511.13,-330.04 503,-323.24 500.54,-329.79"/>
</a>
</g>
</g>
<!-- Node38 -->
<g id="Node000038" class="node">
<title>Node38</title>
<g id="a_Node000038"><a xlink:href="Matrix_8cpp.html#a9818099a1ee20606a7d622e744846366" target="_top" xlink:title=" ">
<polygon fill="white" stroke="#666666" points="587.5,-133.62 503.5,-133.62 503.5,-114.62 587.5,-114.62 587.5,-133.62"/>
<text text-anchor="middle" x="545.5" y="-121.62" font-family="Helvetica,sans-Serif" font-size="10.00">SetTextMatrix</text>
</a>
</g>
</g>
<!-- Node12&#45;&gt;Node38 -->
<g id="edge45_Node000012_Node000038" class="edge">
<title>Node12&#45;&gt;Node38</title>
<g id="a_edge45_Node000012_Node000038"><a xlink:title=" ">
<path fill="none" stroke="#63b8ff" d="M404.85,-170.04C435.89,-159.83 476.44,-146.5 505.84,-136.83"/>
<polygon fill="#63b8ff" stroke="#63b8ff" points="506.95,-140.15 515.35,-133.7 504.76,-133.5 506.95,-140.15"/>
</a>
</g>
</g>
<!-- Node14 -->
<g id="Node000014" class="node">
<title>Node14</title>
<g id="a_Node000014"><a xlink:href="FrameInterpolation_8cpp.html#a8cf1f2d6fabc6925aa71a9515341b4aa" target="_top" xlink:title=" ">
<polygon fill="white" stroke="#666666" points="812,-338.12 672,-338.12 672,-308.12 812,-308.12 812,-338.12"/>
<text text-anchor="start" x="680" y="-326.12" font-family="Helvetica,sans-Serif" font-size="10.00">FrameInterpolation</text>
<text text-anchor="middle" x="742" y="-315.12" font-family="Helvetica,sans-Serif" font-size="10.00">_RecordMatrixMtxFToMtx</text>
</a>
</g>
</g>
<!-- Node13&#45;&gt;Node14 -->
<g id="edge14_Node000013_Node000014" class="edge">
<title>Node13&#45;&gt;Node14</title>
<g id="a_edge14_Node000013_Node000014"><a xlink:title=" ">
<path fill="none" stroke="#63b8ff" d="M587.75,-287.66C610.49,-292.92 639.43,-299.62 666.02,-305.77"/>
<polygon fill="#63b8ff" stroke="#63b8ff" points="665.55,-309.26 676.08,-308.1 667.13,-302.44 665.55,-309.26"/>
</a>
</g>
</g>
<!-- Node16 -->
<g id="Node000016" class="node">
<title>Node16</title>
<g id="a_Node000016"><a xlink:href="Game_8cpp.html#ae2fa844b3cb1021ecbc357f8ed2ad8cc" target="_top" xlink:title=" ">
<polygon fill="white" stroke="#666666" points="773,-252.62 711,-252.62 711,-233.62 773,-233.62 773,-252.62"/>
<text text-anchor="middle" x="742" y="-240.62" font-family="Helvetica,sans-Serif" font-size="10.00">GetWorld</text>
</a>
</g>
</g>
<!-- Node13&#45;&gt;Node16 -->
<g id="edge16_Node000013_Node000016" class="edge">
<title>Node13&#45;&gt;Node16</title>
<g id="a_edge16_Node000013_Node000016"><a xlink:title=" ">
<path fill="none" stroke="#63b8ff" d="M589.18,-270.44C622.38,-264.46 668.12,-256.23 700.7,-250.37"/>
<polygon fill="#63b8ff" stroke="#63b8ff" points="701.56,-253.77 710.78,-248.56 700.32,-246.88 701.56,-253.77"/>
</a>
</g>
</g>
<!-- Node17 -->
<g id="Node000017" class="node">
<title>Node17</title>
<g id="a_Node000017"><a xlink:href="guMtxF2L_8c.html#a40ab2d64c609839ff1e0ef0de2d0dcc4" target="_top" xlink:title=" ">
<polygon fill="white" stroke="#666666" points="774.5,-289.62 709.5,-289.62 709.5,-270.62 774.5,-270.62 774.5,-289.62"/>
<text text-anchor="middle" x="742" y="-277.62" font-family="Helvetica,sans-Serif" font-size="10.00">guMtxF2L</text>
</a>
</g>
</g>
<!-- Node13&#45;&gt;Node17 -->
<g id="edge17_Node000013_Node000017" class="edge">
<title>Node13&#45;&gt;Node17</title>
<g id="a_edge17_Node000013_Node000017"><a xlink:title=" ">
<path fill="none" stroke="#63b8ff" d="M589.18,-278.56C621.88,-278.89 666.73,-279.36 699.2,-279.69"/>
<polygon fill="#63b8ff" stroke="#63b8ff" points="699.24,-283.19 709.28,-279.79 699.32,-276.19 699.24,-283.19"/>
</a>
</g>
</g>
<!-- Node15 -->
<g id="Node000015" class="node">
<title>Node15</title>
<g id="a_Node000015"><a xlink:href="FrameInterpolation_8cpp.html#a02c7ac5342a4d376edee38f312b480bf" target="_top" xlink:title=" ">
<polygon fill="white" stroke="#666666" points="976.5,-195.62 868.5,-195.62 868.5,-176.62 976.5,-176.62 976.5,-195.62"/>
<text text-anchor="middle" x="922.5" y="-183.62" font-family="Helvetica,sans-Serif" font-size="10.00">check_if_recording</text>
</a>
</g>
</g>
<!-- Node14&#45;&gt;Node15 -->
<g id="edge15_Node000014_Node000015" class="edge">
<title>Node14&#45;&gt;Node15</title>
<g id="a_edge15_Node000014_Node000015"><a xlink:title=" ">
<path fill="none" stroke="#63b8ff" d="M795.59,-308.01C801.33,-305.44 806.93,-302.49 812,-299.12 831.92,-285.88 831.51,-276.44 848,-259.12 866.62,-239.56 888.69,-217.82 903.76,-203.2"/>
<polygon fill="#63b8ff" stroke="#63b8ff" points="906.58,-205.33 911.34,-195.86 901.71,-200.3 906.58,-205.33"/>
</a>
</g>
</g>
<!-- Node18&#45;&gt;Node15 -->
<g id="edge19_Node000018_Node000015" class="edge">
<title>Node18&#45;&gt;Node15</title>
<g id="a_edge19_Node000018_Node000015"><a xlink:title=" ">
<path fill="none" stroke="#63b8ff" d="M600.63,-226.34C668.77,-217.79 785.65,-203.15 857.96,-194.08"/>
<polygon fill="#63b8ff" stroke="#63b8ff" points="858.81,-197.5 868.3,-192.79 857.94,-190.56 858.81,-197.5"/>
</a>
</g>
</g>
<!-- Node19&#45;&gt;Node15 -->
<g id="edge21_Node000019_Node000015" class="edge">
<title>Node19&#45;&gt;Node15</title>
<g id="a_edge21_Node000019_Node000015"><a xlink:title=" ">
<path fill="none" stroke="#63b8ff" d="M600.63,-185.26C668.77,-185.45 785.65,-185.76 857.96,-185.95"/>
<polygon fill="#63b8ff" stroke="#63b8ff" points="858.29,-189.45 868.3,-185.98 858.31,-182.45 858.29,-189.45"/>
</a>
</g>
</g>
<!-- Node20&#45;&gt;Node6 -->
<g id="edge23_Node000020_Node000006" class="edge">
<title>Node20&#45;&gt;Node6</title>
<g id="a_edge23_Node000020_Node000006"><a xlink:title=" ">
<path fill="none" stroke="#63b8ff" d="M589.67,-77.58C618.62,-71.17 656.96,-62.7 687.81,-55.88"/>
<polygon fill="#63b8ff" stroke="#63b8ff" points="688.95,-59.21 697.95,-53.64 687.44,-52.38 688.95,-59.21"/>
</a>
</g>
</g>
<!-- Node21 -->
<g id="Node000021" class="node">
<title>Node21</title>
<g id="a_Node000021"><a xlink:href="GBIMiddleware_8cpp.html#aeef79449a27a710d73576e4a4f7f7f99" target="_top" xlink:title=" ">
<polygon fill="white" stroke="#666666" points="775,-90.62 709,-90.62 709,-71.62 775,-71.62 775,-90.62"/>
<text text-anchor="middle" x="742" y="-78.62" font-family="Helvetica,sans-Serif" font-size="10.00">gSPVertex</text>
</a>
</g>
</g>
<!-- Node20&#45;&gt;Node21 -->
<g id="edge24_Node000020_Node000021" class="edge">
<title>Node20&#45;&gt;Node21</title>
<g id="a_edge24_Node000020_Node000021"><a xlink:title=" ">
<path fill="none" stroke="#63b8ff" d="M591.12,-85.74C623.37,-84.75 666.66,-83.41 698.42,-82.43"/>
<polygon fill="#63b8ff" stroke="#63b8ff" points="698.83,-85.92 708.72,-82.12 698.62,-78.93 698.83,-85.92"/>
</a>
</g>
</g>
<!-- Node21&#45;&gt;Node7 -->
<g id="edge25_Node000021_Node000007" class="edge">
<title>Node21&#45;&gt;Node7</title>
<g id="a_edge25_Node000021_Node000007"><a xlink:title=" ">
<path fill="none" stroke="#63b8ff" d="M775.33,-81.12C792.92,-81.12 815.59,-81.12 837.8,-81.12"/>
<polygon fill="#63b8ff" stroke="#63b8ff" points="837.95,-84.62 847.95,-81.12 837.95,-77.62 837.95,-84.62"/>
</a>
</g>
</g>
<!-- Node23 -->
<g id="Node000023" class="node">
<title>Node23</title>
<g id="a_Node000023"><a xlink:href="Engine_8cpp.html#a130aa97f1c7fae24f3d23f8126e7506f" target="_top" xlink:title=" ">
<polygon fill="white" stroke="#666666" points="798.5,-449.62 685.5,-449.62 685.5,-430.62 798.5,-430.62 798.5,-449.62"/>
<text text-anchor="middle" x="742" y="-437.62" font-family="Helvetica,sans-Serif" font-size="10.00">OTRGetAspectRatio</text>
</a>
</g>
</g>
<!-- Node22&#45;&gt;Node23 -->
<g id="edge27_Node000022_Node000023" class="edge">
<title>Node22&#45;&gt;Node23</title>
<g id="a_edge27_Node000022_Node000023"><a xlink:title=" ">
<path fill="none" stroke="#63b8ff" d="M608.77,-385.67C618.11,-388.15 627.47,-391.24 636,-395.12 654.21,-403.39 653.99,-413.43 672,-422.12 676,-424.05 680.23,-425.79 684.55,-427.36"/>
<polygon fill="#63b8ff" stroke="#63b8ff" points="683.5,-430.7 694.09,-430.52 685.7,-424.05 683.5,-430.7"/>
</a>
</g>
</g>
<!-- Node24 -->
<g id="Node000024" class="node">
<title>Node24</title>
<g id="a_Node000024"><a xlink:href="Engine_8cpp.html#a29357c424545be61af4bd28d84fd344a" target="_top" xlink:title=" ">
<polygon fill="white" stroke="#666666" points="965.5,-449.62 879.5,-449.62 879.5,-430.62 965.5,-430.62 965.5,-449.62"/>
<text text-anchor="middle" x="922.5" y="-437.62" font-family="Helvetica,sans-Serif" font-size="10.00">GetInterpreter</text>
</a>
</g>
</g>
<!-- Node23&#45;&gt;Node24 -->
<g id="edge28_Node000023_Node000024" class="edge">
<title>Node23&#45;&gt;Node24</title>
<g id="a_edge28_Node000023_Node000024"><a xlink:title=" ">
<path fill="none" stroke="#63b8ff" d="M798.5,-440.12C821.03,-440.12 846.92,-440.12 869.12,-440.12"/>
<polygon fill="#63b8ff" stroke="#63b8ff" points="869.37,-443.62 879.37,-440.12 869.37,-436.62 869.37,-443.62"/>
</a>
</g>
</g>
<!-- Node26 -->
<g id="Node000026" class="node">
<title>Node26</title>
<g id="a_Node000026"><a xlink:href="__Printf_8c.html#a39bb05c90efce6c6790c5d58d271d72d" target="_top" xlink:title=" ">
<polygon fill="white" stroke="#666666" points="766,-375.62 718,-375.62 718,-356.62 766,-356.62 766,-375.62"/>
<text text-anchor="middle" x="742" y="-363.62" font-family="Helvetica,sans-Serif" font-size="10.00">_Printf</text>
</a>
</g>
</g>
<!-- Node25&#45;&gt;Node26 -->
<g id="edge30_Node000025_Node000026" class="edge">
<title>Node25&#45;&gt;Node26</title>
<g id="a_edge30_Node000025_Node000026"><a xlink:title=" ">
<path fill="none" stroke="#63b8ff" d="M579.94,-343.76C615.72,-348.73 672.15,-356.56 707.83,-361.51"/>
<polygon fill="#63b8ff" stroke="#63b8ff" points="707.37,-364.98 717.75,-362.89 708.33,-358.05 707.37,-364.98"/>
</a>
</g>
</g>
<!-- Node37 -->
<g id="Node000037" class="node">
<title>Node37</title>
<g id="a_Node000037"><a xlink:href="is__debug_8c.html#aaccfac8d9098530b6592eefe679d86b4" target="_top" xlink:title=" ">
<polygon fill="white" stroke="#666666" points="794.5,-412.62 689.5,-412.62 689.5,-393.62 794.5,-393.62 794.5,-412.62"/>
<text text-anchor="middle" x="742" y="-400.62" font-family="Helvetica,sans-Serif" font-size="10.00">is_proutSyncPrintf</text>
</a>
</g>
</g>
<!-- Node25&#45;&gt;Node37 -->
<g id="edge44_Node000025_Node000037" class="edge">
<title>Node25&#45;&gt;Node37</title>
<g id="a_edge44_Node000025_Node000037"><a xlink:title=" ">
<path fill="none" stroke="#63b8ff" d="M579.89,-342.7C597.2,-345.41 618.36,-350.11 636,-358.12 654.21,-366.39 653.99,-376.43 672,-385.12 676,-387.05 680.23,-388.79 684.55,-390.36"/>
<polygon fill="#63b8ff" stroke="#63b8ff" points="683.5,-393.7 694.09,-393.52 685.7,-387.05 683.5,-393.7"/>
</a>
</g>
</g>
<!-- Node27 -->
<g id="Node000027" class="node">
<title>Node27</title>
<g id="a_Node000027"><a xlink:href="__Printf_8c.html#ad73a5847f2d7c9de14cc2723da86bf45" target="_top" xlink:title=" ">
<polygon fill="white" stroke="#666666" points="947.5,-286.62 897.5,-286.62 897.5,-267.62 947.5,-267.62 947.5,-286.62"/>
<text text-anchor="middle" x="922.5" y="-274.62" font-family="Helvetica,sans-Serif" font-size="10.00">_Putfld</text>
</a>
</g>
</g>
<!-- Node26&#45;&gt;Node27 -->
<g id="edge31_Node000026_Node000027" class="edge">
<title>Node26&#45;&gt;Node27</title>
<g id="a_edge31_Node000026_Node000027"><a xlink:title=" ">
<path fill="none" stroke="#63b8ff" d="M766.28,-361.54C779.95,-358.41 797.36,-353.64 812,-347.12 845.01,-332.43 879.56,-308.73 900.82,-293.04"/>
<polygon fill="#63b8ff" stroke="#63b8ff" points="903.17,-295.65 909.07,-286.85 898.97,-290.05 903.17,-295.65"/>
</a>
</g>
</g>
<!-- Node36 -->
<g id="Node000036" class="node">
<title>Node36</title>
<g id="a_Node000036"><a xlink:href="string_8c.html#a988b4defe51a1815ef3b9ddab10e7a89" target="_top" xlink:title=" ">
<polygon fill="white" stroke="#666666" points="944.5,-375.62 900.5,-375.62 900.5,-356.62 944.5,-356.62 944.5,-375.62"/>
<text text-anchor="middle" x="922.5" y="-363.62" font-family="Helvetica,sans-Serif" font-size="10.00">strchr</text>
</a>
</g>
</g>
<!-- Node26&#45;&gt;Node36 -->
<g id="edge43_Node000026_Node000036" class="edge">
<title>Node26&#45;&gt;Node36</title>
<g id="a_edge43_Node000026_Node000036"><a xlink:title=" ">
<path fill="none" stroke="#63b8ff" d="M766.34,-366.12C798.02,-366.12 854.76,-366.12 890.14,-366.12"/>
<polygon fill="#63b8ff" stroke="#63b8ff" points="890.38,-369.62 900.38,-366.12 890.38,-362.62 890.38,-369.62"/>
</a>
</g>
</g>
<!-- Node27&#45;&gt;Node8 -->
<g id="edge42_Node000027_Node000008" class="edge">
<title>Node27&#45;&gt;Node8</title>
<g id="a_edge42_Node000027_Node000008"><a xlink:title=" ">
<path fill="none" stroke="#63b8ff" d="M933.94,-267.31C956.56,-246.04 1010.37,-195.47 1038.57,-168.97"/>
<polygon fill="#63b8ff" stroke="#63b8ff" points="1041.22,-171.28 1046.11,-161.88 1036.43,-166.18 1041.22,-171.28"/>
</a>
</g>
</g>
<!-- Node28 -->
<g id="Node000028" class="node">
<title>Node28</title>
<g id="a_Node000028"><a xlink:href="__Ldtob_8c.html#a7cc858157b66e15c831ad085113729ae" target="_top" xlink:title=" ">
<polygon fill="white" stroke="#666666" points="1082,-247.62 1033,-247.62 1033,-228.62 1082,-228.62 1082,-247.62"/>
<text text-anchor="middle" x="1057.5" y="-235.62" font-family="Helvetica,sans-Serif" font-size="10.00">_Ldtob</text>
</a>
</g>
</g>
<!-- Node27&#45;&gt;Node28 -->
<g id="edge32_Node000027_Node000028" class="edge">
<title>Node27&#45;&gt;Node28</title>
<g id="a_edge32_Node000027_Node000028"><a xlink:title=" ">
<path fill="none" stroke="#63b8ff" d="M947.59,-270.06C968.58,-263.9 999.26,-254.9 1022.71,-248.03"/>
<polygon fill="#63b8ff" stroke="#63b8ff" points="1023.98,-251.3 1032.59,-245.13 1022.01,-244.58 1023.98,-251.3"/>
</a>
</g>
</g>
<!-- Node34 -->
<g id="Node000034" class="node">
<title>Node34</title>
<g id="a_Node000034"><a xlink:href="__Litob_8c.html#aaaba3b0ab7920d422a61fe9e22600dd0" target="_top" xlink:title=" ">
<polygon fill="white" stroke="#666666" points="1080.5,-342.62 1034.5,-342.62 1034.5,-323.62 1080.5,-323.62 1080.5,-342.62"/>
<text text-anchor="middle" x="1057.5" y="-330.62" font-family="Helvetica,sans-Serif" font-size="10.00">_Litob</text>
</a>
</g>
</g>
<!-- Node27&#45;&gt;Node34 -->
<g id="edge39_Node000027_Node000034" class="edge">
<title>Node27&#45;&gt;Node34</title>
<g id="a_edge39_Node000027_Node000034"><a xlink:title=" ">
<path fill="none" stroke="#63b8ff" d="M946.36,-286.75C968.04,-295.87 1000.78,-309.66 1024.93,-319.83"/>
<polygon fill="#63b8ff" stroke="#63b8ff" points="1023.8,-323.15 1034.38,-323.8 1026.52,-316.7 1023.8,-323.15"/>
</a>
</g>
</g>
<!-- Node29 -->
<g id="Node000029" class="node">
<title>Node29</title>
<g id="a_Node000029"><a xlink:href="__Ldtob_8c.html#a2b6c5318b43bab1636bad9113ffb2761" target="_top" xlink:title=" ">
<polygon fill="white" stroke="#666666" points="1178.5,-266.62 1128.5,-266.62 1128.5,-247.62 1178.5,-247.62 1178.5,-266.62"/>
<text text-anchor="middle" x="1153.5" y="-254.62" font-family="Helvetica,sans-Serif" font-size="10.00">_Genld</text>
</a>
</g>
</g>
<!-- Node28&#45;&gt;Node29 -->
<g id="edge33_Node000028_Node000029" class="edge">
<title>Node28&#45;&gt;Node29</title>
<g id="a_edge33_Node000028_Node000029"><a xlink:title=" ">
<path fill="none" stroke="#63b8ff" d="M1082.22,-242.91C1093.16,-245.12 1106.34,-247.79 1118.33,-250.21"/>
<polygon fill="#63b8ff" stroke="#63b8ff" points="1117.97,-253.71 1128.46,-252.26 1119.35,-246.85 1117.97,-253.71"/>
</a>
</g>
</g>
<!-- Node30 -->
<g id="Node000030" class="node">
<title>Node30</title>
<g id="a_Node000030"><a xlink:href="string_8c.html#ad7f1ae1bbb49dece44bda378982a704d" target="_top" xlink:title=" ">
<polygon fill="white" stroke="#666666" points="1284,-304.62 1225,-304.62 1225,-285.62 1284,-285.62 1284,-304.62"/>
<text text-anchor="middle" x="1254.5" y="-292.62" font-family="Helvetica,sans-Serif" font-size="10.00">memcpy</text>
</a>
</g>
</g>
<!-- Node28&#45;&gt;Node30 -->
<g id="edge37_Node000028_Node000030" class="edge">
<title>Node28&#45;&gt;Node30</title>
<g id="a_edge37_Node000028_Node000030"><a xlink:title=" ">
<path fill="none" stroke="#63b8ff" d="M1070.43,-247.95C1081.89,-256.83 1100.06,-269.49 1118,-276.12 1149.32,-287.69 1187.09,-292.28 1214.79,-294.07"/>
<polygon fill="#63b8ff" stroke="#63b8ff" points="1214.7,-297.57 1224.88,-294.63 1215.08,-290.58 1214.7,-297.57"/>
</a>
</g>
</g>
<!-- Node31 -->
<g id="Node000031" class="node">
<title>Node31</title>
<g id="a_Node000031"><a xlink:href="__Ldtob_8c.html#ab7ade9ce60aaa8baa0244b503351d742" target="_top" xlink:title=" ">
<polygon fill="white" stroke="#666666" points="1189,-229.62 1118,-229.62 1118,-210.62 1189,-210.62 1189,-229.62"/>
<text text-anchor="middle" x="1153.5" y="-217.62" font-family="Helvetica,sans-Serif" font-size="10.00">_Ldunscale</text>
</a>
</g>
</g>
<!-- Node28&#45;&gt;Node31 -->
<g id="edge35_Node000028_Node000031" class="edge">
<title>Node28&#45;&gt;Node31</title>
<g id="a_edge35_Node000028_Node000031"><a xlink:title=" ">
<path fill="none" stroke="#63b8ff" d="M1082.22,-233.58C1090.04,-232.08 1099.02,-230.36 1107.88,-228.66"/>
<polygon fill="#63b8ff" stroke="#63b8ff" points="1108.61,-232.09 1117.77,-226.77 1107.29,-225.21 1108.61,-232.09"/>
</a>
</g>
</g>
<!-- Node32 -->
<g id="Node000032" class="node">
<title>Node32</title>
<g id="a_Node000032"><a xlink:href="ldiv_8c.html#a0302920caf64a5fbe1ce0862799d7784" target="_top" xlink:title=" ">
<polygon fill="white" stroke="#666666" points="1171,-192.62 1136,-192.62 1136,-173.62 1171,-173.62 1171,-192.62"/>
<text text-anchor="middle" x="1153.5" y="-180.62" font-family="Helvetica,sans-Serif" font-size="10.00">ldiv</text>
</a>
</g>
</g>
<!-- Node28&#45;&gt;Node32 -->
<g id="edge36_Node000028_Node000032" class="edge">
<title>Node28&#45;&gt;Node32</title>
<g id="a_edge36_Node000028_Node000032"><a xlink:title=" ">
<path fill="none" stroke="#63b8ff" d="M1074.06,-228.47C1086,-221.12 1102.94,-210.81 1118,-202.12 1120.9,-200.44 1123.96,-198.71 1127,-197.01"/>
<polygon fill="#63b8ff" stroke="#63b8ff" points="1128.87,-199.97 1135.93,-192.07 1125.48,-193.85 1128.87,-199.97"/>
</a>
</g>
</g>
<!-- Node33 -->
<g id="Node000033" class="node">
<title>Node33</title>
<g id="a_Node000033"><a xlink:href="alBnkfNew_8c.html#a96a0200a6b40350e524f536d232ecb53" target="_top" xlink:title=" ">
<polygon fill="white" stroke="#666666" points="1179.5,-155.62 1127.5,-155.62 1127.5,-136.62 1179.5,-136.62 1179.5,-155.62"/>
<text text-anchor="middle" x="1153.5" y="-143.62" font-family="Helvetica,sans-Serif" font-size="10.00">unused</text>
</a>
</g>
</g>
<!-- Node28&#45;&gt;Node33 -->
<g id="edge38_Node000028_Node000033" class="edge">
<title>Node28&#45;&gt;Node33</title>
<g id="a_edge38_Node000028_Node000033"><a xlink:title=" ">
<path fill="none" stroke="#63b8ff" d="M1064.49,-228.62C1074.27,-213.67 1094.9,-184.39 1118,-165.12 1119.71,-163.7 1121.54,-162.33 1123.43,-161.02"/>
<polygon fill="#63b8ff" stroke="#63b8ff" points="1125.3,-163.98 1131.96,-155.74 1121.61,-158.03 1125.3,-163.98"/>
</a>
</g>
</g>
<!-- Node29&#45;&gt;Node30 -->
<g id="edge34_Node000029_Node000030" class="edge">
<title>Node29&#45;&gt;Node30</title>
<g id="a_edge34_Node000029_Node000030"><a xlink:title=" ">
<path fill="none" stroke="#63b8ff" d="M1178.72,-266.42C1190.88,-271.08 1205.82,-276.82 1219.15,-281.93"/>
<polygon fill="#63b8ff" stroke="#63b8ff" points="1217.91,-285.21 1228.5,-285.52 1220.42,-278.67 1217.91,-285.21"/>
</a>
</g>
</g>
<!-- Node34&#45;&gt;Node30 -->
<g id="edge41_Node000034_Node000030" class="edge">
<title>Node34&#45;&gt;Node30</title>
<g id="a_edge41_Node000034_Node000030"><a xlink:title=" ">
<path fill="none" stroke="#63b8ff" d="M1080.71,-329.26C1106.71,-324.68 1151.05,-316.72 1189,-309.12 1197.48,-307.42 1206.56,-305.51 1215.16,-303.65"/>
<polygon fill="#63b8ff" stroke="#63b8ff" points="1215.94,-307.06 1224.96,-301.52 1214.45,-300.22 1215.94,-307.06"/>
</a>
</g>
</g>
<!-- Node35 -->
<g id="Node000035" class="node">
<title>Node35</title>
<g id="a_Node000035"><a xlink:href="ldiv_8c.html#a5b23c3639f11980dca762c5f1d74f339" target="_top" xlink:title=" ">
<polygon fill="white" stroke="#666666" points="1172.5,-380.62 1134.5,-380.62 1134.5,-361.62 1172.5,-361.62 1172.5,-380.62"/>
<text text-anchor="middle" x="1153.5" y="-368.62" font-family="Helvetica,sans-Serif" font-size="10.00">lldiv</text>
</a>
</g>
</g>
<!-- Node34&#45;&gt;Node35 -->
<g id="edge40_Node000034_Node000035" class="edge">
<title>Node34&#45;&gt;Node35</title>
<g id="a_edge40_Node000034_Node000035"><a xlink:title=" ">
<path fill="none" stroke="#63b8ff" d="M1080.78,-342.12C1093.97,-347.46 1110.8,-354.26 1124.84,-359.94"/>
<polygon fill="#63b8ff" stroke="#63b8ff" points="1123.89,-363.33 1134.47,-363.83 1126.52,-356.84 1123.89,-363.33"/>
</a>
</g>
</g>
<!-- Node38&#45;&gt;Node38 -->
<g id="edge48_Node000038_Node000038" class="edge">
<title>Node38&#45;&gt;Node38</title>
<g id="a_edge48_Node000038_Node000038"><a xlink:title=" ">
<path fill="none" stroke="#63b8ff" d="M516.83,-133.7C502.89,-142.35 512.44,-151.62 545.5,-151.62 568.23,-151.62 579.85,-147.24 580.36,-141.69"/>
<polygon fill="#63b8ff" stroke="#63b8ff" points="583.06,-139.46 574.17,-133.7 577.53,-143.75 583.06,-139.46"/>
</a>
</g>
</g>
<!-- Node39 -->
<g id="Node000039" class="node">
<title>Node39</title>
<g id="a_Node000039"><a xlink:href="FrameInterpolation_8cpp.html#a5fbd67ef553452903cf553b9c224fa76" target="_top" xlink:title=" ">
<polygon fill="white" stroke="#666666" points="806,-139.12 678,-139.12 678,-109.12 806,-109.12 806,-139.12"/>
<text text-anchor="start" x="686" y="-127.12" font-family="Helvetica,sans-Serif" font-size="10.00">FrameInterpolation</text>
<text text-anchor="middle" x="742" y="-116.12" font-family="Helvetica,sans-Serif" font-size="10.00">_Record_SetTextMatrix</text>
</a>
</g>
</g>
<!-- Node38&#45;&gt;Node39 -->
<g id="edge46_Node000038_Node000039" class="edge">
<title>Node38&#45;&gt;Node39</title>
<g id="a_edge46_Node000038_Node000039"><a xlink:title=" ">
<path fill="none" stroke="#63b8ff" d="M587.75,-124.12C610.99,-124.12 640.69,-124.12 667.75,-124.12"/>
<polygon fill="#63b8ff" stroke="#63b8ff" points="667.98,-127.62 677.98,-124.12 667.98,-120.62 667.98,-127.62"/>
</a>
</g>
</g>
<!-- Node39&#45;&gt;Node15 -->
<g id="edge47_Node000039_Node000015" class="edge">
<title>Node39&#45;&gt;Node15</title>
<g id="a_edge47_Node000039_Node000015"><a xlink:title=" ">
<path fill="none" stroke="#63b8ff" d="M786.21,-139.13C816.21,-149.55 855.76,-163.28 884.34,-173.21"/>
<polygon fill="#63b8ff" stroke="#63b8ff" points="883.37,-176.58 893.96,-176.55 885.66,-169.97 883.37,-176.58"/>
</a>
</g>
</g>
</g>
</svg>
