<?xml version="1.0" encoding="UTF-8" standalone="no"?>
<!DOCTYPE svg PUBLIC "-//W3C//DTD SVG 1.1//EN"
 "http://www.w3.org/Graphics/SVG/1.1/DTD/svg11.dtd">
<!-- Generated by graphviz version 2.43.0 (0)
 -->
<!-- Title: func_800A32B4 Pages: 1 -->
<svg width="1457pt" height="555pt"
 viewBox="0.00 0.00 1457.00 554.70" xmlns="http://www.w3.org/2000/svg" xmlns:xlink="http://www.w3.org/1999/xlink">
<g id="graph0" class="graph" transform="scale(1 1) rotate(0) translate(4 550.7)">
<title>func_800A32B4</title>
<!-- Node1 -->
<g id="Node000001" class="node">
<title>Node1</title>
<g id="a_Node000001"><a xlink:title=" ">
<polygon fill="#999999" stroke="#666666" points="92,-453.5 0,-453.5 0,-434.5 92,-434.5 92,-453.5"/>
<text text-anchor="middle" x="46" y="-441.5" font-family="Helvetica,sans-Serif" font-size="10.00">func_800A32B4</text>
</a>
</g>
</g>
<!-- Node2 -->
<g id="Node000002" class="node">
<title>Node2</title>
<g id="a_Node000002"><a xlink:href="menu__items_8c.html#a87ff828f0134d42058cf8be2e012a8a3" target="_top" xlink:title=" ">
<polygon fill="white" stroke="#666666" points="267,-490.5 128,-490.5 128,-471.5 267,-471.5 267,-490.5"/>
<text text-anchor="middle" x="197.5" y="-478.5" font-family="Helvetica,sans-Serif" font-size="10.00">convert_number_to_ascii</text>
</a>
</g>
</g>
<!-- Node1&#45;&gt;Node2 -->
<g id="edge1_Node000001_Node000002" class="edge">
<title>Node1&#45;&gt;Node2</title>
<g id="a_edge1_Node000001_Node000002"><a xlink:title=" ">
<path fill="none" stroke="#63b8ff" d="M85.5,-453.53C104.52,-458.24 127.67,-463.97 147.9,-468.97"/>
<polygon fill="#63b8ff" stroke="#63b8ff" points="147.32,-472.43 157.87,-471.44 149,-465.64 147.32,-472.43"/>
</a>
</g>
</g>
<!-- Node3 -->
<g id="Node000003" class="node">
<title>Node3</title>
<g id="a_Node000003"><a xlink:href="menu__items_8c.html#a51a08d17a71783b05d2688b3e4f1e88c" target="_top" xlink:title=" ">
<polygon fill="white" stroke="#666666" points="243.5,-416.5 151.5,-416.5 151.5,-397.5 243.5,-397.5 243.5,-416.5"/>
<text text-anchor="middle" x="197.5" y="-404.5" font-family="Helvetica,sans-Serif" font-size="10.00">func_800939C8</text>
</a>
</g>
</g>
<!-- Node1&#45;&gt;Node3 -->
<g id="edge2_Node000001_Node000003" class="edge">
<title>Node1&#45;&gt;Node3</title>
<g id="a_edge2_Node000001_Node000003"><a xlink:title=" ">
<path fill="none" stroke="#63b8ff" d="M85.5,-434.47C104.52,-429.76 127.67,-424.03 147.9,-419.03"/>
<polygon fill="#63b8ff" stroke="#63b8ff" points="149,-422.36 157.87,-416.56 147.32,-415.57 149,-422.36"/>
</a>
</g>
</g>
<!-- Node40 -->
<g id="Node000040" class="node">
<title>Node40</title>
<g id="a_Node000040"><a xlink:href="menu__items_8c.html#ad7caaa9bd54f2228a931877bd6eb3b87" target="_top" xlink:title=" ">
<polygon fill="white" stroke="#666666" points="251.5,-453.5 143.5,-453.5 143.5,-434.5 251.5,-434.5 251.5,-453.5"/>
<text text-anchor="middle" x="197.5" y="-441.5" font-family="Helvetica,sans-Serif" font-size="10.00">print_text_mode_1</text>
</a>
</g>
</g>
<!-- Node1&#45;&gt;Node40 -->
<g id="edge50_Node000001_Node000040" class="edge">
<title>Node1&#45;&gt;Node40</title>
<g id="a_edge50_Node000001_Node000040"><a xlink:title=" ">
<path fill="none" stroke="#63b8ff" d="M92.26,-444C105.07,-444 119.25,-444 132.92,-444"/>
<polygon fill="#63b8ff" stroke="#63b8ff" points="133.25,-447.5 143.25,-444 133.24,-440.5 133.25,-447.5"/>
</a>
</g>
</g>
<!-- Node4 -->
<g id="Node000004" class="node">
<title>Node4</title>
<g id="a_Node000004"><a xlink:href="menu__items_8c.html#afa1d2583978658f8524340b7b94544b1" target="_top" xlink:title=" ">
<polygon fill="white" stroke="#666666" points="373,-416.5 303,-416.5 303,-397.5 373,-397.5 373,-416.5"/>
<text text-anchor="middle" x="338" y="-404.5" font-family="Helvetica,sans-Serif" font-size="10.00">print_text2</text>
</a>
</g>
</g>
<!-- Node3&#45;&gt;Node4 -->
<g id="edge3_Node000003_Node000004" class="edge">
<title>Node3&#45;&gt;Node4</title>
<g id="a_edge3_Node000003_Node000004"><a xlink:title=" ">
<path fill="none" stroke="#63b8ff" d="M243.85,-407C259.49,-407 276.98,-407 292.55,-407"/>
<polygon fill="#63b8ff" stroke="#63b8ff" points="292.98,-410.5 302.97,-407 292.97,-403.5 292.98,-410.5"/>
</a>
</g>
</g>
<!-- Node5 -->
<g id="Node000005" class="node">
<title>Node5</title>
<g id="a_Node000005"><a xlink:href="menu__items_8c.html#ace62f40ce813c34904327e39643a0dbf" target="_top" xlink:title=" ">
<polygon fill="white" stroke="#666666" points="526,-435.5 409,-435.5 409,-416.5 526,-416.5 526,-435.5"/>
<text text-anchor="middle" x="467.5" y="-423.5" font-family="Helvetica,sans-Serif" font-size="10.00">char_to_glyph_index</text>
</a>
</g>
</g>
<!-- Node4&#45;&gt;Node5 -->
<g id="edge4_Node000004_Node000005" class="edge">
<title>Node4&#45;&gt;Node5</title>
<g id="a_edge4_Node000004_Node000005"><a xlink:title=" ">
<path fill="none" stroke="#63b8ff" d="M373.17,-412.09C381.1,-413.27 389.82,-414.57 398.64,-415.89"/>
<polygon fill="#63b8ff" stroke="#63b8ff" points="398.2,-419.36 408.61,-417.37 399.23,-412.44 398.2,-419.36"/>
</a>
</g>
</g>
<!-- Node9 -->
<g id="Node000009" class="node">
<title>Node9</title>
<g id="a_Node000009"><a xlink:href="GBIMiddleware_8cpp.html#a4ecc44e3c6f1ca5a6b4a20c41d3bd2d2" target="_top" xlink:title=" ">
<polygon fill="white" stroke="#666666" points="951.5,-377.5 862.5,-377.5 862.5,-358.5 951.5,-358.5 951.5,-377.5"/>
<text text-anchor="middle" x="907" y="-365.5" font-family="Helvetica,sans-Serif" font-size="10.00">gSPDisplayList</text>
</a>
</g>
</g>
<!-- Node4&#45;&gt;Node9 -->
<g id="edge9_Node000004_Node000009" class="edge">
<title>Node4&#45;&gt;Node9</title>
<g id="a_edge9_Node000004_Node000009"><a xlink:title=" ">
<path fill="none" stroke="#63b8ff" d="M352.4,-397.37C365.93,-388.29 387.8,-375.3 409,-370 566.13,-330.69 760.04,-347.95 852.32,-359.96"/>
<polygon fill="#63b8ff" stroke="#63b8ff" points="851.88,-363.43 862.26,-361.29 852.81,-356.49 851.88,-363.43"/>
</a>
</g>
</g>
<!-- Node12 -->
<g id="Node000012" class="node">
<title>Node12</title>
<g id="a_Node000012"><a xlink:href="menu__items_8c.html#a68e560d23390d5add7cb57ccd82e21ae" target="_top" xlink:title=" ">
<polygon fill="white" stroke="#666666" points="515,-472.5 420,-472.5 420,-453.5 515,-453.5 515,-472.5"/>
<text text-anchor="middle" x="467.5" y="-460.5" font-family="Helvetica,sans-Serif" font-size="10.00">load_menu_img</text>
</a>
</g>
</g>
<!-- Node4&#45;&gt;Node12 -->
<g id="edge12_Node000004_Node000012" class="edge">
<title>Node4&#45;&gt;Node12</title>
<g id="a_edge12_Node000004_Node000012"><a xlink:title=" ">
<path fill="none" stroke="#63b8ff" d="M357.16,-416.62C377.68,-427.49 408.33,-443.71 409,-444 414.08,-446.16 419.49,-448.24 424.89,-450.17"/>
<polygon fill="#63b8ff" stroke="#63b8ff" points="423.92,-453.54 434.51,-453.48 426.2,-446.92 423.92,-453.54"/>
</a>
</g>
</g>
<!-- Node14 -->
<g id="Node000014" class="node">
<title>Node14</title>
<g id="a_Node000014"><a xlink:href="menu__items_8c.html#aafca6e35a19465ad361e68b13e467243" target="_top" xlink:title=" ">
<polygon fill="white" stroke="#666666" points="503,-398.5 432,-398.5 432,-379.5 503,-379.5 503,-398.5"/>
<text text-anchor="middle" x="467.5" y="-386.5" font-family="Helvetica,sans-Serif" font-size="10.00">print_letter</text>
</a>
</g>
</g>
<!-- Node4&#45;&gt;Node14 -->
<g id="edge14_Node000004_Node000014" class="edge">
<title>Node4&#45;&gt;Node14</title>
<g id="a_edge14_Node000004_Node000014"><a xlink:title=" ">
<path fill="none" stroke="#63b8ff" d="M373.17,-402.18C388.05,-400.07 405.7,-397.58 421.63,-395.34"/>
<polygon fill="#63b8ff" stroke="#63b8ff" points="422.38,-398.76 431.79,-393.9 421.4,-391.83 422.38,-398.76"/>
</a>
</g>
</g>
<!-- Node6 -->
<g id="Node000006" class="node">
<title>Node6</title>
<g id="a_Node000006"><a xlink:href="menu__items_8c.html#ae8ba1b567dba01ff15c64d416653a70b" target="_top" xlink:title=" ">
<polygon fill="white" stroke="#666666" points="654.5,-454.5 562.5,-454.5 562.5,-435.5 654.5,-435.5 654.5,-454.5"/>
<text text-anchor="middle" x="608.5" y="-442.5" font-family="Helvetica,sans-Serif" font-size="10.00">func_80092DF8</text>
</a>
</g>
</g>
<!-- Node5&#45;&gt;Node6 -->
<g id="edge5_Node000005_Node000006" class="edge">
<title>Node5&#45;&gt;Node6</title>
<g id="a_edge5_Node000005_Node000006"><a xlink:title=" ">
<path fill="none" stroke="#63b8ff" d="M526.24,-433.89C534.93,-435.08 543.86,-436.3 552.49,-437.48"/>
<polygon fill="#63b8ff" stroke="#63b8ff" points="552.06,-440.95 562.44,-438.84 553,-434.02 552.06,-440.95"/>
</a>
</g>
</g>
<!-- Node7 -->
<g id="Node000007" class="node">
<title>Node7</title>
<g id="a_Node000007"><a xlink:href="menu__items_8c.html#acd5b29a8e8634aa4f3db4b9a7c5ba033" target="_top" xlink:title=" ">
<polygon fill="white" stroke="#666666" points="792,-473.5 700,-473.5 700,-454.5 792,-454.5 792,-473.5"/>
<text text-anchor="middle" x="746" y="-461.5" font-family="Helvetica,sans-Serif" font-size="10.00">func_80092E1C</text>
</a>
</g>
</g>
<!-- Node5&#45;&gt;Node7 -->
<g id="edge7_Node000005_Node000007" class="edge">
<title>Node5&#45;&gt;Node7</title>
<g id="a_edge7_Node000005_Node000007"><a xlink:title=" ">
<path fill="none" stroke="#63b8ff" d="M502.62,-435.55C510.4,-438.04 518.56,-440.9 526,-444 542.7,-450.95 544.45,-458.6 562,-463 603.97,-473.52 653.08,-473.13 689.85,-470.46"/>
<polygon fill="#63b8ff" stroke="#63b8ff" points="690.19,-473.94 699.88,-469.65 689.63,-466.97 690.19,-473.94"/>
</a>
</g>
</g>
<!-- Node8 -->
<g id="Node000008" class="node">
<title>Node8</title>
<g id="a_Node000008"><a xlink:href="menu__items_8c.html#ab26c8dca1828cd1d5a6c341cb851f0b9" target="_top" xlink:title=" ">
<polygon fill="white" stroke="#666666" points="654,-417.5 563,-417.5 563,-398.5 654,-398.5 654,-417.5"/>
<text text-anchor="middle" x="608.5" y="-405.5" font-family="Helvetica,sans-Serif" font-size="10.00">func_80092EE4</text>
</a>
</g>
</g>
<!-- Node5&#45;&gt;Node8 -->
<g id="edge8_Node000005_Node000008" class="edge">
<title>Node5&#45;&gt;Node8</title>
<g id="a_edge8_Node000005_Node000008"><a xlink:title=" ">
<path fill="none" stroke="#63b8ff" d="M526.24,-418.52C535.03,-417.38 544.08,-416.21 552.81,-415.08"/>
<polygon fill="#63b8ff" stroke="#63b8ff" points="553.4,-418.54 562.87,-413.78 552.5,-411.59 553.4,-418.54"/>
</a>
</g>
</g>
<!-- Node6&#45;&gt;Node7 -->
<g id="edge6_Node000006_Node000007" class="edge">
<title>Node6&#45;&gt;Node7</title>
<g id="a_edge6_Node000006_Node000007"><a xlink:title=" ">
<path fill="none" stroke="#63b8ff" d="M654.62,-451.33C665.81,-452.9 677.94,-454.6 689.56,-456.23"/>
<polygon fill="#63b8ff" stroke="#63b8ff" points="689.23,-459.71 699.62,-457.64 690.2,-452.78 689.23,-459.71"/>
</a>
</g>
</g>
<!-- Node10 -->
<g id="Node000010" class="node">
<title>Node10</title>
<g id="a_Node000010"><a xlink:href="Engine_8cpp.html#a223c8bc63f228dc11177515e38eff2db" target="_top" xlink:title=" ">
<polygon fill="white" stroke="#666666" points="1162,-358.5 1013,-358.5 1013,-339.5 1162,-339.5 1162,-358.5"/>
<text text-anchor="middle" x="1087.5" y="-346.5" font-family="Helvetica,sans-Serif" font-size="10.00">GameEngine_OTRSigCheck</text>
</a>
</g>
</g>
<!-- Node9&#45;&gt;Node10 -->
<g id="edge10_Node000009_Node000010" class="edge">
<title>Node9&#45;&gt;Node10</title>
<g id="a_edge10_Node000009_Node000010"><a xlink:title=" ">
<path fill="none" stroke="#63b8ff" d="M951.67,-363.35C967.02,-361.72 984.84,-359.82 1002.4,-357.95"/>
<polygon fill="#63b8ff" stroke="#63b8ff" points="1003.11,-361.4 1012.68,-356.86 1002.36,-354.44 1003.11,-361.4"/>
</a>
</g>
</g>
<!-- Node11 -->
<g id="Node000011" class="node">
<title>Node11</title>
<g id="a_Node000011"><a xlink:href="string_8c.html#a008e171a518fe0e0352f31b245e03875" target="_top" xlink:title=" ">
<polygon fill="white" stroke="#666666" points="1244.5,-358.5 1200.5,-358.5 1200.5,-339.5 1244.5,-339.5 1244.5,-358.5"/>
<text text-anchor="middle" x="1222.5" y="-346.5" font-family="Helvetica,sans-Serif" font-size="10.00">strlen</text>
</a>
</g>
</g>
<!-- Node10&#45;&gt;Node11 -->
<g id="edge11_Node000010_Node000011" class="edge">
<title>Node10&#45;&gt;Node11</title>
<g id="a_edge11_Node000010_Node000011"><a xlink:title=" ">
<path fill="none" stroke="#63b8ff" d="M1162,-349C1171.89,-349 1181.56,-349 1190.14,-349"/>
<polygon fill="#63b8ff" stroke="#63b8ff" points="1190.36,-352.5 1200.36,-349 1190.36,-345.5 1190.36,-352.5"/>
</a>
</g>
</g>
<!-- Node13 -->
<g id="Node000013" class="node">
<title>Node13</title>
<g id="a_Node000013"><a xlink:href="menu__items_8c.html#a248768ee2e4ca9ae9cf0a30bfb256859" target="_top" xlink:title=" ">
<polygon fill="white" stroke="#666666" points="647.5,-530.5 569.5,-530.5 569.5,-511.5 647.5,-511.5 647.5,-530.5"/>
<text text-anchor="middle" x="608.5" y="-518.5" font-family="Helvetica,sans-Serif" font-size="10.00">load_texture</text>
</a>
</g>
</g>
<!-- Node12&#45;&gt;Node13 -->
<g id="edge13_Node000012_Node000013" class="edge">
<title>Node12&#45;&gt;Node13</title>
<g id="a_edge13_Node000012_Node000013"><a xlink:title=" ">
<path fill="none" stroke="#63b8ff" d="M491.45,-472.58C514.29,-482.11 549.54,-496.81 575.19,-507.52"/>
<polygon fill="#63b8ff" stroke="#63b8ff" points="573.94,-510.79 584.51,-511.41 576.63,-504.33 573.94,-510.79"/>
</a>
</g>
</g>
<!-- Node14&#45;&gt;Node9 -->
<g id="edge49_Node000014_Node000009" class="edge">
<title>Node14&#45;&gt;Node9</title>
<g id="a_edge49_Node000014_Node000009"><a xlink:title=" ">
<path fill="none" stroke="#63b8ff" d="M503.2,-387.33C579.29,-383.68 761.28,-374.95 852.28,-370.58"/>
<polygon fill="#63b8ff" stroke="#63b8ff" points="852.56,-374.07 862.38,-370.09 852.23,-367.08 852.56,-374.07"/>
</a>
</g>
</g>
<!-- Node15 -->
<g id="Node000015" class="node">
<title>Node15</title>
<g id="a_Node000015"><a xlink:href="menu__items_8c.html#a37eb021a953285ba504198ac6ca73a9a" target="_top" xlink:title=" ">
<polygon fill="white" stroke="#666666" points="655,-223.5 562,-223.5 562,-204.5 655,-204.5 655,-223.5"/>
<text text-anchor="middle" x="608.5" y="-211.5" font-family="Helvetica,sans-Serif" font-size="10.00">func_80095BD0</text>
</a>
</g>
</g>
<!-- Node14&#45;&gt;Node15 -->
<g id="edge15_Node000014_Node000015" class="edge">
<title>Node14&#45;&gt;Node15</title>
<g id="a_edge15_Node000014_Node000015"><a xlink:title=" ">
<path fill="none" stroke="#63b8ff" d="M476.17,-379.34C498.62,-351.08 564.41,-268.26 593.45,-231.69"/>
<polygon fill="#63b8ff" stroke="#63b8ff" points="596.2,-233.85 599.68,-223.84 590.72,-229.5 596.2,-233.85"/>
</a>
</g>
</g>
<!-- Node16 -->
<g id="Node000016" class="node">
<title>Node16</title>
<g id="a_Node000016"><a xlink:href="Matrix_8cpp.html#a6f64c44efb9bdfff802175a9739ce1f1" target="_top" xlink:title=" ">
<polygon fill="white" stroke="#666666" points="789.5,-161.5 702.5,-161.5 702.5,-142.5 789.5,-142.5 789.5,-161.5"/>
<text text-anchor="middle" x="746" y="-149.5" font-family="Helvetica,sans-Serif" font-size="10.00">AddTextMatrix</text>
</a>
</g>
</g>
<!-- Node15&#45;&gt;Node16 -->
<g id="edge16_Node000015_Node000016" class="edge">
<title>Node15&#45;&gt;Node16</title>
<g id="a_edge16_Node000015_Node000016"><a xlink:title=" ">
<path fill="none" stroke="#63b8ff" d="M630.37,-204.45C652.89,-194.15 688.94,-177.65 714.6,-165.91"/>
<polygon fill="#63b8ff" stroke="#63b8ff" points="716.24,-169.01 723.88,-161.66 713.33,-162.64 716.24,-169.01"/>
</a>
</g>
</g>
<!-- Node21 -->
<g id="Node000021" class="node">
<title>Node21</title>
<g id="a_Node000021"><a xlink:href="FrameInterpolation_8cpp.html#a3a036bc9d533e28a4e9697cd20dccf3e" target="_top" xlink:title=" ">
<polygon fill="white" stroke="#666666" points="801,-121 691,-121 691,-91 801,-91 801,-121"/>
<text text-anchor="start" x="699" y="-109" font-family="Helvetica,sans-Serif" font-size="10.00">FrameInterpolation</text>
<text text-anchor="middle" x="746" y="-98" font-family="Helvetica,sans-Serif" font-size="10.00">_RecordCloseChild</text>
</a>
</g>
</g>
<!-- Node15&#45;&gt;Node21 -->
<g id="edge21_Node000015_Node000021" class="edge">
<title>Node15&#45;&gt;Node21</title>
<g id="a_edge21_Node000015_Node000021"><a xlink:title=" ">
<path fill="none" stroke="#63b8ff" d="M617.47,-204.26C631.18,-187.95 660.7,-154.77 691,-133 694.4,-130.56 698.05,-128.22 701.8,-126.01"/>
<polygon fill="#63b8ff" stroke="#63b8ff" points="703.58,-129.03 710.63,-121.12 700.18,-122.91 703.58,-129.03"/>
</a>
</g>
</g>
<!-- Node22 -->
<g id="Node000022" class="node">
<title>Node22</title>
<g id="a_Node000022"><a xlink:href="FrameInterpolation_8cpp.html#a0eda726b74eac815af4e874014e2727c" target="_top" xlink:title=" ">
<polygon fill="white" stroke="#666666" points="801,-229 691,-229 691,-199 801,-199 801,-229"/>
<text text-anchor="start" x="699" y="-217" font-family="Helvetica,sans-Serif" font-size="10.00">FrameInterpolation</text>
<text text-anchor="middle" x="746" y="-206" font-family="Helvetica,sans-Serif" font-size="10.00">_RecordOpenChild</text>
</a>
</g>
</g>
<!-- Node15&#45;&gt;Node22 -->
<g id="edge23_Node000015_Node000022" class="edge">
<title>Node15&#45;&gt;Node22</title>
<g id="a_edge23_Node000015_Node000022"><a xlink:title=" ">
<path fill="none" stroke="#63b8ff" d="M655.37,-214C663.45,-214 672,-214 680.47,-214"/>
<polygon fill="#63b8ff" stroke="#63b8ff" points="680.74,-217.5 690.74,-214 680.74,-210.5 680.74,-217.5"/>
</a>
</g>
</g>
<!-- Node23 -->
<g id="Node000023" class="node">
<title>Node23</title>
<g id="a_Node000023"><a xlink:href="menu__items_8c.html#ae0fd5923ba70cf6939cd3fa8d09c1191" target="_top" xlink:title=" ">
<polygon fill="white" stroke="#666666" points="791.5,-303.5 700.5,-303.5 700.5,-284.5 791.5,-284.5 791.5,-303.5"/>
<text text-anchor="middle" x="746" y="-291.5" font-family="Helvetica,sans-Serif" font-size="10.00">func_800959F8</text>
</a>
</g>
</g>
<!-- Node15&#45;&gt;Node23 -->
<g id="edge25_Node000015_Node000023" class="edge">
<title>Node15&#45;&gt;Node23</title>
<g id="a_edge25_Node000015_Node000023"><a xlink:title=" ">
<path fill="none" stroke="#63b8ff" d="M620.36,-223.86C635.33,-237.01 663.56,-260.35 691,-275 694.8,-277.03 698.86,-278.91 702.98,-280.65"/>
<polygon fill="#63b8ff" stroke="#63b8ff" points="702.03,-284.03 712.62,-284.41 704.58,-277.51 702.03,-284.03"/>
</a>
</g>
</g>
<!-- Node25 -->
<g id="Node000025" class="node">
<title>Node25</title>
<g id="a_Node000025"><a xlink:href="stubs_8c.html#a8b417b868747c80d58f83d8a1e78ecf3" target="_top" xlink:title=" ">
<polygon fill="white" stroke="#666666" points="780,-266.5 712,-266.5 712,-247.5 780,-247.5 780,-266.5"/>
<text text-anchor="middle" x="746" y="-254.5" font-family="Helvetica,sans-Serif" font-size="10.00">rmonPrintf</text>
</a>
</g>
</g>
<!-- Node15&#45;&gt;Node25 -->
<g id="edge29_Node000015_Node000025" class="edge">
<title>Node15&#45;&gt;Node25</title>
<g id="a_edge29_Node000015_Node000025"><a xlink:title=" ">
<path fill="none" stroke="#63b8ff" d="M639.57,-223.54C658.96,-229.69 684.38,-237.76 705.4,-244.43"/>
<polygon fill="#63b8ff" stroke="#63b8ff" points="704.42,-247.79 715.01,-247.48 706.54,-241.12 704.42,-247.79"/>
</a>
</g>
</g>
<!-- Node38 -->
<g id="Node000038" class="node">
<title>Node38</title>
<g id="a_Node000038"><a xlink:href="Matrix_8cpp.html#a9818099a1ee20606a7d622e744846366" target="_top" xlink:title=" ">
<polygon fill="white" stroke="#666666" points="788,-47.5 704,-47.5 704,-28.5 788,-28.5 788,-47.5"/>
<text text-anchor="middle" x="746" y="-35.5" font-family="Helvetica,sans-Serif" font-size="10.00">SetTextMatrix</text>
</a>
</g>
</g>
<!-- Node15&#45;&gt;Node38 -->
<g id="edge45_Node000015_Node000038" class="edge">
<title>Node15&#45;&gt;Node38</title>
<g id="a_edge45_Node000015_Node000038"><a xlink:title=" ">
<path fill="none" stroke="#63b8ff" d="M614.06,-204.32C625.12,-181.44 655.12,-122.9 691,-82 700.22,-71.49 712.13,-61.5 722.41,-53.7"/>
<polygon fill="#63b8ff" stroke="#63b8ff" points="724.59,-56.44 730.58,-47.7 720.45,-50.8 724.59,-56.44"/>
</a>
</g>
</g>
<!-- Node17 -->
<g id="Node000017" class="node">
<title>Node17</title>
<g id="a_Node000017"><a xlink:href="FrameInterpolation_8cpp.html#a8cf1f2d6fabc6925aa71a9515341b4aa" target="_top" xlink:title=" ">
<polygon fill="white" stroke="#666666" points="977,-191 837,-191 837,-161 977,-161 977,-191"/>
<text text-anchor="start" x="845" y="-179" font-family="Helvetica,sans-Serif" font-size="10.00">FrameInterpolation</text>
<text text-anchor="middle" x="907" y="-168" font-family="Helvetica,sans-Serif" font-size="10.00">_RecordMatrixMtxFToMtx</text>
</a>
</g>
</g>
<!-- Node16&#45;&gt;Node17 -->
<g id="edge17_Node000016_Node000017" class="edge">
<title>Node16&#45;&gt;Node17</title>
<g id="a_edge17_Node000016_Node000017"><a xlink:title=" ">
<path fill="none" stroke="#63b8ff" d="M789.61,-158.43C801.08,-160.16 813.86,-162.09 826.64,-164.02"/>
<polygon fill="#63b8ff" stroke="#63b8ff" points="826.45,-167.53 836.86,-165.56 827.5,-160.61 826.45,-167.53"/>
</a>
</g>
</g>
<!-- Node19 -->
<g id="Node000019" class="node">
<title>Node19</title>
<g id="a_Node000019"><a xlink:href="Game_8cpp.html#ae2fa844b3cb1021ecbc357f8ed2ad8cc" target="_top" xlink:title=" ">
<polygon fill="white" stroke="#666666" points="938,-142.5 876,-142.5 876,-123.5 938,-123.5 938,-142.5"/>
<text text-anchor="middle" x="907" y="-130.5" font-family="Helvetica,sans-Serif" font-size="10.00">GetWorld</text>
</a>
</g>
</g>
<!-- Node16&#45;&gt;Node19 -->
<g id="edge19_Node000016_Node000019" class="edge">
<title>Node16&#45;&gt;Node19</title>
<g id="a_edge19_Node000016_Node000019"><a xlink:title=" ">
<path fill="none" stroke="#63b8ff" d="M789.61,-146.91C813.22,-144.09 842.41,-140.6 865.65,-137.82"/>
<polygon fill="#63b8ff" stroke="#63b8ff" points="866.36,-141.26 875.87,-136.6 865.53,-134.31 866.36,-141.26"/>
</a>
</g>
</g>
<!-- Node20 -->
<g id="Node000020" class="node">
<title>Node20</title>
<g id="a_Node000020"><a xlink:href="guMtxF2L_8c.html#a40ab2d64c609839ff1e0ef0de2d0dcc4" target="_top" xlink:title=" ">
<polygon fill="white" stroke="#666666" points="939.5,-105.5 874.5,-105.5 874.5,-86.5 939.5,-86.5 939.5,-105.5"/>
<text text-anchor="middle" x="907" y="-93.5" font-family="Helvetica,sans-Serif" font-size="10.00">guMtxF2L</text>
</a>
</g>
</g>
<!-- Node16&#45;&gt;Node20 -->
<g id="edge20_Node000016_Node000020" class="edge">
<title>Node16&#45;&gt;Node20</title>
<g id="a_edge20_Node000016_Node000020"><a xlink:title=" ">
<path fill="none" stroke="#63b8ff" d="M770.99,-142.41C780.38,-138.61 791.22,-134.16 801,-130 817.11,-123.14 820.47,-119.78 837,-114 845.84,-110.91 855.48,-108.07 864.67,-105.61"/>
<polygon fill="#63b8ff" stroke="#63b8ff" points="865.61,-108.98 874.42,-103.09 863.86,-102.2 865.61,-108.98"/>
</a>
</g>
</g>
<!-- Node18 -->
<g id="Node000018" class="node">
<title>Node18</title>
<g id="a_Node000018"><a xlink:href="FrameInterpolation_8cpp.html#a02c7ac5342a4d376edee38f312b480bf" target="_top" xlink:title=" ">
<polygon fill="white" stroke="#666666" points="1141.5,-126.5 1033.5,-126.5 1033.5,-107.5 1141.5,-107.5 1141.5,-126.5"/>
<text text-anchor="middle" x="1087.5" y="-114.5" font-family="Helvetica,sans-Serif" font-size="10.00">check_if_recording</text>
</a>
</g>
</g>
<!-- Node17&#45;&gt;Node18 -->
<g id="edge18_Node000017_Node000018" class="edge">
<title>Node17&#45;&gt;Node18</title>
<g id="a_edge18_Node000017_Node000018"><a xlink:title=" ">
<path fill="none" stroke="#63b8ff" d="M953.5,-160.96C982.67,-151.32 1020.11,-138.94 1047.83,-129.78"/>
<polygon fill="#63b8ff" stroke="#63b8ff" points="1049.17,-133.02 1057.57,-126.56 1046.98,-126.38 1049.17,-133.02"/>
</a>
</g>
</g>
<!-- Node21&#45;&gt;Node18 -->
<g id="edge22_Node000021_Node000018" class="edge">
<title>Node21&#45;&gt;Node18</title>
<g id="a_edge22_Node000021_Node000018"><a xlink:title=" ">
<path fill="none" stroke="#63b8ff" d="M784.9,-90.89C800.73,-85.34 819.49,-79.75 837,-77 898.47,-67.34 915.73,-66.16 977,-77 1005.34,-82.01 1035.99,-93.8 1057.63,-103.29"/>
<polygon fill="#63b8ff" stroke="#63b8ff" points="1056.35,-106.55 1066.9,-107.46 1059.22,-100.16 1056.35,-106.55"/>
</a>
</g>
</g>
<!-- Node22&#45;&gt;Node18 -->
<g id="edge24_Node000022_Node000018" class="edge">
<title>Node22&#45;&gt;Node18</title>
<g id="a_edge24_Node000022_Node000018"><a xlink:title=" ">
<path fill="none" stroke="#63b8ff" d="M801.33,-219.38C849.12,-222.1 919.79,-221.19 977,-200 1015.11,-185.88 1051,-153.79 1070.74,-133.9"/>
<polygon fill="#63b8ff" stroke="#63b8ff" points="1073.27,-136.32 1077.71,-126.7 1068.24,-131.45 1073.27,-136.32"/>
</a>
</g>
</g>
<!-- Node23&#45;&gt;Node9 -->
<g id="edge26_Node000023_Node000009" class="edge">
<title>Node23&#45;&gt;Node9</title>
<g id="a_edge26_Node000023_Node000009"><a xlink:title=" ">
<path fill="none" stroke="#63b8ff" d="M772.52,-303.53C781.79,-307.45 792.16,-312.4 801,-318 818.84,-329.3 818.37,-339.07 837,-349 841.87,-351.59 847.12,-353.86 852.48,-355.83"/>
<polygon fill="#63b8ff" stroke="#63b8ff" points="851.58,-359.22 862.17,-359.08 853.8,-352.59 851.58,-359.22"/>
</a>
</g>
</g>
<!-- Node24 -->
<g id="Node000024" class="node">
<title>Node24</title>
<g id="a_Node000024"><a xlink:href="GBIMiddleware_8cpp.html#aeef79449a27a710d73576e4a4f7f7f99" target="_top" xlink:title=" ">
<polygon fill="white" stroke="#666666" points="940,-340.5 874,-340.5 874,-321.5 940,-321.5 940,-340.5"/>
<text text-anchor="middle" x="907" y="-328.5" font-family="Helvetica,sans-Serif" font-size="10.00">gSPVertex</text>
</a>
</g>
</g>
<!-- Node23&#45;&gt;Node24 -->
<g id="edge27_Node000023_Node000024" class="edge">
<title>Node23&#45;&gt;Node24</title>
<g id="a_edge27_Node000023_Node000024"><a xlink:title=" ">
<path fill="none" stroke="#63b8ff" d="M787.95,-303.53C811.27,-308.96 840.44,-315.74 863.94,-321.21"/>
<polygon fill="#63b8ff" stroke="#63b8ff" points="863.44,-324.69 873.97,-323.55 865.02,-317.87 863.44,-324.69"/>
</a>
</g>
</g>
<!-- Node24&#45;&gt;Node10 -->
<g id="edge28_Node000024_Node000010" class="edge">
<title>Node24&#45;&gt;Node10</title>
<g id="a_edge28_Node000024_Node000010"><a xlink:title=" ">
<path fill="none" stroke="#63b8ff" d="M940.33,-334.26C957.92,-336.03 980.59,-338.32 1002.8,-340.56"/>
<polygon fill="#63b8ff" stroke="#63b8ff" points="1002.65,-344.06 1012.95,-341.58 1003.35,-337.1 1002.65,-344.06"/>
</a>
</g>
</g>
<!-- Node26 -->
<g id="Node000026" class="node">
<title>Node26</title>
<g id="a_Node000026"><a xlink:href="__Printf_8c.html#a39bb05c90efce6c6790c5d58d271d72d" target="_top" xlink:title=" ">
<polygon fill="white" stroke="#666666" points="931,-303.5 883,-303.5 883,-284.5 931,-284.5 931,-303.5"/>
<text text-anchor="middle" x="907" y="-291.5" font-family="Helvetica,sans-Serif" font-size="10.00">_Printf</text>
</a>
</g>
</g>
<!-- Node25&#45;&gt;Node26 -->
<g id="edge30_Node000025_Node000026" class="edge">
<title>Node25&#45;&gt;Node26</title>
<g id="a_edge30_Node000025_Node000026"><a xlink:title=" ">
<path fill="none" stroke="#63b8ff" d="M780.33,-264.76C807.62,-271.11 846.03,-280.04 873.18,-286.36"/>
<polygon fill="#63b8ff" stroke="#63b8ff" points="872.45,-289.79 882.99,-288.64 874.04,-282.97 872.45,-289.79"/>
</a>
</g>
</g>
<!-- Node37 -->
<g id="Node000037" class="node">
<title>Node37</title>
<g id="a_Node000037"><a xlink:href="is__debug_8c.html#aaccfac8d9098530b6592eefe679d86b4" target="_top" xlink:title=" ">
<polygon fill="white" stroke="#666666" points="959.5,-266.5 854.5,-266.5 854.5,-247.5 959.5,-247.5 959.5,-266.5"/>
<text text-anchor="middle" x="907" y="-254.5" font-family="Helvetica,sans-Serif" font-size="10.00">is_proutSyncPrintf</text>
</a>
</g>
</g>
<!-- Node25&#45;&gt;Node37 -->
<g id="edge44_Node000025_Node000037" class="edge">
<title>Node25&#45;&gt;Node37</title>
<g id="a_edge44_Node000025_Node000037"><a xlink:title=" ">
<path fill="none" stroke="#63b8ff" d="M780.33,-257C798.81,-257 822.37,-257 844.09,-257"/>
<polygon fill="#63b8ff" stroke="#63b8ff" points="844.24,-260.5 854.24,-257 844.24,-253.5 844.24,-260.5"/>
</a>
</g>
</g>
<!-- Node27 -->
<g id="Node000027" class="node">
<title>Node27</title>
<g id="a_Node000027"><a xlink:href="__Printf_8c.html#ad73a5847f2d7c9de14cc2723da86bf45" target="_top" xlink:title=" ">
<polygon fill="white" stroke="#666666" points="1112.5,-321.5 1062.5,-321.5 1062.5,-302.5 1112.5,-302.5 1112.5,-321.5"/>
<text text-anchor="middle" x="1087.5" y="-309.5" font-family="Helvetica,sans-Serif" font-size="10.00">_Putfld</text>
</a>
</g>
</g>
<!-- Node26&#45;&gt;Node27 -->
<g id="edge31_Node000026_Node000027" class="edge">
<title>Node26&#45;&gt;Node27</title>
<g id="a_edge31_Node000026_Node000027"><a xlink:title=" ">
<path fill="none" stroke="#63b8ff" d="M931.34,-296.35C962.08,-299.45 1016.41,-304.93 1051.93,-308.51"/>
<polygon fill="#63b8ff" stroke="#63b8ff" points="1052,-312.04 1062.3,-309.56 1052.7,-305.07 1052,-312.04"/>
</a>
</g>
</g>
<!-- Node36 -->
<g id="Node000036" class="node">
<title>Node36</title>
<g id="a_Node000036"><a xlink:href="string_8c.html#a988b4defe51a1815ef3b9ddab10e7a89" target="_top" xlink:title=" ">
<polygon fill="white" stroke="#666666" points="1109.5,-284.5 1065.5,-284.5 1065.5,-265.5 1109.5,-265.5 1109.5,-284.5"/>
<text text-anchor="middle" x="1087.5" y="-272.5" font-family="Helvetica,sans-Serif" font-size="10.00">strchr</text>
</a>
</g>
</g>
<!-- Node26&#45;&gt;Node36 -->
<g id="edge43_Node000026_Node000036" class="edge">
<title>Node26&#45;&gt;Node36</title>
<g id="a_edge43_Node000026_Node000036"><a xlink:title=" ">
<path fill="none" stroke="#63b8ff" d="M931.34,-291.52C963.02,-288.14 1019.76,-282.1 1055.14,-278.34"/>
<polygon fill="#63b8ff" stroke="#63b8ff" points="1055.81,-281.79 1065.38,-277.25 1055.07,-274.83 1055.81,-281.79"/>
</a>
</g>
</g>
<!-- Node27&#45;&gt;Node11 -->
<g id="edge42_Node000027_Node000011" class="edge">
<title>Node27&#45;&gt;Node11</title>
<g id="a_edge42_Node000027_Node000011"><a xlink:title=" ">
<path fill="none" stroke="#63b8ff" d="M1112.78,-317.5C1127.15,-320.87 1145.69,-325.4 1162,-330 1171.43,-332.66 1181.61,-335.8 1190.84,-338.76"/>
<polygon fill="#63b8ff" stroke="#63b8ff" points="1189.81,-342.11 1200.4,-341.87 1191.97,-335.45 1189.81,-342.11"/>
</a>
</g>
</g>
<!-- Node28 -->
<g id="Node000028" class="node">
<title>Node28</title>
<g id="a_Node000028"><a xlink:href="__Ldtob_8c.html#a7cc858157b66e15c831ad085113729ae" target="_top" xlink:title=" ">
<polygon fill="white" stroke="#666666" points="1247,-227.5 1198,-227.5 1198,-208.5 1247,-208.5 1247,-227.5"/>
<text text-anchor="middle" x="1222.5" y="-215.5" font-family="Helvetica,sans-Serif" font-size="10.00">_Ldtob</text>
</a>
</g>
</g>
<!-- Node27&#45;&gt;Node28 -->
<g id="edge32_Node000027_Node000028" class="edge">
<title>Node27&#45;&gt;Node28</title>
<g id="a_edge32_Node000027_Node000028"><a xlink:title=" ">
<path fill="none" stroke="#63b8ff" d="M1112.58,-309.73C1127.75,-307.38 1147.19,-302.63 1162,-293 1183.78,-278.84 1201.15,-254.01 1211.37,-236.82"/>
<polygon fill="#63b8ff" stroke="#63b8ff" points="1214.64,-238.14 1216.54,-227.72 1208.56,-234.68 1214.64,-238.14"/>
</a>
</g>
</g>
<!-- Node34 -->
<g id="Node000034" class="node">
<title>Node34</title>
<g id="a_Node000034"><a xlink:href="__Litob_8c.html#aaaba3b0ab7920d422a61fe9e22600dd0" target="_top" xlink:title=" ">
<polygon fill="white" stroke="#666666" points="1245.5,-321.5 1199.5,-321.5 1199.5,-302.5 1245.5,-302.5 1245.5,-321.5"/>
<text text-anchor="middle" x="1222.5" y="-309.5" font-family="Helvetica,sans-Serif" font-size="10.00">_Litob</text>
</a>
</g>
</g>
<!-- Node27&#45;&gt;Node34 -->
<g id="edge39_Node000027_Node000034" class="edge">
<title>Node27&#45;&gt;Node34</title>
<g id="a_edge39_Node000027_Node000034"><a xlink:title=" ">
<path fill="none" stroke="#63b8ff" d="M1112.59,-312C1134.01,-312 1165.51,-312 1189.13,-312"/>
<polygon fill="#63b8ff" stroke="#63b8ff" points="1189.36,-315.5 1199.36,-312 1189.36,-308.5 1189.36,-315.5"/>
</a>
</g>
</g>
<!-- Node29 -->
<g id="Node000029" class="node">
<title>Node29</title>
<g id="a_Node000029"><a xlink:href="__Ldtob_8c.html#a2b6c5318b43bab1636bad9113ffb2761" target="_top" xlink:title=" ">
<polygon fill="white" stroke="#666666" points="1343.5,-245.5 1293.5,-245.5 1293.5,-226.5 1343.5,-226.5 1343.5,-245.5"/>
<text text-anchor="middle" x="1318.5" y="-233.5" font-family="Helvetica,sans-Serif" font-size="10.00">_Genld</text>
</a>
</g>
</g>
<!-- Node28&#45;&gt;Node29 -->
<g id="edge33_Node000028_Node000029" class="edge">
<title>Node28&#45;&gt;Node29</title>
<g id="a_edge33_Node000028_Node000029"><a xlink:title=" ">
<path fill="none" stroke="#63b8ff" d="M1247.22,-222.54C1258.16,-224.64 1271.34,-227.16 1283.33,-229.46"/>
<polygon fill="#63b8ff" stroke="#63b8ff" points="1282.98,-232.95 1293.46,-231.4 1284.3,-226.08 1282.98,-232.95"/>
</a>
</g>
</g>
<!-- Node30 -->
<g id="Node000030" class="node">
<title>Node30</title>
<g id="a_Node000030"><a xlink:href="string_8c.html#ad7f1ae1bbb49dece44bda378982a704d" target="_top" xlink:title=" ">
<polygon fill="white" stroke="#666666" points="1449,-283.5 1390,-283.5 1390,-264.5 1449,-264.5 1449,-283.5"/>
<text text-anchor="middle" x="1419.5" y="-271.5" font-family="Helvetica,sans-Serif" font-size="10.00">memcpy</text>
</a>
</g>
</g>
<!-- Node28&#45;&gt;Node30 -->
<g id="edge37_Node000028_Node000030" class="edge">
<title>Node28&#45;&gt;Node30</title>
<g id="a_edge37_Node000028_Node000030"><a xlink:title=" ">
<path fill="none" stroke="#63b8ff" d="M1235.98,-227.59C1247.53,-235.96 1265.5,-247.71 1283,-254 1314.45,-265.31 1352.21,-270.23 1379.87,-272.37"/>
<polygon fill="#63b8ff" stroke="#63b8ff" points="1379.72,-275.87 1389.94,-273.06 1380.2,-268.88 1379.72,-275.87"/>
</a>
</g>
</g>
<!-- Node31 -->
<g id="Node000031" class="node">
<title>Node31</title>
<g id="a_Node000031"><a xlink:href="__Ldtob_8c.html#ab7ade9ce60aaa8baa0244b503351d742" target="_top" xlink:title=" ">
<polygon fill="white" stroke="#666666" points="1354,-208.5 1283,-208.5 1283,-189.5 1354,-189.5 1354,-208.5"/>
<text text-anchor="middle" x="1318.5" y="-196.5" font-family="Helvetica,sans-Serif" font-size="10.00">_Ldunscale</text>
</a>
</g>
</g>
<!-- Node28&#45;&gt;Node31 -->
<g id="edge35_Node000028_Node000031" class="edge">
<title>Node28&#45;&gt;Node31</title>
<g id="a_edge35_Node000028_Node000031"><a xlink:title=" ">
<path fill="none" stroke="#63b8ff" d="M1247.22,-213.21C1255.04,-211.62 1264.02,-209.81 1272.88,-208.02"/>
<polygon fill="#63b8ff" stroke="#63b8ff" points="1273.66,-211.43 1282.77,-206.02 1272.28,-204.57 1273.66,-211.43"/>
</a>
</g>
</g>
<!-- Node32 -->
<g id="Node000032" class="node">
<title>Node32</title>
<g id="a_Node000032"><a xlink:href="ldiv_8c.html#a0302920caf64a5fbe1ce0862799d7784" target="_top" xlink:title=" ">
<polygon fill="white" stroke="#666666" points="1336,-171.5 1301,-171.5 1301,-152.5 1336,-152.5 1336,-171.5"/>
<text text-anchor="middle" x="1318.5" y="-159.5" font-family="Helvetica,sans-Serif" font-size="10.00">ldiv</text>
</a>
</g>
</g>
<!-- Node28&#45;&gt;Node32 -->
<g id="edge36_Node000028_Node000032" class="edge">
<title>Node28&#45;&gt;Node32</title>
<g id="a_edge36_Node000028_Node000032"><a xlink:title=" ">
<path fill="none" stroke="#63b8ff" d="M1237.95,-208.27C1249.87,-200.37 1267.3,-189.09 1283,-180 1285.87,-178.34 1288.9,-176.66 1291.93,-175.02"/>
<polygon fill="#63b8ff" stroke="#63b8ff" points="1293.63,-178.08 1300.84,-170.32 1290.37,-171.89 1293.63,-178.08"/>
</a>
</g>
</g>
<!-- Node33 -->
<g id="Node000033" class="node">
<title>Node33</title>
<g id="a_Node000033"><a xlink:href="alBnkfNew_8c.html#a96a0200a6b40350e524f536d232ecb53" target="_top" xlink:title=" ">
<polygon fill="white" stroke="#666666" points="1344.5,-134.5 1292.5,-134.5 1292.5,-115.5 1344.5,-115.5 1344.5,-134.5"/>
<text text-anchor="middle" x="1318.5" y="-122.5" font-family="Helvetica,sans-Serif" font-size="10.00">unused</text>
</a>
</g>
</g>
<!-- Node28&#45;&gt;Node33 -->
<g id="edge38_Node000028_Node000033" class="edge">
<title>Node28&#45;&gt;Node33</title>
<g id="a_edge38_Node000028_Node000033"><a xlink:title=" ">
<path fill="none" stroke="#63b8ff" d="M1229.38,-208.16C1239,-192.7 1259.42,-162.48 1283,-143 1284.32,-141.91 1285.73,-140.85 1287.18,-139.84"/>
<polygon fill="#63b8ff" stroke="#63b8ff" points="1289.13,-142.74 1295.83,-134.53 1285.47,-136.78 1289.13,-142.74"/>
</a>
</g>
</g>
<!-- Node29&#45;&gt;Node30 -->
<g id="edge34_Node000029_Node000030" class="edge">
<title>Node29&#45;&gt;Node30</title>
<g id="a_edge34_Node000029_Node000030"><a xlink:title=" ">
<path fill="none" stroke="#63b8ff" d="M1343.72,-245.3C1355.88,-249.96 1370.82,-255.7 1384.15,-260.81"/>
<polygon fill="#63b8ff" stroke="#63b8ff" points="1382.91,-264.09 1393.5,-264.4 1385.42,-257.55 1382.91,-264.09"/>
</a>
</g>
</g>
<!-- Node34&#45;&gt;Node30 -->
<g id="edge41_Node000034_Node000030" class="edge">
<title>Node34&#45;&gt;Node30</title>
<g id="a_edge41_Node000034_Node000030"><a xlink:title=" ">
<path fill="none" stroke="#63b8ff" d="M1245.71,-308.14C1271.71,-303.56 1316.05,-295.61 1354,-288 1362.48,-286.3 1371.56,-284.39 1380.16,-282.53"/>
<polygon fill="#63b8ff" stroke="#63b8ff" points="1380.94,-285.95 1389.96,-280.4 1379.45,-279.11 1380.94,-285.95"/>
</a>
</g>
</g>
<!-- Node35 -->
<g id="Node000035" class="node">
<title>Node35</title>
<g id="a_Node000035"><a xlink:href="ldiv_8c.html#a5b23c3639f11980dca762c5f1d74f339" target="_top" xlink:title=" ">
<polygon fill="white" stroke="#666666" points="1337.5,-359.5 1299.5,-359.5 1299.5,-340.5 1337.5,-340.5 1337.5,-359.5"/>
<text text-anchor="middle" x="1318.5" y="-347.5" font-family="Helvetica,sans-Serif" font-size="10.00">lldiv</text>
</a>
</g>
</g>
<!-- Node34&#45;&gt;Node35 -->
<g id="edge40_Node000034_Node000035" class="edge">
<title>Node34&#45;&gt;Node35</title>
<g id="a_edge40_Node000034_Node000035"><a xlink:title=" ">
<path fill="none" stroke="#63b8ff" d="M1245.78,-321.01C1258.97,-326.34 1275.8,-333.14 1289.84,-338.82"/>
<polygon fill="#63b8ff" stroke="#63b8ff" points="1288.89,-342.21 1299.47,-342.71 1291.52,-335.72 1288.89,-342.21"/>
</a>
</g>
</g>
<!-- Node38&#45;&gt;Node38 -->
<g id="edge48_Node000038_Node000038" class="edge">
<title>Node38&#45;&gt;Node38</title>
<g id="a_edge48_Node000038_Node000038"><a xlink:title=" ">
<path fill="none" stroke="#63b8ff" d="M725.04,-47.58C714.84,-56.23 721.83,-65.5 746,-65.5 761.49,-65.5 769.92,-61.7 771.3,-56.69"/>
<polygon fill="#63b8ff" stroke="#63b8ff" points="774.42,-55.11 766.96,-47.58 768.1,-58.12 774.42,-55.11"/>
</a>
</g>
</g>
<!-- Node39 -->
<g id="Node000039" class="node">
<title>Node39</title>
<g id="a_Node000039"><a xlink:href="FrameInterpolation_8cpp.html#a5fbd67ef553452903cf553b9c224fa76" target="_top" xlink:title=" ">
<polygon fill="white" stroke="#666666" points="971,-30 843,-30 843,0 971,0 971,-30"/>
<text text-anchor="start" x="851" y="-18" font-family="Helvetica,sans-Serif" font-size="10.00">FrameInterpolation</text>
<text text-anchor="middle" x="907" y="-7" font-family="Helvetica,sans-Serif" font-size="10.00">_Record_SetTextMatrix</text>
</a>
</g>
</g>
<!-- Node38&#45;&gt;Node39 -->
<g id="edge46_Node000038_Node000039" class="edge">
<title>Node38&#45;&gt;Node39</title>
<g id="a_edge46_Node000038_Node000039"><a xlink:title=" ">
<path fill="none" stroke="#63b8ff" d="M788.36,-32.02C802.02,-30.04 817.65,-27.78 832.96,-25.57"/>
<polygon fill="#63b8ff" stroke="#63b8ff" points="833.56,-29.02 842.95,-24.12 832.55,-22.09 833.56,-29.02"/>
</a>
</g>
</g>
<!-- Node39&#45;&gt;Node18 -->
<g id="edge47_Node000039_Node000018" class="edge">
<title>Node39&#45;&gt;Node18</title>
<g id="a_edge47_Node000039_Node000018"><a xlink:title=" ">
<path fill="none" stroke="#63b8ff" d="M947.65,-30.14C957.42,-34.29 967.73,-39.02 977,-44 1009.37,-61.39 1044.29,-85.74 1065.78,-101.45"/>
<polygon fill="#63b8ff" stroke="#63b8ff" points="1063.73,-104.28 1073.85,-107.4 1067.88,-98.65 1063.73,-104.28"/>
</a>
</g>
</g>
<!-- Node41 -->
<g id="Node000041" class="node">
<title>Node41</title>
<g id="a_Node000041"><a xlink:href="menu__items_8c.html#a07904969a6bc8374f305d668f432b26a" target="_top" xlink:title=" ">
<polygon fill="white" stroke="#666666" points="373,-453.5 303,-453.5 303,-434.5 373,-434.5 373,-453.5"/>
<text text-anchor="middle" x="338" y="-441.5" font-family="Helvetica,sans-Serif" font-size="10.00">print_text0</text>
</a>
</g>
</g>
<!-- Node40&#45;&gt;Node41 -->
<g id="edge51_Node000040_Node000041" class="edge">
<title>Node40&#45;&gt;Node41</title>
<g id="a_edge51_Node000040_Node000041"><a xlink:title=" ">
<path fill="none" stroke="#63b8ff" d="M251.65,-444C265.26,-444 279.74,-444 292.83,-444"/>
<polygon fill="#63b8ff" stroke="#63b8ff" points="293,-447.5 303,-444 293,-440.5 293,-447.5"/>
</a>
</g>
</g>
<!-- Node41&#45;&gt;Node5 -->
<g id="edge52_Node000041_Node000005" class="edge">
<title>Node41&#45;&gt;Node5</title>
<g id="a_edge52_Node000041_Node000005"><a xlink:title=" ">
<path fill="none" stroke="#63b8ff" d="M373.17,-439.18C381.1,-438.06 389.82,-436.83 398.64,-435.58"/>
<polygon fill="#63b8ff" stroke="#63b8ff" points="399.2,-439.04 408.61,-434.17 398.22,-432.11 399.2,-439.04"/>
</a>
</g>
</g>
<!-- Node41&#45;&gt;Node9 -->
<g id="edge53_Node000041_Node000009" class="edge">
<title>Node41&#45;&gt;Node9</title>
<g id="a_edge53_Node000041_Node000009"><a xlink:title=" ">
<path fill="none" stroke="#63b8ff" d="M355.69,-453.54C369.7,-461.37 390.36,-472.52 409,-481 511.33,-527.58 544.57,-561.13 655,-540 723.58,-526.88 743.46,-521.56 801,-482 840.32,-454.97 875.55,-410.68 893.49,-386.02"/>
<polygon fill="#63b8ff" stroke="#63b8ff" points="896.53,-387.78 899.49,-377.6 890.84,-383.71 896.53,-387.78"/>
</a>
</g>
</g>
<!-- Node41&#45;&gt;Node12 -->
<g id="edge54_Node000041_Node000012" class="edge">
<title>Node41&#45;&gt;Node12</title>
<g id="a_edge54_Node000041_Node000012"><a xlink:title=" ">
<path fill="none" stroke="#63b8ff" d="M373.17,-449.09C384.46,-450.77 397.34,-452.69 409.85,-454.56"/>
<polygon fill="#63b8ff" stroke="#63b8ff" points="409.37,-458.02 419.77,-456.04 410.4,-451.1 409.37,-458.02"/>
</a>
</g>
</g>
<!-- Node41&#45;&gt;Node14 -->
<g id="edge55_Node000041_Node000014" class="edge">
<title>Node41&#45;&gt;Node14</title>
<g id="a_edge55_Node000041_Node000014"><a xlink:title=" ">
<path fill="none" stroke="#63b8ff" d="M356.23,-434.43C373.42,-424.96 398.72,-411.28 409,-407 413.41,-405.16 418.09,-403.4 422.78,-401.76"/>
<polygon fill="#63b8ff" stroke="#63b8ff" points="424.01,-405.04 432.38,-398.55 421.79,-398.4 424.01,-405.04"/>
</a>
</g>
</g>
</g>
</svg>
