<?xml version="1.0" encoding="UTF-8" standalone="no"?>
<!DOCTYPE svg PUBLIC "-//W3C//DTD SVG 1.1//EN"
 "http://www.w3.org/Graphics/SVG/1.1/DTD/svg11.dtd">
<!-- Generated by graphviz version 2.43.0 (0)
 -->
<!-- Title: func_800A6034 Pages: 1 -->
<!--zoomable 523 -->

<svg id="main" version="1.1" xmlns="http://www.w3.org/2000/svg" xmlns:xlink="http://www.w3.org/1999/xlink" xml:space="preserve" onload="init(evt)">

<style type="text/css"><![CDATA[
.node, .edge {opacity: 0.7;}
.node.selected, .edge.selected {opacity: 1;}
.edge:hover path { stroke: red; }
.edge:hover polygon { stroke: red; fill: red; }
]]></style>

<defs>
  <circle id="rim" cx="0" cy="0" r="7"/>
  <circle id="rim2" cx="0" cy="0" r="3.5"/>
  <g id="zoomPlus">
    <use xlink:href="#rim" fill="#404040"><set attributeName="fill" to="#808080" begin="zoomplus.mouseover" end="zoomplus.mouseout"/></use>
    <path d="M-4,0h8M0,-4v8" fill="none" stroke="white" stroke-width="1.5" pointer-events="none"/>
  </g>
  <g id="zoomMin">
    <use xlink:href="#rim" fill="#404040"><set attributeName="fill" to="#808080" begin="zoomminus.mouseover" end="zoomminus.mouseout"/></use>
    <path d="M-4,0h8" fill="none" stroke="white" stroke-width="1.5" pointer-events="none"/>
  </g>
  <g id="arrowUp" transform="translate(30 24)">
    <use xlink:href="#rim"/>
    <path pointer-events="none" fill="none" stroke="white" stroke-width="1.5" d="M0,-3.0v7 M-2.5,-0.5L0,-3.0L2.5,-0.5"/>
  </g>
  <g id="arrowRight" transform="rotate(90) translate(36 -43)">
    <use xlink:href="#rim"/>
    <path pointer-events="none" fill="none" stroke="white" stroke-width="1.5" d="M0,-3.0v7 M-2.5,-0.5L0,-3.0L2.5,-0.5"/>
  </g>
  <g id="arrowDown" transform="rotate(180) translate(-30 -48)">
    <use xlink:href="#rim"/>
    <path pointer-events="none" fill="none" stroke="white" stroke-width="1.5" d="M0,-3.0v7 M-2.5,-0.5L0,-3.0L2.5,-0.5"/>
  </g>
  <g id="arrowLeft" transform="rotate(270) translate(-36 17)">
    <use xlink:href="#rim"/>
    <path pointer-events="none" fill="none" stroke="white" stroke-width="1.5" d="M0,-3.0v7 M-2.5,-0.5L0,-3.0L2.5,-0.5"/>
  </g>
  <g id="resetDef">
    <use xlink:href="#rim2" fill="#404040"><set attributeName="fill" to="#808080" begin="reset.mouseover" end="reset.mouseout"/></use>
  </g>
</defs>
<script type="application/ecmascript">
var viewWidth = 1446;
var viewHeight = 523;
var sectionId = 'dynsection-254';
</script>
<script type="application/ecmascript" xlink:href="svg.min.js"/>
<svg id="graph" class="graph">
<g id="viewport">
<title>func_800A6034</title>
<!-- Node1 -->
<g id="Node000001" class="node">
<title>Node1</title>
<g id="a_Node000001"><a xlink:title=" ">
<polygon fill="#999999" stroke="#666666" points="92,-411.5 0,-411.5 0,-392.5 92,-392.5 92,-411.5"/>
<text text-anchor="middle" x="46" y="-399.5" font-family="Helvetica,sans-Serif" font-size="10.00">func_800A6034</text>
</a>
</g>
</g>
<!-- Node2 -->
<g id="Node000002" class="node">
<title>Node2</title>
<g id="a_Node000002"><a xlink:href="Game_8cpp.html#a3416a195a0c7be6ec3783bbf4842dc3e" target="_top" xlink:title=" ">
<polygon fill="white" stroke="#666666" points="222,-470.5 140,-470.5 140,-451.5 222,-451.5 222,-470.5"/>
<text text-anchor="middle" x="181" y="-458.5" font-family="Helvetica,sans-Serif" font-size="10.00">CM_GetProps</text>
</a>
</g>
</g>
<!-- Node1&#45;&gt;Node2 -->
<g id="edge1_Node000001_Node000002" class="edge">
<title>Node1&#45;&gt;Node2</title>
<g id="a_edge1_Node000001_Node000002"><a xlink:title=" ">
<path fill="none" stroke="#63b8ff" d="M65.07,-411.63C81.32,-420.11 105.94,-432.56 128,-442 132.74,-444.03 137.77,-446.04 142.77,-447.95"/>
<polygon fill="#63b8ff" stroke="#63b8ff" points="141.66,-451.28 152.26,-451.49 144.11,-444.72 141.66,-451.28"/>
</a>
</g>
</g>
<!-- Node3 -->
<g id="Node000003" class="node">
<title>Node3</title>
<g id="a_Node000003"><a xlink:href="Game_8cpp.html#a682b05febe7b8e4a4adf68785d93e3d3" target="_top" xlink:title=" ">
<polygon fill="white" stroke="#666666" points="228.5,-433.5 133.5,-433.5 133.5,-414.5 228.5,-414.5 228.5,-433.5"/>
<text text-anchor="middle" x="181" y="-421.5" font-family="Helvetica,sans-Serif" font-size="10.00">GetCourseIndex</text>
</a>
</g>
</g>
<!-- Node1&#45;&gt;Node3 -->
<g id="edge2_Node000001_Node000003" class="edge">
<title>Node1&#45;&gt;Node3</title>
<g id="a_edge2_Node000001_Node000003"><a xlink:title=" ">
<path fill="none" stroke="#63b8ff" d="M92.03,-409.45C102.08,-411.11 112.86,-412.89 123.32,-414.62"/>
<polygon fill="#63b8ff" stroke="#63b8ff" points="122.77,-418.08 133.2,-416.26 123.91,-411.17 122.77,-418.08"/>
</a>
</g>
</g>
<!-- Node4 -->
<g id="Node000004" class="node">
<title>Node4</title>
<g id="a_Node000004"><a xlink:href="menu__items_8c.html#a8051db7229d932b267fdec53a1e794eb" target="_top" xlink:title=" ">
<polygon fill="white" stroke="#666666" points="234,-396 128,-396 128,-366 234,-366 234,-396"/>
<text text-anchor="start" x="136" y="-384" font-family="Helvetica,sans-Serif" font-size="10.00">print_text1_center</text>
<text text-anchor="middle" x="181" y="-373" font-family="Helvetica,sans-Serif" font-size="10.00">_mode_2</text>
</a>
</g>
</g>
<!-- Node1&#45;&gt;Node4 -->
<g id="edge3_Node000001_Node000004" class="edge">
<title>Node1&#45;&gt;Node4</title>
<g id="a_edge3_Node000001_Node000004"><a xlink:title=" ">
<path fill="none" stroke="#63b8ff" d="M92.03,-394.89C100.26,-393.59 108.99,-392.21 117.62,-390.85"/>
<polygon fill="#63b8ff" stroke="#63b8ff" points="118.34,-394.28 127.67,-389.26 117.25,-387.36 118.34,-394.28"/>
</a>
</g>
</g>
<!-- Node41 -->
<g id="Node000041" class="node">
<title>Node41</title>
<g id="a_Node000041"><a xlink:href="menu__items_8c.html#a1a002f259a6c887d6672085b8cda7d4d" target="_top" xlink:title=" ">
<polygon fill="white" stroke="#666666" points="224,-347.5 138,-347.5 138,-328.5 224,-328.5 224,-347.5"/>
<text text-anchor="middle" x="181" y="-335.5" font-family="Helvetica,sans-Serif" font-size="10.00">set_text_color</text>
</a>
</g>
</g>
<!-- Node1&#45;&gt;Node41 -->
<g id="edge51_Node000001_Node000041" class="edge">
<title>Node1&#45;&gt;Node41</title>
<g id="a_edge51_Node000001_Node000041"><a xlink:title=" ">
<path fill="none" stroke="#63b8ff" d="M62.45,-392.46C78.48,-382.79 104.44,-367.77 128,-357 132.41,-354.98 137.11,-353.02 141.8,-351.18"/>
<polygon fill="#63b8ff" stroke="#63b8ff" points="143.23,-354.38 151.34,-347.56 140.75,-347.83 143.23,-354.38"/>
</a>
</g>
</g>
<!-- Node5 -->
<g id="Node000005" class="node">
<title>Node5</title>
<g id="a_Node000005"><a xlink:href="menu__items_8c.html#ad2af1a6781c3f0bf246aba0d078ae773" target="_top" xlink:title=" ">
<polygon fill="white" stroke="#666666" points="340,-390.5 270,-390.5 270,-371.5 340,-371.5 340,-390.5"/>
<text text-anchor="middle" x="305" y="-378.5" font-family="Helvetica,sans-Serif" font-size="10.00">print_text1</text>
</a>
</g>
</g>
<!-- Node4&#45;&gt;Node5 -->
<g id="edge4_Node000004_Node000005" class="edge">
<title>Node4&#45;&gt;Node5</title>
<g id="a_edge4_Node000004_Node000005"><a xlink:title=" ">
<path fill="none" stroke="#63b8ff" d="M234.09,-381C242.56,-381 251.27,-381 259.53,-381"/>
<polygon fill="#63b8ff" stroke="#63b8ff" points="259.72,-384.5 269.72,-381 259.72,-377.5 259.72,-384.5"/>
</a>
</g>
</g>
<!-- Node6 -->
<g id="Node000006" class="node">
<title>Node6</title>
<g id="a_Node000006"><a xlink:href="menu__items_8c.html#ace62f40ce813c34904327e39643a0dbf" target="_top" xlink:title=" ">
<polygon fill="white" stroke="#666666" points="504,-476.5 387,-476.5 387,-457.5 504,-457.5 504,-476.5"/>
<text text-anchor="middle" x="445.5" y="-464.5" font-family="Helvetica,sans-Serif" font-size="10.00">char_to_glyph_index</text>
</a>
</g>
</g>
<!-- Node5&#45;&gt;Node6 -->
<g id="edge5_Node000005_Node000006" class="edge">
<title>Node5&#45;&gt;Node6</title>
<g id="a_edge5_Node000005_Node000006"><a xlink:title=" ">
<path fill="none" stroke="#63b8ff" d="M313.49,-390.76C325.23,-405.39 349.39,-432.87 376,-448 379.91,-450.22 384.09,-452.2 388.39,-453.95"/>
<polygon fill="#63b8ff" stroke="#63b8ff" points="387.33,-457.29 397.93,-457.44 389.74,-450.72 387.33,-457.29"/>
</a>
</g>
</g>
<!-- Node10 -->
<g id="Node000010" class="node">
<title>Node10</title>
<g id="a_Node000010"><a xlink:href="FrameInterpolation_8cpp.html#a14ceaeb116362786310778e36943f7be" target="_top" xlink:title=" ">
<polygon fill="white" stroke="#666666" points="515,-439 376,-439 376,-409 515,-409 515,-439"/>
<text text-anchor="start" x="384" y="-427" font-family="Helvetica,sans-Serif" font-size="10.00">FrameInterpolation</text>
<text text-anchor="middle" x="445.5" y="-416" font-family="Helvetica,sans-Serif" font-size="10.00">_ShouldInterpolateFrame</text>
</a>
</g>
</g>
<!-- Node5&#45;&gt;Node10 -->
<g id="edge10_Node000005_Node000010" class="edge">
<title>Node5&#45;&gt;Node10</title>
<g id="a_edge10_Node000005_Node000010"><a xlink:title=" ">
<path fill="none" stroke="#63b8ff" d="M336.74,-390.54C351.33,-395.07 369.26,-400.64 386.28,-405.93"/>
<polygon fill="#63b8ff" stroke="#63b8ff" points="385.58,-409.37 396.17,-408.99 387.65,-402.69 385.58,-409.37"/>
</a>
</g>
</g>
<!-- Node11 -->
<g id="Node000011" class="node">
<title>Node11</title>
<g id="a_Node000011"><a xlink:href="GBIMiddleware_8cpp.html#a4ecc44e3c6f1ca5a6b4a20c41d3bd2d2" target="_top" xlink:title=" ">
<polygon fill="white" stroke="#666666" points="940.5,-330.5 851.5,-330.5 851.5,-311.5 940.5,-311.5 940.5,-330.5"/>
<text text-anchor="middle" x="896" y="-318.5" font-family="Helvetica,sans-Serif" font-size="10.00">gSPDisplayList</text>
</a>
</g>
</g>
<!-- Node5&#45;&gt;Node11 -->
<g id="edge11_Node000005_Node000011" class="edge">
<title>Node5&#45;&gt;Node11</title>
<g id="a_edge11_Node000005_Node000011"><a xlink:title=" ">
<path fill="none" stroke="#63b8ff" d="M336.39,-371.43C348.59,-367.93 362.85,-364.28 376,-362 387.37,-360.03 710.88,-335.11 841.28,-325.11"/>
<polygon fill="#63b8ff" stroke="#63b8ff" points="841.74,-328.59 851.44,-324.33 841.21,-321.61 841.74,-328.59"/>
</a>
</g>
</g>
<!-- Node14 -->
<g id="Node000014" class="node">
<title>Node14</title>
<g id="a_Node000014"><a xlink:href="menu__items_8c.html#a68e560d23390d5add7cb57ccd82e21ae" target="_top" xlink:title=" ">
<polygon fill="white" stroke="#666666" points="493,-390.5 398,-390.5 398,-371.5 493,-371.5 493,-390.5"/>
<text text-anchor="middle" x="445.5" y="-378.5" font-family="Helvetica,sans-Serif" font-size="10.00">load_menu_img</text>
</a>
</g>
</g>
<!-- Node5&#45;&gt;Node14 -->
<g id="edge14_Node000005_Node000014" class="edge">
<title>Node5&#45;&gt;Node14</title>
<g id="a_edge14_Node000005_Node000014"><a xlink:title=" ">
<path fill="none" stroke="#63b8ff" d="M340.24,-381C354.5,-381 371.44,-381 387.48,-381"/>
<polygon fill="#63b8ff" stroke="#63b8ff" points="387.86,-384.5 397.86,-381 387.86,-377.5 387.86,-384.5"/>
</a>
</g>
</g>
<!-- Node16 -->
<g id="Node000016" class="node">
<title>Node16</title>
<g id="a_Node000016"><a xlink:href="menu__items_8c.html#aafca6e35a19465ad361e68b13e467243" target="_top" xlink:title=" ">
<polygon fill="white" stroke="#666666" points="481,-314.5 410,-314.5 410,-295.5 481,-295.5 481,-314.5"/>
<text text-anchor="middle" x="445.5" y="-302.5" font-family="Helvetica,sans-Serif" font-size="10.00">print_letter</text>
</a>
</g>
</g>
<!-- Node5&#45;&gt;Node16 -->
<g id="edge16_Node000005_Node000016" class="edge">
<title>Node5&#45;&gt;Node16</title>
<g id="a_edge16_Node000005_Node000016"><a xlink:title=" ">
<path fill="none" stroke="#63b8ff" d="M316.7,-371.42C329.86,-360.04 353.27,-341.07 376,-329 383.93,-324.79 392.74,-321.07 401.34,-317.89"/>
<polygon fill="#63b8ff" stroke="#63b8ff" points="402.62,-321.15 410.89,-314.53 400.3,-314.54 402.62,-321.15"/>
</a>
</g>
</g>
<!-- Node7 -->
<g id="Node000007" class="node">
<title>Node7</title>
<g id="a_Node000007"><a xlink:href="menu__items_8c.html#ae8ba1b567dba01ff15c64d416653a70b" target="_top" xlink:title=" ">
<polygon fill="white" stroke="#666666" points="643.5,-438.5 551.5,-438.5 551.5,-419.5 643.5,-419.5 643.5,-438.5"/>
<text text-anchor="middle" x="597.5" y="-426.5" font-family="Helvetica,sans-Serif" font-size="10.00">func_80092DF8</text>
</a>
</g>
</g>
<!-- Node6&#45;&gt;Node7 -->
<g id="edge6_Node000006_Node000007" class="edge">
<title>Node6&#45;&gt;Node7</title>
<g id="a_edge6_Node000006_Node000007"><a xlink:title=" ">
<path fill="none" stroke="#63b8ff" d="M484.35,-457.41C503.97,-452.44 528.12,-446.32 548.98,-441.04"/>
<polygon fill="#63b8ff" stroke="#63b8ff" points="550.09,-444.37 558.92,-438.52 548.37,-437.58 550.09,-444.37"/>
</a>
</g>
</g>
<!-- Node8 -->
<g id="Node000008" class="node">
<title>Node8</title>
<g id="a_Node000008"><a xlink:href="menu__items_8c.html#acd5b29a8e8634aa4f3db4b9a7c5ba033" target="_top" xlink:title=" ">
<polygon fill="white" stroke="#666666" points="781,-457.5 689,-457.5 689,-438.5 781,-438.5 781,-457.5"/>
<text text-anchor="middle" x="735" y="-445.5" font-family="Helvetica,sans-Serif" font-size="10.00">func_80092E1C</text>
</a>
</g>
</g>
<!-- Node6&#45;&gt;Node8 -->
<g id="edge8_Node000006_Node000008" class="edge">
<title>Node6&#45;&gt;Node8</title>
<g id="a_edge8_Node000006_Node000008"><a xlink:title=" ">
<path fill="none" stroke="#63b8ff" d="M504.33,-463.18C555.26,-459.81 628.92,-454.94 678.99,-451.64"/>
<polygon fill="#63b8ff" stroke="#63b8ff" points="679.24,-455.13 688.99,-450.97 678.78,-448.14 679.24,-455.13"/>
</a>
</g>
</g>
<!-- Node9 -->
<g id="Node000009" class="node">
<title>Node9</title>
<g id="a_Node000009"><a xlink:href="menu__items_8c.html#ab26c8dca1828cd1d5a6c341cb851f0b9" target="_top" xlink:title=" ">
<polygon fill="white" stroke="#666666" points="643,-514.5 552,-514.5 552,-495.5 643,-495.5 643,-514.5"/>
<text text-anchor="middle" x="597.5" y="-502.5" font-family="Helvetica,sans-Serif" font-size="10.00">func_80092EE4</text>
</a>
</g>
</g>
<!-- Node6&#45;&gt;Node9 -->
<g id="edge9_Node000006_Node000009" class="edge">
<title>Node6&#45;&gt;Node9</title>
<g id="a_edge9_Node000006_Node000009"><a xlink:title=" ">
<path fill="none" stroke="#63b8ff" d="M484.35,-476.59C503.97,-481.56 528.12,-487.68 548.98,-492.96"/>
<polygon fill="#63b8ff" stroke="#63b8ff" points="548.37,-496.42 558.92,-495.48 550.09,-489.63 548.37,-496.42"/>
</a>
</g>
</g>
<!-- Node7&#45;&gt;Node8 -->
<g id="edge7_Node000007_Node000008" class="edge">
<title>Node7&#45;&gt;Node8</title>
<g id="a_edge7_Node000007_Node000008"><a xlink:title=" ">
<path fill="none" stroke="#63b8ff" d="M643.62,-435.33C654.81,-436.9 666.94,-438.6 678.56,-440.23"/>
<polygon fill="#63b8ff" stroke="#63b8ff" points="678.23,-443.71 688.62,-441.64 679.2,-436.78 678.23,-443.71"/>
</a>
</g>
</g>
<!-- Node12 -->
<g id="Node000012" class="node">
<title>Node12</title>
<g id="a_Node000012"><a xlink:href="Engine_8cpp.html#a223c8bc63f228dc11177515e38eff2db" target="_top" xlink:title=" ">
<polygon fill="white" stroke="#666666" points="1151,-293.5 1002,-293.5 1002,-274.5 1151,-274.5 1151,-293.5"/>
<text text-anchor="middle" x="1076.5" y="-281.5" font-family="Helvetica,sans-Serif" font-size="10.00">GameEngine_OTRSigCheck</text>
</a>
</g>
</g>
<!-- Node11&#45;&gt;Node12 -->
<g id="edge12_Node000011_Node000012" class="edge">
<title>Node11&#45;&gt;Node12</title>
<g id="a_edge12_Node000011_Node000012"><a xlink:title=" ">
<path fill="none" stroke="#63b8ff" d="M940.67,-311.95C964.45,-307.02 994.13,-300.87 1019.59,-295.59"/>
<polygon fill="#63b8ff" stroke="#63b8ff" points="1020.4,-299 1029.48,-293.54 1018.98,-292.14 1020.4,-299"/>
</a>
</g>
</g>
<!-- Node13 -->
<g id="Node000013" class="node">
<title>Node13</title>
<g id="a_Node000013"><a xlink:href="string_8c.html#a008e171a518fe0e0352f31b245e03875" target="_top" xlink:title=" ">
<polygon fill="white" stroke="#666666" points="1233.5,-293.5 1189.5,-293.5 1189.5,-274.5 1233.5,-274.5 1233.5,-293.5"/>
<text text-anchor="middle" x="1211.5" y="-281.5" font-family="Helvetica,sans-Serif" font-size="10.00">strlen</text>
</a>
</g>
</g>
<!-- Node12&#45;&gt;Node13 -->
<g id="edge13_Node000012_Node000013" class="edge">
<title>Node12&#45;&gt;Node13</title>
<g id="a_edge13_Node000012_Node000013"><a xlink:title=" ">
<path fill="none" stroke="#63b8ff" d="M1151,-284C1160.89,-284 1170.56,-284 1179.14,-284"/>
<polygon fill="#63b8ff" stroke="#63b8ff" points="1179.36,-287.5 1189.36,-284 1179.36,-280.5 1179.36,-287.5"/>
</a>
</g>
</g>
<!-- Node15 -->
<g id="Node000015" class="node">
<title>Node15</title>
<g id="a_Node000015"><a xlink:href="menu__items_8c.html#a248768ee2e4ca9ae9cf0a30bfb256859" target="_top" xlink:title=" ">
<polygon fill="white" stroke="#666666" points="636.5,-390.5 558.5,-390.5 558.5,-371.5 636.5,-371.5 636.5,-390.5"/>
<text text-anchor="middle" x="597.5" y="-378.5" font-family="Helvetica,sans-Serif" font-size="10.00">load_texture</text>
</a>
</g>
</g>
<!-- Node14&#45;&gt;Node15 -->
<g id="edge15_Node000014_Node000015" class="edge">
<title>Node14&#45;&gt;Node15</title>
<g id="a_edge15_Node000014_Node000015"><a xlink:title=" ">
<path fill="none" stroke="#63b8ff" d="M493.14,-381C510.68,-381 530.65,-381 548.33,-381"/>
<polygon fill="#63b8ff" stroke="#63b8ff" points="548.44,-384.5 558.44,-381 548.44,-377.5 548.44,-384.5"/>
</a>
</g>
</g>
<!-- Node16&#45;&gt;Node11 -->
<g id="edge50_Node000016_Node000011" class="edge">
<title>Node16&#45;&gt;Node11</title>
<g id="a_edge50_Node000016_Node000011"><a xlink:title=" ">
<path fill="none" stroke="#63b8ff" d="M481.32,-306.24C559.28,-309.02 748.32,-315.77 841.4,-319.09"/>
<polygon fill="#63b8ff" stroke="#63b8ff" points="841.34,-322.59 851.46,-319.45 841.59,-315.59 841.34,-322.59"/>
</a>
</g>
</g>
<!-- Node17 -->
<g id="Node000017" class="node">
<title>Node17</title>
<g id="a_Node000017"><a xlink:href="menu__items_8c.html#a37eb021a953285ba504198ac6ca73a9a" target="_top" xlink:title=" ">
<polygon fill="white" stroke="#666666" points="644,-181.5 551,-181.5 551,-162.5 644,-162.5 644,-181.5"/>
<text text-anchor="middle" x="597.5" y="-169.5" font-family="Helvetica,sans-Serif" font-size="10.00">func_80095BD0</text>
</a>
</g>
</g>
<!-- Node16&#45;&gt;Node17 -->
<g id="edge17_Node000016_Node000017" class="edge">
<title>Node16&#45;&gt;Node17</title>
<g id="a_edge17_Node000016_Node000017"><a xlink:title=" ">
<path fill="none" stroke="#63b8ff" d="M457.29,-295.43C482.57,-273.02 545.91,-216.86 577.69,-188.68"/>
<polygon fill="#63b8ff" stroke="#63b8ff" points="580.25,-191.09 585.41,-181.84 575.6,-185.85 580.25,-191.09"/>
</a>
</g>
</g>
<!-- Node18 -->
<g id="Node000018" class="node">
<title>Node18</title>
<g id="a_Node000018"><a xlink:href="Matrix_8cpp.html#a6f64c44efb9bdfff802175a9739ce1f1" target="_top" xlink:title=" ">
<polygon fill="white" stroke="#666666" points="778.5,-138.5 691.5,-138.5 691.5,-119.5 778.5,-119.5 778.5,-138.5"/>
<text text-anchor="middle" x="735" y="-126.5" font-family="Helvetica,sans-Serif" font-size="10.00">AddTextMatrix</text>
</a>
</g>
</g>
<!-- Node17&#45;&gt;Node18 -->
<g id="edge18_Node000017_Node000018" class="edge">
<title>Node17&#45;&gt;Node18</title>
<g id="a_edge18_Node000017_Node000018"><a xlink:title=" ">
<path fill="none" stroke="#63b8ff" d="M628.57,-162.46C647.96,-156.31 673.38,-148.24 694.4,-141.57"/>
<polygon fill="#63b8ff" stroke="#63b8ff" points="695.54,-144.88 704.01,-138.52 693.42,-138.21 695.54,-144.88"/>
</a>
</g>
</g>
<!-- Node22 -->
<g id="Node000022" class="node">
<title>Node22</title>
<g id="a_Node000022"><a xlink:href="FrameInterpolation_8cpp.html#a3a036bc9d533e28a4e9697cd20dccf3e" target="_top" xlink:title=" ">
<polygon fill="white" stroke="#666666" points="790,-30 680,-30 680,0 790,0 790,-30"/>
<text text-anchor="start" x="688" y="-18" font-family="Helvetica,sans-Serif" font-size="10.00">FrameInterpolation</text>
<text text-anchor="middle" x="735" y="-7" font-family="Helvetica,sans-Serif" font-size="10.00">_RecordCloseChild</text>
</a>
</g>
</g>
<!-- Node17&#45;&gt;Node22 -->
<g id="edge22_Node000017_Node000022" class="edge">
<title>Node17&#45;&gt;Node22</title>
<g id="a_edge22_Node000017_Node000022"><a xlink:title=" ">
<path fill="none" stroke="#63b8ff" d="M602.08,-162.27C611.37,-138.25 638.45,-75.41 680,-39 681.33,-37.84 682.72,-36.72 684.16,-35.66"/>
<polygon fill="#63b8ff" stroke="#63b8ff" points="686.36,-38.4 692.87,-30.04 682.57,-32.52 686.36,-38.4"/>
</a>
</g>
</g>
<!-- Node23 -->
<g id="Node000023" class="node">
<title>Node23</title>
<g id="a_Node000023"><a xlink:href="FrameInterpolation_8cpp.html#a0eda726b74eac815af4e874014e2727c" target="_top" xlink:title=" ">
<polygon fill="white" stroke="#666666" points="790,-187 680,-187 680,-157 790,-157 790,-187"/>
<text text-anchor="start" x="688" y="-175" font-family="Helvetica,sans-Serif" font-size="10.00">FrameInterpolation</text>
<text text-anchor="middle" x="735" y="-164" font-family="Helvetica,sans-Serif" font-size="10.00">_RecordOpenChild</text>
</a>
</g>
</g>
<!-- Node17&#45;&gt;Node23 -->
<g id="edge24_Node000017_Node000023" class="edge">
<title>Node17&#45;&gt;Node23</title>
<g id="a_edge24_Node000017_Node000023"><a xlink:title=" ">
<path fill="none" stroke="#63b8ff" d="M644.37,-172C652.45,-172 661,-172 669.47,-172"/>
<polygon fill="#63b8ff" stroke="#63b8ff" points="669.74,-175.5 679.74,-172 669.74,-168.5 669.74,-175.5"/>
</a>
</g>
</g>
<!-- Node24 -->
<g id="Node000024" class="node">
<title>Node24</title>
<g id="a_Node000024"><a xlink:href="menu__items_8c.html#ae0fd5923ba70cf6939cd3fa8d09c1191" target="_top" xlink:title=" ">
<polygon fill="white" stroke="#666666" points="780.5,-276.5 689.5,-276.5 689.5,-257.5 780.5,-257.5 780.5,-276.5"/>
<text text-anchor="middle" x="735" y="-264.5" font-family="Helvetica,sans-Serif" font-size="10.00">func_800959F8</text>
</a>
</g>
</g>
<!-- Node17&#45;&gt;Node24 -->
<g id="edge26_Node000017_Node000024" class="edge">
<title>Node17&#45;&gt;Node24</title>
<g id="a_edge26_Node000017_Node000024"><a xlink:title=" ">
<path fill="none" stroke="#63b8ff" d="M610.7,-181.62C626.44,-193.91 654.8,-215.68 680,-233 689.31,-239.4 699.78,-246.1 709,-251.84"/>
<polygon fill="#63b8ff" stroke="#63b8ff" points="707.36,-254.95 717.71,-257.22 711.04,-248.99 707.36,-254.95"/>
</a>
</g>
</g>
<!-- Node26 -->
<g id="Node000026" class="node">
<title>Node26</title>
<g id="a_Node000026"><a xlink:href="stubs_8c.html#a8b417b868747c80d58f83d8a1e78ecf3" target="_top" xlink:title=" ">
<polygon fill="white" stroke="#666666" points="769,-224.5 701,-224.5 701,-205.5 769,-205.5 769,-224.5"/>
<text text-anchor="middle" x="735" y="-212.5" font-family="Helvetica,sans-Serif" font-size="10.00">rmonPrintf</text>
</a>
</g>
</g>
<!-- Node17&#45;&gt;Node26 -->
<g id="edge30_Node000017_Node000026" class="edge">
<title>Node17&#45;&gt;Node26</title>
<g id="a_edge30_Node000017_Node000026"><a xlink:title=" ">
<path fill="none" stroke="#63b8ff" d="M628.57,-181.54C647.96,-187.69 673.38,-195.76 694.4,-202.43"/>
<polygon fill="#63b8ff" stroke="#63b8ff" points="693.42,-205.79 704.01,-205.48 695.54,-199.12 693.42,-205.79"/>
</a>
</g>
</g>
<!-- Node39 -->
<g id="Node000039" class="node">
<title>Node39</title>
<g id="a_Node000039"><a xlink:href="Matrix_8cpp.html#a9818099a1ee20606a7d622e744846366" target="_top" xlink:title=" ">
<polygon fill="white" stroke="#666666" points="777,-67.5 693,-67.5 693,-48.5 777,-48.5 777,-67.5"/>
<text text-anchor="middle" x="735" y="-55.5" font-family="Helvetica,sans-Serif" font-size="10.00">SetTextMatrix</text>
</a>
</g>
</g>
<!-- Node17&#45;&gt;Node39 -->
<g id="edge46_Node000017_Node000039" class="edge">
<title>Node17&#45;&gt;Node39</title>
<g id="a_edge46_Node000017_Node000039"><a xlink:title=" ">
<path fill="none" stroke="#63b8ff" d="M610.05,-162.28C633.35,-142.68 686.19,-98.23 714.77,-74.18"/>
<polygon fill="#63b8ff" stroke="#63b8ff" points="717.08,-76.81 722.48,-67.69 712.57,-71.45 717.08,-76.81"/>
</a>
</g>
</g>
<!-- Node19 -->
<g id="Node000019" class="node">
<title>Node19</title>
<g id="a_Node000019"><a xlink:href="FrameInterpolation_8cpp.html#a8cf1f2d6fabc6925aa71a9515341b4aa" target="_top" xlink:title=" ">
<polygon fill="white" stroke="#666666" points="966,-106 826,-106 826,-76 966,-76 966,-106"/>
<text text-anchor="start" x="834" y="-94" font-family="Helvetica,sans-Serif" font-size="10.00">FrameInterpolation</text>
<text text-anchor="middle" x="896" y="-83" font-family="Helvetica,sans-Serif" font-size="10.00">_RecordMatrixMtxFToMtx</text>
</a>
</g>
</g>
<!-- Node18&#45;&gt;Node19 -->
<g id="edge19_Node000018_Node000019" class="edge">
<title>Node18&#45;&gt;Node19</title>
<g id="a_edge19_Node000018_Node000019"><a xlink:title=" ">
<path fill="none" stroke="#63b8ff" d="M776.12,-119.41C790.14,-116.06 806.34,-112.19 822.19,-108.4"/>
<polygon fill="#63b8ff" stroke="#63b8ff" points="823.08,-111.79 831.99,-106.06 821.45,-104.98 823.08,-111.79"/>
</a>
</g>
</g>
<!-- Node21 -->
<g id="Node000021" class="node">
<title>Node21</title>
<g id="a_Node000021"><a xlink:href="guMtxF2L_8c.html#a40ab2d64c609839ff1e0ef0de2d0dcc4" target="_top" xlink:title=" ">
<polygon fill="white" stroke="#666666" points="928.5,-143.5 863.5,-143.5 863.5,-124.5 928.5,-124.5 928.5,-143.5"/>
<text text-anchor="middle" x="896" y="-131.5" font-family="Helvetica,sans-Serif" font-size="10.00">guMtxF2L</text>
</a>
</g>
</g>
<!-- Node18&#45;&gt;Node21 -->
<g id="edge21_Node000018_Node000021" class="edge">
<title>Node18&#45;&gt;Node21</title>
<g id="a_edge21_Node000018_Node000021"><a xlink:title=" ">
<path fill="none" stroke="#63b8ff" d="M778.61,-130.34C801.74,-131.07 830.23,-131.96 853.23,-132.69"/>
<polygon fill="#63b8ff" stroke="#63b8ff" points="853.27,-136.19 863.38,-133.01 853.49,-129.19 853.27,-136.19"/>
</a>
</g>
</g>
<!-- Node20 -->
<g id="Node000020" class="node">
<title>Node20</title>
<g id="a_Node000020"><a xlink:href="FrameInterpolation_8cpp.html#a02c7ac5342a4d376edee38f312b480bf" target="_top" xlink:title=" ">
<polygon fill="white" stroke="#666666" points="1130.5,-76.5 1022.5,-76.5 1022.5,-57.5 1130.5,-57.5 1130.5,-76.5"/>
<text text-anchor="middle" x="1076.5" y="-64.5" font-family="Helvetica,sans-Serif" font-size="10.00">check_if_recording</text>
</a>
</g>
</g>
<!-- Node19&#45;&gt;Node20 -->
<g id="edge20_Node000019_Node000020" class="edge">
<title>Node19&#45;&gt;Node20</title>
<g id="a_edge20_Node000019_Node000020"><a xlink:title=" ">
<path fill="none" stroke="#63b8ff" d="M966.01,-81.72C981.24,-79.67 997.29,-77.52 1012.27,-75.5"/>
<polygon fill="#63b8ff" stroke="#63b8ff" points="1013.01,-78.93 1022.45,-74.13 1012.07,-72 1013.01,-78.93"/>
</a>
</g>
</g>
<!-- Node22&#45;&gt;Node20 -->
<g id="edge23_Node000022_Node000020" class="edge">
<title>Node22&#45;&gt;Node20</title>
<g id="a_edge23_Node000022_Node000020"><a xlink:title=" ">
<path fill="none" stroke="#63b8ff" d="M790.14,-9.99C837.19,-7.05 906.89,-6.08 966,-19 996.38,-25.64 1028.71,-40.95 1050.3,-52.51"/>
<polygon fill="#63b8ff" stroke="#63b8ff" points="1048.68,-55.61 1059.13,-57.35 1052.05,-49.48 1048.68,-55.61"/>
</a>
</g>
</g>
<!-- Node23&#45;&gt;Node20 -->
<g id="edge25_Node000023_Node000020" class="edge">
<title>Node23&#45;&gt;Node20</title>
<g id="a_edge25_Node000023_Node000020"><a xlink:title=" ">
<path fill="none" stroke="#63b8ff" d="M790.01,-175.76C837.9,-177.15 908.9,-174.37 966,-152 1004.38,-136.96 1040.41,-104 1060.07,-83.83"/>
<polygon fill="#63b8ff" stroke="#63b8ff" points="1062.64,-86.2 1066.99,-76.55 1057.57,-81.38 1062.64,-86.2"/>
</a>
</g>
</g>
<!-- Node24&#45;&gt;Node11 -->
<g id="edge27_Node000024_Node000011" class="edge">
<title>Node24&#45;&gt;Node11</title>
<g id="a_edge27_Node000024_Node000011"><a xlink:title=" ">
<path fill="none" stroke="#63b8ff" d="M758.7,-276.57C776.76,-284 802.76,-294.31 826,-302 832.97,-304.31 840.41,-306.57 847.72,-308.67"/>
<polygon fill="#63b8ff" stroke="#63b8ff" points="846.97,-312.1 857.55,-311.44 848.87,-305.36 846.97,-312.1"/>
</a>
</g>
</g>
<!-- Node25 -->
<g id="Node000025" class="node">
<title>Node25</title>
<g id="a_Node000025"><a xlink:href="GBIMiddleware_8cpp.html#aeef79449a27a710d73576e4a4f7f7f99" target="_top" xlink:title=" ">
<polygon fill="white" stroke="#666666" points="929,-293.5 863,-293.5 863,-274.5 929,-274.5 929,-293.5"/>
<text text-anchor="middle" x="896" y="-281.5" font-family="Helvetica,sans-Serif" font-size="10.00">gSPVertex</text>
</a>
</g>
</g>
<!-- Node24&#45;&gt;Node25 -->
<g id="edge28_Node000024_Node000025" class="edge">
<title>Node24&#45;&gt;Node25</title>
<g id="a_edge28_Node000024_Node000025"><a xlink:title=" ">
<path fill="none" stroke="#63b8ff" d="M780.71,-271.78C803.23,-274.19 830.39,-277.09 852.58,-279.46"/>
<polygon fill="#63b8ff" stroke="#63b8ff" points="852.4,-282.96 862.71,-280.55 853.14,-276 852.4,-282.96"/>
</a>
</g>
</g>
<!-- Node25&#45;&gt;Node12 -->
<g id="edge29_Node000025_Node000012" class="edge">
<title>Node25&#45;&gt;Node12</title>
<g id="a_edge29_Node000025_Node000012"><a xlink:title=" ">
<path fill="none" stroke="#63b8ff" d="M929.33,-284C946.92,-284 969.59,-284 991.8,-284"/>
<polygon fill="#63b8ff" stroke="#63b8ff" points="991.95,-287.5 1001.95,-284 991.95,-280.5 991.95,-287.5"/>
</a>
</g>
</g>
<!-- Node27 -->
<g id="Node000027" class="node">
<title>Node27</title>
<g id="a_Node000027"><a xlink:href="__Printf_8c.html#a39bb05c90efce6c6790c5d58d271d72d" target="_top" xlink:title=" ">
<polygon fill="white" stroke="#666666" points="920,-219.5 872,-219.5 872,-200.5 920,-200.5 920,-219.5"/>
<text text-anchor="middle" x="896" y="-207.5" font-family="Helvetica,sans-Serif" font-size="10.00">_Printf</text>
</a>
</g>
</g>
<!-- Node26&#45;&gt;Node27 -->
<g id="edge31_Node000026_Node000027" class="edge">
<title>Node26&#45;&gt;Node27</title>
<g id="a_edge31_Node000026_Node000027"><a xlink:title=" ">
<path fill="none" stroke="#63b8ff" d="M769.33,-213.95C796.5,-213.1 834.69,-211.9 861.82,-211.04"/>
<polygon fill="#63b8ff" stroke="#63b8ff" points="862.1,-214.54 871.99,-210.72 861.88,-207.54 862.1,-214.54"/>
</a>
</g>
</g>
<!-- Node38 -->
<g id="Node000038" class="node">
<title>Node38</title>
<g id="a_Node000038"><a xlink:href="is__debug_8c.html#aaccfac8d9098530b6592eefe679d86b4" target="_top" xlink:title=" ">
<polygon fill="white" stroke="#666666" points="948.5,-256.5 843.5,-256.5 843.5,-237.5 948.5,-237.5 948.5,-256.5"/>
<text text-anchor="middle" x="896" y="-244.5" font-family="Helvetica,sans-Serif" font-size="10.00">is_proutSyncPrintf</text>
</a>
</g>
</g>
<!-- Node26&#45;&gt;Node38 -->
<g id="edge45_Node000026_Node000038" class="edge">
<title>Node26&#45;&gt;Node38</title>
<g id="a_edge45_Node000026_Node000038"><a xlink:title=" ">
<path fill="none" stroke="#63b8ff" d="M769.33,-221.71C789.08,-225.68 814.65,-230.83 837.57,-235.44"/>
<polygon fill="#63b8ff" stroke="#63b8ff" points="837.04,-238.91 847.54,-237.45 838.43,-232.04 837.04,-238.91"/>
</a>
</g>
</g>
<!-- Node28 -->
<g id="Node000028" class="node">
<title>Node28</title>
<g id="a_Node000028"><a xlink:href="__Printf_8c.html#ad73a5847f2d7c9de14cc2723da86bf45" target="_top" xlink:title=" ">
<polygon fill="white" stroke="#666666" points="1101.5,-256.5 1051.5,-256.5 1051.5,-237.5 1101.5,-237.5 1101.5,-256.5"/>
<text text-anchor="middle" x="1076.5" y="-244.5" font-family="Helvetica,sans-Serif" font-size="10.00">_Putfld</text>
</a>
</g>
</g>
<!-- Node27&#45;&gt;Node28 -->
<g id="edge32_Node000027_Node000028" class="edge">
<title>Node27&#45;&gt;Node28</title>
<g id="a_edge32_Node000027_Node000028"><a xlink:title=" ">
<path fill="none" stroke="#63b8ff" d="M920.34,-214.84C951.21,-221.24 1005.87,-232.57 1041.39,-239.93"/>
<polygon fill="#63b8ff" stroke="#63b8ff" points="1040.8,-243.38 1051.3,-241.98 1042.22,-236.53 1040.8,-243.38"/>
</a>
</g>
</g>
<!-- Node37 -->
<g id="Node000037" class="node">
<title>Node37</title>
<g id="a_Node000037"><a xlink:href="string_8c.html#a988b4defe51a1815ef3b9ddab10e7a89" target="_top" xlink:title=" ">
<polygon fill="white" stroke="#666666" points="1098.5,-219.5 1054.5,-219.5 1054.5,-200.5 1098.5,-200.5 1098.5,-219.5"/>
<text text-anchor="middle" x="1076.5" y="-207.5" font-family="Helvetica,sans-Serif" font-size="10.00">strchr</text>
</a>
</g>
</g>
<!-- Node27&#45;&gt;Node37 -->
<g id="edge44_Node000027_Node000037" class="edge">
<title>Node27&#45;&gt;Node37</title>
<g id="a_edge44_Node000027_Node000037"><a xlink:title=" ">
<path fill="none" stroke="#63b8ff" d="M920.34,-210C952.02,-210 1008.76,-210 1044.14,-210"/>
<polygon fill="#63b8ff" stroke="#63b8ff" points="1044.38,-213.5 1054.38,-210 1044.38,-206.5 1044.38,-213.5"/>
</a>
</g>
</g>
<!-- Node28&#45;&gt;Node13 -->
<g id="edge43_Node000028_Node000013" class="edge">
<title>Node28&#45;&gt;Node13</title>
<g id="a_edge43_Node000028_Node000013"><a xlink:title=" ">
<path fill="none" stroke="#63b8ff" d="M1101.78,-252.5C1116.15,-255.87 1134.69,-260.4 1151,-265 1160.43,-267.66 1170.61,-270.8 1179.84,-273.76"/>
<polygon fill="#63b8ff" stroke="#63b8ff" points="1178.81,-277.11 1189.4,-276.87 1180.97,-270.45 1178.81,-277.11"/>
</a>
</g>
</g>
<!-- Node29 -->
<g id="Node000029" class="node">
<title>Node29</title>
<g id="a_Node000029"><a xlink:href="__Ldtob_8c.html#a7cc858157b66e15c831ad085113729ae" target="_top" xlink:title=" ">
<polygon fill="white" stroke="#666666" points="1236,-162.5 1187,-162.5 1187,-143.5 1236,-143.5 1236,-162.5"/>
<text text-anchor="middle" x="1211.5" y="-150.5" font-family="Helvetica,sans-Serif" font-size="10.00">_Ldtob</text>
</a>
</g>
</g>
<!-- Node28&#45;&gt;Node29 -->
<g id="edge33_Node000028_Node000029" class="edge">
<title>Node28&#45;&gt;Node29</title>
<g id="a_edge33_Node000028_Node000029"><a xlink:title=" ">
<path fill="none" stroke="#63b8ff" d="M1101.58,-244.73C1116.75,-242.38 1136.19,-237.63 1151,-228 1172.78,-213.84 1190.15,-189.01 1200.37,-171.82"/>
<polygon fill="#63b8ff" stroke="#63b8ff" points="1203.64,-173.14 1205.54,-162.72 1197.56,-169.68 1203.64,-173.14"/>
</a>
</g>
</g>
<!-- Node35 -->
<g id="Node000035" class="node">
<title>Node35</title>
<g id="a_Node000035"><a xlink:href="__Litob_8c.html#aaaba3b0ab7920d422a61fe9e22600dd0" target="_top" xlink:title=" ">
<polygon fill="white" stroke="#666666" points="1234.5,-256.5 1188.5,-256.5 1188.5,-237.5 1234.5,-237.5 1234.5,-256.5"/>
<text text-anchor="middle" x="1211.5" y="-244.5" font-family="Helvetica,sans-Serif" font-size="10.00">_Litob</text>
</a>
</g>
</g>
<!-- Node28&#45;&gt;Node35 -->
<g id="edge40_Node000028_Node000035" class="edge">
<title>Node28&#45;&gt;Node35</title>
<g id="a_edge40_Node000028_Node000035"><a xlink:title=" ">
<path fill="none" stroke="#63b8ff" d="M1101.59,-247C1123.01,-247 1154.51,-247 1178.13,-247"/>
<polygon fill="#63b8ff" stroke="#63b8ff" points="1178.36,-250.5 1188.36,-247 1178.36,-243.5 1178.36,-250.5"/>
</a>
</g>
</g>
<!-- Node30 -->
<g id="Node000030" class="node">
<title>Node30</title>
<g id="a_Node000030"><a xlink:href="__Ldtob_8c.html#a2b6c5318b43bab1636bad9113ffb2761" target="_top" xlink:title=" ">
<polygon fill="white" stroke="#666666" points="1332.5,-180.5 1282.5,-180.5 1282.5,-161.5 1332.5,-161.5 1332.5,-180.5"/>
<text text-anchor="middle" x="1307.5" y="-168.5" font-family="Helvetica,sans-Serif" font-size="10.00">_Genld</text>
</a>
</g>
</g>
<!-- Node29&#45;&gt;Node30 -->
<g id="edge34_Node000029_Node000030" class="edge">
<title>Node29&#45;&gt;Node30</title>
<g id="a_edge34_Node000029_Node000030"><a xlink:title=" ">
<path fill="none" stroke="#63b8ff" d="M1236.22,-157.54C1247.16,-159.64 1260.34,-162.16 1272.33,-164.46"/>
<polygon fill="#63b8ff" stroke="#63b8ff" points="1271.98,-167.95 1282.46,-166.4 1273.3,-161.08 1271.98,-167.95"/>
</a>
</g>
</g>
<!-- Node31 -->
<g id="Node000031" class="node">
<title>Node31</title>
<g id="a_Node000031"><a xlink:href="string_8c.html#ad7f1ae1bbb49dece44bda378982a704d" target="_top" xlink:title=" ">
<polygon fill="white" stroke="#666666" points="1438,-218.5 1379,-218.5 1379,-199.5 1438,-199.5 1438,-218.5"/>
<text text-anchor="middle" x="1408.5" y="-206.5" font-family="Helvetica,sans-Serif" font-size="10.00">memcpy</text>
</a>
</g>
</g>
<!-- Node29&#45;&gt;Node31 -->
<g id="edge38_Node000029_Node000031" class="edge">
<title>Node29&#45;&gt;Node31</title>
<g id="a_edge38_Node000029_Node000031"><a xlink:title=" ">
<path fill="none" stroke="#63b8ff" d="M1224.98,-162.59C1236.53,-170.96 1254.5,-182.71 1272,-189 1303.45,-200.31 1341.21,-205.23 1368.87,-207.37"/>
<polygon fill="#63b8ff" stroke="#63b8ff" points="1368.72,-210.87 1378.94,-208.06 1369.2,-203.88 1368.72,-210.87"/>
</a>
</g>
</g>
<!-- Node32 -->
<g id="Node000032" class="node">
<title>Node32</title>
<g id="a_Node000032"><a xlink:href="__Ldtob_8c.html#ab7ade9ce60aaa8baa0244b503351d742" target="_top" xlink:title=" ">
<polygon fill="white" stroke="#666666" points="1343,-143.5 1272,-143.5 1272,-124.5 1343,-124.5 1343,-143.5"/>
<text text-anchor="middle" x="1307.5" y="-131.5" font-family="Helvetica,sans-Serif" font-size="10.00">_Ldunscale</text>
</a>
</g>
</g>
<!-- Node29&#45;&gt;Node32 -->
<g id="edge36_Node000029_Node000032" class="edge">
<title>Node29&#45;&gt;Node32</title>
<g id="a_edge36_Node000029_Node000032"><a xlink:title=" ">
<path fill="none" stroke="#63b8ff" d="M1236.22,-148.21C1244.04,-146.62 1253.02,-144.81 1261.88,-143.02"/>
<polygon fill="#63b8ff" stroke="#63b8ff" points="1262.66,-146.43 1271.77,-141.02 1261.28,-139.57 1262.66,-146.43"/>
</a>
</g>
</g>
<!-- Node33 -->
<g id="Node000033" class="node">
<title>Node33</title>
<g id="a_Node000033"><a xlink:href="ldiv_8c.html#a0302920caf64a5fbe1ce0862799d7784" target="_top" xlink:title=" ">
<polygon fill="white" stroke="#666666" points="1325,-106.5 1290,-106.5 1290,-87.5 1325,-87.5 1325,-106.5"/>
<text text-anchor="middle" x="1307.5" y="-94.5" font-family="Helvetica,sans-Serif" font-size="10.00">ldiv</text>
</a>
</g>
</g>
<!-- Node29&#45;&gt;Node33 -->
<g id="edge37_Node000029_Node000033" class="edge">
<title>Node29&#45;&gt;Node33</title>
<g id="a_edge37_Node000029_Node000033"><a xlink:title=" ">
<path fill="none" stroke="#63b8ff" d="M1226.95,-143.27C1238.87,-135.37 1256.3,-124.09 1272,-115 1274.87,-113.34 1277.9,-111.66 1280.93,-110.02"/>
<polygon fill="#63b8ff" stroke="#63b8ff" points="1282.63,-113.08 1289.84,-105.32 1279.37,-106.89 1282.63,-113.08"/>
</a>
</g>
</g>
<!-- Node34 -->
<g id="Node000034" class="node">
<title>Node34</title>
<g id="a_Node000034"><a xlink:href="alBnkfNew_8c.html#a96a0200a6b40350e524f536d232ecb53" target="_top" xlink:title=" ">
<polygon fill="white" stroke="#666666" points="1333.5,-69.5 1281.5,-69.5 1281.5,-50.5 1333.5,-50.5 1333.5,-69.5"/>
<text text-anchor="middle" x="1307.5" y="-57.5" font-family="Helvetica,sans-Serif" font-size="10.00">unused</text>
</a>
</g>
</g>
<!-- Node29&#45;&gt;Node34 -->
<g id="edge39_Node000029_Node000034" class="edge">
<title>Node29&#45;&gt;Node34</title>
<g id="a_edge39_Node000029_Node000034"><a xlink:title=" ">
<path fill="none" stroke="#63b8ff" d="M1218.38,-143.16C1228,-127.7 1248.42,-97.48 1272,-78 1273.32,-76.91 1274.73,-75.85 1276.18,-74.84"/>
<polygon fill="#63b8ff" stroke="#63b8ff" points="1278.13,-77.74 1284.83,-69.53 1274.47,-71.78 1278.13,-77.74"/>
</a>
</g>
</g>
<!-- Node30&#45;&gt;Node31 -->
<g id="edge35_Node000030_Node000031" class="edge">
<title>Node30&#45;&gt;Node31</title>
<g id="a_edge35_Node000030_Node000031"><a xlink:title=" ">
<path fill="none" stroke="#63b8ff" d="M1332.72,-180.3C1344.88,-184.96 1359.82,-190.7 1373.15,-195.81"/>
<polygon fill="#63b8ff" stroke="#63b8ff" points="1371.91,-199.09 1382.5,-199.4 1374.42,-192.55 1371.91,-199.09"/>
</a>
</g>
</g>
<!-- Node35&#45;&gt;Node31 -->
<g id="edge42_Node000035_Node000031" class="edge">
<title>Node35&#45;&gt;Node31</title>
<g id="a_edge42_Node000035_Node000031"><a xlink:title=" ">
<path fill="none" stroke="#63b8ff" d="M1234.71,-243.14C1260.71,-238.56 1305.05,-230.61 1343,-223 1351.48,-221.3 1360.56,-219.39 1369.16,-217.53"/>
<polygon fill="#63b8ff" stroke="#63b8ff" points="1369.94,-220.95 1378.96,-215.4 1368.45,-214.11 1369.94,-220.95"/>
</a>
</g>
</g>
<!-- Node36 -->
<g id="Node000036" class="node">
<title>Node36</title>
<g id="a_Node000036"><a xlink:href="ldiv_8c.html#a5b23c3639f11980dca762c5f1d74f339" target="_top" xlink:title=" ">
<polygon fill="white" stroke="#666666" points="1326.5,-294.5 1288.5,-294.5 1288.5,-275.5 1326.5,-275.5 1326.5,-294.5"/>
<text text-anchor="middle" x="1307.5" y="-282.5" font-family="Helvetica,sans-Serif" font-size="10.00">lldiv</text>
</a>
</g>
</g>
<!-- Node35&#45;&gt;Node36 -->
<g id="edge41_Node000035_Node000036" class="edge">
<title>Node35&#45;&gt;Node36</title>
<g id="a_edge41_Node000035_Node000036"><a xlink:title=" ">
<path fill="none" stroke="#63b8ff" d="M1234.78,-256.01C1247.97,-261.34 1264.8,-268.14 1278.84,-273.82"/>
<polygon fill="#63b8ff" stroke="#63b8ff" points="1277.89,-277.21 1288.47,-277.71 1280.52,-270.72 1277.89,-277.21"/>
</a>
</g>
</g>
<!-- Node39&#45;&gt;Node39 -->
<g id="edge49_Node000039_Node000039" class="edge">
<title>Node39&#45;&gt;Node39</title>
<g id="a_edge49_Node000039_Node000039"><a xlink:title=" ">
<path fill="none" stroke="#63b8ff" d="M714.04,-67.58C703.84,-76.23 710.83,-85.5 735,-85.5 750.49,-85.5 758.92,-81.7 760.3,-76.69"/>
<polygon fill="#63b8ff" stroke="#63b8ff" points="763.42,-75.11 755.96,-67.58 757.1,-78.12 763.42,-75.11"/>
</a>
</g>
</g>
<!-- Node40 -->
<g id="Node000040" class="node">
<title>Node40</title>
<g id="a_Node000040"><a xlink:href="FrameInterpolation_8cpp.html#a5fbd67ef553452903cf553b9c224fa76" target="_top" xlink:title=" ">
<polygon fill="white" stroke="#666666" points="960,-58 832,-58 832,-28 960,-28 960,-58"/>
<text text-anchor="start" x="840" y="-46" font-family="Helvetica,sans-Serif" font-size="10.00">FrameInterpolation</text>
<text text-anchor="middle" x="896" y="-35" font-family="Helvetica,sans-Serif" font-size="10.00">_Record_SetTextMatrix</text>
</a>
</g>
</g>
<!-- Node39&#45;&gt;Node40 -->
<g id="edge47_Node000039_Node000040" class="edge">
<title>Node39&#45;&gt;Node40</title>
<g id="a_edge47_Node000039_Node000040"><a xlink:title=" ">
<path fill="none" stroke="#63b8ff" d="M777.36,-54.1C791.02,-52.81 806.65,-51.33 821.96,-49.89"/>
<polygon fill="#63b8ff" stroke="#63b8ff" points="822.33,-53.37 831.95,-48.95 821.67,-46.4 822.33,-53.37"/>
</a>
</g>
</g>
<!-- Node40&#45;&gt;Node20 -->
<g id="edge48_Node000040_Node000020" class="edge">
<title>Node40&#45;&gt;Node20</title>
<g id="a_edge48_Node000040_Node000020"><a xlink:title=" ">
<path fill="none" stroke="#63b8ff" d="M960.18,-51.5C977.04,-53.76 995.26,-56.21 1012.13,-58.48"/>
<polygon fill="#63b8ff" stroke="#63b8ff" points="1012.06,-62 1022.44,-59.87 1012.99,-55.06 1012.06,-62"/>
</a>
</g>
</g>
</g>
</svg>

<g id="navigator" transform="translate(0 0)" fill="#404254">
  <rect fill="#f2f5e9" fill-opacity="0.5" stroke="#606060" stroke-width=".5" x="0" y="0" width="60" height="60"/>
  <use id="zoomplus" xlink:href="#zoomPlus" x="17" y="9" onmousedown="handleZoom(evt,'in')"/>
  <use id="zoomminus" xlink:href="#zoomMin" x="42" y="9" onmousedown="handleZoom(evt,'out')"/>
  <use id="reset" xlink:href="#resetDef" x="30" y="36" onmousedown="handleReset()"/>
   <use id="arrowup" xlink:href="#arrowUp" x="0" y="0" onmousedown="handlePan(0,-1)"/>
  <use id="arrowright" xlink:href="#arrowRight" x="0" y="0" onmousedown="handlePan(1,0)"/>
  <use id="arrowdown" xlink:href="#arrowDown" x="0" y="0" onmousedown="handlePan(0,1)"/>
  <use id="arrowleft" xlink:href="#arrowLeft" x="0" y="0" onmousedown="handlePan(-1,0)"/>
</g>
<svg viewBox="0 0 15 15" width="100%" height="30px" preserveAspectRatio="xMaxYMin meet">
 <g id="arrow_out" transform="scale(0.3 0.3)">
  <a xlink:href="menu__items_8c_a523d548513c8b62d6eafe4b9c9781ed2_cgraph_org.svg" target="_base">
   <rect id="button" ry="5" rx="5" y="6" x="6" height="38" width="38"
        fill="#f2f5e9" fill-opacity="0.5" stroke="#606060" stroke-width="1.0"/>
   <path id="arrow"
     d="M 11.500037,31.436501 C 11.940474,20.09759 22.043105,11.32322 32.158766,21.979434 L 37.068811,17.246167 C 37.068811,17.246167 37.088388,32 37.088388,32 L 22.160133,31.978069 C 22.160133,31.978069 26.997745,27.140456 26.997745,27.140456 C 18.528582,18.264221 13.291696,25.230495 11.500037,31.436501 z"
     style="fill:#404040;"/>
  </a>
 </g>
</svg>

<style type='text/css'>
<![CDATA[
[data-mouse-over-selected='false'] { opacity: 0.7; }
[data-mouse-over-selected='true']  { opacity: 1.0; }
]]>
</style>
<script type="application/ecmascript"><![CDATA[
document.addEventListener('DOMContentLoaded', (event) => {
  highlightEdges();
  highlightAdjacentNodes();
});
]]></script>
</svg>
