<?xml version="1.0" encoding="UTF-8" standalone="no"?>
<!DOCTYPE svg PUBLIC "-//W3C//DTD SVG 1.1//EN"
 "http://www.w3.org/Graphics/SVG/1.1/DTD/svg11.dtd">
<!-- Generated by graphviz version 2.43.0 (0)
 -->
<!-- Title: include/assets/models/tracks/rainbow_road/rainbow_road_data.h Pages: 1 -->
<svg width="1855pt" height="291pt"
 viewBox="0.00 0.00 1854.50 291.00" xmlns="http://www.w3.org/2000/svg" xmlns:xlink="http://www.w3.org/1999/xlink">
<g id="graph0" class="graph" transform="scale(1 1) rotate(0) translate(4 287)">
<title>include/assets/models/tracks/rainbow_road/rainbow_road_data.h</title>
<!-- Node1 -->
<g id="Node000001" class="node">
<title>Node1</title>
<g id="a_Node000001"><a xlink:title=" ">
<polygon fill="#999999" stroke="#666666" points="1495,-283 1370,-283 1370,-242 1495,-242 1495,-283"/>
<text text-anchor="start" x="1378" y="-271" font-family="Helvetica,sans-Serif" font-size="10.00">include/assets/models</text>
<text text-anchor="start" x="1378" y="-260" font-family="Helvetica,sans-Serif" font-size="10.00">/tracks/rainbow_road</text>
<text text-anchor="middle" x="1432.5" y="-249" font-family="Helvetica,sans-Serif" font-size="10.00">/rainbow_road_data.h</text>
</a>
</g>
</g>
<!-- Node2 -->
<g id="Node000002" class="node">
<title>Node2</title>
<g id="a_Node000002"><a xlink:href="all__course__data_8h.html" target="_top" xlink:title=" ">
<polygon fill="white" stroke="#666666" points="810,-206 703,-206 703,-176 810,-176 810,-206"/>
<text text-anchor="start" x="711" y="-194" font-family="Helvetica,sans-Serif" font-size="10.00">courses/all_course</text>
<text text-anchor="middle" x="756.5" y="-183" font-family="Helvetica,sans-Serif" font-size="10.00">_data.h</text>
</a>
</g>
</g>
<!-- Node1&#45;&gt;Node2 -->
<g id="edge1_Node000001_Node000002" class="edge">
<title>Node1&#45;&gt;Node2</title>
<g id="a_edge1_Node000001_Node000002"><a xlink:title=" ">
<path fill="none" stroke="#63b8ff" d="M1359.85,-254.03C1223.16,-239.98 930.66,-209.91 810.12,-197.51"/>
<polygon fill="#63b8ff" stroke="#63b8ff" points="1359.51,-257.51 1369.81,-255.06 1360.22,-250.55 1359.51,-257.51"/>
</a>
</g>
</g>
<!-- Node16 -->
<g id="Node000016" class="node">
<title>Node16</title>
<g id="a_Node000016"><a xlink:href="rainbow__road_2course__offsets_8c.html" target="_top" xlink:title=" ">
<polygon fill="white" stroke="#666666" points="1362,-206 1239,-206 1239,-176 1362,-176 1362,-206"/>
<text text-anchor="start" x="1247" y="-194" font-family="Helvetica,sans-Serif" font-size="10.00">courses/rainbow_road</text>
<text text-anchor="middle" x="1300.5" y="-183" font-family="Helvetica,sans-Serif" font-size="10.00">/course_offsets.c</text>
</a>
</g>
</g>
<!-- Node1&#45;&gt;Node16 -->
<g id="edge17_Node000001_Node000016" class="edge">
<title>Node1&#45;&gt;Node16</title>
<g id="a_edge17_Node000001_Node000016"><a xlink:title=" ">
<path fill="none" stroke="#63b8ff" d="M1386.51,-237.28C1366.73,-226.87 1344.3,-215.06 1327.3,-206.11"/>
<polygon fill="#63b8ff" stroke="#63b8ff" points="1384.9,-240.39 1395.38,-241.96 1388.16,-234.2 1384.9,-240.39"/>
</a>
</g>
</g>
<!-- Node17 -->
<g id="Node000017" class="node">
<title>Node17</title>
<g id="a_Node000017"><a xlink:href="ChainChomp_8cpp.html" target="_top" xlink:title=" ">
<polygon fill="white" stroke="#666666" points="1485,-206 1380,-206 1380,-176 1485,-176 1485,-206"/>
<text text-anchor="start" x="1388" y="-194" font-family="Helvetica,sans-Serif" font-size="10.00">src/engine/objects</text>
<text text-anchor="middle" x="1432.5" y="-183" font-family="Helvetica,sans-Serif" font-size="10.00">/ChainChomp.cpp</text>
</a>
</g>
</g>
<!-- Node1&#45;&gt;Node17 -->
<g id="edge18_Node000001_Node000017" class="edge">
<title>Node1&#45;&gt;Node17</title>
<g id="a_edge18_Node000001_Node000017"><a xlink:title=" ">
<path fill="none" stroke="#63b8ff" d="M1432.5,-231.66C1432.5,-222.76 1432.5,-213.42 1432.5,-206.04"/>
<polygon fill="#63b8ff" stroke="#63b8ff" points="1429,-231.77 1432.5,-241.77 1436,-231.77 1429,-231.77"/>
</a>
</g>
</g>
<!-- Node18 -->
<g id="Node000018" class="node">
<title>Node18</title>
<g id="a_Node000018"><a xlink:href="RainbowRoad_8cpp.html" target="_top" xlink:title=" ">
<polygon fill="white" stroke="#666666" points="1637,-140 1492,-140 1492,-110 1637,-110 1637,-140"/>
<text text-anchor="start" x="1500" y="-128" font-family="Helvetica,sans-Serif" font-size="10.00">src/engine/tracks/Rainbow</text>
<text text-anchor="middle" x="1564.5" y="-117" font-family="Helvetica,sans-Serif" font-size="10.00">Road.cpp</text>
</a>
</g>
</g>
<!-- Node1&#45;&gt;Node18 -->
<g id="edge19_Node000001_Node000018" class="edge">
<title>Node1&#45;&gt;Node18</title>
<g id="a_edge19_Node000001_Node000018"><a xlink:title=" ">
<path fill="none" stroke="#63b8ff" d="M1463.04,-234.87C1472.97,-225.92 1483.89,-215.73 1493.5,-206 1515.29,-183.94 1538.87,-156.61 1552.62,-140.28"/>
<polygon fill="#63b8ff" stroke="#63b8ff" points="1460.46,-232.48 1455.34,-241.76 1465.13,-237.7 1460.46,-232.48"/>
</a>
</g>
</g>
<!-- Node19 -->
<g id="Node000019" class="node">
<title>Node19</title>
<g id="a_Node000019"><a xlink:href="RainbowRoad_8h.html" target="_top" xlink:title=" ">
<polygon fill="white" stroke="#666666" points="1687,-206 1542,-206 1542,-176 1687,-176 1687,-206"/>
<text text-anchor="start" x="1550" y="-194" font-family="Helvetica,sans-Serif" font-size="10.00">src/engine/tracks/Rainbow</text>
<text text-anchor="middle" x="1614.5" y="-183" font-family="Helvetica,sans-Serif" font-size="10.00">Road.h</text>
</a>
</g>
</g>
<!-- Node1&#45;&gt;Node19 -->
<g id="edge20_Node000001_Node000019" class="edge">
<title>Node1&#45;&gt;Node19</title>
<g id="a_edge20_Node000001_Node000019"><a xlink:title=" ">
<path fill="none" stroke="#63b8ff" d="M1493.38,-238.25C1521.37,-227.56 1553.64,-215.24 1577.83,-206"/>
<polygon fill="#63b8ff" stroke="#63b8ff" points="1491.77,-235.12 1483.68,-241.96 1494.27,-241.66 1491.77,-235.12"/>
</a>
</g>
</g>
<!-- Node3 -->
<g id="Node000003" class="node">
<title>Node3</title>
<g id="a_Node000003"><a xlink:href="paddle__boat_2render_8inc_8c.html" target="_top" xlink:title=" ">
<polygon fill="white" stroke="#666666" points="127,-140 0,-140 0,-110 127,-110 127,-140"/>
<text text-anchor="start" x="8" y="-128" font-family="Helvetica,sans-Serif" font-size="10.00">src/actors/paddle_boat</text>
<text text-anchor="middle" x="63.5" y="-117" font-family="Helvetica,sans-Serif" font-size="10.00">/render.inc.c</text>
</a>
</g>
</g>
<!-- Node2&#45;&gt;Node3 -->
<g id="edge2_Node000002_Node000003" class="edge">
<title>Node2&#45;&gt;Node3</title>
<g id="a_edge2_Node000002_Node000003"><a xlink:title=" ">
<path fill="none" stroke="#63b8ff" d="M692.74,-186.85C580.82,-180.86 341.86,-166.06 141.5,-140 136.86,-139.4 132.08,-138.71 127.27,-137.96"/>
<polygon fill="#63b8ff" stroke="#63b8ff" points="692.68,-190.35 702.85,-187.38 693.05,-183.36 692.68,-190.35"/>
</a>
</g>
</g>
<!-- Node4 -->
<g id="Node000004" class="node">
<title>Node4</title>
<g id="a_Node000004"><a xlink:href="actors_8c.html" target="_top" xlink:title=" ">
<polygon fill="white" stroke="#666666" points="208,-74 103,-74 103,-55 208,-55 208,-74"/>
<text text-anchor="middle" x="155.5" y="-62" font-family="Helvetica,sans-Serif" font-size="10.00">src/racing/actors.c</text>
</a>
</g>
</g>
<!-- Node2&#45;&gt;Node4 -->
<g id="edge13_Node000002_Node000004" class="edge">
<title>Node2&#45;&gt;Node4</title>
<g id="a_edge13_Node000002_Node000004"><a xlink:title=" ">
<path fill="none" stroke="#63b8ff" d="M692.25,-188.62C549.07,-184.95 213.31,-172.92 174.5,-140 154.95,-123.42 154.04,-89.81 154.8,-74.03"/>
<polygon fill="#63b8ff" stroke="#63b8ff" points="692.55,-192.13 702.63,-188.88 692.72,-185.13 692.55,-192.13"/>
</a>
</g>
</g>
<!-- Node5 -->
<g id="Node000005" class="node">
<title>Node5</title>
<g id="a_Node000005"><a xlink:href="trees_2render_8inc_8c.html" target="_top" xlink:title=" ">
<polygon fill="white" stroke="#666666" points="335,-134.5 184,-134.5 184,-115.5 335,-115.5 335,-134.5"/>
<text text-anchor="middle" x="259.5" y="-122.5" font-family="Helvetica,sans-Serif" font-size="10.00">src/actors/trees/render.inc.c</text>
</a>
</g>
</g>
<!-- Node2&#45;&gt;Node5 -->
<g id="edge4_Node000002_Node000005" class="edge">
<title>Node2&#45;&gt;Node5</title>
<g id="a_edge4_Node000002_Node000005"><a xlink:title=" ">
<path fill="none" stroke="#63b8ff" d="M692.87,-183.19C611.66,-174.29 466.9,-157.74 343.5,-140 332.09,-138.36 319.83,-136.42 308.3,-134.51"/>
<polygon fill="#63b8ff" stroke="#63b8ff" points="692.62,-186.68 702.94,-184.29 693.38,-179.72 692.62,-186.68"/>
</a>
</g>
</g>
<!-- Node6 -->
<g id="Node000006" class="node">
<title>Node6</title>
<g id="a_Node000006"><a xlink:href="code__800029B0_8c.html" target="_top" xlink:title=" ">
<polygon fill="white" stroke="#666666" points="472,-134.5 353,-134.5 353,-115.5 472,-115.5 472,-134.5"/>
<text text-anchor="middle" x="412.5" y="-122.5" font-family="Helvetica,sans-Serif" font-size="10.00">src/code_800029B0.c</text>
</a>
</g>
</g>
<!-- Node2&#45;&gt;Node6 -->
<g id="edge6_Node000002_Node000006" class="edge">
<title>Node2&#45;&gt;Node6</title>
<g id="a_edge6_Node000002_Node000006"><a xlink:title=" ">
<path fill="none" stroke="#63b8ff" d="M692.86,-178.81C637.08,-168.91 553.84,-153.91 481.5,-140 472.5,-138.27 462.85,-136.35 453.7,-134.5"/>
<polygon fill="#63b8ff" stroke="#63b8ff" points="692.49,-182.3 702.95,-180.6 693.71,-175.4 692.49,-182.3"/>
</a>
</g>
</g>
<!-- Node7 -->
<g id="Node000007" class="node">
<title>Node7</title>
<g id="a_Node000007"><a xlink:href="code__80005FD0_8c.html" target="_top" xlink:title=" ">
<polygon fill="white" stroke="#666666" points="610.5,-134.5 490.5,-134.5 490.5,-115.5 610.5,-115.5 610.5,-134.5"/>
<text text-anchor="middle" x="550.5" y="-122.5" font-family="Helvetica,sans-Serif" font-size="10.00">src/code_80005FD0.c</text>
</a>
</g>
</g>
<!-- Node2&#45;&gt;Node7 -->
<g id="edge7_Node000002_Node000007" class="edge">
<title>Node2&#45;&gt;Node7</title>
<g id="a_edge7_Node000002_Node000007"><a xlink:title=" ">
<path fill="none" stroke="#63b8ff" d="M701.69,-172.97C661.77,-160.57 609.38,-144.29 577.92,-134.52"/>
<polygon fill="#63b8ff" stroke="#63b8ff" points="700.7,-176.33 711.29,-175.95 702.78,-169.65 700.7,-176.33"/>
</a>
</g>
</g>
<!-- Node8 -->
<g id="Node000008" class="node">
<title>Node8</title>
<g id="a_Node000008"><a xlink:href="code__8006E9C0_8c.html" target="_top" xlink:title=" ">
<polygon fill="white" stroke="#666666" points="748,-134.5 629,-134.5 629,-115.5 748,-115.5 748,-134.5"/>
<text text-anchor="middle" x="688.5" y="-122.5" font-family="Helvetica,sans-Serif" font-size="10.00">src/code_8006E9C0.c</text>
</a>
</g>
</g>
<!-- Node2&#45;&gt;Node8 -->
<g id="edge8_Node000002_Node000008" class="edge">
<title>Node2&#45;&gt;Node8</title>
<g id="a_edge8_Node000002_Node000008"><a xlink:title=" ">
<path fill="none" stroke="#63b8ff" d="M734.12,-168.93C721.81,-157.35 707.21,-143.61 697.9,-134.84"/>
<polygon fill="#63b8ff" stroke="#63b8ff" points="731.73,-171.49 741.41,-175.8 736.53,-166.39 731.73,-171.49"/>
</a>
</g>
</g>
<!-- Node9 -->
<g id="Node000009" class="node">
<title>Node9</title>
<g id="a_Node000009"><a xlink:href="path__spawn__metadata_8c.html" target="_top" xlink:title=" ">
<polygon fill="white" stroke="#666666" points="883,-140 766,-140 766,-110 883,-110 883,-140"/>
<text text-anchor="start" x="774" y="-128" font-family="Helvetica,sans-Serif" font-size="10.00">src/data/path_spawn</text>
<text text-anchor="middle" x="824.5" y="-117" font-family="Helvetica,sans-Serif" font-size="10.00">_metadata.c</text>
</a>
</g>
</g>
<!-- Node2&#45;&gt;Node9 -->
<g id="edge9_Node000002_Node000009" class="edge">
<title>Node2&#45;&gt;Node9</title>
<g id="a_edge9_Node000002_Node000009"><a xlink:title=" ">
<path fill="none" stroke="#63b8ff" d="M778.89,-168.92C788.92,-159.49 800.48,-148.61 809.45,-140.16"/>
<polygon fill="#63b8ff" stroke="#63b8ff" points="776.47,-166.39 771.59,-175.8 781.27,-171.49 776.47,-166.39"/>
</a>
</g>
</g>
<!-- Node10 -->
<g id="Node000010" class="node">
<title>Node10</title>
<g id="a_Node000010"><a xlink:href="all__variables_8h.html" target="_top" xlink:title=" ">
<polygon fill="white" stroke="#666666" points="1039.5,-134.5 901.5,-134.5 901.5,-115.5 1039.5,-115.5 1039.5,-134.5"/>
<text text-anchor="middle" x="970.5" y="-122.5" font-family="Helvetica,sans-Serif" font-size="10.00">src/debug/all_variables.h</text>
</a>
</g>
</g>
<!-- Node2&#45;&gt;Node10 -->
<g id="edge10_Node000002_Node000010" class="edge">
<title>Node2&#45;&gt;Node10</title>
<g id="a_edge10_Node000002_Node000010"><a xlink:title=" ">
<path fill="none" stroke="#63b8ff" d="M813.18,-173.05C854.68,-160.64 909.27,-144.31 942.02,-134.52"/>
<polygon fill="#63b8ff" stroke="#63b8ff" points="812.04,-169.74 803.46,-175.95 814.05,-176.44 812.04,-169.74"/>
</a>
</g>
</g>
<!-- Node13 -->
<g id="Node000013" class="node">
<title>Node13</title>
<g id="a_Node000013"><a xlink:href="render__courses_8c.html" target="_top" xlink:title=" ">
<polygon fill="white" stroke="#666666" points="1207,-134.5 1058,-134.5 1058,-115.5 1207,-115.5 1207,-134.5"/>
<text text-anchor="middle" x="1132.5" y="-122.5" font-family="Helvetica,sans-Serif" font-size="10.00">src/racing/render_courses.c</text>
</a>
</g>
</g>
<!-- Node2&#45;&gt;Node13 -->
<g id="edge14_Node000002_Node000013" class="edge">
<title>Node2&#45;&gt;Node13</title>
<g id="a_edge14_Node000002_Node000013"><a xlink:title=" ">
<path fill="none" stroke="#63b8ff" d="M820.5,-179.11C894.5,-166.51 1014.77,-146.04 1082.33,-134.54"/>
<polygon fill="#63b8ff" stroke="#63b8ff" points="819.64,-175.7 810.37,-180.83 820.82,-182.6 819.64,-175.7"/>
</a>
</g>
</g>
<!-- Node14 -->
<g id="Node000014" class="node">
<title>Node14</title>
<g id="a_Node000014"><a xlink:href="render__objects_8c.html" target="_top" xlink:title=" ">
<polygon fill="white" stroke="#666666" points="1339.5,-134.5 1225.5,-134.5 1225.5,-115.5 1339.5,-115.5 1339.5,-134.5"/>
<text text-anchor="middle" x="1282.5" y="-122.5" font-family="Helvetica,sans-Serif" font-size="10.00">src/render_objects.c</text>
</a>
</g>
</g>
<!-- Node2&#45;&gt;Node14 -->
<g id="edge15_Node000002_Node000014" class="edge">
<title>Node2&#45;&gt;Node14</title>
<g id="a_edge15_Node000002_Node000014"><a xlink:title=" ">
<path fill="none" stroke="#63b8ff" d="M820.27,-185.03C909.16,-177.66 1075.19,-162.25 1215.5,-140 1225.01,-138.49 1235.2,-136.54 1244.71,-134.57"/>
<polygon fill="#63b8ff" stroke="#63b8ff" points="819.76,-181.56 810.08,-185.87 820.33,-188.54 819.76,-181.56"/>
</a>
</g>
</g>
<!-- Node15 -->
<g id="Node000015" class="node">
<title>Node15</title>
<g id="a_Node000015"><a xlink:href="update__objects_8c.html" target="_top" xlink:title=" ">
<polygon fill="white" stroke="#666666" points="1473.5,-134.5 1357.5,-134.5 1357.5,-115.5 1473.5,-115.5 1473.5,-134.5"/>
<text text-anchor="middle" x="1415.5" y="-122.5" font-family="Helvetica,sans-Serif" font-size="10.00">src/update_objects.c</text>
</a>
</g>
</g>
<!-- Node2&#45;&gt;Node15 -->
<g id="edge16_Node000002_Node000015" class="edge">
<title>Node2&#45;&gt;Node15</title>
<g id="a_edge16_Node000002_Node000015"><a xlink:title=" ">
<path fill="none" stroke="#63b8ff" d="M820.38,-187.16C929.22,-181.75 1157.43,-167.92 1348.5,-140 1358.38,-138.56 1368.99,-136.55 1378.78,-134.51"/>
<polygon fill="#63b8ff" stroke="#63b8ff" points="820.04,-183.67 810.22,-187.66 820.38,-190.66 820.04,-183.67"/>
</a>
</g>
</g>
<!-- Node3&#45;&gt;Node4 -->
<g id="edge3_Node000003_Node000004" class="edge">
<title>Node3&#45;&gt;Node4</title>
<g id="a_edge3_Node000003_Node000004"><a xlink:title=" ">
<path fill="none" stroke="#63b8ff" d="M94.4,-104.35C110.56,-94.07 129.52,-82.02 141.98,-74.09"/>
<polygon fill="#63b8ff" stroke="#63b8ff" points="92.33,-101.52 85.77,-109.84 96.09,-107.43 92.33,-101.52"/>
</a>
</g>
</g>
<!-- Node5&#45;&gt;Node4 -->
<g id="edge5_Node000005_Node000004" class="edge">
<title>Node5&#45;&gt;Node4</title>
<g id="a_edge5_Node000005_Node000004"><a xlink:title=" ">
<path fill="none" stroke="#63b8ff" d="M235.36,-110.42C215.49,-99.24 187.91,-83.73 170.91,-74.17"/>
<polygon fill="#63b8ff" stroke="#63b8ff" points="233.72,-113.52 244.15,-115.37 237.15,-107.41 233.72,-113.52"/>
</a>
</g>
</g>
<!-- Node11 -->
<g id="Node000011" class="node">
<title>Node11</title>
<g id="a_Node000011"><a xlink:href="debug_8inc_8c.html" target="_top" xlink:title=" ">
<polygon fill="white" stroke="#666666" points="1031.5,-74 909.5,-74 909.5,-55 1031.5,-55 1031.5,-74"/>
<text text-anchor="middle" x="970.5" y="-62" font-family="Helvetica,sans-Serif" font-size="10.00">src/debug/debug.inc.c</text>
</a>
</g>
</g>
<!-- Node10&#45;&gt;Node11 -->
<g id="edge11_Node000010_Node000011" class="edge">
<title>Node10&#45;&gt;Node11</title>
<g id="a_edge11_Node000010_Node000011"><a xlink:title=" ">
<path fill="none" stroke="#63b8ff" d="M970.5,-105.16C970.5,-94.74 970.5,-82.3 970.5,-74.17"/>
<polygon fill="#63b8ff" stroke="#63b8ff" points="967,-105.37 970.5,-115.37 974,-105.37 967,-105.37"/>
</a>
</g>
</g>
<!-- Node12 -->
<g id="Node000012" class="node">
<title>Node12</title>
<g id="a_Node000012"><a xlink:href="debug_8c.html" target="_top" xlink:title=" ">
<polygon fill="white" stroke="#666666" points="1023,-19 918,-19 918,0 1023,0 1023,-19"/>
<text text-anchor="middle" x="970.5" y="-7" font-family="Helvetica,sans-Serif" font-size="10.00">src/debug/debug.c</text>
</a>
</g>
</g>
<!-- Node11&#45;&gt;Node12 -->
<g id="edge12_Node000011_Node000012" class="edge">
<title>Node11&#45;&gt;Node12</title>
<g id="a_edge12_Node000011_Node000012"><a xlink:title=" ">
<path fill="none" stroke="#63b8ff" d="M970.5,-44.66C970.5,-35.93 970.5,-25.99 970.5,-19.09"/>
<polygon fill="#63b8ff" stroke="#63b8ff" points="967,-44.75 970.5,-54.75 974,-44.75 967,-44.75"/>
</a>
</g>
</g>
<!-- Node19&#45;&gt;Node18 -->
<g id="edge24_Node000019_Node000018" class="edge">
<title>Node19&#45;&gt;Node18</title>
<g id="a_edge24_Node000019_Node000018"><a xlink:title=" ">
<path fill="none" stroke="#63b8ff" d="M1597.16,-167.81C1590,-158.64 1581.9,-148.28 1575.57,-140.16"/>
<polygon fill="#63b8ff" stroke="#63b8ff" points="1594.49,-170.07 1603.4,-175.8 1600,-165.76 1594.49,-170.07"/>
</a>
</g>
</g>
<!-- Node20 -->
<g id="Node000020" class="node">
<title>Node20</title>
<g id="a_Node000020"><a xlink:href="AllTracks_8h.html" target="_top" xlink:title=" ">
<polygon fill="white" stroke="#666666" points="1777.5,-134.5 1655.5,-134.5 1655.5,-115.5 1777.5,-115.5 1777.5,-134.5"/>
<text text-anchor="middle" x="1716.5" y="-122.5" font-family="Helvetica,sans-Serif" font-size="10.00">src/engine/AllTracks.h</text>
</a>
</g>
</g>
<!-- Node19&#45;&gt;Node20 -->
<g id="edge21_Node000019_Node000020" class="edge">
<title>Node19&#45;&gt;Node20</title>
<g id="a_edge21_Node000019_Node000020"><a xlink:title=" ">
<path fill="none" stroke="#63b8ff" d="M1645.6,-170.49C1664.76,-158.46 1688.37,-143.65 1702.93,-134.52"/>
<polygon fill="#63b8ff" stroke="#63b8ff" points="1643.49,-167.68 1636.88,-175.95 1647.22,-173.6 1643.49,-167.68"/>
</a>
</g>
</g>
<!-- Node21 -->
<g id="Node000021" class="node">
<title>Node21</title>
<g id="a_Node000021"><a xlink:href="RegisterContent_8cpp.html" target="_top" xlink:title=" ">
<polygon fill="white" stroke="#666666" points="1723,-74 1554,-74 1554,-55 1723,-55 1723,-74"/>
<text text-anchor="middle" x="1638.5" y="-62" font-family="Helvetica,sans-Serif" font-size="10.00">src/engine/RegisterContent.cpp</text>
</a>
</g>
</g>
<!-- Node20&#45;&gt;Node21 -->
<g id="edge22_Node000020_Node000021" class="edge">
<title>Node20&#45;&gt;Node21</title>
<g id="a_edge22_Node000020_Node000021"><a xlink:title=" ">
<path fill="none" stroke="#63b8ff" d="M1696.96,-109.35C1682.19,-98.27 1662.4,-83.43 1650.06,-74.17"/>
<polygon fill="#63b8ff" stroke="#63b8ff" points="1694.89,-112.17 1704.99,-115.37 1699.09,-106.57 1694.89,-112.17"/>
</a>
</g>
</g>
<!-- Node22 -->
<g id="Node000022" class="node">
<title>Node22</title>
<g id="a_Node000022"><a xlink:href="Game_8cpp.html" target="_top" xlink:title=" ">
<polygon fill="white" stroke="#666666" points="1846.5,-74 1740.5,-74 1740.5,-55 1846.5,-55 1846.5,-74"/>
<text text-anchor="middle" x="1793.5" y="-62" font-family="Helvetica,sans-Serif" font-size="10.00">src/port/Game.cpp</text>
</a>
</g>
</g>
<!-- Node20&#45;&gt;Node22 -->
<g id="edge23_Node000020_Node000022" class="edge">
<title>Node20&#45;&gt;Node22</title>
<g id="a_edge23_Node000020_Node000022"><a xlink:title=" ">
<path fill="none" stroke="#63b8ff" d="M1736.19,-109.04C1750.73,-97.99 1770.02,-83.34 1782.09,-74.17"/>
<polygon fill="#63b8ff" stroke="#63b8ff" points="1733.71,-106.53 1727.86,-115.37 1737.94,-112.11 1733.71,-106.53"/>
</a>
</g>
</g>
</g>
</svg>
