<?xml version="1.0" encoding="UTF-8" standalone="no"?>
<!DOCTYPE svg PUBLIC "-//W3C//DTD SVG 1.1//EN"
 "http://www.w3.org/Graphics/SVG/1.1/DTD/svg11.dtd">
<!-- Generated by graphviz version 2.43.0 (0)
 -->
<!-- Title: include/assets/models/tracks/royal_raceway/royal_raceway_data.h Pages: 1 -->
<svg width="2076pt" height="291pt"
 viewBox="0.00 0.00 2075.50 291.00" xmlns="http://www.w3.org/2000/svg" xmlns:xlink="http://www.w3.org/1999/xlink">
<g id="graph0" class="graph" transform="scale(1 1) rotate(0) translate(4 287)">
<title>include/assets/models/tracks/royal_raceway/royal_raceway_data.h</title>
<!-- Node1 -->
<g id="Node000001" class="node">
<title>Node1</title>
<g id="a_Node000001"><a xlink:title=" ">
<polygon fill="#999999" stroke="#666666" points="1606,-283 1479,-283 1479,-242 1606,-242 1606,-283"/>
<text text-anchor="start" x="1487" y="-271" font-family="Helvetica,sans-Serif" font-size="10.00">include/assets/models</text>
<text text-anchor="start" x="1487" y="-260" font-family="Helvetica,sans-Serif" font-size="10.00">/tracks/royal_raceway</text>
<text text-anchor="middle" x="1542.5" y="-249" font-family="Helvetica,sans-Serif" font-size="10.00">/royal_raceway_data.h</text>
</a>
</g>
</g>
<!-- Node2 -->
<g id="Node000002" class="node">
<title>Node2</title>
<g id="a_Node000002"><a xlink:href="all__course__data_8h.html" target="_top" xlink:title=" ">
<polygon fill="white" stroke="#666666" points="891,-206 784,-206 784,-176 891,-176 891,-206"/>
<text text-anchor="start" x="792" y="-194" font-family="Helvetica,sans-Serif" font-size="10.00">courses/all_course</text>
<text text-anchor="middle" x="837.5" y="-183" font-family="Helvetica,sans-Serif" font-size="10.00">_data.h</text>
</a>
</g>
</g>
<!-- Node1&#45;&gt;Node2 -->
<g id="edge1_Node000001_Node000002" class="edge">
<title>Node1&#45;&gt;Node2</title>
<g id="a_edge1_Node000001_Node000002"><a xlink:title=" ">
<path fill="none" stroke="#63b8ff" d="M1468.73,-254.23C1326.26,-240.18 1016.33,-209.63 891.35,-197.31"/>
<polygon fill="#63b8ff" stroke="#63b8ff" points="1468.4,-257.71 1478.69,-255.21 1469.08,-250.75 1468.4,-257.71"/>
</a>
</g>
</g>
<!-- Node9 -->
<g id="Node000009" class="node">
<title>Node9</title>
<g id="a_Node000009"><a xlink:href="path__spawn__metadata_8c.html" target="_top" xlink:title=" ">
<polygon fill="white" stroke="#666666" points="1474,-140 1357,-140 1357,-110 1474,-110 1474,-140"/>
<text text-anchor="start" x="1365" y="-128" font-family="Helvetica,sans-Serif" font-size="10.00">src/data/path_spawn</text>
<text text-anchor="middle" x="1415.5" y="-117" font-family="Helvetica,sans-Serif" font-size="10.00">_metadata.c</text>
</a>
</g>
</g>
<!-- Node1&#45;&gt;Node9 -->
<g id="edge20_Node000001_Node000009" class="edge">
<title>Node1&#45;&gt;Node9</title>
<g id="a_edge20_Node000001_Node000009"><a xlink:title=" ">
<path fill="none" stroke="#63b8ff" d="M1468.57,-255.03C1403.56,-247.62 1316.03,-232.89 1294.5,-206 1270.57,-176.12 1317.71,-153.52 1359.97,-140.09"/>
<polygon fill="#63b8ff" stroke="#63b8ff" points="1468.47,-258.54 1478.8,-256.15 1469.24,-251.58 1468.47,-258.54"/>
</a>
</g>
</g>
<!-- Node16 -->
<g id="Node000016" class="node">
<title>Node16</title>
<g id="a_Node000016"><a xlink:href="royal__raceway_2course__offsets_8c.html" target="_top" xlink:title=" ">
<polygon fill="white" stroke="#666666" points="1431.5,-206 1303.5,-206 1303.5,-176 1431.5,-176 1431.5,-206"/>
<text text-anchor="start" x="1311.5" y="-194" font-family="Helvetica,sans-Serif" font-size="10.00">courses/royal_raceway</text>
<text text-anchor="middle" x="1367.5" y="-183" font-family="Helvetica,sans-Serif" font-size="10.00">/course_offsets.c</text>
</a>
</g>
</g>
<!-- Node1&#45;&gt;Node16 -->
<g id="edge17_Node000001_Node000016" class="edge">
<title>Node1&#45;&gt;Node16</title>
<g id="a_edge17_Node000001_Node000016"><a xlink:title=" ">
<path fill="none" stroke="#63b8ff" d="M1483.96,-238.25C1457.05,-227.56 1426.02,-215.24 1402.76,-206"/>
<polygon fill="#63b8ff" stroke="#63b8ff" points="1482.7,-241.52 1493.29,-241.96 1485.29,-235.01 1482.7,-241.52"/>
</a>
</g>
</g>
<!-- Node17 -->
<g id="Node000017" class="node">
<title>Node17</title>
<g id="a_Node000017"><a xlink:href="piranha__plant_2render_8inc_8c.html" target="_top" xlink:title=" ">
<polygon fill="white" stroke="#666666" points="1555.5,-206 1449.5,-206 1449.5,-176 1555.5,-176 1555.5,-206"/>
<text text-anchor="start" x="1457.5" y="-194" font-family="Helvetica,sans-Serif" font-size="10.00">src/actors/piranha</text>
<text text-anchor="middle" x="1502.5" y="-183" font-family="Helvetica,sans-Serif" font-size="10.00">_plant/render.inc.c</text>
</a>
</g>
</g>
<!-- Node1&#45;&gt;Node17 -->
<g id="edge18_Node000001_Node000017" class="edge">
<title>Node1&#45;&gt;Node17</title>
<g id="a_edge18_Node000001_Node000017"><a xlink:title=" ">
<path fill="none" stroke="#63b8ff" d="M1526,-232.82C1520.67,-223.58 1515.01,-213.74 1510.58,-206.04"/>
<polygon fill="#63b8ff" stroke="#63b8ff" points="1523.12,-234.85 1531.14,-241.77 1529.19,-231.36 1523.12,-234.85"/>
</a>
</g>
</g>
<!-- Node18 -->
<g id="Node000018" class="node">
<title>Node18</title>
<g id="a_Node000018"><a xlink:href="PodiumCeremony_8cpp.html" target="_top" xlink:title=" ">
<polygon fill="white" stroke="#666666" points="1679.5,-140 1539.5,-140 1539.5,-110 1679.5,-110 1679.5,-140"/>
<text text-anchor="start" x="1547.5" y="-128" font-family="Helvetica,sans-Serif" font-size="10.00">src/engine/tracks/Podium</text>
<text text-anchor="middle" x="1609.5" y="-117" font-family="Helvetica,sans-Serif" font-size="10.00">Ceremony.cpp</text>
</a>
</g>
</g>
<!-- Node1&#45;&gt;Node18 -->
<g id="edge21_Node000001_Node000018" class="edge">
<title>Node1&#45;&gt;Node18</title>
<g id="a_edge21_Node000001_Node000018"><a xlink:title=" ">
<path fill="none" stroke="#63b8ff" d="M1556.71,-232.76C1570.73,-204.4 1591.59,-162.21 1602.42,-140.33"/>
<polygon fill="#63b8ff" stroke="#63b8ff" points="1553.54,-231.28 1552.24,-241.8 1559.81,-234.38 1553.54,-231.28"/>
</a>
</g>
</g>
<!-- Node19 -->
<g id="Node000019" class="node">
<title>Node19</title>
<g id="a_Node000019"><a xlink:href="PodiumCeremony_8h.html" target="_top" xlink:title=" ">
<polygon fill="white" stroke="#666666" points="1751.5,-206 1611.5,-206 1611.5,-176 1751.5,-176 1751.5,-206"/>
<text text-anchor="start" x="1619.5" y="-194" font-family="Helvetica,sans-Serif" font-size="10.00">src/engine/tracks/Podium</text>
<text text-anchor="middle" x="1681.5" y="-183" font-family="Helvetica,sans-Serif" font-size="10.00">Ceremony.h</text>
</a>
</g>
</g>
<!-- Node1&#45;&gt;Node19 -->
<g id="edge22_Node000001_Node000019" class="edge">
<title>Node1&#45;&gt;Node19</title>
<g id="a_edge22_Node000001_Node000019"><a xlink:title=" ">
<path fill="none" stroke="#63b8ff" d="M1590.65,-237.42C1611.55,-226.98 1635.3,-215.1 1653.27,-206.11"/>
<polygon fill="#63b8ff" stroke="#63b8ff" points="1588.97,-234.35 1581.59,-241.96 1592.1,-240.61 1588.97,-234.35"/>
</a>
</g>
</g>
<!-- Node21 -->
<g id="Node000021" class="node">
<title>Node21</title>
<g id="a_Node000021"><a xlink:href="RoyalRaceway_8cpp.html" target="_top" xlink:title=" ">
<polygon fill="white" stroke="#666666" points="2067.5,-134.5 1873.5,-134.5 1873.5,-115.5 2067.5,-115.5 2067.5,-134.5"/>
<text text-anchor="middle" x="1970.5" y="-122.5" font-family="Helvetica,sans-Serif" font-size="10.00">src/engine/tracks/RoyalRaceway.cpp</text>
</a>
</g>
</g>
<!-- Node1&#45;&gt;Node21 -->
<g id="edge25_Node000001_Node000021" class="edge">
<title>Node1&#45;&gt;Node21</title>
<g id="a_edge25_Node000001_Node000021"><a xlink:title=" ">
<path fill="none" stroke="#63b8ff" d="M1616.39,-262.11C1723.36,-261.33 1913.73,-253.13 1960.5,-206 1979.43,-186.92 1975.59,-151.46 1972.49,-134.92"/>
<polygon fill="#63b8ff" stroke="#63b8ff" points="1616.28,-258.61 1606.3,-262.17 1616.32,-265.61 1616.28,-258.61"/>
</a>
</g>
</g>
<!-- Node22 -->
<g id="Node000022" class="node">
<title>Node22</title>
<g id="a_Node000022"><a xlink:href="RoyalRaceway_8h.html" target="_top" xlink:title=" ">
<polygon fill="white" stroke="#666666" points="1951.5,-200.5 1769.5,-200.5 1769.5,-181.5 1951.5,-181.5 1951.5,-200.5"/>
<text text-anchor="middle" x="1860.5" y="-188.5" font-family="Helvetica,sans-Serif" font-size="10.00">src/engine/tracks/RoyalRaceway.h</text>
</a>
</g>
</g>
<!-- Node1&#45;&gt;Node22 -->
<g id="edge26_Node000001_Node000022" class="edge">
<title>Node1&#45;&gt;Node22</title>
<g id="a_edge26_Node000001_Node000022"><a xlink:title=" ">
<path fill="none" stroke="#63b8ff" d="M1616.14,-245.41C1680.21,-231.4 1770.58,-211.65 1821.56,-200.51"/>
<polygon fill="#63b8ff" stroke="#63b8ff" points="1615.11,-242.05 1606.09,-247.6 1616.6,-248.89 1615.11,-242.05"/>
</a>
</g>
</g>
<!-- Node3 -->
<g id="Node000003" class="node">
<title>Node3</title>
<g id="a_Node000003"><a xlink:href="paddle__boat_2render_8inc_8c.html" target="_top" xlink:title=" ">
<polygon fill="white" stroke="#666666" points="855,-140 728,-140 728,-110 855,-110 855,-140"/>
<text text-anchor="start" x="736" y="-128" font-family="Helvetica,sans-Serif" font-size="10.00">src/actors/paddle_boat</text>
<text text-anchor="middle" x="791.5" y="-117" font-family="Helvetica,sans-Serif" font-size="10.00">/render.inc.c</text>
</a>
</g>
</g>
<!-- Node2&#45;&gt;Node3 -->
<g id="edge2_Node000002_Node000003" class="edge">
<title>Node2&#45;&gt;Node3</title>
<g id="a_edge2_Node000002_Node000003"><a xlink:title=" ">
<path fill="none" stroke="#63b8ff" d="M821.35,-167.53C814.81,-158.43 807.45,-148.19 801.68,-140.16"/>
<polygon fill="#63b8ff" stroke="#63b8ff" points="818.61,-169.72 827.29,-175.8 824.3,-165.63 818.61,-169.72"/>
</a>
</g>
</g>
<!-- Node4 -->
<g id="Node000004" class="node">
<title>Node4</title>
<g id="a_Node000004"><a xlink:href="actors_8c.html" target="_top" xlink:title=" ">
<polygon fill="white" stroke="#666666" points="988,-74 883,-74 883,-55 988,-55 988,-74"/>
<text text-anchor="middle" x="935.5" y="-62" font-family="Helvetica,sans-Serif" font-size="10.00">src/racing/actors.c</text>
</a>
</g>
</g>
<!-- Node2&#45;&gt;Node4 -->
<g id="edge13_Node000002_Node000004" class="edge">
<title>Node2&#45;&gt;Node4</title>
<g id="a_edge13_Node000002_Node000004"><a xlink:title=" ">
<path fill="none" stroke="#63b8ff" d="M855.06,-167.69C877.07,-139.73 913.72,-93.17 928.75,-74.07"/>
<polygon fill="#63b8ff" stroke="#63b8ff" points="852.18,-165.7 848.74,-175.72 857.68,-170.03 852.18,-165.7"/>
</a>
</g>
</g>
<!-- Node5 -->
<g id="Node000005" class="node">
<title>Node5</title>
<g id="a_Node000005"><a xlink:href="trees_2render_8inc_8c.html" target="_top" xlink:title=" ">
<polygon fill="white" stroke="#666666" points="1063,-134.5 912,-134.5 912,-115.5 1063,-115.5 1063,-134.5"/>
<text text-anchor="middle" x="987.5" y="-122.5" font-family="Helvetica,sans-Serif" font-size="10.00">src/actors/trees/render.inc.c</text>
</a>
</g>
</g>
<!-- Node2&#45;&gt;Node5 -->
<g id="edge4_Node000002_Node000005" class="edge">
<title>Node2&#45;&gt;Node5</title>
<g id="a_edge4_Node000002_Node000005"><a xlink:title=" ">
<path fill="none" stroke="#63b8ff" d="M879.83,-171.94C908.56,-159.68 945.26,-144.02 967.54,-134.52"/>
<polygon fill="#63b8ff" stroke="#63b8ff" points="878.24,-168.81 870.42,-175.95 880.99,-175.25 878.24,-168.81"/>
</a>
</g>
</g>
<!-- Node6 -->
<g id="Node000006" class="node">
<title>Node6</title>
<g id="a_Node000006"><a xlink:href="code__800029B0_8c.html" target="_top" xlink:title=" ">
<polygon fill="white" stroke="#666666" points="1200,-134.5 1081,-134.5 1081,-115.5 1200,-115.5 1200,-134.5"/>
<text text-anchor="middle" x="1140.5" y="-122.5" font-family="Helvetica,sans-Serif" font-size="10.00">src/code_800029B0.c</text>
</a>
</g>
</g>
<!-- Node2&#45;&gt;Node6 -->
<g id="edge6_Node000002_Node000006" class="edge">
<title>Node2&#45;&gt;Node6</title>
<g id="a_edge6_Node000002_Node000006"><a xlink:title=" ">
<path fill="none" stroke="#63b8ff" d="M901.45,-176.49C961.48,-163.81 1049.45,-145.23 1100.24,-134.5"/>
<polygon fill="#63b8ff" stroke="#63b8ff" points="900.38,-173.14 891.32,-178.63 901.83,-179.99 900.38,-173.14"/>
</a>
</g>
</g>
<!-- Node7 -->
<g id="Node000007" class="node">
<title>Node7</title>
<g id="a_Node000007"><a xlink:href="code__80005FD0_8c.html" target="_top" xlink:title=" ">
<polygon fill="white" stroke="#666666" points="1338.5,-134.5 1218.5,-134.5 1218.5,-115.5 1338.5,-115.5 1338.5,-134.5"/>
<text text-anchor="middle" x="1278.5" y="-122.5" font-family="Helvetica,sans-Serif" font-size="10.00">src/code_80005FD0.c</text>
</a>
</g>
</g>
<!-- Node2&#45;&gt;Node7 -->
<g id="edge7_Node000002_Node000007" class="edge">
<title>Node2&#45;&gt;Node7</title>
<g id="a_edge7_Node000002_Node000007"><a xlink:title=" ">
<path fill="none" stroke="#63b8ff" d="M901.21,-182.66C975.26,-173.84 1101.05,-157.97 1208.5,-140 1218.16,-138.39 1228.52,-136.43 1238.23,-134.51"/>
<polygon fill="#63b8ff" stroke="#63b8ff" points="900.63,-179.2 891.11,-183.86 901.45,-186.16 900.63,-179.2"/>
</a>
</g>
</g>
<!-- Node8 -->
<g id="Node000008" class="node">
<title>Node8</title>
<g id="a_Node000008"><a xlink:href="code__8006E9C0_8c.html" target="_top" xlink:title=" ">
<polygon fill="white" stroke="#666666" points="119,-134.5 0,-134.5 0,-115.5 119,-115.5 119,-134.5"/>
<text text-anchor="middle" x="59.5" y="-122.5" font-family="Helvetica,sans-Serif" font-size="10.00">src/code_8006E9C0.c</text>
</a>
</g>
</g>
<!-- Node2&#45;&gt;Node8 -->
<g id="edge8_Node000002_Node000008" class="edge">
<title>Node2&#45;&gt;Node8</title>
<g id="a_edge8_Node000002_Node000008"><a xlink:title=" ">
<path fill="none" stroke="#63b8ff" d="M773.77,-188.28C649.26,-184.3 365.16,-172.22 128.5,-140 118.21,-138.6 107.14,-136.58 96.95,-134.52"/>
<polygon fill="#63b8ff" stroke="#63b8ff" points="773.79,-191.78 783.89,-188.59 774.01,-184.78 773.79,-191.78"/>
</a>
</g>
</g>
<!-- Node2&#45;&gt;Node9 -->
<g id="edge9_Node000002_Node000009" class="edge">
<title>Node2&#45;&gt;Node9</title>
<g id="a_edge9_Node000002_Node000009"><a xlink:title=" ">
<path fill="none" stroke="#63b8ff" d="M901.55,-185.9C998.45,-179.2 1187.95,-164.18 1347.5,-140 1350.6,-139.53 1353.77,-139.01 1356.96,-138.46"/>
<polygon fill="#63b8ff" stroke="#63b8ff" points="901.07,-182.42 891.33,-186.59 901.55,-189.4 901.07,-182.42"/>
</a>
</g>
</g>
<!-- Node10 -->
<g id="Node000010" class="node">
<title>Node10</title>
<g id="a_Node000010"><a xlink:href="all__variables_8h.html" target="_top" xlink:title=" ">
<polygon fill="white" stroke="#666666" points="275.5,-134.5 137.5,-134.5 137.5,-115.5 275.5,-115.5 275.5,-134.5"/>
<text text-anchor="middle" x="206.5" y="-122.5" font-family="Helvetica,sans-Serif" font-size="10.00">src/debug/all_variables.h</text>
</a>
</g>
</g>
<!-- Node2&#45;&gt;Node10 -->
<g id="edge10_Node000002_Node000010" class="edge">
<title>Node2&#45;&gt;Node10</title>
<g id="a_edge10_Node000002_Node000010"><a xlink:title=" ">
<path fill="none" stroke="#63b8ff" d="M773.7,-186.05C670.55,-179.26 460.91,-163.76 284.5,-140 273.32,-138.49 261.3,-136.52 250.12,-134.52"/>
<polygon fill="#63b8ff" stroke="#63b8ff" points="773.74,-189.56 783.94,-186.72 774.19,-182.58 773.74,-189.56"/>
</a>
</g>
</g>
<!-- Node13 -->
<g id="Node000013" class="node">
<title>Node13</title>
<g id="a_Node000013"><a xlink:href="render__courses_8c.html" target="_top" xlink:title=" ">
<polygon fill="white" stroke="#666666" points="443,-134.5 294,-134.5 294,-115.5 443,-115.5 443,-134.5"/>
<text text-anchor="middle" x="368.5" y="-122.5" font-family="Helvetica,sans-Serif" font-size="10.00">src/racing/render_courses.c</text>
</a>
</g>
</g>
<!-- Node2&#45;&gt;Node13 -->
<g id="edge14_Node000002_Node000013" class="edge">
<title>Node2&#45;&gt;Node13</title>
<g id="a_edge14_Node000002_Node000013"><a xlink:title=" ">
<path fill="none" stroke="#63b8ff" d="M773.9,-182.45C697.49,-173.22 565.44,-156.74 452.5,-140 441.24,-138.33 429.15,-136.4 417.76,-134.51"/>
<polygon fill="#63b8ff" stroke="#63b8ff" points="773.51,-185.93 783.85,-183.65 774.34,-178.98 773.51,-185.93"/>
</a>
</g>
</g>
<!-- Node14 -->
<g id="Node000014" class="node">
<title>Node14</title>
<g id="a_Node000014"><a xlink:href="render__objects_8c.html" target="_top" xlink:title=" ">
<polygon fill="white" stroke="#666666" points="575.5,-134.5 461.5,-134.5 461.5,-115.5 575.5,-115.5 575.5,-134.5"/>
<text text-anchor="middle" x="518.5" y="-122.5" font-family="Helvetica,sans-Serif" font-size="10.00">src/render_objects.c</text>
</a>
</g>
</g>
<!-- Node2&#45;&gt;Node14 -->
<g id="edge15_Node000002_Node000014" class="edge">
<title>Node2&#45;&gt;Node14</title>
<g id="a_edge15_Node000002_Node000014"><a xlink:title=" ">
<path fill="none" stroke="#63b8ff" d="M773.73,-177.65C722.54,-167.68 648.85,-153.18 584.5,-140 576.01,-138.26 566.91,-136.36 558.27,-134.53"/>
<polygon fill="#63b8ff" stroke="#63b8ff" points="773.18,-181.11 783.66,-179.58 774.51,-174.24 773.18,-181.11"/>
</a>
</g>
</g>
<!-- Node15 -->
<g id="Node000015" class="node">
<title>Node15</title>
<g id="a_Node000015"><a xlink:href="update__objects_8c.html" target="_top" xlink:title=" ">
<polygon fill="white" stroke="#666666" points="709.5,-134.5 593.5,-134.5 593.5,-115.5 709.5,-115.5 709.5,-134.5"/>
<text text-anchor="middle" x="651.5" y="-122.5" font-family="Helvetica,sans-Serif" font-size="10.00">src/update_objects.c</text>
</a>
</g>
</g>
<!-- Node2&#45;&gt;Node15 -->
<g id="edge16_Node000002_Node000015" class="edge">
<title>Node2&#45;&gt;Node15</title>
<g id="a_edge16_Node000002_Node000015"><a xlink:title=" ">
<path fill="none" stroke="#63b8ff" d="M786.86,-172.58C750.97,-160.23 704.36,-144.19 676.25,-134.52"/>
<polygon fill="#63b8ff" stroke="#63b8ff" points="786.09,-176.01 796.68,-175.95 788.36,-169.39 786.09,-176.01"/>
</a>
</g>
</g>
<!-- Node3&#45;&gt;Node4 -->
<g id="edge3_Node000003_Node000004" class="edge">
<title>Node3&#45;&gt;Node4</title>
<g id="a_edge3_Node000003_Node000004"><a xlink:title=" ">
<path fill="none" stroke="#63b8ff" d="M835.33,-106.19C861.49,-95.57 893.55,-82.54 914.23,-74.14"/>
<polygon fill="#63b8ff" stroke="#63b8ff" points="833.94,-102.98 825.99,-109.99 836.57,-109.47 833.94,-102.98"/>
</a>
</g>
</g>
<!-- Node5&#45;&gt;Node4 -->
<g id="edge5_Node000005_Node000004" class="edge">
<title>Node5&#45;&gt;Node4</title>
<g id="a_edge5_Node000005_Node000004"><a xlink:title=" ">
<path fill="none" stroke="#63b8ff" d="M973.07,-107.77C963.4,-96.89 951.05,-82.99 943.2,-74.17"/>
<polygon fill="#63b8ff" stroke="#63b8ff" points="970.57,-110.22 979.83,-115.37 975.8,-105.57 970.57,-110.22"/>
</a>
</g>
</g>
<!-- Node11 -->
<g id="Node000011" class="node">
<title>Node11</title>
<g id="a_Node000011"><a xlink:href="debug_8inc_8c.html" target="_top" xlink:title=" ">
<polygon fill="white" stroke="#666666" points="267.5,-74 145.5,-74 145.5,-55 267.5,-55 267.5,-74"/>
<text text-anchor="middle" x="206.5" y="-62" font-family="Helvetica,sans-Serif" font-size="10.00">src/debug/debug.inc.c</text>
</a>
</g>
</g>
<!-- Node10&#45;&gt;Node11 -->
<g id="edge11_Node000010_Node000011" class="edge">
<title>Node10&#45;&gt;Node11</title>
<g id="a_edge11_Node000010_Node000011"><a xlink:title=" ">
<path fill="none" stroke="#63b8ff" d="M206.5,-105.16C206.5,-94.74 206.5,-82.3 206.5,-74.17"/>
<polygon fill="#63b8ff" stroke="#63b8ff" points="203,-105.37 206.5,-115.37 210,-105.37 203,-105.37"/>
</a>
</g>
</g>
<!-- Node12 -->
<g id="Node000012" class="node">
<title>Node12</title>
<g id="a_Node000012"><a xlink:href="debug_8c.html" target="_top" xlink:title=" ">
<polygon fill="white" stroke="#666666" points="259,-19 154,-19 154,0 259,0 259,-19"/>
<text text-anchor="middle" x="206.5" y="-7" font-family="Helvetica,sans-Serif" font-size="10.00">src/debug/debug.c</text>
</a>
</g>
</g>
<!-- Node11&#45;&gt;Node12 -->
<g id="edge12_Node000011_Node000012" class="edge">
<title>Node11&#45;&gt;Node12</title>
<g id="a_edge12_Node000011_Node000012"><a xlink:title=" ">
<path fill="none" stroke="#63b8ff" d="M206.5,-44.66C206.5,-35.93 206.5,-25.99 206.5,-19.09"/>
<polygon fill="#63b8ff" stroke="#63b8ff" points="203,-44.75 206.5,-54.75 210,-44.75 203,-44.75"/>
</a>
</g>
</g>
<!-- Node17&#45;&gt;Node4 -->
<g id="edge19_Node000017_Node000004" class="edge">
<title>Node17&#45;&gt;Node4</title>
<g id="a_edge19_Node000017_Node000004"><a xlink:title=" ">
<path fill="none" stroke="#63b8ff" d="M1503.42,-165.72C1502.68,-147.51 1498.4,-123.48 1482.5,-110 1445.31,-78.45 1117.7,-68.9 988.02,-66.34"/>
<polygon fill="#63b8ff" stroke="#63b8ff" points="1499.92,-165.94 1503.5,-175.91 1506.92,-165.88 1499.92,-165.94"/>
</a>
</g>
</g>
<!-- Node19&#45;&gt;Node18 -->
<g id="edge23_Node000019_Node000018" class="edge">
<title>Node19&#45;&gt;Node18</title>
<g id="a_edge23_Node000019_Node000018"><a xlink:title=" ">
<path fill="none" stroke="#63b8ff" d="M1657.79,-168.92C1647.17,-159.49 1634.93,-148.61 1625.43,-140.16"/>
<polygon fill="#63b8ff" stroke="#63b8ff" points="1655.72,-171.77 1665.52,-175.8 1660.37,-166.54 1655.72,-171.77"/>
</a>
</g>
</g>
<!-- Node20 -->
<g id="Node000020" class="node">
<title>Node20</title>
<g id="a_Node000020"><a xlink:href="Game_8cpp.html" target="_top" xlink:title=" ">
<polygon fill="white" stroke="#666666" points="1838.5,-134.5 1732.5,-134.5 1732.5,-115.5 1838.5,-115.5 1838.5,-134.5"/>
<text text-anchor="middle" x="1785.5" y="-122.5" font-family="Helvetica,sans-Serif" font-size="10.00">src/port/Game.cpp</text>
</a>
</g>
</g>
<!-- Node19&#45;&gt;Node20 -->
<g id="edge24_Node000019_Node000020" class="edge">
<title>Node19&#45;&gt;Node20</title>
<g id="a_edge24_Node000019_Node000020"><a xlink:title=" ">
<path fill="none" stroke="#63b8ff" d="M1712.95,-170.65C1732.53,-158.6 1756.75,-143.69 1771.66,-134.52"/>
<polygon fill="#63b8ff" stroke="#63b8ff" points="1711.01,-167.73 1704.32,-175.95 1714.67,-173.69 1711.01,-167.73"/>
</a>
</g>
</g>
<!-- Node22&#45;&gt;Node20 -->
<g id="edge28_Node000022_Node000020" class="edge">
<title>Node22&#45;&gt;Node20</title>
<g id="a_edge28_Node000022_Node000020"><a xlink:title=" ">
<path fill="none" stroke="#63b8ff" d="M1842.55,-174.68C1827.99,-162.26 1807.98,-145.18 1795.94,-134.91"/>
<polygon fill="#63b8ff" stroke="#63b8ff" points="1840.51,-177.54 1850.39,-181.37 1845.05,-172.22 1840.51,-177.54"/>
</a>
</g>
</g>
<!-- Node22&#45;&gt;Node21 -->
<g id="edge27_Node000022_Node000021" class="edge">
<title>Node22&#45;&gt;Node21</title>
<g id="a_edge27_Node000022_Node000021"><a xlink:title=" ">
<path fill="none" stroke="#63b8ff" d="M1884.24,-176.19C1905.88,-163.59 1937.21,-145.37 1955.55,-134.7"/>
<polygon fill="#63b8ff" stroke="#63b8ff" points="1882.22,-173.31 1875.34,-181.37 1885.74,-179.36 1882.22,-173.31"/>
</a>
</g>
</g>
</g>
</svg>
