<?xml version="1.0" encoding="UTF-8" standalone="no"?>
<!DOCTYPE svg PUBLIC "-//W3C//DTD SVG 1.1//EN"
 "http://www.w3.org/Graphics/SVG/1.1/DTD/svg11.dtd">
<!-- Generated by graphviz version 2.43.0 (0)
 -->
<!-- Title: include/assets/models/tracks/banshee_boardwalk/banshee_boardwalk_data.h Pages: 1 -->
<svg width="1770pt" height="291pt"
 viewBox="0.00 0.00 1769.50 291.00" xmlns="http://www.w3.org/2000/svg" xmlns:xlink="http://www.w3.org/1999/xlink">
<g id="graph0" class="graph" transform="scale(1 1) rotate(0) translate(4 287)">
<title>include/assets/models/tracks/banshee_boardwalk/banshee_boardwalk_data.h</title>
<!-- Node1 -->
<g id="Node000001" class="node">
<title>Node1</title>
<g id="a_Node000001"><a xlink:title=" ">
<polygon fill="#999999" stroke="#666666" points="1324,-283 1171,-283 1171,-242 1324,-242 1324,-283"/>
<text text-anchor="start" x="1179" y="-271" font-family="Helvetica,sans-Serif" font-size="10.00">include/assets/models</text>
<text text-anchor="start" x="1179" y="-260" font-family="Helvetica,sans-Serif" font-size="10.00">/tracks/banshee_boardwalk</text>
<text text-anchor="middle" x="1247.5" y="-249" font-family="Helvetica,sans-Serif" font-size="10.00">/banshee_boardwalk_data.h</text>
</a>
</g>
</g>
<!-- Node2 -->
<g id="Node000002" class="node">
<title>Node2</title>
<g id="a_Node000002"><a xlink:href="all__course__data_8h.html" target="_top" xlink:title=" ">
<polygon fill="white" stroke="#666666" points="806,-206 699,-206 699,-176 806,-176 806,-206"/>
<text text-anchor="start" x="707" y="-194" font-family="Helvetica,sans-Serif" font-size="10.00">courses/all_course</text>
<text text-anchor="middle" x="752.5" y="-183" font-family="Helvetica,sans-Serif" font-size="10.00">_data.h</text>
</a>
</g>
</g>
<!-- Node1&#45;&gt;Node2 -->
<g id="edge1_Node000001_Node000002" class="edge">
<title>Node1&#45;&gt;Node2</title>
<g id="a_edge1_Node000001_Node000002"><a xlink:title=" ">
<path fill="none" stroke="#63b8ff" d="M1160.77,-251.31C1075.9,-241.03 943.07,-224.13 828.5,-206 821.21,-204.85 813.55,-203.54 806,-202.21"/>
<polygon fill="#63b8ff" stroke="#63b8ff" points="1160.53,-254.8 1170.87,-252.53 1161.37,-247.85 1160.53,-254.8"/>
</a>
</g>
</g>
<!-- Node16 -->
<g id="Node000016" class="node">
<title>Node16</title>
<g id="a_Node000016"><a xlink:href="banshee__boardwalk_2course__offsets_8c.html" target="_top" xlink:title=" ">
<polygon fill="white" stroke="#666666" points="993,-206 838,-206 838,-176 993,-176 993,-206"/>
<text text-anchor="start" x="846" y="-194" font-family="Helvetica,sans-Serif" font-size="10.00">courses/banshee_boardwalk</text>
<text text-anchor="middle" x="915.5" y="-183" font-family="Helvetica,sans-Serif" font-size="10.00">/course_offsets.c</text>
</a>
</g>
</g>
<!-- Node1&#45;&gt;Node16 -->
<g id="edge17_Node000001_Node000016" class="edge">
<title>Node1&#45;&gt;Node16</title>
<g id="a_edge17_Node000001_Node000016"><a xlink:title=" ">
<path fill="none" stroke="#63b8ff" d="M1161.05,-243.4C1105.29,-231.73 1033.86,-216.78 982.43,-206.01"/>
<polygon fill="#63b8ff" stroke="#63b8ff" points="1160.41,-246.84 1170.92,-245.47 1161.84,-239.99 1160.41,-246.84"/>
</a>
</g>
</g>
<!-- Node17 -->
<g id="Node000017" class="node">
<title>Node17</title>
<g id="a_Node000017"><a xlink:href="Bat_8cpp.html" target="_top" xlink:title=" ">
<polygon fill="white" stroke="#666666" points="1116,-206 1011,-206 1011,-176 1116,-176 1116,-206"/>
<text text-anchor="start" x="1019" y="-194" font-family="Helvetica,sans-Serif" font-size="10.00">src/engine/objects</text>
<text text-anchor="middle" x="1063.5" y="-183" font-family="Helvetica,sans-Serif" font-size="10.00">/Bat.cpp</text>
</a>
</g>
</g>
<!-- Node1&#45;&gt;Node17 -->
<g id="edge18_Node000001_Node000017" class="edge">
<title>Node1&#45;&gt;Node17</title>
<g id="a_edge18_Node000001_Node000017"><a xlink:title=" ">
<path fill="none" stroke="#63b8ff" d="M1186.32,-238.39C1157.94,-227.67 1125.14,-215.28 1100.58,-206"/>
<polygon fill="#63b8ff" stroke="#63b8ff" points="1185.16,-241.7 1195.76,-241.96 1187.64,-235.15 1185.16,-241.7"/>
</a>
</g>
</g>
<!-- Node18 -->
<g id="Node000018" class="node">
<title>Node18</title>
<g id="a_Node000018"><a xlink:href="Boos_8cpp.html" target="_top" xlink:title=" ">
<polygon fill="white" stroke="#666666" points="1239,-206 1134,-206 1134,-176 1239,-176 1239,-206"/>
<text text-anchor="start" x="1142" y="-194" font-family="Helvetica,sans-Serif" font-size="10.00">src/engine/objects</text>
<text text-anchor="middle" x="1186.5" y="-183" font-family="Helvetica,sans-Serif" font-size="10.00">/Boos.cpp</text>
</a>
</g>
</g>
<!-- Node1&#45;&gt;Node18 -->
<g id="edge19_Node000001_Node000018" class="edge">
<title>Node1&#45;&gt;Node18</title>
<g id="a_edge19_Node000001_Node000018"><a xlink:title=" ">
<path fill="none" stroke="#63b8ff" d="M1223.34,-233.98C1214.94,-224.4 1205.86,-214.06 1198.82,-206.04"/>
<polygon fill="#63b8ff" stroke="#63b8ff" points="1220.96,-236.56 1230.18,-241.77 1226.22,-231.95 1220.96,-236.56"/>
</a>
</g>
</g>
<!-- Node19 -->
<g id="Node000019" class="node">
<title>Node19</title>
<g id="a_Node000019"><a xlink:href="CheepCheep_8cpp.html" target="_top" xlink:title=" ">
<polygon fill="white" stroke="#666666" points="1362,-206 1257,-206 1257,-176 1362,-176 1362,-206"/>
<text text-anchor="start" x="1265" y="-194" font-family="Helvetica,sans-Serif" font-size="10.00">src/engine/objects</text>
<text text-anchor="middle" x="1309.5" y="-183" font-family="Helvetica,sans-Serif" font-size="10.00">/CheepCheep.cpp</text>
</a>
</g>
</g>
<!-- Node1&#45;&gt;Node19 -->
<g id="edge20_Node000001_Node000019" class="edge">
<title>Node1&#45;&gt;Node19</title>
<g id="a_edge20_Node000001_Node000019"><a xlink:title=" ">
<path fill="none" stroke="#63b8ff" d="M1271.8,-234.26C1280.41,-224.61 1289.75,-214.14 1296.98,-206.04"/>
<polygon fill="#63b8ff" stroke="#63b8ff" points="1269.15,-231.98 1265.1,-241.77 1274.37,-236.64 1269.15,-231.98"/>
</a>
</g>
</g>
<!-- Node20 -->
<g id="Node000020" class="node">
<title>Node20</title>
<g id="a_Node000020"><a xlink:href="TrashBin_8cpp.html" target="_top" xlink:title=" ">
<polygon fill="white" stroke="#666666" points="1485,-206 1380,-206 1380,-176 1485,-176 1485,-206"/>
<text text-anchor="start" x="1388" y="-194" font-family="Helvetica,sans-Serif" font-size="10.00">src/engine/objects</text>
<text text-anchor="middle" x="1432.5" y="-183" font-family="Helvetica,sans-Serif" font-size="10.00">/TrashBin.cpp</text>
</a>
</g>
</g>
<!-- Node1&#45;&gt;Node20 -->
<g id="edge21_Node000001_Node000020" class="edge">
<title>Node1&#45;&gt;Node20</title>
<g id="a_edge21_Node000001_Node000020"><a xlink:title=" ">
<path fill="none" stroke="#63b8ff" d="M1309.01,-238.39C1337.55,-227.67 1370.53,-215.28 1395.22,-206"/>
<polygon fill="#63b8ff" stroke="#63b8ff" points="1307.66,-235.16 1299.53,-241.96 1310.12,-241.72 1307.66,-235.16"/>
</a>
</g>
</g>
<!-- Node21 -->
<g id="Node000021" class="node">
<title>Node21</title>
<g id="a_Node000021"><a xlink:href="BansheeBoardwalk_8cpp.html" target="_top" xlink:title=" ">
<polygon fill="white" stroke="#666666" points="1637,-140 1492,-140 1492,-110 1637,-110 1637,-140"/>
<text text-anchor="start" x="1500" y="-128" font-family="Helvetica,sans-Serif" font-size="10.00">src/engine/tracks/Banshee</text>
<text text-anchor="middle" x="1564.5" y="-117" font-family="Helvetica,sans-Serif" font-size="10.00">Boardwalk.cpp</text>
</a>
</g>
</g>
<!-- Node1&#45;&gt;Node21 -->
<g id="edge22_Node000001_Node000021" class="edge">
<title>Node1&#45;&gt;Node21</title>
<g id="a_edge22_Node000001_Node000021"><a xlink:title=" ">
<path fill="none" stroke="#63b8ff" d="M1334.11,-255.15C1383.58,-248.41 1445.18,-234.53 1493.5,-206 1521.32,-189.57 1544.12,-158.52 1555.88,-140.31"/>
<polygon fill="#63b8ff" stroke="#63b8ff" points="1333.54,-251.69 1324.07,-256.44 1334.43,-258.64 1333.54,-251.69"/>
</a>
</g>
</g>
<!-- Node22 -->
<g id="Node000022" class="node">
<title>Node22</title>
<g id="a_Node000022"><a xlink:href="BansheeBoardwalk_8h.html" target="_top" xlink:title=" ">
<polygon fill="white" stroke="#666666" points="1687,-206 1542,-206 1542,-176 1687,-176 1687,-206"/>
<text text-anchor="start" x="1550" y="-194" font-family="Helvetica,sans-Serif" font-size="10.00">src/engine/tracks/Banshee</text>
<text text-anchor="middle" x="1614.5" y="-183" font-family="Helvetica,sans-Serif" font-size="10.00">Boardwalk.h</text>
</a>
</g>
</g>
<!-- Node1&#45;&gt;Node22 -->
<g id="edge23_Node000001_Node000022" class="edge">
<title>Node1&#45;&gt;Node22</title>
<g id="a_edge23_Node000001_Node000022"><a xlink:title=" ">
<path fill="none" stroke="#63b8ff" d="M1334.38,-245.05C1397.55,-233.08 1482.1,-217.07 1541.73,-205.78"/>
<polygon fill="#63b8ff" stroke="#63b8ff" points="1333.61,-241.63 1324.44,-246.93 1334.91,-248.51 1333.61,-241.63"/>
</a>
</g>
</g>
<!-- Node3 -->
<g id="Node000003" class="node">
<title>Node3</title>
<g id="a_Node000003"><a xlink:href="paddle__boat_2render_8inc_8c.html" target="_top" xlink:title=" ">
<polygon fill="white" stroke="#666666" points="127,-140 0,-140 0,-110 127,-110 127,-140"/>
<text text-anchor="start" x="8" y="-128" font-family="Helvetica,sans-Serif" font-size="10.00">src/actors/paddle_boat</text>
<text text-anchor="middle" x="63.5" y="-117" font-family="Helvetica,sans-Serif" font-size="10.00">/render.inc.c</text>
</a>
</g>
</g>
<!-- Node2&#45;&gt;Node3 -->
<g id="edge2_Node000002_Node000003" class="edge">
<title>Node2&#45;&gt;Node3</title>
<g id="a_edge2_Node000002_Node000003"><a xlink:title=" ">
<path fill="none" stroke="#63b8ff" d="M688.73,-186.8C577.35,-180.76 340.3,-165.91 141.5,-140 136.86,-139.4 132.08,-138.7 127.27,-137.96"/>
<polygon fill="#63b8ff" stroke="#63b8ff" points="688.61,-190.3 698.78,-187.34 688.99,-183.31 688.61,-190.3"/>
</a>
</g>
</g>
<!-- Node4 -->
<g id="Node000004" class="node">
<title>Node4</title>
<g id="a_Node000004"><a xlink:href="actors_8c.html" target="_top" xlink:title=" ">
<polygon fill="white" stroke="#666666" points="208,-74 103,-74 103,-55 208,-55 208,-74"/>
<text text-anchor="middle" x="155.5" y="-62" font-family="Helvetica,sans-Serif" font-size="10.00">src/racing/actors.c</text>
</a>
</g>
</g>
<!-- Node2&#45;&gt;Node4 -->
<g id="edge13_Node000002_Node000004" class="edge">
<title>Node2&#45;&gt;Node4</title>
<g id="a_edge13_Node000002_Node000004"><a xlink:title=" ">
<path fill="none" stroke="#63b8ff" d="M688.69,-188.59C546.49,-184.86 213.04,-172.7 174.5,-140 154.96,-123.42 154.04,-89.8 154.8,-74.03"/>
<polygon fill="#63b8ff" stroke="#63b8ff" points="688.91,-192.09 699,-188.85 689.09,-185.1 688.91,-192.09"/>
</a>
</g>
</g>
<!-- Node5 -->
<g id="Node000005" class="node">
<title>Node5</title>
<g id="a_Node000005"><a xlink:href="trees_2render_8inc_8c.html" target="_top" xlink:title=" ">
<polygon fill="white" stroke="#666666" points="335,-134.5 184,-134.5 184,-115.5 335,-115.5 335,-134.5"/>
<text text-anchor="middle" x="259.5" y="-122.5" font-family="Helvetica,sans-Serif" font-size="10.00">src/actors/trees/render.inc.c</text>
</a>
</g>
</g>
<!-- Node2&#45;&gt;Node5 -->
<g id="edge4_Node000002_Node000005" class="edge">
<title>Node2&#45;&gt;Node5</title>
<g id="a_edge4_Node000002_Node000005"><a xlink:title=" ">
<path fill="none" stroke="#63b8ff" d="M688.82,-183.08C608.27,-174.14 465.38,-157.6 343.5,-140 332.09,-138.35 319.83,-136.41 308.3,-134.5"/>
<polygon fill="#63b8ff" stroke="#63b8ff" points="688.48,-186.57 698.81,-184.19 689.25,-179.61 688.48,-186.57"/>
</a>
</g>
</g>
<!-- Node6 -->
<g id="Node000006" class="node">
<title>Node6</title>
<g id="a_Node000006"><a xlink:href="code__800029B0_8c.html" target="_top" xlink:title=" ">
<polygon fill="white" stroke="#666666" points="472,-134.5 353,-134.5 353,-115.5 472,-115.5 472,-134.5"/>
<text text-anchor="middle" x="412.5" y="-122.5" font-family="Helvetica,sans-Serif" font-size="10.00">src/code_800029B0.c</text>
</a>
</g>
</g>
<!-- Node2&#45;&gt;Node6 -->
<g id="edge6_Node000002_Node000006" class="edge">
<title>Node2&#45;&gt;Node6</title>
<g id="a_edge6_Node000002_Node000006"><a xlink:title=" ">
<path fill="none" stroke="#63b8ff" d="M689.03,-178.62C634.07,-168.68 552.47,-153.75 481.5,-140 472.62,-138.28 463.11,-136.38 454.07,-134.56"/>
<polygon fill="#63b8ff" stroke="#63b8ff" points="688.51,-182.08 698.97,-180.41 689.75,-175.19 688.51,-182.08"/>
</a>
</g>
</g>
<!-- Node7 -->
<g id="Node000007" class="node">
<title>Node7</title>
<g id="a_Node000007"><a xlink:href="code__80005FD0_8c.html" target="_top" xlink:title=" ">
<polygon fill="white" stroke="#666666" points="610.5,-134.5 490.5,-134.5 490.5,-115.5 610.5,-115.5 610.5,-134.5"/>
<text text-anchor="middle" x="550.5" y="-122.5" font-family="Helvetica,sans-Serif" font-size="10.00">src/code_80005FD0.c</text>
</a>
</g>
</g>
<!-- Node2&#45;&gt;Node7 -->
<g id="edge7_Node000002_Node000007" class="edge">
<title>Node2&#45;&gt;Node7</title>
<g id="a_edge7_Node000002_Node000007"><a xlink:title=" ">
<path fill="none" stroke="#63b8ff" d="M698.51,-172.89C659.39,-160.5 608.17,-144.27 577.38,-134.52"/>
<polygon fill="#63b8ff" stroke="#63b8ff" points="697.58,-176.27 708.17,-175.95 699.69,-169.6 697.58,-176.27"/>
</a>
</g>
</g>
<!-- Node8 -->
<g id="Node000008" class="node">
<title>Node8</title>
<g id="a_Node000008"><a xlink:href="code__8006E9C0_8c.html" target="_top" xlink:title=" ">
<polygon fill="white" stroke="#666666" points="748,-134.5 629,-134.5 629,-115.5 748,-115.5 748,-134.5"/>
<text text-anchor="middle" x="688.5" y="-122.5" font-family="Helvetica,sans-Serif" font-size="10.00">src/code_8006E9C0.c</text>
</a>
</g>
</g>
<!-- Node2&#45;&gt;Node8 -->
<g id="edge8_Node000002_Node000008" class="edge">
<title>Node2&#45;&gt;Node8</title>
<g id="a_edge8_Node000002_Node000008"><a xlink:title=" ">
<path fill="none" stroke="#63b8ff" d="M731.1,-168.6C719.6,-157.1 706.02,-143.52 697.34,-134.84"/>
<polygon fill="#63b8ff" stroke="#63b8ff" points="728.75,-171.2 738.3,-175.8 733.7,-166.25 728.75,-171.2"/>
</a>
</g>
</g>
<!-- Node9 -->
<g id="Node000009" class="node">
<title>Node9</title>
<g id="a_Node000009"><a xlink:href="path__spawn__metadata_8c.html" target="_top" xlink:title=" ">
<polygon fill="white" stroke="#666666" points="883,-140 766,-140 766,-110 883,-110 883,-140"/>
<text text-anchor="start" x="774" y="-128" font-family="Helvetica,sans-Serif" font-size="10.00">src/data/path_spawn</text>
<text text-anchor="middle" x="824.5" y="-117" font-family="Helvetica,sans-Serif" font-size="10.00">_metadata.c</text>
</a>
</g>
</g>
<!-- Node2&#45;&gt;Node9 -->
<g id="edge9_Node000002_Node000009" class="edge">
<title>Node2&#45;&gt;Node9</title>
<g id="a_edge9_Node000002_Node000009"><a xlink:title=" ">
<path fill="none" stroke="#63b8ff" d="M776.21,-168.92C786.83,-159.49 799.07,-148.61 808.57,-140.16"/>
<polygon fill="#63b8ff" stroke="#63b8ff" points="773.63,-166.54 768.48,-175.8 778.28,-171.77 773.63,-166.54"/>
</a>
</g>
</g>
<!-- Node10 -->
<g id="Node000010" class="node">
<title>Node10</title>
<g id="a_Node000010"><a xlink:href="all__variables_8h.html" target="_top" xlink:title=" ">
<polygon fill="white" stroke="#666666" points="1039.5,-134.5 901.5,-134.5 901.5,-115.5 1039.5,-115.5 1039.5,-134.5"/>
<text text-anchor="middle" x="970.5" y="-122.5" font-family="Helvetica,sans-Serif" font-size="10.00">src/debug/all_variables.h</text>
</a>
</g>
</g>
<!-- Node2&#45;&gt;Node10 -->
<g id="edge10_Node000002_Node000010" class="edge">
<title>Node2&#45;&gt;Node10</title>
<g id="a_edge10_Node000002_Node000010"><a xlink:title=" ">
<path fill="none" stroke="#63b8ff" d="M809.97,-173.13C852.28,-160.71 908.05,-144.33 941.49,-134.52"/>
<polygon fill="#63b8ff" stroke="#63b8ff" points="808.95,-169.78 800.34,-175.95 810.92,-176.5 808.95,-169.78"/>
</a>
</g>
</g>
<!-- Node13 -->
<g id="Node000013" class="node">
<title>Node13</title>
<g id="a_Node000013"><a xlink:href="render__courses_8c.html" target="_top" xlink:title=" ">
<polygon fill="white" stroke="#666666" points="1207,-134.5 1058,-134.5 1058,-115.5 1207,-115.5 1207,-134.5"/>
<text text-anchor="middle" x="1132.5" y="-122.5" font-family="Helvetica,sans-Serif" font-size="10.00">src/racing/render_courses.c</text>
</a>
</g>
</g>
<!-- Node2&#45;&gt;Node13 -->
<g id="edge14_Node000002_Node000013" class="edge">
<title>Node2&#45;&gt;Node13</title>
<g id="a_edge14_Node000002_Node000013"><a xlink:title=" ">
<path fill="none" stroke="#63b8ff" d="M815.96,-178.21C820.2,-177.45 824.41,-176.71 828.5,-176 926.11,-159.02 950.75,-156.14 1048.5,-140 1059.15,-138.24 1070.55,-136.35 1081.42,-134.54"/>
<polygon fill="#63b8ff" stroke="#63b8ff" points="815.26,-174.78 806.04,-180 816.5,-181.67 815.26,-174.78"/>
</a>
</g>
</g>
<!-- Node14 -->
<g id="Node000014" class="node">
<title>Node14</title>
<g id="a_Node000014"><a xlink:href="render__objects_8c.html" target="_top" xlink:title=" ">
<polygon fill="white" stroke="#666666" points="1339.5,-134.5 1225.5,-134.5 1225.5,-115.5 1339.5,-115.5 1339.5,-134.5"/>
<text text-anchor="middle" x="1282.5" y="-122.5" font-family="Helvetica,sans-Serif" font-size="10.00">src/render_objects.c</text>
</a>
</g>
</g>
<!-- Node2&#45;&gt;Node14 -->
<g id="edge15_Node000002_Node000014" class="edge">
<title>Node2&#45;&gt;Node14</title>
<g id="a_edge15_Node000002_Node000014"><a xlink:title=" ">
<path fill="none" stroke="#63b8ff" d="M816.49,-177.79C820.54,-177.15 824.58,-176.54 828.5,-176 999.61,-152.33 1044.68,-165.71 1215.5,-140 1225.25,-138.53 1235.72,-136.54 1245.42,-134.53"/>
<polygon fill="#63b8ff" stroke="#63b8ff" points="815.67,-174.38 806.38,-179.46 816.81,-181.28 815.67,-174.38"/>
</a>
</g>
</g>
<!-- Node15 -->
<g id="Node000015" class="node">
<title>Node15</title>
<g id="a_Node000015"><a xlink:href="update__objects_8c.html" target="_top" xlink:title=" ">
<polygon fill="white" stroke="#666666" points="1473.5,-134.5 1357.5,-134.5 1357.5,-115.5 1473.5,-115.5 1473.5,-134.5"/>
<text text-anchor="middle" x="1415.5" y="-122.5" font-family="Helvetica,sans-Serif" font-size="10.00">src/update_objects.c</text>
</a>
</g>
</g>
<!-- Node2&#45;&gt;Node15 -->
<g id="edge16_Node000002_Node000015" class="edge">
<title>Node2&#45;&gt;Node15</title>
<g id="a_edge16_Node000002_Node000015"><a xlink:title=" ">
<path fill="none" stroke="#63b8ff" d="M816.47,-177.68C820.53,-177.06 824.57,-176.5 828.5,-176 1058.34,-146.97 1119.02,-171.77 1348.5,-140 1358.51,-138.61 1369.25,-136.61 1379.15,-134.54"/>
<polygon fill="#63b8ff" stroke="#63b8ff" points="815.68,-174.26 806.36,-179.3 816.78,-181.18 815.68,-174.26"/>
</a>
</g>
</g>
<!-- Node3&#45;&gt;Node4 -->
<g id="edge3_Node000003_Node000004" class="edge">
<title>Node3&#45;&gt;Node4</title>
<g id="a_edge3_Node000003_Node000004"><a xlink:title=" ">
<path fill="none" stroke="#63b8ff" d="M94.4,-104.35C110.56,-94.07 129.52,-82.02 141.98,-74.09"/>
<polygon fill="#63b8ff" stroke="#63b8ff" points="92.33,-101.52 85.77,-109.84 96.09,-107.43 92.33,-101.52"/>
</a>
</g>
</g>
<!-- Node5&#45;&gt;Node4 -->
<g id="edge5_Node000005_Node000004" class="edge">
<title>Node5&#45;&gt;Node4</title>
<g id="a_edge5_Node000005_Node000004"><a xlink:title=" ">
<path fill="none" stroke="#63b8ff" d="M235.36,-110.42C215.49,-99.24 187.91,-83.73 170.91,-74.17"/>
<polygon fill="#63b8ff" stroke="#63b8ff" points="233.72,-113.52 244.15,-115.37 237.15,-107.41 233.72,-113.52"/>
</a>
</g>
</g>
<!-- Node11 -->
<g id="Node000011" class="node">
<title>Node11</title>
<g id="a_Node000011"><a xlink:href="debug_8inc_8c.html" target="_top" xlink:title=" ">
<polygon fill="white" stroke="#666666" points="1031.5,-74 909.5,-74 909.5,-55 1031.5,-55 1031.5,-74"/>
<text text-anchor="middle" x="970.5" y="-62" font-family="Helvetica,sans-Serif" font-size="10.00">src/debug/debug.inc.c</text>
</a>
</g>
</g>
<!-- Node10&#45;&gt;Node11 -->
<g id="edge11_Node000010_Node000011" class="edge">
<title>Node10&#45;&gt;Node11</title>
<g id="a_edge11_Node000010_Node000011"><a xlink:title=" ">
<path fill="none" stroke="#63b8ff" d="M970.5,-105.16C970.5,-94.74 970.5,-82.3 970.5,-74.17"/>
<polygon fill="#63b8ff" stroke="#63b8ff" points="967,-105.37 970.5,-115.37 974,-105.37 967,-105.37"/>
</a>
</g>
</g>
<!-- Node12 -->
<g id="Node000012" class="node">
<title>Node12</title>
<g id="a_Node000012"><a xlink:href="debug_8c.html" target="_top" xlink:title=" ">
<polygon fill="white" stroke="#666666" points="1023,-19 918,-19 918,0 1023,0 1023,-19"/>
<text text-anchor="middle" x="970.5" y="-7" font-family="Helvetica,sans-Serif" font-size="10.00">src/debug/debug.c</text>
</a>
</g>
</g>
<!-- Node11&#45;&gt;Node12 -->
<g id="edge12_Node000011_Node000012" class="edge">
<title>Node11&#45;&gt;Node12</title>
<g id="a_edge12_Node000011_Node000012"><a xlink:title=" ">
<path fill="none" stroke="#63b8ff" d="M970.5,-44.66C970.5,-35.93 970.5,-25.99 970.5,-19.09"/>
<polygon fill="#63b8ff" stroke="#63b8ff" points="967,-44.75 970.5,-54.75 974,-44.75 967,-44.75"/>
</a>
</g>
</g>
<!-- Node22&#45;&gt;Node21 -->
<g id="edge24_Node000022_Node000021" class="edge">
<title>Node22&#45;&gt;Node21</title>
<g id="a_edge24_Node000022_Node000021"><a xlink:title=" ">
<path fill="none" stroke="#63b8ff" d="M1597.16,-167.81C1590,-158.64 1581.9,-148.28 1575.57,-140.16"/>
<polygon fill="#63b8ff" stroke="#63b8ff" points="1594.49,-170.07 1603.4,-175.8 1600,-165.76 1594.49,-170.07"/>
</a>
</g>
</g>
<!-- Node23 -->
<g id="Node000023" class="node">
<title>Node23</title>
<g id="a_Node000023"><a xlink:href="Game_8cpp.html" target="_top" xlink:title=" ">
<polygon fill="white" stroke="#666666" points="1761.5,-134.5 1655.5,-134.5 1655.5,-115.5 1761.5,-115.5 1761.5,-134.5"/>
<text text-anchor="middle" x="1708.5" y="-122.5" font-family="Helvetica,sans-Serif" font-size="10.00">src/port/Game.cpp</text>
</a>
</g>
</g>
<!-- Node22&#45;&gt;Node23 -->
<g id="edge25_Node000022_Node000023" class="edge">
<title>Node22&#45;&gt;Node23</title>
<g id="a_edge25_Node000022_Node000023"><a xlink:title=" ">
<path fill="none" stroke="#63b8ff" d="M1644.06,-169.87C1661.46,-158.03 1682.58,-143.65 1695.78,-134.66"/>
<polygon fill="#63b8ff" stroke="#63b8ff" points="1641.66,-167.28 1635.36,-175.8 1645.6,-173.06 1641.66,-167.28"/>
</a>
</g>
</g>
</g>
</svg>
