<?xml version="1.0" encoding="UTF-8" standalone="no"?>
<!DOCTYPE svg PUBLIC "-//W3C//DTD SVG 1.1//EN"
 "http://www.w3.org/Graphics/SVG/1.1/DTD/svg11.dtd">
<!-- Generated by graphviz version 2.43.0 (0)
 -->
<!-- Title: include/assets/models/tracks/frappe_snowland/frappe_snowland_data.h Pages: 1 -->
<!--zoomable 291 -->

<svg id="main" version="1.1" xmlns="http://www.w3.org/2000/svg" xmlns:xlink="http://www.w3.org/1999/xlink" xml:space="preserve" onload="init(evt)">

<style type="text/css"><![CDATA[
.node, .edge {opacity: 0.7;}
.node.selected, .edge.selected {opacity: 1;}
.edge:hover path { stroke: red; }
.edge:hover polygon { stroke: red; fill: red; }
]]></style>

<defs>
  <circle id="rim" cx="0" cy="0" r="7"/>
  <circle id="rim2" cx="0" cy="0" r="3.5"/>
  <g id="zoomPlus">
    <use xlink:href="#rim" fill="#404040"><set attributeName="fill" to="#808080" begin="zoomplus.mouseover" end="zoomplus.mouseout"/></use>
    <path d="M-4,0h8M0,-4v8" fill="none" stroke="white" stroke-width="1.5" pointer-events="none"/>
  </g>
  <g id="zoomMin">
    <use xlink:href="#rim" fill="#404040"><set attributeName="fill" to="#808080" begin="zoomminus.mouseover" end="zoomminus.mouseout"/></use>
    <path d="M-4,0h8" fill="none" stroke="white" stroke-width="1.5" pointer-events="none"/>
  </g>
  <g id="arrowUp" transform="translate(30 24)">
    <use xlink:href="#rim"/>
    <path pointer-events="none" fill="none" stroke="white" stroke-width="1.5" d="M0,-3.0v7 M-2.5,-0.5L0,-3.0L2.5,-0.5"/>
  </g>
  <g id="arrowRight" transform="rotate(90) translate(36 -43)">
    <use xlink:href="#rim"/>
    <path pointer-events="none" fill="none" stroke="white" stroke-width="1.5" d="M0,-3.0v7 M-2.5,-0.5L0,-3.0L2.5,-0.5"/>
  </g>
  <g id="arrowDown" transform="rotate(180) translate(-30 -48)">
    <use xlink:href="#rim"/>
    <path pointer-events="none" fill="none" stroke="white" stroke-width="1.5" d="M0,-3.0v7 M-2.5,-0.5L0,-3.0L2.5,-0.5"/>
  </g>
  <g id="arrowLeft" transform="rotate(270) translate(-36 17)">
    <use xlink:href="#rim"/>
    <path pointer-events="none" fill="none" stroke="white" stroke-width="1.5" d="M0,-3.0v7 M-2.5,-0.5L0,-3.0L2.5,-0.5"/>
  </g>
  <g id="resetDef">
    <use xlink:href="#rim2" fill="#404040"><set attributeName="fill" to="#808080" begin="reset.mouseover" end="reset.mouseout"/></use>
  </g>
</defs>
<script type="application/ecmascript">
var viewWidth = 2133;
var viewHeight = 291;
var sectionId = 'dynsection-1';
</script>
<script type="application/ecmascript" xlink:href="svg.min.js"/>
<svg id="graph" class="graph">
<g id="viewport">
<title>include/assets/models/tracks/frappe_snowland/frappe_snowland_data.h</title>
<!-- Node1 -->
<g id="Node000001" class="node">
<title>Node1</title>
<g id="a_Node000001"><a xlink:title=" ">
<polygon fill="#999999" stroke="#666666" points="1597.5,-283 1458.5,-283 1458.5,-242 1597.5,-242 1597.5,-283"/>
<text text-anchor="start" x="1466.5" y="-271" font-family="Helvetica,sans-Serif" font-size="10.00">include/assets/models</text>
<text text-anchor="start" x="1466.5" y="-260" font-family="Helvetica,sans-Serif" font-size="10.00">/tracks/frappe_snowland</text>
<text text-anchor="middle" x="1528" y="-249" font-family="Helvetica,sans-Serif" font-size="10.00">/frappe_snowland_data.h</text>
</a>
</g>
</g>
<!-- Node2 -->
<g id="Node000002" class="node">
<title>Node2</title>
<g id="a_Node000002"><a xlink:href="all__course__data_8h.html" target="_top" xlink:title=" ">
<polygon fill="white" stroke="#666666" points="841.5,-206 734.5,-206 734.5,-176 841.5,-176 841.5,-206"/>
<text text-anchor="start" x="742.5" y="-194" font-family="Helvetica,sans-Serif" font-size="10.00">courses/all_course</text>
<text text-anchor="middle" x="788" y="-183" font-family="Helvetica,sans-Serif" font-size="10.00">_data.h</text>
</a>
</g>
</g>
<!-- Node1&#45;&gt;Node2 -->
<g id="edge1_Node000001_Node000002" class="edge">
<title>Node1&#45;&gt;Node2</title>
<g id="a_edge1_Node000001_Node000002"><a xlink:title=" ">
<path fill="none" stroke="#63b8ff" d="M1448.21,-254.01C1296.48,-239.76 970.09,-209.1 841.57,-197.03"/>
<polygon fill="#63b8ff" stroke="#63b8ff" points="1448.1,-257.51 1458.38,-254.96 1448.75,-250.54 1448.1,-257.51"/>
</a>
</g>
</g>
<!-- Node4 -->
<g id="Node000004" class="node">
<title>Node4</title>
<g id="a_Node000004"><a xlink:href="actors_8c.html" target="_top" xlink:title=" ">
<polygon fill="white" stroke="#666666" points="859.5,-74 754.5,-74 754.5,-55 859.5,-55 859.5,-74"/>
<text text-anchor="middle" x="807" y="-62" font-family="Helvetica,sans-Serif" font-size="10.00">src/racing/actors.c</text>
</a>
</g>
</g>
<!-- Node1&#45;&gt;Node4 -->
<g id="edge26_Node000001_Node000004" class="edge">
<title>Node1&#45;&gt;Node4</title>
<g id="a_edge26_Node000001_Node000004"><a xlink:title=" ">
<path fill="none" stroke="#63b8ff" d="M1515.78,-232.46C1512.41,-224 1508.89,-214.7 1506,-206 1492.06,-164.05 1514.2,-138.01 1480,-110 1432.41,-71.03 1009.53,-66.05 859.5,-65.52"/>
<polygon fill="#63b8ff" stroke="#63b8ff" points="1512.61,-233.97 1519.61,-241.92 1519.1,-231.34 1512.61,-233.97"/>
</a>
</g>
</g>
<!-- Node7 -->
<g id="Node000007" class="node">
<title>Node7</title>
<g id="a_Node000007"><a xlink:href="code__80005FD0_8c.html" target="_top" xlink:title=" ">
<polygon fill="white" stroke="#666666" points="120,-134.5 0,-134.5 0,-115.5 120,-115.5 120,-134.5"/>
<text text-anchor="middle" x="60" y="-122.5" font-family="Helvetica,sans-Serif" font-size="10.00">src/code_80005FD0.c</text>
</a>
</g>
</g>
<!-- Node1&#45;&gt;Node7 -->
<g id="edge19_Node000001_Node000007" class="edge">
<title>Node1&#45;&gt;Node7</title>
<g id="a_edge19_Node000001_Node000007"><a xlink:title=" ">
<path fill="none" stroke="#63b8ff" d="M1448.23,-258.41C1233.76,-249.27 627.26,-217.97 129,-140 119.22,-138.47 108.72,-136.51 98.93,-134.54"/>
<polygon fill="#63b8ff" stroke="#63b8ff" points="1448.31,-261.91 1458.45,-258.84 1448.61,-254.92 1448.31,-261.91"/>
</a>
</g>
</g>
<!-- Node9 -->
<g id="Node000009" class="node">
<title>Node9</title>
<g id="a_Node000009"><a xlink:href="path__spawn__metadata_8c.html" target="_top" xlink:title=" ">
<polygon fill="white" stroke="#666666" points="1338.5,-140 1221.5,-140 1221.5,-110 1338.5,-110 1338.5,-140"/>
<text text-anchor="start" x="1229.5" y="-128" font-family="Helvetica,sans-Serif" font-size="10.00">src/data/path_spawn</text>
<text text-anchor="middle" x="1280" y="-117" font-family="Helvetica,sans-Serif" font-size="10.00">_metadata.c</text>
</a>
</g>
</g>
<!-- Node1&#45;&gt;Node9 -->
<g id="edge20_Node000001_Node000009" class="edge">
<title>Node1&#45;&gt;Node9</title>
<g id="a_edge20_Node000001_Node000009"><a xlink:title=" ">
<path fill="none" stroke="#63b8ff" d="M1483.24,-237.04C1431.46,-208.75 1347.96,-163.13 1305.93,-140.17"/>
<polygon fill="#63b8ff" stroke="#63b8ff" points="1481.75,-240.22 1492.2,-241.94 1485.11,-234.08 1481.75,-240.22"/>
</a>
</g>
</g>
<!-- Node14 -->
<g id="Node000014" class="node">
<title>Node14</title>
<g id="a_Node000014"><a xlink:href="render__objects_8c.html" target="_top" xlink:title=" ">
<polygon fill="white" stroke="#666666" points="1471,-134.5 1357,-134.5 1357,-115.5 1471,-115.5 1471,-134.5"/>
<text text-anchor="middle" x="1414" y="-122.5" font-family="Helvetica,sans-Serif" font-size="10.00">src/render_objects.c</text>
</a>
</g>
</g>
<!-- Node1&#45;&gt;Node14 -->
<g id="edge27_Node000001_Node000014" class="edge">
<title>Node1&#45;&gt;Node14</title>
<g id="a_edge27_Node000001_Node000014"><a xlink:title=" ">
<path fill="none" stroke="#63b8ff" d="M1499.91,-234.74C1491.02,-225.85 1481.34,-215.74 1473,-206 1451.9,-181.36 1429.97,-149.76 1419.81,-134.72"/>
<polygon fill="#63b8ff" stroke="#63b8ff" points="1497.58,-237.35 1507.15,-241.88 1502.49,-232.36 1497.58,-237.35"/>
</a>
</g>
</g>
<!-- Node16 -->
<g id="Node000016" class="node">
<title>Node16</title>
<g id="a_Node000016"><a xlink:href="all__course__model_8h.html" target="_top" xlink:title=" ">
<polygon fill="white" stroke="#666666" points="1622.5,-206 1515.5,-206 1515.5,-176 1622.5,-176 1622.5,-206"/>
<text text-anchor="start" x="1523.5" y="-194" font-family="Helvetica,sans-Serif" font-size="10.00">courses/all_course</text>
<text text-anchor="middle" x="1569" y="-183" font-family="Helvetica,sans-Serif" font-size="10.00">_model.h</text>
</a>
</g>
</g>
<!-- Node1&#45;&gt;Node16 -->
<g id="edge17_Node000001_Node000016" class="edge">
<title>Node1&#45;&gt;Node16</title>
<g id="a_edge17_Node000001_Node000016"><a xlink:title=" ">
<path fill="none" stroke="#63b8ff" d="M1544.75,-233.11C1550.25,-223.78 1556.13,-213.82 1560.72,-206.04"/>
<polygon fill="#63b8ff" stroke="#63b8ff" points="1541.71,-231.38 1539.64,-241.77 1547.73,-234.94 1541.71,-231.38"/>
</a>
</g>
</g>
<!-- Node17 -->
<g id="Node000017" class="node">
<title>Node17</title>
<g id="a_Node000017"><a xlink:href="frappe__snowland_2course__offsets_8c.html" target="_top" xlink:title=" ">
<polygon fill="white" stroke="#666666" points="1781,-206 1641,-206 1641,-176 1781,-176 1781,-206"/>
<text text-anchor="start" x="1649" y="-194" font-family="Helvetica,sans-Serif" font-size="10.00">courses/frappe_snowland</text>
<text text-anchor="middle" x="1711" y="-183" font-family="Helvetica,sans-Serif" font-size="10.00">/course_offsets.c</text>
</a>
</g>
</g>
<!-- Node1&#45;&gt;Node17 -->
<g id="edge18_Node000001_Node000017" class="edge">
<title>Node1&#45;&gt;Node17</title>
<g id="a_edge18_Node000001_Node000017"><a xlink:title=" ">
<path fill="none" stroke="#63b8ff" d="M1588.85,-238.39C1617.07,-227.67 1649.7,-215.28 1674.13,-206"/>
<polygon fill="#63b8ff" stroke="#63b8ff" points="1587.57,-235.13 1579.46,-241.96 1590.05,-241.68 1587.57,-235.13"/>
</a>
</g>
</g>
<!-- Node18 -->
<g id="Node000018" class="node">
<title>Node18</title>
<g id="a_Node000018"><a xlink:href="Snowman_8cpp.html" target="_top" xlink:title=" ">
<polygon fill="white" stroke="#666666" points="1904.5,-206 1799.5,-206 1799.5,-176 1904.5,-176 1904.5,-206"/>
<text text-anchor="start" x="1807.5" y="-194" font-family="Helvetica,sans-Serif" font-size="10.00">src/engine/objects</text>
<text text-anchor="middle" x="1852" y="-183" font-family="Helvetica,sans-Serif" font-size="10.00">/Snowman.cpp</text>
</a>
</g>
</g>
<!-- Node1&#45;&gt;Node18 -->
<g id="edge21_Node000001_Node000018" class="edge">
<title>Node1&#45;&gt;Node18</title>
<g id="a_edge21_Node000001_Node000018"><a xlink:title=" ">
<path fill="none" stroke="#63b8ff" d="M1607.39,-244.97C1659.37,-234.08 1728.77,-219.4 1790,-206 1793.02,-205.34 1796.12,-204.66 1799.25,-203.96"/>
<polygon fill="#63b8ff" stroke="#63b8ff" points="1606.63,-241.55 1597.56,-247.03 1608.06,-248.4 1606.63,-241.55"/>
</a>
</g>
</g>
<!-- Node19 -->
<g id="Node000019" class="node">
<title>Node19</title>
<g id="a_Node000019"><a xlink:href="FrappeSnowland_8cpp.html" target="_top" xlink:title=" ">
<polygon fill="white" stroke="#666666" points="2001,-140 1865,-140 1865,-110 2001,-110 2001,-140"/>
<text text-anchor="start" x="1873" y="-128" font-family="Helvetica,sans-Serif" font-size="10.00">src/engine/tracks/Frappe</text>
<text text-anchor="middle" x="1933" y="-117" font-family="Helvetica,sans-Serif" font-size="10.00">Snowland.cpp</text>
</a>
</g>
</g>
<!-- Node1&#45;&gt;Node19 -->
<g id="edge22_Node000001_Node000019" class="edge">
<title>Node1&#45;&gt;Node19</title>
<g id="a_edge22_Node000001_Node000019"><a xlink:title=" ">
<path fill="none" stroke="#63b8ff" d="M1607.74,-260.19C1707.16,-256.87 1869.39,-245.38 1913,-206 1931.49,-189.3 1934.08,-158.35 1933.85,-140.23"/>
<polygon fill="#63b8ff" stroke="#63b8ff" points="1607.61,-256.69 1597.72,-260.5 1607.83,-263.69 1607.61,-256.69"/>
</a>
</g>
</g>
<!-- Node20 -->
<g id="Node000020" class="node">
<title>Node20</title>
<g id="a_Node000020"><a xlink:href="FrappeSnowland_8h.html" target="_top" xlink:title=" ">
<polygon fill="white" stroke="#666666" points="2097,-206 1961,-206 1961,-176 2097,-176 2097,-206"/>
<text text-anchor="start" x="1969" y="-194" font-family="Helvetica,sans-Serif" font-size="10.00">src/engine/tracks/Frappe</text>
<text text-anchor="middle" x="2029" y="-183" font-family="Helvetica,sans-Serif" font-size="10.00">Snowland.h</text>
</a>
</g>
</g>
<!-- Node1&#45;&gt;Node20 -->
<g id="edge23_Node000001_Node000020" class="edge">
<title>Node1&#45;&gt;Node20</title>
<g id="a_edge23_Node000001_Node000020"><a xlink:title=" ">
<path fill="none" stroke="#63b8ff" d="M1607.83,-251.83C1692.23,-241.39 1829.18,-223.85 1947,-206 1951.43,-205.33 1955.98,-204.62 1960.57,-203.88"/>
<polygon fill="#63b8ff" stroke="#63b8ff" points="1607.3,-248.37 1597.8,-253.06 1608.16,-255.31 1607.3,-248.37"/>
</a>
</g>
</g>
<!-- Node3 -->
<g id="Node000003" class="node">
<title>Node3</title>
<g id="a_Node000003"><a xlink:href="paddle__boat_2render_8inc_8c.html" target="_top" xlink:title=" ">
<polygon fill="white" stroke="#666666" points="1066.5,-140 939.5,-140 939.5,-110 1066.5,-110 1066.5,-140"/>
<text text-anchor="start" x="947.5" y="-128" font-family="Helvetica,sans-Serif" font-size="10.00">src/actors/paddle_boat</text>
<text text-anchor="middle" x="1003" y="-117" font-family="Helvetica,sans-Serif" font-size="10.00">/render.inc.c</text>
</a>
</g>
</g>
<!-- Node2&#45;&gt;Node3 -->
<g id="edge2_Node000002_Node000003" class="edge">
<title>Node2&#45;&gt;Node3</title>
<g id="a_edge2_Node000002_Node000003"><a xlink:title=" ">
<path fill="none" stroke="#63b8ff" d="M845.15,-172.99C879.74,-162.69 923.33,-149.72 955.93,-140.01"/>
<polygon fill="#63b8ff" stroke="#63b8ff" points="843.77,-169.75 835.18,-175.95 845.77,-176.46 843.77,-169.75"/>
</a>
</g>
</g>
<!-- Node2&#45;&gt;Node4 -->
<g id="edge13_Node000002_Node000004" class="edge">
<title>Node2&#45;&gt;Node4</title>
<g id="a_edge13_Node000002_Node000004"><a xlink:title=" ">
<path fill="none" stroke="#63b8ff" d="M724.25,-181.01C667.79,-170.32 598.68,-148.83 629,-110 644.34,-90.35 707.45,-78.1 754.19,-71.54"/>
<polygon fill="#63b8ff" stroke="#63b8ff" points="723.79,-184.49 734.26,-182.82 725.04,-177.6 723.79,-184.49"/>
</a>
</g>
</g>
<!-- Node5 -->
<g id="Node000005" class="node">
<title>Node5</title>
<g id="a_Node000005"><a xlink:href="trees_2render_8inc_8c.html" target="_top" xlink:title=" ">
<polygon fill="white" stroke="#666666" points="582.5,-134.5 431.5,-134.5 431.5,-115.5 582.5,-115.5 582.5,-134.5"/>
<text text-anchor="middle" x="507" y="-122.5" font-family="Helvetica,sans-Serif" font-size="10.00">src/actors/trees/render.inc.c</text>
</a>
</g>
</g>
<!-- Node2&#45;&gt;Node5 -->
<g id="edge4_Node000002_Node000005" class="edge">
<title>Node2&#45;&gt;Node5</title>
<g id="a_edge4_Node000002_Node000005"><a xlink:title=" ">
<path fill="none" stroke="#63b8ff" d="M724.42,-175.52C669.02,-162.9 590.54,-145.03 544.59,-134.56"/>
<polygon fill="#63b8ff" stroke="#63b8ff" points="723.96,-179 734.48,-177.81 725.51,-172.18 723.96,-179"/>
</a>
</g>
</g>
<!-- Node6 -->
<g id="Node000006" class="node">
<title>Node6</title>
<g id="a_Node000006"><a xlink:href="code__800029B0_8c.html" target="_top" xlink:title=" ">
<polygon fill="white" stroke="#666666" points="1203.5,-134.5 1084.5,-134.5 1084.5,-115.5 1203.5,-115.5 1203.5,-134.5"/>
<text text-anchor="middle" x="1144" y="-122.5" font-family="Helvetica,sans-Serif" font-size="10.00">src/code_800029B0.c</text>
</a>
</g>
</g>
<!-- Node2&#45;&gt;Node6 -->
<g id="edge6_Node000002_Node000006" class="edge">
<title>Node2&#45;&gt;Node6</title>
<g id="a_edge6_Node000002_Node000006"><a xlink:title=" ">
<path fill="none" stroke="#63b8ff" d="M851.65,-179.43C909.87,-169.64 998.34,-154.45 1075,-140 1084.01,-138.3 1093.66,-136.4 1102.81,-134.55"/>
<polygon fill="#63b8ff" stroke="#63b8ff" points="850.79,-176.03 841.5,-181.13 851.95,-182.93 850.79,-176.03"/>
</a>
</g>
</g>
<!-- Node2&#45;&gt;Node7 -->
<g id="edge7_Node000002_Node000007" class="edge">
<title>Node2&#45;&gt;Node7</title>
<g id="a_edge7_Node000002_Node000007"><a xlink:title=" ">
<path fill="none" stroke="#63b8ff" d="M724.08,-187.79C606.03,-183.13 346.05,-170.13 129,-140 118.83,-138.59 107.91,-136.6 97.82,-134.56"/>
<polygon fill="#63b8ff" stroke="#63b8ff" points="724.24,-191.3 734.37,-188.19 724.51,-184.31 724.24,-191.3"/>
</a>
</g>
</g>
<!-- Node8 -->
<g id="Node000008" class="node">
<title>Node8</title>
<g id="a_Node000008"><a xlink:href="code__8006E9C0_8c.html" target="_top" xlink:title=" ">
<polygon fill="white" stroke="#666666" points="413.5,-134.5 294.5,-134.5 294.5,-115.5 413.5,-115.5 413.5,-134.5"/>
<text text-anchor="middle" x="354" y="-122.5" font-family="Helvetica,sans-Serif" font-size="10.00">src/code_8006E9C0.c</text>
</a>
</g>
</g>
<!-- Node2&#45;&gt;Node8 -->
<g id="edge8_Node000002_Node000008" class="edge">
<title>Node2&#45;&gt;Node8</title>
<g id="a_edge8_Node000002_Node000008"><a xlink:title=" ">
<path fill="none" stroke="#63b8ff" d="M724.51,-182.64C651.36,-173.86 527.65,-158.07 422,-140 412.61,-138.39 402.55,-136.45 393.11,-134.52"/>
<polygon fill="#63b8ff" stroke="#63b8ff" points="724.14,-186.12 734.49,-183.83 724.97,-179.17 724.14,-186.12"/>
</a>
</g>
</g>
<!-- Node2&#45;&gt;Node9 -->
<g id="edge9_Node000002_Node000009" class="edge">
<title>Node2&#45;&gt;Node9</title>
<g id="a_edge9_Node000002_Node000009"><a xlink:title=" ">
<path fill="none" stroke="#63b8ff" d="M851.8,-184.2C934.99,-176.23 1084.86,-160.55 1212,-140 1215.09,-139.5 1218.26,-138.96 1221.45,-138.39"/>
<polygon fill="#63b8ff" stroke="#63b8ff" points="851.37,-180.72 841.75,-185.15 852.04,-187.69 851.37,-180.72"/>
</a>
</g>
</g>
<!-- Node10 -->
<g id="Node000010" class="node">
<title>Node10</title>
<g id="a_Node000010"><a xlink:href="all__variables_8h.html" target="_top" xlink:title=" ">
<polygon fill="white" stroke="#666666" points="276,-134.5 138,-134.5 138,-115.5 276,-115.5 276,-134.5"/>
<text text-anchor="middle" x="207" y="-122.5" font-family="Helvetica,sans-Serif" font-size="10.00">src/debug/all_variables.h</text>
</a>
</g>
</g>
<!-- Node2&#45;&gt;Node10 -->
<g id="edge10_Node000002_Node000010" class="edge">
<title>Node2&#45;&gt;Node10</title>
<g id="a_edge10_Node000002_Node000010"><a xlink:title=" ">
<path fill="none" stroke="#63b8ff" d="M724.14,-185.27C628.44,-177.81 442.24,-161.89 285,-140 273.96,-138.46 262.1,-136.5 251.04,-134.53"/>
<polygon fill="#63b8ff" stroke="#63b8ff" points="724,-188.77 734.24,-186.05 724.54,-181.79 724,-188.77"/>
</a>
</g>
</g>
<!-- Node13 -->
<g id="Node000013" class="node">
<title>Node13</title>
<g id="a_Node000013"><a xlink:href="render__courses_8c.html" target="_top" xlink:title=" ">
<polygon fill="white" stroke="#666666" points="787.5,-134.5 638.5,-134.5 638.5,-115.5 787.5,-115.5 787.5,-134.5"/>
<text text-anchor="middle" x="713" y="-122.5" font-family="Helvetica,sans-Serif" font-size="10.00">src/racing/render_courses.c</text>
</a>
</g>
</g>
<!-- Node2&#45;&gt;Node13 -->
<g id="edge14_Node000002_Node000013" class="edge">
<title>Node2&#45;&gt;Node13</title>
<g id="a_edge14_Node000002_Node000013"><a xlink:title=" ">
<path fill="none" stroke="#63b8ff" d="M763.69,-169.26C750.05,-157.61 733.73,-143.69 723.36,-134.84"/>
<polygon fill="#63b8ff" stroke="#63b8ff" points="761.48,-171.97 771.36,-175.8 766.02,-166.64 761.48,-171.97"/>
</a>
</g>
</g>
<!-- Node2&#45;&gt;Node14 -->
<g id="edge15_Node000002_Node000014" class="edge">
<title>Node2&#45;&gt;Node14</title>
<g id="a_edge15_Node000002_Node000014"><a xlink:title=" ">
<path fill="none" stroke="#63b8ff" d="M851.85,-186.72C955.97,-180.83 1168.62,-166.52 1347,-140 1356.76,-138.55 1367.23,-136.57 1376.93,-134.55"/>
<polygon fill="#63b8ff" stroke="#63b8ff" points="851.61,-183.23 841.82,-187.28 852,-190.22 851.61,-183.23"/>
</a>
</g>
</g>
<!-- Node15 -->
<g id="Node000015" class="node">
<title>Node15</title>
<g id="a_Node000015"><a xlink:href="update__objects_8c.html" target="_top" xlink:title=" ">
<polygon fill="white" stroke="#666666" points="921,-134.5 805,-134.5 805,-115.5 921,-115.5 921,-134.5"/>
<text text-anchor="middle" x="863" y="-122.5" font-family="Helvetica,sans-Serif" font-size="10.00">src/update_objects.c</text>
</a>
</g>
</g>
<!-- Node2&#45;&gt;Node15 -->
<g id="edge16_Node000002_Node000015" class="edge">
<title>Node2&#45;&gt;Node15</title>
<g id="a_edge16_Node000002_Node000015"><a xlink:title=" ">
<path fill="none" stroke="#63b8ff" d="M812.31,-169.26C825.95,-157.61 842.27,-143.69 852.64,-134.84"/>
<polygon fill="#63b8ff" stroke="#63b8ff" points="809.98,-166.64 804.64,-175.8 814.52,-171.97 809.98,-166.64"/>
</a>
</g>
</g>
<!-- Node3&#45;&gt;Node4 -->
<g id="edge3_Node000003_Node000004" class="edge">
<title>Node3&#45;&gt;Node4</title>
<g id="a_edge3_Node000003_Node000004"><a xlink:title=" ">
<path fill="none" stroke="#63b8ff" d="M946.1,-107.02C909.89,-96.21 864.54,-82.67 835.66,-74.05"/>
<polygon fill="#63b8ff" stroke="#63b8ff" points="945.47,-110.48 956.05,-109.99 947.47,-103.77 945.47,-110.48"/>
</a>
</g>
</g>
<!-- Node5&#45;&gt;Node4 -->
<g id="edge5_Node000005_Node000004" class="edge">
<title>Node5&#45;&gt;Node4</title>
<g id="a_edge5_Node000005_Node000004"><a xlink:title=" ">
<path fill="none" stroke="#63b8ff" d="M560.68,-113.53C618.57,-102.24 709.64,-84.48 763.32,-74.02"/>
<polygon fill="#63b8ff" stroke="#63b8ff" points="559.77,-110.14 550.62,-115.49 561.11,-117.01 559.77,-110.14"/>
</a>
</g>
</g>
<!-- Node11 -->
<g id="Node000011" class="node">
<title>Node11</title>
<g id="a_Node000011"><a xlink:href="debug_8inc_8c.html" target="_top" xlink:title=" ">
<polygon fill="white" stroke="#666666" points="268,-74 146,-74 146,-55 268,-55 268,-74"/>
<text text-anchor="middle" x="207" y="-62" font-family="Helvetica,sans-Serif" font-size="10.00">src/debug/debug.inc.c</text>
</a>
</g>
</g>
<!-- Node10&#45;&gt;Node11 -->
<g id="edge11_Node000010_Node000011" class="edge">
<title>Node10&#45;&gt;Node11</title>
<g id="a_edge11_Node000010_Node000011"><a xlink:title=" ">
<path fill="none" stroke="#63b8ff" d="M207,-105.16C207,-94.74 207,-82.3 207,-74.17"/>
<polygon fill="#63b8ff" stroke="#63b8ff" points="203.5,-105.37 207,-115.37 210.5,-105.37 203.5,-105.37"/>
</a>
</g>
</g>
<!-- Node12 -->
<g id="Node000012" class="node">
<title>Node12</title>
<g id="a_Node000012"><a xlink:href="debug_8c.html" target="_top" xlink:title=" ">
<polygon fill="white" stroke="#666666" points="259.5,-19 154.5,-19 154.5,0 259.5,0 259.5,-19"/>
<text text-anchor="middle" x="207" y="-7" font-family="Helvetica,sans-Serif" font-size="10.00">src/debug/debug.c</text>
</a>
</g>
</g>
<!-- Node11&#45;&gt;Node12 -->
<g id="edge12_Node000011_Node000012" class="edge">
<title>Node11&#45;&gt;Node12</title>
<g id="a_edge12_Node000011_Node000012"><a xlink:title=" ">
<path fill="none" stroke="#63b8ff" d="M207,-44.66C207,-35.93 207,-25.99 207,-19.09"/>
<polygon fill="#63b8ff" stroke="#63b8ff" points="203.5,-44.75 207,-54.75 210.5,-44.75 203.5,-44.75"/>
</a>
</g>
</g>
<!-- Node20&#45;&gt;Node19 -->
<g id="edge24_Node000020_Node000019" class="edge">
<title>Node20&#45;&gt;Node19</title>
<g id="a_edge24_Node000020_Node000019"><a xlink:title=" ">
<path fill="none" stroke="#63b8ff" d="M1999.04,-170.03C1984.51,-160.34 1967.41,-148.94 1954.25,-140.16"/>
<polygon fill="#63b8ff" stroke="#63b8ff" points="1997.43,-173.16 2007.69,-175.8 2001.32,-167.34 1997.43,-173.16"/>
</a>
</g>
</g>
<!-- Node21 -->
<g id="Node000021" class="node">
<title>Node21</title>
<g id="a_Node000021"><a xlink:href="Game_8cpp.html" target="_top" xlink:title=" ">
<polygon fill="white" stroke="#666666" points="2125,-134.5 2019,-134.5 2019,-115.5 2125,-115.5 2125,-134.5"/>
<text text-anchor="middle" x="2072" y="-122.5" font-family="Helvetica,sans-Serif" font-size="10.00">src/port/Game.cpp</text>
</a>
</g>
</g>
<!-- Node20&#45;&gt;Node21 -->
<g id="edge25_Node000020_Node000021" class="edge">
<title>Node20&#45;&gt;Node21</title>
<g id="a_edge25_Node000020_Node000021"><a xlink:title=" ">
<path fill="none" stroke="#63b8ff" d="M2044.27,-167.28C2051.8,-156.07 2060.45,-143.19 2066.06,-134.84"/>
<polygon fill="#63b8ff" stroke="#63b8ff" points="2041.21,-165.54 2038.54,-175.8 2047.03,-169.45 2041.21,-165.54"/>
</a>
</g>
</g>
</g>
</svg>

<g id="navigator" transform="translate(0 0)" fill="#404254">
  <rect fill="#f2f5e9" fill-opacity="0.5" stroke="#606060" stroke-width=".5" x="0" y="0" width="60" height="60"/>
  <use id="zoomplus" xlink:href="#zoomPlus" x="17" y="9" onmousedown="handleZoom(evt,'in')"/>
  <use id="zoomminus" xlink:href="#zoomMin" x="42" y="9" onmousedown="handleZoom(evt,'out')"/>
  <use id="reset" xlink:href="#resetDef" x="30" y="36" onmousedown="handleReset()"/>
   <use id="arrowup" xlink:href="#arrowUp" x="0" y="0" onmousedown="handlePan(0,-1)"/>
  <use id="arrowright" xlink:href="#arrowRight" x="0" y="0" onmousedown="handlePan(1,0)"/>
  <use id="arrowdown" xlink:href="#arrowDown" x="0" y="0" onmousedown="handlePan(0,1)"/>
  <use id="arrowleft" xlink:href="#arrowLeft" x="0" y="0" onmousedown="handlePan(-1,0)"/>
</g>
<svg viewBox="0 0 15 15" width="100%" height="30px" preserveAspectRatio="xMaxYMin meet">
 <g id="arrow_out" transform="scale(0.3 0.3)">
  <a xlink:href="models_2tracks_2frappe__snowland_2frappe__snowland__data_8h__dep__incl_org.svg" target="_base">
   <rect id="button" ry="5" rx="5" y="6" x="6" height="38" width="38"
        fill="#f2f5e9" fill-opacity="0.5" stroke="#606060" stroke-width="1.0"/>
   <path id="arrow"
     d="M 11.500037,31.436501 C 11.940474,20.09759 22.043105,11.32322 32.158766,21.979434 L 37.068811,17.246167 C 37.068811,17.246167 37.088388,32 37.088388,32 L 22.160133,31.978069 C 22.160133,31.978069 26.997745,27.140456 26.997745,27.140456 C 18.528582,18.264221 13.291696,25.230495 11.500037,31.436501 z"
     style="fill:#404040;"/>
  </a>
 </g>
</svg>

<style type='text/css'>
<![CDATA[
[data-mouse-over-selected='false'] { opacity: 0.7; }
[data-mouse-over-selected='true']  { opacity: 1.0; }
]]>
</style>
<script type="application/ecmascript"><![CDATA[
document.addEventListener('DOMContentLoaded', (event) => {
  highlightEdges();
  highlightAdjacentNodes();
});
]]></script>
</svg>
