<?xml version="1.0" encoding="UTF-8" standalone="no"?>
<!DOCTYPE svg PUBLIC "-//W3C//DTD SVG 1.1//EN"
 "http://www.w3.org/Graphics/SVG/1.1/DTD/svg11.dtd">
<!-- Generated by graphviz version 2.43.0 (0)
 -->
<!-- Title: include/assets/models/tracks/moo_moo_farm/moo_moo_farm_data.h Pages: 1 -->
<svg width="1940pt" height="291pt"
 viewBox="0.00 0.00 1940.00 291.00" xmlns="http://www.w3.org/2000/svg" xmlns:xlink="http://www.w3.org/1999/xlink">
<g id="graph0" class="graph" transform="scale(1 1) rotate(0) translate(4 287)">
<title>include/assets/models/tracks/moo_moo_farm/moo_moo_farm_data.h</title>
<!-- Node1 -->
<g id="Node000001" class="node">
<title>Node1</title>
<g id="a_Node000001"><a xlink:title=" ">
<polygon fill="#999999" stroke="#666666" points="1487,-283 1354,-283 1354,-242 1487,-242 1487,-283"/>
<text text-anchor="start" x="1362" y="-271" font-family="Helvetica,sans-Serif" font-size="10.00">include/assets/models</text>
<text text-anchor="start" x="1362" y="-260" font-family="Helvetica,sans-Serif" font-size="10.00">/tracks/moo_moo_farm</text>
<text text-anchor="middle" x="1420.5" y="-249" font-family="Helvetica,sans-Serif" font-size="10.00">/moo_moo_farm_data.h</text>
</a>
</g>
</g>
<!-- Node2 -->
<g id="Node000002" class="node">
<title>Node2</title>
<g id="a_Node000002"><a xlink:href="all__course__data_8h.html" target="_top" xlink:title=" ">
<polygon fill="white" stroke="#666666" points="841,-206 734,-206 734,-176 841,-176 841,-206"/>
<text text-anchor="start" x="742" y="-194" font-family="Helvetica,sans-Serif" font-size="10.00">courses/all_course</text>
<text text-anchor="middle" x="787.5" y="-183" font-family="Helvetica,sans-Serif" font-size="10.00">_data.h</text>
</a>
</g>
</g>
<!-- Node1&#45;&gt;Node2 -->
<g id="edge1_Node000001_Node000002" class="edge">
<title>Node1&#45;&gt;Node2</title>
<g id="a_edge1_Node000001_Node000002"><a xlink:title=" ">
<path fill="none" stroke="#63b8ff" d="M1343.69,-253.07C1213.75,-238.8 953.73,-210.25 841.32,-197.91"/>
<polygon fill="#63b8ff" stroke="#63b8ff" points="1343.63,-256.58 1353.95,-254.19 1344.4,-249.62 1343.63,-256.58"/>
</a>
</g>
</g>
<!-- Node6 -->
<g id="Node000006" class="node">
<title>Node6</title>
<g id="a_Node000006"><a xlink:href="code__800029B0_8c.html" target="_top" xlink:title=" ">
<polygon fill="white" stroke="#666666" points="119,-134.5 0,-134.5 0,-115.5 119,-115.5 119,-134.5"/>
<text text-anchor="middle" x="59.5" y="-122.5" font-family="Helvetica,sans-Serif" font-size="10.00">src/code_800029B0.c</text>
</a>
</g>
</g>
<!-- Node1&#45;&gt;Node6 -->
<g id="edge20_Node000001_Node000006" class="edge">
<title>Node1&#45;&gt;Node6</title>
<g id="a_edge20_Node000001_Node000006"><a xlink:title=" ">
<path fill="none" stroke="#63b8ff" d="M1343.78,-257.59C1143.11,-246.63 586.58,-211.69 128.5,-140 118.72,-138.47 108.22,-136.51 98.43,-134.54"/>
<polygon fill="#63b8ff" stroke="#63b8ff" points="1343.74,-261.09 1353.92,-258.13 1344.12,-254.1 1343.74,-261.09"/>
</a>
</g>
</g>
<!-- Node9 -->
<g id="Node000009" class="node">
<title>Node9</title>
<g id="a_Node000009"><a xlink:href="path__spawn__metadata_8c.html" target="_top" xlink:title=" ">
<polygon fill="white" stroke="#666666" points="1340,-140 1223,-140 1223,-110 1340,-110 1340,-140"/>
<text text-anchor="start" x="1231" y="-128" font-family="Helvetica,sans-Serif" font-size="10.00">src/data/path_spawn</text>
<text text-anchor="middle" x="1281.5" y="-117" font-family="Helvetica,sans-Serif" font-size="10.00">_metadata.c</text>
</a>
</g>
</g>
<!-- Node1&#45;&gt;Node9 -->
<g id="edge21_Node000001_Node000009" class="edge">
<title>Node1&#45;&gt;Node9</title>
<g id="a_edge21_Node000001_Node000009"><a xlink:title=" ">
<path fill="none" stroke="#63b8ff" d="M1371.27,-236.82C1357.11,-228.28 1342.31,-217.84 1330.5,-206 1310.84,-186.28 1295.58,-157.21 1287.62,-140.08"/>
<polygon fill="#63b8ff" stroke="#63b8ff" points="1369.58,-239.88 1379.98,-241.89 1373.1,-233.83 1369.58,-239.88"/>
</a>
</g>
</g>
<!-- Node14 -->
<g id="Node000014" class="node">
<title>Node14</title>
<g id="a_Node000014"><a xlink:href="render__objects_8c.html" target="_top" xlink:title=" ">
<polygon fill="white" stroke="#666666" points="1472.5,-134.5 1358.5,-134.5 1358.5,-115.5 1472.5,-115.5 1472.5,-134.5"/>
<text text-anchor="middle" x="1415.5" y="-122.5" font-family="Helvetica,sans-Serif" font-size="10.00">src/render_objects.c</text>
</a>
</g>
</g>
<!-- Node1&#45;&gt;Node14 -->
<g id="edge27_Node000001_Node000014" class="edge">
<title>Node1&#45;&gt;Node14</title>
<g id="a_edge27_Node000001_Node000014"><a xlink:title=" ">
<path fill="none" stroke="#63b8ff" d="M1367.2,-236.48C1355.7,-228.44 1345.05,-218.34 1338.5,-206 1332.25,-194.22 1332.14,-187.72 1338.5,-176 1349.53,-155.69 1372.77,-142.35 1390.84,-134.59"/>
<polygon fill="#63b8ff" stroke="#63b8ff" points="1365.38,-239.47 1375.67,-241.97 1369.18,-233.59 1365.38,-239.47"/>
</a>
</g>
</g>
<!-- Node16 -->
<g id="Node000016" class="node">
<title>Node16</title>
<g id="a_Node000016"><a xlink:href="moo__moo__farm_2course__offsets_8c.html" target="_top" xlink:title=" ">
<polygon fill="white" stroke="#666666" points="1645.5,-206 1511.5,-206 1511.5,-176 1645.5,-176 1645.5,-206"/>
<text text-anchor="start" x="1519.5" y="-194" font-family="Helvetica,sans-Serif" font-size="10.00">courses/moo_moo_farm</text>
<text text-anchor="middle" x="1578.5" y="-183" font-family="Helvetica,sans-Serif" font-size="10.00">/course_offsets.c</text>
</a>
</g>
</g>
<!-- Node1&#45;&gt;Node16 -->
<g id="edge17_Node000001_Node000016" class="edge">
<title>Node1&#45;&gt;Node16</title>
<g id="a_edge17_Node000001_Node000016"><a xlink:title=" ">
<path fill="none" stroke="#63b8ff" d="M1474.28,-237.85C1498.26,-227.3 1525.71,-215.22 1546.42,-206.11"/>
<polygon fill="#63b8ff" stroke="#63b8ff" points="1472.68,-234.73 1464.93,-241.96 1475.5,-241.13 1472.68,-234.73"/>
</a>
</g>
</g>
<!-- Node17 -->
<g id="Node000017" class="node">
<title>Node17</title>
<g id="a_Node000017"><a xlink:href="cow_2render_8inc_8c.html" target="_top" xlink:title=" ">
<polygon fill="white" stroke="#666666" points="1493.5,-200.5 1347.5,-200.5 1347.5,-181.5 1493.5,-181.5 1493.5,-200.5"/>
<text text-anchor="middle" x="1420.5" y="-188.5" font-family="Helvetica,sans-Serif" font-size="10.00">src/actors/cow/render.inc.c</text>
</a>
</g>
</g>
<!-- Node1&#45;&gt;Node17 -->
<g id="edge18_Node000001_Node000017" class="edge">
<title>Node1&#45;&gt;Node17</title>
<g id="a_edge18_Node000001_Node000017"><a xlink:title=" ">
<path fill="none" stroke="#63b8ff" d="M1420.5,-231.47C1420.5,-220.35 1420.5,-208.58 1420.5,-200.82"/>
<polygon fill="#63b8ff" stroke="#63b8ff" points="1417,-231.77 1420.5,-241.77 1424,-231.77 1417,-231.77"/>
</a>
</g>
</g>
<!-- Node18 -->
<g id="Node000018" class="node">
<title>Node18</title>
<g id="a_Node000018"><a xlink:href="MooMooFarm_8cpp.html" target="_top" xlink:title=" ">
<polygon fill="white" stroke="#666666" points="1727,-140 1620,-140 1620,-110 1727,-110 1727,-140"/>
<text text-anchor="start" x="1628" y="-128" font-family="Helvetica,sans-Serif" font-size="10.00">src/engine/courses</text>
<text text-anchor="middle" x="1673.5" y="-117" font-family="Helvetica,sans-Serif" font-size="10.00">/MooMooFarm.cpp</text>
</a>
</g>
</g>
<!-- Node1&#45;&gt;Node18 -->
<g id="edge22_Node000001_Node000018" class="edge">
<title>Node1&#45;&gt;Node18</title>
<g id="a_edge22_Node000001_Node000018"><a xlink:title=" ">
<path fill="none" stroke="#63b8ff" d="M1497.29,-252.07C1556.72,-243.21 1632.48,-228.01 1654.5,-206 1671.97,-188.54 1674.5,-158.14 1674.31,-140.27"/>
<polygon fill="#63b8ff" stroke="#63b8ff" points="1496.55,-248.64 1487.15,-253.54 1497.55,-255.56 1496.55,-248.64"/>
</a>
</g>
</g>
<!-- Node19 -->
<g id="Node000019" class="node">
<title>Node19</title>
<g id="a_Node000019"><a xlink:href="MooMooFarm_8h.html" target="_top" xlink:title=" ">
<polygon fill="white" stroke="#666666" points="1809,-206 1702,-206 1702,-176 1809,-176 1809,-206"/>
<text text-anchor="start" x="1710" y="-194" font-family="Helvetica,sans-Serif" font-size="10.00">src/engine/courses</text>
<text text-anchor="middle" x="1755.5" y="-183" font-family="Helvetica,sans-Serif" font-size="10.00">/MooMooFarm.h</text>
</a>
</g>
</g>
<!-- Node1&#45;&gt;Node19 -->
<g id="edge23_Node000001_Node000019" class="edge">
<title>Node1&#45;&gt;Node19</title>
<g id="a_edge23_Node000001_Node000019"><a xlink:title=" ">
<path fill="none" stroke="#63b8ff" d="M1496.92,-245.65C1559.55,-232.65 1646.6,-214.59 1702,-203.1"/>
<polygon fill="#63b8ff" stroke="#63b8ff" points="1496.17,-242.23 1487.09,-247.69 1497.59,-249.08 1496.17,-242.23"/>
</a>
</g>
</g>
<!-- Node21 -->
<g id="Node000021" class="node">
<title>Node21</title>
<g id="a_Node000021"><a xlink:href="Mole_8cpp.html" target="_top" xlink:title=" ">
<polygon fill="white" stroke="#666666" points="1932,-206 1827,-206 1827,-176 1932,-176 1932,-206"/>
<text text-anchor="start" x="1835" y="-194" font-family="Helvetica,sans-Serif" font-size="10.00">src/engine/objects</text>
<text text-anchor="middle" x="1879.5" y="-183" font-family="Helvetica,sans-Serif" font-size="10.00">/Mole.cpp</text>
</a>
</g>
</g>
<!-- Node1&#45;&gt;Node21 -->
<g id="edge26_Node000001_Node000021" class="edge">
<title>Node1&#45;&gt;Node21</title>
<g id="a_edge26_Node000001_Node000021"><a xlink:title=" ">
<path fill="none" stroke="#63b8ff" d="M1497.16,-252.7C1577.34,-243.05 1706.71,-226.22 1817.5,-206 1820.54,-205.45 1823.66,-204.84 1826.8,-204.21"/>
<polygon fill="#63b8ff" stroke="#63b8ff" points="1496.66,-249.24 1487.15,-253.9 1497.5,-256.19 1496.66,-249.24"/>
</a>
</g>
</g>
<!-- Node3 -->
<g id="Node000003" class="node">
<title>Node3</title>
<g id="a_Node000003"><a xlink:href="paddle__boat_2render_8inc_8c.html" target="_top" xlink:title=" ">
<polygon fill="white" stroke="#666666" points="1066,-140 939,-140 939,-110 1066,-110 1066,-140"/>
<text text-anchor="start" x="947" y="-128" font-family="Helvetica,sans-Serif" font-size="10.00">src/actors/paddle_boat</text>
<text text-anchor="middle" x="1002.5" y="-117" font-family="Helvetica,sans-Serif" font-size="10.00">/render.inc.c</text>
</a>
</g>
</g>
<!-- Node2&#45;&gt;Node3 -->
<g id="edge2_Node000002_Node000003" class="edge">
<title>Node2&#45;&gt;Node3</title>
<g id="a_edge2_Node000002_Node000003"><a xlink:title=" ">
<path fill="none" stroke="#63b8ff" d="M844.65,-172.99C879.24,-162.69 922.83,-149.72 955.43,-140.01"/>
<polygon fill="#63b8ff" stroke="#63b8ff" points="843.27,-169.75 834.68,-175.95 845.27,-176.46 843.27,-169.75"/>
</a>
</g>
</g>
<!-- Node4 -->
<g id="Node000004" class="node">
<title>Node4</title>
<g id="a_Node000004"><a xlink:href="actors_8c.html" target="_top" xlink:title=" ">
<polygon fill="white" stroke="#666666" points="859,-74 754,-74 754,-55 859,-55 859,-74"/>
<text text-anchor="middle" x="806.5" y="-62" font-family="Helvetica,sans-Serif" font-size="10.00">src/racing/actors.c</text>
</a>
</g>
</g>
<!-- Node2&#45;&gt;Node4 -->
<g id="edge13_Node000002_Node000004" class="edge">
<title>Node2&#45;&gt;Node4</title>
<g id="a_edge13_Node000002_Node000004"><a xlink:title=" ">
<path fill="none" stroke="#63b8ff" d="M723.75,-181.01C667.29,-170.32 598.18,-148.83 628.5,-110 643.84,-90.35 706.95,-78.1 753.69,-71.54"/>
<polygon fill="#63b8ff" stroke="#63b8ff" points="723.29,-184.49 733.76,-182.82 724.54,-177.6 723.29,-184.49"/>
</a>
</g>
</g>
<!-- Node5 -->
<g id="Node000005" class="node">
<title>Node5</title>
<g id="a_Node000005"><a xlink:href="trees_2render_8inc_8c.html" target="_top" xlink:title=" ">
<polygon fill="white" stroke="#666666" points="582,-134.5 431,-134.5 431,-115.5 582,-115.5 582,-134.5"/>
<text text-anchor="middle" x="506.5" y="-122.5" font-family="Helvetica,sans-Serif" font-size="10.00">src/actors/trees/render.inc.c</text>
</a>
</g>
</g>
<!-- Node2&#45;&gt;Node5 -->
<g id="edge4_Node000002_Node000005" class="edge">
<title>Node2&#45;&gt;Node5</title>
<g id="a_edge4_Node000002_Node000005"><a xlink:title=" ">
<path fill="none" stroke="#63b8ff" d="M723.92,-175.52C668.52,-162.9 590.04,-145.03 544.09,-134.56"/>
<polygon fill="#63b8ff" stroke="#63b8ff" points="723.46,-179 733.98,-177.81 725.01,-172.18 723.46,-179"/>
</a>
</g>
</g>
<!-- Node2&#45;&gt;Node6 -->
<g id="edge6_Node000002_Node000006" class="edge">
<title>Node2&#45;&gt;Node6</title>
<g id="a_edge6_Node000002_Node000006"><a xlink:title=" ">
<path fill="none" stroke="#63b8ff" d="M723.58,-187.79C605.53,-183.13 345.55,-170.13 128.5,-140 118.33,-138.59 107.41,-136.6 97.32,-134.56"/>
<polygon fill="#63b8ff" stroke="#63b8ff" points="723.74,-191.3 733.87,-188.19 724.01,-184.31 723.74,-191.3"/>
</a>
</g>
</g>
<!-- Node7 -->
<g id="Node000007" class="node">
<title>Node7</title>
<g id="a_Node000007"><a xlink:href="code__80005FD0_8c.html" target="_top" xlink:title=" ">
<polygon fill="white" stroke="#666666" points="1204.5,-134.5 1084.5,-134.5 1084.5,-115.5 1204.5,-115.5 1204.5,-134.5"/>
<text text-anchor="middle" x="1144.5" y="-122.5" font-family="Helvetica,sans-Serif" font-size="10.00">src/code_80005FD0.c</text>
</a>
</g>
</g>
<!-- Node2&#45;&gt;Node7 -->
<g id="edge7_Node000002_Node000007" class="edge">
<title>Node2&#45;&gt;Node7</title>
<g id="a_edge7_Node000002_Node000007"><a xlink:title=" ">
<path fill="none" stroke="#63b8ff" d="M851.41,-179.33C909.63,-169.51 997.94,-154.32 1074.5,-140 1083.64,-138.29 1093.43,-136.38 1102.71,-134.54"/>
<polygon fill="#63b8ff" stroke="#63b8ff" points="850.54,-175.93 841.26,-181.05 851.7,-182.83 850.54,-175.93"/>
</a>
</g>
</g>
<!-- Node8 -->
<g id="Node000008" class="node">
<title>Node8</title>
<g id="a_Node000008"><a xlink:href="code__8006E9C0_8c.html" target="_top" xlink:title=" ">
<polygon fill="white" stroke="#666666" points="413,-134.5 294,-134.5 294,-115.5 413,-115.5 413,-134.5"/>
<text text-anchor="middle" x="353.5" y="-122.5" font-family="Helvetica,sans-Serif" font-size="10.00">src/code_8006E9C0.c</text>
</a>
</g>
</g>
<!-- Node2&#45;&gt;Node8 -->
<g id="edge8_Node000002_Node000008" class="edge">
<title>Node2&#45;&gt;Node8</title>
<g id="a_edge8_Node000002_Node000008"><a xlink:title=" ">
<path fill="none" stroke="#63b8ff" d="M724.01,-182.64C650.86,-173.86 527.15,-158.07 421.5,-140 412.11,-138.39 402.05,-136.45 392.61,-134.52"/>
<polygon fill="#63b8ff" stroke="#63b8ff" points="723.64,-186.12 733.99,-183.83 724.47,-179.17 723.64,-186.12"/>
</a>
</g>
</g>
<!-- Node2&#45;&gt;Node9 -->
<g id="edge9_Node000002_Node000009" class="edge">
<title>Node2&#45;&gt;Node9</title>
<g id="a_edge9_Node000002_Node000009"><a xlink:title=" ">
<path fill="none" stroke="#63b8ff" d="M851.26,-184.25C934.76,-176.32 1085.59,-160.63 1213.5,-140 1216.59,-139.5 1219.76,-138.96 1222.95,-138.39"/>
<polygon fill="#63b8ff" stroke="#63b8ff" points="850.8,-180.78 841.17,-185.2 851.45,-187.74 850.8,-180.78"/>
</a>
</g>
</g>
<!-- Node10 -->
<g id="Node000010" class="node">
<title>Node10</title>
<g id="a_Node000010"><a xlink:href="all__variables_8h.html" target="_top" xlink:title=" ">
<polygon fill="white" stroke="#666666" points="275.5,-134.5 137.5,-134.5 137.5,-115.5 275.5,-115.5 275.5,-134.5"/>
<text text-anchor="middle" x="206.5" y="-122.5" font-family="Helvetica,sans-Serif" font-size="10.00">src/debug/all_variables.h</text>
</a>
</g>
</g>
<!-- Node2&#45;&gt;Node10 -->
<g id="edge10_Node000002_Node000010" class="edge">
<title>Node2&#45;&gt;Node10</title>
<g id="a_edge10_Node000002_Node000010"><a xlink:title=" ">
<path fill="none" stroke="#63b8ff" d="M723.64,-185.27C627.94,-177.81 441.74,-161.89 284.5,-140 273.46,-138.46 261.6,-136.5 250.54,-134.53"/>
<polygon fill="#63b8ff" stroke="#63b8ff" points="723.5,-188.77 733.74,-186.05 724.04,-181.79 723.5,-188.77"/>
</a>
</g>
</g>
<!-- Node13 -->
<g id="Node000013" class="node">
<title>Node13</title>
<g id="a_Node000013"><a xlink:href="render__courses_8c.html" target="_top" xlink:title=" ">
<polygon fill="white" stroke="#666666" points="787,-134.5 638,-134.5 638,-115.5 787,-115.5 787,-134.5"/>
<text text-anchor="middle" x="712.5" y="-122.5" font-family="Helvetica,sans-Serif" font-size="10.00">src/racing/render_courses.c</text>
</a>
</g>
</g>
<!-- Node2&#45;&gt;Node13 -->
<g id="edge14_Node000002_Node000013" class="edge">
<title>Node2&#45;&gt;Node13</title>
<g id="a_edge14_Node000002_Node000013"><a xlink:title=" ">
<path fill="none" stroke="#63b8ff" d="M763.19,-169.26C749.55,-157.61 733.23,-143.69 722.86,-134.84"/>
<polygon fill="#63b8ff" stroke="#63b8ff" points="760.98,-171.97 770.86,-175.8 765.52,-166.64 760.98,-171.97"/>
</a>
</g>
</g>
<!-- Node2&#45;&gt;Node14 -->
<g id="edge15_Node000002_Node000014" class="edge">
<title>Node2&#45;&gt;Node14</title>
<g id="a_edge15_Node000002_Node000014"><a xlink:title=" ">
<path fill="none" stroke="#63b8ff" d="M851.17,-186.76C955.52,-180.9 1169.25,-166.62 1348.5,-140 1358.26,-138.55 1368.73,-136.57 1378.43,-134.55"/>
<polygon fill="#63b8ff" stroke="#63b8ff" points="850.91,-183.27 841.12,-187.32 851.3,-190.26 850.91,-183.27"/>
</a>
</g>
</g>
<!-- Node15 -->
<g id="Node000015" class="node">
<title>Node15</title>
<g id="a_Node000015"><a xlink:href="update__objects_8c.html" target="_top" xlink:title=" ">
<polygon fill="white" stroke="#666666" points="920.5,-134.5 804.5,-134.5 804.5,-115.5 920.5,-115.5 920.5,-134.5"/>
<text text-anchor="middle" x="862.5" y="-122.5" font-family="Helvetica,sans-Serif" font-size="10.00">src/update_objects.c</text>
</a>
</g>
</g>
<!-- Node2&#45;&gt;Node15 -->
<g id="edge16_Node000002_Node000015" class="edge">
<title>Node2&#45;&gt;Node15</title>
<g id="a_edge16_Node000002_Node000015"><a xlink:title=" ">
<path fill="none" stroke="#63b8ff" d="M811.81,-169.26C825.45,-157.61 841.77,-143.69 852.14,-134.84"/>
<polygon fill="#63b8ff" stroke="#63b8ff" points="809.48,-166.64 804.14,-175.8 814.02,-171.97 809.48,-166.64"/>
</a>
</g>
</g>
<!-- Node3&#45;&gt;Node4 -->
<g id="edge3_Node000003_Node000004" class="edge">
<title>Node3&#45;&gt;Node4</title>
<g id="a_edge3_Node000003_Node000004"><a xlink:title=" ">
<path fill="none" stroke="#63b8ff" d="M945.6,-107.02C909.39,-96.21 864.04,-82.67 835.16,-74.05"/>
<polygon fill="#63b8ff" stroke="#63b8ff" points="944.97,-110.48 955.55,-109.99 946.97,-103.77 944.97,-110.48"/>
</a>
</g>
</g>
<!-- Node5&#45;&gt;Node4 -->
<g id="edge5_Node000005_Node000004" class="edge">
<title>Node5&#45;&gt;Node4</title>
<g id="a_edge5_Node000005_Node000004"><a xlink:title=" ">
<path fill="none" stroke="#63b8ff" d="M560.18,-113.53C618.07,-102.24 709.14,-84.48 762.82,-74.02"/>
<polygon fill="#63b8ff" stroke="#63b8ff" points="559.27,-110.14 550.12,-115.49 560.61,-117.01 559.27,-110.14"/>
</a>
</g>
</g>
<!-- Node11 -->
<g id="Node000011" class="node">
<title>Node11</title>
<g id="a_Node000011"><a xlink:href="debug_8inc_8c.html" target="_top" xlink:title=" ">
<polygon fill="white" stroke="#666666" points="267.5,-74 145.5,-74 145.5,-55 267.5,-55 267.5,-74"/>
<text text-anchor="middle" x="206.5" y="-62" font-family="Helvetica,sans-Serif" font-size="10.00">src/debug/debug.inc.c</text>
</a>
</g>
</g>
<!-- Node10&#45;&gt;Node11 -->
<g id="edge11_Node000010_Node000011" class="edge">
<title>Node10&#45;&gt;Node11</title>
<g id="a_edge11_Node000010_Node000011"><a xlink:title=" ">
<path fill="none" stroke="#63b8ff" d="M206.5,-105.16C206.5,-94.74 206.5,-82.3 206.5,-74.17"/>
<polygon fill="#63b8ff" stroke="#63b8ff" points="203,-105.37 206.5,-115.37 210,-105.37 203,-105.37"/>
</a>
</g>
</g>
<!-- Node12 -->
<g id="Node000012" class="node">
<title>Node12</title>
<g id="a_Node000012"><a xlink:href="debug_8c.html" target="_top" xlink:title=" ">
<polygon fill="white" stroke="#666666" points="259,-19 154,-19 154,0 259,0 259,-19"/>
<text text-anchor="middle" x="206.5" y="-7" font-family="Helvetica,sans-Serif" font-size="10.00">src/debug/debug.c</text>
</a>
</g>
</g>
<!-- Node11&#45;&gt;Node12 -->
<g id="edge12_Node000011_Node000012" class="edge">
<title>Node11&#45;&gt;Node12</title>
<g id="a_edge12_Node000011_Node000012"><a xlink:title=" ">
<path fill="none" stroke="#63b8ff" d="M206.5,-44.66C206.5,-35.93 206.5,-25.99 206.5,-19.09"/>
<polygon fill="#63b8ff" stroke="#63b8ff" points="203,-44.75 206.5,-54.75 210,-44.75 203,-44.75"/>
</a>
</g>
</g>
<!-- Node17&#45;&gt;Node4 -->
<g id="edge19_Node000017_Node000004" class="edge">
<title>Node17&#45;&gt;Node4</title>
<g id="a_edge19_Node000017_Node000004"><a xlink:title=" ">
<path fill="none" stroke="#63b8ff" d="M1444.13,-175.83C1468.89,-159.29 1501.59,-131.46 1481.5,-110 1439.29,-64.91 1010.61,-63.88 859.16,-64.94"/>
<polygon fill="#63b8ff" stroke="#63b8ff" points="1442.01,-173.03 1435.48,-181.38 1445.79,-178.92 1442.01,-173.03"/>
</a>
</g>
</g>
<!-- Node19&#45;&gt;Node18 -->
<g id="edge24_Node000019_Node000018" class="edge">
<title>Node19&#45;&gt;Node18</title>
<g id="a_edge24_Node000019_Node000018"><a xlink:title=" ">
<path fill="none" stroke="#63b8ff" d="M1729.21,-169.48C1716.95,-159.91 1702.68,-148.77 1691.65,-140.16"/>
<polygon fill="#63b8ff" stroke="#63b8ff" points="1727.26,-172.4 1737.3,-175.8 1731.57,-166.88 1727.26,-172.4"/>
</a>
</g>
</g>
<!-- Node20 -->
<g id="Node000020" class="node">
<title>Node20</title>
<g id="a_Node000020"><a xlink:href="Game_8cpp.html" target="_top" xlink:title=" ">
<polygon fill="white" stroke="#666666" points="1851.5,-134.5 1745.5,-134.5 1745.5,-115.5 1851.5,-115.5 1851.5,-134.5"/>
<text text-anchor="middle" x="1798.5" y="-122.5" font-family="Helvetica,sans-Serif" font-size="10.00">src/port/Game.cpp</text>
</a>
</g>
</g>
<!-- Node19&#45;&gt;Node20 -->
<g id="edge25_Node000019_Node000020" class="edge">
<title>Node19&#45;&gt;Node20</title>
<g id="a_edge25_Node000019_Node000020"><a xlink:title=" ">
<path fill="none" stroke="#63b8ff" d="M1770.77,-167.28C1778.3,-156.07 1786.95,-143.19 1792.56,-134.84"/>
<polygon fill="#63b8ff" stroke="#63b8ff" points="1767.71,-165.54 1765.04,-175.8 1773.53,-169.45 1767.71,-165.54"/>
</a>
</g>
</g>
</g>
</svg>
