<?xml version="1.0" encoding="UTF-8" standalone="no"?>
<!DOCTYPE svg PUBLIC "-//W3C//DTD SVG 1.1//EN"
 "http://www.w3.org/Graphics/SVG/1.1/DTD/svg11.dtd">
<!-- Generated by graphviz version 2.43.0 (0)
 -->
<!-- Title: include/assets/models/tracks/wario_stadium/wario_stadium_data.h Pages: 1 -->
<svg width="2329pt" height="291pt"
 viewBox="0.00 0.00 2328.50 291.00" xmlns="http://www.w3.org/2000/svg" xmlns:xlink="http://www.w3.org/1999/xlink">
<g id="graph0" class="graph" transform="scale(1 1) rotate(0) translate(4 287)">
<title>include/assets/models/tracks/wario_stadium/wario_stadium_data.h</title>
<!-- Node1 -->
<g id="Node000001" class="node">
<title>Node1</title>
<g id="a_Node000001"><a xlink:title=" ">
<polygon fill="#999999" stroke="#666666" points="1730.5,-283 1602.5,-283 1602.5,-242 1730.5,-242 1730.5,-283"/>
<text text-anchor="start" x="1610.5" y="-271" font-family="Helvetica,sans-Serif" font-size="10.00">include/assets/models</text>
<text text-anchor="start" x="1610.5" y="-260" font-family="Helvetica,sans-Serif" font-size="10.00">/tracks/wario_stadium</text>
<text text-anchor="middle" x="1666.5" y="-249" font-family="Helvetica,sans-Serif" font-size="10.00">/wario_stadium_data.h</text>
</a>
</g>
</g>
<!-- Node2 -->
<g id="Node000002" class="node">
<title>Node2</title>
<g id="a_Node000002"><a xlink:href="all__course__data_8h.html" target="_top" xlink:title=" ">
<polygon fill="white" stroke="#666666" points="891,-206 784,-206 784,-176 891,-176 891,-206"/>
<text text-anchor="start" x="792" y="-194" font-family="Helvetica,sans-Serif" font-size="10.00">courses/all_course</text>
<text text-anchor="middle" x="837.5" y="-183" font-family="Helvetica,sans-Serif" font-size="10.00">_data.h</text>
</a>
</g>
</g>
<!-- Node1&#45;&gt;Node2 -->
<g id="edge1_Node000001_Node000002" class="edge">
<title>Node1&#45;&gt;Node2</title>
<g id="a_edge1_Node000001_Node000002"><a xlink:title=" ">
<path fill="none" stroke="#63b8ff" d="M1592.45,-255.29C1427.83,-241.49 1034.73,-208.54 891.17,-196.5"/>
<polygon fill="#63b8ff" stroke="#63b8ff" points="1592.23,-258.79 1602.48,-256.13 1592.81,-251.81 1592.23,-258.79"/>
</a>
</g>
</g>
<!-- Node4 -->
<g id="Node000004" class="node">
<title>Node4</title>
<g id="a_Node000004"><a xlink:href="actors_8c.html" target="_top" xlink:title=" ">
<polygon fill="white" stroke="#666666" points="1040,-74 935,-74 935,-55 1040,-55 1040,-74"/>
<text text-anchor="middle" x="987.5" y="-62" font-family="Helvetica,sans-Serif" font-size="10.00">src/racing/actors.c</text>
</a>
</g>
</g>
<!-- Node1&#45;&gt;Node4 -->
<g id="edge28_Node000001_Node000004" class="edge">
<title>Node1&#45;&gt;Node4</title>
<g id="a_edge28_Node000001_Node000004"><a xlink:title=" ">
<path fill="none" stroke="#63b8ff" d="M1592.85,-246.08C1567.66,-237.73 1540.96,-225.07 1521.5,-206 1488.61,-173.77 1519.51,-137.4 1482.5,-110 1447.52,-84.11 1160.24,-71.39 1040.05,-67.16"/>
<polygon fill="#63b8ff" stroke="#63b8ff" points="1591.82,-249.42 1602.41,-249.07 1593.91,-242.74 1591.82,-249.42"/>
</a>
</g>
</g>
<!-- Node9 -->
<g id="Node000009" class="node">
<title>Node9</title>
<g id="a_Node000009"><a xlink:href="path__spawn__metadata_8c.html" target="_top" xlink:title=" ">
<polygon fill="white" stroke="#666666" points="1474,-140 1357,-140 1357,-110 1474,-110 1474,-140"/>
<text text-anchor="start" x="1365" y="-128" font-family="Helvetica,sans-Serif" font-size="10.00">src/data/path_spawn</text>
<text text-anchor="middle" x="1415.5" y="-117" font-family="Helvetica,sans-Serif" font-size="10.00">_metadata.c</text>
</a>
</g>
</g>
<!-- Node1&#45;&gt;Node9 -->
<g id="edge20_Node000001_Node000009" class="edge">
<title>Node1&#45;&gt;Node9</title>
<g id="a_edge20_Node000001_Node000009"><a xlink:title=" ">
<path fill="none" stroke="#63b8ff" d="M1592.69,-247.75C1559.11,-239.24 1519.94,-226.01 1488.5,-206 1461.06,-188.54 1437.37,-158.14 1424.89,-140.27"/>
<polygon fill="#63b8ff" stroke="#63b8ff" points="1591.91,-251.17 1602.46,-250.14 1593.57,-244.37 1591.91,-251.17"/>
</a>
</g>
</g>
<!-- Node16 -->
<g id="Node000016" class="node">
<title>Node16</title>
<g id="a_Node000016"><a xlink:href="wario__stadium_2course__offsets_8c.html" target="_top" xlink:title=" ">
<polygon fill="white" stroke="#666666" points="1660,-206 1531,-206 1531,-176 1660,-176 1660,-206"/>
<text text-anchor="start" x="1539" y="-194" font-family="Helvetica,sans-Serif" font-size="10.00">courses/wario_stadium</text>
<text text-anchor="middle" x="1595.5" y="-183" font-family="Helvetica,sans-Serif" font-size="10.00">/course_offsets.c</text>
</a>
</g>
</g>
<!-- Node1&#45;&gt;Node16 -->
<g id="edge17_Node000001_Node000016" class="edge">
<title>Node1&#45;&gt;Node16</title>
<g id="a_edge17_Node000001_Node000016"><a xlink:title=" ">
<path fill="none" stroke="#63b8ff" d="M1638.97,-234.55C1629.02,-224.81 1618.2,-214.22 1609.84,-206.04"/>
<polygon fill="#63b8ff" stroke="#63b8ff" points="1636.75,-237.28 1646.34,-241.77 1641.65,-232.27 1636.75,-237.28"/>
</a>
</g>
</g>
<!-- Node17 -->
<g id="Node000017" class="node">
<title>Node17</title>
<g id="a_Node000017"><a xlink:href="wario__sign_2render_8inc_8c.html" target="_top" xlink:title=" ">
<polygon fill="white" stroke="#666666" points="1797,-206 1678,-206 1678,-176 1797,-176 1797,-206"/>
<text text-anchor="start" x="1686" y="-194" font-family="Helvetica,sans-Serif" font-size="10.00">src/actors/wario_sign</text>
<text text-anchor="middle" x="1737.5" y="-183" font-family="Helvetica,sans-Serif" font-size="10.00">/render.inc.c</text>
</a>
</g>
</g>
<!-- Node1&#45;&gt;Node17 -->
<g id="edge18_Node000001_Node000017" class="edge">
<title>Node1&#45;&gt;Node17</title>
<g id="a_edge18_Node000001_Node000017"><a xlink:title=" ">
<path fill="none" stroke="#63b8ff" d="M1694.03,-234.55C1703.98,-224.81 1714.8,-214.22 1723.16,-206.04"/>
<polygon fill="#63b8ff" stroke="#63b8ff" points="1691.35,-232.27 1686.66,-241.77 1696.25,-237.28 1691.35,-232.27"/>
</a>
</g>
</g>
<!-- Node18 -->
<g id="Node000018" class="node">
<title>Node18</title>
<g id="a_Node000018"><a xlink:href="WarioSign_8cpp.html" target="_top" xlink:title=" ">
<polygon fill="white" stroke="#666666" points="1987.5,-200.5 1815.5,-200.5 1815.5,-181.5 1987.5,-181.5 1987.5,-200.5"/>
<text text-anchor="middle" x="1901.5" y="-188.5" font-family="Helvetica,sans-Serif" font-size="10.00">src/engine/actors/WarioSign.cpp</text>
</a>
</g>
</g>
<!-- Node1&#45;&gt;Node18 -->
<g id="edge21_Node000001_Node000018" class="edge">
<title>Node1&#45;&gt;Node18</title>
<g id="a_edge21_Node000001_Node000018"><a xlink:title=" ">
<path fill="none" stroke="#63b8ff" d="M1740.4,-239.64C1785.19,-226.4 1839.83,-210.24 1872.58,-200.55"/>
<polygon fill="#63b8ff" stroke="#63b8ff" points="1739.31,-236.32 1730.71,-242.51 1741.3,-243.03 1739.31,-236.32"/>
</a>
</g>
</g>
<!-- Node19 -->
<g id="Node000019" class="node">
<title>Node19</title>
<g id="a_Node000019"><a xlink:href="WarioStadium_8cpp.html" target="_top" xlink:title=" ">
<polygon fill="white" stroke="#666666" points="2111,-134.5 1920,-134.5 1920,-115.5 2111,-115.5 2111,-134.5"/>
<text text-anchor="middle" x="2015.5" y="-122.5" font-family="Helvetica,sans-Serif" font-size="10.00">src/engine/tracks/WarioStadium.cpp</text>
</a>
</g>
</g>
<!-- Node1&#45;&gt;Node19 -->
<g id="edge22_Node000001_Node000019" class="edge">
<title>Node1&#45;&gt;Node19</title>
<g id="a_edge22_Node000001_Node000019"><a xlink:title=" ">
<path fill="none" stroke="#63b8ff" d="M1740.86,-258.35C1826.61,-253.15 1960.42,-239.75 1996.5,-206 2016.62,-187.18 2017.2,-151.27 2016.27,-134.73"/>
<polygon fill="#63b8ff" stroke="#63b8ff" points="1740.44,-254.87 1730.66,-258.94 1740.84,-261.86 1740.44,-254.87"/>
</a>
</g>
</g>
<!-- Node20 -->
<g id="Node000020" class="node">
<title>Node20</title>
<g id="a_Node000020"><a xlink:href="WarioStadium_8h.html" target="_top" xlink:title=" ">
<polygon fill="white" stroke="#666666" points="2223.5,-200.5 2043.5,-200.5 2043.5,-181.5 2223.5,-181.5 2223.5,-200.5"/>
<text text-anchor="middle" x="2133.5" y="-188.5" font-family="Helvetica,sans-Serif" font-size="10.00">src/engine/tracks/WarioStadium.h</text>
</a>
</g>
</g>
<!-- Node1&#45;&gt;Node20 -->
<g id="edge23_Node000001_Node000020" class="edge">
<title>Node1&#45;&gt;Node20</title>
<g id="a_edge23_Node000001_Node000020"><a xlink:title=" ">
<path fill="none" stroke="#63b8ff" d="M1740.87,-250.43C1834.12,-236.55 1991.95,-213.07 2076.31,-200.51"/>
<polygon fill="#63b8ff" stroke="#63b8ff" points="1740.32,-246.98 1730.94,-251.91 1741.35,-253.9 1740.32,-246.98"/>
</a>
</g>
</g>
<!-- Node3 -->
<g id="Node000003" class="node">
<title>Node3</title>
<g id="a_Node000003"><a xlink:href="paddle__boat_2render_8inc_8c.html" target="_top" xlink:title=" ">
<polygon fill="white" stroke="#666666" points="855,-140 728,-140 728,-110 855,-110 855,-140"/>
<text text-anchor="start" x="736" y="-128" font-family="Helvetica,sans-Serif" font-size="10.00">src/actors/paddle_boat</text>
<text text-anchor="middle" x="791.5" y="-117" font-family="Helvetica,sans-Serif" font-size="10.00">/render.inc.c</text>
</a>
</g>
</g>
<!-- Node2&#45;&gt;Node3 -->
<g id="edge2_Node000002_Node000003" class="edge">
<title>Node2&#45;&gt;Node3</title>
<g id="a_edge2_Node000002_Node000003"><a xlink:title=" ">
<path fill="none" stroke="#63b8ff" d="M821.35,-167.53C814.81,-158.43 807.45,-148.19 801.68,-140.16"/>
<polygon fill="#63b8ff" stroke="#63b8ff" points="818.61,-169.72 827.29,-175.8 824.3,-165.63 818.61,-169.72"/>
</a>
</g>
</g>
<!-- Node2&#45;&gt;Node4 -->
<g id="edge13_Node000002_Node000004" class="edge">
<title>Node2&#45;&gt;Node4</title>
<g id="a_edge13_Node000002_Node000004"><a xlink:title=" ">
<path fill="none" stroke="#63b8ff" d="M852.08,-167.41C864.07,-150.11 882.33,-126.49 902.5,-110 921.71,-94.29 947.36,-81.79 965.44,-74.09"/>
<polygon fill="#63b8ff" stroke="#63b8ff" points="849.1,-165.56 846.4,-175.8 854.9,-169.48 849.1,-165.56"/>
</a>
</g>
</g>
<!-- Node5 -->
<g id="Node000005" class="node">
<title>Node5</title>
<g id="a_Node000005"><a xlink:href="trees_2render_8inc_8c.html" target="_top" xlink:title=" ">
<polygon fill="white" stroke="#666666" points="1063,-134.5 912,-134.5 912,-115.5 1063,-115.5 1063,-134.5"/>
<text text-anchor="middle" x="987.5" y="-122.5" font-family="Helvetica,sans-Serif" font-size="10.00">src/actors/trees/render.inc.c</text>
</a>
</g>
</g>
<!-- Node2&#45;&gt;Node5 -->
<g id="edge4_Node000002_Node000005" class="edge">
<title>Node2&#45;&gt;Node5</title>
<g id="a_edge4_Node000002_Node000005"><a xlink:title=" ">
<path fill="none" stroke="#63b8ff" d="M879.83,-171.94C908.56,-159.68 945.26,-144.02 967.54,-134.52"/>
<polygon fill="#63b8ff" stroke="#63b8ff" points="878.24,-168.81 870.42,-175.95 880.99,-175.25 878.24,-168.81"/>
</a>
</g>
</g>
<!-- Node6 -->
<g id="Node000006" class="node">
<title>Node6</title>
<g id="a_Node000006"><a xlink:href="code__800029B0_8c.html" target="_top" xlink:title=" ">
<polygon fill="white" stroke="#666666" points="1200,-134.5 1081,-134.5 1081,-115.5 1200,-115.5 1200,-134.5"/>
<text text-anchor="middle" x="1140.5" y="-122.5" font-family="Helvetica,sans-Serif" font-size="10.00">src/code_800029B0.c</text>
</a>
</g>
</g>
<!-- Node2&#45;&gt;Node6 -->
<g id="edge6_Node000002_Node000006" class="edge">
<title>Node2&#45;&gt;Node6</title>
<g id="a_edge6_Node000002_Node000006"><a xlink:title=" ">
<path fill="none" stroke="#63b8ff" d="M901.45,-176.49C961.48,-163.81 1049.45,-145.23 1100.24,-134.5"/>
<polygon fill="#63b8ff" stroke="#63b8ff" points="900.38,-173.14 891.32,-178.63 901.83,-179.99 900.38,-173.14"/>
</a>
</g>
</g>
<!-- Node7 -->
<g id="Node000007" class="node">
<title>Node7</title>
<g id="a_Node000007"><a xlink:href="code__80005FD0_8c.html" target="_top" xlink:title=" ">
<polygon fill="white" stroke="#666666" points="1338.5,-134.5 1218.5,-134.5 1218.5,-115.5 1338.5,-115.5 1338.5,-134.5"/>
<text text-anchor="middle" x="1278.5" y="-122.5" font-family="Helvetica,sans-Serif" font-size="10.00">src/code_80005FD0.c</text>
</a>
</g>
</g>
<!-- Node2&#45;&gt;Node7 -->
<g id="edge7_Node000002_Node000007" class="edge">
<title>Node2&#45;&gt;Node7</title>
<g id="a_edge7_Node000002_Node000007"><a xlink:title=" ">
<path fill="none" stroke="#63b8ff" d="M901.21,-182.66C975.26,-173.84 1101.05,-157.97 1208.5,-140 1218.16,-138.39 1228.52,-136.43 1238.23,-134.51"/>
<polygon fill="#63b8ff" stroke="#63b8ff" points="900.63,-179.2 891.11,-183.86 901.45,-186.16 900.63,-179.2"/>
</a>
</g>
</g>
<!-- Node8 -->
<g id="Node000008" class="node">
<title>Node8</title>
<g id="a_Node000008"><a xlink:href="code__8006E9C0_8c.html" target="_top" xlink:title=" ">
<polygon fill="white" stroke="#666666" points="119,-134.5 0,-134.5 0,-115.5 119,-115.5 119,-134.5"/>
<text text-anchor="middle" x="59.5" y="-122.5" font-family="Helvetica,sans-Serif" font-size="10.00">src/code_8006E9C0.c</text>
</a>
</g>
</g>
<!-- Node2&#45;&gt;Node8 -->
<g id="edge8_Node000002_Node000008" class="edge">
<title>Node2&#45;&gt;Node8</title>
<g id="a_edge8_Node000002_Node000008"><a xlink:title=" ">
<path fill="none" stroke="#63b8ff" d="M773.77,-188.28C649.26,-184.3 365.16,-172.22 128.5,-140 118.21,-138.6 107.14,-136.58 96.95,-134.52"/>
<polygon fill="#63b8ff" stroke="#63b8ff" points="773.79,-191.78 783.89,-188.59 774.01,-184.78 773.79,-191.78"/>
</a>
</g>
</g>
<!-- Node2&#45;&gt;Node9 -->
<g id="edge9_Node000002_Node000009" class="edge">
<title>Node2&#45;&gt;Node9</title>
<g id="a_edge9_Node000002_Node000009"><a xlink:title=" ">
<path fill="none" stroke="#63b8ff" d="M901.55,-185.9C998.45,-179.2 1187.95,-164.18 1347.5,-140 1350.6,-139.53 1353.77,-139.01 1356.96,-138.46"/>
<polygon fill="#63b8ff" stroke="#63b8ff" points="901.07,-182.42 891.33,-186.59 901.55,-189.4 901.07,-182.42"/>
</a>
</g>
</g>
<!-- Node10 -->
<g id="Node000010" class="node">
<title>Node10</title>
<g id="a_Node000010"><a xlink:href="all__variables_8h.html" target="_top" xlink:title=" ">
<polygon fill="white" stroke="#666666" points="275.5,-134.5 137.5,-134.5 137.5,-115.5 275.5,-115.5 275.5,-134.5"/>
<text text-anchor="middle" x="206.5" y="-122.5" font-family="Helvetica,sans-Serif" font-size="10.00">src/debug/all_variables.h</text>
</a>
</g>
</g>
<!-- Node2&#45;&gt;Node10 -->
<g id="edge10_Node000002_Node000010" class="edge">
<title>Node2&#45;&gt;Node10</title>
<g id="a_edge10_Node000002_Node000010"><a xlink:title=" ">
<path fill="none" stroke="#63b8ff" d="M773.7,-186.05C670.55,-179.26 460.91,-163.76 284.5,-140 273.32,-138.49 261.3,-136.52 250.12,-134.52"/>
<polygon fill="#63b8ff" stroke="#63b8ff" points="773.74,-189.56 783.94,-186.72 774.19,-182.58 773.74,-189.56"/>
</a>
</g>
</g>
<!-- Node13 -->
<g id="Node000013" class="node">
<title>Node13</title>
<g id="a_Node000013"><a xlink:href="render__courses_8c.html" target="_top" xlink:title=" ">
<polygon fill="white" stroke="#666666" points="443,-134.5 294,-134.5 294,-115.5 443,-115.5 443,-134.5"/>
<text text-anchor="middle" x="368.5" y="-122.5" font-family="Helvetica,sans-Serif" font-size="10.00">src/racing/render_courses.c</text>
</a>
</g>
</g>
<!-- Node2&#45;&gt;Node13 -->
<g id="edge14_Node000002_Node000013" class="edge">
<title>Node2&#45;&gt;Node13</title>
<g id="a_edge14_Node000002_Node000013"><a xlink:title=" ">
<path fill="none" stroke="#63b8ff" d="M773.9,-182.45C697.49,-173.22 565.44,-156.74 452.5,-140 441.24,-138.33 429.15,-136.4 417.76,-134.51"/>
<polygon fill="#63b8ff" stroke="#63b8ff" points="773.51,-185.93 783.85,-183.65 774.34,-178.98 773.51,-185.93"/>
</a>
</g>
</g>
<!-- Node14 -->
<g id="Node000014" class="node">
<title>Node14</title>
<g id="a_Node000014"><a xlink:href="render__objects_8c.html" target="_top" xlink:title=" ">
<polygon fill="white" stroke="#666666" points="575.5,-134.5 461.5,-134.5 461.5,-115.5 575.5,-115.5 575.5,-134.5"/>
<text text-anchor="middle" x="518.5" y="-122.5" font-family="Helvetica,sans-Serif" font-size="10.00">src/render_objects.c</text>
</a>
</g>
</g>
<!-- Node2&#45;&gt;Node14 -->
<g id="edge15_Node000002_Node000014" class="edge">
<title>Node2&#45;&gt;Node14</title>
<g id="a_edge15_Node000002_Node000014"><a xlink:title=" ">
<path fill="none" stroke="#63b8ff" d="M773.73,-177.65C722.54,-167.68 648.85,-153.18 584.5,-140 576.01,-138.26 566.91,-136.36 558.27,-134.53"/>
<polygon fill="#63b8ff" stroke="#63b8ff" points="773.18,-181.11 783.66,-179.58 774.51,-174.24 773.18,-181.11"/>
</a>
</g>
</g>
<!-- Node15 -->
<g id="Node000015" class="node">
<title>Node15</title>
<g id="a_Node000015"><a xlink:href="update__objects_8c.html" target="_top" xlink:title=" ">
<polygon fill="white" stroke="#666666" points="709.5,-134.5 593.5,-134.5 593.5,-115.5 709.5,-115.5 709.5,-134.5"/>
<text text-anchor="middle" x="651.5" y="-122.5" font-family="Helvetica,sans-Serif" font-size="10.00">src/update_objects.c</text>
</a>
</g>
</g>
<!-- Node2&#45;&gt;Node15 -->
<g id="edge16_Node000002_Node000015" class="edge">
<title>Node2&#45;&gt;Node15</title>
<g id="a_edge16_Node000002_Node000015"><a xlink:title=" ">
<path fill="none" stroke="#63b8ff" d="M786.86,-172.58C750.97,-160.23 704.36,-144.19 676.25,-134.52"/>
<polygon fill="#63b8ff" stroke="#63b8ff" points="786.09,-176.01 796.68,-175.95 788.36,-169.39 786.09,-176.01"/>
</a>
</g>
</g>
<!-- Node3&#45;&gt;Node4 -->
<g id="edge3_Node000003_Node000004" class="edge">
<title>Node3&#45;&gt;Node4</title>
<g id="a_edge3_Node000003_Node000004"><a xlink:title=" ">
<path fill="none" stroke="#63b8ff" d="M848.4,-107.02C884.61,-96.21 929.96,-82.67 958.84,-74.05"/>
<polygon fill="#63b8ff" stroke="#63b8ff" points="847.03,-103.77 838.45,-109.99 849.03,-110.48 847.03,-103.77"/>
</a>
</g>
</g>
<!-- Node5&#45;&gt;Node4 -->
<g id="edge5_Node000005_Node000004" class="edge">
<title>Node5&#45;&gt;Node4</title>
<g id="a_edge5_Node000005_Node000004"><a xlink:title=" ">
<path fill="none" stroke="#63b8ff" d="M987.5,-105.16C987.5,-94.74 987.5,-82.3 987.5,-74.17"/>
<polygon fill="#63b8ff" stroke="#63b8ff" points="984,-105.37 987.5,-115.37 991,-105.37 984,-105.37"/>
</a>
</g>
</g>
<!-- Node11 -->
<g id="Node000011" class="node">
<title>Node11</title>
<g id="a_Node000011"><a xlink:href="debug_8inc_8c.html" target="_top" xlink:title=" ">
<polygon fill="white" stroke="#666666" points="267.5,-74 145.5,-74 145.5,-55 267.5,-55 267.5,-74"/>
<text text-anchor="middle" x="206.5" y="-62" font-family="Helvetica,sans-Serif" font-size="10.00">src/debug/debug.inc.c</text>
</a>
</g>
</g>
<!-- Node10&#45;&gt;Node11 -->
<g id="edge11_Node000010_Node000011" class="edge">
<title>Node10&#45;&gt;Node11</title>
<g id="a_edge11_Node000010_Node000011"><a xlink:title=" ">
<path fill="none" stroke="#63b8ff" d="M206.5,-105.16C206.5,-94.74 206.5,-82.3 206.5,-74.17"/>
<polygon fill="#63b8ff" stroke="#63b8ff" points="203,-105.37 206.5,-115.37 210,-105.37 203,-105.37"/>
</a>
</g>
</g>
<!-- Node12 -->
<g id="Node000012" class="node">
<title>Node12</title>
<g id="a_Node000012"><a xlink:href="debug_8c.html" target="_top" xlink:title=" ">
<polygon fill="white" stroke="#666666" points="259,-19 154,-19 154,0 259,0 259,-19"/>
<text text-anchor="middle" x="206.5" y="-7" font-family="Helvetica,sans-Serif" font-size="10.00">src/debug/debug.c</text>
</a>
</g>
</g>
<!-- Node11&#45;&gt;Node12 -->
<g id="edge12_Node000011_Node000012" class="edge">
<title>Node11&#45;&gt;Node12</title>
<g id="a_edge12_Node000011_Node000012"><a xlink:title=" ">
<path fill="none" stroke="#63b8ff" d="M206.5,-44.66C206.5,-35.93 206.5,-25.99 206.5,-19.09"/>
<polygon fill="#63b8ff" stroke="#63b8ff" points="203,-44.75 206.5,-54.75 210,-44.75 203,-44.75"/>
</a>
</g>
</g>
<!-- Node17&#45;&gt;Node4 -->
<g id="edge19_Node000017_Node000004" class="edge">
<title>Node17&#45;&gt;Node4</title>
<g id="a_edge19_Node000017_Node000004"><a xlink:title=" ">
<path fill="none" stroke="#63b8ff" d="M1697.42,-171.85C1653.85,-152.99 1581.72,-124.28 1516.5,-110 1345.22,-72.48 1136.35,-66.15 1040.37,-65.37"/>
<polygon fill="#63b8ff" stroke="#63b8ff" points="1696.23,-175.15 1706.8,-175.95 1699.03,-168.74 1696.23,-175.15"/>
</a>
</g>
</g>
<!-- Node20&#45;&gt;Node19 -->
<g id="edge27_Node000020_Node000019" class="edge">
<title>Node20&#45;&gt;Node19</title>
<g id="a_edge27_Node000020_Node000019"><a xlink:title=" ">
<path fill="none" stroke="#63b8ff" d="M2108.66,-176.53C2085.42,-163.92 2051.39,-145.47 2031.54,-134.7"/>
<polygon fill="#63b8ff" stroke="#63b8ff" points="2107.13,-179.68 2117.59,-181.37 2110.46,-173.52 2107.13,-179.68"/>
</a>
</g>
</g>
<!-- Node21 -->
<g id="Node000021" class="node">
<title>Node21</title>
<g id="a_Node000021"><a xlink:href="AllTracks_8h.html" target="_top" xlink:title=" ">
<polygon fill="white" stroke="#666666" points="2251.5,-134.5 2129.5,-134.5 2129.5,-115.5 2251.5,-115.5 2251.5,-134.5"/>
<text text-anchor="middle" x="2190.5" y="-122.5" font-family="Helvetica,sans-Serif" font-size="10.00">src/engine/AllTracks.h</text>
</a>
</g>
</g>
<!-- Node20&#45;&gt;Node21 -->
<g id="edge24_Node000020_Node000021" class="edge">
<title>Node20&#45;&gt;Node21</title>
<g id="a_edge24_Node000020_Node000021"><a xlink:title=" ">
<path fill="none" stroke="#63b8ff" d="M2148.09,-173.62C2159.06,-161.31 2173.67,-144.89 2182.57,-134.91"/>
<polygon fill="#63b8ff" stroke="#63b8ff" points="2145.22,-171.57 2141.19,-181.37 2150.45,-176.23 2145.22,-171.57"/>
</a>
</g>
</g>
<!-- Node22 -->
<g id="Node000022" class="node">
<title>Node22</title>
<g id="a_Node000022"><a xlink:href="RegisterContent_8cpp.html" target="_top" xlink:title=" ">
<polygon fill="white" stroke="#666666" points="2197,-74 2028,-74 2028,-55 2197,-55 2197,-74"/>
<text text-anchor="middle" x="2112.5" y="-62" font-family="Helvetica,sans-Serif" font-size="10.00">src/engine/RegisterContent.cpp</text>
</a>
</g>
</g>
<!-- Node21&#45;&gt;Node22 -->
<g id="edge25_Node000021_Node000022" class="edge">
<title>Node21&#45;&gt;Node22</title>
<g id="a_edge25_Node000021_Node000022"><a xlink:title=" ">
<path fill="none" stroke="#63b8ff" d="M2170.96,-109.35C2156.19,-98.27 2136.4,-83.43 2124.06,-74.17"/>
<polygon fill="#63b8ff" stroke="#63b8ff" points="2168.89,-112.17 2178.99,-115.37 2173.09,-106.57 2168.89,-112.17"/>
</a>
</g>
</g>
<!-- Node23 -->
<g id="Node000023" class="node">
<title>Node23</title>
<g id="a_Node000023"><a xlink:href="Game_8cpp.html" target="_top" xlink:title=" ">
<polygon fill="white" stroke="#666666" points="2320.5,-74 2214.5,-74 2214.5,-55 2320.5,-55 2320.5,-74"/>
<text text-anchor="middle" x="2267.5" y="-62" font-family="Helvetica,sans-Serif" font-size="10.00">src/port/Game.cpp</text>
</a>
</g>
</g>
<!-- Node21&#45;&gt;Node23 -->
<g id="edge26_Node000021_Node000023" class="edge">
<title>Node21&#45;&gt;Node23</title>
<g id="a_edge26_Node000021_Node000023"><a xlink:title=" ">
<path fill="none" stroke="#63b8ff" d="M2210.19,-109.04C2224.73,-97.99 2244.02,-83.34 2256.09,-74.17"/>
<polygon fill="#63b8ff" stroke="#63b8ff" points="2207.71,-106.53 2201.86,-115.37 2211.94,-112.11 2207.71,-106.53"/>
</a>
</g>
</g>
</g>
</svg>
