<?xml version="1.0" encoding="UTF-8" standalone="no"?>
<!DOCTYPE svg PUBLIC "-//W3C//DTD SVG 1.1//EN"
 "http://www.w3.org/Graphics/SVG/1.1/DTD/svg11.dtd">
<!-- Generated by graphviz version 2.43.0 (0)
 -->
<!-- Title: include/assets/models/tracks/koopa_troopa_beach/koopa_troopa_beach_data.h Pages: 1 -->
<svg width="1869pt" height="302pt"
 viewBox="0.00 0.00 1869.00 302.00" xmlns="http://www.w3.org/2000/svg" xmlns:xlink="http://www.w3.org/1999/xlink">
<g id="graph0" class="graph" transform="scale(1 1) rotate(0) translate(4 298)">
<title>include/assets/models/tracks/koopa_troopa_beach/koopa_troopa_beach_data.h</title>
<!-- Node1 -->
<g id="Node000001" class="node">
<title>Node1</title>
<g id="a_Node000001"><a xlink:title=" ">
<polygon fill="#999999" stroke="#666666" points="1623,-294 1468,-294 1468,-242 1623,-242 1623,-294"/>
<text text-anchor="start" x="1476" y="-282" font-family="Helvetica,sans-Serif" font-size="10.00">include/assets/models</text>
<text text-anchor="start" x="1476" y="-271" font-family="Helvetica,sans-Serif" font-size="10.00">/tracks/koopa_troopa</text>
<text text-anchor="start" x="1476" y="-260" font-family="Helvetica,sans-Serif" font-size="10.00">_beach/koopa_troopa_beach</text>
<text text-anchor="middle" x="1545.5" y="-249" font-family="Helvetica,sans-Serif" font-size="10.00">_data.h</text>
</a>
</g>
</g>
<!-- Node2 -->
<g id="Node000002" class="node">
<title>Node2</title>
<g id="a_Node000002"><a xlink:href="all__course__data_8h.html" target="_top" xlink:title=" ">
<polygon fill="white" stroke="#666666" points="908,-206 801,-206 801,-176 908,-176 908,-206"/>
<text text-anchor="start" x="809" y="-194" font-family="Helvetica,sans-Serif" font-size="10.00">courses/all_course</text>
<text text-anchor="middle" x="854.5" y="-183" font-family="Helvetica,sans-Serif" font-size="10.00">_data.h</text>
</a>
</g>
</g>
<!-- Node1&#45;&gt;Node2 -->
<g id="edge1_Node000001_Node000002" class="edge">
<title>Node1&#45;&gt;Node2</title>
<g id="a_edge1_Node000001_Node000002"><a xlink:title=" ">
<path fill="none" stroke="#63b8ff" d="M1457.71,-257.47C1312.54,-241.72 1026.75,-210.7 908.1,-197.82"/>
<polygon fill="#63b8ff" stroke="#63b8ff" points="1457.59,-260.98 1467.91,-258.58 1458.35,-254.02 1457.59,-260.98"/>
</a>
</g>
</g>
<!-- Node16 -->
<g id="Node000016" class="node">
<title>Node16</title>
<g id="a_Node000016"><a xlink:href="koopa__troopa__beach_2course__offsets_8c.html" target="_top" xlink:title=" ">
<polygon fill="white" stroke="#666666" points="1426,-206 1293,-206 1293,-176 1426,-176 1426,-206"/>
<text text-anchor="start" x="1301" y="-194" font-family="Helvetica,sans-Serif" font-size="10.00">courses/koopa_troopa</text>
<text text-anchor="middle" x="1359.5" y="-183" font-family="Helvetica,sans-Serif" font-size="10.00">_beach/course_offsets.c</text>
</a>
</g>
</g>
<!-- Node1&#45;&gt;Node16 -->
<g id="edge17_Node000001_Node000016" class="edge">
<title>Node1&#45;&gt;Node16</title>
<g id="a_edge17_Node000001_Node000016"><a xlink:title=" ">
<path fill="none" stroke="#63b8ff" d="M1473.78,-238.08C1446.48,-227.07 1416.6,-215.02 1394.24,-206.01"/>
<polygon fill="#63b8ff" stroke="#63b8ff" points="1472.72,-241.43 1483.31,-241.92 1475.34,-234.94 1472.72,-241.43"/>
</a>
</g>
</g>
<!-- Node17 -->
<g id="Node000017" class="node">
<title>Node17</title>
<g id="a_Node000017"><a xlink:href="palm__tree_2render_8inc_8c.html" target="_top" xlink:title=" ">
<polygon fill="white" stroke="#666666" points="1560.5,-206 1444.5,-206 1444.5,-176 1560.5,-176 1560.5,-206"/>
<text text-anchor="start" x="1452.5" y="-194" font-family="Helvetica,sans-Serif" font-size="10.00">src/actors/palm_tree</text>
<text text-anchor="middle" x="1502.5" y="-183" font-family="Helvetica,sans-Serif" font-size="10.00">/render.inc.c</text>
</a>
</g>
</g>
<!-- Node1&#45;&gt;Node17 -->
<g id="edge18_Node000001_Node000017" class="edge">
<title>Node1&#45;&gt;Node17</title>
<g id="a_edge18_Node000001_Node000017"><a xlink:title=" ">
<path fill="none" stroke="#63b8ff" d="M1525.92,-232.85C1520.59,-223.55 1515.1,-213.97 1510.77,-206.43"/>
<polygon fill="#63b8ff" stroke="#63b8ff" points="1522.93,-234.67 1530.94,-241.61 1529,-231.19 1522.93,-234.67"/>
</a>
</g>
</g>
<!-- Node18 -->
<g id="Node000018" class="node">
<title>Node18</title>
<g id="a_Node000018"><a xlink:href="KoopaTroopaBeach_8cpp.html" target="_top" xlink:title=" ">
<polygon fill="white" stroke="#666666" points="1662.5,-140 1530.5,-140 1530.5,-110 1662.5,-110 1662.5,-140"/>
<text text-anchor="start" x="1538.5" y="-128" font-family="Helvetica,sans-Serif" font-size="10.00">src/engine/courses</text>
<text text-anchor="middle" x="1596.5" y="-117" font-family="Helvetica,sans-Serif" font-size="10.00">/KoopaTroopaBeach.cpp</text>
</a>
</g>
</g>
<!-- Node1&#45;&gt;Node18 -->
<g id="edge20_Node000001_Node000018" class="edge">
<title>Node1&#45;&gt;Node18</title>
<g id="a_edge20_Node000001_Node000018"><a xlink:title=" ">
<path fill="none" stroke="#63b8ff" d="M1559.42,-232.48C1562.8,-223.86 1566.35,-214.62 1569.5,-206 1577.85,-183.14 1586.72,-156.29 1591.93,-140.24"/>
<polygon fill="#63b8ff" stroke="#63b8ff" points="1556.13,-231.29 1555.71,-241.88 1562.64,-233.87 1556.13,-231.29"/>
</a>
</g>
</g>
<!-- Node19 -->
<g id="Node000019" class="node">
<title>Node19</title>
<g id="a_Node000019"><a xlink:href="KoopaTroopaBeach_8h.html" target="_top" xlink:title=" ">
<polygon fill="white" stroke="#666666" points="1738,-206 1617,-206 1617,-176 1738,-176 1738,-206"/>
<text text-anchor="start" x="1625" y="-194" font-family="Helvetica,sans-Serif" font-size="10.00">src/engine/courses</text>
<text text-anchor="middle" x="1677.5" y="-183" font-family="Helvetica,sans-Serif" font-size="10.00">/KoopaTroopaBeach.h</text>
</a>
</g>
</g>
<!-- Node1&#45;&gt;Node19 -->
<g id="edge21_Node000001_Node000019" class="edge">
<title>Node1&#45;&gt;Node19</title>
<g id="a_edge21_Node000001_Node000019"><a xlink:title=" ">
<path fill="none" stroke="#63b8ff" d="M1598.58,-236.84C1617.3,-226.2 1637.47,-214.75 1652.73,-206.08"/>
<polygon fill="#63b8ff" stroke="#63b8ff" points="1596.79,-233.83 1589.82,-241.82 1600.24,-239.92 1596.79,-233.83"/>
</a>
</g>
</g>
<!-- Node21 -->
<g id="Node000021" class="node">
<title>Node21</title>
<g id="a_Node000021"><a xlink:href="Crab_8cpp.html" target="_top" xlink:title=" ">
<polygon fill="white" stroke="#666666" points="1861,-206 1756,-206 1756,-176 1861,-176 1861,-206"/>
<text text-anchor="start" x="1764" y="-194" font-family="Helvetica,sans-Serif" font-size="10.00">src/engine/objects</text>
<text text-anchor="middle" x="1808.5" y="-183" font-family="Helvetica,sans-Serif" font-size="10.00">/Crab.cpp</text>
</a>
</g>
</g>
<!-- Node1&#45;&gt;Node21 -->
<g id="edge24_Node000001_Node000021" class="edge">
<title>Node1&#45;&gt;Node21</title>
<g id="a_edge24_Node000001_Node000021"><a xlink:title=" ">
<path fill="none" stroke="#63b8ff" d="M1633.01,-242.05C1674.93,-230.09 1723.6,-216.21 1759.03,-206.11"/>
<polygon fill="#63b8ff" stroke="#63b8ff" points="1632,-238.69 1623.34,-244.8 1633.92,-245.43 1632,-238.69"/>
</a>
</g>
</g>
<!-- Node3 -->
<g id="Node000003" class="node">
<title>Node3</title>
<g id="a_Node000003"><a xlink:href="paddle__boat_2render_8inc_8c.html" target="_top" xlink:title=" ">
<polygon fill="white" stroke="#666666" points="1266,-140 1139,-140 1139,-110 1266,-110 1266,-140"/>
<text text-anchor="start" x="1147" y="-128" font-family="Helvetica,sans-Serif" font-size="10.00">src/actors/paddle_boat</text>
<text text-anchor="middle" x="1202.5" y="-117" font-family="Helvetica,sans-Serif" font-size="10.00">/render.inc.c</text>
</a>
</g>
</g>
<!-- Node2&#45;&gt;Node3 -->
<g id="edge2_Node000002_Node000003" class="edge">
<title>Node2&#45;&gt;Node3</title>
<g id="a_edge2_Node000002_Node000003"><a xlink:title=" ">
<path fill="none" stroke="#63b8ff" d="M918.1,-178.62C973.86,-168.59 1057.09,-153.53 1129.5,-140 1132.54,-139.43 1135.66,-138.85 1138.81,-138.25"/>
<polygon fill="#63b8ff" stroke="#63b8ff" points="917.24,-175.21 908.02,-180.43 918.48,-182.1 917.24,-175.21"/>
</a>
</g>
</g>
<!-- Node4 -->
<g id="Node000004" class="node">
<title>Node4</title>
<g id="a_Node000004"><a xlink:href="actors_8c.html" target="_top" xlink:title=" ">
<polygon fill="white" stroke="#666666" points="1399,-74 1294,-74 1294,-55 1399,-55 1399,-74"/>
<text text-anchor="middle" x="1346.5" y="-62" font-family="Helvetica,sans-Serif" font-size="10.00">src/racing/actors.c</text>
</a>
</g>
</g>
<!-- Node2&#45;&gt;Node4 -->
<g id="edge13_Node000002_Node000004" class="edge">
<title>Node2&#45;&gt;Node4</title>
<g id="a_edge13_Node000002_Node000004"><a xlink:title=" ">
<path fill="none" stroke="#63b8ff" d="M918.43,-187.61C1020.11,-182.94 1213.45,-170.29 1274.5,-140 1305.44,-124.65 1330.47,-90.42 1341.05,-74.26"/>
<polygon fill="#63b8ff" stroke="#63b8ff" points="918.12,-184.12 908.28,-188.06 918.43,-191.11 918.12,-184.12"/>
</a>
</g>
</g>
<!-- Node5 -->
<g id="Node000005" class="node">
<title>Node5</title>
<g id="a_Node000005"><a xlink:href="trees_2render_8inc_8c.html" target="_top" xlink:title=" ">
<polygon fill="white" stroke="#666666" points="1474,-134.5 1323,-134.5 1323,-115.5 1474,-115.5 1474,-134.5"/>
<text text-anchor="middle" x="1398.5" y="-122.5" font-family="Helvetica,sans-Serif" font-size="10.00">src/actors/trees/render.inc.c</text>
</a>
</g>
</g>
<!-- Node2&#45;&gt;Node5 -->
<g id="edge4_Node000002_Node000005" class="edge">
<title>Node2&#45;&gt;Node5</title>
<g id="a_edge4_Node000002_Node000005"><a xlink:title=" ">
<path fill="none" stroke="#63b8ff" d="M918.14,-183.9C1006.06,-175.26 1169.56,-158.45 1308.5,-140 1320.73,-138.38 1333.86,-136.44 1346.21,-134.54"/>
<polygon fill="#63b8ff" stroke="#63b8ff" points="917.67,-180.42 908.06,-184.88 918.35,-187.39 917.67,-180.42"/>
</a>
</g>
</g>
<!-- Node6 -->
<g id="Node000006" class="node">
<title>Node6</title>
<g id="a_Node000006"><a xlink:href="code__800029B0_8c.html" target="_top" xlink:title=" ">
<polygon fill="white" stroke="#666666" points="119,-134.5 0,-134.5 0,-115.5 119,-115.5 119,-134.5"/>
<text text-anchor="middle" x="59.5" y="-122.5" font-family="Helvetica,sans-Serif" font-size="10.00">src/code_800029B0.c</text>
</a>
</g>
</g>
<!-- Node2&#45;&gt;Node6 -->
<g id="edge6_Node000002_Node000006" class="edge">
<title>Node2&#45;&gt;Node6</title>
<g id="a_edge6_Node000002_Node000006"><a xlink:title=" ">
<path fill="none" stroke="#63b8ff" d="M790.68,-188.42C663.94,-184.67 371.75,-172.91 128.5,-140 118.2,-138.61 107.14,-136.6 96.95,-134.53"/>
<polygon fill="#63b8ff" stroke="#63b8ff" points="790.88,-191.93 800.97,-188.72 791.08,-184.93 790.88,-191.93"/>
</a>
</g>
</g>
<!-- Node7 -->
<g id="Node000007" class="node">
<title>Node7</title>
<g id="a_Node000007"><a xlink:href="code__80005FD0_8c.html" target="_top" xlink:title=" ">
<polygon fill="white" stroke="#666666" points="257.5,-134.5 137.5,-134.5 137.5,-115.5 257.5,-115.5 257.5,-134.5"/>
<text text-anchor="middle" x="197.5" y="-122.5" font-family="Helvetica,sans-Serif" font-size="10.00">src/code_80005FD0.c</text>
</a>
</g>
</g>
<!-- Node2&#45;&gt;Node7 -->
<g id="edge7_Node000002_Node000007" class="edge">
<title>Node2&#45;&gt;Node7</title>
<g id="a_edge7_Node000002_Node000007"><a xlink:title=" ">
<path fill="none" stroke="#63b8ff" d="M790.65,-186.99C682.4,-181.34 456.11,-167.21 266.5,-140 256.46,-138.56 245.67,-136.58 235.69,-134.57"/>
<polygon fill="#63b8ff" stroke="#63b8ff" points="790.59,-190.49 800.76,-187.51 790.95,-183.5 790.59,-190.49"/>
</a>
</g>
</g>
<!-- Node8 -->
<g id="Node000008" class="node">
<title>Node8</title>
<g id="a_Node000008"><a xlink:href="code__8006E9C0_8c.html" target="_top" xlink:title=" ">
<polygon fill="white" stroke="#666666" points="395,-134.5 276,-134.5 276,-115.5 395,-115.5 395,-134.5"/>
<text text-anchor="middle" x="335.5" y="-122.5" font-family="Helvetica,sans-Serif" font-size="10.00">src/code_8006E9C0.c</text>
</a>
</g>
</g>
<!-- Node2&#45;&gt;Node8 -->
<g id="edge8_Node000002_Node000008" class="edge">
<title>Node2&#45;&gt;Node8</title>
<g id="a_edge8_Node000002_Node000008"><a xlink:title=" ">
<path fill="none" stroke="#63b8ff" d="M790.78,-184.81C703.2,-177.25 540.85,-161.7 403.5,-140 393.86,-138.48 383.51,-136.51 373.87,-134.55"/>
<polygon fill="#63b8ff" stroke="#63b8ff" points="790.57,-188.3 800.83,-185.67 791.16,-181.33 790.57,-188.3"/>
</a>
</g>
</g>
<!-- Node9 -->
<g id="Node000009" class="node">
<title>Node9</title>
<g id="a_Node000009"><a xlink:href="path__spawn__metadata_8c.html" target="_top" xlink:title=" ">
<polygon fill="white" stroke="#666666" points="530,-140 413,-140 413,-110 530,-110 530,-140"/>
<text text-anchor="start" x="421" y="-128" font-family="Helvetica,sans-Serif" font-size="10.00">src/data/path_spawn</text>
<text text-anchor="middle" x="471.5" y="-117" font-family="Helvetica,sans-Serif" font-size="10.00">_metadata.c</text>
</a>
</g>
</g>
<!-- Node2&#45;&gt;Node9 -->
<g id="edge9_Node000002_Node000009" class="edge">
<title>Node2&#45;&gt;Node9</title>
<g id="a_edge9_Node000002_Node000009"><a xlink:title=" ">
<path fill="none" stroke="#63b8ff" d="M790.97,-180.79C727.24,-171.34 626.37,-155.83 539.5,-140 536.42,-139.44 533.26,-138.85 530.07,-138.24"/>
<polygon fill="#63b8ff" stroke="#63b8ff" points="790.46,-184.25 800.87,-182.25 791.49,-177.32 790.46,-184.25"/>
</a>
</g>
</g>
<!-- Node10 -->
<g id="Node000010" class="node">
<title>Node10</title>
<g id="a_Node000010"><a xlink:href="all__variables_8h.html" target="_top" xlink:title=" ">
<polygon fill="white" stroke="#666666" points="686.5,-134.5 548.5,-134.5 548.5,-115.5 686.5,-115.5 686.5,-134.5"/>
<text text-anchor="middle" x="617.5" y="-122.5" font-family="Helvetica,sans-Serif" font-size="10.00">src/debug/all_variables.h</text>
</a>
</g>
</g>
<!-- Node2&#45;&gt;Node10 -->
<g id="edge10_Node000002_Node000010" class="edge">
<title>Node2&#45;&gt;Node10</title>
<g id="a_edge10_Node000002_Node000010"><a xlink:title=" ">
<path fill="none" stroke="#63b8ff" d="M792.6,-173.29C746.53,-160.84 685.54,-144.37 649.04,-134.52"/>
<polygon fill="#63b8ff" stroke="#63b8ff" points="791.92,-176.73 802.49,-175.95 793.75,-169.97 791.92,-176.73"/>
</a>
</g>
</g>
<!-- Node13 -->
<g id="Node000013" class="node">
<title>Node13</title>
<g id="a_Node000013"><a xlink:href="render__courses_8c.html" target="_top" xlink:title=" ">
<polygon fill="white" stroke="#666666" points="854,-134.5 705,-134.5 705,-115.5 854,-115.5 854,-134.5"/>
<text text-anchor="middle" x="779.5" y="-122.5" font-family="Helvetica,sans-Serif" font-size="10.00">src/racing/render_courses.c</text>
</a>
</g>
</g>
<!-- Node2&#45;&gt;Node13 -->
<g id="edge14_Node000002_Node000013" class="edge">
<title>Node2&#45;&gt;Node13</title>
<g id="a_edge14_Node000002_Node000013"><a xlink:title=" ">
<path fill="none" stroke="#63b8ff" d="M830.19,-169.26C816.55,-157.61 800.23,-143.69 789.86,-134.84"/>
<polygon fill="#63b8ff" stroke="#63b8ff" points="827.98,-171.97 837.86,-175.8 832.52,-166.64 827.98,-171.97"/>
</a>
</g>
</g>
<!-- Node14 -->
<g id="Node000014" class="node">
<title>Node14</title>
<g id="a_Node000014"><a xlink:href="render__objects_8c.html" target="_top" xlink:title=" ">
<polygon fill="white" stroke="#666666" points="986.5,-134.5 872.5,-134.5 872.5,-115.5 986.5,-115.5 986.5,-134.5"/>
<text text-anchor="middle" x="929.5" y="-122.5" font-family="Helvetica,sans-Serif" font-size="10.00">src/render_objects.c</text>
</a>
</g>
</g>
<!-- Node2&#45;&gt;Node14 -->
<g id="edge15_Node000002_Node000014" class="edge">
<title>Node2&#45;&gt;Node14</title>
<g id="a_edge15_Node000002_Node000014"><a xlink:title=" ">
<path fill="none" stroke="#63b8ff" d="M878.81,-169.26C892.45,-157.61 908.77,-143.69 919.14,-134.84"/>
<polygon fill="#63b8ff" stroke="#63b8ff" points="876.48,-166.64 871.14,-175.8 881.02,-171.97 876.48,-166.64"/>
</a>
</g>
</g>
<!-- Node15 -->
<g id="Node000015" class="node">
<title>Node15</title>
<g id="a_Node000015"><a xlink:href="update__objects_8c.html" target="_top" xlink:title=" ">
<polygon fill="white" stroke="#666666" points="1120.5,-134.5 1004.5,-134.5 1004.5,-115.5 1120.5,-115.5 1120.5,-134.5"/>
<text text-anchor="middle" x="1062.5" y="-122.5" font-family="Helvetica,sans-Serif" font-size="10.00">src/update_objects.c</text>
</a>
</g>
</g>
<!-- Node2&#45;&gt;Node15 -->
<g id="edge16_Node000002_Node000015" class="edge">
<title>Node2&#45;&gt;Node15</title>
<g id="a_edge16_Node000002_Node000015"><a xlink:title=" ">
<path fill="none" stroke="#63b8ff" d="M909.84,-172.97C950.15,-160.57 1003.05,-144.29 1034.82,-134.52"/>
<polygon fill="#63b8ff" stroke="#63b8ff" points="908.67,-169.67 900.15,-175.95 910.73,-176.36 908.67,-169.67"/>
</a>
</g>
</g>
<!-- Node3&#45;&gt;Node4 -->
<g id="edge3_Node000003_Node000004" class="edge">
<title>Node3&#45;&gt;Node4</title>
<g id="a_edge3_Node000003_Node000004"><a xlink:title=" ">
<path fill="none" stroke="#63b8ff" d="M1246.33,-106.19C1272.49,-95.57 1304.55,-82.54 1325.23,-74.14"/>
<polygon fill="#63b8ff" stroke="#63b8ff" points="1244.94,-102.98 1236.99,-109.99 1247.57,-109.47 1244.94,-102.98"/>
</a>
</g>
</g>
<!-- Node5&#45;&gt;Node4 -->
<g id="edge5_Node000005_Node000004" class="edge">
<title>Node5&#45;&gt;Node4</title>
<g id="a_edge5_Node000005_Node000004"><a xlink:title=" ">
<path fill="none" stroke="#63b8ff" d="M1384.07,-107.77C1374.4,-96.89 1362.05,-82.99 1354.2,-74.17"/>
<polygon fill="#63b8ff" stroke="#63b8ff" points="1381.57,-110.22 1390.83,-115.37 1386.8,-105.57 1381.57,-110.22"/>
</a>
</g>
</g>
<!-- Node11 -->
<g id="Node000011" class="node">
<title>Node11</title>
<g id="a_Node000011"><a xlink:href="debug_8inc_8c.html" target="_top" xlink:title=" ">
<polygon fill="white" stroke="#666666" points="678.5,-74 556.5,-74 556.5,-55 678.5,-55 678.5,-74"/>
<text text-anchor="middle" x="617.5" y="-62" font-family="Helvetica,sans-Serif" font-size="10.00">src/debug/debug.inc.c</text>
</a>
</g>
</g>
<!-- Node10&#45;&gt;Node11 -->
<g id="edge11_Node000010_Node000011" class="edge">
<title>Node10&#45;&gt;Node11</title>
<g id="a_edge11_Node000010_Node000011"><a xlink:title=" ">
<path fill="none" stroke="#63b8ff" d="M617.5,-105.16C617.5,-94.74 617.5,-82.3 617.5,-74.17"/>
<polygon fill="#63b8ff" stroke="#63b8ff" points="614,-105.37 617.5,-115.37 621,-105.37 614,-105.37"/>
</a>
</g>
</g>
<!-- Node12 -->
<g id="Node000012" class="node">
<title>Node12</title>
<g id="a_Node000012"><a xlink:href="debug_8c.html" target="_top" xlink:title=" ">
<polygon fill="white" stroke="#666666" points="670,-19 565,-19 565,0 670,0 670,-19"/>
<text text-anchor="middle" x="617.5" y="-7" font-family="Helvetica,sans-Serif" font-size="10.00">src/debug/debug.c</text>
</a>
</g>
</g>
<!-- Node11&#45;&gt;Node12 -->
<g id="edge12_Node000011_Node000012" class="edge">
<title>Node11&#45;&gt;Node12</title>
<g id="a_edge12_Node000011_Node000012"><a xlink:title=" ">
<path fill="none" stroke="#63b8ff" d="M617.5,-44.66C617.5,-35.93 617.5,-25.99 617.5,-19.09"/>
<polygon fill="#63b8ff" stroke="#63b8ff" points="614,-44.75 617.5,-54.75 621,-44.75 614,-44.75"/>
</a>
</g>
</g>
<!-- Node17&#45;&gt;Node4 -->
<g id="edge19_Node000017_Node000004" class="edge">
<title>Node17&#45;&gt;Node4</title>
<g id="a_edge19_Node000017_Node000004"><a xlink:title=" ">
<path fill="none" stroke="#63b8ff" d="M1502.41,-165.85C1501.07,-148.28 1496.48,-125.01 1482.5,-110 1461.08,-87 1427.63,-75.87 1399.25,-70.49"/>
<polygon fill="#63b8ff" stroke="#63b8ff" points="1498.92,-166.11 1502.88,-175.94 1505.91,-165.79 1498.92,-166.11"/>
</a>
</g>
</g>
<!-- Node19&#45;&gt;Node18 -->
<g id="edge22_Node000019_Node000018" class="edge">
<title>Node19&#45;&gt;Node18</title>
<g id="a_edge22_Node000019_Node000018"><a xlink:title=" ">
<path fill="none" stroke="#63b8ff" d="M1651.53,-169.48C1639.42,-159.91 1625.32,-148.77 1614.43,-140.16"/>
<polygon fill="#63b8ff" stroke="#63b8ff" points="1649.51,-172.34 1659.52,-175.8 1653.85,-166.85 1649.51,-172.34"/>
</a>
</g>
</g>
<!-- Node20 -->
<g id="Node000020" class="node">
<title>Node20</title>
<g id="a_Node000020"><a xlink:href="Game_8cpp.html" target="_top" xlink:title=" ">
<polygon fill="white" stroke="#666666" points="1786.5,-134.5 1680.5,-134.5 1680.5,-115.5 1786.5,-115.5 1786.5,-134.5"/>
<text text-anchor="middle" x="1733.5" y="-122.5" font-family="Helvetica,sans-Serif" font-size="10.00">src/port/Game.cpp</text>
</a>
</g>
</g>
<!-- Node19&#45;&gt;Node20 -->
<g id="edge23_Node000019_Node000020" class="edge">
<title>Node19&#45;&gt;Node20</title>
<g id="a_edge23_Node000019_Node000020"><a xlink:title=" ">
<path fill="none" stroke="#63b8ff" d="M1696.8,-167.94C1706.74,-156.58 1718.31,-143.36 1725.76,-134.84"/>
<polygon fill="#63b8ff" stroke="#63b8ff" points="1693.88,-165.97 1689.93,-175.8 1699.15,-170.58 1693.88,-165.97"/>
</a>
</g>
</g>
</g>
</svg>
