<?xml version="1.0" encoding="UTF-8" standalone="no"?>
<!DOCTYPE svg PUBLIC "-//W3C//DTD SVG 1.1//EN"
 "http://www.w3.org/Graphics/SVG/1.1/DTD/svg11.dtd">
<!-- Generated by graphviz version 2.43.0 (0)
 -->
<!-- Title: include/assets/models/tracks/luigi_raceway/luigi_raceway_data.h Pages: 1 -->
<svg width="1788pt" height="291pt"
 viewBox="0.00 0.00 1787.64 291.00" xmlns="http://www.w3.org/2000/svg" xmlns:xlink="http://www.w3.org/1999/xlink">
<g id="graph0" class="graph" transform="scale(1 1) rotate(0) translate(4 287)">
<title>include/assets/models/tracks/luigi_raceway/luigi_raceway_data.h</title>
<!-- Node1 -->
<g id="Node000001" class="node">
<title>Node1</title>
<g id="a_Node000001"><a xlink:title=" ">
<polygon fill="#999999" stroke="#666666" points="1444.64,-283 1319.64,-283 1319.64,-242 1444.64,-242 1444.64,-283"/>
<text text-anchor="start" x="1327.64" y="-271" font-family="Helvetica,sans-Serif" font-size="10.00">include/assets/models</text>
<text text-anchor="start" x="1327.64" y="-260" font-family="Helvetica,sans-Serif" font-size="10.00">/tracks/luigi_raceway</text>
<text text-anchor="middle" x="1382.14" y="-249" font-family="Helvetica,sans-Serif" font-size="10.00">/luigi_raceway_data.h</text>
</a>
</g>
</g>
<!-- Node2 -->
<g id="Node000002" class="node">
<title>Node2</title>
<g id="a_Node000002"><a xlink:href="all__course__data_8h.html" target="_top" xlink:title=" ">
<polygon fill="white" stroke="#666666" points="866.64,-206 759.64,-206 759.64,-176 866.64,-176 866.64,-206"/>
<text text-anchor="start" x="767.64" y="-194" font-family="Helvetica,sans-Serif" font-size="10.00">courses/all_course</text>
<text text-anchor="middle" x="813.14" y="-183" font-family="Helvetica,sans-Serif" font-size="10.00">_data.h</text>
</a>
</g>
</g>
<!-- Node1&#45;&gt;Node2 -->
<g id="edge1_Node000001_Node000002" class="edge">
<title>Node1&#45;&gt;Node2</title>
<g id="a_edge1_Node000001_Node000002"><a xlink:title=" ">
<path fill="none" stroke="#63b8ff" d="M1309.43,-252.62C1193.55,-238.46 969.6,-211.11 866.94,-198.57"/>
<polygon fill="#63b8ff" stroke="#63b8ff" points="1309.27,-256.13 1319.62,-253.86 1310.12,-249.18 1309.27,-256.13"/>
</a>
</g>
</g>
<!-- Node4 -->
<g id="Node000004" class="node">
<title>Node4</title>
<g id="a_Node000004"><a xlink:href="actors_8c.html" target="_top" xlink:title=" ">
<polygon fill="white" stroke="#666666" points="225.64,-74 120.64,-74 120.64,-55 225.64,-55 225.64,-74"/>
<text text-anchor="middle" x="173.14" y="-62" font-family="Helvetica,sans-Serif" font-size="10.00">src/racing/actors.c</text>
</a>
</g>
</g>
<!-- Node1&#45;&gt;Node4 -->
<g id="edge24_Node000001_Node000004" class="edge">
<title>Node1&#45;&gt;Node4</title>
<g id="a_edge24_Node000001_Node000004"><a xlink:title=" ">
<path fill="none" stroke="#63b8ff" d="M1309.23,-260.67C1037.88,-256.82 97.5,-236.58 9.14,-140 -27.27,-100.2 59.85,-80.21 120.56,-71.4"/>
<polygon fill="#63b8ff" stroke="#63b8ff" points="1309.32,-264.17 1319.36,-260.81 1309.41,-257.17 1309.32,-264.17"/>
</a>
</g>
</g>
<!-- Node9 -->
<g id="Node000009" class="node">
<title>Node9</title>
<g id="a_Node000009"><a xlink:href="path__spawn__metadata_8c.html" target="_top" xlink:title=" ">
<polygon fill="white" stroke="#666666" points="1357.64,-140 1240.64,-140 1240.64,-110 1357.64,-110 1357.64,-140"/>
<text text-anchor="start" x="1248.64" y="-128" font-family="Helvetica,sans-Serif" font-size="10.00">src/data/path_spawn</text>
<text text-anchor="middle" x="1299.14" y="-117" font-family="Helvetica,sans-Serif" font-size="10.00">_metadata.c</text>
</a>
</g>
</g>
<!-- Node1&#45;&gt;Node9 -->
<g id="edge18_Node000001_Node000009" class="edge">
<title>Node1&#45;&gt;Node9</title>
<g id="a_edge18_Node000001_Node000009"><a xlink:title=" ">
<path fill="none" stroke="#63b8ff" d="M1364.76,-233.13C1347.39,-204.77 1321.38,-162.31 1307.92,-140.33"/>
<polygon fill="#63b8ff" stroke="#63b8ff" points="1361.86,-235.1 1370.07,-241.8 1367.83,-231.44 1361.86,-235.1"/>
</a>
</g>
</g>
<!-- Node14 -->
<g id="Node000014" class="node">
<title>Node14</title>
<g id="a_Node000014"><a xlink:href="render__objects_8c.html" target="_top" xlink:title=" ">
<polygon fill="white" stroke="#666666" points="1490.14,-134.5 1376.14,-134.5 1376.14,-115.5 1490.14,-115.5 1490.14,-134.5"/>
<text text-anchor="middle" x="1433.14" y="-122.5" font-family="Helvetica,sans-Serif" font-size="10.00">src/render_objects.c</text>
</a>
</g>
</g>
<!-- Node1&#45;&gt;Node14 -->
<g id="edge25_Node000001_Node000014" class="edge">
<title>Node1&#45;&gt;Node14</title>
<g id="a_edge25_Node000001_Node000014"><a xlink:title=" ">
<path fill="none" stroke="#63b8ff" d="M1362.62,-232.94C1353.45,-215.76 1346.46,-193.83 1356.14,-176 1367.17,-155.69 1390.41,-142.35 1408.49,-134.59"/>
<polygon fill="#63b8ff" stroke="#63b8ff" points="1359.79,-235.05 1367.83,-241.94 1365.85,-231.54 1359.79,-235.05"/>
</a>
</g>
</g>
<!-- Node16 -->
<g id="Node000016" class="node">
<title>Node16</title>
<g id="a_Node000016"><a xlink:href="luigi__raceway_2course__offsets_8c.html" target="_top" xlink:title=" ">
<polygon fill="white" stroke="#666666" points="1490.64,-206 1365.64,-206 1365.64,-176 1490.64,-176 1490.64,-206"/>
<text text-anchor="start" x="1373.64" y="-194" font-family="Helvetica,sans-Serif" font-size="10.00">courses/luigi_raceway</text>
<text text-anchor="middle" x="1428.14" y="-183" font-family="Helvetica,sans-Serif" font-size="10.00">/course_offsets.c</text>
</a>
</g>
</g>
<!-- Node1&#45;&gt;Node16 -->
<g id="edge17_Node000001_Node000016" class="edge">
<title>Node1&#45;&gt;Node16</title>
<g id="a_edge17_Node000001_Node000016"><a xlink:title=" ">
<path fill="none" stroke="#63b8ff" d="M1400.74,-233.4C1406.97,-223.99 1413.65,-213.9 1418.85,-206.04"/>
<polygon fill="#63b8ff" stroke="#63b8ff" points="1397.8,-231.5 1395.2,-241.77 1403.64,-235.36 1397.8,-231.5"/>
</a>
</g>
</g>
<!-- Node17 -->
<g id="Node000017" class="node">
<title>Node17</title>
<g id="a_Node000017"><a xlink:href="LuigiRaceway_8cpp.html" target="_top" xlink:title=" ">
<polygon fill="white" stroke="#666666" points="1615.64,-140 1508.64,-140 1508.64,-110 1615.64,-110 1615.64,-140"/>
<text text-anchor="start" x="1516.64" y="-128" font-family="Helvetica,sans-Serif" font-size="10.00">src/engine/courses</text>
<text text-anchor="middle" x="1562.14" y="-117" font-family="Helvetica,sans-Serif" font-size="10.00">/LuigiRaceway.cpp</text>
</a>
</g>
</g>
<!-- Node1&#45;&gt;Node17 -->
<g id="edge19_Node000001_Node000017" class="edge">
<title>Node1&#45;&gt;Node17</title>
<g id="a_edge19_Node000001_Node000017"><a xlink:title=" ">
<path fill="none" stroke="#63b8ff" d="M1445.56,-237.86C1463.88,-229.38 1483.2,-218.71 1499.14,-206 1522.91,-187.04 1543.18,-157.44 1553.92,-140.06"/>
<polygon fill="#63b8ff" stroke="#63b8ff" points="1444.08,-234.69 1436.39,-241.97 1446.94,-241.08 1444.08,-234.69"/>
</a>
</g>
</g>
<!-- Node18 -->
<g id="Node000018" class="node">
<title>Node18</title>
<g id="a_Node000018"><a xlink:href="LuigiRaceway_8h.html" target="_top" xlink:title=" ">
<polygon fill="white" stroke="#666666" points="1654.64,-206 1547.64,-206 1547.64,-176 1654.64,-176 1654.64,-206"/>
<text text-anchor="start" x="1555.64" y="-194" font-family="Helvetica,sans-Serif" font-size="10.00">src/engine/courses</text>
<text text-anchor="middle" x="1601.14" y="-183" font-family="Helvetica,sans-Serif" font-size="10.00">/LuigiRaceway.h</text>
</a>
</g>
</g>
<!-- Node1&#45;&gt;Node18 -->
<g id="edge20_Node000001_Node000018" class="edge">
<title>Node1&#45;&gt;Node18</title>
<g id="a_edge20_Node000001_Node000018"><a xlink:title=" ">
<path fill="none" stroke="#63b8ff" d="M1453.64,-238.81C1487.72,-228 1527.4,-215.4 1557.01,-206"/>
<polygon fill="#63b8ff" stroke="#63b8ff" points="1452.2,-235.59 1443.73,-241.96 1454.32,-242.27 1452.2,-235.59"/>
</a>
</g>
</g>
<!-- Node20 -->
<g id="Node000020" class="node">
<title>Node20</title>
<g id="a_Node000020"><a xlink:href="HotAirBalloon_8cpp.html" target="_top" xlink:title=" ">
<polygon fill="white" stroke="#666666" points="1779.64,-206 1672.64,-206 1672.64,-176 1779.64,-176 1779.64,-206"/>
<text text-anchor="start" x="1680.64" y="-194" font-family="Helvetica,sans-Serif" font-size="10.00">src/engine/objects</text>
<text text-anchor="middle" x="1726.14" y="-183" font-family="Helvetica,sans-Serif" font-size="10.00">/HotAirBalloon.cpp</text>
</a>
</g>
</g>
<!-- Node1&#45;&gt;Node20 -->
<g id="edge23_Node000001_Node000020" class="edge">
<title>Node1&#45;&gt;Node20</title>
<g id="a_edge23_Node000001_Node000020"><a xlink:title=" ">
<path fill="none" stroke="#63b8ff" d="M1454.69,-247.66C1511.49,-236.71 1592.44,-220.84 1663.14,-206 1666.21,-205.36 1669.36,-204.68 1672.54,-204"/>
<polygon fill="#63b8ff" stroke="#63b8ff" points="1453.88,-244.25 1444.73,-249.58 1455.21,-251.12 1453.88,-244.25"/>
</a>
</g>
</g>
<!-- Node3 -->
<g id="Node000003" class="node">
<title>Node3</title>
<g id="a_Node000003"><a xlink:href="paddle__boat_2render_8inc_8c.html" target="_top" xlink:title=" ">
<polygon fill="white" stroke="#666666" points="314.64,-140 187.64,-140 187.64,-110 314.64,-110 314.64,-140"/>
<text text-anchor="start" x="195.64" y="-128" font-family="Helvetica,sans-Serif" font-size="10.00">src/actors/paddle_boat</text>
<text text-anchor="middle" x="251.14" y="-117" font-family="Helvetica,sans-Serif" font-size="10.00">/render.inc.c</text>
</a>
</g>
</g>
<!-- Node2&#45;&gt;Node3 -->
<g id="edge2_Node000002_Node000003" class="edge">
<title>Node2&#45;&gt;Node3</title>
<g id="a_edge2_Node000002_Node000003"><a xlink:title=" ">
<path fill="none" stroke="#63b8ff" d="M749.11,-185.32C655.32,-178.05 475.2,-162.49 323.14,-140 320.37,-139.59 317.54,-139.15 314.69,-138.68"/>
<polygon fill="#63b8ff" stroke="#63b8ff" points="749.05,-188.83 759.29,-186.11 749.59,-181.85 749.05,-188.83"/>
</a>
</g>
</g>
<!-- Node2&#45;&gt;Node4 -->
<g id="edge13_Node000002_Node000004" class="edge">
<title>Node2&#45;&gt;Node4</title>
<g id="a_edge13_Node000002_Node000004"><a xlink:title=" ">
<path fill="none" stroke="#63b8ff" d="M749.93,-174.41C722.09,-166.21 689.54,-154.76 662.14,-140 643.2,-129.8 644.1,-118.05 624.14,-110 553.09,-81.35 329.13,-70.54 226.04,-67"/>
<polygon fill="#63b8ff" stroke="#63b8ff" points="748.99,-177.78 759.57,-177.18 750.92,-171.06 748.99,-177.78"/>
</a>
</g>
</g>
<!-- Node5 -->
<g id="Node000005" class="node">
<title>Node5</title>
<g id="a_Node000005"><a xlink:href="trees_2render_8inc_8c.html" target="_top" xlink:title=" ">
<polygon fill="white" stroke="#666666" points="169.64,-134.5 18.64,-134.5 18.64,-115.5 169.64,-115.5 169.64,-134.5"/>
<text text-anchor="middle" x="94.14" y="-122.5" font-family="Helvetica,sans-Serif" font-size="10.00">src/actors/trees/render.inc.c</text>
</a>
</g>
</g>
<!-- Node2&#45;&gt;Node5 -->
<g id="edge4_Node000002_Node000005" class="edge">
<title>Node2&#45;&gt;Node5</title>
<g id="a_edge4_Node000002_Node000005"><a xlink:title=" ">
<path fill="none" stroke="#63b8ff" d="M749.46,-186.81C634.86,-180.68 386.44,-165.51 178.14,-140 166.11,-138.53 153.16,-136.56 141.13,-134.57"/>
<polygon fill="#63b8ff" stroke="#63b8ff" points="749.29,-190.31 759.46,-187.35 749.66,-183.32 749.29,-190.31"/>
</a>
</g>
</g>
<!-- Node6 -->
<g id="Node000006" class="node">
<title>Node6</title>
<g id="a_Node000006"><a xlink:href="code__800029B0_8c.html" target="_top" xlink:title=" ">
<polygon fill="white" stroke="#666666" points="946.64,-134.5 827.64,-134.5 827.64,-115.5 946.64,-115.5 946.64,-134.5"/>
<text text-anchor="middle" x="887.14" y="-122.5" font-family="Helvetica,sans-Serif" font-size="10.00">src/code_800029B0.c</text>
</a>
</g>
</g>
<!-- Node2&#45;&gt;Node6 -->
<g id="edge6_Node000002_Node000006" class="edge">
<title>Node2&#45;&gt;Node6</title>
<g id="a_edge6_Node000002_Node000006"><a xlink:title=" ">
<path fill="none" stroke="#63b8ff" d="M837.5,-168.93C850.89,-157.35 866.78,-143.61 876.91,-134.84"/>
<polygon fill="#63b8ff" stroke="#63b8ff" points="834.84,-166.61 829.56,-175.8 839.42,-171.9 834.84,-166.61"/>
</a>
</g>
</g>
<!-- Node7 -->
<g id="Node000007" class="node">
<title>Node7</title>
<g id="a_Node000007"><a xlink:href="code__80005FD0_8c.html" target="_top" xlink:title=" ">
<polygon fill="white" stroke="#666666" points="1085.14,-134.5 965.14,-134.5 965.14,-115.5 1085.14,-115.5 1085.14,-134.5"/>
<text text-anchor="middle" x="1025.14" y="-122.5" font-family="Helvetica,sans-Serif" font-size="10.00">src/code_80005FD0.c</text>
</a>
</g>
</g>
<!-- Node2&#45;&gt;Node7 -->
<g id="edge7_Node000002_Node000007" class="edge">
<title>Node2&#45;&gt;Node7</title>
<g id="a_edge7_Node000002_Node000007"><a xlink:title=" ">
<path fill="none" stroke="#63b8ff" d="M869.29,-173.05C910.4,-160.64 964.48,-144.31 996.93,-134.52"/>
<polygon fill="#63b8ff" stroke="#63b8ff" points="868.23,-169.71 859.67,-175.95 870.25,-176.42 868.23,-169.71"/>
</a>
</g>
</g>
<!-- Node8 -->
<g id="Node000008" class="node">
<title>Node8</title>
<g id="a_Node000008"><a xlink:href="code__8006E9C0_8c.html" target="_top" xlink:title=" ">
<polygon fill="white" stroke="#666666" points="1222.64,-134.5 1103.64,-134.5 1103.64,-115.5 1222.64,-115.5 1222.64,-134.5"/>
<text text-anchor="middle" x="1163.14" y="-122.5" font-family="Helvetica,sans-Serif" font-size="10.00">src/code_8006E9C0.c</text>
</a>
</g>
</g>
<!-- Node2&#45;&gt;Node8 -->
<g id="edge8_Node000002_Node000008" class="edge">
<title>Node2&#45;&gt;Node8</title>
<g id="a_edge8_Node000002_Node000008"><a xlink:title=" ">
<path fill="none" stroke="#63b8ff" d="M876.77,-179.13C933.77,-169.28 1019.64,-154.18 1094.14,-140 1103.15,-138.29 1112.8,-136.37 1121.94,-134.53"/>
<polygon fill="#63b8ff" stroke="#63b8ff" points="876.08,-175.7 866.82,-180.84 877.27,-182.59 876.08,-175.7"/>
</a>
</g>
</g>
<!-- Node2&#45;&gt;Node9 -->
<g id="edge9_Node000002_Node000009" class="edge">
<title>Node2&#45;&gt;Node9</title>
<g id="a_edge9_Node000002_Node000009"><a xlink:title=" ">
<path fill="none" stroke="#63b8ff" d="M876.97,-184.05C959.16,-176 1106.27,-160.29 1231.14,-140 1234.23,-139.5 1237.4,-138.95 1240.59,-138.38"/>
<polygon fill="#63b8ff" stroke="#63b8ff" points="876.4,-180.59 866.79,-185.04 877.08,-187.55 876.4,-180.59"/>
</a>
</g>
</g>
<!-- Node10 -->
<g id="Node000010" class="node">
<title>Node10</title>
<g id="a_Node000010"><a xlink:href="all__variables_8h.html" target="_top" xlink:title=" ">
<polygon fill="white" stroke="#666666" points="809.14,-134.5 671.14,-134.5 671.14,-115.5 809.14,-115.5 809.14,-134.5"/>
<text text-anchor="middle" x="740.14" y="-122.5" font-family="Helvetica,sans-Serif" font-size="10.00">src/debug/all_variables.h</text>
</a>
</g>
</g>
<!-- Node2&#45;&gt;Node10 -->
<g id="edge10_Node000002_Node000010" class="edge">
<title>Node2&#45;&gt;Node10</title>
<g id="a_edge10_Node000002_Node000010"><a xlink:title=" ">
<path fill="none" stroke="#63b8ff" d="M789.11,-168.93C775.9,-157.35 760.22,-143.61 750.23,-134.84"/>
<polygon fill="#63b8ff" stroke="#63b8ff" points="787.11,-171.84 796.94,-175.8 791.73,-166.57 787.11,-171.84"/>
</a>
</g>
</g>
<!-- Node13 -->
<g id="Node000013" class="node">
<title>Node13</title>
<g id="a_Node000013"><a xlink:href="render__courses_8c.html" target="_top" xlink:title=" ">
<polygon fill="white" stroke="#666666" points="481.64,-134.5 332.64,-134.5 332.64,-115.5 481.64,-115.5 481.64,-134.5"/>
<text text-anchor="middle" x="407.14" y="-122.5" font-family="Helvetica,sans-Serif" font-size="10.00">src/racing/render_courses.c</text>
</a>
</g>
</g>
<!-- Node2&#45;&gt;Node13 -->
<g id="edge14_Node000002_Node000013" class="edge">
<title>Node2&#45;&gt;Node13</title>
<g id="a_edge14_Node000002_Node000013"><a xlink:title=" ">
<path fill="none" stroke="#63b8ff" d="M749.26,-180.37C684.07,-170.49 580,-154.53 490.14,-140 479.47,-138.27 468.03,-136.38 457.16,-134.55"/>
<polygon fill="#63b8ff" stroke="#63b8ff" points="748.97,-183.87 759.38,-181.91 750.02,-176.95 748.97,-183.87"/>
</a>
</g>
</g>
<!-- Node2&#45;&gt;Node14 -->
<g id="edge15_Node000002_Node000014" class="edge">
<title>Node2&#45;&gt;Node14</title>
<g id="a_edge15_Node000002_Node000014"><a xlink:title=" ">
<path fill="none" stroke="#63b8ff" d="M877.03,-186.63C980.28,-180.65 1190.08,-166.26 1366.14,-140 1375.9,-138.54 1386.37,-136.56 1396.07,-134.55"/>
<polygon fill="#63b8ff" stroke="#63b8ff" points="876.55,-183.16 866.77,-187.22 876.95,-190.14 876.55,-183.16"/>
</a>
</g>
</g>
<!-- Node15 -->
<g id="Node000015" class="node">
<title>Node15</title>
<g id="a_Node000015"><a xlink:href="update__objects_8c.html" target="_top" xlink:title=" ">
<polygon fill="white" stroke="#666666" points="615.14,-134.5 499.14,-134.5 499.14,-115.5 615.14,-115.5 615.14,-134.5"/>
<text text-anchor="middle" x="557.14" y="-122.5" font-family="Helvetica,sans-Serif" font-size="10.00">src/update_objects.c</text>
</a>
</g>
</g>
<!-- Node2&#45;&gt;Node15 -->
<g id="edge16_Node000002_Node000015" class="edge">
<title>Node2&#45;&gt;Node15</title>
<g id="a_edge16_Node000002_Node000015"><a xlink:title=" ">
<path fill="none" stroke="#63b8ff" d="M749.7,-174.14C699.55,-161.6 631.49,-144.59 591.16,-134.5"/>
<polygon fill="#63b8ff" stroke="#63b8ff" points="748.92,-177.55 759.48,-176.58 750.62,-170.76 748.92,-177.55"/>
</a>
</g>
</g>
<!-- Node3&#45;&gt;Node4 -->
<g id="edge3_Node000003_Node000004" class="edge">
<title>Node3&#45;&gt;Node4</title>
<g id="a_edge3_Node000003_Node000004"><a xlink:title=" ">
<path fill="none" stroke="#63b8ff" d="M224.23,-103.82C210.78,-93.73 195.21,-82.05 184.83,-74.27"/>
<polygon fill="#63b8ff" stroke="#63b8ff" points="222.16,-106.64 232.26,-109.84 226.36,-101.04 222.16,-106.64"/>
</a>
</g>
</g>
<!-- Node5&#45;&gt;Node4 -->
<g id="edge5_Node000005_Node000004" class="edge">
<title>Node5&#45;&gt;Node4</title>
<g id="a_edge5_Node000005_Node000004"><a xlink:title=" ">
<path fill="none" stroke="#63b8ff" d="M113.93,-109.35C128.89,-98.27 148.93,-83.43 161.44,-74.17"/>
<polygon fill="#63b8ff" stroke="#63b8ff" points="111.75,-106.6 105.8,-115.37 115.92,-112.23 111.75,-106.6"/>
</a>
</g>
</g>
<!-- Node11 -->
<g id="Node000011" class="node">
<title>Node11</title>
<g id="a_Node000011"><a xlink:href="debug_8inc_8c.html" target="_top" xlink:title=" ">
<polygon fill="white" stroke="#666666" points="801.14,-74 679.14,-74 679.14,-55 801.14,-55 801.14,-74"/>
<text text-anchor="middle" x="740.14" y="-62" font-family="Helvetica,sans-Serif" font-size="10.00">src/debug/debug.inc.c</text>
</a>
</g>
</g>
<!-- Node10&#45;&gt;Node11 -->
<g id="edge11_Node000010_Node000011" class="edge">
<title>Node10&#45;&gt;Node11</title>
<g id="a_edge11_Node000010_Node000011"><a xlink:title=" ">
<path fill="none" stroke="#63b8ff" d="M740.14,-105.16C740.14,-94.74 740.14,-82.3 740.14,-74.17"/>
<polygon fill="#63b8ff" stroke="#63b8ff" points="736.64,-105.37 740.14,-115.37 743.64,-105.37 736.64,-105.37"/>
</a>
</g>
</g>
<!-- Node12 -->
<g id="Node000012" class="node">
<title>Node12</title>
<g id="a_Node000012"><a xlink:href="debug_8c.html" target="_top" xlink:title=" ">
<polygon fill="white" stroke="#666666" points="792.64,-19 687.64,-19 687.64,0 792.64,0 792.64,-19"/>
<text text-anchor="middle" x="740.14" y="-7" font-family="Helvetica,sans-Serif" font-size="10.00">src/debug/debug.c</text>
</a>
</g>
</g>
<!-- Node11&#45;&gt;Node12 -->
<g id="edge12_Node000011_Node000012" class="edge">
<title>Node11&#45;&gt;Node12</title>
<g id="a_edge12_Node000011_Node000012"><a xlink:title=" ">
<path fill="none" stroke="#63b8ff" d="M740.14,-44.66C740.14,-35.93 740.14,-25.99 740.14,-19.09"/>
<polygon fill="#63b8ff" stroke="#63b8ff" points="736.64,-44.75 740.14,-54.75 743.64,-44.75 736.64,-44.75"/>
</a>
</g>
</g>
<!-- Node18&#45;&gt;Node17 -->
<g id="edge21_Node000018_Node000017" class="edge">
<title>Node18&#45;&gt;Node17</title>
<g id="a_edge21_Node000018_Node000017"><a xlink:title=" ">
<path fill="none" stroke="#63b8ff" d="M1587.27,-167.24C1581.77,-158.21 1575.62,-148.11 1570.77,-140.16"/>
<polygon fill="#63b8ff" stroke="#63b8ff" points="1584.29,-169.08 1592.49,-175.8 1590.27,-165.44 1584.29,-169.08"/>
</a>
</g>
</g>
<!-- Node19 -->
<g id="Node000019" class="node">
<title>Node19</title>
<g id="a_Node000019"><a xlink:href="Game_8cpp.html" target="_top" xlink:title=" ">
<polygon fill="white" stroke="#666666" points="1740.14,-134.5 1634.14,-134.5 1634.14,-115.5 1740.14,-115.5 1740.14,-134.5"/>
<text text-anchor="middle" x="1687.14" y="-122.5" font-family="Helvetica,sans-Serif" font-size="10.00">src/port/Game.cpp</text>
</a>
</g>
</g>
<!-- Node18&#45;&gt;Node19 -->
<g id="edge22_Node000018_Node000019" class="edge">
<title>Node18&#45;&gt;Node19</title>
<g id="a_edge22_Node000018_Node000019"><a xlink:title=" ">
<path fill="none" stroke="#63b8ff" d="M1628.57,-169.58C1644.31,-157.87 1663.26,-143.77 1675.26,-134.84"/>
<polygon fill="#63b8ff" stroke="#63b8ff" points="1626.16,-167.02 1620.23,-175.8 1630.34,-172.63 1626.16,-167.02"/>
</a>
</g>
</g>
</g>
</svg>
