<?xml version="1.0" encoding="UTF-8" standalone="no"?>
<!DOCTYPE svg PUBLIC "-//W3C//DTD SVG 1.1//EN"
 "http://www.w3.org/Graphics/SVG/1.1/DTD/svg11.dtd">
<!-- Generated by graphviz version 2.43.0 (0)
 -->
<!-- Title: src/engine/objects/Mole.h Pages: 1 -->
<!--zoomable 225 -->

<svg id="main" version="1.1" xmlns="http://www.w3.org/2000/svg" xmlns:xlink="http://www.w3.org/1999/xlink" xml:space="preserve" onload="init(evt)">

<style type="text/css"><![CDATA[
.node, .edge {opacity: 0.7;}
.node.selected, .edge.selected {opacity: 1;}
.edge:hover path { stroke: red; }
.edge:hover polygon { stroke: red; fill: red; }
]]></style>

<defs>
  <circle id="rim" cx="0" cy="0" r="7"/>
  <circle id="rim2" cx="0" cy="0" r="3.5"/>
  <g id="zoomPlus">
    <use xlink:href="#rim" fill="#404040"><set attributeName="fill" to="#808080" begin="zoomplus.mouseover" end="zoomplus.mouseout"/></use>
    <path d="M-4,0h8M0,-4v8" fill="none" stroke="white" stroke-width="1.5" pointer-events="none"/>
  </g>
  <g id="zoomMin">
    <use xlink:href="#rim" fill="#404040"><set attributeName="fill" to="#808080" begin="zoomminus.mouseover" end="zoomminus.mouseout"/></use>
    <path d="M-4,0h8" fill="none" stroke="white" stroke-width="1.5" pointer-events="none"/>
  </g>
  <g id="arrowUp" transform="translate(30 24)">
    <use xlink:href="#rim"/>
    <path pointer-events="none" fill="none" stroke="white" stroke-width="1.5" d="M0,-3.0v7 M-2.5,-0.5L0,-3.0L2.5,-0.5"/>
  </g>
  <g id="arrowRight" transform="rotate(90) translate(36 -43)">
    <use xlink:href="#rim"/>
    <path pointer-events="none" fill="none" stroke="white" stroke-width="1.5" d="M0,-3.0v7 M-2.5,-0.5L0,-3.0L2.5,-0.5"/>
  </g>
  <g id="arrowDown" transform="rotate(180) translate(-30 -48)">
    <use xlink:href="#rim"/>
    <path pointer-events="none" fill="none" stroke="white" stroke-width="1.5" d="M0,-3.0v7 M-2.5,-0.5L0,-3.0L2.5,-0.5"/>
  </g>
  <g id="arrowLeft" transform="rotate(270) translate(-36 17)">
    <use xlink:href="#rim"/>
    <path pointer-events="none" fill="none" stroke="white" stroke-width="1.5" d="M0,-3.0v7 M-2.5,-0.5L0,-3.0L2.5,-0.5"/>
  </g>
  <g id="resetDef">
    <use xlink:href="#rim2" fill="#404040"><set attributeName="fill" to="#808080" begin="reset.mouseover" end="reset.mouseout"/></use>
  </g>
</defs>
<script type="application/ecmascript">
var viewWidth = 841;
var viewHeight = 225;
var sectionId = 'dynsection-1';
</script>
<script type="application/ecmascript" xlink:href="svg.min.js"/>
<svg id="graph" class="graph">
<g id="viewport">
<title>src/engine/objects/Mole.h</title>
<!-- Node1 -->
<g id="Node000001" class="node">
<title>Node1</title>
<g id="a_Node000001"><a xlink:title=" ">
<polygon fill="#999999" stroke="#666666" points="604,-217 499,-217 499,-187 604,-187 604,-217"/>
<text text-anchor="start" x="507" y="-205" font-family="Helvetica,sans-Serif" font-size="10.00">src/engine/objects</text>
<text text-anchor="middle" x="551.5" y="-194" font-family="Helvetica,sans-Serif" font-size="10.00">/Mole.h</text>
</a>
</g>
</g>
<!-- Node2 -->
<g id="Node000002" class="node">
<title>Node2</title>
<g id="a_Node000002"><a xlink:href="AllActors_8h.html" target="_top" xlink:title=" ">
<polygon fill="white" stroke="#666666" points="318.5,-145.5 196.5,-145.5 196.5,-126.5 318.5,-126.5 318.5,-145.5"/>
<text text-anchor="middle" x="257.5" y="-133.5" font-family="Helvetica,sans-Serif" font-size="10.00">src/engine/AllActors.h</text>
</a>
</g>
</g>
<!-- Node1&#45;&gt;Node2 -->
<g id="edge1_Node000001_Node000002" class="edge">
<title>Node1&#45;&gt;Node2</title>
<g id="a_edge1_Node000001_Node000002"><a xlink:title=" ">
<path fill="none" stroke="#63b8ff" d="M489.13,-187.42C431.03,-174.77 346.16,-156.3 296.91,-145.58"/>
<polygon fill="#63b8ff" stroke="#63b8ff" points="488.42,-190.85 498.94,-189.56 489.91,-184.01 488.42,-190.85"/>
</a>
</g>
</g>
<!-- Node8 -->
<g id="Node000008" class="node">
<title>Node8</title>
<g id="a_Node000008"><a xlink:href="Mole_8cpp.html" target="_top" xlink:title=" ">
<polygon fill="white" stroke="#666666" points="442,-151 337,-151 337,-121 442,-121 442,-151"/>
<text text-anchor="start" x="345" y="-139" font-family="Helvetica,sans-Serif" font-size="10.00">src/engine/objects</text>
<text text-anchor="middle" x="389.5" y="-128" font-family="Helvetica,sans-Serif" font-size="10.00">/Mole.cpp</text>
</a>
</g>
</g>
<!-- Node1&#45;&gt;Node8 -->
<g id="edge8_Node000001_Node000008" class="edge">
<title>Node1&#45;&gt;Node8</title>
<g id="a_edge8_Node000001_Node000008"><a xlink:title=" ">
<path fill="none" stroke="#63b8ff" d="M506.41,-183.19C480.69,-173.02 448.9,-160.47 424.97,-151.01"/>
<polygon fill="#63b8ff" stroke="#63b8ff" points="505.36,-186.54 515.95,-186.95 507.93,-180.03 505.36,-186.54"/>
</a>
</g>
</g>
<!-- Node9 -->
<g id="Node000009" class="node">
<title>Node9</title>
<g id="a_Node000009"><a xlink:href="MoleGroup_8cpp.html" target="_top" xlink:title=" ">
<polygon fill="white" stroke="#666666" points="529,-85 424,-85 424,-55 529,-55 529,-85"/>
<text text-anchor="start" x="432" y="-73" font-family="Helvetica,sans-Serif" font-size="10.00">src/engine/objects</text>
<text text-anchor="middle" x="476.5" y="-62" font-family="Helvetica,sans-Serif" font-size="10.00">/MoleGroup.cpp</text>
</a>
</g>
</g>
<!-- Node1&#45;&gt;Node9 -->
<g id="edge9_Node000001_Node000009" class="edge">
<title>Node1&#45;&gt;Node9</title>
<g id="a_edge9_Node000001_Node000009"><a xlink:title=" ">
<path fill="none" stroke="#63b8ff" d="M518.66,-180.96C508.1,-172.92 497.37,-162.76 490.5,-151 478.41,-130.3 476.2,-101.82 476.08,-85.01"/>
<polygon fill="#63b8ff" stroke="#63b8ff" points="516.85,-183.97 527.02,-186.94 520.92,-178.27 516.85,-183.97"/>
</a>
</g>
</g>
<!-- Node10 -->
<g id="Node000010" class="node">
<title>Node10</title>
<g id="a_Node000010"><a xlink:href="MoleGroup_8h.html" target="_top" xlink:title=" ">
<polygon fill="white" stroke="#666666" points="604,-151 499,-151 499,-121 604,-121 604,-151"/>
<text text-anchor="start" x="507" y="-139" font-family="Helvetica,sans-Serif" font-size="10.00">src/engine/objects</text>
<text text-anchor="middle" x="551.5" y="-128" font-family="Helvetica,sans-Serif" font-size="10.00">/MoleGroup.h</text>
</a>
</g>
</g>
<!-- Node1&#45;&gt;Node10 -->
<g id="edge10_Node000001_Node000010" class="edge">
<title>Node1&#45;&gt;Node10</title>
<g id="a_edge10_Node000001_Node000010"><a xlink:title=" ">
<path fill="none" stroke="#63b8ff" d="M544.93,-176.83C544.52,-168.17 544.81,-158.7 545.79,-151.16"/>
<polygon fill="#63b8ff" stroke="#63b8ff" points="541.45,-177.13 545.78,-186.8 548.42,-176.54 541.45,-177.13"/>
</a>
</g>
</g>
<!-- Node11 -->
<g id="Node000011" class="node">
<title>Node11</title>
<g id="a_Node000011"><a xlink:href="MooMooFarm_8cpp.html" target="_top" xlink:title=" ">
<polygon fill="white" stroke="#666666" points="692,-85 547,-85 547,-55 692,-55 692,-85"/>
<text text-anchor="start" x="555" y="-73" font-family="Helvetica,sans-Serif" font-size="10.00">src/engine/tracks/MooMoo</text>
<text text-anchor="middle" x="619.5" y="-62" font-family="Helvetica,sans-Serif" font-size="10.00">Farm.cpp</text>
</a>
</g>
</g>
<!-- Node1&#45;&gt;Node11 -->
<g id="edge14_Node000001_Node000011" class="edge">
<title>Node1&#45;&gt;Node11</title>
<g id="a_edge14_Node000001_Node000011"><a xlink:title=" ">
<path fill="none" stroke="#63b8ff" d="M586.05,-181.04C596.67,-173.11 607.21,-162.98 613.5,-151 624.44,-130.16 623.55,-101.97 621.68,-85.22"/>
<polygon fill="#63b8ff" stroke="#63b8ff" points="583.8,-178.35 577.59,-186.94 587.8,-184.09 583.8,-178.35"/>
</a>
</g>
</g>
<!-- Node12 -->
<g id="Node000012" class="node">
<title>Node12</title>
<g id="a_Node000012"><a xlink:href="MooMooFarm_8h.html" target="_top" xlink:title=" ">
<polygon fill="white" stroke="#666666" points="806,-151 661,-151 661,-121 806,-121 806,-151"/>
<text text-anchor="start" x="669" y="-139" font-family="Helvetica,sans-Serif" font-size="10.00">src/engine/tracks/MooMoo</text>
<text text-anchor="middle" x="733.5" y="-128" font-family="Helvetica,sans-Serif" font-size="10.00">Farm.h</text>
</a>
</g>
</g>
<!-- Node1&#45;&gt;Node12 -->
<g id="edge15_Node000001_Node000012" class="edge">
<title>Node1&#45;&gt;Node12</title>
<g id="a_edge15_Node000001_Node000012"><a xlink:title=" ">
<path fill="none" stroke="#63b8ff" d="M601.01,-183.59C630.11,-173.36 666.41,-160.59 693.65,-151.01"/>
<polygon fill="#63b8ff" stroke="#63b8ff" points="599.71,-180.34 591.44,-186.95 602.04,-186.94 599.71,-180.34"/>
</a>
</g>
</g>
<!-- Node3 -->
<g id="Node000003" class="node">
<title>Node3</title>
<g id="a_Node000003"><a xlink:href="RaceManager_8cpp.html" target="_top" xlink:title=" ">
<polygon fill="white" stroke="#666666" points="329.5,-79.5 173.5,-79.5 173.5,-60.5 329.5,-60.5 329.5,-79.5"/>
<text text-anchor="middle" x="251.5" y="-67.5" font-family="Helvetica,sans-Serif" font-size="10.00">src/engine/RaceManager.cpp</text>
</a>
</g>
</g>
<!-- Node2&#45;&gt;Node3 -->
<g id="edge2_Node000002_Node000003" class="edge">
<title>Node2&#45;&gt;Node3</title>
<g id="a_edge2_Node000002_Node000003"><a xlink:title=" ">
<path fill="none" stroke="#63b8ff" d="M255.73,-116.08C254.61,-104.13 253.21,-89.22 252.33,-79.91"/>
<polygon fill="#63b8ff" stroke="#63b8ff" points="252.27,-116.74 256.69,-126.37 259.24,-116.09 252.27,-116.74"/>
</a>
</g>
</g>
<!-- Node4 -->
<g id="Node000004" class="node">
<title>Node4</title>
<g id="a_Node000004"><a xlink:href="RegisterContent_8cpp.html" target="_top" xlink:title=" ">
<polygon fill="white" stroke="#666666" points="636,-19 467,-19 467,0 636,0 636,-19"/>
<text text-anchor="middle" x="551.5" y="-7" font-family="Helvetica,sans-Serif" font-size="10.00">src/engine/RegisterContent.cpp</text>
</a>
</g>
</g>
<!-- Node2&#45;&gt;Node4 -->
<g id="edge3_Node000002_Node000004" class="edge">
<title>Node2&#45;&gt;Node4</title>
<g id="a_edge3_Node000002_Node000004"><a xlink:title=" ">
<path fill="none" stroke="#63b8ff" d="M282.89,-121.87C324.09,-100.62 402.22,-60.5 415.5,-55 450.96,-40.32 493.16,-27.15 521.04,-19.02"/>
<polygon fill="#63b8ff" stroke="#63b8ff" points="281.27,-118.77 273.99,-126.47 284.48,-124.99 281.27,-118.77"/>
</a>
</g>
</g>
<!-- Node5 -->
<g id="Node000005" class="node">
<title>Node5</title>
<g id="a_Node000005"><a xlink:href="ContentBrowser_8cpp.html" target="_top" xlink:title=" ">
<polygon fill="white" stroke="#666666" points="383.5,-19 217.5,-19 217.5,0 383.5,0 383.5,-19"/>
<text text-anchor="middle" x="300.5" y="-7" font-family="Helvetica,sans-Serif" font-size="10.00">src/port/ui/ContentBrowser.cpp</text>
</a>
</g>
</g>
<!-- Node2&#45;&gt;Node5 -->
<g id="edge4_Node000002_Node000005" class="edge">
<title>Node2&#45;&gt;Node5</title>
<g id="a_edge4_Node000002_Node000005"><a xlink:title=" ">
<path fill="none" stroke="#63b8ff" d="M293.81,-122.23C310.58,-114.29 328.88,-102.25 338.5,-85 345,-73.36 343.11,-67.51 338.5,-55 333.09,-40.32 320.43,-27.2 311.21,-19.07"/>
<polygon fill="#63b8ff" stroke="#63b8ff" points="291.94,-119.22 284.18,-126.44 294.75,-125.64 291.94,-119.22"/>
</a>
</g>
</g>
<!-- Node6 -->
<g id="Node000006" class="node">
<title>Node6</title>
<g id="a_Node000006"><a xlink:href="ContentBrowser_8h.html" target="_top" xlink:title=" ">
<polygon fill="white" stroke="#666666" points="155,-79.5 0,-79.5 0,-60.5 155,-60.5 155,-79.5"/>
<text text-anchor="middle" x="77.5" y="-67.5" font-family="Helvetica,sans-Serif" font-size="10.00">src/port/ui/ContentBrowser.h</text>
</a>
</g>
</g>
<!-- Node2&#45;&gt;Node6 -->
<g id="edge5_Node000002_Node000006" class="edge">
<title>Node2&#45;&gt;Node6</title>
<g id="a_edge5_Node000002_Node000006"><a xlink:title=" ">
<path fill="none" stroke="#63b8ff" d="M223.75,-123C188.21,-110.36 133.12,-90.78 101.68,-79.6"/>
<polygon fill="#63b8ff" stroke="#63b8ff" points="222.63,-126.32 233.22,-126.37 224.97,-119.72 222.63,-126.32"/>
</a>
</g>
</g>
<!-- Node6&#45;&gt;Node5 -->
<g id="edge6_Node000006_Node000005" class="edge">
<title>Node6&#45;&gt;Node5</title>
<g id="a_edge6_Node000006_Node000005"><a xlink:title=" ">
<path fill="none" stroke="#63b8ff" d="M119.83,-57.9C162.95,-46.58 228.88,-29.29 268.03,-19.02"/>
<polygon fill="#63b8ff" stroke="#63b8ff" points="118.71,-54.57 109.93,-60.49 120.49,-61.34 118.71,-54.57"/>
</a>
</g>
</g>
<!-- Node7 -->
<g id="Node000007" class="node">
<title>Node7</title>
<g id="a_Node000007"><a xlink:href="ImguiUI_8cpp.html" target="_top" xlink:title=" ">
<polygon fill="white" stroke="#666666" points="141,-19 14,-19 14,0 141,0 141,-19"/>
<text text-anchor="middle" x="77.5" y="-7" font-family="Helvetica,sans-Serif" font-size="10.00">src/port/ui/ImguiUI.cpp</text>
</a>
</g>
</g>
<!-- Node6&#45;&gt;Node7 -->
<g id="edge7_Node000006_Node000007" class="edge">
<title>Node6&#45;&gt;Node7</title>
<g id="a_edge7_Node000006_Node000007"><a xlink:title=" ">
<path fill="none" stroke="#63b8ff" d="M77.5,-50.16C77.5,-39.74 77.5,-27.3 77.5,-19.17"/>
<polygon fill="#63b8ff" stroke="#63b8ff" points="74,-50.37 77.5,-60.37 81,-50.37 74,-50.37"/>
</a>
</g>
</g>
<!-- Node10&#45;&gt;Node1 -->
<g id="edge11_Node000010_Node000001" class="edge">
<title>Node10&#45;&gt;Node1</title>
<g id="a_edge11_Node000010_Node000001"><a xlink:title=" ">
<path fill="none" stroke="#63b8ff" d="M558.07,-161.13C558.48,-169.78 558.2,-179.26 557.22,-186.8"/>
<polygon fill="#63b8ff" stroke="#63b8ff" points="561.55,-160.83 557.21,-151.16 554.58,-161.43 561.55,-160.83"/>
</a>
</g>
</g>
<!-- Node10&#45;&gt;Node9 -->
<g id="edge12_Node000010_Node000009" class="edge">
<title>Node10&#45;&gt;Node9</title>
<g id="a_edge12_Node000010_Node000009"><a xlink:title=" ">
<path fill="none" stroke="#63b8ff" d="M527.13,-114.2C515.99,-104.7 503.09,-93.69 493.1,-85.16"/>
<polygon fill="#63b8ff" stroke="#63b8ff" points="524.98,-116.97 534.86,-120.8 529.52,-111.64 524.98,-116.97"/>
</a>
</g>
</g>
<!-- Node10&#45;&gt;Node11 -->
<g id="edge13_Node000010_Node000011" class="edge">
<title>Node10&#45;&gt;Node11</title>
<g id="a_edge13_Node000010_Node000011"><a xlink:title=" ">
<path fill="none" stroke="#63b8ff" d="M573.89,-113.92C583.92,-104.49 595.48,-93.61 604.45,-85.16"/>
<polygon fill="#63b8ff" stroke="#63b8ff" points="571.47,-111.39 566.59,-120.8 576.27,-116.49 571.47,-111.39"/>
</a>
</g>
</g>
<!-- Node12&#45;&gt;Node11 -->
<g id="edge19_Node000012_Node000011" class="edge">
<title>Node12&#45;&gt;Node11</title>
<g id="a_edge19_Node000012_Node000011"><a xlink:title=" ">
<path fill="none" stroke="#63b8ff" d="M699.6,-115.97C681.9,-106.03 660.63,-94.09 644.46,-85.01"/>
<polygon fill="#63b8ff" stroke="#63b8ff" points="698.05,-119.11 708.48,-120.95 701.48,-113.01 698.05,-119.11"/>
</a>
</g>
</g>
<!-- Node13 -->
<g id="Node000013" class="node">
<title>Node13</title>
<g id="a_Node000013"><a xlink:href="AllTracks_8h.html" target="_top" xlink:title=" ">
<polygon fill="white" stroke="#666666" points="832.5,-79.5 710.5,-79.5 710.5,-60.5 832.5,-60.5 832.5,-79.5"/>
<text text-anchor="middle" x="771.5" y="-67.5" font-family="Helvetica,sans-Serif" font-size="10.00">src/engine/AllTracks.h</text>
</a>
</g>
</g>
<!-- Node12&#45;&gt;Node13 -->
<g id="edge16_Node000012_Node000013" class="edge">
<title>Node12&#45;&gt;Node13</title>
<g id="a_edge16_Node000012_Node000013"><a xlink:title=" ">
<path fill="none" stroke="#63b8ff" d="M747.19,-111.95C753.8,-100.81 761.34,-88.11 766.25,-79.84"/>
<polygon fill="#63b8ff" stroke="#63b8ff" points="744.03,-110.41 741.93,-120.8 750.05,-113.98 744.03,-110.41"/>
</a>
</g>
</g>
<!-- Node13&#45;&gt;Node4 -->
<g id="edge17_Node000013_Node000004" class="edge">
<title>Node13&#45;&gt;Node4</title>
<g id="a_edge17_Node000013_Node000004"><a xlink:title=" ">
<path fill="none" stroke="#63b8ff" d="M729.74,-57.9C687.2,-46.58 622.16,-29.29 583.53,-19.02"/>
<polygon fill="#63b8ff" stroke="#63b8ff" points="728.95,-61.31 739.51,-60.49 730.75,-54.54 728.95,-61.31"/>
</a>
</g>
</g>
<!-- Node14 -->
<g id="Node000014" class="node">
<title>Node14</title>
<g id="a_Node000014"><a xlink:href="Game_8cpp.html" target="_top" xlink:title=" ">
<polygon fill="white" stroke="#666666" points="824.5,-19 718.5,-19 718.5,0 824.5,0 824.5,-19"/>
<text text-anchor="middle" x="771.5" y="-7" font-family="Helvetica,sans-Serif" font-size="10.00">src/port/Game.cpp</text>
</a>
</g>
</g>
<!-- Node13&#45;&gt;Node14 -->
<g id="edge18_Node000013_Node000014" class="edge">
<title>Node13&#45;&gt;Node14</title>
<g id="a_edge18_Node000013_Node000014"><a xlink:title=" ">
<path fill="none" stroke="#63b8ff" d="M771.5,-50.16C771.5,-39.74 771.5,-27.3 771.5,-19.17"/>
<polygon fill="#63b8ff" stroke="#63b8ff" points="768,-50.37 771.5,-60.37 775,-50.37 768,-50.37"/>
</a>
</g>
</g>
</g>
</svg>

<g id="navigator" transform="translate(0 0)" fill="#404254">
  <rect fill="#f2f5e9" fill-opacity="0.5" stroke="#606060" stroke-width=".5" x="0" y="0" width="60" height="60"/>
  <use id="zoomplus" xlink:href="#zoomPlus" x="17" y="9" onmousedown="handleZoom(evt,'in')"/>
  <use id="zoomminus" xlink:href="#zoomMin" x="42" y="9" onmousedown="handleZoom(evt,'out')"/>
  <use id="reset" xlink:href="#resetDef" x="30" y="36" onmousedown="handleReset()"/>
   <use id="arrowup" xlink:href="#arrowUp" x="0" y="0" onmousedown="handlePan(0,-1)"/>
  <use id="arrowright" xlink:href="#arrowRight" x="0" y="0" onmousedown="handlePan(1,0)"/>
  <use id="arrowdown" xlink:href="#arrowDown" x="0" y="0" onmousedown="handlePan(0,1)"/>
  <use id="arrowleft" xlink:href="#arrowLeft" x="0" y="0" onmousedown="handlePan(-1,0)"/>
</g>
<svg viewBox="0 0 15 15" width="100%" height="30px" preserveAspectRatio="xMaxYMin meet">
 <g id="arrow_out" transform="scale(0.3 0.3)">
  <a xlink:href="Mole_8h__dep__incl_org.svg" target="_base">
   <rect id="button" ry="5" rx="5" y="6" x="6" height="38" width="38"
        fill="#f2f5e9" fill-opacity="0.5" stroke="#606060" stroke-width="1.0"/>
   <path id="arrow"
     d="M 11.500037,31.436501 C 11.940474,20.09759 22.043105,11.32322 32.158766,21.979434 L 37.068811,17.246167 C 37.068811,17.246167 37.088388,32 37.088388,32 L 22.160133,31.978069 C 22.160133,31.978069 26.997745,27.140456 26.997745,27.140456 C 18.528582,18.264221 13.291696,25.230495 11.500037,31.436501 z"
     style="fill:#404040;"/>
  </a>
 </g>
</svg>

<style type='text/css'>
<![CDATA[
[data-mouse-over-selected='false'] { opacity: 0.7; }
[data-mouse-over-selected='true']  { opacity: 1.0; }
]]>
</style>
<script type="application/ecmascript"><![CDATA[
document.addEventListener('DOMContentLoaded', (event) => {
  highlightEdges();
  highlightAdjacentNodes();
});
]]></script>
</svg>
