<?xml version="1.0" encoding="UTF-8" standalone="no"?>
<!DOCTYPE svg PUBLIC "-//W3C//DTD SVG 1.1//EN"
 "http://www.w3.org/Graphics/SVG/1.1/DTD/svg11.dtd">
<!-- Generated by graphviz version 2.43.0 (0)
 -->
<!-- Title: src/enhancements/moon_jump.c Pages: 1 -->
<svg width="554pt" height="313pt"
 viewBox="0.00 0.00 554.00 313.00" xmlns="http://www.w3.org/2000/svg" xmlns:xlink="http://www.w3.org/1999/xlink">
<g id="graph0" class="graph" transform="scale(1 1) rotate(0) translate(4 309)">
<title>src/enhancements/moon_jump.c</title>
<!-- Node1 -->
<g id="Node000001" class="node">
<title>Node1</title>
<g id="a_Node000001"><a xlink:title=" ">
<polygon fill="#999999" stroke="#666666" points="251.5,-305 114.5,-305 114.5,-275 251.5,-275 251.5,-305"/>
<text text-anchor="start" x="122.5" y="-293" font-family="Helvetica,sans-Serif" font-size="10.00">src/enhancements/moon</text>
<text text-anchor="middle" x="183" y="-282" font-family="Helvetica,sans-Serif" font-size="10.00">_jump.c</text>
</a>
</g>
</g>
<!-- Node2 -->
<g id="Node000002" class="node">
<title>Node2</title>
<g id="a_Node000002"><a xlink:title=" ">
<polygon fill="#e0e0e0" stroke="#999999" points="346,-74 266,-74 266,-55 346,-55 346,-74"/>
<text text-anchor="middle" x="306" y="-62" font-family="Helvetica,sans-Serif" font-size="10.00">libultraship.h</text>
</a>
</g>
</g>
<!-- Node1&#45;&gt;Node2 -->
<g id="edge1_Node000001_Node000002" class="edge">
<title>Node1&#45;&gt;Node2</title>
<g id="a_edge1_Node000001_Node000002"><a xlink:title=" ">
<path fill="none" stroke="#63b8ff" d="M175.21,-274.77C158.49,-242.09 123.59,-160.61 161,-110 182.54,-80.86 222.82,-70.19 255.47,-66.55"/>
<polygon fill="#63b8ff" stroke="#63b8ff" points="256.13,-70.01 265.77,-65.6 255.49,-63.04 256.13,-70.01"/>
</a>
</g>
</g>
<!-- Node3 -->
<g id="Node000003" class="node">
<title>Node3</title>
<g id="a_Node000003"><a xlink:href="main_8h.html" target="_top" xlink:title=" ">
<polygon fill="white" stroke="#666666" points="114,-184 64,-184 64,-165 114,-165 114,-184"/>
<text text-anchor="middle" x="89" y="-172" font-family="Helvetica,sans-Serif" font-size="10.00">main.h</text>
</a>
</g>
</g>
<!-- Node1&#45;&gt;Node3 -->
<g id="edge2_Node000001_Node000003" class="edge">
<title>Node1&#45;&gt;Node3</title>
<g id="a_edge2_Node000001_Node000003"><a xlink:title=" ">
<path fill="none" stroke="#63b8ff" d="M164.95,-274.83C153.58,-265.39 139.03,-252.32 128,-239 116.16,-224.71 105.35,-206.5 98.12,-193.25"/>
<polygon fill="#63b8ff" stroke="#63b8ff" points="101.12,-191.42 93.34,-184.23 94.93,-194.7 101.12,-191.42"/>
</a>
</g>
</g>
<!-- Node8 -->
<g id="Node000008" class="node">
<title>Node8</title>
<g id="a_Node000008"><a xlink:href="common__structs_8h.html" target="_top" xlink:title=" ">
<polygon fill="white" stroke="#666666" points="277.5,-129 170.5,-129 170.5,-110 277.5,-110 277.5,-129"/>
<text text-anchor="middle" x="224" y="-117" font-family="Helvetica,sans-Serif" font-size="10.00">common_structs.h</text>
</a>
</g>
</g>
<!-- Node1&#45;&gt;Node8 -->
<g id="edge23_Node000001_Node000008" class="edge">
<title>Node1&#45;&gt;Node8</title>
<g id="a_edge23_Node000001_Node000008"><a xlink:title=" ">
<path fill="none" stroke="#63b8ff" d="M186.43,-274.92C193.79,-244.65 211.14,-173.35 219.43,-139.27"/>
<polygon fill="#63b8ff" stroke="#63b8ff" points="222.91,-139.8 221.87,-129.25 216.1,-138.14 222.91,-139.8"/>
</a>
</g>
</g>
<!-- Node9 -->
<g id="Node000009" class="node">
<title>Node9</title>
<g id="a_Node000009"><a xlink:href="code__800029B0_8h.html" target="_top" xlink:title=" ">
<polygon fill="white" stroke="#666666" points="395.5,-239 292.5,-239 292.5,-220 395.5,-220 395.5,-239"/>
<text text-anchor="middle" x="344" y="-227" font-family="Helvetica,sans-Serif" font-size="10.00">code_800029B0.h</text>
</a>
</g>
</g>
<!-- Node1&#45;&gt;Node9 -->
<g id="edge10_Node000001_Node000009" class="edge">
<title>Node1&#45;&gt;Node9</title>
<g id="a_edge10_Node000001_Node000009"><a xlink:title=" ">
<path fill="none" stroke="#63b8ff" d="M221.56,-274.99C248.79,-265.1 284.88,-251.98 310.82,-242.56"/>
<polygon fill="#63b8ff" stroke="#63b8ff" points="312.02,-245.84 320.22,-239.14 309.63,-239.26 312.02,-245.84"/>
</a>
</g>
</g>
<!-- Node4 -->
<g id="Node000004" class="node">
<title>Node4</title>
<g id="a_Node000004"><a xlink:href="mk64_8h.html" target="_top" xlink:title=" ">
<polygon fill="white" stroke="#666666" points="113.5,-129 60.5,-129 60.5,-110 113.5,-110 113.5,-129"/>
<text text-anchor="middle" x="87" y="-117" font-family="Helvetica,sans-Serif" font-size="10.00">mk64.h</text>
</a>
</g>
</g>
<!-- Node3&#45;&gt;Node4 -->
<g id="edge3_Node000003_Node000004" class="edge">
<title>Node3&#45;&gt;Node4</title>
<g id="a_edge3_Node000003_Node000004"><a xlink:title=" ">
<path fill="none" stroke="#63b8ff" d="M88.67,-164.75C88.41,-157.8 88.03,-147.85 87.7,-139.13"/>
<polygon fill="#63b8ff" stroke="#63b8ff" points="91.2,-138.95 87.32,-129.09 84.2,-139.21 91.2,-138.95"/>
</a>
</g>
</g>
<!-- Node3&#45;&gt;Node8 -->
<g id="edge8_Node000003_Node000008" class="edge">
<title>Node3&#45;&gt;Node8</title>
<g id="a_edge8_Node000003_Node000008"><a xlink:title=" ">
<path fill="none" stroke="#63b8ff" d="M110.69,-164.98C132.8,-156.3 167.32,-142.75 192.45,-132.88"/>
<polygon fill="#63b8ff" stroke="#63b8ff" points="193.89,-136.08 201.92,-129.17 191.33,-129.57 193.89,-136.08"/>
</a>
</g>
</g>
<!-- Node4&#45;&gt;Node2 -->
<g id="edge4_Node000004_Node000002" class="edge">
<title>Node4&#45;&gt;Node2</title>
<g id="a_edge4_Node000004_Node000002"><a xlink:title=" ">
<path fill="none" stroke="#63b8ff" d="M113.85,-112C150.41,-103.15 216.35,-87.2 260.65,-76.47"/>
<polygon fill="#63b8ff" stroke="#63b8ff" points="261.69,-79.82 270.59,-74.07 260.04,-73.02 261.69,-79.82"/>
</a>
</g>
</g>
<!-- Node5 -->
<g id="Node000005" class="node">
<title>Node5</title>
<g id="a_Node000005"><a xlink:href="string_8h.html" target="_top" xlink:title=" ">
<polygon fill="white" stroke="#666666" points="71.5,-74 18.5,-74 18.5,-55 71.5,-55 71.5,-74"/>
<text text-anchor="middle" x="45" y="-62" font-family="Helvetica,sans-Serif" font-size="10.00">string.h</text>
</a>
</g>
</g>
<!-- Node4&#45;&gt;Node5 -->
<g id="edge5_Node000004_Node000005" class="edge">
<title>Node4&#45;&gt;Node5</title>
<g id="a_edge5_Node000004_Node000005"><a xlink:title=" ">
<path fill="none" stroke="#63b8ff" d="M80.06,-109.75C74.13,-102.26 65.43,-91.28 58.18,-82.13"/>
<polygon fill="#63b8ff" stroke="#63b8ff" points="60.76,-79.75 51.81,-74.09 55.27,-84.1 60.76,-79.75"/>
</a>
</g>
</g>
<!-- Node7 -->
<g id="Node000007" class="node">
<title>Node7</title>
<g id="a_Node000007"><a xlink:title=" ">
<polygon fill="#e0e0e0" stroke="#999999" points="168,-74 90,-74 90,-55 168,-55 168,-74"/>
<text text-anchor="middle" x="129" y="-62" font-family="Helvetica,sans-Serif" font-size="10.00">libultra/gbi.h</text>
</a>
</g>
</g>
<!-- Node4&#45;&gt;Node7 -->
<g id="edge7_Node000004_Node000007" class="edge">
<title>Node4&#45;&gt;Node7</title>
<g id="a_edge7_Node000004_Node000007"><a xlink:title=" ">
<path fill="none" stroke="#63b8ff" d="M93.94,-109.75C99.87,-102.26 108.57,-91.28 115.82,-82.13"/>
<polygon fill="#63b8ff" stroke="#63b8ff" points="118.73,-84.1 122.19,-74.09 113.24,-79.75 118.73,-84.1"/>
</a>
</g>
</g>
<!-- Node6 -->
<g id="Node000006" class="node">
<title>Node6</title>
<g id="a_Node000006"><a xlink:title=" ">
<polygon fill="#e0e0e0" stroke="#999999" points="90,-19 0,-19 0,0 90,0 90,-19"/>
<text text-anchor="middle" x="45" y="-7" font-family="Helvetica,sans-Serif" font-size="10.00">libultra/types.h</text>
</a>
</g>
</g>
<!-- Node5&#45;&gt;Node6 -->
<g id="edge6_Node000005_Node000006" class="edge">
<title>Node5&#45;&gt;Node6</title>
<g id="a_edge6_Node000005_Node000006"><a xlink:title=" ">
<path fill="none" stroke="#63b8ff" d="M45,-54.75C45,-47.8 45,-37.85 45,-29.13"/>
<polygon fill="#63b8ff" stroke="#63b8ff" points="48.5,-29.09 45,-19.09 41.5,-29.09 48.5,-29.09"/>
</a>
</g>
</g>
<!-- Node8&#45;&gt;Node2 -->
<g id="edge9_Node000008_Node000002" class="edge">
<title>Node8&#45;&gt;Node2</title>
<g id="a_edge9_Node000008_Node000002"><a xlink:title=" ">
<path fill="none" stroke="#63b8ff" d="M237.17,-109.98C249.77,-101.84 269,-89.41 283.94,-79.76"/>
<polygon fill="#63b8ff" stroke="#63b8ff" points="286.09,-82.54 292.59,-74.17 282.29,-76.66 286.09,-82.54"/>
</a>
</g>
</g>
<!-- Node9&#45;&gt;Node2 -->
<g id="edge14_Node000009_Node000002" class="edge">
<title>Node9&#45;&gt;Node2</title>
<g id="a_edge14_Node000009_Node000002"><a xlink:title=" ">
<path fill="none" stroke="#63b8ff" d="M341.96,-219.74C336,-194.2 318.57,-119.43 310.37,-84.23"/>
<polygon fill="#63b8ff" stroke="#63b8ff" points="313.73,-83.25 308.05,-74.31 306.92,-84.84 313.73,-83.25"/>
</a>
</g>
</g>
<!-- Node10 -->
<g id="Node000010" class="node">
<title>Node10</title>
<g id="a_Node000010"><a xlink:href="macros_8h.html" target="_top" xlink:title=" ">
<polygon fill="white" stroke="#666666" points="546,-129 484,-129 484,-110 546,-110 546,-129"/>
<text text-anchor="middle" x="515" y="-117" font-family="Helvetica,sans-Serif" font-size="10.00">macros.h</text>
</a>
</g>
</g>
<!-- Node9&#45;&gt;Node10 -->
<g id="edge11_Node000009_Node000010" class="edge">
<title>Node9&#45;&gt;Node10</title>
<g id="a_edge11_Node000009_Node000010"><a xlink:title=" ">
<path fill="none" stroke="#63b8ff" d="M383.16,-219.97C408.24,-213.16 440.55,-201.76 465,-184 481.97,-171.67 496.17,-152.09 505.05,-137.93"/>
<polygon fill="#63b8ff" stroke="#63b8ff" points="508.18,-139.52 510.32,-129.14 502.17,-135.92 508.18,-139.52"/>
</a>
</g>
</g>
<!-- Node12 -->
<g id="Node000012" class="node">
<title>Node12</title>
<g id="a_Node000012"><a xlink:href="actor__types_8h.html" target="_top" xlink:title=" ">
<polygon fill="white" stroke="#666666" points="455.5,-184 372.5,-184 372.5,-165 455.5,-165 455.5,-184"/>
<text text-anchor="middle" x="414" y="-172" font-family="Helvetica,sans-Serif" font-size="10.00">actor_types.h</text>
</a>
</g>
</g>
<!-- Node9&#45;&gt;Node12 -->
<g id="edge15_Node000009_Node000012" class="edge">
<title>Node9&#45;&gt;Node12</title>
<g id="a_edge15_Node000009_Node000012"><a xlink:title=" ">
<path fill="none" stroke="#63b8ff" d="M355.25,-219.98C365.8,-212 381.8,-199.88 394.44,-190.31"/>
<polygon fill="#63b8ff" stroke="#63b8ff" points="396.69,-193 402.55,-184.17 392.46,-187.42 396.69,-193"/>
</a>
</g>
</g>
<!-- Node14 -->
<g id="Node000014" class="node">
<title>Node14</title>
<g id="a_Node000014"><a xlink:href="camera_8h.html" target="_top" xlink:title=" ">
<polygon fill="white" stroke="#666666" points="316,-184 254,-184 254,-165 316,-165 316,-184"/>
<text text-anchor="middle" x="285" y="-172" font-family="Helvetica,sans-Serif" font-size="10.00">camera.h</text>
</a>
</g>
</g>
<!-- Node9&#45;&gt;Node14 -->
<g id="edge20_Node000009_Node000014" class="edge">
<title>Node9&#45;&gt;Node14</title>
<g id="a_edge20_Node000009_Node000014"><a xlink:title=" ">
<path fill="none" stroke="#63b8ff" d="M334.52,-219.98C325.8,-212.15 312.66,-200.34 302.1,-190.86"/>
<polygon fill="#63b8ff" stroke="#63b8ff" points="304.43,-188.25 294.65,-184.17 299.75,-193.46 304.43,-188.25"/>
</a>
</g>
</g>
<!-- Node10&#45;&gt;Node2 -->
<g id="edge13_Node000010_Node000002" class="edge">
<title>Node10&#45;&gt;Node2</title>
<g id="a_edge13_Node000010_Node000002"><a xlink:title=" ">
<path fill="none" stroke="#63b8ff" d="M483.71,-110.57C448.02,-101.51 389.43,-86.66 349.35,-76.49"/>
<polygon fill="#63b8ff" stroke="#63b8ff" points="350.14,-73.08 339.58,-74.02 348.42,-79.87 350.14,-73.08"/>
</a>
</g>
</g>
<!-- Node11 -->
<g id="Node000011" class="node">
<title>Node11</title>
<g id="a_Node000011"><a xlink:href="math_8h.html" target="_top" xlink:title=" ">
<polygon fill="white" stroke="#666666" points="540.5,-74 489.5,-74 489.5,-55 540.5,-55 540.5,-74"/>
<text text-anchor="middle" x="515" y="-62" font-family="Helvetica,sans-Serif" font-size="10.00">math.h</text>
</a>
</g>
</g>
<!-- Node10&#45;&gt;Node11 -->
<g id="edge12_Node000010_Node000011" class="edge">
<title>Node10&#45;&gt;Node11</title>
<g id="a_edge12_Node000010_Node000011"><a xlink:title=" ">
<path fill="none" stroke="#63b8ff" d="M515,-109.75C515,-102.8 515,-92.85 515,-84.13"/>
<polygon fill="#63b8ff" stroke="#63b8ff" points="518.5,-84.09 515,-74.09 511.5,-84.09 518.5,-84.09"/>
</a>
</g>
</g>
<!-- Node12&#45;&gt;Node2 -->
<g id="edge16_Node000012_Node000002" class="edge">
<title>Node12&#45;&gt;Node2</title>
<g id="a_edge16_Node000012_Node000002"><a xlink:title=" ">
<path fill="none" stroke="#63b8ff" d="M407.11,-164.94C396.88,-152.42 376.85,-128.57 358,-110 347.55,-99.71 335.09,-88.99 324.98,-80.66"/>
<polygon fill="#63b8ff" stroke="#63b8ff" points="327.11,-77.88 317.15,-74.28 322.69,-83.31 327.11,-77.88"/>
</a>
</g>
</g>
<!-- Node12&#45;&gt;Node8 -->
<g id="edge18_Node000012_Node000008" class="edge">
<title>Node12&#45;&gt;Node8</title>
<g id="a_edge18_Node000012_Node000008"><a xlink:title=" ">
<path fill="none" stroke="#63b8ff" d="M383.47,-164.98C351.3,-156.01 300.44,-141.82 264.83,-131.89"/>
<polygon fill="#63b8ff" stroke="#63b8ff" points="265.34,-128.4 254.77,-129.08 263.46,-135.14 265.34,-128.4"/>
</a>
</g>
</g>
<!-- Node12&#45;&gt;Node10 -->
<g id="edge17_Node000012_Node000010" class="edge">
<title>Node12&#45;&gt;Node10</title>
<g id="a_edge17_Node000012_Node000010"><a xlink:title=" ">
<path fill="none" stroke="#63b8ff" d="M430.23,-164.98C446.18,-156.61 470.78,-143.7 489.38,-133.95"/>
<polygon fill="#63b8ff" stroke="#63b8ff" points="491.25,-136.92 498.48,-129.17 488,-130.72 491.25,-136.92"/>
</a>
</g>
</g>
<!-- Node13 -->
<g id="Node000013" class="node">
<title>Node13</title>
<g id="a_Node000013"><a xlink:title=" ">
<polygon fill="#e0e0e0" stroke="#999999" points="466,-129 410,-129 410,-110 466,-110 466,-129"/>
<text text-anchor="middle" x="438" y="-117" font-family="Helvetica,sans-Serif" font-size="10.00">assert.h</text>
</a>
</g>
</g>
<!-- Node12&#45;&gt;Node13 -->
<g id="edge19_Node000012_Node000013" class="edge">
<title>Node12&#45;&gt;Node13</title>
<g id="a_edge19_Node000012_Node000013"><a xlink:title=" ">
<path fill="none" stroke="#63b8ff" d="M417.96,-164.75C421.21,-157.57 425.92,-147.18 429.95,-138.27"/>
<polygon fill="#63b8ff" stroke="#63b8ff" points="433.17,-139.64 434.11,-129.09 426.8,-136.75 433.17,-139.64"/>
</a>
</g>
</g>
<!-- Node14&#45;&gt;Node2 -->
<g id="edge21_Node000014_Node000002" class="edge">
<title>Node14&#45;&gt;Node2</title>
<g id="a_edge21_Node000014_Node000002"><a xlink:title=" ">
<path fill="none" stroke="#63b8ff" d="M286.72,-164.66C290.12,-147.17 297.77,-107.8 302.35,-84.27"/>
<polygon fill="#63b8ff" stroke="#63b8ff" points="305.84,-84.64 304.32,-74.16 298.97,-83.31 305.84,-84.64"/>
</a>
</g>
</g>
<!-- Node14&#45;&gt;Node8 -->
<g id="edge22_Node000014_Node000008" class="edge">
<title>Node14&#45;&gt;Node8</title>
<g id="a_edge22_Node000014_Node000008"><a xlink:title=" ">
<path fill="none" stroke="#63b8ff" d="M275.2,-164.98C266.18,-157.15 252.59,-145.34 241.68,-135.86"/>
<polygon fill="#63b8ff" stroke="#63b8ff" points="243.82,-133.09 233.98,-129.17 239.23,-138.37 243.82,-133.09"/>
</a>
</g>
</g>
</g>
</svg>
