<?xml version="1.0" encoding="UTF-8" standalone="no"?>
<!DOCTYPE svg PUBLIC "-//W3C//DTD SVG 1.1//EN"
 "http://www.w3.org/Graphics/SVG/1.1/DTD/svg11.dtd">
<!-- Generated by graphviz version 2.43.0 (0)
 -->
<!-- Title: TrackEditor::FromJsonVec Pages: 1 -->
<svg width="1058pt" height="81pt"
 viewBox="0.00 0.00 1058.00 81.00" xmlns="http://www.w3.org/2000/svg" xmlns:xlink="http://www.w3.org/1999/xlink">
<g id="graph0" class="graph" transform="scale(1 1) rotate(0) translate(4 77)">
<title>TrackEditor::FromJsonVec</title>
<!-- Node1 -->
<g id="Node000001" class="node">
<title>Node1</title>
<g id="a_Node000001"><a xlink:title=" ">
<polygon fill="#999999" stroke="#666666" points="1050,-45.5 911,-45.5 911,-26.5 1050,-26.5 1050,-45.5"/>
<text text-anchor="middle" x="980.5" y="-33.5" font-family="Helvetica,sans-Serif" font-size="10.00">TrackEditor::FromJsonVec</text>
</a>
</g>
</g>
<!-- Node2 -->
<g id="Node000002" class="node">
<title>Node2</title>
<g id="a_Node000002"><a xlink:href="namespaceTrackEditor.html#abc28bd8b6f403b63352ed6c32052352b" target="_top" xlink:title=" ">
<polygon fill="white" stroke="#666666" points="699,-45.5 517,-45.5 517,-26.5 699,-26.5 699,-45.5"/>
<text text-anchor="middle" x="608" y="-33.5" font-family="Helvetica,sans-Serif" font-size="10.00">TrackEditor::FromJsonCameraShot</text>
</a>
</g>
</g>
<!-- Node1&#45;&gt;Node2 -->
<g id="edge1_Node000001_Node000002" class="edge">
<title>Node1&#45;&gt;Node2</title>
<g id="a_edge1_Node000001_Node000002"><a xlink:title=" ">
<path fill="none" stroke="#63b8ff" d="M900.76,-38.5C892.07,-38.71 883.35,-38.88 875,-39 812.78,-39.89 797.22,-39.74 735,-39 723.4,-38.86 711.21,-38.65 699.16,-38.41"/>
<polygon fill="#63b8ff" stroke="#63b8ff" points="901.02,-42 910.93,-38.25 900.84,-35 901.02,-42"/>
</a>
</g>
</g>
<!-- Node7 -->
<g id="Node000007" class="node">
<title>Node7</title>
<g id="a_Node000007"><a xlink:href="namespaceTrackEditor.html#a99f257ca9eebe29df775acc71a5a0fee" target="_top" xlink:title=" ">
<polygon fill="white" stroke="#666666" points="875,-30 735,-30 735,0 875,0 875,-30"/>
<text text-anchor="start" x="743" y="-18" font-family="Helvetica,sans-Serif" font-size="10.00">TrackEditor::FromJsonKey</text>
<text text-anchor="middle" x="805" y="-7" font-family="Helvetica,sans-Serif" font-size="10.00">Frame</text>
</a>
</g>
</g>
<!-- Node1&#45;&gt;Node7 -->
<g id="edge6_Node000001_Node000007" class="edge">
<title>Node1&#45;&gt;Node7</title>
<g id="a_edge6_Node000001_Node000007"><a xlink:title=" ">
<path fill="none" stroke="#63b8ff" d="M900.93,-26.49C892.35,-25.45 883.66,-24.4 875.21,-23.38"/>
<polygon fill="#63b8ff" stroke="#63b8ff" points="900.58,-29.97 910.93,-27.7 901.42,-23.02 900.58,-29.97"/>
</a>
</g>
</g>
<!-- Node3 -->
<g id="Node000003" class="node">
<title>Node3</title>
<g id="a_Node000003"><a xlink:href="namespaceTrackEditor.html#aa8ee12b66dfd279a0898c020b34581b2" target="_top" xlink:title=" ">
<polygon fill="white" stroke="#666666" points="481,-45.5 361,-45.5 361,-26.5 481,-26.5 481,-45.5"/>
<text text-anchor="middle" x="421" y="-33.5" font-family="Helvetica,sans-Serif" font-size="10.00">TrackEditor::LoadTour</text>
</a>
</g>
</g>
<!-- Node2&#45;&gt;Node3 -->
<g id="edge2_Node000002_Node000003" class="edge">
<title>Node2&#45;&gt;Node3</title>
<g id="a_edge2_Node000002_Node000003"><a xlink:title=" ">
<path fill="none" stroke="#63b8ff" d="M506.71,-36C498.02,-36 489.42,-36 481.22,-36"/>
<polygon fill="#63b8ff" stroke="#63b8ff" points="506.94,-39.5 516.94,-36 506.94,-32.5 506.94,-39.5"/>
</a>
</g>
</g>
<!-- Node4 -->
<g id="Node000004" class="node">
<title>Node4</title>
<g id="a_Node000004"><a xlink:href="namespaceTrackEditor.html#af5a960e46705549c4ff5b8f8f55bc21c" target="_top" xlink:title=" ">
<polygon fill="white" stroke="#666666" points="325,-51 176,-51 176,-21 325,-21 325,-51"/>
<text text-anchor="start" x="184" y="-39" font-family="Helvetica,sans-Serif" font-size="10.00">TrackEditor::LoadTrackData</text>
<text text-anchor="middle" x="250.5" y="-28" font-family="Helvetica,sans-Serif" font-size="10.00">FromJson</text>
</a>
</g>
</g>
<!-- Node3&#45;&gt;Node4 -->
<g id="edge3_Node000003_Node000004" class="edge">
<title>Node3&#45;&gt;Node4</title>
<g id="a_edge3_Node000003_Node000004"><a xlink:title=" ">
<path fill="none" stroke="#63b8ff" d="M350.51,-36C342.13,-36 333.56,-36 325.14,-36"/>
<polygon fill="#63b8ff" stroke="#63b8ff" points="350.59,-39.5 360.59,-36 350.59,-32.5 350.59,-39.5"/>
</a>
</g>
</g>
<!-- Node5 -->
<g id="Node000005" class="node">
<title>Node5</title>
<g id="a_Node000005"><a xlink:href="classTrackEditor_1_1ToolsWindow.html#ae385cfb1d654a2e5be9373f7df9a16ef" target="_top" xlink:title=" ">
<polygon fill="white" stroke="#666666" points="140,-73 0,-73 0,-43 140,-43 140,-73"/>
<text text-anchor="start" x="8" y="-61" font-family="Helvetica,sans-Serif" font-size="10.00">TrackEditor::ToolsWindow</text>
<text text-anchor="middle" x="70" y="-50" font-family="Helvetica,sans-Serif" font-size="10.00">::DrawElement</text>
</a>
</g>
</g>
<!-- Node4&#45;&gt;Node5 -->
<g id="edge4_Node000004_Node000005" class="edge">
<title>Node4&#45;&gt;Node5</title>
<g id="a_edge4_Node000004_Node000005"><a xlink:title=" ">
<path fill="none" stroke="#63b8ff" d="M165.83,-46.31C157.24,-47.37 148.57,-48.44 140.16,-49.48"/>
<polygon fill="#63b8ff" stroke="#63b8ff" points="166.37,-49.77 175.87,-45.08 165.51,-42.82 166.37,-49.77"/>
</a>
</g>
</g>
<!-- Node6 -->
<g id="Node000006" class="node">
<title>Node6</title>
<g id="a_Node000006"><a xlink:href="classCustomTrack.html#a04441e98f3743d62b62e48240b141899" target="_top" xlink:title=" ">
<polygon fill="white" stroke="#666666" points="124.5,-24.5 15.5,-24.5 15.5,-5.5 124.5,-5.5 124.5,-24.5"/>
<text text-anchor="middle" x="70" y="-12.5" font-family="Helvetica,sans-Serif" font-size="10.00">CustomTrack::Load</text>
</a>
</g>
</g>
<!-- Node4&#45;&gt;Node6 -->
<g id="edge5_Node000004_Node000006" class="edge">
<title>Node4&#45;&gt;Node6</title>
<g id="a_edge5_Node000004_Node000006"><a xlink:title=" ">
<path fill="none" stroke="#63b8ff" d="M165.72,-26.14C151.72,-24.5 137.54,-22.83 124.56,-21.3"/>
<polygon fill="#63b8ff" stroke="#63b8ff" points="165.53,-29.64 175.87,-27.34 166.34,-22.69 165.53,-29.64"/>
</a>
</g>
</g>
<!-- Node7&#45;&gt;Node2 -->
<g id="edge7_Node000007_Node000002" class="edge">
<title>Node7&#45;&gt;Node2</title>
<g id="a_edge7_Node000007_Node000002"><a xlink:title=" ">
<path fill="none" stroke="#63b8ff" d="M724.87,-23.52C715.82,-24.5 706.56,-25.49 697.4,-26.48"/>
<polygon fill="#63b8ff" stroke="#63b8ff" points="725.41,-26.98 734.98,-22.43 724.66,-20.02 725.41,-26.98"/>
</a>
</g>
</g>
</g>
</svg>
