<?xml version="1.0" encoding="UTF-8" standalone="no"?>
<!DOCTYPE svg PUBLIC "-//W3C//DTD SVG 1.1//EN"
 "http://www.w3.org/Graphics/SVG/1.1/DTD/svg11.dtd">
<!-- Generated by graphviz version 2.43.0 (0)
 -->
<!-- Title: Editor::LoadTour Pages: 1 -->
<svg width="625pt" height="46pt"
 viewBox="0.00 0.00 625.00 46.00" xmlns="http://www.w3.org/2000/svg" xmlns:xlink="http://www.w3.org/1999/xlink">
<g id="graph0" class="graph" transform="scale(1 1) rotate(0) translate(4 42)">
<title>Editor::LoadTour</title>
<!-- Node1 -->
<g id="Node000001" class="node">
<title>Node1</title>
<g id="a_Node000001"><a xlink:title=" ">
<polygon fill="#999999" stroke="#666666" points="95,-19 0,-19 0,0 95,0 95,-19"/>
<text text-anchor="middle" x="47.5" y="-7" font-family="Helvetica,sans-Serif" font-size="10.00">Editor::LoadTour</text>
</a>
</g>
</g>
<!-- Node2 -->
<g id="Node000002" class="node">
<title>Node2</title>
<g id="a_Node000002"><a xlink:href="namespaceEditor.html#ac7a2abd4c4133424f846cec0f2eba13f" target="_top" xlink:title=" ">
<polygon fill="white" stroke="#666666" points="287,-19 131,-19 131,0 287,0 287,-19"/>
<text text-anchor="middle" x="209" y="-7" font-family="Helvetica,sans-Serif" font-size="10.00">Editor::FromJsonCameraShot</text>
</a>
</g>
</g>
<!-- Node1&#45;&gt;Node2 -->
<g id="edge1_Node000001_Node000002" class="edge">
<title>Node1&#45;&gt;Node2</title>
<g id="a_edge1_Node000001_Node000002"><a xlink:title=" ">
<path fill="none" stroke="#63b8ff" d="M95.06,-9.5C103.21,-9.5 111.93,-9.5 120.76,-9.5"/>
<polygon fill="#63b8ff" stroke="#63b8ff" points="120.77,-13 130.77,-9.5 120.77,-6 120.77,-13"/>
</a>
</g>
</g>
<!-- Node3 -->
<g id="Node000003" class="node">
<title>Node3</title>
<g id="a_Node000003"><a xlink:href="namespaceEditor.html#ad162fbe6cf9ca7ed07efed73134a8a46" target="_top" xlink:title=" ">
<polygon fill="white" stroke="#666666" points="468,-38 323,-38 323,-19 468,-19 468,-38"/>
<text text-anchor="middle" x="395.5" y="-26" font-family="Helvetica,sans-Serif" font-size="10.00">Editor::FromJsonKeyFrame</text>
</a>
</g>
</g>
<!-- Node2&#45;&gt;Node3 -->
<g id="edge2_Node000002_Node000003" class="edge">
<title>Node2&#45;&gt;Node3</title>
<g id="a_edge2_Node000002_Node000003"><a xlink:title=" ">
<path fill="none" stroke="#63b8ff" d="M287.18,-17.45C295.69,-18.32 304.39,-19.22 312.95,-20.1"/>
<polygon fill="#63b8ff" stroke="#63b8ff" points="312.63,-23.59 322.94,-21.13 313.35,-16.62 312.63,-23.59"/>
</a>
</g>
</g>
<!-- Node4 -->
<g id="Node000004" class="node">
<title>Node4</title>
<g id="a_Node000004"><a xlink:href="namespaceEditor.html#a6292171c89d7dad84497433e54697153" target="_top" xlink:title=" ">
<polygon fill="white" stroke="#666666" points="617,-19 504,-19 504,0 617,0 617,-19"/>
<text text-anchor="middle" x="560.5" y="-7" font-family="Helvetica,sans-Serif" font-size="10.00">Editor::FromJsonVec</text>
</a>
</g>
</g>
<!-- Node2&#45;&gt;Node4 -->
<g id="edge4_Node000002_Node000004" class="edge">
<title>Node2&#45;&gt;Node4</title>
<g id="a_edge4_Node000002_Node000004"><a xlink:title=" ">
<path fill="none" stroke="#63b8ff" d="M287.13,-9.5C349.05,-9.5 435.04,-9.5 493.73,-9.5"/>
<polygon fill="#63b8ff" stroke="#63b8ff" points="494,-13 504,-9.5 494,-6 494,-13"/>
</a>
</g>
</g>
<!-- Node3&#45;&gt;Node4 -->
<g id="edge3_Node000003_Node000004" class="edge">
<title>Node3&#45;&gt;Node4</title>
<g id="a_edge3_Node000003_Node000004"><a xlink:title=" ">
<path fill="none" stroke="#63b8ff" d="M468.47,-20.11C476.84,-19.14 485.34,-18.14 493.62,-17.18"/>
<polygon fill="#63b8ff" stroke="#63b8ff" points="494.06,-20.65 503.58,-16.02 493.24,-13.7 494.06,-20.65"/>
</a>
</g>
</g>
</g>
</svg>
