<?xml version="1.0" encoding="UTF-8" standalone="no"?>
<!DOCTYPE svg PUBLIC "-//W3C//DTD SVG 1.1//EN"
 "http://www.w3.org/Graphics/SVG/1.1/DTD/svg11.dtd">
<!-- Generated by graphviz version 2.43.0 (0)
 -->
<!-- Title: Editor::ToJson Pages: 1 -->
<svg width="509pt" height="107pt"
 viewBox="0.00 0.00 509.00 106.50" xmlns="http://www.w3.org/2000/svg" xmlns:xlink="http://www.w3.org/1999/xlink">
<g id="graph0" class="graph" transform="scale(1 1) rotate(0) translate(4 102.5)">
<title>Editor::ToJson</title>
<!-- Node1 -->
<g id="Node000001" class="node">
<title>Node1</title>
<g id="a_Node000001"><a xlink:title=" ">
<polygon fill="#999999" stroke="#666666" points="501,-56 419,-56 419,-37 501,-37 501,-56"/>
<text text-anchor="middle" x="460" y="-44" font-family="Helvetica,sans-Serif" font-size="10.00">Editor::ToJson</text>
</a>
</g>
</g>
<!-- Node2 -->
<g id="Node000002" class="node">
<title>Node2</title>
<g id="a_Node000002"><a xlink:href="namespaceEditor.html#a1f03f8226c2418c158411ba2f3f7b482" target="_top" xlink:title=" ">
<polygon fill="white" stroke="#666666" points="383,-93 288,-93 288,-74 383,-74 383,-93"/>
<text text-anchor="middle" x="335.5" y="-81" font-family="Helvetica,sans-Serif" font-size="10.00">Editor::SaveTour</text>
</a>
</g>
</g>
<!-- Node1&#45;&gt;Node2 -->
<g id="edge1_Node000001_Node000002" class="edge">
<title>Node1&#45;&gt;Node2</title>
<g id="a_edge1_Node000001_Node000002"><a xlink:title=" ">
<path fill="none" stroke="#63b8ff" d="M417.74,-58.96C401.62,-63.83 383.44,-69.32 368.37,-73.88"/>
<polygon fill="#63b8ff" stroke="#63b8ff" points="418.89,-62.27 427.45,-56.03 416.87,-55.57 418.89,-62.27"/>
</a>
</g>
</g>
<!-- Node5 -->
<g id="Node000005" class="node">
<title>Node5</title>
<g id="a_Node000005"><a xlink:href="namespaceEditor.html#a219571d42c0c3b75d06d8bd602a668ab" target="_top" xlink:title=" ">
<polygon fill="white" stroke="#666666" points="376.5,-56 294.5,-56 294.5,-37 376.5,-37 376.5,-56"/>
<text text-anchor="middle" x="335.5" y="-44" font-family="Helvetica,sans-Serif" font-size="10.00">Editor::ToJson</text>
</a>
</g>
</g>
<!-- Node1&#45;&gt;Node5 -->
<g id="edge4_Node000001_Node000005" class="edge">
<title>Node1&#45;&gt;Node5</title>
<g id="a_edge4_Node000001_Node000005"><a xlink:title=" ">
<path fill="none" stroke="#63b8ff" d="M408.82,-46.5C398.13,-46.5 386.96,-46.5 376.7,-46.5"/>
<polygon fill="#63b8ff" stroke="#63b8ff" points="408.89,-50 418.89,-46.5 408.89,-43 408.89,-50"/>
</a>
</g>
</g>
<!-- Node6 -->
<g id="Node000006" class="node">
<title>Node6</title>
<g id="a_Node000006"><a xlink:href="namespaceEditor.html#a5ce3c80b1bf20ebdbbabc5f78dabcf63" target="_top" xlink:title=" ">
<polygon fill="white" stroke="#666666" points="376.5,-19 294.5,-19 294.5,0 376.5,0 376.5,-19"/>
<text text-anchor="middle" x="335.5" y="-7" font-family="Helvetica,sans-Serif" font-size="10.00">Editor::ToJson</text>
</a>
</g>
</g>
<!-- Node1&#45;&gt;Node6 -->
<g id="edge5_Node000001_Node000006" class="edge">
<title>Node1&#45;&gt;Node6</title>
<g id="a_edge5_Node000001_Node000006"><a xlink:title=" ">
<path fill="none" stroke="#63b8ff" d="M417.74,-34.04C401.62,-29.17 383.44,-23.68 368.37,-19.12"/>
<polygon fill="#63b8ff" stroke="#63b8ff" points="416.87,-37.43 427.45,-36.97 418.89,-30.73 416.87,-37.43"/>
</a>
</g>
</g>
<!-- Node3 -->
<g id="Node000003" class="node">
<title>Node3</title>
<g id="a_Node000003"><a xlink:href="namespaceEditor.html#a19ed3388aed49eb6301d4d22cb657797" target="_top" xlink:title=" ">
<polygon fill="white" stroke="#666666" points="252,-93 151,-93 151,-74 252,-74 252,-93"/>
<text text-anchor="middle" x="201.5" y="-81" font-family="Helvetica,sans-Serif" font-size="10.00">Editor::SaveLevel</text>
</a>
</g>
</g>
<!-- Node2&#45;&gt;Node3 -->
<g id="edge2_Node000002_Node000003" class="edge">
<title>Node2&#45;&gt;Node3</title>
<g id="a_edge2_Node000002_Node000003"><a xlink:title=" ">
<path fill="none" stroke="#63b8ff" d="M277.74,-83.5C269.24,-83.5 260.54,-83.5 252.2,-83.5"/>
<polygon fill="#63b8ff" stroke="#63b8ff" points="277.96,-87 287.96,-83.5 277.96,-80 277.96,-87"/>
</a>
</g>
</g>
<!-- Node4 -->
<g id="Node000004" class="node">
<title>Node4</title>
<g id="a_Node000004"><a xlink:href="classEditor_1_1ToolsWindow.html#acc7235f0826c422806a61a1214aa42c2" target="_top" xlink:title=" ">
<polygon fill="white" stroke="#666666" points="115,-98.5 0,-98.5 0,-68.5 115,-68.5 115,-98.5"/>
<text text-anchor="start" x="8" y="-86.5" font-family="Helvetica,sans-Serif" font-size="10.00">Editor::ToolsWindow</text>
<text text-anchor="middle" x="57.5" y="-75.5" font-family="Helvetica,sans-Serif" font-size="10.00">::DrawElement</text>
</a>
</g>
</g>
<!-- Node3&#45;&gt;Node4 -->
<g id="edge3_Node000003_Node000004" class="edge">
<title>Node3&#45;&gt;Node4</title>
<g id="a_edge3_Node000003_Node000004"><a xlink:title=" ">
<path fill="none" stroke="#63b8ff" d="M140.67,-83.5C132.23,-83.5 123.57,-83.5 115.18,-83.5"/>
<polygon fill="#63b8ff" stroke="#63b8ff" points="140.84,-87 150.84,-83.5 140.84,-80 140.84,-87"/>
</a>
</g>
</g>
</g>
</svg>
