<?xml version="1.0" encoding="UTF-8" standalone="no"?>
<!DOCTYPE svg PUBLIC "-//W3C//DTD SVG 1.1//EN"
 "http://www.w3.org/Graphics/SVG/1.1/DTD/svg11.dtd">
<!-- Generated by graphviz version 2.43.0 (0)
 -->
<!-- Title: Editor::Load_AddStaticMeshActor Pages: 1 -->
<svg width="559pt" height="38pt"
 viewBox="0.00 0.00 559.00 38.00" xmlns="http://www.w3.org/2000/svg" xmlns:xlink="http://www.w3.org/1999/xlink">
<g id="graph0" class="graph" transform="scale(1 1) rotate(0) translate(4 34)">
<title>Editor::Load_AddStaticMeshActor</title>
<!-- Node1 -->
<g id="Node000001" class="node">
<title>Node1</title>
<g id="a_Node000001"><a xlink:title=" ">
<polygon fill="#999999" stroke="#666666" points="551,-30 399,-30 399,0 551,0 551,-30"/>
<text text-anchor="start" x="407" y="-18" font-family="Helvetica,sans-Serif" font-size="10.00">Editor::Load_AddStaticMesh</text>
<text text-anchor="middle" x="475" y="-7" font-family="Helvetica,sans-Serif" font-size="10.00">Actor</text>
</a>
</g>
</g>
<!-- Node2 -->
<g id="Node000002" class="node">
<title>Node2</title>
<g id="a_Node000002"><a xlink:href="namespaceEditor.html#a1425eb1edfff28e7d8d422e4cba35fb8" target="_top" xlink:title=" ">
<polygon fill="white" stroke="#666666" points="363,-24.5 204,-24.5 204,-5.5 363,-5.5 363,-24.5"/>
<text text-anchor="middle" x="283.5" y="-12.5" font-family="Helvetica,sans-Serif" font-size="10.00">Editor::LoadStaticMeshActors</text>
</a>
</g>
</g>
<!-- Node1&#45;&gt;Node2 -->
<g id="edge1_Node000001_Node000002" class="edge">
<title>Node1&#45;&gt;Node2</title>
<g id="a_edge1_Node000001_Node000002"><a xlink:title=" ">
<path fill="none" stroke="#63b8ff" d="M388.62,-15C380.19,-15 371.67,-15 363.31,-15"/>
<polygon fill="#63b8ff" stroke="#63b8ff" points="388.83,-18.5 398.83,-15 388.83,-11.5 388.83,-18.5"/>
</a>
</g>
</g>
<!-- Node3 -->
<g id="Node000003" class="node">
<title>Node3</title>
<g id="a_Node000003"><a xlink:href="namespaceEditor.html#ac8f7ab9a81c714873b34c17b2a397ca6" target="_top" xlink:title=" ">
<polygon fill="white" stroke="#666666" points="168,-24.5 0,-24.5 0,-5.5 168,-5.5 168,-24.5"/>
<text text-anchor="middle" x="84" y="-12.5" font-family="Helvetica,sans-Serif" font-size="10.00">Editor::LoadTrackDataFromJson</text>
</a>
</g>
</g>
<!-- Node2&#45;&gt;Node3 -->
<g id="edge2_Node000002_Node000003" class="edge">
<title>Node2&#45;&gt;Node3</title>
<g id="a_edge2_Node000002_Node000003"><a xlink:title=" ">
<path fill="none" stroke="#63b8ff" d="M193.63,-15C185.17,-15 176.61,-15 168.21,-15"/>
<polygon fill="#63b8ff" stroke="#63b8ff" points="193.88,-18.5 203.88,-15 193.88,-11.5 193.88,-18.5"/>
</a>
</g>
</g>
</g>
</svg>
