<?xml version="1.0" encoding="UTF-8" standalone="no"?>
<!DOCTYPE svg PUBLIC "-//W3C//DTD SVG 1.1//EN"
 "http://www.w3.org/Graphics/SVG/1.1/DTD/svg11.dtd">
<!-- Generated by graphviz version 2.43.0 (0)
 -->
<!-- Title: Editor::ToJson Pages: 1 -->
<svg width="766pt" height="131pt"
 viewBox="0.00 0.00 766.00 130.50" xmlns="http://www.w3.org/2000/svg" xmlns:xlink="http://www.w3.org/1999/xlink">
<g id="graph0" class="graph" transform="scale(1 1) rotate(0) translate(4 126.5)">
<title>Editor::ToJson</title>
<!-- Node1 -->
<g id="Node000001" class="node">
<title>Node1</title>
<g id="a_Node000001"><a xlink:title=" ">
<polygon fill="#999999" stroke="#666666" points="758,-56 676,-56 676,-37 758,-37 758,-56"/>
<text text-anchor="middle" x="717" y="-44" font-family="Helvetica,sans-Serif" font-size="10.00">Editor::ToJson</text>
</a>
</g>
</g>
<!-- Node2 -->
<g id="Node000002" class="node">
<title>Node2</title>
<g id="a_Node000002"><a xlink:href="namespaceEditor.html#ab4f05867dba1ec63e0638d365f54805e" target="_top" xlink:title=" ">
<polygon fill="white" stroke="#666666" points="640,-93 545,-93 545,-74 640,-74 640,-93"/>
<text text-anchor="middle" x="592.5" y="-81" font-family="Helvetica,sans-Serif" font-size="10.00">Editor::SaveTour</text>
</a>
</g>
</g>
<!-- Node1&#45;&gt;Node2 -->
<g id="edge1_Node000001_Node000002" class="edge">
<title>Node1&#45;&gt;Node2</title>
<g id="a_edge1_Node000001_Node000002"><a xlink:title=" ">
<path fill="none" stroke="#63b8ff" d="M674.74,-58.96C658.62,-63.83 640.44,-69.32 625.37,-73.88"/>
<polygon fill="#63b8ff" stroke="#63b8ff" points="675.89,-62.27 684.45,-56.03 673.87,-55.57 675.89,-62.27"/>
</a>
</g>
</g>
<!-- Node7 -->
<g id="Node000007" class="node">
<title>Node7</title>
<g id="a_Node000007"><a xlink:href="namespaceEditor.html#a219571d42c0c3b75d06d8bd602a668ab" target="_top" xlink:title=" ">
<polygon fill="white" stroke="#666666" points="633.5,-56 551.5,-56 551.5,-37 633.5,-37 633.5,-56"/>
<text text-anchor="middle" x="592.5" y="-44" font-family="Helvetica,sans-Serif" font-size="10.00">Editor::ToJson</text>
</a>
</g>
</g>
<!-- Node1&#45;&gt;Node7 -->
<g id="edge6_Node000001_Node000007" class="edge">
<title>Node1&#45;&gt;Node7</title>
<g id="a_edge6_Node000001_Node000007"><a xlink:title=" ">
<path fill="none" stroke="#63b8ff" d="M665.82,-46.5C655.13,-46.5 643.96,-46.5 633.7,-46.5"/>
<polygon fill="#63b8ff" stroke="#63b8ff" points="665.89,-50 675.89,-46.5 665.89,-43 665.89,-50"/>
</a>
</g>
</g>
<!-- Node8 -->
<g id="Node000008" class="node">
<title>Node8</title>
<g id="a_Node000008"><a xlink:href="namespaceEditor.html#a5ce3c80b1bf20ebdbbabc5f78dabcf63" target="_top" xlink:title=" ">
<polygon fill="white" stroke="#666666" points="633.5,-19 551.5,-19 551.5,0 633.5,0 633.5,-19"/>
<text text-anchor="middle" x="592.5" y="-7" font-family="Helvetica,sans-Serif" font-size="10.00">Editor::ToJson</text>
</a>
</g>
</g>
<!-- Node1&#45;&gt;Node8 -->
<g id="edge7_Node000001_Node000008" class="edge">
<title>Node1&#45;&gt;Node8</title>
<g id="a_edge7_Node000001_Node000008"><a xlink:title=" ">
<path fill="none" stroke="#63b8ff" d="M674.74,-34.04C658.62,-29.17 640.44,-23.68 625.37,-19.12"/>
<polygon fill="#63b8ff" stroke="#63b8ff" points="673.87,-37.43 684.45,-36.97 675.89,-30.73 673.87,-37.43"/>
</a>
</g>
</g>
<!-- Node3 -->
<g id="Node000003" class="node">
<title>Node3</title>
<g id="a_Node000003"><a xlink:href="namespaceEditor.html#a7f2229e4a768c53fcfb4b8dd1b1272d9" target="_top" xlink:title=" ">
<polygon fill="white" stroke="#666666" points="509,-93 408,-93 408,-74 509,-74 509,-93"/>
<text text-anchor="middle" x="458.5" y="-81" font-family="Helvetica,sans-Serif" font-size="10.00">Editor::SaveLevel</text>
</a>
</g>
</g>
<!-- Node2&#45;&gt;Node3 -->
<g id="edge2_Node000002_Node000003" class="edge">
<title>Node2&#45;&gt;Node3</title>
<g id="a_edge2_Node000002_Node000003"><a xlink:title=" ">
<path fill="none" stroke="#63b8ff" d="M534.74,-83.5C526.24,-83.5 517.54,-83.5 509.2,-83.5"/>
<polygon fill="#63b8ff" stroke="#63b8ff" points="534.96,-87 544.96,-83.5 534.96,-80 534.96,-87"/>
</a>
</g>
</g>
<!-- Node4 -->
<g id="Node000004" class="node">
<title>Node4</title>
<g id="a_Node000004"><a xlink:href="classEditor_1_1ContentBrowserWindow.html#a8539abc38024229c3dd59b62bd1bdad4" target="_top" xlink:title=" ">
<polygon fill="white" stroke="#666666" points="372,-122.5 204,-122.5 204,-92.5 372,-92.5 372,-122.5"/>
<text text-anchor="start" x="212" y="-110.5" font-family="Helvetica,sans-Serif" font-size="10.00">Editor::ContentBrowserWindow</text>
<text text-anchor="middle" x="288" y="-99.5" font-family="Helvetica,sans-Serif" font-size="10.00">::AddTrackContent</text>
</a>
</g>
</g>
<!-- Node3&#45;&gt;Node4 -->
<g id="edge3_Node000003_Node000004" class="edge">
<title>Node3&#45;&gt;Node4</title>
<g id="a_edge3_Node000003_Node000004"><a xlink:title=" ">
<path fill="none" stroke="#63b8ff" d="M397.87,-91.99C389.51,-93.18 380.8,-94.42 372.11,-95.66"/>
<polygon fill="#63b8ff" stroke="#63b8ff" points="398.45,-95.45 407.86,-90.57 397.46,-88.52 398.45,-95.45"/>
</a>
</g>
</g>
<!-- Node6 -->
<g id="Node000006" class="node">
<title>Node6</title>
<g id="a_Node000006"><a xlink:href="classEditor_1_1ToolsWindow.html#acc7235f0826c422806a61a1214aa42c2" target="_top" xlink:title=" ">
<polygon fill="white" stroke="#666666" points="345.5,-74.5 230.5,-74.5 230.5,-44.5 345.5,-44.5 345.5,-74.5"/>
<text text-anchor="start" x="238.5" y="-62.5" font-family="Helvetica,sans-Serif" font-size="10.00">Editor::ToolsWindow</text>
<text text-anchor="middle" x="288" y="-51.5" font-family="Helvetica,sans-Serif" font-size="10.00">::DrawElement</text>
</a>
</g>
</g>
<!-- Node3&#45;&gt;Node6 -->
<g id="edge5_Node000003_Node000006" class="edge">
<title>Node3&#45;&gt;Node6</title>
<g id="a_edge5_Node000003_Node000006"><a xlink:title=" ">
<path fill="none" stroke="#63b8ff" d="M397.56,-74.96C380.68,-72.56 362.37,-69.95 345.69,-67.57"/>
<polygon fill="#63b8ff" stroke="#63b8ff" points="397.46,-78.48 407.86,-76.43 398.45,-71.55 397.46,-78.48"/>
</a>
</g>
</g>
<!-- Node5 -->
<g id="Node000005" class="node">
<title>Node5</title>
<g id="a_Node000005"><a xlink:href="classEditor_1_1ContentBrowserWindow.html#aba36715d806ae75b046302e476726b44" target="_top" xlink:title=" ">
<polygon fill="white" stroke="#666666" points="168,-122.5 0,-122.5 0,-92.5 168,-92.5 168,-122.5"/>
<text text-anchor="start" x="8" y="-110.5" font-family="Helvetica,sans-Serif" font-size="10.00">Editor::ContentBrowserWindow</text>
<text text-anchor="middle" x="84" y="-99.5" font-family="Helvetica,sans-Serif" font-size="10.00">::DrawElement</text>
</a>
</g>
</g>
<!-- Node4&#45;&gt;Node5 -->
<g id="edge4_Node000004_Node000005" class="edge">
<title>Node4&#45;&gt;Node5</title>
<g id="a_edge4_Node000004_Node000005"><a xlink:title=" ">
<path fill="none" stroke="#63b8ff" d="M193.89,-107.5C185.27,-107.5 176.56,-107.5 168.04,-107.5"/>
<polygon fill="#63b8ff" stroke="#63b8ff" points="193.96,-111 203.96,-107.5 193.96,-104 193.96,-111"/>
</a>
</g>
</g>
</g>
</svg>
