<?xml version="1.0" encoding="UTF-8" standalone="no"?>
<!DOCTYPE svg PUBLIC "-//W3C//DTD SVG 1.1//EN"
 "http://www.w3.org/Graphics/SVG/1.1/DTD/svg11.dtd">
<!-- Generated by graphviz version 2.43.0 (0)
 -->
<!-- Title: osPiGetCmdQueue Pages: 1 -->
<svg width="1417pt" height="651pt"
 viewBox="0.00 0.00 1417.00 651.00" xmlns="http://www.w3.org/2000/svg" xmlns:xlink="http://www.w3.org/1999/xlink">
<g id="graph0" class="graph" transform="scale(1 1) rotate(0) translate(4 647)">
<title>osPiGetCmdQueue</title>
<!-- Node1 -->
<g id="Node000001" class="node">
<title>Node1</title>
<g id="a_Node000001"><a xlink:title=" ">
<polygon fill="#999999" stroke="#666666" points="1409,-222 1301,-222 1301,-203 1409,-203 1409,-222"/>
<text text-anchor="middle" x="1355" y="-210" font-family="Helvetica,sans-Serif" font-size="10.00">osPiGetCmdQueue</text>
</a>
</g>
</g>
<!-- Node2 -->
<g id="Node000002" class="node">
<title>Node2</title>
<g id="a_Node000002"><a xlink:href="osPiStartDma_8c.html#ae288a36d96a4db6977d95327e246ec12" target="_top" xlink:title=" ">
<polygon fill="white" stroke="#666666" points="1265,-222 1182,-222 1182,-203 1265,-203 1265,-222"/>
<text text-anchor="middle" x="1223.5" y="-210" font-family="Helvetica,sans-Serif" font-size="10.00">osPiStartDma</text>
</a>
</g>
</g>
<!-- Node1&#45;&gt;Node2 -->
<g id="edge1_Node000001_Node000002" class="edge">
<title>Node1&#45;&gt;Node2</title>
<g id="a_edge1_Node000001_Node000002"><a xlink:title=" ">
<path fill="none" stroke="#63b8ff" d="M1290.84,-212.5C1282.18,-212.5 1273.49,-212.5 1265.37,-212.5"/>
<polygon fill="#63b8ff" stroke="#63b8ff" points="1290.95,-216 1300.95,-212.5 1290.95,-209 1290.95,-216"/>
</a>
</g>
</g>
<!-- Node3 -->
<g id="Node000003" class="node">
<title>Node3</title>
<g id="a_Node000003"><a xlink:href="load_8c.html#a5f475204592707b7fb57147de74f1350" target="_top" xlink:title=" ">
<polygon fill="white" stroke="#666666" points="1133.5,-604 1000.5,-604 1000.5,-585 1133.5,-585 1133.5,-604"/>
<text text-anchor="middle" x="1067" y="-592" font-family="Helvetica,sans-Serif" font-size="10.00">audio_dma_copy_async</text>
</a>
</g>
</g>
<!-- Node2&#45;&gt;Node3 -->
<g id="edge2_Node000002_Node000003" class="edge">
<title>Node2&#45;&gt;Node3</title>
<g id="a_edge2_Node000002_Node000003"><a xlink:title=" ">
<path fill="none" stroke="#63b8ff" d="M1222.52,-232.54C1221.65,-286.63 1212.98,-438.32 1146,-538.5 1131.82,-559.7 1106.73,-575.56 1088.84,-584.9"/>
<polygon fill="#63b8ff" stroke="#63b8ff" points="1226.02,-232.29 1222.61,-222.26 1219.02,-232.23 1226.02,-232.29"/>
</a>
</g>
</g>
<!-- Node5 -->
<g id="Node000005" class="node">
<title>Node5</title>
<g id="a_Node000005"><a xlink:href="load_8c.html#a7512c5eea1c942521c019a033b962fd1" target="_top" xlink:title=" ">
<polygon fill="white" stroke="#666666" points="1146,-529 988,-529 988,-510 1146,-510 1146,-529"/>
<text text-anchor="middle" x="1067" y="-517" font-family="Helvetica,sans-Serif" font-size="10.00">audio_dma_copy_immediate</text>
</a>
</g>
</g>
<!-- Node2&#45;&gt;Node5 -->
<g id="edge4_Node000002_Node000005" class="edge">
<title>Node2&#45;&gt;Node5</title>
<g id="a_edge4_Node000002_Node000005"><a xlink:title=" ">
<path fill="none" stroke="#63b8ff" d="M1215.56,-231.77C1203.17,-265.5 1175.73,-337.1 1146,-394.5 1122.82,-439.25 1089.13,-489.15 1074.83,-509.77"/>
<polygon fill="#63b8ff" stroke="#63b8ff" points="1218.91,-232.81 1219.04,-222.22 1212.33,-230.42 1218.91,-232.81"/>
</a>
</g>
</g>
<!-- Node26 -->
<g id="Node000026" class="node">
<title>Node26</title>
<g id="a_Node000026"><a xlink:href="load_8c.html#a457d5796436a0592dd6595a397a9475d" target="_top" xlink:title=" ">
<polygon fill="white" stroke="#666666" points="1135,-385.5 999,-385.5 999,-355.5 1135,-355.5 1135,-385.5"/>
<text text-anchor="start" x="1007" y="-373.5" font-family="Helvetica,sans-Serif" font-size="10.00">audio_dma_partial_copy</text>
<text text-anchor="middle" x="1067" y="-362.5" font-family="Helvetica,sans-Serif" font-size="10.00">_async</text>
</a>
</g>
</g>
<!-- Node2&#45;&gt;Node26 -->
<g id="edge22_Node000002_Node000026" class="edge">
<title>Node2&#45;&gt;Node26</title>
<g id="a_edge22_Node000002_Node000026"><a xlink:title=" ">
<path fill="none" stroke="#63b8ff" d="M1210.63,-230.69C1196.59,-251.48 1171.84,-285.93 1146,-311.5 1129.11,-328.22 1107.36,-344.3 1091.12,-355.44"/>
<polygon fill="#63b8ff" stroke="#63b8ff" points="1213.67,-232.44 1216.29,-222.18 1207.84,-228.56 1213.67,-232.44"/>
</a>
</g>
</g>
<!-- Node28 -->
<g id="Node000028" class="node">
<title>Node28</title>
<g id="a_Node000028"><a xlink:href="main_8c.html#ae65702968508faa083fb901ff89020d8" target="_top" xlink:title=" ">
<polygon fill="white" stroke="#666666" points="1100.5,-302 1033.5,-302 1033.5,-283 1100.5,-283 1100.5,-302"/>
<text text-anchor="middle" x="1067" y="-290" font-family="Helvetica,sans-Serif" font-size="10.00">dma_copy</text>
</a>
</g>
</g>
<!-- Node2&#45;&gt;Node28 -->
<g id="edge25_Node000002_Node000028" class="edge">
<title>Node2&#45;&gt;Node28</title>
<g id="a_edge25_Node000002_Node000028"><a xlink:title=" ">
<path fill="none" stroke="#63b8ff" d="M1206.41,-229.28C1191.91,-243.42 1169.33,-263.11 1146,-274.5 1131.89,-281.39 1115.03,-285.7 1100.61,-288.37"/>
<polygon fill="#63b8ff" stroke="#63b8ff" points="1209,-231.63 1213.59,-222.08 1204.05,-226.69 1209,-231.63"/>
</a>
</g>
</g>
<!-- Node76 -->
<g id="Node000076" class="node">
<title>Node76</title>
<g id="a_Node000076"><a xlink:href="code__8006E9C0_8c.html#a09ec8bcaa5cabb80cf56de274ab1408b" target="_top" xlink:title=" ">
<polygon fill="white" stroke="#666666" points="1123.5,-265 1010.5,-265 1010.5,-246 1123.5,-246 1123.5,-265"/>
<text text-anchor="middle" x="1067" y="-253" font-family="Helvetica,sans-Serif" font-size="10.00">dma_misc_textures</text>
</a>
</g>
</g>
<!-- Node2&#45;&gt;Node76 -->
<g id="edge38_Node000002_Node000076" class="edge">
<title>Node2&#45;&gt;Node76</title>
<g id="a_edge38_Node000002_Node000076"><a xlink:title=" ">
<path fill="none" stroke="#63b8ff" d="M1183.8,-225.18C1171.74,-228.98 1158.36,-233.06 1146,-236.5 1134.18,-239.79 1121.27,-243.06 1109.42,-245.94"/>
<polygon fill="#63b8ff" stroke="#63b8ff" points="1185.11,-228.44 1193.57,-222.06 1182.98,-221.77 1185.11,-228.44"/>
</a>
</g>
</g>
<!-- Node77 -->
<g id="Node000077" class="node">
<title>Node77</title>
<g id="a_Node000077"><a xlink:href="menu__items_8c.html#abb491fbf848c6e5509054ad65807818b" target="_top" xlink:title=" ">
<polygon fill="white" stroke="#666666" points="1113,-179 1021,-179 1021,-160 1113,-160 1113,-179"/>
<text text-anchor="middle" x="1067" y="-167" font-family="Helvetica,sans-Serif" font-size="10.00">func_80099EC4</text>
</a>
</g>
</g>
<!-- Node2&#45;&gt;Node77 -->
<g id="edge39_Node000002_Node000077" class="edge">
<title>Node2&#45;&gt;Node77</title>
<g id="a_edge39_Node000002_Node000077"><a xlink:title=" ">
<path fill="none" stroke="#63b8ff" d="M1183.8,-199.82C1171.74,-196.02 1158.36,-191.94 1146,-188.5 1134.18,-185.21 1121.27,-181.94 1109.42,-179.06"/>
<polygon fill="#63b8ff" stroke="#63b8ff" points="1182.98,-203.23 1193.57,-202.94 1185.11,-196.56 1182.98,-203.23"/>
</a>
</g>
</g>
<!-- Node78 -->
<g id="Node000078" class="node">
<title>Node78</title>
<g id="a_Node000078"><a xlink:href="memory_8c.html#ae7d023f0c1a0b6a8996141ce3b04a287" target="_top" xlink:title=" ">
<polygon fill="white" stroke="#666666" points="1113,-142 1021,-142 1021,-123 1113,-123 1113,-142"/>
<text text-anchor="middle" x="1067" y="-130" font-family="Helvetica,sans-Serif" font-size="10.00">func_802A80B0</text>
</a>
</g>
</g>
<!-- Node2&#45;&gt;Node78 -->
<g id="edge48_Node000002_Node000078" class="edge">
<title>Node2&#45;&gt;Node78</title>
<g id="a_edge48_Node000002_Node000078"><a xlink:title=" ">
<path fill="none" stroke="#63b8ff" d="M1205.83,-195.61C1191.26,-181.78 1168.9,-162.74 1146,-151.5 1135.86,-146.53 1124.33,-142.8 1113.31,-140.03"/>
<polygon fill="#63b8ff" stroke="#63b8ff" points="1203.48,-198.2 1213.08,-202.67 1208.36,-193.19 1203.48,-198.2"/>
</a>
</g>
</g>
<!-- Node79 -->
<g id="Node000079" class="node">
<title>Node79</title>
<g id="a_Node000079"><a xlink:href="kart__dma_8c.html#ac20009b528ecc201f1f04264d1b32fd4" target="_top" xlink:title=" ">
<polygon fill="white" stroke="#666666" points="1129.5,-227.5 1004.5,-227.5 1004.5,-197.5 1129.5,-197.5 1129.5,-227.5"/>
<text text-anchor="start" x="1012.5" y="-215.5" font-family="Helvetica,sans-Serif" font-size="10.00">load_kart_texture_non</text>
<text text-anchor="middle" x="1067" y="-204.5" font-family="Helvetica,sans-Serif" font-size="10.00">_blocking</text>
</a>
</g>
</g>
<!-- Node2&#45;&gt;Node79 -->
<g id="edge49_Node000002_Node000079" class="edge">
<title>Node2&#45;&gt;Node79</title>
<g id="a_edge49_Node000002_Node000079"><a xlink:title=" ">
<path fill="none" stroke="#63b8ff" d="M1171.85,-212.5C1158.34,-212.5 1143.59,-212.5 1129.57,-212.5"/>
<polygon fill="#63b8ff" stroke="#63b8ff" points="1171.91,-216 1181.91,-212.5 1171.91,-209 1171.91,-216"/>
</a>
</g>
</g>
<!-- Node82 -->
<g id="Node000082" class="node">
<title>Node82</title>
<g id="a_Node000082"><a xlink:href="kart__dma_8c.html#a56041164eb897332d3b167b653d6c611" target="_top" xlink:title=" ">
<polygon fill="white" stroke="#666666" points="1117.5,-105 1016.5,-105 1016.5,-86 1117.5,-86 1117.5,-105"/>
<text text-anchor="middle" x="1067" y="-93" font-family="Helvetica,sans-Serif" font-size="10.00">load_player_data</text>
</a>
</g>
</g>
<!-- Node2&#45;&gt;Node82 -->
<g id="edge53_Node000002_Node000082" class="edge">
<title>Node2&#45;&gt;Node82</title>
<g id="a_edge53_Node000002_Node000082"><a xlink:title=" ">
<path fill="none" stroke="#63b8ff" d="M1213.18,-194.12C1200.89,-171.79 1177.11,-134.6 1146,-114.5 1137.57,-109.06 1127.71,-105.17 1117.9,-102.4"/>
<polygon fill="#63b8ff" stroke="#63b8ff" points="1210.09,-195.77 1217.87,-202.96 1216.28,-192.49 1210.09,-195.77"/>
</a>
</g>
</g>
<!-- Node83 -->
<g id="Node000083" class="node">
<title>Node83</title>
<g id="a_Node000083"><a xlink:href="kart__dma_8c.html#a7fcac9592dc14342151b0dcc0f6b0746" target="_top" xlink:title="read data from ROM and write it to the given virtual address">
<polygon fill="white" stroke="#666666" points="1123,-67.5 1011,-67.5 1011,-37.5 1123,-37.5 1123,-67.5"/>
<text text-anchor="start" x="1019" y="-55.5" font-family="Helvetica,sans-Serif" font-size="10.00">load_wheel_palette</text>
<text text-anchor="middle" x="1067" y="-44.5" font-family="Helvetica,sans-Serif" font-size="10.00">_non_blocking</text>
</a>
</g>
</g>
<!-- Node2&#45;&gt;Node83 -->
<g id="edge54_Node000002_Node000083" class="edge">
<title>Node2&#45;&gt;Node83</title>
<g id="a_edge54_Node000002_Node000083"><a xlink:title=" ">
<path fill="none" stroke="#63b8ff" d="M1216.75,-193.06C1207.02,-163.53 1184.53,-107.56 1146,-76.5 1139.27,-71.08 1131.32,-66.87 1123.11,-63.62"/>
<polygon fill="#63b8ff" stroke="#63b8ff" points="1213.52,-194.48 1219.86,-202.97 1220.2,-192.38 1213.52,-194.48"/>
</a>
</g>
</g>
<!-- Node91 -->
<g id="Node000091" class="node">
<title>Node91</title>
<g id="a_Node000091"><a xlink:href="memory_8c.html#a18ab4c1e32c3c90def2fbc839d7ee26c" target="_top" xlink:title=" ">
<polygon fill="white" stroke="#666666" points="1096.5,-19 1037.5,-19 1037.5,0 1096.5,0 1096.5,-19"/>
<text text-anchor="middle" x="1067" y="-7" font-family="Helvetica,sans-Serif" font-size="10.00">MIO0_0F</text>
</a>
</g>
</g>
<!-- Node2&#45;&gt;Node91 -->
<g id="edge57_Node000002_Node000091" class="edge">
<title>Node2&#45;&gt;Node91</title>
<g id="a_edge57_Node000002_Node000091"><a xlink:title=" ">
<path fill="none" stroke="#63b8ff" d="M1220.1,-192.46C1214.45,-154.48 1196.74,-71.92 1146,-28.5 1132.45,-16.9 1112.95,-12.15 1096.83,-10.3"/>
<polygon fill="#63b8ff" stroke="#63b8ff" points="1216.68,-193.28 1221.49,-202.73 1223.62,-192.35 1216.68,-193.28"/>
</a>
</g>
</g>
<!-- Node4 -->
<g id="Node000004" class="node">
<title>Node4</title>
<g id="a_Node000004"><a xlink:href="load_8c.html#aa397477e6168e682727486138e101461" target="_top" xlink:title=" ">
<polygon fill="white" stroke="#666666" points="939.5,-643 815.5,-643 815.5,-624 939.5,-624 939.5,-643"/>
<text text-anchor="middle" x="877.5" y="-631" font-family="Helvetica,sans-Serif" font-size="10.00">sequence_dma_async</text>
</a>
</g>
</g>
<!-- Node3&#45;&gt;Node4 -->
<g id="edge3_Node000003_Node000004" class="edge">
<title>Node3&#45;&gt;Node4</title>
<g id="a_edge3_Node000003_Node000004"><a xlink:title=" ">
<path fill="none" stroke="#63b8ff" d="M1010.28,-606.09C982.84,-611.8 950.17,-618.59 924.22,-623.99"/>
<polygon fill="#63b8ff" stroke="#63b8ff" points="1011.05,-609.5 1020.13,-604.04 1009.63,-602.65 1011.05,-609.5"/>
</a>
</g>
</g>
<!-- Node5&#45;&gt;Node4 -->
<g id="edge18_Node000005_Node000004" class="edge">
<title>Node5&#45;&gt;Node4</title>
<g id="a_edge18_Node000005_Node000004"><a xlink:title=" ">
<path fill="none" stroke="#63b8ff" d="M1043.23,-535.13C1027.41,-546.24 1006,-561.75 988,-576.5 971.21,-590.26 970.74,-598.55 952,-609.5 941.68,-615.53 929.66,-620.26 918.36,-623.88"/>
<polygon fill="#63b8ff" stroke="#63b8ff" points="1045.64,-537.72 1051.84,-529.14 1041.64,-531.98 1045.64,-537.72"/>
</a>
</g>
</g>
<!-- Node6 -->
<g id="Node000006" class="node">
<title>Node6</title>
<g id="a_Node000006"><a xlink:href="load_8c.html#a50bf1c2ea23d6f19ae9fc9e59ccda202" target="_top" xlink:title=" ">
<polygon fill="white" stroke="#666666" points="423.5,-595 298.5,-595 298.5,-576 423.5,-576 423.5,-595"/>
<text text-anchor="middle" x="361" y="-583" font-family="Helvetica,sans-Serif" font-size="10.00">bank_load_immediate</text>
</a>
</g>
</g>
<!-- Node5&#45;&gt;Node6 -->
<g id="edge5_Node000005_Node000006" class="edge">
<title>Node5&#45;&gt;Node6</title>
<g id="a_edge5_Node000005_Node000006"><a xlink:title=" ">
<path fill="none" stroke="#63b8ff" d="M1033.49,-532.6C1011,-541.03 980.17,-551.33 952,-556.5 761.86,-591.39 531.85,-590.62 423.77,-587.79"/>
<polygon fill="#63b8ff" stroke="#63b8ff" points="1034.8,-535.85 1042.89,-529.01 1032.3,-529.31 1034.8,-535.85"/>
</a>
</g>
</g>
<!-- Node7 -->
<g id="Node000007" class="node">
<title>Node7</title>
<g id="a_Node000007"><a xlink:href="heap_8c.html#ae8b7a3aad224c80e7d87654d866666ae" target="_top" xlink:title=" ">
<polygon fill="white" stroke="#666666" points="407.5,-539 314.5,-539 314.5,-520 407.5,-520 407.5,-539"/>
<text text-anchor="middle" x="361" y="-527" font-family="Helvetica,sans-Serif" font-size="10.00">func_800BA8B0</text>
</a>
</g>
</g>
<!-- Node5&#45;&gt;Node7 -->
<g id="edge6_Node000005_Node000007" class="edge">
<title>Node5&#45;&gt;Node7</title>
<g id="a_edge6_Node000005_Node000007"><a xlink:title=" ">
<path fill="none" stroke="#63b8ff" d="M1009.7,-530.78C991.38,-533.94 970.9,-536.94 952,-538.5 737.62,-556.24 682.92,-547.61 468,-538.5 448.16,-537.66 426.3,-535.94 407.6,-534.22"/>
<polygon fill="#63b8ff" stroke="#63b8ff" points="1010.39,-534.21 1019.63,-529.01 1009.17,-527.32 1010.39,-534.21"/>
</a>
</g>
</g>
<!-- Node8 -->
<g id="Node000008" class="node">
<title>Node8</title>
<g id="a_Node000008"><a xlink:href="load_8c.html#adf25dc20ccc53783eb999f0adb28b027" target="_top" xlink:title=" ">
<polygon fill="white" stroke="#666666" points="923.5,-455 831.5,-455 831.5,-436 923.5,-436 923.5,-455"/>
<text text-anchor="middle" x="877.5" y="-443" font-family="Helvetica,sans-Serif" font-size="10.00">func_800BB304</text>
</a>
</g>
</g>
<!-- Node5&#45;&gt;Node8 -->
<g id="edge7_Node000005_Node000008" class="edge">
<title>Node5&#45;&gt;Node8</title>
<g id="a_edge7_Node000005_Node000008"><a xlink:title=" ">
<path fill="none" stroke="#63b8ff" d="M1039.7,-504.97C1016.99,-492.89 983.05,-475.88 952,-464.5 942.22,-460.92 931.48,-457.74 921.3,-455.05"/>
<polygon fill="#63b8ff" stroke="#63b8ff" points="1038.23,-508.16 1048.7,-509.82 1041.55,-502 1038.23,-508.16"/>
</a>
</g>
</g>
<!-- Node18 -->
<g id="Node000018" class="node">
<title>Node18</title>
<g id="a_Node000018"><a xlink:href="load_8c.html#acbb441247e4f7d446c35a14bd75b61d6" target="_top" xlink:title=" ">
<polygon fill="white" stroke="#666666" points="916.5,-529 838.5,-529 838.5,-510 916.5,-510 916.5,-529"/>
<text text-anchor="middle" x="877.5" y="-517" font-family="Helvetica,sans-Serif" font-size="10.00">patch_sound</text>
</a>
</g>
</g>
<!-- Node5&#45;&gt;Node18 -->
<g id="edge10_Node000005_Node000018" class="edge">
<title>Node5&#45;&gt;Node18</title>
<g id="a_edge10_Node000005_Node000018"><a xlink:title=" ">
<path fill="none" stroke="#63b8ff" d="M977.68,-519.5C956.19,-519.5 934.32,-519.5 916.61,-519.5"/>
<polygon fill="#63b8ff" stroke="#63b8ff" points="977.84,-523 987.84,-519.5 977.84,-516 977.84,-523"/>
</a>
</g>
</g>
<!-- Node24 -->
<g id="Node000024" class="node">
<title>Node24</title>
<g id="a_Node000024"><a xlink:href="load_8c.html#a1cd6d11794b341d8e9d9e9330305c60f" target="_top" xlink:title=" ">
<polygon fill="white" stroke="#666666" points="952,-492 803,-492 803,-473 952,-473 952,-492"/>
<text text-anchor="middle" x="877.5" y="-480" font-family="Helvetica,sans-Serif" font-size="10.00">sequence_dma_immediate</text>
</a>
</g>
</g>
<!-- Node5&#45;&gt;Node24 -->
<g id="edge19_Node000005_Node000024" class="edge">
<title>Node5&#45;&gt;Node24</title>
<g id="a_edge19_Node000005_Node000024"><a xlink:title=" ">
<path fill="none" stroke="#63b8ff" d="M1007.64,-507.98C981.73,-502.87 951.59,-496.92 926.95,-492.06"/>
<polygon fill="#63b8ff" stroke="#63b8ff" points="1007.23,-511.47 1017.71,-509.97 1008.58,-504.6 1007.23,-511.47"/>
</a>
</g>
</g>
<!-- Node9 -->
<g id="Node000009" class="node">
<title>Node9</title>
<g id="a_Node000009"><a xlink:href="load_8c.html#ab3527402c5b0ba729e379fb33e802291" target="_top" xlink:title=" ">
<polygon fill="white" stroke="#666666" points="751.5,-455 659.5,-455 659.5,-436 751.5,-436 751.5,-455"/>
<text text-anchor="middle" x="705.5" y="-443" font-family="Helvetica,sans-Serif" font-size="10.00">func_800BB388</text>
</a>
</g>
</g>
<!-- Node8&#45;&gt;Node9 -->
<g id="edge8_Node000008_Node000009" class="edge">
<title>Node8&#45;&gt;Node9</title>
<g id="a_edge8_Node000008_Node000009"><a xlink:title=" ">
<path fill="none" stroke="#63b8ff" d="M821.27,-445.5C798.7,-445.5 772.93,-445.5 751.53,-445.5"/>
<polygon fill="#63b8ff" stroke="#63b8ff" points="821.39,-449 831.39,-445.5 821.39,-442 821.39,-449"/>
</a>
</g>
</g>
<!-- Node10 -->
<g id="Node000010" class="node">
<title>Node10</title>
<g id="a_Node000010"><a xlink:href="port__eu_8c.html#af9631ae86d86a13a1cbdb83aec196fc3" target="_top" xlink:title=" ">
<polygon fill="#fff0f0" stroke="red" points="603,-474 473,-474 473,-455 603,-455 603,-474"/>
<text text-anchor="middle" x="538" y="-462" font-family="Helvetica,sans-Serif" font-size="10.00">eu_process_audio_cmd</text>
</a>
</g>
</g>
<!-- Node9&#45;&gt;Node10 -->
<g id="edge9_Node000009_Node000010" class="edge">
<title>Node9&#45;&gt;Node10</title>
<g id="a_edge9_Node000009_Node000010"><a xlink:title=" ">
<path fill="none" stroke="#63b8ff" d="M649.27,-451.84C634.46,-453.54 618.33,-455.39 603.09,-457.14"/>
<polygon fill="#63b8ff" stroke="#63b8ff" points="649.74,-455.31 659.28,-450.69 648.94,-448.36 649.74,-455.31"/>
</a>
</g>
</g>
<!-- Node19 -->
<g id="Node000019" class="node">
<title>Node19</title>
<g id="a_Node000019"><a xlink:href="load_8c.html#a1a5cff71e5c10ffbe459f2a317fc5005" target="_top" xlink:title=" ">
<polygon fill="white" stroke="#666666" points="758,-529 653,-529 653,-510 758,-510 758,-529"/>
<text text-anchor="middle" x="705.5" y="-517" font-family="Helvetica,sans-Serif" font-size="10.00">patch_audio_bank</text>
</a>
</g>
</g>
<!-- Node18&#45;&gt;Node19 -->
<g id="edge11_Node000018_Node000019" class="edge">
<title>Node18&#45;&gt;Node19</title>
<g id="a_edge11_Node000018_Node000019"><a xlink:title=" ">
<path fill="none" stroke="#63b8ff" d="M828.27,-519.5C806.34,-519.5 780.37,-519.5 758.06,-519.5"/>
<polygon fill="#63b8ff" stroke="#63b8ff" points="828.35,-523 838.35,-519.5 828.35,-516 828.35,-523"/>
</a>
</g>
</g>
<!-- Node20 -->
<g id="Node000020" class="node">
<title>Node20</title>
<g id="a_Node000020"><a xlink:href="load_8c.html#a43bd24f6a41b85ab73c6a8614b1b16de" target="_top" xlink:title=" ">
<polygon fill="white" stroke="#666666" points="584,-529 492,-529 492,-510 584,-510 584,-529"/>
<text text-anchor="middle" x="538" y="-517" font-family="Helvetica,sans-Serif" font-size="10.00">func_800BB584</text>
</a>
</g>
</g>
<!-- Node19&#45;&gt;Node20 -->
<g id="edge12_Node000019_Node000020" class="edge">
<title>Node19&#45;&gt;Node20</title>
<g id="a_edge12_Node000019_Node000020"><a xlink:title=" ">
<path fill="none" stroke="#63b8ff" d="M642.33,-519.5C622.96,-519.5 601.98,-519.5 584.03,-519.5"/>
<polygon fill="#63b8ff" stroke="#63b8ff" points="642.59,-523 652.59,-519.5 642.59,-516 642.59,-523"/>
</a>
</g>
</g>
<!-- Node20&#45;&gt;Node6 -->
<g id="edge13_Node000020_Node000006" class="edge">
<title>Node20&#45;&gt;Node6</title>
<g id="a_edge13_Node000020_Node000006"><a xlink:title=" ">
<path fill="none" stroke="#63b8ff" d="M502.02,-532.69C468.07,-545.5 417.36,-564.62 387.19,-576"/>
<polygon fill="#63b8ff" stroke="#63b8ff" points="503.43,-535.9 511.55,-529.1 500.96,-529.35 503.43,-535.9"/>
</a>
</g>
</g>
<!-- Node20&#45;&gt;Node7 -->
<g id="edge14_Node000020_Node000007" class="edge">
<title>Node20&#45;&gt;Node7</title>
<g id="a_edge14_Node000020_Node000007"><a xlink:title=" ">
<path fill="none" stroke="#63b8ff" d="M481.93,-522.65C457.99,-524.01 430.27,-525.6 407.52,-526.9"/>
<polygon fill="#63b8ff" stroke="#63b8ff" points="482.15,-526.14 491.93,-522.08 481.75,-519.15 482.15,-526.14"/>
</a>
</g>
</g>
<!-- Node21 -->
<g id="Node000021" class="node">
<title>Node21</title>
<g id="a_Node000021"><a xlink:href="seqplayer_8c.html#a057e95b47ecbd1b645b1ef457f3854d9" target="_top" xlink:title=" ">
<polygon fill="white" stroke="#666666" points="432,-444.5 290,-444.5 290,-414.5 432,-414.5 432,-444.5"/>
<text text-anchor="start" x="298" y="-432.5" font-family="Helvetica,sans-Serif" font-size="10.00">sequence_player_process</text>
<text text-anchor="middle" x="361" y="-421.5" font-family="Helvetica,sans-Serif" font-size="10.00">_sequence</text>
</a>
</g>
</g>
<!-- Node20&#45;&gt;Node21 -->
<g id="edge15_Node000020_Node000021" class="edge">
<title>Node20&#45;&gt;Node21</title>
<g id="a_edge15_Node000020_Node000021"><a xlink:title=" ">
<path fill="none" stroke="#63b8ff" d="M508.97,-505.09C476.74,-488.51 424.08,-461.43 391.32,-444.58"/>
<polygon fill="#63b8ff" stroke="#63b8ff" points="507.78,-508.41 518.27,-509.87 510.98,-502.18 507.78,-508.41"/>
</a>
</g>
</g>
<!-- Node22 -->
<g id="Node000022" class="node">
<title>Node22</title>
<g id="a_Node000022"><a xlink:href="seqplayer_8c.html#a017a1ff1f0545e2cde4fa43261892349" target="_top" xlink:title=" ">
<polygon fill="white" stroke="#666666" points="254,-439 143,-439 143,-420 254,-420 254,-439"/>
<text text-anchor="middle" x="198.5" y="-427" font-family="Helvetica,sans-Serif" font-size="10.00">process_sequences</text>
</a>
</g>
</g>
<!-- Node21&#45;&gt;Node22 -->
<g id="edge16_Node000021_Node000022" class="edge">
<title>Node21&#45;&gt;Node22</title>
<g id="a_edge16_Node000021_Node000022"><a xlink:title=" ">
<path fill="none" stroke="#63b8ff" d="M279.33,-429.5C270.89,-429.5 262.46,-429.5 254.4,-429.5"/>
<polygon fill="#63b8ff" stroke="#63b8ff" points="279.6,-433 289.6,-429.5 279.6,-426 279.6,-433"/>
</a>
</g>
</g>
<!-- Node23 -->
<g id="Node000023" class="node">
<title>Node23</title>
<g id="a_Node000023"><a xlink:href="synthesis_8c.html#a2994f1f3d3603607ed9bca3243c1d5cf" target="_top" xlink:title=" ">
<polygon fill="#fff0f0" stroke="red" points="107,-439 0,-439 0,-420 107,-420 107,-439"/>
<text text-anchor="middle" x="53.5" y="-427" font-family="Helvetica,sans-Serif" font-size="10.00">synthesis_execute</text>
</a>
</g>
</g>
<!-- Node22&#45;&gt;Node23 -->
<g id="edge17_Node000022_Node000023" class="edge">
<title>Node22&#45;&gt;Node23</title>
<g id="a_edge17_Node000022_Node000023"><a xlink:title=" ">
<path fill="none" stroke="#63b8ff" d="M132.39,-429.5C123.92,-429.5 115.34,-429.5 107.11,-429.5"/>
<polygon fill="#63b8ff" stroke="#63b8ff" points="132.62,-433 142.62,-429.5 132.62,-426 132.62,-433"/>
</a>
</g>
</g>
<!-- Node25 -->
<g id="Node000025" class="node">
<title>Node25</title>
<g id="a_Node000025"><a xlink:href="load_8c.html#a87296581b8da4a2d19e2886665e12bef" target="_top" xlink:title=" ">
<polygon fill="white" stroke="#666666" points="758,-492 653,-492 653,-473 758,-473 758,-492"/>
<text text-anchor="middle" x="705.5" y="-480" font-family="Helvetica,sans-Serif" font-size="10.00">preload_sequence</text>
</a>
</g>
</g>
<!-- Node24&#45;&gt;Node25 -->
<g id="edge20_Node000024_Node000025" class="edge">
<title>Node24&#45;&gt;Node25</title>
<g id="a_edge20_Node000024_Node000025"><a xlink:title=" ">
<path fill="none" stroke="#63b8ff" d="M792.63,-482.5C780.87,-482.5 769.09,-482.5 758.18,-482.5"/>
<polygon fill="#63b8ff" stroke="#63b8ff" points="792.92,-486 802.92,-482.5 792.92,-479 792.92,-486"/>
</a>
</g>
</g>
<!-- Node25&#45;&gt;Node10 -->
<g id="edge21_Node000025_Node000010" class="edge">
<title>Node25&#45;&gt;Node10</title>
<g id="a_edge21_Node000025_Node000010"><a xlink:title=" ">
<path fill="none" stroke="#63b8ff" d="M642.49,-475.76C629.67,-474.36 616.14,-472.89 603.25,-471.49"/>
<polygon fill="#63b8ff" stroke="#63b8ff" points="642.27,-479.25 652.59,-476.85 643.03,-472.29 642.27,-479.25"/>
</a>
</g>
</g>
<!-- Node26&#45;&gt;Node21 -->
<g id="edge24_Node000026_Node000021" class="edge">
<title>Node26&#45;&gt;Node21</title>
<g id="a_edge24_Node000026_Node000021"><a xlink:title=" ">
<path fill="none" stroke="#63b8ff" d="M988.73,-376.12C936.32,-380 865.47,-385.36 803,-390.5 672.01,-401.27 519.25,-415.05 432.25,-423.02"/>
<polygon fill="#63b8ff" stroke="#63b8ff" points="989.25,-379.6 998.96,-375.37 988.73,-372.62 989.25,-379.6"/>
</a>
</g>
</g>
<!-- Node27 -->
<g id="Node000027" class="node">
<title>Node27</title>
<g id="a_Node000027"><a xlink:href="load_8c.html#a16ddfd81ca9e185b484920b7eb9d70d7" target="_top" xlink:title=" ">
<polygon fill="white" stroke="#666666" points="928,-418 827,-418 827,-399 928,-399 928,-418"/>
<text text-anchor="middle" x="877.5" y="-406" font-family="Helvetica,sans-Serif" font-size="10.00">bank_load_async</text>
</a>
</g>
</g>
<!-- Node26&#45;&gt;Node27 -->
<g id="edge23_Node000026_Node000027" class="edge">
<title>Node26&#45;&gt;Node27</title>
<g id="a_edge23_Node000026_Node000027"><a xlink:title=" ">
<path fill="none" stroke="#63b8ff" d="M988.76,-386.15C967.31,-390.5 944.67,-395.09 925.52,-398.97"/>
<polygon fill="#63b8ff" stroke="#63b8ff" points="989.73,-389.53 998.84,-384.11 988.34,-382.67 989.73,-389.53"/>
</a>
</g>
</g>
<!-- Node29 -->
<g id="Node000029" class="node">
<title>Node29</title>
<g id="a_Node000029"><a xlink:href="main_8c.html#aaa9b0b2906469c5fb91cc673efcd2686" target="_top" xlink:title=" ">
<polygon fill="white" stroke="#666666" points="597.5,-345.5 478.5,-345.5 478.5,-315.5 597.5,-315.5 597.5,-345.5"/>
<text text-anchor="start" x="486.5" y="-333.5" font-family="Helvetica,sans-Serif" font-size="10.00">init_segment_ending</text>
<text text-anchor="middle" x="538" y="-322.5" font-family="Helvetica,sans-Serif" font-size="10.00">_sequences</text>
</a>
</g>
</g>
<!-- Node28&#45;&gt;Node29 -->
<g id="edge26_Node000028_Node000029" class="edge">
<title>Node28&#45;&gt;Node29</title>
<g id="a_edge26_Node000028_Node000029"><a xlink:title=" ">
<path fill="none" stroke="#63b8ff" d="M1023.18,-300.88C1001.87,-304.73 975.66,-308.99 952,-311.5 826.2,-324.83 677.86,-328.81 597.64,-330"/>
<polygon fill="#63b8ff" stroke="#63b8ff" points="1024.02,-304.28 1033.22,-299.03 1022.75,-297.4 1024.02,-304.28"/>
</a>
</g>
</g>
<!-- Node70 -->
<g id="Node000070" class="node">
<title>Node70</title>
<g id="a_Node000070"><a xlink:href="main_8c.html#a0251c90fb83072f3510a39e2f1b3e980" target="_top" xlink:title=" ">
<polygon fill="white" stroke="#666666" points="935.5,-302 819.5,-302 819.5,-283 935.5,-283 935.5,-302"/>
<text text-anchor="middle" x="877.5" y="-290" font-family="Helvetica,sans-Serif" font-size="10.00">init_segment_racing</text>
</a>
</g>
</g>
<!-- Node28&#45;&gt;Node70 -->
<g id="edge29_Node000028_Node000070" class="edge">
<title>Node28&#45;&gt;Node70</title>
<g id="a_edge29_Node000028_Node000070"><a xlink:title=" ">
<path fill="none" stroke="#63b8ff" d="M1023.09,-292.5C997.2,-292.5 963.9,-292.5 935.77,-292.5"/>
<polygon fill="#63b8ff" stroke="#63b8ff" points="1023.34,-296 1033.34,-292.5 1023.34,-289 1023.34,-296"/>
</a>
</g>
</g>
<!-- Node75 -->
<g id="Node000075" class="node">
<title>Node75</title>
<g id="a_Node000075"><a xlink:href="memory_8c.html#a39fa43d59922488da06f0709f5ded15c" target="_top" xlink:title="Allocate and DMA.">
<polygon fill="white" stroke="#666666" points="910,-265 845,-265 845,-246 910,-246 910,-265"/>
<text text-anchor="middle" x="877.5" y="-253" font-family="Helvetica,sans-Serif" font-size="10.00">load_data</text>
</a>
</g>
</g>
<!-- Node28&#45;&gt;Node75 -->
<g id="edge37_Node000028_Node000075" class="edge">
<title>Node28&#45;&gt;Node75</title>
<g id="a_edge37_Node000028_Node000075"><a xlink:title=" ">
<path fill="none" stroke="#63b8ff" d="M1023.12,-284.04C988.71,-277.25 941.19,-267.87 910.16,-261.75"/>
<polygon fill="#63b8ff" stroke="#63b8ff" points="1022.85,-287.55 1033.34,-286.06 1024.21,-280.69 1022.85,-287.55"/>
</a>
</g>
</g>
<!-- Node30 -->
<g id="Node000030" class="node">
<title>Node30</title>
<g id="a_Node000030"><a xlink:href="main_8c.html#ad0625ed56ac663d3ec7ae8f1ba50c735" target="_top" xlink:title=" ">
<polygon fill="white" stroke="#666666" points="415,-319 307,-319 307,-300 415,-300 415,-319"/>
<text text-anchor="middle" x="361" y="-307" font-family="Helvetica,sans-Serif" font-size="10.00">update_gamestate</text>
</a>
</g>
</g>
<!-- Node29&#45;&gt;Node30 -->
<g id="edge27_Node000029_Node000030" class="edge">
<title>Node29&#45;&gt;Node30</title>
<g id="a_edge27_Node000029_Node000030"><a xlink:title=" ">
<path fill="none" stroke="#63b8ff" d="M468.01,-322.22C450.38,-320.11 431.7,-317.86 415.01,-315.86"/>
<polygon fill="#63b8ff" stroke="#63b8ff" points="467.89,-325.73 478.24,-323.45 468.73,-318.78 467.89,-325.73"/>
</a>
</g>
</g>
<!-- Node31 -->
<g id="Node000031" class="node">
<title>Node31</title>
<g id="a_Node000031"><a xlink:href="main_8c.html#a2bd6afc4241736db360297b364c27b84" target="_top" xlink:title=" ">
<polygon fill="#fff0f0" stroke="red" points="249,-319 148,-319 148,-300 249,-300 249,-319"/>
<text text-anchor="middle" x="198.5" y="-307" font-family="Helvetica,sans-Serif" font-size="10.00">thread5_iteration</text>
</a>
</g>
</g>
<!-- Node30&#45;&gt;Node31 -->
<g id="edge28_Node000030_Node000031" class="edge">
<title>Node30&#45;&gt;Node31</title>
<g id="a_edge28_Node000030_Node000031"><a xlink:title=" ">
<path fill="none" stroke="#63b8ff" d="M296.4,-309.5C280.7,-309.5 264.11,-309.5 249.19,-309.5"/>
<polygon fill="#63b8ff" stroke="#63b8ff" points="296.56,-313 306.56,-309.5 296.56,-306 296.56,-313"/>
</a>
</g>
</g>
<!-- Node71 -->
<g id="Node000071" class="node">
<title>Node71</title>
<g id="a_Node000071"><a xlink:href="code__80005FD0_8c.html#a325ddded54aab32025174f6aedd5e391" target="_top" xlink:title=" ">
<polygon fill="white" stroke="#666666" points="751.5,-300 659.5,-300 659.5,-281 751.5,-281 751.5,-300"/>
<text text-anchor="middle" x="705.5" y="-288" font-family="Helvetica,sans-Serif" font-size="10.00">func_8001C05C</text>
</a>
</g>
</g>
<!-- Node70&#45;&gt;Node71 -->
<g id="edge30_Node000070_Node000071" class="edge">
<title>Node70&#45;&gt;Node71</title>
<g id="a_edge30_Node000070_Node000071"><a xlink:title=" ">
<path fill="none" stroke="#63b8ff" d="M809.42,-291.71C790.02,-291.48 769.32,-291.24 751.61,-291.03"/>
<polygon fill="#63b8ff" stroke="#63b8ff" points="809.38,-295.21 819.42,-291.83 809.46,-288.21 809.38,-295.21"/>
</a>
</g>
</g>
<!-- Node73 -->
<g id="Node000073" class="node">
<title>Node73</title>
<g id="a_Node000073"><a xlink:href="main_8c.html#a8cd2befe9b7f9490d32bf787a7e8d44f" target="_top" xlink:title=" ">
<polygon fill="white" stroke="#666666" points="767,-261 644,-261 644,-242 767,-242 767,-261"/>
<text text-anchor="middle" x="705.5" y="-249" font-family="Helvetica,sans-Serif" font-size="10.00">setup_game_memory</text>
</a>
</g>
</g>
<!-- Node70&#45;&gt;Node73 -->
<g id="edge33_Node000070_Node000073" class="edge">
<title>Node70&#45;&gt;Node73</title>
<g id="a_edge33_Node000070_Node000073"><a xlink:title=" ">
<path fill="none" stroke="#63b8ff" d="M827.11,-280.59C801.32,-274.37 770.18,-266.86 746.01,-261.03"/>
<polygon fill="#63b8ff" stroke="#63b8ff" points="826.53,-284.05 837.07,-282.99 828.17,-277.24 826.53,-284.05"/>
</a>
</g>
</g>
<!-- Node72 -->
<g id="Node000072" class="node">
<title>Node72</title>
<g id="a_Node000072"><a xlink:href="code__80281780_8c.html#a59f61302f1f5f6ecab728bf08608d16b" target="_top" xlink:title=" ">
<polygon fill="white" stroke="#666666" points="608,-297 468,-297 468,-278 608,-278 608,-297"/>
<text text-anchor="middle" x="538" y="-285" font-family="Helvetica,sans-Serif" font-size="10.00">setup_podium_ceremony</text>
</a>
</g>
</g>
<!-- Node71&#45;&gt;Node72 -->
<g id="edge31_Node000071_Node000072" class="edge">
<title>Node71&#45;&gt;Node72</title>
<g id="a_edge31_Node000071_Node000072"><a xlink:title=" ">
<path fill="none" stroke="#63b8ff" d="M649,-289.49C635.88,-289.26 621.73,-289 608.09,-288.75"/>
<polygon fill="#63b8ff" stroke="#63b8ff" points="649.21,-293 659.28,-289.68 649.34,-286 649.21,-293"/>
</a>
</g>
</g>
<!-- Node72&#45;&gt;Node30 -->
<g id="edge32_Node000072_Node000030" class="edge">
<title>Node72&#45;&gt;Node30</title>
<g id="a_edge32_Node000072_Node000030"><a xlink:title=" ">
<path fill="none" stroke="#63b8ff" d="M457.86,-297.45C443.35,-299.27 428.52,-301.14 415.01,-302.84"/>
<polygon fill="#63b8ff" stroke="#63b8ff" points="458.35,-300.92 467.84,-296.19 457.48,-293.97 458.35,-300.92"/>
</a>
</g>
</g>
<!-- Node15 -->
<g id="Node000015" class="node">
<title>Node15</title>
<g id="a_Node000015"><a xlink:href="main_8c.html#a023b8f272e4efbd33f371e91ffff6b30" target="_top" xlink:title=" ">
<polygon fill="#fff0f0" stroke="red" points="404,-241 318,-241 318,-222 404,-222 404,-241"/>
<text text-anchor="middle" x="361" y="-229" font-family="Helvetica,sans-Serif" font-size="10.00">thread3_video</text>
</a>
</g>
</g>
<!-- Node73&#45;&gt;Node15 -->
<g id="edge34_Node000073_Node000015" class="edge">
<title>Node73&#45;&gt;Node15</title>
<g id="a_edge34_Node000073_Node000015"><a xlink:title=" ">
<path fill="none" stroke="#63b8ff" d="M654.78,-239.83C639.83,-236.83 623.32,-234.03 608,-232.5 536.81,-225.41 453.47,-227.17 404.35,-229.23"/>
<polygon fill="#63b8ff" stroke="#63b8ff" points="654.34,-243.32 664.85,-241.93 655.77,-236.46 654.34,-243.32"/>
</a>
</g>
</g>
<!-- Node74 -->
<g id="Node000074" class="node">
<title>Node74</title>
<g id="a_Node000074"><a xlink:href="main_8c.html#a67e7972c9946b652418eb06da494a31f" target="_top" xlink:title=" ">
<polygon fill="#fff0f0" stroke="red" points="594.5,-260 481.5,-260 481.5,-241 594.5,-241 594.5,-260"/>
<text text-anchor="middle" x="538" y="-248" font-family="Helvetica,sans-Serif" font-size="10.00">thread5_game_loop</text>
</a>
</g>
</g>
<!-- Node73&#45;&gt;Node74 -->
<g id="edge35_Node000073_Node000074" class="edge">
<title>Node73&#45;&gt;Node74</title>
<g id="a_edge35_Node000073_Node000074"><a xlink:title=" ">
<path fill="none" stroke="#63b8ff" d="M633.52,-251.07C620.55,-250.99 607.19,-250.91 594.74,-250.84"/>
<polygon fill="#63b8ff" stroke="#63b8ff" points="633.79,-254.57 643.81,-251.13 633.84,-247.57 633.79,-254.57"/>
</a>
</g>
</g>
<!-- Node74&#45;&gt;Node15 -->
<g id="edge36_Node000074_Node000015" class="edge">
<title>Node74&#45;&gt;Node15</title>
<g id="a_edge36_Node000074_Node000015"><a xlink:title=" ">
<path fill="none" stroke="#63b8ff" d="M471,-243.33C448.54,-240.9 424.08,-238.24 404.02,-236.06"/>
<polygon fill="#63b8ff" stroke="#63b8ff" points="470.83,-246.84 481.15,-244.44 471.58,-239.88 470.83,-246.84"/>
</a>
</g>
</g>
<!-- Node52 -->
<g id="Node000052" class="node">
<title>Node52</title>
<g id="a_Node000052"><a xlink:href="menu__items_8c.html#af21eb61f5e1a1ae1ffcc0cf89c398a2e" target="_top" xlink:title=" ">
<polygon fill="white" stroke="#666666" points="923,-112 832,-112 832,-93 923,-93 923,-112"/>
<text text-anchor="middle" x="877.5" y="-100" font-family="Helvetica,sans-Serif" font-size="10.00">func_80093F10</text>
</a>
</g>
</g>
<!-- Node77&#45;&gt;Node52 -->
<g id="edge40_Node000077_Node000052" class="edge">
<title>Node77&#45;&gt;Node52</title>
<g id="a_edge40_Node000077_Node000052"><a xlink:title=" ">
<path fill="none" stroke="#63b8ff" d="M1010.88,-158.19C1003.13,-156.19 995.32,-153.96 988,-151.5 955.03,-140.43 918.47,-122.95 897.05,-112.14"/>
<polygon fill="#63b8ff" stroke="#63b8ff" points="1010.08,-161.6 1020.63,-160.59 1011.76,-154.8 1010.08,-161.6"/>
</a>
</g>
</g>
<!-- Node57 -->
<g id="Node000057" class="node">
<title>Node57</title>
<g id="a_Node000057"><a xlink:href="menu__items_8c.html#acbc3378b91b763f79b8dacab57e75b59" target="_top" xlink:title=" ">
<polygon fill="white" stroke="#666666" points="923.5,-179 831.5,-179 831.5,-160 923.5,-160 923.5,-179"/>
<text text-anchor="middle" x="877.5" y="-167" font-family="Helvetica,sans-Serif" font-size="10.00">func_800940EC</text>
</a>
</g>
</g>
<!-- Node77&#45;&gt;Node57 -->
<g id="edge45_Node000077_Node000057" class="edge">
<title>Node77&#45;&gt;Node57</title>
<g id="a_edge45_Node000077_Node000057"><a xlink:title=" ">
<path fill="none" stroke="#63b8ff" d="M1010.32,-169.5C982.72,-169.5 949.82,-169.5 923.8,-169.5"/>
<polygon fill="#63b8ff" stroke="#63b8ff" points="1010.61,-173 1020.61,-169.5 1010.61,-166 1010.61,-173"/>
</a>
</g>
</g>
<!-- Node53 -->
<g id="Node000053" class="node">
<title>Node53</title>
<g id="a_Node000053"><a xlink:href="code__80280000_8c.html#ae610920735bc9dad9f2dce878c5a6b32" target="_top" xlink:title=" ">
<polygon fill="white" stroke="#666666" points="751,-74 660,-74 660,-55 751,-55 751,-74"/>
<text text-anchor="middle" x="705.5" y="-62" font-family="Helvetica,sans-Serif" font-size="10.00">func_80280038</text>
</a>
</g>
</g>
<!-- Node52&#45;&gt;Node53 -->
<g id="edge41_Node000052_Node000053" class="edge">
<title>Node52&#45;&gt;Node53</title>
<g id="a_edge41_Node000052_Node000053"><a xlink:title=" ">
<path fill="none" stroke="#63b8ff" d="M823.6,-90.68C799.63,-85.32 771.68,-79.07 749.09,-74.02"/>
<polygon fill="#63b8ff" stroke="#63b8ff" points="823.08,-94.15 833.6,-92.91 824.61,-87.31 823.08,-94.15"/>
</a>
</g>
</g>
<!-- Node55 -->
<g id="Node000055" class="node">
<title>Node55</title>
<g id="a_Node000055"><a xlink:href="code__80281C40_8c.html#af6f6a1f0caec6d086a4ab98602a6670e" target="_top" xlink:title=" ">
<polygon fill="white" stroke="#666666" points="584,-148 492,-148 492,-129 584,-129 584,-148"/>
<text text-anchor="middle" x="538" y="-136" font-family="Helvetica,sans-Serif" font-size="10.00">func_80281D00</text>
</a>
</g>
</g>
<!-- Node52&#45;&gt;Node55 -->
<g id="edge43_Node000052_Node000055" class="edge">
<title>Node52&#45;&gt;Node55</title>
<g id="a_edge43_Node000052_Node000055"><a xlink:title=" ">
<path fill="none" stroke="#63b8ff" d="M821.83,-106.19C774.65,-109.61 704.72,-115.27 644,-122.5 624.32,-124.84 602.65,-128.04 584.13,-130.96"/>
<polygon fill="#63b8ff" stroke="#63b8ff" points="822.12,-109.68 831.84,-105.47 821.61,-102.7 822.12,-109.68"/>
</a>
</g>
</g>
<!-- Node54 -->
<g id="Node000054" class="node">
<title>Node54</title>
<g id="a_Node000054"><a xlink:href="code__80280000_8c.html#aa28a69be4eda3b8667366c6c7b556024" target="_top" xlink:title=" ">
<polygon fill="#fff0f0" stroke="red" points="576,-74 500,-74 500,-55 576,-55 576,-74"/>
<text text-anchor="middle" x="538" y="-62" font-family="Helvetica,sans-Serif" font-size="10.00">credits_loop</text>
</a>
</g>
</g>
<!-- Node53&#45;&gt;Node54 -->
<g id="edge42_Node000053_Node000054" class="edge">
<title>Node53&#45;&gt;Node54</title>
<g id="a_edge42_Node000053_Node000054"><a xlink:title=" ">
<path fill="none" stroke="#63b8ff" d="M649.64,-64.5C625.56,-64.5 597.9,-64.5 576.27,-64.5"/>
<polygon fill="#63b8ff" stroke="#63b8ff" points="649.71,-68 659.71,-64.5 649.71,-61 649.71,-68"/>
</a>
</g>
</g>
<!-- Node56 -->
<g id="Node000056" class="node">
<title>Node56</title>
<g id="a_Node000056"><a xlink:href="podium__ceremony__actors_8c.html#a7ea229c65f264670fc828b95e8321154" target="_top" xlink:title=" ">
<polygon fill="#fff0f0" stroke="red" points="428,-148 294,-148 294,-129 428,-129 428,-148"/>
<text text-anchor="middle" x="361" y="-136" font-family="Helvetica,sans-Serif" font-size="10.00">podium_ceremony_loop</text>
</a>
</g>
</g>
<!-- Node55&#45;&gt;Node56 -->
<g id="edge44_Node000055_Node000056" class="edge">
<title>Node55&#45;&gt;Node56</title>
<g id="a_edge44_Node000055_Node000056"><a xlink:title=" ">
<path fill="none" stroke="#63b8ff" d="M481.61,-138.5C464.59,-138.5 445.69,-138.5 428.04,-138.5"/>
<polygon fill="#63b8ff" stroke="#63b8ff" points="481.93,-142 491.93,-138.5 481.93,-135 481.93,-142"/>
</a>
</g>
</g>
<!-- Node58 -->
<g id="Node000058" class="node">
<title>Node58</title>
<g id="a_Node000058"><a xlink:href="menu__items_8c.html#aa84b20fe3916cb4beb4b6dfb28584da3" target="_top" xlink:title=" ">
<polygon fill="#fff0f0" stroke="red" points="751.5,-150 659.5,-150 659.5,-131 751.5,-131 751.5,-150"/>
<text text-anchor="middle" x="705.5" y="-138" font-family="Helvetica,sans-Serif" font-size="10.00">func_80093A5C</text>
</a>
</g>
</g>
<!-- Node57&#45;&gt;Node58 -->
<g id="edge46_Node000057_Node000058" class="edge">
<title>Node57&#45;&gt;Node58</title>
<g id="a_edge46_Node000057_Node000058"><a xlink:title=" ">
<path fill="none" stroke="#63b8ff" d="M821.27,-160.08C798.7,-156.23 772.93,-151.83 751.53,-148.18"/>
<polygon fill="#63b8ff" stroke="#63b8ff" points="820.94,-163.57 831.39,-161.8 822.12,-156.67 820.94,-163.57"/>
</a>
</g>
</g>
<!-- Node61 -->
<g id="Node000061" class="node">
<title>Node61</title>
<g id="a_Node000061"><a xlink:href="menu__items_8c.html#a0c1fd8dbbe86e87815a177f17801de52" target="_top" xlink:title=" ">
<polygon fill="white" stroke="#666666" points="751.5,-187 659.5,-187 659.5,-168 751.5,-168 751.5,-187"/>
<text text-anchor="middle" x="705.5" y="-175" font-family="Helvetica,sans-Serif" font-size="10.00">func_80093B70</text>
</a>
</g>
</g>
<!-- Node57&#45;&gt;Node61 -->
<g id="edge47_Node000057_Node000061" class="edge">
<title>Node57&#45;&gt;Node61</title>
<g id="a_edge47_Node000057_Node000061"><a xlink:title=" ">
<path fill="none" stroke="#63b8ff" d="M821.27,-172.1C798.7,-173.16 772.93,-174.37 751.53,-175.38"/>
<polygon fill="#63b8ff" stroke="#63b8ff" points="821.57,-175.59 831.39,-171.62 821.24,-168.6 821.57,-175.59"/>
</a>
</g>
</g>
<!-- Node80 -->
<g id="Node000080" class="node">
<title>Node80</title>
<g id="a_Node000080"><a xlink:href="render__player_8c.html#ac24fc5ffaaa76695b373321ef03cf370" target="_top" xlink:title=" ">
<polygon fill="white" stroke="#666666" points="940,-227.5 815,-227.5 815,-197.5 940,-197.5 940,-227.5"/>
<text text-anchor="start" x="823" y="-215.5" font-family="Helvetica,sans-Serif" font-size="10.00">load_kart_texture_and</text>
<text text-anchor="middle" x="877.5" y="-204.5" font-family="Helvetica,sans-Serif" font-size="10.00">_render_kart_particles</text>
</a>
</g>
</g>
<!-- Node79&#45;&gt;Node80 -->
<g id="edge50_Node000079_Node000080" class="edge">
<title>Node79&#45;&gt;Node80</title>
<g id="a_edge50_Node000079_Node000080"><a xlink:title=" ">
<path fill="none" stroke="#63b8ff" d="M994.04,-212.5C976.28,-212.5 957.41,-212.5 940.19,-212.5"/>
<polygon fill="#63b8ff" stroke="#63b8ff" points="994.35,-216 1004.35,-212.5 994.35,-209 994.35,-216"/>
</a>
</g>
</g>
<!-- Node81 -->
<g id="Node000081" class="node">
<title>Node81</title>
<g id="a_Node000081"><a xlink:href="render__player_8c.html#a26fb4ad724f6adf5cdaa5b79c5e3d5d1" target="_top" xlink:title=" ">
<polygon fill="#fff0f0" stroke="red" points="750,-224 661,-224 661,-205 750,-205 750,-224"/>
<text text-anchor="middle" x="705.5" y="-212" font-family="Helvetica,sans-Serif" font-size="10.00">render_players</text>
</a>
</g>
</g>
<!-- Node80&#45;&gt;Node81 -->
<g id="edge51_Node000080_Node000081" class="edge">
<title>Node80&#45;&gt;Node81</title>
<g id="a_edge51_Node000080_Node000081"><a xlink:title=" ">
<path fill="none" stroke="#63b8ff" d="M804.5,-213.35C786.04,-213.56 766.75,-213.79 750.21,-213.99"/>
<polygon fill="#63b8ff" stroke="#63b8ff" points="804.69,-216.85 814.65,-213.23 804.6,-209.85 804.69,-216.85"/>
</a>
</g>
</g>
<!-- Node81&#45;&gt;Node55 -->
<g id="edge52_Node000081_Node000055" class="edge">
<title>Node81&#45;&gt;Node55</title>
<g id="a_edge52_Node000081_Node000055"><a xlink:title=" ">
<path fill="none" stroke="#63b8ff" d="M658.07,-201.81C653.27,-200.16 648.5,-198.39 644,-196.5 610.39,-182.41 573.66,-160.48 553.79,-148.01"/>
<polygon fill="#63b8ff" stroke="#63b8ff" points="657.31,-205.24 667.9,-204.99 659.47,-198.58 657.31,-205.24"/>
</a>
</g>
</g>
<!-- Node84 -->
<g id="Node000084" class="node">
<title>Node84</title>
<g id="a_Node000084"><a xlink:href="render__player_8c.html#a53a1f659eaad8e23847f927e359c3551" target="_top" xlink:title=" ">
<polygon fill="white" stroke="#666666" points="940,-49 815,-49 815,-30 940,-30 940,-49"/>
<text text-anchor="middle" x="877.5" y="-37" font-family="Helvetica,sans-Serif" font-size="10.00">update_wheel_palette</text>
</a>
</g>
</g>
<!-- Node83&#45;&gt;Node84 -->
<g id="edge55_Node000083_Node000084" class="edge">
<title>Node83&#45;&gt;Node84</title>
<g id="a_edge55_Node000083_Node000084"><a xlink:title=" ">
<path fill="none" stroke="#63b8ff" d="M1000.69,-47.97C981.07,-46.61 959.62,-45.12 940.24,-43.78"/>
<polygon fill="#63b8ff" stroke="#63b8ff" points="1000.54,-51.47 1010.76,-48.67 1001.02,-44.49 1000.54,-51.47"/>
</a>
</g>
</g>
<!-- Node85 -->
<g id="Node000085" class="node">
<title>Node85</title>
<g id="a_Node000085"><a xlink:href="render__player_8c.html#a9afd62c74edf8ebd0a77158f6626ce10" target="_top" xlink:title=" ">
<polygon fill="#fff0f0" stroke="red" points="747.5,-37 663.5,-37 663.5,-18 747.5,-18 747.5,-37"/>
<text text-anchor="middle" x="705.5" y="-25" font-family="Helvetica,sans-Serif" font-size="10.00">render_player</text>
</a>
</g>
</g>
<!-- Node84&#45;&gt;Node85 -->
<g id="edge56_Node000084_Node000085" class="edge">
<title>Node84&#45;&gt;Node85</title>
<g id="a_edge56_Node000084_Node000085"><a xlink:title=" ">
<path fill="none" stroke="#63b8ff" d="M804.58,-34.42C785.13,-33.05 764.74,-31.61 747.62,-30.4"/>
<polygon fill="#63b8ff" stroke="#63b8ff" points="804.42,-37.92 814.65,-35.13 804.92,-30.94 804.42,-37.92"/>
</a>
</g>
</g>
</g>
</svg>
