<?xml version="1.0" encoding="UTF-8" standalone="no"?>
<!DOCTYPE svg PUBLIC "-//W3C//DTD SVG 1.1//EN"
 "http://www.w3.org/Graphics/SVG/1.1/DTD/svg11.dtd">
<!-- Generated by graphviz version 2.43.0 (0)
 -->
<!-- Title: src/engine/PlayerBombKart.cpp Pages: 1 -->
<!--zoomable 313 -->

<svg id="main" version="1.1" xmlns="http://www.w3.org/2000/svg" xmlns:xlink="http://www.w3.org/1999/xlink" xml:space="preserve" onload="init(evt)">

<style type="text/css"><![CDATA[
.node, .edge {opacity: 0.7;}
.node.selected, .edge.selected {opacity: 1;}
.edge:hover path { stroke: red; }
.edge:hover polygon { stroke: red; fill: red; }
]]></style>

<defs>
  <circle id="rim" cx="0" cy="0" r="7"/>
  <circle id="rim2" cx="0" cy="0" r="3.5"/>
  <g id="zoomPlus">
    <use xlink:href="#rim" fill="#404040"><set attributeName="fill" to="#808080" begin="zoomplus.mouseover" end="zoomplus.mouseout"/></use>
    <path d="M-4,0h8M0,-4v8" fill="none" stroke="white" stroke-width="1.5" pointer-events="none"/>
  </g>
  <g id="zoomMin">
    <use xlink:href="#rim" fill="#404040"><set attributeName="fill" to="#808080" begin="zoomminus.mouseover" end="zoomminus.mouseout"/></use>
    <path d="M-4,0h8" fill="none" stroke="white" stroke-width="1.5" pointer-events="none"/>
  </g>
  <g id="arrowUp" transform="translate(30 24)">
    <use xlink:href="#rim"/>
    <path pointer-events="none" fill="none" stroke="white" stroke-width="1.5" d="M0,-3.0v7 M-2.5,-0.5L0,-3.0L2.5,-0.5"/>
  </g>
  <g id="arrowRight" transform="rotate(90) translate(36 -43)">
    <use xlink:href="#rim"/>
    <path pointer-events="none" fill="none" stroke="white" stroke-width="1.5" d="M0,-3.0v7 M-2.5,-0.5L0,-3.0L2.5,-0.5"/>
  </g>
  <g id="arrowDown" transform="rotate(180) translate(-30 -48)">
    <use xlink:href="#rim"/>
    <path pointer-events="none" fill="none" stroke="white" stroke-width="1.5" d="M0,-3.0v7 M-2.5,-0.5L0,-3.0L2.5,-0.5"/>
  </g>
  <g id="arrowLeft" transform="rotate(270) translate(-36 17)">
    <use xlink:href="#rim"/>
    <path pointer-events="none" fill="none" stroke="white" stroke-width="1.5" d="M0,-3.0v7 M-2.5,-0.5L0,-3.0L2.5,-0.5"/>
  </g>
  <g id="resetDef">
    <use xlink:href="#rim2" fill="#404040"><set attributeName="fill" to="#808080" begin="reset.mouseover" end="reset.mouseout"/></use>
  </g>
</defs>
<script type="application/ecmascript">
var viewWidth = 1415;
var viewHeight = 313;
var sectionId = 'dynsection-0';
</script>
<script type="application/ecmascript" xlink:href="svg.min.js"/>
<svg id="graph" class="graph">
<g id="viewport">
<title>src/engine/PlayerBombKart.cpp</title>
<!-- Node1 -->
<g id="Node000001" class="node">
<title>Node1</title>
<g id="a_Node000001"><a xlink:title=" ">
<polygon fill="#999999" stroke="#666666" points="833,-305 663,-305 663,-286 833,-286 833,-305"/>
<text text-anchor="middle" x="748" y="-293" font-family="Helvetica,sans-Serif" font-size="10.00">src/engine/PlayerBombKart.cpp</text>
</a>
</g>
</g>
<!-- Node2 -->
<g id="Node000002" class="node">
<title>Node2</title>
<g id="a_Node000002"><a xlink:href="PlayerBombKart_8h.html" target="_top" xlink:title=" ">
<polygon fill="white" stroke="#666666" points="1392.5,-134.5 1287.5,-134.5 1287.5,-115.5 1392.5,-115.5 1392.5,-134.5"/>
<text text-anchor="middle" x="1340" y="-122.5" font-family="Helvetica,sans-Serif" font-size="10.00">PlayerBombKart.h</text>
</a>
</g>
</g>
<!-- Node1&#45;&gt;Node2 -->
<g id="edge1_Node000001_Node000002" class="edge">
<title>Node1&#45;&gt;Node2</title>
<g id="a_edge1_Node000001_Node000002"><a xlink:title=" ">
<path fill="none" stroke="#63b8ff" d="M833.19,-287.85C894.37,-281.66 978.34,-270.23 1050,-250 1152.26,-221.13 1266.13,-164.77 1315.25,-139.19"/>
<polygon fill="#63b8ff" stroke="#63b8ff" points="1316.95,-142.25 1324.18,-134.5 1313.7,-136.05 1316.95,-142.25"/>
</a>
</g>
</g>
<!-- Node5 -->
<g id="Node000005" class="node">
<title>Node5</title>
<g id="a_Node000005"><a xlink:href="Matrix_8h.html" target="_top" xlink:title=" ">
<polygon fill="white" stroke="#666666" points="1230.5,-134.5 1173.5,-134.5 1173.5,-115.5 1230.5,-115.5 1230.5,-134.5"/>
<text text-anchor="middle" x="1202" y="-122.5" font-family="Helvetica,sans-Serif" font-size="10.00">Matrix.h</text>
</a>
</g>
</g>
<!-- Node1&#45;&gt;Node5 -->
<g id="edge5_Node000001_Node000005" class="edge">
<title>Node1&#45;&gt;Node5</title>
<g id="a_edge5_Node000001_Node000005"><a xlink:title=" ">
<path fill="none" stroke="#63b8ff" d="M833.1,-289.56C887.49,-284.22 958.68,-273.11 1018,-250 1059.58,-233.8 1064.97,-219.9 1102,-195 1129.63,-176.43 1161.2,-154.53 1181.35,-140.47"/>
<polygon fill="#63b8ff" stroke="#63b8ff" points="1183.56,-143.19 1189.75,-134.59 1179.55,-137.45 1183.56,-143.19"/>
</a>
</g>
</g>
<!-- Node6 -->
<g id="Node000006" class="node">
<title>Node6</title>
<g id="a_Node000006"><a xlink:href="common__structs_8h.html" target="_top" xlink:title=" ">
<polygon fill="white" stroke="#666666" points="745.5,-74 638.5,-74 638.5,-55 745.5,-55 745.5,-74"/>
<text text-anchor="middle" x="692" y="-62" font-family="Helvetica,sans-Serif" font-size="10.00">common_structs.h</text>
</a>
</g>
</g>
<!-- Node1&#45;&gt;Node6 -->
<g id="edge13_Node000001_Node000006" class="edge">
<title>Node1&#45;&gt;Node6</title>
<g id="a_edge13_Node000001_Node000006"><a xlink:title=" ">
<path fill="none" stroke="#63b8ff" d="M703.35,-285.97C656.38,-274.34 584.81,-248.52 552,-195 519.98,-142.76 607.43,-98.37 658.34,-77.78"/>
<polygon fill="#63b8ff" stroke="#63b8ff" points="659.66,-81.02 667.69,-74.1 657.1,-74.51 659.66,-81.02"/>
</a>
</g>
</g>
<!-- Node7 -->
<g id="Node000007" class="node">
<title>Node7</title>
<g id="a_Node000007"><a xlink:href="FrameInterpolation_8h.html" target="_top" xlink:title=" ">
<polygon fill="white" stroke="#666666" points="1054,-140 932,-140 932,-110 1054,-110 1054,-140"/>
<text text-anchor="start" x="940" y="-128" font-family="Helvetica,sans-Serif" font-size="10.00">port/interpolation</text>
<text text-anchor="middle" x="993" y="-117" font-family="Helvetica,sans-Serif" font-size="10.00">/FrameInterpolation.h</text>
</a>
</g>
</g>
<!-- Node1&#45;&gt;Node7 -->
<g id="edge10_Node000001_Node000007" class="edge">
<title>Node1&#45;&gt;Node7</title>
<g id="a_edge10_Node000001_Node000007"><a xlink:title=" ">
<path fill="none" stroke="#63b8ff" d="M806.3,-285.98C893.84,-271.82 1052.49,-240.47 1085,-195 1100.29,-173.62 1075.53,-155.99 1047.87,-143.9"/>
<polygon fill="#63b8ff" stroke="#63b8ff" points="1049.01,-140.58 1038.44,-140.01 1046.35,-147.06 1049.01,-140.58"/>
</a>
</g>
</g>
<!-- Node8 -->
<g id="Node000008" class="node">
<title>Node8</title>
<g id="a_Node000008"><a xlink:href="models_2common__data_8h.html" target="_top" xlink:title=" ">
<polygon fill="white" stroke="#666666" points="417.5,-140 284.5,-140 284.5,-110 417.5,-110 417.5,-140"/>
<text text-anchor="start" x="292.5" y="-128" font-family="Helvetica,sans-Serif" font-size="10.00">assets/models/common</text>
<text text-anchor="middle" x="351" y="-117" font-family="Helvetica,sans-Serif" font-size="10.00">_data.h</text>
</a>
</g>
</g>
<!-- Node1&#45;&gt;Node8 -->
<g id="edge14_Node000001_Node000008" class="edge">
<title>Node1&#45;&gt;Node8</title>
<g id="a_edge14_Node000001_Node000008"><a xlink:title=" ">
<path fill="none" stroke="#63b8ff" d="M662.63,-293.51C572.43,-290.78 437.81,-281.38 398,-250 367.22,-225.74 356.59,-178.9 352.93,-150.25"/>
<polygon fill="#63b8ff" stroke="#63b8ff" points="356.4,-149.81 351.83,-140.24 349.44,-150.57 356.4,-149.81"/>
</a>
</g>
</g>
<!-- Node11 -->
<g id="Node000011" class="node">
<title>Node11</title>
<g id="a_Node000011"><a xlink:href="textures_2common__data_8h.html" target="_top" xlink:title=" ">
<polygon fill="white" stroke="#666666" points="266.5,-140 129.5,-140 129.5,-110 266.5,-110 266.5,-140"/>
<text text-anchor="start" x="137.5" y="-128" font-family="Helvetica,sans-Serif" font-size="10.00">assets/textures/common</text>
<text text-anchor="middle" x="198" y="-117" font-family="Helvetica,sans-Serif" font-size="10.00">_data.h</text>
</a>
</g>
</g>
<!-- Node1&#45;&gt;Node11 -->
<g id="edge19_Node000001_Node000011" class="edge">
<title>Node1&#45;&gt;Node11</title>
<g id="a_edge19_Node000001_Node000011"><a xlink:title=" ">
<path fill="none" stroke="#63b8ff" d="M662.6,-289.04C569.67,-282.26 427.57,-269.19 377,-250 314.11,-226.14 252.18,-175.55 220.25,-146.91"/>
<polygon fill="#63b8ff" stroke="#63b8ff" points="222.54,-144.27 212.79,-140.13 217.83,-149.45 222.54,-144.27"/>
</a>
</g>
</g>
<!-- Node12 -->
<g id="Node000012" class="node">
<title>Node12</title>
<g id="a_Node000012"><a xlink:href="camera_8h.html" target="_top" xlink:title=" ">
<polygon fill="white" stroke="#666666" points="838,-134.5 776,-134.5 776,-115.5 838,-115.5 838,-134.5"/>
<text text-anchor="middle" x="807" y="-122.5" font-family="Helvetica,sans-Serif" font-size="10.00">camera.h</text>
</a>
</g>
</g>
<!-- Node1&#45;&gt;Node12 -->
<g id="edge24_Node000001_Node000012" class="edge">
<title>Node1&#45;&gt;Node12</title>
<g id="a_edge24_Node000001_Node000012"><a xlink:title=" ">
<path fill="none" stroke="#63b8ff" d="M767.58,-285.98C781.67,-278.68 799.6,-266.68 808,-250 825.12,-216 818.11,-169.8 812.14,-144.49"/>
<polygon fill="#63b8ff" stroke="#63b8ff" points="815.51,-143.54 809.64,-134.72 808.73,-145.28 815.51,-143.54"/>
</a>
</g>
</g>
<!-- Node13 -->
<g id="Node000013" class="node">
<title>Node13</title>
<g id="a_Node000013"><a xlink:href="render__objects_8h.html" target="_top" xlink:title=" ">
<polygon fill="white" stroke="#666666" points="505,-250 407,-250 407,-231 505,-231 505,-250"/>
<text text-anchor="middle" x="456" y="-238" font-family="Helvetica,sans-Serif" font-size="10.00">render_objects.h</text>
</a>
</g>
</g>
<!-- Node1&#45;&gt;Node13 -->
<g id="edge27_Node000001_Node000013" class="edge">
<title>Node1&#45;&gt;Node13</title>
<g id="a_edge27_Node000001_Node000013"><a xlink:title=" ">
<path fill="none" stroke="#63b8ff" d="M701.09,-285.98C649.94,-276.7 568.08,-261.84 513.2,-251.88"/>
<polygon fill="#63b8ff" stroke="#63b8ff" points="513.75,-248.42 503.28,-250.08 512.5,-255.31 513.75,-248.42"/>
</a>
</g>
</g>
<!-- Node18 -->
<g id="Node000018" class="node">
<title>Node18</title>
<g id="a_Node000018"><a xlink:href="math__util__2_8h.html" target="_top" xlink:title=" ">
<polygon fill="white" stroke="#666666" points="644.5,-195 561.5,-195 561.5,-176 644.5,-176 644.5,-195"/>
<text text-anchor="middle" x="603" y="-183" font-family="Helvetica,sans-Serif" font-size="10.00">math_util_2.h</text>
</a>
</g>
</g>
<!-- Node1&#45;&gt;Node18 -->
<g id="edge36_Node000001_Node000018" class="edge">
<title>Node1&#45;&gt;Node18</title>
<g id="a_edge36_Node000001_Node000018"><a xlink:title=" ">
<path fill="none" stroke="#63b8ff" d="M735.8,-285.7C723.46,-276.76 703.84,-262.51 687,-250 664.75,-233.48 639.4,-214.26 622.42,-201.33"/>
<polygon fill="#63b8ff" stroke="#63b8ff" points="624.44,-198.47 614.37,-195.19 620.2,-204.04 624.44,-198.47"/>
</a>
</g>
</g>
<!-- Node19 -->
<g id="Node000019" class="node">
<title>Node19</title>
<g id="a_Node000019"><a xlink:href="code__80057C60_8h.html" target="_top" xlink:title=" ">
<polygon fill="white" stroke="#666666" points="799.5,-250 696.5,-250 696.5,-231 799.5,-231 799.5,-250"/>
<text text-anchor="middle" x="748" y="-238" font-family="Helvetica,sans-Serif" font-size="10.00">code_80057C60.h</text>
</a>
</g>
</g>
<!-- Node1&#45;&gt;Node19 -->
<g id="edge40_Node000001_Node000019" class="edge">
<title>Node1&#45;&gt;Node19</title>
<g id="a_edge40_Node000001_Node000019"><a xlink:title=" ">
<path fill="none" stroke="#63b8ff" d="M748,-285.75C748,-278.8 748,-268.85 748,-260.13"/>
<polygon fill="#63b8ff" stroke="#63b8ff" points="751.5,-260.09 748,-250.09 744.5,-260.09 751.5,-260.09"/>
</a>
</g>
</g>
<!-- Node27 -->
<g id="Node000027" class="node">
<title>Node27</title>
<g id="a_Node000027"><a xlink:href="menus_8h.html" target="_top" xlink:title=" ">
<polygon fill="white" stroke="#666666" points="915.5,-250 856.5,-250 856.5,-231 915.5,-231 915.5,-250"/>
<text text-anchor="middle" x="886" y="-238" font-family="Helvetica,sans-Serif" font-size="10.00">menus.h</text>
</a>
</g>
</g>
<!-- Node1&#45;&gt;Node27 -->
<g id="edge59_Node000001_Node000027" class="edge">
<title>Node1&#45;&gt;Node27</title>
<g id="a_edge59_Node000001_Node000027"><a xlink:title=" ">
<path fill="none" stroke="#63b8ff" d="M770.17,-285.98C792.77,-277.3 828.06,-263.75 853.75,-253.88"/>
<polygon fill="#63b8ff" stroke="#63b8ff" points="855.34,-257.02 863.42,-250.17 852.83,-250.49 855.34,-257.02"/>
</a>
</g>
</g>
<!-- Node3 -->
<g id="Node000003" class="node">
<title>Node3</title>
<g id="a_Node000003"><a xlink:title=" ">
<polygon fill="#e0e0e0" stroke="#999999" points="944,-19 864,-19 864,0 944,0 944,-19"/>
<text text-anchor="middle" x="904" y="-7" font-family="Helvetica,sans-Serif" font-size="10.00">libultraship.h</text>
</a>
</g>
</g>
<!-- Node2&#45;&gt;Node3 -->
<g id="edge2_Node000002_Node000003" class="edge">
<title>Node2&#45;&gt;Node3</title>
<g id="a_edge2_Node000002_Node000003"><a xlink:title=" ">
<path fill="none" stroke="#63b8ff" d="M1333.48,-115.42C1321.42,-100.29 1294.04,-69.12 1263,-55 1209.08,-30.47 1039.71,-17.93 954.3,-13.03"/>
<polygon fill="#63b8ff" stroke="#63b8ff" points="954.24,-9.52 944.06,-12.45 953.85,-16.51 954.24,-9.52"/>
</a>
</g>
</g>
<!-- Node4 -->
<g id="Node000004" class="node">
<title>Node4</title>
<g id="a_Node000004"><a xlink:href="CoreMath_8h.html" target="_top" xlink:title=" ">
<polygon fill="white" stroke="#666666" points="1254.5,-74 1181.5,-74 1181.5,-55 1254.5,-55 1254.5,-74"/>
<text text-anchor="middle" x="1218" y="-62" font-family="Helvetica,sans-Serif" font-size="10.00">CoreMath.h</text>
</a>
</g>
</g>
<!-- Node2&#45;&gt;Node4 -->
<g id="edge3_Node000002_Node000004" class="edge">
<title>Node2&#45;&gt;Node4</title>
<g id="a_edge3_Node000002_Node000004"><a xlink:title=" ">
<path fill="none" stroke="#63b8ff" d="M1322.26,-115.49C1301.93,-105.75 1268.39,-89.66 1244.86,-78.38"/>
<polygon fill="#63b8ff" stroke="#63b8ff" points="1246.29,-75.18 1235.76,-74.02 1243.26,-81.5 1246.29,-75.18"/>
</a>
</g>
</g>
<!-- Node4&#45;&gt;Node3 -->
<g id="edge4_Node000004_Node000003" class="edge">
<title>Node4&#45;&gt;Node3</title>
<g id="a_edge4_Node000004_Node000003"><a xlink:title=" ">
<path fill="none" stroke="#63b8ff" d="M1181.37,-57.32C1125.2,-47.84 1017.68,-29.69 954.27,-18.98"/>
<polygon fill="#63b8ff" stroke="#63b8ff" points="954.55,-15.48 944.1,-17.27 953.38,-22.38 954.55,-15.48"/>
</a>
</g>
</g>
<!-- Node5&#45;&gt;Node3 -->
<g id="edge6_Node000005_Node000003" class="edge">
<title>Node5&#45;&gt;Node3</title>
<g id="a_edge6_Node000005_Node000003"><a xlink:title=" ">
<path fill="none" stroke="#63b8ff" d="M1196.05,-115.14C1185.48,-100.15 1161.87,-69.93 1134,-55 1077.39,-24.67 1003.1,-14.82 954.49,-11.73"/>
<polygon fill="#63b8ff" stroke="#63b8ff" points="954.4,-8.22 944.22,-11.16 954.01,-15.21 954.4,-8.22"/>
</a>
</g>
</g>
<!-- Node5&#45;&gt;Node4 -->
<g id="edge9_Node000005_Node000004" class="edge">
<title>Node5&#45;&gt;Node4</title>
<g id="a_edge9_Node000005_Node000004"><a xlink:title=" ">
<path fill="none" stroke="#63b8ff" d="M1204.36,-115.37C1206.61,-107.16 1210.06,-94.54 1212.93,-84.05"/>
<polygon fill="#63b8ff" stroke="#63b8ff" points="1216.37,-84.74 1215.63,-74.17 1209.62,-82.89 1216.37,-84.74"/>
</a>
</g>
</g>
<!-- Node5&#45;&gt;Node6 -->
<g id="edge7_Node000005_Node000006" class="edge">
<title>Node5&#45;&gt;Node6</title>
<g id="a_edge7_Node000005_Node000006"><a xlink:title=" ">
<path fill="none" stroke="#63b8ff" d="M1181.78,-115.45C1176.12,-113.36 1169.9,-111.34 1164,-110 1020.64,-77.42 847.56,-68.64 756.01,-66.31"/>
<polygon fill="#63b8ff" stroke="#63b8ff" points="755.88,-62.8 745.8,-66.07 755.71,-69.8 755.88,-62.8"/>
</a>
</g>
</g>
<!-- Node6&#45;&gt;Node3 -->
<g id="edge8_Node000006_Node000003" class="edge">
<title>Node6&#45;&gt;Node3</title>
<g id="a_edge8_Node000006_Node000003"><a xlink:title=" ">
<path fill="none" stroke="#63b8ff" d="M726.06,-54.98C762.42,-45.89 820.17,-31.46 859.97,-21.51"/>
<polygon fill="#63b8ff" stroke="#63b8ff" points="860.82,-24.9 869.67,-19.08 859.12,-18.11 860.82,-24.9"/>
</a>
</g>
</g>
<!-- Node7&#45;&gt;Node3 -->
<g id="edge11_Node000007_Node000003" class="edge">
<title>Node7&#45;&gt;Node3</title>
<g id="a_edge11_Node000007_Node000003"><a xlink:title=" ">
<path fill="none" stroke="#63b8ff" d="M981.73,-109.63C965.21,-88.56 934.5,-49.4 917.04,-27.13"/>
<polygon fill="#63b8ff" stroke="#63b8ff" points="919.77,-24.94 910.85,-19.23 914.26,-29.26 919.77,-24.94"/>
</a>
</g>
</g>
<!-- Node7&#45;&gt;Node6 -->
<g id="edge12_Node000007_Node000006" class="edge">
<title>Node7&#45;&gt;Node6</title>
<g id="a_edge12_Node000007_Node000006"><a xlink:title=" ">
<path fill="none" stroke="#63b8ff" d="M931.73,-112.09C877.26,-101.51 798.39,-86.18 746.18,-76.03"/>
<polygon fill="#63b8ff" stroke="#63b8ff" points="746.6,-72.55 736.11,-74.07 745.26,-79.42 746.6,-72.55"/>
</a>
</g>
</g>
<!-- Node8&#45;&gt;Node3 -->
<g id="edge16_Node000008_Node000003" class="edge">
<title>Node8&#45;&gt;Node3</title>
<g id="a_edge16_Node000008_Node000003"><a xlink:title=" ">
<path fill="none" stroke="#63b8ff" d="M362.74,-109.72C377.15,-93.33 403.24,-67.15 432,-55 507.03,-23.3 748.14,-14.02 853.71,-11.44"/>
<polygon fill="#63b8ff" stroke="#63b8ff" points="853.88,-14.93 863.79,-11.2 853.71,-7.94 853.88,-14.93"/>
</a>
</g>
</g>
<!-- Node8&#45;&gt;Node6 -->
<g id="edge17_Node000008_Node000006" class="edge">
<title>Node8&#45;&gt;Node6</title>
<g id="a_edge17_Node000008_Node000006"><a xlink:title=" ">
<path fill="none" stroke="#63b8ff" d="M417.56,-112.58C479.85,-101.89 572.09,-86.07 632.12,-75.77"/>
<polygon fill="#63b8ff" stroke="#63b8ff" points="632.94,-79.18 642.2,-74.04 631.76,-72.28 632.94,-79.18"/>
</a>
</g>
</g>
<!-- Node9 -->
<g id="Node000009" class="node">
<title>Node9</title>
<g id="a_Node000009"><a xlink:title=" ">
<polygon fill="#e0e0e0" stroke="#999999" points="244,-74 166,-74 166,-55 244,-55 244,-74"/>
<text text-anchor="middle" x="205" y="-62" font-family="Helvetica,sans-Serif" font-size="10.00">libultra/gbi.h</text>
</a>
</g>
</g>
<!-- Node8&#45;&gt;Node9 -->
<g id="edge15_Node000008_Node000009" class="edge">
<title>Node8&#45;&gt;Node9</title>
<g id="a_edge15_Node000008_Node000009"><a xlink:title=" ">
<path fill="none" stroke="#63b8ff" d="M316.03,-109.99C291.67,-100.23 259.47,-87.33 236.03,-77.93"/>
<polygon fill="#63b8ff" stroke="#63b8ff" points="237.15,-74.61 226.56,-74.14 234.54,-81.11 237.15,-74.61"/>
</a>
</g>
</g>
<!-- Node10 -->
<g id="Node000010" class="node">
<title>Node10</title>
<g id="a_Node000010"><a xlink:href="align__asset__macro_8h.html" target="_top" xlink:title=" ">
<polygon fill="white" stroke="#666666" points="379.5,-74 262.5,-74 262.5,-55 379.5,-55 379.5,-74"/>
<text text-anchor="middle" x="321" y="-62" font-family="Helvetica,sans-Serif" font-size="10.00">align_asset_macro.h</text>
</a>
</g>
</g>
<!-- Node8&#45;&gt;Node10 -->
<g id="edge18_Node000008_Node000010" class="edge">
<title>Node8&#45;&gt;Node10</title>
<g id="a_edge18_Node000008_Node000010"><a xlink:title=" ">
<path fill="none" stroke="#63b8ff" d="M343.74,-109.84C339.65,-101.87 334.51,-91.84 330.14,-83.33"/>
<polygon fill="#63b8ff" stroke="#63b8ff" points="333.17,-81.57 325.5,-74.27 326.94,-84.76 333.17,-81.57"/>
</a>
</g>
</g>
<!-- Node11&#45;&gt;Node3 -->
<g id="edge21_Node000011_Node000003" class="edge">
<title>Node11&#45;&gt;Node3</title>
<g id="a_edge21_Node000011_Node000003"><a xlink:title=" ">
<path fill="none" stroke="#63b8ff" d="M179.53,-109.84C162.31,-94.98 141.42,-71.53 157,-55 180.89,-29.64 689.37,-15.53 853.45,-11.63"/>
<polygon fill="#63b8ff" stroke="#63b8ff" points="853.83,-15.12 863.75,-11.39 853.67,-8.12 853.83,-15.12"/>
</a>
</g>
</g>
<!-- Node11&#45;&gt;Node6 -->
<g id="edge22_Node000011_Node000006" class="edge">
<title>Node11&#45;&gt;Node6</title>
<g id="a_edge22_Node000011_Node000006"><a xlink:title=" ">
<path fill="none" stroke="#63b8ff" d="M266.81,-111.23C269.57,-110.8 272.31,-110.39 275,-110 399.57,-92.05 546.03,-78.05 628.03,-70.85"/>
<polygon fill="#63b8ff" stroke="#63b8ff" points="628.54,-74.32 638.19,-69.97 627.93,-67.35 628.54,-74.32"/>
</a>
</g>
</g>
<!-- Node11&#45;&gt;Node9 -->
<g id="edge20_Node000011_Node000009" class="edge">
<title>Node11&#45;&gt;Node9</title>
<g id="a_edge20_Node000011_Node000009"><a xlink:title=" ">
<path fill="none" stroke="#63b8ff" d="M199.69,-109.84C200.61,-102.21 201.74,-92.7 202.73,-84.45"/>
<polygon fill="#63b8ff" stroke="#63b8ff" points="206.24,-84.61 203.95,-74.27 199.29,-83.78 206.24,-84.61"/>
</a>
</g>
</g>
<!-- Node11&#45;&gt;Node10 -->
<g id="edge23_Node000011_Node000010" class="edge">
<title>Node11&#45;&gt;Node10</title>
<g id="a_edge23_Node000011_Node000010"><a xlink:title=" ">
<path fill="none" stroke="#63b8ff" d="M227.46,-109.99C247.62,-100.4 274.14,-87.79 293.8,-78.44"/>
<polygon fill="#63b8ff" stroke="#63b8ff" points="295.31,-81.6 302.84,-74.14 292.3,-75.27 295.31,-81.6"/>
</a>
</g>
</g>
<!-- Node12&#45;&gt;Node3 -->
<g id="edge25_Node000012_Node000003" class="edge">
<title>Node12&#45;&gt;Node3</title>
<g id="a_edge25_Node000012_Node000003"><a xlink:title=" ">
<path fill="none" stroke="#63b8ff" d="M814.29,-115.47C830.37,-96.65 869.11,-51.32 890.03,-26.84"/>
<polygon fill="#63b8ff" stroke="#63b8ff" points="892.79,-29.01 896.62,-19.13 887.47,-24.46 892.79,-29.01"/>
</a>
</g>
</g>
<!-- Node12&#45;&gt;Node6 -->
<g id="edge26_Node000012_Node000006" class="edge">
<title>Node12&#45;&gt;Node6</title>
<g id="a_edge26_Node000012_Node000006"><a xlink:title=" ">
<path fill="none" stroke="#63b8ff" d="M790.03,-115.37C771.09,-105.73 740.21,-90.03 718.17,-78.81"/>
<polygon fill="#63b8ff" stroke="#63b8ff" points="719.54,-75.58 709.04,-74.17 716.36,-81.82 719.54,-75.58"/>
</a>
</g>
</g>
<!-- Node13&#45;&gt;Node6 -->
<g id="edge28_Node000013_Node000006" class="edge">
<title>Node13&#45;&gt;Node6</title>
<g id="a_edge28_Node000013_Node000006"><a xlink:title=" ">
<path fill="none" stroke="#63b8ff" d="M459.6,-230.75C469.62,-207.45 500.19,-143.37 546,-110 570.03,-92.49 601.05,-81.78 628.31,-75.27"/>
<polygon fill="#63b8ff" stroke="#63b8ff" points="629.18,-78.67 638.17,-73.06 627.64,-71.84 629.18,-78.67"/>
</a>
</g>
</g>
<!-- Node14 -->
<g id="Node000014" class="node">
<title>Node14</title>
<g id="a_Node000014"><a xlink:href="main_8h.html" target="_top" xlink:title=" ">
<polygon fill="white" stroke="#666666" points="467,-195 417,-195 417,-176 467,-176 467,-195"/>
<text text-anchor="middle" x="442" y="-183" font-family="Helvetica,sans-Serif" font-size="10.00">main.h</text>
</a>
</g>
</g>
<!-- Node13&#45;&gt;Node14 -->
<g id="edge29_Node000013_Node000014" class="edge">
<title>Node13&#45;&gt;Node14</title>
<g id="a_edge29_Node000013_Node000014"><a xlink:title=" ">
<path fill="none" stroke="#63b8ff" d="M453.69,-230.75C451.83,-223.72 449.16,-213.62 446.85,-204.84"/>
<polygon fill="#63b8ff" stroke="#63b8ff" points="450.21,-203.86 444.27,-195.09 443.44,-205.65 450.21,-203.86"/>
</a>
</g>
</g>
<!-- Node14&#45;&gt;Node6 -->
<g id="edge35_Node000014_Node000006" class="edge">
<title>Node14&#45;&gt;Node6</title>
<g id="a_edge35_Node000014_Node000006"><a xlink:title=" ">
<path fill="none" stroke="#63b8ff" d="M447.13,-175.82C456.9,-160.11 479.72,-127.01 508,-110 544.43,-88.09 591.01,-76.96 628.19,-71.31"/>
<polygon fill="#63b8ff" stroke="#63b8ff" points="629.01,-74.73 638.42,-69.86 628.02,-67.8 629.01,-74.73"/>
</a>
</g>
</g>
<!-- Node15 -->
<g id="Node000015" class="node">
<title>Node15</title>
<g id="a_Node000015"><a xlink:href="mk64_8h.html" target="_top" xlink:title=" ">
<polygon fill="white" stroke="#666666" points="111.5,-134.5 58.5,-134.5 58.5,-115.5 111.5,-115.5 111.5,-134.5"/>
<text text-anchor="middle" x="85" y="-122.5" font-family="Helvetica,sans-Serif" font-size="10.00">mk64.h</text>
</a>
</g>
</g>
<!-- Node14&#45;&gt;Node15 -->
<g id="edge30_Node000014_Node000015" class="edge">
<title>Node14&#45;&gt;Node15</title>
<g id="a_edge30_Node000014_Node000015"><a xlink:title=" ">
<path fill="none" stroke="#63b8ff" d="M416.95,-183.11C362.24,-179.64 228.29,-168.68 120,-140 117.84,-139.43 115.64,-138.76 113.44,-138.03"/>
<polygon fill="#63b8ff" stroke="#63b8ff" points="114.57,-134.72 103.97,-134.56 112.16,-141.29 114.57,-134.72"/>
</a>
</g>
</g>
<!-- Node15&#45;&gt;Node3 -->
<g id="edge31_Node000015_Node000003" class="edge">
<title>Node15&#45;&gt;Node3</title>
<g id="a_edge31_Node000015_Node000003"><a xlink:title=" ">
<path fill="none" stroke="#63b8ff" d="M89.86,-115.25C98.95,-99.85 120.18,-68.26 148,-55 211.3,-24.83 694.17,-14.04 853.31,-11.28"/>
<polygon fill="#63b8ff" stroke="#63b8ff" points="853.82,-14.77 863.76,-11.1 853.7,-7.77 853.82,-14.77"/>
</a>
</g>
</g>
<!-- Node15&#45;&gt;Node9 -->
<g id="edge34_Node000015_Node000009" class="edge">
<title>Node15&#45;&gt;Node9</title>
<g id="a_edge34_Node000015_Node000009"><a xlink:title=" ">
<path fill="none" stroke="#63b8ff" d="M102.45,-115.49C122.36,-105.79 155.14,-89.81 178.27,-78.53"/>
<polygon fill="#63b8ff" stroke="#63b8ff" points="180.07,-81.54 187.53,-74.02 177.01,-75.25 180.07,-81.54"/>
</a>
</g>
</g>
<!-- Node16 -->
<g id="Node000016" class="node">
<title>Node16</title>
<g id="a_Node000016"><a xlink:href="string_8h.html" target="_top" xlink:title=" ">
<polygon fill="white" stroke="#666666" points="71.5,-74 18.5,-74 18.5,-55 71.5,-55 71.5,-74"/>
<text text-anchor="middle" x="45" y="-62" font-family="Helvetica,sans-Serif" font-size="10.00">string.h</text>
</a>
</g>
</g>
<!-- Node15&#45;&gt;Node16 -->
<g id="edge32_Node000015_Node000016" class="edge">
<title>Node15&#45;&gt;Node16</title>
<g id="a_edge32_Node000015_Node000016"><a xlink:title=" ">
<path fill="none" stroke="#63b8ff" d="M79.1,-115.37C73.25,-106.81 64.13,-93.47 56.79,-82.74"/>
<polygon fill="#63b8ff" stroke="#63b8ff" points="59.46,-80.45 50.93,-74.17 53.68,-84.4 59.46,-80.45"/>
</a>
</g>
</g>
<!-- Node17 -->
<g id="Node000017" class="node">
<title>Node17</title>
<g id="a_Node000017"><a xlink:title=" ">
<polygon fill="#e0e0e0" stroke="#999999" points="90,-19 0,-19 0,0 90,0 90,-19"/>
<text text-anchor="middle" x="45" y="-7" font-family="Helvetica,sans-Serif" font-size="10.00">libultra/types.h</text>
</a>
</g>
</g>
<!-- Node16&#45;&gt;Node17 -->
<g id="edge33_Node000016_Node000017" class="edge">
<title>Node16&#45;&gt;Node17</title>
<g id="a_edge33_Node000016_Node000017"><a xlink:title=" ">
<path fill="none" stroke="#63b8ff" d="M45,-54.75C45,-47.8 45,-37.85 45,-29.13"/>
<polygon fill="#63b8ff" stroke="#63b8ff" points="48.5,-29.09 45,-19.09 41.5,-29.09 48.5,-29.09"/>
</a>
</g>
</g>
<!-- Node18&#45;&gt;Node3 -->
<g id="edge37_Node000018_Node000003" class="edge">
<title>Node18&#45;&gt;Node3</title>
<g id="a_edge37_Node000018_Node000003"><a xlink:title=" ">
<path fill="none" stroke="#63b8ff" d="M601.74,-175.7C598.91,-152.27 594.81,-87.93 629,-55 660.27,-24.89 782.93,-15.12 853.42,-11.98"/>
<polygon fill="#63b8ff" stroke="#63b8ff" points="854,-15.46 863.84,-11.54 853.71,-8.46 854,-15.46"/>
</a>
</g>
</g>
<!-- Node18&#45;&gt;Node6 -->
<g id="edge38_Node000018_Node000006" class="edge">
<title>Node18&#45;&gt;Node6</title>
<g id="a_edge38_Node000018_Node000006"><a xlink:title=" ">
<path fill="none" stroke="#63b8ff" d="M607.38,-175.81C614.8,-161.46 630.73,-132.18 648,-110 655.99,-99.74 666.13,-89.34 674.66,-81.18"/>
<polygon fill="#63b8ff" stroke="#63b8ff" points="677.31,-83.5 682.23,-74.12 672.53,-78.38 677.31,-83.5"/>
</a>
</g>
</g>
<!-- Node18&#45;&gt;Node12 -->
<g id="edge39_Node000018_Node000012" class="edge">
<title>Node18&#45;&gt;Node12</title>
<g id="a_edge39_Node000018_Node000012"><a xlink:title=" ">
<path fill="none" stroke="#63b8ff" d="M632.66,-175.99C668.24,-165.79 728.02,-148.65 767.48,-137.33"/>
<polygon fill="#63b8ff" stroke="#63b8ff" points="768.65,-140.64 777.3,-134.52 766.72,-133.91 768.65,-140.64"/>
</a>
</g>
</g>
<!-- Node19&#45;&gt;Node6 -->
<g id="edge41_Node000019_Node000006" class="edge">
<title>Node19&#45;&gt;Node6</title>
<g id="a_edge41_Node000019_Node000006"><a xlink:title=" ">
<path fill="none" stroke="#63b8ff" d="M748.18,-230.89C748.33,-209.47 746.78,-152.44 728,-110 723.34,-99.48 715.53,-89.37 708.38,-81.46"/>
<polygon fill="#63b8ff" stroke="#63b8ff" points="710.76,-78.88 701.32,-74.08 705.7,-83.72 710.76,-78.88"/>
</a>
</g>
</g>
<!-- Node19&#45;&gt;Node12 -->
<g id="edge46_Node000019_Node000012" class="edge">
<title>Node19&#45;&gt;Node12</title>
<g id="a_edge46_Node000019_Node000012"><a xlink:title=" ">
<path fill="none" stroke="#63b8ff" d="M752.43,-230.97C762.04,-212.48 784.96,-168.4 797.83,-143.64"/>
<polygon fill="#63b8ff" stroke="#63b8ff" points="801.01,-145.12 802.51,-134.63 794.8,-141.89 801.01,-145.12"/>
</a>
</g>
</g>
<!-- Node20 -->
<g id="Node000020" class="node">
<title>Node20</title>
<g id="a_Node000020"><a xlink:href="objects_8h.html" target="_top" xlink:title=" ">
<polygon fill="white" stroke="#666666" points="723.5,-195 662.5,-195 662.5,-176 723.5,-176 723.5,-195"/>
<text text-anchor="middle" x="693" y="-183" font-family="Helvetica,sans-Serif" font-size="10.00">objects.h</text>
</a>
</g>
</g>
<!-- Node19&#45;&gt;Node20 -->
<g id="edge42_Node000019_Node000020" class="edge">
<title>Node19&#45;&gt;Node20</title>
<g id="a_edge42_Node000019_Node000020"><a xlink:title=" ">
<path fill="none" stroke="#63b8ff" d="M738.92,-230.75C730.91,-223.03 719.04,-211.6 709.38,-202.28"/>
<polygon fill="#63b8ff" stroke="#63b8ff" points="711.54,-199.51 701.91,-195.09 706.69,-204.55 711.54,-199.51"/>
</a>
</g>
</g>
<!-- Node22 -->
<g id="Node000022" class="node">
<title>Node22</title>
<g id="a_Node000022"><a xlink:href="code__800029B0_8h.html" target="_top" xlink:title=" ">
<polygon fill="white" stroke="#666666" points="997.5,-195 894.5,-195 894.5,-176 997.5,-176 997.5,-195"/>
<text text-anchor="middle" x="946" y="-183" font-family="Helvetica,sans-Serif" font-size="10.00">code_800029B0.h</text>
</a>
</g>
</g>
<!-- Node19&#45;&gt;Node22 -->
<g id="edge47_Node000019_Node000022" class="edge">
<title>Node19&#45;&gt;Node22</title>
<g id="a_edge47_Node000019_Node000022"><a xlink:title=" ">
<path fill="none" stroke="#63b8ff" d="M779.81,-230.98C813.49,-221.97 866.8,-207.7 903.92,-197.76"/>
<polygon fill="#63b8ff" stroke="#63b8ff" points="905.18,-201.05 913.94,-195.08 903.37,-194.29 905.18,-201.05"/>
</a>
</g>
</g>
<!-- Node20&#45;&gt;Node6 -->
<g id="edge45_Node000020_Node000006" class="edge">
<title>Node20&#45;&gt;Node6</title>
<g id="a_edge45_Node000020_Node000006"><a xlink:title=" ">
<path fill="none" stroke="#63b8ff" d="M682.29,-175.93C673.07,-167.8 660.41,-154.68 655,-140 650.39,-127.49 650.47,-122.54 655,-110 658.94,-99.09 666.86,-88.96 674.36,-81.14"/>
<polygon fill="#63b8ff" stroke="#63b8ff" points="676.84,-83.61 681.56,-74.13 671.95,-78.6 676.84,-83.61"/>
</a>
</g>
</g>
<!-- Node21 -->
<g id="Node000021" class="node">
<title>Node21</title>
<g id="a_Node000021"><a xlink:href="spline_8h.html" target="_top" xlink:title=" ">
<polygon fill="white" stroke="#666666" points="719.5,-134.5 664.5,-134.5 664.5,-115.5 719.5,-115.5 719.5,-134.5"/>
<text text-anchor="middle" x="692" y="-122.5" font-family="Helvetica,sans-Serif" font-size="10.00">spline.h</text>
</a>
</g>
</g>
<!-- Node20&#45;&gt;Node21 -->
<g id="edge43_Node000020_Node000021" class="edge">
<title>Node20&#45;&gt;Node21</title>
<g id="a_edge43_Node000020_Node000021"><a xlink:title=" ">
<path fill="none" stroke="#63b8ff" d="M692.85,-175.87C692.71,-167.75 692.5,-155.31 692.32,-144.89"/>
<polygon fill="#63b8ff" stroke="#63b8ff" points="695.82,-144.61 692.15,-134.67 688.82,-144.73 695.82,-144.61"/>
</a>
</g>
</g>
<!-- Node21&#45;&gt;Node6 -->
<g id="edge44_Node000021_Node000006" class="edge">
<title>Node21&#45;&gt;Node6</title>
<g id="a_edge44_Node000021_Node000006"><a xlink:title=" ">
<path fill="none" stroke="#63b8ff" d="M692,-115.37C692,-107.25 692,-94.81 692,-84.39"/>
<polygon fill="#63b8ff" stroke="#63b8ff" points="695.5,-84.17 692,-74.17 688.5,-84.17 695.5,-84.17"/>
</a>
</g>
</g>
<!-- Node22&#45;&gt;Node3 -->
<g id="edge51_Node000022_Node000003" class="edge">
<title>Node22&#45;&gt;Node3</title>
<g id="a_edge51_Node000022_Node000003"><a xlink:title=" ">
<path fill="none" stroke="#63b8ff" d="M940.32,-175.68C934.98,-166.97 927.21,-153.08 923,-140 910.75,-101.92 906.36,-54.98 904.82,-29.36"/>
<polygon fill="#63b8ff" stroke="#63b8ff" points="908.3,-29.01 904.29,-19.21 901.31,-29.38 908.3,-29.01"/>
</a>
</g>
</g>
<!-- Node22&#45;&gt;Node4 -->
<g id="edge58_Node000022_Node000004" class="edge">
<title>Node22&#45;&gt;Node4</title>
<g id="a_edge58_Node000022_Node000004"><a xlink:title=" ">
<path fill="none" stroke="#63b8ff" d="M997.62,-177.09C1081.19,-165.03 1237.04,-142.28 1239,-140 1252.77,-123.98 1241.72,-99.56 1231.13,-83.08"/>
<polygon fill="#63b8ff" stroke="#63b8ff" points="1233.71,-80.66 1225.14,-74.42 1227.95,-84.64 1233.71,-80.66"/>
</a>
</g>
</g>
<!-- Node22&#45;&gt;Node12 -->
<g id="edge57_Node000022_Node000012" class="edge">
<title>Node22&#45;&gt;Node12</title>
<g id="a_edge57_Node000022_Node000012"><a xlink:title=" ">
<path fill="none" stroke="#63b8ff" d="M925.79,-175.99C902.32,-166.12 863.39,-149.73 836.54,-138.43"/>
<polygon fill="#63b8ff" stroke="#63b8ff" points="837.81,-135.17 827.24,-134.52 835.1,-141.62 837.81,-135.17"/>
</a>
</g>
</g>
<!-- Node23 -->
<g id="Node000023" class="node">
<title>Node23</title>
<g id="a_Node000023"><a xlink:href="macros_8h.html" target="_top" xlink:title=" ">
<polygon fill="white" stroke="#666666" points="1373,-74 1311,-74 1311,-55 1373,-55 1373,-74"/>
<text text-anchor="middle" x="1342" y="-62" font-family="Helvetica,sans-Serif" font-size="10.00">macros.h</text>
</a>
</g>
</g>
<!-- Node22&#45;&gt;Node23 -->
<g id="edge48_Node000022_Node000023" class="edge">
<title>Node22&#45;&gt;Node23</title>
<g id="a_edge48_Node000022_Node000023"><a xlink:title=" ">
<path fill="none" stroke="#63b8ff" d="M997.69,-177.01C1000.5,-176.66 1003.28,-176.32 1006,-176 1049.78,-170.91 1371.29,-172.55 1401,-140 1409.99,-130.15 1406.95,-121.93 1401,-110 1394.43,-96.82 1381.9,-86.52 1370.07,-79.16"/>
<polygon fill="#63b8ff" stroke="#63b8ff" points="1371.68,-76.05 1361.27,-74.1 1368.2,-82.12 1371.68,-76.05"/>
</a>
</g>
</g>
<!-- Node25 -->
<g id="Node000025" class="node">
<title>Node25</title>
<g id="a_Node000025"><a xlink:href="actor__types_8h.html" target="_top" xlink:title=" ">
<polygon fill="white" stroke="#666666" points="1155.5,-134.5 1072.5,-134.5 1072.5,-115.5 1155.5,-115.5 1155.5,-134.5"/>
<text text-anchor="middle" x="1114" y="-122.5" font-family="Helvetica,sans-Serif" font-size="10.00">actor_types.h</text>
</a>
</g>
</g>
<!-- Node22&#45;&gt;Node25 -->
<g id="edge52_Node000022_Node000025" class="edge">
<title>Node22&#45;&gt;Node25</title>
<g id="a_edge52_Node000022_Node000025"><a xlink:title=" ">
<path fill="none" stroke="#63b8ff" d="M970.43,-175.99C999.29,-165.94 1047.5,-149.16 1080,-137.84"/>
<polygon fill="#63b8ff" stroke="#63b8ff" points="1081.25,-141.11 1089.54,-134.52 1078.95,-134.5 1081.25,-141.11"/>
</a>
</g>
</g>
<!-- Node23&#45;&gt;Node3 -->
<g id="edge50_Node000023_Node000003" class="edge">
<title>Node23&#45;&gt;Node3</title>
<g id="a_edge50_Node000023_Node000003"><a xlink:title=" ">
<path fill="none" stroke="#63b8ff" d="M1310.58,-57.26C1306.03,-56.44 1301.4,-55.66 1297,-55 1174.28,-36.49 1028.94,-21.93 954.1,-14.98"/>
<polygon fill="#63b8ff" stroke="#63b8ff" points="954.29,-11.48 944.01,-14.05 953.65,-18.45 954.29,-11.48"/>
</a>
</g>
</g>
<!-- Node24 -->
<g id="Node000024" class="node">
<title>Node24</title>
<g id="a_Node000024"><a xlink:href="math_8h.html" target="_top" xlink:title=" ">
<polygon fill="white" stroke="#666666" points="1367.5,-19 1316.5,-19 1316.5,0 1367.5,0 1367.5,-19"/>
<text text-anchor="middle" x="1342" y="-7" font-family="Helvetica,sans-Serif" font-size="10.00">math.h</text>
</a>
</g>
</g>
<!-- Node23&#45;&gt;Node24 -->
<g id="edge49_Node000023_Node000024" class="edge">
<title>Node23&#45;&gt;Node24</title>
<g id="a_edge49_Node000023_Node000024"><a xlink:title=" ">
<path fill="none" stroke="#63b8ff" d="M1342,-54.75C1342,-47.8 1342,-37.85 1342,-29.13"/>
<polygon fill="#63b8ff" stroke="#63b8ff" points="1345.5,-29.09 1342,-19.09 1338.5,-29.09 1345.5,-29.09"/>
</a>
</g>
</g>
<!-- Node25&#45;&gt;Node3 -->
<g id="edge53_Node000025_Node000003" class="edge">
<title>Node25&#45;&gt;Node3</title>
<g id="a_edge53_Node000025_Node000003"><a xlink:title=" ">
<path fill="none" stroke="#63b8ff" d="M1098.22,-115.47C1061.96,-95.87 972.49,-47.52 928.81,-23.91"/>
<polygon fill="#63b8ff" stroke="#63b8ff" points="930.43,-20.81 919.97,-19.13 927.1,-26.96 930.43,-20.81"/>
</a>
</g>
</g>
<!-- Node25&#45;&gt;Node6 -->
<g id="edge55_Node000025_Node000006" class="edge">
<title>Node25&#45;&gt;Node6</title>
<g id="a_edge55_Node000025_Node000006"><a xlink:title=" ">
<path fill="none" stroke="#63b8ff" d="M1085.85,-115.47C1078.47,-113.45 1070.48,-111.47 1063,-110 956.15,-89.05 829.92,-76.44 755.66,-70.24"/>
<polygon fill="#63b8ff" stroke="#63b8ff" points="755.79,-66.74 745.53,-69.41 755.21,-73.72 755.79,-66.74"/>
</a>
</g>
</g>
<!-- Node25&#45;&gt;Node23 -->
<g id="edge54_Node000025_Node000023" class="edge">
<title>Node25&#45;&gt;Node23</title>
<g id="a_edge54_Node000025_Node000023"><a xlink:title=" ">
<path fill="none" stroke="#63b8ff" d="M1143.84,-115.5C1150.47,-113.65 1157.46,-111.73 1164,-110 1210.66,-97.64 1264.45,-84.32 1300.58,-75.51"/>
<polygon fill="#63b8ff" stroke="#63b8ff" points="1301.85,-78.8 1310.74,-73.03 1300.2,-72 1301.85,-78.8"/>
</a>
</g>
</g>
<!-- Node26 -->
<g id="Node000026" class="node">
<title>Node26</title>
<g id="a_Node000026"><a xlink:title=" ">
<polygon fill="#e0e0e0" stroke="#999999" points="1125,-74 1069,-74 1069,-55 1125,-55 1125,-74"/>
<text text-anchor="middle" x="1097" y="-62" font-family="Helvetica,sans-Serif" font-size="10.00">assert.h</text>
</a>
</g>
</g>
<!-- Node25&#45;&gt;Node26 -->
<g id="edge56_Node000025_Node000026" class="edge">
<title>Node25&#45;&gt;Node26</title>
<g id="a_edge56_Node000025_Node000026"><a xlink:title=" ">
<path fill="none" stroke="#63b8ff" d="M1111.49,-115.37C1109.11,-107.16 1105.44,-94.54 1102.39,-84.05"/>
<polygon fill="#63b8ff" stroke="#63b8ff" points="1105.67,-82.79 1099.52,-74.17 1098.95,-84.75 1105.67,-82.79"/>
</a>
</g>
</g>
<!-- Node27&#45;&gt;Node6 -->
<g id="edge60_Node000027_Node000006" class="edge">
<title>Node27&#45;&gt;Node6</title>
<g id="a_edge60_Node000027_Node000006"><a xlink:title=" ">
<path fill="none" stroke="#63b8ff" d="M886.06,-230.84C885.74,-207.74 881.59,-144.14 847,-110 822.91,-86.22 787,-74.97 755.8,-69.73"/>
<polygon fill="#63b8ff" stroke="#63b8ff" points="756.27,-66.26 745.86,-68.23 755.23,-73.18 756.27,-66.26"/>
</a>
</g>
</g>
<!-- Node28 -->
<g id="Node000028" class="node">
<title>Node28</title>
<g id="a_Node000028"><a xlink:href="defines_8h.html" target="_top" xlink:title=" ">
<polygon fill="white" stroke="#666666" points="1076.5,-195 1015.5,-195 1015.5,-176 1076.5,-176 1076.5,-195"/>
<text text-anchor="middle" x="1046" y="-183" font-family="Helvetica,sans-Serif" font-size="10.00">defines.h</text>
</a>
</g>
</g>
<!-- Node27&#45;&gt;Node28 -->
<g id="edge61_Node000027_Node000028" class="edge">
<title>Node27&#45;&gt;Node28</title>
<g id="a_edge61_Node000027_Node000028"><a xlink:title=" ">
<path fill="none" stroke="#63b8ff" d="M911.71,-230.98C938.45,-222.13 980.53,-208.19 1010.45,-198.28"/>
<polygon fill="#63b8ff" stroke="#63b8ff" points="1011.7,-201.55 1020.09,-195.08 1009.5,-194.9 1011.7,-201.55"/>
</a>
</g>
</g>
</g>
</svg>

<g id="navigator" transform="translate(0 0)" fill="#404254">
  <rect fill="#f2f5e9" fill-opacity="0.5" stroke="#606060" stroke-width=".5" x="0" y="0" width="60" height="60"/>
  <use id="zoomplus" xlink:href="#zoomPlus" x="17" y="9" onmousedown="handleZoom(evt,'in')"/>
  <use id="zoomminus" xlink:href="#zoomMin" x="42" y="9" onmousedown="handleZoom(evt,'out')"/>
  <use id="reset" xlink:href="#resetDef" x="30" y="36" onmousedown="handleReset()"/>
   <use id="arrowup" xlink:href="#arrowUp" x="0" y="0" onmousedown="handlePan(0,-1)"/>
  <use id="arrowright" xlink:href="#arrowRight" x="0" y="0" onmousedown="handlePan(1,0)"/>
  <use id="arrowdown" xlink:href="#arrowDown" x="0" y="0" onmousedown="handlePan(0,1)"/>
  <use id="arrowleft" xlink:href="#arrowLeft" x="0" y="0" onmousedown="handlePan(-1,0)"/>
</g>
<svg viewBox="0 0 15 15" width="100%" height="30px" preserveAspectRatio="xMaxYMin meet">
 <g id="arrow_out" transform="scale(0.3 0.3)">
  <a xlink:href="PlayerBombKart_8cpp__incl_org.svg" target="_base">
   <rect id="button" ry="5" rx="5" y="6" x="6" height="38" width="38"
        fill="#f2f5e9" fill-opacity="0.5" stroke="#606060" stroke-width="1.0"/>
   <path id="arrow"
     d="M 11.500037,31.436501 C 11.940474,20.09759 22.043105,11.32322 32.158766,21.979434 L 37.068811,17.246167 C 37.068811,17.246167 37.088388,32 37.088388,32 L 22.160133,31.978069 C 22.160133,31.978069 26.997745,27.140456 26.997745,27.140456 C 18.528582,18.264221 13.291696,25.230495 11.500037,31.436501 z"
     style="fill:#404040;"/>
  </a>
 </g>
</svg>

<style type='text/css'>
<![CDATA[
[data-mouse-over-selected='false'] { opacity: 0.7; }
[data-mouse-over-selected='true']  { opacity: 1.0; }
]]>
</style>
<script type="application/ecmascript"><![CDATA[
document.addEventListener('DOMContentLoaded', (event) => {
  highlightEdges();
  highlightAdjacentNodes();
});
]]></script>
</svg>
