<?xml version="1.0" encoding="UTF-8" standalone="no"?>
<!DOCTYPE svg PUBLIC "-//W3C//DTD SVG 1.1//EN"
 "http://www.w3.org/Graphics/SVG/1.1/DTD/svg11.dtd">
<!-- Generated by graphviz version 2.43.0 (0)
 -->
<!-- Title: src/engine/courses/PodiumCeremony.h Pages: 1 -->
<!--zoomable 390 -->

<svg id="main" version="1.1" xmlns="http://www.w3.org/2000/svg" xmlns:xlink="http://www.w3.org/1999/xlink" xml:space="preserve" onload="init(evt)">

<style type="text/css"><![CDATA[
.node, .edge {opacity: 0.7;}
.node.selected, .edge.selected {opacity: 1;}
.edge:hover path { stroke: red; }
.edge:hover polygon { stroke: red; fill: red; }
]]></style>

<defs>
  <circle id="rim" cx="0" cy="0" r="7"/>
  <circle id="rim2" cx="0" cy="0" r="3.5"/>
  <g id="zoomPlus">
    <use xlink:href="#rim" fill="#404040"><set attributeName="fill" to="#808080" begin="zoomplus.mouseover" end="zoomplus.mouseout"/></use>
    <path d="M-4,0h8M0,-4v8" fill="none" stroke="white" stroke-width="1.5" pointer-events="none"/>
  </g>
  <g id="zoomMin">
    <use xlink:href="#rim" fill="#404040"><set attributeName="fill" to="#808080" begin="zoomminus.mouseover" end="zoomminus.mouseout"/></use>
    <path d="M-4,0h8" fill="none" stroke="white" stroke-width="1.5" pointer-events="none"/>
  </g>
  <g id="arrowUp" transform="translate(30 24)">
    <use xlink:href="#rim"/>
    <path pointer-events="none" fill="none" stroke="white" stroke-width="1.5" d="M0,-3.0v7 M-2.5,-0.5L0,-3.0L2.5,-0.5"/>
  </g>
  <g id="arrowRight" transform="rotate(90) translate(36 -43)">
    <use xlink:href="#rim"/>
    <path pointer-events="none" fill="none" stroke="white" stroke-width="1.5" d="M0,-3.0v7 M-2.5,-0.5L0,-3.0L2.5,-0.5"/>
  </g>
  <g id="arrowDown" transform="rotate(180) translate(-30 -48)">
    <use xlink:href="#rim"/>
    <path pointer-events="none" fill="none" stroke="white" stroke-width="1.5" d="M0,-3.0v7 M-2.5,-0.5L0,-3.0L2.5,-0.5"/>
  </g>
  <g id="arrowLeft" transform="rotate(270) translate(-36 17)">
    <use xlink:href="#rim"/>
    <path pointer-events="none" fill="none" stroke="white" stroke-width="1.5" d="M0,-3.0v7 M-2.5,-0.5L0,-3.0L2.5,-0.5"/>
  </g>
  <g id="resetDef">
    <use xlink:href="#rim2" fill="#404040"><set attributeName="fill" to="#808080" begin="reset.mouseover" end="reset.mouseout"/></use>
  </g>
</defs>
<script type="application/ecmascript">
var viewWidth = 1462;
var viewHeight = 390;
var sectionId = 'dynsection-0';
</script>
<script type="application/ecmascript" xlink:href="svg.min.js"/>
<svg id="graph" class="graph">
<g id="viewport">
<title>src/engine/courses/PodiumCeremony.h</title>
<!-- Node1 -->
<g id="Node000001" class="node">
<title>Node1</title>
<g id="a_Node000001"><a xlink:title=" ">
<polygon fill="#999999" stroke="#666666" points="944,-382 830,-382 830,-352 944,-352 944,-382"/>
<text text-anchor="start" x="838" y="-370" font-family="Helvetica,sans-Serif" font-size="10.00">src/engine/courses</text>
<text text-anchor="middle" x="887" y="-359" font-family="Helvetica,sans-Serif" font-size="10.00">/PodiumCeremony.h</text>
</a>
</g>
</g>
<!-- Node2 -->
<g id="Node000002" class="node">
<title>Node2</title>
<g id="a_Node000002"><a xlink:title=" ">
<polygon fill="#e0e0e0" stroke="#999999" points="884,-19 804,-19 804,0 884,0 884,-19"/>
<text text-anchor="middle" x="844" y="-7" font-family="Helvetica,sans-Serif" font-size="10.00">libultraship.h</text>
</a>
</g>
</g>
<!-- Node1&#45;&gt;Node2 -->
<g id="edge1_Node000001_Node000002" class="edge">
<title>Node1&#45;&gt;Node2</title>
<g id="a_edge1_Node000001_Node000002"><a xlink:title=" ">
<path fill="none" stroke="#63b8ff" d="M897.36,-351.86C930.24,-305.13 1026.2,-153.06 959,-55 944.39,-33.68 917.97,-22.57 894.14,-16.78"/>
<polygon fill="#63b8ff" stroke="#63b8ff" points="894.64,-13.31 884.13,-14.61 893.16,-20.15 894.64,-13.31"/>
</a>
</g>
</g>
<!-- Node3 -->
<g id="Node000003" class="node">
<title>Node3</title>
<g id="a_Node000003"><a xlink:href="CoreMath_8h.html" target="_top" xlink:title=" ">
<polygon fill="white" stroke="#666666" points="1058.5,-261 985.5,-261 985.5,-242 1058.5,-242 1058.5,-261"/>
<text text-anchor="middle" x="1022" y="-249" font-family="Helvetica,sans-Serif" font-size="10.00">CoreMath.h</text>
</a>
</g>
</g>
<!-- Node1&#45;&gt;Node3 -->
<g id="edge2_Node000001_Node000003" class="edge">
<title>Node1&#45;&gt;Node3</title>
<g id="a_edge2_Node000001_Node000003"><a xlink:title=" ">
<path fill="none" stroke="#63b8ff" d="M916.31,-351.9C933.28,-342.95 954.48,-330.36 971,-316 986.78,-302.28 1001.35,-283.23 1010.84,-269.57"/>
<polygon fill="#63b8ff" stroke="#63b8ff" points="1013.85,-271.36 1016.55,-261.12 1008.05,-267.45 1013.85,-271.36"/>
</a>
</g>
</g>
<!-- Node4 -->
<g id="Node000004" class="node">
<title>Node4</title>
<g id="a_Node000004"><a xlink:href="Course_8h.html" target="_top" xlink:title=" ">
<polygon fill="white" stroke="#666666" points="563.5,-316 504.5,-316 504.5,-297 563.5,-297 563.5,-316"/>
<text text-anchor="middle" x="534" y="-304" font-family="Helvetica,sans-Serif" font-size="10.00">Course.h</text>
</a>
</g>
</g>
<!-- Node1&#45;&gt;Node4 -->
<g id="edge4_Node000001_Node000004" class="edge">
<title>Node1&#45;&gt;Node4</title>
<g id="a_edge4_Node000001_Node000004"><a xlink:title=" ">
<path fill="none" stroke="#63b8ff" d="M829.89,-356.54C757.99,-344.62 636.32,-324.46 573.76,-314.09"/>
<polygon fill="#63b8ff" stroke="#63b8ff" points="574.32,-310.63 563.88,-312.45 573.18,-317.54 574.32,-310.63"/>
</a>
</g>
</g>
<!-- Node6 -->
<g id="Node000006" class="node">
<title>Node6</title>
<g id="a_Node000006"><a xlink:href="camera_8h.html" target="_top" xlink:title=" ">
<polygon fill="white" stroke="#666666" points="62,-206 0,-206 0,-187 62,-187 62,-206"/>
<text text-anchor="middle" x="31" y="-194" font-family="Helvetica,sans-Serif" font-size="10.00">camera.h</text>
</a>
</g>
</g>
<!-- Node1&#45;&gt;Node6 -->
<g id="edge62_Node000001_Node000006" class="edge">
<title>Node1&#45;&gt;Node6</title>
<g id="a_edge62_Node000001_Node000006"><a xlink:title=" ">
<path fill="none" stroke="#63b8ff" d="M829.78,-364.74C666.49,-360.22 202.01,-340.49 76,-261 58.73,-250.11 46.17,-229.94 38.77,-215.25"/>
<polygon fill="#63b8ff" stroke="#63b8ff" points="41.91,-213.7 34.49,-206.14 35.58,-216.68 41.91,-213.7"/>
</a>
</g>
</g>
<!-- Node8 -->
<g id="Node000008" class="node">
<title>Node8</title>
<g id="a_Node000008"><a xlink:href="course__offsets_8h.html" target="_top" xlink:title=" ">
<polygon fill="white" stroke="#666666" points="775,-206 679,-206 679,-187 775,-187 775,-206"/>
<text text-anchor="middle" x="727" y="-194" font-family="Helvetica,sans-Serif" font-size="10.00">course_offsets.h</text>
</a>
</g>
</g>
<!-- Node1&#45;&gt;Node8 -->
<g id="edge61_Node000001_Node000008" class="edge">
<title>Node1&#45;&gt;Node8</title>
<g id="a_edge61_Node000001_Node000008"><a xlink:title=" ">
<path fill="none" stroke="#63b8ff" d="M889.23,-351.79C892.35,-326.51 894.93,-273.42 868,-242 847.53,-218.11 814.34,-206.9 785.31,-201.7"/>
<polygon fill="#63b8ff" stroke="#63b8ff" points="785.67,-198.21 775.24,-200.1 784.57,-205.12 785.67,-198.21"/>
</a>
</g>
</g>
<!-- Node14 -->
<g id="Node000014" class="node">
<title>Node14</title>
<g id="a_Node000014"><a xlink:href="src_2data_2some__data_8h.html" target="_top" xlink:title=" ">
<polygon fill="white" stroke="#666666" points="859,-261 755,-261 755,-242 859,-242 859,-261"/>
<text text-anchor="middle" x="807" y="-249" font-family="Helvetica,sans-Serif" font-size="10.00">data/some_data.h</text>
</a>
</g>
</g>
<!-- Node1&#45;&gt;Node14 -->
<g id="edge63_Node000001_Node000014" class="edge">
<title>Node1&#45;&gt;Node14</title>
<g id="a_edge63_Node000001_Node000014"><a xlink:title=" ">
<path fill="none" stroke="#63b8ff" d="M876.87,-351.63C862.09,-330.65 834.66,-291.75 818.93,-269.42"/>
<polygon fill="#63b8ff" stroke="#63b8ff" points="821.77,-267.39 813.15,-261.23 816.05,-271.42 821.77,-267.39"/>
</a>
</g>
</g>
<!-- Node16 -->
<g id="Node000016" class="node">
<title>Node16</title>
<g id="a_Node000016"><a xlink:href="objects_8h.html" target="_top" xlink:title=" ">
<polygon fill="white" stroke="#666666" points="515.5,-206 454.5,-206 454.5,-187 515.5,-187 515.5,-206"/>
<text text-anchor="middle" x="485" y="-194" font-family="Helvetica,sans-Serif" font-size="10.00">objects.h</text>
</a>
</g>
</g>
<!-- Node1&#45;&gt;Node16 -->
<g id="edge64_Node000001_Node000016" class="edge">
<title>Node1&#45;&gt;Node16</title>
<g id="a_edge64_Node000001_Node000016"><a xlink:title=" ">
<path fill="none" stroke="#63b8ff" d="M864.03,-351.97C822.31,-326.97 730.72,-274.33 648,-242 625.84,-233.34 566.29,-217.78 525.65,-207.55"/>
<polygon fill="#63b8ff" stroke="#63b8ff" points="526.31,-204.11 515.76,-205.07 524.61,-210.89 526.31,-204.11"/>
</a>
</g>
</g>
<!-- Node21 -->
<g id="Node000021" class="node">
<title>Node21</title>
<g id="a_Node000021"><a xlink:href="path__spawn__metadata_8h.html" target="_top" xlink:title=" ">
<polygon fill="white" stroke="#666666" points="270.5,-261 133.5,-261 133.5,-242 270.5,-242 270.5,-261"/>
<text text-anchor="middle" x="202" y="-249" font-family="Helvetica,sans-Serif" font-size="10.00">path_spawn_metadata.h</text>
</a>
</g>
</g>
<!-- Node1&#45;&gt;Node21 -->
<g id="edge65_Node000001_Node000021" class="edge">
<title>Node1&#45;&gt;Node21</title>
<g id="a_edge65_Node000001_Node000021"><a xlink:title=" ">
<path fill="none" stroke="#63b8ff" d="M829.97,-360.29C753.46,-352.28 613.5,-336.36 495,-316 406.2,-300.74 303.52,-277.09 246.34,-263.36"/>
<polygon fill="#63b8ff" stroke="#63b8ff" points="247.08,-259.94 236.54,-261 245.44,-266.75 247.08,-259.94"/>
</a>
</g>
</g>
<!-- Node25 -->
<g id="Node000025" class="node">
<title>Node25</title>
<g id="a_Node000025"><a xlink:href="royal__raceway__vertices_8h.html" target="_top" xlink:title=" ">
<polygon fill="white" stroke="#666666" points="1164,-151 1044,-151 1044,-110 1164,-110 1164,-151"/>
<text text-anchor="start" x="1052" y="-139" font-family="Helvetica,sans-Serif" font-size="10.00">assets/models/tracks</text>
<text text-anchor="start" x="1052" y="-128" font-family="Helvetica,sans-Serif" font-size="10.00">/royal_raceway/royal</text>
<text text-anchor="middle" x="1104" y="-117" font-family="Helvetica,sans-Serif" font-size="10.00">_raceway_vertices.h</text>
</a>
</g>
</g>
<!-- Node1&#45;&gt;Node25 -->
<g id="edge49_Node000001_Node000025" class="edge">
<title>Node1&#45;&gt;Node25</title>
<g id="a_edge49_Node000001_Node000025"><a xlink:title=" ">
<path fill="none" stroke="#63b8ff" d="M933.13,-351.94C975.23,-336.6 1035.68,-307.78 1068,-261 1088.82,-230.87 1097.64,-189.01 1101.35,-161.13"/>
<polygon fill="#63b8ff" stroke="#63b8ff" points="1104.83,-161.52 1102.54,-151.18 1097.88,-160.69 1104.83,-161.52"/>
</a>
</g>
</g>
<!-- Node26 -->
<g id="Node000026" class="node">
<title>Node26</title>
<g id="a_Node000026"><a xlink:href="royal__raceway__displaylists_8h.html" target="_top" xlink:title=" ">
<polygon fill="white" stroke="#666666" points="1315.5,-151 1182.5,-151 1182.5,-110 1315.5,-110 1315.5,-151"/>
<text text-anchor="start" x="1190.5" y="-139" font-family="Helvetica,sans-Serif" font-size="10.00">assets/models/tracks</text>
<text text-anchor="start" x="1190.5" y="-128" font-family="Helvetica,sans-Serif" font-size="10.00">/royal_raceway/royal</text>
<text text-anchor="middle" x="1249" y="-117" font-family="Helvetica,sans-Serif" font-size="10.00">_raceway_displaylists.h</text>
</a>
</g>
</g>
<!-- Node1&#45;&gt;Node26 -->
<g id="edge53_Node000001_Node000026" class="edge">
<title>Node1&#45;&gt;Node26</title>
<g id="a_edge53_Node000001_Node000026"><a xlink:title=" ">
<path fill="none" stroke="#63b8ff" d="M944.35,-352.22C972.73,-344.03 1006.85,-332.07 1035,-316 1111.89,-272.12 1186.72,-198.41 1224.18,-158.74"/>
<polygon fill="#63b8ff" stroke="#63b8ff" points="1226.89,-160.98 1231.17,-151.28 1221.78,-156.19 1226.89,-160.98"/>
</a>
</g>
</g>
<!-- Node27 -->
<g id="Node000027" class="node">
<title>Node27</title>
<g id="a_Node000027"><a xlink:href="models_2tracks_2royal__raceway_2royal__raceway__data_8h.html" target="_top" xlink:title=" ">
<polygon fill="white" stroke="#666666" points="1454,-151 1334,-151 1334,-110 1454,-110 1454,-151"/>
<text text-anchor="start" x="1342" y="-139" font-family="Helvetica,sans-Serif" font-size="10.00">assets/models/tracks</text>
<text text-anchor="start" x="1342" y="-128" font-family="Helvetica,sans-Serif" font-size="10.00">/royal_raceway/royal</text>
<text text-anchor="middle" x="1394" y="-117" font-family="Helvetica,sans-Serif" font-size="10.00">_raceway_data.h</text>
</a>
</g>
</g>
<!-- Node1&#45;&gt;Node27 -->
<g id="edge57_Node000001_Node000027" class="edge">
<title>Node1&#45;&gt;Node27</title>
<g id="a_edge57_Node000001_Node000027"><a xlink:title=" ">
<path fill="none" stroke="#63b8ff" d="M944.01,-353.37C979.02,-344.74 1024.41,-331.98 1063,-316 1174.23,-269.93 1295.58,-195.45 1355.74,-156.71"/>
<polygon fill="#63b8ff" stroke="#63b8ff" points="1357.67,-159.64 1364.16,-151.27 1353.87,-153.76 1357.67,-159.64"/>
</a>
</g>
</g>
<!-- Node3&#45;&gt;Node2 -->
<g id="edge3_Node000003_Node000002" class="edge">
<title>Node3&#45;&gt;Node2</title>
<g id="a_edge3_Node000003_Node000002"><a xlink:title=" ">
<path fill="none" stroke="#63b8ff" d="M1023.6,-241.77C1028.56,-211.67 1040.66,-110.98 992,-55 967.86,-27.22 927.1,-16.44 894.47,-12.41"/>
<polygon fill="#63b8ff" stroke="#63b8ff" points="894.5,-8.89 884.19,-11.33 893.76,-15.85 894.5,-8.89"/>
</a>
</g>
</g>
<!-- Node4&#45;&gt;Node3 -->
<g id="edge6_Node000004_Node000003" class="edge">
<title>Node4&#45;&gt;Node3</title>
<g id="a_edge6_Node000004_Node000003"><a xlink:title=" ">
<path fill="none" stroke="#63b8ff" d="M563.79,-302.26C645.94,-293.34 876.13,-268.34 975.43,-257.56"/>
<polygon fill="#63b8ff" stroke="#63b8ff" points="975.91,-261.03 985.47,-256.47 975.15,-254.07 975.91,-261.03"/>
</a>
</g>
</g>
<!-- Node5 -->
<g id="Node000005" class="node">
<title>Node5</title>
<g id="a_Node000005"><a xlink:title=" ">
<polygon fill="#e0e0e0" stroke="#999999" points="545,-261 407,-261 407,-242 545,-242 545,-261"/>
<text text-anchor="middle" x="476" y="-249" font-family="Helvetica,sans-Serif" font-size="10.00">libultraship/libultraship.h</text>
</a>
</g>
</g>
<!-- Node4&#45;&gt;Node5 -->
<g id="edge5_Node000004_Node000005" class="edge">
<title>Node4&#45;&gt;Node5</title>
<g id="a_edge5_Node000004_Node000005"><a xlink:title=" ">
<path fill="none" stroke="#63b8ff" d="M524.68,-296.98C516.19,-289.23 503.44,-277.58 493.12,-268.14"/>
<polygon fill="#63b8ff" stroke="#63b8ff" points="495.23,-265.33 485.49,-261.17 490.51,-270.5 495.23,-265.33"/>
</a>
</g>
</g>
<!-- Node4&#45;&gt;Node6 -->
<g id="edge7_Node000004_Node000006" class="edge">
<title>Node4&#45;&gt;Node6</title>
<g id="a_edge7_Node000004_Node000006"><a xlink:title=" ">
<path fill="none" stroke="#63b8ff" d="M504.29,-304.52C420.3,-301.43 182.6,-290.26 111,-261 85.24,-250.47 61,-228.99 46.09,-213.94"/>
<polygon fill="#63b8ff" stroke="#63b8ff" points="48.27,-211.15 38.82,-206.35 43.21,-215.99 48.27,-211.15"/>
</a>
</g>
</g>
<!-- Node7 -->
<g id="Node000007" class="node">
<title>Node7</title>
<g id="a_Node000007"><a xlink:href="common__structs_8h.html" target="_top" xlink:title=" ">
<polygon fill="white" stroke="#666666" points="305.5,-74 198.5,-74 198.5,-55 305.5,-55 305.5,-74"/>
<text text-anchor="middle" x="252" y="-62" font-family="Helvetica,sans-Serif" font-size="10.00">common_structs.h</text>
</a>
</g>
</g>
<!-- Node4&#45;&gt;Node7 -->
<g id="edge48_Node000004_Node000007" class="edge">
<title>Node4&#45;&gt;Node7</title>
<g id="a_edge48_Node000004_Node000007"><a xlink:title=" ">
<path fill="none" stroke="#63b8ff" d="M504.37,-302.17C452.59,-295.91 348.27,-281.17 318,-261 268.76,-228.19 260.44,-207.54 243,-151 236.08,-128.56 241.06,-101.4 245.94,-83.81"/>
<polygon fill="#63b8ff" stroke="#63b8ff" points="249.29,-84.8 248.85,-74.22 242.59,-82.77 249.29,-84.8"/>
</a>
</g>
</g>
<!-- Node4&#45;&gt;Node8 -->
<g id="edge11_Node000004_Node000008" class="edge">
<title>Node4&#45;&gt;Node8</title>
<g id="a_edge11_Node000004_Node000008"><a xlink:title=" ">
<path fill="none" stroke="#63b8ff" d="M563.57,-299.64C591.32,-293.21 633.2,-281.04 665,-261 684.86,-248.48 703.04,-228.37 714.51,-214.14"/>
<polygon fill="#63b8ff" stroke="#63b8ff" points="717.35,-216.19 720.74,-206.16 711.83,-211.89 717.35,-216.19"/>
</a>
</g>
</g>
<!-- Node4&#45;&gt;Node14 -->
<g id="edge20_Node000004_Node000014" class="edge">
<title>Node4&#45;&gt;Node14</title>
<g id="a_edge20_Node000004_Node000014"><a xlink:title=" ">
<path fill="none" stroke="#63b8ff" d="M563.74,-299.73C609.1,-290.92 696.3,-273.99 753.04,-262.98"/>
<polygon fill="#63b8ff" stroke="#63b8ff" points="753.77,-266.4 762.92,-261.06 752.43,-259.53 753.77,-266.4"/>
</a>
</g>
</g>
<!-- Node17 -->
<g id="Node000017" class="node">
<title>Node17</title>
<g id="a_Node000017"><a xlink:href="defines_8h.html" target="_top" xlink:title=" ">
<polygon fill="white" stroke="#666666" points="388.5,-261 327.5,-261 327.5,-242 388.5,-242 388.5,-261"/>
<text text-anchor="middle" x="358" y="-249" font-family="Helvetica,sans-Serif" font-size="10.00">defines.h</text>
</a>
</g>
</g>
<!-- Node4&#45;&gt;Node17 -->
<g id="edge28_Node000004_Node000017" class="edge">
<title>Node4&#45;&gt;Node17</title>
<g id="a_edge28_Node000004_Node000017"><a xlink:title=" ">
<path fill="none" stroke="#63b8ff" d="M505.72,-296.98C476.05,-288.05 429.21,-273.94 396.25,-264.02"/>
<polygon fill="#63b8ff" stroke="#63b8ff" points="397.08,-260.61 386.5,-261.08 395.07,-267.32 397.08,-260.61"/>
</a>
</g>
</g>
<!-- Node18 -->
<g id="Node000018" class="node">
<title>Node18</title>
<g id="a_Node000018"><a xlink:href="bomb__kart_8h.html" target="_top" xlink:title=" ">
<polygon fill="white" stroke="#666666" points="374.5,-206 297.5,-206 297.5,-187 374.5,-187 374.5,-206"/>
<text text-anchor="middle" x="336" y="-194" font-family="Helvetica,sans-Serif" font-size="10.00">bomb_kart.h</text>
</a>
</g>
</g>
<!-- Node4&#45;&gt;Node18 -->
<g id="edge29_Node000004_Node000018" class="edge">
<title>Node4&#45;&gt;Node18</title>
<g id="a_edge29_Node000004_Node000018"><a xlink:title=" ">
<path fill="none" stroke="#63b8ff" d="M563.55,-298.69C600.23,-288.91 655.28,-269.04 632,-242 616.12,-223.56 464.97,-208.28 385.03,-201.41"/>
<polygon fill="#63b8ff" stroke="#63b8ff" points="384.97,-197.89 374.71,-200.53 384.38,-204.86 384.97,-197.89"/>
</a>
</g>
</g>
<!-- Node4&#45;&gt;Node21 -->
<g id="edge36_Node000004_Node000021" class="edge">
<title>Node4&#45;&gt;Node21</title>
<g id="a_edge36_Node000004_Node000021"><a xlink:title=" ">
<path fill="none" stroke="#63b8ff" d="M504.25,-300.75C450.77,-292.21 337.33,-274.1 265.65,-262.66"/>
<polygon fill="#63b8ff" stroke="#63b8ff" points="265.81,-259.14 255.39,-261.02 264.71,-266.06 265.81,-259.14"/>
</a>
</g>
</g>
<!-- Node22 -->
<g id="Node000022" class="node">
<title>Node22</title>
<g id="a_Node000022"><a xlink:href="waypoints_8h.html" target="_top" xlink:title=" ">
<polygon fill="white" stroke="#666666" points="156,-206 80,-206 80,-187 156,-187 156,-206"/>
<text text-anchor="middle" x="118" y="-194" font-family="Helvetica,sans-Serif" font-size="10.00">waypoints.h</text>
</a>
</g>
</g>
<!-- Node4&#45;&gt;Node22 -->
<g id="edge46_Node000004_Node000022" class="edge">
<title>Node4&#45;&gt;Node22</title>
<g id="a_edge46_Node000004_Node000022"><a xlink:title=" ">
<path fill="none" stroke="#63b8ff" d="M504.19,-304.4C414.33,-300.81 150.65,-288.02 124,-261 112.71,-249.55 112.3,-230.67 114.05,-216.46"/>
<polygon fill="#63b8ff" stroke="#63b8ff" points="117.56,-216.74 115.76,-206.3 110.65,-215.58 117.56,-216.74"/>
</a>
</g>
</g>
<!-- Node24 -->
<g id="Node000024" class="node">
<title>Node24</title>
<g id="a_Node000024"><a xlink:href="sounds_8h.html" target="_top" xlink:title=" ">
<polygon fill="white" stroke="#666666" points="623,-261 563,-261 563,-242 623,-242 623,-261"/>
<text text-anchor="middle" x="593" y="-249" font-family="Helvetica,sans-Serif" font-size="10.00">sounds.h</text>
</a>
</g>
</g>
<!-- Node4&#45;&gt;Node24 -->
<g id="edge47_Node000004_Node000024" class="edge">
<title>Node4&#45;&gt;Node24</title>
<g id="a_edge47_Node000004_Node000024"><a xlink:title=" ">
<path fill="none" stroke="#63b8ff" d="M543.48,-296.98C552.2,-289.15 565.34,-277.34 575.9,-267.86"/>
<polygon fill="#63b8ff" stroke="#63b8ff" points="578.25,-270.46 583.35,-261.17 573.57,-265.25 578.25,-270.46"/>
</a>
</g>
</g>
<!-- Node6&#45;&gt;Node2 -->
<g id="edge8_Node000006_Node000002" class="edge">
<title>Node6&#45;&gt;Node2</title>
<g id="a_edge8_Node000006_Node000002"><a xlink:title=" ">
<path fill="none" stroke="#63b8ff" d="M32.47,-186.82C35.76,-169.94 45.18,-132.37 67,-110 108.53,-67.42 131.31,-69.47 189,-55 303.37,-26.32 660.7,-14.93 793.57,-11.62"/>
<polygon fill="#63b8ff" stroke="#63b8ff" points="793.95,-15.11 803.87,-11.37 793.78,-8.11 793.95,-15.11"/>
</a>
</g>
</g>
<!-- Node6&#45;&gt;Node7 -->
<g id="edge9_Node000006_Node000007" class="edge">
<title>Node6&#45;&gt;Node7</title>
<g id="a_edge9_Node000006_Node000007"><a xlink:title=" ">
<path fill="none" stroke="#63b8ff" d="M37.67,-186.94C51.34,-169.94 84.28,-131.67 120,-110 145.28,-94.66 176.53,-83.83 202.27,-76.69"/>
<polygon fill="#63b8ff" stroke="#63b8ff" points="203.44,-80 212.2,-74.04 201.64,-73.23 203.44,-80"/>
</a>
</g>
</g>
<!-- Node7&#45;&gt;Node2 -->
<g id="edge10_Node000007_Node000002" class="edge">
<title>Node7&#45;&gt;Node2</title>
<g id="a_edge10_Node000007_Node000002"><a xlink:title=" ">
<path fill="none" stroke="#63b8ff" d="M305.58,-58.7C419.18,-48.53 682.86,-24.93 793.6,-15.01"/>
<polygon fill="#63b8ff" stroke="#63b8ff" points="794.18,-18.47 803.83,-14.1 793.55,-11.5 794.18,-18.47"/>
</a>
</g>
</g>
<!-- Node8&#45;&gt;Node2 -->
<g id="edge12_Node000008_Node000002" class="edge">
<title>Node8&#45;&gt;Node2</title>
<g id="a_edge12_Node000008_Node000002"><a xlink:title=" ">
<path fill="none" stroke="#63b8ff" d="M727.22,-186.95C727.96,-170.91 731.16,-135.63 745,-110 764.41,-74.07 800.83,-42.54 823.68,-25.05"/>
<polygon fill="#63b8ff" stroke="#63b8ff" points="825.79,-27.84 831.7,-19.05 821.6,-22.23 825.79,-27.84"/>
</a>
</g>
</g>
<!-- Node9 -->
<g id="Node000009" class="node">
<title>Node9</title>
<g id="a_Node000009"><a xlink:title=" ">
<polygon fill="#e0e0e0" stroke="#999999" points="549,-19 459,-19 459,0 549,0 549,-19"/>
<text text-anchor="middle" x="504" y="-7" font-family="Helvetica,sans-Serif" font-size="10.00">libultra/types.h</text>
</a>
</g>
</g>
<!-- Node8&#45;&gt;Node9 -->
<g id="edge13_Node000008_Node000009" class="edge">
<title>Node8&#45;&gt;Node9</title>
<g id="a_edge13_Node000008_Node000009"><a xlink:title=" ">
<path fill="none" stroke="#63b8ff" d="M678.89,-193.26C617.88,-189.3 517.86,-178.66 495,-151 466.16,-116.1 483.77,-58.14 495.71,-28.76"/>
<polygon fill="#63b8ff" stroke="#63b8ff" points="499.03,-29.9 499.75,-19.33 492.6,-27.14 499.03,-29.9"/>
</a>
</g>
</g>
<!-- Node10 -->
<g id="Node000010" class="node">
<title>Node10</title>
<g id="a_Node000010"><a xlink:title=" ">
<polygon fill="#e0e0e0" stroke="#999999" points="950,-74 872,-74 872,-55 950,-55 950,-74"/>
<text text-anchor="middle" x="911" y="-62" font-family="Helvetica,sans-Serif" font-size="10.00">libultra/gbi.h</text>
</a>
</g>
</g>
<!-- Node8&#45;&gt;Node10 -->
<g id="edge14_Node000008_Node000010" class="edge">
<title>Node8&#45;&gt;Node10</title>
<g id="a_edge14_Node000008_Node000010"><a xlink:title=" ">
<path fill="none" stroke="#63b8ff" d="M730.38,-186.88C737.51,-169.75 755.72,-131.29 783,-110 805.92,-92.11 836.55,-81.12 862.09,-74.54"/>
<polygon fill="#63b8ff" stroke="#63b8ff" points="863.07,-77.9 871.97,-72.15 861.42,-71.1 863.07,-77.9"/>
</a>
</g>
</g>
<!-- Node11 -->
<g id="Node000011" class="node">
<title>Node11</title>
<g id="a_Node000011"><a xlink:href="other__textures_8h.html" target="_top" xlink:title=" ">
<polygon fill="white" stroke="#666666" points="912,-145.5 792,-145.5 792,-115.5 912,-115.5 912,-145.5"/>
<text text-anchor="start" x="800" y="-133.5" font-family="Helvetica,sans-Serif" font-size="10.00">assets/textures/other</text>
<text text-anchor="middle" x="852" y="-122.5" font-family="Helvetica,sans-Serif" font-size="10.00">_textures.h</text>
</a>
</g>
</g>
<!-- Node8&#45;&gt;Node11 -->
<g id="edge15_Node000008_Node000011" class="edge">
<title>Node8&#45;&gt;Node11</title>
<g id="a_edge15_Node000008_Node000011"><a xlink:title=" ">
<path fill="none" stroke="#63b8ff" d="M743.86,-186.87C762.1,-177.53 791.73,-162.36 815.37,-150.25"/>
<polygon fill="#63b8ff" stroke="#63b8ff" points="817.12,-153.29 824.43,-145.62 813.93,-147.06 817.12,-153.29"/>
</a>
</g>
</g>
<!-- Node13 -->
<g id="Node000013" class="node">
<title>Node13</title>
<g id="a_Node000013"><a xlink:href="animation_8h.html" target="_top" xlink:title=" ">
<polygon fill="white" stroke="#666666" points="447.5,-140 372.5,-140 372.5,-121 447.5,-121 447.5,-140"/>
<text text-anchor="middle" x="410" y="-128" font-family="Helvetica,sans-Serif" font-size="10.00">animation.h</text>
</a>
</g>
</g>
<!-- Node8&#45;&gt;Node13 -->
<g id="edge18_Node000008_Node000013" class="edge">
<title>Node8&#45;&gt;Node13</title>
<g id="a_edge18_Node000008_Node000013"><a xlink:title=" ">
<path fill="none" stroke="#63b8ff" d="M678.53,-190.2C624.93,-183.69 536.34,-170.98 462,-151 454.57,-149 446.73,-146.36 439.45,-143.66"/>
<polygon fill="#63b8ff" stroke="#63b8ff" points="440.54,-140.34 429.95,-140.01 438.03,-146.87 440.54,-140.34"/>
</a>
</g>
</g>
<!-- Node11&#45;&gt;Node2 -->
<g id="edge16_Node000011_Node000002" class="edge">
<title>Node11&#45;&gt;Node2</title>
<g id="a_edge16_Node000011_Node000002"><a xlink:title=" ">
<path fill="none" stroke="#63b8ff" d="M851.05,-115.38C849.61,-94.01 846.88,-53.39 845.27,-29.46"/>
<polygon fill="#63b8ff" stroke="#63b8ff" points="848.75,-28.95 844.59,-19.21 841.76,-29.42 848.75,-28.95"/>
</a>
</g>
</g>
<!-- Node12 -->
<g id="Node000012" class="node">
<title>Node12</title>
<g id="a_Node000012"><a xlink:href="align__asset__macro_8h.html" target="_top" xlink:title=" ">
<polygon fill="white" stroke="#666666" points="1161.5,-74 1044.5,-74 1044.5,-55 1161.5,-55 1161.5,-74"/>
<text text-anchor="middle" x="1103" y="-62" font-family="Helvetica,sans-Serif" font-size="10.00">align_asset_macro.h</text>
</a>
</g>
</g>
<!-- Node11&#45;&gt;Node12 -->
<g id="edge17_Node000011_Node000012" class="edge">
<title>Node11&#45;&gt;Node12</title>
<g id="a_edge17_Node000011_Node000012"><a xlink:title=" ">
<path fill="none" stroke="#63b8ff" d="M907.08,-115.45C953.04,-103.74 1017.63,-87.27 1059.88,-76.49"/>
<polygon fill="#63b8ff" stroke="#63b8ff" points="1060.77,-79.88 1069.6,-74.02 1059.04,-73.1 1060.77,-79.88"/>
</a>
</g>
</g>
<!-- Node13&#45;&gt;Node7 -->
<g id="edge19_Node000013_Node000007" class="edge">
<title>Node13&#45;&gt;Node7</title>
<g id="a_edge19_Node000013_Node000007"><a xlink:title=" ">
<path fill="none" stroke="#63b8ff" d="M389.43,-120.9C381.22,-117.49 371.67,-113.54 363,-110 336.04,-99 305.3,-86.7 283.02,-77.82"/>
<polygon fill="#63b8ff" stroke="#63b8ff" points="284.31,-74.57 273.73,-74.12 281.72,-81.07 284.31,-74.57"/>
</a>
</g>
</g>
<!-- Node14&#45;&gt;Node10 -->
<g id="edge21_Node000014_Node000010" class="edge">
<title>Node14&#45;&gt;Node10</title>
<g id="a_edge21_Node000014_Node000010"><a xlink:title=" ">
<path fill="none" stroke="#63b8ff" d="M823.8,-241.99C850.31,-227.5 900.89,-195.24 921,-151 930.83,-129.38 924.6,-101.65 918.46,-83.73"/>
<polygon fill="#63b8ff" stroke="#63b8ff" points="921.68,-82.34 914.89,-74.21 915.13,-84.8 921.68,-82.34"/>
</a>
</g>
</g>
<!-- Node14&#45;&gt;Node11 -->
<g id="edge24_Node000014_Node000011" class="edge">
<title>Node14&#45;&gt;Node11</title>
<g id="a_edge24_Node000014_Node000011"><a xlink:title=" ">
<path fill="none" stroke="#63b8ff" d="M810.24,-241.94C817.03,-223.98 832.97,-181.83 843.07,-155.1"/>
<polygon fill="#63b8ff" stroke="#63b8ff" points="846.37,-156.29 846.63,-145.7 839.82,-153.81 846.37,-156.29"/>
</a>
</g>
</g>
<!-- Node15 -->
<g id="Node000015" class="node">
<title>Node15</title>
<g id="a_Node000015"><a xlink:href="spline_8h.html" target="_top" xlink:title=" ">
<polygon fill="white" stroke="#666666" points="354.5,-140 299.5,-140 299.5,-121 354.5,-121 354.5,-140"/>
<text text-anchor="middle" x="327" y="-128" font-family="Helvetica,sans-Serif" font-size="10.00">spline.h</text>
</a>
</g>
</g>
<!-- Node14&#45;&gt;Node15 -->
<g id="edge22_Node000014_Node000015" class="edge">
<title>Node14&#45;&gt;Node15</title>
<g id="a_edge22_Node000014_Node000015"><a xlink:title=" ">
<path fill="none" stroke="#63b8ff" d="M769.01,-241.97C714.69,-229.77 611.71,-206.65 524,-187 452.45,-170.97 431.67,-176.71 363,-151 358.54,-149.33 353.94,-147.2 349.59,-144.96"/>
<polygon fill="#63b8ff" stroke="#63b8ff" points="351.05,-141.76 340.6,-140.02 347.68,-147.9 351.05,-141.76"/>
</a>
</g>
</g>
<!-- Node14&#45;&gt;Node16 -->
<g id="edge25_Node000014_Node000016" class="edge">
<title>Node14&#45;&gt;Node16</title>
<g id="a_edge25_Node000014_Node000016"><a xlink:title=" ">
<path fill="none" stroke="#63b8ff" d="M755.27,-241.98C691.37,-231.47 584,-213.79 525.68,-204.2"/>
<polygon fill="#63b8ff" stroke="#63b8ff" points="526.16,-200.73 515.72,-202.56 525.02,-207.63 526.16,-200.73"/>
</a>
</g>
</g>
<!-- Node15&#45;&gt;Node7 -->
<g id="edge23_Node000015_Node000007" class="edge">
<title>Node15&#45;&gt;Node7</title>
<g id="a_edge23_Node000015_Node000007"><a xlink:title=" ">
<path fill="none" stroke="#63b8ff" d="M316.89,-120.87C304.99,-110.71 285,-93.66 270.35,-81.15"/>
<polygon fill="#63b8ff" stroke="#63b8ff" points="272.31,-78.23 262.44,-74.41 267.77,-83.56 272.31,-78.23"/>
</a>
</g>
</g>
<!-- Node16&#45;&gt;Node7 -->
<g id="edge27_Node000016_Node000007" class="edge">
<title>Node16&#45;&gt;Node7</title>
<g id="a_edge27_Node000016_Node000007"><a xlink:title=" ">
<path fill="none" stroke="#63b8ff" d="M454.44,-191.89C406.08,-185.64 314.87,-171.46 290,-151 269.35,-134.01 259.55,-103.52 255.18,-83.91"/>
<polygon fill="#63b8ff" stroke="#63b8ff" points="258.6,-83.19 253.23,-74.05 251.73,-84.54 258.6,-83.19"/>
</a>
</g>
</g>
<!-- Node16&#45;&gt;Node15 -->
<g id="edge26_Node000016_Node000015" class="edge">
<title>Node16&#45;&gt;Node15</title>
<g id="a_edge26_Node000016_Node000015"><a xlink:title=" ">
<path fill="none" stroke="#63b8ff" d="M457.89,-186.89C432.87,-178.63 394.86,-165.35 363,-151 358.99,-149.19 354.81,-147.12 350.79,-145.02"/>
<polygon fill="#63b8ff" stroke="#63b8ff" points="352.28,-141.84 341.82,-140.16 348.94,-148 352.28,-141.84"/>
</a>
</g>
</g>
<!-- Node18&#45;&gt;Node7 -->
<g id="edge30_Node000018_Node000007" class="edge">
<title>Node18&#45;&gt;Node7</title>
<g id="a_edge30_Node000018_Node000007"><a xlink:title=" ">
<path fill="none" stroke="#63b8ff" d="M306.49,-186.85C288.98,-180.08 268.09,-168.76 257,-151 244.48,-130.95 245.58,-102.82 248.22,-84.39"/>
<polygon fill="#63b8ff" stroke="#63b8ff" points="251.7,-84.77 249.95,-74.32 244.8,-83.58 251.7,-84.77"/>
</a>
</g>
</g>
<!-- Node19 -->
<g id="Node000019" class="node">
<title>Node19</title>
<g id="a_Node000019"><a xlink:href="mk64_8h.html" target="_top" xlink:title=" ">
<polygon fill="white" stroke="#666666" points="557.5,-140 504.5,-140 504.5,-121 557.5,-121 557.5,-140"/>
<text text-anchor="middle" x="531" y="-128" font-family="Helvetica,sans-Serif" font-size="10.00">mk64.h</text>
</a>
</g>
</g>
<!-- Node18&#45;&gt;Node19 -->
<g id="edge31_Node000018_Node000019" class="edge">
<title>Node18&#45;&gt;Node19</title>
<g id="a_edge31_Node000018_Node000019"><a xlink:title=" ">
<path fill="none" stroke="#63b8ff" d="M362.3,-186.87C396.56,-175.62 456.61,-155.92 495.05,-143.3"/>
<polygon fill="#63b8ff" stroke="#63b8ff" points="496.4,-146.54 504.81,-140.1 494.21,-139.89 496.4,-146.54"/>
</a>
</g>
</g>
<!-- Node19&#45;&gt;Node2 -->
<g id="edge32_Node000019_Node000002" class="edge">
<title>Node19&#45;&gt;Node2</title>
<g id="a_edge32_Node000019_Node000002"><a xlink:title=" ">
<path fill="none" stroke="#63b8ff" d="M546.31,-120.96C552.67,-117.47 560.15,-113.46 567,-110 618.28,-84.08 630.13,-74.99 684,-55 721.07,-41.24 764.35,-29.45 796.54,-21.47"/>
<polygon fill="#63b8ff" stroke="#63b8ff" points="797.7,-24.79 806.58,-19.02 796.03,-17.99 797.7,-24.79"/>
</a>
</g>
</g>
<!-- Node19&#45;&gt;Node10 -->
<g id="edge35_Node000019_Node000010" class="edge">
<title>Node19&#45;&gt;Node10</title>
<g id="a_edge35_Node000019_Node000010"><a xlink:title=" ">
<path fill="none" stroke="#63b8ff" d="M544.15,-120.86C550.75,-116.92 559.02,-112.58 567,-110 668.17,-77.31 793.41,-68.54 861.4,-66.25"/>
<polygon fill="#63b8ff" stroke="#63b8ff" points="861.92,-69.74 871.81,-65.94 861.71,-62.74 861.92,-69.74"/>
</a>
</g>
</g>
<!-- Node20 -->
<g id="Node000020" class="node">
<title>Node20</title>
<g id="a_Node000020"><a xlink:href="string_8h.html" target="_top" xlink:title=" ">
<polygon fill="white" stroke="#666666" points="557.5,-74 504.5,-74 504.5,-55 557.5,-55 557.5,-74"/>
<text text-anchor="middle" x="531" y="-62" font-family="Helvetica,sans-Serif" font-size="10.00">string.h</text>
</a>
</g>
</g>
<!-- Node19&#45;&gt;Node20 -->
<g id="edge33_Node000019_Node000020" class="edge">
<title>Node19&#45;&gt;Node20</title>
<g id="a_edge33_Node000019_Node000020"><a xlink:title=" ">
<path fill="none" stroke="#63b8ff" d="M531,-120.87C531,-111.66 531,-96.79 531,-84.77"/>
<polygon fill="#63b8ff" stroke="#63b8ff" points="534.5,-84.41 531,-74.41 527.5,-84.41 534.5,-84.41"/>
</a>
</g>
</g>
<!-- Node20&#45;&gt;Node9 -->
<g id="edge34_Node000020_Node000009" class="edge">
<title>Node20&#45;&gt;Node9</title>
<g id="a_edge34_Node000020_Node000009"><a xlink:title=" ">
<path fill="none" stroke="#63b8ff" d="M526.54,-54.75C522.88,-47.57 517.59,-37.18 513.05,-28.27"/>
<polygon fill="#63b8ff" stroke="#63b8ff" points="516.03,-26.41 508.38,-19.09 509.8,-29.59 516.03,-26.41"/>
</a>
</g>
</g>
<!-- Node21&#45;&gt;Node7 -->
<g id="edge39_Node000021_Node000007" class="edge">
<title>Node21&#45;&gt;Node7</title>
<g id="a_edge39_Node000021_Node000007"><a xlink:title=" ">
<path fill="none" stroke="#63b8ff" d="M197.27,-241.94C185.27,-218.96 156.28,-154.67 181,-110 188.84,-95.83 203.29,-85.57 217.11,-78.5"/>
<polygon fill="#63b8ff" stroke="#63b8ff" points="218.92,-81.52 226.49,-74.1 215.95,-75.18 218.92,-81.52"/>
</a>
</g>
</g>
<!-- Node21&#45;&gt;Node18 -->
<g id="edge45_Node000021_Node000018" class="edge">
<title>Node21&#45;&gt;Node18</title>
<g id="a_edge45_Node000021_Node000018"><a xlink:title=" ">
<path fill="none" stroke="#63b8ff" d="M223.53,-241.98C245.47,-233.3 279.74,-219.75 304.69,-209.88"/>
<polygon fill="#63b8ff" stroke="#63b8ff" points="306.07,-213.1 314.08,-206.17 303.49,-206.59 306.07,-213.1"/>
</a>
</g>
</g>
<!-- Node21&#45;&gt;Node22 -->
<g id="edge37_Node000021_Node000022" class="edge">
<title>Node21&#45;&gt;Node22</title>
<g id="a_edge37_Node000021_Node000022"><a xlink:title=" ">
<path fill="none" stroke="#63b8ff" d="M188.5,-241.98C175.6,-233.84 155.9,-221.41 140.6,-211.76"/>
<polygon fill="#63b8ff" stroke="#63b8ff" points="142.07,-208.55 131.74,-206.17 138.33,-214.47 142.07,-208.55"/>
</a>
</g>
</g>
<!-- Node23 -->
<g id="Node000023" class="node">
<title>Node23</title>
<g id="a_Node000023"><a xlink:href="other_2common__data_8h.html" target="_top" xlink:title=" ">
<polygon fill="white" stroke="#666666" points="698,-145.5 576,-145.5 576,-115.5 698,-115.5 698,-145.5"/>
<text text-anchor="start" x="584" y="-133.5" font-family="Helvetica,sans-Serif" font-size="10.00">assets/other/common</text>
<text text-anchor="middle" x="637" y="-122.5" font-family="Helvetica,sans-Serif" font-size="10.00">_data.h</text>
</a>
</g>
</g>
<!-- Node21&#45;&gt;Node23 -->
<g id="edge40_Node000021_Node000023" class="edge">
<title>Node21&#45;&gt;Node23</title>
<g id="a_edge40_Node000021_Node000023"><a xlink:title=" ">
<path fill="none" stroke="#63b8ff" d="M270.69,-244.6C351.09,-237.06 478.98,-222.95 524,-206 557.39,-193.43 590.93,-169.56 612.69,-152.22"/>
<polygon fill="#63b8ff" stroke="#63b8ff" points="615.15,-154.72 620.7,-145.7 610.74,-149.29 615.15,-154.72"/>
</a>
</g>
</g>
<!-- Node22&#45;&gt;Node7 -->
<g id="edge38_Node000022_Node000007" class="edge">
<title>Node22&#45;&gt;Node7</title>
<g id="a_edge38_Node000022_Node000007"><a xlink:title=" ">
<path fill="none" stroke="#63b8ff" d="M118.15,-186.8C118.91,-169.89 122.91,-132.28 143,-110 157.41,-94.02 178.4,-83.66 198.12,-77"/>
<polygon fill="#63b8ff" stroke="#63b8ff" points="199.17,-80.34 207.67,-74.01 197.08,-73.65 199.17,-80.34"/>
</a>
</g>
</g>
<!-- Node23&#45;&gt;Node2 -->
<g id="edge42_Node000023_Node000002" class="edge">
<title>Node23&#45;&gt;Node2</title>
<g id="a_edge42_Node000023_Node000002"><a xlink:title=" ">
<path fill="none" stroke="#63b8ff" d="M647.72,-115.48C661.1,-98.87 685.46,-71.4 712,-55 737.06,-39.51 768.16,-28.68 793.88,-21.59"/>
<polygon fill="#63b8ff" stroke="#63b8ff" points="795.04,-24.91 803.81,-18.96 793.25,-18.14 795.04,-24.91"/>
</a>
</g>
</g>
<!-- Node23&#45;&gt;Node7 -->
<g id="edge43_Node000023_Node000007" class="edge">
<title>Node23&#45;&gt;Node7</title>
<g id="a_edge43_Node000023_Node000007"><a xlink:title=" ">
<path fill="none" stroke="#63b8ff" d="M589.08,-115.45C581.4,-113.46 573.51,-111.56 566,-110 480.2,-92.21 379.73,-79.34 315.99,-72.15"/>
<polygon fill="#63b8ff" stroke="#63b8ff" points="316.02,-68.63 305.69,-71 315.24,-75.59 316.02,-68.63"/>
</a>
</g>
</g>
<!-- Node23&#45;&gt;Node10 -->
<g id="edge41_Node000023_Node000010" class="edge">
<title>Node23&#45;&gt;Node10</title>
<g id="a_edge41_Node000023_Node000010"><a xlink:title=" ">
<path fill="none" stroke="#63b8ff" d="M697.13,-115.45C747.51,-103.69 818.4,-87.13 864.52,-76.36"/>
<polygon fill="#63b8ff" stroke="#63b8ff" points="865.59,-79.7 874.54,-74.02 864,-72.88 865.59,-79.7"/>
</a>
</g>
</g>
<!-- Node23&#45;&gt;Node12 -->
<g id="edge44_Node000023_Node000012" class="edge">
<title>Node23&#45;&gt;Node12</title>
<g id="a_edge44_Node000023_Node000012"><a xlink:title=" ">
<path fill="none" stroke="#63b8ff" d="M698.4,-121.07C785.26,-109.14 943.52,-87.4 1034.23,-74.95"/>
<polygon fill="#63b8ff" stroke="#63b8ff" points="1034.97,-78.38 1044.4,-73.55 1034.02,-71.44 1034.97,-78.38"/>
</a>
</g>
</g>
<!-- Node25&#45;&gt;Node2 -->
<g id="edge50_Node000025_Node000002" class="edge">
<title>Node25&#45;&gt;Node2</title>
<g id="a_edge50_Node000025_Node000002"><a xlink:title=" ">
<path fill="none" stroke="#63b8ff" d="M1141.2,-109.72C1164.54,-94.79 1187.36,-73.74 1171,-55 1135.72,-14.59 977.12,-9.49 894.46,-9.66"/>
<polygon fill="#63b8ff" stroke="#63b8ff" points="894.27,-6.16 884.29,-9.71 894.31,-13.16 894.27,-6.16"/>
</a>
</g>
</g>
<!-- Node25&#45;&gt;Node10 -->
<g id="edge51_Node000025_Node000010" class="edge">
<title>Node25&#45;&gt;Node10</title>
<g id="a_edge51_Node000025_Node000010"><a xlink:title=" ">
<path fill="none" stroke="#63b8ff" d="M1045.04,-109.95C1012.76,-99.24 973.83,-86.34 946.27,-77.19"/>
<polygon fill="#63b8ff" stroke="#63b8ff" points="947.25,-73.83 936.66,-74.01 945.05,-80.48 947.25,-73.83"/>
</a>
</g>
</g>
<!-- Node25&#45;&gt;Node12 -->
<g id="edge52_Node000025_Node000012" class="edge">
<title>Node25&#45;&gt;Node12</title>
<g id="a_edge52_Node000025_Node000012"><a xlink:title=" ">
<path fill="none" stroke="#63b8ff" d="M1103.69,-109.95C1103.57,-101.85 1103.42,-92.5 1103.3,-84.47"/>
<polygon fill="#63b8ff" stroke="#63b8ff" points="1106.79,-84.2 1103.14,-74.26 1099.79,-84.31 1106.79,-84.2"/>
</a>
</g>
</g>
<!-- Node26&#45;&gt;Node2 -->
<g id="edge54_Node000026_Node000002" class="edge">
<title>Node26&#45;&gt;Node2</title>
<g id="a_edge54_Node000026_Node000002"><a xlink:title=" ">
<path fill="none" stroke="#63b8ff" d="M1238.33,-109.73C1227.76,-92.23 1209.85,-67.57 1187,-55 1137.74,-27.91 977.05,-16.64 894.28,-12.54"/>
<polygon fill="#63b8ff" stroke="#63b8ff" points="894.26,-9.04 884.1,-12.06 893.92,-16.03 894.26,-9.04"/>
</a>
</g>
</g>
<!-- Node26&#45;&gt;Node10 -->
<g id="edge55_Node000026_Node000010" class="edge">
<title>Node26&#45;&gt;Node10</title>
<g id="a_edge55_Node000026_Node000010"><a xlink:title=" ">
<path fill="none" stroke="#63b8ff" d="M1182.35,-112.06C1179.19,-111.34 1176.06,-110.65 1173,-110 1099.39,-94.33 1013.21,-80.56 960.36,-72.64"/>
<polygon fill="#63b8ff" stroke="#63b8ff" points="960.66,-69.14 950.25,-71.13 959.63,-76.06 960.66,-69.14"/>
</a>
</g>
</g>
<!-- Node26&#45;&gt;Node12 -->
<g id="edge56_Node000026_Node000012" class="edge">
<title>Node26&#45;&gt;Node12</title>
<g id="a_edge56_Node000026_Node000012"><a xlink:title=" ">
<path fill="none" stroke="#63b8ff" d="M1204.4,-109.95C1180.8,-99.6 1152.51,-87.2 1131.81,-78.13"/>
<polygon fill="#63b8ff" stroke="#63b8ff" points="1133.16,-74.9 1122.6,-74.09 1130.35,-81.31 1133.16,-74.9"/>
</a>
</g>
</g>
<!-- Node27&#45;&gt;Node2 -->
<g id="edge58_Node000027_Node000002" class="edge">
<title>Node27&#45;&gt;Node2</title>
<g id="a_edge58_Node000027_Node000002"><a xlink:title=" ">
<path fill="none" stroke="#63b8ff" d="M1354.93,-109.91C1318.77,-92.66 1263.05,-68.28 1212,-55 1100.84,-26.09 965.81,-15.86 894.23,-12.32"/>
<polygon fill="#63b8ff" stroke="#63b8ff" points="894.29,-8.82 884.13,-11.84 893.96,-15.81 894.29,-8.82"/>
</a>
</g>
</g>
<!-- Node27&#45;&gt;Node10 -->
<g id="edge59_Node000027_Node000010" class="edge">
<title>Node27&#45;&gt;Node10</title>
<g id="a_edge59_Node000027_Node000010"><a xlink:title=" ">
<path fill="none" stroke="#63b8ff" d="M1333.93,-111.88C1330.92,-111.2 1327.93,-110.57 1325,-110 1256.25,-96.69 1054.45,-78.04 960.36,-69.75"/>
<polygon fill="#63b8ff" stroke="#63b8ff" points="960.51,-66.25 950.24,-68.87 959.9,-73.23 960.51,-66.25"/>
</a>
</g>
</g>
<!-- Node27&#45;&gt;Node12 -->
<g id="edge60_Node000027_Node000012" class="edge">
<title>Node27&#45;&gt;Node12</title>
<g id="a_edge60_Node000027_Node000012"><a xlink:title=" ">
<path fill="none" stroke="#63b8ff" d="M1333.86,-112.21C1330.87,-111.44 1327.9,-110.7 1325,-110 1269.76,-96.68 1206.11,-84.21 1161.17,-75.88"/>
<polygon fill="#63b8ff" stroke="#63b8ff" points="1161.77,-72.43 1151.31,-74.06 1160.51,-79.32 1161.77,-72.43"/>
</a>
</g>
</g>
</g>
</svg>

<g id="navigator" transform="translate(0 0)" fill="#404254">
  <rect fill="#f2f5e9" fill-opacity="0.5" stroke="#606060" stroke-width=".5" x="0" y="0" width="60" height="60"/>
  <use id="zoomplus" xlink:href="#zoomPlus" x="17" y="9" onmousedown="handleZoom(evt,'in')"/>
  <use id="zoomminus" xlink:href="#zoomMin" x="42" y="9" onmousedown="handleZoom(evt,'out')"/>
  <use id="reset" xlink:href="#resetDef" x="30" y="36" onmousedown="handleReset()"/>
   <use id="arrowup" xlink:href="#arrowUp" x="0" y="0" onmousedown="handlePan(0,-1)"/>
  <use id="arrowright" xlink:href="#arrowRight" x="0" y="0" onmousedown="handlePan(1,0)"/>
  <use id="arrowdown" xlink:href="#arrowDown" x="0" y="0" onmousedown="handlePan(0,1)"/>
  <use id="arrowleft" xlink:href="#arrowLeft" x="0" y="0" onmousedown="handlePan(-1,0)"/>
</g>
<svg viewBox="0 0 15 15" width="100%" height="30px" preserveAspectRatio="xMaxYMin meet">
 <g id="arrow_out" transform="scale(0.3 0.3)">
  <a xlink:href="PodiumCeremony_8h__incl_org.svg" target="_base">
   <rect id="button" ry="5" rx="5" y="6" x="6" height="38" width="38"
        fill="#f2f5e9" fill-opacity="0.5" stroke="#606060" stroke-width="1.0"/>
   <path id="arrow"
     d="M 11.500037,31.436501 C 11.940474,20.09759 22.043105,11.32322 32.158766,21.979434 L 37.068811,17.246167 C 37.068811,17.246167 37.088388,32 37.088388,32 L 22.160133,31.978069 C 22.160133,31.978069 26.997745,27.140456 26.997745,27.140456 C 18.528582,18.264221 13.291696,25.230495 11.500037,31.436501 z"
     style="fill:#404040;"/>
  </a>
 </g>
</svg>

<style type='text/css'>
<![CDATA[
[data-mouse-over-selected='false'] { opacity: 0.7; }
[data-mouse-over-selected='true']  { opacity: 1.0; }
]]>
</style>
<script type="application/ecmascript"><![CDATA[
document.addEventListener('DOMContentLoaded', (event) => {
  highlightEdges();
  highlightAdjacentNodes();
});
]]></script>
</svg>
