<?xml version="1.0" encoding="UTF-8" standalone="no"?>
<!DOCTYPE svg PUBLIC "-//W3C//DTD SVG 1.1//EN"
 "http://www.w3.org/Graphics/SVG/1.1/DTD/svg11.dtd">
<!-- Generated by graphviz version 2.43.0 (0)
 -->
<!-- Title: src/port/ui/Properties.h Pages: 1 -->
<!--zoomable 423 -->

<svg id="main" version="1.1" xmlns="http://www.w3.org/2000/svg" xmlns:xlink="http://www.w3.org/1999/xlink" xml:space="preserve" onload="init(evt)">

<style type="text/css"><![CDATA[
.node, .edge {opacity: 0.7;}
.node.selected, .edge.selected {opacity: 1;}
.edge:hover path { stroke: red; }
.edge:hover polygon { stroke: red; fill: red; }
]]></style>

<defs>
  <circle id="rim" cx="0" cy="0" r="7"/>
  <circle id="rim2" cx="0" cy="0" r="3.5"/>
  <g id="zoomPlus">
    <use xlink:href="#rim" fill="#404040"><set attributeName="fill" to="#808080" begin="zoomplus.mouseover" end="zoomplus.mouseout"/></use>
    <path d="M-4,0h8M0,-4v8" fill="none" stroke="white" stroke-width="1.5" pointer-events="none"/>
  </g>
  <g id="zoomMin">
    <use xlink:href="#rim" fill="#404040"><set attributeName="fill" to="#808080" begin="zoomminus.mouseover" end="zoomminus.mouseout"/></use>
    <path d="M-4,0h8" fill="none" stroke="white" stroke-width="1.5" pointer-events="none"/>
  </g>
  <g id="arrowUp" transform="translate(30 24)">
    <use xlink:href="#rim"/>
    <path pointer-events="none" fill="none" stroke="white" stroke-width="1.5" d="M0,-3.0v7 M-2.5,-0.5L0,-3.0L2.5,-0.5"/>
  </g>
  <g id="arrowRight" transform="rotate(90) translate(36 -43)">
    <use xlink:href="#rim"/>
    <path pointer-events="none" fill="none" stroke="white" stroke-width="1.5" d="M0,-3.0v7 M-2.5,-0.5L0,-3.0L2.5,-0.5"/>
  </g>
  <g id="arrowDown" transform="rotate(180) translate(-30 -48)">
    <use xlink:href="#rim"/>
    <path pointer-events="none" fill="none" stroke="white" stroke-width="1.5" d="M0,-3.0v7 M-2.5,-0.5L0,-3.0L2.5,-0.5"/>
  </g>
  <g id="arrowLeft" transform="rotate(270) translate(-36 17)">
    <use xlink:href="#rim"/>
    <path pointer-events="none" fill="none" stroke="white" stroke-width="1.5" d="M0,-3.0v7 M-2.5,-0.5L0,-3.0L2.5,-0.5"/>
  </g>
  <g id="resetDef">
    <use xlink:href="#rim2" fill="#404040"><set attributeName="fill" to="#808080" begin="reset.mouseover" end="reset.mouseout"/></use>
  </g>
</defs>
<script type="application/ecmascript">
var viewWidth = 1104;
var viewHeight = 423;
var sectionId = 'dynsection-0';
</script>
<script type="application/ecmascript" xlink:href="svg.min.js"/>
<svg id="graph" class="graph">
<g id="viewport">
<title>src/port/ui/Properties.h</title>
<!-- Node1 -->
<g id="Node000001" class="node">
<title>Node1</title>
<g id="a_Node000001"><a xlink:title=" ">
<polygon fill="#999999" stroke="#666666" points="448.12,-415 321.12,-415 321.12,-396 448.12,-396 448.12,-415"/>
<text text-anchor="middle" x="384.62" y="-403" font-family="Helvetica,sans-Serif" font-size="10.00">src/port/ui/Properties.h</text>
</a>
</g>
</g>
<!-- Node2 -->
<g id="Node000002" class="node">
<title>Node2</title>
<g id="a_Node000002"><a xlink:title=" ">
<polygon fill="#e0e0e0" stroke="#999999" points="189.62,-250 51.62,-250 51.62,-231 189.62,-231 189.62,-250"/>
<text text-anchor="middle" x="120.62" y="-238" font-family="Helvetica,sans-Serif" font-size="10.00">libultraship/libultraship.h</text>
</a>
</g>
</g>
<!-- Node1&#45;&gt;Node2 -->
<g id="edge1_Node000001_Node000002" class="edge">
<title>Node1&#45;&gt;Node2</title>
<g id="a_edge1_Node000001_Node000002"><a xlink:title=" ">
<path fill="none" stroke="#63b8ff" d="M366.89,-395.88C333.88,-379.58 261.14,-342.51 203.62,-305 180.19,-289.73 154.89,-269.82 138.46,-256.41"/>
<polygon fill="#63b8ff" stroke="#63b8ff" points="140.67,-253.7 130.73,-250.04 136.22,-259.1 140.67,-253.7"/>
</a>
</g>
</g>
<!-- Node3 -->
<g id="Node000003" class="node">
<title>Node3</title>
<g id="a_Node000003"><a xlink:href="Game_8h.html" target="_top" xlink:title=" ">
<polygon fill="white" stroke="#666666" points="661.12,-360 584.12,-360 584.12,-341 661.12,-341 661.12,-360"/>
<text text-anchor="middle" x="622.62" y="-348" font-family="Helvetica,sans-Serif" font-size="10.00">port/Game.h</text>
</a>
</g>
</g>
<!-- Node1&#45;&gt;Node3 -->
<g id="edge2_Node000001_Node000003" class="edge">
<title>Node1&#45;&gt;Node3</title>
<g id="a_edge2_Node000001_Node000003"><a xlink:title=" ">
<path fill="none" stroke="#63b8ff" d="M422.86,-395.98C464.02,-386.82 529.61,-372.21 574.31,-362.26"/>
<polygon fill="#63b8ff" stroke="#63b8ff" points="575.08,-365.67 584.08,-360.08 573.56,-358.84 575.08,-365.67"/>
</a>
</g>
</g>
<!-- Node4 -->
<g id="Node000004" class="node">
<title>Node4</title>
<g id="a_Node000004"><a xlink:title=" ">
<polygon fill="#e0e0e0" stroke="#999999" points="605.62,-19 525.62,-19 525.62,0 605.62,0 605.62,-19"/>
<text text-anchor="middle" x="565.62" y="-7" font-family="Helvetica,sans-Serif" font-size="10.00">libultraship.h</text>
</a>
</g>
</g>
<!-- Node3&#45;&gt;Node4 -->
<g id="edge3_Node000003_Node000004" class="edge">
<title>Node3&#45;&gt;Node4</title>
<g id="a_edge3_Node000003_Node000004"><a xlink:title=" ">
<path fill="none" stroke="#63b8ff" d="M583.68,-341.49C450.77,-312.55 30.57,-207.06 166.62,-55 189.5,-29.42 413.41,-16.86 515.43,-12.43"/>
<polygon fill="#63b8ff" stroke="#63b8ff" points="515.65,-15.92 525.5,-12 515.36,-8.93 515.65,-15.92"/>
</a>
</g>
</g>
<!-- Node5 -->
<g id="Node000005" class="node">
<title>Node5</title>
<g id="a_Node000005"><a xlink:href="Track_8h.html" target="_top" xlink:title=" ">
<polygon fill="white" stroke="#666666" points="682.62,-305 562.62,-305 562.62,-286 682.62,-286 682.62,-305"/>
<text text-anchor="middle" x="622.62" y="-293" font-family="Helvetica,sans-Serif" font-size="10.00">engine/tracks/Track.h</text>
</a>
</g>
</g>
<!-- Node3&#45;&gt;Node5 -->
<g id="edge4_Node000003_Node000005" class="edge">
<title>Node3&#45;&gt;Node5</title>
<g id="a_edge4_Node000003_Node000005"><a xlink:title=" ">
<path fill="none" stroke="#63b8ff" d="M622.62,-340.75C622.62,-333.8 622.62,-323.85 622.62,-315.13"/>
<polygon fill="#63b8ff" stroke="#63b8ff" points="626.12,-315.09 622.62,-305.09 619.12,-315.09 626.12,-315.09"/>
</a>
</g>
</g>
<!-- Node8 -->
<g id="Node000008" class="node">
<title>Node8</title>
<g id="a_Node000008"><a xlink:href="camera_8h.html" target="_top" xlink:title=" ">
<polygon fill="white" stroke="#666666" points="889.62,-134.5 827.62,-134.5 827.62,-115.5 889.62,-115.5 889.62,-134.5"/>
<text text-anchor="middle" x="858.62" y="-122.5" font-family="Helvetica,sans-Serif" font-size="10.00">camera.h</text>
</a>
</g>
</g>
<!-- Node3&#45;&gt;Node8 -->
<g id="edge59_Node000003_Node000008" class="edge">
<title>Node3&#45;&gt;Node8</title>
<g id="a_edge59_Node000003_Node000008"><a xlink:title=" ">
<path fill="none" stroke="#63b8ff" d="M661.36,-343.46C713.34,-333.33 805.18,-308.01 857.62,-250 880.25,-224.97 879.82,-209.34 874.62,-176 872.92,-165.14 869.27,-153.41 865.89,-144.05"/>
<polygon fill="#63b8ff" stroke="#63b8ff" points="869.13,-142.74 862.29,-134.65 862.59,-145.24 869.13,-142.74"/>
</a>
</g>
</g>
<!-- Node24 -->
<g id="Node000024" class="node">
<title>Node24</title>
<g id="a_Node000024"><a xlink:href="code__800029B0_8h.html" target="_top" xlink:title=" ">
<polygon fill="white" stroke="#666666" points="1026.12,-195 923.12,-195 923.12,-176 1026.12,-176 1026.12,-195"/>
<text text-anchor="middle" x="974.62" y="-183" font-family="Helvetica,sans-Serif" font-size="10.00">code_800029B0.h</text>
</a>
</g>
</g>
<!-- Node3&#45;&gt;Node24 -->
<g id="edge61_Node000003_Node000024" class="edge">
<title>Node3&#45;&gt;Node24</title>
<g id="a_edge61_Node000003_Node000024"><a xlink:title=" ">
<path fill="none" stroke="#63b8ff" d="M661.22,-347.64C729.78,-343.67 869.29,-332.4 908.62,-305 943.44,-280.74 961.95,-231.89 969.85,-205.11"/>
<polygon fill="#63b8ff" stroke="#63b8ff" points="973.32,-205.69 972.6,-195.12 966.57,-203.83 973.32,-205.69"/>
</a>
</g>
</g>
<!-- Node27 -->
<g id="Node000027" class="node">
<title>Node27</title>
<g id="a_Node000027"><a xlink:href="actor__types_8h.html" target="_top" xlink:title=" ">
<polygon fill="white" stroke="#666666" points="1029.12,-134.5 946.12,-134.5 946.12,-115.5 1029.12,-115.5 1029.12,-134.5"/>
<text text-anchor="middle" x="987.62" y="-122.5" font-family="Helvetica,sans-Serif" font-size="10.00">actor_types.h</text>
</a>
</g>
</g>
<!-- Node3&#45;&gt;Node27 -->
<g id="edge60_Node000003_Node000027" class="edge">
<title>Node3&#45;&gt;Node27</title>
<g id="a_edge60_Node000003_Node000027"><a xlink:title=" ">
<path fill="none" stroke="#63b8ff" d="M661.39,-347.1C733.53,-342.11 885.24,-329.04 931.62,-305 991.35,-274.04 1010.74,-257.51 1035.62,-195 1043.79,-174.45 1025.46,-154.04 1009.14,-140.82"/>
<polygon fill="#63b8ff" stroke="#63b8ff" points="1011.02,-137.85 1000.94,-134.59 1006.79,-143.43 1011.02,-137.85"/>
</a>
</g>
</g>
<!-- Node29 -->
<g id="Node000029" class="node">
<title>Node29</title>
<g id="a_Node000029"><a xlink:href="HM__Intro_8h.html" target="_top" xlink:title=" ">
<polygon fill="white" stroke="#666666" points="119.62,-134.5 13.62,-134.5 13.62,-115.5 119.62,-115.5 119.62,-134.5"/>
<text text-anchor="middle" x="66.62" y="-122.5" font-family="Helvetica,sans-Serif" font-size="10.00">engine/HM_Intro.h</text>
</a>
</g>
</g>
<!-- Node3&#45;&gt;Node29 -->
<g id="edge54_Node000003_Node000029" class="edge">
<title>Node3&#45;&gt;Node29</title>
<g id="a_edge54_Node000003_Node000029"><a xlink:title=" ">
<path fill="none" stroke="#63b8ff" d="M583.96,-349.51C464.56,-348.59 105.83,-338.4 42.62,-250 19.54,-217.74 41.06,-169.16 55.67,-143.43"/>
<polygon fill="#63b8ff" stroke="#63b8ff" points="58.72,-145.15 60.83,-134.77 52.71,-141.57 58.72,-145.15"/>
</a>
</g>
</g>
<!-- Node5&#45;&gt;Node2 -->
<g id="edge5_Node000005_Node000002" class="edge">
<title>Node5&#45;&gt;Node2</title>
<g id="a_edge5_Node000005_Node000002"><a xlink:title=" ">
<path fill="none" stroke="#63b8ff" d="M562.56,-288.16C472.11,-278.61 300.81,-260.52 200.1,-249.89"/>
<polygon fill="#63b8ff" stroke="#63b8ff" points="200.29,-246.39 189.98,-248.82 199.56,-253.35 200.29,-246.39"/>
</a>
</g>
</g>
<!-- Node6 -->
<g id="Node000006" class="node">
<title>Node6</title>
<g id="a_Node000006"><a xlink:href="CoreMath_8h.html" target="_top" xlink:title=" ">
<polygon fill="white" stroke="#666666" points="81.12,-74 8.12,-74 8.12,-55 81.12,-55 81.12,-74"/>
<text text-anchor="middle" x="44.62" y="-62" font-family="Helvetica,sans-Serif" font-size="10.00">CoreMath.h</text>
</a>
</g>
</g>
<!-- Node5&#45;&gt;Node6 -->
<g id="edge6_Node000005_Node000006" class="edge">
<title>Node5&#45;&gt;Node6</title>
<g id="a_edge6_Node000005_Node000006"><a xlink:title=" ">
<path fill="none" stroke="#63b8ff" d="M562.49,-290.85C494.8,-285.75 381.95,-274.23 287.62,-250 222.26,-233.22 42.72,-195.69 4.62,-140 -8.63,-120.63 10.26,-96.41 26.32,-80.94"/>
<polygon fill="#63b8ff" stroke="#63b8ff" points="28.78,-83.43 33.82,-74.11 24.07,-78.25 28.78,-83.43"/>
</a>
</g>
</g>
<!-- Node7 -->
<g id="Node000007" class="node">
<title>Node7</title>
<g id="a_Node000007"><a xlink:href="defines_8h.html" target="_top" xlink:title=" ">
<polygon fill="white" stroke="#666666" points="828.12,-250 767.12,-250 767.12,-231 828.12,-231 828.12,-250"/>
<text text-anchor="middle" x="797.62" y="-238" font-family="Helvetica,sans-Serif" font-size="10.00">defines.h</text>
</a>
</g>
</g>
<!-- Node5&#45;&gt;Node7 -->
<g id="edge8_Node000005_Node000007" class="edge">
<title>Node5&#45;&gt;Node7</title>
<g id="a_edge8_Node000005_Node000007"><a xlink:title=" ">
<path fill="none" stroke="#63b8ff" d="M650.73,-285.98C680.24,-277.05 726.81,-262.94 759.58,-253.02"/>
<polygon fill="#63b8ff" stroke="#63b8ff" points="760.72,-256.33 769.28,-250.08 758.69,-249.63 760.72,-256.33"/>
</a>
</g>
</g>
<!-- Node5&#45;&gt;Node8 -->
<g id="edge9_Node000005_Node000008" class="edge">
<title>Node5&#45;&gt;Node8</title>
<g id="a_edge9_Node000005_Node000008"><a xlink:title=" ">
<path fill="none" stroke="#63b8ff" d="M682.72,-289.47C738.38,-283.53 815.63,-271.61 836.62,-250 864.07,-221.73 863.77,-171.79 861.19,-144.72"/>
<polygon fill="#63b8ff" stroke="#63b8ff" points="864.65,-144.17 860.02,-134.64 857.7,-144.98 864.65,-144.17"/>
</a>
</g>
</g>
<!-- Node9 -->
<g id="Node000009" class="node">
<title>Node9</title>
<g id="a_Node000009"><a xlink:href="common__structs_8h.html" target="_top" xlink:title=" ">
<polygon fill="white" stroke="#666666" points="739.12,-74 632.12,-74 632.12,-55 739.12,-55 739.12,-74"/>
<text text-anchor="middle" x="685.62" y="-62" font-family="Helvetica,sans-Serif" font-size="10.00">common_structs.h</text>
</a>
</g>
</g>
<!-- Node5&#45;&gt;Node9 -->
<g id="edge42_Node000005_Node000009" class="edge">
<title>Node5&#45;&gt;Node9</title>
<g id="a_edge42_Node000005_Node000009"><a xlink:title=" ">
<path fill="none" stroke="#63b8ff" d="M628.23,-285.86C637.44,-272.35 656.98,-246.18 679.62,-231 719.19,-204.45 753.15,-233.95 780.62,-195 797.12,-171.6 778.45,-139.08 754.62,-110 743.82,-96.83 728.08,-86.27 714.36,-78.74"/>
<polygon fill="#63b8ff" stroke="#63b8ff" points="715.75,-75.52 705.27,-74.02 712.53,-81.73 715.75,-75.52"/>
</a>
</g>
</g>
<!-- Node10 -->
<g id="Node000010" class="node">
<title>Node10</title>
<g id="a_Node000010"><a xlink:href="src_2data_2some__data_8h.html" target="_top" xlink:title=" ">
<polygon fill="white" stroke="#666666" points="400.62,-250 296.62,-250 296.62,-231 400.62,-231 400.62,-250"/>
<text text-anchor="middle" x="348.62" y="-238" font-family="Helvetica,sans-Serif" font-size="10.00">data/some_data.h</text>
</a>
</g>
</g>
<!-- Node5&#45;&gt;Node10 -->
<g id="edge13_Node000005_Node000010" class="edge">
<title>Node5&#45;&gt;Node10</title>
<g id="a_edge13_Node000005_Node000010"><a xlink:title=" ">
<path fill="none" stroke="#63b8ff" d="M578.59,-285.98C530.8,-276.74 454.42,-261.97 402.93,-252.01"/>
<polygon fill="#63b8ff" stroke="#63b8ff" points="403.47,-248.54 392.98,-250.08 402.14,-255.42 403.47,-248.54"/>
</a>
</g>
</g>
<!-- Node16 -->
<g id="Node000016" class="node">
<title>Node16</title>
<g id="a_Node000016"><a xlink:href="bomb__kart_8h.html" target="_top" xlink:title=" ">
<polygon fill="white" stroke="#666666" points="494.12,-195 417.12,-195 417.12,-176 494.12,-176 494.12,-195"/>
<text text-anchor="middle" x="455.62" y="-183" font-family="Helvetica,sans-Serif" font-size="10.00">bomb_kart.h</text>
</a>
</g>
</g>
<!-- Node5&#45;&gt;Node16 -->
<g id="edge23_Node000005_Node000016" class="edge">
<title>Node5&#45;&gt;Node16</title>
<g id="a_edge23_Node000005_Node000016"><a xlink:title=" ">
<path fill="none" stroke="#63b8ff" d="M562.6,-287.13C517.74,-280.24 461.81,-268.25 447.62,-250 437.72,-237.28 441.61,-218.59 446.83,-204.78"/>
<polygon fill="#63b8ff" stroke="#63b8ff" points="450.15,-205.92 450.89,-195.35 443.72,-203.15 450.15,-205.92"/>
</a>
</g>
</g>
<!-- Node20 -->
<g id="Node000020" class="node">
<title>Node20</title>
<g id="a_Node000020"><a xlink:href="path__spawn__metadata_8h.html" target="_top" xlink:title=" ">
<polygon fill="white" stroke="#666666" points="594.12,-250 457.12,-250 457.12,-231 594.12,-231 594.12,-250"/>
<text text-anchor="middle" x="525.62" y="-238" font-family="Helvetica,sans-Serif" font-size="10.00">path_spawn_metadata.h</text>
</a>
</g>
</g>
<!-- Node5&#45;&gt;Node20 -->
<g id="edge30_Node000005_Node000020" class="edge">
<title>Node5&#45;&gt;Node20</title>
<g id="a_edge30_Node000005_Node000020"><a xlink:title=" ">
<path fill="none" stroke="#63b8ff" d="M607.03,-285.98C591.85,-277.69 568.52,-264.94 550.72,-255.22"/>
<polygon fill="#63b8ff" stroke="#63b8ff" points="551.94,-251.89 541.48,-250.17 548.58,-258.04 551.94,-251.89"/>
</a>
</g>
</g>
<!-- Node21 -->
<g id="Node000021" class="node">
<title>Node21</title>
<g id="a_Node000021"><a xlink:href="waypoints_8h.html" target="_top" xlink:title=" ">
<polygon fill="white" stroke="#666666" points="771.62,-195 695.62,-195 695.62,-176 771.62,-176 771.62,-195"/>
<text text-anchor="middle" x="733.62" y="-183" font-family="Helvetica,sans-Serif" font-size="10.00">waypoints.h</text>
</a>
</g>
</g>
<!-- Node5&#45;&gt;Node21 -->
<g id="edge40_Node000005_Node000021" class="edge">
<title>Node5&#45;&gt;Node21</title>
<g id="a_edge40_Node000005_Node000021"><a xlink:title=" ">
<path fill="none" stroke="#63b8ff" d="M623.89,-285.66C626.22,-272.34 632.32,-246.99 646.62,-231 659.66,-216.41 678.62,-205.94 695.51,-198.83"/>
<polygon fill="#63b8ff" stroke="#63b8ff" points="697.13,-201.95 705.15,-195.02 694.56,-195.44 697.13,-201.95"/>
</a>
</g>
</g>
<!-- Node23 -->
<g id="Node000023" class="node">
<title>Node23</title>
<g id="a_Node000023"><a xlink:href="sounds_8h.html" target="_top" xlink:title=" ">
<polygon fill="white" stroke="#666666" points="748.62,-250 688.62,-250 688.62,-231 748.62,-231 748.62,-250"/>
<text text-anchor="middle" x="718.62" y="-238" font-family="Helvetica,sans-Serif" font-size="10.00">sounds.h</text>
</a>
</g>
</g>
<!-- Node5&#45;&gt;Node23 -->
<g id="edge41_Node000005_Node000023" class="edge">
<title>Node5&#45;&gt;Node23</title>
<g id="a_edge41_Node000005_Node000023"><a xlink:title=" ">
<path fill="none" stroke="#63b8ff" d="M638.04,-285.98C653.07,-277.69 676.16,-264.94 693.77,-255.22"/>
<polygon fill="#63b8ff" stroke="#63b8ff" points="695.85,-258.07 702.91,-250.17 692.47,-251.94 695.85,-258.07"/>
</a>
</g>
</g>
<!-- Node5&#45;&gt;Node24 -->
<g id="edge43_Node000005_Node000024" class="edge">
<title>Node5&#45;&gt;Node24</title>
<g id="a_edge43_Node000005_Node000024"><a xlink:title=" ">
<path fill="none" stroke="#63b8ff" d="M682.64,-289.99C733.93,-284.68 808.97,-273.41 870.62,-250 902.52,-237.89 935.5,-215.83 955.55,-201.17"/>
<polygon fill="#63b8ff" stroke="#63b8ff" points="957.87,-203.8 963.79,-195.01 953.68,-198.19 957.87,-203.8"/>
</a>
</g>
</g>
<!-- Node6&#45;&gt;Node4 -->
<g id="edge7_Node000006_Node000004" class="edge">
<title>Node6&#45;&gt;Node4</title>
<g id="a_edge7_Node000006_Node000004"><a xlink:title=" ">
<path fill="none" stroke="#63b8ff" d="M81.34,-57.06C86.14,-56.31 90.99,-55.6 95.62,-55 248.1,-35.1 429.53,-20.47 515.57,-14.07"/>
<polygon fill="#63b8ff" stroke="#63b8ff" points="515.87,-17.56 525.58,-13.33 515.35,-10.58 515.87,-17.56"/>
</a>
</g>
</g>
<!-- Node8&#45;&gt;Node4 -->
<g id="edge10_Node000008_Node000004" class="edge">
<title>Node8&#45;&gt;Node4</title>
<g id="a_edge10_Node000008_Node000004"><a xlink:title=" ">
<path fill="none" stroke="#63b8ff" d="M847.61,-115.48C828.37,-101 786.94,-71.53 747.62,-55 704.86,-37.02 653.27,-25.27 615.95,-18.38"/>
<polygon fill="#63b8ff" stroke="#63b8ff" points="616.28,-14.88 605.82,-16.56 615.05,-21.77 616.28,-14.88"/>
</a>
</g>
</g>
<!-- Node8&#45;&gt;Node9 -->
<g id="edge11_Node000008_Node000009" class="edge">
<title>Node8&#45;&gt;Node9</title>
<g id="a_edge11_Node000008_Node000009"><a xlink:title=" ">
<path fill="none" stroke="#63b8ff" d="M833.46,-115.49C803.74,-105.44 754.1,-88.66 720.63,-77.34"/>
<polygon fill="#63b8ff" stroke="#63b8ff" points="721.4,-73.9 710.8,-74.02 719.15,-80.54 721.4,-73.9"/>
</a>
</g>
</g>
<!-- Node9&#45;&gt;Node4 -->
<g id="edge12_Node000009_Node000004" class="edge">
<title>Node9&#45;&gt;Node4</title>
<g id="a_edge12_Node000009_Node000004"><a xlink:title=" ">
<path fill="none" stroke="#63b8ff" d="M666.34,-54.98C646.95,-46.42 616.81,-33.11 594.55,-23.28"/>
<polygon fill="#63b8ff" stroke="#63b8ff" points="595.81,-20.01 585.25,-19.17 592.98,-26.41 595.81,-20.01"/>
</a>
</g>
</g>
<!-- Node11 -->
<g id="Node000011" class="node">
<title>Node11</title>
<g id="a_Node000011"><a xlink:title=" ">
<polygon fill="#e0e0e0" stroke="#999999" points="253.62,-74 175.62,-74 175.62,-55 253.62,-55 253.62,-74"/>
<text text-anchor="middle" x="214.62" y="-62" font-family="Helvetica,sans-Serif" font-size="10.00">libultra/gbi.h</text>
</a>
</g>
</g>
<!-- Node10&#45;&gt;Node11 -->
<g id="edge14_Node000010_Node000011" class="edge">
<title>Node10&#45;&gt;Node11</title>
<g id="a_edge14_Node000010_Node000011"><a xlink:title=" ">
<path fill="none" stroke="#63b8ff" d="M324.23,-230.98C290.22,-217.62 229.88,-188.17 204.62,-140 195.46,-122.53 200.6,-99.73 206.34,-83.97"/>
<polygon fill="#63b8ff" stroke="#63b8ff" points="209.73,-84.93 210.25,-74.34 203.25,-82.29 209.73,-84.93"/>
</a>
</g>
</g>
<!-- Node12 -->
<g id="Node000012" class="node">
<title>Node12</title>
<g id="a_Node000012"><a xlink:href="spline_8h.html" target="_top" xlink:title=" ">
<polygon fill="white" stroke="#666666" points="619.12,-134.5 564.12,-134.5 564.12,-115.5 619.12,-115.5 619.12,-134.5"/>
<text text-anchor="middle" x="591.62" y="-122.5" font-family="Helvetica,sans-Serif" font-size="10.00">spline.h</text>
</a>
</g>
</g>
<!-- Node10&#45;&gt;Node12 -->
<g id="edge15_Node000010_Node000012" class="edge">
<title>Node10&#45;&gt;Node12</title>
<g id="a_edge15_Node000010_Node000012"><a xlink:title=" ">
<path fill="none" stroke="#63b8ff" d="M354.33,-230.58C363.71,-216.69 383.74,-190.03 407.62,-176 465.61,-141.93 490.38,-159.94 554.62,-140 556.54,-139.4 558.5,-138.76 560.47,-138.09"/>
<polygon fill="#63b8ff" stroke="#63b8ff" points="562.01,-141.26 570.25,-134.59 559.65,-134.67 562.01,-141.26"/>
</a>
</g>
</g>
<!-- Node13 -->
<g id="Node000013" class="node">
<title>Node13</title>
<g id="a_Node000013"><a xlink:href="other__textures_8h.html" target="_top" xlink:title=" ">
<polygon fill="white" stroke="#666666" points="405.62,-140 285.62,-140 285.62,-110 405.62,-110 405.62,-140"/>
<text text-anchor="start" x="293.62" y="-128" font-family="Helvetica,sans-Serif" font-size="10.00">assets/textures/other</text>
<text text-anchor="middle" x="345.62" y="-117" font-family="Helvetica,sans-Serif" font-size="10.00">_textures.h</text>
</a>
</g>
</g>
<!-- Node10&#45;&gt;Node13 -->
<g id="edge17_Node000010_Node000013" class="edge">
<title>Node10&#45;&gt;Node13</title>
<g id="a_edge17_Node000010_Node000013"><a xlink:title=" ">
<path fill="none" stroke="#63b8ff" d="M348.39,-230.97C347.94,-214.08 346.93,-175.85 346.26,-150.48"/>
<polygon fill="#63b8ff" stroke="#63b8ff" points="349.75,-150.09 345.99,-140.18 342.76,-150.27 349.75,-150.09"/>
</a>
</g>
</g>
<!-- Node15 -->
<g id="Node000015" class="node">
<title>Node15</title>
<g id="a_Node000015"><a xlink:href="objects_8h.html" target="_top" xlink:title=" ">
<polygon fill="white" stroke="#666666" points="622.12,-195 561.12,-195 561.12,-176 622.12,-176 622.12,-195"/>
<text text-anchor="middle" x="591.62" y="-183" font-family="Helvetica,sans-Serif" font-size="10.00">objects.h</text>
</a>
</g>
</g>
<!-- Node10&#45;&gt;Node15 -->
<g id="edge20_Node000010_Node000015" class="edge">
<title>Node10&#45;&gt;Node15</title>
<g id="a_edge20_Node000010_Node000015"><a xlink:title=" ">
<path fill="none" stroke="#63b8ff" d="M387.66,-230.98C432.44,-221.22 505.5,-205.28 550.95,-195.37"/>
<polygon fill="#63b8ff" stroke="#63b8ff" points="551.74,-198.78 560.77,-193.23 550.25,-191.94 551.74,-198.78"/>
</a>
</g>
</g>
<!-- Node12&#45;&gt;Node9 -->
<g id="edge16_Node000012_Node000009" class="edge">
<title>Node12&#45;&gt;Node9</title>
<g id="a_edge16_Node000012_Node000009"><a xlink:title=" ">
<path fill="none" stroke="#63b8ff" d="M605.49,-115.37C620.62,-105.95 645.08,-90.73 663,-79.58"/>
<polygon fill="#63b8ff" stroke="#63b8ff" points="665.05,-82.42 671.69,-74.17 661.35,-76.48 665.05,-82.42"/>
</a>
</g>
</g>
<!-- Node13&#45;&gt;Node4 -->
<g id="edge18_Node000013_Node000004" class="edge">
<title>Node13&#45;&gt;Node4</title>
<g id="a_edge18_Node000013_Node000004"><a xlink:title=" ">
<path fill="none" stroke="#63b8ff" d="M355.21,-109.97C366.64,-94.31 387.15,-69.3 410.62,-55 442.65,-35.47 483.62,-24.2 515.39,-17.88"/>
<polygon fill="#63b8ff" stroke="#63b8ff" points="516.18,-21.3 525.36,-16 514.88,-14.42 516.18,-21.3"/>
</a>
</g>
</g>
<!-- Node14 -->
<g id="Node000014" class="node">
<title>Node14</title>
<g id="a_Node000014"><a xlink:href="align__asset__macro_8h.html" target="_top" xlink:title=" ">
<polygon fill="white" stroke="#666666" points="537.12,-74 420.12,-74 420.12,-55 537.12,-55 537.12,-74"/>
<text text-anchor="middle" x="478.62" y="-62" font-family="Helvetica,sans-Serif" font-size="10.00">align_asset_macro.h</text>
</a>
</g>
</g>
<!-- Node13&#45;&gt;Node14 -->
<g id="edge19_Node000013_Node000014" class="edge">
<title>Node13&#45;&gt;Node14</title>
<g id="a_edge19_Node000013_Node000014"><a xlink:title=" ">
<path fill="none" stroke="#63b8ff" d="M377.47,-109.99C399.47,-100.31 428.47,-87.56 449.78,-78.18"/>
<polygon fill="#63b8ff" stroke="#63b8ff" points="451.23,-81.37 458.98,-74.14 448.41,-74.96 451.23,-81.37"/>
</a>
</g>
</g>
<!-- Node15&#45;&gt;Node9 -->
<g id="edge22_Node000015_Node000009" class="edge">
<title>Node15&#45;&gt;Node9</title>
<g id="a_edge22_Node000015_Node000009"><a xlink:title=" ">
<path fill="none" stroke="#63b8ff" d="M612.48,-175.97C628.08,-168.6 648.85,-156.52 661.62,-140 674.19,-123.74 680.28,-100.68 683.17,-84.54"/>
<polygon fill="#63b8ff" stroke="#63b8ff" points="686.69,-84.61 684.74,-74.2 679.77,-83.56 686.69,-84.61"/>
</a>
</g>
</g>
<!-- Node15&#45;&gt;Node12 -->
<g id="edge21_Node000015_Node000012" class="edge">
<title>Node15&#45;&gt;Node12</title>
<g id="a_edge21_Node000015_Node000012"><a xlink:title=" ">
<path fill="none" stroke="#63b8ff" d="M591.62,-175.87C591.62,-167.75 591.62,-155.31 591.62,-144.89"/>
<polygon fill="#63b8ff" stroke="#63b8ff" points="595.12,-144.67 591.62,-134.67 588.12,-144.67 595.12,-144.67"/>
</a>
</g>
</g>
<!-- Node16&#45;&gt;Node9 -->
<g id="edge24_Node000016_Node000009" class="edge">
<title>Node16&#45;&gt;Node9</title>
<g id="a_edge24_Node000016_Node000009"><a xlink:title=" ">
<path fill="none" stroke="#63b8ff" d="M494.38,-181.65C531.27,-177.37 587.01,-166.67 627.62,-140 649.49,-125.63 666.64,-100.21 676.45,-83.11"/>
<polygon fill="#63b8ff" stroke="#63b8ff" points="679.62,-84.6 681.36,-74.15 673.48,-81.23 679.62,-84.6"/>
</a>
</g>
</g>
<!-- Node17 -->
<g id="Node000017" class="node">
<title>Node17</title>
<g id="a_Node000017"><a xlink:href="mk64_8h.html" target="_top" xlink:title=" ">
<polygon fill="white" stroke="#666666" points="267.12,-134.5 214.12,-134.5 214.12,-115.5 267.12,-115.5 267.12,-134.5"/>
<text text-anchor="middle" x="240.62" y="-122.5" font-family="Helvetica,sans-Serif" font-size="10.00">mk64.h</text>
</a>
</g>
</g>
<!-- Node16&#45;&gt;Node17 -->
<g id="edge25_Node000016_Node000017" class="edge">
<title>Node16&#45;&gt;Node17</title>
<g id="a_edge25_Node000016_Node000017"><a xlink:title=" ">
<path fill="none" stroke="#63b8ff" d="M416.81,-176.35C380.29,-168.33 324.23,-155.11 276.62,-140 274.75,-139.41 272.83,-138.77 270.91,-138.1"/>
<polygon fill="#63b8ff" stroke="#63b8ff" points="271.99,-134.76 261.4,-134.6 269.57,-141.33 271.99,-134.76"/>
</a>
</g>
</g>
<!-- Node17&#45;&gt;Node4 -->
<g id="edge26_Node000017_Node000004" class="edge">
<title>Node17&#45;&gt;Node4</title>
<g id="a_edge26_Node000017_Node000004"><a xlink:title=" ">
<path fill="none" stroke="#63b8ff" d="M255.72,-115.47C281.47,-101.24 335.81,-72.48 384.62,-55 427.78,-39.54 478.6,-27.56 515.39,-19.95"/>
<polygon fill="#63b8ff" stroke="#63b8ff" points="516.27,-23.34 525.38,-17.92 514.88,-16.48 516.27,-23.34"/>
</a>
</g>
</g>
<!-- Node17&#45;&gt;Node11 -->
<g id="edge29_Node000017_Node000011" class="edge">
<title>Node17&#45;&gt;Node11</title>
<g id="a_edge29_Node000017_Node000011"><a xlink:title=" ">
<path fill="none" stroke="#63b8ff" d="M236.78,-115.37C233.05,-106.99 227.29,-94.01 222.57,-83.39"/>
<polygon fill="#63b8ff" stroke="#63b8ff" points="225.73,-81.88 218.47,-74.17 219.33,-84.73 225.73,-81.88"/>
</a>
</g>
</g>
<!-- Node18 -->
<g id="Node000018" class="node">
<title>Node18</title>
<g id="a_Node000018"><a xlink:href="string_8h.html" target="_top" xlink:title=" ">
<polygon fill="white" stroke="#666666" points="325.12,-74 272.12,-74 272.12,-55 325.12,-55 325.12,-74"/>
<text text-anchor="middle" x="298.62" y="-62" font-family="Helvetica,sans-Serif" font-size="10.00">string.h</text>
</a>
</g>
</g>
<!-- Node17&#45;&gt;Node18 -->
<g id="edge27_Node000017_Node000018" class="edge">
<title>Node17&#45;&gt;Node18</title>
<g id="a_edge27_Node000017_Node000018"><a xlink:title=" ">
<path fill="none" stroke="#63b8ff" d="M249.17,-115.37C258,-106.47 271.96,-92.39 282.8,-81.45"/>
<polygon fill="#63b8ff" stroke="#63b8ff" points="285.47,-83.73 290.02,-74.17 280.5,-78.8 285.47,-83.73"/>
</a>
</g>
</g>
<!-- Node19 -->
<g id="Node000019" class="node">
<title>Node19</title>
<g id="a_Node000019"><a xlink:title=" ">
<polygon fill="#e0e0e0" stroke="#999999" points="343.62,-19 253.62,-19 253.62,0 343.62,0 343.62,-19"/>
<text text-anchor="middle" x="298.62" y="-7" font-family="Helvetica,sans-Serif" font-size="10.00">libultra/types.h</text>
</a>
</g>
</g>
<!-- Node18&#45;&gt;Node19 -->
<g id="edge28_Node000018_Node000019" class="edge">
<title>Node18&#45;&gt;Node19</title>
<g id="a_edge28_Node000018_Node000019"><a xlink:title=" ">
<path fill="none" stroke="#63b8ff" d="M298.62,-54.75C298.62,-47.8 298.62,-37.85 298.62,-29.13"/>
<polygon fill="#63b8ff" stroke="#63b8ff" points="302.12,-29.09 298.62,-19.09 295.12,-29.09 302.12,-29.09"/>
</a>
</g>
</g>
<!-- Node20&#45;&gt;Node9 -->
<g id="edge33_Node000020_Node000009" class="edge">
<title>Node20&#45;&gt;Node9</title>
<g id="a_edge33_Node000020_Node000009"><a xlink:title=" ">
<path fill="none" stroke="#63b8ff" d="M558.87,-230.89C598.52,-218.5 662.13,-191.27 683.62,-140 691.1,-122.14 690.52,-99.7 688.74,-84.14"/>
<polygon fill="#63b8ff" stroke="#63b8ff" points="692.2,-83.6 687.34,-74.19 685.27,-84.58 692.2,-83.6"/>
</a>
</g>
</g>
<!-- Node20&#45;&gt;Node16 -->
<g id="edge39_Node000020_Node000016" class="edge">
<title>Node20&#45;&gt;Node16</title>
<g id="a_edge39_Node000020_Node000016"><a xlink:title=" ">
<path fill="none" stroke="#63b8ff" d="M514.37,-230.98C503.82,-223 487.82,-210.88 475.17,-201.31"/>
<polygon fill="#63b8ff" stroke="#63b8ff" points="477.15,-198.42 467.07,-195.17 472.93,-204 477.15,-198.42"/>
</a>
</g>
</g>
<!-- Node20&#45;&gt;Node21 -->
<g id="edge31_Node000020_Node000021" class="edge">
<title>Node20&#45;&gt;Node21</title>
<g id="a_edge31_Node000020_Node000021"><a xlink:title=" ">
<path fill="none" stroke="#63b8ff" d="M559.04,-230.98C594.56,-221.93 650.89,-207.58 689.92,-197.64"/>
<polygon fill="#63b8ff" stroke="#63b8ff" points="691.11,-200.94 699.94,-195.08 689.38,-194.16 691.11,-200.94"/>
</a>
</g>
</g>
<!-- Node22 -->
<g id="Node000022" class="node">
<title>Node22</title>
<g id="a_Node000022"><a xlink:href="other_2common__data_8h.html" target="_top" xlink:title=" ">
<polygon fill="white" stroke="#666666" points="545.62,-140 423.62,-140 423.62,-110 545.62,-110 545.62,-140"/>
<text text-anchor="start" x="431.62" y="-128" font-family="Helvetica,sans-Serif" font-size="10.00">assets/other/common</text>
<text text-anchor="middle" x="484.62" y="-117" font-family="Helvetica,sans-Serif" font-size="10.00">_data.h</text>
</a>
</g>
</g>
<!-- Node20&#45;&gt;Node22 -->
<g id="edge34_Node000020_Node000022" class="edge">
<title>Node20&#45;&gt;Node22</title>
<g id="a_edge34_Node000020_Node000022"><a xlink:title=" ">
<path fill="none" stroke="#63b8ff" d="M522.53,-230.97C516.38,-213.93 502.37,-175.16 493.22,-149.8"/>
<polygon fill="#63b8ff" stroke="#63b8ff" points="496.43,-148.4 489.74,-140.18 489.84,-150.78 496.43,-148.4"/>
</a>
</g>
</g>
<!-- Node21&#45;&gt;Node9 -->
<g id="edge32_Node000021_Node000009" class="edge">
<title>Node21&#45;&gt;Node9</title>
<g id="a_edge32_Node000021_Node000009"><a xlink:title=" ">
<path fill="none" stroke="#63b8ff" d="M736.61,-175.74C741.01,-161.3 747.69,-131.88 737.62,-110 731.87,-97.52 720.71,-87.24 710.19,-79.71"/>
<polygon fill="#63b8ff" stroke="#63b8ff" points="711.92,-76.65 701.65,-74.05 708.05,-82.49 711.92,-76.65"/>
</a>
</g>
</g>
<!-- Node22&#45;&gt;Node4 -->
<g id="edge36_Node000022_Node000004" class="edge">
<title>Node22&#45;&gt;Node4</title>
<g id="a_edge36_Node000022_Node000004"><a xlink:title=" ">
<path fill="none" stroke="#63b8ff" d="M507.75,-109.89C520.55,-101.02 535.8,-88.52 545.62,-74 554.72,-60.54 559.86,-42.7 562.64,-29.36"/>
<polygon fill="#63b8ff" stroke="#63b8ff" points="566.1,-29.88 564.46,-19.41 559.22,-28.62 566.1,-29.88"/>
</a>
</g>
</g>
<!-- Node22&#45;&gt;Node9 -->
<g id="edge37_Node000022_Node000009" class="edge">
<title>Node22&#45;&gt;Node9</title>
<g id="a_edge37_Node000022_Node000009"><a xlink:title=" ">
<path fill="none" stroke="#63b8ff" d="M532.76,-109.99C567.6,-99.85 614.08,-86.32 646.61,-76.85"/>
<polygon fill="#63b8ff" stroke="#63b8ff" points="647.6,-80.21 656.23,-74.05 645.65,-73.49 647.6,-80.21"/>
</a>
</g>
</g>
<!-- Node22&#45;&gt;Node11 -->
<g id="edge35_Node000022_Node000011" class="edge">
<title>Node22&#45;&gt;Node11</title>
<g id="a_edge35_Node000022_Node000011"><a xlink:title=" ">
<path fill="none" stroke="#63b8ff" d="M423.35,-110.73C375.04,-100.26 308.55,-85.85 263.7,-76.14"/>
<polygon fill="#63b8ff" stroke="#63b8ff" points="264.43,-72.71 253.92,-74.02 262.95,-79.55 264.43,-72.71"/>
</a>
</g>
</g>
<!-- Node22&#45;&gt;Node14 -->
<g id="edge38_Node000022_Node000014" class="edge">
<title>Node22&#45;&gt;Node14</title>
<g id="a_edge38_Node000022_Node000014"><a xlink:title=" ">
<path fill="none" stroke="#63b8ff" d="M483.16,-109.84C482.38,-102.21 481.41,-92.7 480.56,-84.45"/>
<polygon fill="#63b8ff" stroke="#63b8ff" points="484.02,-83.86 479.52,-74.27 477.05,-84.57 484.02,-83.86"/>
</a>
</g>
</g>
<!-- Node24&#45;&gt;Node4 -->
<g id="edge47_Node000024_Node000004" class="edge">
<title>Node24&#45;&gt;Node4</title>
<g id="a_edge47_Node000024_Node000004"><a xlink:title=" ">
<path fill="none" stroke="#63b8ff" d="M967.43,-175.7C954.79,-160.66 927.2,-129.73 898.62,-110 810.65,-49.28 684.96,-24.95 615.89,-15.72"/>
<polygon fill="#63b8ff" stroke="#63b8ff" points="616.07,-12.22 605.71,-14.42 615.18,-19.16 616.07,-12.22"/>
</a>
</g>
</g>
<!-- Node24&#45;&gt;Node8 -->
<g id="edge53_Node000024_Node000008" class="edge">
<title>Node24&#45;&gt;Node8</title>
<g id="a_edge53_Node000024_Node000008"><a xlink:title=" ">
<path fill="none" stroke="#63b8ff" d="M957.5,-175.87C938.4,-166.23 907.25,-150.53 885.02,-139.31"/>
<polygon fill="#63b8ff" stroke="#63b8ff" points="886.31,-136.05 875.8,-134.67 883.16,-142.3 886.31,-136.05"/>
</a>
</g>
</g>
<!-- Node25 -->
<g id="Node000025" class="node">
<title>Node25</title>
<g id="a_Node000025"><a xlink:href="macros_8h.html" target="_top" xlink:title=" ">
<polygon fill="white" stroke="#666666" points="1095.62,-74 1033.62,-74 1033.62,-55 1095.62,-55 1095.62,-74"/>
<text text-anchor="middle" x="1064.62" y="-62" font-family="Helvetica,sans-Serif" font-size="10.00">macros.h</text>
</a>
</g>
</g>
<!-- Node24&#45;&gt;Node25 -->
<g id="edge44_Node000024_Node000025" class="edge">
<title>Node24&#45;&gt;Node25</title>
<g id="a_edge44_Node000024_Node000025"><a xlink:title=" ">
<path fill="none" stroke="#63b8ff" d="M992.71,-175.94C1007.01,-168.33 1026.5,-155.95 1038.62,-140 1051.15,-123.5 1057.95,-100.48 1061.42,-84.41"/>
<polygon fill="#63b8ff" stroke="#63b8ff" points="1064.94,-84.62 1063.38,-74.14 1058.07,-83.3 1064.94,-84.62"/>
</a>
</g>
</g>
<!-- Node24&#45;&gt;Node27 -->
<g id="edge48_Node000024_Node000027" class="edge">
<title>Node24&#45;&gt;Node27</title>
<g id="a_edge48_Node000024_Node000027"><a xlink:title=" ">
<path fill="none" stroke="#63b8ff" d="M976.53,-175.87C978.36,-167.66 981.16,-155.04 983.49,-144.55"/>
<polygon fill="#63b8ff" stroke="#63b8ff" points="986.94,-145.19 985.69,-134.67 980.1,-143.67 986.94,-145.19"/>
</a>
</g>
</g>
<!-- Node25&#45;&gt;Node4 -->
<g id="edge46_Node000025_Node000004" class="edge">
<title>Node25&#45;&gt;Node4</title>
<g id="a_edge46_Node000025_Node000004"><a xlink:title=" ">
<path fill="none" stroke="#63b8ff" d="M1033.24,-56.48C1030.33,-55.94 1027.42,-55.43 1024.62,-55 876.88,-32.22 700.48,-19 615.82,-13.51"/>
<polygon fill="#63b8ff" stroke="#63b8ff" points="615.92,-10.01 605.71,-12.86 615.47,-16.99 615.92,-10.01"/>
</a>
</g>
</g>
<!-- Node26 -->
<g id="Node000026" class="node">
<title>Node26</title>
<g id="a_Node000026"><a xlink:href="math_8h.html" target="_top" xlink:title=" ">
<polygon fill="white" stroke="#666666" points="1090.12,-19 1039.12,-19 1039.12,0 1090.12,0 1090.12,-19"/>
<text text-anchor="middle" x="1064.62" y="-7" font-family="Helvetica,sans-Serif" font-size="10.00">math.h</text>
</a>
</g>
</g>
<!-- Node25&#45;&gt;Node26 -->
<g id="edge45_Node000025_Node000026" class="edge">
<title>Node25&#45;&gt;Node26</title>
<g id="a_edge45_Node000025_Node000026"><a xlink:title=" ">
<path fill="none" stroke="#63b8ff" d="M1064.62,-54.75C1064.62,-47.8 1064.62,-37.85 1064.62,-29.13"/>
<polygon fill="#63b8ff" stroke="#63b8ff" points="1068.12,-29.09 1064.62,-19.09 1061.12,-29.09 1068.12,-29.09"/>
</a>
</g>
</g>
<!-- Node27&#45;&gt;Node4 -->
<g id="edge49_Node000027_Node000004" class="edge">
<title>Node27&#45;&gt;Node4</title>
<g id="a_edge49_Node000027_Node000004"><a xlink:title=" ">
<path fill="none" stroke="#63b8ff" d="M980.75,-115.44C968.09,-100.34 939.43,-69.23 907.62,-55 856.58,-32.17 697.99,-18.97 615.93,-13.5"/>
<polygon fill="#63b8ff" stroke="#63b8ff" points="616.05,-10 605.84,-12.84 615.59,-16.98 616.05,-10"/>
</a>
</g>
</g>
<!-- Node27&#45;&gt;Node9 -->
<g id="edge51_Node000027_Node000009" class="edge">
<title>Node27&#45;&gt;Node9</title>
<g id="a_edge51_Node000027_Node000009"><a xlink:title=" ">
<path fill="none" stroke="#63b8ff" d="M945.94,-115.93C892.25,-105.53 798.82,-87.43 739.7,-75.98"/>
<polygon fill="#63b8ff" stroke="#63b8ff" points="740.29,-72.53 729.8,-74.06 738.96,-79.4 740.29,-72.53"/>
</a>
</g>
</g>
<!-- Node27&#45;&gt;Node25 -->
<g id="edge50_Node000027_Node000025" class="edge">
<title>Node27&#45;&gt;Node25</title>
<g id="a_edge50_Node000027_Node000025"><a xlink:title=" ">
<path fill="none" stroke="#63b8ff" d="M998.98,-115.37C1011.03,-106.21 1030.31,-91.56 1044.87,-80.51"/>
<polygon fill="#63b8ff" stroke="#63b8ff" points="1047.36,-83 1053.21,-74.17 1043.13,-77.43 1047.36,-83"/>
</a>
</g>
</g>
<!-- Node28 -->
<g id="Node000028" class="node">
<title>Node28</title>
<g id="a_Node000028"><a xlink:title=" ">
<polygon fill="#e0e0e0" stroke="#999999" points="1015.62,-74 959.62,-74 959.62,-55 1015.62,-55 1015.62,-74"/>
<text text-anchor="middle" x="987.62" y="-62" font-family="Helvetica,sans-Serif" font-size="10.00">assert.h</text>
</a>
</g>
</g>
<!-- Node27&#45;&gt;Node28 -->
<g id="edge52_Node000027_Node000028" class="edge">
<title>Node27&#45;&gt;Node28</title>
<g id="a_edge52_Node000027_Node000028"><a xlink:title=" ">
<path fill="none" stroke="#63b8ff" d="M987.62,-115.37C987.62,-107.25 987.62,-94.81 987.62,-84.39"/>
<polygon fill="#63b8ff" stroke="#63b8ff" points="991.12,-84.17 987.62,-74.17 984.12,-84.17 991.12,-84.17"/>
</a>
</g>
</g>
<!-- Node29&#45;&gt;Node4 -->
<g id="edge55_Node000029_Node000004" class="edge">
<title>Node29&#45;&gt;Node4</title>
<g id="a_edge55_Node000029_Node000004"><a xlink:title=" ">
<path fill="none" stroke="#63b8ff" d="M71.99,-115.37C81.99,-100.14 105.07,-68.84 133.62,-55 167.31,-38.67 408.8,-20.89 515.34,-13.74"/>
<polygon fill="#63b8ff" stroke="#63b8ff" points="515.77,-17.22 525.52,-13.06 515.31,-10.24 515.77,-17.22"/>
</a>
</g>
</g>
<!-- Node29&#45;&gt;Node6 -->
<g id="edge57_Node000029_Node000006" class="edge">
<title>Node29&#45;&gt;Node6</title>
<g id="a_edge57_Node000029_Node000006"><a xlink:title=" ">
<path fill="none" stroke="#63b8ff" d="M63.37,-115.37C60.25,-107.07 55.44,-94.28 51.47,-83.72"/>
<polygon fill="#63b8ff" stroke="#63b8ff" points="54.67,-82.3 47.88,-74.17 48.12,-84.76 54.67,-82.3"/>
</a>
</g>
</g>
<!-- Node29&#45;&gt;Node9 -->
<g id="edge58_Node000029_Node000009" class="edge">
<title>Node29&#45;&gt;Node9</title>
<g id="a_edge58_Node000029_Node000009"><a xlink:title=" ">
<path fill="none" stroke="#63b8ff" d="M119.69,-118.51C145.34,-115.88 176.57,-112.72 204.62,-110 354.06,-95.51 529.74,-79.52 621.86,-71.22"/>
<polygon fill="#63b8ff" stroke="#63b8ff" points="622.21,-74.7 631.86,-70.32 621.59,-67.73 622.21,-74.7"/>
</a>
</g>
</g>
<!-- Node29&#45;&gt;Node11 -->
<g id="edge56_Node000029_Node000011" class="edge">
<title>Node29&#45;&gt;Node11</title>
<g id="a_edge56_Node000029_Node000011"><a xlink:title=" ">
<path fill="none" stroke="#63b8ff" d="M88.14,-115.49C113.24,-105.57 154.93,-89.09 183.54,-77.78"/>
<polygon fill="#63b8ff" stroke="#63b8ff" points="185.06,-80.95 193.07,-74.02 182.48,-74.44 185.06,-80.95"/>
</a>
</g>
</g>
</g>
</svg>

<g id="navigator" transform="translate(0 0)" fill="#404254">
  <rect fill="#f2f5e9" fill-opacity="0.5" stroke="#606060" stroke-width=".5" x="0" y="0" width="60" height="60"/>
  <use id="zoomplus" xlink:href="#zoomPlus" x="17" y="9" onmousedown="handleZoom(evt,'in')"/>
  <use id="zoomminus" xlink:href="#zoomMin" x="42" y="9" onmousedown="handleZoom(evt,'out')"/>
  <use id="reset" xlink:href="#resetDef" x="30" y="36" onmousedown="handleReset()"/>
   <use id="arrowup" xlink:href="#arrowUp" x="0" y="0" onmousedown="handlePan(0,-1)"/>
  <use id="arrowright" xlink:href="#arrowRight" x="0" y="0" onmousedown="handlePan(1,0)"/>
  <use id="arrowdown" xlink:href="#arrowDown" x="0" y="0" onmousedown="handlePan(0,1)"/>
  <use id="arrowleft" xlink:href="#arrowLeft" x="0" y="0" onmousedown="handlePan(-1,0)"/>
</g>
<svg viewBox="0 0 15 15" width="100%" height="30px" preserveAspectRatio="xMaxYMin meet">
 <g id="arrow_out" transform="scale(0.3 0.3)">
  <a xlink:href="Properties_8h__incl_org.svg" target="_base">
   <rect id="button" ry="5" rx="5" y="6" x="6" height="38" width="38"
        fill="#f2f5e9" fill-opacity="0.5" stroke="#606060" stroke-width="1.0"/>
   <path id="arrow"
     d="M 11.500037,31.436501 C 11.940474,20.09759 22.043105,11.32322 32.158766,21.979434 L 37.068811,17.246167 C 37.068811,17.246167 37.088388,32 37.088388,32 L 22.160133,31.978069 C 22.160133,31.978069 26.997745,27.140456 26.997745,27.140456 C 18.528582,18.264221 13.291696,25.230495 11.500037,31.436501 z"
     style="fill:#404040;"/>
  </a>
 </g>
</svg>

<style type='text/css'>
<![CDATA[
[data-mouse-over-selected='false'] { opacity: 0.7; }
[data-mouse-over-selected='true']  { opacity: 1.0; }
]]>
</style>
<script type="application/ecmascript"><![CDATA[
document.addEventListener('DOMContentLoaded', (event) => {
  highlightEdges();
  highlightAdjacentNodes();
});
]]></script>
</svg>
