<?xml version="1.0" encoding="UTF-8" standalone="no"?>
<!DOCTYPE svg PUBLIC "-//W3C//DTD SVG 1.1//EN"
 "http://www.w3.org/Graphics/SVG/1.1/DTD/svg11.dtd">
<!-- Generated by graphviz version 2.43.0 (0)
 -->
<!-- Title: render_kart Pages: 1 -->
<!--zoomable 526 -->

<svg id="main" version="1.1" xmlns="http://www.w3.org/2000/svg" xmlns:xlink="http://www.w3.org/1999/xlink" xml:space="preserve" onload="init(evt)">

<style type="text/css"><![CDATA[
.node, .edge {opacity: 0.7;}
.node.selected, .edge.selected {opacity: 1;}
.edge:hover path { stroke: red; }
.edge:hover polygon { stroke: red; fill: red; }
]]></style>

<defs>
  <circle id="rim" cx="0" cy="0" r="7"/>
  <circle id="rim2" cx="0" cy="0" r="3.5"/>
  <g id="zoomPlus">
    <use xlink:href="#rim" fill="#404040"><set attributeName="fill" to="#808080" begin="zoomplus.mouseover" end="zoomplus.mouseout"/></use>
    <path d="M-4,0h8M0,-4v8" fill="none" stroke="white" stroke-width="1.5" pointer-events="none"/>
  </g>
  <g id="zoomMin">
    <use xlink:href="#rim" fill="#404040"><set attributeName="fill" to="#808080" begin="zoomminus.mouseover" end="zoomminus.mouseout"/></use>
    <path d="M-4,0h8" fill="none" stroke="white" stroke-width="1.5" pointer-events="none"/>
  </g>
  <g id="arrowUp" transform="translate(30 24)">
    <use xlink:href="#rim"/>
    <path pointer-events="none" fill="none" stroke="white" stroke-width="1.5" d="M0,-3.0v7 M-2.5,-0.5L0,-3.0L2.5,-0.5"/>
  </g>
  <g id="arrowRight" transform="rotate(90) translate(36 -43)">
    <use xlink:href="#rim"/>
    <path pointer-events="none" fill="none" stroke="white" stroke-width="1.5" d="M0,-3.0v7 M-2.5,-0.5L0,-3.0L2.5,-0.5"/>
  </g>
  <g id="arrowDown" transform="rotate(180) translate(-30 -48)">
    <use xlink:href="#rim"/>
    <path pointer-events="none" fill="none" stroke="white" stroke-width="1.5" d="M0,-3.0v7 M-2.5,-0.5L0,-3.0L2.5,-0.5"/>
  </g>
  <g id="arrowLeft" transform="rotate(270) translate(-36 17)">
    <use xlink:href="#rim"/>
    <path pointer-events="none" fill="none" stroke="white" stroke-width="1.5" d="M0,-3.0v7 M-2.5,-0.5L0,-3.0L2.5,-0.5"/>
  </g>
  <g id="resetDef">
    <use xlink:href="#rim2" fill="#404040"><set attributeName="fill" to="#808080" begin="reset.mouseover" end="reset.mouseout"/></use>
  </g>
</defs>
<script type="application/ecmascript">
var viewWidth = 572;
var viewHeight = 526;
var sectionId = 'dynsection-45';
</script>
<script type="application/ecmascript" xlink:href="svg.min.js"/>
<svg id="graph" class="graph">
<g id="viewport">
<title>render_kart</title>
<!-- Node1 -->
<g id="Node000001" class="node">
<title>Node1</title>
<g id="a_Node000001"><a xlink:title=" ">
<polygon fill="#999999" stroke="#666666" points="72,-224 0,-224 0,-205 72,-205 72,-224"/>
<text text-anchor="middle" x="36" y="-212" font-family="Helvetica,sans-Serif" font-size="10.00">render_kart</text>
</a>
</g>
</g>
<!-- Node2 -->
<g id="Node000002" class="node">
<title>Node2</title>
<g id="a_Node000002"><a xlink:href="render__player_8c.html#ab7bf9484e155990f138e03ae5339fc84" target="_top" xlink:title=" ">
<polygon fill="white" stroke="#666666" points="235,-474.5 108,-474.5 108,-444.5 235,-444.5 235,-474.5"/>
<text text-anchor="start" x="116" y="-462.5" font-family="Helvetica,sans-Serif" font-size="10.00">convert_to_fixed_point</text>
<text text-anchor="middle" x="171.5" y="-451.5" font-family="Helvetica,sans-Serif" font-size="10.00">_matrix</text>
</a>
</g>
</g>
<!-- Node1&#45;&gt;Node2 -->
<g id="edge1_Node000001_Node000002" class="edge">
<title>Node1&#45;&gt;Node2</title>
<g id="a_edge1_Node000001_Node000002"><a xlink:title=" ">
<path fill="none" stroke="#63b8ff" d="M37.63,-224.32C40.24,-257.21 52.8,-364.97 108,-428.5 111.39,-432.4 115.38,-435.86 119.69,-438.92"/>
<polygon fill="#63b8ff" stroke="#63b8ff" points="117.94,-441.96 128.27,-444.32 121.67,-436.03 117.94,-441.96"/>
</a>
</g>
</g>
<!-- Node6 -->
<g id="Node000006" class="node">
<title>Node6</title>
<g id="a_Node000006"><a xlink:href="FrameInterpolation_8cpp.html#a3a036bc9d533e28a4e9697cd20dccf3e" target="_top" xlink:title=" ">
<polygon fill="white" stroke="#666666" points="400.5,-383.5 290.5,-383.5 290.5,-353.5 400.5,-353.5 400.5,-383.5"/>
<text text-anchor="start" x="298.5" y="-371.5" font-family="Helvetica,sans-Serif" font-size="10.00">FrameInterpolation</text>
<text text-anchor="middle" x="345.5" y="-360.5" font-family="Helvetica,sans-Serif" font-size="10.00">_RecordCloseChild</text>
</a>
</g>
</g>
<!-- Node1&#45;&gt;Node6 -->
<g id="edge5_Node000001_Node000006" class="edge">
<title>Node1&#45;&gt;Node6</title>
<g id="a_edge5_Node000001_Node000006"><a xlink:title=" ">
<path fill="none" stroke="#63b8ff" d="M40.62,-224.07C49,-244.88 71.85,-294.29 108,-318.5 159.22,-352.8 229.52,-364.2 280.14,-367.69"/>
<polygon fill="#63b8ff" stroke="#63b8ff" points="280.12,-371.19 290.31,-368.3 280.54,-364.2 280.12,-371.19"/>
</a>
</g>
</g>
<!-- Node7 -->
<g id="Node000007" class="node">
<title>Node7</title>
<g id="a_Node000007"><a xlink:href="FrameInterpolation_8cpp.html#a0eda726b74eac815af4e874014e2727c" target="_top" xlink:title=" ">
<polygon fill="white" stroke="#666666" points="400.5,-335.5 290.5,-335.5 290.5,-305.5 400.5,-305.5 400.5,-335.5"/>
<text text-anchor="start" x="298.5" y="-323.5" font-family="Helvetica,sans-Serif" font-size="10.00">FrameInterpolation</text>
<text text-anchor="middle" x="345.5" y="-312.5" font-family="Helvetica,sans-Serif" font-size="10.00">_RecordOpenChild</text>
</a>
</g>
</g>
<!-- Node1&#45;&gt;Node7 -->
<g id="edge7_Node000001_Node000007" class="edge">
<title>Node1&#45;&gt;Node7</title>
<g id="a_edge7_Node000001_Node000007"><a xlink:title=" ">
<path fill="none" stroke="#63b8ff" d="M42.84,-224.06C53.5,-240.56 77.81,-274.11 108,-289.5 161.56,-316.81 230.43,-323.11 280.02,-323.46"/>
<polygon fill="#63b8ff" stroke="#63b8ff" points="280.3,-326.96 290.29,-323.44 280.29,-319.96 280.3,-326.96"/>
</a>
</g>
</g>
<!-- Node8 -->
<g id="Node000008" class="node">
<title>Node8</title>
<g id="a_Node000008"><a xlink:href="render__objects_8c.html#a3412bd1100bae2a7228c53d260c4c5c5" target="_top" xlink:title=" ">
<polygon fill="white" stroke="#666666" points="217.5,-167 125.5,-167 125.5,-148 217.5,-148 217.5,-167"/>
<text text-anchor="middle" x="171.5" y="-155" font-family="Helvetica,sans-Serif" font-size="10.00">func_8004B614</text>
</a>
</g>
</g>
<!-- Node1&#45;&gt;Node8 -->
<g id="edge9_Node000001_Node000008" class="edge">
<title>Node1&#45;&gt;Node8</title>
<g id="a_edge9_Node000001_Node000008"><a xlink:title=" ">
<path fill="none" stroke="#63b8ff" d="M56.73,-204.89C70.89,-198.1 90.48,-188.93 108,-181.5 116.72,-177.8 126.23,-174.03 135.13,-170.6"/>
<polygon fill="#63b8ff" stroke="#63b8ff" points="136.39,-173.86 144.49,-167.03 133.9,-167.32 136.39,-173.86"/>
</a>
</g>
</g>
<!-- Node9 -->
<g id="Node000009" class="node">
<title>Node9</title>
<g id="a_Node000009"><a xlink:href="code__80057C60_8c.html#a156481baa44e5305c016e2902a91bbb1" target="_top" xlink:title=" ">
<polygon fill="white" stroke="#666666" points="217.5,-243 125.5,-243 125.5,-224 217.5,-224 217.5,-243"/>
<text text-anchor="middle" x="171.5" y="-231" font-family="Helvetica,sans-Serif" font-size="10.00">func_80062B18</text>
</a>
</g>
</g>
<!-- Node1&#45;&gt;Node9 -->
<g id="edge10_Node000001_Node000009" class="edge">
<title>Node1&#45;&gt;Node9</title>
<g id="a_edge10_Node000001_Node000009"><a xlink:title=" ">
<path fill="none" stroke="#63b8ff" d="M72.08,-219.49C85.26,-221.37 100.58,-223.55 115.16,-225.62"/>
<polygon fill="#63b8ff" stroke="#63b8ff" points="114.71,-229.09 125.1,-227.04 115.69,-222.16 114.71,-229.09"/>
</a>
</g>
</g>
<!-- Node11 -->
<g id="Node000011" class="node">
<title>Node11</title>
<g id="a_Node000011"><a xlink:href="math__util_8c.html#a19ed3bd78fd2d3e2bd0a29f6caf48545" target="_top" xlink:title=" ">
<polygon fill="white" stroke="#666666" points="363.5,-202 327.5,-202 327.5,-183 363.5,-183 363.5,-202"/>
<text text-anchor="middle" x="345.5" y="-190" font-family="Helvetica,sans-Serif" font-size="10.00">sins</text>
</a>
</g>
</g>
<!-- Node1&#45;&gt;Node11 -->
<g id="edge28_Node000001_Node000011" class="edge">
<title>Node1&#45;&gt;Node11</title>
<g id="a_edge28_Node000001_Node000011"><a xlink:title=" ">
<path fill="none" stroke="#63b8ff" d="M72.27,-211.98C134.24,-207.54 261.36,-198.45 317.19,-194.45"/>
<polygon fill="#63b8ff" stroke="#63b8ff" points="317.64,-197.93 327.36,-193.73 317.14,-190.95 317.64,-197.93"/>
</a>
</g>
</g>
<!-- Node12 -->
<g id="Node000012" class="node">
<title>Node12</title>
<g id="a_Node000012"><a xlink:href="Matrix_8cpp.html#af805a31a5c4552d53503ad9a2b228896" target="_top" xlink:title=" ">
<polygon fill="white" stroke="#666666" points="214.5,-130 128.5,-130 128.5,-111 214.5,-111 214.5,-130"/>
<text text-anchor="middle" x="171.5" y="-118" font-family="Helvetica,sans-Serif" font-size="10.00">GetKartMatrix</text>
</a>
</g>
</g>
<!-- Node1&#45;&gt;Node12 -->
<g id="edge13_Node000001_Node000012" class="edge">
<title>Node1&#45;&gt;Node12</title>
<g id="a_edge13_Node000001_Node000012"><a xlink:title=" ">
<path fill="none" stroke="#63b8ff" d="M43.48,-204.94C54.74,-189.03 79.49,-157.14 108,-139.5 111.38,-137.41 115,-135.54 118.73,-133.86"/>
<polygon fill="#63b8ff" stroke="#63b8ff" points="120.19,-137.05 128.18,-130.09 117.6,-130.55 120.19,-137.05"/>
</a>
</g>
</g>
<!-- Node13 -->
<g id="Node000013" class="node">
<title>Node13</title>
<g id="a_Node000013"><a xlink:href="GBIMiddleware_8cpp.html#a4ecc44e3c6f1ca5a6b4a20c41d3bd2d2" target="_top" xlink:title=" ">
<polygon fill="white" stroke="#666666" points="216,-93 127,-93 127,-74 216,-74 216,-93"/>
<text text-anchor="middle" x="171.5" y="-81" font-family="Helvetica,sans-Serif" font-size="10.00">gSPDisplayList</text>
</a>
</g>
</g>
<!-- Node1&#45;&gt;Node13 -->
<g id="edge14_Node000001_Node000013" class="edge">
<title>Node1&#45;&gt;Node13</title>
<g id="a_edge14_Node000001_Node000013"><a xlink:title=" ">
<path fill="none" stroke="#63b8ff" d="M40.45,-204.77C48.63,-183.06 71.36,-130.38 108,-102.5 110.97,-100.24 114.22,-98.24 117.61,-96.49"/>
<polygon fill="#63b8ff" stroke="#63b8ff" points="119.15,-99.63 126.86,-92.36 116.3,-93.23 119.15,-99.63"/>
</a>
</g>
</g>
<!-- Node16 -->
<g id="Node000016" class="node">
<title>Node16</title>
<g id="a_Node000016"><a xlink:href="GBIMiddleware_8cpp.html#aeef79449a27a710d73576e4a4f7f7f99" target="_top" xlink:title=" ">
<polygon fill="white" stroke="#666666" points="204.5,-56 138.5,-56 138.5,-37 204.5,-37 204.5,-56"/>
<text text-anchor="middle" x="171.5" y="-44" font-family="Helvetica,sans-Serif" font-size="10.00">gSPVertex</text>
</a>
</g>
</g>
<!-- Node1&#45;&gt;Node16 -->
<g id="edge17_Node000001_Node000016" class="edge">
<title>Node1&#45;&gt;Node16</title>
<g id="a_edge17_Node000001_Node000016"><a xlink:title=" ">
<path fill="none" stroke="#63b8ff" d="M38.74,-204.75C44.01,-178.08 62.34,-103.32 108,-64.5 113.92,-59.47 121.18,-55.84 128.62,-53.22"/>
<polygon fill="#63b8ff" stroke="#63b8ff" points="129.82,-56.52 138.42,-50.34 127.84,-49.8 129.82,-56.52"/>
</a>
</g>
</g>
<!-- Node17 -->
<g id="Node000017" class="node">
<title>Node17</title>
<g id="a_Node000017"><a xlink:href="kart__dma_8c.html#aac244fa71146e9abe9ee94f82ef2e932" target="_top" xlink:title="Place DMA mio0 compressed character textures in a buffer. Later, this data becomes decompressed.">
<polygon fill="white" stroke="#666666" points="222.5,-19 120.5,-19 120.5,0 222.5,0 222.5,-19"/>
<text text-anchor="middle" x="171.5" y="-7" font-family="Helvetica,sans-Serif" font-size="10.00">load_kart_texture</text>
</a>
</g>
</g>
<!-- Node1&#45;&gt;Node17 -->
<g id="edge19_Node000001_Node000017" class="edge">
<title>Node1&#45;&gt;Node17</title>
<g id="a_edge19_Node000001_Node000017"><a xlink:title=" ">
<path fill="none" stroke="#63b8ff" d="M37.73,-204.69C40.57,-173.79 53.59,-77.6 108,-27.5 109.28,-26.32 110.64,-25.21 112.06,-24.18"/>
<polygon fill="#63b8ff" stroke="#63b8ff" points="113.93,-27.14 120.73,-19.01 110.35,-21.12 113.93,-27.14"/>
</a>
</g>
</g>
<!-- Node18 -->
<g id="Node000018" class="node">
<title>Node18</title>
<g id="a_Node000018"><a xlink:href="math__util_8c.html#aca95a220db79fe028b35270f35a4a7b3" target="_top" xlink:title=" ">
<polygon fill="white" stroke="#666666" points="207,-419 136,-419 136,-400 207,-400 207,-419"/>
<text text-anchor="middle" x="171.5" y="-407" font-family="Helvetica,sans-Serif" font-size="10.00">mtxf_scale</text>
</a>
</g>
</g>
<!-- Node1&#45;&gt;Node18 -->
<g id="edge20_Node000001_Node000018" class="edge">
<title>Node1&#45;&gt;Node18</title>
<g id="a_edge20_Node000001_Node000018"><a xlink:title=" ">
<path fill="none" stroke="#63b8ff" d="M38.83,-224.21C44.46,-251.59 63.83,-330.48 108,-377.5 114.94,-384.89 123.96,-390.85 132.98,-395.53"/>
<polygon fill="#63b8ff" stroke="#63b8ff" points="131.76,-398.83 142.29,-399.96 134.77,-392.51 131.76,-398.83"/>
</a>
</g>
</g>
<!-- Node20 -->
<g id="Node000020" class="node">
<title>Node20</title>
<g id="a_Node000020"><a xlink:href="render__player_8c.html#a565e21fd6aa0dacea58fb8a0e4304772" target="_top" xlink:title=" ">
<polygon fill="white" stroke="#666666" points="233,-280 110,-280 110,-261 233,-261 233,-280"/>
<text text-anchor="middle" x="171.5" y="-268" font-family="Helvetica,sans-Serif" font-size="10.00">mtxf_translate_rotate</text>
</a>
</g>
</g>
<!-- Node1&#45;&gt;Node20 -->
<g id="edge23_Node000001_Node000020" class="edge">
<title>Node1&#45;&gt;Node20</title>
<g id="a_edge23_Node000001_Node000020"><a xlink:title=" ">
<path fill="none" stroke="#63b8ff" d="M52.61,-224.09C66.69,-232.45 88.18,-244.45 108,-252.5 112.72,-254.42 117.71,-256.22 122.74,-257.88"/>
<polygon fill="#63b8ff" stroke="#63b8ff" points="121.8,-261.25 132.39,-260.91 123.89,-254.58 121.8,-261.25"/>
</a>
</g>
</g>
<!-- Node3 -->
<g id="Node000003" class="node">
<title>Node3</title>
<g id="a_Node000003"><a xlink:href="FrameInterpolation_8cpp.html#a8cf1f2d6fabc6925aa71a9515341b4aa" target="_top" xlink:title=" ">
<polygon fill="white" stroke="#666666" points="415.5,-517.5 275.5,-517.5 275.5,-487.5 415.5,-487.5 415.5,-517.5"/>
<text text-anchor="start" x="283.5" y="-505.5" font-family="Helvetica,sans-Serif" font-size="10.00">FrameInterpolation</text>
<text text-anchor="middle" x="345.5" y="-494.5" font-family="Helvetica,sans-Serif" font-size="10.00">_RecordMatrixMtxFToMtx</text>
</a>
</g>
</g>
<!-- Node2&#45;&gt;Node3 -->
<g id="edge2_Node000002_Node000003" class="edge">
<title>Node2&#45;&gt;Node3</title>
<g id="a_edge2_Node000002_Node000003"><a xlink:title=" ">
<path fill="none" stroke="#63b8ff" d="M232.66,-474.54C246.14,-477.91 260.56,-481.52 274.41,-484.98"/>
<polygon fill="#63b8ff" stroke="#63b8ff" points="273.83,-488.44 284.38,-487.47 275.52,-481.65 273.83,-488.44"/>
</a>
</g>
</g>
<!-- Node5 -->
<g id="Node000005" class="node">
<title>Node5</title>
<g id="a_Node000005"><a xlink:href="guMtxF2L_8c.html#a40ab2d64c609839ff1e0ef0de2d0dcc4" target="_top" xlink:title=" ">
<polygon fill="white" stroke="#666666" points="378,-469 313,-469 313,-450 378,-450 378,-469"/>
<text text-anchor="middle" x="345.5" y="-457" font-family="Helvetica,sans-Serif" font-size="10.00">guMtxF2L</text>
</a>
</g>
</g>
<!-- Node2&#45;&gt;Node5 -->
<g id="edge4_Node000002_Node000005" class="edge">
<title>Node2&#45;&gt;Node5</title>
<g id="a_edge4_Node000002_Node000005"><a xlink:title=" ">
<path fill="none" stroke="#63b8ff" d="M235.08,-459.5C257.49,-459.5 282.2,-459.5 302.46,-459.5"/>
<polygon fill="#63b8ff" stroke="#63b8ff" points="302.61,-463 312.61,-459.5 302.61,-456 302.61,-463"/>
</a>
</g>
</g>
<!-- Node4 -->
<g id="Node000004" class="node">
<title>Node4</title>
<g id="a_Node000004"><a xlink:href="FrameInterpolation_8cpp.html#a02c7ac5342a4d376edee38f312b480bf" target="_top" xlink:title=" ">
<polygon fill="white" stroke="#666666" points="564,-378 456,-378 456,-359 564,-359 564,-378"/>
<text text-anchor="middle" x="510" y="-366" font-family="Helvetica,sans-Serif" font-size="10.00">check_if_recording</text>
</a>
</g>
</g>
<!-- Node3&#45;&gt;Node4 -->
<g id="edge3_Node000003_Node000004" class="edge">
<title>Node3&#45;&gt;Node4</title>
<g id="a_edge3_Node000003_Node000004"><a xlink:title=" ">
<path fill="none" stroke="#63b8ff" d="M403.85,-487.45C409.53,-484.89 415.03,-481.93 420,-478.5 455.39,-454.13 483.96,-411.71 498.52,-387.29"/>
<polygon fill="#63b8ff" stroke="#63b8ff" points="501.73,-388.72 503.72,-378.31 495.68,-385.21 501.73,-388.72"/>
</a>
</g>
</g>
<!-- Node6&#45;&gt;Node4 -->
<g id="edge6_Node000006_Node000004" class="edge">
<title>Node6&#45;&gt;Node4</title>
<g id="a_edge6_Node000006_Node000004"><a xlink:title=" ">
<path fill="none" stroke="#63b8ff" d="M400.61,-368.5C415.09,-368.5 430.87,-368.5 445.79,-368.5"/>
<polygon fill="#63b8ff" stroke="#63b8ff" points="445.95,-372 455.95,-368.5 445.95,-365 445.95,-372"/>
</a>
</g>
</g>
<!-- Node7&#45;&gt;Node4 -->
<g id="edge8_Node000007_Node000004" class="edge">
<title>Node7&#45;&gt;Node4</title>
<g id="a_edge8_Node000007_Node000004"><a xlink:title=" ">
<path fill="none" stroke="#63b8ff" d="M397.47,-335.56C419.81,-342.15 445.71,-349.8 466.93,-356.07"/>
<polygon fill="#63b8ff" stroke="#63b8ff" points="466.04,-359.46 476.62,-358.94 468.02,-352.75 466.04,-359.46"/>
</a>
</g>
</g>
<!-- Node10 -->
<g id="Node000010" class="node">
<title>Node10</title>
<g id="a_Node000010"><a xlink:href="math__util_8c.html#ae69cbf5c8d4b3b0dba2d7b4d4673689f" target="_top" xlink:title=" ">
<polygon fill="white" stroke="#666666" points="364.5,-239 326.5,-239 326.5,-220 364.5,-220 364.5,-239"/>
<text text-anchor="middle" x="345.5" y="-227" font-family="Helvetica,sans-Serif" font-size="10.00">coss</text>
</a>
</g>
</g>
<!-- Node9&#45;&gt;Node10 -->
<g id="edge11_Node000009_Node000010" class="edge">
<title>Node9&#45;&gt;Node10</title>
<g id="a_edge11_Node000009_Node000010"><a xlink:title=" ">
<path fill="none" stroke="#63b8ff" d="M217.69,-232.45C248.83,-231.72 289.27,-230.78 316.01,-230.16"/>
<polygon fill="#63b8ff" stroke="#63b8ff" points="316.31,-233.66 326.23,-229.92 316.15,-226.66 316.31,-233.66"/>
</a>
</g>
</g>
<!-- Node9&#45;&gt;Node11 -->
<g id="edge12_Node000009_Node000011" class="edge">
<title>Node9&#45;&gt;Node11</title>
<g id="a_edge12_Node000009_Node000011"><a xlink:title=" ">
<path fill="none" stroke="#63b8ff" d="M212.39,-223.99C244.6,-216.31 289.06,-205.72 317.29,-198.99"/>
<polygon fill="#63b8ff" stroke="#63b8ff" points="318.34,-202.33 327.26,-196.61 316.72,-195.52 318.34,-202.33"/>
</a>
</g>
</g>
<!-- Node14 -->
<g id="Node000014" class="node">
<title>Node14</title>
<g id="a_Node000014"><a xlink:href="Engine_8cpp.html#a223c8bc63f228dc11177515e38eff2db" target="_top" xlink:title=" ">
<polygon fill="white" stroke="#666666" points="420,-75 271,-75 271,-56 420,-56 420,-75"/>
<text text-anchor="middle" x="345.5" y="-63" font-family="Helvetica,sans-Serif" font-size="10.00">GameEngine_OTRSigCheck</text>
</a>
</g>
</g>
<!-- Node13&#45;&gt;Node14 -->
<g id="edge15_Node000013_Node000014" class="edge">
<title>Node13&#45;&gt;Node14</title>
<g id="a_edge15_Node000013_Node000014"><a xlink:title=" ">
<path fill="none" stroke="#63b8ff" d="M216.35,-78.91C229.98,-77.48 245.5,-75.86 260.91,-74.25"/>
<polygon fill="#63b8ff" stroke="#63b8ff" points="261.41,-77.71 271,-73.19 260.69,-70.75 261.41,-77.71"/>
</a>
</g>
</g>
<!-- Node15 -->
<g id="Node000015" class="node">
<title>Node15</title>
<g id="a_Node000015"><a xlink:href="string_8c.html#a008e171a518fe0e0352f31b245e03875" target="_top" xlink:title=" ">
<polygon fill="white" stroke="#666666" points="532,-75 488,-75 488,-56 532,-56 532,-75"/>
<text text-anchor="middle" x="510" y="-63" font-family="Helvetica,sans-Serif" font-size="10.00">strlen</text>
</a>
</g>
</g>
<!-- Node14&#45;&gt;Node15 -->
<g id="edge16_Node000014_Node000015" class="edge">
<title>Node14&#45;&gt;Node15</title>
<g id="a_edge16_Node000014_Node000015"><a xlink:title=" ">
<path fill="none" stroke="#63b8ff" d="M420.14,-65.5C440.4,-65.5 461.28,-65.5 477.72,-65.5"/>
<polygon fill="#63b8ff" stroke="#63b8ff" points="477.82,-69 487.82,-65.5 477.82,-62 477.82,-69"/>
</a>
</g>
</g>
<!-- Node16&#45;&gt;Node14 -->
<g id="edge18_Node000016_Node000014" class="edge">
<title>Node16&#45;&gt;Node14</title>
<g id="a_edge18_Node000016_Node000014"><a xlink:title=" ">
<path fill="none" stroke="#63b8ff" d="M204.85,-50.07C220.84,-51.84 240.94,-54.06 260.87,-56.26"/>
<polygon fill="#63b8ff" stroke="#63b8ff" points="260.61,-59.75 270.93,-57.37 261.38,-52.8 260.61,-59.75"/>
</a>
</g>
</g>
<!-- Node19 -->
<g id="Node000019" class="node">
<title>Node19</title>
<g id="a_Node000019"><a xlink:href="FrameInterpolation_8cpp.html#ad8eff15a52471a7a9c4801f2f23124e6" target="_top" xlink:title=" ">
<polygon fill="white" stroke="#666666" points="402,-431.5 289,-431.5 289,-401.5 402,-401.5 402,-431.5"/>
<text text-anchor="start" x="297" y="-419.5" font-family="Helvetica,sans-Serif" font-size="10.00">FrameInterpolation</text>
<text text-anchor="middle" x="345.5" y="-408.5" font-family="Helvetica,sans-Serif" font-size="10.00">_RecordMatrixScale</text>
</a>
</g>
</g>
<!-- Node18&#45;&gt;Node19 -->
<g id="edge21_Node000018_Node000019" class="edge">
<title>Node18&#45;&gt;Node19</title>
<g id="a_edge21_Node000018_Node000019"><a xlink:title=" ">
<path fill="none" stroke="#63b8ff" d="M207.31,-410.92C227.75,-411.75 254.26,-412.83 278.52,-413.81"/>
<polygon fill="#63b8ff" stroke="#63b8ff" points="278.62,-417.32 288.75,-414.23 278.9,-410.33 278.62,-417.32"/>
</a>
</g>
</g>
<!-- Node19&#45;&gt;Node4 -->
<g id="edge22_Node000019_Node000004" class="edge">
<title>Node19&#45;&gt;Node4</title>
<g id="a_edge22_Node000019_Node000004"><a xlink:title=" ">
<path fill="none" stroke="#63b8ff" d="M397.47,-401.44C419.81,-394.85 445.71,-387.2 466.93,-380.93"/>
<polygon fill="#63b8ff" stroke="#63b8ff" points="468.02,-384.25 476.62,-378.06 466.04,-377.54 468.02,-384.25"/>
</a>
</g>
</g>
<!-- Node20&#45;&gt;Node10 -->
<g id="edge24_Node000020_Node000010" class="edge">
<title>Node20&#45;&gt;Node10</title>
<g id="a_edge24_Node000020_Node000010"><a xlink:title=" ">
<path fill="none" stroke="#63b8ff" d="M212.39,-260.99C244.25,-253.4 288.09,-242.95 316.36,-236.21"/>
<polygon fill="#63b8ff" stroke="#63b8ff" points="317.46,-239.54 326.38,-233.82 315.84,-232.73 317.46,-239.54"/>
</a>
</g>
</g>
<!-- Node20&#45;&gt;Node11 -->
<g id="edge27_Node000020_Node000011" class="edge">
<title>Node20&#45;&gt;Node11</title>
<g id="a_edge27_Node000020_Node000011"><a xlink:title=" ">
<path fill="none" stroke="#63b8ff" d="M217.56,-260.91C223.67,-258.65 229.66,-255.89 235,-252.5 255.48,-239.51 250.35,-224.21 271,-211.5 285,-202.89 302.81,-198.15 317.39,-195.57"/>
<polygon fill="#63b8ff" stroke="#63b8ff" points="317.98,-199.02 327.33,-194.04 316.91,-192.1 317.98,-199.02"/>
</a>
</g>
</g>
<!-- Node21 -->
<g id="Node000021" class="node">
<title>Node21</title>
<g id="a_Node000021"><a xlink:href="FrameInterpolation_8cpp.html#aafa8768b46143c8110779aa8afdfe41c" target="_top" xlink:title=" ">
<polygon fill="white" stroke="#666666" points="411.5,-287.5 279.5,-287.5 279.5,-257.5 411.5,-257.5 411.5,-287.5"/>
<text text-anchor="start" x="287.5" y="-275.5" font-family="Helvetica,sans-Serif" font-size="10.00">FrameInterpolation</text>
<text text-anchor="middle" x="345.5" y="-264.5" font-family="Helvetica,sans-Serif" font-size="10.00">_RecordTranslateRotate</text>
</a>
</g>
</g>
<!-- Node20&#45;&gt;Node21 -->
<g id="edge25_Node000020_Node000021" class="edge">
<title>Node20&#45;&gt;Node21</title>
<g id="a_edge25_Node000020_Node000021"><a xlink:title=" ">
<path fill="none" stroke="#63b8ff" d="M233.14,-271.21C244.85,-271.34 257.25,-271.49 269.36,-271.63"/>
<polygon fill="#63b8ff" stroke="#63b8ff" points="269.4,-275.13 279.44,-271.74 269.49,-268.13 269.4,-275.13"/>
</a>
</g>
</g>
<!-- Node21&#45;&gt;Node4 -->
<g id="edge26_Node000021_Node000004" class="edge">
<title>Node21&#45;&gt;Node4</title>
<g id="a_edge26_Node000021_Node000004"><a xlink:title=" ">
<path fill="none" stroke="#63b8ff" d="M400.45,-287.58C407.19,-290.2 413.87,-293.17 420,-296.5 447.61,-311.51 475.07,-335.45 492.03,-351.56"/>
<polygon fill="#63b8ff" stroke="#63b8ff" points="489.85,-354.32 499.46,-358.76 494.72,-349.29 489.85,-354.32"/>
</a>
</g>
</g>
</g>
</svg>

<g id="navigator" transform="translate(0 0)" fill="#404254">
  <rect fill="#f2f5e9" fill-opacity="0.5" stroke="#606060" stroke-width=".5" x="0" y="0" width="60" height="60"/>
  <use id="zoomplus" xlink:href="#zoomPlus" x="17" y="9" onmousedown="handleZoom(evt,'in')"/>
  <use id="zoomminus" xlink:href="#zoomMin" x="42" y="9" onmousedown="handleZoom(evt,'out')"/>
  <use id="reset" xlink:href="#resetDef" x="30" y="36" onmousedown="handleReset()"/>
   <use id="arrowup" xlink:href="#arrowUp" x="0" y="0" onmousedown="handlePan(0,-1)"/>
  <use id="arrowright" xlink:href="#arrowRight" x="0" y="0" onmousedown="handlePan(1,0)"/>
  <use id="arrowdown" xlink:href="#arrowDown" x="0" y="0" onmousedown="handlePan(0,1)"/>
  <use id="arrowleft" xlink:href="#arrowLeft" x="0" y="0" onmousedown="handlePan(-1,0)"/>
</g>
<svg viewBox="0 0 15 15" width="100%" height="30px" preserveAspectRatio="xMaxYMin meet">
 <g id="arrow_out" transform="scale(0.3 0.3)">
  <a xlink:href="render__player_8h_aaa703464fa1caf9735fb9eaf97778274_cgraph_org.svg" target="_base">
   <rect id="button" ry="5" rx="5" y="6" x="6" height="38" width="38"
        fill="#f2f5e9" fill-opacity="0.5" stroke="#606060" stroke-width="1.0"/>
   <path id="arrow"
     d="M 11.500037,31.436501 C 11.940474,20.09759 22.043105,11.32322 32.158766,21.979434 L 37.068811,17.246167 C 37.068811,17.246167 37.088388,32 37.088388,32 L 22.160133,31.978069 C 22.160133,31.978069 26.997745,27.140456 26.997745,27.140456 C 18.528582,18.264221 13.291696,25.230495 11.500037,31.436501 z"
     style="fill:#404040;"/>
  </a>
 </g>
</svg>

<style type='text/css'>
<![CDATA[
[data-mouse-over-selected='false'] { opacity: 0.7; }
[data-mouse-over-selected='true']  { opacity: 1.0; }
]]>
</style>
<script type="application/ecmascript"><![CDATA[
document.addEventListener('DOMContentLoaded', (event) => {
  highlightEdges();
  highlightAdjacentNodes();
});
]]></script>
</svg>
