<?xml version="1.0" encoding="UTF-8" standalone="no"?>
<!DOCTYPE svg PUBLIC "-//W3C//DTD SVG 1.1//EN"
 "http://www.w3.org/Graphics/SVG/1.1/DTD/svg11.dtd">
<!-- Generated by graphviz version 2.43.0 (0)
 -->
<!-- Title: render_track Pages: 1 -->
<svg width="1028pt" height="187pt"
 viewBox="0.00 0.00 1028.00 186.50" xmlns="http://www.w3.org/2000/svg" xmlns:xlink="http://www.w3.org/1999/xlink">
<g id="graph0" class="graph" transform="scale(1 1) rotate(0) translate(4 182.5)">
<title>render_track</title>
<!-- Node1 -->
<g id="Node000001" class="node">
<title>Node1</title>
<g id="a_Node000001"><a xlink:title=" ">
<polygon fill="#999999" stroke="#666666" points="78,-74 0,-74 0,-55 78,-55 78,-74"/>
<text text-anchor="middle" x="39" y="-62" font-family="Helvetica,sans-Serif" font-size="10.00">render_track</text>
</a>
</g>
</g>
<!-- Node2 -->
<g id="Node000002" class="node">
<title>Node2</title>
<g id="a_Node000002"><a xlink:href="Game_8cpp.html#a066e268f9d300f4fa433733dd636bc9d" target="_top" xlink:title=" ">
<polygon fill="white" stroke="#666666" points="227,-93 138,-93 138,-74 227,-74 227,-93"/>
<text text-anchor="middle" x="182.5" y="-81" font-family="Helvetica,sans-Serif" font-size="10.00">CM_DrawTrack</text>
</a>
</g>
</g>
<!-- Node1&#45;&gt;Node2 -->
<g id="edge1_Node000001_Node000002" class="edge">
<title>Node1&#45;&gt;Node2</title>
<g id="a_edge1_Node000001_Node000002"><a xlink:title=" ">
<path fill="none" stroke="#63b8ff" d="M78.29,-69.64C93.54,-71.69 111.36,-74.08 127.86,-76.3"/>
<polygon fill="#63b8ff" stroke="#63b8ff" points="127.55,-79.79 137.93,-77.65 128.48,-72.85 127.55,-79.79"/>
</a>
</g>
</g>
<!-- Node13 -->
<g id="Node000013" class="node">
<title>Node13</title>
<g id="a_Node000013"><a xlink:href="math__util_8c.html#ae3e380239986384fef7c10e23eced83f" target="_top" xlink:title=" ">
<polygon fill="white" stroke="#666666" points="251,-56 114,-56 114,-37 251,-37 251,-56"/>
<text text-anchor="middle" x="182.5" y="-44" font-family="Helvetica,sans-Serif" font-size="10.00">set_track_light_direction</text>
</a>
</g>
</g>
<!-- Node1&#45;&gt;Node13 -->
<g id="edge12_Node000001_Node000013" class="edge">
<title>Node1&#45;&gt;Node13</title>
<g id="a_edge12_Node000001_Node000013"><a xlink:title=" ">
<path fill="none" stroke="#63b8ff" d="M78.29,-59.63C86.26,-58.62 94.93,-57.51 103.75,-56.39"/>
<polygon fill="#63b8ff" stroke="#63b8ff" points="104.26,-59.85 113.73,-55.12 103.37,-52.91 104.26,-59.85"/>
</a>
</g>
</g>
<!-- Node3 -->
<g id="Node000003" class="node">
<title>Node3</title>
<g id="a_Node000003"><a xlink:href="collision__viewer_8c.html#afaee40683a3ae56cae11b2c5687e3328" target="_top" xlink:title=" ">
<polygon fill="white" stroke="#666666" points="381,-93 287,-93 287,-74 381,-74 381,-93"/>
<text text-anchor="middle" x="334" y="-81" font-family="Helvetica,sans-Serif" font-size="10.00">render_collision</text>
</a>
</g>
</g>
<!-- Node2&#45;&gt;Node3 -->
<g id="edge2_Node000002_Node000003" class="edge">
<title>Node2&#45;&gt;Node3</title>
<g id="a_edge2_Node000002_Node000003"><a xlink:title=" ">
<path fill="none" stroke="#63b8ff" d="M227.14,-83.5C242.7,-83.5 260.45,-83.5 276.91,-83.5"/>
<polygon fill="#63b8ff" stroke="#63b8ff" points="276.96,-87 286.96,-83.5 276.96,-80 276.96,-87"/>
</a>
</g>
</g>
<!-- Node4 -->
<g id="Node000004" class="node">
<title>Node4</title>
<g id="a_Node000004"><a xlink:href="Matrix_8cpp.html#a6416f9a60a7397e8b517b1483adb96e8" target="_top" xlink:title=" ">
<polygon fill="white" stroke="#666666" points="515,-130 417,-130 417,-111 515,-111 515,-130"/>
<text text-anchor="middle" x="466" y="-118" font-family="Helvetica,sans-Serif" font-size="10.00">AddObjectMatrix</text>
</a>
</g>
</g>
<!-- Node3&#45;&gt;Node4 -->
<g id="edge3_Node000003_Node000004" class="edge">
<title>Node3&#45;&gt;Node4</title>
<g id="a_edge3_Node000003_Node000004"><a xlink:title=" ">
<path fill="none" stroke="#63b8ff" d="M368.48,-93.03C384.58,-97.61 404.08,-103.16 421.33,-108.07"/>
<polygon fill="#63b8ff" stroke="#63b8ff" points="420.61,-111.5 431.18,-110.88 422.52,-104.77 420.61,-111.5"/>
</a>
</g>
</g>
<!-- Node9 -->
<g id="Node000009" class="node">
<title>Node9</title>
<g id="a_Node000009"><a xlink:href="GBIMiddleware_8cpp.html#aeef79449a27a710d73576e4a4f7f7f99" target="_top" xlink:title=" ">
<polygon fill="white" stroke="#666666" points="499,-93 433,-93 433,-74 499,-74 499,-93"/>
<text text-anchor="middle" x="466" y="-81" font-family="Helvetica,sans-Serif" font-size="10.00">gSPVertex</text>
</a>
</g>
</g>
<!-- Node3&#45;&gt;Node9 -->
<g id="edge8_Node000003_Node000009" class="edge">
<title>Node3&#45;&gt;Node9</title>
<g id="a_edge8_Node000003_Node000009"><a xlink:title=" ">
<path fill="none" stroke="#63b8ff" d="M381.2,-83.5C394.67,-83.5 409.33,-83.5 422.56,-83.5"/>
<polygon fill="#63b8ff" stroke="#63b8ff" points="422.82,-87 432.82,-83.5 422.82,-80 422.82,-87"/>
</a>
</g>
</g>
<!-- Node12 -->
<g id="Node000012" class="node">
<title>Node12</title>
<g id="a_Node000012"><a xlink:href="math__util_8c.html#ac22eee16b1def67d2441ce919df0c5ac" target="_top" xlink:title=" ">
<polygon fill="white" stroke="#666666" points="507.5,-56 424.5,-56 424.5,-37 507.5,-37 507.5,-56"/>
<text text-anchor="middle" x="466" y="-44" font-family="Helvetica,sans-Serif" font-size="10.00">mtxf_identity</text>
</a>
</g>
</g>
<!-- Node3&#45;&gt;Node12 -->
<g id="edge11_Node000003_Node000012" class="edge">
<title>Node3&#45;&gt;Node12</title>
<g id="a_edge11_Node000003_Node000012"><a xlink:title=" ">
<path fill="none" stroke="#63b8ff" d="M368.48,-73.97C384.58,-69.39 404.08,-63.84 421.33,-58.93"/>
<polygon fill="#63b8ff" stroke="#63b8ff" points="422.52,-62.23 431.18,-56.12 420.61,-55.5 422.52,-62.23"/>
</a>
</g>
</g>
<!-- Node5 -->
<g id="Node000005" class="node">
<title>Node5</title>
<g id="a_Node000005"><a xlink:href="Matrix_8cpp.html#a67401ed1d8de1f4d3a3e5a7b72842b6a" target="_top" xlink:title=" ">
<polygon fill="white" stroke="#666666" points="659,-130 592,-130 592,-111 659,-111 659,-130"/>
<text text-anchor="middle" x="625.5" y="-118" font-family="Helvetica,sans-Serif" font-size="10.00">AddMatrix</text>
</a>
</g>
</g>
<!-- Node4&#45;&gt;Node5 -->
<g id="edge4_Node000004_Node000005" class="edge">
<title>Node4&#45;&gt;Node5</title>
<g id="a_edge4_Node000004_Node000005"><a xlink:title=" ">
<path fill="none" stroke="#63b8ff" d="M515.11,-120.5C536.32,-120.5 561.03,-120.5 581.6,-120.5"/>
<polygon fill="#63b8ff" stroke="#63b8ff" points="581.63,-124 591.63,-120.5 581.63,-117 581.63,-124"/>
</a>
</g>
</g>
<!-- Node6 -->
<g id="Node000006" class="node">
<title>Node6</title>
<g id="a_Node000006"><a xlink:href="FrameInterpolation_8cpp.html#a8cf1f2d6fabc6925aa71a9515341b4aa" target="_top" xlink:title=" ">
<polygon fill="white" stroke="#666666" points="876,-178.5 736,-178.5 736,-148.5 876,-148.5 876,-178.5"/>
<text text-anchor="start" x="744" y="-166.5" font-family="Helvetica,sans-Serif" font-size="10.00">FrameInterpolation</text>
<text text-anchor="middle" x="806" y="-155.5" font-family="Helvetica,sans-Serif" font-size="10.00">_RecordMatrixMtxFToMtx</text>
</a>
</g>
</g>
<!-- Node5&#45;&gt;Node6 -->
<g id="edge5_Node000005_Node000006" class="edge">
<title>Node5&#45;&gt;Node6</title>
<g id="a_edge5_Node000005_Node000006"><a xlink:title=" ">
<path fill="none" stroke="#63b8ff" d="M659.24,-128.39C679.76,-133.33 707.06,-139.91 732.48,-146.03"/>
<polygon fill="#63b8ff" stroke="#63b8ff" points="731.95,-149.5 742.49,-148.44 733.58,-142.7 731.95,-149.5"/>
</a>
</g>
</g>
<!-- Node8 -->
<g id="Node000008" class="node">
<title>Node8</title>
<g id="a_Node000008"><a xlink:href="guMtxF2L_8c.html#a40ab2d64c609839ff1e0ef0de2d0dcc4" target="_top" xlink:title=" ">
<polygon fill="white" stroke="#666666" points="838.5,-130 773.5,-130 773.5,-111 838.5,-111 838.5,-130"/>
<text text-anchor="middle" x="806" y="-118" font-family="Helvetica,sans-Serif" font-size="10.00">guMtxF2L</text>
</a>
</g>
</g>
<!-- Node5&#45;&gt;Node8 -->
<g id="edge7_Node000005_Node000008" class="edge">
<title>Node5&#45;&gt;Node8</title>
<g id="a_edge7_Node000005_Node000008"><a xlink:title=" ">
<path fill="none" stroke="#63b8ff" d="M659.24,-120.5C688.45,-120.5 731.37,-120.5 763.08,-120.5"/>
<polygon fill="#63b8ff" stroke="#63b8ff" points="763.37,-124 773.37,-120.5 763.37,-117 763.37,-124"/>
</a>
</g>
</g>
<!-- Node7 -->
<g id="Node000007" class="node">
<title>Node7</title>
<g id="a_Node000007"><a xlink:href="FrameInterpolation_8cpp.html#a02c7ac5342a4d376edee38f312b480bf" target="_top" xlink:title=" ">
<polygon fill="white" stroke="#666666" points="1020,-173 912,-173 912,-154 1020,-154 1020,-173"/>
<text text-anchor="middle" x="966" y="-161" font-family="Helvetica,sans-Serif" font-size="10.00">check_if_recording</text>
</a>
</g>
</g>
<!-- Node6&#45;&gt;Node7 -->
<g id="edge6_Node000006_Node000007" class="edge">
<title>Node6&#45;&gt;Node7</title>
<g id="a_edge6_Node000006_Node000007"><a xlink:title=" ">
<path fill="none" stroke="#63b8ff" d="M876.3,-163.5C884.79,-163.5 893.43,-163.5 901.82,-163.5"/>
<polygon fill="#63b8ff" stroke="#63b8ff" points="901.91,-167 911.91,-163.5 901.91,-160 901.91,-167"/>
</a>
</g>
</g>
<!-- Node10 -->
<g id="Node000010" class="node">
<title>Node10</title>
<g id="a_Node000010"><a xlink:href="Engine_8cpp.html#a223c8bc63f228dc11177515e38eff2db" target="_top" xlink:title=" ">
<polygon fill="white" stroke="#666666" points="700,-93 551,-93 551,-74 700,-74 700,-93"/>
<text text-anchor="middle" x="625.5" y="-81" font-family="Helvetica,sans-Serif" font-size="10.00">GameEngine_OTRSigCheck</text>
</a>
</g>
</g>
<!-- Node9&#45;&gt;Node10 -->
<g id="edge9_Node000009_Node000010" class="edge">
<title>Node9&#45;&gt;Node10</title>
<g id="a_edge9_Node000009_Node000010"><a xlink:title=" ">
<path fill="none" stroke="#63b8ff" d="M499.25,-83.5C511.39,-83.5 525.83,-83.5 540.5,-83.5"/>
<polygon fill="#63b8ff" stroke="#63b8ff" points="540.68,-87 550.68,-83.5 540.68,-80 540.68,-87"/>
</a>
</g>
</g>
<!-- Node11 -->
<g id="Node000011" class="node">
<title>Node11</title>
<g id="a_Node000011"><a xlink:href="string_8c.html#a008e171a518fe0e0352f31b245e03875" target="_top" xlink:title=" ">
<polygon fill="white" stroke="#666666" points="828,-93 784,-93 784,-74 828,-74 828,-93"/>
<text text-anchor="middle" x="806" y="-81" font-family="Helvetica,sans-Serif" font-size="10.00">strlen</text>
</a>
</g>
</g>
<!-- Node10&#45;&gt;Node11 -->
<g id="edge10_Node000010_Node000011" class="edge">
<title>Node10&#45;&gt;Node11</title>
<g id="a_edge10_Node000010_Node000011"><a xlink:title=" ">
<path fill="none" stroke="#63b8ff" d="M700.13,-83.5C725.69,-83.5 753.02,-83.5 773.37,-83.5"/>
<polygon fill="#63b8ff" stroke="#63b8ff" points="773.61,-87 783.61,-83.5 773.61,-80 773.61,-87"/>
</a>
</g>
</g>
<!-- Node14 -->
<g id="Node000014" class="node">
<title>Node14</title>
<g id="a_Node000014"><a xlink:href="math__util_8c.html#ae69cbf5c8d4b3b0dba2d7b4d4673689f" target="_top" xlink:title=" ">
<polygon fill="white" stroke="#666666" points="353,-56 315,-56 315,-37 353,-37 353,-56"/>
<text text-anchor="middle" x="334" y="-44" font-family="Helvetica,sans-Serif" font-size="10.00">coss</text>
</a>
</g>
</g>
<!-- Node13&#45;&gt;Node14 -->
<g id="edge13_Node000013_Node000014" class="edge">
<title>Node13&#45;&gt;Node14</title>
<g id="a_edge13_Node000013_Node000014"><a xlink:title=" ">
<path fill="none" stroke="#63b8ff" d="M251.25,-46.5C270.03,-46.5 289.39,-46.5 304.56,-46.5"/>
<polygon fill="#63b8ff" stroke="#63b8ff" points="304.8,-50 314.8,-46.5 304.8,-43 304.8,-50"/>
</a>
</g>
</g>
<!-- Node15 -->
<g id="Node000015" class="node">
<title>Node15</title>
<g id="a_Node000015"><a xlink:href="math__util_8c.html#a19ed3bd78fd2d3e2bd0a29f6caf48545" target="_top" xlink:title=" ">
<polygon fill="white" stroke="#666666" points="352,-19 316,-19 316,0 352,0 352,-19"/>
<text text-anchor="middle" x="334" y="-7" font-family="Helvetica,sans-Serif" font-size="10.00">sins</text>
</a>
</g>
</g>
<!-- Node13&#45;&gt;Node15 -->
<g id="edge14_Node000013_Node000015" class="edge">
<title>Node13&#45;&gt;Node15</title>
<g id="a_edge14_Node000013_Node000015"><a xlink:title=" ">
<path fill="none" stroke="#63b8ff" d="M222,-36.97C248.26,-30.47 282.39,-22.03 305.84,-16.22"/>
<polygon fill="#63b8ff" stroke="#63b8ff" points="306.92,-19.56 315.79,-13.76 305.24,-12.76 306.92,-19.56"/>
</a>
</g>
</g>
</g>
</svg>
