<?xml version="1.0" encoding="UTF-8" standalone="no"?>
<!DOCTYPE svg PUBLIC "-//W3C//DTD SVG 1.1//EN"
 "http://www.w3.org/Graphics/SVG/1.1/DTD/svg11.dtd">
<!-- Generated by graphviz version 2.43.0 (0)
 -->
<!-- Title: func_80051F9C Pages: 1 -->
<svg width="647pt" height="165pt"
 viewBox="0.00 0.00 647.00 165.00" xmlns="http://www.w3.org/2000/svg" xmlns:xlink="http://www.w3.org/1999/xlink">
<g id="graph0" class="graph" transform="scale(1 1) rotate(0) translate(4 161)">
<title>func_80051F9C</title>
<!-- Node1 -->
<g id="Node000001" class="node">
<title>Node1</title>
<g id="a_Node000001"><a xlink:title=" ">
<polygon fill="#999999" stroke="#666666" points="92,-74 0,-74 0,-55 92,-55 92,-74"/>
<text text-anchor="middle" x="46" y="-62" font-family="Helvetica,sans-Serif" font-size="10.00">func_80051F9C</text>
</a>
</g>
</g>
<!-- Node2 -->
<g id="Node000002" class="node">
<title>Node2</title>
<g id="a_Node000002"><a xlink:href="render__objects_8c.html#a74fbde7b756cbda004bcbe6830fb252f" target="_top" xlink:title=" ">
<polygon fill="white" stroke="#666666" points="233,-130 140,-130 140,-111 233,-111 233,-130"/>
<text text-anchor="middle" x="186.5" y="-118" font-family="Helvetica,sans-Serif" font-size="10.00">func_80051ABC</text>
</a>
</g>
</g>
<!-- Node1&#45;&gt;Node2 -->
<g id="edge1_Node000001_Node000002" class="edge">
<title>Node1&#45;&gt;Node2</title>
<g id="a_edge1_Node000001_Node000002"><a xlink:title=" ">
<path fill="none" stroke="#63b8ff" d="M65.67,-74.14C81.89,-82.3 106.14,-94 128,-102.5 132.75,-104.35 137.78,-106.15 142.81,-107.84"/>
<polygon fill="#63b8ff" stroke="#63b8ff" points="141.8,-111.2 152.39,-110.98 143.98,-104.55 141.8,-111.2"/>
</a>
</g>
</g>
<!-- Node7 -->
<g id="Node000007" class="node">
<title>Node7</title>
<g id="a_Node000007"><a xlink:href="Game_8cpp.html#aa2636859b1f988d43f21be6ccffc86ca" target="_top" xlink:title=" ">
<polygon fill="white" stroke="#666666" points="245,-93 128,-93 128,-74 245,-74 245,-93"/>
<text text-anchor="middle" x="186.5" y="-81" font-family="Helvetica,sans-Serif" font-size="10.00">IsKoopaTroopaBeach</text>
</a>
</g>
</g>
<!-- Node1&#45;&gt;Node7 -->
<g id="edge6_Node000001_Node000007" class="edge">
<title>Node1&#45;&gt;Node7</title>
<g id="a_edge6_Node000001_Node000007"><a xlink:title=" ">
<path fill="none" stroke="#63b8ff" d="M92.35,-70.72C100.52,-71.84 109.19,-73.03 117.82,-74.22"/>
<polygon fill="#63b8ff" stroke="#63b8ff" points="117.53,-77.71 127.92,-75.6 118.49,-70.77 117.53,-77.71"/>
</a>
</g>
</g>
<!-- Node10 -->
<g id="Node000010" class="node">
<title>Node10</title>
<g id="a_Node000010"><a xlink:href="Game_8cpp.html#a8a295fe1e3fdfa50223813feaca6d7d6" target="_top" xlink:title=" ">
<polygon fill="white" stroke="#666666" points="232,-56 141,-56 141,-37 232,-37 232,-56"/>
<text text-anchor="middle" x="186.5" y="-44" font-family="Helvetica,sans-Serif" font-size="10.00">IsMooMooFarm</text>
</a>
</g>
</g>
<!-- Node1&#45;&gt;Node10 -->
<g id="edge9_Node000001_Node000010" class="edge">
<title>Node1&#45;&gt;Node10</title>
<g id="a_edge9_Node000001_Node000010"><a xlink:title=" ">
<path fill="none" stroke="#63b8ff" d="M92.35,-58.61C104.68,-57 118.15,-55.25 130.93,-53.59"/>
<polygon fill="#63b8ff" stroke="#63b8ff" points="131.53,-57.04 140.99,-52.28 130.63,-50.1 131.53,-57.04"/>
</a>
</g>
</g>
<!-- Node11 -->
<g id="Node000011" class="node">
<title>Node11</title>
<g id="a_Node000011"><a xlink:href="Game_8cpp.html#ab05bb065469940f40a5023c58a8f9e7f" target="_top" xlink:title=" ">
<polygon fill="white" stroke="#666666" points="226.5,-19 146.5,-19 146.5,0 226.5,0 226.5,-19"/>
<text text-anchor="middle" x="186.5" y="-7" font-family="Helvetica,sans-Serif" font-size="10.00">IsYoshiValley</text>
</a>
</g>
</g>
<!-- Node1&#45;&gt;Node11 -->
<g id="edge12_Node000001_Node000011" class="edge">
<title>Node1&#45;&gt;Node11</title>
<g id="a_edge12_Node000001_Node000011"><a xlink:title=" ">
<path fill="none" stroke="#63b8ff" d="M66.02,-54.99C82.26,-47.07 106.35,-35.8 128,-27.5 132.76,-25.68 137.8,-23.89 142.82,-22.2"/>
<polygon fill="#63b8ff" stroke="#63b8ff" points="143.99,-25.5 152.42,-19.08 141.82,-18.85 143.99,-25.5"/>
</a>
</g>
</g>
<!-- Node3 -->
<g id="Node000003" class="node">
<title>Node3</title>
<g id="a_Node000003"><a xlink:href="Sky_8cpp.html#aa4336a52f51171211836d54ca61f8645" target="_top" xlink:title=" ">
<polygon fill="white" stroke="#666666" points="372.5,-157 282.5,-157 282.5,-138 372.5,-138 372.5,-157"/>
<text text-anchor="middle" x="327.5" y="-145" font-family="Helvetica,sans-Serif" font-size="10.00">DrawSkyActors</text>
</a>
</g>
</g>
<!-- Node2&#45;&gt;Node3 -->
<g id="edge2_Node000002_Node000003" class="edge">
<title>Node2&#45;&gt;Node3</title>
<g id="a_edge2_Node000002_Node000003"><a xlink:title=" ">
<path fill="none" stroke="#63b8ff" d="M233.01,-129.34C245.51,-131.77 259.18,-134.42 272.12,-136.94"/>
<polygon fill="#63b8ff" stroke="#63b8ff" points="271.82,-140.44 282.3,-138.92 273.16,-133.57 271.82,-140.44"/>
</a>
</g>
</g>
<!-- Node4 -->
<g id="Node000004" class="node">
<title>Node4</title>
<g id="a_Node000004"><a xlink:href="GBIMiddleware_8cpp.html#a4ecc44e3c6f1ca5a6b4a20c41d3bd2d2" target="_top" xlink:title=" ">
<polygon fill="white" stroke="#666666" points="372,-120 283,-120 283,-101 372,-101 372,-120"/>
<text text-anchor="middle" x="327.5" y="-108" font-family="Helvetica,sans-Serif" font-size="10.00">gSPDisplayList</text>
</a>
</g>
</g>
<!-- Node2&#45;&gt;Node4 -->
<g id="edge3_Node000002_Node000004" class="edge">
<title>Node2&#45;&gt;Node4</title>
<g id="a_edge3_Node000002_Node000004"><a xlink:title=" ">
<path fill="none" stroke="#63b8ff" d="M233.01,-117.23C245.63,-116.32 259.46,-115.32 272.51,-114.38"/>
<polygon fill="#63b8ff" stroke="#63b8ff" points="273.05,-117.85 282.78,-113.65 272.55,-110.87 273.05,-117.85"/>
</a>
</g>
</g>
<!-- Node5 -->
<g id="Node000005" class="node">
<title>Node5</title>
<g id="a_Node000005"><a xlink:href="Engine_8cpp.html#a223c8bc63f228dc11177515e38eff2db" target="_top" xlink:title=" ">
<polygon fill="white" stroke="#666666" points="559,-120 410,-120 410,-101 559,-101 559,-120"/>
<text text-anchor="middle" x="484.5" y="-108" font-family="Helvetica,sans-Serif" font-size="10.00">GameEngine_OTRSigCheck</text>
</a>
</g>
</g>
<!-- Node4&#45;&gt;Node5 -->
<g id="edge4_Node000004_Node000005" class="edge">
<title>Node4&#45;&gt;Node5</title>
<g id="a_edge4_Node000004_Node000005"><a xlink:title=" ">
<path fill="none" stroke="#63b8ff" d="M372.09,-110.5C380.7,-110.5 390.01,-110.5 399.45,-110.5"/>
<polygon fill="#63b8ff" stroke="#63b8ff" points="399.72,-114 409.72,-110.5 399.72,-107 399.72,-114"/>
</a>
</g>
</g>
<!-- Node6 -->
<g id="Node000006" class="node">
<title>Node6</title>
<g id="a_Node000006"><a xlink:href="string_8c.html#a008e171a518fe0e0352f31b245e03875" target="_top" xlink:title=" ">
<polygon fill="white" stroke="#666666" points="639,-120 595,-120 595,-101 639,-101 639,-120"/>
<text text-anchor="middle" x="617" y="-108" font-family="Helvetica,sans-Serif" font-size="10.00">strlen</text>
</a>
</g>
</g>
<!-- Node5&#45;&gt;Node6 -->
<g id="edge5_Node000005_Node000006" class="edge">
<title>Node5&#45;&gt;Node6</title>
<g id="a_edge5_Node000005_Node000006"><a xlink:title=" ">
<path fill="none" stroke="#63b8ff" d="M559.14,-110.5C568.12,-110.5 576.89,-110.5 584.75,-110.5"/>
<polygon fill="#63b8ff" stroke="#63b8ff" points="584.83,-114 594.83,-110.5 584.83,-107 584.83,-114"/>
</a>
</g>
</g>
<!-- Node8 -->
<g id="Node000008" class="node">
<title>Node8</title>
<g id="a_Node000008"><a xlink:href="classWorld.html#a1a4dacc6aea0b846df998be0afc239f7" target="_top" xlink:title=" ">
<polygon fill="white" stroke="#666666" points="374,-74 281,-74 281,-55 374,-55 374,-74"/>
<text text-anchor="middle" x="327.5" y="-62" font-family="Helvetica,sans-Serif" font-size="10.00">World::GetTrack</text>
</a>
</g>
</g>
<!-- Node7&#45;&gt;Node8 -->
<g id="edge7_Node000007_Node000008" class="edge">
<title>Node7&#45;&gt;Node8</title>
<g id="a_edge7_Node000007_Node000008"><a xlink:title=" ">
<path fill="none" stroke="#63b8ff" d="M245.24,-75.61C253.62,-74.46 262.23,-73.28 270.57,-72.14"/>
<polygon fill="#63b8ff" stroke="#63b8ff" points="271.15,-75.6 280.58,-70.78 270.2,-68.66 271.15,-75.6"/>
</a>
</g>
</g>
<!-- Node9 -->
<g id="Node000009" class="node">
<title>Node9</title>
<g id="a_Node000009"><a xlink:href="Game_8cpp.html#ae2fa844b3cb1021ecbc357f8ed2ad8cc" target="_top" xlink:title=" ">
<polygon fill="white" stroke="#666666" points="358.5,-37 296.5,-37 296.5,-18 358.5,-18 358.5,-37"/>
<text text-anchor="middle" x="327.5" y="-25" font-family="Helvetica,sans-Serif" font-size="10.00">GetWorld</text>
</a>
</g>
</g>
<!-- Node7&#45;&gt;Node9 -->
<g id="edge8_Node000007_Node000009" class="edge">
<title>Node7&#45;&gt;Node9</title>
<g id="a_edge8_Node000007_Node000009"><a xlink:title=" ">
<path fill="none" stroke="#63b8ff" d="M219.49,-73.98C227.89,-71.19 236.87,-67.96 245,-64.5 261.65,-57.42 264.56,-53.06 281,-45.5 284.36,-43.95 287.9,-42.41 291.45,-40.92"/>
<polygon fill="#63b8ff" stroke="#63b8ff" points="292.85,-44.13 300.78,-37.11 290.2,-37.65 292.85,-44.13"/>
</a>
</g>
</g>
<!-- Node10&#45;&gt;Node8 -->
<g id="edge10_Node000010_Node000008" class="edge">
<title>Node10&#45;&gt;Node8</title>
<g id="a_edge10_Node000010_Node000008"><a xlink:title=" ">
<path fill="none" stroke="#63b8ff" d="M232.25,-52.29C244.52,-53.88 257.98,-55.63 270.79,-57.29"/>
<polygon fill="#63b8ff" stroke="#63b8ff" points="270.52,-60.78 280.88,-58.59 271.42,-53.84 270.52,-60.78"/>
</a>
</g>
</g>
<!-- Node10&#45;&gt;Node9 -->
<g id="edge11_Node000010_Node000009" class="edge">
<title>Node10&#45;&gt;Node9</title>
<g id="a_edge11_Node000010_Node000009"><a xlink:title=" ">
<path fill="none" stroke="#63b8ff" d="M232.25,-40.38C249.6,-38.01 269.32,-35.32 286.22,-33.01"/>
<polygon fill="#63b8ff" stroke="#63b8ff" points="286.89,-36.45 296.33,-31.62 285.95,-29.51 286.89,-36.45"/>
</a>
</g>
</g>
<!-- Node11&#45;&gt;Node8 -->
<g id="edge13_Node000011_Node000008" class="edge">
<title>Node11&#45;&gt;Node8</title>
<g id="a_edge13_Node000011_Node000008"><a xlink:title=" ">
<path fill="none" stroke="#63b8ff" d="M221.26,-19.08C229.14,-21.58 237.43,-24.45 245,-27.5 261.59,-34.19 264.74,-38.05 281,-45.5 284.94,-47.31 289.1,-49.14 293.24,-50.92"/>
<polygon fill="#63b8ff" stroke="#63b8ff" points="292.18,-54.27 302.75,-54.94 294.9,-47.82 292.18,-54.27"/>
</a>
</g>
</g>
<!-- Node11&#45;&gt;Node9 -->
<g id="edge14_Node000011_Node000009" class="edge">
<title>Node11&#45;&gt;Node9</title>
<g id="a_edge14_Node000011_Node000009"><a xlink:title=" ">
<path fill="none" stroke="#63b8ff" d="M226.59,-14.56C245.15,-16.97 267.32,-19.84 286.06,-22.26"/>
<polygon fill="#63b8ff" stroke="#63b8ff" points="285.7,-25.75 296.07,-23.56 286.6,-18.8 285.7,-25.75"/>
</a>
</g>
</g>
</g>
</svg>
