<?xml version="1.0" encoding="UTF-8" standalone="no"?>
<!DOCTYPE svg PUBLIC "-//W3C//DTD SVG 1.1//EN"
 "http://www.w3.org/Graphics/SVG/1.1/DTD/svg11.dtd">
<!-- Generated by graphviz version 2.43.0 (0)
 -->
<!-- Title: func_80052E30 Pages: 1 -->
<svg width="1229pt" height="304pt"
 viewBox="0.00 0.00 1229.00 304.05" xmlns="http://www.w3.org/2000/svg" xmlns:xlink="http://www.w3.org/1999/xlink">
<g id="graph0" class="graph" transform="scale(1 1) rotate(0) translate(4 300.05)">
<title>func_80052E30</title>
<!-- Node1 -->
<g id="Node000001" class="node">
<title>Node1</title>
<g id="a_Node000001"><a xlink:title=" ">
<polygon fill="#999999" stroke="#666666" points="91,-225 0,-225 0,-206 91,-206 91,-225"/>
<text text-anchor="middle" x="45.5" y="-213" font-family="Helvetica,sans-Serif" font-size="10.00">func_80052E30</text>
</a>
</g>
</g>
<!-- Node2 -->
<g id="Node000002" class="node">
<title>Node2</title>
<g id="a_Node000002"><a xlink:href="render__objects_8c.html#ab9f3a66bf377a97ee744166b11fe71f5" target="_top" xlink:title=" ">
<polygon fill="white" stroke="#666666" points="219,-225 127,-225 127,-206 219,-206 219,-225"/>
<text text-anchor="middle" x="173" y="-213" font-family="Helvetica,sans-Serif" font-size="10.00">func_80052D70</text>
</a>
</g>
</g>
<!-- Node1&#45;&gt;Node2 -->
<g id="edge1_Node000001_Node000002" class="edge">
<title>Node1&#45;&gt;Node2</title>
<g id="a_edge1_Node000001_Node000002"><a xlink:title=" ">
<path fill="none" stroke="#63b8ff" d="M91.1,-215.5C99.31,-215.5 107.98,-215.5 116.47,-215.5"/>
<polygon fill="#63b8ff" stroke="#63b8ff" points="116.7,-219 126.7,-215.5 116.7,-212 116.7,-219"/>
</a>
</g>
</g>
<!-- Node3 -->
<g id="Node000003" class="node">
<title>Node3</title>
<g id="a_Node000003"><a xlink:href="FrameInterpolation_8cpp.html#a3a036bc9d533e28a4e9697cd20dccf3e" target="_top" xlink:title=" ">
<polygon fill="white" stroke="#666666" points="521.5,-292.5 411.5,-292.5 411.5,-262.5 521.5,-262.5 521.5,-292.5"/>
<text text-anchor="start" x="419.5" y="-280.5" font-family="Helvetica,sans-Serif" font-size="10.00">FrameInterpolation</text>
<text text-anchor="middle" x="466.5" y="-269.5" font-family="Helvetica,sans-Serif" font-size="10.00">_RecordCloseChild</text>
</a>
</g>
</g>
<!-- Node2&#45;&gt;Node3 -->
<g id="edge2_Node000002_Node000003" class="edge">
<title>Node2&#45;&gt;Node3</title>
<g id="a_edge2_Node000002_Node000003"><a xlink:title=" ">
<path fill="none" stroke="#63b8ff" d="M193.49,-225.06C209.61,-232.56 233.29,-242.68 255,-248.5 303.06,-261.38 358.91,-268.74 401,-272.82"/>
<polygon fill="#63b8ff" stroke="#63b8ff" points="400.84,-276.32 411.12,-273.76 401.49,-269.35 400.84,-276.32"/>
</a>
</g>
</g>
<!-- Node5 -->
<g id="Node000005" class="node">
<title>Node5</title>
<g id="a_Node000005"><a xlink:href="FrameInterpolation_8cpp.html#a0eda726b74eac815af4e874014e2727c" target="_top" xlink:title=" ">
<polygon fill="white" stroke="#666666" points="1044,-249.5 934,-249.5 934,-219.5 1044,-219.5 1044,-249.5"/>
<text text-anchor="start" x="942" y="-237.5" font-family="Helvetica,sans-Serif" font-size="10.00">FrameInterpolation</text>
<text text-anchor="middle" x="989" y="-226.5" font-family="Helvetica,sans-Serif" font-size="10.00">_RecordOpenChild</text>
</a>
</g>
</g>
<!-- Node2&#45;&gt;Node5 -->
<g id="edge4_Node000002_Node000005" class="edge">
<title>Node2&#45;&gt;Node5</title>
<g id="a_edge4_Node000002_Node000005"><a xlink:title=" ">
<path fill="none" stroke="#63b8ff" d="M219.38,-220.29C276.67,-225.92 378.27,-234.5 465.5,-234.5 465.5,-234.5 465.5,-234.5 675,-234.5 761.09,-234.5 860.5,-234.5 923.77,-234.5"/>
<polygon fill="#63b8ff" stroke="#63b8ff" points="924,-238 934,-234.5 924,-231 924,-238"/>
</a>
</g>
</g>
<!-- Node6 -->
<g id="Node000006" class="node">
<title>Node6</title>
<g id="a_Node000006"><a xlink:href="render__objects_8c.html#aaa8db08f147bc6819144cf35c0e91935" target="_top" xlink:title=" ">
<polygon fill="white" stroke="#666666" points="347,-206 255,-206 255,-187 347,-187 347,-206"/>
<text text-anchor="middle" x="301" y="-194" font-family="Helvetica,sans-Serif" font-size="10.00">func_800435A0</text>
</a>
</g>
</g>
<!-- Node2&#45;&gt;Node6 -->
<g id="edge6_Node000002_Node000006" class="edge">
<title>Node2&#45;&gt;Node6</title>
<g id="a_edge6_Node000002_Node000006"><a xlink:title=" ">
<path fill="none" stroke="#63b8ff" d="M219.13,-208.69C227.46,-207.44 236.23,-206.12 244.81,-204.82"/>
<polygon fill="#63b8ff" stroke="#63b8ff" points="245.39,-208.27 254.76,-203.32 244.35,-201.35 245.39,-208.27"/>
</a>
</g>
</g>
<!-- Node20 -->
<g id="Node000020" class="node">
<title>Node20</title>
<g id="a_Node000020"><a xlink:href="update__objects_8c.html#a6eafc39608c664ff3d5b832ffb629b12" target="_top" xlink:title=" ">
<polygon fill="white" stroke="#666666" points="346.5,-169 255.5,-169 255.5,-150 346.5,-150 346.5,-169"/>
<text text-anchor="middle" x="301" y="-157" font-family="Helvetica,sans-Serif" font-size="10.00">func_80072320</text>
</a>
</g>
</g>
<!-- Node2&#45;&gt;Node20 -->
<g id="edge22_Node000002_Node000020" class="edge">
<title>Node2&#45;&gt;Node20</title>
<g id="a_edge22_Node000002_Node000020"><a xlink:title=" ">
<path fill="none" stroke="#63b8ff" d="M194.57,-205.91C210.9,-198.34 234.34,-187.58 255,-178.5 259.13,-176.69 263.49,-174.8 267.8,-172.96"/>
<polygon fill="#63b8ff" stroke="#63b8ff" points="269.21,-176.16 277.05,-169.04 266.48,-169.72 269.21,-176.16"/>
</a>
</g>
</g>
<!-- Node4 -->
<g id="Node000004" class="node">
<title>Node4</title>
<g id="a_Node000004"><a xlink:href="FrameInterpolation_8cpp.html#a02c7ac5342a4d376edee38f312b480bf" target="_top" xlink:title=" ">
<polygon fill="white" stroke="#666666" points="1221,-220 1113,-220 1113,-201 1221,-201 1221,-220"/>
<text text-anchor="middle" x="1167" y="-208" font-family="Helvetica,sans-Serif" font-size="10.00">check_if_recording</text>
</a>
</g>
</g>
<!-- Node3&#45;&gt;Node4 -->
<g id="edge3_Node000003_Node000004" class="edge">
<title>Node3&#45;&gt;Node4</title>
<g id="a_edge3_Node000003_Node000004"><a xlink:title=" ">
<path fill="none" stroke="#63b8ff" d="M521.7,-284C629.63,-295.18 878.16,-312.01 1077,-258.5 1101.6,-251.88 1126.91,-237.34 1144.22,-225.99"/>
<polygon fill="#63b8ff" stroke="#63b8ff" points="1146.64,-228.58 1152.96,-220.08 1142.72,-222.78 1146.64,-228.58"/>
</a>
</g>
</g>
<!-- Node5&#45;&gt;Node4 -->
<g id="edge5_Node000005_Node000004" class="edge">
<title>Node5&#45;&gt;Node4</title>
<g id="a_edge5_Node000005_Node000004"><a xlink:title=" ">
<path fill="none" stroke="#63b8ff" d="M1044.24,-227.1C1062.73,-224.58 1083.57,-221.74 1102.71,-219.13"/>
<polygon fill="#63b8ff" stroke="#63b8ff" points="1103.41,-222.57 1112.84,-217.75 1102.46,-215.63 1103.41,-222.57"/>
</a>
</g>
</g>
<!-- Node7 -->
<g id="Node000007" class="node">
<title>Node7</title>
<g id="a_Node000007"><a xlink:href="GBIMiddleware_8cpp.html#a4ecc44e3c6f1ca5a6b4a20c41d3bd2d2" target="_top" xlink:title=" ">
<polygon fill="white" stroke="#666666" points="511,-206 422,-206 422,-187 511,-187 511,-206"/>
<text text-anchor="middle" x="466.5" y="-194" font-family="Helvetica,sans-Serif" font-size="10.00">gSPDisplayList</text>
</a>
</g>
</g>
<!-- Node6&#45;&gt;Node7 -->
<g id="edge7_Node000006_Node000007" class="edge">
<title>Node6&#45;&gt;Node7</title>
<g id="a_edge7_Node000006_Node000007"><a xlink:title=" ">
<path fill="none" stroke="#63b8ff" d="M347.11,-196.5C367.17,-196.5 390.95,-196.5 411.91,-196.5"/>
<polygon fill="#63b8ff" stroke="#63b8ff" points="411.95,-200 421.95,-196.5 411.95,-193 411.95,-200"/>
</a>
</g>
</g>
<!-- Node10 -->
<g id="Node000010" class="node">
<title>Node10</title>
<g id="a_Node000010"><a xlink:href="math__util__2_8c.html#ac40bfdeffa5a3c0f8d7c1ce43c075a45" target="_top" xlink:title=" ">
<polygon fill="white" stroke="#666666" points="550,-152.5 383,-152.5 383,-122.5 550,-122.5 550,-152.5"/>
<text text-anchor="start" x="391" y="-140.5" font-family="Helvetica,sans-Serif" font-size="10.00">rsp_set_matrix_transformation</text>
<text text-anchor="middle" x="466.5" y="-129.5" font-family="Helvetica,sans-Serif" font-size="10.00">_inverted_x_y_orientation</text>
</a>
</g>
</g>
<!-- Node6&#45;&gt;Node10 -->
<g id="edge10_Node000006_Node000010" class="edge">
<title>Node6&#45;&gt;Node10</title>
<g id="a_edge10_Node000006_Node000010"><a xlink:title=" ">
<path fill="none" stroke="#63b8ff" d="M328.63,-186.89C351.7,-178.56 385.73,-166.28 414.09,-156.05"/>
<polygon fill="#63b8ff" stroke="#63b8ff" points="415.63,-159.22 423.85,-152.53 413.26,-152.63 415.63,-159.22"/>
</a>
</g>
</g>
<!-- Node8 -->
<g id="Node000008" class="node">
<title>Node8</title>
<g id="a_Node000008"><a xlink:href="Engine_8cpp.html#a223c8bc63f228dc11177515e38eff2db" target="_top" xlink:title=" ">
<polygon fill="white" stroke="#666666" points="748.5,-206 599.5,-206 599.5,-187 748.5,-187 748.5,-206"/>
<text text-anchor="middle" x="674" y="-194" font-family="Helvetica,sans-Serif" font-size="10.00">GameEngine_OTRSigCheck</text>
</a>
</g>
</g>
<!-- Node7&#45;&gt;Node8 -->
<g id="edge8_Node000007_Node000008" class="edge">
<title>Node7&#45;&gt;Node8</title>
<g id="a_edge8_Node000007_Node000008"><a xlink:title=" ">
<path fill="none" stroke="#63b8ff" d="M511.08,-196.5C533.75,-196.5 562.25,-196.5 589,-196.5"/>
<polygon fill="#63b8ff" stroke="#63b8ff" points="589.15,-200 599.15,-196.5 589.15,-193 589.15,-200"/>
</a>
</g>
</g>
<!-- Node9 -->
<g id="Node000009" class="node">
<title>Node9</title>
<g id="a_Node000009"><a xlink:href="string_8c.html#a008e171a518fe0e0352f31b245e03875" target="_top" xlink:title=" ">
<polygon fill="white" stroke="#666666" points="853.5,-206 809.5,-206 809.5,-187 853.5,-187 853.5,-206"/>
<text text-anchor="middle" x="831.5" y="-194" font-family="Helvetica,sans-Serif" font-size="10.00">strlen</text>
</a>
</g>
</g>
<!-- Node8&#45;&gt;Node9 -->
<g id="edge9_Node000008_Node000009" class="edge">
<title>Node8&#45;&gt;Node9</title>
<g id="a_edge9_Node000008_Node000009"><a xlink:title=" ">
<path fill="none" stroke="#63b8ff" d="M748.65,-196.5C766.29,-196.5 784.21,-196.5 798.77,-196.5"/>
<polygon fill="#63b8ff" stroke="#63b8ff" points="799.19,-200 809.19,-196.5 799.19,-193 799.19,-200"/>
</a>
</g>
</g>
<!-- Node11 -->
<g id="Node000011" class="node">
<title>Node11</title>
<g id="a_Node000011"><a xlink:href="Matrix_8cpp.html#a329d78c031733cf22ff7518f5d38fd74" target="_top" xlink:title=" ">
<polygon fill="white" stroke="#666666" points="717,-147 631,-147 631,-128 717,-128 717,-147"/>
<text text-anchor="middle" x="674" y="-135" font-family="Helvetica,sans-Serif" font-size="10.00">AddHudMatrix</text>
</a>
</g>
</g>
<!-- Node10&#45;&gt;Node11 -->
<g id="edge11_Node000010_Node000011" class="edge">
<title>Node10&#45;&gt;Node11</title>
<g id="a_edge11_Node000010_Node000011"><a xlink:title=" ">
<path fill="none" stroke="#63b8ff" d="M550.2,-137.5C573.97,-137.5 599.23,-137.5 620.62,-137.5"/>
<polygon fill="#63b8ff" stroke="#63b8ff" points="620.78,-141 630.78,-137.5 620.78,-134 620.78,-141"/>
</a>
</g>
</g>
<!-- Node16 -->
<g id="Node000016" class="node">
<title>Node16</title>
<g id="a_Node000016"><a xlink:href="math__util__2_8c.html#ae71383a9d7f97bcb240b23f68068ab30" target="_top" xlink:title=" ">
<polygon fill="white" stroke="#666666" points="762,-76 586,-76 586,-57 762,-57 762,-76"/>
<text text-anchor="middle" x="674" y="-64" font-family="Helvetica,sans-Serif" font-size="10.00">mtxf_set_matrix_transformation</text>
</a>
</g>
</g>
<!-- Node10&#45;&gt;Node16 -->
<g id="edge17_Node000010_Node000016" class="edge">
<title>Node10&#45;&gt;Node16</title>
<g id="a_edge17_Node000010_Node000016"><a xlink:title=" ">
<path fill="none" stroke="#63b8ff" d="M511.08,-122.44C547.97,-109.7 600.29,-91.62 635.38,-79.5"/>
<polygon fill="#63b8ff" stroke="#63b8ff" points="636.92,-82.67 645.23,-76.09 634.64,-76.05 636.92,-82.67"/>
</a>
</g>
</g>
<!-- Node12 -->
<g id="Node000012" class="node">
<title>Node12</title>
<g id="a_Node000012"><a xlink:href="Matrix_8cpp.html#a67401ed1d8de1f4d3a3e5a7b72842b6a" target="_top" xlink:title=" ">
<polygon fill="white" stroke="#666666" points="865,-169 798,-169 798,-150 865,-150 865,-169"/>
<text text-anchor="middle" x="831.5" y="-157" font-family="Helvetica,sans-Serif" font-size="10.00">AddMatrix</text>
</a>
</g>
</g>
<!-- Node11&#45;&gt;Node12 -->
<g id="edge12_Node000011_Node000012" class="edge">
<title>Node11&#45;&gt;Node12</title>
<g id="a_edge12_Node000011_Node000012"><a xlink:title=" ">
<path fill="none" stroke="#63b8ff" d="M717.08,-143.45C738.98,-146.55 765.69,-150.33 787.69,-153.44"/>
<polygon fill="#63b8ff" stroke="#63b8ff" points="787.36,-156.93 797.76,-154.87 788.34,-150 787.36,-156.93"/>
</a>
</g>
</g>
<!-- Node15 -->
<g id="Node000015" class="node">
<title>Node15</title>
<g id="a_Node000015"><a xlink:href="Game_8cpp.html#ae2fa844b3cb1021ecbc357f8ed2ad8cc" target="_top" xlink:title=" ">
<polygon fill="white" stroke="#666666" points="862.5,-132 800.5,-132 800.5,-113 862.5,-113 862.5,-132"/>
<text text-anchor="middle" x="831.5" y="-120" font-family="Helvetica,sans-Serif" font-size="10.00">GetWorld</text>
</a>
</g>
</g>
<!-- Node11&#45;&gt;Node15 -->
<g id="edge16_Node000011_Node000015" class="edge">
<title>Node11&#45;&gt;Node15</title>
<g id="a_edge16_Node000011_Node000015"><a xlink:title=" ">
<path fill="none" stroke="#63b8ff" d="M717.08,-133.44C739.75,-131.25 767.59,-128.57 790.02,-126.41"/>
<polygon fill="#63b8ff" stroke="#63b8ff" points="790.6,-129.86 800.22,-125.42 789.93,-122.9 790.6,-129.86"/>
</a>
</g>
</g>
<!-- Node13 -->
<g id="Node000013" class="node">
<title>Node13</title>
<g id="a_Node000013"><a xlink:href="FrameInterpolation_8cpp.html#a8cf1f2d6fabc6925aa71a9515341b4aa" target="_top" xlink:title=" ">
<polygon fill="white" stroke="#666666" points="1059,-201.5 919,-201.5 919,-171.5 1059,-171.5 1059,-201.5"/>
<text text-anchor="start" x="927" y="-189.5" font-family="Helvetica,sans-Serif" font-size="10.00">FrameInterpolation</text>
<text text-anchor="middle" x="989" y="-178.5" font-family="Helvetica,sans-Serif" font-size="10.00">_RecordMatrixMtxFToMtx</text>
</a>
</g>
</g>
<!-- Node12&#45;&gt;Node13 -->
<g id="edge13_Node000012_Node000013" class="edge">
<title>Node12&#45;&gt;Node13</title>
<g id="a_edge13_Node000012_Node000013"><a xlink:title=" ">
<path fill="none" stroke="#63b8ff" d="M865.1,-165.16C877.96,-167.39 893.33,-170.06 908.79,-172.75"/>
<polygon fill="#63b8ff" stroke="#63b8ff" points="908.48,-176.25 918.93,-174.51 909.68,-169.35 908.48,-176.25"/>
</a>
</g>
</g>
<!-- Node14 -->
<g id="Node000014" class="node">
<title>Node14</title>
<g id="a_Node000014"><a xlink:href="guMtxF2L_8c.html#a40ab2d64c609839ff1e0ef0de2d0dcc4" target="_top" xlink:title=" ">
<polygon fill="white" stroke="#666666" points="1021.5,-153 956.5,-153 956.5,-134 1021.5,-134 1021.5,-153"/>
<text text-anchor="middle" x="989" y="-141" font-family="Helvetica,sans-Serif" font-size="10.00">guMtxF2L</text>
</a>
</g>
</g>
<!-- Node12&#45;&gt;Node14 -->
<g id="edge15_Node000012_Node000014" class="edge">
<title>Node12&#45;&gt;Node14</title>
<g id="a_edge15_Node000012_Node000014"><a xlink:title=" ">
<path fill="none" stroke="#63b8ff" d="M865.1,-156.15C888.66,-153.72 920.68,-150.43 946.14,-147.81"/>
<polygon fill="#63b8ff" stroke="#63b8ff" points="946.65,-151.27 956.24,-146.77 945.94,-144.31 946.65,-151.27"/>
</a>
</g>
</g>
<!-- Node13&#45;&gt;Node4 -->
<g id="edge14_Node000013_Node000004" class="edge">
<title>Node13&#45;&gt;Node4</title>
<g id="a_edge14_Node000013_Node000004"><a xlink:title=" ">
<path fill="none" stroke="#63b8ff" d="M1059.05,-195.92C1073.47,-197.88 1088.59,-199.94 1102.78,-201.88"/>
<polygon fill="#63b8ff" stroke="#63b8ff" points="1102.55,-205.38 1112.93,-203.26 1103.49,-198.44 1102.55,-205.38"/>
</a>
</g>
</g>
<!-- Node17 -->
<g id="Node000017" class="node">
<title>Node17</title>
<g id="a_Node000017"><a xlink:href="math__util_8c.html#ae69cbf5c8d4b3b0dba2d7b4d4673689f" target="_top" xlink:title=" ">
<polygon fill="white" stroke="#666666" points="850.5,-95 812.5,-95 812.5,-76 850.5,-76 850.5,-95"/>
<text text-anchor="middle" x="831.5" y="-83" font-family="Helvetica,sans-Serif" font-size="10.00">coss</text>
</a>
</g>
</g>
<!-- Node16&#45;&gt;Node17 -->
<g id="edge18_Node000016_Node000017" class="edge">
<title>Node16&#45;&gt;Node17</title>
<g id="a_edge18_Node000016_Node000017"><a xlink:title=" ">
<path fill="none" stroke="#63b8ff" d="M753.21,-76.06C770.75,-78.2 788.26,-80.34 802.17,-82.04"/>
<polygon fill="#63b8ff" stroke="#63b8ff" points="802.14,-85.56 812.49,-83.3 802.99,-78.61 802.14,-85.56"/>
</a>
</g>
</g>
<!-- Node18 -->
<g id="Node000018" class="node">
<title>Node18</title>
<g id="a_Node000018"><a xlink:href="FrameInterpolation_8cpp.html#af749df1a96bee5c78287b1845455ae2d" target="_top" xlink:title=" ">
<polygon fill="white" stroke="#666666" points="1077,-89.5 901,-89.5 901,-59.5 1077,-59.5 1077,-89.5"/>
<text text-anchor="start" x="909" y="-77.5" font-family="Helvetica,sans-Serif" font-size="10.00">FrameInterpolation</text>
<text text-anchor="middle" x="989" y="-66.5" font-family="Helvetica,sans-Serif" font-size="10.00">_RecordSetMatrixTransformation</text>
</a>
</g>
</g>
<!-- Node16&#45;&gt;Node18 -->
<g id="edge19_Node000016_Node000018" class="edge">
<title>Node16&#45;&gt;Node18</title>
<g id="a_edge19_Node000016_Node000018"><a xlink:title=" ">
<path fill="none" stroke="#63b8ff" d="M762.04,-65.31C794.38,-65.19 831.37,-65.41 865,-66.5 873.3,-66.77 881.91,-67.14 890.55,-67.58"/>
<polygon fill="#63b8ff" stroke="#63b8ff" points="890.51,-71.08 900.68,-68.12 890.88,-64.09 890.51,-71.08"/>
</a>
</g>
</g>
<!-- Node19 -->
<g id="Node000019" class="node">
<title>Node19</title>
<g id="a_Node000019"><a xlink:href="math__util_8c.html#a19ed3bd78fd2d3e2bd0a29f6caf48545" target="_top" xlink:title=" ">
<polygon fill="white" stroke="#666666" points="849.5,-19 813.5,-19 813.5,0 849.5,0 849.5,-19"/>
<text text-anchor="middle" x="831.5" y="-7" font-family="Helvetica,sans-Serif" font-size="10.00">sins</text>
</a>
</g>
</g>
<!-- Node16&#45;&gt;Node19 -->
<g id="edge21_Node000016_Node000019" class="edge">
<title>Node16&#45;&gt;Node19</title>
<g id="a_edge21_Node000016_Node000019"><a xlink:title=" ">
<path fill="none" stroke="#63b8ff" d="M701.03,-56.96C729.49,-46.53 774.87,-29.89 803.65,-19.34"/>
<polygon fill="#63b8ff" stroke="#63b8ff" points="804.9,-22.61 813.09,-15.88 802.49,-16.04 804.9,-22.61"/>
</a>
</g>
</g>
<!-- Node18&#45;&gt;Node4 -->
<g id="edge20_Node000018_Node000004" class="edge">
<title>Node18&#45;&gt;Node4</title>
<g id="a_edge20_Node000018_Node000004"><a xlink:title=" ">
<path fill="none" stroke="#63b8ff" d="M1020.54,-89.66C1037.77,-98.79 1059.32,-111.2 1077,-124.5 1105.14,-145.67 1133.73,-174.98 1150.66,-193.34"/>
<polygon fill="#63b8ff" stroke="#63b8ff" points="1148.25,-195.89 1157.57,-200.93 1153.43,-191.18 1148.25,-195.89"/>
</a>
</g>
</g>
</g>
</svg>
