<?xml version="1.0" encoding="UTF-8" standalone="no"?>
<!DOCTYPE svg PUBLIC "-//W3C//DTD SVG 1.1//EN"
 "http://www.w3.org/Graphics/SVG/1.1/DTD/svg11.dtd">
<!-- Generated by graphviz version 2.43.0 (0)
 -->
<!-- Title: func_80290C20 Pages: 1 -->
<svg width="285pt" height="545pt"
 viewBox="0.00 0.00 285.00 545.00" xmlns="http://www.w3.org/2000/svg" xmlns:xlink="http://www.w3.org/1999/xlink">
<g id="graph0" class="graph" transform="scale(1 1) rotate(0) translate(4 541)">
<title>func_80290C20</title>
<!-- Node1 -->
<g id="Node000001" class="node">
<title>Node1</title>
<g id="a_Node000001"><a xlink:title=" ">
<polygon fill="#999999" stroke="#666666" points="277,-278 185,-278 185,-259 277,-259 277,-278"/>
<text text-anchor="middle" x="231" y="-266" font-family="Helvetica,sans-Serif" font-size="10.00">func_80290C20</text>
</a>
</g>
</g>
<!-- Node2 -->
<g id="Node000002" class="node">
<title>Node2</title>
<g id="a_Node000002"><a xlink:href="classSherbetLand.html#a8920d448b38a9ca5174ee1150c569746" target="_top" xlink:title=" ">
<polygon fill="white" stroke="#666666" points="143,-537 6,-537 6,-518 143,-518 143,-537"/>
<text text-anchor="middle" x="74.5" y="-525" font-family="Helvetica,sans-Serif" font-size="10.00">SherbetLand::DrawWater</text>
</a>
</g>
</g>
<!-- Node1&#45;&gt;Node2 -->
<g id="edge1_Node000001_Node000002" class="edge">
<title>Node1&#45;&gt;Node2</title>
<g id="a_edge1_Node000001_Node000002"><a xlink:title=" ">
<path fill="none" stroke="#63b8ff" d="M229.47,-288.17C227.11,-334.12 214.61,-449.19 149,-509.5 145.32,-512.88 141.12,-515.65 136.63,-517.92"/>
<polygon fill="#63b8ff" stroke="#63b8ff" points="232.97,-288.18 229.87,-278.05 225.97,-287.9 232.97,-288.18"/>
</a>
</g>
</g>
<!-- Node3 -->
<g id="Node000003" class="node">
<title>Node3</title>
<g id="a_Node000003"><a xlink:href="classBigDonut.html#a7896213233573878a6f13f072cf8109a" target="_top" xlink:title=" ">
<polygon fill="white" stroke="#666666" points="125.5,-500 23.5,-500 23.5,-481 125.5,-481 125.5,-500"/>
<text text-anchor="middle" x="74.5" y="-488" font-family="Helvetica,sans-Serif" font-size="10.00">BigDonut::Render</text>
</a>
</g>
</g>
<!-- Node1&#45;&gt;Node3 -->
<g id="edge2_Node000001_Node000003" class="edge">
<title>Node1&#45;&gt;Node3</title>
<g id="a_edge2_Node000001_Node000003"><a xlink:title=" ">
<path fill="none" stroke="#63b8ff" d="M228.06,-288.45C222.98,-329.43 205.47,-423.32 149,-472.5 142.36,-478.28 134.16,-482.27 125.68,-485.01"/>
<polygon fill="#63b8ff" stroke="#63b8ff" points="231.55,-288.71 229.19,-278.38 224.6,-287.93 231.55,-288.71"/>
</a>
</g>
</g>
<!-- Node4 -->
<g id="Node000004" class="node">
<title>Node4</title>
<g id="a_Node000004"><a xlink:href="classBowsersCastle.html#af670116693c9440f1f6ff5d26a7a18f8" target="_top" xlink:title=" ">
<polygon fill="white" stroke="#666666" points="139,-463 10,-463 10,-444 139,-444 139,-463"/>
<text text-anchor="middle" x="74.5" y="-451" font-family="Helvetica,sans-Serif" font-size="10.00">BowsersCastle::Render</text>
</a>
</g>
</g>
<!-- Node1&#45;&gt;Node4 -->
<g id="edge3_Node000001_Node000004" class="edge">
<title>Node1&#45;&gt;Node4</title>
<g id="a_edge3_Node000001_Node000004"><a xlink:title=" ">
<path fill="none" stroke="#63b8ff" d="M226.17,-288.18C218.26,-323.36 196.72,-396.94 149,-435.5 144.81,-438.89 140.08,-441.65 135.08,-443.9"/>
<polygon fill="#63b8ff" stroke="#63b8ff" points="229.63,-288.71 228.27,-278.2 222.79,-287.27 229.63,-288.71"/>
</a>
</g>
</g>
<!-- Node5 -->
<g id="Node000005" class="node">
<title>Node5</title>
<g id="a_Node000005"><a xlink:href="classChocoMountain.html#aa64bf253e5759e09a98d47d6eb96d965" target="_top" xlink:title=" ">
<polygon fill="white" stroke="#666666" points="141,-426 8,-426 8,-407 141,-407 141,-426"/>
<text text-anchor="middle" x="74.5" y="-414" font-family="Helvetica,sans-Serif" font-size="10.00">ChocoMountain::Render</text>
</a>
</g>
</g>
<!-- Node1&#45;&gt;Node5 -->
<g id="edge4_Node000001_Node000005" class="edge">
<title>Node1&#45;&gt;Node5</title>
<g id="a_edge4_Node000001_Node000005"><a xlink:title=" ">
<path fill="none" stroke="#63b8ff" d="M223.39,-287.8C212.54,-316.51 188.15,-370.14 149,-398.5 144.32,-401.89 139.08,-404.65 133.6,-406.89"/>
<polygon fill="#63b8ff" stroke="#63b8ff" points="226.79,-288.71 226.89,-278.12 220.2,-286.33 226.79,-288.71"/>
</a>
</g>
</g>
<!-- Node6 -->
<g id="Node000006" class="node">
<title>Node6</title>
<g id="a_Node000006"><a xlink:href="classDKJungle.html#abb8ab2f6dba395f0f89448973196bc64" target="_top" xlink:title=" ">
<polygon fill="white" stroke="#666666" points="125,-389 24,-389 24,-370 125,-370 125,-389"/>
<text text-anchor="middle" x="74.5" y="-377" font-family="Helvetica,sans-Serif" font-size="10.00">DKJungle::Render</text>
</a>
</g>
</g>
<!-- Node1&#45;&gt;Node6 -->
<g id="edge5_Node000001_Node000006" class="edge">
<title>Node1&#45;&gt;Node6</title>
<g id="a_edge5_Node000001_Node000006"><a xlink:title=" ">
<path fill="none" stroke="#63b8ff" d="M219.02,-286.86C205.33,-308.13 179.92,-342.66 149,-361.5 141.71,-365.94 133.38,-369.29 125.01,-371.81"/>
<polygon fill="#63b8ff" stroke="#63b8ff" points="222.15,-288.46 224.47,-278.12 216.21,-284.76 222.15,-288.46"/>
</a>
</g>
</g>
<!-- Node7 -->
<g id="Node000007" class="node">
<title>Node7</title>
<g id="a_Node000007"><a xlink:href="classFrappeSnowland.html#a1fd083ac467df5829a3fd99525eb06f5" target="_top" xlink:title=" ">
<polygon fill="white" stroke="#666666" points="143,-352 6,-352 6,-333 143,-333 143,-352"/>
<text text-anchor="middle" x="74.5" y="-340" font-family="Helvetica,sans-Serif" font-size="10.00">FrappeSnowland::Render</text>
</a>
</g>
</g>
<!-- Node1&#45;&gt;Node7 -->
<g id="edge6_Node000001_Node000007" class="edge">
<title>Node1&#45;&gt;Node7</title>
<g id="a_edge6_Node000001_Node000007"><a xlink:title=" ">
<path fill="none" stroke="#63b8ff" d="M211.13,-284.54C195.43,-297.11 172.02,-314.15 149,-324.5 141.57,-327.84 133.43,-330.62 125.36,-332.91"/>
<polygon fill="#63b8ff" stroke="#63b8ff" points="213.48,-287.13 219,-278.09 209.05,-281.72 213.48,-287.13"/>
</a>
</g>
</g>
<!-- Node8 -->
<g id="Node000008" class="node">
<title>Node8</title>
<g id="a_Node000008"><a xlink:href="classHarbour.html#a540299eba3e43740e598cc54ff5d284d" target="_top" xlink:title=" ">
<polygon fill="white" stroke="#666666" points="122.5,-315 26.5,-315 26.5,-296 122.5,-296 122.5,-315"/>
<text text-anchor="middle" x="74.5" y="-303" font-family="Helvetica,sans-Serif" font-size="10.00">Harbour::Render</text>
</a>
</g>
</g>
<!-- Node1&#45;&gt;Node8 -->
<g id="edge7_Node000001_Node000008" class="edge">
<title>Node1&#45;&gt;Node8</title>
<g id="a_edge7_Node000001_Node000008"><a xlink:title=" ">
<path fill="none" stroke="#63b8ff" d="M180.2,-280.43C159.25,-285.44 135.19,-291.21 115.42,-295.94"/>
<polygon fill="#63b8ff" stroke="#63b8ff" points="181.3,-283.76 190.21,-278.03 179.67,-276.95 181.3,-283.76"/>
</a>
</g>
</g>
<!-- Node9 -->
<g id="Node000009" class="node">
<title>Node9</title>
<g id="a_Node000009"><a xlink:href="classKalimariDesert.html#aad824dbb6927b40d907cb96d2c62e223" target="_top" xlink:title=" ">
<polygon fill="white" stroke="#666666" points="140,-278 9,-278 9,-259 140,-259 140,-278"/>
<text text-anchor="middle" x="74.5" y="-266" font-family="Helvetica,sans-Serif" font-size="10.00">KalimariDesert::Render</text>
</a>
</g>
</g>
<!-- Node1&#45;&gt;Node9 -->
<g id="edge8_Node000001_Node000009" class="edge">
<title>Node1&#45;&gt;Node9</title>
<g id="a_edge8_Node000001_Node000009"><a xlink:title=" ">
<path fill="none" stroke="#63b8ff" d="M174.81,-268.5C163.59,-268.5 151.69,-268.5 140.18,-268.5"/>
<polygon fill="#63b8ff" stroke="#63b8ff" points="174.9,-272 184.9,-268.5 174.9,-265 174.9,-272"/>
</a>
</g>
</g>
<!-- Node10 -->
<g id="Node000010" class="node">
<title>Node10</title>
<g id="a_Node000010"><a xlink:href="classKoopaTroopaBeach.html#aafdd68838a096c5b0ce03cbe52fa1996" target="_top" xlink:title=" ">
<polygon fill="white" stroke="#666666" points="149,-241 0,-241 0,-222 149,-222 149,-241"/>
<text text-anchor="middle" x="74.5" y="-229" font-family="Helvetica,sans-Serif" font-size="10.00">KoopaTroopaBeach::Render</text>
</a>
</g>
</g>
<!-- Node1&#45;&gt;Node10 -->
<g id="edge9_Node000001_Node000010" class="edge">
<title>Node1&#45;&gt;Node10</title>
<g id="a_edge9_Node000001_Node000010"><a xlink:title=" ">
<path fill="none" stroke="#63b8ff" d="M180.2,-256.57C159.25,-251.56 135.19,-245.79 115.42,-241.06"/>
<polygon fill="#63b8ff" stroke="#63b8ff" points="179.67,-260.05 190.21,-258.97 181.3,-253.24 179.67,-260.05"/>
</a>
</g>
</g>
<!-- Node11 -->
<g id="Node000011" class="node">
<title>Node11</title>
<g id="a_Node000011"><a xlink:href="classLuigiRaceway.html#a50da353726332129520768fb119ceb3e" target="_top" xlink:title=" ">
<polygon fill="white" stroke="#666666" points="136.5,-204 12.5,-204 12.5,-185 136.5,-185 136.5,-204"/>
<text text-anchor="middle" x="74.5" y="-192" font-family="Helvetica,sans-Serif" font-size="10.00">LuigiRaceway::Render</text>
</a>
</g>
</g>
<!-- Node1&#45;&gt;Node11 -->
<g id="edge10_Node000001_Node000011" class="edge">
<title>Node1&#45;&gt;Node11</title>
<g id="a_edge10_Node000001_Node000011"><a xlink:title=" ">
<path fill="none" stroke="#63b8ff" d="M210.77,-252.63C195.04,-240.36 171.74,-223.78 149,-213.5 140.71,-209.75 131.55,-206.64 122.6,-204.1"/>
<polygon fill="#63b8ff" stroke="#63b8ff" points="208.69,-255.44 218.69,-258.94 213.05,-249.97 208.69,-255.44"/>
</a>
</g>
</g>
<!-- Node12 -->
<g id="Node000012" class="node">
<title>Node12</title>
<g id="a_Node000012"><a xlink:href="classMarioRaceway.html#a4132ff796ca22dc242d26081946a5032" target="_top" xlink:title=" ">
<polygon fill="white" stroke="#666666" points="138.5,-167 10.5,-167 10.5,-148 138.5,-148 138.5,-167"/>
<text text-anchor="middle" x="74.5" y="-155" font-family="Helvetica,sans-Serif" font-size="10.00">MarioRaceway::Render</text>
</a>
</g>
</g>
<!-- Node1&#45;&gt;Node12 -->
<g id="edge11_Node000001_Node000012" class="edge">
<title>Node1&#45;&gt;Node12</title>
<g id="a_edge11_Node000001_Node000012"><a xlink:title=" ">
<path fill="none" stroke="#63b8ff" d="M218.72,-250.08C204.9,-229.08 179.5,-195.24 149,-176.5 142.71,-172.64 135.66,-169.55 128.47,-167.1"/>
<polygon fill="#63b8ff" stroke="#63b8ff" points="215.91,-252.18 224.24,-258.73 221.81,-248.41 215.91,-252.18"/>
</a>
</g>
</g>
<!-- Node13 -->
<g id="Node000013" class="node">
<title>Node13</title>
<g id="a_Node000013"><a xlink:href="classPodiumCeremony.html#af02d82c0d12de76bfedbb8d2e6cf3ff5" target="_top" xlink:title=" ">
<polygon fill="white" stroke="#666666" points="146,-130 3,-130 3,-111 146,-111 146,-130"/>
<text text-anchor="middle" x="74.5" y="-118" font-family="Helvetica,sans-Serif" font-size="10.00">PodiumCeremony::Render</text>
</a>
</g>
</g>
<!-- Node1&#45;&gt;Node13 -->
<g id="edge12_Node000001_Node000013" class="edge">
<title>Node1&#45;&gt;Node13</title>
<g id="a_edge12_Node000001_Node000013"><a xlink:title=" ">
<path fill="none" stroke="#63b8ff" d="M223.31,-249.41C212.34,-221 187.8,-167.88 149,-139.5 143.68,-135.61 137.64,-132.51 131.35,-130.05"/>
<polygon fill="#63b8ff" stroke="#63b8ff" points="220.1,-250.83 226.85,-258.99 226.66,-248.4 220.1,-250.83"/>
</a>
</g>
</g>
<!-- Node14 -->
<g id="Node000014" class="node">
<title>Node14</title>
<g id="a_Node000014"><a xlink:href="classRoyalRaceway.html#ac18c4d1a3c18d52432d234ee7f42be6f" target="_top" xlink:title=" ">
<polygon fill="white" stroke="#666666" points="138.5,-93 10.5,-93 10.5,-74 138.5,-74 138.5,-93"/>
<text text-anchor="middle" x="74.5" y="-81" font-family="Helvetica,sans-Serif" font-size="10.00">RoyalRaceway::Render</text>
</a>
</g>
</g>
<!-- Node1&#45;&gt;Node14 -->
<g id="edge13_Node000001_Node000014" class="edge">
<title>Node1&#45;&gt;Node14</title>
<g id="a_edge13_Node000001_Node000014"><a xlink:title=" ">
<path fill="none" stroke="#63b8ff" d="M226.08,-248.99C218.04,-214.12 196.29,-141.12 149,-102.5 144.3,-98.66 138.92,-95.59 133.25,-93.14"/>
<polygon fill="#63b8ff" stroke="#63b8ff" points="222.69,-249.85 228.23,-258.88 229.53,-248.37 222.69,-249.85"/>
</a>
</g>
</g>
<!-- Node15 -->
<g id="Node000015" class="node">
<title>Node15</title>
<g id="a_Node000015"><a xlink:href="classTestCourse.html#a0a43681ce7533ac15544f6cc4d123a12" target="_top" xlink:title=" ">
<polygon fill="white" stroke="#666666" points="129.5,-56 19.5,-56 19.5,-37 129.5,-37 129.5,-56"/>
<text text-anchor="middle" x="74.5" y="-44" font-family="Helvetica,sans-Serif" font-size="10.00">TestCourse::Render</text>
</a>
</g>
</g>
<!-- Node1&#45;&gt;Node15 -->
<g id="edge14_Node000001_Node000015" class="edge">
<title>Node1&#45;&gt;Node15</title>
<g id="a_edge14_Node000001_Node000015"><a xlink:title=" ">
<path fill="none" stroke="#63b8ff" d="M227.98,-248.7C222.74,-208.03 204.96,-114.79 149,-65.5 143.46,-60.62 136.83,-56.97 129.85,-54.24"/>
<polygon fill="#63b8ff" stroke="#63b8ff" points="224.51,-249.17 229.14,-258.7 231.46,-248.36 224.51,-249.17"/>
</a>
</g>
</g>
<!-- Node16 -->
<g id="Node000016" class="node">
<title>Node16</title>
<g id="a_Node000016"><a xlink:href="classWarioStadium.html#a7b544197ce58d2c2ddca33649b687457" target="_top" xlink:title=" ">
<polygon fill="white" stroke="#666666" points="137,-19 12,-19 12,0 137,0 137,-19"/>
<text text-anchor="middle" x="74.5" y="-7" font-family="Helvetica,sans-Serif" font-size="10.00">WarioStadium::Render</text>
</a>
</g>
</g>
<!-- Node1&#45;&gt;Node16 -->
<g id="edge15_Node000001_Node000016" class="edge">
<title>Node1&#45;&gt;Node16</title>
<g id="a_edge15_Node000001_Node000016"><a xlink:title=" ">
<path fill="none" stroke="#63b8ff" d="M229.35,-248.34C226.74,-202.28 213.72,-88.69 149,-28.5 144.85,-24.64 140.02,-21.54 134.86,-19.06"/>
<polygon fill="#63b8ff" stroke="#63b8ff" points="225.86,-248.69 229.82,-258.52 232.86,-248.37 225.86,-248.69"/>
</a>
</g>
</g>
</g>
</svg>
