<?xml version="1.0" encoding="UTF-8" standalone="no"?>
<!DOCTYPE svg PUBLIC "-//W3C//DTD SVG 1.1//EN"
 "http://www.w3.org/Graphics/SVG/1.1/DTD/svg11.dtd">
<!-- Generated by graphviz version 2.43.0 (0)
 -->
<!-- Title: src/engine/courses/RoyalRaceway.h Pages: 1 -->
<!--zoomable 390 -->

<svg id="main" version="1.1" xmlns="http://www.w3.org/2000/svg" xmlns:xlink="http://www.w3.org/1999/xlink" xml:space="preserve" onload="init(evt)">

<style type="text/css"><![CDATA[
.node, .edge {opacity: 0.7;}
.node.selected, .edge.selected {opacity: 1;}
.edge:hover path { stroke: red; }
.edge:hover polygon { stroke: red; fill: red; }
]]></style>

<defs>
  <circle id="rim" cx="0" cy="0" r="7"/>
  <circle id="rim2" cx="0" cy="0" r="3.5"/>
  <g id="zoomPlus">
    <use xlink:href="#rim" fill="#404040"><set attributeName="fill" to="#808080" begin="zoomplus.mouseover" end="zoomplus.mouseout"/></use>
    <path d="M-4,0h8M0,-4v8" fill="none" stroke="white" stroke-width="1.5" pointer-events="none"/>
  </g>
  <g id="zoomMin">
    <use xlink:href="#rim" fill="#404040"><set attributeName="fill" to="#808080" begin="zoomminus.mouseover" end="zoomminus.mouseout"/></use>
    <path d="M-4,0h8" fill="none" stroke="white" stroke-width="1.5" pointer-events="none"/>
  </g>
  <g id="arrowUp" transform="translate(30 24)">
    <use xlink:href="#rim"/>
    <path pointer-events="none" fill="none" stroke="white" stroke-width="1.5" d="M0,-3.0v7 M-2.5,-0.5L0,-3.0L2.5,-0.5"/>
  </g>
  <g id="arrowRight" transform="rotate(90) translate(36 -43)">
    <use xlink:href="#rim"/>
    <path pointer-events="none" fill="none" stroke="white" stroke-width="1.5" d="M0,-3.0v7 M-2.5,-0.5L0,-3.0L2.5,-0.5"/>
  </g>
  <g id="arrowDown" transform="rotate(180) translate(-30 -48)">
    <use xlink:href="#rim"/>
    <path pointer-events="none" fill="none" stroke="white" stroke-width="1.5" d="M0,-3.0v7 M-2.5,-0.5L0,-3.0L2.5,-0.5"/>
  </g>
  <g id="arrowLeft" transform="rotate(270) translate(-36 17)">
    <use xlink:href="#rim"/>
    <path pointer-events="none" fill="none" stroke="white" stroke-width="1.5" d="M0,-3.0v7 M-2.5,-0.5L0,-3.0L2.5,-0.5"/>
  </g>
  <g id="resetDef">
    <use xlink:href="#rim2" fill="#404040"><set attributeName="fill" to="#808080" begin="reset.mouseover" end="reset.mouseout"/></use>
  </g>
</defs>
<script type="application/ecmascript">
var viewWidth = 1372;
var viewHeight = 390;
var sectionId = 'dynsection-0';
</script>
<script type="application/ecmascript" xlink:href="svg.min.js"/>
<svg id="graph" class="graph">
<g id="viewport">
<title>src/engine/courses/RoyalRaceway.h</title>
<!-- Node1 -->
<g id="Node000001" class="node">
<title>Node1</title>
<g id="a_Node000001"><a xlink:title=" ">
<polygon fill="#999999" stroke="#666666" points="970.5,-382 863.5,-382 863.5,-352 970.5,-352 970.5,-382"/>
<text text-anchor="start" x="871.5" y="-370" font-family="Helvetica,sans-Serif" font-size="10.00">src/engine/courses</text>
<text text-anchor="middle" x="917" y="-359" font-family="Helvetica,sans-Serif" font-size="10.00">/RoyalRaceway.h</text>
</a>
</g>
</g>
<!-- Node2 -->
<g id="Node000002" class="node">
<title>Node2</title>
<g id="a_Node000002"><a xlink:title=" ">
<polygon fill="#e0e0e0" stroke="#999999" points="400,-19 320,-19 320,0 400,0 400,-19"/>
<text text-anchor="middle" x="360" y="-7" font-family="Helvetica,sans-Serif" font-size="10.00">libultraship.h</text>
</a>
</g>
</g>
<!-- Node1&#45;&gt;Node2 -->
<g id="edge1_Node000001_Node000002" class="edge">
<title>Node1&#45;&gt;Node2</title>
<g id="a_edge1_Node000001_Node000002"><a xlink:title=" ">
<path fill="none" stroke="#63b8ff" d="M970.92,-363.63C1089.81,-356.92 1364,-332.77 1364,-252.5 1364,-252.5 1364,-252.5 1364,-129.5 1364,-33.39 1255.12,-74.43 1161,-55 1016.5,-25.16 562.49,-14.23 410.29,-11.35"/>
<polygon fill="#63b8ff" stroke="#63b8ff" points="410.35,-7.85 400.29,-11.16 410.22,-14.85 410.35,-7.85"/>
</a>
</g>
</g>
<!-- Node3 -->
<g id="Node000003" class="node">
<title>Node3</title>
<g id="a_Node000003"><a xlink:href="Course_8h.html" target="_top" xlink:title=" ">
<polygon fill="white" stroke="#666666" points="879.5,-316 820.5,-316 820.5,-297 879.5,-297 879.5,-316"/>
<text text-anchor="middle" x="850" y="-304" font-family="Helvetica,sans-Serif" font-size="10.00">Course.h</text>
</a>
</g>
</g>
<!-- Node1&#45;&gt;Node3 -->
<g id="edge2_Node000001_Node000003" class="edge">
<title>Node1&#45;&gt;Node3</title>
<g id="a_edge2_Node000001_Node000003"><a xlink:title=" ">
<path fill="none" stroke="#63b8ff" d="M900.78,-351.84C890.76,-343.09 877.89,-331.85 867.62,-322.88"/>
<polygon fill="#63b8ff" stroke="#63b8ff" points="869.87,-320.21 860.04,-316.27 865.27,-325.48 869.87,-320.21"/>
</a>
</g>
</g>
<!-- Node6 -->
<g id="Node000006" class="node">
<title>Node6</title>
<g id="a_Node000006"><a xlink:href="camera_8h.html" target="_top" xlink:title=" ">
<polygon fill="white" stroke="#666666" points="564,-206 502,-206 502,-187 564,-187 564,-206"/>
<text text-anchor="middle" x="533" y="-194" font-family="Helvetica,sans-Serif" font-size="10.00">camera.h</text>
</a>
</g>
</g>
<!-- Node1&#45;&gt;Node6 -->
<g id="edge61_Node000001_Node000006" class="edge">
<title>Node1&#45;&gt;Node6</title>
<g id="a_edge61_Node000001_Node000006"><a xlink:title=" ">
<path fill="none" stroke="#63b8ff" d="M863.29,-359.35C767.22,-346.24 572.21,-313.65 532,-261 522.39,-248.42 523.88,-229.97 527.03,-216.19"/>
<polygon fill="#63b8ff" stroke="#63b8ff" points="530.46,-216.92 529.74,-206.35 523.71,-215.06 530.46,-216.92"/>
</a>
</g>
</g>
<!-- Node8 -->
<g id="Node000008" class="node">
<title>Node8</title>
<g id="a_Node000008"><a xlink:href="course__offsets_8h.html" target="_top" xlink:title=" ">
<polygon fill="white" stroke="#666666" points="484,-206 388,-206 388,-187 484,-187 484,-206"/>
<text text-anchor="middle" x="436" y="-194" font-family="Helvetica,sans-Serif" font-size="10.00">course_offsets.h</text>
</a>
</g>
</g>
<!-- Node1&#45;&gt;Node8 -->
<g id="edge60_Node000001_Node000008" class="edge">
<title>Node1&#45;&gt;Node8</title>
<g id="a_edge60_Node000001_Node000008"><a xlink:title=" ">
<path fill="none" stroke="#63b8ff" d="M863.42,-363.9C797.08,-359.94 681.42,-348.58 588,-316 541.57,-299.81 530.11,-292.08 492,-261 474.99,-247.13 458.78,-227.84 448.21,-214.17"/>
<polygon fill="#63b8ff" stroke="#63b8ff" points="450.95,-211.99 442.14,-206.11 445.36,-216.2 450.95,-211.99"/>
</a>
</g>
</g>
<!-- Node14 -->
<g id="Node000014" class="node">
<title>Node14</title>
<g id="a_Node000014"><a xlink:href="src_2data_2some__data_8h.html" target="_top" xlink:title=" ">
<polygon fill="white" stroke="#666666" points="1282,-261 1178,-261 1178,-242 1282,-242 1282,-261"/>
<text text-anchor="middle" x="1230" y="-249" font-family="Helvetica,sans-Serif" font-size="10.00">data/some_data.h</text>
</a>
</g>
</g>
<!-- Node1&#45;&gt;Node14 -->
<g id="edge62_Node000001_Node000014" class="edge">
<title>Node1&#45;&gt;Node14</title>
<g id="a_edge62_Node000001_Node000014"><a xlink:title=" ">
<path fill="none" stroke="#63b8ff" d="M955.69,-351.97C1017.7,-329.49 1138.25,-285.77 1196.67,-264.59"/>
<polygon fill="#63b8ff" stroke="#63b8ff" points="1197.95,-267.84 1206.16,-261.14 1195.57,-261.26 1197.95,-267.84"/>
</a>
</g>
</g>
<!-- Node16 -->
<g id="Node000016" class="node">
<title>Node16</title>
<g id="a_Node000016"><a xlink:href="objects_8h.html" target="_top" xlink:title=" ">
<polygon fill="white" stroke="#666666" points="1335.5,-206 1274.5,-206 1274.5,-187 1335.5,-187 1335.5,-206"/>
<text text-anchor="middle" x="1305" y="-194" font-family="Helvetica,sans-Serif" font-size="10.00">objects.h</text>
</a>
</g>
</g>
<!-- Node1&#45;&gt;Node16 -->
<g id="edge63_Node000001_Node000016" class="edge">
<title>Node1&#45;&gt;Node16</title>
<g id="a_edge63_Node000001_Node000016"><a xlink:title=" ">
<path fill="none" stroke="#63b8ff" d="M970.72,-357.83C1063.28,-342.68 1247.14,-307.47 1291,-261 1302.25,-249.08 1305.24,-230.26 1305.72,-216.19"/>
<polygon fill="#63b8ff" stroke="#63b8ff" points="1309.22,-216.14 1305.68,-206.16 1302.22,-216.17 1309.22,-216.14"/>
</a>
</g>
</g>
<!-- Node21 -->
<g id="Node000021" class="node">
<title>Node21</title>
<g id="a_Node000021"><a xlink:href="path__spawn__metadata_8h.html" target="_top" xlink:title=" ">
<polygon fill="white" stroke="#666666" points="1121.5,-261 984.5,-261 984.5,-242 1121.5,-242 1121.5,-261"/>
<text text-anchor="middle" x="1053" y="-249" font-family="Helvetica,sans-Serif" font-size="10.00">path_spawn_metadata.h</text>
</a>
</g>
</g>
<!-- Node1&#45;&gt;Node21 -->
<g id="edge64_Node000001_Node000021" class="edge">
<title>Node1&#45;&gt;Node21</title>
<g id="a_edge64_Node000001_Node000021"><a xlink:title=" ">
<path fill="none" stroke="#63b8ff" d="M933.95,-351.85C959.65,-330.41 1008.28,-289.82 1034.74,-267.74"/>
<polygon fill="#63b8ff" stroke="#63b8ff" points="1037.06,-270.37 1042.49,-261.27 1032.57,-264.99 1037.06,-270.37"/>
</a>
</g>
</g>
<!-- Node25 -->
<g id="Node000025" class="node">
<title>Node25</title>
<g id="a_Node000025"><a xlink:href="royal__raceway__vertices_8h.html" target="_top" xlink:title=" ">
<polygon fill="white" stroke="#666666" points="275,-151 155,-151 155,-110 275,-110 275,-151"/>
<text text-anchor="start" x="163" y="-139" font-family="Helvetica,sans-Serif" font-size="10.00">assets/models/tracks</text>
<text text-anchor="start" x="163" y="-128" font-family="Helvetica,sans-Serif" font-size="10.00">/royal_raceway/royal</text>
<text text-anchor="middle" x="215" y="-117" font-family="Helvetica,sans-Serif" font-size="10.00">_raceway_vertices.h</text>
</a>
</g>
</g>
<!-- Node1&#45;&gt;Node25 -->
<g id="edge48_Node000001_Node000025" class="edge">
<title>Node1&#45;&gt;Node25</title>
<g id="a_edge48_Node000001_Node000025"><a xlink:title=" ">
<path fill="none" stroke="#63b8ff" d="M863.42,-362.87C764.2,-356.57 555.78,-340.79 488,-316 388.71,-279.69 290.5,-199.65 243.56,-157.94"/>
<polygon fill="#63b8ff" stroke="#63b8ff" points="245.72,-155.18 235.94,-151.11 241.04,-160.39 245.72,-155.18"/>
</a>
</g>
</g>
<!-- Node26 -->
<g id="Node000026" class="node">
<title>Node26</title>
<g id="a_Node000026"><a xlink:href="royal__raceway__displaylists_8h.html" target="_top" xlink:title=" ">
<polygon fill="white" stroke="#666666" points="426.5,-151 293.5,-151 293.5,-110 426.5,-110 426.5,-151"/>
<text text-anchor="start" x="301.5" y="-139" font-family="Helvetica,sans-Serif" font-size="10.00">assets/models/tracks</text>
<text text-anchor="start" x="301.5" y="-128" font-family="Helvetica,sans-Serif" font-size="10.00">/royal_raceway/royal</text>
<text text-anchor="middle" x="360" y="-117" font-family="Helvetica,sans-Serif" font-size="10.00">_raceway_displaylists.h</text>
</a>
</g>
</g>
<!-- Node1&#45;&gt;Node26 -->
<g id="edge52_Node000001_Node000026" class="edge">
<title>Node1&#45;&gt;Node26</title>
<g id="a_edge52_Node000001_Node000026"><a xlink:title=" ">
<path fill="none" stroke="#63b8ff" d="M863.27,-366.74C788,-366.06 648.06,-358.46 538,-316 457.83,-285.07 428.06,-276.55 379,-206 369.86,-192.86 365.12,-175.69 362.65,-161.14"/>
<polygon fill="#63b8ff" stroke="#63b8ff" points="366.1,-160.52 361.23,-151.11 359.17,-161.5 366.1,-160.52"/>
</a>
</g>
</g>
<!-- Node27 -->
<g id="Node000027" class="node">
<title>Node27</title>
<g id="a_Node000027"><a xlink:href="models_2tracks_2royal__raceway_2royal__raceway__data_8h.html" target="_top" xlink:title=" ">
<polygon fill="white" stroke="#666666" points="641,-151 521,-151 521,-110 641,-110 641,-151"/>
<text text-anchor="start" x="529" y="-139" font-family="Helvetica,sans-Serif" font-size="10.00">assets/models/tracks</text>
<text text-anchor="start" x="529" y="-128" font-family="Helvetica,sans-Serif" font-size="10.00">/royal_raceway/royal</text>
<text text-anchor="middle" x="581" y="-117" font-family="Helvetica,sans-Serif" font-size="10.00">_raceway_data.h</text>
</a>
</g>
</g>
<!-- Node1&#45;&gt;Node27 -->
<g id="edge56_Node000001_Node000027" class="edge">
<title>Node1&#45;&gt;Node27</title>
<g id="a_edge56_Node000001_Node000027"><a xlink:title=" ">
<path fill="none" stroke="#63b8ff" d="M920.76,-351.55C928.62,-317.67 942.63,-232.57 899,-187 862.22,-148.59 719.61,-161.2 651.04,-150.78"/>
<polygon fill="#63b8ff" stroke="#63b8ff" points="651.56,-147.32 641.09,-148.99 650.31,-154.21 651.56,-147.32"/>
</a>
</g>
</g>
<!-- Node4 -->
<g id="Node000004" class="node">
<title>Node4</title>
<g id="a_Node000004"><a xlink:title=" ">
<polygon fill="#e0e0e0" stroke="#999999" points="772,-261 634,-261 634,-242 772,-242 772,-261"/>
<text text-anchor="middle" x="703" y="-249" font-family="Helvetica,sans-Serif" font-size="10.00">libultraship/libultraship.h</text>
</a>
</g>
</g>
<!-- Node3&#45;&gt;Node4 -->
<g id="edge3_Node000003_Node000004" class="edge">
<title>Node3&#45;&gt;Node4</title>
<g id="a_edge3_Node000003_Node000004"><a xlink:title=" ">
<path fill="none" stroke="#63b8ff" d="M826.38,-296.98C802.1,-288.23 764.05,-274.51 736.63,-264.62"/>
<polygon fill="#63b8ff" stroke="#63b8ff" points="737.64,-261.27 727.05,-261.17 735.27,-267.85 737.64,-261.27"/>
</a>
</g>
</g>
<!-- Node5 -->
<g id="Node000005" class="node">
<title>Node5</title>
<g id="a_Node000005"><a xlink:href="CoreMath_8h.html" target="_top" xlink:title=" ">
<polygon fill="white" stroke="#666666" points="108.5,-206 35.5,-206 35.5,-187 108.5,-187 108.5,-206"/>
<text text-anchor="middle" x="72" y="-194" font-family="Helvetica,sans-Serif" font-size="10.00">CoreMath.h</text>
</a>
</g>
</g>
<!-- Node3&#45;&gt;Node5 -->
<g id="edge4_Node000003_Node000005" class="edge">
<title>Node3&#45;&gt;Node5</title>
<g id="a_edge4_Node000003_Node000005"><a xlink:title=" ">
<path fill="none" stroke="#63b8ff" d="M820.26,-302.07C758.86,-294.94 613.61,-277.75 492,-261 356.19,-242.3 196.14,-217.27 118.68,-204.97"/>
<polygon fill="#63b8ff" stroke="#63b8ff" points="119.18,-201.5 108.75,-203.39 118.08,-208.42 119.18,-201.5"/>
</a>
</g>
</g>
<!-- Node3&#45;&gt;Node6 -->
<g id="edge6_Node000003_Node000006" class="edge">
<title>Node3&#45;&gt;Node6</title>
<g id="a_edge6_Node000003_Node000006"><a xlink:title=" ">
<path fill="none" stroke="#63b8ff" d="M820.49,-305.28C752.23,-304.15 586.3,-297.6 547,-261 535.01,-249.83 532.11,-230.91 531.86,-216.61"/>
<polygon fill="#63b8ff" stroke="#63b8ff" points="535.36,-216.46 532.09,-206.38 528.36,-216.3 535.36,-216.46"/>
</a>
</g>
</g>
<!-- Node7 -->
<g id="Node000007" class="node">
<title>Node7</title>
<g id="a_Node000007"><a xlink:href="common__structs_8h.html" target="_top" xlink:title=" ">
<polygon fill="white" stroke="#666666" points="1151.5,-74 1044.5,-74 1044.5,-55 1151.5,-55 1151.5,-74"/>
<text text-anchor="middle" x="1098" y="-62" font-family="Helvetica,sans-Serif" font-size="10.00">common_structs.h</text>
</a>
</g>
</g>
<!-- Node3&#45;&gt;Node7 -->
<g id="edge47_Node000003_Node000007" class="edge">
<title>Node3&#45;&gt;Node7</title>
<g id="a_edge47_Node000003_Node000007"><a xlink:title=" ">
<path fill="none" stroke="#63b8ff" d="M866.47,-296.83C914.86,-271.02 1054.96,-193.85 1083,-151 1096.12,-130.95 1098.73,-102.82 1098.82,-84.39"/>
<polygon fill="#63b8ff" stroke="#63b8ff" points="1102.32,-84.25 1098.63,-74.32 1095.32,-84.39 1102.32,-84.25"/>
</a>
</g>
</g>
<!-- Node3&#45;&gt;Node8 -->
<g id="edge10_Node000003_Node000008" class="edge">
<title>Node3&#45;&gt;Node8</title>
<g id="a_edge10_Node000003_Node000008"><a xlink:title=" ">
<path fill="none" stroke="#63b8ff" d="M820.43,-305.66C762.94,-305.06 632.89,-299.17 532,-261 502.13,-249.7 472.13,-227.75 453.81,-212.86"/>
<polygon fill="#63b8ff" stroke="#63b8ff" points="455.73,-209.91 445.81,-206.2 451.25,-215.29 455.73,-209.91"/>
</a>
</g>
</g>
<!-- Node3&#45;&gt;Node14 -->
<g id="edge19_Node000003_Node000014" class="edge">
<title>Node3&#45;&gt;Node14</title>
<g id="a_edge19_Node000003_Node000014"><a xlink:title=" ">
<path fill="none" stroke="#63b8ff" d="M879.5,-301.39C941.19,-292.78 1084.95,-272.73 1167.92,-261.16"/>
<polygon fill="#63b8ff" stroke="#63b8ff" points="1168.56,-264.6 1177.98,-259.76 1167.59,-257.67 1168.56,-264.6"/>
</a>
</g>
</g>
<!-- Node17 -->
<g id="Node000017" class="node">
<title>Node17</title>
<g id="a_Node000017"><a xlink:href="defines_8h.html" target="_top" xlink:title=" ">
<polygon fill="white" stroke="#666666" points="851.5,-261 790.5,-261 790.5,-242 851.5,-242 851.5,-261"/>
<text text-anchor="middle" x="821" y="-249" font-family="Helvetica,sans-Serif" font-size="10.00">defines.h</text>
</a>
</g>
</g>
<!-- Node3&#45;&gt;Node17 -->
<g id="edge27_Node000003_Node000017" class="edge">
<title>Node3&#45;&gt;Node17</title>
<g id="a_edge27_Node000003_Node000017"><a xlink:title=" ">
<path fill="none" stroke="#63b8ff" d="M845.21,-296.75C841.24,-289.49 835.47,-278.95 830.57,-269.98"/>
<polygon fill="#63b8ff" stroke="#63b8ff" points="833.57,-268.18 825.7,-261.09 827.43,-271.54 833.57,-268.18"/>
</a>
</g>
</g>
<!-- Node18 -->
<g id="Node000018" class="node">
<title>Node18</title>
<g id="a_Node000018"><a xlink:href="bomb__kart_8h.html" target="_top" xlink:title=" ">
<polygon fill="white" stroke="#666666" points="889.5,-206 812.5,-206 812.5,-187 889.5,-187 889.5,-206"/>
<text text-anchor="middle" x="851" y="-194" font-family="Helvetica,sans-Serif" font-size="10.00">bomb_kart.h</text>
</a>
</g>
</g>
<!-- Node3&#45;&gt;Node18 -->
<g id="edge28_Node000003_Node000018" class="edge">
<title>Node3&#45;&gt;Node18</title>
<g id="a_edge28_Node000003_Node000018"><a xlink:title=" ">
<path fill="none" stroke="#63b8ff" d="M852.83,-296.75C855.55,-287.86 859.46,-273.64 861,-261 862.86,-245.75 859.82,-228.54 856.62,-215.88"/>
<polygon fill="#63b8ff" stroke="#63b8ff" points="859.95,-214.79 853.89,-206.1 853.21,-216.67 859.95,-214.79"/>
</a>
</g>
</g>
<!-- Node3&#45;&gt;Node21 -->
<g id="edge35_Node000003_Node000021" class="edge">
<title>Node3&#45;&gt;Node21</title>
<g id="a_edge35_Node000003_Node000021"><a xlink:title=" ">
<path fill="none" stroke="#63b8ff" d="M879.52,-297.79C914.01,-288.79 971.36,-273.81 1010.61,-263.57"/>
<polygon fill="#63b8ff" stroke="#63b8ff" points="1011.63,-266.92 1020.42,-261.01 1009.86,-260.15 1011.63,-266.92"/>
</a>
</g>
</g>
<!-- Node22 -->
<g id="Node000022" class="node">
<title>Node22</title>
<g id="a_Node000022"><a xlink:href="waypoints_8h.html" target="_top" xlink:title=" ">
<polygon fill="white" stroke="#666666" points="1142,-206 1066,-206 1066,-187 1142,-187 1142,-206"/>
<text text-anchor="middle" x="1104" y="-194" font-family="Helvetica,sans-Serif" font-size="10.00">waypoints.h</text>
</a>
</g>
</g>
<!-- Node3&#45;&gt;Node22 -->
<g id="edge45_Node000003_Node000022" class="edge">
<title>Node3&#45;&gt;Node22</title>
<g id="a_edge45_Node000003_Node000022"><a xlink:title=" ">
<path fill="none" stroke="#63b8ff" d="M879.85,-305.44C945.46,-304.59 1098.92,-298.56 1131,-261 1142.73,-247.27 1131.29,-227.7 1119.89,-213.92"/>
<polygon fill="#63b8ff" stroke="#63b8ff" points="1122.28,-211.33 1113.01,-206.19 1117.05,-215.99 1122.28,-211.33"/>
</a>
</g>
</g>
<!-- Node24 -->
<g id="Node000024" class="node">
<title>Node24</title>
<g id="a_Node000024"><a xlink:href="sounds_8h.html" target="_top" xlink:title=" ">
<polygon fill="white" stroke="#666666" points="616,-261 556,-261 556,-242 616,-242 616,-261"/>
<text text-anchor="middle" x="586" y="-249" font-family="Helvetica,sans-Serif" font-size="10.00">sounds.h</text>
</a>
</g>
</g>
<!-- Node3&#45;&gt;Node24 -->
<g id="edge46_Node000003_Node000024" class="edge">
<title>Node3&#45;&gt;Node24</title>
<g id="a_edge46_Node000003_Node000024"><a xlink:title=" ">
<path fill="none" stroke="#63b8ff" d="M820.48,-299.85C779.29,-291.93 701.99,-276.91 626.39,-261.26"/>
<polygon fill="#63b8ff" stroke="#63b8ff" points="626.72,-257.75 616.22,-259.15 625.3,-264.61 626.72,-257.75"/>
</a>
</g>
</g>
<!-- Node5&#45;&gt;Node2 -->
<g id="edge5_Node000005_Node000002" class="edge">
<title>Node5&#45;&gt;Node2</title>
<g id="a_edge5_Node000005_Node000002"><a xlink:title=" ">
<path fill="none" stroke="#63b8ff" d="M54.54,-186.88C41.53,-179.38 24.72,-167.18 17,-151 -1.44,-112.36 -5.46,-85.09 25,-55 64.22,-16.26 226.36,-10.42 309.84,-10.05"/>
<polygon fill="#63b8ff" stroke="#63b8ff" points="309.86,-13.55 319.86,-10.03 309.85,-6.55 309.86,-13.55"/>
</a>
</g>
</g>
<!-- Node6&#45;&gt;Node2 -->
<g id="edge7_Node000006_Node000002" class="edge">
<title>Node6&#45;&gt;Node2</title>
<g id="a_edge7_Node000006_Node000002"><a xlink:title=" ">
<path fill="none" stroke="#63b8ff" d="M501.62,-188.45C498.72,-187.91 495.81,-187.42 493,-187 446.78,-180.13 105.6,-185.43 74,-151 45.15,-119.57 46.25,-87.41 74,-55 103.77,-20.23 236.01,-12.41 309.8,-10.79"/>
<polygon fill="#63b8ff" stroke="#63b8ff" points="309.88,-14.29 319.81,-10.6 309.74,-7.29 309.88,-14.29"/>
</a>
</g>
</g>
<!-- Node6&#45;&gt;Node7 -->
<g id="edge8_Node000006_Node000007" class="edge">
<title>Node6&#45;&gt;Node7</title>
<g id="a_edge8_Node000006_Node000007"><a xlink:title=" ">
<path fill="none" stroke="#63b8ff" d="M564.21,-194.07C665.63,-189.24 981.71,-172.59 1022,-151 1042.62,-139.95 1039.52,-127.54 1055,-110 1063.62,-100.23 1073.72,-89.73 1081.96,-81.39"/>
<polygon fill="#63b8ff" stroke="#63b8ff" points="1084.61,-83.69 1089.19,-74.14 1079.65,-78.75 1084.61,-83.69"/>
</a>
</g>
</g>
<!-- Node7&#45;&gt;Node2 -->
<g id="edge9_Node000007_Node000002" class="edge">
<title>Node7&#45;&gt;Node2</title>
<g id="a_edge9_Node000007_Node000002"><a xlink:title=" ">
<path fill="none" stroke="#63b8ff" d="M1044.33,-59.65C907.08,-49.79 544.69,-23.76 410.72,-14.14"/>
<polygon fill="#63b8ff" stroke="#63b8ff" points="410.58,-10.62 400.35,-13.4 410.07,-17.61 410.58,-10.62"/>
</a>
</g>
</g>
<!-- Node8&#45;&gt;Node2 -->
<g id="edge11_Node000008_Node000002" class="edge">
<title>Node8&#45;&gt;Node2</title>
<g id="a_edge11_Node000008_Node000002"><a xlink:title=" ">
<path fill="none" stroke="#63b8ff" d="M387.87,-193.6C287.61,-189.16 63.76,-176.47 41,-151 12.57,-119.19 12.99,-87.19 41,-55 75.16,-15.74 228.3,-10.05 309.33,-9.86"/>
<polygon fill="#63b8ff" stroke="#63b8ff" points="309.79,-13.36 319.8,-9.87 309.8,-6.36 309.79,-13.36"/>
</a>
</g>
</g>
<!-- Node9 -->
<g id="Node000009" class="node">
<title>Node9</title>
<g id="a_Node000009"><a xlink:title=" ">
<polygon fill="#e0e0e0" stroke="#999999" points="90,-19 0,-19 0,0 90,0 90,-19"/>
<text text-anchor="middle" x="45" y="-7" font-family="Helvetica,sans-Serif" font-size="10.00">libultra/types.h</text>
</a>
</g>
</g>
<!-- Node8&#45;&gt;Node9 -->
<g id="edge12_Node000008_Node000009" class="edge">
<title>Node8&#45;&gt;Node9</title>
<g id="a_edge12_Node000008_Node000009"><a xlink:title=" ">
<path fill="none" stroke="#63b8ff" d="M387.74,-193.93C282.83,-190.03 41.43,-178.16 17,-151 -14.23,-116.28 15.42,-56.9 33.44,-27.72"/>
<polygon fill="#63b8ff" stroke="#63b8ff" points="36.54,-29.37 39,-19.06 30.65,-25.58 36.54,-29.37"/>
</a>
</g>
</g>
<!-- Node10 -->
<g id="Node000010" class="node">
<title>Node10</title>
<g id="a_Node000010"><a xlink:title=" ">
<polygon fill="#e0e0e0" stroke="#999999" points="480,-74 402,-74 402,-55 480,-55 480,-74"/>
<text text-anchor="middle" x="441" y="-62" font-family="Helvetica,sans-Serif" font-size="10.00">libultra/gbi.h</text>
</a>
</g>
</g>
<!-- Node8&#45;&gt;Node10 -->
<g id="edge13_Node000008_Node000010" class="edge">
<title>Node8&#45;&gt;Node10</title>
<g id="a_edge13_Node000008_Node000010"><a xlink:title=" ">
<path fill="none" stroke="#63b8ff" d="M436.33,-186.97C437.12,-166.32 439.16,-113.22 440.27,-84.54"/>
<polygon fill="#63b8ff" stroke="#63b8ff" points="443.78,-84.36 440.66,-74.23 436.78,-84.09 443.78,-84.36"/>
</a>
</g>
</g>
<!-- Node11 -->
<g id="Node000011" class="node">
<title>Node11</title>
<g id="a_Node000011"><a xlink:href="other__textures_8h.html" target="_top" xlink:title=" ">
<polygon fill="white" stroke="#666666" points="919,-145.5 799,-145.5 799,-115.5 919,-115.5 919,-145.5"/>
<text text-anchor="start" x="807" y="-133.5" font-family="Helvetica,sans-Serif" font-size="10.00">assets/textures/other</text>
<text text-anchor="middle" x="859" y="-122.5" font-family="Helvetica,sans-Serif" font-size="10.00">_textures.h</text>
</a>
</g>
</g>
<!-- Node8&#45;&gt;Node11 -->
<g id="edge14_Node000008_Node000011" class="edge">
<title>Node8&#45;&gt;Node11</title>
<g id="a_edge14_Node000008_Node000011"><a xlink:title=" ">
<path fill="none" stroke="#63b8ff" d="M484.19,-188.22C487.17,-187.8 490.12,-187.39 493,-187 624.77,-169.19 659.63,-177.16 790,-151 794.37,-150.12 798.88,-149.11 803.39,-148.01"/>
<polygon fill="#63b8ff" stroke="#63b8ff" points="804.39,-151.37 813.22,-145.51 802.66,-144.58 804.39,-151.37"/>
</a>
</g>
</g>
<!-- Node13 -->
<g id="Node000013" class="node">
<title>Node13</title>
<g id="a_Node000013"><a xlink:href="animation_8h.html" target="_top" xlink:title=" ">
<polygon fill="white" stroke="#666666" points="1012.5,-140 937.5,-140 937.5,-121 1012.5,-121 1012.5,-140"/>
<text text-anchor="middle" x="975" y="-128" font-family="Helvetica,sans-Serif" font-size="10.00">animation.h</text>
</a>
</g>
</g>
<!-- Node8&#45;&gt;Node13 -->
<g id="edge17_Node000008_Node000013" class="edge">
<title>Node8&#45;&gt;Node13</title>
<g id="a_edge17_Node000008_Node000013"><a xlink:title=" ">
<path fill="none" stroke="#63b8ff" d="M484.17,-188.09C487.16,-187.7 490.12,-187.33 493,-187 685.71,-164.68 739.47,-196.72 928,-151 934.92,-149.32 942.15,-146.77 948.79,-144.05"/>
<polygon fill="#63b8ff" stroke="#63b8ff" points="950.24,-147.24 958.02,-140.05 947.46,-140.82 950.24,-147.24"/>
</a>
</g>
</g>
<!-- Node11&#45;&gt;Node2 -->
<g id="edge15_Node000011_Node000002" class="edge">
<title>Node11&#45;&gt;Node2</title>
<g id="a_edge15_Node000011_Node000002"><a xlink:title=" ">
<path fill="none" stroke="#63b8ff" d="M829.28,-115.44C792.3,-98.54 726.85,-70.51 668,-55 579.1,-31.57 472.31,-19.63 410.68,-14.25"/>
<polygon fill="#63b8ff" stroke="#63b8ff" points="410.71,-10.74 400.45,-13.38 410.12,-17.72 410.71,-10.74"/>
</a>
</g>
</g>
<!-- Node12 -->
<g id="Node000012" class="node">
<title>Node12</title>
<g id="a_Node000012"><a xlink:href="align__asset__macro_8h.html" target="_top" xlink:title=" ">
<polygon fill="white" stroke="#666666" points="615.5,-74 498.5,-74 498.5,-55 615.5,-55 615.5,-74"/>
<text text-anchor="middle" x="557" y="-62" font-family="Helvetica,sans-Serif" font-size="10.00">align_asset_macro.h</text>
</a>
</g>
</g>
<!-- Node11&#45;&gt;Node12 -->
<g id="edge16_Node000011_Node000012" class="edge">
<title>Node11&#45;&gt;Node12</title>
<g id="a_edge16_Node000011_Node000012"><a xlink:title=" ">
<path fill="none" stroke="#63b8ff" d="M811.26,-115.43C804.16,-113.5 796.91,-111.63 790,-110 732.31,-96.37 665.84,-84 618.69,-75.78"/>
<polygon fill="#63b8ff" stroke="#63b8ff" points="619.09,-72.3 608.64,-74.04 617.89,-79.19 619.09,-72.3"/>
</a>
</g>
</g>
<!-- Node13&#45;&gt;Node7 -->
<g id="edge18_Node000013_Node000007" class="edge">
<title>Node13&#45;&gt;Node7</title>
<g id="a_edge18_Node000013_Node000007"><a xlink:title=" ">
<path fill="none" stroke="#63b8ff" d="M991.59,-120.87C1012.31,-110.09 1048,-91.52 1072.28,-78.88"/>
<polygon fill="#63b8ff" stroke="#63b8ff" points="1074.03,-81.92 1081.28,-74.2 1070.8,-75.71 1074.03,-81.92"/>
</a>
</g>
</g>
<!-- Node14&#45;&gt;Node10 -->
<g id="edge20_Node000014_Node000010" class="edge">
<title>Node14&#45;&gt;Node10</title>
<g id="a_edge20_Node000014_Node000010"><a xlink:title=" ">
<path fill="none" stroke="#63b8ff" d="M1220.88,-241.96C1203.7,-226.09 1166.85,-193.09 1151,-187 1018.23,-136.01 638.99,-215.04 512,-151 482.69,-136.22 460.97,-103.31 449.71,-82.91"/>
<polygon fill="#63b8ff" stroke="#63b8ff" points="452.79,-81.24 445.03,-74.03 446.59,-84.51 452.79,-81.24"/>
</a>
</g>
</g>
<!-- Node14&#45;&gt;Node11 -->
<g id="edge23_Node000014_Node000011" class="edge">
<title>Node14&#45;&gt;Node11</title>
<g id="a_edge23_Node000014_Node000011"><a xlink:title=" ">
<path fill="none" stroke="#63b8ff" d="M1226.43,-241.78C1220.15,-227.66 1205.69,-200.06 1184,-187 1085.95,-127.95 1041.04,-174.41 929,-151 924.83,-150.13 920.55,-149.15 916.25,-148.1"/>
<polygon fill="#63b8ff" stroke="#63b8ff" points="916.79,-144.63 906.24,-145.57 915.07,-151.42 916.79,-144.63"/>
</a>
</g>
</g>
<!-- Node15 -->
<g id="Node000015" class="node">
<title>Node15</title>
<g id="a_Node000015"><a xlink:href="spline_8h.html" target="_top" xlink:title=" ">
<polygon fill="white" stroke="#666666" points="1276.5,-140 1221.5,-140 1221.5,-121 1276.5,-121 1276.5,-140"/>
<text text-anchor="middle" x="1249" y="-128" font-family="Helvetica,sans-Serif" font-size="10.00">spline.h</text>
</a>
</g>
</g>
<!-- Node14&#45;&gt;Node15 -->
<g id="edge21_Node000014_Node000015" class="edge">
<title>Node14&#45;&gt;Node15</title>
<g id="a_edge21_Node000014_Node000015"><a xlink:title=" ">
<path fill="none" stroke="#63b8ff" d="M1231.37,-241.94C1234.41,-222.91 1241.78,-176.69 1245.97,-150.47"/>
<polygon fill="#63b8ff" stroke="#63b8ff" points="1249.47,-150.73 1247.59,-140.3 1242.56,-149.62 1249.47,-150.73"/>
</a>
</g>
</g>
<!-- Node14&#45;&gt;Node16 -->
<g id="edge24_Node000014_Node000016" class="edge">
<title>Node14&#45;&gt;Node16</title>
<g id="a_edge24_Node000014_Node000016"><a xlink:title=" ">
<path fill="none" stroke="#63b8ff" d="M1242.05,-241.98C1253.46,-233.92 1270.83,-221.65 1284.43,-212.03"/>
<polygon fill="#63b8ff" stroke="#63b8ff" points="1286.58,-214.8 1292.73,-206.17 1282.54,-209.08 1286.58,-214.8"/>
</a>
</g>
</g>
<!-- Node15&#45;&gt;Node7 -->
<g id="edge22_Node000015_Node000007" class="edge">
<title>Node15&#45;&gt;Node7</title>
<g id="a_edge22_Node000015_Node000007"><a xlink:title=" ">
<path fill="none" stroke="#63b8ff" d="M1231.1,-120.96C1223.68,-117.48 1214.96,-113.47 1207,-110 1181,-98.67 1151.17,-86.55 1129.29,-77.82"/>
<polygon fill="#63b8ff" stroke="#63b8ff" points="1130.43,-74.51 1119.84,-74.07 1127.84,-81.01 1130.43,-74.51"/>
</a>
</g>
</g>
<!-- Node16&#45;&gt;Node7 -->
<g id="edge26_Node000016_Node000007" class="edge">
<title>Node16&#45;&gt;Node7</title>
<g id="a_edge26_Node000016_Node000007"><a xlink:title=" ">
<path fill="none" stroke="#63b8ff" d="M1305.82,-186.85C1306.95,-169.67 1306.82,-131.11 1286,-110 1268.68,-92.44 1209.24,-80.37 1161.77,-73.28"/>
<polygon fill="#63b8ff" stroke="#63b8ff" points="1162.24,-69.81 1151.84,-71.84 1161.24,-76.74 1162.24,-69.81"/>
</a>
</g>
</g>
<!-- Node16&#45;&gt;Node15 -->
<g id="edge25_Node000016_Node000015" class="edge">
<title>Node16&#45;&gt;Node15</title>
<g id="a_edge25_Node000016_Node000015"><a xlink:title=" ">
<path fill="none" stroke="#63b8ff" d="M1297.45,-186.87C1288.81,-177 1274.47,-160.61 1263.63,-148.22"/>
<polygon fill="#63b8ff" stroke="#63b8ff" points="1266.01,-145.63 1256.79,-140.41 1260.74,-150.24 1266.01,-145.63"/>
</a>
</g>
</g>
<!-- Node18&#45;&gt;Node7 -->
<g id="edge29_Node000018_Node000007" class="edge">
<title>Node18&#45;&gt;Node7</title>
<g id="a_edge29_Node000018_Node000007"><a xlink:title=" ">
<path fill="none" stroke="#63b8ff" d="M889.93,-188.87C945.43,-179.14 1042.04,-161.05 1055,-151 1076.61,-134.24 1088.21,-103.68 1093.73,-84"/>
<polygon fill="#63b8ff" stroke="#63b8ff" points="1097.18,-84.65 1096.26,-74.1 1090.4,-82.92 1097.18,-84.65"/>
</a>
</g>
</g>
<!-- Node19 -->
<g id="Node000019" class="node">
<title>Node19</title>
<g id="a_Node000019"><a xlink:href="mk64_8h.html" target="_top" xlink:title=" ">
<polygon fill="white" stroke="#666666" points="136.5,-140 83.5,-140 83.5,-121 136.5,-121 136.5,-140"/>
<text text-anchor="middle" x="110" y="-128" font-family="Helvetica,sans-Serif" font-size="10.00">mk64.h</text>
</a>
</g>
</g>
<!-- Node18&#45;&gt;Node19 -->
<g id="edge30_Node000018_Node000019" class="edge">
<title>Node18&#45;&gt;Node19</title>
<g id="a_edge30_Node000018_Node000019"><a xlink:title=" ">
<path fill="none" stroke="#63b8ff" d="M812.31,-194.03C674.17,-188.66 210.09,-169.41 146,-151 141.13,-149.6 136.19,-147.47 131.58,-145.12"/>
<polygon fill="#63b8ff" stroke="#63b8ff" points="133.18,-142.01 122.74,-140.17 129.75,-148.11 133.18,-142.01"/>
</a>
</g>
</g>
<!-- Node19&#45;&gt;Node2 -->
<g id="edge31_Node000019_Node000002" class="edge">
<title>Node19&#45;&gt;Node2</title>
<g id="a_edge31_Node000019_Node000002"><a xlink:title=" ">
<path fill="none" stroke="#63b8ff" d="M125.31,-120.94C131.66,-117.46 139.14,-113.45 146,-110 211.58,-77.03 290.17,-41.48 331.45,-23.11"/>
<polygon fill="#63b8ff" stroke="#63b8ff" points="332.91,-26.29 340.63,-19.03 330.07,-19.89 332.91,-26.29"/>
</a>
</g>
</g>
<!-- Node19&#45;&gt;Node10 -->
<g id="edge34_Node000019_Node000010" class="edge">
<title>Node19&#45;&gt;Node10</title>
<g id="a_edge34_Node000019_Node000010"><a xlink:title=" ">
<path fill="none" stroke="#63b8ff" d="M123.17,-120.93C129.78,-117.01 138.05,-112.66 146,-110 229.4,-82.08 331.95,-71.62 391.56,-67.74"/>
<polygon fill="#63b8ff" stroke="#63b8ff" points="392.05,-71.22 401.81,-67.11 391.62,-64.23 392.05,-71.22"/>
</a>
</g>
</g>
<!-- Node20 -->
<g id="Node000020" class="node">
<title>Node20</title>
<g id="a_Node000020"><a xlink:href="string_8h.html" target="_top" xlink:title=" ">
<polygon fill="white" stroke="#666666" points="136.5,-74 83.5,-74 83.5,-55 136.5,-55 136.5,-74"/>
<text text-anchor="middle" x="110" y="-62" font-family="Helvetica,sans-Serif" font-size="10.00">string.h</text>
</a>
</g>
</g>
<!-- Node19&#45;&gt;Node20 -->
<g id="edge32_Node000019_Node000020" class="edge">
<title>Node19&#45;&gt;Node20</title>
<g id="a_edge32_Node000019_Node000020"><a xlink:title=" ">
<path fill="none" stroke="#63b8ff" d="M110,-120.87C110,-111.66 110,-96.79 110,-84.77"/>
<polygon fill="#63b8ff" stroke="#63b8ff" points="113.5,-84.41 110,-74.41 106.5,-84.41 113.5,-84.41"/>
</a>
</g>
</g>
<!-- Node20&#45;&gt;Node9 -->
<g id="edge33_Node000020_Node000009" class="edge">
<title>Node20&#45;&gt;Node9</title>
<g id="a_edge33_Node000020_Node000009"><a xlink:title=" ">
<path fill="none" stroke="#63b8ff" d="M99.56,-54.98C89.85,-47.07 75.18,-35.11 63.5,-25.58"/>
<polygon fill="#63b8ff" stroke="#63b8ff" points="65.6,-22.78 55.63,-19.17 61.17,-28.2 65.6,-22.78"/>
</a>
</g>
</g>
<!-- Node21&#45;&gt;Node7 -->
<g id="edge38_Node000021_Node000007" class="edge">
<title>Node21&#45;&gt;Node7</title>
<g id="a_edge38_Node000021_Node000007"><a xlink:title=" ">
<path fill="none" stroke="#63b8ff" d="M1051,-241.84C1048.51,-228.75 1045.81,-203.7 1057,-187 1077.36,-156.62 1111.6,-182.01 1131,-151 1140.66,-135.55 1136.72,-127.3 1131,-110 1127.54,-99.54 1120.57,-89.53 1113.92,-81.66"/>
<polygon fill="#63b8ff" stroke="#63b8ff" points="1116.33,-79.1 1107.02,-74.04 1111.14,-83.8 1116.33,-79.1"/>
</a>
</g>
</g>
<!-- Node21&#45;&gt;Node18 -->
<g id="edge44_Node000021_Node000018" class="edge">
<title>Node21&#45;&gt;Node18</title>
<g id="a_edge44_Node000021_Node000018"><a xlink:title=" ">
<path fill="none" stroke="#63b8ff" d="M1020.55,-241.98C986.04,-232.93 931.34,-218.58 893.44,-208.64"/>
<polygon fill="#63b8ff" stroke="#63b8ff" points="894.27,-205.23 883.71,-206.08 892.49,-212.01 894.27,-205.23"/>
</a>
</g>
</g>
<!-- Node21&#45;&gt;Node22 -->
<g id="edge36_Node000021_Node000022" class="edge">
<title>Node21&#45;&gt;Node22</title>
<g id="a_edge36_Node000021_Node000022"><a xlink:title=" ">
<path fill="none" stroke="#63b8ff" d="M1061.42,-241.75C1068.77,-234.11 1079.63,-222.82 1088.54,-213.56"/>
<polygon fill="#63b8ff" stroke="#63b8ff" points="1091.32,-215.72 1095.74,-206.09 1086.28,-210.87 1091.32,-215.72"/>
</a>
</g>
</g>
<!-- Node23 -->
<g id="Node000023" class="node">
<title>Node23</title>
<g id="a_Node000023"><a xlink:href="other_2common__data_8h.html" target="_top" xlink:title=" ">
<polygon fill="white" stroke="#666666" points="781,-145.5 659,-145.5 659,-115.5 781,-115.5 781,-145.5"/>
<text text-anchor="start" x="667" y="-133.5" font-family="Helvetica,sans-Serif" font-size="10.00">assets/other/common</text>
<text text-anchor="middle" x="720" y="-122.5" font-family="Helvetica,sans-Serif" font-size="10.00">_data.h</text>
</a>
</g>
</g>
<!-- Node21&#45;&gt;Node23 -->
<g id="edge39_Node000021_Node000023" class="edge">
<title>Node21&#45;&gt;Node23</title>
<g id="a_edge39_Node000021_Node000023"><a xlink:title=" ">
<path fill="none" stroke="#63b8ff" d="M1044.67,-241.98C1030.63,-228.13 1000.74,-200.92 970,-187 895.68,-153.34 869.35,-169.96 790,-151 786.18,-150.09 782.24,-149.11 778.29,-148.09"/>
<polygon fill="#63b8ff" stroke="#63b8ff" points="779.02,-144.66 768.46,-145.5 777.24,-151.43 779.02,-144.66"/>
</a>
</g>
</g>
<!-- Node22&#45;&gt;Node7 -->
<g id="edge37_Node000022_Node000007" class="edge">
<title>Node22&#45;&gt;Node7</title>
<g id="a_edge37_Node000022_Node000007"><a xlink:title=" ">
<path fill="none" stroke="#63b8ff" d="M1126.12,-186.95C1141.2,-179.82 1160.01,-168.06 1169,-151 1177.5,-134.88 1177.82,-125.94 1169,-110 1161.16,-95.83 1146.71,-85.57 1132.89,-78.5"/>
<polygon fill="#63b8ff" stroke="#63b8ff" points="1134.05,-75.18 1123.51,-74.1 1131.08,-81.52 1134.05,-75.18"/>
</a>
</g>
</g>
<!-- Node23&#45;&gt;Node2 -->
<g id="edge41_Node000023_Node000002" class="edge">
<title>Node23&#45;&gt;Node2</title>
<g id="a_edge41_Node000023_Node000002"><a xlink:title=" ">
<path fill="none" stroke="#63b8ff" d="M709.47,-115.32C695.76,-98.01 670.1,-69.3 641,-55 566.56,-18.43 468.87,-10.69 410.47,-9.69"/>
<polygon fill="#63b8ff" stroke="#63b8ff" points="410.42,-6.19 400.39,-9.58 410.35,-13.19 410.42,-6.19"/>
</a>
</g>
</g>
<!-- Node23&#45;&gt;Node7 -->
<g id="edge42_Node000023_Node000007" class="edge">
<title>Node23&#45;&gt;Node7</title>
<g id="a_edge42_Node000023_Node000007"><a xlink:title=" ">
<path fill="none" stroke="#63b8ff" d="M767.24,-115.45C774.81,-113.46 782.59,-111.56 790,-110 873.76,-92.36 971.81,-79.51 1034.38,-72.28"/>
<polygon fill="#63b8ff" stroke="#63b8ff" points="1034.96,-75.73 1044.49,-71.12 1034.16,-68.78 1034.96,-75.73"/>
</a>
</g>
</g>
<!-- Node23&#45;&gt;Node10 -->
<g id="edge40_Node000023_Node000010" class="edge">
<title>Node23&#45;&gt;Node10</title>
<g id="a_edge40_Node000023_Node000010"><a xlink:title=" ">
<path fill="none" stroke="#63b8ff" d="M671.15,-115.48C664.07,-113.56 656.86,-111.68 650,-110 595.58,-96.64 532.62,-83.55 490.14,-75.07"/>
<polygon fill="#63b8ff" stroke="#63b8ff" points="490.56,-71.58 480.07,-73.07 489.19,-78.45 490.56,-71.58"/>
</a>
</g>
</g>
<!-- Node23&#45;&gt;Node12 -->
<g id="edge43_Node000023_Node000012" class="edge">
<title>Node23&#45;&gt;Node12</title>
<g id="a_edge43_Node000023_Node000012"><a xlink:title=" ">
<path fill="none" stroke="#63b8ff" d="M684.23,-115.45C655.52,-104.18 615.61,-88.51 588.19,-77.75"/>
<polygon fill="#63b8ff" stroke="#63b8ff" points="589.28,-74.41 578.69,-74.02 586.72,-80.93 589.28,-74.41"/>
</a>
</g>
</g>
<!-- Node25&#45;&gt;Node2 -->
<g id="edge49_Node000025_Node000002" class="edge">
<title>Node25&#45;&gt;Node2</title>
<g id="a_edge49_Node000025_Node000002"><a xlink:title=" ">
<path fill="none" stroke="#63b8ff" d="M238.94,-109.85C267.71,-86.24 315.34,-47.15 341.46,-25.72"/>
<polygon fill="#63b8ff" stroke="#63b8ff" points="343.92,-28.22 349.43,-19.18 339.48,-22.81 343.92,-28.22"/>
</a>
</g>
</g>
<!-- Node25&#45;&gt;Node10 -->
<g id="edge50_Node000025_Node000010" class="edge">
<title>Node25&#45;&gt;Node10</title>
<g id="a_edge50_Node000025_Node000010"><a xlink:title=" ">
<path fill="none" stroke="#63b8ff" d="M275.27,-112.43C315.14,-101.14 366.29,-86.66 401.16,-76.78"/>
<polygon fill="#63b8ff" stroke="#63b8ff" points="402.31,-80.09 410.98,-74 400.4,-73.36 402.31,-80.09"/>
</a>
</g>
</g>
<!-- Node25&#45;&gt;Node12 -->
<g id="edge51_Node000025_Node000012" class="edge">
<title>Node25&#45;&gt;Node12</title>
<g id="a_edge51_Node000025_Node000012"><a xlink:title=" ">
<path fill="none" stroke="#63b8ff" d="M275.11,-112.08C278.11,-111.35 281.08,-110.65 284,-110 352.96,-94.69 432.8,-82.28 488.26,-74.49"/>
<polygon fill="#63b8ff" stroke="#63b8ff" points="488.9,-77.94 498.32,-73.1 487.93,-71.01 488.9,-77.94"/>
</a>
</g>
</g>
<!-- Node26&#45;&gt;Node2 -->
<g id="edge53_Node000026_Node000002" class="edge">
<title>Node26&#45;&gt;Node2</title>
<g id="a_edge53_Node000026_Node000002"><a xlink:title=" ">
<path fill="none" stroke="#63b8ff" d="M360,-109.85C360,-87.48 360,-51.19 360,-29.21"/>
<polygon fill="#63b8ff" stroke="#63b8ff" points="363.5,-29.18 360,-19.18 356.5,-29.18 363.5,-29.18"/>
</a>
</g>
</g>
<!-- Node26&#45;&gt;Node10 -->
<g id="edge54_Node000026_Node000010" class="edge">
<title>Node26&#45;&gt;Node10</title>
<g id="a_edge54_Node000026_Node000010"><a xlink:title=" ">
<path fill="none" stroke="#63b8ff" d="M384.74,-109.95C396.64,-100.55 410.68,-89.46 421.76,-80.7"/>
<polygon fill="#63b8ff" stroke="#63b8ff" points="424.24,-83.21 429.91,-74.26 419.9,-77.71 424.24,-83.21"/>
</a>
</g>
</g>
<!-- Node26&#45;&gt;Node12 -->
<g id="edge55_Node000026_Node000012" class="edge">
<title>Node26&#45;&gt;Node12</title>
<g id="a_edge55_Node000026_Node000012"><a xlink:title=" ">
<path fill="none" stroke="#63b8ff" d="M420.18,-109.95C453.13,-99.24 492.86,-86.34 521,-77.19"/>
<polygon fill="#63b8ff" stroke="#63b8ff" points="522.38,-80.43 530.81,-74.01 520.22,-73.77 522.38,-80.43"/>
</a>
</g>
</g>
<!-- Node27&#45;&gt;Node2 -->
<g id="edge57_Node000027_Node000002" class="edge">
<title>Node27&#45;&gt;Node2</title>
<g id="a_edge57_Node000027_Node000002"><a xlink:title=" ">
<path fill="none" stroke="#63b8ff" d="M605.55,-109.97C622.41,-94.22 639.36,-71.97 625,-55 598.06,-23.16 479.45,-14.09 410.39,-11.51"/>
<polygon fill="#63b8ff" stroke="#63b8ff" points="410.28,-8.01 400.16,-11.17 410.04,-15 410.28,-8.01"/>
</a>
</g>
</g>
<!-- Node27&#45;&gt;Node10 -->
<g id="edge58_Node000027_Node000010" class="edge">
<title>Node27&#45;&gt;Node10</title>
<g id="a_edge58_Node000027_Node000010"><a xlink:title=" ">
<path fill="none" stroke="#63b8ff" d="M538.23,-109.95C515.71,-99.65 488.72,-87.31 468.9,-78.25"/>
<polygon fill="#63b8ff" stroke="#63b8ff" points="470.34,-75.07 459.79,-74.09 467.43,-81.43 470.34,-75.07"/>
</a>
</g>
</g>
<!-- Node27&#45;&gt;Node12 -->
<g id="edge59_Node000027_Node000012" class="edge">
<title>Node27&#45;&gt;Node12</title>
<g id="a_edge59_Node000027_Node000012"><a xlink:title=" ">
<path fill="none" stroke="#63b8ff" d="M573.67,-109.95C570.53,-101.58 566.88,-91.85 563.8,-83.64"/>
<polygon fill="#63b8ff" stroke="#63b8ff" points="567.07,-82.39 560.29,-74.26 560.52,-84.85 567.07,-82.39"/>
</a>
</g>
</g>
</g>
</svg>

<g id="navigator" transform="translate(0 0)" fill="#404254">
  <rect fill="#f2f5e9" fill-opacity="0.5" stroke="#606060" stroke-width=".5" x="0" y="0" width="60" height="60"/>
  <use id="zoomplus" xlink:href="#zoomPlus" x="17" y="9" onmousedown="handleZoom(evt,'in')"/>
  <use id="zoomminus" xlink:href="#zoomMin" x="42" y="9" onmousedown="handleZoom(evt,'out')"/>
  <use id="reset" xlink:href="#resetDef" x="30" y="36" onmousedown="handleReset()"/>
   <use id="arrowup" xlink:href="#arrowUp" x="0" y="0" onmousedown="handlePan(0,-1)"/>
  <use id="arrowright" xlink:href="#arrowRight" x="0" y="0" onmousedown="handlePan(1,0)"/>
  <use id="arrowdown" xlink:href="#arrowDown" x="0" y="0" onmousedown="handlePan(0,1)"/>
  <use id="arrowleft" xlink:href="#arrowLeft" x="0" y="0" onmousedown="handlePan(-1,0)"/>
</g>
<svg viewBox="0 0 15 15" width="100%" height="30px" preserveAspectRatio="xMaxYMin meet">
 <g id="arrow_out" transform="scale(0.3 0.3)">
  <a xlink:href="RoyalRaceway_8h__incl_org.svg" target="_base">
   <rect id="button" ry="5" rx="5" y="6" x="6" height="38" width="38"
        fill="#f2f5e9" fill-opacity="0.5" stroke="#606060" stroke-width="1.0"/>
   <path id="arrow"
     d="M 11.500037,31.436501 C 11.940474,20.09759 22.043105,11.32322 32.158766,21.979434 L 37.068811,17.246167 C 37.068811,17.246167 37.088388,32 37.088388,32 L 22.160133,31.978069 C 22.160133,31.978069 26.997745,27.140456 26.997745,27.140456 C 18.528582,18.264221 13.291696,25.230495 11.500037,31.436501 z"
     style="fill:#404040;"/>
  </a>
 </g>
</svg>

<style type='text/css'>
<![CDATA[
[data-mouse-over-selected='false'] { opacity: 0.7; }
[data-mouse-over-selected='true']  { opacity: 1.0; }
]]>
</style>
<script type="application/ecmascript"><![CDATA[
document.addEventListener('DOMContentLoaded', (event) => {
  highlightEdges();
  highlightAdjacentNodes();
});
]]></script>
</svg>
