<?xml version="1.0" encoding="UTF-8" standalone="no"?>
<!DOCTYPE svg PUBLIC "-//W3C//DTD SVG 1.1//EN"
 "http://www.w3.org/Graphics/SVG/1.1/DTD/svg11.dtd">
<!-- Generated by graphviz version 2.43.0 (0)
 -->
<!-- Title: src/engine/objects/Seagull.h Pages: 1 -->
<svg width="691pt" height="214pt"
 viewBox="0.00 0.00 690.50 214.00" xmlns="http://www.w3.org/2000/svg" xmlns:xlink="http://www.w3.org/1999/xlink">
<g id="graph0" class="graph" transform="scale(1 1) rotate(0) translate(4 210)">
<title>src/engine/objects/Seagull.h</title>
<!-- Node1 -->
<g id="Node000001" class="node">
<title>Node1</title>
<g id="a_Node000001"><a xlink:title=" ">
<polygon fill="#999999" stroke="#666666" points="499.5,-206 394.5,-206 394.5,-176 499.5,-176 499.5,-206"/>
<text text-anchor="start" x="402.5" y="-194" font-family="Helvetica,sans-Serif" font-size="10.00">src/engine/objects</text>
<text text-anchor="middle" x="447" y="-183" font-family="Helvetica,sans-Serif" font-size="10.00">/Seagull.h</text>
</a>
</g>
</g>
<!-- Node2 -->
<g id="Node000002" class="node">
<title>Node2</title>
<g id="a_Node000002"><a xlink:href="AllActors_8h.html" target="_top" xlink:title=" ">
<polygon fill="white" stroke="#666666" points="376,-134.5 254,-134.5 254,-115.5 376,-115.5 376,-134.5"/>
<text text-anchor="middle" x="315" y="-122.5" font-family="Helvetica,sans-Serif" font-size="10.00">src/engine/AllActors.h</text>
</a>
</g>
</g>
<!-- Node1&#45;&gt;Node2 -->
<g id="edge1_Node000001_Node000002" class="edge">
<title>Node1&#45;&gt;Node2</title>
<g id="a_edge1_Node000001_Node000002"><a xlink:title=" ">
<path fill="none" stroke="#63b8ff" d="M408.76,-171.46C383.62,-159.27 351.92,-143.9 332.57,-134.52"/>
<polygon fill="#63b8ff" stroke="#63b8ff" points="407.51,-174.74 418.03,-175.95 410.56,-168.44 407.51,-174.74"/>
</a>
</g>
</g>
<!-- Node8 -->
<g id="Node000008" class="node">
<title>Node8</title>
<g id="a_Node000008"><a xlink:href="Seagull_8cpp.html" target="_top" xlink:title=" ">
<polygon fill="white" stroke="#666666" points="499.5,-140 394.5,-140 394.5,-110 499.5,-110 499.5,-140"/>
<text text-anchor="start" x="402.5" y="-128" font-family="Helvetica,sans-Serif" font-size="10.00">src/engine/objects</text>
<text text-anchor="middle" x="447" y="-117" font-family="Helvetica,sans-Serif" font-size="10.00">/Seagull.cpp</text>
</a>
</g>
</g>
<!-- Node1&#45;&gt;Node8 -->
<g id="edge8_Node000001_Node000008" class="edge">
<title>Node1&#45;&gt;Node8</title>
<g id="a_edge8_Node000001_Node000008"><a xlink:title=" ">
<path fill="none" stroke="#63b8ff" d="M447,-165.54C447,-156.96 447,-147.61 447,-140.16"/>
<polygon fill="#63b8ff" stroke="#63b8ff" points="443.5,-165.8 447,-175.8 450.5,-165.8 443.5,-165.8"/>
</a>
</g>
</g>
<!-- Node9 -->
<g id="Node000009" class="node">
<title>Node9</title>
<g id="a_Node000009"><a xlink:href="KoopaTroopaBeach_8cpp.html" target="_top" xlink:title=" ">
<polygon fill="white" stroke="#666666" points="682.5,-140 517.5,-140 517.5,-110 682.5,-110 682.5,-140"/>
<text text-anchor="start" x="525.5" y="-128" font-family="Helvetica,sans-Serif" font-size="10.00">src/engine/tracks/KoopaTroopa</text>
<text text-anchor="middle" x="600" y="-117" font-family="Helvetica,sans-Serif" font-size="10.00">Beach.cpp</text>
</a>
</g>
</g>
<!-- Node1&#45;&gt;Node9 -->
<g id="edge9_Node000001_Node000009" class="edge">
<title>Node1&#45;&gt;Node9</title>
<g id="a_edge9_Node000001_Node000009"><a xlink:title=" ">
<path fill="none" stroke="#63b8ff" d="M489.9,-172.05C514.14,-161.91 544,-149.43 566.5,-140.01"/>
<polygon fill="#63b8ff" stroke="#63b8ff" points="488.45,-168.87 480.58,-175.95 491.15,-175.32 488.45,-168.87"/>
</a>
</g>
</g>
<!-- Node3 -->
<g id="Node000003" class="node">
<title>Node3</title>
<g id="a_Node000003"><a xlink:href="RaceManager_8cpp.html" target="_top" xlink:title=" ">
<polygon fill="white" stroke="#666666" points="156,-74 0,-74 0,-55 156,-55 156,-74"/>
<text text-anchor="middle" x="78" y="-62" font-family="Helvetica,sans-Serif" font-size="10.00">src/engine/RaceManager.cpp</text>
</a>
</g>
</g>
<!-- Node2&#45;&gt;Node3 -->
<g id="edge2_Node000002_Node000003" class="edge">
<title>Node2&#45;&gt;Node3</title>
<g id="a_edge2_Node000002_Node000003"><a xlink:title=" ">
<path fill="none" stroke="#63b8ff" d="M270.59,-113.04C224.78,-101.73 154.3,-84.33 112.5,-74.02"/>
<polygon fill="#63b8ff" stroke="#63b8ff" points="269.99,-116.5 280.54,-115.49 271.67,-109.7 269.99,-116.5"/>
</a>
</g>
</g>
<!-- Node4 -->
<g id="Node000004" class="node">
<title>Node4</title>
<g id="a_Node000004"><a xlink:href="RegisterContent_8cpp.html" target="_top" xlink:title=" ">
<polygon fill="white" stroke="#666666" points="343.5,-74 174.5,-74 174.5,-55 343.5,-55 343.5,-74"/>
<text text-anchor="middle" x="259" y="-62" font-family="Helvetica,sans-Serif" font-size="10.00">src/engine/RegisterContent.cpp</text>
</a>
</g>
</g>
<!-- Node2&#45;&gt;Node4 -->
<g id="edge3_Node000002_Node000004" class="edge">
<title>Node2&#45;&gt;Node4</title>
<g id="a_edge3_Node000002_Node000004"><a xlink:title=" ">
<path fill="none" stroke="#63b8ff" d="M299.77,-108.09C289.31,-97.17 275.83,-83.08 267.3,-74.17"/>
<polygon fill="#63b8ff" stroke="#63b8ff" points="297.29,-110.56 306.74,-115.37 302.35,-105.72 297.29,-110.56"/>
</a>
</g>
</g>
<!-- Node5 -->
<g id="Node000005" class="node">
<title>Node5</title>
<g id="a_Node000005"><a xlink:href="ContentBrowser_8cpp.html" target="_top" xlink:title=" ">
<polygon fill="white" stroke="#666666" points="454,-19 288,-19 288,0 454,0 454,-19"/>
<text text-anchor="middle" x="371" y="-7" font-family="Helvetica,sans-Serif" font-size="10.00">src/port/ui/ContentBrowser.cpp</text>
</a>
</g>
</g>
<!-- Node2&#45;&gt;Node5 -->
<g id="edge4_Node000002_Node000005" class="edge">
<title>Node2&#45;&gt;Node5</title>
<g id="a_edge4_Node000002_Node000005"><a xlink:title=" ">
<path fill="none" stroke="#63b8ff" d="M329.3,-107.73C336.92,-98.39 345.93,-86.13 352,-74 361.27,-55.48 366.9,-31.61 369.42,-19.07"/>
<polygon fill="#63b8ff" stroke="#63b8ff" points="326.6,-105.5 322.83,-115.41 331.95,-110.02 326.6,-105.5"/>
</a>
</g>
</g>
<!-- Node6 -->
<g id="Node000006" class="node">
<title>Node6</title>
<g id="a_Node000006"><a xlink:href="ContentBrowser_8h.html" target="_top" xlink:title=" ">
<polygon fill="white" stroke="#666666" points="554.5,-74 399.5,-74 399.5,-55 554.5,-55 554.5,-74"/>
<text text-anchor="middle" x="477" y="-62" font-family="Helvetica,sans-Serif" font-size="10.00">src/port/ui/ContentBrowser.h</text>
</a>
</g>
</g>
<!-- Node2&#45;&gt;Node6 -->
<g id="edge5_Node000002_Node000006" class="edge">
<title>Node2&#45;&gt;Node6</title>
<g id="a_edge5_Node000002_Node000006"><a xlink:title=" ">
<path fill="none" stroke="#63b8ff" d="M348.16,-112.02C379.49,-100.71 425.69,-84.03 453.42,-74.02"/>
<polygon fill="#63b8ff" stroke="#63b8ff" points="346.77,-108.81 338.56,-115.49 349.15,-115.39 346.77,-108.81"/>
</a>
</g>
</g>
<!-- Node6&#45;&gt;Node5 -->
<g id="edge6_Node000006_Node000005" class="edge">
<title>Node6&#45;&gt;Node5</title>
<g id="a_edge6_Node000006_Node000005"><a xlink:title=" ">
<path fill="none" stroke="#63b8ff" d="M451,-50.5C431.5,-40.75 405.35,-27.68 388.34,-19.17"/>
<polygon fill="#63b8ff" stroke="#63b8ff" points="449.46,-53.64 459.97,-54.98 452.59,-47.38 449.46,-53.64"/>
</a>
</g>
</g>
<!-- Node7 -->
<g id="Node000007" class="node">
<title>Node7</title>
<g id="a_Node000007"><a xlink:href="ImguiUI_8cpp.html" target="_top" xlink:title=" ">
<polygon fill="white" stroke="#666666" points="599.5,-19 472.5,-19 472.5,0 599.5,0 599.5,-19"/>
<text text-anchor="middle" x="536" y="-7" font-family="Helvetica,sans-Serif" font-size="10.00">src/port/ui/ImguiUI.cpp</text>
</a>
</g>
</g>
<!-- Node6&#45;&gt;Node7 -->
<g id="edge7_Node000006_Node000007" class="edge">
<title>Node6&#45;&gt;Node7</title>
<g id="a_edge7_Node000006_Node000007"><a xlink:title=" ">
<path fill="none" stroke="#63b8ff" d="M494.2,-48.04C504.67,-38.64 517.65,-26.98 526.35,-19.17"/>
<polygon fill="#63b8ff" stroke="#63b8ff" points="491.58,-45.7 486.48,-54.98 496.26,-50.91 491.58,-45.7"/>
</a>
</g>
</g>
</g>
</svg>
