<?xml version="1.0" encoding="UTF-8" standalone="no"?>
<!DOCTYPE svg PUBLIC "-//W3C//DTD SVG 1.1//EN"
 "http://www.w3.org/Graphics/SVG/1.1/DTD/svg11.dtd">
<!-- Generated by graphviz version 2.43.0 (0)
 -->
<!-- Title: setup_camera Pages: 1 -->
<!--zoomable 342 -->

<svg id="main" version="1.1" xmlns="http://www.w3.org/2000/svg" xmlns:xlink="http://www.w3.org/1999/xlink" xml:space="preserve" onload="init(evt)">

<style type="text/css"><![CDATA[
.node, .edge {opacity: 0.7;}
.node.selected, .edge.selected {opacity: 1;}
.edge:hover path { stroke: red; }
.edge:hover polygon { stroke: red; fill: red; }
]]></style>

<defs>
  <circle id="rim" cx="0" cy="0" r="7"/>
  <circle id="rim2" cx="0" cy="0" r="3.5"/>
  <g id="zoomPlus">
    <use xlink:href="#rim" fill="#404040"><set attributeName="fill" to="#808080" begin="zoomplus.mouseover" end="zoomplus.mouseout"/></use>
    <path d="M-4,0h8M0,-4v8" fill="none" stroke="white" stroke-width="1.5" pointer-events="none"/>
  </g>
  <g id="zoomMin">
    <use xlink:href="#rim" fill="#404040"><set attributeName="fill" to="#808080" begin="zoomminus.mouseover" end="zoomminus.mouseout"/></use>
    <path d="M-4,0h8" fill="none" stroke="white" stroke-width="1.5" pointer-events="none"/>
  </g>
  <g id="arrowUp" transform="translate(30 24)">
    <use xlink:href="#rim"/>
    <path pointer-events="none" fill="none" stroke="white" stroke-width="1.5" d="M0,-3.0v7 M-2.5,-0.5L0,-3.0L2.5,-0.5"/>
  </g>
  <g id="arrowRight" transform="rotate(90) translate(36 -43)">
    <use xlink:href="#rim"/>
    <path pointer-events="none" fill="none" stroke="white" stroke-width="1.5" d="M0,-3.0v7 M-2.5,-0.5L0,-3.0L2.5,-0.5"/>
  </g>
  <g id="arrowDown" transform="rotate(180) translate(-30 -48)">
    <use xlink:href="#rim"/>
    <path pointer-events="none" fill="none" stroke="white" stroke-width="1.5" d="M0,-3.0v7 M-2.5,-0.5L0,-3.0L2.5,-0.5"/>
  </g>
  <g id="arrowLeft" transform="rotate(270) translate(-36 17)">
    <use xlink:href="#rim"/>
    <path pointer-events="none" fill="none" stroke="white" stroke-width="1.5" d="M0,-3.0v7 M-2.5,-0.5L0,-3.0L2.5,-0.5"/>
  </g>
  <g id="resetDef">
    <use xlink:href="#rim2" fill="#404040"><set attributeName="fill" to="#808080" begin="reset.mouseover" end="reset.mouseout"/></use>
  </g>
</defs>
<script type="application/ecmascript">
var viewWidth = 722;
var viewHeight = 342;
var sectionId = 'dynsection-47';
</script>
<script type="application/ecmascript" xlink:href="svg.min.js"/>
<svg id="graph" class="graph">
<g id="viewport">
<title>setup_camera</title>
<!-- Node1 -->
<g id="Node000001" class="node">
<title>Node1</title>
<g id="a_Node000001"><a xlink:title=" ">
<polygon fill="#999999" stroke="#666666" points="86,-179 0,-179 0,-160 86,-160 86,-179"/>
<text text-anchor="middle" x="43" y="-167" font-family="Helvetica,sans-Serif" font-size="10.00">setup_camera</text>
</a>
</g>
</g>
<!-- Node2 -->
<g id="Node000002" class="node">
<title>Node2</title>
<g id="a_Node000002"><a xlink:href="Game_8cpp.html#a3416a195a0c7be6ec3783bbf4842dc3e" target="_top" xlink:title=" ">
<polygon fill="white" stroke="#666666" points="380,-334 298,-334 298,-315 380,-315 380,-334"/>
<text text-anchor="middle" x="339" y="-322" font-family="Helvetica,sans-Serif" font-size="10.00">CM_GetProps</text>
</a>
</g>
</g>
<!-- Node1&#45;&gt;Node2 -->
<g id="edge1_Node000001_Node000002" class="edge">
<title>Node1&#45;&gt;Node2</title>
<g id="a_edge1_Node000001_Node000002"><a xlink:title=" ">
<path fill="none" stroke="#63b8ff" d="M49.31,-179.01C60.32,-197.87 87.54,-240.11 122,-262.5 172.79,-295.5 241.42,-311.28 287.57,-318.59"/>
<polygon fill="#63b8ff" stroke="#63b8ff" points="287.23,-322.07 297.64,-320.1 288.27,-315.15 287.23,-322.07"/>
</a>
</g>
</g>
<!-- Node3 -->
<g id="Node000003" class="node">
<title>Node3</title>
<g id="a_Node000003"><a xlink:href="FrameInterpolation_8cpp.html#ab79dec187c1c1b859e47a13251fb1671" target="_top" xlink:title=" ">
<polygon fill="white" stroke="#666666" points="394,-296.5 284,-296.5 284,-266.5 394,-266.5 394,-296.5"/>
<text text-anchor="start" x="292" y="-284.5" font-family="Helvetica,sans-Serif" font-size="10.00">FrameInterpolation</text>
<text text-anchor="middle" x="339" y="-273.5" font-family="Helvetica,sans-Serif" font-size="10.00">_GetCameraEpoch</text>
</a>
</g>
</g>
<!-- Node1&#45;&gt;Node3 -->
<g id="edge2_Node000001_Node000003" class="edge">
<title>Node1&#45;&gt;Node3</title>
<g id="a_edge2_Node000001_Node000003"><a xlink:title=" ">
<path fill="none" stroke="#63b8ff" d="M53.67,-179.16C67.57,-192.5 94.56,-216.38 122,-229.5 170.26,-252.58 229.63,-265.91 273.91,-273.29"/>
<polygon fill="#63b8ff" stroke="#63b8ff" points="273.54,-276.77 283.97,-274.9 274.65,-269.86 273.54,-276.77"/>
</a>
</g>
</g>
<!-- Node4 -->
<g id="Node000004" class="node">
<title>Node4</title>
<g id="a_Node000004"><a xlink:href="FrameInterpolation_8cpp.html#a3a036bc9d533e28a4e9697cd20dccf3e" target="_top" xlink:title=" ">
<polygon fill="white" stroke="#666666" points="394,-248.5 284,-248.5 284,-218.5 394,-218.5 394,-248.5"/>
<text text-anchor="start" x="292" y="-236.5" font-family="Helvetica,sans-Serif" font-size="10.00">FrameInterpolation</text>
<text text-anchor="middle" x="339" y="-225.5" font-family="Helvetica,sans-Serif" font-size="10.00">_RecordCloseChild</text>
</a>
</g>
</g>
<!-- Node1&#45;&gt;Node4 -->
<g id="edge3_Node000001_Node000004" class="edge">
<title>Node1&#45;&gt;Node4</title>
<g id="a_edge3_Node000001_Node000004"><a xlink:title=" ">
<path fill="none" stroke="#63b8ff" d="M61.42,-179.07C76.87,-187.14 100.3,-198.32 122,-204.5 171.86,-218.71 230.22,-226.01 273.7,-229.74"/>
<polygon fill="#63b8ff" stroke="#63b8ff" points="273.61,-233.24 283.86,-230.57 274.18,-226.26 273.61,-233.24"/>
</a>
</g>
</g>
<!-- Node6 -->
<g id="Node000006" class="node">
<title>Node6</title>
<g id="a_Node000006"><a xlink:href="FrameInterpolation_8cpp.html#a0eda726b74eac815af4e874014e2727c" target="_top" xlink:title=" ">
<polygon fill="white" stroke="#666666" points="394,-200.5 284,-200.5 284,-170.5 394,-170.5 394,-200.5"/>
<text text-anchor="start" x="292" y="-188.5" font-family="Helvetica,sans-Serif" font-size="10.00">FrameInterpolation</text>
<text text-anchor="middle" x="339" y="-177.5" font-family="Helvetica,sans-Serif" font-size="10.00">_RecordOpenChild</text>
</a>
</g>
</g>
<!-- Node1&#45;&gt;Node6 -->
<g id="edge5_Node000001_Node000006" class="edge">
<title>Node1&#45;&gt;Node6</title>
<g id="a_edge5_Node000001_Node000006"><a xlink:title=" ">
<path fill="none" stroke="#63b8ff" d="M75.56,-179.01C89.63,-182.77 106.5,-186.64 122,-188.5 172.67,-194.58 230.51,-193.35 273.58,-190.86"/>
<polygon fill="#63b8ff" stroke="#63b8ff" points="273.87,-194.35 283.64,-190.24 273.44,-187.36 273.87,-194.35"/>
</a>
</g>
</g>
<!-- Node7 -->
<g id="Node000007" class="node">
<title>Node7</title>
<g id="a_Node000007"><a xlink:href="freecam_8cpp.html#a7521efa93b2660b03b60d1e5c02a74b8" target="_top" xlink:title=" ">
<polygon fill="white" stroke="#666666" points="248,-179 122,-179 122,-160 248,-160 248,-179"/>
<text text-anchor="middle" x="185" y="-167" font-family="Helvetica,sans-Serif" font-size="10.00">freecam_render_setup</text>
</a>
</g>
</g>
<!-- Node1&#45;&gt;Node7 -->
<g id="edge7_Node000001_Node000007" class="edge">
<title>Node1&#45;&gt;Node7</title>
<g id="a_edge7_Node000001_Node000007"><a xlink:title=" ">
<path fill="none" stroke="#63b8ff" d="M86,-169.5C94.11,-169.5 102.81,-169.5 111.57,-169.5"/>
<polygon fill="#63b8ff" stroke="#63b8ff" points="111.84,-173 121.84,-169.5 111.84,-166 111.84,-173"/>
</a>
</g>
</g>
<!-- Node8 -->
<g id="Node000008" class="node">
<title>Node8</title>
<g id="a_Node000008"><a xlink:href="Matrix_8cpp.html#acacd5a06b0529a80220125925294944f" target="_top" xlink:title=" ">
<polygon fill="white" stroke="#666666" points="388.5,-65 289.5,-65 289.5,-46 388.5,-46 388.5,-65"/>
<text text-anchor="middle" x="339" y="-53" font-family="Helvetica,sans-Serif" font-size="10.00">GetLookAtMatrix</text>
</a>
</g>
</g>
<!-- Node1&#45;&gt;Node8 -->
<g id="edge28_Node000001_Node000008" class="edge">
<title>Node1&#45;&gt;Node8</title>
<g id="a_edge28_Node000001_Node000008"><a xlink:title=" ">
<path fill="none" stroke="#63b8ff" d="M51.98,-159.73C64.98,-144.53 92.26,-115.41 122,-100.5 171.56,-75.65 234.12,-64.51 279.14,-59.53"/>
<polygon fill="#63b8ff" stroke="#63b8ff" points="279.74,-62.99 289.32,-58.47 279.02,-56.02 279.74,-62.99"/>
</a>
</g>
</g>
<!-- Node9 -->
<g id="Node000009" class="node">
<title>Node9</title>
<g id="a_Node000009"><a xlink:href="Matrix_8cpp.html#a01fc250c2f6e1cd103c61068f9168032" target="_top" xlink:title=" ">
<polygon fill="white" stroke="#666666" points="385,-28 293,-28 293,-9 385,-9 385,-28"/>
<text text-anchor="middle" x="339" y="-16" font-family="Helvetica,sans-Serif" font-size="10.00">GetPerspMatrix</text>
</a>
</g>
</g>
<!-- Node1&#45;&gt;Node9 -->
<g id="edge29_Node000001_Node000009" class="edge">
<title>Node1&#45;&gt;Node9</title>
<g id="a_edge29_Node000001_Node000009"><a xlink:title=" ">
<path fill="none" stroke="#63b8ff" d="M47.77,-159.97C56.9,-138.24 82.4,-84.92 122,-59.5 170.22,-28.54 236.18,-19.79 282.48,-17.85"/>
<polygon fill="#63b8ff" stroke="#63b8ff" points="282.75,-21.34 292.64,-17.52 282.53,-14.35 282.75,-21.34"/>
</a>
</g>
</g>
<!-- Node10 -->
<g id="Node000010" class="node">
<title>Node10</title>
<g id="a_Node000010"><a xlink:href="guLookAtF_8c.html#a8641b89f7767fe85370ca7d198ef5566" target="_top" xlink:title=" ">
<polygon fill="white" stroke="#666666" points="370,-141 308,-141 308,-122 370,-122 370,-141"/>
<text text-anchor="middle" x="339" y="-129" font-family="Helvetica,sans-Serif" font-size="10.00">guLookAt</text>
</a>
</g>
</g>
<!-- Node1&#45;&gt;Node10 -->
<g id="edge30_Node000001_Node000010" class="edge">
<title>Node1&#45;&gt;Node10</title>
<g id="a_edge30_Node000001_Node000010"><a xlink:title=" ">
<path fill="none" stroke="#63b8ff" d="M80.7,-159.96C93.67,-156.87 108.42,-153.69 122,-151.5 182.8,-141.72 254.05,-136.27 297.6,-133.61"/>
<polygon fill="#63b8ff" stroke="#63b8ff" points="298.01,-137.1 307.79,-133.01 297.6,-130.11 298.01,-137.1"/>
</a>
</g>
</g>
<!-- Node16 -->
<g id="Node000016" class="node">
<title>Node16</title>
<g id="a_Node000016"><a xlink:href="guPerspectiveF_8c.html#ac2050885d6967becf0e5e3bb3e54bd08" target="_top" xlink:title=" ">
<polygon fill="white" stroke="#666666" points="382,-103 296,-103 296,-84 382,-84 382,-103"/>
<text text-anchor="middle" x="339" y="-91" font-family="Helvetica,sans-Serif" font-size="10.00">guPerspective</text>
</a>
</g>
</g>
<!-- Node1&#45;&gt;Node16 -->
<g id="edge31_Node000001_Node000016" class="edge">
<title>Node1&#45;&gt;Node16</title>
<g id="a_edge31_Node000001_Node000016"><a xlink:title=" ">
<path fill="none" stroke="#63b8ff" d="M60.81,-159.92C76.26,-151.51 100.02,-139.56 122,-132.5 176.53,-114.99 241.48,-104.59 285.82,-99"/>
<polygon fill="#63b8ff" stroke="#63b8ff" points="286.29,-102.47 295.79,-97.78 285.44,-95.52 286.29,-102.47"/>
</a>
</g>
</g>
<!-- Node5 -->
<g id="Node000005" class="node">
<title>Node5</title>
<g id="a_Node000005"><a xlink:href="FrameInterpolation_8cpp.html#a02c7ac5342a4d376edee38f312b480bf" target="_top" xlink:title=" ">
<polygon fill="white" stroke="#666666" points="714,-216 606,-216 606,-197 714,-197 714,-216"/>
<text text-anchor="middle" x="660" y="-204" font-family="Helvetica,sans-Serif" font-size="10.00">check_if_recording</text>
</a>
</g>
</g>
<!-- Node4&#45;&gt;Node5 -->
<g id="edge4_Node000004_Node000005" class="edge">
<title>Node4&#45;&gt;Node5</title>
<g id="a_edge4_Node000004_Node000005"><a xlink:title=" ">
<path fill="none" stroke="#63b8ff" d="M394.11,-228.92C449.87,-224.2 536.73,-216.85 595.65,-211.86"/>
<polygon fill="#63b8ff" stroke="#63b8ff" points="596.28,-215.32 605.95,-210.99 595.69,-208.35 596.28,-215.32"/>
</a>
</g>
</g>
<!-- Node6&#45;&gt;Node5 -->
<g id="edge6_Node000006_Node000005" class="edge">
<title>Node6&#45;&gt;Node5</title>
<g id="a_edge6_Node000006_Node000005"><a xlink:title=" ">
<path fill="none" stroke="#63b8ff" d="M394.11,-189.06C449.87,-192.73 536.73,-198.45 595.65,-202.33"/>
<polygon fill="#63b8ff" stroke="#63b8ff" points="595.74,-205.84 605.95,-203.01 596.2,-198.86 595.74,-205.84"/>
</a>
</g>
</g>
<!-- Node7&#45;&gt;Node2 -->
<g id="edge8_Node000007_Node000002" class="edge">
<title>Node7&#45;&gt;Node2</title>
<g id="a_edge8_Node000007_Node000002"><a xlink:title=" ">
<path fill="none" stroke="#63b8ff" d="M190.43,-179.29C202.12,-204.05 236.23,-269.76 284,-305.5 286.47,-307.35 289.13,-309.02 291.9,-310.55"/>
<polygon fill="#63b8ff" stroke="#63b8ff" points="290.5,-313.75 301.03,-314.9 293.51,-307.44 290.5,-313.75"/>
</a>
</g>
</g>
<!-- Node7&#45;&gt;Node3 -->
<g id="edge9_Node000007_Node000003" class="edge">
<title>Node7&#45;&gt;Node3</title>
<g id="a_edge9_Node000007_Node000003"><a xlink:title=" ">
<path fill="none" stroke="#63b8ff" d="M194.66,-179.05C210.83,-196.45 247.35,-233.75 284,-257.5 286.26,-258.97 288.63,-260.38 291.06,-261.75"/>
<polygon fill="#63b8ff" stroke="#63b8ff" points="289.54,-264.9 300.02,-266.44 292.79,-258.7 289.54,-264.9"/>
</a>
</g>
</g>
<!-- Node7&#45;&gt;Node4 -->
<g id="edge10_Node000007_Node000004" class="edge">
<title>Node7&#45;&gt;Node4</title>
<g id="a_edge10_Node000007_Node000004"><a xlink:title=" ">
<path fill="none" stroke="#63b8ff" d="M208.76,-179.08C230.91,-188.41 265.18,-202.84 292.87,-214.5"/>
<polygon fill="#63b8ff" stroke="#63b8ff" points="291.79,-217.84 302.36,-218.5 294.51,-211.39 291.79,-217.84"/>
</a>
</g>
</g>
<!-- Node7&#45;&gt;Node6 -->
<g id="edge11_Node000007_Node000006" class="edge">
<title>Node7&#45;&gt;Node6</title>
<g id="a_edge11_Node000007_Node000006"><a xlink:title=" ">
<path fill="none" stroke="#63b8ff" d="M248.26,-176.05C256.66,-176.94 265.28,-177.85 273.71,-178.73"/>
<polygon fill="#63b8ff" stroke="#63b8ff" points="273.55,-182.24 283.86,-179.8 274.28,-175.27 273.55,-182.24"/>
</a>
</g>
</g>
<!-- Node7&#45;&gt;Node8 -->
<g id="edge12_Node000007_Node000008" class="edge">
<title>Node7&#45;&gt;Node8</title>
<g id="a_edge12_Node000007_Node000008"><a xlink:title=" ">
<path fill="none" stroke="#63b8ff" d="M193.64,-159.9C208.95,-141.24 245.24,-99.78 284,-75.5 287.82,-73.11 291.97,-70.94 296.22,-68.98"/>
<polygon fill="#63b8ff" stroke="#63b8ff" points="297.7,-72.16 305.57,-65.06 294.99,-65.7 297.7,-72.16"/>
</a>
</g>
</g>
<!-- Node7&#45;&gt;Node9 -->
<g id="edge13_Node000007_Node000009" class="edge">
<title>Node7&#45;&gt;Node9</title>
<g id="a_edge13_Node000007_Node000009"><a xlink:title=" ">
<path fill="none" stroke="#63b8ff" d="M190.46,-159.88C202.21,-135.56 236.45,-71.08 284,-36.5 285.88,-35.13 287.88,-33.86 289.95,-32.68"/>
<polygon fill="#63b8ff" stroke="#63b8ff" points="291.92,-35.62 299.38,-28.1 288.85,-29.32 291.92,-35.62"/>
</a>
</g>
</g>
<!-- Node7&#45;&gt;Node10 -->
<g id="edge14_Node000007_Node000010" class="edge">
<title>Node7&#45;&gt;Node10</title>
<g id="a_edge14_Node000007_Node000010"><a xlink:title=" ">
<path fill="none" stroke="#63b8ff" d="M224.36,-159.91C246.88,-154.28 275.3,-147.17 298.09,-141.48"/>
<polygon fill="#63b8ff" stroke="#63b8ff" points="298.95,-144.87 307.8,-139.05 297.25,-138.08 298.95,-144.87"/>
</a>
</g>
</g>
<!-- Node7&#45;&gt;Node16 -->
<g id="edge21_Node000007_Node000016" class="edge">
<title>Node7&#45;&gt;Node16</title>
<g id="a_edge21_Node000007_Node000016"><a xlink:title=" ">
<path fill="none" stroke="#63b8ff" d="M200.87,-159.98C219.72,-148.14 253.46,-127.76 284,-113.5 289.1,-111.12 294.56,-108.82 299.98,-106.68"/>
<polygon fill="#63b8ff" stroke="#63b8ff" points="301.51,-109.84 309.61,-103.02 299.02,-103.3 301.51,-109.84"/>
</a>
</g>
</g>
<!-- Node11 -->
<g id="Node000011" class="node">
<title>Node11</title>
<g id="a_Node000011"><a xlink:href="FrameInterpolation_8cpp.html#a8cf1f2d6fabc6925aa71a9515341b4aa" target="_top" xlink:title=" ">
<polygon fill="white" stroke="#666666" points="570,-178.5 430,-178.5 430,-148.5 570,-148.5 570,-178.5"/>
<text text-anchor="start" x="438" y="-166.5" font-family="Helvetica,sans-Serif" font-size="10.00">FrameInterpolation</text>
<text text-anchor="middle" x="500" y="-155.5" font-family="Helvetica,sans-Serif" font-size="10.00">_RecordMatrixMtxFToMtx</text>
</a>
</g>
</g>
<!-- Node10&#45;&gt;Node11 -->
<g id="edge15_Node000010_Node000011" class="edge">
<title>Node10&#45;&gt;Node11</title>
<g id="a_edge15_Node000010_Node000011"><a xlink:title=" ">
<path fill="none" stroke="#63b8ff" d="M370.28,-137.59C384.57,-140.47 402.36,-144.05 420.12,-147.62"/>
<polygon fill="#63b8ff" stroke="#63b8ff" points="419.46,-151.06 429.95,-149.6 420.84,-144.2 419.46,-151.06"/>
</a>
</g>
</g>
<!-- Node12 -->
<g id="Node000012" class="node">
<title>Node12</title>
<g id="a_Node000012"><a xlink:href="guLookAtF_8c.html#a221be5535617db52477d4cb992afa4a9" target="_top" xlink:title=" ">
<polygon fill="white" stroke="#666666" points="534,-130 466,-130 466,-111 534,-111 534,-130"/>
<text text-anchor="middle" x="500" y="-118" font-family="Helvetica,sans-Serif" font-size="10.00">guLookAtF</text>
</a>
</g>
</g>
<!-- Node10&#45;&gt;Node12 -->
<g id="edge17_Node000010_Node000012" class="edge">
<title>Node10&#45;&gt;Node12</title>
<g id="a_edge17_Node000010_Node000012"><a xlink:title=" ">
<path fill="none" stroke="#63b8ff" d="M370.28,-129.41C394.49,-127.73 428.74,-125.36 455.82,-123.49"/>
<polygon fill="#63b8ff" stroke="#63b8ff" points="456.08,-126.98 465.81,-122.8 455.6,-119.99 456.08,-126.98"/>
</a>
</g>
</g>
<!-- Node15 -->
<g id="Node000015" class="node">
<title>Node15</title>
<g id="a_Node000015"><a xlink:href="guMtxF2L_8c.html#a40ab2d64c609839ff1e0ef0de2d0dcc4" target="_top" xlink:title=" ">
<polygon fill="white" stroke="#666666" points="532.5,-93 467.5,-93 467.5,-74 532.5,-74 532.5,-93"/>
<text text-anchor="middle" x="500" y="-81" font-family="Helvetica,sans-Serif" font-size="10.00">guMtxF2L</text>
</a>
</g>
</g>
<!-- Node10&#45;&gt;Node15 -->
<g id="edge20_Node000010_Node000015" class="edge">
<title>Node10&#45;&gt;Node15</title>
<g id="a_edge20_Node000010_Node000015"><a xlink:title=" ">
<path fill="none" stroke="#63b8ff" d="M368.68,-121.91C386.31,-116.1 409.39,-108.65 430,-102.5 438.92,-99.84 448.52,-97.11 457.65,-94.57"/>
<polygon fill="#63b8ff" stroke="#63b8ff" points="458.6,-97.94 467.32,-91.92 456.75,-91.19 458.6,-97.94"/>
</a>
</g>
</g>
<!-- Node11&#45;&gt;Node5 -->
<g id="edge16_Node000011_Node000005" class="edge">
<title>Node11&#45;&gt;Node5</title>
<g id="a_edge16_Node000011_Node000005"><a xlink:title=" ">
<path fill="none" stroke="#63b8ff" d="M556.26,-178.54C575.18,-183.69 596.11,-189.38 614.11,-194.28"/>
<polygon fill="#63b8ff" stroke="#63b8ff" points="613.21,-197.66 623.78,-196.91 615.05,-190.91 613.21,-197.66"/>
</a>
</g>
</g>
<!-- Node13 -->
<g id="Node000013" class="node">
<title>Node13</title>
<g id="a_Node000013"><a xlink:href="guMtxF2L_8c.html#a257a86497fc08677370948eda3163595" target="_top" xlink:title=" ">
<polygon fill="white" stroke="#666666" points="699,-93 621,-93 621,-74 699,-74 699,-93"/>
<text text-anchor="middle" x="660" y="-81" font-family="Helvetica,sans-Serif" font-size="10.00">guMtxIdentF</text>
</a>
</g>
</g>
<!-- Node12&#45;&gt;Node13 -->
<g id="edge18_Node000012_Node000013" class="edge">
<title>Node12&#45;&gt;Node13</title>
<g id="a_edge18_Node000012_Node000013"><a xlink:title=" ">
<path fill="none" stroke="#63b8ff" d="M534.12,-112.74C556.39,-107.53 586.1,-100.57 610.96,-94.75"/>
<polygon fill="#63b8ff" stroke="#63b8ff" points="611.98,-98.1 620.92,-92.42 610.39,-91.29 611.98,-98.1"/>
</a>
</g>
</g>
<!-- Node14 -->
<g id="Node000014" class="node">
<title>Node14</title>
<g id="a_Node000014"><a xlink:href="math_8h.html#a37bde043e94a6f074c78f10518fb5d99" target="_top" xlink:title=" ">
<polygon fill="white" stroke="#666666" points="679.5,-130 640.5,-130 640.5,-111 679.5,-111 679.5,-130"/>
<text text-anchor="middle" x="660" y="-118" font-family="Helvetica,sans-Serif" font-size="10.00">sqrtf</text>
</a>
</g>
</g>
<!-- Node12&#45;&gt;Node14 -->
<g id="edge19_Node000012_Node000014" class="edge">
<title>Node12&#45;&gt;Node14</title>
<g id="a_edge19_Node000012_Node000014"><a xlink:title=" ">
<path fill="none" stroke="#63b8ff" d="M534.12,-120.5C562.56,-120.5 603.14,-120.5 630.24,-120.5"/>
<polygon fill="#63b8ff" stroke="#63b8ff" points="630.26,-124 640.26,-120.5 630.26,-117 630.26,-124"/>
</a>
</g>
</g>
<!-- Node16&#45;&gt;Node11 -->
<g id="edge22_Node000016_Node000011" class="edge">
<title>Node16&#45;&gt;Node11</title>
<g id="a_edge22_Node000016_Node000011"><a xlink:title=" ">
<path fill="none" stroke="#63b8ff" d="M370.34,-103.1C378.23,-106.03 386.59,-109.55 394,-113.5 411.41,-122.79 412.49,-130.38 430,-139.5 433.45,-141.29 437.05,-143 440.74,-144.62"/>
<polygon fill="#63b8ff" stroke="#63b8ff" points="439.42,-147.86 450,-148.45 442.09,-141.39 439.42,-147.86"/>
</a>
</g>
</g>
<!-- Node16&#45;&gt;Node15 -->
<g id="edge23_Node000016_Node000015" class="edge">
<title>Node16&#45;&gt;Node15</title>
<g id="a_edge23_Node000016_Node000015"><a xlink:title=" ">
<path fill="none" stroke="#63b8ff" d="M382.19,-90.85C405.41,-89.39 434.11,-87.58 457.26,-86.13"/>
<polygon fill="#63b8ff" stroke="#63b8ff" points="457.7,-89.6 467.46,-85.48 457.26,-82.62 457.7,-89.6"/>
</a>
</g>
</g>
<!-- Node17 -->
<g id="Node000017" class="node">
<title>Node17</title>
<g id="a_Node000017"><a xlink:href="guPerspectiveF_8c.html#a440bd049e431a7ef892658d88620646c" target="_top" xlink:title=" ">
<polygon fill="white" stroke="#666666" points="546,-56 454,-56 454,-37 546,-37 546,-56"/>
<text text-anchor="middle" x="500" y="-44" font-family="Helvetica,sans-Serif" font-size="10.00">guPerspectiveF</text>
</a>
</g>
</g>
<!-- Node16&#45;&gt;Node17 -->
<g id="edge24_Node000016_Node000017" class="edge">
<title>Node16&#45;&gt;Node17</title>
<g id="a_edge24_Node000016_Node000017"><a xlink:title=" ">
<path fill="none" stroke="#63b8ff" d="M369.93,-83.92C387.4,-78.39 409.9,-71.39 430,-65.5 437.63,-63.26 445.75,-60.96 453.65,-58.76"/>
<polygon fill="#63b8ff" stroke="#63b8ff" points="454.77,-62.08 463.48,-56.04 452.91,-55.33 454.77,-62.08"/>
</a>
</g>
</g>
<!-- Node17&#45;&gt;Node13 -->
<g id="edge26_Node000017_Node000013" class="edge">
<title>Node17&#45;&gt;Node13</title>
<g id="a_edge26_Node000017_Node000013"><a xlink:title=" ">
<path fill="none" stroke="#63b8ff" d="M541.69,-56.03C562.86,-60.99 588.87,-67.08 611.02,-72.26"/>
<polygon fill="#63b8ff" stroke="#63b8ff" points="610.36,-75.7 620.89,-74.58 611.95,-68.89 610.36,-75.7"/>
</a>
</g>
</g>
<!-- Node18 -->
<g id="Node000018" class="node">
<title>Node18</title>
<g id="a_Node000018"><a xlink:href="cosf_8c.html#a7b126b2344591e649c21c9ab0b8adb40" target="_top" xlink:title=" ">
<polygon fill="white" stroke="#666666" points="678.5,-19 641.5,-19 641.5,0 678.5,0 678.5,-19"/>
<text text-anchor="middle" x="660" y="-7" font-family="Helvetica,sans-Serif" font-size="10.00">cosf</text>
</a>
</g>
</g>
<!-- Node17&#45;&gt;Node18 -->
<g id="edge25_Node000017_Node000018" class="edge">
<title>Node17&#45;&gt;Node18</title>
<g id="a_edge25_Node000017_Node000018"><a xlink:title=" ">
<path fill="none" stroke="#63b8ff" d="M541.69,-36.97C569.85,-30.38 606.58,-21.77 631.38,-15.97"/>
<polygon fill="#63b8ff" stroke="#63b8ff" points="632.28,-19.35 641.22,-13.66 630.69,-12.54 632.28,-19.35"/>
</a>
</g>
</g>
<!-- Node19 -->
<g id="Node000019" class="node">
<title>Node19</title>
<g id="a_Node000019"><a xlink:href="sinf_8c.html#a8a7dc2a88e109f4e15b661247665709a" target="_top" xlink:title=" ">
<polygon fill="white" stroke="#666666" points="677.5,-56 642.5,-56 642.5,-37 677.5,-37 677.5,-56"/>
<text text-anchor="middle" x="660" y="-44" font-family="Helvetica,sans-Serif" font-size="10.00">sinf</text>
</a>
</g>
</g>
<!-- Node17&#45;&gt;Node19 -->
<g id="edge27_Node000017_Node000019" class="edge">
<title>Node17&#45;&gt;Node19</title>
<g id="a_edge27_Node000017_Node000019"><a xlink:title=" ">
<path fill="none" stroke="#63b8ff" d="M546.28,-46.5C573.99,-46.5 608.51,-46.5 632,-46.5"/>
<polygon fill="#63b8ff" stroke="#63b8ff" points="632.26,-50 642.26,-46.5 632.26,-43 632.26,-50"/>
</a>
</g>
</g>
</g>
</svg>

<g id="navigator" transform="translate(0 0)" fill="#404254">
  <rect fill="#f2f5e9" fill-opacity="0.5" stroke="#606060" stroke-width=".5" x="0" y="0" width="60" height="60"/>
  <use id="zoomplus" xlink:href="#zoomPlus" x="17" y="9" onmousedown="handleZoom(evt,'in')"/>
  <use id="zoomminus" xlink:href="#zoomMin" x="42" y="9" onmousedown="handleZoom(evt,'out')"/>
  <use id="reset" xlink:href="#resetDef" x="30" y="36" onmousedown="handleReset()"/>
   <use id="arrowup" xlink:href="#arrowUp" x="0" y="0" onmousedown="handlePan(0,-1)"/>
  <use id="arrowright" xlink:href="#arrowRight" x="0" y="0" onmousedown="handlePan(1,0)"/>
  <use id="arrowdown" xlink:href="#arrowDown" x="0" y="0" onmousedown="handlePan(0,1)"/>
  <use id="arrowleft" xlink:href="#arrowLeft" x="0" y="0" onmousedown="handlePan(-1,0)"/>
</g>
<svg viewBox="0 0 15 15" width="100%" height="30px" preserveAspectRatio="xMaxYMin meet">
 <g id="arrow_out" transform="scale(0.3 0.3)">
  <a xlink:href="skybox__and__splitscreen_8c_ad07d7b5039fe42b3bafe466419708243_cgraph_org.svg" target="_base">
   <rect id="button" ry="5" rx="5" y="6" x="6" height="38" width="38"
        fill="#f2f5e9" fill-opacity="0.5" stroke="#606060" stroke-width="1.0"/>
   <path id="arrow"
     d="M 11.500037,31.436501 C 11.940474,20.09759 22.043105,11.32322 32.158766,21.979434 L 37.068811,17.246167 C 37.068811,17.246167 37.088388,32 37.088388,32 L 22.160133,31.978069 C 22.160133,31.978069 26.997745,27.140456 26.997745,27.140456 C 18.528582,18.264221 13.291696,25.230495 11.500037,31.436501 z"
     style="fill:#404040;"/>
  </a>
 </g>
</svg>

<style type='text/css'>
<![CDATA[
[data-mouse-over-selected='false'] { opacity: 0.7; }
[data-mouse-over-selected='true']  { opacity: 1.0; }
]]>
</style>
<script type="application/ecmascript"><![CDATA[
document.addEventListener('DOMContentLoaded', (event) => {
  highlightEdges();
  highlightAdjacentNodes();
});
]]></script>
</svg>
