<?xml version="1.0" encoding="UTF-8" standalone="no"?>
<!DOCTYPE svg PUBLIC "-//W3C//DTD SVG 1.1//EN"
 "http://www.w3.org/Graphics/SVG/1.1/DTD/svg11.dtd">
<!-- Generated by graphviz version 2.43.0 (0)
 -->
<!-- Title: include/assets/models/tracks/skyscraper/skyscraper_displaylists.h Pages: 1 -->
<!--zoomable 280 -->

<svg id="main" version="1.1" xmlns="http://www.w3.org/2000/svg" xmlns:xlink="http://www.w3.org/1999/xlink" xml:space="preserve" onload="init(evt)">

<style type="text/css"><![CDATA[
.node, .edge {opacity: 0.7;}
.node.selected, .edge.selected {opacity: 1;}
.edge:hover path { stroke: red; }
.edge:hover polygon { stroke: red; fill: red; }
]]></style>

<defs>
  <circle id="rim" cx="0" cy="0" r="7"/>
  <circle id="rim2" cx="0" cy="0" r="3.5"/>
  <g id="zoomPlus">
    <use xlink:href="#rim" fill="#404040"><set attributeName="fill" to="#808080" begin="zoomplus.mouseover" end="zoomplus.mouseout"/></use>
    <path d="M-4,0h8M0,-4v8" fill="none" stroke="white" stroke-width="1.5" pointer-events="none"/>
  </g>
  <g id="zoomMin">
    <use xlink:href="#rim" fill="#404040"><set attributeName="fill" to="#808080" begin="zoomminus.mouseover" end="zoomminus.mouseout"/></use>
    <path d="M-4,0h8" fill="none" stroke="white" stroke-width="1.5" pointer-events="none"/>
  </g>
  <g id="arrowUp" transform="translate(30 24)">
    <use xlink:href="#rim"/>
    <path pointer-events="none" fill="none" stroke="white" stroke-width="1.5" d="M0,-3.0v7 M-2.5,-0.5L0,-3.0L2.5,-0.5"/>
  </g>
  <g id="arrowRight" transform="rotate(90) translate(36 -43)">
    <use xlink:href="#rim"/>
    <path pointer-events="none" fill="none" stroke="white" stroke-width="1.5" d="M0,-3.0v7 M-2.5,-0.5L0,-3.0L2.5,-0.5"/>
  </g>
  <g id="arrowDown" transform="rotate(180) translate(-30 -48)">
    <use xlink:href="#rim"/>
    <path pointer-events="none" fill="none" stroke="white" stroke-width="1.5" d="M0,-3.0v7 M-2.5,-0.5L0,-3.0L2.5,-0.5"/>
  </g>
  <g id="arrowLeft" transform="rotate(270) translate(-36 17)">
    <use xlink:href="#rim"/>
    <path pointer-events="none" fill="none" stroke="white" stroke-width="1.5" d="M0,-3.0v7 M-2.5,-0.5L0,-3.0L2.5,-0.5"/>
  </g>
  <g id="resetDef">
    <use xlink:href="#rim2" fill="#404040"><set attributeName="fill" to="#808080" begin="reset.mouseover" end="reset.mouseout"/></use>
  </g>
</defs>
<script type="application/ecmascript">
var viewWidth = 786;
var viewHeight = 280;
var sectionId = 'dynsection-1';
</script>
<script type="application/ecmascript" xlink:href="svg.min.js"/>
<svg id="graph" class="graph">
<g id="viewport">
<title>include/assets/models/tracks/skyscraper/skyscraper_displaylists.h</title>
<!-- Node1 -->
<g id="Node000001" class="node">
<title>Node1</title>
<g id="a_Node000001"><a xlink:title=" ">
<polygon fill="#999999" stroke="#666666" points="445,-272 284,-272 284,-231 445,-231 445,-272"/>
<text text-anchor="start" x="292" y="-260" font-family="Helvetica,sans-Serif" font-size="10.00">include/assets/models</text>
<text text-anchor="start" x="292" y="-249" font-family="Helvetica,sans-Serif" font-size="10.00">/tracks/skyscraper/skyscraper</text>
<text text-anchor="middle" x="364.5" y="-238" font-family="Helvetica,sans-Serif" font-size="10.00">_displaylists.h</text>
</a>
</g>
</g>
<!-- Node2 -->
<g id="Node000002" class="node">
<title>Node2</title>
<g id="a_Node000002"><a xlink:href="all__course__packed_8h.html" target="_top" xlink:title=" ">
<polygon fill="white" stroke="#666666" points="341,-195 234,-195 234,-165 341,-165 341,-195"/>
<text text-anchor="start" x="242" y="-183" font-family="Helvetica,sans-Serif" font-size="10.00">courses/all_course</text>
<text text-anchor="middle" x="287.5" y="-172" font-family="Helvetica,sans-Serif" font-size="10.00">_packed.h</text>
</a>
</g>
</g>
<!-- Node1&#45;&gt;Node2 -->
<g id="edge1_Node000001_Node000002" class="edge">
<title>Node1&#45;&gt;Node2</title>
<g id="a_edge1_Node000001_Node000002"><a xlink:title=" ">
<path fill="none" stroke="#63b8ff" d="M334.96,-223.83C324.09,-214.02 312.21,-203.3 303.05,-195.04"/>
<polygon fill="#63b8ff" stroke="#63b8ff" points="332.87,-226.67 342.64,-230.77 337.56,-221.47 332.87,-226.67"/>
</a>
</g>
</g>
<!-- Node8 -->
<g id="Node000008" class="node">
<title>Node8</title>
<g id="a_Node000008"><a xlink:href="Skyscraper_8h.html" target="_top" xlink:title=" ">
<polygon fill="white" stroke="#666666" points="604.5,-189.5 440.5,-189.5 440.5,-170.5 604.5,-170.5 604.5,-189.5"/>
<text text-anchor="middle" x="522.5" y="-177.5" font-family="Helvetica,sans-Serif" font-size="10.00">src/engine/tracks/Skyscraper.h</text>
</a>
</g>
</g>
<!-- Node1&#45;&gt;Node8 -->
<g id="edge7_Node000001_Node000008" class="edge">
<title>Node1&#45;&gt;Node8</title>
<g id="a_edge7_Node000001_Node000008"><a xlink:title=" ">
<path fill="none" stroke="#63b8ff" d="M418.25,-226.86C447.6,-213.95 482.14,-198.75 503.17,-189.5"/>
<polygon fill="#63b8ff" stroke="#63b8ff" points="416.68,-223.73 408.93,-230.96 419.5,-230.13 416.68,-223.73"/>
</a>
</g>
</g>
<!-- Node3 -->
<g id="Node000003" class="node">
<title>Node3</title>
<g id="a_Node000003"><a xlink:href="code__800029B0_8c.html" target="_top" xlink:title=" ">
<polygon fill="white" stroke="#666666" points="119,-129 0,-129 0,-110 119,-110 119,-129"/>
<text text-anchor="middle" x="59.5" y="-117" font-family="Helvetica,sans-Serif" font-size="10.00">src/code_800029B0.c</text>
</a>
</g>
</g>
<!-- Node2&#45;&gt;Node3 -->
<g id="edge2_Node000002_Node000003" class="edge">
<title>Node2&#45;&gt;Node3</title>
<g id="a_edge2_Node000002_Node000003"><a xlink:title=" ">
<path fill="none" stroke="#63b8ff" d="M224.04,-162.72C181.45,-151.79 127.08,-137.84 92.76,-129.03"/>
<polygon fill="#63b8ff" stroke="#63b8ff" points="223.2,-166.12 233.76,-165.21 224.94,-159.33 223.2,-166.12"/>
</a>
</g>
</g>
<!-- Node4 -->
<g id="Node000004" class="node">
<title>Node4</title>
<g id="a_Node000004"><a xlink:href="all__variables_8h.html" target="_top" xlink:title=" ">
<polygon fill="white" stroke="#666666" points="275.5,-129 137.5,-129 137.5,-110 275.5,-110 275.5,-129"/>
<text text-anchor="middle" x="206.5" y="-117" font-family="Helvetica,sans-Serif" font-size="10.00">src/debug/all_variables.h</text>
</a>
</g>
</g>
<!-- Node2&#45;&gt;Node4 -->
<g id="edge3_Node000002_Node000004" class="edge">
<title>Node2&#45;&gt;Node4</title>
<g id="a_edge3_Node000002_Node000004"><a xlink:title=" ">
<path fill="none" stroke="#63b8ff" d="M259.55,-158.82C245.59,-148.73 229.42,-137.05 218.64,-129.27"/>
<polygon fill="#63b8ff" stroke="#63b8ff" points="257.74,-161.82 267.89,-164.84 261.83,-156.15 257.74,-161.82"/>
</a>
</g>
</g>
<!-- Node7 -->
<g id="Node000007" class="node">
<title>Node7</title>
<g id="a_Node000007"><a xlink:href="render__courses_8c.html" target="_top" xlink:title=" ">
<polygon fill="white" stroke="#666666" points="443,-129 294,-129 294,-110 443,-110 443,-129"/>
<text text-anchor="middle" x="368.5" y="-117" font-family="Helvetica,sans-Serif" font-size="10.00">src/racing/render_courses.c</text>
</a>
</g>
</g>
<!-- Node2&#45;&gt;Node7 -->
<g id="edge6_Node000002_Node000007" class="edge">
<title>Node2&#45;&gt;Node7</title>
<g id="a_edge6_Node000002_Node000007"><a xlink:title=" ">
<path fill="none" stroke="#63b8ff" d="M315.45,-158.82C329.41,-148.73 345.58,-137.05 356.36,-129.27"/>
<polygon fill="#63b8ff" stroke="#63b8ff" points="313.17,-156.15 307.11,-164.84 317.26,-161.82 313.17,-156.15"/>
</a>
</g>
</g>
<!-- Node5 -->
<g id="Node000005" class="node">
<title>Node5</title>
<g id="a_Node000005"><a xlink:href="debug_8inc_8c.html" target="_top" xlink:title=" ">
<polygon fill="white" stroke="#666666" points="267.5,-74 145.5,-74 145.5,-55 267.5,-55 267.5,-74"/>
<text text-anchor="middle" x="206.5" y="-62" font-family="Helvetica,sans-Serif" font-size="10.00">src/debug/debug.inc.c</text>
</a>
</g>
</g>
<!-- Node4&#45;&gt;Node5 -->
<g id="edge4_Node000004_Node000005" class="edge">
<title>Node4&#45;&gt;Node5</title>
<g id="a_edge4_Node000004_Node000005"><a xlink:title=" ">
<path fill="none" stroke="#63b8ff" d="M206.5,-99.66C206.5,-90.93 206.5,-80.99 206.5,-74.09"/>
<polygon fill="#63b8ff" stroke="#63b8ff" points="203,-99.75 206.5,-109.75 210,-99.75 203,-99.75"/>
</a>
</g>
</g>
<!-- Node6 -->
<g id="Node000006" class="node">
<title>Node6</title>
<g id="a_Node000006"><a xlink:href="debug_8c.html" target="_top" xlink:title=" ">
<polygon fill="white" stroke="#666666" points="259,-19 154,-19 154,0 259,0 259,-19"/>
<text text-anchor="middle" x="206.5" y="-7" font-family="Helvetica,sans-Serif" font-size="10.00">src/debug/debug.c</text>
</a>
</g>
</g>
<!-- Node5&#45;&gt;Node6 -->
<g id="edge5_Node000005_Node000006" class="edge">
<title>Node5&#45;&gt;Node6</title>
<g id="a_edge5_Node000005_Node000006"><a xlink:title=" ">
<path fill="none" stroke="#63b8ff" d="M206.5,-44.66C206.5,-35.93 206.5,-25.99 206.5,-19.09"/>
<polygon fill="#63b8ff" stroke="#63b8ff" points="203,-44.75 206.5,-54.75 210,-44.75 203,-44.75"/>
</a>
</g>
</g>
<!-- Node9 -->
<g id="Node000009" class="node">
<title>Node9</title>
<g id="a_Node000009"><a xlink:href="AllTracks_8h.html" target="_top" xlink:title=" ">
<polygon fill="white" stroke="#666666" points="583.5,-129 461.5,-129 461.5,-110 583.5,-110 583.5,-129"/>
<text text-anchor="middle" x="522.5" y="-117" font-family="Helvetica,sans-Serif" font-size="10.00">src/engine/AllTracks.h</text>
</a>
</g>
</g>
<!-- Node8&#45;&gt;Node9 -->
<g id="edge8_Node000008_Node000009" class="edge">
<title>Node8&#45;&gt;Node9</title>
<g id="a_edge8_Node000008_Node000009"><a xlink:title=" ">
<path fill="none" stroke="#63b8ff" d="M522.5,-160.16C522.5,-149.74 522.5,-137.3 522.5,-129.17"/>
<polygon fill="#63b8ff" stroke="#63b8ff" points="519,-160.37 522.5,-170.37 526,-160.37 519,-160.37"/>
</a>
</g>
</g>
<!-- Node12 -->
<g id="Node000012" class="node">
<title>Node12</title>
<g id="a_Node000012"><a xlink:href="Skyscraper_8cpp.html" target="_top" xlink:title=" ">
<polygon fill="white" stroke="#666666" points="777.5,-129 601.5,-129 601.5,-110 777.5,-110 777.5,-129"/>
<text text-anchor="middle" x="689.5" y="-117" font-family="Helvetica,sans-Serif" font-size="10.00">src/engine/tracks/Skyscraper.cpp</text>
</a>
</g>
</g>
<!-- Node8&#45;&gt;Node12 -->
<g id="edge11_Node000008_Node000012" class="edge">
<title>Node8&#45;&gt;Node12</title>
<g id="a_edge11_Node000008_Node000012"><a xlink:title=" ">
<path fill="none" stroke="#63b8ff" d="M556.27,-167.17C588.56,-155.86 636.48,-139.07 665.19,-129.02"/>
<polygon fill="#63b8ff" stroke="#63b8ff" points="555.06,-163.88 546.78,-170.49 557.38,-170.49 555.06,-163.88"/>
</a>
</g>
</g>
<!-- Node10 -->
<g id="Node000010" class="node">
<title>Node10</title>
<g id="a_Node000010"><a xlink:href="RegisterContent_8cpp.html" target="_top" xlink:title=" ">
<polygon fill="white" stroke="#666666" points="531,-74 362,-74 362,-55 531,-55 531,-74"/>
<text text-anchor="middle" x="446.5" y="-62" font-family="Helvetica,sans-Serif" font-size="10.00">src/engine/RegisterContent.cpp</text>
</a>
</g>
</g>
<!-- Node9&#45;&gt;Node10 -->
<g id="edge9_Node000009_Node000010" class="edge">
<title>Node9&#45;&gt;Node10</title>
<g id="a_edge9_Node000009_Node000010"><a xlink:title=" ">
<path fill="none" stroke="#63b8ff" d="M501.92,-104.15C488.19,-94.57 470.57,-82.29 458.93,-74.17"/>
<polygon fill="#63b8ff" stroke="#63b8ff" points="500.08,-107.14 510.29,-109.98 504.09,-101.39 500.08,-107.14"/>
</a>
</g>
</g>
<!-- Node11 -->
<g id="Node000011" class="node">
<title>Node11</title>
<g id="a_Node000011"><a xlink:href="Game_8cpp.html" target="_top" xlink:title=" ">
<polygon fill="white" stroke="#666666" points="654.5,-74 548.5,-74 548.5,-55 654.5,-55 654.5,-74"/>
<text text-anchor="middle" x="601.5" y="-62" font-family="Helvetica,sans-Serif" font-size="10.00">src/port/Game.cpp</text>
</a>
</g>
</g>
<!-- Node9&#45;&gt;Node11 -->
<g id="edge10_Node000009_Node000011" class="edge">
<title>Node9&#45;&gt;Node11</title>
<g id="a_edge10_Node000009_Node000011"><a xlink:title=" ">
<path fill="none" stroke="#63b8ff" d="M543.89,-104.15C558.17,-94.57 576.47,-82.29 588.58,-74.17"/>
<polygon fill="#63b8ff" stroke="#63b8ff" points="541.55,-101.51 535.19,-109.98 545.45,-107.32 541.55,-101.51"/>
</a>
</g>
</g>
</g>
</svg>

<g id="navigator" transform="translate(0 0)" fill="#404254">
  <rect fill="#f2f5e9" fill-opacity="0.5" stroke="#606060" stroke-width=".5" x="0" y="0" width="60" height="60"/>
  <use id="zoomplus" xlink:href="#zoomPlus" x="17" y="9" onmousedown="handleZoom(evt,'in')"/>
  <use id="zoomminus" xlink:href="#zoomMin" x="42" y="9" onmousedown="handleZoom(evt,'out')"/>
  <use id="reset" xlink:href="#resetDef" x="30" y="36" onmousedown="handleReset()"/>
   <use id="arrowup" xlink:href="#arrowUp" x="0" y="0" onmousedown="handlePan(0,-1)"/>
  <use id="arrowright" xlink:href="#arrowRight" x="0" y="0" onmousedown="handlePan(1,0)"/>
  <use id="arrowdown" xlink:href="#arrowDown" x="0" y="0" onmousedown="handlePan(0,1)"/>
  <use id="arrowleft" xlink:href="#arrowLeft" x="0" y="0" onmousedown="handlePan(-1,0)"/>
</g>
<svg viewBox="0 0 15 15" width="100%" height="30px" preserveAspectRatio="xMaxYMin meet">
 <g id="arrow_out" transform="scale(0.3 0.3)">
  <a xlink:href="skyscraper__displaylists_8h__dep__incl_org.svg" target="_base">
   <rect id="button" ry="5" rx="5" y="6" x="6" height="38" width="38"
        fill="#f2f5e9" fill-opacity="0.5" stroke="#606060" stroke-width="1.0"/>
   <path id="arrow"
     d="M 11.500037,31.436501 C 11.940474,20.09759 22.043105,11.32322 32.158766,21.979434 L 37.068811,17.246167 C 37.068811,17.246167 37.088388,32 37.088388,32 L 22.160133,31.978069 C 22.160133,31.978069 26.997745,27.140456 26.997745,27.140456 C 18.528582,18.264221 13.291696,25.230495 11.500037,31.436501 z"
     style="fill:#404040;"/>
  </a>
 </g>
</svg>

<style type='text/css'>
<![CDATA[
[data-mouse-over-selected='false'] { opacity: 0.7; }
[data-mouse-over-selected='true']  { opacity: 1.0; }
]]>
</style>
<script type="application/ecmascript"><![CDATA[
document.addEventListener('DOMContentLoaded', (event) => {
  highlightEdges();
  highlightAdjacentNodes();
});
]]></script>
</svg>
