<?xml version="1.0" encoding="UTF-8" standalone="no"?>
<!DOCTYPE svg PUBLIC "-//W3C//DTD SVG 1.1//EN"
 "http://www.w3.org/Graphics/SVG/1.1/DTD/svg11.dtd">
<!-- Generated by graphviz version 2.43.0 (0)
 -->
<!-- Title: include/assets/models/tracks/skyscraper/skyscraper_vertices.h Pages: 1 -->
<svg width="425pt" height="225pt"
 viewBox="0.00 0.00 424.50 225.00" xmlns="http://www.w3.org/2000/svg" xmlns:xlink="http://www.w3.org/1999/xlink">
<g id="graph0" class="graph" transform="scale(1 1) rotate(0) translate(4 221)">
<title>include/assets/models/tracks/skyscraper/skyscraper_vertices.h</title>
<!-- Node1 -->
<g id="Node000001" class="node">
<title>Node1</title>
<g id="a_Node000001"><a xlink:title=" ">
<polygon fill="#999999" stroke="#666666" points="248,-217 87,-217 87,-176 248,-176 248,-217"/>
<text text-anchor="start" x="95" y="-205" font-family="Helvetica,sans-Serif" font-size="10.00">include/assets/models</text>
<text text-anchor="start" x="95" y="-194" font-family="Helvetica,sans-Serif" font-size="10.00">/tracks/skyscraper/skyscraper</text>
<text text-anchor="middle" x="167.5" y="-183" font-family="Helvetica,sans-Serif" font-size="10.00">_vertices.h</text>
</a>
</g>
</g>
<!-- Node2 -->
<g id="Node000002" class="node">
<title>Node2</title>
<g id="a_Node000002"><a xlink:href="all__course__model_8h.html" target="_top" xlink:title=" ">
<polygon fill="white" stroke="#666666" points="144,-140 37,-140 37,-110 144,-110 144,-140"/>
<text text-anchor="start" x="45" y="-128" font-family="Helvetica,sans-Serif" font-size="10.00">courses/all_course</text>
<text text-anchor="middle" x="90.5" y="-117" font-family="Helvetica,sans-Serif" font-size="10.00">_model.h</text>
</a>
</g>
</g>
<!-- Node1&#45;&gt;Node2 -->
<g id="edge1_Node000001_Node000002" class="edge">
<title>Node1&#45;&gt;Node2</title>
<g id="a_edge1_Node000001_Node000002"><a xlink:title=" ">
<path fill="none" stroke="#63b8ff" d="M137.96,-168.83C127.09,-159.02 115.21,-148.3 106.05,-140.04"/>
<polygon fill="#63b8ff" stroke="#63b8ff" points="135.87,-171.67 145.64,-175.77 140.56,-166.47 135.87,-171.67"/>
</a>
</g>
</g>
<!-- Node3 -->
<g id="Node000003" class="node">
<title>Node3</title>
<g id="a_Node000003"><a xlink:href="Skyscraper_8h.html" target="_top" xlink:title=" ">
<polygon fill="white" stroke="#666666" points="326.5,-134.5 162.5,-134.5 162.5,-115.5 326.5,-115.5 326.5,-134.5"/>
<text text-anchor="middle" x="244.5" y="-122.5" font-family="Helvetica,sans-Serif" font-size="10.00">src/engine/tracks/Skyscraper.h</text>
</a>
</g>
</g>
<!-- Node1&#45;&gt;Node3 -->
<g id="edge2_Node000001_Node000003" class="edge">
<title>Node1&#45;&gt;Node3</title>
<g id="a_edge2_Node000001_Node000003"><a xlink:title=" ">
<path fill="none" stroke="#63b8ff" d="M196.99,-168.88C210.35,-156.82 225.24,-143.38 234.73,-134.82"/>
<polygon fill="#63b8ff" stroke="#63b8ff" points="194.44,-166.47 189.36,-175.77 199.13,-171.67 194.44,-166.47"/>
</a>
</g>
</g>
<!-- Node4 -->
<g id="Node000004" class="node">
<title>Node4</title>
<g id="a_Node000004"><a xlink:href="AllTracks_8h.html" target="_top" xlink:title=" ">
<polygon fill="white" stroke="#666666" points="222.5,-74 100.5,-74 100.5,-55 222.5,-55 222.5,-74"/>
<text text-anchor="middle" x="161.5" y="-62" font-family="Helvetica,sans-Serif" font-size="10.00">src/engine/AllTracks.h</text>
</a>
</g>
</g>
<!-- Node3&#45;&gt;Node4 -->
<g id="edge3_Node000003_Node000004" class="edge">
<title>Node3&#45;&gt;Node4</title>
<g id="a_edge3_Node000003_Node000004"><a xlink:title=" ">
<path fill="none" stroke="#63b8ff" d="M223.71,-109.35C207.99,-98.27 186.94,-83.43 173.8,-74.17"/>
<polygon fill="#63b8ff" stroke="#63b8ff" points="222.06,-112.47 232.25,-115.37 226.1,-106.75 222.06,-112.47"/>
</a>
</g>
</g>
<!-- Node7 -->
<g id="Node000007" class="node">
<title>Node7</title>
<g id="a_Node000007"><a xlink:href="Skyscraper_8cpp.html" target="_top" xlink:title=" ">
<polygon fill="white" stroke="#666666" points="416.5,-74 240.5,-74 240.5,-55 416.5,-55 416.5,-74"/>
<text text-anchor="middle" x="328.5" y="-62" font-family="Helvetica,sans-Serif" font-size="10.00">src/engine/tracks/Skyscraper.cpp</text>
</a>
</g>
</g>
<!-- Node3&#45;&gt;Node7 -->
<g id="edge6_Node000003_Node000007" class="edge">
<title>Node3&#45;&gt;Node7</title>
<g id="a_edge6_Node000003_Node000007"><a xlink:title=" ">
<path fill="none" stroke="#63b8ff" d="M265.54,-109.35C281.45,-98.27 302.76,-83.43 316.05,-74.17"/>
<polygon fill="#63b8ff" stroke="#63b8ff" points="263.1,-106.78 256.89,-115.37 267.1,-112.53 263.1,-106.78"/>
</a>
</g>
</g>
<!-- Node5 -->
<g id="Node000005" class="node">
<title>Node5</title>
<g id="a_Node000005"><a xlink:href="RegisterContent_8cpp.html" target="_top" xlink:title=" ">
<polygon fill="white" stroke="#666666" points="169,-19 0,-19 0,0 169,0 169,-19"/>
<text text-anchor="middle" x="84.5" y="-7" font-family="Helvetica,sans-Serif" font-size="10.00">src/engine/RegisterContent.cpp</text>
</a>
</g>
</g>
<!-- Node4&#45;&gt;Node5 -->
<g id="edge4_Node000004_Node000005" class="edge">
<title>Node4&#45;&gt;Node5</title>
<g id="a_edge4_Node000004_Node000005"><a xlink:title=" ">
<path fill="none" stroke="#63b8ff" d="M140.65,-49.15C126.74,-39.57 108.89,-27.29 97.1,-19.17"/>
<polygon fill="#63b8ff" stroke="#63b8ff" points="138.91,-52.2 149.13,-54.98 142.88,-46.43 138.91,-52.2"/>
</a>
</g>
</g>
<!-- Node6 -->
<g id="Node000006" class="node">
<title>Node6</title>
<g id="a_Node000006"><a xlink:href="Game_8cpp.html" target="_top" xlink:title=" ">
<polygon fill="white" stroke="#666666" points="292.5,-19 186.5,-19 186.5,0 292.5,0 292.5,-19"/>
<text text-anchor="middle" x="239.5" y="-7" font-family="Helvetica,sans-Serif" font-size="10.00">src/port/Game.cpp</text>
</a>
</g>
</g>
<!-- Node4&#45;&gt;Node6 -->
<g id="edge5_Node000004_Node000006" class="edge">
<title>Node4&#45;&gt;Node6</title>
<g id="a_edge5_Node000004_Node000006"><a xlink:title=" ">
<path fill="none" stroke="#63b8ff" d="M182.62,-49.15C196.71,-39.57 214.79,-27.29 226.74,-19.17"/>
<polygon fill="#63b8ff" stroke="#63b8ff" points="180.34,-46.47 174.03,-54.98 184.27,-52.26 180.34,-46.47"/>
</a>
</g>
</g>
</g>
</svg>
