<?xml version="1.0" encoding="UTF-8" standalone="no"?>
<!DOCTYPE svg PUBLIC "-//W3C//DTD SVG 1.1//EN"
 "http://www.w3.org/Graphics/SVG/1.1/DTD/svg11.dtd">
<!-- Generated by graphviz version 2.43.0 (0)
 -->
<!-- Title: src/spawn_players.h Pages: 1 -->
<svg width="5062pt" height="203pt"
 viewBox="0.00 0.00 5062.00 203.00" xmlns="http://www.w3.org/2000/svg" xmlns:xlink="http://www.w3.org/1999/xlink">
<g id="graph0" class="graph" transform="scale(1 1) rotate(0) translate(4 199)">
<title>src/spawn_players.h</title>
<!-- Node1 -->
<g id="Node000001" class="node">
<title>Node1</title>
<g id="a_Node000001"><a xlink:title=" ">
<polygon fill="#999999" stroke="#666666" points="2638.5,-195 2522.5,-195 2522.5,-176 2638.5,-176 2638.5,-195"/>
<text text-anchor="middle" x="2580.5" y="-183" font-family="Helvetica,sans-Serif" font-size="10.00">src/spawn_players.h</text>
</a>
</g>
</g>
<!-- Node2 -->
<g id="Node000002" class="node">
<title>Node2</title>
<g id="a_Node000002"><a xlink:href="camera_8c.html" target="_top" xlink:title=" ">
<polygon fill="white" stroke="#666666" points="79,-134.5 0,-134.5 0,-115.5 79,-115.5 79,-134.5"/>
<text text-anchor="middle" x="39.5" y="-122.5" font-family="Helvetica,sans-Serif" font-size="10.00">src/camera.c</text>
</a>
</g>
</g>
<!-- Node1&#45;&gt;Node2 -->
<g id="edge1_Node000001_Node000002" class="edge">
<title>Node1&#45;&gt;Node2</title>
<g id="a_edge1_Node000001_Node000002"><a xlink:title=" ">
<path fill="none" stroke="#63b8ff" d="M2512.18,-184.34C2136.87,-183.33 333.69,-176.58 88.5,-140 80.62,-138.83 72.23,-136.75 64.66,-134.54"/>
<polygon fill="#63b8ff" stroke="#63b8ff" points="2512.34,-187.84 2522.35,-184.37 2512.36,-180.84 2512.34,-187.84"/>
</a>
</g>
</g>
<!-- Node3 -->
<g id="Node000003" class="node">
<title>Node3</title>
<g id="a_Node000003"><a xlink:href="code__800029B0_8c.html" target="_top" xlink:title=" ">
<polygon fill="white" stroke="#666666" points="216,-134.5 97,-134.5 97,-115.5 216,-115.5 216,-134.5"/>
<text text-anchor="middle" x="156.5" y="-122.5" font-family="Helvetica,sans-Serif" font-size="10.00">src/code_800029B0.c</text>
</a>
</g>
</g>
<!-- Node1&#45;&gt;Node3 -->
<g id="edge2_Node000001_Node000003" class="edge">
<title>Node1&#45;&gt;Node3</title>
<g id="a_edge2_Node000001_Node000003"><a xlink:title=" ">
<path fill="none" stroke="#63b8ff" d="M2512.22,-183.95C2149.64,-180.92 457.56,-165.52 225.5,-140 214.56,-138.8 202.79,-136.71 192.12,-134.51"/>
<polygon fill="#63b8ff" stroke="#63b8ff" points="2512.28,-187.45 2522.3,-184.03 2512.33,-180.45 2512.28,-187.45"/>
</a>
</g>
</g>
<!-- Node4 -->
<g id="Node000004" class="node">
<title>Node4</title>
<g id="a_Node000004"><a xlink:href="code__80005FD0_8c.html" target="_top" xlink:title=" ">
<polygon fill="white" stroke="#666666" points="354.5,-134.5 234.5,-134.5 234.5,-115.5 354.5,-115.5 354.5,-134.5"/>
<text text-anchor="middle" x="294.5" y="-122.5" font-family="Helvetica,sans-Serif" font-size="10.00">src/code_80005FD0.c</text>
</a>
</g>
</g>
<!-- Node1&#45;&gt;Node4 -->
<g id="edge3_Node000001_Node000004" class="edge">
<title>Node1&#45;&gt;Node4</title>
<g id="a_edge3_Node000001_Node000004"><a xlink:title=" ">
<path fill="none" stroke="#63b8ff" d="M2512.22,-184.76C2187.32,-185.75 795.9,-187.09 364.5,-140 353.53,-138.8 341.73,-136.75 331,-134.57"/>
<polygon fill="#63b8ff" stroke="#63b8ff" points="2512.43,-188.26 2522.42,-184.73 2512.41,-181.26 2512.43,-188.26"/>
</a>
</g>
</g>
<!-- Node5 -->
<g id="Node000005" class="node">
<title>Node5</title>
<g id="a_Node000005"><a xlink:href="code__80057C60_8c.html" target="_top" xlink:title=" ">
<polygon fill="white" stroke="#666666" points="492,-134.5 373,-134.5 373,-115.5 492,-115.5 492,-134.5"/>
<text text-anchor="middle" x="432.5" y="-122.5" font-family="Helvetica,sans-Serif" font-size="10.00">src/code_80057C60.c</text>
</a>
</g>
</g>
<!-- Node1&#45;&gt;Node5 -->
<g id="edge4_Node000001_Node000005" class="edge">
<title>Node1&#45;&gt;Node5</title>
<g id="a_edge4_Node000001_Node000005"><a xlink:title=" ">
<path fill="none" stroke="#63b8ff" d="M2511.9,-184.68C2198.9,-185.25 904.17,-184.8 501.5,-140 490.69,-138.8 479.05,-136.74 468.48,-134.56"/>
<polygon fill="#63b8ff" stroke="#63b8ff" points="2512.19,-188.18 2522.19,-184.66 2512.18,-181.18 2512.19,-188.18"/>
</a>
</g>
</g>
<!-- Node6 -->
<g id="Node000006" class="node">
<title>Node6</title>
<g id="a_Node000006"><a xlink:href="all__variables_8h.html" target="_top" xlink:title=" ">
<polygon fill="white" stroke="#666666" points="648.5,-134.5 510.5,-134.5 510.5,-115.5 648.5,-115.5 648.5,-134.5"/>
<text text-anchor="middle" x="579.5" y="-122.5" font-family="Helvetica,sans-Serif" font-size="10.00">src/debug/all_variables.h</text>
</a>
</g>
</g>
<!-- Node1&#45;&gt;Node6 -->
<g id="edge5_Node000001_Node000006" class="edge">
<title>Node1&#45;&gt;Node6</title>
<g id="a_edge5_Node000001_Node000006"><a xlink:title=" ">
<path fill="none" stroke="#63b8ff" d="M2511.8,-184.31C2213.5,-183.28 1028.99,-176.9 658.5,-140 646.16,-138.77 632.86,-136.7 620.75,-134.53"/>
<polygon fill="#63b8ff" stroke="#63b8ff" points="2512.02,-187.81 2522.04,-184.35 2512.05,-180.81 2512.02,-187.81"/>
</a>
</g>
</g>
<!-- Node9 -->
<g id="Node000009" class="node">
<title>Node9</title>
<g id="a_Node000009"><a xlink:href="effects_8c.html" target="_top" xlink:title=" ">
<polygon fill="white" stroke="#666666" points="742,-134.5 667,-134.5 667,-115.5 742,-115.5 742,-134.5"/>
<text text-anchor="middle" x="704.5" y="-122.5" font-family="Helvetica,sans-Serif" font-size="10.00">src/effects.c</text>
</a>
</g>
</g>
<!-- Node1&#45;&gt;Node9 -->
<g id="edge8_Node000001_Node000009" class="edge">
<title>Node1&#45;&gt;Node9</title>
<g id="a_edge8_Node000001_Node000009"><a xlink:title=" ">
<path fill="none" stroke="#63b8ff" d="M2512.03,-183.91C2200.86,-181.07 927.54,-167.85 751.5,-140 743.93,-138.8 735.88,-136.72 728.61,-134.52"/>
<polygon fill="#63b8ff" stroke="#63b8ff" points="2512.23,-187.41 2522.26,-184 2512.29,-180.41 2512.23,-187.41"/>
</a>
</g>
</g>
<!-- Node10 -->
<g id="Node000010" class="node">
<title>Node10</title>
<g id="a_Node000010"><a xlink:href="code__80281780_8c.html" target="_top" xlink:title=" ">
<polygon fill="white" stroke="#666666" points="915,-134.5 760,-134.5 760,-115.5 915,-115.5 915,-134.5"/>
<text text-anchor="middle" x="837.5" y="-122.5" font-family="Helvetica,sans-Serif" font-size="10.00">src/ending/code_80281780.c</text>
</a>
</g>
</g>
<!-- Node1&#45;&gt;Node10 -->
<g id="edge9_Node000001_Node000010" class="edge">
<title>Node1&#45;&gt;Node10</title>
<g id="a_edge9_Node000001_Node000010"><a xlink:title=" ">
<path fill="none" stroke="#63b8ff" d="M2512.16,-183.87C2240.98,-181.2 1240.26,-169.52 924.5,-140 911.1,-138.75 896.63,-136.7 883.41,-134.56"/>
<polygon fill="#63b8ff" stroke="#63b8ff" points="2512.22,-187.37 2522.25,-183.97 2512.29,-180.38 2512.22,-187.37"/>
</a>
</g>
</g>
<!-- Node11 -->
<g id="Node000011" class="node">
<title>Node11</title>
<g id="a_Node000011"><a xlink:href="TourCamera_8cpp.html" target="_top" xlink:title=" ">
<polygon fill="white" stroke="#666666" points="1045.5,-140 933.5,-140 933.5,-110 1045.5,-110 1045.5,-140"/>
<text text-anchor="start" x="941.5" y="-128" font-family="Helvetica,sans-Serif" font-size="10.00">src/engine/cameras</text>
<text text-anchor="middle" x="989.5" y="-117" font-family="Helvetica,sans-Serif" font-size="10.00">/TourCamera.cpp</text>
</a>
</g>
</g>
<!-- Node1&#45;&gt;Node11 -->
<g id="edge10_Node000001_Node000011" class="edge">
<title>Node1&#45;&gt;Node11</title>
<g id="a_edge10_Node000001_Node000011"><a xlink:title=" ">
<path fill="none" stroke="#63b8ff" d="M2512.01,-184.17C2254.26,-182.66 1342.57,-174.92 1054.5,-140 1051.64,-139.65 1048.71,-139.24 1045.76,-138.78"/>
<polygon fill="#63b8ff" stroke="#63b8ff" points="2512.33,-187.67 2522.35,-184.23 2512.37,-180.67 2512.33,-187.67"/>
</a>
</g>
</g>
<!-- Node12 -->
<g id="Node000012" class="node">
<title>Node12</title>
<g id="a_Node000012"><a xlink:href="BansheeBoardwalk_8cpp.html" target="_top" xlink:title=" ">
<polygon fill="white" stroke="#666666" points="1197.5,-140 1063.5,-140 1063.5,-110 1197.5,-110 1197.5,-140"/>
<text text-anchor="start" x="1071.5" y="-128" font-family="Helvetica,sans-Serif" font-size="10.00">src/engine/courses</text>
<text text-anchor="middle" x="1130.5" y="-117" font-family="Helvetica,sans-Serif" font-size="10.00">/BansheeBoardwalk.cpp</text>
</a>
</g>
</g>
<!-- Node1&#45;&gt;Node12 -->
<g id="edge11_Node000001_Node000012" class="edge">
<title>Node1&#45;&gt;Node12</title>
<g id="a_edge11_Node000001_Node000012"><a xlink:title=" ">
<path fill="none" stroke="#63b8ff" d="M2512.15,-183.62C2271.57,-180.31 1464.67,-167.4 1207.5,-140 1204.26,-139.65 1200.95,-139.25 1197.61,-138.8"/>
<polygon fill="#63b8ff" stroke="#63b8ff" points="2512.11,-187.12 2522.16,-183.76 2512.21,-180.12 2512.11,-187.12"/>
</a>
</g>
</g>
<!-- Node13 -->
<g id="Node000013" class="node">
<title>Node13</title>
<g id="a_Node000013"><a xlink:href="BigDonut_8cpp.html" target="_top" xlink:title=" ">
<polygon fill="white" stroke="#666666" points="1323,-140 1216,-140 1216,-110 1323,-110 1323,-140"/>
<text text-anchor="start" x="1224" y="-128" font-family="Helvetica,sans-Serif" font-size="10.00">src/engine/courses</text>
<text text-anchor="middle" x="1269.5" y="-117" font-family="Helvetica,sans-Serif" font-size="10.00">/BigDonut.cpp</text>
</a>
</g>
</g>
<!-- Node1&#45;&gt;Node13 -->
<g id="edge12_Node000001_Node000013" class="edge">
<title>Node1&#45;&gt;Node13</title>
<g id="a_edge12_Node000001_Node000013"><a xlink:title=" ">
<path fill="none" stroke="#63b8ff" d="M2512.34,-183.71C2286.45,-180.85 1563.63,-169.55 1332.5,-140 1329.5,-139.62 1326.43,-139.16 1323.34,-138.64"/>
<polygon fill="#63b8ff" stroke="#63b8ff" points="2512.36,-187.21 2522.4,-183.84 2512.44,-180.21 2512.36,-187.21"/>
</a>
</g>
</g>
<!-- Node14 -->
<g id="Node000014" class="node">
<title>Node14</title>
<g id="a_Node000014"><a xlink:href="BlockFort_8cpp.html" target="_top" xlink:title=" ">
<polygon fill="white" stroke="#666666" points="1448,-140 1341,-140 1341,-110 1448,-110 1448,-140"/>
<text text-anchor="start" x="1349" y="-128" font-family="Helvetica,sans-Serif" font-size="10.00">src/engine/courses</text>
<text text-anchor="middle" x="1394.5" y="-117" font-family="Helvetica,sans-Serif" font-size="10.00">/BlockFort.cpp</text>
</a>
</g>
</g>
<!-- Node1&#45;&gt;Node14 -->
<g id="edge13_Node000001_Node000014" class="edge">
<title>Node1&#45;&gt;Node14</title>
<g id="a_edge13_Node000001_Node000014"><a xlink:title=" ">
<path fill="none" stroke="#63b8ff" d="M2512.16,-183.4C2301.37,-179.74 1663.12,-166.7 1457.5,-140 1454.39,-139.6 1451.2,-139.11 1448,-138.57"/>
<polygon fill="#63b8ff" stroke="#63b8ff" points="2512.41,-186.9 2522.47,-183.57 2512.53,-179.9 2512.41,-186.9"/>
</a>
</g>
</g>
<!-- Node15 -->
<g id="Node000015" class="node">
<title>Node15</title>
<g id="a_Node000015"><a xlink:href="BowsersCastle_8cpp.html" target="_top" xlink:title=" ">
<polygon fill="white" stroke="#666666" points="1578.5,-140 1466.5,-140 1466.5,-110 1578.5,-110 1578.5,-140"/>
<text text-anchor="start" x="1474.5" y="-128" font-family="Helvetica,sans-Serif" font-size="10.00">src/engine/courses</text>
<text text-anchor="middle" x="1522.5" y="-117" font-family="Helvetica,sans-Serif" font-size="10.00">/BowsersCastle.cpp</text>
</a>
</g>
</g>
<!-- Node1&#45;&gt;Node15 -->
<g id="edge14_Node000001_Node000015" class="edge">
<title>Node1&#45;&gt;Node15</title>
<g id="a_edge14_Node000001_Node000015"><a xlink:title=" ">
<path fill="none" stroke="#63b8ff" d="M2512.2,-182.93C2318.31,-178.23 1766.88,-163.17 1587.5,-140 1584.64,-139.63 1581.71,-139.2 1578.77,-138.72"/>
<polygon fill="#63b8ff" stroke="#63b8ff" points="2512.18,-186.43 2522.27,-183.17 2512.35,-179.43 2512.18,-186.43"/>
</a>
</g>
</g>
<!-- Node16 -->
<g id="Node000016" class="node">
<title>Node16</title>
<g id="a_Node000016"><a xlink:href="ChocoMountain_8cpp.html" target="_top" xlink:title=" ">
<polygon fill="white" stroke="#666666" points="1712.5,-140 1596.5,-140 1596.5,-110 1712.5,-110 1712.5,-140"/>
<text text-anchor="start" x="1604.5" y="-128" font-family="Helvetica,sans-Serif" font-size="10.00">src/engine/courses</text>
<text text-anchor="middle" x="1654.5" y="-117" font-family="Helvetica,sans-Serif" font-size="10.00">/ChocoMountain.cpp</text>
</a>
</g>
</g>
<!-- Node1&#45;&gt;Node16 -->
<g id="edge15_Node000001_Node000016" class="edge">
<title>Node1&#45;&gt;Node16</title>
<g id="a_edge15_Node000001_Node000016"><a xlink:title=" ">
<path fill="none" stroke="#63b8ff" d="M2512.36,-184.46C2366.75,-183.6 2014.71,-177.44 1722.5,-140 1719.27,-139.59 1715.97,-139.1 1712.64,-138.57"/>
<polygon fill="#63b8ff" stroke="#63b8ff" points="2512.47,-187.96 2522.48,-184.51 2512.5,-180.96 2512.47,-187.96"/>
</a>
</g>
</g>
<!-- Node17 -->
<g id="Node000017" class="node">
<title>Node17</title>
<g id="a_Node000017"><a xlink:href="DKJungle_8cpp.html" target="_top" xlink:title=" ">
<polygon fill="white" stroke="#666666" points="1838,-140 1731,-140 1731,-110 1838,-110 1838,-140"/>
<text text-anchor="start" x="1739" y="-128" font-family="Helvetica,sans-Serif" font-size="10.00">src/engine/courses</text>
<text text-anchor="middle" x="1784.5" y="-117" font-family="Helvetica,sans-Serif" font-size="10.00">/DKJungle.cpp</text>
</a>
</g>
</g>
<!-- Node1&#45;&gt;Node17 -->
<g id="edge16_Node000001_Node000017" class="edge">
<title>Node1&#45;&gt;Node17</title>
<g id="a_edge16_Node000001_Node000017"><a xlink:title=" ">
<path fill="none" stroke="#63b8ff" d="M2512.01,-183.94C2381.9,-182.09 2090.27,-174.13 1847.5,-140 1844.39,-139.56 1841.21,-139.05 1838.01,-138.5"/>
<polygon fill="#63b8ff" stroke="#63b8ff" points="2512.18,-187.45 2522.23,-184.08 2512.27,-180.45 2512.18,-187.45"/>
</a>
</g>
</g>
<!-- Node18 -->
<g id="Node000018" class="node">
<title>Node18</title>
<g id="a_Node000018"><a xlink:href="DoubleDeck_8cpp.html" target="_top" xlink:title=" ">
<polygon fill="white" stroke="#666666" points="1963,-140 1856,-140 1856,-110 1963,-110 1963,-140"/>
<text text-anchor="start" x="1864" y="-128" font-family="Helvetica,sans-Serif" font-size="10.00">src/engine/courses</text>
<text text-anchor="middle" x="1909.5" y="-117" font-family="Helvetica,sans-Serif" font-size="10.00">/DoubleDeck.cpp</text>
</a>
</g>
</g>
<!-- Node1&#45;&gt;Node18 -->
<g id="edge17_Node000001_Node000018" class="edge">
<title>Node1&#45;&gt;Node18</title>
<g id="a_edge17_Node000001_Node000018"><a xlink:title=" ">
<path fill="none" stroke="#63b8ff" d="M2512.13,-182.74C2399.23,-179.11 2166.96,-168.57 1972.5,-140 1969.4,-139.54 1966.22,-139.02 1963.02,-138.45"/>
<polygon fill="#63b8ff" stroke="#63b8ff" points="2512.24,-186.24 2522.35,-183.06 2512.46,-179.25 2512.24,-186.24"/>
</a>
</g>
</g>
<!-- Node19 -->
<g id="Node000019" class="node">
<title>Node19</title>
<g id="a_Node000019"><a xlink:href="FrappeSnowland_8cpp.html" target="_top" xlink:title=" ">
<polygon fill="white" stroke="#666666" points="2101.5,-140 1981.5,-140 1981.5,-110 2101.5,-110 2101.5,-140"/>
<text text-anchor="start" x="1989.5" y="-128" font-family="Helvetica,sans-Serif" font-size="10.00">src/engine/courses</text>
<text text-anchor="middle" x="2041.5" y="-117" font-family="Helvetica,sans-Serif" font-size="10.00">/FrappeSnowland.cpp</text>
</a>
</g>
</g>
<!-- Node1&#45;&gt;Node19 -->
<g id="edge18_Node000001_Node000019" class="edge">
<title>Node1&#45;&gt;Node19</title>
<g id="a_edge18_Node000001_Node000019"><a xlink:title=" ">
<path fill="none" stroke="#63b8ff" d="M2511.89,-180.21C2420.29,-173.97 2253.11,-160.82 2111.5,-140 2108.31,-139.53 2105.05,-139.01 2101.76,-138.46"/>
<polygon fill="#63b8ff" stroke="#63b8ff" points="2511.93,-183.72 2522.14,-180.9 2512.4,-176.73 2511.93,-183.72"/>
</a>
</g>
</g>
<!-- Node20 -->
<g id="Node000020" class="node">
<title>Node20</title>
<g id="a_Node000020"><a xlink:href="Harbour_8cpp.html" target="_top" xlink:title=" ">
<polygon fill="white" stroke="#666666" points="2227,-140 2120,-140 2120,-110 2227,-110 2227,-140"/>
<text text-anchor="start" x="2128" y="-128" font-family="Helvetica,sans-Serif" font-size="10.00">src/engine/courses</text>
<text text-anchor="middle" x="2173.5" y="-117" font-family="Helvetica,sans-Serif" font-size="10.00">/Harbour.cpp</text>
</a>
</g>
</g>
<!-- Node1&#45;&gt;Node20 -->
<g id="edge19_Node000001_Node000020" class="edge">
<title>Node1&#45;&gt;Node20</title>
<g id="a_edge19_Node000001_Node000020"><a xlink:title=" ">
<path fill="none" stroke="#63b8ff" d="M2512.48,-177.53C2442.88,-169.97 2331.76,-156.71 2236.5,-140 2233.41,-139.46 2230.24,-138.87 2227.05,-138.24"/>
<polygon fill="#63b8ff" stroke="#63b8ff" points="2512.12,-181.01 2522.44,-178.6 2512.87,-174.05 2512.12,-181.01"/>
</a>
</g>
</g>
<!-- Node21 -->
<g id="Node000021" class="node">
<title>Node21</title>
<g id="a_Node000021"><a xlink:href="KalimariDesert_8cpp.html" target="_top" xlink:title=" ">
<polygon fill="white" stroke="#666666" points="2358,-140 2245,-140 2245,-110 2358,-110 2358,-140"/>
<text text-anchor="start" x="2253" y="-128" font-family="Helvetica,sans-Serif" font-size="10.00">src/engine/courses</text>
<text text-anchor="middle" x="2301.5" y="-117" font-family="Helvetica,sans-Serif" font-size="10.00">/KalimariDesert.cpp</text>
</a>
</g>
</g>
<!-- Node1&#45;&gt;Node21 -->
<g id="edge20_Node000001_Node000021" class="edge">
<title>Node1&#45;&gt;Node21</title>
<g id="a_edge20_Node000001_Node000021"><a xlink:title=" ">
<path fill="none" stroke="#63b8ff" d="M2529.29,-173.85C2486.14,-164.86 2422.77,-151.64 2367.5,-140 2364.41,-139.35 2361.23,-138.68 2358.02,-138"/>
<polygon fill="#63b8ff" stroke="#63b8ff" points="2528.76,-177.31 2539.26,-175.92 2530.18,-170.46 2528.76,-177.31"/>
</a>
</g>
</g>
<!-- Node22 -->
<g id="Node000022" class="node">
<title>Node22</title>
<g id="a_Node000022"><a xlink:href="KoopaTroopaBeach_8cpp.html" target="_top" xlink:title=" ">
<polygon fill="white" stroke="#666666" points="2508.5,-140 2376.5,-140 2376.5,-110 2508.5,-110 2508.5,-140"/>
<text text-anchor="start" x="2384.5" y="-128" font-family="Helvetica,sans-Serif" font-size="10.00">src/engine/courses</text>
<text text-anchor="middle" x="2442.5" y="-117" font-family="Helvetica,sans-Serif" font-size="10.00">/KoopaTroopaBeach.cpp</text>
</a>
</g>
</g>
<!-- Node1&#45;&gt;Node22 -->
<g id="edge21_Node000001_Node000022" class="edge">
<title>Node1&#45;&gt;Node22</title>
<g id="a_edge21_Node000001_Node000022"><a xlink:title=" ">
<path fill="none" stroke="#63b8ff" d="M2551.2,-172.08C2529.08,-162.7 2498.7,-149.82 2475.68,-140.06"/>
<polygon fill="#63b8ff" stroke="#63b8ff" points="2549.86,-175.31 2560.43,-175.99 2552.59,-168.87 2549.86,-175.31"/>
</a>
</g>
</g>
<!-- Node23 -->
<g id="Node000023" class="node">
<title>Node23</title>
<g id="a_Node000023"><a xlink:href="LuigiRaceway_8cpp.html" target="_top" xlink:title=" ">
<polygon fill="white" stroke="#666666" points="2634,-140 2527,-140 2527,-110 2634,-110 2634,-140"/>
<text text-anchor="start" x="2535" y="-128" font-family="Helvetica,sans-Serif" font-size="10.00">src/engine/courses</text>
<text text-anchor="middle" x="2580.5" y="-117" font-family="Helvetica,sans-Serif" font-size="10.00">/LuigiRaceway.cpp</text>
</a>
</g>
</g>
<!-- Node1&#45;&gt;Node23 -->
<g id="edge22_Node000001_Node000023" class="edge">
<title>Node1&#45;&gt;Node23</title>
<g id="a_edge22_Node000001_Node000023"><a xlink:title=" ">
<path fill="none" stroke="#63b8ff" d="M2580.5,-165.65C2580.5,-157.36 2580.5,-147.78 2580.5,-140.11"/>
<polygon fill="#63b8ff" stroke="#63b8ff" points="2577,-165.87 2580.5,-175.87 2584,-165.87 2577,-165.87"/>
</a>
</g>
</g>
<!-- Node24 -->
<g id="Node000024" class="node">
<title>Node24</title>
<g id="a_Node000024"><a xlink:href="MarioRaceway_8cpp.html" target="_top" xlink:title=" ">
<polygon fill="white" stroke="#666666" points="2762.5,-140 2652.5,-140 2652.5,-110 2762.5,-110 2762.5,-140"/>
<text text-anchor="start" x="2660.5" y="-128" font-family="Helvetica,sans-Serif" font-size="10.00">src/engine/courses</text>
<text text-anchor="middle" x="2707.5" y="-117" font-family="Helvetica,sans-Serif" font-size="10.00">/MarioRaceway.cpp</text>
</a>
</g>
</g>
<!-- Node1&#45;&gt;Node24 -->
<g id="edge23_Node000001_Node000024" class="edge">
<title>Node1&#45;&gt;Node24</title>
<g id="a_edge23_Node000001_Node000024"><a xlink:title=" ">
<path fill="none" stroke="#63b8ff" d="M2608.25,-171.72C2628.46,-162.41 2655.84,-149.8 2676.72,-140.18"/>
<polygon fill="#63b8ff" stroke="#63b8ff" points="2606.59,-168.63 2598.97,-175.99 2609.51,-174.99 2606.59,-168.63"/>
</a>
</g>
</g>
<!-- Node25 -->
<g id="Node000025" class="node">
<title>Node25</title>
<g id="a_Node000025"><a xlink:href="MooMooFarm_8cpp.html" target="_top" xlink:title=" ">
<polygon fill="white" stroke="#666666" points="2888,-140 2781,-140 2781,-110 2888,-110 2888,-140"/>
<text text-anchor="start" x="2789" y="-128" font-family="Helvetica,sans-Serif" font-size="10.00">src/engine/courses</text>
<text text-anchor="middle" x="2834.5" y="-117" font-family="Helvetica,sans-Serif" font-size="10.00">/MooMooFarm.cpp</text>
</a>
</g>
</g>
<!-- Node1&#45;&gt;Node25 -->
<g id="edge24_Node000001_Node000025" class="edge">
<title>Node1&#45;&gt;Node25</title>
<g id="a_edge24_Node000001_Node000025"><a xlink:title=" ">
<path fill="none" stroke="#63b8ff" d="M2627.44,-173.69C2670.81,-163.7 2735.22,-148.87 2780.66,-138.4"/>
<polygon fill="#63b8ff" stroke="#63b8ff" points="2626.39,-170.34 2617.43,-175.99 2627.96,-177.16 2626.39,-170.34"/>
</a>
</g>
</g>
<!-- Node26 -->
<g id="Node000026" class="node">
<title>Node26</title>
<g id="a_Node000026"><a xlink:href="PodiumCeremony_8cpp.html" target="_top" xlink:title=" ">
<polygon fill="white" stroke="#666666" points="3031,-140 2906,-140 2906,-110 3031,-110 3031,-140"/>
<text text-anchor="start" x="2914" y="-128" font-family="Helvetica,sans-Serif" font-size="10.00">src/engine/courses</text>
<text text-anchor="middle" x="2968.5" y="-117" font-family="Helvetica,sans-Serif" font-size="10.00">/PodiumCeremony.cpp</text>
</a>
</g>
</g>
<!-- Node1&#45;&gt;Node26 -->
<g id="edge25_Node000001_Node000026" class="edge">
<title>Node1&#45;&gt;Node26</title>
<g id="a_edge25_Node000001_Node000026"><a xlink:title=" ">
<path fill="none" stroke="#63b8ff" d="M2648.8,-176.02C2713.11,-167.77 2812.06,-154.41 2897.5,-140 2900.23,-139.54 2903.01,-139.06 2905.81,-138.56"/>
<polygon fill="#63b8ff" stroke="#63b8ff" points="2648.26,-172.56 2638.78,-177.3 2649.15,-179.5 2648.26,-172.56"/>
</a>
</g>
</g>
<!-- Node27 -->
<g id="Node000027" class="node">
<title>Node27</title>
<g id="a_Node000027"><a xlink:href="RainbowRoad_8cpp.html" target="_top" xlink:title=" ">
<polygon fill="white" stroke="#666666" points="3156,-140 3049,-140 3049,-110 3156,-110 3156,-140"/>
<text text-anchor="start" x="3057" y="-128" font-family="Helvetica,sans-Serif" font-size="10.00">src/engine/courses</text>
<text text-anchor="middle" x="3102.5" y="-117" font-family="Helvetica,sans-Serif" font-size="10.00">/RainbowRoad.cpp</text>
</a>
</g>
</g>
<!-- Node1&#45;&gt;Node27 -->
<g id="edge26_Node000001_Node000027" class="edge">
<title>Node1&#45;&gt;Node27</title>
<g id="a_edge26_Node000001_Node000027"><a xlink:title=" ">
<path fill="none" stroke="#63b8ff" d="M2648.61,-180.59C2738.71,-174.82 2902.24,-162.21 3040.5,-140 3043.22,-139.56 3046.01,-139.08 3048.81,-138.56"/>
<polygon fill="#63b8ff" stroke="#63b8ff" points="2648.29,-177.11 2638.53,-181.23 2648.73,-184.09 2648.29,-177.11"/>
</a>
</g>
</g>
<!-- Node28 -->
<g id="Node000028" class="node">
<title>Node28</title>
<g id="a_Node000028"><a xlink:href="RoyalRaceway_8cpp.html" target="_top" xlink:title=" ">
<polygon fill="white" stroke="#666666" points="3284.5,-140 3174.5,-140 3174.5,-110 3284.5,-110 3284.5,-140"/>
<text text-anchor="start" x="3182.5" y="-128" font-family="Helvetica,sans-Serif" font-size="10.00">src/engine/courses</text>
<text text-anchor="middle" x="3229.5" y="-117" font-family="Helvetica,sans-Serif" font-size="10.00">/RoyalRaceway.cpp</text>
</a>
</g>
</g>
<!-- Node1&#45;&gt;Node28 -->
<g id="edge27_Node000001_Node000028" class="edge">
<title>Node1&#45;&gt;Node28</title>
<g id="a_edge27_Node000001_Node000028"><a xlink:title=" ">
<path fill="none" stroke="#63b8ff" d="M2648.75,-182.39C2758.25,-178.32 2979.76,-167.24 3165.5,-140 3168.43,-139.57 3171.42,-139.08 3174.43,-138.56"/>
<polygon fill="#63b8ff" stroke="#63b8ff" points="2648.37,-178.91 2638.5,-182.77 2648.62,-185.9 2648.37,-178.91"/>
</a>
</g>
</g>
<!-- Node29 -->
<g id="Node000029" class="node">
<title>Node29</title>
<g id="a_Node000029"><a xlink:href="SherbetLand_8cpp.html" target="_top" xlink:title=" ">
<polygon fill="white" stroke="#666666" points="3410,-140 3303,-140 3303,-110 3410,-110 3410,-140"/>
<text text-anchor="start" x="3311" y="-128" font-family="Helvetica,sans-Serif" font-size="10.00">src/engine/courses</text>
<text text-anchor="middle" x="3356.5" y="-117" font-family="Helvetica,sans-Serif" font-size="10.00">/SherbetLand.cpp</text>
</a>
</g>
</g>
<!-- Node1&#45;&gt;Node29 -->
<g id="edge28_Node000001_Node000029" class="edge">
<title>Node1&#45;&gt;Node29</title>
<g id="a_edge28_Node000001_Node000029"><a xlink:title=" ">
<path fill="none" stroke="#63b8ff" d="M2648.95,-183.78C2776.4,-181.65 3058.49,-173.24 3293.5,-140 3296.61,-139.56 3299.79,-139.05 3302.99,-138.49"/>
<polygon fill="#63b8ff" stroke="#63b8ff" points="2648.52,-180.29 2638.57,-183.94 2648.63,-187.28 2648.52,-180.29"/>
</a>
</g>
</g>
<!-- Node30 -->
<g id="Node000030" class="node">
<title>Node30</title>
<g id="a_Node000030"><a xlink:href="Skyscraper_8cpp.html" target="_top" xlink:title=" ">
<polygon fill="white" stroke="#666666" points="3535,-140 3428,-140 3428,-110 3535,-110 3535,-140"/>
<text text-anchor="start" x="3436" y="-128" font-family="Helvetica,sans-Serif" font-size="10.00">src/engine/courses</text>
<text text-anchor="middle" x="3481.5" y="-117" font-family="Helvetica,sans-Serif" font-size="10.00">/Skyscraper.cpp</text>
</a>
</g>
</g>
<!-- Node1&#45;&gt;Node30 -->
<g id="edge29_Node000001_Node000030" class="edge">
<title>Node1&#45;&gt;Node30</title>
<g id="a_edge29_Node000001_Node000030"><a xlink:title=" ">
<path fill="none" stroke="#63b8ff" d="M2648.94,-184.78C2792.5,-184.5 3135.29,-179.34 3419.5,-140 3422.23,-139.62 3425.02,-139.18 3427.83,-138.7"/>
<polygon fill="#63b8ff" stroke="#63b8ff" points="2648.54,-181.28 2638.55,-184.79 2648.55,-188.28 2648.54,-181.28"/>
</a>
</g>
</g>
<!-- Node31 -->
<g id="Node000031" class="node">
<title>Node31</title>
<g id="a_Node000031"><a xlink:href="TestCourse_8cpp.html" target="_top" xlink:title=" ">
<polygon fill="white" stroke="#666666" points="3660,-140 3553,-140 3553,-110 3660,-110 3660,-140"/>
<text text-anchor="start" x="3561" y="-128" font-family="Helvetica,sans-Serif" font-size="10.00">src/engine/courses</text>
<text text-anchor="middle" x="3606.5" y="-117" font-family="Helvetica,sans-Serif" font-size="10.00">/TestCourse.cpp</text>
</a>
</g>
</g>
<!-- Node1&#45;&gt;Node31 -->
<g id="edge30_Node000001_Node000031" class="edge">
<title>Node1&#45;&gt;Node31</title>
<g id="a_edge30_Node000001_Node000031"><a xlink:title=" ">
<path fill="none" stroke="#63b8ff" d="M2648.76,-182.91C2838.74,-178.24 3371.07,-163.4 3544.5,-140 3547.23,-139.63 3550.03,-139.2 3552.84,-138.72"/>
<polygon fill="#63b8ff" stroke="#63b8ff" points="2648.54,-179.42 2638.62,-183.16 2648.71,-186.41 2648.54,-179.42"/>
</a>
</g>
</g>
<!-- Node32 -->
<g id="Node000032" class="node">
<title>Node32</title>
<g id="a_Node000032"><a xlink:href="ToadsTurnpike_8cpp.html" target="_top" xlink:title=" ">
<polygon fill="white" stroke="#666666" points="3786.5,-140 3678.5,-140 3678.5,-110 3786.5,-110 3786.5,-140"/>
<text text-anchor="start" x="3686.5" y="-128" font-family="Helvetica,sans-Serif" font-size="10.00">src/engine/courses</text>
<text text-anchor="middle" x="3732.5" y="-117" font-family="Helvetica,sans-Serif" font-size="10.00">/ToadsTurnpike.cpp</text>
</a>
</g>
</g>
<!-- Node1&#45;&gt;Node32 -->
<g id="edge31_Node000001_Node000032" class="edge">
<title>Node1&#45;&gt;Node32</title>
<g id="a_edge31_Node000001_Node000032"><a xlink:title=" ">
<path fill="none" stroke="#63b8ff" d="M2648.91,-183.3C2855.47,-179.41 3470.8,-165.93 3669.5,-140 3672.39,-139.62 3675.34,-139.18 3678.31,-138.68"/>
<polygon fill="#63b8ff" stroke="#63b8ff" points="2648.74,-179.8 2638.8,-183.49 2648.87,-186.8 2648.74,-179.8"/>
</a>
</g>
</g>
<!-- Node33 -->
<g id="Node000033" class="node">
<title>Node33</title>
<g id="a_Node000033"><a xlink:href="WarioStadium_8cpp.html" target="_top" xlink:title=" ">
<polygon fill="white" stroke="#666666" points="3912.5,-140 3804.5,-140 3804.5,-110 3912.5,-110 3912.5,-140"/>
<text text-anchor="start" x="3812.5" y="-128" font-family="Helvetica,sans-Serif" font-size="10.00">src/engine/courses</text>
<text text-anchor="middle" x="3858.5" y="-117" font-family="Helvetica,sans-Serif" font-size="10.00">/WarioStadium.cpp</text>
</a>
</g>
</g>
<!-- Node1&#45;&gt;Node33 -->
<g id="edge32_Node000001_Node000033" class="edge">
<title>Node1&#45;&gt;Node33</title>
<g id="a_edge32_Node000001_Node000033"><a xlink:title=" ">
<path fill="none" stroke="#63b8ff" d="M2648.71,-183.64C2870.69,-180.57 3571.12,-168.8 3795.5,-140 3798.39,-139.63 3801.34,-139.19 3804.31,-138.7"/>
<polygon fill="#63b8ff" stroke="#63b8ff" points="2648.45,-180.14 2638.5,-183.78 2648.55,-187.14 2648.45,-180.14"/>
</a>
</g>
</g>
<!-- Node34 -->
<g id="Node000034" class="node">
<title>Node34</title>
<g id="a_Node000034"><a xlink:href="YoshiValley_8cpp.html" target="_top" xlink:title=" ">
<polygon fill="white" stroke="#666666" points="4038,-140 3931,-140 3931,-110 4038,-110 4038,-140"/>
<text text-anchor="start" x="3939" y="-128" font-family="Helvetica,sans-Serif" font-size="10.00">src/engine/courses</text>
<text text-anchor="middle" x="3984.5" y="-117" font-family="Helvetica,sans-Serif" font-size="10.00">/YoshiValley.cpp</text>
</a>
</g>
</g>
<!-- Node1&#45;&gt;Node34 -->
<g id="edge33_Node000001_Node000034" class="edge">
<title>Node1&#45;&gt;Node34</title>
<g id="a_edge33_Node000001_Node000034"><a xlink:title=" ">
<path fill="none" stroke="#63b8ff" d="M2648.86,-183.91C2885.87,-181.59 3671.44,-171.65 3921.5,-140 3924.5,-139.62 3927.57,-139.16 3930.66,-138.65"/>
<polygon fill="#63b8ff" stroke="#63b8ff" points="2648.62,-180.41 2638.66,-184.01 2648.69,-187.41 2648.62,-180.41"/>
</a>
</g>
</g>
<!-- Node35 -->
<g id="Node000035" class="node">
<title>Node35</title>
<g id="a_Node000035"><a xlink:href="menu__items_8c.html" target="_top" xlink:title=" ">
<polygon fill="white" stroke="#666666" points="4159,-134.5 4056,-134.5 4056,-115.5 4159,-115.5 4159,-134.5"/>
<text text-anchor="middle" x="4107.5" y="-122.5" font-family="Helvetica,sans-Serif" font-size="10.00">src/menu_items.c</text>
</a>
</g>
</g>
<!-- Node1&#45;&gt;Node35 -->
<g id="edge34_Node000001_Node000035" class="edge">
<title>Node1&#45;&gt;Node35</title>
<g id="a_edge34_Node000001_Node000035"><a xlink:title=" ">
<path fill="none" stroke="#63b8ff" d="M2648.89,-184.23C2900.13,-182.95 3771.81,-175.98 4047.5,-140 4056.94,-138.77 4067.07,-136.7 4076.26,-134.53"/>
<polygon fill="#63b8ff" stroke="#63b8ff" points="2648.79,-180.73 2638.8,-184.28 2648.82,-187.73 2648.79,-180.73"/>
</a>
</g>
</g>
<!-- Node36 -->
<g id="Node000036" class="node">
<title>Node36</title>
<g id="a_Node000036"><a xlink:href="menus_8c.html" target="_top" xlink:title=" ">
<polygon fill="white" stroke="#666666" points="4252,-134.5 4177,-134.5 4177,-115.5 4252,-115.5 4252,-134.5"/>
<text text-anchor="middle" x="4214.5" y="-122.5" font-family="Helvetica,sans-Serif" font-size="10.00">src/menus.c</text>
</a>
</g>
</g>
<!-- Node1&#45;&gt;Node36 -->
<g id="edge35_Node000001_Node000036" class="edge">
<title>Node1&#45;&gt;Node36</title>
<g id="a_edge35_Node000001_Node000036"><a xlink:title=" ">
<path fill="none" stroke="#63b8ff" d="M2649.07,-183.66C2934.11,-180.01 4017.42,-164.65 4168.5,-140 4175.75,-138.82 4183.45,-136.79 4190.44,-134.65"/>
<polygon fill="#63b8ff" stroke="#63b8ff" points="2648.83,-180.16 2638.87,-183.79 2648.92,-187.16 2648.83,-180.16"/>
</a>
</g>
</g>
<!-- Node37 -->
<g id="Node000037" class="node">
<title>Node37</title>
<g id="a_Node000037"><a xlink:href="start__game_8c.html" target="_top" xlink:title=" ">
<polygon fill="white" stroke="#666666" points="4384.5,-140 4270.5,-140 4270.5,-110 4384.5,-110 4384.5,-140"/>
<text text-anchor="start" x="4278.5" y="-128" font-family="Helvetica,sans-Serif" font-size="10.00">src/networking/start</text>
<text text-anchor="middle" x="4327.5" y="-117" font-family="Helvetica,sans-Serif" font-size="10.00">_game.c</text>
</a>
</g>
</g>
<!-- Node1&#45;&gt;Node37 -->
<g id="edge36_Node000001_Node000037" class="edge">
<title>Node1&#45;&gt;Node37</title>
<g id="a_edge36_Node000001_Node000037"><a xlink:title=" ">
<path fill="none" stroke="#63b8ff" d="M2649,-184.35C2923.1,-183.52 3941.45,-177.86 4261.5,-140 4264.41,-139.66 4267.38,-139.25 4270.37,-138.79"/>
<polygon fill="#63b8ff" stroke="#63b8ff" points="2648.79,-180.86 2638.8,-184.38 2648.81,-187.86 2648.79,-180.86"/>
</a>
</g>
</g>
<!-- Node38 -->
<g id="Node000038" class="node">
<title>Node38</title>
<g id="a_Node000038"><a xlink:href="player__controller_8c.html" target="_top" xlink:title=" ">
<polygon fill="white" stroke="#666666" points="4526.5,-134.5 4402.5,-134.5 4402.5,-115.5 4526.5,-115.5 4526.5,-134.5"/>
<text text-anchor="middle" x="4464.5" y="-122.5" font-family="Helvetica,sans-Serif" font-size="10.00">src/player_controller.c</text>
</a>
</g>
</g>
<!-- Node1&#45;&gt;Node38 -->
<g id="edge37_Node000001_Node000038" class="edge">
<title>Node1&#45;&gt;Node38</title>
<g id="a_edge37_Node000001_Node000038"><a xlink:title=" ">
<path fill="none" stroke="#63b8ff" d="M2649.06,-184.38C2936.53,-183.63 4045.91,-178.25 4393.5,-140 4404.61,-138.78 4416.58,-136.71 4427.47,-134.54"/>
<polygon fill="#63b8ff" stroke="#63b8ff" points="2648.77,-180.88 2638.78,-184.4 2648.79,-187.88 2648.77,-180.88"/>
</a>
</g>
</g>
<!-- Node39 -->
<g id="Node000039" class="node">
<title>Node39</title>
<g id="a_Node000039"><a xlink:href="Game_8cpp.html" target="_top" xlink:title=" ">
<polygon fill="white" stroke="#666666" points="4650.5,-134.5 4544.5,-134.5 4544.5,-115.5 4650.5,-115.5 4650.5,-134.5"/>
<text text-anchor="middle" x="4597.5" y="-122.5" font-family="Helvetica,sans-Serif" font-size="10.00">src/port/Game.cpp</text>
</a>
</g>
</g>
<!-- Node1&#45;&gt;Node39 -->
<g id="edge38_Node000001_Node000039" class="edge">
<title>Node1&#45;&gt;Node39</title>
<g id="a_edge38_Node000001_Node000039"><a xlink:title=" ">
<path fill="none" stroke="#63b8ff" d="M2648.92,-184.77C2950.04,-185.68 4158.99,-186.32 4535.5,-140 4545.25,-138.8 4555.71,-136.74 4565.21,-134.57"/>
<polygon fill="#63b8ff" stroke="#63b8ff" points="2648.61,-181.27 2638.59,-184.74 2648.58,-188.27 2648.61,-181.27"/>
</a>
</g>
</g>
<!-- Node40 -->
<g id="Node000040" class="node">
<title>Node40</title>
<g id="a_Node000040"><a xlink:href="race__logic_8c.html" target="_top" xlink:title=" ">
<polygon fill="white" stroke="#666666" points="4794,-134.5 4669,-134.5 4669,-115.5 4794,-115.5 4794,-134.5"/>
<text text-anchor="middle" x="4731.5" y="-122.5" font-family="Helvetica,sans-Serif" font-size="10.00">src/racing/race_logic.c</text>
</a>
</g>
</g>
<!-- Node1&#45;&gt;Node40 -->
<g id="edge39_Node000001_Node000040" class="edge">
<title>Node1&#45;&gt;Node40</title>
<g id="a_edge39_Node000001_Node000040"><a xlink:title=" ">
<path fill="none" stroke="#63b8ff" d="M2649.09,-184.61C2962.06,-184.85 4256.65,-183.16 4659.5,-140 4670.77,-138.79 4682.9,-136.73 4693.94,-134.56"/>
<polygon fill="#63b8ff" stroke="#63b8ff" points="2648.81,-181.11 2638.81,-184.6 2648.8,-188.11 2648.81,-181.11"/>
</a>
</g>
</g>
<!-- Node41 -->
<g id="Node000041" class="node">
<title>Node41</title>
<g id="a_Node000041"><a xlink:href="render__player_8c.html" target="_top" xlink:title=" ">
<polygon fill="white" stroke="#666666" points="4921,-134.5 4812,-134.5 4812,-115.5 4921,-115.5 4921,-134.5"/>
<text text-anchor="middle" x="4866.5" y="-122.5" font-family="Helvetica,sans-Serif" font-size="10.00">src/render_player.c</text>
</a>
</g>
</g>
<!-- Node1&#45;&gt;Node41 -->
<g id="edge40_Node000001_Node000041" class="edge">
<title>Node1&#45;&gt;Node41</title>
<g id="a_edge40_Node000001_Node000041"><a xlink:title=" ">
<path fill="none" stroke="#63b8ff" d="M2648.86,-183.94C2999.21,-180.96 4585.5,-166.14 4803.5,-140 4813.51,-138.8 4824.27,-136.71 4834.01,-134.51"/>
<polygon fill="#63b8ff" stroke="#63b8ff" points="2648.58,-180.44 2638.61,-184.03 2648.64,-187.44 2648.58,-180.44"/>
</a>
</g>
</g>
<!-- Node42 -->
<g id="Node000042" class="node">
<title>Node42</title>
<g id="a_Node000042"><a xlink:href="spawn__players_8c.html" target="_top" xlink:title=" ">
<polygon fill="white" stroke="#666666" points="5054,-134.5 4939,-134.5 4939,-115.5 5054,-115.5 5054,-134.5"/>
<text text-anchor="middle" x="4996.5" y="-122.5" font-family="Helvetica,sans-Serif" font-size="10.00">src/spawn_players.c</text>
</a>
</g>
</g>
<!-- Node1&#45;&gt;Node42 -->
<g id="edge41_Node000001_Node000042" class="edge">
<title>Node1&#45;&gt;Node42</title>
<g id="a_edge41_Node000001_Node000042"><a xlink:title=" ">
<path fill="none" stroke="#63b8ff" d="M2648.64,-183.98C3010.47,-181.13 4699.04,-166.5 4930.5,-140 4940.97,-138.8 4952.24,-136.71 4962.45,-134.51"/>
<polygon fill="#63b8ff" stroke="#63b8ff" points="2648.55,-180.48 2638.58,-184.06 2648.6,-187.48 2648.55,-180.48"/>
</a>
</g>
</g>
<!-- Node7 -->
<g id="Node000007" class="node">
<title>Node7</title>
<g id="a_Node000007"><a xlink:href="debug_8inc_8c.html" target="_top" xlink:title=" ">
<polygon fill="white" stroke="#666666" points="640.5,-74 518.5,-74 518.5,-55 640.5,-55 640.5,-74"/>
<text text-anchor="middle" x="579.5" y="-62" font-family="Helvetica,sans-Serif" font-size="10.00">src/debug/debug.inc.c</text>
</a>
</g>
</g>
<!-- Node6&#45;&gt;Node7 -->
<g id="edge6_Node000006_Node000007" class="edge">
<title>Node6&#45;&gt;Node7</title>
<g id="a_edge6_Node000006_Node000007"><a xlink:title=" ">
<path fill="none" stroke="#63b8ff" d="M579.5,-105.16C579.5,-94.74 579.5,-82.3 579.5,-74.17"/>
<polygon fill="#63b8ff" stroke="#63b8ff" points="576,-105.37 579.5,-115.37 583,-105.37 576,-105.37"/>
</a>
</g>
</g>
<!-- Node8 -->
<g id="Node000008" class="node">
<title>Node8</title>
<g id="a_Node000008"><a xlink:href="debug_8c.html" target="_top" xlink:title=" ">
<polygon fill="white" stroke="#666666" points="632,-19 527,-19 527,0 632,0 632,-19"/>
<text text-anchor="middle" x="579.5" y="-7" font-family="Helvetica,sans-Serif" font-size="10.00">src/debug/debug.c</text>
</a>
</g>
</g>
<!-- Node7&#45;&gt;Node8 -->
<g id="edge7_Node000007_Node000008" class="edge">
<title>Node7&#45;&gt;Node8</title>
<g id="a_edge7_Node000007_Node000008"><a xlink:title=" ">
<path fill="none" stroke="#63b8ff" d="M579.5,-44.66C579.5,-35.93 579.5,-25.99 579.5,-19.09"/>
<polygon fill="#63b8ff" stroke="#63b8ff" points="576,-44.75 579.5,-54.75 583,-44.75 576,-44.75"/>
</a>
</g>
</g>
</g>
</svg>
