<?xml version="1.0" encoding="UTF-8" standalone="no"?>
<!DOCTYPE svg PUBLIC "-//W3C//DTD SVG 1.1//EN"
 "http://www.w3.org/Graphics/SVG/1.1/DTD/svg11.dtd">
<!-- Generated by graphviz version 2.43.0 (0)
 -->
<!-- Title: include/libc/stdio.h Pages: 1 -->
<svg width="2825pt" height="148pt"
 viewBox="0.00 0.00 2824.50 148.00" xmlns="http://www.w3.org/2000/svg" xmlns:xlink="http://www.w3.org/1999/xlink">
<g id="graph0" class="graph" transform="scale(1 1) rotate(0) translate(4 144)">
<title>include/libc/stdio.h</title>
<!-- Node1 -->
<g id="Node000001" class="node">
<title>Node1</title>
<g id="a_Node000001"><a xlink:title=" ">
<polygon fill="#999999" stroke="#666666" points="1730.5,-140 1622.5,-140 1622.5,-121 1730.5,-121 1730.5,-140"/>
<text text-anchor="middle" x="1676.5" y="-128" font-family="Helvetica,sans-Serif" font-size="10.00">include/libc/stdio.h</text>
</a>
</g>
</g>
<!-- Node2 -->
<g id="Node000002" class="node">
<title>Node2</title>
<g id="a_Node000002"><a xlink:href="load_8h.html" target="_top" xlink:title=" ">
<polygon fill="white" stroke="#666666" points="650.5,-79.5 556.5,-79.5 556.5,-60.5 650.5,-60.5 650.5,-79.5"/>
<text text-anchor="middle" x="603.5" y="-67.5" font-family="Helvetica,sans-Serif" font-size="10.00">src/audio/load.h</text>
</a>
</g>
</g>
<!-- Node1&#45;&gt;Node2 -->
<g id="edge1_Node000001_Node000002" class="edge">
<title>Node1&#45;&gt;Node2</title>
<g id="a_edge1_Node000001_Node000002"><a xlink:title=" ">
<path fill="none" stroke="#63b8ff" d="M1612.29,-126.04C1474.07,-118.58 1138.08,-100.43 856.5,-85 784.68,-81.06 701.4,-76.45 650.59,-73.62"/>
<polygon fill="#63b8ff" stroke="#63b8ff" points="1612.11,-129.53 1622.29,-126.58 1612.49,-122.54 1612.11,-129.53"/>
</a>
</g>
</g>
<!-- Node9 -->
<g id="Node000009" class="node">
<title>Node9</title>
<g id="a_Node000009"><a xlink:href="seqplayer_8c.html" target="_top" xlink:title=" ">
<polygon fill="white" stroke="#666666" points="1123,-19 1004,-19 1004,0 1123,0 1123,-19"/>
<text text-anchor="middle" x="1063.5" y="-7" font-family="Helvetica,sans-Serif" font-size="10.00">src/audio/seqplayer.c</text>
</a>
</g>
</g>
<!-- Node1&#45;&gt;Node9 -->
<g id="edge12_Node000001_Node000009" class="edge">
<title>Node1&#45;&gt;Node9</title>
<g id="a_edge12_Node000001_Node000009"><a xlink:title=" ">
<path fill="none" stroke="#63b8ff" d="M1612.27,-128.24C1429.01,-124.34 915.16,-111.1 890.5,-85 881.34,-75.31 882.33,-65.54 890.5,-55 904.47,-36.99 959.44,-24.99 1003.71,-18.04"/>
<polygon fill="#63b8ff" stroke="#63b8ff" points="1612.23,-131.74 1622.31,-128.45 1612.38,-124.74 1612.23,-131.74"/>
</a>
</g>
</g>
<!-- Node12 -->
<g id="Node000012" class="node">
<title>Node12</title>
<g id="a_Node000012"><a xlink:href="mixer_8c.html" target="_top" xlink:title=" ">
<polygon fill="white" stroke="#666666" points="998,-79.5 899,-79.5 899,-60.5 998,-60.5 998,-79.5"/>
<text text-anchor="middle" x="948.5" y="-67.5" font-family="Helvetica,sans-Serif" font-size="10.00">src/audio/mixer.c</text>
</a>
</g>
</g>
<!-- Node1&#45;&gt;Node12 -->
<g id="edge11_Node000001_Node000012" class="edge">
<title>Node1&#45;&gt;Node12</title>
<g id="a_edge11_Node000001_Node000012"><a xlink:title=" ">
<path fill="none" stroke="#63b8ff" d="M1612.32,-128.78C1492.71,-126.65 1227.83,-118.23 1007.5,-85 998.55,-83.65 988.95,-81.63 980.16,-79.54"/>
<polygon fill="#63b8ff" stroke="#63b8ff" points="1612.35,-132.28 1622.41,-128.95 1612.47,-125.28 1612.35,-132.28"/>
</a>
</g>
</g>
<!-- Node13 -->
<g id="Node000013" class="node">
<title>Node13</title>
<g id="a_Node000013"><a xlink:href="camera_8c.html" target="_top" xlink:title=" ">
<polygon fill="white" stroke="#666666" points="1095,-79.5 1016,-79.5 1016,-60.5 1095,-60.5 1095,-79.5"/>
<text text-anchor="middle" x="1055.5" y="-67.5" font-family="Helvetica,sans-Serif" font-size="10.00">src/camera.c</text>
</a>
</g>
</g>
<!-- Node1&#45;&gt;Node13 -->
<g id="edge13_Node000001_Node000013" class="edge">
<title>Node1&#45;&gt;Node13</title>
<g id="a_edge13_Node000001_Node000013"><a xlink:title=" ">
<path fill="none" stroke="#63b8ff" d="M1612.03,-128.81C1505.38,-126.71 1285.88,-118.31 1103.5,-85 1096.16,-83.66 1088.33,-81.64 1081.17,-79.55"/>
<polygon fill="#63b8ff" stroke="#63b8ff" points="1612.24,-132.32 1622.3,-129 1612.37,-125.32 1612.24,-132.32"/>
</a>
</g>
</g>
<!-- Node14 -->
<g id="Node000014" class="node">
<title>Node14</title>
<g id="a_Node000014"><a xlink:href="code__80005FD0_8c.html" target="_top" xlink:title=" ">
<polygon fill="white" stroke="#666666" points="1232.5,-79.5 1112.5,-79.5 1112.5,-60.5 1232.5,-60.5 1232.5,-79.5"/>
<text text-anchor="middle" x="1172.5" y="-67.5" font-family="Helvetica,sans-Serif" font-size="10.00">src/code_80005FD0.c</text>
</a>
</g>
</g>
<!-- Node1&#45;&gt;Node14 -->
<g id="edge14_Node000001_Node000014" class="edge">
<title>Node1&#45;&gt;Node14</title>
<g id="a_edge14_Node000001_Node000014"><a xlink:title=" ">
<path fill="none" stroke="#63b8ff" d="M1612.15,-124.83C1527.21,-118.22 1373.12,-104.71 1242.5,-85 1232.45,-83.48 1221.66,-81.5 1211.63,-79.51"/>
<polygon fill="#63b8ff" stroke="#63b8ff" points="1611.92,-128.32 1622.16,-125.6 1612.46,-121.34 1611.92,-128.32"/>
</a>
</g>
</g>
<!-- Node15 -->
<g id="Node000015" class="node">
<title>Node15</title>
<g id="a_Node000015"><a xlink:href="debug_8c.html" target="_top" xlink:title=" ">
<polygon fill="white" stroke="#666666" points="1356,-79.5 1251,-79.5 1251,-60.5 1356,-60.5 1356,-79.5"/>
<text text-anchor="middle" x="1303.5" y="-67.5" font-family="Helvetica,sans-Serif" font-size="10.00">src/debug/debug.c</text>
</a>
</g>
</g>
<!-- Node1&#45;&gt;Node15 -->
<g id="edge15_Node000001_Node000015" class="edge">
<title>Node1&#45;&gt;Node15</title>
<g id="a_edge15_Node000001_Node000015"><a xlink:title=" ">
<path fill="none" stroke="#63b8ff" d="M1612.16,-121.82C1549.1,-113.93 1450.36,-100.63 1365.5,-85 1356.93,-83.42 1347.74,-81.48 1339.14,-79.56"/>
<polygon fill="#63b8ff" stroke="#63b8ff" points="1612,-125.33 1622.35,-123.09 1612.86,-118.38 1612,-125.33"/>
</a>
</g>
</g>
<!-- Node16 -->
<g id="Node000016" class="node">
<title>Node16</title>
<g id="a_Node000016"><a xlink:href="menu__items_8c.html" target="_top" xlink:title=" ">
<polygon fill="white" stroke="#666666" points="1477,-79.5 1374,-79.5 1374,-60.5 1477,-60.5 1477,-79.5"/>
<text text-anchor="middle" x="1425.5" y="-67.5" font-family="Helvetica,sans-Serif" font-size="10.00">src/menu_items.c</text>
</a>
</g>
</g>
<!-- Node1&#45;&gt;Node16 -->
<g id="edge16_Node000001_Node000016" class="edge">
<title>Node1&#45;&gt;Node16</title>
<g id="a_edge16_Node000001_Node000016"><a xlink:title=" ">
<path fill="none" stroke="#63b8ff" d="M1630.08,-118.68C1581.58,-107.38 1506.49,-89.88 1462.04,-79.52"/>
<polygon fill="#63b8ff" stroke="#63b8ff" points="1629.47,-122.13 1640,-120.99 1631.06,-115.32 1629.47,-122.13"/>
</a>
</g>
</g>
<!-- Node17 -->
<g id="Node000017" class="node">
<title>Node17</title>
<g id="a_Node000017"><a xlink:href="actors_8c.html" target="_top" xlink:title=" ">
<polygon fill="white" stroke="#666666" points="1600,-79.5 1495,-79.5 1495,-60.5 1600,-60.5 1600,-79.5"/>
<text text-anchor="middle" x="1547.5" y="-67.5" font-family="Helvetica,sans-Serif" font-size="10.00">src/racing/actors.c</text>
</a>
</g>
</g>
<!-- Node1&#45;&gt;Node17 -->
<g id="edge17_Node000001_Node000017" class="edge">
<title>Node1&#45;&gt;Node17</title>
<g id="a_edge17_Node000001_Node000017"><a xlink:title=" ">
<path fill="none" stroke="#63b8ff" d="M1648.46,-116.78C1623.56,-105.49 1587.88,-89.31 1566.28,-79.52"/>
<polygon fill="#63b8ff" stroke="#63b8ff" points="1647.19,-120.05 1657.74,-120.99 1650.08,-113.68 1647.19,-120.05"/>
</a>
</g>
</g>
<!-- Node18 -->
<g id="Node000018" class="node">
<title>Node18</title>
<g id="a_Node000018"><a xlink:href="collision_8c.html" target="_top" xlink:title=" ">
<polygon fill="white" stroke="#666666" points="1734.5,-79.5 1618.5,-79.5 1618.5,-60.5 1734.5,-60.5 1734.5,-79.5"/>
<text text-anchor="middle" x="1676.5" y="-67.5" font-family="Helvetica,sans-Serif" font-size="10.00">src/racing/collision.c</text>
</a>
</g>
</g>
<!-- Node1&#45;&gt;Node18 -->
<g id="edge18_Node000001_Node000018" class="edge">
<title>Node1&#45;&gt;Node18</title>
<g id="a_edge18_Node000001_Node000018"><a xlink:title=" ">
<path fill="none" stroke="#63b8ff" d="M1676.5,-110.66C1676.5,-100.24 1676.5,-87.8 1676.5,-79.67"/>
<polygon fill="#63b8ff" stroke="#63b8ff" points="1673,-110.87 1676.5,-120.87 1680,-110.87 1673,-110.87"/>
</a>
</g>
</g>
<!-- Node19 -->
<g id="Node000019" class="node">
<title>Node19</title>
<g id="a_Node000019"><a xlink:href="framebuffer__effects_8c.html" target="_top" xlink:title=" ">
<polygon fill="white" stroke="#666666" points="1878,-85 1753,-85 1753,-55 1878,-55 1878,-85"/>
<text text-anchor="start" x="1761" y="-73" font-family="Helvetica,sans-Serif" font-size="10.00">src/racing/framebuffer</text>
<text text-anchor="middle" x="1815.5" y="-62" font-family="Helvetica,sans-Serif" font-size="10.00">_effects.c</text>
</a>
</g>
</g>
<!-- Node1&#45;&gt;Node19 -->
<g id="edge19_Node000001_Node000019" class="edge">
<title>Node1&#45;&gt;Node19</title>
<g id="a_edge19_Node000001_Node000019"><a xlink:title=" ">
<path fill="none" stroke="#63b8ff" d="M1706.01,-117.08C1728.29,-107.7 1758.9,-94.82 1782.08,-85.06"/>
<polygon fill="#63b8ff" stroke="#63b8ff" points="1704.57,-113.89 1696.71,-120.99 1707.29,-120.34 1704.57,-113.89"/>
</a>
</g>
</g>
<!-- Node20 -->
<g id="Node000020" class="node">
<title>Node20</title>
<g id="a_Node000020"><a xlink:href="memory_8c.html" target="_top" xlink:title=" ">
<polygon fill="white" stroke="#666666" points="2011,-79.5 1896,-79.5 1896,-60.5 2011,-60.5 2011,-79.5"/>
<text text-anchor="middle" x="1953.5" y="-67.5" font-family="Helvetica,sans-Serif" font-size="10.00">src/racing/memory.c</text>
</a>
</g>
</g>
<!-- Node1&#45;&gt;Node20 -->
<g id="edge20_Node000001_Node000020" class="edge">
<title>Node1&#45;&gt;Node20</title>
<g id="a_edge20_Node000001_Node000020"><a xlink:title=" ">
<path fill="none" stroke="#63b8ff" d="M1726.83,-118.9C1769.58,-109.9 1832.57,-96.62 1887.5,-85 1895.87,-83.23 1904.83,-81.33 1913.36,-79.52"/>
<polygon fill="#63b8ff" stroke="#63b8ff" points="1726.02,-115.5 1716.95,-120.98 1727.46,-122.35 1726.02,-115.5"/>
</a>
</g>
</g>
<!-- Node21 -->
<g id="Node000021" class="node">
<title>Node21</title>
<g id="a_Node000021"><a xlink:href="race__logic_8c.html" target="_top" xlink:title=" ">
<polygon fill="white" stroke="#666666" points="2154,-79.5 2029,-79.5 2029,-60.5 2154,-60.5 2154,-79.5"/>
<text text-anchor="middle" x="2091.5" y="-67.5" font-family="Helvetica,sans-Serif" font-size="10.00">src/racing/race_logic.c</text>
</a>
</g>
</g>
<!-- Node1&#45;&gt;Node21 -->
<g id="edge21_Node000001_Node000021" class="edge">
<title>Node1&#45;&gt;Node21</title>
<g id="a_edge21_Node000001_Node000021"><a xlink:title=" ">
<path fill="none" stroke="#63b8ff" d="M1740.89,-122.46C1810.15,-114.58 1923.41,-100.84 2020.5,-85 2030.3,-83.4 2040.81,-81.46 2050.66,-79.53"/>
<polygon fill="#63b8ff" stroke="#63b8ff" points="1740.13,-119.02 1730.58,-123.62 1740.91,-125.98 1740.13,-119.02"/>
</a>
</g>
</g>
<!-- Node22 -->
<g id="Node000022" class="node">
<title>Node22</title>
<g id="a_Node000022"><a xlink:href="render__courses_8c.html" target="_top" xlink:title=" ">
<polygon fill="white" stroke="#666666" points="2321,-79.5 2172,-79.5 2172,-60.5 2321,-60.5 2321,-79.5"/>
<text text-anchor="middle" x="2246.5" y="-67.5" font-family="Helvetica,sans-Serif" font-size="10.00">src/racing/render_courses.c</text>
</a>
</g>
</g>
<!-- Node1&#45;&gt;Node22 -->
<g id="edge22_Node000001_Node000022" class="edge">
<title>Node1&#45;&gt;Node22</title>
<g id="a_edge22_Node000001_Node000022"><a xlink:title=" ">
<path fill="none" stroke="#63b8ff" d="M1740.83,-125.19C1834.19,-118.57 2012.56,-104.6 2163.5,-85 2175.24,-83.48 2187.86,-81.51 2199.63,-79.55"/>
<polygon fill="#63b8ff" stroke="#63b8ff" points="1740.43,-121.71 1730.7,-125.9 1740.92,-128.69 1740.43,-121.71"/>
</a>
</g>
</g>
<!-- Node23 -->
<g id="Node000023" class="node">
<title>Node23</title>
<g id="a_Node000023"><a xlink:href="skybox__and__splitscreen_8c.html" target="_top" xlink:title=" ">
<polygon fill="white" stroke="#666666" points="2464,-85 2339,-85 2339,-55 2464,-55 2464,-85"/>
<text text-anchor="start" x="2347" y="-73" font-family="Helvetica,sans-Serif" font-size="10.00">src/racing/skybox_and</text>
<text text-anchor="middle" x="2401.5" y="-62" font-family="Helvetica,sans-Serif" font-size="10.00">_splitscreen.c</text>
</a>
</g>
</g>
<!-- Node1&#45;&gt;Node23 -->
<g id="edge23_Node000001_Node000023" class="edge">
<title>Node1&#45;&gt;Node23</title>
<g id="a_edge23_Node000001_Node000023"><a xlink:title=" ">
<path fill="none" stroke="#63b8ff" d="M1740.82,-127.83C1858.37,-124.17 2115.57,-113.39 2330.5,-85 2333.24,-84.64 2336.03,-84.23 2338.85,-83.8"/>
<polygon fill="#63b8ff" stroke="#63b8ff" points="1740.45,-124.34 1730.56,-128.14 1740.67,-131.33 1740.45,-124.34"/>
</a>
</g>
</g>
<!-- Node24 -->
<g id="Node000024" class="node">
<title>Node24</title>
<g id="a_Node000024"><a xlink:href="render__objects_8c.html" target="_top" xlink:title=" ">
<polygon fill="white" stroke="#666666" points="2596.5,-79.5 2482.5,-79.5 2482.5,-60.5 2596.5,-60.5 2596.5,-79.5"/>
<text text-anchor="middle" x="2539.5" y="-67.5" font-family="Helvetica,sans-Serif" font-size="10.00">src/render_objects.c</text>
</a>
</g>
</g>
<!-- Node1&#45;&gt;Node24 -->
<g id="edge24_Node000001_Node000024" class="edge">
<title>Node1&#45;&gt;Node24</title>
<g id="a_edge24_Node000001_Node000024"><a xlink:title=" ">
<path fill="none" stroke="#63b8ff" d="M1741.13,-129.24C1877.22,-127.96 2203.06,-121.02 2473.5,-85 2483.49,-83.67 2494.21,-81.65 2504.05,-79.56"/>
<polygon fill="#63b8ff" stroke="#63b8ff" points="1740.85,-125.74 1730.89,-129.33 1740.92,-132.74 1740.85,-125.74"/>
</a>
</g>
</g>
<!-- Node25 -->
<g id="Node000025" class="node">
<title>Node25</title>
<g id="a_Node000025"><a xlink:href="stubs_8c.html" target="_top" xlink:title=" ">
<polygon fill="white" stroke="#666666" points="2682.5,-79.5 2614.5,-79.5 2614.5,-60.5 2682.5,-60.5 2682.5,-79.5"/>
<text text-anchor="middle" x="2648.5" y="-67.5" font-family="Helvetica,sans-Serif" font-size="10.00">src/stubs.c</text>
</a>
</g>
</g>
<!-- Node1&#45;&gt;Node25 -->
<g id="edge25_Node000001_Node000025" class="edge">
<title>Node1&#45;&gt;Node25</title>
<g id="a_edge25_Node000001_Node000025"><a xlink:title=" ">
<path fill="none" stroke="#63b8ff" d="M1741.02,-128.64C1923.22,-125.88 2439.19,-115.49 2605.5,-85 2612.3,-83.75 2619.5,-81.71 2626.03,-79.56"/>
<polygon fill="#63b8ff" stroke="#63b8ff" points="1740.74,-125.15 1730.79,-128.8 1740.84,-132.15 1740.74,-125.15"/>
</a>
</g>
</g>
<!-- Node26 -->
<g id="Node000026" class="node">
<title>Node26</title>
<g id="a_Node000026"><a xlink:href="update__objects_8c.html" target="_top" xlink:title=" ">
<polygon fill="white" stroke="#666666" points="2816.5,-79.5 2700.5,-79.5 2700.5,-60.5 2816.5,-60.5 2816.5,-79.5"/>
<text text-anchor="middle" x="2758.5" y="-67.5" font-family="Helvetica,sans-Serif" font-size="10.00">src/update_objects.c</text>
</a>
</g>
</g>
<!-- Node1&#45;&gt;Node26 -->
<g id="edge26_Node000001_Node000026" class="edge">
<title>Node1&#45;&gt;Node26</title>
<g id="a_edge26_Node000001_Node000026"><a xlink:title=" ">
<path fill="none" stroke="#63b8ff" d="M1740.78,-128.05C1933.78,-123.47 2506.33,-108.25 2691.5,-85 2701.76,-83.71 2712.78,-81.68 2722.87,-79.56"/>
<polygon fill="#63b8ff" stroke="#63b8ff" points="1740.43,-124.55 1730.51,-128.29 1740.59,-131.55 1740.43,-124.55"/>
</a>
</g>
</g>
<!-- Node3 -->
<g id="Node000003" class="node">
<title>Node3</title>
<g id="a_Node000003"><a xlink:href="audio_2effects_8c.html" target="_top" xlink:title=" ">
<polygon fill="white" stroke="#666666" points="105,-19 0,-19 0,0 105,0 105,-19"/>
<text text-anchor="middle" x="52.5" y="-7" font-family="Helvetica,sans-Serif" font-size="10.00">src/audio/effects.c</text>
</a>
</g>
</g>
<!-- Node2&#45;&gt;Node3 -->
<g id="edge2_Node000002_Node000003" class="edge">
<title>Node2&#45;&gt;Node3</title>
<g id="a_edge2_Node000002_Node000003"><a xlink:title=" ">
<path fill="none" stroke="#63b8ff" d="M546.32,-63.85C454.81,-55.46 269.84,-37.86 113.5,-19 110.74,-18.67 107.91,-18.31 105.06,-17.95"/>
<polygon fill="#63b8ff" stroke="#63b8ff" points="546.2,-67.36 556.48,-64.78 546.84,-60.39 546.2,-67.36"/>
</a>
</g>
</g>
<!-- Node4 -->
<g id="Node000004" class="node">
<title>Node4</title>
<g id="a_Node000004"><a xlink:href="external_8c.html" target="_top" xlink:title=" ">
<polygon fill="white" stroke="#666666" points="236,-19 123,-19 123,0 236,0 236,-19"/>
<text text-anchor="middle" x="179.5" y="-7" font-family="Helvetica,sans-Serif" font-size="10.00">src/audio/external.c</text>
</a>
</g>
</g>
<!-- Node2&#45;&gt;Node4 -->
<g id="edge3_Node000002_Node000004" class="edge">
<title>Node2&#45;&gt;Node4</title>
<g id="a_edge3_Node000002_Node000004"><a xlink:title=" ">
<path fill="none" stroke="#63b8ff" d="M546.05,-61.07C464.8,-49.86 317.25,-29.51 236.34,-18.34"/>
<polygon fill="#63b8ff" stroke="#63b8ff" points="545.71,-64.56 556.1,-62.46 546.67,-57.63 545.71,-64.56"/>
</a>
</g>
</g>
<!-- Node5 -->
<g id="Node000005" class="node">
<title>Node5</title>
<g id="a_Node000005"><a xlink:href="heap_8c.html" target="_top" xlink:title=" ">
<polygon fill="white" stroke="#666666" points="350.5,-19 254.5,-19 254.5,0 350.5,0 350.5,-19"/>
<text text-anchor="middle" x="302.5" y="-7" font-family="Helvetica,sans-Serif" font-size="10.00">src/audio/heap.c</text>
</a>
</g>
</g>
<!-- Node2&#45;&gt;Node5 -->
<g id="edge4_Node000002_Node000005" class="edge">
<title>Node2&#45;&gt;Node5</title>
<g id="a_edge4_Node000002_Node000005"><a xlink:title=" ">
<path fill="none" stroke="#63b8ff" d="M549.64,-58.53C491.56,-47.24 400.18,-29.48 346.32,-19.02"/>
<polygon fill="#63b8ff" stroke="#63b8ff" points="549.25,-62.02 559.73,-60.49 550.58,-55.15 549.25,-62.02"/>
</a>
</g>
</g>
<!-- Node6 -->
<g id="Node000006" class="node">
<title>Node6</title>
<g id="a_Node000006"><a xlink:href="load_8c.html" target="_top" xlink:title=" ">
<polygon fill="white" stroke="#666666" points="462,-19 369,-19 369,0 462,0 462,-19"/>
<text text-anchor="middle" x="415.5" y="-7" font-family="Helvetica,sans-Serif" font-size="10.00">src/audio/load.c</text>
</a>
</g>
</g>
<!-- Node2&#45;&gt;Node6 -->
<g id="edge5_Node000002_Node000006" class="edge">
<title>Node2&#45;&gt;Node6</title>
<g id="a_edge5_Node000002_Node000006"><a xlink:title=" ">
<path fill="none" stroke="#63b8ff" d="M566.42,-57.46C530.06,-46.15 475.47,-29.16 442.87,-19.02"/>
<polygon fill="#63b8ff" stroke="#63b8ff" points="565.57,-60.86 576.16,-60.49 567.65,-54.18 565.57,-60.86"/>
</a>
</g>
</g>
<!-- Node7 -->
<g id="Node000007" class="node">
<title>Node7</title>
<g id="a_Node000007"><a xlink:href="playback_8c.html" target="_top" xlink:title=" ">
<polygon fill="white" stroke="#666666" points="596.5,-19 480.5,-19 480.5,0 596.5,0 596.5,-19"/>
<text text-anchor="middle" x="538.5" y="-7" font-family="Helvetica,sans-Serif" font-size="10.00">src/audio/playback.c</text>
</a>
</g>
</g>
<!-- Node2&#45;&gt;Node7 -->
<g id="edge6_Node000002_Node000007" class="edge">
<title>Node2&#45;&gt;Node7</title>
<g id="a_edge6_Node000002_Node000007"><a xlink:title=" ">
<path fill="none" stroke="#63b8ff" d="M586.18,-53.41C573.99,-42.44 558.13,-28.17 548.13,-19.17"/>
<polygon fill="#63b8ff" stroke="#63b8ff" points="584.13,-56.28 593.91,-60.37 588.82,-51.08 584.13,-56.28"/>
</a>
</g>
</g>
<!-- Node8 -->
<g id="Node000008" class="node">
<title>Node8</title>
<g id="a_Node000008"><a xlink:href="port__eu_8c.html" target="_top" xlink:title=" ">
<polygon fill="white" stroke="#666666" points="724,-19 615,-19 615,0 724,0 724,-19"/>
<text text-anchor="middle" x="669.5" y="-7" font-family="Helvetica,sans-Serif" font-size="10.00">src/audio/port_eu.c</text>
</a>
</g>
</g>
<!-- Node2&#45;&gt;Node8 -->
<g id="edge7_Node000002_Node000008" class="edge">
<title>Node2&#45;&gt;Node8</title>
<g id="a_edge7_Node000002_Node000008"><a xlink:title=" ">
<path fill="none" stroke="#63b8ff" d="M620.74,-53.72C633.16,-42.71 649.47,-28.25 659.72,-19.17"/>
<polygon fill="#63b8ff" stroke="#63b8ff" points="618.4,-51.12 613.24,-60.37 623.04,-56.35 618.4,-51.12"/>
</a>
</g>
</g>
<!-- Node2&#45;&gt;Node9 -->
<g id="edge8_Node000002_Node000009" class="edge">
<title>Node2&#45;&gt;Node9</title>
<g id="a_edge8_Node000002_Node000009"><a xlink:title=" ">
<path fill="none" stroke="#63b8ff" d="M660.59,-61.74C748.15,-50.6 914.81,-29.41 1003.88,-18.08"/>
<polygon fill="#63b8ff" stroke="#63b8ff" points="660.04,-58.28 650.57,-63.01 660.93,-65.22 660.04,-58.28"/>
</a>
</g>
</g>
<!-- Node10 -->
<g id="Node000010" class="node">
<title>Node10</title>
<g id="a_Node000010"><a xlink:href="synthesis_8c.html" target="_top" xlink:title=" ">
<polygon fill="white" stroke="#666666" points="861,-19 742,-19 742,0 861,0 861,-19"/>
<text text-anchor="middle" x="801.5" y="-7" font-family="Helvetica,sans-Serif" font-size="10.00">src/audio/synthesis.c</text>
</a>
</g>
</g>
<!-- Node2&#45;&gt;Node10 -->
<g id="edge9_Node000002_Node000010" class="edge">
<title>Node2&#45;&gt;Node10</title>
<g id="a_edge9_Node000002_Node000010"><a xlink:title=" ">
<path fill="none" stroke="#63b8ff" d="M642.06,-57.61C680.35,-46.29 738.2,-29.2 772.67,-19.02"/>
<polygon fill="#63b8ff" stroke="#63b8ff" points="640.89,-54.3 632.29,-60.49 642.87,-61.02 640.89,-54.3"/>
</a>
</g>
</g>
<!-- Node11 -->
<g id="Node000011" class="node">
<title>Node11</title>
<g id="a_Node000011"><a xlink:href="Game_8cpp.html" target="_top" xlink:title=" ">
<polygon fill="white" stroke="#666666" points="985.5,-19 879.5,-19 879.5,0 985.5,0 985.5,-19"/>
<text text-anchor="middle" x="932.5" y="-7" font-family="Helvetica,sans-Serif" font-size="10.00">src/port/Game.cpp</text>
</a>
</g>
</g>
<!-- Node2&#45;&gt;Node11 -->
<g id="edge10_Node000002_Node000011" class="edge">
<title>Node2&#45;&gt;Node11</title>
<g id="a_edge10_Node000002_Node000011"><a xlink:title=" ">
<path fill="none" stroke="#63b8ff" d="M660.87,-58.8C724.29,-47.52 825.32,-29.56 884.65,-19.01"/>
<polygon fill="#63b8ff" stroke="#63b8ff" points="659.87,-55.42 650.64,-60.62 661.1,-62.31 659.87,-55.42"/>
</a>
</g>
</g>
</g>
</svg>
