<?xml version="1.0" encoding="UTF-8" standalone="no"?>
<!DOCTYPE svg PUBLIC "-//W3C//DTD SVG 1.1//EN"
 "http://www.w3.org/Graphics/SVG/1.1/DTD/svg11.dtd">
<!-- Generated by graphviz version 2.43.0 (0)
 -->
<!-- Title: Properties Pages: 1 -->
<svg width="680pt" height="915pt"
 viewBox="0.00 0.00 680.00 915.27" xmlns="http://www.w3.org/2000/svg" xmlns:xlink="http://www.w3.org/1999/xlink">
<g id="graph0" class="graph" transform="scale(1 1) rotate(0) translate(4 911.27)">
<title>Properties</title>
<!-- Node1 -->
<g id="Node000001" class="node">
<title>Node1</title>
<g id="a_Node000001"><a xlink:title=" ">
<polygon fill="#999999" stroke="#666666" points="672,-432.77 606,-432.77 606,-413.77 672,-413.77 672,-432.77"/>
<text text-anchor="middle" x="639" y="-420.77" font-family="Helvetica,sans-Serif" font-size="10.00">Properties</text>
</a>
</g>
</g>
<!-- Node2 -->
<g id="Node000002" class="node">
<title>Node2</title>
<g id="a_Node000002"><a xlink:title=" ">
<polygon fill="white" stroke="#666666" points="152.5,-855.77 114.5,-855.77 114.5,-836.77 152.5,-836.77 152.5,-855.77"/>
<text text-anchor="middle" x="133.5" y="-843.77" font-family="Helvetica,sans-Serif" font-size="10.00">char</text>
</a>
</g>
</g>
<!-- Node2&#45;&gt;Node1 -->
<g id="edge1_Node000001_Node000002" class="edge">
<title>Node2&#45;&gt;Node1</title>
<g id="a_edge1_Node000001_Node000002"><a xlink:title=" ">
<path fill="none" stroke="#9a32cd" stroke-dasharray="5,2" d="M162.75,-851.6C243.34,-865.01 475.79,-890.71 588,-766.27 633.94,-715.32 637.71,-483.05 637.99,-432.85"/>
<polygon fill="#9a32cd" stroke="#9a32cd" points="163.28,-848.14 152.83,-849.89 162.09,-855.04 163.28,-848.14"/>
</a>
</g>
<text text-anchor="middle" x="379" y="-899.27" font-family="Helvetica,sans-Serif" font-size="10.00" fill="grey"> AIBehaviour</text>
<text text-anchor="middle" x="379" y="-888.27" font-family="Helvetica,sans-Serif" font-size="10.00" fill="grey">CourseLength</text>
<text text-anchor="middle" x="379" y="-877.27" font-family="Helvetica,sans-Serif" font-size="10.00" fill="grey">DebugName</text>
<text text-anchor="middle" x="379" y="-866.27" font-family="Helvetica,sans-Serif" font-size="10.00" fill="grey">Name</text>
</g>
<!-- Node12 -->
<g id="Node000012" class="node">
<title>Node12</title>
<g id="a_Node000012"><a xlink:href="struct__struct__gCoursePathSizes__0x10.html" target="_top" xlink:title=" ">
<polygon fill="white" stroke="#666666" points="464,-764.77 294,-764.77 294,-745.77 464,-745.77 464,-764.77"/>
<text text-anchor="middle" x="379" y="-752.77" font-family="Helvetica,sans-Serif" font-size="10.00">_struct_gCoursePathSizes_0x10</text>
</a>
</g>
</g>
<!-- Node2&#45;&gt;Node12 -->
<g id="edge17_Node000012_Node000002" class="edge">
<title>Node2&#45;&gt;Node12</title>
<g id="a_edge17_Node000012_Node000002"><a xlink:title=" ">
<path fill="none" stroke="#9a32cd" stroke-dasharray="5,2" d="M162.53,-839.75C200.69,-830.81 265.47,-815.38 276,-811.27 308.74,-798.48 344.1,-777.21 363.39,-764.89"/>
<polygon fill="#9a32cd" stroke="#9a32cd" points="161.48,-836.4 152.54,-842.08 163.08,-843.21 161.48,-836.4"/>
</a>
</g>
<text text-anchor="middle" x="232.5" y="-835.27" font-family="Helvetica,sans-Serif" font-size="10.00" fill="grey"> padA</text>
</g>
<!-- Node3 -->
<g id="Node000003" class="node">
<title>Node3</title>
<g id="a_Node000003"><a xlink:title=" ">
<polygon fill="white" stroke="#666666" points="50,-485.77 0,-485.77 0,-466.77 50,-466.77 50,-485.77"/>
<text text-anchor="middle" x="25" y="-473.77" font-family="Helvetica,sans-Serif" font-size="10.00">int32_t</text>
</a>
</g>
</g>
<!-- Node3&#45;&gt;Node1 -->
<g id="edge2_Node000001_Node000003" class="edge">
<title>Node3&#45;&gt;Node1</title>
<g id="a_edge2_Node000001_Node000003"><a xlink:title=" ">
<path fill="none" stroke="#9a32cd" stroke-dasharray="5,2" d="M38,-494.43C50.29,-511.22 71.09,-535.05 96,-545.27 126.84,-557.91 137.7,-546.85 171,-545.27 359.34,-536.32 419.74,-552.34 588,-467.27 604.92,-458.71 620.68,-443.06 629.83,-432.92"/>
<polygon fill="#9a32cd" stroke="#9a32cd" points="40.68,-492.15 32.08,-485.97 34.94,-496.17 40.68,-492.15"/>
</a>
</g>
<text text-anchor="middle" x="232.5" y="-547.27" font-family="Helvetica,sans-Serif" font-size="10.00" fill="grey"> LakituTowType</text>
</g>
<!-- Node4 -->
<g id="Node000004" class="node">
<title>Node4</title>
<g id="a_Node000004"><a xlink:href="structMinimapProps.html" target="_top" xlink:title=" ">
<polygon fill="white" stroke="#666666" points="422,-471.77 336,-471.77 336,-452.77 422,-452.77 422,-471.77"/>
<text text-anchor="middle" x="379" y="-459.77" font-family="Helvetica,sans-Serif" font-size="10.00">MinimapProps</text>
</a>
</g>
</g>
<!-- Node3&#45;&gt;Node4 -->
<g id="edge8_Node000004_Node000003" class="edge">
<title>Node3&#45;&gt;Node4</title>
<g id="a_edge8_Node000004_Node000003"><a xlink:title=" ">
<path fill="none" stroke="#9a32cd" stroke-dasharray="5,2" d="M60.35,-476.89C108.58,-477.53 199.06,-477.87 276,-473.27 295.73,-472.09 317.53,-469.86 335.89,-467.72"/>
<polygon fill="#9a32cd" stroke="#9a32cd" points="60.21,-473.39 50.16,-476.74 60.11,-480.39 60.21,-473.39"/>
</a>
</g>
<text text-anchor="middle" x="133.5" y="-490.27" font-family="Helvetica,sans-Serif" font-size="10.00" fill="grey"> PlayerX</text>
<text text-anchor="middle" x="133.5" y="-479.27" font-family="Helvetica,sans-Serif" font-size="10.00" fill="grey">PlayerY</text>
</g>
<!-- Node7 -->
<g id="Node000007" class="node">
<title>Node7</title>
<g id="a_Node000007"><a xlink:href="structIVector2D.html" target="_top" xlink:title=" ">
<polygon fill="white" stroke="#666666" points="165.5,-402.77 101.5,-402.77 101.5,-383.77 165.5,-383.77 165.5,-402.77"/>
<text text-anchor="middle" x="133.5" y="-390.77" font-family="Helvetica,sans-Serif" font-size="10.00">IVector2D</text>
</a>
</g>
</g>
<!-- Node3&#45;&gt;Node7 -->
<g id="edge7_Node000007_Node000003" class="edge">
<title>Node3&#45;&gt;Node7</title>
<g id="a_edge7_Node000007_Node000003"><a xlink:title=" ">
<path fill="none" stroke="#9a32cd" stroke-dasharray="5,2" d="M41.98,-459.39C55.54,-445.65 75.92,-426.31 96,-412.27 100.92,-408.83 106.54,-405.6 111.87,-402.82"/>
<polygon fill="#9a32cd" stroke="#9a32cd" points="39.3,-457.13 34.85,-466.74 44.32,-462 39.3,-457.13"/>
</a>
</g>
<text text-anchor="middle" x="73" y="-447.27" font-family="Helvetica,sans-Serif" font-size="10.00" fill="grey"> X</text>
<text text-anchor="middle" x="73" y="-436.27" font-family="Helvetica,sans-Serif" font-size="10.00" fill="grey">Y</text>
</g>
<!-- Node4&#45;&gt;Node1 -->
<g id="edge3_Node000001_Node000004" class="edge">
<title>Node4&#45;&gt;Node1</title>
<g id="a_edge3_Node000001_Node000004"><a xlink:title=" ">
<path fill="none" stroke="#9a32cd" stroke-dasharray="5,2" d="M432.19,-458.23C474.47,-454.42 535.44,-447.72 588,-437.27 594.1,-436.06 600.54,-434.48 606.7,-432.82"/>
<polygon fill="#9a32cd" stroke="#9a32cd" points="431.79,-454.75 422.13,-459.11 432.4,-461.73 431.79,-454.75"/>
</a>
</g>
<text text-anchor="middle" x="535" y="-455.27" font-family="Helvetica,sans-Serif" font-size="10.00" fill="grey"> Minimap</text>
</g>
<!-- Node5 -->
<g id="Node000005" class="node">
<title>Node5</title>
<g id="a_Node000005"><a xlink:title=" ">
<polygon fill="white" stroke="#666666" points="171,-535.77 96,-535.77 96,-516.77 171,-516.77 171,-535.77"/>
<text text-anchor="middle" x="133.5" y="-523.77" font-family="Helvetica,sans-Serif" font-size="10.00">const char *</text>
</a>
</g>
</g>
<!-- Node5&#45;&gt;Node4 -->
<g id="edge4_Node000004_Node000005" class="edge">
<title>Node5&#45;&gt;Node4</title>
<g id="a_edge4_Node000004_Node000005"><a xlink:title=" ">
<path fill="none" stroke="#9a32cd" stroke-dasharray="5,2" d="M181.32,-521.8C209.17,-518.46 245,-512.93 276,-504.27 305.7,-495.97 338.38,-481.5 358.55,-471.9"/>
<polygon fill="#9a32cd" stroke="#9a32cd" points="180.6,-518.36 171.06,-522.98 181.4,-525.32 180.6,-518.36"/>
</a>
</g>
<text text-anchor="middle" x="232.5" y="-523.27" font-family="Helvetica,sans-Serif" font-size="10.00" fill="grey"> Texture</text>
</g>
<!-- Node6 -->
<g id="Node000006" class="node">
<title>Node6</title>
<g id="a_Node000006"><a xlink:title=" ">
<polygon fill="white" stroke="#666666" points="158.5,-439.77 108.5,-439.77 108.5,-420.77 158.5,-420.77 158.5,-439.77"/>
<text text-anchor="middle" x="133.5" y="-427.77" font-family="Helvetica,sans-Serif" font-size="10.00">int16_t</text>
</a>
</g>
</g>
<!-- Node6&#45;&gt;Node1 -->
<g id="edge13_Node000001_Node000006" class="edge">
<title>Node6&#45;&gt;Node1</title>
<g id="a_edge13_Node000001_Node000006"><a xlink:title=" ">
<path fill="none" stroke="#9a32cd" stroke-dasharray="5,2" d="M169.03,-429.79C261.85,-428.5 515.75,-424.97 605.8,-423.72"/>
<polygon fill="#9a32cd" stroke="#9a32cd" points="168.74,-426.29 158.78,-429.93 168.83,-433.29 168.74,-426.29"/>
</a>
</g>
<text text-anchor="middle" x="379" y="-430.27" font-family="Helvetica,sans-Serif" font-size="10.00" fill="grey"> AIDistance</text>
</g>
<!-- Node6&#45;&gt;Node4 -->
<g id="edge5_Node000004_Node000006" class="edge">
<title>Node6&#45;&gt;Node4</title>
<g id="a_edge5_Node000004_Node000006"><a xlink:title=" ">
<path fill="none" stroke="#9a32cd" stroke-dasharray="5,2" d="M168.88,-434.79C212.66,-440.54 288.28,-450.48 335.59,-456.69"/>
<polygon fill="#9a32cd" stroke="#9a32cd" points="169.11,-431.29 158.74,-433.45 168.2,-438.23 169.11,-431.29"/>
</a>
</g>
<text text-anchor="middle" x="232.5" y="-461.27" font-family="Helvetica,sans-Serif" font-size="10.00" fill="grey"> Height</text>
<text text-anchor="middle" x="232.5" y="-450.27" font-family="Helvetica,sans-Serif" font-size="10.00" fill="grey">Width</text>
</g>
<!-- Node7&#45;&gt;Node4 -->
<g id="edge6_Node000004_Node000007" class="edge">
<title>Node7&#45;&gt;Node4</title>
<g id="a_edge6_Node000004_Node000007"><a xlink:title=" ">
<path fill="none" stroke="#9a32cd" stroke-dasharray="5,2" d="M175.82,-396.03C205.08,-399.32 244.55,-406.51 276,-422.27 285.57,-427.06 284.62,-433.11 294,-438.27 306.89,-445.35 322.08,-450.52 335.96,-454.19"/>
<polygon fill="#9a32cd" stroke="#9a32cd" points="175.84,-392.51 165.54,-394.99 175.14,-399.48 175.84,-392.51"/>
</a>
</g>
<text text-anchor="middle" x="232.5" y="-425.27" font-family="Helvetica,sans-Serif" font-size="10.00" fill="grey"> Pos</text>
</g>
<!-- Node8 -->
<g id="Node000008" class="node">
<title>Node8</title>
<g id="a_Node000008"><a xlink:title=" ">
<polygon fill="white" stroke="#666666" points="152.5,-316.77 114.5,-316.77 114.5,-297.77 152.5,-297.77 152.5,-316.77"/>
<text text-anchor="middle" x="133.5" y="-304.77" font-family="Helvetica,sans-Serif" font-size="10.00">float</text>
</a>
</g>
</g>
<!-- Node8&#45;&gt;Node1 -->
<g id="edge12_Node000001_Node000008" class="edge">
<title>Node8&#45;&gt;Node1</title>
<g id="a_edge12_Node000001_Node000008"><a xlink:title=" ">
<path fill="none" stroke="#9a32cd" stroke-dasharray="5,2" d="M162.15,-295.62C170.62,-292.6 180.05,-289.78 189,-288.27 227.12,-281.81 237.95,-281.4 276,-288.27 413.63,-313.1 567.2,-387.03 619.45,-413.61"/>
<polygon fill="#9a32cd" stroke="#9a32cd" points="160.87,-292.36 152.76,-299.18 163.35,-298.91 160.87,-292.36"/>
</a>
</g>
<text text-anchor="middle" x="379" y="-389.27" font-family="Helvetica,sans-Serif" font-size="10.00" fill="grey"> AIMaximumSeparation</text>
<text text-anchor="middle" x="379" y="-378.27" font-family="Helvetica,sans-Serif" font-size="10.00" fill="grey">AIMinimumSeparation</text>
<text text-anchor="middle" x="379" y="-367.27" font-family="Helvetica,sans-Serif" font-size="10.00" fill="grey">FarPersp</text>
<text text-anchor="middle" x="379" y="-356.27" font-family="Helvetica,sans-Serif" font-size="10.00" fill="grey">NearPersp</text>
<text text-anchor="middle" x="379" y="-345.27" font-family="Helvetica,sans-Serif" font-size="10.00" fill="grey">WaterLevel</text>
</g>
<!-- Node8&#45;&gt;Node4 -->
<g id="edge9_Node000004_Node000008" class="edge">
<title>Node8&#45;&gt;Node4</title>
<g id="a_edge9_Node000004_Node000008"><a xlink:title=" ">
<path fill="none" stroke="#9a32cd" stroke-dasharray="5,2" d="M162.79,-314.46C199.53,-324.34 260.78,-342.9 276,-360.27 299.45,-387.03 269.5,-412.47 294,-438.27 304.86,-449.71 320.76,-455.81 335.81,-459.03"/>
<polygon fill="#9a32cd" stroke="#9a32cd" points="163.25,-310.96 152.69,-311.79 161.47,-317.73 163.25,-310.96"/>
</a>
</g>
<text text-anchor="middle" x="232.5" y="-385.27" font-family="Helvetica,sans-Serif" font-size="10.00" fill="grey"> FinishlineX</text>
<text text-anchor="middle" x="232.5" y="-374.27" font-family="Helvetica,sans-Serif" font-size="10.00" fill="grey">FinishlineY</text>
<text text-anchor="middle" x="232.5" y="-363.27" font-family="Helvetica,sans-Serif" font-size="10.00" fill="grey">PlayerScaleFactor</text>
</g>
<!-- Node9 -->
<g id="Node000009" class="node">
<title>Node9</title>
<g id="a_Node000009"><a xlink:href="structRGB8.html" target="_top" xlink:title=" ">
<polygon fill="white" stroke="#666666" points="155.5,-184.77 111.5,-184.77 111.5,-165.77 155.5,-165.77 155.5,-184.77"/>
<text text-anchor="middle" x="133.5" y="-172.77" font-family="Helvetica,sans-Serif" font-size="10.00">RGB8</text>
</a>
</g>
</g>
<!-- Node9&#45;&gt;Node4 -->
<g id="edge10_Node000004_Node000009" class="edge">
<title>Node9&#45;&gt;Node4</title>
<g id="a_edge10_Node000004_Node000009"><a xlink:title=" ">
<path fill="none" stroke="#9a32cd" stroke-dasharray="5,2" d="M142.22,-194.22C151.04,-213.88 167.14,-244.48 189,-264.27 220.84,-293.08 250.76,-271.53 276,-306.27 310.8,-354.17 255.23,-393.52 294,-438.27 304.43,-450.3 320.43,-456.5 335.69,-459.63"/>
<polygon fill="#9a32cd" stroke="#9a32cd" points="145.34,-192.61 138.18,-184.8 138.91,-195.37 145.34,-192.61"/>
</a>
</g>
<text text-anchor="middle" x="232.5" y="-309.27" font-family="Helvetica,sans-Serif" font-size="10.00" fill="grey"> Colour</text>
</g>
<!-- Node18 -->
<g id="Node000018" class="node">
<title>Node18</title>
<g id="a_Node000018"><a xlink:href="structSkyboxColours.html" target="_top" xlink:title=" ">
<polygon fill="white" stroke="#666666" points="423.5,-224.77 334.5,-224.77 334.5,-205.77 423.5,-205.77 423.5,-224.77"/>
<text text-anchor="middle" x="379" y="-212.77" font-family="Helvetica,sans-Serif" font-size="10.00">SkyboxColours</text>
</a>
</g>
</g>
<!-- Node9&#45;&gt;Node18 -->
<g id="edge26_Node000018_Node000009" class="edge">
<title>Node9&#45;&gt;Node18</title>
<g id="a_edge26_Node000018_Node000009"><a xlink:title=" ">
<path fill="none" stroke="#9a32cd" stroke-dasharray="5,2" d="M165.78,-170.71C194.69,-167.41 238.68,-164.72 276,-172.27 307.46,-178.63 341.28,-194.99 360.99,-205.6"/>
<polygon fill="#9a32cd" stroke="#9a32cd" points="165.35,-167.24 155.85,-171.93 166.21,-174.18 165.35,-167.24"/>
</a>
</g>
<text text-anchor="middle" x="232.5" y="-252.27" font-family="Helvetica,sans-Serif" font-size="10.00" fill="grey"> BottomLeft</text>
<text text-anchor="middle" x="232.5" y="-241.27" font-family="Helvetica,sans-Serif" font-size="10.00" fill="grey">BottomRight</text>
<text text-anchor="middle" x="232.5" y="-230.27" font-family="Helvetica,sans-Serif" font-size="10.00" fill="grey">FloorBottomLeft</text>
<text text-anchor="middle" x="232.5" y="-219.27" font-family="Helvetica,sans-Serif" font-size="10.00" fill="grey">FloorBottomRight</text>
<text text-anchor="middle" x="232.5" y="-208.27" font-family="Helvetica,sans-Serif" font-size="10.00" fill="grey">FloorTopLeft</text>
<text text-anchor="middle" x="232.5" y="-197.27" font-family="Helvetica,sans-Serif" font-size="10.00" fill="grey">FloorTopRight</text>
<text text-anchor="middle" x="232.5" y="-186.27" font-family="Helvetica,sans-Serif" font-size="10.00" fill="grey">TopLeft</text>
<text text-anchor="middle" x="232.5" y="-175.27" font-family="Helvetica,sans-Serif" font-size="10.00" fill="grey">TopRight</text>
</g>
<!-- Node10 -->
<g id="Node000010" class="node">
<title>Node10</title>
<g id="a_Node000010"><a xlink:title=" ">
<polygon fill="white" stroke="#666666" points="50,-165.77 0,-165.77 0,-146.77 50,-146.77 50,-165.77"/>
<text text-anchor="middle" x="25" y="-153.77" font-family="Helvetica,sans-Serif" font-size="10.00">uint8_t</text>
</a>
</g>
</g>
<!-- Node10&#45;&gt;Node1 -->
<g id="edge22_Node000001_Node000010" class="edge">
<title>Node10&#45;&gt;Node1</title>
<g id="a_edge22_Node000001_Node000010"><a xlink:title=" ">
<path fill="none" stroke="#9a32cd" stroke-dasharray="5,2" d="M60.46,-154.04C170.69,-147.67 511.92,-134.27 588,-206.27 618.96,-235.57 633.68,-375.38 637.17,-413.6"/>
<polygon fill="#9a32cd" stroke="#9a32cd" points="60.01,-150.56 50.23,-154.64 60.42,-157.54 60.01,-150.56"/>
</a>
</g>
<text text-anchor="middle" x="232.5" y="-151.27" font-family="Helvetica,sans-Serif" font-size="10.00" fill="grey"> CloudTexture</text>
</g>
<!-- Node10&#45;&gt;Node9 -->
<g id="edge11_Node000009_Node000010" class="edge">
<title>Node10&#45;&gt;Node9</title>
<g id="a_edge11_Node000009_Node000010"><a xlink:title=" ">
<path fill="none" stroke="#9a32cd" stroke-dasharray="5,2" d="M60.18,-162.37C76.99,-165.36 96.71,-168.88 111.31,-171.49"/>
<polygon fill="#9a32cd" stroke="#9a32cd" points="60.63,-158.89 50.17,-160.58 59.4,-165.78 60.63,-158.89"/>
</a>
</g>
<text text-anchor="middle" x="73" y="-189.27" font-family="Helvetica,sans-Serif" font-size="10.00" fill="grey"> b</text>
<text text-anchor="middle" x="73" y="-178.27" font-family="Helvetica,sans-Serif" font-size="10.00" fill="grey">g</text>
<text text-anchor="middle" x="73" y="-167.27" font-family="Helvetica,sans-Serif" font-size="10.00" fill="grey">r</text>
</g>
<!-- Node11 -->
<g id="Node000011" class="node">
<title>Node11</title>
<g id="a_Node000011"><a xlink:title=" ">
<polygon fill="white" stroke="#666666" points="407,-122.77 351,-122.77 351,-103.77 407,-103.77 407,-122.77"/>
<text text-anchor="middle" x="379" y="-110.77" font-family="Helvetica,sans-Serif" font-size="10.00">uint32_t</text>
</a>
</g>
</g>
<!-- Node11&#45;&gt;Node1 -->
<g id="edge14_Node000001_Node000011" class="edge">
<title>Node11&#45;&gt;Node1</title>
<g id="a_edge14_Node000001_Node000011"><a xlink:title=" ">
<path fill="none" stroke="#9a32cd" stroke-dasharray="5,2" d="M417.3,-110.29C470.32,-106.91 563.74,-104.42 588,-126.27 631.9,-165.81 637.26,-367.01 637.91,-413.62"/>
<polygon fill="#9a32cd" stroke="#9a32cd" points="417.01,-106.8 407.27,-110.97 417.48,-113.78 417.01,-106.8"/>
</a>
</g>
<text text-anchor="middle" x="535" y="-129.27" font-family="Helvetica,sans-Serif" font-size="10.00" fill="grey"> AISteeringSensitivity</text>
</g>
<!-- Node12&#45;&gt;Node1 -->
<g id="edge15_Node000001_Node000012" class="edge">
<title>Node12&#45;&gt;Node1</title>
<g id="a_edge15_Node000001_Node000012"><a xlink:title=" ">
<path fill="none" stroke="#9a32cd" stroke-dasharray="5,2" d="M474.39,-754.12C514.71,-748.65 559.05,-735.15 588,-704.27 626.13,-663.6 635.86,-477.35 637.66,-432.84"/>
<polygon fill="#9a32cd" stroke="#9a32cd" points="473.75,-750.67 464.24,-755.34 474.59,-757.62 473.75,-750.67"/>
</a>
</g>
<text text-anchor="middle" x="535" y="-754.27" font-family="Helvetica,sans-Serif" font-size="10.00" fill="grey"> PathSizes</text>
</g>
<!-- Node13 -->
<g id="Node000013" class="node">
<title>Node13</title>
<g id="a_Node000013"><a xlink:title=" ">
<polygon fill="white" stroke="#666666" points="151,-697.77 116,-697.77 116,-678.77 151,-678.77 151,-697.77"/>
<text text-anchor="middle" x="133.5" y="-685.77" font-family="Helvetica,sans-Serif" font-size="10.00">u16</text>
</a>
</g>
</g>
<!-- Node13&#45;&gt;Node12 -->
<g id="edge16_Node000012_Node000013" class="edge">
<title>Node13&#45;&gt;Node12</title>
<g id="a_edge16_Node000012_Node000013"><a xlink:title=" ">
<path fill="none" stroke="#9a32cd" stroke-dasharray="5,2" d="M150.22,-705.47C160.29,-715.33 174.22,-726.96 189,-733.27 221.67,-747.2 260.22,-753.31 293.97,-755.71"/>
<polygon fill="#9a32cd" stroke="#9a32cd" points="152.51,-702.8 143.02,-698.08 147.49,-707.69 152.51,-702.8"/>
</a>
</g>
<text text-anchor="middle" x="232.5" y="-800.27" font-family="Helvetica,sans-Serif" font-size="10.00" fill="grey"> unk0</text>
<text text-anchor="middle" x="232.5" y="-789.27" font-family="Helvetica,sans-Serif" font-size="10.00" fill="grey">unk2</text>
<text text-anchor="middle" x="232.5" y="-778.27" font-family="Helvetica,sans-Serif" font-size="10.00" fill="grey">unk4</text>
<text text-anchor="middle" x="232.5" y="-767.27" font-family="Helvetica,sans-Serif" font-size="10.00" fill="grey">unk6</text>
<text text-anchor="middle" x="232.5" y="-756.27" font-family="Helvetica,sans-Serif" font-size="10.00" fill="grey">unk8</text>
</g>
<!-- Node15 -->
<g id="Node000015" class="node">
<title>Node15</title>
<g id="a_Node000015"><a xlink:href="structTrackPathPoint.html" target="_top" xlink:title=" ">
<polygon fill="white" stroke="#666666" points="423,-611.77 335,-611.77 335,-592.77 423,-592.77 423,-611.77"/>
<text text-anchor="middle" x="379" y="-599.77" font-family="Helvetica,sans-Serif" font-size="10.00">TrackPathPoint</text>
</a>
</g>
</g>
<!-- Node13&#45;&gt;Node15 -->
<g id="edge21_Node000015_Node000013" class="edge">
<title>Node13&#45;&gt;Node15</title>
<g id="a_edge21_Node000015_Node000013"><a xlink:title=" ">
<path fill="none" stroke="#9a32cd" stroke-dasharray="5,2" d="M160.62,-677.37C169.57,-673.73 179.69,-669.72 189,-666.27 244.71,-645.61 310.6,-623.91 348.03,-611.83"/>
<polygon fill="#9a32cd" stroke="#9a32cd" points="159.02,-674.24 151.1,-681.28 161.68,-680.72 159.02,-674.24"/>
</a>
</g>
<text text-anchor="middle" x="232.5" y="-669.27" font-family="Helvetica,sans-Serif" font-size="10.00" fill="grey"> trackSectionId</text>
</g>
<!-- Node17 -->
<g id="Node000017" class="node">
<title>Node17</title>
<g id="a_Node000017"><a xlink:href="structStarData.html" target="_top" xlink:title=" ">
<polygon fill="white" stroke="#666666" points="408.5,-686.77 349.5,-686.77 349.5,-667.77 408.5,-667.77 408.5,-686.77"/>
<text text-anchor="middle" x="379" y="-674.77" font-family="Helvetica,sans-Serif" font-size="10.00">StarData</text>
</a>
</g>
</g>
<!-- Node13&#45;&gt;Node17 -->
<g id="edge24_Node000017_Node000013" class="edge">
<title>Node13&#45;&gt;Node17</title>
<g id="a_edge24_Node000017_Node000013"><a xlink:title=" ">
<path fill="none" stroke="#9a32cd" stroke-dasharray="5,2" d="M161.37,-687.05C207.55,-684.97 301.57,-680.72 349.1,-678.57"/>
<polygon fill="#9a32cd" stroke="#9a32cd" points="161.07,-683.56 151.24,-687.51 161.38,-690.56 161.07,-683.56"/>
</a>
</g>
<text text-anchor="middle" x="232.5" y="-721.27" font-family="Helvetica,sans-Serif" font-size="10.00" fill="grey"> posY</text>
<text text-anchor="middle" x="232.5" y="-710.27" font-family="Helvetica,sans-Serif" font-size="10.00" fill="grey">rotY</text>
<text text-anchor="middle" x="232.5" y="-699.27" font-family="Helvetica,sans-Serif" font-size="10.00" fill="grey">scalePercent</text>
<text text-anchor="middle" x="232.5" y="-688.27" font-family="Helvetica,sans-Serif" font-size="10.00" fill="grey">subType</text>
</g>
<!-- Node14 -->
<g id="Node000014" class="node">
<title>Node14</title>
<g id="a_Node000014"><a xlink:title=" ">
<polygon fill="white" stroke="#666666" points="395,-67.77 363,-67.77 363,-48.77 395,-48.77 395,-67.77"/>
<text text-anchor="middle" x="379" y="-55.77" font-family="Helvetica,sans-Serif" font-size="10.00">f32</text>
</a>
</g>
</g>
<!-- Node14&#45;&gt;Node1 -->
<g id="edge18_Node000001_Node000014" class="edge">
<title>Node14&#45;&gt;Node1</title>
<g id="a_edge18_Node000001_Node000014"><a xlink:title=" ">
<path fill="none" stroke="#9a32cd" stroke-dasharray="5,2" d="M405.47,-54.43C454.95,-47.6 561.55,-36.09 588,-59.27 642.93,-107.4 639.6,-360.69 638.28,-413.58"/>
<polygon fill="#9a32cd" stroke="#9a32cd" points="404.68,-51.01 395.28,-55.89 405.67,-57.94 404.68,-51.01"/>
</a>
</g>
<text text-anchor="middle" x="535" y="-95.27" font-family="Helvetica,sans-Serif" font-size="10.00" fill="grey"> CurveTargetSpeed</text>
<text text-anchor="middle" x="535" y="-84.27" font-family="Helvetica,sans-Serif" font-size="10.00" fill="grey">D_0D0096B8</text>
<text text-anchor="middle" x="535" y="-73.27" font-family="Helvetica,sans-Serif" font-size="10.00" fill="grey">NormalTargetSpeed</text>
<text text-anchor="middle" x="535" y="-62.27" font-family="Helvetica,sans-Serif" font-size="10.00" fill="grey">OffTrackTargetSpeed</text>
</g>
<!-- Node15&#45;&gt;Node1 -->
<g id="edge19_Node000001_Node000015" class="edge">
<title>Node15&#45;&gt;Node1</title>
<g id="a_edge19_Node000001_Node000015"><a xlink:title=" ">
<path fill="none" stroke="#9a32cd" stroke-dasharray="5,2" d="M433.09,-610.87C479.15,-615.22 545.01,-613.52 588,-578.27 633.92,-540.62 638.15,-460.44 638.18,-432.84"/>
<polygon fill="#9a32cd" stroke="#9a32cd" points="433.32,-607.38 423,-609.79 432.57,-614.34 433.32,-607.38"/>
</a>
</g>
<text text-anchor="middle" x="535" y="-625.27" font-family="Helvetica,sans-Serif" font-size="10.00" fill="grey"> PathTable</text>
<text text-anchor="middle" x="535" y="-614.27" font-family="Helvetica,sans-Serif" font-size="10.00" fill="grey">PathTable2</text>
</g>
<!-- Node16 -->
<g id="Node000016" class="node">
<title>Node16</title>
<g id="a_Node000016"><a xlink:title=" ">
<polygon fill="white" stroke="#666666" points="150.5,-611.77 116.5,-611.77 116.5,-592.77 150.5,-592.77 150.5,-611.77"/>
<text text-anchor="middle" x="133.5" y="-599.77" font-family="Helvetica,sans-Serif" font-size="10.00">s16</text>
</a>
</g>
</g>
<!-- Node16&#45;&gt;Node15 -->
<g id="edge20_Node000015_Node000016" class="edge">
<title>Node16&#45;&gt;Node15</title>
<g id="a_edge20_Node000015_Node000016"><a xlink:title=" ">
<path fill="none" stroke="#9a32cd" stroke-dasharray="5,2" d="M160.91,-600.52C169.83,-600.01 179.84,-599.52 189,-599.27 239.03,-597.89 296.52,-599.22 334.83,-600.52"/>
<polygon fill="#9a32cd" stroke="#9a32cd" points="160.48,-597.04 150.71,-601.14 160.9,-604.03 160.48,-597.04"/>
</a>
</g>
<text text-anchor="middle" x="232.5" y="-624.27" font-family="Helvetica,sans-Serif" font-size="10.00" fill="grey"> x</text>
<text text-anchor="middle" x="232.5" y="-613.27" font-family="Helvetica,sans-Serif" font-size="10.00" fill="grey">y</text>
<text text-anchor="middle" x="232.5" y="-602.27" font-family="Helvetica,sans-Serif" font-size="10.00" fill="grey">z</text>
</g>
<!-- Node17&#45;&gt;Node1 -->
<g id="edge23_Node000001_Node000017" class="edge">
<title>Node17&#45;&gt;Node1</title>
<g id="a_edge23_Node000001_Node000017"><a xlink:title=" ">
<path fill="none" stroke="#9a32cd" stroke-dasharray="5,2" d="M418.55,-680.94C465.08,-683.11 542.72,-679.1 588,-635.27 617.89,-606.33 633.33,-470.56 637.08,-432.95"/>
<polygon fill="#9a32cd" stroke="#9a32cd" points="418.73,-677.45 408.55,-680.36 418.33,-684.44 418.73,-677.45"/>
</a>
</g>
<text text-anchor="middle" x="535" y="-692.27" font-family="Helvetica,sans-Serif" font-size="10.00" fill="grey"> CloudList</text>
<text text-anchor="middle" x="535" y="-681.27" font-family="Helvetica,sans-Serif" font-size="10.00" fill="grey">Clouds</text>
</g>
<!-- Node18&#45;&gt;Node1 -->
<g id="edge25_Node000001_Node000018" class="edge">
<title>Node18&#45;&gt;Node1</title>
<g id="a_edge25_Node000001_Node000018"><a xlink:title=" ">
<path fill="none" stroke="#9a32cd" stroke-dasharray="5,2" d="M434.08,-209.27C480.49,-207.23 546.3,-212.21 588,-249.27 637.81,-293.53 639.41,-383.81 638.49,-413.54"/>
<polygon fill="#9a32cd" stroke="#9a32cd" points="433.69,-205.79 423.9,-209.84 434.08,-212.78 433.69,-205.79"/>
</a>
</g>
<text text-anchor="middle" x="535" y="-252.27" font-family="Helvetica,sans-Serif" font-size="10.00" fill="grey"> Skybox</text>
</g>
<!-- Node19 -->
<g id="Node000019" class="node">
<title>Node19</title>
<g id="a_Node000019"><a xlink:title=" ">
<polygon fill="white" stroke="#666666" points="426,-30.77 332,-30.77 332,-11.77 426,-11.77 426,-30.77"/>
<text text-anchor="middle" x="379" y="-18.77" font-family="Helvetica,sans-Serif" font-size="10.00">enum MusicSeq</text>
</a>
</g>
</g>
<!-- Node19&#45;&gt;Node1 -->
<g id="edge27_Node000001_Node000019" class="edge">
<title>Node19&#45;&gt;Node1</title>
<g id="a_edge27_Node000001_Node000019"><a xlink:title=" ">
<path fill="none" stroke="#9a32cd" stroke-dasharray="5,2" d="M421.28,-9.33C468.03,1.41 543.47,9.88 588,-31.27 617.1,-58.16 634.39,-355.7 637.5,-413.55"/>
<polygon fill="#9a32cd" stroke="#9a32cd" points="420.37,-5.95 411.47,-11.71 422.02,-12.75 420.37,-5.95"/>
</a>
</g>
<text text-anchor="middle" x="535" y="-34.27" font-family="Helvetica,sans-Serif" font-size="10.00" fill="grey"> Sequence</text>
</g>
</g>
</svg>
