<?xml version="1.0" encoding="UTF-8" standalone="no"?>
<!DOCTYPE svg PUBLIC "-//W3C//DTD SVG 1.1//EN"
 "http://www.w3.org/Graphics/SVG/1.1/DTD/svg11.dtd">
<!-- Generated by graphviz version 2.43.0 (0)
 -->
<!-- Title: Camera Pages: 1 -->
<svg width="850pt" height="316pt"
 viewBox="0.00 0.00 849.91 316.00" xmlns="http://www.w3.org/2000/svg" xmlns:xlink="http://www.w3.org/1999/xlink">
<g id="graph0" class="graph" transform="scale(1 1) rotate(0) translate(4 312)">
<title>Camera</title>
<!-- Node1 -->
<g id="Node000001" class="node">
<title>Node1</title>
<g id="a_Node000001"><a xlink:title=" ">
<polygon fill="#999999" stroke="#666666" points="388.41,-19 333.41,-19 333.41,0 388.41,0 388.41,-19"/>
<text text-anchor="middle" x="360.91" y="-7" font-family="Helvetica,sans-Serif" font-size="10.00">Camera</text>
</a>
</g>
</g>
<!-- Node2 -->
<g id="Node000002" class="node">
<title>Node2</title>
<g id="a_Node000002"><a xlink:title=" ">
<polygon fill="white" stroke="#666666" points="82.91,-308 50.91,-308 50.91,-289 82.91,-289 82.91,-308"/>
<text text-anchor="middle" x="66.91" y="-296" font-family="Helvetica,sans-Serif" font-size="10.00">f32</text>
</a>
</g>
</g>
<!-- Node2&#45;&gt;Node1 -->
<g id="edge1_Node000001_Node000002" class="edge">
<title>Node2&#45;&gt;Node1</title>
<g id="a_edge1_Node000001_Node000002"><a xlink:title=" ">
<path fill="none" stroke="#9a32cd" stroke-dasharray="5,2" d="M53.44,-280.52C28.31,-246.63 -20.51,-168.84 9.91,-110 35.68,-60.16 60.43,-56.85 112.91,-37 152.7,-21.95 277.52,-14.39 333.4,-11.69"/>
<polygon fill="#9a32cd" stroke="#9a32cd" points="50.96,-283.04 59.81,-288.86 56.52,-278.78 50.96,-283.04"/>
</a>
</g>
<text text-anchor="middle" x="28.41" y="-179" font-family="Helvetica,sans-Serif" font-size="10.00" fill="grey"> lookAt</text>
<text text-anchor="middle" x="28.41" y="-168" font-family="Helvetica,sans-Serif" font-size="10.00" fill="grey">pos</text>
<text text-anchor="middle" x="28.41" y="-157" font-family="Helvetica,sans-Serif" font-size="10.00" fill="grey">unk_30</text>
<text text-anchor="middle" x="28.41" y="-146" font-family="Helvetica,sans-Serif" font-size="10.00" fill="grey">unk_3C</text>
<text text-anchor="middle" x="28.41" y="-135" font-family="Helvetica,sans-Serif" font-size="10.00" fill="grey">unk_A0</text>
<text text-anchor="middle" x="28.41" y="-124" font-family="Helvetica,sans-Serif" font-size="10.00" fill="grey">unk_B4</text>
<text text-anchor="middle" x="28.41" y="-113" font-family="Helvetica,sans-Serif" font-size="10.00" fill="grey">up</text>
</g>
<!-- Node6 -->
<g id="Node000006" class="node">
<title>Node6</title>
<g id="a_Node000006"><a xlink:href="structCollision.html" target="_top" xlink:title=" ">
<polygon fill="white" stroke="#666666" points="232.41,-158 173.41,-158 173.41,-139 232.41,-139 232.41,-158"/>
<text text-anchor="middle" x="202.91" y="-146" font-family="Helvetica,sans-Serif" font-size="10.00">Collision</text>
</a>
</g>
</g>
<!-- Node2&#45;&gt;Node6 -->
<g id="edge7_Node000006_Node000002" class="edge">
<title>Node2&#45;&gt;Node6</title>
<g id="a_edge7_Node000006_Node000002"><a xlink:title=" ">
<path fill="none" stroke="#9a32cd" stroke-dasharray="5,2" d="M89.51,-282.88C93.72,-279.38 97.78,-275.37 100.91,-271 119.01,-245.75 102.93,-227.91 123.91,-205 137.08,-190.63 147.76,-197.92 163.91,-187 176.21,-178.69 188.18,-166.35 195.55,-158.13"/>
<polygon fill="#9a32cd" stroke="#9a32cd" points="87.31,-280.15 81.41,-288.96 91.51,-285.75 87.31,-280.15"/>
</a>
</g>
<text text-anchor="middle" x="167.91" y="-257.5" font-family="Helvetica,sans-Serif" font-size="10.00" fill="grey"> orientationVector</text>
<text text-anchor="middle" x="167.91" y="-246.5" font-family="Helvetica,sans-Serif" font-size="10.00" fill="grey">surfaceDistance</text>
<text text-anchor="middle" x="167.91" y="-235.5" font-family="Helvetica,sans-Serif" font-size="10.00" fill="grey">unk48</text>
<text text-anchor="middle" x="167.91" y="-224.5" font-family="Helvetica,sans-Serif" font-size="10.00" fill="grey">unk54</text>
<text text-anchor="middle" x="167.91" y="-213.5" font-family="Helvetica,sans-Serif" font-size="10.00" fill="grey">unk6C</text>
</g>
<!-- Node7 -->
<g id="Node000007" class="node">
<title>Node7</title>
<g id="a_Node000007"><a xlink:href="structUnkCameraInner.html" target="_top" xlink:title=" ">
<polygon fill="white" stroke="#666666" points="155.41,-158 56.41,-158 56.41,-139 155.41,-139 155.41,-158"/>
<text text-anchor="middle" x="105.91" y="-146" font-family="Helvetica,sans-Serif" font-size="10.00">UnkCameraInner</text>
</a>
</g>
</g>
<!-- Node2&#45;&gt;Node7 -->
<g id="edge9_Node000007_Node000002" class="edge">
<title>Node2&#45;&gt;Node7</title>
<g id="a_edge9_Node000007_Node000002"><a xlink:title=" ">
<path fill="none" stroke="#9a32cd" stroke-dasharray="5,2" d="M63.99,-278.78C61.73,-259.73 60.15,-229.59 67.91,-205 73.81,-186.29 88.33,-168.24 97.62,-158.03"/>
<polygon fill="#9a32cd" stroke="#9a32cd" points="60.54,-279.39 65.37,-288.82 67.48,-278.44 60.54,-279.39"/>
</a>
</g>
<text text-anchor="middle" x="84.41" y="-235.5" font-family="Helvetica,sans-Serif" font-size="10.00" fill="grey"> unk_0</text>
</g>
<!-- Node3 -->
<g id="Node000003" class="node">
<title>Node3</title>
<g id="a_Node000003"><a xlink:title=" ">
<polygon fill="white" stroke="#666666" points="274.91,-308 240.91,-308 240.91,-289 274.91,-289 274.91,-308"/>
<text text-anchor="middle" x="257.91" y="-296" font-family="Helvetica,sans-Serif" font-size="10.00">s16</text>
</a>
</g>
</g>
<!-- Node3&#45;&gt;Node1 -->
<g id="edge2_Node000001_Node000003" class="edge">
<title>Node3&#45;&gt;Node1</title>
<g id="a_edge2_Node000001_Node000003"><a xlink:title=" ">
<path fill="none" stroke="#9a32cd" stroke-dasharray="5,2" d="M264.84,-279.27C265.88,-276.5 266.93,-273.68 267.91,-271 304.16,-172.28 346.45,-51.82 357.92,-19.07"/>
<polygon fill="#9a32cd" stroke="#9a32cd" points="261.54,-278.09 261.28,-288.68 268.09,-280.56 261.54,-278.09"/>
</a>
</g>
<text text-anchor="middle" x="346.41" y="-179" font-family="Helvetica,sans-Serif" font-size="10.00" fill="grey"> playerId</text>
<text text-anchor="middle" x="346.41" y="-168" font-family="Helvetica,sans-Serif" font-size="10.00" fill="grey">rot</text>
<text text-anchor="middle" x="346.41" y="-157" font-family="Helvetica,sans-Serif" font-size="10.00" fill="grey">unk_2C</text>
<text text-anchor="middle" x="346.41" y="-146" font-family="Helvetica,sans-Serif" font-size="10.00" fill="grey">unk_2E</text>
<text text-anchor="middle" x="346.41" y="-135" font-family="Helvetica,sans-Serif" font-size="10.00" fill="grey">unk_AC</text>
<text text-anchor="middle" x="346.41" y="-124" font-family="Helvetica,sans-Serif" font-size="10.00" fill="grey">unk_B0</text>
<text text-anchor="middle" x="346.41" y="-113" font-family="Helvetica,sans-Serif" font-size="10.00" fill="grey">unk_B2</text>
</g>
<!-- Node3&#45;&gt;Node7 -->
<g id="edge10_Node000007_Node000003" class="edge">
<title>Node3&#45;&gt;Node7</title>
<g id="a_edge10_Node000007_Node000003"><a xlink:title=" ">
<path fill="none" stroke="#9a32cd" stroke-dasharray="5,2" d="M242.03,-281.11C239.42,-277.91 236.92,-274.47 234.91,-271 219.34,-244.12 233.62,-227.22 211.91,-205 195.99,-188.7 184.26,-197.24 163.91,-187 146.99,-178.48 128.86,-166.19 117.46,-158.03"/>
<polygon fill="#9a32cd" stroke="#9a32cd" points="239.64,-283.69 248.89,-288.84 244.87,-279.04 239.64,-283.69"/>
</a>
</g>
<text text-anchor="middle" x="251.41" y="-246.5" font-family="Helvetica,sans-Serif" font-size="10.00" fill="grey"> unk_4</text>
<text text-anchor="middle" x="251.41" y="-235.5" font-family="Helvetica,sans-Serif" font-size="10.00" fill="grey">unk_6</text>
<text text-anchor="middle" x="251.41" y="-224.5" font-family="Helvetica,sans-Serif" font-size="10.00" fill="grey">unk_8</text>
</g>
<!-- Node4 -->
<g id="Node000004" class="node">
<title>Node4</title>
<g id="a_Node000004"><a xlink:title=" ">
<polygon fill="white" stroke="#666666" points="374.41,-308 339.41,-308 339.41,-289 374.41,-289 374.41,-308"/>
<text text-anchor="middle" x="356.91" y="-296" font-family="Helvetica,sans-Serif" font-size="10.00">u16</text>
</a>
</g>
</g>
<!-- Node4&#45;&gt;Node1 -->
<g id="edge3_Node000001_Node000004" class="edge">
<title>Node4&#45;&gt;Node1</title>
<g id="a_edge3_Node000001_Node000004"><a xlink:title=" ">
<path fill="none" stroke="#9a32cd" stroke-dasharray="5,2" d="M378.23,-282.07C381.35,-278.79 384.12,-275.07 385.91,-271 426.23,-179.54 378.79,-52.89 364.65,-19.08"/>
<polygon fill="#9a32cd" stroke="#9a32cd" points="375.72,-279.62 370.58,-288.89 380.37,-284.85 375.72,-279.62"/>
</a>
</g>
<text text-anchor="middle" x="435.91" y="-146" font-family="Helvetica,sans-Serif" font-size="10.00" fill="grey"> someBitFlags</text>
</g>
<!-- Node4&#45;&gt;Node6 -->
<g id="edge6_Node000006_Node000004" class="edge">
<title>Node4&#45;&gt;Node6</title>
<g id="a_edge6_Node000006_Node000004"><a xlink:title=" ">
<path fill="none" stroke="#9a32cd" stroke-dasharray="5,2" d="M331.72,-283.53C326.18,-279.85 320.59,-275.61 315.91,-271 290.81,-246.25 297.43,-229.33 271.91,-205 260.66,-194.27 254.26,-196.45 241.91,-187 230.27,-178.1 218.34,-166.12 210.79,-158.12"/>
<polygon fill="#9a32cd" stroke="#9a32cd" points="329.88,-286.51 340.22,-288.82 333.58,-280.57 329.88,-286.51"/>
</a>
</g>
<text text-anchor="middle" x="350.91" y="-263" font-family="Helvetica,sans-Serif" font-size="10.00" fill="grey"> meshIndexYX</text>
<text text-anchor="middle" x="350.91" y="-252" font-family="Helvetica,sans-Serif" font-size="10.00" fill="grey">meshIndexZX</text>
<text text-anchor="middle" x="350.91" y="-241" font-family="Helvetica,sans-Serif" font-size="10.00" fill="grey">meshIndexZY</text>
<text text-anchor="middle" x="350.91" y="-230" font-family="Helvetica,sans-Serif" font-size="10.00" fill="grey">unk30</text>
<text text-anchor="middle" x="350.91" y="-219" font-family="Helvetica,sans-Serif" font-size="10.00" fill="grey">unk32</text>
<text text-anchor="middle" x="350.91" y="-208" font-family="Helvetica,sans-Serif" font-size="10.00" fill="grey">unk34</text>
</g>
<!-- Node5 -->
<g id="Node000005" class="node">
<title>Node5</title>
<g id="a_Node000005"><a xlink:title=" ">
<polygon fill="white" stroke="#666666" points="284.91,-158 250.91,-158 250.91,-139 284.91,-139 284.91,-158"/>
<text text-anchor="middle" x="267.91" y="-146" font-family="Helvetica,sans-Serif" font-size="10.00">s32</text>
</a>
</g>
</g>
<!-- Node5&#45;&gt;Node1 -->
<g id="edge4_Node000001_Node000005" class="edge">
<title>Node5&#45;&gt;Node1</title>
<g id="a_edge4_Node000001_Node000005"><a xlink:title=" ">
<path fill="none" stroke="#9a32cd" stroke-dasharray="5,2" d="M261.98,-129.09C255.54,-105.26 248.67,-63.64 268.91,-37 283.69,-17.54 311.83,-11.69 333.12,-10.24"/>
<polygon fill="#9a32cd" stroke="#9a32cd" points="258.7,-130.35 264.9,-138.94 265.41,-128.36 258.7,-130.35"/>
</a>
</g>
<text text-anchor="middle" x="288.41" y="-84" font-family="Helvetica,sans-Serif" font-size="10.00" fill="grey"> unk_48</text>
<text text-anchor="middle" x="288.41" y="-73" font-family="Helvetica,sans-Serif" font-size="10.00" fill="grey">unk_4C</text>
<text text-anchor="middle" x="288.41" y="-62" font-family="Helvetica,sans-Serif" font-size="10.00" fill="grey">unk_50</text>
<text text-anchor="middle" x="288.41" y="-51" font-family="Helvetica,sans-Serif" font-size="10.00" fill="grey">unk_A4</text>
<text text-anchor="middle" x="288.41" y="-40" font-family="Helvetica,sans-Serif" font-size="10.00" fill="grey">unk_A8</text>
</g>
<!-- Node6&#45;&gt;Node1 -->
<g id="edge5_Node000001_Node000006" class="edge">
<title>Node6&#45;&gt;Node1</title>
<g id="a_edge5_Node000001_Node000006"><a xlink:title=" ">
<path fill="none" stroke="#9a32cd" stroke-dasharray="5,2" d="M197.44,-128.96C191.53,-104.68 185.67,-62.24 207.91,-37 224.04,-18.69 293.85,-13.03 333.36,-11.28"/>
<polygon fill="#9a32cd" stroke="#9a32cd" points="194.09,-129.96 200.06,-138.71 200.85,-128.14 194.09,-129.96"/>
</a>
</g>
<text text-anchor="middle" x="229.91" y="-62" font-family="Helvetica,sans-Serif" font-size="10.00" fill="grey"> collision</text>
</g>
<!-- Node7&#45;&gt;Node1 -->
<g id="edge8_Node000001_Node000007" class="edge">
<title>Node7&#45;&gt;Node1</title>
<g id="a_edge8_Node000001_Node000007"><a xlink:title=" ">
<path fill="none" stroke="#9a32cd" stroke-dasharray="5,2" d="M107.64,-128.77C111.05,-103.58 121.02,-59.35 149.91,-37 177.95,-15.31 282.62,-11.25 333.2,-10.57"/>
<polygon fill="#9a32cd" stroke="#9a32cd" points="104.15,-128.53 106.5,-138.86 111.1,-129.32 104.15,-128.53"/>
</a>
</g>
<text text-anchor="middle" x="169.41" y="-62" font-family="Helvetica,sans-Serif" font-size="10.00" fill="grey"> unk_94</text>
</g>
<!-- Node8 -->
<g id="Node000008" class="node">
<title>Node8</title>
<g id="a_Node000008"><a xlink:title=" ">
<polygon fill="white" stroke="#666666" points="533.41,-158 488.41,-158 488.41,-139 533.41,-139 533.41,-158"/>
<text text-anchor="middle" x="510.91" y="-146" font-family="Helvetica,sans-Serif" font-size="10.00">size_t</text>
</a>
</g>
</g>
<!-- Node8&#45;&gt;Node1 -->
<g id="edge11_Node000001_Node000008" class="edge">
<title>Node8&#45;&gt;Node1</title>
<g id="a_edge11_Node000001_Node000008"><a xlink:title=" ">
<path fill="none" stroke="#9a32cd" stroke-dasharray="5,2" d="M499.25,-130.49C482.53,-107.07 449.78,-64.66 413.91,-37 404.46,-29.71 392.69,-23.59 382.65,-19.07"/>
<polygon fill="#9a32cd" stroke="#9a32cd" points="496.42,-132.55 505.03,-138.73 502.15,-128.53 496.42,-132.55"/>
</a>
</g>
<text text-anchor="middle" x="492.41" y="-62" font-family="Helvetica,sans-Serif" font-size="10.00" fill="grey"> cameraId</text>
</g>
<!-- Node9 -->
<g id="Node000009" class="node">
<title>Node9</title>
<g id="a_Node000009"><a xlink:title=" ">
<polygon fill="white" stroke="#666666" points="601.91,-158 551.91,-158 551.91,-139 601.91,-139 601.91,-158"/>
<text text-anchor="middle" x="576.91" y="-146" font-family="Helvetica,sans-Serif" font-size="10.00">int32_t</text>
</a>
</g>
</g>
<!-- Node9&#45;&gt;Node1 -->
<g id="edge12_Node000001_Node000009" class="edge">
<title>Node9&#45;&gt;Node1</title>
<g id="a_edge12_Node000001_Node000009"><a xlink:title=" ">
<path fill="none" stroke="#9a32cd" stroke-dasharray="5,2" d="M572.96,-128.82C566.61,-103.67 551.59,-59.51 520.91,-37 500.31,-21.89 428.49,-14.88 388.44,-12.09"/>
<polygon fill="#9a32cd" stroke="#9a32cd" points="569.63,-129.94 575.3,-138.89 576.45,-128.35 569.63,-129.94"/>
</a>
</g>
<text text-anchor="middle" x="574.41" y="-62" font-family="Helvetica,sans-Serif" font-size="10.00" fill="grey"> mode</text>
</g>
<!-- Node10 -->
<g id="Node000010" class="node">
<title>Node10</title>
<g id="a_Node000010"><a xlink:title=" ">
<polygon fill="white" stroke="#666666" points="729.41,-158 620.41,-158 620.41,-139 729.41,-139 729.41,-158"/>
<text text-anchor="middle" x="674.91" y="-146" font-family="Helvetica,sans-Serif" font-size="10.00">enum RenderMode</text>
</a>
</g>
</g>
<!-- Node10&#45;&gt;Node1 -->
<g id="edge13_Node000001_Node000010" class="edge">
<title>Node10&#45;&gt;Node1</title>
<g id="a_edge13_Node000001_Node000010"><a xlink:title=" ">
<path fill="none" stroke="#9a32cd" stroke-dasharray="5,2" d="M667.39,-129.45C655.75,-104.03 630.8,-58.4 593.91,-37 559.58,-17.08 442.36,-12.13 388.45,-10.9"/>
<polygon fill="#9a32cd" stroke="#9a32cd" points="664.22,-130.93 671.44,-138.69 670.63,-128.12 664.22,-130.93"/>
</a>
</g>
<text text-anchor="middle" x="675.91" y="-62" font-family="Helvetica,sans-Serif" font-size="10.00" fill="grey"> renderMode</text>
</g>
<!-- Node11 -->
<g id="Node000011" class="node">
<title>Node11</title>
<g id="a_Node000011"><a xlink:title=" ">
<polygon fill="white" stroke="#666666" points="791.91,-158 747.91,-158 747.91,-139 791.91,-139 791.91,-158"/>
<text text-anchor="middle" x="769.91" y="-146" font-family="Helvetica,sans-Serif" font-size="10.00">Mtx *</text>
</a>
</g>
</g>
<!-- Node11&#45;&gt;Node1 -->
<g id="edge14_Node000001_Node000011" class="edge">
<title>Node11&#45;&gt;Node1</title>
<g id="a_edge14_Node000001_Node000011"><a xlink:title=" ">
<path fill="none" stroke="#9a32cd" stroke-dasharray="5,2" d="M765.91,-129.11C759.3,-103.6 743.44,-58.22 710.91,-37 684.15,-19.54 466.28,-12.9 388.43,-11.07"/>
<polygon fill="#9a32cd" stroke="#9a32cd" points="762.54,-130.07 768.27,-138.99 769.35,-128.45 762.54,-130.07"/>
</a>
</g>
<text text-anchor="middle" x="797.41" y="-67.5" font-family="Helvetica,sans-Serif" font-size="10.00" fill="grey"> lookAtMatrix</text>
<text text-anchor="middle" x="797.41" y="-56.5" font-family="Helvetica,sans-Serif" font-size="10.00" fill="grey">perspectiveMatrix</text>
</g>
</g>
</svg>
