<?xml version="1.0" encoding="UTF-8" standalone="no"?>
<!DOCTYPE svg PUBLIC "-//W3C//DTD SVG 1.1//EN"
 "http://www.w3.org/Graphics/SVG/1.1/DTD/svg11.dtd">
<!-- Generated by graphviz version 2.43.0 (0)
 -->
<!-- Title: src/textures.h Pages: 1 -->
<!--zoomable 258 -->

<svg id="main" version="1.1" xmlns="http://www.w3.org/2000/svg" xmlns:xlink="http://www.w3.org/1999/xlink" xml:space="preserve" onload="init(evt)">

<style type="text/css"><![CDATA[
.node, .edge {opacity: 0.7;}
.node.selected, .edge.selected {opacity: 1;}
.edge:hover path { stroke: red; }
.edge:hover polygon { stroke: red; fill: red; }
]]></style>

<defs>
  <circle id="rim" cx="0" cy="0" r="7"/>
  <circle id="rim2" cx="0" cy="0" r="3.5"/>
  <g id="zoomPlus">
    <use xlink:href="#rim" fill="#404040"><set attributeName="fill" to="#808080" begin="zoomplus.mouseover" end="zoomplus.mouseout"/></use>
    <path d="M-4,0h8M0,-4v8" fill="none" stroke="white" stroke-width="1.5" pointer-events="none"/>
  </g>
  <g id="zoomMin">
    <use xlink:href="#rim" fill="#404040"><set attributeName="fill" to="#808080" begin="zoomminus.mouseover" end="zoomminus.mouseout"/></use>
    <path d="M-4,0h8" fill="none" stroke="white" stroke-width="1.5" pointer-events="none"/>
  </g>
  <g id="arrowUp" transform="translate(30 24)">
    <use xlink:href="#rim"/>
    <path pointer-events="none" fill="none" stroke="white" stroke-width="1.5" d="M0,-3.0v7 M-2.5,-0.5L0,-3.0L2.5,-0.5"/>
  </g>
  <g id="arrowRight" transform="rotate(90) translate(36 -43)">
    <use xlink:href="#rim"/>
    <path pointer-events="none" fill="none" stroke="white" stroke-width="1.5" d="M0,-3.0v7 M-2.5,-0.5L0,-3.0L2.5,-0.5"/>
  </g>
  <g id="arrowDown" transform="rotate(180) translate(-30 -48)">
    <use xlink:href="#rim"/>
    <path pointer-events="none" fill="none" stroke="white" stroke-width="1.5" d="M0,-3.0v7 M-2.5,-0.5L0,-3.0L2.5,-0.5"/>
  </g>
  <g id="arrowLeft" transform="rotate(270) translate(-36 17)">
    <use xlink:href="#rim"/>
    <path pointer-events="none" fill="none" stroke="white" stroke-width="1.5" d="M0,-3.0v7 M-2.5,-0.5L0,-3.0L2.5,-0.5"/>
  </g>
  <g id="resetDef">
    <use xlink:href="#rim2" fill="#404040"><set attributeName="fill" to="#808080" begin="reset.mouseover" end="reset.mouseout"/></use>
  </g>
</defs>
<script type="application/ecmascript">
var viewWidth = 3892;
var viewHeight = 258;
var sectionId = 'dynsection-1';
</script>
<script type="application/ecmascript" xlink:href="svg.min.js"/>
<svg id="graph" class="graph">
<g id="viewport">
<title>src/textures.h</title>
<!-- Node1 -->
<g id="Node000001" class="node">
<title>Node1</title>
<g id="a_Node000001"><a xlink:title=" ">
<polygon fill="#999999" stroke="#666666" points="808.5,-250 725.5,-250 725.5,-231 808.5,-231 808.5,-250"/>
<text text-anchor="middle" x="767" y="-238" font-family="Helvetica,sans-Serif" font-size="10.00">src/textures.h</text>
</a>
</g>
</g>
<!-- Node2 -->
<g id="Node000002" class="node">
<title>Node2</title>
<g id="a_Node000002"><a xlink:href="textures_8c.html" target="_top" xlink:title="Texture data. start in ram 0x801978D0 look like link to menu_items.">
<polygon fill="white" stroke="#666666" points="523.5,-195 416.5,-195 416.5,-176 523.5,-176 523.5,-195"/>
<text text-anchor="middle" x="470" y="-183" font-family="Helvetica,sans-Serif" font-size="10.00">src/data/textures.c</text>
</a>
</g>
</g>
<!-- Node1&#45;&gt;Node2 -->
<g id="edge1_Node000001_Node000002" class="edge">
<title>Node1&#45;&gt;Node2</title>
<g id="a_edge1_Node000001_Node000002"><a xlink:title=" ">
<path fill="none" stroke="#63b8ff" d="M715.39,-230.29C659.72,-220.36 571.82,-204.67 517.71,-195.01"/>
<polygon fill="#63b8ff" stroke="#63b8ff" points="714.93,-233.76 725.39,-232.07 716.16,-226.87 714.93,-233.76"/>
</a>
</g>
</g>
<!-- Node3 -->
<g id="Node000003" class="node">
<title>Node3</title>
<g id="a_Node000003"><a xlink:href="all__variables_8h.html" target="_top" xlink:title=" ">
<polygon fill="white" stroke="#666666" points="836,-134.5 698,-134.5 698,-115.5 836,-115.5 836,-134.5"/>
<text text-anchor="middle" x="767" y="-122.5" font-family="Helvetica,sans-Serif" font-size="10.00">src/debug/all_variables.h</text>
</a>
</g>
</g>
<!-- Node1&#45;&gt;Node3 -->
<g id="edge2_Node000001_Node000003" class="edge">
<title>Node1&#45;&gt;Node3</title>
<g id="a_edge2_Node000001_Node000003"><a xlink:title=" ">
<path fill="none" stroke="#63b8ff" d="M767,-220.65C767,-195.74 767,-152.88 767,-134.63"/>
<polygon fill="#63b8ff" stroke="#63b8ff" points="763.5,-220.97 767,-230.97 770.5,-220.97 763.5,-220.97"/>
</a>
</g>
</g>
<!-- Node6 -->
<g id="Node000006" class="node">
<title>Node6</title>
<g id="a_Node000006"><a xlink:href="Text_8h.html" target="_top" xlink:title=" ">
<polygon fill="white" stroke="#666666" points="674,-195 542,-195 542,-176 674,-176 674,-195"/>
<text text-anchor="middle" x="608" y="-183" font-family="Helvetica,sans-Serif" font-size="10.00">src/engine/actors/Text.h</text>
</a>
</g>
</g>
<!-- Node1&#45;&gt;Node6 -->
<g id="edge5_Node000001_Node000006" class="edge">
<title>Node1&#45;&gt;Node6</title>
<g id="a_edge5_Node000001_Node000006"><a xlink:title=" ">
<path fill="none" stroke="#63b8ff" d="M731.9,-227.8C702.22,-217.91 660.4,-203.97 633.75,-195.08"/>
<polygon fill="#63b8ff" stroke="#63b8ff" points="730.86,-231.14 741.45,-230.98 733.07,-224.5 730.86,-231.14"/>
</a>
</g>
</g>
<!-- Node15 -->
<g id="Node000015" class="node">
<title>Node15</title>
<g id="a_Node000015"><a xlink:href="menu__items_8c.html" target="_top" xlink:title=" ">
<polygon fill="white" stroke="#666666" points="957.5,-134.5 854.5,-134.5 854.5,-115.5 957.5,-115.5 957.5,-134.5"/>
<text text-anchor="middle" x="906" y="-122.5" font-family="Helvetica,sans-Serif" font-size="10.00">src/menu_items.c</text>
</a>
</g>
</g>
<!-- Node1&#45;&gt;Node15 -->
<g id="edge15_Node000001_Node000015" class="edge">
<title>Node1&#45;&gt;Node15</title>
<g id="a_edge15_Node000001_Node000015"><a xlink:title=" ">
<path fill="none" stroke="#63b8ff" d="M785.31,-224.55C814.8,-200.47 871.87,-153.87 895.43,-134.63"/>
<polygon fill="#63b8ff" stroke="#63b8ff" points="782.98,-221.93 777.45,-230.97 787.41,-227.36 782.98,-221.93"/>
</a>
</g>
</g>
<!-- Node16 -->
<g id="Node000016" class="node">
<title>Node16</title>
<g id="a_Node000016"><a xlink:href="menu__items_8h.html" target="_top" xlink:title=" ">
<polygon fill="white" stroke="#666666" points="2153,-195 2049,-195 2049,-176 2153,-176 2153,-195"/>
<text text-anchor="middle" x="2101" y="-183" font-family="Helvetica,sans-Serif" font-size="10.00">src/menu_items.h</text>
</a>
</g>
</g>
<!-- Node1&#45;&gt;Node16 -->
<g id="edge16_Node000001_Node000016" class="edge">
<title>Node1&#45;&gt;Node16</title>
<g id="a_edge16_Node000001_Node000016"><a xlink:title=" ">
<path fill="none" stroke="#63b8ff" d="M819.03,-237.43C1031.89,-228.98 1835.26,-197.06 2048.68,-188.58"/>
<polygon fill="#63b8ff" stroke="#63b8ff" points="818.61,-233.95 808.76,-237.84 818.89,-240.94 818.61,-233.95"/>
</a>
</g>
</g>
<!-- Node4 -->
<g id="Node000004" class="node">
<title>Node4</title>
<g id="a_Node000004"><a xlink:href="debug_8inc_8c.html" target="_top" xlink:title=" ">
<polygon fill="white" stroke="#666666" points="828,-74 706,-74 706,-55 828,-55 828,-74"/>
<text text-anchor="middle" x="767" y="-62" font-family="Helvetica,sans-Serif" font-size="10.00">src/debug/debug.inc.c</text>
</a>
</g>
</g>
<!-- Node3&#45;&gt;Node4 -->
<g id="edge3_Node000003_Node000004" class="edge">
<title>Node3&#45;&gt;Node4</title>
<g id="a_edge3_Node000003_Node000004"><a xlink:title=" ">
<path fill="none" stroke="#63b8ff" d="M767,-105.16C767,-94.74 767,-82.3 767,-74.17"/>
<polygon fill="#63b8ff" stroke="#63b8ff" points="763.5,-105.37 767,-115.37 770.5,-105.37 763.5,-105.37"/>
</a>
</g>
</g>
<!-- Node5 -->
<g id="Node000005" class="node">
<title>Node5</title>
<g id="a_Node000005"><a xlink:href="debug_8c.html" target="_top" xlink:title=" ">
<polygon fill="white" stroke="#666666" points="819.5,-19 714.5,-19 714.5,0 819.5,0 819.5,-19"/>
<text text-anchor="middle" x="767" y="-7" font-family="Helvetica,sans-Serif" font-size="10.00">src/debug/debug.c</text>
</a>
</g>
</g>
<!-- Node4&#45;&gt;Node5 -->
<g id="edge4_Node000004_Node000005" class="edge">
<title>Node4&#45;&gt;Node5</title>
<g id="a_edge4_Node000004_Node000005"><a xlink:title=" ">
<path fill="none" stroke="#63b8ff" d="M767,-44.66C767,-35.93 767,-25.99 767,-19.09"/>
<polygon fill="#63b8ff" stroke="#63b8ff" points="763.5,-44.75 767,-54.75 770.5,-44.75 763.5,-44.75"/>
</a>
</g>
</g>
<!-- Node7 -->
<g id="Node000007" class="node">
<title>Node7</title>
<g id="a_Node000007"><a xlink:href="AllActors_8h.html" target="_top" xlink:title=" ">
<polygon fill="white" stroke="#666666" points="368,-134.5 246,-134.5 246,-115.5 368,-115.5 368,-134.5"/>
<text text-anchor="middle" x="307" y="-122.5" font-family="Helvetica,sans-Serif" font-size="10.00">src/engine/AllActors.h</text>
</a>
</g>
</g>
<!-- Node6&#45;&gt;Node7 -->
<g id="edge6_Node000006_Node000007" class="edge">
<title>Node6&#45;&gt;Node7</title>
<g id="a_edge6_Node000006_Node000007"><a xlink:title=" ">
<path fill="none" stroke="#63b8ff" d="M553.33,-174.08C506.51,-165.13 437.3,-151.84 377,-140 368.12,-138.26 358.62,-136.37 349.56,-134.56"/>
<polygon fill="#63b8ff" stroke="#63b8ff" points="552.79,-177.54 563.27,-175.98 554.1,-170.67 552.79,-177.54"/>
</a>
</g>
</g>
<!-- Node13 -->
<g id="Node000013" class="node">
<title>Node13</title>
<g id="a_Node000013"><a xlink:href="Rulesets_8cpp.html" target="_top" xlink:title=" ">
<polygon fill="white" stroke="#666666" points="518,-134.5 386,-134.5 386,-115.5 518,-115.5 518,-134.5"/>
<text text-anchor="middle" x="452" y="-122.5" font-family="Helvetica,sans-Serif" font-size="10.00">src/engine/Rulesets.cpp</text>
</a>
</g>
</g>
<!-- Node6&#45;&gt;Node13 -->
<g id="edge13_Node000006_Node000013" class="edge">
<title>Node6&#45;&gt;Node13</title>
<g id="a_edge13_Node000006_Node000013"><a xlink:title=" ">
<path fill="none" stroke="#63b8ff" d="M575.67,-172.38C545.52,-161.07 501.3,-144.49 474.71,-134.52"/>
<polygon fill="#63b8ff" stroke="#63b8ff" points="574.72,-175.76 585.32,-175.99 577.18,-169.21 574.72,-175.76"/>
</a>
</g>
</g>
<!-- Node14 -->
<g id="Node000014" class="node">
<title>Node14</title>
<g id="a_Node000014"><a xlink:href="Text_8cpp.html" target="_top" xlink:title=" ">
<polygon fill="white" stroke="#666666" points="679.5,-134.5 536.5,-134.5 536.5,-115.5 679.5,-115.5 679.5,-134.5"/>
<text text-anchor="middle" x="608" y="-122.5" font-family="Helvetica,sans-Serif" font-size="10.00">src/engine/actors/Text.cpp</text>
</a>
</g>
</g>
<!-- Node6&#45;&gt;Node14 -->
<g id="edge14_Node000006_Node000014" class="edge">
<title>Node6&#45;&gt;Node14</title>
<g id="a_edge14_Node000006_Node000014"><a xlink:title=" ">
<path fill="none" stroke="#63b8ff" d="M608,-165.66C608,-155.24 608,-142.8 608,-134.67"/>
<polygon fill="#63b8ff" stroke="#63b8ff" points="604.5,-165.87 608,-175.87 611.5,-165.87 604.5,-165.87"/>
</a>
</g>
</g>
<!-- Node8 -->
<g id="Node000008" class="node">
<title>Node8</title>
<g id="a_Node000008"><a xlink:href="RaceManager_8cpp.html" target="_top" xlink:title=" ">
<polygon fill="white" stroke="#666666" points="441,-74 285,-74 285,-55 441,-55 441,-74"/>
<text text-anchor="middle" x="363" y="-62" font-family="Helvetica,sans-Serif" font-size="10.00">src/engine/RaceManager.cpp</text>
</a>
</g>
</g>
<!-- Node7&#45;&gt;Node8 -->
<g id="edge7_Node000007_Node000008" class="edge">
<title>Node7&#45;&gt;Node8</title>
<g id="a_edge7_Node000007_Node000008"><a xlink:title=" ">
<path fill="none" stroke="#63b8ff" d="M322.23,-108.09C332.69,-97.17 346.17,-83.08 354.7,-74.17"/>
<polygon fill="#63b8ff" stroke="#63b8ff" points="319.65,-105.72 315.26,-115.37 324.71,-110.56 319.65,-105.72"/>
</a>
</g>
</g>
<!-- Node9 -->
<g id="Node000009" class="node">
<title>Node9</title>
<g id="a_Node000009"><a xlink:href="RegisteredActors_8cpp.html" target="_top" xlink:title=" ">
<polygon fill="white" stroke="#666666" points="632.5,-74 459.5,-74 459.5,-55 632.5,-55 632.5,-74"/>
<text text-anchor="middle" x="546" y="-62" font-family="Helvetica,sans-Serif" font-size="10.00">src/engine/RegisteredActors.cpp</text>
</a>
</g>
</g>
<!-- Node7&#45;&gt;Node9 -->
<g id="edge8_Node000007_Node000009" class="edge">
<title>Node7&#45;&gt;Node9</title>
<g id="a_edge8_Node000007_Node000009"><a xlink:title=" ">
<path fill="none" stroke="#63b8ff" d="M351.49,-113.11C397.68,-101.8 468.97,-84.35 511.21,-74.02"/>
<polygon fill="#63b8ff" stroke="#63b8ff" points="350.63,-109.72 341.75,-115.49 352.3,-116.52 350.63,-109.72"/>
</a>
</g>
</g>
<!-- Node10 -->
<g id="Node000010" class="node">
<title>Node10</title>
<g id="a_Node000010"><a xlink:href="ContentBrowser_8cpp.html" target="_top" xlink:title=" ">
<polygon fill="white" stroke="#666666" points="166,-19 0,-19 0,0 166,0 166,-19"/>
<text text-anchor="middle" x="83" y="-7" font-family="Helvetica,sans-Serif" font-size="10.00">src/port/ui/ContentBrowser.cpp</text>
</a>
</g>
</g>
<!-- Node7&#45;&gt;Node10 -->
<g id="edge9_Node000007_Node000010" class="edge">
<title>Node7&#45;&gt;Node10</title>
<g id="a_edge9_Node000007_Node000010"><a xlink:title=" ">
<path fill="none" stroke="#63b8ff" d="M235.74,-114.28C184.54,-105.92 121.27,-92.3 102,-74 86.65,-59.42 83.55,-32.99 83.02,-19.28"/>
<polygon fill="#63b8ff" stroke="#63b8ff" points="235.38,-117.77 245.81,-115.88 236.48,-110.85 235.38,-117.77"/>
</a>
</g>
</g>
<!-- Node11 -->
<g id="Node000011" class="node">
<title>Node11</title>
<g id="a_Node000011"><a xlink:href="ContentBrowser_8h.html" target="_top" xlink:title=" ">
<polygon fill="white" stroke="#666666" points="266.5,-74 111.5,-74 111.5,-55 266.5,-55 266.5,-74"/>
<text text-anchor="middle" x="189" y="-62" font-family="Helvetica,sans-Serif" font-size="10.00">src/port/ui/ContentBrowser.h</text>
</a>
</g>
</g>
<!-- Node7&#45;&gt;Node11 -->
<g id="edge10_Node000007_Node000011" class="edge">
<title>Node7&#45;&gt;Node11</title>
<g id="a_edge10_Node000007_Node000011"><a xlink:title=" ">
<path fill="none" stroke="#63b8ff" d="M280.74,-110.98C258,-99.71 225.76,-83.73 206.18,-74.02"/>
<polygon fill="#63b8ff" stroke="#63b8ff" points="279.33,-114.19 289.84,-115.49 282.44,-107.92 279.33,-114.19"/>
</a>
</g>
</g>
<!-- Node11&#45;&gt;Node10 -->
<g id="edge11_Node000011_Node000010" class="edge">
<title>Node11&#45;&gt;Node10</title>
<g id="a_edge11_Node000011_Node000010"><a xlink:title=" ">
<path fill="none" stroke="#63b8ff" d="M163,-50.5C143.5,-40.75 117.35,-27.68 100.34,-19.17"/>
<polygon fill="#63b8ff" stroke="#63b8ff" points="161.46,-53.64 171.97,-54.98 164.59,-47.38 161.46,-53.64"/>
</a>
</g>
</g>
<!-- Node12 -->
<g id="Node000012" class="node">
<title>Node12</title>
<g id="a_Node000012"><a xlink:href="ImguiUI_8cpp.html" target="_top" xlink:title=" ">
<polygon fill="white" stroke="#666666" points="311.5,-19 184.5,-19 184.5,0 311.5,0 311.5,-19"/>
<text text-anchor="middle" x="248" y="-7" font-family="Helvetica,sans-Serif" font-size="10.00">src/port/ui/ImguiUI.cpp</text>
</a>
</g>
</g>
<!-- Node11&#45;&gt;Node12 -->
<g id="edge12_Node000011_Node000012" class="edge">
<title>Node11&#45;&gt;Node12</title>
<g id="a_edge12_Node000011_Node000012"><a xlink:title=" ">
<path fill="none" stroke="#63b8ff" d="M206.2,-48.04C216.67,-38.64 229.65,-26.98 238.35,-19.17"/>
<polygon fill="#63b8ff" stroke="#63b8ff" points="203.58,-45.7 198.48,-54.98 208.26,-50.91 203.58,-45.7"/>
</a>
</g>
</g>
<!-- Node16&#45;&gt;Node3 -->
<g id="edge22_Node000016_Node000003" class="edge">
<title>Node16&#45;&gt;Node3</title>
<g id="a_edge22_Node000016_Node000003"><a xlink:title=" ">
<path fill="none" stroke="#63b8ff" d="M2038.67,-183.45C1818.95,-179.55 1081.16,-164.88 846,-140 833.81,-138.71 820.67,-136.65 808.66,-134.51"/>
<polygon fill="#63b8ff" stroke="#63b8ff" points="2038.67,-186.95 2048.73,-183.62 2038.8,-179.95 2038.67,-186.95"/>
</a>
</g>
</g>
<!-- Node16&#45;&gt;Node14 -->
<g id="edge29_Node000016_Node000014" class="edge">
<title>Node16&#45;&gt;Node14</title>
<g id="a_edge29_Node000016_Node000014"><a xlink:title=" ">
<path fill="none" stroke="#63b8ff" d="M2038.57,-183.69C1801.43,-180.45 956.48,-167.2 689,-140 676.51,-138.73 663.03,-136.68 650.72,-134.53"/>
<polygon fill="#63b8ff" stroke="#63b8ff" points="2038.69,-187.2 2048.74,-183.83 2038.78,-180.2 2038.69,-187.2"/>
</a>
</g>
</g>
<!-- Node16&#45;&gt;Node15 -->
<g id="edge32_Node000016_Node000015" class="edge">
<title>Node16&#45;&gt;Node15</title>
<g id="a_edge32_Node000016_Node000015"><a xlink:title=" ">
<path fill="none" stroke="#63b8ff" d="M2038.85,-183.59C1833.32,-180.33 1176.83,-167.95 967,-140 957.52,-138.74 947.35,-136.69 938.09,-134.54"/>
<polygon fill="#63b8ff" stroke="#63b8ff" points="2038.81,-187.09 2048.86,-183.74 2038.92,-180.09 2038.81,-187.09"/>
</a>
</g>
</g>
<!-- Node17 -->
<g id="Node000017" class="node">
<title>Node17</title>
<g id="a_Node000017"><a xlink:href="external_8c.html" target="_top" xlink:title=" ">
<polygon fill="white" stroke="#666666" points="1954.5,-134.5 1841.5,-134.5 1841.5,-115.5 1954.5,-115.5 1954.5,-134.5"/>
<text text-anchor="middle" x="1898" y="-122.5" font-family="Helvetica,sans-Serif" font-size="10.00">src/audio/external.c</text>
</a>
</g>
</g>
<!-- Node16&#45;&gt;Node17 -->
<g id="edge17_Node000016_Node000017" class="edge">
<title>Node16&#45;&gt;Node17</title>
<g id="a_edge17_Node000016_Node000017"><a xlink:title=" ">
<path fill="none" stroke="#63b8ff" d="M2061.72,-173.18C2022.46,-161.87 1962.98,-144.72 1927.55,-134.52"/>
<polygon fill="#63b8ff" stroke="#63b8ff" points="2060.9,-176.59 2071.48,-175.99 2062.84,-169.86 2060.9,-176.59"/>
</a>
</g>
</g>
<!-- Node18 -->
<g id="Node000018" class="node">
<title>Node18</title>
<g id="a_Node000018"><a xlink:href="code__800029B0_8c.html" target="_top" xlink:title=" ">
<polygon fill="white" stroke="#666666" points="2091.5,-134.5 1972.5,-134.5 1972.5,-115.5 2091.5,-115.5 2091.5,-134.5"/>
<text text-anchor="middle" x="2032" y="-122.5" font-family="Helvetica,sans-Serif" font-size="10.00">src/code_800029B0.c</text>
</a>
</g>
</g>
<!-- Node16&#45;&gt;Node18 -->
<g id="edge18_Node000016_Node000018" class="edge">
<title>Node16&#45;&gt;Node18</title>
<g id="a_edge18_Node000016_Node000018"><a xlink:title=" ">
<path fill="none" stroke="#63b8ff" d="M2082.98,-169.22C2070,-158.21 2052.94,-143.75 2042.22,-134.67"/>
<polygon fill="#63b8ff" stroke="#63b8ff" points="2080.93,-172.07 2090.82,-175.87 2085.45,-166.73 2080.93,-172.07"/>
</a>
</g>
</g>
<!-- Node19 -->
<g id="Node000019" class="node">
<title>Node19</title>
<g id="a_Node000019"><a xlink:href="code__80005FD0_8c.html" target="_top" xlink:title=" ">
<polygon fill="white" stroke="#666666" points="2230,-134.5 2110,-134.5 2110,-115.5 2230,-115.5 2230,-134.5"/>
<text text-anchor="middle" x="2170" y="-122.5" font-family="Helvetica,sans-Serif" font-size="10.00">src/code_80005FD0.c</text>
</a>
</g>
</g>
<!-- Node16&#45;&gt;Node19 -->
<g id="edge19_Node000016_Node000019" class="edge">
<title>Node16&#45;&gt;Node19</title>
<g id="a_edge19_Node000016_Node000019"><a xlink:title=" ">
<path fill="none" stroke="#63b8ff" d="M2119.02,-169.22C2132,-158.21 2149.06,-143.75 2159.78,-134.67"/>
<polygon fill="#63b8ff" stroke="#63b8ff" points="2116.55,-166.73 2111.18,-175.87 2121.07,-172.07 2116.55,-166.73"/>
</a>
</g>
</g>
<!-- Node20 -->
<g id="Node000020" class="node">
<title>Node20</title>
<g id="a_Node000020"><a xlink:href="code__8006E9C0_8c.html" target="_top" xlink:title=" ">
<polygon fill="white" stroke="#666666" points="2367.5,-134.5 2248.5,-134.5 2248.5,-115.5 2367.5,-115.5 2367.5,-134.5"/>
<text text-anchor="middle" x="2308" y="-122.5" font-family="Helvetica,sans-Serif" font-size="10.00">src/code_8006E9C0.c</text>
</a>
</g>
</g>
<!-- Node16&#45;&gt;Node20 -->
<g id="edge20_Node000016_Node000020" class="edge">
<title>Node16&#45;&gt;Node20</title>
<g id="a_edge20_Node000016_Node000020"><a xlink:title=" ">
<path fill="none" stroke="#63b8ff" d="M2140.8,-173.25C2180.83,-161.94 2241.67,-144.75 2277.86,-134.52"/>
<polygon fill="#63b8ff" stroke="#63b8ff" points="2139.77,-169.91 2131.1,-175.99 2141.67,-176.64 2139.77,-169.91"/>
</a>
</g>
</g>
<!-- Node21 -->
<g id="Node000021" class="node">
<title>Node21</title>
<g id="a_Node000021"><a xlink:href="code__800AF9B0_8c.html" target="_top" xlink:title=" ">
<polygon fill="white" stroke="#666666" points="2506,-134.5 2386,-134.5 2386,-115.5 2506,-115.5 2506,-134.5"/>
<text text-anchor="middle" x="2446" y="-122.5" font-family="Helvetica,sans-Serif" font-size="10.00">src/code_800AF9B0.c</text>
</a>
</g>
</g>
<!-- Node16&#45;&gt;Node21 -->
<g id="edge21_Node000016_Node000021" class="edge">
<title>Node16&#45;&gt;Node21</title>
<g id="a_edge21_Node000016_Node000021"><a xlink:title=" ">
<path fill="none" stroke="#63b8ff" d="M2163.37,-175.18C2219.39,-166.63 2303.84,-153.31 2377,-140 2386.14,-138.34 2395.93,-136.43 2405.19,-134.56"/>
<polygon fill="#63b8ff" stroke="#63b8ff" points="2162.61,-171.75 2153.25,-176.72 2163.66,-178.67 2162.61,-171.75"/>
</a>
</g>
</g>
<!-- Node22 -->
<g id="Node000022" class="node">
<title>Node22</title>
<g id="a_Node000022"><a xlink:href="effects_8c.html" target="_top" xlink:title=" ">
<polygon fill="white" stroke="#666666" points="2599.5,-134.5 2524.5,-134.5 2524.5,-115.5 2599.5,-115.5 2599.5,-134.5"/>
<text text-anchor="middle" x="2562" y="-122.5" font-family="Helvetica,sans-Serif" font-size="10.00">src/effects.c</text>
</a>
</g>
</g>
<!-- Node16&#45;&gt;Node22 -->
<g id="edge23_Node000016_Node000022" class="edge">
<title>Node16&#45;&gt;Node22</title>
<g id="a_edge23_Node000016_Node000022"><a xlink:title=" ">
<path fill="none" stroke="#63b8ff" d="M2163.18,-181.36C2244.65,-176.44 2391.64,-164.79 2515,-140 2522.01,-138.59 2529.48,-136.6 2536.36,-134.56"/>
<polygon fill="#63b8ff" stroke="#63b8ff" points="2162.87,-177.87 2153.1,-181.95 2163.28,-184.86 2162.87,-177.87"/>
</a>
</g>
</g>
<!-- Node23 -->
<g id="Node000023" class="node">
<title>Node23</title>
<g id="a_Node000023"><a xlink:href="ceremony__and__credits_8c.html" target="_top" xlink:title=" ">
<polygon fill="white" stroke="#666666" points="2736.5,-140 2617.5,-140 2617.5,-110 2736.5,-110 2736.5,-140"/>
<text text-anchor="start" x="2625.5" y="-128" font-family="Helvetica,sans-Serif" font-size="10.00">src/ending/ceremony</text>
<text text-anchor="middle" x="2677" y="-117" font-family="Helvetica,sans-Serif" font-size="10.00">_and_credits.c</text>
</a>
</g>
</g>
<!-- Node16&#45;&gt;Node23 -->
<g id="edge24_Node000016_Node000023" class="edge">
<title>Node16&#45;&gt;Node23</title>
<g id="a_edge24_Node000016_Node000023"><a xlink:title=" ">
<path fill="none" stroke="#63b8ff" d="M2163.27,-181.37C2259.33,-176.02 2449.26,-163.36 2609,-140 2611.74,-139.6 2614.54,-139.16 2617.36,-138.68"/>
<polygon fill="#63b8ff" stroke="#63b8ff" points="2162.95,-177.88 2153.15,-181.93 2163.33,-184.87 2162.95,-177.88"/>
</a>
</g>
</g>
<!-- Node24 -->
<g id="Node000024" class="node">
<title>Node24</title>
<g id="a_Node000024"><a xlink:href="code__80280000_8c.html" target="_top" xlink:title=" ">
<polygon fill="white" stroke="#666666" points="2909.5,-134.5 2754.5,-134.5 2754.5,-115.5 2909.5,-115.5 2909.5,-134.5"/>
<text text-anchor="middle" x="2832" y="-122.5" font-family="Helvetica,sans-Serif" font-size="10.00">src/ending/code_80280000.c</text>
</a>
</g>
</g>
<!-- Node16&#45;&gt;Node24 -->
<g id="edge25_Node000016_Node000024" class="edge">
<title>Node16&#45;&gt;Node24</title>
<g id="a_edge25_Node000016_Node000024"><a xlink:title=" ">
<path fill="none" stroke="#63b8ff" d="M2163.47,-182.11C2278.85,-177.28 2533.05,-164.63 2746,-140 2758.47,-138.56 2771.9,-136.58 2784.35,-134.56"/>
<polygon fill="#63b8ff" stroke="#63b8ff" points="2163.25,-178.62 2153.4,-182.53 2163.54,-185.61 2163.25,-178.62"/>
</a>
</g>
</g>
<!-- Node25 -->
<g id="Node000025" class="node">
<title>Node25</title>
<g id="a_Node000025"><a xlink:href="code__80281780_8c.html" target="_top" xlink:title=" ">
<polygon fill="white" stroke="#666666" points="3082.5,-134.5 2927.5,-134.5 2927.5,-115.5 3082.5,-115.5 3082.5,-134.5"/>
<text text-anchor="middle" x="3005" y="-122.5" font-family="Helvetica,sans-Serif" font-size="10.00">src/ending/code_80281780.c</text>
</a>
</g>
</g>
<!-- Node16&#45;&gt;Node25 -->
<g id="edge26_Node000016_Node000025" class="edge">
<title>Node16&#45;&gt;Node25</title>
<g id="a_edge26_Node000016_Node000025"><a xlink:title=" ">
<path fill="none" stroke="#63b8ff" d="M2163.63,-183.38C2300.85,-180.42 2638.22,-170.4 2919,-140 2931.78,-138.62 2945.56,-136.61 2958.26,-134.54"/>
<polygon fill="#63b8ff" stroke="#63b8ff" points="2163.24,-179.88 2153.31,-183.59 2163.38,-186.88 2163.24,-179.88"/>
</a>
</g>
</g>
<!-- Node26 -->
<g id="Node000026" class="node">
<title>Node26</title>
<g id="a_Node000026"><a xlink:href="code__80281C40_8c.html" target="_top" xlink:title=" ">
<polygon fill="white" stroke="#666666" points="3255.5,-134.5 3100.5,-134.5 3100.5,-115.5 3255.5,-115.5 3255.5,-134.5"/>
<text text-anchor="middle" x="3178" y="-122.5" font-family="Helvetica,sans-Serif" font-size="10.00">src/ending/code_80281C40.c</text>
</a>
</g>
</g>
<!-- Node16&#45;&gt;Node26 -->
<g id="edge27_Node000016_Node000026" class="edge">
<title>Node16&#45;&gt;Node26</title>
<g id="a_edge27_Node000016_Node000026"><a xlink:title=" ">
<path fill="none" stroke="#63b8ff" d="M2163.37,-184.22C2319.98,-182.96 2742.22,-176.2 3092,-140 3104.94,-138.66 3118.89,-136.64 3131.71,-134.55"/>
<polygon fill="#63b8ff" stroke="#63b8ff" points="2162.98,-180.72 2153.01,-184.3 2163.03,-187.72 2162.98,-180.72"/>
</a>
</g>
</g>
<!-- Node27 -->
<g id="Node000027" class="node">
<title>Node27</title>
<g id="a_Node000027"><a xlink:href="HM__Intro_8cpp.html" target="_top" xlink:title=" ">
<polygon fill="white" stroke="#666666" points="3408,-134.5 3274,-134.5 3274,-115.5 3408,-115.5 3408,-134.5"/>
<text text-anchor="middle" x="3341" y="-122.5" font-family="Helvetica,sans-Serif" font-size="10.00">src/engine/HM_Intro.cpp</text>
</a>
</g>
</g>
<!-- Node16&#45;&gt;Node27 -->
<g id="edge28_Node000016_Node000027" class="edge">
<title>Node16&#45;&gt;Node27</title>
<g id="a_edge28_Node000016_Node000027"><a xlink:title=" ">
<path fill="none" stroke="#63b8ff" d="M2163.31,-183.3C2372.49,-179.1 3048.55,-163.95 3265,-140 3276.6,-138.72 3289.1,-136.69 3300.53,-134.57"/>
<polygon fill="#63b8ff" stroke="#63b8ff" points="2163.05,-179.81 2153.12,-183.51 2163.19,-186.81 2163.05,-179.81"/>
</a>
</g>
</g>
<!-- Node28 -->
<g id="Node000028" class="node">
<title>Node28</title>
<g id="a_Node000028"><a xlink:href="Trophy_8cpp.html" target="_top" xlink:title=" ">
<polygon fill="white" stroke="#666666" points="3531.5,-140 3426.5,-140 3426.5,-110 3531.5,-110 3531.5,-140"/>
<text text-anchor="start" x="3434.5" y="-128" font-family="Helvetica,sans-Serif" font-size="10.00">src/engine/objects</text>
<text text-anchor="middle" x="3479" y="-117" font-family="Helvetica,sans-Serif" font-size="10.00">/Trophy.cpp</text>
</a>
</g>
</g>
<!-- Node16&#45;&gt;Node28 -->
<g id="edge30_Node000016_Node000028" class="edge">
<title>Node16&#45;&gt;Node28</title>
<g id="a_edge30_Node000016_Node000028"><a xlink:title=" ">
<path fill="none" stroke="#63b8ff" d="M2163.35,-183.95C2390.03,-181.7 3169.97,-171.78 3417,-140 3420.06,-139.61 3423.2,-139.13 3426.36,-138.6"/>
<polygon fill="#63b8ff" stroke="#63b8ff" points="2163.26,-180.45 2153.3,-184.05 2163.33,-187.45 2163.26,-180.45"/>
</a>
</g>
</g>
<!-- Node29 -->
<g id="Node000029" class="node">
<title>Node29</title>
<g id="a_Node000029"><a xlink:href="main_8c.html" target="_top" xlink:title=" ">
<polygon fill="white" stroke="#666666" points="3616.5,-134.5 3549.5,-134.5 3549.5,-115.5 3616.5,-115.5 3616.5,-134.5"/>
<text text-anchor="middle" x="3583" y="-122.5" font-family="Helvetica,sans-Serif" font-size="10.00">src/main.c</text>
</a>
</g>
</g>
<!-- Node16&#45;&gt;Node29 -->
<g id="edge31_Node000016_Node000029" class="edge">
<title>Node16&#45;&gt;Node29</title>
<g id="a_edge31_Node000016_Node000029"><a xlink:title=" ">
<path fill="none" stroke="#63b8ff" d="M2163.49,-183.64C2422.47,-179.92 3404.38,-164.34 3541,-140 3547.66,-138.81 3554.7,-136.79 3561.08,-134.64"/>
<polygon fill="#63b8ff" stroke="#63b8ff" points="2163.09,-180.14 2153.14,-183.79 2163.19,-187.14 2163.09,-180.14"/>
</a>
</g>
</g>
<!-- Node30 -->
<g id="Node000030" class="node">
<title>Node30</title>
<g id="a_Node000030"><a xlink:href="menus_8c.html" target="_top" xlink:title=" ">
<polygon fill="white" stroke="#666666" points="3709.5,-134.5 3634.5,-134.5 3634.5,-115.5 3709.5,-115.5 3709.5,-134.5"/>
<text text-anchor="middle" x="3672" y="-122.5" font-family="Helvetica,sans-Serif" font-size="10.00">src/menus.c</text>
</a>
</g>
</g>
<!-- Node16&#45;&gt;Node30 -->
<g id="edge33_Node000016_Node000030" class="edge">
<title>Node16&#45;&gt;Node30</title>
<g id="a_edge33_Node000016_Node000030"><a xlink:title=" ">
<path fill="none" stroke="#63b8ff" d="M2163.52,-184.89C2412.98,-186.1 3337.55,-187.23 3626,-140 3633.25,-138.81 3640.95,-136.79 3647.94,-134.64"/>
<polygon fill="#63b8ff" stroke="#63b8ff" points="2163.21,-181.39 2153.19,-184.84 2163.18,-188.39 2163.21,-181.39"/>
</a>
</g>
</g>
<!-- Node31 -->
<g id="Node000031" class="node">
<title>Node31</title>
<g id="a_Node000031"><a xlink:href="actors__extended_8c.html" target="_top" xlink:title=" ">
<polygon fill="white" stroke="#666666" points="3884,-134.5 3728,-134.5 3728,-115.5 3884,-115.5 3884,-134.5"/>
<text text-anchor="middle" x="3806" y="-122.5" font-family="Helvetica,sans-Serif" font-size="10.00">src/racing/actors_extended.c</text>
</a>
</g>
</g>
<!-- Node16&#45;&gt;Node31 -->
<g id="edge34_Node000016_Node000031" class="edge">
<title>Node16&#45;&gt;Node31</title>
<g id="a_edge34_Node000016_Node000031"><a xlink:title=" ">
<path fill="none" stroke="#63b8ff" d="M2163.73,-183.88C2422.62,-181.17 3408.89,-169.09 3719,-140 3732.4,-138.74 3746.87,-136.7 3760.09,-134.55"/>
<polygon fill="#63b8ff" stroke="#63b8ff" points="2163.35,-180.39 2153.39,-183.99 2163.42,-187.39 2163.35,-180.39"/>
</a>
</g>
</g>
<!-- Node32 -->
<g id="Node000032" class="node">
<title>Node32</title>
<g id="a_Node000032"><a xlink:href="race__logic_8c.html" target="_top" xlink:title=" ">
<polygon fill="white" stroke="#666666" points="1100.5,-134.5 975.5,-134.5 975.5,-115.5 1100.5,-115.5 1100.5,-134.5"/>
<text text-anchor="middle" x="1038" y="-122.5" font-family="Helvetica,sans-Serif" font-size="10.00">src/racing/race_logic.c</text>
</a>
</g>
</g>
<!-- Node16&#45;&gt;Node32 -->
<g id="edge35_Node000016_Node000032" class="edge">
<title>Node16&#45;&gt;Node32</title>
<g id="a_edge35_Node000016_Node000032"><a xlink:title=" ">
<path fill="none" stroke="#63b8ff" d="M2038.55,-184.88C1881.78,-185.13 1459.18,-181.56 1110,-140 1099,-138.69 1087.16,-136.65 1076.32,-134.54"/>
<polygon fill="#63b8ff" stroke="#63b8ff" points="2038.94,-188.38 2048.93,-184.85 2038.93,-181.38 2038.94,-188.38"/>
</a>
</g>
</g>
<!-- Node33 -->
<g id="Node000033" class="node">
<title>Node33</title>
<g id="a_Node000033"><a xlink:href="skybox__and__splitscreen_8c.html" target="_top" xlink:title=" ">
<polygon fill="white" stroke="#666666" points="1243.5,-140 1118.5,-140 1118.5,-110 1243.5,-110 1243.5,-140"/>
<text text-anchor="start" x="1126.5" y="-128" font-family="Helvetica,sans-Serif" font-size="10.00">src/racing/skybox_and</text>
<text text-anchor="middle" x="1181" y="-117" font-family="Helvetica,sans-Serif" font-size="10.00">_splitscreen.c</text>
</a>
</g>
</g>
<!-- Node16&#45;&gt;Node33 -->
<g id="edge36_Node000016_Node000033" class="edge">
<title>Node16&#45;&gt;Node33</title>
<g id="a_edge36_Node000016_Node000033"><a xlink:title=" ">
<path fill="none" stroke="#63b8ff" d="M2038.5,-184.2C1897.73,-182.87 1545.29,-175.91 1253,-140 1249.97,-139.63 1246.87,-139.2 1243.75,-138.74"/>
<polygon fill="#63b8ff" stroke="#63b8ff" points="2038.64,-187.7 2048.67,-184.29 2038.7,-180.7 2038.64,-187.7"/>
</a>
</g>
</g>
<!-- Node34 -->
<g id="Node000034" class="node">
<title>Node34</title>
<g id="a_Node000034"><a xlink:href="render__objects_8c.html" target="_top" xlink:title=" ">
<polygon fill="white" stroke="#666666" points="1376,-134.5 1262,-134.5 1262,-115.5 1376,-115.5 1376,-134.5"/>
<text text-anchor="middle" x="1319" y="-122.5" font-family="Helvetica,sans-Serif" font-size="10.00">src/render_objects.c</text>
</a>
</g>
</g>
<!-- Node16&#45;&gt;Node34 -->
<g id="edge37_Node000016_Node000034" class="edge">
<title>Node16&#45;&gt;Node34</title>
<g id="a_edge37_Node000016_Node000034"><a xlink:title=" ">
<path fill="none" stroke="#63b8ff" d="M2038.5,-183.7C1913.72,-181.42 1625.06,-172.74 1385,-140 1375.02,-138.64 1364.3,-136.61 1354.46,-134.52"/>
<polygon fill="#63b8ff" stroke="#63b8ff" points="2038.57,-187.2 2048.63,-183.88 2038.7,-180.2 2038.57,-187.2"/>
</a>
</g>
</g>
<!-- Node35 -->
<g id="Node000035" class="node">
<title>Node35</title>
<g id="a_Node000035"><a xlink:href="replays_8c.html" target="_top" xlink:title=" ">
<polygon fill="white" stroke="#666666" points="1472,-134.5 1394,-134.5 1394,-115.5 1472,-115.5 1472,-134.5"/>
<text text-anchor="middle" x="1433" y="-122.5" font-family="Helvetica,sans-Serif" font-size="10.00">src/replays.c</text>
</a>
</g>
</g>
<!-- Node16&#45;&gt;Node35 -->
<g id="edge38_Node000016_Node000035" class="edge">
<title>Node16&#45;&gt;Node35</title>
<g id="a_edge38_Node000016_Node000035"><a xlink:title=" ">
<path fill="none" stroke="#63b8ff" d="M2038.67,-184.26C1926.46,-182.88 1683.4,-175.62 1482,-140 1474.51,-138.68 1466.52,-136.66 1459.21,-134.57"/>
<polygon fill="#63b8ff" stroke="#63b8ff" points="2038.75,-187.76 2048.79,-184.37 2038.83,-180.76 2038.75,-187.76"/>
</a>
</g>
</g>
<!-- Node36 -->
<g id="Node000036" class="node">
<title>Node36</title>
<g id="a_Node000036"><a xlink:href="save_8c.html" target="_top" xlink:title=" ">
<polygon fill="white" stroke="#666666" points="1555.5,-134.5 1490.5,-134.5 1490.5,-115.5 1555.5,-115.5 1555.5,-134.5"/>
<text text-anchor="middle" x="1523" y="-122.5" font-family="Helvetica,sans-Serif" font-size="10.00">src/save.c</text>
</a>
</g>
</g>
<!-- Node16&#45;&gt;Node36 -->
<g id="edge39_Node000016_Node000036" class="edge">
<title>Node16&#45;&gt;Node36</title>
<g id="a_edge39_Node000016_Node000036"><a xlink:title=" ">
<path fill="none" stroke="#63b8ff" d="M2038.37,-184.12C1937.61,-182.45 1733.74,-174.61 1565,-140 1558.52,-138.67 1551.66,-136.66 1545.4,-134.56"/>
<polygon fill="#63b8ff" stroke="#63b8ff" points="2038.62,-187.63 2048.67,-184.28 2038.73,-180.63 2038.62,-187.63"/>
</a>
</g>
</g>
<!-- Node37 -->
<g id="Node000037" class="node">
<title>Node37</title>
<g id="a_Node000037"><a xlink:href="spawn__players_8c.html" target="_top" xlink:title=" ">
<polygon fill="white" stroke="#666666" points="1688.5,-134.5 1573.5,-134.5 1573.5,-115.5 1688.5,-115.5 1688.5,-134.5"/>
<text text-anchor="middle" x="1631" y="-122.5" font-family="Helvetica,sans-Serif" font-size="10.00">src/spawn_players.c</text>
</a>
</g>
</g>
<!-- Node16&#45;&gt;Node37 -->
<g id="edge40_Node000016_Node000037" class="edge">
<title>Node16&#45;&gt;Node37</title>
<g id="a_edge40_Node000016_Node000037"><a xlink:title=" ">
<path fill="none" stroke="#63b8ff" d="M2038.62,-179.48C1959.21,-172.67 1817.91,-159.1 1698,-140 1688.49,-138.49 1678.3,-136.53 1668.8,-134.56"/>
<polygon fill="#63b8ff" stroke="#63b8ff" points="2038.68,-183 2048.94,-180.36 2039.27,-176.03 2038.68,-183"/>
</a>
</g>
</g>
<!-- Node38 -->
<g id="Node000038" class="node">
<title>Node38</title>
<g id="a_Node000038"><a xlink:href="update__objects_8c.html" target="_top" xlink:title=" ">
<polygon fill="white" stroke="#666666" points="1823,-134.5 1707,-134.5 1707,-115.5 1823,-115.5 1823,-134.5"/>
<text text-anchor="middle" x="1765" y="-122.5" font-family="Helvetica,sans-Serif" font-size="10.00">src/update_objects.c</text>
</a>
</g>
</g>
<!-- Node16&#45;&gt;Node38 -->
<g id="edge41_Node000016_Node000038" class="edge">
<title>Node16&#45;&gt;Node38</title>
<g id="a_edge41_Node000016_Node000038"><a xlink:title=" ">
<path fill="none" stroke="#63b8ff" d="M2038.59,-174.83C1984.2,-166.24 1903.25,-153.06 1833,-140 1823.99,-138.33 1814.34,-136.41 1805.22,-134.55"/>
<polygon fill="#63b8ff" stroke="#63b8ff" points="2038.34,-178.34 2048.77,-176.44 2039.43,-171.42 2038.34,-178.34"/>
</a>
</g>
</g>
</g>
</svg>

<g id="navigator" transform="translate(0 0)" fill="#404254">
  <rect fill="#f2f5e9" fill-opacity="0.5" stroke="#606060" stroke-width=".5" x="0" y="0" width="60" height="60"/>
  <use id="zoomplus" xlink:href="#zoomPlus" x="17" y="9" onmousedown="handleZoom(evt,'in')"/>
  <use id="zoomminus" xlink:href="#zoomMin" x="42" y="9" onmousedown="handleZoom(evt,'out')"/>
  <use id="reset" xlink:href="#resetDef" x="30" y="36" onmousedown="handleReset()"/>
   <use id="arrowup" xlink:href="#arrowUp" x="0" y="0" onmousedown="handlePan(0,-1)"/>
  <use id="arrowright" xlink:href="#arrowRight" x="0" y="0" onmousedown="handlePan(1,0)"/>
  <use id="arrowdown" xlink:href="#arrowDown" x="0" y="0" onmousedown="handlePan(0,1)"/>
  <use id="arrowleft" xlink:href="#arrowLeft" x="0" y="0" onmousedown="handlePan(-1,0)"/>
</g>
<svg viewBox="0 0 15 15" width="100%" height="30px" preserveAspectRatio="xMaxYMin meet">
 <g id="arrow_out" transform="scale(0.3 0.3)">
  <a xlink:href="textures_8h__dep__incl_org.svg" target="_base">
   <rect id="button" ry="5" rx="5" y="6" x="6" height="38" width="38"
        fill="#f2f5e9" fill-opacity="0.5" stroke="#606060" stroke-width="1.0"/>
   <path id="arrow"
     d="M 11.500037,31.436501 C 11.940474,20.09759 22.043105,11.32322 32.158766,21.979434 L 37.068811,17.246167 C 37.068811,17.246167 37.088388,32 37.088388,32 L 22.160133,31.978069 C 22.160133,31.978069 26.997745,27.140456 26.997745,27.140456 C 18.528582,18.264221 13.291696,25.230495 11.500037,31.436501 z"
     style="fill:#404040;"/>
  </a>
 </g>
</svg>

<style type='text/css'>
<![CDATA[
[data-mouse-over-selected='false'] { opacity: 0.7; }
[data-mouse-over-selected='true']  { opacity: 1.0; }
]]>
</style>
<script type="application/ecmascript"><![CDATA[
document.addEventListener('DOMContentLoaded', (event) => {
  highlightEdges();
  highlightAdjacentNodes();
});
]]></script>
</svg>
