<?xml version="1.0" encoding="UTF-8" standalone="no"?>
<!DOCTYPE svg PUBLIC "-//W3C//DTD SVG 1.1//EN"
 "http://www.w3.org/Graphics/SVG/1.1/DTD/svg11.dtd">
<!-- Generated by graphviz version 2.43.0 (0)
 -->
<!-- Title: include/assets/models/tracks/toads_turnpike/toads_turnpike_displaylists.h Pages: 1 -->
<svg width="996pt" height="291pt"
 viewBox="0.00 0.00 996.00 291.00" xmlns="http://www.w3.org/2000/svg" xmlns:xlink="http://www.w3.org/1999/xlink">
<g id="graph0" class="graph" transform="scale(1 1) rotate(0) translate(4 287)">
<title>include/assets/models/tracks/toads_turnpike/toads_turnpike_displaylists.h</title>
<!-- Node1 -->
<g id="Node000001" class="node">
<title>Node1</title>
<g id="a_Node000001"><a xlink:title=" ">
<polygon fill="#999999" stroke="#666666" points="582,-283 421,-283 421,-242 582,-242 582,-283"/>
<text text-anchor="start" x="429" y="-271" font-family="Helvetica,sans-Serif" font-size="10.00">include/assets/models</text>
<text text-anchor="start" x="429" y="-260" font-family="Helvetica,sans-Serif" font-size="10.00">/tracks/toads_turnpike</text>
<text text-anchor="middle" x="501.5" y="-249" font-family="Helvetica,sans-Serif" font-size="10.00">/toads_turnpike_displaylists.h</text>
</a>
</g>
</g>
<!-- Node2 -->
<g id="Node000002" class="node">
<title>Node2</title>
<g id="a_Node000002"><a xlink:href="all__course__packed_8h.html" target="_top" xlink:title=" ">
<polygon fill="white" stroke="#666666" points="401,-206 294,-206 294,-176 401,-176 401,-206"/>
<text text-anchor="start" x="302" y="-194" font-family="Helvetica,sans-Serif" font-size="10.00">courses/all_course</text>
<text text-anchor="middle" x="347.5" y="-183" font-family="Helvetica,sans-Serif" font-size="10.00">_packed.h</text>
</a>
</g>
</g>
<!-- Node1&#45;&gt;Node2 -->
<g id="edge1_Node000001_Node000002" class="edge">
<title>Node1&#45;&gt;Node2</title>
<g id="a_edge1_Node000001_Node000002"><a xlink:title=" ">
<path fill="none" stroke="#63b8ff" d="M448.77,-237.71C425.47,-227.19 398.86,-215.18 378.77,-206.11"/>
<polygon fill="#63b8ff" stroke="#63b8ff" points="447.64,-241.03 458.19,-241.96 450.52,-234.65 447.64,-241.03"/>
</a>
</g>
</g>
<!-- Node9 -->
<g id="Node000009" class="node">
<title>Node9</title>
<g id="a_Node000009"><a xlink:href="ToadsTurnpike_8h.html" target="_top" xlink:title=" ">
<polygon fill="white" stroke="#666666" points="772,-206 665,-206 665,-176 772,-176 772,-206"/>
<text text-anchor="start" x="673" y="-194" font-family="Helvetica,sans-Serif" font-size="10.00">src/engine/courses</text>
<text text-anchor="middle" x="718.5" y="-183" font-family="Helvetica,sans-Serif" font-size="10.00">/ToadsTurnpike.h</text>
</a>
</g>
</g>
<!-- Node1&#45;&gt;Node9 -->
<g id="edge8_Node000001_Node000009" class="edge">
<title>Node1&#45;&gt;Node9</title>
<g id="a_edge8_Node000001_Node000009"><a xlink:title=" ">
<path fill="none" stroke="#63b8ff" d="M572.35,-238.81C606.11,-228 645.43,-215.4 674.78,-206"/>
<polygon fill="#63b8ff" stroke="#63b8ff" points="570.98,-235.57 562.52,-241.96 573.12,-242.24 570.98,-235.57"/>
</a>
</g>
</g>
<!-- Node3 -->
<g id="Node000003" class="node">
<title>Node3</title>
<g id="a_Node000003"><a xlink:href="courseTable_8c.html" target="_top" xlink:title=" ">
<polygon fill="white" stroke="#666666" points="123,-134.5 0,-134.5 0,-115.5 123,-115.5 123,-134.5"/>
<text text-anchor="middle" x="61.5" y="-122.5" font-family="Helvetica,sans-Serif" font-size="10.00">courses/courseTable.c</text>
</a>
</g>
</g>
<!-- Node2&#45;&gt;Node3 -->
<g id="edge2_Node000002_Node000003" class="edge">
<title>Node2&#45;&gt;Node3</title>
<g id="a_edge2_Node000002_Node000003"><a xlink:title=" ">
<path fill="none" stroke="#63b8ff" d="M283.8,-175.74C227.26,-163.09 146.53,-145.03 99.52,-134.51"/>
<polygon fill="#63b8ff" stroke="#63b8ff" points="283.18,-179.19 293.71,-177.96 284.71,-172.36 283.18,-179.19"/>
</a>
</g>
</g>
<!-- Node4 -->
<g id="Node000004" class="node">
<title>Node4</title>
<g id="a_Node000004"><a xlink:href="code__800029B0_8c.html" target="_top" xlink:title=" ">
<polygon fill="white" stroke="#666666" points="260,-134.5 141,-134.5 141,-115.5 260,-115.5 260,-134.5"/>
<text text-anchor="middle" x="200.5" y="-122.5" font-family="Helvetica,sans-Serif" font-size="10.00">src/code_800029B0.c</text>
</a>
</g>
</g>
<!-- Node2&#45;&gt;Node4 -->
<g id="edge3_Node000002_Node000004" class="edge">
<title>Node2&#45;&gt;Node4</title>
<g id="a_edge3_Node000002_Node000004"><a xlink:title=" ">
<path fill="none" stroke="#63b8ff" d="M306.02,-171.94C277.86,-159.68 241.9,-144.02 220.06,-134.52"/>
<polygon fill="#63b8ff" stroke="#63b8ff" points="304.67,-175.17 315.24,-175.95 307.47,-168.75 304.67,-175.17"/>
</a>
</g>
</g>
<!-- Node5 -->
<g id="Node000005" class="node">
<title>Node5</title>
<g id="a_Node000005"><a xlink:href="all__variables_8h.html" target="_top" xlink:title=" ">
<polygon fill="white" stroke="#666666" points="416.5,-134.5 278.5,-134.5 278.5,-115.5 416.5,-115.5 416.5,-134.5"/>
<text text-anchor="middle" x="347.5" y="-122.5" font-family="Helvetica,sans-Serif" font-size="10.00">src/debug/all_variables.h</text>
</a>
</g>
</g>
<!-- Node2&#45;&gt;Node5 -->
<g id="edge4_Node000002_Node000005" class="edge">
<title>Node2&#45;&gt;Node5</title>
<g id="a_edge4_Node000002_Node000005"><a xlink:title=" ">
<path fill="none" stroke="#63b8ff" d="M347.5,-165.6C347.5,-154.8 347.5,-142.78 347.5,-134.84"/>
<polygon fill="#63b8ff" stroke="#63b8ff" points="344,-165.8 347.5,-175.8 351,-165.8 344,-165.8"/>
</a>
</g>
</g>
<!-- Node8 -->
<g id="Node000008" class="node">
<title>Node8</title>
<g id="a_Node000008"><a xlink:href="render__courses_8c.html" target="_top" xlink:title=" ">
<polygon fill="white" stroke="#666666" points="584,-134.5 435,-134.5 435,-115.5 584,-115.5 584,-134.5"/>
<text text-anchor="middle" x="509.5" y="-122.5" font-family="Helvetica,sans-Serif" font-size="10.00">src/racing/render_courses.c</text>
</a>
</g>
</g>
<!-- Node2&#45;&gt;Node8 -->
<g id="edge7_Node000002_Node000008" class="edge">
<title>Node2&#45;&gt;Node8</title>
<g id="a_edge7_Node000002_Node000008"><a xlink:title=" ">
<path fill="none" stroke="#63b8ff" d="M392.41,-172.26C423.56,-159.95 463.67,-144.11 487.94,-134.52"/>
<polygon fill="#63b8ff" stroke="#63b8ff" points="391.07,-169.03 383.05,-175.95 393.64,-175.54 391.07,-169.03"/>
</a>
</g>
</g>
<!-- Node6 -->
<g id="Node000006" class="node">
<title>Node6</title>
<g id="a_Node000006"><a xlink:href="debug_8inc_8c.html" target="_top" xlink:title=" ">
<polygon fill="white" stroke="#666666" points="408.5,-74 286.5,-74 286.5,-55 408.5,-55 408.5,-74"/>
<text text-anchor="middle" x="347.5" y="-62" font-family="Helvetica,sans-Serif" font-size="10.00">src/debug/debug.inc.c</text>
</a>
</g>
</g>
<!-- Node5&#45;&gt;Node6 -->
<g id="edge5_Node000005_Node000006" class="edge">
<title>Node5&#45;&gt;Node6</title>
<g id="a_edge5_Node000005_Node000006"><a xlink:title=" ">
<path fill="none" stroke="#63b8ff" d="M347.5,-105.16C347.5,-94.74 347.5,-82.3 347.5,-74.17"/>
<polygon fill="#63b8ff" stroke="#63b8ff" points="344,-105.37 347.5,-115.37 351,-105.37 344,-105.37"/>
</a>
</g>
</g>
<!-- Node7 -->
<g id="Node000007" class="node">
<title>Node7</title>
<g id="a_Node000007"><a xlink:href="debug_8c.html" target="_top" xlink:title=" ">
<polygon fill="white" stroke="#666666" points="400,-19 295,-19 295,0 400,0 400,-19"/>
<text text-anchor="middle" x="347.5" y="-7" font-family="Helvetica,sans-Serif" font-size="10.00">src/debug/debug.c</text>
</a>
</g>
</g>
<!-- Node6&#45;&gt;Node7 -->
<g id="edge6_Node000006_Node000007" class="edge">
<title>Node6&#45;&gt;Node7</title>
<g id="a_edge6_Node000006_Node000007"><a xlink:title=" ">
<path fill="none" stroke="#63b8ff" d="M347.5,-44.66C347.5,-35.93 347.5,-25.99 347.5,-19.09"/>
<polygon fill="#63b8ff" stroke="#63b8ff" points="344,-44.75 347.5,-54.75 351,-44.75 344,-44.75"/>
</a>
</g>
</g>
<!-- Node10 -->
<g id="Node000010" class="node">
<title>Node10</title>
<g id="a_Node000010"><a xlink:href="ToadsTurnpike_8cpp.html" target="_top" xlink:title=" ">
<polygon fill="white" stroke="#666666" points="710.5,-140 602.5,-140 602.5,-110 710.5,-110 710.5,-140"/>
<text text-anchor="start" x="610.5" y="-128" font-family="Helvetica,sans-Serif" font-size="10.00">src/engine/courses</text>
<text text-anchor="middle" x="656.5" y="-117" font-family="Helvetica,sans-Serif" font-size="10.00">/ToadsTurnpike.cpp</text>
</a>
</g>
</g>
<!-- Node9&#45;&gt;Node10 -->
<g id="edge9_Node000009_Node000010" class="edge">
<title>Node9&#45;&gt;Node10</title>
<g id="a_edge9_Node000009_Node000010"><a xlink:title=" ">
<path fill="none" stroke="#63b8ff" d="M697.54,-168.37C688.53,-159.06 678.24,-148.44 670.22,-140.16"/>
<polygon fill="#63b8ff" stroke="#63b8ff" points="695.27,-171.05 704.74,-175.8 700.3,-166.18 695.27,-171.05"/>
</a>
</g>
</g>
<!-- Node11 -->
<g id="Node000011" class="node">
<title>Node11</title>
<g id="a_Node000011"><a xlink:href="Game_8cpp.html" target="_top" xlink:title=" ">
<polygon fill="white" stroke="#666666" points="834.5,-134.5 728.5,-134.5 728.5,-115.5 834.5,-115.5 834.5,-134.5"/>
<text text-anchor="middle" x="781.5" y="-122.5" font-family="Helvetica,sans-Serif" font-size="10.00">src/port/Game.cpp</text>
</a>
</g>
</g>
<!-- Node9&#45;&gt;Node11 -->
<g id="edge10_Node000009_Node000011" class="edge">
<title>Node9&#45;&gt;Node11</title>
<g id="a_edge10_Node000009_Node000011"><a xlink:title=" ">
<path fill="none" stroke="#63b8ff" d="M739.56,-168.6C750.89,-157.1 764.25,-143.52 772.79,-134.84"/>
<polygon fill="#63b8ff" stroke="#63b8ff" points="737,-166.21 732.48,-175.8 741.99,-171.13 737,-166.21"/>
</a>
</g>
</g>
<!-- Node12 -->
<g id="Node000012" class="node">
<title>Node12</title>
<g id="a_Node000012"><a xlink:href="PortMenu_8cpp.html" target="_top" xlink:title=" ">
<polygon fill="white" stroke="#666666" points="988,-134.5 853,-134.5 853,-115.5 988,-115.5 988,-134.5"/>
<text text-anchor="middle" x="920.5" y="-122.5" font-family="Helvetica,sans-Serif" font-size="10.00">src/port/ui/PortMenu.cpp</text>
</a>
</g>
</g>
<!-- Node9&#45;&gt;Node12 -->
<g id="edge11_Node000009_Node000012" class="edge">
<title>Node9&#45;&gt;Node12</title>
<g id="a_edge11_Node000009_Node000012"><a xlink:title=" ">
<path fill="none" stroke="#63b8ff" d="M772.49,-172.89C811.61,-160.5 862.83,-144.27 893.62,-134.52"/>
<polygon fill="#63b8ff" stroke="#63b8ff" points="771.31,-169.6 762.83,-175.95 773.42,-176.27 771.31,-169.6"/>
</a>
</g>
</g>
</g>
</svg>
