<?xml version="1.0" encoding="UTF-8" standalone="no"?>
<!DOCTYPE svg PUBLIC "-//W3C//DTD SVG 1.1//EN"
 "http://www.w3.org/Graphics/SVG/1.1/DTD/svg11.dtd">
<!-- Generated by graphviz version 2.43.0 (0)
 -->
<!-- Title: src/engine/courses/ToadsTurnpike.h Pages: 1 -->
<!--zoomable 390 -->

<svg id="main" version="1.1" xmlns="http://www.w3.org/2000/svg" xmlns:xlink="http://www.w3.org/1999/xlink" xml:space="preserve" onload="init(evt)">

<style type="text/css"><![CDATA[
.node, .edge {opacity: 0.7;}
.node.selected, .edge.selected {opacity: 1;}
.edge:hover path { stroke: red; }
.edge:hover polygon { stroke: red; fill: red; }
]]></style>

<defs>
  <circle id="rim" cx="0" cy="0" r="7"/>
  <circle id="rim2" cx="0" cy="0" r="3.5"/>
  <g id="zoomPlus">
    <use xlink:href="#rim" fill="#404040"><set attributeName="fill" to="#808080" begin="zoomplus.mouseover" end="zoomplus.mouseout"/></use>
    <path d="M-4,0h8M0,-4v8" fill="none" stroke="white" stroke-width="1.5" pointer-events="none"/>
  </g>
  <g id="zoomMin">
    <use xlink:href="#rim" fill="#404040"><set attributeName="fill" to="#808080" begin="zoomminus.mouseover" end="zoomminus.mouseout"/></use>
    <path d="M-4,0h8" fill="none" stroke="white" stroke-width="1.5" pointer-events="none"/>
  </g>
  <g id="arrowUp" transform="translate(30 24)">
    <use xlink:href="#rim"/>
    <path pointer-events="none" fill="none" stroke="white" stroke-width="1.5" d="M0,-3.0v7 M-2.5,-0.5L0,-3.0L2.5,-0.5"/>
  </g>
  <g id="arrowRight" transform="rotate(90) translate(36 -43)">
    <use xlink:href="#rim"/>
    <path pointer-events="none" fill="none" stroke="white" stroke-width="1.5" d="M0,-3.0v7 M-2.5,-0.5L0,-3.0L2.5,-0.5"/>
  </g>
  <g id="arrowDown" transform="rotate(180) translate(-30 -48)">
    <use xlink:href="#rim"/>
    <path pointer-events="none" fill="none" stroke="white" stroke-width="1.5" d="M0,-3.0v7 M-2.5,-0.5L0,-3.0L2.5,-0.5"/>
  </g>
  <g id="arrowLeft" transform="rotate(270) translate(-36 17)">
    <use xlink:href="#rim"/>
    <path pointer-events="none" fill="none" stroke="white" stroke-width="1.5" d="M0,-3.0v7 M-2.5,-0.5L0,-3.0L2.5,-0.5"/>
  </g>
  <g id="resetDef">
    <use xlink:href="#rim2" fill="#404040"><set attributeName="fill" to="#808080" begin="reset.mouseover" end="reset.mouseout"/></use>
  </g>
</defs>
<script type="application/ecmascript">
var viewWidth = 1374;
var viewHeight = 390;
var sectionId = 'dynsection-0';
</script>
<script type="application/ecmascript" xlink:href="svg.min.js"/>
<svg id="graph" class="graph">
<g id="viewport">
<title>src/engine/courses/ToadsTurnpike.h</title>
<!-- Node1 -->
<g id="Node000001" class="node">
<title>Node1</title>
<g id="a_Node000001"><a xlink:title=" ">
<polygon fill="#999999" stroke="#666666" points="972.5,-382 865.5,-382 865.5,-352 972.5,-352 972.5,-382"/>
<text text-anchor="start" x="873.5" y="-370" font-family="Helvetica,sans-Serif" font-size="10.00">src/engine/courses</text>
<text text-anchor="middle" x="919" y="-359" font-family="Helvetica,sans-Serif" font-size="10.00">/ToadsTurnpike.h</text>
</a>
</g>
</g>
<!-- Node2 -->
<g id="Node000002" class="node">
<title>Node2</title>
<g id="a_Node000002"><a xlink:title=" ">
<polygon fill="#e0e0e0" stroke="#999999" points="401,-19 321,-19 321,0 401,0 401,-19"/>
<text text-anchor="middle" x="361" y="-7" font-family="Helvetica,sans-Serif" font-size="10.00">libultraship.h</text>
</a>
</g>
</g>
<!-- Node1&#45;&gt;Node2 -->
<g id="edge1_Node000001_Node000002" class="edge">
<title>Node1&#45;&gt;Node2</title>
<g id="a_edge1_Node000001_Node000002"><a xlink:title=" ">
<path fill="none" stroke="#63b8ff" d="M972.92,-363.63C1091.81,-356.92 1366,-332.77 1366,-252.5 1366,-252.5 1366,-252.5 1366,-129.5 1366,-33.39 1257.12,-74.43 1163,-55 1018.32,-25.13 563.74,-14.22 411.36,-11.35"/>
<polygon fill="#63b8ff" stroke="#63b8ff" points="411.4,-7.85 401.34,-11.16 411.27,-14.85 411.4,-7.85"/>
</a>
</g>
</g>
<!-- Node3 -->
<g id="Node000003" class="node">
<title>Node3</title>
<g id="a_Node000003"><a xlink:href="Course_8h.html" target="_top" xlink:title=" ">
<polygon fill="white" stroke="#666666" points="881.5,-316 822.5,-316 822.5,-297 881.5,-297 881.5,-316"/>
<text text-anchor="middle" x="852" y="-304" font-family="Helvetica,sans-Serif" font-size="10.00">Course.h</text>
</a>
</g>
</g>
<!-- Node1&#45;&gt;Node3 -->
<g id="edge2_Node000001_Node000003" class="edge">
<title>Node1&#45;&gt;Node3</title>
<g id="a_edge2_Node000001_Node000003"><a xlink:title=" ">
<path fill="none" stroke="#63b8ff" d="M902.78,-351.84C892.76,-343.09 879.89,-331.85 869.62,-322.88"/>
<polygon fill="#63b8ff" stroke="#63b8ff" points="871.87,-320.21 862.04,-316.27 867.27,-325.48 871.87,-320.21"/>
</a>
</g>
</g>
<!-- Node6 -->
<g id="Node000006" class="node">
<title>Node6</title>
<g id="a_Node000006"><a xlink:href="camera_8h.html" target="_top" xlink:title=" ">
<polygon fill="white" stroke="#666666" points="565,-206 503,-206 503,-187 565,-187 565,-206"/>
<text text-anchor="middle" x="534" y="-194" font-family="Helvetica,sans-Serif" font-size="10.00">camera.h</text>
</a>
</g>
</g>
<!-- Node1&#45;&gt;Node6 -->
<g id="edge61_Node000001_Node000006" class="edge">
<title>Node1&#45;&gt;Node6</title>
<g id="a_edge61_Node000001_Node000006"><a xlink:title=" ">
<path fill="none" stroke="#63b8ff" d="M865.15,-359.37C768.83,-346.29 573.33,-313.76 533,-261 523.38,-248.42 524.87,-229.97 528.03,-216.2"/>
<polygon fill="#63b8ff" stroke="#63b8ff" points="531.46,-216.92 530.74,-206.35 524.71,-215.06 531.46,-216.92"/>
</a>
</g>
</g>
<!-- Node8 -->
<g id="Node000008" class="node">
<title>Node8</title>
<g id="a_Node000008"><a xlink:href="course__offsets_8h.html" target="_top" xlink:title=" ">
<polygon fill="white" stroke="#666666" points="485,-206 389,-206 389,-187 485,-187 485,-206"/>
<text text-anchor="middle" x="437" y="-194" font-family="Helvetica,sans-Serif" font-size="10.00">course_offsets.h</text>
</a>
</g>
</g>
<!-- Node1&#45;&gt;Node8 -->
<g id="edge60_Node000001_Node000008" class="edge">
<title>Node1&#45;&gt;Node8</title>
<g id="a_edge60_Node000001_Node000008"><a xlink:title=" ">
<path fill="none" stroke="#63b8ff" d="M865.25,-363.93C798.71,-360 682.71,-348.65 589,-316 542.57,-299.82 531.11,-292.08 493,-261 475.99,-247.13 459.78,-227.84 449.21,-214.17"/>
<polygon fill="#63b8ff" stroke="#63b8ff" points="451.95,-211.99 443.14,-206.11 446.36,-216.2 451.95,-211.99"/>
</a>
</g>
</g>
<!-- Node14 -->
<g id="Node000014" class="node">
<title>Node14</title>
<g id="a_Node000014"><a xlink:href="src_2data_2some__data_8h.html" target="_top" xlink:title=" ">
<polygon fill="white" stroke="#666666" points="1284,-261 1180,-261 1180,-242 1284,-242 1284,-261"/>
<text text-anchor="middle" x="1232" y="-249" font-family="Helvetica,sans-Serif" font-size="10.00">data/some_data.h</text>
</a>
</g>
</g>
<!-- Node1&#45;&gt;Node14 -->
<g id="edge62_Node000001_Node000014" class="edge">
<title>Node1&#45;&gt;Node14</title>
<g id="a_edge62_Node000001_Node000014"><a xlink:title=" ">
<path fill="none" stroke="#63b8ff" d="M957.69,-351.97C1019.7,-329.49 1140.25,-285.77 1198.67,-264.59"/>
<polygon fill="#63b8ff" stroke="#63b8ff" points="1199.95,-267.84 1208.16,-261.14 1197.57,-261.26 1199.95,-267.84"/>
</a>
</g>
</g>
<!-- Node16 -->
<g id="Node000016" class="node">
<title>Node16</title>
<g id="a_Node000016"><a xlink:href="objects_8h.html" target="_top" xlink:title=" ">
<polygon fill="white" stroke="#666666" points="1337.5,-206 1276.5,-206 1276.5,-187 1337.5,-187 1337.5,-206"/>
<text text-anchor="middle" x="1307" y="-194" font-family="Helvetica,sans-Serif" font-size="10.00">objects.h</text>
</a>
</g>
</g>
<!-- Node1&#45;&gt;Node16 -->
<g id="edge63_Node000001_Node000016" class="edge">
<title>Node1&#45;&gt;Node16</title>
<g id="a_edge63_Node000001_Node000016"><a xlink:title=" ">
<path fill="none" stroke="#63b8ff" d="M972.72,-357.83C1065.28,-342.68 1249.14,-307.47 1293,-261 1304.25,-249.08 1307.24,-230.26 1307.72,-216.19"/>
<polygon fill="#63b8ff" stroke="#63b8ff" points="1311.22,-216.14 1307.68,-206.16 1304.22,-216.17 1311.22,-216.14"/>
</a>
</g>
</g>
<!-- Node21 -->
<g id="Node000021" class="node">
<title>Node21</title>
<g id="a_Node000021"><a xlink:href="path__spawn__metadata_8h.html" target="_top" xlink:title=" ">
<polygon fill="white" stroke="#666666" points="1123.5,-261 986.5,-261 986.5,-242 1123.5,-242 1123.5,-261"/>
<text text-anchor="middle" x="1055" y="-249" font-family="Helvetica,sans-Serif" font-size="10.00">path_spawn_metadata.h</text>
</a>
</g>
</g>
<!-- Node1&#45;&gt;Node21 -->
<g id="edge64_Node000001_Node000021" class="edge">
<title>Node1&#45;&gt;Node21</title>
<g id="a_edge64_Node000001_Node000021"><a xlink:title=" ">
<path fill="none" stroke="#63b8ff" d="M935.95,-351.85C961.65,-330.41 1010.28,-289.82 1036.74,-267.74"/>
<polygon fill="#63b8ff" stroke="#63b8ff" points="1039.06,-270.37 1044.49,-261.27 1034.57,-264.99 1039.06,-270.37"/>
</a>
</g>
</g>
<!-- Node25 -->
<g id="Node000025" class="node">
<title>Node25</title>
<g id="a_Node000025"><a xlink:href="toads__turnpike__vertices_8h.html" target="_top" xlink:title=" ">
<polygon fill="white" stroke="#666666" points="277,-151 155,-151 155,-110 277,-110 277,-151"/>
<text text-anchor="start" x="163" y="-139" font-family="Helvetica,sans-Serif" font-size="10.00">assets/models/tracks</text>
<text text-anchor="start" x="163" y="-128" font-family="Helvetica,sans-Serif" font-size="10.00">/toads_turnpike/toads</text>
<text text-anchor="middle" x="216" y="-117" font-family="Helvetica,sans-Serif" font-size="10.00">_turnpike_vertices.h</text>
</a>
</g>
</g>
<!-- Node1&#45;&gt;Node25 -->
<g id="edge48_Node000001_Node000025" class="edge">
<title>Node1&#45;&gt;Node25</title>
<g id="a_edge48_Node000001_Node000025"><a xlink:title=" ">
<path fill="none" stroke="#63b8ff" d="M865.3,-362.88C765.84,-356.59 556.94,-340.84 489,-316 389.71,-279.7 291.5,-199.66 244.56,-157.95"/>
<polygon fill="#63b8ff" stroke="#63b8ff" points="246.72,-155.18 236.94,-151.11 242.04,-160.39 246.72,-155.18"/>
</a>
</g>
</g>
<!-- Node26 -->
<g id="Node000026" class="node">
<title>Node26</title>
<g id="a_Node000026"><a xlink:href="toads__turnpike__displaylists_8h.html" target="_top" xlink:title=" ">
<polygon fill="white" stroke="#666666" points="426.5,-151 295.5,-151 295.5,-110 426.5,-110 426.5,-151"/>
<text text-anchor="start" x="303.5" y="-139" font-family="Helvetica,sans-Serif" font-size="10.00">assets/models/tracks</text>
<text text-anchor="start" x="303.5" y="-128" font-family="Helvetica,sans-Serif" font-size="10.00">/toads_turnpike/toads</text>
<text text-anchor="middle" x="361" y="-117" font-family="Helvetica,sans-Serif" font-size="10.00">_turnpike_displaylists.h</text>
</a>
</g>
</g>
<!-- Node1&#45;&gt;Node26 -->
<g id="edge52_Node000001_Node000026" class="edge">
<title>Node1&#45;&gt;Node26</title>
<g id="a_edge52_Node000001_Node000026"><a xlink:title=" ">
<path fill="none" stroke="#63b8ff" d="M865.44,-366.77C790.06,-366.14 649.51,-358.61 539,-316 458.82,-285.09 429.06,-276.55 380,-206 370.86,-192.86 366.12,-175.69 363.65,-161.14"/>
<polygon fill="#63b8ff" stroke="#63b8ff" points="367.1,-160.52 362.23,-151.11 360.17,-161.5 367.1,-160.52"/>
</a>
</g>
</g>
<!-- Node27 -->
<g id="Node000027" class="node">
<title>Node27</title>
<g id="a_Node000027"><a xlink:href="models_2tracks_2toads__turnpike_2toads__turnpike__data_8h.html" target="_top" xlink:title=" ">
<polygon fill="white" stroke="#666666" points="643,-151 521,-151 521,-110 643,-110 643,-151"/>
<text text-anchor="start" x="529" y="-139" font-family="Helvetica,sans-Serif" font-size="10.00">assets/models/tracks</text>
<text text-anchor="start" x="529" y="-128" font-family="Helvetica,sans-Serif" font-size="10.00">/toads_turnpike/toads</text>
<text text-anchor="middle" x="582" y="-117" font-family="Helvetica,sans-Serif" font-size="10.00">_turnpike_data.h</text>
</a>
</g>
</g>
<!-- Node1&#45;&gt;Node27 -->
<g id="edge56_Node000001_Node000027" class="edge">
<title>Node1&#45;&gt;Node27</title>
<g id="a_edge56_Node000001_Node000027"><a xlink:title=" ">
<path fill="none" stroke="#63b8ff" d="M922.76,-351.55C930.62,-317.67 944.63,-232.57 901,-187 864.22,-148.59 721.63,-161.11 653.27,-150.84"/>
<polygon fill="#63b8ff" stroke="#63b8ff" points="653.81,-147.38 643.35,-149.07 652.58,-154.27 653.81,-147.38"/>
</a>
</g>
</g>
<!-- Node4 -->
<g id="Node000004" class="node">
<title>Node4</title>
<g id="a_Node000004"><a xlink:title=" ">
<polygon fill="#e0e0e0" stroke="#999999" points="774,-261 636,-261 636,-242 774,-242 774,-261"/>
<text text-anchor="middle" x="705" y="-249" font-family="Helvetica,sans-Serif" font-size="10.00">libultraship/libultraship.h</text>
</a>
</g>
</g>
<!-- Node3&#45;&gt;Node4 -->
<g id="edge3_Node000003_Node000004" class="edge">
<title>Node3&#45;&gt;Node4</title>
<g id="a_edge3_Node000003_Node000004"><a xlink:title=" ">
<path fill="none" stroke="#63b8ff" d="M828.38,-296.98C804.1,-288.23 766.05,-274.51 738.63,-264.62"/>
<polygon fill="#63b8ff" stroke="#63b8ff" points="739.64,-261.27 729.05,-261.17 737.27,-267.85 739.64,-261.27"/>
</a>
</g>
</g>
<!-- Node5 -->
<g id="Node000005" class="node">
<title>Node5</title>
<g id="a_Node000005"><a xlink:href="CoreMath_8h.html" target="_top" xlink:title=" ">
<polygon fill="white" stroke="#666666" points="109.5,-206 36.5,-206 36.5,-187 109.5,-187 109.5,-206"/>
<text text-anchor="middle" x="73" y="-194" font-family="Helvetica,sans-Serif" font-size="10.00">CoreMath.h</text>
</a>
</g>
</g>
<!-- Node3&#45;&gt;Node5 -->
<g id="edge4_Node000003_Node000005" class="edge">
<title>Node3&#45;&gt;Node5</title>
<g id="a_edge4_Node000003_Node000005"><a xlink:title=" ">
<path fill="none" stroke="#63b8ff" d="M822.18,-302.08C760.6,-294.95 614.95,-277.77 493,-261 357.18,-242.32 197.14,-217.28 119.68,-204.97"/>
<polygon fill="#63b8ff" stroke="#63b8ff" points="120.18,-201.51 109.75,-203.39 119.08,-208.42 120.18,-201.51"/>
</a>
</g>
</g>
<!-- Node3&#45;&gt;Node6 -->
<g id="edge6_Node000003_Node000006" class="edge">
<title>Node3&#45;&gt;Node6</title>
<g id="a_edge6_Node000003_Node000006"><a xlink:title=" ">
<path fill="none" stroke="#63b8ff" d="M822.27,-305.24C753.94,-304 588.52,-297.26 549,-261 536.88,-249.88 533.68,-230.95 533.19,-216.64"/>
<polygon fill="#63b8ff" stroke="#63b8ff" points="536.69,-216.42 533.25,-206.4 529.69,-216.38 536.69,-216.42"/>
</a>
</g>
</g>
<!-- Node7 -->
<g id="Node000007" class="node">
<title>Node7</title>
<g id="a_Node000007"><a xlink:href="common__structs_8h.html" target="_top" xlink:title=" ">
<polygon fill="white" stroke="#666666" points="1153.5,-74 1046.5,-74 1046.5,-55 1153.5,-55 1153.5,-74"/>
<text text-anchor="middle" x="1100" y="-62" font-family="Helvetica,sans-Serif" font-size="10.00">common_structs.h</text>
</a>
</g>
</g>
<!-- Node3&#45;&gt;Node7 -->
<g id="edge47_Node000003_Node000007" class="edge">
<title>Node3&#45;&gt;Node7</title>
<g id="a_edge47_Node000003_Node000007"><a xlink:title=" ">
<path fill="none" stroke="#63b8ff" d="M868.47,-296.83C916.86,-271.02 1056.96,-193.85 1085,-151 1098.12,-130.95 1100.73,-102.82 1100.82,-84.39"/>
<polygon fill="#63b8ff" stroke="#63b8ff" points="1104.32,-84.25 1100.63,-74.32 1097.32,-84.39 1104.32,-84.25"/>
</a>
</g>
</g>
<!-- Node3&#45;&gt;Node8 -->
<g id="edge10_Node000003_Node000008" class="edge">
<title>Node3&#45;&gt;Node8</title>
<g id="a_edge10_Node000003_Node000008"><a xlink:title=" ">
<path fill="none" stroke="#63b8ff" d="M822.34,-305.68C764.67,-305.11 634.21,-299.27 533,-261 503.12,-249.7 473.13,-227.76 454.81,-212.86"/>
<polygon fill="#63b8ff" stroke="#63b8ff" points="456.73,-209.91 446.81,-206.2 452.25,-215.29 456.73,-209.91"/>
</a>
</g>
</g>
<!-- Node3&#45;&gt;Node14 -->
<g id="edge19_Node000003_Node000014" class="edge">
<title>Node3&#45;&gt;Node14</title>
<g id="a_edge19_Node000003_Node000014"><a xlink:title=" ">
<path fill="none" stroke="#63b8ff" d="M881.5,-301.39C943.19,-292.78 1086.95,-272.73 1169.92,-261.16"/>
<polygon fill="#63b8ff" stroke="#63b8ff" points="1170.56,-264.6 1179.98,-259.76 1169.59,-257.67 1170.56,-264.6"/>
</a>
</g>
</g>
<!-- Node17 -->
<g id="Node000017" class="node">
<title>Node17</title>
<g id="a_Node000017"><a xlink:href="defines_8h.html" target="_top" xlink:title=" ">
<polygon fill="white" stroke="#666666" points="853.5,-261 792.5,-261 792.5,-242 853.5,-242 853.5,-261"/>
<text text-anchor="middle" x="823" y="-249" font-family="Helvetica,sans-Serif" font-size="10.00">defines.h</text>
</a>
</g>
</g>
<!-- Node3&#45;&gt;Node17 -->
<g id="edge27_Node000003_Node000017" class="edge">
<title>Node3&#45;&gt;Node17</title>
<g id="a_edge27_Node000003_Node000017"><a xlink:title=" ">
<path fill="none" stroke="#63b8ff" d="M847.21,-296.75C843.24,-289.49 837.47,-278.95 832.57,-269.98"/>
<polygon fill="#63b8ff" stroke="#63b8ff" points="835.57,-268.18 827.7,-261.09 829.43,-271.54 835.57,-268.18"/>
</a>
</g>
</g>
<!-- Node18 -->
<g id="Node000018" class="node">
<title>Node18</title>
<g id="a_Node000018"><a xlink:href="bomb__kart_8h.html" target="_top" xlink:title=" ">
<polygon fill="white" stroke="#666666" points="891.5,-206 814.5,-206 814.5,-187 891.5,-187 891.5,-206"/>
<text text-anchor="middle" x="853" y="-194" font-family="Helvetica,sans-Serif" font-size="10.00">bomb_kart.h</text>
</a>
</g>
</g>
<!-- Node3&#45;&gt;Node18 -->
<g id="edge28_Node000003_Node000018" class="edge">
<title>Node3&#45;&gt;Node18</title>
<g id="a_edge28_Node000003_Node000018"><a xlink:title=" ">
<path fill="none" stroke="#63b8ff" d="M854.83,-296.75C857.55,-287.86 861.46,-273.64 863,-261 864.86,-245.75 861.82,-228.54 858.62,-215.88"/>
<polygon fill="#63b8ff" stroke="#63b8ff" points="861.95,-214.79 855.89,-206.1 855.21,-216.67 861.95,-214.79"/>
</a>
</g>
</g>
<!-- Node3&#45;&gt;Node21 -->
<g id="edge35_Node000003_Node000021" class="edge">
<title>Node3&#45;&gt;Node21</title>
<g id="a_edge35_Node000003_Node000021"><a xlink:title=" ">
<path fill="none" stroke="#63b8ff" d="M881.52,-297.79C916.01,-288.79 973.36,-273.81 1012.61,-263.57"/>
<polygon fill="#63b8ff" stroke="#63b8ff" points="1013.63,-266.92 1022.42,-261.01 1011.86,-260.15 1013.63,-266.92"/>
</a>
</g>
</g>
<!-- Node22 -->
<g id="Node000022" class="node">
<title>Node22</title>
<g id="a_Node000022"><a xlink:href="waypoints_8h.html" target="_top" xlink:title=" ">
<polygon fill="white" stroke="#666666" points="1144,-206 1068,-206 1068,-187 1144,-187 1144,-206"/>
<text text-anchor="middle" x="1106" y="-194" font-family="Helvetica,sans-Serif" font-size="10.00">waypoints.h</text>
</a>
</g>
</g>
<!-- Node3&#45;&gt;Node22 -->
<g id="edge45_Node000003_Node000022" class="edge">
<title>Node3&#45;&gt;Node22</title>
<g id="a_edge45_Node000003_Node000022"><a xlink:title=" ">
<path fill="none" stroke="#63b8ff" d="M881.85,-305.44C947.46,-304.59 1100.92,-298.56 1133,-261 1144.73,-247.27 1133.29,-227.7 1121.89,-213.92"/>
<polygon fill="#63b8ff" stroke="#63b8ff" points="1124.28,-211.33 1115.01,-206.19 1119.05,-215.99 1124.28,-211.33"/>
</a>
</g>
</g>
<!-- Node24 -->
<g id="Node000024" class="node">
<title>Node24</title>
<g id="a_Node000024"><a xlink:href="sounds_8h.html" target="_top" xlink:title=" ">
<polygon fill="white" stroke="#666666" points="618,-261 558,-261 558,-242 618,-242 618,-261"/>
<text text-anchor="middle" x="588" y="-249" font-family="Helvetica,sans-Serif" font-size="10.00">sounds.h</text>
</a>
</g>
</g>
<!-- Node3&#45;&gt;Node24 -->
<g id="edge46_Node000003_Node000024" class="edge">
<title>Node3&#45;&gt;Node24</title>
<g id="a_edge46_Node000003_Node000024"><a xlink:title=" ">
<path fill="none" stroke="#63b8ff" d="M822.48,-299.85C781.29,-291.93 703.99,-276.91 628.39,-261.26"/>
<polygon fill="#63b8ff" stroke="#63b8ff" points="628.72,-257.75 618.22,-259.15 627.3,-264.61 628.72,-257.75"/>
</a>
</g>
</g>
<!-- Node5&#45;&gt;Node2 -->
<g id="edge5_Node000005_Node000002" class="edge">
<title>Node5&#45;&gt;Node2</title>
<g id="a_edge5_Node000005_Node000002"><a xlink:title=" ">
<path fill="none" stroke="#63b8ff" d="M55.23,-186.96C41.99,-179.51 24.88,-167.33 17,-151 -1.61,-112.44 -5.47,-85.08 25,-55 64.34,-16.16 226.97,-10.36 310.69,-10.03"/>
<polygon fill="#63b8ff" stroke="#63b8ff" points="310.74,-13.53 320.74,-10.01 310.73,-6.53 310.74,-13.53"/>
</a>
</g>
</g>
<!-- Node6&#45;&gt;Node2 -->
<g id="edge7_Node000006_Node000002" class="edge">
<title>Node6&#45;&gt;Node2</title>
<g id="a_edge7_Node000006_Node000002"><a xlink:title=" ">
<path fill="none" stroke="#63b8ff" d="M502.62,-188.45C499.72,-187.91 496.81,-187.42 494,-187 447.67,-180.12 105.67,-185.5 74,-151 45.15,-119.57 46.24,-87.4 74,-55 103.92,-20.08 236.93,-12.33 310.92,-10.76"/>
<polygon fill="#63b8ff" stroke="#63b8ff" points="311.01,-14.26 320.95,-10.58 310.89,-7.26 311.01,-14.26"/>
</a>
</g>
</g>
<!-- Node6&#45;&gt;Node7 -->
<g id="edge8_Node000006_Node000007" class="edge">
<title>Node6&#45;&gt;Node7</title>
<g id="a_edge8_Node000006_Node000007"><a xlink:title=" ">
<path fill="none" stroke="#63b8ff" d="M565.27,-194.08C666.9,-189.26 983.62,-172.63 1024,-151 1044.62,-139.95 1041.52,-127.54 1057,-110 1065.62,-100.23 1075.72,-89.73 1083.96,-81.39"/>
<polygon fill="#63b8ff" stroke="#63b8ff" points="1086.61,-83.69 1091.19,-74.14 1081.65,-78.75 1086.61,-83.69"/>
</a>
</g>
</g>
<!-- Node7&#45;&gt;Node2 -->
<g id="edge9_Node000007_Node000002" class="edge">
<title>Node7&#45;&gt;Node2</title>
<g id="a_edge9_Node000007_Node000002"><a xlink:title=" ">
<path fill="none" stroke="#63b8ff" d="M1046.26,-59.65C908.68,-49.78 545.21,-23.71 411.39,-14.11"/>
<polygon fill="#63b8ff" stroke="#63b8ff" points="411.63,-10.62 401.41,-13.4 411.13,-17.6 411.63,-10.62"/>
</a>
</g>
</g>
<!-- Node8&#45;&gt;Node2 -->
<g id="edge11_Node000008_Node000002" class="edge">
<title>Node8&#45;&gt;Node2</title>
<g id="a_edge11_Node000008_Node000002"><a xlink:title=" ">
<path fill="none" stroke="#63b8ff" d="M388.74,-193.61C288.23,-189.19 63.82,-176.53 41,-151 12.56,-119.19 12.98,-87.18 41,-55 75.32,-15.58 229.29,-9.97 310.49,-9.84"/>
<polygon fill="#63b8ff" stroke="#63b8ff" points="310.97,-13.34 320.97,-9.85 310.97,-6.34 310.97,-13.34"/>
</a>
</g>
</g>
<!-- Node9 -->
<g id="Node000009" class="node">
<title>Node9</title>
<g id="a_Node000009"><a xlink:title=" ">
<polygon fill="#e0e0e0" stroke="#999999" points="90,-19 0,-19 0,0 90,0 90,-19"/>
<text text-anchor="middle" x="45" y="-7" font-family="Helvetica,sans-Serif" font-size="10.00">libultra/types.h</text>
</a>
</g>
</g>
<!-- Node8&#45;&gt;Node9 -->
<g id="edge12_Node000008_Node000009" class="edge">
<title>Node8&#45;&gt;Node9</title>
<g id="a_edge12_Node000008_Node000009"><a xlink:title=" ">
<path fill="none" stroke="#63b8ff" d="M388.63,-193.94C283.47,-190.06 41.49,-178.22 17,-151 -14.24,-116.28 15.41,-56.9 33.44,-27.72"/>
<polygon fill="#63b8ff" stroke="#63b8ff" points="36.54,-29.37 39,-19.06 30.65,-25.58 36.54,-29.37"/>
</a>
</g>
</g>
<!-- Node10 -->
<g id="Node000010" class="node">
<title>Node10</title>
<g id="a_Node000010"><a xlink:title=" ">
<polygon fill="#e0e0e0" stroke="#999999" points="480,-74 402,-74 402,-55 480,-55 480,-74"/>
<text text-anchor="middle" x="441" y="-62" font-family="Helvetica,sans-Serif" font-size="10.00">libultra/gbi.h</text>
</a>
</g>
</g>
<!-- Node8&#45;&gt;Node10 -->
<g id="edge13_Node000008_Node000010" class="edge">
<title>Node8&#45;&gt;Node10</title>
<g id="a_edge13_Node000008_Node000010"><a xlink:title=" ">
<path fill="none" stroke="#63b8ff" d="M437.26,-186.97C437.9,-166.32 439.53,-113.22 440.41,-84.54"/>
<polygon fill="#63b8ff" stroke="#63b8ff" points="443.92,-84.33 440.73,-74.23 436.93,-84.12 443.92,-84.33"/>
</a>
</g>
</g>
<!-- Node11 -->
<g id="Node000011" class="node">
<title>Node11</title>
<g id="a_Node000011"><a xlink:href="other__textures_8h.html" target="_top" xlink:title=" ">
<polygon fill="white" stroke="#666666" points="921,-145.5 801,-145.5 801,-115.5 921,-115.5 921,-145.5"/>
<text text-anchor="start" x="809" y="-133.5" font-family="Helvetica,sans-Serif" font-size="10.00">assets/textures/other</text>
<text text-anchor="middle" x="861" y="-122.5" font-family="Helvetica,sans-Serif" font-size="10.00">_textures.h</text>
</a>
</g>
</g>
<!-- Node8&#45;&gt;Node11 -->
<g id="edge14_Node000008_Node000011" class="edge">
<title>Node8&#45;&gt;Node11</title>
<g id="a_edge14_Node000008_Node000011"><a xlink:title=" ">
<path fill="none" stroke="#63b8ff" d="M485.19,-188.22C488.17,-187.8 491.12,-187.39 494,-187 626.21,-169.16 661.19,-177.22 792,-151 796.37,-150.12 800.88,-149.11 805.39,-148.01"/>
<polygon fill="#63b8ff" stroke="#63b8ff" points="806.39,-151.37 815.22,-145.51 804.66,-144.59 806.39,-151.37"/>
</a>
</g>
</g>
<!-- Node13 -->
<g id="Node000013" class="node">
<title>Node13</title>
<g id="a_Node000013"><a xlink:href="animation_8h.html" target="_top" xlink:title=" ">
<polygon fill="white" stroke="#666666" points="1014.5,-140 939.5,-140 939.5,-121 1014.5,-121 1014.5,-140"/>
<text text-anchor="middle" x="977" y="-128" font-family="Helvetica,sans-Serif" font-size="10.00">animation.h</text>
</a>
</g>
</g>
<!-- Node8&#45;&gt;Node13 -->
<g id="edge17_Node000008_Node000013" class="edge">
<title>Node8&#45;&gt;Node13</title>
<g id="a_edge17_Node000008_Node000013"><a xlink:title=" ">
<path fill="none" stroke="#63b8ff" d="M485.17,-188.09C488.16,-187.7 491.12,-187.33 494,-187 687.15,-164.65 741.04,-196.81 930,-151 936.92,-149.32 944.15,-146.77 950.79,-144.05"/>
<polygon fill="#63b8ff" stroke="#63b8ff" points="952.24,-147.24 960.02,-140.05 949.46,-140.82 952.24,-147.24"/>
</a>
</g>
</g>
<!-- Node11&#45;&gt;Node2 -->
<g id="edge15_Node000011_Node000002" class="edge">
<title>Node11&#45;&gt;Node2</title>
<g id="a_edge15_Node000011_Node000002"><a xlink:title=" ">
<path fill="none" stroke="#63b8ff" d="M830.95,-115.46C793.57,-98.57 727.41,-70.56 668,-55 579.35,-31.78 472.92,-19.77 411.51,-14.32"/>
<polygon fill="#63b8ff" stroke="#63b8ff" points="411.58,-10.82 401.31,-13.44 410.97,-17.79 411.58,-10.82"/>
</a>
</g>
</g>
<!-- Node12 -->
<g id="Node000012" class="node">
<title>Node12</title>
<g id="a_Node000012"><a xlink:href="align__asset__macro_8h.html" target="_top" xlink:title=" ">
<polygon fill="white" stroke="#666666" points="615.5,-74 498.5,-74 498.5,-55 615.5,-55 615.5,-74"/>
<text text-anchor="middle" x="557" y="-62" font-family="Helvetica,sans-Serif" font-size="10.00">align_asset_macro.h</text>
</a>
</g>
</g>
<!-- Node11&#45;&gt;Node12 -->
<g id="edge16_Node000011_Node000012" class="edge">
<title>Node11&#45;&gt;Node12</title>
<g id="a_edge16_Node000011_Node000012"><a xlink:title=" ">
<path fill="none" stroke="#63b8ff" d="M813.26,-115.42C806.16,-113.5 798.91,-111.63 792,-110 733.82,-96.3 666.78,-83.94 619.22,-75.74"/>
<polygon fill="#63b8ff" stroke="#63b8ff" points="619.53,-72.24 609.08,-74 618.35,-79.14 619.53,-72.24"/>
</a>
</g>
</g>
<!-- Node13&#45;&gt;Node7 -->
<g id="edge18_Node000013_Node000007" class="edge">
<title>Node13&#45;&gt;Node7</title>
<g id="a_edge18_Node000013_Node000007"><a xlink:title=" ">
<path fill="none" stroke="#63b8ff" d="M993.59,-120.87C1014.31,-110.09 1050,-91.52 1074.28,-78.88"/>
<polygon fill="#63b8ff" stroke="#63b8ff" points="1076.03,-81.92 1083.28,-74.2 1072.8,-75.71 1076.03,-81.92"/>
</a>
</g>
</g>
<!-- Node14&#45;&gt;Node10 -->
<g id="edge20_Node000014_Node000010" class="edge">
<title>Node14&#45;&gt;Node10</title>
<g id="a_edge20_Node000014_Node000010"><a xlink:title=" ">
<path fill="none" stroke="#63b8ff" d="M1222.88,-241.96C1205.7,-226.09 1168.85,-193.09 1153,-187 1019.81,-135.86 639.4,-215.22 512,-151 482.68,-136.22 460.97,-103.32 449.71,-82.91"/>
<polygon fill="#63b8ff" stroke="#63b8ff" points="452.79,-81.25 445.03,-74.03 446.59,-84.51 452.79,-81.25"/>
</a>
</g>
</g>
<!-- Node14&#45;&gt;Node11 -->
<g id="edge23_Node000014_Node000011" class="edge">
<title>Node14&#45;&gt;Node11</title>
<g id="a_edge23_Node000014_Node000011"><a xlink:title=" ">
<path fill="none" stroke="#63b8ff" d="M1228.43,-241.78C1222.15,-227.66 1207.69,-200.06 1186,-187 1087.95,-127.95 1043.04,-174.41 931,-151 926.83,-150.13 922.55,-149.15 918.25,-148.1"/>
<polygon fill="#63b8ff" stroke="#63b8ff" points="918.79,-144.63 908.24,-145.57 917.07,-151.42 918.79,-144.63"/>
</a>
</g>
</g>
<!-- Node15 -->
<g id="Node000015" class="node">
<title>Node15</title>
<g id="a_Node000015"><a xlink:href="spline_8h.html" target="_top" xlink:title=" ">
<polygon fill="white" stroke="#666666" points="1278.5,-140 1223.5,-140 1223.5,-121 1278.5,-121 1278.5,-140"/>
<text text-anchor="middle" x="1251" y="-128" font-family="Helvetica,sans-Serif" font-size="10.00">spline.h</text>
</a>
</g>
</g>
<!-- Node14&#45;&gt;Node15 -->
<g id="edge21_Node000014_Node000015" class="edge">
<title>Node14&#45;&gt;Node15</title>
<g id="a_edge21_Node000014_Node000015"><a xlink:title=" ">
<path fill="none" stroke="#63b8ff" d="M1233.37,-241.94C1236.41,-222.91 1243.78,-176.69 1247.97,-150.47"/>
<polygon fill="#63b8ff" stroke="#63b8ff" points="1251.47,-150.73 1249.59,-140.3 1244.56,-149.62 1251.47,-150.73"/>
</a>
</g>
</g>
<!-- Node14&#45;&gt;Node16 -->
<g id="edge24_Node000014_Node000016" class="edge">
<title>Node14&#45;&gt;Node16</title>
<g id="a_edge24_Node000014_Node000016"><a xlink:title=" ">
<path fill="none" stroke="#63b8ff" d="M1244.05,-241.98C1255.46,-233.92 1272.83,-221.65 1286.43,-212.03"/>
<polygon fill="#63b8ff" stroke="#63b8ff" points="1288.58,-214.8 1294.73,-206.17 1284.54,-209.08 1288.58,-214.8"/>
</a>
</g>
</g>
<!-- Node15&#45;&gt;Node7 -->
<g id="edge22_Node000015_Node000007" class="edge">
<title>Node15&#45;&gt;Node7</title>
<g id="a_edge22_Node000015_Node000007"><a xlink:title=" ">
<path fill="none" stroke="#63b8ff" d="M1233.1,-120.96C1225.68,-117.48 1216.96,-113.47 1209,-110 1183,-98.67 1153.17,-86.55 1131.29,-77.82"/>
<polygon fill="#63b8ff" stroke="#63b8ff" points="1132.43,-74.51 1121.84,-74.07 1129.84,-81.01 1132.43,-74.51"/>
</a>
</g>
</g>
<!-- Node16&#45;&gt;Node7 -->
<g id="edge26_Node000016_Node000007" class="edge">
<title>Node16&#45;&gt;Node7</title>
<g id="a_edge26_Node000016_Node000007"><a xlink:title=" ">
<path fill="none" stroke="#63b8ff" d="M1307.82,-186.85C1308.95,-169.67 1308.82,-131.11 1288,-110 1270.68,-92.44 1211.24,-80.37 1163.77,-73.28"/>
<polygon fill="#63b8ff" stroke="#63b8ff" points="1164.24,-69.81 1153.84,-71.84 1163.24,-76.74 1164.24,-69.81"/>
</a>
</g>
</g>
<!-- Node16&#45;&gt;Node15 -->
<g id="edge25_Node000016_Node000015" class="edge">
<title>Node16&#45;&gt;Node15</title>
<g id="a_edge25_Node000016_Node000015"><a xlink:title=" ">
<path fill="none" stroke="#63b8ff" d="M1299.45,-186.87C1290.81,-177 1276.47,-160.61 1265.63,-148.22"/>
<polygon fill="#63b8ff" stroke="#63b8ff" points="1268.01,-145.63 1258.79,-140.41 1262.74,-150.24 1268.01,-145.63"/>
</a>
</g>
</g>
<!-- Node18&#45;&gt;Node7 -->
<g id="edge29_Node000018_Node000007" class="edge">
<title>Node18&#45;&gt;Node7</title>
<g id="a_edge29_Node000018_Node000007"><a xlink:title=" ">
<path fill="none" stroke="#63b8ff" d="M891.93,-188.87C947.43,-179.14 1044.04,-161.05 1057,-151 1078.61,-134.24 1090.21,-103.68 1095.73,-84"/>
<polygon fill="#63b8ff" stroke="#63b8ff" points="1099.18,-84.65 1098.26,-74.1 1092.4,-82.92 1099.18,-84.65"/>
</a>
</g>
</g>
<!-- Node19 -->
<g id="Node000019" class="node">
<title>Node19</title>
<g id="a_Node000019"><a xlink:href="mk64_8h.html" target="_top" xlink:title=" ">
<polygon fill="white" stroke="#666666" points="136.5,-140 83.5,-140 83.5,-121 136.5,-121 136.5,-140"/>
<text text-anchor="middle" x="110" y="-128" font-family="Helvetica,sans-Serif" font-size="10.00">mk64.h</text>
</a>
</g>
</g>
<!-- Node18&#45;&gt;Node19 -->
<g id="edge30_Node000018_Node000019" class="edge">
<title>Node18&#45;&gt;Node19</title>
<g id="a_edge30_Node000018_Node000019"><a xlink:title=" ">
<path fill="none" stroke="#63b8ff" d="M814.2,-194.04C675.67,-188.67 210.28,-169.46 146,-151 141.13,-149.6 136.19,-147.47 131.58,-145.13"/>
<polygon fill="#63b8ff" stroke="#63b8ff" points="133.18,-142.01 122.74,-140.17 129.75,-148.11 133.18,-142.01"/>
</a>
</g>
</g>
<!-- Node19&#45;&gt;Node2 -->
<g id="edge31_Node000019_Node000002" class="edge">
<title>Node19&#45;&gt;Node2</title>
<g id="a_edge31_Node000019_Node000002"><a xlink:title=" ">
<path fill="none" stroke="#63b8ff" d="M125.3,-120.93C131.66,-117.45 139.14,-113.44 146,-110 211.86,-76.97 290.82,-41.44 332.31,-23.09"/>
<polygon fill="#63b8ff" stroke="#63b8ff" points="333.8,-26.26 341.53,-19.02 330.97,-19.85 333.8,-26.26"/>
</a>
</g>
</g>
<!-- Node19&#45;&gt;Node10 -->
<g id="edge34_Node000019_Node000010" class="edge">
<title>Node19&#45;&gt;Node10</title>
<g id="a_edge34_Node000019_Node000010"><a xlink:title=" ">
<path fill="none" stroke="#63b8ff" d="M123.17,-120.93C129.78,-117.01 138.05,-112.66 146,-110 229.4,-82.08 331.95,-71.62 391.56,-67.74"/>
<polygon fill="#63b8ff" stroke="#63b8ff" points="392.05,-71.22 401.81,-67.11 391.62,-64.23 392.05,-71.22"/>
</a>
</g>
</g>
<!-- Node20 -->
<g id="Node000020" class="node">
<title>Node20</title>
<g id="a_Node000020"><a xlink:href="string_8h.html" target="_top" xlink:title=" ">
<polygon fill="white" stroke="#666666" points="136.5,-74 83.5,-74 83.5,-55 136.5,-55 136.5,-74"/>
<text text-anchor="middle" x="110" y="-62" font-family="Helvetica,sans-Serif" font-size="10.00">string.h</text>
</a>
</g>
</g>
<!-- Node19&#45;&gt;Node20 -->
<g id="edge32_Node000019_Node000020" class="edge">
<title>Node19&#45;&gt;Node20</title>
<g id="a_edge32_Node000019_Node000020"><a xlink:title=" ">
<path fill="none" stroke="#63b8ff" d="M110,-120.87C110,-111.66 110,-96.79 110,-84.77"/>
<polygon fill="#63b8ff" stroke="#63b8ff" points="113.5,-84.41 110,-74.41 106.5,-84.41 113.5,-84.41"/>
</a>
</g>
</g>
<!-- Node20&#45;&gt;Node9 -->
<g id="edge33_Node000020_Node000009" class="edge">
<title>Node20&#45;&gt;Node9</title>
<g id="a_edge33_Node000020_Node000009"><a xlink:title=" ">
<path fill="none" stroke="#63b8ff" d="M99.56,-54.98C89.85,-47.07 75.18,-35.11 63.5,-25.58"/>
<polygon fill="#63b8ff" stroke="#63b8ff" points="65.6,-22.78 55.63,-19.17 61.17,-28.2 65.6,-22.78"/>
</a>
</g>
</g>
<!-- Node21&#45;&gt;Node7 -->
<g id="edge38_Node000021_Node000007" class="edge">
<title>Node21&#45;&gt;Node7</title>
<g id="a_edge38_Node000021_Node000007"><a xlink:title=" ">
<path fill="none" stroke="#63b8ff" d="M1053,-241.84C1050.51,-228.75 1047.81,-203.7 1059,-187 1079.36,-156.62 1113.6,-182.01 1133,-151 1142.66,-135.55 1138.72,-127.3 1133,-110 1129.54,-99.54 1122.57,-89.53 1115.92,-81.66"/>
<polygon fill="#63b8ff" stroke="#63b8ff" points="1118.33,-79.1 1109.02,-74.04 1113.14,-83.8 1118.33,-79.1"/>
</a>
</g>
</g>
<!-- Node21&#45;&gt;Node18 -->
<g id="edge44_Node000021_Node000018" class="edge">
<title>Node21&#45;&gt;Node18</title>
<g id="a_edge44_Node000021_Node000018"><a xlink:title=" ">
<path fill="none" stroke="#63b8ff" d="M1022.55,-241.98C988.04,-232.93 933.34,-218.58 895.44,-208.64"/>
<polygon fill="#63b8ff" stroke="#63b8ff" points="896.27,-205.23 885.71,-206.08 894.49,-212.01 896.27,-205.23"/>
</a>
</g>
</g>
<!-- Node21&#45;&gt;Node22 -->
<g id="edge36_Node000021_Node000022" class="edge">
<title>Node21&#45;&gt;Node22</title>
<g id="a_edge36_Node000021_Node000022"><a xlink:title=" ">
<path fill="none" stroke="#63b8ff" d="M1063.42,-241.75C1070.77,-234.11 1081.63,-222.82 1090.54,-213.56"/>
<polygon fill="#63b8ff" stroke="#63b8ff" points="1093.32,-215.72 1097.74,-206.09 1088.28,-210.87 1093.32,-215.72"/>
</a>
</g>
</g>
<!-- Node23 -->
<g id="Node000023" class="node">
<title>Node23</title>
<g id="a_Node000023"><a xlink:href="other_2common__data_8h.html" target="_top" xlink:title=" ">
<polygon fill="white" stroke="#666666" points="783,-145.5 661,-145.5 661,-115.5 783,-115.5 783,-145.5"/>
<text text-anchor="start" x="669" y="-133.5" font-family="Helvetica,sans-Serif" font-size="10.00">assets/other/common</text>
<text text-anchor="middle" x="722" y="-122.5" font-family="Helvetica,sans-Serif" font-size="10.00">_data.h</text>
</a>
</g>
</g>
<!-- Node21&#45;&gt;Node23 -->
<g id="edge39_Node000021_Node000023" class="edge">
<title>Node21&#45;&gt;Node23</title>
<g id="a_edge39_Node000021_Node000023"><a xlink:title=" ">
<path fill="none" stroke="#63b8ff" d="M1046.67,-241.98C1032.63,-228.13 1002.74,-200.92 972,-187 897.68,-153.34 871.35,-169.96 792,-151 788.18,-150.09 784.24,-149.11 780.29,-148.09"/>
<polygon fill="#63b8ff" stroke="#63b8ff" points="781.02,-144.66 770.46,-145.5 779.24,-151.43 781.02,-144.66"/>
</a>
</g>
</g>
<!-- Node22&#45;&gt;Node7 -->
<g id="edge37_Node000022_Node000007" class="edge">
<title>Node22&#45;&gt;Node7</title>
<g id="a_edge37_Node000022_Node000007"><a xlink:title=" ">
<path fill="none" stroke="#63b8ff" d="M1128.12,-186.95C1143.2,-179.82 1162.01,-168.06 1171,-151 1179.5,-134.88 1179.82,-125.94 1171,-110 1163.16,-95.83 1148.71,-85.57 1134.89,-78.5"/>
<polygon fill="#63b8ff" stroke="#63b8ff" points="1136.05,-75.18 1125.51,-74.1 1133.08,-81.52 1136.05,-75.18"/>
</a>
</g>
</g>
<!-- Node23&#45;&gt;Node2 -->
<g id="edge41_Node000023_Node000002" class="edge">
<title>Node23&#45;&gt;Node2</title>
<g id="a_edge41_Node000023_Node000002"><a xlink:title=" ">
<path fill="none" stroke="#63b8ff" d="M711.12,-115.32C696.98,-98.02 670.58,-69.31 641,-55 566.6,-19 469.33,-11.08 411.21,-9.89"/>
<polygon fill="#63b8ff" stroke="#63b8ff" points="411.23,-6.39 401.18,-9.75 411.12,-13.39 411.23,-6.39"/>
</a>
</g>
</g>
<!-- Node23&#45;&gt;Node7 -->
<g id="edge42_Node000023_Node000007" class="edge">
<title>Node23&#45;&gt;Node7</title>
<g id="a_edge42_Node000023_Node000007"><a xlink:title=" ">
<path fill="none" stroke="#63b8ff" d="M769.24,-115.45C776.81,-113.46 784.59,-111.56 792,-110 875.76,-92.36 973.81,-79.51 1036.38,-72.28"/>
<polygon fill="#63b8ff" stroke="#63b8ff" points="1036.96,-75.73 1046.49,-71.12 1036.16,-68.78 1036.96,-75.73"/>
</a>
</g>
</g>
<!-- Node23&#45;&gt;Node10 -->
<g id="edge40_Node000023_Node000010" class="edge">
<title>Node23&#45;&gt;Node10</title>
<g id="a_edge40_Node000023_Node000010"><a xlink:title=" ">
<path fill="none" stroke="#63b8ff" d="M673.15,-115.46C666.07,-113.55 658.86,-111.68 652,-110 596.79,-96.5 532.85,-83.36 489.95,-74.9"/>
<polygon fill="#63b8ff" stroke="#63b8ff" points="490.54,-71.45 480.06,-72.96 489.2,-78.32 490.54,-71.45"/>
</a>
</g>
</g>
<!-- Node23&#45;&gt;Node12 -->
<g id="edge43_Node000023_Node000012" class="edge">
<title>Node23&#45;&gt;Node12</title>
<g id="a_edge43_Node000023_Node000012"><a xlink:title=" ">
<path fill="none" stroke="#63b8ff" d="M685.79,-115.45C656.73,-104.18 616.33,-88.51 588.57,-77.75"/>
<polygon fill="#63b8ff" stroke="#63b8ff" points="589.55,-74.37 578.96,-74.02 587.02,-80.9 589.55,-74.37"/>
</a>
</g>
</g>
<!-- Node25&#45;&gt;Node2 -->
<g id="edge49_Node000025_Node000002" class="edge">
<title>Node25&#45;&gt;Node2</title>
<g id="a_edge49_Node000025_Node000002"><a xlink:title=" ">
<path fill="none" stroke="#63b8ff" d="M239.94,-109.85C268.71,-86.24 316.34,-47.15 342.46,-25.72"/>
<polygon fill="#63b8ff" stroke="#63b8ff" points="344.92,-28.22 350.43,-19.18 340.48,-22.81 344.92,-28.22"/>
</a>
</g>
</g>
<!-- Node25&#45;&gt;Node10 -->
<g id="edge50_Node000025_Node000010" class="edge">
<title>Node25&#45;&gt;Node10</title>
<g id="a_edge50_Node000025_Node000010"><a xlink:title=" ">
<path fill="none" stroke="#63b8ff" d="M277.19,-112.1C316.63,-100.88 366.77,-86.61 401.13,-76.84"/>
<polygon fill="#63b8ff" stroke="#63b8ff" points="402.16,-80.19 410.82,-74.08 400.25,-73.45 402.16,-80.19"/>
</a>
</g>
</g>
<!-- Node25&#45;&gt;Node12 -->
<g id="edge51_Node000025_Node000012" class="edge">
<title>Node25&#45;&gt;Node12</title>
<g id="a_edge51_Node000025_Node000012"><a xlink:title=" ">
<path fill="none" stroke="#63b8ff" d="M277.37,-112C280.28,-111.3 283.17,-110.63 286,-110 354.38,-94.91 433.49,-82.49 488.51,-74.64"/>
<polygon fill="#63b8ff" stroke="#63b8ff" points="489.09,-78.09 498.5,-73.23 488.11,-71.16 489.09,-78.09"/>
</a>
</g>
</g>
<!-- Node26&#45;&gt;Node2 -->
<g id="edge53_Node000026_Node000002" class="edge">
<title>Node26&#45;&gt;Node2</title>
<g id="a_edge53_Node000026_Node000002"><a xlink:title=" ">
<path fill="none" stroke="#63b8ff" d="M361,-109.85C361,-87.48 361,-51.19 361,-29.21"/>
<polygon fill="#63b8ff" stroke="#63b8ff" points="364.5,-29.18 361,-19.18 357.5,-29.18 364.5,-29.18"/>
</a>
</g>
</g>
<!-- Node26&#45;&gt;Node10 -->
<g id="edge54_Node000026_Node000010" class="edge">
<title>Node26&#45;&gt;Node10</title>
<g id="a_edge54_Node000026_Node000010"><a xlink:title=" ">
<path fill="none" stroke="#63b8ff" d="M385.44,-109.95C397.18,-100.55 411.05,-89.46 422,-80.7"/>
<polygon fill="#63b8ff" stroke="#63b8ff" points="424.43,-83.24 430.05,-74.26 420.05,-77.77 424.43,-83.24"/>
</a>
</g>
</g>
<!-- Node26&#45;&gt;Node12 -->
<g id="edge55_Node000026_Node000012" class="edge">
<title>Node26&#45;&gt;Node12</title>
<g id="a_edge55_Node000026_Node000012"><a xlink:title=" ">
<path fill="none" stroke="#63b8ff" d="M420.87,-109.95C453.66,-99.24 493.19,-86.34 521.19,-77.19"/>
<polygon fill="#63b8ff" stroke="#63b8ff" points="522.52,-80.44 530.94,-74.01 520.35,-73.78 522.52,-80.44"/>
</a>
</g>
</g>
<!-- Node27&#45;&gt;Node2 -->
<g id="edge57_Node000027_Node000002" class="edge">
<title>Node27&#45;&gt;Node2</title>
<g id="a_edge57_Node000027_Node000002"><a xlink:title=" ">
<path fill="none" stroke="#63b8ff" d="M606.12,-109.92C622.67,-94.14 639.27,-71.88 625,-55 598.17,-23.27 480.01,-14.15 411.2,-11.54"/>
<polygon fill="#63b8ff" stroke="#63b8ff" points="411.13,-8.04 401.01,-11.19 410.89,-15.03 411.13,-8.04"/>
</a>
</g>
</g>
<!-- Node27&#45;&gt;Node10 -->
<g id="edge58_Node000027_Node000010" class="edge">
<title>Node27&#45;&gt;Node10</title>
<g id="a_edge58_Node000027_Node000010"><a xlink:title=" ">
<path fill="none" stroke="#63b8ff" d="M538.93,-109.95C516.24,-99.65 489.06,-87.31 469.1,-78.25"/>
<polygon fill="#63b8ff" stroke="#63b8ff" points="470.48,-75.04 459.93,-74.09 467.59,-81.41 470.48,-75.04"/>
</a>
</g>
</g>
<!-- Node27&#45;&gt;Node12 -->
<g id="edge59_Node000027_Node000012" class="edge">
<title>Node27&#45;&gt;Node12</title>
<g id="a_edge59_Node000027_Node000012"><a xlink:title=" ">
<path fill="none" stroke="#63b8ff" d="M574.36,-109.95C571.09,-101.58 567.29,-91.85 564.09,-83.64"/>
<polygon fill="#63b8ff" stroke="#63b8ff" points="567.32,-82.3 560.42,-74.26 560.8,-84.85 567.32,-82.3"/>
</a>
</g>
</g>
</g>
</svg>

<g id="navigator" transform="translate(0 0)" fill="#404254">
  <rect fill="#f2f5e9" fill-opacity="0.5" stroke="#606060" stroke-width=".5" x="0" y="0" width="60" height="60"/>
  <use id="zoomplus" xlink:href="#zoomPlus" x="17" y="9" onmousedown="handleZoom(evt,'in')"/>
  <use id="zoomminus" xlink:href="#zoomMin" x="42" y="9" onmousedown="handleZoom(evt,'out')"/>
  <use id="reset" xlink:href="#resetDef" x="30" y="36" onmousedown="handleReset()"/>
   <use id="arrowup" xlink:href="#arrowUp" x="0" y="0" onmousedown="handlePan(0,-1)"/>
  <use id="arrowright" xlink:href="#arrowRight" x="0" y="0" onmousedown="handlePan(1,0)"/>
  <use id="arrowdown" xlink:href="#arrowDown" x="0" y="0" onmousedown="handlePan(0,1)"/>
  <use id="arrowleft" xlink:href="#arrowLeft" x="0" y="0" onmousedown="handlePan(-1,0)"/>
</g>
<svg viewBox="0 0 15 15" width="100%" height="30px" preserveAspectRatio="xMaxYMin meet">
 <g id="arrow_out" transform="scale(0.3 0.3)">
  <a xlink:href="ToadsTurnpike_8h__incl_org.svg" target="_base">
   <rect id="button" ry="5" rx="5" y="6" x="6" height="38" width="38"
        fill="#f2f5e9" fill-opacity="0.5" stroke="#606060" stroke-width="1.0"/>
   <path id="arrow"
     d="M 11.500037,31.436501 C 11.940474,20.09759 22.043105,11.32322 32.158766,21.979434 L 37.068811,17.246167 C 37.068811,17.246167 37.088388,32 37.088388,32 L 22.160133,31.978069 C 22.160133,31.978069 26.997745,27.140456 26.997745,27.140456 C 18.528582,18.264221 13.291696,25.230495 11.500037,31.436501 z"
     style="fill:#404040;"/>
  </a>
 </g>
</svg>

<style type='text/css'>
<![CDATA[
[data-mouse-over-selected='false'] { opacity: 0.7; }
[data-mouse-over-selected='true']  { opacity: 1.0; }
]]>
</style>
<script type="application/ecmascript"><![CDATA[
document.addEventListener('DOMContentLoaded', (event) => {
  highlightEdges();
  highlightAdjacentNodes();
});
]]></script>
</svg>
