<?xml version="1.0" encoding="UTF-8" standalone="no"?>
<!DOCTYPE svg PUBLIC "-//W3C//DTD SVG 1.1//EN"
 "http://www.w3.org/Graphics/SVG/1.1/DTD/svg11.dtd">
<!-- Generated by graphviz version 2.43.0 (0)
 -->
<!-- Title: include/assets/models/tracks/toads_turnpike/toads_turnpike_vertices.h Pages: 1 -->
<svg width="535pt" height="181pt"
 viewBox="0.00 0.00 535.00 181.00" xmlns="http://www.w3.org/2000/svg" xmlns:xlink="http://www.w3.org/1999/xlink">
<g id="graph0" class="graph" transform="scale(1 1) rotate(0) translate(4 177)">
<title>include/assets/models/tracks/toads_turnpike/toads_turnpike_vertices.h</title>
<!-- Node1 -->
<g id="Node000001" class="node">
<title>Node1</title>
<g id="a_Node000001"><a xlink:title=" ">
<polygon fill="#999999" stroke="#666666" points="263,-173 118,-173 118,-132 263,-132 263,-173"/>
<text text-anchor="start" x="126" y="-161" font-family="Helvetica,sans-Serif" font-size="10.00">include/assets/models</text>
<text text-anchor="start" x="126" y="-150" font-family="Helvetica,sans-Serif" font-size="10.00">/tracks/toads_turnpike</text>
<text text-anchor="middle" x="190.5" y="-139" font-family="Helvetica,sans-Serif" font-size="10.00">/toads_turnpike_vertices.h</text>
</a>
</g>
</g>
<!-- Node2 -->
<g id="Node000002" class="node">
<title>Node2</title>
<g id="a_Node000002"><a xlink:href="all__course__model_8h.html" target="_top" xlink:title=" ">
<polygon fill="white" stroke="#666666" points="182,-96 75,-96 75,-66 182,-66 182,-96"/>
<text text-anchor="start" x="83" y="-84" font-family="Helvetica,sans-Serif" font-size="10.00">courses/all_course</text>
<text text-anchor="middle" x="128.5" y="-73" font-family="Helvetica,sans-Serif" font-size="10.00">_model.h</text>
</a>
</g>
</g>
<!-- Node1&#45;&gt;Node2 -->
<g id="edge1_Node000001_Node000002" class="edge">
<title>Node1&#45;&gt;Node2</title>
<g id="a_edge1_Node000001_Node000002"><a xlink:title=" ">
<path fill="none" stroke="#63b8ff" d="M166.2,-124.26C157.59,-114.61 148.25,-104.14 141.02,-96.04"/>
<polygon fill="#63b8ff" stroke="#63b8ff" points="163.63,-126.64 172.9,-131.77 168.85,-121.98 163.63,-126.64"/>
</a>
</g>
</g>
<!-- Node4 -->
<g id="Node000004" class="node">
<title>Node4</title>
<g id="a_Node000004"><a xlink:href="ToadsTurnpike_8h.html" target="_top" xlink:title=" ">
<polygon fill="white" stroke="#666666" points="311,-96 204,-96 204,-66 311,-66 311,-96"/>
<text text-anchor="start" x="212" y="-84" font-family="Helvetica,sans-Serif" font-size="10.00">src/engine/courses</text>
<text text-anchor="middle" x="257.5" y="-73" font-family="Helvetica,sans-Serif" font-size="10.00">/ToadsTurnpike.h</text>
</a>
</g>
</g>
<!-- Node1&#45;&gt;Node4 -->
<g id="edge3_Node000001_Node000004" class="edge">
<title>Node1&#45;&gt;Node4</title>
<g id="a_edge3_Node000001_Node000004"><a xlink:title=" ">
<path fill="none" stroke="#63b8ff" d="M216.48,-124.55C225.87,-114.81 236.08,-104.22 243.97,-96.04"/>
<polygon fill="#63b8ff" stroke="#63b8ff" points="213.94,-122.14 209.52,-131.77 218.98,-127 213.94,-122.14"/>
</a>
</g>
</g>
<!-- Node3 -->
<g id="Node000003" class="node">
<title>Node3</title>
<g id="a_Node000003"><a xlink:href="courseTable_8c.html" target="_top" xlink:title=" ">
<polygon fill="white" stroke="#666666" points="123,-24.5 0,-24.5 0,-5.5 123,-5.5 123,-24.5"/>
<text text-anchor="middle" x="61.5" y="-12.5" font-family="Helvetica,sans-Serif" font-size="10.00">courses/courseTable.c</text>
</a>
</g>
</g>
<!-- Node2&#45;&gt;Node3 -->
<g id="edge2_Node000002_Node000003" class="edge">
<title>Node2&#45;&gt;Node3</title>
<g id="a_edge2_Node000002_Node000003"><a xlink:title=" ">
<path fill="none" stroke="#63b8ff" d="M106.1,-58.6C94.05,-47.1 79.84,-33.52 70.76,-24.84"/>
<polygon fill="#63b8ff" stroke="#63b8ff" points="103.98,-61.42 113.63,-65.8 108.82,-56.36 103.98,-61.42"/>
</a>
</g>
</g>
<!-- Node5 -->
<g id="Node000005" class="node">
<title>Node5</title>
<g id="a_Node000005"><a xlink:href="ToadsTurnpike_8cpp.html" target="_top" xlink:title=" ">
<polygon fill="white" stroke="#666666" points="249.5,-30 141.5,-30 141.5,0 249.5,0 249.5,-30"/>
<text text-anchor="start" x="149.5" y="-18" font-family="Helvetica,sans-Serif" font-size="10.00">src/engine/courses</text>
<text text-anchor="middle" x="195.5" y="-7" font-family="Helvetica,sans-Serif" font-size="10.00">/ToadsTurnpike.cpp</text>
</a>
</g>
</g>
<!-- Node4&#45;&gt;Node5 -->
<g id="edge4_Node000004_Node000005" class="edge">
<title>Node4&#45;&gt;Node5</title>
<g id="a_edge4_Node000004_Node000005"><a xlink:title=" ">
<path fill="none" stroke="#63b8ff" d="M236.54,-58.37C227.53,-49.06 217.24,-38.44 209.22,-30.16"/>
<polygon fill="#63b8ff" stroke="#63b8ff" points="234.27,-61.05 243.74,-65.8 239.3,-56.18 234.27,-61.05"/>
</a>
</g>
</g>
<!-- Node6 -->
<g id="Node000006" class="node">
<title>Node6</title>
<g id="a_Node000006"><a xlink:href="Game_8cpp.html" target="_top" xlink:title=" ">
<polygon fill="white" stroke="#666666" points="373.5,-24.5 267.5,-24.5 267.5,-5.5 373.5,-5.5 373.5,-24.5"/>
<text text-anchor="middle" x="320.5" y="-12.5" font-family="Helvetica,sans-Serif" font-size="10.00">src/port/Game.cpp</text>
</a>
</g>
</g>
<!-- Node4&#45;&gt;Node6 -->
<g id="edge5_Node000004_Node000006" class="edge">
<title>Node4&#45;&gt;Node6</title>
<g id="a_edge5_Node000004_Node000006"><a xlink:title=" ">
<path fill="none" stroke="#63b8ff" d="M278.56,-58.6C289.89,-47.1 303.25,-33.52 311.79,-24.84"/>
<polygon fill="#63b8ff" stroke="#63b8ff" points="276,-56.21 271.48,-65.8 280.99,-61.13 276,-56.21"/>
</a>
</g>
</g>
<!-- Node7 -->
<g id="Node000007" class="node">
<title>Node7</title>
<g id="a_Node000007"><a xlink:href="PortMenu_8cpp.html" target="_top" xlink:title=" ">
<polygon fill="white" stroke="#666666" points="527,-24.5 392,-24.5 392,-5.5 527,-5.5 527,-24.5"/>
<text text-anchor="middle" x="459.5" y="-12.5" font-family="Helvetica,sans-Serif" font-size="10.00">src/port/ui/PortMenu.cpp</text>
</a>
</g>
</g>
<!-- Node4&#45;&gt;Node7 -->
<g id="edge6_Node000004_Node000007" class="edge">
<title>Node4&#45;&gt;Node7</title>
<g id="a_edge6_Node000004_Node000007"><a xlink:title=" ">
<path fill="none" stroke="#63b8ff" d="M311.49,-62.89C350.61,-50.5 401.83,-34.27 432.62,-24.52"/>
<polygon fill="#63b8ff" stroke="#63b8ff" points="310.31,-59.6 301.83,-65.95 312.42,-66.27 310.31,-59.6"/>
</a>
</g>
</g>
</g>
</svg>
