<?xml version="1.0" encoding="UTF-8" standalone="no"?>
<!DOCTYPE svg PUBLIC "-//W3C//DTD SVG 1.1//EN"
 "http://www.w3.org/Graphics/SVG/1.1/DTD/svg11.dtd">
<!-- Generated by graphviz version 2.43.0 (0)
 -->
<!-- Title: src/port/resource/importers/TrackSectionsFactory.cpp Pages: 1 -->
<svg width="1019pt" height="280pt"
 viewBox="0.00 0.00 1019.00 280.00" xmlns="http://www.w3.org/2000/svg" xmlns:xlink="http://www.w3.org/1999/xlink">
<g id="graph0" class="graph" transform="scale(1 1) rotate(0) translate(4 276)">
<title>src/port/resource/importers/TrackSectionsFactory.cpp</title>
<!-- Node1 -->
<g id="Node000001" class="node">
<title>Node1</title>
<g id="a_Node000001"><a xlink:title=" ">
<polygon fill="#999999" stroke="#666666" points="789,-272 640,-272 640,-242 789,-242 789,-272"/>
<text text-anchor="start" x="648" y="-260" font-family="Helvetica,sans-Serif" font-size="10.00">src/port/resource/importers</text>
<text text-anchor="middle" x="714.5" y="-249" font-family="Helvetica,sans-Serif" font-size="10.00">/TrackSectionsFactory.cpp</text>
</a>
</g>
</g>
<!-- Node2 -->
<g id="Node000002" class="node">
<title>Node2</title>
<g id="a_Node000002"><a xlink:href="TrackSectionsFactory_8h.html" target="_top" xlink:title=" ">
<polygon fill="white" stroke="#666666" points="299.5,-200.5 173.5,-200.5 173.5,-181.5 299.5,-181.5 299.5,-200.5"/>
<text text-anchor="middle" x="236.5" y="-188.5" font-family="Helvetica,sans-Serif" font-size="10.00">TrackSectionsFactory.h</text>
</a>
</g>
</g>
<!-- Node1&#45;&gt;Node2 -->
<g id="edge1_Node000001_Node000002" class="edge">
<title>Node1&#45;&gt;Node2</title>
<g id="a_edge1_Node000001_Node000002"><a xlink:title=" ">
<path fill="none" stroke="#63b8ff" d="M639.81,-246C549.68,-233.93 399.12,-213.77 309.67,-201.8"/>
<polygon fill="#63b8ff" stroke="#63b8ff" points="309.98,-198.31 299.6,-200.45 309.05,-205.25 309.98,-198.31"/>
</a>
</g>
</g>
<!-- Node6 -->
<g id="Node000006" class="node">
<title>Node6</title>
<g id="a_Node000006"><a xlink:href="TrackSections_8h.html" target="_top" xlink:title=" ">
<polygon fill="white" stroke="#666666" points="590.5,-200.5 464.5,-200.5 464.5,-181.5 590.5,-181.5 590.5,-200.5"/>
<text text-anchor="middle" x="527.5" y="-188.5" font-family="Helvetica,sans-Serif" font-size="10.00">../type/TrackSections.h</text>
</a>
</g>
</g>
<!-- Node1&#45;&gt;Node6 -->
<g id="edge5_Node000001_Node000006" class="edge">
<title>Node1&#45;&gt;Node6</title>
<g id="a_edge5_Node000001_Node000006"><a xlink:title=" ">
<path fill="none" stroke="#63b8ff" d="M673.46,-241.95C640.09,-230.53 593.53,-214.6 562.04,-203.82"/>
<polygon fill="#63b8ff" stroke="#63b8ff" points="562.98,-200.44 552.39,-200.52 560.71,-207.07 562.98,-200.44"/>
</a>
</g>
</g>
<!-- Node14 -->
<g id="Node000014" class="node">
<title>Node14</title>
<g id="a_Node000014"><a xlink:title=" ">
<polygon fill="#e0e0e0" stroke="#999999" points="702,-200.5 609,-200.5 609,-181.5 702,-181.5 702,-200.5"/>
<text text-anchor="middle" x="655.5" y="-188.5" font-family="Helvetica,sans-Serif" font-size="10.00">spdlog/spdlog.h</text>
</a>
</g>
</g>
<!-- Node1&#45;&gt;Node14 -->
<g id="edge15_Node000001_Node000014" class="edge">
<title>Node1&#45;&gt;Node14</title>
<g id="a_edge15_Node000001_Node000014"><a xlink:title=" ">
<path fill="none" stroke="#63b8ff" d="M701.41,-241.8C692.3,-231.92 680.13,-218.72 670.61,-208.39"/>
<polygon fill="#63b8ff" stroke="#63b8ff" points="673,-205.82 663.65,-200.84 667.86,-210.57 673,-205.82"/>
</a>
</g>
</g>
<!-- Node15 -->
<g id="Node000015" class="node">
<title>Node15</title>
<g id="a_Node000015"><a xlink:title=" ">
<polygon fill="#e0e0e0" stroke="#999999" points="829,-206 720,-206 720,-176 829,-176 829,-206"/>
<text text-anchor="start" x="728" y="-194" font-family="Helvetica,sans-Serif" font-size="10.00">libultraship/libultra</text>
<text text-anchor="middle" x="774.5" y="-183" font-family="Helvetica,sans-Serif" font-size="10.00">/gbi.h</text>
</a>
</g>
</g>
<!-- Node1&#45;&gt;Node15 -->
<g id="edge16_Node000001_Node000015" class="edge">
<title>Node1&#45;&gt;Node15</title>
<g id="a_edge16_Node000001_Node000015"><a xlink:title=" ">
<path fill="none" stroke="#63b8ff" d="M727.82,-241.8C735.58,-233.51 745.54,-222.89 754.26,-213.59"/>
<polygon fill="#63b8ff" stroke="#63b8ff" points="756.94,-215.85 761.22,-206.16 751.83,-211.07 756.94,-215.85"/>
</a>
</g>
</g>
<!-- Node16 -->
<g id="Node000016" class="node">
<title>Node16</title>
<g id="a_Node000016"><a xlink:title=" ">
<polygon fill="#e0e0e0" stroke="#999999" points="923.5,-200.5 847.5,-200.5 847.5,-181.5 923.5,-181.5 923.5,-200.5"/>
<text text-anchor="middle" x="885.5" y="-188.5" font-family="Helvetica,sans-Serif" font-size="10.00">StrHash64.h</text>
</a>
</g>
</g>
<!-- Node1&#45;&gt;Node16 -->
<g id="edge17_Node000001_Node000016" class="edge">
<title>Node1&#45;&gt;Node16</title>
<g id="a_edge17_Node000001_Node000016"><a xlink:title=" ">
<path fill="none" stroke="#63b8ff" d="M752.03,-241.95C782.28,-230.63 824.38,-214.88 853.16,-204.1"/>
<polygon fill="#63b8ff" stroke="#63b8ff" points="854.6,-207.3 862.74,-200.52 852.15,-200.74 854.6,-207.3"/>
</a>
</g>
</g>
<!-- Node17 -->
<g id="Node000017" class="node">
<title>Node17</title>
<g id="a_Node000017"><a xlink:title=" ">
<polygon fill="#e0e0e0" stroke="#999999" points="1011,-200.5 942,-200.5 942,-181.5 1011,-181.5 1011,-200.5"/>
<text text-anchor="middle" x="976.5" y="-188.5" font-family="Helvetica,sans-Serif" font-size="10.00">tinyxml2.h</text>
</a>
</g>
</g>
<!-- Node1&#45;&gt;Node17 -->
<g id="edge18_Node000001_Node000017" class="edge">
<title>Node1&#45;&gt;Node17</title>
<g id="a_edge18_Node000001_Node000017"><a xlink:title=" ">
<path fill="none" stroke="#63b8ff" d="M782.13,-242C825.36,-232.67 882.5,-219.66 932.5,-206 935.33,-205.23 938.24,-204.39 941.17,-203.52"/>
<polygon fill="#63b8ff" stroke="#63b8ff" points="942.48,-206.78 951.01,-200.5 940.43,-200.09 942.48,-206.78"/>
</a>
</g>
</g>
<!-- Node3 -->
<g id="Node000003" class="node">
<title>Node3</title>
<g id="a_Node000003"><a xlink:title=" ">
<polygon fill="#e0e0e0" stroke="#999999" points="71,-134.5 0,-134.5 0,-115.5 71,-115.5 71,-134.5"/>
<text text-anchor="middle" x="35.5" y="-122.5" font-family="Helvetica,sans-Serif" font-size="10.00">Resource.h</text>
</a>
</g>
</g>
<!-- Node2&#45;&gt;Node3 -->
<g id="edge2_Node000002_Node000003" class="edge">
<title>Node2&#45;&gt;Node3</title>
<g id="a_edge2_Node000002_Node000003"><a xlink:title=" ">
<path fill="none" stroke="#63b8ff" d="M209.39,-181.37C173.93,-170.08 111.66,-150.25 72.05,-137.64"/>
<polygon fill="#63b8ff" stroke="#63b8ff" points="73.09,-134.3 62.5,-134.6 70.97,-140.97 73.09,-134.3"/>
</a>
</g>
</g>
<!-- Node4 -->
<g id="Node000004" class="node">
<title>Node4</title>
<g id="a_Node000004"><a xlink:title=" ">
<polygon fill="#e0e0e0" stroke="#999999" points="225.5,-134.5 89.5,-134.5 89.5,-115.5 225.5,-115.5 225.5,-134.5"/>
<text text-anchor="middle" x="157.5" y="-122.5" font-family="Helvetica,sans-Serif" font-size="10.00">ResourceFactoryBinary.h</text>
</a>
</g>
</g>
<!-- Node2&#45;&gt;Node4 -->
<g id="edge3_Node000002_Node000004" class="edge">
<title>Node2&#45;&gt;Node4</title>
<g id="a_edge3_Node000002_Node000004"><a xlink:title=" ">
<path fill="none" stroke="#63b8ff" d="M225.85,-181.37C213.12,-171.06 191.62,-153.65 176.13,-141.09"/>
<polygon fill="#63b8ff" stroke="#63b8ff" points="178.21,-138.27 168.24,-134.7 173.8,-143.71 178.21,-138.27"/>
</a>
</g>
</g>
<!-- Node5 -->
<g id="Node000005" class="node">
<title>Node5</title>
<g id="a_Node000005"><a xlink:title=" ">
<polygon fill="#e0e0e0" stroke="#999999" points="385.5,-140 243.5,-140 243.5,-110 385.5,-110 385.5,-140"/>
<text text-anchor="start" x="251.5" y="-128" font-family="Helvetica,sans-Serif" font-size="10.00">resource/ResourceFactory</text>
<text text-anchor="middle" x="314.5" y="-117" font-family="Helvetica,sans-Serif" font-size="10.00">XML.h</text>
</a>
</g>
</g>
<!-- Node2&#45;&gt;Node5 -->
<g id="edge4_Node000002_Node000005" class="edge">
<title>Node2&#45;&gt;Node5</title>
<g id="a_edge4_Node000002_Node000005"><a xlink:title=" ">
<path fill="none" stroke="#63b8ff" d="M247.02,-181.37C257.8,-172.53 274.95,-158.45 289.27,-146.71"/>
<polygon fill="#63b8ff" stroke="#63b8ff" points="291.79,-149.16 297.3,-140.12 287.35,-143.75 291.79,-149.16"/>
</a>
</g>
</g>
<!-- Node7 -->
<g id="Node000007" class="node">
<title>Node7</title>
<g id="a_Node000007"><a xlink:href="course_8h.html" target="_top" xlink:title=" ">
<polygon fill="white" stroke="#666666" points="499.5,-134.5 403.5,-134.5 403.5,-115.5 499.5,-115.5 499.5,-134.5"/>
<text text-anchor="middle" x="451.5" y="-122.5" font-family="Helvetica,sans-Serif" font-size="10.00">include/course.h</text>
</a>
</g>
</g>
<!-- Node6&#45;&gt;Node7 -->
<g id="edge6_Node000006_Node000007" class="edge">
<title>Node6&#45;&gt;Node7</title>
<g id="a_edge6_Node000006_Node000007"><a xlink:title=" ">
<path fill="none" stroke="#63b8ff" d="M517.25,-181.37C505.19,-171.21 484.94,-154.16 470.09,-141.65"/>
<polygon fill="#63b8ff" stroke="#63b8ff" points="471.98,-138.67 462.07,-134.91 467.47,-144.02 471.98,-138.67"/>
</a>
</g>
</g>
<!-- Node9 -->
<g id="Node000009" class="node">
<title>Node9</title>
<g id="a_Node000009"><a xlink:title=" ">
<polygon fill="#e0e0e0" stroke="#999999" points="572.5,-74 494.5,-74 494.5,-55 572.5,-55 572.5,-74"/>
<text text-anchor="middle" x="533.5" y="-62" font-family="Helvetica,sans-Serif" font-size="10.00">libultra/gbi.h</text>
</a>
</g>
</g>
<!-- Node6&#45;&gt;Node9 -->
<g id="edge14_Node000006_Node000009" class="edge">
<title>Node6&#45;&gt;Node9</title>
<g id="a_edge14_Node000006_Node000009"><a xlink:title=" ">
<path fill="none" stroke="#63b8ff" d="M527.91,-181.44C528.87,-161.54 531.27,-111.76 532.59,-84.35"/>
<polygon fill="#63b8ff" stroke="#63b8ff" points="536.1,-84.27 533.08,-74.12 529.11,-83.94 536.1,-84.27"/>
</a>
</g>
</g>
<!-- Node12 -->
<g id="Node000012" class="node">
<title>Node12</title>
<g id="a_Node000012"><a xlink:title=" ">
<polygon fill="#e0e0e0" stroke="#999999" points="671.5,-134.5 555.5,-134.5 555.5,-115.5 671.5,-115.5 671.5,-134.5"/>
<text text-anchor="middle" x="613.5" y="-122.5" font-family="Helvetica,sans-Serif" font-size="10.00">resource/Resource.h</text>
</a>
</g>
</g>
<!-- Node6&#45;&gt;Node12 -->
<g id="edge12_Node000006_Node000012" class="edge">
<title>Node6&#45;&gt;Node12</title>
<g id="a_edge12_Node000006_Node000012"><a xlink:title=" ">
<path fill="none" stroke="#63b8ff" d="M539.1,-181.37C553.08,-170.97 576.79,-153.32 593.68,-140.75"/>
<polygon fill="#63b8ff" stroke="#63b8ff" points="595.88,-143.48 601.81,-134.7 591.7,-137.86 595.88,-143.48"/>
</a>
</g>
</g>
<!-- Node13 -->
<g id="Node000013" class="node">
<title>Node13</title>
<g id="a_Node000013"><a xlink:title=" ">
<polygon fill="#e0e0e0" stroke="#999999" points="737,-134.5 690,-134.5 690,-115.5 737,-115.5 737,-134.5"/>
<text text-anchor="middle" x="713.5" y="-122.5" font-family="Helvetica,sans-Serif" font-size="10.00">vector</text>
</a>
</g>
</g>
<!-- Node6&#45;&gt;Node13 -->
<g id="edge13_Node000006_Node000013" class="edge">
<title>Node6&#45;&gt;Node13</title>
<g id="a_edge13_Node000006_Node000013"><a xlink:title=" ">
<path fill="none" stroke="#63b8ff" d="M555.95,-181.5C586.86,-172.08 637.58,-156.08 680.5,-140 681.88,-139.48 683.3,-138.94 684.72,-138.38"/>
<polygon fill="#63b8ff" stroke="#63b8ff" points="686.13,-141.58 694.07,-134.57 683.49,-135.1 686.13,-141.58"/>
</a>
</g>
</g>
<!-- Node8 -->
<g id="Node000008" class="node">
<title>Node8</title>
<g id="a_Node000008"><a xlink:title=" ">
<polygon fill="#e0e0e0" stroke="#999999" points="426.5,-19 346.5,-19 346.5,0 426.5,0 426.5,-19"/>
<text text-anchor="middle" x="386.5" y="-7" font-family="Helvetica,sans-Serif" font-size="10.00">libultraship.h</text>
</a>
</g>
</g>
<!-- Node7&#45;&gt;Node8 -->
<g id="edge7_Node000007_Node000008" class="edge">
<title>Node7&#45;&gt;Node8</title>
<g id="a_edge7_Node000007_Node000008"><a xlink:title=" ">
<path fill="none" stroke="#63b8ff" d="M441.27,-115.44C430.86,-106.22 414.95,-90.61 405.5,-74 397.58,-60.08 392.65,-42.52 389.81,-29.39"/>
<polygon fill="#63b8ff" stroke="#63b8ff" points="393.17,-28.35 387.82,-19.21 386.3,-29.69 393.17,-28.35"/>
</a>
</g>
</g>
<!-- Node7&#45;&gt;Node9 -->
<g id="edge8_Node000007_Node000009" class="edge">
<title>Node7&#45;&gt;Node9</title>
<g id="a_edge8_Node000007_Node000009"><a xlink:title=" ">
<path fill="none" stroke="#63b8ff" d="M463.6,-115.37C476.56,-106.12 497.36,-91.28 512.9,-80.19"/>
<polygon fill="#63b8ff" stroke="#63b8ff" points="515.24,-82.82 521.35,-74.17 511.18,-77.13 515.24,-82.82"/>
</a>
</g>
</g>
<!-- Node10 -->
<g id="Node000010" class="node">
<title>Node10</title>
<g id="a_Node000010"><a xlink:href="macros_8h.html" target="_top" xlink:title=" ">
<polygon fill="white" stroke="#666666" points="476.5,-74 414.5,-74 414.5,-55 476.5,-55 476.5,-74"/>
<text text-anchor="middle" x="445.5" y="-62" font-family="Helvetica,sans-Serif" font-size="10.00">macros.h</text>
</a>
</g>
</g>
<!-- Node7&#45;&gt;Node10 -->
<g id="edge9_Node000007_Node000010" class="edge">
<title>Node7&#45;&gt;Node10</title>
<g id="a_edge9_Node000007_Node000010"><a xlink:title=" ">
<path fill="none" stroke="#63b8ff" d="M450.61,-115.37C449.78,-107.25 448.51,-94.81 447.44,-84.39"/>
<polygon fill="#63b8ff" stroke="#63b8ff" points="450.89,-83.76 446.39,-74.17 443.93,-84.47 450.89,-83.76"/>
</a>
</g>
</g>
<!-- Node10&#45;&gt;Node8 -->
<g id="edge11_Node000010_Node000008" class="edge">
<title>Node10&#45;&gt;Node8</title>
<g id="a_edge11_Node000010_Node000008"><a xlink:title=" ">
<path fill="none" stroke="#63b8ff" d="M436.02,-54.98C427.3,-47.15 414.16,-35.34 403.6,-25.86"/>
<polygon fill="#63b8ff" stroke="#63b8ff" points="405.93,-23.25 396.15,-19.17 401.25,-28.46 405.93,-23.25"/>
</a>
</g>
</g>
<!-- Node11 -->
<g id="Node000011" class="node">
<title>Node11</title>
<g id="a_Node000011"><a xlink:href="math_8h.html" target="_top" xlink:title=" ">
<polygon fill="white" stroke="#666666" points="496,-19 445,-19 445,0 496,0 496,-19"/>
<text text-anchor="middle" x="470.5" y="-7" font-family="Helvetica,sans-Serif" font-size="10.00">math.h</text>
</a>
</g>
</g>
<!-- Node10&#45;&gt;Node11 -->
<g id="edge10_Node000010_Node000011" class="edge">
<title>Node10&#45;&gt;Node11</title>
<g id="a_edge10_Node000010_Node000011"><a xlink:title=" ">
<path fill="none" stroke="#63b8ff" d="M449.63,-54.75C453.01,-47.57 457.92,-37.18 462.12,-28.27"/>
<polygon fill="#63b8ff" stroke="#63b8ff" points="465.35,-29.63 466.45,-19.09 459.02,-26.64 465.35,-29.63"/>
</a>
</g>
</g>
</g>
</svg>
