<?xml version="1.0" encoding="UTF-8" standalone="no"?>
<!DOCTYPE svg PUBLIC "-//W3C//DTD SVG 1.1//EN"
 "http://www.w3.org/Graphics/SVG/1.1/DTD/svg11.dtd">
<!-- Generated by graphviz version 2.43.0 (0)
 -->
<!-- Title: src/port/resource/type/TrackSections.cpp Pages: 1 -->
<svg width="1020pt" height="445pt"
 viewBox="0.00 0.00 1020.02 445.00" xmlns="http://www.w3.org/2000/svg" xmlns:xlink="http://www.w3.org/1999/xlink">
<g id="graph0" class="graph" transform="scale(1 1) rotate(0) translate(4 441)">
<title>src/port/resource/type/TrackSections.cpp</title>
<!-- Node1 -->
<g id="Node000001" class="node">
<title>Node1</title>
<g id="a_Node000001"><a xlink:title=" ">
<polygon fill="#999999" stroke="#666666" points="595.02,-437 472.02,-437 472.02,-407 595.02,-407 595.02,-437"/>
<text text-anchor="start" x="480.02" y="-425" font-family="Helvetica,sans-Serif" font-size="10.00">src/port/resource/type</text>
<text text-anchor="middle" x="533.52" y="-414" font-family="Helvetica,sans-Serif" font-size="10.00">/TrackSections.cpp</text>
</a>
</g>
</g>
<!-- Node2 -->
<g id="Node000002" class="node">
<title>Node2</title>
<g id="a_Node000002"><a xlink:href="TrackSections_8h.html" target="_top" xlink:title=" ">
<polygon fill="white" stroke="#666666" points="487.52,-365.5 395.52,-365.5 395.52,-346.5 487.52,-346.5 487.52,-365.5"/>
<text text-anchor="middle" x="441.52" y="-353.5" font-family="Helvetica,sans-Serif" font-size="10.00">TrackSections.h</text>
</a>
</g>
</g>
<!-- Node1&#45;&gt;Node2 -->
<g id="edge1_Node000001_Node000002" class="edge">
<title>Node1&#45;&gt;Node2</title>
<g id="a_edge1_Node000001_Node000002"><a xlink:title=" ">
<path fill="none" stroke="#63b8ff" d="M513.1,-406.8C497.96,-396.27 477.41,-381.97 462.21,-371.4"/>
<polygon fill="#63b8ff" stroke="#63b8ff" points="464.17,-368.5 453.96,-365.66 460.17,-374.24 464.17,-368.5"/>
</a>
</g>
</g>
<!-- Node6 -->
<g id="Node000006" class="node">
<title>Node6</title>
<g id="a_Node000006"><a xlink:href="Track_8h.html" target="_top" xlink:title=" ">
<polygon fill="white" stroke="#666666" points="620.02,-305 483.02,-305 483.02,-286 620.02,-286 620.02,-305"/>
<text text-anchor="middle" x="551.52" y="-293" font-family="Helvetica,sans-Serif" font-size="10.00">src/engine/tracks/Track.h</text>
</a>
</g>
</g>
<!-- Node1&#45;&gt;Node6 -->
<g id="edge56_Node000001_Node000006" class="edge">
<title>Node1&#45;&gt;Node6</title>
<g id="a_edge56_Node000001_Node000006"><a xlink:title=" ">
<path fill="none" stroke="#63b8ff" d="M535.58,-406.72C538.85,-384.12 545.21,-340.12 548.83,-315.09"/>
<polygon fill="#63b8ff" stroke="#63b8ff" points="552.31,-315.47 550.28,-305.07 545.38,-314.47 552.31,-315.47"/>
</a>
</g>
</g>
<!-- Node31 -->
<g id="Node000031" class="node">
<title>Node31</title>
<g id="a_Node000031"><a xlink:title=" ">
<polygon fill="#e0e0e0" stroke="#999999" points="671.02,-371 562.02,-371 562.02,-341 671.02,-341 671.02,-371"/>
<text text-anchor="start" x="570.02" y="-359" font-family="Helvetica,sans-Serif" font-size="10.00">libultraship/libultra</text>
<text text-anchor="middle" x="616.52" y="-348" font-family="Helvetica,sans-Serif" font-size="10.00">/gbi.h</text>
</a>
</g>
</g>
<!-- Node1&#45;&gt;Node31 -->
<g id="edge55_Node000001_Node000031" class="edge">
<title>Node1&#45;&gt;Node31</title>
<g id="a_edge55_Node000001_Node000031"><a xlink:title=" ">
<path fill="none" stroke="#63b8ff" d="M551.94,-406.8C563.11,-398.18 577.56,-387.04 589.96,-377.48"/>
<polygon fill="#63b8ff" stroke="#63b8ff" points="592.36,-380.04 598.15,-371.16 588.09,-374.5 592.36,-380.04"/>
</a>
</g>
</g>
<!-- Node3 -->
<g id="Node000003" class="node">
<title>Node3</title>
<g id="a_Node000003"><a xlink:title=" ">
<polygon fill="#e0e0e0" stroke="#999999" points="400.02,-305 261.02,-305 261.02,-286 400.02,-286 400.02,-305"/>
<text text-anchor="middle" x="330.52" y="-293" font-family="Helvetica,sans-Serif" font-size="10.00">ship/resource/Resource.h</text>
</a>
</g>
</g>
<!-- Node2&#45;&gt;Node3 -->
<g id="edge2_Node000002_Node000003" class="edge">
<title>Node2&#45;&gt;Node3</title>
<g id="a_edge2_Node000002_Node000003"><a xlink:title=" ">
<path fill="none" stroke="#63b8ff" d="M425.14,-346.37C406.94,-336.78 377.32,-321.17 356.07,-309.97"/>
<polygon fill="#63b8ff" stroke="#63b8ff" points="357.44,-306.73 346.96,-305.17 354.18,-312.93 357.44,-306.73"/>
</a>
</g>
</g>
<!-- Node4 -->
<g id="Node000004" class="node">
<title>Node4</title>
<g id="a_Node000004"><a xlink:title=" ">
<polygon fill="#e0e0e0" stroke="#999999" points="465.02,-305 418.02,-305 418.02,-286 465.02,-286 465.02,-305"/>
<text text-anchor="middle" x="441.52" y="-293" font-family="Helvetica,sans-Serif" font-size="10.00">vector</text>
</a>
</g>
</g>
<!-- Node2&#45;&gt;Node4 -->
<g id="edge3_Node000002_Node000004" class="edge">
<title>Node2&#45;&gt;Node4</title>
<g id="a_edge3_Node000002_Node000004"><a xlink:title=" ">
<path fill="none" stroke="#63b8ff" d="M441.52,-346.37C441.52,-338.25 441.52,-325.81 441.52,-315.39"/>
<polygon fill="#63b8ff" stroke="#63b8ff" points="445.02,-315.17 441.52,-305.17 438.02,-315.17 445.02,-315.17"/>
</a>
</g>
</g>
<!-- Node5 -->
<g id="Node000005" class="node">
<title>Node5</title>
<g id="a_Node000005"><a xlink:title=" ">
<polygon fill="#e0e0e0" stroke="#999999" points="97.52,-74 19.52,-74 19.52,-55 97.52,-55 97.52,-74"/>
<text text-anchor="middle" x="58.52" y="-62" font-family="Helvetica,sans-Serif" font-size="10.00">libultra/gbi.h</text>
</a>
</g>
</g>
<!-- Node2&#45;&gt;Node5 -->
<g id="edge4_Node000002_Node000005" class="edge">
<title>Node2&#45;&gt;Node5</title>
<g id="a_edge4_Node000002_Node000005"><a xlink:title=" ">
<path fill="none" stroke="#63b8ff" d="M395.26,-352.33C285.89,-344.75 20.52,-318.43 20.52,-241.5 20.52,-241.5 20.52,-241.5 20.52,-184.5 20.52,-147.07 37.78,-106.03 49.04,-83.25"/>
<polygon fill="#63b8ff" stroke="#63b8ff" points="52.26,-84.65 53.7,-74.15 46.03,-81.46 52.26,-84.65"/>
</a>
</g>
</g>
<!-- Node2&#45;&gt;Node6 -->
<g id="edge5_Node000002_Node000006" class="edge">
<title>Node2&#45;&gt;Node6</title>
<g id="a_edge5_Node000002_Node000006"><a xlink:title=" ">
<path fill="none" stroke="#63b8ff" d="M457.75,-346.37C475.78,-336.78 505.13,-321.17 526.19,-309.97"/>
<polygon fill="#63b8ff" stroke="#63b8ff" points="528.03,-312.95 535.22,-305.17 524.75,-306.77 528.03,-312.95"/>
</a>
</g>
</g>
<!-- Node7 -->
<g id="Node000007" class="node">
<title>Node7</title>
<g id="a_Node000007"><a xlink:title=" ">
<polygon fill="#e0e0e0" stroke="#999999" points="736.52,-250 598.52,-250 598.52,-231 736.52,-231 736.52,-250"/>
<text text-anchor="middle" x="667.52" y="-238" font-family="Helvetica,sans-Serif" font-size="10.00">libultraship/libultraship.h</text>
</a>
</g>
</g>
<!-- Node6&#45;&gt;Node7 -->
<g id="edge6_Node000006_Node000007" class="edge">
<title>Node6&#45;&gt;Node7</title>
<g id="a_edge6_Node000006_Node000007"><a xlink:title=" ">
<path fill="none" stroke="#63b8ff" d="M570.15,-285.98C588.81,-277.46 617.77,-264.23 639.26,-254.41"/>
<polygon fill="#63b8ff" stroke="#63b8ff" points="640.9,-257.51 648.54,-250.17 637.99,-251.14 640.9,-257.51"/>
</a>
</g>
</g>
<!-- Node8 -->
<g id="Node000008" class="node">
<title>Node8</title>
<g id="a_Node000008"><a xlink:href="CoreMath_8h.html" target="_top" xlink:title=" ">
<polygon fill="white" stroke="#666666" points="122.02,-195 49.02,-195 49.02,-176 122.02,-176 122.02,-195"/>
<text text-anchor="middle" x="85.52" y="-183" font-family="Helvetica,sans-Serif" font-size="10.00">CoreMath.h</text>
</a>
</g>
</g>
<!-- Node6&#45;&gt;Node8 -->
<g id="edge7_Node000006_Node000008" class="edge">
<title>Node6&#45;&gt;Node8</title>
<g id="a_edge7_Node000006_Node000008"><a xlink:title=" ">
<path fill="none" stroke="#63b8ff" d="M482.82,-286.56C383.69,-275 210.87,-254.43 197.52,-250 162.99,-238.54 127.1,-215.99 105.53,-201.08"/>
<polygon fill="#63b8ff" stroke="#63b8ff" points="107.4,-198.11 97.21,-195.21 103.36,-203.83 107.4,-198.11"/>
</a>
</g>
</g>
<!-- Node10 -->
<g id="Node000010" class="node">
<title>Node10</title>
<g id="a_Node000010"><a xlink:href="defines_8h.html" target="_top" xlink:title=" ">
<polygon fill="white" stroke="#666666" points="816.02,-250 755.02,-250 755.02,-231 816.02,-231 816.02,-250"/>
<text text-anchor="middle" x="785.52" y="-238" font-family="Helvetica,sans-Serif" font-size="10.00">defines.h</text>
</a>
</g>
</g>
<!-- Node6&#45;&gt;Node10 -->
<g id="edge9_Node000006_Node000010" class="edge">
<title>Node6&#45;&gt;Node10</title>
<g id="a_edge9_Node000006_Node000010"><a xlink:title=" ">
<path fill="none" stroke="#63b8ff" d="M589.11,-285.98C631.78,-276.32 701.13,-260.61 744.98,-250.68"/>
<polygon fill="#63b8ff" stroke="#63b8ff" points="745.76,-254.09 754.74,-248.47 744.21,-247.27 745.76,-254.09"/>
</a>
</g>
</g>
<!-- Node11 -->
<g id="Node000011" class="node">
<title>Node11</title>
<g id="a_Node000011"><a xlink:href="camera_8h.html" target="_top" xlink:title=" ">
<polygon fill="white" stroke="#666666" points="762.52,-134.5 700.52,-134.5 700.52,-115.5 762.52,-115.5 762.52,-134.5"/>
<text text-anchor="middle" x="731.52" y="-122.5" font-family="Helvetica,sans-Serif" font-size="10.00">camera.h</text>
</a>
</g>
</g>
<!-- Node6&#45;&gt;Node11 -->
<g id="edge10_Node000006_Node000011" class="edge">
<title>Node6&#45;&gt;Node11</title>
<g id="a_edge10_Node000006_Node000011"><a xlink:title=" ">
<path fill="none" stroke="#63b8ff" d="M620.11,-290.64C717.22,-284.46 885.11,-270.88 903.52,-250 909.1,-243.67 907.65,-238.36 903.52,-231 887.6,-202.65 804.13,-160.12 759.59,-138.94"/>
<polygon fill="#63b8ff" stroke="#63b8ff" points="760.99,-135.73 750.46,-134.64 758.01,-142.07 760.99,-135.73"/>
</a>
</g>
</g>
<!-- Node12 -->
<g id="Node000012" class="node">
<title>Node12</title>
<g id="a_Node000012"><a xlink:href="common__structs_8h.html" target="_top" xlink:title=" ">
<polygon fill="white" stroke="#666666" points="650.02,-74 543.02,-74 543.02,-55 650.02,-55 650.02,-74"/>
<text text-anchor="middle" x="596.52" y="-62" font-family="Helvetica,sans-Serif" font-size="10.00">common_structs.h</text>
</a>
</g>
</g>
<!-- Node6&#45;&gt;Node12 -->
<g id="edge43_Node000006_Node000012" class="edge">
<title>Node6&#45;&gt;Node12</title>
<g id="a_edge43_Node000006_Node000012"><a xlink:title=" ">
<path fill="none" stroke="#63b8ff" d="M553.42,-285.81C558.53,-262.34 572.89,-195.7 583.52,-140 587.12,-121.09 590.86,-99.4 593.4,-84.32"/>
<polygon fill="#63b8ff" stroke="#63b8ff" points="596.89,-84.67 595.08,-74.23 589.98,-83.52 596.89,-84.67"/>
</a>
</g>
</g>
<!-- Node13 -->
<g id="Node000013" class="node">
<title>Node13</title>
<g id="a_Node000013"><a xlink:href="src_2data_2some__data_8h.html" target="_top" xlink:title=" ">
<polygon fill="white" stroke="#666666" points="310.52,-250 206.52,-250 206.52,-231 310.52,-231 310.52,-250"/>
<text text-anchor="middle" x="258.52" y="-238" font-family="Helvetica,sans-Serif" font-size="10.00">data/some_data.h</text>
</a>
</g>
</g>
<!-- Node6&#45;&gt;Node13 -->
<g id="edge14_Node000006_Node000013" class="edge">
<title>Node6&#45;&gt;Node13</title>
<g id="a_edge14_Node000006_Node000013"><a xlink:title=" ">
<path fill="none" stroke="#63b8ff" d="M504.44,-285.98C453.12,-276.7 370.98,-261.84 315.91,-251.88"/>
<polygon fill="#63b8ff" stroke="#63b8ff" points="316.42,-248.42 305.96,-250.08 315.18,-255.31 316.42,-248.42"/>
</a>
</g>
</g>
<!-- Node18 -->
<g id="Node000018" class="node">
<title>Node18</title>
<g id="a_Node000018"><a xlink:href="bomb__kart_8h.html" target="_top" xlink:title=" ">
<polygon fill="white" stroke="#666666" points="377.02,-195 300.02,-195 300.02,-176 377.02,-176 377.02,-195"/>
<text text-anchor="middle" x="338.52" y="-183" font-family="Helvetica,sans-Serif" font-size="10.00">bomb_kart.h</text>
</a>
</g>
</g>
<!-- Node6&#45;&gt;Node18 -->
<g id="edge24_Node000006_Node000018" class="edge">
<title>Node6&#45;&gt;Node18</title>
<g id="a_edge24_Node000006_Node000018"><a xlink:title=" ">
<path fill="none" stroke="#63b8ff" d="M482.78,-286.13C434.58,-278.92 375.64,-266.98 357.52,-250 345.32,-238.58 340.85,-219.69 339.26,-205.47"/>
<polygon fill="#63b8ff" stroke="#63b8ff" points="342.74,-205.02 338.51,-195.31 335.76,-205.54 342.74,-205.02"/>
</a>
</g>
</g>
<!-- Node22 -->
<g id="Node000022" class="node">
<title>Node22</title>
<g id="a_Node000022"><a xlink:href="path__spawn__metadata_8h.html" target="_top" xlink:title=" ">
<polygon fill="white" stroke="#666666" points="504.02,-250 367.02,-250 367.02,-231 504.02,-231 504.02,-250"/>
<text text-anchor="middle" x="435.52" y="-238" font-family="Helvetica,sans-Serif" font-size="10.00">path_spawn_metadata.h</text>
</a>
</g>
</g>
<!-- Node6&#45;&gt;Node22 -->
<g id="edge31_Node000006_Node000022" class="edge">
<title>Node6&#45;&gt;Node22</title>
<g id="a_edge31_Node000006_Node000022"><a xlink:title=" ">
<path fill="none" stroke="#63b8ff" d="M532.88,-285.98C514.22,-277.46 485.26,-264.23 463.78,-254.41"/>
<polygon fill="#63b8ff" stroke="#63b8ff" points="465.04,-251.14 454.49,-250.17 462.13,-257.51 465.04,-251.14"/>
</a>
</g>
</g>
<!-- Node23 -->
<g id="Node000023" class="node">
<title>Node23</title>
<g id="a_Node000023"><a xlink:href="waypoints_8h.html" target="_top" xlink:title=" ">
<polygon fill="white" stroke="#666666" points="724.52,-195 648.52,-195 648.52,-176 724.52,-176 724.52,-195"/>
<text text-anchor="middle" x="686.52" y="-183" font-family="Helvetica,sans-Serif" font-size="10.00">waypoints.h</text>
</a>
</g>
</g>
<!-- Node6&#45;&gt;Node23 -->
<g id="edge41_Node000006_Node000023" class="edge">
<title>Node6&#45;&gt;Node23</title>
<g id="a_edge41_Node000006_Node000023"><a xlink:title=" ">
<path fill="none" stroke="#63b8ff" d="M554.84,-285.56C560.24,-272.12 572.1,-246.61 589.52,-231 605.85,-216.36 627.81,-205.75 646.71,-198.56"/>
<polygon fill="#63b8ff" stroke="#63b8ff" points="648.05,-201.8 656.27,-195.12 645.67,-195.22 648.05,-201.8"/>
</a>
</g>
</g>
<!-- Node25 -->
<g id="Node000025" class="node">
<title>Node25</title>
<g id="a_Node000025"><a xlink:href="sounds_8h.html" target="_top" xlink:title=" ">
<polygon fill="white" stroke="#666666" points="894.52,-250 834.52,-250 834.52,-231 894.52,-231 894.52,-250"/>
<text text-anchor="middle" x="864.52" y="-238" font-family="Helvetica,sans-Serif" font-size="10.00">sounds.h</text>
</a>
</g>
</g>
<!-- Node6&#45;&gt;Node25 -->
<g id="edge42_Node000006_Node000025" class="edge">
<title>Node6&#45;&gt;Node25</title>
<g id="a_edge42_Node000006_Node000025"><a xlink:title=" ">
<path fill="none" stroke="#63b8ff" d="M609.67,-285.98C662.96,-277.96 744.29,-265.2 824.09,-250.19"/>
<polygon fill="#63b8ff" stroke="#63b8ff" points="825.14,-253.55 834.31,-248.25 823.84,-246.67 825.14,-253.55"/>
</a>
</g>
</g>
<!-- Node26 -->
<g id="Node000026" class="node">
<title>Node26</title>
<g id="a_Node000026"><a xlink:href="code__800029B0_8h.html" target="_top" xlink:title=" ">
<polygon fill="white" stroke="#666666" points="1012.02,-195 909.02,-195 909.02,-176 1012.02,-176 1012.02,-195"/>
<text text-anchor="middle" x="960.52" y="-183" font-family="Helvetica,sans-Serif" font-size="10.00">code_800029B0.h</text>
</a>
</g>
</g>
<!-- Node6&#45;&gt;Node26 -->
<g id="edge44_Node000006_Node000026" class="edge">
<title>Node6&#45;&gt;Node26</title>
<g id="a_edge44_Node000006_Node000026"><a xlink:title=" ">
<path fill="none" stroke="#63b8ff" d="M620.13,-294.91C717.35,-294.13 888.69,-287.29 936.52,-250 950.29,-239.26 956.16,-219.67 958.66,-205.08"/>
<polygon fill="#63b8ff" stroke="#63b8ff" points="962.14,-205.5 959.99,-195.12 955.2,-204.57 962.14,-205.5"/>
</a>
</g>
</g>
<!-- Node9 -->
<g id="Node000009" class="node">
<title>Node9</title>
<g id="a_Node000009"><a xlink:title=" ">
<polygon fill="#e0e0e0" stroke="#999999" points="636.52,-19 556.52,-19 556.52,0 636.52,0 636.52,-19"/>
<text text-anchor="middle" x="596.52" y="-7" font-family="Helvetica,sans-Serif" font-size="10.00">libultraship.h</text>
</a>
</g>
</g>
<!-- Node8&#45;&gt;Node9 -->
<g id="edge8_Node000008_Node000009" class="edge">
<title>Node8&#45;&gt;Node9</title>
<g id="a_edge8_Node000008_Node000009"><a xlink:title=" ">
<path fill="none" stroke="#63b8ff" d="M73.46,-175.78C44.18,-153.61 -25.69,-94.06 10.52,-55 46.6,-16.08 411.17,-11.03 546.39,-10.5"/>
<polygon fill="#63b8ff" stroke="#63b8ff" points="546.5,-14 556.49,-10.47 546.48,-7 546.5,-14"/>
</a>
</g>
</g>
<!-- Node11&#45;&gt;Node9 -->
<g id="edge11_Node000011_Node000009" class="edge">
<title>Node11&#45;&gt;Node9</title>
<g id="a_edge11_Node000011_Node000009"><a xlink:title=" ">
<path fill="none" stroke="#63b8ff" d="M723.04,-115.06C709.96,-101.46 683.83,-75.05 659.52,-55 646.38,-44.17 630.75,-33.12 618.35,-24.74"/>
<polygon fill="#63b8ff" stroke="#63b8ff" points="620.23,-21.79 609.97,-19.15 616.35,-27.61 620.23,-21.79"/>
</a>
</g>
</g>
<!-- Node11&#45;&gt;Node12 -->
<g id="edge12_Node000011_Node000012" class="edge">
<title>Node11&#45;&gt;Node12</title>
<g id="a_edge12_Node000011_Node000012"><a xlink:title=" ">
<path fill="none" stroke="#63b8ff" d="M711.89,-115.49C689.19,-105.66 651.62,-89.38 625.54,-78.08"/>
<polygon fill="#63b8ff" stroke="#63b8ff" points="626.74,-74.78 616.17,-74.02 623.95,-81.2 626.74,-74.78"/>
</a>
</g>
</g>
<!-- Node12&#45;&gt;Node9 -->
<g id="edge13_Node000012_Node000009" class="edge">
<title>Node12&#45;&gt;Node9</title>
<g id="a_edge13_Node000012_Node000009"><a xlink:title=" ">
<path fill="none" stroke="#63b8ff" d="M596.52,-54.75C596.52,-47.8 596.52,-37.85 596.52,-29.13"/>
<polygon fill="#63b8ff" stroke="#63b8ff" points="600.02,-29.09 596.52,-19.09 593.02,-29.09 600.02,-29.09"/>
</a>
</g>
</g>
<!-- Node13&#45;&gt;Node5 -->
<g id="edge15_Node000013_Node000005" class="edge">
<title>Node13&#45;&gt;Node5</title>
<g id="a_edge15_Node000013_Node000005"><a xlink:title=" ">
<path fill="none" stroke="#63b8ff" d="M241.17,-230.96C198.06,-209.59 88.77,-154.53 77.52,-140 65.15,-124.03 60.77,-100.92 59.25,-84.68"/>
<polygon fill="#63b8ff" stroke="#63b8ff" points="62.71,-84.03 58.57,-74.28 55.73,-84.48 62.71,-84.03"/>
</a>
</g>
</g>
<!-- Node14 -->
<g id="Node000014" class="node">
<title>Node14</title>
<g id="a_Node000014"><a xlink:href="spline_8h.html" target="_top" xlink:title=" ">
<polygon fill="white" stroke="#666666" points="492.02,-134.5 437.02,-134.5 437.02,-115.5 492.02,-115.5 492.02,-134.5"/>
<text text-anchor="middle" x="464.52" y="-122.5" font-family="Helvetica,sans-Serif" font-size="10.00">spline.h</text>
</a>
</g>
</g>
<!-- Node13&#45;&gt;Node14 -->
<g id="edge16_Node000013_Node000014" class="edge">
<title>Node13&#45;&gt;Node14</title>
<g id="a_edge16_Node000013_Node000014"><a xlink:title=" ">
<path fill="none" stroke="#63b8ff" d="M260.5,-230.65C264.05,-216.84 272.86,-190.29 290.52,-176 339.45,-136.39 367.55,-159.17 427.52,-140 429.43,-139.39 431.39,-138.73 433.36,-138.05"/>
<polygon fill="#63b8ff" stroke="#63b8ff" points="434.91,-141.21 443.13,-134.53 432.53,-134.63 434.91,-141.21"/>
</a>
</g>
</g>
<!-- Node15 -->
<g id="Node000015" class="node">
<title>Node15</title>
<g id="a_Node000015"><a xlink:href="other__textures_8h.html" target="_top" xlink:title=" ">
<polygon fill="white" stroke="#666666" points="278.52,-140 158.52,-140 158.52,-110 278.52,-110 278.52,-140"/>
<text text-anchor="start" x="166.52" y="-128" font-family="Helvetica,sans-Serif" font-size="10.00">assets/textures/other</text>
<text text-anchor="middle" x="218.52" y="-117" font-family="Helvetica,sans-Serif" font-size="10.00">_textures.h</text>
</a>
</g>
</g>
<!-- Node13&#45;&gt;Node15 -->
<g id="edge18_Node000013_Node000015" class="edge">
<title>Node13&#45;&gt;Node15</title>
<g id="a_edge18_Node000013_Node000015"><a xlink:title=" ">
<path fill="none" stroke="#63b8ff" d="M255.51,-230.97C249.5,-213.93 235.84,-175.16 226.9,-149.8"/>
<polygon fill="#63b8ff" stroke="#63b8ff" points="230.14,-148.45 223.51,-140.18 223.54,-150.78 230.14,-148.45"/>
</a>
</g>
</g>
<!-- Node17 -->
<g id="Node000017" class="node">
<title>Node17</title>
<g id="a_Node000017"><a xlink:href="objects_8h.html" target="_top" xlink:title=" ">
<polygon fill="white" stroke="#666666" points="495.02,-195 434.02,-195 434.02,-176 495.02,-176 495.02,-195"/>
<text text-anchor="middle" x="464.52" y="-183" font-family="Helvetica,sans-Serif" font-size="10.00">objects.h</text>
</a>
</g>
</g>
<!-- Node13&#45;&gt;Node17 -->
<g id="edge21_Node000013_Node000017" class="edge">
<title>Node13&#45;&gt;Node17</title>
<g id="a_edge21_Node000013_Node000017"><a xlink:title=" ">
<path fill="none" stroke="#63b8ff" d="M291.61,-230.98C327.63,-221.72 385.25,-206.89 423.96,-196.93"/>
<polygon fill="#63b8ff" stroke="#63b8ff" points="425.04,-200.27 433.85,-194.39 423.3,-193.49 425.04,-200.27"/>
</a>
</g>
</g>
<!-- Node14&#45;&gt;Node12 -->
<g id="edge17_Node000014_Node000012" class="edge">
<title>Node14&#45;&gt;Node12</title>
<g id="a_edge17_Node000014_Node000012"><a xlink:title=" ">
<path fill="none" stroke="#63b8ff" d="M483.71,-115.49C505.9,-105.66 542.64,-89.38 568.13,-78.08"/>
<polygon fill="#63b8ff" stroke="#63b8ff" points="569.57,-81.27 577.3,-74.02 566.74,-74.87 569.57,-81.27"/>
</a>
</g>
</g>
<!-- Node15&#45;&gt;Node9 -->
<g id="edge19_Node000015_Node000009" class="edge">
<title>Node15&#45;&gt;Node9</title>
<g id="a_edge19_Node000015_Node000009"><a xlink:title=" ">
<path fill="none" stroke="#63b8ff" d="M227.76,-109.95C239.23,-93.78 260.37,-67.81 285.52,-55 330.02,-32.33 470.01,-19.32 546.09,-13.75"/>
<polygon fill="#63b8ff" stroke="#63b8ff" points="546.66,-17.22 556.38,-13.02 546.16,-10.24 546.66,-17.22"/>
</a>
</g>
</g>
<!-- Node16 -->
<g id="Node000016" class="node">
<title>Node16</title>
<g id="a_Node000016"><a xlink:href="align__asset__macro_8h.html" target="_top" xlink:title=" ">
<polygon fill="white" stroke="#666666" points="412.02,-74 295.02,-74 295.02,-55 412.02,-55 412.02,-74"/>
<text text-anchor="middle" x="353.52" y="-62" font-family="Helvetica,sans-Serif" font-size="10.00">align_asset_macro.h</text>
</a>
</g>
</g>
<!-- Node15&#45;&gt;Node16 -->
<g id="edge20_Node000015_Node000016" class="edge">
<title>Node15&#45;&gt;Node16</title>
<g id="a_edge20_Node000015_Node000016"><a xlink:title=" ">
<path fill="none" stroke="#63b8ff" d="M250.85,-109.99C273.17,-100.31 302.62,-87.56 324.24,-78.18"/>
<polygon fill="#63b8ff" stroke="#63b8ff" points="325.79,-81.33 333.58,-74.14 323.01,-74.9 325.79,-81.33"/>
</a>
</g>
</g>
<!-- Node17&#45;&gt;Node12 -->
<g id="edge23_Node000017_Node000012" class="edge">
<title>Node17&#45;&gt;Node12</title>
<g id="a_edge23_Node000017_Node000012"><a xlink:title=" ">
<path fill="none" stroke="#63b8ff" d="M481.07,-175.91C495.92,-167.78 517.86,-154.65 534.52,-140 554.37,-122.53 573.21,-98.44 584.8,-82.43"/>
<polygon fill="#63b8ff" stroke="#63b8ff" points="587.81,-84.24 590.74,-74.05 582.1,-80.19 587.81,-84.24"/>
</a>
</g>
</g>
<!-- Node17&#45;&gt;Node14 -->
<g id="edge22_Node000017_Node000014" class="edge">
<title>Node17&#45;&gt;Node14</title>
<g id="a_edge22_Node000017_Node000014"><a xlink:title=" ">
<path fill="none" stroke="#63b8ff" d="M464.52,-175.87C464.52,-167.75 464.52,-155.31 464.52,-144.89"/>
<polygon fill="#63b8ff" stroke="#63b8ff" points="468.02,-144.67 464.52,-134.67 461.02,-144.67 468.02,-144.67"/>
</a>
</g>
</g>
<!-- Node18&#45;&gt;Node12 -->
<g id="edge25_Node000018_Node000012" class="edge">
<title>Node18&#45;&gt;Node12</title>
<g id="a_edge25_Node000018_Node000012"><a xlink:title=" ">
<path fill="none" stroke="#63b8ff" d="M377.34,-179.18C411.64,-173.28 462.17,-161.6 501.52,-140 518.89,-130.46 519.1,-122.47 534.52,-110 547.48,-99.51 562.69,-88.57 574.8,-80.17"/>
<polygon fill="#63b8ff" stroke="#63b8ff" points="577.11,-82.83 583.37,-74.28 573.15,-77.06 577.11,-82.83"/>
</a>
</g>
</g>
<!-- Node19 -->
<g id="Node000019" class="node">
<title>Node19</title>
<g id="a_Node000019"><a xlink:href="mk64_8h.html" target="_top" xlink:title=" ">
<polygon fill="white" stroke="#666666" points="140.02,-134.5 87.02,-134.5 87.02,-115.5 140.02,-115.5 140.02,-134.5"/>
<text text-anchor="middle" x="113.52" y="-122.5" font-family="Helvetica,sans-Serif" font-size="10.00">mk64.h</text>
</a>
</g>
</g>
<!-- Node18&#45;&gt;Node19 -->
<g id="edge26_Node000018_Node000019" class="edge">
<title>Node18&#45;&gt;Node19</title>
<g id="a_edge26_Node000018_Node000019"><a xlink:title=" ">
<path fill="none" stroke="#63b8ff" d="M299.72,-177.02C261.21,-169.21 200.7,-155.89 149.52,-140 147.64,-139.42 145.73,-138.79 143.8,-138.12"/>
<polygon fill="#63b8ff" stroke="#63b8ff" points="144.87,-134.79 134.28,-134.64 142.47,-141.36 144.87,-134.79"/>
</a>
</g>
</g>
<!-- Node19&#45;&gt;Node5 -->
<g id="edge30_Node000019_Node000005" class="edge">
<title>Node19&#45;&gt;Node5</title>
<g id="a_edge30_Node000019_Node000005"><a xlink:title=" ">
<path fill="none" stroke="#63b8ff" d="M105.4,-115.37C97.11,-106.55 84.05,-92.66 73.81,-81.77"/>
<polygon fill="#63b8ff" stroke="#63b8ff" points="76.06,-79.06 66.66,-74.17 70.96,-83.85 76.06,-79.06"/>
</a>
</g>
</g>
<!-- Node19&#45;&gt;Node9 -->
<g id="edge27_Node000019_Node000009" class="edge">
<title>Node19&#45;&gt;Node9</title>
<g id="a_edge27_Node000019_Node000009"><a xlink:title=" ">
<path fill="none" stroke="#63b8ff" d="M127.51,-115.35C152.44,-100.4 206.59,-69.89 256.52,-55 356.42,-25.2 478.76,-15.35 546.07,-12.1"/>
<polygon fill="#63b8ff" stroke="#63b8ff" points="546.56,-15.58 556.39,-11.63 546.25,-8.58 546.56,-15.58"/>
</a>
</g>
</g>
<!-- Node20 -->
<g id="Node000020" class="node">
<title>Node20</title>
<g id="a_Node000020"><a xlink:href="string_8h.html" target="_top" xlink:title=" ">
<polygon fill="white" stroke="#666666" points="169.02,-74 116.02,-74 116.02,-55 169.02,-55 169.02,-74"/>
<text text-anchor="middle" x="142.52" y="-62" font-family="Helvetica,sans-Serif" font-size="10.00">string.h</text>
</a>
</g>
</g>
<!-- Node19&#45;&gt;Node20 -->
<g id="edge28_Node000019_Node000020" class="edge">
<title>Node19&#45;&gt;Node20</title>
<g id="a_edge28_Node000019_Node000020"><a xlink:title=" ">
<path fill="none" stroke="#63b8ff" d="M117.79,-115.37C121.95,-106.99 128.38,-94.01 133.64,-83.39"/>
<polygon fill="#63b8ff" stroke="#63b8ff" points="136.91,-84.68 138.22,-74.17 130.64,-81.57 136.91,-84.68"/>
</a>
</g>
</g>
<!-- Node21 -->
<g id="Node000021" class="node">
<title>Node21</title>
<g id="a_Node000021"><a xlink:title=" ">
<polygon fill="#e0e0e0" stroke="#999999" points="187.52,-19 97.52,-19 97.52,0 187.52,0 187.52,-19"/>
<text text-anchor="middle" x="142.52" y="-7" font-family="Helvetica,sans-Serif" font-size="10.00">libultra/types.h</text>
</a>
</g>
</g>
<!-- Node20&#45;&gt;Node21 -->
<g id="edge29_Node000020_Node000021" class="edge">
<title>Node20&#45;&gt;Node21</title>
<g id="a_edge29_Node000020_Node000021"><a xlink:title=" ">
<path fill="none" stroke="#63b8ff" d="M142.52,-54.75C142.52,-47.8 142.52,-37.85 142.52,-29.13"/>
<polygon fill="#63b8ff" stroke="#63b8ff" points="146.02,-29.09 142.52,-19.09 139.02,-29.09 146.02,-29.09"/>
</a>
</g>
</g>
<!-- Node22&#45;&gt;Node12 -->
<g id="edge34_Node000022_Node000012" class="edge">
<title>Node22&#45;&gt;Node12</title>
<g id="a_edge34_Node000022_Node000012"><a xlink:title=" ">
<path fill="none" stroke="#63b8ff" d="M451.43,-230.95C477.93,-215.94 531.18,-182.38 561.52,-140 574.08,-122.44 584.01,-99.65 590.03,-83.92"/>
<polygon fill="#63b8ff" stroke="#63b8ff" points="593.4,-84.91 593.57,-74.32 586.83,-82.49 593.4,-84.91"/>
</a>
</g>
</g>
<!-- Node22&#45;&gt;Node18 -->
<g id="edge40_Node000022_Node000018" class="edge">
<title>Node22&#45;&gt;Node18</title>
<g id="a_edge40_Node000022_Node000018"><a xlink:title=" ">
<path fill="none" stroke="#63b8ff" d="M419.93,-230.98C404.75,-222.69 381.42,-209.94 363.62,-200.22"/>
<polygon fill="#63b8ff" stroke="#63b8ff" points="364.84,-196.89 354.38,-195.17 361.48,-203.04 364.84,-196.89"/>
</a>
</g>
</g>
<!-- Node22&#45;&gt;Node23 -->
<g id="edge32_Node000022_Node000023" class="edge">
<title>Node22&#45;&gt;Node23</title>
<g id="a_edge32_Node000022_Node000023"><a xlink:title=" ">
<path fill="none" stroke="#63b8ff" d="M475.84,-230.98C520.13,-221.63 591.2,-206.63 638.37,-196.67"/>
<polygon fill="#63b8ff" stroke="#63b8ff" points="639.28,-200.05 648.34,-194.56 637.84,-193.2 639.28,-200.05"/>
</a>
</g>
</g>
<!-- Node24 -->
<g id="Node000024" class="node">
<title>Node24</title>
<g id="a_Node000024"><a xlink:href="other_2common__data_8h.html" target="_top" xlink:title=" ">
<polygon fill="white" stroke="#666666" points="418.52,-140 296.52,-140 296.52,-110 418.52,-110 418.52,-140"/>
<text text-anchor="start" x="304.52" y="-128" font-family="Helvetica,sans-Serif" font-size="10.00">assets/other/common</text>
<text text-anchor="middle" x="357.52" y="-117" font-family="Helvetica,sans-Serif" font-size="10.00">_data.h</text>
</a>
</g>
</g>
<!-- Node22&#45;&gt;Node24 -->
<g id="edge35_Node000022_Node000024" class="edge">
<title>Node22&#45;&gt;Node24</title>
<g id="a_edge35_Node000022_Node000024"><a xlink:title=" ">
<path fill="none" stroke="#63b8ff" d="M429.65,-230.97C417.74,-213.63 390.35,-173.77 372.95,-148.47"/>
<polygon fill="#63b8ff" stroke="#63b8ff" points="375.81,-146.44 367.26,-140.18 370.04,-150.4 375.81,-146.44"/>
</a>
</g>
</g>
<!-- Node23&#45;&gt;Node12 -->
<g id="edge33_Node000023_Node000012" class="edge">
<title>Node23&#45;&gt;Node12</title>
<g id="a_edge33_Node000023_Node000012"><a xlink:title=" ">
<path fill="none" stroke="#63b8ff" d="M683.29,-175.59C677.72,-160.93 665.23,-131.21 648.52,-110 639.67,-98.77 627.65,-88.27 617.4,-80.29"/>
<polygon fill="#63b8ff" stroke="#63b8ff" points="619.41,-77.42 609.31,-74.22 615.21,-83.02 619.41,-77.42"/>
</a>
</g>
</g>
<!-- Node24&#45;&gt;Node5 -->
<g id="edge36_Node000024_Node000005" class="edge">
<title>Node24&#45;&gt;Node5</title>
<g id="a_edge36_Node000024_Node000005"><a xlink:title=" ">
<path fill="none" stroke="#63b8ff" d="M296.44,-111.76C293.42,-111.17 290.43,-110.58 287.52,-110 225.64,-97.8 154.31,-83.98 107.92,-75.02"/>
<polygon fill="#63b8ff" stroke="#63b8ff" points="108.32,-71.53 97.83,-73.07 106.99,-78.4 108.32,-71.53"/>
</a>
</g>
</g>
<!-- Node24&#45;&gt;Node9 -->
<g id="edge37_Node000024_Node000009" class="edge">
<title>Node24&#45;&gt;Node9</title>
<g id="a_edge37_Node000024_Node000009"><a xlink:title=" ">
<path fill="none" stroke="#63b8ff" d="M387.3,-109.85C434.05,-87.65 523.96,-44.95 569.16,-23.49"/>
<polygon fill="#63b8ff" stroke="#63b8ff" points="570.82,-26.58 578.35,-19.12 567.82,-20.25 570.82,-26.58"/>
</a>
</g>
</g>
<!-- Node24&#45;&gt;Node12 -->
<g id="edge38_Node000024_Node000012" class="edge">
<title>Node24&#45;&gt;Node12</title>
<g id="a_edge38_Node000024_Node000012"><a xlink:title=" ">
<path fill="none" stroke="#63b8ff" d="M414.76,-109.99C456.72,-99.72 512.89,-85.97 551.63,-76.49"/>
<polygon fill="#63b8ff" stroke="#63b8ff" points="552.69,-79.83 561.57,-74.05 551.02,-73.03 552.69,-79.83"/>
</a>
</g>
</g>
<!-- Node24&#45;&gt;Node16 -->
<g id="edge39_Node000024_Node000016" class="edge">
<title>Node24&#45;&gt;Node16</title>
<g id="a_edge39_Node000024_Node000016"><a xlink:title=" ">
<path fill="none" stroke="#63b8ff" d="M356.55,-109.84C356.03,-102.21 355.38,-92.7 354.81,-84.45"/>
<polygon fill="#63b8ff" stroke="#63b8ff" points="358.29,-84 354.11,-74.27 351.31,-84.48 358.29,-84"/>
</a>
</g>
</g>
<!-- Node26&#45;&gt;Node9 -->
<g id="edge48_Node000026_Node000009" class="edge">
<title>Node26&#45;&gt;Node9</title>
<g id="a_edge48_Node000026_Node000009"><a xlink:title=" ">
<path fill="none" stroke="#63b8ff" d="M931.94,-175.97C906.04,-167.87 867.05,-154.77 834.52,-140 764.39,-108.17 751.37,-91.43 683.52,-55 663.34,-44.17 640.25,-32.38 622.93,-23.67"/>
<polygon fill="#63b8ff" stroke="#63b8ff" points="624.46,-20.52 613.95,-19.16 621.32,-26.78 624.46,-20.52"/>
</a>
</g>
</g>
<!-- Node26&#45;&gt;Node11 -->
<g id="edge54_Node000026_Node000011" class="edge">
<title>Node26&#45;&gt;Node11</title>
<g id="a_edge54_Node000026_Node000011"><a xlink:title=" ">
<path fill="none" stroke="#63b8ff" d="M921.92,-175.93C884.56,-167.45 826.41,-153.78 776.52,-140 773.71,-139.22 770.81,-138.39 767.9,-137.54"/>
<polygon fill="#63b8ff" stroke="#63b8ff" points="768.67,-134.11 758.08,-134.58 766.64,-140.82 768.67,-134.11"/>
</a>
</g>
</g>
<!-- Node27 -->
<g id="Node000027" class="node">
<title>Node27</title>
<g id="a_Node000027"><a xlink:href="macros_8h.html" target="_top" xlink:title=" ">
<polygon fill="white" stroke="#666666" points="992.52,-74 930.52,-74 930.52,-55 992.52,-55 992.52,-74"/>
<text text-anchor="middle" x="961.52" y="-62" font-family="Helvetica,sans-Serif" font-size="10.00">macros.h</text>
</a>
</g>
</g>
<!-- Node26&#45;&gt;Node27 -->
<g id="edge45_Node000026_Node000027" class="edge">
<title>Node26&#45;&gt;Node27</title>
<g id="a_edge45_Node000026_Node000027"><a xlink:title=" ">
<path fill="none" stroke="#63b8ff" d="M960.59,-175.94C960.75,-156.91 961.14,-110.69 961.36,-84.47"/>
<polygon fill="#63b8ff" stroke="#63b8ff" points="964.86,-84.33 961.44,-74.3 957.86,-84.27 964.86,-84.33"/>
</a>
</g>
</g>
<!-- Node29 -->
<g id="Node000029" class="node">
<title>Node29</title>
<g id="a_Node000029"><a xlink:href="actor__types_8h.html" target="_top" xlink:title=" ">
<polygon fill="white" stroke="#666666" points="926.02,-134.5 843.02,-134.5 843.02,-115.5 926.02,-115.5 926.02,-134.5"/>
<text text-anchor="middle" x="884.52" y="-122.5" font-family="Helvetica,sans-Serif" font-size="10.00">actor_types.h</text>
</a>
</g>
</g>
<!-- Node26&#45;&gt;Node29 -->
<g id="edge49_Node000026_Node000029" class="edge">
<title>Node26&#45;&gt;Node29</title>
<g id="a_edge49_Node000026_Node000029"><a xlink:title=" ">
<path fill="none" stroke="#63b8ff" d="M949.3,-175.87C937.4,-166.71 918.37,-152.06 904.01,-141.01"/>
<polygon fill="#63b8ff" stroke="#63b8ff" points="905.83,-137.99 895.78,-134.67 901.56,-143.54 905.83,-137.99"/>
</a>
</g>
</g>
<!-- Node27&#45;&gt;Node9 -->
<g id="edge47_Node000027_Node000009" class="edge">
<title>Node27&#45;&gt;Node9</title>
<g id="a_edge47_Node000027_Node000009"><a xlink:title=" ">
<path fill="none" stroke="#63b8ff" d="M930.11,-56.6C927.21,-56.03 924.31,-55.49 921.52,-55 824.79,-38.12 710.95,-23.8 646.91,-16.24"/>
<polygon fill="#63b8ff" stroke="#63b8ff" points="647.03,-12.73 636.69,-15.04 646.21,-19.68 647.03,-12.73"/>
</a>
</g>
</g>
<!-- Node28 -->
<g id="Node000028" class="node">
<title>Node28</title>
<g id="a_Node000028"><a xlink:href="math_8h.html" target="_top" xlink:title=" ">
<polygon fill="white" stroke="#666666" points="987.02,-19 936.02,-19 936.02,0 987.02,0 987.02,-19"/>
<text text-anchor="middle" x="961.52" y="-7" font-family="Helvetica,sans-Serif" font-size="10.00">math.h</text>
</a>
</g>
</g>
<!-- Node27&#45;&gt;Node28 -->
<g id="edge46_Node000027_Node000028" class="edge">
<title>Node27&#45;&gt;Node28</title>
<g id="a_edge46_Node000027_Node000028"><a xlink:title=" ">
<path fill="none" stroke="#63b8ff" d="M961.52,-54.75C961.52,-47.8 961.52,-37.85 961.52,-29.13"/>
<polygon fill="#63b8ff" stroke="#63b8ff" points="965.02,-29.09 961.52,-19.09 958.02,-29.09 965.02,-29.09"/>
</a>
</g>
</g>
<!-- Node29&#45;&gt;Node9 -->
<g id="edge50_Node000029_Node000009" class="edge">
<title>Node29&#45;&gt;Node9</title>
<g id="a_edge50_Node000029_Node000009"><a xlink:title=" ">
<path fill="none" stroke="#63b8ff" d="M877.12,-115.23C864.06,-100.36 835.39,-70.35 804.52,-55 754.31,-30.05 690.49,-19.04 646.87,-14.21"/>
<polygon fill="#63b8ff" stroke="#63b8ff" points="647.09,-10.72 636.78,-13.17 646.37,-17.68 647.09,-10.72"/>
</a>
</g>
</g>
<!-- Node29&#45;&gt;Node12 -->
<g id="edge52_Node000029_Node000012" class="edge">
<title>Node29&#45;&gt;Node12</title>
<g id="a_edge52_Node000029_Node000012"><a xlink:title=" ">
<path fill="none" stroke="#63b8ff" d="M842.95,-115.56C791.62,-105.13 704.3,-87.39 648.56,-76.07"/>
<polygon fill="#63b8ff" stroke="#63b8ff" points="649.04,-72.6 638.54,-74.04 647.64,-79.46 649.04,-72.6"/>
</a>
</g>
</g>
<!-- Node29&#45;&gt;Node27 -->
<g id="edge51_Node000029_Node000027" class="edge">
<title>Node29&#45;&gt;Node27</title>
<g id="a_edge51_Node000029_Node000027"><a xlink:title=" ">
<path fill="none" stroke="#63b8ff" d="M895.88,-115.37C907.93,-106.21 927.21,-91.56 941.76,-80.51"/>
<polygon fill="#63b8ff" stroke="#63b8ff" points="944.26,-83 950.11,-74.17 940.03,-77.43 944.26,-83"/>
</a>
</g>
</g>
<!-- Node30 -->
<g id="Node000030" class="node">
<title>Node30</title>
<g id="a_Node000030"><a xlink:title=" ">
<polygon fill="#e0e0e0" stroke="#999999" points="912.52,-74 856.52,-74 856.52,-55 912.52,-55 912.52,-74"/>
<text text-anchor="middle" x="884.52" y="-62" font-family="Helvetica,sans-Serif" font-size="10.00">assert.h</text>
</a>
</g>
</g>
<!-- Node29&#45;&gt;Node30 -->
<g id="edge53_Node000029_Node000030" class="edge">
<title>Node29&#45;&gt;Node30</title>
<g id="a_edge53_Node000029_Node000030"><a xlink:title=" ">
<path fill="none" stroke="#63b8ff" d="M884.52,-115.37C884.52,-107.25 884.52,-94.81 884.52,-84.39"/>
<polygon fill="#63b8ff" stroke="#63b8ff" points="888.02,-84.17 884.52,-74.17 881.02,-84.17 888.02,-84.17"/>
</a>
</g>
</g>
</g>
</svg>
