<?xml version="1.0" encoding="UTF-8" standalone="no"?>
<!DOCTYPE svg PUBLIC "-//W3C//DTD SVG 1.1//EN"
 "http://www.w3.org/Graphics/SVG/1.1/DTD/svg11.dtd">
<!-- Generated by graphviz version 2.43.0 (0)
 -->
<!-- Title: src/port/resource/type/TrackSections.cpp Pages: 1 -->
<svg width="409pt" height="269pt"
 viewBox="0.00 0.00 408.50 269.00" xmlns="http://www.w3.org/2000/svg" xmlns:xlink="http://www.w3.org/1999/xlink">

<svg id="main" version="1.1" xmlns="http://www.w3.org/2000/svg" xmlns:xlink="http://www.w3.org/1999/xlink" xml:space="preserve">

<style type="text/css"><![CDATA[
.node, .edge {opacity: 0.7;}
.node.selected, .edge.selected {opacity: 1;}
.edge:hover path { stroke: red; }
.edge:hover polygon { stroke: red; fill: red; }
]]></style>
<script type="application/ecmascript" xlink:href="svg.min.js"/>
<svg id="graph" class="graph">
<g id="graph0" class="graph" transform="scale(1 1) rotate(0) translate(4 265)">
<title>src/port/resource/type/TrackSections.cpp</title>
<!-- Node1 -->
<g id="Node000001" class="node">
<title>Node1</title>
<g id="a_Node000001"><a xlink:title=" ">
<polygon fill="#999999" stroke="#666666" points="347.5,-261 224.5,-261 224.5,-231 347.5,-231 347.5,-261"/>
<text text-anchor="start" x="232.5" y="-249" font-family="Helvetica,sans-Serif" font-size="10.00">src/port/resource/type</text>
<text text-anchor="middle" x="286" y="-238" font-family="Helvetica,sans-Serif" font-size="10.00">/TrackSections.cpp</text>
</a>
</g>
</g>
<!-- Node2 -->
<g id="Node000002" class="node">
<title>Node2</title>
<g id="a_Node000002"><a xlink:href="TrackSections_8h.html" target="_top" xlink:title=" ">
<polygon fill="white" stroke="#666666" points="273,-189.5 181,-189.5 181,-170.5 273,-170.5 273,-189.5"/>
<text text-anchor="middle" x="227" y="-177.5" font-family="Helvetica,sans-Serif" font-size="10.00">TrackSections.h</text>
</a>
</g>
</g>
<!-- Node1&#45;&gt;Node2 -->
<g id="edge1_Node000001_Node000002" class="edge">
<title>Node1&#45;&gt;Node2</title>
<g id="a_edge1_Node000001_Node000002"><a xlink:title=" ">
<path fill="none" stroke="#63b8ff" d="M272.91,-230.8C263.8,-220.92 251.63,-207.72 242.11,-197.39"/>
<polygon fill="#63b8ff" stroke="#63b8ff" points="244.5,-194.82 235.15,-189.84 239.36,-199.57 244.5,-194.82"/>
</a>
</g>
</g>
<!-- Node10 -->
<g id="Node000010" class="node">
<title>Node10</title>
<g id="a_Node000010"><a xlink:title=" ">
<polygon fill="#e0e0e0" stroke="#999999" points="400.5,-195 291.5,-195 291.5,-165 400.5,-165 400.5,-195"/>
<text text-anchor="start" x="299.5" y="-183" font-family="Helvetica,sans-Serif" font-size="10.00">libultraship/libultra</text>
<text text-anchor="middle" x="346" y="-172" font-family="Helvetica,sans-Serif" font-size="10.00">/gbi.h</text>
</a>
</g>
</g>
<!-- Node1&#45;&gt;Node10 -->
<g id="edge11_Node000001_Node000010" class="edge">
<title>Node1&#45;&gt;Node10</title>
<g id="a_edge11_Node000001_Node000010"><a xlink:title=" ">
<path fill="none" stroke="#63b8ff" d="M299.32,-230.8C307.08,-222.51 317.04,-211.89 325.76,-202.59"/>
<polygon fill="#63b8ff" stroke="#63b8ff" points="328.44,-204.85 332.72,-195.16 323.33,-200.07 328.44,-204.85"/>
</a>
</g>
</g>
<!-- Node3 -->
<g id="Node000003" class="node">
<title>Node3</title>
<g id="a_Node000003"><a xlink:href="course_8h.html" target="_top" xlink:title=" ">
<polygon fill="white" stroke="#666666" points="153,-129 57,-129 57,-110 153,-110 153,-129"/>
<text text-anchor="middle" x="105" y="-117" font-family="Helvetica,sans-Serif" font-size="10.00">include/course.h</text>
</a>
</g>
</g>
<!-- Node2&#45;&gt;Node3 -->
<g id="edge2_Node000002_Node000003" class="edge">
<title>Node2&#45;&gt;Node3</title>
<g id="a_edge2_Node000002_Node000003"><a xlink:title=" ">
<path fill="none" stroke="#63b8ff" d="M209.26,-170.49C188.93,-160.75 155.39,-144.66 131.86,-133.38"/>
<polygon fill="#63b8ff" stroke="#63b8ff" points="133.29,-130.18 122.76,-129.02 130.26,-136.5 133.29,-130.18"/>
</a>
</g>
</g>
<!-- Node5 -->
<g id="Node000005" class="node">
<title>Node5</title>
<g id="a_Node000005"><a xlink:title=" ">
<polygon fill="#e0e0e0" stroke="#999999" points="226,-74 148,-74 148,-55 226,-55 226,-74"/>
<text text-anchor="middle" x="187" y="-62" font-family="Helvetica,sans-Serif" font-size="10.00">libultra/gbi.h</text>
</a>
</g>
</g>
<!-- Node2&#45;&gt;Node5 -->
<g id="edge10_Node000002_Node000005" class="edge">
<title>Node2&#45;&gt;Node5</title>
<g id="a_edge10_Node000002_Node000005"><a xlink:title=" ">
<path fill="none" stroke="#63b8ff" d="M222.2,-170.38C216.92,-160.59 208.44,-144.03 203,-129 197.67,-114.28 193.45,-97.03 190.68,-84.22"/>
<polygon fill="#63b8ff" stroke="#63b8ff" points="194.08,-83.38 188.63,-74.29 187.23,-84.79 194.08,-83.38"/>
</a>
</g>
</g>
<!-- Node8 -->
<g id="Node000008" class="node">
<title>Node8</title>
<g id="a_Node000008"><a xlink:title=" ">
<polygon fill="#e0e0e0" stroke="#999999" points="328,-129 212,-129 212,-110 328,-110 328,-129"/>
<text text-anchor="middle" x="270" y="-117" font-family="Helvetica,sans-Serif" font-size="10.00">resource/Resource.h</text>
</a>
</g>
</g>
<!-- Node2&#45;&gt;Node8 -->
<g id="edge8_Node000002_Node000008" class="edge">
<title>Node2&#45;&gt;Node8</title>
<g id="a_edge8_Node000002_Node000008"><a xlink:title=" ">
<path fill="none" stroke="#63b8ff" d="M233.34,-170.37C239.7,-161.73 249.64,-148.2 257.57,-137.42"/>
<polygon fill="#63b8ff" stroke="#63b8ff" points="260.53,-139.3 263.63,-129.17 254.89,-135.15 260.53,-139.3"/>
</a>
</g>
</g>
<!-- Node9 -->
<g id="Node000009" class="node">
<title>Node9</title>
<g id="a_Node000009"><a xlink:title=" ">
<polygon fill="#e0e0e0" stroke="#999999" points="393.5,-129 346.5,-129 346.5,-110 393.5,-110 393.5,-129"/>
<text text-anchor="middle" x="370" y="-117" font-family="Helvetica,sans-Serif" font-size="10.00">vector</text>
</a>
</g>
</g>
<!-- Node2&#45;&gt;Node9 -->
<g id="edge9_Node000002_Node000009" class="edge">
<title>Node2&#45;&gt;Node9</title>
<g id="a_edge9_Node000002_Node000009"><a xlink:title=" ">
<path fill="none" stroke="#63b8ff" d="M247.79,-170.49C271.94,-160.62 311.98,-144.23 339.62,-132.93"/>
<polygon fill="#63b8ff" stroke="#63b8ff" points="341.25,-136.04 349.18,-129.02 338.6,-129.56 341.25,-136.04"/>
</a>
</g>
</g>
<!-- Node4 -->
<g id="Node000004" class="node">
<title>Node4</title>
<g id="a_Node000004"><a xlink:title=" ">
<polygon fill="#e0e0e0" stroke="#999999" points="80,-19 0,-19 0,0 80,0 80,-19"/>
<text text-anchor="middle" x="40" y="-7" font-family="Helvetica,sans-Serif" font-size="10.00">libultraship.h</text>
</a>
</g>
</g>
<!-- Node3&#45;&gt;Node4 -->
<g id="edge3_Node000003_Node000004" class="edge">
<title>Node3&#45;&gt;Node4</title>
<g id="a_edge3_Node000003_Node000004"><a xlink:title=" ">
<path fill="none" stroke="#63b8ff" d="M93.15,-109.9C82.73,-101.75 67.89,-88.62 59,-74 50.59,-60.17 45.69,-42.38 42.98,-29.14"/>
<polygon fill="#63b8ff" stroke="#63b8ff" points="46.42,-28.5 41.18,-19.29 39.53,-29.75 46.42,-28.5"/>
</a>
</g>
</g>
<!-- Node3&#45;&gt;Node5 -->
<g id="edge4_Node000003_Node000005" class="edge">
<title>Node3&#45;&gt;Node5</title>
<g id="a_edge4_Node000003_Node000005"><a xlink:title=" ">
<path fill="none" stroke="#63b8ff" d="M118.17,-109.98C130.77,-101.84 150,-89.41 164.94,-79.76"/>
<polygon fill="#63b8ff" stroke="#63b8ff" points="167.09,-82.54 173.59,-74.17 163.29,-76.66 167.09,-82.54"/>
</a>
</g>
</g>
<!-- Node6 -->
<g id="Node000006" class="node">
<title>Node6</title>
<g id="a_Node000006"><a xlink:href="macros_8h.html" target="_top" xlink:title=" ">
<polygon fill="white" stroke="#666666" points="130,-74 68,-74 68,-55 130,-55 130,-74"/>
<text text-anchor="middle" x="99" y="-62" font-family="Helvetica,sans-Serif" font-size="10.00">macros.h</text>
</a>
</g>
</g>
<!-- Node3&#45;&gt;Node6 -->
<g id="edge5_Node000003_Node000006" class="edge">
<title>Node3&#45;&gt;Node6</title>
<g id="a_edge5_Node000003_Node000006"><a xlink:title=" ">
<path fill="none" stroke="#63b8ff" d="M104.01,-109.75C103.22,-102.8 102.1,-92.85 101.11,-84.13"/>
<polygon fill="#63b8ff" stroke="#63b8ff" points="104.58,-83.63 99.97,-74.09 97.62,-84.42 104.58,-83.63"/>
</a>
</g>
</g>
<!-- Node6&#45;&gt;Node4 -->
<g id="edge7_Node000006_Node000004" class="edge">
<title>Node6&#45;&gt;Node4</title>
<g id="a_edge7_Node000006_Node000004"><a xlink:title=" ">
<path fill="none" stroke="#63b8ff" d="M89.52,-54.98C80.8,-47.15 67.66,-35.34 57.1,-25.86"/>
<polygon fill="#63b8ff" stroke="#63b8ff" points="59.43,-23.25 49.65,-19.17 54.75,-28.46 59.43,-23.25"/>
</a>
</g>
</g>
<!-- Node7 -->
<g id="Node000007" class="node">
<title>Node7</title>
<g id="a_Node000007"><a xlink:href="math_8h.html" target="_top" xlink:title=" ">
<polygon fill="white" stroke="#666666" points="149.5,-19 98.5,-19 98.5,0 149.5,0 149.5,-19"/>
<text text-anchor="middle" x="124" y="-7" font-family="Helvetica,sans-Serif" font-size="10.00">math.h</text>
</a>
</g>
</g>
<!-- Node6&#45;&gt;Node7 -->
<g id="edge6_Node000006_Node000007" class="edge">
<title>Node6&#45;&gt;Node7</title>
<g id="a_edge6_Node000006_Node000007"><a xlink:title=" ">
<path fill="none" stroke="#63b8ff" d="M103.13,-54.75C106.51,-47.57 111.42,-37.18 115.62,-28.27"/>
<polygon fill="#63b8ff" stroke="#63b8ff" points="118.85,-29.63 119.95,-19.09 112.52,-26.64 118.85,-29.63"/>
</a>
</g>
</g>
</g>
</svg>
</svg>

<style type='text/css'>
<![CDATA[
[data-mouse-over-selected='false'] { opacity: 0.7; }
[data-mouse-over-selected='true']  { opacity: 1.0; }
]]>
</style>
<script type="application/ecmascript"><![CDATA[
document.addEventListener('DOMContentLoaded', (event) => {
  highlightEdges();
  highlightAdjacentNodes();
});
]]></script>
</svg>
