<?xml version="1.0" encoding="UTF-8" standalone="no"?>
<!DOCTYPE svg PUBLIC "-//W3C//DTD SVG 1.1//EN"
 "http://www.w3.org/Graphics/SVG/1.1/DTD/svg11.dtd">
<!-- Generated by graphviz version 2.43.0 (0)
 -->
<!-- Title: src/port/resource/type/TrackSections.h Pages: 1 -->
<svg width="1232pt" height="379pt"
 viewBox="0.00 0.00 1232.00 379.00" xmlns="http://www.w3.org/2000/svg" xmlns:xlink="http://www.w3.org/1999/xlink">
<g id="graph0" class="graph" transform="scale(1 1) rotate(0) translate(4 375)">
<title>src/port/resource/type/TrackSections.h</title>
<!-- Node1 -->
<g id="Node000001" class="node">
<title>Node1</title>
<g id="a_Node000001"><a xlink:title=" ">
<polygon fill="#999999" stroke="#666666" points="268,-371 145,-371 145,-341 268,-341 268,-371"/>
<text text-anchor="start" x="153" y="-359" font-family="Helvetica,sans-Serif" font-size="10.00">src/port/resource/type</text>
<text text-anchor="middle" x="206.5" y="-348" font-family="Helvetica,sans-Serif" font-size="10.00">/TrackSections.h</text>
</a>
</g>
</g>
<!-- Node2 -->
<g id="Node000002" class="node">
<title>Node2</title>
<g id="a_Node000002"><a xlink:title=" ">
<polygon fill="#e0e0e0" stroke="#999999" points="139,-305 0,-305 0,-286 139,-286 139,-305"/>
<text text-anchor="middle" x="69.5" y="-293" font-family="Helvetica,sans-Serif" font-size="10.00">ship/resource/Resource.h</text>
</a>
</g>
</g>
<!-- Node1&#45;&gt;Node2 -->
<g id="edge1_Node000001_Node000002" class="edge">
<title>Node1&#45;&gt;Node2</title>
<g id="a_edge1_Node000001_Node000002"><a xlink:title=" ">
<path fill="none" stroke="#63b8ff" d="M173.69,-340.99C151.03,-331.31 121.15,-318.56 99.2,-309.18"/>
<polygon fill="#63b8ff" stroke="#63b8ff" points="100.3,-305.85 89.73,-305.14 97.55,-312.29 100.3,-305.85"/>
</a>
</g>
</g>
<!-- Node3 -->
<g id="Node000003" class="node">
<title>Node3</title>
<g id="a_Node000003"><a xlink:title=" ">
<polygon fill="#e0e0e0" stroke="#999999" points="204,-305 157,-305 157,-286 204,-286 204,-305"/>
<text text-anchor="middle" x="180.5" y="-293" font-family="Helvetica,sans-Serif" font-size="10.00">vector</text>
</a>
</g>
</g>
<!-- Node1&#45;&gt;Node3 -->
<g id="edge2_Node000001_Node000003" class="edge">
<title>Node1&#45;&gt;Node3</title>
<g id="a_edge2_Node000001_Node000003"><a xlink:title=" ">
<path fill="none" stroke="#63b8ff" d="M200.21,-340.84C196.7,-332.95 192.3,-323.05 188.55,-314.61"/>
<polygon fill="#63b8ff" stroke="#63b8ff" points="191.66,-312.98 184.4,-305.27 185.26,-315.83 191.66,-312.98"/>
</a>
</g>
</g>
<!-- Node4 -->
<g id="Node000004" class="node">
<title>Node4</title>
<g id="a_Node000004"><a xlink:title=" ">
<polygon fill="#e0e0e0" stroke="#999999" points="309.5,-74 231.5,-74 231.5,-55 309.5,-55 309.5,-74"/>
<text text-anchor="middle" x="270.5" y="-62" font-family="Helvetica,sans-Serif" font-size="10.00">libultra/gbi.h</text>
</a>
</g>
</g>
<!-- Node1&#45;&gt;Node4 -->
<g id="edge3_Node000001_Node000004" class="edge">
<title>Node1&#45;&gt;Node4</title>
<g id="a_edge3_Node000001_Node000004"><a xlink:title=" ">
<path fill="none" stroke="#63b8ff" d="M211.89,-340.9C219.5,-319.68 232.5,-278.09 232.5,-241.5 232.5,-241.5 232.5,-241.5 232.5,-184.5 232.5,-147.07 249.77,-106.03 261.02,-83.25"/>
<polygon fill="#63b8ff" stroke="#63b8ff" points="264.24,-84.65 265.69,-74.15 258.01,-81.46 264.24,-84.65"/>
</a>
</g>
</g>
<!-- Node5 -->
<g id="Node000005" class="node">
<title>Node5</title>
<g id="a_Node000005"><a xlink:href="Track_8h.html" target="_top" xlink:title=" ">
<polygon fill="white" stroke="#666666" points="832,-305 695,-305 695,-286 832,-286 832,-305"/>
<text text-anchor="middle" x="763.5" y="-293" font-family="Helvetica,sans-Serif" font-size="10.00">src/engine/tracks/Track.h</text>
</a>
</g>
</g>
<!-- Node1&#45;&gt;Node5 -->
<g id="edge4_Node000001_Node000005" class="edge">
<title>Node1&#45;&gt;Node5</title>
<g id="a_edge4_Node000001_Node000005"><a xlink:title=" ">
<path fill="none" stroke="#63b8ff" d="M268.24,-348.52C370,-337.83 572.82,-316.53 684.76,-304.77"/>
<polygon fill="#63b8ff" stroke="#63b8ff" points="685.39,-308.22 694.97,-303.7 684.66,-301.26 685.39,-308.22"/>
</a>
</g>
</g>
<!-- Node6 -->
<g id="Node000006" class="node">
<title>Node6</title>
<g id="a_Node000006"><a xlink:title=" ">
<polygon fill="#e0e0e0" stroke="#999999" points="948.5,-250 810.5,-250 810.5,-231 948.5,-231 948.5,-250"/>
<text text-anchor="middle" x="879.5" y="-238" font-family="Helvetica,sans-Serif" font-size="10.00">libultraship/libultraship.h</text>
</a>
</g>
</g>
<!-- Node5&#45;&gt;Node6 -->
<g id="edge5_Node000005_Node000006" class="edge">
<title>Node5&#45;&gt;Node6</title>
<g id="a_edge5_Node000005_Node000006"><a xlink:title=" ">
<path fill="none" stroke="#63b8ff" d="M782.14,-285.98C800.8,-277.46 829.75,-264.23 851.24,-254.41"/>
<polygon fill="#63b8ff" stroke="#63b8ff" points="852.88,-257.51 860.52,-250.17 849.97,-251.14 852.88,-257.51"/>
</a>
</g>
</g>
<!-- Node7 -->
<g id="Node000007" class="node">
<title>Node7</title>
<g id="a_Node000007"><a xlink:href="CoreMath_8h.html" target="_top" xlink:title=" ">
<polygon fill="white" stroke="#666666" points="334,-195 261,-195 261,-176 334,-176 334,-195"/>
<text text-anchor="middle" x="297.5" y="-183" font-family="Helvetica,sans-Serif" font-size="10.00">CoreMath.h</text>
</a>
</g>
</g>
<!-- Node5&#45;&gt;Node7 -->
<g id="edge6_Node000005_Node000007" class="edge">
<title>Node5&#45;&gt;Node7</title>
<g id="a_edge6_Node000005_Node000007"><a xlink:title=" ">
<path fill="none" stroke="#63b8ff" d="M694.89,-293.73C622.28,-291.12 505.18,-281.75 409.5,-250 374.97,-238.54 339.08,-215.99 317.51,-201.08"/>
<polygon fill="#63b8ff" stroke="#63b8ff" points="319.38,-198.11 309.19,-195.21 315.35,-203.83 319.38,-198.11"/>
</a>
</g>
</g>
<!-- Node9 -->
<g id="Node000009" class="node">
<title>Node9</title>
<g id="a_Node000009"><a xlink:href="defines_8h.html" target="_top" xlink:title=" ">
<polygon fill="white" stroke="#666666" points="1028,-250 967,-250 967,-231 1028,-231 1028,-250"/>
<text text-anchor="middle" x="997.5" y="-238" font-family="Helvetica,sans-Serif" font-size="10.00">defines.h</text>
</a>
</g>
</g>
<!-- Node5&#45;&gt;Node9 -->
<g id="edge8_Node000005_Node000009" class="edge">
<title>Node5&#45;&gt;Node9</title>
<g id="a_edge8_Node000005_Node000009"><a xlink:title=" ">
<path fill="none" stroke="#63b8ff" d="M801.1,-285.98C843.76,-276.32 913.11,-260.61 956.96,-250.68"/>
<polygon fill="#63b8ff" stroke="#63b8ff" points="957.74,-254.09 966.72,-248.47 956.19,-247.27 957.74,-254.09"/>
</a>
</g>
</g>
<!-- Node10 -->
<g id="Node000010" class="node">
<title>Node10</title>
<g id="a_Node000010"><a xlink:href="camera_8h.html" target="_top" xlink:title=" ">
<polygon fill="white" stroke="#666666" points="974.5,-134.5 912.5,-134.5 912.5,-115.5 974.5,-115.5 974.5,-134.5"/>
<text text-anchor="middle" x="943.5" y="-122.5" font-family="Helvetica,sans-Serif" font-size="10.00">camera.h</text>
</a>
</g>
</g>
<!-- Node5&#45;&gt;Node10 -->
<g id="edge9_Node000005_Node000010" class="edge">
<title>Node5&#45;&gt;Node10</title>
<g id="a_edge9_Node000005_Node000010"><a xlink:title=" ">
<path fill="none" stroke="#63b8ff" d="M832.09,-290.64C929.2,-284.46 1097.09,-270.88 1115.5,-250 1121.08,-243.67 1119.63,-238.36 1115.5,-231 1099.59,-202.65 1016.12,-160.12 971.57,-138.94"/>
<polygon fill="#63b8ff" stroke="#63b8ff" points="972.98,-135.73 962.44,-134.64 970,-142.07 972.98,-135.73"/>
</a>
</g>
</g>
<!-- Node11 -->
<g id="Node000011" class="node">
<title>Node11</title>
<g id="a_Node000011"><a xlink:href="common__structs_8h.html" target="_top" xlink:title=" ">
<polygon fill="white" stroke="#666666" points="862,-74 755,-74 755,-55 862,-55 862,-74"/>
<text text-anchor="middle" x="808.5" y="-62" font-family="Helvetica,sans-Serif" font-size="10.00">common_structs.h</text>
</a>
</g>
</g>
<!-- Node5&#45;&gt;Node11 -->
<g id="edge42_Node000005_Node000011" class="edge">
<title>Node5&#45;&gt;Node11</title>
<g id="a_edge42_Node000005_Node000011"><a xlink:title=" ">
<path fill="none" stroke="#63b8ff" d="M765.4,-285.81C770.51,-262.34 784.88,-195.7 795.5,-140 799.11,-121.09 802.85,-99.4 805.38,-84.32"/>
<polygon fill="#63b8ff" stroke="#63b8ff" points="808.87,-84.67 807.07,-74.23 801.97,-83.52 808.87,-84.67"/>
</a>
</g>
</g>
<!-- Node12 -->
<g id="Node000012" class="node">
<title>Node12</title>
<g id="a_Node000012"><a xlink:href="src_2data_2some__data_8h.html" target="_top" xlink:title=" ">
<polygon fill="white" stroke="#666666" points="522.5,-250 418.5,-250 418.5,-231 522.5,-231 522.5,-250"/>
<text text-anchor="middle" x="470.5" y="-238" font-family="Helvetica,sans-Serif" font-size="10.00">data/some_data.h</text>
</a>
</g>
</g>
<!-- Node5&#45;&gt;Node12 -->
<g id="edge13_Node000005_Node000012" class="edge">
<title>Node5&#45;&gt;Node12</title>
<g id="a_edge13_Node000005_Node000012"><a xlink:title=" ">
<path fill="none" stroke="#63b8ff" d="M716.42,-285.98C665.1,-276.7 582.96,-261.84 527.9,-251.88"/>
<polygon fill="#63b8ff" stroke="#63b8ff" points="528.41,-248.42 517.94,-250.08 527.16,-255.31 528.41,-248.42"/>
</a>
</g>
</g>
<!-- Node17 -->
<g id="Node000017" class="node">
<title>Node17</title>
<g id="a_Node000017"><a xlink:href="bomb__kart_8h.html" target="_top" xlink:title=" ">
<polygon fill="white" stroke="#666666" points="589,-195 512,-195 512,-176 589,-176 589,-195"/>
<text text-anchor="middle" x="550.5" y="-183" font-family="Helvetica,sans-Serif" font-size="10.00">bomb_kart.h</text>
</a>
</g>
</g>
<!-- Node5&#45;&gt;Node17 -->
<g id="edge23_Node000005_Node000017" class="edge">
<title>Node5&#45;&gt;Node17</title>
<g id="a_edge23_Node000005_Node000017"><a xlink:title=" ">
<path fill="none" stroke="#63b8ff" d="M694.77,-286.13C646.57,-278.92 587.63,-266.98 569.5,-250 557.31,-238.58 552.83,-219.69 551.24,-205.47"/>
<polygon fill="#63b8ff" stroke="#63b8ff" points="554.72,-205.02 550.5,-195.31 547.74,-205.54 554.72,-205.02"/>
</a>
</g>
</g>
<!-- Node21 -->
<g id="Node000021" class="node">
<title>Node21</title>
<g id="a_Node000021"><a xlink:href="path__spawn__metadata_8h.html" target="_top" xlink:title=" ">
<polygon fill="white" stroke="#666666" points="716,-250 579,-250 579,-231 716,-231 716,-250"/>
<text text-anchor="middle" x="647.5" y="-238" font-family="Helvetica,sans-Serif" font-size="10.00">path_spawn_metadata.h</text>
</a>
</g>
</g>
<!-- Node5&#45;&gt;Node21 -->
<g id="edge30_Node000005_Node000021" class="edge">
<title>Node5&#45;&gt;Node21</title>
<g id="a_edge30_Node000005_Node000021"><a xlink:title=" ">
<path fill="none" stroke="#63b8ff" d="M744.86,-285.98C726.2,-277.46 697.25,-264.23 675.76,-254.41"/>
<polygon fill="#63b8ff" stroke="#63b8ff" points="677.03,-251.14 666.48,-250.17 674.12,-257.51 677.03,-251.14"/>
</a>
</g>
</g>
<!-- Node22 -->
<g id="Node000022" class="node">
<title>Node22</title>
<g id="a_Node000022"><a xlink:href="waypoints_8h.html" target="_top" xlink:title=" ">
<polygon fill="white" stroke="#666666" points="936.5,-195 860.5,-195 860.5,-176 936.5,-176 936.5,-195"/>
<text text-anchor="middle" x="898.5" y="-183" font-family="Helvetica,sans-Serif" font-size="10.00">waypoints.h</text>
</a>
</g>
</g>
<!-- Node5&#45;&gt;Node22 -->
<g id="edge40_Node000005_Node000022" class="edge">
<title>Node5&#45;&gt;Node22</title>
<g id="a_edge40_Node000005_Node000022"><a xlink:title=" ">
<path fill="none" stroke="#63b8ff" d="M766.83,-285.56C772.23,-272.12 784.09,-246.61 801.5,-231 817.83,-216.36 839.8,-205.75 858.7,-198.56"/>
<polygon fill="#63b8ff" stroke="#63b8ff" points="860.03,-201.8 868.25,-195.12 857.66,-195.22 860.03,-201.8"/>
</a>
</g>
</g>
<!-- Node24 -->
<g id="Node000024" class="node">
<title>Node24</title>
<g id="a_Node000024"><a xlink:href="sounds_8h.html" target="_top" xlink:title=" ">
<polygon fill="white" stroke="#666666" points="1106.5,-250 1046.5,-250 1046.5,-231 1106.5,-231 1106.5,-250"/>
<text text-anchor="middle" x="1076.5" y="-238" font-family="Helvetica,sans-Serif" font-size="10.00">sounds.h</text>
</a>
</g>
</g>
<!-- Node5&#45;&gt;Node24 -->
<g id="edge41_Node000005_Node000024" class="edge">
<title>Node5&#45;&gt;Node24</title>
<g id="a_edge41_Node000005_Node000024"><a xlink:title=" ">
<path fill="none" stroke="#63b8ff" d="M821.65,-285.98C874.95,-277.96 956.28,-265.2 1036.07,-250.19"/>
<polygon fill="#63b8ff" stroke="#63b8ff" points="1037.13,-253.55 1046.3,-248.25 1035.82,-246.67 1037.13,-253.55"/>
</a>
</g>
</g>
<!-- Node25 -->
<g id="Node000025" class="node">
<title>Node25</title>
<g id="a_Node000025"><a xlink:href="code__800029B0_8h.html" target="_top" xlink:title=" ">
<polygon fill="white" stroke="#666666" points="1224,-195 1121,-195 1121,-176 1224,-176 1224,-195"/>
<text text-anchor="middle" x="1172.5" y="-183" font-family="Helvetica,sans-Serif" font-size="10.00">code_800029B0.h</text>
</a>
</g>
</g>
<!-- Node5&#45;&gt;Node25 -->
<g id="edge43_Node000005_Node000025" class="edge">
<title>Node5&#45;&gt;Node25</title>
<g id="a_edge43_Node000005_Node000025"><a xlink:title=" ">
<path fill="none" stroke="#63b8ff" d="M832.12,-294.91C929.33,-294.13 1100.68,-287.29 1148.5,-250 1162.28,-239.26 1168.14,-219.67 1170.65,-205.08"/>
<polygon fill="#63b8ff" stroke="#63b8ff" points="1174.12,-205.5 1171.98,-195.12 1167.18,-204.57 1174.12,-205.5"/>
</a>
</g>
</g>
<!-- Node8 -->
<g id="Node000008" class="node">
<title>Node8</title>
<g id="a_Node000008"><a xlink:title=" ">
<polygon fill="#e0e0e0" stroke="#999999" points="848.5,-19 768.5,-19 768.5,0 848.5,0 848.5,-19"/>
<text text-anchor="middle" x="808.5" y="-7" font-family="Helvetica,sans-Serif" font-size="10.00">libultraship.h</text>
</a>
</g>
</g>
<!-- Node7&#45;&gt;Node8 -->
<g id="edge7_Node000007_Node000008" class="edge">
<title>Node7&#45;&gt;Node8</title>
<g id="a_edge7_Node000007_Node000008"><a xlink:title=" ">
<path fill="none" stroke="#63b8ff" d="M285.45,-175.78C256.17,-153.61 186.29,-94.06 222.5,-55 258.58,-16.08 623.15,-11.03 758.38,-10.5"/>
<polygon fill="#63b8ff" stroke="#63b8ff" points="758.48,-14 768.47,-10.47 758.46,-7 758.48,-14"/>
</a>
</g>
</g>
<!-- Node10&#45;&gt;Node8 -->
<g id="edge10_Node000010_Node000008" class="edge">
<title>Node10&#45;&gt;Node8</title>
<g id="a_edge10_Node000010_Node000008"><a xlink:title=" ">
<path fill="none" stroke="#63b8ff" d="M935.02,-115.06C921.95,-101.46 895.81,-75.05 871.5,-55 858.36,-44.17 842.74,-33.12 830.33,-24.74"/>
<polygon fill="#63b8ff" stroke="#63b8ff" points="832.21,-21.79 821.95,-19.15 828.33,-27.61 832.21,-21.79"/>
</a>
</g>
</g>
<!-- Node10&#45;&gt;Node11 -->
<g id="edge11_Node000010_Node000011" class="edge">
<title>Node10&#45;&gt;Node11</title>
<g id="a_edge11_Node000010_Node000011"><a xlink:title=" ">
<path fill="none" stroke="#63b8ff" d="M923.87,-115.49C901.17,-105.66 863.6,-89.38 837.53,-78.08"/>
<polygon fill="#63b8ff" stroke="#63b8ff" points="838.72,-74.78 828.15,-74.02 835.94,-81.2 838.72,-74.78"/>
</a>
</g>
</g>
<!-- Node11&#45;&gt;Node8 -->
<g id="edge12_Node000011_Node000008" class="edge">
<title>Node11&#45;&gt;Node8</title>
<g id="a_edge12_Node000011_Node000008"><a xlink:title=" ">
<path fill="none" stroke="#63b8ff" d="M808.5,-54.75C808.5,-47.8 808.5,-37.85 808.5,-29.13"/>
<polygon fill="#63b8ff" stroke="#63b8ff" points="812,-29.09 808.5,-19.09 805,-29.09 812,-29.09"/>
</a>
</g>
</g>
<!-- Node12&#45;&gt;Node4 -->
<g id="edge14_Node000012_Node000004" class="edge">
<title>Node12&#45;&gt;Node4</title>
<g id="a_edge14_Node000012_Node000004"><a xlink:title=" ">
<path fill="none" stroke="#63b8ff" d="M453.15,-230.96C410.05,-209.59 300.75,-154.53 289.5,-140 277.14,-124.03 272.75,-100.92 271.23,-84.68"/>
<polygon fill="#63b8ff" stroke="#63b8ff" points="274.7,-84.03 270.56,-74.28 267.71,-84.48 274.7,-84.03"/>
</a>
</g>
</g>
<!-- Node13 -->
<g id="Node000013" class="node">
<title>Node13</title>
<g id="a_Node000013"><a xlink:href="spline_8h.html" target="_top" xlink:title=" ">
<polygon fill="white" stroke="#666666" points="704,-134.5 649,-134.5 649,-115.5 704,-115.5 704,-134.5"/>
<text text-anchor="middle" x="676.5" y="-122.5" font-family="Helvetica,sans-Serif" font-size="10.00">spline.h</text>
</a>
</g>
</g>
<!-- Node12&#45;&gt;Node13 -->
<g id="edge15_Node000012_Node000013" class="edge">
<title>Node12&#45;&gt;Node13</title>
<g id="a_edge15_Node000012_Node000013"><a xlink:title=" ">
<path fill="none" stroke="#63b8ff" d="M472.48,-230.65C476.04,-216.84 484.84,-190.29 502.5,-176 551.43,-136.39 579.53,-159.17 639.5,-140 641.41,-139.39 643.37,-138.73 645.34,-138.05"/>
<polygon fill="#63b8ff" stroke="#63b8ff" points="646.89,-141.21 655.11,-134.53 644.52,-134.63 646.89,-141.21"/>
</a>
</g>
</g>
<!-- Node14 -->
<g id="Node000014" class="node">
<title>Node14</title>
<g id="a_Node000014"><a xlink:href="other__textures_8h.html" target="_top" xlink:title=" ">
<polygon fill="white" stroke="#666666" points="490.5,-140 370.5,-140 370.5,-110 490.5,-110 490.5,-140"/>
<text text-anchor="start" x="378.5" y="-128" font-family="Helvetica,sans-Serif" font-size="10.00">assets/textures/other</text>
<text text-anchor="middle" x="430.5" y="-117" font-family="Helvetica,sans-Serif" font-size="10.00">_textures.h</text>
</a>
</g>
</g>
<!-- Node12&#45;&gt;Node14 -->
<g id="edge17_Node000012_Node000014" class="edge">
<title>Node12&#45;&gt;Node14</title>
<g id="a_edge17_Node000012_Node000014"><a xlink:title=" ">
<path fill="none" stroke="#63b8ff" d="M467.49,-230.97C461.49,-213.93 447.82,-175.16 438.89,-149.8"/>
<polygon fill="#63b8ff" stroke="#63b8ff" points="442.12,-148.45 435.5,-140.18 435.52,-150.78 442.12,-148.45"/>
</a>
</g>
</g>
<!-- Node16 -->
<g id="Node000016" class="node">
<title>Node16</title>
<g id="a_Node000016"><a xlink:href="objects_8h.html" target="_top" xlink:title=" ">
<polygon fill="white" stroke="#666666" points="707,-195 646,-195 646,-176 707,-176 707,-195"/>
<text text-anchor="middle" x="676.5" y="-183" font-family="Helvetica,sans-Serif" font-size="10.00">objects.h</text>
</a>
</g>
</g>
<!-- Node12&#45;&gt;Node16 -->
<g id="edge20_Node000012_Node000016" class="edge">
<title>Node12&#45;&gt;Node16</title>
<g id="a_edge20_Node000012_Node000016"><a xlink:title=" ">
<path fill="none" stroke="#63b8ff" d="M503.6,-230.98C539.62,-221.72 597.23,-206.89 635.94,-196.93"/>
<polygon fill="#63b8ff" stroke="#63b8ff" points="637.03,-200.27 645.84,-194.39 635.28,-193.49 637.03,-200.27"/>
</a>
</g>
</g>
<!-- Node13&#45;&gt;Node11 -->
<g id="edge16_Node000013_Node000011" class="edge">
<title>Node13&#45;&gt;Node11</title>
<g id="a_edge16_Node000013_Node000011"><a xlink:title=" ">
<path fill="none" stroke="#63b8ff" d="M695.69,-115.49C717.89,-105.66 754.62,-89.38 780.12,-78.08"/>
<polygon fill="#63b8ff" stroke="#63b8ff" points="781.56,-81.27 789.28,-74.02 778.72,-74.87 781.56,-81.27"/>
</a>
</g>
</g>
<!-- Node14&#45;&gt;Node8 -->
<g id="edge18_Node000014_Node000008" class="edge">
<title>Node14&#45;&gt;Node8</title>
<g id="a_edge18_Node000014_Node000008"><a xlink:title=" ">
<path fill="none" stroke="#63b8ff" d="M439.74,-109.95C451.21,-93.78 472.36,-67.81 497.5,-55 542,-32.33 681.99,-19.32 758.07,-13.75"/>
<polygon fill="#63b8ff" stroke="#63b8ff" points="758.64,-17.22 768.37,-13.02 758.15,-10.24 758.64,-17.22"/>
</a>
</g>
</g>
<!-- Node15 -->
<g id="Node000015" class="node">
<title>Node15</title>
<g id="a_Node000015"><a xlink:href="align__asset__macro_8h.html" target="_top" xlink:title=" ">
<polygon fill="white" stroke="#666666" points="624,-74 507,-74 507,-55 624,-55 624,-74"/>
<text text-anchor="middle" x="565.5" y="-62" font-family="Helvetica,sans-Serif" font-size="10.00">align_asset_macro.h</text>
</a>
</g>
</g>
<!-- Node14&#45;&gt;Node15 -->
<g id="edge19_Node000014_Node000015" class="edge">
<title>Node14&#45;&gt;Node15</title>
<g id="a_edge19_Node000014_Node000015"><a xlink:title=" ">
<path fill="none" stroke="#63b8ff" d="M462.84,-109.99C485.16,-100.31 514.6,-87.56 536.23,-78.18"/>
<polygon fill="#63b8ff" stroke="#63b8ff" points="537.78,-81.33 545.56,-74.14 535,-74.9 537.78,-81.33"/>
</a>
</g>
</g>
<!-- Node16&#45;&gt;Node11 -->
<g id="edge22_Node000016_Node000011" class="edge">
<title>Node16&#45;&gt;Node11</title>
<g id="a_edge22_Node000016_Node000011"><a xlink:title=" ">
<path fill="none" stroke="#63b8ff" d="M693.05,-175.91C707.9,-167.78 729.85,-154.65 746.5,-140 766.36,-122.53 785.2,-98.44 796.79,-82.43"/>
<polygon fill="#63b8ff" stroke="#63b8ff" points="799.8,-84.24 802.73,-74.05 794.09,-80.19 799.8,-84.24"/>
</a>
</g>
</g>
<!-- Node16&#45;&gt;Node13 -->
<g id="edge21_Node000016_Node000013" class="edge">
<title>Node16&#45;&gt;Node13</title>
<g id="a_edge21_Node000016_Node000013"><a xlink:title=" ">
<path fill="none" stroke="#63b8ff" d="M676.5,-175.87C676.5,-167.75 676.5,-155.31 676.5,-144.89"/>
<polygon fill="#63b8ff" stroke="#63b8ff" points="680,-144.67 676.5,-134.67 673,-144.67 680,-144.67"/>
</a>
</g>
</g>
<!-- Node17&#45;&gt;Node11 -->
<g id="edge24_Node000017_Node000011" class="edge">
<title>Node17&#45;&gt;Node11</title>
<g id="a_edge24_Node000017_Node000011"><a xlink:title=" ">
<path fill="none" stroke="#63b8ff" d="M589.32,-179.18C623.62,-173.28 674.16,-161.6 713.5,-140 730.87,-130.46 731.09,-122.47 746.5,-110 759.47,-99.51 774.68,-88.57 786.79,-80.17"/>
<polygon fill="#63b8ff" stroke="#63b8ff" points="789.09,-82.83 795.35,-74.28 785.13,-77.06 789.09,-82.83"/>
</a>
</g>
</g>
<!-- Node18 -->
<g id="Node000018" class="node">
<title>Node18</title>
<g id="a_Node000018"><a xlink:href="mk64_8h.html" target="_top" xlink:title=" ">
<polygon fill="white" stroke="#666666" points="352,-134.5 299,-134.5 299,-115.5 352,-115.5 352,-134.5"/>
<text text-anchor="middle" x="325.5" y="-122.5" font-family="Helvetica,sans-Serif" font-size="10.00">mk64.h</text>
</a>
</g>
</g>
<!-- Node17&#45;&gt;Node18 -->
<g id="edge25_Node000017_Node000018" class="edge">
<title>Node17&#45;&gt;Node18</title>
<g id="a_edge25_Node000017_Node000018"><a xlink:title=" ">
<path fill="none" stroke="#63b8ff" d="M511.71,-177.02C473.2,-169.21 412.69,-155.89 361.5,-140 359.63,-139.42 357.71,-138.79 355.79,-138.12"/>
<polygon fill="#63b8ff" stroke="#63b8ff" points="356.86,-134.79 346.27,-134.64 354.46,-141.36 356.86,-134.79"/>
</a>
</g>
</g>
<!-- Node18&#45;&gt;Node4 -->
<g id="edge29_Node000018_Node000004" class="edge">
<title>Node18&#45;&gt;Node4</title>
<g id="a_edge29_Node000018_Node000004"><a xlink:title=" ">
<path fill="none" stroke="#63b8ff" d="M317.38,-115.37C309.1,-106.55 296.03,-92.66 285.8,-81.77"/>
<polygon fill="#63b8ff" stroke="#63b8ff" points="288.05,-79.06 278.65,-74.17 282.95,-83.85 288.05,-79.06"/>
</a>
</g>
</g>
<!-- Node18&#45;&gt;Node8 -->
<g id="edge26_Node000018_Node000008" class="edge">
<title>Node18&#45;&gt;Node8</title>
<g id="a_edge26_Node000018_Node000008"><a xlink:title=" ">
<path fill="none" stroke="#63b8ff" d="M339.5,-115.35C364.42,-100.4 418.57,-69.89 468.5,-55 568.41,-25.2 690.74,-15.35 758.06,-12.1"/>
<polygon fill="#63b8ff" stroke="#63b8ff" points="758.55,-15.58 768.38,-11.63 758.23,-8.58 758.55,-15.58"/>
</a>
</g>
</g>
<!-- Node19 -->
<g id="Node000019" class="node">
<title>Node19</title>
<g id="a_Node000019"><a xlink:href="string_8h.html" target="_top" xlink:title=" ">
<polygon fill="white" stroke="#666666" points="381,-74 328,-74 328,-55 381,-55 381,-74"/>
<text text-anchor="middle" x="354.5" y="-62" font-family="Helvetica,sans-Serif" font-size="10.00">string.h</text>
</a>
</g>
</g>
<!-- Node18&#45;&gt;Node19 -->
<g id="edge27_Node000018_Node000019" class="edge">
<title>Node18&#45;&gt;Node19</title>
<g id="a_edge27_Node000018_Node000019"><a xlink:title=" ">
<path fill="none" stroke="#63b8ff" d="M329.78,-115.37C333.93,-106.99 340.37,-94.01 345.63,-83.39"/>
<polygon fill="#63b8ff" stroke="#63b8ff" points="348.9,-84.68 350.2,-74.17 342.63,-81.57 348.9,-84.68"/>
</a>
</g>
</g>
<!-- Node20 -->
<g id="Node000020" class="node">
<title>Node20</title>
<g id="a_Node000020"><a xlink:title=" ">
<polygon fill="#e0e0e0" stroke="#999999" points="399.5,-19 309.5,-19 309.5,0 399.5,0 399.5,-19"/>
<text text-anchor="middle" x="354.5" y="-7" font-family="Helvetica,sans-Serif" font-size="10.00">libultra/types.h</text>
</a>
</g>
</g>
<!-- Node19&#45;&gt;Node20 -->
<g id="edge28_Node000019_Node000020" class="edge">
<title>Node19&#45;&gt;Node20</title>
<g id="a_edge28_Node000019_Node000020"><a xlink:title=" ">
<path fill="none" stroke="#63b8ff" d="M354.5,-54.75C354.5,-47.8 354.5,-37.85 354.5,-29.13"/>
<polygon fill="#63b8ff" stroke="#63b8ff" points="358,-29.09 354.5,-19.09 351,-29.09 358,-29.09"/>
</a>
</g>
</g>
<!-- Node21&#45;&gt;Node11 -->
<g id="edge33_Node000021_Node000011" class="edge">
<title>Node21&#45;&gt;Node11</title>
<g id="a_edge33_Node000021_Node000011"><a xlink:title=" ">
<path fill="none" stroke="#63b8ff" d="M663.41,-230.95C689.91,-215.94 743.16,-182.38 773.5,-140 786.07,-122.44 796,-99.65 802.02,-83.92"/>
<polygon fill="#63b8ff" stroke="#63b8ff" points="805.39,-84.91 805.55,-74.32 798.82,-82.49 805.39,-84.91"/>
</a>
</g>
</g>
<!-- Node21&#45;&gt;Node17 -->
<g id="edge39_Node000021_Node000017" class="edge">
<title>Node21&#45;&gt;Node17</title>
<g id="a_edge39_Node000021_Node000017"><a xlink:title=" ">
<path fill="none" stroke="#63b8ff" d="M631.92,-230.98C616.73,-222.69 593.4,-209.94 575.6,-200.22"/>
<polygon fill="#63b8ff" stroke="#63b8ff" points="576.82,-196.89 566.37,-195.17 573.47,-203.04 576.82,-196.89"/>
</a>
</g>
</g>
<!-- Node21&#45;&gt;Node22 -->
<g id="edge31_Node000021_Node000022" class="edge">
<title>Node21&#45;&gt;Node22</title>
<g id="a_edge31_Node000021_Node000022"><a xlink:title=" ">
<path fill="none" stroke="#63b8ff" d="M687.83,-230.98C732.11,-221.63 803.18,-206.63 850.35,-196.67"/>
<polygon fill="#63b8ff" stroke="#63b8ff" points="851.27,-200.05 860.33,-194.56 849.82,-193.2 851.27,-200.05"/>
</a>
</g>
</g>
<!-- Node23 -->
<g id="Node000023" class="node">
<title>Node23</title>
<g id="a_Node000023"><a xlink:href="other_2common__data_8h.html" target="_top" xlink:title=" ">
<polygon fill="white" stroke="#666666" points="630.5,-140 508.5,-140 508.5,-110 630.5,-110 630.5,-140"/>
<text text-anchor="start" x="516.5" y="-128" font-family="Helvetica,sans-Serif" font-size="10.00">assets/other/common</text>
<text text-anchor="middle" x="569.5" y="-117" font-family="Helvetica,sans-Serif" font-size="10.00">_data.h</text>
</a>
</g>
</g>
<!-- Node21&#45;&gt;Node23 -->
<g id="edge34_Node000021_Node000023" class="edge">
<title>Node21&#45;&gt;Node23</title>
<g id="a_edge34_Node000021_Node000023"><a xlink:title=" ">
<path fill="none" stroke="#63b8ff" d="M641.64,-230.97C629.72,-213.63 602.33,-173.77 584.94,-148.47"/>
<polygon fill="#63b8ff" stroke="#63b8ff" points="587.79,-146.44 579.25,-140.18 582.02,-150.4 587.79,-146.44"/>
</a>
</g>
</g>
<!-- Node22&#45;&gt;Node11 -->
<g id="edge32_Node000022_Node000011" class="edge">
<title>Node22&#45;&gt;Node11</title>
<g id="a_edge32_Node000022_Node000011"><a xlink:title=" ">
<path fill="none" stroke="#63b8ff" d="M895.28,-175.59C889.7,-160.93 877.21,-131.21 860.5,-110 851.65,-98.77 839.64,-88.27 829.38,-80.29"/>
<polygon fill="#63b8ff" stroke="#63b8ff" points="831.39,-77.42 821.29,-74.22 827.19,-83.02 831.39,-77.42"/>
</a>
</g>
</g>
<!-- Node23&#45;&gt;Node4 -->
<g id="edge35_Node000023_Node000004" class="edge">
<title>Node23&#45;&gt;Node4</title>
<g id="a_edge35_Node000023_Node000004"><a xlink:title=" ">
<path fill="none" stroke="#63b8ff" d="M508.42,-111.76C505.4,-111.17 502.42,-110.58 499.5,-110 437.62,-97.8 366.29,-83.98 319.9,-75.02"/>
<polygon fill="#63b8ff" stroke="#63b8ff" points="320.3,-71.53 309.82,-73.07 318.97,-78.4 320.3,-71.53"/>
</a>
</g>
</g>
<!-- Node23&#45;&gt;Node8 -->
<g id="edge36_Node000023_Node000008" class="edge">
<title>Node23&#45;&gt;Node8</title>
<g id="a_edge36_Node000023_Node000008"><a xlink:title=" ">
<path fill="none" stroke="#63b8ff" d="M599.29,-109.85C646.03,-87.65 735.95,-44.95 781.15,-23.49"/>
<polygon fill="#63b8ff" stroke="#63b8ff" points="782.81,-26.58 790.34,-19.12 779.8,-20.25 782.81,-26.58"/>
</a>
</g>
</g>
<!-- Node23&#45;&gt;Node11 -->
<g id="edge37_Node000023_Node000011" class="edge">
<title>Node23&#45;&gt;Node11</title>
<g id="a_edge37_Node000023_Node000011"><a xlink:title=" ">
<path fill="none" stroke="#63b8ff" d="M626.75,-109.99C668.71,-99.72 724.88,-85.97 763.61,-76.49"/>
<polygon fill="#63b8ff" stroke="#63b8ff" points="764.67,-79.83 773.55,-74.05 763.01,-73.03 764.67,-79.83"/>
</a>
</g>
</g>
<!-- Node23&#45;&gt;Node15 -->
<g id="edge38_Node000023_Node000015" class="edge">
<title>Node23&#45;&gt;Node15</title>
<g id="a_edge38_Node000023_Node000015"><a xlink:title=" ">
<path fill="none" stroke="#63b8ff" d="M568.53,-109.84C568.01,-102.21 567.36,-92.7 566.8,-84.45"/>
<polygon fill="#63b8ff" stroke="#63b8ff" points="570.27,-84 566.1,-74.27 563.29,-84.48 570.27,-84"/>
</a>
</g>
</g>
<!-- Node25&#45;&gt;Node8 -->
<g id="edge47_Node000025_Node000008" class="edge">
<title>Node25&#45;&gt;Node8</title>
<g id="a_edge47_Node000025_Node000008"><a xlink:title=" ">
<path fill="none" stroke="#63b8ff" d="M1143.43,-175.94C1117.31,-167.87 1078.15,-154.83 1045.5,-140 975.73,-108.32 962.96,-91.34 895.5,-55 875.34,-44.14 852.25,-32.36 834.92,-23.65"/>
<polygon fill="#63b8ff" stroke="#63b8ff" points="836.45,-20.5 825.95,-19.15 833.32,-26.76 836.45,-20.5"/>
</a>
</g>
</g>
<!-- Node25&#45;&gt;Node10 -->
<g id="edge53_Node000025_Node000010" class="edge">
<title>Node25&#45;&gt;Node10</title>
<g id="a_edge53_Node000025_Node000010"><a xlink:title=" ">
<path fill="none" stroke="#63b8ff" d="M1133.9,-175.93C1096.54,-167.45 1038.4,-153.78 988.5,-140 985.69,-139.22 982.79,-138.39 979.88,-137.54"/>
<polygon fill="#63b8ff" stroke="#63b8ff" points="980.65,-134.11 970.07,-134.58 978.63,-140.82 980.65,-134.11"/>
</a>
</g>
</g>
<!-- Node26 -->
<g id="Node000026" class="node">
<title>Node26</title>
<g id="a_Node000026"><a xlink:href="macros_8h.html" target="_top" xlink:title=" ">
<polygon fill="white" stroke="#666666" points="1203.5,-74 1141.5,-74 1141.5,-55 1203.5,-55 1203.5,-74"/>
<text text-anchor="middle" x="1172.5" y="-62" font-family="Helvetica,sans-Serif" font-size="10.00">macros.h</text>
</a>
</g>
</g>
<!-- Node25&#45;&gt;Node26 -->
<g id="edge44_Node000025_Node000026" class="edge">
<title>Node25&#45;&gt;Node26</title>
<g id="a_edge44_Node000025_Node000026"><a xlink:title=" ">
<path fill="none" stroke="#63b8ff" d="M1172.5,-175.94C1172.5,-156.91 1172.5,-110.69 1172.5,-84.47"/>
<polygon fill="#63b8ff" stroke="#63b8ff" points="1176,-84.3 1172.5,-74.3 1169,-84.3 1176,-84.3"/>
</a>
</g>
</g>
<!-- Node28 -->
<g id="Node000028" class="node">
<title>Node28</title>
<g id="a_Node000028"><a xlink:href="actor__types_8h.html" target="_top" xlink:title=" ">
<polygon fill="white" stroke="#666666" points="1137,-134.5 1054,-134.5 1054,-115.5 1137,-115.5 1137,-134.5"/>
<text text-anchor="middle" x="1095.5" y="-122.5" font-family="Helvetica,sans-Serif" font-size="10.00">actor_types.h</text>
</a>
</g>
</g>
<!-- Node25&#45;&gt;Node28 -->
<g id="edge48_Node000025_Node000028" class="edge">
<title>Node25&#45;&gt;Node28</title>
<g id="a_edge48_Node000025_Node000028"><a xlink:title=" ">
<path fill="none" stroke="#63b8ff" d="M1161.14,-175.87C1149.08,-166.71 1129.8,-152.06 1115.25,-141.01"/>
<polygon fill="#63b8ff" stroke="#63b8ff" points="1116.99,-137.93 1106.91,-134.67 1112.75,-143.5 1116.99,-137.93"/>
</a>
</g>
</g>
<!-- Node26&#45;&gt;Node8 -->
<g id="edge46_Node000026_Node000008" class="edge">
<title>Node26&#45;&gt;Node8</title>
<g id="a_edge46_Node000026_Node000008"><a xlink:title=" ">
<path fill="none" stroke="#63b8ff" d="M1141.1,-56.6C1138.2,-56.03 1135.3,-55.49 1132.5,-55 1036.07,-38.16 922.58,-23.82 858.74,-16.25"/>
<polygon fill="#63b8ff" stroke="#63b8ff" points="858.89,-12.74 848.55,-15.05 858.07,-19.69 858.89,-12.74"/>
</a>
</g>
</g>
<!-- Node27 -->
<g id="Node000027" class="node">
<title>Node27</title>
<g id="a_Node000027"><a xlink:href="math_8h.html" target="_top" xlink:title=" ">
<polygon fill="white" stroke="#666666" points="1198,-19 1147,-19 1147,0 1198,0 1198,-19"/>
<text text-anchor="middle" x="1172.5" y="-7" font-family="Helvetica,sans-Serif" font-size="10.00">math.h</text>
</a>
</g>
</g>
<!-- Node26&#45;&gt;Node27 -->
<g id="edge45_Node000026_Node000027" class="edge">
<title>Node26&#45;&gt;Node27</title>
<g id="a_edge45_Node000026_Node000027"><a xlink:title=" ">
<path fill="none" stroke="#63b8ff" d="M1172.5,-54.75C1172.5,-47.8 1172.5,-37.85 1172.5,-29.13"/>
<polygon fill="#63b8ff" stroke="#63b8ff" points="1176,-29.09 1172.5,-19.09 1169,-29.09 1176,-29.09"/>
</a>
</g>
</g>
<!-- Node28&#45;&gt;Node8 -->
<g id="edge49_Node000028_Node000008" class="edge">
<title>Node28&#45;&gt;Node8</title>
<g id="a_edge49_Node000028_Node000008"><a xlink:title=" ">
<path fill="none" stroke="#63b8ff" d="M1088.1,-115.23C1075.04,-100.37 1046.37,-70.36 1015.5,-55 965.53,-30.14 902.03,-19.11 858.61,-14.26"/>
<polygon fill="#63b8ff" stroke="#63b8ff" points="858.89,-10.77 848.58,-13.21 858.16,-17.73 858.89,-10.77"/>
</a>
</g>
</g>
<!-- Node28&#45;&gt;Node11 -->
<g id="edge51_Node000028_Node000011" class="edge">
<title>Node28&#45;&gt;Node11</title>
<g id="a_edge51_Node000028_Node000011"><a xlink:title=" ">
<path fill="none" stroke="#63b8ff" d="M1053.77,-115.49C1002.54,-105.05 915.67,-87.35 860.25,-76.05"/>
<polygon fill="#63b8ff" stroke="#63b8ff" points="860.78,-72.58 850.28,-74.02 859.38,-79.44 860.78,-72.58"/>
</a>
</g>
</g>
<!-- Node28&#45;&gt;Node26 -->
<g id="edge50_Node000028_Node000026" class="edge">
<title>Node28&#45;&gt;Node26</title>
<g id="a_edge50_Node000028_Node000026"><a xlink:title=" ">
<path fill="none" stroke="#63b8ff" d="M1106.86,-115.37C1118.92,-106.21 1138.2,-91.56 1152.75,-80.51"/>
<polygon fill="#63b8ff" stroke="#63b8ff" points="1155.25,-83 1161.09,-74.17 1151.01,-77.43 1155.25,-83"/>
</a>
</g>
</g>
<!-- Node29 -->
<g id="Node000029" class="node">
<title>Node29</title>
<g id="a_Node000029"><a xlink:title=" ">
<polygon fill="#e0e0e0" stroke="#999999" points="1123.5,-74 1067.5,-74 1067.5,-55 1123.5,-55 1123.5,-74"/>
<text text-anchor="middle" x="1095.5" y="-62" font-family="Helvetica,sans-Serif" font-size="10.00">assert.h</text>
</a>
</g>
</g>
<!-- Node28&#45;&gt;Node29 -->
<g id="edge52_Node000028_Node000029" class="edge">
<title>Node28&#45;&gt;Node29</title>
<g id="a_edge52_Node000028_Node000029"><a xlink:title=" ">
<path fill="none" stroke="#63b8ff" d="M1095.5,-115.37C1095.5,-107.25 1095.5,-94.81 1095.5,-84.39"/>
<polygon fill="#63b8ff" stroke="#63b8ff" points="1099,-84.17 1095.5,-74.17 1092,-84.17 1099,-84.17"/>
</a>
</g>
</g>
</g>
</svg>
