<?xml version="1.0" encoding="UTF-8" standalone="no"?>
<!DOCTYPE svg PUBLIC "-//W3C//DTD SVG 1.1//EN"
 "http://www.w3.org/Graphics/SVG/1.1/DTD/svg11.dtd">
<!-- Generated by graphviz version 2.43.0 (0)
 -->
<!-- Title: courses/harbour/track.c Pages: 1 -->
<!--zoomable 423 -->

<svg id="main" version="1.1" xmlns="http://www.w3.org/2000/svg" xmlns:xlink="http://www.w3.org/1999/xlink" xml:space="preserve" onload="init(evt)">

<style type="text/css"><![CDATA[
.node, .edge {opacity: 0.7;}
.node.selected, .edge.selected {opacity: 1;}
.edge:hover path { stroke: red; }
.edge:hover polygon { stroke: red; fill: red; }
]]></style>

<defs>
  <circle id="rim" cx="0" cy="0" r="7"/>
  <circle id="rim2" cx="0" cy="0" r="3.5"/>
  <g id="zoomPlus">
    <use xlink:href="#rim" fill="#404040"><set attributeName="fill" to="#808080" begin="zoomplus.mouseover" end="zoomplus.mouseout"/></use>
    <path d="M-4,0h8M0,-4v8" fill="none" stroke="white" stroke-width="1.5" pointer-events="none"/>
  </g>
  <g id="zoomMin">
    <use xlink:href="#rim" fill="#404040"><set attributeName="fill" to="#808080" begin="zoomminus.mouseover" end="zoomminus.mouseout"/></use>
    <path d="M-4,0h8" fill="none" stroke="white" stroke-width="1.5" pointer-events="none"/>
  </g>
  <g id="arrowUp" transform="translate(30 24)">
    <use xlink:href="#rim"/>
    <path pointer-events="none" fill="none" stroke="white" stroke-width="1.5" d="M0,-3.0v7 M-2.5,-0.5L0,-3.0L2.5,-0.5"/>
  </g>
  <g id="arrowRight" transform="rotate(90) translate(36 -43)">
    <use xlink:href="#rim"/>
    <path pointer-events="none" fill="none" stroke="white" stroke-width="1.5" d="M0,-3.0v7 M-2.5,-0.5L0,-3.0L2.5,-0.5"/>
  </g>
  <g id="arrowDown" transform="rotate(180) translate(-30 -48)">
    <use xlink:href="#rim"/>
    <path pointer-events="none" fill="none" stroke="white" stroke-width="1.5" d="M0,-3.0v7 M-2.5,-0.5L0,-3.0L2.5,-0.5"/>
  </g>
  <g id="arrowLeft" transform="rotate(270) translate(-36 17)">
    <use xlink:href="#rim"/>
    <path pointer-events="none" fill="none" stroke="white" stroke-width="1.5" d="M0,-3.0v7 M-2.5,-0.5L0,-3.0L2.5,-0.5"/>
  </g>
  <g id="resetDef">
    <use xlink:href="#rim2" fill="#404040"><set attributeName="fill" to="#808080" begin="reset.mouseover" end="reset.mouseout"/></use>
  </g>
</defs>
<script type="application/ecmascript">
var viewWidth = 1240;
var viewHeight = 423;
var sectionId = 'dynsection-0';
</script>
<script type="application/ecmascript" xlink:href="svg.min.js"/>
<svg id="graph" class="graph">
<g id="viewport">
<title>courses/harbour/track.c</title>
<!-- Node1 -->
<g id="Node000001" class="node">
<title>Node1</title>
<g id="a_Node000001"><a xlink:title=" ">
<polygon fill="#999999" stroke="#666666" points="245.87,-415 114.87,-415 114.87,-396 245.87,-396 245.87,-415"/>
<text text-anchor="middle" x="180.37" y="-403" font-family="Helvetica,sans-Serif" font-size="10.00">courses/harbour/track.c</text>
</a>
</g>
</g>
<!-- Node2 -->
<g id="Node000002" class="node">
<title>Node2</title>
<g id="a_Node000002"><a xlink:title=" ">
<polygon fill="#e0e0e0" stroke="#999999" points="587.37,-19 507.37,-19 507.37,0 587.37,0 587.37,-19"/>
<text text-anchor="middle" x="547.37" y="-7" font-family="Helvetica,sans-Serif" font-size="10.00">libultraship.h</text>
</a>
</g>
</g>
<!-- Node1&#45;&gt;Node2 -->
<g id="edge1_Node000001_Node000002" class="edge">
<title>Node1&#45;&gt;Node2</title>
<g id="a_edge1_Node000001_Node000002"><a xlink:title=" ">
<path fill="none" stroke="#63b8ff" d="M128.59,-395.96C75.73,-383.94 1.37,-356.39 1.37,-296.5 1.37,-296.5 1.37,-296.5 1.37,-124 1.37,-92.19 -4.1,-75.32 20.37,-55 56.56,-24.93 372.69,-14.49 497.24,-11.52"/>
<polygon fill="#63b8ff" stroke="#63b8ff" points="497.36,-15.01 507.28,-11.28 497.2,-8.02 497.36,-15.01"/>
</a>
</g>
</g>
<!-- Node3 -->
<g id="Node000003" class="node">
<title>Node3</title>
<g id="a_Node000003"><a xlink:title=" ">
<polygon fill="#e0e0e0" stroke="#999999" points="418.37,-74 340.37,-74 340.37,-55 418.37,-55 418.37,-74"/>
<text text-anchor="middle" x="379.37" y="-62" font-family="Helvetica,sans-Serif" font-size="10.00">libultra/gbi.h</text>
</a>
</g>
</g>
<!-- Node1&#45;&gt;Node3 -->
<g id="edge2_Node000001_Node000003" class="edge">
<title>Node1&#45;&gt;Node3</title>
<g id="a_edge2_Node000001_Node000003"><a xlink:title=" ">
<path fill="none" stroke="#63b8ff" d="M182.45,-395.78C190.45,-363.67 221.75,-250 280.37,-176 296.92,-155.1 309.92,-159.26 328.37,-140 345.07,-122.56 360.13,-99.14 369.49,-83.24"/>
<polygon fill="#63b8ff" stroke="#63b8ff" points="372.6,-84.86 374.54,-74.44 366.52,-81.37 372.6,-84.86"/>
</a>
</g>
</g>
<!-- Node4 -->
<g id="Node000004" class="node">
<title>Node4</title>
<g id="a_Node000004"><a xlink:href="Game_8h.html" target="_top" xlink:title=" ">
<polygon fill="white" stroke="#666666" points="785.87,-360 708.87,-360 708.87,-341 785.87,-341 785.87,-360"/>
<text text-anchor="middle" x="747.37" y="-348" font-family="Helvetica,sans-Serif" font-size="10.00">port/Game.h</text>
</a>
</g>
</g>
<!-- Node1&#45;&gt;Node4 -->
<g id="edge3_Node000001_Node000004" class="edge">
<title>Node1&#45;&gt;Node4</title>
<g id="a_edge3_Node000001_Node000004"><a xlink:title=" ">
<path fill="none" stroke="#63b8ff" d="M245.96,-398.37C361.09,-387.61 596.94,-365.56 698.77,-356.04"/>
<polygon fill="#63b8ff" stroke="#63b8ff" points="699.15,-359.52 708.78,-355.11 698.5,-352.55 699.15,-359.52"/>
</a>
</g>
</g>
<!-- Node4&#45;&gt;Node2 -->
<g id="edge4_Node000004_Node000002" class="edge">
<title>Node4&#45;&gt;Node2</title>
<g id="a_edge4_Node000004_Node000002"><a xlink:title=" ">
<path fill="none" stroke="#63b8ff" d="M708.82,-347.41C566.03,-339.16 75.37,-306.12 75.37,-241.5 75.37,-241.5 75.37,-241.5 75.37,-184.5 75.37,-112.85 104.54,-80.84 171.37,-55 229.68,-32.45 408.93,-18.84 497.2,-13.34"/>
<polygon fill="#63b8ff" stroke="#63b8ff" points="497.47,-16.83 507.24,-12.72 497.04,-9.84 497.47,-16.83"/>
</a>
</g>
</g>
<!-- Node5 -->
<g id="Node000005" class="node">
<title>Node5</title>
<g id="a_Node000005"><a xlink:href="Track_8h.html" target="_top" xlink:title=" ">
<polygon fill="white" stroke="#666666" points="807.37,-305 687.37,-305 687.37,-286 807.37,-286 807.37,-305"/>
<text text-anchor="middle" x="747.37" y="-293" font-family="Helvetica,sans-Serif" font-size="10.00">engine/tracks/Track.h</text>
</a>
</g>
</g>
<!-- Node4&#45;&gt;Node5 -->
<g id="edge5_Node000004_Node000005" class="edge">
<title>Node4&#45;&gt;Node5</title>
<g id="a_edge5_Node000004_Node000005"><a xlink:title=" ">
<path fill="none" stroke="#63b8ff" d="M747.37,-340.75C747.37,-333.8 747.37,-323.85 747.37,-315.13"/>
<polygon fill="#63b8ff" stroke="#63b8ff" points="750.87,-315.09 747.37,-305.09 743.87,-315.09 750.87,-315.09"/>
</a>
</g>
</g>
<!-- Node9 -->
<g id="Node000009" class="node">
<title>Node9</title>
<g id="a_Node000009"><a xlink:href="camera_8h.html" target="_top" xlink:title=" ">
<polygon fill="white" stroke="#666666" points="1026.37,-134.5 964.37,-134.5 964.37,-115.5 1026.37,-115.5 1026.37,-134.5"/>
<text text-anchor="middle" x="995.37" y="-122.5" font-family="Helvetica,sans-Serif" font-size="10.00">camera.h</text>
</a>
</g>
</g>
<!-- Node4&#45;&gt;Node9 -->
<g id="edge60_Node000004_Node000009" class="edge">
<title>Node4&#45;&gt;Node9</title>
<g id="a_edge60_Node000004_Node000009"><a xlink:title=" ">
<path fill="none" stroke="#63b8ff" d="M786.06,-344.53C840.64,-335.49 939.86,-311.24 996.37,-250 1019.25,-225.2 1019.17,-209.24 1013.37,-176 1011.45,-165.04 1007.35,-153.31 1003.54,-143.96"/>
<polygon fill="#63b8ff" stroke="#63b8ff" points="1006.68,-142.4 999.5,-134.6 1000.25,-145.17 1006.68,-142.4"/>
</a>
</g>
</g>
<!-- Node24 -->
<g id="Node000024" class="node">
<title>Node24</title>
<g id="a_Node000024"><a xlink:href="code__800029B0_8h.html" target="_top" xlink:title=" ">
<polygon fill="white" stroke="#666666" points="1169.87,-195 1066.87,-195 1066.87,-176 1169.87,-176 1169.87,-195"/>
<text text-anchor="middle" x="1118.37" y="-183" font-family="Helvetica,sans-Serif" font-size="10.00">code_800029B0.h</text>
</a>
</g>
</g>
<!-- Node4&#45;&gt;Node24 -->
<g id="edge62_Node000004_Node000024" class="edge">
<title>Node4&#45;&gt;Node24</title>
<g id="a_edge62_Node000004_Node000024"><a xlink:title=" ">
<path fill="none" stroke="#63b8ff" d="M785.97,-348.07C858.09,-344.72 1009.86,-334.32 1052.37,-305 1087.47,-280.79 1105.93,-231.55 1113.73,-204.8"/>
<polygon fill="#63b8ff" stroke="#63b8ff" points="1117.11,-205.71 1116.37,-195.14 1110.36,-203.87 1117.11,-205.71"/>
</a>
</g>
</g>
<!-- Node27 -->
<g id="Node000027" class="node">
<title>Node27</title>
<g id="a_Node000027"><a xlink:href="actor__types_8h.html" target="_top" xlink:title=" ">
<polygon fill="white" stroke="#666666" points="1165.87,-134.5 1082.87,-134.5 1082.87,-115.5 1165.87,-115.5 1165.87,-134.5"/>
<text text-anchor="middle" x="1124.37" y="-122.5" font-family="Helvetica,sans-Serif" font-size="10.00">actor_types.h</text>
</a>
</g>
</g>
<!-- Node4&#45;&gt;Node27 -->
<g id="edge61_Node000004_Node000027" class="edge">
<title>Node4&#45;&gt;Node27</title>
<g id="a_edge61_Node000004_Node000027"><a xlink:title=" ">
<path fill="none" stroke="#63b8ff" d="M785.87,-347.48C861.3,-343.01 1025.52,-330.58 1075.37,-305 1135.23,-274.28 1154.49,-257.51 1179.37,-195 1187.97,-173.37 1166.99,-153.11 1148.51,-140.21"/>
<polygon fill="#63b8ff" stroke="#63b8ff" points="1150.33,-137.22 1140.04,-134.66 1146.49,-143.07 1150.33,-137.22"/>
</a>
</g>
</g>
<!-- Node29 -->
<g id="Node000029" class="node">
<title>Node29</title>
<g id="a_Node000029"><a xlink:href="HM__Intro_8h.html" target="_top" xlink:title=" ">
<polygon fill="white" stroke="#666666" points="319.37,-134.5 213.37,-134.5 213.37,-115.5 319.37,-115.5 319.37,-134.5"/>
<text text-anchor="middle" x="266.37" y="-122.5" font-family="Helvetica,sans-Serif" font-size="10.00">engine/HM_Intro.h</text>
</a>
</g>
</g>
<!-- Node4&#45;&gt;Node29 -->
<g id="edge55_Node000004_Node000029" class="edge">
<title>Node4&#45;&gt;Node29</title>
<g id="a_edge55_Node000004_Node000029"><a xlink:title=" ">
<path fill="none" stroke="#63b8ff" d="M708.56,-345.38C612.2,-334.45 365.35,-301.95 303.37,-250 272.18,-223.86 266.6,-172.64 266.01,-144.91"/>
<polygon fill="#63b8ff" stroke="#63b8ff" points="269.51,-144.6 266,-134.61 262.51,-144.61 269.51,-144.6"/>
</a>
</g>
</g>
<!-- Node6 -->
<g id="Node000006" class="node">
<title>Node6</title>
<g id="a_Node000006"><a xlink:title=" ">
<polygon fill="#e0e0e0" stroke="#999999" points="816.37,-250 678.37,-250 678.37,-231 816.37,-231 816.37,-250"/>
<text text-anchor="middle" x="747.37" y="-238" font-family="Helvetica,sans-Serif" font-size="10.00">libultraship/libultraship.h</text>
</a>
</g>
</g>
<!-- Node5&#45;&gt;Node6 -->
<g id="edge6_Node000005_Node000006" class="edge">
<title>Node5&#45;&gt;Node6</title>
<g id="a_edge6_Node000005_Node000006"><a xlink:title=" ">
<path fill="none" stroke="#63b8ff" d="M747.37,-285.75C747.37,-278.8 747.37,-268.85 747.37,-260.13"/>
<polygon fill="#63b8ff" stroke="#63b8ff" points="750.87,-260.09 747.37,-250.09 743.87,-260.09 750.87,-260.09"/>
</a>
</g>
</g>
<!-- Node7 -->
<g id="Node000007" class="node">
<title>Node7</title>
<g id="a_Node000007"><a xlink:href="CoreMath_8h.html" target="_top" xlink:title=" ">
<polygon fill="white" stroke="#666666" points="283.87,-74 210.87,-74 210.87,-55 283.87,-55 283.87,-74"/>
<text text-anchor="middle" x="247.37" y="-62" font-family="Helvetica,sans-Serif" font-size="10.00">CoreMath.h</text>
</a>
</g>
</g>
<!-- Node5&#45;&gt;Node7 -->
<g id="edge7_Node000005_Node000007" class="edge">
<title>Node5&#45;&gt;Node7</title>
<g id="a_edge7_Node000005_Node000007"><a xlink:title=" ">
<path fill="none" stroke="#63b8ff" d="M687.14,-293.78C581.79,-291.66 369.02,-283.26 303.37,-250 244.69,-220.27 227.93,-201.41 204.37,-140 199.59,-127.55 199.37,-122.36 204.37,-110 209.05,-98.41 218.36,-88.16 227.13,-80.43"/>
<polygon fill="#63b8ff" stroke="#63b8ff" points="229.36,-83.12 234.87,-74.07 224.92,-77.71 229.36,-83.12"/>
</a>
</g>
</g>
<!-- Node8 -->
<g id="Node000008" class="node">
<title>Node8</title>
<g id="a_Node000008"><a xlink:href="defines_8h.html" target="_top" xlink:title=" ">
<polygon fill="white" stroke="#666666" points="895.87,-250 834.87,-250 834.87,-231 895.87,-231 895.87,-250"/>
<text text-anchor="middle" x="865.37" y="-238" font-family="Helvetica,sans-Serif" font-size="10.00">defines.h</text>
</a>
</g>
</g>
<!-- Node5&#45;&gt;Node8 -->
<g id="edge9_Node000005_Node000008" class="edge">
<title>Node5&#45;&gt;Node8</title>
<g id="a_edge9_Node000005_Node000008"><a xlink:title=" ">
<path fill="none" stroke="#63b8ff" d="M766.33,-285.98C785.39,-277.42 815.03,-264.11 836.91,-254.28"/>
<polygon fill="#63b8ff" stroke="#63b8ff" points="838.38,-257.46 846.06,-250.17 835.51,-251.07 838.38,-257.46"/>
</a>
</g>
</g>
<!-- Node5&#45;&gt;Node9 -->
<g id="edge10_Node000005_Node000009" class="edge">
<title>Node5&#45;&gt;Node9</title>
<g id="a_edge10_Node000005_Node000009"><a xlink:title=" ">
<path fill="none" stroke="#63b8ff" d="M807.57,-290.52C867.44,-285.26 953.57,-273.73 976.37,-250 1003.57,-221.69 1001.88,-171.77 998.51,-144.71"/>
<polygon fill="#63b8ff" stroke="#63b8ff" points="1001.94,-144.03 997.03,-134.64 995.02,-145.04 1001.94,-144.03"/>
</a>
</g>
</g>
<!-- Node10 -->
<g id="Node000010" class="node">
<title>Node10</title>
<g id="a_Node000010"><a xlink:href="common__structs_8h.html" target="_top" xlink:title=" ">
<polygon fill="white" stroke="#666666" points="848.87,-74 741.87,-74 741.87,-55 848.87,-55 848.87,-74"/>
<text text-anchor="middle" x="795.37" y="-62" font-family="Helvetica,sans-Serif" font-size="10.00">common_structs.h</text>
</a>
</g>
</g>
<!-- Node5&#45;&gt;Node10 -->
<g id="edge43_Node000005_Node000010" class="edge">
<title>Node5&#45;&gt;Node10</title>
<g id="a_edge43_Node000005_Node000010"><a xlink:title=" ">
<path fill="none" stroke="#63b8ff" d="M807.69,-292.5C844.45,-288.3 890.2,-277.36 921.37,-250 941.15,-232.63 938.39,-220.85 943.37,-195 954.85,-135.37 878.95,-96.09 831.53,-77.67"/>
<polygon fill="#63b8ff" stroke="#63b8ff" points="832.48,-74.28 821.89,-74.05 830.03,-80.84 832.48,-74.28"/>
</a>
</g>
</g>
<!-- Node11 -->
<g id="Node000011" class="node">
<title>Node11</title>
<g id="a_Node000011"><a xlink:href="src_2data_2some__data_8h.html" target="_top" xlink:title=" ">
<polygon fill="white" stroke="#666666" points="660.37,-250 556.37,-250 556.37,-231 660.37,-231 660.37,-250"/>
<text text-anchor="middle" x="608.37" y="-238" font-family="Helvetica,sans-Serif" font-size="10.00">data/some_data.h</text>
</a>
</g>
</g>
<!-- Node5&#45;&gt;Node11 -->
<g id="edge14_Node000005_Node000011" class="edge">
<title>Node5&#45;&gt;Node11</title>
<g id="a_edge14_Node000005_Node000011"><a xlink:title=" ">
<path fill="none" stroke="#63b8ff" d="M725.03,-285.98C702.17,-277.27 666.41,-263.63 640.5,-253.75"/>
<polygon fill="#63b8ff" stroke="#63b8ff" points="641.7,-250.46 631.11,-250.17 639.2,-257 641.7,-250.46"/>
</a>
</g>
</g>
<!-- Node16 -->
<g id="Node000016" class="node">
<title>Node16</title>
<g id="a_Node000016"><a xlink:href="bomb__kart_8h.html" target="_top" xlink:title=" ">
<polygon fill="white" stroke="#666666" points="366.87,-195 289.87,-195 289.87,-176 366.87,-176 366.87,-195"/>
<text text-anchor="middle" x="328.37" y="-183" font-family="Helvetica,sans-Serif" font-size="10.00">bomb_kart.h</text>
</a>
</g>
</g>
<!-- Node5&#45;&gt;Node16 -->
<g id="edge24_Node000005_Node000016" class="edge">
<title>Node5&#45;&gt;Node16</title>
<g id="a_edge24_Node000005_Node000016"><a xlink:title=" ">
<path fill="none" stroke="#63b8ff" d="M687.36,-292.71C574.32,-288.71 338.89,-277.17 314.37,-250 303.06,-237.47 309.73,-217.92 317.24,-203.82"/>
<polygon fill="#63b8ff" stroke="#63b8ff" points="320.33,-205.48 322.37,-195.08 314.29,-201.94 320.33,-205.48"/>
</a>
</g>
</g>
<!-- Node20 -->
<g id="Node000020" class="node">
<title>Node20</title>
<g id="a_Node000020"><a xlink:href="path__spawn__metadata_8h.html" target="_top" xlink:title=" ">
<polygon fill="white" stroke="#666666" points="459.87,-250 322.87,-250 322.87,-231 459.87,-231 459.87,-250"/>
<text text-anchor="middle" x="391.37" y="-238" font-family="Helvetica,sans-Serif" font-size="10.00">path_spawn_metadata.h</text>
</a>
</g>
</g>
<!-- Node5&#45;&gt;Node20 -->
<g id="edge31_Node000005_Node000020" class="edge">
<title>Node5&#45;&gt;Node20</title>
<g id="a_edge31_Node000005_Node000020"><a xlink:title=" ">
<path fill="none" stroke="#63b8ff" d="M690.17,-285.98C627.07,-276.59 525.63,-261.49 458.74,-251.53"/>
<polygon fill="#63b8ff" stroke="#63b8ff" points="459.12,-248.05 448.72,-250.04 458.09,-254.97 459.12,-248.05"/>
</a>
</g>
</g>
<!-- Node21 -->
<g id="Node000021" class="node">
<title>Node21</title>
<g id="a_Node000021"><a xlink:href="waypoints_8h.html" target="_top" xlink:title=" ">
<polygon fill="white" stroke="#666666" points="934.37,-195 858.37,-195 858.37,-176 934.37,-176 934.37,-195"/>
<text text-anchor="middle" x="896.37" y="-183" font-family="Helvetica,sans-Serif" font-size="10.00">waypoints.h</text>
</a>
</g>
</g>
<!-- Node5&#45;&gt;Node21 -->
<g id="edge41_Node000005_Node000021" class="edge">
<title>Node5&#45;&gt;Node21</title>
<g id="a_edge41_Node000005_Node000021"><a xlink:title=" ">
<path fill="none" stroke="#63b8ff" d="M803.69,-285.95C843.86,-278.56 892.89,-266.47 905.37,-250 915.12,-237.13 910.93,-218.46 905.47,-204.69"/>
<polygon fill="#63b8ff" stroke="#63b8ff" points="908.54,-202.99 901.25,-195.3 902.16,-205.86 908.54,-202.99"/>
</a>
</g>
</g>
<!-- Node23 -->
<g id="Node000023" class="node">
<title>Node23</title>
<g id="a_Node000023"><a xlink:href="sounds_8h.html" target="_top" xlink:title=" ">
<polygon fill="white" stroke="#666666" points="538.37,-250 478.37,-250 478.37,-231 538.37,-231 538.37,-250"/>
<text text-anchor="middle" x="508.37" y="-238" font-family="Helvetica,sans-Serif" font-size="10.00">sounds.h</text>
</a>
</g>
</g>
<!-- Node5&#45;&gt;Node23 -->
<g id="edge42_Node000005_Node000023" class="edge">
<title>Node5&#45;&gt;Node23</title>
<g id="a_edge42_Node000005_Node000023"><a xlink:title=" ">
<path fill="none" stroke="#63b8ff" d="M708.97,-285.98C665.02,-276.24 593.36,-260.35 548.64,-250.43"/>
<polygon fill="#63b8ff" stroke="#63b8ff" points="549.23,-246.98 538.71,-248.23 547.72,-253.81 549.23,-246.98"/>
</a>
</g>
</g>
<!-- Node5&#45;&gt;Node24 -->
<g id="edge44_Node000005_Node000024" class="edge">
<title>Node5&#45;&gt;Node24</title>
<g id="a_edge44_Node000005_Node000024"><a xlink:title=" ">
<path fill="none" stroke="#63b8ff" d="M807.38,-291.06C862.63,-286.38 946.11,-275.43 1014.37,-250 1046.34,-238.09 1079.31,-215.98 1099.33,-201.25"/>
<polygon fill="#63b8ff" stroke="#63b8ff" points="1101.67,-203.87 1107.56,-195.07 1097.46,-198.27 1101.67,-203.87"/>
</a>
</g>
</g>
<!-- Node7&#45;&gt;Node2 -->
<g id="edge8_Node000007_Node000002" class="edge">
<title>Node7&#45;&gt;Node2</title>
<g id="a_edge8_Node000007_Node000002"><a xlink:title=" ">
<path fill="none" stroke="#63b8ff" d="M284.15,-57C337.55,-47.57 436.7,-30.05 496.89,-19.42"/>
<polygon fill="#63b8ff" stroke="#63b8ff" points="497.69,-22.83 506.93,-17.64 496.47,-15.94 497.69,-22.83"/>
</a>
</g>
</g>
<!-- Node9&#45;&gt;Node2 -->
<g id="edge11_Node000009_Node000002" class="edge">
<title>Node9&#45;&gt;Node2</title>
<g id="a_edge11_Node000009_Node000002"><a xlink:title=" ">
<path fill="none" stroke="#63b8ff" d="M981.99,-115.39C958.18,-100.5 906.39,-70.08 858.37,-55 769.33,-27.03 660.39,-16.57 597.92,-12.71"/>
<polygon fill="#63b8ff" stroke="#63b8ff" points="597.74,-9.19 587.55,-12.1 597.33,-16.18 597.74,-9.19"/>
</a>
</g>
</g>
<!-- Node9&#45;&gt;Node10 -->
<g id="edge12_Node000009_Node000010" class="edge">
<title>Node9&#45;&gt;Node10</title>
<g id="a_edge12_Node000009_Node000010"><a xlink:title=" ">
<path fill="none" stroke="#63b8ff" d="M968.27,-115.46C962.37,-113.64 956.17,-111.73 950.37,-110 911.4,-98.35 866.74,-85.59 835.4,-76.73"/>
<polygon fill="#63b8ff" stroke="#63b8ff" points="836.29,-73.35 825.72,-74 834.39,-80.08 836.29,-73.35"/>
</a>
</g>
</g>
<!-- Node10&#45;&gt;Node2 -->
<g id="edge13_Node000010_Node000002" class="edge">
<title>Node10&#45;&gt;Node2</title>
<g id="a_edge13_Node000010_Node000002"><a xlink:title=" ">
<path fill="none" stroke="#63b8ff" d="M755.52,-54.98C712.53,-45.8 644,-31.15 597.41,-21.19"/>
<polygon fill="#63b8ff" stroke="#63b8ff" points="598.04,-17.75 587.52,-19.08 596.57,-24.59 598.04,-17.75"/>
</a>
</g>
</g>
<!-- Node11&#45;&gt;Node3 -->
<g id="edge15_Node000011_Node000003" class="edge">
<title>Node11&#45;&gt;Node3</title>
<g id="a_edge15_Node000011_Node000003"><a xlink:title=" ">
<path fill="none" stroke="#63b8ff" d="M571.73,-230.95C526.24,-218.5 449.21,-191.09 404.37,-140 390.62,-124.34 384.38,-100.84 381.58,-84.44"/>
<polygon fill="#63b8ff" stroke="#63b8ff" points="385.02,-83.8 380.14,-74.4 378.09,-84.79 385.02,-83.8"/>
</a>
</g>
</g>
<!-- Node12 -->
<g id="Node000012" class="node">
<title>Node12</title>
<g id="a_Node000012"><a xlink:href="spline_8h.html" target="_top" xlink:title=" ">
<polygon fill="white" stroke="#666666" points="822.87,-134.5 767.87,-134.5 767.87,-115.5 822.87,-115.5 822.87,-134.5"/>
<text text-anchor="middle" x="795.37" y="-122.5" font-family="Helvetica,sans-Serif" font-size="10.00">spline.h</text>
</a>
</g>
</g>
<!-- Node11&#45;&gt;Node12 -->
<g id="edge16_Node000011_Node000012" class="edge">
<title>Node11&#45;&gt;Node12</title>
<g id="a_edge16_Node000011_Node000012"><a xlink:title=" ">
<path fill="none" stroke="#63b8ff" d="M641.92,-230.99C666.56,-223.79 700.15,-211.92 726.37,-195 748.5,-180.72 769.2,-158.33 782.04,-142.95"/>
<polygon fill="#63b8ff" stroke="#63b8ff" points="785.06,-144.79 788.65,-134.82 779.63,-140.38 785.06,-144.79"/>
</a>
</g>
</g>
<!-- Node13 -->
<g id="Node000013" class="node">
<title>Node13</title>
<g id="a_Node000013"><a xlink:href="other__textures_8h.html" target="_top" xlink:title=" ">
<polygon fill="white" stroke="#666666" points="673.37,-140 553.37,-140 553.37,-110 673.37,-110 673.37,-140"/>
<text text-anchor="start" x="561.37" y="-128" font-family="Helvetica,sans-Serif" font-size="10.00">assets/textures/other</text>
<text text-anchor="middle" x="613.37" y="-117" font-family="Helvetica,sans-Serif" font-size="10.00">_textures.h</text>
</a>
</g>
</g>
<!-- Node11&#45;&gt;Node13 -->
<g id="edge18_Node000011_Node000013" class="edge">
<title>Node11&#45;&gt;Node13</title>
<g id="a_edge18_Node000011_Node000013"><a xlink:title=" ">
<path fill="none" stroke="#63b8ff" d="M608.74,-230.97C609.49,-214.08 611.17,-175.85 612.29,-150.48"/>
<polygon fill="#63b8ff" stroke="#63b8ff" points="615.8,-150.33 612.74,-140.18 608.81,-150.02 615.8,-150.33"/>
</a>
</g>
</g>
<!-- Node15 -->
<g id="Node000015" class="node">
<title>Node15</title>
<g id="a_Node000015"><a xlink:href="objects_8h.html" target="_top" xlink:title=" ">
<polygon fill="white" stroke="#666666" points="839.87,-195 778.87,-195 778.87,-176 839.87,-176 839.87,-195"/>
<text text-anchor="middle" x="809.37" y="-183" font-family="Helvetica,sans-Serif" font-size="10.00">objects.h</text>
</a>
</g>
</g>
<!-- Node11&#45;&gt;Node15 -->
<g id="edge21_Node000011_Node000015" class="edge">
<title>Node11&#45;&gt;Node15</title>
<g id="a_edge21_Node000011_Node000015"><a xlink:title=" ">
<path fill="none" stroke="#63b8ff" d="M640.66,-230.98C675.45,-221.81 730.9,-207.19 768.65,-197.24"/>
<polygon fill="#63b8ff" stroke="#63b8ff" points="770.02,-200.49 778.8,-194.56 768.24,-193.73 770.02,-200.49"/>
</a>
</g>
</g>
<!-- Node12&#45;&gt;Node10 -->
<g id="edge17_Node000012_Node000010" class="edge">
<title>Node12&#45;&gt;Node10</title>
<g id="a_edge17_Node000012_Node000010"><a xlink:title=" ">
<path fill="none" stroke="#63b8ff" d="M795.37,-115.37C795.37,-107.25 795.37,-94.81 795.37,-84.39"/>
<polygon fill="#63b8ff" stroke="#63b8ff" points="798.87,-84.17 795.37,-74.17 791.87,-84.17 798.87,-84.17"/>
</a>
</g>
</g>
<!-- Node13&#45;&gt;Node2 -->
<g id="edge19_Node000013_Node000002" class="edge">
<title>Node13&#45;&gt;Node2</title>
<g id="a_edge19_Node000013_Node000002"><a xlink:title=" ">
<path fill="none" stroke="#63b8ff" d="M617.71,-109.83C621.35,-95.17 624.6,-72.08 615.37,-55 607.79,-40.98 593.66,-30.67 580.24,-23.53"/>
<polygon fill="#63b8ff" stroke="#63b8ff" points="581.67,-20.33 571.15,-19.08 578.59,-26.62 581.67,-20.33"/>
</a>
</g>
</g>
<!-- Node14 -->
<g id="Node000014" class="node">
<title>Node14</title>
<g id="a_Node000014"><a xlink:href="align__asset__macro_8h.html" target="_top" xlink:title=" ">
<polygon fill="white" stroke="#666666" points="605.87,-74 488.87,-74 488.87,-55 605.87,-55 605.87,-74"/>
<text text-anchor="middle" x="547.37" y="-62" font-family="Helvetica,sans-Serif" font-size="10.00">align_asset_macro.h</text>
</a>
</g>
</g>
<!-- Node13&#45;&gt;Node14 -->
<g id="edge20_Node000013_Node000014" class="edge">
<title>Node13&#45;&gt;Node14</title>
<g id="a_edge20_Node000013_Node000014"><a xlink:title=" ">
<path fill="none" stroke="#63b8ff" d="M597.39,-109.84C587.61,-101.17 575.09,-90.08 565.02,-81.15"/>
<polygon fill="#63b8ff" stroke="#63b8ff" points="567.06,-78.28 557.26,-74.27 562.42,-83.52 567.06,-78.28"/>
</a>
</g>
</g>
<!-- Node15&#45;&gt;Node10 -->
<g id="edge23_Node000015_Node000010" class="edge">
<title>Node15&#45;&gt;Node10</title>
<g id="a_edge23_Node000015_Node000010"><a xlink:title=" ">
<path fill="none" stroke="#63b8ff" d="M815.81,-175.69C825.25,-161.66 840.83,-133.42 832.37,-110 828.42,-99.09 820.51,-88.96 813,-81.14"/>
<polygon fill="#63b8ff" stroke="#63b8ff" points="815.41,-78.6 805.8,-74.13 810.53,-83.61 815.41,-78.6"/>
</a>
</g>
</g>
<!-- Node15&#45;&gt;Node12 -->
<g id="edge22_Node000015_Node000012" class="edge">
<title>Node15&#45;&gt;Node12</title>
<g id="a_edge22_Node000015_Node000012"><a xlink:title=" ">
<path fill="none" stroke="#63b8ff" d="M807.3,-175.87C805.34,-167.66 802.32,-155.04 799.81,-144.55"/>
<polygon fill="#63b8ff" stroke="#63b8ff" points="803.17,-143.58 797.44,-134.67 796.36,-145.21 803.17,-143.58"/>
</a>
</g>
</g>
<!-- Node16&#45;&gt;Node10 -->
<g id="edge25_Node000016_Node000010" class="edge">
<title>Node16&#45;&gt;Node10</title>
<g id="a_edge25_Node000016_Node000010"><a xlink:title=" ">
<path fill="none" stroke="#63b8ff" d="M367.03,-181.99C446.49,-176.45 625.42,-161.9 682.37,-140 704.12,-131.64 705.97,-122.92 725.37,-110 741.04,-99.56 758.98,-88.17 772.77,-79.52"/>
<polygon fill="#63b8ff" stroke="#63b8ff" points="774.94,-82.29 781.57,-74.03 771.24,-76.35 774.94,-82.29"/>
</a>
</g>
</g>
<!-- Node17 -->
<g id="Node000017" class="node">
<title>Node17</title>
<g id="a_Node000017"><a xlink:href="mk64_8h.html" target="_top" xlink:title=" ">
<polygon fill="white" stroke="#666666" points="156.87,-134.5 103.87,-134.5 103.87,-115.5 156.87,-115.5 156.87,-134.5"/>
<text text-anchor="middle" x="130.37" y="-122.5" font-family="Helvetica,sans-Serif" font-size="10.00">mk64.h</text>
</a>
</g>
</g>
<!-- Node16&#45;&gt;Node17 -->
<g id="edge26_Node000016_Node000017" class="edge">
<title>Node16&#45;&gt;Node17</title>
<g id="a_edge26_Node000016_Node000017"><a xlink:title=" ">
<path fill="none" stroke="#63b8ff" d="M299.58,-175.99C264.43,-165.61 204.95,-148.04 166.69,-136.73"/>
<polygon fill="#63b8ff" stroke="#63b8ff" points="167.55,-133.34 156.97,-133.86 165.57,-140.05 167.55,-133.34"/>
</a>
</g>
</g>
<!-- Node17&#45;&gt;Node2 -->
<g id="edge27_Node000017_Node000002" class="edge">
<title>Node17&#45;&gt;Node2</title>
<g id="a_edge27_Node000017_Node000002"><a xlink:title=" ">
<path fill="none" stroke="#63b8ff" d="M136.23,-115.44C147.09,-100.33 171.95,-69.19 201.37,-55 252.43,-30.36 413.9,-17.96 496.95,-13.07"/>
<polygon fill="#63b8ff" stroke="#63b8ff" points="497.37,-16.56 507.16,-12.49 496.97,-9.57 497.37,-16.56"/>
</a>
</g>
</g>
<!-- Node17&#45;&gt;Node3 -->
<g id="edge30_Node000017_Node000003" class="edge">
<title>Node17&#45;&gt;Node3</title>
<g id="a_edge30_Node000017_Node000003"><a xlink:title=" ">
<path fill="none" stroke="#63b8ff" d="M157.01,-117.74C199,-107.87 281.11,-88.58 332.94,-76.41"/>
<polygon fill="#63b8ff" stroke="#63b8ff" points="333.95,-79.77 342.89,-74.07 332.35,-72.95 333.95,-79.77"/>
</a>
</g>
</g>
<!-- Node18 -->
<g id="Node000018" class="node">
<title>Node18</title>
<g id="a_Node000018"><a xlink:href="string_8h.html" target="_top" xlink:title=" ">
<polygon fill="white" stroke="#666666" points="82.87,-74 29.87,-74 29.87,-55 82.87,-55 82.87,-74"/>
<text text-anchor="middle" x="56.37" y="-62" font-family="Helvetica,sans-Serif" font-size="10.00">string.h</text>
</a>
</g>
</g>
<!-- Node17&#45;&gt;Node18 -->
<g id="edge28_Node000017_Node000018" class="edge">
<title>Node17&#45;&gt;Node18</title>
<g id="a_edge28_Node000017_Node000018"><a xlink:title=" ">
<path fill="none" stroke="#63b8ff" d="M119.45,-115.37C107.86,-106.21 89.33,-91.56 75.35,-80.51"/>
<polygon fill="#63b8ff" stroke="#63b8ff" points="77.35,-77.62 67.33,-74.17 73,-83.11 77.35,-77.62"/>
</a>
</g>
</g>
<!-- Node19 -->
<g id="Node000019" class="node">
<title>Node19</title>
<g id="a_Node000019"><a xlink:title=" ">
<polygon fill="#e0e0e0" stroke="#999999" points="101.37,-19 11.37,-19 11.37,0 101.37,0 101.37,-19"/>
<text text-anchor="middle" x="56.37" y="-7" font-family="Helvetica,sans-Serif" font-size="10.00">libultra/types.h</text>
</a>
</g>
</g>
<!-- Node18&#45;&gt;Node19 -->
<g id="edge29_Node000018_Node000019" class="edge">
<title>Node18&#45;&gt;Node19</title>
<g id="a_edge29_Node000018_Node000019"><a xlink:title=" ">
<path fill="none" stroke="#63b8ff" d="M56.37,-54.75C56.37,-47.8 56.37,-37.85 56.37,-29.13"/>
<polygon fill="#63b8ff" stroke="#63b8ff" points="59.87,-29.09 56.37,-19.09 52.87,-29.09 59.87,-29.09"/>
</a>
</g>
</g>
<!-- Node20&#45;&gt;Node10 -->
<g id="edge34_Node000020_Node000010" class="edge">
<title>Node20&#45;&gt;Node10</title>
<g id="a_edge34_Node000020_Node000010"><a xlink:title=" ">
<path fill="none" stroke="#63b8ff" d="M445.25,-230.99C512.55,-218.64 629.52,-191.4 717.37,-140 743.52,-124.7 767.77,-98.98 782.08,-82.12"/>
<polygon fill="#63b8ff" stroke="#63b8ff" points="784.94,-84.16 788.61,-74.22 779.54,-79.7 784.94,-84.16"/>
</a>
</g>
</g>
<!-- Node20&#45;&gt;Node16 -->
<g id="edge40_Node000020_Node000016" class="edge">
<title>Node20&#45;&gt;Node16</title>
<g id="a_edge40_Node000020_Node000016"><a xlink:title=" ">
<path fill="none" stroke="#63b8ff" d="M381.24,-230.98C371.93,-223.15 357.9,-211.34 346.63,-201.86"/>
<polygon fill="#63b8ff" stroke="#63b8ff" points="348.58,-198.93 338.67,-195.17 344.07,-204.29 348.58,-198.93"/>
</a>
</g>
</g>
<!-- Node20&#45;&gt;Node21 -->
<g id="edge32_Node000020_Node000021" class="edge">
<title>Node20&#45;&gt;Node21</title>
<g id="a_edge32_Node000020_Node000021"><a xlink:title=" ">
<path fill="none" stroke="#63b8ff" d="M460.26,-231.94C463.34,-231.62 466.39,-231.3 469.37,-231 634.92,-214.14 679.61,-217.96 848.23,-195.05"/>
<polygon fill="#63b8ff" stroke="#63b8ff" points="848.76,-198.51 858.19,-193.68 847.81,-191.57 848.76,-198.51"/>
</a>
</g>
</g>
<!-- Node22 -->
<g id="Node000022" class="node">
<title>Node22</title>
<g id="a_Node000022"><a xlink:href="other_2common__data_8h.html" target="_top" xlink:title=" ">
<polygon fill="white" stroke="#666666" points="535.37,-140 413.37,-140 413.37,-110 535.37,-110 535.37,-140"/>
<text text-anchor="start" x="421.37" y="-128" font-family="Helvetica,sans-Serif" font-size="10.00">assets/other/common</text>
<text text-anchor="middle" x="474.37" y="-117" font-family="Helvetica,sans-Serif" font-size="10.00">_data.h</text>
</a>
</g>
</g>
<!-- Node20&#45;&gt;Node22 -->
<g id="edge35_Node000020_Node000022" class="edge">
<title>Node20&#45;&gt;Node22</title>
<g id="a_edge35_Node000020_Node000022"><a xlink:title=" ">
<path fill="none" stroke="#63b8ff" d="M397.61,-230.97C410.29,-213.63 439.43,-173.77 457.94,-148.47"/>
<polygon fill="#63b8ff" stroke="#63b8ff" points="460.92,-150.32 464,-140.18 455.27,-146.19 460.92,-150.32"/>
</a>
</g>
</g>
<!-- Node21&#45;&gt;Node10 -->
<g id="edge33_Node000021_Node000010" class="edge">
<title>Node21&#45;&gt;Node10</title>
<g id="a_edge33_Node000021_Node000010"><a xlink:title=" ">
<path fill="none" stroke="#63b8ff" d="M891.65,-175.68C883.65,-161.14 866.4,-131.6 847.37,-110 837.79,-99.14 825.55,-88.53 815.35,-80.4"/>
<polygon fill="#63b8ff" stroke="#63b8ff" points="817.41,-77.57 807.36,-74.2 813.11,-83.1 817.41,-77.57"/>
</a>
</g>
</g>
<!-- Node22&#45;&gt;Node2 -->
<g id="edge37_Node000022_Node000002" class="edge">
<title>Node22&#45;&gt;Node2</title>
<g id="a_edge37_Node000022_Node000002"><a xlink:title=" ">
<path fill="none" stroke="#63b8ff" d="M472.21,-109.97C470.67,-95.22 470.36,-71.85 480.37,-55 488.53,-41.24 502.81,-30.89 516.09,-23.64"/>
<polygon fill="#63b8ff" stroke="#63b8ff" points="517.69,-26.76 525.04,-19.12 514.53,-20.51 517.69,-26.76"/>
</a>
</g>
</g>
<!-- Node22&#45;&gt;Node3 -->
<g id="edge36_Node000022_Node000003" class="edge">
<title>Node22&#45;&gt;Node3</title>
<g id="a_edge36_Node000022_Node000003"><a xlink:title=" ">
<path fill="none" stroke="#63b8ff" d="M451.37,-109.84C436.36,-100.6 416.86,-88.59 401.94,-79.4"/>
<polygon fill="#63b8ff" stroke="#63b8ff" points="403.67,-76.36 393.32,-74.09 400,-82.32 403.67,-76.36"/>
</a>
</g>
</g>
<!-- Node22&#45;&gt;Node10 -->
<g id="edge38_Node000022_Node000010" class="edge">
<title>Node22&#45;&gt;Node10</title>
<g id="a_edge38_Node000022_Node000010"><a xlink:title=" ">
<path fill="none" stroke="#63b8ff" d="M535.43,-111.7C538.45,-111.12 541.44,-110.55 544.37,-110 609.46,-97.72 684.25,-84.59 735.14,-75.8"/>
<polygon fill="#63b8ff" stroke="#63b8ff" points="736.04,-79.19 745.3,-74.04 734.85,-72.29 736.04,-79.19"/>
</a>
</g>
</g>
<!-- Node22&#45;&gt;Node14 -->
<g id="edge39_Node000022_Node000014" class="edge">
<title>Node22&#45;&gt;Node14</title>
<g id="a_edge39_Node000022_Node000014"><a xlink:title=" ">
<path fill="none" stroke="#63b8ff" d="M492.04,-109.84C503.07,-101 517.25,-89.63 528.5,-80.62"/>
<polygon fill="#63b8ff" stroke="#63b8ff" points="530.81,-83.25 536.43,-74.27 526.44,-77.79 530.81,-83.25"/>
</a>
</g>
</g>
<!-- Node24&#45;&gt;Node2 -->
<g id="edge48_Node000024_Node000002" class="edge">
<title>Node24&#45;&gt;Node2</title>
<g id="a_edge48_Node000024_Node000002"><a xlink:title=" ">
<path fill="none" stroke="#63b8ff" d="M1109.49,-175.78C1091.59,-158.34 1051.52,-119.97 1035.37,-110 894.23,-22.9 690.63,-10.46 597.4,-9.7"/>
<polygon fill="#63b8ff" stroke="#63b8ff" points="597.41,-6.2 587.39,-9.66 597.38,-13.2 597.41,-6.2"/>
</a>
</g>
</g>
<!-- Node24&#45;&gt;Node9 -->
<g id="edge54_Node000024_Node000009" class="edge">
<title>Node24&#45;&gt;Node9</title>
<g id="a_edge54_Node000024_Node000009"><a xlink:title=" ">
<path fill="none" stroke="#63b8ff" d="M1100.48,-175.99C1079.99,-166.25 1046.17,-150.16 1022.45,-138.88"/>
<polygon fill="#63b8ff" stroke="#63b8ff" points="1023.81,-135.65 1013.27,-134.52 1020.8,-141.97 1023.81,-135.65"/>
</a>
</g>
</g>
<!-- Node25 -->
<g id="Node000025" class="node">
<title>Node25</title>
<g id="a_Node000025"><a xlink:href="macros_8h.html" target="_top" xlink:title=" ">
<polygon fill="white" stroke="#666666" points="1232.37,-74 1170.37,-74 1170.37,-55 1232.37,-55 1232.37,-74"/>
<text text-anchor="middle" x="1201.37" y="-62" font-family="Helvetica,sans-Serif" font-size="10.00">macros.h</text>
</a>
</g>
</g>
<!-- Node24&#45;&gt;Node25 -->
<g id="edge45_Node000024_Node000025" class="edge">
<title>Node24&#45;&gt;Node25</title>
<g id="a_edge45_Node000024_Node000025"><a xlink:title=" ">
<path fill="none" stroke="#63b8ff" d="M1133.69,-175.96C1146.48,-168.12 1164.32,-155.41 1175.37,-140 1187.44,-123.16 1194.32,-100.2 1197.93,-84.24"/>
<polygon fill="#63b8ff" stroke="#63b8ff" points="1201.45,-84.54 1200.01,-74.05 1194.59,-83.15 1201.45,-84.54"/>
</a>
</g>
</g>
<!-- Node24&#45;&gt;Node27 -->
<g id="edge49_Node000024_Node000027" class="edge">
<title>Node24&#45;&gt;Node27</title>
<g id="a_edge49_Node000024_Node000027"><a xlink:title=" ">
<path fill="none" stroke="#63b8ff" d="M1119.25,-175.87C1120.09,-167.75 1121.36,-155.31 1122.43,-144.89"/>
<polygon fill="#63b8ff" stroke="#63b8ff" points="1125.94,-144.97 1123.48,-134.67 1118.98,-144.26 1125.94,-144.97"/>
</a>
</g>
</g>
<!-- Node25&#45;&gt;Node2 -->
<g id="edge47_Node000025_Node000002" class="edge">
<title>Node25&#45;&gt;Node2</title>
<g id="a_edge47_Node000025_Node000002"><a xlink:title=" ">
<path fill="none" stroke="#63b8ff" d="M1170,-56.41C1167.09,-55.88 1164.18,-55.4 1161.37,-55 953.22,-25.48 702.45,-15.05 597.44,-11.81"/>
<polygon fill="#63b8ff" stroke="#63b8ff" points="597.54,-8.31 587.44,-11.5 597.33,-15.3 597.54,-8.31"/>
</a>
</g>
</g>
<!-- Node26 -->
<g id="Node000026" class="node">
<title>Node26</title>
<g id="a_Node000026"><a xlink:href="math_8h.html" target="_top" xlink:title=" ">
<polygon fill="white" stroke="#666666" points="1226.87,-19 1175.87,-19 1175.87,0 1226.87,0 1226.87,-19"/>
<text text-anchor="middle" x="1201.37" y="-7" font-family="Helvetica,sans-Serif" font-size="10.00">math.h</text>
</a>
</g>
</g>
<!-- Node25&#45;&gt;Node26 -->
<g id="edge46_Node000025_Node000026" class="edge">
<title>Node25&#45;&gt;Node26</title>
<g id="a_edge46_Node000025_Node000026"><a xlink:title=" ">
<path fill="none" stroke="#63b8ff" d="M1201.37,-54.75C1201.37,-47.8 1201.37,-37.85 1201.37,-29.13"/>
<polygon fill="#63b8ff" stroke="#63b8ff" points="1204.87,-29.09 1201.37,-19.09 1197.87,-29.09 1204.87,-29.09"/>
</a>
</g>
</g>
<!-- Node27&#45;&gt;Node2 -->
<g id="edge50_Node000027_Node000002" class="edge">
<title>Node27&#45;&gt;Node2</title>
<g id="a_edge50_Node000027_Node000002"><a xlink:title=" ">
<path fill="none" stroke="#63b8ff" d="M1117.56,-115.32C1104.98,-100.01 1076.46,-68.59 1044.37,-55 964.77,-21.3 707.25,-13.1 597.58,-11.12"/>
<polygon fill="#63b8ff" stroke="#63b8ff" points="597.49,-7.62 587.43,-10.95 597.37,-14.62 597.49,-7.62"/>
</a>
</g>
</g>
<!-- Node27&#45;&gt;Node10 -->
<g id="edge52_Node000027_Node000010" class="edge">
<title>Node27&#45;&gt;Node10</title>
<g id="a_edge52_Node000027_Node000010"><a xlink:title=" ">
<path fill="none" stroke="#63b8ff" d="M1082.7,-116.59C1024.68,-106.27 919.3,-87.54 853.55,-75.85"/>
<polygon fill="#63b8ff" stroke="#63b8ff" points="853.81,-72.34 843.35,-74.03 852.59,-79.23 853.81,-72.34"/>
</a>
</g>
</g>
<!-- Node27&#45;&gt;Node25 -->
<g id="edge51_Node000027_Node000025" class="edge">
<title>Node27&#45;&gt;Node25</title>
<g id="a_edge51_Node000027_Node000025"><a xlink:title=" ">
<path fill="none" stroke="#63b8ff" d="M1135.73,-115.37C1147.78,-106.21 1167.06,-91.56 1181.62,-80.51"/>
<polygon fill="#63b8ff" stroke="#63b8ff" points="1184.11,-83 1189.96,-74.17 1179.88,-77.43 1184.11,-83"/>
</a>
</g>
</g>
<!-- Node28 -->
<g id="Node000028" class="node">
<title>Node28</title>
<g id="a_Node000028"><a xlink:title=" ">
<polygon fill="#e0e0e0" stroke="#999999" points="1152.37,-74 1096.37,-74 1096.37,-55 1152.37,-55 1152.37,-74"/>
<text text-anchor="middle" x="1124.37" y="-62" font-family="Helvetica,sans-Serif" font-size="10.00">assert.h</text>
</a>
</g>
</g>
<!-- Node27&#45;&gt;Node28 -->
<g id="edge53_Node000027_Node000028" class="edge">
<title>Node27&#45;&gt;Node28</title>
<g id="a_edge53_Node000027_Node000028"><a xlink:title=" ">
<path fill="none" stroke="#63b8ff" d="M1124.37,-115.37C1124.37,-107.25 1124.37,-94.81 1124.37,-84.39"/>
<polygon fill="#63b8ff" stroke="#63b8ff" points="1127.87,-84.17 1124.37,-74.17 1120.87,-84.17 1127.87,-84.17"/>
</a>
</g>
</g>
<!-- Node29&#45;&gt;Node2 -->
<g id="edge56_Node000029_Node000002" class="edge">
<title>Node29&#45;&gt;Node2</title>
<g id="a_edge56_Node000029_Node000002"><a xlink:title=" ">
<path fill="none" stroke="#63b8ff" d="M271.97,-115.17C281.96,-100.22 304.35,-70.08 331.37,-55 383.11,-26.11 451.26,-15.89 497.04,-12.32"/>
<polygon fill="#63b8ff" stroke="#63b8ff" points="497.3,-15.81 507.03,-11.62 496.81,-8.83 497.3,-15.81"/>
</a>
</g>
</g>
<!-- Node29&#45;&gt;Node3 -->
<g id="edge57_Node000029_Node000003" class="edge">
<title>Node29&#45;&gt;Node3</title>
<g id="a_edge57_Node000029_Node000003"><a xlink:title=" ">
<path fill="none" stroke="#63b8ff" d="M283.04,-115.37C301.65,-105.73 331.99,-90.03 353.65,-78.81"/>
<polygon fill="#63b8ff" stroke="#63b8ff" points="355.35,-81.87 362.62,-74.17 352.14,-75.66 355.35,-81.87"/>
</a>
</g>
</g>
<!-- Node29&#45;&gt;Node7 -->
<g id="edge58_Node000029_Node000007" class="edge">
<title>Node29&#45;&gt;Node7</title>
<g id="a_edge58_Node000029_Node000007"><a xlink:title=" ">
<path fill="none" stroke="#63b8ff" d="M263.56,-115.37C260.87,-107.07 256.71,-94.28 253.29,-83.72"/>
<polygon fill="#63b8ff" stroke="#63b8ff" points="256.6,-82.6 250.18,-74.17 249.94,-84.76 256.6,-82.6"/>
</a>
</g>
</g>
<!-- Node29&#45;&gt;Node10 -->
<g id="edge59_Node000029_Node000010" class="edge">
<title>Node29&#45;&gt;Node10</title>
<g id="a_edge59_Node000029_Node000010"><a xlink:title=" ">
<path fill="none" stroke="#63b8ff" d="M319.51,-118.12C417.51,-107.29 626.29,-84.2 731.69,-72.54"/>
<polygon fill="#63b8ff" stroke="#63b8ff" points="732.31,-75.99 741.86,-71.42 731.54,-69.04 732.31,-75.99"/>
</a>
</g>
</g>
</g>
</svg>

<g id="navigator" transform="translate(0 0)" fill="#404254">
  <rect fill="#f2f5e9" fill-opacity="0.5" stroke="#606060" stroke-width=".5" x="0" y="0" width="60" height="60"/>
  <use id="zoomplus" xlink:href="#zoomPlus" x="17" y="9" onmousedown="handleZoom(evt,'in')"/>
  <use id="zoomminus" xlink:href="#zoomMin" x="42" y="9" onmousedown="handleZoom(evt,'out')"/>
  <use id="reset" xlink:href="#resetDef" x="30" y="36" onmousedown="handleReset()"/>
   <use id="arrowup" xlink:href="#arrowUp" x="0" y="0" onmousedown="handlePan(0,-1)"/>
  <use id="arrowright" xlink:href="#arrowRight" x="0" y="0" onmousedown="handlePan(1,0)"/>
  <use id="arrowdown" xlink:href="#arrowDown" x="0" y="0" onmousedown="handlePan(0,1)"/>
  <use id="arrowleft" xlink:href="#arrowLeft" x="0" y="0" onmousedown="handlePan(-1,0)"/>
</g>
<svg viewBox="0 0 15 15" width="100%" height="30px" preserveAspectRatio="xMaxYMin meet">
 <g id="arrow_out" transform="scale(0.3 0.3)">
  <a xlink:href="track_8c__incl_org.svg" target="_base">
   <rect id="button" ry="5" rx="5" y="6" x="6" height="38" width="38"
        fill="#f2f5e9" fill-opacity="0.5" stroke="#606060" stroke-width="1.0"/>
   <path id="arrow"
     d="M 11.500037,31.436501 C 11.940474,20.09759 22.043105,11.32322 32.158766,21.979434 L 37.068811,17.246167 C 37.068811,17.246167 37.088388,32 37.088388,32 L 22.160133,31.978069 C 22.160133,31.978069 26.997745,27.140456 26.997745,27.140456 C 18.528582,18.264221 13.291696,25.230495 11.500037,31.436501 z"
     style="fill:#404040;"/>
  </a>
 </g>
</svg>

<style type='text/css'>
<![CDATA[
[data-mouse-over-selected='false'] { opacity: 0.7; }
[data-mouse-over-selected='true']  { opacity: 1.0; }
]]>
</style>
<script type="application/ecmascript"><![CDATA[
document.addEventListener('DOMContentLoaded', (event) => {
  highlightEdges();
  highlightAdjacentNodes();
});
]]></script>
</svg>
