<?xml version="1.0" encoding="UTF-8" standalone="no"?>
<!DOCTYPE svg PUBLIC "-//W3C//DTD SVG 1.1//EN"
 "http://www.w3.org/Graphics/SVG/1.1/DTD/svg11.dtd">
<!-- Generated by graphviz version 2.43.0 (0)
 -->
<!-- Title: courses/harbour/track.c Pages: 1 -->
<!--zoomable 423 -->

<svg id="main" version="1.1" xmlns="http://www.w3.org/2000/svg" xmlns:xlink="http://www.w3.org/1999/xlink" xml:space="preserve" onload="init(evt)">

<style type="text/css"><![CDATA[
.node, .edge {opacity: 0.7;}
.node.selected, .edge.selected {opacity: 1;}
.edge:hover path { stroke: red; }
.edge:hover polygon { stroke: red; fill: red; }
]]></style>

<defs>
  <circle id="rim" cx="0" cy="0" r="7"/>
  <circle id="rim2" cx="0" cy="0" r="3.5"/>
  <g id="zoomPlus">
    <use xlink:href="#rim" fill="#404040"><set attributeName="fill" to="#808080" begin="zoomplus.mouseover" end="zoomplus.mouseout"/></use>
    <path d="M-4,0h8M0,-4v8" fill="none" stroke="white" stroke-width="1.5" pointer-events="none"/>
  </g>
  <g id="zoomMin">
    <use xlink:href="#rim" fill="#404040"><set attributeName="fill" to="#808080" begin="zoomminus.mouseover" end="zoomminus.mouseout"/></use>
    <path d="M-4,0h8" fill="none" stroke="white" stroke-width="1.5" pointer-events="none"/>
  </g>
  <g id="arrowUp" transform="translate(30 24)">
    <use xlink:href="#rim"/>
    <path pointer-events="none" fill="none" stroke="white" stroke-width="1.5" d="M0,-3.0v7 M-2.5,-0.5L0,-3.0L2.5,-0.5"/>
  </g>
  <g id="arrowRight" transform="rotate(90) translate(36 -43)">
    <use xlink:href="#rim"/>
    <path pointer-events="none" fill="none" stroke="white" stroke-width="1.5" d="M0,-3.0v7 M-2.5,-0.5L0,-3.0L2.5,-0.5"/>
  </g>
  <g id="arrowDown" transform="rotate(180) translate(-30 -48)">
    <use xlink:href="#rim"/>
    <path pointer-events="none" fill="none" stroke="white" stroke-width="1.5" d="M0,-3.0v7 M-2.5,-0.5L0,-3.0L2.5,-0.5"/>
  </g>
  <g id="arrowLeft" transform="rotate(270) translate(-36 17)">
    <use xlink:href="#rim"/>
    <path pointer-events="none" fill="none" stroke="white" stroke-width="1.5" d="M0,-3.0v7 M-2.5,-0.5L0,-3.0L2.5,-0.5"/>
  </g>
  <g id="resetDef">
    <use xlink:href="#rim2" fill="#404040"><set attributeName="fill" to="#808080" begin="reset.mouseover" end="reset.mouseout"/></use>
  </g>
</defs>
<script type="application/ecmascript">
var viewWidth = 1389;
var viewHeight = 423;
var sectionId = 'dynsection-0';
</script>
<script type="application/ecmascript" xlink:href="svg.min.js"/>
<svg id="graph" class="graph">
<g id="viewport">
<title>courses/harbour/track.c</title>
<!-- Node1 -->
<g id="Node000001" class="node">
<title>Node1</title>
<g id="a_Node000001"><a xlink:title=" ">
<polygon fill="#999999" stroke="#666666" points="131,-415 0,-415 0,-396 131,-396 131,-415"/>
<text text-anchor="middle" x="65.5" y="-403" font-family="Helvetica,sans-Serif" font-size="10.00">courses/harbour/track.c</text>
</a>
</g>
</g>
<!-- Node2 -->
<g id="Node000002" class="node">
<title>Node2</title>
<g id="a_Node000002"><a xlink:title=" ">
<polygon fill="#e0e0e0" stroke="#999999" points="549.5,-19 469.5,-19 469.5,0 549.5,0 549.5,-19"/>
<text text-anchor="middle" x="509.5" y="-7" font-family="Helvetica,sans-Serif" font-size="10.00">libultraship.h</text>
</a>
</g>
</g>
<!-- Node1&#45;&gt;Node2 -->
<g id="edge1_Node000001_Node000002" class="edge">
<title>Node1&#45;&gt;Node2</title>
<g id="a_edge1_Node000001_Node000002"><a xlink:title=" ">
<path fill="none" stroke="#63b8ff" d="M57.09,-395.8C41.23,-378.44 8.5,-337.63 8.5,-296.5 8.5,-296.5 8.5,-296.5 8.5,-124 8.5,-32.27 332.02,-14.67 459.11,-11.3"/>
<polygon fill="#63b8ff" stroke="#63b8ff" points="459.44,-14.79 469.35,-11.05 459.26,-7.79 459.44,-14.79"/>
</a>
</g>
</g>
<!-- Node3 -->
<g id="Node000003" class="node">
<title>Node3</title>
<g id="a_Node000003"><a xlink:title=" ">
<polygon fill="#e0e0e0" stroke="#999999" points="347.5,-74 269.5,-74 269.5,-55 347.5,-55 347.5,-74"/>
<text text-anchor="middle" x="308.5" y="-62" font-family="Helvetica,sans-Serif" font-size="10.00">libultra/gbi.h</text>
</a>
</g>
</g>
<!-- Node1&#45;&gt;Node3 -->
<g id="edge2_Node000001_Node000003" class="edge">
<title>Node1&#45;&gt;Node3</title>
<g id="a_edge2_Node000001_Node000003"><a xlink:title=" ">
<path fill="none" stroke="#63b8ff" d="M66.25,-395.84C70.11,-356.78 91.06,-195.21 179.5,-110 201.06,-89.23 232.76,-78.12 259.34,-72.2"/>
<polygon fill="#63b8ff" stroke="#63b8ff" points="260.15,-75.6 269.25,-70.17 258.75,-68.75 260.15,-75.6"/>
</a>
</g>
</g>
<!-- Node4 -->
<g id="Node000004" class="node">
<title>Node4</title>
<g id="a_Node000004"><a xlink:href="Game_8h.html" target="_top" xlink:title=" ">
<polygon fill="white" stroke="#666666" points="447,-360 370,-360 370,-341 447,-341 447,-360"/>
<text text-anchor="middle" x="408.5" y="-348" font-family="Helvetica,sans-Serif" font-size="10.00">port/Game.h</text>
</a>
</g>
</g>
<!-- Node1&#45;&gt;Node4 -->
<g id="edge3_Node000001_Node000004" class="edge">
<title>Node1&#45;&gt;Node4</title>
<g id="a_edge3_Node000001_Node000004"><a xlink:title=" ">
<path fill="none" stroke="#63b8ff" d="M120.61,-395.98C186.62,-385.78 296.2,-368.85 359.42,-359.08"/>
<polygon fill="#63b8ff" stroke="#63b8ff" points="360.18,-362.51 369.53,-357.52 359.11,-355.59 360.18,-362.51"/>
</a>
</g>
</g>
<!-- Node4&#45;&gt;Node2 -->
<g id="edge4_Node000004_Node000002" class="edge">
<title>Node4&#45;&gt;Node2</title>
<g id="a_edge4_Node000004_Node000002"><a xlink:title=" ">
<path fill="none" stroke="#63b8ff" d="M388.27,-340.88C308.81,-305.92 27.35,-170.97 130.5,-55 151.98,-30.85 360.93,-17.66 459.07,-12.75"/>
<polygon fill="#63b8ff" stroke="#63b8ff" points="459.52,-16.24 469.34,-12.25 459.18,-9.25 459.52,-16.24"/>
</a>
</g>
</g>
<!-- Node5 -->
<g id="Node000005" class="node">
<title>Node5</title>
<g id="a_Node000005"><a xlink:href="Course_8h.html" target="_top" xlink:title=" ">
<polygon fill="white" stroke="#666666" points="780.5,-305 644.5,-305 644.5,-286 780.5,-286 780.5,-305"/>
<text text-anchor="middle" x="712.5" y="-293" font-family="Helvetica,sans-Serif" font-size="10.00">engine/courses/Course.h</text>
</a>
</g>
</g>
<!-- Node4&#45;&gt;Node5 -->
<g id="edge5_Node000004_Node000005" class="edge">
<title>Node4&#45;&gt;Node5</title>
<g id="a_edge5_Node000004_Node000005"><a xlink:title=" ">
<path fill="none" stroke="#63b8ff" d="M447,-342.79C499.14,-333.7 592.67,-317.39 653.65,-306.76"/>
<polygon fill="#63b8ff" stroke="#63b8ff" points="654.27,-310.21 663.52,-305.04 653.07,-303.31 654.27,-310.21"/>
</a>
</g>
</g>
<!-- Node8 -->
<g id="Node000008" class="node">
<title>Node8</title>
<g id="a_Node000008"><a xlink:href="camera_8h.html" target="_top" xlink:title=" ">
<polygon fill="white" stroke="#666666" points="1241.5,-195 1179.5,-195 1179.5,-176 1241.5,-176 1241.5,-195"/>
<text text-anchor="middle" x="1210.5" y="-183" font-family="Helvetica,sans-Serif" font-size="10.00">camera.h</text>
</a>
</g>
</g>
<!-- Node4&#45;&gt;Node8 -->
<g id="edge56_Node000004_Node000008" class="edge">
<title>Node4&#45;&gt;Node8</title>
<g id="a_edge56_Node000004_Node000008"><a xlink:title=" ">
<path fill="none" stroke="#63b8ff" d="M447.24,-347.01C578.7,-338.13 1006.6,-305.52 1131.5,-250 1156.74,-238.78 1180.72,-217.45 1195.5,-202.63"/>
<polygon fill="#63b8ff" stroke="#63b8ff" points="1198.28,-204.79 1202.72,-195.17 1193.25,-199.92 1198.28,-204.79"/>
</a>
</g>
</g>
<!-- Node26 -->
<g id="Node000026" class="node">
<title>Node26</title>
<g id="a_Node000026"><a xlink:href="HM__Intro_8h.html" target="_top" xlink:title=" ">
<polygon fill="white" stroke="#666666" points="294.5,-134.5 188.5,-134.5 188.5,-115.5 294.5,-115.5 294.5,-134.5"/>
<text text-anchor="middle" x="241.5" y="-122.5" font-family="Helvetica,sans-Serif" font-size="10.00">engine/HM_Intro.h</text>
</a>
</g>
</g>
<!-- Node4&#45;&gt;Node26 -->
<g id="edge51_Node000004_Node000026" class="edge">
<title>Node4&#45;&gt;Node26</title>
<g id="a_edge51_Node000004_Node000026"><a xlink:title=" ">
<path fill="none" stroke="#63b8ff" d="M401.95,-340.74C377.02,-307.37 287.7,-187.83 254.26,-143.08"/>
<polygon fill="#63b8ff" stroke="#63b8ff" points="256.97,-140.86 248.18,-134.94 251.36,-145.05 256.97,-140.86"/>
</a>
</g>
</g>
<!-- Node27 -->
<g id="Node000027" class="node">
<title>Node27</title>
<g id="a_Node000027"><a xlink:href="actor__types_8h.html" target="_top" xlink:title=" ">
<polygon fill="white" stroke="#666666" points="1311,-134.5 1228,-134.5 1228,-115.5 1311,-115.5 1311,-134.5"/>
<text text-anchor="middle" x="1269.5" y="-122.5" font-family="Helvetica,sans-Serif" font-size="10.00">actor_types.h</text>
</a>
</g>
</g>
<!-- Node4&#45;&gt;Node27 -->
<g id="edge57_Node000004_Node000027" class="edge">
<title>Node4&#45;&gt;Node27</title>
<g id="a_edge57_Node000004_Node000027"><a xlink:title=" ">
<path fill="none" stroke="#63b8ff" d="M447.08,-348.59C536.07,-346 762.32,-336.58 948.5,-305 1044.47,-288.72 1070.89,-288.01 1160.5,-250 1203.66,-231.69 1222.3,-232.45 1250.5,-195 1261.58,-180.29 1266.2,-159.48 1268.12,-144.57"/>
<polygon fill="#63b8ff" stroke="#63b8ff" points="1271.62,-144.81 1269.13,-134.51 1264.65,-144.11 1271.62,-144.81"/>
</a>
</g>
</g>
<!-- Node6 -->
<g id="Node000006" class="node">
<title>Node6</title>
<g id="a_Node000006"><a xlink:title=" ">
<polygon fill="#e0e0e0" stroke="#999999" points="555.5,-250 417.5,-250 417.5,-231 555.5,-231 555.5,-250"/>
<text text-anchor="middle" x="486.5" y="-238" font-family="Helvetica,sans-Serif" font-size="10.00">libultraship/libultraship.h</text>
</a>
</g>
</g>
<!-- Node5&#45;&gt;Node6 -->
<g id="edge6_Node000005_Node000006" class="edge">
<title>Node5&#45;&gt;Node6</title>
<g id="a_edge6_Node000005_Node000006"><a xlink:title=" ">
<path fill="none" stroke="#63b8ff" d="M676.19,-285.98C637.26,-276.86 575.34,-262.33 532.9,-252.38"/>
<polygon fill="#63b8ff" stroke="#63b8ff" points="533.63,-248.96 523.1,-250.08 532.03,-255.77 533.63,-248.96"/>
</a>
</g>
</g>
<!-- Node7 -->
<g id="Node000007" class="node">
<title>Node7</title>
<g id="a_Node000007"><a xlink:href="CoreMath_8h.html" target="_top" xlink:title=" ">
<polygon fill="white" stroke="#666666" points="213,-74 140,-74 140,-55 213,-55 213,-74"/>
<text text-anchor="middle" x="176.5" y="-62" font-family="Helvetica,sans-Serif" font-size="10.00">CoreMath.h</text>
</a>
</g>
</g>
<!-- Node5&#45;&gt;Node7 -->
<g id="edge7_Node000005_Node000007" class="edge">
<title>Node5&#45;&gt;Node7</title>
<g id="a_edge7_Node000005_Node000007"><a xlink:title=" ">
<path fill="none" stroke="#63b8ff" d="M644.34,-291.22C579.78,-286.62 480.74,-275.72 398.5,-250 294.54,-217.49 238.53,-231.54 179.5,-140 168.78,-123.38 169.79,-100.07 172.34,-83.97"/>
<polygon fill="#63b8ff" stroke="#63b8ff" points="175.78,-84.63 174.23,-74.15 168.9,-83.31 175.78,-84.63"/>
</a>
</g>
</g>
<!-- Node5&#45;&gt;Node8 -->
<g id="edge9_Node000005_Node000008" class="edge">
<title>Node5&#45;&gt;Node8</title>
<g id="a_edge9_Node000005_Node000008"><a xlink:title=" ">
<path fill="none" stroke="#63b8ff" d="M780.79,-294.57C858.92,-292.84 989.83,-284.38 1096.5,-250 1131.78,-238.63 1168.53,-215.85 1190.46,-200.9"/>
<polygon fill="#63b8ff" stroke="#63b8ff" points="1192.7,-203.6 1198.91,-195.02 1188.7,-197.86 1192.7,-203.6"/>
</a>
</g>
</g>
<!-- Node9 -->
<g id="Node000009" class="node">
<title>Node9</title>
<g id="a_Node000009"><a xlink:href="common__structs_8h.html" target="_top" xlink:title=" ">
<polygon fill="white" stroke="#666666" points="1018,-74 911,-74 911,-55 1018,-55 1018,-74"/>
<text text-anchor="middle" x="964.5" y="-62" font-family="Helvetica,sans-Serif" font-size="10.00">common_structs.h</text>
</a>
</g>
</g>
<!-- Node5&#45;&gt;Node9 -->
<g id="edge50_Node000005_Node000009" class="edge">
<title>Node5&#45;&gt;Node9</title>
<g id="a_edge50_Node000005_Node000009"><a xlink:title=" ">
<path fill="none" stroke="#63b8ff" d="M780.58,-289.93C871.13,-283.14 1021.81,-269.12 1038.5,-250 1083.46,-198.49 1014.51,-116.21 981.03,-81.63"/>
<polygon fill="#63b8ff" stroke="#63b8ff" points="983.27,-78.91 973.74,-74.28 978.3,-83.84 983.27,-78.91"/>
</a>
</g>
</g>
<!-- Node10 -->
<g id="Node000010" class="node">
<title>Node10</title>
<g id="a_Node000010"><a xlink:href="course__offsets_8h.html" target="_top" xlink:title=" ">
<polygon fill="white" stroke="#666666" points="482.5,-195 386.5,-195 386.5,-176 482.5,-176 482.5,-195"/>
<text text-anchor="middle" x="434.5" y="-183" font-family="Helvetica,sans-Serif" font-size="10.00">course_offsets.h</text>
</a>
</g>
</g>
<!-- Node5&#45;&gt;Node10 -->
<g id="edge13_Node000005_Node000010" class="edge">
<title>Node5&#45;&gt;Node10</title>
<g id="a_edge13_Node000005_Node000010"><a xlink:title=" ">
<path fill="none" stroke="#63b8ff" d="M644.43,-294.46C564.31,-292.79 438.37,-284.56 408.5,-250 396.76,-236.42 407.86,-216.82 418.97,-202.99"/>
<polygon fill="#63b8ff" stroke="#63b8ff" points="421.78,-205.09 425.68,-195.24 416.49,-200.51 421.78,-205.09"/>
</a>
</g>
</g>
<!-- Node15 -->
<g id="Node000015" class="node">
<title>Node15</title>
<g id="a_Node000015"><a xlink:href="src_2data_2some__data_8h.html" target="_top" xlink:title=" ">
<polygon fill="white" stroke="#666666" points="873.5,-250 769.5,-250 769.5,-231 873.5,-231 873.5,-250"/>
<text text-anchor="middle" x="821.5" y="-238" font-family="Helvetica,sans-Serif" font-size="10.00">data/some_data.h</text>
</a>
</g>
</g>
<!-- Node5&#45;&gt;Node15 -->
<g id="edge22_Node000005_Node000015" class="edge">
<title>Node5&#45;&gt;Node15</title>
<g id="a_edge22_Node000005_Node000015"><a xlink:title=" ">
<path fill="none" stroke="#63b8ff" d="M730.01,-285.98C747.47,-277.5 774.51,-264.35 794.67,-254.54"/>
<polygon fill="#63b8ff" stroke="#63b8ff" points="796.21,-257.69 803.67,-250.17 793.14,-251.4 796.21,-257.69"/>
</a>
</g>
</g>
<!-- Node18 -->
<g id="Node000018" class="node">
<title>Node18</title>
<g id="a_Node000018"><a xlink:href="defines_8h.html" target="_top" xlink:title=" ">
<polygon fill="white" stroke="#666666" points="635,-250 574,-250 574,-231 635,-231 635,-250"/>
<text text-anchor="middle" x="604.5" y="-238" font-family="Helvetica,sans-Serif" font-size="10.00">defines.h</text>
</a>
</g>
</g>
<!-- Node5&#45;&gt;Node18 -->
<g id="edge30_Node000005_Node000018" class="edge">
<title>Node5&#45;&gt;Node18</title>
<g id="a_edge30_Node000005_Node000018"><a xlink:title=" ">
<path fill="none" stroke="#63b8ff" d="M695.15,-285.98C677.93,-277.54 651.3,-264.47 631.35,-254.68"/>
<polygon fill="#63b8ff" stroke="#63b8ff" points="632.69,-251.43 622.17,-250.17 629.6,-257.72 632.69,-251.43"/>
</a>
</g>
</g>
<!-- Node19 -->
<g id="Node000019" class="node">
<title>Node19</title>
<g id="a_Node000019"><a xlink:href="bomb__kart_8h.html" target="_top" xlink:title=" ">
<polygon fill="white" stroke="#666666" points="780,-195 703,-195 703,-176 780,-176 780,-195"/>
<text text-anchor="middle" x="741.5" y="-183" font-family="Helvetica,sans-Serif" font-size="10.00">bomb_kart.h</text>
</a>
</g>
</g>
<!-- Node5&#45;&gt;Node19 -->
<g id="edge31_Node000005_Node000019" class="edge">
<title>Node5&#45;&gt;Node19</title>
<g id="a_edge31_Node000005_Node000019"><a xlink:title=" ">
<path fill="none" stroke="#63b8ff" d="M714.87,-285.66C719.59,-268.09 730.24,-228.45 736.54,-204.95"/>
<polygon fill="#63b8ff" stroke="#63b8ff" points="739.96,-205.72 739.18,-195.16 733.2,-203.91 739.96,-205.72"/>
</a>
</g>
</g>
<!-- Node22 -->
<g id="Node000022" class="node">
<title>Node22</title>
<g id="a_Node000022"><a xlink:href="path__spawn__metadata_8h.html" target="_top" xlink:title=" ">
<polygon fill="white" stroke="#666666" points="1029,-250 892,-250 892,-231 1029,-231 1029,-250"/>
<text text-anchor="middle" x="960.5" y="-238" font-family="Helvetica,sans-Serif" font-size="10.00">path_spawn_metadata.h</text>
</a>
</g>
</g>
<!-- Node5&#45;&gt;Node22 -->
<g id="edge38_Node000005_Node000022" class="edge">
<title>Node5&#45;&gt;Node22</title>
<g id="a_edge38_Node000005_Node000022"><a xlink:title=" ">
<path fill="none" stroke="#63b8ff" d="M752.35,-285.98C795.33,-276.8 863.87,-262.15 910.46,-252.19"/>
<polygon fill="#63b8ff" stroke="#63b8ff" points="911.29,-255.59 920.34,-250.08 909.83,-248.75 911.29,-255.59"/>
</a>
</g>
</g>
<!-- Node23 -->
<g id="Node000023" class="node">
<title>Node23</title>
<g id="a_Node000023"><a xlink:href="waypoints_8h.html" target="_top" xlink:title=" ">
<polygon fill="white" stroke="#666666" points="1161.5,-195 1085.5,-195 1085.5,-176 1161.5,-176 1161.5,-195"/>
<text text-anchor="middle" x="1123.5" y="-183" font-family="Helvetica,sans-Serif" font-size="10.00">waypoints.h</text>
</a>
</g>
</g>
<!-- Node5&#45;&gt;Node23 -->
<g id="edge48_Node000005_Node000023" class="edge">
<title>Node5&#45;&gt;Node23</title>
<g id="a_edge48_Node000005_Node000023"><a xlink:title=" ">
<path fill="none" stroke="#63b8ff" d="M780.82,-292.03C870.71,-287.78 1022.97,-276.77 1071.5,-250 1090.54,-239.5 1105.35,-218.96 1114.22,-204.08"/>
<polygon fill="#63b8ff" stroke="#63b8ff" points="1117.32,-205.71 1119.17,-195.28 1111.22,-202.28 1117.32,-205.71"/>
</a>
</g>
</g>
<!-- Node25 -->
<g id="Node000025" class="node">
<title>Node25</title>
<g id="a_Node000025"><a xlink:href="sounds_8h.html" target="_top" xlink:title=" ">
<polygon fill="white" stroke="#666666" points="713.5,-250 653.5,-250 653.5,-231 713.5,-231 713.5,-250"/>
<text text-anchor="middle" x="683.5" y="-238" font-family="Helvetica,sans-Serif" font-size="10.00">sounds.h</text>
</a>
</g>
</g>
<!-- Node5&#45;&gt;Node25 -->
<g id="edge49_Node000005_Node000025" class="edge">
<title>Node5&#45;&gt;Node25</title>
<g id="a_edge49_Node000005_Node000025"><a xlink:title=" ">
<path fill="none" stroke="#63b8ff" d="M707.71,-285.75C703.74,-278.49 697.97,-267.95 693.07,-258.98"/>
<polygon fill="#63b8ff" stroke="#63b8ff" points="696.07,-257.18 688.2,-250.09 689.93,-260.54 696.07,-257.18"/>
</a>
</g>
</g>
<!-- Node7&#45;&gt;Node2 -->
<g id="edge8_Node000007_Node000002" class="edge">
<title>Node7&#45;&gt;Node2</title>
<g id="a_edge8_Node000007_Node000002"><a xlink:title=" ">
<path fill="none" stroke="#63b8ff" d="M213.26,-57.33C218.05,-56.54 222.89,-55.75 227.5,-55 308.56,-41.85 402.82,-27.08 459.24,-18.3"/>
<polygon fill="#63b8ff" stroke="#63b8ff" points="459.98,-21.72 469.32,-16.73 458.9,-14.81 459.98,-21.72"/>
</a>
</g>
</g>
<!-- Node8&#45;&gt;Node2 -->
<g id="edge10_Node000008_Node000002" class="edge">
<title>Node8&#45;&gt;Node2</title>
<g id="a_edge10_Node000008_Node000002"><a xlink:title=" ">
<path fill="none" stroke="#63b8ff" d="M1204.51,-175.64C1193.91,-160.52 1170.51,-129.47 1144.5,-110 1098.5,-75.56 1082.99,-69.91 1027.5,-55 940.12,-31.51 671.89,-17.52 559.68,-12.56"/>
<polygon fill="#63b8ff" stroke="#63b8ff" points="559.78,-9.06 549.63,-12.12 559.47,-16.05 559.78,-9.06"/>
</a>
</g>
</g>
<!-- Node8&#45;&gt;Node9 -->
<g id="edge11_Node000008_Node000009" class="edge">
<title>Node8&#45;&gt;Node9</title>
<g id="a_edge11_Node000008_Node000009"><a xlink:title=" ">
<path fill="none" stroke="#63b8ff" d="M1200.97,-175.94C1183.57,-160.71 1145,-128.76 1107.5,-110 1077.78,-95.13 1042.1,-84.02 1013.81,-76.61"/>
<polygon fill="#63b8ff" stroke="#63b8ff" points="1014.3,-73.13 1003.74,-74.06 1012.57,-79.91 1014.3,-73.13"/>
</a>
</g>
</g>
<!-- Node9&#45;&gt;Node2 -->
<g id="edge12_Node000009_Node000002" class="edge">
<title>Node9&#45;&gt;Node2</title>
<g id="a_edge12_Node000009_Node000002"><a xlink:title=" ">
<path fill="none" stroke="#63b8ff" d="M910.97,-57.26C822.25,-46.93 645.99,-26.4 559.6,-16.34"/>
<polygon fill="#63b8ff" stroke="#63b8ff" points="559.86,-12.84 549.52,-15.16 559.05,-19.8 559.86,-12.84"/>
</a>
</g>
</g>
<!-- Node10&#45;&gt;Node2 -->
<g id="edge14_Node000010_Node000002" class="edge">
<title>Node10&#45;&gt;Node2</title>
<g id="a_edge14_Node000010_Node000002"><a xlink:title=" ">
<path fill="none" stroke="#63b8ff" d="M438.32,-175.63C450.06,-148.4 485.75,-65.61 501.68,-28.65"/>
<polygon fill="#63b8ff" stroke="#63b8ff" points="505.03,-29.71 505.77,-19.14 498.6,-26.94 505.03,-29.71"/>
</a>
</g>
</g>
<!-- Node10&#45;&gt;Node3 -->
<g id="edge16_Node000010_Node000003" class="edge">
<title>Node10&#45;&gt;Node3</title>
<g id="a_edge16_Node000010_Node000003"><a xlink:title=" ">
<path fill="none" stroke="#63b8ff" d="M423.44,-175.98C412.3,-167.28 394.78,-153.19 380.5,-140 359.77,-120.84 337.39,-97.18 323.19,-81.73"/>
<polygon fill="#63b8ff" stroke="#63b8ff" points="325.52,-79.1 316.19,-74.07 320.35,-83.82 325.52,-79.1"/>
</a>
</g>
</g>
<!-- Node11 -->
<g id="Node000011" class="node">
<title>Node11</title>
<g id="a_Node000011"><a xlink:title=" ">
<polygon fill="#e0e0e0" stroke="#999999" points="226.5,-19 136.5,-19 136.5,0 226.5,0 226.5,-19"/>
<text text-anchor="middle" x="181.5" y="-7" font-family="Helvetica,sans-Serif" font-size="10.00">libultra/types.h</text>
</a>
</g>
</g>
<!-- Node10&#45;&gt;Node11 -->
<g id="edge15_Node000010_Node000011" class="edge">
<title>Node10&#45;&gt;Node11</title>
<g id="a_edge15_Node000010_Node000011"><a xlink:title=" ">
<path fill="none" stroke="#63b8ff" d="M386.31,-180.37C322.3,-174.15 213.36,-160.87 179.5,-140 142.38,-117.12 112.45,-94.7 130.5,-55 136.12,-42.63 147.07,-32.36 157.39,-24.81"/>
<polygon fill="#63b8ff" stroke="#63b8ff" points="159.46,-27.63 165.77,-19.12 155.53,-21.84 159.46,-27.63"/>
</a>
</g>
</g>
<!-- Node12 -->
<g id="Node000012" class="node">
<title>Node12</title>
<g id="a_Node000012"><a xlink:href="other__textures_8h.html" target="_top" xlink:title=" ">
<polygon fill="white" stroke="#666666" points="618.5,-140 498.5,-140 498.5,-110 618.5,-110 618.5,-140"/>
<text text-anchor="start" x="506.5" y="-128" font-family="Helvetica,sans-Serif" font-size="10.00">assets/textures/other</text>
<text text-anchor="middle" x="558.5" y="-117" font-family="Helvetica,sans-Serif" font-size="10.00">_textures.h</text>
</a>
</g>
</g>
<!-- Node10&#45;&gt;Node12 -->
<g id="edge17_Node000010_Node000012" class="edge">
<title>Node10&#45;&gt;Node12</title>
<g id="a_edge17_Node000010_Node000012"><a xlink:title=" ">
<path fill="none" stroke="#63b8ff" d="M452.53,-175.99C469.93,-167.79 496.84,-155.09 519.19,-144.55"/>
<polygon fill="#63b8ff" stroke="#63b8ff" points="520.9,-147.61 528.45,-140.18 517.91,-141.28 520.9,-147.61"/>
</a>
</g>
</g>
<!-- Node14 -->
<g id="Node000014" class="node">
<title>Node14</title>
<g id="a_Node000014"><a xlink:href="animation_8h.html" target="_top" xlink:title=" ">
<polygon fill="white" stroke="#666666" points="852,-134.5 777,-134.5 777,-115.5 852,-115.5 852,-134.5"/>
<text text-anchor="middle" x="814.5" y="-122.5" font-family="Helvetica,sans-Serif" font-size="10.00">animation.h</text>
</a>
</g>
</g>
<!-- Node10&#45;&gt;Node14 -->
<g id="edge20_Node000010_Node000014" class="edge">
<title>Node10&#45;&gt;Node14</title>
<g id="a_edge20_Node000010_Node000014"><a xlink:title=" ">
<path fill="none" stroke="#63b8ff" d="M482.6,-180.46C547.71,-174.44 667.27,-161.49 767.5,-140 771.13,-139.22 774.88,-138.3 778.61,-137.32"/>
<polygon fill="#63b8ff" stroke="#63b8ff" points="779.66,-140.66 788.34,-134.58 777.76,-133.92 779.66,-140.66"/>
</a>
</g>
</g>
<!-- Node12&#45;&gt;Node2 -->
<g id="edge18_Node000012_Node000002" class="edge">
<title>Node12&#45;&gt;Node2</title>
<g id="a_edge18_Node000012_Node000002"><a xlink:title=" ">
<path fill="none" stroke="#63b8ff" d="M552.29,-109.63C543.4,-89.03 527.04,-51.12 517.33,-28.63"/>
<polygon fill="#63b8ff" stroke="#63b8ff" points="520.45,-27.02 513.27,-19.23 514.02,-29.8 520.45,-27.02"/>
</a>
</g>
</g>
<!-- Node13 -->
<g id="Node000013" class="node">
<title>Node13</title>
<g id="a_Node000013"><a xlink:href="align__asset__macro_8h.html" target="_top" xlink:title=" ">
<polygon fill="white" stroke="#666666" points="669,-74 552,-74 552,-55 669,-55 669,-74"/>
<text text-anchor="middle" x="610.5" y="-62" font-family="Helvetica,sans-Serif" font-size="10.00">align_asset_macro.h</text>
</a>
</g>
</g>
<!-- Node12&#45;&gt;Node13 -->
<g id="edge19_Node000012_Node000013" class="edge">
<title>Node12&#45;&gt;Node13</title>
<g id="a_edge19_Node000012_Node000013"><a xlink:title=" ">
<path fill="none" stroke="#63b8ff" d="M571.09,-109.84C578.56,-101.43 588.06,-90.74 595.87,-81.96"/>
<polygon fill="#63b8ff" stroke="#63b8ff" points="598.68,-84.07 602.71,-74.27 593.45,-79.41 598.68,-84.07"/>
</a>
</g>
</g>
<!-- Node14&#45;&gt;Node9 -->
<g id="edge21_Node000014_Node000009" class="edge">
<title>Node14&#45;&gt;Node9</title>
<g id="a_edge21_Node000014_Node000009"><a xlink:title=" ">
<path fill="none" stroke="#63b8ff" d="M836.31,-115.49C861.75,-105.57 904.01,-89.09 933.01,-77.78"/>
<polygon fill="#63b8ff" stroke="#63b8ff" points="934.62,-80.91 942.66,-74.02 932.07,-74.39 934.62,-80.91"/>
</a>
</g>
</g>
<!-- Node15&#45;&gt;Node3 -->
<g id="edge23_Node000015_Node000003" class="edge">
<title>Node15&#45;&gt;Node3</title>
<g id="a_edge23_Node000015_Node000003"><a xlink:title=" ">
<path fill="none" stroke="#63b8ff" d="M769.09,-234.87C653.39,-224.57 385.66,-200.25 377.5,-195 337.98,-169.56 319.58,-113.52 312.39,-84.21"/>
<polygon fill="#63b8ff" stroke="#63b8ff" points="315.72,-83.06 310.1,-74.08 308.89,-84.6 315.72,-83.06"/>
</a>
</g>
</g>
<!-- Node15&#45;&gt;Node12 -->
<g id="edge26_Node000015_Node000012" class="edge">
<title>Node15&#45;&gt;Node12</title>
<g id="a_edge26_Node000015_Node000012"><a xlink:title=" ">
<path fill="none" stroke="#63b8ff" d="M819.59,-230.56C816.14,-216.62 807.46,-189.9 789.5,-176 786.23,-173.47 695.46,-154.3 628.7,-140.44"/>
<polygon fill="#63b8ff" stroke="#63b8ff" points="629.12,-136.96 618.62,-138.36 627.7,-143.81 629.12,-136.96"/>
</a>
</g>
</g>
<!-- Node16 -->
<g id="Node000016" class="node">
<title>Node16</title>
<g id="a_Node000016"><a xlink:href="spline_8h.html" target="_top" xlink:title=" ">
<polygon fill="white" stroke="#666666" points="964,-134.5 909,-134.5 909,-115.5 964,-115.5 964,-134.5"/>
<text text-anchor="middle" x="936.5" y="-122.5" font-family="Helvetica,sans-Serif" font-size="10.00">spline.h</text>
</a>
</g>
</g>
<!-- Node15&#45;&gt;Node16 -->
<g id="edge24_Node000015_Node000016" class="edge">
<title>Node15&#45;&gt;Node16</title>
<g id="a_edge24_Node000015_Node000016"><a xlink:title=" ">
<path fill="none" stroke="#63b8ff" d="M830.14,-230.97C849.37,-211.99 895.94,-166.03 920.59,-141.71"/>
<polygon fill="#63b8ff" stroke="#63b8ff" points="923.1,-144.15 927.76,-134.63 918.18,-139.16 923.1,-144.15"/>
</a>
</g>
</g>
<!-- Node17 -->
<g id="Node000017" class="node">
<title>Node17</title>
<g id="a_Node000017"><a xlink:href="objects_8h.html" target="_top" xlink:title=" ">
<polygon fill="white" stroke="#666666" points="974,-195 913,-195 913,-176 974,-176 974,-195"/>
<text text-anchor="middle" x="943.5" y="-183" font-family="Helvetica,sans-Serif" font-size="10.00">objects.h</text>
</a>
</g>
</g>
<!-- Node15&#45;&gt;Node17 -->
<g id="edge27_Node000015_Node000017" class="edge">
<title>Node15&#45;&gt;Node17</title>
<g id="a_edge27_Node000015_Node000017"><a xlink:title=" ">
<path fill="none" stroke="#63b8ff" d="M841.1,-230.98C860.82,-222.42 891.45,-209.11 914.08,-199.28"/>
<polygon fill="#63b8ff" stroke="#63b8ff" points="915.76,-202.37 923.54,-195.17 912.98,-195.94 915.76,-202.37"/>
</a>
</g>
</g>
<!-- Node16&#45;&gt;Node9 -->
<g id="edge25_Node000016_Node000009" class="edge">
<title>Node16&#45;&gt;Node9</title>
<g id="a_edge25_Node000016_Node000009"><a xlink:title=" ">
<path fill="none" stroke="#63b8ff" d="M940.63,-115.37C944.64,-106.99 950.85,-94.01 955.94,-83.39"/>
<polygon fill="#63b8ff" stroke="#63b8ff" points="959.19,-84.7 960.35,-74.17 952.88,-81.68 959.19,-84.7"/>
</a>
</g>
</g>
<!-- Node17&#45;&gt;Node9 -->
<g id="edge29_Node000017_Node000009" class="edge">
<title>Node17&#45;&gt;Node9</title>
<g id="a_edge29_Node000017_Node000009"><a xlink:title=" ">
<path fill="none" stroke="#63b8ff" d="M951.71,-175.8C959.04,-167.38 969.25,-153.9 973.5,-140 979.14,-121.55 975.24,-99.52 970.96,-84.23"/>
<polygon fill="#63b8ff" stroke="#63b8ff" points="974.22,-82.93 967.9,-74.42 967.54,-85.01 974.22,-82.93"/>
</a>
</g>
</g>
<!-- Node17&#45;&gt;Node16 -->
<g id="edge28_Node000017_Node000016" class="edge">
<title>Node17&#45;&gt;Node16</title>
<g id="a_edge28_Node000017_Node000016"><a xlink:title=" ">
<path fill="none" stroke="#63b8ff" d="M942.47,-175.87C941.5,-167.75 940.01,-155.31 938.76,-144.89"/>
<polygon fill="#63b8ff" stroke="#63b8ff" points="942.2,-144.18 937.54,-134.67 935.25,-145.01 942.2,-144.18"/>
</a>
</g>
</g>
<!-- Node19&#45;&gt;Node9 -->
<g id="edge32_Node000019_Node000009" class="edge">
<title>Node19&#45;&gt;Node9</title>
<g id="a_edge32_Node000019_Node000009"><a xlink:title=" ">
<path fill="none" stroke="#63b8ff" d="M772.19,-175.92C797.11,-168.31 832.73,-155.92 861.5,-140 880.63,-129.41 882.85,-122.91 900.5,-110 914.56,-99.71 930.67,-88.52 943.2,-79.93"/>
<polygon fill="#63b8ff" stroke="#63b8ff" points="945.33,-82.71 951.62,-74.19 941.39,-76.93 945.33,-82.71"/>
</a>
</g>
</g>
<!-- Node20 -->
<g id="Node000020" class="node">
<title>Node20</title>
<g id="a_Node000020"><a xlink:href="mk64_8h.html" target="_top" xlink:title=" ">
<polygon fill="white" stroke="#666666" points="442,-134.5 389,-134.5 389,-115.5 442,-115.5 442,-134.5"/>
<text text-anchor="middle" x="415.5" y="-122.5" font-family="Helvetica,sans-Serif" font-size="10.00">mk64.h</text>
</a>
</g>
</g>
<!-- Node19&#45;&gt;Node20 -->
<g id="edge33_Node000019_Node000020" class="edge">
<title>Node19&#45;&gt;Node20</title>
<g id="a_edge33_Node000019_Node000020"><a xlink:title=" ">
<path fill="none" stroke="#63b8ff" d="M702.62,-177.79C653.1,-169.2 564.89,-153.79 489.5,-140 477.36,-137.78 464.12,-135.3 452.24,-133.04"/>
<polygon fill="#63b8ff" stroke="#63b8ff" points="452.68,-129.56 442.2,-131.13 451.37,-136.44 452.68,-129.56"/>
</a>
</g>
</g>
<!-- Node20&#45;&gt;Node2 -->
<g id="edge34_Node000020_Node000002" class="edge">
<title>Node20&#45;&gt;Node2</title>
<g id="a_edge34_Node000020_Node000002"><a xlink:title=" ">
<path fill="none" stroke="#63b8ff" d="M422.33,-115.45C432.81,-102.35 453.53,-76.58 471.5,-55 479.3,-45.63 488.14,-35.27 495.33,-26.9"/>
<polygon fill="#63b8ff" stroke="#63b8ff" points="497.99,-29.17 501.86,-19.31 492.69,-24.6 497.99,-29.17"/>
</a>
</g>
</g>
<!-- Node20&#45;&gt;Node3 -->
<g id="edge37_Node000020_Node000003" class="edge">
<title>Node20&#45;&gt;Node3</title>
<g id="a_edge37_Node000020_Node000003"><a xlink:title=" ">
<path fill="none" stroke="#63b8ff" d="M399.71,-115.37C382.17,-105.78 353.62,-90.17 333.13,-78.97"/>
<polygon fill="#63b8ff" stroke="#63b8ff" points="334.81,-75.89 324.35,-74.17 331.45,-82.04 334.81,-75.89"/>
</a>
</g>
</g>
<!-- Node21 -->
<g id="Node000021" class="node">
<title>Node21</title>
<g id="a_Node000021"><a xlink:href="string_8h.html" target="_top" xlink:title=" ">
<polygon fill="white" stroke="#666666" points="419,-74 366,-74 366,-55 419,-55 419,-74"/>
<text text-anchor="middle" x="392.5" y="-62" font-family="Helvetica,sans-Serif" font-size="10.00">string.h</text>
</a>
</g>
</g>
<!-- Node20&#45;&gt;Node21 -->
<g id="edge35_Node000020_Node000021" class="edge">
<title>Node20&#45;&gt;Node21</title>
<g id="a_edge35_Node000020_Node000021"><a xlink:title=" ">
<path fill="none" stroke="#63b8ff" d="M412.11,-115.37C408.84,-107.07 403.81,-94.28 399.66,-83.72"/>
<polygon fill="#63b8ff" stroke="#63b8ff" points="402.82,-82.19 395.91,-74.17 396.31,-84.75 402.82,-82.19"/>
</a>
</g>
</g>
<!-- Node21&#45;&gt;Node11 -->
<g id="edge36_Node000021_Node000011" class="edge">
<title>Node21&#45;&gt;Node11</title>
<g id="a_edge36_Node000021_Node000011"><a xlink:title=" ">
<path fill="none" stroke="#63b8ff" d="M365.78,-56.79C330.46,-47.92 267.78,-32.17 225.45,-21.54"/>
<polygon fill="#63b8ff" stroke="#63b8ff" points="226.23,-18.13 215.68,-19.09 224.53,-24.92 226.23,-18.13"/>
</a>
</g>
</g>
<!-- Node22&#45;&gt;Node9 -->
<g id="edge41_Node000022_Node000009" class="edge">
<title>Node22&#45;&gt;Node9</title>
<g id="a_edge41_Node000022_Node000009"><a xlink:title=" ">
<path fill="none" stroke="#63b8ff" d="M966.34,-230.73C971.79,-222.05 979.65,-208.19 983.5,-195 994.1,-158.67 997.76,-146.69 988.5,-110 986.09,-100.44 981.17,-90.7 976.41,-82.78"/>
<polygon fill="#63b8ff" stroke="#63b8ff" points="979.22,-80.68 970.87,-74.16 973.33,-84.46 979.22,-80.68"/>
</a>
</g>
</g>
<!-- Node22&#45;&gt;Node19 -->
<g id="edge47_Node000022_Node000019" class="edge">
<title>Node22&#45;&gt;Node19</title>
<g id="a_edge47_Node000022_Node000019"><a xlink:title=" ">
<path fill="none" stroke="#63b8ff" d="M925.31,-230.98C887.67,-221.87 827.84,-207.4 786.73,-197.45"/>
<polygon fill="#63b8ff" stroke="#63b8ff" points="787.5,-194.03 776.96,-195.08 785.86,-200.84 787.5,-194.03"/>
</a>
</g>
</g>
<!-- Node22&#45;&gt;Node23 -->
<g id="edge39_Node000022_Node000023" class="edge">
<title>Node22&#45;&gt;Node23</title>
<g id="a_edge39_Node000022_Node000023"><a xlink:title=" ">
<path fill="none" stroke="#63b8ff" d="M986.69,-230.98C1013.94,-222.13 1056.8,-208.19 1087.28,-198.28"/>
<polygon fill="#63b8ff" stroke="#63b8ff" points="1088.68,-201.5 1097.11,-195.08 1086.51,-194.85 1088.68,-201.5"/>
</a>
</g>
</g>
<!-- Node24 -->
<g id="Node000024" class="node">
<title>Node24</title>
<g id="a_Node000024"><a xlink:href="other_2common__data_8h.html" target="_top" xlink:title=" ">
<polygon fill="white" stroke="#666666" points="758.5,-140 636.5,-140 636.5,-110 758.5,-110 758.5,-140"/>
<text text-anchor="start" x="644.5" y="-128" font-family="Helvetica,sans-Serif" font-size="10.00">assets/other/common</text>
<text text-anchor="middle" x="697.5" y="-117" font-family="Helvetica,sans-Serif" font-size="10.00">_data.h</text>
</a>
</g>
</g>
<!-- Node22&#45;&gt;Node24 -->
<g id="edge42_Node000022_Node000024" class="edge">
<title>Node22&#45;&gt;Node24</title>
<g id="a_edge42_Node000022_Node000024"><a xlink:title=" ">
<path fill="none" stroke="#63b8ff" d="M940.73,-230.97C898.18,-212.61 797.13,-168.99 739.55,-144.15"/>
<polygon fill="#63b8ff" stroke="#63b8ff" points="740.93,-140.93 730.36,-140.18 738.15,-147.36 740.93,-140.93"/>
</a>
</g>
</g>
<!-- Node23&#45;&gt;Node9 -->
<g id="edge40_Node000023_Node000009" class="edge">
<title>Node23&#45;&gt;Node9</title>
<g id="a_edge40_Node000023_Node000009"><a xlink:title=" ">
<path fill="none" stroke="#63b8ff" d="M1120.96,-175.86C1116.01,-160.51 1103.7,-128.37 1082.5,-110 1064.21,-94.14 1039.7,-83.68 1017.77,-76.92"/>
<polygon fill="#63b8ff" stroke="#63b8ff" points="1018.48,-73.48 1007.9,-74.06 1016.53,-80.2 1018.48,-73.48"/>
</a>
</g>
</g>
<!-- Node24&#45;&gt;Node2 -->
<g id="edge44_Node000024_Node000002" class="edge">
<title>Node24&#45;&gt;Node2</title>
<g id="a_edge44_Node000024_Node000002"><a xlink:title=" ">
<path fill="none" stroke="#63b8ff" d="M697.54,-109.79C696.8,-94.21 693.17,-69.5 678.5,-55 647.34,-24.19 597.55,-13.98 560.07,-10.93"/>
<polygon fill="#63b8ff" stroke="#63b8ff" points="560.06,-7.42 549.85,-10.25 559.6,-14.41 560.06,-7.42"/>
</a>
</g>
</g>
<!-- Node24&#45;&gt;Node3 -->
<g id="edge43_Node000024_Node000003" class="edge">
<title>Node24&#45;&gt;Node3</title>
<g id="a_edge43_Node000024_Node000003"><a xlink:title=" ">
<path fill="none" stroke="#63b8ff" d="M636.46,-111.55C633.43,-111.01 630.43,-110.49 627.5,-110 508.08,-90.12 477.16,-92.35 357.5,-74 357.4,-73.98 357.3,-73.97 357.2,-73.95"/>
<polygon fill="#63b8ff" stroke="#63b8ff" points="357.95,-70.53 347.53,-72.41 356.85,-77.44 357.95,-70.53"/>
</a>
</g>
</g>
<!-- Node24&#45;&gt;Node9 -->
<g id="edge45_Node000024_Node000009" class="edge">
<title>Node24&#45;&gt;Node9</title>
<g id="a_edge45_Node000024_Node000009"><a xlink:title=" ">
<path fill="none" stroke="#63b8ff" d="M758.76,-110.58C806.32,-100.16 871.39,-85.9 915.53,-76.23"/>
<polygon fill="#63b8ff" stroke="#63b8ff" points="916.42,-79.62 925.44,-74.06 914.92,-72.78 916.42,-79.62"/>
</a>
</g>
</g>
<!-- Node24&#45;&gt;Node13 -->
<g id="edge46_Node000024_Node000013" class="edge">
<title>Node24&#45;&gt;Node13</title>
<g id="a_edge46_Node000024_Node000013"><a xlink:title=" ">
<path fill="none" stroke="#63b8ff" d="M676.44,-109.84C662.96,-100.77 645.51,-89.04 631.95,-79.92"/>
<polygon fill="#63b8ff" stroke="#63b8ff" points="633.53,-76.77 623.28,-74.09 629.63,-82.58 633.53,-76.77"/>
</a>
</g>
</g>
<!-- Node26&#45;&gt;Node2 -->
<g id="edge52_Node000026_Node000002" class="edge">
<title>Node26&#45;&gt;Node2</title>
<g id="a_edge52_Node000026_Node000002"><a xlink:title=" ">
<path fill="none" stroke="#63b8ff" d="M241.16,-115.31C241.08,-100.57 243.24,-70.74 260.5,-55 288.89,-29.1 394.83,-17.82 459.02,-13.27"/>
<polygon fill="#63b8ff" stroke="#63b8ff" points="459.6,-16.74 469.34,-12.57 459.12,-9.75 459.6,-16.74"/>
</a>
</g>
</g>
<!-- Node26&#45;&gt;Node3 -->
<g id="edge53_Node000026_Node000003" class="edge">
<title>Node26&#45;&gt;Node3</title>
<g id="a_edge53_Node000026_Node000003"><a xlink:title=" ">
<path fill="none" stroke="#63b8ff" d="M251.39,-115.37C261.78,-106.3 278.34,-91.84 290.95,-80.82"/>
<polygon fill="#63b8ff" stroke="#63b8ff" points="293.34,-83.38 298.57,-74.17 288.74,-78.11 293.34,-83.38"/>
</a>
</g>
</g>
<!-- Node26&#45;&gt;Node7 -->
<g id="edge54_Node000026_Node000007" class="edge">
<title>Node26&#45;&gt;Node7</title>
<g id="a_edge54_Node000026_Node000007"><a xlink:title=" ">
<path fill="none" stroke="#63b8ff" d="M231.91,-115.37C221.92,-106.38 206.07,-92.11 193.87,-81.14"/>
<polygon fill="#63b8ff" stroke="#63b8ff" points="195.9,-78.26 186.13,-74.17 191.22,-83.46 195.9,-78.26"/>
</a>
</g>
</g>
<!-- Node26&#45;&gt;Node9 -->
<g id="edge55_Node000026_Node000009" class="edge">
<title>Node26&#45;&gt;Node9</title>
<g id="a_edge55_Node000026_Node000009"><a xlink:title=" ">
<path fill="none" stroke="#63b8ff" d="M294.61,-118.35C320.5,-115.67 352.11,-112.51 380.5,-110 569.63,-93.27 793.56,-77.27 900.9,-69.84"/>
<polygon fill="#63b8ff" stroke="#63b8ff" points="901.19,-73.33 910.92,-69.14 900.7,-66.34 901.19,-73.33"/>
</a>
</g>
</g>
<!-- Node27&#45;&gt;Node2 -->
<g id="edge58_Node000027_Node000002" class="edge">
<title>Node27&#45;&gt;Node2</title>
<g id="a_edge58_Node000027_Node000002"><a xlink:title=" ">
<path fill="none" stroke="#63b8ff" d="M1263.05,-115.24C1251.13,-99.82 1223.94,-68.21 1192.5,-55 1134.66,-30.69 707.46,-16.21 559.65,-11.88"/>
<polygon fill="#63b8ff" stroke="#63b8ff" points="559.6,-8.38 549.5,-11.59 559.4,-15.37 559.6,-8.38"/>
</a>
</g>
</g>
<!-- Node27&#45;&gt;Node9 -->
<g id="edge62_Node000027_Node000009" class="edge">
<title>Node27&#45;&gt;Node9</title>
<g id="a_edge62_Node000027_Node000009"><a xlink:title=" ">
<path fill="none" stroke="#63b8ff" d="M1227.73,-115.99C1173.52,-105.59 1078.81,-87.42 1018.99,-75.95"/>
<polygon fill="#63b8ff" stroke="#63b8ff" points="1019.46,-72.48 1008.98,-74.03 1018.14,-79.35 1019.46,-72.48"/>
</a>
</g>
</g>
<!-- Node28 -->
<g id="Node000028" class="node">
<title>Node28</title>
<g id="a_Node000028"><a xlink:href="macros_8h.html" target="_top" xlink:title=" ">
<polygon fill="white" stroke="#666666" points="1380.5,-74 1318.5,-74 1318.5,-55 1380.5,-55 1380.5,-74"/>
<text text-anchor="middle" x="1349.5" y="-62" font-family="Helvetica,sans-Serif" font-size="10.00">macros.h</text>
</a>
</g>
</g>
<!-- Node27&#45;&gt;Node28 -->
<g id="edge59_Node000027_Node000028" class="edge">
<title>Node27&#45;&gt;Node28</title>
<g id="a_edge59_Node000027_Node000028"><a xlink:title=" ">
<path fill="none" stroke="#63b8ff" d="M1281.3,-115.37C1293.95,-106.12 1314.24,-91.28 1329.41,-80.19"/>
<polygon fill="#63b8ff" stroke="#63b8ff" points="1331.64,-82.9 1337.65,-74.17 1327.51,-77.24 1331.64,-82.9"/>
</a>
</g>
</g>
<!-- Node30 -->
<g id="Node000030" class="node">
<title>Node30</title>
<g id="a_Node000030"><a xlink:title=" ">
<polygon fill="#e0e0e0" stroke="#999999" points="1300.5,-74 1244.5,-74 1244.5,-55 1300.5,-55 1300.5,-74"/>
<text text-anchor="middle" x="1272.5" y="-62" font-family="Helvetica,sans-Serif" font-size="10.00">assert.h</text>
</a>
</g>
</g>
<!-- Node27&#45;&gt;Node30 -->
<g id="edge63_Node000027_Node000030" class="edge">
<title>Node27&#45;&gt;Node30</title>
<g id="a_edge63_Node000027_Node000030"><a xlink:title=" ">
<path fill="none" stroke="#63b8ff" d="M1269.94,-115.37C1270.36,-107.25 1271,-94.81 1271.53,-84.39"/>
<polygon fill="#63b8ff" stroke="#63b8ff" points="1275.04,-84.33 1272.06,-74.17 1268.05,-83.97 1275.04,-84.33"/>
</a>
</g>
</g>
<!-- Node28&#45;&gt;Node2 -->
<g id="edge61_Node000028_Node000002" class="edge">
<title>Node28&#45;&gt;Node2</title>
<g id="a_edge61_Node000028_Node000002"><a xlink:title=" ">
<path fill="none" stroke="#63b8ff" d="M1318.14,-56.36C1315.23,-55.84 1312.31,-55.38 1309.5,-55 1027.86,-17.47 686.36,-11.5 559.82,-10.62"/>
<polygon fill="#63b8ff" stroke="#63b8ff" points="559.68,-7.12 549.66,-10.56 559.64,-14.12 559.68,-7.12"/>
</a>
</g>
</g>
<!-- Node29 -->
<g id="Node000029" class="node">
<title>Node29</title>
<g id="a_Node000029"><a xlink:href="math_8h.html" target="_top" xlink:title=" ">
<polygon fill="white" stroke="#666666" points="1375,-19 1324,-19 1324,0 1375,0 1375,-19"/>
<text text-anchor="middle" x="1349.5" y="-7" font-family="Helvetica,sans-Serif" font-size="10.00">math.h</text>
</a>
</g>
</g>
<!-- Node28&#45;&gt;Node29 -->
<g id="edge60_Node000028_Node000029" class="edge">
<title>Node28&#45;&gt;Node29</title>
<g id="a_edge60_Node000028_Node000029"><a xlink:title=" ">
<path fill="none" stroke="#63b8ff" d="M1349.5,-54.75C1349.5,-47.8 1349.5,-37.85 1349.5,-29.13"/>
<polygon fill="#63b8ff" stroke="#63b8ff" points="1353,-29.09 1349.5,-19.09 1346,-29.09 1353,-29.09"/>
</a>
</g>
</g>
</g>
</svg>

<g id="navigator" transform="translate(0 0)" fill="#404254">
  <rect fill="#f2f5e9" fill-opacity="0.5" stroke="#606060" stroke-width=".5" x="0" y="0" width="60" height="60"/>
  <use id="zoomplus" xlink:href="#zoomPlus" x="17" y="9" onmousedown="handleZoom(evt,'in')"/>
  <use id="zoomminus" xlink:href="#zoomMin" x="42" y="9" onmousedown="handleZoom(evt,'out')"/>
  <use id="reset" xlink:href="#resetDef" x="30" y="36" onmousedown="handleReset()"/>
   <use id="arrowup" xlink:href="#arrowUp" x="0" y="0" onmousedown="handlePan(0,-1)"/>
  <use id="arrowright" xlink:href="#arrowRight" x="0" y="0" onmousedown="handlePan(1,0)"/>
  <use id="arrowdown" xlink:href="#arrowDown" x="0" y="0" onmousedown="handlePan(0,1)"/>
  <use id="arrowleft" xlink:href="#arrowLeft" x="0" y="0" onmousedown="handlePan(-1,0)"/>
</g>
<svg viewBox="0 0 15 15" width="100%" height="30px" preserveAspectRatio="xMaxYMin meet">
 <g id="arrow_out" transform="scale(0.3 0.3)">
  <a xlink:href="track_8c__incl_org.svg" target="_base">
   <rect id="button" ry="5" rx="5" y="6" x="6" height="38" width="38"
        fill="#f2f5e9" fill-opacity="0.5" stroke="#606060" stroke-width="1.0"/>
   <path id="arrow"
     d="M 11.500037,31.436501 C 11.940474,20.09759 22.043105,11.32322 32.158766,21.979434 L 37.068811,17.246167 C 37.068811,17.246167 37.088388,32 37.088388,32 L 22.160133,31.978069 C 22.160133,31.978069 26.997745,27.140456 26.997745,27.140456 C 18.528582,18.264221 13.291696,25.230495 11.500037,31.436501 z"
     style="fill:#404040;"/>
  </a>
 </g>
</svg>

<style type='text/css'>
<![CDATA[
[data-mouse-over-selected='false'] { opacity: 0.7; }
[data-mouse-over-selected='true']  { opacity: 1.0; }
]]>
</style>
<script type="application/ecmascript"><![CDATA[
document.addEventListener('DOMContentLoaded', (event) => {
  highlightEdges();
  highlightAdjacentNodes();
});
]]></script>
</svg>
