<?xml version="1.0" encoding="UTF-8" standalone="no"?>
<!DOCTYPE svg PUBLIC "-//W3C//DTD SVG 1.1//EN"
 "http://www.w3.org/Graphics/SVG/1.1/DTD/svg11.dtd">
<!-- Generated by graphviz version 2.43.0 (0)
 -->
<!-- Title: src/engine/vehicles/Train.h Pages: 1 -->
<!--zoomable 225 -->

<svg id="main" version="1.1" xmlns="http://www.w3.org/2000/svg" xmlns:xlink="http://www.w3.org/1999/xlink" xml:space="preserve" onload="init(evt)">

<style type="text/css"><![CDATA[
.node, .edge {opacity: 0.7;}
.node.selected, .edge.selected {opacity: 1;}
.edge:hover path { stroke: red; }
.edge:hover polygon { stroke: red; fill: red; }
]]></style>

<defs>
  <circle id="rim" cx="0" cy="0" r="7"/>
  <circle id="rim2" cx="0" cy="0" r="3.5"/>
  <g id="zoomPlus">
    <use xlink:href="#rim" fill="#404040"><set attributeName="fill" to="#808080" begin="zoomplus.mouseover" end="zoomplus.mouseout"/></use>
    <path d="M-4,0h8M0,-4v8" fill="none" stroke="white" stroke-width="1.5" pointer-events="none"/>
  </g>
  <g id="zoomMin">
    <use xlink:href="#rim" fill="#404040"><set attributeName="fill" to="#808080" begin="zoomminus.mouseover" end="zoomminus.mouseout"/></use>
    <path d="M-4,0h8" fill="none" stroke="white" stroke-width="1.5" pointer-events="none"/>
  </g>
  <g id="arrowUp" transform="translate(30 24)">
    <use xlink:href="#rim"/>
    <path pointer-events="none" fill="none" stroke="white" stroke-width="1.5" d="M0,-3.0v7 M-2.5,-0.5L0,-3.0L2.5,-0.5"/>
  </g>
  <g id="arrowRight" transform="rotate(90) translate(36 -43)">
    <use xlink:href="#rim"/>
    <path pointer-events="none" fill="none" stroke="white" stroke-width="1.5" d="M0,-3.0v7 M-2.5,-0.5L0,-3.0L2.5,-0.5"/>
  </g>
  <g id="arrowDown" transform="rotate(180) translate(-30 -48)">
    <use xlink:href="#rim"/>
    <path pointer-events="none" fill="none" stroke="white" stroke-width="1.5" d="M0,-3.0v7 M-2.5,-0.5L0,-3.0L2.5,-0.5"/>
  </g>
  <g id="arrowLeft" transform="rotate(270) translate(-36 17)">
    <use xlink:href="#rim"/>
    <path pointer-events="none" fill="none" stroke="white" stroke-width="1.5" d="M0,-3.0v7 M-2.5,-0.5L0,-3.0L2.5,-0.5"/>
  </g>
  <g id="resetDef">
    <use xlink:href="#rim2" fill="#404040"><set attributeName="fill" to="#808080" begin="reset.mouseover" end="reset.mouseout"/></use>
  </g>
</defs>
<script type="application/ecmascript">
var viewWidth = 1762;
var viewHeight = 225;
var sectionId = 'dynsection-1';
</script>
<script type="application/ecmascript" xlink:href="svg.min.js"/>
<svg id="graph" class="graph">
<g id="viewport">
<title>src/engine/vehicles/Train.h</title>
<!-- Node1 -->
<g id="Node000001" class="node">
<title>Node1</title>
<g id="a_Node000001"><a xlink:title=" ">
<polygon fill="#999999" stroke="#666666" points="1112,-217 1002,-217 1002,-187 1112,-187 1112,-217"/>
<text text-anchor="start" x="1010" y="-205" font-family="Helvetica,sans-Serif" font-size="10.00">src/engine/vehicles</text>
<text text-anchor="middle" x="1057" y="-194" font-family="Helvetica,sans-Serif" font-size="10.00">/Train.h</text>
</a>
</g>
</g>
<!-- Node2 -->
<g id="Node000002" class="node">
<title>Node2</title>
<g id="a_Node000002"><a xlink:href="AllActors_8h.html" target="_top" xlink:title=" ">
<polygon fill="white" stroke="#666666" points="379,-145.5 257,-145.5 257,-126.5 379,-126.5 379,-145.5"/>
<text text-anchor="middle" x="318" y="-133.5" font-family="Helvetica,sans-Serif" font-size="10.00">src/engine/AllActors.h</text>
</a>
</g>
</g>
<!-- Node1&#45;&gt;Node2 -->
<g id="edge1_Node000001_Node000002" class="edge">
<title>Node1&#45;&gt;Node2</title>
<g id="a_edge1_Node000001_Node000002"><a xlink:title=" ">
<path fill="none" stroke="#63b8ff" d="M991.56,-198.78C871.48,-194.11 608.05,-181.11 388,-151 377.69,-149.59 366.6,-147.6 356.37,-145.56"/>
<polygon fill="#63b8ff" stroke="#63b8ff" points="991.56,-202.28 1001.69,-199.16 991.83,-195.28 991.56,-202.28"/>
</a>
</g>
</g>
<!-- Node8 -->
<g id="Node000008" class="node">
<title>Node8</title>
<g id="a_Node000008"><a xlink:href="Smoke_8cpp.html" target="_top" xlink:title=" ">
<polygon fill="white" stroke="#666666" points="520.5,-145.5 397.5,-145.5 397.5,-126.5 520.5,-126.5 520.5,-145.5"/>
<text text-anchor="middle" x="459" y="-133.5" font-family="Helvetica,sans-Serif" font-size="10.00">src/engine/Smoke.cpp</text>
</a>
</g>
</g>
<!-- Node1&#45;&gt;Node8 -->
<g id="edge8_Node000001_Node000008" class="edge">
<title>Node1&#45;&gt;Node8</title>
<g id="a_edge8_Node000001_Node000008"><a xlink:title=" ">
<path fill="none" stroke="#63b8ff" d="M991.41,-196.97C891.32,-190.33 694.63,-175.34 529,-151 518.95,-149.52 508.15,-147.56 498.12,-145.56"/>
<polygon fill="#63b8ff" stroke="#63b8ff" points="991.46,-200.48 1001.67,-197.64 991.92,-193.49 991.46,-200.48"/>
</a>
</g>
</g>
<!-- Node9 -->
<g id="Node000009" class="node">
<title>Node9</title>
<g id="a_Node000009"><a xlink:href="TrainCrossing_8cpp.html" target="_top" xlink:title=" ">
<polygon fill="white" stroke="#666666" points="693.5,-145.5 538.5,-145.5 538.5,-126.5 693.5,-126.5 693.5,-145.5"/>
<text text-anchor="middle" x="616" y="-133.5" font-family="Helvetica,sans-Serif" font-size="10.00">src/engine/TrainCrossing.cpp</text>
</a>
</g>
</g>
<!-- Node1&#45;&gt;Node9 -->
<g id="edge9_Node000001_Node000009" class="edge">
<title>Node1&#45;&gt;Node9</title>
<g id="a_edge9_Node000001_Node000009"><a xlink:title=" ">
<path fill="none" stroke="#63b8ff" d="M991.74,-192.24C920.48,-182.57 803.03,-166.34 702,-151 690.78,-149.3 678.76,-147.39 667.36,-145.55"/>
<polygon fill="#63b8ff" stroke="#63b8ff" points="991.53,-195.74 1001.91,-193.61 992.47,-188.8 991.53,-195.74"/>
</a>
</g>
</g>
<!-- Node10 -->
<g id="Node000010" class="node">
<title>Node10</title>
<g id="a_Node000010"><a xlink:href="SceneManager_8cpp.html" target="_top" xlink:title=" ">
<polygon fill="white" stroke="#666666" points="904.5,-145.5 711.5,-145.5 711.5,-126.5 904.5,-126.5 904.5,-145.5"/>
<text text-anchor="middle" x="808" y="-133.5" font-family="Helvetica,sans-Serif" font-size="10.00">src/engine/editor/SceneManager.cpp</text>
</a>
</g>
</g>
<!-- Node1&#45;&gt;Node10 -->
<g id="edge10_Node000001_Node000010" class="edge">
<title>Node1&#45;&gt;Node10</title>
<g id="a_edge10_Node000001_Node000010"><a xlink:title=" ">
<path fill="none" stroke="#63b8ff" d="M992.58,-184.44C944.11,-171.98 879.65,-155.42 841.14,-145.52"/>
<polygon fill="#63b8ff" stroke="#63b8ff" points="991.8,-187.86 1002.36,-186.95 993.54,-181.08 991.8,-187.86"/>
</a>
</g>
</g>
<!-- Node11 -->
<g id="Node000011" class="node">
<title>Node11</title>
<g id="a_Node000011"><a xlink:href="Harbour_8cpp.html" target="_top" xlink:title=" ">
<polygon fill="white" stroke="#666666" points="1083.5,-145.5 922.5,-145.5 922.5,-126.5 1083.5,-126.5 1083.5,-145.5"/>
<text text-anchor="middle" x="1003" y="-133.5" font-family="Helvetica,sans-Serif" font-size="10.00">src/engine/tracks/Harbour.cpp</text>
</a>
</g>
</g>
<!-- Node1&#45;&gt;Node11 -->
<g id="edge11_Node000001_Node000011" class="edge">
<title>Node1&#45;&gt;Node11</title>
<g id="a_edge11_Node000001_Node000011"><a xlink:title=" ">
<path fill="none" stroke="#63b8ff" d="M1038.39,-178.94C1028.8,-167.58 1017.65,-154.36 1010.46,-145.84"/>
<polygon fill="#63b8ff" stroke="#63b8ff" points="1035.89,-181.41 1045.02,-186.8 1041.24,-176.9 1035.89,-181.41"/>
</a>
</g>
</g>
<!-- Node12 -->
<g id="Node000012" class="node">
<title>Node12</title>
<g id="a_Node000012"><a xlink:href="KalimariDesert_8cpp.html" target="_top" xlink:title=" ">
<polygon fill="white" stroke="#666666" points="1162,-85 1018,-85 1018,-55 1162,-55 1162,-85"/>
<text text-anchor="start" x="1026" y="-73" font-family="Helvetica,sans-Serif" font-size="10.00">src/engine/tracks/Kalimari</text>
<text text-anchor="middle" x="1090" y="-62" font-family="Helvetica,sans-Serif" font-size="10.00">Desert.cpp</text>
</a>
</g>
</g>
<!-- Node1&#45;&gt;Node12 -->
<g id="edge12_Node000001_Node000012" class="edge">
<title>Node1&#45;&gt;Node12</title>
<g id="a_edge12_Node000001_Node000012"><a xlink:title=" ">
<path fill="none" stroke="#63b8ff" d="M1077.54,-178.76C1083.76,-170.64 1089.78,-160.97 1093,-151 1100.13,-128.91 1096.68,-101.6 1093.42,-85.27"/>
<polygon fill="#63b8ff" stroke="#63b8ff" points="1074.73,-176.67 1071.11,-186.63 1080.15,-181.11 1074.73,-176.67"/>
</a>
</g>
</g>
<!-- Node13 -->
<g id="Node000013" class="node">
<title>Node13</title>
<g id="a_Node000013"><a xlink:href="KalimariDesert_8h.html" target="_top" xlink:title=" ">
<polygon fill="white" stroke="#666666" points="1284,-151 1140,-151 1140,-121 1284,-121 1284,-151"/>
<text text-anchor="start" x="1148" y="-139" font-family="Helvetica,sans-Serif" font-size="10.00">src/engine/tracks/Kalimari</text>
<text text-anchor="middle" x="1212" y="-128" font-family="Helvetica,sans-Serif" font-size="10.00">Desert.h</text>
</a>
</g>
</g>
<!-- Node1&#45;&gt;Node13 -->
<g id="edge13_Node000001_Node000013" class="edge">
<title>Node1&#45;&gt;Node13</title>
<g id="a_edge13_Node000001_Node000013"><a xlink:title=" ">
<path fill="none" stroke="#63b8ff" d="M1100.46,-183.05C1125.02,-172.91 1155.27,-160.43 1178.06,-151.01"/>
<polygon fill="#63b8ff" stroke="#63b8ff" points="1098.92,-179.9 1091.02,-186.95 1101.59,-186.37 1098.92,-179.9"/>
</a>
</g>
</g>
<!-- Node16 -->
<g id="Node000016" class="node">
<title>Node16</title>
<g id="a_Node000016"><a xlink:href="TestTrack_8cpp.html" target="_top" xlink:title=" ">
<polygon fill="white" stroke="#666666" points="1470,-145.5 1302,-145.5 1302,-126.5 1470,-126.5 1470,-145.5"/>
<text text-anchor="middle" x="1386" y="-133.5" font-family="Helvetica,sans-Serif" font-size="10.00">src/engine/tracks/TestTrack.cpp</text>
</a>
</g>
</g>
<!-- Node1&#45;&gt;Node16 -->
<g id="edge17_Node000001_Node000016" class="edge">
<title>Node1&#45;&gt;Node16</title>
<g id="a_edge17_Node000001_Node000016"><a xlink:title=" ">
<path fill="none" stroke="#63b8ff" d="M1122.23,-188.31C1187.37,-175.64 1285.7,-156.51 1342.09,-145.54"/>
<polygon fill="#63b8ff" stroke="#63b8ff" points="1121.21,-184.94 1112.07,-190.29 1122.55,-191.81 1121.21,-184.94"/>
</a>
</g>
</g>
<!-- Node17 -->
<g id="Node000017" class="node">
<title>Node17</title>
<g id="a_Node000017"><a xlink:href="Train_8cpp.html" target="_top" xlink:title=" ">
<polygon fill="white" stroke="#666666" points="1598,-151 1488,-151 1488,-121 1598,-121 1598,-151"/>
<text text-anchor="start" x="1496" y="-139" font-family="Helvetica,sans-Serif" font-size="10.00">src/engine/vehicles</text>
<text text-anchor="middle" x="1543" y="-128" font-family="Helvetica,sans-Serif" font-size="10.00">/Train.cpp</text>
</a>
</g>
</g>
<!-- Node1&#45;&gt;Node17 -->
<g id="edge18_Node000001_Node000017" class="edge">
<title>Node1&#45;&gt;Node17</title>
<g id="a_edge18_Node000001_Node000017"><a xlink:title=" ">
<path fill="none" stroke="#63b8ff" d="M1122.27,-195.26C1205.43,-187.48 1353.46,-172.12 1479,-151 1481.92,-150.51 1484.9,-149.97 1487.91,-149.41"/>
<polygon fill="#63b8ff" stroke="#63b8ff" points="1121.84,-191.78 1112.21,-196.19 1122.49,-198.75 1121.84,-191.78"/>
</a>
</g>
</g>
<!-- Node18 -->
<g id="Node000018" class="node">
<title>Node18</title>
<g id="a_Node000018"><a xlink:href="Properties_8cpp.html" target="_top" xlink:title=" ">
<polygon fill="white" stroke="#666666" points="1754,-145.5 1616,-145.5 1616,-126.5 1754,-126.5 1754,-145.5"/>
<text text-anchor="middle" x="1685" y="-133.5" font-family="Helvetica,sans-Serif" font-size="10.00">src/port/ui/Properties.cpp</text>
</a>
</g>
</g>
<!-- Node1&#45;&gt;Node18 -->
<g id="edge19_Node000001_Node000018" class="edge">
<title>Node1&#45;&gt;Node18</title>
<g id="a_edge19_Node000001_Node000018"><a xlink:title=" ">
<path fill="none" stroke="#63b8ff" d="M1122.48,-196.9C1225.77,-190.01 1432.69,-174.52 1607,-151 1618.18,-149.49 1630.2,-147.51 1641.38,-145.52"/>
<polygon fill="#63b8ff" stroke="#63b8ff" points="1121.96,-193.42 1112.21,-197.58 1122.42,-200.41 1121.96,-193.42"/>
</a>
</g>
</g>
<!-- Node3 -->
<g id="Node000003" class="node">
<title>Node3</title>
<g id="a_Node000003"><a xlink:href="RaceManager_8cpp.html" target="_top" xlink:title=" ">
<polygon fill="white" stroke="#666666" points="156,-79.5 0,-79.5 0,-60.5 156,-60.5 156,-79.5"/>
<text text-anchor="middle" x="78" y="-67.5" font-family="Helvetica,sans-Serif" font-size="10.00">src/engine/RaceManager.cpp</text>
</a>
</g>
</g>
<!-- Node2&#45;&gt;Node3 -->
<g id="edge2_Node000002_Node000003" class="edge">
<title>Node2&#45;&gt;Node3</title>
<g id="a_edge2_Node000002_Node000003"><a xlink:title=" ">
<path fill="none" stroke="#63b8ff" d="M275.71,-123.72C228.45,-111.12 152.96,-90.99 110.24,-79.6"/>
<polygon fill="#63b8ff" stroke="#63b8ff" points="275.07,-127.17 285.63,-126.37 276.87,-120.41 275.07,-127.17"/>
</a>
</g>
</g>
<!-- Node4 -->
<g id="Node000004" class="node">
<title>Node4</title>
<g id="a_Node000004"><a xlink:href="RegisteredActors_8cpp.html" target="_top" xlink:title=" ">
<polygon fill="white" stroke="#666666" points="347.5,-79.5 174.5,-79.5 174.5,-60.5 347.5,-60.5 347.5,-79.5"/>
<text text-anchor="middle" x="261" y="-67.5" font-family="Helvetica,sans-Serif" font-size="10.00">src/engine/RegisteredActors.cpp</text>
</a>
</g>
</g>
<!-- Node2&#45;&gt;Node4 -->
<g id="edge3_Node000002_Node000004" class="edge">
<title>Node2&#45;&gt;Node4</title>
<g id="a_edge3_Node000002_Node000004"><a xlink:title=" ">
<path fill="none" stroke="#63b8ff" d="M303.41,-118.62C292.44,-106.31 277.83,-89.89 268.93,-79.91"/>
<polygon fill="#63b8ff" stroke="#63b8ff" points="301.05,-121.23 310.31,-126.37 306.28,-116.57 301.05,-121.23"/>
</a>
</g>
</g>
<!-- Node5 -->
<g id="Node000005" class="node">
<title>Node5</title>
<g id="a_Node000005"><a xlink:href="ContentBrowser_8cpp.html" target="_top" xlink:title=" ">
<polygon fill="white" stroke="#666666" points="459,-19 293,-19 293,0 459,0 459,-19"/>
<text text-anchor="middle" x="376" y="-7" font-family="Helvetica,sans-Serif" font-size="10.00">src/port/ui/ContentBrowser.cpp</text>
</a>
</g>
</g>
<!-- Node2&#45;&gt;Node5 -->
<g id="edge4_Node000002_Node000005" class="edge">
<title>Node2&#45;&gt;Node5</title>
<g id="a_edge4_Node000002_Node000005"><a xlink:title=" ">
<path fill="none" stroke="#63b8ff" d="M332.85,-118.86C340.71,-109.55 349.97,-97.29 356,-85 366.97,-62.64 372.56,-33.44 374.79,-19.15"/>
<polygon fill="#63b8ff" stroke="#63b8ff" points="330.11,-116.67 326.14,-126.49 335.37,-121.29 330.11,-116.67"/>
</a>
</g>
</g>
<!-- Node6 -->
<g id="Node000006" class="node">
<title>Node6</title>
<g id="a_Node000006"><a xlink:href="ContentBrowser_8h.html" target="_top" xlink:title=" ">
<polygon fill="white" stroke="#666666" points="559.5,-79.5 404.5,-79.5 404.5,-60.5 559.5,-60.5 559.5,-79.5"/>
<text text-anchor="middle" x="482" y="-67.5" font-family="Helvetica,sans-Serif" font-size="10.00">src/port/ui/ContentBrowser.h</text>
</a>
</g>
</g>
<!-- Node2&#45;&gt;Node6 -->
<g id="edge5_Node000002_Node000006" class="edge">
<title>Node2&#45;&gt;Node6</title>
<g id="a_edge5_Node000002_Node000006"><a xlink:title=" ">
<path fill="none" stroke="#63b8ff" d="M349.58,-122.68C381.99,-110.03 431.57,-90.68 459.97,-79.6"/>
<polygon fill="#63b8ff" stroke="#63b8ff" points="348.16,-119.47 340.12,-126.37 350.71,-125.99 348.16,-119.47"/>
</a>
</g>
</g>
<!-- Node6&#45;&gt;Node5 -->
<g id="edge6_Node000006_Node000005" class="edge">
<title>Node6&#45;&gt;Node5</title>
<g id="a_edge6_Node000006_Node000005"><a xlink:title=" ">
<path fill="none" stroke="#63b8ff" d="M457.4,-55.42C437.14,-44.24 409.03,-28.73 391.7,-19.17"/>
<polygon fill="#63b8ff" stroke="#63b8ff" points="455.91,-58.6 466.36,-60.37 459.3,-52.47 455.91,-58.6"/>
</a>
</g>
</g>
<!-- Node7 -->
<g id="Node000007" class="node">
<title>Node7</title>
<g id="a_Node000007"><a xlink:href="ImguiUI_8cpp.html" target="_top" xlink:title=" ">
<polygon fill="white" stroke="#666666" points="604.5,-19 477.5,-19 477.5,0 604.5,0 604.5,-19"/>
<text text-anchor="middle" x="541" y="-7" font-family="Helvetica,sans-Serif" font-size="10.00">src/port/ui/ImguiUI.cpp</text>
</a>
</g>
</g>
<!-- Node6&#45;&gt;Node7 -->
<g id="edge7_Node000006_Node000007" class="edge">
<title>Node6&#45;&gt;Node7</title>
<g id="a_edge7_Node000006_Node000007"><a xlink:title=" ">
<path fill="none" stroke="#63b8ff" d="M498.05,-53.09C509.06,-42.17 523.27,-28.08 532.26,-19.17"/>
<polygon fill="#63b8ff" stroke="#63b8ff" points="495.34,-50.84 490.71,-60.37 500.27,-55.81 495.34,-50.84"/>
</a>
</g>
</g>
<!-- Node13&#45;&gt;Node12 -->
<g id="edge14_Node000013_Node000012" class="edge">
<title>Node13&#45;&gt;Node12</title>
<g id="a_edge14_Node000013_Node000012"><a xlink:title=" ">
<path fill="none" stroke="#63b8ff" d="M1176.24,-116.24C1157.2,-106.25 1134.18,-94.18 1116.71,-85.01"/>
<polygon fill="#63b8ff" stroke="#63b8ff" points="1174.75,-119.41 1185.23,-120.95 1178,-113.21 1174.75,-119.41"/>
</a>
</g>
</g>
<!-- Node14 -->
<g id="Node000014" class="node">
<title>Node14</title>
<g id="a_Node000014"><a xlink:href="Game_8cpp.html" target="_top" xlink:title=" ">
<polygon fill="white" stroke="#666666" points="1286,-79.5 1180,-79.5 1180,-60.5 1286,-60.5 1286,-79.5"/>
<text text-anchor="middle" x="1233" y="-67.5" font-family="Helvetica,sans-Serif" font-size="10.00">src/port/Game.cpp</text>
</a>
</g>
</g>
<!-- Node13&#45;&gt;Node14 -->
<g id="edge15_Node000013_Node000014" class="edge">
<title>Node13&#45;&gt;Node14</title>
<g id="a_edge15_Node000013_Node000014"><a xlink:title=" ">
<path fill="none" stroke="#63b8ff" d="M1219.78,-111.28C1223.38,-100.31 1227.44,-87.94 1230.1,-79.84"/>
<polygon fill="#63b8ff" stroke="#63b8ff" points="1216.45,-110.2 1216.66,-120.8 1223.1,-112.39 1216.45,-110.2"/>
</a>
</g>
</g>
<!-- Node15 -->
<g id="Node000015" class="node">
<title>Node15</title>
<g id="a_Node000015"><a xlink:href="PortMenu_8cpp.html" target="_top" xlink:title=" ">
<polygon fill="white" stroke="#666666" points="1439.5,-79.5 1304.5,-79.5 1304.5,-60.5 1439.5,-60.5 1439.5,-79.5"/>
<text text-anchor="middle" x="1372" y="-67.5" font-family="Helvetica,sans-Serif" font-size="10.00">src/port/ui/PortMenu.cpp</text>
</a>
</g>
</g>
<!-- Node13&#45;&gt;Node15 -->
<g id="edge16_Node000013_Node000015" class="edge">
<title>Node13&#45;&gt;Node15</title>
<g id="a_edge16_Node000013_Node000015"><a xlink:title=" ">
<path fill="none" stroke="#63b8ff" d="M1256.75,-117.1C1287.46,-104.82 1326.84,-89.06 1350.71,-79.52"/>
<polygon fill="#63b8ff" stroke="#63b8ff" points="1255.1,-113.99 1247.11,-120.95 1257.7,-120.49 1255.1,-113.99"/>
</a>
</g>
</g>
</g>
</svg>

<g id="navigator" transform="translate(0 0)" fill="#404254">
  <rect fill="#f2f5e9" fill-opacity="0.5" stroke="#606060" stroke-width=".5" x="0" y="0" width="60" height="60"/>
  <use id="zoomplus" xlink:href="#zoomPlus" x="17" y="9" onmousedown="handleZoom(evt,'in')"/>
  <use id="zoomminus" xlink:href="#zoomMin" x="42" y="9" onmousedown="handleZoom(evt,'out')"/>
  <use id="reset" xlink:href="#resetDef" x="30" y="36" onmousedown="handleReset()"/>
   <use id="arrowup" xlink:href="#arrowUp" x="0" y="0" onmousedown="handlePan(0,-1)"/>
  <use id="arrowright" xlink:href="#arrowRight" x="0" y="0" onmousedown="handlePan(1,0)"/>
  <use id="arrowdown" xlink:href="#arrowDown" x="0" y="0" onmousedown="handlePan(0,1)"/>
  <use id="arrowleft" xlink:href="#arrowLeft" x="0" y="0" onmousedown="handlePan(-1,0)"/>
</g>
<svg viewBox="0 0 15 15" width="100%" height="30px" preserveAspectRatio="xMaxYMin meet">
 <g id="arrow_out" transform="scale(0.3 0.3)">
  <a xlink:href="Train_8h__dep__incl_org.svg" target="_base">
   <rect id="button" ry="5" rx="5" y="6" x="6" height="38" width="38"
        fill="#f2f5e9" fill-opacity="0.5" stroke="#606060" stroke-width="1.0"/>
   <path id="arrow"
     d="M 11.500037,31.436501 C 11.940474,20.09759 22.043105,11.32322 32.158766,21.979434 L 37.068811,17.246167 C 37.068811,17.246167 37.088388,32 37.088388,32 L 22.160133,31.978069 C 22.160133,31.978069 26.997745,27.140456 26.997745,27.140456 C 18.528582,18.264221 13.291696,25.230495 11.500037,31.436501 z"
     style="fill:#404040;"/>
  </a>
 </g>
</svg>

<style type='text/css'>
<![CDATA[
[data-mouse-over-selected='false'] { opacity: 0.7; }
[data-mouse-over-selected='true']  { opacity: 1.0; }
]]>
</style>
<script type="application/ecmascript"><![CDATA[
document.addEventListener('DOMContentLoaded', (event) => {
  highlightEdges();
  highlightAdjacentNodes();
});
]]></script>
</svg>
