<?xml version="1.0" encoding="UTF-8" standalone="no"?>
<!DOCTYPE svg PUBLIC "-//W3C//DTD SVG 1.1//EN"
 "http://www.w3.org/Graphics/SVG/1.1/DTD/svg11.dtd">
<!-- Generated by graphviz version 2.43.0 (0)
 -->
<!-- Title: src/engine/objects/TrashBin.h Pages: 1 -->
<svg width="1039pt" height="214pt"
 viewBox="0.00 0.00 1039.00 214.00" xmlns="http://www.w3.org/2000/svg" xmlns:xlink="http://www.w3.org/1999/xlink">
<g id="graph0" class="graph" transform="scale(1 1) rotate(0) translate(4 210)">
<title>src/engine/objects/TrashBin.h</title>
<!-- Node1 -->
<g id="Node000001" class="node">
<title>Node1</title>
<g id="a_Node000001"><a xlink:title=" ">
<polygon fill="#999999" stroke="#666666" points="645.5,-206 540.5,-206 540.5,-176 645.5,-176 645.5,-206"/>
<text text-anchor="start" x="548.5" y="-194" font-family="Helvetica,sans-Serif" font-size="10.00">src/engine/objects</text>
<text text-anchor="middle" x="593" y="-183" font-family="Helvetica,sans-Serif" font-size="10.00">/TrashBin.h</text>
</a>
</g>
</g>
<!-- Node2 -->
<g id="Node000002" class="node">
<title>Node2</title>
<g id="a_Node000002"><a xlink:href="AllActors_8h.html" target="_top" xlink:title=" ">
<polygon fill="white" stroke="#666666" points="379,-134.5 257,-134.5 257,-115.5 379,-115.5 379,-134.5"/>
<text text-anchor="middle" x="318" y="-122.5" font-family="Helvetica,sans-Serif" font-size="10.00">src/engine/AllActors.h</text>
</a>
</g>
</g>
<!-- Node1&#45;&gt;Node2 -->
<g id="edge1_Node000001_Node000002" class="edge">
<title>Node1&#45;&gt;Node2</title>
<g id="a_edge1_Node000001_Node000002"><a xlink:title=" ">
<path fill="none" stroke="#63b8ff" d="M530.45,-175.44C476.21,-162.82 399.56,-144.98 354.7,-134.54"/>
<polygon fill="#63b8ff" stroke="#63b8ff" points="529.77,-178.88 540.3,-177.74 531.36,-172.06 529.77,-178.88"/>
</a>
</g>
</g>
<!-- Node8 -->
<g id="Node000008" class="node">
<title>Node8</title>
<g id="a_Node000008"><a xlink:href="TrashBin_8cpp.html" target="_top" xlink:title=" ">
<polygon fill="white" stroke="#666666" points="502.5,-140 397.5,-140 397.5,-110 502.5,-110 502.5,-140"/>
<text text-anchor="start" x="405.5" y="-128" font-family="Helvetica,sans-Serif" font-size="10.00">src/engine/objects</text>
<text text-anchor="middle" x="450" y="-117" font-family="Helvetica,sans-Serif" font-size="10.00">/TrashBin.cpp</text>
</a>
</g>
</g>
<!-- Node1&#45;&gt;Node8 -->
<g id="edge8_Node000001_Node000008" class="edge">
<title>Node1&#45;&gt;Node8</title>
<g id="a_edge8_Node000001_Node000008"><a xlink:title=" ">
<path fill="none" stroke="#63b8ff" d="M552.3,-171.78C529.75,-161.69 502.16,-149.34 481.31,-140.01"/>
<polygon fill="#63b8ff" stroke="#63b8ff" points="551.06,-175.06 561.62,-175.95 553.92,-168.68 551.06,-175.06"/>
</a>
</g>
</g>
<!-- Node9 -->
<g id="Node000009" class="node">
<title>Node9</title>
<g id="a_Node000009"><a xlink:href="BansheeBoardwalk_8cpp.html" target="_top" xlink:title=" ">
<polygon fill="white" stroke="#666666" points="665.5,-140 520.5,-140 520.5,-110 665.5,-110 665.5,-140"/>
<text text-anchor="start" x="528.5" y="-128" font-family="Helvetica,sans-Serif" font-size="10.00">src/engine/tracks/Banshee</text>
<text text-anchor="middle" x="593" y="-117" font-family="Helvetica,sans-Serif" font-size="10.00">Boardwalk.cpp</text>
</a>
</g>
</g>
<!-- Node1&#45;&gt;Node9 -->
<g id="edge9_Node000001_Node000009" class="edge">
<title>Node1&#45;&gt;Node9</title>
<g id="a_edge9_Node000001_Node000009"><a xlink:title=" ">
<path fill="none" stroke="#63b8ff" d="M593,-165.54C593,-156.96 593,-147.61 593,-140.16"/>
<polygon fill="#63b8ff" stroke="#63b8ff" points="589.5,-165.8 593,-175.8 596.5,-165.8 589.5,-165.8"/>
</a>
</g>
</g>
<!-- Node10 -->
<g id="Node000010" class="node">
<title>Node10</title>
<g id="a_Node000010"><a xlink:href="Harbour_8cpp.html" target="_top" xlink:title=" ">
<polygon fill="white" stroke="#666666" points="844.5,-134.5 683.5,-134.5 683.5,-115.5 844.5,-115.5 844.5,-134.5"/>
<text text-anchor="middle" x="764" y="-122.5" font-family="Helvetica,sans-Serif" font-size="10.00">src/engine/tracks/Harbour.cpp</text>
</a>
</g>
</g>
<!-- Node1&#45;&gt;Node10 -->
<g id="edge10_Node000001_Node000010" class="edge">
<title>Node1&#45;&gt;Node10</title>
<g id="a_edge10_Node000001_Node000010"><a xlink:title=" ">
<path fill="none" stroke="#63b8ff" d="M639.98,-172.42C672.92,-160.09 715.51,-144.15 741.24,-134.52"/>
<polygon fill="#63b8ff" stroke="#63b8ff" points="638.67,-169.17 630.53,-175.95 641.12,-175.73 638.67,-169.17"/>
</a>
</g>
</g>
<!-- Node11 -->
<g id="Node000011" class="node">
<title>Node11</title>
<g id="a_Node000011"><a xlink:href="TestTrack_8cpp.html" target="_top" xlink:title=" ">
<polygon fill="white" stroke="#666666" points="1031,-134.5 863,-134.5 863,-115.5 1031,-115.5 1031,-134.5"/>
<text text-anchor="middle" x="947" y="-122.5" font-family="Helvetica,sans-Serif" font-size="10.00">src/engine/tracks/TestTrack.cpp</text>
</a>
</g>
</g>
<!-- Node1&#45;&gt;Node11 -->
<g id="edge11_Node000001_Node000011" class="edge">
<title>Node1&#45;&gt;Node11</title>
<g id="a_edge11_Node000001_Node000011"><a xlink:title=" ">
<path fill="none" stroke="#63b8ff" d="M655.61,-178.68C725.45,-166.05 836.87,-145.91 899.76,-134.54"/>
<polygon fill="#63b8ff" stroke="#63b8ff" points="654.83,-175.26 645.62,-180.49 656.08,-182.15 654.83,-175.26"/>
</a>
</g>
</g>
<!-- Node3 -->
<g id="Node000003" class="node">
<title>Node3</title>
<g id="a_Node000003"><a xlink:href="RaceManager_8cpp.html" target="_top" xlink:title=" ">
<polygon fill="white" stroke="#666666" points="156,-74 0,-74 0,-55 156,-55 156,-74"/>
<text text-anchor="middle" x="78" y="-62" font-family="Helvetica,sans-Serif" font-size="10.00">src/engine/RaceManager.cpp</text>
</a>
</g>
</g>
<!-- Node2&#45;&gt;Node3 -->
<g id="edge2_Node000002_Node000003" class="edge">
<title>Node2&#45;&gt;Node3</title>
<g id="a_edge2_Node000002_Node000003"><a xlink:title=" ">
<path fill="none" stroke="#63b8ff" d="M273.32,-113.11C226.94,-101.8 155.35,-84.35 112.94,-74.02"/>
<polygon fill="#63b8ff" stroke="#63b8ff" points="272.56,-116.53 283.1,-115.49 274.22,-109.72 272.56,-116.53"/>
</a>
</g>
</g>
<!-- Node4 -->
<g id="Node000004" class="node">
<title>Node4</title>
<g id="a_Node000004"><a xlink:href="RegisteredActors_8cpp.html" target="_top" xlink:title=" ">
<polygon fill="white" stroke="#666666" points="347.5,-74 174.5,-74 174.5,-55 347.5,-55 347.5,-74"/>
<text text-anchor="middle" x="261" y="-62" font-family="Helvetica,sans-Serif" font-size="10.00">src/engine/RegisteredActors.cpp</text>
</a>
</g>
</g>
<!-- Node2&#45;&gt;Node4 -->
<g id="edge3_Node000002_Node000004" class="edge">
<title>Node2&#45;&gt;Node4</title>
<g id="a_edge3_Node000002_Node000004"><a xlink:title=" ">
<path fill="none" stroke="#63b8ff" d="M302.5,-108.09C291.85,-97.17 278.13,-83.08 269.45,-74.17"/>
<polygon fill="#63b8ff" stroke="#63b8ff" points="300.1,-110.65 309.59,-115.37 305.12,-105.76 300.1,-110.65"/>
</a>
</g>
</g>
<!-- Node5 -->
<g id="Node000005" class="node">
<title>Node5</title>
<g id="a_Node000005"><a xlink:href="ContentBrowser_8cpp.html" target="_top" xlink:title=" ">
<polygon fill="white" stroke="#666666" points="459,-19 293,-19 293,0 459,0 459,-19"/>
<text text-anchor="middle" x="376" y="-7" font-family="Helvetica,sans-Serif" font-size="10.00">src/port/ui/ContentBrowser.cpp</text>
</a>
</g>
</g>
<!-- Node2&#45;&gt;Node5 -->
<g id="edge4_Node000002_Node000005" class="edge">
<title>Node2&#45;&gt;Node5</title>
<g id="a_edge4_Node000002_Node000005"><a xlink:title=" ">
<path fill="none" stroke="#63b8ff" d="M333.12,-107.85C341.16,-98.55 350.66,-86.28 357,-74 366.5,-55.6 372.04,-31.68 374.48,-19.1"/>
<polygon fill="#63b8ff" stroke="#63b8ff" points="330.35,-105.7 326.28,-115.48 335.56,-110.37 330.35,-105.7"/>
</a>
</g>
</g>
<!-- Node6 -->
<g id="Node000006" class="node">
<title>Node6</title>
<g id="a_Node000006"><a xlink:href="ContentBrowser_8h.html" target="_top" xlink:title=" ">
<polygon fill="white" stroke="#666666" points="559.5,-74 404.5,-74 404.5,-55 559.5,-55 559.5,-74"/>
<text text-anchor="middle" x="482" y="-62" font-family="Helvetica,sans-Serif" font-size="10.00">src/port/ui/ContentBrowser.h</text>
</a>
</g>
</g>
<!-- Node2&#45;&gt;Node6 -->
<g id="edge5_Node000002_Node000006" class="edge">
<title>Node2&#45;&gt;Node6</title>
<g id="a_edge5_Node000002_Node000006"><a xlink:title=" ">
<path fill="none" stroke="#63b8ff" d="M351.57,-112.02C383.28,-100.71 430.05,-84.03 458.12,-74.02"/>
<polygon fill="#63b8ff" stroke="#63b8ff" points="350.09,-108.84 341.85,-115.49 352.44,-115.43 350.09,-108.84"/>
</a>
</g>
</g>
<!-- Node6&#45;&gt;Node5 -->
<g id="edge6_Node000006_Node000005" class="edge">
<title>Node6&#45;&gt;Node5</title>
<g id="a_edge6_Node000006_Node000005"><a xlink:title=" ">
<path fill="none" stroke="#63b8ff" d="M456,-50.5C436.5,-40.75 410.35,-27.68 393.34,-19.17"/>
<polygon fill="#63b8ff" stroke="#63b8ff" points="454.46,-53.64 464.97,-54.98 457.59,-47.38 454.46,-53.64"/>
</a>
</g>
</g>
<!-- Node7 -->
<g id="Node000007" class="node">
<title>Node7</title>
<g id="a_Node000007"><a xlink:href="ImguiUI_8cpp.html" target="_top" xlink:title=" ">
<polygon fill="white" stroke="#666666" points="604.5,-19 477.5,-19 477.5,0 604.5,0 604.5,-19"/>
<text text-anchor="middle" x="541" y="-7" font-family="Helvetica,sans-Serif" font-size="10.00">src/port/ui/ImguiUI.cpp</text>
</a>
</g>
</g>
<!-- Node6&#45;&gt;Node7 -->
<g id="edge7_Node000006_Node000007" class="edge">
<title>Node6&#45;&gt;Node7</title>
<g id="a_edge7_Node000006_Node000007"><a xlink:title=" ">
<path fill="none" stroke="#63b8ff" d="M499.2,-48.04C509.67,-38.64 522.65,-26.98 531.35,-19.17"/>
<polygon fill="#63b8ff" stroke="#63b8ff" points="496.58,-45.7 491.48,-54.98 501.26,-50.91 496.58,-45.7"/>
</a>
</g>
</g>
</g>
</svg>
