<?xml version="1.0" encoding="UTF-8" standalone="no"?>
<!DOCTYPE svg PUBLIC "-//W3C//DTD SVG 1.1//EN"
 "http://www.w3.org/Graphics/SVG/1.1/DTD/svg11.dtd">
<!-- Generated by graphviz version 2.43.0 (0)
 -->
<!-- Title: func_80073B78 Pages: 1 -->
<svg width="802pt" height="175pt"
 viewBox="0.00 0.00 802.00 175.00" xmlns="http://www.w3.org/2000/svg" xmlns:xlink="http://www.w3.org/1999/xlink">
<g id="graph0" class="graph" transform="scale(1 1) rotate(0) translate(4 171)">
<title>func_80073B78</title>
<!-- Node1 -->
<g id="Node000001" class="node">
<title>Node1</title>
<g id="a_Node000001"><a xlink:title=" ">
<polygon fill="#999999" stroke="#666666" points="794,-56 702,-56 702,-37 794,-37 794,-56"/>
<text text-anchor="middle" x="748" y="-44" font-family="Helvetica,sans-Serif" font-size="10.00">func_80073B78</text>
</a>
</g>
</g>
<!-- Node2 -->
<g id="Node000002" class="node">
<title>Node2</title>
<g id="a_Node000002"><a xlink:href="update__objects_8c.html#ac31769d6520eb620744212bb98a35c67" target="_top" xlink:title=" ">
<polygon fill="white" stroke="#666666" points="634.5,-93 542.5,-93 542.5,-74 634.5,-74 634.5,-93"/>
<text text-anchor="middle" x="588.5" y="-81" font-family="Helvetica,sans-Serif" font-size="10.00">func_80073CB0</text>
</a>
</g>
</g>
<!-- Node1&#45;&gt;Node2 -->
<g id="edge1_Node000001_Node000002" class="edge">
<title>Node1&#45;&gt;Node2</title>
<g id="a_edge1_Node000001_Node000002"><a xlink:title=" ">
<path fill="none" stroke="#63b8ff" d="M696.53,-58.36C675.09,-63.39 650.44,-69.18 630.2,-73.94"/>
<polygon fill="#63b8ff" stroke="#63b8ff" points="697.51,-61.72 706.44,-56.03 695.9,-54.91 697.51,-61.72"/>
</a>
</g>
</g>
<!-- Node10 -->
<g id="Node000010" class="node">
<title>Node10</title>
<g id="a_Node000010"><a xlink:href="classOSnowman.html#ab008c50a3a4d6607147b0a5d07d65693" target="_top" xlink:title=" ">
<polygon fill="white" stroke="#666666" points="666,-38 511,-38 511,-19 666,-19 666,-38"/>
<text text-anchor="middle" x="588.5" y="-26" font-family="Helvetica,sans-Serif" font-size="10.00">OSnowman::func_80073D0C</text>
</a>
</g>
</g>
<!-- Node1&#45;&gt;Node10 -->
<g id="edge9_Node000001_Node000010" class="edge">
<title>Node1&#45;&gt;Node10</title>
<g id="a_edge9_Node000001_Node000010"><a xlink:title=" ">
<path fill="none" stroke="#63b8ff" d="M691.92,-40.21C683.58,-39.25 674.86,-38.26 666.17,-37.26"/>
<polygon fill="#63b8ff" stroke="#63b8ff" points="691.53,-43.68 701.87,-41.34 692.33,-36.73 691.53,-43.68"/>
</a>
</g>
</g>
<!-- Node3 -->
<g id="Node000003" class="node">
<title>Node3</title>
<g id="a_Node000003"><a xlink:href="classOBoos.html#a5483474ae266b13f26f36898ac4e6b35" target="_top" xlink:title=" ">
<polygon fill="white" stroke="#666666" points="463.5,-167 334.5,-167 334.5,-148 463.5,-148 463.5,-167"/>
<text text-anchor="middle" x="399" y="-155" font-family="Helvetica,sans-Serif" font-size="10.00">OBoos::func_8007C684</text>
</a>
</g>
</g>
<!-- Node2&#45;&gt;Node3 -->
<g id="edge2_Node000002_Node000003" class="edge">
<title>Node2&#45;&gt;Node3</title>
<g id="a_edge2_Node000002_Node000003"><a xlink:title=" ">
<path fill="none" stroke="#63b8ff" d="M562.43,-98.05C540.09,-110.49 506.22,-128.15 475,-139.5 466.06,-142.75 456.32,-145.58 446.89,-147.98"/>
<polygon fill="#63b8ff" stroke="#63b8ff" points="564.26,-101.03 571.25,-93.06 560.82,-94.93 564.26,-101.03"/>
</a>
</g>
</g>
<!-- Node5 -->
<g id="Node000005" class="node">
<title>Node5</title>
<g id="a_Node000005"><a xlink:href="update__objects_8c.html#a73baf566f784645307e6515a2528537d" target="_top" xlink:title=" ">
<polygon fill="white" stroke="#666666" points="446,-130 352,-130 352,-111 446,-111 446,-130"/>
<text text-anchor="middle" x="399" y="-118" font-family="Helvetica,sans-Serif" font-size="10.00">func_8007CEDC</text>
</a>
</g>
</g>
<!-- Node2&#45;&gt;Node5 -->
<g id="edge4_Node000002_Node000005" class="edge">
<title>Node2&#45;&gt;Node5</title>
<g id="a_edge4_Node000002_Node000005"><a xlink:title=" ">
<path fill="none" stroke="#63b8ff" d="M532.3,-94.39C504.95,-99.79 472.29,-106.23 446.27,-111.37"/>
<polygon fill="#63b8ff" stroke="#63b8ff" points="532.98,-97.83 542.11,-92.46 531.62,-90.96 532.98,-97.83"/>
</a>
</g>
</g>
<!-- Node7 -->
<g id="Node000007" class="node">
<title>Node7</title>
<g id="a_Node000007"><a xlink:href="classOTrashBin.html#a3bfba89c86991d823fdbeb0cb0e65097" target="_top" xlink:title=" ">
<polygon fill="white" stroke="#666666" points="472,-93 326,-93 326,-74 472,-74 472,-93"/>
<text text-anchor="middle" x="399" y="-81" font-family="Helvetica,sans-Serif" font-size="10.00">OTrashBin::func_8007E00C</text>
</a>
</g>
</g>
<!-- Node2&#45;&gt;Node7 -->
<g id="edge6_Node000002_Node000007" class="edge">
<title>Node2&#45;&gt;Node7</title>
<g id="a_edge6_Node000002_Node000007"><a xlink:title=" ">
<path fill="none" stroke="#63b8ff" d="M531.95,-83.5C513.17,-83.5 491.91,-83.5 472.03,-83.5"/>
<polygon fill="#63b8ff" stroke="#63b8ff" points="532.11,-87 542.11,-83.5 532.11,-80 532.11,-87"/>
</a>
</g>
</g>
<!-- Node9 -->
<g id="Node000009" class="node">
<title>Node9</title>
<g id="a_Node000009"><a xlink:href="classOBat.html#ae20ad02992d817ca3c975e94cc6f1b26" target="_top" xlink:title=" ">
<polygon fill="white" stroke="#666666" points="432.5,-56 365.5,-56 365.5,-37 432.5,-37 432.5,-56"/>
<text text-anchor="middle" x="399" y="-44" font-family="Helvetica,sans-Serif" font-size="10.00">OBat::Tick</text>
</a>
</g>
</g>
<!-- Node2&#45;&gt;Node9 -->
<g id="edge8_Node000002_Node000009" class="edge">
<title>Node2&#45;&gt;Node9</title>
<g id="a_edge8_Node000002_Node000009"><a xlink:title=" ">
<path fill="none" stroke="#63b8ff" d="M531.9,-72.53C499.58,-66.15 459.96,-58.33 432.63,-52.94"/>
<polygon fill="#63b8ff" stroke="#63b8ff" points="531.62,-76.04 542.11,-74.54 532.98,-69.17 531.62,-76.04"/>
</a>
</g>
</g>
<!-- Node4 -->
<g id="Node000004" class="node">
<title>Node4</title>
<g id="a_Node000004"><a xlink:href="classOBoos.html#a12c6c9d602befe0bdc7383aa3f3530ed" target="_top" xlink:title=" ">
<polygon fill="white" stroke="#666666" points="247.5,-167 173.5,-167 173.5,-148 247.5,-148 247.5,-167"/>
<text text-anchor="middle" x="210.5" y="-155" font-family="Helvetica,sans-Serif" font-size="10.00">OBoos::Tick</text>
</a>
</g>
</g>
<!-- Node3&#45;&gt;Node4 -->
<g id="edge3_Node000003_Node000004" class="edge">
<title>Node3&#45;&gt;Node4</title>
<g id="a_edge3_Node000003_Node000004"><a xlink:title=" ">
<path fill="none" stroke="#63b8ff" d="M324.02,-157.5C297.77,-157.5 269.4,-157.5 247.71,-157.5"/>
<polygon fill="#63b8ff" stroke="#63b8ff" points="324.34,-161 334.34,-157.5 324.34,-154 324.34,-161"/>
</a>
</g>
</g>
<!-- Node6 -->
<g id="Node000006" class="node">
<title>Node6</title>
<g id="a_Node000006"><a xlink:href="update__objects_8c.html#a0f87dba5711ff3586d5fc515bd6df6af" target="_top" xlink:title=" ">
<polygon fill="white" stroke="#666666" points="256.5,-130 164.5,-130 164.5,-111 256.5,-111 256.5,-130"/>
<text text-anchor="middle" x="210.5" y="-118" font-family="Helvetica,sans-Serif" font-size="10.00">func_8007D070</text>
</a>
</g>
</g>
<!-- Node5&#45;&gt;Node6 -->
<g id="edge5_Node000005_Node000006" class="edge">
<title>Node5&#45;&gt;Node6</title>
<g id="a_edge5_Node000005_Node000006"><a xlink:title=" ">
<path fill="none" stroke="#63b8ff" d="M341.74,-120.5C314.54,-120.5 282.33,-120.5 256.75,-120.5"/>
<polygon fill="#63b8ff" stroke="#63b8ff" points="341.9,-124 351.9,-120.5 341.9,-117 341.9,-124"/>
</a>
</g>
</g>
<!-- Node8 -->
<g id="Node000008" class="node">
<title>Node8</title>
<g id="a_Node000008"><a xlink:href="classOTrashBin.html#af6d73933526741c82beebbed24515259" target="_top" xlink:title=" ">
<polygon fill="white" stroke="#666666" points="256.5,-93 164.5,-93 164.5,-74 256.5,-74 256.5,-93"/>
<text text-anchor="middle" x="210.5" y="-81" font-family="Helvetica,sans-Serif" font-size="10.00">OTrashBin::Tick</text>
</a>
</g>
</g>
<!-- Node7&#45;&gt;Node8 -->
<g id="edge7_Node000007_Node000008" class="edge">
<title>Node7&#45;&gt;Node8</title>
<g id="a_edge7_Node000007_Node000008"><a xlink:title=" ">
<path fill="none" stroke="#63b8ff" d="M315.71,-83.5C295.46,-83.5 274.5,-83.5 256.75,-83.5"/>
<polygon fill="#63b8ff" stroke="#63b8ff" points="315.89,-87 325.89,-83.5 315.89,-80 315.89,-87"/>
</a>
</g>
</g>
<!-- Node11 -->
<g id="Node000011" class="node">
<title>Node11</title>
<g id="a_Node000011"><a xlink:href="classOSnowman.html#a1d589cb7de864ebc8942ea1bc10d155a" target="_top" xlink:title=" ">
<polygon fill="white" stroke="#666666" points="475,-19 323,-19 323,0 475,0 475,-19"/>
<text text-anchor="middle" x="399" y="-7" font-family="Helvetica,sans-Serif" font-size="10.00">OSnowman::func_80083948</text>
</a>
</g>
</g>
<!-- Node10&#45;&gt;Node11 -->
<g id="edge10_Node000010_Node000011" class="edge">
<title>Node10&#45;&gt;Node11</title>
<g id="a_edge10_Node000010_Node000011"><a xlink:title=" ">
<path fill="none" stroke="#63b8ff" d="M500.9,-19.72C492.27,-18.85 483.57,-17.97 475.08,-17.11"/>
<polygon fill="#63b8ff" stroke="#63b8ff" points="500.66,-23.22 510.97,-20.74 501.37,-16.25 500.66,-23.22"/>
</a>
</g>
</g>
<!-- Node12 -->
<g id="Node000012" class="node">
<title>Node12</title>
<g id="a_Node000012"><a xlink:href="classOSnowman.html#ad8f7afbec39a4816e2c2b4237d15b294" target="_top" xlink:title=" ">
<polygon fill="white" stroke="#666666" points="287,-19 134,-19 134,0 287,0 287,-19"/>
<text text-anchor="middle" x="210.5" y="-7" font-family="Helvetica,sans-Serif" font-size="10.00">OSnowman::func_80083A94</text>
</a>
</g>
</g>
<!-- Node11&#45;&gt;Node12 -->
<g id="edge11_Node000011_Node000012" class="edge">
<title>Node11&#45;&gt;Node12</title>
<g id="a_edge11_Node000011_Node000012"><a xlink:title=" ">
<path fill="none" stroke="#63b8ff" d="M312.88,-9.5C304.25,-9.5 295.52,-9.5 287,-9.5"/>
<polygon fill="#63b8ff" stroke="#63b8ff" points="312.95,-13 322.95,-9.5 312.95,-6 312.95,-13"/>
</a>
</g>
</g>
<!-- Node13 -->
<g id="Node000013" class="node">
<title>Node13</title>
<g id="a_Node000013"><a xlink:href="classOSnowman.html#ae84de267ff70c7e2ac5748b9bd738ada" target="_top" xlink:title=" ">
<polygon fill="white" stroke="#666666" points="98,-19 0,-19 0,0 98,0 98,-19"/>
<text text-anchor="middle" x="49" y="-7" font-family="Helvetica,sans-Serif" font-size="10.00">OSnowman::Tick</text>
</a>
</g>
</g>
<!-- Node12&#45;&gt;Node13 -->
<g id="edge12_Node000012_Node000013" class="edge">
<title>Node12&#45;&gt;Node13</title>
<g id="a_edge12_Node000012_Node000013"><a xlink:title=" ">
<path fill="none" stroke="#63b8ff" d="M123.76,-9.5C115.09,-9.5 106.51,-9.5 98.45,-9.5"/>
<polygon fill="#63b8ff" stroke="#63b8ff" points="123.95,-13 133.95,-9.5 123.95,-6 123.95,-13"/>
</a>
</g>
</g>
</g>
</svg>
