<?xml version="1.0" encoding="UTF-8" standalone="no"?>
<!DOCTYPE svg PUBLIC "-//W3C//DTD SVG 1.1//EN"
 "http://www.w3.org/Graphics/SVG/1.1/DTD/svg11.dtd">
<!-- Generated by graphviz version 2.43.0 (0)
 -->
<!-- Title: src/actors/yoshi_egg/render.inc.c Pages: 1 -->
<svg width="551pt" height="379pt"
 viewBox="0.00 0.00 551.00 379.00" xmlns="http://www.w3.org/2000/svg" xmlns:xlink="http://www.w3.org/1999/xlink">
<g id="graph0" class="graph" transform="scale(1 1) rotate(0) translate(4 375)">
<title>src/actors/yoshi_egg/render.inc.c</title>
<!-- Node1 -->
<g id="Node000001" class="node">
<title>Node1</title>
<g id="a_Node000001"><a xlink:title=" ">
<polygon fill="#999999" stroke="#666666" points="409,-371 293,-371 293,-341 409,-341 409,-371"/>
<text text-anchor="start" x="301" y="-359" font-family="Helvetica,sans-Serif" font-size="10.00">src/actors/yoshi_egg</text>
<text text-anchor="middle" x="351" y="-348" font-family="Helvetica,sans-Serif" font-size="10.00">/render.inc.c</text>
</a>
</g>
</g>
<!-- Node2 -->
<g id="Node000002" class="node">
<title>Node2</title>
<g id="a_Node000002"><a xlink:href="camera_8h.html" target="_top" xlink:title=" ">
<polygon fill="white" stroke="#666666" points="282,-189.5 220,-189.5 220,-170.5 282,-170.5 282,-189.5"/>
<text text-anchor="middle" x="251" y="-177.5" font-family="Helvetica,sans-Serif" font-size="10.00">camera.h</text>
</a>
</g>
</g>
<!-- Node1&#45;&gt;Node2 -->
<g id="edge1_Node000001_Node000002" class="edge">
<title>Node1&#45;&gt;Node2</title>
<g id="a_edge1_Node000001_Node000002"><a xlink:title=" ">
<path fill="none" stroke="#63b8ff" d="M342.82,-340.76C324.65,-309.14 280.98,-233.16 261.13,-198.62"/>
<polygon fill="#63b8ff" stroke="#63b8ff" points="264.01,-196.61 255.99,-189.68 257.94,-200.1 264.01,-196.61"/>
</a>
</g>
</g>
<!-- Node5 -->
<g id="Node000005" class="node">
<title>Node5</title>
<g id="a_Node000005"><a xlink:href="actors_8h.html" target="_top" xlink:title=" ">
<polygon fill="white" stroke="#666666" points="265,-305 209,-305 209,-286 265,-286 265,-305"/>
<text text-anchor="middle" x="237" y="-293" font-family="Helvetica,sans-Serif" font-size="10.00">actors.h</text>
</a>
</g>
</g>
<!-- Node1&#45;&gt;Node5 -->
<g id="edge5_Node000001_Node000005" class="edge">
<title>Node1&#45;&gt;Node5</title>
<g id="a_edge5_Node000001_Node000005"><a xlink:title=" ">
<path fill="none" stroke="#63b8ff" d="M323.69,-340.99C305.35,-331.58 281.32,-319.24 263.21,-309.95"/>
<polygon fill="#63b8ff" stroke="#63b8ff" points="264.33,-306.59 253.84,-305.14 261.13,-312.82 264.33,-306.59"/>
</a>
</g>
</g>
<!-- Node11 -->
<g id="Node000011" class="node">
<title>Node11</title>
<g id="a_Node000011"><a xlink:href="defines_8h.html" target="_top" xlink:title=" ">
<polygon fill="white" stroke="#666666" points="478.5,-305 417.5,-305 417.5,-286 478.5,-286 478.5,-305"/>
<text text-anchor="middle" x="448" y="-293" font-family="Helvetica,sans-Serif" font-size="10.00">defines.h</text>
</a>
</g>
</g>
<!-- Node1&#45;&gt;Node11 -->
<g id="edge19_Node000001_Node000011" class="edge">
<title>Node1&#45;&gt;Node11</title>
<g id="a_edge19_Node000001_Node000011"><a xlink:title=" ">
<path fill="none" stroke="#63b8ff" d="M374.48,-340.84C389.8,-331.6 409.71,-319.59 424.95,-310.4"/>
<polygon fill="#63b8ff" stroke="#63b8ff" points="426.99,-313.26 433.75,-305.09 423.38,-307.26 426.99,-313.26"/>
</a>
</g>
</g>
<!-- Node12 -->
<g id="Node000012" class="node">
<title>Node12</title>
<g id="a_Node000012"><a xlink:href="main_8h.html" target="_top" xlink:title=" ">
<polygon fill="white" stroke="#666666" points="490,-189.5 440,-189.5 440,-170.5 490,-170.5 490,-189.5"/>
<text text-anchor="middle" x="465" y="-177.5" font-family="Helvetica,sans-Serif" font-size="10.00">main.h</text>
</a>
</g>
</g>
<!-- Node1&#45;&gt;Node12 -->
<g id="edge20_Node000001_Node000012" class="edge">
<title>Node1&#45;&gt;Node12</title>
<g id="a_edge20_Node000001_Node000012"><a xlink:title=" ">
<path fill="none" stroke="#63b8ff" d="M360.33,-340.76C381.13,-309.01 431.26,-232.5 453.75,-198.18"/>
<polygon fill="#63b8ff" stroke="#63b8ff" points="456.76,-199.97 459.31,-189.68 450.9,-196.13 456.76,-199.97"/>
</a>
</g>
</g>
<!-- Node17 -->
<g id="Node000017" class="node">
<title>Node17</title>
<g id="a_Node000017"><a xlink:href="FrameInterpolation_8h.html" target="_top" xlink:title=" ">
<polygon fill="white" stroke="#666666" points="422,-195 300,-195 300,-165 422,-165 422,-195"/>
<text text-anchor="start" x="308" y="-183" font-family="Helvetica,sans-Serif" font-size="10.00">port/interpolation</text>
<text text-anchor="middle" x="361" y="-172" font-family="Helvetica,sans-Serif" font-size="10.00">/FrameInterpolation.h</text>
</a>
</g>
</g>
<!-- Node1&#45;&gt;Node17 -->
<g id="edge27_Node000001_Node000017" class="edge">
<title>Node1&#45;&gt;Node17</title>
<g id="a_edge27_Node000001_Node000017"><a xlink:title=" ">
<path fill="none" stroke="#63b8ff" d="M351.82,-340.76C353.52,-311.19 357.45,-242.82 359.57,-205.83"/>
<polygon fill="#63b8ff" stroke="#63b8ff" points="363.09,-205.62 360.17,-195.44 356.1,-205.22 363.09,-205.62"/>
</a>
</g>
</g>
<!-- Node3 -->
<g id="Node000003" class="node">
<title>Node3</title>
<g id="a_Node000003"><a xlink:title=" ">
<polygon fill="#e0e0e0" stroke="#999999" points="280,-74 200,-74 200,-55 280,-55 280,-74"/>
<text text-anchor="middle" x="240" y="-62" font-family="Helvetica,sans-Serif" font-size="10.00">libultraship.h</text>
</a>
</g>
</g>
<!-- Node2&#45;&gt;Node3 -->
<g id="edge2_Node000002_Node000003" class="edge">
<title>Node2&#45;&gt;Node3</title>
<g id="a_edge2_Node000002_Node000003"><a xlink:title=" ">
<path fill="none" stroke="#63b8ff" d="M250.17,-170.47C248.41,-152.23 244.22,-109.07 241.81,-84.14"/>
<polygon fill="#63b8ff" stroke="#63b8ff" points="245.28,-83.75 240.84,-74.13 238.32,-84.42 245.28,-83.75"/>
</a>
</g>
</g>
<!-- Node4 -->
<g id="Node000004" class="node">
<title>Node4</title>
<g id="a_Node000004"><a xlink:href="common__structs_8h.html" target="_top" xlink:title=" ">
<polygon fill="white" stroke="#666666" points="375.5,-129 268.5,-129 268.5,-110 375.5,-110 375.5,-129"/>
<text text-anchor="middle" x="322" y="-117" font-family="Helvetica,sans-Serif" font-size="10.00">common_structs.h</text>
</a>
</g>
</g>
<!-- Node2&#45;&gt;Node4 -->
<g id="edge3_Node000002_Node000004" class="edge">
<title>Node2&#45;&gt;Node4</title>
<g id="a_edge3_Node000002_Node000004"><a xlink:title=" ">
<path fill="none" stroke="#63b8ff" d="M261.48,-170.37C272.49,-161.3 290.04,-146.84 303.41,-135.82"/>
<polygon fill="#63b8ff" stroke="#63b8ff" points="305.99,-138.23 311.48,-129.17 301.54,-132.83 305.99,-138.23"/>
</a>
</g>
</g>
<!-- Node4&#45;&gt;Node3 -->
<g id="edge4_Node000004_Node000003" class="edge">
<title>Node4&#45;&gt;Node3</title>
<g id="a_edge4_Node000004_Node000003"><a xlink:title=" ">
<path fill="none" stroke="#63b8ff" d="M308.83,-109.98C296.23,-101.84 277,-89.41 262.06,-79.76"/>
<polygon fill="#63b8ff" stroke="#63b8ff" points="263.71,-76.66 253.41,-74.17 259.91,-82.54 263.71,-76.66"/>
</a>
</g>
</g>
<!-- Node5&#45;&gt;Node2 -->
<g id="edge18_Node000005_Node000002" class="edge">
<title>Node5&#45;&gt;Node2</title>
<g id="a_edge18_Node000005_Node000002"><a xlink:title=" ">
<path fill="none" stroke="#63b8ff" d="M238.05,-285.97C240.3,-267.73 245.63,-224.57 248.7,-199.64"/>
<polygon fill="#63b8ff" stroke="#63b8ff" points="252.18,-199.98 249.94,-189.63 245.24,-199.13 252.18,-199.98"/>
</a>
</g>
</g>
<!-- Node6 -->
<g id="Node000006" class="node">
<title>Node6</title>
<g id="a_Node000006"><a xlink:href="actor__types_8h.html" target="_top" xlink:title=" ">
<polygon fill="white" stroke="#666666" points="201.5,-189.5 118.5,-189.5 118.5,-170.5 201.5,-170.5 201.5,-189.5"/>
<text text-anchor="middle" x="160" y="-177.5" font-family="Helvetica,sans-Serif" font-size="10.00">actor_types.h</text>
</a>
</g>
</g>
<!-- Node5&#45;&gt;Node6 -->
<g id="edge6_Node000005_Node000006" class="edge">
<title>Node5&#45;&gt;Node6</title>
<g id="a_edge6_Node000005_Node000006"><a xlink:title=" ">
<path fill="none" stroke="#63b8ff" d="M231.21,-285.97C218.56,-267.32 188.23,-222.61 171.53,-197.99"/>
<polygon fill="#63b8ff" stroke="#63b8ff" points="174.37,-195.94 165.85,-189.63 168.57,-199.87 174.37,-195.94"/>
</a>
</g>
</g>
<!-- Node10 -->
<g id="Node000010" class="node">
<title>Node10</title>
<g id="a_Node000010"><a xlink:href="code__800029B0_8h.html" target="_top" xlink:title=" ">
<polygon fill="white" stroke="#666666" points="184.5,-250 81.5,-250 81.5,-231 184.5,-231 184.5,-250"/>
<text text-anchor="middle" x="133" y="-238" font-family="Helvetica,sans-Serif" font-size="10.00">code_800029B0.h</text>
</a>
</g>
</g>
<!-- Node5&#45;&gt;Node10 -->
<g id="edge13_Node000005_Node000010" class="edge">
<title>Node5&#45;&gt;Node10</title>
<g id="a_edge13_Node000005_Node000010"><a xlink:title=" ">
<path fill="none" stroke="#63b8ff" d="M220.29,-285.98C203.79,-277.57 178.3,-264.59 159.12,-254.81"/>
<polygon fill="#63b8ff" stroke="#63b8ff" points="160.51,-251.59 150.01,-250.17 157.33,-257.83 160.51,-251.59"/>
</a>
</g>
</g>
<!-- Node6&#45;&gt;Node3 -->
<g id="edge7_Node000006_Node000003" class="edge">
<title>Node6&#45;&gt;Node3</title>
<g id="a_edge7_Node000006_Node000003"><a xlink:title=" ">
<path fill="none" stroke="#63b8ff" d="M166.01,-170.47C179.16,-151.82 210.67,-107.11 228.03,-82.49"/>
<polygon fill="#63b8ff" stroke="#63b8ff" points="231.02,-84.32 233.92,-74.13 225.3,-80.29 231.02,-84.32"/>
</a>
</g>
</g>
<!-- Node6&#45;&gt;Node4 -->
<g id="edge11_Node000006_Node000004" class="edge">
<title>Node6&#45;&gt;Node4</title>
<g id="a_edge11_Node000006_Node000004"><a xlink:title=" ">
<path fill="none" stroke="#63b8ff" d="M183.56,-170.49C211.27,-160.49 257.47,-143.8 288.81,-132.49"/>
<polygon fill="#63b8ff" stroke="#63b8ff" points="290.2,-135.71 298.42,-129.02 287.82,-129.12 290.2,-135.71"/>
</a>
</g>
</g>
<!-- Node7 -->
<g id="Node000007" class="node">
<title>Node7</title>
<g id="a_Node000007"><a xlink:href="macros_8h.html" target="_top" xlink:title=" ">
<polygon fill="white" stroke="#666666" points="62,-129 0,-129 0,-110 62,-110 62,-129"/>
<text text-anchor="middle" x="31" y="-117" font-family="Helvetica,sans-Serif" font-size="10.00">macros.h</text>
</a>
</g>
</g>
<!-- Node6&#45;&gt;Node7 -->
<g id="edge8_Node000006_Node000007" class="edge">
<title>Node6&#45;&gt;Node7</title>
<g id="a_edge8_Node000006_Node000007"><a xlink:title=" ">
<path fill="none" stroke="#63b8ff" d="M141.24,-170.49C119.65,-160.7 83.97,-144.52 59.07,-133.23"/>
<polygon fill="#63b8ff" stroke="#63b8ff" points="60.33,-129.96 49.78,-129.02 57.44,-136.33 60.33,-129.96"/>
</a>
</g>
</g>
<!-- Node9 -->
<g id="Node000009" class="node">
<title>Node9</title>
<g id="a_Node000009"><a xlink:title=" ">
<polygon fill="#e0e0e0" stroke="#999999" points="174,-129 118,-129 118,-110 174,-110 174,-129"/>
<text text-anchor="middle" x="146" y="-117" font-family="Helvetica,sans-Serif" font-size="10.00">assert.h</text>
</a>
</g>
</g>
<!-- Node6&#45;&gt;Node9 -->
<g id="edge12_Node000006_Node000009" class="edge">
<title>Node6&#45;&gt;Node9</title>
<g id="a_edge12_Node000006_Node000009"><a xlink:title=" ">
<path fill="none" stroke="#63b8ff" d="M157.93,-170.37C155.97,-162.16 152.95,-149.54 150.44,-139.05"/>
<polygon fill="#63b8ff" stroke="#63b8ff" points="153.81,-138.08 148.07,-129.17 147,-139.71 153.81,-138.08"/>
</a>
</g>
</g>
<!-- Node7&#45;&gt;Node3 -->
<g id="edge10_Node000007_Node000003" class="edge">
<title>Node7&#45;&gt;Node3</title>
<g id="a_edge10_Node000007_Node000003"><a xlink:title=" ">
<path fill="none" stroke="#63b8ff" d="M62.29,-110.57C97.98,-101.51 156.57,-86.66 196.65,-76.49"/>
<polygon fill="#63b8ff" stroke="#63b8ff" points="197.58,-79.87 206.42,-74.02 195.86,-73.08 197.58,-79.87"/>
</a>
</g>
</g>
<!-- Node8 -->
<g id="Node000008" class="node">
<title>Node8</title>
<g id="a_Node000008"><a xlink:href="math_8h.html" target="_top" xlink:title=" ">
<polygon fill="white" stroke="#666666" points="56.5,-74 5.5,-74 5.5,-55 56.5,-55 56.5,-74"/>
<text text-anchor="middle" x="31" y="-62" font-family="Helvetica,sans-Serif" font-size="10.00">math.h</text>
</a>
</g>
</g>
<!-- Node7&#45;&gt;Node8 -->
<g id="edge9_Node000007_Node000008" class="edge">
<title>Node7&#45;&gt;Node8</title>
<g id="a_edge9_Node000007_Node000008"><a xlink:title=" ">
<path fill="none" stroke="#63b8ff" d="M31,-109.75C31,-102.8 31,-92.85 31,-84.13"/>
<polygon fill="#63b8ff" stroke="#63b8ff" points="34.5,-84.09 31,-74.09 27.5,-84.09 34.5,-84.09"/>
</a>
</g>
</g>
<!-- Node10&#45;&gt;Node2 -->
<g id="edge17_Node000010_Node000002" class="edge">
<title>Node10&#45;&gt;Node2</title>
<g id="a_edge17_Node000010_Node000002"><a xlink:title=" ">
<path fill="none" stroke="#63b8ff" d="M150.16,-230.99C169.73,-221.29 201.97,-205.31 224.72,-194.03"/>
<polygon fill="#63b8ff" stroke="#63b8ff" points="226.42,-197.09 233.82,-189.52 223.31,-190.82 226.42,-197.09"/>
</a>
</g>
</g>
<!-- Node10&#45;&gt;Node3 -->
<g id="edge15_Node000010_Node000003" class="edge">
<title>Node10&#45;&gt;Node3</title>
<g id="a_edge15_Node000010_Node000003"><a xlink:title=" ">
<path fill="none" stroke="#63b8ff" d="M126.63,-230.84C120.74,-222.25 112.39,-208.45 109,-195 99.75,-158.37 87,-140.71 109,-110 127.33,-84.41 161.22,-73.36 189.94,-68.67"/>
<polygon fill="#63b8ff" stroke="#63b8ff" points="190.44,-72.13 199.85,-67.26 189.46,-65.2 190.44,-72.13"/>
</a>
</g>
</g>
<!-- Node10&#45;&gt;Node6 -->
<g id="edge16_Node000010_Node000006" class="edge">
<title>Node10&#45;&gt;Node6</title>
<g id="a_edge16_Node000010_Node000006"><a xlink:title=" ">
<path fill="none" stroke="#63b8ff" d="M136.98,-230.87C140.85,-222.49 146.84,-209.51 151.74,-198.89"/>
<polygon fill="#63b8ff" stroke="#63b8ff" points="154.99,-200.21 156,-189.67 148.63,-197.28 154.99,-200.21"/>
</a>
</g>
</g>
<!-- Node10&#45;&gt;Node7 -->
<g id="edge14_Node000010_Node000007" class="edge">
<title>Node10&#45;&gt;Node7</title>
<g id="a_edge14_Node000010_Node000007"><a xlink:title=" ">
<path fill="none" stroke="#63b8ff" d="M119.17,-230.82C106.85,-222.63 88.83,-209.46 76,-195 60.7,-177.75 47.65,-154.6 39.61,-138.71"/>
<polygon fill="#63b8ff" stroke="#63b8ff" points="42.61,-136.89 35.07,-129.45 36.33,-139.97 42.61,-136.89"/>
</a>
</g>
</g>
<!-- Node12&#45;&gt;Node4 -->
<g id="edge26_Node000012_Node000004" class="edge">
<title>Node12&#45;&gt;Node4</title>
<g id="a_edge26_Node000012_Node000004"><a xlink:title=" ">
<path fill="none" stroke="#63b8ff" d="M444.15,-170.4C439.8,-168.61 435.25,-166.74 431,-165 404.43,-154.11 374.2,-141.77 352.32,-132.85"/>
<polygon fill="#63b8ff" stroke="#63b8ff" points="353.49,-129.55 342.9,-129.01 350.84,-136.03 353.49,-129.55"/>
</a>
</g>
</g>
<!-- Node13 -->
<g id="Node000013" class="node">
<title>Node13</title>
<g id="a_Node000013"><a xlink:href="mk64_8h.html" target="_top" xlink:title=" ">
<polygon fill="white" stroke="#666666" points="488.5,-129 435.5,-129 435.5,-110 488.5,-110 488.5,-129"/>
<text text-anchor="middle" x="462" y="-117" font-family="Helvetica,sans-Serif" font-size="10.00">mk64.h</text>
</a>
</g>
</g>
<!-- Node12&#45;&gt;Node13 -->
<g id="edge21_Node000012_Node000013" class="edge">
<title>Node12&#45;&gt;Node13</title>
<g id="a_edge21_Node000012_Node000013"><a xlink:title=" ">
<path fill="none" stroke="#63b8ff" d="M464.56,-170.37C464.14,-162.25 463.5,-149.81 462.97,-139.39"/>
<polygon fill="#63b8ff" stroke="#63b8ff" points="466.45,-138.97 462.44,-129.17 459.46,-139.33 466.45,-138.97"/>
</a>
</g>
</g>
<!-- Node13&#45;&gt;Node3 -->
<g id="edge22_Node000013_Node000003" class="edge">
<title>Node13&#45;&gt;Node3</title>
<g id="a_edge22_Node000013_Node000003"><a xlink:title=" ">
<path fill="none" stroke="#63b8ff" d="M435.22,-112.11C398.13,-103.25 330.58,-87.13 285.5,-76.36"/>
<polygon fill="#63b8ff" stroke="#63b8ff" points="286.21,-72.93 275.67,-74.02 284.59,-79.74 286.21,-72.93"/>
</a>
</g>
</g>
<!-- Node14 -->
<g id="Node000014" class="node">
<title>Node14</title>
<g id="a_Node000014"><a xlink:href="string_8h.html" target="_top" xlink:title=" ">
<polygon fill="white" stroke="#666666" points="446.5,-74 393.5,-74 393.5,-55 446.5,-55 446.5,-74"/>
<text text-anchor="middle" x="420" y="-62" font-family="Helvetica,sans-Serif" font-size="10.00">string.h</text>
</a>
</g>
</g>
<!-- Node13&#45;&gt;Node14 -->
<g id="edge23_Node000013_Node000014" class="edge">
<title>Node13&#45;&gt;Node14</title>
<g id="a_edge23_Node000013_Node000014"><a xlink:title=" ">
<path fill="none" stroke="#63b8ff" d="M455.06,-109.75C449.13,-102.26 440.43,-91.28 433.18,-82.13"/>
<polygon fill="#63b8ff" stroke="#63b8ff" points="435.76,-79.75 426.81,-74.09 430.27,-84.1 435.76,-79.75"/>
</a>
</g>
</g>
<!-- Node16 -->
<g id="Node000016" class="node">
<title>Node16</title>
<g id="a_Node000016"><a xlink:title=" ">
<polygon fill="#e0e0e0" stroke="#999999" points="543,-74 465,-74 465,-55 543,-55 543,-74"/>
<text text-anchor="middle" x="504" y="-62" font-family="Helvetica,sans-Serif" font-size="10.00">libultra/gbi.h</text>
</a>
</g>
</g>
<!-- Node13&#45;&gt;Node16 -->
<g id="edge25_Node000013_Node000016" class="edge">
<title>Node13&#45;&gt;Node16</title>
<g id="a_edge25_Node000013_Node000016"><a xlink:title=" ">
<path fill="none" stroke="#63b8ff" d="M468.94,-109.75C474.87,-102.26 483.57,-91.28 490.82,-82.13"/>
<polygon fill="#63b8ff" stroke="#63b8ff" points="493.73,-84.1 497.19,-74.09 488.24,-79.75 493.73,-84.1"/>
</a>
</g>
</g>
<!-- Node15 -->
<g id="Node000015" class="node">
<title>Node15</title>
<g id="a_Node000015"><a xlink:title=" ">
<polygon fill="#e0e0e0" stroke="#999999" points="465,-19 375,-19 375,0 465,0 465,-19"/>
<text text-anchor="middle" x="420" y="-7" font-family="Helvetica,sans-Serif" font-size="10.00">libultra/types.h</text>
</a>
</g>
</g>
<!-- Node14&#45;&gt;Node15 -->
<g id="edge24_Node000014_Node000015" class="edge">
<title>Node14&#45;&gt;Node15</title>
<g id="a_edge24_Node000014_Node000015"><a xlink:title=" ">
<path fill="none" stroke="#63b8ff" d="M420,-54.75C420,-47.8 420,-37.85 420,-29.13"/>
<polygon fill="#63b8ff" stroke="#63b8ff" points="423.5,-29.09 420,-19.09 416.5,-29.09 423.5,-29.09"/>
</a>
</g>
</g>
<!-- Node17&#45;&gt;Node3 -->
<g id="edge28_Node000017_Node000003" class="edge">
<title>Node17&#45;&gt;Node3</title>
<g id="a_edge28_Node000017_Node000003"><a xlink:title=" ">
<path fill="none" stroke="#63b8ff" d="M372.74,-164.86C383.55,-150.01 396.22,-126.56 384,-110 362.7,-81.12 322.89,-70.41 290.51,-66.69"/>
<polygon fill="#63b8ff" stroke="#63b8ff" points="290.59,-63.18 280.3,-65.72 289.92,-70.15 290.59,-63.18"/>
</a>
</g>
</g>
<!-- Node17&#45;&gt;Node4 -->
<g id="edge29_Node000017_Node000004" class="edge">
<title>Node17&#45;&gt;Node4</title>
<g id="a_edge29_Node000017_Node000004"><a xlink:title=" ">
<path fill="none" stroke="#63b8ff" d="M351.56,-164.84C346.13,-156.69 339.27,-146.4 333.52,-137.78"/>
<polygon fill="#63b8ff" stroke="#63b8ff" points="336.3,-135.65 327.84,-129.27 330.48,-139.53 336.3,-135.65"/>
</a>
</g>
</g>
</g>
</svg>
