<?xml version="1.0" encoding="UTF-8" standalone="no"?>
<!DOCTYPE svg PUBLIC "-//W3C//DTD SVG 1.1//EN"
 "http://www.w3.org/Graphics/SVG/1.1/DTD/svg11.dtd">
<!-- Generated by graphviz version 2.43.0 (0)
 -->
<!-- Title: include/assets/models/tracks/yoshi_valley/yoshi_valley_vertices.h Pages: 1 -->
<svg width="425pt" height="225pt"
 viewBox="0.00 0.00 424.50 225.00" xmlns="http://www.w3.org/2000/svg" xmlns:xlink="http://www.w3.org/1999/xlink">
<g id="graph0" class="graph" transform="scale(1 1) rotate(0) translate(4 221)">
<title>include/assets/models/tracks/yoshi_valley/yoshi_valley_vertices.h</title>
<!-- Node1 -->
<g id="Node000001" class="node">
<title>Node1</title>
<g id="a_Node000001"><a xlink:title=" ">
<polygon fill="#999999" stroke="#666666" points="235.5,-217 101.5,-217 101.5,-176 235.5,-176 235.5,-217"/>
<text text-anchor="start" x="109.5" y="-205" font-family="Helvetica,sans-Serif" font-size="10.00">include/assets/models</text>
<text text-anchor="start" x="109.5" y="-194" font-family="Helvetica,sans-Serif" font-size="10.00">/tracks/yoshi_valley</text>
<text text-anchor="middle" x="168.5" y="-183" font-family="Helvetica,sans-Serif" font-size="10.00">/yoshi_valley_vertices.h</text>
</a>
</g>
</g>
<!-- Node2 -->
<g id="Node000002" class="node">
<title>Node2</title>
<g id="a_Node000002"><a xlink:href="all__course__model_8h.html" target="_top" xlink:title=" ">
<polygon fill="white" stroke="#666666" points="145,-140 38,-140 38,-110 145,-110 145,-140"/>
<text text-anchor="start" x="46" y="-128" font-family="Helvetica,sans-Serif" font-size="10.00">courses/all_course</text>
<text text-anchor="middle" x="91.5" y="-117" font-family="Helvetica,sans-Serif" font-size="10.00">_model.h</text>
</a>
</g>
</g>
<!-- Node1&#45;&gt;Node2 -->
<g id="edge1_Node000001_Node000002" class="edge">
<title>Node1&#45;&gt;Node2</title>
<g id="a_edge1_Node000001_Node000002"><a xlink:title=" ">
<path fill="none" stroke="#63b8ff" d="M138.96,-168.83C128.09,-159.02 116.21,-148.3 107.05,-140.04"/>
<polygon fill="#63b8ff" stroke="#63b8ff" points="136.87,-171.67 146.64,-175.77 141.56,-166.47 136.87,-171.67"/>
</a>
</g>
</g>
<!-- Node3 -->
<g id="Node000003" class="node">
<title>Node3</title>
<g id="a_Node000003"><a xlink:href="YoshiValley_8h.html" target="_top" xlink:title=" ">
<polygon fill="white" stroke="#666666" points="328,-134.5 163,-134.5 163,-115.5 328,-115.5 328,-134.5"/>
<text text-anchor="middle" x="245.5" y="-122.5" font-family="Helvetica,sans-Serif" font-size="10.00">src/engine/tracks/YoshiValley.h</text>
</a>
</g>
</g>
<!-- Node1&#45;&gt;Node3 -->
<g id="edge2_Node000001_Node000003" class="edge">
<title>Node1&#45;&gt;Node3</title>
<g id="a_edge2_Node000001_Node000003"><a xlink:title=" ">
<path fill="none" stroke="#63b8ff" d="M197.99,-168.88C211.35,-156.82 226.24,-143.38 235.73,-134.82"/>
<polygon fill="#63b8ff" stroke="#63b8ff" points="195.44,-166.47 190.36,-175.77 200.13,-171.67 195.44,-166.47"/>
</a>
</g>
</g>
<!-- Node4 -->
<g id="Node000004" class="node">
<title>Node4</title>
<g id="a_Node000004"><a xlink:href="AllTracks_8h.html" target="_top" xlink:title=" ">
<polygon fill="white" stroke="#666666" points="222.5,-74 100.5,-74 100.5,-55 222.5,-55 222.5,-74"/>
<text text-anchor="middle" x="161.5" y="-62" font-family="Helvetica,sans-Serif" font-size="10.00">src/engine/AllTracks.h</text>
</a>
</g>
</g>
<!-- Node3&#45;&gt;Node4 -->
<g id="edge3_Node000003_Node000004" class="edge">
<title>Node3&#45;&gt;Node4</title>
<g id="a_edge3_Node000003_Node000004"><a xlink:title=" ">
<path fill="none" stroke="#63b8ff" d="M224.46,-109.35C208.55,-98.27 187.24,-83.43 173.95,-74.17"/>
<polygon fill="#63b8ff" stroke="#63b8ff" points="222.9,-112.53 233.11,-115.37 226.9,-106.78 222.9,-112.53"/>
</a>
</g>
</g>
<!-- Node7 -->
<g id="Node000007" class="node">
<title>Node7</title>
<g id="a_Node000007"><a xlink:href="YoshiValley_8cpp.html" target="_top" xlink:title=" ">
<polygon fill="white" stroke="#666666" points="416.5,-74 240.5,-74 240.5,-55 416.5,-55 416.5,-74"/>
<text text-anchor="middle" x="328.5" y="-62" font-family="Helvetica,sans-Serif" font-size="10.00">src/engine/tracks/YoshiValley.cpp</text>
</a>
</g>
</g>
<!-- Node3&#45;&gt;Node7 -->
<g id="edge6_Node000003_Node000007" class="edge">
<title>Node3&#45;&gt;Node7</title>
<g id="a_edge6_Node000003_Node000007"><a xlink:title=" ">
<path fill="none" stroke="#63b8ff" d="M266.29,-109.35C282.01,-98.27 303.06,-83.43 316.2,-74.17"/>
<polygon fill="#63b8ff" stroke="#63b8ff" points="263.9,-106.75 257.75,-115.37 267.94,-112.47 263.9,-106.75"/>
</a>
</g>
</g>
<!-- Node5 -->
<g id="Node000005" class="node">
<title>Node5</title>
<g id="a_Node000005"><a xlink:href="RegisterContent_8cpp.html" target="_top" xlink:title=" ">
<polygon fill="white" stroke="#666666" points="169,-19 0,-19 0,0 169,0 169,-19"/>
<text text-anchor="middle" x="84.5" y="-7" font-family="Helvetica,sans-Serif" font-size="10.00">src/engine/RegisterContent.cpp</text>
</a>
</g>
</g>
<!-- Node4&#45;&gt;Node5 -->
<g id="edge4_Node000004_Node000005" class="edge">
<title>Node4&#45;&gt;Node5</title>
<g id="a_edge4_Node000004_Node000005"><a xlink:title=" ">
<path fill="none" stroke="#63b8ff" d="M140.65,-49.15C126.74,-39.57 108.89,-27.29 97.1,-19.17"/>
<polygon fill="#63b8ff" stroke="#63b8ff" points="138.91,-52.2 149.13,-54.98 142.88,-46.43 138.91,-52.2"/>
</a>
</g>
</g>
<!-- Node6 -->
<g id="Node000006" class="node">
<title>Node6</title>
<g id="a_Node000006"><a xlink:href="Game_8cpp.html" target="_top" xlink:title=" ">
<polygon fill="white" stroke="#666666" points="292.5,-19 186.5,-19 186.5,0 292.5,0 292.5,-19"/>
<text text-anchor="middle" x="239.5" y="-7" font-family="Helvetica,sans-Serif" font-size="10.00">src/port/Game.cpp</text>
</a>
</g>
</g>
<!-- Node4&#45;&gt;Node6 -->
<g id="edge5_Node000004_Node000006" class="edge">
<title>Node4&#45;&gt;Node6</title>
<g id="a_edge5_Node000004_Node000006"><a xlink:title=" ">
<path fill="none" stroke="#63b8ff" d="M182.62,-49.15C196.71,-39.57 214.79,-27.29 226.74,-19.17"/>
<polygon fill="#63b8ff" stroke="#63b8ff" points="180.34,-46.47 174.03,-54.98 184.27,-52.26 180.34,-46.47"/>
</a>
</g>
</g>
</g>
</svg>
